<?xml version="1.0" encoding="UTF-8" standalone="no"?>
<!DOCTYPE svg PUBLIC "-//W3C//DTD SVG 1.1//EN"
 "http://www.w3.org/Graphics/SVG/1.1/DTD/svg11.dtd">
<!-- Generated by graphviz version 2.47.3 (20210619.1520)
 -->
<!-- Title: G Pages: 1 -->
<svg width="282pt" height="260pt"
 viewBox="0.00 0.00 281.98 260.00" xmlns="http://www.w3.org/2000/svg" xmlns:xlink="http://www.w3.org/1999/xlink">
<g id="graph0" class="graph" transform="scale(1 1) rotate(0) translate(4 256)">
<title>G</title>
<polygon fill="white" stroke="transparent" points="-4,4 -4,-256 277.98,-256 277.98,4 -4,4"/>
<!-- CLAS&#45;CL_BALI_OBJECT_HANDLER -->
<g id="node1" class="node">
<title>CLAS&#45;CL_BALI_OBJECT_HANDLER</title>
<polygon fill="none" stroke="green" points="255.28,-252 8.92,-252 8.92,-216 255.28,-216 255.28,-252"/>
<text text-anchor="middle" x="132.1" y="-229.8" font-family="Times,serif" font-size="14.00">CLAS&#45;CL_BALI_OBJECT_HANDLER</text>
</g>
<!-- INTF&#45;IF_BALI_OBJECT_HANDLER -->
<g id="node2" class="node">
<title>INTF&#45;IF_BALI_OBJECT_HANDLER</title>
<g id="a_node2"><a xlink:href="./INTF_IF_BALI_OBJECT_HANDLER.html" xlink:title="INTF&#45;IF_BALI_OBJECT_HANDLER">
<polygon fill="none" stroke="green" points="250.16,-180 14.04,-180 14.04,-144 250.16,-144 250.16,-180"/>
<text text-anchor="middle" x="132.1" y="-157.8" font-family="Times,serif" font-size="14.00">INTF&#45;IF_BALI_OBJECT_HANDLER</text>
</a>
</g>
</g>
<!-- CLAS&#45;CL_BALI_OBJECT_HANDLER&#45;&gt;INTF&#45;IF_BALI_OBJECT_HANDLER -->
<g id="edge1" class="edge">
<title>CLAS&#45;CL_BALI_OBJECT_HANDLER&#45;&gt;INTF&#45;IF_BALI_OBJECT_HANDLER</title>
<path fill="none" stroke="black" d="M132.1,-215.7C132.1,-207.98 132.1,-198.71 132.1,-190.11"/>
<polygon fill="black" stroke="black" points="135.6,-190.1 132.1,-180.1 128.6,-190.1 135.6,-190.1"/>
</g>
<!-- DTEL&#45;TRKORR -->
<g id="node3" class="node">
<title>DTEL&#45;TRKORR</title>
<g id="a_node3"><a xlink:href="./DTEL_TRKORR.html" xlink:title="DTEL&#45;TRKORR">
<polygon fill="none" stroke="yellow" points="119.8,-108 6.4,-108 6.4,-72 119.8,-72 119.8,-108"/>
<text text-anchor="middle" x="63.1" y="-85.8" font-family="Times,serif" font-size="14.00">DTEL&#45;TRKORR</text>
</a>
</g>
</g>
<!-- INTF&#45;IF_BALI_OBJECT_HANDLER&#45;&gt;DTEL&#45;TRKORR -->
<g id="edge3" class="edge">
<title>INTF&#45;IF_BALI_OBJECT_HANDLER&#45;&gt;DTEL&#45;TRKORR</title>
<path fill="none" stroke="black" d="M115.04,-143.7C106.6,-135.14 96.28,-124.66 87.06,-115.3"/>
<polygon fill="black" stroke="black" points="89.47,-112.77 79.96,-108.1 84.49,-117.68 89.47,-112.77"/>
</g>
<!-- DTEL&#45;DEVCLASS -->
<g id="node5" class="node">
<title>DTEL&#45;DEVCLASS</title>
<g id="a_node5"><a xlink:href="./DTEL_DEVCLASS.html" xlink:title="DTEL&#45;DEVCLASS">
<polygon fill="none" stroke="yellow" points="268.35,-108 139.85,-108 139.85,-72 268.35,-72 268.35,-108"/>
<text text-anchor="middle" x="204.1" y="-85.8" font-family="Times,serif" font-size="14.00">DTEL&#45;DEVCLASS</text>
</a>
</g>
</g>
<!-- INTF&#45;IF_BALI_OBJECT_HANDLER&#45;&gt;DTEL&#45;DEVCLASS -->
<g id="edge2" class="edge">
<title>INTF&#45;IF_BALI_OBJECT_HANDLER&#45;&gt;DTEL&#45;DEVCLASS</title>
<path fill="none" stroke="black" d="M149.9,-143.7C158.7,-135.14 169.48,-124.66 179.1,-115.3"/>
<polygon fill="black" stroke="black" points="181.78,-117.58 186.51,-108.1 176.9,-112.57 181.78,-117.58"/>
</g>
<!-- DOMA&#45;TRKORR -->
<g id="node4" class="node">
<title>DOMA&#45;TRKORR</title>
<g id="a_node4"><a xlink:href="./DOMA_TRKORR.html" xlink:title="DOMA&#45;TRKORR">
<polygon fill="none" stroke="yellow" points="120.3,-36 -0.1,-36 -0.1,0 120.3,0 120.3,-36"/>
<text text-anchor="middle" x="60.1" y="-13.8" font-family="Times,serif" font-size="14.00">DOMA&#45;TRKORR</text>
</a>
</g>
</g>
<!-- DTEL&#45;TRKORR&#45;&gt;DOMA&#45;TRKORR -->
<g id="edge4" class="edge">
<title>DTEL&#45;TRKORR&#45;&gt;DOMA&#45;TRKORR</title>
<path fill="none" stroke="black" d="M62.36,-71.7C62.03,-63.98 61.63,-54.71 61.26,-46.11"/>
<polygon fill="black" stroke="black" points="64.76,-45.95 60.83,-36.1 57.76,-46.25 64.76,-45.95"/>
</g>
<!-- DOMA&#45;DEVCLASS -->
<g id="node6" class="node">
<title>DOMA&#45;DEVCLASS</title>
<g id="a_node6"><a xlink:href="./DOMA_DEVCLASS.html" xlink:title="DOMA&#45;DEVCLASS">
<polygon fill="none" stroke="yellow" points="273.85,-36 138.35,-36 138.35,0 273.85,0 273.85,-36"/>
<text text-anchor="middle" x="206.1" y="-13.8" font-family="Times,serif" font-size="14.00">DOMA&#45;DEVCLASS</text>
</a>
</g>
</g>
<!-- DTEL&#45;DEVCLASS&#45;&gt;DOMA&#45;DEVCLASS -->
<g id="edge5" class="edge">
<title>DTEL&#45;DEVCLASS&#45;&gt;DOMA&#45;DEVCLASS</title>
<path fill="none" stroke="black" d="M204.59,-71.7C204.82,-63.98 205.08,-54.71 205.33,-46.11"/>
<polygon fill="black" stroke="black" points="208.82,-46.2 205.61,-36.1 201.83,-46 208.82,-46.2"/>
</g>
</g>
</svg>
