<?xml version="1.0" encoding="UTF-8" standalone="no"?>
<!DOCTYPE svg PUBLIC "-//W3C//DTD SVG 1.1//EN"
 "http://www.w3.org/Graphics/SVG/1.1/DTD/svg11.dtd">
<!-- Generated by graphviz version 2.47.3 (20210619.1520)
 -->
<!-- Title: G Pages: 1 -->
<svg width="1501pt" height="1196pt"
 viewBox="0.00 0.00 1501.16 1196.00" xmlns="http://www.w3.org/2000/svg" xmlns:xlink="http://www.w3.org/1999/xlink">
<g id="graph0" class="graph" transform="scale(1 1) rotate(0) translate(4 1192)">
<title>G</title>
<polygon fill="white" stroke="transparent" points="-4,4 -4,-1192 1497.16,-1192 1497.16,4 -4,4"/>
<!-- CLAS&#45;CL_XCO_DBT_DATA_MAINTENANCE_F -->
<g id="node1" class="node">
<title>CLAS&#45;CL_XCO_DBT_DATA_MAINTENANCE_F</title>
<g id="a_node1"><a xlink:href="./CLAS_CL_XCO_DBT_DATA_MAINTENANCE_F.html" xlink:title="CLAS&#45;CL_XCO_DBT_DATA_MAINTENANCE_F">
<polygon fill="none" stroke="green" points="1474.4,-1188 1158.08,-1188 1158.08,-1152 1474.4,-1152 1474.4,-1188"/>
<text text-anchor="middle" x="1316.24" y="-1165.8" font-family="Times,serif" font-size="14.00">CLAS&#45;CL_XCO_DBT_DATA_MAINTENANCE_F</text>
</a>
</g>
</g>
<!-- CLAS&#45;CL_XCO_DBT_DATA_MAINTENANCE -->
<g id="node2" class="node">
<title>CLAS&#45;CL_XCO_DBT_DATA_MAINTENANCE</title>
<g id="a_node2"><a xlink:href="./CLAS_CL_XCO_DBT_DATA_MAINTENANCE.html" xlink:title="CLAS&#45;CL_XCO_DBT_DATA_MAINTENANCE">
<polygon fill="none" stroke="green" points="1467.12,-1116 1165.36,-1116 1165.36,-1080 1467.12,-1080 1467.12,-1116"/>
<text text-anchor="middle" x="1316.24" y="-1093.8" font-family="Times,serif" font-size="14.00">CLAS&#45;CL_XCO_DBT_DATA_MAINTENANCE</text>
</a>
</g>
</g>
<!-- CLAS&#45;CL_XCO_DBT_DATA_MAINTENANCE_F&#45;&gt;CLAS&#45;CL_XCO_DBT_DATA_MAINTENANCE -->
<g id="edge1" class="edge">
<title>CLAS&#45;CL_XCO_DBT_DATA_MAINTENANCE_F&#45;&gt;CLAS&#45;CL_XCO_DBT_DATA_MAINTENANCE</title>
<path fill="none" stroke="black" d="M1304.41,-1151.7C1302.81,-1143.98 1302.36,-1134.71 1303.05,-1126.11"/>
<polygon fill="black" stroke="black" points="1306.53,-1126.49 1304.45,-1116.1 1299.59,-1125.52 1306.53,-1126.49"/>
</g>
<!-- CLAS&#45;CL_XCO_DBT_DATA_MAINTENANCE_F&#45;&gt;CLAS&#45;CL_XCO_DBT_DATA_MAINTENANCE -->
<g id="edge5" class="edge">
<title>CLAS&#45;CL_XCO_DBT_DATA_MAINTENANCE_F&#45;&gt;CLAS&#45;CL_XCO_DBT_DATA_MAINTENANCE</title>
<path fill="none" stroke="black" d="M1328.07,-1151.7C1329.66,-1143.98 1330.11,-1134.71 1329.43,-1126.11"/>
<polygon fill="black" stroke="black" points="1332.88,-1125.52 1328.03,-1116.1 1325.95,-1126.49 1332.88,-1125.52"/>
</g>
<!-- CLAS&#45;CL_XCO_DBT_DATA_MAINTENANCE&#45;&gt;CLAS&#45;CL_XCO_DBT_DATA_MAINTENANCE_F -->
<g id="edge4" class="edge">
<title>CLAS&#45;CL_XCO_DBT_DATA_MAINTENANCE&#45;&gt;CLAS&#45;CL_XCO_DBT_DATA_MAINTENANCE_F</title>
<path fill="none" stroke="black" d="M1316.24,-1116.1C1316.24,-1123.79 1316.24,-1133.05 1316.24,-1141.67"/>
<polygon fill="black" stroke="black" points="1312.74,-1141.7 1316.24,-1151.7 1319.74,-1141.7 1312.74,-1141.7"/>
</g>
<!-- CLAS&#45;CL_XCO_ENUM_CONSTANT -->
<g id="node3" class="node">
<title>CLAS&#45;CL_XCO_ENUM_CONSTANT</title>
<g id="a_node3"><a xlink:href="./CLAS_CL_XCO_ENUM_CONSTANT.html" xlink:title="CLAS&#45;CL_XCO_ENUM_CONSTANT">
<polygon fill="none" stroke="yellow" points="1332.48,-1044 1092,-1044 1092,-1008 1332.48,-1008 1332.48,-1044"/>
<text text-anchor="middle" x="1212.24" y="-1021.8" font-family="Times,serif" font-size="14.00">CLAS&#45;CL_XCO_ENUM_CONSTANT</text>
</a>
</g>
</g>
<!-- CLAS&#45;CL_XCO_DBT_DATA_MAINTENANCE&#45;&gt;CLAS&#45;CL_XCO_ENUM_CONSTANT -->
<g id="edge3" class="edge">
<title>CLAS&#45;CL_XCO_DBT_DATA_MAINTENANCE&#45;&gt;CLAS&#45;CL_XCO_ENUM_CONSTANT</title>
<path fill="none" stroke="black" d="M1290.8,-1079.88C1277.45,-1070.89 1260.91,-1059.76 1246.46,-1050.03"/>
<polygon fill="black" stroke="black" points="1248.03,-1046.87 1237.78,-1044.19 1244.12,-1052.68 1248.03,-1046.87"/>
</g>
<!-- DTEL&#45;MAINTFLAG -->
<g id="node41" class="node">
<title>DTEL&#45;MAINTFLAG</title>
<g id="a_node41"><a xlink:href="./DTEL_MAINTFLAG.html" xlink:title="DTEL&#45;MAINTFLAG">
<polygon fill="none" stroke="yellow" points="1489.58,-1044 1350.89,-1044 1350.89,-1008 1489.58,-1008 1489.58,-1044"/>
<text text-anchor="middle" x="1420.24" y="-1021.8" font-family="Times,serif" font-size="14.00">DTEL&#45;MAINTFLAG</text>
</a>
</g>
</g>
<!-- CLAS&#45;CL_XCO_DBT_DATA_MAINTENANCE&#45;&gt;DTEL&#45;MAINTFLAG -->
<g id="edge2" class="edge">
<title>CLAS&#45;CL_XCO_DBT_DATA_MAINTENANCE&#45;&gt;DTEL&#45;MAINTFLAG</title>
<path fill="none" stroke="black" d="M1341.68,-1079.88C1355.02,-1070.89 1371.56,-1059.76 1386.01,-1050.03"/>
<polygon fill="black" stroke="black" points="1388.36,-1052.68 1394.7,-1044.19 1384.45,-1046.87 1388.36,-1052.68"/>
</g>
<!-- INTF&#45;IF_XCO_PRINTABLE -->
<g id="node4" class="node">
<title>INTF&#45;IF_XCO_PRINTABLE</title>
<g id="a_node4"><a xlink:href="./INTF_IF_XCO_PRINTABLE.html" xlink:title="INTF&#45;IF_XCO_PRINTABLE">
<polygon fill="none" stroke="green" points="1238.48,-972 1053.99,-972 1053.99,-936 1238.48,-936 1238.48,-972"/>
<text text-anchor="middle" x="1146.24" y="-949.8" font-family="Times,serif" font-size="14.00">INTF&#45;IF_XCO_PRINTABLE</text>
</a>
</g>
</g>
<!-- CLAS&#45;CL_XCO_ENUM_CONSTANT&#45;&gt;INTF&#45;IF_XCO_PRINTABLE -->
<g id="edge6" class="edge">
<title>CLAS&#45;CL_XCO_ENUM_CONSTANT&#45;&gt;INTF&#45;IF_XCO_PRINTABLE</title>
<path fill="none" stroke="black" d="M1195.92,-1007.7C1187.93,-999.22 1178.17,-988.86 1169.41,-979.58"/>
<polygon fill="black" stroke="black" points="1171.77,-976.98 1162.36,-972.1 1166.68,-981.78 1171.77,-976.98"/>
</g>
<!-- INTF&#45;IF_XCO_TEXT -->
<g id="node5" class="node">
<title>INTF&#45;IF_XCO_TEXT</title>
<g id="a_node5"><a xlink:href="./INTF_IF_XCO_TEXT.html" xlink:title="INTF&#45;IF_XCO_TEXT">
<polygon fill="none" stroke="green" points="1217.76,-900 1074.72,-900 1074.72,-864 1217.76,-864 1217.76,-900"/>
<text text-anchor="middle" x="1146.24" y="-877.8" font-family="Times,serif" font-size="14.00">INTF&#45;IF_XCO_TEXT</text>
</a>
</g>
</g>
<!-- INTF&#45;IF_XCO_PRINTABLE&#45;&gt;INTF&#45;IF_XCO_TEXT -->
<g id="edge7" class="edge">
<title>INTF&#45;IF_XCO_PRINTABLE&#45;&gt;INTF&#45;IF_XCO_TEXT</title>
<path fill="none" stroke="black" d="M1146.24,-935.7C1146.24,-927.98 1146.24,-918.71 1146.24,-910.11"/>
<polygon fill="black" stroke="black" points="1149.74,-910.1 1146.24,-900.1 1142.74,-910.1 1149.74,-910.1"/>
</g>
<!-- INTF&#45;IF_XCO_STRINGS -->
<g id="node6" class="node">
<title>INTF&#45;IF_XCO_STRINGS</title>
<g id="a_node6"><a xlink:href="./INTF_IF_XCO_STRINGS.html" xlink:title="INTF&#45;IF_XCO_STRINGS">
<polygon fill="none" stroke="green" points="782.32,-828 616.15,-828 616.15,-792 782.32,-792 782.32,-828"/>
<text text-anchor="middle" x="699.24" y="-805.8" font-family="Times,serif" font-size="14.00">INTF&#45;IF_XCO_STRINGS</text>
</a>
</g>
</g>
<!-- INTF&#45;IF_XCO_TEXT&#45;&gt;INTF&#45;IF_XCO_STRINGS -->
<g id="edge8" class="edge">
<title>INTF&#45;IF_XCO_TEXT&#45;&gt;INTF&#45;IF_XCO_STRINGS</title>
<path fill="none" stroke="black" d="M1074.33,-870.52C997.71,-858.85 876.23,-839.86 792.35,-826.48"/>
<polygon fill="black" stroke="black" points="792.74,-822.99 782.32,-824.87 791.64,-829.91 792.74,-822.99"/>
</g>
<!-- INTF&#45;IF_XCO_STRINGS&#45;&gt;INTF&#45;IF_XCO_TEXT -->
<g id="edge14" class="edge">
<title>INTF&#45;IF_XCO_STRINGS&#45;&gt;INTF&#45;IF_XCO_TEXT</title>
<path fill="none" stroke="black" d="M782.6,-823.23C863.22,-835.56 984.56,-854.55 1064.6,-867.36"/>
<polygon fill="black" stroke="black" points="1064.21,-870.84 1074.64,-868.97 1065.32,-863.93 1064.21,-870.84"/>
</g>
<!-- INTF&#45;IF_XCO_STRING_ITERABLE -->
<g id="node7" class="node">
<title>INTF&#45;IF_XCO_STRING_ITERABLE</title>
<g id="a_node7"><a xlink:href="./INTF_IF_XCO_STRING_ITERABLE.html" xlink:title="INTF&#45;IF_XCO_STRING_ITERABLE">
<polygon fill="none" stroke="green" points="1080.69,-756 847.78,-756 847.78,-720 1080.69,-720 1080.69,-756"/>
<text text-anchor="middle" x="964.24" y="-733.8" font-family="Times,serif" font-size="14.00">INTF&#45;IF_XCO_STRING_ITERABLE</text>
</a>
</g>
</g>
<!-- INTF&#45;IF_XCO_STRINGS&#45;&gt;INTF&#45;IF_XCO_STRING_ITERABLE -->
<g id="edge15" class="edge">
<title>INTF&#45;IF_XCO_STRINGS&#45;&gt;INTF&#45;IF_XCO_STRING_ITERABLE</title>
<path fill="none" stroke="black" d="M763.72,-791.97C801.72,-781.93 849.94,-769.19 889.58,-758.72"/>
<polygon fill="black" stroke="black" points="890.69,-762.05 899.46,-756.11 888.9,-755.28 890.69,-762.05"/>
</g>
<!-- INTF&#45;IF_XCO_STRING -->
<g id="node10" class="node">
<title>INTF&#45;IF_XCO_STRING</title>
<g id="a_node10"><a xlink:href="./INTF_IF_XCO_STRING.html" xlink:title="INTF&#45;IF_XCO_STRING">
<polygon fill="none" stroke="green" points="778.54,-612 619.93,-612 619.93,-576 778.54,-576 778.54,-612"/>
<text text-anchor="middle" x="699.24" y="-589.8" font-family="Times,serif" font-size="14.00">INTF&#45;IF_XCO_STRING</text>
</a>
</g>
</g>
<!-- INTF&#45;IF_XCO_STRINGS&#45;&gt;INTF&#45;IF_XCO_STRING -->
<g id="edge11" class="edge">
<title>INTF&#45;IF_XCO_STRINGS&#45;&gt;INTF&#45;IF_XCO_STRING</title>
<path fill="none" stroke="black" d="M615.9,-797.86C590.79,-790.26 566.04,-777.48 551.24,-756 514.42,-702.57 593.64,-646.63 649.85,-616.8"/>
<polygon fill="black" stroke="black" points="651.73,-619.77 659,-612.07 648.51,-613.56 651.73,-619.77"/>
</g>
<!-- INTF&#45;IF_XCO_NEWS -->
<g id="node11" class="node">
<title>INTF&#45;IF_XCO_NEWS</title>
<g id="a_node11"><a xlink:href="./INTF_IF_XCO_NEWS.html" xlink:title="INTF&#45;IF_XCO_NEWS">
<polygon fill="none" stroke="green" points="1127.15,-540 979.32,-540 979.32,-504 1127.15,-504 1127.15,-540"/>
<text text-anchor="middle" x="1053.24" y="-517.8" font-family="Times,serif" font-size="14.00">INTF&#45;IF_XCO_NEWS</text>
</a>
</g>
</g>
<!-- INTF&#45;IF_XCO_STRINGS&#45;&gt;INTF&#45;IF_XCO_NEWS -->
<g id="edge13" class="edge">
<title>INTF&#45;IF_XCO_STRINGS&#45;&gt;INTF&#45;IF_XCO_NEWS</title>
<path fill="none" stroke="black" d="M782.51,-803.45C891.03,-795.35 1069.38,-778.74 1089.24,-756 1140.73,-697.04 1095.19,-596.13 1068.86,-548.86"/>
<polygon fill="black" stroke="black" points="1071.89,-547.1 1063.89,-540.15 1065.81,-550.57 1071.89,-547.1"/>
</g>
<!-- INTF&#45;IF_XCO_STRING_COMPOSITION -->
<g id="node37" class="node">
<title>INTF&#45;IF_XCO_STRING_COMPOSITION</title>
<g id="a_node37"><a xlink:href="./INTF_IF_XCO_STRING_COMPOSITION.html" xlink:title="INTF&#45;IF_XCO_STRING_COMPOSITION">
<polygon fill="none" stroke="green" points="829.68,-756 568.79,-756 568.79,-720 829.68,-720 829.68,-756"/>
<text text-anchor="middle" x="699.24" y="-733.8" font-family="Times,serif" font-size="14.00">INTF&#45;IF_XCO_STRING_COMPOSITION</text>
</a>
</g>
</g>
<!-- INTF&#45;IF_XCO_STRINGS&#45;&gt;INTF&#45;IF_XCO_STRING_COMPOSITION -->
<g id="edge12" class="edge">
<title>INTF&#45;IF_XCO_STRINGS&#45;&gt;INTF&#45;IF_XCO_STRING_COMPOSITION</title>
<path fill="none" stroke="black" d="M693.32,-791.7C692.53,-783.98 692.3,-774.71 692.64,-766.11"/>
<polygon fill="black" stroke="black" points="696.13,-766.32 693.34,-756.1 689.15,-765.84 696.13,-766.32"/>
</g>
<!-- TTYP&#45;STRING_TABLE -->
<g id="node38" class="node">
<title>TTYP&#45;STRING_TABLE</title>
<g id="a_node38"><a xlink:href="./TTYP_STRING_TABLE.html" xlink:title="TTYP&#45;STRING_TABLE">
<polygon fill="none" stroke="green" points="390.54,-756 231.93,-756 231.93,-720 390.54,-720 390.54,-756"/>
<text text-anchor="middle" x="311.24" y="-733.8" font-family="Times,serif" font-size="14.00">TTYP&#45;STRING_TABLE</text>
</a>
</g>
</g>
<!-- INTF&#45;IF_XCO_STRINGS&#45;&gt;TTYP&#45;STRING_TABLE -->
<g id="edge10" class="edge">
<title>INTF&#45;IF_XCO_STRINGS&#45;&gt;TTYP&#45;STRING_TABLE</title>
<path fill="none" stroke="black" d="M616.05,-794.56C558.49,-784.5 479.85,-770.61 400.93,-756.12"/>
<polygon fill="black" stroke="black" points="401.27,-752.62 390.8,-754.25 400,-759.5 401.27,-752.62"/>
</g>
<!-- DTEL&#45;INT4 -->
<g id="node39" class="node">
<title>DTEL&#45;INT4</title>
<g id="a_node39"><a xlink:href="./DTEL_INT4.html" xlink:title="DTEL&#45;INT4">
<polygon fill="none" stroke="green" points="495.48,-756 408.99,-756 408.99,-720 495.48,-720 495.48,-756"/>
<text text-anchor="middle" x="452.24" y="-733.8" font-family="Times,serif" font-size="14.00">DTEL&#45;INT4</text>
</a>
</g>
</g>
<!-- INTF&#45;IF_XCO_STRINGS&#45;&gt;DTEL&#45;INT4 -->
<g id="edge9" class="edge">
<title>INTF&#45;IF_XCO_STRINGS&#45;&gt;DTEL&#45;INT4</title>
<path fill="none" stroke="black" d="M637.12,-791.97C599.97,-781.71 551.85,-768.3 509.24,-756 508.01,-755.65 506.77,-755.29 505.51,-754.92"/>
<polygon fill="black" stroke="black" points="506.36,-751.52 495.78,-752.07 504.4,-758.24 506.36,-751.52"/>
</g>
<!-- INTF&#45;IF_XCO_STRING_ITERATOR -->
<g id="node8" class="node">
<title>INTF&#45;IF_XCO_STRING_ITERATOR</title>
<g id="a_node8"><a xlink:href="./INTF_IF_XCO_STRING_ITERATOR.html" xlink:title="INTF&#45;IF_XCO_STRING_ITERATOR">
<polygon fill="none" stroke="green" points="1031.24,-684 797.23,-684 797.23,-648 1031.24,-648 1031.24,-684"/>
<text text-anchor="middle" x="914.24" y="-661.8" font-family="Times,serif" font-size="14.00">INTF&#45;IF_XCO_STRING_ITERATOR</text>
</a>
</g>
</g>
<!-- INTF&#45;IF_XCO_STRING_ITERABLE&#45;&gt;INTF&#45;IF_XCO_STRING_ITERATOR -->
<g id="edge16" class="edge">
<title>INTF&#45;IF_XCO_STRING_ITERABLE&#45;&gt;INTF&#45;IF_XCO_STRING_ITERATOR</title>
<path fill="none" stroke="black" d="M951.88,-719.7C946,-711.47 938.87,-701.48 932.39,-692.42"/>
<polygon fill="black" stroke="black" points="935.11,-690.21 926.45,-684.1 929.42,-694.28 935.11,-690.21"/>
</g>
<!-- INTF&#45;IF_XCO_ITERATOR -->
<g id="node9" class="node">
<title>INTF&#45;IF_XCO_ITERATOR</title>
<g id="a_node9"><a xlink:href="./INTF_IF_XCO_ITERATOR.html" xlink:title="INTF&#45;IF_XCO_ITERATOR">
<polygon fill="none" stroke="green" points="1002.7,-612 825.78,-612 825.78,-576 1002.7,-576 1002.7,-612"/>
<text text-anchor="middle" x="914.24" y="-589.8" font-family="Times,serif" font-size="14.00">INTF&#45;IF_XCO_ITERATOR</text>
</a>
</g>
</g>
<!-- INTF&#45;IF_XCO_STRING_ITERATOR&#45;&gt;INTF&#45;IF_XCO_ITERATOR -->
<g id="edge18" class="edge">
<title>INTF&#45;IF_XCO_STRING_ITERATOR&#45;&gt;INTF&#45;IF_XCO_ITERATOR</title>
<path fill="none" stroke="black" d="M914.24,-647.7C914.24,-639.98 914.24,-630.71 914.24,-622.11"/>
<polygon fill="black" stroke="black" points="917.74,-622.1 914.24,-612.1 910.74,-622.1 917.74,-622.1"/>
</g>
<!-- INTF&#45;IF_XCO_STRING_ITERATOR&#45;&gt;INTF&#45;IF_XCO_STRING -->
<g id="edge17" class="edge">
<title>INTF&#45;IF_XCO_STRING_ITERATOR&#45;&gt;INTF&#45;IF_XCO_STRING</title>
<path fill="none" stroke="black" d="M861.92,-647.97C831.62,-638.1 793.29,-625.62 761.45,-615.25"/>
<polygon fill="black" stroke="black" points="762.38,-611.88 751.79,-612.11 760.22,-618.53 762.38,-611.88"/>
</g>
<!-- INTF&#45;IF_XCO_STRING&#45;&gt;INTF&#45;IF_XCO_TEXT -->
<g id="edge25" class="edge">
<title>INTF&#45;IF_XCO_STRING&#45;&gt;INTF&#45;IF_XCO_TEXT</title>
<path fill="none" stroke="black" d="M778.81,-606.57C877.83,-621.08 1034.71,-644.5 1040.24,-648 1112.66,-693.78 1136.12,-802.75 1143.29,-853.77"/>
<polygon fill="black" stroke="black" points="1139.82,-854.27 1144.58,-863.73 1146.76,-853.37 1139.82,-854.27"/>
</g>
<!-- INTF&#45;IF_XCO_STRING&#45;&gt;INTF&#45;IF_XCO_STRINGS -->
<g id="edge19" class="edge">
<title>INTF&#45;IF_XCO_STRING&#45;&gt;INTF&#45;IF_XCO_STRINGS</title>
<path fill="none" stroke="black" d="M670.15,-612.07C620.82,-640.4 530.37,-699.59 569.24,-756 578.76,-769.83 592.41,-780.05 607.33,-787.6"/>
<polygon fill="black" stroke="black" points="606.22,-790.94 616.76,-791.97 609.16,-784.59 606.22,-790.94"/>
</g>
<!-- INTF&#45;IF_XCO_STRING&#45;&gt;INTF&#45;IF_XCO_STRING_ITERABLE -->
<g id="edge26" class="edge">
<title>INTF&#45;IF_XCO_STRING&#45;&gt;INTF&#45;IF_XCO_STRING_ITERABLE</title>
<path fill="none" stroke="black" d="M712.11,-612.28C727.91,-632.33 756.54,-665.05 788.24,-684 812.38,-698.44 840.78,-709.22 867.62,-717.15"/>
<polygon fill="black" stroke="black" points="866.86,-720.57 877.44,-719.94 868.78,-713.84 866.86,-720.57"/>
</g>
<!-- INTF&#45;IF_XCO_STRING&#45;&gt;INTF&#45;IF_XCO_NEWS -->
<g id="edge24" class="edge">
<title>INTF&#45;IF_XCO_STRING&#45;&gt;INTF&#45;IF_XCO_NEWS</title>
<path fill="none" stroke="black" d="M778.43,-577.7C830.06,-567.69 899.18,-554.19 969.54,-540.13"/>
<polygon fill="black" stroke="black" points="970.36,-543.54 979.48,-538.14 968.98,-536.67 970.36,-543.54"/>
</g>
<!-- INTF&#45;IF_XCO_MESSAGE -->
<g id="node13" class="node">
<title>INTF&#45;IF_XCO_MESSAGE</title>
<g id="a_node13"><a xlink:href="./INTF_IF_XCO_MESSAGE.html" xlink:title="INTF&#45;IF_XCO_MESSAGE">
<polygon fill="none" stroke="green" points="803.82,-396 630.65,-396 630.65,-360 803.82,-360 803.82,-396"/>
<text text-anchor="middle" x="717.24" y="-373.8" font-family="Times,serif" font-size="14.00">INTF&#45;IF_XCO_MESSAGE</text>
</a>
</g>
</g>
<!-- INTF&#45;IF_XCO_STRING&#45;&gt;INTF&#45;IF_XCO_MESSAGE -->
<g id="edge21" class="edge">
<title>INTF&#45;IF_XCO_STRING&#45;&gt;INTF&#45;IF_XCO_MESSAGE</title>
<path fill="none" stroke="black" d="M619.77,-590.24C543.94,-584.01 445.45,-564.45 476.24,-504 504.74,-448.03 568.86,-416.46 623.8,-399.05"/>
<polygon fill="black" stroke="black" points="625.05,-402.33 633.59,-396.07 623,-395.64 625.05,-402.33"/>
</g>
<!-- INTF&#45;IF_XCO_XSTRING -->
<g id="node33" class="node">
<title>INTF&#45;IF_XCO_XSTRING</title>
<g id="a_node33"><a xlink:href="./INTF_IF_XCO_XSTRING.html" xlink:title="INTF&#45;IF_XCO_XSTRING">
<polygon fill="none" stroke="green" points="961.65,-540 792.83,-540 792.83,-504 961.65,-504 961.65,-540"/>
<text text-anchor="middle" x="877.24" y="-517.8" font-family="Times,serif" font-size="14.00">INTF&#45;IF_XCO_XSTRING</text>
</a>
</g>
</g>
<!-- INTF&#45;IF_XCO_STRING&#45;&gt;INTF&#45;IF_XCO_XSTRING -->
<g id="edge23" class="edge">
<title>INTF&#45;IF_XCO_STRING&#45;&gt;INTF&#45;IF_XCO_XSTRING</title>
<path fill="none" stroke="black" d="M736.88,-575.88C760.53,-566.18 791.44,-553.98 818.27,-543.74"/>
<polygon fill="black" stroke="black" points="819.84,-546.89 827.94,-540.07 817.35,-540.35 819.84,-546.89"/>
</g>
<!-- INTF&#45;IF_XCO_STRING_XSTRING_CNVRSN -->
<g id="node35" class="node">
<title>INTF&#45;IF_XCO_STRING_XSTRING_CNVRSN</title>
<g id="a_node35"><a xlink:href="./INTF_IF_XCO_STRING_XSTRING_CNVRSN.html" xlink:title="INTF&#45;IF_XCO_STRING_XSTRING_CNVRSN">
<polygon fill="none" stroke="green" points="774.97,-540 485.51,-540 485.51,-504 774.97,-504 774.97,-540"/>
<text text-anchor="middle" x="630.24" y="-517.8" font-family="Times,serif" font-size="14.00">INTF&#45;IF_XCO_STRING_XSTRING_CNVRSN</text>
</a>
</g>
</g>
<!-- INTF&#45;IF_XCO_STRING&#45;&gt;INTF&#45;IF_XCO_STRING_XSTRING_CNVRSN -->
<g id="edge22" class="edge">
<title>INTF&#45;IF_XCO_STRING&#45;&gt;INTF&#45;IF_XCO_STRING_XSTRING_CNVRSN</title>
<path fill="none" stroke="black" d="M682.18,-575.7C673.74,-567.14 663.41,-556.66 654.19,-547.3"/>
<polygon fill="black" stroke="black" points="656.61,-544.77 647.1,-540.1 651.62,-549.68 656.61,-544.77"/>
</g>
<!-- INTF&#45;IF_XCO_STRING_DECOMPOSITION -->
<g id="node36" class="node">
<title>INTF&#45;IF_XCO_STRING_DECOMPOSITION</title>
<g id="a_node36"><a xlink:href="./INTF_IF_XCO_STRING_DECOMPOSITION.html" xlink:title="INTF&#45;IF_XCO_STRING_DECOMPOSITION">
<polygon fill="none" stroke="green" points="428.84,-540 149.63,-540 149.63,-504 428.84,-504 428.84,-540"/>
<text text-anchor="middle" x="289.24" y="-517.8" font-family="Times,serif" font-size="14.00">INTF&#45;IF_XCO_STRING_DECOMPOSITION</text>
</a>
</g>
</g>
<!-- INTF&#45;IF_XCO_STRING&#45;&gt;INTF&#45;IF_XCO_STRING_DECOMPOSITION -->
<g id="edge20" class="edge">
<title>INTF&#45;IF_XCO_STRING&#45;&gt;INTF&#45;IF_XCO_STRING_DECOMPOSITION</title>
<path fill="none" stroke="black" d="M619.65,-580.32C555.15,-569.58 463.81,-554.03 393.49,-541.83"/>
<polygon fill="black" stroke="black" points="393.72,-538.32 383.27,-540.06 392.52,-545.22 393.72,-538.32"/>
</g>
<!-- TTYP&#45;SXCO_T_MESSAGES -->
<g id="node12" class="node">
<title>TTYP&#45;SXCO_T_MESSAGES</title>
<g id="a_node12"><a xlink:href="./TTYP_SXCO_T_MESSAGES.html" xlink:title="TTYP&#45;SXCO_T_MESSAGES">
<polygon fill="none" stroke="green" points="1118.39,-468 930.09,-468 930.09,-432 1118.39,-432 1118.39,-468"/>
<text text-anchor="middle" x="1024.24" y="-445.8" font-family="Times,serif" font-size="14.00">TTYP&#45;SXCO_T_MESSAGES</text>
</a>
</g>
</g>
<!-- INTF&#45;IF_XCO_NEWS&#45;&gt;TTYP&#45;SXCO_T_MESSAGES -->
<g id="edge27" class="edge">
<title>INTF&#45;IF_XCO_NEWS&#45;&gt;TTYP&#45;SXCO_T_MESSAGES</title>
<path fill="none" stroke="black" d="M1046.07,-503.7C1042.8,-495.81 1038.86,-486.3 1035.23,-477.55"/>
<polygon fill="black" stroke="black" points="1038.38,-476 1031.32,-468.1 1031.92,-478.68 1038.38,-476"/>
</g>
<!-- TTYP&#45;SXCO_T_MESSAGES&#45;&gt;INTF&#45;IF_XCO_MESSAGE -->
<g id="edge28" class="edge">
<title>TTYP&#45;SXCO_T_MESSAGES&#45;&gt;INTF&#45;IF_XCO_MESSAGE</title>
<path fill="none" stroke="black" d="M949.53,-431.97C904.97,-421.8 848.25,-408.87 802.01,-398.33"/>
<polygon fill="black" stroke="black" points="802.54,-394.86 792.01,-396.05 800.98,-401.69 802.54,-394.86"/>
</g>
<!-- INTF&#45;IF_XCO_MESSAGE&#45;&gt;INTF&#45;IF_XCO_NEWS -->
<g id="edge37" class="edge">
<title>INTF&#45;IF_XCO_MESSAGE&#45;&gt;INTF&#45;IF_XCO_NEWS</title>
<path fill="none" stroke="black" d="M795.08,-396.06C823.99,-404.36 856.28,-416.07 883.24,-432 903.27,-443.84 901.65,-455.44 921.24,-468 941.7,-481.12 965.94,-491.99 988.03,-500.39"/>
<polygon fill="black" stroke="black" points="987.09,-503.77 997.68,-503.96 989.51,-497.21 987.09,-503.77"/>
</g>
<!-- INTF&#45;IF_T100_DYN_MSG -->
<g id="node14" class="node">
<title>INTF&#45;IF_T100_DYN_MSG</title>
<g id="a_node14"><a xlink:href="./INTF_IF_T100_DYN_MSG.html" xlink:title="INTF&#45;IF_T100_DYN_MSG">
<polygon fill="none" stroke="green" points="670.15,-324 494.32,-324 494.32,-288 670.15,-288 670.15,-324"/>
<text text-anchor="middle" x="582.24" y="-301.8" font-family="Times,serif" font-size="14.00">INTF&#45;IF_T100_DYN_MSG</text>
</a>
</g>
</g>
<!-- INTF&#45;IF_XCO_MESSAGE&#45;&gt;INTF&#45;IF_T100_DYN_MSG -->
<g id="edge36" class="edge">
<title>INTF&#45;IF_XCO_MESSAGE&#45;&gt;INTF&#45;IF_T100_DYN_MSG</title>
<path fill="none" stroke="black" d="M684.21,-359.88C666.15,-350.51 643.59,-338.81 624.29,-328.8"/>
<polygon fill="black" stroke="black" points="625.88,-325.69 615.39,-324.19 622.65,-331.9 625.88,-325.69"/>
</g>
<!-- DTEL&#45;SYMSGNO -->
<g id="node19" class="node">
<title>DTEL&#45;SYMSGNO</title>
<g id="a_node19"><a xlink:href="./DTEL_SYMSGNO.html" xlink:title="DTEL&#45;SYMSGNO">
<polygon fill="none" stroke="green" points="244.6,-108 119.88,-108 119.88,-72 244.6,-72 244.6,-108"/>
<text text-anchor="middle" x="182.24" y="-85.8" font-family="Times,serif" font-size="14.00">DTEL&#45;SYMSGNO</text>
</a>
</g>
</g>
<!-- INTF&#45;IF_XCO_MESSAGE&#45;&gt;DTEL&#45;SYMSGNO -->
<g id="edge32" class="edge">
<title>INTF&#45;IF_XCO_MESSAGE&#45;&gt;DTEL&#45;SYMSGNO</title>
<path fill="none" stroke="black" d="M630.67,-373.53C465.62,-365 115.19,-337.1 35.24,-252 1.81,-216.42 -13.59,-183.39 15.24,-144 36.9,-114.4 75.21,-100.92 109.68,-94.95"/>
<polygon fill="black" stroke="black" points="110.41,-98.38 119.76,-93.39 109.34,-91.46 110.41,-98.38"/>
</g>
<!-- DTEL&#45;SYMSGID -->
<g id="node21" class="node">
<title>DTEL&#45;SYMSGID</title>
<g id="a_node21"><a xlink:href="./DTEL_SYMSGID.html" xlink:title="DTEL&#45;SYMSGID">
<polygon fill="none" stroke="green" points="569.15,-108 449.32,-108 449.32,-72 569.15,-72 569.15,-108"/>
<text text-anchor="middle" x="509.24" y="-85.8" font-family="Times,serif" font-size="14.00">DTEL&#45;SYMSGID</text>
</a>
</g>
</g>
<!-- INTF&#45;IF_XCO_MESSAGE&#45;&gt;DTEL&#45;SYMSGID -->
<g id="edge31" class="edge">
<title>INTF&#45;IF_XCO_MESSAGE&#45;&gt;DTEL&#45;SYMSGID</title>
<path fill="none" stroke="black" d="M716.72,-359.94C714.91,-311.82 707.39,-176.41 679.24,-144 654.42,-115.43 614.47,-102.06 579.52,-95.89"/>
<polygon fill="black" stroke="black" points="579.77,-92.39 569.34,-94.27 578.67,-99.3 579.77,-92.39"/>
</g>
<!-- DTEL&#45;SYMSGTY -->
<g id="node23" class="node">
<title>DTEL&#45;SYMSGTY</title>
<g id="a_node23"><a xlink:href="./DTEL_SYMSGTY.html" xlink:title="DTEL&#45;SYMSGTY">
<polygon fill="none" stroke="green" points="850.04,-252 726.43,-252 726.43,-216 850.04,-216 850.04,-252"/>
<text text-anchor="middle" x="788.24" y="-229.8" font-family="Times,serif" font-size="14.00">DTEL&#45;SYMSGTY</text>
</a>
</g>
</g>
<!-- INTF&#45;IF_XCO_MESSAGE&#45;&gt;DTEL&#45;SYMSGTY -->
<g id="edge30" class="edge">
<title>INTF&#45;IF_XCO_MESSAGE&#45;&gt;DTEL&#45;SYMSGTY</title>
<path fill="none" stroke="black" d="M723.63,-359.91C730.64,-341.73 742.59,-312.29 755.24,-288 759.94,-278.96 765.64,-269.42 770.97,-260.95"/>
<polygon fill="black" stroke="black" points="774.09,-262.58 776.54,-252.27 768.2,-258.8 774.09,-262.58"/>
</g>
<!-- DTEL&#45;SYMSGV -->
<g id="node25" class="node">
<title>DTEL&#45;SYMSGV</title>
<g id="a_node25"><a xlink:href="./DTEL_SYMSGV.html" xlink:title="DTEL&#45;SYMSGV">
<polygon fill="none" stroke="green" points="158.49,-252 43.98,-252 43.98,-216 158.49,-216 158.49,-252"/>
<text text-anchor="middle" x="101.24" y="-229.8" font-family="Times,serif" font-size="14.00">DTEL&#45;SYMSGV</text>
</a>
</g>
</g>
<!-- INTF&#45;IF_XCO_MESSAGE&#45;&gt;DTEL&#45;SYMSGV -->
<g id="edge33" class="edge">
<title>INTF&#45;IF_XCO_MESSAGE&#45;&gt;DTEL&#45;SYMSGV</title>
<path fill="none" stroke="black" d="M630.68,-368.5C558.27,-360.33 452.61,-345.96 362.24,-324 288,-305.96 204.91,-275.83 152.84,-255.69"/>
<polygon fill="black" stroke="black" points="154.08,-252.42 143.49,-252.05 151.54,-258.94 154.08,-252.42"/>
</g>
<!-- INTF&#45;IF_XCO_MESSAGE_SHORT_TEXT -->
<g id="node27" class="node">
<title>INTF&#45;IF_XCO_MESSAGE_SHORT_TEXT</title>
<g id="a_node27"><a xlink:href="./INTF_IF_XCO_MESSAGE_SHORT_TEXT.html" xlink:title="INTF&#45;IF_XCO_MESSAGE_SHORT_TEXT">
<polygon fill="none" stroke="green" points="1032.47,-324 764,-324 764,-288 1032.47,-288 1032.47,-324"/>
<text text-anchor="middle" x="898.24" y="-301.8" font-family="Times,serif" font-size="14.00">INTF&#45;IF_XCO_MESSAGE_SHORT_TEXT</text>
</a>
</g>
</g>
<!-- INTF&#45;IF_XCO_MESSAGE&#45;&gt;INTF&#45;IF_XCO_MESSAGE_SHORT_TEXT -->
<g id="edge35" class="edge">
<title>INTF&#45;IF_XCO_MESSAGE&#45;&gt;INTF&#45;IF_XCO_MESSAGE_SHORT_TEXT</title>
<path fill="none" stroke="black" d="M755.62,-359.88C779.78,-350.14 811.39,-337.87 838.74,-327.61"/>
<polygon fill="black" stroke="black" points="840.07,-330.85 848.21,-324.07 837.62,-324.29 840.07,-330.85"/>
</g>
<!-- CLAS&#45;CL_XCO_MESSAGE_TYPE -->
<g id="node31" class="node">
<title>CLAS&#45;CL_XCO_MESSAGE_TYPE</title>
<g id="a_node31"><a xlink:href="./CLAS_CL_XCO_MESSAGE_TYPE.html" xlink:title="CLAS&#45;CL_XCO_MESSAGE_TYPE">
<polygon fill="none" stroke="green" points="1275.94,-324 1050.54,-324 1050.54,-288 1275.94,-288 1275.94,-324"/>
<text text-anchor="middle" x="1163.24" y="-301.8" font-family="Times,serif" font-size="14.00">CLAS&#45;CL_XCO_MESSAGE_TYPE</text>
</a>
</g>
</g>
<!-- INTF&#45;IF_XCO_MESSAGE&#45;&gt;CLAS&#45;CL_XCO_MESSAGE_TYPE -->
<g id="edge34" class="edge">
<title>INTF&#45;IF_XCO_MESSAGE&#45;&gt;CLAS&#45;CL_XCO_MESSAGE_TYPE</title>
<path fill="none" stroke="black" d="M804.02,-363.38C872.54,-352.63 968.85,-337.51 1044.51,-325.63"/>
<polygon fill="black" stroke="black" points="1045.23,-329.06 1054.57,-324.06 1044.15,-322.15 1045.23,-329.06"/>
</g>
<!-- TABL&#45;SYMSG -->
<g id="node32" class="node">
<title>TABL&#45;SYMSG</title>
<g id="a_node32"><a xlink:href="./TABL_SYMSG.html" xlink:title="TABL&#45;SYMSG">
<polygon fill="none" stroke="green" points="477.17,-324 371.3,-324 371.3,-288 477.17,-288 477.17,-324"/>
<text text-anchor="middle" x="424.24" y="-301.8" font-family="Times,serif" font-size="14.00">TABL&#45;SYMSG</text>
</a>
</g>
</g>
<!-- INTF&#45;IF_XCO_MESSAGE&#45;&gt;TABL&#45;SYMSG -->
<g id="edge29" class="edge">
<title>INTF&#45;IF_XCO_MESSAGE&#45;&gt;TABL&#45;SYMSG</title>
<path fill="none" stroke="black" d="M638.36,-359.95C595.92,-350.55 542.46,-338.34 487.09,-324.42"/>
<polygon fill="black" stroke="black" points="487.65,-320.95 477.1,-321.9 485.93,-327.74 487.65,-320.95"/>
</g>
<!-- INTF&#45;IF_T100_MESSAGE -->
<g id="node15" class="node">
<title>INTF&#45;IF_T100_MESSAGE</title>
<g id="a_node15"><a xlink:href="./INTF_IF_T100_MESSAGE.html" xlink:title="INTF&#45;IF_T100_MESSAGE">
<polygon fill="none" stroke="green" points="477.82,-252 304.65,-252 304.65,-216 477.82,-216 477.82,-252"/>
<text text-anchor="middle" x="391.24" y="-229.8" font-family="Times,serif" font-size="14.00">INTF&#45;IF_T100_MESSAGE</text>
</a>
</g>
</g>
<!-- INTF&#45;IF_T100_DYN_MSG&#45;&gt;INTF&#45;IF_T100_MESSAGE -->
<g id="edge41" class="edge">
<title>INTF&#45;IF_T100_DYN_MSG&#45;&gt;INTF&#45;IF_T100_MESSAGE</title>
<path fill="none" stroke="black" d="M535.51,-287.88C508.94,-278.14 475.47,-265.87 447.47,-255.61"/>
<polygon fill="black" stroke="black" points="448.4,-252.22 437.81,-252.07 445.99,-258.8 448.4,-252.22"/>
</g>
<!-- INTF&#45;IF_MESSAGE -->
<g id="node16" class="node">
<title>INTF&#45;IF_MESSAGE</title>
<g id="a_node16"><a xlink:href="./INTF_IF_MESSAGE.html" xlink:title="INTF&#45;IF_MESSAGE">
<polygon fill="none" stroke="green" points="670.27,-180 534.2,-180 534.2,-144 670.27,-144 670.27,-180"/>
<text text-anchor="middle" x="602.24" y="-157.8" font-family="Times,serif" font-size="14.00">INTF&#45;IF_MESSAGE</text>
</a>
</g>
</g>
<!-- INTF&#45;IF_T100_DYN_MSG&#45;&gt;INTF&#45;IF_MESSAGE -->
<g id="edge40" class="edge">
<title>INTF&#45;IF_T100_DYN_MSG&#45;&gt;INTF&#45;IF_MESSAGE</title>
<path fill="none" stroke="black" d="M584.65,-287.87C588.06,-263.67 594.32,-219.21 598.38,-190.39"/>
<polygon fill="black" stroke="black" points="601.89,-190.58 599.82,-180.19 594.96,-189.6 601.89,-190.58"/>
</g>
<!-- INTF&#45;IF_T100_DYN_MSG&#45;&gt;DTEL&#45;SYMSGTY -->
<g id="edge39" class="edge">
<title>INTF&#45;IF_T100_DYN_MSG&#45;&gt;DTEL&#45;SYMSGTY</title>
<path fill="none" stroke="black" d="M632.37,-287.97C661.27,-278.14 697.81,-265.73 728.23,-255.39"/>
<polygon fill="black" stroke="black" points="729.54,-258.64 737.88,-252.11 727.29,-252.01 729.54,-258.64"/>
</g>
<!-- INTF&#45;IF_T100_DYN_MSG&#45;&gt;DTEL&#45;SYMSGV -->
<g id="edge38" class="edge">
<title>INTF&#45;IF_T100_DYN_MSG&#45;&gt;DTEL&#45;SYMSGV</title>
<path fill="none" stroke="black" d="M494.37,-289.3C491.63,-288.86 488.91,-288.42 486.24,-288 375.25,-270.54 245.75,-253.37 168.78,-243.5"/>
<polygon fill="black" stroke="black" points="169.1,-240.01 158.74,-242.21 168.21,-246.95 169.1,-240.01"/>
</g>
<!-- INTF&#45;IF_T100_MESSAGE&#45;&gt;INTF&#45;IF_MESSAGE -->
<g id="edge46" class="edge">
<title>INTF&#45;IF_T100_MESSAGE&#45;&gt;INTF&#45;IF_MESSAGE</title>
<path fill="none" stroke="black" d="M442.58,-215.97C472.19,-206.14 509.61,-193.73 540.78,-183.39"/>
<polygon fill="black" stroke="black" points="542.27,-186.58 550.66,-180.11 540.07,-179.94 542.27,-186.58"/>
</g>
<!-- TABL&#45;SCX_T100KEY -->
<g id="node17" class="node">
<title>TABL&#45;SCX_T100KEY</title>
<g id="a_node17"><a xlink:href="./TABL_SCX_T100KEY.html" xlink:title="TABL&#45;SCX_T100KEY">
<polygon fill="none" stroke="yellow" points="401.99,-180 252.48,-180 252.48,-144 401.99,-144 401.99,-180"/>
<text text-anchor="middle" x="327.24" y="-157.8" font-family="Times,serif" font-size="14.00">TABL&#45;SCX_T100KEY</text>
</a>
</g>
</g>
<!-- INTF&#45;IF_T100_MESSAGE&#45;&gt;TABL&#45;SCX_T100KEY -->
<g id="edge45" class="edge">
<title>INTF&#45;IF_T100_MESSAGE&#45;&gt;TABL&#45;SCX_T100KEY</title>
<path fill="none" stroke="black" d="M375.42,-215.7C367.67,-207.22 358.2,-196.86 349.71,-187.58"/>
<polygon fill="black" stroke="black" points="352.21,-185.12 342.87,-180.1 347.04,-189.85 352.21,-185.12"/>
</g>
<!-- DTEL&#45;SCX_ATTRNAME -->
<g id="node18" class="node">
<title>DTEL&#45;SCX_ATTRNAME</title>
<g id="a_node18"><a xlink:href="./DTEL_SCX_ATTRNAME.html" xlink:title="DTEL&#45;SCX_ATTRNAME">
<polygon fill="none" stroke="green" points="431.65,-108 262.83,-108 262.83,-72 431.65,-72 431.65,-108"/>
<text text-anchor="middle" x="347.24" y="-85.8" font-family="Times,serif" font-size="14.00">DTEL&#45;SCX_ATTRNAME</text>
</a>
</g>
</g>
<!-- INTF&#45;IF_T100_MESSAGE&#45;&gt;DTEL&#45;SCX_ATTRNAME -->
<g id="edge44" class="edge">
<title>INTF&#45;IF_T100_MESSAGE&#45;&gt;DTEL&#45;SCX_ATTRNAME</title>
<path fill="none" stroke="black" d="M401.41,-215.88C410.97,-197.42 422.29,-167.5 411.24,-144 405.71,-132.26 396.17,-122.22 386.11,-114.15"/>
<polygon fill="black" stroke="black" points="388.11,-111.27 378.01,-108.09 383.93,-116.88 388.11,-111.27"/>
</g>
<!-- INTF&#45;IF_T100_MESSAGE&#45;&gt;DTEL&#45;SYMSGNO -->
<g id="edge43" class="edge">
<title>INTF&#45;IF_T100_MESSAGE&#45;&gt;DTEL&#45;SYMSGNO</title>
<path fill="none" stroke="black" d="M315.52,-215.9C290.8,-207.81 264.31,-196.25 243.24,-180 221.69,-163.39 204.96,-136.98 194.51,-117.24"/>
<polygon fill="black" stroke="black" points="197.55,-115.48 189.9,-108.15 191.31,-118.65 197.55,-115.48"/>
</g>
<!-- INTF&#45;IF_T100_MESSAGE&#45;&gt;DTEL&#45;SYMSGID -->
<g id="edge42" class="edge">
<title>INTF&#45;IF_T100_MESSAGE&#45;&gt;DTEL&#45;SYMSGID</title>
<path fill="none" stroke="black" d="M405.47,-215.87C426.11,-191.03 464.49,-144.85 488.34,-116.14"/>
<polygon fill="black" stroke="black" points="491.25,-118.12 494.95,-108.19 485.87,-113.64 491.25,-118.12"/>
</g>
<!-- TABL&#45;SCX_T100KEY&#45;&gt;DTEL&#45;SCX_ATTRNAME -->
<g id="edge49" class="edge">
<title>TABL&#45;SCX_T100KEY&#45;&gt;DTEL&#45;SCX_ATTRNAME</title>
<path fill="none" stroke="black" d="M332.18,-143.7C334.41,-135.9 337.09,-126.51 339.57,-117.83"/>
<polygon fill="black" stroke="black" points="342.97,-118.68 342.35,-108.1 336.24,-116.76 342.97,-118.68"/>
</g>
<!-- TABL&#45;SCX_T100KEY&#45;&gt;DTEL&#45;SYMSGNO -->
<g id="edge48" class="edge">
<title>TABL&#45;SCX_T100KEY&#45;&gt;DTEL&#45;SYMSGNO</title>
<path fill="none" stroke="black" d="M291.77,-143.88C272.12,-134.39 247.51,-122.51 226.6,-112.42"/>
<polygon fill="black" stroke="black" points="228.12,-109.26 217.59,-108.07 225.08,-115.57 228.12,-109.26"/>
</g>
<!-- TABL&#45;SCX_T100KEY&#45;&gt;DTEL&#45;SYMSGID -->
<g id="edge47" class="edge">
<title>TABL&#45;SCX_T100KEY&#45;&gt;DTEL&#45;SYMSGID</title>
<path fill="none" stroke="black" d="M371.76,-143.88C396.97,-134.18 428.69,-121.98 455.31,-111.74"/>
<polygon fill="black" stroke="black" points="456.78,-114.92 464.86,-108.07 454.27,-108.39 456.78,-114.92"/>
</g>
<!-- DOMA&#45;SYMSGNO -->
<g id="node20" class="node">
<title>DOMA&#45;SYMSGNO</title>
<g id="a_node20"><a xlink:href="./DOMA_SYMSGNO.html" xlink:title="DOMA&#45;SYMSGNO">
<polygon fill="none" stroke="yellow" points="248.1,-36 116.38,-36 116.38,0 248.1,0 248.1,-36"/>
<text text-anchor="middle" x="182.24" y="-13.8" font-family="Times,serif" font-size="14.00">DOMA&#45;SYMSGNO</text>
</a>
</g>
</g>
<!-- DTEL&#45;SYMSGNO&#45;&gt;DOMA&#45;SYMSGNO -->
<g id="edge50" class="edge">
<title>DTEL&#45;SYMSGNO&#45;&gt;DOMA&#45;SYMSGNO</title>
<path fill="none" stroke="black" d="M182.24,-71.7C182.24,-63.98 182.24,-54.71 182.24,-46.11"/>
<polygon fill="black" stroke="black" points="185.74,-46.1 182.24,-36.1 178.74,-46.1 185.74,-46.1"/>
</g>
<!-- DOMA&#45;ARBGB -->
<g id="node22" class="node">
<title>DOMA&#45;ARBGB</title>
<g id="a_node22"><a xlink:href="./DOMA_ARBGB.html" xlink:title="DOMA&#45;ARBGB">
<polygon fill="none" stroke="yellow" points="564.89,-36 453.59,-36 453.59,0 564.89,0 564.89,-36"/>
<text text-anchor="middle" x="509.24" y="-13.8" font-family="Times,serif" font-size="14.00">DOMA&#45;ARBGB</text>
</a>
</g>
</g>
<!-- DTEL&#45;SYMSGID&#45;&gt;DOMA&#45;ARBGB -->
<g id="edge51" class="edge">
<title>DTEL&#45;SYMSGID&#45;&gt;DOMA&#45;ARBGB</title>
<path fill="none" stroke="black" d="M509.24,-71.7C509.24,-63.98 509.24,-54.71 509.24,-46.11"/>
<polygon fill="black" stroke="black" points="512.74,-46.1 509.24,-36.1 505.74,-46.1 512.74,-46.1"/>
</g>
<!-- DOMA&#45;SYCHAR01 -->
<g id="node24" class="node">
<title>DOMA&#45;SYCHAR01</title>
<g id="a_node24"><a xlink:href="./DOMA_SYCHAR01.html" xlink:title="DOMA&#45;SYCHAR01">
<polygon fill="none" stroke="yellow" points="860.44,-180 726.04,-180 726.04,-144 860.44,-144 860.44,-180"/>
<text text-anchor="middle" x="793.24" y="-157.8" font-family="Times,serif" font-size="14.00">DOMA&#45;SYCHAR01</text>
</a>
</g>
</g>
<!-- DTEL&#45;SYMSGTY&#45;&gt;DOMA&#45;SYCHAR01 -->
<g id="edge52" class="edge">
<title>DTEL&#45;SYMSGTY&#45;&gt;DOMA&#45;SYCHAR01</title>
<path fill="none" stroke="black" d="M789.47,-215.7C790.02,-207.98 790.69,-198.71 791.3,-190.11"/>
<polygon fill="black" stroke="black" points="794.79,-190.33 792.01,-180.1 787.81,-189.83 794.79,-190.33"/>
</g>
<!-- DOMA&#45;SYCHAR50 -->
<g id="node26" class="node">
<title>DOMA&#45;SYCHAR50</title>
<g id="a_node26"><a xlink:href="./DOMA_SYCHAR50.html" xlink:title="DOMA&#45;SYCHAR50">
<polygon fill="none" stroke="yellow" points="158.44,-180 24.04,-180 24.04,-144 158.44,-144 158.44,-180"/>
<text text-anchor="middle" x="91.24" y="-157.8" font-family="Times,serif" font-size="14.00">DOMA&#45;SYCHAR50</text>
</a>
</g>
</g>
<!-- DTEL&#45;SYMSGV&#45;&gt;DOMA&#45;SYCHAR50 -->
<g id="edge53" class="edge">
<title>DTEL&#45;SYMSGV&#45;&gt;DOMA&#45;SYCHAR50</title>
<path fill="none" stroke="black" d="M98.76,-215.7C97.66,-207.98 96.34,-198.71 95.11,-190.11"/>
<polygon fill="black" stroke="black" points="98.56,-189.51 93.68,-180.1 91.63,-190.5 98.56,-189.51"/>
</g>
<!-- INTF&#45;IF_XCO_MESSAGE_SHORT_TEXT&#45;&gt;INTF&#45;IF_XCO_TEXT -->
<g id="edge55" class="edge">
<title>INTF&#45;IF_XCO_MESSAGE_SHORT_TEXT&#45;&gt;INTF&#45;IF_XCO_TEXT</title>
<path fill="none" stroke="black" d="M962.78,-324.09C1047.13,-350.78 1184.24,-411.08 1184.24,-521 1184.24,-739 1184.24,-739 1184.24,-739 1184.24,-780.37 1169,-826.28 1157.82,-854.39"/>
<polygon fill="black" stroke="black" points="1154.48,-853.33 1153.93,-863.91 1160.96,-855.98 1154.48,-853.33"/>
</g>
<!-- INTF&#45;IF_XCO_MESSAGE_SHORT_TEXT&#45;&gt;INTF&#45;IF_XCO_MESSAGE -->
<g id="edge54" class="edge">
<title>INTF&#45;IF_XCO_MESSAGE_SHORT_TEXT&#45;&gt;INTF&#45;IF_XCO_MESSAGE</title>
<path fill="none" stroke="black" d="M859.99,-324.07C835.86,-333.8 804.26,-346.06 776.89,-356.33"/>
<polygon fill="black" stroke="black" points="775.55,-353.1 767.41,-359.88 778,-359.65 775.55,-353.1"/>
</g>
<!-- INTF&#45;IF_XCO_L10N_TEXT -->
<g id="node28" class="node">
<title>INTF&#45;IF_XCO_L10N_TEXT</title>
<g id="a_node28"><a xlink:href="./INTF_IF_XCO_L10N_TEXT.html" xlink:title="INTF&#45;IF_XCO_L10N_TEXT">
<polygon fill="none" stroke="yellow" points="1222.92,-252 1039.56,-252 1039.56,-216 1222.92,-216 1222.92,-252"/>
<text text-anchor="middle" x="1131.24" y="-229.8" font-family="Times,serif" font-size="14.00">INTF&#45;IF_XCO_L10N_TEXT</text>
</a>
</g>
</g>
<!-- INTF&#45;IF_XCO_MESSAGE_SHORT_TEXT&#45;&gt;INTF&#45;IF_XCO_L10N_TEXT -->
<g id="edge56" class="edge">
<title>INTF&#45;IF_XCO_MESSAGE_SHORT_TEXT&#45;&gt;INTF&#45;IF_XCO_L10N_TEXT</title>
<path fill="none" stroke="black" d="M954.94,-287.97C987.92,-278.06 1029.67,-265.51 1064.26,-255.12"/>
<polygon fill="black" stroke="black" points="1065.71,-258.34 1074.28,-252.11 1063.7,-251.64 1065.71,-258.34"/>
</g>
<!-- INTF&#45;IF_XCO_L10N_TEXT&#45;&gt;INTF&#45;IF_XCO_TEXT -->
<g id="edge58" class="edge">
<title>INTF&#45;IF_XCO_L10N_TEXT&#45;&gt;INTF&#45;IF_XCO_TEXT</title>
<path fill="none" stroke="black" d="M1222.88,-246.82C1247.04,-254.58 1270.46,-267.28 1285.24,-288 1347.15,-374.79 1228.24,-414.39 1228.24,-521 1228.24,-739 1228.24,-739 1228.24,-739 1228.24,-785.12 1195.4,-829.74 1171.28,-856.28"/>
<polygon fill="black" stroke="black" points="1168.71,-853.9 1164.44,-863.6 1173.82,-858.69 1168.71,-853.9"/>
</g>
<!-- DTEL&#45;SPRAS -->
<g id="node29" class="node">
<title>DTEL&#45;SPRAS</title>
<g id="a_node29"><a xlink:href="./DTEL_SPRAS.html" xlink:title="DTEL&#45;SPRAS">
<polygon fill="none" stroke="green" points="1180.95,-180 1081.52,-180 1081.52,-144 1180.95,-144 1180.95,-180"/>
<text text-anchor="middle" x="1131.24" y="-157.8" font-family="Times,serif" font-size="14.00">DTEL&#45;SPRAS</text>
</a>
</g>
</g>
<!-- INTF&#45;IF_XCO_L10N_TEXT&#45;&gt;DTEL&#45;SPRAS -->
<g id="edge57" class="edge">
<title>INTF&#45;IF_XCO_L10N_TEXT&#45;&gt;DTEL&#45;SPRAS</title>
<path fill="none" stroke="black" d="M1131.24,-215.7C1131.24,-207.98 1131.24,-198.71 1131.24,-190.11"/>
<polygon fill="black" stroke="black" points="1134.74,-190.1 1131.24,-180.1 1127.74,-190.1 1134.74,-190.1"/>
</g>
<!-- DOMA&#45;SPRAS -->
<g id="node30" class="node">
<title>DOMA&#45;SPRAS</title>
<g id="a_node30"><a xlink:href="./DOMA_SPRAS.html" xlink:title="DOMA&#45;SPRAS">
<polygon fill="none" stroke="green" points="1184.45,-108 1078.02,-108 1078.02,-72 1184.45,-72 1184.45,-108"/>
<text text-anchor="middle" x="1131.24" y="-85.8" font-family="Times,serif" font-size="14.00">DOMA&#45;SPRAS</text>
</a>
</g>
</g>
<!-- DTEL&#45;SPRAS&#45;&gt;DOMA&#45;SPRAS -->
<g id="edge59" class="edge">
<title>DTEL&#45;SPRAS&#45;&gt;DOMA&#45;SPRAS</title>
<path fill="none" stroke="black" d="M1131.24,-143.7C1131.24,-135.98 1131.24,-126.71 1131.24,-118.11"/>
<polygon fill="black" stroke="black" points="1134.74,-118.1 1131.24,-108.1 1127.74,-118.1 1134.74,-118.1"/>
</g>
<!-- CLAS&#45;CL_XCO_MESSAGE_TYPE&#45;&gt;CLAS&#45;CL_XCO_ENUM_CONSTANT -->
<g id="edge61" class="edge">
<title>CLAS&#45;CL_XCO_MESSAGE_TYPE&#45;&gt;CLAS&#45;CL_XCO_ENUM_CONSTANT</title>
<path fill="none" stroke="black" d="M1186.87,-324.03C1217.28,-348.11 1266.24,-395.25 1266.24,-449 1266.24,-883 1266.24,-883 1266.24,-883 1266.24,-923.45 1262.87,-934.7 1247.24,-972 1243.25,-981.51 1237.51,-991.14 1231.82,-999.54"/>
<polygon fill="black" stroke="black" points="1228.9,-997.6 1225.99,-1007.79 1234.62,-1001.64 1228.9,-997.6"/>
</g>
<!-- CLAS&#45;CL_XCO_MESSAGE_TYPE&#45;&gt;INTF&#45;IF_XCO_NEWS -->
<g id="edge62" class="edge">
<title>CLAS&#45;CL_XCO_MESSAGE_TYPE&#45;&gt;INTF&#45;IF_XCO_NEWS</title>
<path fill="none" stroke="black" d="M1163.29,-324.04C1162.61,-355.21 1157.43,-422.38 1127.24,-468 1119.31,-479.98 1107.67,-490.14 1095.97,-498.26"/>
<polygon fill="black" stroke="black" points="1093.94,-495.4 1087.49,-503.8 1097.77,-501.26 1093.94,-495.4"/>
</g>
<!-- CLAS&#45;CL_XCO_MESSAGE_TYPE&#45;&gt;DTEL&#45;SYMSGTY -->
<g id="edge60" class="edge">
<title>CLAS&#45;CL_XCO_MESSAGE_TYPE&#45;&gt;DTEL&#45;SYMSGTY</title>
<path fill="none" stroke="black" d="M1071.98,-287.97C1006.91,-275.82 920.63,-259.71 860.36,-248.46"/>
<polygon fill="black" stroke="black" points="860.64,-244.96 850.17,-246.56 859.36,-251.84 860.64,-244.96"/>
</g>
<!-- TABL&#45;SYMSG&#45;&gt;DTEL&#45;SYMSGNO -->
<g id="edge65" class="edge">
<title>TABL&#45;SYMSG&#45;&gt;DTEL&#45;SYMSGNO</title>
<path fill="none" stroke="black" d="M371.49,-289.72C320.72,-272.05 246.21,-237.73 208.24,-180 195.98,-161.36 189.37,-136.83 185.89,-118.24"/>
<polygon fill="black" stroke="black" points="189.34,-117.61 184.22,-108.33 182.43,-118.77 189.34,-117.61"/>
</g>
<!-- TABL&#45;SYMSG&#45;&gt;DTEL&#45;SYMSGID -->
<g id="edge64" class="edge">
<title>TABL&#45;SYMSG&#45;&gt;DTEL&#45;SYMSGID</title>
<path fill="none" stroke="black" d="M452.97,-287.81C465.55,-278.77 479.24,-266.52 487.24,-252 510.58,-209.64 512.52,-151.81 511.26,-118.23"/>
<polygon fill="black" stroke="black" points="514.76,-118.04 510.76,-108.22 507.76,-118.39 514.76,-118.04"/>
</g>
<!-- TABL&#45;SYMSG&#45;&gt;DTEL&#45;SYMSGTY -->
<g id="edge63" class="edge">
<title>TABL&#45;SYMSG&#45;&gt;DTEL&#45;SYMSGTY</title>
<path fill="none" stroke="black" d="M477.06,-289.94C479.82,-289.26 482.56,-288.61 485.24,-288 563.69,-270.25 654.71,-255.04 716.35,-245.53"/>
<polygon fill="black" stroke="black" points="717.01,-248.97 726.37,-243.99 715.95,-242.05 717.01,-248.97"/>
</g>
<!-- TABL&#45;SYMSG&#45;&gt;DTEL&#45;SYMSGV -->
<g id="edge66" class="edge">
<title>TABL&#45;SYMSG&#45;&gt;DTEL&#45;SYMSGV</title>
<path fill="none" stroke="black" d="M371.05,-294.26C319.98,-283.84 240.72,-267.4 172.24,-252 170.98,-251.72 169.72,-251.43 168.45,-251.14"/>
<polygon fill="black" stroke="black" points="169.09,-247.7 158.56,-248.87 167.52,-254.52 169.09,-247.7"/>
</g>
<!-- INTF&#45;IF_XCO_XSTRING&#45;&gt;INTF&#45;IF_XCO_STRING -->
<g id="edge68" class="edge">
<title>INTF&#45;IF_XCO_XSTRING&#45;&gt;INTF&#45;IF_XCO_STRING</title>
<path fill="none" stroke="black" d="M839.73,-540.07C816.11,-549.76 785.2,-561.95 758.36,-572.2"/>
<polygon fill="black" stroke="black" points="756.78,-569.05 748.68,-575.88 759.27,-575.6 756.78,-569.05"/>
</g>
<!-- INTF&#45;IF_XCO_XSTRING_STRING_CNVRSN -->
<g id="node34" class="node">
<title>INTF&#45;IF_XCO_XSTRING_STRING_CNVRSN</title>
<g id="a_node34"><a xlink:href="./INTF_IF_XCO_XSTRING_STRING_CNVRSN.html" xlink:title="INTF&#45;IF_XCO_XSTRING_STRING_CNVRSN">
<polygon fill="none" stroke="green" points="873.97,-468 584.51,-468 584.51,-432 873.97,-432 873.97,-468"/>
<text text-anchor="middle" x="729.24" y="-445.8" font-family="Times,serif" font-size="14.00">INTF&#45;IF_XCO_XSTRING_STRING_CNVRSN</text>
</a>
</g>
</g>
<!-- INTF&#45;IF_XCO_XSTRING&#45;&gt;INTF&#45;IF_XCO_XSTRING_STRING_CNVRSN -->
<g id="edge67" class="edge">
<title>INTF&#45;IF_XCO_XSTRING&#45;&gt;INTF&#45;IF_XCO_XSTRING_STRING_CNVRSN</title>
<path fill="none" stroke="black" d="M841.03,-503.88C820.98,-494.39 795.86,-482.51 774.52,-472.42"/>
<polygon fill="black" stroke="black" points="775.86,-469.18 765.32,-468.07 772.87,-475.51 775.86,-469.18"/>
</g>
<!-- INTF&#45;IF_XCO_STRING_DECOMPOSITION&#45;&gt;INTF&#45;IF_XCO_STRINGS -->
<g id="edge70" class="edge">
<title>INTF&#45;IF_XCO_STRING_DECOMPOSITION&#45;&gt;INTF&#45;IF_XCO_STRINGS</title>
<path fill="none" stroke="black" d="M275.09,-540.02C241.91,-582.08 166.04,-692.09 223.24,-756 248.26,-783.97 474.75,-798.85 606.08,-805.19"/>
<polygon fill="black" stroke="black" points="605.99,-808.69 616.15,-805.67 606.32,-801.7 605.99,-808.69"/>
</g>
<!-- INTF&#45;IF_XCO_STRING_DECOMPOSITION&#45;&gt;INTF&#45;IF_XCO_STRING -->
<g id="edge69" class="edge">
<title>INTF&#45;IF_XCO_STRING_DECOMPOSITION&#45;&gt;INTF&#45;IF_XCO_STRING</title>
<path fill="none" stroke="black" d="M394.77,-540.01C461.44,-551.19 546.59,-565.74 609.91,-576.76"/>
<polygon fill="black" stroke="black" points="609.42,-580.23 619.88,-578.5 610.63,-573.33 609.42,-580.23"/>
</g>
<!-- INTF&#45;IF_XCO_STRING_COMPOSITION&#45;&gt;INTF&#45;IF_XCO_STRINGS -->
<g id="edge71" class="edge">
<title>INTF&#45;IF_XCO_STRING_COMPOSITION&#45;&gt;INTF&#45;IF_XCO_STRINGS</title>
<path fill="none" stroke="black" d="M705.13,-756.1C705.94,-763.79 706.17,-773.05 705.84,-781.67"/>
<polygon fill="black" stroke="black" points="702.35,-781.48 705.15,-791.7 709.33,-781.96 702.35,-781.48"/>
</g>
<!-- INTF&#45;IF_XCO_STRING_COMPOSITION&#45;&gt;INTF&#45;IF_XCO_STRING -->
<g id="edge72" class="edge">
<title>INTF&#45;IF_XCO_STRING_COMPOSITION&#45;&gt;INTF&#45;IF_XCO_STRING</title>
<path fill="none" stroke="black" d="M699.24,-719.87C699.24,-695.67 699.24,-651.21 699.24,-622.39"/>
<polygon fill="black" stroke="black" points="702.74,-622.19 699.24,-612.19 695.74,-622.19 702.74,-622.19"/>
</g>
<!-- DOMA&#45;INT4 -->
<g id="node40" class="node">
<title>DOMA&#45;INT4</title>
<g id="a_node40"><a xlink:href="./DOMA_INT4.html" xlink:title="DOMA&#45;INT4">
<polygon fill="none" stroke="yellow" points="494.98,-684 401.49,-684 401.49,-648 494.98,-648 494.98,-684"/>
<text text-anchor="middle" x="448.24" y="-661.8" font-family="Times,serif" font-size="14.00">DOMA&#45;INT4</text>
</a>
</g>
</g>
<!-- DTEL&#45;INT4&#45;&gt;DOMA&#45;INT4 -->
<g id="edge73" class="edge">
<title>DTEL&#45;INT4&#45;&gt;DOMA&#45;INT4</title>
<path fill="none" stroke="black" d="M451.25,-719.7C450.81,-711.98 450.28,-702.71 449.79,-694.11"/>
<polygon fill="black" stroke="black" points="453.28,-693.89 449.21,-684.1 446.29,-694.29 453.28,-693.89"/>
</g>
<!-- DOMA&#45;MAINTFLAG -->
<g id="node42" class="node">
<title>DOMA&#45;MAINTFLAG</title>
<g id="a_node42"><a xlink:href="./DOMA_MAINTFLAG.html" xlink:title="DOMA&#45;MAINTFLAG">
<polygon fill="none" stroke="yellow" points="1493.08,-972 1347.39,-972 1347.39,-936 1493.08,-936 1493.08,-972"/>
<text text-anchor="middle" x="1420.24" y="-949.8" font-family="Times,serif" font-size="14.00">DOMA&#45;MAINTFLAG</text>
</a>
</g>
</g>
<!-- DTEL&#45;MAINTFLAG&#45;&gt;DOMA&#45;MAINTFLAG -->
<g id="edge74" class="edge">
<title>DTEL&#45;MAINTFLAG&#45;&gt;DOMA&#45;MAINTFLAG</title>
<path fill="none" stroke="black" d="M1420.24,-1007.7C1420.24,-999.98 1420.24,-990.71 1420.24,-982.11"/>
<polygon fill="black" stroke="black" points="1423.74,-982.1 1420.24,-972.1 1416.74,-982.1 1423.74,-982.1"/>
</g>
</g>
</svg>
