<?xml version="1.0" encoding="UTF-8" standalone="no"?>
<!DOCTYPE svg PUBLIC "-//W3C//DTD SVG 1.1//EN"
 "http://www.w3.org/Graphics/SVG/1.1/DTD/svg11.dtd">
<!-- Generated by graphviz version 2.47.3 (20210619.1520)
 -->
<!-- Title: G Pages: 1 -->
<svg width="971pt" height="548pt"
 viewBox="0.00 0.00 971.00 548.00" xmlns="http://www.w3.org/2000/svg" xmlns:xlink="http://www.w3.org/1999/xlink">
<g id="graph0" class="graph" transform="scale(1 1) rotate(0) translate(4 544)">
<title>G</title>
<polygon fill="white" stroke="transparent" points="-4,4 -4,-544 967,-544 967,4 -4,4"/>
<!-- CLAS&#45;CL_ABAP_DB_X_WRITER -->
<g id="node1" class="node">
<title>CLAS&#45;CL_ABAP_DB_X_WRITER</title>
<g id="a_node1"><a xlink:href="./CLAS_CL_ABAP_DB_X_WRITER.html" xlink:title="CLAS&#45;CL_ABAP_DB_X_WRITER">
<polygon fill="none" stroke="green" points="417.05,-540 194.32,-540 194.32,-504 417.05,-504 417.05,-540"/>
<text text-anchor="middle" x="305.69" y="-517.8" font-family="Times,serif" font-size="14.00">CLAS&#45;CL_ABAP_DB_X_WRITER</text>
</a>
</g>
</g>
<!-- INTF&#45;IF_ABAP_DB_WRITER -->
<g id="node2" class="node">
<title>INTF&#45;IF_ABAP_DB_WRITER</title>
<g id="a_node2"><a xlink:href="./INTF_IF_ABAP_DB_WRITER.html" xlink:title="INTF&#45;IF_ABAP_DB_WRITER">
<polygon fill="none" stroke="green" points="403.32,-468 208.05,-468 208.05,-432 403.32,-432 403.32,-468"/>
<text text-anchor="middle" x="305.69" y="-445.8" font-family="Times,serif" font-size="14.00">INTF&#45;IF_ABAP_DB_WRITER</text>
</a>
</g>
</g>
<!-- CLAS&#45;CL_ABAP_DB_X_WRITER&#45;&gt;INTF&#45;IF_ABAP_DB_WRITER -->
<g id="edge2" class="edge">
<title>CLAS&#45;CL_ABAP_DB_X_WRITER&#45;&gt;INTF&#45;IF_ABAP_DB_WRITER</title>
<path fill="none" stroke="black" d="M299.77,-503.7C298.97,-495.98 298.75,-486.71 299.09,-478.11"/>
<polygon fill="black" stroke="black" points="302.58,-478.32 299.79,-468.1 295.6,-477.84 302.58,-478.32"/>
</g>
<!-- CLAS&#45;CL_ABAP_DB_X_WRITER&#45;&gt;INTF&#45;IF_ABAP_DB_WRITER -->
<g id="edge10" class="edge">
<title>CLAS&#45;CL_ABAP_DB_X_WRITER&#45;&gt;INTF&#45;IF_ABAP_DB_WRITER</title>
<path fill="none" stroke="black" d="M311.6,-503.7C312.4,-495.98 312.62,-486.71 312.28,-478.11"/>
<polygon fill="black" stroke="black" points="315.77,-477.84 311.58,-468.1 308.79,-478.32 315.77,-477.84"/>
</g>
<!-- CLAS&#45;CL_ABAP_X_WRITER -->
<g id="node4" class="node">
<title>CLAS&#45;CL_ABAP_X_WRITER</title>
<g id="a_node4"><a xlink:href="./CLAS_CL_ABAP_X_WRITER.html" xlink:title="CLAS&#45;CL_ABAP_X_WRITER">
<polygon fill="none" stroke="green" points="240.11,-252 43.26,-252 43.26,-216 240.11,-216 240.11,-252"/>
<text text-anchor="middle" x="141.69" y="-229.8" font-family="Times,serif" font-size="14.00">CLAS&#45;CL_ABAP_X_WRITER</text>
</a>
</g>
</g>
<!-- CLAS&#45;CL_ABAP_DB_X_WRITER&#45;&gt;CLAS&#45;CL_ABAP_X_WRITER -->
<g id="edge1" class="edge">
<title>CLAS&#45;CL_ABAP_DB_X_WRITER&#45;&gt;CLAS&#45;CL_ABAP_X_WRITER</title>
<path fill="none" stroke="black" d="M240.89,-503.97C221.81,-495.81 202.65,-484.18 189.69,-468 140.53,-406.64 132.88,-309.06 135.85,-262.06"/>
<polygon fill="black" stroke="black" points="139.35,-262.3 136.73,-252.03 132.37,-261.69 139.35,-262.3"/>
</g>
<!-- CLAS&#45;CL_ABAP_DB_X_WRITER&#45;&gt;CLAS&#45;CL_ABAP_X_WRITER -->
<g id="edge9" class="edge">
<title>CLAS&#45;CL_ABAP_DB_X_WRITER&#45;&gt;CLAS&#45;CL_ABAP_X_WRITER</title>
<path fill="none" stroke="black" d="M257.81,-503.97C239.81,-495.81 220.65,-484.18 207.69,-468 158.53,-406.64 150.88,-309.06 146.64,-262.06"/>
<polygon fill="black" stroke="black" points="150.11,-261.66 145.69,-252.03 143.14,-262.32 150.11,-261.66"/>
</g>
<!-- CLAS&#45;CL_ABAP_SQL_CHANGING_STMNT -->
<g id="node3" class="node">
<title>CLAS&#45;CL_ABAP_SQL_CHANGING_STMNT</title>
<g id="a_node3"><a xlink:href="./CLAS_CL_ABAP_SQL_CHANGING_STMNT.html" xlink:title="CLAS&#45;CL_ABAP_SQL_CHANGING_STMNT">
<polygon fill="none" stroke="green" points="659.86,-396 371.51,-396 371.51,-360 659.86,-360 659.86,-396"/>
<text text-anchor="middle" x="515.69" y="-373.8" font-family="Times,serif" font-size="14.00">CLAS&#45;CL_ABAP_SQL_CHANGING_STMNT</text>
</a>
</g>
</g>
<!-- INTF&#45;IF_ABAP_DB_WRITER&#45;&gt;CLAS&#45;CL_ABAP_SQL_CHANGING_STMNT -->
<g id="edge5" class="edge">
<title>INTF&#45;IF_ABAP_DB_WRITER&#45;&gt;CLAS&#45;CL_ABAP_SQL_CHANGING_STMNT</title>
<path fill="none" stroke="black" d="M356.79,-431.97C386.26,-422.14 423.5,-409.73 454.52,-399.39"/>
<polygon fill="black" stroke="black" points="455.97,-402.59 464.35,-396.11 453.76,-395.95 455.97,-402.59"/>
</g>
<!-- INTF&#45;IF_ABAP_WRITER -->
<g id="node6" class="node">
<title>INTF&#45;IF_ABAP_WRITER</title>
<g id="a_node6"><a xlink:href="./INTF_IF_ABAP_WRITER.html" xlink:title="INTF&#45;IF_ABAP_WRITER">
<polygon fill="none" stroke="green" points="436.38,-108 266.99,-108 266.99,-72 436.38,-72 436.38,-108"/>
<text text-anchor="middle" x="351.69" y="-85.8" font-family="Times,serif" font-size="14.00">INTF&#45;IF_ABAP_WRITER</text>
</a>
</g>
</g>
<!-- INTF&#45;IF_ABAP_DB_WRITER&#45;&gt;INTF&#45;IF_ABAP_WRITER -->
<g id="edge4" class="edge">
<title>INTF&#45;IF_ABAP_DB_WRITER&#45;&gt;INTF&#45;IF_ABAP_WRITER</title>
<path fill="none" stroke="black" d="M305.69,-431.95C305.69,-405.29 305.69,-352.11 305.69,-307 305.69,-307 305.69,-307 305.69,-233 305.69,-191.04 324.09,-145.36 337.61,-117.44"/>
<polygon fill="black" stroke="black" points="340.82,-118.86 342.15,-108.34 334.56,-115.73 340.82,-118.86"/>
</g>
<!-- INTF&#45;IF_ABAP_CLOSE_RESOURCE -->
<g id="node7" class="node">
<title>INTF&#45;IF_ABAP_CLOSE_RESOURCE</title>
<g id="a_node7"><a xlink:href="./INTF_IF_ABAP_CLOSE_RESOURCE.html" xlink:title="INTF&#45;IF_ABAP_CLOSE_RESOURCE">
<polygon fill="none" stroke="green" points="414.67,-36 174.71,-36 174.71,0 414.67,0 414.67,-36"/>
<text text-anchor="middle" x="294.69" y="-13.8" font-family="Times,serif" font-size="14.00">INTF&#45;IF_ABAP_CLOSE_RESOURCE</text>
</a>
</g>
</g>
<!-- INTF&#45;IF_ABAP_DB_WRITER&#45;&gt;INTF&#45;IF_ABAP_CLOSE_RESOURCE -->
<g id="edge3" class="edge">
<title>INTF&#45;IF_ABAP_DB_WRITER&#45;&gt;INTF&#45;IF_ABAP_CLOSE_RESOURCE</title>
<path fill="none" stroke="black" d="M298,-431.91C286.89,-405.62 267.69,-353.45 267.69,-307 267.69,-307 267.69,-307 267.69,-233 267.69,-161.31 236.18,-140.39 257.69,-72 260.78,-62.15 266.44,-52.53 272.41,-44.25"/>
<polygon fill="black" stroke="black" points="275.32,-46.21 278.65,-36.15 269.77,-41.94 275.32,-46.21"/>
</g>
<!-- CLAS&#45;CL_ABAP_SQL_CHANGING_STMNT&#45;&gt;CLAS&#45;CL_ABAP_DB_X_WRITER -->
<g id="edge8" class="edge">
<title>CLAS&#45;CL_ABAP_SQL_CHANGING_STMNT&#45;&gt;CLAS&#45;CL_ABAP_DB_X_WRITER</title>
<path fill="none" stroke="black" d="M498.56,-396.22C478.97,-415.32 445.37,-446.3 412.69,-468 394.81,-479.87 373.9,-490.81 355.32,-499.62"/>
<polygon fill="black" stroke="black" points="353.72,-496.51 346.14,-503.91 356.68,-502.85 353.72,-496.51"/>
</g>
<!-- CLAS&#45;CL_ABAP_DB_C_WRITER -->
<g id="node8" class="node">
<title>CLAS&#45;CL_ABAP_DB_C_WRITER</title>
<g id="a_node8"><a xlink:href="./CLAS_CL_ABAP_DB_C_WRITER.html" xlink:title="CLAS&#45;CL_ABAP_DB_C_WRITER">
<polygon fill="none" stroke="green" points="560.78,-324 338.59,-324 338.59,-288 560.78,-288 560.78,-324"/>
<text text-anchor="middle" x="449.69" y="-301.8" font-family="Times,serif" font-size="14.00">CLAS&#45;CL_ABAP_DB_C_WRITER</text>
</a>
</g>
</g>
<!-- CLAS&#45;CL_ABAP_SQL_CHANGING_STMNT&#45;&gt;CLAS&#45;CL_ABAP_DB_C_WRITER -->
<g id="edge7" class="edge">
<title>CLAS&#45;CL_ABAP_SQL_CHANGING_STMNT&#45;&gt;CLAS&#45;CL_ABAP_DB_C_WRITER</title>
<path fill="none" stroke="black" d="M499.37,-359.7C491.38,-351.22 481.61,-340.86 472.86,-331.58"/>
<polygon fill="black" stroke="black" points="475.22,-328.98 465.81,-324.1 470.13,-333.78 475.22,-328.98"/>
</g>
<!-- CLAS&#45;CL_ABAP_SQL_STATEMENT_HANDLE -->
<g id="node11" class="node">
<title>CLAS&#45;CL_ABAP_SQL_STATEMENT_HANDLE</title>
<g id="a_node11"><a xlink:href="./CLAS_CL_ABAP_SQL_STATEMENT_HANDLE.html" xlink:title="CLAS&#45;CL_ABAP_SQL_STATEMENT_HANDLE">
<polygon fill="none" stroke="green" points="885.02,-324 578.35,-324 578.35,-288 885.02,-288 885.02,-324"/>
<text text-anchor="middle" x="731.69" y="-301.8" font-family="Times,serif" font-size="14.00">CLAS&#45;CL_ABAP_SQL_STATEMENT_HANDLE</text>
</a>
</g>
</g>
<!-- CLAS&#45;CL_ABAP_SQL_CHANGING_STMNT&#45;&gt;CLAS&#45;CL_ABAP_SQL_STATEMENT_HANDLE -->
<g id="edge6" class="edge">
<title>CLAS&#45;CL_ABAP_SQL_CHANGING_STMNT&#45;&gt;CLAS&#45;CL_ABAP_SQL_STATEMENT_HANDLE</title>
<path fill="none" stroke="black" d="M568.25,-359.97C598.69,-350.1 637.2,-337.62 669.18,-327.25"/>
<polygon fill="black" stroke="black" points="670.45,-330.52 678.89,-324.11 668.29,-323.86 670.45,-330.52"/>
</g>
<!-- INTF&#45;IF_ABAP_X_WRITER -->
<g id="node5" class="node">
<title>INTF&#45;IF_ABAP_X_WRITER</title>
<g id="a_node5"><a xlink:href="./INTF_IF_ABAP_X_WRITER.html" xlink:title="INTF&#45;IF_ABAP_X_WRITER">
<polygon fill="none" stroke="green" points="201.98,-180 15.39,-180 15.39,-144 201.98,-144 201.98,-180"/>
<text text-anchor="middle" x="108.69" y="-157.8" font-family="Times,serif" font-size="14.00">INTF&#45;IF_ABAP_X_WRITER</text>
</a>
</g>
</g>
<!-- CLAS&#45;CL_ABAP_X_WRITER&#45;&gt;INTF&#45;IF_ABAP_X_WRITER -->
<g id="edge13" class="edge">
<title>CLAS&#45;CL_ABAP_X_WRITER&#45;&gt;INTF&#45;IF_ABAP_X_WRITER</title>
<path fill="none" stroke="black" d="M133.53,-215.7C129.77,-207.73 125.23,-198.1 121.07,-189.26"/>
<polygon fill="black" stroke="black" points="124.18,-187.66 116.75,-180.1 117.85,-190.64 124.18,-187.66"/>
</g>
<!-- CLAS&#45;CL_ABAP_X_WRITER&#45;&gt;INTF&#45;IF_ABAP_WRITER -->
<g id="edge12" class="edge">
<title>CLAS&#45;CL_ABAP_X_WRITER&#45;&gt;INTF&#45;IF_ABAP_WRITER</title>
<path fill="none" stroke="black" d="M167.02,-215.87C204.7,-190.39 275.59,-142.45 317.73,-113.96"/>
<polygon fill="black" stroke="black" points="319.94,-116.69 326.27,-108.19 316.02,-110.89 319.94,-116.69"/>
</g>
<!-- CLAS&#45;CL_ABAP_X_WRITER&#45;&gt;INTF&#45;IF_ABAP_CLOSE_RESOURCE -->
<g id="edge11" class="edge">
<title>CLAS&#45;CL_ABAP_X_WRITER&#45;&gt;INTF&#45;IF_ABAP_CLOSE_RESOURCE</title>
<path fill="none" stroke="black" d="M54.09,-215.89C35.47,-208.06 18.03,-196.64 6.69,-180 -2.33,-166.78 -2.09,-157.38 6.69,-144 44.29,-86.68 114.46,-55.51 176.12,-38.63"/>
<polygon fill="black" stroke="black" points="177.16,-41.98 185.94,-36.05 175.38,-35.21 177.16,-41.98"/>
</g>
<!-- INTF&#45;IF_ABAP_X_WRITER&#45;&gt;INTF&#45;IF_ABAP_WRITER -->
<g id="edge15" class="edge">
<title>INTF&#45;IF_ABAP_X_WRITER&#45;&gt;INTF&#45;IF_ABAP_WRITER</title>
<path fill="none" stroke="black" d="M167.82,-143.97C202.36,-134.01 246.13,-121.41 282.3,-110.99"/>
<polygon fill="black" stroke="black" points="283.65,-114.24 292.29,-108.11 281.71,-107.52 283.65,-114.24"/>
</g>
<!-- INTF&#45;IF_ABAP_X_WRITER&#45;&gt;INTF&#45;IF_ABAP_CLOSE_RESOURCE -->
<g id="edge14" class="edge">
<title>INTF&#45;IF_ABAP_X_WRITER&#45;&gt;INTF&#45;IF_ABAP_CLOSE_RESOURCE</title>
<path fill="none" stroke="black" d="M130.89,-143.9C154.22,-125.95 191.98,-96.93 224.69,-72 237.49,-62.24 251.65,-51.51 263.86,-42.27"/>
<polygon fill="black" stroke="black" points="266.09,-44.97 271.96,-36.15 261.87,-39.39 266.09,-44.97"/>
</g>
<!-- INTF&#45;IF_ABAP_WRITER&#45;&gt;INTF&#45;IF_ABAP_CLOSE_RESOURCE -->
<g id="edge16" class="edge">
<title>INTF&#45;IF_ABAP_WRITER&#45;&gt;INTF&#45;IF_ABAP_CLOSE_RESOURCE</title>
<path fill="none" stroke="black" d="M337.6,-71.7C330.76,-63.3 322.43,-53.07 314.93,-43.86"/>
<polygon fill="black" stroke="black" points="317.64,-41.65 308.61,-36.1 312.21,-46.07 317.64,-41.65"/>
</g>
<!-- CLAS&#45;CL_ABAP_DB_C_WRITER&#45;&gt;INTF&#45;IF_ABAP_DB_WRITER -->
<g id="edge18" class="edge">
<title>CLAS&#45;CL_ABAP_DB_C_WRITER&#45;&gt;INTF&#45;IF_ABAP_DB_WRITER</title>
<path fill="none" stroke="black" d="M413.68,-324.11C396.93,-333.22 377.48,-345.53 362.69,-360 343.94,-378.33 328.37,-403.92 318.26,-422.95"/>
<polygon fill="black" stroke="black" points="315.08,-421.48 313.62,-431.98 321.31,-424.69 315.08,-421.48"/>
</g>
<!-- CLAS&#45;CL_ABAP_C_WRITER -->
<g id="node9" class="node">
<title>CLAS&#45;CL_ABAP_C_WRITER</title>
<g id="a_node9"><a xlink:href="./CLAS_CL_ABAP_C_WRITER.html" xlink:title="CLAS&#45;CL_ABAP_C_WRITER">
<polygon fill="none" stroke="green" points="552.34,-252 357.03,-252 357.03,-216 552.34,-216 552.34,-252"/>
<text text-anchor="middle" x="454.69" y="-229.8" font-family="Times,serif" font-size="14.00">CLAS&#45;CL_ABAP_C_WRITER</text>
</a>
</g>
</g>
<!-- CLAS&#45;CL_ABAP_DB_C_WRITER&#45;&gt;CLAS&#45;CL_ABAP_C_WRITER -->
<g id="edge17" class="edge">
<title>CLAS&#45;CL_ABAP_DB_C_WRITER&#45;&gt;CLAS&#45;CL_ABAP_C_WRITER</title>
<path fill="none" stroke="black" d="M450.92,-287.7C451.47,-279.98 452.13,-270.71 452.75,-262.11"/>
<polygon fill="black" stroke="black" points="456.24,-262.33 453.46,-252.1 449.26,-261.83 456.24,-262.33"/>
</g>
<!-- CLAS&#45;CL_ABAP_C_WRITER&#45;&gt;INTF&#45;IF_ABAP_WRITER -->
<g id="edge21" class="edge">
<title>CLAS&#45;CL_ABAP_C_WRITER&#45;&gt;INTF&#45;IF_ABAP_WRITER</title>
<path fill="none" stroke="black" d="M406.62,-215.79C390.12,-207.49 373.18,-195.82 362.69,-180 350.69,-161.91 348.5,-137.13 348.99,-118.31"/>
<polygon fill="black" stroke="black" points="352.49,-118.45 349.51,-108.28 345.5,-118.08 352.49,-118.45"/>
</g>
<!-- CLAS&#45;CL_ABAP_C_WRITER&#45;&gt;INTF&#45;IF_ABAP_CLOSE_RESOURCE -->
<g id="edge20" class="edge">
<title>CLAS&#45;CL_ABAP_C_WRITER&#45;&gt;INTF&#45;IF_ABAP_CLOSE_RESOURCE</title>
<path fill="none" stroke="black" d="M521.24,-215.94C539.04,-208.02 556.21,-196.54 566.69,-180 575.24,-166.48 573.91,-158.28 566.69,-144 537.67,-86.68 473.25,-55.57 414.39,-38.72"/>
<polygon fill="black" stroke="black" points="415.19,-35.31 404.62,-36.04 413.33,-42.06 415.19,-35.31"/>
</g>
<!-- INTF&#45;IF_ABAP_C_WRITER -->
<g id="node10" class="node">
<title>INTF&#45;IF_ABAP_C_WRITER</title>
<g id="a_node10"><a xlink:href="./INTF_IF_ABAP_C_WRITER.html" xlink:title="INTF&#45;IF_ABAP_C_WRITER">
<polygon fill="none" stroke="green" points="557.22,-180 372.16,-180 372.16,-144 557.22,-144 557.22,-180"/>
<text text-anchor="middle" x="464.69" y="-157.8" font-family="Times,serif" font-size="14.00">INTF&#45;IF_ABAP_C_WRITER</text>
</a>
</g>
</g>
<!-- CLAS&#45;CL_ABAP_C_WRITER&#45;&gt;INTF&#45;IF_ABAP_C_WRITER -->
<g id="edge19" class="edge">
<title>CLAS&#45;CL_ABAP_C_WRITER&#45;&gt;INTF&#45;IF_ABAP_C_WRITER</title>
<path fill="none" stroke="black" d="M457.16,-215.7C458.26,-207.98 459.58,-198.71 460.81,-190.11"/>
<polygon fill="black" stroke="black" points="464.29,-190.5 462.24,-180.1 457.36,-189.51 464.29,-190.5"/>
</g>
<!-- INTF&#45;IF_ABAP_C_WRITER&#45;&gt;INTF&#45;IF_ABAP_WRITER -->
<g id="edge23" class="edge">
<title>INTF&#45;IF_ABAP_C_WRITER&#45;&gt;INTF&#45;IF_ABAP_WRITER</title>
<path fill="none" stroke="black" d="M437.04,-143.88C422.27,-134.72 403.89,-123.34 387.98,-113.48"/>
<polygon fill="black" stroke="black" points="389.78,-110.48 379.43,-108.19 386.09,-116.43 389.78,-110.48"/>
</g>
<!-- INTF&#45;IF_ABAP_C_WRITER&#45;&gt;INTF&#45;IF_ABAP_CLOSE_RESOURCE -->
<g id="edge22" class="edge">
<title>INTF&#45;IF_ABAP_C_WRITER&#45;&gt;INTF&#45;IF_ABAP_CLOSE_RESOURCE</title>
<path fill="none" stroke="black" d="M465.71,-143.74C465.93,-124.03 463.22,-91.92 445.69,-72 433.29,-57.92 416.94,-47.58 399.57,-39.99"/>
<polygon fill="black" stroke="black" points="400.42,-36.56 389.84,-36.05 397.8,-43.05 400.42,-36.56"/>
</g>
<!-- DTEL&#45;ABAP_MSIZE -->
<g id="node12" class="node">
<title>DTEL&#45;ABAP_MSIZE</title>
<g id="a_node12"><a xlink:href="./DTEL_ABAP_MSIZE.html" xlink:title="DTEL&#45;ABAP_MSIZE">
<polygon fill="none" stroke="green" points="782.94,-252 640.44,-252 640.44,-216 782.94,-216 782.94,-252"/>
<text text-anchor="middle" x="711.69" y="-229.8" font-family="Times,serif" font-size="14.00">DTEL&#45;ABAP_MSIZE</text>
</a>
</g>
</g>
<!-- CLAS&#45;CL_ABAP_SQL_STATEMENT_HANDLE&#45;&gt;DTEL&#45;ABAP_MSIZE -->
<g id="edge25" class="edge">
<title>CLAS&#45;CL_ABAP_SQL_STATEMENT_HANDLE&#45;&gt;DTEL&#45;ABAP_MSIZE</title>
<path fill="none" stroke="black" d="M726.74,-287.7C724.51,-279.9 721.83,-270.51 719.35,-261.83"/>
<polygon fill="black" stroke="black" points="722.69,-260.76 716.57,-252.1 715.95,-262.68 722.69,-260.76"/>
</g>
<!-- DTEL&#45;DBCON_NAME -->
<g id="node14" class="node">
<title>DTEL&#45;DBCON_NAME</title>
<g id="a_node14"><a xlink:href="./DTEL_DBCON_NAME.html" xlink:title="DTEL&#45;DBCON_NAME">
<polygon fill="none" stroke="yellow" points="957.31,-252 804.06,-252 804.06,-216 957.31,-216 957.31,-252"/>
<text text-anchor="middle" x="880.69" y="-229.8" font-family="Times,serif" font-size="14.00">DTEL&#45;DBCON_NAME</text>
</a>
</g>
</g>
<!-- CLAS&#45;CL_ABAP_SQL_STATEMENT_HANDLE&#45;&gt;DTEL&#45;DBCON_NAME -->
<g id="edge24" class="edge">
<title>CLAS&#45;CL_ABAP_SQL_STATEMENT_HANDLE&#45;&gt;DTEL&#45;DBCON_NAME</title>
<path fill="none" stroke="black" d="M768.14,-287.88C788.32,-278.39 813.61,-266.51 835.09,-256.42"/>
<polygon fill="black" stroke="black" points="836.79,-259.49 844.35,-252.07 833.82,-253.15 836.79,-259.49"/>
</g>
<!-- DOMA&#45;ABAP_MSIZE -->
<g id="node13" class="node">
<title>DOMA&#45;ABAP_MSIZE</title>
<g id="a_node13"><a xlink:href="./DOMA_ABAP_MSIZE.html" xlink:title="DOMA&#45;ABAP_MSIZE">
<polygon fill="none" stroke="yellow" points="784.44,-180 634.94,-180 634.94,-144 784.44,-144 784.44,-180"/>
<text text-anchor="middle" x="709.69" y="-157.8" font-family="Times,serif" font-size="14.00">DOMA&#45;ABAP_MSIZE</text>
</a>
</g>
</g>
<!-- DTEL&#45;ABAP_MSIZE&#45;&gt;DOMA&#45;ABAP_MSIZE -->
<g id="edge26" class="edge">
<title>DTEL&#45;ABAP_MSIZE&#45;&gt;DOMA&#45;ABAP_MSIZE</title>
<path fill="none" stroke="black" d="M711.19,-215.7C710.97,-207.98 710.71,-198.71 710.46,-190.11"/>
<polygon fill="black" stroke="black" points="713.96,-190 710.17,-180.1 706.96,-190.2 713.96,-190"/>
</g>
<!-- DOMA&#45;DBCON_NAME -->
<g id="node15" class="node">
<title>DOMA&#45;DBCON_NAME</title>
<g id="a_node15"><a xlink:href="./DOMA_DBCON_NAME.html" xlink:title="DOMA&#45;DBCON_NAME">
<polygon fill="none" stroke="yellow" points="962.81,-180 802.56,-180 802.56,-144 962.81,-144 962.81,-180"/>
<text text-anchor="middle" x="882.69" y="-157.8" font-family="Times,serif" font-size="14.00">DOMA&#45;DBCON_NAME</text>
</a>
</g>
</g>
<!-- DTEL&#45;DBCON_NAME&#45;&gt;DOMA&#45;DBCON_NAME -->
<g id="edge27" class="edge">
<title>DTEL&#45;DBCON_NAME&#45;&gt;DOMA&#45;DBCON_NAME</title>
<path fill="none" stroke="black" d="M881.18,-215.7C881.4,-207.98 881.67,-198.71 881.91,-190.11"/>
<polygon fill="black" stroke="black" points="885.41,-190.2 882.2,-180.1 878.41,-190 885.41,-190.2"/>
</g>
</g>
</svg>
