<?xml version="1.0" encoding="UTF-8" standalone="no"?>
<!DOCTYPE svg PUBLIC "-//W3C//DTD SVG 1.1//EN"
 "http://www.w3.org/Graphics/SVG/1.1/DTD/svg11.dtd">
<!-- Generated by graphviz version 2.47.3 (20210619.1520)
 -->
<!-- Title: G Pages: 1 -->
<svg width="1296pt" height="332pt"
 viewBox="0.00 0.00 1296.14 332.00" xmlns="http://www.w3.org/2000/svg" xmlns:xlink="http://www.w3.org/1999/xlink">
<g id="graph0" class="graph" transform="scale(1 1) rotate(0) translate(4 328)">
<title>G</title>
<polygon fill="white" stroke="transparent" points="-4,4 -4,-328 1292.14,-328 1292.14,4 -4,4"/>
<!-- CLAS&#45;CX_ABAP_AUTH_CHECK_EXCEPTION -->
<g id="node1" class="node">
<title>CLAS&#45;CX_ABAP_AUTH_CHECK_EXCEPTION</title>
<polygon fill="none" stroke="green" points="1157.99,-324 852.42,-324 852.42,-288 1157.99,-288 1157.99,-324"/>
<text text-anchor="middle" x="1005.21" y="-301.8" font-family="Times,serif" font-size="14.00">CLAS&#45;CX_ABAP_AUTH_CHECK_EXCEPTION</text>
</g>
<!-- INTF&#45;IF_T100_MESSAGE -->
<g id="node2" class="node">
<title>INTF&#45;IF_T100_MESSAGE</title>
<g id="a_node2"><a xlink:href="./INTF_IF_T100_MESSAGE.html" xlink:title="INTF&#45;IF_T100_MESSAGE">
<polygon fill="none" stroke="green" points="1091.79,-252 918.62,-252 918.62,-216 1091.79,-216 1091.79,-252"/>
<text text-anchor="middle" x="1005.21" y="-229.8" font-family="Times,serif" font-size="14.00">INTF&#45;IF_T100_MESSAGE</text>
</a>
</g>
</g>
<!-- CLAS&#45;CX_ABAP_AUTH_CHECK_EXCEPTION&#45;&gt;INTF&#45;IF_T100_MESSAGE -->
<g id="edge5" class="edge">
<title>CLAS&#45;CX_ABAP_AUTH_CHECK_EXCEPTION&#45;&gt;INTF&#45;IF_T100_MESSAGE</title>
<path fill="none" stroke="black" d="M1005.21,-287.7C1005.21,-279.98 1005.21,-270.71 1005.21,-262.11"/>
<polygon fill="black" stroke="black" points="1008.71,-262.1 1005.21,-252.1 1001.71,-262.1 1008.71,-262.1"/>
</g>
<!-- DTEL&#45;SCX_ATTRNAME -->
<g id="node5" class="node">
<title>DTEL&#45;SCX_ATTRNAME</title>
<g id="a_node5"><a xlink:href="./DTEL_SCX_ATTRNAME.html" xlink:title="DTEL&#45;SCX_ATTRNAME">
<polygon fill="none" stroke="green" points="1004.62,-108 835.8,-108 835.8,-72 1004.62,-72 1004.62,-108"/>
<text text-anchor="middle" x="920.21" y="-85.8" font-family="Times,serif" font-size="14.00">DTEL&#45;SCX_ATTRNAME</text>
</a>
</g>
</g>
<!-- CLAS&#45;CX_ABAP_AUTH_CHECK_EXCEPTION&#45;&gt;DTEL&#45;SCX_ATTRNAME -->
<g id="edge3" class="edge">
<title>CLAS&#45;CX_ABAP_AUTH_CHECK_EXCEPTION&#45;&gt;DTEL&#45;SCX_ATTRNAME</title>
<path fill="none" stroke="black" d="M951.98,-287.96C935.31,-279.84 918.79,-268.23 909.21,-252 884.69,-210.46 898.13,-151.96 909.56,-118.11"/>
<polygon fill="black" stroke="black" points="912.94,-119.04 913,-108.44 906.35,-116.69 912.94,-119.04"/>
</g>
<!-- DTEL&#45;SYMSGNO -->
<g id="node6" class="node">
<title>DTEL&#45;SYMSGNO</title>
<g id="a_node6"><a xlink:href="./DTEL_SYMSGNO.html" xlink:title="DTEL&#45;SYMSGNO">
<polygon fill="none" stroke="green" points="1284.57,-108 1159.85,-108 1159.85,-72 1284.57,-72 1284.57,-108"/>
<text text-anchor="middle" x="1222.21" y="-85.8" font-family="Times,serif" font-size="14.00">DTEL&#45;SYMSGNO</text>
</a>
</g>
</g>
<!-- CLAS&#45;CX_ABAP_AUTH_CHECK_EXCEPTION&#45;&gt;DTEL&#45;SYMSGNO -->
<g id="edge2" class="edge">
<title>CLAS&#45;CX_ABAP_AUTH_CHECK_EXCEPTION&#45;&gt;DTEL&#45;SYMSGNO</title>
<path fill="none" stroke="black" d="M1060.04,-287.91C1081.11,-279.47 1104.35,-267.66 1122.21,-252 1165.43,-214.08 1196.24,-152.91 1211.44,-117.9"/>
<polygon fill="black" stroke="black" points="1214.81,-118.92 1215.49,-108.34 1208.37,-116.19 1214.81,-118.92"/>
</g>
<!-- DTEL&#45;SYMSGID -->
<g id="node8" class="node">
<title>DTEL&#45;SYMSGID</title>
<g id="a_node8"><a xlink:href="./DTEL_SYMSGID.html" xlink:title="DTEL&#45;SYMSGID">
<polygon fill="none" stroke="green" points="1142.12,-108 1022.29,-108 1022.29,-72 1142.12,-72 1142.12,-108"/>
<text text-anchor="middle" x="1082.21" y="-85.8" font-family="Times,serif" font-size="14.00">DTEL&#45;SYMSGID</text>
</a>
</g>
</g>
<!-- CLAS&#45;CX_ABAP_AUTH_CHECK_EXCEPTION&#45;&gt;DTEL&#45;SYMSGID -->
<g id="edge1" class="edge">
<title>CLAS&#45;CX_ABAP_AUTH_CHECK_EXCEPTION&#45;&gt;DTEL&#45;SYMSGID</title>
<path fill="none" stroke="black" d="M1057.05,-287.95C1073.91,-279.76 1090.92,-268.13 1101.21,-252 1127.05,-211.49 1116.35,-190.97 1106.21,-144 1104.25,-134.92 1100.59,-125.52 1096.72,-117.2"/>
<polygon fill="black" stroke="black" points="1099.74,-115.42 1092.16,-108.02 1093.48,-118.53 1099.74,-115.42"/>
</g>
<!-- CLAS&#45;CX_STATIC_CHECK -->
<g id="node10" class="node">
<title>CLAS&#45;CX_STATIC_CHECK</title>
<g id="a_node10"><a xlink:href="./CLAS_CX_STATIC_CHECK.html" xlink:title="CLAS&#45;CX_STATIC_CHECK">
<polygon fill="none" stroke="green" points="746.52,-252 559.89,-252 559.89,-216 746.52,-216 746.52,-252"/>
<text text-anchor="middle" x="653.21" y="-229.8" font-family="Times,serif" font-size="14.00">CLAS&#45;CX_STATIC_CHECK</text>
</a>
</g>
</g>
<!-- CLAS&#45;CX_ABAP_AUTH_CHECK_EXCEPTION&#45;&gt;CLAS&#45;CX_STATIC_CHECK -->
<g id="edge4" class="edge">
<title>CLAS&#45;CX_ABAP_AUTH_CHECK_EXCEPTION&#45;&gt;CLAS&#45;CX_STATIC_CHECK</title>
<path fill="none" stroke="black" d="M919.55,-287.97C868.02,-277.72 802.33,-264.66 749.08,-254.07"/>
<polygon fill="black" stroke="black" points="749.43,-250.57 738.94,-252.05 748.07,-257.43 749.43,-250.57"/>
</g>
<!-- INTF&#45;IF_MESSAGE -->
<g id="node3" class="node">
<title>INTF&#45;IF_MESSAGE</title>
<g id="a_node3"><a xlink:href="./INTF_IF_MESSAGE.html" xlink:title="INTF&#45;IF_MESSAGE">
<polygon fill="none" stroke="green" points="818.24,-108 682.17,-108 682.17,-72 818.24,-72 818.24,-108"/>
<text text-anchor="middle" x="750.21" y="-85.8" font-family="Times,serif" font-size="14.00">INTF&#45;IF_MESSAGE</text>
</a>
</g>
</g>
<!-- INTF&#45;IF_T100_MESSAGE&#45;&gt;INTF&#45;IF_MESSAGE -->
<g id="edge10" class="edge">
<title>INTF&#45;IF_T100_MESSAGE&#45;&gt;INTF&#45;IF_MESSAGE</title>
<path fill="none" stroke="black" d="M974.05,-215.86C955.26,-205.5 930.84,-192.03 909.21,-180 868.44,-157.34 821.89,-131.26 789.74,-113.21"/>
<polygon fill="black" stroke="black" points="791.09,-109.96 780.66,-108.11 787.67,-116.06 791.09,-109.96"/>
</g>
<!-- TABL&#45;SCX_T100KEY -->
<g id="node4" class="node">
<title>TABL&#45;SCX_T100KEY</title>
<g id="a_node4"><a xlink:href="./TABL_SCX_T100KEY.html" xlink:title="TABL&#45;SCX_T100KEY">
<polygon fill="none" stroke="yellow" points="1079.96,-180 930.45,-180 930.45,-144 1079.96,-144 1079.96,-180"/>
<text text-anchor="middle" x="1005.21" y="-157.8" font-family="Times,serif" font-size="14.00">TABL&#45;SCX_T100KEY</text>
</a>
</g>
</g>
<!-- INTF&#45;IF_T100_MESSAGE&#45;&gt;TABL&#45;SCX_T100KEY -->
<g id="edge9" class="edge">
<title>INTF&#45;IF_T100_MESSAGE&#45;&gt;TABL&#45;SCX_T100KEY</title>
<path fill="none" stroke="black" d="M1005.21,-215.7C1005.21,-207.98 1005.21,-198.71 1005.21,-190.11"/>
<polygon fill="black" stroke="black" points="1008.71,-190.1 1005.21,-180.1 1001.71,-190.1 1008.71,-190.1"/>
</g>
<!-- INTF&#45;IF_T100_MESSAGE&#45;&gt;DTEL&#45;SCX_ATTRNAME -->
<g id="edge8" class="edge">
<title>INTF&#45;IF_T100_MESSAGE&#45;&gt;DTEL&#45;SCX_ATTRNAME</title>
<path fill="none" stroke="black" d="M961.23,-215.93C945.76,-207.56 930.04,-195.81 921.21,-180 910.76,-161.31 911.33,-136.77 914.05,-118.2"/>
<polygon fill="black" stroke="black" points="917.51,-118.76 915.78,-108.31 910.61,-117.55 917.51,-118.76"/>
</g>
<!-- INTF&#45;IF_T100_MESSAGE&#45;&gt;DTEL&#45;SYMSGNO -->
<g id="edge7" class="edge">
<title>INTF&#45;IF_T100_MESSAGE&#45;&gt;DTEL&#45;SYMSGNO</title>
<path fill="none" stroke="black" d="M1041.57,-215.81C1061.18,-206.07 1085.52,-193.23 1106.21,-180 1137.63,-159.91 1171.2,-133.56 1194.1,-114.75"/>
<polygon fill="black" stroke="black" points="1196.56,-117.26 1202.03,-108.19 1192.1,-111.87 1196.56,-117.26"/>
</g>
<!-- INTF&#45;IF_T100_MESSAGE&#45;&gt;DTEL&#45;SYMSGID -->
<g id="edge6" class="edge">
<title>INTF&#45;IF_T100_MESSAGE&#45;&gt;DTEL&#45;SYMSGID</title>
<path fill="none" stroke="black" d="M1049.28,-215.98C1064.76,-207.62 1080.46,-195.85 1089.21,-180 1099.63,-161.1 1096.64,-136.44 1091.75,-117.87"/>
<polygon fill="black" stroke="black" points="1095.1,-116.85 1088.91,-108.25 1088.39,-118.84 1095.1,-116.85"/>
</g>
<!-- TABL&#45;SCX_T100KEY&#45;&gt;DTEL&#45;SCX_ATTRNAME -->
<g id="edge13" class="edge">
<title>TABL&#45;SCX_T100KEY&#45;&gt;DTEL&#45;SCX_ATTRNAME</title>
<path fill="none" stroke="black" d="M984.2,-143.7C973.49,-134.88 960.32,-124.03 948.71,-114.47"/>
<polygon fill="black" stroke="black" points="950.92,-111.76 940.98,-108.1 946.47,-117.16 950.92,-111.76"/>
</g>
<!-- TABL&#45;SCX_T100KEY&#45;&gt;DTEL&#45;SYMSGNO -->
<g id="edge12" class="edge">
<title>TABL&#45;SCX_T100KEY&#45;&gt;DTEL&#45;SYMSGNO</title>
<path fill="none" stroke="black" d="M1058.01,-143.97C1088.6,-134.1 1127.28,-121.62 1159.42,-111.25"/>
<polygon fill="black" stroke="black" points="1160.72,-114.51 1169.16,-108.11 1158.57,-107.85 1160.72,-114.51"/>
</g>
<!-- TABL&#45;SCX_T100KEY&#45;&gt;DTEL&#45;SYMSGID -->
<g id="edge11" class="edge">
<title>TABL&#45;SCX_T100KEY&#45;&gt;DTEL&#45;SYMSGID</title>
<path fill="none" stroke="black" d="M1024.24,-143.7C1033.75,-135.05 1045.41,-124.45 1055.78,-115.03"/>
<polygon fill="black" stroke="black" points="1058.35,-117.42 1063.39,-108.1 1053.64,-112.24 1058.35,-117.42"/>
</g>
<!-- DOMA&#45;SYMSGNO -->
<g id="node7" class="node">
<title>DOMA&#45;SYMSGNO</title>
<g id="a_node7"><a xlink:href="./DOMA_SYMSGNO.html" xlink:title="DOMA&#45;SYMSGNO">
<polygon fill="none" stroke="yellow" points="1288.07,-36 1156.35,-36 1156.35,0 1288.07,0 1288.07,-36"/>
<text text-anchor="middle" x="1222.21" y="-13.8" font-family="Times,serif" font-size="14.00">DOMA&#45;SYMSGNO</text>
</a>
</g>
</g>
<!-- DTEL&#45;SYMSGNO&#45;&gt;DOMA&#45;SYMSGNO -->
<g id="edge14" class="edge">
<title>DTEL&#45;SYMSGNO&#45;&gt;DOMA&#45;SYMSGNO</title>
<path fill="none" stroke="black" d="M1222.21,-71.7C1222.21,-63.98 1222.21,-54.71 1222.21,-46.11"/>
<polygon fill="black" stroke="black" points="1225.71,-46.1 1222.21,-36.1 1218.71,-46.1 1225.71,-46.1"/>
</g>
<!-- DOMA&#45;ARBGB -->
<g id="node9" class="node">
<title>DOMA&#45;ARBGB</title>
<g id="a_node9"><a xlink:href="./DOMA_ARBGB.html" xlink:title="DOMA&#45;ARBGB">
<polygon fill="none" stroke="yellow" points="1137.86,-36 1026.56,-36 1026.56,0 1137.86,0 1137.86,-36"/>
<text text-anchor="middle" x="1082.21" y="-13.8" font-family="Times,serif" font-size="14.00">DOMA&#45;ARBGB</text>
</a>
</g>
</g>
<!-- DTEL&#45;SYMSGID&#45;&gt;DOMA&#45;ARBGB -->
<g id="edge15" class="edge">
<title>DTEL&#45;SYMSGID&#45;&gt;DOMA&#45;ARBGB</title>
<path fill="none" stroke="black" d="M1082.21,-71.7C1082.21,-63.98 1082.21,-54.71 1082.21,-46.11"/>
<polygon fill="black" stroke="black" points="1085.71,-46.1 1082.21,-36.1 1078.71,-46.1 1085.71,-46.1"/>
</g>
<!-- CLAS&#45;CX_ROOT -->
<g id="node11" class="node">
<title>CLAS&#45;CX_ROOT</title>
<g id="a_node11"><a xlink:href="./CLAS_CX_ROOT.html" xlink:title="CLAS&#45;CX_ROOT">
<polygon fill="none" stroke="green" points="591.69,-180 470.72,-180 470.72,-144 591.69,-144 591.69,-180"/>
<text text-anchor="middle" x="531.21" y="-157.8" font-family="Times,serif" font-size="14.00">CLAS&#45;CX_ROOT</text>
</a>
</g>
</g>
<!-- CLAS&#45;CX_STATIC_CHECK&#45;&gt;CLAS&#45;CX_ROOT -->
<g id="edge16" class="edge">
<title>CLAS&#45;CX_STATIC_CHECK&#45;&gt;CLAS&#45;CX_ROOT</title>
<path fill="none" stroke="black" d="M623.36,-215.88C607.26,-206.64 587.21,-195.13 569.92,-185.21"/>
<polygon fill="black" stroke="black" points="571.58,-182.13 561.17,-180.19 568.1,-188.2 571.58,-182.13"/>
</g>
<!-- CLAS&#45;CX_ROOT&#45;&gt;INTF&#45;IF_MESSAGE -->
<g id="edge20" class="edge">
<title>CLAS&#45;CX_ROOT&#45;&gt;INTF&#45;IF_MESSAGE</title>
<path fill="none" stroke="black" d="M584.5,-143.97C615.37,-134.1 654.41,-121.62 686.84,-111.25"/>
<polygon fill="black" stroke="black" points="688.21,-114.49 696.67,-108.11 686.08,-107.82 688.21,-114.49"/>
</g>
<!-- INTF&#45;IF_SERIALIZABLE_OBJECT -->
<g id="node12" class="node">
<title>INTF&#45;IF_SERIALIZABLE_OBJECT</title>
<g id="a_node12"><a xlink:href="./INTF_IF_SERIALIZABLE_OBJECT.html" xlink:title="INTF&#45;IF_SERIALIZABLE_OBJECT">
<polygon fill="none" stroke="green" points="385.5,-108 156.92,-108 156.92,-72 385.5,-72 385.5,-108"/>
<text text-anchor="middle" x="271.21" y="-85.8" font-family="Times,serif" font-size="14.00">INTF&#45;IF_SERIALIZABLE_OBJECT</text>
</a>
</g>
</g>
<!-- CLAS&#45;CX_ROOT&#45;&gt;INTF&#45;IF_SERIALIZABLE_OBJECT -->
<g id="edge21" class="edge">
<title>CLAS&#45;CX_ROOT&#45;&gt;INTF&#45;IF_SERIALIZABLE_OBJECT</title>
<path fill="none" stroke="black" d="M470.58,-144.68C432.87,-134.52 384.15,-121.41 344.32,-110.68"/>
<polygon fill="black" stroke="black" points="345.22,-107.3 334.65,-108.08 343.4,-114.06 345.22,-107.3"/>
</g>
<!-- DTEL&#45;SYREPID -->
<g id="node13" class="node">
<title>DTEL&#45;SYREPID</title>
<g id="a_node13"><a xlink:href="./DTEL_SYREPID.html" xlink:title="DTEL&#45;SYREPID">
<polygon fill="none" stroke="green" points="518.46,-108 403.95,-108 403.95,-72 518.46,-72 518.46,-108"/>
<text text-anchor="middle" x="461.21" y="-85.8" font-family="Times,serif" font-size="14.00">DTEL&#45;SYREPID</text>
</a>
</g>
</g>
<!-- CLAS&#45;CX_ROOT&#45;&gt;DTEL&#45;SYREPID -->
<g id="edge19" class="edge">
<title>CLAS&#45;CX_ROOT&#45;&gt;DTEL&#45;SYREPID</title>
<path fill="none" stroke="black" d="M513.9,-143.7C505.34,-135.14 494.86,-124.66 485.51,-115.3"/>
<polygon fill="black" stroke="black" points="487.86,-112.7 478.31,-108.1 482.91,-117.65 487.86,-112.7"/>
</g>
<!-- DTEL&#45;S380ERRID -->
<g id="node15" class="node">
<title>DTEL&#45;S380ERRID</title>
<g id="a_node15"><a xlink:href="./DTEL_S380ERRID.html" xlink:title="DTEL&#45;S380ERRID">
<polygon fill="none" stroke="yellow" points="663.91,-108 536.51,-108 536.51,-72 663.91,-72 663.91,-108"/>
<text text-anchor="middle" x="600.21" y="-85.8" font-family="Times,serif" font-size="14.00">DTEL&#45;S380ERRID</text>
</a>
</g>
</g>
<!-- CLAS&#45;CX_ROOT&#45;&gt;DTEL&#45;S380ERRID -->
<g id="edge18" class="edge">
<title>CLAS&#45;CX_ROOT&#45;&gt;DTEL&#45;S380ERRID</title>
<path fill="none" stroke="black" d="M548.26,-143.7C556.7,-135.14 567.03,-124.66 576.25,-115.3"/>
<polygon fill="black" stroke="black" points="578.82,-117.68 583.35,-108.1 573.83,-112.77 578.82,-117.68"/>
</g>
<!-- DTEL&#45;SOTR_CONC -->
<g id="node17" class="node">
<title>DTEL&#45;SOTR_CONC</title>
<g id="a_node17"><a xlink:href="./DTEL_SOTR_CONC.html" xlink:title="DTEL&#45;SOTR_CONC">
<polygon fill="none" stroke="yellow" points="139.3,-108 1.12,-108 1.12,-72 139.3,-72 139.3,-108"/>
<text text-anchor="middle" x="70.21" y="-85.8" font-family="Times,serif" font-size="14.00">DTEL&#45;SOTR_CONC</text>
</a>
</g>
</g>
<!-- CLAS&#45;CX_ROOT&#45;&gt;DTEL&#45;SOTR_CONC -->
<g id="edge17" class="edge">
<title>CLAS&#45;CX_ROOT&#45;&gt;DTEL&#45;SOTR_CONC</title>
<path fill="none" stroke="black" d="M470.62,-154.08C396.99,-145.34 268.8,-129.08 149.51,-108.16"/>
<polygon fill="black" stroke="black" points="149.93,-104.68 139.47,-106.39 148.71,-111.58 149.93,-104.68"/>
</g>
<!-- DOMA&#45;PROGRAMM -->
<g id="node14" class="node">
<title>DOMA&#45;PROGRAMM</title>
<g id="a_node14"><a xlink:href="./DOMA_PROGRAMM.html" xlink:title="DOMA&#45;PROGRAMM">
<polygon fill="none" stroke="yellow" points="523.8,-36 378.62,-36 378.62,0 523.8,0 523.8,-36"/>
<text text-anchor="middle" x="451.21" y="-13.8" font-family="Times,serif" font-size="14.00">DOMA&#45;PROGRAMM</text>
</a>
</g>
</g>
<!-- DTEL&#45;SYREPID&#45;&gt;DOMA&#45;PROGRAMM -->
<g id="edge22" class="edge">
<title>DTEL&#45;SYREPID&#45;&gt;DOMA&#45;PROGRAMM</title>
<path fill="none" stroke="black" d="M458.73,-71.7C457.63,-63.98 456.31,-54.71 455.08,-46.11"/>
<polygon fill="black" stroke="black" points="458.53,-45.51 453.65,-36.1 451.6,-46.5 458.53,-45.51"/>
</g>
<!-- DOMA&#45;SYCHAR30 -->
<g id="node16" class="node">
<title>DOMA&#45;SYCHAR30</title>
<g id="a_node16"><a xlink:href="./DOMA_SYCHAR30.html" xlink:title="DOMA&#45;SYCHAR30">
<polygon fill="none" stroke="yellow" points="676.41,-36 542.01,-36 542.01,0 676.41,0 676.41,-36"/>
<text text-anchor="middle" x="609.21" y="-13.8" font-family="Times,serif" font-size="14.00">DOMA&#45;SYCHAR30</text>
</a>
</g>
</g>
<!-- DTEL&#45;S380ERRID&#45;&gt;DOMA&#45;SYCHAR30 -->
<g id="edge23" class="edge">
<title>DTEL&#45;S380ERRID&#45;&gt;DOMA&#45;SYCHAR30</title>
<path fill="none" stroke="black" d="M602.43,-71.7C603.42,-63.98 604.62,-54.71 605.72,-46.11"/>
<polygon fill="black" stroke="black" points="609.2,-46.47 607.01,-36.1 602.26,-45.58 609.2,-46.47"/>
</g>
<!-- DOMA&#45;SYSUUID_C -->
<g id="node18" class="node">
<title>DOMA&#45;SYSUUID_C</title>
<g id="a_node18"><a xlink:href="./DOMA_SYSUUID_C.html" xlink:title="DOMA&#45;SYSUUID_C">
<polygon fill="none" stroke="yellow" points="140.62,-36 -0.21,-36 -0.21,0 140.62,0 140.62,-36"/>
<text text-anchor="middle" x="70.21" y="-13.8" font-family="Times,serif" font-size="14.00">DOMA&#45;SYSUUID_C</text>
</a>
</g>
</g>
<!-- DTEL&#45;SOTR_CONC&#45;&gt;DOMA&#45;SYSUUID_C -->
<g id="edge24" class="edge">
<title>DTEL&#45;SOTR_CONC&#45;&gt;DOMA&#45;SYSUUID_C</title>
<path fill="none" stroke="black" d="M70.21,-71.7C70.21,-63.98 70.21,-54.71 70.21,-46.11"/>
<polygon fill="black" stroke="black" points="73.71,-46.1 70.21,-36.1 66.71,-46.1 73.71,-46.1"/>
</g>
</g>
</svg>
