<?xml version="1.0" encoding="UTF-8" standalone="no"?>
<!DOCTYPE svg PUBLIC "-//W3C//DTD SVG 1.1//EN"
 "http://www.w3.org/Graphics/SVG/1.1/DTD/svg11.dtd">
<!-- Generated by graphviz version 2.47.3 (20210619.1520)
 -->
<!-- Title: G Pages: 1 -->
<svg width="826pt" height="620pt"
 viewBox="0.00 0.00 826.47 620.00" xmlns="http://www.w3.org/2000/svg" xmlns:xlink="http://www.w3.org/1999/xlink">
<g id="graph0" class="graph" transform="scale(1 1) rotate(0) translate(4 616)">
<title>G</title>
<polygon fill="white" stroke="transparent" points="-4,4 -4,-616 822.47,-616 822.47,4 -4,4"/>
<!-- CLAS&#45;CX_ST_MATCH_ELEMENT -->
<g id="node1" class="node">
<title>CLAS&#45;CX_ST_MATCH_ELEMENT</title>
<polygon fill="none" stroke="green" points="644.85,-612 415.69,-612 415.69,-576 644.85,-576 644.85,-612"/>
<text text-anchor="middle" x="530.27" y="-589.8" font-family="Times,serif" font-size="14.00">CLAS&#45;CX_ST_MATCH_ELEMENT</text>
</g>
<!-- CLAS&#45;CX_ST_MATCH_NAMED -->
<g id="node2" class="node">
<title>CLAS&#45;CX_ST_MATCH_NAMED</title>
<g id="a_node2"><a xlink:href="./CLAS_CX_ST_MATCH_NAMED.html" xlink:title="CLAS&#45;CX_ST_MATCH_NAMED">
<polygon fill="none" stroke="green" points="637.85,-540 422.69,-540 422.69,-504 637.85,-504 637.85,-540"/>
<text text-anchor="middle" x="530.27" y="-517.8" font-family="Times,serif" font-size="14.00">CLAS&#45;CX_ST_MATCH_NAMED</text>
</a>
</g>
</g>
<!-- CLAS&#45;CX_ST_MATCH_ELEMENT&#45;&gt;CLAS&#45;CX_ST_MATCH_NAMED -->
<g id="edge3" class="edge">
<title>CLAS&#45;CX_ST_MATCH_ELEMENT&#45;&gt;CLAS&#45;CX_ST_MATCH_NAMED</title>
<path fill="none" stroke="black" d="M530.27,-575.7C530.27,-567.98 530.27,-558.71 530.27,-550.11"/>
<polygon fill="black" stroke="black" points="533.77,-550.1 530.27,-540.1 526.77,-550.1 533.77,-550.1"/>
</g>
<!-- DTEL&#45;SOTR_CONC -->
<g id="node14" class="node">
<title>DTEL&#45;SOTR_CONC</title>
<g id="a_node14"><a xlink:href="./DTEL_SOTR_CONC.html" xlink:title="DTEL&#45;SOTR_CONC">
<polygon fill="none" stroke="yellow" points="817.36,-108 679.18,-108 679.18,-72 817.36,-72 817.36,-108"/>
<text text-anchor="middle" x="748.27" y="-85.8" font-family="Times,serif" font-size="14.00">DTEL&#45;SOTR_CONC</text>
</a>
</g>
</g>
<!-- CLAS&#45;CX_ST_MATCH_ELEMENT&#45;&gt;DTEL&#45;SOTR_CONC -->
<g id="edge1" class="edge">
<title>CLAS&#45;CX_ST_MATCH_ELEMENT&#45;&gt;DTEL&#45;SOTR_CONC</title>
<path fill="none" stroke="black" d="M644.9,-579.08C720.36,-562.77 805.27,-527.43 805.27,-451 805.27,-451 805.27,-451 805.27,-233 805.27,-189.8 782.27,-144.19 765.49,-116.66"/>
<polygon fill="black" stroke="black" points="768.36,-114.65 760.08,-108.04 762.43,-118.37 768.36,-114.65"/>
</g>
<!-- DTEL&#45;SCX_ST_TSTAMP -->
<g id="node16" class="node">
<title>DTEL&#45;SCX_ST_TSTAMP</title>
<g id="a_node16"><a xlink:href="./DTEL_SCX_ST_TSTAMP.html" xlink:title="DTEL&#45;SCX_ST_TSTAMP">
<polygon fill="none" stroke="green" points="379.97,-324 210.56,-324 210.56,-288 379.97,-288 379.97,-324"/>
<text text-anchor="middle" x="295.27" y="-301.8" font-family="Times,serif" font-size="14.00">DTEL&#45;SCX_ST_TSTAMP</text>
</a>
</g>
</g>
<!-- CLAS&#45;CX_ST_MATCH_ELEMENT&#45;&gt;DTEL&#45;SCX_ST_TSTAMP -->
<g id="edge2" class="edge">
<title>CLAS&#45;CX_ST_MATCH_ELEMENT&#45;&gt;DTEL&#45;SCX_ST_TSTAMP</title>
<path fill="none" stroke="black" d="M473.8,-575.92C453,-567.57 430.36,-555.84 413.27,-540 350.18,-481.56 315.8,-381.83 302.22,-334.06"/>
<polygon fill="black" stroke="black" points="305.53,-332.87 299.5,-324.15 298.78,-334.72 305.53,-332.87"/>
</g>
<!-- CLAS&#45;CX_ST_MATCH -->
<g id="node3" class="node">
<title>CLAS&#45;CX_ST_MATCH</title>
<g id="a_node3"><a xlink:href="./CLAS_CX_ST_MATCH.html" xlink:title="CLAS&#45;CX_ST_MATCH">
<polygon fill="none" stroke="green" points="608.53,-468 452,-468 452,-432 608.53,-432 608.53,-468"/>
<text text-anchor="middle" x="530.27" y="-445.8" font-family="Times,serif" font-size="14.00">CLAS&#45;CX_ST_MATCH</text>
</a>
</g>
</g>
<!-- CLAS&#45;CX_ST_MATCH_NAMED&#45;&gt;CLAS&#45;CX_ST_MATCH -->
<g id="edge6" class="edge">
<title>CLAS&#45;CX_ST_MATCH_NAMED&#45;&gt;CLAS&#45;CX_ST_MATCH</title>
<path fill="none" stroke="black" d="M530.27,-503.7C530.27,-495.98 530.27,-486.71 530.27,-478.11"/>
<polygon fill="black" stroke="black" points="533.77,-478.1 530.27,-468.1 526.77,-478.1 533.77,-478.1"/>
</g>
<!-- CLAS&#45;CX_ST_MATCH_NAMED&#45;&gt;DTEL&#45;SOTR_CONC -->
<g id="edge4" class="edge">
<title>CLAS&#45;CX_ST_MATCH_NAMED&#45;&gt;DTEL&#45;SOTR_CONC</title>
<path fill="none" stroke="black" d="M622.92,-503.95C689.39,-485.74 767.27,-449.39 767.27,-379 767.27,-379 767.27,-379 767.27,-233 767.27,-192.86 759.72,-146.9 754.14,-118.4"/>
<polygon fill="black" stroke="black" points="757.52,-117.5 752.11,-108.39 750.66,-118.88 757.52,-117.5"/>
</g>
<!-- CLAS&#45;CX_ST_MATCH_NAMED&#45;&gt;DTEL&#45;SCX_ST_TSTAMP -->
<g id="edge5" class="edge">
<title>CLAS&#45;CX_ST_MATCH_NAMED&#45;&gt;DTEL&#45;SCX_ST_TSTAMP</title>
<path fill="none" stroke="black" d="M497.42,-503.89C480.49,-494.37 459.95,-481.69 443.27,-468 391.86,-425.81 341.52,-365.98 314.85,-332.4"/>
<polygon fill="black" stroke="black" points="317.52,-330.15 308.59,-324.46 312.03,-334.48 317.52,-330.15"/>
</g>
<!-- CLAS&#45;CX_ST_ERROR -->
<g id="node4" class="node">
<title>CLAS&#45;CX_ST_ERROR</title>
<g id="a_node4"><a xlink:href="./CLAS_CX_ST_ERROR.html" xlink:title="CLAS&#45;CX_ST_ERROR">
<polygon fill="none" stroke="green" points="606.65,-396 453.88,-396 453.88,-360 606.65,-360 606.65,-396"/>
<text text-anchor="middle" x="530.27" y="-373.8" font-family="Times,serif" font-size="14.00">CLAS&#45;CX_ST_ERROR</text>
</a>
</g>
</g>
<!-- CLAS&#45;CX_ST_MATCH&#45;&gt;CLAS&#45;CX_ST_ERROR -->
<g id="edge9" class="edge">
<title>CLAS&#45;CX_ST_MATCH&#45;&gt;CLAS&#45;CX_ST_ERROR</title>
<path fill="none" stroke="black" d="M530.27,-431.7C530.27,-423.98 530.27,-414.71 530.27,-406.11"/>
<polygon fill="black" stroke="black" points="533.77,-406.1 530.27,-396.1 526.77,-406.1 533.77,-406.1"/>
</g>
<!-- CLAS&#45;CX_ST_MATCH&#45;&gt;DTEL&#45;SOTR_CONC -->
<g id="edge7" class="edge">
<title>CLAS&#45;CX_ST_MATCH&#45;&gt;DTEL&#45;SOTR_CONC</title>
<path fill="none" stroke="black" d="M595.43,-431.99C653.46,-412.43 729.27,-374.06 729.27,-307 729.27,-307 729.27,-307 729.27,-233 729.27,-192.86 736.82,-146.9 742.4,-118.4"/>
<polygon fill="black" stroke="black" points="745.87,-118.88 744.42,-108.39 739.01,-117.5 745.87,-118.88"/>
</g>
<!-- CLAS&#45;CX_ST_MATCH&#45;&gt;DTEL&#45;SCX_ST_TSTAMP -->
<g id="edge8" class="edge">
<title>CLAS&#45;CX_ST_MATCH&#45;&gt;DTEL&#45;SCX_ST_TSTAMP</title>
<path fill="none" stroke="black" d="M501.92,-431.87C459.49,-406.23 379.42,-357.85 332.38,-329.43"/>
<polygon fill="black" stroke="black" points="334.08,-326.37 323.71,-324.19 330.46,-332.36 334.08,-326.37"/>
</g>
<!-- CLAS&#45;CX_TRANSFORMATION_ERROR -->
<g id="node5" class="node">
<title>CLAS&#45;CX_TRANSFORMATION_ERROR</title>
<g id="a_node5"><a xlink:href="./CLAS_CX_TRANSFORMATION_ERROR.html" xlink:title="CLAS&#45;CX_TRANSFORMATION_ERROR">
<polygon fill="none" stroke="green" points="662.91,-324 397.63,-324 397.63,-288 662.91,-288 662.91,-324"/>
<text text-anchor="middle" x="530.27" y="-301.8" font-family="Times,serif" font-size="14.00">CLAS&#45;CX_TRANSFORMATION_ERROR</text>
</a>
</g>
</g>
<!-- CLAS&#45;CX_ST_ERROR&#45;&gt;CLAS&#45;CX_TRANSFORMATION_ERROR -->
<g id="edge12" class="edge">
<title>CLAS&#45;CX_ST_ERROR&#45;&gt;CLAS&#45;CX_TRANSFORMATION_ERROR</title>
<path fill="none" stroke="black" d="M530.27,-359.7C530.27,-351.98 530.27,-342.71 530.27,-334.11"/>
<polygon fill="black" stroke="black" points="533.77,-334.1 530.27,-324.1 526.77,-334.1 533.77,-334.1"/>
</g>
<!-- CLAS&#45;CX_ST_ERROR&#45;&gt;DTEL&#45;SOTR_CONC -->
<g id="edge10" class="edge">
<title>CLAS&#45;CX_ST_ERROR&#45;&gt;DTEL&#45;SOTR_CONC</title>
<path fill="none" stroke="black" d="M606.99,-363.19C630.88,-355.36 655.36,-343.12 672.27,-324 726.75,-262.38 683.56,-219.9 715.27,-144 719.13,-134.75 724.52,-125.26 729.81,-116.91"/>
<polygon fill="black" stroke="black" points="732.86,-118.65 735.45,-108.37 727.02,-114.79 732.86,-118.65"/>
</g>
<!-- CLAS&#45;CX_ST_ERROR&#45;&gt;DTEL&#45;SCX_ST_TSTAMP -->
<g id="edge11" class="edge">
<title>CLAS&#45;CX_ST_ERROR&#45;&gt;DTEL&#45;SCX_ST_TSTAMP</title>
<path fill="none" stroke="black" d="M473.08,-359.97C439.67,-350.01 397.35,-337.41 362.37,-326.99"/>
<polygon fill="black" stroke="black" points="363.29,-323.61 352.71,-324.11 361.3,-330.32 363.29,-323.61"/>
</g>
<!-- CLAS&#45;CX_DYNAMIC_CHECK -->
<g id="node6" class="node">
<title>CLAS&#45;CX_DYNAMIC_CHECK</title>
<g id="a_node6"><a xlink:href="./CLAS_CX_DYNAMIC_CHECK.html" xlink:title="CLAS&#45;CX_DYNAMIC_CHECK">
<polygon fill="none" stroke="green" points="548.46,-252 344.08,-252 344.08,-216 548.46,-216 548.46,-252"/>
<text text-anchor="middle" x="446.27" y="-229.8" font-family="Times,serif" font-size="14.00">CLAS&#45;CX_DYNAMIC_CHECK</text>
</a>
</g>
</g>
<!-- CLAS&#45;CX_TRANSFORMATION_ERROR&#45;&gt;CLAS&#45;CX_DYNAMIC_CHECK -->
<g id="edge14" class="edge">
<title>CLAS&#45;CX_TRANSFORMATION_ERROR&#45;&gt;CLAS&#45;CX_DYNAMIC_CHECK</title>
<path fill="none" stroke="black" d="M509.5,-287.7C499.03,-278.97 486.16,-268.24 474.77,-258.75"/>
<polygon fill="black" stroke="black" points="476.72,-255.82 466.79,-252.1 472.23,-261.19 476.72,-255.82"/>
</g>
<!-- CLAS&#45;CX_TRANSFORMATION_ERROR&#45;&gt;DTEL&#45;SOTR_CONC -->
<g id="edge13" class="edge">
<title>CLAS&#45;CX_TRANSFORMATION_ERROR&#45;&gt;DTEL&#45;SOTR_CONC</title>
<path fill="none" stroke="black" d="M544.31,-287.56C569.39,-256.89 624.25,-192.03 677.27,-144 688.94,-133.43 702.63,-122.84 714.86,-113.93"/>
<polygon fill="black" stroke="black" points="716.96,-116.73 723.05,-108.05 712.88,-111.04 716.96,-116.73"/>
</g>
<!-- CLAS&#45;CX_ROOT -->
<g id="node7" class="node">
<title>CLAS&#45;CX_ROOT</title>
<g id="a_node7"><a xlink:href="./CLAS_CX_ROOT.html" xlink:title="CLAS&#45;CX_ROOT">
<polygon fill="none" stroke="green" points="418.75,-180 297.78,-180 297.78,-144 418.75,-144 418.75,-180"/>
<text text-anchor="middle" x="358.27" y="-157.8" font-family="Times,serif" font-size="14.00">CLAS&#45;CX_ROOT</text>
</a>
</g>
</g>
<!-- CLAS&#45;CX_DYNAMIC_CHECK&#45;&gt;CLAS&#45;CX_ROOT -->
<g id="edge15" class="edge">
<title>CLAS&#45;CX_DYNAMIC_CHECK&#45;&gt;CLAS&#45;CX_ROOT</title>
<path fill="none" stroke="black" d="M424.51,-215.7C413.43,-206.88 399.79,-196.03 387.78,-186.47"/>
<polygon fill="black" stroke="black" points="389.77,-183.59 379.77,-180.1 385.42,-189.07 389.77,-183.59"/>
</g>
<!-- INTF&#45;IF_SERIALIZABLE_OBJECT -->
<g id="node8" class="node">
<title>INTF&#45;IF_SERIALIZABLE_OBJECT</title>
<g id="a_node8"><a xlink:href="./INTF_IF_SERIALIZABLE_OBJECT.html" xlink:title="INTF&#45;IF_SERIALIZABLE_OBJECT">
<polygon fill="none" stroke="green" points="661.56,-108 432.98,-108 432.98,-72 661.56,-72 661.56,-108"/>
<text text-anchor="middle" x="547.27" y="-85.8" font-family="Times,serif" font-size="14.00">INTF&#45;IF_SERIALIZABLE_OBJECT</text>
</a>
</g>
</g>
<!-- CLAS&#45;CX_ROOT&#45;&gt;INTF&#45;IF_SERIALIZABLE_OBJECT -->
<g id="edge20" class="edge">
<title>CLAS&#45;CX_ROOT&#45;&gt;INTF&#45;IF_SERIALIZABLE_OBJECT</title>
<path fill="none" stroke="black" d="M404.5,-143.88C430.8,-134.14 463.91,-121.87 491.63,-111.61"/>
<polygon fill="black" stroke="black" points="493.02,-114.82 501.18,-108.07 490.59,-108.26 493.02,-114.82"/>
</g>
<!-- INTF&#45;IF_MESSAGE -->
<g id="node9" class="node">
<title>INTF&#45;IF_MESSAGE</title>
<g id="a_node9"><a xlink:href="./INTF_IF_MESSAGE.html" xlink:title="INTF&#45;IF_MESSAGE">
<polygon fill="none" stroke="green" points="136.3,-108 0.23,-108 0.23,-72 136.3,-72 136.3,-108"/>
<text text-anchor="middle" x="68.27" y="-85.8" font-family="Times,serif" font-size="14.00">INTF&#45;IF_MESSAGE</text>
</a>
</g>
</g>
<!-- CLAS&#45;CX_ROOT&#45;&gt;INTF&#45;IF_MESSAGE -->
<g id="edge19" class="edge">
<title>CLAS&#45;CX_ROOT&#45;&gt;INTF&#45;IF_MESSAGE</title>
<path fill="none" stroke="black" d="M297.47,-146.33C253.51,-135.71 193.75,-121.29 146.28,-109.83"/>
<polygon fill="black" stroke="black" points="146.88,-106.38 136.34,-107.43 145.24,-113.18 146.88,-106.38"/>
</g>
<!-- DTEL&#45;SYREPID -->
<g id="node10" class="node">
<title>DTEL&#45;SYREPID</title>
<g id="a_node10"><a xlink:href="./DTEL_SYREPID.html" xlink:title="DTEL&#45;SYREPID">
<polygon fill="none" stroke="green" points="269.52,-108 155.01,-108 155.01,-72 269.52,-72 269.52,-108"/>
<text text-anchor="middle" x="212.27" y="-85.8" font-family="Times,serif" font-size="14.00">DTEL&#45;SYREPID</text>
</a>
</g>
</g>
<!-- CLAS&#45;CX_ROOT&#45;&gt;DTEL&#45;SYREPID -->
<g id="edge18" class="edge">
<title>CLAS&#45;CX_ROOT&#45;&gt;DTEL&#45;SYREPID</title>
<path fill="none" stroke="black" d="M322.55,-143.88C302.77,-134.39 278,-122.51 256.94,-112.42"/>
<polygon fill="black" stroke="black" points="258.4,-109.24 247.87,-108.07 255.37,-115.55 258.4,-109.24"/>
</g>
<!-- DTEL&#45;S380ERRID -->
<g id="node12" class="node">
<title>DTEL&#45;S380ERRID</title>
<g id="a_node12"><a xlink:href="./DTEL_S380ERRID.html" xlink:title="DTEL&#45;S380ERRID">
<polygon fill="none" stroke="yellow" points="414.97,-108 287.57,-108 287.57,-72 414.97,-72 414.97,-108"/>
<text text-anchor="middle" x="351.27" y="-85.8" font-family="Times,serif" font-size="14.00">DTEL&#45;S380ERRID</text>
</a>
</g>
</g>
<!-- CLAS&#45;CX_ROOT&#45;&gt;DTEL&#45;S380ERRID -->
<g id="edge17" class="edge">
<title>CLAS&#45;CX_ROOT&#45;&gt;DTEL&#45;S380ERRID</title>
<path fill="none" stroke="black" d="M356.54,-143.7C355.77,-135.98 354.84,-126.71 353.98,-118.11"/>
<polygon fill="black" stroke="black" points="357.46,-117.71 352.98,-108.1 350.49,-118.4 357.46,-117.71"/>
</g>
<!-- CLAS&#45;CX_ROOT&#45;&gt;DTEL&#45;SOTR_CONC -->
<g id="edge16" class="edge">
<title>CLAS&#45;CX_ROOT&#45;&gt;DTEL&#45;SOTR_CONC</title>
<path fill="none" stroke="black" d="M418.81,-151.57C479.63,-141.9 576.27,-126.01 669.14,-108.18"/>
<polygon fill="black" stroke="black" points="669.82,-111.61 678.98,-106.28 668.5,-104.74 669.82,-111.61"/>
</g>
<!-- DOMA&#45;PROGRAMM -->
<g id="node11" class="node">
<title>DOMA&#45;PROGRAMM</title>
<g id="a_node11"><a xlink:href="./DOMA_PROGRAMM.html" xlink:title="DOMA&#45;PROGRAMM">
<polygon fill="none" stroke="yellow" points="275.86,-36 130.68,-36 130.68,0 275.86,0 275.86,-36"/>
<text text-anchor="middle" x="203.27" y="-13.8" font-family="Times,serif" font-size="14.00">DOMA&#45;PROGRAMM</text>
</a>
</g>
</g>
<!-- DTEL&#45;SYREPID&#45;&gt;DOMA&#45;PROGRAMM -->
<g id="edge21" class="edge">
<title>DTEL&#45;SYREPID&#45;&gt;DOMA&#45;PROGRAMM</title>
<path fill="none" stroke="black" d="M210.04,-71.7C209.05,-63.98 207.86,-54.71 206.75,-46.11"/>
<polygon fill="black" stroke="black" points="210.21,-45.58 205.47,-36.1 203.27,-46.47 210.21,-45.58"/>
</g>
<!-- DOMA&#45;SYCHAR30 -->
<g id="node13" class="node">
<title>DOMA&#45;SYCHAR30</title>
<g id="a_node13"><a xlink:href="./DOMA_SYCHAR30.html" xlink:title="DOMA&#45;SYCHAR30">
<polygon fill="none" stroke="yellow" points="428.47,-36 294.07,-36 294.07,0 428.47,0 428.47,-36"/>
<text text-anchor="middle" x="361.27" y="-13.8" font-family="Times,serif" font-size="14.00">DOMA&#45;SYCHAR30</text>
</a>
</g>
</g>
<!-- DTEL&#45;S380ERRID&#45;&gt;DOMA&#45;SYCHAR30 -->
<g id="edge22" class="edge">
<title>DTEL&#45;S380ERRID&#45;&gt;DOMA&#45;SYCHAR30</title>
<path fill="none" stroke="black" d="M353.74,-71.7C354.84,-63.98 356.17,-54.71 357.39,-46.11"/>
<polygon fill="black" stroke="black" points="360.87,-46.5 358.82,-36.1 353.94,-45.51 360.87,-46.5"/>
</g>
<!-- DOMA&#45;SYSUUID_C -->
<g id="node15" class="node">
<title>DOMA&#45;SYSUUID_C</title>
<g id="a_node15"><a xlink:href="./DOMA_SYSUUID_C.html" xlink:title="DOMA&#45;SYSUUID_C">
<polygon fill="none" stroke="yellow" points="818.68,-36 677.85,-36 677.85,0 818.68,0 818.68,-36"/>
<text text-anchor="middle" x="748.27" y="-13.8" font-family="Times,serif" font-size="14.00">DOMA&#45;SYSUUID_C</text>
</a>
</g>
</g>
<!-- DTEL&#45;SOTR_CONC&#45;&gt;DOMA&#45;SYSUUID_C -->
<g id="edge23" class="edge">
<title>DTEL&#45;SOTR_CONC&#45;&gt;DOMA&#45;SYSUUID_C</title>
<path fill="none" stroke="black" d="M748.27,-71.7C748.27,-63.98 748.27,-54.71 748.27,-46.11"/>
<polygon fill="black" stroke="black" points="751.77,-46.1 748.27,-36.1 744.77,-46.1 751.77,-46.1"/>
</g>
</g>
</svg>
