<?xml version="1.0" encoding="UTF-8" standalone="no"?>
<!DOCTYPE svg PUBLIC "-//W3C//DTD SVG 1.1//EN"
 "http://www.w3.org/Graphics/SVG/1.1/DTD/svg11.dtd">
<!-- Generated by graphviz version 2.47.3 (20210619.1520)
 -->
<!-- Title: G Pages: 1 -->
<svg width="1504pt" height="404pt"
 viewBox="0.00 0.00 1503.85 404.00" xmlns="http://www.w3.org/2000/svg" xmlns:xlink="http://www.w3.org/1999/xlink">
<g id="graph0" class="graph" transform="scale(1 1) rotate(0) translate(4 400)">
<title>G</title>
<polygon fill="white" stroke="transparent" points="-4,4 -4,-400 1499.85,-400 1499.85,4 -4,4"/>
<!-- CLAS&#45;CX_BLE_EXCEPTION -->
<g id="node1" class="node">
<title>CLAS&#45;CX_BLE_EXCEPTION</title>
<polygon fill="none" stroke="yellow" points="616.79,-396 422.63,-396 422.63,-360 616.79,-360 616.79,-396"/>
<text text-anchor="middle" x="519.71" y="-373.8" font-family="Times,serif" font-size="14.00">CLAS&#45;CX_BLE_EXCEPTION</text>
</g>
<!-- INTF&#45;IF_T100_DYN_MSG -->
<g id="node2" class="node">
<title>INTF&#45;IF_T100_DYN_MSG</title>
<g id="a_node2"><a xlink:href="./INTF_IF_T100_DYN_MSG.html" xlink:title="INTF&#45;IF_T100_DYN_MSG">
<polygon fill="none" stroke="green" points="607.62,-324 431.79,-324 431.79,-288 607.62,-288 607.62,-324"/>
<text text-anchor="middle" x="519.71" y="-301.8" font-family="Times,serif" font-size="14.00">INTF&#45;IF_T100_DYN_MSG</text>
</a>
</g>
</g>
<!-- CLAS&#45;CX_BLE_EXCEPTION&#45;&gt;INTF&#45;IF_T100_DYN_MSG -->
<g id="edge3" class="edge">
<title>CLAS&#45;CX_BLE_EXCEPTION&#45;&gt;INTF&#45;IF_T100_DYN_MSG</title>
<path fill="none" stroke="black" d="M519.71,-359.7C519.71,-351.98 519.71,-342.71 519.71,-334.11"/>
<polygon fill="black" stroke="black" points="523.21,-334.1 519.71,-324.1 516.21,-334.1 523.21,-334.1"/>
</g>
<!-- INTF&#45;IF_T100_MESSAGE -->
<g id="node3" class="node">
<title>INTF&#45;IF_T100_MESSAGE</title>
<g id="a_node3"><a xlink:href="./INTF_IF_T100_MESSAGE.html" xlink:title="INTF&#45;IF_T100_MESSAGE">
<polygon fill="none" stroke="green" points="434.29,-252 261.12,-252 261.12,-216 434.29,-216 434.29,-252"/>
<text text-anchor="middle" x="347.71" y="-229.8" font-family="Times,serif" font-size="14.00">INTF&#45;IF_T100_MESSAGE</text>
</a>
</g>
</g>
<!-- CLAS&#45;CX_BLE_EXCEPTION&#45;&gt;INTF&#45;IF_T100_MESSAGE -->
<g id="edge2" class="edge">
<title>CLAS&#45;CX_BLE_EXCEPTION&#45;&gt;INTF&#45;IF_T100_MESSAGE</title>
<path fill="none" stroke="black" d="M480.82,-359.89C462.22,-350.71 440.24,-338.33 422.71,-324 400.05,-305.48 379.03,-279.43 365.04,-260.3"/>
<polygon fill="black" stroke="black" points="367.8,-258.14 359.13,-252.05 362.11,-262.21 367.8,-258.14"/>
</g>
<!-- CLAS&#45;CX_STATIC_CHECK -->
<g id="node15" class="node">
<title>CLAS&#45;CX_STATIC_CHECK</title>
<g id="a_node15"><a xlink:href="./CLAS_CX_STATIC_CHECK.html" xlink:title="CLAS&#45;CX_STATIC_CHECK">
<polygon fill="none" stroke="green" points="915.02,-324 728.39,-324 728.39,-288 915.02,-288 915.02,-324"/>
<text text-anchor="middle" x="821.71" y="-301.8" font-family="Times,serif" font-size="14.00">CLAS&#45;CX_STATIC_CHECK</text>
</a>
</g>
</g>
<!-- CLAS&#45;CX_BLE_EXCEPTION&#45;&gt;CLAS&#45;CX_STATIC_CHECK -->
<g id="edge1" class="edge">
<title>CLAS&#45;CX_BLE_EXCEPTION&#45;&gt;CLAS&#45;CX_STATIC_CHECK</title>
<path fill="none" stroke="black" d="M593.2,-359.97C637.04,-349.8 692.83,-336.87 738.31,-326.33"/>
<polygon fill="black" stroke="black" points="739.2,-329.72 748.15,-324.05 737.62,-322.9 739.2,-329.72"/>
</g>
<!-- INTF&#45;IF_T100_DYN_MSG&#45;&gt;INTF&#45;IF_T100_MESSAGE -->
<g id="edge7" class="edge">
<title>INTF&#45;IF_T100_DYN_MSG&#45;&gt;INTF&#45;IF_T100_MESSAGE</title>
<path fill="none" stroke="black" d="M477.63,-287.88C453.91,-278.22 424.09,-266.09 399.01,-255.88"/>
<polygon fill="black" stroke="black" points="400.23,-252.6 389.65,-252.07 397.59,-259.08 400.23,-252.6"/>
</g>
<!-- INTF&#45;IF_MESSAGE -->
<g id="node4" class="node">
<title>INTF&#45;IF_MESSAGE</title>
<g id="a_node4"><a xlink:href="./INTF_IF_MESSAGE.html" xlink:title="INTF&#45;IF_MESSAGE">
<polygon fill="none" stroke="green" points="511.74,-180 375.67,-180 375.67,-144 511.74,-144 511.74,-180"/>
<text text-anchor="middle" x="443.71" y="-157.8" font-family="Times,serif" font-size="14.00">INTF&#45;IF_MESSAGE</text>
</a>
</g>
</g>
<!-- INTF&#45;IF_T100_DYN_MSG&#45;&gt;INTF&#45;IF_MESSAGE -->
<g id="edge6" class="edge">
<title>INTF&#45;IF_T100_DYN_MSG&#45;&gt;INTF&#45;IF_MESSAGE</title>
<path fill="none" stroke="black" d="M510.54,-287.87C497.42,-263.35 473.16,-218.03 457.76,-189.26"/>
<polygon fill="black" stroke="black" points="460.71,-187.35 452.91,-180.19 454.54,-190.66 460.71,-187.35"/>
</g>
<!-- DTEL&#45;SYMSGTY -->
<g id="node11" class="node">
<title>DTEL&#45;SYMSGTY</title>
<g id="a_node11"><a xlink:href="./DTEL_SYMSGTY.html" xlink:title="DTEL&#45;SYMSGTY">
<polygon fill="none" stroke="green" points="637.52,-252 513.9,-252 513.9,-216 637.52,-216 637.52,-252"/>
<text text-anchor="middle" x="575.71" y="-229.8" font-family="Times,serif" font-size="14.00">DTEL&#45;SYMSGTY</text>
</a>
</g>
</g>
<!-- INTF&#45;IF_T100_DYN_MSG&#45;&gt;DTEL&#45;SYMSGTY -->
<g id="edge5" class="edge">
<title>INTF&#45;IF_T100_DYN_MSG&#45;&gt;DTEL&#45;SYMSGTY</title>
<path fill="none" stroke="black" d="M533.55,-287.7C540.2,-279.39 548.29,-269.28 555.6,-260.14"/>
<polygon fill="black" stroke="black" points="558.51,-262.1 562.02,-252.1 553.04,-257.73 558.51,-262.1"/>
</g>
<!-- DTEL&#45;SYMSGV -->
<g id="node13" class="node">
<title>DTEL&#45;SYMSGV</title>
<g id="a_node13"><a xlink:href="./DTEL_SYMSGV.html" xlink:title="DTEL&#45;SYMSGV">
<polygon fill="none" stroke="green" points="787.96,-252 673.45,-252 673.45,-216 787.96,-216 787.96,-252"/>
<text text-anchor="middle" x="730.71" y="-229.8" font-family="Times,serif" font-size="14.00">DTEL&#45;SYMSGV</text>
</a>
</g>
</g>
<!-- INTF&#45;IF_T100_DYN_MSG&#45;&gt;DTEL&#45;SYMSGV -->
<g id="edge4" class="edge">
<title>INTF&#45;IF_T100_DYN_MSG&#45;&gt;DTEL&#45;SYMSGV</title>
<path fill="none" stroke="black" d="M571.05,-287.97C600.66,-278.14 638.08,-265.73 669.25,-255.39"/>
<polygon fill="black" stroke="black" points="670.74,-258.58 679.13,-252.11 668.54,-251.94 670.74,-258.58"/>
</g>
<!-- INTF&#45;IF_T100_MESSAGE&#45;&gt;INTF&#45;IF_MESSAGE -->
<g id="edge12" class="edge">
<title>INTF&#45;IF_T100_MESSAGE&#45;&gt;INTF&#45;IF_MESSAGE</title>
<path fill="none" stroke="black" d="M371.44,-215.7C383.64,-206.8 398.69,-195.82 411.89,-186.2"/>
<polygon fill="black" stroke="black" points="414.23,-188.82 420.25,-180.1 410.11,-183.17 414.23,-188.82"/>
</g>
<!-- TABL&#45;SCX_T100KEY -->
<g id="node5" class="node">
<title>TABL&#45;SCX_T100KEY</title>
<g id="a_node5"><a xlink:href="./TABL_SCX_T100KEY.html" xlink:title="TABL&#45;SCX_T100KEY">
<polygon fill="none" stroke="yellow" points="281.46,-180 131.95,-180 131.95,-144 281.46,-144 281.46,-180"/>
<text text-anchor="middle" x="206.71" y="-157.8" font-family="Times,serif" font-size="14.00">TABL&#45;SCX_T100KEY</text>
</a>
</g>
</g>
<!-- INTF&#45;IF_T100_MESSAGE&#45;&gt;TABL&#45;SCX_T100KEY -->
<g id="edge11" class="edge">
<title>INTF&#45;IF_T100_MESSAGE&#45;&gt;TABL&#45;SCX_T100KEY</title>
<path fill="none" stroke="black" d="M313.22,-215.88C294.27,-206.47 270.58,-194.71 250.35,-184.67"/>
<polygon fill="black" stroke="black" points="251.85,-181.5 241.33,-180.19 248.73,-187.77 251.85,-181.5"/>
</g>
<!-- DTEL&#45;SCX_ATTRNAME -->
<g id="node6" class="node">
<title>DTEL&#45;SCX_ATTRNAME</title>
<g id="a_node6"><a xlink:href="./DTEL_SCX_ATTRNAME.html" xlink:title="DTEL&#45;SCX_ATTRNAME">
<polygon fill="none" stroke="green" points="306.12,-108 137.3,-108 137.3,-72 306.12,-72 306.12,-108"/>
<text text-anchor="middle" x="221.71" y="-85.8" font-family="Times,serif" font-size="14.00">DTEL&#45;SCX_ATTRNAME</text>
</a>
</g>
</g>
<!-- INTF&#45;IF_T100_MESSAGE&#45;&gt;DTEL&#45;SCX_ATTRNAME -->
<g id="edge10" class="edge">
<title>INTF&#45;IF_T100_MESSAGE&#45;&gt;DTEL&#45;SCX_ATTRNAME</title>
<path fill="none" stroke="black" d="M338.98,-215.71C328.94,-196.83 311.18,-166.3 290.71,-144 280.68,-133.08 268.19,-122.74 256.61,-114.14"/>
<polygon fill="black" stroke="black" points="258.54,-111.22 248.39,-108.2 254.45,-116.89 258.54,-111.22"/>
</g>
<!-- DTEL&#45;SYMSGNO -->
<g id="node7" class="node">
<title>DTEL&#45;SYMSGNO</title>
<g id="a_node7"><a xlink:href="./DTEL_SYMSGNO.html" xlink:title="DTEL&#45;SYMSGNO">
<polygon fill="none" stroke="green" points="449.07,-108 324.35,-108 324.35,-72 449.07,-72 449.07,-108"/>
<text text-anchor="middle" x="386.71" y="-85.8" font-family="Times,serif" font-size="14.00">DTEL&#45;SYMSGNO</text>
</a>
</g>
</g>
<!-- INTF&#45;IF_T100_MESSAGE&#45;&gt;DTEL&#45;SYMSGNO -->
<g id="edge9" class="edge">
<title>INTF&#45;IF_T100_MESSAGE&#45;&gt;DTEL&#45;SYMSGNO</title>
<path fill="none" stroke="black" d="M350.59,-215.75C353.8,-197.68 359.5,-168.56 366.71,-144 369.23,-135.41 372.48,-126.23 375.63,-117.97"/>
<polygon fill="black" stroke="black" points="378.98,-119.03 379.37,-108.44 372.46,-116.48 378.98,-119.03"/>
</g>
<!-- DTEL&#45;SYMSGID -->
<g id="node9" class="node">
<title>DTEL&#45;SYMSGID</title>
<g id="a_node9"><a xlink:href="./DTEL_SYMSGID.html" xlink:title="DTEL&#45;SYMSGID">
<polygon fill="none" stroke="green" points="119.62,-108 -0.21,-108 -0.21,-72 119.62,-72 119.62,-108"/>
<text text-anchor="middle" x="59.71" y="-85.8" font-family="Times,serif" font-size="14.00">DTEL&#45;SYMSGID</text>
</a>
</g>
</g>
<!-- INTF&#45;IF_T100_MESSAGE&#45;&gt;DTEL&#45;SYMSGID -->
<g id="edge8" class="edge">
<title>INTF&#45;IF_T100_MESSAGE&#45;&gt;DTEL&#45;SYMSGID</title>
<path fill="none" stroke="black" d="M260.95,-227.17C216.53,-220.74 163.39,-207.42 122.71,-180 99.67,-164.47 82.34,-137.5 71.75,-117.31"/>
<polygon fill="black" stroke="black" points="74.84,-115.66 67.23,-108.29 68.58,-118.8 74.84,-115.66"/>
</g>
<!-- TABL&#45;SCX_T100KEY&#45;&gt;DTEL&#45;SCX_ATTRNAME -->
<g id="edge15" class="edge">
<title>TABL&#45;SCX_T100KEY&#45;&gt;DTEL&#45;SCX_ATTRNAME</title>
<path fill="none" stroke="black" d="M210.42,-143.7C212.07,-135.98 214.05,-126.71 215.9,-118.11"/>
<polygon fill="black" stroke="black" points="219.37,-118.62 218.04,-108.1 212.52,-117.15 219.37,-118.62"/>
</g>
<!-- TABL&#45;SCX_T100KEY&#45;&gt;DTEL&#45;SYMSGNO -->
<g id="edge14" class="edge">
<title>TABL&#45;SCX_T100KEY&#45;&gt;DTEL&#45;SYMSGNO</title>
<path fill="none" stroke="black" d="M250.74,-143.88C275.68,-134.18 307.05,-121.98 333.37,-111.74"/>
<polygon fill="black" stroke="black" points="334.77,-114.95 342.82,-108.07 332.23,-108.43 334.77,-114.95"/>
</g>
<!-- TABL&#45;SCX_T100KEY&#45;&gt;DTEL&#45;SYMSGID -->
<g id="edge13" class="edge">
<title>TABL&#45;SCX_T100KEY&#45;&gt;DTEL&#45;SYMSGID</title>
<path fill="none" stroke="black" d="M170.75,-143.88C150.83,-134.39 125.89,-122.51 104.69,-112.42"/>
<polygon fill="black" stroke="black" points="106.08,-109.21 95.55,-108.07 103.07,-115.53 106.08,-109.21"/>
</g>
<!-- DOMA&#45;SYMSGNO -->
<g id="node8" class="node">
<title>DOMA&#45;SYMSGNO</title>
<g id="a_node8"><a xlink:href="./DOMA_SYMSGNO.html" xlink:title="DOMA&#45;SYMSGNO">
<polygon fill="none" stroke="yellow" points="452.57,-36 320.85,-36 320.85,0 452.57,0 452.57,-36"/>
<text text-anchor="middle" x="386.71" y="-13.8" font-family="Times,serif" font-size="14.00">DOMA&#45;SYMSGNO</text>
</a>
</g>
</g>
<!-- DTEL&#45;SYMSGNO&#45;&gt;DOMA&#45;SYMSGNO -->
<g id="edge16" class="edge">
<title>DTEL&#45;SYMSGNO&#45;&gt;DOMA&#45;SYMSGNO</title>
<path fill="none" stroke="black" d="M386.71,-71.7C386.71,-63.98 386.71,-54.71 386.71,-46.11"/>
<polygon fill="black" stroke="black" points="390.21,-46.1 386.71,-36.1 383.21,-46.1 390.21,-46.1"/>
</g>
<!-- DOMA&#45;ARBGB -->
<g id="node10" class="node">
<title>DOMA&#45;ARBGB</title>
<g id="a_node10"><a xlink:href="./DOMA_ARBGB.html" xlink:title="DOMA&#45;ARBGB">
<polygon fill="none" stroke="yellow" points="115.36,-36 4.06,-36 4.06,0 115.36,0 115.36,-36"/>
<text text-anchor="middle" x="59.71" y="-13.8" font-family="Times,serif" font-size="14.00">DOMA&#45;ARBGB</text>
</a>
</g>
</g>
<!-- DTEL&#45;SYMSGID&#45;&gt;DOMA&#45;ARBGB -->
<g id="edge17" class="edge">
<title>DTEL&#45;SYMSGID&#45;&gt;DOMA&#45;ARBGB</title>
<path fill="none" stroke="black" d="M59.71,-71.7C59.71,-63.98 59.71,-54.71 59.71,-46.11"/>
<polygon fill="black" stroke="black" points="63.21,-46.1 59.71,-36.1 56.21,-46.1 63.21,-46.1"/>
</g>
<!-- DOMA&#45;SYCHAR01 -->
<g id="node12" class="node">
<title>DOMA&#45;SYCHAR01</title>
<g id="a_node12"><a xlink:href="./DOMA_SYCHAR01.html" xlink:title="DOMA&#45;SYCHAR01">
<polygon fill="none" stroke="yellow" points="663.91,-180 529.51,-180 529.51,-144 663.91,-144 663.91,-180"/>
<text text-anchor="middle" x="596.71" y="-157.8" font-family="Times,serif" font-size="14.00">DOMA&#45;SYCHAR01</text>
</a>
</g>
</g>
<!-- DTEL&#45;SYMSGTY&#45;&gt;DOMA&#45;SYCHAR01 -->
<g id="edge18" class="edge">
<title>DTEL&#45;SYMSGTY&#45;&gt;DOMA&#45;SYCHAR01</title>
<path fill="none" stroke="black" d="M580.9,-215.7C583.24,-207.9 586.06,-198.51 588.66,-189.83"/>
<polygon fill="black" stroke="black" points="592.06,-190.69 591.58,-180.1 585.35,-188.68 592.06,-190.69"/>
</g>
<!-- DOMA&#45;SYCHAR50 -->
<g id="node14" class="node">
<title>DOMA&#45;SYCHAR50</title>
<g id="a_node14"><a xlink:href="./DOMA_SYCHAR50.html" xlink:title="DOMA&#45;SYCHAR50">
<polygon fill="none" stroke="yellow" points="815.91,-180 681.51,-180 681.51,-144 815.91,-144 815.91,-180"/>
<text text-anchor="middle" x="748.71" y="-157.8" font-family="Times,serif" font-size="14.00">DOMA&#45;SYCHAR50</text>
</a>
</g>
</g>
<!-- DTEL&#45;SYMSGV&#45;&gt;DOMA&#45;SYCHAR50 -->
<g id="edge19" class="edge">
<title>DTEL&#45;SYMSGV&#45;&gt;DOMA&#45;SYCHAR50</title>
<path fill="none" stroke="black" d="M735.16,-215.7C737.16,-207.9 739.58,-198.51 741.81,-189.83"/>
<polygon fill="black" stroke="black" points="745.21,-190.66 744.31,-180.1 738.43,-188.92 745.21,-190.66"/>
</g>
<!-- CLAS&#45;CX_ROOT -->
<g id="node16" class="node">
<title>CLAS&#45;CX_ROOT</title>
<g id="a_node16"><a xlink:href="./CLAS_CX_ROOT.html" xlink:title="CLAS&#45;CX_ROOT">
<polygon fill="none" stroke="green" points="1020.19,-252 899.22,-252 899.22,-216 1020.19,-216 1020.19,-252"/>
<text text-anchor="middle" x="959.71" y="-229.8" font-family="Times,serif" font-size="14.00">CLAS&#45;CX_ROOT</text>
</a>
</g>
</g>
<!-- CLAS&#45;CX_STATIC_CHECK&#45;&gt;CLAS&#45;CX_ROOT -->
<g id="edge20" class="edge">
<title>CLAS&#45;CX_STATIC_CHECK&#45;&gt;CLAS&#45;CX_ROOT</title>
<path fill="none" stroke="black" d="M855.47,-287.88C873.93,-278.51 896.99,-266.81 916.72,-256.8"/>
<polygon fill="black" stroke="black" points="918.48,-259.83 925.82,-252.19 915.32,-253.59 918.48,-259.83"/>
</g>
<!-- CLAS&#45;CX_ROOT&#45;&gt;INTF&#45;IF_MESSAGE -->
<g id="edge24" class="edge">
<title>CLAS&#45;CX_ROOT&#45;&gt;INTF&#45;IF_MESSAGE</title>
<path fill="none" stroke="black" d="M899.12,-226.42C800.35,-215.58 607.84,-193.93 522,-180.1"/>
<polygon fill="black" stroke="black" points="522.51,-176.64 512.07,-178.46 521.37,-183.54 522.51,-176.64"/>
</g>
<!-- INTF&#45;IF_SERIALIZABLE_OBJECT -->
<g id="node17" class="node">
<title>INTF&#45;IF_SERIALIZABLE_OBJECT</title>
<g id="a_node17"><a xlink:href="./INTF_IF_SERIALIZABLE_OBJECT.html" xlink:title="INTF&#45;IF_SERIALIZABLE_OBJECT">
<polygon fill="none" stroke="green" points="1496,-180 1267.42,-180 1267.42,-144 1496,-144 1496,-180"/>
<text text-anchor="middle" x="1381.71" y="-157.8" font-family="Times,serif" font-size="14.00">INTF&#45;IF_SERIALIZABLE_OBJECT</text>
</a>
</g>
</g>
<!-- CLAS&#45;CX_ROOT&#45;&gt;INTF&#45;IF_SERIALIZABLE_OBJECT -->
<g id="edge25" class="edge">
<title>CLAS&#45;CX_ROOT&#45;&gt;INTF&#45;IF_SERIALIZABLE_OBJECT</title>
<path fill="none" stroke="black" d="M1020.62,-222.9C1085.41,-212.15 1189.35,-194.91 1269.11,-181.68"/>
<polygon fill="black" stroke="black" points="1269.92,-185.09 1279.21,-180 1268.77,-178.19 1269.92,-185.09"/>
</g>
<!-- DTEL&#45;SYREPID -->
<g id="node18" class="node">
<title>DTEL&#45;SYREPID</title>
<g id="a_node18"><a xlink:href="./DTEL_SYREPID.html" xlink:title="DTEL&#45;SYREPID">
<polygon fill="none" stroke="green" points="947.96,-180 833.45,-180 833.45,-144 947.96,-144 947.96,-180"/>
<text text-anchor="middle" x="890.71" y="-157.8" font-family="Times,serif" font-size="14.00">DTEL&#45;SYREPID</text>
</a>
</g>
</g>
<!-- CLAS&#45;CX_ROOT&#45;&gt;DTEL&#45;SYREPID -->
<g id="edge23" class="edge">
<title>CLAS&#45;CX_ROOT&#45;&gt;DTEL&#45;SYREPID</title>
<path fill="none" stroke="black" d="M942.65,-215.7C934.21,-207.14 923.88,-196.66 914.66,-187.3"/>
<polygon fill="black" stroke="black" points="917.08,-184.77 907.57,-180.1 912.1,-189.68 917.08,-184.77"/>
</g>
<!-- DTEL&#45;S380ERRID -->
<g id="node20" class="node">
<title>DTEL&#45;S380ERRID</title>
<g id="a_node20"><a xlink:href="./DTEL_S380ERRID.html" xlink:title="DTEL&#45;S380ERRID">
<polygon fill="none" stroke="yellow" points="1093.41,-180 966.01,-180 966.01,-144 1093.41,-144 1093.41,-180"/>
<text text-anchor="middle" x="1029.71" y="-157.8" font-family="Times,serif" font-size="14.00">DTEL&#45;S380ERRID</text>
</a>
</g>
</g>
<!-- CLAS&#45;CX_ROOT&#45;&gt;DTEL&#45;S380ERRID -->
<g id="edge22" class="edge">
<title>CLAS&#45;CX_ROOT&#45;&gt;DTEL&#45;S380ERRID</title>
<path fill="none" stroke="black" d="M977.01,-215.7C985.57,-207.14 996.05,-196.66 1005.4,-187.3"/>
<polygon fill="black" stroke="black" points="1008.01,-189.65 1012.6,-180.1 1003.06,-184.7 1008.01,-189.65"/>
</g>
<!-- DTEL&#45;SOTR_CONC -->
<g id="node22" class="node">
<title>DTEL&#45;SOTR_CONC</title>
<g id="a_node22"><a xlink:href="./DTEL_SOTR_CONC.html" xlink:title="DTEL&#45;SOTR_CONC">
<polygon fill="none" stroke="yellow" points="1249.8,-180 1111.62,-180 1111.62,-144 1249.8,-144 1249.8,-180"/>
<text text-anchor="middle" x="1180.71" y="-157.8" font-family="Times,serif" font-size="14.00">DTEL&#45;SOTR_CONC</text>
</a>
</g>
</g>
<!-- CLAS&#45;CX_ROOT&#45;&gt;DTEL&#45;SOTR_CONC -->
<g id="edge21" class="edge">
<title>CLAS&#45;CX_ROOT&#45;&gt;DTEL&#45;SOTR_CONC</title>
<path fill="none" stroke="black" d="M1013.49,-215.97C1044.63,-206.1 1084.03,-193.62 1116.76,-183.25"/>
<polygon fill="black" stroke="black" points="1118.21,-186.47 1126.69,-180.11 1116.1,-179.79 1118.21,-186.47"/>
</g>
<!-- DOMA&#45;PROGRAMM -->
<g id="node19" class="node">
<title>DOMA&#45;PROGRAMM</title>
<g id="a_node19"><a xlink:href="./DOMA_PROGRAMM.html" xlink:title="DOMA&#45;PROGRAMM">
<polygon fill="none" stroke="yellow" points="944.3,-108 799.12,-108 799.12,-72 944.3,-72 944.3,-108"/>
<text text-anchor="middle" x="871.71" y="-85.8" font-family="Times,serif" font-size="14.00">DOMA&#45;PROGRAMM</text>
</a>
</g>
</g>
<!-- DTEL&#45;SYREPID&#45;&gt;DOMA&#45;PROGRAMM -->
<g id="edge26" class="edge">
<title>DTEL&#45;SYREPID&#45;&gt;DOMA&#45;PROGRAMM</title>
<path fill="none" stroke="black" d="M886.01,-143.7C883.89,-135.9 881.35,-126.51 878.99,-117.83"/>
<polygon fill="black" stroke="black" points="882.35,-116.84 876.35,-108.1 875.59,-118.67 882.35,-116.84"/>
</g>
<!-- DOMA&#45;SYCHAR30 -->
<g id="node21" class="node">
<title>DOMA&#45;SYCHAR30</title>
<g id="a_node21"><a xlink:href="./DOMA_SYCHAR30.html" xlink:title="DOMA&#45;SYCHAR30">
<polygon fill="none" stroke="yellow" points="1096.91,-108 962.51,-108 962.51,-72 1096.91,-72 1096.91,-108"/>
<text text-anchor="middle" x="1029.71" y="-85.8" font-family="Times,serif" font-size="14.00">DOMA&#45;SYCHAR30</text>
</a>
</g>
</g>
<!-- DTEL&#45;S380ERRID&#45;&gt;DOMA&#45;SYCHAR30 -->
<g id="edge27" class="edge">
<title>DTEL&#45;S380ERRID&#45;&gt;DOMA&#45;SYCHAR30</title>
<path fill="none" stroke="black" d="M1029.71,-143.7C1029.71,-135.98 1029.71,-126.71 1029.71,-118.11"/>
<polygon fill="black" stroke="black" points="1033.21,-118.1 1029.71,-108.1 1026.21,-118.1 1033.21,-118.1"/>
</g>
<!-- DOMA&#45;SYSUUID_C -->
<g id="node23" class="node">
<title>DOMA&#45;SYSUUID_C</title>
<g id="a_node23"><a xlink:href="./DOMA_SYSUUID_C.html" xlink:title="DOMA&#45;SYSUUID_C">
<polygon fill="none" stroke="yellow" points="1255.12,-108 1114.29,-108 1114.29,-72 1255.12,-72 1255.12,-108"/>
<text text-anchor="middle" x="1184.71" y="-85.8" font-family="Times,serif" font-size="14.00">DOMA&#45;SYSUUID_C</text>
</a>
</g>
</g>
<!-- DTEL&#45;SOTR_CONC&#45;&gt;DOMA&#45;SYSUUID_C -->
<g id="edge28" class="edge">
<title>DTEL&#45;SOTR_CONC&#45;&gt;DOMA&#45;SYSUUID_C</title>
<path fill="none" stroke="black" d="M1181.7,-143.7C1182.14,-135.98 1182.67,-126.71 1183.16,-118.11"/>
<polygon fill="black" stroke="black" points="1186.65,-118.29 1183.73,-108.1 1179.67,-117.89 1186.65,-118.29"/>
</g>
</g>
</svg>
