<?xml version="1.0" encoding="UTF-8" standalone="no"?>
<!DOCTYPE svg PUBLIC "-//W3C//DTD SVG 1.1//EN"
 "http://www.w3.org/Graphics/SVG/1.1/DTD/svg11.dtd">
<!-- Generated by graphviz version 2.47.3 (20210619.1520)
 -->
<!-- Title: G Pages: 1 -->
<svg width="1765pt" height="404pt"
 viewBox="0.00 0.00 1765.15 404.00" xmlns="http://www.w3.org/2000/svg" xmlns:xlink="http://www.w3.org/1999/xlink">
<g id="graph0" class="graph" transform="scale(1 1) rotate(0) translate(4 400)">
<title>G</title>
<polygon fill="white" stroke="transparent" points="-4,4 -4,-400 1761.15,-400 1761.15,4 -4,4"/>
<!-- CLAS&#45;CX_SWF_CPWF_API -->
<g id="node1" class="node">
<title>CLAS&#45;CX_SWF_CPWF_API</title>
<polygon fill="none" stroke="green" points="1357.43,-396 1170.77,-396 1170.77,-360 1357.43,-360 1357.43,-396"/>
<text text-anchor="middle" x="1264.1" y="-373.8" font-family="Times,serif" font-size="14.00">CLAS&#45;CX_SWF_CPWF_API</text>
</g>
<!-- INTF&#45;IF_T100_MESSAGE -->
<g id="node2" class="node">
<title>INTF&#45;IF_T100_MESSAGE</title>
<g id="a_node2"><a xlink:href="./INTF_IF_T100_MESSAGE.html" xlink:title="INTF&#45;IF_T100_MESSAGE">
<polygon fill="none" stroke="green" points="1350.69,-252 1177.51,-252 1177.51,-216 1350.69,-216 1350.69,-252"/>
<text text-anchor="middle" x="1264.1" y="-229.8" font-family="Times,serif" font-size="14.00">INTF&#45;IF_T100_MESSAGE</text>
</a>
</g>
</g>
<!-- CLAS&#45;CX_SWF_CPWF_API&#45;&gt;INTF&#45;IF_T100_MESSAGE -->
<g id="edge7" class="edge">
<title>CLAS&#45;CX_SWF_CPWF_API&#45;&gt;INTF&#45;IF_T100_MESSAGE</title>
<path fill="none" stroke="black" d="M1264.1,-359.87C1264.1,-335.67 1264.1,-291.21 1264.1,-262.39"/>
<polygon fill="black" stroke="black" points="1267.6,-262.19 1264.1,-252.19 1260.6,-262.19 1267.6,-262.19"/>
</g>
<!-- DTEL&#45;SCX_ATTRNAME -->
<g id="node5" class="node">
<title>DTEL&#45;SCX_ATTRNAME</title>
<g id="a_node5"><a xlink:href="./DTEL_SCX_ATTRNAME.html" xlink:title="DTEL&#45;SCX_ATTRNAME">
<polygon fill="none" stroke="green" points="1412.51,-108 1243.69,-108 1243.69,-72 1412.51,-72 1412.51,-108"/>
<text text-anchor="middle" x="1328.1" y="-85.8" font-family="Times,serif" font-size="14.00">DTEL&#45;SCX_ATTRNAME</text>
</a>
</g>
</g>
<!-- CLAS&#45;CX_SWF_CPWF_API&#45;&gt;DTEL&#45;SCX_ATTRNAME -->
<g id="edge3" class="edge">
<title>CLAS&#45;CX_SWF_CPWF_API&#45;&gt;DTEL&#45;SCX_ATTRNAME</title>
<path fill="none" stroke="black" d="M1283.55,-359.89C1317.68,-328.39 1387.09,-257.34 1412.1,-180 1417.02,-164.78 1419.83,-158.01 1412.1,-144 1405,-131.12 1393.3,-120.94 1380.86,-113.08"/>
<polygon fill="black" stroke="black" points="1382.57,-110.03 1372.17,-108.02 1379.05,-116.08 1382.57,-110.03"/>
</g>
<!-- DTEL&#45;SYMSGNO -->
<g id="node6" class="node">
<title>DTEL&#45;SYMSGNO</title>
<g id="a_node6"><a xlink:href="./DTEL_SYMSGNO.html" xlink:title="DTEL&#45;SYMSGNO">
<polygon fill="none" stroke="green" points="1225.46,-108 1100.74,-108 1100.74,-72 1225.46,-72 1225.46,-108"/>
<text text-anchor="middle" x="1163.1" y="-85.8" font-family="Times,serif" font-size="14.00">DTEL&#45;SYMSGNO</text>
</a>
</g>
</g>
<!-- CLAS&#45;CX_SWF_CPWF_API&#45;&gt;DTEL&#45;SYMSGNO -->
<g id="edge2" class="edge">
<title>CLAS&#45;CX_SWF_CPWF_API&#45;&gt;DTEL&#45;SYMSGNO</title>
<path fill="none" stroke="black" d="M1244.99,-359.77C1221.82,-337.51 1183.93,-296.32 1168.1,-252 1152.13,-207.28 1155.15,-151.05 1158.99,-118.26"/>
<polygon fill="black" stroke="black" points="1162.49,-118.45 1160.3,-108.08 1155.55,-117.56 1162.49,-118.45"/>
</g>
<!-- DTEL&#45;SYMSGID -->
<g id="node8" class="node">
<title>DTEL&#45;SYMSGID</title>
<g id="a_node8"><a xlink:href="./DTEL_SYMSGID.html" xlink:title="DTEL&#45;SYMSGID">
<polygon fill="none" stroke="green" points="1550.02,-108 1430.18,-108 1430.18,-72 1550.02,-72 1550.02,-108"/>
<text text-anchor="middle" x="1490.1" y="-85.8" font-family="Times,serif" font-size="14.00">DTEL&#45;SYMSGID</text>
</a>
</g>
</g>
<!-- CLAS&#45;CX_SWF_CPWF_API&#45;&gt;DTEL&#45;SYMSGID -->
<g id="edge1" class="edge">
<title>CLAS&#45;CX_SWF_CPWF_API&#45;&gt;DTEL&#45;SYMSGID</title>
<path fill="none" stroke="black" d="M1298.49,-359.92C1315.15,-350.66 1334.81,-338.21 1350.1,-324 1415.64,-263.09 1460.89,-164.61 1479.96,-117.61"/>
<polygon fill="black" stroke="black" points="1483.28,-118.72 1483.73,-108.13 1476.78,-116.13 1483.28,-118.72"/>
</g>
<!-- INTF&#45;IF_T100_DYN_MSG -->
<g id="node10" class="node">
<title>INTF&#45;IF_T100_DYN_MSG</title>
<g id="a_node10"><a xlink:href="./INTF_IF_T100_DYN_MSG.html" xlink:title="INTF&#45;IF_T100_DYN_MSG">
<polygon fill="none" stroke="green" points="917.01,-324 741.19,-324 741.19,-288 917.01,-288 917.01,-324"/>
<text text-anchor="middle" x="829.1" y="-301.8" font-family="Times,serif" font-size="14.00">INTF&#45;IF_T100_DYN_MSG</text>
</a>
</g>
</g>
<!-- CLAS&#45;CX_SWF_CPWF_API&#45;&gt;INTF&#45;IF_T100_DYN_MSG -->
<g id="edge6" class="edge">
<title>CLAS&#45;CX_SWF_CPWF_API&#45;&gt;INTF&#45;IF_T100_DYN_MSG</title>
<path fill="none" stroke="black" d="M1170.78,-362.83C1105.32,-352.78 1015.49,-338.77 926.82,-324.1"/>
<polygon fill="black" stroke="black" points="927.29,-320.64 916.86,-322.45 926.15,-327.54 927.29,-320.64"/>
</g>
<!-- CLAS&#45;CX_STATIC_CHECK -->
<g id="node15" class="node">
<title>CLAS&#45;CX_STATIC_CHECK</title>
<g id="a_node15"><a xlink:href="./CLAS_CX_STATIC_CHECK.html" xlink:title="CLAS&#45;CX_STATIC_CHECK">
<polygon fill="none" stroke="green" points="1121.41,-324 934.79,-324 934.79,-288 1121.41,-288 1121.41,-324"/>
<text text-anchor="middle" x="1028.1" y="-301.8" font-family="Times,serif" font-size="14.00">CLAS&#45;CX_STATIC_CHECK</text>
</a>
</g>
</g>
<!-- CLAS&#45;CX_SWF_CPWF_API&#45;&gt;CLAS&#45;CX_STATIC_CHECK -->
<g id="edge5" class="edge">
<title>CLAS&#45;CX_SWF_CPWF_API&#45;&gt;CLAS&#45;CX_STATIC_CHECK</title>
<path fill="none" stroke="black" d="M1206.67,-359.97C1173.12,-350.01 1130.61,-337.41 1095.49,-326.99"/>
<polygon fill="black" stroke="black" points="1096.37,-323.6 1085.79,-324.11 1094.38,-330.31 1096.37,-323.6"/>
</g>
<!-- DTEL&#45;SWF_CPWF_CONSUMER -->
<g id="node24" class="node">
<title>DTEL&#45;SWF_CPWF_CONSUMER</title>
<g id="a_node24"><a xlink:href="./DTEL_SWF_CPWF_CONSUMER.html" xlink:title="DTEL&#45;SWF_CPWF_CONSUMER">
<polygon fill="none" stroke="green" points="1751.69,-324 1536.51,-324 1536.51,-288 1751.69,-288 1751.69,-324"/>
<text text-anchor="middle" x="1644.1" y="-301.8" font-family="Times,serif" font-size="14.00">DTEL&#45;SWF_CPWF_CONSUMER</text>
</a>
</g>
</g>
<!-- CLAS&#45;CX_SWF_CPWF_API&#45;&gt;DTEL&#45;SWF_CPWF_CONSUMER -->
<g id="edge4" class="edge">
<title>CLAS&#45;CX_SWF_CPWF_API&#45;&gt;DTEL&#45;SWF_CPWF_CONSUMER</title>
<path fill="none" stroke="black" d="M1356.57,-359.97C1412.54,-349.66 1484,-336.49 1541.68,-325.87"/>
<polygon fill="black" stroke="black" points="1542.34,-329.3 1551.54,-324.05 1541.07,-322.42 1542.34,-329.3"/>
</g>
<!-- INTF&#45;IF_MESSAGE -->
<g id="node3" class="node">
<title>INTF&#45;IF_MESSAGE</title>
<g id="a_node3"><a xlink:href="./INTF_IF_MESSAGE.html" xlink:title="INTF&#45;IF_MESSAGE">
<polygon fill="none" stroke="green" points="1121.14,-180 985.07,-180 985.07,-144 1121.14,-144 1121.14,-180"/>
<text text-anchor="middle" x="1053.1" y="-157.8" font-family="Times,serif" font-size="14.00">INTF&#45;IF_MESSAGE</text>
</a>
</g>
</g>
<!-- INTF&#45;IF_T100_MESSAGE&#45;&gt;INTF&#45;IF_MESSAGE -->
<g id="edge12" class="edge">
<title>INTF&#45;IF_T100_MESSAGE&#45;&gt;INTF&#45;IF_MESSAGE</title>
<path fill="none" stroke="black" d="M1212.75,-215.97C1183.14,-206.14 1145.73,-193.73 1114.56,-183.39"/>
<polygon fill="black" stroke="black" points="1115.27,-179.94 1104.68,-180.11 1113.07,-186.58 1115.27,-179.94"/>
</g>
<!-- TABL&#45;SCX_T100KEY -->
<g id="node4" class="node">
<title>TABL&#45;SCX_T100KEY</title>
<g id="a_node4"><a xlink:href="./TABL_SCX_T100KEY.html" xlink:title="TABL&#45;SCX_T100KEY">
<polygon fill="none" stroke="yellow" points="1402.85,-180 1253.35,-180 1253.35,-144 1402.85,-144 1402.85,-180"/>
<text text-anchor="middle" x="1328.1" y="-157.8" font-family="Times,serif" font-size="14.00">TABL&#45;SCX_T100KEY</text>
</a>
</g>
</g>
<!-- INTF&#45;IF_T100_MESSAGE&#45;&gt;TABL&#45;SCX_T100KEY -->
<g id="edge11" class="edge">
<title>INTF&#45;IF_T100_MESSAGE&#45;&gt;TABL&#45;SCX_T100KEY</title>
<path fill="none" stroke="black" d="M1279.92,-215.7C1287.67,-207.22 1297.14,-196.86 1305.62,-187.58"/>
<polygon fill="black" stroke="black" points="1308.3,-189.85 1312.46,-180.1 1303.13,-185.12 1308.3,-189.85"/>
</g>
<!-- INTF&#45;IF_T100_MESSAGE&#45;&gt;DTEL&#45;SCX_ATTRNAME -->
<g id="edge10" class="edge">
<title>INTF&#45;IF_T100_MESSAGE&#45;&gt;DTEL&#45;SCX_ATTRNAME</title>
<path fill="none" stroke="black" d="M1253.53,-215.93C1243.44,-197.24 1231.48,-166.88 1244.1,-144 1251.2,-131.12 1262.9,-120.94 1275.34,-113.08"/>
<polygon fill="black" stroke="black" points="1277.15,-116.08 1284.03,-108.02 1273.63,-110.03 1277.15,-116.08"/>
</g>
<!-- INTF&#45;IF_T100_MESSAGE&#45;&gt;DTEL&#45;SYMSGNO -->
<g id="edge9" class="edge">
<title>INTF&#45;IF_T100_MESSAGE&#45;&gt;DTEL&#45;SYMSGNO</title>
<path fill="none" stroke="black" d="M1251.92,-215.87C1234.32,-191.14 1201.68,-145.24 1181.25,-116.51"/>
<polygon fill="black" stroke="black" points="1183.97,-114.31 1175.33,-108.19 1178.27,-118.37 1183.97,-114.31"/>
</g>
<!-- INTF&#45;IF_T100_MESSAGE&#45;&gt;DTEL&#45;SYMSGID -->
<g id="edge8" class="edge">
<title>INTF&#45;IF_T100_MESSAGE&#45;&gt;DTEL&#45;SYMSGID</title>
<path fill="none" stroke="black" d="M1334.23,-215.9C1360.09,-207.6 1388.75,-195.89 1412.1,-180 1437.11,-162.98 1459.15,-136.11 1473.36,-116.34"/>
<polygon fill="black" stroke="black" points="1476.27,-118.28 1479.14,-108.08 1470.54,-114.26 1476.27,-118.28"/>
</g>
<!-- TABL&#45;SCX_T100KEY&#45;&gt;DTEL&#45;SCX_ATTRNAME -->
<g id="edge15" class="edge">
<title>TABL&#45;SCX_T100KEY&#45;&gt;DTEL&#45;SCX_ATTRNAME</title>
<path fill="none" stroke="black" d="M1328.1,-143.7C1328.1,-135.98 1328.1,-126.71 1328.1,-118.11"/>
<polygon fill="black" stroke="black" points="1331.6,-118.1 1328.1,-108.1 1324.6,-118.1 1331.6,-118.1"/>
</g>
<!-- TABL&#45;SCX_T100KEY&#45;&gt;DTEL&#45;SYMSGNO -->
<g id="edge14" class="edge">
<title>TABL&#45;SCX_T100KEY&#45;&gt;DTEL&#45;SYMSGNO</title>
<path fill="none" stroke="black" d="M1287.74,-143.88C1265.08,-134.26 1236.63,-122.19 1212.63,-112.01"/>
<polygon fill="black" stroke="black" points="1213.91,-108.75 1203.33,-108.07 1211.17,-115.2 1213.91,-108.75"/>
</g>
<!-- TABL&#45;SCX_T100KEY&#45;&gt;DTEL&#45;SYMSGID -->
<g id="edge13" class="edge">
<title>TABL&#45;SCX_T100KEY&#45;&gt;DTEL&#45;SYMSGID</title>
<path fill="none" stroke="black" d="M1367.73,-143.88C1389.88,-134.31 1417.66,-122.3 1441.16,-112.15"/>
<polygon fill="black" stroke="black" points="1442.81,-115.25 1450.6,-108.07 1440.03,-108.82 1442.81,-115.25"/>
</g>
<!-- DOMA&#45;SYMSGNO -->
<g id="node7" class="node">
<title>DOMA&#45;SYMSGNO</title>
<g id="a_node7"><a xlink:href="./DOMA_SYMSGNO.html" xlink:title="DOMA&#45;SYMSGNO">
<polygon fill="none" stroke="yellow" points="1228.96,-36 1097.24,-36 1097.24,0 1228.96,0 1228.96,-36"/>
<text text-anchor="middle" x="1163.1" y="-13.8" font-family="Times,serif" font-size="14.00">DOMA&#45;SYMSGNO</text>
</a>
</g>
</g>
<!-- DTEL&#45;SYMSGNO&#45;&gt;DOMA&#45;SYMSGNO -->
<g id="edge16" class="edge">
<title>DTEL&#45;SYMSGNO&#45;&gt;DOMA&#45;SYMSGNO</title>
<path fill="none" stroke="black" d="M1163.1,-71.7C1163.1,-63.98 1163.1,-54.71 1163.1,-46.11"/>
<polygon fill="black" stroke="black" points="1166.6,-46.1 1163.1,-36.1 1159.6,-46.1 1166.6,-46.1"/>
</g>
<!-- DOMA&#45;ARBGB -->
<g id="node9" class="node">
<title>DOMA&#45;ARBGB</title>
<g id="a_node9"><a xlink:href="./DOMA_ARBGB.html" xlink:title="DOMA&#45;ARBGB">
<polygon fill="none" stroke="yellow" points="1545.75,-36 1434.45,-36 1434.45,0 1545.75,0 1545.75,-36"/>
<text text-anchor="middle" x="1490.1" y="-13.8" font-family="Times,serif" font-size="14.00">DOMA&#45;ARBGB</text>
</a>
</g>
</g>
<!-- DTEL&#45;SYMSGID&#45;&gt;DOMA&#45;ARBGB -->
<g id="edge17" class="edge">
<title>DTEL&#45;SYMSGID&#45;&gt;DOMA&#45;ARBGB</title>
<path fill="none" stroke="black" d="M1490.1,-71.7C1490.1,-63.98 1490.1,-54.71 1490.1,-46.11"/>
<polygon fill="black" stroke="black" points="1493.6,-46.1 1490.1,-36.1 1486.6,-46.1 1493.6,-46.1"/>
</g>
<!-- INTF&#45;IF_T100_DYN_MSG&#45;&gt;INTF&#45;IF_T100_MESSAGE -->
<g id="edge21" class="edge">
<title>INTF&#45;IF_T100_DYN_MSG&#45;&gt;INTF&#45;IF_T100_MESSAGE</title>
<path fill="none" stroke="black" d="M916.86,-289.55C919.98,-289.02 923.06,-288.5 926.1,-288 1007.33,-274.51 1099.71,-260.09 1167.33,-249.7"/>
<polygon fill="black" stroke="black" points="1168.19,-253.11 1177.55,-248.13 1167.13,-246.19 1168.19,-253.11"/>
</g>
<!-- INTF&#45;IF_T100_DYN_MSG&#45;&gt;INTF&#45;IF_MESSAGE -->
<g id="edge20" class="edge">
<title>INTF&#45;IF_T100_DYN_MSG&#45;&gt;INTF&#45;IF_MESSAGE</title>
<path fill="none" stroke="black" d="M856.12,-287.87C896.48,-262.28 972.57,-214.05 1017.45,-185.6"/>
<polygon fill="black" stroke="black" points="1019.41,-188.5 1025.98,-180.19 1015.66,-182.59 1019.41,-188.5"/>
</g>
<!-- DTEL&#45;SYMSGTY -->
<g id="node11" class="node">
<title>DTEL&#45;SYMSGTY</title>
<g id="a_node11"><a xlink:href="./DTEL_SYMSGTY.html" xlink:title="DTEL&#45;SYMSGTY">
<polygon fill="none" stroke="green" points="630.91,-252 507.29,-252 507.29,-216 630.91,-216 630.91,-252"/>
<text text-anchor="middle" x="569.1" y="-229.8" font-family="Times,serif" font-size="14.00">DTEL&#45;SYMSGTY</text>
</a>
</g>
</g>
<!-- INTF&#45;IF_T100_DYN_MSG&#45;&gt;DTEL&#45;SYMSGTY -->
<g id="edge19" class="edge">
<title>INTF&#45;IF_T100_DYN_MSG&#45;&gt;DTEL&#45;SYMSGTY</title>
<path fill="none" stroke="black" d="M765.83,-287.97C728,-277.78 679.83,-264.81 640.62,-254.26"/>
<polygon fill="black" stroke="black" points="641.42,-250.85 630.86,-251.63 639.6,-257.61 641.42,-250.85"/>
</g>
<!-- DTEL&#45;SYMSGV -->
<g id="node13" class="node">
<title>DTEL&#45;SYMSGV</title>
<g id="a_node13"><a xlink:href="./DTEL_SYMSGV.html" xlink:title="DTEL&#45;SYMSGV">
<polygon fill="none" stroke="green" points="279.36,-252 164.85,-252 164.85,-216 279.36,-216 279.36,-252"/>
<text text-anchor="middle" x="222.1" y="-229.8" font-family="Times,serif" font-size="14.00">DTEL&#45;SYMSGV</text>
</a>
</g>
</g>
<!-- INTF&#45;IF_T100_DYN_MSG&#45;&gt;DTEL&#45;SYMSGV -->
<g id="edge18" class="edge">
<title>INTF&#45;IF_T100_DYN_MSG&#45;&gt;DTEL&#45;SYMSGV</title>
<path fill="none" stroke="black" d="M741.16,-294.86C618.81,-280.75 399.87,-255.5 289.55,-242.78"/>
<polygon fill="black" stroke="black" points="289.88,-239.29 279.55,-241.62 289.08,-246.25 289.88,-239.29"/>
</g>
<!-- DOMA&#45;SYCHAR01 -->
<g id="node12" class="node">
<title>DOMA&#45;SYCHAR01</title>
<g id="a_node12"><a xlink:href="./DOMA_SYCHAR01.html" xlink:title="DOMA&#45;SYCHAR01">
<polygon fill="none" stroke="yellow" points="286.3,-180 151.9,-180 151.9,-144 286.3,-144 286.3,-180"/>
<text text-anchor="middle" x="219.1" y="-157.8" font-family="Times,serif" font-size="14.00">DOMA&#45;SYCHAR01</text>
</a>
</g>
</g>
<!-- DTEL&#45;SYMSGTY&#45;&gt;DOMA&#45;SYCHAR01 -->
<g id="edge22" class="edge">
<title>DTEL&#45;SYMSGTY&#45;&gt;DOMA&#45;SYCHAR01</title>
<path fill="none" stroke="black" d="M507.24,-221.56C453.92,-211.59 374.62,-196.46 296.26,-180.21"/>
<polygon fill="black" stroke="black" points="296.72,-176.73 286.21,-178.12 295.29,-183.59 296.72,-176.73"/>
</g>
<!-- DOMA&#45;SYCHAR50 -->
<g id="node14" class="node">
<title>DOMA&#45;SYCHAR50</title>
<g id="a_node14"><a xlink:href="./DOMA_SYCHAR50.html" xlink:title="DOMA&#45;SYCHAR50">
<polygon fill="none" stroke="yellow" points="134.3,-180 -0.1,-180 -0.1,-144 134.3,-144 134.3,-180"/>
<text text-anchor="middle" x="67.1" y="-157.8" font-family="Times,serif" font-size="14.00">DOMA&#45;SYCHAR50</text>
</a>
</g>
</g>
<!-- DTEL&#45;SYMSGV&#45;&gt;DOMA&#45;SYCHAR50 -->
<g id="edge23" class="edge">
<title>DTEL&#45;SYMSGV&#45;&gt;DOMA&#45;SYCHAR50</title>
<path fill="none" stroke="black" d="M184.18,-215.88C163.09,-206.35 136.64,-194.41 114.23,-184.28"/>
<polygon fill="black" stroke="black" points="115.45,-180.99 104.89,-180.07 112.57,-187.37 115.45,-180.99"/>
</g>
<!-- CLAS&#45;CX_ROOT -->
<g id="node16" class="node">
<title>CLAS&#45;CX_ROOT</title>
<g id="a_node16"><a xlink:href="./CLAS_CX_ROOT.html" xlink:title="CLAS&#45;CX_ROOT">
<polygon fill="none" stroke="green" points="874.58,-252 753.62,-252 753.62,-216 874.58,-216 874.58,-252"/>
<text text-anchor="middle" x="814.1" y="-229.8" font-family="Times,serif" font-size="14.00">CLAS&#45;CX_ROOT</text>
</a>
</g>
</g>
<!-- CLAS&#45;CX_STATIC_CHECK&#45;&gt;CLAS&#45;CX_ROOT -->
<g id="edge24" class="edge">
<title>CLAS&#45;CX_STATIC_CHECK&#45;&gt;CLAS&#45;CX_ROOT</title>
<path fill="none" stroke="black" d="M976.02,-287.97C945.86,-278.1 907.71,-265.62 876.02,-255.25"/>
<polygon fill="black" stroke="black" points="877,-251.89 866.41,-252.11 874.83,-258.55 877,-251.89"/>
</g>
<!-- CLAS&#45;CX_ROOT&#45;&gt;INTF&#45;IF_MESSAGE -->
<g id="edge28" class="edge">
<title>CLAS&#45;CX_ROOT&#45;&gt;INTF&#45;IF_MESSAGE</title>
<path fill="none" stroke="black" d="M872.26,-215.97C906.24,-206.01 949.28,-193.41 984.86,-182.99"/>
<polygon fill="black" stroke="black" points="986.07,-186.28 994.68,-180.11 984.1,-179.56 986.07,-186.28"/>
</g>
<!-- INTF&#45;IF_SERIALIZABLE_OBJECT -->
<g id="node17" class="node">
<title>INTF&#45;IF_SERIALIZABLE_OBJECT</title>
<g id="a_node17"><a xlink:href="./INTF_IF_SERIALIZABLE_OBJECT.html" xlink:title="INTF&#45;IF_SERIALIZABLE_OBJECT">
<polygon fill="none" stroke="green" points="688.39,-180 459.81,-180 459.81,-144 688.39,-144 688.39,-180"/>
<text text-anchor="middle" x="574.1" y="-157.8" font-family="Times,serif" font-size="14.00">INTF&#45;IF_SERIALIZABLE_OBJECT</text>
</a>
</g>
</g>
<!-- CLAS&#45;CX_ROOT&#45;&gt;INTF&#45;IF_SERIALIZABLE_OBJECT -->
<g id="edge29" class="edge">
<title>CLAS&#45;CX_ROOT&#45;&gt;INTF&#45;IF_SERIALIZABLE_OBJECT</title>
<path fill="none" stroke="black" d="M755.7,-215.97C721.58,-206.01 678.35,-193.41 642.63,-182.99"/>
<polygon fill="black" stroke="black" points="643.35,-179.55 632.77,-180.11 641.39,-186.27 643.35,-179.55"/>
</g>
<!-- DTEL&#45;SYREPID -->
<g id="node18" class="node">
<title>DTEL&#45;SYREPID</title>
<g id="a_node18"><a xlink:href="./DTEL_SYREPID.html" xlink:title="DTEL&#45;SYREPID">
<polygon fill="none" stroke="green" points="821.35,-180 706.85,-180 706.85,-144 821.35,-144 821.35,-180"/>
<text text-anchor="middle" x="764.1" y="-157.8" font-family="Times,serif" font-size="14.00">DTEL&#45;SYREPID</text>
</a>
</g>
</g>
<!-- CLAS&#45;CX_ROOT&#45;&gt;DTEL&#45;SYREPID -->
<g id="edge27" class="edge">
<title>CLAS&#45;CX_ROOT&#45;&gt;DTEL&#45;SYREPID</title>
<path fill="none" stroke="black" d="M801.74,-215.7C795.87,-207.47 788.73,-197.48 782.26,-188.42"/>
<polygon fill="black" stroke="black" points="784.98,-186.21 776.32,-180.1 779.28,-190.28 784.98,-186.21"/>
</g>
<!-- DTEL&#45;S380ERRID -->
<g id="node20" class="node">
<title>DTEL&#45;S380ERRID</title>
<g id="a_node20"><a xlink:href="./DTEL_S380ERRID.html" xlink:title="DTEL&#45;S380ERRID">
<polygon fill="none" stroke="yellow" points="966.8,-180 839.4,-180 839.4,-144 966.8,-144 966.8,-180"/>
<text text-anchor="middle" x="903.1" y="-157.8" font-family="Times,serif" font-size="14.00">DTEL&#45;S380ERRID</text>
</a>
</g>
</g>
<!-- CLAS&#45;CX_ROOT&#45;&gt;DTEL&#45;S380ERRID -->
<g id="edge26" class="edge">
<title>CLAS&#45;CX_ROOT&#45;&gt;DTEL&#45;S380ERRID</title>
<path fill="none" stroke="black" d="M836.1,-215.7C847.31,-206.88 861.1,-196.03 873.25,-186.47"/>
<polygon fill="black" stroke="black" points="875.66,-189.04 881.35,-180.1 871.33,-183.54 875.66,-189.04"/>
</g>
<!-- DTEL&#45;SOTR_CONC -->
<g id="node22" class="node">
<title>DTEL&#45;SOTR_CONC</title>
<g id="a_node22"><a xlink:href="./DTEL_SOTR_CONC.html" xlink:title="DTEL&#45;SOTR_CONC">
<polygon fill="none" stroke="yellow" points="442.19,-180 304.01,-180 304.01,-144 442.19,-144 442.19,-180"/>
<text text-anchor="middle" x="373.1" y="-157.8" font-family="Times,serif" font-size="14.00">DTEL&#45;SOTR_CONC</text>
</a>
</g>
</g>
<!-- CLAS&#45;CX_ROOT&#45;&gt;DTEL&#45;SOTR_CONC -->
<g id="edge25" class="edge">
<title>CLAS&#45;CX_ROOT&#45;&gt;DTEL&#45;SOTR_CONC</title>
<path fill="none" stroke="black" d="M753.52,-225.47C683.39,-216.45 564.24,-200.23 452.47,-180.19"/>
<polygon fill="black" stroke="black" points="452.84,-176.69 442.37,-178.36 451.59,-183.58 452.84,-176.69"/>
</g>
<!-- DOMA&#45;PROGRAMM -->
<g id="node19" class="node">
<title>DOMA&#45;PROGRAMM</title>
<g id="a_node19"><a xlink:href="./DOMA_PROGRAMM.html" xlink:title="DOMA&#45;PROGRAMM">
<polygon fill="none" stroke="yellow" points="826.69,-108 681.51,-108 681.51,-72 826.69,-72 826.69,-108"/>
<text text-anchor="middle" x="754.1" y="-85.8" font-family="Times,serif" font-size="14.00">DOMA&#45;PROGRAMM</text>
</a>
</g>
</g>
<!-- DTEL&#45;SYREPID&#45;&gt;DOMA&#45;PROGRAMM -->
<g id="edge30" class="edge">
<title>DTEL&#45;SYREPID&#45;&gt;DOMA&#45;PROGRAMM</title>
<path fill="none" stroke="black" d="M761.63,-143.7C760.53,-135.98 759.2,-126.71 757.97,-118.11"/>
<polygon fill="black" stroke="black" points="761.42,-117.51 756.54,-108.1 754.49,-118.5 761.42,-117.51"/>
</g>
<!-- DOMA&#45;SYCHAR30 -->
<g id="node21" class="node">
<title>DOMA&#45;SYCHAR30</title>
<g id="a_node21"><a xlink:href="./DOMA_SYCHAR30.html" xlink:title="DOMA&#45;SYCHAR30">
<polygon fill="none" stroke="yellow" points="979.3,-108 844.9,-108 844.9,-72 979.3,-72 979.3,-108"/>
<text text-anchor="middle" x="912.1" y="-85.8" font-family="Times,serif" font-size="14.00">DOMA&#45;SYCHAR30</text>
</a>
</g>
</g>
<!-- DTEL&#45;S380ERRID&#45;&gt;DOMA&#45;SYCHAR30 -->
<g id="edge31" class="edge">
<title>DTEL&#45;S380ERRID&#45;&gt;DOMA&#45;SYCHAR30</title>
<path fill="none" stroke="black" d="M905.33,-143.7C906.32,-135.98 907.51,-126.71 908.61,-118.11"/>
<polygon fill="black" stroke="black" points="912.1,-118.47 909.9,-108.1 905.15,-117.58 912.1,-118.47"/>
</g>
<!-- DOMA&#45;SYSUUID_C -->
<g id="node23" class="node">
<title>DOMA&#45;SYSUUID_C</title>
<g id="a_node23"><a xlink:href="./DOMA_SYSUUID_C.html" xlink:title="DOMA&#45;SYSUUID_C">
<polygon fill="none" stroke="yellow" points="443.51,-108 302.69,-108 302.69,-72 443.51,-72 443.51,-108"/>
<text text-anchor="middle" x="373.1" y="-85.8" font-family="Times,serif" font-size="14.00">DOMA&#45;SYSUUID_C</text>
</a>
</g>
</g>
<!-- DTEL&#45;SOTR_CONC&#45;&gt;DOMA&#45;SYSUUID_C -->
<g id="edge32" class="edge">
<title>DTEL&#45;SOTR_CONC&#45;&gt;DOMA&#45;SYSUUID_C</title>
<path fill="none" stroke="black" d="M373.1,-143.7C373.1,-135.98 373.1,-126.71 373.1,-118.11"/>
<polygon fill="black" stroke="black" points="376.6,-118.1 373.1,-108.1 369.6,-118.1 376.6,-118.1"/>
</g>
<!-- DOMA&#45;SWF_CPWF_CONSUMER -->
<g id="node25" class="node">
<title>DOMA&#45;SWF_CPWF_CONSUMER</title>
<g id="a_node25"><a xlink:href="./DOMA_SWF_CPWF_CONSUMER.html" xlink:title="DOMA&#45;SWF_CPWF_CONSUMER">
<polygon fill="none" stroke="yellow" points="1757.19,-252 1535.01,-252 1535.01,-216 1757.19,-216 1757.19,-252"/>
<text text-anchor="middle" x="1646.1" y="-229.8" font-family="Times,serif" font-size="14.00">DOMA&#45;SWF_CPWF_CONSUMER</text>
</a>
</g>
</g>
<!-- DTEL&#45;SWF_CPWF_CONSUMER&#45;&gt;DOMA&#45;SWF_CPWF_CONSUMER -->
<g id="edge33" class="edge">
<title>DTEL&#45;SWF_CPWF_CONSUMER&#45;&gt;DOMA&#45;SWF_CPWF_CONSUMER</title>
<path fill="none" stroke="black" d="M1644.59,-287.7C1644.82,-279.98 1645.08,-270.71 1645.33,-262.11"/>
<polygon fill="black" stroke="black" points="1648.82,-262.2 1645.61,-252.1 1641.83,-262 1648.82,-262.2"/>
</g>
</g>
</svg>
