<?xml version="1.0" encoding="UTF-8" standalone="no"?>
<!DOCTYPE svg PUBLIC "-//W3C//DTD SVG 1.1//EN"
 "http://www.w3.org/Graphics/SVG/1.1/DTD/svg11.dtd">
<!-- Generated by graphviz version 2.47.3 (20210619.1520)
 -->
<!-- Title: G Pages: 1 -->
<svg width="289pt" height="116pt"
 viewBox="0.00 0.00 289.19 116.00" xmlns="http://www.w3.org/2000/svg" xmlns:xlink="http://www.w3.org/1999/xlink">
<g id="graph0" class="graph" transform="scale(1 1) rotate(0) translate(4 112)">
<title>G</title>
<polygon fill="white" stroke="transparent" points="-4,4 -4,-112 285.19,-112 285.19,4 -4,4"/>
<!-- CLAS&#45;CL_ABAP_GZIP_BINARY_STREAM -->
<g id="node1" class="node">
<title>CLAS&#45;CL_ABAP_GZIP_BINARY_STREAM</title>
<g id="a_node1"><a xlink:href="./CLAS_CL_ABAP_GZIP_BINARY_STREAM.html" xlink:title="CLAS&#45;CL_ABAP_GZIP_BINARY_STREAM">
<polygon fill="none" stroke="green" points="281.29,-108 -0.1,-108 -0.1,-72 281.29,-72 281.29,-108"/>
<text text-anchor="middle" x="140.6" y="-85.8" font-family="Times,serif" font-size="14.00">CLAS&#45;CL_ABAP_GZIP_BINARY_STREAM</text>
</a>
</g>
</g>
<!-- INTF&#45;IF_ABAP_GZIP_BINARY_HANDLER -->
<g id="node2" class="node">
<title>INTF&#45;IF_ABAP_GZIP_BINARY_HANDLER</title>
<g id="a_node2"><a xlink:href="./INTF_IF_ABAP_GZIP_BINARY_HANDLER.html" xlink:title="INTF&#45;IF_ABAP_GZIP_BINARY_HANDLER">
<polygon fill="none" stroke="green" points="281.26,-36 -0.07,-36 -0.07,0 281.26,0 281.26,-36"/>
<text text-anchor="middle" x="140.6" y="-13.8" font-family="Times,serif" font-size="14.00">INTF&#45;IF_ABAP_GZIP_BINARY_HANDLER</text>
</a>
</g>
</g>
<!-- CLAS&#45;CL_ABAP_GZIP_BINARY_STREAM&#45;&gt;INTF&#45;IF_ABAP_GZIP_BINARY_HANDLER -->
<g id="edge1" class="edge">
<title>CLAS&#45;CL_ABAP_GZIP_BINARY_STREAM&#45;&gt;INTF&#45;IF_ABAP_GZIP_BINARY_HANDLER</title>
<path fill="none" stroke="black" d="M128.76,-71.7C127.17,-63.98 126.72,-54.71 127.41,-46.11"/>
<polygon fill="black" stroke="black" points="130.89,-46.49 128.81,-36.1 123.95,-45.52 130.89,-46.49"/>
</g>
<!-- CLAS&#45;CL_ABAP_GZIP_BINARY_STREAM&#45;&gt;INTF&#45;IF_ABAP_GZIP_BINARY_HANDLER -->
<g id="edge3" class="edge">
<title>CLAS&#45;CL_ABAP_GZIP_BINARY_STREAM&#45;&gt;INTF&#45;IF_ABAP_GZIP_BINARY_HANDLER</title>
<path fill="none" stroke="black" d="M152.43,-71.7C154.02,-63.98 154.47,-54.71 153.79,-46.11"/>
<polygon fill="black" stroke="black" points="157.24,-45.52 152.39,-36.1 150.31,-46.49 157.24,-45.52"/>
</g>
<!-- INTF&#45;IF_ABAP_GZIP_BINARY_HANDLER&#45;&gt;CLAS&#45;CL_ABAP_GZIP_BINARY_STREAM -->
<g id="edge2" class="edge">
<title>INTF&#45;IF_ABAP_GZIP_BINARY_HANDLER&#45;&gt;CLAS&#45;CL_ABAP_GZIP_BINARY_STREAM</title>
<path fill="none" stroke="black" d="M140.6,-36.1C140.6,-43.79 140.6,-53.05 140.6,-61.67"/>
<polygon fill="black" stroke="black" points="137.1,-61.7 140.6,-71.7 144.1,-61.7 137.1,-61.7"/>
</g>
</g>
</svg>
