<?xml version="1.0" encoding="UTF-8" standalone="no"?>
<!DOCTYPE svg PUBLIC "-//W3C//DTD SVG 1.1//EN"
 "http://www.w3.org/Graphics/SVG/1.1/DTD/svg11.dtd">
<!-- Generated by graphviz version 2.47.3 (20210619.1520)
 -->
<!-- Title: G Pages: 1 -->
<svg width="229pt" height="332pt"
 viewBox="0.00 0.00 229.31 332.00" xmlns="http://www.w3.org/2000/svg" xmlns:xlink="http://www.w3.org/1999/xlink">
<g id="graph0" class="graph" transform="scale(1 1) rotate(0) translate(4 328)">
<title>G</title>
<polygon fill="white" stroke="transparent" points="-4,4 -4,-328 225.31,-328 225.31,4 -4,4"/>
<!-- CLAS&#45;CL_WEB_HTTP_UTILITY -->
<g id="node1" class="node">
<title>CLAS&#45;CL_WEB_HTTP_UTILITY</title>
<polygon fill="none" stroke="green" points="218.77,-324 2.53,-324 2.53,-288 218.77,-288 218.77,-324"/>
<text text-anchor="middle" x="110.65" y="-301.8" font-family="Times,serif" font-size="14.00">CLAS&#45;CL_WEB_HTTP_UTILITY</text>
</g>
<!-- INTF&#45;IF_WEB_HTTP_RESPONSE -->
<g id="node2" class="node">
<title>INTF&#45;IF_WEB_HTTP_RESPONSE</title>
<g id="a_node2"><a xlink:href="./INTF_IF_WEB_HTTP_RESPONSE.html" xlink:title="INTF&#45;IF_WEB_HTTP_RESPONSE">
<polygon fill="none" stroke="green" points="221.46,-252 -0.15,-252 -0.15,-216 221.46,-216 221.46,-252"/>
<text text-anchor="middle" x="110.65" y="-229.8" font-family="Times,serif" font-size="14.00">INTF&#45;IF_WEB_HTTP_RESPONSE</text>
</a>
</g>
</g>
<!-- CLAS&#45;CL_WEB_HTTP_UTILITY&#45;&gt;INTF&#45;IF_WEB_HTTP_RESPONSE -->
<g id="edge1" class="edge">
<title>CLAS&#45;CL_WEB_HTTP_UTILITY&#45;&gt;INTF&#45;IF_WEB_HTTP_RESPONSE</title>
<path fill="none" stroke="black" d="M110.65,-287.7C110.65,-279.98 110.65,-270.71 110.65,-262.11"/>
<polygon fill="black" stroke="black" points="114.15,-262.1 110.65,-252.1 107.15,-262.1 114.15,-262.1"/>
</g>
<!-- INTF&#45;IF_WEB_HTTP_REQUEST -->
<g id="node3" class="node">
<title>INTF&#45;IF_WEB_HTTP_REQUEST</title>
<g id="a_node3"><a xlink:href="./INTF_IF_WEB_HTTP_REQUEST.html" xlink:title="INTF&#45;IF_WEB_HTTP_REQUEST">
<polygon fill="none" stroke="green" points="217.95,-180 3.36,-180 3.36,-144 217.95,-144 217.95,-180"/>
<text text-anchor="middle" x="110.65" y="-157.8" font-family="Times,serif" font-size="14.00">INTF&#45;IF_WEB_HTTP_REQUEST</text>
</a>
</g>
</g>
<!-- INTF&#45;IF_WEB_HTTP_RESPONSE&#45;&gt;INTF&#45;IF_WEB_HTTP_REQUEST -->
<g id="edge2" class="edge">
<title>INTF&#45;IF_WEB_HTTP_RESPONSE&#45;&gt;INTF&#45;IF_WEB_HTTP_REQUEST</title>
<path fill="none" stroke="black" d="M110.65,-215.7C110.65,-207.98 110.65,-198.71 110.65,-190.11"/>
<polygon fill="black" stroke="black" points="114.15,-190.1 110.65,-180.1 107.15,-190.1 114.15,-190.1"/>
</g>
<!-- DTEL&#45;INT4 -->
<g id="node4" class="node">
<title>DTEL&#45;INT4</title>
<g id="a_node4"><a xlink:href="./DTEL_INT4.html" xlink:title="DTEL&#45;INT4">
<polygon fill="none" stroke="green" points="153.9,-108 67.41,-108 67.41,-72 153.9,-72 153.9,-108"/>
<text text-anchor="middle" x="110.65" y="-85.8" font-family="Times,serif" font-size="14.00">DTEL&#45;INT4</text>
</a>
</g>
</g>
<!-- INTF&#45;IF_WEB_HTTP_REQUEST&#45;&gt;DTEL&#45;INT4 -->
<g id="edge3" class="edge">
<title>INTF&#45;IF_WEB_HTTP_REQUEST&#45;&gt;DTEL&#45;INT4</title>
<path fill="none" stroke="black" d="M110.65,-143.7C110.65,-135.98 110.65,-126.71 110.65,-118.11"/>
<polygon fill="black" stroke="black" points="114.15,-118.1 110.65,-108.1 107.15,-118.1 114.15,-118.1"/>
</g>
<!-- DOMA&#45;INT4 -->
<g id="node5" class="node">
<title>DOMA&#45;INT4</title>
<g id="a_node5"><a xlink:href="./DOMA_INT4.html" xlink:title="DOMA&#45;INT4">
<polygon fill="none" stroke="yellow" points="157.4,-36 63.91,-36 63.91,0 157.4,0 157.4,-36"/>
<text text-anchor="middle" x="110.65" y="-13.8" font-family="Times,serif" font-size="14.00">DOMA&#45;INT4</text>
</a>
</g>
</g>
<!-- DTEL&#45;INT4&#45;&gt;DOMA&#45;INT4 -->
<g id="edge4" class="edge">
<title>DTEL&#45;INT4&#45;&gt;DOMA&#45;INT4</title>
<path fill="none" stroke="black" d="M110.65,-71.7C110.65,-63.98 110.65,-54.71 110.65,-46.11"/>
<polygon fill="black" stroke="black" points="114.15,-46.1 110.65,-36.1 107.15,-46.1 114.15,-46.1"/>
</g>
</g>
</svg>
