<?xml version="1.0" encoding="UTF-8" standalone="no"?>
<!DOCTYPE svg PUBLIC "-//W3C//DTD SVG 1.1//EN"
 "http://www.w3.org/Graphics/SVG/1.1/DTD/svg11.dtd">
<!-- Generated by graphviz version 2.47.3 (20210619.1520)
 -->
<!-- Title: G Pages: 1 -->
<svg width="1382pt" height="548pt"
 viewBox="0.00 0.00 1382.37 548.00" xmlns="http://www.w3.org/2000/svg" xmlns:xlink="http://www.w3.org/1999/xlink">
<g id="graph0" class="graph" transform="scale(1 1) rotate(0) translate(4 544)">
<title>G</title>
<polygon fill="white" stroke="transparent" points="-4,4 -4,-544 1378.37,-544 1378.37,4 -4,4"/>
<!-- CLAS&#45;CL_SXML_READER -->
<g id="node1" class="node">
<title>CLAS&#45;CL_SXML_READER</title>
<g id="a_node1"><a xlink:href="./CLAS_CL_SXML_READER.html" xlink:title="CLAS&#45;CL_SXML_READER">
<polygon fill="none" stroke="yellow" points="943.03,-540 759.61,-540 759.61,-504 943.03,-504 943.03,-540"/>
<text text-anchor="middle" x="851.32" y="-517.8" font-family="Times,serif" font-size="14.00">CLAS&#45;CL_SXML_READER</text>
</a>
</g>
</g>
<!-- CLAS&#45;CL_VSI_KERNEL -->
<g id="node2" class="node">
<title>CLAS&#45;CL_VSI_KERNEL</title>
<g id="a_node2"><a xlink:href="./CLAS_CL_VSI_KERNEL.html" xlink:title="CLAS&#45;CL_VSI_KERNEL">
<polygon fill="none" stroke="yellow" points="171.4,-252 5.23,-252 5.23,-216 171.4,-216 171.4,-252"/>
<text text-anchor="middle" x="88.32" y="-229.8" font-family="Times,serif" font-size="14.00">CLAS&#45;CL_VSI_KERNEL</text>
</a>
</g>
</g>
<!-- CLAS&#45;CL_SXML_READER&#45;&gt;CLAS&#45;CL_VSI_KERNEL -->
<g id="edge6" class="edge">
<title>CLAS&#45;CL_SXML_READER&#45;&gt;CLAS&#45;CL_VSI_KERNEL</title>
<path fill="none" stroke="black" d="M759.44,-506.81C705.35,-497.27 635.96,-483.62 575.32,-468 371.15,-415.39 283.21,-461.44 123.32,-324 104.59,-307.9 93.05,-281.95 88.09,-262.22"/>
<polygon fill="black" stroke="black" points="91.48,-261.36 86.05,-252.27 84.63,-262.77 91.48,-261.36"/>
</g>
<!-- CLAS&#45;CL_SXML_READER&#45;&gt;CLAS&#45;CL_VSI_KERNEL -->
<g id="edge41" class="edge">
<title>CLAS&#45;CL_SXML_READER&#45;&gt;CLAS&#45;CL_VSI_KERNEL</title>
<path fill="none" stroke="black" d="M759.89,-504C710.33,-494.68 648.24,-482.15 593.32,-468 389.15,-415.39 301.21,-461.44 141.32,-324 122.42,-307.76 110.84,-281.47 102.71,-261.67"/>
<polygon fill="black" stroke="black" points="105.89,-260.2 98.87,-252.27 99.41,-262.85 105.89,-260.2"/>
</g>
<!-- INTF&#45;IF_SXML_READER -->
<g id="node5" class="node">
<title>INTF&#45;IF_SXML_READER</title>
<g id="a_node5"><a xlink:href="./INTF_IF_SXML_READER.html" xlink:title="INTF&#45;IF_SXML_READER">
<polygon fill="none" stroke="green" points="694.9,-396 521.73,-396 521.73,-360 694.9,-360 694.9,-396"/>
<text text-anchor="middle" x="608.32" y="-373.8" font-family="Times,serif" font-size="14.00">INTF&#45;IF_SXML_READER</text>
</a>
</g>
</g>
<!-- CLAS&#45;CL_SXML_READER&#45;&gt;INTF&#45;IF_SXML_READER -->
<g id="edge5" class="edge">
<title>CLAS&#45;CL_SXML_READER&#45;&gt;INTF&#45;IF_SXML_READER</title>
<path fill="none" stroke="black" d="M759.51,-514.73C692.03,-507.89 608.65,-494.22 587.32,-468 573.11,-450.54 578.75,-424.47 587.98,-405.05"/>
<polygon fill="black" stroke="black" points="591.12,-406.59 592.72,-396.12 584.94,-403.3 591.12,-406.59"/>
</g>
<!-- CLAS&#45;CL_SXML_READER&#45;&gt;INTF&#45;IF_SXML_READER -->
<g id="edge40" class="edge">
<title>CLAS&#45;CL_SXML_READER&#45;&gt;INTF&#45;IF_SXML_READER</title>
<path fill="none" stroke="black" d="M759.54,-513.1C698.1,-505.81 625.08,-492.29 605.32,-468 591.31,-450.78 596.6,-425.17 602.5,-405.85"/>
<polygon fill="black" stroke="black" points="605.9,-406.71 605.64,-396.12 599.24,-404.56 605.9,-406.71"/>
</g>
<!-- INTF&#45;IF_SXML_NSURI_HELPER -->
<g id="node15" class="node">
<title>INTF&#45;IF_SXML_NSURI_HELPER</title>
<g id="a_node15"><a xlink:href="./INTF_IF_SXML_NSURI_HELPER.html" xlink:title="INTF&#45;IF_SXML_NSURI_HELPER">
<polygon fill="none" stroke="green" points="1245.79,-252 1026.85,-252 1026.85,-216 1245.79,-216 1245.79,-252"/>
<text text-anchor="middle" x="1136.32" y="-229.8" font-family="Times,serif" font-size="14.00">INTF&#45;IF_SXML_NSURI_HELPER</text>
</a>
</g>
</g>
<!-- CLAS&#45;CL_SXML_READER&#45;&gt;INTF&#45;IF_SXML_NSURI_HELPER -->
<g id="edge4" class="edge">
<title>CLAS&#45;CL_SXML_READER&#45;&gt;INTF&#45;IF_SXML_NSURI_HELPER</title>
<path fill="none" stroke="black" d="M942.97,-512.43C1004.49,-504.83 1077.96,-491.22 1099.32,-468 1151.75,-410.98 1141.75,-310.14 1136.81,-262.02"/>
<polygon fill="black" stroke="black" points="1140.29,-261.65 1135.81,-252.05 1133.33,-262.35 1140.29,-261.65"/>
</g>
<!-- CLAS&#45;CL_SXML_READER&#45;&gt;INTF&#45;IF_SXML_NSURI_HELPER -->
<g id="edge39" class="edge">
<title>CLAS&#45;CL_SXML_READER&#45;&gt;INTF&#45;IF_SXML_NSURI_HELPER</title>
<path fill="none" stroke="black" d="M942.99,-514.13C1010.49,-506.93 1094.27,-493.07 1117.32,-468 1169.86,-410.86 1159.71,-309.72 1147.36,-261.72"/>
<polygon fill="black" stroke="black" points="1150.72,-260.72 1144.63,-252.05 1143.98,-262.62 1150.72,-260.72"/>
</g>
<!-- INTF&#45;IF_SXML -->
<g id="node16" class="node">
<title>INTF&#45;IF_SXML</title>
<g id="a_node16"><a xlink:href="./INTF_IF_SXML.html" xlink:title="INTF&#45;IF_SXML">
<polygon fill="none" stroke="green" points="1374.41,-252 1264.23,-252 1264.23,-216 1374.41,-216 1374.41,-252"/>
<text text-anchor="middle" x="1319.32" y="-229.8" font-family="Times,serif" font-size="14.00">INTF&#45;IF_SXML</text>
</a>
</g>
</g>
<!-- CLAS&#45;CL_SXML_READER&#45;&gt;INTF&#45;IF_SXML -->
<g id="edge3" class="edge">
<title>CLAS&#45;CL_SXML_READER&#45;&gt;INTF&#45;IF_SXML</title>
<path fill="none" stroke="black" d="M943.1,-510.69C1012.76,-501.85 1101.65,-487.45 1133.32,-468 1216.89,-416.68 1275.08,-310.26 1302.5,-261.02"/>
<polygon fill="black" stroke="black" points="1305.58,-262.68 1307.41,-252.25 1299.47,-259.26 1305.58,-262.68"/>
</g>
<!-- CLAS&#45;CL_SXML_READER&#45;&gt;INTF&#45;IF_SXML -->
<g id="edge38" class="edge">
<title>CLAS&#45;CL_SXML_READER&#45;&gt;INTF&#45;IF_SXML</title>
<path fill="none" stroke="black" d="M942.99,-512.44C1018.2,-503.81 1117.46,-488.79 1151.32,-468 1234.55,-416.9 1292.59,-311.14 1312.53,-261.64"/>
<polygon fill="black" stroke="black" points="1315.82,-262.84 1316.1,-252.25 1309.28,-260.35 1315.82,-262.84"/>
</g>
<!-- CLAS&#45;CL_SXML_TABLE_READER -->
<g id="node17" class="node">
<title>CLAS&#45;CL_SXML_TABLE_READER</title>
<g id="a_node17"><a xlink:href="./CLAS_CL_SXML_TABLE_READER.html" xlink:title="CLAS&#45;CL_SXML_TABLE_READER">
<polygon fill="none" stroke="green" points="841.13,-468 605.51,-468 605.51,-432 841.13,-432 841.13,-468"/>
<text text-anchor="middle" x="723.32" y="-445.8" font-family="Times,serif" font-size="14.00">CLAS&#45;CL_SXML_TABLE_READER</text>
</a>
</g>
</g>
<!-- CLAS&#45;CL_SXML_READER&#45;&gt;CLAS&#45;CL_SXML_TABLE_READER -->
<g id="edge2" class="edge">
<title>CLAS&#45;CL_SXML_READER&#45;&gt;CLAS&#45;CL_SXML_TABLE_READER</title>
<path fill="none" stroke="black" d="M808.21,-503.88C789.56,-494.72 768.45,-483.34 751.73,-473.48"/>
<polygon fill="black" stroke="black" points="753.32,-470.35 742.94,-468.19 749.7,-476.35 753.32,-470.35"/>
</g>
<!-- CLAS&#45;CL_SXML_READER&#45;&gt;CLAS&#45;CL_SXML_TABLE_READER -->
<g id="edge37" class="edge">
<title>CLAS&#45;CL_SXML_READER&#45;&gt;CLAS&#45;CL_SXML_TABLE_READER</title>
<path fill="none" stroke="black" d="M831.8,-503.88C816.57,-494.47 795.33,-482.71 775.53,-472.67"/>
<polygon fill="black" stroke="black" points="777.07,-469.53 766.56,-468.19 773.94,-475.79 777.07,-469.53"/>
</g>
<!-- CLAS&#45;CL_SXML_STRING_READER -->
<g id="node18" class="node">
<title>CLAS&#45;CL_SXML_STRING_READER</title>
<g id="a_node18"><a xlink:href="./CLAS_CL_SXML_STRING_READER.html" xlink:title="CLAS&#45;CL_SXML_STRING_READER">
<polygon fill="none" stroke="green" points="1099.57,-468 859.07,-468 859.07,-432 1099.57,-432 1099.57,-468"/>
<text text-anchor="middle" x="979.32" y="-445.8" font-family="Times,serif" font-size="14.00">CLAS&#45;CL_SXML_STRING_READER</text>
</a>
</g>
</g>
<!-- CLAS&#45;CL_SXML_READER&#45;&gt;CLAS&#45;CL_SXML_STRING_READER -->
<g id="edge1" class="edge">
<title>CLAS&#45;CL_SXML_READER&#45;&gt;CLAS&#45;CL_SXML_STRING_READER</title>
<path fill="none" stroke="black" d="M870.84,-503.88C886.07,-494.47 907.31,-482.71 927.11,-472.67"/>
<polygon fill="black" stroke="black" points="928.69,-475.79 936.08,-468.19 925.57,-469.53 928.69,-475.79"/>
</g>
<!-- CLAS&#45;CL_SXML_READER&#45;&gt;CLAS&#45;CL_SXML_STRING_READER -->
<g id="edge36" class="edge">
<title>CLAS&#45;CL_SXML_READER&#45;&gt;CLAS&#45;CL_SXML_STRING_READER</title>
<path fill="none" stroke="black" d="M882.63,-503.88C899.52,-494.64 920.57,-483.13 938.7,-473.21"/>
<polygon fill="black" stroke="black" points="940.79,-476.06 947.89,-468.19 937.43,-469.92 940.79,-476.06"/>
</g>
<!-- DTEL&#45;VSCAN_PROFILE -->
<g id="node3" class="node">
<title>DTEL&#45;VSCAN_PROFILE</title>
<g id="a_node3"><a xlink:href="./DTEL_VSCAN_PROFILE.html" xlink:title="DTEL&#45;VSCAN_PROFILE">
<polygon fill="none" stroke="yellow" points="170.96,-180 3.68,-180 3.68,-144 170.96,-144 170.96,-180"/>
<text text-anchor="middle" x="87.32" y="-157.8" font-family="Times,serif" font-size="14.00">DTEL&#45;VSCAN_PROFILE</text>
</a>
</g>
</g>
<!-- CLAS&#45;CL_VSI_KERNEL&#45;&gt;DTEL&#45;VSCAN_PROFILE -->
<g id="edge7" class="edge">
<title>CLAS&#45;CL_VSI_KERNEL&#45;&gt;DTEL&#45;VSCAN_PROFILE</title>
<path fill="none" stroke="black" d="M88.07,-215.7C87.96,-207.98 87.83,-198.71 87.71,-190.11"/>
<polygon fill="black" stroke="black" points="91.21,-190.05 87.56,-180.1 84.21,-190.15 91.21,-190.05"/>
</g>
<!-- DOMA&#45;VSCAN_PROFILE -->
<g id="node4" class="node">
<title>DOMA&#45;VSCAN_PROFILE</title>
<g id="a_node4"><a xlink:href="./DOMA_VSCAN_PROFILE.html" xlink:title="DOMA&#45;VSCAN_PROFILE">
<polygon fill="none" stroke="yellow" points="174.46,-108 0.18,-108 0.18,-72 174.46,-72 174.46,-108"/>
<text text-anchor="middle" x="87.32" y="-85.8" font-family="Times,serif" font-size="14.00">DOMA&#45;VSCAN_PROFILE</text>
</a>
</g>
</g>
<!-- DTEL&#45;VSCAN_PROFILE&#45;&gt;DOMA&#45;VSCAN_PROFILE -->
<g id="edge8" class="edge">
<title>DTEL&#45;VSCAN_PROFILE&#45;&gt;DOMA&#45;VSCAN_PROFILE</title>
<path fill="none" stroke="black" d="M87.32,-143.7C87.32,-135.98 87.32,-126.71 87.32,-118.11"/>
<polygon fill="black" stroke="black" points="90.82,-118.1 87.32,-108.1 83.82,-118.1 90.82,-118.1"/>
</g>
<!-- INTF&#45;IF_SXML_READER&#45;&gt;CLAS&#45;CL_VSI_KERNEL -->
<g id="edge14" class="edge">
<title>INTF&#45;IF_SXML_READER&#45;&gt;CLAS&#45;CL_VSI_KERNEL</title>
<path fill="none" stroke="black" d="M521.62,-372.35C415.67,-365.6 243.33,-350.85 185.32,-324 153.83,-309.42 125.57,-280.83 107.78,-259.97"/>
<polygon fill="black" stroke="black" points="110.35,-257.58 101.27,-252.12 104.97,-262.06 110.35,-257.58"/>
</g>
<!-- INTF&#45;IF_SXML_WRITER -->
<g id="node6" class="node">
<title>INTF&#45;IF_SXML_WRITER</title>
<g id="a_node6"><a xlink:href="./INTF_IF_SXML_WRITER.html" xlink:title="INTF&#45;IF_SXML_WRITER">
<polygon fill="none" stroke="green" points="713.57,-324 543.07,-324 543.07,-288 713.57,-288 713.57,-324"/>
<text text-anchor="middle" x="628.32" y="-301.8" font-family="Times,serif" font-size="14.00">INTF&#45;IF_SXML_WRITER</text>
</a>
</g>
</g>
<!-- INTF&#45;IF_SXML_READER&#45;&gt;INTF&#45;IF_SXML_WRITER -->
<g id="edge13" class="edge">
<title>INTF&#45;IF_SXML_READER&#45;&gt;INTF&#45;IF_SXML_WRITER</title>
<path fill="none" stroke="black" d="M613.26,-359.7C615.49,-351.9 618.17,-342.51 620.65,-333.83"/>
<polygon fill="black" stroke="black" points="624.05,-334.68 623.43,-324.1 617.32,-332.76 624.05,-334.68"/>
</g>
<!-- INTF&#45;IF_SXML_NODE -->
<g id="node7" class="node">
<title>INTF&#45;IF_SXML_NODE</title>
<g id="a_node7"><a xlink:href="./INTF_IF_SXML_NODE.html" xlink:title="INTF&#45;IF_SXML_NODE">
<polygon fill="none" stroke="green" points="581.28,-180 425.35,-180 425.35,-144 581.28,-144 581.28,-180"/>
<text text-anchor="middle" x="503.32" y="-157.8" font-family="Times,serif" font-size="14.00">INTF&#45;IF_SXML_NODE</text>
</a>
</g>
</g>
<!-- INTF&#45;IF_SXML_READER&#45;&gt;INTF&#45;IF_SXML_NODE -->
<g id="edge9" class="edge">
<title>INTF&#45;IF_SXML_READER&#45;&gt;INTF&#45;IF_SXML_NODE</title>
<path fill="none" stroke="black" d="M576.82,-359.83C562.37,-350.71 545.91,-338.4 534.32,-324 512.47,-296.86 510.35,-286.12 503.32,-252 499.11,-231.6 499.34,-208.01 500.49,-190.24"/>
<polygon fill="black" stroke="black" points="503.98,-190.51 501.28,-180.27 497,-189.97 503.98,-190.51"/>
</g>
<!-- INTF&#45;IF_SXML_VALUE -->
<g id="node12" class="node">
<title>INTF&#45;IF_SXML_VALUE</title>
<g id="a_node12"><a xlink:href="./INTF_IF_SXML_VALUE.html" xlink:title="INTF&#45;IF_SXML_VALUE">
<polygon fill="none" stroke="green" points="624.34,-108 460.3,-108 460.3,-72 624.34,-72 624.34,-108"/>
<text text-anchor="middle" x="542.32" y="-85.8" font-family="Times,serif" font-size="14.00">INTF&#45;IF_SXML_VALUE</text>
</a>
</g>
</g>
<!-- INTF&#45;IF_SXML_READER&#45;&gt;INTF&#45;IF_SXML_VALUE -->
<g id="edge10" class="edge">
<title>INTF&#45;IF_SXML_READER&#45;&gt;INTF&#45;IF_SXML_VALUE</title>
<path fill="none" stroke="black" d="M521.55,-361.41C418.02,-340.84 254.36,-301.4 218.32,-252 152.85,-162.26 332.45,-119.68 449.77,-101.92"/>
<polygon fill="black" stroke="black" points="450.48,-105.35 459.86,-100.43 449.46,-98.43 450.48,-105.35"/>
</g>
<!-- INTF&#45;IF_SXML_READER&#45;&gt;INTF&#45;IF_SXML_NSURI_HELPER -->
<g id="edge12" class="edge">
<title>INTF&#45;IF_SXML_READER&#45;&gt;INTF&#45;IF_SXML_NSURI_HELPER</title>
<path fill="none" stroke="black" d="M671.75,-359.94C770.09,-333.49 958.86,-282.73 1062.94,-254.73"/>
<polygon fill="black" stroke="black" points="1064,-258.08 1072.74,-252.1 1062.18,-251.32 1064,-258.08"/>
</g>
<!-- INTF&#45;IF_SXML_READER&#45;&gt;INTF&#45;IF_SXML -->
<g id="edge11" class="edge">
<title>INTF&#45;IF_SXML_READER&#45;&gt;INTF&#45;IF_SXML</title>
<path fill="none" stroke="black" d="M694.91,-362.14C819.23,-340.38 1055.25,-297.46 1254.32,-252 1254.42,-251.98 1254.52,-251.95 1254.62,-251.93"/>
<polygon fill="black" stroke="black" points="1255.13,-255.41 1264.06,-249.7 1253.52,-248.59 1255.13,-255.41"/>
</g>
<!-- INTF&#45;IF_SXML_WRITER&#45;&gt;CLAS&#45;CL_VSI_KERNEL -->
<g id="edge21" class="edge">
<title>INTF&#45;IF_SXML_WRITER&#45;&gt;CLAS&#45;CL_VSI_KERNEL</title>
<path fill="none" stroke="black" d="M542.72,-293.97C459.77,-283.28 330.42,-266.57 218.32,-252 206.5,-250.46 194.09,-248.85 181.81,-247.24"/>
<polygon fill="black" stroke="black" points="181.91,-243.73 171.54,-245.9 181,-250.67 181.91,-243.73"/>
</g>
<!-- INTF&#45;IF_SXML_WRITER&#45;&gt;INTF&#45;IF_SXML_NODE -->
<g id="edge20" class="edge">
<title>INTF&#45;IF_SXML_WRITER&#45;&gt;INTF&#45;IF_SXML_NODE</title>
<path fill="none" stroke="black" d="M571.96,-287.95C553.65,-279.8 534.85,-268.19 522.32,-252 508.75,-234.48 504.35,-209.44 503.14,-190.38"/>
<polygon fill="black" stroke="black" points="506.63,-190.09 502.76,-180.23 499.64,-190.35 506.63,-190.09"/>
</g>
<!-- INTF&#45;IF_SXML_CLOSE_ELEMENT -->
<g id="node8" class="node">
<title>INTF&#45;IF_SXML_CLOSE_ELEMENT</title>
<g id="a_node8"><a xlink:href="./INTF_IF_SXML_CLOSE_ELEMENT.html" xlink:title="INTF&#45;IF_SXML_CLOSE_ELEMENT">
<polygon fill="none" stroke="green" points="765.06,-252 531.58,-252 531.58,-216 765.06,-216 765.06,-252"/>
<text text-anchor="middle" x="648.32" y="-229.8" font-family="Times,serif" font-size="14.00">INTF&#45;IF_SXML_CLOSE_ELEMENT</text>
</a>
</g>
</g>
<!-- INTF&#45;IF_SXML_WRITER&#45;&gt;INTF&#45;IF_SXML_CLOSE_ELEMENT -->
<g id="edge19" class="edge">
<title>INTF&#45;IF_SXML_WRITER&#45;&gt;INTF&#45;IF_SXML_CLOSE_ELEMENT</title>
<path fill="none" stroke="black" d="M633.26,-287.7C635.49,-279.9 638.17,-270.51 640.65,-261.83"/>
<polygon fill="black" stroke="black" points="644.05,-262.68 643.43,-252.1 637.32,-260.76 644.05,-262.68"/>
</g>
<!-- INTF&#45;IF_SXML_VALUE_NODE -->
<g id="node11" class="node">
<title>INTF&#45;IF_SXML_VALUE_NODE</title>
<g id="a_node11"><a xlink:href="./INTF_IF_SXML_VALUE_NODE.html" xlink:title="INTF&#45;IF_SXML_VALUE_NODE">
<polygon fill="none" stroke="green" points="437.71,-252 226.93,-252 226.93,-216 437.71,-216 437.71,-252"/>
<text text-anchor="middle" x="332.32" y="-229.8" font-family="Times,serif" font-size="14.00">INTF&#45;IF_SXML_VALUE_NODE</text>
</a>
</g>
</g>
<!-- INTF&#45;IF_SXML_WRITER&#45;&gt;INTF&#45;IF_SXML_VALUE_NODE -->
<g id="edge18" class="edge">
<title>INTF&#45;IF_SXML_WRITER&#45;&gt;INTF&#45;IF_SXML_VALUE_NODE</title>
<path fill="none" stroke="black" d="M556.29,-287.97C513.41,-277.83 458.87,-264.93 414.34,-254.4"/>
<polygon fill="black" stroke="black" points="414.95,-250.95 404.42,-252.05 413.34,-257.76 414.95,-250.95"/>
</g>
<!-- INTF&#45;IF_SXML_OPEN_ELEMENT -->
<g id="node13" class="node">
<title>INTF&#45;IF_SXML_OPEN_ELEMENT</title>
<g id="a_node13"><a xlink:href="./INTF_IF_SXML_OPEN_ELEMENT.html" xlink:title="INTF&#45;IF_SXML_OPEN_ELEMENT">
<polygon fill="none" stroke="green" points="1009.27,-252 783.36,-252 783.36,-216 1009.27,-216 1009.27,-252"/>
<text text-anchor="middle" x="896.32" y="-229.8" font-family="Times,serif" font-size="14.00">INTF&#45;IF_SXML_OPEN_ELEMENT</text>
</a>
</g>
</g>
<!-- INTF&#45;IF_SXML_WRITER&#45;&gt;INTF&#45;IF_SXML_OPEN_ELEMENT -->
<g id="edge17" class="edge">
<title>INTF&#45;IF_SXML_WRITER&#45;&gt;INTF&#45;IF_SXML_OPEN_ELEMENT</title>
<path fill="none" stroke="black" d="M693.54,-287.97C732.04,-277.91 780.94,-265.14 821.07,-254.65"/>
<polygon fill="black" stroke="black" points="822.02,-258.02 830.81,-252.11 820.25,-251.25 822.02,-258.02"/>
</g>
<!-- INTF&#45;IF_SXML_WRITER&#45;&gt;INTF&#45;IF_SXML_NSURI_HELPER -->
<g id="edge16" class="edge">
<title>INTF&#45;IF_SXML_WRITER&#45;&gt;INTF&#45;IF_SXML_NSURI_HELPER</title>
<path fill="none" stroke="black" d="M713.94,-293.57C790.66,-283.27 906.57,-267.61 1016.76,-252.21"/>
<polygon fill="black" stroke="black" points="1017.3,-255.67 1026.72,-250.82 1016.33,-248.74 1017.3,-255.67"/>
</g>
<!-- INTF&#45;IF_SXML_WRITER&#45;&gt;INTF&#45;IF_SXML -->
<g id="edge15" class="edge">
<title>INTF&#45;IF_SXML_WRITER&#45;&gt;INTF&#45;IF_SXML</title>
<path fill="none" stroke="black" d="M713.7,-302.4C834.76,-297.67 1062.84,-284.89 1254.32,-252 1254.42,-251.98 1254.52,-251.97 1254.62,-251.95"/>
<polygon fill="black" stroke="black" points="1254.98,-255.44 1264.14,-250.12 1253.66,-248.57 1254.98,-255.44"/>
</g>
<!-- INTF&#45;IF_SXML_CLOSE_ELEMENT&#45;&gt;INTF&#45;IF_SXML_NODE -->
<g id="edge23" class="edge">
<title>INTF&#45;IF_SXML_CLOSE_ELEMENT&#45;&gt;INTF&#45;IF_SXML_NODE</title>
<path fill="none" stroke="black" d="M612.85,-215.88C593.2,-206.39 568.6,-194.51 547.69,-184.42"/>
<polygon fill="black" stroke="black" points="549.2,-181.26 538.67,-180.07 546.16,-187.57 549.2,-181.26"/>
</g>
<!-- INTF&#45;IF_SXML_NAMED -->
<g id="node9" class="node">
<title>INTF&#45;IF_SXML_NAMED</title>
<g id="a_node9"><a xlink:href="./INTF_IF_SXML_NAMED.html" xlink:title="INTF&#45;IF_SXML_NAMED">
<polygon fill="none" stroke="green" points="957.73,-108 788.91,-108 788.91,-72 957.73,-72 957.73,-108"/>
<text text-anchor="middle" x="873.32" y="-85.8" font-family="Times,serif" font-size="14.00">INTF&#45;IF_SXML_NAMED</text>
</a>
</g>
</g>
<!-- INTF&#45;IF_SXML_CLOSE_ELEMENT&#45;&gt;INTF&#45;IF_SXML_NAMED -->
<g id="edge22" class="edge">
<title>INTF&#45;IF_SXML_CLOSE_ELEMENT&#45;&gt;INTF&#45;IF_SXML_NAMED</title>
<path fill="none" stroke="black" d="M655.06,-215.68C663.74,-195.6 680.7,-162.85 705.32,-144 726.74,-127.6 753.36,-116.21 779.04,-108.32"/>
<polygon fill="black" stroke="black" points="780.2,-111.63 788.82,-105.46 778.24,-104.91 780.2,-111.63"/>
</g>
<!-- TABL&#45;QNAME -->
<g id="node10" class="node">
<title>TABL&#45;QNAME</title>
<g id="a_node10"><a xlink:href="./TABL_QNAME.html" xlink:title="TABL&#45;QNAME">
<polygon fill="none" stroke="green" points="927.35,-36 819.29,-36 819.29,0 927.35,0 927.35,-36"/>
<text text-anchor="middle" x="873.32" y="-13.8" font-family="Times,serif" font-size="14.00">TABL&#45;QNAME</text>
</a>
</g>
</g>
<!-- INTF&#45;IF_SXML_NAMED&#45;&gt;TABL&#45;QNAME -->
<g id="edge24" class="edge">
<title>INTF&#45;IF_SXML_NAMED&#45;&gt;TABL&#45;QNAME</title>
<path fill="none" stroke="black" d="M873.32,-71.7C873.32,-63.98 873.32,-54.71 873.32,-46.11"/>
<polygon fill="black" stroke="black" points="876.82,-46.1 873.32,-36.1 869.82,-46.1 876.82,-46.1"/>
</g>
<!-- INTF&#45;IF_SXML_VALUE_NODE&#45;&gt;INTF&#45;IF_SXML_NODE -->
<g id="edge25" class="edge">
<title>INTF&#45;IF_SXML_VALUE_NODE&#45;&gt;INTF&#45;IF_SXML_NODE</title>
<path fill="none" stroke="black" d="M374.15,-215.88C397.73,-206.22 427.38,-194.09 452.32,-183.88"/>
<polygon fill="black" stroke="black" points="453.7,-187.1 461.62,-180.07 451.04,-180.62 453.7,-187.1"/>
</g>
<!-- INTF&#45;IF_SXML_VALUE_NODE&#45;&gt;INTF&#45;IF_SXML_VALUE -->
<g id="edge26" class="edge">
<title>INTF&#45;IF_SXML_VALUE_NODE&#45;&gt;INTF&#45;IF_SXML_VALUE</title>
<path fill="none" stroke="black" d="M344.87,-215.89C359.98,-196.31 386.99,-164.34 416.32,-144 435.26,-130.87 457.97,-120.07 478.85,-111.73"/>
<polygon fill="black" stroke="black" points="480.24,-114.94 488.3,-108.07 477.71,-108.42 480.24,-114.94"/>
</g>
<!-- INTF&#45;IF_SXML_OPEN_ELEMENT&#45;&gt;INTF&#45;IF_SXML_NODE -->
<g id="edge28" class="edge">
<title>INTF&#45;IF_SXML_OPEN_ELEMENT&#45;&gt;INTF&#45;IF_SXML_NODE</title>
<path fill="none" stroke="black" d="M800.68,-215.97C736.98,-204.62 653.86,-189.81 591.71,-178.74"/>
<polygon fill="black" stroke="black" points="591.99,-175.24 581.53,-176.93 590.76,-182.13 591.99,-175.24"/>
</g>
<!-- INTF&#45;IF_SXML_OPEN_ELEMENT&#45;&gt;INTF&#45;IF_SXML_NAMED -->
<g id="edge27" class="edge">
<title>INTF&#45;IF_SXML_OPEN_ELEMENT&#45;&gt;INTF&#45;IF_SXML_NAMED</title>
<path fill="none" stroke="black" d="M906.1,-215.93C915.19,-197.77 926.11,-168.34 917.32,-144 913.56,-133.6 906.78,-123.8 899.65,-115.52"/>
<polygon fill="black" stroke="black" points="902.14,-113.06 892.79,-108.08 897,-117.81 902.14,-113.06"/>
</g>
<!-- INTF&#45;IF_SXML_OPEN_ELEMENT&#45;&gt;INTF&#45;IF_SXML_VALUE -->
<g id="edge30" class="edge">
<title>INTF&#45;IF_SXML_OPEN_ELEMENT&#45;&gt;INTF&#45;IF_SXML_VALUE</title>
<path fill="none" stroke="black" d="M819.23,-215.89C783.89,-206.97 741.83,-194.81 705.32,-180 659.44,-161.39 609.95,-133.09 577.69,-113.41"/>
<polygon fill="black" stroke="black" points="579.42,-110.36 569.07,-108.1 575.75,-116.33 579.42,-110.36"/>
</g>
<!-- INTF&#45;IF_SXML_ATTRIBUTE -->
<g id="node14" class="node">
<title>INTF&#45;IF_SXML_ATTRIBUTE</title>
<g id="a_node14"><a xlink:href="./INTF_IF_SXML_ATTRIBUTE.html" xlink:title="INTF&#45;IF_SXML_ATTRIBUTE">
<polygon fill="none" stroke="green" points="908.67,-180 713.97,-180 713.97,-144 908.67,-144 908.67,-180"/>
<text text-anchor="middle" x="811.32" y="-157.8" font-family="Times,serif" font-size="14.00">INTF&#45;IF_SXML_ATTRIBUTE</text>
</a>
</g>
</g>
<!-- INTF&#45;IF_SXML_OPEN_ELEMENT&#45;&gt;INTF&#45;IF_SXML_ATTRIBUTE -->
<g id="edge29" class="edge">
<title>INTF&#45;IF_SXML_OPEN_ELEMENT&#45;&gt;INTF&#45;IF_SXML_ATTRIBUTE</title>
<path fill="none" stroke="black" d="M875.31,-215.7C864.6,-206.88 851.43,-196.03 839.82,-186.47"/>
<polygon fill="black" stroke="black" points="842.03,-183.76 832.09,-180.1 837.58,-189.16 842.03,-183.76"/>
</g>
<!-- INTF&#45;IF_SXML_ATTRIBUTE&#45;&gt;INTF&#45;IF_SXML_NAMED -->
<g id="edge31" class="edge">
<title>INTF&#45;IF_SXML_ATTRIBUTE&#45;&gt;INTF&#45;IF_SXML_NAMED</title>
<path fill="none" stroke="black" d="M826.64,-143.7C834.08,-135.3 843.14,-125.07 851.3,-115.86"/>
<polygon fill="black" stroke="black" points="854.16,-117.91 858.17,-108.1 848.92,-113.27 854.16,-117.91"/>
</g>
<!-- INTF&#45;IF_SXML_ATTRIBUTE&#45;&gt;INTF&#45;IF_SXML_VALUE -->
<g id="edge32" class="edge">
<title>INTF&#45;IF_SXML_ATTRIBUTE&#45;&gt;INTF&#45;IF_SXML_VALUE</title>
<path fill="none" stroke="black" d="M745.86,-143.97C707.21,-133.91 658.13,-121.14 617.85,-110.65"/>
<polygon fill="black" stroke="black" points="618.63,-107.24 608.07,-108.11 616.87,-114.02 618.63,-107.24"/>
</g>
<!-- INTF&#45;IF_SXML_NSURI_HELPER&#45;&gt;INTF&#45;IF_SXML_NAMED -->
<g id="edge33" class="edge">
<title>INTF&#45;IF_SXML_NSURI_HELPER&#45;&gt;INTF&#45;IF_SXML_NAMED</title>
<path fill="none" stroke="black" d="M1104.6,-215.87C1056.91,-190.12 966.76,-141.45 914.2,-113.07"/>
<polygon fill="black" stroke="black" points="915.62,-109.86 905.16,-108.19 912.29,-116.02 915.62,-109.86"/>
</g>
<!-- CLAS&#45;CL_SXML_TABLE_READER&#45;&gt;CLAS&#45;CL_SXML_READER -->
<g id="edge34" class="edge">
<title>CLAS&#45;CL_SXML_TABLE_READER&#45;&gt;CLAS&#45;CL_SXML_READER</title>
<path fill="none" stroke="black" d="M754.75,-468.19C771.66,-477.44 792.71,-488.95 810.83,-498.86"/>
<polygon fill="black" stroke="black" points="809.55,-502.15 820.01,-503.88 812.91,-496.01 809.55,-502.15"/>
</g>
<!-- CLAS&#45;CL_SXML_TABLE_READER&#45;&gt;INTF&#45;IF_SXML_READER -->
<g id="edge35" class="edge">
<title>CLAS&#45;CL_SXML_TABLE_READER&#45;&gt;INTF&#45;IF_SXML_READER</title>
<path fill="none" stroke="black" d="M695.19,-431.88C680.15,-422.72 661.45,-411.34 645.26,-401.48"/>
<polygon fill="black" stroke="black" points="646.92,-398.4 636.56,-396.19 643.28,-404.38 646.92,-398.4"/>
</g>
<!-- CLAS&#45;CL_SXML_STRING_READER&#45;&gt;CLAS&#45;CL_SXML_READER -->
<g id="edge42" class="edge">
<title>CLAS&#45;CL_SXML_STRING_READER&#45;&gt;CLAS&#45;CL_SXML_READER</title>
<path fill="none" stroke="black" d="M959.69,-468.19C944.43,-477.61 923.18,-489.37 903.39,-499.4"/>
<polygon fill="black" stroke="black" points="901.81,-496.28 894.43,-503.88 904.94,-502.54 901.81,-496.28"/>
</g>
<!-- CLAS&#45;CL_SXML_STRING_READER&#45;&gt;INTF&#45;IF_SXML_READER -->
<g id="edge43" class="edge">
<title>CLAS&#45;CL_SXML_STRING_READER&#45;&gt;INTF&#45;IF_SXML_READER</title>
<path fill="none" stroke="black" d="M889.04,-431.97C833.39,-421.47 762.07,-408.01 705.24,-397.29"/>
<polygon fill="black" stroke="black" points="705.64,-393.8 695.17,-395.39 704.34,-400.68 705.64,-393.8"/>
</g>
</g>
</svg>
