<?xml version="1.0" encoding="UTF-8" standalone="no"?>
<!DOCTYPE svg PUBLIC "-//W3C//DTD SVG 1.1//EN"
 "http://www.w3.org/Graphics/SVG/1.1/DTD/svg11.dtd">
<!-- Generated by graphviz version 2.47.3 (20210619.1520)
 -->
<!-- Title: G Pages: 1 -->
<svg width="830pt" height="476pt"
 viewBox="0.00 0.00 830.35 476.00" xmlns="http://www.w3.org/2000/svg" xmlns:xlink="http://www.w3.org/1999/xlink">
<g id="graph0" class="graph" transform="scale(1 1) rotate(0) translate(4 472)">
<title>G</title>
<polygon fill="white" stroke="transparent" points="-4,4 -4,-472 826.35,-472 826.35,4 -4,4"/>
<!-- CLAS&#45;CX_AMDP_VERSION_MISMATCH -->
<g id="node1" class="node">
<title>CLAS&#45;CX_AMDP_VERSION_MISMATCH</title>
<g id="a_node1"><a xlink:href="./CLAS_CX_AMDP_VERSION_MISMATCH.html" xlink:title="CLAS&#45;CX_AMDP_VERSION_MISMATCH">
<polygon fill="none" stroke="green" points="726.05,-468 452.23,-468 452.23,-432 726.05,-432 726.05,-468"/>
<text text-anchor="middle" x="589.14" y="-445.8" font-family="Times,serif" font-size="14.00">CLAS&#45;CX_AMDP_VERSION_MISMATCH</text>
</a>
</g>
</g>
<!-- CLAS&#45;CX_AMDP_VERSION_ERROR -->
<g id="node2" class="node">
<title>CLAS&#45;CX_AMDP_VERSION_ERROR</title>
<g id="a_node2"><a xlink:href="./CLAS_CX_AMDP_VERSION_ERROR.html" xlink:title="CLAS&#45;CX_AMDP_VERSION_ERROR">
<polygon fill="none" stroke="green" points="711.29,-396 467,-396 467,-360 711.29,-360 711.29,-396"/>
<text text-anchor="middle" x="589.14" y="-373.8" font-family="Times,serif" font-size="14.00">CLAS&#45;CX_AMDP_VERSION_ERROR</text>
</a>
</g>
</g>
<!-- CLAS&#45;CX_AMDP_VERSION_MISMATCH&#45;&gt;CLAS&#45;CX_AMDP_VERSION_ERROR -->
<g id="edge2" class="edge">
<title>CLAS&#45;CX_AMDP_VERSION_MISMATCH&#45;&gt;CLAS&#45;CX_AMDP_VERSION_ERROR</title>
<path fill="none" stroke="black" d="M577.31,-431.7C575.72,-423.98 575.27,-414.71 575.95,-406.11"/>
<polygon fill="black" stroke="black" points="579.43,-406.49 577.35,-396.1 572.5,-405.52 579.43,-406.49"/>
</g>
<!-- CLAS&#45;CX_AMDP_VERSION_MISMATCH&#45;&gt;CLAS&#45;CX_AMDP_VERSION_ERROR -->
<g id="edge7" class="edge">
<title>CLAS&#45;CX_AMDP_VERSION_MISMATCH&#45;&gt;CLAS&#45;CX_AMDP_VERSION_ERROR</title>
<path fill="none" stroke="black" d="M600.98,-431.7C602.57,-423.98 603.02,-414.71 602.34,-406.11"/>
<polygon fill="black" stroke="black" points="605.79,-405.52 600.93,-396.1 598.85,-406.49 605.79,-405.52"/>
</g>
<!-- DTEL&#45;SOTR_CONC -->
<g id="node3" class="node">
<title>DTEL&#45;SOTR_CONC</title>
<g id="a_node3"><a xlink:href="./DTEL_SOTR_CONC.html" xlink:title="DTEL&#45;SOTR_CONC">
<polygon fill="none" stroke="yellow" points="817.23,-108 679.05,-108 679.05,-72 817.23,-72 817.23,-108"/>
<text text-anchor="middle" x="748.14" y="-85.8" font-family="Times,serif" font-size="14.00">DTEL&#45;SOTR_CONC</text>
</a>
</g>
</g>
<!-- CLAS&#45;CX_AMDP_VERSION_MISMATCH&#45;&gt;DTEL&#45;SOTR_CONC -->
<g id="edge1" class="edge">
<title>CLAS&#45;CX_AMDP_VERSION_MISMATCH&#45;&gt;DTEL&#45;SOTR_CONC</title>
<path fill="none" stroke="black" d="M654.45,-431.9C674.84,-423.97 695.92,-412.49 711.14,-396 739.28,-365.53 739.14,-348.47 739.14,-307 739.14,-307 739.14,-307 739.14,-233 739.14,-193 739.14,-146.65 741.44,-118.08"/>
<polygon fill="black" stroke="black" points="744.93,-118.35 742.43,-108.05 737.96,-117.65 744.93,-118.35"/>
</g>
<!-- CLAS&#45;CX_AMDP_VERSION_MISMATCH&#45;&gt;DTEL&#45;SOTR_CONC -->
<g id="edge6" class="edge">
<title>CLAS&#45;CX_AMDP_VERSION_MISMATCH&#45;&gt;DTEL&#45;SOTR_CONC</title>
<path fill="none" stroke="black" d="M671.63,-431.9C692.84,-423.97 713.92,-412.49 729.14,-396 757.28,-365.53 757.14,-348.47 757.14,-307 757.14,-307 757.14,-307 757.14,-233 757.14,-193 757.14,-146.65 754.85,-118.08"/>
<polygon fill="black" stroke="black" points="758.33,-117.65 753.86,-108.05 751.36,-118.35 758.33,-117.65"/>
</g>
<!-- CLAS&#45;CX_AMDP_VERSION_ERROR&#45;&gt;CLAS&#45;CX_AMDP_VERSION_MISMATCH -->
<g id="edge5" class="edge">
<title>CLAS&#45;CX_AMDP_VERSION_ERROR&#45;&gt;CLAS&#45;CX_AMDP_VERSION_MISMATCH</title>
<path fill="none" stroke="black" d="M589.14,-396.1C589.14,-403.79 589.14,-413.05 589.14,-421.67"/>
<polygon fill="black" stroke="black" points="585.64,-421.7 589.14,-431.7 592.64,-421.7 585.64,-421.7"/>
</g>
<!-- CLAS&#45;CX_AMDP_VERSION_ERROR&#45;&gt;DTEL&#45;SOTR_CONC -->
<g id="edge3" class="edge">
<title>CLAS&#45;CX_AMDP_VERSION_ERROR&#45;&gt;DTEL&#45;SOTR_CONC</title>
<path fill="none" stroke="black" d="M635.34,-359.96C652.35,-351.55 670.32,-339.76 682.14,-324 731.51,-258.21 699.12,-222.02 725.14,-144 728.06,-135.25 731.86,-125.94 735.52,-117.61"/>
<polygon fill="black" stroke="black" points="738.76,-118.92 739.69,-108.37 732.38,-116.04 738.76,-118.92"/>
</g>
<!-- CLAS&#45;CX_AMDP_ERROR -->
<g id="node5" class="node">
<title>CLAS&#45;CX_AMDP_ERROR</title>
<g id="a_node5"><a xlink:href="./CLAS_CX_AMDP_ERROR.html" xlink:title="CLAS&#45;CX_AMDP_ERROR">
<polygon fill="none" stroke="yellow" points="673.64,-324 496.65,-324 496.65,-288 673.64,-288 673.64,-324"/>
<text text-anchor="middle" x="585.14" y="-301.8" font-family="Times,serif" font-size="14.00">CLAS&#45;CX_AMDP_ERROR</text>
</a>
</g>
</g>
<!-- CLAS&#45;CX_AMDP_VERSION_ERROR&#45;&gt;CLAS&#45;CX_AMDP_ERROR -->
<g id="edge4" class="edge">
<title>CLAS&#45;CX_AMDP_VERSION_ERROR&#45;&gt;CLAS&#45;CX_AMDP_ERROR</title>
<path fill="none" stroke="black" d="M588.16,-359.7C587.71,-351.98 587.19,-342.71 586.69,-334.11"/>
<polygon fill="black" stroke="black" points="590.19,-333.89 586.12,-324.1 583.2,-334.29 590.19,-333.89"/>
</g>
<!-- DOMA&#45;SYSUUID_C -->
<g id="node4" class="node">
<title>DOMA&#45;SYSUUID_C</title>
<g id="a_node4"><a xlink:href="./DOMA_SYSUUID_C.html" xlink:title="DOMA&#45;SYSUUID_C">
<polygon fill="none" stroke="yellow" points="822.56,-36 681.73,-36 681.73,0 822.56,0 822.56,-36"/>
<text text-anchor="middle" x="752.14" y="-13.8" font-family="Times,serif" font-size="14.00">DOMA&#45;SYSUUID_C</text>
</a>
</g>
</g>
<!-- DTEL&#45;SOTR_CONC&#45;&gt;DOMA&#45;SYSUUID_C -->
<g id="edge8" class="edge">
<title>DTEL&#45;SOTR_CONC&#45;&gt;DOMA&#45;SYSUUID_C</title>
<path fill="none" stroke="black" d="M749.13,-71.7C749.57,-63.98 750.1,-54.71 750.6,-46.11"/>
<polygon fill="black" stroke="black" points="754.09,-46.29 751.17,-36.1 747.1,-45.89 754.09,-46.29"/>
</g>
<!-- CLAS&#45;CX_AMDP_ERROR&#45;&gt;DTEL&#45;SOTR_CONC -->
<g id="edge9" class="edge">
<title>CLAS&#45;CX_AMDP_ERROR&#45;&gt;DTEL&#45;SOTR_CONC</title>
<path fill="none" stroke="black" d="M593.82,-287.92C609.83,-257.27 646.16,-191.67 687.14,-144 696.09,-133.59 707.11,-123.4 717.31,-114.77"/>
<polygon fill="black" stroke="black" points="719.77,-117.28 725.26,-108.22 715.32,-111.88 719.77,-117.28"/>
</g>
<!-- CLAS&#45;CX_DYNAMIC_CHECK -->
<g id="node6" class="node">
<title>CLAS&#45;CX_DYNAMIC_CHECK</title>
<g id="a_node6"><a xlink:href="./CLAS_CX_DYNAMIC_CHECK.html" xlink:title="CLAS&#45;CX_DYNAMIC_CHECK">
<polygon fill="none" stroke="green" points="579.33,-252 374.96,-252 374.96,-216 579.33,-216 579.33,-252"/>
<text text-anchor="middle" x="477.14" y="-229.8" font-family="Times,serif" font-size="14.00">CLAS&#45;CX_DYNAMIC_CHECK</text>
</a>
</g>
</g>
<!-- CLAS&#45;CX_AMDP_ERROR&#45;&gt;CLAS&#45;CX_DYNAMIC_CHECK -->
<g id="edge10" class="edge">
<title>CLAS&#45;CX_AMDP_ERROR&#45;&gt;CLAS&#45;CX_DYNAMIC_CHECK</title>
<path fill="none" stroke="black" d="M558.72,-287.88C544.73,-278.81 527.37,-267.55 512.26,-257.76"/>
<polygon fill="black" stroke="black" points="513.96,-254.69 503.67,-252.19 510.15,-260.57 513.96,-254.69"/>
</g>
<!-- CLAS&#45;CX_ROOT -->
<g id="node7" class="node">
<title>CLAS&#45;CX_ROOT</title>
<g id="a_node7"><a xlink:href="./CLAS_CX_ROOT.html" xlink:title="CLAS&#45;CX_ROOT">
<polygon fill="none" stroke="green" points="527.63,-180 406.66,-180 406.66,-144 527.63,-144 527.63,-180"/>
<text text-anchor="middle" x="467.14" y="-157.8" font-family="Times,serif" font-size="14.00">CLAS&#45;CX_ROOT</text>
</a>
</g>
</g>
<!-- CLAS&#45;CX_DYNAMIC_CHECK&#45;&gt;CLAS&#45;CX_ROOT -->
<g id="edge11" class="edge">
<title>CLAS&#45;CX_DYNAMIC_CHECK&#45;&gt;CLAS&#45;CX_ROOT</title>
<path fill="none" stroke="black" d="M474.67,-215.7C473.57,-207.98 472.25,-198.71 471.02,-190.11"/>
<polygon fill="black" stroke="black" points="474.47,-189.51 469.59,-180.1 467.54,-190.5 474.47,-189.51"/>
</g>
<!-- CLAS&#45;CX_ROOT&#45;&gt;DTEL&#45;SOTR_CONC -->
<g id="edge12" class="edge">
<title>CLAS&#45;CX_ROOT&#45;&gt;DTEL&#45;SOTR_CONC</title>
<path fill="none" stroke="black" d="M527.77,-145.9C569.41,-135.53 625.06,-121.66 670.02,-110.46"/>
<polygon fill="black" stroke="black" points="670.87,-113.86 679.73,-108.04 669.18,-107.06 670.87,-113.86"/>
</g>
<!-- INTF&#45;IF_SERIALIZABLE_OBJECT -->
<g id="node8" class="node">
<title>INTF&#45;IF_SERIALIZABLE_OBJECT</title>
<g id="a_node8"><a xlink:href="./INTF_IF_SERIALIZABLE_OBJECT.html" xlink:title="INTF&#45;IF_SERIALIZABLE_OBJECT">
<polygon fill="none" stroke="green" points="228.43,-108 -0.14,-108 -0.14,-72 228.43,-72 228.43,-108"/>
<text text-anchor="middle" x="114.14" y="-85.8" font-family="Times,serif" font-size="14.00">INTF&#45;IF_SERIALIZABLE_OBJECT</text>
</a>
</g>
</g>
<!-- CLAS&#45;CX_ROOT&#45;&gt;INTF&#45;IF_SERIALIZABLE_OBJECT -->
<g id="edge16" class="edge">
<title>CLAS&#45;CX_ROOT&#45;&gt;INTF&#45;IF_SERIALIZABLE_OBJECT</title>
<path fill="none" stroke="black" d="M406.46,-148.97C352.48,-138.26 272.62,-122.43 210,-110.01"/>
<polygon fill="black" stroke="black" points="210.6,-106.56 200.11,-108.05 209.24,-113.43 210.6,-106.56"/>
</g>
<!-- INTF&#45;IF_MESSAGE -->
<g id="node9" class="node">
<title>INTF&#45;IF_MESSAGE</title>
<g id="a_node9"><a xlink:href="./INTF_IF_MESSAGE.html" xlink:title="INTF&#45;IF_MESSAGE">
<polygon fill="none" stroke="green" points="382.18,-108 246.11,-108 246.11,-72 382.18,-72 382.18,-108"/>
<text text-anchor="middle" x="314.14" y="-85.8" font-family="Times,serif" font-size="14.00">INTF&#45;IF_MESSAGE</text>
</a>
</g>
</g>
<!-- CLAS&#45;CX_ROOT&#45;&gt;INTF&#45;IF_MESSAGE -->
<g id="edge15" class="edge">
<title>CLAS&#45;CX_ROOT&#45;&gt;INTF&#45;IF_MESSAGE</title>
<path fill="none" stroke="black" d="M429.72,-143.88C408.89,-134.35 382.79,-122.41 360.66,-112.28"/>
<polygon fill="black" stroke="black" points="362,-109.05 351.45,-108.07 359.09,-115.41 362,-109.05"/>
</g>
<!-- DTEL&#45;SYREPID -->
<g id="node10" class="node">
<title>DTEL&#45;SYREPID</title>
<g id="a_node10"><a xlink:href="./DTEL_SYREPID.html" xlink:title="DTEL&#45;SYREPID">
<polygon fill="none" stroke="green" points="515.4,-108 400.89,-108 400.89,-72 515.4,-72 515.4,-108"/>
<text text-anchor="middle" x="458.14" y="-85.8" font-family="Times,serif" font-size="14.00">DTEL&#45;SYREPID</text>
</a>
</g>
</g>
<!-- CLAS&#45;CX_ROOT&#45;&gt;DTEL&#45;SYREPID -->
<g id="edge14" class="edge">
<title>CLAS&#45;CX_ROOT&#45;&gt;DTEL&#45;SYREPID</title>
<path fill="none" stroke="black" d="M464.92,-143.7C463.93,-135.98 462.74,-126.71 461.63,-118.11"/>
<polygon fill="black" stroke="black" points="465.09,-117.58 460.34,-108.1 458.15,-118.47 465.09,-117.58"/>
</g>
<!-- DTEL&#45;S380ERRID -->
<g id="node12" class="node">
<title>DTEL&#45;S380ERRID</title>
<g id="a_node12"><a xlink:href="./DTEL_S380ERRID.html" xlink:title="DTEL&#45;S380ERRID">
<polygon fill="none" stroke="yellow" points="660.85,-108 533.44,-108 533.44,-72 660.85,-72 660.85,-108"/>
<text text-anchor="middle" x="597.14" y="-85.8" font-family="Times,serif" font-size="14.00">DTEL&#45;S380ERRID</text>
</a>
</g>
</g>
<!-- CLAS&#45;CX_ROOT&#45;&gt;DTEL&#45;S380ERRID -->
<g id="edge13" class="edge">
<title>CLAS&#45;CX_ROOT&#45;&gt;DTEL&#45;S380ERRID</title>
<path fill="none" stroke="black" d="M498.95,-143.88C516.26,-134.55 537.87,-122.92 556.4,-112.94"/>
<polygon fill="black" stroke="black" points="558.08,-116.01 565.22,-108.19 554.76,-109.85 558.08,-116.01"/>
</g>
<!-- DOMA&#45;PROGRAMM -->
<g id="node11" class="node">
<title>DOMA&#45;PROGRAMM</title>
<g id="a_node11"><a xlink:href="./DOMA_PROGRAMM.html" xlink:title="DOMA&#45;PROGRAMM">
<polygon fill="none" stroke="yellow" points="511.73,-36 366.55,-36 366.55,0 511.73,0 511.73,-36"/>
<text text-anchor="middle" x="439.14" y="-13.8" font-family="Times,serif" font-size="14.00">DOMA&#45;PROGRAMM</text>
</a>
</g>
</g>
<!-- DTEL&#45;SYREPID&#45;&gt;DOMA&#45;PROGRAMM -->
<g id="edge17" class="edge">
<title>DTEL&#45;SYREPID&#45;&gt;DOMA&#45;PROGRAMM</title>
<path fill="none" stroke="black" d="M453.45,-71.7C451.33,-63.9 448.78,-54.51 446.43,-45.83"/>
<polygon fill="black" stroke="black" points="449.78,-44.84 443.79,-36.1 443.03,-46.67 449.78,-44.84"/>
</g>
<!-- DOMA&#45;SYCHAR30 -->
<g id="node13" class="node">
<title>DOMA&#45;SYCHAR30</title>
<g id="a_node13"><a xlink:href="./DOMA_SYCHAR30.html" xlink:title="DOMA&#45;SYCHAR30">
<polygon fill="none" stroke="yellow" points="664.35,-36 529.94,-36 529.94,0 664.35,0 664.35,-36"/>
<text text-anchor="middle" x="597.14" y="-13.8" font-family="Times,serif" font-size="14.00">DOMA&#45;SYCHAR30</text>
</a>
</g>
</g>
<!-- DTEL&#45;S380ERRID&#45;&gt;DOMA&#45;SYCHAR30 -->
<g id="edge18" class="edge">
<title>DTEL&#45;S380ERRID&#45;&gt;DOMA&#45;SYCHAR30</title>
<path fill="none" stroke="black" d="M597.14,-71.7C597.14,-63.98 597.14,-54.71 597.14,-46.11"/>
<polygon fill="black" stroke="black" points="600.64,-46.1 597.14,-36.1 593.64,-46.1 600.64,-46.1"/>
</g>
</g>
</svg>
