<?xml version="1.0" encoding="UTF-8" standalone="no"?>
<!DOCTYPE svg PUBLIC "-//W3C//DTD SVG 1.1//EN"
 "http://www.w3.org/Graphics/SVG/1.1/DTD/svg11.dtd">
<!-- Generated by graphviz version 2.47.3 (20210619.1520)
 -->
<!-- Title: G Pages: 1 -->
<svg width="1558pt" height="404pt"
 viewBox="0.00 0.00 1557.81 404.00" xmlns="http://www.w3.org/2000/svg" xmlns:xlink="http://www.w3.org/1999/xlink">
<g id="graph0" class="graph" transform="scale(1 1) rotate(0) translate(4 400)">
<title>G</title>
<polygon fill="white" stroke="transparent" points="-4,4 -4,-400 1553.81,-400 1553.81,4 -4,4"/>
<!-- CLAS&#45;CX_ABAP_CONTEXT_INFO_ERROR -->
<g id="node1" class="node">
<title>CLAS&#45;CX_ABAP_CONTEXT_INFO_ERROR</title>
<polygon fill="none" stroke="green" points="1348.95,-396 1063.25,-396 1063.25,-360 1348.95,-360 1348.95,-396"/>
<text text-anchor="middle" x="1206.1" y="-373.8" font-family="Times,serif" font-size="14.00">CLAS&#45;CX_ABAP_CONTEXT_INFO_ERROR</text>
</g>
<!-- INTF&#45;IF_T100_MESSAGE -->
<g id="node2" class="node">
<title>INTF&#45;IF_T100_MESSAGE</title>
<g id="a_node2"><a xlink:href="./INTF_IF_T100_MESSAGE.html" xlink:title="INTF&#45;IF_T100_MESSAGE">
<polygon fill="none" stroke="green" points="1350.69,-252 1177.51,-252 1177.51,-216 1350.69,-216 1350.69,-252"/>
<text text-anchor="middle" x="1264.1" y="-229.8" font-family="Times,serif" font-size="14.00">INTF&#45;IF_T100_MESSAGE</text>
</a>
</g>
</g>
<!-- CLAS&#45;CX_ABAP_CONTEXT_INFO_ERROR&#45;&gt;INTF&#45;IF_T100_MESSAGE -->
<g id="edge6" class="edge">
<title>CLAS&#45;CX_ABAP_CONTEXT_INFO_ERROR&#45;&gt;INTF&#45;IF_T100_MESSAGE</title>
<path fill="none" stroke="black" d="M1213.1,-359.87C1223.07,-335.46 1241.46,-290.43 1253.22,-261.64"/>
<polygon fill="black" stroke="black" points="1256.54,-262.77 1257.08,-252.19 1250.06,-260.12 1256.54,-262.77"/>
</g>
<!-- DTEL&#45;SCX_ATTRNAME -->
<g id="node5" class="node">
<title>DTEL&#45;SCX_ATTRNAME</title>
<g id="a_node5"><a xlink:href="./DTEL_SCX_ATTRNAME.html" xlink:title="DTEL&#45;SCX_ATTRNAME">
<polygon fill="none" stroke="green" points="1412.51,-108 1243.69,-108 1243.69,-72 1412.51,-72 1412.51,-108"/>
<text text-anchor="middle" x="1328.1" y="-85.8" font-family="Times,serif" font-size="14.00">DTEL&#45;SCX_ATTRNAME</text>
</a>
</g>
</g>
<!-- CLAS&#45;CX_ABAP_CONTEXT_INFO_ERROR&#45;&gt;DTEL&#45;SCX_ATTRNAME -->
<g id="edge3" class="edge">
<title>CLAS&#45;CX_ABAP_CONTEXT_INFO_ERROR&#45;&gt;DTEL&#45;SCX_ATTRNAME</title>
<path fill="none" stroke="black" d="M1238.76,-359.81C1289.41,-330.85 1384.01,-266.87 1412.1,-180 1417.02,-164.78 1419.83,-158.01 1412.1,-144 1405,-131.12 1393.3,-120.94 1380.86,-113.08"/>
<polygon fill="black" stroke="black" points="1382.57,-110.03 1372.17,-108.02 1379.05,-116.08 1382.57,-110.03"/>
</g>
<!-- DTEL&#45;SYMSGNO -->
<g id="node6" class="node">
<title>DTEL&#45;SYMSGNO</title>
<g id="a_node6"><a xlink:href="./DTEL_SYMSGNO.html" xlink:title="DTEL&#45;SYMSGNO">
<polygon fill="none" stroke="green" points="1225.46,-108 1100.74,-108 1100.74,-72 1225.46,-72 1225.46,-108"/>
<text text-anchor="middle" x="1163.1" y="-85.8" font-family="Times,serif" font-size="14.00">DTEL&#45;SYMSGNO</text>
</a>
</g>
</g>
<!-- CLAS&#45;CX_ABAP_CONTEXT_INFO_ERROR&#45;&gt;DTEL&#45;SYMSGNO -->
<g id="edge2" class="edge">
<title>CLAS&#45;CX_ABAP_CONTEXT_INFO_ERROR&#45;&gt;DTEL&#45;SYMSGNO</title>
<path fill="none" stroke="black" d="M1199.34,-359.95C1190.29,-336.2 1174.62,-291.61 1168.1,-252 1160.46,-205.59 1160.7,-150.68 1161.77,-118.46"/>
<polygon fill="black" stroke="black" points="1165.28,-118.19 1162.16,-108.06 1158.28,-117.92 1165.28,-118.19"/>
</g>
<!-- DTEL&#45;SYMSGID -->
<g id="node8" class="node">
<title>DTEL&#45;SYMSGID</title>
<g id="a_node8"><a xlink:href="./DTEL_SYMSGID.html" xlink:title="DTEL&#45;SYMSGID">
<polygon fill="none" stroke="green" points="1550.02,-108 1430.18,-108 1430.18,-72 1550.02,-72 1550.02,-108"/>
<text text-anchor="middle" x="1490.1" y="-85.8" font-family="Times,serif" font-size="14.00">DTEL&#45;SYMSGID</text>
</a>
</g>
</g>
<!-- CLAS&#45;CX_ABAP_CONTEXT_INFO_ERROR&#45;&gt;DTEL&#45;SYMSGID -->
<g id="edge1" class="edge">
<title>CLAS&#45;CX_ABAP_CONTEXT_INFO_ERROR&#45;&gt;DTEL&#45;SYMSGID</title>
<path fill="none" stroke="black" d="M1257.43,-359.94C1280.17,-351.09 1306.59,-338.98 1328.1,-324 1405.64,-270.01 1457.92,-166.14 1479.27,-117.43"/>
<polygon fill="black" stroke="black" points="1482.51,-118.76 1483.24,-108.19 1476.08,-115.99 1482.51,-118.76"/>
</g>
<!-- INTF&#45;IF_T100_DYN_MSG -->
<g id="node10" class="node">
<title>INTF&#45;IF_T100_DYN_MSG</title>
<g id="a_node10"><a xlink:href="./INTF_IF_T100_DYN_MSG.html" xlink:title="INTF&#45;IF_T100_DYN_MSG">
<polygon fill="none" stroke="green" points="917.01,-324 741.19,-324 741.19,-288 917.01,-288 917.01,-324"/>
<text text-anchor="middle" x="829.1" y="-301.8" font-family="Times,serif" font-size="14.00">INTF&#45;IF_T100_DYN_MSG</text>
</a>
</g>
</g>
<!-- CLAS&#45;CX_ABAP_CONTEXT_INFO_ERROR&#45;&gt;INTF&#45;IF_T100_DYN_MSG -->
<g id="edge5" class="edge">
<title>CLAS&#45;CX_ABAP_CONTEXT_INFO_ERROR&#45;&gt;INTF&#45;IF_T100_DYN_MSG</title>
<path fill="none" stroke="black" d="M1114.36,-359.97C1057.59,-349.43 984.77,-335.9 926.91,-325.16"/>
<polygon fill="black" stroke="black" points="927.5,-321.71 917.03,-323.33 926.22,-328.59 927.5,-321.71"/>
</g>
<!-- CLAS&#45;CX_STATIC_CHECK -->
<g id="node15" class="node">
<title>CLAS&#45;CX_STATIC_CHECK</title>
<g id="a_node15"><a xlink:href="./CLAS_CX_STATIC_CHECK.html" xlink:title="CLAS&#45;CX_STATIC_CHECK">
<polygon fill="none" stroke="green" points="1121.41,-324 934.79,-324 934.79,-288 1121.41,-288 1121.41,-324"/>
<text text-anchor="middle" x="1028.1" y="-301.8" font-family="Times,serif" font-size="14.00">CLAS&#45;CX_STATIC_CHECK</text>
</a>
</g>
</g>
<!-- CLAS&#45;CX_ABAP_CONTEXT_INFO_ERROR&#45;&gt;CLAS&#45;CX_STATIC_CHECK -->
<g id="edge4" class="edge">
<title>CLAS&#45;CX_ABAP_CONTEXT_INFO_ERROR&#45;&gt;CLAS&#45;CX_STATIC_CHECK</title>
<path fill="none" stroke="black" d="M1162.56,-359.88C1137.9,-350.18 1106.88,-337.98 1080.85,-327.74"/>
<polygon fill="black" stroke="black" points="1082.09,-324.47 1071.5,-324.07 1079.53,-330.99 1082.09,-324.47"/>
</g>
<!-- INTF&#45;IF_MESSAGE -->
<g id="node3" class="node">
<title>INTF&#45;IF_MESSAGE</title>
<g id="a_node3"><a xlink:href="./INTF_IF_MESSAGE.html" xlink:title="INTF&#45;IF_MESSAGE">
<polygon fill="none" stroke="green" points="1121.14,-180 985.07,-180 985.07,-144 1121.14,-144 1121.14,-180"/>
<text text-anchor="middle" x="1053.1" y="-157.8" font-family="Times,serif" font-size="14.00">INTF&#45;IF_MESSAGE</text>
</a>
</g>
</g>
<!-- INTF&#45;IF_T100_MESSAGE&#45;&gt;INTF&#45;IF_MESSAGE -->
<g id="edge11" class="edge">
<title>INTF&#45;IF_T100_MESSAGE&#45;&gt;INTF&#45;IF_MESSAGE</title>
<path fill="none" stroke="black" d="M1212.75,-215.97C1183.14,-206.14 1145.73,-193.73 1114.56,-183.39"/>
<polygon fill="black" stroke="black" points="1115.27,-179.94 1104.68,-180.11 1113.07,-186.58 1115.27,-179.94"/>
</g>
<!-- TABL&#45;SCX_T100KEY -->
<g id="node4" class="node">
<title>TABL&#45;SCX_T100KEY</title>
<g id="a_node4"><a xlink:href="./TABL_SCX_T100KEY.html" xlink:title="TABL&#45;SCX_T100KEY">
<polygon fill="none" stroke="yellow" points="1402.85,-180 1253.35,-180 1253.35,-144 1402.85,-144 1402.85,-180"/>
<text text-anchor="middle" x="1328.1" y="-157.8" font-family="Times,serif" font-size="14.00">TABL&#45;SCX_T100KEY</text>
</a>
</g>
</g>
<!-- INTF&#45;IF_T100_MESSAGE&#45;&gt;TABL&#45;SCX_T100KEY -->
<g id="edge10" class="edge">
<title>INTF&#45;IF_T100_MESSAGE&#45;&gt;TABL&#45;SCX_T100KEY</title>
<path fill="none" stroke="black" d="M1279.92,-215.7C1287.67,-207.22 1297.14,-196.86 1305.62,-187.58"/>
<polygon fill="black" stroke="black" points="1308.3,-189.85 1312.46,-180.1 1303.13,-185.12 1308.3,-189.85"/>
</g>
<!-- INTF&#45;IF_T100_MESSAGE&#45;&gt;DTEL&#45;SCX_ATTRNAME -->
<g id="edge9" class="edge">
<title>INTF&#45;IF_T100_MESSAGE&#45;&gt;DTEL&#45;SCX_ATTRNAME</title>
<path fill="none" stroke="black" d="M1253.53,-215.93C1243.44,-197.24 1231.48,-166.88 1244.1,-144 1251.2,-131.12 1262.9,-120.94 1275.34,-113.08"/>
<polygon fill="black" stroke="black" points="1277.15,-116.08 1284.03,-108.02 1273.63,-110.03 1277.15,-116.08"/>
</g>
<!-- INTF&#45;IF_T100_MESSAGE&#45;&gt;DTEL&#45;SYMSGNO -->
<g id="edge8" class="edge">
<title>INTF&#45;IF_T100_MESSAGE&#45;&gt;DTEL&#45;SYMSGNO</title>
<path fill="none" stroke="black" d="M1251.92,-215.87C1234.32,-191.14 1201.68,-145.24 1181.25,-116.51"/>
<polygon fill="black" stroke="black" points="1183.97,-114.31 1175.33,-108.19 1178.27,-118.37 1183.97,-114.31"/>
</g>
<!-- INTF&#45;IF_T100_MESSAGE&#45;&gt;DTEL&#45;SYMSGID -->
<g id="edge7" class="edge">
<title>INTF&#45;IF_T100_MESSAGE&#45;&gt;DTEL&#45;SYMSGID</title>
<path fill="none" stroke="black" d="M1334.23,-215.9C1360.09,-207.6 1388.75,-195.89 1412.1,-180 1437.11,-162.98 1459.15,-136.11 1473.36,-116.34"/>
<polygon fill="black" stroke="black" points="1476.27,-118.28 1479.14,-108.08 1470.54,-114.26 1476.27,-118.28"/>
</g>
<!-- TABL&#45;SCX_T100KEY&#45;&gt;DTEL&#45;SCX_ATTRNAME -->
<g id="edge14" class="edge">
<title>TABL&#45;SCX_T100KEY&#45;&gt;DTEL&#45;SCX_ATTRNAME</title>
<path fill="none" stroke="black" d="M1328.1,-143.7C1328.1,-135.98 1328.1,-126.71 1328.1,-118.11"/>
<polygon fill="black" stroke="black" points="1331.6,-118.1 1328.1,-108.1 1324.6,-118.1 1331.6,-118.1"/>
</g>
<!-- TABL&#45;SCX_T100KEY&#45;&gt;DTEL&#45;SYMSGNO -->
<g id="edge13" class="edge">
<title>TABL&#45;SCX_T100KEY&#45;&gt;DTEL&#45;SYMSGNO</title>
<path fill="none" stroke="black" d="M1287.74,-143.88C1265.08,-134.26 1236.63,-122.19 1212.63,-112.01"/>
<polygon fill="black" stroke="black" points="1213.91,-108.75 1203.33,-108.07 1211.17,-115.2 1213.91,-108.75"/>
</g>
<!-- TABL&#45;SCX_T100KEY&#45;&gt;DTEL&#45;SYMSGID -->
<g id="edge12" class="edge">
<title>TABL&#45;SCX_T100KEY&#45;&gt;DTEL&#45;SYMSGID</title>
<path fill="none" stroke="black" d="M1367.73,-143.88C1389.88,-134.31 1417.66,-122.3 1441.16,-112.15"/>
<polygon fill="black" stroke="black" points="1442.81,-115.25 1450.6,-108.07 1440.03,-108.82 1442.81,-115.25"/>
</g>
<!-- DOMA&#45;SYMSGNO -->
<g id="node7" class="node">
<title>DOMA&#45;SYMSGNO</title>
<g id="a_node7"><a xlink:href="./DOMA_SYMSGNO.html" xlink:title="DOMA&#45;SYMSGNO">
<polygon fill="none" stroke="yellow" points="1228.96,-36 1097.24,-36 1097.24,0 1228.96,0 1228.96,-36"/>
<text text-anchor="middle" x="1163.1" y="-13.8" font-family="Times,serif" font-size="14.00">DOMA&#45;SYMSGNO</text>
</a>
</g>
</g>
<!-- DTEL&#45;SYMSGNO&#45;&gt;DOMA&#45;SYMSGNO -->
<g id="edge15" class="edge">
<title>DTEL&#45;SYMSGNO&#45;&gt;DOMA&#45;SYMSGNO</title>
<path fill="none" stroke="black" d="M1163.1,-71.7C1163.1,-63.98 1163.1,-54.71 1163.1,-46.11"/>
<polygon fill="black" stroke="black" points="1166.6,-46.1 1163.1,-36.1 1159.6,-46.1 1166.6,-46.1"/>
</g>
<!-- DOMA&#45;ARBGB -->
<g id="node9" class="node">
<title>DOMA&#45;ARBGB</title>
<g id="a_node9"><a xlink:href="./DOMA_ARBGB.html" xlink:title="DOMA&#45;ARBGB">
<polygon fill="none" stroke="yellow" points="1545.75,-36 1434.45,-36 1434.45,0 1545.75,0 1545.75,-36"/>
<text text-anchor="middle" x="1490.1" y="-13.8" font-family="Times,serif" font-size="14.00">DOMA&#45;ARBGB</text>
</a>
</g>
</g>
<!-- DTEL&#45;SYMSGID&#45;&gt;DOMA&#45;ARBGB -->
<g id="edge16" class="edge">
<title>DTEL&#45;SYMSGID&#45;&gt;DOMA&#45;ARBGB</title>
<path fill="none" stroke="black" d="M1490.1,-71.7C1490.1,-63.98 1490.1,-54.71 1490.1,-46.11"/>
<polygon fill="black" stroke="black" points="1493.6,-46.1 1490.1,-36.1 1486.6,-46.1 1493.6,-46.1"/>
</g>
<!-- INTF&#45;IF_T100_DYN_MSG&#45;&gt;INTF&#45;IF_T100_MESSAGE -->
<g id="edge20" class="edge">
<title>INTF&#45;IF_T100_DYN_MSG&#45;&gt;INTF&#45;IF_T100_MESSAGE</title>
<path fill="none" stroke="black" d="M916.86,-289.55C919.98,-289.02 923.06,-288.5 926.1,-288 1007.33,-274.51 1099.71,-260.09 1167.33,-249.7"/>
<polygon fill="black" stroke="black" points="1168.19,-253.11 1177.55,-248.13 1167.13,-246.19 1168.19,-253.11"/>
</g>
<!-- INTF&#45;IF_T100_DYN_MSG&#45;&gt;INTF&#45;IF_MESSAGE -->
<g id="edge19" class="edge">
<title>INTF&#45;IF_T100_DYN_MSG&#45;&gt;INTF&#45;IF_MESSAGE</title>
<path fill="none" stroke="black" d="M856.12,-287.87C896.48,-262.28 972.57,-214.05 1017.45,-185.6"/>
<polygon fill="black" stroke="black" points="1019.41,-188.5 1025.98,-180.19 1015.66,-182.59 1019.41,-188.5"/>
</g>
<!-- DTEL&#45;SYMSGTY -->
<g id="node11" class="node">
<title>DTEL&#45;SYMSGTY</title>
<g id="a_node11"><a xlink:href="./DTEL_SYMSGTY.html" xlink:title="DTEL&#45;SYMSGTY">
<polygon fill="none" stroke="green" points="200.91,-252 77.29,-252 77.29,-216 200.91,-216 200.91,-252"/>
<text text-anchor="middle" x="139.1" y="-229.8" font-family="Times,serif" font-size="14.00">DTEL&#45;SYMSGTY</text>
</a>
</g>
</g>
<!-- INTF&#45;IF_T100_DYN_MSG&#45;&gt;DTEL&#45;SYMSGTY -->
<g id="edge18" class="edge">
<title>INTF&#45;IF_T100_DYN_MSG&#45;&gt;DTEL&#45;SYMSGTY</title>
<path fill="none" stroke="black" d="M741.36,-296.1C603.36,-282.1 338.21,-255.2 210.84,-242.28"/>
<polygon fill="black" stroke="black" points="211.11,-238.79 200.8,-241.26 210.4,-245.75 211.11,-238.79"/>
</g>
<!-- DTEL&#45;SYMSGV -->
<g id="node13" class="node">
<title>DTEL&#45;SYMSGV</title>
<g id="a_node13"><a xlink:href="./DTEL_SYMSGV.html" xlink:title="DTEL&#45;SYMSGV">
<polygon fill="none" stroke="green" points="614.36,-252 499.85,-252 499.85,-216 614.36,-216 614.36,-252"/>
<text text-anchor="middle" x="557.1" y="-229.8" font-family="Times,serif" font-size="14.00">DTEL&#45;SYMSGV</text>
</a>
</g>
</g>
<!-- INTF&#45;IF_T100_DYN_MSG&#45;&gt;DTEL&#45;SYMSGV -->
<g id="edge17" class="edge">
<title>INTF&#45;IF_T100_DYN_MSG&#45;&gt;DTEL&#45;SYMSGV</title>
<path fill="none" stroke="black" d="M762.91,-287.97C720.98,-277.18 666.91,-263.26 624.71,-252.4"/>
<polygon fill="black" stroke="black" points="625.36,-248.95 614.81,-249.85 623.62,-255.73 625.36,-248.95"/>
</g>
<!-- DOMA&#45;SYCHAR01 -->
<g id="node12" class="node">
<title>DOMA&#45;SYCHAR01</title>
<g id="a_node12"><a xlink:href="./DOMA_SYCHAR01.html" xlink:title="DOMA&#45;SYCHAR01">
<polygon fill="none" stroke="yellow" points="134.3,-180 -0.1,-180 -0.1,-144 134.3,-144 134.3,-180"/>
<text text-anchor="middle" x="67.1" y="-157.8" font-family="Times,serif" font-size="14.00">DOMA&#45;SYCHAR01</text>
</a>
</g>
</g>
<!-- DTEL&#45;SYMSGTY&#45;&gt;DOMA&#45;SYCHAR01 -->
<g id="edge21" class="edge">
<title>DTEL&#45;SYMSGTY&#45;&gt;DOMA&#45;SYCHAR01</title>
<path fill="none" stroke="black" d="M121.3,-215.7C112.5,-207.14 101.72,-196.66 92.1,-187.3"/>
<polygon fill="black" stroke="black" points="94.3,-184.57 84.69,-180.1 89.42,-189.58 94.3,-184.57"/>
</g>
<!-- DOMA&#45;SYCHAR50 -->
<g id="node14" class="node">
<title>DOMA&#45;SYCHAR50</title>
<g id="a_node14"><a xlink:href="./DOMA_SYCHAR50.html" xlink:title="DOMA&#45;SYCHAR50">
<polygon fill="none" stroke="yellow" points="286.3,-180 151.9,-180 151.9,-144 286.3,-144 286.3,-180"/>
<text text-anchor="middle" x="219.1" y="-157.8" font-family="Times,serif" font-size="14.00">DOMA&#45;SYCHAR50</text>
</a>
</g>
</g>
<!-- DTEL&#45;SYMSGV&#45;&gt;DOMA&#45;SYCHAR50 -->
<g id="edge22" class="edge">
<title>DTEL&#45;SYMSGV&#45;&gt;DOMA&#45;SYCHAR50</title>
<path fill="none" stroke="black" d="M499.79,-221.76C448.94,-211.7 372.38,-196.37 296.44,-180.27"/>
<polygon fill="black" stroke="black" points="296.73,-176.75 286.22,-178.09 295.27,-183.6 296.73,-176.75"/>
</g>
<!-- CLAS&#45;CX_ROOT -->
<g id="node16" class="node">
<title>CLAS&#45;CX_ROOT</title>
<g id="a_node16"><a xlink:href="./CLAS_CX_ROOT.html" xlink:title="CLAS&#45;CX_ROOT">
<polygon fill="none" stroke="green" points="894.58,-252 773.62,-252 773.62,-216 894.58,-216 894.58,-252"/>
<text text-anchor="middle" x="834.1" y="-229.8" font-family="Times,serif" font-size="14.00">CLAS&#45;CX_ROOT</text>
</a>
</g>
</g>
<!-- CLAS&#45;CX_STATIC_CHECK&#45;&gt;CLAS&#45;CX_ROOT -->
<g id="edge23" class="edge">
<title>CLAS&#45;CX_STATIC_CHECK&#45;&gt;CLAS&#45;CX_ROOT</title>
<path fill="none" stroke="black" d="M980.64,-287.88C953.53,-278.09 919.36,-265.77 890.84,-255.47"/>
<polygon fill="black" stroke="black" points="892,-252.17 881.4,-252.07 889.62,-258.75 892,-252.17"/>
</g>
<!-- CLAS&#45;CX_ROOT&#45;&gt;INTF&#45;IF_MESSAGE -->
<g id="edge27" class="edge">
<title>CLAS&#45;CX_ROOT&#45;&gt;INTF&#45;IF_MESSAGE</title>
<path fill="none" stroke="black" d="M887.39,-215.97C918.26,-206.1 957.3,-193.62 989.73,-183.25"/>
<polygon fill="black" stroke="black" points="991.11,-186.49 999.57,-180.11 988.98,-179.82 991.11,-186.49"/>
</g>
<!-- INTF&#45;IF_SERIALIZABLE_OBJECT -->
<g id="node17" class="node">
<title>INTF&#45;IF_SERIALIZABLE_OBJECT</title>
<g id="a_node17"><a xlink:href="./INTF_IF_SERIALIZABLE_OBJECT.html" xlink:title="INTF&#45;IF_SERIALIZABLE_OBJECT">
<polygon fill="none" stroke="green" points="688.39,-180 459.81,-180 459.81,-144 688.39,-144 688.39,-180"/>
<text text-anchor="middle" x="574.1" y="-157.8" font-family="Times,serif" font-size="14.00">INTF&#45;IF_SERIALIZABLE_OBJECT</text>
</a>
</g>
</g>
<!-- CLAS&#45;CX_ROOT&#45;&gt;INTF&#45;IF_SERIALIZABLE_OBJECT -->
<g id="edge28" class="edge">
<title>CLAS&#45;CX_ROOT&#45;&gt;INTF&#45;IF_SERIALIZABLE_OBJECT</title>
<path fill="none" stroke="black" d="M773.47,-216.68C735.76,-206.52 687.05,-193.41 647.21,-182.68"/>
<polygon fill="black" stroke="black" points="648.11,-179.3 637.55,-180.08 646.29,-186.06 648.11,-179.3"/>
</g>
<!-- DTEL&#45;SYREPID -->
<g id="node18" class="node">
<title>DTEL&#45;SYREPID</title>
<g id="a_node18"><a xlink:href="./DTEL_SYREPID.html" xlink:title="DTEL&#45;SYREPID">
<polygon fill="none" stroke="green" points="821.35,-180 706.85,-180 706.85,-144 821.35,-144 821.35,-180"/>
<text text-anchor="middle" x="764.1" y="-157.8" font-family="Times,serif" font-size="14.00">DTEL&#45;SYREPID</text>
</a>
</g>
</g>
<!-- CLAS&#45;CX_ROOT&#45;&gt;DTEL&#45;SYREPID -->
<g id="edge26" class="edge">
<title>CLAS&#45;CX_ROOT&#45;&gt;DTEL&#45;SYREPID</title>
<path fill="none" stroke="black" d="M816.8,-215.7C808.24,-207.14 797.76,-196.66 788.4,-187.3"/>
<polygon fill="black" stroke="black" points="790.75,-184.7 781.2,-180.1 785.8,-189.65 790.75,-184.7"/>
</g>
<!-- DTEL&#45;S380ERRID -->
<g id="node20" class="node">
<title>DTEL&#45;S380ERRID</title>
<g id="a_node20"><a xlink:href="./DTEL_S380ERRID.html" xlink:title="DTEL&#45;S380ERRID">
<polygon fill="none" stroke="yellow" points="966.8,-180 839.4,-180 839.4,-144 966.8,-144 966.8,-180"/>
<text text-anchor="middle" x="903.1" y="-157.8" font-family="Times,serif" font-size="14.00">DTEL&#45;S380ERRID</text>
</a>
</g>
</g>
<!-- CLAS&#45;CX_ROOT&#45;&gt;DTEL&#45;S380ERRID -->
<g id="edge25" class="edge">
<title>CLAS&#45;CX_ROOT&#45;&gt;DTEL&#45;S380ERRID</title>
<path fill="none" stroke="black" d="M851.16,-215.7C859.6,-207.14 869.92,-196.66 879.14,-187.3"/>
<polygon fill="black" stroke="black" points="881.71,-189.68 886.24,-180.1 876.73,-184.77 881.71,-189.68"/>
</g>
<!-- DTEL&#45;SOTR_CONC -->
<g id="node22" class="node">
<title>DTEL&#45;SOTR_CONC</title>
<g id="a_node22"><a xlink:href="./DTEL_SOTR_CONC.html" xlink:title="DTEL&#45;SOTR_CONC">
<polygon fill="none" stroke="yellow" points="442.19,-180 304.01,-180 304.01,-144 442.19,-144 442.19,-180"/>
<text text-anchor="middle" x="373.1" y="-157.8" font-family="Times,serif" font-size="14.00">DTEL&#45;SOTR_CONC</text>
</a>
</g>
</g>
<!-- CLAS&#45;CX_ROOT&#45;&gt;DTEL&#45;SOTR_CONC -->
<g id="edge24" class="edge">
<title>CLAS&#45;CX_ROOT&#45;&gt;DTEL&#45;SOTR_CONC</title>
<path fill="none" stroke="black" d="M773.51,-226.08C699.88,-217.34 571.69,-201.08 452.41,-180.16"/>
<polygon fill="black" stroke="black" points="452.82,-176.68 442.37,-178.39 451.61,-183.58 452.82,-176.68"/>
</g>
<!-- DOMA&#45;PROGRAMM -->
<g id="node19" class="node">
<title>DOMA&#45;PROGRAMM</title>
<g id="a_node19"><a xlink:href="./DOMA_PROGRAMM.html" xlink:title="DOMA&#45;PROGRAMM">
<polygon fill="none" stroke="yellow" points="826.69,-108 681.51,-108 681.51,-72 826.69,-72 826.69,-108"/>
<text text-anchor="middle" x="754.1" y="-85.8" font-family="Times,serif" font-size="14.00">DOMA&#45;PROGRAMM</text>
</a>
</g>
</g>
<!-- DTEL&#45;SYREPID&#45;&gt;DOMA&#45;PROGRAMM -->
<g id="edge29" class="edge">
<title>DTEL&#45;SYREPID&#45;&gt;DOMA&#45;PROGRAMM</title>
<path fill="none" stroke="black" d="M761.63,-143.7C760.53,-135.98 759.2,-126.71 757.97,-118.11"/>
<polygon fill="black" stroke="black" points="761.42,-117.51 756.54,-108.1 754.49,-118.5 761.42,-117.51"/>
</g>
<!-- DOMA&#45;SYCHAR30 -->
<g id="node21" class="node">
<title>DOMA&#45;SYCHAR30</title>
<g id="a_node21"><a xlink:href="./DOMA_SYCHAR30.html" xlink:title="DOMA&#45;SYCHAR30">
<polygon fill="none" stroke="yellow" points="979.3,-108 844.9,-108 844.9,-72 979.3,-72 979.3,-108"/>
<text text-anchor="middle" x="912.1" y="-85.8" font-family="Times,serif" font-size="14.00">DOMA&#45;SYCHAR30</text>
</a>
</g>
</g>
<!-- DTEL&#45;S380ERRID&#45;&gt;DOMA&#45;SYCHAR30 -->
<g id="edge30" class="edge">
<title>DTEL&#45;S380ERRID&#45;&gt;DOMA&#45;SYCHAR30</title>
<path fill="none" stroke="black" d="M905.33,-143.7C906.32,-135.98 907.51,-126.71 908.61,-118.11"/>
<polygon fill="black" stroke="black" points="912.1,-118.47 909.9,-108.1 905.15,-117.58 912.1,-118.47"/>
</g>
<!-- DOMA&#45;SYSUUID_C -->
<g id="node23" class="node">
<title>DOMA&#45;SYSUUID_C</title>
<g id="a_node23"><a xlink:href="./DOMA_SYSUUID_C.html" xlink:title="DOMA&#45;SYSUUID_C">
<polygon fill="none" stroke="yellow" points="443.51,-108 302.69,-108 302.69,-72 443.51,-72 443.51,-108"/>
<text text-anchor="middle" x="373.1" y="-85.8" font-family="Times,serif" font-size="14.00">DOMA&#45;SYSUUID_C</text>
</a>
</g>
</g>
<!-- DTEL&#45;SOTR_CONC&#45;&gt;DOMA&#45;SYSUUID_C -->
<g id="edge31" class="edge">
<title>DTEL&#45;SOTR_CONC&#45;&gt;DOMA&#45;SYSUUID_C</title>
<path fill="none" stroke="black" d="M373.1,-143.7C373.1,-135.98 373.1,-126.71 373.1,-118.11"/>
<polygon fill="black" stroke="black" points="376.6,-118.1 373.1,-108.1 369.6,-118.1 376.6,-118.1"/>
</g>
</g>
</svg>
