<?xml version="1.0" encoding="UTF-8" standalone="no"?>
<!DOCTYPE svg PUBLIC "-//W3C//DTD SVG 1.1//EN"
 "http://www.w3.org/Graphics/SVG/1.1/DTD/svg11.dtd">
<!-- Generated by graphviz version 2.47.3 (20210619.1520)
 -->
<!-- Title: G Pages: 1 -->
<svg width="1381pt" height="188pt"
 viewBox="0.00 0.00 1381.13 188.00" xmlns="http://www.w3.org/2000/svg" xmlns:xlink="http://www.w3.org/1999/xlink">
<g id="graph0" class="graph" transform="scale(1 1) rotate(0) translate(4 184)">
<title>G</title>
<polygon fill="white" stroke="transparent" points="-4,4 -4,-184 1377.13,-184 1377.13,4 -4,4"/>
<!-- CLAS&#45;CL_UOM_CONVERSION -->
<g id="node1" class="node">
<title>CLAS&#45;CL_UOM_CONVERSION</title>
<polygon fill="none" stroke="green" points="796.83,-180 585.46,-180 585.46,-144 796.83,-144 796.83,-180"/>
<text text-anchor="middle" x="691.15" y="-157.8" font-family="Times,serif" font-size="14.00">CLAS&#45;CL_UOM_CONVERSION</text>
</g>
<!-- DTEL&#45;BOOLEAN -->
<g id="node2" class="node">
<title>DTEL&#45;BOOLEAN</title>
<g id="a_node2"><a xlink:href="./DTEL_BOOLEAN.html" xlink:title="DTEL&#45;BOOLEAN">
<polygon fill="none" stroke="yellow" points="126.94,-108 3.35,-108 3.35,-72 126.94,-72 126.94,-108"/>
<text text-anchor="middle" x="65.15" y="-85.8" font-family="Times,serif" font-size="14.00">DTEL&#45;BOOLEAN</text>
</a>
</g>
</g>
<!-- CLAS&#45;CL_UOM_CONVERSION&#45;&gt;DTEL&#45;BOOLEAN -->
<g id="edge11" class="edge">
<title>CLAS&#45;CL_UOM_CONVERSION&#45;&gt;DTEL&#45;BOOLEAN</title>
<path fill="none" stroke="black" d="M585.47,-155.32C475.68,-148.41 298.85,-134.46 137.14,-108.02"/>
<polygon fill="black" stroke="black" points="137.44,-104.53 127,-106.35 136.29,-111.43 137.44,-104.53"/>
</g>
<!-- DTEL&#45;CHAR1 -->
<g id="node4" class="node">
<title>DTEL&#45;CHAR1</title>
<g id="a_node4"><a xlink:href="./DTEL_CHAR1.html" xlink:title="DTEL&#45;CHAR1">
<polygon fill="none" stroke="yellow" points="247.46,-108 144.83,-108 144.83,-72 247.46,-72 247.46,-108"/>
<text text-anchor="middle" x="196.15" y="-85.8" font-family="Times,serif" font-size="14.00">DTEL&#45;CHAR1</text>
</a>
</g>
</g>
<!-- CLAS&#45;CL_UOM_CONVERSION&#45;&gt;DTEL&#45;CHAR1 -->
<g id="edge10" class="edge">
<title>CLAS&#45;CL_UOM_CONVERSION&#45;&gt;DTEL&#45;CHAR1</title>
<path fill="none" stroke="black" d="M585.38,-152.73C499.26,-144.92 374.51,-131.19 257.27,-108.06"/>
<polygon fill="black" stroke="black" points="257.9,-104.62 247.41,-106.09 256.53,-111.48 257.9,-104.62"/>
</g>
<!-- DTEL&#45;NENNR -->
<g id="node6" class="node">
<title>DTEL&#45;NENNR</title>
<g id="a_node6"><a xlink:href="./DTEL_NENNR.html" xlink:title="DTEL&#45;NENNR">
<polygon fill="none" stroke="yellow" points="369.28,-108 265.01,-108 265.01,-72 369.28,-72 369.28,-108"/>
<text text-anchor="middle" x="317.15" y="-85.8" font-family="Times,serif" font-size="14.00">DTEL&#45;NENNR</text>
</a>
</g>
</g>
<!-- CLAS&#45;CL_UOM_CONVERSION&#45;&gt;DTEL&#45;NENNR -->
<g id="edge9" class="edge">
<title>CLAS&#45;CL_UOM_CONVERSION&#45;&gt;DTEL&#45;NENNR</title>
<path fill="none" stroke="black" d="M585.21,-145.87C526.94,-136.88 453.24,-124.41 379.26,-108.14"/>
<polygon fill="black" stroke="black" points="379.82,-104.67 369.3,-105.92 378.3,-111.51 379.82,-104.67"/>
</g>
<!-- DTEL&#45;MSEHI -->
<g id="node7" class="node">
<title>DTEL&#45;MSEHI</title>
<g id="a_node7"><a xlink:href="./DTEL_MSEHI.html" xlink:title="DTEL&#45;MSEHI">
<polygon fill="none" stroke="green" points="625.12,-108 525.17,-108 525.17,-72 625.12,-72 625.12,-108"/>
<text text-anchor="middle" x="575.15" y="-85.8" font-family="Times,serif" font-size="14.00">DTEL&#45;MSEHI</text>
</a>
</g>
</g>
<!-- CLAS&#45;CL_UOM_CONVERSION&#45;&gt;DTEL&#45;MSEHI -->
<g id="edge8" class="edge">
<title>CLAS&#45;CL_UOM_CONVERSION&#45;&gt;DTEL&#45;MSEHI</title>
<path fill="none" stroke="black" d="M662.77,-143.88C647.6,-134.72 628.74,-123.34 612.41,-113.48"/>
<polygon fill="black" stroke="black" points="614,-110.36 603.63,-108.19 610.39,-116.35 614,-110.36"/>
</g>
<!-- DTEL&#45;FAMUNIT -->
<g id="node9" class="node">
<title>DTEL&#45;FAMUNIT</title>
<g id="a_node9"><a xlink:href="./DTEL_FAMUNIT.html" xlink:title="DTEL&#45;FAMUNIT">
<polygon fill="none" stroke="yellow" points="507.33,-108 386.96,-108 386.96,-72 507.33,-72 507.33,-108"/>
<text text-anchor="middle" x="447.15" y="-85.8" font-family="Times,serif" font-size="14.00">DTEL&#45;FAMUNIT</text>
</a>
</g>
</g>
<!-- CLAS&#45;CL_UOM_CONVERSION&#45;&gt;DTEL&#45;FAMUNIT -->
<g id="edge7" class="edge">
<title>CLAS&#45;CL_UOM_CONVERSION&#45;&gt;DTEL&#45;FAMUNIT</title>
<path fill="none" stroke="black" d="M631.77,-143.97C597.08,-134.01 553.13,-121.41 516.82,-110.99"/>
<polygon fill="black" stroke="black" points="517.37,-107.5 506.79,-108.11 515.44,-114.23 517.37,-107.5"/>
</g>
<!-- DTEL&#45;EXP10 -->
<g id="node10" class="node">
<title>DTEL&#45;EXP10</title>
<g id="a_node10"><a xlink:href="./DTEL_EXP10.html" xlink:title="DTEL&#45;EXP10">
<polygon fill="none" stroke="yellow" points="739.51,-108 642.78,-108 642.78,-72 739.51,-72 739.51,-108"/>
<text text-anchor="middle" x="691.15" y="-85.8" font-family="Times,serif" font-size="14.00">DTEL&#45;EXP10</text>
</a>
</g>
</g>
<!-- CLAS&#45;CL_UOM_CONVERSION&#45;&gt;DTEL&#45;EXP10 -->
<g id="edge6" class="edge">
<title>CLAS&#45;CL_UOM_CONVERSION&#45;&gt;DTEL&#45;EXP10</title>
<path fill="none" stroke="black" d="M691.15,-143.7C691.15,-135.98 691.15,-126.71 691.15,-118.11"/>
<polygon fill="black" stroke="black" points="694.65,-118.1 691.15,-108.1 687.65,-118.1 694.65,-118.1"/>
</g>
<!-- DTEL&#45;DZAEHL -->
<g id="node12" class="node">
<title>DTEL&#45;DZAEHL</title>
<g id="a_node12"><a xlink:href="./DTEL_DZAEHL.html" xlink:title="DTEL&#45;DZAEHL">
<polygon fill="none" stroke="yellow" points="870.55,-108 757.74,-108 757.74,-72 870.55,-72 870.55,-108"/>
<text text-anchor="middle" x="814.15" y="-85.8" font-family="Times,serif" font-size="14.00">DTEL&#45;DZAEHL</text>
</a>
</g>
</g>
<!-- CLAS&#45;CL_UOM_CONVERSION&#45;&gt;DTEL&#45;DZAEHL -->
<g id="edge5" class="edge">
<title>CLAS&#45;CL_UOM_CONVERSION&#45;&gt;DTEL&#45;DZAEHL</title>
<path fill="none" stroke="black" d="M721.24,-143.88C737.47,-134.64 757.69,-123.13 775.12,-113.21"/>
<polygon fill="black" stroke="black" points="776.98,-116.18 783.94,-108.19 773.52,-110.09 776.98,-116.18"/>
</g>
<!-- DTEL&#45;DIMID -->
<g id="node13" class="node">
<title>DTEL&#45;DIMID</title>
<g id="a_node13"><a xlink:href="./DTEL_DIMID.html" xlink:title="DTEL&#45;DIMID">
<polygon fill="none" stroke="yellow" points="986.55,-108 887.74,-108 887.74,-72 986.55,-72 986.55,-108"/>
<text text-anchor="middle" x="937.15" y="-85.8" font-family="Times,serif" font-size="14.00">DTEL&#45;DIMID</text>
</a>
</g>
</g>
<!-- CLAS&#45;CL_UOM_CONVERSION&#45;&gt;DTEL&#45;DIMID -->
<g id="edge4" class="edge">
<title>CLAS&#45;CL_UOM_CONVERSION&#45;&gt;DTEL&#45;DIMID</title>
<path fill="none" stroke="black" d="M752.15,-143.97C786.59,-134.32 830.66,-121.91 877.97,-108.33"/>
<polygon fill="black" stroke="black" points="879.15,-111.63 887.8,-105.5 877.22,-104.9 879.15,-111.63"/>
</g>
<!-- DTEL&#45;DECAN -->
<g id="node15" class="node">
<title>DTEL&#45;DECAN</title>
<g id="a_node15"><a xlink:href="./DTEL_DECAN.html" xlink:title="DTEL&#45;DECAN">
<polygon fill="none" stroke="yellow" points="1109.28,-108 1005.01,-108 1005.01,-72 1109.28,-72 1109.28,-108"/>
<text text-anchor="middle" x="1057.15" y="-85.8" font-family="Times,serif" font-size="14.00">DTEL&#45;DECAN</text>
</a>
</g>
</g>
<!-- CLAS&#45;CL_UOM_CONVERSION&#45;&gt;DTEL&#45;DECAN -->
<g id="edge3" class="edge">
<title>CLAS&#45;CL_UOM_CONVERSION&#45;&gt;DTEL&#45;DECAN</title>
<path fill="none" stroke="black" d="M796.8,-145.11C852.85,-136.08 923.03,-123.81 994.68,-107.98"/>
<polygon fill="black" stroke="black" points="995.81,-111.32 1004.8,-105.73 994.28,-104.49 995.81,-111.32"/>
</g>
<!-- DTEL&#45;ANDEC -->
<g id="node17" class="node">
<title>DTEL&#45;ANDEC</title>
<g id="a_node17"><a xlink:href="./DTEL_ANDEC.html" xlink:title="DTEL&#45;ANDEC">
<polygon fill="none" stroke="yellow" points="1235.28,-108 1131.01,-108 1131.01,-72 1235.28,-72 1235.28,-108"/>
<text text-anchor="middle" x="1183.15" y="-85.8" font-family="Times,serif" font-size="14.00">DTEL&#45;ANDEC</text>
</a>
</g>
</g>
<!-- CLAS&#45;CL_UOM_CONVERSION&#45;&gt;DTEL&#45;ANDEC -->
<g id="edge2" class="edge">
<title>CLAS&#45;CL_UOM_CONVERSION&#45;&gt;DTEL&#45;ANDEC</title>
<path fill="none" stroke="black" d="M797.04,-151.79C883.82,-143.3 1009.57,-128.84 1118.15,-108 1119.05,-107.83 1119.96,-107.65 1120.87,-107.46"/>
<polygon fill="black" stroke="black" points="1121.74,-110.86 1130.78,-105.33 1120.27,-104.01 1121.74,-110.86"/>
</g>
<!-- DTEL&#45;ADDKO -->
<g id="node19" class="node">
<title>DTEL&#45;ADDKO</title>
<g id="a_node19"><a xlink:href="./DTEL_ADDKO.html" xlink:title="DTEL&#45;ADDKO">
<polygon fill="none" stroke="yellow" points="1366.6,-108 1259.69,-108 1259.69,-72 1366.6,-72 1366.6,-108"/>
<text text-anchor="middle" x="1313.15" y="-85.8" font-family="Times,serif" font-size="14.00">DTEL&#45;ADDKO</text>
</a>
</g>
</g>
<!-- CLAS&#45;CL_UOM_CONVERSION&#45;&gt;DTEL&#45;ADDKO -->
<g id="edge1" class="edge">
<title>CLAS&#45;CL_UOM_CONVERSION&#45;&gt;DTEL&#45;ADDKO</title>
<path fill="none" stroke="black" d="M796.99,-155.46C908.75,-148.54 1089.76,-134.27 1244.15,-108 1245.86,-107.71 1247.6,-107.4 1249.34,-107.07"/>
<polygon fill="black" stroke="black" points="1250.33,-110.44 1259.44,-105.04 1248.95,-103.58 1250.33,-110.44"/>
</g>
<!-- DOMA&#45;BOOLEAN -->
<g id="node3" class="node">
<title>DOMA&#45;BOOLEAN</title>
<g id="a_node3"><a xlink:href="./DOMA_BOOLEAN.html" xlink:title="DOMA&#45;BOOLEAN">
<polygon fill="none" stroke="yellow" points="130.44,-36 -0.15,-36 -0.15,0 130.44,0 130.44,-36"/>
<text text-anchor="middle" x="65.15" y="-13.8" font-family="Times,serif" font-size="14.00">DOMA&#45;BOOLEAN</text>
</a>
</g>
</g>
<!-- DTEL&#45;BOOLEAN&#45;&gt;DOMA&#45;BOOLEAN -->
<g id="edge12" class="edge">
<title>DTEL&#45;BOOLEAN&#45;&gt;DOMA&#45;BOOLEAN</title>
<path fill="none" stroke="black" d="M65.15,-71.7C65.15,-63.98 65.15,-54.71 65.15,-46.11"/>
<polygon fill="black" stroke="black" points="68.65,-46.1 65.15,-36.1 61.65,-46.1 68.65,-46.1"/>
</g>
<!-- DOMA&#45;CHAR1 -->
<g id="node5" class="node">
<title>DOMA&#45;CHAR1</title>
<g id="a_node5"><a xlink:href="./DOMA_CHAR1.html" xlink:title="DOMA&#45;CHAR1">
<polygon fill="none" stroke="green" points="380.96,-36 271.33,-36 271.33,0 380.96,0 380.96,-36"/>
<text text-anchor="middle" x="326.15" y="-13.8" font-family="Times,serif" font-size="14.00">DOMA&#45;CHAR1</text>
</a>
</g>
</g>
<!-- DTEL&#45;CHAR1&#45;&gt;DOMA&#45;CHAR1 -->
<g id="edge13" class="edge">
<title>DTEL&#45;CHAR1&#45;&gt;DOMA&#45;CHAR1</title>
<path fill="none" stroke="black" d="M227.95,-71.88C245.26,-62.55 266.87,-50.92 285.4,-40.94"/>
<polygon fill="black" stroke="black" points="287.08,-44.01 294.22,-36.19 283.76,-37.85 287.08,-44.01"/>
</g>
<!-- DOMA&#45;MEINS -->
<g id="node8" class="node">
<title>DOMA&#45;MEINS</title>
<g id="a_node8"><a xlink:href="./DOMA_MEINS.html" xlink:title="DOMA&#45;MEINS">
<polygon fill="none" stroke="green" points="624.62,-36 517.67,-36 517.67,0 624.62,0 624.62,-36"/>
<text text-anchor="middle" x="571.15" y="-13.8" font-family="Times,serif" font-size="14.00">DOMA&#45;MEINS</text>
</a>
</g>
</g>
<!-- DTEL&#45;MSEHI&#45;&gt;DOMA&#45;MEINS -->
<g id="edge14" class="edge">
<title>DTEL&#45;MSEHI&#45;&gt;DOMA&#45;MEINS</title>
<path fill="none" stroke="black" d="M574.16,-71.7C573.72,-63.98 573.19,-54.71 572.7,-46.11"/>
<polygon fill="black" stroke="black" points="576.19,-45.89 572.12,-36.1 569.2,-46.29 576.19,-45.89"/>
</g>
<!-- DTEL&#45;FAMUNIT&#45;&gt;DOMA&#45;CHAR1 -->
<g id="edge15" class="edge">
<title>DTEL&#45;FAMUNIT&#45;&gt;DOMA&#45;CHAR1</title>
<path fill="none" stroke="black" d="M417.55,-71.88C401.58,-62.64 381.69,-51.13 364.54,-41.21"/>
<polygon fill="black" stroke="black" points="366.27,-38.17 355.86,-36.19 362.76,-44.23 366.27,-38.17"/>
</g>
<!-- DOMA&#45;EXP10 -->
<g id="node11" class="node">
<title>DOMA&#45;EXP10</title>
<g id="a_node11"><a xlink:href="./DOMA_EXP10.html" xlink:title="DOMA&#45;EXP10">
<polygon fill="none" stroke="yellow" points="746.01,-36 642.28,-36 642.28,0 746.01,0 746.01,-36"/>
<text text-anchor="middle" x="694.15" y="-13.8" font-family="Times,serif" font-size="14.00">DOMA&#45;EXP10</text>
</a>
</g>
</g>
<!-- DTEL&#45;EXP10&#45;&gt;DOMA&#45;EXP10 -->
<g id="edge16" class="edge">
<title>DTEL&#45;EXP10&#45;&gt;DOMA&#45;EXP10</title>
<path fill="none" stroke="black" d="M691.89,-71.7C692.22,-63.98 692.62,-54.71 692.98,-46.11"/>
<polygon fill="black" stroke="black" points="696.48,-46.25 693.41,-36.1 689.49,-45.95 696.48,-46.25"/>
</g>
<!-- DOMA&#45;DIMID -->
<g id="node14" class="node">
<title>DOMA&#45;DIMID</title>
<g id="a_node14"><a xlink:href="./DOMA_DIMID.html" xlink:title="DOMA&#45;DIMID">
<polygon fill="none" stroke="yellow" points="981.05,-36 875.24,-36 875.24,0 981.05,0 981.05,-36"/>
<text text-anchor="middle" x="928.15" y="-13.8" font-family="Times,serif" font-size="14.00">DOMA&#45;DIMID</text>
</a>
</g>
</g>
<!-- DTEL&#45;DIMID&#45;&gt;DOMA&#45;DIMID -->
<g id="edge17" class="edge">
<title>DTEL&#45;DIMID&#45;&gt;DOMA&#45;DIMID</title>
<path fill="none" stroke="black" d="M934.92,-71.7C933.93,-63.98 932.74,-54.71 931.63,-46.11"/>
<polygon fill="black" stroke="black" points="935.09,-45.58 930.35,-36.1 928.15,-46.47 935.09,-45.58"/>
</g>
<!-- DOMA&#45;DECAN -->
<g id="node16" class="node">
<title>DOMA&#45;DECAN</title>
<g id="a_node16"><a xlink:href="./DOMA_DECAN.html" xlink:title="DOMA&#45;DECAN">
<polygon fill="none" stroke="yellow" points="1110.78,-36 999.51,-36 999.51,0 1110.78,0 1110.78,-36"/>
<text text-anchor="middle" x="1055.15" y="-13.8" font-family="Times,serif" font-size="14.00">DOMA&#45;DECAN</text>
</a>
</g>
</g>
<!-- DTEL&#45;DECAN&#45;&gt;DOMA&#45;DECAN -->
<g id="edge18" class="edge">
<title>DTEL&#45;DECAN&#45;&gt;DOMA&#45;DECAN</title>
<path fill="none" stroke="black" d="M1056.65,-71.7C1056.43,-63.98 1056.17,-54.71 1055.92,-46.11"/>
<polygon fill="black" stroke="black" points="1059.42,-46 1055.64,-36.1 1052.42,-46.2 1059.42,-46"/>
</g>
<!-- DOMA&#45;ANDEC -->
<g id="node18" class="node">
<title>DOMA&#45;ANDEC</title>
<g id="a_node18"><a xlink:href="./DOMA_ANDEC.html" xlink:title="DOMA&#45;ANDEC">
<polygon fill="none" stroke="yellow" points="1240.78,-36 1129.51,-36 1129.51,0 1240.78,0 1240.78,-36"/>
<text text-anchor="middle" x="1185.15" y="-13.8" font-family="Times,serif" font-size="14.00">DOMA&#45;ANDEC</text>
</a>
</g>
</g>
<!-- DTEL&#45;ANDEC&#45;&gt;DOMA&#45;ANDEC -->
<g id="edge19" class="edge">
<title>DTEL&#45;ANDEC&#45;&gt;DOMA&#45;ANDEC</title>
<path fill="none" stroke="black" d="M1183.64,-71.7C1183.86,-63.98 1184.13,-54.71 1184.37,-46.11"/>
<polygon fill="black" stroke="black" points="1187.87,-46.2 1184.66,-36.1 1180.87,-46 1187.87,-46.2"/>
</g>
<!-- DOMA&#45;ADDKO -->
<g id="node20" class="node">
<title>DOMA&#45;ADDKO</title>
<g id="a_node20"><a xlink:href="./DOMA_ADDKO.html" xlink:title="DOMA&#45;ADDKO">
<polygon fill="none" stroke="yellow" points="1373.1,-36 1259.19,-36 1259.19,0 1373.1,0 1373.1,-36"/>
<text text-anchor="middle" x="1316.15" y="-13.8" font-family="Times,serif" font-size="14.00">DOMA&#45;ADDKO</text>
</a>
</g>
</g>
<!-- DTEL&#45;ADDKO&#45;&gt;DOMA&#45;ADDKO -->
<g id="edge20" class="edge">
<title>DTEL&#45;ADDKO&#45;&gt;DOMA&#45;ADDKO</title>
<path fill="none" stroke="black" d="M1313.89,-71.7C1314.22,-63.98 1314.62,-54.71 1314.98,-46.11"/>
<polygon fill="black" stroke="black" points="1318.48,-46.25 1315.41,-36.1 1311.49,-45.95 1318.48,-46.25"/>
</g>
</g>
</svg>
