<?xml version="1.0" encoding="UTF-8" standalone="no"?>
<!DOCTYPE svg PUBLIC "-//W3C//DTD SVG 1.1//EN"
 "http://www.w3.org/Graphics/SVG/1.1/DTD/svg11.dtd">
<!-- Generated by graphviz version 2.47.3 (20210619.1520)
 -->
<!-- Title: G Pages: 1 -->
<svg width="1505pt" height="404pt"
 viewBox="0.00 0.00 1505.03 404.00" xmlns="http://www.w3.org/2000/svg" xmlns:xlink="http://www.w3.org/1999/xlink">
<g id="graph0" class="graph" transform="scale(1 1) rotate(0) translate(4 400)">
<title>G</title>
<polygon fill="white" stroke="transparent" points="-4,4 -4,-400 1501.03,-400 1501.03,4 -4,4"/>
<!-- CLAS&#45;CX_WEB_MESSAGE_ERROR -->
<g id="node1" class="node">
<title>CLAS&#45;CX_WEB_MESSAGE_ERROR</title>
<polygon fill="none" stroke="green" points="1225.08,-396 985.12,-396 985.12,-360 1225.08,-360 1225.08,-396"/>
<text text-anchor="middle" x="1105.1" y="-373.8" font-family="Times,serif" font-size="14.00">CLAS&#45;CX_WEB_MESSAGE_ERROR</text>
</g>
<!-- INTF&#45;IF_T100_MESSAGE -->
<g id="node2" class="node">
<title>INTF&#45;IF_T100_MESSAGE</title>
<g id="a_node2"><a xlink:href="./INTF_IF_T100_MESSAGE.html" xlink:title="INTF&#45;IF_T100_MESSAGE">
<polygon fill="none" stroke="green" points="1256.69,-252 1083.51,-252 1083.51,-216 1256.69,-216 1256.69,-252"/>
<text text-anchor="middle" x="1170.1" y="-229.8" font-family="Times,serif" font-size="14.00">INTF&#45;IF_T100_MESSAGE</text>
</a>
</g>
</g>
<!-- CLAS&#45;CX_WEB_MESSAGE_ERROR&#45;&gt;INTF&#45;IF_T100_MESSAGE -->
<g id="edge4" class="edge">
<title>CLAS&#45;CX_WEB_MESSAGE_ERROR&#45;&gt;INTF&#45;IF_T100_MESSAGE</title>
<path fill="none" stroke="black" d="M1124.26,-359.57C1133.71,-349.96 1144.47,-337.3 1151.1,-324 1160.77,-304.62 1165.53,-280.47 1167.87,-262.22"/>
<polygon fill="black" stroke="black" points="1171.35,-262.56 1168.98,-252.24 1164.39,-261.79 1171.35,-262.56"/>
</g>
<!-- DTEL&#45;SYMSGNO -->
<g id="node6" class="node">
<title>DTEL&#45;SYMSGNO</title>
<g id="a_node6"><a xlink:href="./DTEL_SYMSGNO.html" xlink:title="DTEL&#45;SYMSGNO">
<polygon fill="none" stroke="green" points="1493.46,-108 1368.74,-108 1368.74,-72 1493.46,-72 1493.46,-108"/>
<text text-anchor="middle" x="1431.1" y="-85.8" font-family="Times,serif" font-size="14.00">DTEL&#45;SYMSGNO</text>
</a>
</g>
</g>
<!-- CLAS&#45;CX_WEB_MESSAGE_ERROR&#45;&gt;DTEL&#45;SYMSGNO -->
<g id="edge1" class="edge">
<title>CLAS&#45;CX_WEB_MESSAGE_ERROR&#45;&gt;DTEL&#45;SYMSGNO</title>
<path fill="none" stroke="black" d="M1139.9,-359.9C1197.47,-330.16 1313.36,-263.99 1386.1,-180 1402.05,-161.58 1414.06,-136.52 1421.65,-117.69"/>
<polygon fill="black" stroke="black" points="1424.97,-118.8 1425.3,-108.21 1418.44,-116.28 1424.97,-118.8"/>
</g>
<!-- INTF&#45;IF_T100_DYN_MSG -->
<g id="node10" class="node">
<title>INTF&#45;IF_T100_DYN_MSG</title>
<g id="a_node10"><a xlink:href="./INTF_IF_T100_DYN_MSG.html" xlink:title="INTF&#45;IF_T100_DYN_MSG">
<polygon fill="none" stroke="green" points="920.01,-324 744.19,-324 744.19,-288 920.01,-288 920.01,-324"/>
<text text-anchor="middle" x="832.1" y="-301.8" font-family="Times,serif" font-size="14.00">INTF&#45;IF_T100_DYN_MSG</text>
</a>
</g>
</g>
<!-- CLAS&#45;CX_WEB_MESSAGE_ERROR&#45;&gt;INTF&#45;IF_T100_DYN_MSG -->
<g id="edge3" class="edge">
<title>CLAS&#45;CX_WEB_MESSAGE_ERROR&#45;&gt;INTF&#45;IF_T100_DYN_MSG</title>
<path fill="none" stroke="black" d="M1038.67,-359.97C999.44,-349.91 949.63,-337.14 908.75,-326.65"/>
<polygon fill="black" stroke="black" points="909.39,-323.2 898.83,-324.11 907.65,-329.98 909.39,-323.2"/>
</g>
<!-- CLAS&#45;CX_DYNAMIC_CHECK -->
<g id="node15" class="node">
<title>CLAS&#45;CX_DYNAMIC_CHECK</title>
<g id="a_node15"><a xlink:href="./CLAS_CX_DYNAMIC_CHECK.html" xlink:title="CLAS&#45;CX_DYNAMIC_CHECK">
<polygon fill="none" stroke="green" points="1142.29,-324 937.91,-324 937.91,-288 1142.29,-288 1142.29,-324"/>
<text text-anchor="middle" x="1040.1" y="-301.8" font-family="Times,serif" font-size="14.00">CLAS&#45;CX_DYNAMIC_CHECK</text>
</a>
</g>
</g>
<!-- CLAS&#45;CX_WEB_MESSAGE_ERROR&#45;&gt;CLAS&#45;CX_DYNAMIC_CHECK -->
<g id="edge2" class="edge">
<title>CLAS&#45;CX_WEB_MESSAGE_ERROR&#45;&gt;CLAS&#45;CX_DYNAMIC_CHECK</title>
<path fill="none" stroke="black" d="M1089.03,-359.7C1081.16,-351.22 1071.55,-340.86 1062.93,-331.58"/>
<polygon fill="black" stroke="black" points="1065.35,-329.05 1055.98,-324.1 1060.22,-333.81 1065.35,-329.05"/>
</g>
<!-- INTF&#45;IF_MESSAGE -->
<g id="node3" class="node">
<title>INTF&#45;IF_MESSAGE</title>
<g id="a_node3"><a xlink:href="./INTF_IF_MESSAGE.html" xlink:title="INTF&#45;IF_MESSAGE">
<polygon fill="none" stroke="green" points="1121.14,-180 985.07,-180 985.07,-144 1121.14,-144 1121.14,-180"/>
<text text-anchor="middle" x="1053.1" y="-157.8" font-family="Times,serif" font-size="14.00">INTF&#45;IF_MESSAGE</text>
</a>
</g>
</g>
<!-- INTF&#45;IF_T100_MESSAGE&#45;&gt;INTF&#45;IF_MESSAGE -->
<g id="edge9" class="edge">
<title>INTF&#45;IF_T100_MESSAGE&#45;&gt;INTF&#45;IF_MESSAGE</title>
<path fill="none" stroke="black" d="M1141.48,-215.88C1126.18,-206.72 1107.16,-195.34 1090.68,-185.48"/>
<polygon fill="black" stroke="black" points="1092.21,-182.32 1081.83,-180.19 1088.62,-188.33 1092.21,-182.32"/>
</g>
<!-- TABL&#45;SCX_T100KEY -->
<g id="node4" class="node">
<title>TABL&#45;SCX_T100KEY</title>
<g id="a_node4"><a xlink:href="./TABL_SCX_T100KEY.html" xlink:title="TABL&#45;SCX_T100KEY">
<polygon fill="none" stroke="yellow" points="1326.85,-180 1177.35,-180 1177.35,-144 1326.85,-144 1326.85,-180"/>
<text text-anchor="middle" x="1252.1" y="-157.8" font-family="Times,serif" font-size="14.00">TABL&#45;SCX_T100KEY</text>
</a>
</g>
</g>
<!-- INTF&#45;IF_T100_MESSAGE&#45;&gt;TABL&#45;SCX_T100KEY -->
<g id="edge8" class="edge">
<title>INTF&#45;IF_T100_MESSAGE&#45;&gt;TABL&#45;SCX_T100KEY</title>
<path fill="none" stroke="black" d="M1190.37,-215.7C1200.6,-206.97 1213.16,-196.24 1224.28,-186.75"/>
<polygon fill="black" stroke="black" points="1226.73,-189.26 1232.06,-180.1 1222.19,-183.94 1226.73,-189.26"/>
</g>
<!-- DTEL&#45;SCX_ATTRNAME -->
<g id="node5" class="node">
<title>DTEL&#45;SCX_ATTRNAME</title>
<g id="a_node5"><a xlink:href="./DTEL_SCX_ATTRNAME.html" xlink:title="DTEL&#45;SCX_ATTRNAME">
<polygon fill="none" stroke="green" points="1350.51,-108 1181.69,-108 1181.69,-72 1350.51,-72 1350.51,-108"/>
<text text-anchor="middle" x="1266.1" y="-85.8" font-family="Times,serif" font-size="14.00">DTEL&#45;SCX_ATTRNAME</text>
</a>
</g>
</g>
<!-- INTF&#45;IF_T100_MESSAGE&#45;&gt;DTEL&#45;SCX_ATTRNAME -->
<g id="edge7" class="edge">
<title>INTF&#45;IF_T100_MESSAGE&#45;&gt;DTEL&#45;SCX_ATTRNAME</title>
<path fill="none" stroke="black" d="M1256.98,-225.9C1286.96,-218.79 1317.63,-205.28 1336.1,-180 1345.54,-167.08 1343.22,-158.33 1336.1,-144 1330.1,-131.93 1319.89,-121.87 1309.09,-113.88"/>
<polygon fill="black" stroke="black" points="1311.01,-110.95 1300.78,-108.17 1307.04,-116.71 1311.01,-110.95"/>
</g>
<!-- INTF&#45;IF_T100_MESSAGE&#45;&gt;DTEL&#45;SYMSGNO -->
<g id="edge6" class="edge">
<title>INTF&#45;IF_T100_MESSAGE&#45;&gt;DTEL&#45;SYMSGNO</title>
<path fill="none" stroke="black" d="M1256.8,-218.55C1288.77,-210.55 1324.21,-198.37 1353.1,-180 1378.77,-163.67 1400.84,-136.45 1414.89,-116.41"/>
<polygon fill="black" stroke="black" points="1417.85,-118.27 1420.58,-108.04 1412.07,-114.34 1417.85,-118.27"/>
</g>
<!-- DTEL&#45;SYMSGID -->
<g id="node8" class="node">
<title>DTEL&#45;SYMSGID</title>
<g id="a_node8"><a xlink:href="./DTEL_SYMSGID.html" xlink:title="DTEL&#45;SYMSGID">
<polygon fill="none" stroke="green" points="1164.02,-108 1044.18,-108 1044.18,-72 1164.02,-72 1164.02,-108"/>
<text text-anchor="middle" x="1104.1" y="-85.8" font-family="Times,serif" font-size="14.00">DTEL&#45;SYMSGID</text>
</a>
</g>
</g>
<!-- INTF&#45;IF_T100_MESSAGE&#45;&gt;DTEL&#45;SYMSGID -->
<g id="edge5" class="edge">
<title>INTF&#45;IF_T100_MESSAGE&#45;&gt;DTEL&#45;SYMSGID</title>
<path fill="none" stroke="black" d="M1162.6,-215.86C1154.69,-197.88 1141.77,-168.84 1130.1,-144 1125.98,-135.24 1121.37,-125.73 1117.18,-117.21"/>
<polygon fill="black" stroke="black" points="1120.25,-115.53 1112.68,-108.12 1113.97,-118.63 1120.25,-115.53"/>
</g>
<!-- TABL&#45;SCX_T100KEY&#45;&gt;DTEL&#45;SCX_ATTRNAME -->
<g id="edge12" class="edge">
<title>TABL&#45;SCX_T100KEY&#45;&gt;DTEL&#45;SCX_ATTRNAME</title>
<path fill="none" stroke="black" d="M1255.56,-143.7C1257.1,-135.98 1258.96,-126.71 1260.68,-118.11"/>
<polygon fill="black" stroke="black" points="1264.15,-118.6 1262.68,-108.1 1257.29,-117.22 1264.15,-118.6"/>
</g>
<!-- TABL&#45;SCX_T100KEY&#45;&gt;DTEL&#45;SYMSGNO -->
<g id="edge11" class="edge">
<title>TABL&#45;SCX_T100KEY&#45;&gt;DTEL&#45;SYMSGNO</title>
<path fill="none" stroke="black" d="M1295.89,-143.88C1320.69,-134.18 1351.88,-121.98 1378.06,-111.74"/>
<polygon fill="black" stroke="black" points="1379.42,-114.97 1387.45,-108.07 1376.87,-108.45 1379.42,-114.97"/>
</g>
<!-- TABL&#45;SCX_T100KEY&#45;&gt;DTEL&#45;SYMSGID -->
<g id="edge10" class="edge">
<title>TABL&#45;SCX_T100KEY&#45;&gt;DTEL&#45;SYMSGID</title>
<path fill="none" stroke="black" d="M1215.9,-143.88C1195.84,-134.39 1170.73,-122.51 1149.39,-112.42"/>
<polygon fill="black" stroke="black" points="1150.72,-109.18 1140.19,-108.07 1147.73,-115.51 1150.72,-109.18"/>
</g>
<!-- DOMA&#45;SYMSGNO -->
<g id="node7" class="node">
<title>DOMA&#45;SYMSGNO</title>
<g id="a_node7"><a xlink:href="./DOMA_SYMSGNO.html" xlink:title="DOMA&#45;SYMSGNO">
<polygon fill="none" stroke="yellow" points="1496.96,-36 1365.24,-36 1365.24,0 1496.96,0 1496.96,-36"/>
<text text-anchor="middle" x="1431.1" y="-13.8" font-family="Times,serif" font-size="14.00">DOMA&#45;SYMSGNO</text>
</a>
</g>
</g>
<!-- DTEL&#45;SYMSGNO&#45;&gt;DOMA&#45;SYMSGNO -->
<g id="edge13" class="edge">
<title>DTEL&#45;SYMSGNO&#45;&gt;DOMA&#45;SYMSGNO</title>
<path fill="none" stroke="black" d="M1431.1,-71.7C1431.1,-63.98 1431.1,-54.71 1431.1,-46.11"/>
<polygon fill="black" stroke="black" points="1434.6,-46.1 1431.1,-36.1 1427.6,-46.1 1434.6,-46.1"/>
</g>
<!-- DOMA&#45;ARBGB -->
<g id="node9" class="node">
<title>DOMA&#45;ARBGB</title>
<g id="a_node9"><a xlink:href="./DOMA_ARBGB.html" xlink:title="DOMA&#45;ARBGB">
<polygon fill="none" stroke="yellow" points="1159.75,-36 1048.45,-36 1048.45,0 1159.75,0 1159.75,-36"/>
<text text-anchor="middle" x="1104.1" y="-13.8" font-family="Times,serif" font-size="14.00">DOMA&#45;ARBGB</text>
</a>
</g>
</g>
<!-- DTEL&#45;SYMSGID&#45;&gt;DOMA&#45;ARBGB -->
<g id="edge14" class="edge">
<title>DTEL&#45;SYMSGID&#45;&gt;DOMA&#45;ARBGB</title>
<path fill="none" stroke="black" d="M1104.1,-71.7C1104.1,-63.98 1104.1,-54.71 1104.1,-46.11"/>
<polygon fill="black" stroke="black" points="1107.6,-46.1 1104.1,-36.1 1100.6,-46.1 1107.6,-46.1"/>
</g>
<!-- INTF&#45;IF_T100_DYN_MSG&#45;&gt;INTF&#45;IF_T100_MESSAGE -->
<g id="edge18" class="edge">
<title>INTF&#45;IF_T100_DYN_MSG&#45;&gt;INTF&#45;IF_T100_MESSAGE</title>
<path fill="none" stroke="black" d="M914.35,-287.97C963.72,-277.74 1026.65,-264.71 1077.72,-254.13"/>
<polygon fill="black" stroke="black" points="1078.69,-257.51 1087.77,-252.05 1077.27,-250.65 1078.69,-257.51"/>
</g>
<!-- INTF&#45;IF_T100_DYN_MSG&#45;&gt;INTF&#45;IF_MESSAGE -->
<g id="edge17" class="edge">
<title>INTF&#45;IF_T100_DYN_MSG&#45;&gt;INTF&#45;IF_MESSAGE</title>
<path fill="none" stroke="black" d="M858.76,-287.87C898.58,-262.28 973.65,-214.05 1017.92,-185.6"/>
<polygon fill="black" stroke="black" points="1019.83,-188.54 1026.35,-180.19 1016.04,-182.65 1019.83,-188.54"/>
</g>
<!-- DTEL&#45;SYMSGTY -->
<g id="node11" class="node">
<title>DTEL&#45;SYMSGTY</title>
<g id="a_node11"><a xlink:href="./DTEL_SYMSGTY.html" xlink:title="DTEL&#45;SYMSGTY">
<polygon fill="none" stroke="green" points="198.91,-252 75.29,-252 75.29,-216 198.91,-216 198.91,-252"/>
<text text-anchor="middle" x="137.1" y="-229.8" font-family="Times,serif" font-size="14.00">DTEL&#45;SYMSGTY</text>
</a>
</g>
</g>
<!-- INTF&#45;IF_T100_DYN_MSG&#45;&gt;DTEL&#45;SYMSGTY -->
<g id="edge16" class="edge">
<title>INTF&#45;IF_T100_DYN_MSG&#45;&gt;DTEL&#45;SYMSGTY</title>
<path fill="none" stroke="black" d="M744.08,-296.13C605.03,-282.13 337.19,-255.15 208.95,-242.24"/>
<polygon fill="black" stroke="black" points="209.15,-238.74 198.85,-241.22 208.45,-245.7 209.15,-238.74"/>
</g>
<!-- DTEL&#45;SYMSGV -->
<g id="node13" class="node">
<title>DTEL&#45;SYMSGV</title>
<g id="a_node13"><a xlink:href="./DTEL_SYMSGV.html" xlink:title="DTEL&#45;SYMSGV">
<polygon fill="none" stroke="green" points="610.36,-252 495.85,-252 495.85,-216 610.36,-216 610.36,-252"/>
<text text-anchor="middle" x="553.1" y="-229.8" font-family="Times,serif" font-size="14.00">DTEL&#45;SYMSGV</text>
</a>
</g>
</g>
<!-- INTF&#45;IF_T100_DYN_MSG&#45;&gt;DTEL&#45;SYMSGV -->
<g id="edge15" class="edge">
<title>INTF&#45;IF_T100_DYN_MSG&#45;&gt;DTEL&#45;SYMSGV</title>
<path fill="none" stroke="black" d="M764.21,-287.97C720.51,-277 663.96,-262.81 620.38,-251.88"/>
<polygon fill="black" stroke="black" points="621,-248.43 610.45,-249.39 619.29,-255.22 621,-248.43"/>
</g>
<!-- DOMA&#45;SYCHAR01 -->
<g id="node12" class="node">
<title>DOMA&#45;SYCHAR01</title>
<g id="a_node12"><a xlink:href="./DOMA_SYCHAR01.html" xlink:title="DOMA&#45;SYCHAR01">
<polygon fill="none" stroke="yellow" points="134.3,-180 -0.1,-180 -0.1,-144 134.3,-144 134.3,-180"/>
<text text-anchor="middle" x="67.1" y="-157.8" font-family="Times,serif" font-size="14.00">DOMA&#45;SYCHAR01</text>
</a>
</g>
</g>
<!-- DTEL&#45;SYMSGTY&#45;&gt;DOMA&#45;SYCHAR01 -->
<g id="edge19" class="edge">
<title>DTEL&#45;SYMSGTY&#45;&gt;DOMA&#45;SYCHAR01</title>
<path fill="none" stroke="black" d="M119.8,-215.7C111.24,-207.14 100.76,-196.66 91.4,-187.3"/>
<polygon fill="black" stroke="black" points="93.75,-184.7 84.2,-180.1 88.8,-189.65 93.75,-184.7"/>
</g>
<!-- DOMA&#45;SYCHAR50 -->
<g id="node14" class="node">
<title>DOMA&#45;SYCHAR50</title>
<g id="a_node14"><a xlink:href="./DOMA_SYCHAR50.html" xlink:title="DOMA&#45;SYCHAR50">
<polygon fill="none" stroke="yellow" points="286.3,-180 151.9,-180 151.9,-144 286.3,-144 286.3,-180"/>
<text text-anchor="middle" x="219.1" y="-157.8" font-family="Times,serif" font-size="14.00">DOMA&#45;SYCHAR50</text>
</a>
</g>
</g>
<!-- DTEL&#45;SYMSGV&#45;&gt;DOMA&#45;SYCHAR50 -->
<g id="edge20" class="edge">
<title>DTEL&#45;SYMSGV&#45;&gt;DOMA&#45;SYCHAR50</title>
<path fill="none" stroke="black" d="M495.66,-221.5C445.58,-211.4 370.72,-196.15 296.25,-180.23"/>
<polygon fill="black" stroke="black" points="296.73,-176.75 286.22,-178.08 295.27,-183.6 296.73,-176.75"/>
</g>
<!-- CLAS&#45;CX_ROOT -->
<g id="node16" class="node">
<title>CLAS&#45;CX_ROOT</title>
<g id="a_node16"><a xlink:href="./CLAS_CX_ROOT.html" xlink:title="CLAS&#45;CX_ROOT">
<polygon fill="none" stroke="green" points="888.58,-252 767.62,-252 767.62,-216 888.58,-216 888.58,-252"/>
<text text-anchor="middle" x="828.1" y="-229.8" font-family="Times,serif" font-size="14.00">CLAS&#45;CX_ROOT</text>
</a>
</g>
</g>
<!-- CLAS&#45;CX_DYNAMIC_CHECK&#45;&gt;CLAS&#45;CX_ROOT -->
<g id="edge21" class="edge">
<title>CLAS&#45;CX_DYNAMIC_CHECK&#45;&gt;CLAS&#45;CX_ROOT</title>
<path fill="none" stroke="black" d="M988.51,-287.97C958.63,-278.1 920.84,-265.62 889.44,-255.25"/>
<polygon fill="black" stroke="black" points="890.51,-251.92 879.92,-252.11 888.32,-258.57 890.51,-251.92"/>
</g>
<!-- CLAS&#45;CX_ROOT&#45;&gt;INTF&#45;IF_MESSAGE -->
<g id="edge25" class="edge">
<title>CLAS&#45;CX_ROOT&#45;&gt;INTF&#45;IF_MESSAGE</title>
<path fill="none" stroke="black" d="M882.85,-215.97C914.7,-206.06 955.02,-193.51 988.43,-183.12"/>
<polygon fill="black" stroke="black" points="989.59,-186.42 998.1,-180.11 987.51,-179.74 989.59,-186.42"/>
</g>
<!-- INTF&#45;IF_SERIALIZABLE_OBJECT -->
<g id="node17" class="node">
<title>INTF&#45;IF_SERIALIZABLE_OBJECT</title>
<g id="a_node17"><a xlink:href="./INTF_IF_SERIALIZABLE_OBJECT.html" xlink:title="INTF&#45;IF_SERIALIZABLE_OBJECT">
<polygon fill="none" stroke="green" points="532.39,-180 303.81,-180 303.81,-144 532.39,-144 532.39,-180"/>
<text text-anchor="middle" x="418.1" y="-157.8" font-family="Times,serif" font-size="14.00">INTF&#45;IF_SERIALIZABLE_OBJECT</text>
</a>
</g>
</g>
<!-- CLAS&#45;CX_ROOT&#45;&gt;INTF&#45;IF_SERIALIZABLE_OBJECT -->
<g id="edge26" class="edge">
<title>CLAS&#45;CX_ROOT&#45;&gt;INTF&#45;IF_SERIALIZABLE_OBJECT</title>
<path fill="none" stroke="black" d="M767.6,-222.67C704.72,-211.93 604.91,-194.89 528.03,-181.77"/>
<polygon fill="black" stroke="black" points="528.26,-178.26 517.82,-180.02 527.08,-185.16 528.26,-178.26"/>
</g>
<!-- DTEL&#45;SYREPID -->
<g id="node18" class="node">
<title>DTEL&#45;SYREPID</title>
<g id="a_node18"><a xlink:href="./DTEL_SYREPID.html" xlink:title="DTEL&#45;SYREPID">
<polygon fill="none" stroke="green" points="665.35,-180 550.85,-180 550.85,-144 665.35,-144 665.35,-180"/>
<text text-anchor="middle" x="608.1" y="-157.8" font-family="Times,serif" font-size="14.00">DTEL&#45;SYREPID</text>
</a>
</g>
</g>
<!-- CLAS&#45;CX_ROOT&#45;&gt;DTEL&#45;SYREPID -->
<g id="edge24" class="edge">
<title>CLAS&#45;CX_ROOT&#45;&gt;DTEL&#45;SYREPID</title>
<path fill="none" stroke="black" d="M774.56,-215.97C743.56,-206.1 704.34,-193.62 671.76,-183.25"/>
<polygon fill="black" stroke="black" points="672.47,-179.81 661.88,-180.11 670.35,-186.48 672.47,-179.81"/>
</g>
<!-- DTEL&#45;S380ERRID -->
<g id="node20" class="node">
<title>DTEL&#45;S380ERRID</title>
<g id="a_node20"><a xlink:href="./DTEL_S380ERRID.html" xlink:title="DTEL&#45;S380ERRID">
<polygon fill="none" stroke="yellow" points="810.8,-180 683.4,-180 683.4,-144 810.8,-144 810.8,-180"/>
<text text-anchor="middle" x="747.1" y="-157.8" font-family="Times,serif" font-size="14.00">DTEL&#45;S380ERRID</text>
</a>
</g>
</g>
<!-- CLAS&#45;CX_ROOT&#45;&gt;DTEL&#45;S380ERRID -->
<g id="edge23" class="edge">
<title>CLAS&#45;CX_ROOT&#45;&gt;DTEL&#45;S380ERRID</title>
<path fill="none" stroke="black" d="M808.08,-215.7C797.97,-206.97 785.56,-196.24 774.58,-186.75"/>
<polygon fill="black" stroke="black" points="776.75,-183.99 766.89,-180.1 772.17,-189.29 776.75,-183.99"/>
</g>
<!-- DTEL&#45;SOTR_CONC -->
<g id="node22" class="node">
<title>DTEL&#45;SOTR_CONC</title>
<g id="a_node22"><a xlink:href="./DTEL_SOTR_CONC.html" xlink:title="DTEL&#45;SOTR_CONC">
<polygon fill="none" stroke="yellow" points="967.19,-180 829.01,-180 829.01,-144 967.19,-144 967.19,-180"/>
<text text-anchor="middle" x="898.1" y="-157.8" font-family="Times,serif" font-size="14.00">DTEL&#45;SOTR_CONC</text>
</a>
</g>
</g>
<!-- CLAS&#45;CX_ROOT&#45;&gt;DTEL&#45;SOTR_CONC -->
<g id="edge22" class="edge">
<title>CLAS&#45;CX_ROOT&#45;&gt;DTEL&#45;SOTR_CONC</title>
<path fill="none" stroke="black" d="M845.4,-215.7C853.97,-207.14 864.44,-196.66 873.8,-187.3"/>
<polygon fill="black" stroke="black" points="876.4,-189.65 881,-180.1 871.45,-184.7 876.4,-189.65"/>
</g>
<!-- DOMA&#45;PROGRAMM -->
<g id="node19" class="node">
<title>DOMA&#45;PROGRAMM</title>
<g id="a_node19"><a xlink:href="./DOMA_PROGRAMM.html" xlink:title="DOMA&#45;PROGRAMM">
<polygon fill="none" stroke="yellow" points="661.69,-108 516.51,-108 516.51,-72 661.69,-72 661.69,-108"/>
<text text-anchor="middle" x="589.1" y="-85.8" font-family="Times,serif" font-size="14.00">DOMA&#45;PROGRAMM</text>
</a>
</g>
</g>
<!-- DTEL&#45;SYREPID&#45;&gt;DOMA&#45;PROGRAMM -->
<g id="edge27" class="edge">
<title>DTEL&#45;SYREPID&#45;&gt;DOMA&#45;PROGRAMM</title>
<path fill="none" stroke="black" d="M603.4,-143.7C601.29,-135.9 598.74,-126.51 596.38,-117.83"/>
<polygon fill="black" stroke="black" points="599.74,-116.84 593.74,-108.1 592.98,-118.67 599.74,-116.84"/>
</g>
<!-- DOMA&#45;SYCHAR30 -->
<g id="node21" class="node">
<title>DOMA&#45;SYCHAR30</title>
<g id="a_node21"><a xlink:href="./DOMA_SYCHAR30.html" xlink:title="DOMA&#45;SYCHAR30">
<polygon fill="none" stroke="yellow" points="814.3,-108 679.9,-108 679.9,-72 814.3,-72 814.3,-108"/>
<text text-anchor="middle" x="747.1" y="-85.8" font-family="Times,serif" font-size="14.00">DOMA&#45;SYCHAR30</text>
</a>
</g>
</g>
<!-- DTEL&#45;S380ERRID&#45;&gt;DOMA&#45;SYCHAR30 -->
<g id="edge28" class="edge">
<title>DTEL&#45;S380ERRID&#45;&gt;DOMA&#45;SYCHAR30</title>
<path fill="none" stroke="black" d="M747.1,-143.7C747.1,-135.98 747.1,-126.71 747.1,-118.11"/>
<polygon fill="black" stroke="black" points="750.6,-118.1 747.1,-108.1 743.6,-118.1 750.6,-118.1"/>
</g>
<!-- DOMA&#45;SYSUUID_C -->
<g id="node23" class="node">
<title>DOMA&#45;SYSUUID_C</title>
<g id="a_node23"><a xlink:href="./DOMA_SYSUUID_C.html" xlink:title="DOMA&#45;SYSUUID_C">
<polygon fill="none" stroke="yellow" points="972.51,-108 831.69,-108 831.69,-72 972.51,-72 972.51,-108"/>
<text text-anchor="middle" x="902.1" y="-85.8" font-family="Times,serif" font-size="14.00">DOMA&#45;SYSUUID_C</text>
</a>
</g>
</g>
<!-- DTEL&#45;SOTR_CONC&#45;&gt;DOMA&#45;SYSUUID_C -->
<g id="edge29" class="edge">
<title>DTEL&#45;SOTR_CONC&#45;&gt;DOMA&#45;SYSUUID_C</title>
<path fill="none" stroke="black" d="M899.09,-143.7C899.53,-135.98 900.06,-126.71 900.55,-118.11"/>
<polygon fill="black" stroke="black" points="904.05,-118.29 901.12,-108.1 897.06,-117.89 904.05,-118.29"/>
</g>
</g>
</svg>
