<?xml version="1.0" encoding="UTF-8" standalone="no"?>
<!DOCTYPE svg PUBLIC "-//W3C//DTD SVG 1.1//EN"
 "http://www.w3.org/Graphics/SVG/1.1/DTD/svg11.dtd">
<!-- Generated by graphviz version 2.47.3 (20210619.1520)
 -->
<!-- Title: G Pages: 1 -->
<svg width="327pt" height="116pt"
 viewBox="0.00 0.00 327.30 116.00" xmlns="http://www.w3.org/2000/svg" xmlns:xlink="http://www.w3.org/1999/xlink">
<g id="graph0" class="graph" transform="scale(1 1) rotate(0) translate(4 112)">
<title>G</title>
<polygon fill="white" stroke="transparent" points="-4,4 -4,-112 323.3,-112 323.3,4 -4,4"/>
<!-- CLAS&#45;CL_XCO_BDEF_IMPLEMENTATION_TYP -->
<g id="node1" class="node">
<title>CLAS&#45;CL_XCO_BDEF_IMPLEMENTATION_TYP</title>
<g id="a_node1"><a xlink:href="./CLAS_CL_XCO_BDEF_IMPLEMENTATION_TYP.html" xlink:title="CLAS&#45;CL_XCO_BDEF_IMPLEMENTATION_TYP">
<polygon fill="none" stroke="green" points="319.43,-108 -0.13,-108 -0.13,-72 319.43,-72 319.43,-108"/>
<text text-anchor="middle" x="159.65" y="-85.8" font-family="Times,serif" font-size="14.00">CLAS&#45;CL_XCO_BDEF_IMPLEMENTATION_TYP</text>
</a>
</g>
</g>
<!-- CLAS&#45;CL_XCO_BDEF_IMPLEMENTATN_TYP_F -->
<g id="node2" class="node">
<title>CLAS&#45;CL_XCO_BDEF_IMPLEMENTATN_TYP_F</title>
<g id="a_node2"><a xlink:href="./CLAS_CL_XCO_BDEF_IMPLEMENTATN_TYP_F.html" xlink:title="CLAS&#45;CL_XCO_BDEF_IMPLEMENTATN_TYP_F">
<polygon fill="none" stroke="green" points="319.44,-36 -0.15,-36 -0.15,0 319.44,0 319.44,-36"/>
<text text-anchor="middle" x="159.65" y="-13.8" font-family="Times,serif" font-size="14.00">CLAS&#45;CL_XCO_BDEF_IMPLEMENTATN_TYP_F</text>
</a>
</g>
</g>
<!-- CLAS&#45;CL_XCO_BDEF_IMPLEMENTATION_TYP&#45;&gt;CLAS&#45;CL_XCO_BDEF_IMPLEMENTATN_TYP_F -->
<g id="edge1" class="edge">
<title>CLAS&#45;CL_XCO_BDEF_IMPLEMENTATION_TYP&#45;&gt;CLAS&#45;CL_XCO_BDEF_IMPLEMENTATN_TYP_F</title>
<path fill="none" stroke="black" d="M147.82,-71.7C146.23,-63.98 145.77,-54.71 146.46,-46.11"/>
<polygon fill="black" stroke="black" points="149.94,-46.49 147.86,-36.1 143.01,-45.52 149.94,-46.49"/>
</g>
<!-- CLAS&#45;CL_XCO_BDEF_IMPLEMENTATION_TYP&#45;&gt;CLAS&#45;CL_XCO_BDEF_IMPLEMENTATN_TYP_F -->
<g id="edge3" class="edge">
<title>CLAS&#45;CL_XCO_BDEF_IMPLEMENTATION_TYP&#45;&gt;CLAS&#45;CL_XCO_BDEF_IMPLEMENTATN_TYP_F</title>
<path fill="none" stroke="black" d="M171.48,-71.7C173.07,-63.98 173.52,-54.71 172.84,-46.11"/>
<polygon fill="black" stroke="black" points="176.29,-45.52 171.44,-36.1 169.36,-46.49 176.29,-45.52"/>
</g>
<!-- CLAS&#45;CL_XCO_BDEF_IMPLEMENTATN_TYP_F&#45;&gt;CLAS&#45;CL_XCO_BDEF_IMPLEMENTATION_TYP -->
<g id="edge2" class="edge">
<title>CLAS&#45;CL_XCO_BDEF_IMPLEMENTATN_TYP_F&#45;&gt;CLAS&#45;CL_XCO_BDEF_IMPLEMENTATION_TYP</title>
<path fill="none" stroke="black" d="M159.65,-36.1C159.65,-43.79 159.65,-53.05 159.65,-61.67"/>
<polygon fill="black" stroke="black" points="156.15,-61.7 159.65,-71.7 163.15,-61.7 156.15,-61.7"/>
</g>
</g>
</svg>
