<?xml version="1.0" encoding="UTF-8" standalone="no"?>
<!DOCTYPE svg PUBLIC "-//W3C//DTD SVG 1.1//EN"
 "http://www.w3.org/Graphics/SVG/1.1/DTD/svg11.dtd">
<!-- Generated by graphviz version 2.47.3 (20210619.1520)
 -->
<!-- Title: G Pages: 1 -->
<svg width="1202pt" height="404pt"
 viewBox="0.00 0.00 1202.29 404.00" xmlns="http://www.w3.org/2000/svg" xmlns:xlink="http://www.w3.org/1999/xlink">
<g id="graph0" class="graph" transform="scale(1 1) rotate(0) translate(4 400)">
<title>G</title>
<polygon fill="white" stroke="transparent" points="-4,4 -4,-400 1198.29,-400 1198.29,4 -4,4"/>
<!-- CLAS&#45;CL_XCO_CDS_CARDINALITY_F -->
<g id="node1" class="node">
<title>CLAS&#45;CL_XCO_CDS_CARDINALITY_F</title>
<g id="a_node1"><a xlink:href="./CLAS_CL_XCO_CDS_CARDINALITY_F.html" xlink:title="CLAS&#45;CL_XCO_CDS_CARDINALITY_F">
<polygon fill="none" stroke="green" points="731.89,-396 469.85,-396 469.85,-360 731.89,-360 731.89,-396"/>
<text text-anchor="middle" x="600.87" y="-373.8" font-family="Times,serif" font-size="14.00">CLAS&#45;CL_XCO_CDS_CARDINALITY_F</text>
</a>
</g>
</g>
<!-- CLAS&#45;CL_XCO_CDS_CARDINALITY -->
<g id="node2" class="node">
<title>CLAS&#45;CL_XCO_CDS_CARDINALITY</title>
<g id="a_node2"><a xlink:href="./CLAS_CL_XCO_CDS_CARDINALITY.html" xlink:title="CLAS&#45;CL_XCO_CDS_CARDINALITY">
<polygon fill="none" stroke="green" points="724.6,-324 477.13,-324 477.13,-288 724.6,-288 724.6,-324"/>
<text text-anchor="middle" x="600.87" y="-301.8" font-family="Times,serif" font-size="14.00">CLAS&#45;CL_XCO_CDS_CARDINALITY</text>
</a>
</g>
</g>
<!-- CLAS&#45;CL_XCO_CDS_CARDINALITY_F&#45;&gt;CLAS&#45;CL_XCO_CDS_CARDINALITY -->
<g id="edge5" class="edge">
<title>CLAS&#45;CL_XCO_CDS_CARDINALITY_F&#45;&gt;CLAS&#45;CL_XCO_CDS_CARDINALITY</title>
<path fill="none" stroke="black" d="M589.04,-359.7C587.45,-351.98 586.99,-342.71 587.68,-334.11"/>
<polygon fill="black" stroke="black" points="591.16,-334.49 589.08,-324.1 584.23,-333.52 591.16,-334.49"/>
</g>
<!-- CLAS&#45;CL_XCO_CDS_CARDINALITY_F&#45;&gt;CLAS&#45;CL_XCO_CDS_CARDINALITY -->
<g id="edge22" class="edge">
<title>CLAS&#45;CL_XCO_CDS_CARDINALITY_F&#45;&gt;CLAS&#45;CL_XCO_CDS_CARDINALITY</title>
<path fill="none" stroke="black" d="M612.7,-359.7C614.29,-351.98 614.74,-342.71 614.06,-334.11"/>
<polygon fill="black" stroke="black" points="617.51,-333.52 612.66,-324.1 610.58,-334.49 617.51,-333.52"/>
</g>
<!-- CLAS&#45;CL_XCO_CDS_CARDINALITY_CN -->
<g id="node5" class="node">
<title>CLAS&#45;CL_XCO_CDS_CARDINALITY_CN</title>
<g id="a_node5"><a xlink:href="./CLAS_CL_XCO_CDS_CARDINALITY_CN.html" xlink:title="CLAS&#45;CL_XCO_CDS_CARDINALITY_CN">
<polygon fill="none" stroke="green" points="554.05,-252 279.69,-252 279.69,-216 554.05,-216 554.05,-252"/>
<text text-anchor="middle" x="416.87" y="-229.8" font-family="Times,serif" font-size="14.00">CLAS&#45;CL_XCO_CDS_CARDINALITY_CN</text>
</a>
</g>
</g>
<!-- CLAS&#45;CL_XCO_CDS_CARDINALITY_F&#45;&gt;CLAS&#45;CL_XCO_CDS_CARDINALITY_CN -->
<g id="edge3" class="edge">
<title>CLAS&#45;CL_XCO_CDS_CARDINALITY_F&#45;&gt;CLAS&#45;CL_XCO_CDS_CARDINALITY_CN</title>
<path fill="none" stroke="black" d="M516.52,-359.97C492.8,-351.83 468.55,-340.21 449.87,-324 430.6,-307.28 416.93,-281.4 411.77,-261.85"/>
<polygon fill="black" stroke="black" points="415.2,-261.15 409.84,-252.02 408.34,-262.5 415.2,-261.15"/>
</g>
<!-- CLAS&#45;CL_XCO_CDS_CARDINALITY_F&#45;&gt;CLAS&#45;CL_XCO_CDS_CARDINALITY_CN -->
<g id="edge20" class="edge">
<title>CLAS&#45;CL_XCO_CDS_CARDINALITY_F&#45;&gt;CLAS&#45;CL_XCO_CDS_CARDINALITY_CN</title>
<path fill="none" stroke="black" d="M550.41,-359.97C528.8,-351.83 504.55,-340.21 485.87,-324 466.25,-306.97 452.43,-280.44 440.83,-260.78"/>
<polygon fill="black" stroke="black" points="443.68,-258.72 435.48,-252.02 437.71,-262.37 443.68,-258.72"/>
</g>
<!-- CLAS&#45;CL_XCO_CDS_CARDINALITY_N -->
<g id="node7" class="node">
<title>CLAS&#45;CL_XCO_CDS_CARDINALITY_N</title>
<g id="a_node7"><a xlink:href="./CLAS_CL_XCO_CDS_CARDINALITY_N.html" xlink:title="CLAS&#45;CL_XCO_CDS_CARDINALITY_N">
<polygon fill="none" stroke="green" points="1194.21,-252 929.53,-252 929.53,-216 1194.21,-216 1194.21,-252"/>
<text text-anchor="middle" x="1061.87" y="-229.8" font-family="Times,serif" font-size="14.00">CLAS&#45;CL_XCO_CDS_CARDINALITY_N</text>
</a>
</g>
</g>
<!-- CLAS&#45;CL_XCO_CDS_CARDINALITY_F&#45;&gt;CLAS&#45;CL_XCO_CDS_CARDINALITY_N -->
<g id="edge4" class="edge">
<title>CLAS&#45;CL_XCO_CDS_CARDINALITY_F&#45;&gt;CLAS&#45;CL_XCO_CDS_CARDINALITY_N</title>
<path fill="none" stroke="black" d="M642.68,-360C674.98,-349.69 720,-336.22 759.87,-324 836.19,-300.62 923.82,-273.04 985.27,-254.85"/>
<polygon fill="black" stroke="black" points="986.3,-258.2 994.9,-252.02 984.32,-251.49 986.3,-258.2"/>
</g>
<!-- CLAS&#45;CL_XCO_CDS_CARDINALITY_F&#45;&gt;CLAS&#45;CL_XCO_CDS_CARDINALITY_N -->
<g id="edge21" class="edge">
<title>CLAS&#45;CL_XCO_CDS_CARDINALITY_F&#45;&gt;CLAS&#45;CL_XCO_CDS_CARDINALITY_N</title>
<path fill="none" stroke="black" d="M658.32,-360C692.98,-349.69 738,-336.22 777.87,-324 853.87,-300.71 941.1,-273.27 998.6,-255.08"/>
<polygon fill="black" stroke="black" points="999.8,-258.37 1008.28,-252.02 997.69,-251.7 999.8,-258.37"/>
</g>
<!-- CLAS&#45;CL_XCO_CDS_CARDINALITY_1 -->
<g id="node8" class="node">
<title>CLAS&#45;CL_XCO_CDS_CARDINALITY_1</title>
<g id="a_node8"><a xlink:href="./CLAS_CL_XCO_CDS_CARDINALITY_1.html" xlink:title="CLAS&#45;CL_XCO_CDS_CARDINALITY_1">
<polygon fill="none" stroke="green" points="261.6,-252 0.13,-252 0.13,-216 261.6,-216 261.6,-252"/>
<text text-anchor="middle" x="130.87" y="-229.8" font-family="Times,serif" font-size="14.00">CLAS&#45;CL_XCO_CDS_CARDINALITY_1</text>
</a>
</g>
</g>
<!-- CLAS&#45;CL_XCO_CDS_CARDINALITY_F&#45;&gt;CLAS&#45;CL_XCO_CDS_CARDINALITY_1 -->
<g id="edge2" class="edge">
<title>CLAS&#45;CL_XCO_CDS_CARDINALITY_F&#45;&gt;CLAS&#45;CL_XCO_CDS_CARDINALITY_1</title>
<path fill="none" stroke="black" d="M535.01,-359.87C442.34,-333.56 275.76,-283.29 188.02,-255.22"/>
<polygon fill="black" stroke="black" points="188.83,-251.81 178.24,-252.08 186.69,-258.47 188.83,-251.81"/>
</g>
<!-- CLAS&#45;CL_XCO_CDS_CARDINALITY_F&#45;&gt;CLAS&#45;CL_XCO_CDS_CARDINALITY_1 -->
<g id="edge19" class="edge">
<title>CLAS&#45;CL_XCO_CDS_CARDINALITY_F&#45;&gt;CLAS&#45;CL_XCO_CDS_CARDINALITY_1</title>
<path fill="none" stroke="black" d="M544.18,-359.87C456.9,-333.5 290.02,-283.08 197.24,-255.05"/>
<polygon fill="black" stroke="black" points="197.98,-251.62 187.4,-252.08 195.96,-258.32 197.98,-251.62"/>
</g>
<!-- CLAS&#45;CL_XCO_CDS_CARDINALITY_C -->
<g id="node9" class="node">
<title>CLAS&#45;CL_XCO_CDS_CARDINALITY_C</title>
<g id="a_node9"><a xlink:href="./CLAS_CL_XCO_CDS_CARDINALITY_C.html" xlink:title="CLAS&#45;CL_XCO_CDS_CARDINALITY_C">
<polygon fill="none" stroke="green" points="911.94,-252 647.8,-252 647.8,-216 911.94,-216 911.94,-252"/>
<text text-anchor="middle" x="779.87" y="-229.8" font-family="Times,serif" font-size="14.00">CLAS&#45;CL_XCO_CDS_CARDINALITY_C</text>
</a>
</g>
</g>
<!-- CLAS&#45;CL_XCO_CDS_CARDINALITY_F&#45;&gt;CLAS&#45;CL_XCO_CDS_CARDINALITY_C -->
<g id="edge1" class="edge">
<title>CLAS&#45;CL_XCO_CDS_CARDINALITY_F&#45;&gt;CLAS&#45;CL_XCO_CDS_CARDINALITY_C</title>
<path fill="none" stroke="black" d="M653.03,-359.93C674.34,-351.84 697.91,-340.28 715.87,-324 734.67,-306.96 746.98,-280.43 757.42,-260.77"/>
<polygon fill="black" stroke="black" points="760.49,-262.45 762.26,-252.01 754.37,-259.07 760.49,-262.45"/>
</g>
<!-- CLAS&#45;CL_XCO_CDS_CARDINALITY_F&#45;&gt;CLAS&#45;CL_XCO_CDS_CARDINALITY_C -->
<g id="edge18" class="edge">
<title>CLAS&#45;CL_XCO_CDS_CARDINALITY_F&#45;&gt;CLAS&#45;CL_XCO_CDS_CARDINALITY_C</title>
<path fill="none" stroke="black" d="M670.04,-359.93C692.34,-351.84 715.91,-340.28 733.87,-324 752.41,-307.19 764.64,-281.15 771.8,-261.57"/>
<polygon fill="black" stroke="black" points="775.15,-262.6 775.09,-252.01 768.53,-260.33 775.15,-262.6"/>
</g>
<!-- CLAS&#45;CL_XCO_CDS_CARDINALITY&#45;&gt;CLAS&#45;CL_XCO_CDS_CARDINALITY_F -->
<g id="edge6" class="edge">
<title>CLAS&#45;CL_XCO_CDS_CARDINALITY&#45;&gt;CLAS&#45;CL_XCO_CDS_CARDINALITY_F</title>
<path fill="none" stroke="black" d="M600.87,-324.1C600.87,-331.79 600.87,-341.05 600.87,-349.67"/>
<polygon fill="black" stroke="black" points="597.37,-349.7 600.87,-359.7 604.37,-349.7 597.37,-349.7"/>
</g>
<!-- INTF&#45;IF_XCO_GEN_CDS_CARDINALITY -->
<g id="node3" class="node">
<title>INTF&#45;IF_XCO_GEN_CDS_CARDINALITY</title>
<g id="a_node3"><a xlink:href="./INTF_IF_XCO_GEN_CDS_CARDINALITY.html" xlink:title="INTF&#45;IF_XCO_GEN_CDS_CARDINALITY">
<polygon fill="none" stroke="green" points="591.75,-108 317.99,-108 317.99,-72 591.75,-72 591.75,-108"/>
<text text-anchor="middle" x="454.87" y="-85.8" font-family="Times,serif" font-size="14.00">INTF&#45;IF_XCO_GEN_CDS_CARDINALITY</text>
</a>
</g>
</g>
<!-- CLAS&#45;CL_XCO_CDS_CARDINALITY&#45;&gt;INTF&#45;IF_XCO_GEN_CDS_CARDINALITY -->
<g id="edge11" class="edge">
<title>CLAS&#45;CL_XCO_CDS_CARDINALITY&#45;&gt;INTF&#45;IF_XCO_GEN_CDS_CARDINALITY</title>
<path fill="none" stroke="black" d="M601.38,-287.93C601.43,-256.12 597.25,-187.11 562.87,-144 552.09,-130.49 537,-120.17 521.5,-112.4"/>
<polygon fill="black" stroke="black" points="522.9,-109.19 512.36,-108.11 519.93,-115.53 522.9,-109.19"/>
</g>
<!-- CLAS&#45;CL_XCO_CDS_CARDINALITY&#45;&gt;CLAS&#45;CL_XCO_CDS_CARDINALITY_CN -->
<g id="edge10" class="edge">
<title>CLAS&#45;CL_XCO_CDS_CARDINALITY&#45;&gt;CLAS&#45;CL_XCO_CDS_CARDINALITY_CN</title>
<path fill="none" stroke="black" d="M549.96,-287.88C523.46,-278.18 491.28,-265.98 465.17,-255.74"/>
<polygon fill="black" stroke="black" points="466.43,-252.48 455.84,-252.07 463.86,-258.99 466.43,-252.48"/>
</g>
<!-- CLAS&#45;CL_XCO_CDS_CARDINALITY&#45;&gt;CLAS&#45;CL_XCO_CDS_CARDINALITY_N -->
<g id="edge9" class="edge">
<title>CLAS&#45;CL_XCO_CDS_CARDINALITY&#45;&gt;CLAS&#45;CL_XCO_CDS_CARDINALITY_N</title>
<path fill="none" stroke="black" d="M707.16,-287.97C774.67,-277.55 862.4,-264.22 933.74,-253.54"/>
<polygon fill="black" stroke="black" points="934.32,-256.99 943.69,-252.05 933.28,-250.07 934.32,-256.99"/>
</g>
<!-- CLAS&#45;CL_XCO_CDS_CARDINALITY&#45;&gt;CLAS&#45;CL_XCO_CDS_CARDINALITY_1 -->
<g id="edge7" class="edge">
<title>CLAS&#45;CL_XCO_CDS_CARDINALITY&#45;&gt;CLAS&#45;CL_XCO_CDS_CARDINALITY_1</title>
<path fill="none" stroke="black" d="M480.61,-287.97C409.71,-277.57 320.39,-264.27 249.74,-253.6"/>
<polygon fill="black" stroke="black" points="249.87,-250.08 239.46,-252.05 248.82,-257.01 249.87,-250.08"/>
</g>
<!-- CLAS&#45;CL_XCO_CDS_CARDINALITY&#45;&gt;CLAS&#45;CL_XCO_CDS_CARDINALITY_C -->
<g id="edge8" class="edge">
<title>CLAS&#45;CL_XCO_CDS_CARDINALITY&#45;&gt;CLAS&#45;CL_XCO_CDS_CARDINALITY_C</title>
<path fill="none" stroke="black" d="M638.76,-287.88C662.65,-278.14 693.9,-265.87 720.96,-255.61"/>
<polygon fill="black" stroke="black" points="722.21,-258.88 730.33,-252.07 719.74,-252.33 722.21,-258.88"/>
</g>
<!-- CLAS&#45;CL_XCO_GEN_CDS_BP_CARDINALITY -->
<g id="node4" class="node">
<title>CLAS&#45;CL_XCO_GEN_CDS_BP_CARDINALITY</title>
<g id="a_node4"><a xlink:href="./CLAS_CL_XCO_GEN_CDS_BP_CARDINALITY.html" xlink:title="CLAS&#45;CL_XCO_GEN_CDS_BP_CARDINALITY">
<polygon fill="none" stroke="green" points="690.49,-36 383.25,-36 383.25,0 690.49,0 690.49,-36"/>
<text text-anchor="middle" x="536.87" y="-13.8" font-family="Times,serif" font-size="14.00">CLAS&#45;CL_XCO_GEN_CDS_BP_CARDINALITY</text>
</a>
</g>
</g>
<!-- INTF&#45;IF_XCO_GEN_CDS_CARDINALITY&#45;&gt;CLAS&#45;CL_XCO_GEN_CDS_BP_CARDINALITY -->
<g id="edge12" class="edge">
<title>INTF&#45;IF_XCO_GEN_CDS_CARDINALITY&#45;&gt;CLAS&#45;CL_XCO_GEN_CDS_BP_CARDINALITY</title>
<path fill="none" stroke="black" d="M475.14,-71.7C485.37,-62.97 497.93,-52.24 509.05,-42.75"/>
<polygon fill="black" stroke="black" points="511.5,-45.26 516.83,-36.1 506.95,-39.94 511.5,-45.26"/>
</g>
<!-- CLAS&#45;CL_XCO_GEN_CDS_BP_CARDINALITY&#45;&gt;CLAS&#45;CL_XCO_CDS_CARDINALITY -->
<g id="edge13" class="edge">
<title>CLAS&#45;CL_XCO_GEN_CDS_BP_CARDINALITY&#45;&gt;CLAS&#45;CL_XCO_CDS_CARDINALITY</title>
<path fill="none" stroke="black" d="M567.4,-36.21C580.13,-45.12 593.61,-57.24 600.87,-72 634.16,-139.72 618.93,-232.47 608.22,-277.81"/>
<polygon fill="black" stroke="black" points="604.76,-277.21 605.76,-287.76 611.56,-278.89 604.76,-277.21"/>
</g>
<!-- CLAS&#45;CL_XCO_CDS_CARDINALITY_CN&#45;&gt;CLAS&#45;CL_XCO_CDS_CARDINALITY_F -->
<g id="edge15" class="edge">
<title>CLAS&#45;CL_XCO_CDS_CARDINALITY_CN&#45;&gt;CLAS&#45;CL_XCO_CDS_CARDINALITY_F</title>
<path fill="none" stroke="black" d="M422.66,-252.02C430.19,-271.8 445.14,-304.27 467.87,-324 483.99,-337.99 504.27,-348.57 524.1,-356.43"/>
<polygon fill="black" stroke="black" points="522.87,-359.71 533.47,-359.97 525.35,-353.16 522.87,-359.71"/>
</g>
<!-- CLAS&#45;CL_XCO_CDS_CARDINALITY_CN&#45;&gt;CLAS&#45;CL_XCO_CDS_CARDINALITY -->
<g id="edge14" class="edge">
<title>CLAS&#45;CL_XCO_CDS_CARDINALITY_CN&#45;&gt;CLAS&#45;CL_XCO_CDS_CARDINALITY</title>
<path fill="none" stroke="black" d="M467.62,-252.07C494.11,-261.76 526.28,-273.95 552.42,-284.2"/>
<polygon fill="black" stroke="black" points="551.17,-287.47 561.75,-287.88 553.73,-280.95 551.17,-287.47"/>
</g>
<!-- INTF&#45;IF_XCO_GEN_BDEF_RSLT_CARDNALTY -->
<g id="node6" class="node">
<title>INTF&#45;IF_XCO_GEN_BDEF_RSLT_CARDNALTY</title>
<g id="a_node6"><a xlink:href="./INTF_IF_XCO_GEN_BDEF_RSLT_CARDNALTY.html" xlink:title="INTF&#45;IF_XCO_GEN_BDEF_RSLT_CARDNALTY">
<polygon fill="none" stroke="green" points="553.7,-180 240.03,-180 240.03,-144 553.7,-144 553.7,-180"/>
<text text-anchor="middle" x="396.87" y="-157.8" font-family="Times,serif" font-size="14.00">INTF&#45;IF_XCO_GEN_BDEF_RSLT_CARDNALTY</text>
</a>
</g>
</g>
<!-- CLAS&#45;CL_XCO_CDS_CARDINALITY_CN&#45;&gt;INTF&#45;IF_XCO_GEN_BDEF_RSLT_CARDNALTY -->
<g id="edge16" class="edge">
<title>CLAS&#45;CL_XCO_CDS_CARDINALITY_CN&#45;&gt;INTF&#45;IF_XCO_GEN_BDEF_RSLT_CARDNALTY</title>
<path fill="none" stroke="black" d="M411.92,-215.7C409.7,-207.9 407.01,-198.51 404.53,-189.83"/>
<polygon fill="black" stroke="black" points="407.87,-188.76 401.76,-180.1 401.14,-190.68 407.87,-188.76"/>
</g>
<!-- INTF&#45;IF_XCO_GEN_BDEF_RSLT_CARDNALTY&#45;&gt;INTF&#45;IF_XCO_GEN_CDS_CARDINALITY -->
<g id="edge17" class="edge">
<title>INTF&#45;IF_XCO_GEN_BDEF_RSLT_CARDNALTY&#45;&gt;INTF&#45;IF_XCO_GEN_CDS_CARDINALITY</title>
<path fill="none" stroke="black" d="M411.21,-143.7C418.16,-135.3 426.64,-125.07 434.27,-115.86"/>
<polygon fill="black" stroke="black" points="437.01,-118.04 440.7,-108.1 431.62,-113.57 437.01,-118.04"/>
</g>
<!-- CLAS&#45;CL_XCO_CDS_CARDINALITY_N&#45;&gt;CLAS&#45;CL_XCO_CDS_CARDINALITY_F -->
<g id="edge24" class="edge">
<title>CLAS&#45;CL_XCO_CDS_CARDINALITY_N&#45;&gt;CLAS&#45;CL_XCO_CDS_CARDINALITY_F</title>
<path fill="none" stroke="black" d="M1021.41,-252.1C968.94,-270.17 876.15,-299.4 795.87,-324 759.42,-335.17 718.68,-347.39 683.67,-357.27"/>
<polygon fill="black" stroke="black" points="682.64,-353.93 673.96,-360 684.53,-360.67 682.64,-353.93"/>
</g>
<!-- CLAS&#45;CL_XCO_CDS_CARDINALITY_N&#45;&gt;CLAS&#45;CL_XCO_CDS_CARDINALITY -->
<g id="edge23" class="edge">
<title>CLAS&#45;CL_XCO_CDS_CARDINALITY_N&#45;&gt;CLAS&#45;CL_XCO_CDS_CARDINALITY</title>
<path fill="none" stroke="black" d="M955.47,-252.05C887.95,-262.47 800.21,-275.8 728.89,-286.48"/>
<polygon fill="black" stroke="black" points="728.31,-283.02 718.94,-287.97 729.35,-289.95 728.31,-283.02"/>
</g>
<!-- CLAS&#45;CL_XCO_CDS_CARDINALITY_N&#45;&gt;INTF&#45;IF_XCO_GEN_BDEF_RSLT_CARDNALTY -->
<g id="edge25" class="edge">
<title>CLAS&#45;CL_XCO_CDS_CARDINALITY_N&#45;&gt;INTF&#45;IF_XCO_GEN_BDEF_RSLT_CARDNALTY</title>
<path fill="none" stroke="black" d="M929.41,-216.95C926.54,-216.63 923.69,-216.31 920.87,-216 801.58,-202.78 666.87,-189.18 563.91,-179.07"/>
<polygon fill="black" stroke="black" points="564.02,-175.57 553.73,-178.07 563.34,-182.53 564.02,-175.57"/>
</g>
<!-- CLAS&#45;CL_XCO_CDS_CARDINALITY_1&#45;&gt;CLAS&#45;CL_XCO_CDS_CARDINALITY_F -->
<g id="edge27" class="edge">
<title>CLAS&#45;CL_XCO_CDS_CARDINALITY_1&#45;&gt;CLAS&#45;CL_XCO_CDS_CARDINALITY_F</title>
<path fill="none" stroke="black" d="M196.55,-252.08C289.22,-278.39 456.05,-328.73 543.82,-356.81"/>
<polygon fill="black" stroke="black" points="542.75,-360.14 553.34,-359.87 544.89,-353.48 542.75,-360.14"/>
</g>
<!-- CLAS&#45;CL_XCO_CDS_CARDINALITY_1&#45;&gt;CLAS&#45;CL_XCO_CDS_CARDINALITY -->
<g id="edge26" class="edge">
<title>CLAS&#45;CL_XCO_CDS_CARDINALITY_1&#45;&gt;CLAS&#45;CL_XCO_CDS_CARDINALITY</title>
<path fill="none" stroke="black" d="M251.24,-252.05C322.15,-262.45 411.47,-275.74 482.1,-286.41"/>
<polygon fill="black" stroke="black" points="481.97,-289.93 492.38,-287.97 483.02,-283.01 481.97,-289.93"/>
</g>
<!-- CLAS&#45;CL_XCO_CDS_CARDINALITY_1&#45;&gt;INTF&#45;IF_XCO_GEN_BDEF_RSLT_CARDNALTY -->
<g id="edge28" class="edge">
<title>CLAS&#45;CL_XCO_CDS_CARDINALITY_1&#45;&gt;INTF&#45;IF_XCO_GEN_BDEF_RSLT_CARDNALTY</title>
<path fill="none" stroke="black" d="M195.6,-215.97C233.73,-205.93 282.14,-193.19 321.93,-182.72"/>
<polygon fill="black" stroke="black" points="323.07,-186.04 331.85,-180.11 321.29,-179.27 323.07,-186.04"/>
</g>
<!-- CLAS&#45;CL_XCO_CDS_CARDINALITY_C&#45;&gt;CLAS&#45;CL_XCO_CDS_CARDINALITY_F -->
<g id="edge30" class="edge">
<title>CLAS&#45;CL_XCO_CDS_CARDINALITY_C&#45;&gt;CLAS&#45;CL_XCO_CDS_CARDINALITY_F</title>
<path fill="none" stroke="black" d="M787.91,-252.01C786.72,-271.79 773.64,-304.26 751.87,-324 736.37,-338.05 716.68,-348.59 696.6,-356.41"/>
<polygon fill="black" stroke="black" points="695.22,-353.19 687.05,-359.93 697.64,-359.76 695.22,-353.19"/>
</g>
<!-- CLAS&#45;CL_XCO_CDS_CARDINALITY_C&#45;&gt;CLAS&#45;CL_XCO_CDS_CARDINALITY -->
<g id="edge29" class="edge">
<title>CLAS&#45;CL_XCO_CDS_CARDINALITY_C&#45;&gt;CLAS&#45;CL_XCO_CDS_CARDINALITY</title>
<path fill="none" stroke="black" d="M742.11,-252.07C718.26,-261.8 687.01,-274.06 659.94,-284.33"/>
<polygon fill="black" stroke="black" points="658.67,-281.07 650.55,-287.88 661.15,-287.62 658.67,-281.07"/>
</g>
<!-- CLAS&#45;CL_XCO_CDS_CARDINALITY_C&#45;&gt;INTF&#45;IF_XCO_GEN_BDEF_RSLT_CARDNALTY -->
<g id="edge31" class="edge">
<title>CLAS&#45;CL_XCO_CDS_CARDINALITY_C&#45;&gt;INTF&#45;IF_XCO_GEN_BDEF_RSLT_CARDNALTY</title>
<path fill="none" stroke="black" d="M686.67,-215.97C630.26,-205.66 558.23,-192.49 500.1,-181.87"/>
<polygon fill="black" stroke="black" points="500.62,-178.41 490.16,-180.05 499.36,-185.29 500.62,-178.41"/>
</g>
</g>
</svg>
