<?xml version="1.0" encoding="UTF-8" standalone="no"?>
<!DOCTYPE svg PUBLIC "-//W3C//DTD SVG 1.1//EN"
 "http://www.w3.org/Graphics/SVG/1.1/DTD/svg11.dtd">
<!-- Generated by graphviz version 2.47.3 (20210619.1520)
 -->
<!-- Title: G Pages: 1 -->
<svg width="1523pt" height="1124pt"
 viewBox="0.00 0.00 1523.34 1124.00" xmlns="http://www.w3.org/2000/svg" xmlns:xlink="http://www.w3.org/1999/xlink">
<g id="graph0" class="graph" transform="scale(1 1) rotate(0) translate(4 1120)">
<title>G</title>
<polygon fill="white" stroke="transparent" points="-4,4 -4,-1120 1519.34,-1120 1519.34,4 -4,4"/>
<!-- CLAS&#45;XCO_CP_NAME -->
<g id="node1" class="node">
<title>CLAS&#45;XCO_CP_NAME</title>
<polygon fill="none" stroke="green" points="456.32,-1116 297.68,-1116 297.68,-1080 456.32,-1080 456.32,-1116"/>
<text text-anchor="middle" x="377" y="-1093.8" font-family="Times,serif" font-size="14.00">CLAS&#45;XCO_CP_NAME</text>
</g>
<!-- INTF&#45;IF_XCO_CP_NAME_CHOICE_FACTORY -->
<g id="node2" class="node">
<title>INTF&#45;IF_XCO_CP_NAME_CHOICE_FACTORY</title>
<g id="a_node2"><a xlink:href="./INTF_IF_XCO_CP_NAME_CHOICE_FACTORY.html" xlink:title="INTF&#45;IF_XCO_CP_NAME_CHOICE_FACTORY">
<polygon fill="none" stroke="green" points="529.01,-1044 224.99,-1044 224.99,-1008 529.01,-1008 529.01,-1044"/>
<text text-anchor="middle" x="377" y="-1021.8" font-family="Times,serif" font-size="14.00">INTF&#45;IF_XCO_CP_NAME_CHOICE_FACTORY</text>
</a>
</g>
</g>
<!-- CLAS&#45;XCO_CP_NAME&#45;&gt;INTF&#45;IF_XCO_CP_NAME_CHOICE_FACTORY -->
<g id="edge1" class="edge">
<title>CLAS&#45;XCO_CP_NAME&#45;&gt;INTF&#45;IF_XCO_CP_NAME_CHOICE_FACTORY</title>
<path fill="none" stroke="black" d="M377,-1079.7C377,-1071.98 377,-1062.71 377,-1054.11"/>
<polygon fill="black" stroke="black" points="380.5,-1054.1 377,-1044.1 373.5,-1054.1 380.5,-1054.1"/>
</g>
<!-- INTF&#45;IF_XCO_NAME_CHOICE -->
<g id="node3" class="node">
<title>INTF&#45;IF_XCO_NAME_CHOICE</title>
<g id="a_node3"><a xlink:href="./INTF_IF_XCO_NAME_CHOICE.html" xlink:title="INTF&#45;IF_XCO_NAME_CHOICE">
<polygon fill="none" stroke="green" points="481.07,-972 272.93,-972 272.93,-936 481.07,-936 481.07,-972"/>
<text text-anchor="middle" x="377" y="-949.8" font-family="Times,serif" font-size="14.00">INTF&#45;IF_XCO_NAME_CHOICE</text>
</a>
</g>
</g>
<!-- INTF&#45;IF_XCO_CP_NAME_CHOICE_FACTORY&#45;&gt;INTF&#45;IF_XCO_NAME_CHOICE -->
<g id="edge2" class="edge">
<title>INTF&#45;IF_XCO_CP_NAME_CHOICE_FACTORY&#45;&gt;INTF&#45;IF_XCO_NAME_CHOICE</title>
<path fill="none" stroke="black" d="M377,-1007.7C377,-999.98 377,-990.71 377,-982.11"/>
<polygon fill="black" stroke="black" points="380.5,-982.1 377,-972.1 373.5,-982.1 380.5,-982.1"/>
</g>
<!-- INTF&#45;IF_XCO_STRING_ITERABLE -->
<g id="node4" class="node">
<title>INTF&#45;IF_XCO_STRING_ITERABLE</title>
<g id="a_node4"><a xlink:href="./INTF_IF_XCO_STRING_ITERABLE.html" xlink:title="INTF&#45;IF_XCO_STRING_ITERABLE">
<polygon fill="none" stroke="green" points="493.45,-900 260.55,-900 260.55,-864 493.45,-864 493.45,-900"/>
<text text-anchor="middle" x="377" y="-877.8" font-family="Times,serif" font-size="14.00">INTF&#45;IF_XCO_STRING_ITERABLE</text>
</a>
</g>
</g>
<!-- INTF&#45;IF_XCO_NAME_CHOICE&#45;&gt;INTF&#45;IF_XCO_STRING_ITERABLE -->
<g id="edge3" class="edge">
<title>INTF&#45;IF_XCO_NAME_CHOICE&#45;&gt;INTF&#45;IF_XCO_STRING_ITERABLE</title>
<path fill="none" stroke="black" d="M377,-935.7C377,-927.98 377,-918.71 377,-910.11"/>
<polygon fill="black" stroke="black" points="380.5,-910.1 377,-900.1 373.5,-910.1 380.5,-910.1"/>
</g>
<!-- INTF&#45;IF_XCO_STRING_ITERATOR -->
<g id="node5" class="node">
<title>INTF&#45;IF_XCO_STRING_ITERATOR</title>
<g id="a_node5"><a xlink:href="./INTF_IF_XCO_STRING_ITERATOR.html" xlink:title="INTF&#45;IF_XCO_STRING_ITERATOR">
<polygon fill="none" stroke="green" points="494.01,-828 259.99,-828 259.99,-792 494.01,-792 494.01,-828"/>
<text text-anchor="middle" x="377" y="-805.8" font-family="Times,serif" font-size="14.00">INTF&#45;IF_XCO_STRING_ITERATOR</text>
</a>
</g>
</g>
<!-- INTF&#45;IF_XCO_STRING_ITERABLE&#45;&gt;INTF&#45;IF_XCO_STRING_ITERATOR -->
<g id="edge4" class="edge">
<title>INTF&#45;IF_XCO_STRING_ITERABLE&#45;&gt;INTF&#45;IF_XCO_STRING_ITERATOR</title>
<path fill="none" stroke="black" d="M377,-863.7C377,-855.98 377,-846.71 377,-838.11"/>
<polygon fill="black" stroke="black" points="380.5,-838.1 377,-828.1 373.5,-838.1 380.5,-838.1"/>
</g>
<!-- INTF&#45;IF_XCO_ITERATOR -->
<g id="node6" class="node">
<title>INTF&#45;IF_XCO_ITERATOR</title>
<g id="a_node6"><a xlink:href="./INTF_IF_XCO_ITERATOR.html" xlink:title="INTF&#45;IF_XCO_ITERATOR">
<polygon fill="none" stroke="green" points="455.46,-756 278.54,-756 278.54,-720 455.46,-720 455.46,-756"/>
<text text-anchor="middle" x="367" y="-733.8" font-family="Times,serif" font-size="14.00">INTF&#45;IF_XCO_ITERATOR</text>
</a>
</g>
</g>
<!-- INTF&#45;IF_XCO_STRING_ITERATOR&#45;&gt;INTF&#45;IF_XCO_ITERATOR -->
<g id="edge6" class="edge">
<title>INTF&#45;IF_XCO_STRING_ITERATOR&#45;&gt;INTF&#45;IF_XCO_ITERATOR</title>
<path fill="none" stroke="black" d="M374.53,-791.7C373.43,-783.98 372.1,-774.71 370.87,-766.11"/>
<polygon fill="black" stroke="black" points="374.32,-765.51 369.44,-756.1 367.39,-766.5 374.32,-765.51"/>
</g>
<!-- INTF&#45;IF_XCO_STRING -->
<g id="node7" class="node">
<title>INTF&#45;IF_XCO_STRING</title>
<g id="a_node7"><a xlink:href="./INTF_IF_XCO_STRING.html" xlink:title="INTF&#45;IF_XCO_STRING">
<polygon fill="none" stroke="green" points="632.3,-756 473.7,-756 473.7,-720 632.3,-720 632.3,-756"/>
<text text-anchor="middle" x="553" y="-733.8" font-family="Times,serif" font-size="14.00">INTF&#45;IF_XCO_STRING</text>
</a>
</g>
</g>
<!-- INTF&#45;IF_XCO_STRING_ITERATOR&#45;&gt;INTF&#45;IF_XCO_STRING -->
<g id="edge5" class="edge">
<title>INTF&#45;IF_XCO_STRING_ITERATOR&#45;&gt;INTF&#45;IF_XCO_STRING</title>
<path fill="none" stroke="black" d="M420.05,-791.88C444.33,-782.22 474.84,-770.09 500.51,-759.88"/>
<polygon fill="black" stroke="black" points="502.09,-763.02 510.09,-756.07 499.5,-756.51 502.09,-763.02"/>
</g>
<!-- INTF&#45;IF_XCO_STRING&#45;&gt;INTF&#45;IF_XCO_STRING_ITERABLE -->
<g id="edge14" class="edge">
<title>INTF&#45;IF_XCO_STRING&#45;&gt;INTF&#45;IF_XCO_STRING_ITERABLE</title>
<path fill="none" stroke="black" d="M547.21,-756.29C539.81,-776.04 525.22,-808.18 503,-828 487.63,-841.72 468.18,-852.23 449.2,-860.13"/>
<polygon fill="black" stroke="black" points="447.66,-856.98 439.65,-863.91 450.23,-863.49 447.66,-856.98"/>
</g>
<!-- INTF&#45;IF_XCO_TEXT -->
<g id="node8" class="node">
<title>INTF&#45;IF_XCO_TEXT</title>
<g id="a_node8"><a xlink:href="./INTF_IF_XCO_TEXT.html" xlink:title="INTF&#45;IF_XCO_TEXT">
<polygon fill="none" stroke="green" points="301.52,-108 158.48,-108 158.48,-72 301.52,-72 301.52,-108"/>
<text text-anchor="middle" x="230" y="-85.8" font-family="Times,serif" font-size="14.00">INTF&#45;IF_XCO_TEXT</text>
</a>
</g>
</g>
<!-- INTF&#45;IF_XCO_STRING&#45;&gt;INTF&#45;IF_XCO_TEXT -->
<g id="edge13" class="edge">
<title>INTF&#45;IF_XCO_STRING&#45;&gt;INTF&#45;IF_XCO_TEXT</title>
<path fill="none" stroke="black" d="M473.71,-721.45C411.12,-709.02 329.01,-692.35 296,-684 162.82,-650.32 0,-732.37 0,-595 0,-595 0,-595 0,-233 0,-161.25 82.05,-124.55 148.13,-106.63"/>
<polygon fill="black" stroke="black" points="149.38,-109.92 158.17,-104.02 147.61,-103.15 149.38,-109.92"/>
</g>
<!-- INTF&#45;IF_XCO_STRINGS -->
<g id="node9" class="node">
<title>INTF&#45;IF_XCO_STRINGS</title>
<g id="a_node9"><a xlink:href="./INTF_IF_XCO_STRINGS.html" xlink:title="INTF&#45;IF_XCO_STRINGS">
<polygon fill="none" stroke="green" points="375.08,-612 208.92,-612 208.92,-576 375.08,-576 375.08,-612"/>
<text text-anchor="middle" x="292" y="-589.8" font-family="Times,serif" font-size="14.00">INTF&#45;IF_XCO_STRINGS</text>
</a>
</g>
</g>
<!-- INTF&#45;IF_XCO_STRING&#45;&gt;INTF&#45;IF_XCO_STRINGS -->
<g id="edge7" class="edge">
<title>INTF&#45;IF_XCO_STRING&#45;&gt;INTF&#45;IF_XCO_STRINGS</title>
<path fill="none" stroke="black" d="M473.76,-722.35C405.48,-708.68 317.06,-689.59 311,-684 293.84,-668.18 287.13,-641.97 286.14,-622.08"/>
<polygon fill="black" stroke="black" points="289.64,-622.06 286.14,-612.06 282.64,-622.07 289.64,-622.06"/>
</g>
<!-- INTF&#45;IF_XCO_NEWS -->
<g id="node10" class="node">
<title>INTF&#45;IF_XCO_NEWS</title>
<g id="a_node10"><a xlink:href="./INTF_IF_XCO_NEWS.html" xlink:title="INTF&#45;IF_XCO_NEWS">
<polygon fill="none" stroke="green" points="798.91,-540 651.09,-540 651.09,-504 798.91,-504 798.91,-540"/>
<text text-anchor="middle" x="725" y="-517.8" font-family="Times,serif" font-size="14.00">INTF&#45;IF_XCO_NEWS</text>
</a>
</g>
</g>
<!-- INTF&#45;IF_XCO_STRING&#45;&gt;INTF&#45;IF_XCO_NEWS -->
<g id="edge12" class="edge">
<title>INTF&#45;IF_XCO_STRING&#45;&gt;INTF&#45;IF_XCO_NEWS</title>
<path fill="none" stroke="black" d="M587.27,-719.89C603.14,-710.78 621.43,-698.47 635,-684 673.08,-643.4 700.95,-583.7 714.91,-549.56"/>
<polygon fill="black" stroke="black" points="718.17,-550.82 718.63,-540.24 711.67,-548.23 718.17,-550.82"/>
</g>
<!-- INTF&#45;IF_XCO_MESSAGE -->
<g id="node12" class="node">
<title>INTF&#45;IF_XCO_MESSAGE</title>
<g id="a_node12"><a xlink:href="./INTF_IF_XCO_MESSAGE.html" xlink:title="INTF&#45;IF_XCO_MESSAGE">
<polygon fill="none" stroke="green" points="928.58,-396 755.42,-396 755.42,-360 928.58,-360 928.58,-396"/>
<text text-anchor="middle" x="842" y="-373.8" font-family="Times,serif" font-size="14.00">INTF&#45;IF_XCO_MESSAGE</text>
</a>
</g>
</g>
<!-- INTF&#45;IF_XCO_STRING&#45;&gt;INTF&#45;IF_XCO_MESSAGE -->
<g id="edge9" class="edge">
<title>INTF&#45;IF_XCO_STRING&#45;&gt;INTF&#45;IF_XCO_MESSAGE</title>
<path fill="none" stroke="black" d="M596.63,-719.99C617.61,-710.83 642.58,-698.44 663,-684 737.16,-631.56 764.58,-619.77 808,-540 831.32,-497.17 838.65,-439.87 840.96,-406.45"/>
<polygon fill="black" stroke="black" points="844.47,-406.27 841.56,-396.08 837.48,-405.86 844.47,-406.27"/>
</g>
<!-- INTF&#45;IF_XCO_XSTRING -->
<g id="node38" class="node">
<title>INTF&#45;IF_XCO_XSTRING</title>
<g id="a_node38"><a xlink:href="./INTF_IF_XCO_XSTRING.html" xlink:title="INTF&#45;IF_XCO_XSTRING">
<polygon fill="none" stroke="green" points="1299.41,-684 1130.59,-684 1130.59,-648 1299.41,-648 1299.41,-684"/>
<text text-anchor="middle" x="1215" y="-661.8" font-family="Times,serif" font-size="14.00">INTF&#45;IF_XCO_XSTRING</text>
</a>
</g>
</g>
<!-- INTF&#45;IF_XCO_STRING&#45;&gt;INTF&#45;IF_XCO_XSTRING -->
<g id="edge11" class="edge">
<title>INTF&#45;IF_XCO_STRING&#45;&gt;INTF&#45;IF_XCO_XSTRING</title>
<path fill="none" stroke="black" d="M632.4,-731.38C741.16,-723.52 942.23,-707.51 1113,-684 1115.53,-683.65 1118.09,-683.28 1120.67,-682.9"/>
<polygon fill="black" stroke="black" points="1121.39,-686.33 1130.74,-681.34 1120.32,-679.41 1121.39,-686.33"/>
</g>
<!-- INTF&#45;IF_XCO_STRING_XSTRING_CNVRSN -->
<g id="node40" class="node">
<title>INTF&#45;IF_XCO_STRING_XSTRING_CNVRSN</title>
<g id="a_node40"><a xlink:href="./INTF_IF_XCO_STRING_XSTRING_CNVRSN.html" xlink:title="INTF&#45;IF_XCO_STRING_XSTRING_CNVRSN">
<polygon fill="none" stroke="green" points="1112.73,-684 823.27,-684 823.27,-648 1112.73,-648 1112.73,-684"/>
<text text-anchor="middle" x="968" y="-661.8" font-family="Times,serif" font-size="14.00">INTF&#45;IF_XCO_STRING_XSTRING_CNVRSN</text>
</a>
</g>
</g>
<!-- INTF&#45;IF_XCO_STRING&#45;&gt;INTF&#45;IF_XCO_STRING_XSTRING_CNVRSN -->
<g id="edge10" class="edge">
<title>INTF&#45;IF_XCO_STRING&#45;&gt;INTF&#45;IF_XCO_STRING_XSTRING_CNVRSN</title>
<path fill="none" stroke="black" d="M632.53,-723.59C696.12,-712.86 786.03,-697.69 856.76,-685.76"/>
<polygon fill="black" stroke="black" points="857.78,-689.14 867.06,-684.03 856.61,-682.24 857.78,-689.14"/>
</g>
<!-- INTF&#45;IF_XCO_STRING_DECOMPOSITION -->
<g id="node41" class="node">
<title>INTF&#45;IF_XCO_STRING_DECOMPOSITION</title>
<g id="a_node41"><a xlink:href="./INTF_IF_XCO_STRING_DECOMPOSITION.html" xlink:title="INTF&#45;IF_XCO_STRING_DECOMPOSITION">
<polygon fill="none" stroke="green" points="608.61,-684 329.39,-684 329.39,-648 608.61,-648 608.61,-684"/>
<text text-anchor="middle" x="469" y="-661.8" font-family="Times,serif" font-size="14.00">INTF&#45;IF_XCO_STRING_DECOMPOSITION</text>
</a>
</g>
</g>
<!-- INTF&#45;IF_XCO_STRING&#45;&gt;INTF&#45;IF_XCO_STRING_DECOMPOSITION -->
<g id="edge8" class="edge">
<title>INTF&#45;IF_XCO_STRING&#45;&gt;INTF&#45;IF_XCO_STRING_DECOMPOSITION</title>
<path fill="none" stroke="black" d="M526.32,-719.7C515.05,-711.05 502.15,-700.45 491.39,-691.03"/>
<polygon fill="black" stroke="black" points="493.42,-688.15 483.63,-684.1 488.76,-693.37 493.42,-688.15"/>
</g>
<!-- INTF&#45;IF_XCO_TEXT&#45;&gt;INTF&#45;IF_XCO_STRINGS -->
<g id="edge15" class="edge">
<title>INTF&#45;IF_XCO_TEXT&#45;&gt;INTF&#45;IF_XCO_STRINGS</title>
<path fill="none" stroke="black" d="M220.52,-108.42C202.71,-133.9 168,-183.66 168,-233 168,-451 168,-451 168,-451 168,-492.47 169.16,-508.39 196,-540 207.22,-553.21 222.54,-563.49 237.69,-571.32"/>
<polygon fill="black" stroke="black" points="236.53,-574.66 247.06,-575.89 239.6,-568.36 236.53,-574.66"/>
</g>
<!-- INTF&#45;IF_XCO_STRINGS&#45;&gt;INTF&#45;IF_XCO_STRING_ITERABLE -->
<g id="edge22" class="edge">
<title>INTF&#45;IF_XCO_STRINGS&#45;&gt;INTF&#45;IF_XCO_STRING_ITERABLE</title>
<path fill="none" stroke="black" d="M281.35,-612.2C257.42,-653.25 204.98,-758.72 251,-828 260.13,-841.75 273.61,-851.94 288.39,-859.49"/>
<polygon fill="black" stroke="black" points="287.19,-862.8 297.73,-863.86 290.16,-856.46 287.19,-862.8"/>
</g>
<!-- INTF&#45;IF_XCO_STRINGS&#45;&gt;INTF&#45;IF_XCO_STRING -->
<g id="edge18" class="edge">
<title>INTF&#45;IF_XCO_STRINGS&#45;&gt;INTF&#45;IF_XCO_STRING</title>
<path fill="none" stroke="black" d="M298.87,-612.06C303.05,-632.21 308.75,-665.33 329,-684 334.42,-688.99 405.6,-704.77 466.34,-717.82"/>
<polygon fill="black" stroke="black" points="465.86,-721.3 476.37,-719.98 467.33,-714.46 465.86,-721.3"/>
</g>
<!-- INTF&#45;IF_XCO_STRINGS&#45;&gt;INTF&#45;IF_XCO_TEXT -->
<g id="edge21" class="edge">
<title>INTF&#45;IF_XCO_STRINGS&#45;&gt;INTF&#45;IF_XCO_TEXT</title>
<path fill="none" stroke="black" d="M230.21,-575.89C211.08,-567.63 191.55,-555.95 178,-540 151.16,-508.39 150,-492.47 150,-451 150,-451 150,-451 150,-233 150,-188.29 178.51,-143.22 201.69,-116.21"/>
<polygon fill="black" stroke="black" points="204.6,-118.2 208.67,-108.42 199.39,-113.53 204.6,-118.2"/>
</g>
<!-- INTF&#45;IF_XCO_STRINGS&#45;&gt;INTF&#45;IF_XCO_NEWS -->
<g id="edge20" class="edge">
<title>INTF&#45;IF_XCO_STRINGS&#45;&gt;INTF&#45;IF_XCO_NEWS</title>
<path fill="none" stroke="black" d="M375.29,-581.62C443.97,-571.96 544.17,-557.2 641.28,-540.08"/>
<polygon fill="black" stroke="black" points="642.04,-543.5 651.27,-538.31 640.81,-536.61 642.04,-543.5"/>
</g>
<!-- INTF&#45;IF_XCO_STRING_COMPOSITION -->
<g id="node34" class="node">
<title>INTF&#45;IF_XCO_STRING_COMPOSITION</title>
<g id="a_node34"><a xlink:href="./INTF_IF_XCO_STRING_COMPOSITION.html" xlink:title="INTF&#45;IF_XCO_STRING_COMPOSITION">
<polygon fill="none" stroke="green" points="633.45,-540 372.55,-540 372.55,-504 633.45,-504 633.45,-540"/>
<text text-anchor="middle" x="503" y="-517.8" font-family="Times,serif" font-size="14.00">INTF&#45;IF_XCO_STRING_COMPOSITION</text>
</a>
</g>
</g>
<!-- INTF&#45;IF_XCO_STRINGS&#45;&gt;INTF&#45;IF_XCO_STRING_COMPOSITION -->
<g id="edge19" class="edge">
<title>INTF&#45;IF_XCO_STRINGS&#45;&gt;INTF&#45;IF_XCO_STRING_COMPOSITION</title>
<path fill="none" stroke="black" d="M337.46,-575.97C366.16,-566.1 403.67,-553.62 435.76,-543.25"/>
<polygon fill="black" stroke="black" points="437.08,-546.51 445.53,-540.11 434.94,-539.84 437.08,-546.51"/>
</g>
<!-- TTYP&#45;STRING_TABLE -->
<g id="node35" class="node">
<title>TTYP&#45;STRING_TABLE</title>
<g id="a_node35"><a xlink:href="./TTYP_STRING_TABLE.html" xlink:title="TTYP&#45;STRING_TABLE">
<polygon fill="none" stroke="green" points="354.3,-540 195.7,-540 195.7,-504 354.3,-504 354.3,-540"/>
<text text-anchor="middle" x="275" y="-517.8" font-family="Times,serif" font-size="14.00">TTYP&#45;STRING_TABLE</text>
</a>
</g>
</g>
<!-- INTF&#45;IF_XCO_STRINGS&#45;&gt;TTYP&#45;STRING_TABLE -->
<g id="edge17" class="edge">
<title>INTF&#45;IF_XCO_STRINGS&#45;&gt;TTYP&#45;STRING_TABLE</title>
<path fill="none" stroke="black" d="M287.8,-575.7C285.9,-567.9 283.62,-558.51 281.52,-549.83"/>
<polygon fill="black" stroke="black" points="284.92,-549 279.15,-540.1 278.11,-550.65 284.92,-549"/>
</g>
<!-- DTEL&#45;INT4 -->
<g id="node36" class="node">
<title>DTEL&#45;INT4</title>
<g id="a_node36"><a xlink:href="./DTEL_INT4.html" xlink:title="DTEL&#45;INT4">
<polygon fill="none" stroke="green" points="120.25,-540 33.75,-540 33.75,-504 120.25,-504 120.25,-540"/>
<text text-anchor="middle" x="77" y="-517.8" font-family="Times,serif" font-size="14.00">DTEL&#45;INT4</text>
</a>
</g>
</g>
<!-- INTF&#45;IF_XCO_STRINGS&#45;&gt;DTEL&#45;INT4 -->
<g id="edge16" class="edge">
<title>INTF&#45;IF_XCO_STRINGS&#45;&gt;DTEL&#45;INT4</title>
<path fill="none" stroke="black" d="M239.68,-575.97C206.42,-565.14 163.49,-551.16 130.08,-540.28"/>
<polygon fill="black" stroke="black" points="131.08,-536.93 120.49,-537.16 128.91,-543.58 131.08,-536.93"/>
</g>
<!-- TTYP&#45;SXCO_T_MESSAGES -->
<g id="node11" class="node">
<title>TTYP&#45;SXCO_T_MESSAGES</title>
<g id="a_node11"><a xlink:href="./TTYP_SXCO_T_MESSAGES.html" xlink:title="TTYP&#45;SXCO_T_MESSAGES">
<polygon fill="none" stroke="green" points="814.15,-468 625.85,-468 625.85,-432 814.15,-432 814.15,-468"/>
<text text-anchor="middle" x="720" y="-445.8" font-family="Times,serif" font-size="14.00">TTYP&#45;SXCO_T_MESSAGES</text>
</a>
</g>
</g>
<!-- INTF&#45;IF_XCO_NEWS&#45;&gt;TTYP&#45;SXCO_T_MESSAGES -->
<g id="edge23" class="edge">
<title>INTF&#45;IF_XCO_NEWS&#45;&gt;TTYP&#45;SXCO_T_MESSAGES</title>
<path fill="none" stroke="black" d="M723.76,-503.7C723.21,-495.98 722.55,-486.71 721.94,-478.11"/>
<polygon fill="black" stroke="black" points="725.43,-477.83 721.22,-468.1 718.44,-478.33 725.43,-477.83"/>
</g>
<!-- TTYP&#45;SXCO_T_MESSAGES&#45;&gt;INTF&#45;IF_XCO_MESSAGE -->
<g id="edge24" class="edge">
<title>TTYP&#45;SXCO_T_MESSAGES&#45;&gt;INTF&#45;IF_XCO_MESSAGE</title>
<path fill="none" stroke="black" d="M749.84,-431.88C765.94,-422.64 786,-411.13 803.29,-401.21"/>
<polygon fill="black" stroke="black" points="805.11,-404.2 812.04,-396.19 801.63,-398.13 805.11,-404.2"/>
</g>
<!-- INTF&#45;IF_XCO_MESSAGE&#45;&gt;INTF&#45;IF_XCO_NEWS -->
<g id="edge33" class="edge">
<title>INTF&#45;IF_XCO_MESSAGE&#45;&gt;INTF&#45;IF_XCO_NEWS</title>
<path fill="none" stroke="black" d="M755.42,-388.3C699.63,-396.29 634.38,-410.05 617,-432 607.07,-444.54 608.54,-454.42 617,-468 625.51,-481.65 638.67,-491.89 652.92,-499.52"/>
<polygon fill="black" stroke="black" points="651.38,-502.67 661.9,-503.95 654.48,-496.39 651.38,-502.67"/>
</g>
<!-- INTF&#45;IF_T100_DYN_MSG -->
<g id="node13" class="node">
<title>INTF&#45;IF_T100_DYN_MSG</title>
<g id="a_node13"><a xlink:href="./INTF_IF_T100_DYN_MSG.html" xlink:title="INTF&#45;IF_T100_DYN_MSG">
<polygon fill="none" stroke="green" points="1256.91,-324 1081.09,-324 1081.09,-288 1256.91,-288 1256.91,-324"/>
<text text-anchor="middle" x="1169" y="-301.8" font-family="Times,serif" font-size="14.00">INTF&#45;IF_T100_DYN_MSG</text>
</a>
</g>
</g>
<!-- INTF&#45;IF_XCO_MESSAGE&#45;&gt;INTF&#45;IF_T100_DYN_MSG -->
<g id="edge32" class="edge">
<title>INTF&#45;IF_XCO_MESSAGE&#45;&gt;INTF&#45;IF_T100_DYN_MSG</title>
<path fill="none" stroke="black" d="M921.58,-359.97C969.24,-349.76 1029.96,-336.76 1079.32,-326.2"/>
<polygon fill="black" stroke="black" points="1080.31,-329.57 1089.35,-324.05 1078.84,-322.72 1080.31,-329.57"/>
</g>
<!-- DTEL&#45;SYMSGNO -->
<g id="node18" class="node">
<title>DTEL&#45;SYMSGNO</title>
<g id="a_node18"><a xlink:href="./DTEL_SYMSGNO.html" xlink:title="DTEL&#45;SYMSGNO">
<polygon fill="none" stroke="green" points="1226.36,-108 1101.64,-108 1101.64,-72 1226.36,-72 1226.36,-108"/>
<text text-anchor="middle" x="1164" y="-85.8" font-family="Times,serif" font-size="14.00">DTEL&#45;SYMSGNO</text>
</a>
</g>
</g>
<!-- INTF&#45;IF_XCO_MESSAGE&#45;&gt;DTEL&#45;SYMSGNO -->
<g id="edge28" class="edge">
<title>INTF&#45;IF_XCO_MESSAGE&#45;&gt;DTEL&#45;SYMSGNO</title>
<path fill="none" stroke="black" d="M928.79,-376.48C1016.17,-373.6 1153.73,-362.52 1266,-324 1384.38,-283.38 1446.14,-288.8 1508,-180 1551.97,-102.66 1383.7,-133.67 1240,-108 1238.9,-107.8 1237.8,-107.6 1236.68,-107.4"/>
<polygon fill="black" stroke="black" points="1237.02,-103.9 1226.54,-105.44 1235.69,-110.77 1237.02,-103.9"/>
</g>
<!-- DTEL&#45;SYMSGID -->
<g id="node20" class="node">
<title>DTEL&#45;SYMSGID</title>
<g id="a_node20"><a xlink:href="./DTEL_SYMSGID.html" xlink:title="DTEL&#45;SYMSGID">
<polygon fill="none" stroke="green" points="1076.92,-108 957.08,-108 957.08,-72 1076.92,-72 1076.92,-108"/>
<text text-anchor="middle" x="1017" y="-85.8" font-family="Times,serif" font-size="14.00">DTEL&#45;SYMSGID</text>
</a>
</g>
</g>
<!-- INTF&#45;IF_XCO_MESSAGE&#45;&gt;DTEL&#45;SYMSGID -->
<g id="edge27" class="edge">
<title>INTF&#45;IF_XCO_MESSAGE&#45;&gt;DTEL&#45;SYMSGID</title>
<path fill="none" stroke="black" d="M929.02,-361.78C969.36,-352.77 1011.02,-339.98 1023,-324 1069,-262.6 1043.57,-164.35 1027.29,-117.51"/>
<polygon fill="black" stroke="black" points="1030.57,-116.28 1023.88,-108.06 1023.98,-118.66 1030.57,-116.28"/>
</g>
<!-- DTEL&#45;SYMSGTY -->
<g id="node22" class="node">
<title>DTEL&#45;SYMSGTY</title>
<g id="a_node22"><a xlink:href="./DTEL_SYMSGTY.html" xlink:title="DTEL&#45;SYMSGTY">
<polygon fill="none" stroke="green" points="816.81,-252 693.19,-252 693.19,-216 816.81,-216 816.81,-252"/>
<text text-anchor="middle" x="755" y="-229.8" font-family="Times,serif" font-size="14.00">DTEL&#45;SYMSGTY</text>
</a>
</g>
</g>
<!-- INTF&#45;IF_XCO_MESSAGE&#45;&gt;DTEL&#45;SYMSGTY -->
<g id="edge26" class="edge">
<title>INTF&#45;IF_XCO_MESSAGE&#45;&gt;DTEL&#45;SYMSGTY</title>
<path fill="none" stroke="black" d="M841.77,-359.98C840.78,-341.05 836.92,-310.23 823,-288 815.66,-276.27 804.75,-266.11 793.81,-257.9"/>
<polygon fill="black" stroke="black" points="795.68,-254.94 785.5,-252.01 791.64,-260.65 795.68,-254.94"/>
</g>
<!-- DTEL&#45;SYMSGV -->
<g id="node24" class="node">
<title>DTEL&#45;SYMSGV</title>
<g id="a_node24"><a xlink:href="./DTEL_SYMSGV.html" xlink:title="DTEL&#45;SYMSGV">
<polygon fill="none" stroke="green" points="949.25,-252 834.75,-252 834.75,-216 949.25,-216 949.25,-252"/>
<text text-anchor="middle" x="892" y="-229.8" font-family="Times,serif" font-size="14.00">DTEL&#45;SYMSGV</text>
</a>
</g>
</g>
<!-- INTF&#45;IF_XCO_MESSAGE&#45;&gt;DTEL&#45;SYMSGV -->
<g id="edge29" class="edge">
<title>INTF&#45;IF_XCO_MESSAGE&#45;&gt;DTEL&#45;SYMSGV</title>
<path fill="none" stroke="black" d="M848.03,-359.87C856.63,-335.46 872.48,-290.43 882.62,-261.64"/>
<polygon fill="black" stroke="black" points="885.93,-262.78 885.95,-252.19 879.32,-260.46 885.93,-262.78"/>
</g>
<!-- INTF&#45;IF_XCO_MESSAGE_SHORT_TEXT -->
<g id="node26" class="node">
<title>INTF&#45;IF_XCO_MESSAGE_SHORT_TEXT</title>
<g id="a_node26"><a xlink:href="./INTF_IF_XCO_MESSAGE_SHORT_TEXT.html" xlink:title="INTF&#45;IF_XCO_MESSAGE_SHORT_TEXT">
<polygon fill="none" stroke="green" points="814.23,-324 545.77,-324 545.77,-288 814.23,-288 814.23,-324"/>
<text text-anchor="middle" x="680" y="-301.8" font-family="Times,serif" font-size="14.00">INTF&#45;IF_XCO_MESSAGE_SHORT_TEXT</text>
</a>
</g>
</g>
<!-- INTF&#45;IF_XCO_MESSAGE&#45;&gt;INTF&#45;IF_XCO_MESSAGE_SHORT_TEXT -->
<g id="edge31" class="edge">
<title>INTF&#45;IF_XCO_MESSAGE&#45;&gt;INTF&#45;IF_XCO_MESSAGE_SHORT_TEXT</title>
<path fill="none" stroke="black" d="M796.47,-359.88C773.43,-350.35 745.67,-338.41 722.99,-328.28"/>
<polygon fill="black" stroke="black" points="724.17,-324.97 713.61,-324.07 721.3,-331.36 724.17,-324.97"/>
</g>
<!-- CLAS&#45;CL_XCO_MESSAGE_TYPE -->
<g id="node30" class="node">
<title>CLAS&#45;CL_XCO_MESSAGE_TYPE</title>
<g id="a_node30"><a xlink:href="./CLAS_CL_XCO_MESSAGE_TYPE.html" xlink:title="CLAS&#45;CL_XCO_MESSAGE_TYPE">
<polygon fill="none" stroke="green" points="527.7,-324 302.3,-324 302.3,-288 527.7,-288 527.7,-324"/>
<text text-anchor="middle" x="415" y="-301.8" font-family="Times,serif" font-size="14.00">CLAS&#45;CL_XCO_MESSAGE_TYPE</text>
</a>
</g>
</g>
<!-- INTF&#45;IF_XCO_MESSAGE&#45;&gt;CLAS&#45;CL_XCO_MESSAGE_TYPE -->
<g id="edge30" class="edge">
<title>INTF&#45;IF_XCO_MESSAGE&#45;&gt;CLAS&#45;CL_XCO_MESSAGE_TYPE</title>
<path fill="none" stroke="black" d="M755.33,-362.79C690.03,-352.09 599.89,-337.31 528.78,-325.65"/>
<polygon fill="black" stroke="black" points="529.31,-322.19 518.88,-324.03 528.18,-329.1 529.31,-322.19"/>
</g>
<!-- TABL&#45;SYMSG -->
<g id="node33" class="node">
<title>TABL&#45;SYMSG</title>
<g id="a_node33"><a xlink:href="./TABL_SYMSG.html" xlink:title="TABL&#45;SYMSG">
<polygon fill="none" stroke="green" points="1013.93,-324 908.07,-324 908.07,-288 1013.93,-288 1013.93,-324"/>
<text text-anchor="middle" x="961" y="-301.8" font-family="Times,serif" font-size="14.00">TABL&#45;SYMSG</text>
</a>
</g>
</g>
<!-- INTF&#45;IF_XCO_MESSAGE&#45;&gt;TABL&#45;SYMSG -->
<g id="edge25" class="edge">
<title>INTF&#45;IF_XCO_MESSAGE&#45;&gt;TABL&#45;SYMSG</title>
<path fill="none" stroke="black" d="M871.11,-359.88C886.67,-350.72 906.02,-339.34 922.78,-329.48"/>
<polygon fill="black" stroke="black" points="924.93,-332.28 931.78,-324.19 921.38,-326.24 924.93,-332.28"/>
</g>
<!-- INTF&#45;IF_T100_MESSAGE -->
<g id="node14" class="node">
<title>INTF&#45;IF_T100_MESSAGE</title>
<g id="a_node14"><a xlink:href="./INTF_IF_T100_MESSAGE.html" xlink:title="INTF&#45;IF_T100_MESSAGE">
<polygon fill="none" stroke="green" points="1287.59,-252 1114.41,-252 1114.41,-216 1287.59,-216 1287.59,-252"/>
<text text-anchor="middle" x="1201" y="-229.8" font-family="Times,serif" font-size="14.00">INTF&#45;IF_T100_MESSAGE</text>
</a>
</g>
</g>
<!-- INTF&#45;IF_T100_DYN_MSG&#45;&gt;INTF&#45;IF_T100_MESSAGE -->
<g id="edge37" class="edge">
<title>INTF&#45;IF_T100_DYN_MSG&#45;&gt;INTF&#45;IF_T100_MESSAGE</title>
<path fill="none" stroke="black" d="M1176.91,-287.7C1180.55,-279.73 1184.95,-270.1 1188.99,-261.26"/>
<polygon fill="black" stroke="black" points="1192.21,-262.65 1193.18,-252.1 1185.84,-259.74 1192.21,-262.65"/>
</g>
<!-- INTF&#45;IF_MESSAGE -->
<g id="node15" class="node">
<title>INTF&#45;IF_MESSAGE</title>
<g id="a_node15"><a xlink:href="./INTF_IF_MESSAGE.html" xlink:title="INTF&#45;IF_MESSAGE">
<polygon fill="none" stroke="green" points="1499.04,-180 1362.96,-180 1362.96,-144 1499.04,-144 1499.04,-180"/>
<text text-anchor="middle" x="1431" y="-157.8" font-family="Times,serif" font-size="14.00">INTF&#45;IF_MESSAGE</text>
</a>
</g>
</g>
<!-- INTF&#45;IF_T100_DYN_MSG&#45;&gt;INTF&#45;IF_MESSAGE -->
<g id="edge36" class="edge">
<title>INTF&#45;IF_T100_DYN_MSG&#45;&gt;INTF&#45;IF_MESSAGE</title>
<path fill="none" stroke="black" d="M1216.21,-287.98C1240.82,-278.48 1271.1,-265.79 1297,-252 1333.92,-232.33 1373.51,-205.21 1400.01,-186.09"/>
<polygon fill="black" stroke="black" points="1402.1,-188.9 1408.13,-180.18 1397.99,-183.24 1402.1,-188.9"/>
</g>
<!-- INTF&#45;IF_T100_DYN_MSG&#45;&gt;DTEL&#45;SYMSGTY -->
<g id="edge35" class="edge">
<title>INTF&#45;IF_T100_DYN_MSG&#45;&gt;DTEL&#45;SYMSGTY</title>
<path fill="none" stroke="black" d="M1081.25,-293.45C1014.19,-284.16 919.27,-270.01 826.97,-252.11"/>
<polygon fill="black" stroke="black" points="827.38,-248.62 816.89,-250.13 826.03,-255.49 827.38,-248.62"/>
</g>
<!-- INTF&#45;IF_T100_DYN_MSG&#45;&gt;DTEL&#45;SYMSGV -->
<g id="edge34" class="edge">
<title>INTF&#45;IF_T100_DYN_MSG&#45;&gt;DTEL&#45;SYMSGV</title>
<path fill="none" stroke="black" d="M1101.59,-287.97C1058.36,-277.04 1002.44,-262.91 959.24,-251.99"/>
<polygon fill="black" stroke="black" points="959.94,-248.56 949.39,-249.5 958.23,-255.35 959.94,-248.56"/>
</g>
<!-- INTF&#45;IF_T100_MESSAGE&#45;&gt;INTF&#45;IF_MESSAGE -->
<g id="edge42" class="edge">
<title>INTF&#45;IF_T100_MESSAGE&#45;&gt;INTF&#45;IF_MESSAGE</title>
<path fill="none" stroke="black" d="M1256.97,-215.97C1289.53,-206.06 1330.74,-193.51 1364.89,-183.12"/>
<polygon fill="black" stroke="black" points="1366.23,-186.37 1374.78,-180.11 1364.19,-179.67 1366.23,-186.37"/>
</g>
<!-- TABL&#45;SCX_T100KEY -->
<g id="node16" class="node">
<title>TABL&#45;SCX_T100KEY</title>
<g id="a_node16"><a xlink:href="./TABL_SCX_T100KEY.html" xlink:title="TABL&#45;SCX_T100KEY">
<polygon fill="none" stroke="yellow" points="1306.75,-180 1157.25,-180 1157.25,-144 1306.75,-144 1306.75,-180"/>
<text text-anchor="middle" x="1232" y="-157.8" font-family="Times,serif" font-size="14.00">TABL&#45;SCX_T100KEY</text>
</a>
</g>
</g>
<!-- INTF&#45;IF_T100_MESSAGE&#45;&gt;TABL&#45;SCX_T100KEY -->
<g id="edge41" class="edge">
<title>INTF&#45;IF_T100_MESSAGE&#45;&gt;TABL&#45;SCX_T100KEY</title>
<path fill="none" stroke="black" d="M1208.66,-215.7C1212.19,-207.73 1216.46,-198.1 1220.37,-189.26"/>
<polygon fill="black" stroke="black" points="1223.58,-190.67 1224.43,-180.1 1217.18,-187.83 1223.58,-190.67"/>
</g>
<!-- DTEL&#45;SCX_ATTRNAME -->
<g id="node17" class="node">
<title>DTEL&#45;SCX_ATTRNAME</title>
<g id="a_node17"><a xlink:href="./DTEL_SCX_ATTRNAME.html" xlink:title="DTEL&#45;SCX_ATTRNAME">
<polygon fill="none" stroke="green" points="1417.41,-108 1248.59,-108 1248.59,-72 1417.41,-72 1417.41,-108"/>
<text text-anchor="middle" x="1333" y="-85.8" font-family="Times,serif" font-size="14.00">DTEL&#45;SCX_ATTRNAME</text>
</a>
</g>
</g>
<!-- INTF&#45;IF_T100_MESSAGE&#45;&gt;DTEL&#45;SCX_ATTRNAME -->
<g id="edge40" class="edge">
<title>INTF&#45;IF_T100_MESSAGE&#45;&gt;DTEL&#45;SCX_ATTRNAME</title>
<path fill="none" stroke="black" d="M1264.98,-216C1283.98,-207.99 1303.13,-196.45 1316,-180 1329.59,-162.62 1333.4,-137.57 1334.05,-118.47"/>
<polygon fill="black" stroke="black" points="1337.55,-118.32 1334.13,-108.29 1330.56,-118.26 1337.55,-118.32"/>
</g>
<!-- INTF&#45;IF_T100_MESSAGE&#45;&gt;DTEL&#45;SYMSGNO -->
<g id="edge39" class="edge">
<title>INTF&#45;IF_T100_MESSAGE&#45;&gt;DTEL&#45;SYMSGNO</title>
<path fill="none" stroke="black" d="M1176.52,-215.77C1165.6,-206.56 1153.88,-194.19 1148,-180 1139.69,-159.93 1145.04,-135.55 1151.71,-117.39"/>
<polygon fill="black" stroke="black" points="1155,-118.59 1155.47,-108.01 1148.5,-115.98 1155,-118.59"/>
</g>
<!-- INTF&#45;IF_T100_MESSAGE&#45;&gt;DTEL&#45;SYMSGID -->
<g id="edge38" class="edge">
<title>INTF&#45;IF_T100_MESSAGE&#45;&gt;DTEL&#45;SYMSGID</title>
<path fill="none" stroke="black" d="M1178.81,-215.87C1145.93,-190.5 1084.19,-142.85 1047.22,-114.32"/>
<polygon fill="black" stroke="black" points="1049.33,-111.53 1039.27,-108.19 1045.05,-117.07 1049.33,-111.53"/>
</g>
<!-- TABL&#45;SCX_T100KEY&#45;&gt;DTEL&#45;SCX_ATTRNAME -->
<g id="edge45" class="edge">
<title>TABL&#45;SCX_T100KEY&#45;&gt;DTEL&#45;SCX_ATTRNAME</title>
<path fill="none" stroke="black" d="M1256.71,-143.88C1269.67,-134.89 1285.73,-123.76 1299.77,-114.03"/>
<polygon fill="black" stroke="black" points="1301.97,-116.76 1308.2,-108.19 1297.98,-111.01 1301.97,-116.76"/>
</g>
<!-- TABL&#45;SCX_T100KEY&#45;&gt;DTEL&#45;SYMSGNO -->
<g id="edge44" class="edge">
<title>TABL&#45;SCX_T100KEY&#45;&gt;DTEL&#45;SYMSGNO</title>
<path fill="none" stroke="black" d="M1215.19,-143.7C1206.87,-135.14 1196.69,-124.66 1187.61,-115.3"/>
<polygon fill="black" stroke="black" points="1190.09,-112.84 1180.62,-108.1 1185.07,-117.72 1190.09,-112.84"/>
</g>
<!-- TABL&#45;SCX_T100KEY&#45;&gt;DTEL&#45;SYMSGID -->
<g id="edge43" class="edge">
<title>TABL&#45;SCX_T100KEY&#45;&gt;DTEL&#45;SYMSGID</title>
<path fill="none" stroke="black" d="M1179.68,-143.97C1149.38,-134.1 1111.05,-121.62 1079.21,-111.25"/>
<polygon fill="black" stroke="black" points="1080.15,-107.88 1069.55,-108.11 1077.98,-114.53 1080.15,-107.88"/>
</g>
<!-- DOMA&#45;SYMSGNO -->
<g id="node19" class="node">
<title>DOMA&#45;SYMSGNO</title>
<g id="a_node19"><a xlink:href="./DOMA_SYMSGNO.html" xlink:title="DOMA&#45;SYMSGNO">
<polygon fill="none" stroke="yellow" points="1229.86,-36 1098.14,-36 1098.14,0 1229.86,0 1229.86,-36"/>
<text text-anchor="middle" x="1164" y="-13.8" font-family="Times,serif" font-size="14.00">DOMA&#45;SYMSGNO</text>
</a>
</g>
</g>
<!-- DTEL&#45;SYMSGNO&#45;&gt;DOMA&#45;SYMSGNO -->
<g id="edge46" class="edge">
<title>DTEL&#45;SYMSGNO&#45;&gt;DOMA&#45;SYMSGNO</title>
<path fill="none" stroke="black" d="M1164,-71.7C1164,-63.98 1164,-54.71 1164,-46.11"/>
<polygon fill="black" stroke="black" points="1167.5,-46.1 1164,-36.1 1160.5,-46.1 1167.5,-46.1"/>
</g>
<!-- DOMA&#45;ARBGB -->
<g id="node21" class="node">
<title>DOMA&#45;ARBGB</title>
<g id="a_node21"><a xlink:href="./DOMA_ARBGB.html" xlink:title="DOMA&#45;ARBGB">
<polygon fill="none" stroke="yellow" points="1072.65,-36 961.35,-36 961.35,0 1072.65,0 1072.65,-36"/>
<text text-anchor="middle" x="1017" y="-13.8" font-family="Times,serif" font-size="14.00">DOMA&#45;ARBGB</text>
</a>
</g>
</g>
<!-- DTEL&#45;SYMSGID&#45;&gt;DOMA&#45;ARBGB -->
<g id="edge47" class="edge">
<title>DTEL&#45;SYMSGID&#45;&gt;DOMA&#45;ARBGB</title>
<path fill="none" stroke="black" d="M1017,-71.7C1017,-63.98 1017,-54.71 1017,-46.11"/>
<polygon fill="black" stroke="black" points="1020.5,-46.1 1017,-36.1 1013.5,-46.1 1020.5,-46.1"/>
</g>
<!-- DOMA&#45;SYCHAR01 -->
<g id="node23" class="node">
<title>DOMA&#45;SYCHAR01</title>
<g id="a_node23"><a xlink:href="./DOMA_SYCHAR01.html" xlink:title="DOMA&#45;SYCHAR01">
<polygon fill="none" stroke="yellow" points="797.2,-180 662.8,-180 662.8,-144 797.2,-144 797.2,-180"/>
<text text-anchor="middle" x="730" y="-157.8" font-family="Times,serif" font-size="14.00">DOMA&#45;SYCHAR01</text>
</a>
</g>
</g>
<!-- DTEL&#45;SYMSGTY&#45;&gt;DOMA&#45;SYCHAR01 -->
<g id="edge48" class="edge">
<title>DTEL&#45;SYMSGTY&#45;&gt;DOMA&#45;SYCHAR01</title>
<path fill="none" stroke="black" d="M748.82,-215.7C746,-207.81 742.61,-198.3 739.48,-189.55"/>
<polygon fill="black" stroke="black" points="742.77,-188.34 736.11,-180.1 736.18,-190.7 742.77,-188.34"/>
</g>
<!-- DOMA&#45;SYCHAR50 -->
<g id="node25" class="node">
<title>DOMA&#45;SYCHAR50</title>
<g id="a_node25"><a xlink:href="./DOMA_SYCHAR50.html" xlink:title="DOMA&#45;SYCHAR50">
<polygon fill="none" stroke="yellow" points="949.2,-180 814.8,-180 814.8,-144 949.2,-144 949.2,-180"/>
<text text-anchor="middle" x="882" y="-157.8" font-family="Times,serif" font-size="14.00">DOMA&#45;SYCHAR50</text>
</a>
</g>
</g>
<!-- DTEL&#45;SYMSGV&#45;&gt;DOMA&#45;SYCHAR50 -->
<g id="edge49" class="edge">
<title>DTEL&#45;SYMSGV&#45;&gt;DOMA&#45;SYCHAR50</title>
<path fill="none" stroke="black" d="M889.53,-215.7C888.43,-207.98 887.1,-198.71 885.87,-190.11"/>
<polygon fill="black" stroke="black" points="889.32,-189.51 884.44,-180.1 882.39,-190.5 889.32,-189.51"/>
</g>
<!-- INTF&#45;IF_XCO_MESSAGE_SHORT_TEXT&#45;&gt;INTF&#45;IF_XCO_TEXT -->
<g id="edge51" class="edge">
<title>INTF&#45;IF_XCO_MESSAGE_SHORT_TEXT&#45;&gt;INTF&#45;IF_XCO_TEXT</title>
<path fill="none" stroke="black" d="M565.75,-287.99C537.07,-280.15 507.51,-268.7 483,-252 433.63,-218.37 451.78,-178.48 403,-144 376.15,-125.02 342.33,-112.7 311.74,-104.77"/>
<polygon fill="black" stroke="black" points="312.48,-101.35 301.93,-102.35 310.8,-108.14 312.48,-101.35"/>
</g>
<!-- INTF&#45;IF_XCO_MESSAGE_SHORT_TEXT&#45;&gt;INTF&#45;IF_XCO_MESSAGE -->
<g id="edge50" class="edge">
<title>INTF&#45;IF_XCO_MESSAGE_SHORT_TEXT&#45;&gt;INTF&#45;IF_XCO_MESSAGE</title>
<path fill="none" stroke="black" d="M725.39,-324.07C748.42,-333.59 776.18,-345.53 798.88,-355.66"/>
<polygon fill="black" stroke="black" points="797.71,-358.97 808.27,-359.88 800.58,-352.59 797.71,-358.97"/>
</g>
<!-- INTF&#45;IF_XCO_L10N_TEXT -->
<g id="node27" class="node">
<title>INTF&#45;IF_XCO_L10N_TEXT</title>
<g id="a_node27"><a xlink:href="./INTF_IF_XCO_L10N_TEXT.html" xlink:title="INTF&#45;IF_XCO_L10N_TEXT">
<polygon fill="none" stroke="yellow" points="675.68,-252 492.32,-252 492.32,-216 675.68,-216 675.68,-252"/>
<text text-anchor="middle" x="584" y="-229.8" font-family="Times,serif" font-size="14.00">INTF&#45;IF_XCO_L10N_TEXT</text>
</a>
</g>
</g>
<!-- INTF&#45;IF_XCO_MESSAGE_SHORT_TEXT&#45;&gt;INTF&#45;IF_XCO_L10N_TEXT -->
<g id="edge52" class="edge">
<title>INTF&#45;IF_XCO_MESSAGE_SHORT_TEXT&#45;&gt;INTF&#45;IF_XCO_L10N_TEXT</title>
<path fill="none" stroke="black" d="M656.27,-287.7C644.06,-278.8 629.01,-267.82 615.82,-258.2"/>
<polygon fill="black" stroke="black" points="617.6,-255.17 607.46,-252.1 613.48,-260.82 617.6,-255.17"/>
</g>
<!-- INTF&#45;IF_XCO_L10N_TEXT&#45;&gt;INTF&#45;IF_XCO_TEXT -->
<g id="edge54" class="edge">
<title>INTF&#45;IF_XCO_L10N_TEXT&#45;&gt;INTF&#45;IF_XCO_TEXT</title>
<path fill="none" stroke="black" d="M564.55,-215.79C536.71,-191.29 487.77,-148.77 478,-144 425.91,-118.55 361.79,-105.26 311.8,-98.35"/>
<polygon fill="black" stroke="black" points="312.05,-94.85 301.68,-97.01 311.13,-101.79 312.05,-94.85"/>
</g>
<!-- DTEL&#45;SPRAS -->
<g id="node28" class="node">
<title>DTEL&#45;SPRAS</title>
<g id="a_node28"><a xlink:href="./DTEL_SPRAS.html" xlink:title="DTEL&#45;SPRAS">
<polygon fill="none" stroke="green" points="633.72,-180 534.28,-180 534.28,-144 633.72,-144 633.72,-180"/>
<text text-anchor="middle" x="584" y="-157.8" font-family="Times,serif" font-size="14.00">DTEL&#45;SPRAS</text>
</a>
</g>
</g>
<!-- INTF&#45;IF_XCO_L10N_TEXT&#45;&gt;DTEL&#45;SPRAS -->
<g id="edge53" class="edge">
<title>INTF&#45;IF_XCO_L10N_TEXT&#45;&gt;DTEL&#45;SPRAS</title>
<path fill="none" stroke="black" d="M584,-215.7C584,-207.98 584,-198.71 584,-190.11"/>
<polygon fill="black" stroke="black" points="587.5,-190.1 584,-180.1 580.5,-190.1 587.5,-190.1"/>
</g>
<!-- DOMA&#45;SPRAS -->
<g id="node29" class="node">
<title>DOMA&#45;SPRAS</title>
<g id="a_node29"><a xlink:href="./DOMA_SPRAS.html" xlink:title="DOMA&#45;SPRAS">
<polygon fill="none" stroke="green" points="637.22,-108 530.78,-108 530.78,-72 637.22,-72 637.22,-108"/>
<text text-anchor="middle" x="584" y="-85.8" font-family="Times,serif" font-size="14.00">DOMA&#45;SPRAS</text>
</a>
</g>
</g>
<!-- DTEL&#45;SPRAS&#45;&gt;DOMA&#45;SPRAS -->
<g id="edge55" class="edge">
<title>DTEL&#45;SPRAS&#45;&gt;DOMA&#45;SPRAS</title>
<path fill="none" stroke="black" d="M584,-143.7C584,-135.98 584,-126.71 584,-118.11"/>
<polygon fill="black" stroke="black" points="587.5,-118.1 584,-108.1 580.5,-118.1 587.5,-118.1"/>
</g>
<!-- CLAS&#45;CL_XCO_MESSAGE_TYPE&#45;&gt;INTF&#45;IF_XCO_NEWS -->
<g id="edge58" class="edge">
<title>CLAS&#45;CL_XCO_MESSAGE_TYPE&#45;&gt;INTF&#45;IF_XCO_NEWS</title>
<path fill="none" stroke="black" d="M431.98,-324.08C463.99,-355.61 536.42,-423.75 607,-468 626.55,-480.25 649.41,-491.21 669.78,-499.93"/>
<polygon fill="black" stroke="black" points="668.67,-503.26 679.24,-503.91 671.38,-496.81 668.67,-503.26"/>
</g>
<!-- CLAS&#45;CL_XCO_MESSAGE_TYPE&#45;&gt;DTEL&#45;SYMSGTY -->
<g id="edge56" class="edge">
<title>CLAS&#45;CL_XCO_MESSAGE_TYPE&#45;&gt;DTEL&#45;SYMSGTY</title>
<path fill="none" stroke="black" d="M507.06,-287.98C556.8,-278.53 619.5,-266.22 683.36,-252.32"/>
<polygon fill="black" stroke="black" points="684.18,-255.72 693.2,-250.17 682.68,-248.89 684.18,-255.72"/>
</g>
<!-- CLAS&#45;CL_XCO_ENUM_CONSTANT -->
<g id="node31" class="node">
<title>CLAS&#45;CL_XCO_ENUM_CONSTANT</title>
<g id="a_node31"><a xlink:href="./CLAS_CL_XCO_ENUM_CONSTANT.html" xlink:title="CLAS&#45;CL_XCO_ENUM_CONSTANT">
<polygon fill="none" stroke="yellow" points="436.24,-252 195.76,-252 195.76,-216 436.24,-216 436.24,-252"/>
<text text-anchor="middle" x="316" y="-229.8" font-family="Times,serif" font-size="14.00">CLAS&#45;CL_XCO_ENUM_CONSTANT</text>
</a>
</g>
</g>
<!-- CLAS&#45;CL_XCO_MESSAGE_TYPE&#45;&gt;CLAS&#45;CL_XCO_ENUM_CONSTANT -->
<g id="edge57" class="edge">
<title>CLAS&#45;CL_XCO_MESSAGE_TYPE&#45;&gt;CLAS&#45;CL_XCO_ENUM_CONSTANT</title>
<path fill="none" stroke="black" d="M390.78,-287.88C378.08,-278.89 362.34,-267.76 348.58,-258.03"/>
<polygon fill="black" stroke="black" points="350.5,-255.11 340.31,-252.19 346.46,-260.82 350.5,-255.11"/>
</g>
<!-- INTF&#45;IF_XCO_PRINTABLE -->
<g id="node32" class="node">
<title>INTF&#45;IF_XCO_PRINTABLE</title>
<g id="a_node32"><a xlink:href="./INTF_IF_XCO_PRINTABLE.html" xlink:title="INTF&#45;IF_XCO_PRINTABLE">
<polygon fill="none" stroke="green" points="394.24,-180 209.76,-180 209.76,-144 394.24,-144 394.24,-180"/>
<text text-anchor="middle" x="302" y="-157.8" font-family="Times,serif" font-size="14.00">INTF&#45;IF_XCO_PRINTABLE</text>
</a>
</g>
</g>
<!-- CLAS&#45;CL_XCO_ENUM_CONSTANT&#45;&gt;INTF&#45;IF_XCO_PRINTABLE -->
<g id="edge59" class="edge">
<title>CLAS&#45;CL_XCO_ENUM_CONSTANT&#45;&gt;INTF&#45;IF_XCO_PRINTABLE</title>
<path fill="none" stroke="black" d="M312.54,-215.7C311,-207.98 309.14,-198.71 307.42,-190.11"/>
<polygon fill="black" stroke="black" points="310.81,-189.22 305.42,-180.1 303.95,-190.6 310.81,-189.22"/>
</g>
<!-- INTF&#45;IF_XCO_PRINTABLE&#45;&gt;INTF&#45;IF_XCO_TEXT -->
<g id="edge60" class="edge">
<title>INTF&#45;IF_XCO_PRINTABLE&#45;&gt;INTF&#45;IF_XCO_TEXT</title>
<path fill="none" stroke="black" d="M284.2,-143.7C275.4,-135.14 264.62,-124.66 255,-115.3"/>
<polygon fill="black" stroke="black" points="257.2,-112.57 247.59,-108.1 252.32,-117.58 257.2,-112.57"/>
</g>
<!-- TABL&#45;SYMSG&#45;&gt;DTEL&#45;SYMSGNO -->
<g id="edge63" class="edge">
<title>TABL&#45;SYMSG&#45;&gt;DTEL&#45;SYMSGNO</title>
<path fill="none" stroke="black" d="M977.27,-287.85C1013.13,-250.05 1099.07,-159.45 1140.66,-115.6"/>
<polygon fill="black" stroke="black" points="1143.31,-117.9 1147.65,-108.23 1138.23,-113.08 1143.31,-117.9"/>
</g>
<!-- TABL&#45;SYMSG&#45;&gt;DTEL&#45;SYMSGID -->
<g id="edge62" class="edge">
<title>TABL&#45;SYMSG&#45;&gt;DTEL&#45;SYMSGID</title>
<path fill="none" stroke="black" d="M965.04,-287.53C971.96,-257.9 986.72,-195.93 1001,-144 1003.36,-135.43 1006.1,-126.15 1008.64,-117.77"/>
<polygon fill="black" stroke="black" points="1012.01,-118.71 1011.6,-108.12 1005.32,-116.66 1012.01,-118.71"/>
</g>
<!-- TABL&#45;SYMSG&#45;&gt;DTEL&#45;SYMSGTY -->
<g id="edge61" class="edge">
<title>TABL&#45;SYMSG&#45;&gt;DTEL&#45;SYMSGTY</title>
<path fill="none" stroke="black" d="M910.87,-287.97C881.96,-278.14 845.43,-265.73 815,-255.39"/>
<polygon fill="black" stroke="black" points="815.95,-252.01 805.35,-252.11 813.7,-258.64 815.95,-252.01"/>
</g>
<!-- TABL&#45;SYMSG&#45;&gt;DTEL&#45;SYMSGV -->
<g id="edge64" class="edge">
<title>TABL&#45;SYMSG&#45;&gt;DTEL&#45;SYMSGV</title>
<path fill="none" stroke="black" d="M943.94,-287.7C935.5,-279.14 925.18,-268.66 915.96,-259.3"/>
<polygon fill="black" stroke="black" points="918.37,-256.77 908.86,-252.1 913.39,-261.68 918.37,-256.77"/>
</g>
<!-- INTF&#45;IF_XCO_STRING_COMPOSITION&#45;&gt;INTF&#45;IF_XCO_STRING -->
<g id="edge66" class="edge">
<title>INTF&#45;IF_XCO_STRING_COMPOSITION&#45;&gt;INTF&#45;IF_XCO_STRING</title>
<path fill="none" stroke="black" d="M527.05,-540.03C555.05,-561.5 599.78,-601.3 618,-648 623.81,-662.91 624.86,-669.55 618,-684 612.43,-695.73 602.86,-705.72 592.74,-713.75"/>
<polygon fill="black" stroke="black" points="590.55,-711.02 584.58,-719.78 594.7,-716.65 590.55,-711.02"/>
</g>
<!-- INTF&#45;IF_XCO_STRING_COMPOSITION&#45;&gt;INTF&#45;IF_XCO_STRINGS -->
<g id="edge65" class="edge">
<title>INTF&#45;IF_XCO_STRING_COMPOSITION&#45;&gt;INTF&#45;IF_XCO_STRINGS</title>
<path fill="none" stroke="black" d="M457.32,-540.11C428.58,-549.99 391.05,-562.47 358.99,-572.83"/>
<polygon fill="black" stroke="black" points="357.68,-569.57 349.23,-575.97 359.83,-576.23 357.68,-569.57"/>
</g>
<!-- DOMA&#45;INT4 -->
<g id="node37" class="node">
<title>DOMA&#45;INT4</title>
<g id="a_node37"><a xlink:href="./DOMA_INT4.html" xlink:title="DOMA&#45;INT4">
<polygon fill="none" stroke="yellow" points="121.75,-468 28.25,-468 28.25,-432 121.75,-432 121.75,-468"/>
<text text-anchor="middle" x="75" y="-445.8" font-family="Times,serif" font-size="14.00">DOMA&#45;INT4</text>
</a>
</g>
</g>
<!-- DTEL&#45;INT4&#45;&gt;DOMA&#45;INT4 -->
<g id="edge67" class="edge">
<title>DTEL&#45;INT4&#45;&gt;DOMA&#45;INT4</title>
<path fill="none" stroke="black" d="M76.51,-503.7C76.29,-495.98 76.02,-486.71 75.77,-478.11"/>
<polygon fill="black" stroke="black" points="79.27,-478 75.49,-468.1 72.28,-478.2 79.27,-478"/>
</g>
<!-- INTF&#45;IF_XCO_XSTRING&#45;&gt;INTF&#45;IF_XCO_STRING -->
<g id="edge69" class="edge">
<title>INTF&#45;IF_XCO_XSTRING&#45;&gt;INTF&#45;IF_XCO_STRING</title>
<path fill="none" stroke="black" d="M1130.74,-684.04C958.83,-707.7 756.27,-723.75 642.37,-731.55"/>
<polygon fill="black" stroke="black" points="642.04,-728.06 632.3,-732.23 642.51,-735.05 642.04,-728.06"/>
</g>
<!-- INTF&#45;IF_XCO_XSTRING_STRING_CNVRSN -->
<g id="node39" class="node">
<title>INTF&#45;IF_XCO_XSTRING_STRING_CNVRSN</title>
<g id="a_node39"><a xlink:href="./INTF_IF_XCO_XSTRING_STRING_CNVRSN.html" xlink:title="INTF&#45;IF_XCO_XSTRING_STRING_CNVRSN">
<polygon fill="none" stroke="green" points="1359.73,-612 1070.27,-612 1070.27,-576 1359.73,-576 1359.73,-612"/>
<text text-anchor="middle" x="1215" y="-589.8" font-family="Times,serif" font-size="14.00">INTF&#45;IF_XCO_XSTRING_STRING_CNVRSN</text>
</a>
</g>
</g>
<!-- INTF&#45;IF_XCO_XSTRING&#45;&gt;INTF&#45;IF_XCO_XSTRING_STRING_CNVRSN -->
<g id="edge68" class="edge">
<title>INTF&#45;IF_XCO_XSTRING&#45;&gt;INTF&#45;IF_XCO_XSTRING_STRING_CNVRSN</title>
<path fill="none" stroke="black" d="M1215,-647.7C1215,-639.98 1215,-630.71 1215,-622.11"/>
<polygon fill="black" stroke="black" points="1218.5,-622.1 1215,-612.1 1211.5,-622.1 1218.5,-622.1"/>
</g>
<!-- INTF&#45;IF_XCO_STRING_DECOMPOSITION&#45;&gt;INTF&#45;IF_XCO_STRING -->
<g id="edge70" class="edge">
<title>INTF&#45;IF_XCO_STRING_DECOMPOSITION&#45;&gt;INTF&#45;IF_XCO_STRING</title>
<path fill="none" stroke="black" d="M495.42,-684.1C506.77,-692.8 519.82,-703.52 530.68,-713.03"/>
<polygon fill="black" stroke="black" points="528.36,-715.65 538.15,-719.7 533.02,-710.43 528.36,-715.65"/>
</g>
<!-- INTF&#45;IF_XCO_STRING_DECOMPOSITION&#45;&gt;INTF&#45;IF_XCO_STRINGS -->
<g id="edge71" class="edge">
<title>INTF&#45;IF_XCO_STRING_DECOMPOSITION&#45;&gt;INTF&#45;IF_XCO_STRINGS</title>
<path fill="none" stroke="black" d="M425.7,-647.88C401.29,-638.22 370.6,-626.09 344.79,-615.88"/>
<polygon fill="black" stroke="black" points="345.74,-612.49 335.16,-612.07 343.17,-619 345.74,-612.49"/>
</g>
</g>
</svg>
