<?xml version="1.0" encoding="UTF-8" standalone="no"?>
<!DOCTYPE svg PUBLIC "-//W3C//DTD SVG 1.1//EN"
 "http://www.w3.org/Graphics/SVG/1.1/DTD/svg11.dtd">
<!-- Generated by graphviz version 2.47.3 (20210619.1520)
 -->
<!-- Title: G Pages: 1 -->
<svg width="2839pt" height="260pt"
 viewBox="0.00 0.00 2838.53 260.00" xmlns="http://www.w3.org/2000/svg" xmlns:xlink="http://www.w3.org/1999/xlink">
<g id="graph0" class="graph" transform="scale(1 1) rotate(0) translate(4 256)">
<title>G</title>
<polygon fill="white" stroke="transparent" points="-4,4 -4,-256 2834.53,-256 2834.53,4 -4,4"/>
<!-- CLAS&#45;CL_EXCHANGE_RATES -->
<g id="node1" class="node">
<title>CLAS&#45;CL_EXCHANGE_RATES</title>
<polygon fill="none" stroke="green" points="1390.79,-252 1181.52,-252 1181.52,-216 1390.79,-216 1390.79,-252"/>
<text text-anchor="middle" x="1286.15" y="-229.8" font-family="Times,serif" font-size="14.00">CLAS&#45;CL_EXCHANGE_RATES</text>
</g>
<!-- TABL&#45;BAPI1093_0 -->
<g id="node2" class="node">
<title>TABL&#45;BAPI1093_0</title>
<g id="a_node2"><a xlink:href="./TABL_BAPI1093_0.html" xlink:title="TABL&#45;BAPI1093_0">
<polygon fill="none" stroke="yellow" points="726.75,-180 595.56,-180 595.56,-144 726.75,-144 726.75,-180"/>
<text text-anchor="middle" x="661.15" y="-157.8" font-family="Times,serif" font-size="14.00">TABL&#45;BAPI1093_0</text>
</a>
</g>
</g>
<!-- CLAS&#45;CL_EXCHANGE_RATES&#45;&gt;TABL&#45;BAPI1093_0 -->
<g id="edge2" class="edge">
<title>CLAS&#45;CL_EXCHANGE_RATES&#45;&gt;TABL&#45;BAPI1093_0</title>
<path fill="none" stroke="black" d="M1181.19,-221.24C1055.59,-207.18 848.37,-183.97 737.21,-171.52"/>
<polygon fill="black" stroke="black" points="737.42,-168.02 727.09,-170.38 736.64,-174.98 737.42,-168.02"/>
</g>
<!-- TABL&#45;BAPIRET2 -->
<g id="node16" class="node">
<title>TABL&#45;BAPIRET2</title>
<g id="a_node16"><a xlink:href="./TABL_BAPIRET2.html" xlink:title="TABL&#45;BAPIRET2">
<polygon fill="none" stroke="green" points="2040.19,-180 1918.12,-180 1918.12,-144 2040.19,-144 2040.19,-180"/>
<text text-anchor="middle" x="1979.15" y="-157.8" font-family="Times,serif" font-size="14.00">TABL&#45;BAPIRET2</text>
</a>
</g>
</g>
<!-- CLAS&#45;CL_EXCHANGE_RATES&#45;&gt;TABL&#45;BAPIRET2 -->
<g id="edge1" class="edge">
<title>CLAS&#45;CL_EXCHANGE_RATES&#45;&gt;TABL&#45;BAPIRET2</title>
<path fill="none" stroke="black" d="M1391.03,-222.41C1533.64,-208 1785,-182.61 1907.71,-170.22"/>
<polygon fill="black" stroke="black" points="1908.15,-173.69 1917.75,-169.2 1907.45,-166.73 1908.15,-173.69"/>
</g>
<!-- DTEL&#45;UKURSM -->
<g id="node3" class="node">
<title>DTEL&#45;UKURSM</title>
<g id="a_node3"><a xlink:href="./DTEL_UKURSM.html" xlink:title="DTEL&#45;UKURSM">
<polygon fill="none" stroke="yellow" points="116.46,-108 -0.15,-108 -0.15,-72 116.46,-72 116.46,-108"/>
<text text-anchor="middle" x="58.15" y="-85.8" font-family="Times,serif" font-size="14.00">DTEL&#45;UKURSM</text>
</a>
</g>
</g>
<!-- TABL&#45;BAPI1093_0&#45;&gt;DTEL&#45;UKURSM -->
<g id="edge10" class="edge">
<title>TABL&#45;BAPI1093_0&#45;&gt;DTEL&#45;UKURSM</title>
<path fill="none" stroke="black" d="M595.54,-157.69C495.96,-151.96 300.66,-138 126.37,-108.07"/>
<polygon fill="black" stroke="black" points="126.96,-104.62 116.51,-106.35 125.76,-111.52 126.96,-104.62"/>
</g>
<!-- DTEL&#45;TFACT_CURR -->
<g id="node5" class="node">
<title>DTEL&#45;TFACT_CURR</title>
<g id="a_node5"><a xlink:href="./DTEL_TFACT_CURR.html" xlink:title="DTEL&#45;TFACT_CURR">
<polygon fill="none" stroke="green" points="410.03,-108 264.28,-108 264.28,-72 410.03,-72 410.03,-108"/>
<text text-anchor="middle" x="337.15" y="-85.8" font-family="Times,serif" font-size="14.00">DTEL&#45;TFACT_CURR</text>
</a>
</g>
</g>
<!-- TABL&#45;BAPI1093_0&#45;&gt;DTEL&#45;TFACT_CURR -->
<g id="edge9" class="edge">
<title>TABL&#45;BAPI1093_0&#45;&gt;DTEL&#45;TFACT_CURR</title>
<path fill="none" stroke="black" d="M595.59,-146.83C545.02,-135.91 474.74,-120.73 420.23,-108.95"/>
<polygon fill="black" stroke="black" points="420.76,-105.48 410.25,-106.79 419.28,-112.32 420.76,-105.48"/>
</g>
<!-- DTEL&#45;FFACT_CURR -->
<g id="node7" class="node">
<title>DTEL&#45;FFACT_CURR</title>
<g id="a_node7"><a xlink:href="./DTEL_FFACT_CURR.html" xlink:title="DTEL&#45;FFACT_CURR">
<polygon fill="none" stroke="green" points="572.76,-108 427.55,-108 427.55,-72 572.76,-72 572.76,-108"/>
<text text-anchor="middle" x="500.15" y="-85.8" font-family="Times,serif" font-size="14.00">DTEL&#45;FFACT_CURR</text>
</a>
</g>
</g>
<!-- TABL&#45;BAPI1093_0&#45;&gt;DTEL&#45;FFACT_CURR -->
<g id="edge8" class="edge">
<title>TABL&#45;BAPI1093_0&#45;&gt;DTEL&#45;FFACT_CURR</title>
<path fill="none" stroke="black" d="M621.77,-143.88C599.76,-134.31 572.14,-122.3 548.79,-112.15"/>
<polygon fill="black" stroke="black" points="549.98,-108.85 539.41,-108.07 547.19,-115.27 549.98,-108.85"/>
</g>
<!-- DTEL&#45;UKURSP -->
<g id="node8" class="node">
<title>DTEL&#45;UKURSP</title>
<g id="a_node8"><a xlink:href="./DTEL_UKURSP.html" xlink:title="DTEL&#45;UKURSP">
<polygon fill="none" stroke="yellow" points="245.8,-108 134.51,-108 134.51,-72 245.8,-72 245.8,-108"/>
<text text-anchor="middle" x="190.15" y="-85.8" font-family="Times,serif" font-size="14.00">DTEL&#45;UKURSP</text>
</a>
</g>
</g>
<!-- TABL&#45;BAPI1093_0&#45;&gt;DTEL&#45;UKURSP -->
<g id="edge7" class="edge">
<title>TABL&#45;BAPI1093_0&#45;&gt;DTEL&#45;UKURSP</title>
<path fill="none" stroke="black" d="M595.35,-154.98C516.83,-147.23 381.48,-132.05 256.22,-108.07"/>
<polygon fill="black" stroke="black" points="256.55,-104.57 246.07,-106.1 255.22,-111.44 256.55,-104.57"/>
</g>
<!-- DTEL&#45;GDATU_CUR -->
<g id="node9" class="node">
<title>DTEL&#45;GDATU_CUR</title>
<g id="a_node9"><a xlink:href="./DTEL_GDATU_CUR.html" xlink:title="DTEL&#45;GDATU_CUR">
<polygon fill="none" stroke="yellow" points="731.84,-108 590.47,-108 590.47,-72 731.84,-72 731.84,-108"/>
<text text-anchor="middle" x="661.15" y="-85.8" font-family="Times,serif" font-size="14.00">DTEL&#45;GDATU_CUR</text>
</a>
</g>
</g>
<!-- TABL&#45;BAPI1093_0&#45;&gt;DTEL&#45;GDATU_CUR -->
<g id="edge6" class="edge">
<title>TABL&#45;BAPI1093_0&#45;&gt;DTEL&#45;GDATU_CUR</title>
<path fill="none" stroke="black" d="M661.15,-143.7C661.15,-135.98 661.15,-126.71 661.15,-118.11"/>
<polygon fill="black" stroke="black" points="664.65,-118.1 661.15,-108.1 657.65,-118.1 664.65,-118.1"/>
</g>
<!-- DTEL&#45;TCURR_CURR -->
<g id="node11" class="node">
<title>DTEL&#45;TCURR_CURR</title>
<g id="a_node11"><a xlink:href="./DTEL_TCURR_CURR.html" xlink:title="DTEL&#45;TCURR_CURR">
<polygon fill="none" stroke="green" points="898.36,-108 749.94,-108 749.94,-72 898.36,-72 898.36,-108"/>
<text text-anchor="middle" x="824.15" y="-85.8" font-family="Times,serif" font-size="14.00">DTEL&#45;TCURR_CURR</text>
</a>
</g>
</g>
<!-- TABL&#45;BAPI1093_0&#45;&gt;DTEL&#45;TCURR_CURR -->
<g id="edge5" class="edge">
<title>TABL&#45;BAPI1093_0&#45;&gt;DTEL&#45;TCURR_CURR</title>
<path fill="none" stroke="black" d="M701.03,-143.88C723.31,-134.31 751.27,-122.3 774.91,-112.15"/>
<polygon fill="black" stroke="black" points="776.6,-115.23 784.41,-108.07 773.84,-108.8 776.6,-115.23"/>
</g>
<!-- DTEL&#45;FCURR_CURR -->
<g id="node13" class="node">
<title>DTEL&#45;FCURR_CURR</title>
<g id="a_node13"><a xlink:href="./DTEL_FCURR_CURR.html" xlink:title="DTEL&#45;FCURR_CURR">
<polygon fill="none" stroke="green" points="1064.1,-108 916.21,-108 916.21,-72 1064.1,-72 1064.1,-108"/>
<text text-anchor="middle" x="990.15" y="-85.8" font-family="Times,serif" font-size="14.00">DTEL&#45;FCURR_CURR</text>
</a>
</g>
</g>
<!-- TABL&#45;BAPI1093_0&#45;&gt;DTEL&#45;FCURR_CURR -->
<g id="edge4" class="edge">
<title>TABL&#45;BAPI1093_0&#45;&gt;DTEL&#45;FCURR_CURR</title>
<path fill="none" stroke="black" d="M726.94,-147C778.51,-136.03 850.61,-120.69 906.31,-108.84"/>
<polygon fill="black" stroke="black" points="907.11,-112.25 916.16,-106.74 905.65,-105.4 907.11,-112.25"/>
</g>
<!-- DTEL&#45;KURST_CURR -->
<g id="node14" class="node">
<title>DTEL&#45;KURST_CURR</title>
<g id="a_node14"><a xlink:href="./DTEL_KURST_CURR.html" xlink:title="DTEL&#45;KURST_CURR">
<polygon fill="none" stroke="green" points="1229.08,-108 1081.23,-108 1081.23,-72 1229.08,-72 1229.08,-108"/>
<text text-anchor="middle" x="1155.15" y="-85.8" font-family="Times,serif" font-size="14.00">DTEL&#45;KURST_CURR</text>
</a>
</g>
</g>
<!-- TABL&#45;BAPI1093_0&#45;&gt;DTEL&#45;KURST_CURR -->
<g id="edge3" class="edge">
<title>TABL&#45;BAPI1093_0&#45;&gt;DTEL&#45;KURST_CURR</title>
<path fill="none" stroke="black" d="M727.03,-154.1C806.49,-145.42 944.31,-129.25 1071.12,-108.29"/>
<polygon fill="black" stroke="black" points="1071.72,-111.73 1081.01,-106.64 1070.57,-104.83 1071.72,-111.73"/>
</g>
<!-- DOMA&#45;PKURS -->
<g id="node4" class="node">
<title>DOMA&#45;PKURS</title>
<g id="a_node4"><a xlink:href="./DOMA_PKURS.html" xlink:title="DOMA&#45;PKURS">
<polygon fill="none" stroke="yellow" points="178.2,-36 70.11,-36 70.11,0 178.2,0 178.2,-36"/>
<text text-anchor="middle" x="124.15" y="-13.8" font-family="Times,serif" font-size="14.00">DOMA&#45;PKURS</text>
</a>
</g>
</g>
<!-- DTEL&#45;UKURSM&#45;&gt;DOMA&#45;PKURS -->
<g id="edge11" class="edge">
<title>DTEL&#45;UKURSM&#45;&gt;DOMA&#45;PKURS</title>
<path fill="none" stroke="black" d="M74.47,-71.7C82.46,-63.22 92.23,-52.86 100.98,-43.58"/>
<polygon fill="black" stroke="black" points="103.71,-45.78 108.03,-36.1 98.62,-40.98 103.71,-45.78"/>
</g>
<!-- DOMA&#45;DEC9 -->
<g id="node6" class="node">
<title>DOMA&#45;DEC9</title>
<g id="a_node6"><a xlink:href="./DOMA_DEC9.html" xlink:title="DOMA&#45;DEC9">
<polygon fill="none" stroke="yellow" points="467.58,-36 368.73,-36 368.73,0 467.58,0 467.58,-36"/>
<text text-anchor="middle" x="418.15" y="-13.8" font-family="Times,serif" font-size="14.00">DOMA&#45;DEC9</text>
</a>
</g>
</g>
<!-- DTEL&#45;TFACT_CURR&#45;&gt;DOMA&#45;DEC9 -->
<g id="edge12" class="edge">
<title>DTEL&#45;TFACT_CURR&#45;&gt;DOMA&#45;DEC9</title>
<path fill="none" stroke="black" d="M357.18,-71.7C367.28,-62.97 379.69,-52.24 390.67,-42.75"/>
<polygon fill="black" stroke="black" points="393.08,-45.29 398.36,-36.1 388.51,-39.99 393.08,-45.29"/>
</g>
<!-- DTEL&#45;FFACT_CURR&#45;&gt;DOMA&#45;DEC9 -->
<g id="edge13" class="edge">
<title>DTEL&#45;FFACT_CURR&#45;&gt;DOMA&#45;DEC9</title>
<path fill="none" stroke="black" d="M479.88,-71.7C469.66,-62.97 457.09,-52.24 445.98,-42.75"/>
<polygon fill="black" stroke="black" points="448.07,-39.94 438.19,-36.1 443.52,-45.26 448.07,-39.94"/>
</g>
<!-- DTEL&#45;UKURSP&#45;&gt;DOMA&#45;PKURS -->
<g id="edge14" class="edge">
<title>DTEL&#45;UKURSP&#45;&gt;DOMA&#45;PKURS</title>
<path fill="none" stroke="black" d="M173.84,-71.7C165.85,-63.22 156.08,-52.86 147.33,-43.58"/>
<polygon fill="black" stroke="black" points="149.69,-40.98 140.28,-36.1 144.59,-45.78 149.69,-40.98"/>
</g>
<!-- DOMA&#45;DATUM -->
<g id="node10" class="node">
<title>DOMA&#45;DATUM</title>
<g id="a_node10"><a xlink:href="./DOMA_DATUM.html" xlink:title="DOMA&#45;DATUM">
<polygon fill="none" stroke="yellow" points="718.4,-36 603.91,-36 603.91,0 718.4,0 718.4,-36"/>
<text text-anchor="middle" x="661.15" y="-13.8" font-family="Times,serif" font-size="14.00">DOMA&#45;DATUM</text>
</a>
</g>
</g>
<!-- DTEL&#45;GDATU_CUR&#45;&gt;DOMA&#45;DATUM -->
<g id="edge15" class="edge">
<title>DTEL&#45;GDATU_CUR&#45;&gt;DOMA&#45;DATUM</title>
<path fill="none" stroke="black" d="M661.15,-71.7C661.15,-63.98 661.15,-54.71 661.15,-46.11"/>
<polygon fill="black" stroke="black" points="664.65,-46.1 661.15,-36.1 657.65,-46.1 664.65,-46.1"/>
</g>
<!-- DOMA&#45;WAERS -->
<g id="node12" class="node">
<title>DOMA&#45;WAERS</title>
<g id="a_node12"><a xlink:href="./DOMA_WAERS.html" xlink:title="DOMA&#45;WAERS">
<polygon fill="none" stroke="green" points="963.57,-36 850.74,-36 850.74,0 963.57,0 963.57,-36"/>
<text text-anchor="middle" x="907.15" y="-13.8" font-family="Times,serif" font-size="14.00">DOMA&#45;WAERS</text>
</a>
</g>
</g>
<!-- DTEL&#45;TCURR_CURR&#45;&gt;DOMA&#45;WAERS -->
<g id="edge16" class="edge">
<title>DTEL&#45;TCURR_CURR&#45;&gt;DOMA&#45;WAERS</title>
<path fill="none" stroke="black" d="M844.67,-71.7C855.02,-62.97 867.74,-52.24 878.99,-42.75"/>
<polygon fill="black" stroke="black" points="881.49,-45.23 886.87,-36.1 876.97,-39.88 881.49,-45.23"/>
</g>
<!-- DTEL&#45;FCURR_CURR&#45;&gt;DOMA&#45;WAERS -->
<g id="edge17" class="edge">
<title>DTEL&#45;FCURR_CURR&#45;&gt;DOMA&#45;WAERS</title>
<path fill="none" stroke="black" d="M969.64,-71.7C959.28,-62.97 946.57,-52.24 935.32,-42.75"/>
<polygon fill="black" stroke="black" points="937.34,-39.88 927.44,-36.1 932.82,-45.23 937.34,-39.88"/>
</g>
<!-- DOMA&#45;KURST -->
<g id="node15" class="node">
<title>DOMA&#45;KURST</title>
<g id="a_node15"><a xlink:href="./DOMA_KURST.html" xlink:title="DOMA&#45;KURST">
<polygon fill="none" stroke="yellow" points="1209.96,-36 1100.34,-36 1100.34,0 1209.96,0 1209.96,-36"/>
<text text-anchor="middle" x="1155.15" y="-13.8" font-family="Times,serif" font-size="14.00">DOMA&#45;KURST</text>
</a>
</g>
</g>
<!-- DTEL&#45;KURST_CURR&#45;&gt;DOMA&#45;KURST -->
<g id="edge18" class="edge">
<title>DTEL&#45;KURST_CURR&#45;&gt;DOMA&#45;KURST</title>
<path fill="none" stroke="black" d="M1155.15,-71.7C1155.15,-63.98 1155.15,-54.71 1155.15,-46.11"/>
<polygon fill="black" stroke="black" points="1158.65,-46.1 1155.15,-36.1 1151.65,-46.1 1158.65,-46.1"/>
</g>
<!-- DTEL&#45;BAPILOGSYS -->
<g id="node17" class="node">
<title>DTEL&#45;BAPILOGSYS</title>
<g id="a_node17"><a xlink:href="./DTEL_BAPILOGSYS.html" xlink:title="DTEL&#45;BAPILOGSYS">
<polygon fill="none" stroke="green" points="1389.4,-108 1246.91,-108 1246.91,-72 1389.4,-72 1389.4,-108"/>
<text text-anchor="middle" x="1318.15" y="-85.8" font-family="Times,serif" font-size="14.00">DTEL&#45;BAPILOGSYS</text>
</a>
</g>
</g>
<!-- TABL&#45;BAPIRET2&#45;&gt;DTEL&#45;BAPILOGSYS -->
<g id="edge29" class="edge">
<title>TABL&#45;BAPIRET2&#45;&gt;DTEL&#45;BAPILOGSYS</title>
<path fill="none" stroke="black" d="M1917.8,-157.8C1813.33,-151.82 1594.09,-137.01 1399.72,-108.14"/>
<polygon fill="black" stroke="black" points="1400.02,-104.65 1389.61,-106.62 1398.98,-111.57 1400.02,-104.65"/>
</g>
<!-- DTEL&#45;BAPI_FLD -->
<g id="node19" class="node">
<title>DTEL&#45;BAPI_FLD</title>
<g id="a_node19"><a xlink:href="./DTEL_BAPI_FLD.html" xlink:title="DTEL&#45;BAPI_FLD">
<polygon fill="none" stroke="green" points="1528.91,-108 1407.4,-108 1407.4,-72 1528.91,-72 1528.91,-108"/>
<text text-anchor="middle" x="1468.15" y="-85.8" font-family="Times,serif" font-size="14.00">DTEL&#45;BAPI_FLD</text>
</a>
</g>
</g>
<!-- TABL&#45;BAPIRET2&#45;&gt;DTEL&#45;BAPI_FLD -->
<g id="edge28" class="edge">
<title>TABL&#45;BAPIRET2&#45;&gt;DTEL&#45;BAPI_FLD</title>
<path fill="none" stroke="black" d="M1918.03,-156.05C1834.42,-148.75 1679.58,-133.36 1539.11,-108.25"/>
<polygon fill="black" stroke="black" points="1539.48,-104.76 1529.02,-106.42 1538.24,-111.65 1539.48,-104.76"/>
</g>
<!-- DTEL&#45;BAPI_LINE -->
<g id="node21" class="node">
<title>DTEL&#45;BAPI_LINE</title>
<g id="a_node21"><a xlink:href="./DTEL_BAPI_LINE.html" xlink:title="DTEL&#45;BAPI_LINE">
<polygon fill="none" stroke="green" points="1673.84,-108 1546.47,-108 1546.47,-72 1673.84,-72 1673.84,-108"/>
<text text-anchor="middle" x="1610.15" y="-85.8" font-family="Times,serif" font-size="14.00">DTEL&#45;BAPI_LINE</text>
</a>
</g>
</g>
<!-- TABL&#45;BAPIRET2&#45;&gt;DTEL&#45;BAPI_LINE -->
<g id="edge27" class="edge">
<title>TABL&#45;BAPIRET2&#45;&gt;DTEL&#45;BAPI_LINE</title>
<path fill="none" stroke="black" d="M1918.1,-151.12C1860.16,-141.51 1770.41,-126.04 1684.07,-108.35"/>
<polygon fill="black" stroke="black" points="1684.6,-104.88 1674.1,-106.29 1683.19,-111.74 1684.6,-104.88"/>
</g>
<!-- DTEL&#45;BAPI_PARAM -->
<g id="node23" class="node">
<title>DTEL&#45;BAPI_PARAM</title>
<g id="a_node23"><a xlink:href="./DTEL_BAPI_PARAM.html" xlink:title="DTEL&#45;BAPI_PARAM">
<polygon fill="none" stroke="green" points="1836.74,-108 1691.57,-108 1691.57,-72 1836.74,-72 1836.74,-108"/>
<text text-anchor="middle" x="1764.15" y="-85.8" font-family="Times,serif" font-size="14.00">DTEL&#45;BAPI_PARAM</text>
</a>
</g>
</g>
<!-- TABL&#45;BAPIRET2&#45;&gt;DTEL&#45;BAPI_PARAM -->
<g id="edge26" class="edge">
<title>TABL&#45;BAPIRET2&#45;&gt;DTEL&#45;BAPI_PARAM</title>
<path fill="none" stroke="black" d="M1926.83,-143.97C1896.53,-134.1 1858.21,-121.62 1826.37,-111.25"/>
<polygon fill="black" stroke="black" points="1827.3,-107.88 1816.71,-108.11 1825.13,-114.53 1827.3,-107.88"/>
</g>
<!-- DTEL&#45;SYMSGV -->
<g id="node25" class="node">
<title>DTEL&#45;SYMSGV</title>
<g id="a_node25"><a xlink:href="./DTEL_SYMSGV.html" xlink:title="DTEL&#45;SYMSGV">
<polygon fill="none" stroke="green" points="1969.41,-108 1854.9,-108 1854.9,-72 1969.41,-72 1969.41,-108"/>
<text text-anchor="middle" x="1912.15" y="-85.8" font-family="Times,serif" font-size="14.00">DTEL&#45;SYMSGV</text>
</a>
</g>
</g>
<!-- TABL&#45;BAPIRET2&#45;&gt;DTEL&#45;SYMSGV -->
<g id="edge25" class="edge">
<title>TABL&#45;BAPIRET2&#45;&gt;DTEL&#45;SYMSGV</title>
<path fill="none" stroke="black" d="M1962.59,-143.7C1954.48,-135.22 1944.57,-124.86 1935.68,-115.58"/>
<polygon fill="black" stroke="black" points="1937.97,-112.91 1928.53,-108.1 1932.91,-117.75 1937.97,-112.91"/>
</g>
<!-- DTEL&#45;BALMNR -->
<g id="node27" class="node">
<title>DTEL&#45;BALMNR</title>
<g id="a_node27"><a xlink:href="./DTEL_BALMNR.html" xlink:title="DTEL&#45;BALMNR">
<polygon fill="none" stroke="green" points="2104.46,-108 1987.85,-108 1987.85,-72 2104.46,-72 2104.46,-108"/>
<text text-anchor="middle" x="2046.15" y="-85.8" font-family="Times,serif" font-size="14.00">DTEL&#45;BALMNR</text>
</a>
</g>
</g>
<!-- TABL&#45;BAPIRET2&#45;&gt;DTEL&#45;BALMNR -->
<g id="edge24" class="edge">
<title>TABL&#45;BAPIRET2&#45;&gt;DTEL&#45;BALMNR</title>
<path fill="none" stroke="black" d="M1995.72,-143.7C2003.83,-135.22 2013.74,-124.86 2022.63,-115.58"/>
<polygon fill="black" stroke="black" points="2025.4,-117.75 2029.78,-108.1 2020.34,-112.91 2025.4,-117.75"/>
</g>
<!-- DTEL&#45;BALOGNR -->
<g id="node29" class="node">
<title>DTEL&#45;BALOGNR</title>
<g id="a_node29"><a xlink:href="./DTEL_BALOGNR.html" xlink:title="DTEL&#45;BALOGNR">
<polygon fill="none" stroke="green" points="2246.23,-108 2122.08,-108 2122.08,-72 2246.23,-72 2246.23,-108"/>
<text text-anchor="middle" x="2184.15" y="-85.8" font-family="Times,serif" font-size="14.00">DTEL&#45;BALOGNR</text>
</a>
</g>
</g>
<!-- TABL&#45;BAPIRET2&#45;&gt;DTEL&#45;BALOGNR -->
<g id="edge23" class="edge">
<title>TABL&#45;BAPIRET2&#45;&gt;DTEL&#45;BALOGNR</title>
<path fill="none" stroke="black" d="M2029.04,-143.97C2057.81,-134.14 2094.16,-121.73 2124.44,-111.39"/>
<polygon fill="black" stroke="black" points="2125.71,-114.65 2134.04,-108.11 2123.45,-108.03 2125.71,-114.65"/>
</g>
<!-- DTEL&#45;BAPI_MSG -->
<g id="node31" class="node">
<title>DTEL&#45;BAPI_MSG</title>
<g id="a_node31"><a xlink:href="./DTEL_BAPI_MSG.html" xlink:title="DTEL&#45;BAPI_MSG">
<polygon fill="none" stroke="green" points="2389.8,-108 2264.51,-108 2264.51,-72 2389.8,-72 2389.8,-108"/>
<text text-anchor="middle" x="2327.15" y="-85.8" font-family="Times,serif" font-size="14.00">DTEL&#45;BAPI_MSG</text>
</a>
</g>
</g>
<!-- TABL&#45;BAPIRET2&#45;&gt;DTEL&#45;BAPI_MSG -->
<g id="edge22" class="edge">
<title>TABL&#45;BAPIRET2&#45;&gt;DTEL&#45;BAPI_MSG</title>
<path fill="none" stroke="black" d="M2040.42,-150C2094.15,-140.18 2174.63,-125.05 2254.16,-108.17"/>
<polygon fill="black" stroke="black" points="2255.31,-111.5 2264.36,-105.99 2253.85,-104.65 2255.31,-111.5"/>
</g>
<!-- DTEL&#45;SYMSGNO -->
<g id="node33" class="node">
<title>DTEL&#45;SYMSGNO</title>
<g id="a_node33"><a xlink:href="./DTEL_SYMSGNO.html" xlink:title="DTEL&#45;SYMSGNO">
<polygon fill="none" stroke="green" points="2532.52,-108 2407.79,-108 2407.79,-72 2532.52,-72 2532.52,-108"/>
<text text-anchor="middle" x="2470.15" y="-85.8" font-family="Times,serif" font-size="14.00">DTEL&#45;SYMSGNO</text>
</a>
</g>
</g>
<!-- TABL&#45;BAPIRET2&#45;&gt;DTEL&#45;SYMSGNO -->
<g id="edge21" class="edge">
<title>TABL&#45;BAPIRET2&#45;&gt;DTEL&#45;SYMSGNO</title>
<path fill="none" stroke="black" d="M2040.33,-155.4C2120.39,-147.6 2265.16,-131.88 2397.59,-108.19"/>
<polygon fill="black" stroke="black" points="2398.3,-111.62 2407.51,-106.39 2397.05,-104.73 2398.3,-111.62"/>
</g>
<!-- DTEL&#45;SYMSGID -->
<g id="node35" class="node">
<title>DTEL&#45;SYMSGID</title>
<g id="a_node35"><a xlink:href="./DTEL_SYMSGID.html" xlink:title="DTEL&#45;SYMSGID">
<polygon fill="none" stroke="green" points="2670.07,-108 2550.24,-108 2550.24,-72 2670.07,-72 2670.07,-108"/>
<text text-anchor="middle" x="2610.15" y="-85.8" font-family="Times,serif" font-size="14.00">DTEL&#45;SYMSGID</text>
</a>
</g>
</g>
<!-- TABL&#45;BAPIRET2&#45;&gt;DTEL&#45;SYMSGID -->
<g id="edge20" class="edge">
<title>TABL&#45;BAPIRET2&#45;&gt;DTEL&#45;SYMSGID</title>
<path fill="none" stroke="black" d="M2040.25,-158.2C2142.05,-152.87 2352.88,-139.1 2540.39,-107.97"/>
<polygon fill="black" stroke="black" points="2541.15,-111.4 2550.43,-106.29 2539.99,-104.49 2541.15,-111.4"/>
</g>
<!-- DTEL&#45;BAPI_MTYPE -->
<g id="node37" class="node">
<title>DTEL&#45;BAPI_MTYPE</title>
<g id="a_node37"><a xlink:href="./DTEL_BAPI_MTYPE.html" xlink:title="DTEL&#45;BAPI_MTYPE">
<polygon fill="none" stroke="green" points="2830.4,-108 2687.9,-108 2687.9,-72 2830.4,-72 2830.4,-108"/>
<text text-anchor="middle" x="2759.15" y="-85.8" font-family="Times,serif" font-size="14.00">DTEL&#45;BAPI_MTYPE</text>
</a>
</g>
</g>
<!-- TABL&#45;BAPIRET2&#45;&gt;DTEL&#45;BAPI_MTYPE -->
<g id="edge19" class="edge">
<title>TABL&#45;BAPIRET2&#45;&gt;DTEL&#45;BAPI_MTYPE</title>
<path fill="none" stroke="black" d="M2040.31,-159.12C2160.68,-154.83 2436.82,-142.02 2677.71,-108.1"/>
<polygon fill="black" stroke="black" points="2678.3,-111.55 2687.71,-106.68 2677.32,-104.62 2678.3,-111.55"/>
</g>
<!-- DOMA&#45;LOGSYS -->
<g id="node18" class="node">
<title>DOMA&#45;LOGSYS</title>
<g id="a_node18"><a xlink:href="./DOMA_LOGSYS.html" xlink:title="DOMA&#45;LOGSYS">
<polygon fill="none" stroke="yellow" points="1377.02,-36 1259.29,-36 1259.29,0 1377.02,0 1377.02,-36"/>
<text text-anchor="middle" x="1318.15" y="-13.8" font-family="Times,serif" font-size="14.00">DOMA&#45;LOGSYS</text>
</a>
</g>
</g>
<!-- DTEL&#45;BAPILOGSYS&#45;&gt;DOMA&#45;LOGSYS -->
<g id="edge30" class="edge">
<title>DTEL&#45;BAPILOGSYS&#45;&gt;DOMA&#45;LOGSYS</title>
<path fill="none" stroke="black" d="M1318.15,-71.7C1318.15,-63.98 1318.15,-54.71 1318.15,-46.11"/>
<polygon fill="black" stroke="black" points="1321.65,-46.1 1318.15,-36.1 1314.65,-46.1 1321.65,-46.1"/>
</g>
<!-- DOMA&#45;FDNAME -->
<g id="node20" class="node">
<title>DOMA&#45;FDNAME</title>
<g id="a_node20"><a xlink:href="./DOMA_FDNAME.html" xlink:title="DOMA&#45;FDNAME">
<polygon fill="none" stroke="yellow" points="1529.18,-36 1407.13,-36 1407.13,0 1529.18,0 1529.18,-36"/>
<text text-anchor="middle" x="1468.15" y="-13.8" font-family="Times,serif" font-size="14.00">DOMA&#45;FDNAME</text>
</a>
</g>
</g>
<!-- DTEL&#45;BAPI_FLD&#45;&gt;DOMA&#45;FDNAME -->
<g id="edge31" class="edge">
<title>DTEL&#45;BAPI_FLD&#45;&gt;DOMA&#45;FDNAME</title>
<path fill="none" stroke="black" d="M1468.15,-71.7C1468.15,-63.98 1468.15,-54.71 1468.15,-46.11"/>
<polygon fill="black" stroke="black" points="1471.65,-46.1 1468.15,-36.1 1464.65,-46.1 1471.65,-46.1"/>
</g>
<!-- DOMA&#45;INT4 -->
<g id="node22" class="node">
<title>DOMA&#45;INT4</title>
<g id="a_node22"><a xlink:href="./DOMA_INT4.html" xlink:title="DOMA&#45;INT4">
<polygon fill="none" stroke="yellow" points="1652.9,-36 1559.41,-36 1559.41,0 1652.9,0 1652.9,-36"/>
<text text-anchor="middle" x="1606.15" y="-13.8" font-family="Times,serif" font-size="14.00">DOMA&#45;INT4</text>
</a>
</g>
</g>
<!-- DTEL&#45;BAPI_LINE&#45;&gt;DOMA&#45;INT4 -->
<g id="edge32" class="edge">
<title>DTEL&#45;BAPI_LINE&#45;&gt;DOMA&#45;INT4</title>
<path fill="none" stroke="black" d="M1609.17,-71.7C1608.72,-63.98 1608.2,-54.71 1607.7,-46.11"/>
<polygon fill="black" stroke="black" points="1611.2,-45.89 1607.13,-36.1 1604.21,-46.29 1611.2,-45.89"/>
</g>
<!-- DOMA&#45;SWC_ELEM -->
<g id="node24" class="node">
<title>DOMA&#45;SWC_ELEM</title>
<g id="a_node24"><a xlink:href="./DOMA_SWC_ELEM.html" xlink:title="DOMA&#45;SWC_ELEM">
<polygon fill="none" stroke="yellow" points="1809.52,-36 1670.79,-36 1670.79,0 1809.52,0 1809.52,-36"/>
<text text-anchor="middle" x="1740.15" y="-13.8" font-family="Times,serif" font-size="14.00">DOMA&#45;SWC_ELEM</text>
</a>
</g>
</g>
<!-- DTEL&#45;BAPI_PARAM&#45;&gt;DOMA&#45;SWC_ELEM -->
<g id="edge33" class="edge">
<title>DTEL&#45;BAPI_PARAM&#45;&gt;DOMA&#45;SWC_ELEM</title>
<path fill="none" stroke="black" d="M1758.22,-71.7C1755.55,-63.9 1752.33,-54.51 1749.35,-45.83"/>
<polygon fill="black" stroke="black" points="1752.57,-44.43 1746.02,-36.1 1745.95,-46.7 1752.57,-44.43"/>
</g>
<!-- DOMA&#45;SYCHAR50 -->
<g id="node26" class="node">
<title>DOMA&#45;SYCHAR50</title>
<g id="a_node26"><a xlink:href="./DOMA_SYCHAR50.html" xlink:title="DOMA&#45;SYCHAR50">
<polygon fill="none" stroke="yellow" points="1962.36,-36 1827.95,-36 1827.95,0 1962.36,0 1962.36,-36"/>
<text text-anchor="middle" x="1895.15" y="-13.8" font-family="Times,serif" font-size="14.00">DOMA&#45;SYCHAR50</text>
</a>
</g>
</g>
<!-- DTEL&#45;SYMSGV&#45;&gt;DOMA&#45;SYCHAR50 -->
<g id="edge34" class="edge">
<title>DTEL&#45;SYMSGV&#45;&gt;DOMA&#45;SYCHAR50</title>
<path fill="none" stroke="black" d="M1907.95,-71.7C1906.06,-63.9 1903.78,-54.51 1901.67,-45.83"/>
<polygon fill="black" stroke="black" points="1905.07,-45 1899.31,-36.1 1898.27,-46.65 1905.07,-45"/>
</g>
<!-- DOMA&#45;BALMNR -->
<g id="node28" class="node">
<title>DOMA&#45;BALMNR</title>
<g id="a_node28"><a xlink:href="./DOMA_BALMNR.html" xlink:title="DOMA&#45;BALMNR">
<polygon fill="none" stroke="yellow" points="2103.96,-36 1980.35,-36 1980.35,0 2103.96,0 2103.96,-36"/>
<text text-anchor="middle" x="2042.15" y="-13.8" font-family="Times,serif" font-size="14.00">DOMA&#45;BALMNR</text>
</a>
</g>
</g>
<!-- DTEL&#45;BALMNR&#45;&gt;DOMA&#45;BALMNR -->
<g id="edge35" class="edge">
<title>DTEL&#45;BALMNR&#45;&gt;DOMA&#45;BALMNR</title>
<path fill="none" stroke="black" d="M2045.17,-71.7C2044.72,-63.98 2044.2,-54.71 2043.7,-46.11"/>
<polygon fill="black" stroke="black" points="2047.2,-45.89 2043.13,-36.1 2040.21,-46.29 2047.2,-45.89"/>
</g>
<!-- DOMA&#45;BALOGNR -->
<g id="node30" class="node">
<title>DOMA&#45;BALOGNR</title>
<g id="a_node30"><a xlink:href="./DOMA_BALOGNR.html" xlink:title="DOMA&#45;BALOGNR">
<polygon fill="none" stroke="yellow" points="2252.73,-36 2121.58,-36 2121.58,0 2252.73,0 2252.73,-36"/>
<text text-anchor="middle" x="2187.15" y="-13.8" font-family="Times,serif" font-size="14.00">DOMA&#45;BALOGNR</text>
</a>
</g>
</g>
<!-- DTEL&#45;BALOGNR&#45;&gt;DOMA&#45;BALOGNR -->
<g id="edge36" class="edge">
<title>DTEL&#45;BALOGNR&#45;&gt;DOMA&#45;BALOGNR</title>
<path fill="none" stroke="black" d="M2184.9,-71.7C2185.23,-63.98 2185.62,-54.71 2185.99,-46.11"/>
<polygon fill="black" stroke="black" points="2189.49,-46.25 2186.42,-36.1 2182.5,-45.95 2189.49,-46.25"/>
</g>
<!-- DOMA&#45;TEXT220 -->
<g id="node32" class="node">
<title>DOMA&#45;TEXT220</title>
<g id="a_node32"><a xlink:href="./DOMA_TEXT220.html" xlink:title="DOMA&#45;TEXT220">
<polygon fill="none" stroke="yellow" points="2391.34,-36 2270.96,-36 2270.96,0 2391.34,0 2391.34,-36"/>
<text text-anchor="middle" x="2331.15" y="-13.8" font-family="Times,serif" font-size="14.00">DOMA&#45;TEXT220</text>
</a>
</g>
</g>
<!-- DTEL&#45;BAPI_MSG&#45;&gt;DOMA&#45;TEXT220 -->
<g id="edge37" class="edge">
<title>DTEL&#45;BAPI_MSG&#45;&gt;DOMA&#45;TEXT220</title>
<path fill="none" stroke="black" d="M2328.14,-71.7C2328.58,-63.98 2329.11,-54.71 2329.61,-46.11"/>
<polygon fill="black" stroke="black" points="2333.1,-46.29 2330.18,-36.1 2326.11,-45.89 2333.1,-46.29"/>
</g>
<!-- DOMA&#45;SYMSGNO -->
<g id="node34" class="node">
<title>DOMA&#45;SYMSGNO</title>
<g id="a_node34"><a xlink:href="./DOMA_SYMSGNO.html" xlink:title="DOMA&#45;SYMSGNO">
<polygon fill="none" stroke="yellow" points="2541.02,-36 2409.29,-36 2409.29,0 2541.02,0 2541.02,-36"/>
<text text-anchor="middle" x="2475.15" y="-13.8" font-family="Times,serif" font-size="14.00">DOMA&#45;SYMSGNO</text>
</a>
</g>
</g>
<!-- DTEL&#45;SYMSGNO&#45;&gt;DOMA&#45;SYMSGNO -->
<g id="edge38" class="edge">
<title>DTEL&#45;SYMSGNO&#45;&gt;DOMA&#45;SYMSGNO</title>
<path fill="none" stroke="black" d="M2471.39,-71.7C2471.94,-63.98 2472.6,-54.71 2473.22,-46.11"/>
<polygon fill="black" stroke="black" points="2476.71,-46.33 2473.93,-36.1 2469.73,-45.83 2476.71,-46.33"/>
</g>
<!-- DOMA&#45;ARBGB -->
<g id="node36" class="node">
<title>DOMA&#45;ARBGB</title>
<g id="a_node36"><a xlink:href="./DOMA_ARBGB.html" xlink:title="DOMA&#45;ARBGB">
<polygon fill="none" stroke="yellow" points="2670.8,-36 2559.51,-36 2559.51,0 2670.8,0 2670.8,-36"/>
<text text-anchor="middle" x="2615.15" y="-13.8" font-family="Times,serif" font-size="14.00">DOMA&#45;ARBGB</text>
</a>
</g>
</g>
<!-- DTEL&#45;SYMSGID&#45;&gt;DOMA&#45;ARBGB -->
<g id="edge39" class="edge">
<title>DTEL&#45;SYMSGID&#45;&gt;DOMA&#45;ARBGB</title>
<path fill="none" stroke="black" d="M2611.39,-71.7C2611.94,-63.98 2612.6,-54.71 2613.22,-46.11"/>
<polygon fill="black" stroke="black" points="2616.71,-46.33 2613.93,-36.1 2609.73,-45.83 2616.71,-46.33"/>
</g>
<!-- DOMA&#45;SYCHAR01 -->
<g id="node38" class="node">
<title>DOMA&#45;SYCHAR01</title>
<g id="a_node38"><a xlink:href="./DOMA_SYCHAR01.html" xlink:title="DOMA&#45;SYCHAR01">
<polygon fill="none" stroke="yellow" points="2826.36,-36 2691.95,-36 2691.95,0 2826.36,0 2826.36,-36"/>
<text text-anchor="middle" x="2759.15" y="-13.8" font-family="Times,serif" font-size="14.00">DOMA&#45;SYCHAR01</text>
</a>
</g>
</g>
<!-- DTEL&#45;BAPI_MTYPE&#45;&gt;DOMA&#45;SYCHAR01 -->
<g id="edge40" class="edge">
<title>DTEL&#45;BAPI_MTYPE&#45;&gt;DOMA&#45;SYCHAR01</title>
<path fill="none" stroke="black" d="M2759.15,-71.7C2759.15,-63.98 2759.15,-54.71 2759.15,-46.11"/>
<polygon fill="black" stroke="black" points="2762.65,-46.1 2759.15,-36.1 2755.65,-46.1 2762.65,-46.1"/>
</g>
</g>
</svg>
