<?xml version="1.0" encoding="UTF-8" standalone="no"?>
<!DOCTYPE svg PUBLIC "-//W3C//DTD SVG 1.1//EN"
 "http://www.w3.org/Graphics/SVG/1.1/DTD/svg11.dtd">
<!-- Generated by graphviz version 2.47.3 (20210619.1520)
 -->
<!-- Title: G Pages: 1 -->
<svg width="1677pt" height="1052pt"
 viewBox="0.00 0.00 1676.79 1052.00" xmlns="http://www.w3.org/2000/svg" xmlns:xlink="http://www.w3.org/1999/xlink">
<g id="graph0" class="graph" transform="scale(1 1) rotate(0) translate(4 1048)">
<title>G</title>
<polygon fill="white" stroke="transparent" points="-4,4 -4,-1048 1672.79,-1048 1672.79,4 -4,4"/>
<!-- CLAS&#45;XCO_CP_UUID -->
<g id="node1" class="node">
<title>CLAS&#45;XCO_CP_UUID</title>
<polygon fill="none" stroke="green" points="981.68,-1044 829.5,-1044 829.5,-1008 981.68,-1008 981.68,-1044"/>
<text text-anchor="middle" x="905.59" y="-1021.8" font-family="Times,serif" font-size="14.00">CLAS&#45;XCO_CP_UUID</text>
</g>
<!-- INTF&#45;IF_XCO_CP_UUID_FORMAT_FACTORY -->
<g id="node2" class="node">
<title>INTF&#45;IF_XCO_CP_UUID_FORMAT_FACTORY</title>
<g id="a_node2"><a xlink:href="./INTF_IF_XCO_CP_UUID_FORMAT_FACTORY.html" xlink:title="INTF&#45;IF_XCO_CP_UUID_FORMAT_FACTORY">
<polygon fill="none" stroke="green" points="1057.6,-972 753.58,-972 753.58,-936 1057.6,-936 1057.6,-972"/>
<text text-anchor="middle" x="905.59" y="-949.8" font-family="Times,serif" font-size="14.00">INTF&#45;IF_XCO_CP_UUID_FORMAT_FACTORY</text>
</a>
</g>
</g>
<!-- CLAS&#45;XCO_CP_UUID&#45;&gt;INTF&#45;IF_XCO_CP_UUID_FORMAT_FACTORY -->
<g id="edge1" class="edge">
<title>CLAS&#45;XCO_CP_UUID&#45;&gt;INTF&#45;IF_XCO_CP_UUID_FORMAT_FACTORY</title>
<path fill="none" stroke="black" d="M905.59,-1007.7C905.59,-999.98 905.59,-990.71 905.59,-982.11"/>
<polygon fill="black" stroke="black" points="909.09,-982.1 905.59,-972.1 902.09,-982.1 909.09,-982.1"/>
</g>
<!-- INTF&#45;IF_XCO_UUID_FORMAT -->
<g id="node3" class="node">
<title>INTF&#45;IF_XCO_UUID_FORMAT</title>
<g id="a_node3"><a xlink:href="./INTF_IF_XCO_UUID_FORMAT.html" xlink:title="INTF&#45;IF_XCO_UUID_FORMAT">
<polygon fill="none" stroke="green" points="1009.66,-900 801.52,-900 801.52,-864 1009.66,-864 1009.66,-900"/>
<text text-anchor="middle" x="905.59" y="-877.8" font-family="Times,serif" font-size="14.00">INTF&#45;IF_XCO_UUID_FORMAT</text>
</a>
</g>
</g>
<!-- INTF&#45;IF_XCO_CP_UUID_FORMAT_FACTORY&#45;&gt;INTF&#45;IF_XCO_UUID_FORMAT -->
<g id="edge2" class="edge">
<title>INTF&#45;IF_XCO_CP_UUID_FORMAT_FACTORY&#45;&gt;INTF&#45;IF_XCO_UUID_FORMAT</title>
<path fill="none" stroke="black" d="M905.59,-935.7C905.59,-927.98 905.59,-918.71 905.59,-910.11"/>
<polygon fill="black" stroke="black" points="909.09,-910.1 905.59,-900.1 902.09,-910.1 909.09,-910.1"/>
</g>
<!-- INTF&#45;IF_XCO_UUID -->
<g id="node4" class="node">
<title>INTF&#45;IF_XCO_UUID</title>
<g id="a_node4"><a xlink:href="./INTF_IF_XCO_UUID.html" xlink:title="INTF&#45;IF_XCO_UUID">
<polygon fill="none" stroke="green" points="976.83,-828 834.35,-828 834.35,-792 976.83,-792 976.83,-828"/>
<text text-anchor="middle" x="905.59" y="-805.8" font-family="Times,serif" font-size="14.00">INTF&#45;IF_XCO_UUID</text>
</a>
</g>
</g>
<!-- INTF&#45;IF_XCO_UUID_FORMAT&#45;&gt;INTF&#45;IF_XCO_UUID -->
<g id="edge3" class="edge">
<title>INTF&#45;IF_XCO_UUID_FORMAT&#45;&gt;INTF&#45;IF_XCO_UUID</title>
<path fill="none" stroke="black" d="M899.67,-863.7C898.88,-855.98 898.65,-846.71 898.99,-838.11"/>
<polygon fill="black" stroke="black" points="902.49,-838.32 899.69,-828.1 895.51,-837.84 902.49,-838.32"/>
</g>
<!-- INTF&#45;IF_XCO_UUID&#45;&gt;INTF&#45;IF_XCO_UUID_FORMAT -->
<g id="edge5" class="edge">
<title>INTF&#45;IF_XCO_UUID&#45;&gt;INTF&#45;IF_XCO_UUID_FORMAT</title>
<path fill="none" stroke="black" d="M911.48,-828.1C912.29,-835.79 912.53,-845.05 912.19,-853.67"/>
<polygon fill="black" stroke="black" points="908.7,-853.48 911.51,-863.7 915.68,-853.96 908.7,-853.48"/>
</g>
<!-- INTF&#45;IF_XCO_STRING -->
<g id="node5" class="node">
<title>INTF&#45;IF_XCO_STRING</title>
<g id="a_node5"><a xlink:href="./INTF_IF_XCO_STRING.html" xlink:title="INTF&#45;IF_XCO_STRING">
<polygon fill="none" stroke="green" points="899.89,-756 741.29,-756 741.29,-720 899.89,-720 899.89,-756"/>
<text text-anchor="middle" x="820.59" y="-733.8" font-family="Times,serif" font-size="14.00">INTF&#45;IF_XCO_STRING</text>
</a>
</g>
</g>
<!-- INTF&#45;IF_XCO_UUID&#45;&gt;INTF&#45;IF_XCO_STRING -->
<g id="edge6" class="edge">
<title>INTF&#45;IF_XCO_UUID&#45;&gt;INTF&#45;IF_XCO_STRING</title>
<path fill="none" stroke="black" d="M884.58,-791.7C873.87,-782.88 860.7,-772.03 849.09,-762.47"/>
<polygon fill="black" stroke="black" points="851.3,-759.76 841.36,-756.1 846.85,-765.16 851.3,-759.76"/>
</g>
<!-- DTEL&#45;SYSUUID_X16 -->
<g id="node43" class="node">
<title>DTEL&#45;SYSUUID_X16</title>
<g id="a_node43"><a xlink:href="./DTEL_SYSUUID_X16.html" xlink:title="DTEL&#45;SYSUUID_X16">
<polygon fill="none" stroke="green" points="1346.77,-756 1198.41,-756 1198.41,-720 1346.77,-720 1346.77,-756"/>
<text text-anchor="middle" x="1272.59" y="-733.8" font-family="Times,serif" font-size="14.00">DTEL&#45;SYSUUID_X16</text>
</a>
</g>
</g>
<!-- INTF&#45;IF_XCO_UUID&#45;&gt;DTEL&#45;SYSUUID_X16 -->
<g id="edge4" class="edge">
<title>INTF&#45;IF_XCO_UUID&#45;&gt;DTEL&#45;SYSUUID_X16</title>
<path fill="none" stroke="black" d="M977.22,-795.34C1037.71,-783.8 1124.43,-767.26 1188.26,-755.08"/>
<polygon fill="black" stroke="black" points="1189.14,-758.48 1198.31,-753.17 1187.83,-751.6 1189.14,-758.48"/>
</g>
<!-- INTF&#45;IF_XCO_STRING_ITERABLE -->
<g id="node6" class="node">
<title>INTF&#45;IF_XCO_STRING_ITERABLE</title>
<g id="a_node6"><a xlink:href="./INTF_IF_XCO_STRING_ITERABLE.html" xlink:title="INTF&#45;IF_XCO_STRING_ITERABLE">
<polygon fill="none" stroke="green" points="1421.04,-540 1188.14,-540 1188.14,-504 1421.04,-504 1421.04,-540"/>
<text text-anchor="middle" x="1304.59" y="-517.8" font-family="Times,serif" font-size="14.00">INTF&#45;IF_XCO_STRING_ITERABLE</text>
</a>
</g>
</g>
<!-- INTF&#45;IF_XCO_STRING&#45;&gt;INTF&#45;IF_XCO_STRING_ITERABLE -->
<g id="edge14" class="edge">
<title>INTF&#45;IF_XCO_STRING&#45;&gt;INTF&#45;IF_XCO_STRING_ITERABLE</title>
<path fill="none" stroke="black" d="M899.94,-733.05C1024.3,-726.1 1253.79,-709.92 1280.59,-684 1316.3,-649.46 1314.28,-586.42 1309.51,-550.33"/>
<polygon fill="black" stroke="black" points="1312.92,-549.42 1307.98,-540.05 1305.99,-550.46 1312.92,-549.42"/>
</g>
<!-- INTF&#45;IF_XCO_TEXT -->
<g id="node9" class="node">
<title>INTF&#45;IF_XCO_TEXT</title>
<g id="a_node9"><a xlink:href="./INTF_IF_XCO_TEXT.html" xlink:title="INTF&#45;IF_XCO_TEXT">
<polygon fill="none" stroke="green" points="314.11,-684 171.07,-684 171.07,-648 314.11,-648 314.11,-684"/>
<text text-anchor="middle" x="242.59" y="-661.8" font-family="Times,serif" font-size="14.00">INTF&#45;IF_XCO_TEXT</text>
</a>
</g>
</g>
<!-- INTF&#45;IF_XCO_STRING&#45;&gt;INTF&#45;IF_XCO_TEXT -->
<g id="edge13" class="edge">
<title>INTF&#45;IF_XCO_STRING&#45;&gt;INTF&#45;IF_XCO_TEXT</title>
<path fill="none" stroke="black" d="M741.06,-730.6C643.56,-722.25 473.4,-706.07 328.59,-684 327.13,-683.78 325.66,-683.55 324.18,-683.31"/>
<polygon fill="black" stroke="black" points="324.74,-679.86 314.3,-681.67 323.59,-686.76 324.74,-679.86"/>
</g>
<!-- INTF&#45;IF_XCO_STRINGS -->
<g id="node10" class="node">
<title>INTF&#45;IF_XCO_STRINGS</title>
<g id="a_node10"><a xlink:href="./INTF_IF_XCO_STRINGS.html" xlink:title="INTF&#45;IF_XCO_STRINGS">
<polygon fill="none" stroke="green" points="580.67,-612 414.51,-612 414.51,-576 580.67,-576 580.67,-612"/>
<text text-anchor="middle" x="497.59" y="-589.8" font-family="Times,serif" font-size="14.00">INTF&#45;IF_XCO_STRINGS</text>
</a>
</g>
</g>
<!-- INTF&#45;IF_XCO_STRING&#45;&gt;INTF&#45;IF_XCO_STRINGS -->
<g id="edge7" class="edge">
<title>INTF&#45;IF_XCO_STRING&#45;&gt;INTF&#45;IF_XCO_STRINGS</title>
<path fill="none" stroke="black" d="M740.98,-733.38C618.2,-726.78 394.48,-710.93 370.59,-684 359.97,-672.03 361.9,-661.43 370.59,-648 379.48,-634.26 392.87,-624.05 407.69,-616.47"/>
<polygon fill="black" stroke="black" points="409.49,-619.49 417.07,-612.08 406.53,-613.15 409.49,-619.49"/>
</g>
<!-- INTF&#45;IF_XCO_NEWS -->
<g id="node11" class="node">
<title>INTF&#45;IF_XCO_NEWS</title>
<g id="a_node11"><a xlink:href="./INTF_IF_XCO_NEWS.html" xlink:title="INTF&#45;IF_XCO_NEWS">
<polygon fill="none" stroke="green" points="985.5,-540 837.68,-540 837.68,-504 985.5,-504 985.5,-540"/>
<text text-anchor="middle" x="911.59" y="-517.8" font-family="Times,serif" font-size="14.00">INTF&#45;IF_XCO_NEWS</text>
</a>
</g>
</g>
<!-- INTF&#45;IF_XCO_STRING&#45;&gt;INTF&#45;IF_XCO_NEWS -->
<g id="edge12" class="edge">
<title>INTF&#45;IF_XCO_STRING&#45;&gt;INTF&#45;IF_XCO_NEWS</title>
<path fill="none" stroke="black" d="M788.06,-719.98C774.8,-711.18 760.89,-699.09 753.59,-684 746.62,-669.6 746.62,-662.4 753.59,-648 776.56,-600.55 827.25,-565.64 865.06,-544.96"/>
<polygon fill="black" stroke="black" points="867.18,-547.79 874.37,-540 863.9,-541.61 867.18,-547.79"/>
</g>
<!-- INTF&#45;IF_XCO_MESSAGE -->
<g id="node13" class="node">
<title>INTF&#45;IF_XCO_MESSAGE</title>
<g id="a_node13"><a xlink:href="./INTF_IF_XCO_MESSAGE.html" xlink:title="INTF&#45;IF_XCO_MESSAGE">
<polygon fill="none" stroke="green" points="998.17,-396 825.01,-396 825.01,-360 998.17,-360 998.17,-396"/>
<text text-anchor="middle" x="911.59" y="-373.8" font-family="Times,serif" font-size="14.00">INTF&#45;IF_XCO_MESSAGE</text>
</a>
</g>
</g>
<!-- INTF&#45;IF_XCO_STRING&#45;&gt;INTF&#45;IF_XCO_MESSAGE -->
<g id="edge9" class="edge">
<title>INTF&#45;IF_XCO_STRING&#45;&gt;INTF&#45;IF_XCO_MESSAGE</title>
<path fill="none" stroke="black" d="M899.91,-732.75C1017.06,-725.65 1224.99,-709.58 1247.59,-684 1279.37,-648.03 1272.35,-617.12 1247.59,-576 1229.95,-546.7 1209.29,-556.95 1179.59,-540 1099.88,-494.51 1082.47,-478.91 1003.59,-432 986.35,-421.74 967.13,-410.63 950.75,-401.24"/>
<polygon fill="black" stroke="black" points="952.38,-398.14 941.96,-396.22 948.9,-404.22 952.38,-398.14"/>
</g>
<!-- INTF&#45;IF_XCO_XSTRING -->
<g id="node39" class="node">
<title>INTF&#45;IF_XCO_XSTRING</title>
<g id="a_node39"><a xlink:href="./INTF_IF_XCO_XSTRING.html" xlink:title="INTF&#45;IF_XCO_XSTRING">
<polygon fill="none" stroke="green" points="1239,-684 1070.18,-684 1070.18,-648 1239,-648 1239,-684"/>
<text text-anchor="middle" x="1154.59" y="-661.8" font-family="Times,serif" font-size="14.00">INTF&#45;IF_XCO_XSTRING</text>
</a>
</g>
</g>
<!-- INTF&#45;IF_XCO_STRING&#45;&gt;INTF&#45;IF_XCO_XSTRING -->
<g id="edge11" class="edge">
<title>INTF&#45;IF_XCO_STRING&#45;&gt;INTF&#45;IF_XCO_XSTRING</title>
<path fill="none" stroke="black" d="M895.98,-719.97C944.68,-709.53 1008.37,-696.17 1060.39,-685.48"/>
<polygon fill="black" stroke="black" points="1061.2,-688.88 1070.29,-683.45 1059.79,-682.03 1061.2,-688.88"/>
</g>
<!-- INTF&#45;IF_XCO_STRING_XSTRING_CNVRSN -->
<g id="node41" class="node">
<title>INTF&#45;IF_XCO_STRING_XSTRING_CNVRSN</title>
<g id="a_node41"><a xlink:href="./INTF_IF_XCO_STRING_XSTRING_CNVRSN.html" xlink:title="INTF&#45;IF_XCO_STRING_XSTRING_CNVRSN">
<polygon fill="none" stroke="green" points="1052.32,-684 762.86,-684 762.86,-648 1052.32,-648 1052.32,-684"/>
<text text-anchor="middle" x="907.59" y="-661.8" font-family="Times,serif" font-size="14.00">INTF&#45;IF_XCO_STRING_XSTRING_CNVRSN</text>
</a>
</g>
</g>
<!-- INTF&#45;IF_XCO_STRING&#45;&gt;INTF&#45;IF_XCO_STRING_XSTRING_CNVRSN -->
<g id="edge10" class="edge">
<title>INTF&#45;IF_XCO_STRING&#45;&gt;INTF&#45;IF_XCO_STRING_XSTRING_CNVRSN</title>
<path fill="none" stroke="black" d="M842.1,-719.7C853.05,-710.88 866.54,-700.03 878.41,-690.47"/>
<polygon fill="black" stroke="black" points="880.73,-693.1 886.33,-684.1 876.35,-687.65 880.73,-693.1"/>
</g>
<!-- INTF&#45;IF_XCO_STRING_DECOMPOSITION -->
<g id="node42" class="node">
<title>INTF&#45;IF_XCO_STRING_DECOMPOSITION</title>
<g id="a_node42"><a xlink:href="./INTF_IF_XCO_STRING_DECOMPOSITION.html" xlink:title="INTF&#45;IF_XCO_STRING_DECOMPOSITION">
<polygon fill="none" stroke="green" points="668.2,-684 388.98,-684 388.98,-648 668.2,-648 668.2,-684"/>
<text text-anchor="middle" x="528.59" y="-661.8" font-family="Times,serif" font-size="14.00">INTF&#45;IF_XCO_STRING_DECOMPOSITION</text>
</a>
</g>
</g>
<!-- INTF&#45;IF_XCO_STRING&#45;&gt;INTF&#45;IF_XCO_STRING_DECOMPOSITION -->
<g id="edge8" class="edge">
<title>INTF&#45;IF_XCO_STRING&#45;&gt;INTF&#45;IF_XCO_STRING_DECOMPOSITION</title>
<path fill="none" stroke="black" d="M743.64,-719.97C700.45,-709.87 646.82,-697.03 603.9,-686.52"/>
<polygon fill="black" stroke="black" points="604.62,-683.09 594.07,-684.11 602.95,-689.89 604.62,-683.09"/>
</g>
<!-- INTF&#45;IF_XCO_STRING_ITERATOR -->
<g id="node7" class="node">
<title>INTF&#45;IF_XCO_STRING_ITERATOR</title>
<g id="a_node7"><a xlink:href="./INTF_IF_XCO_STRING_ITERATOR.html" xlink:title="INTF&#45;IF_XCO_STRING_ITERATOR">
<polygon fill="none" stroke="green" points="1493.6,-468 1259.58,-468 1259.58,-432 1493.6,-432 1493.6,-468"/>
<text text-anchor="middle" x="1376.59" y="-445.8" font-family="Times,serif" font-size="14.00">INTF&#45;IF_XCO_STRING_ITERATOR</text>
</a>
</g>
</g>
<!-- INTF&#45;IF_XCO_STRING_ITERABLE&#45;&gt;INTF&#45;IF_XCO_STRING_ITERATOR -->
<g id="edge15" class="edge">
<title>INTF&#45;IF_XCO_STRING_ITERABLE&#45;&gt;INTF&#45;IF_XCO_STRING_ITERATOR</title>
<path fill="none" stroke="black" d="M1322.39,-503.7C1331.19,-495.14 1341.97,-484.66 1351.59,-475.3"/>
<polygon fill="black" stroke="black" points="1354.27,-477.58 1359,-468.1 1349.39,-472.57 1354.27,-477.58"/>
</g>
<!-- INTF&#45;IF_XCO_STRING_ITERATOR&#45;&gt;INTF&#45;IF_XCO_STRING -->
<g id="edge16" class="edge">
<title>INTF&#45;IF_XCO_STRING_ITERATOR&#45;&gt;INTF&#45;IF_XCO_STRING</title>
<path fill="none" stroke="black" d="M1401.07,-468.23C1411.99,-477.44 1423.71,-489.81 1429.59,-504 1435.71,-518.78 1435.16,-525 1429.59,-540 1400.2,-619.18 1380.33,-644.67 1305.59,-684 1239.04,-719.02 1031.45,-730.96 910.51,-734.99"/>
<polygon fill="black" stroke="black" points="910.05,-731.5 900.17,-735.32 910.27,-738.49 910.05,-731.5"/>
</g>
<!-- INTF&#45;IF_XCO_ITERATOR -->
<g id="node8" class="node">
<title>INTF&#45;IF_XCO_ITERATOR</title>
<g id="a_node8"><a xlink:href="./INTF_IF_XCO_ITERATOR.html" xlink:title="INTF&#45;IF_XCO_ITERATOR">
<polygon fill="none" stroke="green" points="1465.05,-396 1288.13,-396 1288.13,-360 1465.05,-360 1465.05,-396"/>
<text text-anchor="middle" x="1376.59" y="-373.8" font-family="Times,serif" font-size="14.00">INTF&#45;IF_XCO_ITERATOR</text>
</a>
</g>
</g>
<!-- INTF&#45;IF_XCO_STRING_ITERATOR&#45;&gt;INTF&#45;IF_XCO_ITERATOR -->
<g id="edge17" class="edge">
<title>INTF&#45;IF_XCO_STRING_ITERATOR&#45;&gt;INTF&#45;IF_XCO_ITERATOR</title>
<path fill="none" stroke="black" d="M1376.59,-431.7C1376.59,-423.98 1376.59,-414.71 1376.59,-406.11"/>
<polygon fill="black" stroke="black" points="1380.09,-406.1 1376.59,-396.1 1373.09,-406.1 1380.09,-406.1"/>
</g>
<!-- INTF&#45;IF_XCO_TEXT&#45;&gt;INTF&#45;IF_XCO_STRINGS -->
<g id="edge18" class="edge">
<title>INTF&#45;IF_XCO_TEXT&#45;&gt;INTF&#45;IF_XCO_STRINGS</title>
<path fill="none" stroke="black" d="M298.76,-647.97C334.26,-637.93 380.58,-625.19 419.61,-614.72"/>
<polygon fill="black" stroke="black" points="420.61,-618.08 429.36,-612.11 418.8,-611.31 420.61,-618.08"/>
</g>
<!-- INTF&#45;IF_XCO_STRINGS&#45;&gt;INTF&#45;IF_XCO_STRING -->
<g id="edge21" class="edge">
<title>INTF&#45;IF_XCO_STRINGS&#45;&gt;INTF&#45;IF_XCO_STRING</title>
<path fill="none" stroke="black" d="M434.34,-612.08C416.62,-619.96 399.33,-631.41 388.59,-648 379.9,-661.43 377.97,-672.03 388.59,-684 411.09,-709.36 610.82,-724.89 730.72,-732.13"/>
<polygon fill="black" stroke="black" points="730.81,-735.64 741,-732.74 731.22,-728.65 730.81,-735.64"/>
</g>
<!-- INTF&#45;IF_XCO_STRINGS&#45;&gt;INTF&#45;IF_XCO_STRING_ITERABLE -->
<g id="edge25" class="edge">
<title>INTF&#45;IF_XCO_STRINGS&#45;&gt;INTF&#45;IF_XCO_STRING_ITERABLE</title>
<path fill="none" stroke="black" d="M580.91,-585.77C722.52,-573.49 1010.97,-548.47 1177.76,-534"/>
<polygon fill="black" stroke="black" points="1178.41,-537.46 1188.07,-533.11 1177.81,-530.48 1178.41,-537.46"/>
</g>
<!-- INTF&#45;IF_XCO_STRINGS&#45;&gt;INTF&#45;IF_XCO_TEXT -->
<g id="edge24" class="edge">
<title>INTF&#45;IF_XCO_STRINGS&#45;&gt;INTF&#45;IF_XCO_TEXT</title>
<path fill="none" stroke="black" d="M441.15,-612.11C405.6,-622.16 359.27,-634.9 320.28,-645.36"/>
<polygon fill="black" stroke="black" points="319.29,-642 310.53,-647.97 321.1,-648.76 319.29,-642"/>
</g>
<!-- INTF&#45;IF_XCO_STRINGS&#45;&gt;INTF&#45;IF_XCO_NEWS -->
<g id="edge23" class="edge">
<title>INTF&#45;IF_XCO_STRINGS&#45;&gt;INTF&#45;IF_XCO_NEWS</title>
<path fill="none" stroke="black" d="M580.74,-580.71C645.42,-570.9 737.67,-556.41 827.99,-540.07"/>
<polygon fill="black" stroke="black" points="828.64,-543.51 837.86,-538.27 827.39,-536.62 828.64,-543.51"/>
</g>
<!-- INTF&#45;IF_XCO_STRING_COMPOSITION -->
<g id="node35" class="node">
<title>INTF&#45;IF_XCO_STRING_COMPOSITION</title>
<g id="a_node35"><a xlink:href="./INTF_IF_XCO_STRING_COMPOSITION.html" xlink:title="INTF&#45;IF_XCO_STRING_COMPOSITION">
<polygon fill="none" stroke="green" points="820.04,-540 559.14,-540 559.14,-504 820.04,-504 820.04,-540"/>
<text text-anchor="middle" x="689.59" y="-517.8" font-family="Times,serif" font-size="14.00">INTF&#45;IF_XCO_STRING_COMPOSITION</text>
</a>
</g>
</g>
<!-- INTF&#45;IF_XCO_STRINGS&#45;&gt;INTF&#45;IF_XCO_STRING_COMPOSITION -->
<g id="edge22" class="edge">
<title>INTF&#45;IF_XCO_STRINGS&#45;&gt;INTF&#45;IF_XCO_STRING_COMPOSITION</title>
<path fill="none" stroke="black" d="M538.66,-575.88C564.47,-566.09 598.18,-553.77 627.23,-543.47"/>
<polygon fill="black" stroke="black" points="628.62,-546.7 636.88,-540.07 626.29,-540.09 628.62,-546.7"/>
</g>
<!-- TTYP&#45;STRING_TABLE -->
<g id="node36" class="node">
<title>TTYP&#45;STRING_TABLE</title>
<g id="a_node36"><a xlink:href="./TTYP_STRING_TABLE.html" xlink:title="TTYP&#45;STRING_TABLE">
<polygon fill="none" stroke="green" points="435.89,-540 277.29,-540 277.29,-504 435.89,-504 435.89,-540"/>
<text text-anchor="middle" x="356.59" y="-517.8" font-family="Times,serif" font-size="14.00">TTYP&#45;STRING_TABLE</text>
</a>
</g>
</g>
<!-- INTF&#45;IF_XCO_STRINGS&#45;&gt;TTYP&#45;STRING_TABLE -->
<g id="edge20" class="edge">
<title>INTF&#45;IF_XCO_STRINGS&#45;&gt;TTYP&#45;STRING_TABLE</title>
<path fill="none" stroke="black" d="M463.1,-575.88C444.15,-566.47 420.46,-554.71 400.23,-544.67"/>
<polygon fill="black" stroke="black" points="401.73,-541.5 391.21,-540.19 398.62,-547.77 401.73,-541.5"/>
</g>
<!-- DTEL&#45;INT4 -->
<g id="node37" class="node">
<title>DTEL&#45;INT4</title>
<g id="a_node37"><a xlink:href="./DTEL_INT4.html" xlink:title="DTEL&#45;INT4">
<polygon fill="none" stroke="green" points="540.83,-540 454.34,-540 454.34,-504 540.83,-504 540.83,-540"/>
<text text-anchor="middle" x="497.59" y="-517.8" font-family="Times,serif" font-size="14.00">DTEL&#45;INT4</text>
</a>
</g>
</g>
<!-- INTF&#45;IF_XCO_STRINGS&#45;&gt;DTEL&#45;INT4 -->
<g id="edge19" class="edge">
<title>INTF&#45;IF_XCO_STRINGS&#45;&gt;DTEL&#45;INT4</title>
<path fill="none" stroke="black" d="M497.59,-575.7C497.59,-567.98 497.59,-558.71 497.59,-550.11"/>
<polygon fill="black" stroke="black" points="501.09,-550.1 497.59,-540.1 494.09,-550.1 501.09,-550.1"/>
</g>
<!-- TTYP&#45;SXCO_T_MESSAGES -->
<g id="node12" class="node">
<title>TTYP&#45;SXCO_T_MESSAGES</title>
<g id="a_node12"><a xlink:href="./TTYP_SXCO_T_MESSAGES.html" xlink:title="TTYP&#45;SXCO_T_MESSAGES">
<polygon fill="none" stroke="green" points="977.74,-468 789.44,-468 789.44,-432 977.74,-432 977.74,-468"/>
<text text-anchor="middle" x="883.59" y="-445.8" font-family="Times,serif" font-size="14.00">TTYP&#45;SXCO_T_MESSAGES</text>
</a>
</g>
</g>
<!-- INTF&#45;IF_XCO_NEWS&#45;&gt;TTYP&#45;SXCO_T_MESSAGES -->
<g id="edge26" class="edge">
<title>INTF&#45;IF_XCO_NEWS&#45;&gt;TTYP&#45;SXCO_T_MESSAGES</title>
<path fill="none" stroke="black" d="M904.67,-503.7C901.52,-495.81 897.71,-486.3 894.21,-477.55"/>
<polygon fill="black" stroke="black" points="897.4,-476.09 890.43,-468.1 890.9,-478.69 897.4,-476.09"/>
</g>
<!-- TTYP&#45;SXCO_T_MESSAGES&#45;&gt;INTF&#45;IF_XCO_MESSAGE -->
<g id="edge27" class="edge">
<title>TTYP&#45;SXCO_T_MESSAGES&#45;&gt;INTF&#45;IF_XCO_MESSAGE</title>
<path fill="none" stroke="black" d="M890.51,-431.7C893.66,-423.81 897.47,-414.3 900.97,-405.55"/>
<polygon fill="black" stroke="black" points="904.28,-406.69 904.75,-396.1 897.78,-404.09 904.28,-406.69"/>
</g>
<!-- INTF&#45;IF_XCO_MESSAGE&#45;&gt;INTF&#45;IF_XCO_NEWS -->
<g id="edge36" class="edge">
<title>INTF&#45;IF_XCO_MESSAGE&#45;&gt;INTF&#45;IF_XCO_NEWS</title>
<path fill="none" stroke="black" d="M949.47,-396.09C963.82,-404.67 978.6,-416.57 986.59,-432 993.95,-446.21 993.95,-453.79 986.59,-468 980.22,-480.3 969.54,-490.35 958.21,-498.27"/>
<polygon fill="black" stroke="black" points="955.98,-495.54 949.47,-503.91 959.77,-501.42 955.98,-495.54"/>
</g>
<!-- INTF&#45;IF_T100_DYN_MSG -->
<g id="node14" class="node">
<title>INTF&#45;IF_T100_DYN_MSG</title>
<g id="a_node14"><a xlink:href="./INTF_IF_T100_DYN_MSG.html" xlink:title="INTF&#45;IF_T100_DYN_MSG">
<polygon fill="none" stroke="green" points="1223.5,-324 1047.68,-324 1047.68,-288 1223.5,-288 1223.5,-324"/>
<text text-anchor="middle" x="1135.59" y="-301.8" font-family="Times,serif" font-size="14.00">INTF&#45;IF_T100_DYN_MSG</text>
</a>
</g>
</g>
<!-- INTF&#45;IF_XCO_MESSAGE&#45;&gt;INTF&#45;IF_T100_DYN_MSG -->
<g id="edge35" class="edge">
<title>INTF&#45;IF_XCO_MESSAGE&#45;&gt;INTF&#45;IF_T100_DYN_MSG</title>
<path fill="none" stroke="black" d="M966.1,-359.97C997.81,-350.06 1037.95,-337.51 1071.2,-327.12"/>
<polygon fill="black" stroke="black" points="1072.33,-330.43 1080.84,-324.11 1070.25,-323.75 1072.33,-330.43"/>
</g>
<!-- DTEL&#45;SYMSGNO -->
<g id="node19" class="node">
<title>DTEL&#45;SYMSGNO</title>
<g id="a_node19"><a xlink:href="./DTEL_SYMSGNO.html" xlink:title="DTEL&#45;SYMSGNO">
<polygon fill="none" stroke="green" points="1442.95,-108 1318.23,-108 1318.23,-72 1442.95,-72 1442.95,-108"/>
<text text-anchor="middle" x="1380.59" y="-85.8" font-family="Times,serif" font-size="14.00">DTEL&#45;SYMSGNO</text>
</a>
</g>
</g>
<!-- INTF&#45;IF_XCO_MESSAGE&#45;&gt;DTEL&#45;SYMSGNO -->
<g id="edge31" class="edge">
<title>INTF&#45;IF_XCO_MESSAGE&#45;&gt;DTEL&#45;SYMSGNO</title>
<path fill="none" stroke="black" d="M998.17,-369.82C1107.97,-357.88 1300.69,-327.28 1447.59,-252 1496.33,-227.02 1522.62,-228.74 1547.59,-180 1554.88,-165.76 1557.04,-156.91 1547.59,-144 1535.87,-127.99 1492.74,-114.53 1453.24,-105.19"/>
<polygon fill="black" stroke="black" points="1453.83,-101.73 1443.3,-102.9 1452.26,-108.55 1453.83,-101.73"/>
</g>
<!-- DTEL&#45;SYMSGID -->
<g id="node21" class="node">
<title>DTEL&#45;SYMSGID</title>
<g id="a_node21"><a xlink:href="./DTEL_SYMSGID.html" xlink:title="DTEL&#45;SYMSGID">
<polygon fill="none" stroke="green" points="1160.51,-108 1040.67,-108 1040.67,-72 1160.51,-72 1160.51,-108"/>
<text text-anchor="middle" x="1100.59" y="-85.8" font-family="Times,serif" font-size="14.00">DTEL&#45;SYMSGID</text>
</a>
</g>
</g>
<!-- INTF&#45;IF_XCO_MESSAGE&#45;&gt;DTEL&#45;SYMSGID -->
<g id="edge30" class="edge">
<title>INTF&#45;IF_XCO_MESSAGE&#45;&gt;DTEL&#45;SYMSGID</title>
<path fill="none" stroke="black" d="M887.01,-359.99C831.81,-319.79 707.51,-216.82 769.59,-144 802.46,-105.45 943.72,-94.82 1030.73,-91.97"/>
<polygon fill="black" stroke="black" points="1030.92,-95.46 1040.81,-91.66 1030.7,-88.46 1030.92,-95.46"/>
</g>
<!-- DTEL&#45;SYMSGTY -->
<g id="node23" class="node">
<title>DTEL&#45;SYMSGTY</title>
<g id="a_node23"><a xlink:href="./DTEL_SYMSGTY.html" xlink:title="DTEL&#45;SYMSGTY">
<polygon fill="none" stroke="green" points="912.4,-252 788.78,-252 788.78,-216 912.4,-216 912.4,-252"/>
<text text-anchor="middle" x="850.59" y="-229.8" font-family="Times,serif" font-size="14.00">DTEL&#45;SYMSGTY</text>
</a>
</g>
</g>
<!-- INTF&#45;IF_XCO_MESSAGE&#45;&gt;DTEL&#45;SYMSGTY -->
<g id="edge29" class="edge">
<title>INTF&#45;IF_XCO_MESSAGE&#45;&gt;DTEL&#45;SYMSGTY</title>
<path fill="none" stroke="black" d="M898.2,-359.63C891,-349.64 882.43,-336.61 876.59,-324 867.37,-304.1 860.6,-280.17 856.28,-262.14"/>
<polygon fill="black" stroke="black" points="859.67,-261.24 854.02,-252.28 852.84,-262.81 859.67,-261.24"/>
</g>
<!-- DTEL&#45;SYMSGV -->
<g id="node25" class="node">
<title>DTEL&#45;SYMSGV</title>
<g id="a_node25"><a xlink:href="./DTEL_SYMSGV.html" xlink:title="DTEL&#45;SYMSGV">
<polygon fill="none" stroke="green" points="1125.84,-252 1011.33,-252 1011.33,-216 1125.84,-216 1125.84,-252"/>
<text text-anchor="middle" x="1068.59" y="-229.8" font-family="Times,serif" font-size="14.00">DTEL&#45;SYMSGV</text>
</a>
</g>
</g>
<!-- INTF&#45;IF_XCO_MESSAGE&#45;&gt;DTEL&#45;SYMSGV -->
<g id="edge32" class="edge">
<title>INTF&#45;IF_XCO_MESSAGE&#45;&gt;DTEL&#45;SYMSGV</title>
<path fill="none" stroke="black" d="M947.05,-359.94C964.26,-350.69 984.61,-338.24 1000.59,-324 1021.4,-305.46 1040.22,-279.79 1052.76,-260.78"/>
<polygon fill="black" stroke="black" points="1055.74,-262.61 1058.22,-252.3 1049.86,-258.81 1055.74,-262.61"/>
</g>
<!-- INTF&#45;IF_XCO_MESSAGE_SHORT_TEXT -->
<g id="node27" class="node">
<title>INTF&#45;IF_XCO_MESSAGE_SHORT_TEXT</title>
<g id="a_node27"><a xlink:href="./INTF_IF_XCO_MESSAGE_SHORT_TEXT.html" xlink:title="INTF&#45;IF_XCO_MESSAGE_SHORT_TEXT">
<polygon fill="none" stroke="green" points="507.82,-324 239.36,-324 239.36,-288 507.82,-288 507.82,-324"/>
<text text-anchor="middle" x="373.59" y="-301.8" font-family="Times,serif" font-size="14.00">INTF&#45;IF_XCO_MESSAGE_SHORT_TEXT</text>
</a>
</g>
</g>
<!-- INTF&#45;IF_XCO_MESSAGE&#45;&gt;INTF&#45;IF_XCO_MESSAGE_SHORT_TEXT -->
<g id="edge34" class="edge">
<title>INTF&#45;IF_XCO_MESSAGE&#45;&gt;INTF&#45;IF_XCO_MESSAGE_SHORT_TEXT</title>
<path fill="none" stroke="black" d="M824.87,-366.37C739.4,-355.5 607.66,-338.4 508.52,-325.34"/>
<polygon fill="black" stroke="black" points="508.79,-321.84 498.42,-324.01 507.88,-328.78 508.79,-321.84"/>
</g>
<!-- CLAS&#45;CL_XCO_MESSAGE_TYPE -->
<g id="node31" class="node">
<title>CLAS&#45;CL_XCO_MESSAGE_TYPE</title>
<g id="a_node31"><a xlink:href="./CLAS_CL_XCO_MESSAGE_TYPE.html" xlink:title="CLAS&#45;CL_XCO_MESSAGE_TYPE">
<polygon fill="none" stroke="green" points="751.29,-324 525.89,-324 525.89,-288 751.29,-288 751.29,-324"/>
<text text-anchor="middle" x="638.59" y="-301.8" font-family="Times,serif" font-size="14.00">CLAS&#45;CL_XCO_MESSAGE_TYPE</text>
</a>
</g>
</g>
<!-- INTF&#45;IF_XCO_MESSAGE&#45;&gt;CLAS&#45;CL_XCO_MESSAGE_TYPE -->
<g id="edge33" class="edge">
<title>INTF&#45;IF_XCO_MESSAGE&#45;&gt;CLAS&#45;CL_XCO_MESSAGE_TYPE</title>
<path fill="none" stroke="black" d="M845.16,-359.97C805.93,-349.91 756.12,-337.14 715.24,-326.65"/>
<polygon fill="black" stroke="black" points="715.88,-323.2 705.32,-324.11 714.14,-329.98 715.88,-323.2"/>
</g>
<!-- TABL&#45;SYMSG -->
<g id="node34" class="node">
<title>TABL&#45;SYMSG</title>
<g id="a_node34"><a xlink:href="./TABL_SYMSG.html" xlink:title="TABL&#45;SYMSG">
<polygon fill="none" stroke="green" points="991.52,-324 885.66,-324 885.66,-288 991.52,-288 991.52,-324"/>
<text text-anchor="middle" x="938.59" y="-301.8" font-family="Times,serif" font-size="14.00">TABL&#45;SYMSG</text>
</a>
</g>
</g>
<!-- INTF&#45;IF_XCO_MESSAGE&#45;&gt;TABL&#45;SYMSG -->
<g id="edge28" class="edge">
<title>INTF&#45;IF_XCO_MESSAGE&#45;&gt;TABL&#45;SYMSG</title>
<path fill="none" stroke="black" d="M918.26,-359.7C921.3,-351.81 924.97,-342.3 928.35,-333.55"/>
<polygon fill="black" stroke="black" points="931.66,-334.69 931.99,-324.1 925.13,-332.17 931.66,-334.69"/>
</g>
<!-- INTF&#45;IF_T100_MESSAGE -->
<g id="node15" class="node">
<title>INTF&#45;IF_T100_MESSAGE</title>
<g id="a_node15"><a xlink:href="./INTF_IF_T100_MESSAGE.html" xlink:title="INTF&#45;IF_T100_MESSAGE">
<polygon fill="none" stroke="green" points="1438.18,-252 1265,-252 1265,-216 1438.18,-216 1438.18,-252"/>
<text text-anchor="middle" x="1351.59" y="-229.8" font-family="Times,serif" font-size="14.00">INTF&#45;IF_T100_MESSAGE</text>
</a>
</g>
</g>
<!-- INTF&#45;IF_T100_DYN_MSG&#45;&gt;INTF&#45;IF_T100_MESSAGE -->
<g id="edge40" class="edge">
<title>INTF&#45;IF_T100_DYN_MSG&#45;&gt;INTF&#45;IF_T100_MESSAGE</title>
<path fill="none" stroke="black" d="M1188.15,-287.97C1218.6,-278.1 1257.1,-265.62 1289.09,-255.25"/>
<polygon fill="black" stroke="black" points="1290.36,-258.52 1298.79,-252.11 1288.2,-251.86 1290.36,-258.52"/>
</g>
<!-- INTF&#45;IF_MESSAGE -->
<g id="node16" class="node">
<title>INTF&#45;IF_MESSAGE</title>
<g id="a_node16"><a xlink:href="./INTF_IF_MESSAGE.html" xlink:title="INTF&#45;IF_MESSAGE">
<polygon fill="none" stroke="green" points="1294.62,-180 1158.55,-180 1158.55,-144 1294.62,-144 1294.62,-180"/>
<text text-anchor="middle" x="1226.59" y="-157.8" font-family="Times,serif" font-size="14.00">INTF&#45;IF_MESSAGE</text>
</a>
</g>
</g>
<!-- INTF&#45;IF_T100_DYN_MSG&#45;&gt;INTF&#45;IF_MESSAGE -->
<g id="edge39" class="edge">
<title>INTF&#45;IF_T100_DYN_MSG&#45;&gt;INTF&#45;IF_MESSAGE</title>
<path fill="none" stroke="black" d="M1146.57,-287.87C1162.35,-263.24 1191.58,-217.64 1210,-188.88"/>
<polygon fill="black" stroke="black" points="1213.13,-190.5 1215.57,-180.19 1207.23,-186.72 1213.13,-190.5"/>
</g>
<!-- INTF&#45;IF_T100_DYN_MSG&#45;&gt;DTEL&#45;SYMSGTY -->
<g id="edge38" class="edge">
<title>INTF&#45;IF_T100_DYN_MSG&#45;&gt;DTEL&#45;SYMSGTY</title>
<path fill="none" stroke="black" d="M1066.24,-287.97C1022.58,-277.24 966.36,-263.43 922.26,-252.6"/>
<polygon fill="black" stroke="black" points="923.02,-249.19 912.48,-250.2 921.35,-255.98 923.02,-249.19"/>
</g>
<!-- INTF&#45;IF_T100_DYN_MSG&#45;&gt;DTEL&#45;SYMSGV -->
<g id="edge37" class="edge">
<title>INTF&#45;IF_T100_DYN_MSG&#45;&gt;DTEL&#45;SYMSGV</title>
<path fill="none" stroke="black" d="M1119.03,-287.7C1110.91,-279.22 1101,-268.86 1092.12,-259.58"/>
<polygon fill="black" stroke="black" points="1094.4,-256.91 1084.96,-252.1 1089.35,-261.75 1094.4,-256.91"/>
</g>
<!-- INTF&#45;IF_T100_MESSAGE&#45;&gt;INTF&#45;IF_MESSAGE -->
<g id="edge45" class="edge">
<title>INTF&#45;IF_T100_MESSAGE&#45;&gt;INTF&#45;IF_MESSAGE</title>
<path fill="none" stroke="black" d="M1321.01,-215.88C1304.52,-206.64 1283.97,-195.13 1266.25,-185.21"/>
<polygon fill="black" stroke="black" points="1267.72,-182.02 1257.29,-180.19 1264.3,-188.13 1267.72,-182.02"/>
</g>
<!-- TABL&#45;SCX_T100KEY -->
<g id="node17" class="node">
<title>TABL&#45;SCX_T100KEY</title>
<g id="a_node17"><a xlink:href="./TABL_SCX_T100KEY.html" xlink:title="TABL&#45;SCX_T100KEY">
<polygon fill="none" stroke="yellow" points="1538.34,-180 1388.84,-180 1388.84,-144 1538.34,-144 1538.34,-180"/>
<text text-anchor="middle" x="1463.59" y="-157.8" font-family="Times,serif" font-size="14.00">TABL&#45;SCX_T100KEY</text>
</a>
</g>
</g>
<!-- INTF&#45;IF_T100_MESSAGE&#45;&gt;TABL&#45;SCX_T100KEY -->
<g id="edge44" class="edge">
<title>INTF&#45;IF_T100_MESSAGE&#45;&gt;TABL&#45;SCX_T100KEY</title>
<path fill="none" stroke="black" d="M1378.99,-215.88C1393.5,-206.81 1411.51,-195.55 1427.18,-185.76"/>
<polygon fill="black" stroke="black" points="1429.46,-188.46 1436.09,-180.19 1425.75,-182.52 1429.46,-188.46"/>
</g>
<!-- DTEL&#45;SCX_ATTRNAME -->
<g id="node18" class="node">
<title>DTEL&#45;SCX_ATTRNAME</title>
<g id="a_node18"><a xlink:href="./DTEL_SCX_ATTRNAME.html" xlink:title="DTEL&#45;SCX_ATTRNAME">
<polygon fill="none" stroke="green" points="1669,-108 1500.18,-108 1500.18,-72 1669,-72 1669,-108"/>
<text text-anchor="middle" x="1584.59" y="-85.8" font-family="Times,serif" font-size="14.00">DTEL&#45;SCX_ATTRNAME</text>
</a>
</g>
</g>
<!-- INTF&#45;IF_T100_MESSAGE&#45;&gt;DTEL&#45;SCX_ATTRNAME -->
<g id="edge43" class="edge">
<title>INTF&#45;IF_T100_MESSAGE&#45;&gt;DTEL&#45;SCX_ATTRNAME</title>
<path fill="none" stroke="black" d="M1438.22,-226.55C1475.59,-219.8 1517.52,-206.39 1547.59,-180 1565.71,-164.09 1575.16,-137.89 1579.95,-118.03"/>
<polygon fill="black" stroke="black" points="1583.42,-118.54 1582.11,-108.03 1576.58,-117.07 1583.42,-118.54"/>
</g>
<!-- INTF&#45;IF_T100_MESSAGE&#45;&gt;DTEL&#45;SYMSGNO -->
<g id="edge42" class="edge">
<title>INTF&#45;IF_T100_MESSAGE&#45;&gt;DTEL&#45;SYMSGNO</title>
<path fill="none" stroke="black" d="M1355.09,-215.87C1360.05,-191.56 1369.19,-146.82 1375.07,-118.01"/>
<polygon fill="black" stroke="black" points="1378.51,-118.69 1377.08,-108.19 1371.65,-117.29 1378.51,-118.69"/>
</g>
<!-- INTF&#45;IF_T100_MESSAGE&#45;&gt;DTEL&#45;SYMSGID -->
<g id="edge41" class="edge">
<title>INTF&#45;IF_T100_MESSAGE&#45;&gt;DTEL&#45;SYMSGID</title>
<path fill="none" stroke="black" d="M1346.92,-215.86C1340.53,-195.63 1327.06,-162.43 1303.59,-144 1265.67,-114.21 1212.68,-101.06 1170.35,-95.3"/>
<polygon fill="black" stroke="black" points="1170.74,-91.83 1160.39,-94.06 1169.87,-98.77 1170.74,-91.83"/>
</g>
<!-- TABL&#45;SCX_T100KEY&#45;&gt;DTEL&#45;SCX_ATTRNAME -->
<g id="edge48" class="edge">
<title>TABL&#45;SCX_T100KEY&#45;&gt;DTEL&#45;SCX_ATTRNAME</title>
<path fill="none" stroke="black" d="M1493.19,-143.88C1509.16,-134.64 1529.05,-123.13 1546.2,-113.21"/>
<polygon fill="black" stroke="black" points="1547.97,-116.23 1554.88,-108.19 1544.47,-110.17 1547.97,-116.23"/>
</g>
<!-- TABL&#45;SCX_T100KEY&#45;&gt;DTEL&#45;SYMSGNO -->
<g id="edge47" class="edge">
<title>TABL&#45;SCX_T100KEY&#45;&gt;DTEL&#45;SYMSGNO</title>
<path fill="none" stroke="black" d="M1443.07,-143.7C1432.72,-134.97 1420,-124.24 1408.75,-114.75"/>
<polygon fill="black" stroke="black" points="1410.77,-111.88 1400.87,-108.1 1406.26,-117.23 1410.77,-111.88"/>
</g>
<!-- TABL&#45;SCX_T100KEY&#45;&gt;DTEL&#45;SYMSGID -->
<g id="edge46" class="edge">
<title>TABL&#45;SCX_T100KEY&#45;&gt;DTEL&#45;SYMSGID</title>
<path fill="none" stroke="black" d="M1388.82,-146.58C1324.82,-134.24 1233.38,-116.61 1170.75,-104.53"/>
<polygon fill="black" stroke="black" points="1171.05,-101.02 1160.57,-102.57 1169.72,-107.9 1171.05,-101.02"/>
</g>
<!-- DOMA&#45;SYMSGNO -->
<g id="node20" class="node">
<title>DOMA&#45;SYMSGNO</title>
<g id="a_node20"><a xlink:href="./DOMA_SYMSGNO.html" xlink:title="DOMA&#45;SYMSGNO">
<polygon fill="none" stroke="yellow" points="1446.45,-36 1314.73,-36 1314.73,0 1446.45,0 1446.45,-36"/>
<text text-anchor="middle" x="1380.59" y="-13.8" font-family="Times,serif" font-size="14.00">DOMA&#45;SYMSGNO</text>
</a>
</g>
</g>
<!-- DTEL&#45;SYMSGNO&#45;&gt;DOMA&#45;SYMSGNO -->
<g id="edge49" class="edge">
<title>DTEL&#45;SYMSGNO&#45;&gt;DOMA&#45;SYMSGNO</title>
<path fill="none" stroke="black" d="M1380.59,-71.7C1380.59,-63.98 1380.59,-54.71 1380.59,-46.11"/>
<polygon fill="black" stroke="black" points="1384.09,-46.1 1380.59,-36.1 1377.09,-46.1 1384.09,-46.1"/>
</g>
<!-- DOMA&#45;ARBGB -->
<g id="node22" class="node">
<title>DOMA&#45;ARBGB</title>
<g id="a_node22"><a xlink:href="./DOMA_ARBGB.html" xlink:title="DOMA&#45;ARBGB">
<polygon fill="none" stroke="yellow" points="1156.24,-36 1044.94,-36 1044.94,0 1156.24,0 1156.24,-36"/>
<text text-anchor="middle" x="1100.59" y="-13.8" font-family="Times,serif" font-size="14.00">DOMA&#45;ARBGB</text>
</a>
</g>
</g>
<!-- DTEL&#45;SYMSGID&#45;&gt;DOMA&#45;ARBGB -->
<g id="edge50" class="edge">
<title>DTEL&#45;SYMSGID&#45;&gt;DOMA&#45;ARBGB</title>
<path fill="none" stroke="black" d="M1100.59,-71.7C1100.59,-63.98 1100.59,-54.71 1100.59,-46.11"/>
<polygon fill="black" stroke="black" points="1104.09,-46.1 1100.59,-36.1 1097.09,-46.1 1104.09,-46.1"/>
</g>
<!-- DOMA&#45;SYCHAR01 -->
<g id="node24" class="node">
<title>DOMA&#45;SYCHAR01</title>
<g id="a_node24"><a xlink:href="./DOMA_SYCHAR01.html" xlink:title="DOMA&#45;SYCHAR01">
<polygon fill="none" stroke="yellow" points="912.79,-180 778.39,-180 778.39,-144 912.79,-144 912.79,-180"/>
<text text-anchor="middle" x="845.59" y="-157.8" font-family="Times,serif" font-size="14.00">DOMA&#45;SYCHAR01</text>
</a>
</g>
</g>
<!-- DTEL&#45;SYMSGTY&#45;&gt;DOMA&#45;SYCHAR01 -->
<g id="edge51" class="edge">
<title>DTEL&#45;SYMSGTY&#45;&gt;DOMA&#45;SYCHAR01</title>
<path fill="none" stroke="black" d="M849.35,-215.7C848.8,-207.98 848.14,-198.71 847.53,-190.11"/>
<polygon fill="black" stroke="black" points="851.02,-189.83 846.81,-180.1 844.03,-190.33 851.02,-189.83"/>
</g>
<!-- DOMA&#45;SYCHAR50 -->
<g id="node26" class="node">
<title>DOMA&#45;SYCHAR50</title>
<g id="a_node26"><a xlink:href="./DOMA_SYCHAR50.html" xlink:title="DOMA&#45;SYCHAR50">
<polygon fill="none" stroke="yellow" points="1140.79,-180 1006.39,-180 1006.39,-144 1140.79,-144 1140.79,-180"/>
<text text-anchor="middle" x="1073.59" y="-157.8" font-family="Times,serif" font-size="14.00">DOMA&#45;SYCHAR50</text>
</a>
</g>
</g>
<!-- DTEL&#45;SYMSGV&#45;&gt;DOMA&#45;SYCHAR50 -->
<g id="edge52" class="edge">
<title>DTEL&#45;SYMSGV&#45;&gt;DOMA&#45;SYCHAR50</title>
<path fill="none" stroke="black" d="M1069.83,-215.7C1070.38,-207.98 1071.04,-198.71 1071.65,-190.11"/>
<polygon fill="black" stroke="black" points="1075.15,-190.33 1072.37,-180.1 1068.16,-189.83 1075.15,-190.33"/>
</g>
<!-- INTF&#45;IF_XCO_MESSAGE_SHORT_TEXT&#45;&gt;INTF&#45;IF_XCO_TEXT -->
<g id="edge54" class="edge">
<title>INTF&#45;IF_XCO_MESSAGE_SHORT_TEXT&#45;&gt;INTF&#45;IF_XCO_TEXT</title>
<path fill="none" stroke="black" d="M343.26,-324.04C306.55,-347.18 249.59,-392.21 249.59,-449 249.59,-523 249.59,-523 249.59,-523 249.59,-563.05 246.78,-609.38 244.72,-637.94"/>
<polygon fill="black" stroke="black" points="241.22,-637.73 243.97,-647.96 248.2,-638.25 241.22,-637.73"/>
</g>
<!-- INTF&#45;IF_XCO_MESSAGE_SHORT_TEXT&#45;&gt;INTF&#45;IF_XCO_MESSAGE -->
<g id="edge53" class="edge">
<title>INTF&#45;IF_XCO_MESSAGE_SHORT_TEXT&#45;&gt;INTF&#45;IF_XCO_MESSAGE</title>
<path fill="none" stroke="black" d="M507.98,-323.72C603.43,-335.97 729.31,-352.37 814.96,-363.72"/>
<polygon fill="black" stroke="black" points="814.57,-367.2 824.95,-365.05 815.49,-360.26 814.57,-367.2"/>
</g>
<!-- INTF&#45;IF_XCO_L10N_TEXT -->
<g id="node28" class="node">
<title>INTF&#45;IF_XCO_L10N_TEXT</title>
<g id="a_node28"><a xlink:href="./INTF_IF_XCO_L10N_TEXT.html" xlink:title="INTF&#45;IF_XCO_L10N_TEXT">
<polygon fill="none" stroke="yellow" points="183.27,-252 -0.09,-252 -0.09,-216 183.27,-216 183.27,-252"/>
<text text-anchor="middle" x="91.59" y="-229.8" font-family="Times,serif" font-size="14.00">INTF&#45;IF_XCO_L10N_TEXT</text>
</a>
</g>
</g>
<!-- INTF&#45;IF_XCO_MESSAGE_SHORT_TEXT&#45;&gt;INTF&#45;IF_XCO_L10N_TEXT -->
<g id="edge55" class="edge">
<title>INTF&#45;IF_XCO_MESSAGE_SHORT_TEXT&#45;&gt;INTF&#45;IF_XCO_L10N_TEXT</title>
<path fill="none" stroke="black" d="M304.97,-287.97C264.28,-277.87 212.56,-265.03 170.23,-254.52"/>
<polygon fill="black" stroke="black" points="171.07,-251.12 160.52,-252.11 169.38,-257.92 171.07,-251.12"/>
</g>
<!-- INTF&#45;IF_XCO_L10N_TEXT&#45;&gt;INTF&#45;IF_XCO_TEXT -->
<g id="edge57" class="edge">
<title>INTF&#45;IF_XCO_L10N_TEXT&#45;&gt;INTF&#45;IF_XCO_TEXT</title>
<path fill="none" stroke="black" d="M99.89,-252.03C111.87,-278.23 132.59,-330.3 132.59,-377 132.59,-523 132.59,-523 132.59,-523 132.59,-573.24 176.15,-616.48 208.45,-641.64"/>
<polygon fill="black" stroke="black" points="206.71,-644.71 216.8,-647.94 210.93,-639.12 206.71,-644.71"/>
</g>
<!-- DTEL&#45;SPRAS -->
<g id="node29" class="node">
<title>DTEL&#45;SPRAS</title>
<g id="a_node29"><a xlink:href="./DTEL_SPRAS.html" xlink:title="DTEL&#45;SPRAS">
<polygon fill="none" stroke="green" points="141.31,-180 41.87,-180 41.87,-144 141.31,-144 141.31,-180"/>
<text text-anchor="middle" x="91.59" y="-157.8" font-family="Times,serif" font-size="14.00">DTEL&#45;SPRAS</text>
</a>
</g>
</g>
<!-- INTF&#45;IF_XCO_L10N_TEXT&#45;&gt;DTEL&#45;SPRAS -->
<g id="edge56" class="edge">
<title>INTF&#45;IF_XCO_L10N_TEXT&#45;&gt;DTEL&#45;SPRAS</title>
<path fill="none" stroke="black" d="M91.59,-215.7C91.59,-207.98 91.59,-198.71 91.59,-190.11"/>
<polygon fill="black" stroke="black" points="95.09,-190.1 91.59,-180.1 88.09,-190.1 95.09,-190.1"/>
</g>
<!-- DOMA&#45;SPRAS -->
<g id="node30" class="node">
<title>DOMA&#45;SPRAS</title>
<g id="a_node30"><a xlink:href="./DOMA_SPRAS.html" xlink:title="DOMA&#45;SPRAS">
<polygon fill="none" stroke="green" points="144.81,-108 38.37,-108 38.37,-72 144.81,-72 144.81,-108"/>
<text text-anchor="middle" x="91.59" y="-85.8" font-family="Times,serif" font-size="14.00">DOMA&#45;SPRAS</text>
</a>
</g>
</g>
<!-- DTEL&#45;SPRAS&#45;&gt;DOMA&#45;SPRAS -->
<g id="edge58" class="edge">
<title>DTEL&#45;SPRAS&#45;&gt;DOMA&#45;SPRAS</title>
<path fill="none" stroke="black" d="M91.59,-143.7C91.59,-135.98 91.59,-126.71 91.59,-118.11"/>
<polygon fill="black" stroke="black" points="95.09,-118.1 91.59,-108.1 88.09,-118.1 95.09,-118.1"/>
</g>
<!-- CLAS&#45;CL_XCO_MESSAGE_TYPE&#45;&gt;INTF&#45;IF_XCO_NEWS -->
<g id="edge61" class="edge">
<title>CLAS&#45;CL_XCO_MESSAGE_TYPE&#45;&gt;INTF&#45;IF_XCO_NEWS</title>
<path fill="none" stroke="black" d="M649.83,-324.4C671.52,-356.76 722.19,-426.64 780.59,-468 799.51,-481.4 822.32,-492.13 843.57,-500.34"/>
<polygon fill="black" stroke="black" points="842.61,-503.72 853.2,-503.93 845.05,-497.16 842.61,-503.72"/>
</g>
<!-- CLAS&#45;CL_XCO_MESSAGE_TYPE&#45;&gt;DTEL&#45;SYMSGTY -->
<g id="edge59" class="edge">
<title>CLAS&#45;CL_XCO_MESSAGE_TYPE&#45;&gt;DTEL&#45;SYMSGTY</title>
<path fill="none" stroke="black" d="M690.18,-287.97C720.06,-278.1 757.85,-265.62 789.25,-255.25"/>
<polygon fill="black" stroke="black" points="790.37,-258.57 798.77,-252.11 788.18,-251.92 790.37,-258.57"/>
</g>
<!-- CLAS&#45;CL_XCO_ENUM_CONSTANT -->
<g id="node32" class="node">
<title>CLAS&#45;CL_XCO_ENUM_CONSTANT</title>
<g id="a_node32"><a xlink:href="./CLAS_CL_XCO_ENUM_CONSTANT.html" xlink:title="CLAS&#45;CL_XCO_ENUM_CONSTANT">
<polygon fill="none" stroke="yellow" points="603.83,-252 363.35,-252 363.35,-216 603.83,-216 603.83,-252"/>
<text text-anchor="middle" x="483.59" y="-229.8" font-family="Times,serif" font-size="14.00">CLAS&#45;CL_XCO_ENUM_CONSTANT</text>
</a>
</g>
</g>
<!-- CLAS&#45;CL_XCO_MESSAGE_TYPE&#45;&gt;CLAS&#45;CL_XCO_ENUM_CONSTANT -->
<g id="edge60" class="edge">
<title>CLAS&#45;CL_XCO_MESSAGE_TYPE&#45;&gt;CLAS&#45;CL_XCO_ENUM_CONSTANT</title>
<path fill="none" stroke="black" d="M600.67,-287.88C579.58,-278.35 553.13,-266.41 530.72,-256.28"/>
<polygon fill="black" stroke="black" points="531.94,-252.99 521.38,-252.07 529.06,-259.37 531.94,-252.99"/>
</g>
<!-- INTF&#45;IF_XCO_PRINTABLE -->
<g id="node33" class="node">
<title>INTF&#45;IF_XCO_PRINTABLE</title>
<g id="a_node33"><a xlink:href="./INTF_IF_XCO_PRINTABLE.html" xlink:title="INTF&#45;IF_XCO_PRINTABLE">
<polygon fill="none" stroke="green" points="459.83,-180 275.35,-180 275.35,-144 459.83,-144 459.83,-180"/>
<text text-anchor="middle" x="367.59" y="-157.8" font-family="Times,serif" font-size="14.00">INTF&#45;IF_XCO_PRINTABLE</text>
</a>
</g>
</g>
<!-- CLAS&#45;CL_XCO_ENUM_CONSTANT&#45;&gt;INTF&#45;IF_XCO_PRINTABLE -->
<g id="edge62" class="edge">
<title>CLAS&#45;CL_XCO_ENUM_CONSTANT&#45;&gt;INTF&#45;IF_XCO_PRINTABLE</title>
<path fill="none" stroke="black" d="M455.21,-215.88C440.05,-206.72 421.18,-195.34 404.85,-185.48"/>
<polygon fill="black" stroke="black" points="406.45,-182.36 396.08,-180.19 402.83,-188.35 406.45,-182.36"/>
</g>
<!-- INTF&#45;IF_XCO_PRINTABLE&#45;&gt;INTF&#45;IF_XCO_TEXT -->
<g id="edge63" class="edge">
<title>INTF&#45;IF_XCO_PRINTABLE&#45;&gt;INTF&#45;IF_XCO_TEXT</title>
<path fill="none" stroke="black" d="M324.55,-180.18C278.37,-201.8 211.59,-243.66 211.59,-305 211.59,-523 211.59,-523 211.59,-523 211.59,-563.9 224.02,-609.94 233.14,-638.21"/>
<polygon fill="black" stroke="black" points="229.84,-639.39 236.32,-647.78 236.48,-637.18 229.84,-639.39"/>
</g>
<!-- TABL&#45;SYMSG&#45;&gt;DTEL&#45;SYMSGNO -->
<g id="edge66" class="edge">
<title>TABL&#45;SYMSG&#45;&gt;DTEL&#45;SYMSGNO</title>
<path fill="none" stroke="black" d="M942.5,-287.94C951.44,-250.44 974.41,-162.68 997.59,-144 1021.26,-124.91 1203.34,-106.29 1307.69,-97.04"/>
<polygon fill="black" stroke="black" points="1308.2,-100.51 1317.85,-96.15 1307.58,-93.54 1308.2,-100.51"/>
</g>
<!-- TABL&#45;SYMSG&#45;&gt;DTEL&#45;SYMSGID -->
<g id="edge65" class="edge">
<title>TABL&#45;SYMSG&#45;&gt;DTEL&#45;SYMSGID</title>
<path fill="none" stroke="black" d="M936.25,-287.77C932.88,-255.7 930.42,-186.28 964.59,-144 981.11,-123.55 1006.57,-110.98 1031.02,-103.25"/>
<polygon fill="black" stroke="black" points="1032.06,-106.59 1040.67,-100.42 1030.09,-99.87 1032.06,-106.59"/>
</g>
<!-- TABL&#45;SYMSG&#45;&gt;DTEL&#45;SYMSGTY -->
<g id="edge64" class="edge">
<title>TABL&#45;SYMSG&#45;&gt;DTEL&#45;SYMSGTY</title>
<path fill="none" stroke="black" d="M916.84,-287.7C905.75,-278.88 892.12,-268.03 880.1,-258.47"/>
<polygon fill="black" stroke="black" points="882.1,-255.59 872.09,-252.1 877.74,-261.07 882.1,-255.59"/>
</g>
<!-- TABL&#45;SYMSG&#45;&gt;DTEL&#45;SYMSGV -->
<g id="edge67" class="edge">
<title>TABL&#45;SYMSG&#45;&gt;DTEL&#45;SYMSGV</title>
<path fill="none" stroke="black" d="M970.39,-287.88C987.7,-278.55 1009.31,-266.92 1027.85,-256.94"/>
<polygon fill="black" stroke="black" points="1029.52,-260.01 1036.67,-252.19 1026.2,-253.85 1029.52,-260.01"/>
</g>
<!-- INTF&#45;IF_XCO_STRING_COMPOSITION&#45;&gt;INTF&#45;IF_XCO_STRING -->
<g id="edge69" class="edge">
<title>INTF&#45;IF_XCO_STRING_COMPOSITION&#45;&gt;INTF&#45;IF_XCO_STRING</title>
<path fill="none" stroke="black" d="M691.86,-540.15C696.74,-571.49 710.65,-638.94 744.59,-684 753.63,-696.01 766.2,-706.31 778.51,-714.55"/>
<polygon fill="black" stroke="black" points="776.63,-717.51 786.95,-719.92 780.39,-711.6 776.63,-717.51"/>
</g>
<!-- INTF&#45;IF_XCO_STRING_COMPOSITION&#45;&gt;INTF&#45;IF_XCO_STRINGS -->
<g id="edge68" class="edge">
<title>INTF&#45;IF_XCO_STRING_COMPOSITION&#45;&gt;INTF&#45;IF_XCO_STRINGS</title>
<path fill="none" stroke="black" d="M648.55,-540.11C622.72,-549.9 588.94,-562.25 559.86,-572.56"/>
<polygon fill="black" stroke="black" points="558.47,-569.34 550.2,-575.97 560.8,-575.94 558.47,-569.34"/>
</g>
<!-- DOMA&#45;INT4 -->
<g id="node38" class="node">
<title>DOMA&#45;INT4</title>
<g id="a_node38"><a xlink:href="./DOMA_INT4.html" xlink:title="DOMA&#45;INT4">
<polygon fill="none" stroke="yellow" points="544.33,-468 450.84,-468 450.84,-432 544.33,-432 544.33,-468"/>
<text text-anchor="middle" x="497.59" y="-445.8" font-family="Times,serif" font-size="14.00">DOMA&#45;INT4</text>
</a>
</g>
</g>
<!-- DTEL&#45;INT4&#45;&gt;DOMA&#45;INT4 -->
<g id="edge70" class="edge">
<title>DTEL&#45;INT4&#45;&gt;DOMA&#45;INT4</title>
<path fill="none" stroke="black" d="M497.59,-503.7C497.59,-495.98 497.59,-486.71 497.59,-478.11"/>
<polygon fill="black" stroke="black" points="501.09,-478.1 497.59,-468.1 494.09,-478.1 501.09,-478.1"/>
</g>
<!-- INTF&#45;IF_XCO_XSTRING&#45;&gt;INTF&#45;IF_XCO_STRING -->
<g id="edge72" class="edge">
<title>INTF&#45;IF_XCO_XSTRING&#45;&gt;INTF&#45;IF_XCO_STRING</title>
<path fill="none" stroke="black" d="M1079.35,-684C1029.15,-694.76 962.96,-708.64 910.06,-719.49"/>
<polygon fill="black" stroke="black" points="909.1,-716.12 900.01,-721.55 910.51,-722.97 909.1,-716.12"/>
</g>
<!-- INTF&#45;IF_XCO_XSTRING_STRING_CNVRSN -->
<g id="node40" class="node">
<title>INTF&#45;IF_XCO_XSTRING_STRING_CNVRSN</title>
<g id="a_node40"><a xlink:href="./INTF_IF_XCO_XSTRING_STRING_CNVRSN.html" xlink:title="INTF&#45;IF_XCO_XSTRING_STRING_CNVRSN">
<polygon fill="none" stroke="green" points="1238.32,-612 948.86,-612 948.86,-576 1238.32,-576 1238.32,-612"/>
<text text-anchor="middle" x="1093.59" y="-589.8" font-family="Times,serif" font-size="14.00">INTF&#45;IF_XCO_XSTRING_STRING_CNVRSN</text>
</a>
</g>
</g>
<!-- INTF&#45;IF_XCO_XSTRING&#45;&gt;INTF&#45;IF_XCO_XSTRING_STRING_CNVRSN -->
<g id="edge71" class="edge">
<title>INTF&#45;IF_XCO_XSTRING&#45;&gt;INTF&#45;IF_XCO_XSTRING_STRING_CNVRSN</title>
<path fill="none" stroke="black" d="M1139.51,-647.7C1132.2,-639.3 1123.28,-629.07 1115.25,-619.86"/>
<polygon fill="black" stroke="black" points="1117.7,-617.34 1108.5,-612.1 1112.43,-621.94 1117.7,-617.34"/>
</g>
<!-- INTF&#45;IF_XCO_STRING_DECOMPOSITION&#45;&gt;INTF&#45;IF_XCO_STRING -->
<g id="edge73" class="edge">
<title>INTF&#45;IF_XCO_STRING_DECOMPOSITION&#45;&gt;INTF&#45;IF_XCO_STRING</title>
<path fill="none" stroke="black" d="M605.6,-684.05C648.89,-694.17 702.64,-707.04 745.59,-717.55"/>
<polygon fill="black" stroke="black" points="744.87,-720.98 755.42,-719.97 746.54,-714.18 744.87,-720.98"/>
</g>
<!-- INTF&#45;IF_XCO_STRING_DECOMPOSITION&#45;&gt;INTF&#45;IF_XCO_STRINGS -->
<g id="edge74" class="edge">
<title>INTF&#45;IF_XCO_STRING_DECOMPOSITION&#45;&gt;INTF&#45;IF_XCO_STRINGS</title>
<path fill="none" stroke="black" d="M520.93,-647.7C517.4,-639.73 513.13,-630.1 509.22,-621.26"/>
<polygon fill="black" stroke="black" points="512.41,-619.83 505.16,-612.1 506.01,-622.67 512.41,-619.83"/>
</g>
<!-- DOMA&#45;SYSUUID_X16 -->
<g id="node44" class="node">
<title>DOMA&#45;SYSUUID_X16</title>
<g id="a_node44"><a xlink:href="./DOMA_SYSUUID_X16.html" xlink:title="DOMA&#45;SYSUUID_X16">
<polygon fill="none" stroke="yellow" points="1632.27,-684 1476.91,-684 1476.91,-648 1632.27,-648 1632.27,-684"/>
<text text-anchor="middle" x="1554.59" y="-661.8" font-family="Times,serif" font-size="14.00">DOMA&#45;SYSUUID_X16</text>
</a>
</g>
</g>
<!-- DTEL&#45;SYSUUID_X16&#45;&gt;DOMA&#45;SYSUUID_X16 -->
<g id="edge75" class="edge">
<title>DTEL&#45;SYSUUID_X16&#45;&gt;DOMA&#45;SYSUUID_X16</title>
<path fill="none" stroke="black" d="M1341.21,-719.97C1381.9,-709.87 1433.62,-697.03 1475.95,-686.52"/>
<polygon fill="black" stroke="black" points="1476.8,-689.92 1485.66,-684.11 1475.11,-683.12 1476.8,-689.92"/>
</g>
</g>
</svg>
