<?xml version="1.0" encoding="UTF-8" standalone="no"?>
<!DOCTYPE svg PUBLIC "-//W3C//DTD SVG 1.1//EN"
 "http://www.w3.org/Graphics/SVG/1.1/DTD/svg11.dtd">
<!-- Generated by graphviz version 2.47.3 (20210619.1520)
 -->
<!-- Title: G Pages: 1 -->
<svg width="236pt" height="188pt"
 viewBox="0.00 0.00 236.29 188.00" xmlns="http://www.w3.org/2000/svg" xmlns:xlink="http://www.w3.org/1999/xlink">
<g id="graph0" class="graph" transform="scale(1 1) rotate(0) translate(4 184)">
<title>G</title>
<polygon fill="white" stroke="transparent" points="-4,4 -4,-184 232.29,-184 232.29,4 -4,4"/>
<!-- CLAS&#45;CL_ABAP_RANDOM_INT8 -->
<g id="node1" class="node">
<title>CLAS&#45;CL_ABAP_RANDOM_INT8</title>
<polygon fill="none" stroke="green" points="226.83,-180 1.46,-180 1.46,-144 226.83,-144 226.83,-180"/>
<text text-anchor="middle" x="114.14" y="-157.8" font-family="Times,serif" font-size="14.00">CLAS&#45;CL_ABAP_RANDOM_INT8</text>
</g>
<!-- CLAS&#45;CL_ABAP_RANDOM -->
<g id="node2" class="node">
<title>CLAS&#45;CL_ABAP_RANDOM</title>
<g id="a_node2"><a xlink:href="./CLAS_CL_ABAP_RANDOM.html" xlink:title="CLAS&#45;CL_ABAP_RANDOM">
<polygon fill="none" stroke="green" points="208.01,-108 20.28,-108 20.28,-72 208.01,-72 208.01,-108"/>
<text text-anchor="middle" x="114.14" y="-85.8" font-family="Times,serif" font-size="14.00">CLAS&#45;CL_ABAP_RANDOM</text>
</a>
</g>
</g>
<!-- CLAS&#45;CL_ABAP_RANDOM_INT8&#45;&gt;CLAS&#45;CL_ABAP_RANDOM -->
<g id="edge1" class="edge">
<title>CLAS&#45;CL_ABAP_RANDOM_INT8&#45;&gt;CLAS&#45;CL_ABAP_RANDOM</title>
<path fill="none" stroke="black" d="M114.14,-143.7C114.14,-135.98 114.14,-126.71 114.14,-118.11"/>
<polygon fill="black" stroke="black" points="117.64,-118.1 114.14,-108.1 110.64,-118.1 117.64,-118.1"/>
</g>
<!-- INTF&#45;IF_SERIALIZABLE_OBJECT -->
<g id="node3" class="node">
<title>INTF&#45;IF_SERIALIZABLE_OBJECT</title>
<g id="a_node3"><a xlink:href="./INTF_IF_SERIALIZABLE_OBJECT.html" xlink:title="INTF&#45;IF_SERIALIZABLE_OBJECT">
<polygon fill="none" stroke="green" points="228.43,-36 -0.14,-36 -0.14,0 228.43,0 228.43,-36"/>
<text text-anchor="middle" x="114.14" y="-13.8" font-family="Times,serif" font-size="14.00">INTF&#45;IF_SERIALIZABLE_OBJECT</text>
</a>
</g>
</g>
<!-- CLAS&#45;CL_ABAP_RANDOM&#45;&gt;INTF&#45;IF_SERIALIZABLE_OBJECT -->
<g id="edge2" class="edge">
<title>CLAS&#45;CL_ABAP_RANDOM&#45;&gt;INTF&#45;IF_SERIALIZABLE_OBJECT</title>
<path fill="none" stroke="black" d="M114.14,-71.7C114.14,-63.98 114.14,-54.71 114.14,-46.11"/>
<polygon fill="black" stroke="black" points="117.64,-46.1 114.14,-36.1 110.64,-46.1 117.64,-46.1"/>
</g>
</g>
</svg>
