<?xml version="1.0" encoding="UTF-8" standalone="no"?>
<!DOCTYPE svg PUBLIC "-//W3C//DTD SVG 1.1//EN"
 "http://www.w3.org/Graphics/SVG/1.1/DTD/svg11.dtd">
<!-- Generated by graphviz version 2.47.3 (20210619.1520)
 -->
<!-- Title: G Pages: 1 -->
<svg width="865pt" height="404pt"
 viewBox="0.00 0.00 865.00 404.00" xmlns="http://www.w3.org/2000/svg" xmlns:xlink="http://www.w3.org/1999/xlink">
<g id="graph0" class="graph" transform="scale(1 1) rotate(0) translate(4 400)">
<title>G</title>
<polygon fill="white" stroke="transparent" points="-4,4 -4,-400 861,-400 861,4 -4,4"/>
<!-- CLAS&#45;CX_AMDP_EXECUTION_ERROR -->
<g id="node1" class="node">
<title>CLAS&#45;CX_AMDP_EXECUTION_ERROR</title>
<g id="a_node1"><a xlink:href="./CLAS_CX_AMDP_EXECUTION_ERROR.html" xlink:title="CLAS&#45;CX_AMDP_EXECUTION_ERROR">
<polygon fill="none" stroke="green" points="299.92,-396 35.78,-396 35.78,-360 299.92,-360 299.92,-396"/>
<text text-anchor="middle" x="167.85" y="-373.8" font-family="Times,serif" font-size="14.00">CLAS&#45;CX_AMDP_EXECUTION_ERROR</text>
</a>
</g>
</g>
<!-- CLAS&#45;CX_AMDP_EXECUTION_FAILED -->
<g id="node2" class="node">
<title>CLAS&#45;CX_AMDP_EXECUTION_FAILED</title>
<g id="a_node2"><a xlink:href="./CLAS_CX_AMDP_EXECUTION_FAILED.html" xlink:title="CLAS&#45;CX_AMDP_EXECUTION_FAILED">
<polygon fill="none" stroke="green" points="301.52,-324 34.19,-324 34.19,-288 301.52,-288 301.52,-324"/>
<text text-anchor="middle" x="167.85" y="-301.8" font-family="Times,serif" font-size="14.00">CLAS&#45;CX_AMDP_EXECUTION_FAILED</text>
</a>
</g>
</g>
<!-- CLAS&#45;CX_AMDP_EXECUTION_ERROR&#45;&gt;CLAS&#45;CX_AMDP_EXECUTION_FAILED -->
<g id="edge4" class="edge">
<title>CLAS&#45;CX_AMDP_EXECUTION_ERROR&#45;&gt;CLAS&#45;CX_AMDP_EXECUTION_FAILED</title>
<path fill="none" stroke="black" d="M156.02,-359.7C154.43,-351.98 153.98,-342.71 154.66,-334.11"/>
<polygon fill="black" stroke="black" points="158.14,-334.49 156.06,-324.1 151.21,-333.52 158.14,-334.49"/>
</g>
<!-- CLAS&#45;CX_AMDP_EXECUTION_ERROR&#45;&gt;CLAS&#45;CX_AMDP_EXECUTION_FAILED -->
<g id="edge10" class="edge">
<title>CLAS&#45;CX_AMDP_EXECUTION_ERROR&#45;&gt;CLAS&#45;CX_AMDP_EXECUTION_FAILED</title>
<path fill="none" stroke="black" d="M179.68,-359.7C181.27,-351.98 181.73,-342.71 181.04,-334.11"/>
<polygon fill="black" stroke="black" points="184.49,-333.52 179.64,-324.1 177.56,-334.49 184.49,-333.52"/>
</g>
<!-- CLAS&#45;CX_AMDP_ERROR -->
<g id="node3" class="node">
<title>CLAS&#45;CX_AMDP_ERROR</title>
<g id="a_node3"><a xlink:href="./CLAS_CX_AMDP_ERROR.html" xlink:title="CLAS&#45;CX_AMDP_ERROR">
<polygon fill="none" stroke="yellow" points="496.34,-324 319.36,-324 319.36,-288 496.34,-288 496.34,-324"/>
<text text-anchor="middle" x="407.85" y="-301.8" font-family="Times,serif" font-size="14.00">CLAS&#45;CX_AMDP_ERROR</text>
</a>
</g>
</g>
<!-- CLAS&#45;CX_AMDP_EXECUTION_ERROR&#45;&gt;CLAS&#45;CX_AMDP_ERROR -->
<g id="edge3" class="edge">
<title>CLAS&#45;CX_AMDP_EXECUTION_ERROR&#45;&gt;CLAS&#45;CX_AMDP_ERROR</title>
<path fill="none" stroke="black" d="M220.37,-359.97C253.58,-349.97 296.94,-337.3 333.63,-326.85"/>
<polygon fill="black" stroke="black" points="334.63,-330.21 343.29,-324.11 332.71,-323.47 334.63,-330.21"/>
</g>
<!-- CLAS&#45;CX_AMDP_EXECUTION_ERROR&#45;&gt;CLAS&#45;CX_AMDP_ERROR -->
<g id="edge9" class="edge">
<title>CLAS&#45;CX_AMDP_EXECUTION_ERROR&#45;&gt;CLAS&#45;CX_AMDP_ERROR</title>
<path fill="none" stroke="black" d="M232.14,-359.97C267.31,-350.01 310.63,-337.41 345.49,-326.99"/>
<polygon fill="black" stroke="black" points="346.51,-330.34 355.08,-324.11 344.5,-323.63 346.51,-330.34"/>
</g>
<!-- DTEL&#45;SOTR_CONC -->
<g id="node12" class="node">
<title>DTEL&#45;SOTR_CONC</title>
<g id="a_node12"><a xlink:href="./DTEL_SOTR_CONC.html" xlink:title="DTEL&#45;SOTR_CONC">
<polygon fill="none" stroke="yellow" points="177.94,-108 39.76,-108 39.76,-72 177.94,-72 177.94,-108"/>
<text text-anchor="middle" x="108.85" y="-85.8" font-family="Times,serif" font-size="14.00">DTEL&#45;SOTR_CONC</text>
</a>
</g>
</g>
<!-- CLAS&#45;CX_AMDP_EXECUTION_ERROR&#45;&gt;DTEL&#45;SOTR_CONC -->
<g id="edge1" class="edge">
<title>CLAS&#45;CX_AMDP_EXECUTION_ERROR&#45;&gt;DTEL&#45;SOTR_CONC</title>
<path fill="none" stroke="black" d="M63.83,-359.89C44.84,-352.05 27.42,-340.63 15.85,-324 -31.05,-256.6 38.75,-160.11 80.99,-115.43"/>
<polygon fill="black" stroke="black" points="83.55,-117.82 88.01,-108.21 78.53,-112.94 83.55,-117.82"/>
</g>
<!-- CLAS&#45;CX_AMDP_EXECUTION_ERROR&#45;&gt;DTEL&#45;SOTR_CONC -->
<g id="edge7" class="edge">
<title>CLAS&#45;CX_AMDP_EXECUTION_ERROR&#45;&gt;DTEL&#45;SOTR_CONC</title>
<path fill="none" stroke="black" d="M81.35,-359.89C62.84,-352.05 45.42,-340.63 33.85,-324 -12.76,-257.02 55.89,-161.31 90.87,-116.27"/>
<polygon fill="black" stroke="black" points="93.77,-118.24 97.17,-108.21 88.25,-113.93 93.77,-118.24"/>
</g>
<!-- TTYP&#45;STRING_TABLE -->
<g id="node14" class="node">
<title>TTYP&#45;STRING_TABLE</title>
<g id="a_node14"><a xlink:href="./TTYP_STRING_TABLE.html" xlink:title="TTYP&#45;STRING_TABLE">
<polygon fill="none" stroke="green" points="673.15,-324 514.55,-324 514.55,-288 673.15,-288 673.15,-324"/>
<text text-anchor="middle" x="593.85" y="-301.8" font-family="Times,serif" font-size="14.00">TTYP&#45;STRING_TABLE</text>
</a>
</g>
</g>
<!-- CLAS&#45;CX_AMDP_EXECUTION_ERROR&#45;&gt;TTYP&#45;STRING_TABLE -->
<g id="edge2" class="edge">
<title>CLAS&#45;CX_AMDP_EXECUTION_ERROR&#45;&gt;TTYP&#45;STRING_TABLE</title>
<path fill="none" stroke="black" d="M274.36,-359.96C338.56,-349.99 421.89,-336.88 495.85,-324 498.68,-323.51 501.57,-323 504.48,-322.48"/>
<polygon fill="black" stroke="black" points="505.26,-325.89 514.48,-320.67 504.02,-319 505.26,-325.89"/>
</g>
<!-- CLAS&#45;CX_AMDP_EXECUTION_ERROR&#45;&gt;TTYP&#45;STRING_TABLE -->
<g id="edge8" class="edge">
<title>CLAS&#45;CX_AMDP_EXECUTION_ERROR&#45;&gt;TTYP&#45;STRING_TABLE</title>
<path fill="none" stroke="black" d="M290.17,-359.96C353.58,-350.44 432.44,-338.05 504.24,-325.67"/>
<polygon fill="black" stroke="black" points="505.06,-329.07 514.32,-323.92 503.87,-322.18 505.06,-329.07"/>
</g>
<!-- CLAS&#45;CX_AMDP_EXECUTION_FAILED&#45;&gt;CLAS&#45;CX_AMDP_EXECUTION_ERROR -->
<g id="edge6" class="edge">
<title>CLAS&#45;CX_AMDP_EXECUTION_FAILED&#45;&gt;CLAS&#45;CX_AMDP_EXECUTION_ERROR</title>
<path fill="none" stroke="black" d="M167.85,-324.1C167.85,-331.79 167.85,-341.05 167.85,-349.67"/>
<polygon fill="black" stroke="black" points="164.35,-349.7 167.85,-359.7 171.35,-349.7 164.35,-349.7"/>
</g>
<!-- CLAS&#45;CX_AMDP_EXECUTION_FAILED&#45;&gt;DTEL&#45;SOTR_CONC -->
<g id="edge5" class="edge">
<title>CLAS&#45;CX_AMDP_EXECUTION_FAILED&#45;&gt;DTEL&#45;SOTR_CONC</title>
<path fill="none" stroke="black" d="M163.12,-287.85C152.9,-250.75 128.65,-162.81 116.32,-118.1"/>
<polygon fill="black" stroke="black" points="119.63,-116.94 113.6,-108.23 112.89,-118.8 119.63,-116.94"/>
</g>
<!-- CLAS&#45;CX_DYNAMIC_CHECK -->
<g id="node4" class="node">
<title>CLAS&#45;CX_DYNAMIC_CHECK</title>
<g id="a_node4"><a xlink:href="./CLAS_CX_DYNAMIC_CHECK.html" xlink:title="CLAS&#45;CX_DYNAMIC_CHECK">
<polygon fill="none" stroke="green" points="510.04,-252 305.66,-252 305.66,-216 510.04,-216 510.04,-252"/>
<text text-anchor="middle" x="407.85" y="-229.8" font-family="Times,serif" font-size="14.00">CLAS&#45;CX_DYNAMIC_CHECK</text>
</a>
</g>
</g>
<!-- CLAS&#45;CX_AMDP_ERROR&#45;&gt;CLAS&#45;CX_DYNAMIC_CHECK -->
<g id="edge12" class="edge">
<title>CLAS&#45;CX_AMDP_ERROR&#45;&gt;CLAS&#45;CX_DYNAMIC_CHECK</title>
<path fill="none" stroke="black" d="M407.85,-287.7C407.85,-279.98 407.85,-270.71 407.85,-262.11"/>
<polygon fill="black" stroke="black" points="411.35,-262.1 407.85,-252.1 404.35,-262.1 411.35,-262.1"/>
</g>
<!-- CLAS&#45;CX_AMDP_ERROR&#45;&gt;DTEL&#45;SOTR_CONC -->
<g id="edge11" class="edge">
<title>CLAS&#45;CX_AMDP_ERROR&#45;&gt;DTEL&#45;SOTR_CONC</title>
<path fill="none" stroke="black" d="M365.61,-287.97C344.28,-278.6 318.42,-266.03 296.85,-252 232.89,-210.39 167.21,-149.04 132.97,-115.36"/>
<polygon fill="black" stroke="black" points="135.32,-112.76 125.75,-108.21 130.39,-117.73 135.32,-112.76"/>
</g>
<!-- CLAS&#45;CX_ROOT -->
<g id="node5" class="node">
<title>CLAS&#45;CX_ROOT</title>
<g id="a_node5"><a xlink:href="./CLAS_CX_ROOT.html" xlink:title="CLAS&#45;CX_ROOT">
<polygon fill="none" stroke="green" points="468.34,-180 347.37,-180 347.37,-144 468.34,-144 468.34,-180"/>
<text text-anchor="middle" x="407.85" y="-157.8" font-family="Times,serif" font-size="14.00">CLAS&#45;CX_ROOT</text>
</a>
</g>
</g>
<!-- CLAS&#45;CX_DYNAMIC_CHECK&#45;&gt;CLAS&#45;CX_ROOT -->
<g id="edge13" class="edge">
<title>CLAS&#45;CX_DYNAMIC_CHECK&#45;&gt;CLAS&#45;CX_ROOT</title>
<path fill="none" stroke="black" d="M407.85,-215.7C407.85,-207.98 407.85,-198.71 407.85,-190.11"/>
<polygon fill="black" stroke="black" points="411.35,-190.1 407.85,-180.1 404.35,-190.1 411.35,-190.1"/>
</g>
<!-- INTF&#45;IF_SERIALIZABLE_OBJECT -->
<g id="node6" class="node">
<title>INTF&#45;IF_SERIALIZABLE_OBJECT</title>
<g id="a_node6"><a xlink:href="./INTF_IF_SERIALIZABLE_OBJECT.html" xlink:title="INTF&#45;IF_SERIALIZABLE_OBJECT">
<polygon fill="none" stroke="green" points="857.14,-108 628.56,-108 628.56,-72 857.14,-72 857.14,-108"/>
<text text-anchor="middle" x="742.85" y="-85.8" font-family="Times,serif" font-size="14.00">INTF&#45;IF_SERIALIZABLE_OBJECT</text>
</a>
</g>
</g>
<!-- CLAS&#45;CX_ROOT&#45;&gt;INTF&#45;IF_SERIALIZABLE_OBJECT -->
<g id="edge18" class="edge">
<title>CLAS&#45;CX_ROOT&#45;&gt;INTF&#45;IF_SERIALIZABLE_OBJECT</title>
<path fill="none" stroke="black" d="M468.52,-148.32C519.49,-137.67 593.13,-122.29 651.28,-110.14"/>
<polygon fill="black" stroke="black" points="652.13,-113.53 661.21,-108.06 650.7,-106.68 652.13,-113.53"/>
</g>
<!-- INTF&#45;IF_MESSAGE -->
<g id="node7" class="node">
<title>INTF&#45;IF_MESSAGE</title>
<g id="a_node7"><a xlink:href="./INTF_IF_MESSAGE.html" xlink:title="INTF&#45;IF_MESSAGE">
<polygon fill="none" stroke="green" points="331.89,-108 195.82,-108 195.82,-72 331.89,-72 331.89,-108"/>
<text text-anchor="middle" x="263.85" y="-85.8" font-family="Times,serif" font-size="14.00">INTF&#45;IF_MESSAGE</text>
</a>
</g>
</g>
<!-- CLAS&#45;CX_ROOT&#45;&gt;INTF&#45;IF_MESSAGE -->
<g id="edge17" class="edge">
<title>CLAS&#45;CX_ROOT&#45;&gt;INTF&#45;IF_MESSAGE</title>
<path fill="none" stroke="black" d="M372.62,-143.88C353.27,-134.47 329.08,-122.71 308.42,-112.67"/>
<polygon fill="black" stroke="black" points="309.74,-109.41 299.21,-108.19 306.68,-115.71 309.74,-109.41"/>
</g>
<!-- DTEL&#45;SYREPID -->
<g id="node8" class="node">
<title>DTEL&#45;SYREPID</title>
<g id="a_node8"><a xlink:href="./DTEL_SYREPID.html" xlink:title="DTEL&#45;SYREPID">
<polygon fill="none" stroke="green" points="465.1,-108 350.6,-108 350.6,-72 465.1,-72 465.1,-108"/>
<text text-anchor="middle" x="407.85" y="-85.8" font-family="Times,serif" font-size="14.00">DTEL&#45;SYREPID</text>
</a>
</g>
</g>
<!-- CLAS&#45;CX_ROOT&#45;&gt;DTEL&#45;SYREPID -->
<g id="edge16" class="edge">
<title>CLAS&#45;CX_ROOT&#45;&gt;DTEL&#45;SYREPID</title>
<path fill="none" stroke="black" d="M407.85,-143.7C407.85,-135.98 407.85,-126.71 407.85,-118.11"/>
<polygon fill="black" stroke="black" points="411.35,-118.1 407.85,-108.1 404.35,-118.1 411.35,-118.1"/>
</g>
<!-- DTEL&#45;S380ERRID -->
<g id="node10" class="node">
<title>DTEL&#45;S380ERRID</title>
<g id="a_node10"><a xlink:href="./DTEL_S380ERRID.html" xlink:title="DTEL&#45;S380ERRID">
<polygon fill="none" stroke="yellow" points="610.55,-108 483.15,-108 483.15,-72 610.55,-72 610.55,-108"/>
<text text-anchor="middle" x="546.85" y="-85.8" font-family="Times,serif" font-size="14.00">DTEL&#45;S380ERRID</text>
</a>
</g>
</g>
<!-- CLAS&#45;CX_ROOT&#45;&gt;DTEL&#45;S380ERRID -->
<g id="edge15" class="edge">
<title>CLAS&#45;CX_ROOT&#45;&gt;DTEL&#45;S380ERRID</title>
<path fill="none" stroke="black" d="M441.85,-143.88C460.45,-134.51 483.68,-122.81 503.56,-112.8"/>
<polygon fill="black" stroke="black" points="505.36,-115.81 512.72,-108.19 502.21,-109.56 505.36,-115.81"/>
</g>
<!-- CLAS&#45;CX_ROOT&#45;&gt;DTEL&#45;SOTR_CONC -->
<g id="edge14" class="edge">
<title>CLAS&#45;CX_ROOT&#45;&gt;DTEL&#45;SOTR_CONC</title>
<path fill="none" stroke="black" d="M347.34,-146.83C301.35,-136.07 237.69,-121.16 187.71,-109.46"/>
<polygon fill="black" stroke="black" points="188.44,-106.04 177.9,-107.17 186.84,-112.85 188.44,-106.04"/>
</g>
<!-- DOMA&#45;PROGRAMM -->
<g id="node9" class="node">
<title>DOMA&#45;PROGRAMM</title>
<g id="a_node9"><a xlink:href="./DOMA_PROGRAMM.html" xlink:title="DOMA&#45;PROGRAMM">
<polygon fill="none" stroke="yellow" points="470.44,-36 325.26,-36 325.26,0 470.44,0 470.44,-36"/>
<text text-anchor="middle" x="397.85" y="-13.8" font-family="Times,serif" font-size="14.00">DOMA&#45;PROGRAMM</text>
</a>
</g>
</g>
<!-- DTEL&#45;SYREPID&#45;&gt;DOMA&#45;PROGRAMM -->
<g id="edge19" class="edge">
<title>DTEL&#45;SYREPID&#45;&gt;DOMA&#45;PROGRAMM</title>
<path fill="none" stroke="black" d="M405.38,-71.7C404.28,-63.98 402.95,-54.71 401.72,-46.11"/>
<polygon fill="black" stroke="black" points="405.17,-45.51 400.29,-36.1 398.24,-46.5 405.17,-45.51"/>
</g>
<!-- DOMA&#45;SYCHAR30 -->
<g id="node11" class="node">
<title>DOMA&#45;SYCHAR30</title>
<g id="a_node11"><a xlink:href="./DOMA_SYCHAR30.html" xlink:title="DOMA&#45;SYCHAR30">
<polygon fill="none" stroke="yellow" points="623.05,-36 488.65,-36 488.65,0 623.05,0 623.05,-36"/>
<text text-anchor="middle" x="555.85" y="-13.8" font-family="Times,serif" font-size="14.00">DOMA&#45;SYCHAR30</text>
</a>
</g>
</g>
<!-- DTEL&#45;S380ERRID&#45;&gt;DOMA&#45;SYCHAR30 -->
<g id="edge20" class="edge">
<title>DTEL&#45;S380ERRID&#45;&gt;DOMA&#45;SYCHAR30</title>
<path fill="none" stroke="black" d="M549.08,-71.7C550.07,-63.98 551.26,-54.71 552.37,-46.11"/>
<polygon fill="black" stroke="black" points="555.85,-46.47 553.65,-36.1 548.91,-45.58 555.85,-46.47"/>
</g>
<!-- DOMA&#45;SYSUUID_C -->
<g id="node13" class="node">
<title>DOMA&#45;SYSUUID_C</title>
<g id="a_node13"><a xlink:href="./DOMA_SYSUUID_C.html" xlink:title="DOMA&#45;SYSUUID_C">
<polygon fill="none" stroke="yellow" points="179.27,-36 38.44,-36 38.44,0 179.27,0 179.27,-36"/>
<text text-anchor="middle" x="108.85" y="-13.8" font-family="Times,serif" font-size="14.00">DOMA&#45;SYSUUID_C</text>
</a>
</g>
</g>
<!-- DTEL&#45;SOTR_CONC&#45;&gt;DOMA&#45;SYSUUID_C -->
<g id="edge21" class="edge">
<title>DTEL&#45;SOTR_CONC&#45;&gt;DOMA&#45;SYSUUID_C</title>
<path fill="none" stroke="black" d="M108.85,-71.7C108.85,-63.98 108.85,-54.71 108.85,-46.11"/>
<polygon fill="black" stroke="black" points="112.35,-46.1 108.85,-36.1 105.35,-46.1 112.35,-46.1"/>
</g>
</g>
</svg>
