<?xml version="1.0" encoding="UTF-8" standalone="no"?>
<!DOCTYPE svg PUBLIC "-//W3C//DTD SVG 1.1//EN"
 "http://www.w3.org/Graphics/SVG/1.1/DTD/svg11.dtd">
<!-- Generated by graphviz version 2.47.3 (20210619.1520)
 -->
<!-- Title: G Pages: 1 -->
<svg width="871pt" height="404pt"
 viewBox="0.00 0.00 870.90 404.00" xmlns="http://www.w3.org/2000/svg" xmlns:xlink="http://www.w3.org/1999/xlink">
<g id="graph0" class="graph" transform="scale(1 1) rotate(0) translate(4 400)">
<title>G</title>
<polygon fill="white" stroke="transparent" points="-4,4 -4,-400 866.9,-400 866.9,4 -4,4"/>
<!-- CLAS&#45;CX_AMDP_VERSION_ERROR -->
<g id="node1" class="node">
<title>CLAS&#45;CX_AMDP_VERSION_ERROR</title>
<g id="a_node1"><a xlink:href="./CLAS_CX_AMDP_VERSION_ERROR.html" xlink:title="CLAS&#45;CX_AMDP_VERSION_ERROR">
<polygon fill="none" stroke="green" points="292.9,-396 48.61,-396 48.61,-360 292.9,-360 292.9,-396"/>
<text text-anchor="middle" x="170.76" y="-373.8" font-family="Times,serif" font-size="14.00">CLAS&#45;CX_AMDP_VERSION_ERROR</text>
</a>
</g>
</g>
<!-- CLAS&#45;CX_AMDP_VERSION_MISMATCH -->
<g id="node2" class="node">
<title>CLAS&#45;CX_AMDP_VERSION_MISMATCH</title>
<g id="a_node2"><a xlink:href="./CLAS_CX_AMDP_VERSION_MISMATCH.html" xlink:title="CLAS&#45;CX_AMDP_VERSION_MISMATCH">
<polygon fill="none" stroke="green" points="307.67,-324 33.85,-324 33.85,-288 307.67,-288 307.67,-324"/>
<text text-anchor="middle" x="170.76" y="-301.8" font-family="Times,serif" font-size="14.00">CLAS&#45;CX_AMDP_VERSION_MISMATCH</text>
</a>
</g>
</g>
<!-- CLAS&#45;CX_AMDP_VERSION_ERROR&#45;&gt;CLAS&#45;CX_AMDP_VERSION_MISMATCH -->
<g id="edge3" class="edge">
<title>CLAS&#45;CX_AMDP_VERSION_ERROR&#45;&gt;CLAS&#45;CX_AMDP_VERSION_MISMATCH</title>
<path fill="none" stroke="black" d="M158.92,-359.7C157.33,-351.98 156.88,-342.71 157.56,-334.11"/>
<polygon fill="black" stroke="black" points="161.05,-334.49 158.97,-324.1 154.11,-333.52 161.05,-334.49"/>
</g>
<!-- CLAS&#45;CX_AMDP_VERSION_ERROR&#45;&gt;CLAS&#45;CX_AMDP_VERSION_MISMATCH -->
<g id="edge8" class="edge">
<title>CLAS&#45;CX_AMDP_VERSION_ERROR&#45;&gt;CLAS&#45;CX_AMDP_VERSION_MISMATCH</title>
<path fill="none" stroke="black" d="M182.59,-359.7C184.18,-351.98 184.63,-342.71 183.95,-334.11"/>
<polygon fill="black" stroke="black" points="187.4,-333.52 182.55,-324.1 180.46,-334.49 187.4,-333.52"/>
</g>
<!-- CLAS&#45;CX_AMDP_ERROR -->
<g id="node3" class="node">
<title>CLAS&#45;CX_AMDP_ERROR</title>
<g id="a_node3"><a xlink:href="./CLAS_CX_AMDP_ERROR.html" xlink:title="CLAS&#45;CX_AMDP_ERROR">
<polygon fill="none" stroke="yellow" points="502.25,-324 325.26,-324 325.26,-288 502.25,-288 502.25,-324"/>
<text text-anchor="middle" x="413.76" y="-301.8" font-family="Times,serif" font-size="14.00">CLAS&#45;CX_AMDP_ERROR</text>
</a>
</g>
</g>
<!-- CLAS&#45;CX_AMDP_VERSION_ERROR&#45;&gt;CLAS&#45;CX_AMDP_ERROR -->
<g id="edge2" class="edge">
<title>CLAS&#45;CX_AMDP_VERSION_ERROR&#45;&gt;CLAS&#45;CX_AMDP_ERROR</title>
<path fill="none" stroke="black" d="M224,-359.97C257.64,-349.97 301.55,-337.3 338.68,-326.85"/>
<polygon fill="black" stroke="black" points="339.78,-330.18 348.46,-324.11 337.89,-323.44 339.78,-330.18"/>
</g>
<!-- CLAS&#45;CX_AMDP_VERSION_ERROR&#45;&gt;CLAS&#45;CX_AMDP_ERROR -->
<g id="edge7" class="edge">
<title>CLAS&#45;CX_AMDP_VERSION_ERROR&#45;&gt;CLAS&#45;CX_AMDP_ERROR</title>
<path fill="none" stroke="black" d="M235.78,-359.97C271.37,-350.01 315.23,-337.41 350.54,-326.99"/>
<polygon fill="black" stroke="black" points="351.66,-330.31 360.25,-324.11 349.67,-323.59 351.66,-330.31"/>
</g>
<!-- DTEL&#45;SOTR_CONC -->
<g id="node12" class="node">
<title>DTEL&#45;SOTR_CONC</title>
<g id="a_node12"><a xlink:href="./DTEL_SOTR_CONC.html" xlink:title="DTEL&#45;SOTR_CONC">
<polygon fill="none" stroke="yellow" points="183.84,-108 45.67,-108 45.67,-72 183.84,-72 183.84,-108"/>
<text text-anchor="middle" x="114.76" y="-85.8" font-family="Times,serif" font-size="14.00">DTEL&#45;SOTR_CONC</text>
</a>
</g>
</g>
<!-- CLAS&#45;CX_AMDP_VERSION_ERROR&#45;&gt;DTEL&#45;SOTR_CONC -->
<g id="edge1" class="edge">
<title>CLAS&#45;CX_AMDP_VERSION_ERROR&#45;&gt;DTEL&#45;SOTR_CONC</title>
<path fill="none" stroke="black" d="M64.02,-359.98C44.93,-352.12 27.44,-340.67 15.76,-324 -31.77,-256.19 41.68,-159.9 85.81,-115.35"/>
<polygon fill="black" stroke="black" points="88.46,-117.65 93.14,-108.15 83.55,-112.66 88.46,-117.65"/>
</g>
<!-- CLAS&#45;CX_AMDP_VERSION_ERROR&#45;&gt;DTEL&#45;SOTR_CONC -->
<g id="edge6" class="edge">
<title>CLAS&#45;CX_AMDP_VERSION_ERROR&#45;&gt;DTEL&#45;SOTR_CONC</title>
<path fill="none" stroke="black" d="M81.56,-359.98C62.93,-352.12 45.44,-340.67 33.76,-324 -13.57,-256.47 59.07,-160.7 95.88,-115.91"/>
<polygon fill="black" stroke="black" points="98.62,-118.09 102.3,-108.15 93.23,-113.62 98.62,-118.09"/>
</g>
<!-- CLAS&#45;CX_AMDP_VERSION_MISMATCH&#45;&gt;CLAS&#45;CX_AMDP_VERSION_ERROR -->
<g id="edge5" class="edge">
<title>CLAS&#45;CX_AMDP_VERSION_MISMATCH&#45;&gt;CLAS&#45;CX_AMDP_VERSION_ERROR</title>
<path fill="none" stroke="black" d="M170.76,-324.1C170.76,-331.79 170.76,-341.05 170.76,-349.67"/>
<polygon fill="black" stroke="black" points="167.26,-349.7 170.76,-359.7 174.26,-349.7 167.26,-349.7"/>
</g>
<!-- CLAS&#45;CX_AMDP_VERSION_MISMATCH&#45;&gt;DTEL&#45;SOTR_CONC -->
<g id="edge4" class="edge">
<title>CLAS&#45;CX_AMDP_VERSION_MISMATCH&#45;&gt;DTEL&#45;SOTR_CONC</title>
<path fill="none" stroke="black" d="M166.27,-287.85C156.56,-250.75 133.55,-162.81 121.85,-118.1"/>
<polygon fill="black" stroke="black" points="125.18,-117.02 119.26,-108.23 118.41,-118.79 125.18,-117.02"/>
</g>
<!-- CLAS&#45;CX_DYNAMIC_CHECK -->
<g id="node4" class="node">
<title>CLAS&#45;CX_DYNAMIC_CHECK</title>
<g id="a_node4"><a xlink:href="./CLAS_CX_DYNAMIC_CHECK.html" xlink:title="CLAS&#45;CX_DYNAMIC_CHECK">
<polygon fill="none" stroke="green" points="515.94,-252 311.57,-252 311.57,-216 515.94,-216 515.94,-252"/>
<text text-anchor="middle" x="413.76" y="-229.8" font-family="Times,serif" font-size="14.00">CLAS&#45;CX_DYNAMIC_CHECK</text>
</a>
</g>
</g>
<!-- CLAS&#45;CX_AMDP_ERROR&#45;&gt;CLAS&#45;CX_DYNAMIC_CHECK -->
<g id="edge10" class="edge">
<title>CLAS&#45;CX_AMDP_ERROR&#45;&gt;CLAS&#45;CX_DYNAMIC_CHECK</title>
<path fill="none" stroke="black" d="M413.76,-287.7C413.76,-279.98 413.76,-270.71 413.76,-262.11"/>
<polygon fill="black" stroke="black" points="417.26,-262.1 413.76,-252.1 410.26,-262.1 417.26,-262.1"/>
</g>
<!-- CLAS&#45;CX_AMDP_ERROR&#45;&gt;DTEL&#45;SOTR_CONC -->
<g id="edge9" class="edge">
<title>CLAS&#45;CX_AMDP_ERROR&#45;&gt;DTEL&#45;SOTR_CONC</title>
<path fill="none" stroke="black" d="M371.51,-287.97C350.18,-278.6 324.32,-266.03 302.76,-252 238.8,-210.39 173.11,-149.04 138.87,-115.36"/>
<polygon fill="black" stroke="black" points="141.22,-112.76 131.66,-108.21 136.3,-117.73 141.22,-112.76"/>
</g>
<!-- CLAS&#45;CX_ROOT -->
<g id="node5" class="node">
<title>CLAS&#45;CX_ROOT</title>
<g id="a_node5"><a xlink:href="./CLAS_CX_ROOT.html" xlink:title="CLAS&#45;CX_ROOT">
<polygon fill="none" stroke="green" points="474.24,-180 353.27,-180 353.27,-144 474.24,-144 474.24,-180"/>
<text text-anchor="middle" x="413.76" y="-157.8" font-family="Times,serif" font-size="14.00">CLAS&#45;CX_ROOT</text>
</a>
</g>
</g>
<!-- CLAS&#45;CX_DYNAMIC_CHECK&#45;&gt;CLAS&#45;CX_ROOT -->
<g id="edge11" class="edge">
<title>CLAS&#45;CX_DYNAMIC_CHECK&#45;&gt;CLAS&#45;CX_ROOT</title>
<path fill="none" stroke="black" d="M413.76,-215.7C413.76,-207.98 413.76,-198.71 413.76,-190.11"/>
<polygon fill="black" stroke="black" points="417.26,-190.1 413.76,-180.1 410.26,-190.1 417.26,-190.1"/>
</g>
<!-- INTF&#45;IF_SERIALIZABLE_OBJECT -->
<g id="node6" class="node">
<title>INTF&#45;IF_SERIALIZABLE_OBJECT</title>
<g id="a_node6"><a xlink:href="./INTF_IF_SERIALIZABLE_OBJECT.html" xlink:title="INTF&#45;IF_SERIALIZABLE_OBJECT">
<polygon fill="none" stroke="green" points="863.04,-108 634.47,-108 634.47,-72 863.04,-72 863.04,-108"/>
<text text-anchor="middle" x="748.76" y="-85.8" font-family="Times,serif" font-size="14.00">INTF&#45;IF_SERIALIZABLE_OBJECT</text>
</a>
</g>
</g>
<!-- CLAS&#45;CX_ROOT&#45;&gt;INTF&#45;IF_SERIALIZABLE_OBJECT -->
<g id="edge16" class="edge">
<title>CLAS&#45;CX_ROOT&#45;&gt;INTF&#45;IF_SERIALIZABLE_OBJECT</title>
<path fill="none" stroke="black" d="M474.42,-148.32C525.4,-137.67 599.03,-122.29 657.18,-110.14"/>
<polygon fill="black" stroke="black" points="658.04,-113.53 667.11,-108.06 656.61,-106.68 658.04,-113.53"/>
</g>
<!-- INTF&#45;IF_MESSAGE -->
<g id="node7" class="node">
<title>INTF&#45;IF_MESSAGE</title>
<g id="a_node7"><a xlink:href="./INTF_IF_MESSAGE.html" xlink:title="INTF&#45;IF_MESSAGE">
<polygon fill="none" stroke="green" points="337.79,-108 201.72,-108 201.72,-72 337.79,-72 337.79,-108"/>
<text text-anchor="middle" x="269.76" y="-85.8" font-family="Times,serif" font-size="14.00">INTF&#45;IF_MESSAGE</text>
</a>
</g>
</g>
<!-- CLAS&#45;CX_ROOT&#45;&gt;INTF&#45;IF_MESSAGE -->
<g id="edge15" class="edge">
<title>CLAS&#45;CX_ROOT&#45;&gt;INTF&#45;IF_MESSAGE</title>
<path fill="none" stroke="black" d="M378.53,-143.88C359.18,-134.47 334.98,-122.71 314.33,-112.67"/>
<polygon fill="black" stroke="black" points="315.64,-109.41 305.12,-108.19 312.58,-115.71 315.64,-109.41"/>
</g>
<!-- DTEL&#45;SYREPID -->
<g id="node8" class="node">
<title>DTEL&#45;SYREPID</title>
<g id="a_node8"><a xlink:href="./DTEL_SYREPID.html" xlink:title="DTEL&#45;SYREPID">
<polygon fill="none" stroke="green" points="471.01,-108 356.5,-108 356.5,-72 471.01,-72 471.01,-108"/>
<text text-anchor="middle" x="413.76" y="-85.8" font-family="Times,serif" font-size="14.00">DTEL&#45;SYREPID</text>
</a>
</g>
</g>
<!-- CLAS&#45;CX_ROOT&#45;&gt;DTEL&#45;SYREPID -->
<g id="edge14" class="edge">
<title>CLAS&#45;CX_ROOT&#45;&gt;DTEL&#45;SYREPID</title>
<path fill="none" stroke="black" d="M413.76,-143.7C413.76,-135.98 413.76,-126.71 413.76,-118.11"/>
<polygon fill="black" stroke="black" points="417.26,-118.1 413.76,-108.1 410.26,-118.1 417.26,-118.1"/>
</g>
<!-- DTEL&#45;S380ERRID -->
<g id="node10" class="node">
<title>DTEL&#45;S380ERRID</title>
<g id="a_node10"><a xlink:href="./DTEL_S380ERRID.html" xlink:title="DTEL&#45;S380ERRID">
<polygon fill="none" stroke="yellow" points="616.46,-108 489.05,-108 489.05,-72 616.46,-72 616.46,-108"/>
<text text-anchor="middle" x="552.76" y="-85.8" font-family="Times,serif" font-size="14.00">DTEL&#45;S380ERRID</text>
</a>
</g>
</g>
<!-- CLAS&#45;CX_ROOT&#45;&gt;DTEL&#45;S380ERRID -->
<g id="edge13" class="edge">
<title>CLAS&#45;CX_ROOT&#45;&gt;DTEL&#45;S380ERRID</title>
<path fill="none" stroke="black" d="M447.76,-143.88C466.35,-134.51 489.58,-122.81 509.46,-112.8"/>
<polygon fill="black" stroke="black" points="511.26,-115.81 518.62,-108.19 508.12,-109.56 511.26,-115.81"/>
</g>
<!-- CLAS&#45;CX_ROOT&#45;&gt;DTEL&#45;SOTR_CONC -->
<g id="edge12" class="edge">
<title>CLAS&#45;CX_ROOT&#45;&gt;DTEL&#45;SOTR_CONC</title>
<path fill="none" stroke="black" d="M353.25,-146.83C307.25,-136.07 243.59,-121.16 193.61,-109.46"/>
<polygon fill="black" stroke="black" points="194.34,-106.04 183.81,-107.17 192.75,-112.85 194.34,-106.04"/>
</g>
<!-- DOMA&#45;PROGRAMM -->
<g id="node9" class="node">
<title>DOMA&#45;PROGRAMM</title>
<g id="a_node9"><a xlink:href="./DOMA_PROGRAMM.html" xlink:title="DOMA&#45;PROGRAMM">
<polygon fill="none" stroke="yellow" points="476.34,-36 331.17,-36 331.17,0 476.34,0 476.34,-36"/>
<text text-anchor="middle" x="403.76" y="-13.8" font-family="Times,serif" font-size="14.00">DOMA&#45;PROGRAMM</text>
</a>
</g>
</g>
<!-- DTEL&#45;SYREPID&#45;&gt;DOMA&#45;PROGRAMM -->
<g id="edge17" class="edge">
<title>DTEL&#45;SYREPID&#45;&gt;DOMA&#45;PROGRAMM</title>
<path fill="none" stroke="black" d="M411.28,-71.7C410.18,-63.98 408.86,-54.71 407.63,-46.11"/>
<polygon fill="black" stroke="black" points="411.08,-45.51 406.2,-36.1 404.15,-46.5 411.08,-45.51"/>
</g>
<!-- DOMA&#45;SYCHAR30 -->
<g id="node11" class="node">
<title>DOMA&#45;SYCHAR30</title>
<g id="a_node11"><a xlink:href="./DOMA_SYCHAR30.html" xlink:title="DOMA&#45;SYCHAR30">
<polygon fill="none" stroke="yellow" points="628.96,-36 494.55,-36 494.55,0 628.96,0 628.96,-36"/>
<text text-anchor="middle" x="561.76" y="-13.8" font-family="Times,serif" font-size="14.00">DOMA&#45;SYCHAR30</text>
</a>
</g>
</g>
<!-- DTEL&#45;S380ERRID&#45;&gt;DOMA&#45;SYCHAR30 -->
<g id="edge18" class="edge">
<title>DTEL&#45;S380ERRID&#45;&gt;DOMA&#45;SYCHAR30</title>
<path fill="none" stroke="black" d="M554.98,-71.7C555.97,-63.98 557.16,-54.71 558.27,-46.11"/>
<polygon fill="black" stroke="black" points="561.75,-46.47 559.56,-36.1 554.81,-45.58 561.75,-46.47"/>
</g>
<!-- DOMA&#45;SYSUUID_C -->
<g id="node13" class="node">
<title>DOMA&#45;SYSUUID_C</title>
<g id="a_node13"><a xlink:href="./DOMA_SYSUUID_C.html" xlink:title="DOMA&#45;SYSUUID_C">
<polygon fill="none" stroke="yellow" points="185.17,-36 44.34,-36 44.34,0 185.17,0 185.17,-36"/>
<text text-anchor="middle" x="114.76" y="-13.8" font-family="Times,serif" font-size="14.00">DOMA&#45;SYSUUID_C</text>
</a>
</g>
</g>
<!-- DTEL&#45;SOTR_CONC&#45;&gt;DOMA&#45;SYSUUID_C -->
<g id="edge19" class="edge">
<title>DTEL&#45;SOTR_CONC&#45;&gt;DOMA&#45;SYSUUID_C</title>
<path fill="none" stroke="black" d="M114.76,-71.7C114.76,-63.98 114.76,-54.71 114.76,-46.11"/>
<polygon fill="black" stroke="black" points="118.26,-46.1 114.76,-36.1 111.26,-46.1 118.26,-46.1"/>
</g>
</g>
</svg>
