<?xml version="1.0" encoding="UTF-8" standalone="no"?>
<!DOCTYPE svg PUBLIC "-//W3C//DTD SVG 1.1//EN"
 "http://www.w3.org/Graphics/SVG/1.1/DTD/svg11.dtd">
<!-- Generated by graphviz version 2.47.3 (20210619.1520)
 -->
<!-- Title: G Pages: 1 -->
<svg width="2131pt" height="980pt"
 viewBox="0.00 0.00 2131.43 980.00" xmlns="http://www.w3.org/2000/svg" xmlns:xlink="http://www.w3.org/1999/xlink">
<g id="graph0" class="graph" transform="scale(1 1) rotate(0) translate(4 976)">
<title>G</title>
<polygon fill="white" stroke="transparent" points="-4,4 -4,-976 2127.43,-976 2127.43,4 -4,4"/>
<!-- CLAS&#45;CL_XCO_CP_MESSAGE_TYPE_F -->
<g id="node1" class="node">
<title>CLAS&#45;CL_XCO_CP_MESSAGE_TYPE_F</title>
<g id="a_node1"><a xlink:href="./CLAS_CL_XCO_CP_MESSAGE_TYPE_F.html" xlink:title="CLAS&#45;CL_XCO_CP_MESSAGE_TYPE_F">
<polygon fill="none" stroke="green" points="1466.33,-972 1202.13,-972 1202.13,-936 1466.33,-936 1466.33,-972"/>
<text text-anchor="middle" x="1334.23" y="-949.8" font-family="Times,serif" font-size="14.00">CLAS&#45;CL_XCO_CP_MESSAGE_TYPE_F</text>
</a>
</g>
</g>
<!-- CLAS&#45;CL_XCO_MESSAGE_TYPE -->
<g id="node2" class="node">
<title>CLAS&#45;CL_XCO_MESSAGE_TYPE</title>
<g id="a_node2"><a xlink:href="./CLAS_CL_XCO_MESSAGE_TYPE.html" xlink:title="CLAS&#45;CL_XCO_MESSAGE_TYPE">
<polygon fill="none" stroke="green" points="1224.93,-900 999.53,-900 999.53,-864 1224.93,-864 1224.93,-900"/>
<text text-anchor="middle" x="1112.23" y="-877.8" font-family="Times,serif" font-size="14.00">CLAS&#45;CL_XCO_MESSAGE_TYPE</text>
</a>
</g>
</g>
<!-- CLAS&#45;CL_XCO_CP_MESSAGE_TYPE_F&#45;&gt;CLAS&#45;CL_XCO_MESSAGE_TYPE -->
<g id="edge2" class="edge">
<title>CLAS&#45;CL_XCO_CP_MESSAGE_TYPE_F&#45;&gt;CLAS&#45;CL_XCO_MESSAGE_TYPE</title>
<path fill="none" stroke="black" d="M1274.32,-935.97C1241.99,-926.1 1202.32,-913.62 1170.28,-903.25"/>
<polygon fill="black" stroke="black" points="1171.19,-899.87 1160.6,-900.11 1169.03,-906.53 1171.19,-899.87"/>
</g>
<!-- CLAS&#45;CL_XCO_CP_MESSAGE_TYPE_F&#45;&gt;CLAS&#45;CL_XCO_MESSAGE_TYPE -->
<g id="edge73" class="edge">
<title>CLAS&#45;CL_XCO_CP_MESSAGE_TYPE_F&#45;&gt;CLAS&#45;CL_XCO_MESSAGE_TYPE</title>
<path fill="none" stroke="black" d="M1286.09,-935.97C1255.71,-926.06 1216.03,-913.51 1182.22,-903.12"/>
<polygon fill="black" stroke="black" points="1182.98,-899.69 1172.39,-900.11 1180.93,-906.39 1182.98,-899.69"/>
</g>
<!-- CLAS&#45;XCO_CP_MESSAGE -->
<g id="node40" class="node">
<title>CLAS&#45;XCO_CP_MESSAGE</title>
<g id="a_node40"><a xlink:href="./CLAS_XCO_CP_MESSAGE.html" xlink:title="CLAS&#45;XCO_CP_MESSAGE">
<polygon fill="none" stroke="green" points="1425.66,-900 1242.79,-900 1242.79,-864 1425.66,-864 1425.66,-900"/>
<text text-anchor="middle" x="1334.23" y="-877.8" font-family="Times,serif" font-size="14.00">CLAS&#45;XCO_CP_MESSAGE</text>
</a>
</g>
</g>
<!-- CLAS&#45;CL_XCO_CP_MESSAGE_TYPE_F&#45;&gt;CLAS&#45;XCO_CP_MESSAGE -->
<g id="edge1" class="edge">
<title>CLAS&#45;CL_XCO_CP_MESSAGE_TYPE_F&#45;&gt;CLAS&#45;XCO_CP_MESSAGE</title>
<path fill="none" stroke="black" d="M1322.4,-935.7C1320.81,-927.98 1320.35,-918.71 1321.04,-910.11"/>
<polygon fill="black" stroke="black" points="1324.52,-910.49 1322.44,-900.1 1317.59,-909.52 1324.52,-910.49"/>
</g>
<!-- CLAS&#45;CL_XCO_CP_MESSAGE_TYPE_F&#45;&gt;CLAS&#45;XCO_CP_MESSAGE -->
<g id="edge72" class="edge">
<title>CLAS&#45;CL_XCO_CP_MESSAGE_TYPE_F&#45;&gt;CLAS&#45;XCO_CP_MESSAGE</title>
<path fill="none" stroke="black" d="M1346.06,-935.7C1347.65,-927.98 1348.1,-918.71 1347.42,-910.11"/>
<polygon fill="black" stroke="black" points="1350.87,-909.52 1346.02,-900.1 1343.94,-910.49 1350.87,-909.52"/>
</g>
<!-- INTF&#45;IF_XCO_NEWS -->
<g id="node3" class="node">
<title>INTF&#45;IF_XCO_NEWS</title>
<g id="a_node3"><a xlink:href="./INTF_IF_XCO_NEWS.html" xlink:title="INTF&#45;IF_XCO_NEWS">
<polygon fill="none" stroke="green" points="1064.14,-828 916.32,-828 916.32,-792 1064.14,-792 1064.14,-828"/>
<text text-anchor="middle" x="990.23" y="-805.8" font-family="Times,serif" font-size="14.00">INTF&#45;IF_XCO_NEWS</text>
</a>
</g>
</g>
<!-- CLAS&#45;CL_XCO_MESSAGE_TYPE&#45;&gt;INTF&#45;IF_XCO_NEWS -->
<g id="edge5" class="edge">
<title>CLAS&#45;CL_XCO_MESSAGE_TYPE&#45;&gt;INTF&#45;IF_XCO_NEWS</title>
<path fill="none" stroke="black" d="M1082.38,-863.88C1066.28,-854.64 1046.23,-843.13 1028.94,-833.21"/>
<polygon fill="black" stroke="black" points="1030.6,-830.13 1020.19,-828.19 1027.12,-836.2 1030.6,-830.13"/>
</g>
<!-- DTEL&#45;SYMSGTY -->
<g id="node15" class="node">
<title>DTEL&#45;SYMSGTY</title>
<g id="a_node15"><a xlink:href="./DTEL_SYMSGTY.html" xlink:title="DTEL&#45;SYMSGTY">
<polygon fill="none" stroke="green" points="1614.04,-540 1490.42,-540 1490.42,-504 1614.04,-504 1614.04,-540"/>
<text text-anchor="middle" x="1552.23" y="-517.8" font-family="Times,serif" font-size="14.00">DTEL&#45;SYMSGTY</text>
</a>
</g>
</g>
<!-- CLAS&#45;CL_XCO_MESSAGE_TYPE&#45;&gt;DTEL&#45;SYMSGTY -->
<g id="edge3" class="edge">
<title>CLAS&#45;CL_XCO_MESSAGE_TYPE&#45;&gt;DTEL&#45;SYMSGTY</title>
<path fill="none" stroke="black" d="M1222.74,-863.96C1384.89,-837.41 1668.23,-784.52 1668.23,-739 1668.23,-739 1668.23,-739 1668.23,-665 1668.23,-624.55 1673.4,-608.43 1649.23,-576 1639.4,-562.81 1625.28,-552.51 1610.84,-544.65"/>
<polygon fill="black" stroke="black" points="1612.34,-541.49 1601.85,-540.06 1609.16,-547.72 1612.34,-541.49"/>
</g>
<!-- CLAS&#45;CL_XCO_ENUM_CONSTANT -->
<g id="node38" class="node">
<title>CLAS&#45;CL_XCO_ENUM_CONSTANT</title>
<g id="a_node38"><a xlink:href="./CLAS_CL_XCO_ENUM_CONSTANT.html" xlink:title="CLAS&#45;CL_XCO_ENUM_CONSTANT">
<polygon fill="none" stroke="yellow" points="878.47,-828 637.99,-828 637.99,-792 878.47,-792 878.47,-828"/>
<text text-anchor="middle" x="758.23" y="-805.8" font-family="Times,serif" font-size="14.00">CLAS&#45;CL_XCO_ENUM_CONSTANT</text>
</a>
</g>
</g>
<!-- CLAS&#45;CL_XCO_MESSAGE_TYPE&#45;&gt;CLAS&#45;CL_XCO_ENUM_CONSTANT -->
<g id="edge4" class="edge">
<title>CLAS&#45;CL_XCO_MESSAGE_TYPE&#45;&gt;CLAS&#45;CL_XCO_ENUM_CONSTANT</title>
<path fill="none" stroke="black" d="M1026.08,-863.97C974.16,-853.7 907.92,-840.6 854.31,-830"/>
<polygon fill="black" stroke="black" points="854.94,-826.56 844.45,-828.05 853.58,-833.42 854.94,-826.56"/>
</g>
<!-- TTYP&#45;SXCO_T_MESSAGES -->
<g id="node4" class="node">
<title>TTYP&#45;SXCO_T_MESSAGES</title>
<g id="a_node4"><a xlink:href="./TTYP_SXCO_T_MESSAGES.html" xlink:title="TTYP&#45;SXCO_T_MESSAGES">
<polygon fill="none" stroke="green" points="1206.38,-756 1018.08,-756 1018.08,-720 1206.38,-720 1206.38,-756"/>
<text text-anchor="middle" x="1112.23" y="-733.8" font-family="Times,serif" font-size="14.00">TTYP&#45;SXCO_T_MESSAGES</text>
</a>
</g>
</g>
<!-- INTF&#45;IF_XCO_NEWS&#45;&gt;TTYP&#45;SXCO_T_MESSAGES -->
<g id="edge6" class="edge">
<title>INTF&#45;IF_XCO_NEWS&#45;&gt;TTYP&#45;SXCO_T_MESSAGES</title>
<path fill="none" stroke="black" d="M1020.07,-791.88C1036.17,-782.64 1056.23,-771.13 1073.52,-761.21"/>
<polygon fill="black" stroke="black" points="1075.34,-764.2 1082.27,-756.19 1071.85,-758.13 1075.34,-764.2"/>
</g>
<!-- INTF&#45;IF_XCO_MESSAGE -->
<g id="node5" class="node">
<title>INTF&#45;IF_XCO_MESSAGE</title>
<g id="a_node5"><a xlink:href="./INTF_IF_XCO_MESSAGE.html" xlink:title="INTF&#45;IF_XCO_MESSAGE">
<polygon fill="none" stroke="green" points="1320.81,-684 1147.64,-684 1147.64,-648 1320.81,-648 1320.81,-684"/>
<text text-anchor="middle" x="1234.23" y="-661.8" font-family="Times,serif" font-size="14.00">INTF&#45;IF_XCO_MESSAGE</text>
</a>
</g>
</g>
<!-- TTYP&#45;SXCO_T_MESSAGES&#45;&gt;INTF&#45;IF_XCO_MESSAGE -->
<g id="edge7" class="edge">
<title>TTYP&#45;SXCO_T_MESSAGES&#45;&gt;INTF&#45;IF_XCO_MESSAGE</title>
<path fill="none" stroke="black" d="M1142.07,-719.88C1158.17,-710.64 1178.23,-699.13 1195.52,-689.21"/>
<polygon fill="black" stroke="black" points="1197.34,-692.2 1204.27,-684.19 1193.85,-686.13 1197.34,-692.2"/>
</g>
<!-- INTF&#45;IF_XCO_MESSAGE&#45;&gt;CLAS&#45;CL_XCO_MESSAGE_TYPE -->
<g id="edge13" class="edge">
<title>INTF&#45;IF_XCO_MESSAGE&#45;&gt;CLAS&#45;CL_XCO_MESSAGE_TYPE</title>
<path fill="none" stroke="black" d="M1232.99,-684.18C1231.12,-702.7 1226.49,-732.67 1215.23,-756 1196.14,-795.53 1162.03,-833.33 1138.32,-856.81"/>
<polygon fill="black" stroke="black" points="1135.75,-854.43 1131.02,-863.92 1140.63,-859.45 1135.75,-854.43"/>
</g>
<!-- INTF&#45;IF_XCO_MESSAGE&#45;&gt;INTF&#45;IF_XCO_NEWS -->
<g id="edge16" class="edge">
<title>INTF&#45;IF_XCO_MESSAGE&#45;&gt;INTF&#45;IF_XCO_NEWS</title>
<path fill="none" stroke="black" d="M1147.53,-677.74C1092.7,-686.31 1028.64,-700.18 1009.23,-720 993.47,-736.1 989.37,-761.87 988.83,-781.55"/>
<polygon fill="black" stroke="black" points="985.33,-781.77 988.85,-791.76 992.33,-781.75 985.33,-781.77"/>
</g>
<!-- INTF&#45;IF_T100_DYN_MSG -->
<g id="node6" class="node">
<title>INTF&#45;IF_T100_DYN_MSG</title>
<g id="a_node6"><a xlink:href="./INTF_IF_T100_DYN_MSG.html" xlink:title="INTF&#45;IF_T100_DYN_MSG">
<polygon fill="none" stroke="green" points="1640.14,-612 1464.32,-612 1464.32,-576 1640.14,-576 1640.14,-612"/>
<text text-anchor="middle" x="1552.23" y="-589.8" font-family="Times,serif" font-size="14.00">INTF&#45;IF_T100_DYN_MSG</text>
</a>
</g>
</g>
<!-- INTF&#45;IF_XCO_MESSAGE&#45;&gt;INTF&#45;IF_T100_DYN_MSG -->
<g id="edge15" class="edge">
<title>INTF&#45;IF_XCO_MESSAGE&#45;&gt;INTF&#45;IF_T100_DYN_MSG</title>
<path fill="none" stroke="black" d="M1311.61,-647.97C1357.87,-637.78 1416.77,-624.82 1464.72,-614.26"/>
<polygon fill="black" stroke="black" points="1465.76,-617.62 1474.77,-612.05 1464.25,-610.78 1465.76,-617.62"/>
</g>
<!-- DTEL&#45;SYMSGNO -->
<g id="node11" class="node">
<title>DTEL&#45;SYMSGNO</title>
<g id="a_node11"><a xlink:href="./DTEL_SYMSGNO.html" xlink:title="DTEL&#45;SYMSGNO">
<polygon fill="none" stroke="green" points="1570.59,-396 1445.87,-396 1445.87,-360 1570.59,-360 1570.59,-396"/>
<text text-anchor="middle" x="1508.23" y="-373.8" font-family="Times,serif" font-size="14.00">DTEL&#45;SYMSGNO</text>
</a>
</g>
</g>
<!-- INTF&#45;IF_XCO_MESSAGE&#45;&gt;DTEL&#45;SYMSGNO -->
<g id="edge11" class="edge">
<title>INTF&#45;IF_XCO_MESSAGE&#45;&gt;DTEL&#45;SYMSGNO</title>
<path fill="none" stroke="black" d="M1231.07,-647.92C1224.24,-605.27 1213.02,-493.1 1270.23,-432 1292.5,-408.22 1374.03,-393.87 1435.51,-386.21"/>
<polygon fill="black" stroke="black" points="1436.07,-389.67 1445.58,-385 1435.23,-382.72 1436.07,-389.67"/>
</g>
<!-- DTEL&#45;SYMSGID -->
<g id="node13" class="node">
<title>DTEL&#45;SYMSGID</title>
<g id="a_node13"><a xlink:href="./DTEL_SYMSGID.html" xlink:title="DTEL&#45;SYMSGID">
<polygon fill="none" stroke="green" points="1915.14,-396 1795.31,-396 1795.31,-360 1915.14,-360 1915.14,-396"/>
<text text-anchor="middle" x="1855.23" y="-373.8" font-family="Times,serif" font-size="14.00">DTEL&#45;SYMSGID</text>
</a>
</g>
</g>
<!-- INTF&#45;IF_XCO_MESSAGE&#45;&gt;DTEL&#45;SYMSGID -->
<g id="edge10" class="edge">
<title>INTF&#45;IF_XCO_MESSAGE&#45;&gt;DTEL&#45;SYMSGID</title>
<path fill="none" stroke="black" d="M1320.78,-658.96C1512.88,-643.34 1963.27,-593.7 2031.23,-468 2038.84,-453.93 2040.77,-444.84 2031.23,-432 2018.16,-414.42 1968.48,-400.45 1925.22,-391.28"/>
<polygon fill="black" stroke="black" points="1925.75,-387.81 1915.25,-389.22 1924.34,-394.67 1925.75,-387.81"/>
</g>
<!-- INTF&#45;IF_XCO_MESSAGE&#45;&gt;DTEL&#45;SYMSGTY -->
<g id="edge9" class="edge">
<title>INTF&#45;IF_XCO_MESSAGE&#45;&gt;DTEL&#45;SYMSGTY</title>
<path fill="none" stroke="black" d="M1320.98,-648.86C1352.61,-640.7 1387.81,-628.85 1417.23,-612 1437.42,-600.44 1436.42,-589.69 1455.23,-576 1471.2,-564.37 1490.01,-553.53 1506.79,-544.72"/>
<polygon fill="black" stroke="black" points="1508.59,-547.73 1515.88,-540.04 1505.39,-541.5 1508.59,-547.73"/>
</g>
<!-- DTEL&#45;SYMSGV -->
<g id="node17" class="node">
<title>DTEL&#45;SYMSGV</title>
<g id="a_node17"><a xlink:href="./DTEL_SYMSGV.html" xlink:title="DTEL&#45;SYMSGV">
<polygon fill="none" stroke="green" points="1419.48,-540 1304.97,-540 1304.97,-504 1419.48,-504 1419.48,-540"/>
<text text-anchor="middle" x="1362.23" y="-517.8" font-family="Times,serif" font-size="14.00">DTEL&#45;SYMSGV</text>
</a>
</g>
</g>
<!-- INTF&#45;IF_XCO_MESSAGE&#45;&gt;DTEL&#45;SYMSGV -->
<g id="edge12" class="edge">
<title>INTF&#45;IF_XCO_MESSAGE&#45;&gt;DTEL&#45;SYMSGV</title>
<path fill="none" stroke="black" d="M1243.38,-647.74C1253.89,-628.87 1272.36,-598.37 1293.23,-576 1303.43,-565.07 1316.05,-554.67 1327.7,-546.02"/>
<polygon fill="black" stroke="black" points="1329.91,-548.74 1335.97,-540.05 1325.81,-543.07 1329.91,-548.74"/>
</g>
<!-- INTF&#45;IF_XCO_MESSAGE_SHORT_TEXT -->
<g id="node19" class="node">
<title>INTF&#45;IF_XCO_MESSAGE_SHORT_TEXT</title>
<g id="a_node19"><a xlink:href="./INTF_IF_XCO_MESSAGE_SHORT_TEXT.html" xlink:title="INTF&#45;IF_XCO_MESSAGE_SHORT_TEXT">
<polygon fill="none" stroke="green" points="1168.46,-612 899.99,-612 899.99,-576 1168.46,-576 1168.46,-612"/>
<text text-anchor="middle" x="1034.23" y="-589.8" font-family="Times,serif" font-size="14.00">INTF&#45;IF_XCO_MESSAGE_SHORT_TEXT</text>
</a>
</g>
</g>
<!-- INTF&#45;IF_XCO_MESSAGE&#45;&gt;INTF&#45;IF_XCO_MESSAGE_SHORT_TEXT -->
<g id="edge14" class="edge">
<title>INTF&#45;IF_XCO_MESSAGE&#45;&gt;INTF&#45;IF_XCO_MESSAGE_SHORT_TEXT</title>
<path fill="none" stroke="black" d="M1179.67,-647.97C1150.7,-638.19 1115.31,-625.84 1086.66,-615.52"/>
<polygon fill="black" stroke="black" points="1087.81,-612.22 1077.22,-612.11 1085.43,-618.8 1087.81,-612.22"/>
</g>
<!-- TABL&#45;SYMSG -->
<g id="node37" class="node">
<title>TABL&#45;SYMSG</title>
<g id="a_node37"><a xlink:href="./TABL_SYMSG.html" xlink:title="TABL&#45;SYMSG">
<polygon fill="none" stroke="green" points="1408.16,-612 1302.3,-612 1302.3,-576 1408.16,-576 1408.16,-612"/>
<text text-anchor="middle" x="1355.23" y="-589.8" font-family="Times,serif" font-size="14.00">TABL&#45;SYMSG</text>
</a>
</g>
</g>
<!-- INTF&#45;IF_XCO_MESSAGE&#45;&gt;TABL&#45;SYMSG -->
<g id="edge8" class="edge">
<title>INTF&#45;IF_XCO_MESSAGE&#45;&gt;TABL&#45;SYMSG</title>
<path fill="none" stroke="black" d="M1263.83,-647.88C1279.8,-638.64 1299.69,-627.13 1316.83,-617.21"/>
<polygon fill="black" stroke="black" points="1318.61,-620.23 1325.51,-612.19 1315.11,-614.17 1318.61,-620.23"/>
</g>
<!-- INTF&#45;IF_T100_MESSAGE -->
<g id="node7" class="node">
<title>INTF&#45;IF_T100_MESSAGE</title>
<g id="a_node7"><a xlink:href="./INTF_IF_T100_MESSAGE.html" xlink:title="INTF&#45;IF_T100_MESSAGE">
<polygon fill="none" stroke="green" points="1911.82,-540 1738.64,-540 1738.64,-504 1911.82,-504 1911.82,-540"/>
<text text-anchor="middle" x="1825.23" y="-517.8" font-family="Times,serif" font-size="14.00">INTF&#45;IF_T100_MESSAGE</text>
</a>
</g>
</g>
<!-- INTF&#45;IF_T100_DYN_MSG&#45;&gt;INTF&#45;IF_T100_MESSAGE -->
<g id="edge20" class="edge">
<title>INTF&#45;IF_T100_DYN_MSG&#45;&gt;INTF&#45;IF_T100_MESSAGE</title>
<path fill="none" stroke="black" d="M1618.66,-575.97C1657.88,-565.91 1707.7,-553.14 1748.58,-542.65"/>
<polygon fill="black" stroke="black" points="1749.68,-545.98 1758.5,-540.11 1747.94,-539.2 1749.68,-545.98"/>
</g>
<!-- INTF&#45;IF_MESSAGE -->
<g id="node8" class="node">
<title>INTF&#45;IF_MESSAGE</title>
<g id="a_node8"><a xlink:href="./INTF_IF_MESSAGE.html" xlink:title="INTF&#45;IF_MESSAGE">
<polygon fill="none" stroke="green" points="1778.26,-468 1642.19,-468 1642.19,-432 1778.26,-432 1778.26,-468"/>
<text text-anchor="middle" x="1710.23" y="-445.8" font-family="Times,serif" font-size="14.00">INTF&#45;IF_MESSAGE</text>
</a>
</g>
</g>
<!-- INTF&#45;IF_T100_DYN_MSG&#45;&gt;INTF&#45;IF_MESSAGE -->
<g id="edge19" class="edge">
<title>INTF&#45;IF_T100_DYN_MSG&#45;&gt;INTF&#45;IF_MESSAGE</title>
<path fill="none" stroke="black" d="M1576.95,-575.99C1590.94,-566.01 1608.53,-552.87 1623.23,-540 1646.56,-519.58 1671.07,-494.09 1688.11,-475.62"/>
<polygon fill="black" stroke="black" points="1690.75,-477.92 1694.93,-468.18 1685.59,-473.19 1690.75,-477.92"/>
</g>
<!-- INTF&#45;IF_T100_DYN_MSG&#45;&gt;DTEL&#45;SYMSGTY -->
<g id="edge18" class="edge">
<title>INTF&#45;IF_T100_DYN_MSG&#45;&gt;DTEL&#45;SYMSGTY</title>
<path fill="none" stroke="black" d="M1552.23,-575.7C1552.23,-567.98 1552.23,-558.71 1552.23,-550.11"/>
<polygon fill="black" stroke="black" points="1555.73,-550.1 1552.23,-540.1 1548.73,-550.1 1555.73,-550.1"/>
</g>
<!-- INTF&#45;IF_T100_DYN_MSG&#45;&gt;DTEL&#45;SYMSGV -->
<g id="edge17" class="edge">
<title>INTF&#45;IF_T100_DYN_MSG&#45;&gt;DTEL&#45;SYMSGV</title>
<path fill="none" stroke="black" d="M1505.75,-575.88C1479.31,-566.14 1446.02,-553.87 1418.16,-543.61"/>
<polygon fill="black" stroke="black" points="1419.15,-540.24 1408.56,-540.07 1416.73,-546.81 1419.15,-540.24"/>
</g>
<!-- INTF&#45;IF_T100_MESSAGE&#45;&gt;INTF&#45;IF_MESSAGE -->
<g id="edge25" class="edge">
<title>INTF&#45;IF_T100_MESSAGE&#45;&gt;INTF&#45;IF_MESSAGE</title>
<path fill="none" stroke="black" d="M1797.1,-503.88C1782.06,-494.72 1763.36,-483.34 1747.17,-473.48"/>
<polygon fill="black" stroke="black" points="1748.83,-470.4 1738.47,-468.19 1745.19,-476.38 1748.83,-470.4"/>
</g>
<!-- TABL&#45;SCX_T100KEY -->
<g id="node9" class="node">
<title>TABL&#45;SCX_T100KEY</title>
<g id="a_node9"><a xlink:href="./TABL_SCX_T100KEY.html" xlink:title="TABL&#45;SCX_T100KEY">
<polygon fill="none" stroke="yellow" points="2021.98,-468 1872.47,-468 1872.47,-432 2021.98,-432 2021.98,-468"/>
<text text-anchor="middle" x="1947.23" y="-445.8" font-family="Times,serif" font-size="14.00">TABL&#45;SCX_T100KEY</text>
</a>
</g>
</g>
<!-- INTF&#45;IF_T100_MESSAGE&#45;&gt;TABL&#45;SCX_T100KEY -->
<g id="edge24" class="edge">
<title>INTF&#45;IF_T100_MESSAGE&#45;&gt;TABL&#45;SCX_T100KEY</title>
<path fill="none" stroke="black" d="M1855.07,-503.88C1871.17,-494.64 1891.23,-483.13 1908.52,-473.21"/>
<polygon fill="black" stroke="black" points="1910.34,-476.2 1917.27,-468.19 1906.85,-470.13 1910.34,-476.2"/>
</g>
<!-- DTEL&#45;SCX_ATTRNAME -->
<g id="node10" class="node">
<title>DTEL&#45;SCX_ATTRNAME</title>
<g id="a_node10"><a xlink:href="./DTEL_SCX_ATTRNAME.html" xlink:title="DTEL&#45;SCX_ATTRNAME">
<polygon fill="none" stroke="green" points="2123.64,-396 1954.82,-396 1954.82,-360 2123.64,-360 2123.64,-396"/>
<text text-anchor="middle" x="2039.23" y="-373.8" font-family="Times,serif" font-size="14.00">DTEL&#45;SCX_ATTRNAME</text>
</a>
</g>
</g>
<!-- INTF&#45;IF_T100_MESSAGE&#45;&gt;DTEL&#45;SCX_ATTRNAME -->
<g id="edge23" class="edge">
<title>INTF&#45;IF_T100_MESSAGE&#45;&gt;DTEL&#45;SCX_ATTRNAME</title>
<path fill="none" stroke="black" d="M1912.02,-508.86C1960.96,-500.14 2015.42,-486.61 2031.23,-468 2045.47,-451.24 2046.39,-425.76 2044.38,-406.34"/>
<polygon fill="black" stroke="black" points="2047.83,-405.72 2043.02,-396.28 2040.89,-406.66 2047.83,-405.72"/>
</g>
<!-- INTF&#45;IF_T100_MESSAGE&#45;&gt;DTEL&#45;SYMSGNO -->
<g id="edge22" class="edge">
<title>INTF&#45;IF_T100_MESSAGE&#45;&gt;DTEL&#45;SYMSGNO</title>
<path fill="none" stroke="black" d="M1822.78,-503.68C1818.94,-483.28 1809.48,-449.9 1787.23,-432 1756.15,-407 1652.92,-392.43 1581.14,-385.09"/>
<polygon fill="black" stroke="black" points="1581.09,-381.57 1570.79,-384.06 1580.4,-388.54 1581.09,-381.57"/>
</g>
<!-- INTF&#45;IF_T100_MESSAGE&#45;&gt;DTEL&#45;SYMSGID -->
<g id="edge21" class="edge">
<title>INTF&#45;IF_T100_MESSAGE&#45;&gt;DTEL&#45;SYMSGID</title>
<path fill="none" stroke="black" d="M1828.85,-503.87C1833.98,-479.56 1843.44,-434.82 1849.52,-406.01"/>
<polygon fill="black" stroke="black" points="1852.95,-406.7 1851.6,-396.19 1846.1,-405.25 1852.95,-406.7"/>
</g>
<!-- TABL&#45;SCX_T100KEY&#45;&gt;DTEL&#45;SCX_ATTRNAME -->
<g id="edge28" class="edge">
<title>TABL&#45;SCX_T100KEY&#45;&gt;DTEL&#45;SCX_ATTRNAME</title>
<path fill="none" stroke="black" d="M1969.97,-431.7C1981.67,-422.8 1996.09,-411.82 2008.74,-402.2"/>
<polygon fill="black" stroke="black" points="2010.91,-404.94 2016.75,-396.1 2006.67,-399.37 2010.91,-404.94"/>
</g>
<!-- TABL&#45;SCX_T100KEY&#45;&gt;DTEL&#45;SYMSGNO -->
<g id="edge27" class="edge">
<title>TABL&#45;SCX_T100KEY&#45;&gt;DTEL&#45;SYMSGNO</title>
<path fill="none" stroke="black" d="M1872.26,-437.05C1790.77,-424.05 1661.43,-403.43 1580.87,-390.58"/>
<polygon fill="black" stroke="black" points="1581.23,-387.1 1570.8,-388.98 1580.13,-394.01 1581.23,-387.1"/>
</g>
<!-- TABL&#45;SCX_T100KEY&#45;&gt;DTEL&#45;SYMSGID -->
<g id="edge26" class="edge">
<title>TABL&#45;SCX_T100KEY&#45;&gt;DTEL&#45;SYMSGID</title>
<path fill="none" stroke="black" d="M1924.49,-431.7C1912.79,-422.8 1898.37,-411.82 1885.72,-402.2"/>
<polygon fill="black" stroke="black" points="1887.79,-399.37 1877.71,-396.1 1883.55,-404.94 1887.79,-399.37"/>
</g>
<!-- DOMA&#45;SYMSGNO -->
<g id="node12" class="node">
<title>DOMA&#45;SYMSGNO</title>
<g id="a_node12"><a xlink:href="./DOMA_SYMSGNO.html" xlink:title="DOMA&#45;SYMSGNO">
<polygon fill="none" stroke="yellow" points="1574.09,-324 1442.37,-324 1442.37,-288 1574.09,-288 1574.09,-324"/>
<text text-anchor="middle" x="1508.23" y="-301.8" font-family="Times,serif" font-size="14.00">DOMA&#45;SYMSGNO</text>
</a>
</g>
</g>
<!-- DTEL&#45;SYMSGNO&#45;&gt;DOMA&#45;SYMSGNO -->
<g id="edge29" class="edge">
<title>DTEL&#45;SYMSGNO&#45;&gt;DOMA&#45;SYMSGNO</title>
<path fill="none" stroke="black" d="M1508.23,-359.7C1508.23,-351.98 1508.23,-342.71 1508.23,-334.11"/>
<polygon fill="black" stroke="black" points="1511.73,-334.1 1508.23,-324.1 1504.73,-334.1 1511.73,-334.1"/>
</g>
<!-- DOMA&#45;ARBGB -->
<g id="node14" class="node">
<title>DOMA&#45;ARBGB</title>
<g id="a_node14"><a xlink:href="./DOMA_ARBGB.html" xlink:title="DOMA&#45;ARBGB">
<polygon fill="none" stroke="yellow" points="1910.88,-324 1799.58,-324 1799.58,-288 1910.88,-288 1910.88,-324"/>
<text text-anchor="middle" x="1855.23" y="-301.8" font-family="Times,serif" font-size="14.00">DOMA&#45;ARBGB</text>
</a>
</g>
</g>
<!-- DTEL&#45;SYMSGID&#45;&gt;DOMA&#45;ARBGB -->
<g id="edge30" class="edge">
<title>DTEL&#45;SYMSGID&#45;&gt;DOMA&#45;ARBGB</title>
<path fill="none" stroke="black" d="M1855.23,-359.7C1855.23,-351.98 1855.23,-342.71 1855.23,-334.11"/>
<polygon fill="black" stroke="black" points="1858.73,-334.1 1855.23,-324.1 1851.73,-334.1 1858.73,-334.1"/>
</g>
<!-- DOMA&#45;SYCHAR01 -->
<g id="node16" class="node">
<title>DOMA&#45;SYCHAR01</title>
<g id="a_node16"><a xlink:href="./DOMA_SYCHAR01.html" xlink:title="DOMA&#45;SYCHAR01">
<polygon fill="none" stroke="yellow" points="1624.43,-468 1490.03,-468 1490.03,-432 1624.43,-432 1624.43,-468"/>
<text text-anchor="middle" x="1557.23" y="-445.8" font-family="Times,serif" font-size="14.00">DOMA&#45;SYCHAR01</text>
</a>
</g>
</g>
<!-- DTEL&#45;SYMSGTY&#45;&gt;DOMA&#45;SYCHAR01 -->
<g id="edge31" class="edge">
<title>DTEL&#45;SYMSGTY&#45;&gt;DOMA&#45;SYCHAR01</title>
<path fill="none" stroke="black" d="M1553.46,-503.7C1554.01,-495.98 1554.68,-486.71 1555.29,-478.11"/>
<polygon fill="black" stroke="black" points="1558.78,-478.33 1556.01,-468.1 1551.8,-477.83 1558.78,-478.33"/>
</g>
<!-- DOMA&#45;SYCHAR50 -->
<g id="node18" class="node">
<title>DOMA&#45;SYCHAR50</title>
<g id="a_node18"><a xlink:href="./DOMA_SYCHAR50.html" xlink:title="DOMA&#45;SYCHAR50">
<polygon fill="none" stroke="yellow" points="1434.43,-468 1300.03,-468 1300.03,-432 1434.43,-432 1434.43,-468"/>
<text text-anchor="middle" x="1367.23" y="-445.8" font-family="Times,serif" font-size="14.00">DOMA&#45;SYCHAR50</text>
</a>
</g>
</g>
<!-- DTEL&#45;SYMSGV&#45;&gt;DOMA&#45;SYCHAR50 -->
<g id="edge32" class="edge">
<title>DTEL&#45;SYMSGV&#45;&gt;DOMA&#45;SYCHAR50</title>
<path fill="none" stroke="black" d="M1363.46,-503.7C1364.01,-495.98 1364.68,-486.71 1365.29,-478.11"/>
<polygon fill="black" stroke="black" points="1368.78,-478.33 1366.01,-468.1 1361.8,-477.83 1368.78,-478.33"/>
</g>
<!-- INTF&#45;IF_XCO_MESSAGE_SHORT_TEXT&#45;&gt;INTF&#45;IF_XCO_MESSAGE -->
<g id="edge33" class="edge">
<title>INTF&#45;IF_XCO_MESSAGE_SHORT_TEXT&#45;&gt;INTF&#45;IF_XCO_MESSAGE</title>
<path fill="none" stroke="black" d="M1088.89,-612.07C1117.83,-621.84 1153.16,-634.17 1181.77,-644.47"/>
<polygon fill="black" stroke="black" points="1180.61,-647.77 1191.2,-647.88 1182.99,-641.18 1180.61,-647.77"/>
</g>
<!-- INTF&#45;IF_XCO_L10N_TEXT -->
<g id="node20" class="node">
<title>INTF&#45;IF_XCO_L10N_TEXT</title>
<g id="a_node20"><a xlink:href="./INTF_IF_XCO_L10N_TEXT.html" xlink:title="INTF&#45;IF_XCO_L10N_TEXT">
<polygon fill="none" stroke="yellow" points="1125.91,-540 942.55,-540 942.55,-504 1125.91,-504 1125.91,-540"/>
<text text-anchor="middle" x="1034.23" y="-517.8" font-family="Times,serif" font-size="14.00">INTF&#45;IF_XCO_L10N_TEXT</text>
</a>
</g>
</g>
<!-- INTF&#45;IF_XCO_MESSAGE_SHORT_TEXT&#45;&gt;INTF&#45;IF_XCO_L10N_TEXT -->
<g id="edge35" class="edge">
<title>INTF&#45;IF_XCO_MESSAGE_SHORT_TEXT&#45;&gt;INTF&#45;IF_XCO_L10N_TEXT</title>
<path fill="none" stroke="black" d="M1034.23,-575.7C1034.23,-567.98 1034.23,-558.71 1034.23,-550.11"/>
<polygon fill="black" stroke="black" points="1037.73,-550.1 1034.23,-540.1 1030.73,-550.1 1037.73,-550.1"/>
</g>
<!-- INTF&#45;IF_XCO_TEXT -->
<g id="node21" class="node">
<title>INTF&#45;IF_XCO_TEXT</title>
<g id="a_node21"><a xlink:href="./INTF_IF_XCO_TEXT.html" xlink:title="INTF&#45;IF_XCO_TEXT">
<polygon fill="none" stroke="green" points="927.75,-468 784.71,-468 784.71,-432 927.75,-432 927.75,-468"/>
<text text-anchor="middle" x="856.23" y="-445.8" font-family="Times,serif" font-size="14.00">INTF&#45;IF_XCO_TEXT</text>
</a>
</g>
</g>
<!-- INTF&#45;IF_XCO_MESSAGE_SHORT_TEXT&#45;&gt;INTF&#45;IF_XCO_TEXT -->
<g id="edge34" class="edge">
<title>INTF&#45;IF_XCO_MESSAGE_SHORT_TEXT&#45;&gt;INTF&#45;IF_XCO_TEXT</title>
<path fill="none" stroke="black" d="M993.29,-575.82C974.04,-566.7 951.38,-554.39 933.23,-540 910.04,-521.62 888.45,-495.55 874.06,-476.38"/>
<polygon fill="black" stroke="black" points="876.73,-474.09 867.98,-468.1 871.09,-478.23 876.73,-474.09"/>
</g>
<!-- INTF&#45;IF_XCO_L10N_TEXT&#45;&gt;INTF&#45;IF_XCO_TEXT -->
<g id="edge37" class="edge">
<title>INTF&#45;IF_XCO_L10N_TEXT&#45;&gt;INTF&#45;IF_XCO_TEXT</title>
<path fill="none" stroke="black" d="M990.68,-503.88C966.03,-494.18 935,-481.98 908.97,-471.74"/>
<polygon fill="black" stroke="black" points="910.22,-468.47 899.63,-468.07 907.66,-474.99 910.22,-468.47"/>
</g>
<!-- DTEL&#45;SPRAS -->
<g id="node35" class="node">
<title>DTEL&#45;SPRAS</title>
<g id="a_node35"><a xlink:href="./DTEL_SPRAS.html" xlink:title="DTEL&#45;SPRAS">
<polygon fill="none" stroke="green" points="1085.94,-468 986.51,-468 986.51,-432 1085.94,-432 1085.94,-468"/>
<text text-anchor="middle" x="1036.23" y="-445.8" font-family="Times,serif" font-size="14.00">DTEL&#45;SPRAS</text>
</a>
</g>
</g>
<!-- INTF&#45;IF_XCO_L10N_TEXT&#45;&gt;DTEL&#45;SPRAS -->
<g id="edge36" class="edge">
<title>INTF&#45;IF_XCO_L10N_TEXT&#45;&gt;DTEL&#45;SPRAS</title>
<path fill="none" stroke="black" d="M1034.72,-503.7C1034.94,-495.98 1035.21,-486.71 1035.45,-478.11"/>
<polygon fill="black" stroke="black" points="1038.95,-478.2 1035.74,-468.1 1031.96,-478 1038.95,-478.2"/>
</g>
<!-- INTF&#45;IF_XCO_STRINGS -->
<g id="node22" class="node">
<title>INTF&#45;IF_XCO_STRINGS</title>
<g id="a_node22"><a xlink:href="./INTF_IF_XCO_STRINGS.html" xlink:title="INTF&#45;IF_XCO_STRINGS">
<polygon fill="none" stroke="green" points="838.31,-396 672.14,-396 672.14,-360 838.31,-360 838.31,-396"/>
<text text-anchor="middle" x="755.23" y="-373.8" font-family="Times,serif" font-size="14.00">INTF&#45;IF_XCO_STRINGS</text>
</a>
</g>
</g>
<!-- INTF&#45;IF_XCO_TEXT&#45;&gt;INTF&#45;IF_XCO_STRINGS -->
<g id="edge38" class="edge">
<title>INTF&#45;IF_XCO_TEXT&#45;&gt;INTF&#45;IF_XCO_STRINGS</title>
<path fill="none" stroke="black" d="M825.62,-431.88C811.85,-422.98 795.81,-411.97 782.46,-402.31"/>
<polygon fill="black" stroke="black" points="784.26,-399.29 774.13,-396.19 780.11,-404.93 784.26,-399.29"/>
</g>
<!-- INTF&#45;IF_XCO_STRINGS&#45;&gt;INTF&#45;IF_XCO_NEWS -->
<g id="edge43" class="edge">
<title>INTF&#45;IF_XCO_STRINGS&#45;&gt;INTF&#45;IF_XCO_NEWS</title>
<path fill="none" stroke="black" d="M755.43,-396.05C755.72,-422.71 756.23,-475.88 756.23,-521 756.23,-667 756.23,-667 756.23,-667 756.23,-739.58 839.53,-776.1 906.72,-793.75"/>
<polygon fill="black" stroke="black" points="905.96,-797.17 916.51,-796.22 907.67,-790.38 905.96,-797.17"/>
</g>
<!-- INTF&#45;IF_XCO_STRINGS&#45;&gt;INTF&#45;IF_XCO_TEXT -->
<g id="edge44" class="edge">
<title>INTF&#45;IF_XCO_STRINGS&#45;&gt;INTF&#45;IF_XCO_TEXT</title>
<path fill="none" stroke="black" d="M785.8,-396.1C799.53,-404.97 815.52,-415.94 828.85,-425.59"/>
<polygon fill="black" stroke="black" points="827.05,-428.6 837.18,-431.7 831.19,-422.96 827.05,-428.6"/>
</g>
<!-- INTF&#45;IF_XCO_STRING_ITERABLE -->
<g id="node23" class="node">
<title>INTF&#45;IF_XCO_STRING_ITERABLE</title>
<g id="a_node23"><a xlink:href="./INTF_IF_XCO_STRING_ITERABLE.html" xlink:title="INTF&#45;IF_XCO_STRING_ITERABLE">
<polygon fill="none" stroke="green" points="273.68,-324 40.78,-324 40.78,-288 273.68,-288 273.68,-324"/>
<text text-anchor="middle" x="157.23" y="-301.8" font-family="Times,serif" font-size="14.00">INTF&#45;IF_XCO_STRING_ITERABLE</text>
</a>
</g>
</g>
<!-- INTF&#45;IF_XCO_STRINGS&#45;&gt;INTF&#45;IF_XCO_STRING_ITERABLE -->
<g id="edge45" class="edge">
<title>INTF&#45;IF_XCO_STRINGS&#45;&gt;INTF&#45;IF_XCO_STRING_ITERABLE</title>
<path fill="none" stroke="black" d="M672.03,-368.22C579.9,-358.38 426.67,-341.62 284.16,-324.1"/>
<polygon fill="black" stroke="black" points="284.27,-320.59 273.92,-322.84 283.41,-327.53 284.27,-320.59"/>
</g>
<!-- INTF&#45;IF_XCO_STRING -->
<g id="node26" class="node">
<title>INTF&#45;IF_XCO_STRING</title>
<g id="a_node26"><a xlink:href="./INTF_IF_XCO_STRING.html" xlink:title="INTF&#45;IF_XCO_STRING">
<polygon fill="none" stroke="green" points="950.53,-180 791.93,-180 791.93,-144 950.53,-144 950.53,-180"/>
<text text-anchor="middle" x="871.23" y="-157.8" font-family="Times,serif" font-size="14.00">INTF&#45;IF_XCO_STRING</text>
</a>
</g>
</g>
<!-- INTF&#45;IF_XCO_STRINGS&#45;&gt;INTF&#45;IF_XCO_STRING -->
<g id="edge41" class="edge">
<title>INTF&#45;IF_XCO_STRINGS&#45;&gt;INTF&#45;IF_XCO_STRING</title>
<path fill="none" stroke="black" d="M791.1,-359.8C806.62,-351.37 823.55,-339.6 834.23,-324 861.86,-283.66 864.97,-224.66 866.81,-190.41"/>
<polygon fill="black" stroke="black" points="870.32,-190.4 867.39,-180.22 863.33,-190.01 870.32,-190.4"/>
</g>
<!-- INTF&#45;IF_XCO_STRING_COMPOSITION -->
<g id="node31" class="node">
<title>INTF&#45;IF_XCO_STRING_COMPOSITION</title>
<g id="a_node31"><a xlink:href="./INTF_IF_XCO_STRING_COMPOSITION.html" xlink:title="INTF&#45;IF_XCO_STRING_COMPOSITION">
<polygon fill="none" stroke="green" points="552.68,-324 291.78,-324 291.78,-288 552.68,-288 552.68,-324"/>
<text text-anchor="middle" x="422.23" y="-301.8" font-family="Times,serif" font-size="14.00">INTF&#45;IF_XCO_STRING_COMPOSITION</text>
</a>
</g>
</g>
<!-- INTF&#45;IF_XCO_STRINGS&#45;&gt;INTF&#45;IF_XCO_STRING_COMPOSITION -->
<g id="edge42" class="edge">
<title>INTF&#45;IF_XCO_STRINGS&#45;&gt;INTF&#45;IF_XCO_STRING_COMPOSITION</title>
<path fill="none" stroke="black" d="M671.76,-360.68C621.52,-350.36 557.75,-336.97 507.23,-326.15"/>
<polygon fill="black" stroke="black" points="507.82,-322.7 497.31,-324.02 506.35,-329.54 507.82,-322.7"/>
</g>
<!-- TTYP&#45;STRING_TABLE -->
<g id="node32" class="node">
<title>TTYP&#45;STRING_TABLE</title>
<g id="a_node32"><a xlink:href="./TTYP_STRING_TABLE.html" xlink:title="TTYP&#45;STRING_TABLE">
<polygon fill="none" stroke="green" points="834.53,-324 675.93,-324 675.93,-288 834.53,-288 834.53,-324"/>
<text text-anchor="middle" x="755.23" y="-301.8" font-family="Times,serif" font-size="14.00">TTYP&#45;STRING_TABLE</text>
</a>
</g>
</g>
<!-- INTF&#45;IF_XCO_STRINGS&#45;&gt;TTYP&#45;STRING_TABLE -->
<g id="edge40" class="edge">
<title>INTF&#45;IF_XCO_STRINGS&#45;&gt;TTYP&#45;STRING_TABLE</title>
<path fill="none" stroke="black" d="M755.23,-359.7C755.23,-351.98 755.23,-342.71 755.23,-334.11"/>
<polygon fill="black" stroke="black" points="758.73,-334.1 755.23,-324.1 751.73,-334.1 758.73,-334.1"/>
</g>
<!-- DTEL&#45;INT4 -->
<g id="node33" class="node">
<title>DTEL&#45;INT4</title>
<g id="a_node33"><a xlink:href="./DTEL_INT4.html" xlink:title="DTEL&#45;INT4">
<polygon fill="none" stroke="green" points="657.47,-324 570.98,-324 570.98,-288 657.47,-288 657.47,-324"/>
<text text-anchor="middle" x="614.23" y="-301.8" font-family="Times,serif" font-size="14.00">DTEL&#45;INT4</text>
</a>
</g>
</g>
<!-- INTF&#45;IF_XCO_STRINGS&#45;&gt;DTEL&#45;INT4 -->
<g id="edge39" class="edge">
<title>INTF&#45;IF_XCO_STRINGS&#45;&gt;DTEL&#45;INT4</title>
<path fill="none" stroke="black" d="M720.74,-359.88C701.79,-350.47 678.1,-338.71 657.87,-328.67"/>
<polygon fill="black" stroke="black" points="659.37,-325.5 648.85,-324.19 656.25,-331.77 659.37,-325.5"/>
</g>
<!-- INTF&#45;IF_XCO_STRING_ITERATOR -->
<g id="node24" class="node">
<title>INTF&#45;IF_XCO_STRING_ITERATOR</title>
<g id="a_node24"><a xlink:href="./INTF_IF_XCO_STRING_ITERATOR.html" xlink:title="INTF&#45;IF_XCO_STRING_ITERATOR">
<polygon fill="none" stroke="green" points="315.23,-252 81.22,-252 81.22,-216 315.23,-216 315.23,-252"/>
<text text-anchor="middle" x="198.23" y="-229.8" font-family="Times,serif" font-size="14.00">INTF&#45;IF_XCO_STRING_ITERATOR</text>
</a>
</g>
</g>
<!-- INTF&#45;IF_XCO_STRING_ITERABLE&#45;&gt;INTF&#45;IF_XCO_STRING_ITERATOR -->
<g id="edge46" class="edge">
<title>INTF&#45;IF_XCO_STRING_ITERABLE&#45;&gt;INTF&#45;IF_XCO_STRING_ITERATOR</title>
<path fill="none" stroke="black" d="M167.36,-287.7C172.08,-279.64 177.79,-269.89 183.01,-260.98"/>
<polygon fill="black" stroke="black" points="186.18,-262.5 188.21,-252.1 180.14,-258.96 186.18,-262.5"/>
</g>
<!-- INTF&#45;IF_XCO_ITERATOR -->
<g id="node25" class="node">
<title>INTF&#45;IF_XCO_ITERATOR</title>
<g id="a_node25"><a xlink:href="./INTF_IF_XCO_ITERATOR.html" xlink:title="INTF&#45;IF_XCO_ITERATOR">
<polygon fill="none" stroke="green" points="286.69,-180 109.77,-180 109.77,-144 286.69,-144 286.69,-180"/>
<text text-anchor="middle" x="198.23" y="-157.8" font-family="Times,serif" font-size="14.00">INTF&#45;IF_XCO_ITERATOR</text>
</a>
</g>
</g>
<!-- INTF&#45;IF_XCO_STRING_ITERATOR&#45;&gt;INTF&#45;IF_XCO_ITERATOR -->
<g id="edge48" class="edge">
<title>INTF&#45;IF_XCO_STRING_ITERATOR&#45;&gt;INTF&#45;IF_XCO_ITERATOR</title>
<path fill="none" stroke="black" d="M198.23,-215.7C198.23,-207.98 198.23,-198.71 198.23,-190.11"/>
<polygon fill="black" stroke="black" points="201.73,-190.1 198.23,-180.1 194.73,-190.1 201.73,-190.1"/>
</g>
<!-- INTF&#45;IF_XCO_STRING_ITERATOR&#45;&gt;INTF&#45;IF_XCO_STRING -->
<g id="edge47" class="edge">
<title>INTF&#45;IF_XCO_STRING_ITERATOR&#45;&gt;INTF&#45;IF_XCO_STRING</title>
<path fill="none" stroke="black" d="M315.46,-220.81C448.11,-207.01 661.28,-184.84 781.4,-172.34"/>
<polygon fill="black" stroke="black" points="782.08,-175.79 791.66,-171.28 781.36,-168.83 782.08,-175.79"/>
</g>
<!-- INTF&#45;IF_XCO_STRING&#45;&gt;INTF&#45;IF_XCO_NEWS -->
<g id="edge54" class="edge">
<title>INTF&#45;IF_XCO_STRING&#45;&gt;INTF&#45;IF_XCO_NEWS</title>
<path fill="none" stroke="black" d="M890.09,-180.27C915.13,-205.18 956.23,-253.86 956.23,-305 956.23,-379 956.23,-379 956.23,-379 956.23,-419.45 949.43,-429.44 937.23,-468 921.49,-517.74 901.66,-524.88 891.23,-576 888.03,-591.68 887.54,-596.43 891.23,-612 906.9,-678.09 948.42,-747.22 972.42,-783.41"/>
<polygon fill="black" stroke="black" points="969.63,-785.54 978.11,-791.88 975.44,-781.63 969.63,-785.54"/>
</g>
<!-- INTF&#45;IF_XCO_STRING&#45;&gt;INTF&#45;IF_XCO_MESSAGE -->
<g id="edge51" class="edge">
<title>INTF&#45;IF_XCO_STRING&#45;&gt;INTF&#45;IF_XCO_MESSAGE</title>
<path fill="none" stroke="black" d="M950.73,-164.45C1046.95,-170.92 1196.23,-198.17 1196.23,-305 1196.23,-523 1196.23,-523 1196.23,-523 1196.23,-564.37 1211.46,-610.28 1222.64,-638.39"/>
<polygon fill="black" stroke="black" points="1219.51,-639.98 1226.54,-647.91 1225.98,-637.33 1219.51,-639.98"/>
</g>
<!-- INTF&#45;IF_XCO_STRING&#45;&gt;INTF&#45;IF_XCO_TEXT -->
<g id="edge55" class="edge">
<title>INTF&#45;IF_XCO_STRING&#45;&gt;INTF&#45;IF_XCO_TEXT</title>
<path fill="none" stroke="black" d="M880.77,-180.07C885.87,-190.18 891.62,-203.43 894.23,-216 909.66,-290.3 882.89,-379.01 866.89,-422.42"/>
<polygon fill="black" stroke="black" points="863.55,-421.36 863.28,-431.95 870.1,-423.84 863.55,-421.36"/>
</g>
<!-- INTF&#45;IF_XCO_STRING&#45;&gt;INTF&#45;IF_XCO_STRINGS -->
<g id="edge49" class="edge">
<title>INTF&#45;IF_XCO_STRING&#45;&gt;INTF&#45;IF_XCO_STRINGS</title>
<path fill="none" stroke="black" d="M877.91,-180.22C883.36,-211.67 882.85,-279.29 852.23,-324 843.47,-336.8 830.5,-347.01 816.85,-354.93"/>
<polygon fill="black" stroke="black" points="814.96,-351.97 807.82,-359.8 818.28,-358.13 814.96,-351.97"/>
</g>
<!-- INTF&#45;IF_XCO_STRING&#45;&gt;INTF&#45;IF_XCO_STRING_ITERABLE -->
<g id="edge56" class="edge">
<title>INTF&#45;IF_XCO_STRING&#45;&gt;INTF&#45;IF_XCO_STRING_ITERABLE</title>
<path fill="none" stroke="black" d="M791.89,-171.05C714.09,-179.62 592.34,-194.89 488.23,-216 394.62,-234.98 288.27,-265.15 221.96,-285.01"/>
<polygon fill="black" stroke="black" points="220.64,-281.76 212.07,-287.99 222.66,-288.46 220.64,-281.76"/>
</g>
<!-- INTF&#45;IF_XCO_XSTRING -->
<g id="node27" class="node">
<title>INTF&#45;IF_XCO_XSTRING</title>
<g id="a_node27"><a xlink:href="./INTF_IF_XCO_XSTRING.html" xlink:title="INTF&#45;IF_XCO_XSTRING">
<polygon fill="none" stroke="green" points="955.64,-108 786.82,-108 786.82,-72 955.64,-72 955.64,-108"/>
<text text-anchor="middle" x="871.23" y="-85.8" font-family="Times,serif" font-size="14.00">INTF&#45;IF_XCO_XSTRING</text>
</a>
</g>
</g>
<!-- INTF&#45;IF_XCO_STRING&#45;&gt;INTF&#45;IF_XCO_XSTRING -->
<g id="edge53" class="edge">
<title>INTF&#45;IF_XCO_STRING&#45;&gt;INTF&#45;IF_XCO_XSTRING</title>
<path fill="none" stroke="black" d="M865.31,-143.7C864.52,-135.98 864.29,-126.71 864.63,-118.11"/>
<polygon fill="black" stroke="black" points="868.13,-118.32 865.33,-108.1 861.14,-117.84 868.13,-118.32"/>
</g>
<!-- INTF&#45;IF_XCO_STRING_XSTRING_CNVRSN -->
<g id="node29" class="node">
<title>INTF&#45;IF_XCO_STRING_XSTRING_CNVRSN</title>
<g id="a_node29"><a xlink:href="./INTF_IF_XCO_STRING_XSTRING_CNVRSN.html" xlink:title="INTF&#45;IF_XCO_STRING_XSTRING_CNVRSN">
<polygon fill="none" stroke="green" points="1262.96,-108 973.5,-108 973.5,-72 1262.96,-72 1262.96,-108"/>
<text text-anchor="middle" x="1118.23" y="-85.8" font-family="Times,serif" font-size="14.00">INTF&#45;IF_XCO_STRING_XSTRING_CNVRSN</text>
</a>
</g>
</g>
<!-- INTF&#45;IF_XCO_STRING&#45;&gt;INTF&#45;IF_XCO_STRING_XSTRING_CNVRSN -->
<g id="edge52" class="edge">
<title>INTF&#45;IF_XCO_STRING&#45;&gt;INTF&#45;IF_XCO_STRING_XSTRING_CNVRSN</title>
<path fill="none" stroke="black" d="M931.34,-143.97C966.6,-133.97 1011.32,-121.3 1048.17,-110.85"/>
<polygon fill="black" stroke="black" points="1049.18,-114.2 1057.85,-108.11 1047.28,-107.47 1049.18,-114.2"/>
</g>
<!-- INTF&#45;IF_XCO_STRING_DECOMPOSITION -->
<g id="node30" class="node">
<title>INTF&#45;IF_XCO_STRING_DECOMPOSITION</title>
<g id="a_node30"><a xlink:href="./INTF_IF_XCO_STRING_DECOMPOSITION.html" xlink:title="INTF&#45;IF_XCO_STRING_DECOMPOSITION">
<polygon fill="none" stroke="green" points="768.84,-108 489.62,-108 489.62,-72 768.84,-72 768.84,-108"/>
<text text-anchor="middle" x="629.23" y="-85.8" font-family="Times,serif" font-size="14.00">INTF&#45;IF_XCO_STRING_DECOMPOSITION</text>
</a>
</g>
</g>
<!-- INTF&#45;IF_XCO_STRING&#45;&gt;INTF&#45;IF_XCO_STRING_DECOMPOSITION -->
<g id="edge50" class="edge">
<title>INTF&#45;IF_XCO_STRING&#45;&gt;INTF&#45;IF_XCO_STRING_DECOMPOSITION</title>
<path fill="none" stroke="black" d="M806.45,-143.97C771,-134.01 727.32,-121.41 692.16,-110.99"/>
<polygon fill="black" stroke="black" points="693.07,-107.61 682.49,-108.11 691.07,-114.32 693.07,-107.61"/>
</g>
<!-- INTF&#45;IF_XCO_XSTRING&#45;&gt;INTF&#45;IF_XCO_STRING -->
<g id="edge58" class="edge">
<title>INTF&#45;IF_XCO_XSTRING&#45;&gt;INTF&#45;IF_XCO_STRING</title>
<path fill="none" stroke="black" d="M877.12,-108.1C877.93,-115.79 878.16,-125.05 877.83,-133.67"/>
<polygon fill="black" stroke="black" points="874.34,-133.48 877.14,-143.7 881.32,-133.96 874.34,-133.48"/>
</g>
<!-- INTF&#45;IF_XCO_XSTRING_STRING_CNVRSN -->
<g id="node28" class="node">
<title>INTF&#45;IF_XCO_XSTRING_STRING_CNVRSN</title>
<g id="a_node28"><a xlink:href="./INTF_IF_XCO_XSTRING_STRING_CNVRSN.html" xlink:title="INTF&#45;IF_XCO_XSTRING_STRING_CNVRSN">
<polygon fill="none" stroke="green" points="1015.96,-36 726.5,-36 726.5,0 1015.96,0 1015.96,-36"/>
<text text-anchor="middle" x="871.23" y="-13.8" font-family="Times,serif" font-size="14.00">INTF&#45;IF_XCO_XSTRING_STRING_CNVRSN</text>
</a>
</g>
</g>
<!-- INTF&#45;IF_XCO_XSTRING&#45;&gt;INTF&#45;IF_XCO_XSTRING_STRING_CNVRSN -->
<g id="edge57" class="edge">
<title>INTF&#45;IF_XCO_XSTRING&#45;&gt;INTF&#45;IF_XCO_XSTRING_STRING_CNVRSN</title>
<path fill="none" stroke="black" d="M871.23,-71.7C871.23,-63.98 871.23,-54.71 871.23,-46.11"/>
<polygon fill="black" stroke="black" points="874.73,-46.1 871.23,-36.1 867.73,-46.1 874.73,-46.1"/>
</g>
<!-- INTF&#45;IF_XCO_STRING_DECOMPOSITION&#45;&gt;INTF&#45;IF_XCO_STRINGS -->
<g id="edge60" class="edge">
<title>INTF&#45;IF_XCO_STRING_DECOMPOSITION&#45;&gt;INTF&#45;IF_XCO_STRINGS</title>
<path fill="none" stroke="black" d="M489.29,-98C343.64,-106.39 132.4,-122.12 101.23,-144 -19.6,-228.81 -17.31,-270.69 32.23,-324 74.24,-369.21 476.3,-376.25 662.02,-377.08"/>
<polygon fill="black" stroke="black" points="662.03,-380.58 672.05,-377.12 662.06,-373.58 662.03,-380.58"/>
</g>
<!-- INTF&#45;IF_XCO_STRING_DECOMPOSITION&#45;&gt;INTF&#45;IF_XCO_STRING -->
<g id="edge59" class="edge">
<title>INTF&#45;IF_XCO_STRING_DECOMPOSITION&#45;&gt;INTF&#45;IF_XCO_STRING</title>
<path fill="none" stroke="black" d="M694.28,-108.11C729.77,-118.08 773.45,-130.68 808.56,-141.09"/>
<polygon fill="black" stroke="black" points="807.64,-144.47 818.23,-143.97 809.64,-137.76 807.64,-144.47"/>
</g>
<!-- INTF&#45;IF_XCO_STRING_COMPOSITION&#45;&gt;INTF&#45;IF_XCO_STRINGS -->
<g id="edge61" class="edge">
<title>INTF&#45;IF_XCO_STRING_COMPOSITION&#45;&gt;INTF&#45;IF_XCO_STRINGS</title>
<path fill="none" stroke="black" d="M509.23,-324.05C558.85,-334.26 620.76,-347.25 670.08,-357.82"/>
<polygon fill="black" stroke="black" points="669.57,-361.29 680.08,-359.97 671.04,-354.45 669.57,-361.29"/>
</g>
<!-- INTF&#45;IF_XCO_STRING_COMPOSITION&#45;&gt;INTF&#45;IF_XCO_STRING -->
<g id="edge62" class="edge">
<title>INTF&#45;IF_XCO_STRING_COMPOSITION&#45;&gt;INTF&#45;IF_XCO_STRING</title>
<path fill="none" stroke="black" d="M442.39,-287.9C467.72,-267.4 513.3,-233.61 558.23,-216 630.44,-187.69 717.84,-174.49 781.91,-168.34"/>
<polygon fill="black" stroke="black" points="782.35,-171.82 791.99,-167.42 781.71,-164.85 782.35,-171.82"/>
</g>
<!-- DOMA&#45;INT4 -->
<g id="node34" class="node">
<title>DOMA&#45;INT4</title>
<g id="a_node34"><a xlink:href="./DOMA_INT4.html" xlink:title="DOMA&#45;INT4">
<polygon fill="none" stroke="yellow" points="660.97,-252 567.48,-252 567.48,-216 660.97,-216 660.97,-252"/>
<text text-anchor="middle" x="614.23" y="-229.8" font-family="Times,serif" font-size="14.00">DOMA&#45;INT4</text>
</a>
</g>
</g>
<!-- DTEL&#45;INT4&#45;&gt;DOMA&#45;INT4 -->
<g id="edge63" class="edge">
<title>DTEL&#45;INT4&#45;&gt;DOMA&#45;INT4</title>
<path fill="none" stroke="black" d="M614.23,-287.7C614.23,-279.98 614.23,-270.71 614.23,-262.11"/>
<polygon fill="black" stroke="black" points="617.73,-262.1 614.23,-252.1 610.73,-262.1 617.73,-262.1"/>
</g>
<!-- DOMA&#45;SPRAS -->
<g id="node36" class="node">
<title>DOMA&#45;SPRAS</title>
<g id="a_node36"><a xlink:href="./DOMA_SPRAS.html" xlink:title="DOMA&#45;SPRAS">
<polygon fill="none" stroke="green" points="1090.44,-396 984.01,-396 984.01,-360 1090.44,-360 1090.44,-396"/>
<text text-anchor="middle" x="1037.23" y="-373.8" font-family="Times,serif" font-size="14.00">DOMA&#45;SPRAS</text>
</a>
</g>
</g>
<!-- DTEL&#45;SPRAS&#45;&gt;DOMA&#45;SPRAS -->
<g id="edge64" class="edge">
<title>DTEL&#45;SPRAS&#45;&gt;DOMA&#45;SPRAS</title>
<path fill="none" stroke="black" d="M1036.48,-431.7C1036.59,-423.98 1036.72,-414.71 1036.84,-406.11"/>
<polygon fill="black" stroke="black" points="1040.34,-406.15 1036.98,-396.1 1033.34,-406.05 1040.34,-406.15"/>
</g>
<!-- TABL&#45;SYMSG&#45;&gt;DTEL&#45;SYMSGNO -->
<g id="edge67" class="edge">
<title>TABL&#45;SYMSG&#45;&gt;DTEL&#45;SYMSGNO</title>
<path fill="none" stroke="black" d="M1328.19,-575.9C1316.23,-566.79 1303.3,-554.48 1296.23,-540 1275.15,-496.82 1261.55,-469.79 1291.23,-432 1309.07,-409.28 1379.63,-395.05 1435.52,-387.13"/>
<polygon fill="black" stroke="black" points="1436.33,-390.55 1445.76,-385.72 1435.38,-383.62 1436.33,-390.55"/>
</g>
<!-- TABL&#45;SYMSG&#45;&gt;DTEL&#45;SYMSGID -->
<g id="edge66" class="edge">
<title>TABL&#45;SYMSG&#45;&gt;DTEL&#45;SYMSGID</title>
<path fill="none" stroke="black" d="M1385.26,-575.96C1399.61,-566.72 1416.23,-554.26 1428.23,-540 1462.65,-499.09 1437.95,-463.4 1481.23,-432 1528.47,-397.72 1690.85,-385.49 1785.4,-381.22"/>
<polygon fill="black" stroke="black" points="1785.62,-384.71 1795.46,-380.78 1785.32,-377.72 1785.62,-384.71"/>
</g>
<!-- TABL&#45;SYMSG&#45;&gt;DTEL&#45;SYMSGTY -->
<g id="edge65" class="edge">
<title>TABL&#45;SYMSG&#45;&gt;DTEL&#45;SYMSGTY</title>
<path fill="none" stroke="black" d="M1403.17,-575.97C1430.69,-566.19 1465.45,-553.84 1494.47,-543.52"/>
<polygon fill="black" stroke="black" points="1495.82,-546.76 1504.07,-540.11 1493.48,-540.16 1495.82,-546.76"/>
</g>
<!-- TABL&#45;SYMSG&#45;&gt;DTEL&#45;SYMSGV -->
<g id="edge68" class="edge">
<title>TABL&#45;SYMSG&#45;&gt;DTEL&#45;SYMSGV</title>
<path fill="none" stroke="black" d="M1356.96,-575.7C1357.73,-567.98 1358.66,-558.71 1359.52,-550.11"/>
<polygon fill="black" stroke="black" points="1363.01,-550.4 1360.52,-540.1 1356.04,-549.71 1363.01,-550.4"/>
</g>
<!-- INTF&#45;IF_XCO_PRINTABLE -->
<g id="node39" class="node">
<title>INTF&#45;IF_XCO_PRINTABLE</title>
<g id="a_node39"><a xlink:href="./INTF_IF_XCO_PRINTABLE.html" xlink:title="INTF&#45;IF_XCO_PRINTABLE">
<polygon fill="none" stroke="green" points="728.47,-684 543.98,-684 543.98,-648 728.47,-648 728.47,-684"/>
<text text-anchor="middle" x="636.23" y="-661.8" font-family="Times,serif" font-size="14.00">INTF&#45;IF_XCO_PRINTABLE</text>
</a>
</g>
</g>
<!-- CLAS&#45;CL_XCO_ENUM_CONSTANT&#45;&gt;INTF&#45;IF_XCO_PRINTABLE -->
<g id="edge69" class="edge">
<title>CLAS&#45;CL_XCO_ENUM_CONSTANT&#45;&gt;INTF&#45;IF_XCO_PRINTABLE</title>
<path fill="none" stroke="black" d="M743.51,-791.87C722.17,-767.03 682.49,-720.85 657.83,-692.14"/>
<polygon fill="black" stroke="black" points="660.17,-689.49 651,-684.19 654.86,-694.06 660.17,-689.49"/>
</g>
<!-- INTF&#45;IF_XCO_PRINTABLE&#45;&gt;INTF&#45;IF_XCO_TEXT -->
<g id="edge70" class="edge">
<title>INTF&#45;IF_XCO_PRINTABLE&#45;&gt;INTF&#45;IF_XCO_TEXT</title>
<path fill="none" stroke="black" d="M653.86,-647.85C692.8,-609.97 786.24,-519.08 831.21,-475.33"/>
<polygon fill="black" stroke="black" points="833.78,-477.71 838.51,-468.23 828.9,-472.7 833.78,-477.71"/>
</g>
<!-- CLAS&#45;XCO_CP_MESSAGE&#45;&gt;CLAS&#45;CL_XCO_CP_MESSAGE_TYPE_F -->
<g id="edge71" class="edge">
<title>CLAS&#45;XCO_CP_MESSAGE&#45;&gt;CLAS&#45;CL_XCO_CP_MESSAGE_TYPE_F</title>
<path fill="none" stroke="black" d="M1334.23,-900.1C1334.23,-907.79 1334.23,-917.05 1334.23,-925.67"/>
<polygon fill="black" stroke="black" points="1330.73,-925.7 1334.23,-935.7 1337.73,-925.7 1330.73,-925.7"/>
</g>
</g>
</svg>
