<?xml version="1.0" encoding="UTF-8" standalone="no"?>
<!DOCTYPE svg PUBLIC "-//W3C//DTD SVG 1.1//EN"
 "http://www.w3.org/Graphics/SVG/1.1/DTD/svg11.dtd">
<!-- Generated by graphviz version 2.47.3 (20210619.1520)
 -->
<!-- Title: G Pages: 1 -->
<svg width="3955pt" height="260pt"
 viewBox="0.00 0.00 3955.14 260.00" xmlns="http://www.w3.org/2000/svg" xmlns:xlink="http://www.w3.org/1999/xlink">
<g id="graph0" class="graph" transform="scale(1 1) rotate(0) translate(4 256)">
<title>G</title>
<polygon fill="white" stroke="transparent" points="-4,4 -4,-256 3951.14,-256 3951.14,4 -4,4"/>
<!-- CLAS&#45;CL_NUMBERRANGE_OBJECTS -->
<g id="node1" class="node">
<title>CLAS&#45;CL_NUMBERRANGE_OBJECTS</title>
<polygon fill="none" stroke="green" points="2837.64,-252 2582.57,-252 2582.57,-216 2837.64,-216 2837.64,-252"/>
<text text-anchor="middle" x="2710.11" y="-229.8" font-family="Times,serif" font-size="14.00">CLAS&#45;CL_NUMBERRANGE_OBJECTS</text>
</g>
<!-- TABL&#45;TNROT -->
<g id="node2" class="node">
<title>TABL&#45;TNROT</title>
<g id="a_node2"><a xlink:href="./TABL_TNROT.html" xlink:title="TABL&#45;TNROT">
<polygon fill="none" stroke="yellow" points="632.97,-180 529.24,-180 529.24,-144 632.97,-144 632.97,-180"/>
<text text-anchor="middle" x="581.11" y="-157.8" font-family="Times,serif" font-size="14.00">TABL&#45;TNROT</text>
</a>
</g>
</g>
<!-- CLAS&#45;CL_NUMBERRANGE_OBJECTS&#45;&gt;TABL&#45;TNROT -->
<g id="edge17" class="edge">
<title>CLAS&#45;CL_NUMBERRANGE_OBJECTS&#45;&gt;TABL&#45;TNROT</title>
<path fill="none" stroke="black" d="M2582.52,-228.8C2178.43,-215.52 936.32,-174.68 643.44,-165.05"/>
<polygon fill="black" stroke="black" points="643.13,-161.54 633.02,-164.71 642.9,-168.53 643.13,-161.54"/>
</g>
<!-- DTEL&#45;NROBJ -->
<g id="node14" class="node">
<title>DTEL&#45;NROBJ</title>
<g id="a_node14"><a xlink:href="./DTEL_NROBJ.html" xlink:title="DTEL&#45;NROBJ">
<polygon fill="none" stroke="yellow" points="1058.36,-108 957.85,-108 957.85,-72 1058.36,-72 1058.36,-108"/>
<text text-anchor="middle" x="1008.11" y="-85.8" font-family="Times,serif" font-size="14.00">DTEL&#45;NROBJ</text>
</a>
</g>
</g>
<!-- CLAS&#45;CL_NUMBERRANGE_OBJECTS&#45;&gt;DTEL&#45;NROBJ -->
<g id="edge5" class="edge">
<title>CLAS&#45;CL_NUMBERRANGE_OBJECTS&#45;&gt;DTEL&#45;NROBJ</title>
<path fill="none" stroke="black" d="M2582.43,-231.12C2370.76,-227.11 1934.01,-214.98 1566.11,-180 1346.31,-159.1 1287.87,-155.24 1068.42,-108.15"/>
<polygon fill="black" stroke="black" points="1069.04,-104.7 1058.52,-106.02 1067.56,-111.54 1069.04,-104.7"/>
</g>
<!-- TABL&#45;INOER -->
<g id="node18" class="node">
<title>TABL&#45;INOER</title>
<g id="a_node18"><a xlink:href="./TABL_INOER.html" xlink:title="TABL&#45;INOER">
<polygon fill="none" stroke="yellow" points="1675.08,-180 1575.14,-180 1575.14,-144 1675.08,-144 1675.08,-180"/>
<text text-anchor="middle" x="1625.11" y="-157.8" font-family="Times,serif" font-size="14.00">TABL&#45;INOER</text>
</a>
</g>
</g>
<!-- CLAS&#45;CL_NUMBERRANGE_OBJECTS&#45;&gt;TABL&#45;INOER -->
<g id="edge16" class="edge">
<title>CLAS&#45;CL_NUMBERRANGE_OBJECTS&#45;&gt;TABL&#45;INOER</title>
<path fill="none" stroke="black" d="M2582.48,-229.54C2397.36,-223.71 2043.72,-209.56 1744.11,-180 1724.92,-178.11 1704.08,-175.37 1685.28,-172.64"/>
<polygon fill="black" stroke="black" points="1685.77,-169.17 1675.37,-171.17 1684.75,-176.09 1685.77,-169.17"/>
</g>
<!-- DTEL&#45;ABAP_LANGUAGE_VERSION -->
<g id="node33" class="node">
<title>DTEL&#45;ABAP_LANGUAGE_VERSION</title>
<g id="a_node33"><a xlink:href="./DTEL_ABAP_LANGUAGE_VERSION.html" xlink:title="DTEL&#45;ABAP_LANGUAGE_VERSION">
<polygon fill="none" stroke="yellow" points="1999.26,-180 1752.95,-180 1752.95,-144 1999.26,-144 1999.26,-180"/>
<text text-anchor="middle" x="1876.11" y="-157.8" font-family="Times,serif" font-size="14.00">DTEL&#45;ABAP_LANGUAGE_VERSION</text>
</a>
</g>
</g>
<!-- CLAS&#45;CL_NUMBERRANGE_OBJECTS&#45;&gt;DTEL&#45;ABAP_LANGUAGE_VERSION -->
<g id="edge15" class="edge">
<title>CLAS&#45;CL_NUMBERRANGE_OBJECTS&#45;&gt;DTEL&#45;ABAP_LANGUAGE_VERSION</title>
<path fill="none" stroke="black" d="M2582.47,-225.39C2443.93,-216.67 2215.92,-200.96 2009.52,-180.11"/>
<polygon fill="black" stroke="black" points="2009.7,-176.62 1999.4,-179.09 2008.99,-183.58 2009.7,-176.62"/>
</g>
<!-- DTEL&#45;NRCHECKASCII -->
<g id="node35" class="node">
<title>DTEL&#45;NRCHECKASCII</title>
<g id="a_node35"><a xlink:href="./DTEL_NRCHECKASCII.html" xlink:title="DTEL&#45;NRCHECKASCII">
<polygon fill="none" stroke="yellow" points="2176.96,-180 2017.25,-180 2017.25,-144 2176.96,-144 2176.96,-180"/>
<text text-anchor="middle" x="2097.11" y="-157.8" font-family="Times,serif" font-size="14.00">DTEL&#45;NRCHECKASCII</text>
</a>
</g>
</g>
<!-- CLAS&#45;CL_NUMBERRANGE_OBJECTS&#45;&gt;DTEL&#45;NRCHECKASCII -->
<g id="edge14" class="edge">
<title>CLAS&#45;CL_NUMBERRANGE_OBJECTS&#45;&gt;DTEL&#45;NRCHECKASCII</title>
<path fill="none" stroke="black" d="M2582.39,-223.24C2478.55,-214.57 2328.06,-200.33 2187.23,-180.09"/>
<polygon fill="black" stroke="black" points="2187.5,-176.6 2177.11,-178.62 2186.5,-183.52 2187.5,-176.6"/>
</g>
<!-- DTEL&#45;NRSWAP -->
<g id="node37" class="node">
<title>DTEL&#45;NRSWAP</title>
<g id="a_node37"><a xlink:href="./DTEL_NRSWAP.html" xlink:title="DTEL&#45;NRSWAP">
<polygon fill="none" stroke="yellow" points="2309.36,-180 2194.85,-180 2194.85,-144 2309.36,-144 2309.36,-180"/>
<text text-anchor="middle" x="2252.11" y="-157.8" font-family="Times,serif" font-size="14.00">DTEL&#45;NRSWAP</text>
</a>
</g>
</g>
<!-- CLAS&#45;CL_NUMBERRANGE_OBJECTS&#45;&gt;DTEL&#45;NRSWAP -->
<g id="edge13" class="edge">
<title>CLAS&#45;CL_NUMBERRANGE_OBJECTS&#45;&gt;DTEL&#45;NRSWAP</title>
<path fill="none" stroke="black" d="M2582.28,-219.39C2508.23,-210.62 2413.12,-197.84 2319.34,-179.91"/>
<polygon fill="black" stroke="black" points="2319.88,-176.45 2309.39,-177.99 2318.55,-183.32 2319.88,-176.45"/>
</g>
<!-- DTEL&#45;NRIVBUFFER -->
<g id="node38" class="node">
<title>DTEL&#45;NRIVBUFFER</title>
<g id="a_node38"><a xlink:href="./DTEL_NRIVBUFFER.html" xlink:title="DTEL&#45;NRIVBUFFER">
<polygon fill="none" stroke="yellow" points="2627.64,-180 2484.57,-180 2484.57,-144 2627.64,-144 2627.64,-180"/>
<text text-anchor="middle" x="2556.11" y="-157.8" font-family="Times,serif" font-size="14.00">DTEL&#45;NRIVBUFFER</text>
</a>
</g>
</g>
<!-- CLAS&#45;CL_NUMBERRANGE_OBJECTS&#45;&gt;DTEL&#45;NRIVBUFFER -->
<g id="edge12" class="edge">
<title>CLAS&#45;CL_NUMBERRANGE_OBJECTS&#45;&gt;DTEL&#45;NRIVBUFFER</title>
<path fill="none" stroke="black" d="M2672.44,-215.88C2651.48,-206.35 2625.2,-194.41 2602.93,-184.28"/>
<polygon fill="black" stroke="black" points="2604.21,-181.02 2593.66,-180.07 2601.31,-187.39 2604.21,-181.02"/>
</g>
<!-- DTEL&#45;NRBUFFER -->
<g id="node40" class="node">
<title>DTEL&#45;NRBUFFER</title>
<g id="a_node40"><a xlink:href="./DTEL_NRBUFFER.html" xlink:title="DTEL&#45;NRBUFFER">
<polygon fill="none" stroke="yellow" points="2774.37,-180 2645.84,-180 2645.84,-144 2774.37,-144 2774.37,-180"/>
<text text-anchor="middle" x="2710.11" y="-157.8" font-family="Times,serif" font-size="14.00">DTEL&#45;NRBUFFER</text>
</a>
</g>
</g>
<!-- CLAS&#45;CL_NUMBERRANGE_OBJECTS&#45;&gt;DTEL&#45;NRBUFFER -->
<g id="edge11" class="edge">
<title>CLAS&#45;CL_NUMBERRANGE_OBJECTS&#45;&gt;DTEL&#45;NRBUFFER</title>
<path fill="none" stroke="black" d="M2710.11,-215.7C2710.11,-207.98 2710.11,-198.71 2710.11,-190.11"/>
<polygon fill="black" stroke="black" points="2713.61,-190.1 2710.11,-180.1 2706.61,-190.1 2713.61,-190.1"/>
</g>
<!-- DTEL&#45;NRCODE -->
<g id="node42" class="node">
<title>DTEL&#45;NRCODE</title>
<g id="a_node42"><a xlink:href="./DTEL_NRCODE.html" xlink:title="DTEL&#45;NRCODE">
<polygon fill="none" stroke="yellow" points="2906.08,-180 2792.14,-180 2792.14,-144 2906.08,-144 2906.08,-180"/>
<text text-anchor="middle" x="2849.11" y="-157.8" font-family="Times,serif" font-size="14.00">DTEL&#45;NRCODE</text>
</a>
</g>
</g>
<!-- CLAS&#45;CL_NUMBERRANGE_OBJECTS&#45;&gt;DTEL&#45;NRCODE -->
<g id="edge10" class="edge">
<title>CLAS&#45;CL_NUMBERRANGE_OBJECTS&#45;&gt;DTEL&#45;NRCODE</title>
<path fill="none" stroke="black" d="M2744.11,-215.88C2762.71,-206.51 2785.94,-194.81 2805.81,-184.8"/>
<polygon fill="black" stroke="black" points="2807.62,-187.81 2814.97,-180.19 2804.47,-181.56 2807.62,-187.81"/>
</g>
<!-- DTEL&#45;NRPERC -->
<g id="node44" class="node">
<title>DTEL&#45;NRPERC</title>
<g id="a_node44"><a xlink:href="./DTEL_NRPERC.html" xlink:title="DTEL&#45;NRPERC">
<polygon fill="none" stroke="yellow" points="3034.48,-180 2923.73,-180 2923.73,-144 3034.48,-144 3034.48,-180"/>
<text text-anchor="middle" x="2979.11" y="-157.8" font-family="Times,serif" font-size="14.00">DTEL&#45;NRPERC</text>
</a>
</g>
</g>
<!-- CLAS&#45;CL_NUMBERRANGE_OBJECTS&#45;&gt;DTEL&#45;NRPERC -->
<g id="edge9" class="edge">
<title>CLAS&#45;CL_NUMBERRANGE_OBJECTS&#45;&gt;DTEL&#45;NRPERC</title>
<path fill="none" stroke="black" d="M2776.61,-215.93C2814.31,-206.22 2862.61,-193.74 2913.7,-180.36"/>
<polygon fill="black" stroke="black" points="2914.82,-183.69 2923.61,-177.77 2913.05,-176.91 2914.82,-183.69"/>
</g>
<!-- DTEL&#45;NRLENDOM -->
<g id="node46" class="node">
<title>DTEL&#45;NRLENDOM</title>
<g id="a_node46"><a xlink:href="./DTEL_NRLENDOM.html" xlink:title="DTEL&#45;NRLENDOM">
<polygon fill="none" stroke="yellow" points="3187.85,-180 3052.37,-180 3052.37,-144 3187.85,-144 3187.85,-180"/>
<text text-anchor="middle" x="3120.11" y="-157.8" font-family="Times,serif" font-size="14.00">DTEL&#45;NRLENDOM</text>
</a>
</g>
</g>
<!-- CLAS&#45;CL_NUMBERRANGE_OBJECTS&#45;&gt;DTEL&#45;NRLENDOM -->
<g id="edge8" class="edge">
<title>CLAS&#45;CL_NUMBERRANGE_OBJECTS&#45;&gt;DTEL&#45;NRLENDOM</title>
<path fill="none" stroke="black" d="M2827.91,-216C2889.14,-206.74 2965.39,-194.56 3042.27,-180.1"/>
<polygon fill="black" stroke="black" points="3042.96,-183.54 3052.13,-178.24 3041.66,-176.66 3042.96,-183.54"/>
</g>
<!-- DTEL&#45;NRYEARIND -->
<g id="node48" class="node">
<title>DTEL&#45;NRYEARIND</title>
<g id="a_node48"><a xlink:href="./DTEL_NRYEARIND.html" xlink:title="DTEL&#45;NRYEARIND">
<polygon fill="none" stroke="yellow" points="2466.45,-180 2327.76,-180 2327.76,-144 2466.45,-144 2466.45,-180"/>
<text text-anchor="middle" x="2397.11" y="-157.8" font-family="Times,serif" font-size="14.00">DTEL&#45;NRYEARIND</text>
</a>
</g>
</g>
<!-- CLAS&#45;CL_NUMBERRANGE_OBJECTS&#45;&gt;DTEL&#45;NRYEARIND -->
<g id="edge7" class="edge">
<title>CLAS&#45;CL_NUMBERRANGE_OBJECTS&#45;&gt;DTEL&#45;NRYEARIND</title>
<path fill="none" stroke="black" d="M2633.94,-215.97C2586.2,-205.29 2524.78,-191.55 2476.45,-180.74"/>
<polygon fill="black" stroke="black" points="2477.18,-177.32 2466.65,-178.55 2475.65,-184.15 2477.18,-177.32"/>
</g>
<!-- DTEL&#45;NRSOBJNAM -->
<g id="node49" class="node">
<title>DTEL&#45;NRSOBJNAM</title>
<g id="a_node49"><a xlink:href="./DTEL_NRSOBJNAM.html" xlink:title="DTEL&#45;NRSOBJNAM">
<polygon fill="none" stroke="yellow" points="3349.8,-180 3208.41,-180 3208.41,-144 3349.8,-144 3349.8,-180"/>
<text text-anchor="middle" x="3279.11" y="-157.8" font-family="Times,serif" font-size="14.00">DTEL&#45;NRSOBJNAM</text>
</a>
</g>
</g>
<!-- CLAS&#45;CL_NUMBERRANGE_OBJECTS&#45;&gt;DTEL&#45;NRSOBJNAM -->
<g id="edge6" class="edge">
<title>CLAS&#45;CL_NUMBERRANGE_OBJECTS&#45;&gt;DTEL&#45;NRSOBJNAM</title>
<path fill="none" stroke="black" d="M2837.7,-222.49C2936.2,-213.56 3075.71,-199.14 3197.11,-180 3197.44,-179.95 3197.78,-179.89 3198.12,-179.84"/>
<polygon fill="black" stroke="black" points="3198.79,-183.28 3208.07,-178.16 3197.63,-176.37 3198.79,-183.28"/>
</g>
<!-- DTEL&#45;TRKORR -->
<g id="node51" class="node">
<title>DTEL&#45;TRKORR</title>
<g id="a_node51"><a xlink:href="./DTEL_TRKORR.html" xlink:title="DTEL&#45;TRKORR">
<polygon fill="none" stroke="yellow" points="3485.81,-180 3372.41,-180 3372.41,-144 3485.81,-144 3485.81,-180"/>
<text text-anchor="middle" x="3429.11" y="-157.8" font-family="Times,serif" font-size="14.00">DTEL&#45;TRKORR</text>
</a>
</g>
</g>
<!-- CLAS&#45;CL_NUMBERRANGE_OBJECTS&#45;&gt;DTEL&#45;TRKORR -->
<g id="edge4" class="edge">
<title>CLAS&#45;CL_NUMBERRANGE_OBJECTS&#45;&gt;DTEL&#45;TRKORR</title>
<path fill="none" stroke="black" d="M2837.66,-228.49C2969.05,-222.47 3179.42,-208.97 3359.11,-180 3360.19,-179.83 3361.28,-179.64 3362.37,-179.45"/>
<polygon fill="black" stroke="black" points="3363.16,-182.87 3372.34,-177.58 3361.86,-175.99 3363.16,-182.87"/>
</g>
<!-- DTEL&#45;DEVCLASS -->
<g id="node53" class="node">
<title>DTEL&#45;DEVCLASS</title>
<g id="a_node53"><a xlink:href="./DTEL_DEVCLASS.html" xlink:title="DTEL&#45;DEVCLASS">
<polygon fill="none" stroke="yellow" points="3638.36,-180 3509.86,-180 3509.86,-144 3638.36,-144 3638.36,-180"/>
<text text-anchor="middle" x="3574.11" y="-157.8" font-family="Times,serif" font-size="14.00">DTEL&#45;DEVCLASS</text>
</a>
</g>
</g>
<!-- CLAS&#45;CL_NUMBERRANGE_OBJECTS&#45;&gt;DTEL&#45;DEVCLASS -->
<g id="edge3" class="edge">
<title>CLAS&#45;CL_NUMBERRANGE_OBJECTS&#45;&gt;DTEL&#45;DEVCLASS</title>
<path fill="none" stroke="black" d="M2837.82,-230.04C2993.65,-225.13 3264.82,-212.38 3495.11,-180 3496.58,-179.79 3498.07,-179.57 3499.57,-179.34"/>
<polygon fill="black" stroke="black" points="3500.28,-182.77 3509.57,-177.68 3499.14,-175.87 3500.28,-182.77"/>
</g>
<!-- DTEL&#45;CHAR1 -->
<g id="node55" class="node">
<title>DTEL&#45;CHAR1</title>
<g id="a_node55"><a xlink:href="./DTEL_CHAR1.html" xlink:title="DTEL&#45;CHAR1">
<polygon fill="none" stroke="yellow" points="3766.42,-180 3663.8,-180 3663.8,-144 3766.42,-144 3766.42,-180"/>
<text text-anchor="middle" x="3715.11" y="-157.8" font-family="Times,serif" font-size="14.00">DTEL&#45;CHAR1</text>
</a>
</g>
</g>
<!-- CLAS&#45;CL_NUMBERRANGE_OBJECTS&#45;&gt;DTEL&#45;CHAR1 -->
<g id="edge2" class="edge">
<title>CLAS&#45;CL_NUMBERRANGE_OBJECTS&#45;&gt;DTEL&#45;CHAR1</title>
<path fill="none" stroke="black" d="M2837.82,-233.37C3018.9,-232.18 3360.17,-223.58 3647.11,-180 3649.31,-179.67 3651.54,-179.29 3653.79,-178.89"/>
<polygon fill="black" stroke="black" points="3654.57,-182.3 3663.71,-176.93 3653.22,-175.43 3654.57,-182.3"/>
</g>
<!-- DTEL&#45;ACTIV_AUTH -->
<g id="node57" class="node">
<title>DTEL&#45;ACTIV_AUTH</title>
<g id="a_node57"><a xlink:href="./DTEL_ACTIV_AUTH.html" xlink:title="DTEL&#45;ACTIV_AUTH">
<polygon fill="none" stroke="green" points="3936.67,-180 3791.55,-180 3791.55,-144 3936.67,-144 3936.67,-180"/>
<text text-anchor="middle" x="3864.11" y="-157.8" font-family="Times,serif" font-size="14.00">DTEL&#45;ACTIV_AUTH</text>
</a>
</g>
</g>
<!-- CLAS&#45;CL_NUMBERRANGE_OBJECTS&#45;&gt;DTEL&#45;ACTIV_AUTH -->
<g id="edge1" class="edge">
<title>CLAS&#45;CL_NUMBERRANGE_OBJECTS&#45;&gt;DTEL&#45;ACTIV_AUTH</title>
<path fill="none" stroke="black" d="M2838.05,-232.36C3038.51,-230.08 3438.51,-220.32 3775.11,-180 3777.18,-179.75 3779.28,-179.48 3781.4,-179.2"/>
<polygon fill="black" stroke="black" points="3781.99,-182.65 3791.38,-177.74 3780.98,-175.72 3781.99,-182.65"/>
</g>
<!-- DTEL&#45;AUTHOR -->
<g id="node3" class="node">
<title>DTEL&#45;AUTHOR</title>
<g id="a_node3"><a xlink:href="./DTEL_AUTHOR.html" xlink:title="DTEL&#45;AUTHOR">
<polygon fill="none" stroke="yellow" points="235.35,-108 120.87,-108 120.87,-72 235.35,-72 235.35,-108"/>
<text text-anchor="middle" x="178.11" y="-85.8" font-family="Times,serif" font-size="14.00">DTEL&#45;AUTHOR</text>
</a>
</g>
</g>
<!-- TABL&#45;TNROT&#45;&gt;DTEL&#45;AUTHOR -->
<g id="edge25" class="edge">
<title>TABL&#45;TNROT&#45;&gt;DTEL&#45;AUTHOR</title>
<path fill="none" stroke="black" d="M529.16,-154.41C464.74,-145.88 351.42,-129.75 245.52,-108.2"/>
<polygon fill="black" stroke="black" points="246.12,-104.75 235.62,-106.16 244.72,-111.6 246.12,-104.75"/>
</g>
<!-- DTEL&#45;AS4TIME -->
<g id="node5" class="node">
<title>DTEL&#45;AS4TIME</title>
<g id="a_node5"><a xlink:href="./DTEL_AS4TIME.html" xlink:title="DTEL&#45;AS4TIME">
<polygon fill="none" stroke="yellow" points="503.63,-108 388.58,-108 388.58,-72 503.63,-72 503.63,-108"/>
<text text-anchor="middle" x="446.11" y="-85.8" font-family="Times,serif" font-size="14.00">DTEL&#45;AS4TIME</text>
</a>
</g>
</g>
<!-- TABL&#45;TNROT&#45;&gt;DTEL&#45;AS4TIME -->
<g id="edge24" class="edge">
<title>TABL&#45;TNROT&#45;&gt;DTEL&#45;AS4TIME</title>
<path fill="none" stroke="black" d="M548.08,-143.88C530.02,-134.51 507.46,-122.81 488.16,-112.8"/>
<polygon fill="black" stroke="black" points="489.75,-109.69 479.26,-108.19 486.53,-115.9 489.75,-109.69"/>
</g>
<!-- DTEL&#45;AS4DATE -->
<g id="node7" class="node">
<title>DTEL&#45;AS4DATE</title>
<g id="a_node7"><a xlink:href="./DTEL_AS4DATE.html" xlink:title="DTEL&#45;AS4DATE">
<polygon fill="none" stroke="yellow" points="640.24,-108 521.97,-108 521.97,-72 640.24,-72 640.24,-108"/>
<text text-anchor="middle" x="581.11" y="-85.8" font-family="Times,serif" font-size="14.00">DTEL&#45;AS4DATE</text>
</a>
</g>
</g>
<!-- TABL&#45;TNROT&#45;&gt;DTEL&#45;AS4DATE -->
<g id="edge23" class="edge">
<title>TABL&#45;TNROT&#45;&gt;DTEL&#45;AS4DATE</title>
<path fill="none" stroke="black" d="M581.11,-143.7C581.11,-135.98 581.11,-126.71 581.11,-118.11"/>
<polygon fill="black" stroke="black" points="584.61,-118.1 581.11,-108.1 577.61,-118.1 584.61,-118.1"/>
</g>
<!-- DTEL&#45;AS4USER -->
<g id="node9" class="node">
<title>DTEL&#45;AS4USER</title>
<g id="a_node9"><a xlink:href="./DTEL_AS4USER.html" xlink:title="DTEL&#45;AS4USER">
<polygon fill="none" stroke="yellow" points="370.7,-108 253.52,-108 253.52,-72 370.7,-72 370.7,-108"/>
<text text-anchor="middle" x="312.11" y="-85.8" font-family="Times,serif" font-size="14.00">DTEL&#45;AS4USER</text>
</a>
</g>
</g>
<!-- TABL&#45;TNROT&#45;&gt;DTEL&#45;AS4USER -->
<g id="edge22" class="edge">
<title>TABL&#45;TNROT&#45;&gt;DTEL&#45;AS4USER</title>
<path fill="none" stroke="black" d="M529.24,-147.5C487,-136.51 427,-120.9 380.77,-108.87"/>
<polygon fill="black" stroke="black" points="381.39,-105.41 370.83,-106.28 379.63,-112.19 381.39,-105.41"/>
</g>
<!-- DTEL&#45;NROBJSTXT -->
<g id="node10" class="node">
<title>DTEL&#45;NROBJSTXT</title>
<g id="a_node10"><a xlink:href="./DTEL_NROBJSTXT.html" xlink:title="DTEL&#45;NROBJSTXT">
<polygon fill="none" stroke="yellow" points="793.86,-108 658.36,-108 658.36,-72 793.86,-72 793.86,-108"/>
<text text-anchor="middle" x="726.11" y="-85.8" font-family="Times,serif" font-size="14.00">DTEL&#45;NROBJSTXT</text>
</a>
</g>
</g>
<!-- TABL&#45;TNROT&#45;&gt;DTEL&#45;NROBJSTXT -->
<g id="edge21" class="edge">
<title>TABL&#45;TNROT&#45;&gt;DTEL&#45;NROBJSTXT</title>
<path fill="none" stroke="black" d="M616.58,-143.88C636.23,-134.39 660.83,-122.51 681.74,-112.42"/>
<polygon fill="black" stroke="black" points="683.27,-115.57 690.75,-108.07 680.23,-109.26 683.27,-115.57"/>
</g>
<!-- DTEL&#45;NROBJTXT -->
<g id="node12" class="node">
<title>DTEL&#45;NROBJTXT</title>
<g id="a_node12"><a xlink:href="./DTEL_NROBJTXT.html" xlink:title="DTEL&#45;NROBJTXT">
<polygon fill="none" stroke="yellow" points="940.08,-108 812.14,-108 812.14,-72 940.08,-72 940.08,-108"/>
<text text-anchor="middle" x="876.11" y="-85.8" font-family="Times,serif" font-size="14.00">DTEL&#45;NROBJTXT</text>
</a>
</g>
</g>
<!-- TABL&#45;TNROT&#45;&gt;DTEL&#45;NROBJTXT -->
<g id="edge20" class="edge">
<title>TABL&#45;TNROT&#45;&gt;DTEL&#45;NROBJTXT</title>
<path fill="none" stroke="black" d="M633.17,-148.65C680.02,-137.53 749.38,-121.07 802.01,-108.58"/>
<polygon fill="black" stroke="black" points="803.05,-111.93 811.97,-106.22 801.43,-105.12 803.05,-111.93"/>
</g>
<!-- TABL&#45;TNROT&#45;&gt;DTEL&#45;NROBJ -->
<g id="edge19" class="edge">
<title>TABL&#45;TNROT&#45;&gt;DTEL&#45;NROBJ</title>
<path fill="none" stroke="black" d="M633.01,-155.8C702.67,-148.32 830.34,-132.86 947.81,-108.13"/>
<polygon fill="black" stroke="black" points="948.64,-111.53 957.69,-106.02 947.18,-104.68 948.64,-111.53"/>
</g>
<!-- DTEL&#45;SPRAS -->
<g id="node16" class="node">
<title>DTEL&#45;SPRAS</title>
<g id="a_node16"><a xlink:href="./DTEL_SPRAS.html" xlink:title="DTEL&#45;SPRAS">
<polygon fill="none" stroke="green" points="102.82,-108 3.39,-108 3.39,-72 102.82,-72 102.82,-108"/>
<text text-anchor="middle" x="53.11" y="-85.8" font-family="Times,serif" font-size="14.00">DTEL&#45;SPRAS</text>
</a>
</g>
</g>
<!-- TABL&#45;TNROT&#45;&gt;DTEL&#45;SPRAS -->
<g id="edge18" class="edge">
<title>TABL&#45;TNROT&#45;&gt;DTEL&#45;SPRAS</title>
<path fill="none" stroke="black" d="M528.97,-157.98C443.79,-152.42 269.48,-138.42 113.13,-108"/>
<polygon fill="black" stroke="black" points="113.35,-104.47 102.86,-105.97 111.99,-111.34 113.35,-104.47"/>
</g>
<!-- DOMA&#45;AS4USER -->
<g id="node4" class="node">
<title>DOMA&#45;AS4USER</title>
<g id="a_node4"><a xlink:href="./DOMA_AS4USER.html" xlink:title="DOMA&#45;AS4USER">
<polygon fill="none" stroke="yellow" points="307.2,-36 183.02,-36 183.02,0 307.2,0 307.2,-36"/>
<text text-anchor="middle" x="245.11" y="-13.8" font-family="Times,serif" font-size="14.00">DOMA&#45;AS4USER</text>
</a>
</g>
</g>
<!-- DTEL&#45;AUTHOR&#45;&gt;DOMA&#45;AS4USER -->
<g id="edge26" class="edge">
<title>DTEL&#45;AUTHOR&#45;&gt;DOMA&#45;AS4USER</title>
<path fill="none" stroke="black" d="M194.67,-71.7C202.78,-63.22 212.7,-52.86 221.58,-43.58"/>
<polygon fill="black" stroke="black" points="224.35,-45.75 228.74,-36.1 219.29,-40.91 224.35,-45.75"/>
</g>
<!-- DOMA&#45;AS4TIME -->
<g id="node6" class="node">
<title>DOMA&#45;AS4TIME</title>
<g id="a_node6"><a xlink:href="./DOMA_AS4TIME.html" xlink:title="DOMA&#45;AS4TIME">
<polygon fill="none" stroke="yellow" points="503.13,-36 381.08,-36 381.08,0 503.13,0 503.13,-36"/>
<text text-anchor="middle" x="442.11" y="-13.8" font-family="Times,serif" font-size="14.00">DOMA&#45;AS4TIME</text>
</a>
</g>
</g>
<!-- DTEL&#45;AS4TIME&#45;&gt;DOMA&#45;AS4TIME -->
<g id="edge27" class="edge">
<title>DTEL&#45;AS4TIME&#45;&gt;DOMA&#45;AS4TIME</title>
<path fill="none" stroke="black" d="M445.12,-71.7C444.68,-63.98 444.15,-54.71 443.66,-46.11"/>
<polygon fill="black" stroke="black" points="447.15,-45.89 443.09,-36.1 440.16,-46.29 447.15,-45.89"/>
</g>
<!-- DOMA&#45;AS4DATE -->
<g id="node8" class="node">
<title>DOMA&#45;AS4DATE</title>
<g id="a_node8"><a xlink:href="./DOMA_AS4DATE.html" xlink:title="DOMA&#45;AS4DATE">
<polygon fill="none" stroke="yellow" points="646.74,-36 521.47,-36 521.47,0 646.74,0 646.74,-36"/>
<text text-anchor="middle" x="584.11" y="-13.8" font-family="Times,serif" font-size="14.00">DOMA&#45;AS4DATE</text>
</a>
</g>
</g>
<!-- DTEL&#45;AS4DATE&#45;&gt;DOMA&#45;AS4DATE -->
<g id="edge28" class="edge">
<title>DTEL&#45;AS4DATE&#45;&gt;DOMA&#45;AS4DATE</title>
<path fill="none" stroke="black" d="M581.85,-71.7C582.18,-63.98 582.58,-54.71 582.95,-46.11"/>
<polygon fill="black" stroke="black" points="586.44,-46.25 583.37,-36.1 579.45,-45.95 586.44,-46.25"/>
</g>
<!-- DTEL&#45;AS4USER&#45;&gt;DOMA&#45;AS4USER -->
<g id="edge29" class="edge">
<title>DTEL&#45;AS4USER&#45;&gt;DOMA&#45;AS4USER</title>
<path fill="none" stroke="black" d="M295.55,-71.7C287.43,-63.22 277.52,-52.86 268.64,-43.58"/>
<polygon fill="black" stroke="black" points="270.92,-40.91 261.48,-36.1 265.87,-45.75 270.92,-40.91"/>
</g>
<!-- DOMA&#45;TEXT20 -->
<g id="node11" class="node">
<title>DOMA&#45;TEXT20</title>
<g id="a_node11"><a xlink:href="./DOMA_TEXT20.html" xlink:title="DOMA&#45;TEXT20">
<polygon fill="none" stroke="yellow" points="782.8,-36 669.42,-36 669.42,0 782.8,0 782.8,-36"/>
<text text-anchor="middle" x="726.11" y="-13.8" font-family="Times,serif" font-size="14.00">DOMA&#45;TEXT20</text>
</a>
</g>
</g>
<!-- DTEL&#45;NROBJSTXT&#45;&gt;DOMA&#45;TEXT20 -->
<g id="edge30" class="edge">
<title>DTEL&#45;NROBJSTXT&#45;&gt;DOMA&#45;TEXT20</title>
<path fill="none" stroke="black" d="M726.11,-71.7C726.11,-63.98 726.11,-54.71 726.11,-46.11"/>
<polygon fill="black" stroke="black" points="729.61,-46.1 726.11,-36.1 722.61,-46.1 729.61,-46.1"/>
</g>
<!-- DOMA&#45;TEXT60 -->
<g id="node13" class="node">
<title>DOMA&#45;TEXT60</title>
<g id="a_node13"><a xlink:href="./DOMA_TEXT60.html" xlink:title="DOMA&#45;TEXT60">
<polygon fill="none" stroke="yellow" points="932.8,-36 819.42,-36 819.42,0 932.8,0 932.8,-36"/>
<text text-anchor="middle" x="876.11" y="-13.8" font-family="Times,serif" font-size="14.00">DOMA&#45;TEXT60</text>
</a>
</g>
</g>
<!-- DTEL&#45;NROBJTXT&#45;&gt;DOMA&#45;TEXT60 -->
<g id="edge31" class="edge">
<title>DTEL&#45;NROBJTXT&#45;&gt;DOMA&#45;TEXT60</title>
<path fill="none" stroke="black" d="M876.11,-71.7C876.11,-63.98 876.11,-54.71 876.11,-46.11"/>
<polygon fill="black" stroke="black" points="879.61,-46.1 876.11,-36.1 872.61,-46.1 879.61,-46.1"/>
</g>
<!-- DOMA&#45;NROBJ -->
<g id="node15" class="node">
<title>DOMA&#45;NROBJ</title>
<g id="a_node15"><a xlink:href="./DOMA_NROBJ.html" xlink:title="DOMA&#45;NROBJ">
<polygon fill="none" stroke="yellow" points="1061.86,-36 954.35,-36 954.35,0 1061.86,0 1061.86,-36"/>
<text text-anchor="middle" x="1008.11" y="-13.8" font-family="Times,serif" font-size="14.00">DOMA&#45;NROBJ</text>
</a>
</g>
</g>
<!-- DTEL&#45;NROBJ&#45;&gt;DOMA&#45;NROBJ -->
<g id="edge32" class="edge">
<title>DTEL&#45;NROBJ&#45;&gt;DOMA&#45;NROBJ</title>
<path fill="none" stroke="black" d="M1008.11,-71.7C1008.11,-63.98 1008.11,-54.71 1008.11,-46.11"/>
<polygon fill="black" stroke="black" points="1011.61,-46.1 1008.11,-36.1 1004.61,-46.1 1011.61,-46.1"/>
</g>
<!-- DOMA&#45;SPRAS -->
<g id="node17" class="node">
<title>DOMA&#45;SPRAS</title>
<g id="a_node17"><a xlink:href="./DOMA_SPRAS.html" xlink:title="DOMA&#45;SPRAS">
<polygon fill="none" stroke="green" points="106.32,-36 -0.11,-36 -0.11,0 106.32,0 106.32,-36"/>
<text text-anchor="middle" x="53.11" y="-13.8" font-family="Times,serif" font-size="14.00">DOMA&#45;SPRAS</text>
</a>
</g>
</g>
<!-- DTEL&#45;SPRAS&#45;&gt;DOMA&#45;SPRAS -->
<g id="edge33" class="edge">
<title>DTEL&#45;SPRAS&#45;&gt;DOMA&#45;SPRAS</title>
<path fill="none" stroke="black" d="M53.11,-71.7C53.11,-63.98 53.11,-54.71 53.11,-46.11"/>
<polygon fill="black" stroke="black" points="56.61,-46.1 53.11,-36.1 49.61,-46.1 56.61,-46.1"/>
</g>
<!-- DTEL&#45;CHAR10 -->
<g id="node19" class="node">
<title>DTEL&#45;CHAR10</title>
<g id="a_node19"><a xlink:href="./DTEL_CHAR10.html" xlink:title="DTEL&#45;CHAR10">
<polygon fill="none" stroke="yellow" points="1322.92,-108 1213.3,-108 1213.3,-72 1322.92,-72 1322.92,-108"/>
<text text-anchor="middle" x="1268.11" y="-85.8" font-family="Times,serif" font-size="14.00">DTEL&#45;CHAR10</text>
</a>
</g>
</g>
<!-- TABL&#45;INOER&#45;&gt;DTEL&#45;CHAR10 -->
<g id="edge40" class="edge">
<title>TABL&#45;INOER&#45;&gt;DTEL&#45;CHAR10</title>
<path fill="none" stroke="black" d="M1574.91,-153.29C1518.24,-144.28 1423.11,-128.27 1332.86,-108.31"/>
<polygon fill="black" stroke="black" points="1333.54,-104.87 1323.01,-106.11 1332.01,-111.71 1333.54,-104.87"/>
</g>
<!-- DTEL&#45;FIELDNAME -->
<g id="node21" class="node">
<title>DTEL&#45;FIELDNAME</title>
<g id="a_node21"><a xlink:href="./DTEL_FIELDNAME.html" xlink:title="DTEL&#45;FIELDNAME">
<polygon fill="none" stroke="yellow" points="1477.9,-108 1340.32,-108 1340.32,-72 1477.9,-72 1477.9,-108"/>
<text text-anchor="middle" x="1409.11" y="-85.8" font-family="Times,serif" font-size="14.00">DTEL&#45;FIELDNAME</text>
</a>
</g>
</g>
<!-- TABL&#45;INOER&#45;&gt;DTEL&#45;FIELDNAME -->
<g id="edge39" class="edge">
<title>TABL&#45;INOER&#45;&gt;DTEL&#45;FIELDNAME</title>
<path fill="none" stroke="black" d="M1575.01,-144.76C1544.04,-134.73 1504.06,-121.77 1471.11,-111.09"/>
<polygon fill="black" stroke="black" points="1472.16,-107.75 1461.57,-108 1470,-114.41 1472.16,-107.75"/>
</g>
<!-- DTEL&#45;PARAMETER -->
<g id="node23" class="node">
<title>DTEL&#45;PARAMETER</title>
<g id="a_node23"><a xlink:href="./DTEL_PARAMETER.html" xlink:title="DTEL&#45;PARAMETER">
<polygon fill="none" stroke="yellow" points="1636.8,-108 1495.41,-108 1495.41,-72 1636.8,-72 1636.8,-108"/>
<text text-anchor="middle" x="1566.11" y="-85.8" font-family="Times,serif" font-size="14.00">DTEL&#45;PARAMETER</text>
</a>
</g>
</g>
<!-- TABL&#45;INOER&#45;&gt;DTEL&#45;PARAMETER -->
<g id="edge38" class="edge">
<title>TABL&#45;INOER&#45;&gt;DTEL&#45;PARAMETER</title>
<path fill="none" stroke="black" d="M1610.52,-143.7C1603.45,-135.3 1594.82,-125.07 1587.06,-115.86"/>
<polygon fill="black" stroke="black" points="1589.65,-113.49 1580.52,-108.1 1584.29,-118.01 1589.65,-113.49"/>
</g>
<!-- DTEL&#45;SYMSGV -->
<g id="node25" class="node">
<title>DTEL&#45;SYMSGV</title>
<g id="a_node25"><a xlink:href="./DTEL_SYMSGV.html" xlink:title="DTEL&#45;SYMSGV">
<polygon fill="none" stroke="green" points="1769.36,-108 1654.85,-108 1654.85,-72 1769.36,-72 1769.36,-108"/>
<text text-anchor="middle" x="1712.11" y="-85.8" font-family="Times,serif" font-size="14.00">DTEL&#45;SYMSGV</text>
</a>
</g>
</g>
<!-- TABL&#45;INOER&#45;&gt;DTEL&#45;SYMSGV -->
<g id="edge37" class="edge">
<title>TABL&#45;INOER&#45;&gt;DTEL&#45;SYMSGV</title>
<path fill="none" stroke="black" d="M1646.61,-143.7C1657.57,-134.88 1671.05,-124.03 1682.93,-114.47"/>
<polygon fill="black" stroke="black" points="1685.25,-117.1 1690.85,-108.1 1680.86,-111.65 1685.25,-117.1"/>
</g>
<!-- DTEL&#45;SYMSGNO -->
<g id="node27" class="node">
<title>DTEL&#45;SYMSGNO</title>
<g id="a_node27"><a xlink:href="./DTEL_SYMSGNO.html" xlink:title="DTEL&#45;SYMSGNO">
<polygon fill="none" stroke="green" points="1912.47,-108 1787.75,-108 1787.75,-72 1912.47,-72 1912.47,-108"/>
<text text-anchor="middle" x="1850.11" y="-85.8" font-family="Times,serif" font-size="14.00">DTEL&#45;SYMSGNO</text>
</a>
</g>
</g>
<!-- TABL&#45;INOER&#45;&gt;DTEL&#45;SYMSGNO -->
<g id="edge36" class="edge">
<title>TABL&#45;INOER&#45;&gt;DTEL&#45;SYMSGNO</title>
<path fill="none" stroke="black" d="M1675.32,-145.38C1707.88,-135.25 1750.6,-121.96 1785.65,-111.05"/>
<polygon fill="black" stroke="black" points="1786.81,-114.36 1795.32,-108.04 1784.73,-107.67 1786.81,-114.36"/>
</g>
<!-- DTEL&#45;SYMSGTY -->
<g id="node29" class="node">
<title>DTEL&#45;SYMSGTY</title>
<g id="a_node29"><a xlink:href="./DTEL_SYMSGTY.html" xlink:title="DTEL&#45;SYMSGTY">
<polygon fill="none" stroke="green" points="2053.92,-108 1930.3,-108 1930.3,-72 2053.92,-72 2053.92,-108"/>
<text text-anchor="middle" x="1992.11" y="-85.8" font-family="Times,serif" font-size="14.00">DTEL&#45;SYMSGTY</text>
</a>
</g>
</g>
<!-- TABL&#45;INOER&#45;&gt;DTEL&#45;SYMSGTY -->
<g id="edge35" class="edge">
<title>TABL&#45;INOER&#45;&gt;DTEL&#45;SYMSGTY</title>
<path fill="none" stroke="black" d="M1675.29,-152.92C1732.24,-143.56 1828.09,-127.18 1920.15,-108.14"/>
<polygon fill="black" stroke="black" points="1921.12,-111.51 1930.2,-106.05 1919.7,-104.66 1921.12,-111.51"/>
</g>
<!-- DTEL&#45;SYMSGID -->
<g id="node31" class="node">
<title>DTEL&#45;SYMSGID</title>
<g id="a_node31"><a xlink:href="./DTEL_SYMSGID.html" xlink:title="DTEL&#45;SYMSGID">
<polygon fill="none" stroke="green" points="1196.02,-108 1076.19,-108 1076.19,-72 1196.02,-72 1196.02,-108"/>
<text text-anchor="middle" x="1136.11" y="-85.8" font-family="Times,serif" font-size="14.00">DTEL&#45;SYMSGID</text>
</a>
</g>
</g>
<!-- TABL&#45;INOER&#45;&gt;DTEL&#45;SYMSGID -->
<g id="edge34" class="edge">
<title>TABL&#45;INOER&#45;&gt;DTEL&#45;SYMSGID</title>
<path fill="none" stroke="black" d="M1574.91,-156.64C1497.53,-149.49 1344.37,-133.65 1206.03,-108.25"/>
<polygon fill="black" stroke="black" points="1206.56,-104.79 1196.09,-106.41 1205.28,-111.68 1206.56,-104.79"/>
</g>
<!-- DOMA&#45;CHAR10 -->
<g id="node20" class="node">
<title>DOMA&#45;CHAR10</title>
<g id="a_node20"><a xlink:href="./DOMA_CHAR10.html" xlink:title="DOMA&#45;CHAR10">
<polygon fill="none" stroke="yellow" points="1326.42,-36 1209.8,-36 1209.8,0 1326.42,0 1326.42,-36"/>
<text text-anchor="middle" x="1268.11" y="-13.8" font-family="Times,serif" font-size="14.00">DOMA&#45;CHAR10</text>
</a>
</g>
</g>
<!-- DTEL&#45;CHAR10&#45;&gt;DOMA&#45;CHAR10 -->
<g id="edge41" class="edge">
<title>DTEL&#45;CHAR10&#45;&gt;DOMA&#45;CHAR10</title>
<path fill="none" stroke="black" d="M1268.11,-71.7C1268.11,-63.98 1268.11,-54.71 1268.11,-46.11"/>
<polygon fill="black" stroke="black" points="1271.61,-46.1 1268.11,-36.1 1264.61,-46.1 1271.61,-46.1"/>
</g>
<!-- DOMA&#45;FDNAME -->
<g id="node22" class="node">
<title>DOMA&#45;FDNAME</title>
<g id="a_node22"><a xlink:href="./DOMA_FDNAME.html" xlink:title="DOMA&#45;FDNAME">
<polygon fill="none" stroke="yellow" points="1466.13,-36 1344.08,-36 1344.08,0 1466.13,0 1466.13,-36"/>
<text text-anchor="middle" x="1405.11" y="-13.8" font-family="Times,serif" font-size="14.00">DOMA&#45;FDNAME</text>
</a>
</g>
</g>
<!-- DTEL&#45;FIELDNAME&#45;&gt;DOMA&#45;FDNAME -->
<g id="edge42" class="edge">
<title>DTEL&#45;FIELDNAME&#45;&gt;DOMA&#45;FDNAME</title>
<path fill="none" stroke="black" d="M1408.12,-71.7C1407.68,-63.98 1407.15,-54.71 1406.66,-46.11"/>
<polygon fill="black" stroke="black" points="1410.15,-45.89 1406.09,-36.1 1403.16,-46.29 1410.15,-45.89"/>
</g>
<!-- DOMA&#45;LPARAMETER -->
<g id="node24" class="node">
<title>DOMA&#45;LPARAMETER</title>
<g id="a_node24"><a xlink:href="./DOMA_LPARAMETER.html" xlink:title="DOMA&#45;LPARAMETER">
<polygon fill="none" stroke="yellow" points="1641.36,-36 1484.86,-36 1484.86,0 1641.36,0 1641.36,-36"/>
<text text-anchor="middle" x="1563.11" y="-13.8" font-family="Times,serif" font-size="14.00">DOMA&#45;LPARAMETER</text>
</a>
</g>
</g>
<!-- DTEL&#45;PARAMETER&#45;&gt;DOMA&#45;LPARAMETER -->
<g id="edge43" class="edge">
<title>DTEL&#45;PARAMETER&#45;&gt;DOMA&#45;LPARAMETER</title>
<path fill="none" stroke="black" d="M1565.37,-71.7C1565.04,-63.98 1564.64,-54.71 1564.27,-46.11"/>
<polygon fill="black" stroke="black" points="1567.77,-45.95 1563.84,-36.1 1560.77,-46.25 1567.77,-45.95"/>
</g>
<!-- DOMA&#45;SYCHAR50 -->
<g id="node26" class="node">
<title>DOMA&#45;SYCHAR50</title>
<g id="a_node26"><a xlink:href="./DOMA_SYCHAR50.html" xlink:title="DOMA&#45;SYCHAR50">
<polygon fill="none" stroke="yellow" points="1793.31,-36 1658.91,-36 1658.91,0 1793.31,0 1793.31,-36"/>
<text text-anchor="middle" x="1726.11" y="-13.8" font-family="Times,serif" font-size="14.00">DOMA&#45;SYCHAR50</text>
</a>
</g>
</g>
<!-- DTEL&#45;SYMSGV&#45;&gt;DOMA&#45;SYCHAR50 -->
<g id="edge44" class="edge">
<title>DTEL&#45;SYMSGV&#45;&gt;DOMA&#45;SYCHAR50</title>
<path fill="none" stroke="black" d="M1715.57,-71.7C1717.11,-63.98 1718.97,-54.71 1720.69,-46.11"/>
<polygon fill="black" stroke="black" points="1724.16,-46.6 1722.69,-36.1 1717.29,-45.22 1724.16,-46.6"/>
</g>
<!-- DOMA&#45;SYMSGNO -->
<g id="node28" class="node">
<title>DOMA&#45;SYMSGNO</title>
<g id="a_node28"><a xlink:href="./DOMA_SYMSGNO.html" xlink:title="DOMA&#45;SYMSGNO">
<polygon fill="none" stroke="yellow" points="1942.97,-36 1811.25,-36 1811.25,0 1942.97,0 1942.97,-36"/>
<text text-anchor="middle" x="1877.11" y="-13.8" font-family="Times,serif" font-size="14.00">DOMA&#45;SYMSGNO</text>
</a>
</g>
</g>
<!-- DTEL&#45;SYMSGNO&#45;&gt;DOMA&#45;SYMSGNO -->
<g id="edge45" class="edge">
<title>DTEL&#45;SYMSGNO&#45;&gt;DOMA&#45;SYMSGNO</title>
<path fill="none" stroke="black" d="M1856.78,-71.7C1859.82,-63.81 1863.49,-54.3 1866.87,-45.55"/>
<polygon fill="black" stroke="black" points="1870.18,-46.69 1870.51,-36.1 1863.65,-44.17 1870.18,-46.69"/>
</g>
<!-- DOMA&#45;SYCHAR01 -->
<g id="node30" class="node">
<title>DOMA&#45;SYCHAR01</title>
<g id="a_node30"><a xlink:href="./DOMA_SYCHAR01.html" xlink:title="DOMA&#45;SYCHAR01">
<polygon fill="none" stroke="yellow" points="2095.31,-36 1960.91,-36 1960.91,0 2095.31,0 2095.31,-36"/>
<text text-anchor="middle" x="2028.11" y="-13.8" font-family="Times,serif" font-size="14.00">DOMA&#45;SYCHAR01</text>
</a>
</g>
</g>
<!-- DTEL&#45;SYMSGTY&#45;&gt;DOMA&#45;SYCHAR01 -->
<g id="edge46" class="edge">
<title>DTEL&#45;SYMSGTY&#45;&gt;DOMA&#45;SYCHAR01</title>
<path fill="none" stroke="black" d="M2001.01,-71.7C2005.1,-63.73 2010.06,-54.1 2014.6,-45.26"/>
<polygon fill="black" stroke="black" points="2017.85,-46.6 2019.31,-36.1 2011.63,-43.4 2017.85,-46.6"/>
</g>
<!-- DOMA&#45;ARBGB -->
<g id="node32" class="node">
<title>DOMA&#45;ARBGB</title>
<g id="a_node32"><a xlink:href="./DOMA_ARBGB.html" xlink:title="DOMA&#45;ARBGB">
<polygon fill="none" stroke="yellow" points="1191.76,-36 1080.46,-36 1080.46,0 1191.76,0 1191.76,-36"/>
<text text-anchor="middle" x="1136.11" y="-13.8" font-family="Times,serif" font-size="14.00">DOMA&#45;ARBGB</text>
</a>
</g>
</g>
<!-- DTEL&#45;SYMSGID&#45;&gt;DOMA&#45;ARBGB -->
<g id="edge47" class="edge">
<title>DTEL&#45;SYMSGID&#45;&gt;DOMA&#45;ARBGB</title>
<path fill="none" stroke="black" d="M1136.11,-71.7C1136.11,-63.98 1136.11,-54.71 1136.11,-46.11"/>
<polygon fill="black" stroke="black" points="1139.61,-46.1 1136.11,-36.1 1132.61,-46.1 1139.61,-46.1"/>
</g>
<!-- DOMA&#45;ABAP_LANGUAGE_VERSION -->
<g id="node34" class="node">
<title>DOMA&#45;ABAP_LANGUAGE_VERSION</title>
<g id="a_node34"><a xlink:href="./DOMA_ABAP_LANGUAGE_VERSION.html" xlink:title="DOMA&#45;ABAP_LANGUAGE_VERSION">
<polygon fill="none" stroke="yellow" points="2324.76,-108 2071.45,-108 2071.45,-72 2324.76,-72 2324.76,-108"/>
<text text-anchor="middle" x="2198.11" y="-85.8" font-family="Times,serif" font-size="14.00">DOMA&#45;ABAP_LANGUAGE_VERSION</text>
</a>
</g>
</g>
<!-- DTEL&#45;ABAP_LANGUAGE_VERSION&#45;&gt;DOMA&#45;ABAP_LANGUAGE_VERSION -->
<g id="edge48" class="edge">
<title>DTEL&#45;ABAP_LANGUAGE_VERSION&#45;&gt;DOMA&#45;ABAP_LANGUAGE_VERSION</title>
<path fill="none" stroke="black" d="M1954.47,-143.97C2001.4,-133.76 2061.19,-120.76 2109.8,-110.2"/>
<polygon fill="black" stroke="black" points="2110.65,-113.59 2119.68,-108.05 2109.16,-106.75 2110.65,-113.59"/>
</g>
<!-- DOMA&#45;XFELD -->
<g id="node36" class="node">
<title>DOMA&#45;XFELD</title>
<g id="a_node36"><a xlink:href="./DOMA_XFELD.html" xlink:title="DOMA&#45;XFELD">
<polygon fill="none" stroke="yellow" points="2451.14,-108 2343.08,-108 2343.08,-72 2451.14,-72 2451.14,-108"/>
<text text-anchor="middle" x="2397.11" y="-85.8" font-family="Times,serif" font-size="14.00">DOMA&#45;XFELD</text>
</a>
</g>
</g>
<!-- DTEL&#45;NRCHECKASCII&#45;&gt;DOMA&#45;XFELD -->
<g id="edge49" class="edge">
<title>DTEL&#45;NRCHECKASCII&#45;&gt;DOMA&#45;XFELD</title>
<path fill="none" stroke="black" d="M2177.12,-144.01C2220.64,-134.56 2275.62,-122.28 2332.89,-108.25"/>
<polygon fill="black" stroke="black" points="2333.98,-111.59 2342.85,-105.8 2332.3,-104.79 2333.98,-111.59"/>
</g>
<!-- DTEL&#45;NRSWAP&#45;&gt;DOMA&#45;XFELD -->
<g id="edge50" class="edge">
<title>DTEL&#45;NRSWAP&#45;&gt;DOMA&#45;XFELD</title>
<path fill="none" stroke="black" d="M2287.58,-143.88C2307.23,-134.39 2331.83,-122.51 2352.74,-112.42"/>
<polygon fill="black" stroke="black" points="2354.27,-115.57 2361.75,-108.07 2351.23,-109.26 2354.27,-115.57"/>
</g>
<!-- DOMA&#45;NUM8 -->
<g id="node39" class="node">
<title>DOMA&#45;NUM8</title>
<g id="a_node39"><a xlink:href="./DOMA_NUM8.html" xlink:title="DOMA&#45;NUM8">
<polygon fill="none" stroke="yellow" points="2573.69,-108 2470.53,-108 2470.53,-72 2573.69,-72 2573.69,-108"/>
<text text-anchor="middle" x="2522.11" y="-85.8" font-family="Times,serif" font-size="14.00">DOMA&#45;NUM8</text>
</a>
</g>
</g>
<!-- DTEL&#45;NRIVBUFFER&#45;&gt;DOMA&#45;NUM8 -->
<g id="edge51" class="edge">
<title>DTEL&#45;NRIVBUFFER&#45;&gt;DOMA&#45;NUM8</title>
<path fill="none" stroke="black" d="M2547.7,-143.7C2543.83,-135.73 2539.16,-126.1 2534.86,-117.26"/>
<polygon fill="black" stroke="black" points="2537.93,-115.57 2530.42,-108.1 2531.64,-118.63 2537.93,-115.57"/>
</g>
<!-- DOMA&#45;NRBUFFERTYPE -->
<g id="node41" class="node">
<title>DOMA&#45;NRBUFFERTYPE</title>
<g id="a_node41"><a xlink:href="./DOMA_NRBUFFERTYPE.html" xlink:title="DOMA&#45;NRBUFFERTYPE">
<polygon fill="none" stroke="yellow" points="2762.37,-108 2591.85,-108 2591.85,-72 2762.37,-72 2762.37,-108"/>
<text text-anchor="middle" x="2677.11" y="-85.8" font-family="Times,serif" font-size="14.00">DOMA&#45;NRBUFFERTYPE</text>
</a>
</g>
</g>
<!-- DTEL&#45;NRBUFFER&#45;&gt;DOMA&#45;NRBUFFERTYPE -->
<g id="edge52" class="edge">
<title>DTEL&#45;NRBUFFER&#45;&gt;DOMA&#45;NRBUFFERTYPE</title>
<path fill="none" stroke="black" d="M2701.95,-143.7C2698.19,-135.73 2693.65,-126.1 2689.49,-117.26"/>
<polygon fill="black" stroke="black" points="2692.6,-115.66 2685.17,-108.1 2686.27,-118.64 2692.6,-115.66"/>
</g>
<!-- DOMA&#45;CHAR20 -->
<g id="node43" class="node">
<title>DOMA&#45;CHAR20</title>
<g id="a_node43"><a xlink:href="./DOMA_CHAR20.html" xlink:title="DOMA&#45;CHAR20">
<polygon fill="none" stroke="yellow" points="2897.42,-108 2780.8,-108 2780.8,-72 2897.42,-72 2897.42,-108"/>
<text text-anchor="middle" x="2839.11" y="-85.8" font-family="Times,serif" font-size="14.00">DOMA&#45;CHAR20</text>
</a>
</g>
</g>
<!-- DTEL&#45;NRCODE&#45;&gt;DOMA&#45;CHAR20 -->
<g id="edge53" class="edge">
<title>DTEL&#45;NRCODE&#45;&gt;DOMA&#45;CHAR20</title>
<path fill="none" stroke="black" d="M2846.64,-143.7C2845.53,-135.98 2844.21,-126.71 2842.98,-118.11"/>
<polygon fill="black" stroke="black" points="2846.43,-117.51 2841.55,-108.1 2839.5,-118.5 2846.43,-117.51"/>
</g>
<!-- DOMA&#45;NRPERC -->
<g id="node45" class="node">
<title>DOMA&#45;NRPERC</title>
<g id="a_node45"><a xlink:href="./DOMA_NRPERC.html" xlink:title="DOMA&#45;NRPERC">
<polygon fill="none" stroke="yellow" points="3032.98,-108 2915.23,-108 2915.23,-72 3032.98,-72 3032.98,-108"/>
<text text-anchor="middle" x="2974.11" y="-85.8" font-family="Times,serif" font-size="14.00">DOMA&#45;NRPERC</text>
</a>
</g>
</g>
<!-- DTEL&#45;NRPERC&#45;&gt;DOMA&#45;NRPERC -->
<g id="edge54" class="edge">
<title>DTEL&#45;NRPERC&#45;&gt;DOMA&#45;NRPERC</title>
<path fill="none" stroke="black" d="M2977.87,-143.7C2977.32,-135.98 2976.66,-126.71 2976.04,-118.11"/>
<polygon fill="black" stroke="black" points="2979.53,-117.83 2975.33,-108.1 2972.55,-118.33 2979.53,-117.83"/>
</g>
<!-- DOMA&#45;DOMNAME -->
<g id="node47" class="node">
<title>DOMA&#45;DOMNAME</title>
<g id="a_node47"><a xlink:href="./DOMA_DOMNAME.html" xlink:title="DOMA&#45;DOMNAME">
<polygon fill="none" stroke="yellow" points="3188.9,-108 3051.31,-108 3051.31,-72 3188.9,-72 3188.9,-108"/>
<text text-anchor="middle" x="3120.11" y="-85.8" font-family="Times,serif" font-size="14.00">DOMA&#45;DOMNAME</text>
</a>
</g>
</g>
<!-- DTEL&#45;NRLENDOM&#45;&gt;DOMA&#45;DOMNAME -->
<g id="edge55" class="edge">
<title>DTEL&#45;NRLENDOM&#45;&gt;DOMA&#45;DOMNAME</title>
<path fill="none" stroke="black" d="M3120.11,-143.7C3120.11,-135.98 3120.11,-126.71 3120.11,-118.11"/>
<polygon fill="black" stroke="black" points="3123.61,-118.1 3120.11,-108.1 3116.61,-118.1 3123.61,-118.1"/>
</g>
<!-- DTEL&#45;NRYEARIND&#45;&gt;DOMA&#45;XFELD -->
<g id="edge56" class="edge">
<title>DTEL&#45;NRYEARIND&#45;&gt;DOMA&#45;XFELD</title>
<path fill="none" stroke="black" d="M2397.11,-143.7C2397.11,-135.98 2397.11,-126.71 2397.11,-118.11"/>
<polygon fill="black" stroke="black" points="2400.61,-118.1 2397.11,-108.1 2393.61,-118.1 2400.61,-118.1"/>
</g>
<!-- DOMA&#45;DDOBJNAME -->
<g id="node50" class="node">
<title>DOMA&#45;DDOBJNAME</title>
<g id="a_node50"><a xlink:href="./DOMA_DDOBJNAME.html" xlink:title="DOMA&#45;DDOBJNAME">
<polygon fill="none" stroke="yellow" points="3356.84,-108 3207.37,-108 3207.37,-72 3356.84,-72 3356.84,-108"/>
<text text-anchor="middle" x="3282.11" y="-85.8" font-family="Times,serif" font-size="14.00">DOMA&#45;DDOBJNAME</text>
</a>
</g>
</g>
<!-- DTEL&#45;NRSOBJNAM&#45;&gt;DOMA&#45;DDOBJNAME -->
<g id="edge57" class="edge">
<title>DTEL&#45;NRSOBJNAM&#45;&gt;DOMA&#45;DDOBJNAME</title>
<path fill="none" stroke="black" d="M3279.85,-143.7C3280.18,-135.98 3280.58,-126.71 3280.95,-118.11"/>
<polygon fill="black" stroke="black" points="3284.44,-118.25 3281.37,-108.1 3277.45,-117.95 3284.44,-118.25"/>
</g>
<!-- DOMA&#45;TRKORR -->
<g id="node52" class="node">
<title>DOMA&#45;TRKORR</title>
<g id="a_node52"><a xlink:href="./DOMA_TRKORR.html" xlink:title="DOMA&#45;TRKORR">
<polygon fill="none" stroke="yellow" points="3495.31,-108 3374.91,-108 3374.91,-72 3495.31,-72 3495.31,-108"/>
<text text-anchor="middle" x="3435.11" y="-85.8" font-family="Times,serif" font-size="14.00">DOMA&#45;TRKORR</text>
</a>
</g>
</g>
<!-- DTEL&#45;TRKORR&#45;&gt;DOMA&#45;TRKORR -->
<g id="edge58" class="edge">
<title>DTEL&#45;TRKORR&#45;&gt;DOMA&#45;TRKORR</title>
<path fill="none" stroke="black" d="M3430.59,-143.7C3431.25,-135.98 3432.05,-126.71 3432.78,-118.11"/>
<polygon fill="black" stroke="black" points="3436.28,-118.37 3433.64,-108.1 3429.3,-117.77 3436.28,-118.37"/>
</g>
<!-- DOMA&#45;DEVCLASS -->
<g id="node54" class="node">
<title>DOMA&#45;DEVCLASS</title>
<g id="a_node54"><a xlink:href="./DOMA_DEVCLASS.html" xlink:title="DOMA&#45;DEVCLASS">
<polygon fill="none" stroke="yellow" points="3648.86,-108 3513.36,-108 3513.36,-72 3648.86,-72 3648.86,-108"/>
<text text-anchor="middle" x="3581.11" y="-85.8" font-family="Times,serif" font-size="14.00">DOMA&#45;DEVCLASS</text>
</a>
</g>
</g>
<!-- DTEL&#45;DEVCLASS&#45;&gt;DOMA&#45;DEVCLASS -->
<g id="edge59" class="edge">
<title>DTEL&#45;DEVCLASS&#45;&gt;DOMA&#45;DEVCLASS</title>
<path fill="none" stroke="black" d="M3575.84,-143.7C3576.61,-135.98 3577.54,-126.71 3578.4,-118.11"/>
<polygon fill="black" stroke="black" points="3581.89,-118.4 3579.4,-108.1 3574.92,-117.71 3581.89,-118.4"/>
</g>
<!-- DOMA&#45;CHAR1 -->
<g id="node56" class="node">
<title>DOMA&#45;CHAR1</title>
<g id="a_node56"><a xlink:href="./DOMA_CHAR1.html" xlink:title="DOMA&#45;CHAR1">
<polygon fill="none" stroke="green" points="3776.92,-108 3667.3,-108 3667.3,-72 3776.92,-72 3776.92,-108"/>
<text text-anchor="middle" x="3722.11" y="-85.8" font-family="Times,serif" font-size="14.00">DOMA&#45;CHAR1</text>
</a>
</g>
</g>
<!-- DTEL&#45;CHAR1&#45;&gt;DOMA&#45;CHAR1 -->
<g id="edge60" class="edge">
<title>DTEL&#45;CHAR1&#45;&gt;DOMA&#45;CHAR1</title>
<path fill="none" stroke="black" d="M3716.84,-143.7C3717.61,-135.98 3718.54,-126.71 3719.4,-118.11"/>
<polygon fill="black" stroke="black" points="3722.89,-118.4 3720.4,-108.1 3715.92,-117.71 3722.89,-118.4"/>
</g>
<!-- DOMA&#45;ACTIV_AUTH -->
<g id="node58" class="node">
<title>DOMA&#45;ACTIV_AUTH</title>
<g id="a_node58"><a xlink:href="./DOMA_ACTIV_AUTH.html" xlink:title="DOMA&#45;ACTIV_AUTH">
<polygon fill="none" stroke="green" points="3947.17,-108 3795.05,-108 3795.05,-72 3947.17,-72 3947.17,-108"/>
<text text-anchor="middle" x="3871.11" y="-85.8" font-family="Times,serif" font-size="14.00">DOMA&#45;ACTIV_AUTH</text>
</a>
</g>
</g>
<!-- DTEL&#45;ACTIV_AUTH&#45;&gt;DOMA&#45;ACTIV_AUTH -->
<g id="edge61" class="edge">
<title>DTEL&#45;ACTIV_AUTH&#45;&gt;DOMA&#45;ACTIV_AUTH</title>
<path fill="none" stroke="black" d="M3865.84,-143.7C3866.61,-135.98 3867.54,-126.71 3868.4,-118.11"/>
<polygon fill="black" stroke="black" points="3871.89,-118.4 3869.4,-108.1 3864.92,-117.71 3871.89,-118.4"/>
</g>
</g>
</svg>
