<?xml version="1.0" encoding="UTF-8" standalone="no"?>
<!DOCTYPE svg PUBLIC "-//W3C//DTD SVG 1.1//EN"
 "http://www.w3.org/Graphics/SVG/1.1/DTD/svg11.dtd">
<!-- Generated by graphviz version 2.47.3 (20210619.1520)
 -->
<!-- Title: G Pages: 1 -->
<svg width="236pt" height="332pt"
 viewBox="0.00 0.00 236.32 332.00" xmlns="http://www.w3.org/2000/svg" xmlns:xlink="http://www.w3.org/1999/xlink">
<g id="graph0" class="graph" transform="scale(1 1) rotate(0) translate(4 328)">
<title>G</title>
<polygon fill="white" stroke="transparent" points="-4,4 -4,-328 232.32,-328 232.32,4 -4,4"/>
<!-- CLAS&#45;CL_COM_USER_FACTORY -->
<g id="node1" class="node">
<title>CLAS&#45;CL_COM_USER_FACTORY</title>
<polygon fill="none" stroke="green" points="228.48,-324 -0.16,-324 -0.16,-288 228.48,-288 228.48,-324"/>
<text text-anchor="middle" x="114.16" y="-301.8" font-family="Times,serif" font-size="14.00">CLAS&#45;CL_COM_USER_FACTORY</text>
</g>
<!-- INTF&#45;IF_COM_USER_FACTORY -->
<g id="node2" class="node">
<title>INTF&#45;IF_COM_USER_FACTORY</title>
<g id="a_node2"><a xlink:href="./INTF_IF_COM_USER_FACTORY.html" xlink:title="INTF&#45;IF_COM_USER_FACTORY">
<polygon fill="none" stroke="green" points="223.36,-252 4.96,-252 4.96,-216 223.36,-216 223.36,-252"/>
<text text-anchor="middle" x="114.16" y="-229.8" font-family="Times,serif" font-size="14.00">INTF&#45;IF_COM_USER_FACTORY</text>
</a>
</g>
</g>
<!-- CLAS&#45;CL_COM_USER_FACTORY&#45;&gt;INTF&#45;IF_COM_USER_FACTORY -->
<g id="edge1" class="edge">
<title>CLAS&#45;CL_COM_USER_FACTORY&#45;&gt;INTF&#45;IF_COM_USER_FACTORY</title>
<path fill="none" stroke="black" d="M114.16,-287.7C114.16,-279.98 114.16,-270.71 114.16,-262.11"/>
<polygon fill="black" stroke="black" points="117.66,-262.1 114.16,-252.1 110.66,-262.1 117.66,-262.1"/>
</g>
<!-- INTF&#45;IF_COM_USER -->
<g id="node3" class="node">
<title>INTF&#45;IF_COM_USER</title>
<g id="a_node3"><a xlink:href="./INTF_IF_COM_USER.html" xlink:title="INTF&#45;IF_COM_USER">
<polygon fill="none" stroke="green" points="187.03,-180 41.29,-180 41.29,-144 187.03,-144 187.03,-180"/>
<text text-anchor="middle" x="114.16" y="-157.8" font-family="Times,serif" font-size="14.00">INTF&#45;IF_COM_USER</text>
</a>
</g>
</g>
<!-- INTF&#45;IF_COM_USER_FACTORY&#45;&gt;INTF&#45;IF_COM_USER -->
<g id="edge2" class="edge">
<title>INTF&#45;IF_COM_USER_FACTORY&#45;&gt;INTF&#45;IF_COM_USER</title>
<path fill="none" stroke="black" d="M114.16,-215.7C114.16,-207.98 114.16,-198.71 114.16,-190.11"/>
<polygon fill="black" stroke="black" points="117.66,-190.1 114.16,-180.1 110.66,-190.1 117.66,-190.1"/>
</g>
<!-- DTEL&#45;XUUFLAG -->
<g id="node4" class="node">
<title>DTEL&#45;XUUFLAG</title>
<g id="a_node4"><a xlink:href="./DTEL_XUUFLAG.html" xlink:title="DTEL&#45;XUUFLAG">
<polygon fill="none" stroke="yellow" points="175.95,-108 52.37,-108 52.37,-72 175.95,-72 175.95,-108"/>
<text text-anchor="middle" x="114.16" y="-85.8" font-family="Times,serif" font-size="14.00">DTEL&#45;XUUFLAG</text>
</a>
</g>
</g>
<!-- INTF&#45;IF_COM_USER&#45;&gt;DTEL&#45;XUUFLAG -->
<g id="edge3" class="edge">
<title>INTF&#45;IF_COM_USER&#45;&gt;DTEL&#45;XUUFLAG</title>
<path fill="none" stroke="black" d="M114.16,-143.7C114.16,-135.98 114.16,-126.71 114.16,-118.11"/>
<polygon fill="black" stroke="black" points="117.66,-118.1 114.16,-108.1 110.66,-118.1 117.66,-118.1"/>
</g>
<!-- DOMA&#45;XUUFLAG -->
<g id="node5" class="node">
<title>DOMA&#45;XUUFLAG</title>
<g id="a_node5"><a xlink:href="./DOMA_XUUFLAG.html" xlink:title="DOMA&#45;XUUFLAG">
<polygon fill="none" stroke="yellow" points="179.45,-36 48.87,-36 48.87,0 179.45,0 179.45,-36"/>
<text text-anchor="middle" x="114.16" y="-13.8" font-family="Times,serif" font-size="14.00">DOMA&#45;XUUFLAG</text>
</a>
</g>
</g>
<!-- DTEL&#45;XUUFLAG&#45;&gt;DOMA&#45;XUUFLAG -->
<g id="edge4" class="edge">
<title>DTEL&#45;XUUFLAG&#45;&gt;DOMA&#45;XUUFLAG</title>
<path fill="none" stroke="black" d="M114.16,-71.7C114.16,-63.98 114.16,-54.71 114.16,-46.11"/>
<polygon fill="black" stroke="black" points="117.66,-46.1 114.16,-36.1 110.66,-46.1 117.66,-46.1"/>
</g>
</g>
</svg>
