<?xml version="1.0" encoding="UTF-8" standalone="no"?>
<!DOCTYPE svg PUBLIC "-//W3C//DTD SVG 1.1//EN"
 "http://www.w3.org/Graphics/SVG/1.1/DTD/svg11.dtd">
<!-- Generated by graphviz version 2.47.3 (20210619.1520)
 -->
<!-- Title: G Pages: 1 -->
<svg width="326pt" height="332pt"
 viewBox="0.00 0.00 325.59 332.00" xmlns="http://www.w3.org/2000/svg" xmlns:xlink="http://www.w3.org/1999/xlink">
<g id="graph0" class="graph" transform="scale(1 1) rotate(0) translate(4 328)">
<title>G</title>
<polygon fill="white" stroke="transparent" points="-4,4 -4,-328 321.59,-328 321.59,4 -4,4"/>
<!-- CLAS&#45;CL_ABAP_MEMORY_X_WRITER -->
<g id="node1" class="node">
<title>CLAS&#45;CL_ABAP_MEMORY_X_WRITER</title>
<polygon fill="none" stroke="green" points="290.01,-324 23.18,-324 23.18,-288 290.01,-288 290.01,-324"/>
<text text-anchor="middle" x="156.6" y="-301.8" font-family="Times,serif" font-size="14.00">CLAS&#45;CL_ABAP_MEMORY_X_WRITER</text>
</g>
<!-- CLAS&#45;CL_ABAP_X_WRITER -->
<g id="node2" class="node">
<title>CLAS&#45;CL_ABAP_X_WRITER</title>
<g id="a_node2"><a xlink:href="./CLAS_CL_ABAP_X_WRITER.html" xlink:title="CLAS&#45;CL_ABAP_X_WRITER">
<polygon fill="none" stroke="green" points="255.02,-252 58.17,-252 58.17,-216 255.02,-216 255.02,-252"/>
<text text-anchor="middle" x="156.6" y="-229.8" font-family="Times,serif" font-size="14.00">CLAS&#45;CL_ABAP_X_WRITER</text>
</a>
</g>
</g>
<!-- CLAS&#45;CL_ABAP_MEMORY_X_WRITER&#45;&gt;CLAS&#45;CL_ABAP_X_WRITER -->
<g id="edge1" class="edge">
<title>CLAS&#45;CL_ABAP_MEMORY_X_WRITER&#45;&gt;CLAS&#45;CL_ABAP_X_WRITER</title>
<path fill="none" stroke="black" d="M156.6,-287.7C156.6,-279.98 156.6,-270.71 156.6,-262.11"/>
<polygon fill="black" stroke="black" points="160.1,-262.1 156.6,-252.1 153.1,-262.1 160.1,-262.1"/>
</g>
<!-- INTF&#45;IF_ABAP_X_WRITER -->
<g id="node3" class="node">
<title>INTF&#45;IF_ABAP_X_WRITER</title>
<g id="a_node3"><a xlink:href="./INTF_IF_ABAP_X_WRITER.html" xlink:title="INTF&#45;IF_ABAP_X_WRITER">
<polygon fill="none" stroke="green" points="249.9,-180 63.3,-180 63.3,-144 249.9,-144 249.9,-180"/>
<text text-anchor="middle" x="156.6" y="-157.8" font-family="Times,serif" font-size="14.00">INTF&#45;IF_ABAP_X_WRITER</text>
</a>
</g>
</g>
<!-- CLAS&#45;CL_ABAP_X_WRITER&#45;&gt;INTF&#45;IF_ABAP_X_WRITER -->
<g id="edge4" class="edge">
<title>CLAS&#45;CL_ABAP_X_WRITER&#45;&gt;INTF&#45;IF_ABAP_X_WRITER</title>
<path fill="none" stroke="black" d="M156.6,-215.7C156.6,-207.98 156.6,-198.71 156.6,-190.11"/>
<polygon fill="black" stroke="black" points="160.1,-190.1 156.6,-180.1 153.1,-190.1 160.1,-190.1"/>
</g>
<!-- INTF&#45;IF_ABAP_WRITER -->
<g id="node4" class="node">
<title>INTF&#45;IF_ABAP_WRITER</title>
<g id="a_node4"><a xlink:href="./INTF_IF_ABAP_WRITER.html" xlink:title="INTF&#45;IF_ABAP_WRITER">
<polygon fill="none" stroke="green" points="169.29,-108 -0.1,-108 -0.1,-72 169.29,-72 169.29,-108"/>
<text text-anchor="middle" x="84.6" y="-85.8" font-family="Times,serif" font-size="14.00">INTF&#45;IF_ABAP_WRITER</text>
</a>
</g>
</g>
<!-- CLAS&#45;CL_ABAP_X_WRITER&#45;&gt;INTF&#45;IF_ABAP_WRITER -->
<g id="edge3" class="edge">
<title>CLAS&#45;CL_ABAP_X_WRITER&#45;&gt;INTF&#45;IF_ABAP_WRITER</title>
<path fill="none" stroke="black" d="M98.52,-215.96C81.37,-207.92 64.54,-196.37 54.6,-180 42.59,-160.24 53.09,-135.06 64.85,-116.53"/>
<polygon fill="black" stroke="black" points="67.9,-118.26 70.62,-108.03 62.11,-114.33 67.9,-118.26"/>
</g>
<!-- INTF&#45;IF_ABAP_CLOSE_RESOURCE -->
<g id="node5" class="node">
<title>INTF&#45;IF_ABAP_CLOSE_RESOURCE</title>
<g id="a_node5"><a xlink:href="./INTF_IF_ABAP_CLOSE_RESOURCE.html" xlink:title="INTF&#45;IF_ABAP_CLOSE_RESOURCE">
<polygon fill="none" stroke="green" points="317.58,-36 77.62,-36 77.62,0 317.58,0 317.58,-36"/>
<text text-anchor="middle" x="197.6" y="-13.8" font-family="Times,serif" font-size="14.00">INTF&#45;IF_ABAP_CLOSE_RESOURCE</text>
</a>
</g>
</g>
<!-- CLAS&#45;CL_ABAP_X_WRITER&#45;&gt;INTF&#45;IF_ABAP_CLOSE_RESOURCE -->
<g id="edge2" class="edge">
<title>CLAS&#45;CL_ABAP_X_WRITER&#45;&gt;INTF&#45;IF_ABAP_CLOSE_RESOURCE</title>
<path fill="none" stroke="black" d="M214.67,-215.96C231.82,-207.92 248.65,-196.37 258.6,-180 285.63,-135.49 247.61,-76.99 220.56,-44.16"/>
<polygon fill="black" stroke="black" points="223.11,-41.75 213.97,-36.39 217.77,-46.28 223.11,-41.75"/>
</g>
<!-- INTF&#45;IF_ABAP_X_WRITER&#45;&gt;INTF&#45;IF_ABAP_WRITER -->
<g id="edge6" class="edge">
<title>INTF&#45;IF_ABAP_X_WRITER&#45;&gt;INTF&#45;IF_ABAP_WRITER</title>
<path fill="none" stroke="black" d="M138.8,-143.7C129.99,-135.14 119.21,-124.66 109.59,-115.3"/>
<polygon fill="black" stroke="black" points="111.8,-112.57 102.19,-108.1 106.92,-117.58 111.8,-112.57"/>
</g>
<!-- INTF&#45;IF_ABAP_X_WRITER&#45;&gt;INTF&#45;IF_ABAP_CLOSE_RESOURCE -->
<g id="edge5" class="edge">
<title>INTF&#45;IF_ABAP_X_WRITER&#45;&gt;INTF&#45;IF_ABAP_CLOSE_RESOURCE</title>
<path fill="none" stroke="black" d="M164.75,-143.63C169.3,-133.43 174.8,-120.18 178.6,-108 184.93,-87.67 189.86,-64.07 193.11,-46.29"/>
<polygon fill="black" stroke="black" points="196.58,-46.76 194.87,-36.3 189.69,-45.54 196.58,-46.76"/>
</g>
<!-- INTF&#45;IF_ABAP_WRITER&#45;&gt;INTF&#45;IF_ABAP_CLOSE_RESOURCE -->
<g id="edge7" class="edge">
<title>INTF&#45;IF_ABAP_WRITER&#45;&gt;INTF&#45;IF_ABAP_CLOSE_RESOURCE</title>
<path fill="none" stroke="black" d="M112.24,-71.88C127.01,-62.72 145.39,-51.34 161.3,-41.48"/>
<polygon fill="black" stroke="black" points="163.19,-44.43 169.85,-36.19 159.5,-38.48 163.19,-44.43"/>
</g>
</g>
</svg>
