<?xml version="1.0" encoding="UTF-8" standalone="no"?>
<!DOCTYPE svg PUBLIC "-//W3C//DTD SVG 1.1//EN"
 "http://www.w3.org/Graphics/SVG/1.1/DTD/svg11.dtd">
<!-- Generated by graphviz version 2.47.3 (20210619.1520)
 -->
<!-- Title: G Pages: 1 -->
<svg width="803pt" height="404pt"
 viewBox="0.00 0.00 803.30 404.00" xmlns="http://www.w3.org/2000/svg" xmlns:xlink="http://www.w3.org/1999/xlink">
<g id="graph0" class="graph" transform="scale(1 1) rotate(0) translate(4 400)">
<title>G</title>
<polygon fill="white" stroke="transparent" points="-4,4 -4,-400 799.3,-400 799.3,4 -4,4"/>
<!-- CLAS&#45;CL_ABAP_REGEX -->
<g id="node1" class="node">
<title>CLAS&#45;CL_ABAP_REGEX</title>
<g id="a_node1"><a xlink:href="./CLAS_CL_ABAP_REGEX.html" xlink:title="CLAS&#45;CL_ABAP_REGEX">
<polygon fill="none" stroke="green" points="404.46,-396 231.83,-396 231.83,-360 404.46,-360 404.46,-396"/>
<text text-anchor="middle" x="318.14" y="-373.8" font-family="Times,serif" font-size="14.00">CLAS&#45;CL_ABAP_REGEX</text>
</a>
</g>
</g>
<!-- INTF&#45;IF_ABAP_MATCHER_CALLOUT -->
<g id="node2" class="node">
<title>INTF&#45;IF_ABAP_MATCHER_CALLOUT</title>
<g id="a_node2"><a xlink:href="./INTF_IF_ABAP_MATCHER_CALLOUT.html" xlink:title="INTF&#45;IF_ABAP_MATCHER_CALLOUT">
<polygon fill="none" stroke="green" points="256.43,-252 -0.14,-252 -0.14,-216 256.43,-216 256.43,-252"/>
<text text-anchor="middle" x="128.14" y="-229.8" font-family="Times,serif" font-size="14.00">INTF&#45;IF_ABAP_MATCHER_CALLOUT</text>
</a>
</g>
</g>
<!-- CLAS&#45;CL_ABAP_REGEX&#45;&gt;INTF&#45;IF_ABAP_MATCHER_CALLOUT -->
<g id="edge2" class="edge">
<title>CLAS&#45;CL_ABAP_REGEX&#45;&gt;INTF&#45;IF_ABAP_MATCHER_CALLOUT</title>
<path fill="none" stroke="black" d="M267.55,-359.91C246.47,-350.77 222.55,-338.42 203.14,-324 178.45,-305.65 154.81,-279.58 140.57,-260.4"/>
<polygon fill="black" stroke="black" points="143.35,-258.26 134.71,-252.12 137.63,-262.3 143.35,-258.26"/>
</g>
<!-- CLAS&#45;CL_ABAP_REGEX&#45;&gt;INTF&#45;IF_ABAP_MATCHER_CALLOUT -->
<g id="edge10" class="edge">
<title>CLAS&#45;CL_ABAP_REGEX&#45;&gt;INTF&#45;IF_ABAP_MATCHER_CALLOUT</title>
<path fill="none" stroke="black" d="M283.56,-359.79C264.27,-350.66 240.47,-338.36 221.14,-324 196.11,-305.4 172.17,-278.87 154.6,-259.62"/>
<polygon fill="black" stroke="black" points="157.06,-257.12 147.72,-252.12 151.9,-261.85 157.06,-257.12"/>
</g>
<!-- CLAS&#45;CL_ABAP_MATCHER -->
<g id="node3" class="node">
<title>CLAS&#45;CL_ABAP_MATCHER</title>
<g id="a_node3"><a xlink:href="./CLAS_CL_ABAP_MATCHER.html" xlink:title="CLAS&#45;CL_ABAP_MATCHER">
<polygon fill="none" stroke="green" points="415.24,-324 221.05,-324 221.05,-288 415.24,-288 415.24,-324"/>
<text text-anchor="middle" x="318.14" y="-301.8" font-family="Times,serif" font-size="14.00">CLAS&#45;CL_ABAP_MATCHER</text>
</a>
</g>
</g>
<!-- CLAS&#45;CL_ABAP_REGEX&#45;&gt;CLAS&#45;CL_ABAP_MATCHER -->
<g id="edge1" class="edge">
<title>CLAS&#45;CL_ABAP_REGEX&#45;&gt;CLAS&#45;CL_ABAP_MATCHER</title>
<path fill="none" stroke="black" d="M306.31,-359.7C304.72,-351.98 304.27,-342.71 304.95,-334.11"/>
<polygon fill="black" stroke="black" points="308.43,-334.49 306.35,-324.1 301.5,-333.52 308.43,-334.49"/>
</g>
<!-- CLAS&#45;CL_ABAP_REGEX&#45;&gt;CLAS&#45;CL_ABAP_MATCHER -->
<g id="edge9" class="edge">
<title>CLAS&#45;CL_ABAP_REGEX&#45;&gt;CLAS&#45;CL_ABAP_MATCHER</title>
<path fill="none" stroke="black" d="M329.98,-359.7C331.57,-351.98 332.02,-342.71 331.34,-334.11"/>
<polygon fill="black" stroke="black" points="334.79,-333.52 329.93,-324.1 327.85,-334.49 334.79,-333.52"/>
</g>
<!-- CLAS&#45;CL_ABAP_MATCHER&#45;&gt;CLAS&#45;CL_ABAP_REGEX -->
<g id="edge7" class="edge">
<title>CLAS&#45;CL_ABAP_MATCHER&#45;&gt;CLAS&#45;CL_ABAP_REGEX</title>
<path fill="none" stroke="black" d="M318.14,-324.1C318.14,-331.79 318.14,-341.05 318.14,-349.67"/>
<polygon fill="black" stroke="black" points="314.64,-349.7 318.14,-359.7 321.64,-349.7 314.64,-349.7"/>
</g>
<!-- CLAS&#45;CL_ABAP_MATCHER&#45;&gt;INTF&#45;IF_ABAP_MATCHER_CALLOUT -->
<g id="edge8" class="edge">
<title>CLAS&#45;CL_ABAP_MATCHER&#45;&gt;INTF&#45;IF_ABAP_MATCHER_CALLOUT</title>
<path fill="none" stroke="black" d="M271.67,-287.88C245.23,-278.14 211.94,-265.87 184.08,-255.61"/>
<polygon fill="black" stroke="black" points="185.07,-252.24 174.47,-252.07 182.65,-258.81 185.07,-252.24"/>
</g>
<!-- DTEL&#45;INT4 -->
<g id="node4" class="node">
<title>DTEL&#45;INT4</title>
<g id="a_node4"><a xlink:href="./DTEL_INT4.html" xlink:title="DTEL&#45;INT4">
<polygon fill="none" stroke="green" points="361.39,-252 274.9,-252 274.9,-216 361.39,-216 361.39,-252"/>
<text text-anchor="middle" x="318.14" y="-229.8" font-family="Times,serif" font-size="14.00">DTEL&#45;INT4</text>
</a>
</g>
</g>
<!-- CLAS&#45;CL_ABAP_MATCHER&#45;&gt;DTEL&#45;INT4 -->
<g id="edge6" class="edge">
<title>CLAS&#45;CL_ABAP_MATCHER&#45;&gt;DTEL&#45;INT4</title>
<path fill="none" stroke="black" d="M318.14,-287.7C318.14,-279.98 318.14,-270.71 318.14,-262.11"/>
<polygon fill="black" stroke="black" points="321.64,-262.1 318.14,-252.1 314.64,-262.1 321.64,-262.1"/>
</g>
<!-- TABL&#45;MATCH_RESULT -->
<g id="node6" class="node">
<title>TABL&#45;MATCH_RESULT</title>
<g id="a_node6"><a xlink:href="./TABL_MATCH_RESULT.html" xlink:title="TABL&#45;MATCH_RESULT">
<polygon fill="none" stroke="green" points="575.78,-180 408.5,-180 408.5,-144 575.78,-144 575.78,-180"/>
<text text-anchor="middle" x="492.14" y="-157.8" font-family="Times,serif" font-size="14.00">TABL&#45;MATCH_RESULT</text>
</a>
</g>
</g>
<!-- CLAS&#45;CL_ABAP_MATCHER&#45;&gt;TABL&#45;MATCH_RESULT -->
<g id="edge5" class="edge">
<title>CLAS&#45;CL_ABAP_MATCHER&#45;&gt;TABL&#45;MATCH_RESULT</title>
<path fill="none" stroke="black" d="M335.18,-287.75C359.05,-263.65 400.4,-222.15 408.14,-216 422.01,-204.99 438.27,-194.28 452.77,-185.41"/>
<polygon fill="black" stroke="black" points="454.77,-188.29 461.53,-180.13 451.16,-182.29 454.77,-188.29"/>
</g>
<!-- TTYP&#45;MATCH_RESULT_TAB -->
<g id="node9" class="node">
<title>TTYP&#45;MATCH_RESULT_TAB</title>
<g id="a_node9"><a xlink:href="./TTYP_MATCH_RESULT_TAB.html" xlink:title="TTYP&#45;MATCH_RESULT_TAB">
<polygon fill="none" stroke="green" points="618.73,-252 417.56,-252 417.56,-216 618.73,-216 618.73,-252"/>
<text text-anchor="middle" x="518.14" y="-229.8" font-family="Times,serif" font-size="14.00">TTYP&#45;MATCH_RESULT_TAB</text>
</a>
</g>
</g>
<!-- CLAS&#45;CL_ABAP_MATCHER&#45;&gt;TTYP&#45;MATCH_RESULT_TAB -->
<g id="edge4" class="edge">
<title>CLAS&#45;CL_ABAP_MATCHER&#45;&gt;TTYP&#45;MATCH_RESULT_TAB</title>
<path fill="none" stroke="black" d="M366.81,-287.97C394.76,-278.19 430.04,-265.84 459.51,-255.52"/>
<polygon fill="black" stroke="black" points="460.97,-258.72 469.26,-252.11 458.66,-252.11 460.97,-258.72"/>
</g>
<!-- TTYP&#45;STRING_TABLE -->
<g id="node10" class="node">
<title>TTYP&#45;STRING_TABLE</title>
<g id="a_node10"><a xlink:href="./TTYP_STRING_TABLE.html" xlink:title="TTYP&#45;STRING_TABLE">
<polygon fill="none" stroke="green" points="795.45,-252 636.84,-252 636.84,-216 795.45,-216 795.45,-252"/>
<text text-anchor="middle" x="716.14" y="-229.8" font-family="Times,serif" font-size="14.00">TTYP&#45;STRING_TABLE</text>
</a>
</g>
</g>
<!-- CLAS&#45;CL_ABAP_MATCHER&#45;&gt;TTYP&#45;STRING_TABLE -->
<g id="edge3" class="edge">
<title>CLAS&#45;CL_ABAP_MATCHER&#45;&gt;TTYP&#45;STRING_TABLE</title>
<path fill="none" stroke="black" d="M415.28,-288.94C473.8,-279.14 550.08,-266.13 626.27,-252.32"/>
<polygon fill="black" stroke="black" points="627.32,-255.69 636.53,-250.46 626.07,-248.8 627.32,-255.69"/>
</g>
<!-- DOMA&#45;INT4 -->
<g id="node5" class="node">
<title>DOMA&#45;INT4</title>
<g id="a_node5"><a xlink:href="./DOMA_INT4.html" xlink:title="DOMA&#45;INT4">
<polygon fill="none" stroke="yellow" points="364.89,-180 271.4,-180 271.4,-144 364.89,-144 364.89,-180"/>
<text text-anchor="middle" x="318.14" y="-157.8" font-family="Times,serif" font-size="14.00">DOMA&#45;INT4</text>
</a>
</g>
</g>
<!-- DTEL&#45;INT4&#45;&gt;DOMA&#45;INT4 -->
<g id="edge11" class="edge">
<title>DTEL&#45;INT4&#45;&gt;DOMA&#45;INT4</title>
<path fill="none" stroke="black" d="M318.14,-215.7C318.14,-207.98 318.14,-198.71 318.14,-190.11"/>
<polygon fill="black" stroke="black" points="321.64,-190.1 318.14,-180.1 314.64,-190.1 321.64,-190.1"/>
</g>
<!-- TTYP&#45;SUBMATCH_RESULT_TAB -->
<g id="node7" class="node">
<title>TTYP&#45;SUBMATCH_RESULT_TAB</title>
<g id="a_node7"><a xlink:href="./TTYP_SUBMATCH_RESULT_TAB.html" xlink:title="TTYP&#45;SUBMATCH_RESULT_TAB">
<polygon fill="none" stroke="green" points="606.45,-108 377.84,-108 377.84,-72 606.45,-72 606.45,-108"/>
<text text-anchor="middle" x="492.14" y="-85.8" font-family="Times,serif" font-size="14.00">TTYP&#45;SUBMATCH_RESULT_TAB</text>
</a>
</g>
</g>
<!-- TABL&#45;MATCH_RESULT&#45;&gt;TTYP&#45;SUBMATCH_RESULT_TAB -->
<g id="edge12" class="edge">
<title>TABL&#45;MATCH_RESULT&#45;&gt;TTYP&#45;SUBMATCH_RESULT_TAB</title>
<path fill="none" stroke="black" d="M492.14,-143.7C492.14,-135.98 492.14,-126.71 492.14,-118.11"/>
<polygon fill="black" stroke="black" points="495.64,-118.1 492.14,-108.1 488.64,-118.1 495.64,-118.1"/>
</g>
<!-- TABL&#45;SUBMATCH_RESULT -->
<g id="node8" class="node">
<title>TABL&#45;SUBMATCH_RESULT</title>
<g id="a_node8"><a xlink:href="./TABL_SUBMATCH_RESULT.html" xlink:title="TABL&#45;SUBMATCH_RESULT">
<polygon fill="none" stroke="green" points="589.51,-36 394.78,-36 394.78,0 589.51,0 589.51,-36"/>
<text text-anchor="middle" x="492.14" y="-13.8" font-family="Times,serif" font-size="14.00">TABL&#45;SUBMATCH_RESULT</text>
</a>
</g>
</g>
<!-- TTYP&#45;SUBMATCH_RESULT_TAB&#45;&gt;TABL&#45;SUBMATCH_RESULT -->
<g id="edge13" class="edge">
<title>TTYP&#45;SUBMATCH_RESULT_TAB&#45;&gt;TABL&#45;SUBMATCH_RESULT</title>
<path fill="none" stroke="black" d="M492.14,-71.7C492.14,-63.98 492.14,-54.71 492.14,-46.11"/>
<polygon fill="black" stroke="black" points="495.64,-46.1 492.14,-36.1 488.64,-46.1 495.64,-46.1"/>
</g>
<!-- TTYP&#45;MATCH_RESULT_TAB&#45;&gt;TABL&#45;MATCH_RESULT -->
<g id="edge14" class="edge">
<title>TTYP&#45;MATCH_RESULT_TAB&#45;&gt;TABL&#45;MATCH_RESULT</title>
<path fill="none" stroke="black" d="M511.72,-215.7C508.79,-207.81 505.26,-198.3 502,-189.55"/>
<polygon fill="black" stroke="black" points="505.26,-188.26 498.5,-180.1 498.7,-190.7 505.26,-188.26"/>
</g>
</g>
</svg>
