<?xml version="1.0" encoding="UTF-8" standalone="no"?>
<!DOCTYPE svg PUBLIC "-//W3C//DTD SVG 1.1//EN"
 "http://www.w3.org/Graphics/SVG/1.1/DTD/svg11.dtd">
<!-- Generated by graphviz version 2.47.3 (20210619.1520)
 -->
<!-- Title: G Pages: 1 -->
<svg width="1632pt" height="548pt"
 viewBox="0.00 0.00 1631.70 548.00" xmlns="http://www.w3.org/2000/svg" xmlns:xlink="http://www.w3.org/1999/xlink">
<g id="graph0" class="graph" transform="scale(1 1) rotate(0) translate(4 544)">
<title>G</title>
<polygon fill="white" stroke="transparent" points="-4,4 -4,-544 1627.7,-544 1627.7,4 -4,4"/>
<!-- CLAS&#45;CX_ST_CALL_METHOD_ERROR -->
<g id="node1" class="node">
<title>CLAS&#45;CX_ST_CALL_METHOD_ERROR</title>
<polygon fill="none" stroke="green" points="1315.9,-540 1052.3,-540 1052.3,-504 1315.9,-504 1315.9,-540"/>
<text text-anchor="middle" x="1184.1" y="-517.8" font-family="Times,serif" font-size="14.00">CLAS&#45;CX_ST_CALL_METHOD_ERROR</text>
</g>
<!-- CLAS&#45;CL_MESSAGE_HELPER -->
<g id="node2" class="node">
<title>CLAS&#45;CL_MESSAGE_HELPER</title>
<g id="a_node2"><a xlink:href="./CLAS_CL_MESSAGE_HELPER.html" xlink:title="CLAS&#45;CL_MESSAGE_HELPER">
<polygon fill="none" stroke="green" points="712.14,-324 506.06,-324 506.06,-288 712.14,-288 712.14,-324"/>
<text text-anchor="middle" x="609.1" y="-301.8" font-family="Times,serif" font-size="14.00">CLAS&#45;CL_MESSAGE_HELPER</text>
</a>
</g>
</g>
<!-- CLAS&#45;CX_ST_CALL_METHOD_ERROR&#45;&gt;CLAS&#45;CL_MESSAGE_HELPER -->
<g id="edge4" class="edge">
<title>CLAS&#45;CX_ST_CALL_METHOD_ERROR&#45;&gt;CLAS&#45;CL_MESSAGE_HELPER</title>
<path fill="none" stroke="black" d="M1138.02,-503.85C1033.27,-464.87 777.65,-369.73 664.52,-327.63"/>
<polygon fill="black" stroke="black" points="665.6,-324.29 655,-324.08 663.15,-330.85 665.6,-324.29"/>
</g>
<!-- DTEL&#45;SOTR_CONC -->
<g id="node17" class="node">
<title>DTEL&#45;SOTR_CONC</title>
<g id="a_node17"><a xlink:href="./DTEL_SOTR_CONC.html" xlink:title="DTEL&#45;SOTR_CONC">
<polygon fill="none" stroke="yellow" points="1473.19,-180 1335.01,-180 1335.01,-144 1473.19,-144 1473.19,-180"/>
<text text-anchor="middle" x="1404.1" y="-157.8" font-family="Times,serif" font-size="14.00">DTEL&#45;SOTR_CONC</text>
</a>
</g>
</g>
<!-- CLAS&#45;CX_ST_CALL_METHOD_ERROR&#45;&gt;DTEL&#45;SOTR_CONC -->
<g id="edge1" class="edge">
<title>CLAS&#45;CX_ST_CALL_METHOD_ERROR&#45;&gt;DTEL&#45;SOTR_CONC</title>
<path fill="none" stroke="black" d="M1166.74,-503.93C1143.21,-478.89 1104.1,-429.65 1104.1,-379 1104.1,-379 1104.1,-379 1104.1,-305 1104.1,-255.43 1239.6,-208.35 1328.48,-182.8"/>
<polygon fill="black" stroke="black" points="1329.6,-186.12 1338.26,-180.02 1327.69,-179.39 1329.6,-186.12"/>
</g>
<!-- CLAS&#45;CX_ST_ERROR -->
<g id="node26" class="node">
<title>CLAS&#45;CX_ST_ERROR</title>
<g id="a_node26"><a xlink:href="./CLAS_CX_ST_ERROR.html" xlink:title="CLAS&#45;CX_ST_ERROR">
<polygon fill="none" stroke="green" points="1383.49,-468 1230.71,-468 1230.71,-432 1383.49,-432 1383.49,-468"/>
<text text-anchor="middle" x="1307.1" y="-445.8" font-family="Times,serif" font-size="14.00">CLAS&#45;CX_ST_ERROR</text>
</a>
</g>
</g>
<!-- CLAS&#45;CX_ST_CALL_METHOD_ERROR&#45;&gt;CLAS&#45;CX_ST_ERROR -->
<g id="edge3" class="edge">
<title>CLAS&#45;CX_ST_CALL_METHOD_ERROR&#45;&gt;CLAS&#45;CX_ST_ERROR</title>
<path fill="none" stroke="black" d="M1214.19,-503.88C1230.42,-494.64 1250.64,-483.13 1268.07,-473.21"/>
<polygon fill="black" stroke="black" points="1269.94,-476.18 1276.9,-468.19 1266.47,-470.09 1269.94,-476.18"/>
</g>
<!-- DTEL&#45;SCX_ST_TSTAMP -->
<g id="node29" class="node">
<title>DTEL&#45;SCX_ST_TSTAMP</title>
<g id="a_node29"><a xlink:href="./DTEL_SCX_ST_TSTAMP.html" xlink:title="DTEL&#45;SCX_ST_TSTAMP">
<polygon fill="none" stroke="green" points="1623.81,-396 1454.39,-396 1454.39,-360 1623.81,-360 1623.81,-396"/>
<text text-anchor="middle" x="1539.1" y="-373.8" font-family="Times,serif" font-size="14.00">DTEL&#45;SCX_ST_TSTAMP</text>
</a>
</g>
</g>
<!-- CLAS&#45;CX_ST_CALL_METHOD_ERROR&#45;&gt;DTEL&#45;SCX_ST_TSTAMP -->
<g id="edge2" class="edge">
<title>CLAS&#45;CX_ST_CALL_METHOD_ERROR&#45;&gt;DTEL&#45;SCX_ST_TSTAMP</title>
<path fill="none" stroke="black" d="M1275.06,-503.94C1312.16,-495.42 1354.98,-483.56 1392.1,-468 1434.24,-450.33 1478.57,-421.95 1507.39,-402"/>
<polygon fill="black" stroke="black" points="1509.63,-404.7 1515.82,-396.1 1505.62,-398.97 1509.63,-404.7"/>
</g>
<!-- INTF&#45;IF_T100_MESSAGE -->
<g id="node3" class="node">
<title>INTF&#45;IF_T100_MESSAGE</title>
<g id="a_node3"><a xlink:href="./INTF_IF_T100_MESSAGE.html" xlink:title="INTF&#45;IF_T100_MESSAGE">
<polygon fill="none" stroke="green" points="695.69,-252 522.51,-252 522.51,-216 695.69,-216 695.69,-252"/>
<text text-anchor="middle" x="609.1" y="-229.8" font-family="Times,serif" font-size="14.00">INTF&#45;IF_T100_MESSAGE</text>
</a>
</g>
</g>
<!-- CLAS&#45;CL_MESSAGE_HELPER&#45;&gt;INTF&#45;IF_T100_MESSAGE -->
<g id="edge12" class="edge">
<title>CLAS&#45;CL_MESSAGE_HELPER&#45;&gt;INTF&#45;IF_T100_MESSAGE</title>
<path fill="none" stroke="black" d="M609.1,-287.7C609.1,-279.98 609.1,-270.71 609.1,-262.11"/>
<polygon fill="black" stroke="black" points="612.6,-262.1 609.1,-252.1 605.6,-262.1 612.6,-262.1"/>
</g>
<!-- INTF&#45;IF_MESSAGE -->
<g id="node4" class="node">
<title>INTF&#45;IF_MESSAGE</title>
<g id="a_node4"><a xlink:href="./INTF_IF_MESSAGE.html" xlink:title="INTF&#45;IF_MESSAGE">
<polygon fill="none" stroke="green" points="792.14,-180 656.07,-180 656.07,-144 792.14,-144 792.14,-180"/>
<text text-anchor="middle" x="724.1" y="-157.8" font-family="Times,serif" font-size="14.00">INTF&#45;IF_MESSAGE</text>
</a>
</g>
</g>
<!-- CLAS&#45;CL_MESSAGE_HELPER&#45;&gt;INTF&#45;IF_MESSAGE -->
<g id="edge10" class="edge">
<title>CLAS&#45;CL_MESSAGE_HELPER&#45;&gt;INTF&#45;IF_MESSAGE</title>
<path fill="none" stroke="black" d="M657.96,-287.95C675.25,-279.63 693.3,-267.9 705.1,-252 718.3,-234.2 722.74,-209.19 724.06,-190.22"/>
<polygon fill="black" stroke="black" points="727.56,-190.25 724.51,-180.11 720.57,-189.94 727.56,-190.25"/>
</g>
<!-- TABL&#45;SCX_T100KEY -->
<g id="node5" class="node">
<title>TABL&#45;SCX_T100KEY</title>
<g id="a_node5"><a xlink:href="./TABL_SCX_T100KEY.html" xlink:title="TABL&#45;SCX_T100KEY">
<polygon fill="none" stroke="yellow" points="561.85,-180 412.35,-180 412.35,-144 561.85,-144 561.85,-180"/>
<text text-anchor="middle" x="487.1" y="-157.8" font-family="Times,serif" font-size="14.00">TABL&#45;SCX_T100KEY</text>
</a>
</g>
</g>
<!-- CLAS&#45;CL_MESSAGE_HELPER&#45;&gt;TABL&#45;SCX_T100KEY -->
<g id="edge8" class="edge">
<title>CLAS&#45;CL_MESSAGE_HELPER&#45;&gt;TABL&#45;SCX_T100KEY</title>
<path fill="none" stroke="black" d="M561.84,-287.96C544.34,-279.55 525.72,-267.75 513.1,-252 498.99,-234.38 492.53,-209.35 489.58,-190.32"/>
<polygon fill="black" stroke="black" points="493.02,-189.64 488.25,-180.18 486.08,-190.55 493.02,-189.64"/>
</g>
<!-- CLAS&#45;CX_ROOT -->
<g id="node11" class="node">
<title>CLAS&#45;CX_ROOT</title>
<g id="a_node11"><a xlink:href="./CLAS_CX_ROOT.html" xlink:title="CLAS&#45;CX_ROOT">
<polygon fill="none" stroke="green" points="1038.58,-252 917.62,-252 917.62,-216 1038.58,-216 1038.58,-252"/>
<text text-anchor="middle" x="978.1" y="-229.8" font-family="Times,serif" font-size="14.00">CLAS&#45;CX_ROOT</text>
</a>
</g>
</g>
<!-- CLAS&#45;CL_MESSAGE_HELPER&#45;&gt;CLAS&#45;CX_ROOT -->
<g id="edge11" class="edge">
<title>CLAS&#45;CL_MESSAGE_HELPER&#45;&gt;CLAS&#45;CX_ROOT</title>
<path fill="none" stroke="black" d="M698.9,-287.97C763.03,-275.8 848.1,-259.66 907.41,-248.41"/>
<polygon fill="black" stroke="black" points="908.27,-251.81 917.44,-246.51 906.96,-244.93 908.27,-251.81"/>
</g>
<!-- CLAS&#45;CL_MESSAGE_HELPER&#45;&gt;DTEL&#45;SOTR_CONC -->
<g id="edge7" class="edge">
<title>CLAS&#45;CL_MESSAGE_HELPER&#45;&gt;DTEL&#45;SOTR_CONC</title>
<path fill="none" stroke="black" d="M712.31,-299.29C822.42,-292.01 988.85,-277.23 1047.1,-252 1069.97,-242.09 1067.38,-226.26 1090.1,-216 1183.87,-173.65 1219.6,-197.74 1324.77,-180.11"/>
<polygon fill="black" stroke="black" points="1325.58,-183.52 1334.82,-178.34 1324.37,-176.63 1325.58,-183.52"/>
</g>
<!-- TABL&#45;SYMSG -->
<g id="node19" class="node">
<title>TABL&#45;SYMSG</title>
<g id="a_node19"><a xlink:href="./TABL_SYMSG.html" xlink:title="TABL&#45;SYMSG">
<polygon fill="none" stroke="green" points="356.03,-180 250.17,-180 250.17,-144 356.03,-144 356.03,-180"/>
<text text-anchor="middle" x="303.1" y="-157.8" font-family="Times,serif" font-size="14.00">TABL&#45;SYMSG</text>
</a>
</g>
</g>
<!-- CLAS&#45;CL_MESSAGE_HELPER&#45;&gt;TABL&#45;SYMSG -->
<g id="edge9" class="edge">
<title>CLAS&#45;CL_MESSAGE_HELPER&#45;&gt;TABL&#45;SYMSG</title>
<path fill="none" stroke="black" d="M566.5,-287.89C543.69,-278.23 515.37,-265.42 491.1,-252 465.86,-238.04 462.65,-229.38 437.1,-216 413.63,-203.71 386.64,-192.52 363.07,-183.62"/>
<polygon fill="black" stroke="black" points="364.13,-180.28 353.54,-180.07 361.69,-186.84 364.13,-180.28"/>
</g>
<!-- TABL&#45;SOTR_PARAM -->
<g id="node24" class="node">
<title>TABL&#45;SOTR_PARAM</title>
<g id="a_node24"><a xlink:href="./TABL_SOTR_PARAM.html" xlink:title="TABL&#45;SOTR_PARAM">
<polygon fill="none" stroke="yellow" points="253.86,-252 104.34,-252 104.34,-216 253.86,-216 253.86,-252"/>
<text text-anchor="middle" x="179.1" y="-229.8" font-family="Times,serif" font-size="14.00">TABL&#45;SOTR_PARAM</text>
</a>
</g>
</g>
<!-- CLAS&#45;CL_MESSAGE_HELPER&#45;&gt;TABL&#45;SOTR_PARAM -->
<g id="edge6" class="edge">
<title>CLAS&#45;CL_MESSAGE_HELPER&#45;&gt;TABL&#45;SOTR_PARAM</title>
<path fill="none" stroke="black" d="M505.94,-290.51C439.59,-280.88 351.31,-267.5 264.23,-252.16"/>
<polygon fill="black" stroke="black" points="264.63,-248.68 254.17,-250.38 263.41,-255.57 264.63,-248.68"/>
</g>
<!-- TABL&#45;SBTFR_PARAM -->
<g id="node25" class="node">
<title>TABL&#45;SBTFR_PARAM</title>
<g id="a_node25"><a xlink:href="./TABL_SBTFR_PARAM.html" xlink:title="TABL&#45;SBTFR_PARAM">
<polygon fill="none" stroke="yellow" points="428.38,-252 271.82,-252 271.82,-216 428.38,-216 428.38,-252"/>
<text text-anchor="middle" x="350.1" y="-229.8" font-family="Times,serif" font-size="14.00">TABL&#45;SBTFR_PARAM</text>
</a>
</g>
</g>
<!-- CLAS&#45;CL_MESSAGE_HELPER&#45;&gt;TABL&#45;SBTFR_PARAM -->
<g id="edge5" class="edge">
<title>CLAS&#45;CL_MESSAGE_HELPER&#45;&gt;TABL&#45;SBTFR_PARAM</title>
<path fill="none" stroke="black" d="M546.07,-287.97C508.94,-277.93 461.81,-265.19 423.07,-254.72"/>
<polygon fill="black" stroke="black" points="423.98,-251.34 413.41,-252.11 422.15,-258.1 423.98,-251.34"/>
</g>
<!-- INTF&#45;IF_T100_MESSAGE&#45;&gt;INTF&#45;IF_MESSAGE -->
<g id="edge17" class="edge">
<title>INTF&#45;IF_T100_MESSAGE&#45;&gt;INTF&#45;IF_MESSAGE</title>
<path fill="none" stroke="black" d="M637.23,-215.88C652.27,-206.72 670.97,-195.34 687.16,-185.48"/>
<polygon fill="black" stroke="black" points="689.14,-188.38 695.86,-180.19 685.5,-182.4 689.14,-188.38"/>
</g>
<!-- INTF&#45;IF_T100_MESSAGE&#45;&gt;TABL&#45;SCX_T100KEY -->
<g id="edge16" class="edge">
<title>INTF&#45;IF_T100_MESSAGE&#45;&gt;TABL&#45;SCX_T100KEY</title>
<path fill="none" stroke="black" d="M579.26,-215.88C563.16,-206.64 543.1,-195.13 525.81,-185.21"/>
<polygon fill="black" stroke="black" points="527.48,-182.13 517.06,-180.19 523.99,-188.2 527.48,-182.13"/>
</g>
<!-- DTEL&#45;SCX_ATTRNAME -->
<g id="node6" class="node">
<title>DTEL&#45;SCX_ATTRNAME</title>
<g id="a_node6"><a xlink:href="./DTEL_SCX_ATTRNAME.html" xlink:title="DTEL&#45;SCX_ATTRNAME">
<polygon fill="none" stroke="green" points="752.51,-108 583.69,-108 583.69,-72 752.51,-72 752.51,-108"/>
<text text-anchor="middle" x="668.1" y="-85.8" font-family="Times,serif" font-size="14.00">DTEL&#45;SCX_ATTRNAME</text>
</a>
</g>
</g>
<!-- INTF&#45;IF_T100_MESSAGE&#45;&gt;DTEL&#45;SCX_ATTRNAME -->
<g id="edge15" class="edge">
<title>INTF&#45;IF_T100_MESSAGE&#45;&gt;DTEL&#45;SCX_ATTRNAME</title>
<path fill="none" stroke="black" d="M616.22,-215.87C626.36,-191.46 645.07,-146.43 657.03,-117.64"/>
<polygon fill="black" stroke="black" points="660.35,-118.77 660.96,-108.19 653.89,-116.08 660.35,-118.77"/>
</g>
<!-- DTEL&#45;SYMSGNO -->
<g id="node7" class="node">
<title>DTEL&#45;SYMSGNO</title>
<g id="a_node7"><a xlink:href="./DTEL_SYMSGNO.html" xlink:title="DTEL&#45;SYMSGNO">
<polygon fill="none" stroke="green" points="428.46,-108 303.74,-108 303.74,-72 428.46,-72 428.46,-108"/>
<text text-anchor="middle" x="366.1" y="-85.8" font-family="Times,serif" font-size="14.00">DTEL&#45;SYMSGNO</text>
</a>
</g>
</g>
<!-- INTF&#45;IF_T100_MESSAGE&#45;&gt;DTEL&#45;SYMSGNO -->
<g id="edge14" class="edge">
<title>INTF&#45;IF_T100_MESSAGE&#45;&gt;DTEL&#45;SYMSGNO</title>
<path fill="none" stroke="black" d="M522.5,-228.25C482.17,-221.98 435.95,-208.49 403.1,-180 384.88,-164.2 375.45,-137.99 370.69,-118.09"/>
<polygon fill="black" stroke="black" points="374.06,-117.12 368.54,-108.07 367.21,-118.59 374.06,-117.12"/>
</g>
<!-- DTEL&#45;SYMSGID -->
<g id="node9" class="node">
<title>DTEL&#45;SYMSGID</title>
<g id="a_node9"><a xlink:href="./DTEL_SYMSGID.html" xlink:title="DTEL&#45;SYMSGID">
<polygon fill="none" stroke="green" points="566.02,-108 446.18,-108 446.18,-72 566.02,-72 566.02,-108"/>
<text text-anchor="middle" x="506.1" y="-85.8" font-family="Times,serif" font-size="14.00">DTEL&#45;SYMSGID</text>
</a>
</g>
</g>
<!-- INTF&#45;IF_T100_MESSAGE&#45;&gt;DTEL&#45;SYMSGID -->
<g id="edge13" class="edge">
<title>INTF&#45;IF_T100_MESSAGE&#45;&gt;DTEL&#45;SYMSGID</title>
<path fill="none" stroke="black" d="M604.53,-216C598.87,-197.09 587.87,-166.28 571.1,-144 562.73,-132.87 551.54,-122.67 540.81,-114.24"/>
<polygon fill="black" stroke="black" points="542.84,-111.39 532.75,-108.16 538.62,-116.98 542.84,-111.39"/>
</g>
<!-- TABL&#45;SCX_T100KEY&#45;&gt;DTEL&#45;SCX_ATTRNAME -->
<g id="edge20" class="edge">
<title>TABL&#45;SCX_T100KEY&#45;&gt;DTEL&#45;SCX_ATTRNAME</title>
<path fill="none" stroke="black" d="M531.38,-143.88C556.45,-134.18 588,-121.98 614.47,-111.74"/>
<polygon fill="black" stroke="black" points="615.9,-114.94 623.97,-108.07 613.38,-108.41 615.9,-114.94"/>
</g>
<!-- TABL&#45;SCX_T100KEY&#45;&gt;DTEL&#45;SYMSGNO -->
<g id="edge19" class="edge">
<title>TABL&#45;SCX_T100KEY&#45;&gt;DTEL&#45;SYMSGNO</title>
<path fill="none" stroke="black" d="M457.5,-143.88C441.53,-134.64 421.64,-123.13 404.49,-113.21"/>
<polygon fill="black" stroke="black" points="406.22,-110.17 395.81,-108.19 402.72,-116.23 406.22,-110.17"/>
</g>
<!-- TABL&#45;SCX_T100KEY&#45;&gt;DTEL&#45;SYMSGID -->
<g id="edge18" class="edge">
<title>TABL&#45;SCX_T100KEY&#45;&gt;DTEL&#45;SYMSGID</title>
<path fill="none" stroke="black" d="M491.8,-143.7C493.91,-135.9 496.46,-126.51 498.82,-117.83"/>
<polygon fill="black" stroke="black" points="502.22,-118.67 501.46,-108.1 495.46,-116.84 502.22,-118.67"/>
</g>
<!-- DOMA&#45;SYMSGNO -->
<g id="node8" class="node">
<title>DOMA&#45;SYMSGNO</title>
<g id="a_node8"><a xlink:href="./DOMA_SYMSGNO.html" xlink:title="DOMA&#45;SYMSGNO">
<polygon fill="none" stroke="yellow" points="435.96,-36 304.24,-36 304.24,0 435.96,0 435.96,-36"/>
<text text-anchor="middle" x="370.1" y="-13.8" font-family="Times,serif" font-size="14.00">DOMA&#45;SYMSGNO</text>
</a>
</g>
</g>
<!-- DTEL&#45;SYMSGNO&#45;&gt;DOMA&#45;SYMSGNO -->
<g id="edge21" class="edge">
<title>DTEL&#45;SYMSGNO&#45;&gt;DOMA&#45;SYMSGNO</title>
<path fill="none" stroke="black" d="M367.09,-71.7C367.53,-63.98 368.06,-54.71 368.55,-46.11"/>
<polygon fill="black" stroke="black" points="372.05,-46.29 369.12,-36.1 365.06,-45.89 372.05,-46.29"/>
</g>
<!-- DOMA&#45;ARBGB -->
<g id="node10" class="node">
<title>DOMA&#45;ARBGB</title>
<g id="a_node10"><a xlink:href="./DOMA_ARBGB.html" xlink:title="DOMA&#45;ARBGB">
<polygon fill="none" stroke="yellow" points="565.75,-36 454.45,-36 454.45,0 565.75,0 565.75,-36"/>
<text text-anchor="middle" x="510.1" y="-13.8" font-family="Times,serif" font-size="14.00">DOMA&#45;ARBGB</text>
</a>
</g>
</g>
<!-- DTEL&#45;SYMSGID&#45;&gt;DOMA&#45;ARBGB -->
<g id="edge22" class="edge">
<title>DTEL&#45;SYMSGID&#45;&gt;DOMA&#45;ARBGB</title>
<path fill="none" stroke="black" d="M507.09,-71.7C507.53,-63.98 508.06,-54.71 508.55,-46.11"/>
<polygon fill="black" stroke="black" points="512.05,-46.29 509.12,-36.1 505.06,-45.89 512.05,-46.29"/>
</g>
<!-- CLAS&#45;CX_ROOT&#45;&gt;INTF&#45;IF_MESSAGE -->
<g id="edge26" class="edge">
<title>CLAS&#45;CX_ROOT&#45;&gt;INTF&#45;IF_MESSAGE</title>
<path fill="none" stroke="black" d="M917.58,-216.32C881.08,-206.26 834.37,-193.39 795.99,-182.81"/>
<polygon fill="black" stroke="black" points="796.49,-179.32 785.92,-180.04 794.63,-186.07 796.49,-179.32"/>
</g>
<!-- INTF&#45;IF_SERIALIZABLE_OBJECT -->
<g id="node12" class="node">
<title>INTF&#45;IF_SERIALIZABLE_OBJECT</title>
<g id="a_node12"><a xlink:href="./INTF_IF_SERIALIZABLE_OBJECT.html" xlink:title="INTF&#45;IF_SERIALIZABLE_OBJECT">
<polygon fill="none" stroke="green" points="1038.39,-180 809.81,-180 809.81,-144 1038.39,-144 1038.39,-180"/>
<text text-anchor="middle" x="924.1" y="-157.8" font-family="Times,serif" font-size="14.00">INTF&#45;IF_SERIALIZABLE_OBJECT</text>
</a>
</g>
</g>
<!-- CLAS&#45;CX_ROOT&#45;&gt;INTF&#45;IF_SERIALIZABLE_OBJECT -->
<g id="edge27" class="edge">
<title>CLAS&#45;CX_ROOT&#45;&gt;INTF&#45;IF_SERIALIZABLE_OBJECT</title>
<path fill="none" stroke="black" d="M964.75,-215.7C958.34,-207.39 950.54,-197.28 943.49,-188.14"/>
<polygon fill="black" stroke="black" points="946.17,-185.88 937.3,-180.1 940.63,-190.16 946.17,-185.88"/>
</g>
<!-- DTEL&#45;SYREPID -->
<g id="node13" class="node">
<title>DTEL&#45;SYREPID</title>
<g id="a_node13"><a xlink:href="./DTEL_SYREPID.html" xlink:title="DTEL&#45;SYREPID">
<polygon fill="none" stroke="green" points="1171.35,-180 1056.85,-180 1056.85,-144 1171.35,-144 1171.35,-180"/>
<text text-anchor="middle" x="1114.1" y="-157.8" font-family="Times,serif" font-size="14.00">DTEL&#45;SYREPID</text>
</a>
</g>
</g>
<!-- CLAS&#45;CX_ROOT&#45;&gt;DTEL&#45;SYREPID -->
<g id="edge25" class="edge">
<title>CLAS&#45;CX_ROOT&#45;&gt;DTEL&#45;SYREPID</title>
<path fill="none" stroke="black" d="M1011.37,-215.88C1029.56,-206.51 1052.29,-194.81 1071.74,-184.8"/>
<polygon fill="black" stroke="black" points="1073.41,-187.88 1080.7,-180.19 1070.21,-181.65 1073.41,-187.88"/>
</g>
<!-- DTEL&#45;S380ERRID -->
<g id="node15" class="node">
<title>DTEL&#45;S380ERRID</title>
<g id="a_node15"><a xlink:href="./DTEL_S380ERRID.html" xlink:title="DTEL&#45;S380ERRID">
<polygon fill="none" stroke="yellow" points="1316.8,-180 1189.4,-180 1189.4,-144 1316.8,-144 1316.8,-180"/>
<text text-anchor="middle" x="1253.1" y="-157.8" font-family="Times,serif" font-size="14.00">DTEL&#45;S380ERRID</text>
</a>
</g>
</g>
<!-- CLAS&#45;CX_ROOT&#45;&gt;DTEL&#45;S380ERRID -->
<g id="edge24" class="edge">
<title>CLAS&#45;CX_ROOT&#45;&gt;DTEL&#45;S380ERRID</title>
<path fill="none" stroke="black" d="M1038.79,-217.55C1080.26,-207 1135.45,-192.95 1179.44,-181.75"/>
<polygon fill="black" stroke="black" points="1180.39,-185.12 1189.22,-179.26 1178.66,-178.34 1180.39,-185.12"/>
</g>
<!-- CLAS&#45;CX_ROOT&#45;&gt;DTEL&#45;SOTR_CONC -->
<g id="edge23" class="edge">
<title>CLAS&#45;CX_ROOT&#45;&gt;DTEL&#45;SOTR_CONC</title>
<path fill="none" stroke="black" d="M1038.98,-218.53C1043.41,-217.63 1047.82,-216.77 1052.1,-216 1169.79,-194.8 1203.35,-200.75 1324.78,-180.15"/>
<polygon fill="black" stroke="black" points="1325.58,-183.56 1334.84,-178.41 1324.39,-176.66 1325.58,-183.56"/>
</g>
<!-- DOMA&#45;PROGRAMM -->
<g id="node14" class="node">
<title>DOMA&#45;PROGRAMM</title>
<g id="a_node14"><a xlink:href="./DOMA_PROGRAMM.html" xlink:title="DOMA&#45;PROGRAMM">
<polygon fill="none" stroke="yellow" points="1167.69,-108 1022.51,-108 1022.51,-72 1167.69,-72 1167.69,-108"/>
<text text-anchor="middle" x="1095.1" y="-85.8" font-family="Times,serif" font-size="14.00">DOMA&#45;PROGRAMM</text>
</a>
</g>
</g>
<!-- DTEL&#45;SYREPID&#45;&gt;DOMA&#45;PROGRAMM -->
<g id="edge28" class="edge">
<title>DTEL&#45;SYREPID&#45;&gt;DOMA&#45;PROGRAMM</title>
<path fill="none" stroke="black" d="M1109.4,-143.7C1107.29,-135.9 1104.74,-126.51 1102.38,-117.83"/>
<polygon fill="black" stroke="black" points="1105.74,-116.84 1099.74,-108.1 1098.98,-118.67 1105.74,-116.84"/>
</g>
<!-- DOMA&#45;SYCHAR30 -->
<g id="node16" class="node">
<title>DOMA&#45;SYCHAR30</title>
<g id="a_node16"><a xlink:href="./DOMA_SYCHAR30.html" xlink:title="DOMA&#45;SYCHAR30">
<polygon fill="none" stroke="yellow" points="1320.3,-108 1185.9,-108 1185.9,-72 1320.3,-72 1320.3,-108"/>
<text text-anchor="middle" x="1253.1" y="-85.8" font-family="Times,serif" font-size="14.00">DOMA&#45;SYCHAR30</text>
</a>
</g>
</g>
<!-- DTEL&#45;S380ERRID&#45;&gt;DOMA&#45;SYCHAR30 -->
<g id="edge29" class="edge">
<title>DTEL&#45;S380ERRID&#45;&gt;DOMA&#45;SYCHAR30</title>
<path fill="none" stroke="black" d="M1253.1,-143.7C1253.1,-135.98 1253.1,-126.71 1253.1,-118.11"/>
<polygon fill="black" stroke="black" points="1256.6,-118.1 1253.1,-108.1 1249.6,-118.1 1256.6,-118.1"/>
</g>
<!-- DOMA&#45;SYSUUID_C -->
<g id="node18" class="node">
<title>DOMA&#45;SYSUUID_C</title>
<g id="a_node18"><a xlink:href="./DOMA_SYSUUID_C.html" xlink:title="DOMA&#45;SYSUUID_C">
<polygon fill="none" stroke="yellow" points="1478.51,-108 1337.69,-108 1337.69,-72 1478.51,-72 1478.51,-108"/>
<text text-anchor="middle" x="1408.1" y="-85.8" font-family="Times,serif" font-size="14.00">DOMA&#45;SYSUUID_C</text>
</a>
</g>
</g>
<!-- DTEL&#45;SOTR_CONC&#45;&gt;DOMA&#45;SYSUUID_C -->
<g id="edge30" class="edge">
<title>DTEL&#45;SOTR_CONC&#45;&gt;DOMA&#45;SYSUUID_C</title>
<path fill="none" stroke="black" d="M1405.09,-143.7C1405.53,-135.98 1406.06,-126.71 1406.55,-118.11"/>
<polygon fill="black" stroke="black" points="1410.05,-118.29 1407.12,-108.1 1403.06,-117.89 1410.05,-118.29"/>
</g>
<!-- TABL&#45;SYMSG&#45;&gt;DTEL&#45;SYMSGNO -->
<g id="edge33" class="edge">
<title>TABL&#45;SYMSG&#45;&gt;DTEL&#45;SYMSGNO</title>
<path fill="none" stroke="black" d="M318.67,-143.7C326.3,-135.22 335.62,-124.86 343.98,-115.58"/>
<polygon fill="black" stroke="black" points="346.62,-117.88 350.71,-108.1 341.42,-113.2 346.62,-117.88"/>
</g>
<!-- TABL&#45;SYMSG&#45;&gt;DTEL&#45;SYMSGID -->
<g id="edge32" class="edge">
<title>TABL&#45;SYMSG&#45;&gt;DTEL&#45;SYMSGID</title>
<path fill="none" stroke="black" d="M352.5,-143.97C380.99,-134.14 416.99,-121.73 446.97,-111.39"/>
<polygon fill="black" stroke="black" points="448.17,-114.68 456.48,-108.11 445.88,-108.06 448.17,-114.68"/>
</g>
<!-- DTEL&#45;SYMSGV -->
<g id="node20" class="node">
<title>DTEL&#45;SYMSGV</title>
<g id="a_node20"><a xlink:href="./DTEL_SYMSGV.html" xlink:title="DTEL&#45;SYMSGV">
<polygon fill="none" stroke="green" points="279.36,-108 164.85,-108 164.85,-72 279.36,-72 279.36,-108"/>
<text text-anchor="middle" x="222.1" y="-85.8" font-family="Times,serif" font-size="14.00">DTEL&#45;SYMSGV</text>
</a>
</g>
</g>
<!-- TABL&#45;SYMSG&#45;&gt;DTEL&#45;SYMSGV -->
<g id="edge34" class="edge">
<title>TABL&#45;SYMSG&#45;&gt;DTEL&#45;SYMSGV</title>
<path fill="none" stroke="black" d="M283.08,-143.7C272.97,-134.97 260.56,-124.24 249.58,-114.75"/>
<polygon fill="black" stroke="black" points="251.75,-111.99 241.89,-108.1 247.17,-117.29 251.75,-111.99"/>
</g>
<!-- DTEL&#45;SYMSGTY -->
<g id="node22" class="node">
<title>DTEL&#45;SYMSGTY</title>
<g id="a_node22"><a xlink:href="./DTEL_SYMSGTY.html" xlink:title="DTEL&#45;SYMSGTY">
<polygon fill="none" stroke="green" points="139.91,-108 16.29,-108 16.29,-72 139.91,-72 139.91,-108"/>
<text text-anchor="middle" x="78.1" y="-85.8" font-family="Times,serif" font-size="14.00">DTEL&#45;SYMSGTY</text>
</a>
</g>
</g>
<!-- TABL&#45;SYMSG&#45;&gt;DTEL&#45;SYMSGTY -->
<g id="edge31" class="edge">
<title>TABL&#45;SYMSG&#45;&gt;DTEL&#45;SYMSGTY</title>
<path fill="none" stroke="black" d="M250.35,-144.59C218.19,-134.58 176.86,-121.73 142.75,-111.11"/>
<polygon fill="black" stroke="black" points="143.46,-107.67 132.87,-108.04 141.38,-114.35 143.46,-107.67"/>
</g>
<!-- DOMA&#45;SYCHAR50 -->
<g id="node21" class="node">
<title>DOMA&#45;SYCHAR50</title>
<g id="a_node21"><a xlink:href="./DOMA_SYCHAR50.html" xlink:title="DOMA&#45;SYCHAR50">
<polygon fill="none" stroke="yellow" points="286.3,-36 151.9,-36 151.9,0 286.3,0 286.3,-36"/>
<text text-anchor="middle" x="219.1" y="-13.8" font-family="Times,serif" font-size="14.00">DOMA&#45;SYCHAR50</text>
</a>
</g>
</g>
<!-- DTEL&#45;SYMSGV&#45;&gt;DOMA&#45;SYCHAR50 -->
<g id="edge35" class="edge">
<title>DTEL&#45;SYMSGV&#45;&gt;DOMA&#45;SYCHAR50</title>
<path fill="none" stroke="black" d="M221.36,-71.7C221.03,-63.98 220.63,-54.71 220.26,-46.11"/>
<polygon fill="black" stroke="black" points="223.76,-45.95 219.83,-36.1 216.76,-46.25 223.76,-45.95"/>
</g>
<!-- DOMA&#45;SYCHAR01 -->
<g id="node23" class="node">
<title>DOMA&#45;SYCHAR01</title>
<g id="a_node23"><a xlink:href="./DOMA_SYCHAR01.html" xlink:title="DOMA&#45;SYCHAR01">
<polygon fill="none" stroke="yellow" points="134.3,-36 -0.1,-36 -0.1,0 134.3,0 134.3,-36"/>
<text text-anchor="middle" x="67.1" y="-13.8" font-family="Times,serif" font-size="14.00">DOMA&#45;SYCHAR01</text>
</a>
</g>
</g>
<!-- DTEL&#45;SYMSGTY&#45;&gt;DOMA&#45;SYCHAR01 -->
<g id="edge36" class="edge">
<title>DTEL&#45;SYMSGTY&#45;&gt;DOMA&#45;SYCHAR01</title>
<path fill="none" stroke="black" d="M75.38,-71.7C74.17,-63.98 72.71,-54.71 71.36,-46.11"/>
<polygon fill="black" stroke="black" points="74.8,-45.44 69.79,-36.1 67.88,-46.53 74.8,-45.44"/>
</g>
<!-- CLAS&#45;CX_ST_ERROR&#45;&gt;DTEL&#45;SOTR_CONC -->
<g id="edge37" class="edge">
<title>CLAS&#45;CX_ST_ERROR&#45;&gt;DTEL&#45;SOTR_CONC</title>
<path fill="none" stroke="black" d="M1363.54,-431.96C1380.54,-423.89 1397.27,-412.33 1407.1,-396 1446.29,-330.88 1426.34,-235.86 1412.95,-189.89"/>
<polygon fill="black" stroke="black" points="1416.23,-188.63 1409.97,-180.08 1409.53,-190.66 1416.23,-188.63"/>
</g>
<!-- CLAS&#45;CX_TRANSFORMATION_ERROR -->
<g id="node27" class="node">
<title>CLAS&#45;CX_TRANSFORMATION_ERROR</title>
<g id="a_node27"><a xlink:href="./CLAS_CX_TRANSFORMATION_ERROR.html" xlink:title="CLAS&#45;CX_TRANSFORMATION_ERROR">
<polygon fill="none" stroke="green" points="1397.74,-396 1132.46,-396 1132.46,-360 1397.74,-360 1397.74,-396"/>
<text text-anchor="middle" x="1265.1" y="-373.8" font-family="Times,serif" font-size="14.00">CLAS&#45;CX_TRANSFORMATION_ERROR</text>
</a>
</g>
</g>
<!-- CLAS&#45;CX_ST_ERROR&#45;&gt;CLAS&#45;CX_TRANSFORMATION_ERROR -->
<g id="edge39" class="edge">
<title>CLAS&#45;CX_ST_ERROR&#45;&gt;CLAS&#45;CX_TRANSFORMATION_ERROR</title>
<path fill="none" stroke="black" d="M1296.72,-431.7C1291.84,-423.56 1285.91,-413.69 1280.52,-404.7"/>
<polygon fill="black" stroke="black" points="1283.51,-402.88 1275.36,-396.1 1277.51,-406.48 1283.51,-402.88"/>
</g>
<!-- CLAS&#45;CX_ST_ERROR&#45;&gt;DTEL&#45;SCX_ST_TSTAMP -->
<g id="edge38" class="edge">
<title>CLAS&#45;CX_ST_ERROR&#45;&gt;DTEL&#45;SCX_ST_TSTAMP</title>
<path fill="none" stroke="black" d="M1363.56,-431.97C1396.4,-422.06 1437.97,-409.51 1472.41,-399.12"/>
<polygon fill="black" stroke="black" points="1473.83,-402.35 1482.39,-396.11 1471.81,-395.65 1473.83,-402.35"/>
</g>
<!-- CLAS&#45;CX_TRANSFORMATION_ERROR&#45;&gt;DTEL&#45;SOTR_CONC -->
<g id="edge40" class="edge">
<title>CLAS&#45;CX_TRANSFORMATION_ERROR&#45;&gt;DTEL&#45;SOTR_CONC</title>
<path fill="none" stroke="black" d="M1305.01,-359.96C1321.27,-351.27 1339.04,-339.28 1351.1,-324 1382.53,-284.19 1395.66,-225.01 1400.89,-190.59"/>
<polygon fill="black" stroke="black" points="1404.4,-190.72 1402.32,-180.34 1397.47,-189.75 1404.4,-190.72"/>
</g>
<!-- CLAS&#45;CX_DYNAMIC_CHECK -->
<g id="node28" class="node">
<title>CLAS&#45;CX_DYNAMIC_CHECK</title>
<g id="a_node28"><a xlink:href="./CLAS_CX_DYNAMIC_CHECK.html" xlink:title="CLAS&#45;CX_DYNAMIC_CHECK">
<polygon fill="none" stroke="green" points="1342.29,-324 1137.91,-324 1137.91,-288 1342.29,-288 1342.29,-324"/>
<text text-anchor="middle" x="1240.1" y="-301.8" font-family="Times,serif" font-size="14.00">CLAS&#45;CX_DYNAMIC_CHECK</text>
</a>
</g>
</g>
<!-- CLAS&#45;CX_TRANSFORMATION_ERROR&#45;&gt;CLAS&#45;CX_DYNAMIC_CHECK -->
<g id="edge41" class="edge">
<title>CLAS&#45;CX_TRANSFORMATION_ERROR&#45;&gt;CLAS&#45;CX_DYNAMIC_CHECK</title>
<path fill="none" stroke="black" d="M1258.92,-359.7C1256.11,-351.81 1252.71,-342.3 1249.58,-333.55"/>
<polygon fill="black" stroke="black" points="1252.87,-332.34 1246.21,-324.1 1246.28,-334.7 1252.87,-332.34"/>
</g>
<!-- CLAS&#45;CX_DYNAMIC_CHECK&#45;&gt;CLAS&#45;CX_ROOT -->
<g id="edge42" class="edge">
<title>CLAS&#45;CX_DYNAMIC_CHECK&#45;&gt;CLAS&#45;CX_ROOT</title>
<path fill="none" stroke="black" d="M1176.34,-287.97C1137.8,-277.67 1088.61,-264.53 1048.87,-253.91"/>
<polygon fill="black" stroke="black" points="1049.55,-250.47 1038.98,-251.27 1047.74,-257.23 1049.55,-250.47"/>
</g>
</g>
</svg>
