<?xml version="1.0" encoding="UTF-8" standalone="no"?>
<!DOCTYPE svg PUBLIC "-//W3C//DTD SVG 1.1//EN"
 "http://www.w3.org/Graphics/SVG/1.1/DTD/svg11.dtd">
<!-- Generated by graphviz version 2.47.3 (20210619.1520)
 -->
<!-- Title: G Pages: 1 -->
<svg width="645pt" height="548pt"
 viewBox="0.00 0.00 644.61 548.00" xmlns="http://www.w3.org/2000/svg" xmlns:xlink="http://www.w3.org/1999/xlink">
<g id="graph0" class="graph" transform="scale(1 1) rotate(0) translate(4 544)">
<title>G</title>
<polygon fill="white" stroke="transparent" points="-4,4 -4,-544 640.61,-544 640.61,4 -4,4"/>
<!-- CLAS&#45;CL_XCO_CDS_CARDINALITY_1 -->
<g id="node1" class="node">
<title>CLAS&#45;CL_XCO_CDS_CARDINALITY_1</title>
<g id="a_node1"><a xlink:href="./CLAS_CL_XCO_CDS_CARDINALITY_1.html" xlink:title="CLAS&#45;CL_XCO_CDS_CARDINALITY_1">
<polygon fill="none" stroke="green" points="506.83,-540 245.35,-540 245.35,-504 506.83,-504 506.83,-540"/>
<text text-anchor="middle" x="376.09" y="-517.8" font-family="Times,serif" font-size="14.00">CLAS&#45;CL_XCO_CDS_CARDINALITY_1</text>
</a>
</g>
</g>
<!-- INTF&#45;IF_XCO_GEN_BDEF_RSLT_CARDNALTY -->
<g id="node2" class="node">
<title>INTF&#45;IF_XCO_GEN_BDEF_RSLT_CARDNALTY</title>
<g id="a_node2"><a xlink:href="./INTF_IF_XCO_GEN_BDEF_RSLT_CARDNALTY.html" xlink:title="INTF&#45;IF_XCO_GEN_BDEF_RSLT_CARDNALTY">
<polygon fill="none" stroke="green" points="532.93,-468 219.25,-468 219.25,-432 532.93,-432 532.93,-468"/>
<text text-anchor="middle" x="376.09" y="-445.8" font-family="Times,serif" font-size="14.00">INTF&#45;IF_XCO_GEN_BDEF_RSLT_CARDNALTY</text>
</a>
</g>
</g>
<!-- CLAS&#45;CL_XCO_CDS_CARDINALITY_1&#45;&gt;INTF&#45;IF_XCO_GEN_BDEF_RSLT_CARDNALTY -->
<g id="edge3" class="edge">
<title>CLAS&#45;CL_XCO_CDS_CARDINALITY_1&#45;&gt;INTF&#45;IF_XCO_GEN_BDEF_RSLT_CARDNALTY</title>
<path fill="none" stroke="black" d="M370.17,-503.7C369.38,-495.98 369.15,-486.71 369.49,-478.11"/>
<polygon fill="black" stroke="black" points="372.99,-478.32 370.19,-468.1 366.01,-477.84 372.99,-478.32"/>
</g>
<!-- CLAS&#45;CL_XCO_CDS_CARDINALITY_1&#45;&gt;INTF&#45;IF_XCO_GEN_BDEF_RSLT_CARDNALTY -->
<g id="edge26" class="edge">
<title>CLAS&#45;CL_XCO_CDS_CARDINALITY_1&#45;&gt;INTF&#45;IF_XCO_GEN_BDEF_RSLT_CARDNALTY</title>
<path fill="none" stroke="black" d="M382.01,-503.7C382.8,-495.98 383.03,-486.71 382.69,-478.11"/>
<polygon fill="black" stroke="black" points="386.17,-477.84 381.98,-468.1 379.19,-478.32 386.17,-477.84"/>
</g>
<!-- CLAS&#45;CL_XCO_CDS_CARDINALITY -->
<g id="node5" class="node">
<title>CLAS&#45;CL_XCO_CDS_CARDINALITY</title>
<g id="a_node5"><a xlink:href="./CLAS_CL_XCO_CDS_CARDINALITY.html" xlink:title="CLAS&#45;CL_XCO_CDS_CARDINALITY">
<polygon fill="none" stroke="green" points="321.83,-252 74.35,-252 74.35,-216 321.83,-216 321.83,-252"/>
<text text-anchor="middle" x="198.09" y="-229.8" font-family="Times,serif" font-size="14.00">CLAS&#45;CL_XCO_CDS_CARDINALITY</text>
</a>
</g>
</g>
<!-- CLAS&#45;CL_XCO_CDS_CARDINALITY_1&#45;&gt;CLAS&#45;CL_XCO_CDS_CARDINALITY -->
<g id="edge1" class="edge">
<title>CLAS&#45;CL_XCO_CDS_CARDINALITY_1&#45;&gt;CLAS&#45;CL_XCO_CDS_CARDINALITY</title>
<path fill="none" stroke="black" d="M253.05,-503.96C230.28,-496.12 208.56,-484.68 192.09,-468 134.22,-409.4 126,-367.34 148.09,-288 150.81,-278.22 155.89,-268.43 162.11,-259.98"/>
<polygon fill="black" stroke="black" points="165.01,-261.97 168.67,-252.03 159.61,-257.52 165.01,-261.97"/>
</g>
<!-- CLAS&#45;CL_XCO_CDS_CARDINALITY_1&#45;&gt;CLAS&#45;CL_XCO_CDS_CARDINALITY -->
<g id="edge24" class="edge">
<title>CLAS&#45;CL_XCO_CDS_CARDINALITY_1&#45;&gt;CLAS&#45;CL_XCO_CDS_CARDINALITY</title>
<path fill="none" stroke="black" d="M288.05,-503.96C266.28,-496.12 244.56,-484.68 228.09,-468 170.22,-409.4 162,-367.34 184.09,-288 186.7,-278.62 191.47,-269.25 195.75,-261.05"/>
<polygon fill="black" stroke="black" points="198.92,-262.52 200.38,-252.03 192.7,-259.32 198.92,-262.52"/>
</g>
<!-- CLAS&#45;CL_XCO_CDS_CARDINALITY_F -->
<g id="node7" class="node">
<title>CLAS&#45;CL_XCO_CDS_CARDINALITY_F</title>
<g id="a_node7"><a xlink:href="./CLAS_CL_XCO_CDS_CARDINALITY_F.html" xlink:title="CLAS&#45;CL_XCO_CDS_CARDINALITY_F">
<polygon fill="none" stroke="green" points="554.11,-108 292.07,-108 292.07,-72 554.11,-72 554.11,-108"/>
<text text-anchor="middle" x="423.09" y="-85.8" font-family="Times,serif" font-size="14.00">CLAS&#45;CL_XCO_CDS_CARDINALITY_F</text>
</a>
</g>
</g>
<!-- CLAS&#45;CL_XCO_CDS_CARDINALITY_1&#45;&gt;CLAS&#45;CL_XCO_CDS_CARDINALITY_F -->
<g id="edge2" class="edge">
<title>CLAS&#45;CL_XCO_CDS_CARDINALITY_1&#45;&gt;CLAS&#45;CL_XCO_CDS_CARDINALITY_F</title>
<path fill="none" stroke="black" d="M473.63,-503.86C492.86,-495.94 511.05,-484.49 524.09,-468 613.6,-354.78 628.25,-262.66 546.09,-144 536.54,-130.2 522.91,-119.99 508.14,-112.43"/>
<polygon fill="black" stroke="black" points="509.36,-109.14 498.82,-108.07 506.39,-115.48 509.36,-109.14"/>
</g>
<!-- CLAS&#45;CL_XCO_CDS_CARDINALITY_1&#45;&gt;CLAS&#45;CL_XCO_CDS_CARDINALITY_F -->
<g id="edge25" class="edge">
<title>CLAS&#45;CL_XCO_CDS_CARDINALITY_1&#45;&gt;CLAS&#45;CL_XCO_CDS_CARDINALITY_F</title>
<path fill="none" stroke="black" d="M507.18,-504.53C527.8,-496.59 546.67,-484.97 560.09,-468 649.6,-354.78 664.25,-262.66 582.09,-144 572.45,-130.07 558.65,-119.8 543.14,-112.22"/>
<polygon fill="black" stroke="black" points="544.38,-108.94 533.82,-108.07 541.53,-115.34 544.38,-108.94"/>
</g>
<!-- INTF&#45;IF_XCO_GEN_CDS_CARDINALITY -->
<g id="node3" class="node">
<title>INTF&#45;IF_XCO_GEN_CDS_CARDINALITY</title>
<g id="a_node3"><a xlink:href="./INTF_IF_XCO_GEN_CDS_CARDINALITY.html" xlink:title="INTF&#45;IF_XCO_GEN_CDS_CARDINALITY">
<polygon fill="none" stroke="green" points="476.97,-396 203.21,-396 203.21,-360 476.97,-360 476.97,-396"/>
<text text-anchor="middle" x="340.09" y="-373.8" font-family="Times,serif" font-size="14.00">INTF&#45;IF_XCO_GEN_CDS_CARDINALITY</text>
</a>
</g>
</g>
<!-- INTF&#45;IF_XCO_GEN_BDEF_RSLT_CARDNALTY&#45;&gt;INTF&#45;IF_XCO_GEN_CDS_CARDINALITY -->
<g id="edge4" class="edge">
<title>INTF&#45;IF_XCO_GEN_BDEF_RSLT_CARDNALTY&#45;&gt;INTF&#45;IF_XCO_GEN_CDS_CARDINALITY</title>
<path fill="none" stroke="black" d="M367.19,-431.7C363.09,-423.73 358.14,-414.1 353.6,-405.26"/>
<polygon fill="black" stroke="black" points="356.57,-403.4 348.89,-396.1 350.35,-406.6 356.57,-403.4"/>
</g>
<!-- CLAS&#45;CL_XCO_GEN_CDS_BP_CARDINALITY -->
<g id="node4" class="node">
<title>CLAS&#45;CL_XCO_GEN_CDS_BP_CARDINALITY</title>
<g id="a_node4"><a xlink:href="./CLAS_CL_XCO_GEN_CDS_BP_CARDINALITY.html" xlink:title="CLAS&#45;CL_XCO_GEN_CDS_BP_CARDINALITY">
<polygon fill="none" stroke="green" points="493.71,-324 186.47,-324 186.47,-288 493.71,-288 493.71,-324"/>
<text text-anchor="middle" x="340.09" y="-301.8" font-family="Times,serif" font-size="14.00">CLAS&#45;CL_XCO_GEN_CDS_BP_CARDINALITY</text>
</a>
</g>
</g>
<!-- INTF&#45;IF_XCO_GEN_CDS_CARDINALITY&#45;&gt;CLAS&#45;CL_XCO_GEN_CDS_BP_CARDINALITY -->
<g id="edge5" class="edge">
<title>INTF&#45;IF_XCO_GEN_CDS_CARDINALITY&#45;&gt;CLAS&#45;CL_XCO_GEN_CDS_BP_CARDINALITY</title>
<path fill="none" stroke="black" d="M340.09,-359.7C340.09,-351.98 340.09,-342.71 340.09,-334.11"/>
<polygon fill="black" stroke="black" points="343.59,-334.1 340.09,-324.1 336.59,-334.1 343.59,-334.1"/>
</g>
<!-- CLAS&#45;CL_XCO_GEN_CDS_BP_CARDINALITY&#45;&gt;CLAS&#45;CL_XCO_CDS_CARDINALITY -->
<g id="edge6" class="edge">
<title>CLAS&#45;CL_XCO_GEN_CDS_BP_CARDINALITY&#45;&gt;CLAS&#45;CL_XCO_CDS_CARDINALITY</title>
<path fill="none" stroke="black" d="M305.35,-287.88C286.27,-278.47 262.41,-266.71 242.04,-256.67"/>
<polygon fill="black" stroke="black" points="243.48,-253.47 232.96,-252.19 240.38,-259.75 243.48,-253.47"/>
</g>
<!-- CLAS&#45;CL_XCO_CDS_CARDINALITY&#45;&gt;CLAS&#45;CL_XCO_CDS_CARDINALITY_1 -->
<g id="edge8" class="edge">
<title>CLAS&#45;CL_XCO_CDS_CARDINALITY&#45;&gt;CLAS&#45;CL_XCO_CDS_CARDINALITY_1</title>
<path fill="none" stroke="black" d="M184.53,-252.03C177.53,-261.91 169.72,-274.95 166.09,-288 144,-367.34 152.22,-409.4 210.09,-468 224.18,-482.27 242.11,-492.7 260.94,-500.33"/>
<polygon fill="black" stroke="black" points="259.96,-503.7 270.55,-503.96 262.43,-497.15 259.96,-503.7"/>
</g>
<!-- CLAS&#45;CL_XCO_CDS_CARDINALITY&#45;&gt;INTF&#45;IF_XCO_GEN_CDS_CARDINALITY -->
<g id="edge12" class="edge">
<title>CLAS&#45;CL_XCO_CDS_CARDINALITY&#45;&gt;INTF&#45;IF_XCO_GEN_CDS_CARDINALITY</title>
<path fill="none" stroke="black" d="M186.59,-252.01C175.19,-271.21 161.51,-302.55 177.09,-324 187.1,-337.79 200.79,-348.06 216.01,-355.69"/>
<polygon fill="black" stroke="black" points="214.59,-358.89 225.13,-359.89 217.51,-352.53 214.59,-358.89"/>
</g>
<!-- CLAS&#45;CL_XCO_CDS_CARDINALITY_CN -->
<g id="node6" class="node">
<title>CLAS&#45;CL_XCO_CDS_CARDINALITY_CN</title>
<g id="a_node6"><a xlink:href="./CLAS_CL_XCO_CDS_CARDINALITY_CN.html" xlink:title="CLAS&#45;CL_XCO_CDS_CARDINALITY_CN">
<polygon fill="none" stroke="green" points="274.27,-36 -0.09,-36 -0.09,0 274.27,0 274.27,-36"/>
<text text-anchor="middle" x="137.09" y="-13.8" font-family="Times,serif" font-size="14.00">CLAS&#45;CL_XCO_CDS_CARDINALITY_CN</text>
</a>
</g>
</g>
<!-- CLAS&#45;CL_XCO_CDS_CARDINALITY&#45;&gt;CLAS&#45;CL_XCO_CDS_CARDINALITY_CN -->
<g id="edge11" class="edge">
<title>CLAS&#45;CL_XCO_CDS_CARDINALITY&#45;&gt;CLAS&#45;CL_XCO_CDS_CARDINALITY_CN</title>
<path fill="none" stroke="black" d="M181.75,-215.64C175.89,-205.43 170.14,-192.18 166.09,-180 150.8,-133.96 139.15,-78.59 135.57,-46.24"/>
<polygon fill="black" stroke="black" points="139.05,-45.85 134.67,-36.2 132.08,-46.47 139.05,-45.85"/>
</g>
<!-- CLAS&#45;CL_XCO_CDS_CARDINALITY&#45;&gt;CLAS&#45;CL_XCO_CDS_CARDINALITY_F -->
<g id="edge7" class="edge">
<title>CLAS&#45;CL_XCO_CDS_CARDINALITY&#45;&gt;CLAS&#45;CL_XCO_CDS_CARDINALITY_F</title>
<path fill="none" stroke="black" d="M204.05,-215.69C216.48,-195.92 243.37,-163.77 273.09,-144 293.66,-130.32 318.26,-119.51 341.55,-111.33"/>
<polygon fill="black" stroke="black" points="342.75,-114.62 351.09,-108.1 340.5,-107.99 342.75,-114.62"/>
</g>
<!-- CLAS&#45;CL_XCO_CDS_CARDINALITY_N -->
<g id="node8" class="node">
<title>CLAS&#45;CL_XCO_CDS_CARDINALITY_N</title>
<g id="a_node8"><a xlink:href="./CLAS_CL_XCO_CDS_CARDINALITY_N.html" xlink:title="CLAS&#45;CL_XCO_CDS_CARDINALITY_N">
<polygon fill="none" stroke="green" points="557.43,-36 292.75,-36 292.75,0 557.43,0 557.43,-36"/>
<text text-anchor="middle" x="425.09" y="-13.8" font-family="Times,serif" font-size="14.00">CLAS&#45;CL_XCO_CDS_CARDINALITY_N</text>
</a>
</g>
</g>
<!-- CLAS&#45;CL_XCO_CDS_CARDINALITY&#45;&gt;CLAS&#45;CL_XCO_CDS_CARDINALITY_N -->
<g id="edge10" class="edge">
<title>CLAS&#45;CL_XCO_CDS_CARDINALITY&#45;&gt;CLAS&#45;CL_XCO_CDS_CARDINALITY_N</title>
<path fill="none" stroke="black" d="M197.2,-215.77C202.3,-182.76 226.52,-110.45 274.09,-72 291.56,-57.88 313.17,-47.28 334.55,-39.43"/>
<polygon fill="black" stroke="black" points="335.73,-42.73 344.01,-36.12 333.42,-36.12 335.73,-42.73"/>
</g>
<!-- CLAS&#45;CL_XCO_CDS_CARDINALITY_C -->
<g id="node9" class="node">
<title>CLAS&#45;CL_XCO_CDS_CARDINALITY_C</title>
<g id="a_node9"><a xlink:href="./CLAS_CL_XCO_CDS_CARDINALITY_C.html" xlink:title="CLAS&#45;CL_XCO_CDS_CARDINALITY_C">
<polygon fill="none" stroke="green" points="555.16,-180 291.02,-180 291.02,-144 555.16,-144 555.16,-180"/>
<text text-anchor="middle" x="423.09" y="-157.8" font-family="Times,serif" font-size="14.00">CLAS&#45;CL_XCO_CDS_CARDINALITY_C</text>
</a>
</g>
</g>
<!-- CLAS&#45;CL_XCO_CDS_CARDINALITY&#45;&gt;CLAS&#45;CL_XCO_CDS_CARDINALITY_C -->
<g id="edge9" class="edge">
<title>CLAS&#45;CL_XCO_CDS_CARDINALITY&#45;&gt;CLAS&#45;CL_XCO_CDS_CARDINALITY_C</title>
<path fill="none" stroke="black" d="M246.96,-215.97C277.76,-206.06 317.98,-193.51 352.24,-183.12"/>
<polygon fill="black" stroke="black" points="353.64,-186.36 362.2,-180.11 351.61,-179.65 353.64,-186.36"/>
</g>
<!-- CLAS&#45;CL_XCO_CDS_CARDINALITY_CN&#45;&gt;INTF&#45;IF_XCO_GEN_BDEF_RSLT_CARDNALTY -->
<g id="edge15" class="edge">
<title>CLAS&#45;CL_XCO_CDS_CARDINALITY_CN&#45;&gt;INTF&#45;IF_XCO_GEN_BDEF_RSLT_CARDNALTY</title>
<path fill="none" stroke="black" d="M116.44,-36.42C89.59,-61.13 46.09,-109.17 46.09,-161 46.09,-307 46.09,-307 46.09,-307 46.09,-386.11 127.11,-421.69 208.85,-437.45"/>
<polygon fill="black" stroke="black" points="208.35,-440.92 218.82,-439.28 209.62,-434.03 208.35,-440.92"/>
</g>
<!-- CLAS&#45;CL_XCO_CDS_CARDINALITY_CN&#45;&gt;CLAS&#45;CL_XCO_CDS_CARDINALITY -->
<g id="edge13" class="edge">
<title>CLAS&#45;CL_XCO_CDS_CARDINALITY_CN&#45;&gt;CLAS&#45;CL_XCO_CDS_CARDINALITY</title>
<path fill="none" stroke="black" d="M145.54,-36.2C154.56,-65.95 167.07,-128.76 184.09,-180 186.97,-188.66 190.7,-197.86 193.92,-206.13"/>
<polygon fill="black" stroke="black" points="190.7,-207.51 197.5,-215.64 197.26,-205.05 190.7,-207.51"/>
</g>
<!-- CLAS&#45;CL_XCO_CDS_CARDINALITY_CN&#45;&gt;CLAS&#45;CL_XCO_CDS_CARDINALITY_F -->
<g id="edge14" class="edge">
<title>CLAS&#45;CL_XCO_CDS_CARDINALITY_CN&#45;&gt;CLAS&#45;CL_XCO_CDS_CARDINALITY_F</title>
<path fill="none" stroke="black" d="M212.64,-36.05C254.97,-46.15 307.48,-58.98 349.49,-69.49"/>
<polygon fill="black" stroke="black" points="348.83,-72.93 359.38,-71.97 350.53,-66.14 348.83,-72.93"/>
</g>
<!-- CLAS&#45;CL_XCO_CDS_CARDINALITY_F&#45;&gt;CLAS&#45;CL_XCO_CDS_CARDINALITY_1 -->
<g id="edge17" class="edge">
<title>CLAS&#45;CL_XCO_CDS_CARDINALITY_F&#45;&gt;CLAS&#45;CL_XCO_CDS_CARDINALITY_1</title>
<path fill="none" stroke="black" d="M516.32,-108.07C535.08,-115.91 552.55,-127.34 564.09,-144 646.25,-262.66 631.6,-354.78 542.09,-468 531.19,-481.79 516.69,-492.05 500.78,-499.67"/>
<polygon fill="black" stroke="black" points="499.01,-496.62 491.27,-503.86 501.83,-503.03 499.01,-496.62"/>
</g>
<!-- CLAS&#45;CL_XCO_CDS_CARDINALITY_F&#45;&gt;CLAS&#45;CL_XCO_CDS_CARDINALITY -->
<g id="edge20" class="edge">
<title>CLAS&#45;CL_XCO_CDS_CARDINALITY_F&#45;&gt;CLAS&#45;CL_XCO_CDS_CARDINALITY</title>
<path fill="none" stroke="black" d="M367.76,-108.1C343.11,-116.59 314.5,-128.43 291.09,-144 264.97,-161.37 241.03,-188.31 223.73,-208.01"/>
<polygon fill="black" stroke="black" points="220.95,-205.87 216.96,-215.69 226.2,-210.5 220.95,-205.87"/>
</g>
<!-- CLAS&#45;CL_XCO_CDS_CARDINALITY_F&#45;&gt;CLAS&#45;CL_XCO_CDS_CARDINALITY_CN -->
<g id="edge18" class="edge">
<title>CLAS&#45;CL_XCO_CDS_CARDINALITY_F&#45;&gt;CLAS&#45;CL_XCO_CDS_CARDINALITY_CN</title>
<path fill="none" stroke="black" d="M347.6,-71.97C305.37,-61.89 252.97,-49.08 210.99,-38.59"/>
<polygon fill="black" stroke="black" points="211.65,-35.15 201.1,-36.11 209.95,-41.94 211.65,-35.15"/>
</g>
<!-- CLAS&#45;CL_XCO_CDS_CARDINALITY_F&#45;&gt;CLAS&#45;CL_XCO_CDS_CARDINALITY_N -->
<g id="edge19" class="edge">
<title>CLAS&#45;CL_XCO_CDS_CARDINALITY_F&#45;&gt;CLAS&#45;CL_XCO_CDS_CARDINALITY_N</title>
<path fill="none" stroke="black" d="M417.67,-71.7C417.09,-63.98 417.13,-54.71 417.72,-46.11"/>
<polygon fill="black" stroke="black" points="421.21,-46.4 418.71,-36.1 414.24,-45.71 421.21,-46.4"/>
</g>
<!-- CLAS&#45;CL_XCO_CDS_CARDINALITY_F&#45;&gt;CLAS&#45;CL_XCO_CDS_CARDINALITY_C -->
<g id="edge16" class="edge">
<title>CLAS&#45;CL_XCO_CDS_CARDINALITY_F&#45;&gt;CLAS&#45;CL_XCO_CDS_CARDINALITY_C</title>
<path fill="none" stroke="black" d="M428.98,-108.1C429.79,-115.79 430.03,-125.05 429.69,-133.67"/>
<polygon fill="black" stroke="black" points="426.2,-133.48 429.01,-143.7 433.18,-133.96 426.2,-133.48"/>
</g>
<!-- CLAS&#45;CL_XCO_CDS_CARDINALITY_N&#45;&gt;INTF&#45;IF_XCO_GEN_BDEF_RSLT_CARDNALTY -->
<g id="edge23" class="edge">
<title>CLAS&#45;CL_XCO_CDS_CARDINALITY_N&#45;&gt;INTF&#45;IF_XCO_GEN_BDEF_RSLT_CARDNALTY</title>
<path fill="none" stroke="black" d="M515.14,-36.12C533.91,-43.96 551.49,-55.37 563.09,-72 567.03,-77.65 566.84,-158.82 564.09,-180 551.32,-278.46 572.72,-321.5 507.09,-396 494.77,-409.98 478.24,-420.33 461.07,-427.97"/>
<polygon fill="black" stroke="black" points="459.39,-424.88 451.49,-431.95 462.07,-431.35 459.39,-424.88"/>
</g>
<!-- CLAS&#45;CL_XCO_CDS_CARDINALITY_N&#45;&gt;CLAS&#45;CL_XCO_CDS_CARDINALITY -->
<g id="edge21" class="edge">
<title>CLAS&#45;CL_XCO_CDS_CARDINALITY_N&#45;&gt;CLAS&#45;CL_XCO_CDS_CARDINALITY</title>
<path fill="none" stroke="black" d="M361,-36.12C337.66,-44.22 312.15,-55.79 292.09,-72 248.8,-106.99 224.84,-170.04 211.18,-205.97"/>
<polygon fill="black" stroke="black" points="207.73,-205.18 207.42,-215.77 214.27,-207.69 207.73,-205.18"/>
</g>
<!-- CLAS&#45;CL_XCO_CDS_CARDINALITY_N&#45;&gt;CLAS&#45;CL_XCO_CDS_CARDINALITY_F -->
<g id="edge22" class="edge">
<title>CLAS&#45;CL_XCO_CDS_CARDINALITY_N&#45;&gt;CLAS&#45;CL_XCO_CDS_CARDINALITY_F</title>
<path fill="none" stroke="black" d="M430.5,-36.1C431.08,-43.79 431.05,-53.05 430.47,-61.67"/>
<polygon fill="black" stroke="black" points="426.98,-61.4 429.5,-71.7 433.95,-62.08 426.98,-61.4"/>
</g>
<!-- CLAS&#45;CL_XCO_CDS_CARDINALITY_C&#45;&gt;INTF&#45;IF_XCO_GEN_BDEF_RSLT_CARDNALTY -->
<g id="edge29" class="edge">
<title>CLAS&#45;CL_XCO_CDS_CARDINALITY_C&#45;&gt;INTF&#45;IF_XCO_GEN_BDEF_RSLT_CARDNALTY</title>
<path fill="none" stroke="black" d="M438.58,-180.02C458.07,-202.69 490.5,-244.97 503.09,-288 507.58,-303.36 504.94,-308.11 503.09,-324 499.29,-356.66 506.68,-370.37 486.09,-396 475.16,-409.61 459.88,-419.94 444.18,-427.71"/>
<polygon fill="black" stroke="black" points="442.53,-424.61 434.92,-431.98 445.46,-430.97 442.53,-424.61"/>
</g>
<!-- CLAS&#45;CL_XCO_CDS_CARDINALITY_C&#45;&gt;CLAS&#45;CL_XCO_CDS_CARDINALITY -->
<g id="edge27" class="edge">
<title>CLAS&#45;CL_XCO_CDS_CARDINALITY_C&#45;&gt;CLAS&#45;CL_XCO_CDS_CARDINALITY</title>
<path fill="none" stroke="black" d="M373.99,-180.11C343.13,-190.03 302.9,-202.58 268.68,-212.96"/>
<polygon fill="black" stroke="black" points="267.29,-209.72 258.73,-215.97 269.32,-216.42 267.29,-209.72"/>
</g>
<!-- CLAS&#45;CL_XCO_CDS_CARDINALITY_C&#45;&gt;CLAS&#45;CL_XCO_CDS_CARDINALITY_F -->
<g id="edge28" class="edge">
<title>CLAS&#45;CL_XCO_CDS_CARDINALITY_C&#45;&gt;CLAS&#45;CL_XCO_CDS_CARDINALITY_F</title>
<path fill="none" stroke="black" d="M417.17,-143.7C416.38,-135.98 416.15,-126.71 416.49,-118.11"/>
<polygon fill="black" stroke="black" points="419.99,-118.32 417.19,-108.1 413.01,-117.84 419.99,-118.32"/>
</g>
</g>
</svg>
