<?xml version="1.0" encoding="UTF-8" standalone="no"?>
<!DOCTYPE svg PUBLIC "-//W3C//DTD SVG 1.1//EN"
 "http://www.w3.org/Graphics/SVG/1.1/DTD/svg11.dtd">
<!-- Generated by graphviz version 2.47.3 (20210619.1520)
 -->
<!-- Title: G Pages: 1 -->
<svg width="276pt" height="188pt"
 viewBox="0.00 0.00 275.98 188.00" xmlns="http://www.w3.org/2000/svg" xmlns:xlink="http://www.w3.org/1999/xlink">
<g id="graph0" class="graph" transform="scale(1 1) rotate(0) translate(4 184)">
<title>G</title>
<polygon fill="white" stroke="transparent" points="-4,4 -4,-184 271.98,-184 271.98,4 -4,4"/>
<!-- CLAS&#45;CL_FDT_CP_AST_SIMPLE_NODE -->
<g id="node1" class="node">
<title>CLAS&#45;CL_FDT_CP_AST_SIMPLE_NODE</title>
<polygon fill="none" stroke="green" points="267.97,-180 0.01,-180 0.01,-144 267.97,-144 267.97,-180"/>
<text text-anchor="middle" x="133.99" y="-157.8" font-family="Times,serif" font-size="14.00">CLAS&#45;CL_FDT_CP_AST_SIMPLE_NODE</text>
</g>
<!-- DTEL&#45;CHAR1 -->
<g id="node2" class="node">
<title>DTEL&#45;CHAR1</title>
<g id="a_node2"><a xlink:href="./DTEL_CHAR1.html" xlink:title="DTEL&#45;CHAR1">
<polygon fill="none" stroke="yellow" points="185.3,-108 82.68,-108 82.68,-72 185.3,-72 185.3,-108"/>
<text text-anchor="middle" x="133.99" y="-85.8" font-family="Times,serif" font-size="14.00">DTEL&#45;CHAR1</text>
</a>
</g>
</g>
<!-- CLAS&#45;CL_FDT_CP_AST_SIMPLE_NODE&#45;&gt;DTEL&#45;CHAR1 -->
<g id="edge1" class="edge">
<title>CLAS&#45;CL_FDT_CP_AST_SIMPLE_NODE&#45;&gt;DTEL&#45;CHAR1</title>
<path fill="none" stroke="black" d="M133.99,-143.7C133.99,-135.98 133.99,-126.71 133.99,-118.11"/>
<polygon fill="black" stroke="black" points="137.49,-118.1 133.99,-108.1 130.49,-118.1 137.49,-118.1"/>
</g>
<!-- DOMA&#45;CHAR1 -->
<g id="node3" class="node">
<title>DOMA&#45;CHAR1</title>
<g id="a_node3"><a xlink:href="./DOMA_CHAR1.html" xlink:title="DOMA&#45;CHAR1">
<polygon fill="none" stroke="green" points="188.8,-36 79.18,-36 79.18,0 188.8,0 188.8,-36"/>
<text text-anchor="middle" x="133.99" y="-13.8" font-family="Times,serif" font-size="14.00">DOMA&#45;CHAR1</text>
</a>
</g>
</g>
<!-- DTEL&#45;CHAR1&#45;&gt;DOMA&#45;CHAR1 -->
<g id="edge2" class="edge">
<title>DTEL&#45;CHAR1&#45;&gt;DOMA&#45;CHAR1</title>
<path fill="none" stroke="black" d="M133.99,-71.7C133.99,-63.98 133.99,-54.71 133.99,-46.11"/>
<polygon fill="black" stroke="black" points="137.49,-46.1 133.99,-36.1 130.49,-46.1 137.49,-46.1"/>
</g>
</g>
</svg>
