<?xml version="1.0" encoding="UTF-8" standalone="no"?>
<!DOCTYPE svg PUBLIC "-//W3C//DTD SVG 1.1//EN"
 "http://www.w3.org/Graphics/SVG/1.1/DTD/svg11.dtd">
<!-- Generated by graphviz version 2.47.3 (20210619.1520)
 -->
<!-- Title: G Pages: 1 -->
<svg width="1339pt" height="404pt"
 viewBox="0.00 0.00 1339.41 404.00" xmlns="http://www.w3.org/2000/svg" xmlns:xlink="http://www.w3.org/1999/xlink">
<g id="graph0" class="graph" transform="scale(1 1) rotate(0) translate(4 400)">
<title>G</title>
<polygon fill="white" stroke="transparent" points="-4,4 -4,-400 1335.41,-400 1335.41,4 -4,4"/>
<!-- CLAS&#45;CX_ABAP_DECFLOAT_INVALID_CHAR -->
<g id="node1" class="node">
<title>CLAS&#45;CX_ABAP_DECFLOAT_INVALID_CHAR</title>
<polygon fill="none" stroke="green" points="502.2,-396 190.21,-396 190.21,-360 502.2,-360 502.2,-396"/>
<text text-anchor="middle" x="346.2" y="-373.8" font-family="Times,serif" font-size="14.00">CLAS&#45;CX_ABAP_DECFLOAT_INVALID_CHAR</text>
</g>
<!-- CLAS&#45;CX_ABAP_DECFLOAT_PARSE_ERR -->
<g id="node2" class="node">
<title>CLAS&#45;CX_ABAP_DECFLOAT_PARSE_ERR</title>
<g id="a_node2"><a xlink:href="./CLAS_CX_ABAP_DECFLOAT_PARSE_ERR.html" xlink:title="CLAS&#45;CX_ABAP_DECFLOAT_PARSE_ERR">
<polygon fill="none" stroke="green" points="488.8,-324 203.61,-324 203.61,-288 488.8,-288 488.8,-324"/>
<text text-anchor="middle" x="346.2" y="-301.8" font-family="Times,serif" font-size="14.00">CLAS&#45;CX_ABAP_DECFLOAT_PARSE_ERR</text>
</a>
</g>
</g>
<!-- CLAS&#45;CX_ABAP_DECFLOAT_INVALID_CHAR&#45;&gt;CLAS&#45;CX_ABAP_DECFLOAT_PARSE_ERR -->
<g id="edge5" class="edge">
<title>CLAS&#45;CX_ABAP_DECFLOAT_INVALID_CHAR&#45;&gt;CLAS&#45;CX_ABAP_DECFLOAT_PARSE_ERR</title>
<path fill="none" stroke="black" d="M346.2,-359.7C346.2,-351.98 346.2,-342.71 346.2,-334.11"/>
<polygon fill="black" stroke="black" points="349.7,-334.1 346.2,-324.1 342.7,-334.1 349.7,-334.1"/>
</g>
<!-- DTEL&#45;SCX_ATTRNAME -->
<g id="node6" class="node">
<title>DTEL&#45;SCX_ATTRNAME</title>
<g id="a_node6"><a xlink:href="./DTEL_SCX_ATTRNAME.html" xlink:title="DTEL&#45;SCX_ATTRNAME">
<polygon fill="none" stroke="green" points="168.61,-108 -0.21,-108 -0.21,-72 168.61,-72 168.61,-108"/>
<text text-anchor="middle" x="84.2" y="-85.8" font-family="Times,serif" font-size="14.00">DTEL&#45;SCX_ATTRNAME</text>
</a>
</g>
</g>
<!-- CLAS&#45;CX_ABAP_DECFLOAT_INVALID_CHAR&#45;&gt;DTEL&#45;SCX_ATTRNAME -->
<g id="edge3" class="edge">
<title>CLAS&#45;CX_ABAP_DECFLOAT_INVALID_CHAR&#45;&gt;DTEL&#45;SCX_ATTRNAME</title>
<path fill="none" stroke="black" d="M239.34,-359.87C216.05,-352.03 193.07,-340.62 175.2,-324 114.77,-267.75 93.91,-166.54 87.17,-118.17"/>
<polygon fill="black" stroke="black" points="90.63,-117.62 85.88,-108.15 83.69,-118.52 90.63,-117.62"/>
</g>
<!-- DTEL&#45;SYMSGNO -->
<g id="node7" class="node">
<title>DTEL&#45;SYMSGNO</title>
<g id="a_node7"><a xlink:href="./DTEL_SYMSGNO.html" xlink:title="DTEL&#45;SYMSGNO">
<polygon fill="none" stroke="green" points="311.57,-108 186.84,-108 186.84,-72 311.57,-72 311.57,-108"/>
<text text-anchor="middle" x="249.2" y="-85.8" font-family="Times,serif" font-size="14.00">DTEL&#45;SYMSGNO</text>
</a>
</g>
</g>
<!-- CLAS&#45;CX_ABAP_DECFLOAT_INVALID_CHAR&#45;&gt;DTEL&#45;SYMSGNO -->
<g id="edge2" class="edge">
<title>CLAS&#45;CX_ABAP_DECFLOAT_INVALID_CHAR&#45;&gt;DTEL&#45;SYMSGNO</title>
<path fill="none" stroke="black" d="M242.35,-359.97C223.46,-352.09 206.02,-340.63 194.2,-324 148.51,-259.67 200.83,-162.62 230.93,-116.75"/>
<polygon fill="black" stroke="black" points="233.95,-118.54 236.62,-108.28 228.13,-114.63 233.95,-118.54"/>
</g>
<!-- DTEL&#45;SYMSGID -->
<g id="node9" class="node">
<title>DTEL&#45;SYMSGID</title>
<g id="a_node9"><a xlink:href="./DTEL_SYMSGID.html" xlink:title="DTEL&#45;SYMSGID">
<polygon fill="none" stroke="green" points="491.12,-108 371.29,-108 371.29,-72 491.12,-72 491.12,-108"/>
<text text-anchor="middle" x="431.2" y="-85.8" font-family="Times,serif" font-size="14.00">DTEL&#45;SYMSGID</text>
</a>
</g>
</g>
<!-- CLAS&#45;CX_ABAP_DECFLOAT_INVALID_CHAR&#45;&gt;DTEL&#45;SYMSGID -->
<g id="edge1" class="edge">
<title>CLAS&#45;CX_ABAP_DECFLOAT_INVALID_CHAR&#45;&gt;DTEL&#45;SYMSGID</title>
<path fill="none" stroke="black" d="M501.62,-359.98C570.22,-343.81 644.59,-312.5 686.2,-252 695.27,-238.82 694.67,-229.58 686.2,-216 663.98,-180.36 558.4,-136.79 490.25,-111.64"/>
<polygon fill="black" stroke="black" points="491.08,-108.21 480.48,-108.06 488.67,-114.79 491.08,-108.21"/>
</g>
<!-- DTEL&#45;SYCHAR01 -->
<g id="node20" class="node">
<title>DTEL&#45;SYCHAR01</title>
<g id="a_node20"><a xlink:href="./DTEL_SYCHAR01.html" xlink:title="DTEL&#45;SYCHAR01">
<polygon fill="none" stroke="green" points="861.91,-324 734.5,-324 734.5,-288 861.91,-288 861.91,-324"/>
<text text-anchor="middle" x="798.2" y="-301.8" font-family="Times,serif" font-size="14.00">DTEL&#45;SYCHAR01</text>
</a>
</g>
</g>
<!-- CLAS&#45;CX_ABAP_DECFLOAT_INVALID_CHAR&#45;&gt;DTEL&#45;SYCHAR01 -->
<g id="edge4" class="edge">
<title>CLAS&#45;CX_ABAP_DECFLOAT_INVALID_CHAR&#45;&gt;DTEL&#45;SYCHAR01</title>
<path fill="none" stroke="black" d="M482.55,-359.98C553.34,-350.55 641.13,-337.93 719.2,-324 720.91,-323.7 722.64,-323.38 724.38,-323.06"/>
<polygon fill="black" stroke="black" points="725.31,-326.44 734.47,-321.12 723.99,-319.57 725.31,-326.44"/>
</g>
<!-- INTF&#45;IF_T100_MESSAGE -->
<g id="node3" class="node">
<title>INTF&#45;IF_T100_MESSAGE</title>
<g id="a_node3"><a xlink:href="./INTF_IF_T100_MESSAGE.html" xlink:title="INTF&#45;IF_T100_MESSAGE">
<polygon fill="none" stroke="green" points="432.79,-252 259.62,-252 259.62,-216 432.79,-216 432.79,-252"/>
<text text-anchor="middle" x="346.2" y="-229.8" font-family="Times,serif" font-size="14.00">INTF&#45;IF_T100_MESSAGE</text>
</a>
</g>
</g>
<!-- CLAS&#45;CX_ABAP_DECFLOAT_PARSE_ERR&#45;&gt;INTF&#45;IF_T100_MESSAGE -->
<g id="edge10" class="edge">
<title>CLAS&#45;CX_ABAP_DECFLOAT_PARSE_ERR&#45;&gt;INTF&#45;IF_T100_MESSAGE</title>
<path fill="none" stroke="black" d="M346.2,-287.7C346.2,-279.98 346.2,-270.71 346.2,-262.11"/>
<polygon fill="black" stroke="black" points="349.7,-262.1 346.2,-252.1 342.7,-262.1 349.7,-262.1"/>
</g>
<!-- CLAS&#45;CX_ABAP_DECFLOAT_PARSE_ERR&#45;&gt;DTEL&#45;SCX_ATTRNAME -->
<g id="edge8" class="edge">
<title>CLAS&#45;CX_ABAP_DECFLOAT_PARSE_ERR&#45;&gt;DTEL&#45;SCX_ATTRNAME</title>
<path fill="none" stroke="black" d="M299.71,-287.98C278.38,-279 253.41,-266.77 233.2,-252 178.79,-212.21 128.39,-150.48 102.47,-116.17"/>
<polygon fill="black" stroke="black" points="105.21,-113.98 96.42,-108.06 99.6,-118.17 105.21,-113.98"/>
</g>
<!-- CLAS&#45;CX_ABAP_DECFLOAT_PARSE_ERR&#45;&gt;DTEL&#45;SYMSGNO -->
<g id="edge7" class="edge">
<title>CLAS&#45;CX_ABAP_DECFLOAT_PARSE_ERR&#45;&gt;DTEL&#45;SYMSGNO</title>
<path fill="none" stroke="black" d="M293.99,-287.9C277.2,-279.73 260.33,-268.12 250.2,-252 224.47,-211.03 233.08,-151.86 241.35,-117.83"/>
<polygon fill="black" stroke="black" points="244.75,-118.68 243.87,-108.12 237.97,-116.92 244.75,-118.68"/>
</g>
<!-- CLAS&#45;CX_ABAP_DECFLOAT_PARSE_ERR&#45;&gt;DTEL&#45;SYMSGID -->
<g id="edge6" class="edge">
<title>CLAS&#45;CX_ABAP_DECFLOAT_PARSE_ERR&#45;&gt;DTEL&#45;SYMSGID</title>
<path fill="none" stroke="black" d="M397.55,-287.91C414.47,-279.71 431.64,-268.07 442.2,-252 468.85,-211.48 454.43,-152.15 442.3,-117.97"/>
<polygon fill="black" stroke="black" points="445.44,-116.36 438.66,-108.22 438.88,-118.81 445.44,-116.36"/>
</g>
<!-- CLAS&#45;CX_STATIC_CHECK -->
<g id="node11" class="node">
<title>CLAS&#45;CX_STATIC_CHECK</title>
<g id="a_node11"><a xlink:href="./CLAS_CX_STATIC_CHECK.html" xlink:title="CLAS&#45;CX_STATIC_CHECK">
<polygon fill="none" stroke="green" points="677.52,-252 490.89,-252 490.89,-216 677.52,-216 677.52,-252"/>
<text text-anchor="middle" x="584.2" y="-229.8" font-family="Times,serif" font-size="14.00">CLAS&#45;CX_STATIC_CHECK</text>
</a>
</g>
</g>
<!-- CLAS&#45;CX_ABAP_DECFLOAT_PARSE_ERR&#45;&gt;CLAS&#45;CX_STATIC_CHECK -->
<g id="edge9" class="edge">
<title>CLAS&#45;CX_ABAP_DECFLOAT_PARSE_ERR&#45;&gt;CLAS&#45;CX_STATIC_CHECK</title>
<path fill="none" stroke="black" d="M404.12,-287.97C437.95,-278.01 480.82,-265.41 516.25,-254.99"/>
<polygon fill="black" stroke="black" points="517.42,-258.29 526.03,-252.11 515.45,-251.57 517.42,-258.29"/>
</g>
<!-- INTF&#45;IF_MESSAGE -->
<g id="node4" class="node">
<title>INTF&#45;IF_MESSAGE</title>
<g id="a_node4"><a xlink:href="./INTF_IF_MESSAGE.html" xlink:title="INTF&#45;IF_MESSAGE">
<polygon fill="none" stroke="green" points="645.24,-108 509.17,-108 509.17,-72 645.24,-72 645.24,-108"/>
<text text-anchor="middle" x="577.2" y="-85.8" font-family="Times,serif" font-size="14.00">INTF&#45;IF_MESSAGE</text>
</a>
</g>
</g>
<!-- INTF&#45;IF_T100_MESSAGE&#45;&gt;INTF&#45;IF_MESSAGE -->
<g id="edge15" class="edge">
<title>INTF&#45;IF_T100_MESSAGE&#45;&gt;INTF&#45;IF_MESSAGE</title>
<path fill="none" stroke="black" d="M382.11,-215.98C402.2,-206.1 427.49,-193.06 449.2,-180 483.59,-159.32 521.07,-132.75 546.54,-114.04"/>
<polygon fill="black" stroke="black" points="548.73,-116.78 554.69,-108.02 544.57,-111.15 548.73,-116.78"/>
</g>
<!-- TABL&#45;SCX_T100KEY -->
<g id="node5" class="node">
<title>TABL&#45;SCX_T100KEY</title>
<g id="a_node5"><a xlink:href="./TABL_SCX_T100KEY.html" xlink:title="TABL&#45;SCX_T100KEY">
<polygon fill="none" stroke="yellow" points="420.96,-180 271.45,-180 271.45,-144 420.96,-144 420.96,-180"/>
<text text-anchor="middle" x="346.2" y="-157.8" font-family="Times,serif" font-size="14.00">TABL&#45;SCX_T100KEY</text>
</a>
</g>
</g>
<!-- INTF&#45;IF_T100_MESSAGE&#45;&gt;TABL&#45;SCX_T100KEY -->
<g id="edge14" class="edge">
<title>INTF&#45;IF_T100_MESSAGE&#45;&gt;TABL&#45;SCX_T100KEY</title>
<path fill="none" stroke="black" d="M346.2,-215.7C346.2,-207.98 346.2,-198.71 346.2,-190.11"/>
<polygon fill="black" stroke="black" points="349.7,-190.1 346.2,-180.1 342.7,-190.1 349.7,-190.1"/>
</g>
<!-- INTF&#45;IF_T100_MESSAGE&#45;&gt;DTEL&#45;SCX_ATTRNAME -->
<g id="edge13" class="edge">
<title>INTF&#45;IF_T100_MESSAGE&#45;&gt;DTEL&#45;SCX_ATTRNAME</title>
<path fill="none" stroke="black" d="M313.71,-215.94C294.12,-205.61 268.68,-192.13 246.2,-180 204.26,-157.36 156.45,-131.03 123.7,-112.92"/>
<polygon fill="black" stroke="black" points="125.33,-109.82 114.89,-108.03 121.94,-115.94 125.33,-109.82"/>
</g>
<!-- INTF&#45;IF_T100_MESSAGE&#45;&gt;DTEL&#45;SYMSGNO -->
<g id="edge12" class="edge">
<title>INTF&#45;IF_T100_MESSAGE&#45;&gt;DTEL&#45;SYMSGNO</title>
<path fill="none" stroke="black" d="M304.62,-215.99C288.89,-207.49 272.36,-195.61 262.2,-180 250.34,-161.75 247.54,-136.98 247.45,-118.21"/>
<polygon fill="black" stroke="black" points="250.95,-118.28 247.66,-108.21 243.95,-118.13 250.95,-118.28"/>
</g>
<!-- INTF&#45;IF_T100_MESSAGE&#45;&gt;DTEL&#45;SYMSGID -->
<g id="edge11" class="edge">
<title>INTF&#45;IF_T100_MESSAGE&#45;&gt;DTEL&#45;SYMSGID</title>
<path fill="none" stroke="black" d="M390.18,-215.93C405.65,-207.56 421.37,-195.81 430.2,-180 440.65,-161.31 440.08,-136.77 437.36,-118.2"/>
<polygon fill="black" stroke="black" points="440.8,-117.55 435.63,-108.31 433.9,-118.76 440.8,-117.55"/>
</g>
<!-- TABL&#45;SCX_T100KEY&#45;&gt;DTEL&#45;SCX_ATTRNAME -->
<g id="edge18" class="edge">
<title>TABL&#45;SCX_T100KEY&#45;&gt;DTEL&#45;SCX_ATTRNAME</title>
<path fill="none" stroke="black" d="M282.45,-143.97C244.89,-133.93 197.2,-121.19 158.02,-110.72"/>
<polygon fill="black" stroke="black" points="158.81,-107.31 148.25,-108.11 157.01,-114.07 158.81,-107.31"/>
</g>
<!-- TABL&#45;SCX_T100KEY&#45;&gt;DTEL&#45;SYMSGNO -->
<g id="edge17" class="edge">
<title>TABL&#45;SCX_T100KEY&#45;&gt;DTEL&#45;SYMSGNO</title>
<path fill="none" stroke="black" d="M322.23,-143.7C309.89,-134.8 294.69,-123.82 281.35,-114.2"/>
<polygon fill="black" stroke="black" points="283.06,-111.12 272.91,-108.1 278.97,-116.79 283.06,-111.12"/>
</g>
<!-- TABL&#45;SCX_T100KEY&#45;&gt;DTEL&#45;SYMSGID -->
<g id="edge16" class="edge">
<title>TABL&#45;SCX_T100KEY&#45;&gt;DTEL&#45;SYMSGID</title>
<path fill="none" stroke="black" d="M367.22,-143.7C377.92,-134.88 391.09,-124.03 402.7,-114.47"/>
<polygon fill="black" stroke="black" points="404.94,-117.16 410.44,-108.1 400.49,-111.76 404.94,-117.16"/>
</g>
<!-- DOMA&#45;SYMSGNO -->
<g id="node8" class="node">
<title>DOMA&#45;SYMSGNO</title>
<g id="a_node8"><a xlink:href="./DOMA_SYMSGNO.html" xlink:title="DOMA&#45;SYMSGNO">
<polygon fill="none" stroke="yellow" points="315.07,-36 183.34,-36 183.34,0 315.07,0 315.07,-36"/>
<text text-anchor="middle" x="249.2" y="-13.8" font-family="Times,serif" font-size="14.00">DOMA&#45;SYMSGNO</text>
</a>
</g>
</g>
<!-- DTEL&#45;SYMSGNO&#45;&gt;DOMA&#45;SYMSGNO -->
<g id="edge19" class="edge">
<title>DTEL&#45;SYMSGNO&#45;&gt;DOMA&#45;SYMSGNO</title>
<path fill="none" stroke="black" d="M249.2,-71.7C249.2,-63.98 249.2,-54.71 249.2,-46.11"/>
<polygon fill="black" stroke="black" points="252.7,-46.1 249.2,-36.1 245.7,-46.1 252.7,-46.1"/>
</g>
<!-- DOMA&#45;ARBGB -->
<g id="node10" class="node">
<title>DOMA&#45;ARBGB</title>
<g id="a_node10"><a xlink:href="./DOMA_ARBGB.html" xlink:title="DOMA&#45;ARBGB">
<polygon fill="none" stroke="yellow" points="486.85,-36 375.56,-36 375.56,0 486.85,0 486.85,-36"/>
<text text-anchor="middle" x="431.2" y="-13.8" font-family="Times,serif" font-size="14.00">DOMA&#45;ARBGB</text>
</a>
</g>
</g>
<!-- DTEL&#45;SYMSGID&#45;&gt;DOMA&#45;ARBGB -->
<g id="edge20" class="edge">
<title>DTEL&#45;SYMSGID&#45;&gt;DOMA&#45;ARBGB</title>
<path fill="none" stroke="black" d="M431.2,-71.7C431.2,-63.98 431.2,-54.71 431.2,-46.11"/>
<polygon fill="black" stroke="black" points="434.7,-46.1 431.2,-36.1 427.7,-46.1 434.7,-46.1"/>
</g>
<!-- CLAS&#45;CX_ROOT -->
<g id="node12" class="node">
<title>CLAS&#45;CX_ROOT</title>
<g id="a_node12"><a xlink:href="./CLAS_CX_ROOT.html" xlink:title="CLAS&#45;CX_ROOT">
<polygon fill="none" stroke="green" points="854.69,-180 733.72,-180 733.72,-144 854.69,-144 854.69,-180"/>
<text text-anchor="middle" x="794.2" y="-157.8" font-family="Times,serif" font-size="14.00">CLAS&#45;CX_ROOT</text>
</a>
</g>
</g>
<!-- CLAS&#45;CX_STATIC_CHECK&#45;&gt;CLAS&#45;CX_ROOT -->
<g id="edge21" class="edge">
<title>CLAS&#45;CX_STATIC_CHECK&#45;&gt;CLAS&#45;CX_ROOT</title>
<path fill="none" stroke="black" d="M635.31,-215.97C664.78,-206.14 702.02,-193.73 733.04,-183.39"/>
<polygon fill="black" stroke="black" points="734.49,-186.59 742.87,-180.11 732.28,-179.95 734.49,-186.59"/>
</g>
<!-- CLAS&#45;CX_ROOT&#45;&gt;INTF&#45;IF_MESSAGE -->
<g id="edge25" class="edge">
<title>CLAS&#45;CX_ROOT&#45;&gt;INTF&#45;IF_MESSAGE</title>
<path fill="none" stroke="black" d="M741.4,-143.97C710.81,-134.1 672.13,-121.62 640,-111.25"/>
<polygon fill="black" stroke="black" points="640.84,-107.85 630.25,-108.11 638.69,-114.51 640.84,-107.85"/>
</g>
<!-- INTF&#45;IF_SERIALIZABLE_OBJECT -->
<g id="node13" class="node">
<title>INTF&#45;IF_SERIALIZABLE_OBJECT</title>
<g id="a_node13"><a xlink:href="./INTF_IF_SERIALIZABLE_OBJECT.html" xlink:title="INTF&#45;IF_SERIALIZABLE_OBJECT">
<polygon fill="none" stroke="green" points="891.49,-108 662.92,-108 662.92,-72 891.49,-72 891.49,-108"/>
<text text-anchor="middle" x="777.2" y="-85.8" font-family="Times,serif" font-size="14.00">INTF&#45;IF_SERIALIZABLE_OBJECT</text>
</a>
</g>
</g>
<!-- CLAS&#45;CX_ROOT&#45;&gt;INTF&#45;IF_SERIALIZABLE_OBJECT -->
<g id="edge26" class="edge">
<title>CLAS&#45;CX_ROOT&#45;&gt;INTF&#45;IF_SERIALIZABLE_OBJECT</title>
<path fill="none" stroke="black" d="M790,-143.7C788.11,-135.9 785.83,-126.51 783.72,-117.83"/>
<polygon fill="black" stroke="black" points="787.12,-117 781.36,-108.1 780.32,-118.65 787.12,-117"/>
</g>
<!-- DTEL&#45;SYREPID -->
<g id="node14" class="node">
<title>DTEL&#45;SYREPID</title>
<g id="a_node14"><a xlink:href="./DTEL_SYREPID.html" xlink:title="DTEL&#45;SYREPID">
<polygon fill="none" stroke="green" points="1024.46,-108 909.95,-108 909.95,-72 1024.46,-72 1024.46,-108"/>
<text text-anchor="middle" x="967.2" y="-85.8" font-family="Times,serif" font-size="14.00">DTEL&#45;SYREPID</text>
</a>
</g>
</g>
<!-- CLAS&#45;CX_ROOT&#45;&gt;DTEL&#45;SYREPID -->
<g id="edge24" class="edge">
<title>CLAS&#45;CX_ROOT&#45;&gt;DTEL&#45;SYREPID</title>
<path fill="none" stroke="black" d="M836.53,-143.88C860.39,-134.22 890.38,-122.09 915.61,-111.88"/>
<polygon fill="black" stroke="black" points="917.06,-115.06 925.02,-108.07 914.44,-108.57 917.06,-115.06"/>
</g>
<!-- DTEL&#45;S380ERRID -->
<g id="node16" class="node">
<title>DTEL&#45;S380ERRID</title>
<g id="a_node16"><a xlink:href="./DTEL_S380ERRID.html" xlink:title="DTEL&#45;S380ERRID">
<polygon fill="none" stroke="yellow" points="1169.91,-108 1042.5,-108 1042.5,-72 1169.91,-72 1169.91,-108"/>
<text text-anchor="middle" x="1106.2" y="-85.8" font-family="Times,serif" font-size="14.00">DTEL&#45;S380ERRID</text>
</a>
</g>
</g>
<!-- CLAS&#45;CX_ROOT&#45;&gt;DTEL&#45;S380ERRID -->
<g id="edge23" class="edge">
<title>CLAS&#45;CX_ROOT&#45;&gt;DTEL&#45;S380ERRID</title>
<path fill="none" stroke="black" d="M855.15,-147.67C901.2,-137.56 966.25,-123.18 1032.7,-108.1"/>
<polygon fill="black" stroke="black" points="1033.54,-111.5 1042.51,-105.87 1031.99,-104.68 1033.54,-111.5"/>
</g>
<!-- DTEL&#45;SOTR_CONC -->
<g id="node18" class="node">
<title>DTEL&#45;SOTR_CONC</title>
<g id="a_node18"><a xlink:href="./DTEL_SOTR_CONC.html" xlink:title="DTEL&#45;SOTR_CONC">
<polygon fill="none" stroke="yellow" points="1328.29,-108 1190.11,-108 1190.11,-72 1328.29,-72 1328.29,-108"/>
<text text-anchor="middle" x="1259.2" y="-85.8" font-family="Times,serif" font-size="14.00">DTEL&#45;SOTR_CONC</text>
</a>
</g>
</g>
<!-- CLAS&#45;CX_ROOT&#45;&gt;DTEL&#45;SOTR_CONC -->
<g id="edge22" class="edge">
<title>CLAS&#45;CX_ROOT&#45;&gt;DTEL&#45;SOTR_CONC</title>
<path fill="none" stroke="black" d="M854.76,-154.04C930.78,-144.99 1065.06,-127.96 1179.2,-108 1179.42,-107.96 1179.64,-107.92 1179.86,-107.88"/>
<polygon fill="black" stroke="black" points="1180.68,-111.29 1189.89,-106.05 1179.42,-104.41 1180.68,-111.29"/>
</g>
<!-- DOMA&#45;PROGRAMM -->
<g id="node15" class="node">
<title>DOMA&#45;PROGRAMM</title>
<g id="a_node15"><a xlink:href="./DOMA_PROGRAMM.html" xlink:title="DOMA&#45;PROGRAMM">
<polygon fill="none" stroke="yellow" points="1020.79,-36 875.61,-36 875.61,0 1020.79,0 1020.79,-36"/>
<text text-anchor="middle" x="948.2" y="-13.8" font-family="Times,serif" font-size="14.00">DOMA&#45;PROGRAMM</text>
</a>
</g>
</g>
<!-- DTEL&#45;SYREPID&#45;&gt;DOMA&#45;PROGRAMM -->
<g id="edge27" class="edge">
<title>DTEL&#45;SYREPID&#45;&gt;DOMA&#45;PROGRAMM</title>
<path fill="none" stroke="black" d="M962.51,-71.7C960.39,-63.9 957.84,-54.51 955.49,-45.83"/>
<polygon fill="black" stroke="black" points="958.84,-44.84 952.85,-36.1 952.09,-46.67 958.84,-44.84"/>
</g>
<!-- DOMA&#45;SYCHAR30 -->
<g id="node17" class="node">
<title>DOMA&#45;SYCHAR30</title>
<g id="a_node17"><a xlink:href="./DOMA_SYCHAR30.html" xlink:title="DOMA&#45;SYCHAR30">
<polygon fill="none" stroke="yellow" points="1173.41,-36 1039,-36 1039,0 1173.41,0 1173.41,-36"/>
<text text-anchor="middle" x="1106.2" y="-13.8" font-family="Times,serif" font-size="14.00">DOMA&#45;SYCHAR30</text>
</a>
</g>
</g>
<!-- DTEL&#45;S380ERRID&#45;&gt;DOMA&#45;SYCHAR30 -->
<g id="edge28" class="edge">
<title>DTEL&#45;S380ERRID&#45;&gt;DOMA&#45;SYCHAR30</title>
<path fill="none" stroke="black" d="M1106.2,-71.7C1106.2,-63.98 1106.2,-54.71 1106.2,-46.11"/>
<polygon fill="black" stroke="black" points="1109.7,-46.1 1106.2,-36.1 1102.7,-46.1 1109.7,-46.1"/>
</g>
<!-- DOMA&#45;SYSUUID_C -->
<g id="node19" class="node">
<title>DOMA&#45;SYSUUID_C</title>
<g id="a_node19"><a xlink:href="./DOMA_SYSUUID_C.html" xlink:title="DOMA&#45;SYSUUID_C">
<polygon fill="none" stroke="yellow" points="1331.62,-36 1190.79,-36 1190.79,0 1331.62,0 1331.62,-36"/>
<text text-anchor="middle" x="1261.2" y="-13.8" font-family="Times,serif" font-size="14.00">DOMA&#45;SYSUUID_C</text>
</a>
</g>
</g>
<!-- DTEL&#45;SOTR_CONC&#45;&gt;DOMA&#45;SYSUUID_C -->
<g id="edge29" class="edge">
<title>DTEL&#45;SOTR_CONC&#45;&gt;DOMA&#45;SYSUUID_C</title>
<path fill="none" stroke="black" d="M1259.7,-71.7C1259.92,-63.98 1260.18,-54.71 1260.43,-46.11"/>
<polygon fill="black" stroke="black" points="1263.93,-46.2 1260.72,-36.1 1256.93,-46 1263.93,-46.2"/>
</g>
<!-- DOMA&#45;SYCHAR01 -->
<g id="node21" class="node">
<title>DOMA&#45;SYCHAR01</title>
<g id="a_node21"><a xlink:href="./DOMA_SYCHAR01.html" xlink:title="DOMA&#45;SYCHAR01">
<polygon fill="none" stroke="yellow" points="867.41,-252 733,-252 733,-216 867.41,-216 867.41,-252"/>
<text text-anchor="middle" x="800.2" y="-229.8" font-family="Times,serif" font-size="14.00">DOMA&#45;SYCHAR01</text>
</a>
</g>
</g>
<!-- DTEL&#45;SYCHAR01&#45;&gt;DOMA&#45;SYCHAR01 -->
<g id="edge30" class="edge">
<title>DTEL&#45;SYCHAR01&#45;&gt;DOMA&#45;SYCHAR01</title>
<path fill="none" stroke="black" d="M798.7,-287.7C798.92,-279.98 799.18,-270.71 799.43,-262.11"/>
<polygon fill="black" stroke="black" points="802.93,-262.2 799.72,-252.1 795.93,-262 802.93,-262.2"/>
</g>
</g>
</svg>
