<?xml version="1.0" encoding="UTF-8" standalone="no"?>
<!DOCTYPE svg PUBLIC "-//W3C//DTD SVG 1.1//EN"
 "http://www.w3.org/Graphics/SVG/1.1/DTD/svg11.dtd">
<!-- Generated by graphviz version 2.47.3 (20210619.1520)
 -->
<!-- Title: G Pages: 1 -->
<svg width="830pt" height="476pt"
 viewBox="0.00 0.00 830.35 476.00" xmlns="http://www.w3.org/2000/svg" xmlns:xlink="http://www.w3.org/1999/xlink">
<g id="graph0" class="graph" transform="scale(1 1) rotate(0) translate(4 472)">
<title>G</title>
<polygon fill="white" stroke="transparent" points="-4,4 -4,-472 826.35,-472 826.35,4 -4,4"/>
<!-- CLAS&#45;CX_BADI_MULTIPLY_IMPLEMENTED -->
<g id="node1" class="node">
<title>CLAS&#45;CX_BADI_MULTIPLY_IMPLEMENTED</title>
<polygon fill="none" stroke="green" points="810.3,-468 507.98,-468 507.98,-432 810.3,-432 810.3,-468"/>
<text text-anchor="middle" x="659.14" y="-445.8" font-family="Times,serif" font-size="14.00">CLAS&#45;CX_BADI_MULTIPLY_IMPLEMENTED</text>
</g>
<!-- CLAS&#45;CX_BADI_NOT_SINGLE_USE -->
<g id="node2" class="node">
<title>CLAS&#45;CX_BADI_NOT_SINGLE_USE</title>
<g id="a_node2"><a xlink:href="./CLAS_CX_BADI_NOT_SINGLE_USE.html" xlink:title="CLAS&#45;CX_BADI_NOT_SINGLE_USE">
<polygon fill="none" stroke="green" points="705.71,-396 462.58,-396 462.58,-360 705.71,-360 705.71,-396"/>
<text text-anchor="middle" x="584.14" y="-373.8" font-family="Times,serif" font-size="14.00">CLAS&#45;CX_BADI_NOT_SINGLE_USE</text>
</a>
</g>
</g>
<!-- CLAS&#45;CX_BADI_MULTIPLY_IMPLEMENTED&#45;&gt;CLAS&#45;CX_BADI_NOT_SINGLE_USE -->
<g id="edge2" class="edge">
<title>CLAS&#45;CX_BADI_MULTIPLY_IMPLEMENTED&#45;&gt;CLAS&#45;CX_BADI_NOT_SINGLE_USE</title>
<path fill="none" stroke="black" d="M640.61,-431.7C631.34,-423.05 619.98,-412.45 609.89,-403.03"/>
<polygon fill="black" stroke="black" points="612.17,-400.37 602.47,-396.1 607.39,-405.49 612.17,-400.37"/>
</g>
<!-- DTEL&#45;SOTR_CONC -->
<g id="node12" class="node">
<title>DTEL&#45;SOTR_CONC</title>
<g id="a_node12"><a xlink:href="./DTEL_SOTR_CONC.html" xlink:title="DTEL&#45;SOTR_CONC">
<polygon fill="none" stroke="yellow" points="817.23,-108 679.05,-108 679.05,-72 817.23,-72 817.23,-108"/>
<text text-anchor="middle" x="748.14" y="-85.8" font-family="Times,serif" font-size="14.00">DTEL&#45;SOTR_CONC</text>
</a>
</g>
</g>
<!-- CLAS&#45;CX_BADI_MULTIPLY_IMPLEMENTED&#45;&gt;DTEL&#45;SOTR_CONC -->
<g id="edge1" class="edge">
<title>CLAS&#45;CX_BADI_MULTIPLY_IMPLEMENTED&#45;&gt;DTEL&#45;SOTR_CONC</title>
<path fill="none" stroke="black" d="M682.27,-431.79C693.58,-422.32 706.56,-409.73 715.14,-396 737.13,-360.84 743.14,-348.47 743.14,-307 743.14,-307 743.14,-307 743.14,-233 743.14,-192.97 745.15,-146.63 746.62,-118.07"/>
<polygon fill="black" stroke="black" points="750.12,-118.21 747.16,-108.04 743.13,-117.84 750.12,-118.21"/>
</g>
<!-- CLAS&#45;CX_BADI -->
<g id="node3" class="node">
<title>CLAS&#45;CX_BADI</title>
<g id="a_node3"><a xlink:href="./CLAS_CX_BADI.html" xlink:title="CLAS&#45;CX_BADI">
<polygon fill="none" stroke="green" points="625.74,-324 508.55,-324 508.55,-288 625.74,-288 625.74,-324"/>
<text text-anchor="middle" x="567.14" y="-301.8" font-family="Times,serif" font-size="14.00">CLAS&#45;CX_BADI</text>
</a>
</g>
</g>
<!-- CLAS&#45;CX_BADI_NOT_SINGLE_USE&#45;&gt;CLAS&#45;CX_BADI -->
<g id="edge3" class="edge">
<title>CLAS&#45;CX_BADI_NOT_SINGLE_USE&#45;&gt;CLAS&#45;CX_BADI</title>
<path fill="none" stroke="black" d="M579.94,-359.7C578.05,-351.9 575.77,-342.51 573.66,-333.83"/>
<polygon fill="black" stroke="black" points="577.06,-333 571.3,-324.1 570.26,-334.65 577.06,-333"/>
</g>
<!-- CLAS&#45;CX_NO_CHECK -->
<g id="node4" class="node">
<title>CLAS&#45;CX_NO_CHECK</title>
<g id="a_node4"><a xlink:href="./CLAS_CX_NO_CHECK.html" xlink:title="CLAS&#45;CX_NO_CHECK">
<polygon fill="none" stroke="green" points="610.68,-252 453.61,-252 453.61,-216 610.68,-216 610.68,-252"/>
<text text-anchor="middle" x="532.14" y="-229.8" font-family="Times,serif" font-size="14.00">CLAS&#45;CX_NO_CHECK</text>
</a>
</g>
</g>
<!-- CLAS&#45;CX_BADI&#45;&gt;CLAS&#45;CX_NO_CHECK -->
<g id="edge4" class="edge">
<title>CLAS&#45;CX_BADI&#45;&gt;CLAS&#45;CX_NO_CHECK</title>
<path fill="none" stroke="black" d="M558.49,-287.7C554.51,-279.73 549.69,-270.1 545.28,-261.26"/>
<polygon fill="black" stroke="black" points="548.3,-259.48 540.7,-252.1 542.04,-262.61 548.3,-259.48"/>
</g>
<!-- CLAS&#45;CX_ROOT -->
<g id="node5" class="node">
<title>CLAS&#45;CX_ROOT</title>
<g id="a_node5"><a xlink:href="./CLAS_CX_ROOT.html" xlink:title="CLAS&#45;CX_ROOT">
<polygon fill="none" stroke="green" points="522.63,-180 401.66,-180 401.66,-144 522.63,-144 522.63,-180"/>
<text text-anchor="middle" x="462.14" y="-157.8" font-family="Times,serif" font-size="14.00">CLAS&#45;CX_ROOT</text>
</a>
</g>
</g>
<!-- CLAS&#45;CX_NO_CHECK&#45;&gt;CLAS&#45;CX_ROOT -->
<g id="edge5" class="edge">
<title>CLAS&#45;CX_NO_CHECK&#45;&gt;CLAS&#45;CX_ROOT</title>
<path fill="none" stroke="black" d="M514.84,-215.7C506.28,-207.14 495.8,-196.66 486.45,-187.3"/>
<polygon fill="black" stroke="black" points="488.79,-184.7 479.25,-180.1 483.85,-189.65 488.79,-184.7"/>
</g>
<!-- INTF&#45;IF_SERIALIZABLE_OBJECT -->
<g id="node6" class="node">
<title>INTF&#45;IF_SERIALIZABLE_OBJECT</title>
<g id="a_node6"><a xlink:href="./INTF_IF_SERIALIZABLE_OBJECT.html" xlink:title="INTF&#45;IF_SERIALIZABLE_OBJECT">
<polygon fill="none" stroke="green" points="228.43,-108 -0.14,-108 -0.14,-72 228.43,-72 228.43,-108"/>
<text text-anchor="middle" x="114.14" y="-85.8" font-family="Times,serif" font-size="14.00">INTF&#45;IF_SERIALIZABLE_OBJECT</text>
</a>
</g>
</g>
<!-- CLAS&#45;CX_ROOT&#45;&gt;INTF&#45;IF_SERIALIZABLE_OBJECT -->
<g id="edge10" class="edge">
<title>CLAS&#45;CX_ROOT&#45;&gt;INTF&#45;IF_SERIALIZABLE_OBJECT</title>
<path fill="none" stroke="black" d="M401.53,-148.81C348.4,-138.12 270.3,-122.41 208.92,-110.06"/>
<polygon fill="black" stroke="black" points="209.32,-106.58 198.83,-108.03 207.94,-113.44 209.32,-106.58"/>
</g>
<!-- INTF&#45;IF_MESSAGE -->
<g id="node7" class="node">
<title>INTF&#45;IF_MESSAGE</title>
<g id="a_node7"><a xlink:href="./INTF_IF_MESSAGE.html" xlink:title="INTF&#45;IF_MESSAGE">
<polygon fill="none" stroke="green" points="382.18,-108 246.11,-108 246.11,-72 382.18,-72 382.18,-108"/>
<text text-anchor="middle" x="314.14" y="-85.8" font-family="Times,serif" font-size="14.00">INTF&#45;IF_MESSAGE</text>
</a>
</g>
</g>
<!-- CLAS&#45;CX_ROOT&#45;&gt;INTF&#45;IF_MESSAGE -->
<g id="edge9" class="edge">
<title>CLAS&#45;CX_ROOT&#45;&gt;INTF&#45;IF_MESSAGE</title>
<path fill="none" stroke="black" d="M425.94,-143.88C405.89,-134.39 380.77,-122.51 359.43,-112.42"/>
<polygon fill="black" stroke="black" points="360.77,-109.18 350.23,-108.07 357.78,-115.51 360.77,-109.18"/>
</g>
<!-- DTEL&#45;SYREPID -->
<g id="node8" class="node">
<title>DTEL&#45;SYREPID</title>
<g id="a_node8"><a xlink:href="./DTEL_SYREPID.html" xlink:title="DTEL&#45;SYREPID">
<polygon fill="none" stroke="green" points="515.4,-108 400.89,-108 400.89,-72 515.4,-72 515.4,-108"/>
<text text-anchor="middle" x="458.14" y="-85.8" font-family="Times,serif" font-size="14.00">DTEL&#45;SYREPID</text>
</a>
</g>
</g>
<!-- CLAS&#45;CX_ROOT&#45;&gt;DTEL&#45;SYREPID -->
<g id="edge8" class="edge">
<title>CLAS&#45;CX_ROOT&#45;&gt;DTEL&#45;SYREPID</title>
<path fill="none" stroke="black" d="M461.16,-143.7C460.71,-135.98 460.19,-126.71 459.69,-118.11"/>
<polygon fill="black" stroke="black" points="463.19,-117.89 459.12,-108.1 456.2,-118.29 463.19,-117.89"/>
</g>
<!-- DTEL&#45;S380ERRID -->
<g id="node10" class="node">
<title>DTEL&#45;S380ERRID</title>
<g id="a_node10"><a xlink:href="./DTEL_S380ERRID.html" xlink:title="DTEL&#45;S380ERRID">
<polygon fill="none" stroke="yellow" points="660.85,-108 533.44,-108 533.44,-72 660.85,-72 660.85,-108"/>
<text text-anchor="middle" x="597.14" y="-85.8" font-family="Times,serif" font-size="14.00">DTEL&#45;S380ERRID</text>
</a>
</g>
</g>
<!-- CLAS&#45;CX_ROOT&#45;&gt;DTEL&#45;S380ERRID -->
<g id="edge7" class="edge">
<title>CLAS&#45;CX_ROOT&#45;&gt;DTEL&#45;S380ERRID</title>
<path fill="none" stroke="black" d="M495.17,-143.88C513.23,-134.51 535.79,-122.81 555.1,-112.8"/>
<polygon fill="black" stroke="black" points="556.73,-115.9 563.99,-108.19 553.5,-109.69 556.73,-115.9"/>
</g>
<!-- CLAS&#45;CX_ROOT&#45;&gt;DTEL&#45;SOTR_CONC -->
<g id="edge6" class="edge">
<title>CLAS&#45;CX_ROOT&#45;&gt;DTEL&#45;SOTR_CONC</title>
<path fill="none" stroke="black" d="M522.8,-146.15C565.42,-135.72 622.84,-121.67 669.06,-110.36"/>
<polygon fill="black" stroke="black" points="670.16,-113.69 679.04,-107.91 668.49,-106.89 670.16,-113.69"/>
</g>
<!-- DOMA&#45;PROGRAMM -->
<g id="node9" class="node">
<title>DOMA&#45;PROGRAMM</title>
<g id="a_node9"><a xlink:href="./DOMA_PROGRAMM.html" xlink:title="DOMA&#45;PROGRAMM">
<polygon fill="none" stroke="yellow" points="511.73,-36 366.55,-36 366.55,0 511.73,0 511.73,-36"/>
<text text-anchor="middle" x="439.14" y="-13.8" font-family="Times,serif" font-size="14.00">DOMA&#45;PROGRAMM</text>
</a>
</g>
</g>
<!-- DTEL&#45;SYREPID&#45;&gt;DOMA&#45;PROGRAMM -->
<g id="edge11" class="edge">
<title>DTEL&#45;SYREPID&#45;&gt;DOMA&#45;PROGRAMM</title>
<path fill="none" stroke="black" d="M453.45,-71.7C451.33,-63.9 448.78,-54.51 446.43,-45.83"/>
<polygon fill="black" stroke="black" points="449.78,-44.84 443.79,-36.1 443.03,-46.67 449.78,-44.84"/>
</g>
<!-- DOMA&#45;SYCHAR30 -->
<g id="node11" class="node">
<title>DOMA&#45;SYCHAR30</title>
<g id="a_node11"><a xlink:href="./DOMA_SYCHAR30.html" xlink:title="DOMA&#45;SYCHAR30">
<polygon fill="none" stroke="yellow" points="664.35,-36 529.94,-36 529.94,0 664.35,0 664.35,-36"/>
<text text-anchor="middle" x="597.14" y="-13.8" font-family="Times,serif" font-size="14.00">DOMA&#45;SYCHAR30</text>
</a>
</g>
</g>
<!-- DTEL&#45;S380ERRID&#45;&gt;DOMA&#45;SYCHAR30 -->
<g id="edge12" class="edge">
<title>DTEL&#45;S380ERRID&#45;&gt;DOMA&#45;SYCHAR30</title>
<path fill="none" stroke="black" d="M597.14,-71.7C597.14,-63.98 597.14,-54.71 597.14,-46.11"/>
<polygon fill="black" stroke="black" points="600.64,-46.1 597.14,-36.1 593.64,-46.1 600.64,-46.1"/>
</g>
<!-- DOMA&#45;SYSUUID_C -->
<g id="node13" class="node">
<title>DOMA&#45;SYSUUID_C</title>
<g id="a_node13"><a xlink:href="./DOMA_SYSUUID_C.html" xlink:title="DOMA&#45;SYSUUID_C">
<polygon fill="none" stroke="yellow" points="822.56,-36 681.73,-36 681.73,0 822.56,0 822.56,-36"/>
<text text-anchor="middle" x="752.14" y="-13.8" font-family="Times,serif" font-size="14.00">DOMA&#45;SYSUUID_C</text>
</a>
</g>
</g>
<!-- DTEL&#45;SOTR_CONC&#45;&gt;DOMA&#45;SYSUUID_C -->
<g id="edge13" class="edge">
<title>DTEL&#45;SOTR_CONC&#45;&gt;DOMA&#45;SYSUUID_C</title>
<path fill="none" stroke="black" d="M749.13,-71.7C749.57,-63.98 750.1,-54.71 750.6,-46.11"/>
<polygon fill="black" stroke="black" points="754.09,-46.29 751.17,-36.1 747.1,-45.89 754.09,-46.29"/>
</g>
</g>
</svg>
