<?xml version="1.0" encoding="UTF-8" standalone="no"?>
<!DOCTYPE svg PUBLIC "-//W3C//DTD SVG 1.1//EN"
 "http://www.w3.org/Graphics/SVG/1.1/DTD/svg11.dtd">
<!-- Generated by graphviz version 2.47.3 (20210619.1520)
 -->
<!-- Title: G Pages: 1 -->
<svg width="830pt" height="332pt"
 viewBox="0.00 0.00 830.35 332.00" xmlns="http://www.w3.org/2000/svg" xmlns:xlink="http://www.w3.org/1999/xlink">
<g id="graph0" class="graph" transform="scale(1 1) rotate(0) translate(4 328)">
<title>G</title>
<polygon fill="white" stroke="transparent" points="-4,4 -4,-328 826.35,-328 826.35,4 -4,4"/>
<!-- CLAS&#45;CX_SY_RTTI_NO_CHECK -->
<g id="node1" class="node">
<title>CLAS&#45;CX_SY_RTTI_NO_CHECK</title>
<polygon fill="none" stroke="green" points="735.17,-324 515.12,-324 515.12,-288 735.17,-288 735.17,-324"/>
<text text-anchor="middle" x="625.14" y="-301.8" font-family="Times,serif" font-size="14.00">CLAS&#45;CX_SY_RTTI_NO_CHECK</text>
</g>
<!-- CLAS&#45;CX_NO_CHECK -->
<g id="node2" class="node">
<title>CLAS&#45;CX_NO_CHECK</title>
<g id="a_node2"><a xlink:href="./CLAS_CX_NO_CHECK.html" xlink:title="CLAS&#45;CX_NO_CHECK">
<polygon fill="none" stroke="green" points="650.68,-252 493.61,-252 493.61,-216 650.68,-216 650.68,-252"/>
<text text-anchor="middle" x="572.14" y="-229.8" font-family="Times,serif" font-size="14.00">CLAS&#45;CX_NO_CHECK</text>
</a>
</g>
</g>
<!-- CLAS&#45;CX_SY_RTTI_NO_CHECK&#45;&gt;CLAS&#45;CX_NO_CHECK -->
<g id="edge2" class="edge">
<title>CLAS&#45;CX_SY_RTTI_NO_CHECK&#45;&gt;CLAS&#45;CX_NO_CHECK</title>
<path fill="none" stroke="black" d="M612.04,-287.7C605.75,-279.39 598.1,-269.28 591.18,-260.14"/>
<polygon fill="black" stroke="black" points="593.92,-257.96 585.09,-252.1 588.34,-262.19 593.92,-257.96"/>
</g>
<!-- DTEL&#45;SOTR_CONC -->
<g id="node10" class="node">
<title>DTEL&#45;SOTR_CONC</title>
<g id="a_node10"><a xlink:href="./DTEL_SOTR_CONC.html" xlink:title="DTEL&#45;SOTR_CONC">
<polygon fill="none" stroke="yellow" points="817.23,-108 679.05,-108 679.05,-72 817.23,-72 817.23,-108"/>
<text text-anchor="middle" x="748.14" y="-85.8" font-family="Times,serif" font-size="14.00">DTEL&#45;SOTR_CONC</text>
</a>
</g>
</g>
<!-- CLAS&#45;CX_SY_RTTI_NO_CHECK&#45;&gt;DTEL&#45;SOTR_CONC -->
<g id="edge1" class="edge">
<title>CLAS&#45;CX_SY_RTTI_NO_CHECK&#45;&gt;DTEL&#45;SOTR_CONC</title>
<path fill="none" stroke="black" d="M637.18,-287.57C644.11,-277.34 652.86,-264.09 660.14,-252 688.14,-205.5 717.85,-149.59 734.59,-117.38"/>
<polygon fill="black" stroke="black" points="737.86,-118.67 739.35,-108.18 731.65,-115.45 737.86,-118.67"/>
</g>
<!-- CLAS&#45;CX_ROOT -->
<g id="node3" class="node">
<title>CLAS&#45;CX_ROOT</title>
<g id="a_node3"><a xlink:href="./CLAS_CX_ROOT.html" xlink:title="CLAS&#45;CX_ROOT">
<polygon fill="none" stroke="green" points="541.63,-180 420.66,-180 420.66,-144 541.63,-144 541.63,-180"/>
<text text-anchor="middle" x="481.14" y="-157.8" font-family="Times,serif" font-size="14.00">CLAS&#45;CX_ROOT</text>
</a>
</g>
</g>
<!-- CLAS&#45;CX_NO_CHECK&#45;&gt;CLAS&#45;CX_ROOT -->
<g id="edge3" class="edge">
<title>CLAS&#45;CX_NO_CHECK&#45;&gt;CLAS&#45;CX_ROOT</title>
<path fill="none" stroke="black" d="M549.65,-215.7C538.19,-206.88 524.09,-196.03 511.66,-186.47"/>
<polygon fill="black" stroke="black" points="513.44,-183.43 503.38,-180.1 509.17,-188.98 513.44,-183.43"/>
</g>
<!-- INTF&#45;IF_SERIALIZABLE_OBJECT -->
<g id="node4" class="node">
<title>INTF&#45;IF_SERIALIZABLE_OBJECT</title>
<g id="a_node4"><a xlink:href="./INTF_IF_SERIALIZABLE_OBJECT.html" xlink:title="INTF&#45;IF_SERIALIZABLE_OBJECT">
<polygon fill="none" stroke="green" points="228.43,-108 -0.14,-108 -0.14,-72 228.43,-72 228.43,-108"/>
<text text-anchor="middle" x="114.14" y="-85.8" font-family="Times,serif" font-size="14.00">INTF&#45;IF_SERIALIZABLE_OBJECT</text>
</a>
</g>
</g>
<!-- CLAS&#45;CX_ROOT&#45;&gt;INTF&#45;IF_SERIALIZABLE_OBJECT -->
<g id="edge8" class="edge">
<title>CLAS&#45;CX_ROOT&#45;&gt;INTF&#45;IF_SERIALIZABLE_OBJECT</title>
<path fill="none" stroke="black" d="M420.54,-149.44C364.29,-138.71 279.51,-122.54 213.38,-109.93"/>
<polygon fill="black" stroke="black" points="213.83,-106.45 203.35,-108.02 212.52,-113.33 213.83,-106.45"/>
</g>
<!-- INTF&#45;IF_MESSAGE -->
<g id="node5" class="node">
<title>INTF&#45;IF_MESSAGE</title>
<g id="a_node5"><a xlink:href="./INTF_IF_MESSAGE.html" xlink:title="INTF&#45;IF_MESSAGE">
<polygon fill="none" stroke="green" points="382.18,-108 246.11,-108 246.11,-72 382.18,-72 382.18,-108"/>
<text text-anchor="middle" x="314.14" y="-85.8" font-family="Times,serif" font-size="14.00">INTF&#45;IF_MESSAGE</text>
</a>
</g>
</g>
<!-- CLAS&#45;CX_ROOT&#45;&gt;INTF&#45;IF_MESSAGE -->
<g id="edge7" class="edge">
<title>CLAS&#45;CX_ROOT&#45;&gt;INTF&#45;IF_MESSAGE</title>
<path fill="none" stroke="black" d="M440.29,-143.88C417.36,-134.26 388.56,-122.19 364.27,-112.01"/>
<polygon fill="black" stroke="black" points="365.44,-108.71 354.86,-108.07 362.73,-115.16 365.44,-108.71"/>
</g>
<!-- DTEL&#45;SYREPID -->
<g id="node6" class="node">
<title>DTEL&#45;SYREPID</title>
<g id="a_node6"><a xlink:href="./DTEL_SYREPID.html" xlink:title="DTEL&#45;SYREPID">
<polygon fill="none" stroke="green" points="515.4,-108 400.89,-108 400.89,-72 515.4,-72 515.4,-108"/>
<text text-anchor="middle" x="458.14" y="-85.8" font-family="Times,serif" font-size="14.00">DTEL&#45;SYREPID</text>
</a>
</g>
</g>
<!-- CLAS&#45;CX_ROOT&#45;&gt;DTEL&#45;SYREPID -->
<g id="edge6" class="edge">
<title>CLAS&#45;CX_ROOT&#45;&gt;DTEL&#45;SYREPID</title>
<path fill="none" stroke="black" d="M475.46,-143.7C472.9,-135.9 469.81,-126.51 466.96,-117.83"/>
<polygon fill="black" stroke="black" points="470.21,-116.51 463.76,-108.1 463.56,-118.7 470.21,-116.51"/>
</g>
<!-- DTEL&#45;S380ERRID -->
<g id="node8" class="node">
<title>DTEL&#45;S380ERRID</title>
<g id="a_node8"><a xlink:href="./DTEL_S380ERRID.html" xlink:title="DTEL&#45;S380ERRID">
<polygon fill="none" stroke="yellow" points="660.85,-108 533.44,-108 533.44,-72 660.85,-72 660.85,-108"/>
<text text-anchor="middle" x="597.14" y="-85.8" font-family="Times,serif" font-size="14.00">DTEL&#45;S380ERRID</text>
</a>
</g>
</g>
<!-- CLAS&#45;CX_ROOT&#45;&gt;DTEL&#45;S380ERRID -->
<g id="edge5" class="edge">
<title>CLAS&#45;CX_ROOT&#45;&gt;DTEL&#45;S380ERRID</title>
<path fill="none" stroke="black" d="M509.52,-143.88C524.69,-134.72 543.55,-123.34 559.88,-113.48"/>
<polygon fill="black" stroke="black" points="561.91,-116.35 568.66,-108.19 558.29,-110.36 561.91,-116.35"/>
</g>
<!-- CLAS&#45;CX_ROOT&#45;&gt;DTEL&#45;SOTR_CONC -->
<g id="edge4" class="edge">
<title>CLAS&#45;CX_ROOT&#45;&gt;DTEL&#45;SOTR_CONC</title>
<path fill="none" stroke="black" d="M541.73,-145.12C580.76,-134.88 631.78,-121.51 673.33,-110.61"/>
<polygon fill="black" stroke="black" points="674.35,-113.97 683.13,-108.04 672.57,-107.19 674.35,-113.97"/>
</g>
<!-- DOMA&#45;PROGRAMM -->
<g id="node7" class="node">
<title>DOMA&#45;PROGRAMM</title>
<g id="a_node7"><a xlink:href="./DOMA_PROGRAMM.html" xlink:title="DOMA&#45;PROGRAMM">
<polygon fill="none" stroke="yellow" points="511.73,-36 366.55,-36 366.55,0 511.73,0 511.73,-36"/>
<text text-anchor="middle" x="439.14" y="-13.8" font-family="Times,serif" font-size="14.00">DOMA&#45;PROGRAMM</text>
</a>
</g>
</g>
<!-- DTEL&#45;SYREPID&#45;&gt;DOMA&#45;PROGRAMM -->
<g id="edge9" class="edge">
<title>DTEL&#45;SYREPID&#45;&gt;DOMA&#45;PROGRAMM</title>
<path fill="none" stroke="black" d="M453.45,-71.7C451.33,-63.9 448.78,-54.51 446.43,-45.83"/>
<polygon fill="black" stroke="black" points="449.78,-44.84 443.79,-36.1 443.03,-46.67 449.78,-44.84"/>
</g>
<!-- DOMA&#45;SYCHAR30 -->
<g id="node9" class="node">
<title>DOMA&#45;SYCHAR30</title>
<g id="a_node9"><a xlink:href="./DOMA_SYCHAR30.html" xlink:title="DOMA&#45;SYCHAR30">
<polygon fill="none" stroke="yellow" points="664.35,-36 529.94,-36 529.94,0 664.35,0 664.35,-36"/>
<text text-anchor="middle" x="597.14" y="-13.8" font-family="Times,serif" font-size="14.00">DOMA&#45;SYCHAR30</text>
</a>
</g>
</g>
<!-- DTEL&#45;S380ERRID&#45;&gt;DOMA&#45;SYCHAR30 -->
<g id="edge10" class="edge">
<title>DTEL&#45;S380ERRID&#45;&gt;DOMA&#45;SYCHAR30</title>
<path fill="none" stroke="black" d="M597.14,-71.7C597.14,-63.98 597.14,-54.71 597.14,-46.11"/>
<polygon fill="black" stroke="black" points="600.64,-46.1 597.14,-36.1 593.64,-46.1 600.64,-46.1"/>
</g>
<!-- DOMA&#45;SYSUUID_C -->
<g id="node11" class="node">
<title>DOMA&#45;SYSUUID_C</title>
<g id="a_node11"><a xlink:href="./DOMA_SYSUUID_C.html" xlink:title="DOMA&#45;SYSUUID_C">
<polygon fill="none" stroke="yellow" points="822.56,-36 681.73,-36 681.73,0 822.56,0 822.56,-36"/>
<text text-anchor="middle" x="752.14" y="-13.8" font-family="Times,serif" font-size="14.00">DOMA&#45;SYSUUID_C</text>
</a>
</g>
</g>
<!-- DTEL&#45;SOTR_CONC&#45;&gt;DOMA&#45;SYSUUID_C -->
<g id="edge11" class="edge">
<title>DTEL&#45;SOTR_CONC&#45;&gt;DOMA&#45;SYSUUID_C</title>
<path fill="none" stroke="black" d="M749.13,-71.7C749.57,-63.98 750.1,-54.71 750.6,-46.11"/>
<polygon fill="black" stroke="black" points="754.09,-46.29 751.17,-36.1 747.1,-45.89 754.09,-46.29"/>
</g>
</g>
</svg>
