<?xml version="1.0" encoding="UTF-8" standalone="no"?>
<!DOCTYPE svg PUBLIC "-//W3C//DTD SVG 1.1//EN"
 "http://www.w3.org/Graphics/SVG/1.1/DTD/svg11.dtd">
<!-- Generated by graphviz version 2.47.3 (20210619.1520)
 -->
<!-- Title: G Pages: 1 -->
<svg width="236pt" height="188pt"
 viewBox="0.00 0.00 236.29 188.00" xmlns="http://www.w3.org/2000/svg" xmlns:xlink="http://www.w3.org/1999/xlink">
<g id="graph0" class="graph" transform="scale(1 1) rotate(0) translate(4 184)">
<title>G</title>
<polygon fill="white" stroke="transparent" points="-4,4 -4,-184 232.29,-184 232.29,4 -4,4"/>
<!-- CLAS&#45;CL_AUNIT_CONSTRAINTS -->
<g id="node1" class="node">
<title>CLAS&#45;CL_AUNIT_CONSTRAINTS</title>
<polygon fill="none" stroke="green" points="228.44,-180 -0.15,-180 -0.15,-144 228.44,-144 228.44,-180"/>
<text text-anchor="middle" x="114.15" y="-157.8" font-family="Times,serif" font-size="14.00">CLAS&#45;CL_AUNIT_CONSTRAINTS</text>
</g>
<!-- INTF&#45;IF_CONSTRAINT -->
<g id="node2" class="node">
<title>INTF&#45;IF_CONSTRAINT</title>
<g id="a_node2"><a xlink:href="./INTF_IF_CONSTRAINT.html" xlink:title="INTF&#45;IF_CONSTRAINT">
<polygon fill="none" stroke="green" points="194,-108 34.29,-108 34.29,-72 194,-72 194,-108"/>
<text text-anchor="middle" x="114.15" y="-85.8" font-family="Times,serif" font-size="14.00">INTF&#45;IF_CONSTRAINT</text>
</a>
</g>
</g>
<!-- CLAS&#45;CL_AUNIT_CONSTRAINTS&#45;&gt;INTF&#45;IF_CONSTRAINT -->
<g id="edge1" class="edge">
<title>CLAS&#45;CL_AUNIT_CONSTRAINTS&#45;&gt;INTF&#45;IF_CONSTRAINT</title>
<path fill="none" stroke="black" d="M114.15,-143.7C114.15,-135.98 114.15,-126.71 114.15,-118.11"/>
<polygon fill="black" stroke="black" points="117.65,-118.1 114.15,-108.1 110.65,-118.1 117.65,-118.1"/>
</g>
<!-- TTYP&#45;STRING_TABLE -->
<g id="node3" class="node">
<title>TTYP&#45;STRING_TABLE</title>
<g id="a_node3"><a xlink:href="./TTYP_STRING_TABLE.html" xlink:title="TTYP&#45;STRING_TABLE">
<polygon fill="none" stroke="green" points="193.45,-36 34.84,-36 34.84,0 193.45,0 193.45,-36"/>
<text text-anchor="middle" x="114.15" y="-13.8" font-family="Times,serif" font-size="14.00">TTYP&#45;STRING_TABLE</text>
</a>
</g>
</g>
<!-- INTF&#45;IF_CONSTRAINT&#45;&gt;TTYP&#45;STRING_TABLE -->
<g id="edge2" class="edge">
<title>INTF&#45;IF_CONSTRAINT&#45;&gt;TTYP&#45;STRING_TABLE</title>
<path fill="none" stroke="black" d="M114.15,-71.7C114.15,-63.98 114.15,-54.71 114.15,-46.11"/>
<polygon fill="black" stroke="black" points="117.65,-46.1 114.15,-36.1 110.65,-46.1 117.65,-46.1"/>
</g>
</g>
</svg>
