<?xml version="1.0" encoding="UTF-8" standalone="no"?>
<!DOCTYPE svg PUBLIC "-//W3C//DTD SVG 1.1//EN"
 "http://www.w3.org/Graphics/SVG/1.1/DTD/svg11.dtd">
<!-- Generated by graphviz version 2.47.3 (20210619.1520)
 -->
<!-- Title: G Pages: 1 -->
<svg width="1285pt" height="188pt"
 viewBox="0.00 0.00 1285.14 188.00" xmlns="http://www.w3.org/2000/svg" xmlns:xlink="http://www.w3.org/1999/xlink">
<g id="graph0" class="graph" transform="scale(1 1) rotate(0) translate(4 184)">
<title>G</title>
<polygon fill="white" stroke="transparent" points="-4,4 -4,-184 1281.14,-184 1281.14,4 -4,4"/>
<!-- CLAS&#45;CL_NUMBERRANGE_RUNTIME -->
<g id="node1" class="node">
<title>CLAS&#45;CL_NUMBERRANGE_RUNTIME</title>
<polygon fill="none" stroke="green" points="761.17,-180 500.81,-180 500.81,-144 761.17,-144 761.17,-180"/>
<text text-anchor="middle" x="630.99" y="-157.8" font-family="Times,serif" font-size="14.00">CLAS&#45;CL_NUMBERRANGE_RUNTIME</text>
</g>
<!-- DTEL&#45;FLAG -->
<g id="node2" class="node">
<title>DTEL&#45;FLAG</title>
<g id="a_node2"><a xlink:href="./DTEL_FLAG.html" xlink:title="DTEL&#45;FLAG">
<polygon fill="none" stroke="yellow" points="102.46,-108 9.51,-108 9.51,-72 102.46,-72 102.46,-108"/>
<text text-anchor="middle" x="55.99" y="-85.8" font-family="Times,serif" font-size="14.00">DTEL&#45;FLAG</text>
</a>
</g>
</g>
<!-- CLAS&#45;CL_NUMBERRANGE_RUNTIME&#45;&gt;DTEL&#45;FLAG -->
<g id="edge10" class="edge">
<title>CLAS&#45;CL_NUMBERRANGE_RUNTIME&#45;&gt;DTEL&#45;FLAG</title>
<path fill="none" stroke="black" d="M500.71,-153.86C396.04,-146.63 245.64,-132.84 115.99,-108 114.9,-107.79 113.8,-107.57 112.69,-107.34"/>
<polygon fill="black" stroke="black" points="113.16,-103.86 102.64,-105.06 111.62,-110.69 113.16,-103.86"/>
</g>
<!-- DTEL&#45;NRNR -->
<g id="node4" class="node">
<title>DTEL&#45;NRNR</title>
<g id="a_node4"><a xlink:href="./DTEL_NRNR.html" xlink:title="DTEL&#45;NRNR">
<polygon fill="none" stroke="yellow" points="220.8,-108 125.17,-108 125.17,-72 220.8,-72 220.8,-108"/>
<text text-anchor="middle" x="172.99" y="-85.8" font-family="Times,serif" font-size="14.00">DTEL&#45;NRNR</text>
</a>
</g>
</g>
<!-- CLAS&#45;CL_NUMBERRANGE_RUNTIME&#45;&gt;DTEL&#45;NRNR -->
<g id="edge9" class="edge">
<title>CLAS&#45;CL_NUMBERRANGE_RUNTIME&#45;&gt;DTEL&#45;NRNR</title>
<path fill="none" stroke="black" d="M500.88,-148.87C422.23,-140.27 320.25,-126.88 230.99,-108 230.88,-107.98 230.78,-107.96 230.68,-107.93"/>
<polygon fill="black" stroke="black" points="231.48,-104.53 220.95,-105.67 229.9,-111.35 231.48,-104.53"/>
</g>
<!-- DTEL&#45;NRYEAR -->
<g id="node6" class="node">
<title>DTEL&#45;NRYEAR</title>
<g id="a_node6"><a xlink:href="./DTEL_NRYEAR.html" xlink:title="DTEL&#45;NRYEAR">
<polygon fill="none" stroke="yellow" points="353.96,-108 240.02,-108 240.02,-72 353.96,-72 353.96,-108"/>
<text text-anchor="middle" x="296.99" y="-85.8" font-family="Times,serif" font-size="14.00">DTEL&#45;NRYEAR</text>
</a>
</g>
</g>
<!-- CLAS&#45;CL_NUMBERRANGE_RUNTIME&#45;&gt;DTEL&#45;NRYEAR -->
<g id="edge8" class="edge">
<title>CLAS&#45;CL_NUMBERRANGE_RUNTIME&#45;&gt;DTEL&#45;NRYEAR</title>
<path fill="none" stroke="black" d="M538,-143.96C488.83,-134.63 427.27,-122.44 363.94,-108.16"/>
<polygon fill="black" stroke="black" points="364.7,-104.74 354.18,-105.94 363.15,-111.57 364.7,-104.74"/>
</g>
<!-- DTEL&#45;NRSOBJ -->
<g id="node8" class="node">
<title>DTEL&#45;NRSOBJ</title>
<g id="a_node8"><a xlink:href="./DTEL_NRSOBJ.html" xlink:title="DTEL&#45;NRSOBJ">
<polygon fill="none" stroke="yellow" points="480.03,-108 371.95,-108 371.95,-72 480.03,-72 480.03,-108"/>
<text text-anchor="middle" x="425.99" y="-85.8" font-family="Times,serif" font-size="14.00">DTEL&#45;NRSOBJ</text>
</a>
</g>
</g>
<!-- CLAS&#45;CL_NUMBERRANGE_RUNTIME&#45;&gt;DTEL&#45;NRSOBJ -->
<g id="edge7" class="edge">
<title>CLAS&#45;CL_NUMBERRANGE_RUNTIME&#45;&gt;DTEL&#45;NRSOBJ</title>
<path fill="none" stroke="black" d="M581.1,-143.97C552.33,-134.14 515.98,-121.73 485.7,-111.39"/>
<polygon fill="black" stroke="black" points="486.69,-108.03 476.1,-108.11 484.43,-114.65 486.69,-108.03"/>
</g>
<!-- DTEL&#45;NRRETURN -->
<g id="node10" class="node">
<title>DTEL&#45;NRRETURN</title>
<g id="a_node10"><a xlink:href="./DTEL_NRRETURN.html" xlink:title="DTEL&#45;NRRETURN">
<polygon fill="none" stroke="yellow" points="629.85,-108 498.13,-108 498.13,-72 629.85,-72 629.85,-108"/>
<text text-anchor="middle" x="563.99" y="-85.8" font-family="Times,serif" font-size="14.00">DTEL&#45;NRRETURN</text>
</a>
</g>
</g>
<!-- CLAS&#45;CL_NUMBERRANGE_RUNTIME&#45;&gt;DTEL&#45;NRRETURN -->
<g id="edge6" class="edge">
<title>CLAS&#45;CL_NUMBERRANGE_RUNTIME&#45;&gt;DTEL&#45;NRRETURN</title>
<path fill="none" stroke="black" d="M614.42,-143.7C606.31,-135.22 596.4,-124.86 587.52,-115.58"/>
<polygon fill="black" stroke="black" points="589.8,-112.91 580.36,-108.1 584.74,-117.75 589.8,-112.91"/>
</g>
<!-- DTEL&#45;NRQUAN -->
<g id="node12" class="node">
<title>DTEL&#45;NRQUAN</title>
<g id="a_node12"><a xlink:href="./DTEL_NRQUAN.html" xlink:title="DTEL&#45;NRQUAN">
<polygon fill="none" stroke="yellow" points="884.28,-108 767.69,-108 767.69,-72 884.28,-72 884.28,-108"/>
<text text-anchor="middle" x="825.99" y="-85.8" font-family="Times,serif" font-size="14.00">DTEL&#45;NRQUAN</text>
</a>
</g>
</g>
<!-- CLAS&#45;CL_NUMBERRANGE_RUNTIME&#45;&gt;DTEL&#45;NRQUAN -->
<g id="edge5" class="edge">
<title>CLAS&#45;CL_NUMBERRANGE_RUNTIME&#45;&gt;DTEL&#45;NRQUAN</title>
<path fill="none" stroke="black" d="M678.69,-143.88C705.94,-134.09 740.28,-121.77 768.95,-111.47"/>
<polygon fill="black" stroke="black" points="770.21,-114.74 778.44,-108.07 767.84,-108.15 770.21,-114.74"/>
</g>
<!-- DTEL&#45;NROBJ -->
<g id="node14" class="node">
<title>DTEL&#45;NROBJ</title>
<g id="a_node14"><a xlink:href="./DTEL_NROBJ.html" xlink:title="DTEL&#45;NROBJ">
<polygon fill="none" stroke="yellow" points="1140.24,-108 1039.73,-108 1039.73,-72 1140.24,-72 1140.24,-108"/>
<text text-anchor="middle" x="1089.99" y="-85.8" font-family="Times,serif" font-size="14.00">DTEL&#45;NROBJ</text>
</a>
</g>
</g>
<!-- CLAS&#45;CL_NUMBERRANGE_RUNTIME&#45;&gt;DTEL&#45;NROBJ -->
<g id="edge4" class="edge">
<title>CLAS&#45;CL_NUMBERRANGE_RUNTIME&#45;&gt;DTEL&#45;NROBJ</title>
<path fill="none" stroke="black" d="M761.52,-148.67C837.41,-140.31 934.92,-127.55 1029.55,-108.14"/>
<polygon fill="black" stroke="black" points="1030.5,-111.52 1039.58,-106.06 1029.08,-104.67 1030.5,-111.52"/>
</g>
<!-- DTEL&#45;NRLEVEL -->
<g id="node16" class="node">
<title>DTEL&#45;NRLEVEL</title>
<g id="a_node16"><a xlink:href="./DTEL_NRLEVEL.html" xlink:title="DTEL&#45;NRLEVEL">
<polygon fill="none" stroke="yellow" points="1022.17,-108 901.8,-108 901.8,-72 1022.17,-72 1022.17,-108"/>
<text text-anchor="middle" x="961.99" y="-85.8" font-family="Times,serif" font-size="14.00">DTEL&#45;NRLEVEL</text>
</a>
</g>
</g>
<!-- CLAS&#45;CL_NUMBERRANGE_RUNTIME&#45;&gt;DTEL&#45;NRLEVEL -->
<g id="edge3" class="edge">
<title>CLAS&#45;CL_NUMBERRANGE_RUNTIME&#45;&gt;DTEL&#45;NRLEVEL</title>
<path fill="none" stroke="black" d="M720.01,-143.95C768.22,-134.49 829.05,-122.19 891.74,-108.24"/>
<polygon fill="black" stroke="black" points="892.82,-111.58 901.81,-105.98 891.29,-104.75 892.82,-111.58"/>
</g>
<!-- DTEL&#45;NRFROM -->
<g id="node17" class="node">
<title>DTEL&#45;NRFROM</title>
<g id="a_node17"><a xlink:href="./DTEL_NRFROM.html" xlink:title="DTEL&#45;NRFROM">
<polygon fill="none" stroke="yellow" points="1275.53,-108 1160.45,-108 1160.45,-72 1275.53,-72 1275.53,-108"/>
<text text-anchor="middle" x="1217.99" y="-85.8" font-family="Times,serif" font-size="14.00">DTEL&#45;NRFROM</text>
</a>
</g>
</g>
<!-- CLAS&#45;CL_NUMBERRANGE_RUNTIME&#45;&gt;DTEL&#45;NRFROM -->
<g id="edge2" class="edge">
<title>CLAS&#45;CL_NUMBERRANGE_RUNTIME&#45;&gt;DTEL&#45;NRFROM</title>
<path fill="none" stroke="black" d="M761.26,-152.73C866.43,-144.84 1017.94,-130.73 1148.99,-108 1149.33,-107.94 1149.67,-107.88 1150.01,-107.82"/>
<polygon fill="black" stroke="black" points="1150.97,-111.2 1160.13,-105.88 1149.65,-104.33 1150.97,-111.2"/>
</g>
<!-- DTEL&#45;CHAR1 -->
<g id="node19" class="node">
<title>DTEL&#45;CHAR1</title>
<g id="a_node19"><a xlink:href="./DTEL_CHAR1.html" xlink:title="DTEL&#45;CHAR1">
<polygon fill="none" stroke="yellow" points="750.3,-108 647.67,-108 647.67,-72 750.3,-72 750.3,-108"/>
<text text-anchor="middle" x="698.99" y="-85.8" font-family="Times,serif" font-size="14.00">DTEL&#45;CHAR1</text>
</a>
</g>
</g>
<!-- CLAS&#45;CL_NUMBERRANGE_RUNTIME&#45;&gt;DTEL&#45;CHAR1 -->
<g id="edge1" class="edge">
<title>CLAS&#45;CL_NUMBERRANGE_RUNTIME&#45;&gt;DTEL&#45;CHAR1</title>
<path fill="none" stroke="black" d="M647.8,-143.7C656.11,-135.14 666.29,-124.66 675.38,-115.3"/>
<polygon fill="black" stroke="black" points="677.91,-117.72 682.37,-108.1 672.89,-112.84 677.91,-117.72"/>
</g>
<!-- DOMA&#45;FLAG -->
<g id="node3" class="node">
<title>DOMA&#45;FLAG</title>
<g id="a_node3"><a xlink:href="./DOMA_FLAG.html" xlink:title="DOMA&#45;FLAG">
<polygon fill="none" stroke="yellow" points="99.96,-36 0.01,-36 0.01,0 99.96,0 99.96,-36"/>
<text text-anchor="middle" x="49.99" y="-13.8" font-family="Times,serif" font-size="14.00">DOMA&#45;FLAG</text>
</a>
</g>
</g>
<!-- DTEL&#45;FLAG&#45;&gt;DOMA&#45;FLAG -->
<g id="edge11" class="edge">
<title>DTEL&#45;FLAG&#45;&gt;DOMA&#45;FLAG</title>
<path fill="none" stroke="black" d="M54.5,-71.7C53.84,-63.98 53.05,-54.71 52.31,-46.11"/>
<polygon fill="black" stroke="black" points="55.79,-45.77 51.45,-36.1 48.82,-46.37 55.79,-45.77"/>
</g>
<!-- DOMA&#45;CHAR2 -->
<g id="node5" class="node">
<title>DOMA&#45;CHAR2</title>
<g id="a_node5"><a xlink:href="./DOMA_CHAR2.html" xlink:title="DOMA&#45;CHAR2">
<polygon fill="none" stroke="yellow" points="227.8,-36 118.17,-36 118.17,0 227.8,0 227.8,-36"/>
<text text-anchor="middle" x="172.99" y="-13.8" font-family="Times,serif" font-size="14.00">DOMA&#45;CHAR2</text>
</a>
</g>
</g>
<!-- DTEL&#45;NRNR&#45;&gt;DOMA&#45;CHAR2 -->
<g id="edge12" class="edge">
<title>DTEL&#45;NRNR&#45;&gt;DOMA&#45;CHAR2</title>
<path fill="none" stroke="black" d="M172.99,-71.7C172.99,-63.98 172.99,-54.71 172.99,-46.11"/>
<polygon fill="black" stroke="black" points="176.49,-46.1 172.99,-36.1 169.49,-46.1 176.49,-46.1"/>
</g>
<!-- DOMA&#45;GJAHR -->
<g id="node7" class="node">
<title>DOMA&#45;GJAHR</title>
<g id="a_node7"><a xlink:href="./DOMA_GJAHR.html" xlink:title="DOMA&#45;GJAHR">
<polygon fill="none" stroke="yellow" points="354.01,-36 245.96,-36 245.96,0 354.01,0 354.01,-36"/>
<text text-anchor="middle" x="299.99" y="-13.8" font-family="Times,serif" font-size="14.00">DOMA&#45;GJAHR</text>
</a>
</g>
</g>
<!-- DTEL&#45;NRYEAR&#45;&gt;DOMA&#45;GJAHR -->
<g id="edge13" class="edge">
<title>DTEL&#45;NRYEAR&#45;&gt;DOMA&#45;GJAHR</title>
<path fill="none" stroke="black" d="M297.73,-71.7C298.06,-63.98 298.46,-54.71 298.82,-46.11"/>
<polygon fill="black" stroke="black" points="302.32,-46.25 299.25,-36.1 295.33,-45.95 302.32,-46.25"/>
</g>
<!-- DOMA&#45;CHAR6 -->
<g id="node9" class="node">
<title>DOMA&#45;CHAR6</title>
<g id="a_node9"><a xlink:href="./DOMA_CHAR6.html" xlink:title="DOMA&#45;CHAR6">
<polygon fill="none" stroke="yellow" points="481.8,-36 372.17,-36 372.17,0 481.8,0 481.8,-36"/>
<text text-anchor="middle" x="426.99" y="-13.8" font-family="Times,serif" font-size="14.00">DOMA&#45;CHAR6</text>
</a>
</g>
</g>
<!-- DTEL&#45;NRSOBJ&#45;&gt;DOMA&#45;CHAR6 -->
<g id="edge14" class="edge">
<title>DTEL&#45;NRSOBJ&#45;&gt;DOMA&#45;CHAR6</title>
<path fill="none" stroke="black" d="M426.23,-71.7C426.34,-63.98 426.48,-54.71 426.6,-46.11"/>
<polygon fill="black" stroke="black" points="430.1,-46.15 426.74,-36.1 423.1,-46.05 430.1,-46.15"/>
</g>
<!-- DOMA&#45;CHAR1 -->
<g id="node11" class="node">
<title>DOMA&#45;CHAR1</title>
<g id="a_node11"><a xlink:href="./DOMA_CHAR1.html" xlink:title="DOMA&#45;CHAR1">
<polygon fill="none" stroke="green" points="718.8,-36 609.17,-36 609.17,0 718.8,0 718.8,-36"/>
<text text-anchor="middle" x="663.99" y="-13.8" font-family="Times,serif" font-size="14.00">DOMA&#45;CHAR1</text>
</a>
</g>
</g>
<!-- DTEL&#45;NRRETURN&#45;&gt;DOMA&#45;CHAR1 -->
<g id="edge15" class="edge">
<title>DTEL&#45;NRRETURN&#45;&gt;DOMA&#45;CHAR1</title>
<path fill="none" stroke="black" d="M588.45,-71.88C601.28,-62.89 617.18,-51.76 631.08,-42.03"/>
<polygon fill="black" stroke="black" points="633.24,-44.79 639.43,-36.19 629.23,-39.06 633.24,-44.79"/>
</g>
<!-- DOMA&#45;NUMC20 -->
<g id="node13" class="node">
<title>DOMA&#45;NUMC20</title>
<g id="a_node13"><a xlink:href="./DOMA_NUMC20.html" xlink:title="DOMA&#45;NUMC20">
<polygon fill="none" stroke="yellow" points="920.91,-36 801.07,-36 801.07,0 920.91,0 920.91,-36"/>
<text text-anchor="middle" x="860.99" y="-13.8" font-family="Times,serif" font-size="14.00">DOMA&#45;NUMC20</text>
</a>
</g>
</g>
<!-- DTEL&#45;NRQUAN&#45;&gt;DOMA&#45;NUMC20 -->
<g id="edge16" class="edge">
<title>DTEL&#45;NRQUAN&#45;&gt;DOMA&#45;NUMC20</title>
<path fill="none" stroke="black" d="M834.64,-71.7C838.62,-63.73 843.44,-54.1 847.85,-45.26"/>
<polygon fill="black" stroke="black" points="851.09,-46.61 852.43,-36.1 844.83,-43.48 851.09,-46.61"/>
</g>
<!-- DOMA&#45;NROBJ -->
<g id="node15" class="node">
<title>DOMA&#45;NROBJ</title>
<g id="a_node15"><a xlink:href="./DOMA_NROBJ.html" xlink:title="DOMA&#45;NROBJ">
<polygon fill="none" stroke="yellow" points="1142.74,-36 1035.23,-36 1035.23,0 1142.74,0 1142.74,-36"/>
<text text-anchor="middle" x="1088.99" y="-13.8" font-family="Times,serif" font-size="14.00">DOMA&#45;NROBJ</text>
</a>
</g>
</g>
<!-- DTEL&#45;NROBJ&#45;&gt;DOMA&#45;NROBJ -->
<g id="edge17" class="edge">
<title>DTEL&#45;NROBJ&#45;&gt;DOMA&#45;NROBJ</title>
<path fill="none" stroke="black" d="M1089.74,-71.7C1089.63,-63.98 1089.5,-54.71 1089.37,-46.11"/>
<polygon fill="black" stroke="black" points="1092.87,-46.05 1089.23,-36.1 1085.87,-46.15 1092.87,-46.05"/>
</g>
<!-- DTEL&#45;NRLEVEL&#45;&gt;DOMA&#45;NUMC20 -->
<g id="edge18" class="edge">
<title>DTEL&#45;NRLEVEL&#45;&gt;DOMA&#45;NUMC20</title>
<path fill="none" stroke="black" d="M937.28,-71.88C924.32,-62.89 908.26,-51.76 894.22,-42.03"/>
<polygon fill="black" stroke="black" points="896,-39.01 885.79,-36.19 892.01,-44.76 896,-39.01"/>
</g>
<!-- DOMA&#45;CHAR20 -->
<g id="node18" class="node">
<title>DOMA&#45;CHAR20</title>
<g id="a_node18"><a xlink:href="./DOMA_CHAR20.html" xlink:title="DOMA&#45;CHAR20">
<polygon fill="none" stroke="yellow" points="1277.3,-36 1160.67,-36 1160.67,0 1277.3,0 1277.3,-36"/>
<text text-anchor="middle" x="1218.99" y="-13.8" font-family="Times,serif" font-size="14.00">DOMA&#45;CHAR20</text>
</a>
</g>
</g>
<!-- DTEL&#45;NRFROM&#45;&gt;DOMA&#45;CHAR20 -->
<g id="edge19" class="edge">
<title>DTEL&#45;NRFROM&#45;&gt;DOMA&#45;CHAR20</title>
<path fill="none" stroke="black" d="M1218.23,-71.7C1218.34,-63.98 1218.48,-54.71 1218.6,-46.11"/>
<polygon fill="black" stroke="black" points="1222.1,-46.15 1218.74,-36.1 1215.1,-46.05 1222.1,-46.15"/>
</g>
<!-- DTEL&#45;CHAR1&#45;&gt;DOMA&#45;CHAR1 -->
<g id="edge20" class="edge">
<title>DTEL&#45;CHAR1&#45;&gt;DOMA&#45;CHAR1</title>
<path fill="none" stroke="black" d="M690.34,-71.7C686.35,-63.73 681.54,-54.1 677.12,-45.26"/>
<polygon fill="black" stroke="black" points="680.14,-43.48 672.54,-36.1 673.88,-46.61 680.14,-43.48"/>
</g>
</g>
</svg>
