<?xml version="1.0" encoding="UTF-8" standalone="no"?>
<!DOCTYPE svg PUBLIC "-//W3C//DTD SVG 1.1//EN"
 "http://www.w3.org/Graphics/SVG/1.1/DTD/svg11.dtd">
<!-- Generated by graphviz version 2.47.3 (20210619.1520)
 -->
<!-- Title: G Pages: 1 -->
<svg width="946pt" height="476pt"
 viewBox="0.00 0.00 946.00 476.00" xmlns="http://www.w3.org/2000/svg" xmlns:xlink="http://www.w3.org/1999/xlink">
<g id="graph0" class="graph" transform="scale(1 1) rotate(0) translate(4 472)">
<title>G</title>
<polygon fill="white" stroke="transparent" points="-4,4 -4,-472 942,-472 942,4 -4,4"/>
<!-- CLAS&#45;CL_XCO_CDS_CARDINALITY -->
<g id="node1" class="node">
<title>CLAS&#45;CL_XCO_CDS_CARDINALITY</title>
<g id="a_node1"><a xlink:href="./CLAS_CL_XCO_CDS_CARDINALITY.html" xlink:title="CLAS&#45;CL_XCO_CDS_CARDINALITY">
<polygon fill="none" stroke="green" points="695.74,-468 448.26,-468 448.26,-432 695.74,-432 695.74,-468"/>
<text text-anchor="middle" x="572" y="-445.8" font-family="Times,serif" font-size="14.00">CLAS&#45;CL_XCO_CDS_CARDINALITY</text>
</a>
</g>
</g>
<!-- INTF&#45;IF_XCO_GEN_CDS_CARDINALITY -->
<g id="node2" class="node">
<title>INTF&#45;IF_XCO_GEN_CDS_CARDINALITY</title>
<g id="a_node2"><a xlink:href="./INTF_IF_XCO_GEN_CDS_CARDINALITY.html" xlink:title="INTF&#45;IF_XCO_GEN_CDS_CARDINALITY">
<polygon fill="none" stroke="green" points="310.88,-108 37.12,-108 37.12,-72 310.88,-72 310.88,-108"/>
<text text-anchor="middle" x="174" y="-85.8" font-family="Times,serif" font-size="14.00">INTF&#45;IF_XCO_GEN_CDS_CARDINALITY</text>
</a>
</g>
</g>
<!-- CLAS&#45;CL_XCO_CDS_CARDINALITY&#45;&gt;INTF&#45;IF_XCO_GEN_CDS_CARDINALITY -->
<g id="edge6" class="edge">
<title>CLAS&#45;CL_XCO_CDS_CARDINALITY&#45;&gt;INTF&#45;IF_XCO_GEN_CDS_CARDINALITY</title>
<path fill="none" stroke="black" d="M448.13,-442.97C279.89,-431.25 0,-397.98 0,-307 0,-307 0,-307 0,-233 0,-174.06 61.23,-134.24 111.13,-112.11"/>
<polygon fill="black" stroke="black" points="112.8,-115.2 120.61,-108.05 110.04,-108.76 112.8,-115.2"/>
</g>
<!-- CLAS&#45;CL_XCO_CDS_CARDINALITY&#45;&gt;INTF&#45;IF_XCO_GEN_CDS_CARDINALITY -->
<g id="edge14" class="edge">
<title>CLAS&#45;CL_XCO_CDS_CARDINALITY&#45;&gt;INTF&#45;IF_XCO_GEN_CDS_CARDINALITY</title>
<path fill="none" stroke="black" d="M448.19,-442.11C284.86,-429.66 18,-395.83 18,-307 18,-307 18,-307 18,-233 18,-174.31 78.72,-134.57 124.48,-112.38"/>
<polygon fill="black" stroke="black" points="126.14,-115.47 133.71,-108.05 123.17,-109.14 126.14,-115.47"/>
</g>
<!-- CLAS&#45;CL_XCO_CDS_CARDINALITY_CN -->
<g id="node4" class="node">
<title>CLAS&#45;CL_XCO_CDS_CARDINALITY_CN</title>
<g id="a_node4"><a xlink:href="./CLAS_CL_XCO_CDS_CARDINALITY_CN.html" xlink:title="CLAS&#45;CL_XCO_CDS_CARDINALITY_CN">
<polygon fill="none" stroke="green" points="526.18,-396 251.82,-396 251.82,-360 526.18,-360 526.18,-396"/>
<text text-anchor="middle" x="389" y="-373.8" font-family="Times,serif" font-size="14.00">CLAS&#45;CL_XCO_CDS_CARDINALITY_CN</text>
</a>
</g>
</g>
<!-- CLAS&#45;CL_XCO_CDS_CARDINALITY&#45;&gt;CLAS&#45;CL_XCO_CDS_CARDINALITY_CN -->
<g id="edge5" class="edge">
<title>CLAS&#45;CL_XCO_CDS_CARDINALITY&#45;&gt;CLAS&#45;CL_XCO_CDS_CARDINALITY_CN</title>
<path fill="none" stroke="black" d="M515.69,-431.97C488.42,-422.31 456.41,-410.16 431.23,-399.93"/>
<polygon fill="black" stroke="black" points="432.52,-396.67 421.94,-396.11 429.86,-403.15 432.52,-396.67"/>
</g>
<!-- CLAS&#45;CL_XCO_CDS_CARDINALITY&#45;&gt;CLAS&#45;CL_XCO_CDS_CARDINALITY_CN -->
<g id="edge13" class="edge">
<title>CLAS&#45;CL_XCO_CDS_CARDINALITY&#45;&gt;CLAS&#45;CL_XCO_CDS_CARDINALITY_CN</title>
<path fill="none" stroke="black" d="M527.23,-431.88C501.88,-422.18 469.99,-409.98 443.23,-399.74"/>
<polygon fill="black" stroke="black" points="444.21,-396.37 433.62,-396.07 441.71,-402.91 444.21,-396.37"/>
</g>
<!-- CLAS&#45;CL_XCO_CDS_CARDINALITY_F -->
<g id="node6" class="node">
<title>CLAS&#45;CL_XCO_CDS_CARDINALITY_F</title>
<g id="a_node6"><a xlink:href="./CLAS_CL_XCO_CDS_CARDINALITY_F.html" xlink:title="CLAS&#45;CL_XCO_CDS_CARDINALITY_F">
<polygon fill="none" stroke="green" points="628.02,-324 365.98,-324 365.98,-288 628.02,-288 628.02,-324"/>
<text text-anchor="middle" x="497" y="-301.8" font-family="Times,serif" font-size="14.00">CLAS&#45;CL_XCO_CDS_CARDINALITY_F</text>
</a>
</g>
</g>
<!-- CLAS&#45;CL_XCO_CDS_CARDINALITY&#45;&gt;CLAS&#45;CL_XCO_CDS_CARDINALITY_F -->
<g id="edge1" class="edge">
<title>CLAS&#45;CL_XCO_CDS_CARDINALITY&#45;&gt;CLAS&#45;CL_XCO_CDS_CARDINALITY_F</title>
<path fill="none" stroke="black" d="M552.8,-431.73C541.64,-413.4 530.27,-383.83 517,-360 511.82,-350.7 505.32,-341.09 500.06,-332.64"/>
<polygon fill="black" stroke="black" points="503.06,-330.83 494.96,-324 497.04,-334.39 503.06,-330.83"/>
</g>
<!-- CLAS&#45;CL_XCO_CDS_CARDINALITY&#45;&gt;CLAS&#45;CL_XCO_CDS_CARDINALITY_F -->
<g id="edge9" class="edge">
<title>CLAS&#45;CL_XCO_CDS_CARDINALITY&#45;&gt;CLAS&#45;CL_XCO_CDS_CARDINALITY_F</title>
<path fill="none" stroke="black" d="M566.15,-431.73C559.64,-413.4 548.27,-383.83 535,-360 529.71,-350.5 523.05,-340.68 516.78,-332.1"/>
<polygon fill="black" stroke="black" points="519.51,-329.91 510.71,-324 513.91,-334.1 519.51,-329.91"/>
</g>
<!-- CLAS&#45;CL_XCO_CDS_CARDINALITY_N -->
<g id="node7" class="node">
<title>CLAS&#45;CL_XCO_CDS_CARDINALITY_N</title>
<g id="a_node7"><a xlink:href="./CLAS_CL_XCO_CDS_CARDINALITY_N.html" xlink:title="CLAS&#45;CL_XCO_CDS_CARDINALITY_N">
<polygon fill="none" stroke="green" points="310.34,-252 45.66,-252 45.66,-216 310.34,-216 310.34,-252"/>
<text text-anchor="middle" x="178" y="-229.8" font-family="Times,serif" font-size="14.00">CLAS&#45;CL_XCO_CDS_CARDINALITY_N</text>
</a>
</g>
</g>
<!-- CLAS&#45;CL_XCO_CDS_CARDINALITY&#45;&gt;CLAS&#45;CL_XCO_CDS_CARDINALITY_N -->
<g id="edge4" class="edge">
<title>CLAS&#45;CL_XCO_CDS_CARDINALITY&#45;&gt;CLAS&#45;CL_XCO_CDS_CARDINALITY_N</title>
<path fill="none" stroke="black" d="M448.22,-442.85C362.49,-436.15 258.35,-422.61 225,-396 183.47,-362.86 168.31,-299.03 168.78,-262.48"/>
<polygon fill="black" stroke="black" points="172.3,-262.27 169.41,-252.08 165.31,-261.85 172.3,-262.27"/>
</g>
<!-- CLAS&#45;CL_XCO_CDS_CARDINALITY&#45;&gt;CLAS&#45;CL_XCO_CDS_CARDINALITY_N -->
<g id="edge12" class="edge">
<title>CLAS&#45;CL_XCO_CDS_CARDINALITY&#45;&gt;CLAS&#45;CL_XCO_CDS_CARDINALITY_N</title>
<path fill="none" stroke="black" d="M447.92,-441.58C368.39,-434.5 274.37,-421.03 243,-396 201.29,-362.72 186.18,-298.48 180.83,-262.01"/>
<polygon fill="black" stroke="black" points="184.3,-261.53 179.52,-252.08 177.36,-262.45 184.3,-261.53"/>
</g>
<!-- CLAS&#45;CL_XCO_CDS_CARDINALITY_1 -->
<g id="node8" class="node">
<title>CLAS&#45;CL_XCO_CDS_CARDINALITY_1</title>
<g id="a_node8"><a xlink:href="./CLAS_CL_XCO_CDS_CARDINALITY_1.html" xlink:title="CLAS&#45;CL_XCO_CDS_CARDINALITY_1">
<polygon fill="none" stroke="green" points="627.74,-252 366.26,-252 366.26,-216 627.74,-216 627.74,-252"/>
<text text-anchor="middle" x="497" y="-229.8" font-family="Times,serif" font-size="14.00">CLAS&#45;CL_XCO_CDS_CARDINALITY_1</text>
</a>
</g>
</g>
<!-- CLAS&#45;CL_XCO_CDS_CARDINALITY&#45;&gt;CLAS&#45;CL_XCO_CDS_CARDINALITY_1 -->
<g id="edge2" class="edge">
<title>CLAS&#45;CL_XCO_CDS_CARDINALITY&#45;&gt;CLAS&#45;CL_XCO_CDS_CARDINALITY_1</title>
<path fill="none" stroke="black" d="M578.58,-431.81C599.98,-400.98 651.55,-335.12 619,-288 609.46,-274.19 595.82,-263.97 581.05,-256.41"/>
<polygon fill="black" stroke="black" points="582.27,-253.12 571.73,-252.05 579.3,-259.46 582.27,-253.12"/>
</g>
<!-- CLAS&#45;CL_XCO_CDS_CARDINALITY&#45;&gt;CLAS&#45;CL_XCO_CDS_CARDINALITY_1 -->
<g id="edge10" class="edge">
<title>CLAS&#45;CL_XCO_CDS_CARDINALITY&#45;&gt;CLAS&#45;CL_XCO_CDS_CARDINALITY_1</title>
<path fill="none" stroke="black" d="M589.22,-431.81C617.98,-400.98 669.55,-335.12 637,-288 627.37,-274.06 613.56,-263.78 598.33,-256.2"/>
<polygon fill="black" stroke="black" points="599.77,-253.01 589.22,-252.05 596.87,-259.38 599.77,-253.01"/>
</g>
<!-- CLAS&#45;CL_XCO_CDS_CARDINALITY_C -->
<g id="node9" class="node">
<title>CLAS&#45;CL_XCO_CDS_CARDINALITY_C</title>
<g id="a_node9"><a xlink:href="./CLAS_CL_XCO_CDS_CARDINALITY_C.html" xlink:title="CLAS&#45;CL_XCO_CDS_CARDINALITY_C">
<polygon fill="none" stroke="green" points="910.07,-252 645.93,-252 645.93,-216 910.07,-216 910.07,-252"/>
<text text-anchor="middle" x="778" y="-229.8" font-family="Times,serif" font-size="14.00">CLAS&#45;CL_XCO_CDS_CARDINALITY_C</text>
</a>
</g>
</g>
<!-- CLAS&#45;CL_XCO_CDS_CARDINALITY&#45;&gt;CLAS&#45;CL_XCO_CDS_CARDINALITY_C -->
<g id="edge3" class="edge">
<title>CLAS&#45;CL_XCO_CDS_CARDINALITY&#45;&gt;CLAS&#45;CL_XCO_CDS_CARDINALITY_C</title>
<path fill="none" stroke="black" d="M591.8,-431.87C607.19,-422.68 627.33,-410.3 643,-396 687.94,-354.99 726.41,-294.23 751.91,-260.29"/>
<polygon fill="black" stroke="black" points="754.76,-262.32 758.11,-252.26 749.22,-258.04 754.76,-262.32"/>
</g>
<!-- CLAS&#45;CL_XCO_CDS_CARDINALITY&#45;&gt;CLAS&#45;CL_XCO_CDS_CARDINALITY_C -->
<g id="edge11" class="edge">
<title>CLAS&#45;CL_XCO_CDS_CARDINALITY&#45;&gt;CLAS&#45;CL_XCO_CDS_CARDINALITY_C</title>
<path fill="none" stroke="black" d="M608.04,-431.87C625.19,-422.68 645.33,-410.3 661,-396 705.56,-355.34 743.76,-295.26 763.55,-261.15"/>
<polygon fill="black" stroke="black" points="766.7,-262.68 768.63,-252.26 760.63,-259.21 766.7,-262.68"/>
</g>
<!-- CLAS&#45;CL_XCO_GEN_CDS_BP_CARDINALITY -->
<g id="node3" class="node">
<title>CLAS&#45;CL_XCO_GEN_CDS_BP_CARDINALITY</title>
<g id="a_node3"><a xlink:href="./CLAS_CL_XCO_GEN_CDS_BP_CARDINALITY.html" xlink:title="CLAS&#45;CL_XCO_GEN_CDS_BP_CARDINALITY">
<polygon fill="none" stroke="green" points="709.62,-36 402.38,-36 402.38,0 709.62,0 709.62,-36"/>
<text text-anchor="middle" x="556" y="-13.8" font-family="Times,serif" font-size="14.00">CLAS&#45;CL_XCO_GEN_CDS_BP_CARDINALITY</text>
</a>
</g>
</g>
<!-- INTF&#45;IF_XCO_GEN_CDS_CARDINALITY&#45;&gt;CLAS&#45;CL_XCO_GEN_CDS_BP_CARDINALITY -->
<g id="edge7" class="edge">
<title>INTF&#45;IF_XCO_GEN_CDS_CARDINALITY&#45;&gt;CLAS&#45;CL_XCO_GEN_CDS_BP_CARDINALITY</title>
<path fill="none" stroke="black" d="M266.96,-71.97C323.22,-61.66 395.06,-48.49 453.04,-37.87"/>
<polygon fill="black" stroke="black" points="453.75,-41.3 462.96,-36.05 452.49,-34.41 453.75,-41.3"/>
</g>
<!-- CLAS&#45;CL_XCO_GEN_CDS_BP_CARDINALITY&#45;&gt;CLAS&#45;CL_XCO_CDS_CARDINALITY -->
<g id="edge8" class="edge">
<title>CLAS&#45;CL_XCO_GEN_CDS_BP_CARDINALITY&#45;&gt;CLAS&#45;CL_XCO_CDS_CARDINALITY</title>
<path fill="none" stroke="black" d="M656.87,-36.04C770.04,-58.1 938,-100.95 938,-161 938,-307 938,-307 938,-307 938,-363.67 783.54,-406.64 675.3,-429.79"/>
<polygon fill="black" stroke="black" points="674.37,-426.41 665.3,-431.9 675.81,-433.26 674.37,-426.41"/>
</g>
<!-- CLAS&#45;CL_XCO_CDS_CARDINALITY_CN&#45;&gt;CLAS&#45;CL_XCO_CDS_CARDINALITY -->
<g id="edge15" class="edge">
<title>CLAS&#45;CL_XCO_CDS_CARDINALITY_CN&#45;&gt;CLAS&#45;CL_XCO_CDS_CARDINALITY</title>
<path fill="none" stroke="black" d="M445.4,-396.07C472.65,-405.71 504.6,-417.85 529.75,-428.06"/>
<polygon fill="black" stroke="black" points="528.45,-431.31 539.03,-431.88 531.11,-424.84 528.45,-431.31"/>
</g>
<!-- INTF&#45;IF_XCO_GEN_BDEF_RSLT_CARDNALTY -->
<g id="node5" class="node">
<title>INTF&#45;IF_XCO_GEN_BDEF_RSLT_CARDNALTY</title>
<g id="a_node5"><a xlink:href="./INTF_IF_XCO_GEN_BDEF_RSLT_CARDNALTY.html" xlink:title="INTF&#45;IF_XCO_GEN_BDEF_RSLT_CARDNALTY">
<polygon fill="none" stroke="green" points="494.84,-180 181.16,-180 181.16,-144 494.84,-144 494.84,-180"/>
<text text-anchor="middle" x="338" y="-157.8" font-family="Times,serif" font-size="14.00">INTF&#45;IF_XCO_GEN_BDEF_RSLT_CARDNALTY</text>
</a>
</g>
</g>
<!-- CLAS&#45;CL_XCO_CDS_CARDINALITY_CN&#45;&gt;INTF&#45;IF_XCO_GEN_BDEF_RSLT_CARDNALTY -->
<g id="edge17" class="edge">
<title>CLAS&#45;CL_XCO_CDS_CARDINALITY_CN&#45;&gt;INTF&#45;IF_XCO_GEN_BDEF_RSLT_CARDNALTY</title>
<path fill="none" stroke="black" d="M376.02,-359.79C369.21,-349.85 361.39,-336.81 357,-324 341.58,-279.03 338.24,-223.32 337.75,-190.61"/>
<polygon fill="black" stroke="black" points="341.25,-190.42 337.68,-180.45 334.25,-190.47 341.25,-190.42"/>
</g>
<!-- CLAS&#45;CL_XCO_CDS_CARDINALITY_CN&#45;&gt;CLAS&#45;CL_XCO_CDS_CARDINALITY_F -->
<g id="edge16" class="edge">
<title>CLAS&#45;CL_XCO_CDS_CARDINALITY_CN&#45;&gt;CLAS&#45;CL_XCO_CDS_CARDINALITY_F</title>
<path fill="none" stroke="black" d="M409.52,-359.88C422.69,-350.72 440.1,-339.34 455.96,-329.48"/>
<polygon fill="black" stroke="black" points="457.89,-332.41 464.57,-324.19 454.22,-326.44 457.89,-332.41"/>
</g>
<!-- INTF&#45;IF_XCO_GEN_BDEF_RSLT_CARDNALTY&#45;&gt;INTF&#45;IF_XCO_GEN_CDS_CARDINALITY -->
<g id="edge18" class="edge">
<title>INTF&#45;IF_XCO_GEN_BDEF_RSLT_CARDNALTY&#45;&gt;INTF&#45;IF_XCO_GEN_CDS_CARDINALITY</title>
<path fill="none" stroke="black" d="M297.88,-143.88C275.36,-134.26 247.08,-122.19 223.23,-112.01"/>
<polygon fill="black" stroke="black" points="224.56,-108.77 213.99,-108.07 221.81,-115.21 224.56,-108.77"/>
</g>
<!-- CLAS&#45;CL_XCO_CDS_CARDINALITY_F&#45;&gt;CLAS&#45;CL_XCO_CDS_CARDINALITY -->
<g id="edge23" class="edge">
<title>CLAS&#45;CL_XCO_CDS_CARDINALITY_F&#45;&gt;CLAS&#45;CL_XCO_CDS_CARDINALITY</title>
<path fill="none" stroke="black" d="M526.46,-324C536.45,-334.09 545.95,-347.34 553,-360 564.04,-379.83 573.77,-403.63 577.8,-421.62"/>
<polygon fill="black" stroke="black" points="574.39,-422.46 579.51,-431.73 581.29,-421.29 574.39,-422.46"/>
</g>
<!-- CLAS&#45;CL_XCO_CDS_CARDINALITY_F&#45;&gt;CLAS&#45;CL_XCO_CDS_CARDINALITY_CN -->
<g id="edge21" class="edge">
<title>CLAS&#45;CL_XCO_CDS_CARDINALITY_F&#45;&gt;CLAS&#45;CL_XCO_CDS_CARDINALITY_CN</title>
<path fill="none" stroke="black" d="M476.38,-324.19C463.2,-333.35 445.78,-344.74 429.93,-354.59"/>
<polygon fill="black" stroke="black" points="428.01,-351.66 421.32,-359.88 431.67,-357.62 428.01,-351.66"/>
</g>
<!-- CLAS&#45;CL_XCO_CDS_CARDINALITY_F&#45;&gt;CLAS&#45;CL_XCO_CDS_CARDINALITY_N -->
<g id="edge22" class="edge">
<title>CLAS&#45;CL_XCO_CDS_CARDINALITY_F&#45;&gt;CLAS&#45;CL_XCO_CDS_CARDINALITY_N</title>
<path fill="none" stroke="black" d="M413.48,-287.97C366.01,-277.78 306.85,-264.82 259.68,-254.26"/>
<polygon fill="black" stroke="black" points="260.33,-250.82 249.81,-252.05 258.8,-257.65 260.33,-250.82"/>
</g>
<!-- CLAS&#45;CL_XCO_CDS_CARDINALITY_F&#45;&gt;CLAS&#45;CL_XCO_CDS_CARDINALITY_1 -->
<g id="edge20" class="edge">
<title>CLAS&#45;CL_XCO_CDS_CARDINALITY_F&#45;&gt;CLAS&#45;CL_XCO_CDS_CARDINALITY_1</title>
<path fill="none" stroke="black" d="M491.08,-287.7C490.29,-279.98 490.06,-270.71 490.4,-262.11"/>
<polygon fill="black" stroke="black" points="493.9,-262.32 491.1,-252.1 486.92,-261.84 493.9,-262.32"/>
</g>
<!-- CLAS&#45;CL_XCO_CDS_CARDINALITY_F&#45;&gt;CLAS&#45;CL_XCO_CDS_CARDINALITY_C -->
<g id="edge19" class="edge">
<title>CLAS&#45;CL_XCO_CDS_CARDINALITY_F&#45;&gt;CLAS&#45;CL_XCO_CDS_CARDINALITY_C</title>
<path fill="none" stroke="black" d="M559.49,-287.97C599.04,-277.85 650.62,-264.98 693.75,-254.46"/>
<polygon fill="black" stroke="black" points="694.78,-257.82 703.67,-252.05 693.12,-251.01 694.78,-257.82"/>
</g>
<!-- CLAS&#45;CL_XCO_CDS_CARDINALITY_N&#45;&gt;CLAS&#45;CL_XCO_CDS_CARDINALITY -->
<g id="edge24" class="edge">
<title>CLAS&#45;CL_XCO_CDS_CARDINALITY_N&#45;&gt;CLAS&#45;CL_XCO_CDS_CARDINALITY</title>
<path fill="none" stroke="black" d="M189.62,-252.08C201.46,-285.5 215.17,-359.44 261,-396 289.02,-418.36 367.01,-431.49 437.98,-439.09"/>
<polygon fill="black" stroke="black" points="437.63,-442.57 447.94,-440.12 438.35,-435.61 437.63,-442.57"/>
</g>
<!-- CLAS&#45;CL_XCO_CDS_CARDINALITY_N&#45;&gt;INTF&#45;IF_XCO_GEN_BDEF_RSLT_CARDNALTY -->
<g id="edge26" class="edge">
<title>CLAS&#45;CL_XCO_CDS_CARDINALITY_N&#45;&gt;INTF&#45;IF_XCO_GEN_BDEF_RSLT_CARDNALTY</title>
<path fill="none" stroke="black" d="M217.14,-215.88C239.01,-206.31 266.46,-194.3 289.66,-184.15"/>
<polygon fill="black" stroke="black" points="291.23,-187.28 298.99,-180.07 288.42,-180.87 291.23,-187.28"/>
</g>
<!-- CLAS&#45;CL_XCO_CDS_CARDINALITY_N&#45;&gt;CLAS&#45;CL_XCO_CDS_CARDINALITY_F -->
<g id="edge25" class="edge">
<title>CLAS&#45;CL_XCO_CDS_CARDINALITY_N&#45;&gt;CLAS&#45;CL_XCO_CDS_CARDINALITY_F</title>
<path fill="none" stroke="black" d="M261.59,-252.05C309.08,-262.24 368.23,-275.2 415.39,-285.75"/>
<polygon fill="black" stroke="black" points="414.74,-289.19 425.26,-287.97 416.27,-282.36 414.74,-289.19"/>
</g>
<!-- CLAS&#45;CL_XCO_CDS_CARDINALITY_1&#45;&gt;CLAS&#45;CL_XCO_CDS_CARDINALITY -->
<g id="edge27" class="edge">
<title>CLAS&#45;CL_XCO_CDS_CARDINALITY_1&#45;&gt;CLAS&#45;CL_XCO_CDS_CARDINALITY</title>
<path fill="none" stroke="black" d="M606.71,-252.05C625.98,-259.88 643.48,-271.32 655,-288 685.26,-331.81 642.81,-391.82 607.68,-424.81"/>
<polygon fill="black" stroke="black" points="604.97,-422.53 599.86,-431.81 609.65,-427.74 604.97,-422.53"/>
</g>
<!-- CLAS&#45;CL_XCO_CDS_CARDINALITY_1&#45;&gt;INTF&#45;IF_XCO_GEN_BDEF_RSLT_CARDNALTY -->
<g id="edge29" class="edge">
<title>CLAS&#45;CL_XCO_CDS_CARDINALITY_1&#45;&gt;INTF&#45;IF_XCO_GEN_BDEF_RSLT_CARDNALTY</title>
<path fill="none" stroke="black" d="M458.1,-215.88C436.37,-206.31 409.1,-194.3 386.04,-184.15"/>
<polygon fill="black" stroke="black" points="387.33,-180.89 376.77,-180.07 384.51,-187.3 387.33,-180.89"/>
</g>
<!-- CLAS&#45;CL_XCO_CDS_CARDINALITY_1&#45;&gt;CLAS&#45;CL_XCO_CDS_CARDINALITY_F -->
<g id="edge28" class="edge">
<title>CLAS&#45;CL_XCO_CDS_CARDINALITY_1&#45;&gt;CLAS&#45;CL_XCO_CDS_CARDINALITY_F</title>
<path fill="none" stroke="black" d="M502.9,-252.1C503.7,-259.79 503.94,-269.05 503.6,-277.67"/>
<polygon fill="black" stroke="black" points="500.11,-277.48 502.92,-287.7 507.09,-277.96 500.11,-277.48"/>
</g>
<!-- CLAS&#45;CL_XCO_CDS_CARDINALITY_C&#45;&gt;CLAS&#45;CL_XCO_CDS_CARDINALITY -->
<g id="edge30" class="edge">
<title>CLAS&#45;CL_XCO_CDS_CARDINALITY_C&#45;&gt;CLAS&#45;CL_XCO_CDS_CARDINALITY</title>
<path fill="none" stroke="black" d="M779.15,-252.26C768.88,-283.79 727.75,-351.51 679,-396 665.77,-408.07 649.37,-418.77 633.21,-427.34"/>
<polygon fill="black" stroke="black" points="631.61,-424.22 624.28,-431.87 634.78,-430.46 631.61,-424.22"/>
</g>
<!-- CLAS&#45;CL_XCO_CDS_CARDINALITY_C&#45;&gt;INTF&#45;IF_XCO_GEN_BDEF_RSLT_CARDNALTY -->
<g id="edge32" class="edge">
<title>CLAS&#45;CL_XCO_CDS_CARDINALITY_C&#45;&gt;INTF&#45;IF_XCO_GEN_BDEF_RSLT_CARDNALTY</title>
<path fill="none" stroke="black" d="M670.93,-215.97C605.72,-205.59 522.35,-192.33 455.36,-181.67"/>
<polygon fill="black" stroke="black" points="455.6,-178.16 445.17,-180.05 454.5,-185.08 455.6,-178.16"/>
</g>
<!-- CLAS&#45;CL_XCO_CDS_CARDINALITY_C&#45;&gt;CLAS&#45;CL_XCO_CDS_CARDINALITY_F -->
<g id="edge31" class="edge">
<title>CLAS&#45;CL_XCO_CDS_CARDINALITY_C&#45;&gt;CLAS&#45;CL_XCO_CDS_CARDINALITY_F</title>
<path fill="none" stroke="black" d="M715.21,-252.11C675.67,-262.22 624.21,-275.06 581.16,-285.56"/>
<polygon fill="black" stroke="black" points="580.16,-282.2 571.27,-287.97 581.81,-289 580.16,-282.2"/>
</g>
</g>
</svg>
