<?xml version="1.0" encoding="UTF-8" standalone="no"?>
<!DOCTYPE svg PUBLIC "-//W3C//DTD SVG 1.1//EN"
 "http://www.w3.org/Graphics/SVG/1.1/DTD/svg11.dtd">
<!-- Generated by graphviz version 2.47.3 (20210619.1520)
 -->
<!-- Title: G Pages: 1 -->
<svg width="355pt" height="188pt"
 viewBox="0.00 0.00 355.02 188.00" xmlns="http://www.w3.org/2000/svg" xmlns:xlink="http://www.w3.org/1999/xlink">
<g id="graph0" class="graph" transform="scale(1 1) rotate(0) translate(4 184)">
<title>G</title>
<polygon fill="white" stroke="transparent" points="-4,4 -4,-184 351.02,-184 351.02,4 -4,4"/>
<!-- CLAS&#45;CL_ABAP_PARALLEL -->
<g id="node1" class="node">
<title>CLAS&#45;CL_ABAP_PARALLEL</title>
<polygon fill="none" stroke="green" points="327.85,-180 130.44,-180 130.44,-144 327.85,-144 327.85,-180"/>
<text text-anchor="middle" x="229.14" y="-157.8" font-family="Times,serif" font-size="14.00">CLAS&#45;CL_ABAP_PARALLEL</text>
</g>
<!-- INTF&#45;IF_ABAP_PARALLEL -->
<g id="node2" class="node">
<title>INTF&#45;IF_ABAP_PARALLEL</title>
<g id="a_node2"><a xlink:href="./INTF_IF_ABAP_PARALLEL.html" xlink:title="INTF&#45;IF_ABAP_PARALLEL">
<polygon fill="none" stroke="green" points="200.73,-108 13.56,-108 13.56,-72 200.73,-72 200.73,-108"/>
<text text-anchor="middle" x="107.14" y="-85.8" font-family="Times,serif" font-size="14.00">INTF&#45;IF_ABAP_PARALLEL</text>
</a>
</g>
</g>
<!-- CLAS&#45;CL_ABAP_PARALLEL&#45;&gt;INTF&#45;IF_ABAP_PARALLEL -->
<g id="edge3" class="edge">
<title>CLAS&#45;CL_ABAP_PARALLEL&#45;&gt;INTF&#45;IF_ABAP_PARALLEL</title>
<path fill="none" stroke="black" d="M199.3,-143.88C183.2,-134.64 163.14,-123.13 145.86,-113.21"/>
<polygon fill="black" stroke="black" points="147.52,-110.13 137.1,-108.19 144.04,-116.2 147.52,-110.13"/>
</g>
<!-- INTF&#45;IF_SERIALIZABLE_OBJECT -->
<g id="node3" class="node">
<title>INTF&#45;IF_SERIALIZABLE_OBJECT</title>
<g id="a_node3"><a xlink:href="./INTF_IF_SERIALIZABLE_OBJECT.html" xlink:title="INTF&#45;IF_SERIALIZABLE_OBJECT">
<polygon fill="none" stroke="green" points="228.43,-36 -0.14,-36 -0.14,0 228.43,0 228.43,-36"/>
<text text-anchor="middle" x="114.14" y="-13.8" font-family="Times,serif" font-size="14.00">INTF&#45;IF_SERIALIZABLE_OBJECT</text>
</a>
</g>
</g>
<!-- CLAS&#45;CL_ABAP_PARALLEL&#45;&gt;INTF&#45;IF_SERIALIZABLE_OBJECT -->
<g id="edge2" class="edge">
<title>CLAS&#45;CL_ABAP_PARALLEL&#45;&gt;INTF&#45;IF_SERIALIZABLE_OBJECT</title>
<path fill="none" stroke="black" d="M229.55,-143.89C229.16,-124.61 225.87,-93.19 210.14,-72 200.37,-58.83 186.31,-48.53 171.95,-40.65"/>
<polygon fill="black" stroke="black" points="173.5,-37.51 163.01,-36.05 170.3,-43.73 173.5,-37.51"/>
</g>
<!-- DTEL&#45;INT4 -->
<g id="node4" class="node">
<title>DTEL&#45;INT4</title>
<g id="a_node4"><a xlink:href="./DTEL_INT4.html" xlink:title="DTEL&#45;INT4">
<polygon fill="none" stroke="green" points="343.39,-108 256.9,-108 256.9,-72 343.39,-72 343.39,-108"/>
<text text-anchor="middle" x="300.14" y="-85.8" font-family="Times,serif" font-size="14.00">DTEL&#45;INT4</text>
</a>
</g>
</g>
<!-- CLAS&#45;CL_ABAP_PARALLEL&#45;&gt;DTEL&#45;INT4 -->
<g id="edge1" class="edge">
<title>CLAS&#45;CL_ABAP_PARALLEL&#45;&gt;DTEL&#45;INT4</title>
<path fill="none" stroke="black" d="M246.7,-143.7C255.38,-135.14 266.01,-124.66 275.49,-115.3"/>
<polygon fill="black" stroke="black" points="278.13,-117.62 282.8,-108.1 273.22,-112.63 278.13,-117.62"/>
</g>
<!-- INTF&#45;IF_ABAP_PARALLEL&#45;&gt;INTF&#45;IF_SERIALIZABLE_OBJECT -->
<g id="edge4" class="edge">
<title>INTF&#45;IF_ABAP_PARALLEL&#45;&gt;INTF&#45;IF_SERIALIZABLE_OBJECT</title>
<path fill="none" stroke="black" d="M108.87,-71.7C109.65,-63.98 110.57,-54.71 111.43,-46.11"/>
<polygon fill="black" stroke="black" points="114.92,-46.4 112.43,-36.1 107.96,-45.71 114.92,-46.4"/>
</g>
<!-- DOMA&#45;INT4 -->
<g id="node5" class="node">
<title>DOMA&#45;INT4</title>
<g id="a_node5"><a xlink:href="./DOMA_INT4.html" xlink:title="DOMA&#45;INT4">
<polygon fill="none" stroke="yellow" points="346.89,-36 253.4,-36 253.4,0 346.89,0 346.89,-36"/>
<text text-anchor="middle" x="300.14" y="-13.8" font-family="Times,serif" font-size="14.00">DOMA&#45;INT4</text>
</a>
</g>
</g>
<!-- DTEL&#45;INT4&#45;&gt;DOMA&#45;INT4 -->
<g id="edge5" class="edge">
<title>DTEL&#45;INT4&#45;&gt;DOMA&#45;INT4</title>
<path fill="none" stroke="black" d="M300.14,-71.7C300.14,-63.98 300.14,-54.71 300.14,-46.11"/>
<polygon fill="black" stroke="black" points="303.64,-46.1 300.14,-36.1 296.64,-46.1 303.64,-46.1"/>
</g>
</g>
</svg>
