<?xml version="1.0" encoding="UTF-8" standalone="no"?>
<!DOCTYPE svg PUBLIC "-//W3C//DTD SVG 1.1//EN"
 "http://www.w3.org/Graphics/SVG/1.1/DTD/svg11.dtd">
<!-- Generated by graphviz version 2.47.3 (20210619.1520)
 -->
<!-- Title: G Pages: 1 -->
<svg width="1454pt" height="404pt"
 viewBox="0.00 0.00 1454.31 404.00" xmlns="http://www.w3.org/2000/svg" xmlns:xlink="http://www.w3.org/1999/xlink">
<g id="graph0" class="graph" transform="scale(1 1) rotate(0) translate(4 400)">
<title>G</title>
<polygon fill="white" stroke="transparent" points="-4,4 -4,-400 1450.31,-400 1450.31,4 -4,4"/>
<!-- CLAS&#45;CX_HTTP_DEST_PROVIDER_ERROR -->
<g id="node1" class="node">
<title>CLAS&#45;CX_HTTP_DEST_PROVIDER_ERROR</title>
<polygon fill="none" stroke="green" points="895.13,-396 605.07,-396 605.07,-360 895.13,-360 895.13,-396"/>
<text text-anchor="middle" x="750.1" y="-373.8" font-family="Times,serif" font-size="14.00">CLAS&#45;CX_HTTP_DEST_PROVIDER_ERROR</text>
</g>
<!-- INTF&#45;IF_T100_DYN_MSG -->
<g id="node2" class="node">
<title>INTF&#45;IF_T100_DYN_MSG</title>
<g id="a_node2"><a xlink:href="./INTF_IF_T100_DYN_MSG.html" xlink:title="INTF&#45;IF_T100_DYN_MSG">
<polygon fill="none" stroke="green" points="543.01,-324 367.19,-324 367.19,-288 543.01,-288 543.01,-324"/>
<text text-anchor="middle" x="455.1" y="-301.8" font-family="Times,serif" font-size="14.00">INTF&#45;IF_T100_DYN_MSG</text>
</a>
</g>
</g>
<!-- CLAS&#45;CX_HTTP_DEST_PROVIDER_ERROR&#45;&gt;INTF&#45;IF_T100_DYN_MSG -->
<g id="edge3" class="edge">
<title>CLAS&#45;CX_HTTP_DEST_PROVIDER_ERROR&#45;&gt;INTF&#45;IF_T100_DYN_MSG</title>
<path fill="none" stroke="black" d="M678.31,-359.97C635.58,-349.83 581.22,-336.93 536.84,-326.4"/>
<polygon fill="black" stroke="black" points="537.49,-322.95 526.95,-324.05 535.88,-329.76 537.49,-322.95"/>
</g>
<!-- DTEL&#45;SYMSGNO -->
<g id="node7" class="node">
<title>DTEL&#45;SYMSGNO</title>
<g id="a_node7"><a xlink:href="./DTEL_SYMSGNO.html" xlink:title="DTEL&#45;SYMSGNO">
<polygon fill="none" stroke="green" points="657.46,-108 532.74,-108 532.74,-72 657.46,-72 657.46,-108"/>
<text text-anchor="middle" x="595.1" y="-85.8" font-family="Times,serif" font-size="14.00">DTEL&#45;SYMSGNO</text>
</a>
</g>
</g>
<!-- CLAS&#45;CX_HTTP_DEST_PROVIDER_ERROR&#45;&gt;DTEL&#45;SYMSGNO -->
<g id="edge1" class="edge">
<title>CLAS&#45;CX_HTTP_DEST_PROVIDER_ERROR&#45;&gt;DTEL&#45;SYMSGNO</title>
<path fill="none" stroke="black" d="M754.26,-359.98C763.34,-318.4 780.44,-210.23 731.1,-144 715.8,-123.46 691.38,-110.88 667.43,-103.17"/>
<polygon fill="black" stroke="black" points="668.16,-99.74 657.58,-100.26 666.17,-106.45 668.16,-99.74"/>
</g>
<!-- CLAS&#45;CX_STATIC_CHECK -->
<g id="node15" class="node">
<title>CLAS&#45;CX_STATIC_CHECK</title>
<g id="a_node15"><a xlink:href="./CLAS_CX_STATIC_CHECK.html" xlink:title="CLAS&#45;CX_STATIC_CHECK">
<polygon fill="none" stroke="green" points="974.41,-324 787.79,-324 787.79,-288 974.41,-288 974.41,-324"/>
<text text-anchor="middle" x="881.1" y="-301.8" font-family="Times,serif" font-size="14.00">CLAS&#45;CX_STATIC_CHECK</text>
</a>
</g>
</g>
<!-- CLAS&#45;CX_HTTP_DEST_PROVIDER_ERROR&#45;&gt;CLAS&#45;CX_STATIC_CHECK -->
<g id="edge2" class="edge">
<title>CLAS&#45;CX_HTTP_DEST_PROVIDER_ERROR&#45;&gt;CLAS&#45;CX_STATIC_CHECK</title>
<path fill="none" stroke="black" d="M782.15,-359.88C799.59,-350.55 821.37,-338.92 840.04,-328.94"/>
<polygon fill="black" stroke="black" points="841.76,-331.99 848.93,-324.19 838.46,-325.82 841.76,-331.99"/>
</g>
<!-- INTF&#45;IF_T100_MESSAGE -->
<g id="node3" class="node">
<title>INTF&#45;IF_T100_MESSAGE</title>
<g id="a_node3"><a xlink:href="./INTF_IF_T100_MESSAGE.html" xlink:title="INTF&#45;IF_T100_MESSAGE">
<polygon fill="none" stroke="green" points="541.69,-252 368.51,-252 368.51,-216 541.69,-216 541.69,-252"/>
<text text-anchor="middle" x="455.1" y="-229.8" font-family="Times,serif" font-size="14.00">INTF&#45;IF_T100_MESSAGE</text>
</a>
</g>
</g>
<!-- INTF&#45;IF_T100_DYN_MSG&#45;&gt;INTF&#45;IF_T100_MESSAGE -->
<g id="edge7" class="edge">
<title>INTF&#45;IF_T100_DYN_MSG&#45;&gt;INTF&#45;IF_T100_MESSAGE</title>
<path fill="none" stroke="black" d="M455.1,-287.7C455.1,-279.98 455.1,-270.71 455.1,-262.11"/>
<polygon fill="black" stroke="black" points="458.6,-262.1 455.1,-252.1 451.6,-262.1 458.6,-262.1"/>
</g>
<!-- INTF&#45;IF_MESSAGE -->
<g id="node4" class="node">
<title>INTF&#45;IF_MESSAGE</title>
<g id="a_node4"><a xlink:href="./INTF_IF_MESSAGE.html" xlink:title="INTF&#45;IF_MESSAGE">
<polygon fill="none" stroke="green" points="722.14,-180 586.07,-180 586.07,-144 722.14,-144 722.14,-180"/>
<text text-anchor="middle" x="654.1" y="-157.8" font-family="Times,serif" font-size="14.00">INTF&#45;IF_MESSAGE</text>
</a>
</g>
</g>
<!-- INTF&#45;IF_T100_DYN_MSG&#45;&gt;INTF&#45;IF_MESSAGE -->
<g id="edge6" class="edge">
<title>INTF&#45;IF_T100_DYN_MSG&#45;&gt;INTF&#45;IF_MESSAGE</title>
<path fill="none" stroke="black" d="M490.35,-287.79C508.97,-278.14 531.89,-265.39 551.1,-252 579.35,-232.32 608.79,-206.22 628.93,-187.38"/>
<polygon fill="black" stroke="black" points="631.57,-189.7 636.44,-180.29 626.76,-184.62 631.57,-189.7"/>
</g>
<!-- DTEL&#45;SYMSGTY -->
<g id="node11" class="node">
<title>DTEL&#45;SYMSGTY</title>
<g id="a_node11"><a xlink:href="./DTEL_SYMSGTY.html" xlink:title="DTEL&#45;SYMSGTY">
<polygon fill="none" stroke="green" points="151.91,-252 28.29,-252 28.29,-216 151.91,-216 151.91,-252"/>
<text text-anchor="middle" x="90.1" y="-229.8" font-family="Times,serif" font-size="14.00">DTEL&#45;SYMSGTY</text>
</a>
</g>
</g>
<!-- INTF&#45;IF_T100_DYN_MSG&#45;&gt;DTEL&#45;SYMSGTY -->
<g id="edge5" class="edge">
<title>INTF&#45;IF_T100_DYN_MSG&#45;&gt;DTEL&#45;SYMSGTY</title>
<path fill="none" stroke="black" d="M367.21,-288.14C304.3,-276.08 220.65,-260.04 161.77,-248.75"/>
<polygon fill="black" stroke="black" points="162.29,-245.28 151.81,-246.84 160.97,-252.16 162.29,-245.28"/>
</g>
<!-- DTEL&#45;SYMSGV -->
<g id="node13" class="node">
<title>DTEL&#45;SYMSGV</title>
<g id="a_node13"><a xlink:href="./DTEL_SYMSGV.html" xlink:title="DTEL&#45;SYMSGV">
<polygon fill="none" stroke="green" points="328.36,-252 213.85,-252 213.85,-216 328.36,-216 328.36,-252"/>
<text text-anchor="middle" x="271.1" y="-229.8" font-family="Times,serif" font-size="14.00">DTEL&#45;SYMSGV</text>
</a>
</g>
</g>
<!-- INTF&#45;IF_T100_DYN_MSG&#45;&gt;DTEL&#45;SYMSGV -->
<g id="edge4" class="edge">
<title>INTF&#45;IF_T100_DYN_MSG&#45;&gt;DTEL&#45;SYMSGV</title>
<path fill="none" stroke="black" d="M410.09,-287.88C384.6,-278.18 352.53,-265.98 325.62,-255.74"/>
<polygon fill="black" stroke="black" points="326.56,-252.35 315.97,-252.07 324.07,-258.9 326.56,-252.35"/>
</g>
<!-- INTF&#45;IF_T100_MESSAGE&#45;&gt;INTF&#45;IF_MESSAGE -->
<g id="edge12" class="edge">
<title>INTF&#45;IF_T100_MESSAGE&#45;&gt;INTF&#45;IF_MESSAGE</title>
<path fill="none" stroke="black" d="M503.53,-215.97C531.33,-206.19 566.44,-193.84 595.75,-183.52"/>
<polygon fill="black" stroke="black" points="597.18,-186.73 605.46,-180.11 594.86,-180.13 597.18,-186.73"/>
</g>
<!-- TABL&#45;SCX_T100KEY -->
<g id="node5" class="node">
<title>TABL&#45;SCX_T100KEY</title>
<g id="a_node5"><a xlink:href="./TABL_SCX_T100KEY.html" xlink:title="TABL&#45;SCX_T100KEY">
<polygon fill="none" stroke="yellow" points="529.85,-180 380.35,-180 380.35,-144 529.85,-144 529.85,-180"/>
<text text-anchor="middle" x="455.1" y="-157.8" font-family="Times,serif" font-size="14.00">TABL&#45;SCX_T100KEY</text>
</a>
</g>
</g>
<!-- INTF&#45;IF_T100_MESSAGE&#45;&gt;TABL&#45;SCX_T100KEY -->
<g id="edge11" class="edge">
<title>INTF&#45;IF_T100_MESSAGE&#45;&gt;TABL&#45;SCX_T100KEY</title>
<path fill="none" stroke="black" d="M455.1,-215.7C455.1,-207.98 455.1,-198.71 455.1,-190.11"/>
<polygon fill="black" stroke="black" points="458.6,-190.1 455.1,-180.1 451.6,-190.1 458.6,-190.1"/>
</g>
<!-- DTEL&#45;SCX_ATTRNAME -->
<g id="node6" class="node">
<title>DTEL&#45;SCX_ATTRNAME</title>
<g id="a_node6"><a xlink:href="./DTEL_SCX_ATTRNAME.html" xlink:title="DTEL&#45;SCX_ATTRNAME">
<polygon fill="none" stroke="green" points="377.51,-108 208.69,-108 208.69,-72 377.51,-72 377.51,-108"/>
<text text-anchor="middle" x="293.1" y="-85.8" font-family="Times,serif" font-size="14.00">DTEL&#45;SCX_ATTRNAME</text>
</a>
</g>
</g>
<!-- INTF&#45;IF_T100_MESSAGE&#45;&gt;DTEL&#45;SCX_ATTRNAME -->
<g id="edge10" class="edge">
<title>INTF&#45;IF_T100_MESSAGE&#45;&gt;DTEL&#45;SCX_ATTRNAME</title>
<path fill="none" stroke="black" d="M417.6,-215.93C399.72,-206.75 378.66,-194.37 362.1,-180 340.81,-161.53 321.62,-135.64 308.91,-116.54"/>
<polygon fill="black" stroke="black" points="311.76,-114.51 303.38,-108.03 305.9,-118.32 311.76,-114.51"/>
</g>
<!-- INTF&#45;IF_T100_MESSAGE&#45;&gt;DTEL&#45;SYMSGNO -->
<g id="edge9" class="edge">
<title>INTF&#45;IF_T100_MESSAGE&#45;&gt;DTEL&#45;SYMSGNO</title>
<path fill="none" stroke="black" d="M489.48,-215.95C505.75,-206.78 524.72,-194.4 539.1,-180 557.42,-161.66 572.65,-136.28 582.58,-117.31"/>
<polygon fill="black" stroke="black" points="585.74,-118.82 587.14,-108.32 579.5,-115.65 585.74,-118.82"/>
</g>
<!-- DTEL&#45;SYMSGID -->
<g id="node9" class="node">
<title>DTEL&#45;SYMSGID</title>
<g id="a_node9"><a xlink:href="./DTEL_SYMSGID.html" xlink:title="DTEL&#45;SYMSGID">
<polygon fill="none" stroke="green" points="515.02,-108 395.18,-108 395.18,-72 515.02,-72 515.02,-108"/>
<text text-anchor="middle" x="455.1" y="-85.8" font-family="Times,serif" font-size="14.00">DTEL&#45;SYMSGID</text>
</a>
</g>
</g>
<!-- INTF&#45;IF_T100_MESSAGE&#45;&gt;DTEL&#45;SYMSGID -->
<g id="edge8" class="edge">
<title>INTF&#45;IF_T100_MESSAGE&#45;&gt;DTEL&#45;SYMSGID</title>
<path fill="none" stroke="black" d="M411.03,-215.98C395.55,-207.62 379.84,-195.85 371.1,-180 363.37,-165.99 363.37,-158.01 371.1,-144 378.2,-131.12 389.9,-120.94 402.34,-113.08"/>
<polygon fill="black" stroke="black" points="404.15,-116.08 411.03,-108.02 400.63,-110.03 404.15,-116.08"/>
</g>
<!-- TABL&#45;SCX_T100KEY&#45;&gt;DTEL&#45;SCX_ATTRNAME -->
<g id="edge15" class="edge">
<title>TABL&#45;SCX_T100KEY&#45;&gt;DTEL&#45;SCX_ATTRNAME</title>
<path fill="none" stroke="black" d="M415.47,-143.88C393.32,-134.31 365.54,-122.3 342.04,-112.15"/>
<polygon fill="black" stroke="black" points="343.17,-108.82 332.6,-108.07 340.39,-115.25 343.17,-108.82"/>
</g>
<!-- TABL&#45;SCX_T100KEY&#45;&gt;DTEL&#45;SYMSGNO -->
<g id="edge14" class="edge">
<title>TABL&#45;SCX_T100KEY&#45;&gt;DTEL&#45;SYMSGNO</title>
<path fill="none" stroke="black" d="M489.35,-143.88C508.16,-134.47 531.68,-122.71 551.77,-112.67"/>
<polygon fill="black" stroke="black" points="553.34,-115.79 560.72,-108.19 550.21,-109.53 553.34,-115.79"/>
</g>
<!-- TABL&#45;SCX_T100KEY&#45;&gt;DTEL&#45;SYMSGID -->
<g id="edge13" class="edge">
<title>TABL&#45;SCX_T100KEY&#45;&gt;DTEL&#45;SYMSGID</title>
<path fill="none" stroke="black" d="M455.1,-143.7C455.1,-135.98 455.1,-126.71 455.1,-118.11"/>
<polygon fill="black" stroke="black" points="458.6,-118.1 455.1,-108.1 451.6,-118.1 458.6,-118.1"/>
</g>
<!-- DOMA&#45;SYMSGNO -->
<g id="node8" class="node">
<title>DOMA&#45;SYMSGNO</title>
<g id="a_node8"><a xlink:href="./DOMA_SYMSGNO.html" xlink:title="DOMA&#45;SYMSGNO">
<polygon fill="none" stroke="yellow" points="660.96,-36 529.24,-36 529.24,0 660.96,0 660.96,-36"/>
<text text-anchor="middle" x="595.1" y="-13.8" font-family="Times,serif" font-size="14.00">DOMA&#45;SYMSGNO</text>
</a>
</g>
</g>
<!-- DTEL&#45;SYMSGNO&#45;&gt;DOMA&#45;SYMSGNO -->
<g id="edge16" class="edge">
<title>DTEL&#45;SYMSGNO&#45;&gt;DOMA&#45;SYMSGNO</title>
<path fill="none" stroke="black" d="M595.1,-71.7C595.1,-63.98 595.1,-54.71 595.1,-46.11"/>
<polygon fill="black" stroke="black" points="598.6,-46.1 595.1,-36.1 591.6,-46.1 598.6,-46.1"/>
</g>
<!-- DOMA&#45;ARBGB -->
<g id="node10" class="node">
<title>DOMA&#45;ARBGB</title>
<g id="a_node10"><a xlink:href="./DOMA_ARBGB.html" xlink:title="DOMA&#45;ARBGB">
<polygon fill="none" stroke="yellow" points="510.75,-36 399.45,-36 399.45,0 510.75,0 510.75,-36"/>
<text text-anchor="middle" x="455.1" y="-13.8" font-family="Times,serif" font-size="14.00">DOMA&#45;ARBGB</text>
</a>
</g>
</g>
<!-- DTEL&#45;SYMSGID&#45;&gt;DOMA&#45;ARBGB -->
<g id="edge17" class="edge">
<title>DTEL&#45;SYMSGID&#45;&gt;DOMA&#45;ARBGB</title>
<path fill="none" stroke="black" d="M455.1,-71.7C455.1,-63.98 455.1,-54.71 455.1,-46.11"/>
<polygon fill="black" stroke="black" points="458.6,-46.1 455.1,-36.1 451.6,-46.1 458.6,-46.1"/>
</g>
<!-- DOMA&#45;SYCHAR01 -->
<g id="node12" class="node">
<title>DOMA&#45;SYCHAR01</title>
<g id="a_node12"><a xlink:href="./DOMA_SYCHAR01.html" xlink:title="DOMA&#45;SYCHAR01">
<polygon fill="none" stroke="yellow" points="134.3,-180 -0.1,-180 -0.1,-144 134.3,-144 134.3,-180"/>
<text text-anchor="middle" x="67.1" y="-157.8" font-family="Times,serif" font-size="14.00">DOMA&#45;SYCHAR01</text>
</a>
</g>
</g>
<!-- DTEL&#45;SYMSGTY&#45;&gt;DOMA&#45;SYCHAR01 -->
<g id="edge18" class="edge">
<title>DTEL&#45;SYMSGTY&#45;&gt;DOMA&#45;SYCHAR01</title>
<path fill="none" stroke="black" d="M84.41,-215.7C81.85,-207.9 78.77,-198.51 75.92,-189.83"/>
<polygon fill="black" stroke="black" points="79.17,-188.51 72.72,-180.1 72.52,-190.7 79.17,-188.51"/>
</g>
<!-- DOMA&#45;SYCHAR50 -->
<g id="node14" class="node">
<title>DOMA&#45;SYCHAR50</title>
<g id="a_node14"><a xlink:href="./DOMA_SYCHAR50.html" xlink:title="DOMA&#45;SYCHAR50">
<polygon fill="none" stroke="yellow" points="286.3,-180 151.9,-180 151.9,-144 286.3,-144 286.3,-180"/>
<text text-anchor="middle" x="219.1" y="-157.8" font-family="Times,serif" font-size="14.00">DOMA&#45;SYCHAR50</text>
</a>
</g>
</g>
<!-- DTEL&#45;SYMSGV&#45;&gt;DOMA&#45;SYCHAR50 -->
<g id="edge19" class="edge">
<title>DTEL&#45;SYMSGV&#45;&gt;DOMA&#45;SYCHAR50</title>
<path fill="none" stroke="black" d="M258.25,-215.7C252.08,-207.39 244.56,-197.28 237.78,-188.14"/>
<polygon fill="black" stroke="black" points="240.58,-186.04 231.81,-180.1 234.96,-190.22 240.58,-186.04"/>
</g>
<!-- CLAS&#45;CX_ROOT -->
<g id="node16" class="node">
<title>CLAS&#45;CX_ROOT</title>
<g id="a_node16"><a xlink:href="./CLAS_CX_ROOT.html" xlink:title="CLAS&#45;CX_ROOT">
<polygon fill="none" stroke="green" points="1047.58,-252 926.62,-252 926.62,-216 1047.58,-216 1047.58,-252"/>
<text text-anchor="middle" x="987.1" y="-229.8" font-family="Times,serif" font-size="14.00">CLAS&#45;CX_ROOT</text>
</a>
</g>
</g>
<!-- CLAS&#45;CX_STATIC_CHECK&#45;&gt;CLAS&#45;CX_ROOT -->
<g id="edge20" class="edge">
<title>CLAS&#45;CX_STATIC_CHECK&#45;&gt;CLAS&#45;CX_ROOT</title>
<path fill="none" stroke="black" d="M907.03,-287.88C920.76,-278.81 937.81,-267.55 952.64,-257.76"/>
<polygon fill="black" stroke="black" points="954.65,-260.62 961.07,-252.19 950.8,-254.78 954.65,-260.62"/>
</g>
<!-- CLAS&#45;CX_ROOT&#45;&gt;INTF&#45;IF_MESSAGE -->
<g id="edge24" class="edge">
<title>CLAS&#45;CX_ROOT&#45;&gt;INTF&#45;IF_MESSAGE</title>
<path fill="none" stroke="black" d="M926.41,-220.24C871.97,-208.8 791.76,-191.94 732.48,-179.48"/>
<polygon fill="black" stroke="black" points="732.91,-175.99 722.41,-177.36 731.47,-182.84 732.91,-175.99"/>
</g>
<!-- INTF&#45;IF_SERIALIZABLE_OBJECT -->
<g id="node17" class="node">
<title>INTF&#45;IF_SERIALIZABLE_OBJECT</title>
<g id="a_node17"><a xlink:href="./INTF_IF_SERIALIZABLE_OBJECT.html" xlink:title="INTF&#45;IF_SERIALIZABLE_OBJECT">
<polygon fill="none" stroke="green" points="1006.39,-180 777.81,-180 777.81,-144 1006.39,-144 1006.39,-180"/>
<text text-anchor="middle" x="892.1" y="-157.8" font-family="Times,serif" font-size="14.00">INTF&#45;IF_SERIALIZABLE_OBJECT</text>
</a>
</g>
</g>
<!-- CLAS&#45;CX_ROOT&#45;&gt;INTF&#45;IF_SERIALIZABLE_OBJECT -->
<g id="edge25" class="edge">
<title>CLAS&#45;CX_ROOT&#45;&gt;INTF&#45;IF_SERIALIZABLE_OBJECT</title>
<path fill="none" stroke="black" d="M963.62,-215.7C951.54,-206.8 936.65,-195.82 923.58,-186.2"/>
<polygon fill="black" stroke="black" points="925.44,-183.22 915.31,-180.1 921.29,-188.85 925.44,-183.22"/>
</g>
<!-- DTEL&#45;SYREPID -->
<g id="node18" class="node">
<title>DTEL&#45;SYREPID</title>
<g id="a_node18"><a xlink:href="./DTEL_SYREPID.html" xlink:title="DTEL&#45;SYREPID">
<polygon fill="none" stroke="green" points="1139.35,-180 1024.85,-180 1024.85,-144 1139.35,-144 1139.35,-180"/>
<text text-anchor="middle" x="1082.1" y="-157.8" font-family="Times,serif" font-size="14.00">DTEL&#45;SYREPID</text>
</a>
</g>
</g>
<!-- CLAS&#45;CX_ROOT&#45;&gt;DTEL&#45;SYREPID -->
<g id="edge23" class="edge">
<title>CLAS&#45;CX_ROOT&#45;&gt;DTEL&#45;SYREPID</title>
<path fill="none" stroke="black" d="M1010.58,-215.7C1022.66,-206.8 1037.55,-195.82 1050.62,-186.2"/>
<polygon fill="black" stroke="black" points="1052.91,-188.85 1058.89,-180.1 1048.76,-183.22 1052.91,-188.85"/>
</g>
<!-- DTEL&#45;S380ERRID -->
<g id="node20" class="node">
<title>DTEL&#45;S380ERRID</title>
<g id="a_node20"><a xlink:href="./DTEL_S380ERRID.html" xlink:title="DTEL&#45;S380ERRID">
<polygon fill="none" stroke="yellow" points="1284.8,-180 1157.4,-180 1157.4,-144 1284.8,-144 1284.8,-180"/>
<text text-anchor="middle" x="1221.1" y="-157.8" font-family="Times,serif" font-size="14.00">DTEL&#45;S380ERRID</text>
</a>
</g>
</g>
<!-- CLAS&#45;CX_ROOT&#45;&gt;DTEL&#45;S380ERRID -->
<g id="edge22" class="edge">
<title>CLAS&#45;CX_ROOT&#45;&gt;DTEL&#45;S380ERRID</title>
<path fill="none" stroke="black" d="M1044.04,-215.97C1077.31,-206.01 1119.46,-193.41 1154.29,-182.99"/>
<polygon fill="black" stroke="black" points="1155.32,-186.33 1163.9,-180.11 1153.32,-179.62 1155.32,-186.33"/>
</g>
<!-- DTEL&#45;SOTR_CONC -->
<g id="node22" class="node">
<title>DTEL&#45;SOTR_CONC</title>
<g id="a_node22"><a xlink:href="./DTEL_SOTR_CONC.html" xlink:title="DTEL&#45;SOTR_CONC">
<polygon fill="none" stroke="yellow" points="1443.19,-180 1305.01,-180 1305.01,-144 1443.19,-144 1443.19,-180"/>
<text text-anchor="middle" x="1374.1" y="-157.8" font-family="Times,serif" font-size="14.00">DTEL&#45;SOTR_CONC</text>
</a>
</g>
</g>
<!-- CLAS&#45;CX_ROOT&#45;&gt;DTEL&#45;SOTR_CONC -->
<g id="edge21" class="edge">
<title>CLAS&#45;CX_ROOT&#45;&gt;DTEL&#45;SOTR_CONC</title>
<path fill="none" stroke="black" d="M1047.81,-223.23C1109.83,-213.08 1208.86,-196.41 1294.1,-180 1294.32,-179.96 1294.54,-179.92 1294.75,-179.87"/>
<polygon fill="black" stroke="black" points="1295.62,-183.27 1304.75,-177.91 1294.27,-176.4 1295.62,-183.27"/>
</g>
<!-- DOMA&#45;PROGRAMM -->
<g id="node19" class="node">
<title>DOMA&#45;PROGRAMM</title>
<g id="a_node19"><a xlink:href="./DOMA_PROGRAMM.html" xlink:title="DOMA&#45;PROGRAMM">
<polygon fill="none" stroke="yellow" points="1135.69,-108 990.51,-108 990.51,-72 1135.69,-72 1135.69,-108"/>
<text text-anchor="middle" x="1063.1" y="-85.8" font-family="Times,serif" font-size="14.00">DOMA&#45;PROGRAMM</text>
</a>
</g>
</g>
<!-- DTEL&#45;SYREPID&#45;&gt;DOMA&#45;PROGRAMM -->
<g id="edge26" class="edge">
<title>DTEL&#45;SYREPID&#45;&gt;DOMA&#45;PROGRAMM</title>
<path fill="none" stroke="black" d="M1077.4,-143.7C1075.29,-135.9 1072.74,-126.51 1070.38,-117.83"/>
<polygon fill="black" stroke="black" points="1073.74,-116.84 1067.74,-108.1 1066.98,-118.67 1073.74,-116.84"/>
</g>
<!-- DOMA&#45;SYCHAR30 -->
<g id="node21" class="node">
<title>DOMA&#45;SYCHAR30</title>
<g id="a_node21"><a xlink:href="./DOMA_SYCHAR30.html" xlink:title="DOMA&#45;SYCHAR30">
<polygon fill="none" stroke="yellow" points="1288.3,-108 1153.9,-108 1153.9,-72 1288.3,-72 1288.3,-108"/>
<text text-anchor="middle" x="1221.1" y="-85.8" font-family="Times,serif" font-size="14.00">DOMA&#45;SYCHAR30</text>
</a>
</g>
</g>
<!-- DTEL&#45;S380ERRID&#45;&gt;DOMA&#45;SYCHAR30 -->
<g id="edge27" class="edge">
<title>DTEL&#45;S380ERRID&#45;&gt;DOMA&#45;SYCHAR30</title>
<path fill="none" stroke="black" d="M1221.1,-143.7C1221.1,-135.98 1221.1,-126.71 1221.1,-118.11"/>
<polygon fill="black" stroke="black" points="1224.6,-118.1 1221.1,-108.1 1217.6,-118.1 1224.6,-118.1"/>
</g>
<!-- DOMA&#45;SYSUUID_C -->
<g id="node23" class="node">
<title>DOMA&#45;SYSUUID_C</title>
<g id="a_node23"><a xlink:href="./DOMA_SYSUUID_C.html" xlink:title="DOMA&#45;SYSUUID_C">
<polygon fill="none" stroke="yellow" points="1446.51,-108 1305.69,-108 1305.69,-72 1446.51,-72 1446.51,-108"/>
<text text-anchor="middle" x="1376.1" y="-85.8" font-family="Times,serif" font-size="14.00">DOMA&#45;SYSUUID_C</text>
</a>
</g>
</g>
<!-- DTEL&#45;SOTR_CONC&#45;&gt;DOMA&#45;SYSUUID_C -->
<g id="edge28" class="edge">
<title>DTEL&#45;SOTR_CONC&#45;&gt;DOMA&#45;SYSUUID_C</title>
<path fill="none" stroke="black" d="M1374.59,-143.7C1374.82,-135.98 1375.08,-126.71 1375.33,-118.11"/>
<polygon fill="black" stroke="black" points="1378.82,-118.2 1375.61,-108.1 1371.83,-118 1378.82,-118.2"/>
</g>
</g>
</svg>
