<?xml version="1.0" encoding="UTF-8" standalone="no"?>
<!DOCTYPE svg PUBLIC "-//W3C//DTD SVG 1.1//EN"
 "http://www.w3.org/Graphics/SVG/1.1/DTD/svg11.dtd">
<!-- Generated by graphviz version 2.47.3 (20210619.1520)
 -->
<!-- Title: G Pages: 1 -->
<svg width="336pt" height="188pt"
 viewBox="0.00 0.00 336.19 188.00" xmlns="http://www.w3.org/2000/svg" xmlns:xlink="http://www.w3.org/1999/xlink">
<g id="graph0" class="graph" transform="scale(1 1) rotate(0) translate(4 184)">
<title>G</title>
<polygon fill="white" stroke="transparent" points="-4,4 -4,-184 332.19,-184 332.19,4 -4,4"/>
<!-- CLAS&#45;CL_ABAP_SQL_STATEMENT_HANDLE -->
<g id="node1" class="node">
<title>CLAS&#45;CL_ABAP_SQL_STATEMENT_HANDLE</title>
<polygon fill="none" stroke="green" points="314.21,-180 7.54,-180 7.54,-144 314.21,-144 314.21,-180"/>
<text text-anchor="middle" x="160.88" y="-157.8" font-family="Times,serif" font-size="14.00">CLAS&#45;CL_ABAP_SQL_STATEMENT_HANDLE</text>
</g>
<!-- DTEL&#45;ABAP_MSIZE -->
<g id="node2" class="node">
<title>DTEL&#45;ABAP_MSIZE</title>
<g id="a_node2"><a xlink:href="./DTEL_ABAP_MSIZE.html" xlink:title="DTEL&#45;ABAP_MSIZE">
<polygon fill="none" stroke="green" points="148.13,-108 5.62,-108 5.62,-72 148.13,-72 148.13,-108"/>
<text text-anchor="middle" x="76.88" y="-85.8" font-family="Times,serif" font-size="14.00">DTEL&#45;ABAP_MSIZE</text>
</a>
</g>
</g>
<!-- CLAS&#45;CL_ABAP_SQL_STATEMENT_HANDLE&#45;&gt;DTEL&#45;ABAP_MSIZE -->
<g id="edge2" class="edge">
<title>CLAS&#45;CL_ABAP_SQL_STATEMENT_HANDLE&#45;&gt;DTEL&#45;ABAP_MSIZE</title>
<path fill="none" stroke="black" d="M140.11,-143.7C129.63,-134.97 116.76,-124.24 105.38,-114.75"/>
<polygon fill="black" stroke="black" points="107.32,-111.82 97.4,-108.1 102.84,-117.19 107.32,-111.82"/>
</g>
<!-- DTEL&#45;DBCON_NAME -->
<g id="node4" class="node">
<title>DTEL&#45;DBCON_NAME</title>
<g id="a_node4"><a xlink:href="./DTEL_DBCON_NAME.html" xlink:title="DTEL&#45;DBCON_NAME">
<polygon fill="none" stroke="yellow" points="322.5,-108 169.25,-108 169.25,-72 322.5,-72 322.5,-108"/>
<text text-anchor="middle" x="245.88" y="-85.8" font-family="Times,serif" font-size="14.00">DTEL&#45;DBCON_NAME</text>
</a>
</g>
</g>
<!-- CLAS&#45;CL_ABAP_SQL_STATEMENT_HANDLE&#45;&gt;DTEL&#45;DBCON_NAME -->
<g id="edge1" class="edge">
<title>CLAS&#45;CL_ABAP_SQL_STATEMENT_HANDLE&#45;&gt;DTEL&#45;DBCON_NAME</title>
<path fill="none" stroke="black" d="M181.89,-143.7C192.59,-134.88 205.76,-124.03 217.37,-114.47"/>
<polygon fill="black" stroke="black" points="219.61,-117.16 225.11,-108.1 215.16,-111.76 219.61,-117.16"/>
</g>
<!-- DOMA&#45;ABAP_MSIZE -->
<g id="node3" class="node">
<title>DOMA&#45;ABAP_MSIZE</title>
<g id="a_node3"><a xlink:href="./DOMA_ABAP_MSIZE.html" xlink:title="DOMA&#45;ABAP_MSIZE">
<polygon fill="none" stroke="yellow" points="149.63,-36 0.12,-36 0.12,0 149.63,0 149.63,-36"/>
<text text-anchor="middle" x="74.88" y="-13.8" font-family="Times,serif" font-size="14.00">DOMA&#45;ABAP_MSIZE</text>
</a>
</g>
</g>
<!-- DTEL&#45;ABAP_MSIZE&#45;&gt;DOMA&#45;ABAP_MSIZE -->
<g id="edge3" class="edge">
<title>DTEL&#45;ABAP_MSIZE&#45;&gt;DOMA&#45;ABAP_MSIZE</title>
<path fill="none" stroke="black" d="M76.38,-71.7C76.16,-63.98 75.9,-54.71 75.65,-46.11"/>
<polygon fill="black" stroke="black" points="79.15,-46 75.36,-36.1 72.15,-46.2 79.15,-46"/>
</g>
<!-- DOMA&#45;DBCON_NAME -->
<g id="node5" class="node">
<title>DOMA&#45;DBCON_NAME</title>
<g id="a_node5"><a xlink:href="./DOMA_DBCON_NAME.html" xlink:title="DOMA&#45;DBCON_NAME">
<polygon fill="none" stroke="yellow" points="328,-36 167.75,-36 167.75,0 328,0 328,-36"/>
<text text-anchor="middle" x="247.88" y="-13.8" font-family="Times,serif" font-size="14.00">DOMA&#45;DBCON_NAME</text>
</a>
</g>
</g>
<!-- DTEL&#45;DBCON_NAME&#45;&gt;DOMA&#45;DBCON_NAME -->
<g id="edge4" class="edge">
<title>DTEL&#45;DBCON_NAME&#45;&gt;DOMA&#45;DBCON_NAME</title>
<path fill="none" stroke="black" d="M246.37,-71.7C246.59,-63.98 246.85,-54.71 247.1,-46.11"/>
<polygon fill="black" stroke="black" points="250.6,-46.2 247.39,-36.1 243.6,-46 250.6,-46.2"/>
</g>
</g>
</svg>
