<?xml version="1.0" encoding="UTF-8" standalone="no"?>
<!DOCTYPE svg PUBLIC "-//W3C//DTD SVG 1.1//EN"
 "http://www.w3.org/Graphics/SVG/1.1/DTD/svg11.dtd">
<!-- Generated by graphviz version 2.47.3 (20210619.1520)
 -->
<!-- Title: G Pages: 1 -->
<svg width="835pt" height="476pt"
 viewBox="0.00 0.00 834.86 476.00" xmlns="http://www.w3.org/2000/svg" xmlns:xlink="http://www.w3.org/1999/xlink">
<g id="graph0" class="graph" transform="scale(1 1) rotate(0) translate(4 472)">
<title>G</title>
<polygon fill="white" stroke="transparent" points="-4,4 -4,-472 830.86,-472 830.86,4 -4,4"/>
<!-- CLAS&#45;CX_XSDANY_PARSE_ERROR -->
<g id="node1" class="node">
<title>CLAS&#45;CX_XSDANY_PARSE_ERROR</title>
<polygon fill="none" stroke="green" points="827.07,-468 581.22,-468 581.22,-432 827.07,-432 827.07,-468"/>
<text text-anchor="middle" x="704.14" y="-445.8" font-family="Times,serif" font-size="14.00">CLAS&#45;CX_XSDANY_PARSE_ERROR</text>
</g>
<!-- CLAS&#45;CX_XSDANY_ERROR -->
<g id="node2" class="node">
<title>CLAS&#45;CX_XSDANY_ERROR</title>
<g id="a_node2"><a xlink:href="./CLAS_CX_XSDANY_ERROR.html" xlink:title="CLAS&#45;CX_XSDANY_ERROR">
<polygon fill="none" stroke="green" points="739.51,-396 544.78,-396 544.78,-360 739.51,-360 739.51,-396"/>
<text text-anchor="middle" x="642.14" y="-373.8" font-family="Times,serif" font-size="14.00">CLAS&#45;CX_XSDANY_ERROR</text>
</a>
</g>
</g>
<!-- CLAS&#45;CX_XSDANY_PARSE_ERROR&#45;&gt;CLAS&#45;CX_XSDANY_ERROR -->
<g id="edge2" class="edge">
<title>CLAS&#45;CX_XSDANY_PARSE_ERROR&#45;&gt;CLAS&#45;CX_XSDANY_ERROR</title>
<path fill="none" stroke="black" d="M688.82,-431.7C681.39,-423.3 672.32,-413.07 664.16,-403.86"/>
<polygon fill="black" stroke="black" points="666.54,-401.27 657.29,-396.1 661.3,-405.91 666.54,-401.27"/>
</g>
<!-- DTEL&#45;SOTR_CONC -->
<g id="node12" class="node">
<title>DTEL&#45;SOTR_CONC</title>
<g id="a_node12"><a xlink:href="./DTEL_SOTR_CONC.html" xlink:title="DTEL&#45;SOTR_CONC">
<polygon fill="none" stroke="yellow" points="817.23,-108 679.05,-108 679.05,-72 817.23,-72 817.23,-108"/>
<text text-anchor="middle" x="748.14" y="-85.8" font-family="Times,serif" font-size="14.00">DTEL&#45;SOTR_CONC</text>
</a>
</g>
</g>
<!-- CLAS&#45;CX_XSDANY_PARSE_ERROR&#45;&gt;DTEL&#45;SOTR_CONC -->
<g id="edge1" class="edge">
<title>CLAS&#45;CX_XSDANY_PARSE_ERROR&#45;&gt;DTEL&#45;SOTR_CONC</title>
<path fill="none" stroke="black" d="M722.01,-431.9C731.15,-422.19 741.67,-409.34 748.14,-396 765.8,-359.61 767.14,-347.45 767.14,-307 767.14,-307 767.14,-307 767.14,-233 767.14,-192.86 759.59,-146.9 754.01,-118.4"/>
<polygon fill="black" stroke="black" points="757.4,-117.5 751.99,-108.39 750.54,-118.88 757.4,-117.5"/>
</g>
<!-- CLAS&#45;CX_TRANSFORMATION_ERROR -->
<g id="node3" class="node">
<title>CLAS&#45;CX_TRANSFORMATION_ERROR</title>
<g id="a_node3"><a xlink:href="./CLAS_CX_TRANSFORMATION_ERROR.html" xlink:title="CLAS&#45;CX_TRANSFORMATION_ERROR">
<polygon fill="none" stroke="green" points="700.78,-324 435.5,-324 435.5,-288 700.78,-288 700.78,-324"/>
<text text-anchor="middle" x="568.14" y="-301.8" font-family="Times,serif" font-size="14.00">CLAS&#45;CX_TRANSFORMATION_ERROR</text>
</a>
</g>
</g>
<!-- CLAS&#45;CX_XSDANY_ERROR&#45;&gt;CLAS&#45;CX_TRANSFORMATION_ERROR -->
<g id="edge4" class="edge">
<title>CLAS&#45;CX_XSDANY_ERROR&#45;&gt;CLAS&#45;CX_TRANSFORMATION_ERROR</title>
<path fill="none" stroke="black" d="M623.85,-359.7C614.71,-351.05 603.5,-340.45 593.54,-331.03"/>
<polygon fill="black" stroke="black" points="595.9,-328.43 586.23,-324.1 591.09,-333.52 595.9,-328.43"/>
</g>
<!-- CLAS&#45;CX_XSDANY_ERROR&#45;&gt;DTEL&#45;SOTR_CONC -->
<g id="edge3" class="edge">
<title>CLAS&#45;CX_XSDANY_ERROR&#45;&gt;DTEL&#45;SOTR_CONC</title>
<path fill="none" stroke="black" d="M673.32,-359.95C686.75,-351.01 701.37,-338.81 710.14,-324 749.24,-258.07 751.49,-164.13 749.87,-118.28"/>
<polygon fill="black" stroke="black" points="753.36,-118.06 749.42,-108.22 746.37,-118.37 753.36,-118.06"/>
</g>
<!-- CLAS&#45;CX_DYNAMIC_CHECK -->
<g id="node4" class="node">
<title>CLAS&#45;CX_DYNAMIC_CHECK</title>
<g id="a_node4"><a xlink:href="./CLAS_CX_DYNAMIC_CHECK.html" xlink:title="CLAS&#45;CX_DYNAMIC_CHECK">
<polygon fill="none" stroke="green" points="600.33,-252 395.96,-252 395.96,-216 600.33,-216 600.33,-252"/>
<text text-anchor="middle" x="498.14" y="-229.8" font-family="Times,serif" font-size="14.00">CLAS&#45;CX_DYNAMIC_CHECK</text>
</a>
</g>
</g>
<!-- CLAS&#45;CX_TRANSFORMATION_ERROR&#45;&gt;CLAS&#45;CX_DYNAMIC_CHECK -->
<g id="edge6" class="edge">
<title>CLAS&#45;CX_TRANSFORMATION_ERROR&#45;&gt;CLAS&#45;CX_DYNAMIC_CHECK</title>
<path fill="none" stroke="black" d="M550.84,-287.7C542.28,-279.14 531.8,-268.66 522.45,-259.3"/>
<polygon fill="black" stroke="black" points="524.79,-256.7 515.25,-252.1 519.85,-261.65 524.79,-256.7"/>
</g>
<!-- CLAS&#45;CX_TRANSFORMATION_ERROR&#45;&gt;DTEL&#45;SOTR_CONC -->
<g id="edge5" class="edge">
<title>CLAS&#45;CX_TRANSFORMATION_ERROR&#45;&gt;DTEL&#45;SOTR_CONC</title>
<path fill="none" stroke="black" d="M582.57,-287.85C614.23,-250.21 689.94,-160.2 726.99,-116.15"/>
<polygon fill="black" stroke="black" points="729.89,-118.14 733.65,-108.23 724.53,-113.63 729.89,-118.14"/>
</g>
<!-- CLAS&#45;CX_ROOT -->
<g id="node5" class="node">
<title>CLAS&#45;CX_ROOT</title>
<g id="a_node5"><a xlink:href="./CLAS_CX_ROOT.html" xlink:title="CLAS&#45;CX_ROOT">
<polygon fill="none" stroke="green" points="528.63,-180 407.66,-180 407.66,-144 528.63,-144 528.63,-180"/>
<text text-anchor="middle" x="468.14" y="-157.8" font-family="Times,serif" font-size="14.00">CLAS&#45;CX_ROOT</text>
</a>
</g>
</g>
<!-- CLAS&#45;CX_DYNAMIC_CHECK&#45;&gt;CLAS&#45;CX_ROOT -->
<g id="edge7" class="edge">
<title>CLAS&#45;CX_DYNAMIC_CHECK&#45;&gt;CLAS&#45;CX_ROOT</title>
<path fill="none" stroke="black" d="M490.73,-215.7C487.35,-207.81 483.27,-198.3 479.52,-189.55"/>
<polygon fill="black" stroke="black" points="482.63,-187.92 475.47,-180.1 476.2,-190.67 482.63,-187.92"/>
</g>
<!-- INTF&#45;IF_SERIALIZABLE_OBJECT -->
<g id="node6" class="node">
<title>INTF&#45;IF_SERIALIZABLE_OBJECT</title>
<g id="a_node6"><a xlink:href="./INTF_IF_SERIALIZABLE_OBJECT.html" xlink:title="INTF&#45;IF_SERIALIZABLE_OBJECT">
<polygon fill="none" stroke="green" points="228.43,-108 -0.14,-108 -0.14,-72 228.43,-72 228.43,-108"/>
<text text-anchor="middle" x="114.14" y="-85.8" font-family="Times,serif" font-size="14.00">INTF&#45;IF_SERIALIZABLE_OBJECT</text>
</a>
</g>
</g>
<!-- CLAS&#45;CX_ROOT&#45;&gt;INTF&#45;IF_SERIALIZABLE_OBJECT -->
<g id="edge12" class="edge">
<title>CLAS&#45;CX_ROOT&#45;&gt;INTF&#45;IF_SERIALIZABLE_OBJECT</title>
<path fill="none" stroke="black" d="M407.29,-148.97C353.15,-138.26 273.07,-122.43 210.28,-110.01"/>
<polygon fill="black" stroke="black" points="210.84,-106.55 200.35,-108.05 209.48,-113.42 210.84,-106.55"/>
</g>
<!-- INTF&#45;IF_MESSAGE -->
<g id="node7" class="node">
<title>INTF&#45;IF_MESSAGE</title>
<g id="a_node7"><a xlink:href="./INTF_IF_MESSAGE.html" xlink:title="INTF&#45;IF_MESSAGE">
<polygon fill="none" stroke="green" points="382.18,-108 246.11,-108 246.11,-72 382.18,-72 382.18,-108"/>
<text text-anchor="middle" x="314.14" y="-85.8" font-family="Times,serif" font-size="14.00">INTF&#45;IF_MESSAGE</text>
</a>
</g>
</g>
<!-- CLAS&#45;CX_ROOT&#45;&gt;INTF&#45;IF_MESSAGE -->
<g id="edge11" class="edge">
<title>CLAS&#45;CX_ROOT&#45;&gt;INTF&#45;IF_MESSAGE</title>
<path fill="none" stroke="black" d="M430.47,-143.88C409.51,-134.35 383.24,-122.41 360.97,-112.28"/>
<polygon fill="black" stroke="black" points="362.25,-109.02 351.69,-108.07 359.35,-115.39 362.25,-109.02"/>
</g>
<!-- DTEL&#45;SYREPID -->
<g id="node8" class="node">
<title>DTEL&#45;SYREPID</title>
<g id="a_node8"><a xlink:href="./DTEL_SYREPID.html" xlink:title="DTEL&#45;SYREPID">
<polygon fill="none" stroke="green" points="515.4,-108 400.89,-108 400.89,-72 515.4,-72 515.4,-108"/>
<text text-anchor="middle" x="458.14" y="-85.8" font-family="Times,serif" font-size="14.00">DTEL&#45;SYREPID</text>
</a>
</g>
</g>
<!-- CLAS&#45;CX_ROOT&#45;&gt;DTEL&#45;SYREPID -->
<g id="edge10" class="edge">
<title>CLAS&#45;CX_ROOT&#45;&gt;DTEL&#45;SYREPID</title>
<path fill="none" stroke="black" d="M465.67,-143.7C464.57,-135.98 463.25,-126.71 462.02,-118.11"/>
<polygon fill="black" stroke="black" points="465.47,-117.51 460.59,-108.1 458.54,-118.5 465.47,-117.51"/>
</g>
<!-- DTEL&#45;S380ERRID -->
<g id="node10" class="node">
<title>DTEL&#45;S380ERRID</title>
<g id="a_node10"><a xlink:href="./DTEL_S380ERRID.html" xlink:title="DTEL&#45;S380ERRID">
<polygon fill="none" stroke="yellow" points="660.85,-108 533.44,-108 533.44,-72 660.85,-72 660.85,-108"/>
<text text-anchor="middle" x="597.14" y="-85.8" font-family="Times,serif" font-size="14.00">DTEL&#45;S380ERRID</text>
</a>
</g>
</g>
<!-- CLAS&#45;CX_ROOT&#45;&gt;DTEL&#45;S380ERRID -->
<g id="edge9" class="edge">
<title>CLAS&#45;CX_ROOT&#45;&gt;DTEL&#45;S380ERRID</title>
<path fill="none" stroke="black" d="M499.7,-143.88C516.8,-134.6 538.13,-123.03 556.46,-113.08"/>
<polygon fill="black" stroke="black" points="558.35,-116.04 565.47,-108.19 555.01,-109.88 558.35,-116.04"/>
</g>
<!-- CLAS&#45;CX_ROOT&#45;&gt;DTEL&#45;SOTR_CONC -->
<g id="edge8" class="edge">
<title>CLAS&#45;CX_ROOT&#45;&gt;DTEL&#45;SOTR_CONC</title>
<path fill="none" stroke="black" d="M528.9,-145.81C570.32,-135.46 625.54,-121.65 670.2,-110.49"/>
<polygon fill="black" stroke="black" points="671.29,-113.82 680.14,-108 669.59,-107.03 671.29,-113.82"/>
</g>
<!-- DOMA&#45;PROGRAMM -->
<g id="node9" class="node">
<title>DOMA&#45;PROGRAMM</title>
<g id="a_node9"><a xlink:href="./DOMA_PROGRAMM.html" xlink:title="DOMA&#45;PROGRAMM">
<polygon fill="none" stroke="yellow" points="511.73,-36 366.55,-36 366.55,0 511.73,0 511.73,-36"/>
<text text-anchor="middle" x="439.14" y="-13.8" font-family="Times,serif" font-size="14.00">DOMA&#45;PROGRAMM</text>
</a>
</g>
</g>
<!-- DTEL&#45;SYREPID&#45;&gt;DOMA&#45;PROGRAMM -->
<g id="edge13" class="edge">
<title>DTEL&#45;SYREPID&#45;&gt;DOMA&#45;PROGRAMM</title>
<path fill="none" stroke="black" d="M453.45,-71.7C451.33,-63.9 448.78,-54.51 446.43,-45.83"/>
<polygon fill="black" stroke="black" points="449.78,-44.84 443.79,-36.1 443.03,-46.67 449.78,-44.84"/>
</g>
<!-- DOMA&#45;SYCHAR30 -->
<g id="node11" class="node">
<title>DOMA&#45;SYCHAR30</title>
<g id="a_node11"><a xlink:href="./DOMA_SYCHAR30.html" xlink:title="DOMA&#45;SYCHAR30">
<polygon fill="none" stroke="yellow" points="664.35,-36 529.94,-36 529.94,0 664.35,0 664.35,-36"/>
<text text-anchor="middle" x="597.14" y="-13.8" font-family="Times,serif" font-size="14.00">DOMA&#45;SYCHAR30</text>
</a>
</g>
</g>
<!-- DTEL&#45;S380ERRID&#45;&gt;DOMA&#45;SYCHAR30 -->
<g id="edge14" class="edge">
<title>DTEL&#45;S380ERRID&#45;&gt;DOMA&#45;SYCHAR30</title>
<path fill="none" stroke="black" d="M597.14,-71.7C597.14,-63.98 597.14,-54.71 597.14,-46.11"/>
<polygon fill="black" stroke="black" points="600.64,-46.1 597.14,-36.1 593.64,-46.1 600.64,-46.1"/>
</g>
<!-- DOMA&#45;SYSUUID_C -->
<g id="node13" class="node">
<title>DOMA&#45;SYSUUID_C</title>
<g id="a_node13"><a xlink:href="./DOMA_SYSUUID_C.html" xlink:title="DOMA&#45;SYSUUID_C">
<polygon fill="none" stroke="yellow" points="822.56,-36 681.73,-36 681.73,0 822.56,0 822.56,-36"/>
<text text-anchor="middle" x="752.14" y="-13.8" font-family="Times,serif" font-size="14.00">DOMA&#45;SYSUUID_C</text>
</a>
</g>
</g>
<!-- DTEL&#45;SOTR_CONC&#45;&gt;DOMA&#45;SYSUUID_C -->
<g id="edge15" class="edge">
<title>DTEL&#45;SOTR_CONC&#45;&gt;DOMA&#45;SYSUUID_C</title>
<path fill="none" stroke="black" d="M749.13,-71.7C749.57,-63.98 750.1,-54.71 750.6,-46.11"/>
<polygon fill="black" stroke="black" points="754.09,-46.29 751.17,-36.1 747.1,-45.89 754.09,-46.29"/>
</g>
</g>
</svg>
