<?xml version="1.0" encoding="UTF-8" standalone="no"?>
<!DOCTYPE svg PUBLIC "-//W3C//DTD SVG 1.1//EN"
 "http://www.w3.org/Graphics/SVG/1.1/DTD/svg11.dtd">
<!-- Generated by graphviz version 2.47.3 (20210619.1520)
 -->
<!-- Title: G Pages: 1 -->
<svg width="251pt" height="188pt"
 viewBox="0.00 0.00 251.09 188.00" xmlns="http://www.w3.org/2000/svg" xmlns:xlink="http://www.w3.org/1999/xlink">
<g id="graph0" class="graph" transform="scale(1 1) rotate(0) translate(4 184)">
<title>G</title>
<polygon fill="white" stroke="transparent" points="-4,4 -4,-184 247.09,-184 247.09,4 -4,4"/>
<!-- CLAS&#45;CL_ABAP_CORRESPONDING -->
<g id="node1" class="node">
<title>CLAS&#45;CL_ABAP_CORRESPONDING</title>
<polygon fill="none" stroke="green" points="243.13,-180 -0.04,-180 -0.04,-144 243.13,-144 243.13,-180"/>
<text text-anchor="middle" x="121.54" y="-157.8" font-family="Times,serif" font-size="14.00">CLAS&#45;CL_ABAP_CORRESPONDING</text>
</g>
<!-- DTEL&#45;SYCHAR01 -->
<g id="node2" class="node">
<title>DTEL&#45;SYCHAR01</title>
<g id="a_node2"><a xlink:href="./DTEL_SYCHAR01.html" xlink:title="DTEL&#45;SYCHAR01">
<polygon fill="none" stroke="green" points="185.24,-108 57.84,-108 57.84,-72 185.24,-72 185.24,-108"/>
<text text-anchor="middle" x="121.54" y="-85.8" font-family="Times,serif" font-size="14.00">DTEL&#45;SYCHAR01</text>
</a>
</g>
</g>
<!-- CLAS&#45;CL_ABAP_CORRESPONDING&#45;&gt;DTEL&#45;SYCHAR01 -->
<g id="edge1" class="edge">
<title>CLAS&#45;CL_ABAP_CORRESPONDING&#45;&gt;DTEL&#45;SYCHAR01</title>
<path fill="none" stroke="black" d="M121.54,-143.7C121.54,-135.98 121.54,-126.71 121.54,-118.11"/>
<polygon fill="black" stroke="black" points="125.04,-118.1 121.54,-108.1 118.04,-118.1 125.04,-118.1"/>
</g>
<!-- DOMA&#45;SYCHAR01 -->
<g id="node3" class="node">
<title>DOMA&#45;SYCHAR01</title>
<g id="a_node3"><a xlink:href="./DOMA_SYCHAR01.html" xlink:title="DOMA&#45;SYCHAR01">
<polygon fill="none" stroke="yellow" points="188.74,-36 54.34,-36 54.34,0 188.74,0 188.74,-36"/>
<text text-anchor="middle" x="121.54" y="-13.8" font-family="Times,serif" font-size="14.00">DOMA&#45;SYCHAR01</text>
</a>
</g>
</g>
<!-- DTEL&#45;SYCHAR01&#45;&gt;DOMA&#45;SYCHAR01 -->
<g id="edge2" class="edge">
<title>DTEL&#45;SYCHAR01&#45;&gt;DOMA&#45;SYCHAR01</title>
<path fill="none" stroke="black" d="M121.54,-71.7C121.54,-63.98 121.54,-54.71 121.54,-46.11"/>
<polygon fill="black" stroke="black" points="125.04,-46.1 121.54,-36.1 118.04,-46.1 125.04,-46.1"/>
</g>
</g>
</svg>
