<?xml version="1.0" encoding="UTF-8" standalone="no"?>
<!DOCTYPE svg PUBLIC "-//W3C//DTD SVG 1.1//EN"
 "http://www.w3.org/Graphics/SVG/1.1/DTD/svg11.dtd">
<!-- Generated by graphviz version 2.47.3 (20210619.1520)
 -->
<!-- Title: G Pages: 1 -->
<svg width="1918pt" height="404pt"
 viewBox="0.00 0.00 1917.65 404.00" xmlns="http://www.w3.org/2000/svg" xmlns:xlink="http://www.w3.org/1999/xlink">
<g id="graph0" class="graph" transform="scale(1 1) rotate(0) translate(4 400)">
<title>G</title>
<polygon fill="white" stroke="transparent" points="-4,4 -4,-400 1913.65,-400 1913.65,4 -4,4"/>
<!-- CLAS&#45;/IWBEP/CX_CP -->
<g id="node1" class="node">
<title>CLAS&#45;/IWBEP/CX_CP</title>
<polygon fill="none" stroke="yellow" points="762.93,-396 611.27,-396 611.27,-360 762.93,-360 762.93,-396"/>
<text text-anchor="middle" x="687.1" y="-373.8" font-family="Times,serif" font-size="14.00">CLAS&#45;/IWBEP/CX_CP</text>
</g>
<!-- INTF&#45;/IWBEP/IF_V4_MESSAGE_CONTAINER -->
<g id="node2" class="node">
<title>INTF&#45;/IWBEP/IF_V4_MESSAGE_CONTAINER</title>
<g id="a_node2"><a xlink:href="./INTF_%23IWBEP%23IF_V4_MESSAGE_CONTAINER.html" xlink:title="INTF&#45;/IWBEP/IF_V4_MESSAGE_CONTAINER">
<polygon fill="none" stroke="yellow" points="560.93,-252 261.27,-252 261.27,-216 560.93,-216 560.93,-252"/>
<text text-anchor="middle" x="411.1" y="-229.8" font-family="Times,serif" font-size="14.00">INTF&#45;/IWBEP/IF_V4_MESSAGE_CONTAINER</text>
</a>
</g>
</g>
<!-- CLAS&#45;/IWBEP/CX_CP&#45;&gt;INTF&#45;/IWBEP/IF_V4_MESSAGE_CONTAINER -->
<g id="edge2" class="edge">
<title>CLAS&#45;/IWBEP/CX_CP&#45;&gt;INTF&#45;/IWBEP/IF_V4_MESSAGE_CONTAINER</title>
<path fill="none" stroke="black" d="M653.81,-359.87C603.66,-334.07 508.76,-285.25 453.66,-256.9"/>
<polygon fill="black" stroke="black" points="455,-253.65 444.51,-252.19 451.8,-259.88 455,-253.65"/>
</g>
<!-- CLAS&#45;/IWBEP/CX_GATEWAY -->
<g id="node13" class="node">
<title>CLAS&#45;/IWBEP/CX_GATEWAY</title>
<g id="a_node13"><a xlink:href="./CLAS_%23IWBEP%23CX_GATEWAY.html" xlink:title="CLAS&#45;/IWBEP/CX_GATEWAY">
<polygon fill="none" stroke="green" points="1064.56,-324 859.64,-324 859.64,-288 1064.56,-288 1064.56,-324"/>
<text text-anchor="middle" x="962.1" y="-301.8" font-family="Times,serif" font-size="14.00">CLAS&#45;/IWBEP/CX_GATEWAY</text>
</a>
</g>
</g>
<!-- CLAS&#45;/IWBEP/CX_CP&#45;&gt;CLAS&#45;/IWBEP/CX_GATEWAY -->
<g id="edge1" class="edge">
<title>CLAS&#45;/IWBEP/CX_CP&#45;&gt;CLAS&#45;/IWBEP/CX_GATEWAY</title>
<path fill="none" stroke="black" d="M754.02,-359.97C793.61,-349.89 843.92,-337.08 885.15,-326.59"/>
<polygon fill="black" stroke="black" points="886.05,-329.97 894.88,-324.11 884.32,-323.19 886.05,-329.97"/>
</g>
<!-- INTF&#45;IF_MESSAGE -->
<g id="node3" class="node">
<title>INTF&#45;IF_MESSAGE</title>
<g id="a_node3"><a xlink:href="./INTF_IF_MESSAGE.html" xlink:title="INTF&#45;IF_MESSAGE">
<polygon fill="none" stroke="green" points="767.14,-108 631.07,-108 631.07,-72 767.14,-72 767.14,-108"/>
<text text-anchor="middle" x="699.1" y="-85.8" font-family="Times,serif" font-size="14.00">INTF&#45;IF_MESSAGE</text>
</a>
</g>
</g>
<!-- INTF&#45;/IWBEP/IF_V4_MESSAGE_CONTAINER&#45;&gt;INTF&#45;IF_MESSAGE -->
<g id="edge8" class="edge">
<title>INTF&#45;/IWBEP/IF_V4_MESSAGE_CONTAINER&#45;&gt;INTF&#45;IF_MESSAGE</title>
<path fill="none" stroke="black" d="M454.09,-216C478.42,-206.07 509.26,-192.98 536.1,-180 579.75,-158.9 628.35,-131.88 661.04,-113.18"/>
<polygon fill="black" stroke="black" points="662.89,-116.15 669.82,-108.13 659.4,-110.08 662.89,-116.15"/>
</g>
<!-- TTYP&#45;/IWBEP/T_TARGET -->
<g id="node4" class="node">
<title>TTYP&#45;/IWBEP/T_TARGET</title>
<g id="a_node4"><a xlink:href="./TTYP_%23IWBEP%23T_TARGET.html" xlink:title="TTYP&#45;/IWBEP/T_TARGET">
<polygon fill="none" stroke="yellow" points="499.84,-180 322.36,-180 322.36,-144 499.84,-144 499.84,-180"/>
<text text-anchor="middle" x="411.1" y="-157.8" font-family="Times,serif" font-size="14.00">TTYP&#45;/IWBEP/T_TARGET</text>
</a>
</g>
</g>
<!-- INTF&#45;/IWBEP/IF_V4_MESSAGE_CONTAINER&#45;&gt;TTYP&#45;/IWBEP/T_TARGET -->
<g id="edge7" class="edge">
<title>INTF&#45;/IWBEP/IF_V4_MESSAGE_CONTAINER&#45;&gt;TTYP&#45;/IWBEP/T_TARGET</title>
<path fill="none" stroke="black" d="M411.1,-215.7C411.1,-207.98 411.1,-198.71 411.1,-190.11"/>
<polygon fill="black" stroke="black" points="414.6,-190.1 411.1,-180.1 407.6,-190.1 414.6,-190.1"/>
</g>
<!-- DTEL&#45;SYMSGV -->
<g id="node5" class="node">
<title>DTEL&#45;SYMSGV</title>
<g id="a_node5"><a xlink:href="./DTEL_SYMSGV.html" xlink:title="DTEL&#45;SYMSGV">
<polygon fill="none" stroke="green" points="124.36,-180 9.85,-180 9.85,-144 124.36,-144 124.36,-180"/>
<text text-anchor="middle" x="67.1" y="-157.8" font-family="Times,serif" font-size="14.00">DTEL&#45;SYMSGV</text>
</a>
</g>
</g>
<!-- INTF&#45;/IWBEP/IF_V4_MESSAGE_CONTAINER&#45;&gt;DTEL&#45;SYMSGV -->
<g id="edge6" class="edge">
<title>INTF&#45;/IWBEP/IF_V4_MESSAGE_CONTAINER&#45;&gt;DTEL&#45;SYMSGV</title>
<path fill="none" stroke="black" d="M327.39,-215.97C268.13,-203.91 189.69,-187.95 134.47,-176.71"/>
<polygon fill="black" stroke="black" points="134.93,-173.23 124.44,-174.67 133.54,-180.09 134.93,-173.23"/>
</g>
<!-- DTEL&#45;SYMSGNO -->
<g id="node7" class="node">
<title>DTEL&#45;SYMSGNO</title>
<g id="a_node7"><a xlink:href="./DTEL_SYMSGNO.html" xlink:title="DTEL&#45;SYMSGNO">
<polygon fill="none" stroke="green" points="910.46,-108 785.74,-108 785.74,-72 910.46,-72 910.46,-108"/>
<text text-anchor="middle" x="848.1" y="-85.8" font-family="Times,serif" font-size="14.00">DTEL&#45;SYMSGNO</text>
</a>
</g>
</g>
<!-- INTF&#45;/IWBEP/IF_V4_MESSAGE_CONTAINER&#45;&gt;DTEL&#45;SYMSGNO -->
<g id="edge5" class="edge">
<title>INTF&#45;/IWBEP/IF_V4_MESSAGE_CONTAINER&#45;&gt;DTEL&#45;SYMSGNO</title>
<path fill="none" stroke="black" d="M468.11,-215.97C501.9,-205.77 545.52,-192.41 584.1,-180 654.75,-157.27 735.56,-129.81 788.96,-111.46"/>
<polygon fill="black" stroke="black" points="790.29,-114.71 798.61,-108.14 788.01,-108.09 790.29,-114.71"/>
</g>
<!-- DTEL&#45;SYMSGID -->
<g id="node9" class="node">
<title>DTEL&#45;SYMSGID</title>
<g id="a_node9"><a xlink:href="./DTEL_SYMSGID.html" xlink:title="DTEL&#45;SYMSGID">
<polygon fill="none" stroke="green" points="613.02,-108 493.18,-108 493.18,-72 613.02,-72 613.02,-108"/>
<text text-anchor="middle" x="553.1" y="-85.8" font-family="Times,serif" font-size="14.00">DTEL&#45;SYMSGID</text>
</a>
</g>
</g>
<!-- INTF&#45;/IWBEP/IF_V4_MESSAGE_CONTAINER&#45;&gt;DTEL&#45;SYMSGID -->
<g id="edge4" class="edge">
<title>INTF&#45;/IWBEP/IF_V4_MESSAGE_CONTAINER&#45;&gt;DTEL&#45;SYMSGID</title>
<path fill="none" stroke="black" d="M455.96,-215.89C474.16,-207.26 494.33,-195.32 509.1,-180 526.03,-162.43 537.69,-137.08 544.74,-117.92"/>
<polygon fill="black" stroke="black" points="548.11,-118.87 548.09,-108.28 541.5,-116.57 548.11,-118.87"/>
</g>
<!-- DTEL&#45;SYMSGTY -->
<g id="node11" class="node">
<title>DTEL&#45;SYMSGTY</title>
<g id="a_node11"><a xlink:href="./DTEL_SYMSGTY.html" xlink:title="DTEL&#45;SYMSGTY">
<polygon fill="none" stroke="green" points="303.91,-180 180.29,-180 180.29,-144 303.91,-144 303.91,-180"/>
<text text-anchor="middle" x="242.1" y="-157.8" font-family="Times,serif" font-size="14.00">DTEL&#45;SYMSGTY</text>
</a>
</g>
</g>
<!-- INTF&#45;/IWBEP/IF_V4_MESSAGE_CONTAINER&#45;&gt;DTEL&#45;SYMSGTY -->
<g id="edge3" class="edge">
<title>INTF&#45;/IWBEP/IF_V4_MESSAGE_CONTAINER&#45;&gt;DTEL&#45;SYMSGTY</title>
<path fill="none" stroke="black" d="M369.76,-215.88C346.55,-206.26 317.41,-194.19 292.83,-184.01"/>
<polygon fill="black" stroke="black" points="293.89,-180.66 283.31,-180.07 291.21,-187.13 293.89,-180.66"/>
</g>
<!-- DOMA&#45;SYCHAR50 -->
<g id="node6" class="node">
<title>DOMA&#45;SYCHAR50</title>
<g id="a_node6"><a xlink:href="./DOMA_SYCHAR50.html" xlink:title="DOMA&#45;SYCHAR50">
<polygon fill="none" stroke="yellow" points="134.3,-108 -0.1,-108 -0.1,-72 134.3,-72 134.3,-108"/>
<text text-anchor="middle" x="67.1" y="-85.8" font-family="Times,serif" font-size="14.00">DOMA&#45;SYCHAR50</text>
</a>
</g>
</g>
<!-- DTEL&#45;SYMSGV&#45;&gt;DOMA&#45;SYCHAR50 -->
<g id="edge9" class="edge">
<title>DTEL&#45;SYMSGV&#45;&gt;DOMA&#45;SYCHAR50</title>
<path fill="none" stroke="black" d="M67.1,-143.7C67.1,-135.98 67.1,-126.71 67.1,-118.11"/>
<polygon fill="black" stroke="black" points="70.6,-118.1 67.1,-108.1 63.6,-118.1 70.6,-118.1"/>
</g>
<!-- DOMA&#45;SYMSGNO -->
<g id="node8" class="node">
<title>DOMA&#45;SYMSGNO</title>
<g id="a_node8"><a xlink:href="./DOMA_SYMSGNO.html" xlink:title="DOMA&#45;SYMSGNO">
<polygon fill="none" stroke="yellow" points="913.96,-36 782.24,-36 782.24,0 913.96,0 913.96,-36"/>
<text text-anchor="middle" x="848.1" y="-13.8" font-family="Times,serif" font-size="14.00">DOMA&#45;SYMSGNO</text>
</a>
</g>
</g>
<!-- DTEL&#45;SYMSGNO&#45;&gt;DOMA&#45;SYMSGNO -->
<g id="edge10" class="edge">
<title>DTEL&#45;SYMSGNO&#45;&gt;DOMA&#45;SYMSGNO</title>
<path fill="none" stroke="black" d="M848.1,-71.7C848.1,-63.98 848.1,-54.71 848.1,-46.11"/>
<polygon fill="black" stroke="black" points="851.6,-46.1 848.1,-36.1 844.6,-46.1 851.6,-46.1"/>
</g>
<!-- DOMA&#45;ARBGB -->
<g id="node10" class="node">
<title>DOMA&#45;ARBGB</title>
<g id="a_node10"><a xlink:href="./DOMA_ARBGB.html" xlink:title="DOMA&#45;ARBGB">
<polygon fill="none" stroke="yellow" points="608.75,-36 497.45,-36 497.45,0 608.75,0 608.75,-36"/>
<text text-anchor="middle" x="553.1" y="-13.8" font-family="Times,serif" font-size="14.00">DOMA&#45;ARBGB</text>
</a>
</g>
</g>
<!-- DTEL&#45;SYMSGID&#45;&gt;DOMA&#45;ARBGB -->
<g id="edge11" class="edge">
<title>DTEL&#45;SYMSGID&#45;&gt;DOMA&#45;ARBGB</title>
<path fill="none" stroke="black" d="M553.1,-71.7C553.1,-63.98 553.1,-54.71 553.1,-46.11"/>
<polygon fill="black" stroke="black" points="556.6,-46.1 553.1,-36.1 549.6,-46.1 556.6,-46.1"/>
</g>
<!-- DOMA&#45;SYCHAR01 -->
<g id="node12" class="node">
<title>DOMA&#45;SYCHAR01</title>
<g id="a_node12"><a xlink:href="./DOMA_SYCHAR01.html" xlink:title="DOMA&#45;SYCHAR01">
<polygon fill="none" stroke="yellow" points="298.3,-108 163.9,-108 163.9,-72 298.3,-72 298.3,-108"/>
<text text-anchor="middle" x="231.1" y="-85.8" font-family="Times,serif" font-size="14.00">DOMA&#45;SYCHAR01</text>
</a>
</g>
</g>
<!-- DTEL&#45;SYMSGTY&#45;&gt;DOMA&#45;SYCHAR01 -->
<g id="edge12" class="edge">
<title>DTEL&#45;SYMSGTY&#45;&gt;DOMA&#45;SYCHAR01</title>
<path fill="none" stroke="black" d="M239.38,-143.7C238.17,-135.98 236.71,-126.71 235.36,-118.11"/>
<polygon fill="black" stroke="black" points="238.8,-117.44 233.79,-108.1 231.88,-118.53 238.8,-117.44"/>
</g>
<!-- CLAS&#45;/IWBEP/CX_GATEWAY&#45;&gt;INTF&#45;/IWBEP/IF_V4_MESSAGE_CONTAINER -->
<g id="edge22" class="edge">
<title>CLAS&#45;/IWBEP/CX_GATEWAY&#45;&gt;INTF&#45;/IWBEP/IF_V4_MESSAGE_CONTAINER</title>
<path fill="none" stroke="black" d="M859.43,-291.96C773.73,-281.07 650.59,-265.43 555.05,-253.29"/>
<polygon fill="black" stroke="black" points="555.37,-249.8 545.01,-252.01 554.49,-256.74 555.37,-249.8"/>
</g>
<!-- CLAS&#45;/IWBEP/CX_GATEWAY&#45;&gt;DTEL&#45;SYMSGNO -->
<g id="edge14" class="edge">
<title>CLAS&#45;/IWBEP/CX_GATEWAY&#45;&gt;DTEL&#45;SYMSGNO</title>
<path fill="none" stroke="black" d="M961.65,-287.94C960.06,-256.73 953,-189.51 922.1,-144 913.96,-132.01 902.15,-121.8 890.35,-113.65"/>
<polygon fill="black" stroke="black" points="892.09,-110.61 881.81,-108.07 888.27,-116.47 892.09,-110.61"/>
</g>
<!-- CLAS&#45;/IWBEP/CX_GATEWAY&#45;&gt;DTEL&#45;SYMSGID -->
<g id="edge13" class="edge">
<title>CLAS&#45;/IWBEP/CX_GATEWAY&#45;&gt;DTEL&#45;SYMSGID</title>
<path fill="none" stroke="black" d="M859.62,-289.95C820.4,-281.85 776.01,-269.75 738.1,-252 668.2,-219.27 604.52,-152.15 573.31,-115.77"/>
<polygon fill="black" stroke="black" points="575.93,-113.44 566.8,-108.07 570.58,-117.97 575.93,-113.44"/>
</g>
<!-- INTF&#45;IF_T100_MESSAGE -->
<g id="node14" class="node">
<title>INTF&#45;IF_T100_MESSAGE</title>
<g id="a_node14"><a xlink:href="./INTF_IF_T100_MESSAGE.html" xlink:title="INTF&#45;IF_T100_MESSAGE">
<polygon fill="none" stroke="green" points="920.69,-252 747.51,-252 747.51,-216 920.69,-216 920.69,-252"/>
<text text-anchor="middle" x="834.1" y="-229.8" font-family="Times,serif" font-size="14.00">INTF&#45;IF_T100_MESSAGE</text>
</a>
</g>
</g>
<!-- CLAS&#45;/IWBEP/CX_GATEWAY&#45;&gt;INTF&#45;IF_T100_MESSAGE -->
<g id="edge21" class="edge">
<title>CLAS&#45;/IWBEP/CX_GATEWAY&#45;&gt;INTF&#45;IF_T100_MESSAGE</title>
<path fill="none" stroke="black" d="M930.79,-287.88C913.9,-278.64 892.85,-267.13 874.72,-257.21"/>
<polygon fill="black" stroke="black" points="875.99,-253.92 865.53,-252.19 872.63,-260.06 875.99,-253.92"/>
</g>
<!-- DTEL&#45;SCX_ATTRNAME -->
<g id="node16" class="node">
<title>DTEL&#45;SCX_ATTRNAME</title>
<g id="a_node16"><a xlink:href="./DTEL_SCX_ATTRNAME.html" xlink:title="DTEL&#45;SCX_ATTRNAME">
<polygon fill="none" stroke="green" points="1097.51,-108 928.69,-108 928.69,-72 1097.51,-72 1097.51,-108"/>
<text text-anchor="middle" x="1013.1" y="-85.8" font-family="Times,serif" font-size="14.00">DTEL&#45;SCX_ATTRNAME</text>
</a>
</g>
</g>
<!-- CLAS&#45;/IWBEP/CX_GATEWAY&#45;&gt;DTEL&#45;SCX_ATTRNAME -->
<g id="edge18" class="edge">
<title>CLAS&#45;/IWBEP/CX_GATEWAY&#45;&gt;DTEL&#45;SCX_ATTRNAME</title>
<path fill="none" stroke="black" d="M1064.6,-299.19C1188.5,-291.19 1383.54,-275.12 1408.1,-252 1431.78,-229.71 1418.2,-212.39 1421.1,-180 1422.53,-164.06 1431.66,-156.02 1421.1,-144 1410.81,-132.28 1224.64,-111.88 1107.38,-100.1"/>
<polygon fill="black" stroke="black" points="1107.61,-96.61 1097.31,-99.1 1106.91,-103.57 1107.61,-96.61"/>
</g>
<!-- CLAS&#45;CX_STATIC_CHECK -->
<g id="node17" class="node">
<title>CLAS&#45;CX_STATIC_CHECK</title>
<g id="a_node17"><a xlink:href="./CLAS_CX_STATIC_CHECK.html" xlink:title="CLAS&#45;CX_STATIC_CHECK">
<polygon fill="none" stroke="green" points="1654.41,-252 1467.79,-252 1467.79,-216 1654.41,-216 1654.41,-252"/>
<text text-anchor="middle" x="1561.1" y="-229.8" font-family="Times,serif" font-size="14.00">CLAS&#45;CX_STATIC_CHECK</text>
</a>
</g>
</g>
<!-- CLAS&#45;/IWBEP/CX_GATEWAY&#45;&gt;CLAS&#45;CX_STATIC_CHECK -->
<g id="edge20" class="edge">
<title>CLAS&#45;/IWBEP/CX_GATEWAY&#45;&gt;CLAS&#45;CX_STATIC_CHECK</title>
<path fill="none" stroke="black" d="M1064.99,-295.43C1164.66,-285.81 1319.98,-269.87 1454.1,-252 1455.22,-251.85 1456.34,-251.7 1457.47,-251.55"/>
<polygon fill="black" stroke="black" points="1458.35,-254.96 1467.77,-250.11 1457.38,-248.03 1458.35,-254.96"/>
</g>
<!-- DTEL&#45;BAPI_MTYPE -->
<g id="node26" class="node">
<title>DTEL&#45;BAPI_MTYPE</title>
<g id="a_node26"><a xlink:href="./DTEL_BAPI_MTYPE.html" xlink:title="DTEL&#45;BAPI_MTYPE">
<polygon fill="none" stroke="green" points="233.35,-252 90.85,-252 90.85,-216 233.35,-216 233.35,-252"/>
<text text-anchor="middle" x="162.1" y="-229.8" font-family="Times,serif" font-size="14.00">DTEL&#45;BAPI_MTYPE</text>
</a>
</g>
</g>
<!-- CLAS&#45;/IWBEP/CX_GATEWAY&#45;&gt;DTEL&#45;BAPI_MTYPE -->
<g id="edge19" class="edge">
<title>CLAS&#45;/IWBEP/CX_GATEWAY&#45;&gt;DTEL&#45;BAPI_MTYPE</title>
<path fill="none" stroke="black" d="M859.44,-300.95C721.05,-294.68 467.18,-280.25 252.1,-252 249.39,-251.64 246.63,-251.26 243.85,-250.85"/>
<polygon fill="black" stroke="black" points="244.12,-247.35 233.71,-249.28 243.05,-254.27 244.12,-247.35"/>
</g>
<!-- DTEL&#45;NUMC10 -->
<g id="node27" class="node">
<title>DTEL&#45;NUMC10</title>
<g id="a_node27"><a xlink:href="./DTEL_NUMC10.html" xlink:title="DTEL&#45;NUMC10">
<polygon fill="none" stroke="yellow" points="1123.52,-252 1010.68,-252 1010.68,-216 1123.52,-216 1123.52,-252"/>
<text text-anchor="middle" x="1067.1" y="-229.8" font-family="Times,serif" font-size="14.00">DTEL&#45;NUMC10</text>
</a>
</g>
</g>
<!-- CLAS&#45;/IWBEP/CX_GATEWAY&#45;&gt;DTEL&#45;NUMC10 -->
<g id="edge17" class="edge">
<title>CLAS&#45;/IWBEP/CX_GATEWAY&#45;&gt;DTEL&#45;NUMC10</title>
<path fill="none" stroke="black" d="M987.79,-287.88C1001.39,-278.81 1018.27,-267.55 1032.96,-257.76"/>
<polygon fill="black" stroke="black" points="1034.94,-260.65 1041.32,-252.19 1031.05,-254.82 1034.94,-260.65"/>
</g>
<!-- DTEL&#45;NUMC3 -->
<g id="node29" class="node">
<title>DTEL&#45;NUMC3</title>
<g id="a_node29"><a xlink:href="./DTEL_NUMC3.html" xlink:title="DTEL&#45;NUMC3">
<polygon fill="none" stroke="yellow" points="1261.02,-252 1155.18,-252 1155.18,-216 1261.02,-216 1261.02,-252"/>
<text text-anchor="middle" x="1208.1" y="-229.8" font-family="Times,serif" font-size="14.00">DTEL&#45;NUMC3</text>
</a>
</g>
</g>
<!-- CLAS&#45;/IWBEP/CX_GATEWAY&#45;&gt;DTEL&#45;NUMC3 -->
<g id="edge16" class="edge">
<title>CLAS&#45;/IWBEP/CX_GATEWAY&#45;&gt;DTEL&#45;NUMC3</title>
<path fill="none" stroke="black" d="M1021.96,-287.97C1059.3,-277.34 1107.29,-263.69 1145.19,-252.9"/>
<polygon fill="black" stroke="black" points="1146.43,-256.19 1155.09,-250.08 1144.52,-249.45 1146.43,-256.19"/>
</g>
<!-- DTEL&#45;CHAR30 -->
<g id="node31" class="node">
<title>DTEL&#45;CHAR30</title>
<g id="a_node31"><a xlink:href="./DTEL_CHAR30.html" xlink:title="DTEL&#45;CHAR30">
<polygon fill="none" stroke="yellow" points="1398.91,-252 1289.29,-252 1289.29,-216 1398.91,-216 1398.91,-252"/>
<text text-anchor="middle" x="1344.1" y="-229.8" font-family="Times,serif" font-size="14.00">DTEL&#45;CHAR30</text>
</a>
</g>
</g>
<!-- CLAS&#45;/IWBEP/CX_GATEWAY&#45;&gt;DTEL&#45;CHAR30 -->
<g id="edge15" class="edge">
<title>CLAS&#45;/IWBEP/CX_GATEWAY&#45;&gt;DTEL&#45;CHAR30</title>
<path fill="none" stroke="black" d="M1064.68,-288.81C1124.71,-278.97 1201.88,-265.7 1270.1,-252 1273.11,-251.4 1276.17,-250.76 1279.27,-250.11"/>
<polygon fill="black" stroke="black" points="1280.18,-253.49 1289.22,-247.96 1278.7,-246.65 1280.18,-253.49"/>
</g>
<!-- INTF&#45;IF_T100_MESSAGE&#45;&gt;INTF&#45;IF_MESSAGE -->
<g id="edge27" class="edge">
<title>INTF&#45;IF_T100_MESSAGE&#45;&gt;INTF&#45;IF_MESSAGE</title>
<path fill="none" stroke="black" d="M788.79,-215.96C770.83,-207.39 751.16,-195.49 737.1,-180 721.11,-162.39 711.19,-137.04 705.51,-117.9"/>
<polygon fill="black" stroke="black" points="708.88,-116.97 702.85,-108.26 702.13,-118.83 708.88,-116.97"/>
</g>
<!-- INTF&#45;IF_T100_MESSAGE&#45;&gt;DTEL&#45;SYMSGNO -->
<g id="edge24" class="edge">
<title>INTF&#45;IF_T100_MESSAGE&#45;&gt;DTEL&#45;SYMSGNO</title>
<path fill="none" stroke="black" d="M869.27,-215.94C883.08,-207.25 897.45,-195.26 905.1,-180 912.27,-165.7 911.49,-158.67 905.1,-144 900.17,-132.68 891.49,-122.68 882.37,-114.51"/>
<polygon fill="black" stroke="black" points="884.6,-111.81 874.68,-108.09 880.11,-117.19 884.6,-111.81"/>
</g>
<!-- INTF&#45;IF_T100_MESSAGE&#45;&gt;DTEL&#45;SYMSGID -->
<g id="edge23" class="edge">
<title>INTF&#45;IF_T100_MESSAGE&#45;&gt;DTEL&#45;SYMSGID</title>
<path fill="none" stroke="black" d="M791.47,-215.94C767.56,-206.05 737.35,-193 711.1,-180 668.73,-159.01 621.7,-132.02 590.06,-113.29"/>
<polygon fill="black" stroke="black" points="591.54,-110.1 581.15,-108 587.96,-116.12 591.54,-110.1"/>
</g>
<!-- TABL&#45;SCX_T100KEY -->
<g id="node15" class="node">
<title>TABL&#45;SCX_T100KEY</title>
<g id="a_node15"><a xlink:href="./TABL_SCX_T100KEY.html" xlink:title="TABL&#45;SCX_T100KEY">
<polygon fill="none" stroke="yellow" points="895.85,-180 746.35,-180 746.35,-144 895.85,-144 895.85,-180"/>
<text text-anchor="middle" x="821.1" y="-157.8" font-family="Times,serif" font-size="14.00">TABL&#45;SCX_T100KEY</text>
</a>
</g>
</g>
<!-- INTF&#45;IF_T100_MESSAGE&#45;&gt;TABL&#45;SCX_T100KEY -->
<g id="edge26" class="edge">
<title>INTF&#45;IF_T100_MESSAGE&#45;&gt;TABL&#45;SCX_T100KEY</title>
<path fill="none" stroke="black" d="M830.89,-215.7C829.45,-207.98 827.73,-198.71 826.14,-190.11"/>
<polygon fill="black" stroke="black" points="829.54,-189.3 824.28,-180.1 822.66,-190.58 829.54,-189.3"/>
</g>
<!-- INTF&#45;IF_T100_MESSAGE&#45;&gt;DTEL&#45;SCX_ATTRNAME -->
<g id="edge25" class="edge">
<title>INTF&#45;IF_T100_MESSAGE&#45;&gt;DTEL&#45;SCX_ATTRNAME</title>
<path fill="none" stroke="black" d="M866.62,-215.81C883.75,-206.18 904.75,-193.42 922.1,-180 947.34,-160.48 973.05,-134.67 990.68,-115.88"/>
<polygon fill="black" stroke="black" points="993.48,-118 997.71,-108.29 988.35,-113.24 993.48,-118"/>
</g>
<!-- TABL&#45;SCX_T100KEY&#45;&gt;DTEL&#45;SYMSGNO -->
<g id="edge29" class="edge">
<title>TABL&#45;SCX_T100KEY&#45;&gt;DTEL&#45;SYMSGNO</title>
<path fill="none" stroke="black" d="M827.77,-143.7C830.82,-135.81 834.48,-126.3 837.86,-117.55"/>
<polygon fill="black" stroke="black" points="841.17,-118.69 841.5,-108.1 834.64,-116.17 841.17,-118.69"/>
</g>
<!-- TABL&#45;SCX_T100KEY&#45;&gt;DTEL&#45;SYMSGID -->
<g id="edge28" class="edge">
<title>TABL&#45;SCX_T100KEY&#45;&gt;DTEL&#45;SYMSGID</title>
<path fill="none" stroke="black" d="M755.88,-143.97C715.66,-133.46 664.1,-119.99 623.03,-109.27"/>
<polygon fill="black" stroke="black" points="623.66,-105.81 613.1,-106.67 621.89,-112.59 623.66,-105.81"/>
</g>
<!-- TABL&#45;SCX_T100KEY&#45;&gt;DTEL&#45;SCX_ATTRNAME -->
<g id="edge30" class="edge">
<title>TABL&#45;SCX_T100KEY&#45;&gt;DTEL&#45;SCX_ATTRNAME</title>
<path fill="none" stroke="black" d="M868.07,-143.88C894.78,-134.14 928.42,-121.87 956.58,-111.61"/>
<polygon fill="black" stroke="black" points="958.09,-114.78 966.28,-108.07 955.69,-108.21 958.09,-114.78"/>
</g>
<!-- CLAS&#45;CX_ROOT -->
<g id="node18" class="node">
<title>CLAS&#45;CX_ROOT</title>
<g id="a_node18"><a xlink:href="./CLAS_CX_ROOT.html" xlink:title="CLAS&#45;CX_ROOT">
<polygon fill="none" stroke="green" points="1607.58,-180 1486.62,-180 1486.62,-144 1607.58,-144 1607.58,-180"/>
<text text-anchor="middle" x="1547.1" y="-157.8" font-family="Times,serif" font-size="14.00">CLAS&#45;CX_ROOT</text>
</a>
</g>
</g>
<!-- CLAS&#45;CX_STATIC_CHECK&#45;&gt;CLAS&#45;CX_ROOT -->
<g id="edge31" class="edge">
<title>CLAS&#45;CX_STATIC_CHECK&#45;&gt;CLAS&#45;CX_ROOT</title>
<path fill="none" stroke="black" d="M1557.64,-215.7C1556.1,-207.98 1554.24,-198.71 1552.52,-190.11"/>
<polygon fill="black" stroke="black" points="1555.91,-189.22 1550.52,-180.1 1549.05,-190.6 1555.91,-189.22"/>
</g>
<!-- CLAS&#45;CX_ROOT&#45;&gt;INTF&#45;IF_MESSAGE -->
<g id="edge35" class="edge">
<title>CLAS&#45;CX_ROOT&#45;&gt;INTF&#45;IF_MESSAGE</title>
<path fill="none" stroke="black" d="M1486.33,-151.82C1465.67,-148.96 1442.41,-146.03 1421.1,-144 1139.07,-117.13 1062.93,-145.95 777.71,-107.93"/>
<polygon fill="black" stroke="black" points="777.85,-104.41 767.47,-106.55 776.92,-111.35 777.85,-104.41"/>
</g>
<!-- INTF&#45;IF_SERIALIZABLE_OBJECT -->
<g id="node19" class="node">
<title>INTF&#45;IF_SERIALIZABLE_OBJECT</title>
<g id="a_node19"><a xlink:href="./INTF_IF_SERIALIZABLE_OBJECT.html" xlink:title="INTF&#45;IF_SERIALIZABLE_OBJECT">
<polygon fill="none" stroke="green" points="1761.39,-108 1532.81,-108 1532.81,-72 1761.39,-72 1761.39,-108"/>
<text text-anchor="middle" x="1647.1" y="-85.8" font-family="Times,serif" font-size="14.00">INTF&#45;IF_SERIALIZABLE_OBJECT</text>
</a>
</g>
</g>
<!-- CLAS&#45;CX_ROOT&#45;&gt;INTF&#45;IF_SERIALIZABLE_OBJECT -->
<g id="edge36" class="edge">
<title>CLAS&#45;CX_ROOT&#45;&gt;INTF&#45;IF_SERIALIZABLE_OBJECT</title>
<path fill="none" stroke="black" d="M1571.56,-143.88C1584.4,-134.89 1600.3,-123.76 1614.19,-114.03"/>
<polygon fill="black" stroke="black" points="1616.36,-116.79 1622.54,-108.19 1612.34,-111.06 1616.36,-116.79"/>
</g>
<!-- DTEL&#45;SYREPID -->
<g id="node20" class="node">
<title>DTEL&#45;SYREPID</title>
<g id="a_node20"><a xlink:href="./DTEL_SYREPID.html" xlink:title="DTEL&#45;SYREPID">
<polygon fill="none" stroke="green" points="1894.35,-108 1779.85,-108 1779.85,-72 1894.35,-72 1894.35,-108"/>
<text text-anchor="middle" x="1837.1" y="-85.8" font-family="Times,serif" font-size="14.00">DTEL&#45;SYREPID</text>
</a>
</g>
</g>
<!-- CLAS&#45;CX_ROOT&#45;&gt;DTEL&#45;SYREPID -->
<g id="edge34" class="edge">
<title>CLAS&#45;CX_ROOT&#45;&gt;DTEL&#45;SYREPID</title>
<path fill="none" stroke="black" d="M1607.73,-146.85C1650.34,-136.85 1708.91,-122.98 1769.92,-108.03"/>
<polygon fill="black" stroke="black" points="1770.86,-111.4 1779.73,-105.62 1769.19,-104.6 1770.86,-111.4"/>
</g>
<!-- DTEL&#45;S380ERRID -->
<g id="node22" class="node">
<title>DTEL&#45;S380ERRID</title>
<g id="a_node22"><a xlink:href="./DTEL_S380ERRID.html" xlink:title="DTEL&#45;S380ERRID">
<polygon fill="none" stroke="yellow" points="1356.8,-108 1229.4,-108 1229.4,-72 1356.8,-72 1356.8,-108"/>
<text text-anchor="middle" x="1293.1" y="-85.8" font-family="Times,serif" font-size="14.00">DTEL&#45;S380ERRID</text>
</a>
</g>
</g>
<!-- CLAS&#45;CX_ROOT&#45;&gt;DTEL&#45;S380ERRID -->
<g id="edge33" class="edge">
<title>CLAS&#45;CX_ROOT&#45;&gt;DTEL&#45;S380ERRID</title>
<path fill="none" stroke="black" d="M1486.58,-144.32C1450.08,-134.26 1403.37,-121.39 1364.99,-110.81"/>
<polygon fill="black" stroke="black" points="1365.49,-107.32 1354.92,-108.04 1363.63,-114.07 1365.49,-107.32"/>
</g>
<!-- DTEL&#45;SOTR_CONC -->
<g id="node24" class="node">
<title>DTEL&#45;SOTR_CONC</title>
<g id="a_node24"><a xlink:href="./DTEL_SOTR_CONC.html" xlink:title="DTEL&#45;SOTR_CONC">
<polygon fill="none" stroke="yellow" points="1515.19,-108 1377.01,-108 1377.01,-72 1515.19,-72 1515.19,-108"/>
<text text-anchor="middle" x="1446.1" y="-85.8" font-family="Times,serif" font-size="14.00">DTEL&#45;SOTR_CONC</text>
</a>
</g>
</g>
<!-- CLAS&#45;CX_ROOT&#45;&gt;DTEL&#45;SOTR_CONC -->
<g id="edge32" class="edge">
<title>CLAS&#45;CX_ROOT&#45;&gt;DTEL&#45;SOTR_CONC</title>
<path fill="none" stroke="black" d="M1522.39,-143.88C1509.43,-134.89 1493.37,-123.76 1479.34,-114.03"/>
<polygon fill="black" stroke="black" points="1481.12,-111.01 1470.9,-108.19 1477.13,-116.76 1481.12,-111.01"/>
</g>
<!-- DOMA&#45;PROGRAMM -->
<g id="node21" class="node">
<title>DOMA&#45;PROGRAMM</title>
<g id="a_node21"><a xlink:href="./DOMA_PROGRAMM.html" xlink:title="DOMA&#45;PROGRAMM">
<polygon fill="none" stroke="yellow" points="1909.69,-36 1764.51,-36 1764.51,0 1909.69,0 1909.69,-36"/>
<text text-anchor="middle" x="1837.1" y="-13.8" font-family="Times,serif" font-size="14.00">DOMA&#45;PROGRAMM</text>
</a>
</g>
</g>
<!-- DTEL&#45;SYREPID&#45;&gt;DOMA&#45;PROGRAMM -->
<g id="edge37" class="edge">
<title>DTEL&#45;SYREPID&#45;&gt;DOMA&#45;PROGRAMM</title>
<path fill="none" stroke="black" d="M1837.1,-71.7C1837.1,-63.98 1837.1,-54.71 1837.1,-46.11"/>
<polygon fill="black" stroke="black" points="1840.6,-46.1 1837.1,-36.1 1833.6,-46.1 1840.6,-46.1"/>
</g>
<!-- DOMA&#45;SYCHAR30 -->
<g id="node23" class="node">
<title>DOMA&#45;SYCHAR30</title>
<g id="a_node23"><a xlink:href="./DOMA_SYCHAR30.html" xlink:title="DOMA&#45;SYCHAR30">
<polygon fill="none" stroke="yellow" points="1359.3,-36 1224.9,-36 1224.9,0 1359.3,0 1359.3,-36"/>
<text text-anchor="middle" x="1292.1" y="-13.8" font-family="Times,serif" font-size="14.00">DOMA&#45;SYCHAR30</text>
</a>
</g>
</g>
<!-- DTEL&#45;S380ERRID&#45;&gt;DOMA&#45;SYCHAR30 -->
<g id="edge38" class="edge">
<title>DTEL&#45;S380ERRID&#45;&gt;DOMA&#45;SYCHAR30</title>
<path fill="none" stroke="black" d="M1292.85,-71.7C1292.74,-63.98 1292.61,-54.71 1292.49,-46.11"/>
<polygon fill="black" stroke="black" points="1295.99,-46.05 1292.34,-36.1 1288.99,-46.15 1295.99,-46.05"/>
</g>
<!-- DOMA&#45;SYSUUID_C -->
<g id="node25" class="node">
<title>DOMA&#45;SYSUUID_C</title>
<g id="a_node25"><a xlink:href="./DOMA_SYSUUID_C.html" xlink:title="DOMA&#45;SYSUUID_C">
<polygon fill="none" stroke="yellow" points="1517.51,-36 1376.69,-36 1376.69,0 1517.51,0 1517.51,-36"/>
<text text-anchor="middle" x="1447.1" y="-13.8" font-family="Times,serif" font-size="14.00">DOMA&#45;SYSUUID_C</text>
</a>
</g>
</g>
<!-- DTEL&#45;SOTR_CONC&#45;&gt;DOMA&#45;SYSUUID_C -->
<g id="edge39" class="edge">
<title>DTEL&#45;SOTR_CONC&#45;&gt;DOMA&#45;SYSUUID_C</title>
<path fill="none" stroke="black" d="M1446.35,-71.7C1446.46,-63.98 1446.59,-54.71 1446.71,-46.11"/>
<polygon fill="black" stroke="black" points="1450.21,-46.15 1446.86,-36.1 1443.21,-46.05 1450.21,-46.15"/>
</g>
<!-- DTEL&#45;BAPI_MTYPE&#45;&gt;DOMA&#45;SYCHAR01 -->
<g id="edge40" class="edge">
<title>DTEL&#45;BAPI_MTYPE&#45;&gt;DOMA&#45;SYCHAR01</title>
<path fill="none" stroke="black" d="M160.27,-215.9C159.05,-197.18 159.4,-166.8 171.1,-144 176.9,-132.7 186.21,-122.71 195.78,-114.54"/>
<polygon fill="black" stroke="black" points="198.19,-117.09 203.81,-108.11 193.81,-111.63 198.19,-117.09"/>
</g>
<!-- DOMA&#45;NUMC10 -->
<g id="node28" class="node">
<title>DOMA&#45;NUMC10</title>
<g id="a_node28"><a xlink:href="./DOMA_NUMC10.html" xlink:title="DOMA&#45;NUMC10">
<polygon fill="none" stroke="yellow" points="1148.02,-180 1028.18,-180 1028.18,-144 1148.02,-144 1148.02,-180"/>
<text text-anchor="middle" x="1088.1" y="-157.8" font-family="Times,serif" font-size="14.00">DOMA&#45;NUMC10</text>
</a>
</g>
</g>
<!-- DTEL&#45;NUMC10&#45;&gt;DOMA&#45;NUMC10 -->
<g id="edge41" class="edge">
<title>DTEL&#45;NUMC10&#45;&gt;DOMA&#45;NUMC10</title>
<path fill="none" stroke="black" d="M1072.29,-215.7C1074.63,-207.9 1077.45,-198.51 1080.05,-189.83"/>
<polygon fill="black" stroke="black" points="1083.45,-190.69 1082.97,-180.1 1076.74,-188.68 1083.45,-190.69"/>
</g>
<!-- DOMA&#45;NUMC3 -->
<g id="node30" class="node">
<title>DOMA&#45;NUMC3</title>
<g id="a_node30"><a xlink:href="./DOMA_NUMC3.html" xlink:title="DOMA&#45;NUMC3">
<polygon fill="none" stroke="yellow" points="1278.52,-180 1165.68,-180 1165.68,-144 1278.52,-144 1278.52,-180"/>
<text text-anchor="middle" x="1222.1" y="-157.8" font-family="Times,serif" font-size="14.00">DOMA&#45;NUMC3</text>
</a>
</g>
</g>
<!-- DTEL&#45;NUMC3&#45;&gt;DOMA&#45;NUMC3 -->
<g id="edge42" class="edge">
<title>DTEL&#45;NUMC3&#45;&gt;DOMA&#45;NUMC3</title>
<path fill="none" stroke="black" d="M1211.56,-215.7C1213.1,-207.98 1214.96,-198.71 1216.68,-190.11"/>
<polygon fill="black" stroke="black" points="1220.15,-190.6 1218.68,-180.1 1213.29,-189.22 1220.15,-190.6"/>
</g>
<!-- DOMA&#45;CHAR30 -->
<g id="node32" class="node">
<title>DOMA&#45;CHAR30</title>
<g id="a_node32"><a xlink:href="./DOMA_CHAR30.html" xlink:title="DOMA&#45;CHAR30">
<polygon fill="none" stroke="green" points="1412.41,-180 1295.79,-180 1295.79,-144 1412.41,-144 1412.41,-180"/>
<text text-anchor="middle" x="1354.1" y="-157.8" font-family="Times,serif" font-size="14.00">DOMA&#45;CHAR30</text>
</a>
</g>
</g>
<!-- DTEL&#45;CHAR30&#45;&gt;DOMA&#45;CHAR30 -->
<g id="edge43" class="edge">
<title>DTEL&#45;CHAR30&#45;&gt;DOMA&#45;CHAR30</title>
<path fill="none" stroke="black" d="M1346.57,-215.7C1347.67,-207.98 1349,-198.71 1350.23,-190.11"/>
<polygon fill="black" stroke="black" points="1353.71,-190.5 1351.66,-180.1 1346.78,-189.51 1353.71,-190.5"/>
</g>
</g>
</svg>
