<?xml version="1.0" encoding="UTF-8" standalone="no"?>
<!DOCTYPE svg PUBLIC "-//W3C//DTD SVG 1.1//EN"
 "http://www.w3.org/Graphics/SVG/1.1/DTD/svg11.dtd">
<!-- Generated by graphviz version 2.47.3 (20210619.1520)
 -->
<!-- Title: G Pages: 1 -->
<svg width="1331pt" height="620pt"
 viewBox="0.00 0.00 1331.11 620.00" xmlns="http://www.w3.org/2000/svg" xmlns:xlink="http://www.w3.org/1999/xlink">
<g id="graph0" class="graph" transform="scale(1 1) rotate(0) translate(4 616)">
<title>G</title>
<polygon fill="white" stroke="transparent" points="-4,4 -4,-616 1327.11,-616 1327.11,4 -4,4"/>
<!-- CLAS&#45;CL_SXML_STRING_READER -->
<g id="node1" class="node">
<title>CLAS&#45;CL_SXML_STRING_READER</title>
<g id="a_node1"><a xlink:href="./CLAS_CL_SXML_STRING_READER.html" xlink:title="CLAS&#45;CL_SXML_STRING_READER">
<polygon fill="none" stroke="green" points="808.04,-612 567.53,-612 567.53,-576 808.04,-576 808.04,-612"/>
<text text-anchor="middle" x="687.79" y="-589.8" font-family="Times,serif" font-size="14.00">CLAS&#45;CL_SXML_STRING_READER</text>
</a>
</g>
</g>
<!-- INTF&#45;IF_SXML_READER -->
<g id="node2" class="node">
<title>INTF&#45;IF_SXML_READER</title>
<g id="a_node2"><a xlink:href="./INTF_IF_SXML_READER.html" xlink:title="INTF&#45;IF_SXML_READER">
<polygon fill="none" stroke="green" points="619.37,-396 446.2,-396 446.2,-360 619.37,-360 619.37,-396"/>
<text text-anchor="middle" x="532.79" y="-373.8" font-family="Times,serif" font-size="14.00">INTF&#45;IF_SXML_READER</text>
</a>
</g>
</g>
<!-- CLAS&#45;CL_SXML_STRING_READER&#45;&gt;INTF&#45;IF_SXML_READER -->
<g id="edge2" class="edge">
<title>CLAS&#45;CL_SXML_STRING_READER&#45;&gt;INTF&#45;IF_SXML_READER</title>
<path fill="none" stroke="black" d="M629.97,-575.91C611.08,-567.52 591.51,-555.75 577.79,-540 544.22,-501.5 531.35,-441.37 529.33,-406.52"/>
<polygon fill="black" stroke="black" points="532.82,-406.06 529.05,-396.16 525.82,-406.25 532.82,-406.06"/>
</g>
<!-- CLAS&#45;CL_SXML_STRING_READER&#45;&gt;INTF&#45;IF_SXML_READER -->
<g id="edge39" class="edge">
<title>CLAS&#45;CL_SXML_STRING_READER&#45;&gt;INTF&#45;IF_SXML_READER</title>
<path fill="none" stroke="black" d="M646.71,-575.91C629.08,-567.52 609.51,-555.75 595.79,-540 562.07,-501.33 549.24,-440.85 541.66,-406.07"/>
<polygon fill="black" stroke="black" points="545.04,-405.16 539.45,-396.16 538.2,-406.68 545.04,-405.16"/>
</g>
<!-- CLAS&#45;CL_SXML_READER -->
<g id="node17" class="node">
<title>CLAS&#45;CL_SXML_READER</title>
<g id="a_node17"><a xlink:href="./CLAS_CL_SXML_READER.html" xlink:title="CLAS&#45;CL_SXML_READER">
<polygon fill="none" stroke="yellow" points="779.49,-540 596.08,-540 596.08,-504 779.49,-504 779.49,-540"/>
<text text-anchor="middle" x="687.79" y="-517.8" font-family="Times,serif" font-size="14.00">CLAS&#45;CL_SXML_READER</text>
</a>
</g>
</g>
<!-- CLAS&#45;CL_SXML_STRING_READER&#45;&gt;CLAS&#45;CL_SXML_READER -->
<g id="edge1" class="edge">
<title>CLAS&#45;CL_SXML_STRING_READER&#45;&gt;CLAS&#45;CL_SXML_READER</title>
<path fill="none" stroke="black" d="M675.95,-575.7C674.36,-567.98 673.91,-558.71 674.6,-550.11"/>
<polygon fill="black" stroke="black" points="678.08,-550.49 676,-540.1 671.14,-549.52 678.08,-550.49"/>
</g>
<!-- CLAS&#45;CL_SXML_STRING_READER&#45;&gt;CLAS&#45;CL_SXML_READER -->
<g id="edge38" class="edge">
<title>CLAS&#45;CL_SXML_STRING_READER&#45;&gt;CLAS&#45;CL_SXML_READER</title>
<path fill="none" stroke="black" d="M699.62,-575.7C701.21,-567.98 701.66,-558.71 700.98,-550.11"/>
<polygon fill="black" stroke="black" points="704.43,-549.52 699.58,-540.1 697.5,-550.49 704.43,-549.52"/>
</g>
<!-- CLAS&#45;CL_VSI_KERNEL -->
<g id="node3" class="node">
<title>CLAS&#45;CL_VSI_KERNEL</title>
<g id="a_node3"><a xlink:href="./CLAS_CL_VSI_KERNEL.html" xlink:title="CLAS&#45;CL_VSI_KERNEL">
<polygon fill="none" stroke="yellow" points="1318.87,-252 1152.7,-252 1152.7,-216 1318.87,-216 1318.87,-252"/>
<text text-anchor="middle" x="1235.79" y="-229.8" font-family="Times,serif" font-size="14.00">CLAS&#45;CL_VSI_KERNEL</text>
</a>
</g>
</g>
<!-- INTF&#45;IF_SXML_READER&#45;&gt;CLAS&#45;CL_VSI_KERNEL -->
<g id="edge8" class="edge">
<title>INTF&#45;IF_SXML_READER&#45;&gt;CLAS&#45;CL_VSI_KERNEL</title>
<path fill="none" stroke="black" d="M617.23,-359.94C749.55,-333.22 1004.77,-281.66 1142.4,-253.86"/>
<polygon fill="black" stroke="black" points="1143.39,-257.23 1152.5,-251.82 1142.01,-250.37 1143.39,-257.23"/>
</g>
<!-- INTF&#45;IF_SXML_WRITER -->
<g id="node6" class="node">
<title>INTF&#45;IF_SXML_WRITER</title>
<g id="a_node6"><a xlink:href="./INTF_IF_SXML_WRITER.html" xlink:title="INTF&#45;IF_SXML_WRITER">
<polygon fill="none" stroke="green" points="618.03,-324 447.54,-324 447.54,-288 618.03,-288 618.03,-324"/>
<text text-anchor="middle" x="532.79" y="-301.8" font-family="Times,serif" font-size="14.00">INTF&#45;IF_SXML_WRITER</text>
</a>
</g>
</g>
<!-- INTF&#45;IF_SXML_READER&#45;&gt;INTF&#45;IF_SXML_WRITER -->
<g id="edge7" class="edge">
<title>INTF&#45;IF_SXML_READER&#45;&gt;INTF&#45;IF_SXML_WRITER</title>
<path fill="none" stroke="black" d="M532.79,-359.7C532.79,-351.98 532.79,-342.71 532.79,-334.11"/>
<polygon fill="black" stroke="black" points="536.29,-334.1 532.79,-324.1 529.29,-334.1 536.29,-334.1"/>
</g>
<!-- INTF&#45;IF_SXML_NODE -->
<g id="node7" class="node">
<title>INTF&#45;IF_SXML_NODE</title>
<g id="a_node7"><a xlink:href="./INTF_IF_SXML_NODE.html" xlink:title="INTF&#45;IF_SXML_NODE">
<polygon fill="none" stroke="green" points="445.75,-180 289.82,-180 289.82,-144 445.75,-144 445.75,-180"/>
<text text-anchor="middle" x="367.79" y="-157.8" font-family="Times,serif" font-size="14.00">INTF&#45;IF_SXML_NODE</text>
</a>
</g>
</g>
<!-- INTF&#45;IF_SXML_READER&#45;&gt;INTF&#45;IF_SXML_NODE -->
<g id="edge3" class="edge">
<title>INTF&#45;IF_SXML_READER&#45;&gt;INTF&#45;IF_SXML_NODE</title>
<path fill="none" stroke="black" d="M446.06,-369.18C312.67,-355.1 67.23,-320.38 16.79,-252 7.29,-239.12 6.35,-228.13 16.79,-216 50.01,-177.39 186.67,-166.54 279.34,-163.7"/>
<polygon fill="black" stroke="black" points="279.67,-167.2 289.57,-163.42 279.48,-160.2 279.67,-167.2"/>
</g>
<!-- INTF&#45;IF_SXML_VALUE -->
<g id="node12" class="node">
<title>INTF&#45;IF_SXML_VALUE</title>
<g id="a_node12"><a xlink:href="./INTF_IF_SXML_VALUE.html" xlink:title="INTF&#45;IF_SXML_VALUE">
<polygon fill="none" stroke="green" points="448.8,-108 284.77,-108 284.77,-72 448.8,-72 448.8,-108"/>
<text text-anchor="middle" x="366.79" y="-85.8" font-family="Times,serif" font-size="14.00">INTF&#45;IF_SXML_VALUE</text>
</a>
</g>
</g>
<!-- INTF&#45;IF_SXML_READER&#45;&gt;INTF&#45;IF_SXML_VALUE -->
<g id="edge4" class="edge">
<title>INTF&#45;IF_SXML_READER&#45;&gt;INTF&#45;IF_SXML_VALUE</title>
<path fill="none" stroke="black" d="M446.01,-375C328.91,-371 127.61,-359.08 63.79,-324 27.78,-304.21 19.45,-290.75 5.79,-252 -34.69,-137.24 154.13,-104.21 274,-94.75"/>
<polygon fill="black" stroke="black" points="274.59,-98.22 284.3,-93.99 274.07,-91.24 274.59,-98.22"/>
</g>
<!-- INTF&#45;IF_SXML_NSURI_HELPER -->
<g id="node15" class="node">
<title>INTF&#45;IF_SXML_NSURI_HELPER</title>
<g id="a_node15"><a xlink:href="./INTF_IF_SXML_NSURI_HELPER.html" xlink:title="INTF&#45;IF_SXML_NSURI_HELPER">
<polygon fill="none" stroke="green" points="1134.26,-252 915.32,-252 915.32,-216 1134.26,-216 1134.26,-252"/>
<text text-anchor="middle" x="1024.79" y="-229.8" font-family="Times,serif" font-size="14.00">INTF&#45;IF_SXML_NSURI_HELPER</text>
</a>
</g>
</g>
<!-- INTF&#45;IF_SXML_READER&#45;&gt;INTF&#45;IF_SXML_NSURI_HELPER -->
<g id="edge6" class="edge">
<title>INTF&#45;IF_SXML_READER&#45;&gt;INTF&#45;IF_SXML_NSURI_HELPER</title>
<path fill="none" stroke="black" d="M592.13,-359.87C683.68,-333.45 858.9,-282.88 955.9,-254.88"/>
<polygon fill="black" stroke="black" points="956.97,-258.21 965.61,-252.08 955.03,-251.49 956.97,-258.21"/>
</g>
<!-- INTF&#45;IF_SXML -->
<g id="node16" class="node">
<title>INTF&#45;IF_SXML</title>
<g id="a_node16"><a xlink:href="./INTF_IF_SXML.html" xlink:title="INTF&#45;IF_SXML">
<polygon fill="none" stroke="green" points="135.88,-252 25.69,-252 25.69,-216 135.88,-216 135.88,-252"/>
<text text-anchor="middle" x="80.79" y="-229.8" font-family="Times,serif" font-size="14.00">INTF&#45;IF_SXML</text>
</a>
</g>
</g>
<!-- INTF&#45;IF_SXML_READER&#45;&gt;INTF&#45;IF_SXML -->
<g id="edge5" class="edge">
<title>INTF&#45;IF_SXML_READER&#45;&gt;INTF&#45;IF_SXML</title>
<path fill="none" stroke="black" d="M478.26,-359.87C394.41,-333.53 234.16,-283.19 144.88,-255.14"/>
<polygon fill="black" stroke="black" points="145.74,-251.74 135.15,-252.08 143.64,-258.41 145.74,-251.74"/>
</g>
<!-- DTEL&#45;VSCAN_PROFILE -->
<g id="node4" class="node">
<title>DTEL&#45;VSCAN_PROFILE</title>
<g id="a_node4"><a xlink:href="./DTEL_VSCAN_PROFILE.html" xlink:title="DTEL&#45;VSCAN_PROFILE">
<polygon fill="none" stroke="yellow" points="1319.42,-180 1152.15,-180 1152.15,-144 1319.42,-144 1319.42,-180"/>
<text text-anchor="middle" x="1235.79" y="-157.8" font-family="Times,serif" font-size="14.00">DTEL&#45;VSCAN_PROFILE</text>
</a>
</g>
</g>
<!-- CLAS&#45;CL_VSI_KERNEL&#45;&gt;DTEL&#45;VSCAN_PROFILE -->
<g id="edge9" class="edge">
<title>CLAS&#45;CL_VSI_KERNEL&#45;&gt;DTEL&#45;VSCAN_PROFILE</title>
<path fill="none" stroke="black" d="M1235.79,-215.7C1235.79,-207.98 1235.79,-198.71 1235.79,-190.11"/>
<polygon fill="black" stroke="black" points="1239.29,-190.1 1235.79,-180.1 1232.29,-190.1 1239.29,-190.1"/>
</g>
<!-- DOMA&#45;VSCAN_PROFILE -->
<g id="node5" class="node">
<title>DOMA&#45;VSCAN_PROFILE</title>
<g id="a_node5"><a xlink:href="./DOMA_VSCAN_PROFILE.html" xlink:title="DOMA&#45;VSCAN_PROFILE">
<polygon fill="none" stroke="yellow" points="1322.92,-108 1148.65,-108 1148.65,-72 1322.92,-72 1322.92,-108"/>
<text text-anchor="middle" x="1235.79" y="-85.8" font-family="Times,serif" font-size="14.00">DOMA&#45;VSCAN_PROFILE</text>
</a>
</g>
</g>
<!-- DTEL&#45;VSCAN_PROFILE&#45;&gt;DOMA&#45;VSCAN_PROFILE -->
<g id="edge10" class="edge">
<title>DTEL&#45;VSCAN_PROFILE&#45;&gt;DOMA&#45;VSCAN_PROFILE</title>
<path fill="none" stroke="black" d="M1235.79,-143.7C1235.79,-135.98 1235.79,-126.71 1235.79,-118.11"/>
<polygon fill="black" stroke="black" points="1239.29,-118.1 1235.79,-108.1 1232.29,-118.1 1239.29,-118.1"/>
</g>
<!-- INTF&#45;IF_SXML_WRITER&#45;&gt;CLAS&#45;CL_VSI_KERNEL -->
<g id="edge17" class="edge">
<title>INTF&#45;IF_SXML_WRITER&#45;&gt;CLAS&#45;CL_VSI_KERNEL</title>
<path fill="none" stroke="black" d="M618.18,-300.13C736.4,-292.8 956.44,-277.07 1142.79,-252 1142.89,-251.99 1142.99,-251.97 1143.09,-251.96"/>
<polygon fill="black" stroke="black" points="1143.29,-255.47 1152.69,-250.59 1142.3,-248.54 1143.29,-255.47"/>
</g>
<!-- INTF&#45;IF_SXML_WRITER&#45;&gt;INTF&#45;IF_SXML_NODE -->
<g id="edge16" class="edge">
<title>INTF&#45;IF_SXML_WRITER&#45;&gt;INTF&#45;IF_SXML_NODE</title>
<path fill="none" stroke="black" d="M470.96,-287.89C449.92,-279.7 427.52,-268.08 410.79,-252 393.16,-235.07 381.84,-209.44 375.26,-190.02"/>
<polygon fill="black" stroke="black" points="378.52,-188.72 372.17,-180.24 371.85,-190.83 378.52,-188.72"/>
</g>
<!-- INTF&#45;IF_SXML_CLOSE_ELEMENT -->
<g id="node8" class="node">
<title>INTF&#45;IF_SXML_CLOSE_ELEMENT</title>
<g id="a_node8"><a xlink:href="./INTF_IF_SXML_CLOSE_ELEMENT.html" xlink:title="INTF&#45;IF_SXML_CLOSE_ELEMENT">
<polygon fill="none" stroke="green" points="897.52,-252 664.05,-252 664.05,-216 897.52,-216 897.52,-252"/>
<text text-anchor="middle" x="780.79" y="-229.8" font-family="Times,serif" font-size="14.00">INTF&#45;IF_SXML_CLOSE_ELEMENT</text>
</a>
</g>
</g>
<!-- INTF&#45;IF_SXML_WRITER&#45;&gt;INTF&#45;IF_SXML_CLOSE_ELEMENT -->
<g id="edge15" class="edge">
<title>INTF&#45;IF_SXML_WRITER&#45;&gt;INTF&#45;IF_SXML_CLOSE_ELEMENT</title>
<path fill="none" stroke="black" d="M593.14,-287.97C628.54,-277.97 673.44,-265.3 710.45,-254.85"/>
<polygon fill="black" stroke="black" points="711.49,-258.2 720.16,-252.11 709.59,-251.46 711.49,-258.2"/>
</g>
<!-- INTF&#45;IF_SXML_VALUE_NODE -->
<g id="node11" class="node">
<title>INTF&#45;IF_SXML_VALUE_NODE</title>
<g id="a_node11"><a xlink:href="./INTF_IF_SXML_VALUE_NODE.html" xlink:title="INTF&#45;IF_SXML_VALUE_NODE">
<polygon fill="none" stroke="green" points="364.18,-252 153.4,-252 153.4,-216 364.18,-216 364.18,-252"/>
<text text-anchor="middle" x="258.79" y="-229.8" font-family="Times,serif" font-size="14.00">INTF&#45;IF_SXML_VALUE_NODE</text>
</a>
</g>
</g>
<!-- INTF&#45;IF_SXML_WRITER&#45;&gt;INTF&#45;IF_SXML_VALUE_NODE -->
<g id="edge14" class="edge">
<title>INTF&#45;IF_SXML_WRITER&#45;&gt;INTF&#45;IF_SXML_VALUE_NODE</title>
<path fill="none" stroke="black" d="M466.11,-287.97C426.66,-277.89 376.54,-265.08 335.46,-254.59"/>
<polygon fill="black" stroke="black" points="336.32,-251.2 325.76,-252.11 334.58,-257.98 336.32,-251.2"/>
</g>
<!-- INTF&#45;IF_SXML_OPEN_ELEMENT -->
<g id="node13" class="node">
<title>INTF&#45;IF_SXML_OPEN_ELEMENT</title>
<g id="a_node13"><a xlink:href="./INTF_IF_SXML_OPEN_ELEMENT.html" xlink:title="INTF&#45;IF_SXML_OPEN_ELEMENT">
<polygon fill="none" stroke="green" points="645.74,-252 419.83,-252 419.83,-216 645.74,-216 645.74,-252"/>
<text text-anchor="middle" x="532.79" y="-229.8" font-family="Times,serif" font-size="14.00">INTF&#45;IF_SXML_OPEN_ELEMENT</text>
</a>
</g>
</g>
<!-- INTF&#45;IF_SXML_WRITER&#45;&gt;INTF&#45;IF_SXML_OPEN_ELEMENT -->
<g id="edge13" class="edge">
<title>INTF&#45;IF_SXML_WRITER&#45;&gt;INTF&#45;IF_SXML_OPEN_ELEMENT</title>
<path fill="none" stroke="black" d="M532.79,-287.7C532.79,-279.98 532.79,-270.71 532.79,-262.11"/>
<polygon fill="black" stroke="black" points="536.29,-262.1 532.79,-252.1 529.29,-262.1 536.29,-262.1"/>
</g>
<!-- INTF&#45;IF_SXML_WRITER&#45;&gt;INTF&#45;IF_SXML_NSURI_HELPER -->
<g id="edge12" class="edge">
<title>INTF&#45;IF_SXML_WRITER&#45;&gt;INTF&#45;IF_SXML_NSURI_HELPER</title>
<path fill="none" stroke="black" d="M618.2,-292.95C691.65,-282.58 800.71,-267.15 905.1,-252.24"/>
<polygon fill="black" stroke="black" points="905.78,-255.68 915.18,-250.8 904.79,-248.75 905.78,-255.68"/>
</g>
<!-- INTF&#45;IF_SXML_WRITER&#45;&gt;INTF&#45;IF_SXML -->
<g id="edge11" class="edge">
<title>INTF&#45;IF_SXML_WRITER&#45;&gt;INTF&#45;IF_SXML</title>
<path fill="none" stroke="black" d="M447.51,-296.43C370.87,-288.01 255.13,-273.57 145.73,-252.06"/>
<polygon fill="black" stroke="black" points="146.33,-248.61 135.84,-250.09 144.97,-255.47 146.33,-248.61"/>
</g>
<!-- INTF&#45;IF_SXML_CLOSE_ELEMENT&#45;&gt;INTF&#45;IF_SXML_NODE -->
<g id="edge19" class="edge">
<title>INTF&#45;IF_SXML_CLOSE_ELEMENT&#45;&gt;INTF&#45;IF_SXML_NODE</title>
<path fill="none" stroke="black" d="M680.28,-215.97C611.7,-204.34 521.71,-189.09 455.92,-177.94"/>
<polygon fill="black" stroke="black" points="456.43,-174.47 445.98,-176.25 455.26,-181.38 456.43,-174.47"/>
</g>
<!-- INTF&#45;IF_SXML_NAMED -->
<g id="node9" class="node">
<title>INTF&#45;IF_SXML_NAMED</title>
<g id="a_node9"><a xlink:href="./INTF_IF_SXML_NAMED.html" xlink:title="INTF&#45;IF_SXML_NAMED">
<polygon fill="none" stroke="green" points="833.2,-108 664.38,-108 664.38,-72 833.2,-72 833.2,-108"/>
<text text-anchor="middle" x="748.79" y="-85.8" font-family="Times,serif" font-size="14.00">INTF&#45;IF_SXML_NAMED</text>
</a>
</g>
</g>
<!-- INTF&#45;IF_SXML_CLOSE_ELEMENT&#45;&gt;INTF&#45;IF_SXML_NAMED -->
<g id="edge18" class="edge">
<title>INTF&#45;IF_SXML_CLOSE_ELEMENT&#45;&gt;INTF&#45;IF_SXML_NAMED</title>
<path fill="none" stroke="black" d="M776.93,-215.87C771.45,-191.56 761.36,-146.82 754.87,-118.01"/>
<polygon fill="black" stroke="black" points="758.27,-117.18 752.66,-108.19 751.44,-118.71 758.27,-117.18"/>
</g>
<!-- TABL&#45;QNAME -->
<g id="node10" class="node">
<title>TABL&#45;QNAME</title>
<g id="a_node10"><a xlink:href="./TABL_QNAME.html" xlink:title="TABL&#45;QNAME">
<polygon fill="none" stroke="green" points="802.81,-36 694.76,-36 694.76,0 802.81,0 802.81,-36"/>
<text text-anchor="middle" x="748.79" y="-13.8" font-family="Times,serif" font-size="14.00">TABL&#45;QNAME</text>
</a>
</g>
</g>
<!-- INTF&#45;IF_SXML_NAMED&#45;&gt;TABL&#45;QNAME -->
<g id="edge20" class="edge">
<title>INTF&#45;IF_SXML_NAMED&#45;&gt;TABL&#45;QNAME</title>
<path fill="none" stroke="black" d="M748.79,-71.7C748.79,-63.98 748.79,-54.71 748.79,-46.11"/>
<polygon fill="black" stroke="black" points="752.29,-46.1 748.79,-36.1 745.29,-46.1 752.29,-46.1"/>
</g>
<!-- INTF&#45;IF_SXML_VALUE_NODE&#45;&gt;INTF&#45;IF_SXML_NODE -->
<g id="edge21" class="edge">
<title>INTF&#45;IF_SXML_VALUE_NODE&#45;&gt;INTF&#45;IF_SXML_NODE</title>
<path fill="none" stroke="black" d="M285.45,-215.88C299.57,-206.81 317.1,-195.55 332.35,-185.76"/>
<polygon fill="black" stroke="black" points="334.5,-188.54 341.02,-180.19 330.71,-182.65 334.5,-188.54"/>
</g>
<!-- INTF&#45;IF_SXML_VALUE_NODE&#45;&gt;INTF&#45;IF_SXML_VALUE -->
<g id="edge22" class="edge">
<title>INTF&#45;IF_SXML_VALUE_NODE&#45;&gt;INTF&#45;IF_SXML_VALUE</title>
<path fill="none" stroke="black" d="M259.23,-215.99C260.53,-196.8 265.12,-165.47 280.79,-144 290.03,-131.33 303.31,-121.05 316.67,-113.03"/>
<polygon fill="black" stroke="black" points="318.44,-116.05 325.43,-108.08 315,-109.95 318.44,-116.05"/>
</g>
<!-- INTF&#45;IF_SXML_OPEN_ELEMENT&#45;&gt;INTF&#45;IF_SXML_NODE -->
<g id="edge24" class="edge">
<title>INTF&#45;IF_SXML_OPEN_ELEMENT&#45;&gt;INTF&#45;IF_SXML_NODE</title>
<path fill="none" stroke="black" d="M492.42,-215.88C469.77,-206.26 441.31,-194.19 417.32,-184.01"/>
<polygon fill="black" stroke="black" points="418.59,-180.75 408.02,-180.07 415.86,-187.2 418.59,-180.75"/>
</g>
<!-- INTF&#45;IF_SXML_OPEN_ELEMENT&#45;&gt;INTF&#45;IF_SXML_NAMED -->
<g id="edge23" class="edge">
<title>INTF&#45;IF_SXML_OPEN_ELEMENT&#45;&gt;INTF&#45;IF_SXML_NAMED</title>
<path fill="none" stroke="black" d="M635.66,-215.99C660.32,-208.16 685.16,-196.71 704.79,-180 723.67,-163.92 735.23,-137.79 741.73,-118"/>
<polygon fill="black" stroke="black" points="745.12,-118.89 744.68,-108.31 738.42,-116.85 745.12,-118.89"/>
</g>
<!-- INTF&#45;IF_SXML_OPEN_ELEMENT&#45;&gt;INTF&#45;IF_SXML_VALUE -->
<g id="edge26" class="edge">
<title>INTF&#45;IF_SXML_OPEN_ELEMENT&#45;&gt;INTF&#45;IF_SXML_VALUE</title>
<path fill="none" stroke="black" d="M520.34,-215.85C505.98,-196.81 480.95,-165.88 454.79,-144 441.08,-132.53 424.62,-121.92 409.66,-113.26"/>
<polygon fill="black" stroke="black" points="411.01,-110 400.58,-108.12 407.56,-116.09 411.01,-110"/>
</g>
<!-- INTF&#45;IF_SXML_ATTRIBUTE -->
<g id="node14" class="node">
<title>INTF&#45;IF_SXML_ATTRIBUTE</title>
<g id="a_node14"><a xlink:href="./INTF_IF_SXML_ATTRIBUTE.html" xlink:title="INTF&#45;IF_SXML_ATTRIBUTE">
<polygon fill="none" stroke="green" points="696.14,-180 501.44,-180 501.44,-144 696.14,-144 696.14,-180"/>
<text text-anchor="middle" x="598.79" y="-157.8" font-family="Times,serif" font-size="14.00">INTF&#45;IF_SXML_ATTRIBUTE</text>
</a>
</g>
</g>
<!-- INTF&#45;IF_SXML_OPEN_ELEMENT&#45;&gt;INTF&#45;IF_SXML_ATTRIBUTE -->
<g id="edge25" class="edge">
<title>INTF&#45;IF_SXML_OPEN_ELEMENT&#45;&gt;INTF&#45;IF_SXML_ATTRIBUTE</title>
<path fill="none" stroke="black" d="M549.1,-215.7C557.09,-207.22 566.86,-196.86 575.61,-187.58"/>
<polygon fill="black" stroke="black" points="578.35,-189.78 582.66,-180.1 573.25,-184.98 578.35,-189.78"/>
</g>
<!-- INTF&#45;IF_SXML_ATTRIBUTE&#45;&gt;INTF&#45;IF_SXML_NAMED -->
<g id="edge27" class="edge">
<title>INTF&#45;IF_SXML_ATTRIBUTE&#45;&gt;INTF&#45;IF_SXML_NAMED</title>
<path fill="none" stroke="black" d="M635.48,-143.88C655.8,-134.39 681.26,-122.51 702.89,-112.42"/>
<polygon fill="black" stroke="black" points="704.63,-115.47 712.21,-108.07 701.67,-109.13 704.63,-115.47"/>
</g>
<!-- INTF&#45;IF_SXML_ATTRIBUTE&#45;&gt;INTF&#45;IF_SXML_VALUE -->
<g id="edge28" class="edge">
<title>INTF&#45;IF_SXML_ATTRIBUTE&#45;&gt;INTF&#45;IF_SXML_VALUE</title>
<path fill="none" stroke="black" d="M542.33,-143.97C509.49,-134.06 467.92,-121.51 433.47,-111.12"/>
<polygon fill="black" stroke="black" points="434.08,-107.65 423.5,-108.11 432.06,-114.35 434.08,-107.65"/>
</g>
<!-- INTF&#45;IF_SXML_NSURI_HELPER&#45;&gt;INTF&#45;IF_SXML_NAMED -->
<g id="edge29" class="edge">
<title>INTF&#45;IF_SXML_NSURI_HELPER&#45;&gt;INTF&#45;IF_SXML_NAMED</title>
<path fill="none" stroke="black" d="M991.49,-215.87C941.35,-190.07 846.45,-141.25 791.34,-112.9"/>
<polygon fill="black" stroke="black" points="792.69,-109.65 782.2,-108.19 789.49,-115.88 792.69,-109.65"/>
</g>
<!-- CLAS&#45;CL_SXML_READER&#45;&gt;CLAS&#45;CL_SXML_STRING_READER -->
<g id="edge30" class="edge">
<title>CLAS&#45;CL_SXML_READER&#45;&gt;CLAS&#45;CL_SXML_STRING_READER</title>
<path fill="none" stroke="black" d="M687.79,-540.1C687.79,-547.79 687.79,-557.05 687.79,-565.67"/>
<polygon fill="black" stroke="black" points="684.29,-565.7 687.79,-575.7 691.29,-565.7 684.29,-565.7"/>
</g>
<!-- CLAS&#45;CL_SXML_READER&#45;&gt;INTF&#45;IF_SXML_READER -->
<g id="edge34" class="edge">
<title>CLAS&#45;CL_SXML_READER&#45;&gt;INTF&#45;IF_SXML_READER</title>
<path fill="none" stroke="black" d="M767.67,-503.99C786.16,-496.15 803.66,-484.7 814.79,-468 823.66,-454.68 825,-444.31 814.79,-432 791.36,-403.76 701.5,-390.47 629.44,-384.28"/>
<polygon fill="black" stroke="black" points="629.65,-380.78 619.39,-383.45 629.07,-387.76 629.65,-380.78"/>
</g>
<!-- CLAS&#45;CL_SXML_READER&#45;&gt;CLAS&#45;CL_VSI_KERNEL -->
<g id="edge35" class="edge">
<title>CLAS&#45;CL_SXML_READER&#45;&gt;CLAS&#45;CL_VSI_KERNEL</title>
<path fill="none" stroke="black" d="M762.16,-503.9C794.99,-495.11 833.58,-483.05 866.79,-468 1001.24,-407.06 1144.77,-303.92 1205.68,-258.11"/>
<polygon fill="black" stroke="black" points="1207.85,-260.86 1213.72,-252.04 1203.63,-255.27 1207.85,-260.86"/>
</g>
<!-- CLAS&#45;CL_SXML_READER&#45;&gt;INTF&#45;IF_SXML_NSURI_HELPER -->
<g id="edge33" class="edge">
<title>CLAS&#45;CL_SXML_READER&#45;&gt;INTF&#45;IF_SXML_NSURI_HELPER</title>
<path fill="none" stroke="black" d="M756.25,-503.94C781.43,-495.64 809.28,-483.93 831.79,-468 913.79,-409.97 980.98,-308.61 1009.73,-261.04"/>
<polygon fill="black" stroke="black" points="1012.84,-262.65 1014.96,-252.27 1006.83,-259.07 1012.84,-262.65"/>
</g>
<!-- CLAS&#45;CL_SXML_READER&#45;&gt;INTF&#45;IF_SXML -->
<g id="edge32" class="edge">
<title>CLAS&#45;CL_SXML_READER&#45;&gt;INTF&#45;IF_SXML</title>
<path fill="none" stroke="black" d="M645.86,-503.97C621.02,-493.77 589,-480.41 560.79,-468 421.36,-406.66 386.33,-391.51 249.79,-324 205.36,-302.04 155.21,-275.38 121.16,-257"/>
<polygon fill="black" stroke="black" points="122.46,-253.73 112,-252.05 119.13,-259.89 122.46,-253.73"/>
</g>
<!-- CLAS&#45;CL_SXML_TABLE_READER -->
<g id="node18" class="node">
<title>CLAS&#45;CL_SXML_TABLE_READER</title>
<g id="a_node18"><a xlink:href="./CLAS_CL_SXML_TABLE_READER.html" xlink:title="CLAS&#45;CL_SXML_TABLE_READER">
<polygon fill="none" stroke="green" points="805.59,-468 569.98,-468 569.98,-432 805.59,-432 805.59,-468"/>
<text text-anchor="middle" x="687.79" y="-445.8" font-family="Times,serif" font-size="14.00">CLAS&#45;CL_SXML_TABLE_READER</text>
</a>
</g>
</g>
<!-- CLAS&#45;CL_SXML_READER&#45;&gt;CLAS&#45;CL_SXML_TABLE_READER -->
<g id="edge31" class="edge">
<title>CLAS&#45;CL_SXML_READER&#45;&gt;CLAS&#45;CL_SXML_TABLE_READER</title>
<path fill="none" stroke="black" d="M681.87,-503.7C681.07,-495.98 680.85,-486.71 681.19,-478.11"/>
<polygon fill="black" stroke="black" points="684.68,-478.32 681.89,-468.1 677.7,-477.84 684.68,-478.32"/>
</g>
<!-- CLAS&#45;CL_SXML_TABLE_READER&#45;&gt;INTF&#45;IF_SXML_READER -->
<g id="edge37" class="edge">
<title>CLAS&#45;CL_SXML_TABLE_READER&#45;&gt;INTF&#45;IF_SXML_READER</title>
<path fill="none" stroke="black" d="M649.87,-431.88C628.77,-422.35 602.33,-410.41 579.91,-400.28"/>
<polygon fill="black" stroke="black" points="581.13,-396.99 570.58,-396.07 578.25,-403.37 581.13,-396.99"/>
</g>
<!-- CLAS&#45;CL_SXML_TABLE_READER&#45;&gt;CLAS&#45;CL_SXML_READER -->
<g id="edge36" class="edge">
<title>CLAS&#45;CL_SXML_TABLE_READER&#45;&gt;CLAS&#45;CL_SXML_READER</title>
<path fill="none" stroke="black" d="M693.68,-468.1C694.49,-475.79 694.72,-485.05 694.39,-493.67"/>
<polygon fill="black" stroke="black" points="690.89,-493.48 693.7,-503.7 697.88,-493.96 690.89,-493.48"/>
</g>
</g>
</svg>
