<?xml version="1.0" encoding="UTF-8" standalone="no"?>
<!DOCTYPE svg PUBLIC "-//W3C//DTD SVG 1.1//EN"
 "http://www.w3.org/Graphics/SVG/1.1/DTD/svg11.dtd">
<!-- Generated by graphviz version 2.47.3 (20210619.1520)
 -->
<!-- Title: G Pages: 1 -->
<svg width="882pt" height="404pt"
 viewBox="0.00 0.00 881.57 404.00" xmlns="http://www.w3.org/2000/svg" xmlns:xlink="http://www.w3.org/1999/xlink">
<g id="graph0" class="graph" transform="scale(1 1) rotate(0) translate(4 400)">
<title>G</title>
<polygon fill="white" stroke="transparent" points="-4,4 -4,-400 877.57,-400 877.57,4 -4,4"/>
<!-- CLAS&#45;CX_SY_INVALID_SUBMATCH -->
<g id="node1" class="node">
<title>CLAS&#45;CX_SY_INVALID_SUBMATCH</title>
<polygon fill="none" stroke="green" points="873.49,-396 622.8,-396 622.8,-360 873.49,-360 873.49,-396"/>
<text text-anchor="middle" x="748.14" y="-373.8" font-family="Times,serif" font-size="14.00">CLAS&#45;CX_SY_INVALID_SUBMATCH</text>
</g>
<!-- CLAS&#45;CX_SY_MATCHER -->
<g id="node2" class="node">
<title>CLAS&#45;CX_SY_MATCHER</title>
<g id="a_node2"><a xlink:href="./CLAS_CX_SY_MATCHER.html" xlink:title="CLAS&#45;CX_SY_MATCHER">
<polygon fill="none" stroke="green" points="720.35,-324 543.94,-324 543.94,-288 720.35,-288 720.35,-324"/>
<text text-anchor="middle" x="632.14" y="-301.8" font-family="Times,serif" font-size="14.00">CLAS&#45;CX_SY_MATCHER</text>
</a>
</g>
</g>
<!-- CLAS&#45;CX_SY_INVALID_SUBMATCH&#45;&gt;CLAS&#45;CX_SY_MATCHER -->
<g id="edge3" class="edge">
<title>CLAS&#45;CX_SY_INVALID_SUBMATCH&#45;&gt;CLAS&#45;CX_SY_MATCHER</title>
<path fill="none" stroke="black" d="M719.77,-359.88C704.6,-350.72 685.74,-339.34 669.41,-329.48"/>
<polygon fill="black" stroke="black" points="671,-326.36 660.63,-324.19 667.38,-332.35 671,-326.36"/>
</g>
<!-- DTEL&#45;SOTR_CONC -->
<g id="node11" class="node">
<title>DTEL&#45;SOTR_CONC</title>
<g id="a_node11"><a xlink:href="./DTEL_SOTR_CONC.html" xlink:title="DTEL&#45;SOTR_CONC">
<polygon fill="none" stroke="yellow" points="817.23,-108 679.05,-108 679.05,-72 817.23,-72 817.23,-108"/>
<text text-anchor="middle" x="748.14" y="-85.8" font-family="Times,serif" font-size="14.00">DTEL&#45;SOTR_CONC</text>
</a>
</g>
</g>
<!-- CLAS&#45;CX_SY_INVALID_SUBMATCH&#45;&gt;DTEL&#45;SOTR_CONC -->
<g id="edge1" class="edge">
<title>CLAS&#45;CX_SY_INVALID_SUBMATCH&#45;&gt;DTEL&#45;SOTR_CONC</title>
<path fill="none" stroke="black" d="M748.14,-359.97C748.14,-312.29 748.14,-177.18 748.14,-118.63"/>
<polygon fill="black" stroke="black" points="751.64,-118.31 748.14,-108.31 744.64,-118.31 751.64,-118.31"/>
</g>
<!-- DTEL&#45;INT4 -->
<g id="node13" class="node">
<title>DTEL&#45;INT4</title>
<g id="a_node13"><a xlink:href="./DTEL_INT4.html" xlink:title="DTEL&#45;INT4">
<polygon fill="none" stroke="green" points="864.39,-324 777.9,-324 777.9,-288 864.39,-288 864.39,-324"/>
<text text-anchor="middle" x="821.14" y="-301.8" font-family="Times,serif" font-size="14.00">DTEL&#45;INT4</text>
</a>
</g>
</g>
<!-- CLAS&#45;CX_SY_INVALID_SUBMATCH&#45;&gt;DTEL&#45;INT4 -->
<g id="edge2" class="edge">
<title>CLAS&#45;CX_SY_INVALID_SUBMATCH&#45;&gt;DTEL&#45;INT4</title>
<path fill="none" stroke="black" d="M766.19,-359.7C775.21,-351.05 786.26,-340.45 796.09,-331.03"/>
<polygon fill="black" stroke="black" points="798.51,-333.55 803.31,-324.1 793.67,-328.5 798.51,-333.55"/>
</g>
<!-- CLAS&#45;CX_DYNAMIC_CHECK -->
<g id="node3" class="node">
<title>CLAS&#45;CX_DYNAMIC_CHECK</title>
<g id="a_node3"><a xlink:href="./CLAS_CX_DYNAMIC_CHECK.html" xlink:title="CLAS&#45;CX_DYNAMIC_CHECK">
<polygon fill="none" stroke="green" points="606.33,-252 401.96,-252 401.96,-216 606.33,-216 606.33,-252"/>
<text text-anchor="middle" x="504.14" y="-229.8" font-family="Times,serif" font-size="14.00">CLAS&#45;CX_DYNAMIC_CHECK</text>
</a>
</g>
</g>
<!-- CLAS&#45;CX_SY_MATCHER&#45;&gt;CLAS&#45;CX_DYNAMIC_CHECK -->
<g id="edge5" class="edge">
<title>CLAS&#45;CX_SY_MATCHER&#45;&gt;CLAS&#45;CX_DYNAMIC_CHECK</title>
<path fill="none" stroke="black" d="M600.83,-287.88C583.94,-278.64 562.9,-267.13 544.76,-257.21"/>
<polygon fill="black" stroke="black" points="546.03,-253.92 535.58,-252.19 542.67,-260.06 546.03,-253.92"/>
</g>
<!-- CLAS&#45;CX_SY_MATCHER&#45;&gt;DTEL&#45;SOTR_CONC -->
<g id="edge4" class="edge">
<title>CLAS&#45;CX_SY_MATCHER&#45;&gt;DTEL&#45;SOTR_CONC</title>
<path fill="none" stroke="black" d="M641.44,-287.85C661.68,-250.52 709.82,-161.69 733.91,-117.26"/>
<polygon fill="black" stroke="black" points="737.12,-118.69 738.8,-108.23 730.96,-115.36 737.12,-118.69"/>
</g>
<!-- CLAS&#45;CX_ROOT -->
<g id="node4" class="node">
<title>CLAS&#45;CX_ROOT</title>
<g id="a_node4"><a xlink:href="./CLAS_CX_ROOT.html" xlink:title="CLAS&#45;CX_ROOT">
<polygon fill="none" stroke="green" points="548.63,-180 427.66,-180 427.66,-144 548.63,-144 548.63,-180"/>
<text text-anchor="middle" x="488.14" y="-157.8" font-family="Times,serif" font-size="14.00">CLAS&#45;CX_ROOT</text>
</a>
</g>
</g>
<!-- CLAS&#45;CX_DYNAMIC_CHECK&#45;&gt;CLAS&#45;CX_ROOT -->
<g id="edge6" class="edge">
<title>CLAS&#45;CX_DYNAMIC_CHECK&#45;&gt;CLAS&#45;CX_ROOT</title>
<path fill="none" stroke="black" d="M500.19,-215.7C498.43,-207.98 496.31,-198.71 494.34,-190.11"/>
<polygon fill="black" stroke="black" points="497.69,-189.07 492.05,-180.1 490.87,-190.63 497.69,-189.07"/>
</g>
<!-- INTF&#45;IF_SERIALIZABLE_OBJECT -->
<g id="node5" class="node">
<title>INTF&#45;IF_SERIALIZABLE_OBJECT</title>
<g id="a_node5"><a xlink:href="./INTF_IF_SERIALIZABLE_OBJECT.html" xlink:title="INTF&#45;IF_SERIALIZABLE_OBJECT">
<polygon fill="none" stroke="green" points="228.43,-108 -0.14,-108 -0.14,-72 228.43,-72 228.43,-108"/>
<text text-anchor="middle" x="114.14" y="-85.8" font-family="Times,serif" font-size="14.00">INTF&#45;IF_SERIALIZABLE_OBJECT</text>
</a>
</g>
</g>
<!-- CLAS&#45;CX_ROOT&#45;&gt;INTF&#45;IF_SERIALIZABLE_OBJECT -->
<g id="edge11" class="edge">
<title>CLAS&#45;CX_ROOT&#45;&gt;INTF&#45;IF_SERIALIZABLE_OBJECT</title>
<path fill="none" stroke="black" d="M427.64,-149.68C370.3,-138.94 283.09,-122.62 215.19,-109.91"/>
<polygon fill="black" stroke="black" points="215.79,-106.46 205.32,-108.06 214.51,-113.35 215.79,-106.46"/>
</g>
<!-- INTF&#45;IF_MESSAGE -->
<g id="node6" class="node">
<title>INTF&#45;IF_MESSAGE</title>
<g id="a_node6"><a xlink:href="./INTF_IF_MESSAGE.html" xlink:title="INTF&#45;IF_MESSAGE">
<polygon fill="none" stroke="green" points="382.18,-108 246.11,-108 246.11,-72 382.18,-72 382.18,-108"/>
<text text-anchor="middle" x="314.14" y="-85.8" font-family="Times,serif" font-size="14.00">INTF&#45;IF_MESSAGE</text>
</a>
</g>
</g>
<!-- CLAS&#45;CX_ROOT&#45;&gt;INTF&#45;IF_MESSAGE -->
<g id="edge10" class="edge">
<title>CLAS&#45;CX_ROOT&#45;&gt;INTF&#45;IF_MESSAGE</title>
<path fill="none" stroke="black" d="M445.58,-143.88C421.58,-134.22 391.42,-122.09 366.04,-111.88"/>
<polygon fill="black" stroke="black" points="367.16,-108.55 356.57,-108.07 364.54,-115.05 367.16,-108.55"/>
</g>
<!-- DTEL&#45;SYREPID -->
<g id="node7" class="node">
<title>DTEL&#45;SYREPID</title>
<g id="a_node7"><a xlink:href="./DTEL_SYREPID.html" xlink:title="DTEL&#45;SYREPID">
<polygon fill="none" stroke="green" points="515.4,-108 400.89,-108 400.89,-72 515.4,-72 515.4,-108"/>
<text text-anchor="middle" x="458.14" y="-85.8" font-family="Times,serif" font-size="14.00">DTEL&#45;SYREPID</text>
</a>
</g>
</g>
<!-- CLAS&#45;CX_ROOT&#45;&gt;DTEL&#45;SYREPID -->
<g id="edge9" class="edge">
<title>CLAS&#45;CX_ROOT&#45;&gt;DTEL&#45;SYREPID</title>
<path fill="none" stroke="black" d="M480.73,-143.7C477.35,-135.81 473.27,-126.3 469.52,-117.55"/>
<polygon fill="black" stroke="black" points="472.63,-115.92 465.47,-108.1 466.2,-118.67 472.63,-115.92"/>
</g>
<!-- DTEL&#45;S380ERRID -->
<g id="node9" class="node">
<title>DTEL&#45;S380ERRID</title>
<g id="a_node9"><a xlink:href="./DTEL_S380ERRID.html" xlink:title="DTEL&#45;S380ERRID">
<polygon fill="none" stroke="yellow" points="660.85,-108 533.44,-108 533.44,-72 660.85,-72 660.85,-108"/>
<text text-anchor="middle" x="597.14" y="-85.8" font-family="Times,serif" font-size="14.00">DTEL&#45;S380ERRID</text>
</a>
</g>
</g>
<!-- CLAS&#45;CX_ROOT&#45;&gt;DTEL&#45;S380ERRID -->
<g id="edge8" class="edge">
<title>CLAS&#45;CX_ROOT&#45;&gt;DTEL&#45;S380ERRID</title>
<path fill="none" stroke="black" d="M514.81,-143.88C528.93,-134.81 546.46,-123.55 561.71,-113.76"/>
<polygon fill="black" stroke="black" points="563.85,-116.54 570.38,-108.19 560.07,-110.65 563.85,-116.54"/>
</g>
<!-- CLAS&#45;CX_ROOT&#45;&gt;DTEL&#45;SOTR_CONC -->
<g id="edge7" class="edge">
<title>CLAS&#45;CX_ROOT&#45;&gt;DTEL&#45;SOTR_CONC</title>
<path fill="none" stroke="black" d="M548.77,-144.68C586.48,-134.52 635.2,-121.41 675.04,-110.68"/>
<polygon fill="black" stroke="black" points="675.95,-114.06 684.7,-108.08 674.13,-107.3 675.95,-114.06"/>
</g>
<!-- DOMA&#45;PROGRAMM -->
<g id="node8" class="node">
<title>DOMA&#45;PROGRAMM</title>
<g id="a_node8"><a xlink:href="./DOMA_PROGRAMM.html" xlink:title="DOMA&#45;PROGRAMM">
<polygon fill="none" stroke="yellow" points="511.73,-36 366.55,-36 366.55,0 511.73,0 511.73,-36"/>
<text text-anchor="middle" x="439.14" y="-13.8" font-family="Times,serif" font-size="14.00">DOMA&#45;PROGRAMM</text>
</a>
</g>
</g>
<!-- DTEL&#45;SYREPID&#45;&gt;DOMA&#45;PROGRAMM -->
<g id="edge12" class="edge">
<title>DTEL&#45;SYREPID&#45;&gt;DOMA&#45;PROGRAMM</title>
<path fill="none" stroke="black" d="M453.45,-71.7C451.33,-63.9 448.78,-54.51 446.43,-45.83"/>
<polygon fill="black" stroke="black" points="449.78,-44.84 443.79,-36.1 443.03,-46.67 449.78,-44.84"/>
</g>
<!-- DOMA&#45;SYCHAR30 -->
<g id="node10" class="node">
<title>DOMA&#45;SYCHAR30</title>
<g id="a_node10"><a xlink:href="./DOMA_SYCHAR30.html" xlink:title="DOMA&#45;SYCHAR30">
<polygon fill="none" stroke="yellow" points="664.35,-36 529.94,-36 529.94,0 664.35,0 664.35,-36"/>
<text text-anchor="middle" x="597.14" y="-13.8" font-family="Times,serif" font-size="14.00">DOMA&#45;SYCHAR30</text>
</a>
</g>
</g>
<!-- DTEL&#45;S380ERRID&#45;&gt;DOMA&#45;SYCHAR30 -->
<g id="edge13" class="edge">
<title>DTEL&#45;S380ERRID&#45;&gt;DOMA&#45;SYCHAR30</title>
<path fill="none" stroke="black" d="M597.14,-71.7C597.14,-63.98 597.14,-54.71 597.14,-46.11"/>
<polygon fill="black" stroke="black" points="600.64,-46.1 597.14,-36.1 593.64,-46.1 600.64,-46.1"/>
</g>
<!-- DOMA&#45;SYSUUID_C -->
<g id="node12" class="node">
<title>DOMA&#45;SYSUUID_C</title>
<g id="a_node12"><a xlink:href="./DOMA_SYSUUID_C.html" xlink:title="DOMA&#45;SYSUUID_C">
<polygon fill="none" stroke="yellow" points="822.56,-36 681.73,-36 681.73,0 822.56,0 822.56,-36"/>
<text text-anchor="middle" x="752.14" y="-13.8" font-family="Times,serif" font-size="14.00">DOMA&#45;SYSUUID_C</text>
</a>
</g>
</g>
<!-- DTEL&#45;SOTR_CONC&#45;&gt;DOMA&#45;SYSUUID_C -->
<g id="edge14" class="edge">
<title>DTEL&#45;SOTR_CONC&#45;&gt;DOMA&#45;SYSUUID_C</title>
<path fill="none" stroke="black" d="M749.13,-71.7C749.57,-63.98 750.1,-54.71 750.6,-46.11"/>
<polygon fill="black" stroke="black" points="754.09,-46.29 751.17,-36.1 747.1,-45.89 754.09,-46.29"/>
</g>
<!-- DOMA&#45;INT4 -->
<g id="node14" class="node">
<title>DOMA&#45;INT4</title>
<g id="a_node14"><a xlink:href="./DOMA_INT4.html" xlink:title="DOMA&#45;INT4">
<polygon fill="none" stroke="yellow" points="869.89,-252 776.4,-252 776.4,-216 869.89,-216 869.89,-252"/>
<text text-anchor="middle" x="823.14" y="-229.8" font-family="Times,serif" font-size="14.00">DOMA&#45;INT4</text>
</a>
</g>
</g>
<!-- DTEL&#45;INT4&#45;&gt;DOMA&#45;INT4 -->
<g id="edge15" class="edge">
<title>DTEL&#45;INT4&#45;&gt;DOMA&#45;INT4</title>
<path fill="none" stroke="black" d="M821.64,-287.7C821.86,-279.98 822.12,-270.71 822.37,-262.11"/>
<polygon fill="black" stroke="black" points="825.87,-262.2 822.66,-252.1 818.87,-262 825.87,-262.2"/>
</g>
</g>
</svg>
