<?xml version="1.0" encoding="UTF-8" standalone="no"?>
<!DOCTYPE svg PUBLIC "-//W3C//DTD SVG 1.1//EN"
 "http://www.w3.org/Graphics/SVG/1.1/DTD/svg11.dtd">
<!-- Generated by graphviz version 2.47.3 (20210619.1520)
 -->
<!-- Title: G Pages: 1 -->
<svg width="840pt" height="404pt"
 viewBox="0.00 0.00 840.44 404.00" xmlns="http://www.w3.org/2000/svg" xmlns:xlink="http://www.w3.org/1999/xlink">
<g id="graph0" class="graph" transform="scale(1 1) rotate(0) translate(4 400)">
<title>G</title>
<polygon fill="white" stroke="transparent" points="-4,4 -4,-400 836.44,-400 836.44,4 -4,4"/>
<!-- CLAS&#45;CX_SY_DYN_CALL_ILLEGAL_METHOD -->
<g id="node1" class="node">
<title>CLAS&#45;CX_SY_DYN_CALL_ILLEGAL_METHOD</title>
<polygon fill="none" stroke="green" points="832.24,-396 518.05,-396 518.05,-360 832.24,-360 832.24,-396"/>
<text text-anchor="middle" x="675.14" y="-373.8" font-family="Times,serif" font-size="14.00">CLAS&#45;CX_SY_DYN_CALL_ILLEGAL_METHOD</text>
</g>
<!-- CLAS&#45;CX_SY_DYN_CALL_ERROR -->
<g id="node2" class="node">
<title>CLAS&#45;CX_SY_DYN_CALL_ERROR</title>
<g id="a_node2"><a xlink:href="./CLAS_CX_SY_DYN_CALL_ERROR.html" xlink:title="CLAS&#45;CX_SY_DYN_CALL_ERROR">
<polygon fill="none" stroke="green" points="719.95,-324 484.34,-324 484.34,-288 719.95,-288 719.95,-324"/>
<text text-anchor="middle" x="602.14" y="-301.8" font-family="Times,serif" font-size="14.00">CLAS&#45;CX_SY_DYN_CALL_ERROR</text>
</a>
</g>
</g>
<!-- CLAS&#45;CX_SY_DYN_CALL_ILLEGAL_METHOD&#45;&gt;CLAS&#45;CX_SY_DYN_CALL_ERROR -->
<g id="edge2" class="edge">
<title>CLAS&#45;CX_SY_DYN_CALL_ILLEGAL_METHOD&#45;&gt;CLAS&#45;CX_SY_DYN_CALL_ERROR</title>
<path fill="none" stroke="black" d="M657.1,-359.7C648.08,-351.05 637.03,-340.45 627.2,-331.03"/>
<polygon fill="black" stroke="black" points="629.62,-328.5 619.98,-324.1 624.78,-333.55 629.62,-328.5"/>
</g>
<!-- DTEL&#45;SOTR_CONC -->
<g id="node11" class="node">
<title>DTEL&#45;SOTR_CONC</title>
<g id="a_node11"><a xlink:href="./DTEL_SOTR_CONC.html" xlink:title="DTEL&#45;SOTR_CONC">
<polygon fill="none" stroke="yellow" points="817.23,-108 679.05,-108 679.05,-72 817.23,-72 817.23,-108"/>
<text text-anchor="middle" x="748.14" y="-85.8" font-family="Times,serif" font-size="14.00">DTEL&#45;SOTR_CONC</text>
</a>
</g>
</g>
<!-- CLAS&#45;CX_SY_DYN_CALL_ILLEGAL_METHOD&#45;&gt;DTEL&#45;SOTR_CONC -->
<g id="edge1" class="edge">
<title>CLAS&#45;CX_SY_DYN_CALL_ILLEGAL_METHOD&#45;&gt;DTEL&#45;SOTR_CONC</title>
<path fill="none" stroke="black" d="M699.29,-359.87C710.38,-350.6 722.51,-338.16 729.14,-324 761.19,-255.58 756.68,-163.47 751.83,-118.29"/>
<polygon fill="black" stroke="black" points="755.28,-117.64 750.64,-108.11 748.33,-118.45 755.28,-117.64"/>
</g>
<!-- CLAS&#45;CX_DYNAMIC_CHECK -->
<g id="node3" class="node">
<title>CLAS&#45;CX_DYNAMIC_CHECK</title>
<g id="a_node3"><a xlink:href="./CLAS_CX_DYNAMIC_CHECK.html" xlink:title="CLAS&#45;CX_DYNAMIC_CHECK">
<polygon fill="none" stroke="green" points="591.33,-252 386.96,-252 386.96,-216 591.33,-216 591.33,-252"/>
<text text-anchor="middle" x="489.14" y="-229.8" font-family="Times,serif" font-size="14.00">CLAS&#45;CX_DYNAMIC_CHECK</text>
</a>
</g>
</g>
<!-- CLAS&#45;CX_SY_DYN_CALL_ERROR&#45;&gt;CLAS&#45;CX_DYNAMIC_CHECK -->
<g id="edge4" class="edge">
<title>CLAS&#45;CX_SY_DYN_CALL_ERROR&#45;&gt;CLAS&#45;CX_DYNAMIC_CHECK</title>
<path fill="none" stroke="black" d="M574.5,-287.88C559.73,-278.72 541.35,-267.34 525.44,-257.48"/>
<polygon fill="black" stroke="black" points="527.24,-254.48 516.89,-252.19 523.55,-260.43 527.24,-254.48"/>
</g>
<!-- CLAS&#45;CX_SY_DYN_CALL_ERROR&#45;&gt;DTEL&#45;SOTR_CONC -->
<g id="edge3" class="edge">
<title>CLAS&#45;CX_SY_DYN_CALL_ERROR&#45;&gt;DTEL&#45;SOTR_CONC</title>
<path fill="none" stroke="black" d="M613.85,-287.85C639.42,-250.36 700.42,-160.95 730.61,-116.7"/>
<polygon fill="black" stroke="black" points="733.64,-118.47 736.39,-108.23 727.86,-114.52 733.64,-118.47"/>
</g>
<!-- CLAS&#45;CX_ROOT -->
<g id="node4" class="node">
<title>CLAS&#45;CX_ROOT</title>
<g id="a_node4"><a xlink:href="./CLAS_CX_ROOT.html" xlink:title="CLAS&#45;CX_ROOT">
<polygon fill="none" stroke="green" points="533.63,-180 412.66,-180 412.66,-144 533.63,-144 533.63,-180"/>
<text text-anchor="middle" x="473.14" y="-157.8" font-family="Times,serif" font-size="14.00">CLAS&#45;CX_ROOT</text>
</a>
</g>
</g>
<!-- CLAS&#45;CX_DYNAMIC_CHECK&#45;&gt;CLAS&#45;CX_ROOT -->
<g id="edge5" class="edge">
<title>CLAS&#45;CX_DYNAMIC_CHECK&#45;&gt;CLAS&#45;CX_ROOT</title>
<path fill="none" stroke="black" d="M485.19,-215.7C483.43,-207.98 481.31,-198.71 479.34,-190.11"/>
<polygon fill="black" stroke="black" points="482.69,-189.07 477.05,-180.1 475.87,-190.63 482.69,-189.07"/>
</g>
<!-- INTF&#45;IF_SERIALIZABLE_OBJECT -->
<g id="node5" class="node">
<title>INTF&#45;IF_SERIALIZABLE_OBJECT</title>
<g id="a_node5"><a xlink:href="./INTF_IF_SERIALIZABLE_OBJECT.html" xlink:title="INTF&#45;IF_SERIALIZABLE_OBJECT">
<polygon fill="none" stroke="green" points="228.43,-108 -0.14,-108 -0.14,-72 228.43,-72 228.43,-108"/>
<text text-anchor="middle" x="114.14" y="-85.8" font-family="Times,serif" font-size="14.00">INTF&#45;IF_SERIALIZABLE_OBJECT</text>
</a>
</g>
</g>
<!-- CLAS&#45;CX_ROOT&#45;&gt;INTF&#45;IF_SERIALIZABLE_OBJECT -->
<g id="edge10" class="edge">
<title>CLAS&#45;CX_ROOT&#45;&gt;INTF&#45;IF_SERIALIZABLE_OBJECT</title>
<path fill="none" stroke="black" d="M412.65,-149.2C357.74,-138.5 275.78,-122.52 211.63,-110.01"/>
<polygon fill="black" stroke="black" points="211.98,-106.51 201.49,-108.03 210.64,-113.38 211.98,-106.51"/>
</g>
<!-- INTF&#45;IF_MESSAGE -->
<g id="node6" class="node">
<title>INTF&#45;IF_MESSAGE</title>
<g id="a_node6"><a xlink:href="./INTF_IF_MESSAGE.html" xlink:title="INTF&#45;IF_MESSAGE">
<polygon fill="none" stroke="green" points="382.18,-108 246.11,-108 246.11,-72 382.18,-72 382.18,-108"/>
<text text-anchor="middle" x="314.14" y="-85.8" font-family="Times,serif" font-size="14.00">INTF&#45;IF_MESSAGE</text>
</a>
</g>
</g>
<!-- CLAS&#45;CX_ROOT&#45;&gt;INTF&#45;IF_MESSAGE -->
<g id="edge9" class="edge">
<title>CLAS&#45;CX_ROOT&#45;&gt;INTF&#45;IF_MESSAGE</title>
<path fill="none" stroke="black" d="M434.25,-143.88C412.51,-134.31 385.24,-122.3 362.18,-112.15"/>
<polygon fill="black" stroke="black" points="363.48,-108.89 352.91,-108.07 360.66,-115.3 363.48,-108.89"/>
</g>
<!-- DTEL&#45;SYREPID -->
<g id="node7" class="node">
<title>DTEL&#45;SYREPID</title>
<g id="a_node7"><a xlink:href="./DTEL_SYREPID.html" xlink:title="DTEL&#45;SYREPID">
<polygon fill="none" stroke="green" points="515.4,-108 400.89,-108 400.89,-72 515.4,-72 515.4,-108"/>
<text text-anchor="middle" x="458.14" y="-85.8" font-family="Times,serif" font-size="14.00">DTEL&#45;SYREPID</text>
</a>
</g>
</g>
<!-- CLAS&#45;CX_ROOT&#45;&gt;DTEL&#45;SYREPID -->
<g id="edge8" class="edge">
<title>CLAS&#45;CX_ROOT&#45;&gt;DTEL&#45;SYREPID</title>
<path fill="none" stroke="black" d="M469.44,-143.7C467.78,-135.98 465.8,-126.71 463.95,-118.11"/>
<polygon fill="black" stroke="black" points="467.33,-117.15 461.81,-108.1 460.48,-118.62 467.33,-117.15"/>
</g>
<!-- DTEL&#45;S380ERRID -->
<g id="node9" class="node">
<title>DTEL&#45;S380ERRID</title>
<g id="a_node9"><a xlink:href="./DTEL_S380ERRID.html" xlink:title="DTEL&#45;S380ERRID">
<polygon fill="none" stroke="yellow" points="660.85,-108 533.44,-108 533.44,-72 660.85,-72 660.85,-108"/>
<text text-anchor="middle" x="597.14" y="-85.8" font-family="Times,serif" font-size="14.00">DTEL&#45;S380ERRID</text>
</a>
</g>
</g>
<!-- CLAS&#45;CX_ROOT&#45;&gt;DTEL&#45;S380ERRID -->
<g id="edge7" class="edge">
<title>CLAS&#45;CX_ROOT&#45;&gt;DTEL&#45;S380ERRID</title>
<path fill="none" stroke="black" d="M503.48,-143.88C519.84,-134.64 540.23,-123.13 557.8,-113.21"/>
<polygon fill="black" stroke="black" points="559.71,-116.15 566.69,-108.19 556.27,-110.06 559.71,-116.15"/>
</g>
<!-- CLAS&#45;CX_ROOT&#45;&gt;DTEL&#45;SOTR_CONC -->
<g id="edge6" class="edge">
<title>CLAS&#45;CX_ROOT&#45;&gt;DTEL&#45;SOTR_CONC</title>
<path fill="none" stroke="black" d="M533.83,-145.55C574.34,-135.24 627.93,-121.6 671.39,-110.54"/>
<polygon fill="black" stroke="black" points="672.52,-113.86 681.35,-108 670.79,-107.08 672.52,-113.86"/>
</g>
<!-- DOMA&#45;PROGRAMM -->
<g id="node8" class="node">
<title>DOMA&#45;PROGRAMM</title>
<g id="a_node8"><a xlink:href="./DOMA_PROGRAMM.html" xlink:title="DOMA&#45;PROGRAMM">
<polygon fill="none" stroke="yellow" points="511.73,-36 366.55,-36 366.55,0 511.73,0 511.73,-36"/>
<text text-anchor="middle" x="439.14" y="-13.8" font-family="Times,serif" font-size="14.00">DOMA&#45;PROGRAMM</text>
</a>
</g>
</g>
<!-- DTEL&#45;SYREPID&#45;&gt;DOMA&#45;PROGRAMM -->
<g id="edge11" class="edge">
<title>DTEL&#45;SYREPID&#45;&gt;DOMA&#45;PROGRAMM</title>
<path fill="none" stroke="black" d="M453.45,-71.7C451.33,-63.9 448.78,-54.51 446.43,-45.83"/>
<polygon fill="black" stroke="black" points="449.78,-44.84 443.79,-36.1 443.03,-46.67 449.78,-44.84"/>
</g>
<!-- DOMA&#45;SYCHAR30 -->
<g id="node10" class="node">
<title>DOMA&#45;SYCHAR30</title>
<g id="a_node10"><a xlink:href="./DOMA_SYCHAR30.html" xlink:title="DOMA&#45;SYCHAR30">
<polygon fill="none" stroke="yellow" points="664.35,-36 529.94,-36 529.94,0 664.35,0 664.35,-36"/>
<text text-anchor="middle" x="597.14" y="-13.8" font-family="Times,serif" font-size="14.00">DOMA&#45;SYCHAR30</text>
</a>
</g>
</g>
<!-- DTEL&#45;S380ERRID&#45;&gt;DOMA&#45;SYCHAR30 -->
<g id="edge12" class="edge">
<title>DTEL&#45;S380ERRID&#45;&gt;DOMA&#45;SYCHAR30</title>
<path fill="none" stroke="black" d="M597.14,-71.7C597.14,-63.98 597.14,-54.71 597.14,-46.11"/>
<polygon fill="black" stroke="black" points="600.64,-46.1 597.14,-36.1 593.64,-46.1 600.64,-46.1"/>
</g>
<!-- DOMA&#45;SYSUUID_C -->
<g id="node12" class="node">
<title>DOMA&#45;SYSUUID_C</title>
<g id="a_node12"><a xlink:href="./DOMA_SYSUUID_C.html" xlink:title="DOMA&#45;SYSUUID_C">
<polygon fill="none" stroke="yellow" points="822.56,-36 681.73,-36 681.73,0 822.56,0 822.56,-36"/>
<text text-anchor="middle" x="752.14" y="-13.8" font-family="Times,serif" font-size="14.00">DOMA&#45;SYSUUID_C</text>
</a>
</g>
</g>
<!-- DTEL&#45;SOTR_CONC&#45;&gt;DOMA&#45;SYSUUID_C -->
<g id="edge13" class="edge">
<title>DTEL&#45;SOTR_CONC&#45;&gt;DOMA&#45;SYSUUID_C</title>
<path fill="none" stroke="black" d="M749.13,-71.7C749.57,-63.98 750.1,-54.71 750.6,-46.11"/>
<polygon fill="black" stroke="black" points="754.09,-46.29 751.17,-36.1 747.1,-45.89 754.09,-46.29"/>
</g>
</g>
</svg>
