<?xml version="1.0" encoding="UTF-8" standalone="no"?>
<!DOCTYPE svg PUBLIC "-//W3C//DTD SVG 1.1//EN"
 "http://www.w3.org/Graphics/SVG/1.1/DTD/svg11.dtd">
<!-- Generated by graphviz version 2.47.3 (20210619.1520)
 -->
<!-- Title: G Pages: 1 -->
<svg width="1228pt" height="476pt"
 viewBox="0.00 0.00 1228.40 476.00" xmlns="http://www.w3.org/2000/svg" xmlns:xlink="http://www.w3.org/1999/xlink">
<g id="graph0" class="graph" transform="scale(1 1) rotate(0) translate(4 472)">
<title>G</title>
<polygon fill="white" stroke="transparent" points="-4,4 -4,-472 1224.4,-472 1224.4,4 -4,4"/>
<!-- CLAS&#45;CL_XCO_TAB_FKEY_CARDINALITY -->
<g id="node1" class="node">
<title>CLAS&#45;CL_XCO_TAB_FKEY_CARDINALITY</title>
<g id="a_node1"><a xlink:href="./CLAS_CL_XCO_TAB_FKEY_CARDINALITY.html" xlink:title="CLAS&#45;CL_XCO_TAB_FKEY_CARDINALITY">
<polygon fill="none" stroke="green" points="912.3,-468 620.19,-468 620.19,-432 912.3,-432 912.3,-468"/>
<text text-anchor="middle" x="766.25" y="-445.8" font-family="Times,serif" font-size="14.00">CLAS&#45;CL_XCO_TAB_FKEY_CARDINALITY</text>
</a>
</g>
</g>
<!-- INTF&#45;IF_XCO_GEN_TABL_FKEY_CARDNALTY -->
<g id="node2" class="node">
<title>INTF&#45;IF_XCO_GEN_TABL_FKEY_CARDNALTY</title>
<g id="a_node2"><a xlink:href="./INTF_IF_XCO_GEN_TABL_FKEY_CARDNALTY.html" xlink:title="INTF&#45;IF_XCO_GEN_TABL_FKEY_CARDNALTY">
<polygon fill="none" stroke="green" points="1062.68,-108 745.82,-108 745.82,-72 1062.68,-72 1062.68,-108"/>
<text text-anchor="middle" x="904.25" y="-85.8" font-family="Times,serif" font-size="14.00">INTF&#45;IF_XCO_GEN_TABL_FKEY_CARDNALTY</text>
</a>
</g>
</g>
<!-- CLAS&#45;CL_XCO_TAB_FKEY_CARDINALITY&#45;&gt;INTF&#45;IF_XCO_GEN_TABL_FKEY_CARDNALTY -->
<g id="edge6" class="edge">
<title>CLAS&#45;CL_XCO_TAB_FKEY_CARDINALITY&#45;&gt;INTF&#45;IF_XCO_GEN_TABL_FKEY_CARDNALTY</title>
<path fill="none" stroke="black" d="M888.9,-431.93C959.48,-414.39 1034.25,-378.87 1034.25,-307 1034.25,-307 1034.25,-307 1034.25,-233 1034.25,-191.53 1033.44,-175.31 1006.25,-144 994.54,-130.52 978.65,-120.19 962.86,-112.4"/>
<polygon fill="black" stroke="black" points="964.15,-109.14 953.61,-108.09 961.2,-115.49 964.15,-109.14"/>
</g>
<!-- CLAS&#45;CL_XCO_TAB_FKEY_CARDINALITY&#45;&gt;INTF&#45;IF_XCO_GEN_TABL_FKEY_CARDNALTY -->
<g id="edge14" class="edge">
<title>CLAS&#45;CL_XCO_TAB_FKEY_CARDINALITY&#45;&gt;INTF&#45;IF_XCO_GEN_TABL_FKEY_CARDNALTY</title>
<path fill="none" stroke="black" d="M904.38,-431.93C977.48,-414.39 1052.25,-378.87 1052.25,-307 1052.25,-307 1052.25,-307 1052.25,-233 1052.25,-191.53 1051.44,-175.31 1024.25,-144 1012.44,-130.4 996.35,-120 979.77,-112.18"/>
<polygon fill="black" stroke="black" points="981.1,-108.94 970.53,-108.09 978.26,-115.34 981.1,-108.94"/>
</g>
<!-- CLAS&#45;CL_XCO_TAB_FKEY_CARDINALITY_N -->
<g id="node4" class="node">
<title>CLAS&#45;CL_XCO_TAB_FKEY_CARDINALITY_N</title>
<g id="a_node4"><a xlink:href="./CLAS_CL_XCO_TAB_FKEY_CARDINALITY_N.html" xlink:title="CLAS&#45;CL_XCO_TAB_FKEY_CARDINALITY_N">
<polygon fill="none" stroke="green" points="681.91,-396 372.59,-396 372.59,-360 681.91,-360 681.91,-396"/>
<text text-anchor="middle" x="527.25" y="-373.8" font-family="Times,serif" font-size="14.00">CLAS&#45;CL_XCO_TAB_FKEY_CARDINALITY_N</text>
</a>
</g>
</g>
<!-- CLAS&#45;CL_XCO_TAB_FKEY_CARDINALITY&#45;&gt;CLAS&#45;CL_XCO_TAB_FKEY_CARDINALITY_N -->
<g id="edge5" class="edge">
<title>CLAS&#45;CL_XCO_TAB_FKEY_CARDINALITY&#45;&gt;CLAS&#45;CL_XCO_TAB_FKEY_CARDINALITY_N</title>
<path fill="none" stroke="black" d="M696.31,-431.97C660.4,-422.06 617.38,-409.51 583.6,-399.12"/>
<polygon fill="black" stroke="black" points="584.47,-395.73 573.88,-396.11 582.4,-402.41 584.47,-395.73"/>
</g>
<!-- CLAS&#45;CL_XCO_TAB_FKEY_CARDINALITY&#45;&gt;CLAS&#45;CL_XCO_TAB_FKEY_CARDINALITY_N -->
<g id="edge13" class="edge">
<title>CLAS&#45;CL_XCO_TAB_FKEY_CARDINALITY&#45;&gt;CLAS&#45;CL_XCO_TAB_FKEY_CARDINALITY_N</title>
<path fill="none" stroke="black" d="M708.09,-431.97C674.11,-422.01 631.06,-409.41 595.49,-398.99"/>
<polygon fill="black" stroke="black" points="596.25,-395.56 585.67,-396.11 594.28,-402.28 596.25,-395.56"/>
</g>
<!-- CLAS&#45;CL_XCO_TAB_FKEY_CARDINALITY_CN -->
<g id="node7" class="node">
<title>CLAS&#45;CL_XCO_TAB_FKEY_CARDINALITY_CN</title>
<g id="a_node7"><a xlink:href="./CLAS_CL_XCO_TAB_FKEY_CARDINALITY_CN.html" xlink:title="CLAS&#45;CL_XCO_TAB_FKEY_CARDINALITY_CN">
<polygon fill="none" stroke="green" points="318.75,-252 -0.25,-252 -0.25,-216 318.75,-216 318.75,-252"/>
<text text-anchor="middle" x="159.25" y="-229.8" font-family="Times,serif" font-size="14.00">CLAS&#45;CL_XCO_TAB_FKEY_CARDINALITY_CN</text>
</a>
</g>
</g>
<!-- CLAS&#45;CL_XCO_TAB_FKEY_CARDINALITY&#45;&gt;CLAS&#45;CL_XCO_TAB_FKEY_CARDINALITY_CN -->
<g id="edge4" class="edge">
<title>CLAS&#45;CL_XCO_TAB_FKEY_CARDINALITY&#45;&gt;CLAS&#45;CL_XCO_TAB_FKEY_CARDINALITY_CN</title>
<path fill="none" stroke="black" d="M620.16,-439.28C518.39,-430.6 392.95,-416.14 345.25,-396 270.21,-364.32 199.56,-297.26 170.73,-260.47"/>
<polygon fill="black" stroke="black" points="173.4,-258.18 164.63,-252.24 167.77,-262.36 173.4,-258.18"/>
</g>
<!-- CLAS&#45;CL_XCO_TAB_FKEY_CARDINALITY&#45;&gt;CLAS&#45;CL_XCO_TAB_FKEY_CARDINALITY_CN -->
<g id="edge12" class="edge">
<title>CLAS&#45;CL_XCO_TAB_FKEY_CARDINALITY&#45;&gt;CLAS&#45;CL_XCO_TAB_FKEY_CARDINALITY_CN</title>
<path fill="none" stroke="black" d="M620,-437.95C524.19,-429.16 408.6,-415.14 363.25,-396 287.58,-364.06 216.37,-296.13 181.54,-259.54"/>
<polygon fill="black" stroke="black" points="184.07,-257.13 174.67,-252.24 178.97,-261.92 184.07,-257.13"/>
</g>
<!-- CLAS&#45;CL_XCO_TAB_FKEY_CARDINALITY_C -->
<g id="node8" class="node">
<title>CLAS&#45;CL_XCO_TAB_FKEY_CARDINALITY_C</title>
<g id="a_node8"><a xlink:href="./CLAS_CL_XCO_TAB_FKEY_CARDINALITY_C.html" xlink:title="CLAS&#45;CL_XCO_TAB_FKEY_CARDINALITY_C">
<polygon fill="none" stroke="green" points="1006.64,-252 697.86,-252 697.86,-216 1006.64,-216 1006.64,-252"/>
<text text-anchor="middle" x="852.25" y="-229.8" font-family="Times,serif" font-size="14.00">CLAS&#45;CL_XCO_TAB_FKEY_CARDINALITY_C</text>
</a>
</g>
</g>
<!-- CLAS&#45;CL_XCO_TAB_FKEY_CARDINALITY&#45;&gt;CLAS&#45;CL_XCO_TAB_FKEY_CARDINALITY_C -->
<g id="edge3" class="edge">
<title>CLAS&#45;CL_XCO_TAB_FKEY_CARDINALITY&#45;&gt;CLAS&#45;CL_XCO_TAB_FKEY_CARDINALITY_C</title>
<path fill="none" stroke="black" d="M762.17,-431.86C766.47,-421.74 774.47,-408.49 780.25,-396 801.34,-350.41 818.28,-294.19 832.55,-261.69"/>
<polygon fill="black" stroke="black" points="835.83,-262.94 836.9,-252.4 829.49,-259.97 835.83,-262.94"/>
</g>
<!-- CLAS&#45;CL_XCO_TAB_FKEY_CARDINALITY&#45;&gt;CLAS&#45;CL_XCO_TAB_FKEY_CARDINALITY_C -->
<g id="edge11" class="edge">
<title>CLAS&#45;CL_XCO_TAB_FKEY_CARDINALITY&#45;&gt;CLAS&#45;CL_XCO_TAB_FKEY_CARDINALITY_C</title>
<path fill="none" stroke="black" d="M777.92,-431.86C784.47,-421.74 792.47,-408.49 798.25,-396 819.25,-350.61 836.13,-294.68 845.13,-262.11"/>
<polygon fill="black" stroke="black" points="848.52,-262.96 847.77,-252.4 841.77,-261.13 848.52,-262.96"/>
</g>
<!-- CLAS&#45;CL_XCO_TAB_FKEY_CARDINALITY_1 -->
<g id="node10" class="node">
<title>CLAS&#45;CL_XCO_TAB_FKEY_CARDINALITY_1</title>
<g id="a_node10"><a xlink:href="./CLAS_CL_XCO_TAB_FKEY_CARDINALITY_1.html" xlink:title="CLAS&#45;CL_XCO_TAB_FKEY_CARDINALITY_1">
<polygon fill="none" stroke="green" points="680.3,-252 374.19,-252 374.19,-216 680.3,-216 680.3,-252"/>
<text text-anchor="middle" x="527.25" y="-229.8" font-family="Times,serif" font-size="14.00">CLAS&#45;CL_XCO_TAB_FKEY_CARDINALITY_1</text>
</a>
</g>
</g>
<!-- CLAS&#45;CL_XCO_TAB_FKEY_CARDINALITY&#45;&gt;CLAS&#45;CL_XCO_TAB_FKEY_CARDINALITY_1 -->
<g id="edge2" class="edge">
<title>CLAS&#45;CL_XCO_TAB_FKEY_CARDINALITY&#45;&gt;CLAS&#45;CL_XCO_TAB_FKEY_CARDINALITY_1</title>
<path fill="none" stroke="black" d="M752.55,-431.97C737.24,-399.3 716.3,-327.55 671.25,-288 654.83,-273.59 634.42,-263.08 614.1,-255.43"/>
<polygon fill="black" stroke="black" points="615.07,-252.06 604.48,-252 612.72,-258.65 615.07,-252.06"/>
</g>
<!-- CLAS&#45;CL_XCO_TAB_FKEY_CARDINALITY&#45;&gt;CLAS&#45;CL_XCO_TAB_FKEY_CARDINALITY_1 -->
<g id="edge10" class="edge">
<title>CLAS&#45;CL_XCO_TAB_FKEY_CARDINALITY&#45;&gt;CLAS&#45;CL_XCO_TAB_FKEY_CARDINALITY_1</title>
<path fill="none" stroke="black" d="M762.78,-431.97C755.24,-399.3 734.3,-327.55 689.25,-288 672.76,-273.53 652.23,-262.99 631.39,-255.32"/>
<polygon fill="black" stroke="black" points="632.4,-251.97 621.81,-252 630.11,-258.58 632.4,-251.97"/>
</g>
<!-- DTEL&#45;CARD -->
<g id="node11" class="node">
<title>DTEL&#45;CARD</title>
<g id="a_node11"><a xlink:href="./DTEL_CARD.html" xlink:title="DTEL&#45;CARD">
<polygon fill="none" stroke="yellow" points="1214.06,-396 1118.44,-396 1118.44,-360 1214.06,-360 1214.06,-396"/>
<text text-anchor="middle" x="1166.25" y="-373.8" font-family="Times,serif" font-size="14.00">DTEL&#45;CARD</text>
</a>
</g>
</g>
<!-- CLAS&#45;CL_XCO_TAB_FKEY_CARDINALITY&#45;&gt;DTEL&#45;CARD -->
<g id="edge1" class="edge">
<title>CLAS&#45;CL_XCO_TAB_FKEY_CARDINALITY&#45;&gt;DTEL&#45;CARD</title>
<path fill="none" stroke="black" d="M889.14,-431.94C951.19,-422.87 1027.45,-410.56 1095.25,-396 1099.6,-395.07 1104.1,-394.01 1108.64,-392.89"/>
<polygon fill="black" stroke="black" points="1109.73,-396.22 1118.56,-390.37 1108.01,-389.44 1109.73,-396.22"/>
</g>
<!-- CLAS&#45;CL_XCO_TAB_FKEY_CARDINALITY&#45;&gt;DTEL&#45;CARD -->
<g id="edge9" class="edge">
<title>CLAS&#45;CL_XCO_TAB_FKEY_CARDINALITY&#45;&gt;DTEL&#45;CARD</title>
<path fill="none" stroke="black" d="M905.44,-431.94C966.33,-423.27 1038.62,-411.66 1108.68,-396.92"/>
<polygon fill="black" stroke="black" points="1109.49,-400.33 1118.55,-394.82 1108.04,-393.48 1109.49,-400.33"/>
</g>
<!-- CLAS&#45;CL_XCO_GEN_TABL_BP_FKEY_CARD -->
<g id="node3" class="node">
<title>CLAS&#45;CL_XCO_GEN_TABL_BP_FKEY_CARD</title>
<g id="a_node3"><a xlink:href="./CLAS_CL_XCO_GEN_TABL_BP_FKEY_CARD.html" xlink:title="CLAS&#45;CL_XCO_GEN_TABL_BP_FKEY_CARD">
<polygon fill="none" stroke="green" points="1149,-36 845.5,-36 845.5,0 1149,0 1149,-36"/>
<text text-anchor="middle" x="997.25" y="-13.8" font-family="Times,serif" font-size="14.00">CLAS&#45;CL_XCO_GEN_TABL_BP_FKEY_CARD</text>
</a>
</g>
</g>
<!-- INTF&#45;IF_XCO_GEN_TABL_FKEY_CARDNALTY&#45;&gt;CLAS&#45;CL_XCO_GEN_TABL_BP_FKEY_CARD -->
<g id="edge7" class="edge">
<title>INTF&#45;IF_XCO_GEN_TABL_FKEY_CARDNALTY&#45;&gt;CLAS&#45;CL_XCO_GEN_TABL_BP_FKEY_CARD</title>
<path fill="none" stroke="black" d="M927.24,-71.7C939.06,-62.8 953.64,-51.82 966.43,-42.2"/>
<polygon fill="black" stroke="black" points="968.64,-44.91 974.52,-36.1 964.43,-39.32 968.64,-44.91"/>
</g>
<!-- CLAS&#45;CL_XCO_GEN_TABL_BP_FKEY_CARD&#45;&gt;CLAS&#45;CL_XCO_TAB_FKEY_CARDINALITY -->
<g id="edge8" class="edge">
<title>CLAS&#45;CL_XCO_GEN_TABL_BP_FKEY_CARD&#45;&gt;CLAS&#45;CL_XCO_TAB_FKEY_CARDINALITY</title>
<path fill="none" stroke="black" d="M1031.57,-36.15C1045.9,-44.98 1061.47,-57.06 1071.25,-72 1093.41,-105.84 1090.25,-120.55 1090.25,-161 1090.25,-307 1090.25,-307 1090.25,-307 1090.25,-387.41 1005.5,-422.71 922.69,-438.02"/>
<polygon fill="black" stroke="black" points="921.85,-434.61 912.61,-439.78 923.06,-441.5 921.85,-434.61"/>
</g>
<!-- CLAS&#45;CL_XCO_TAB_FKEY_CARDINALITY_N&#45;&gt;CLAS&#45;CL_XCO_TAB_FKEY_CARDINALITY -->
<g id="edge15" class="edge">
<title>CLAS&#45;CL_XCO_TAB_FKEY_CARDINALITY_N&#45;&gt;CLAS&#45;CL_XCO_TAB_FKEY_CARDINALITY</title>
<path fill="none" stroke="black" d="M597.46,-396.11C633.42,-406.03 676.43,-418.58 710.16,-428.96"/>
<polygon fill="black" stroke="black" points="709.28,-432.35 719.86,-431.97 711.35,-425.66 709.28,-432.35"/>
</g>
<!-- INTF&#45;IF_XCO_GEN_TABL_FKEY_CARD_RGHT -->
<g id="node5" class="node">
<title>INTF&#45;IF_XCO_GEN_TABL_FKEY_CARD_RGHT</title>
<g id="a_node5"><a xlink:href="./INTF_IF_XCO_GEN_TABL_FKEY_CARD_RGHT.html" xlink:title="INTF&#45;IF_XCO_GEN_TABL_FKEY_CARD_RGHT">
<polygon fill="none" stroke="green" points="678.36,-180 364.14,-180 364.14,-144 678.36,-144 678.36,-180"/>
<text text-anchor="middle" x="521.25" y="-157.8" font-family="Times,serif" font-size="14.00">INTF&#45;IF_XCO_GEN_TABL_FKEY_CARD_RGHT</text>
</a>
</g>
</g>
<!-- CLAS&#45;CL_XCO_TAB_FKEY_CARDINALITY_N&#45;&gt;INTF&#45;IF_XCO_GEN_TABL_FKEY_CARD_RGHT -->
<g id="edge17" class="edge">
<title>CLAS&#45;CL_XCO_TAB_FKEY_CARDINALITY_N&#45;&gt;INTF&#45;IF_XCO_GEN_TABL_FKEY_CARD_RGHT</title>
<path fill="none" stroke="black" d="M413.4,-359.94C394.53,-352 377.23,-340.53 365.25,-324 337.07,-285.14 337.3,-255.02 365.25,-216 375.14,-202.2 388.82,-191.95 404.02,-184.34"/>
<polygon fill="black" stroke="black" points="405.49,-187.52 413.12,-180.17 402.57,-181.16 405.49,-187.52"/>
</g>
<!-- CLAS&#45;CL_XCO_TAB_FKEY_CARDINALITY_F -->
<g id="node6" class="node">
<title>CLAS&#45;CL_XCO_TAB_FKEY_CARDINALITY_F</title>
<g id="a_node6"><a xlink:href="./CLAS_CL_XCO_TAB_FKEY_CARDINALITY_F.html" xlink:title="CLAS&#45;CL_XCO_TAB_FKEY_CARDINALITY_F">
<polygon fill="none" stroke="green" points="680.59,-324 373.91,-324 373.91,-288 680.59,-288 680.59,-324"/>
<text text-anchor="middle" x="527.25" y="-301.8" font-family="Times,serif" font-size="14.00">CLAS&#45;CL_XCO_TAB_FKEY_CARDINALITY_F</text>
</a>
</g>
</g>
<!-- CLAS&#45;CL_XCO_TAB_FKEY_CARDINALITY_N&#45;&gt;CLAS&#45;CL_XCO_TAB_FKEY_CARDINALITY_F -->
<g id="edge16" class="edge">
<title>CLAS&#45;CL_XCO_TAB_FKEY_CARDINALITY_N&#45;&gt;CLAS&#45;CL_XCO_TAB_FKEY_CARDINALITY_F</title>
<path fill="none" stroke="black" d="M521.33,-359.7C520.54,-351.98 520.31,-342.71 520.65,-334.11"/>
<polygon fill="black" stroke="black" points="524.15,-334.32 521.35,-324.1 517.16,-333.84 524.15,-334.32"/>
</g>
<!-- INTF&#45;IF_XCO_GEN_TABL_FKEY_CARD_RGHT&#45;&gt;INTF&#45;IF_XCO_GEN_TABL_FKEY_CARDNALTY -->
<g id="edge18" class="edge">
<title>INTF&#45;IF_XCO_GEN_TABL_FKEY_CARD_RGHT&#45;&gt;INTF&#45;IF_XCO_GEN_TABL_FKEY_CARDNALTY</title>
<path fill="none" stroke="black" d="M614.45,-143.97C670.86,-133.66 742.88,-120.49 801.02,-109.87"/>
<polygon fill="black" stroke="black" points="801.75,-113.29 810.96,-108.05 800.49,-106.41 801.75,-113.29"/>
</g>
<!-- CLAS&#45;CL_XCO_TAB_FKEY_CARDINALITY_F&#45;&gt;CLAS&#45;CL_XCO_TAB_FKEY_CARDINALITY -->
<g id="edge23" class="edge">
<title>CLAS&#45;CL_XCO_TAB_FKEY_CARDINALITY_F&#45;&gt;CLAS&#45;CL_XCO_TAB_FKEY_CARDINALITY</title>
<path fill="none" stroke="black" d="M610.15,-324.08C637.47,-332.17 667.03,-343.73 691.25,-360 715.83,-376.51 736.85,-403.29 750.32,-423.16"/>
<polygon fill="black" stroke="black" points="747.55,-425.32 755.97,-431.75 753.4,-421.47 747.55,-425.32"/>
</g>
<!-- CLAS&#45;CL_XCO_TAB_FKEY_CARDINALITY_F&#45;&gt;CLAS&#45;CL_XCO_TAB_FKEY_CARDINALITY_N -->
<g id="edge20" class="edge">
<title>CLAS&#45;CL_XCO_TAB_FKEY_CARDINALITY_F&#45;&gt;CLAS&#45;CL_XCO_TAB_FKEY_CARDINALITY_N</title>
<path fill="none" stroke="black" d="M533.14,-324.1C533.95,-331.79 534.19,-341.05 533.85,-349.67"/>
<polygon fill="black" stroke="black" points="530.36,-349.48 533.16,-359.7 537.34,-349.96 530.36,-349.48"/>
</g>
<!-- CLAS&#45;CL_XCO_TAB_FKEY_CARDINALITY_F&#45;&gt;CLAS&#45;CL_XCO_TAB_FKEY_CARDINALITY_CN -->
<g id="edge22" class="edge">
<title>CLAS&#45;CL_XCO_TAB_FKEY_CARDINALITY_F&#45;&gt;CLAS&#45;CL_XCO_TAB_FKEY_CARDINALITY_CN</title>
<path fill="none" stroke="black" d="M431.81,-287.97C376.75,-277.7 307.83,-264.6 253.05,-254"/>
<polygon fill="black" stroke="black" points="253.48,-250.52 242.99,-252.05 252.15,-257.39 253.48,-250.52"/>
</g>
<!-- CLAS&#45;CL_XCO_TAB_FKEY_CARDINALITY_F&#45;&gt;CLAS&#45;CL_XCO_TAB_FKEY_CARDINALITY_C -->
<g id="edge21" class="edge">
<title>CLAS&#45;CL_XCO_TAB_FKEY_CARDINALITY_F&#45;&gt;CLAS&#45;CL_XCO_TAB_FKEY_CARDINALITY_C</title>
<path fill="none" stroke="black" d="M600.45,-287.97C646.84,-277.74 707.28,-264.71 757.33,-254.13"/>
<polygon fill="black" stroke="black" points="758.14,-257.54 767.2,-252.05 756.69,-250.69 758.14,-257.54"/>
</g>
<!-- CLAS&#45;CL_XCO_TAB_FKEY_CARDINALITY_F&#45;&gt;CLAS&#45;CL_XCO_TAB_FKEY_CARDINALITY_1 -->
<g id="edge19" class="edge">
<title>CLAS&#45;CL_XCO_TAB_FKEY_CARDINALITY_F&#45;&gt;CLAS&#45;CL_XCO_TAB_FKEY_CARDINALITY_1</title>
<path fill="none" stroke="black" d="M521.33,-287.7C520.54,-279.98 520.31,-270.71 520.65,-262.11"/>
<polygon fill="black" stroke="black" points="524.15,-262.32 521.35,-252.1 517.16,-261.84 524.15,-262.32"/>
</g>
<!-- CLAS&#45;CL_XCO_TAB_FKEY_CARDINALITY_CN&#45;&gt;CLAS&#45;CL_XCO_TAB_FKEY_CARDINALITY -->
<g id="edge24" class="edge">
<title>CLAS&#45;CL_XCO_TAB_FKEY_CARDINALITY_CN&#45;&gt;CLAS&#45;CL_XCO_TAB_FKEY_CARDINALITY</title>
<path fill="none" stroke="black" d="M184.72,-252.24C224.26,-286.28 300.2,-361.78 381.25,-396 422.6,-413.46 522.38,-426.65 610.1,-435.51"/>
<polygon fill="black" stroke="black" points="609.88,-439.01 620.18,-436.52 610.58,-432.04 609.88,-439.01"/>
</g>
<!-- CLAS&#45;CL_XCO_TAB_FKEY_CARDINALITY_CN&#45;&gt;INTF&#45;IF_XCO_GEN_TABL_FKEY_CARD_RGHT -->
<g id="edge26" class="edge">
<title>CLAS&#45;CL_XCO_TAB_FKEY_CARDINALITY_CN&#45;&gt;INTF&#45;IF_XCO_GEN_TABL_FKEY_CARD_RGHT</title>
<path fill="none" stroke="black" d="M247.34,-215.97C300.44,-205.7 368.17,-192.6 423,-182"/>
<polygon fill="black" stroke="black" points="423.92,-185.39 433.08,-180.05 422.59,-178.51 423.92,-185.39"/>
</g>
<!-- CLAS&#45;CL_XCO_TAB_FKEY_CARDINALITY_CN&#45;&gt;CLAS&#45;CL_XCO_TAB_FKEY_CARDINALITY_F -->
<g id="edge25" class="edge">
<title>CLAS&#45;CL_XCO_TAB_FKEY_CARDINALITY_CN&#45;&gt;CLAS&#45;CL_XCO_TAB_FKEY_CARDINALITY_F</title>
<path fill="none" stroke="black" d="M254.77,-252.05C309.85,-262.32 378.76,-275.42 433.53,-286.02"/>
<polygon fill="black" stroke="black" points="433.1,-289.5 443.58,-287.97 434.43,-282.63 433.1,-289.5"/>
</g>
<!-- CLAS&#45;CL_XCO_TAB_FKEY_CARDINALITY_C&#45;&gt;CLAS&#45;CL_XCO_TAB_FKEY_CARDINALITY -->
<g id="edge27" class="edge">
<title>CLAS&#45;CL_XCO_TAB_FKEY_CARDINALITY_C&#45;&gt;CLAS&#45;CL_XCO_TAB_FKEY_CARDINALITY</title>
<path fill="none" stroke="black" d="M858.64,-252.4C857.74,-282.45 839.53,-345.7 816.25,-396 811.87,-405.46 806.22,-415.36 799.9,-424.01"/>
<polygon fill="black" stroke="black" points="797.14,-421.86 793.67,-431.86 802.63,-426.21 797.14,-421.86"/>
</g>
<!-- CLAS&#45;CL_XCO_TAB_FKEY_CARDINALITY_C&#45;&gt;INTF&#45;IF_XCO_GEN_TABL_FKEY_CARD_RGHT -->
<g id="edge30" class="edge">
<title>CLAS&#45;CL_XCO_TAB_FKEY_CARDINALITY_C&#45;&gt;INTF&#45;IF_XCO_GEN_TABL_FKEY_CARD_RGHT</title>
<path fill="none" stroke="black" d="M771.7,-215.97C723.35,-205.74 661.73,-192.71 611.71,-182.13"/>
<polygon fill="black" stroke="black" points="612.38,-178.69 601.87,-180.05 610.93,-185.54 612.38,-178.69"/>
</g>
<!-- CLAS&#45;CL_XCO_TAB_FKEY_CARDINALITY_C&#45;&gt;CLAS&#45;CL_XCO_TAB_FKEY_CARDINALITY_F -->
<g id="edge28" class="edge">
<title>CLAS&#45;CL_XCO_TAB_FKEY_CARDINALITY_C&#45;&gt;CLAS&#45;CL_XCO_TAB_FKEY_CARDINALITY_F</title>
<path fill="none" stroke="black" d="M778.98,-252.05C732.57,-262.28 672.13,-275.31 622.09,-285.88"/>
<polygon fill="black" stroke="black" points="621.29,-282.48 612.23,-287.97 622.73,-289.33 621.29,-282.48"/>
</g>
<!-- INTF&#45;IF_XCO_GEN_TABL_FKEY_CARD_LEFT -->
<g id="node9" class="node">
<title>INTF&#45;IF_XCO_GEN_TABL_FKEY_CARD_LEFT</title>
<g id="a_node9"><a xlink:href="./INTF_IF_XCO_GEN_TABL_FKEY_CARD_LEFT.html" xlink:title="INTF&#45;IF_XCO_GEN_TABL_FKEY_CARD_LEFT">
<polygon fill="none" stroke="green" points="1006.19,-180 696.3,-180 696.3,-144 1006.19,-144 1006.19,-180"/>
<text text-anchor="middle" x="851.25" y="-157.8" font-family="Times,serif" font-size="14.00">INTF&#45;IF_XCO_GEN_TABL_FKEY_CARD_LEFT</text>
</a>
</g>
</g>
<!-- CLAS&#45;CL_XCO_TAB_FKEY_CARDINALITY_C&#45;&gt;INTF&#45;IF_XCO_GEN_TABL_FKEY_CARD_LEFT -->
<g id="edge29" class="edge">
<title>CLAS&#45;CL_XCO_TAB_FKEY_CARDINALITY_C&#45;&gt;INTF&#45;IF_XCO_GEN_TABL_FKEY_CARD_LEFT</title>
<path fill="none" stroke="black" d="M852,-215.7C851.89,-207.98 851.76,-198.71 851.64,-190.11"/>
<polygon fill="black" stroke="black" points="855.14,-190.05 851.49,-180.1 848.14,-190.15 855.14,-190.05"/>
</g>
<!-- INTF&#45;IF_XCO_GEN_TABL_FKEY_CARD_LEFT&#45;&gt;INTF&#45;IF_XCO_GEN_TABL_FKEY_CARDNALTY -->
<g id="edge31" class="edge">
<title>INTF&#45;IF_XCO_GEN_TABL_FKEY_CARD_LEFT&#45;&gt;INTF&#45;IF_XCO_GEN_TABL_FKEY_CARDNALTY</title>
<path fill="none" stroke="black" d="M864.35,-143.7C870.64,-135.39 878.3,-125.28 885.21,-116.14"/>
<polygon fill="black" stroke="black" points="888.05,-118.19 891.3,-108.1 882.47,-113.96 888.05,-118.19"/>
</g>
<!-- CLAS&#45;CL_XCO_TAB_FKEY_CARDINALITY_1&#45;&gt;CLAS&#45;CL_XCO_TAB_FKEY_CARDINALITY -->
<g id="edge32" class="edge">
<title>CLAS&#45;CL_XCO_TAB_FKEY_CARDINALITY_1&#45;&gt;CLAS&#45;CL_XCO_TAB_FKEY_CARDINALITY</title>
<path fill="none" stroke="black" d="M639.13,-252C663.85,-259.85 688.23,-271.31 707.25,-288 748.08,-323.84 769.1,-386.13 772.51,-421.81"/>
<polygon fill="black" stroke="black" points="769.02,-422.15 773,-431.97 776.01,-421.81 769.02,-422.15"/>
</g>
<!-- CLAS&#45;CL_XCO_TAB_FKEY_CARDINALITY_1&#45;&gt;INTF&#45;IF_XCO_GEN_TABL_FKEY_CARD_RGHT -->
<g id="edge35" class="edge">
<title>CLAS&#45;CL_XCO_TAB_FKEY_CARDINALITY_1&#45;&gt;INTF&#45;IF_XCO_GEN_TABL_FKEY_CARD_RGHT</title>
<path fill="none" stroke="black" d="M525.77,-215.7C525.1,-207.98 524.31,-198.71 523.57,-190.11"/>
<polygon fill="black" stroke="black" points="527.06,-189.77 522.72,-180.1 520.08,-190.37 527.06,-189.77"/>
</g>
<!-- CLAS&#45;CL_XCO_TAB_FKEY_CARDINALITY_1&#45;&gt;CLAS&#45;CL_XCO_TAB_FKEY_CARDINALITY_F -->
<g id="edge33" class="edge">
<title>CLAS&#45;CL_XCO_TAB_FKEY_CARDINALITY_1&#45;&gt;CLAS&#45;CL_XCO_TAB_FKEY_CARDINALITY_F</title>
<path fill="none" stroke="black" d="M533.14,-252.1C533.95,-259.79 534.19,-269.05 533.85,-277.67"/>
<polygon fill="black" stroke="black" points="530.36,-277.48 533.16,-287.7 537.34,-277.96 530.36,-277.48"/>
</g>
<!-- CLAS&#45;CL_XCO_TAB_FKEY_CARDINALITY_1&#45;&gt;INTF&#45;IF_XCO_GEN_TABL_FKEY_CARD_LEFT -->
<g id="edge34" class="edge">
<title>CLAS&#45;CL_XCO_TAB_FKEY_CARDINALITY_1&#45;&gt;INTF&#45;IF_XCO_GEN_TABL_FKEY_CARD_LEFT</title>
<path fill="none" stroke="black" d="M606.09,-215.97C653.32,-205.76 713.49,-192.76 762.39,-182.2"/>
<polygon fill="black" stroke="black" points="763.3,-185.58 772.33,-180.05 761.82,-178.74 763.3,-185.58"/>
</g>
<!-- DOMA&#45;CARD -->
<g id="node12" class="node">
<title>DOMA&#45;CARD</title>
<g id="a_node12"><a xlink:href="./DOMA_CARD.html" xlink:title="DOMA&#45;CARD">
<polygon fill="none" stroke="yellow" points="1220.56,-324 1117.94,-324 1117.94,-288 1220.56,-288 1220.56,-324"/>
<text text-anchor="middle" x="1169.25" y="-301.8" font-family="Times,serif" font-size="14.00">DOMA&#45;CARD</text>
</a>
</g>
</g>
<!-- DTEL&#45;CARD&#45;&gt;DOMA&#45;CARD -->
<g id="edge36" class="edge">
<title>DTEL&#45;CARD&#45;&gt;DOMA&#45;CARD</title>
<path fill="none" stroke="black" d="M1166.99,-359.7C1167.32,-351.98 1167.72,-342.71 1168.09,-334.11"/>
<polygon fill="black" stroke="black" points="1171.58,-334.25 1168.52,-324.1 1164.59,-333.95 1171.58,-334.25"/>
</g>
</g>
</svg>
