<?xml version="1.0" encoding="UTF-8" standalone="no"?>
<!DOCTYPE svg PUBLIC "-//W3C//DTD SVG 1.1//EN"
 "http://www.w3.org/Graphics/SVG/1.1/DTD/svg11.dtd">
<!-- Generated by graphviz version 2.47.3 (20210619.1520)
 -->
<!-- Title: G Pages: 1 -->
<svg width="3613pt" height="260pt"
 viewBox="0.00 0.00 3612.59 260.00" xmlns="http://www.w3.org/2000/svg" xmlns:xlink="http://www.w3.org/1999/xlink">
<g id="graph0" class="graph" transform="scale(1 1) rotate(0) translate(4 256)">
<title>G</title>
<polygon fill="white" stroke="transparent" points="-4,4 -4,-256 3608.59,-256 3608.59,4 -4,4"/>
<!-- CLAS&#45;CL_NUMBERRANGE_INTERVALS -->
<g id="node1" class="node">
<title>CLAS&#45;CL_NUMBERRANGE_INTERVALS</title>
<polygon fill="none" stroke="green" points="977.16,-252 702.81,-252 702.81,-216 977.16,-216 977.16,-252"/>
<text text-anchor="middle" x="839.99" y="-229.8" font-family="Times,serif" font-size="14.00">CLAS&#45;CL_NUMBERRANGE_INTERVALS</text>
</g>
<!-- DTEL&#45;FLAG -->
<g id="node2" class="node">
<title>DTEL&#45;FLAG</title>
<g id="a_node2"><a xlink:href="./DTEL_FLAG.html" xlink:title="DTEL&#45;FLAG">
<polygon fill="none" stroke="yellow" points="107.46,-180 14.51,-180 14.51,-144 107.46,-144 107.46,-180"/>
<text text-anchor="middle" x="60.99" y="-157.8" font-family="Times,serif" font-size="14.00">DTEL&#45;FLAG</text>
</a>
</g>
</g>
<!-- CLAS&#45;CL_NUMBERRANGE_INTERVALS&#45;&gt;DTEL&#45;FLAG -->
<g id="edge12" class="edge">
<title>CLAS&#45;CL_NUMBERRANGE_INTERVALS&#45;&gt;DTEL&#45;FLAG</title>
<path fill="none" stroke="black" d="M702.86,-223.03C573.77,-213.3 375.08,-197.46 202.99,-180 174.86,-177.15 143.65,-173.47 117.68,-170.26"/>
<polygon fill="black" stroke="black" points="117.98,-166.77 107.63,-169.01 117.12,-173.72 117.98,-166.77"/>
</g>
<!-- DTEL&#45;WPINDEX -->
<g id="node4" class="node">
<title>DTEL&#45;WPINDEX</title>
<g id="a_node4"><a xlink:href="./DTEL_WPINDEX.html" xlink:title="DTEL&#45;WPINDEX">
<polygon fill="none" stroke="yellow" points="332.44,-180 211.53,-180 211.53,-144 332.44,-144 332.44,-180"/>
<text text-anchor="middle" x="271.99" y="-157.8" font-family="Times,serif" font-size="14.00">DTEL&#45;WPINDEX</text>
</a>
</g>
</g>
<!-- CLAS&#45;CL_NUMBERRANGE_INTERVALS&#45;&gt;DTEL&#45;WPINDEX -->
<g id="edge11" class="edge">
<title>CLAS&#45;CL_NUMBERRANGE_INTERVALS&#45;&gt;DTEL&#45;WPINDEX</title>
<path fill="none" stroke="black" d="M702.69,-217.85C613.27,-207.74 494.12,-193.81 388.99,-180 373.96,-178.03 357.87,-175.78 342.58,-173.58"/>
<polygon fill="black" stroke="black" points="343.07,-170.11 332.67,-172.14 342.06,-177.04 343.07,-170.11"/>
</g>
<!-- DTEL&#45;NRYEAR -->
<g id="node6" class="node">
<title>DTEL&#45;NRYEAR</title>
<g id="a_node6"><a xlink:href="./DTEL_NRYEAR.html" xlink:title="DTEL&#45;NRYEAR">
<polygon fill="none" stroke="yellow" points="1112.96,-108 999.02,-108 999.02,-72 1112.96,-72 1112.96,-108"/>
<text text-anchor="middle" x="1055.99" y="-85.8" font-family="Times,serif" font-size="14.00">DTEL&#45;NRYEAR</text>
</a>
</g>
</g>
<!-- CLAS&#45;CL_NUMBERRANGE_INTERVALS&#45;&gt;DTEL&#45;NRYEAR -->
<g id="edge10" class="edge">
<title>CLAS&#45;CL_NUMBERRANGE_INTERVALS&#45;&gt;DTEL&#45;NRYEAR</title>
<path fill="none" stroke="black" d="M866.04,-215.87C904.88,-190.34 978.02,-142.25 1021.33,-113.78"/>
<polygon fill="black" stroke="black" points="1023.41,-116.61 1029.84,-108.19 1019.56,-110.76 1023.41,-116.61"/>
</g>
<!-- DTEL&#45;NRSOBJ -->
<g id="node8" class="node">
<title>DTEL&#45;NRSOBJ</title>
<g id="a_node8"><a xlink:href="./DTEL_NRSOBJ.html" xlink:title="DTEL&#45;NRSOBJ">
<polygon fill="none" stroke="yellow" points="981.03,-108 872.95,-108 872.95,-72 981.03,-72 981.03,-108"/>
<text text-anchor="middle" x="926.99" y="-85.8" font-family="Times,serif" font-size="14.00">DTEL&#45;NRSOBJ</text>
</a>
</g>
</g>
<!-- CLAS&#45;CL_NUMBERRANGE_INTERVALS&#45;&gt;DTEL&#45;NRSOBJ -->
<g id="edge9" class="edge">
<title>CLAS&#45;CL_NUMBERRANGE_INTERVALS&#45;&gt;DTEL&#45;NRSOBJ</title>
<path fill="none" stroke="black" d="M850.48,-215.87C865.57,-191.24 893.51,-145.64 911.13,-116.88"/>
<polygon fill="black" stroke="black" points="914.22,-118.54 916.46,-108.19 908.25,-114.89 914.22,-118.54"/>
</g>
<!-- TABL&#45;NROBJECT_RANGE -->
<g id="node10" class="node">
<title>TABL&#45;NROBJECT_RANGE</title>
<g id="a_node10"><a xlink:href="./TABL_NROBJECT_RANGE.html" xlink:title="TABL&#45;NROBJECT_RANGE">
<polygon fill="none" stroke="yellow" points="635.68,-180 452.3,-180 452.3,-144 635.68,-144 635.68,-180"/>
<text text-anchor="middle" x="543.99" y="-157.8" font-family="Times,serif" font-size="14.00">TABL&#45;NROBJECT_RANGE</text>
</a>
</g>
</g>
<!-- CLAS&#45;CL_NUMBERRANGE_INTERVALS&#45;&gt;TABL&#45;NROBJECT_RANGE -->
<g id="edge8" class="edge">
<title>CLAS&#45;CL_NUMBERRANGE_INTERVALS&#45;&gt;TABL&#45;NROBJECT_RANGE</title>
<path fill="none" stroke="black" d="M767.96,-215.97C725.08,-205.83 670.53,-192.93 626.01,-182.4"/>
<polygon fill="black" stroke="black" points="626.62,-178.95 616.08,-180.05 625.01,-185.76 626.62,-178.95"/>
</g>
<!-- DTEL&#45;NROBJ -->
<g id="node11" class="node">
<title>DTEL&#45;NROBJ</title>
<g id="a_node11"><a xlink:href="./DTEL_NROBJ.html" xlink:title="DTEL&#45;NROBJ">
<polygon fill="none" stroke="yellow" points="605.24,-108 504.73,-108 504.73,-72 605.24,-72 605.24,-108"/>
<text text-anchor="middle" x="554.99" y="-85.8" font-family="Times,serif" font-size="14.00">DTEL&#45;NROBJ</text>
</a>
</g>
</g>
<!-- CLAS&#45;CL_NUMBERRANGE_INTERVALS&#45;&gt;DTEL&#45;NROBJ -->
<g id="edge7" class="edge">
<title>CLAS&#45;CL_NUMBERRANGE_INTERVALS&#45;&gt;DTEL&#45;NROBJ</title>
<path fill="none" stroke="black" d="M805.61,-215.87C753.72,-190.02 655.43,-141.04 598.58,-112.72"/>
<polygon fill="black" stroke="black" points="600,-109.52 589.49,-108.19 596.88,-115.78 600,-109.52"/>
</g>
<!-- DTEL&#45;CHAR1 -->
<g id="node15" class="node">
<title>DTEL&#45;CHAR1</title>
<g id="a_node15"><a xlink:href="./DTEL_CHAR1.html" xlink:title="DTEL&#45;CHAR1">
<polygon fill="none" stroke="yellow" points="366.3,-108 263.67,-108 263.67,-72 366.3,-72 366.3,-108"/>
<text text-anchor="middle" x="314.99" y="-85.8" font-family="Times,serif" font-size="14.00">DTEL&#45;CHAR1</text>
</a>
</g>
</g>
<!-- CLAS&#45;CL_NUMBERRANGE_INTERVALS&#45;&gt;DTEL&#45;CHAR1 -->
<g id="edge1" class="edge">
<title>CLAS&#45;CL_NUMBERRANGE_INTERVALS&#45;&gt;DTEL&#45;CHAR1</title>
<path fill="none" stroke="black" d="M702.8,-230.59C624.44,-225.34 525.64,-212.07 442.99,-180 403.99,-164.87 365.44,-135.58 341,-114.73"/>
<polygon fill="black" stroke="black" points="343.11,-111.93 333.27,-108.02 338.52,-117.22 343.11,-111.93"/>
</g>
<!-- DTEL&#45;NRNR -->
<g id="node17" class="node">
<title>DTEL&#45;NRNR</title>
<g id="a_node17"><a xlink:href="./DTEL_NRNR.html" xlink:title="DTEL&#45;NRNR">
<polygon fill="none" stroke="yellow" points="854.8,-108 759.17,-108 759.17,-72 854.8,-72 854.8,-108"/>
<text text-anchor="middle" x="806.99" y="-85.8" font-family="Times,serif" font-size="14.00">DTEL&#45;NRNR</text>
</a>
</g>
</g>
<!-- CLAS&#45;CL_NUMBERRANGE_INTERVALS&#45;&gt;DTEL&#45;NRNR -->
<g id="edge6" class="edge">
<title>CLAS&#45;CL_NUMBERRANGE_INTERVALS&#45;&gt;DTEL&#45;NRNR</title>
<path fill="none" stroke="black" d="M836.01,-215.87C830.36,-191.56 819.96,-146.82 813.26,-118.01"/>
<polygon fill="black" stroke="black" points="816.65,-117.14 810.98,-108.19 809.84,-118.72 816.65,-117.14"/>
</g>
<!-- DTEL&#45;MSNAME2 -->
<g id="node18" class="node">
<title>DTEL&#45;MSNAME2</title>
<g id="a_node18"><a xlink:href="./DTEL_MSNAME2.html" xlink:title="DTEL&#45;MSNAME2">
<polygon fill="none" stroke="yellow" points="2390.35,-180 2265.62,-180 2265.62,-144 2390.35,-144 2390.35,-180"/>
<text text-anchor="middle" x="2327.99" y="-157.8" font-family="Times,serif" font-size="14.00">DTEL&#45;MSNAME2</text>
</a>
</g>
</g>
<!-- CLAS&#45;CL_NUMBERRANGE_INTERVALS&#45;&gt;DTEL&#45;MSNAME2 -->
<g id="edge5" class="edge">
<title>CLAS&#45;CL_NUMBERRANGE_INTERVALS&#45;&gt;DTEL&#45;MSNAME2</title>
<path fill="none" stroke="black" d="M977.31,-226.54C1285.16,-212.06 2021.81,-177.4 2255.53,-166.41"/>
<polygon fill="black" stroke="black" points="2255.8,-169.9 2265.62,-165.93 2255.47,-162.91 2255.8,-169.9"/>
</g>
<!-- TABL&#45;NRIV_DOCU -->
<g id="node20" class="node">
<title>TABL&#45;NRIV_DOCU</title>
<g id="a_node20"><a xlink:href="./TABL_NRIV_DOCU.html" xlink:title="TABL&#45;NRIV_DOCU">
<polygon fill="none" stroke="yellow" points="1696.06,-180 1557.91,-180 1557.91,-144 1696.06,-144 1696.06,-180"/>
<text text-anchor="middle" x="1626.99" y="-157.8" font-family="Times,serif" font-size="14.00">TABL&#45;NRIV_DOCU</text>
</a>
</g>
</g>
<!-- CLAS&#45;CL_NUMBERRANGE_INTERVALS&#45;&gt;TABL&#45;NRIV_DOCU -->
<g id="edge4" class="edge">
<title>CLAS&#45;CL_NUMBERRANGE_INTERVALS&#45;&gt;TABL&#45;NRIV_DOCU</title>
<path fill="none" stroke="black" d="M977.52,-220.77C1142.64,-206.08 1413.97,-181.95 1547.58,-170.06"/>
<polygon fill="black" stroke="black" points="1548.09,-173.53 1557.74,-169.16 1547.47,-166.56 1548.09,-173.53"/>
</g>
<!-- TABL&#45;INRIV -->
<g id="node46" class="node">
<title>TABL&#45;INRIV</title>
<g id="a_node46"><a xlink:href="./TABL_INRIV.html" xlink:title="TABL&#45;INRIV">
<polygon fill="none" stroke="yellow" points="1104.07,-180 1007.91,-180 1007.91,-144 1104.07,-144 1104.07,-180"/>
<text text-anchor="middle" x="1055.99" y="-157.8" font-family="Times,serif" font-size="14.00">TABL&#45;INRIV</text>
</a>
</g>
</g>
<!-- CLAS&#45;CL_NUMBERRANGE_INTERVALS&#45;&gt;TABL&#45;INRIV -->
<g id="edge3" class="edge">
<title>CLAS&#45;CL_NUMBERRANGE_INTERVALS&#45;&gt;TABL&#45;INRIV</title>
<path fill="none" stroke="black" d="M892.55,-215.97C924.35,-205.66 964.95,-192.5 997.73,-181.88"/>
<polygon fill="black" stroke="black" points="999.2,-185.08 1007.63,-178.67 997.04,-178.42 999.2,-185.08"/>
</g>
<!-- TABL&#45;INRER -->
<g id="node48" class="node">
<title>TABL&#45;INRER</title>
<g id="a_node48"><a xlink:href="./TABL_INRER.html" xlink:title="TABL&#45;INRER">
<polygon fill="none" stroke="yellow" points="3287.69,-180 3188.28,-180 3188.28,-144 3287.69,-144 3287.69,-180"/>
<text text-anchor="middle" x="3237.99" y="-157.8" font-family="Times,serif" font-size="14.00">TABL&#45;INRER</text>
</a>
</g>
</g>
<!-- CLAS&#45;CL_NUMBERRANGE_INTERVALS&#45;&gt;TABL&#45;INRER -->
<g id="edge2" class="edge">
<title>CLAS&#45;CL_NUMBERRANGE_INTERVALS&#45;&gt;TABL&#45;INRER</title>
<path fill="none" stroke="black" d="M977.09,-229C1429.98,-215.78 2866.95,-173.83 3178.16,-164.75"/>
<polygon fill="black" stroke="black" points="3178.44,-168.24 3188.33,-164.45 3178.23,-161.24 3178.44,-168.24"/>
</g>
<!-- DOMA&#45;FLAG -->
<g id="node3" class="node">
<title>DOMA&#45;FLAG</title>
<g id="a_node3"><a xlink:href="./DOMA_FLAG.html" xlink:title="DOMA&#45;FLAG">
<polygon fill="none" stroke="yellow" points="99.96,-108 0.01,-108 0.01,-72 99.96,-72 99.96,-108"/>
<text text-anchor="middle" x="49.99" y="-85.8" font-family="Times,serif" font-size="14.00">DOMA&#45;FLAG</text>
</a>
</g>
</g>
<!-- DTEL&#45;FLAG&#45;&gt;DOMA&#45;FLAG -->
<g id="edge13" class="edge">
<title>DTEL&#45;FLAG&#45;&gt;DOMA&#45;FLAG</title>
<path fill="none" stroke="black" d="M58.27,-143.7C57.06,-135.98 55.6,-126.71 54.25,-118.11"/>
<polygon fill="black" stroke="black" points="57.68,-117.44 52.67,-108.1 50.77,-118.53 57.68,-117.44"/>
</g>
<!-- DOMA&#45;WPINDEX -->
<g id="node5" class="node">
<title>DOMA&#45;WPINDEX</title>
<g id="a_node5"><a xlink:href="./DOMA_WPINDEX.html" xlink:title="DOMA&#45;WPINDEX">
<polygon fill="none" stroke="yellow" points="245.94,-108 118.03,-108 118.03,-72 245.94,-72 245.94,-108"/>
<text text-anchor="middle" x="181.99" y="-85.8" font-family="Times,serif" font-size="14.00">DOMA&#45;WPINDEX</text>
</a>
</g>
</g>
<!-- DTEL&#45;WPINDEX&#45;&gt;DOMA&#45;WPINDEX -->
<g id="edge14" class="edge">
<title>DTEL&#45;WPINDEX&#45;&gt;DOMA&#45;WPINDEX</title>
<path fill="none" stroke="black" d="M249.74,-143.7C238.4,-134.88 224.46,-124.03 212.17,-114.47"/>
<polygon fill="black" stroke="black" points="214.02,-111.48 203.98,-108.1 209.72,-117.01 214.02,-111.48"/>
</g>
<!-- DOMA&#45;GJAHR -->
<g id="node7" class="node">
<title>DOMA&#45;GJAHR</title>
<g id="a_node7"><a xlink:href="./DOMA_GJAHR.html" xlink:title="DOMA&#45;GJAHR">
<polygon fill="none" stroke="yellow" points="1108.01,-36 999.96,-36 999.96,0 1108.01,0 1108.01,-36"/>
<text text-anchor="middle" x="1053.99" y="-13.8" font-family="Times,serif" font-size="14.00">DOMA&#45;GJAHR</text>
</a>
</g>
</g>
<!-- DTEL&#45;NRYEAR&#45;&gt;DOMA&#45;GJAHR -->
<g id="edge15" class="edge">
<title>DTEL&#45;NRYEAR&#45;&gt;DOMA&#45;GJAHR</title>
<path fill="none" stroke="black" d="M1055.49,-71.7C1055.27,-63.98 1055.01,-54.71 1054.76,-46.11"/>
<polygon fill="black" stroke="black" points="1058.26,-46 1054.48,-36.1 1051.26,-46.2 1058.26,-46"/>
</g>
<!-- DOMA&#45;CHAR6 -->
<g id="node9" class="node">
<title>DOMA&#45;CHAR6</title>
<g id="a_node9"><a xlink:href="./DOMA_CHAR6.html" xlink:title="DOMA&#45;CHAR6">
<polygon fill="none" stroke="yellow" points="981.8,-36 872.17,-36 872.17,0 981.8,0 981.8,-36"/>
<text text-anchor="middle" x="926.99" y="-13.8" font-family="Times,serif" font-size="14.00">DOMA&#45;CHAR6</text>
</a>
</g>
</g>
<!-- DTEL&#45;NRSOBJ&#45;&gt;DOMA&#45;CHAR6 -->
<g id="edge16" class="edge">
<title>DTEL&#45;NRSOBJ&#45;&gt;DOMA&#45;CHAR6</title>
<path fill="none" stroke="black" d="M926.99,-71.7C926.99,-63.98 926.99,-54.71 926.99,-46.11"/>
<polygon fill="black" stroke="black" points="930.49,-46.1 926.99,-36.1 923.49,-46.1 930.49,-46.1"/>
</g>
<!-- TABL&#45;NROBJECT_RANGE&#45;&gt;DTEL&#45;NROBJ -->
<g id="edge19" class="edge">
<title>TABL&#45;NROBJECT_RANGE&#45;&gt;DTEL&#45;NROBJ</title>
<path fill="none" stroke="black" d="M546.71,-143.7C547.92,-135.98 549.37,-126.71 550.73,-118.11"/>
<polygon fill="black" stroke="black" points="554.2,-118.53 552.3,-108.1 547.29,-117.44 554.2,-118.53"/>
</g>
<!-- DTEL&#45;CHAR2 -->
<g id="node13" class="node">
<title>DTEL&#45;CHAR2</title>
<g id="a_node13"><a xlink:href="./DTEL_CHAR2.html" xlink:title="DTEL&#45;CHAR2">
<polygon fill="none" stroke="yellow" points="486.3,-108 383.67,-108 383.67,-72 486.3,-72 486.3,-108"/>
<text text-anchor="middle" x="434.99" y="-85.8" font-family="Times,serif" font-size="14.00">DTEL&#45;CHAR2</text>
</a>
</g>
</g>
<!-- TABL&#45;NROBJECT_RANGE&#45;&gt;DTEL&#45;CHAR2 -->
<g id="edge18" class="edge">
<title>TABL&#45;NROBJECT_RANGE&#45;&gt;DTEL&#45;CHAR2</title>
<path fill="none" stroke="black" d="M517.32,-143.88C503.2,-134.81 485.68,-123.55 470.43,-113.76"/>
<polygon fill="black" stroke="black" points="472.06,-110.65 461.75,-108.19 468.28,-116.54 472.06,-110.65"/>
</g>
<!-- TABL&#45;NROBJECT_RANGE&#45;&gt;DTEL&#45;CHAR1 -->
<g id="edge17" class="edge">
<title>TABL&#45;NROBJECT_RANGE&#45;&gt;DTEL&#45;CHAR1</title>
<path fill="none" stroke="black" d="M488.26,-143.97C454.25,-133.57 410.76,-120.28 375.86,-109.61"/>
<polygon fill="black" stroke="black" points="376.84,-106.25 366.25,-106.67 374.79,-112.94 376.84,-106.25"/>
</g>
<!-- DOMA&#45;NROBJ -->
<g id="node12" class="node">
<title>DOMA&#45;NROBJ</title>
<g id="a_node12"><a xlink:href="./DOMA_NROBJ.html" xlink:title="DOMA&#45;NROBJ">
<polygon fill="none" stroke="yellow" points="599.74,-36 492.23,-36 492.23,0 599.74,0 599.74,-36"/>
<text text-anchor="middle" x="545.99" y="-13.8" font-family="Times,serif" font-size="14.00">DOMA&#45;NROBJ</text>
</a>
</g>
</g>
<!-- DTEL&#45;NROBJ&#45;&gt;DOMA&#45;NROBJ -->
<g id="edge20" class="edge">
<title>DTEL&#45;NROBJ&#45;&gt;DOMA&#45;NROBJ</title>
<path fill="none" stroke="black" d="M552.76,-71.7C551.77,-63.98 550.58,-54.71 549.47,-46.11"/>
<polygon fill="black" stroke="black" points="552.93,-45.58 548.19,-36.1 545.99,-46.47 552.93,-45.58"/>
</g>
<!-- DOMA&#45;CHAR2 -->
<g id="node14" class="node">
<title>DOMA&#45;CHAR2</title>
<g id="a_node14"><a xlink:href="./DOMA_CHAR2.html" xlink:title="DOMA&#45;CHAR2">
<polygon fill="none" stroke="yellow" points="854.8,-36 745.17,-36 745.17,0 854.8,0 854.8,-36"/>
<text text-anchor="middle" x="799.99" y="-13.8" font-family="Times,serif" font-size="14.00">DOMA&#45;CHAR2</text>
</a>
</g>
</g>
<!-- DTEL&#45;CHAR2&#45;&gt;DOMA&#45;CHAR2 -->
<g id="edge21" class="edge">
<title>DTEL&#45;CHAR2&#45;&gt;DOMA&#45;CHAR2</title>
<path fill="none" stroke="black" d="M486.46,-74.17C489.67,-73.4 492.87,-72.66 495.99,-72 598.8,-50.08 629.21,-57.66 735.29,-36.23"/>
<polygon fill="black" stroke="black" points="736.01,-39.65 745.1,-34.21 734.6,-32.8 736.01,-39.65"/>
</g>
<!-- DOMA&#45;CHAR1 -->
<g id="node16" class="node">
<title>DOMA&#45;CHAR1</title>
<g id="a_node16"><a xlink:href="./DOMA_CHAR1.html" xlink:title="DOMA&#45;CHAR1">
<polygon fill="none" stroke="green" points="727.8,-36 618.17,-36 618.17,0 727.8,0 727.8,-36"/>
<text text-anchor="middle" x="672.99" y="-13.8" font-family="Times,serif" font-size="14.00">DOMA&#45;CHAR1</text>
</a>
</g>
</g>
<!-- DTEL&#45;CHAR1&#45;&gt;DOMA&#45;CHAR1 -->
<g id="edge22" class="edge">
<title>DTEL&#45;CHAR1&#45;&gt;DOMA&#45;CHAR1</title>
<path fill="none" stroke="black" d="M366.27,-74.02C369.21,-73.3 372.13,-72.62 374.99,-72 474.69,-50.29 504.22,-57.09 608.3,-36"/>
<polygon fill="black" stroke="black" points="609.18,-39.4 618.27,-33.95 607.76,-32.54 609.18,-39.4"/>
</g>
<!-- DTEL&#45;NRNR&#45;&gt;DOMA&#45;CHAR2 -->
<g id="edge23" class="edge">
<title>DTEL&#45;NRNR&#45;&gt;DOMA&#45;CHAR2</title>
<path fill="none" stroke="black" d="M805.26,-71.7C804.48,-63.98 803.56,-54.71 802.7,-46.11"/>
<polygon fill="black" stroke="black" points="806.17,-45.71 801.7,-36.1 799.21,-46.4 806.17,-45.71"/>
</g>
<!-- DOMA&#45;MSNAME2 -->
<g id="node19" class="node">
<title>DOMA&#45;MSNAME2</title>
<g id="a_node19"><a xlink:href="./DOMA_MSNAME2.html" xlink:title="DOMA&#45;MSNAME2">
<polygon fill="none" stroke="yellow" points="3014.85,-108 2883.12,-108 2883.12,-72 3014.85,-72 3014.85,-108"/>
<text text-anchor="middle" x="2948.99" y="-85.8" font-family="Times,serif" font-size="14.00">DOMA&#45;MSNAME2</text>
</a>
</g>
</g>
<!-- DTEL&#45;MSNAME2&#45;&gt;DOMA&#45;MSNAME2 -->
<g id="edge24" class="edge">
<title>DTEL&#45;MSNAME2&#45;&gt;DOMA&#45;MSNAME2</title>
<path fill="none" stroke="black" d="M2390.55,-157.5C2490.52,-151.35 2692.57,-136.59 2872.89,-108.06"/>
<polygon fill="black" stroke="black" points="2873.5,-111.51 2882.82,-106.47 2872.39,-104.6 2873.5,-111.51"/>
</g>
<!-- TABL&#45;NRIV_DOCU&#45;&gt;DTEL&#45;NRYEAR -->
<g id="edge30" class="edge">
<title>TABL&#45;NRIV_DOCU&#45;&gt;DTEL&#45;NRYEAR</title>
<path fill="none" stroke="black" d="M1557.92,-156.99C1462.24,-150.72 1283.92,-136.44 1123.18,-108.06"/>
<polygon fill="black" stroke="black" points="1123.57,-104.58 1113.11,-106.26 1122.34,-111.47 1123.57,-104.58"/>
</g>
<!-- TABL&#45;NRIV_DOCU&#45;&gt;DTEL&#45;NRSOBJ -->
<g id="edge28" class="edge">
<title>TABL&#45;NRIV_DOCU&#45;&gt;DTEL&#45;NRSOBJ</title>
<path fill="none" stroke="black" d="M1557.65,-159.32C1441.91,-155.63 1202.04,-144.15 991.16,-108.02"/>
<polygon fill="black" stroke="black" points="991.59,-104.54 981.14,-106.28 990.4,-111.44 991.59,-104.54"/>
</g>
<!-- TABL&#45;NRIV_DOCU&#45;&gt;DTEL&#45;NROBJ -->
<g id="edge27" class="edge">
<title>TABL&#45;NRIV_DOCU&#45;&gt;DTEL&#45;NROBJ</title>
<path fill="none" stroke="black" d="M1557.93,-158.3C1351.07,-150.09 743.41,-125.04 615.58,-107.86"/>
<polygon fill="black" stroke="black" points="615.75,-104.35 605.34,-106.33 614.71,-111.27 615.75,-104.35"/>
</g>
<!-- TABL&#45;NRIV_DOCU&#45;&gt;DTEL&#45;NRNR -->
<g id="edge29" class="edge">
<title>TABL&#45;NRIV_DOCU&#45;&gt;DTEL&#45;NRNR</title>
<path fill="none" stroke="black" d="M1557.7,-161.27C1424.66,-160.69 1124.38,-154.04 864.69,-107.86"/>
<polygon fill="black" stroke="black" points="865.16,-104.39 854.7,-106.06 863.92,-111.28 865.16,-104.39"/>
</g>
<!-- DTEL&#45;NRBUFFER -->
<g id="node21" class="node">
<title>DTEL&#45;NRBUFFER</title>
<g id="a_node21"><a xlink:href="./DTEL_NRBUFFER.html" xlink:title="DTEL&#45;NRBUFFER">
<polygon fill="none" stroke="yellow" points="1761.25,-108 1632.72,-108 1632.72,-72 1761.25,-72 1761.25,-108"/>
<text text-anchor="middle" x="1696.99" y="-85.8" font-family="Times,serif" font-size="14.00">DTEL&#45;NRBUFFER</text>
</a>
</g>
</g>
<!-- TABL&#45;NRIV_DOCU&#45;&gt;DTEL&#45;NRBUFFER -->
<g id="edge41" class="edge">
<title>TABL&#45;NRIV_DOCU&#45;&gt;DTEL&#45;NRBUFFER</title>
<path fill="none" stroke="black" d="M1644.29,-143.7C1652.85,-135.14 1663.33,-124.66 1672.68,-115.3"/>
<polygon fill="black" stroke="black" points="1675.29,-117.65 1679.88,-108.1 1670.34,-112.7 1675.29,-117.65"/>
</g>
<!-- DTEL&#45;CHAR40 -->
<g id="node23" class="node">
<title>DTEL&#45;CHAR40</title>
<g id="a_node23"><a xlink:href="./DTEL_CHAR40.html" xlink:title="DTEL&#45;CHAR40">
<polygon fill="none" stroke="yellow" points="1888.8,-108 1779.17,-108 1779.17,-72 1888.8,-72 1888.8,-108"/>
<text text-anchor="middle" x="1833.99" y="-85.8" font-family="Times,serif" font-size="14.00">DTEL&#45;CHAR40</text>
</a>
</g>
</g>
<!-- TABL&#45;NRIV_DOCU&#45;&gt;DTEL&#45;CHAR40 -->
<g id="edge40" class="edge">
<title>TABL&#45;NRIV_DOCU&#45;&gt;DTEL&#45;CHAR40</title>
<path fill="none" stroke="black" d="M1677.36,-143.97C1706.41,-134.14 1743.12,-121.73 1773.69,-111.39"/>
<polygon fill="black" stroke="black" points="1775.04,-114.63 1783.39,-108.11 1772.79,-108 1775.04,-114.63"/>
</g>
<!-- DTEL&#45;SYUNAME -->
<g id="node25" class="node">
<title>DTEL&#45;SYUNAME</title>
<g id="a_node25"><a xlink:href="./DTEL_SYUNAME.html" xlink:title="DTEL&#45;SYUNAME">
<polygon fill="none" stroke="green" points="2031.62,-108 1906.35,-108 1906.35,-72 2031.62,-72 2031.62,-108"/>
<text text-anchor="middle" x="1968.99" y="-85.8" font-family="Times,serif" font-size="14.00">DTEL&#45;SYUNAME</text>
</a>
</g>
</g>
<!-- TABL&#45;NRIV_DOCU&#45;&gt;DTEL&#45;SYUNAME -->
<g id="edge39" class="edge">
<title>TABL&#45;NRIV_DOCU&#45;&gt;DTEL&#45;SYUNAME</title>
<path fill="none" stroke="black" d="M1696.21,-148.29C1748.71,-138.46 1822.89,-124.16 1896.4,-108.31"/>
<polygon fill="black" stroke="black" points="1897.27,-111.7 1906.3,-106.16 1895.78,-104.86 1897.27,-111.7"/>
</g>
<!-- DTEL&#45;NRIND -->
<g id="node27" class="node">
<title>DTEL&#45;NRIND</title>
<g id="a_node27"><a xlink:href="./DTEL_NRIND.html" xlink:title="DTEL&#45;NRIND">
<polygon fill="none" stroke="yellow" points="1231.23,-108 1130.74,-108 1130.74,-72 1231.23,-72 1231.23,-108"/>
<text text-anchor="middle" x="1180.99" y="-85.8" font-family="Times,serif" font-size="14.00">DTEL&#45;NRIND</text>
</a>
</g>
</g>
<!-- TABL&#45;NRIV_DOCU&#45;&gt;DTEL&#45;NRIND -->
<g id="edge38" class="edge">
<title>TABL&#45;NRIV_DOCU&#45;&gt;DTEL&#45;NRIND</title>
<path fill="none" stroke="black" d="M1557.61,-154.55C1481.96,-146.83 1357.27,-132.11 1241.5,-108.16"/>
<polygon fill="black" stroke="black" points="1241.9,-104.67 1231.4,-106.04 1240.47,-111.52 1241.9,-104.67"/>
</g>
<!-- DTEL&#45;NRLEVEL -->
<g id="node29" class="node">
<title>DTEL&#45;NRLEVEL</title>
<g id="a_node29"><a xlink:href="./DTEL_NRLEVEL.html" xlink:title="DTEL&#45;NRLEVEL">
<polygon fill="none" stroke="yellow" points="1369.17,-108 1248.8,-108 1248.8,-72 1369.17,-72 1369.17,-108"/>
<text text-anchor="middle" x="1308.99" y="-85.8" font-family="Times,serif" font-size="14.00">DTEL&#45;NRLEVEL</text>
</a>
</g>
</g>
<!-- TABL&#45;NRIV_DOCU&#45;&gt;DTEL&#45;NRLEVEL -->
<g id="edge37" class="edge">
<title>TABL&#45;NRIV_DOCU&#45;&gt;DTEL&#45;NRLEVEL</title>
<path fill="none" stroke="black" d="M1557.89,-146.91C1510.19,-137.04 1445.07,-123.28 1378.93,-108.18"/>
<polygon fill="black" stroke="black" points="1379.7,-104.77 1369.17,-105.95 1378.14,-111.59 1379.7,-104.77"/>
</g>
<!-- DTEL&#45;NRTO -->
<g id="node31" class="node">
<title>DTEL&#45;NRTO</title>
<g id="a_node31"><a xlink:href="./DTEL_NRTO.html" xlink:title="DTEL&#45;NRTO">
<polygon fill="none" stroke="yellow" points="1481.02,-108 1386.96,-108 1386.96,-72 1481.02,-72 1481.02,-108"/>
<text text-anchor="middle" x="1433.99" y="-85.8" font-family="Times,serif" font-size="14.00">DTEL&#45;NRTO</text>
</a>
</g>
</g>
<!-- TABL&#45;NRIV_DOCU&#45;&gt;DTEL&#45;NRTO -->
<g id="edge36" class="edge">
<title>TABL&#45;NRIV_DOCU&#45;&gt;DTEL&#45;NRTO</title>
<path fill="none" stroke="black" d="M1579.77,-143.88C1552.92,-134.14 1519.11,-121.87 1490.81,-111.61"/>
<polygon fill="black" stroke="black" points="1491.64,-108.19 1481.05,-108.07 1489.25,-114.77 1491.64,-108.19"/>
</g>
<!-- DTEL&#45;NRFROM -->
<g id="node33" class="node">
<title>DTEL&#45;NRFROM</title>
<g id="a_node33"><a xlink:href="./DTEL_NRFROM.html" xlink:title="DTEL&#45;NRFROM">
<polygon fill="none" stroke="yellow" points="1614.53,-108 1499.45,-108 1499.45,-72 1614.53,-72 1614.53,-108"/>
<text text-anchor="middle" x="1556.99" y="-85.8" font-family="Times,serif" font-size="14.00">DTEL&#45;NRFROM</text>
</a>
</g>
</g>
<!-- TABL&#45;NRIV_DOCU&#45;&gt;DTEL&#45;NRFROM -->
<g id="edge35" class="edge">
<title>TABL&#45;NRIV_DOCU&#45;&gt;DTEL&#45;NRFROM</title>
<path fill="none" stroke="black" d="M1609.68,-143.7C1601.12,-135.14 1590.64,-124.66 1581.29,-115.3"/>
<polygon fill="black" stroke="black" points="1583.64,-112.7 1574.09,-108.1 1578.69,-117.65 1583.64,-112.7"/>
</g>
<!-- DTEL&#45;SYUZEIT -->
<g id="node34" class="node">
<title>DTEL&#45;SYUZEIT</title>
<g id="a_node34"><a xlink:href="./DTEL_SYUZEIT.html" xlink:title="DTEL&#45;SYUZEIT">
<polygon fill="none" stroke="yellow" points="2164.23,-108 2049.75,-108 2049.75,-72 2164.23,-72 2164.23,-108"/>
<text text-anchor="middle" x="2106.99" y="-85.8" font-family="Times,serif" font-size="14.00">DTEL&#45;SYUZEIT</text>
</a>
</g>
</g>
<!-- TABL&#45;NRIV_DOCU&#45;&gt;DTEL&#45;SYUZEIT -->
<g id="edge34" class="edge">
<title>TABL&#45;NRIV_DOCU&#45;&gt;DTEL&#45;SYUZEIT</title>
<path fill="none" stroke="black" d="M1696.26,-154.8C1776.73,-147 1913.56,-131.89 2039.66,-108.13"/>
<polygon fill="black" stroke="black" points="2040.32,-111.57 2049.49,-106.26 2039.01,-104.69 2040.32,-111.57"/>
</g>
<!-- DTEL&#45;SYDATUM -->
<g id="node36" class="node">
<title>DTEL&#45;SYDATUM</title>
<g id="a_node36"><a xlink:href="./DTEL_SYDATUM.html" xlink:title="DTEL&#45;SYDATUM">
<polygon fill="none" stroke="yellow" points="2307.62,-108 2182.35,-108 2182.35,-72 2307.62,-72 2307.62,-108"/>
<text text-anchor="middle" x="2244.99" y="-85.8" font-family="Times,serif" font-size="14.00">DTEL&#45;SYDATUM</text>
</a>
</g>
</g>
<!-- TABL&#45;NRIV_DOCU&#45;&gt;DTEL&#45;SYDATUM -->
<g id="edge33" class="edge">
<title>TABL&#45;NRIV_DOCU&#45;&gt;DTEL&#45;SYDATUM</title>
<path fill="none" stroke="black" d="M1696.33,-157.28C1798.47,-151.13 1995.45,-136.74 2172.25,-107.98"/>
<polygon fill="black" stroke="black" points="2172.96,-111.41 2182.26,-106.34 2171.82,-104.51 2172.96,-111.41"/>
</g>
<!-- DTEL&#45;INDX_SRTF2 -->
<g id="node38" class="node">
<title>DTEL&#45;INDX_SRTF2</title>
<g id="a_node38"><a xlink:href="./DTEL_INDX_SRTF2.html" xlink:title="DTEL&#45;INDX_SRTF2">
<polygon fill="none" stroke="yellow" points="2464.35,-108 2325.63,-108 2325.63,-72 2464.35,-72 2464.35,-108"/>
<text text-anchor="middle" x="2394.99" y="-85.8" font-family="Times,serif" font-size="14.00">DTEL&#45;INDX_SRTF2</text>
</a>
</g>
</g>
<!-- TABL&#45;NRIV_DOCU&#45;&gt;DTEL&#45;INDX_SRTF2 -->
<g id="edge32" class="edge">
<title>TABL&#45;NRIV_DOCU&#45;&gt;DTEL&#45;INDX_SRTF2</title>
<path fill="none" stroke="black" d="M1696.38,-158.84C1819.39,-154.31 2083.8,-141.45 2315.38,-108.13"/>
<polygon fill="black" stroke="black" points="2315.94,-111.58 2325.33,-106.68 2314.93,-104.66 2315.94,-111.58"/>
</g>
<!-- DTEL&#45;TDBOOL -->
<g id="node40" class="node">
<title>DTEL&#45;TDBOOL</title>
<g id="a_node40"><a xlink:href="./DTEL_TDBOOL.html" xlink:title="DTEL&#45;TDBOOL">
<polygon fill="none" stroke="yellow" points="2595.67,-108 2482.3,-108 2482.3,-72 2595.67,-72 2595.67,-108"/>
<text text-anchor="middle" x="2538.99" y="-85.8" font-family="Times,serif" font-size="14.00">DTEL&#45;TDBOOL</text>
</a>
</g>
</g>
<!-- TABL&#45;NRIV_DOCU&#45;&gt;DTEL&#45;TDBOOL -->
<g id="edge31" class="edge">
<title>TABL&#45;NRIV_DOCU&#45;&gt;DTEL&#45;TDBOOL</title>
<path fill="none" stroke="black" d="M1696.28,-161.09C1839.71,-160.31 2179.46,-153.49 2472.29,-107.91"/>
<polygon fill="black" stroke="black" points="2472.91,-111.36 2482.25,-106.34 2471.83,-104.44 2472.91,-111.36"/>
</g>
<!-- DTEL&#45;NRINSTLG -->
<g id="node42" class="node">
<title>DTEL&#45;NRINSTLG</title>
<g id="a_node42"><a xlink:href="./DTEL_NRINSTLG.html" xlink:title="DTEL&#45;NRINSTLG">
<polygon fill="none" stroke="yellow" points="2738.62,-108 2613.36,-108 2613.36,-72 2738.62,-72 2738.62,-108"/>
<text text-anchor="middle" x="2675.99" y="-85.8" font-family="Times,serif" font-size="14.00">DTEL&#45;NRINSTLG</text>
</a>
</g>
</g>
<!-- TABL&#45;NRIV_DOCU&#45;&gt;DTEL&#45;NRINSTLG -->
<g id="edge26" class="edge">
<title>TABL&#45;NRIV_DOCU&#45;&gt;DTEL&#45;NRINSTLG</title>
<path fill="none" stroke="black" d="M1696.18,-161.53C1855.22,-161.83 2258.99,-157.33 2603.09,-108.14"/>
<polygon fill="black" stroke="black" points="2603.6,-111.6 2613,-106.71 2602.6,-104.67 2603.6,-111.6"/>
</g>
<!-- DTEL&#45;MANDT -->
<g id="node44" class="node">
<title>DTEL&#45;MANDT</title>
<g id="a_node44"><a xlink:href="./DTEL_MANDT.html" xlink:title="DTEL&#45;MANDT">
<polygon fill="none" stroke="green" points="2864.73,-108 2757.24,-108 2757.24,-72 2864.73,-72 2864.73,-108"/>
<text text-anchor="middle" x="2810.99" y="-85.8" font-family="Times,serif" font-size="14.00">DTEL&#45;MANDT</text>
</a>
</g>
</g>
<!-- TABL&#45;NRIV_DOCU&#45;&gt;DTEL&#45;MANDT -->
<g id="edge25" class="edge">
<title>TABL&#45;NRIV_DOCU&#45;&gt;DTEL&#45;MANDT</title>
<path fill="none" stroke="black" d="M1696.12,-159.69C1904.38,-155.44 2524.55,-140.47 2747.21,-107.85"/>
<polygon fill="black" stroke="black" points="2747.83,-111.3 2757.2,-106.34 2746.78,-104.38 2747.83,-111.3"/>
</g>
<!-- DOMA&#45;NRBUFFERTYPE -->
<g id="node22" class="node">
<title>DOMA&#45;NRBUFFERTYPE</title>
<g id="a_node22"><a xlink:href="./DOMA_NRBUFFERTYPE.html" xlink:title="DOMA&#45;NRBUFFERTYPE">
<polygon fill="none" stroke="yellow" points="1749.25,-36 1578.73,-36 1578.73,0 1749.25,0 1749.25,-36"/>
<text text-anchor="middle" x="1663.99" y="-13.8" font-family="Times,serif" font-size="14.00">DOMA&#45;NRBUFFERTYPE</text>
</a>
</g>
</g>
<!-- DTEL&#45;NRBUFFER&#45;&gt;DOMA&#45;NRBUFFERTYPE -->
<g id="edge42" class="edge">
<title>DTEL&#45;NRBUFFER&#45;&gt;DOMA&#45;NRBUFFERTYPE</title>
<path fill="none" stroke="black" d="M1688.83,-71.7C1685.07,-63.73 1680.53,-54.1 1676.37,-45.26"/>
<polygon fill="black" stroke="black" points="1679.48,-43.66 1672.05,-36.1 1673.15,-46.64 1679.48,-43.66"/>
</g>
<!-- DOMA&#45;CHAR40 -->
<g id="node24" class="node">
<title>DOMA&#45;CHAR40</title>
<g id="a_node24"><a xlink:href="./DOMA_CHAR40.html" xlink:title="DOMA&#45;CHAR40">
<polygon fill="none" stroke="yellow" points="1884.3,-36 1767.67,-36 1767.67,0 1884.3,0 1884.3,-36"/>
<text text-anchor="middle" x="1825.99" y="-13.8" font-family="Times,serif" font-size="14.00">DOMA&#45;CHAR40</text>
</a>
</g>
</g>
<!-- DTEL&#45;CHAR40&#45;&gt;DOMA&#45;CHAR40 -->
<g id="edge43" class="edge">
<title>DTEL&#45;CHAR40&#45;&gt;DOMA&#45;CHAR40</title>
<path fill="none" stroke="black" d="M1832.01,-71.7C1831.13,-63.98 1830.07,-54.71 1829.09,-46.11"/>
<polygon fill="black" stroke="black" points="1832.55,-45.64 1827.94,-36.1 1825.6,-46.44 1832.55,-45.64"/>
</g>
<!-- DOMA&#45;SYCHAR12 -->
<g id="node26" class="node">
<title>DOMA&#45;SYCHAR12</title>
<g id="a_node26"><a xlink:href="./DOMA_SYCHAR12.html" xlink:title="DOMA&#45;SYCHAR12">
<polygon fill="none" stroke="yellow" points="2036.19,-36 1901.79,-36 1901.79,0 2036.19,0 2036.19,-36"/>
<text text-anchor="middle" x="1968.99" y="-13.8" font-family="Times,serif" font-size="14.00">DOMA&#45;SYCHAR12</text>
</a>
</g>
</g>
<!-- DTEL&#45;SYUNAME&#45;&gt;DOMA&#45;SYCHAR12 -->
<g id="edge44" class="edge">
<title>DTEL&#45;SYUNAME&#45;&gt;DOMA&#45;SYCHAR12</title>
<path fill="none" stroke="black" d="M1968.99,-71.7C1968.99,-63.98 1968.99,-54.71 1968.99,-46.11"/>
<polygon fill="black" stroke="black" points="1972.49,-46.1 1968.99,-36.1 1965.49,-46.1 1972.49,-46.1"/>
</g>
<!-- DOMA&#45;XFELD -->
<g id="node28" class="node">
<title>DOMA&#45;XFELD</title>
<g id="a_node28"><a xlink:href="./DOMA_XFELD.html" xlink:title="DOMA&#45;XFELD">
<polygon fill="none" stroke="yellow" points="1235.01,-36 1126.96,-36 1126.96,0 1235.01,0 1235.01,-36"/>
<text text-anchor="middle" x="1180.99" y="-13.8" font-family="Times,serif" font-size="14.00">DOMA&#45;XFELD</text>
</a>
</g>
</g>
<!-- DTEL&#45;NRIND&#45;&gt;DOMA&#45;XFELD -->
<g id="edge45" class="edge">
<title>DTEL&#45;NRIND&#45;&gt;DOMA&#45;XFELD</title>
<path fill="none" stroke="black" d="M1180.99,-71.7C1180.99,-63.98 1180.99,-54.71 1180.99,-46.11"/>
<polygon fill="black" stroke="black" points="1184.49,-46.1 1180.99,-36.1 1177.49,-46.1 1184.49,-46.1"/>
</g>
<!-- DOMA&#45;NUMC20 -->
<g id="node30" class="node">
<title>DOMA&#45;NUMC20</title>
<g id="a_node30"><a xlink:href="./DOMA_NUMC20.html" xlink:title="DOMA&#45;NUMC20">
<polygon fill="none" stroke="yellow" points="1372.91,-36 1253.07,-36 1253.07,0 1372.91,0 1372.91,-36"/>
<text text-anchor="middle" x="1312.99" y="-13.8" font-family="Times,serif" font-size="14.00">DOMA&#45;NUMC20</text>
</a>
</g>
</g>
<!-- DTEL&#45;NRLEVEL&#45;&gt;DOMA&#45;NUMC20 -->
<g id="edge46" class="edge">
<title>DTEL&#45;NRLEVEL&#45;&gt;DOMA&#45;NUMC20</title>
<path fill="none" stroke="black" d="M1309.98,-71.7C1310.42,-63.98 1310.95,-54.71 1311.44,-46.11"/>
<polygon fill="black" stroke="black" points="1314.93,-46.29 1312.01,-36.1 1307.94,-45.89 1314.93,-46.29"/>
</g>
<!-- DOMA&#45;CHAR20 -->
<g id="node32" class="node">
<title>DOMA&#45;CHAR20</title>
<g id="a_node32"><a xlink:href="./DOMA_CHAR20.html" xlink:title="DOMA&#45;CHAR20">
<polygon fill="none" stroke="yellow" points="1534.3,-36 1417.67,-36 1417.67,0 1534.3,0 1534.3,-36"/>
<text text-anchor="middle" x="1475.99" y="-13.8" font-family="Times,serif" font-size="14.00">DOMA&#45;CHAR20</text>
</a>
</g>
</g>
<!-- DTEL&#45;NRTO&#45;&gt;DOMA&#45;CHAR20 -->
<g id="edge47" class="edge">
<title>DTEL&#45;NRTO&#45;&gt;DOMA&#45;CHAR20</title>
<path fill="none" stroke="black" d="M1444.37,-71.7C1449.25,-63.56 1455.17,-53.69 1460.57,-44.7"/>
<polygon fill="black" stroke="black" points="1463.58,-46.48 1465.72,-36.1 1457.58,-42.88 1463.58,-46.48"/>
</g>
<!-- DTEL&#45;NRFROM&#45;&gt;DOMA&#45;CHAR20 -->
<g id="edge48" class="edge">
<title>DTEL&#45;NRFROM&#45;&gt;DOMA&#45;CHAR20</title>
<path fill="none" stroke="black" d="M1536.96,-71.7C1526.86,-62.97 1514.45,-52.24 1503.47,-42.75"/>
<polygon fill="black" stroke="black" points="1505.63,-39.99 1495.78,-36.1 1501.06,-45.29 1505.63,-39.99"/>
</g>
<!-- DOMA&#45;SYTIME -->
<g id="node35" class="node">
<title>DOMA&#45;SYTIME</title>
<g id="a_node35"><a xlink:href="./DOMA_SYTIME.html" xlink:title="DOMA&#45;SYTIME">
<polygon fill="none" stroke="yellow" points="2169.51,-36 2054.46,-36 2054.46,0 2169.51,0 2169.51,-36"/>
<text text-anchor="middle" x="2111.99" y="-13.8" font-family="Times,serif" font-size="14.00">DOMA&#45;SYTIME</text>
</a>
</g>
</g>
<!-- DTEL&#45;SYUZEIT&#45;&gt;DOMA&#45;SYTIME -->
<g id="edge49" class="edge">
<title>DTEL&#45;SYUZEIT&#45;&gt;DOMA&#45;SYTIME</title>
<path fill="none" stroke="black" d="M2108.22,-71.7C2108.77,-63.98 2109.44,-54.71 2110.05,-46.11"/>
<polygon fill="black" stroke="black" points="2113.54,-46.33 2110.76,-36.1 2106.56,-45.83 2113.54,-46.33"/>
</g>
<!-- DOMA&#45;SYDATS -->
<g id="node37" class="node">
<title>DOMA&#45;SYDATS</title>
<g id="a_node37"><a xlink:href="./DOMA_SYDATS.html" xlink:title="DOMA&#45;SYDATS">
<polygon fill="none" stroke="yellow" points="2305.85,-36 2188.12,-36 2188.12,0 2305.85,0 2305.85,-36"/>
<text text-anchor="middle" x="2246.99" y="-13.8" font-family="Times,serif" font-size="14.00">DOMA&#45;SYDATS</text>
</a>
</g>
</g>
<!-- DTEL&#45;SYDATUM&#45;&gt;DOMA&#45;SYDATS -->
<g id="edge50" class="edge">
<title>DTEL&#45;SYDATUM&#45;&gt;DOMA&#45;SYDATS</title>
<path fill="none" stroke="black" d="M2245.48,-71.7C2245.7,-63.98 2245.97,-54.71 2246.21,-46.11"/>
<polygon fill="black" stroke="black" points="2249.71,-46.2 2246.5,-36.1 2242.71,-46 2249.71,-46.2"/>
</g>
<!-- DOMA&#45;SYBIN4 -->
<g id="node39" class="node">
<title>DOMA&#45;SYBIN4</title>
<g id="a_node39"><a xlink:href="./DOMA_SYBIN4.html" xlink:title="DOMA&#45;SYBIN4">
<polygon fill="none" stroke="yellow" points="2451.41,-36 2338.57,-36 2338.57,0 2451.41,0 2451.41,-36"/>
<text text-anchor="middle" x="2394.99" y="-13.8" font-family="Times,serif" font-size="14.00">DOMA&#45;SYBIN4</text>
</a>
</g>
</g>
<!-- DTEL&#45;INDX_SRTF2&#45;&gt;DOMA&#45;SYBIN4 -->
<g id="edge51" class="edge">
<title>DTEL&#45;INDX_SRTF2&#45;&gt;DOMA&#45;SYBIN4</title>
<path fill="none" stroke="black" d="M2394.99,-71.7C2394.99,-63.98 2394.99,-54.71 2394.99,-46.11"/>
<polygon fill="black" stroke="black" points="2398.49,-46.1 2394.99,-36.1 2391.49,-46.1 2398.49,-46.1"/>
</g>
<!-- DOMA&#45;TDBOOL -->
<g id="node41" class="node">
<title>DOMA&#45;TDBOOL</title>
<g id="a_node41"><a xlink:href="./DOMA_TDBOOL.html" xlink:title="DOMA&#45;TDBOOL">
<polygon fill="none" stroke="yellow" points="2592.17,-36 2471.8,-36 2471.8,0 2592.17,0 2592.17,-36"/>
<text text-anchor="middle" x="2531.99" y="-13.8" font-family="Times,serif" font-size="14.00">DOMA&#45;TDBOOL</text>
</a>
</g>
</g>
<!-- DTEL&#45;TDBOOL&#45;&gt;DOMA&#45;TDBOOL -->
<g id="edge52" class="edge">
<title>DTEL&#45;TDBOOL&#45;&gt;DOMA&#45;TDBOOL</title>
<path fill="none" stroke="black" d="M2537.26,-71.7C2536.48,-63.98 2535.56,-54.71 2534.7,-46.11"/>
<polygon fill="black" stroke="black" points="2538.17,-45.71 2533.7,-36.1 2531.21,-46.4 2538.17,-45.71"/>
</g>
<!-- DOMA&#45;NRINSTLG -->
<g id="node43" class="node">
<title>DOMA&#45;NRINSTLG</title>
<g id="a_node43"><a xlink:href="./DOMA_NRINSTLG.html" xlink:title="DOMA&#45;NRINSTLG">
<polygon fill="none" stroke="yellow" points="2742.12,-36 2609.86,-36 2609.86,0 2742.12,0 2742.12,-36"/>
<text text-anchor="middle" x="2675.99" y="-13.8" font-family="Times,serif" font-size="14.00">DOMA&#45;NRINSTLG</text>
</a>
</g>
</g>
<!-- DTEL&#45;NRINSTLG&#45;&gt;DOMA&#45;NRINSTLG -->
<g id="edge53" class="edge">
<title>DTEL&#45;NRINSTLG&#45;&gt;DOMA&#45;NRINSTLG</title>
<path fill="none" stroke="black" d="M2675.99,-71.7C2675.99,-63.98 2675.99,-54.71 2675.99,-46.11"/>
<polygon fill="black" stroke="black" points="2679.49,-46.1 2675.99,-36.1 2672.49,-46.1 2679.49,-46.1"/>
</g>
<!-- DOMA&#45;MANDT -->
<g id="node45" class="node">
<title>DOMA&#45;MANDT</title>
<g id="a_node45"><a xlink:href="./DOMA_MANDT.html" xlink:title="DOMA&#45;MANDT">
<polygon fill="none" stroke="yellow" points="2875.23,-36 2760.74,-36 2760.74,0 2875.23,0 2875.23,-36"/>
<text text-anchor="middle" x="2817.99" y="-13.8" font-family="Times,serif" font-size="14.00">DOMA&#45;MANDT</text>
</a>
</g>
</g>
<!-- DTEL&#45;MANDT&#45;&gt;DOMA&#45;MANDT -->
<g id="edge54" class="edge">
<title>DTEL&#45;MANDT&#45;&gt;DOMA&#45;MANDT</title>
<path fill="none" stroke="black" d="M2812.72,-71.7C2813.49,-63.98 2814.42,-54.71 2815.28,-46.11"/>
<polygon fill="black" stroke="black" points="2818.76,-46.4 2816.28,-36.1 2811.8,-45.71 2818.76,-46.4"/>
</g>
<!-- TABL&#45;INRIV&#45;&gt;DTEL&#45;NRYEAR -->
<g id="edge57" class="edge">
<title>TABL&#45;INRIV&#45;&gt;DTEL&#45;NRYEAR</title>
<path fill="none" stroke="black" d="M1055.99,-143.7C1055.99,-135.98 1055.99,-126.71 1055.99,-118.11"/>
<polygon fill="black" stroke="black" points="1059.49,-118.1 1055.99,-108.1 1052.49,-118.1 1059.49,-118.1"/>
</g>
<!-- TABL&#45;INRIV&#45;&gt;DTEL&#45;NRSOBJ -->
<g id="edge55" class="edge">
<title>TABL&#45;INRIV&#45;&gt;DTEL&#45;NRSOBJ</title>
<path fill="none" stroke="black" d="M1024.43,-143.88C1007.33,-134.6 986,-123.03 967.67,-113.08"/>
<polygon fill="black" stroke="black" points="969.12,-109.88 958.66,-108.19 965.79,-116.04 969.12,-109.88"/>
</g>
<!-- TABL&#45;INRIV&#45;&gt;DTEL&#45;NRNR -->
<g id="edge56" class="edge">
<title>TABL&#45;INRIV&#45;&gt;DTEL&#45;NRNR</title>
<path fill="none" stroke="black" d="M1007.78,-147.99C971.1,-138.02 919.14,-123.76 864.69,-108.18"/>
<polygon fill="black" stroke="black" points="865.44,-104.75 854.86,-105.36 863.51,-111.48 865.44,-104.75"/>
</g>
<!-- TABL&#45;INRIV&#45;&gt;DTEL&#45;NRIND -->
<g id="edge61" class="edge">
<title>TABL&#45;INRIV&#45;&gt;DTEL&#45;NRIND</title>
<path fill="none" stroke="black" d="M1086.57,-143.88C1103.06,-134.64 1123.61,-123.13 1141.32,-113.21"/>
<polygon fill="black" stroke="black" points="1143.28,-116.13 1150.29,-108.19 1139.86,-110.02 1143.28,-116.13"/>
</g>
<!-- TABL&#45;INRIV&#45;&gt;DTEL&#45;NRLEVEL -->
<g id="edge60" class="edge">
<title>TABL&#45;INRIV&#45;&gt;DTEL&#45;NRLEVEL</title>
<path fill="none" stroke="black" d="M1104.17,-147.67C1142.21,-137.14 1195.83,-122.31 1238.66,-110.46"/>
<polygon fill="black" stroke="black" points="1239.76,-113.79 1248.46,-107.75 1237.89,-107.04 1239.76,-113.79"/>
</g>
<!-- TABL&#45;INRIV&#45;&gt;DTEL&#45;NRTO -->
<g id="edge59" class="edge">
<title>TABL&#45;INRIV&#45;&gt;DTEL&#45;NRTO</title>
<path fill="none" stroke="black" d="M1104.11,-155.09C1165.42,-147.12 1274.74,-131.42 1376.89,-108.1"/>
<polygon fill="black" stroke="black" points="1377.79,-111.48 1386.75,-105.82 1376.22,-104.66 1377.79,-111.48"/>
</g>
<!-- TABL&#45;INRIV&#45;&gt;DTEL&#45;NRFROM -->
<g id="edge58" class="edge">
<title>TABL&#45;INRIV&#45;&gt;DTEL&#45;NRFROM</title>
<path fill="none" stroke="black" d="M1104.14,-157.13C1182.73,-150.38 1343.59,-134.73 1489.33,-107.98"/>
<polygon fill="black" stroke="black" points="1490.15,-111.39 1499.35,-106.12 1488.88,-104.5 1490.15,-111.39"/>
</g>
<!-- DTEL&#45;PROCIND -->
<g id="node47" class="node">
<title>DTEL&#45;PROCIND</title>
<g id="a_node47"><a xlink:href="./DTEL_PROCIND.html" xlink:title="DTEL&#45;PROCIND">
<polygon fill="none" stroke="yellow" points="740.85,-108 623.13,-108 623.13,-72 740.85,-72 740.85,-108"/>
<text text-anchor="middle" x="681.99" y="-85.8" font-family="Times,serif" font-size="14.00">DTEL&#45;PROCIND</text>
</a>
</g>
</g>
<!-- TABL&#45;INRIV&#45;&gt;DTEL&#45;PROCIND -->
<g id="edge62" class="edge">
<title>TABL&#45;INRIV&#45;&gt;DTEL&#45;PROCIND</title>
<path fill="none" stroke="black" d="M1007.81,-153.78C949.36,-144.77 847.63,-128.28 750.85,-108.1"/>
<polygon fill="black" stroke="black" points="751.4,-104.64 740.9,-106.01 749.96,-111.49 751.4,-104.64"/>
</g>
<!-- DTEL&#45;PROCIND&#45;&gt;DOMA&#45;CHAR1 -->
<g id="edge63" class="edge">
<title>DTEL&#45;PROCIND&#45;&gt;DOMA&#45;CHAR1</title>
<path fill="none" stroke="black" d="M679.76,-71.7C678.77,-63.98 677.58,-54.71 676.47,-46.11"/>
<polygon fill="black" stroke="black" points="679.93,-45.58 675.19,-36.1 672.99,-46.47 679.93,-45.58"/>
</g>
<!-- DTEL&#45;NRTABIX -->
<g id="node49" class="node">
<title>DTEL&#45;NRTABIX</title>
<g id="a_node49"><a xlink:href="./DTEL_NRTABIX.html" xlink:title="DTEL&#45;NRTABIX">
<polygon fill="none" stroke="yellow" points="3151.12,-108 3032.85,-108 3032.85,-72 3151.12,-72 3151.12,-108"/>
<text text-anchor="middle" x="3091.99" y="-85.8" font-family="Times,serif" font-size="14.00">DTEL&#45;NRTABIX</text>
</a>
</g>
</g>
<!-- TABL&#45;INRER&#45;&gt;DTEL&#45;NRTABIX -->
<g id="edge67" class="edge">
<title>TABL&#45;INRER&#45;&gt;DTEL&#45;NRTABIX</title>
<path fill="none" stroke="black" d="M3202.27,-143.88C3182.49,-134.39 3157.71,-122.51 3136.66,-112.42"/>
<polygon fill="black" stroke="black" points="3138.12,-109.24 3127.59,-108.07 3135.09,-115.55 3138.12,-109.24"/>
</g>
<!-- DTEL&#45;FIELDNAME -->
<g id="node51" class="node">
<title>DTEL&#45;FIELDNAME</title>
<g id="a_node51"><a xlink:href="./DTEL_FIELDNAME.html" xlink:title="DTEL&#45;FIELDNAME">
<polygon fill="none" stroke="yellow" points="3306.78,-108 3169.2,-108 3169.2,-72 3306.78,-72 3306.78,-108"/>
<text text-anchor="middle" x="3237.99" y="-85.8" font-family="Times,serif" font-size="14.00">DTEL&#45;FIELDNAME</text>
</a>
</g>
</g>
<!-- TABL&#45;INRER&#45;&gt;DTEL&#45;FIELDNAME -->
<g id="edge66" class="edge">
<title>TABL&#45;INRER&#45;&gt;DTEL&#45;FIELDNAME</title>
<path fill="none" stroke="black" d="M3237.99,-143.7C3237.99,-135.98 3237.99,-126.71 3237.99,-118.11"/>
<polygon fill="black" stroke="black" points="3241.49,-118.1 3237.99,-108.1 3234.49,-118.1 3241.49,-118.1"/>
</g>
<!-- DTEL&#45;PARAMETER -->
<g id="node53" class="node">
<title>DTEL&#45;PARAMETER</title>
<g id="a_node53"><a xlink:href="./DTEL_PARAMETER.html" xlink:title="DTEL&#45;PARAMETER">
<polygon fill="none" stroke="yellow" points="3465.68,-108 3324.29,-108 3324.29,-72 3465.68,-72 3465.68,-108"/>
<text text-anchor="middle" x="3394.99" y="-85.8" font-family="Times,serif" font-size="14.00">DTEL&#45;PARAMETER</text>
</a>
</g>
</g>
<!-- TABL&#45;INRER&#45;&gt;DTEL&#45;PARAMETER -->
<g id="edge65" class="edge">
<title>TABL&#45;INRER&#45;&gt;DTEL&#45;PARAMETER</title>
<path fill="none" stroke="black" d="M3276.39,-143.88C3297.86,-134.31 3324.78,-122.3 3347.56,-112.15"/>
<polygon fill="black" stroke="black" points="3349,-115.34 3356.7,-108.07 3346.15,-108.94 3349,-115.34"/>
</g>
<!-- DTEL&#45;MSGNR -->
<g id="node55" class="node">
<title>DTEL&#45;MSGNR</title>
<g id="a_node55"><a xlink:href="./DTEL_MSGNR.html" xlink:title="DTEL&#45;MSGNR">
<polygon fill="none" stroke="yellow" points="3596.19,-108 3489.78,-108 3489.78,-72 3596.19,-72 3596.19,-108"/>
<text text-anchor="middle" x="3542.99" y="-85.8" font-family="Times,serif" font-size="14.00">DTEL&#45;MSGNR</text>
</a>
</g>
</g>
<!-- TABL&#45;INRER&#45;&gt;DTEL&#45;MSGNR -->
<g id="edge64" class="edge">
<title>TABL&#45;INRER&#45;&gt;DTEL&#45;MSGNR</title>
<path fill="none" stroke="black" d="M3288,-150.19C3336.03,-139.73 3410.57,-123.25 3474.99,-108 3476.47,-107.65 3477.96,-107.29 3479.47,-106.93"/>
<polygon fill="black" stroke="black" points="3480.67,-110.24 3489.56,-104.49 3479.02,-103.44 3480.67,-110.24"/>
</g>
<!-- DOMA&#45;NRTABIX -->
<g id="node50" class="node">
<title>DOMA&#45;NRTABIX</title>
<g id="a_node50"><a xlink:href="./DOMA_NRTABIX.html" xlink:title="DOMA&#45;NRTABIX">
<polygon fill="none" stroke="yellow" points="3154.62,-36 3029.35,-36 3029.35,0 3154.62,0 3154.62,-36"/>
<text text-anchor="middle" x="3091.99" y="-13.8" font-family="Times,serif" font-size="14.00">DOMA&#45;NRTABIX</text>
</a>
</g>
</g>
<!-- DTEL&#45;NRTABIX&#45;&gt;DOMA&#45;NRTABIX -->
<g id="edge68" class="edge">
<title>DTEL&#45;NRTABIX&#45;&gt;DOMA&#45;NRTABIX</title>
<path fill="none" stroke="black" d="M3091.99,-71.7C3091.99,-63.98 3091.99,-54.71 3091.99,-46.11"/>
<polygon fill="black" stroke="black" points="3095.49,-46.1 3091.99,-36.1 3088.49,-46.1 3095.49,-46.1"/>
</g>
<!-- DOMA&#45;FDNAME -->
<g id="node52" class="node">
<title>DOMA&#45;FDNAME</title>
<g id="a_node52"><a xlink:href="./DOMA_FDNAME.html" xlink:title="DOMA&#45;FDNAME">
<polygon fill="none" stroke="yellow" points="3298.01,-36 3175.96,-36 3175.96,0 3298.01,0 3298.01,-36"/>
<text text-anchor="middle" x="3236.99" y="-13.8" font-family="Times,serif" font-size="14.00">DOMA&#45;FDNAME</text>
</a>
</g>
</g>
<!-- DTEL&#45;FIELDNAME&#45;&gt;DOMA&#45;FDNAME -->
<g id="edge69" class="edge">
<title>DTEL&#45;FIELDNAME&#45;&gt;DOMA&#45;FDNAME</title>
<path fill="none" stroke="black" d="M3237.74,-71.7C3237.63,-63.98 3237.5,-54.71 3237.37,-46.11"/>
<polygon fill="black" stroke="black" points="3240.87,-46.05 3237.23,-36.1 3233.87,-46.15 3240.87,-46.05"/>
</g>
<!-- DOMA&#45;LPARAMETER -->
<g id="node54" class="node">
<title>DOMA&#45;LPARAMETER</title>
<g id="a_node54"><a xlink:href="./DOMA_LPARAMETER.html" xlink:title="DOMA&#45;LPARAMETER">
<polygon fill="none" stroke="yellow" points="3473.24,-36 3316.74,-36 3316.74,0 3473.24,0 3473.24,-36"/>
<text text-anchor="middle" x="3394.99" y="-13.8" font-family="Times,serif" font-size="14.00">DOMA&#45;LPARAMETER</text>
</a>
</g>
</g>
<!-- DTEL&#45;PARAMETER&#45;&gt;DOMA&#45;LPARAMETER -->
<g id="edge70" class="edge">
<title>DTEL&#45;PARAMETER&#45;&gt;DOMA&#45;LPARAMETER</title>
<path fill="none" stroke="black" d="M3394.99,-71.7C3394.99,-63.98 3394.99,-54.71 3394.99,-46.11"/>
<polygon fill="black" stroke="black" points="3398.49,-46.1 3394.99,-36.1 3391.49,-46.1 3398.49,-46.1"/>
</g>
<!-- DOMA&#45;MSGNR -->
<g id="node56" class="node">
<title>DOMA&#45;MSGNR</title>
<g id="a_node56"><a xlink:href="./DOMA_MSGNR.html" xlink:title="DOMA&#45;MSGNR">
<polygon fill="none" stroke="yellow" points="3604.69,-36 3491.28,-36 3491.28,0 3604.69,0 3604.69,-36"/>
<text text-anchor="middle" x="3547.99" y="-13.8" font-family="Times,serif" font-size="14.00">DOMA&#45;MSGNR</text>
</a>
</g>
</g>
<!-- DTEL&#45;MSGNR&#45;&gt;DOMA&#45;MSGNR -->
<g id="edge71" class="edge">
<title>DTEL&#45;MSGNR&#45;&gt;DOMA&#45;MSGNR</title>
<path fill="none" stroke="black" d="M3544.22,-71.7C3544.77,-63.98 3545.44,-54.71 3546.05,-46.11"/>
<polygon fill="black" stroke="black" points="3549.54,-46.33 3546.76,-36.1 3542.56,-45.83 3549.54,-46.33"/>
</g>
</g>
</svg>
