<?xml version="1.0" encoding="UTF-8" standalone="no"?>
<!DOCTYPE svg PUBLIC "-//W3C//DTD SVG 1.1//EN"
 "http://www.w3.org/Graphics/SVG/1.1/DTD/svg11.dtd">
<!-- Generated by graphviz version 2.47.3 (20210619.1520)
 -->
<!-- Title: G Pages: 1 -->
<svg width="839pt" height="620pt"
 viewBox="0.00 0.00 839.19 620.00" xmlns="http://www.w3.org/2000/svg" xmlns:xlink="http://www.w3.org/1999/xlink">
<g id="graph0" class="graph" transform="scale(1 1) rotate(0) translate(4 616)">
<title>G</title>
<polygon fill="white" stroke="transparent" points="-4,4 -4,-616 835.19,-616 835.19,4 -4,4"/>
<!-- CLAS&#45;CX_XSLT_ID_HREF_ERROR -->
<g id="node1" class="node">
<title>CLAS&#45;CX_XSLT_ID_HREF_ERROR</title>
<polygon fill="none" stroke="green" points="831.24,-612 595.05,-612 595.05,-576 831.24,-576 831.24,-612"/>
<text text-anchor="middle" x="713.14" y="-589.8" font-family="Times,serif" font-size="14.00">CLAS&#45;CX_XSLT_ID_HREF_ERROR</text>
</g>
<!-- CLAS&#45;CX_XSLT_FORMAT_ERROR -->
<g id="node2" class="node">
<title>CLAS&#45;CX_XSLT_FORMAT_ERROR</title>
<g id="a_node2"><a xlink:href="./CLAS_CX_XSLT_FORMAT_ERROR.html" xlink:title="CLAS&#45;CX_XSLT_FORMAT_ERROR">
<polygon fill="none" stroke="green" points="758.52,-540 521.77,-540 521.77,-504 758.52,-504 758.52,-540"/>
<text text-anchor="middle" x="640.14" y="-517.8" font-family="Times,serif" font-size="14.00">CLAS&#45;CX_XSLT_FORMAT_ERROR</text>
</a>
</g>
</g>
<!-- CLAS&#45;CX_XSLT_ID_HREF_ERROR&#45;&gt;CLAS&#45;CX_XSLT_FORMAT_ERROR -->
<g id="edge2" class="edge">
<title>CLAS&#45;CX_XSLT_ID_HREF_ERROR&#45;&gt;CLAS&#45;CX_XSLT_FORMAT_ERROR</title>
<path fill="none" stroke="black" d="M695.1,-575.7C686.08,-567.05 675.03,-556.45 665.2,-547.03"/>
<polygon fill="black" stroke="black" points="667.62,-544.5 657.98,-540.1 662.78,-549.55 667.62,-544.5"/>
</g>
<!-- DTEL&#45;SOTR_CONC -->
<g id="node14" class="node">
<title>DTEL&#45;SOTR_CONC</title>
<g id="a_node14"><a xlink:href="./DTEL_SOTR_CONC.html" xlink:title="DTEL&#45;SOTR_CONC">
<polygon fill="none" stroke="yellow" points="817.23,-108 679.05,-108 679.05,-72 817.23,-72 817.23,-108"/>
<text text-anchor="middle" x="748.14" y="-85.8" font-family="Times,serif" font-size="14.00">DTEL&#45;SOTR_CONC</text>
</a>
</g>
</g>
<!-- CLAS&#45;CX_XSLT_ID_HREF_ERROR&#45;&gt;DTEL&#45;SOTR_CONC -->
<g id="edge1" class="edge">
<title>CLAS&#45;CX_XSLT_ID_HREF_ERROR&#45;&gt;DTEL&#45;SOTR_CONC</title>
<path fill="none" stroke="black" d="M735.97,-575.95C747.01,-566.53 759.49,-553.93 767.14,-540 786.63,-504.55 786.14,-491.45 786.14,-451 786.14,-451 786.14,-451 786.14,-233 786.14,-191.63 770.91,-145.72 759.73,-117.61"/>
<polygon fill="black" stroke="black" points="762.87,-116.02 755.83,-108.09 756.39,-118.67 762.87,-116.02"/>
</g>
<!-- CLAS&#45;CX_XSLT_SYSTEM_ERROR -->
<g id="node3" class="node">
<title>CLAS&#45;CX_XSLT_SYSTEM_ERROR</title>
<g id="a_node3"><a xlink:href="./CLAS_CX_XSLT_SYSTEM_ERROR.html" xlink:title="CLAS&#45;CX_XSLT_SYSTEM_ERROR">
<polygon fill="none" stroke="green" points="719.91,-468 486.38,-468 486.38,-432 719.91,-432 719.91,-468"/>
<text text-anchor="middle" x="603.14" y="-445.8" font-family="Times,serif" font-size="14.00">CLAS&#45;CX_XSLT_SYSTEM_ERROR</text>
</a>
</g>
</g>
<!-- CLAS&#45;CX_XSLT_FORMAT_ERROR&#45;&gt;CLAS&#45;CX_XSLT_SYSTEM_ERROR -->
<g id="edge4" class="edge">
<title>CLAS&#45;CX_XSLT_FORMAT_ERROR&#45;&gt;CLAS&#45;CX_XSLT_SYSTEM_ERROR</title>
<path fill="none" stroke="black" d="M631,-503.7C626.74,-495.64 621.59,-485.89 616.88,-476.98"/>
<polygon fill="black" stroke="black" points="619.95,-475.31 612.19,-468.1 613.76,-478.58 619.95,-475.31"/>
</g>
<!-- CLAS&#45;CX_XSLT_FORMAT_ERROR&#45;&gt;DTEL&#45;SOTR_CONC -->
<g id="edge3" class="edge">
<title>CLAS&#45;CX_XSLT_FORMAT_ERROR&#45;&gt;DTEL&#45;SOTR_CONC</title>
<path fill="none" stroke="black" d="M684.1,-503.93C700.54,-495.46 717.93,-483.64 729.14,-468 752.71,-435.13 748.14,-419.45 748.14,-379 748.14,-379 748.14,-379 748.14,-233 748.14,-193 748.14,-146.65 748.14,-118.08"/>
<polygon fill="black" stroke="black" points="751.64,-118.05 748.14,-108.05 744.64,-118.05 751.64,-118.05"/>
</g>
<!-- CLAS&#45;CX_XSLT_EXCEPTION -->
<g id="node4" class="node">
<title>CLAS&#45;CX_XSLT_EXCEPTION</title>
<g id="a_node4"><a xlink:href="./CLAS_CX_XSLT_EXCEPTION.html" xlink:title="CLAS&#45;CX_XSLT_EXCEPTION">
<polygon fill="none" stroke="green" points="704.28,-396 502.01,-396 502.01,-360 704.28,-360 704.28,-396"/>
<text text-anchor="middle" x="603.14" y="-373.8" font-family="Times,serif" font-size="14.00">CLAS&#45;CX_XSLT_EXCEPTION</text>
</a>
</g>
</g>
<!-- CLAS&#45;CX_XSLT_SYSTEM_ERROR&#45;&gt;CLAS&#45;CX_XSLT_EXCEPTION -->
<g id="edge5" class="edge">
<title>CLAS&#45;CX_XSLT_SYSTEM_ERROR&#45;&gt;CLAS&#45;CX_XSLT_EXCEPTION</title>
<path fill="none" stroke="black" d="M603.14,-431.7C603.14,-423.98 603.14,-414.71 603.14,-406.11"/>
<polygon fill="black" stroke="black" points="606.64,-406.1 603.14,-396.1 599.64,-406.1 606.64,-406.1"/>
</g>
<!-- CLAS&#45;CX_TRANSFORMATION_ERROR -->
<g id="node5" class="node">
<title>CLAS&#45;CX_TRANSFORMATION_ERROR</title>
<g id="a_node5"><a xlink:href="./CLAS_CX_TRANSFORMATION_ERROR.html" xlink:title="CLAS&#45;CX_TRANSFORMATION_ERROR">
<polygon fill="none" stroke="green" points="681.78,-324 416.5,-324 416.5,-288 681.78,-288 681.78,-324"/>
<text text-anchor="middle" x="549.14" y="-301.8" font-family="Times,serif" font-size="14.00">CLAS&#45;CX_TRANSFORMATION_ERROR</text>
</a>
</g>
</g>
<!-- CLAS&#45;CX_XSLT_EXCEPTION&#45;&gt;CLAS&#45;CX_TRANSFORMATION_ERROR -->
<g id="edge7" class="edge">
<title>CLAS&#45;CX_XSLT_EXCEPTION&#45;&gt;CLAS&#45;CX_TRANSFORMATION_ERROR</title>
<path fill="none" stroke="black" d="M589.8,-359.7C583.39,-351.39 575.59,-341.28 568.54,-332.14"/>
<polygon fill="black" stroke="black" points="571.22,-329.88 562.34,-324.1 565.68,-334.16 571.22,-329.88"/>
</g>
<!-- CLAS&#45;CX_XSLT_EXCEPTION&#45;&gt;DTEL&#45;SOTR_CONC -->
<g id="edge6" class="edge">
<title>CLAS&#45;CX_XSLT_EXCEPTION&#45;&gt;DTEL&#45;SOTR_CONC</title>
<path fill="none" stroke="black" d="M645.97,-359.93C662.33,-351.41 679.77,-339.55 691.14,-324 739.71,-257.62 714.08,-223.77 734.14,-144 736.27,-135.56 738.66,-126.39 740.86,-118.09"/>
<polygon fill="black" stroke="black" points="744.31,-118.72 743.5,-108.16 737.55,-116.92 744.31,-118.72"/>
</g>
<!-- CLAS&#45;CX_DYNAMIC_CHECK -->
<g id="node6" class="node">
<title>CLAS&#45;CX_DYNAMIC_CHECK</title>
<g id="a_node6"><a xlink:href="./CLAS_CX_DYNAMIC_CHECK.html" xlink:title="CLAS&#45;CX_DYNAMIC_CHECK">
<polygon fill="none" stroke="green" points="581.33,-252 376.96,-252 376.96,-216 581.33,-216 581.33,-252"/>
<text text-anchor="middle" x="479.14" y="-229.8" font-family="Times,serif" font-size="14.00">CLAS&#45;CX_DYNAMIC_CHECK</text>
</a>
</g>
</g>
<!-- CLAS&#45;CX_TRANSFORMATION_ERROR&#45;&gt;CLAS&#45;CX_DYNAMIC_CHECK -->
<g id="edge9" class="edge">
<title>CLAS&#45;CX_TRANSFORMATION_ERROR&#45;&gt;CLAS&#45;CX_DYNAMIC_CHECK</title>
<path fill="none" stroke="black" d="M531.84,-287.7C523.28,-279.14 512.8,-268.66 503.45,-259.3"/>
<polygon fill="black" stroke="black" points="505.79,-256.7 496.25,-252.1 500.85,-261.65 505.79,-256.7"/>
</g>
<!-- CLAS&#45;CX_TRANSFORMATION_ERROR&#45;&gt;DTEL&#45;SOTR_CONC -->
<g id="edge8" class="edge">
<title>CLAS&#45;CX_TRANSFORMATION_ERROR&#45;&gt;DTEL&#45;SOTR_CONC</title>
<path fill="none" stroke="black" d="M564.4,-287.89C590.88,-258.28 647.23,-195.68 696.14,-144 705.14,-134.49 715.19,-124.19 724.03,-115.21"/>
<polygon fill="black" stroke="black" points="726.58,-117.61 731.13,-108.03 721.61,-112.69 726.58,-117.61"/>
</g>
<!-- CLAS&#45;CX_ROOT -->
<g id="node7" class="node">
<title>CLAS&#45;CX_ROOT</title>
<g id="a_node7"><a xlink:href="./CLAS_CX_ROOT.html" xlink:title="CLAS&#45;CX_ROOT">
<polygon fill="none" stroke="green" points="528.63,-180 407.66,-180 407.66,-144 528.63,-144 528.63,-180"/>
<text text-anchor="middle" x="468.14" y="-157.8" font-family="Times,serif" font-size="14.00">CLAS&#45;CX_ROOT</text>
</a>
</g>
</g>
<!-- CLAS&#45;CX_DYNAMIC_CHECK&#45;&gt;CLAS&#45;CX_ROOT -->
<g id="edge10" class="edge">
<title>CLAS&#45;CX_DYNAMIC_CHECK&#45;&gt;CLAS&#45;CX_ROOT</title>
<path fill="none" stroke="black" d="M476.43,-215.7C475.21,-207.98 473.76,-198.71 472.41,-190.11"/>
<polygon fill="black" stroke="black" points="475.84,-189.44 470.83,-180.1 468.93,-190.53 475.84,-189.44"/>
</g>
<!-- INTF&#45;IF_SERIALIZABLE_OBJECT -->
<g id="node8" class="node">
<title>INTF&#45;IF_SERIALIZABLE_OBJECT</title>
<g id="a_node8"><a xlink:href="./INTF_IF_SERIALIZABLE_OBJECT.html" xlink:title="INTF&#45;IF_SERIALIZABLE_OBJECT">
<polygon fill="none" stroke="green" points="228.43,-108 -0.14,-108 -0.14,-72 228.43,-72 228.43,-108"/>
<text text-anchor="middle" x="114.14" y="-85.8" font-family="Times,serif" font-size="14.00">INTF&#45;IF_SERIALIZABLE_OBJECT</text>
</a>
</g>
</g>
<!-- CLAS&#45;CX_ROOT&#45;&gt;INTF&#45;IF_SERIALIZABLE_OBJECT -->
<g id="edge15" class="edge">
<title>CLAS&#45;CX_ROOT&#45;&gt;INTF&#45;IF_SERIALIZABLE_OBJECT</title>
<path fill="none" stroke="black" d="M407.29,-148.97C353.15,-138.26 273.07,-122.43 210.28,-110.01"/>
<polygon fill="black" stroke="black" points="210.84,-106.55 200.35,-108.05 209.48,-113.42 210.84,-106.55"/>
</g>
<!-- INTF&#45;IF_MESSAGE -->
<g id="node9" class="node">
<title>INTF&#45;IF_MESSAGE</title>
<g id="a_node9"><a xlink:href="./INTF_IF_MESSAGE.html" xlink:title="INTF&#45;IF_MESSAGE">
<polygon fill="none" stroke="green" points="382.18,-108 246.11,-108 246.11,-72 382.18,-72 382.18,-108"/>
<text text-anchor="middle" x="314.14" y="-85.8" font-family="Times,serif" font-size="14.00">INTF&#45;IF_MESSAGE</text>
</a>
</g>
</g>
<!-- CLAS&#45;CX_ROOT&#45;&gt;INTF&#45;IF_MESSAGE -->
<g id="edge14" class="edge">
<title>CLAS&#45;CX_ROOT&#45;&gt;INTF&#45;IF_MESSAGE</title>
<path fill="none" stroke="black" d="M430.47,-143.88C409.51,-134.35 383.24,-122.41 360.97,-112.28"/>
<polygon fill="black" stroke="black" points="362.25,-109.02 351.69,-108.07 359.35,-115.39 362.25,-109.02"/>
</g>
<!-- DTEL&#45;SYREPID -->
<g id="node10" class="node">
<title>DTEL&#45;SYREPID</title>
<g id="a_node10"><a xlink:href="./DTEL_SYREPID.html" xlink:title="DTEL&#45;SYREPID">
<polygon fill="none" stroke="green" points="515.4,-108 400.89,-108 400.89,-72 515.4,-72 515.4,-108"/>
<text text-anchor="middle" x="458.14" y="-85.8" font-family="Times,serif" font-size="14.00">DTEL&#45;SYREPID</text>
</a>
</g>
</g>
<!-- CLAS&#45;CX_ROOT&#45;&gt;DTEL&#45;SYREPID -->
<g id="edge13" class="edge">
<title>CLAS&#45;CX_ROOT&#45;&gt;DTEL&#45;SYREPID</title>
<path fill="none" stroke="black" d="M465.67,-143.7C464.57,-135.98 463.25,-126.71 462.02,-118.11"/>
<polygon fill="black" stroke="black" points="465.47,-117.51 460.59,-108.1 458.54,-118.5 465.47,-117.51"/>
</g>
<!-- DTEL&#45;S380ERRID -->
<g id="node12" class="node">
<title>DTEL&#45;S380ERRID</title>
<g id="a_node12"><a xlink:href="./DTEL_S380ERRID.html" xlink:title="DTEL&#45;S380ERRID">
<polygon fill="none" stroke="yellow" points="660.85,-108 533.44,-108 533.44,-72 660.85,-72 660.85,-108"/>
<text text-anchor="middle" x="597.14" y="-85.8" font-family="Times,serif" font-size="14.00">DTEL&#45;S380ERRID</text>
</a>
</g>
</g>
<!-- CLAS&#45;CX_ROOT&#45;&gt;DTEL&#45;S380ERRID -->
<g id="edge12" class="edge">
<title>CLAS&#45;CX_ROOT&#45;&gt;DTEL&#45;S380ERRID</title>
<path fill="none" stroke="black" d="M499.7,-143.88C516.8,-134.6 538.13,-123.03 556.46,-113.08"/>
<polygon fill="black" stroke="black" points="558.35,-116.04 565.47,-108.19 555.01,-109.88 558.35,-116.04"/>
</g>
<!-- CLAS&#45;CX_ROOT&#45;&gt;DTEL&#45;SOTR_CONC -->
<g id="edge11" class="edge">
<title>CLAS&#45;CX_ROOT&#45;&gt;DTEL&#45;SOTR_CONC</title>
<path fill="none" stroke="black" d="M528.9,-145.81C570.32,-135.46 625.54,-121.65 670.2,-110.49"/>
<polygon fill="black" stroke="black" points="671.29,-113.82 680.14,-108 669.59,-107.03 671.29,-113.82"/>
</g>
<!-- DOMA&#45;PROGRAMM -->
<g id="node11" class="node">
<title>DOMA&#45;PROGRAMM</title>
<g id="a_node11"><a xlink:href="./DOMA_PROGRAMM.html" xlink:title="DOMA&#45;PROGRAMM">
<polygon fill="none" stroke="yellow" points="511.73,-36 366.55,-36 366.55,0 511.73,0 511.73,-36"/>
<text text-anchor="middle" x="439.14" y="-13.8" font-family="Times,serif" font-size="14.00">DOMA&#45;PROGRAMM</text>
</a>
</g>
</g>
<!-- DTEL&#45;SYREPID&#45;&gt;DOMA&#45;PROGRAMM -->
<g id="edge16" class="edge">
<title>DTEL&#45;SYREPID&#45;&gt;DOMA&#45;PROGRAMM</title>
<path fill="none" stroke="black" d="M453.45,-71.7C451.33,-63.9 448.78,-54.51 446.43,-45.83"/>
<polygon fill="black" stroke="black" points="449.78,-44.84 443.79,-36.1 443.03,-46.67 449.78,-44.84"/>
</g>
<!-- DOMA&#45;SYCHAR30 -->
<g id="node13" class="node">
<title>DOMA&#45;SYCHAR30</title>
<g id="a_node13"><a xlink:href="./DOMA_SYCHAR30.html" xlink:title="DOMA&#45;SYCHAR30">
<polygon fill="none" stroke="yellow" points="664.35,-36 529.94,-36 529.94,0 664.35,0 664.35,-36"/>
<text text-anchor="middle" x="597.14" y="-13.8" font-family="Times,serif" font-size="14.00">DOMA&#45;SYCHAR30</text>
</a>
</g>
</g>
<!-- DTEL&#45;S380ERRID&#45;&gt;DOMA&#45;SYCHAR30 -->
<g id="edge17" class="edge">
<title>DTEL&#45;S380ERRID&#45;&gt;DOMA&#45;SYCHAR30</title>
<path fill="none" stroke="black" d="M597.14,-71.7C597.14,-63.98 597.14,-54.71 597.14,-46.11"/>
<polygon fill="black" stroke="black" points="600.64,-46.1 597.14,-36.1 593.64,-46.1 600.64,-46.1"/>
</g>
<!-- DOMA&#45;SYSUUID_C -->
<g id="node15" class="node">
<title>DOMA&#45;SYSUUID_C</title>
<g id="a_node15"><a xlink:href="./DOMA_SYSUUID_C.html" xlink:title="DOMA&#45;SYSUUID_C">
<polygon fill="none" stroke="yellow" points="822.56,-36 681.73,-36 681.73,0 822.56,0 822.56,-36"/>
<text text-anchor="middle" x="752.14" y="-13.8" font-family="Times,serif" font-size="14.00">DOMA&#45;SYSUUID_C</text>
</a>
</g>
</g>
<!-- DTEL&#45;SOTR_CONC&#45;&gt;DOMA&#45;SYSUUID_C -->
<g id="edge18" class="edge">
<title>DTEL&#45;SOTR_CONC&#45;&gt;DOMA&#45;SYSUUID_C</title>
<path fill="none" stroke="black" d="M749.13,-71.7C749.57,-63.98 750.1,-54.71 750.6,-46.11"/>
<polygon fill="black" stroke="black" points="754.09,-46.29 751.17,-36.1 747.1,-45.89 754.09,-46.29"/>
</g>
</g>
</svg>
