<?xml version="1.0" encoding="UTF-8" standalone="no"?>
<!DOCTYPE svg PUBLIC "-//W3C//DTD SVG 1.1//EN"
 "http://www.w3.org/Graphics/SVG/1.1/DTD/svg11.dtd">
<!-- Generated by graphviz version 2.47.3 (20210619.1520)
 -->
<!-- Title: G Pages: 1 -->
<svg width="902pt" height="332pt"
 viewBox="0.00 0.00 902.30 332.00" xmlns="http://www.w3.org/2000/svg" xmlns:xlink="http://www.w3.org/1999/xlink">
<g id="graph0" class="graph" transform="scale(1 1) rotate(0) translate(4 328)">
<title>G</title>
<polygon fill="white" stroke="transparent" points="-4,4 -4,-328 898.3,-328 898.3,4 -4,4"/>
<!-- CLAS&#45;CL_ABAP_MATCHER -->
<g id="node1" class="node">
<title>CLAS&#45;CL_ABAP_MATCHER</title>
<g id="a_node1"><a xlink:href="./CLAS_CL_ABAP_MATCHER.html" xlink:title="CLAS&#45;CL_ABAP_MATCHER">
<polygon fill="none" stroke="green" points="496.24,-324 302.05,-324 302.05,-288 496.24,-288 496.24,-324"/>
<text text-anchor="middle" x="399.14" y="-301.8" font-family="Times,serif" font-size="14.00">CLAS&#45;CL_ABAP_MATCHER</text>
</a>
</g>
</g>
<!-- INTF&#45;IF_ABAP_MATCHER_CALLOUT -->
<g id="node2" class="node">
<title>INTF&#45;IF_ABAP_MATCHER_CALLOUT</title>
<g id="a_node2"><a xlink:href="./INTF_IF_ABAP_MATCHER_CALLOUT.html" xlink:title="INTF&#45;IF_ABAP_MATCHER_CALLOUT">
<polygon fill="none" stroke="green" points="256.43,-180 -0.14,-180 -0.14,-144 256.43,-144 256.43,-180"/>
<text text-anchor="middle" x="128.14" y="-157.8" font-family="Times,serif" font-size="14.00">INTF&#45;IF_ABAP_MATCHER_CALLOUT</text>
</a>
</g>
</g>
<!-- CLAS&#45;CL_ABAP_MATCHER&#45;&gt;INTF&#45;IF_ABAP_MATCHER_CALLOUT -->
<g id="edge6" class="edge">
<title>CLAS&#45;CL_ABAP_MATCHER&#45;&gt;INTF&#45;IF_ABAP_MATCHER_CALLOUT</title>
<path fill="none" stroke="black" d="M301.87,-294.91C240.8,-286.48 169.58,-272.5 147.14,-252 129.91,-236.25 123.21,-210.04 122.25,-190.12"/>
<polygon fill="black" stroke="black" points="125.75,-190.1 122.25,-180.09 118.75,-190.09 125.75,-190.1"/>
</g>
<!-- CLAS&#45;CL_ABAP_MATCHER&#45;&gt;INTF&#45;IF_ABAP_MATCHER_CALLOUT -->
<g id="edge14" class="edge">
<title>CLAS&#45;CL_ABAP_MATCHER&#45;&gt;INTF&#45;IF_ABAP_MATCHER_CALLOUT</title>
<path fill="none" stroke="black" d="M301.78,-292.63C247.01,-284.05 185.66,-270.75 165.14,-252 147.91,-236.25 141.21,-210.04 137.04,-190.12"/>
<polygon fill="black" stroke="black" points="140.42,-189.19 134.98,-180.09 133.56,-190.59 140.42,-189.19"/>
</g>
<!-- CLAS&#45;CL_ABAP_REGEX -->
<g id="node3" class="node">
<title>CLAS&#45;CL_ABAP_REGEX</title>
<g id="a_node3"><a xlink:href="./CLAS_CL_ABAP_REGEX.html" xlink:title="CLAS&#45;CL_ABAP_REGEX">
<polygon fill="none" stroke="green" points="337.46,-252 164.83,-252 164.83,-216 337.46,-216 337.46,-252"/>
<text text-anchor="middle" x="251.14" y="-229.8" font-family="Times,serif" font-size="14.00">CLAS&#45;CL_ABAP_REGEX</text>
</a>
</g>
</g>
<!-- CLAS&#45;CL_ABAP_MATCHER&#45;&gt;CLAS&#45;CL_ABAP_REGEX -->
<g id="edge5" class="edge">
<title>CLAS&#45;CL_ABAP_MATCHER&#45;&gt;CLAS&#45;CL_ABAP_REGEX</title>
<path fill="none" stroke="black" d="M351.15,-287.88C329.39,-278.51 304.38,-266.81 284.63,-256.8"/>
<polygon fill="black" stroke="black" points="286.17,-253.66 275.68,-252.19 282.97,-259.88 286.17,-253.66"/>
</g>
<!-- CLAS&#45;CL_ABAP_MATCHER&#45;&gt;CLAS&#45;CL_ABAP_REGEX -->
<g id="edge13" class="edge">
<title>CLAS&#45;CL_ABAP_MATCHER&#45;&gt;CLAS&#45;CL_ABAP_REGEX</title>
<path fill="none" stroke="black" d="M374.73,-287.88C356.5,-278.31 331.36,-266.3 308.37,-256.15"/>
<polygon fill="black" stroke="black" points="309.58,-252.86 299.01,-252.07 306.78,-259.27 309.58,-252.86"/>
</g>
<!-- DTEL&#45;INT4 -->
<g id="node4" class="node">
<title>DTEL&#45;INT4</title>
<g id="a_node4"><a xlink:href="./DTEL_INT4.html" xlink:title="DTEL&#45;INT4">
<polygon fill="none" stroke="green" points="442.39,-252 355.9,-252 355.9,-216 442.39,-216 442.39,-252"/>
<text text-anchor="middle" x="399.14" y="-229.8" font-family="Times,serif" font-size="14.00">DTEL&#45;INT4</text>
</a>
</g>
</g>
<!-- CLAS&#45;CL_ABAP_MATCHER&#45;&gt;DTEL&#45;INT4 -->
<g id="edge4" class="edge">
<title>CLAS&#45;CL_ABAP_MATCHER&#45;&gt;DTEL&#45;INT4</title>
<path fill="none" stroke="black" d="M393.23,-287.7C392.43,-279.98 392.21,-270.71 392.55,-262.11"/>
<polygon fill="black" stroke="black" points="396.04,-262.32 393.25,-252.1 389.06,-261.84 396.04,-262.32"/>
</g>
<!-- CLAS&#45;CL_ABAP_MATCHER&#45;&gt;DTEL&#45;INT4 -->
<g id="edge12" class="edge">
<title>CLAS&#45;CL_ABAP_MATCHER&#45;&gt;DTEL&#45;INT4</title>
<path fill="none" stroke="black" d="M405.06,-287.7C405.86,-279.98 406.08,-270.71 405.74,-262.11"/>
<polygon fill="black" stroke="black" points="409.23,-261.84 405.04,-252.1 402.25,-262.32 409.23,-261.84"/>
</g>
<!-- TABL&#45;MATCH_RESULT -->
<g id="node6" class="node">
<title>TABL&#45;MATCH_RESULT</title>
<g id="a_node6"><a xlink:href="./TABL_MATCH_RESULT.html" xlink:title="TABL&#45;MATCH_RESULT">
<polygon fill="none" stroke="green" points="596.78,-180 429.5,-180 429.5,-144 596.78,-144 596.78,-180"/>
<text text-anchor="middle" x="513.14" y="-157.8" font-family="Times,serif" font-size="14.00">TABL&#45;MATCH_RESULT</text>
</a>
</g>
</g>
<!-- CLAS&#45;CL_ABAP_MATCHER&#45;&gt;TABL&#45;MATCH_RESULT -->
<g id="edge3" class="edge">
<title>CLAS&#45;CL_ABAP_MATCHER&#45;&gt;TABL&#45;MATCH_RESULT</title>
<path fill="none" stroke="black" d="M409.81,-287.55C419.02,-277.54 431.78,-264.5 442.14,-252 459.08,-231.57 476.16,-206.66 489.6,-188.39"/>
<polygon fill="black" stroke="black" points="492.68,-190.11 495.88,-180.01 487.08,-185.91 492.68,-190.11"/>
</g>
<!-- CLAS&#45;CL_ABAP_MATCHER&#45;&gt;TABL&#45;MATCH_RESULT -->
<g id="edge11" class="edge">
<title>CLAS&#45;CL_ABAP_MATCHER&#45;&gt;TABL&#45;MATCH_RESULT</title>
<path fill="none" stroke="black" d="M425.39,-287.79C436.82,-277.75 449.7,-264.6 460.14,-252 476.93,-231.75 493.85,-207.11 504.31,-188.89"/>
<polygon fill="black" stroke="black" points="507.44,-190.47 509.15,-180.01 501.29,-187.11 507.44,-190.47"/>
</g>
<!-- TTYP&#45;MATCH_RESULT_TAB -->
<g id="node9" class="node">
<title>TTYP&#45;MATCH_RESULT_TAB</title>
<g id="a_node9"><a xlink:href="./TTYP_MATCH_RESULT_TAB.html" xlink:title="TTYP&#45;MATCH_RESULT_TAB">
<polygon fill="none" stroke="green" points="717.73,-252 516.56,-252 516.56,-216 717.73,-216 717.73,-252"/>
<text text-anchor="middle" x="617.14" y="-229.8" font-family="Times,serif" font-size="14.00">TTYP&#45;MATCH_RESULT_TAB</text>
</a>
</g>
</g>
<!-- CLAS&#45;CL_ABAP_MATCHER&#45;&gt;TTYP&#45;MATCH_RESULT_TAB -->
<g id="edge2" class="edge">
<title>CLAS&#45;CL_ABAP_MATCHER&#45;&gt;TTYP&#45;MATCH_RESULT_TAB</title>
<path fill="none" stroke="black" d="M446.31,-287.97C476.12,-278.06 515.09,-265.51 548.31,-255.12"/>
<polygon fill="black" stroke="black" points="549.46,-258.43 557.96,-252.11 547.37,-251.75 549.46,-258.43"/>
</g>
<!-- CLAS&#45;CL_ABAP_MATCHER&#45;&gt;TTYP&#45;MATCH_RESULT_TAB -->
<g id="edge10" class="edge">
<title>CLAS&#45;CL_ABAP_MATCHER&#45;&gt;TTYP&#45;MATCH_RESULT_TAB</title>
<path fill="none" stroke="black" d="M458.08,-287.97C489.85,-278.1 528.81,-265.62 560.25,-255.25"/>
<polygon fill="black" stroke="black" points="561.36,-258.58 569.75,-252.11 559.16,-251.93 561.36,-258.58"/>
</g>
<!-- TTYP&#45;STRING_TABLE -->
<g id="node10" class="node">
<title>TTYP&#45;STRING_TABLE</title>
<g id="a_node10"><a xlink:href="./TTYP_STRING_TABLE.html" xlink:title="TTYP&#45;STRING_TABLE">
<polygon fill="none" stroke="green" points="894.45,-252 735.84,-252 735.84,-216 894.45,-216 894.45,-252"/>
<text text-anchor="middle" x="815.14" y="-229.8" font-family="Times,serif" font-size="14.00">TTYP&#45;STRING_TABLE</text>
</a>
</g>
</g>
<!-- CLAS&#45;CL_ABAP_MATCHER&#45;&gt;TTYP&#45;STRING_TABLE -->
<g id="edge1" class="edge">
<title>CLAS&#45;CL_ABAP_MATCHER&#45;&gt;TTYP&#45;STRING_TABLE</title>
<path fill="none" stroke="black" d="M496.37,-288.87C559.6,-278.76 643.74,-265.19 718.14,-252 720.62,-251.56 723.14,-251.11 725.69,-250.65"/>
<polygon fill="black" stroke="black" points="726.4,-254.08 735.6,-248.83 725.13,-247.19 726.4,-254.08"/>
</g>
<!-- CLAS&#45;CL_ABAP_MATCHER&#45;&gt;TTYP&#45;STRING_TABLE -->
<g id="edge9" class="edge">
<title>CLAS&#45;CL_ABAP_MATCHER&#45;&gt;TTYP&#45;STRING_TABLE</title>
<path fill="none" stroke="black" d="M496.54,-291.23C561.15,-281.38 647.95,-267.5 725.74,-253.84"/>
<polygon fill="black" stroke="black" points="726.43,-257.27 735.67,-252.08 725.22,-250.37 726.43,-257.27"/>
</g>
<!-- CLAS&#45;CL_ABAP_REGEX&#45;&gt;CLAS&#45;CL_ABAP_MATCHER -->
<g id="edge7" class="edge">
<title>CLAS&#45;CL_ABAP_REGEX&#45;&gt;CLAS&#45;CL_ABAP_MATCHER</title>
<path fill="none" stroke="black" d="M287.23,-252.07C307.26,-261.54 332.38,-273.42 353.73,-283.52"/>
<polygon fill="black" stroke="black" points="352.4,-286.76 362.94,-287.88 355.4,-280.44 352.4,-286.76"/>
</g>
<!-- CLAS&#45;CL_ABAP_REGEX&#45;&gt;INTF&#45;IF_ABAP_MATCHER_CALLOUT -->
<g id="edge8" class="edge">
<title>CLAS&#45;CL_ABAP_REGEX&#45;&gt;INTF&#45;IF_ABAP_MATCHER_CALLOUT</title>
<path fill="none" stroke="black" d="M221.06,-215.88C204.82,-206.64 184.6,-195.13 167.17,-185.21"/>
<polygon fill="black" stroke="black" points="168.77,-182.09 158.35,-180.19 165.31,-188.18 168.77,-182.09"/>
</g>
<!-- DOMA&#45;INT4 -->
<g id="node5" class="node">
<title>DOMA&#45;INT4</title>
<g id="a_node5"><a xlink:href="./DOMA_INT4.html" xlink:title="DOMA&#45;INT4">
<polygon fill="none" stroke="yellow" points="410.89,-180 317.4,-180 317.4,-144 410.89,-144 410.89,-180"/>
<text text-anchor="middle" x="364.14" y="-157.8" font-family="Times,serif" font-size="14.00">DOMA&#45;INT4</text>
</a>
</g>
</g>
<!-- DTEL&#45;INT4&#45;&gt;DOMA&#45;INT4 -->
<g id="edge15" class="edge">
<title>DTEL&#45;INT4&#45;&gt;DOMA&#45;INT4</title>
<path fill="none" stroke="black" d="M390.49,-215.7C386.51,-207.73 381.69,-198.1 377.28,-189.26"/>
<polygon fill="black" stroke="black" points="380.3,-187.48 372.7,-180.1 374.04,-190.61 380.3,-187.48"/>
</g>
<!-- TTYP&#45;SUBMATCH_RESULT_TAB -->
<g id="node7" class="node">
<title>TTYP&#45;SUBMATCH_RESULT_TAB</title>
<g id="a_node7"><a xlink:href="./TTYP_SUBMATCH_RESULT_TAB.html" xlink:title="TTYP&#45;SUBMATCH_RESULT_TAB">
<polygon fill="none" stroke="green" points="627.45,-108 398.84,-108 398.84,-72 627.45,-72 627.45,-108"/>
<text text-anchor="middle" x="513.14" y="-85.8" font-family="Times,serif" font-size="14.00">TTYP&#45;SUBMATCH_RESULT_TAB</text>
</a>
</g>
</g>
<!-- TABL&#45;MATCH_RESULT&#45;&gt;TTYP&#45;SUBMATCH_RESULT_TAB -->
<g id="edge16" class="edge">
<title>TABL&#45;MATCH_RESULT&#45;&gt;TTYP&#45;SUBMATCH_RESULT_TAB</title>
<path fill="none" stroke="black" d="M513.14,-143.7C513.14,-135.98 513.14,-126.71 513.14,-118.11"/>
<polygon fill="black" stroke="black" points="516.64,-118.1 513.14,-108.1 509.64,-118.1 516.64,-118.1"/>
</g>
<!-- TABL&#45;SUBMATCH_RESULT -->
<g id="node8" class="node">
<title>TABL&#45;SUBMATCH_RESULT</title>
<g id="a_node8"><a xlink:href="./TABL_SUBMATCH_RESULT.html" xlink:title="TABL&#45;SUBMATCH_RESULT">
<polygon fill="none" stroke="green" points="610.51,-36 415.78,-36 415.78,0 610.51,0 610.51,-36"/>
<text text-anchor="middle" x="513.14" y="-13.8" font-family="Times,serif" font-size="14.00">TABL&#45;SUBMATCH_RESULT</text>
</a>
</g>
</g>
<!-- TTYP&#45;SUBMATCH_RESULT_TAB&#45;&gt;TABL&#45;SUBMATCH_RESULT -->
<g id="edge17" class="edge">
<title>TTYP&#45;SUBMATCH_RESULT_TAB&#45;&gt;TABL&#45;SUBMATCH_RESULT</title>
<path fill="none" stroke="black" d="M513.14,-71.7C513.14,-63.98 513.14,-54.71 513.14,-46.11"/>
<polygon fill="black" stroke="black" points="516.64,-46.1 513.14,-36.1 509.64,-46.1 516.64,-46.1"/>
</g>
<!-- TTYP&#45;MATCH_RESULT_TAB&#45;&gt;TABL&#45;MATCH_RESULT -->
<g id="edge18" class="edge">
<title>TTYP&#45;MATCH_RESULT_TAB&#45;&gt;TABL&#45;MATCH_RESULT</title>
<path fill="none" stroke="black" d="M591.7,-215.88C578.36,-206.89 561.82,-195.76 547.37,-186.03"/>
<polygon fill="black" stroke="black" points="548.93,-182.87 538.68,-180.19 545.03,-188.68 548.93,-182.87"/>
</g>
</g>
</svg>
