<?xml version="1.0" encoding="UTF-8" standalone="no"?>
<!DOCTYPE svg PUBLIC "-//W3C//DTD SVG 1.1//EN"
 "http://www.w3.org/Graphics/SVG/1.1/DTD/svg11.dtd">
<!-- Generated by graphviz version 2.47.3 (20210619.1520)
 -->
<!-- Title: G Pages: 1 -->
<svg width="1245pt" height="404pt"
 viewBox="0.00 0.00 1244.83 404.00" xmlns="http://www.w3.org/2000/svg" xmlns:xlink="http://www.w3.org/1999/xlink">
<g id="graph0" class="graph" transform="scale(1 1) rotate(0) translate(4 400)">
<title>G</title>
<polygon fill="white" stroke="transparent" points="-4,4 -4,-400 1240.83,-400 1240.83,4 -4,4"/>
<!-- CLAS&#45;XCO_CP_ARS -->
<g id="node1" class="node">
<title>CLAS&#45;XCO_CP_ARS</title>
<g id="a_node1"><a xlink:href="./CLAS_XCO_CP_ARS.html" xlink:title="CLAS&#45;XCO_CP_ARS">
<polygon fill="none" stroke="green" points="693.83,-396 549.16,-396 549.16,-360 693.83,-360 693.83,-396"/>
<text text-anchor="middle" x="621.49" y="-373.8" font-family="Times,serif" font-size="14.00">CLAS&#45;XCO_CP_ARS</text>
</a>
</g>
</g>
<!-- CLAS&#45;CL_XCO_CP_ARS_API_STATE_FCTRY -->
<g id="node2" class="node">
<title>CLAS&#45;CL_XCO_CP_ARS_API_STATE_FCTRY</title>
<g id="a_node2"><a xlink:href="./CLAS_CL_XCO_CP_ARS_API_STATE_FCTRY.html" xlink:title="CLAS&#45;CL_XCO_CP_ARS_API_STATE_FCTRY">
<polygon fill="none" stroke="green" points="622.43,-324 320.56,-324 320.56,-288 622.43,-288 622.43,-324"/>
<text text-anchor="middle" x="471.49" y="-301.8" font-family="Times,serif" font-size="14.00">CLAS&#45;CL_XCO_CP_ARS_API_STATE_FCTRY</text>
</a>
</g>
</g>
<!-- CLAS&#45;XCO_CP_ARS&#45;&gt;CLAS&#45;CL_XCO_CP_ARS_API_STATE_FCTRY -->
<g id="edge4" class="edge">
<title>CLAS&#45;XCO_CP_ARS&#45;&gt;CLAS&#45;CL_XCO_CP_ARS_API_STATE_FCTRY</title>
<path fill="none" stroke="black" d="M573.01,-359.88C550.98,-350.51 525.64,-338.81 505.61,-328.8"/>
<polygon fill="black" stroke="black" points="507.02,-325.6 496.52,-324.19 503.85,-331.84 507.02,-325.6"/>
</g>
<!-- CLAS&#45;XCO_CP_ARS&#45;&gt;CLAS&#45;CL_XCO_CP_ARS_API_STATE_FCTRY -->
<g id="edge18" class="edge">
<title>CLAS&#45;XCO_CP_ARS&#45;&gt;CLAS&#45;CL_XCO_CP_ARS_API_STATE_FCTRY</title>
<path fill="none" stroke="black" d="M596.59,-359.88C578.09,-350.31 552.6,-338.3 529.32,-328.15"/>
<polygon fill="black" stroke="black" points="530.42,-324.81 519.85,-324.07 527.65,-331.24 530.42,-324.81"/>
</g>
<!-- CLAS&#45;CL_XCO_CP_ARS_VISIBILITY_F -->
<g id="node11" class="node">
<title>CLAS&#45;CL_XCO_CP_ARS_VISIBILITY_F</title>
<g id="a_node11"><a xlink:href="./CLAS_CL_XCO_CP_ARS_VISIBILITY_F.html" xlink:title="CLAS&#45;CL_XCO_CP_ARS_VISIBILITY_F">
<polygon fill="none" stroke="green" points="904.58,-324 640.41,-324 640.41,-288 904.58,-288 904.58,-324"/>
<text text-anchor="middle" x="772.49" y="-301.8" font-family="Times,serif" font-size="14.00">CLAS&#45;CL_XCO_CP_ARS_VISIBILITY_F</text>
</a>
</g>
</g>
<!-- CLAS&#45;XCO_CP_ARS&#45;&gt;CLAS&#45;CL_XCO_CP_ARS_VISIBILITY_F -->
<g id="edge3" class="edge">
<title>CLAS&#45;XCO_CP_ARS&#45;&gt;CLAS&#45;CL_XCO_CP_ARS_VISIBILITY_F</title>
<path fill="none" stroke="black" d="M646.64,-359.88C665.36,-350.26 691.17,-338.19 714.68,-328.01"/>
<polygon fill="black" stroke="black" points="716.08,-331.22 723.89,-324.07 713.32,-324.78 716.08,-331.22"/>
</g>
<!-- CLAS&#45;XCO_CP_ARS&#45;&gt;CLAS&#45;CL_XCO_CP_ARS_VISIBILITY_F -->
<g id="edge17" class="edge">
<title>CLAS&#45;XCO_CP_ARS&#45;&gt;CLAS&#45;CL_XCO_CP_ARS_VISIBILITY_F</title>
<path fill="none" stroke="black" d="M658.43,-359.88C678.98,-350.35 704.75,-338.41 726.58,-328.28"/>
<polygon fill="black" stroke="black" points="728.08,-331.45 735.68,-324.07 725.13,-325.1 728.08,-331.45"/>
</g>
<!-- CLAS&#45;CL_XCO_CP_ARS_RELEASE_STATE_F -->
<g id="node12" class="node">
<title>CLAS&#45;CL_XCO_CP_ARS_RELEASE_STATE_F</title>
<g id="a_node12"><a xlink:href="./CLAS_CL_XCO_CP_ARS_RELEASE_STATE_F.html" xlink:title="CLAS&#45;CL_XCO_CP_ARS_RELEASE_STATE_F">
<polygon fill="none" stroke="green" points="302.98,-324 0.01,-324 0.01,-288 302.98,-288 302.98,-324"/>
<text text-anchor="middle" x="151.49" y="-301.8" font-family="Times,serif" font-size="14.00">CLAS&#45;CL_XCO_CP_ARS_RELEASE_STATE_F</text>
</a>
</g>
</g>
<!-- CLAS&#45;XCO_CP_ARS&#45;&gt;CLAS&#45;CL_XCO_CP_ARS_RELEASE_STATE_F -->
<g id="edge2" class="edge">
<title>CLAS&#45;XCO_CP_ARS&#45;&gt;CLAS&#45;CL_XCO_CP_ARS_RELEASE_STATE_F</title>
<path fill="none" stroke="black" d="M549.3,-367.67C473.25,-356.97 352.85,-339.16 264.31,-325.6"/>
<polygon fill="black" stroke="black" points="264.63,-322.11 254.22,-324.05 263.57,-329.03 264.63,-322.11"/>
</g>
<!-- CLAS&#45;XCO_CP_ARS&#45;&gt;CLAS&#45;CL_XCO_CP_ARS_RELEASE_STATE_F -->
<g id="edge16" class="edge">
<title>CLAS&#45;XCO_CP_ARS&#45;&gt;CLAS&#45;CL_XCO_CP_ARS_RELEASE_STATE_F</title>
<path fill="none" stroke="black" d="M549.09,-366.22C476.44,-355.4 363.13,-338.52 276.03,-325.55"/>
<polygon fill="black" stroke="black" points="276.49,-322.08 266.08,-324.07 275.46,-329 276.49,-322.08"/>
</g>
<!-- CLAS&#45;CL_XCO_CP_ARS_RELEASE_CNTRCT_F -->
<g id="node13" class="node">
<title>CLAS&#45;CL_XCO_CP_ARS_RELEASE_CNTRCT_F</title>
<g id="a_node13"><a xlink:href="./CLAS_CL_XCO_CP_ARS_RELEASE_CNTRCT_F.html" xlink:title="CLAS&#45;CL_XCO_CP_ARS_RELEASE_CNTRCT_F">
<polygon fill="none" stroke="green" points="1236.66,-324 922.33,-324 922.33,-288 1236.66,-288 1236.66,-324"/>
<text text-anchor="middle" x="1079.49" y="-301.8" font-family="Times,serif" font-size="14.00">CLAS&#45;CL_XCO_CP_ARS_RELEASE_CNTRCT_F</text>
</a>
</g>
</g>
<!-- CLAS&#45;XCO_CP_ARS&#45;&gt;CLAS&#45;CL_XCO_CP_ARS_RELEASE_CNTRCT_F -->
<g id="edge1" class="edge">
<title>CLAS&#45;XCO_CP_ARS&#45;&gt;CLAS&#45;CL_XCO_CP_ARS_RELEASE_CNTRCT_F</title>
<path fill="none" stroke="black" d="M693.75,-364.32C761.38,-353.5 863.77,-337.78 946.15,-325.54"/>
<polygon fill="black" stroke="black" points="946.71,-328.99 956.09,-324.06 945.69,-322.07 946.71,-328.99"/>
</g>
<!-- CLAS&#45;XCO_CP_ARS&#45;&gt;CLAS&#45;CL_XCO_CP_ARS_RELEASE_CNTRCT_F -->
<g id="edge15" class="edge">
<title>CLAS&#45;XCO_CP_ARS&#45;&gt;CLAS&#45;CL_XCO_CP_ARS_RELEASE_CNTRCT_F</title>
<path fill="none" stroke="black" d="M693.81,-365.95C764.54,-355.14 873.58,-338.47 957.7,-325.61"/>
<polygon fill="black" stroke="black" points="958.48,-329.04 967.83,-324.07 957.42,-322.12 958.48,-329.04"/>
</g>
<!-- CLAS&#45;CL_XCO_CP_ARS_API_STATE_FCTRY&#45;&gt;CLAS&#45;XCO_CP_ARS -->
<g id="edge6" class="edge">
<title>CLAS&#45;CL_XCO_CP_ARS_API_STATE_FCTRY&#45;&gt;CLAS&#45;XCO_CP_ARS</title>
<path fill="none" stroke="black" d="M508.07,-324.07C528.37,-333.54 553.82,-345.42 575.47,-355.52"/>
<polygon fill="black" stroke="black" points="574.26,-358.82 584.8,-359.88 577.22,-352.48 574.26,-358.82"/>
</g>
<!-- CLAS&#45;CL_XCO_ARS_API_STATE -->
<g id="node3" class="node">
<title>CLAS&#45;CL_XCO_ARS_API_STATE</title>
<g id="a_node3"><a xlink:href="./CLAS_CL_XCO_ARS_API_STATE.html" xlink:title="CLAS&#45;CL_XCO_ARS_API_STATE">
<polygon fill="none" stroke="green" points="523.2,-252 297.79,-252 297.79,-216 523.2,-216 523.2,-252"/>
<text text-anchor="middle" x="410.49" y="-229.8" font-family="Times,serif" font-size="14.00">CLAS&#45;CL_XCO_ARS_API_STATE</text>
</a>
</g>
</g>
<!-- CLAS&#45;CL_XCO_CP_ARS_API_STATE_FCTRY&#45;&gt;CLAS&#45;CL_XCO_ARS_API_STATE -->
<g id="edge7" class="edge">
<title>CLAS&#45;CL_XCO_CP_ARS_API_STATE_FCTRY&#45;&gt;CLAS&#45;CL_XCO_ARS_API_STATE</title>
<path fill="none" stroke="black" d="M456.42,-287.7C449.1,-279.3 440.18,-269.07 432.16,-259.86"/>
<polygon fill="black" stroke="black" points="434.61,-257.34 425.4,-252.1 429.33,-261.94 434.61,-257.34"/>
</g>
<!-- TTYP&#45;SXCO_T_ARS_VISIBILITIES -->
<g id="node7" class="node">
<title>TTYP&#45;SXCO_T_ARS_VISIBILITIES</title>
<g id="a_node7"><a xlink:href="./TTYP_SXCO_T_ARS_VISIBILITIES.html" xlink:title="TTYP&#45;SXCO_T_ARS_VISIBILITIES">
<polygon fill="none" stroke="green" points="718.23,-180 484.76,-180 484.76,-144 718.23,-144 718.23,-180"/>
<text text-anchor="middle" x="601.49" y="-157.8" font-family="Times,serif" font-size="14.00">TTYP&#45;SXCO_T_ARS_VISIBILITIES</text>
</a>
</g>
</g>
<!-- CLAS&#45;CL_XCO_CP_ARS_API_STATE_FCTRY&#45;&gt;TTYP&#45;SXCO_T_ARS_VISIBILITIES -->
<g id="edge5" class="edge">
<title>CLAS&#45;CL_XCO_CP_ARS_API_STATE_FCTRY&#45;&gt;TTYP&#45;SXCO_T_ARS_VISIBILITIES</title>
<path fill="none" stroke="black" d="M493.31,-287.81C505.38,-277.88 520.35,-264.84 532.49,-252 551.43,-231.98 570.43,-207.03 583.68,-188.64"/>
<polygon fill="black" stroke="black" points="586.75,-190.37 589.7,-180.2 581.05,-186.31 586.75,-190.37"/>
</g>
<!-- CLAS&#45;CL_XCO_ARS_RELEASE_STATE -->
<g id="node4" class="node">
<title>CLAS&#45;CL_XCO_ARS_RELEASE_STATE</title>
<g id="a_node4"><a xlink:href="./CLAS_CL_XCO_ARS_RELEASE_STATE.html" xlink:title="CLAS&#45;CL_XCO_ARS_RELEASE_STATE">
<polygon fill="none" stroke="green" points="298.58,-180 34.41,-180 34.41,-144 298.58,-144 298.58,-180"/>
<text text-anchor="middle" x="166.49" y="-157.8" font-family="Times,serif" font-size="14.00">CLAS&#45;CL_XCO_ARS_RELEASE_STATE</text>
</a>
</g>
</g>
<!-- CLAS&#45;CL_XCO_ARS_API_STATE&#45;&gt;CLAS&#45;CL_XCO_ARS_RELEASE_STATE -->
<g id="edge10" class="edge">
<title>CLAS&#45;CL_XCO_ARS_API_STATE&#45;&gt;CLAS&#45;CL_XCO_ARS_RELEASE_STATE</title>
<path fill="none" stroke="black" d="M351.12,-215.97C316.43,-206.01 272.48,-193.41 236.16,-182.99"/>
<polygon fill="black" stroke="black" points="236.72,-179.5 226.14,-180.11 234.78,-186.23 236.72,-179.5"/>
</g>
<!-- CLAS&#45;CL_XCO_ARS_API_STATE&#45;&gt;TTYP&#45;SXCO_T_ARS_VISIBILITIES -->
<g id="edge9" class="edge">
<title>CLAS&#45;CL_XCO_ARS_API_STATE&#45;&gt;TTYP&#45;SXCO_T_ARS_VISIBILITIES</title>
<path fill="none" stroke="black" d="M457.22,-215.88C483.79,-206.14 517.26,-193.87 545.26,-183.61"/>
<polygon fill="black" stroke="black" points="546.74,-186.8 554.92,-180.07 544.33,-180.22 546.74,-186.8"/>
</g>
<!-- DTEL&#45;SFTGL_FT_ID -->
<g id="node9" class="node">
<title>DTEL&#45;SFTGL_FT_ID</title>
<g id="a_node9"><a xlink:href="./DTEL_SFTGL_FT_ID.html" xlink:title="DTEL&#45;SFTGL_FT_ID">
<polygon fill="none" stroke="yellow" points="466.8,-180 322.19,-180 322.19,-144 466.8,-144 466.8,-180"/>
<text text-anchor="middle" x="394.49" y="-157.8" font-family="Times,serif" font-size="14.00">DTEL&#45;SFTGL_FT_ID</text>
</a>
</g>
</g>
<!-- CLAS&#45;CL_XCO_ARS_API_STATE&#45;&gt;DTEL&#45;SFTGL_FT_ID -->
<g id="edge8" class="edge">
<title>CLAS&#45;CL_XCO_ARS_API_STATE&#45;&gt;DTEL&#45;SFTGL_FT_ID</title>
<path fill="none" stroke="black" d="M406.54,-215.7C404.78,-207.98 402.66,-198.71 400.69,-190.11"/>
<polygon fill="black" stroke="black" points="404.04,-189.07 398.4,-180.1 397.22,-190.63 404.04,-189.07"/>
</g>
<!-- DTEL&#45;ARS_RELEASE_STATE -->
<g id="node5" class="node">
<title>DTEL&#45;ARS_RELEASE_STATE</title>
<g id="a_node5"><a xlink:href="./DTEL_ARS_RELEASE_STATE.html" xlink:title="DTEL&#45;ARS_RELEASE_STATE">
<polygon fill="none" stroke="yellow" points="267.63,-108 65.36,-108 65.36,-72 267.63,-72 267.63,-108"/>
<text text-anchor="middle" x="166.49" y="-85.8" font-family="Times,serif" font-size="14.00">DTEL&#45;ARS_RELEASE_STATE</text>
</a>
</g>
</g>
<!-- CLAS&#45;CL_XCO_ARS_RELEASE_STATE&#45;&gt;DTEL&#45;ARS_RELEASE_STATE -->
<g id="edge11" class="edge">
<title>CLAS&#45;CL_XCO_ARS_RELEASE_STATE&#45;&gt;DTEL&#45;ARS_RELEASE_STATE</title>
<path fill="none" stroke="black" d="M166.49,-143.7C166.49,-135.98 166.49,-126.71 166.49,-118.11"/>
<polygon fill="black" stroke="black" points="169.99,-118.1 166.49,-108.1 162.99,-118.1 169.99,-118.1"/>
</g>
<!-- DOMA&#45;ARS_RELEASE_STATE -->
<g id="node6" class="node">
<title>DOMA&#45;ARS_RELEASE_STATE</title>
<g id="a_node6"><a xlink:href="./DOMA_ARS_RELEASE_STATE.html" xlink:title="DOMA&#45;ARS_RELEASE_STATE">
<polygon fill="none" stroke="yellow" points="271.13,-36 61.86,-36 61.86,0 271.13,0 271.13,-36"/>
<text text-anchor="middle" x="166.49" y="-13.8" font-family="Times,serif" font-size="14.00">DOMA&#45;ARS_RELEASE_STATE</text>
</a>
</g>
</g>
<!-- DTEL&#45;ARS_RELEASE_STATE&#45;&gt;DOMA&#45;ARS_RELEASE_STATE -->
<g id="edge12" class="edge">
<title>DTEL&#45;ARS_RELEASE_STATE&#45;&gt;DOMA&#45;ARS_RELEASE_STATE</title>
<path fill="none" stroke="black" d="M166.49,-71.7C166.49,-63.98 166.49,-54.71 166.49,-46.11"/>
<polygon fill="black" stroke="black" points="169.99,-46.1 166.49,-36.1 162.99,-46.1 169.99,-46.1"/>
</g>
<!-- CLAS&#45;CL_XCO_ARS_VISIBILITY -->
<g id="node8" class="node">
<title>CLAS&#45;CL_XCO_ARS_VISIBILITY</title>
<g id="a_node8"><a xlink:href="./CLAS_CL_XCO_ARS_VISIBILITY.html" xlink:title="CLAS&#45;CL_XCO_ARS_VISIBILITY">
<polygon fill="none" stroke="green" points="788.18,-108 562.81,-108 562.81,-72 788.18,-72 788.18,-108"/>
<text text-anchor="middle" x="675.49" y="-85.8" font-family="Times,serif" font-size="14.00">CLAS&#45;CL_XCO_ARS_VISIBILITY</text>
</a>
</g>
</g>
<!-- TTYP&#45;SXCO_T_ARS_VISIBILITIES&#45;&gt;CLAS&#45;CL_XCO_ARS_VISIBILITY -->
<g id="edge13" class="edge">
<title>TTYP&#45;SXCO_T_ARS_VISIBILITIES&#45;&gt;CLAS&#45;CL_XCO_ARS_VISIBILITY</title>
<path fill="none" stroke="black" d="M619.79,-143.7C628.93,-135.05 640.13,-124.45 650.09,-115.03"/>
<polygon fill="black" stroke="black" points="652.55,-117.52 657.41,-108.1 647.74,-112.43 652.55,-117.52"/>
</g>
<!-- DOMA&#45;FTGL_ID -->
<g id="node10" class="node">
<title>DOMA&#45;FTGL_ID</title>
<g id="a_node10"><a xlink:href="./DOMA_FTGL_ID.html" xlink:title="DOMA&#45;FTGL_ID">
<polygon fill="none" stroke="yellow" points="454.68,-108 334.31,-108 334.31,-72 454.68,-72 454.68,-108"/>
<text text-anchor="middle" x="394.49" y="-85.8" font-family="Times,serif" font-size="14.00">DOMA&#45;FTGL_ID</text>
</a>
</g>
</g>
<!-- DTEL&#45;SFTGL_FT_ID&#45;&gt;DOMA&#45;FTGL_ID -->
<g id="edge14" class="edge">
<title>DTEL&#45;SFTGL_FT_ID&#45;&gt;DOMA&#45;FTGL_ID</title>
<path fill="none" stroke="black" d="M394.49,-143.7C394.49,-135.98 394.49,-126.71 394.49,-118.11"/>
<polygon fill="black" stroke="black" points="397.99,-118.1 394.49,-108.1 390.99,-118.1 397.99,-118.1"/>
</g>
<!-- CLAS&#45;CL_XCO_CP_ARS_VISIBILITY_F&#45;&gt;CLAS&#45;XCO_CP_ARS -->
<g id="edge19" class="edge">
<title>CLAS&#45;CL_XCO_CP_ARS_VISIBILITY_F&#45;&gt;CLAS&#45;XCO_CP_ARS</title>
<path fill="none" stroke="black" d="M747.22,-324.19C728.62,-333.73 703.07,-345.69 679.73,-355.81"/>
<polygon fill="black" stroke="black" points="678.04,-352.72 670.23,-359.88 680.8,-359.16 678.04,-352.72"/>
</g>
<!-- CLAS&#45;CL_XCO_CP_ARS_VISIBILITY_F&#45;&gt;CLAS&#45;CL_XCO_ARS_VISIBILITY -->
<g id="edge20" class="edge">
<title>CLAS&#45;CL_XCO_CP_ARS_VISIBILITY_F&#45;&gt;CLAS&#45;CL_XCO_ARS_VISIBILITY</title>
<path fill="none" stroke="black" d="M770.57,-287.93C766.51,-257.3 755.1,-191.74 727.49,-144 721.41,-133.47 712.74,-123.5 704.23,-115.11"/>
<polygon fill="black" stroke="black" points="706.53,-112.48 696.85,-108.17 701.73,-117.57 706.53,-112.48"/>
</g>
<!-- CLAS&#45;CL_XCO_CP_ARS_RELEASE_STATE_F&#45;&gt;CLAS&#45;XCO_CP_ARS -->
<g id="edge21" class="edge">
<title>CLAS&#45;CL_XCO_CP_ARS_RELEASE_STATE_F&#45;&gt;CLAS&#45;XCO_CP_ARS</title>
<path fill="none" stroke="black" d="M277.56,-324.02C360.58,-336.01 466.77,-351.86 539.15,-363.09"/>
<polygon fill="black" stroke="black" points="538.71,-366.57 549.13,-364.65 539.79,-359.65 538.71,-366.57"/>
</g>
<!-- CLAS&#45;CL_XCO_CP_ARS_RELEASE_STATE_F&#45;&gt;CLAS&#45;CL_XCO_ARS_RELEASE_STATE -->
<g id="edge22" class="edge">
<title>CLAS&#45;CL_XCO_CP_ARS_RELEASE_STATE_F&#45;&gt;CLAS&#45;CL_XCO_ARS_RELEASE_STATE</title>
<path fill="none" stroke="black" d="M153.3,-287.87C155.86,-263.67 160.56,-219.21 163.6,-190.39"/>
<polygon fill="black" stroke="black" points="167.11,-190.5 164.68,-180.19 160.15,-189.77 167.11,-190.5"/>
</g>
<!-- CLAS&#45;CL_XCO_CP_ARS_RELEASE_CNTRCT_F&#45;&gt;CLAS&#45;XCO_CP_ARS -->
<g id="edge23" class="edge">
<title>CLAS&#45;CL_XCO_CP_ARS_RELEASE_CNTRCT_F&#45;&gt;CLAS&#45;XCO_CP_ARS</title>
<path fill="none" stroke="black" d="M979.65,-324.06C897.09,-337.1 781.48,-354.69 704.04,-365.94"/>
<polygon fill="black" stroke="black" points="703.25,-362.52 693.85,-367.41 704.25,-369.44 703.25,-362.52"/>
</g>
<!-- CLAS&#45;CL_XCO_ARS_RELEASE_CONTRACT -->
<g id="node14" class="node">
<title>CLAS&#45;CL_XCO_ARS_RELEASE_CONTRACT</title>
<g id="a_node14"><a xlink:href="./CLAS_CL_XCO_ARS_RELEASE_CONTRACT.html" xlink:title="CLAS&#45;CL_XCO_ARS_RELEASE_CONTRACT">
<polygon fill="none" stroke="green" points="1227.47,-252 931.52,-252 931.52,-216 1227.47,-216 1227.47,-252"/>
<text text-anchor="middle" x="1079.49" y="-229.8" font-family="Times,serif" font-size="14.00">CLAS&#45;CL_XCO_ARS_RELEASE_CONTRACT</text>
</a>
</g>
</g>
<!-- CLAS&#45;CL_XCO_CP_ARS_RELEASE_CNTRCT_F&#45;&gt;CLAS&#45;CL_XCO_ARS_RELEASE_CONTRACT -->
<g id="edge24" class="edge">
<title>CLAS&#45;CL_XCO_CP_ARS_RELEASE_CNTRCT_F&#45;&gt;CLAS&#45;CL_XCO_ARS_RELEASE_CONTRACT</title>
<path fill="none" stroke="black" d="M1079.49,-287.7C1079.49,-279.98 1079.49,-270.71 1079.49,-262.11"/>
<polygon fill="black" stroke="black" points="1082.99,-262.1 1079.49,-252.1 1075.99,-262.1 1082.99,-262.1"/>
</g>
<!-- DTEL&#45;ARS_RELEASE_CONTRACT -->
<g id="node15" class="node">
<title>DTEL&#45;ARS_RELEASE_CONTRACT</title>
<g id="a_node15"><a xlink:href="./DTEL_ARS_RELEASE_CONTRACT.html" xlink:title="DTEL&#45;ARS_RELEASE_CONTRACT">
<polygon fill="none" stroke="yellow" points="1196.52,-180 962.47,-180 962.47,-144 1196.52,-144 1196.52,-180"/>
<text text-anchor="middle" x="1079.49" y="-157.8" font-family="Times,serif" font-size="14.00">DTEL&#45;ARS_RELEASE_CONTRACT</text>
</a>
</g>
</g>
<!-- CLAS&#45;CL_XCO_ARS_RELEASE_CONTRACT&#45;&gt;DTEL&#45;ARS_RELEASE_CONTRACT -->
<g id="edge25" class="edge">
<title>CLAS&#45;CL_XCO_ARS_RELEASE_CONTRACT&#45;&gt;DTEL&#45;ARS_RELEASE_CONTRACT</title>
<path fill="none" stroke="black" d="M1079.49,-215.7C1079.49,-207.98 1079.49,-198.71 1079.49,-190.11"/>
<polygon fill="black" stroke="black" points="1082.99,-190.1 1079.49,-180.1 1075.99,-190.1 1082.99,-190.1"/>
</g>
<!-- DOMA&#45;ARS_RELEASE_CONTRACT -->
<g id="node16" class="node">
<title>DOMA&#45;ARS_RELEASE_CONTRACT</title>
<g id="a_node16"><a xlink:href="./DOMA_ARS_RELEASE_CONTRACT.html" xlink:title="DOMA&#45;ARS_RELEASE_CONTRACT">
<polygon fill="none" stroke="yellow" points="1200.02,-108 958.97,-108 958.97,-72 1200.02,-72 1200.02,-108"/>
<text text-anchor="middle" x="1079.49" y="-85.8" font-family="Times,serif" font-size="14.00">DOMA&#45;ARS_RELEASE_CONTRACT</text>
</a>
</g>
</g>
<!-- DTEL&#45;ARS_RELEASE_CONTRACT&#45;&gt;DOMA&#45;ARS_RELEASE_CONTRACT -->
<g id="edge26" class="edge">
<title>DTEL&#45;ARS_RELEASE_CONTRACT&#45;&gt;DOMA&#45;ARS_RELEASE_CONTRACT</title>
<path fill="none" stroke="black" d="M1079.49,-143.7C1079.49,-135.98 1079.49,-126.71 1079.49,-118.11"/>
<polygon fill="black" stroke="black" points="1082.99,-118.1 1079.49,-108.1 1075.99,-118.1 1082.99,-118.1"/>
</g>
</g>
</svg>
