<?xml version="1.0" encoding="UTF-8" standalone="no"?>
<!DOCTYPE svg PUBLIC "-//W3C//DTD SVG 1.1//EN"
 "http://www.w3.org/Graphics/SVG/1.1/DTD/svg11.dtd">
<!-- Generated by graphviz version 2.47.3 (20210619.1520)
 -->
<!-- Title: G Pages: 1 -->
<svg width="1711pt" height="260pt"
 viewBox="0.00 0.00 1711.24 260.00" xmlns="http://www.w3.org/2000/svg" xmlns:xlink="http://www.w3.org/1999/xlink">
<g id="graph0" class="graph" transform="scale(1 1) rotate(0) translate(4 256)">
<title>G</title>
<polygon fill="white" stroke="transparent" points="-4,4 -4,-256 1707.24,-256 1707.24,4 -4,4"/>
<!-- CLAS&#45;CL_RFC_DESTINATION_PROVIDER -->
<g id="node1" class="node">
<title>CLAS&#45;CL_RFC_DESTINATION_PROVIDER</title>
<polygon fill="none" stroke="green" points="938.15,-252 653.02,-252 653.02,-216 938.15,-216 938.15,-252"/>
<text text-anchor="middle" x="795.59" y="-229.8" font-family="Times,serif" font-size="14.00">CLAS&#45;CL_RFC_DESTINATION_PROVIDER</text>
</g>
<!-- INTF&#45;IF_COM_MANAGEMENT -->
<g id="node2" class="node">
<title>INTF&#45;IF_COM_MANAGEMENT</title>
<g id="a_node2"><a xlink:href="./INTF_IF_COM_MANAGEMENT.html" xlink:title="INTF&#45;IF_COM_MANAGEMENT">
<polygon fill="none" stroke="green" points="211.26,-180 -0.09,-180 -0.09,-144 211.26,-144 211.26,-180"/>
<text text-anchor="middle" x="105.59" y="-157.8" font-family="Times,serif" font-size="14.00">INTF&#45;IF_COM_MANAGEMENT</text>
</a>
</g>
</g>
<!-- CLAS&#45;CL_RFC_DESTINATION_PROVIDER&#45;&gt;INTF&#45;IF_COM_MANAGEMENT -->
<g id="edge11" class="edge">
<title>CLAS&#45;CL_RFC_DESTINATION_PROVIDER&#45;&gt;INTF&#45;IF_COM_MANAGEMENT</title>
<path fill="none" stroke="black" d="M653.03,-222.13C538.83,-212.89 374.27,-198.4 221.49,-180.2"/>
<polygon fill="black" stroke="black" points="221.8,-176.71 211.45,-178.99 220.96,-183.66 221.8,-176.71"/>
</g>
<!-- INTF&#45;IF_RFC_DEST -->
<g id="node3" class="node">
<title>INTF&#45;IF_RFC_DEST</title>
<g id="a_node3"><a xlink:href="./INTF_IF_RFC_DEST.html" xlink:title="INTF&#45;IF_RFC_DEST">
<polygon fill="none" stroke="green" points="368.24,-180 228.93,-180 228.93,-144 368.24,-144 368.24,-180"/>
<text text-anchor="middle" x="298.59" y="-157.8" font-family="Times,serif" font-size="14.00">INTF&#45;IF_RFC_DEST</text>
</a>
</g>
</g>
<!-- CLAS&#45;CL_RFC_DESTINATION_PROVIDER&#45;&gt;INTF&#45;IF_RFC_DEST -->
<g id="edge10" class="edge">
<title>CLAS&#45;CL_RFC_DESTINATION_PROVIDER&#45;&gt;INTF&#45;IF_RFC_DEST</title>
<path fill="none" stroke="black" d="M652.82,-217.25C573.1,-207.81 472.1,-194.78 382.59,-180 381.31,-179.79 380.02,-179.57 378.72,-179.35"/>
<polygon fill="black" stroke="black" points="379.1,-175.86 368.64,-177.57 377.88,-182.76 379.1,-175.86"/>
</g>
<!-- DTEL&#45;RFCDEST -->
<g id="node4" class="node">
<title>DTEL&#45;RFCDEST</title>
<g id="a_node4"><a xlink:href="./DTEL_RFCDEST.html" xlink:title="DTEL&#45;RFCDEST">
<polygon fill="none" stroke="green" points="373.46,-108 255.71,-108 255.71,-72 373.46,-72 373.46,-108"/>
<text text-anchor="middle" x="314.59" y="-85.8" font-family="Times,serif" font-size="14.00">DTEL&#45;RFCDEST</text>
</a>
</g>
</g>
<!-- CLAS&#45;CL_RFC_DESTINATION_PROVIDER&#45;&gt;DTEL&#45;RFCDEST -->
<g id="edge4" class="edge">
<title>CLAS&#45;CL_RFC_DESTINATION_PROVIDER&#45;&gt;DTEL&#45;RFCDEST</title>
<path fill="none" stroke="black" d="M652.74,-222.16C563.03,-213.62 456.78,-199.82 415.59,-180 394.62,-169.91 394.94,-159.5 377.59,-144 366.63,-134.21 354.31,-123.74 343.49,-114.71"/>
<polygon fill="black" stroke="black" points="345.49,-111.82 335.56,-108.12 341.02,-117.2 345.49,-111.82"/>
</g>
<!-- DTEL&#45;ABAP_BOOLEAN -->
<g id="node6" class="node">
<title>DTEL&#45;ABAP_BOOLEAN</title>
<g id="a_node6"><a xlink:href="./DTEL_ABAP_BOOLEAN.html" xlink:title="DTEL&#45;ABAP_BOOLEAN">
<polygon fill="none" stroke="green" points="592.21,-180 424.96,-180 424.96,-144 592.21,-144 592.21,-180"/>
<text text-anchor="middle" x="508.59" y="-157.8" font-family="Times,serif" font-size="14.00">DTEL&#45;ABAP_BOOLEAN</text>
</a>
</g>
</g>
<!-- CLAS&#45;CL_RFC_DESTINATION_PROVIDER&#45;&gt;DTEL&#45;ABAP_BOOLEAN -->
<g id="edge9" class="edge">
<title>CLAS&#45;CL_RFC_DESTINATION_PROVIDER&#45;&gt;DTEL&#45;ABAP_BOOLEAN</title>
<path fill="none" stroke="black" d="M725.75,-215.97C684.34,-205.87 631.7,-193.03 588.62,-182.52"/>
<polygon fill="black" stroke="black" points="589.29,-179.08 578.74,-180.11 587.63,-185.88 589.29,-179.08"/>
</g>
<!-- DTEL&#45;CHAR255 -->
<g id="node8" class="node">
<title>DTEL&#45;CHAR255</title>
<g id="a_node8"><a xlink:href="./DTEL_CHAR255.html" xlink:title="DTEL&#45;CHAR255">
<polygon fill="none" stroke="yellow" points="726.9,-180 610.28,-180 610.28,-144 726.9,-144 726.9,-180"/>
<text text-anchor="middle" x="668.59" y="-157.8" font-family="Times,serif" font-size="14.00">DTEL&#45;CHAR255</text>
</a>
</g>
</g>
<!-- CLAS&#45;CL_RFC_DESTINATION_PROVIDER&#45;&gt;DTEL&#45;CHAR255 -->
<g id="edge8" class="edge">
<title>CLAS&#45;CL_RFC_DESTINATION_PROVIDER&#45;&gt;DTEL&#45;CHAR255</title>
<path fill="none" stroke="black" d="M764.52,-215.88C747.76,-206.64 726.88,-195.13 708.89,-185.21"/>
<polygon fill="black" stroke="black" points="710.22,-181.95 699.77,-180.19 706.84,-188.08 710.22,-181.95"/>
</g>
<!-- DTEL&#45;CHAR1 -->
<g id="node10" class="node">
<title>DTEL&#45;CHAR1</title>
<g id="a_node10"><a xlink:href="./DTEL_CHAR1.html" xlink:title="DTEL&#45;CHAR1">
<polygon fill="none" stroke="yellow" points="846.9,-180 744.28,-180 744.28,-144 846.9,-144 846.9,-180"/>
<text text-anchor="middle" x="795.59" y="-157.8" font-family="Times,serif" font-size="14.00">DTEL&#45;CHAR1</text>
</a>
</g>
</g>
<!-- CLAS&#45;CL_RFC_DESTINATION_PROVIDER&#45;&gt;DTEL&#45;CHAR1 -->
<g id="edge7" class="edge">
<title>CLAS&#45;CL_RFC_DESTINATION_PROVIDER&#45;&gt;DTEL&#45;CHAR1</title>
<path fill="none" stroke="black" d="M795.59,-215.7C795.59,-207.98 795.59,-198.71 795.59,-190.11"/>
<polygon fill="black" stroke="black" points="799.09,-190.1 795.59,-180.1 792.09,-190.1 799.09,-190.1"/>
</g>
<!-- DTEL&#45;SRT_WSP_DT_OBJ_NAME -->
<g id="node12" class="node">
<title>DTEL&#45;SRT_WSP_DT_OBJ_NAME</title>
<g id="a_node12"><a xlink:href="./DTEL_SRT_WSP_DT_OBJ_NAME.html" xlink:title="DTEL&#45;SRT_WSP_DT_OBJ_NAME">
<polygon fill="none" stroke="yellow" points="1088.22,-180 864.95,-180 864.95,-144 1088.22,-144 1088.22,-180"/>
<text text-anchor="middle" x="976.59" y="-157.8" font-family="Times,serif" font-size="14.00">DTEL&#45;SRT_WSP_DT_OBJ_NAME</text>
</a>
</g>
</g>
<!-- CLAS&#45;CL_RFC_DESTINATION_PROVIDER&#45;&gt;DTEL&#45;SRT_WSP_DT_OBJ_NAME -->
<g id="edge6" class="edge">
<title>CLAS&#45;CL_RFC_DESTINATION_PROVIDER&#45;&gt;DTEL&#45;SRT_WSP_DT_OBJ_NAME</title>
<path fill="none" stroke="black" d="M839.86,-215.88C864.94,-206.18 896.48,-193.98 922.95,-183.74"/>
<polygon fill="black" stroke="black" points="924.39,-186.94 932.45,-180.07 921.86,-180.41 924.39,-186.94"/>
</g>
<!-- DTEL&#45;UUID -->
<g id="node14" class="node">
<title>DTEL&#45;UUID</title>
<g id="a_node14"><a xlink:href="./DTEL_UUID.html" xlink:title="DTEL&#45;UUID">
<polygon fill="none" stroke="yellow" points="1198.49,-180 1106.68,-180 1106.68,-144 1198.49,-144 1198.49,-180"/>
<text text-anchor="middle" x="1152.59" y="-157.8" font-family="Times,serif" font-size="14.00">DTEL&#45;UUID</text>
</a>
</g>
</g>
<!-- CLAS&#45;CL_RFC_DESTINATION_PROVIDER&#45;&gt;DTEL&#45;UUID -->
<g id="edge5" class="edge">
<title>CLAS&#45;CL_RFC_DESTINATION_PROVIDER&#45;&gt;DTEL&#45;UUID</title>
<path fill="none" stroke="black" d="M912.82,-215.95C966.41,-207.31 1030.81,-195.72 1097.01,-179.98"/>
<polygon fill="black" stroke="black" points="1097.89,-183.37 1106.79,-177.63 1096.25,-176.56 1097.89,-183.37"/>
</g>
<!-- DTEL&#45;BOOLEAN -->
<g id="node16" class="node">
<title>DTEL&#45;BOOLEAN</title>
<g id="a_node16"><a xlink:href="./DTEL_BOOLEAN.html" xlink:title="DTEL&#45;BOOLEAN">
<polygon fill="none" stroke="yellow" points="1339.38,-180 1215.79,-180 1215.79,-144 1339.38,-144 1339.38,-180"/>
<text text-anchor="middle" x="1277.59" y="-157.8" font-family="Times,serif" font-size="14.00">DTEL&#45;BOOLEAN</text>
</a>
</g>
</g>
<!-- CLAS&#45;CL_RFC_DESTINATION_PROVIDER&#45;&gt;DTEL&#45;BOOLEAN -->
<g id="edge3" class="edge">
<title>CLAS&#45;CL_RFC_DESTINATION_PROVIDER&#45;&gt;DTEL&#45;BOOLEAN</title>
<path fill="none" stroke="black" d="M938.24,-218.57C1015.12,-209.85 1111.73,-197.37 1205.85,-180.23"/>
<polygon fill="black" stroke="black" points="1206.63,-183.64 1215.83,-178.39 1205.36,-176.76 1206.63,-183.64"/>
</g>
<!-- DTEL&#45;SVC_INSTANCE_NAME -->
<g id="node18" class="node">
<title>DTEL&#45;SVC_INSTANCE_NAME</title>
<g id="a_node18"><a xlink:href="./DTEL_SVC_INSTANCE_NAME.html" xlink:title="DTEL&#45;SVC_INSTANCE_NAME">
<polygon fill="none" stroke="green" points="1565.65,-180 1357.52,-180 1357.52,-144 1565.65,-144 1565.65,-180"/>
<text text-anchor="middle" x="1461.59" y="-157.8" font-family="Times,serif" font-size="14.00">DTEL&#45;SVC_INSTANCE_NAME</text>
</a>
</g>
</g>
<!-- CLAS&#45;CL_RFC_DESTINATION_PROVIDER&#45;&gt;DTEL&#45;SVC_INSTANCE_NAME -->
<g id="edge2" class="edge">
<title>CLAS&#45;CL_RFC_DESTINATION_PROVIDER&#45;&gt;DTEL&#45;SVC_INSTANCE_NAME</title>
<path fill="none" stroke="black" d="M938.18,-221.46C1047.48,-212.11 1202.29,-197.78 1347.28,-180.13"/>
<polygon fill="black" stroke="black" points="1347.76,-183.59 1357.26,-178.9 1346.9,-176.65 1347.76,-183.59"/>
</g>
<!-- DTEL&#45;CHAR100 -->
<g id="node20" class="node">
<title>DTEL&#45;CHAR100</title>
<g id="a_node20"><a xlink:href="./DTEL_CHAR100.html" xlink:title="DTEL&#45;CHAR100">
<polygon fill="none" stroke="yellow" points="1699.9,-180 1583.28,-180 1583.28,-144 1699.9,-144 1699.9,-180"/>
<text text-anchor="middle" x="1641.59" y="-157.8" font-family="Times,serif" font-size="14.00">DTEL&#45;CHAR100</text>
</a>
</g>
</g>
<!-- CLAS&#45;CL_RFC_DESTINATION_PROVIDER&#45;&gt;DTEL&#45;CHAR100 -->
<g id="edge1" class="edge">
<title>CLAS&#45;CL_RFC_DESTINATION_PROVIDER&#45;&gt;DTEL&#45;CHAR100</title>
<path fill="none" stroke="black" d="M938.25,-231C1092.83,-227.07 1346.65,-215.5 1573.17,-180.06"/>
<polygon fill="black" stroke="black" points="1573.92,-183.48 1583.25,-178.46 1572.83,-176.57 1573.92,-183.48"/>
</g>
<!-- INTF&#45;IF_RFC_DEST&#45;&gt;DTEL&#45;RFCDEST -->
<g id="edge12" class="edge">
<title>INTF&#45;IF_RFC_DEST&#45;&gt;DTEL&#45;RFCDEST</title>
<path fill="none" stroke="black" d="M302.54,-143.7C304.31,-135.98 306.42,-126.71 308.39,-118.11"/>
<polygon fill="black" stroke="black" points="311.86,-118.63 310.68,-108.1 305.04,-117.07 311.86,-118.63"/>
</g>
<!-- DOMA&#45;RFCDEST -->
<g id="node5" class="node">
<title>DOMA&#45;RFCDEST</title>
<g id="a_node5"><a xlink:href="./DOMA_RFCDEST.html" xlink:title="DOMA&#45;RFCDEST">
<polygon fill="none" stroke="yellow" points="376.96,-36 252.21,-36 252.21,0 376.96,0 376.96,-36"/>
<text text-anchor="middle" x="314.59" y="-13.8" font-family="Times,serif" font-size="14.00">DOMA&#45;RFCDEST</text>
</a>
</g>
</g>
<!-- DTEL&#45;RFCDEST&#45;&gt;DOMA&#45;RFCDEST -->
<g id="edge13" class="edge">
<title>DTEL&#45;RFCDEST&#45;&gt;DOMA&#45;RFCDEST</title>
<path fill="none" stroke="black" d="M314.59,-71.7C314.59,-63.98 314.59,-54.71 314.59,-46.11"/>
<polygon fill="black" stroke="black" points="318.09,-46.1 314.59,-36.1 311.09,-46.1 318.09,-46.1"/>
</g>
<!-- DOMA&#45;ABAP_BOOLEAN -->
<g id="node7" class="node">
<title>DOMA&#45;ABAP_BOOLEAN</title>
<g id="a_node7"><a xlink:href="./DOMA_ABAP_BOOLEAN.html" xlink:title="DOMA&#45;ABAP_BOOLEAN">
<polygon fill="none" stroke="green" points="577.71,-108 403.46,-108 403.46,-72 577.71,-72 577.71,-108"/>
<text text-anchor="middle" x="490.59" y="-85.8" font-family="Times,serif" font-size="14.00">DOMA&#45;ABAP_BOOLEAN</text>
</a>
</g>
</g>
<!-- DTEL&#45;ABAP_BOOLEAN&#45;&gt;DOMA&#45;ABAP_BOOLEAN -->
<g id="edge14" class="edge">
<title>DTEL&#45;ABAP_BOOLEAN&#45;&gt;DOMA&#45;ABAP_BOOLEAN</title>
<path fill="none" stroke="black" d="M504.14,-143.7C502.13,-135.9 499.72,-126.51 497.49,-117.83"/>
<polygon fill="black" stroke="black" points="500.87,-116.92 494.99,-108.1 494.09,-118.66 500.87,-116.92"/>
</g>
<!-- DOMA&#45;CHAR255 -->
<g id="node9" class="node">
<title>DOMA&#45;CHAR255</title>
<g id="a_node9"><a xlink:href="./DOMA_CHAR255.html" xlink:title="DOMA&#45;CHAR255">
<polygon fill="none" stroke="yellow" points="719.4,-108 595.78,-108 595.78,-72 719.4,-72 719.4,-108"/>
<text text-anchor="middle" x="657.59" y="-85.8" font-family="Times,serif" font-size="14.00">DOMA&#45;CHAR255</text>
</a>
</g>
</g>
<!-- DTEL&#45;CHAR255&#45;&gt;DOMA&#45;CHAR255 -->
<g id="edge15" class="edge">
<title>DTEL&#45;CHAR255&#45;&gt;DOMA&#45;CHAR255</title>
<path fill="none" stroke="black" d="M665.87,-143.7C664.66,-135.98 663.2,-126.71 661.85,-118.11"/>
<polygon fill="black" stroke="black" points="665.28,-117.44 660.27,-108.1 658.37,-118.53 665.28,-117.44"/>
</g>
<!-- DOMA&#45;CHAR1 -->
<g id="node11" class="node">
<title>DOMA&#45;CHAR1</title>
<g id="a_node11"><a xlink:href="./DOMA_CHAR1.html" xlink:title="DOMA&#45;CHAR1">
<polygon fill="none" stroke="green" points="846.4,-108 736.78,-108 736.78,-72 846.4,-72 846.4,-108"/>
<text text-anchor="middle" x="791.59" y="-85.8" font-family="Times,serif" font-size="14.00">DOMA&#45;CHAR1</text>
</a>
</g>
</g>
<!-- DTEL&#45;CHAR1&#45;&gt;DOMA&#45;CHAR1 -->
<g id="edge16" class="edge">
<title>DTEL&#45;CHAR1&#45;&gt;DOMA&#45;CHAR1</title>
<path fill="none" stroke="black" d="M794.6,-143.7C794.16,-135.98 793.63,-126.71 793.14,-118.11"/>
<polygon fill="black" stroke="black" points="796.63,-117.89 792.56,-108.1 789.64,-118.29 796.63,-117.89"/>
</g>
<!-- DOMA&#45;SRT_WSP_DT_OBJ_NAME -->
<g id="node13" class="node">
<title>DOMA&#45;SRT_WSP_DT_OBJ_NAME</title>
<g id="a_node13"><a xlink:href="./DOMA_SRT_WSP_DT_OBJ_NAME.html" xlink:title="DOMA&#45;SRT_WSP_DT_OBJ_NAME">
<polygon fill="none" stroke="yellow" points="1094.72,-108 864.45,-108 864.45,-72 1094.72,-72 1094.72,-108"/>
<text text-anchor="middle" x="979.59" y="-85.8" font-family="Times,serif" font-size="14.00">DOMA&#45;SRT_WSP_DT_OBJ_NAME</text>
</a>
</g>
</g>
<!-- DTEL&#45;SRT_WSP_DT_OBJ_NAME&#45;&gt;DOMA&#45;SRT_WSP_DT_OBJ_NAME -->
<g id="edge17" class="edge">
<title>DTEL&#45;SRT_WSP_DT_OBJ_NAME&#45;&gt;DOMA&#45;SRT_WSP_DT_OBJ_NAME</title>
<path fill="none" stroke="black" d="M977.33,-143.7C977.66,-135.98 978.06,-126.71 978.43,-118.11"/>
<polygon fill="black" stroke="black" points="981.92,-118.25 978.85,-108.1 974.93,-117.95 981.92,-118.25"/>
</g>
<!-- DOMA&#45;UUID -->
<g id="node15" class="node">
<title>DOMA&#45;UUID</title>
<g id="a_node15"><a xlink:href="./DOMA_UUID.html" xlink:title="DOMA&#45;UUID">
<polygon fill="none" stroke="yellow" points="1211.99,-108 1113.18,-108 1113.18,-72 1211.99,-72 1211.99,-108"/>
<text text-anchor="middle" x="1162.59" y="-85.8" font-family="Times,serif" font-size="14.00">DOMA&#45;UUID</text>
</a>
</g>
</g>
<!-- DTEL&#45;UUID&#45;&gt;DOMA&#45;UUID -->
<g id="edge18" class="edge">
<title>DTEL&#45;UUID&#45;&gt;DOMA&#45;UUID</title>
<path fill="none" stroke="black" d="M1155.06,-143.7C1156.16,-135.98 1157.49,-126.71 1158.71,-118.11"/>
<polygon fill="black" stroke="black" points="1162.19,-118.5 1160.14,-108.1 1155.26,-117.51 1162.19,-118.5"/>
</g>
<!-- DOMA&#45;BOOLEAN -->
<g id="node17" class="node">
<title>DOMA&#45;BOOLEAN</title>
<g id="a_node17"><a xlink:href="./DOMA_BOOLEAN.html" xlink:title="DOMA&#45;BOOLEAN">
<polygon fill="none" stroke="yellow" points="1359.88,-108 1229.29,-108 1229.29,-72 1359.88,-72 1359.88,-108"/>
<text text-anchor="middle" x="1294.59" y="-85.8" font-family="Times,serif" font-size="14.00">DOMA&#45;BOOLEAN</text>
</a>
</g>
</g>
<!-- DTEL&#45;BOOLEAN&#45;&gt;DOMA&#45;BOOLEAN -->
<g id="edge19" class="edge">
<title>DTEL&#45;BOOLEAN&#45;&gt;DOMA&#45;BOOLEAN</title>
<path fill="none" stroke="black" d="M1281.79,-143.7C1283.68,-135.9 1285.96,-126.51 1288.07,-117.83"/>
<polygon fill="black" stroke="black" points="1291.47,-118.65 1290.43,-108.1 1284.67,-117 1291.47,-118.65"/>
</g>
<!-- DOMA&#45;TEXT80 -->
<g id="node19" class="node">
<title>DOMA&#45;TEXT80</title>
<g id="a_node19"><a xlink:href="./DOMA_TEXT80.html" xlink:title="DOMA&#45;TEXT80">
<polygon fill="none" stroke="yellow" points="1518.28,-108 1404.9,-108 1404.9,-72 1518.28,-72 1518.28,-108"/>
<text text-anchor="middle" x="1461.59" y="-85.8" font-family="Times,serif" font-size="14.00">DOMA&#45;TEXT80</text>
</a>
</g>
</g>
<!-- DTEL&#45;SVC_INSTANCE_NAME&#45;&gt;DOMA&#45;TEXT80 -->
<g id="edge20" class="edge">
<title>DTEL&#45;SVC_INSTANCE_NAME&#45;&gt;DOMA&#45;TEXT80</title>
<path fill="none" stroke="black" d="M1461.59,-143.7C1461.59,-135.98 1461.59,-126.71 1461.59,-118.11"/>
<polygon fill="black" stroke="black" points="1465.09,-118.1 1461.59,-108.1 1458.09,-118.1 1465.09,-118.1"/>
</g>
<!-- DOMA&#45;CHAR100 -->
<g id="node21" class="node">
<title>DOMA&#45;CHAR100</title>
<g id="a_node21"><a xlink:href="./DOMA_CHAR100.html" xlink:title="DOMA&#45;CHAR100">
<polygon fill="none" stroke="yellow" points="1703.4,-108 1579.78,-108 1579.78,-72 1703.4,-72 1703.4,-108"/>
<text text-anchor="middle" x="1641.59" y="-85.8" font-family="Times,serif" font-size="14.00">DOMA&#45;CHAR100</text>
</a>
</g>
</g>
<!-- DTEL&#45;CHAR100&#45;&gt;DOMA&#45;CHAR100 -->
<g id="edge21" class="edge">
<title>DTEL&#45;CHAR100&#45;&gt;DOMA&#45;CHAR100</title>
<path fill="none" stroke="black" d="M1641.59,-143.7C1641.59,-135.98 1641.59,-126.71 1641.59,-118.11"/>
<polygon fill="black" stroke="black" points="1645.09,-118.1 1641.59,-108.1 1638.09,-118.1 1645.09,-118.1"/>
</g>
</g>
</svg>
