<?xml version="1.0" encoding="UTF-8" standalone="no"?>
<!DOCTYPE svg PUBLIC "-//W3C//DTD SVG 1.1//EN"
 "http://www.w3.org/Graphics/SVG/1.1/DTD/svg11.dtd">
<!-- Generated by graphviz version 2.47.3 (20210619.1520)
 -->
<!-- Title: G Pages: 1 -->
<svg width="603pt" height="260pt"
 viewBox="0.00 0.00 602.62 260.00" xmlns="http://www.w3.org/2000/svg" xmlns:xlink="http://www.w3.org/1999/xlink">
<g id="graph0" class="graph" transform="scale(1 1) rotate(0) translate(4 256)">
<title>G</title>
<polygon fill="white" stroke="transparent" points="-4,4 -4,-256 598.62,-256 598.62,4 -4,4"/>
<!-- CLAS&#45;CL_RFC_DESTINATION_PROVIDER -->
<g id="node1" class="node">
<title>CLAS&#45;CL_RFC_DESTINATION_PROVIDER</title>
<polygon fill="none" stroke="green" points="441.15,-252 156.02,-252 156.02,-216 441.15,-216 441.15,-252"/>
<text text-anchor="middle" x="298.59" y="-229.8" font-family="Times,serif" font-size="14.00">CLAS&#45;CL_RFC_DESTINATION_PROVIDER</text>
</g>
<!-- INTF&#45;IF_COM_MANAGEMENT -->
<g id="node2" class="node">
<title>INTF&#45;IF_COM_MANAGEMENT</title>
<g id="a_node2"><a xlink:href="./INTF_IF_COM_MANAGEMENT.html" xlink:title="INTF&#45;IF_COM_MANAGEMENT">
<polygon fill="none" stroke="green" points="211.26,-180 -0.09,-180 -0.09,-144 211.26,-144 211.26,-180"/>
<text text-anchor="middle" x="105.59" y="-157.8" font-family="Times,serif" font-size="14.00">INTF&#45;IF_COM_MANAGEMENT</text>
</a>
</g>
</g>
<!-- CLAS&#45;CL_RFC_DESTINATION_PROVIDER&#45;&gt;INTF&#45;IF_COM_MANAGEMENT -->
<g id="edge3" class="edge">
<title>CLAS&#45;CL_RFC_DESTINATION_PROVIDER&#45;&gt;INTF&#45;IF_COM_MANAGEMENT</title>
<path fill="none" stroke="black" d="M251.37,-215.88C224.52,-206.14 190.71,-193.87 162.41,-183.61"/>
<polygon fill="black" stroke="black" points="163.24,-180.19 152.65,-180.07 160.85,-186.77 163.24,-180.19"/>
</g>
<!-- INTF&#45;IF_RFC_DEST -->
<g id="node3" class="node">
<title>INTF&#45;IF_RFC_DEST</title>
<g id="a_node3"><a xlink:href="./INTF_IF_RFC_DEST.html" xlink:title="INTF&#45;IF_RFC_DEST">
<polygon fill="none" stroke="green" points="368.24,-180 228.93,-180 228.93,-144 368.24,-144 368.24,-180"/>
<text text-anchor="middle" x="298.59" y="-157.8" font-family="Times,serif" font-size="14.00">INTF&#45;IF_RFC_DEST</text>
</a>
</g>
</g>
<!-- CLAS&#45;CL_RFC_DESTINATION_PROVIDER&#45;&gt;INTF&#45;IF_RFC_DEST -->
<g id="edge2" class="edge">
<title>CLAS&#45;CL_RFC_DESTINATION_PROVIDER&#45;&gt;INTF&#45;IF_RFC_DEST</title>
<path fill="none" stroke="black" d="M298.59,-215.7C298.59,-207.98 298.59,-198.71 298.59,-190.11"/>
<polygon fill="black" stroke="black" points="302.09,-190.1 298.59,-180.1 295.09,-190.1 302.09,-190.1"/>
</g>
<!-- DTEL&#45;SVC_INSTANCE_NAME -->
<g id="node6" class="node">
<title>DTEL&#45;SVC_INSTANCE_NAME</title>
<g id="a_node6"><a xlink:href="./DTEL_SVC_INSTANCE_NAME.html" xlink:title="DTEL&#45;SVC_INSTANCE_NAME">
<polygon fill="none" stroke="green" points="594.65,-180 386.52,-180 386.52,-144 594.65,-144 594.65,-180"/>
<text text-anchor="middle" x="490.59" y="-157.8" font-family="Times,serif" font-size="14.00">DTEL&#45;SVC_INSTANCE_NAME</text>
</a>
</g>
</g>
<!-- CLAS&#45;CL_RFC_DESTINATION_PROVIDER&#45;&gt;DTEL&#45;SVC_INSTANCE_NAME -->
<g id="edge1" class="edge">
<title>CLAS&#45;CL_RFC_DESTINATION_PROVIDER&#45;&gt;DTEL&#45;SVC_INSTANCE_NAME</title>
<path fill="none" stroke="black" d="M345.56,-215.88C372.27,-206.14 405.91,-193.87 434.06,-183.61"/>
<polygon fill="black" stroke="black" points="435.57,-186.78 443.77,-180.07 433.18,-180.21 435.57,-186.78"/>
</g>
<!-- DTEL&#45;RFCDEST -->
<g id="node4" class="node">
<title>DTEL&#45;RFCDEST</title>
<g id="a_node4"><a xlink:href="./DTEL_RFCDEST.html" xlink:title="DTEL&#45;RFCDEST">
<polygon fill="none" stroke="green" points="357.46,-108 239.71,-108 239.71,-72 357.46,-72 357.46,-108"/>
<text text-anchor="middle" x="298.59" y="-85.8" font-family="Times,serif" font-size="14.00">DTEL&#45;RFCDEST</text>
</a>
</g>
</g>
<!-- INTF&#45;IF_RFC_DEST&#45;&gt;DTEL&#45;RFCDEST -->
<g id="edge4" class="edge">
<title>INTF&#45;IF_RFC_DEST&#45;&gt;DTEL&#45;RFCDEST</title>
<path fill="none" stroke="black" d="M298.59,-143.7C298.59,-135.98 298.59,-126.71 298.59,-118.11"/>
<polygon fill="black" stroke="black" points="302.09,-118.1 298.59,-108.1 295.09,-118.1 302.09,-118.1"/>
</g>
<!-- DOMA&#45;RFCDEST -->
<g id="node5" class="node">
<title>DOMA&#45;RFCDEST</title>
<g id="a_node5"><a xlink:href="./DOMA_RFCDEST.html" xlink:title="DOMA&#45;RFCDEST">
<polygon fill="none" stroke="yellow" points="360.96,-36 236.21,-36 236.21,0 360.96,0 360.96,-36"/>
<text text-anchor="middle" x="298.59" y="-13.8" font-family="Times,serif" font-size="14.00">DOMA&#45;RFCDEST</text>
</a>
</g>
</g>
<!-- DTEL&#45;RFCDEST&#45;&gt;DOMA&#45;RFCDEST -->
<g id="edge5" class="edge">
<title>DTEL&#45;RFCDEST&#45;&gt;DOMA&#45;RFCDEST</title>
<path fill="none" stroke="black" d="M298.59,-71.7C298.59,-63.98 298.59,-54.71 298.59,-46.11"/>
<polygon fill="black" stroke="black" points="302.09,-46.1 298.59,-36.1 295.09,-46.1 302.09,-46.1"/>
</g>
<!-- DOMA&#45;TEXT80 -->
<g id="node7" class="node">
<title>DOMA&#45;TEXT80</title>
<g id="a_node7"><a xlink:href="./DOMA_TEXT80.html" xlink:title="DOMA&#45;TEXT80">
<polygon fill="none" stroke="yellow" points="547.28,-108 433.9,-108 433.9,-72 547.28,-72 547.28,-108"/>
<text text-anchor="middle" x="490.59" y="-85.8" font-family="Times,serif" font-size="14.00">DOMA&#45;TEXT80</text>
</a>
</g>
</g>
<!-- DTEL&#45;SVC_INSTANCE_NAME&#45;&gt;DOMA&#45;TEXT80 -->
<g id="edge6" class="edge">
<title>DTEL&#45;SVC_INSTANCE_NAME&#45;&gt;DOMA&#45;TEXT80</title>
<path fill="none" stroke="black" d="M490.59,-143.7C490.59,-135.98 490.59,-126.71 490.59,-118.11"/>
<polygon fill="black" stroke="black" points="494.09,-118.1 490.59,-108.1 487.09,-118.1 494.09,-118.1"/>
</g>
</g>
</svg>
