<?xml version="1.0" encoding="UTF-8" standalone="no"?>
<!DOCTYPE svg PUBLIC "-//W3C//DTD SVG 1.1//EN"
 "http://www.w3.org/Graphics/SVG/1.1/DTD/svg11.dtd">
<!-- Generated by graphviz version 2.47.3 (20210619.1520)
 -->
<!-- Title: G Pages: 1 -->
<svg width="995pt" height="332pt"
 viewBox="0.00 0.00 995.20 332.00" xmlns="http://www.w3.org/2000/svg" xmlns:xlink="http://www.w3.org/1999/xlink">
<g id="graph0" class="graph" transform="scale(1 1) rotate(0) translate(4 328)">
<title>G</title>
<polygon fill="white" stroke="transparent" points="-4,4 -4,-328 991.2,-328 991.2,4 -4,4"/>
<!-- CLAS&#45;CL_A4C_BC_FACTORY -->
<g id="node1" class="node">
<title>CLAS&#45;CL_A4C_BC_FACTORY</title>
<polygon fill="none" stroke="green" points="815.87,-324 610.33,-324 610.33,-288 815.87,-288 815.87,-324"/>
<text text-anchor="middle" x="713.1" y="-301.8" font-family="Times,serif" font-size="14.00">CLAS&#45;CL_A4C_BC_FACTORY</text>
</g>
<!-- INTF&#45;IF_A4C_BC_HANDLER -->
<g id="node2" class="node">
<title>INTF&#45;IF_A4C_BC_HANDLER</title>
<g id="a_node2"><a xlink:href="./INTF_IF_A4C_BC_HANDLER.html" xlink:title="INTF&#45;IF_A4C_BC_HANDLER">
<polygon fill="none" stroke="green" points="811.79,-252 614.41,-252 614.41,-216 811.79,-216 811.79,-252"/>
<text text-anchor="middle" x="713.1" y="-229.8" font-family="Times,serif" font-size="14.00">INTF&#45;IF_A4C_BC_HANDLER</text>
</a>
</g>
</g>
<!-- CLAS&#45;CL_A4C_BC_FACTORY&#45;&gt;INTF&#45;IF_A4C_BC_HANDLER -->
<g id="edge1" class="edge">
<title>CLAS&#45;CL_A4C_BC_FACTORY&#45;&gt;INTF&#45;IF_A4C_BC_HANDLER</title>
<path fill="none" stroke="black" d="M713.1,-287.7C713.1,-279.98 713.1,-270.71 713.1,-262.11"/>
<polygon fill="black" stroke="black" points="716.6,-262.1 713.1,-252.1 709.6,-262.1 716.6,-262.1"/>
</g>
<!-- TABL&#45;SYMSG -->
<g id="node3" class="node">
<title>TABL&#45;SYMSG</title>
<g id="a_node3"><a xlink:href="./TABL_SYMSG.html" xlink:title="TABL&#45;SYMSG">
<polygon fill="none" stroke="green" points="411.03,-180 305.17,-180 305.17,-144 411.03,-144 411.03,-180"/>
<text text-anchor="middle" x="358.1" y="-157.8" font-family="Times,serif" font-size="14.00">TABL&#45;SYMSG</text>
</a>
</g>
</g>
<!-- INTF&#45;IF_A4C_BC_HANDLER&#45;&gt;TABL&#45;SYMSG -->
<g id="edge5" class="edge">
<title>INTF&#45;IF_A4C_BC_HANDLER&#45;&gt;TABL&#45;SYMSG</title>
<path fill="none" stroke="black" d="M626.71,-215.97C563.11,-203.42 478.1,-186.66 420.89,-175.38"/>
<polygon fill="black" stroke="black" points="421.39,-171.91 410.9,-173.41 420.03,-178.78 421.39,-171.91"/>
</g>
<!-- DTEL&#45;TARSYSTEM -->
<g id="node12" class="node">
<title>DTEL&#45;TARSYSTEM</title>
<g id="a_node12"><a xlink:href="./DTEL_TARSYSTEM.html" xlink:title="DTEL&#45;TARSYSTEM">
<polygon fill="none" stroke="yellow" points="711.74,-180 572.46,-180 572.46,-144 711.74,-144 711.74,-180"/>
<text text-anchor="middle" x="642.1" y="-157.8" font-family="Times,serif" font-size="14.00">DTEL&#45;TARSYSTEM</text>
</a>
</g>
</g>
<!-- INTF&#45;IF_A4C_BC_HANDLER&#45;&gt;DTEL&#45;TARSYSTEM -->
<g id="edge4" class="edge">
<title>INTF&#45;IF_A4C_BC_HANDLER&#45;&gt;DTEL&#45;TARSYSTEM</title>
<path fill="none" stroke="black" d="M695.55,-215.7C686.87,-207.14 676.24,-196.66 666.75,-187.3"/>
<polygon fill="black" stroke="black" points="669.03,-184.63 659.45,-180.1 664.11,-189.62 669.03,-184.63"/>
</g>
<!-- DTEL&#45;TRUSER -->
<g id="node14" class="node">
<title>DTEL&#45;TRUSER</title>
<g id="a_node14"><a xlink:href="./DTEL_TRUSER.html" xlink:title="DTEL&#45;TRUSER">
<polygon fill="none" stroke="yellow" points="841.19,-180 731.01,-180 731.01,-144 841.19,-144 841.19,-180"/>
<text text-anchor="middle" x="786.1" y="-157.8" font-family="Times,serif" font-size="14.00">DTEL&#45;TRUSER</text>
</a>
</g>
</g>
<!-- INTF&#45;IF_A4C_BC_HANDLER&#45;&gt;DTEL&#45;TRUSER -->
<g id="edge3" class="edge">
<title>INTF&#45;IF_A4C_BC_HANDLER&#45;&gt;DTEL&#45;TRUSER</title>
<path fill="none" stroke="black" d="M731.15,-215.7C740.16,-207.05 751.22,-196.45 761.04,-187.03"/>
<polygon fill="black" stroke="black" points="763.47,-189.55 768.26,-180.1 758.62,-184.5 763.47,-189.55"/>
</g>
<!-- DTEL&#45;TRKORR -->
<g id="node16" class="node">
<title>DTEL&#45;TRKORR</title>
<g id="a_node16"><a xlink:href="./DTEL_TRKORR.html" xlink:title="DTEL&#45;TRKORR">
<polygon fill="none" stroke="yellow" points="977.8,-180 864.4,-180 864.4,-144 977.8,-144 977.8,-180"/>
<text text-anchor="middle" x="921.1" y="-157.8" font-family="Times,serif" font-size="14.00">DTEL&#45;TRKORR</text>
</a>
</g>
</g>
<!-- INTF&#45;IF_A4C_BC_HANDLER&#45;&gt;DTEL&#45;TRKORR -->
<g id="edge2" class="edge">
<title>INTF&#45;IF_A4C_BC_HANDLER&#45;&gt;DTEL&#45;TRKORR</title>
<path fill="none" stroke="black" d="M763.72,-215.97C792.91,-206.14 829.79,-193.73 860.52,-183.39"/>
<polygon fill="black" stroke="black" points="861.9,-186.62 870.26,-180.11 859.66,-179.98 861.9,-186.62"/>
</g>
<!-- DTEL&#45;SYMSGV -->
<g id="node4" class="node">
<title>DTEL&#45;SYMSGV</title>
<g id="a_node4"><a xlink:href="./DTEL_SYMSGV.html" xlink:title="DTEL&#45;SYMSGV">
<polygon fill="none" stroke="green" points="131.36,-108 16.85,-108 16.85,-72 131.36,-72 131.36,-108"/>
<text text-anchor="middle" x="74.1" y="-85.8" font-family="Times,serif" font-size="14.00">DTEL&#45;SYMSGV</text>
</a>
</g>
</g>
<!-- TABL&#45;SYMSG&#45;&gt;DTEL&#45;SYMSGV -->
<g id="edge9" class="edge">
<title>TABL&#45;SYMSG&#45;&gt;DTEL&#45;SYMSGV</title>
<path fill="none" stroke="black" d="M305.35,-148C259.03,-136.58 191.4,-119.91 141.24,-107.55"/>
<polygon fill="black" stroke="black" points="142,-104.13 131.45,-105.14 140.32,-110.93 142,-104.13"/>
</g>
<!-- DTEL&#45;SYMSGNO -->
<g id="node6" class="node">
<title>DTEL&#45;SYMSGNO</title>
<g id="a_node6"><a xlink:href="./DTEL_SYMSGNO.html" xlink:title="DTEL&#45;SYMSGNO">
<polygon fill="none" stroke="green" points="280.46,-108 155.74,-108 155.74,-72 280.46,-72 280.46,-108"/>
<text text-anchor="middle" x="218.1" y="-85.8" font-family="Times,serif" font-size="14.00">DTEL&#45;SYMSGNO</text>
</a>
</g>
</g>
<!-- TABL&#45;SYMSG&#45;&gt;DTEL&#45;SYMSGNO -->
<g id="edge8" class="edge">
<title>TABL&#45;SYMSG&#45;&gt;DTEL&#45;SYMSGNO</title>
<path fill="none" stroke="black" d="M323.85,-143.88C305.04,-134.47 281.52,-122.71 261.43,-112.67"/>
<polygon fill="black" stroke="black" points="262.99,-109.53 252.48,-108.19 259.86,-115.79 262.99,-109.53"/>
</g>
<!-- DTEL&#45;SYMSGID -->
<g id="node8" class="node">
<title>DTEL&#45;SYMSGID</title>
<g id="a_node8"><a xlink:href="./DTEL_SYMSGID.html" xlink:title="DTEL&#45;SYMSGID">
<polygon fill="none" stroke="green" points="418.02,-108 298.18,-108 298.18,-72 418.02,-72 418.02,-108"/>
<text text-anchor="middle" x="358.1" y="-85.8" font-family="Times,serif" font-size="14.00">DTEL&#45;SYMSGID</text>
</a>
</g>
</g>
<!-- TABL&#45;SYMSG&#45;&gt;DTEL&#45;SYMSGID -->
<g id="edge7" class="edge">
<title>TABL&#45;SYMSG&#45;&gt;DTEL&#45;SYMSGID</title>
<path fill="none" stroke="black" d="M358.1,-143.7C358.1,-135.98 358.1,-126.71 358.1,-118.11"/>
<polygon fill="black" stroke="black" points="361.6,-118.1 358.1,-108.1 354.6,-118.1 361.6,-118.1"/>
</g>
<!-- DTEL&#45;SYMSGTY -->
<g id="node10" class="node">
<title>DTEL&#45;SYMSGTY</title>
<g id="a_node10"><a xlink:href="./DTEL_SYMSGTY.html" xlink:title="DTEL&#45;SYMSGTY">
<polygon fill="none" stroke="green" points="558.91,-108 435.29,-108 435.29,-72 558.91,-72 558.91,-108"/>
<text text-anchor="middle" x="497.1" y="-85.8" font-family="Times,serif" font-size="14.00">DTEL&#45;SYMSGTY</text>
</a>
</g>
</g>
<!-- TABL&#45;SYMSG&#45;&gt;DTEL&#45;SYMSGTY -->
<g id="edge6" class="edge">
<title>TABL&#45;SYMSG&#45;&gt;DTEL&#45;SYMSGTY</title>
<path fill="none" stroke="black" d="M392.1,-143.88C410.7,-134.51 433.93,-122.81 453.81,-112.8"/>
<polygon fill="black" stroke="black" points="455.61,-115.81 462.97,-108.19 452.46,-109.56 455.61,-115.81"/>
</g>
<!-- DOMA&#45;SYCHAR50 -->
<g id="node5" class="node">
<title>DOMA&#45;SYCHAR50</title>
<g id="a_node5"><a xlink:href="./DOMA_SYCHAR50.html" xlink:title="DOMA&#45;SYCHAR50">
<polygon fill="none" stroke="yellow" points="134.3,-36 -0.1,-36 -0.1,0 134.3,0 134.3,-36"/>
<text text-anchor="middle" x="67.1" y="-13.8" font-family="Times,serif" font-size="14.00">DOMA&#45;SYCHAR50</text>
</a>
</g>
</g>
<!-- DTEL&#45;SYMSGV&#45;&gt;DOMA&#45;SYCHAR50 -->
<g id="edge10" class="edge">
<title>DTEL&#45;SYMSGV&#45;&gt;DOMA&#45;SYCHAR50</title>
<path fill="none" stroke="black" d="M72.37,-71.7C71.6,-63.98 70.67,-54.71 69.81,-46.11"/>
<polygon fill="black" stroke="black" points="73.29,-45.71 68.81,-36.1 66.32,-46.4 73.29,-45.71"/>
</g>
<!-- DOMA&#45;SYMSGNO -->
<g id="node7" class="node">
<title>DOMA&#45;SYMSGNO</title>
<g id="a_node7"><a xlink:href="./DOMA_SYMSGNO.html" xlink:title="DOMA&#45;SYMSGNO">
<polygon fill="none" stroke="yellow" points="283.96,-36 152.24,-36 152.24,0 283.96,0 283.96,-36"/>
<text text-anchor="middle" x="218.1" y="-13.8" font-family="Times,serif" font-size="14.00">DOMA&#45;SYMSGNO</text>
</a>
</g>
</g>
<!-- DTEL&#45;SYMSGNO&#45;&gt;DOMA&#45;SYMSGNO -->
<g id="edge11" class="edge">
<title>DTEL&#45;SYMSGNO&#45;&gt;DOMA&#45;SYMSGNO</title>
<path fill="none" stroke="black" d="M218.1,-71.7C218.1,-63.98 218.1,-54.71 218.1,-46.11"/>
<polygon fill="black" stroke="black" points="221.6,-46.1 218.1,-36.1 214.6,-46.1 221.6,-46.1"/>
</g>
<!-- DOMA&#45;ARBGB -->
<g id="node9" class="node">
<title>DOMA&#45;ARBGB</title>
<g id="a_node9"><a xlink:href="./DOMA_ARBGB.html" xlink:title="DOMA&#45;ARBGB">
<polygon fill="none" stroke="yellow" points="413.75,-36 302.45,-36 302.45,0 413.75,0 413.75,-36"/>
<text text-anchor="middle" x="358.1" y="-13.8" font-family="Times,serif" font-size="14.00">DOMA&#45;ARBGB</text>
</a>
</g>
</g>
<!-- DTEL&#45;SYMSGID&#45;&gt;DOMA&#45;ARBGB -->
<g id="edge12" class="edge">
<title>DTEL&#45;SYMSGID&#45;&gt;DOMA&#45;ARBGB</title>
<path fill="none" stroke="black" d="M358.1,-71.7C358.1,-63.98 358.1,-54.71 358.1,-46.11"/>
<polygon fill="black" stroke="black" points="361.6,-46.1 358.1,-36.1 354.6,-46.1 361.6,-46.1"/>
</g>
<!-- DOMA&#45;SYCHAR01 -->
<g id="node11" class="node">
<title>DOMA&#45;SYCHAR01</title>
<g id="a_node11"><a xlink:href="./DOMA_SYCHAR01.html" xlink:title="DOMA&#45;SYCHAR01">
<polygon fill="none" stroke="yellow" points="566.3,-36 431.9,-36 431.9,0 566.3,0 566.3,-36"/>
<text text-anchor="middle" x="499.1" y="-13.8" font-family="Times,serif" font-size="14.00">DOMA&#45;SYCHAR01</text>
</a>
</g>
</g>
<!-- DTEL&#45;SYMSGTY&#45;&gt;DOMA&#45;SYCHAR01 -->
<g id="edge13" class="edge">
<title>DTEL&#45;SYMSGTY&#45;&gt;DOMA&#45;SYCHAR01</title>
<path fill="none" stroke="black" d="M497.59,-71.7C497.82,-63.98 498.08,-54.71 498.33,-46.11"/>
<polygon fill="black" stroke="black" points="501.82,-46.2 498.61,-36.1 494.83,-46 501.82,-46.2"/>
</g>
<!-- DOMA&#45;SYSNAME -->
<g id="node13" class="node">
<title>DOMA&#45;SYSNAME</title>
<g id="a_node13"><a xlink:href="./DOMA_SYSNAME.html" xlink:title="DOMA&#45;SYSNAME">
<polygon fill="none" stroke="yellow" points="707.41,-108 576.79,-108 576.79,-72 707.41,-72 707.41,-108"/>
<text text-anchor="middle" x="642.1" y="-85.8" font-family="Times,serif" font-size="14.00">DOMA&#45;SYSNAME</text>
</a>
</g>
</g>
<!-- DTEL&#45;TARSYSTEM&#45;&gt;DOMA&#45;SYSNAME -->
<g id="edge14" class="edge">
<title>DTEL&#45;TARSYSTEM&#45;&gt;DOMA&#45;SYSNAME</title>
<path fill="none" stroke="black" d="M642.1,-143.7C642.1,-135.98 642.1,-126.71 642.1,-118.11"/>
<polygon fill="black" stroke="black" points="645.6,-118.1 642.1,-108.1 638.6,-118.1 645.6,-118.1"/>
</g>
<!-- DOMA&#45;AS4USER -->
<g id="node15" class="node">
<title>DOMA&#45;AS4USER</title>
<g id="a_node15"><a xlink:href="./DOMA_AS4USER.html" xlink:title="DOMA&#45;AS4USER">
<polygon fill="none" stroke="yellow" points="849.19,-108 725.01,-108 725.01,-72 849.19,-72 849.19,-108"/>
<text text-anchor="middle" x="787.1" y="-85.8" font-family="Times,serif" font-size="14.00">DOMA&#45;AS4USER</text>
</a>
</g>
</g>
<!-- DTEL&#45;TRUSER&#45;&gt;DOMA&#45;AS4USER -->
<g id="edge15" class="edge">
<title>DTEL&#45;TRUSER&#45;&gt;DOMA&#45;AS4USER</title>
<path fill="none" stroke="black" d="M786.35,-143.7C786.46,-135.98 786.59,-126.71 786.71,-118.11"/>
<polygon fill="black" stroke="black" points="790.21,-118.15 786.86,-108.1 783.21,-118.05 790.21,-118.15"/>
</g>
<!-- DOMA&#45;TRKORR -->
<g id="node17" class="node">
<title>DOMA&#45;TRKORR</title>
<g id="a_node17"><a xlink:href="./DOMA_TRKORR.html" xlink:title="DOMA&#45;TRKORR">
<polygon fill="none" stroke="yellow" points="987.3,-108 866.9,-108 866.9,-72 987.3,-72 987.3,-108"/>
<text text-anchor="middle" x="927.1" y="-85.8" font-family="Times,serif" font-size="14.00">DOMA&#45;TRKORR</text>
</a>
</g>
</g>
<!-- DTEL&#45;TRKORR&#45;&gt;DOMA&#45;TRKORR -->
<g id="edge16" class="edge">
<title>DTEL&#45;TRKORR&#45;&gt;DOMA&#45;TRKORR</title>
<path fill="none" stroke="black" d="M922.58,-143.7C923.24,-135.98 924.04,-126.71 924.78,-118.11"/>
<polygon fill="black" stroke="black" points="928.27,-118.37 925.63,-108.1 921.29,-117.77 928.27,-118.37"/>
</g>
</g>
</svg>
