<?xml version="1.0" encoding="UTF-8" standalone="no"?>
<!DOCTYPE svg PUBLIC "-//W3C//DTD SVG 1.1//EN"
 "http://www.w3.org/Graphics/SVG/1.1/DTD/svg11.dtd">
<!-- Generated by graphviz version 2.47.3 (20210619.1520)
 -->
<!-- Title: G Pages: 1 -->
<svg width="731pt" height="476pt"
 viewBox="0.00 0.00 730.64 476.00" xmlns="http://www.w3.org/2000/svg" xmlns:xlink="http://www.w3.org/1999/xlink">
<g id="graph0" class="graph" transform="scale(1 1) rotate(0) translate(4 472)">
<title>G</title>
<polygon fill="white" stroke="transparent" points="-4,4 -4,-472 726.64,-472 726.64,4 -4,4"/>
<!-- CLAS&#45;XCO_CP_JSON -->
<g id="node1" class="node">
<title>CLAS&#45;XCO_CP_JSON</title>
<polygon fill="none" stroke="green" points="386.27,-468 236.17,-468 236.17,-432 386.27,-432 386.27,-468"/>
<text text-anchor="middle" x="311.22" y="-445.8" font-family="Times,serif" font-size="14.00">CLAS&#45;XCO_CP_JSON</text>
</g>
<!-- INTF&#45;IF_XCO_CP_JSON_TRNSFRMTN_FCTRY -->
<g id="node2" class="node">
<title>INTF&#45;IF_XCO_CP_JSON_TRNSFRMTN_FCTRY</title>
<g id="a_node2"><a xlink:href="./INTF_IF_XCO_CP_JSON_TRNSFRMTN_FCTRY.html" xlink:title="INTF&#45;IF_XCO_CP_JSON_TRNSFRMTN_FCTRY">
<polygon fill="none" stroke="green" points="308.65,-396 -0.22,-396 -0.22,-360 308.65,-360 308.65,-396"/>
<text text-anchor="middle" x="154.22" y="-373.8" font-family="Times,serif" font-size="14.00">INTF&#45;IF_XCO_CP_JSON_TRNSFRMTN_FCTRY</text>
</a>
</g>
</g>
<!-- CLAS&#45;XCO_CP_JSON&#45;&gt;INTF&#45;IF_XCO_CP_JSON_TRNSFRMTN_FCTRY -->
<g id="edge2" class="edge">
<title>CLAS&#45;XCO_CP_JSON&#45;&gt;INTF&#45;IF_XCO_CP_JSON_TRNSFRMTN_FCTRY</title>
<path fill="none" stroke="black" d="M272.81,-431.88C251.35,-422.31 224.42,-410.3 201.65,-400.15"/>
<polygon fill="black" stroke="black" points="203.06,-396.94 192.5,-396.07 200.21,-403.34 203.06,-396.94"/>
</g>
<!-- INTF&#45;IF_XCO_CP_JSON_DATA_FACTORY -->
<g id="node8" class="node">
<title>INTF&#45;IF_XCO_CP_JSON_DATA_FACTORY</title>
<g id="a_node8"><a xlink:href="./INTF_IF_XCO_CP_JSON_DATA_FACTORY.html" xlink:title="INTF&#45;IF_XCO_CP_JSON_DATA_FACTORY">
<polygon fill="none" stroke="green" points="609.73,-396 326.7,-396 326.7,-360 609.73,-360 609.73,-396"/>
<text text-anchor="middle" x="468.22" y="-373.8" font-family="Times,serif" font-size="14.00">INTF&#45;IF_XCO_CP_JSON_DATA_FACTORY</text>
</a>
</g>
</g>
<!-- CLAS&#45;XCO_CP_JSON&#45;&gt;INTF&#45;IF_XCO_CP_JSON_DATA_FACTORY -->
<g id="edge1" class="edge">
<title>CLAS&#45;XCO_CP_JSON&#45;&gt;INTF&#45;IF_XCO_CP_JSON_DATA_FACTORY</title>
<path fill="none" stroke="black" d="M349.62,-431.88C371.09,-422.31 398.01,-410.3 420.78,-400.15"/>
<polygon fill="black" stroke="black" points="422.23,-403.34 429.93,-396.07 419.38,-396.94 422.23,-403.34"/>
</g>
<!-- INTF&#45;IF_XCO_JSON_TRANSFORMATION -->
<g id="node3" class="node">
<title>INTF&#45;IF_XCO_JSON_TRANSFORMATION</title>
<g id="a_node3"><a xlink:href="./INTF_IF_XCO_JSON_TRANSFORMATION.html" xlink:title="INTF&#45;IF_XCO_JSON_TRANSFORMATION">
<polygon fill="none" stroke="green" points="365,-108 87.43,-108 87.43,-72 365,-72 365,-108"/>
<text text-anchor="middle" x="226.22" y="-85.8" font-family="Times,serif" font-size="14.00">INTF&#45;IF_XCO_JSON_TRANSFORMATION</text>
</a>
</g>
</g>
<!-- INTF&#45;IF_XCO_CP_JSON_TRNSFRMTN_FCTRY&#45;&gt;INTF&#45;IF_XCO_JSON_TRANSFORMATION -->
<g id="edge4" class="edge">
<title>INTF&#45;IF_XCO_CP_JSON_TRNSFRMTN_FCTRY&#45;&gt;INTF&#45;IF_XCO_JSON_TRANSFORMATION</title>
<path fill="none" stroke="black" d="M104.65,-359.85C88.52,-351.64 72.42,-340.01 63.22,-324 39.29,-282.39 52.19,-262.72 63.22,-216 71.44,-181.18 73.07,-168.42 99.22,-144 114.08,-130.12 133.1,-119.61 151.87,-111.76"/>
<polygon fill="black" stroke="black" points="153.33,-114.95 161.34,-108.01 150.75,-108.44 153.33,-114.95"/>
</g>
<!-- TTYP&#45;SXCO_T_JSON_NAME_MAPPING -->
<g id="node6" class="node">
<title>TTYP&#45;SXCO_T_JSON_NAME_MAPPING</title>
<g id="a_node6"><a xlink:href="./TTYP_SXCO_T_JSON_NAME_MAPPING.html" xlink:title="TTYP&#45;SXCO_T_JSON_NAME_MAPPING">
<polygon fill="none" stroke="green" points="339.9,-324 72.53,-324 72.53,-288 339.9,-288 339.9,-324"/>
<text text-anchor="middle" x="206.22" y="-301.8" font-family="Times,serif" font-size="14.00">TTYP&#45;SXCO_T_JSON_NAME_MAPPING</text>
</a>
</g>
</g>
<!-- INTF&#45;IF_XCO_CP_JSON_TRNSFRMTN_FCTRY&#45;&gt;TTYP&#45;SXCO_T_JSON_NAME_MAPPING -->
<g id="edge3" class="edge">
<title>INTF&#45;IF_XCO_CP_JSON_TRNSFRMTN_FCTRY&#45;&gt;TTYP&#45;SXCO_T_JSON_NAME_MAPPING</title>
<path fill="none" stroke="black" d="M167.07,-359.7C173.24,-351.39 180.75,-341.28 187.54,-332.14"/>
<polygon fill="black" stroke="black" points="190.36,-334.22 193.51,-324.1 184.74,-330.04 190.36,-334.22"/>
</g>
<!-- INTF&#45;IF_XCO_JSON_TREE_VISITOR -->
<g id="node4" class="node">
<title>INTF&#45;IF_XCO_JSON_TREE_VISITOR</title>
<g id="a_node4"><a xlink:href="./INTF_IF_XCO_JSON_TREE_VISITOR.html" xlink:title="INTF&#45;IF_XCO_JSON_TREE_VISITOR">
<polygon fill="none" stroke="green" points="587.11,-36 341.32,-36 341.32,0 587.11,0 587.11,-36"/>
<text text-anchor="middle" x="464.22" y="-13.8" font-family="Times,serif" font-size="14.00">INTF&#45;IF_XCO_JSON_TREE_VISITOR</text>
</a>
</g>
</g>
<!-- INTF&#45;IF_XCO_JSON_TRANSFORMATION&#45;&gt;INTF&#45;IF_XCO_JSON_TREE_VISITOR -->
<g id="edge6" class="edge">
<title>INTF&#45;IF_XCO_JSON_TRANSFORMATION&#45;&gt;INTF&#45;IF_XCO_JSON_TREE_VISITOR</title>
<path fill="none" stroke="black" d="M284.13,-71.97C317.97,-62.01 360.83,-49.41 396.26,-38.99"/>
<polygon fill="black" stroke="black" points="397.43,-42.29 406.04,-36.11 395.46,-35.57 397.43,-42.29"/>
</g>
<!-- INTF&#45;IF_XCO_JSON_TREE_BUILDER -->
<g id="node5" class="node">
<title>INTF&#45;IF_XCO_JSON_TREE_BUILDER</title>
<g id="a_node5"><a xlink:href="./INTF_IF_XCO_JSON_TREE_BUILDER.html" xlink:title="INTF&#45;IF_XCO_JSON_TREE_BUILDER">
<polygon fill="none" stroke="green" points="323.56,-36 72.87,-36 72.87,0 323.56,0 323.56,-36"/>
<text text-anchor="middle" x="198.22" y="-13.8" font-family="Times,serif" font-size="14.00">INTF&#45;IF_XCO_JSON_TREE_BUILDER</text>
</a>
</g>
</g>
<!-- INTF&#45;IF_XCO_JSON_TRANSFORMATION&#45;&gt;INTF&#45;IF_XCO_JSON_TREE_BUILDER -->
<g id="edge5" class="edge">
<title>INTF&#45;IF_XCO_JSON_TRANSFORMATION&#45;&gt;INTF&#45;IF_XCO_JSON_TREE_BUILDER</title>
<path fill="none" stroke="black" d="M219.29,-71.7C216.14,-63.81 212.34,-54.3 208.83,-45.55"/>
<polygon fill="black" stroke="black" points="212.02,-44.09 205.06,-36.1 205.52,-46.69 212.02,-44.09"/>
</g>
<!-- TABL&#45;SXCO_S_JSON_NAME_MAPPING -->
<g id="node7" class="node">
<title>TABL&#45;SXCO_S_JSON_NAME_MAPPING</title>
<g id="a_node7"><a xlink:href="./TABL_SXCO_S_JSON_NAME_MAPPING.html" xlink:title="TABL&#45;SXCO_S_JSON_NAME_MAPPING">
<polygon fill="none" stroke="green" points="340.18,-252 72.25,-252 72.25,-216 340.18,-216 340.18,-252"/>
<text text-anchor="middle" x="206.22" y="-229.8" font-family="Times,serif" font-size="14.00">TABL&#45;SXCO_S_JSON_NAME_MAPPING</text>
</a>
</g>
</g>
<!-- TTYP&#45;SXCO_T_JSON_NAME_MAPPING&#45;&gt;TABL&#45;SXCO_S_JSON_NAME_MAPPING -->
<g id="edge7" class="edge">
<title>TTYP&#45;SXCO_T_JSON_NAME_MAPPING&#45;&gt;TABL&#45;SXCO_S_JSON_NAME_MAPPING</title>
<path fill="none" stroke="black" d="M206.22,-287.7C206.22,-279.98 206.22,-270.71 206.22,-262.11"/>
<polygon fill="black" stroke="black" points="209.72,-262.1 206.22,-252.1 202.72,-262.1 209.72,-262.1"/>
</g>
<!-- INTF&#45;IF_XCO_CP_JSON_DATA -->
<g id="node9" class="node">
<title>INTF&#45;IF_XCO_CP_JSON_DATA</title>
<g id="a_node9"><a xlink:href="./INTF_IF_XCO_CP_JSON_DATA.html" xlink:title="INTF&#45;IF_XCO_CP_JSON_DATA">
<polygon fill="none" stroke="green" points="569.9,-252 358.53,-252 358.53,-216 569.9,-216 569.9,-252"/>
<text text-anchor="middle" x="464.22" y="-229.8" font-family="Times,serif" font-size="14.00">INTF&#45;IF_XCO_CP_JSON_DATA</text>
</a>
</g>
</g>
<!-- INTF&#45;IF_XCO_CP_JSON_DATA_FACTORY&#45;&gt;INTF&#45;IF_XCO_CP_JSON_DATA -->
<g id="edge9" class="edge">
<title>INTF&#45;IF_XCO_CP_JSON_DATA_FACTORY&#45;&gt;INTF&#45;IF_XCO_CP_JSON_DATA</title>
<path fill="none" stroke="black" d="M453.89,-359.57C446.77,-349.76 438.91,-336.92 435.22,-324 430.82,-308.62 431.25,-303.5 435.22,-288 437.59,-278.7 441.98,-269.27 446.63,-261"/>
<polygon fill="black" stroke="black" points="449.76,-262.59 451.91,-252.22 443.76,-258.99 449.76,-262.59"/>
</g>
<!-- INTF&#45;IF_XCO_CP_JSON_DATA_BUILDER -->
<g id="node11" class="node">
<title>INTF&#45;IF_XCO_CP_JSON_DATA_BUILDER</title>
<g id="a_node11"><a xlink:href="./INTF_IF_XCO_CP_JSON_DATA_BUILDER.html" xlink:title="INTF&#45;IF_XCO_CP_JSON_DATA_BUILDER">
<polygon fill="none" stroke="green" points="722.56,-324 443.88,-324 443.88,-288 722.56,-288 722.56,-324"/>
<text text-anchor="middle" x="583.22" y="-301.8" font-family="Times,serif" font-size="14.00">INTF&#45;IF_XCO_CP_JSON_DATA_BUILDER</text>
</a>
</g>
</g>
<!-- INTF&#45;IF_XCO_CP_JSON_DATA_FACTORY&#45;&gt;INTF&#45;IF_XCO_CP_JSON_DATA_BUILDER -->
<g id="edge8" class="edge">
<title>INTF&#45;IF_XCO_CP_JSON_DATA_FACTORY&#45;&gt;INTF&#45;IF_XCO_CP_JSON_DATA_BUILDER</title>
<path fill="none" stroke="black" d="M496.35,-359.88C511.38,-350.72 530.08,-339.34 546.28,-329.48"/>
<polygon fill="black" stroke="black" points="548.25,-332.38 554.98,-324.19 544.61,-326.4 548.25,-332.38"/>
</g>
<!-- INTF&#45;IF_XCO_CP_JSON_DATA&#45;&gt;INTF&#45;IF_XCO_JSON_TREE_VISITOR -->
<g id="edge11" class="edge">
<title>INTF&#45;IF_XCO_CP_JSON_DATA&#45;&gt;INTF&#45;IF_XCO_JSON_TREE_VISITOR</title>
<path fill="none" stroke="black" d="M464.22,-215.85C464.22,-178.83 464.22,-91.18 464.22,-46.39"/>
<polygon fill="black" stroke="black" points="467.72,-46.23 464.22,-36.23 460.72,-46.23 467.72,-46.23"/>
</g>
<!-- TTYP&#45;SXCO_T_JSON_TRANSFORMATIONS -->
<g id="node10" class="node">
<title>TTYP&#45;SXCO_T_JSON_TRANSFORMATIONS</title>
<g id="a_node10"><a xlink:href="./TTYP_SXCO_T_JSON_TRANSFORMATIONS.html" xlink:title="TTYP&#45;SXCO_T_JSON_TRANSFORMATIONS">
<polygon fill="none" stroke="green" points="400.57,-180 107.86,-180 107.86,-144 400.57,-144 400.57,-180"/>
<text text-anchor="middle" x="254.22" y="-157.8" font-family="Times,serif" font-size="14.00">TTYP&#45;SXCO_T_JSON_TRANSFORMATIONS</text>
</a>
</g>
</g>
<!-- INTF&#45;IF_XCO_CP_JSON_DATA&#45;&gt;TTYP&#45;SXCO_T_JSON_TRANSFORMATIONS -->
<g id="edge10" class="edge">
<title>INTF&#45;IF_XCO_CP_JSON_DATA&#45;&gt;TTYP&#45;SXCO_T_JSON_TRANSFORMATIONS</title>
<path fill="none" stroke="black" d="M413.11,-215.97C383.64,-206.14 346.4,-193.73 315.38,-183.39"/>
<polygon fill="black" stroke="black" points="316.14,-179.95 305.55,-180.11 313.93,-186.59 316.14,-179.95"/>
</g>
<!-- TTYP&#45;SXCO_T_JSON_TRANSFORMATIONS&#45;&gt;INTF&#45;IF_XCO_JSON_TRANSFORMATION -->
<g id="edge12" class="edge">
<title>TTYP&#45;SXCO_T_JSON_TRANSFORMATIONS&#45;&gt;INTF&#45;IF_XCO_JSON_TRANSFORMATION</title>
<path fill="none" stroke="black" d="M247.29,-143.7C244.14,-135.81 240.34,-126.3 236.83,-117.55"/>
<polygon fill="black" stroke="black" points="240.02,-116.09 233.06,-108.1 233.52,-118.69 240.02,-116.09"/>
</g>
<!-- INTF&#45;IF_XCO_CP_JSON_DATA_BUILDER&#45;&gt;INTF&#45;IF_XCO_CP_JSON_DATA -->
<g id="edge13" class="edge">
<title>INTF&#45;IF_XCO_CP_JSON_DATA_BUILDER&#45;&gt;INTF&#45;IF_XCO_CP_JSON_DATA</title>
<path fill="none" stroke="black" d="M554.11,-287.88C538.55,-278.72 519.2,-267.34 502.44,-257.48"/>
<polygon fill="black" stroke="black" points="503.83,-254.24 493.44,-252.19 500.28,-260.28 503.83,-254.24"/>
</g>
</g>
</svg>
