<?xml version="1.0" encoding="UTF-8" standalone="no"?>
<!DOCTYPE svg PUBLIC "-//W3C//DTD SVG 1.1//EN"
 "http://www.w3.org/Graphics/SVG/1.1/DTD/svg11.dtd">
<!-- Generated by graphviz version 2.47.3 (20210619.1520)
 -->
<!-- Title: G Pages: 1 -->
<svg width="363pt" height="260pt"
 viewBox="0.00 0.00 362.57 260.00" xmlns="http://www.w3.org/2000/svg" xmlns:xlink="http://www.w3.org/1999/xlink">
<g id="graph0" class="graph" transform="scale(1 1) rotate(0) translate(4 256)">
<title>G</title>
<polygon fill="white" stroke="transparent" points="-4,4 -4,-256 358.57,-256 358.57,4 -4,4"/>
<!-- CLAS&#45;CL_ABAP_RANDOM_PACKED_DEC2 -->
<g id="node1" class="node">
<title>CLAS&#45;CL_ABAP_RANDOM_PACKED_DEC2</title>
<polygon fill="none" stroke="green" points="347.79,-252 55.07,-252 55.07,-216 347.79,-216 347.79,-252"/>
<text text-anchor="middle" x="201.43" y="-229.8" font-family="Times,serif" font-size="14.00">CLAS&#45;CL_ABAP_RANDOM_PACKED_DEC2</text>
</g>
<!-- CLAS&#45;CL_ABAP_RANDOM_PACKED -->
<g id="node2" class="node">
<title>CLAS&#45;CL_ABAP_RANDOM_PACKED</title>
<g id="a_node2"><a xlink:href="./CLAS_CL_ABAP_RANDOM_PACKED.html" xlink:title="CLAS&#45;CL_ABAP_RANDOM_PACKED">
<polygon fill="none" stroke="green" points="250.79,-180 0.07,-180 0.07,-144 250.79,-144 250.79,-180"/>
<text text-anchor="middle" x="125.43" y="-157.8" font-family="Times,serif" font-size="14.00">CLAS&#45;CL_ABAP_RANDOM_PACKED</text>
</a>
</g>
</g>
<!-- CLAS&#45;CL_ABAP_RANDOM_PACKED_DEC2&#45;&gt;CLAS&#45;CL_ABAP_RANDOM_PACKED -->
<g id="edge2" class="edge">
<title>CLAS&#45;CL_ABAP_RANDOM_PACKED_DEC2&#45;&gt;CLAS&#45;CL_ABAP_RANDOM_PACKED</title>
<path fill="none" stroke="black" d="M182.64,-215.7C173.26,-207.05 161.75,-196.45 151.52,-187.03"/>
<polygon fill="black" stroke="black" points="153.73,-184.3 144,-180.1 148.98,-189.45 153.73,-184.3"/>
</g>
<!-- INTF&#45;IF_SERIALIZABLE_OBJECT -->
<g id="node4" class="node">
<title>INTF&#45;IF_SERIALIZABLE_OBJECT</title>
<g id="a_node4"><a xlink:href="./INTF_IF_SERIALIZABLE_OBJECT.html" xlink:title="INTF&#45;IF_SERIALIZABLE_OBJECT">
<polygon fill="none" stroke="green" points="354.72,-36 126.14,-36 126.14,0 354.72,0 354.72,-36"/>
<text text-anchor="middle" x="240.43" y="-13.8" font-family="Times,serif" font-size="14.00">INTF&#45;IF_SERIALIZABLE_OBJECT</text>
</a>
</g>
</g>
<!-- CLAS&#45;CL_ABAP_RANDOM_PACKED_DEC2&#45;&gt;INTF&#45;IF_SERIALIZABLE_OBJECT -->
<g id="edge1" class="edge">
<title>CLAS&#45;CL_ABAP_RANDOM_PACKED_DEC2&#45;&gt;INTF&#45;IF_SERIALIZABLE_OBJECT</title>
<path fill="none" stroke="black" d="M228.77,-215.77C240.54,-206.72 253.05,-194.48 259.43,-180 278.88,-135.89 263.8,-78.73 251.68,-45.73"/>
<polygon fill="black" stroke="black" points="254.92,-44.39 248.06,-36.31 248.38,-46.9 254.92,-44.39"/>
</g>
<!-- CLAS&#45;CL_ABAP_RANDOM -->
<g id="node3" class="node">
<title>CLAS&#45;CL_ABAP_RANDOM</title>
<g id="a_node3"><a xlink:href="./CLAS_CL_ABAP_RANDOM.html" xlink:title="CLAS&#45;CL_ABAP_RANDOM">
<polygon fill="none" stroke="green" points="212.3,-108 24.56,-108 24.56,-72 212.3,-72 212.3,-108"/>
<text text-anchor="middle" x="118.43" y="-85.8" font-family="Times,serif" font-size="14.00">CLAS&#45;CL_ABAP_RANDOM</text>
</a>
</g>
</g>
<!-- CLAS&#45;CL_ABAP_RANDOM_PACKED&#45;&gt;CLAS&#45;CL_ABAP_RANDOM -->
<g id="edge4" class="edge">
<title>CLAS&#45;CL_ABAP_RANDOM_PACKED&#45;&gt;CLAS&#45;CL_ABAP_RANDOM</title>
<path fill="none" stroke="black" d="M123.7,-143.7C122.93,-135.98 122,-126.71 121.14,-118.11"/>
<polygon fill="black" stroke="black" points="124.62,-117.71 120.14,-108.1 117.65,-118.4 124.62,-117.71"/>
</g>
<!-- CLAS&#45;CL_ABAP_RANDOM_PACKED&#45;&gt;INTF&#45;IF_SERIALIZABLE_OBJECT -->
<g id="edge3" class="edge">
<title>CLAS&#45;CL_ABAP_RANDOM_PACKED&#45;&gt;INTF&#45;IF_SERIALIZABLE_OBJECT</title>
<path fill="none" stroke="black" d="M174.29,-143.95C191.58,-135.63 209.63,-123.9 221.43,-108 234.63,-90.2 239.07,-65.19 240.39,-46.22"/>
<polygon fill="black" stroke="black" points="243.89,-46.25 240.84,-36.11 236.9,-45.94 243.89,-46.25"/>
</g>
<!-- CLAS&#45;CL_ABAP_RANDOM&#45;&gt;INTF&#45;IF_SERIALIZABLE_OBJECT -->
<g id="edge5" class="edge">
<title>CLAS&#45;CL_ABAP_RANDOM&#45;&gt;INTF&#45;IF_SERIALIZABLE_OBJECT</title>
<path fill="none" stroke="black" d="M148.27,-71.88C164.37,-62.64 184.43,-51.13 201.72,-41.21"/>
<polygon fill="black" stroke="black" points="203.54,-44.2 210.47,-36.19 200.06,-38.13 203.54,-44.2"/>
</g>
</g>
</svg>
