<?xml version="1.0" encoding="UTF-8" standalone="no"?>
<!DOCTYPE svg PUBLIC "-//W3C//DTD SVG 1.1//EN"
 "http://www.w3.org/Graphics/SVG/1.1/DTD/svg11.dtd">
<!-- Generated by graphviz version 2.47.3 (20210619.1520)
 -->
<!-- Title: G Pages: 1 -->
<svg width="1330pt" height="476pt"
 viewBox="0.00 0.00 1329.80 476.00" xmlns="http://www.w3.org/2000/svg" xmlns:xlink="http://www.w3.org/1999/xlink">
<g id="graph0" class="graph" transform="scale(1 1) rotate(0) translate(4 472)">
<title>G</title>
<polygon fill="white" stroke="transparent" points="-4,4 -4,-472 1325.8,-472 1325.8,4 -4,4"/>
<!-- CLAS&#45;CL_A4C_CP_SERVICE_FACTORY_INT -->
<g id="node1" class="node">
<title>CLAS&#45;CL_A4C_CP_SERVICE_FACTORY_INT</title>
<polygon fill="none" stroke="yellow" points="1190.07,-468 890.34,-468 890.34,-432 1190.07,-432 1190.07,-468"/>
<text text-anchor="middle" x="1040.2" y="-445.8" font-family="Times,serif" font-size="14.00">CLAS&#45;CL_A4C_CP_SERVICE_FACTORY_INT</text>
</g>
<!-- INTF&#45;IF_A4C_CP_SERVICE -->
<g id="node2" class="node">
<title>INTF&#45;IF_A4C_CP_SERVICE</title>
<g id="a_node2"><a xlink:href="./INTF_IF_A4C_CP_SERVICE.html" xlink:title="INTF&#45;IF_A4C_CP_SERVICE">
<polygon fill="none" stroke="green" points="459.8,-396 272.61,-396 272.61,-360 459.8,-360 459.8,-396"/>
<text text-anchor="middle" x="366.2" y="-373.8" font-family="Times,serif" font-size="14.00">INTF&#45;IF_A4C_CP_SERVICE</text>
</a>
</g>
</g>
<!-- CLAS&#45;CL_A4C_CP_SERVICE_FACTORY_INT&#45;&gt;INTF&#45;IF_A4C_CP_SERVICE -->
<g id="edge3" class="edge">
<title>CLAS&#45;CL_A4C_CP_SERVICE_FACTORY_INT&#45;&gt;INTF&#45;IF_A4C_CP_SERVICE</title>
<path fill="none" stroke="black" d="M890.2,-433.42C762.56,-420.16 582.54,-401.47 470.19,-389.8"/>
<polygon fill="black" stroke="black" points="470.52,-386.32 460.21,-388.76 469.79,-393.28 470.52,-386.32"/>
</g>
<!-- DTEL&#45;SYSUUID_X16 -->
<g id="node14" class="node">
<title>DTEL&#45;SYSUUID_X16</title>
<g id="a_node14"><a xlink:href="./DTEL_SYSUUID_X16.html" xlink:title="DTEL&#45;SYSUUID_X16">
<polygon fill="none" stroke="green" points="1244.39,-252 1096.02,-252 1096.02,-216 1244.39,-216 1244.39,-252"/>
<text text-anchor="middle" x="1170.2" y="-229.8" font-family="Times,serif" font-size="14.00">DTEL&#45;SYSUUID_X16</text>
</a>
</g>
</g>
<!-- CLAS&#45;CL_A4C_CP_SERVICE_FACTORY_INT&#45;&gt;DTEL&#45;SYSUUID_X16 -->
<g id="edge2" class="edge">
<title>CLAS&#45;CL_A4C_CP_SERVICE_FACTORY_INT&#45;&gt;DTEL&#45;SYSUUID_X16</title>
<path fill="none" stroke="black" d="M1037.24,-431.83C1032.76,-400.17 1027.82,-331.82 1059.2,-288 1068.93,-274.41 1083.09,-264.18 1098.05,-256.52"/>
<polygon fill="black" stroke="black" points="1099.9,-259.52 1107.44,-252.08 1096.9,-253.19 1099.9,-259.52"/>
</g>
<!-- DTEL&#45;A4C_CP_SVC_MANAGED_BY -->
<g id="node18" class="node">
<title>DTEL&#45;A4C_CP_SVC_MANAGED_BY</title>
<g id="a_node18"><a xlink:href="./DTEL_A4C_CP_SVC_MANAGED_BY.html" xlink:title="DTEL&#45;A4C_CP_SVC_MANAGED_BY">
<polygon fill="none" stroke="yellow" points="1316.39,-396 1070.02,-396 1070.02,-360 1316.39,-360 1316.39,-396"/>
<text text-anchor="middle" x="1193.2" y="-373.8" font-family="Times,serif" font-size="14.00">DTEL&#45;A4C_CP_SVC_MANAGED_BY</text>
</a>
</g>
</g>
<!-- CLAS&#45;CL_A4C_CP_SERVICE_FACTORY_INT&#45;&gt;DTEL&#45;A4C_CP_SVC_MANAGED_BY -->
<g id="edge1" class="edge">
<title>CLAS&#45;CL_A4C_CP_SERVICE_FACTORY_INT&#45;&gt;DTEL&#45;A4C_CP_SVC_MANAGED_BY</title>
<path fill="none" stroke="black" d="M1077.63,-431.88C1098.45,-422.35 1124.56,-410.41 1146.68,-400.28"/>
<polygon fill="black" stroke="black" points="1148.26,-403.41 1155.9,-396.07 1145.35,-397.05 1148.26,-403.41"/>
</g>
<!-- INTF&#45;IF_WEB_HTTP_CLIENT -->
<g id="node3" class="node">
<title>INTF&#45;IF_WEB_HTTP_CLIENT</title>
<g id="a_node3"><a xlink:href="./INTF_IF_WEB_HTTP_CLIENT.html" xlink:title="INTF&#45;IF_WEB_HTTP_CLIENT">
<polygon fill="none" stroke="green" points="466.77,-324 265.64,-324 265.64,-288 466.77,-288 466.77,-324"/>
<text text-anchor="middle" x="366.2" y="-301.8" font-family="Times,serif" font-size="14.00">INTF&#45;IF_WEB_HTTP_CLIENT</text>
</a>
</g>
</g>
<!-- INTF&#45;IF_A4C_CP_SERVICE&#45;&gt;INTF&#45;IF_WEB_HTTP_CLIENT -->
<g id="edge6" class="edge">
<title>INTF&#45;IF_A4C_CP_SERVICE&#45;&gt;INTF&#45;IF_WEB_HTTP_CLIENT</title>
<path fill="none" stroke="black" d="M360.29,-359.7C359.49,-351.98 359.26,-342.71 359.61,-334.11"/>
<polygon fill="black" stroke="black" points="363.1,-334.32 360.31,-324.1 356.12,-333.84 363.1,-334.32"/>
</g>
<!-- TABL&#45;TSA4C_CP_SVC_CONN_DETAILS -->
<g id="node8" class="node">
<title>TABL&#45;TSA4C_CP_SVC_CONN_DETAILS</title>
<g id="a_node8"><a xlink:href="./TABL_TSA4C_CP_SVC_CONN_DETAILS.html" xlink:title="TABL&#45;TSA4C_CP_SVC_CONN_DETAILS">
<polygon fill="none" stroke="green" points="883.51,-324 612.9,-324 612.9,-288 883.51,-288 883.51,-324"/>
<text text-anchor="middle" x="748.2" y="-301.8" font-family="Times,serif" font-size="14.00">TABL&#45;TSA4C_CP_SVC_CONN_DETAILS</text>
</a>
</g>
</g>
<!-- INTF&#45;IF_A4C_CP_SERVICE&#45;&gt;TABL&#45;TSA4C_CP_SVC_CONN_DETAILS -->
<g id="edge5" class="edge">
<title>INTF&#45;IF_A4C_CP_SERVICE&#45;&gt;TABL&#45;TSA4C_CP_SVC_CONN_DETAILS</title>
<path fill="none" stroke="black" d="M459.16,-359.97C515.42,-349.66 587.26,-336.49 645.24,-325.87"/>
<polygon fill="black" stroke="black" points="645.95,-329.3 655.16,-324.05 644.69,-322.41 645.95,-329.3"/>
</g>
<!-- DTEL&#45;UUID -->
<g id="node16" class="node">
<title>DTEL&#45;UUID</title>
<g id="a_node16"><a xlink:href="./DTEL_UUID.html" xlink:title="DTEL&#45;UUID">
<polygon fill="none" stroke="yellow" points="172.11,-324 80.3,-324 80.3,-288 172.11,-288 172.11,-324"/>
<text text-anchor="middle" x="126.2" y="-301.8" font-family="Times,serif" font-size="14.00">DTEL&#45;UUID</text>
</a>
</g>
</g>
<!-- INTF&#45;IF_A4C_CP_SERVICE&#45;&gt;DTEL&#45;UUID -->
<g id="edge4" class="edge">
<title>INTF&#45;IF_A4C_CP_SERVICE&#45;&gt;DTEL&#45;UUID</title>
<path fill="none" stroke="black" d="M307.8,-359.97C269.46,-348.78 219.61,-334.25 181.85,-323.23"/>
<polygon fill="black" stroke="black" points="182.61,-319.81 172.03,-320.37 180.65,-326.53 182.61,-319.81"/>
</g>
<!-- INTF&#45;IF_WEB_HTTP_CLIENT&#45;&gt;INTF&#45;IF_A4C_CP_SERVICE -->
<g id="edge9" class="edge">
<title>INTF&#45;IF_WEB_HTTP_CLIENT&#45;&gt;INTF&#45;IF_A4C_CP_SERVICE</title>
<path fill="none" stroke="black" d="M372.1,-324.1C372.9,-331.79 373.14,-341.05 372.81,-349.67"/>
<polygon fill="black" stroke="black" points="369.31,-349.48 372.12,-359.7 376.29,-349.96 369.31,-349.48"/>
</g>
<!-- INTF&#45;IF_WEB_HTTP_REQUEST -->
<g id="node4" class="node">
<title>INTF&#45;IF_WEB_HTTP_REQUEST</title>
<g id="a_node4"><a xlink:href="./INTF_IF_WEB_HTTP_REQUEST.html" xlink:title="INTF&#45;IF_WEB_HTTP_REQUEST">
<polygon fill="none" stroke="green" points="404.5,-180 189.91,-180 189.91,-144 404.5,-144 404.5,-180"/>
<text text-anchor="middle" x="297.2" y="-157.8" font-family="Times,serif" font-size="14.00">INTF&#45;IF_WEB_HTTP_REQUEST</text>
</a>
</g>
</g>
<!-- INTF&#45;IF_WEB_HTTP_CLIENT&#45;&gt;INTF&#45;IF_WEB_HTTP_REQUEST -->
<g id="edge8" class="edge">
<title>INTF&#45;IF_WEB_HTTP_CLIENT&#45;&gt;INTF&#45;IF_WEB_HTTP_REQUEST</title>
<path fill="none" stroke="black" d="M365.27,-287.67C363.65,-269.02 359.24,-238.94 347.2,-216 341.71,-205.54 333.57,-195.65 325.45,-187.32"/>
<polygon fill="black" stroke="black" points="327.67,-184.6 318.06,-180.13 322.79,-189.61 327.67,-184.6"/>
</g>
<!-- INTF&#45;IF_WEB_HTTP_RESPONSE -->
<g id="node7" class="node">
<title>INTF&#45;IF_WEB_HTTP_RESPONSE</title>
<g id="a_node7"><a xlink:href="./INTF_IF_WEB_HTTP_RESPONSE.html" xlink:title="INTF&#45;IF_WEB_HTTP_RESPONSE">
<polygon fill="none" stroke="green" points="338.01,-252 116.4,-252 116.4,-216 338.01,-216 338.01,-252"/>
<text text-anchor="middle" x="227.2" y="-229.8" font-family="Times,serif" font-size="14.00">INTF&#45;IF_WEB_HTTP_RESPONSE</text>
</a>
</g>
</g>
<!-- INTF&#45;IF_WEB_HTTP_CLIENT&#45;&gt;INTF&#45;IF_WEB_HTTP_RESPONSE -->
<g id="edge7" class="edge">
<title>INTF&#45;IF_WEB_HTTP_CLIENT&#45;&gt;INTF&#45;IF_WEB_HTTP_RESPONSE</title>
<path fill="none" stroke="black" d="M332.2,-287.88C313.6,-278.51 290.38,-266.81 270.5,-256.8"/>
<polygon fill="black" stroke="black" points="271.84,-253.56 261.34,-252.19 268.69,-259.81 271.84,-253.56"/>
</g>
<!-- DTEL&#45;INT4 -->
<g id="node5" class="node">
<title>DTEL&#45;INT4</title>
<g id="a_node5"><a xlink:href="./DTEL_INT4.html" xlink:title="DTEL&#45;INT4">
<polygon fill="none" stroke="green" points="340.45,-108 253.96,-108 253.96,-72 340.45,-72 340.45,-108"/>
<text text-anchor="middle" x="297.2" y="-85.8" font-family="Times,serif" font-size="14.00">DTEL&#45;INT4</text>
</a>
</g>
</g>
<!-- INTF&#45;IF_WEB_HTTP_REQUEST&#45;&gt;DTEL&#45;INT4 -->
<g id="edge10" class="edge">
<title>INTF&#45;IF_WEB_HTTP_REQUEST&#45;&gt;DTEL&#45;INT4</title>
<path fill="none" stroke="black" d="M297.2,-143.7C297.2,-135.98 297.2,-126.71 297.2,-118.11"/>
<polygon fill="black" stroke="black" points="300.7,-118.1 297.2,-108.1 293.7,-118.1 300.7,-118.1"/>
</g>
<!-- DOMA&#45;INT4 -->
<g id="node6" class="node">
<title>DOMA&#45;INT4</title>
<g id="a_node6"><a xlink:href="./DOMA_INT4.html" xlink:title="DOMA&#45;INT4">
<polygon fill="none" stroke="yellow" points="343.95,-36 250.46,-36 250.46,0 343.95,0 343.95,-36"/>
<text text-anchor="middle" x="297.2" y="-13.8" font-family="Times,serif" font-size="14.00">DOMA&#45;INT4</text>
</a>
</g>
</g>
<!-- DTEL&#45;INT4&#45;&gt;DOMA&#45;INT4 -->
<g id="edge11" class="edge">
<title>DTEL&#45;INT4&#45;&gt;DOMA&#45;INT4</title>
<path fill="none" stroke="black" d="M297.2,-71.7C297.2,-63.98 297.2,-54.71 297.2,-46.11"/>
<polygon fill="black" stroke="black" points="300.7,-46.1 297.2,-36.1 293.7,-46.1 300.7,-46.1"/>
</g>
<!-- INTF&#45;IF_WEB_HTTP_RESPONSE&#45;&gt;INTF&#45;IF_WEB_HTTP_REQUEST -->
<g id="edge12" class="edge">
<title>INTF&#45;IF_WEB_HTTP_RESPONSE&#45;&gt;INTF&#45;IF_WEB_HTTP_REQUEST</title>
<path fill="none" stroke="black" d="M244.51,-215.7C253.07,-207.14 263.55,-196.66 272.9,-187.3"/>
<polygon fill="black" stroke="black" points="275.5,-189.65 280.1,-180.1 270.55,-184.7 275.5,-189.65"/>
</g>
<!-- DTEL&#45;OA2C_CONFIGURATION -->
<g id="node9" class="node">
<title>DTEL&#45;OA2C_CONFIGURATION</title>
<g id="a_node9"><a xlink:href="./DTEL_OA2C_CONFIGURATION.html" xlink:title="DTEL&#45;OA2C_CONFIGURATION">
<polygon fill="none" stroke="yellow" points="1077.75,-252 862.65,-252 862.65,-216 1077.75,-216 1077.75,-252"/>
<text text-anchor="middle" x="970.2" y="-229.8" font-family="Times,serif" font-size="14.00">DTEL&#45;OA2C_CONFIGURATION</text>
</a>
</g>
</g>
<!-- TABL&#45;TSA4C_CP_SVC_CONN_DETAILS&#45;&gt;DTEL&#45;OA2C_CONFIGURATION -->
<g id="edge16" class="edge">
<title>TABL&#45;TSA4C_CP_SVC_CONN_DETAILS&#45;&gt;DTEL&#45;OA2C_CONFIGURATION</title>
<path fill="none" stroke="black" d="M802.23,-287.97C833.65,-278.06 873.43,-265.51 906.39,-255.12"/>
<polygon fill="black" stroke="black" points="907.45,-258.46 915.94,-252.11 905.35,-251.78 907.45,-258.46"/>
</g>
<!-- DTEL&#45;A4C_CP_SVC_AUTHN_TYPE -->
<g id="node11" class="node">
<title>DTEL&#45;A4C_CP_SVC_AUTHN_TYPE</title>
<g id="a_node11"><a xlink:href="./DTEL_A4C_CP_SVC_AUTHN_TYPE.html" xlink:title="DTEL&#45;A4C_CP_SVC_AUTHN_TYPE">
<polygon fill="none" stroke="yellow" points="633.89,-252 394.52,-252 394.52,-216 633.89,-216 633.89,-252"/>
<text text-anchor="middle" x="514.2" y="-229.8" font-family="Times,serif" font-size="14.00">DTEL&#45;A4C_CP_SVC_AUTHN_TYPE</text>
</a>
</g>
</g>
<!-- TABL&#45;TSA4C_CP_SVC_CONN_DETAILS&#45;&gt;DTEL&#45;A4C_CP_SVC_AUTHN_TYPE -->
<g id="edge15" class="edge">
<title>TABL&#45;TSA4C_CP_SVC_CONN_DETAILS&#45;&gt;DTEL&#45;A4C_CP_SVC_AUTHN_TYPE</title>
<path fill="none" stroke="black" d="M691.26,-287.97C658,-278.01 615.85,-265.41 581.02,-254.99"/>
<polygon fill="black" stroke="black" points="581.99,-251.62 571.4,-252.11 579.98,-258.33 581.99,-251.62"/>
</g>
<!-- DTEL&#45;A4C_CP_SVC_LPORT -->
<g id="node12" class="node">
<title>DTEL&#45;A4C_CP_SVC_LPORT</title>
<g id="a_node12"><a xlink:href="./DTEL_A4C_CP_SVC_LPORT.html" xlink:title="DTEL&#45;A4C_CP_SVC_LPORT">
<polygon fill="none" stroke="yellow" points="844.25,-252 652.16,-252 652.16,-216 844.25,-216 844.25,-252"/>
<text text-anchor="middle" x="748.2" y="-229.8" font-family="Times,serif" font-size="14.00">DTEL&#45;A4C_CP_SVC_LPORT</text>
</a>
</g>
</g>
<!-- TABL&#45;TSA4C_CP_SVC_CONN_DETAILS&#45;&gt;DTEL&#45;A4C_CP_SVC_LPORT -->
<g id="edge14" class="edge">
<title>TABL&#45;TSA4C_CP_SVC_CONN_DETAILS&#45;&gt;DTEL&#45;A4C_CP_SVC_LPORT</title>
<path fill="none" stroke="black" d="M748.2,-287.7C748.2,-279.98 748.2,-270.71 748.2,-262.11"/>
<polygon fill="black" stroke="black" points="751.7,-262.1 748.2,-252.1 744.7,-262.1 751.7,-262.1"/>
</g>
<!-- TABL&#45;TSA4C_CP_SVC_CONN_DETAILS&#45;&gt;DTEL&#45;SYSUUID_X16 -->
<g id="edge13" class="edge">
<title>TABL&#45;TSA4C_CP_SVC_CONN_DETAILS&#45;&gt;DTEL&#45;SYSUUID_X16</title>
<path fill="none" stroke="black" d="M866.1,-287.96C928.71,-278.57 1007.18,-266.28 1085.92,-252.19"/>
<polygon fill="black" stroke="black" points="1086.8,-255.59 1096.02,-250.37 1085.56,-248.7 1086.8,-255.59"/>
</g>
<!-- DOMA&#45;OA2C_CONFIGURATION -->
<g id="node10" class="node">
<title>DOMA&#45;OA2C_CONFIGURATION</title>
<g id="a_node10"><a xlink:href="./DOMA_OA2C_CONFIGURATION.html" xlink:title="DOMA&#45;OA2C_CONFIGURATION">
<polygon fill="none" stroke="yellow" points="1077.25,-180 855.15,-180 855.15,-144 1077.25,-144 1077.25,-180"/>
<text text-anchor="middle" x="966.2" y="-157.8" font-family="Times,serif" font-size="14.00">DOMA&#45;OA2C_CONFIGURATION</text>
</a>
</g>
</g>
<!-- DTEL&#45;OA2C_CONFIGURATION&#45;&gt;DOMA&#45;OA2C_CONFIGURATION -->
<g id="edge17" class="edge">
<title>DTEL&#45;OA2C_CONFIGURATION&#45;&gt;DOMA&#45;OA2C_CONFIGURATION</title>
<path fill="none" stroke="black" d="M969.21,-215.7C968.77,-207.98 968.24,-198.71 967.75,-190.11"/>
<polygon fill="black" stroke="black" points="971.24,-189.89 967.18,-180.1 964.26,-190.29 971.24,-189.89"/>
</g>
<!-- DOMA&#45;RFCDEST -->
<g id="node13" class="node">
<title>DOMA&#45;RFCDEST</title>
<g id="a_node13"><a xlink:href="./DOMA_RFCDEST.html" xlink:title="DOMA&#45;RFCDEST">
<polygon fill="none" stroke="yellow" points="810.58,-180 685.83,-180 685.83,-144 810.58,-144 810.58,-180"/>
<text text-anchor="middle" x="748.2" y="-157.8" font-family="Times,serif" font-size="14.00">DOMA&#45;RFCDEST</text>
</a>
</g>
</g>
<!-- DTEL&#45;A4C_CP_SVC_LPORT&#45;&gt;DOMA&#45;RFCDEST -->
<g id="edge18" class="edge">
<title>DTEL&#45;A4C_CP_SVC_LPORT&#45;&gt;DOMA&#45;RFCDEST</title>
<path fill="none" stroke="black" d="M748.2,-215.7C748.2,-207.98 748.2,-198.71 748.2,-190.11"/>
<polygon fill="black" stroke="black" points="751.7,-190.1 748.2,-180.1 744.7,-190.1 751.7,-190.1"/>
</g>
<!-- DOMA&#45;SYSUUID_X16 -->
<g id="node15" class="node">
<title>DOMA&#45;SYSUUID_X16</title>
<g id="a_node15"><a xlink:href="./DOMA_SYSUUID_X16.html" xlink:title="DOMA&#45;SYSUUID_X16">
<polygon fill="none" stroke="yellow" points="1250.89,-180 1095.52,-180 1095.52,-144 1250.89,-144 1250.89,-180"/>
<text text-anchor="middle" x="1173.2" y="-157.8" font-family="Times,serif" font-size="14.00">DOMA&#45;SYSUUID_X16</text>
</a>
</g>
</g>
<!-- DTEL&#45;SYSUUID_X16&#45;&gt;DOMA&#45;SYSUUID_X16 -->
<g id="edge19" class="edge">
<title>DTEL&#45;SYSUUID_X16&#45;&gt;DOMA&#45;SYSUUID_X16</title>
<path fill="none" stroke="black" d="M1170.94,-215.7C1171.27,-207.98 1171.67,-198.71 1172.04,-190.11"/>
<polygon fill="black" stroke="black" points="1175.54,-190.25 1172.47,-180.1 1168.54,-189.95 1175.54,-190.25"/>
</g>
<!-- DOMA&#45;UUID -->
<g id="node17" class="node">
<title>DOMA&#45;UUID</title>
<g id="a_node17"><a xlink:href="./DOMA_UUID.html" xlink:title="DOMA&#45;UUID">
<polygon fill="none" stroke="yellow" points="98.61,-252 -0.2,-252 -0.2,-216 98.61,-216 98.61,-252"/>
<text text-anchor="middle" x="49.2" y="-229.8" font-family="Times,serif" font-size="14.00">DOMA&#45;UUID</text>
</a>
</g>
</g>
<!-- DTEL&#45;UUID&#45;&gt;DOMA&#45;UUID -->
<g id="edge20" class="edge">
<title>DTEL&#45;UUID&#45;&gt;DOMA&#45;UUID</title>
<path fill="none" stroke="black" d="M107.17,-287.7C97.66,-279.05 86,-268.45 75.63,-259.03"/>
<polygon fill="black" stroke="black" points="77.77,-256.24 68.02,-252.1 73.06,-261.42 77.77,-256.24"/>
</g>
<!-- DOMA&#45;A4C_CP_SVC_MANAGED_BY -->
<g id="node19" class="node">
<title>DOMA&#45;A4C_CP_SVC_MANAGED_BY</title>
<g id="a_node19"><a xlink:href="./DOMA_A4C_CP_SVC_MANAGED_BY.html" xlink:title="DOMA&#45;A4C_CP_SVC_MANAGED_BY">
<polygon fill="none" stroke="yellow" points="1321.89,-324 1068.52,-324 1068.52,-288 1321.89,-288 1321.89,-324"/>
<text text-anchor="middle" x="1195.2" y="-301.8" font-family="Times,serif" font-size="14.00">DOMA&#45;A4C_CP_SVC_MANAGED_BY</text>
</a>
</g>
</g>
<!-- DTEL&#45;A4C_CP_SVC_MANAGED_BY&#45;&gt;DOMA&#45;A4C_CP_SVC_MANAGED_BY -->
<g id="edge21" class="edge">
<title>DTEL&#45;A4C_CP_SVC_MANAGED_BY&#45;&gt;DOMA&#45;A4C_CP_SVC_MANAGED_BY</title>
<path fill="none" stroke="black" d="M1193.7,-359.7C1193.92,-351.98 1194.18,-342.71 1194.43,-334.11"/>
<polygon fill="black" stroke="black" points="1197.93,-334.2 1194.71,-324.1 1190.93,-334 1197.93,-334.2"/>
</g>
</g>
</svg>
