<?xml version="1.0" encoding="UTF-8" standalone="no"?>
<!DOCTYPE svg PUBLIC "-//W3C//DTD SVG 1.1//EN"
 "http://www.w3.org/Graphics/SVG/1.1/DTD/svg11.dtd">
<!-- Generated by graphviz version 2.47.3 (20210619.1520)
 -->
<!-- Title: G Pages: 1 -->
<svg width="1253pt" height="332pt"
 viewBox="0.00 0.00 1253.31 332.00" xmlns="http://www.w3.org/2000/svg" xmlns:xlink="http://www.w3.org/1999/xlink">
<g id="graph0" class="graph" transform="scale(1 1) rotate(0) translate(4 328)">
<title>G</title>
<polygon fill="white" stroke="transparent" points="-4,4 -4,-328 1249.31,-328 1249.31,4 -4,4"/>
<!-- CLAS&#45;CL_BALI_EXCEPTION_SETTER -->
<g id="node1" class="node">
<title>CLAS&#45;CL_BALI_EXCEPTION_SETTER</title>
<polygon fill="none" stroke="green" points="490.67,-324 233.53,-324 233.53,-288 490.67,-288 490.67,-324"/>
<text text-anchor="middle" x="362.1" y="-301.8" font-family="Times,serif" font-size="14.00">CLAS&#45;CL_BALI_EXCEPTION_SETTER</text>
</g>
<!-- INTF&#45;IF_BALI_ITEM_SETTER -->
<g id="node2" class="node">
<title>INTF&#45;IF_BALI_ITEM_SETTER</title>
<g id="a_node2"><a xlink:href="./INTF_IF_BALI_ITEM_SETTER.html" xlink:title="INTF&#45;IF_BALI_ITEM_SETTER">
<polygon fill="none" stroke="green" points="389,-180 185.2,-180 185.2,-144 389,-144 389,-180"/>
<text text-anchor="middle" x="287.1" y="-157.8" font-family="Times,serif" font-size="14.00">INTF&#45;IF_BALI_ITEM_SETTER</text>
</a>
</g>
</g>
<!-- CLAS&#45;CL_BALI_EXCEPTION_SETTER&#45;&gt;INTF&#45;IF_BALI_ITEM_SETTER -->
<g id="edge2" class="edge">
<title>CLAS&#45;CL_BALI_EXCEPTION_SETTER&#45;&gt;INTF&#45;IF_BALI_ITEM_SETTER</title>
<path fill="none" stroke="black" d="M338.14,-287.88C326.76,-278.53 313.96,-266.01 306.1,-252 295.43,-233 290.74,-208.64 288.69,-190.21"/>
<polygon fill="black" stroke="black" points="292.16,-189.76 287.76,-180.13 285.19,-190.41 292.16,-189.76"/>
</g>
<!-- INTF&#45;IF_BALI_EXCEPTION_SETTER -->
<g id="node9" class="node">
<title>INTF&#45;IF_BALI_EXCEPTION_SETTER</title>
<g id="a_node9"><a xlink:href="./INTF_IF_BALI_EXCEPTION_SETTER.html" xlink:title="INTF&#45;IF_BALI_EXCEPTION_SETTER">
<polygon fill="none" stroke="green" points="561.55,-252 314.65,-252 314.65,-216 561.55,-216 561.55,-252"/>
<text text-anchor="middle" x="438.1" y="-229.8" font-family="Times,serif" font-size="14.00">INTF&#45;IF_BALI_EXCEPTION_SETTER</text>
</a>
</g>
</g>
<!-- CLAS&#45;CL_BALI_EXCEPTION_SETTER&#45;&gt;INTF&#45;IF_BALI_EXCEPTION_SETTER -->
<g id="edge1" class="edge">
<title>CLAS&#45;CL_BALI_EXCEPTION_SETTER&#45;&gt;INTF&#45;IF_BALI_EXCEPTION_SETTER</title>
<path fill="none" stroke="black" d="M380.89,-287.7C390.27,-279.05 401.78,-268.45 412.01,-259.03"/>
<polygon fill="black" stroke="black" points="414.55,-261.45 419.53,-252.1 409.8,-256.3 414.55,-261.45"/>
</g>
<!-- DTEL&#45;SYMSGTY -->
<g id="node3" class="node">
<title>DTEL&#45;SYMSGTY</title>
<g id="a_node3"><a xlink:href="./DTEL_SYMSGTY.html" xlink:title="DTEL&#45;SYMSGTY">
<polygon fill="none" stroke="green" points="133.91,-108 10.29,-108 10.29,-72 133.91,-72 133.91,-108"/>
<text text-anchor="middle" x="72.1" y="-85.8" font-family="Times,serif" font-size="14.00">DTEL&#45;SYMSGTY</text>
</a>
</g>
</g>
<!-- INTF&#45;IF_BALI_ITEM_SETTER&#45;&gt;DTEL&#45;SYMSGTY -->
<g id="edge5" class="edge">
<title>INTF&#45;IF_BALI_ITEM_SETTER&#45;&gt;DTEL&#45;SYMSGTY</title>
<path fill="none" stroke="black" d="M234.78,-143.97C204.48,-134.1 166.15,-121.62 134.31,-111.25"/>
<polygon fill="black" stroke="black" points="135.25,-107.88 124.65,-108.11 133.08,-114.53 135.25,-107.88"/>
</g>
<!-- DTEL&#45;BALLEVEL -->
<g id="node5" class="node">
<title>DTEL&#45;BALLEVEL</title>
<g id="a_node5"><a xlink:href="./DTEL_BALLEVEL.html" xlink:title="DTEL&#45;BALLEVEL">
<polygon fill="none" stroke="green" points="284.34,-108 155.86,-108 155.86,-72 284.34,-72 284.34,-108"/>
<text text-anchor="middle" x="220.1" y="-85.8" font-family="Times,serif" font-size="14.00">DTEL&#45;BALLEVEL</text>
</a>
</g>
</g>
<!-- INTF&#45;IF_BALI_ITEM_SETTER&#45;&gt;DTEL&#45;BALLEVEL -->
<g id="edge4" class="edge">
<title>INTF&#45;IF_BALI_ITEM_SETTER&#45;&gt;DTEL&#45;BALLEVEL</title>
<path fill="none" stroke="black" d="M270.54,-143.7C262.42,-135.22 252.51,-124.86 243.63,-115.58"/>
<polygon fill="black" stroke="black" points="245.91,-112.91 236.47,-108.1 240.86,-117.75 245.91,-112.91"/>
</g>
<!-- DTEL&#45;CHAR1 -->
<g id="node7" class="node">
<title>DTEL&#45;CHAR1</title>
<g id="a_node7"><a xlink:href="./DTEL_CHAR1.html" xlink:title="DTEL&#45;CHAR1">
<polygon fill="none" stroke="yellow" points="405.41,-108 302.79,-108 302.79,-72 405.41,-72 405.41,-108"/>
<text text-anchor="middle" x="354.1" y="-85.8" font-family="Times,serif" font-size="14.00">DTEL&#45;CHAR1</text>
</a>
</g>
</g>
<!-- INTF&#45;IF_BALI_ITEM_SETTER&#45;&gt;DTEL&#45;CHAR1 -->
<g id="edge3" class="edge">
<title>INTF&#45;IF_BALI_ITEM_SETTER&#45;&gt;DTEL&#45;CHAR1</title>
<path fill="none" stroke="black" d="M303.66,-143.7C311.78,-135.22 321.69,-124.86 330.57,-115.58"/>
<polygon fill="black" stroke="black" points="333.34,-117.75 337.73,-108.1 328.29,-112.91 333.34,-117.75"/>
</g>
<!-- DOMA&#45;SYCHAR01 -->
<g id="node4" class="node">
<title>DOMA&#45;SYCHAR01</title>
<g id="a_node4"><a xlink:href="./DOMA_SYCHAR01.html" xlink:title="DOMA&#45;SYCHAR01">
<polygon fill="none" stroke="yellow" points="134.3,-36 -0.1,-36 -0.1,0 134.3,0 134.3,-36"/>
<text text-anchor="middle" x="67.1" y="-13.8" font-family="Times,serif" font-size="14.00">DOMA&#45;SYCHAR01</text>
</a>
</g>
</g>
<!-- DTEL&#45;SYMSGTY&#45;&gt;DOMA&#45;SYCHAR01 -->
<g id="edge6" class="edge">
<title>DTEL&#45;SYMSGTY&#45;&gt;DOMA&#45;SYCHAR01</title>
<path fill="none" stroke="black" d="M70.86,-71.7C70.31,-63.98 69.65,-54.71 69.04,-46.11"/>
<polygon fill="black" stroke="black" points="72.53,-45.83 68.32,-36.1 65.54,-46.33 72.53,-45.83"/>
</g>
<!-- DOMA&#45;BALLEVEL -->
<g id="node6" class="node">
<title>DOMA&#45;BALLEVEL</title>
<g id="a_node6"><a xlink:href="./DOMA_BALLEVEL.html" xlink:title="DOMA&#45;BALLEVEL">
<polygon fill="none" stroke="yellow" points="287.84,-36 152.36,-36 152.36,0 287.84,0 287.84,-36"/>
<text text-anchor="middle" x="220.1" y="-13.8" font-family="Times,serif" font-size="14.00">DOMA&#45;BALLEVEL</text>
</a>
</g>
</g>
<!-- DTEL&#45;BALLEVEL&#45;&gt;DOMA&#45;BALLEVEL -->
<g id="edge7" class="edge">
<title>DTEL&#45;BALLEVEL&#45;&gt;DOMA&#45;BALLEVEL</title>
<path fill="none" stroke="black" d="M220.1,-71.7C220.1,-63.98 220.1,-54.71 220.1,-46.11"/>
<polygon fill="black" stroke="black" points="223.6,-46.1 220.1,-36.1 216.6,-46.1 223.6,-46.1"/>
</g>
<!-- DOMA&#45;CHAR1 -->
<g id="node8" class="node">
<title>DOMA&#45;CHAR1</title>
<g id="a_node8"><a xlink:href="./DOMA_CHAR1.html" xlink:title="DOMA&#45;CHAR1">
<polygon fill="none" stroke="green" points="415.91,-36 306.29,-36 306.29,0 415.91,0 415.91,-36"/>
<text text-anchor="middle" x="361.1" y="-13.8" font-family="Times,serif" font-size="14.00">DOMA&#45;CHAR1</text>
</a>
</g>
</g>
<!-- DTEL&#45;CHAR1&#45;&gt;DOMA&#45;CHAR1 -->
<g id="edge8" class="edge">
<title>DTEL&#45;CHAR1&#45;&gt;DOMA&#45;CHAR1</title>
<path fill="none" stroke="black" d="M355.83,-71.7C356.6,-63.98 357.53,-54.71 358.39,-46.11"/>
<polygon fill="black" stroke="black" points="361.88,-46.4 359.39,-36.1 354.91,-45.71 361.88,-46.4"/>
</g>
<!-- INTF&#45;IF_BALI_EXCEPTION_SETTER&#45;&gt;INTF&#45;IF_BALI_ITEM_SETTER -->
<g id="edge10" class="edge">
<title>INTF&#45;IF_BALI_EXCEPTION_SETTER&#45;&gt;INTF&#45;IF_BALI_ITEM_SETTER</title>
<path fill="none" stroke="black" d="M401.16,-215.88C380.61,-206.35 354.85,-194.41 333.01,-184.28"/>
<polygon fill="black" stroke="black" points="334.46,-181.1 323.92,-180.07 331.52,-187.45 334.46,-181.1"/>
</g>
<!-- CLAS&#45;CX_ROOT -->
<g id="node10" class="node">
<title>CLAS&#45;CX_ROOT</title>
<g id="a_node10"><a xlink:href="./CLAS_CX_ROOT.html" xlink:title="CLAS&#45;CX_ROOT">
<polygon fill="none" stroke="green" points="869.58,-180 748.62,-180 748.62,-144 869.58,-144 869.58,-180"/>
<text text-anchor="middle" x="809.1" y="-157.8" font-family="Times,serif" font-size="14.00">CLAS&#45;CX_ROOT</text>
</a>
</g>
</g>
<!-- INTF&#45;IF_BALI_EXCEPTION_SETTER&#45;&gt;CLAS&#45;CX_ROOT -->
<g id="edge9" class="edge">
<title>INTF&#45;IF_BALI_EXCEPTION_SETTER&#45;&gt;CLAS&#45;CX_ROOT</title>
<path fill="none" stroke="black" d="M528.38,-215.97C592.96,-203.78 678.66,-187.61 738.31,-176.36"/>
<polygon fill="black" stroke="black" points="739.22,-179.75 748.39,-174.45 737.92,-172.87 739.22,-179.75"/>
</g>
<!-- INTF&#45;IF_SERIALIZABLE_OBJECT -->
<g id="node11" class="node">
<title>INTF&#45;IF_SERIALIZABLE_OBJECT</title>
<g id="a_node11"><a xlink:href="./INTF_IF_SERIALIZABLE_OBJECT.html" xlink:title="INTF&#45;IF_SERIALIZABLE_OBJECT">
<polygon fill="none" stroke="green" points="651.39,-108 422.81,-108 422.81,-72 651.39,-72 651.39,-108"/>
<text text-anchor="middle" x="537.1" y="-85.8" font-family="Times,serif" font-size="14.00">INTF&#45;IF_SERIALIZABLE_OBJECT</text>
</a>
</g>
</g>
<!-- CLAS&#45;CX_ROOT&#45;&gt;INTF&#45;IF_SERIALIZABLE_OBJECT -->
<g id="edge15" class="edge">
<title>CLAS&#45;CX_ROOT&#45;&gt;INTF&#45;IF_SERIALIZABLE_OBJECT</title>
<path fill="none" stroke="black" d="M748.4,-145.38C708.45,-135.1 655.85,-121.56 613.13,-110.57"/>
<polygon fill="black" stroke="black" points="613.89,-107.15 603.33,-108.04 612.14,-113.93 613.89,-107.15"/>
</g>
<!-- INTF&#45;IF_MESSAGE -->
<g id="node12" class="node">
<title>INTF&#45;IF_MESSAGE</title>
<g id="a_node12"><a xlink:href="./INTF_IF_MESSAGE.html" xlink:title="INTF&#45;IF_MESSAGE">
<polygon fill="none" stroke="green" points="805.14,-108 669.07,-108 669.07,-72 805.14,-72 805.14,-108"/>
<text text-anchor="middle" x="737.1" y="-85.8" font-family="Times,serif" font-size="14.00">INTF&#45;IF_MESSAGE</text>
</a>
</g>
</g>
<!-- CLAS&#45;CX_ROOT&#45;&gt;INTF&#45;IF_MESSAGE -->
<g id="edge14" class="edge">
<title>CLAS&#45;CX_ROOT&#45;&gt;INTF&#45;IF_MESSAGE</title>
<path fill="none" stroke="black" d="M791.3,-143.7C782.5,-135.14 771.72,-124.66 762.1,-115.3"/>
<polygon fill="black" stroke="black" points="764.3,-112.57 754.69,-108.1 759.42,-117.58 764.3,-112.57"/>
</g>
<!-- DTEL&#45;SYREPID -->
<g id="node13" class="node">
<title>DTEL&#45;SYREPID</title>
<g id="a_node13"><a xlink:href="./DTEL_SYREPID.html" xlink:title="DTEL&#45;SYREPID">
<polygon fill="none" stroke="green" points="938.35,-108 823.85,-108 823.85,-72 938.35,-72 938.35,-108"/>
<text text-anchor="middle" x="881.1" y="-85.8" font-family="Times,serif" font-size="14.00">DTEL&#45;SYREPID</text>
</a>
</g>
</g>
<!-- CLAS&#45;CX_ROOT&#45;&gt;DTEL&#45;SYREPID -->
<g id="edge13" class="edge">
<title>CLAS&#45;CX_ROOT&#45;&gt;DTEL&#45;SYREPID</title>
<path fill="none" stroke="black" d="M826.9,-143.7C835.7,-135.14 846.48,-124.66 856.1,-115.3"/>
<polygon fill="black" stroke="black" points="858.78,-117.58 863.51,-108.1 853.9,-112.57 858.78,-117.58"/>
</g>
<!-- DTEL&#45;S380ERRID -->
<g id="node15" class="node">
<title>DTEL&#45;S380ERRID</title>
<g id="a_node15"><a xlink:href="./DTEL_S380ERRID.html" xlink:title="DTEL&#45;S380ERRID">
<polygon fill="none" stroke="yellow" points="1083.8,-108 956.4,-108 956.4,-72 1083.8,-72 1083.8,-108"/>
<text text-anchor="middle" x="1020.1" y="-85.8" font-family="Times,serif" font-size="14.00">DTEL&#45;S380ERRID</text>
</a>
</g>
</g>
<!-- CLAS&#45;CX_ROOT&#45;&gt;DTEL&#45;S380ERRID -->
<g id="edge12" class="edge">
<title>CLAS&#45;CX_ROOT&#45;&gt;DTEL&#45;S380ERRID</title>
<path fill="none" stroke="black" d="M860.45,-143.97C890.06,-134.14 927.47,-121.73 958.64,-111.39"/>
<polygon fill="black" stroke="black" points="960.13,-114.58 968.52,-108.11 957.93,-107.94 960.13,-114.58"/>
</g>
<!-- DTEL&#45;SOTR_CONC -->
<g id="node17" class="node">
<title>DTEL&#45;SOTR_CONC</title>
<g id="a_node17"><a xlink:href="./DTEL_SOTR_CONC.html" xlink:title="DTEL&#45;SOTR_CONC">
<polygon fill="none" stroke="yellow" points="1242.19,-108 1104.01,-108 1104.01,-72 1242.19,-72 1242.19,-108"/>
<text text-anchor="middle" x="1173.1" y="-85.8" font-family="Times,serif" font-size="14.00">DTEL&#45;SOTR_CONC</text>
</a>
</g>
</g>
<!-- CLAS&#45;CX_ROOT&#45;&gt;DTEL&#45;SOTR_CONC -->
<g id="edge11" class="edge">
<title>CLAS&#45;CX_ROOT&#45;&gt;DTEL&#45;SOTR_CONC</title>
<path fill="none" stroke="black" d="M869.85,-150.12C927.41,-139.69 1016.25,-123.33 1093.1,-108 1093.32,-107.96 1093.54,-107.91 1093.75,-107.87"/>
<polygon fill="black" stroke="black" points="1094.64,-111.26 1103.74,-105.85 1093.25,-104.4 1094.64,-111.26"/>
</g>
<!-- DOMA&#45;PROGRAMM -->
<g id="node14" class="node">
<title>DOMA&#45;PROGRAMM</title>
<g id="a_node14"><a xlink:href="./DOMA_PROGRAMM.html" xlink:title="DOMA&#45;PROGRAMM">
<polygon fill="none" stroke="yellow" points="934.69,-36 789.51,-36 789.51,0 934.69,0 934.69,-36"/>
<text text-anchor="middle" x="862.1" y="-13.8" font-family="Times,serif" font-size="14.00">DOMA&#45;PROGRAMM</text>
</a>
</g>
</g>
<!-- DTEL&#45;SYREPID&#45;&gt;DOMA&#45;PROGRAMM -->
<g id="edge16" class="edge">
<title>DTEL&#45;SYREPID&#45;&gt;DOMA&#45;PROGRAMM</title>
<path fill="none" stroke="black" d="M876.4,-71.7C874.29,-63.9 871.74,-54.51 869.38,-45.83"/>
<polygon fill="black" stroke="black" points="872.74,-44.84 866.74,-36.1 865.98,-46.67 872.74,-44.84"/>
</g>
<!-- DOMA&#45;SYCHAR30 -->
<g id="node16" class="node">
<title>DOMA&#45;SYCHAR30</title>
<g id="a_node16"><a xlink:href="./DOMA_SYCHAR30.html" xlink:title="DOMA&#45;SYCHAR30">
<polygon fill="none" stroke="yellow" points="1087.3,-36 952.9,-36 952.9,0 1087.3,0 1087.3,-36"/>
<text text-anchor="middle" x="1020.1" y="-13.8" font-family="Times,serif" font-size="14.00">DOMA&#45;SYCHAR30</text>
</a>
</g>
</g>
<!-- DTEL&#45;S380ERRID&#45;&gt;DOMA&#45;SYCHAR30 -->
<g id="edge17" class="edge">
<title>DTEL&#45;S380ERRID&#45;&gt;DOMA&#45;SYCHAR30</title>
<path fill="none" stroke="black" d="M1020.1,-71.7C1020.1,-63.98 1020.1,-54.71 1020.1,-46.11"/>
<polygon fill="black" stroke="black" points="1023.6,-46.1 1020.1,-36.1 1016.6,-46.1 1023.6,-46.1"/>
</g>
<!-- DOMA&#45;SYSUUID_C -->
<g id="node18" class="node">
<title>DOMA&#45;SYSUUID_C</title>
<g id="a_node18"><a xlink:href="./DOMA_SYSUUID_C.html" xlink:title="DOMA&#45;SYSUUID_C">
<polygon fill="none" stroke="yellow" points="1245.51,-36 1104.69,-36 1104.69,0 1245.51,0 1245.51,-36"/>
<text text-anchor="middle" x="1175.1" y="-13.8" font-family="Times,serif" font-size="14.00">DOMA&#45;SYSUUID_C</text>
</a>
</g>
</g>
<!-- DTEL&#45;SOTR_CONC&#45;&gt;DOMA&#45;SYSUUID_C -->
<g id="edge18" class="edge">
<title>DTEL&#45;SOTR_CONC&#45;&gt;DOMA&#45;SYSUUID_C</title>
<path fill="none" stroke="black" d="M1173.59,-71.7C1173.82,-63.98 1174.08,-54.71 1174.33,-46.11"/>
<polygon fill="black" stroke="black" points="1177.82,-46.2 1174.61,-36.1 1170.83,-46 1177.82,-46.2"/>
</g>
</g>
</svg>
