<?xml version="1.0" encoding="UTF-8" standalone="no"?>
<!DOCTYPE svg PUBLIC "-//W3C//DTD SVG 1.1//EN"
 "http://www.w3.org/Graphics/SVG/1.1/DTD/svg11.dtd">
<!-- Generated by graphviz version 2.47.3 (20210619.1520)
 -->
<!-- Title: G Pages: 1 -->
<svg width="564pt" height="188pt"
 viewBox="0.00 0.00 564.08 188.00" xmlns="http://www.w3.org/2000/svg" xmlns:xlink="http://www.w3.org/1999/xlink">
<g id="graph0" class="graph" transform="scale(1 1) rotate(0) translate(4 184)">
<title>G</title>
<polygon fill="white" stroke="transparent" points="-4,4 -4,-184 560.08,-184 560.08,4 -4,4"/>
<!-- CLAS&#45;CL_ABAP_CONV_CODEPAGE -->
<g id="node1" class="node">
<title>CLAS&#45;CL_ABAP_CONV_CODEPAGE</title>
<g id="a_node1"><a xlink:href="./CLAS_CL_ABAP_CONV_CODEPAGE.html" xlink:title="CLAS&#45;CL_ABAP_CONV_CODEPAGE">
<polygon fill="none" stroke="green" points="420.95,-180 174.01,-180 174.01,-144 420.95,-144 420.95,-180"/>
<text text-anchor="middle" x="297.48" y="-157.8" font-family="Times,serif" font-size="14.00">CLAS&#45;CL_ABAP_CONV_CODEPAGE</text>
</a>
</g>
</g>
<!-- INTF&#45;IF_ABAP_CONV_OUT -->
<g id="node2" class="node">
<title>INTF&#45;IF_ABAP_CONV_OUT</title>
<g id="a_node2"><a xlink:href="./INTF_IF_ABAP_CONV_OUT.html" xlink:title="INTF&#45;IF_ABAP_CONV_OUT">
<polygon fill="none" stroke="green" points="190.94,-108 0.02,-108 0.02,-72 190.94,-72 190.94,-108"/>
<text text-anchor="middle" x="95.48" y="-85.8" font-family="Times,serif" font-size="14.00">INTF&#45;IF_ABAP_CONV_OUT</text>
</a>
</g>
</g>
<!-- CLAS&#45;CL_ABAP_CONV_CODEPAGE&#45;&gt;INTF&#45;IF_ABAP_CONV_OUT -->
<g id="edge3" class="edge">
<title>CLAS&#45;CL_ABAP_CONV_CODEPAGE&#45;&gt;INTF&#45;IF_ABAP_CONV_OUT</title>
<path fill="none" stroke="black" d="M236.55,-143.97C206.4,-134.23 170.73,-121.94 142.66,-111.66"/>
<polygon fill="black" stroke="black" points="143.66,-108.3 133.07,-108.11 141.23,-114.86 143.66,-108.3"/>
</g>
<!-- CLAS&#45;CL_ABAP_CONV_CODEPAGE&#45;&gt;INTF&#45;IF_ABAP_CONV_OUT -->
<g id="edge7" class="edge">
<title>CLAS&#45;CL_ABAP_CONV_CODEPAGE&#45;&gt;INTF&#45;IF_ABAP_CONV_OUT</title>
<path fill="none" stroke="black" d="M259.86,-143.88C233.45,-134.01 197.69,-121.55 166.15,-111.21"/>
<polygon fill="black" stroke="black" points="167.11,-107.84 156.52,-108.07 164.94,-114.49 167.11,-107.84"/>
</g>
<!-- INTF&#45;IF_ABAP_CONV_IN -->
<g id="node3" class="node">
<title>INTF&#45;IF_ABAP_CONV_IN</title>
<g id="a_node3"><a xlink:href="./INTF_IF_ABAP_CONV_IN.html" xlink:title="INTF&#45;IF_ABAP_CONV_IN">
<polygon fill="none" stroke="green" points="385.94,-108 209.02,-108 209.02,-72 385.94,-72 385.94,-108"/>
<text text-anchor="middle" x="297.48" y="-85.8" font-family="Times,serif" font-size="14.00">INTF&#45;IF_ABAP_CONV_IN</text>
</a>
</g>
</g>
<!-- CLAS&#45;CL_ABAP_CONV_CODEPAGE&#45;&gt;INTF&#45;IF_ABAP_CONV_IN -->
<g id="edge2" class="edge">
<title>CLAS&#45;CL_ABAP_CONV_CODEPAGE&#45;&gt;INTF&#45;IF_ABAP_CONV_IN</title>
<path fill="none" stroke="black" d="M285.65,-143.7C284.06,-135.98 283.6,-126.71 284.29,-118.11"/>
<polygon fill="black" stroke="black" points="287.77,-118.49 285.69,-108.1 280.84,-117.52 287.77,-118.49"/>
</g>
<!-- CLAS&#45;CL_ABAP_CONV_CODEPAGE&#45;&gt;INTF&#45;IF_ABAP_CONV_IN -->
<g id="edge6" class="edge">
<title>CLAS&#45;CL_ABAP_CONV_CODEPAGE&#45;&gt;INTF&#45;IF_ABAP_CONV_IN</title>
<path fill="none" stroke="black" d="M297.48,-143.7C297.48,-135.98 297.48,-126.71 297.48,-118.11"/>
<polygon fill="black" stroke="black" points="300.98,-118.1 297.48,-108.1 293.98,-118.1 300.98,-118.1"/>
</g>
<!-- DTEL&#45;CPCODEPAGE -->
<g id="node4" class="node">
<title>DTEL&#45;CPCODEPAGE</title>
<g id="a_node4"><a xlink:href="./DTEL_CPCODEPAGE.html" xlink:title="DTEL&#45;CPCODEPAGE">
<polygon fill="none" stroke="yellow" points="552.68,-108 404.29,-108 404.29,-72 552.68,-72 552.68,-108"/>
<text text-anchor="middle" x="478.48" y="-85.8" font-family="Times,serif" font-size="14.00">DTEL&#45;CPCODEPAGE</text>
</a>
</g>
</g>
<!-- CLAS&#45;CL_ABAP_CONV_CODEPAGE&#45;&gt;DTEL&#45;CPCODEPAGE -->
<g id="edge1" class="edge">
<title>CLAS&#45;CL_ABAP_CONV_CODEPAGE&#45;&gt;DTEL&#45;CPCODEPAGE</title>
<path fill="none" stroke="black" d="M335.86,-143.88C360.03,-134.14 391.63,-121.87 418.98,-111.61"/>
<polygon fill="black" stroke="black" points="420.31,-114.85 428.46,-108.07 417.86,-108.29 420.31,-114.85"/>
</g>
<!-- CLAS&#45;CL_ABAP_CONV_CODEPAGE&#45;&gt;DTEL&#45;CPCODEPAGE -->
<g id="edge5" class="edge">
<title>CLAS&#45;CL_ABAP_CONV_CODEPAGE&#45;&gt;DTEL&#45;CPCODEPAGE</title>
<path fill="none" stroke="black" d="M347.66,-143.88C373.63,-134.22 405.12,-122.09 430.73,-111.88"/>
<polygon fill="black" stroke="black" points="432.26,-115.04 440.24,-108.07 429.65,-108.54 432.26,-115.04"/>
</g>
<!-- INTF&#45;IF_ABAP_CONV_OUT&#45;&gt;CLAS&#45;CL_ABAP_CONV_CODEPAGE -->
<g id="edge4" class="edge">
<title>INTF&#45;IF_ABAP_CONV_OUT&#45;&gt;CLAS&#45;CL_ABAP_CONV_CODEPAGE</title>
<path fill="none" stroke="black" d="M144.86,-108.11C173.24,-117.95 209.07,-130.36 238.87,-140.69"/>
<polygon fill="black" stroke="black" points="237.73,-144 248.32,-143.97 240.02,-137.38 237.73,-144"/>
</g>
<!-- INTF&#45;IF_ABAP_CONV_IN&#45;&gt;CLAS&#45;CL_ABAP_CONV_CODEPAGE -->
<g id="edge8" class="edge">
<title>INTF&#45;IF_ABAP_CONV_IN&#45;&gt;CLAS&#45;CL_ABAP_CONV_CODEPAGE</title>
<path fill="none" stroke="black" d="M309.27,-108.1C310.88,-115.79 311.35,-125.05 310.69,-133.67"/>
<polygon fill="black" stroke="black" points="307.2,-133.31 309.31,-143.7 314.14,-134.27 307.2,-133.31"/>
</g>
<!-- DOMA&#45;CPCODEPAGE -->
<g id="node5" class="node">
<title>DOMA&#45;CPCODEPAGE</title>
<g id="a_node5"><a xlink:href="./DOMA_CPCODEPAGE.html" xlink:title="DOMA&#45;CPCODEPAGE">
<polygon fill="none" stroke="yellow" points="556.18,-36 400.79,-36 400.79,0 556.18,0 556.18,-36"/>
<text text-anchor="middle" x="478.48" y="-13.8" font-family="Times,serif" font-size="14.00">DOMA&#45;CPCODEPAGE</text>
</a>
</g>
</g>
<!-- DTEL&#45;CPCODEPAGE&#45;&gt;DOMA&#45;CPCODEPAGE -->
<g id="edge9" class="edge">
<title>DTEL&#45;CPCODEPAGE&#45;&gt;DOMA&#45;CPCODEPAGE</title>
<path fill="none" stroke="black" d="M478.48,-71.7C478.48,-63.98 478.48,-54.71 478.48,-46.11"/>
<polygon fill="black" stroke="black" points="481.98,-46.1 478.48,-36.1 474.98,-46.1 481.98,-46.1"/>
</g>
</g>
</svg>
