<?xml version="1.0" encoding="UTF-8" standalone="no"?>
<!DOCTYPE svg PUBLIC "-//W3C//DTD SVG 1.1//EN"
 "http://www.w3.org/Graphics/SVG/1.1/DTD/svg11.dtd">
<!-- Generated by graphviz version 2.47.3 (20210619.1520)
 -->
<!-- Title: G Pages: 1 -->
<svg width="830pt" height="404pt"
 viewBox="0.00 0.00 830.35 404.00" xmlns="http://www.w3.org/2000/svg" xmlns:xlink="http://www.w3.org/1999/xlink">
<g id="graph0" class="graph" transform="scale(1 1) rotate(0) translate(4 400)">
<title>G</title>
<polygon fill="white" stroke="transparent" points="-4,4 -4,-400 826.35,-400 826.35,4 -4,4"/>
<!-- CLAS&#45;CX_SY_IMPORT_FORMAT_ERROR -->
<g id="node1" class="node">
<title>CLAS&#45;CX_SY_IMPORT_FORMAT_ERROR</title>
<polygon fill="none" stroke="green" points="799.8,-396 520.49,-396 520.49,-360 799.8,-360 799.8,-396"/>
<text text-anchor="middle" x="660.14" y="-373.8" font-family="Times,serif" font-size="14.00">CLAS&#45;CX_SY_IMPORT_FORMAT_ERROR</text>
</g>
<!-- CLAS&#45;CX_SY_IMPORT_MISMATCH_ERROR -->
<g id="node2" class="node">
<title>CLAS&#45;CX_SY_IMPORT_MISMATCH_ERROR</title>
<g id="a_node2"><a xlink:href="./CLAS_CX_SY_IMPORT_MISMATCH_ERROR.html" xlink:title="CLAS&#45;CX_SY_IMPORT_MISMATCH_ERROR">
<polygon fill="none" stroke="green" points="720.4,-324 423.89,-324 423.89,-288 720.4,-288 720.4,-324"/>
<text text-anchor="middle" x="572.14" y="-301.8" font-family="Times,serif" font-size="14.00">CLAS&#45;CX_SY_IMPORT_MISMATCH_ERROR</text>
</a>
</g>
</g>
<!-- CLAS&#45;CX_SY_IMPORT_FORMAT_ERROR&#45;&gt;CLAS&#45;CX_SY_IMPORT_MISMATCH_ERROR -->
<g id="edge2" class="edge">
<title>CLAS&#45;CX_SY_IMPORT_FORMAT_ERROR&#45;&gt;CLAS&#45;CX_SY_IMPORT_MISMATCH_ERROR</title>
<path fill="none" stroke="black" d="M638.39,-359.7C627.31,-350.88 613.67,-340.03 601.65,-330.47"/>
<polygon fill="black" stroke="black" points="603.65,-327.59 593.65,-324.1 599.29,-333.07 603.65,-327.59"/>
</g>
<!-- DTEL&#45;SOTR_CONC -->
<g id="node11" class="node">
<title>DTEL&#45;SOTR_CONC</title>
<g id="a_node11"><a xlink:href="./DTEL_SOTR_CONC.html" xlink:title="DTEL&#45;SOTR_CONC">
<polygon fill="none" stroke="yellow" points="817.23,-108 679.05,-108 679.05,-72 817.23,-72 817.23,-108"/>
<text text-anchor="middle" x="748.14" y="-85.8" font-family="Times,serif" font-size="14.00">DTEL&#45;SOTR_CONC</text>
</a>
</g>
</g>
<!-- CLAS&#45;CX_SY_IMPORT_FORMAT_ERROR&#45;&gt;DTEL&#45;SOTR_CONC -->
<g id="edge1" class="edge">
<title>CLAS&#45;CX_SY_IMPORT_FORMAT_ERROR&#45;&gt;DTEL&#45;SOTR_CONC</title>
<path fill="none" stroke="black" d="M693.04,-359.9C706.58,-351.07 720.98,-338.99 729.14,-324 765.44,-257.34 758.85,-163.74 752.66,-118.12"/>
<polygon fill="black" stroke="black" points="756.1,-117.51 751.2,-108.12 749.18,-118.52 756.1,-117.51"/>
</g>
<!-- CLAS&#45;CX_DYNAMIC_CHECK -->
<g id="node3" class="node">
<title>CLAS&#45;CX_DYNAMIC_CHECK</title>
<g id="a_node3"><a xlink:href="./CLAS_CX_DYNAMIC_CHECK.html" xlink:title="CLAS&#45;CX_DYNAMIC_CHECK">
<polygon fill="none" stroke="green" points="617.33,-252 412.96,-252 412.96,-216 617.33,-216 617.33,-252"/>
<text text-anchor="middle" x="515.14" y="-229.8" font-family="Times,serif" font-size="14.00">CLAS&#45;CX_DYNAMIC_CHECK</text>
</a>
</g>
</g>
<!-- CLAS&#45;CX_SY_IMPORT_MISMATCH_ERROR&#45;&gt;CLAS&#45;CX_DYNAMIC_CHECK -->
<g id="edge4" class="edge">
<title>CLAS&#45;CX_SY_IMPORT_MISMATCH_ERROR&#45;&gt;CLAS&#45;CX_DYNAMIC_CHECK</title>
<path fill="none" stroke="black" d="M558.05,-287.7C551.22,-279.3 542.89,-269.07 535.39,-259.86"/>
<polygon fill="black" stroke="black" points="538.1,-257.65 529.07,-252.1 532.67,-262.07 538.1,-257.65"/>
</g>
<!-- CLAS&#45;CX_SY_IMPORT_MISMATCH_ERROR&#45;&gt;DTEL&#45;SOTR_CONC -->
<g id="edge3" class="edge">
<title>CLAS&#45;CX_SY_IMPORT_MISMATCH_ERROR&#45;&gt;DTEL&#45;SOTR_CONC</title>
<path fill="none" stroke="black" d="M590.81,-287.97C601.54,-277.87 615.04,-264.62 626.14,-252 666.17,-206.52 707.73,-149.1 730.53,-116.57"/>
<polygon fill="black" stroke="black" points="733.6,-118.29 736.45,-108.09 727.86,-114.29 733.6,-118.29"/>
</g>
<!-- CLAS&#45;CX_ROOT -->
<g id="node4" class="node">
<title>CLAS&#45;CX_ROOT</title>
<g id="a_node4"><a xlink:href="./CLAS_CX_ROOT.html" xlink:title="CLAS&#45;CX_ROOT">
<polygon fill="none" stroke="green" points="546.63,-180 425.66,-180 425.66,-144 546.63,-144 546.63,-180"/>
<text text-anchor="middle" x="486.14" y="-157.8" font-family="Times,serif" font-size="14.00">CLAS&#45;CX_ROOT</text>
</a>
</g>
</g>
<!-- CLAS&#45;CX_DYNAMIC_CHECK&#45;&gt;CLAS&#45;CX_ROOT -->
<g id="edge5" class="edge">
<title>CLAS&#45;CX_DYNAMIC_CHECK&#45;&gt;CLAS&#45;CX_ROOT</title>
<path fill="none" stroke="black" d="M507.98,-215.7C504.71,-207.81 500.77,-198.3 497.14,-189.55"/>
<polygon fill="black" stroke="black" points="500.29,-188 493.23,-180.1 493.82,-190.68 500.29,-188"/>
</g>
<!-- INTF&#45;IF_SERIALIZABLE_OBJECT -->
<g id="node5" class="node">
<title>INTF&#45;IF_SERIALIZABLE_OBJECT</title>
<g id="a_node5"><a xlink:href="./INTF_IF_SERIALIZABLE_OBJECT.html" xlink:title="INTF&#45;IF_SERIALIZABLE_OBJECT">
<polygon fill="none" stroke="green" points="228.43,-108 -0.14,-108 -0.14,-72 228.43,-72 228.43,-108"/>
<text text-anchor="middle" x="114.14" y="-85.8" font-family="Times,serif" font-size="14.00">INTF&#45;IF_SERIALIZABLE_OBJECT</text>
</a>
</g>
</g>
<!-- CLAS&#45;CX_ROOT&#45;&gt;INTF&#45;IF_SERIALIZABLE_OBJECT -->
<g id="edge10" class="edge">
<title>CLAS&#45;CX_ROOT&#45;&gt;INTF&#45;IF_SERIALIZABLE_OBJECT</title>
<path fill="none" stroke="black" d="M425.55,-149.6C368.56,-138.87 282.18,-122.62 214.84,-109.95"/>
<polygon fill="black" stroke="black" points="215.1,-106.44 204.63,-108.03 213.81,-113.32 215.1,-106.44"/>
</g>
<!-- INTF&#45;IF_MESSAGE -->
<g id="node6" class="node">
<title>INTF&#45;IF_MESSAGE</title>
<g id="a_node6"><a xlink:href="./INTF_IF_MESSAGE.html" xlink:title="INTF&#45;IF_MESSAGE">
<polygon fill="none" stroke="green" points="382.18,-108 246.11,-108 246.11,-72 382.18,-72 382.18,-108"/>
<text text-anchor="middle" x="314.14" y="-85.8" font-family="Times,serif" font-size="14.00">INTF&#45;IF_MESSAGE</text>
</a>
</g>
</g>
<!-- CLAS&#45;CX_ROOT&#45;&gt;INTF&#45;IF_MESSAGE -->
<g id="edge9" class="edge">
<title>CLAS&#45;CX_ROOT&#45;&gt;INTF&#45;IF_MESSAGE</title>
<path fill="none" stroke="black" d="M444.07,-143.88C420.35,-134.22 390.53,-122.09 365.44,-111.88"/>
<polygon fill="black" stroke="black" points="366.67,-108.6 356.08,-108.07 364.03,-115.08 366.67,-108.6"/>
</g>
<!-- DTEL&#45;SYREPID -->
<g id="node7" class="node">
<title>DTEL&#45;SYREPID</title>
<g id="a_node7"><a xlink:href="./DTEL_SYREPID.html" xlink:title="DTEL&#45;SYREPID">
<polygon fill="none" stroke="green" points="515.4,-108 400.89,-108 400.89,-72 515.4,-72 515.4,-108"/>
<text text-anchor="middle" x="458.14" y="-85.8" font-family="Times,serif" font-size="14.00">DTEL&#45;SYREPID</text>
</a>
</g>
</g>
<!-- CLAS&#45;CX_ROOT&#45;&gt;DTEL&#45;SYREPID -->
<g id="edge8" class="edge">
<title>CLAS&#45;CX_ROOT&#45;&gt;DTEL&#45;SYREPID</title>
<path fill="none" stroke="black" d="M479.22,-143.7C476.07,-135.81 472.27,-126.3 468.76,-117.55"/>
<polygon fill="black" stroke="black" points="471.95,-116.09 464.99,-108.1 465.45,-118.69 471.95,-116.09"/>
</g>
<!-- DTEL&#45;S380ERRID -->
<g id="node9" class="node">
<title>DTEL&#45;S380ERRID</title>
<g id="a_node9"><a xlink:href="./DTEL_S380ERRID.html" xlink:title="DTEL&#45;S380ERRID">
<polygon fill="none" stroke="yellow" points="660.85,-108 533.44,-108 533.44,-72 660.85,-72 660.85,-108"/>
<text text-anchor="middle" x="597.14" y="-85.8" font-family="Times,serif" font-size="14.00">DTEL&#45;S380ERRID</text>
</a>
</g>
</g>
<!-- CLAS&#45;CX_ROOT&#45;&gt;DTEL&#45;S380ERRID -->
<g id="edge7" class="edge">
<title>CLAS&#45;CX_ROOT&#45;&gt;DTEL&#45;S380ERRID</title>
<path fill="none" stroke="black" d="M513.3,-143.88C527.68,-134.81 545.53,-123.55 561.05,-113.76"/>
<polygon fill="black" stroke="black" points="563.29,-116.48 569.89,-108.19 559.56,-110.56 563.29,-116.48"/>
</g>
<!-- CLAS&#45;CX_ROOT&#45;&gt;DTEL&#45;SOTR_CONC -->
<g id="edge6" class="edge">
<title>CLAS&#45;CX_ROOT&#45;&gt;DTEL&#45;SOTR_CONC</title>
<path fill="none" stroke="black" d="M546.91,-144.76C585.04,-134.58 634.43,-121.38 674.74,-110.61"/>
<polygon fill="black" stroke="black" points="675.75,-113.96 684.51,-108 673.95,-107.2 675.75,-113.96"/>
</g>
<!-- DOMA&#45;PROGRAMM -->
<g id="node8" class="node">
<title>DOMA&#45;PROGRAMM</title>
<g id="a_node8"><a xlink:href="./DOMA_PROGRAMM.html" xlink:title="DOMA&#45;PROGRAMM">
<polygon fill="none" stroke="yellow" points="511.73,-36 366.55,-36 366.55,0 511.73,0 511.73,-36"/>
<text text-anchor="middle" x="439.14" y="-13.8" font-family="Times,serif" font-size="14.00">DOMA&#45;PROGRAMM</text>
</a>
</g>
</g>
<!-- DTEL&#45;SYREPID&#45;&gt;DOMA&#45;PROGRAMM -->
<g id="edge11" class="edge">
<title>DTEL&#45;SYREPID&#45;&gt;DOMA&#45;PROGRAMM</title>
<path fill="none" stroke="black" d="M453.45,-71.7C451.33,-63.9 448.78,-54.51 446.43,-45.83"/>
<polygon fill="black" stroke="black" points="449.78,-44.84 443.79,-36.1 443.03,-46.67 449.78,-44.84"/>
</g>
<!-- DOMA&#45;SYCHAR30 -->
<g id="node10" class="node">
<title>DOMA&#45;SYCHAR30</title>
<g id="a_node10"><a xlink:href="./DOMA_SYCHAR30.html" xlink:title="DOMA&#45;SYCHAR30">
<polygon fill="none" stroke="yellow" points="664.35,-36 529.94,-36 529.94,0 664.35,0 664.35,-36"/>
<text text-anchor="middle" x="597.14" y="-13.8" font-family="Times,serif" font-size="14.00">DOMA&#45;SYCHAR30</text>
</a>
</g>
</g>
<!-- DTEL&#45;S380ERRID&#45;&gt;DOMA&#45;SYCHAR30 -->
<g id="edge12" class="edge">
<title>DTEL&#45;S380ERRID&#45;&gt;DOMA&#45;SYCHAR30</title>
<path fill="none" stroke="black" d="M597.14,-71.7C597.14,-63.98 597.14,-54.71 597.14,-46.11"/>
<polygon fill="black" stroke="black" points="600.64,-46.1 597.14,-36.1 593.64,-46.1 600.64,-46.1"/>
</g>
<!-- DOMA&#45;SYSUUID_C -->
<g id="node12" class="node">
<title>DOMA&#45;SYSUUID_C</title>
<g id="a_node12"><a xlink:href="./DOMA_SYSUUID_C.html" xlink:title="DOMA&#45;SYSUUID_C">
<polygon fill="none" stroke="yellow" points="822.56,-36 681.73,-36 681.73,0 822.56,0 822.56,-36"/>
<text text-anchor="middle" x="752.14" y="-13.8" font-family="Times,serif" font-size="14.00">DOMA&#45;SYSUUID_C</text>
</a>
</g>
</g>
<!-- DTEL&#45;SOTR_CONC&#45;&gt;DOMA&#45;SYSUUID_C -->
<g id="edge13" class="edge">
<title>DTEL&#45;SOTR_CONC&#45;&gt;DOMA&#45;SYSUUID_C</title>
<path fill="none" stroke="black" d="M749.13,-71.7C749.57,-63.98 750.1,-54.71 750.6,-46.11"/>
<polygon fill="black" stroke="black" points="754.09,-46.29 751.17,-36.1 747.1,-45.89 754.09,-46.29"/>
</g>
</g>
</svg>
