<?xml version="1.0" encoding="UTF-8" standalone="no"?>
<!DOCTYPE svg PUBLIC "-//W3C//DTD SVG 1.1//EN"
 "http://www.w3.org/Graphics/SVG/1.1/DTD/svg11.dtd">
<!-- Generated by graphviz version 2.47.3 (20210619.1520)
 -->
<!-- Title: G Pages: 1 -->
<svg width="1473pt" height="332pt"
 viewBox="0.00 0.00 1473.24 332.00" xmlns="http://www.w3.org/2000/svg" xmlns:xlink="http://www.w3.org/1999/xlink">
<g id="graph0" class="graph" transform="scale(1 1) rotate(0) translate(4 328)">
<title>G</title>
<polygon fill="white" stroke="transparent" points="-4,4 -4,-328 1469.24,-328 1469.24,4 -4,4"/>
<!-- CLAS&#45;CL_MESSAGE_HELPER -->
<g id="node1" class="node">
<title>CLAS&#45;CL_MESSAGE_HELPER</title>
<polygon fill="none" stroke="green" points="1029.19,-324 823.1,-324 823.1,-288 1029.19,-288 1029.19,-324"/>
<text text-anchor="middle" x="926.14" y="-301.8" font-family="Times,serif" font-size="14.00">CLAS&#45;CL_MESSAGE_HELPER</text>
</g>
<!-- INTF&#45;IF_T100_MESSAGE -->
<g id="node2" class="node">
<title>INTF&#45;IF_T100_MESSAGE</title>
<g id="a_node2"><a xlink:href="./INTF_IF_T100_MESSAGE.html" xlink:title="INTF&#45;IF_T100_MESSAGE">
<polygon fill="none" stroke="green" points="955.73,-252 782.56,-252 782.56,-216 955.73,-216 955.73,-252"/>
<text text-anchor="middle" x="869.14" y="-229.8" font-family="Times,serif" font-size="14.00">INTF&#45;IF_T100_MESSAGE</text>
</a>
</g>
</g>
<!-- CLAS&#45;CL_MESSAGE_HELPER&#45;&gt;INTF&#45;IF_T100_MESSAGE -->
<g id="edge8" class="edge">
<title>CLAS&#45;CL_MESSAGE_HELPER&#45;&gt;INTF&#45;IF_T100_MESSAGE</title>
<path fill="none" stroke="black" d="M912.05,-287.7C905.22,-279.3 896.89,-269.07 889.39,-259.86"/>
<polygon fill="black" stroke="black" points="892.1,-257.65 883.07,-252.1 886.67,-262.07 892.1,-257.65"/>
</g>
<!-- INTF&#45;IF_MESSAGE -->
<g id="node3" class="node">
<title>INTF&#45;IF_MESSAGE</title>
<g id="a_node3"><a xlink:href="./INTF_IF_MESSAGE.html" xlink:title="INTF&#45;IF_MESSAGE">
<polygon fill="none" stroke="green" points="817.18,-180 681.11,-180 681.11,-144 817.18,-144 817.18,-180"/>
<text text-anchor="middle" x="749.14" y="-157.8" font-family="Times,serif" font-size="14.00">INTF&#45;IF_MESSAGE</text>
</a>
</g>
</g>
<!-- CLAS&#45;CL_MESSAGE_HELPER&#45;&gt;INTF&#45;IF_MESSAGE -->
<g id="edge6" class="edge">
<title>CLAS&#45;CL_MESSAGE_HELPER&#45;&gt;INTF&#45;IF_MESSAGE</title>
<path fill="none" stroke="black" d="M831.17,-287.91C809.69,-280.08 788.67,-268.65 773.14,-252 757.68,-235.41 751.98,-209.9 749.98,-190.44"/>
<polygon fill="black" stroke="black" points="753.46,-190.05 749.2,-180.35 746.48,-190.59 753.46,-190.05"/>
</g>
<!-- TABL&#45;SCX_T100KEY -->
<g id="node4" class="node">
<title>TABL&#45;SCX_T100KEY</title>
<g id="a_node4"><a xlink:href="./TABL_SCX_T100KEY.html" xlink:title="TABL&#45;SCX_T100KEY">
<polygon fill="none" stroke="yellow" points="1060.9,-180 911.39,-180 911.39,-144 1060.9,-144 1060.9,-180"/>
<text text-anchor="middle" x="986.14" y="-157.8" font-family="Times,serif" font-size="14.00">TABL&#45;SCX_T100KEY</text>
</a>
</g>
</g>
<!-- CLAS&#45;CL_MESSAGE_HELPER&#45;&gt;TABL&#45;SCX_T100KEY -->
<g id="edge4" class="edge">
<title>CLAS&#45;CL_MESSAGE_HELPER&#45;&gt;TABL&#45;SCX_T100KEY</title>
<path fill="none" stroke="black" d="M941.43,-287.99C949.56,-278.11 959.1,-265.07 965.14,-252 974.28,-232.24 979.65,-208.12 982.67,-189.98"/>
<polygon fill="black" stroke="black" points="986.14,-190.48 984.19,-180.07 979.22,-189.42 986.14,-190.48"/>
</g>
<!-- CLAS&#45;CX_ROOT -->
<g id="node10" class="node">
<title>CLAS&#45;CX_ROOT</title>
<g id="a_node10"><a xlink:href="./CLAS_CX_ROOT.html" xlink:title="CLAS&#45;CX_ROOT">
<polygon fill="none" stroke="green" points="579.63,-252 458.66,-252 458.66,-216 579.63,-216 579.63,-252"/>
<text text-anchor="middle" x="519.14" y="-229.8" font-family="Times,serif" font-size="14.00">CLAS&#45;CX_ROOT</text>
</a>
</g>
</g>
<!-- CLAS&#45;CL_MESSAGE_HELPER&#45;&gt;CLAS&#45;CX_ROOT -->
<g id="edge7" class="edge">
<title>CLAS&#45;CL_MESSAGE_HELPER&#45;&gt;CLAS&#45;CX_ROOT</title>
<path fill="none" stroke="black" d="M827.1,-287.97C753.73,-275.35 655.51,-258.45 589.91,-247.17"/>
<polygon fill="black" stroke="black" points="590.12,-243.66 579.68,-245.41 588.94,-250.56 590.12,-243.66"/>
</g>
<!-- DTEL&#45;SOTR_CONC -->
<g id="node16" class="node">
<title>DTEL&#45;SOTR_CONC</title>
<g id="a_node16"><a xlink:href="./DTEL_SOTR_CONC.html" xlink:title="DTEL&#45;SOTR_CONC">
<polygon fill="none" stroke="yellow" points="663.23,-180 525.05,-180 525.05,-144 663.23,-144 663.23,-180"/>
<text text-anchor="middle" x="594.14" y="-157.8" font-family="Times,serif" font-size="14.00">DTEL&#45;SOTR_CONC</text>
</a>
</g>
</g>
<!-- CLAS&#45;CL_MESSAGE_HELPER&#45;&gt;DTEL&#45;SOTR_CONC -->
<g id="edge3" class="edge">
<title>CLAS&#45;CL_MESSAGE_HELPER&#45;&gt;DTEL&#45;SOTR_CONC</title>
<path fill="none" stroke="black" d="M857.17,-287.92C824.43,-278.85 785.14,-266.57 751.14,-252 707.24,-233.18 659.95,-205.22 628.88,-185.67"/>
<polygon fill="black" stroke="black" points="630.49,-182.55 620.17,-180.14 626.74,-188.46 630.49,-182.55"/>
</g>
<!-- TABL&#45;SYMSG -->
<g id="node18" class="node">
<title>TABL&#45;SYMSG</title>
<g id="a_node18"><a xlink:href="./TABL_SYMSG.html" xlink:title="TABL&#45;SYMSG">
<polygon fill="none" stroke="green" points="1223.08,-180 1117.21,-180 1117.21,-144 1223.08,-144 1223.08,-180"/>
<text text-anchor="middle" x="1170.14" y="-157.8" font-family="Times,serif" font-size="14.00">TABL&#45;SYMSG</text>
</a>
</g>
</g>
<!-- CLAS&#45;CL_MESSAGE_HELPER&#45;&gt;TABL&#45;SYMSG -->
<g id="edge5" class="edge">
<title>CLAS&#45;CL_MESSAGE_HELPER&#45;&gt;TABL&#45;SYMSG</title>
<path fill="none" stroke="black" d="M944.94,-287.86C966.83,-268.55 1004.65,-237.1 1041.14,-216 1062.88,-203.43 1088.17,-192.35 1110.57,-183.61"/>
<polygon fill="black" stroke="black" points="1111.89,-186.86 1119.97,-180.02 1109.38,-180.32 1111.89,-186.86"/>
</g>
<!-- TABL&#45;SOTR_PARAM -->
<g id="node23" class="node">
<title>TABL&#45;SOTR_PARAM</title>
<g id="a_node23"><a xlink:href="./TABL_SOTR_PARAM.html" xlink:title="TABL&#45;SOTR_PARAM">
<polygon fill="none" stroke="yellow" points="1199.91,-252 1050.38,-252 1050.38,-216 1199.91,-216 1199.91,-252"/>
<text text-anchor="middle" x="1125.14" y="-229.8" font-family="Times,serif" font-size="14.00">TABL&#45;SOTR_PARAM</text>
</a>
</g>
</g>
<!-- CLAS&#45;CL_MESSAGE_HELPER&#45;&gt;TABL&#45;SOTR_PARAM -->
<g id="edge2" class="edge">
<title>CLAS&#45;CL_MESSAGE_HELPER&#45;&gt;TABL&#45;SOTR_PARAM</title>
<path fill="none" stroke="black" d="M974.57,-287.97C1002.38,-278.19 1037.48,-265.84 1066.8,-255.52"/>
<polygon fill="black" stroke="black" points="1068.23,-258.73 1076.5,-252.11 1065.91,-252.13 1068.23,-258.73"/>
</g>
<!-- TABL&#45;SBTFR_PARAM -->
<g id="node24" class="node">
<title>TABL&#45;SBTFR_PARAM</title>
<g id="a_node24"><a xlink:href="./TABL_SBTFR_PARAM.html" xlink:title="TABL&#45;SBTFR_PARAM">
<polygon fill="none" stroke="yellow" points="1374.42,-252 1217.87,-252 1217.87,-216 1374.42,-216 1374.42,-252"/>
<text text-anchor="middle" x="1296.14" y="-229.8" font-family="Times,serif" font-size="14.00">TABL&#45;SBTFR_PARAM</text>
</a>
</g>
</g>
<!-- CLAS&#45;CL_MESSAGE_HELPER&#45;&gt;TABL&#45;SBTFR_PARAM -->
<g id="edge1" class="edge">
<title>CLAS&#45;CL_MESSAGE_HELPER&#45;&gt;TABL&#45;SBTFR_PARAM</title>
<path fill="none" stroke="black" d="M1017.94,-288C1070.74,-278.17 1138.61,-265.47 1207.29,-252.35"/>
<polygon fill="black" stroke="black" points="1208.26,-255.73 1217.43,-250.41 1206.95,-248.85 1208.26,-255.73"/>
</g>
<!-- INTF&#45;IF_T100_MESSAGE&#45;&gt;INTF&#45;IF_MESSAGE -->
<g id="edge13" class="edge">
<title>INTF&#45;IF_T100_MESSAGE&#45;&gt;INTF&#45;IF_MESSAGE</title>
<path fill="none" stroke="black" d="M839.79,-215.88C824.1,-206.72 804.59,-195.34 787.69,-185.48"/>
<polygon fill="black" stroke="black" points="789.01,-182.21 778.61,-180.19 785.49,-188.25 789.01,-182.21"/>
</g>
<!-- INTF&#45;IF_T100_MESSAGE&#45;&gt;TABL&#45;SCX_T100KEY -->
<g id="edge12" class="edge">
<title>INTF&#45;IF_T100_MESSAGE&#45;&gt;TABL&#45;SCX_T100KEY</title>
<path fill="none" stroke="black" d="M897.77,-215.88C913.06,-206.72 932.09,-195.34 948.56,-185.48"/>
<polygon fill="black" stroke="black" points="950.63,-188.33 957.41,-180.19 947.03,-182.32 950.63,-188.33"/>
</g>
<!-- DTEL&#45;SCX_ATTRNAME -->
<g id="node5" class="node">
<title>DTEL&#45;SCX_ATTRNAME</title>
<g id="a_node5"><a xlink:href="./DTEL_SCX_ATTRNAME.html" xlink:title="DTEL&#45;SCX_ATTRNAME">
<polygon fill="none" stroke="green" points="886.55,-108 717.73,-108 717.73,-72 886.55,-72 886.55,-108"/>
<text text-anchor="middle" x="802.14" y="-85.8" font-family="Times,serif" font-size="14.00">DTEL&#45;SCX_ATTRNAME</text>
</a>
</g>
</g>
<!-- INTF&#45;IF_T100_MESSAGE&#45;&gt;DTEL&#45;SCX_ATTRNAME -->
<g id="edge11" class="edge">
<title>INTF&#45;IF_T100_MESSAGE&#45;&gt;DTEL&#45;SCX_ATTRNAME</title>
<path fill="none" stroke="black" d="M861.06,-215.87C849.49,-191.35 828.11,-146.03 814.53,-117.26"/>
<polygon fill="black" stroke="black" points="817.69,-115.74 810.25,-108.19 811.36,-118.73 817.69,-115.74"/>
</g>
<!-- DTEL&#45;SYMSGNO -->
<g id="node6" class="node">
<title>DTEL&#45;SYMSGNO</title>
<g id="a_node6"><a xlink:href="./DTEL_SYMSGNO.html" xlink:title="DTEL&#45;SYMSGNO">
<polygon fill="none" stroke="green" points="1029.51,-108 904.78,-108 904.78,-72 1029.51,-72 1029.51,-108"/>
<text text-anchor="middle" x="967.14" y="-85.8" font-family="Times,serif" font-size="14.00">DTEL&#45;SYMSGNO</text>
</a>
</g>
</g>
<!-- INTF&#45;IF_T100_MESSAGE&#45;&gt;DTEL&#45;SYMSGNO -->
<g id="edge10" class="edge">
<title>INTF&#45;IF_T100_MESSAGE&#45;&gt;DTEL&#45;SYMSGNO</title>
<path fill="none" stroke="black" d="M872.61,-215.98C877.08,-197.07 886.23,-166.25 902.14,-144 910.18,-132.77 921.18,-122.59 931.85,-114.22"/>
<polygon fill="black" stroke="black" points="933.99,-116.98 939.88,-108.18 929.78,-111.39 933.99,-116.98"/>
</g>
<!-- DTEL&#45;SYMSGID -->
<g id="node8" class="node">
<title>DTEL&#45;SYMSGID</title>
<g id="a_node8"><a xlink:href="./DTEL_SYMSGID.html" xlink:title="DTEL&#45;SYMSGID">
<polygon fill="none" stroke="green" points="1167.06,-108 1047.23,-108 1047.23,-72 1167.06,-72 1167.06,-108"/>
<text text-anchor="middle" x="1107.14" y="-85.8" font-family="Times,serif" font-size="14.00">DTEL&#45;SYMSGID</text>
</a>
</g>
</g>
<!-- INTF&#45;IF_T100_MESSAGE&#45;&gt;DTEL&#45;SYMSGID -->
<g id="edge9" class="edge">
<title>INTF&#45;IF_T100_MESSAGE&#45;&gt;DTEL&#45;SYMSGID</title>
<path fill="none" stroke="black" d="M955.94,-227.39C994.75,-220.86 1038.73,-207.4 1070.14,-180 1088.32,-164.15 1097.75,-137.94 1102.53,-118.06"/>
<polygon fill="black" stroke="black" points="1106,-118.56 1104.68,-108.05 1099.16,-117.1 1106,-118.56"/>
</g>
<!-- TABL&#45;SCX_T100KEY&#45;&gt;DTEL&#45;SCX_ATTRNAME -->
<g id="edge16" class="edge">
<title>TABL&#45;SCX_T100KEY&#45;&gt;DTEL&#45;SCX_ATTRNAME</title>
<path fill="none" stroke="black" d="M941.13,-143.88C915.64,-134.18 883.58,-121.98 856.67,-111.74"/>
<polygon fill="black" stroke="black" points="857.6,-108.35 847.01,-108.07 855.11,-114.9 857.6,-108.35"/>
</g>
<!-- TABL&#45;SCX_T100KEY&#45;&gt;DTEL&#45;SYMSGNO -->
<g id="edge15" class="edge">
<title>TABL&#45;SCX_T100KEY&#45;&gt;DTEL&#45;SYMSGNO</title>
<path fill="none" stroke="black" d="M981.45,-143.7C979.33,-135.9 976.78,-126.51 974.43,-117.83"/>
<polygon fill="black" stroke="black" points="977.78,-116.84 971.79,-108.1 971.03,-118.67 977.78,-116.84"/>
</g>
<!-- TABL&#45;SCX_T100KEY&#45;&gt;DTEL&#45;SYMSGID -->
<g id="edge14" class="edge">
<title>TABL&#45;SCX_T100KEY&#45;&gt;DTEL&#45;SYMSGID</title>
<path fill="none" stroke="black" d="M1015.74,-143.88C1031.71,-134.64 1051.6,-123.13 1068.75,-113.21"/>
<polygon fill="black" stroke="black" points="1070.53,-116.23 1077.43,-108.19 1067.02,-110.17 1070.53,-116.23"/>
</g>
<!-- DOMA&#45;SYMSGNO -->
<g id="node7" class="node">
<title>DOMA&#45;SYMSGNO</title>
<g id="a_node7"><a xlink:href="./DOMA_SYMSGNO.html" xlink:title="DOMA&#45;SYMSGNO">
<polygon fill="none" stroke="yellow" points="1031.01,-36 899.28,-36 899.28,0 1031.01,0 1031.01,-36"/>
<text text-anchor="middle" x="965.14" y="-13.8" font-family="Times,serif" font-size="14.00">DOMA&#45;SYMSGNO</text>
</a>
</g>
</g>
<!-- DTEL&#45;SYMSGNO&#45;&gt;DOMA&#45;SYMSGNO -->
<g id="edge17" class="edge">
<title>DTEL&#45;SYMSGNO&#45;&gt;DOMA&#45;SYMSGNO</title>
<path fill="none" stroke="black" d="M966.65,-71.7C966.43,-63.98 966.16,-54.71 965.92,-46.11"/>
<polygon fill="black" stroke="black" points="969.42,-46 965.63,-36.1 962.42,-46.2 969.42,-46"/>
</g>
<!-- DOMA&#45;ARBGB -->
<g id="node9" class="node">
<title>DOMA&#45;ARBGB</title>
<g id="a_node9"><a xlink:href="./DOMA_ARBGB.html" xlink:title="DOMA&#45;ARBGB">
<polygon fill="none" stroke="yellow" points="1160.79,-36 1049.5,-36 1049.5,0 1160.79,0 1160.79,-36"/>
<text text-anchor="middle" x="1105.14" y="-13.8" font-family="Times,serif" font-size="14.00">DOMA&#45;ARBGB</text>
</a>
</g>
</g>
<!-- DTEL&#45;SYMSGID&#45;&gt;DOMA&#45;ARBGB -->
<g id="edge18" class="edge">
<title>DTEL&#45;SYMSGID&#45;&gt;DOMA&#45;ARBGB</title>
<path fill="none" stroke="black" d="M1106.65,-71.7C1106.43,-63.98 1106.16,-54.71 1105.92,-46.11"/>
<polygon fill="black" stroke="black" points="1109.42,-46 1105.63,-36.1 1102.42,-46.2 1109.42,-46"/>
</g>
<!-- CLAS&#45;CX_ROOT&#45;&gt;INTF&#45;IF_MESSAGE -->
<g id="edge22" class="edge">
<title>CLAS&#45;CX_ROOT&#45;&gt;INTF&#45;IF_MESSAGE</title>
<path fill="none" stroke="black" d="M575.11,-215.97C607.67,-206.06 648.88,-193.51 683.03,-183.12"/>
<polygon fill="black" stroke="black" points="684.38,-186.37 692.92,-180.11 682.34,-179.67 684.38,-186.37"/>
</g>
<!-- INTF&#45;IF_SERIALIZABLE_OBJECT -->
<g id="node11" class="node">
<title>INTF&#45;IF_SERIALIZABLE_OBJECT</title>
<g id="a_node11"><a xlink:href="./INTF_IF_SERIALIZABLE_OBJECT.html" xlink:title="INTF&#45;IF_SERIALIZABLE_OBJECT">
<polygon fill="none" stroke="green" points="228.43,-180 -0.14,-180 -0.14,-144 228.43,-144 228.43,-180"/>
<text text-anchor="middle" x="114.14" y="-157.8" font-family="Times,serif" font-size="14.00">INTF&#45;IF_SERIALIZABLE_OBJECT</text>
</a>
</g>
</g>
<!-- CLAS&#45;CX_ROOT&#45;&gt;INTF&#45;IF_SERIALIZABLE_OBJECT -->
<g id="edge23" class="edge">
<title>CLAS&#45;CX_ROOT&#45;&gt;INTF&#45;IF_SERIALIZABLE_OBJECT</title>
<path fill="none" stroke="black" d="M458.51,-222.52C396.32,-211.77 298.24,-194.82 222.64,-181.75"/>
<polygon fill="black" stroke="black" points="223.05,-178.27 212.6,-180.02 221.85,-185.17 223.05,-178.27"/>
</g>
<!-- DTEL&#45;SYREPID -->
<g id="node12" class="node">
<title>DTEL&#45;SYREPID</title>
<g id="a_node12"><a xlink:href="./DTEL_SYREPID.html" xlink:title="DTEL&#45;SYREPID">
<polygon fill="none" stroke="green" points="361.4,-180 246.89,-180 246.89,-144 361.4,-144 361.4,-180"/>
<text text-anchor="middle" x="304.14" y="-157.8" font-family="Times,serif" font-size="14.00">DTEL&#45;SYREPID</text>
</a>
</g>
</g>
<!-- CLAS&#45;CX_ROOT&#45;&gt;DTEL&#45;SYREPID -->
<g id="edge21" class="edge">
<title>CLAS&#45;CX_ROOT&#45;&gt;DTEL&#45;SYREPID</title>
<path fill="none" stroke="black" d="M466.82,-215.97C436.52,-206.1 398.2,-193.62 366.36,-183.25"/>
<polygon fill="black" stroke="black" points="367.29,-179.88 356.7,-180.11 365.12,-186.53 367.29,-179.88"/>
</g>
<!-- DTEL&#45;S380ERRID -->
<g id="node14" class="node">
<title>DTEL&#45;S380ERRID</title>
<g id="a_node14"><a xlink:href="./DTEL_S380ERRID.html" xlink:title="DTEL&#45;S380ERRID">
<polygon fill="none" stroke="yellow" points="506.85,-180 379.44,-180 379.44,-144 506.85,-144 506.85,-180"/>
<text text-anchor="middle" x="443.14" y="-157.8" font-family="Times,serif" font-size="14.00">DTEL&#45;S380ERRID</text>
</a>
</g>
</g>
<!-- CLAS&#45;CX_ROOT&#45;&gt;DTEL&#45;S380ERRID -->
<g id="edge20" class="edge">
<title>CLAS&#45;CX_ROOT&#45;&gt;DTEL&#45;S380ERRID</title>
<path fill="none" stroke="black" d="M500.36,-215.7C490.97,-207.05 479.46,-196.45 469.23,-187.03"/>
<polygon fill="black" stroke="black" points="471.44,-184.3 461.71,-180.1 466.7,-189.45 471.44,-184.3"/>
</g>
<!-- CLAS&#45;CX_ROOT&#45;&gt;DTEL&#45;SOTR_CONC -->
<g id="edge19" class="edge">
<title>CLAS&#45;CX_ROOT&#45;&gt;DTEL&#45;SOTR_CONC</title>
<path fill="none" stroke="black" d="M537.68,-215.7C546.95,-207.05 558.31,-196.45 568.4,-187.03"/>
<polygon fill="black" stroke="black" points="570.9,-189.49 575.82,-180.1 566.12,-184.37 570.9,-189.49"/>
</g>
<!-- DOMA&#45;PROGRAMM -->
<g id="node13" class="node">
<title>DOMA&#45;PROGRAMM</title>
<g id="a_node13"><a xlink:href="./DOMA_PROGRAMM.html" xlink:title="DOMA&#45;PROGRAMM">
<polygon fill="none" stroke="yellow" points="357.73,-108 212.55,-108 212.55,-72 357.73,-72 357.73,-108"/>
<text text-anchor="middle" x="285.14" y="-85.8" font-family="Times,serif" font-size="14.00">DOMA&#45;PROGRAMM</text>
</a>
</g>
</g>
<!-- DTEL&#45;SYREPID&#45;&gt;DOMA&#45;PROGRAMM -->
<g id="edge24" class="edge">
<title>DTEL&#45;SYREPID&#45;&gt;DOMA&#45;PROGRAMM</title>
<path fill="none" stroke="black" d="M299.45,-143.7C297.33,-135.9 294.78,-126.51 292.43,-117.83"/>
<polygon fill="black" stroke="black" points="295.78,-116.84 289.79,-108.1 289.03,-118.67 295.78,-116.84"/>
</g>
<!-- DOMA&#45;SYCHAR30 -->
<g id="node15" class="node">
<title>DOMA&#45;SYCHAR30</title>
<g id="a_node15"><a xlink:href="./DOMA_SYCHAR30.html" xlink:title="DOMA&#45;SYCHAR30">
<polygon fill="none" stroke="yellow" points="510.35,-108 375.94,-108 375.94,-72 510.35,-72 510.35,-108"/>
<text text-anchor="middle" x="443.14" y="-85.8" font-family="Times,serif" font-size="14.00">DOMA&#45;SYCHAR30</text>
</a>
</g>
</g>
<!-- DTEL&#45;S380ERRID&#45;&gt;DOMA&#45;SYCHAR30 -->
<g id="edge25" class="edge">
<title>DTEL&#45;S380ERRID&#45;&gt;DOMA&#45;SYCHAR30</title>
<path fill="none" stroke="black" d="M443.14,-143.7C443.14,-135.98 443.14,-126.71 443.14,-118.11"/>
<polygon fill="black" stroke="black" points="446.64,-118.1 443.14,-108.1 439.64,-118.1 446.64,-118.1"/>
</g>
<!-- DOMA&#45;SYSUUID_C -->
<g id="node17" class="node">
<title>DOMA&#45;SYSUUID_C</title>
<g id="a_node17"><a xlink:href="./DOMA_SYSUUID_C.html" xlink:title="DOMA&#45;SYSUUID_C">
<polygon fill="none" stroke="yellow" points="668.56,-108 527.73,-108 527.73,-72 668.56,-72 668.56,-108"/>
<text text-anchor="middle" x="598.14" y="-85.8" font-family="Times,serif" font-size="14.00">DOMA&#45;SYSUUID_C</text>
</a>
</g>
</g>
<!-- DTEL&#45;SOTR_CONC&#45;&gt;DOMA&#45;SYSUUID_C -->
<g id="edge26" class="edge">
<title>DTEL&#45;SOTR_CONC&#45;&gt;DOMA&#45;SYSUUID_C</title>
<path fill="none" stroke="black" d="M595.13,-143.7C595.57,-135.98 596.1,-126.71 596.6,-118.11"/>
<polygon fill="black" stroke="black" points="600.09,-118.29 597.17,-108.1 593.1,-117.89 600.09,-118.29"/>
</g>
<!-- TABL&#45;SYMSG&#45;&gt;DTEL&#45;SYMSGNO -->
<g id="edge29" class="edge">
<title>TABL&#45;SYMSG&#45;&gt;DTEL&#45;SYMSGNO</title>
<path fill="none" stroke="black" d="M1120.74,-143.97C1092.26,-134.14 1056.26,-121.73 1026.27,-111.39"/>
<polygon fill="black" stroke="black" points="1027.36,-108.06 1016.77,-108.11 1025.08,-114.68 1027.36,-108.06"/>
</g>
<!-- TABL&#45;SYMSG&#45;&gt;DTEL&#45;SYMSGID -->
<g id="edge28" class="edge">
<title>TABL&#45;SYMSG&#45;&gt;DTEL&#45;SYMSGID</title>
<path fill="none" stroke="black" d="M1154.57,-143.7C1146.94,-135.22 1137.62,-124.86 1129.27,-115.58"/>
<polygon fill="black" stroke="black" points="1131.83,-113.2 1122.54,-108.1 1126.63,-117.88 1131.83,-113.2"/>
</g>
<!-- DTEL&#45;SYMSGV -->
<g id="node19" class="node">
<title>DTEL&#45;SYMSGV</title>
<g id="a_node19"><a xlink:href="./DTEL_SYMSGV.html" xlink:title="DTEL&#45;SYMSGV">
<polygon fill="none" stroke="green" points="1302.4,-108 1187.89,-108 1187.89,-72 1302.4,-72 1302.4,-108"/>
<text text-anchor="middle" x="1245.14" y="-85.8" font-family="Times,serif" font-size="14.00">DTEL&#45;SYMSGV</text>
</a>
</g>
</g>
<!-- TABL&#45;SYMSG&#45;&gt;DTEL&#45;SYMSGV -->
<g id="edge30" class="edge">
<title>TABL&#45;SYMSG&#45;&gt;DTEL&#45;SYMSGV</title>
<path fill="none" stroke="black" d="M1188.68,-143.7C1197.95,-135.05 1209.31,-124.45 1219.4,-115.03"/>
<polygon fill="black" stroke="black" points="1221.9,-117.49 1226.82,-108.1 1217.12,-112.37 1221.9,-117.49"/>
</g>
<!-- DTEL&#45;SYMSGTY -->
<g id="node21" class="node">
<title>DTEL&#45;SYMSGTY</title>
<g id="a_node21"><a xlink:href="./DTEL_SYMSGTY.html" xlink:title="DTEL&#45;SYMSGTY">
<polygon fill="none" stroke="green" points="1452.95,-108 1329.34,-108 1329.34,-72 1452.95,-72 1452.95,-108"/>
<text text-anchor="middle" x="1391.14" y="-85.8" font-family="Times,serif" font-size="14.00">DTEL&#45;SYMSGTY</text>
</a>
</g>
</g>
<!-- TABL&#45;SYMSG&#45;&gt;DTEL&#45;SYMSGTY -->
<g id="edge27" class="edge">
<title>TABL&#45;SYMSG&#45;&gt;DTEL&#45;SYMSGTY</title>
<path fill="none" stroke="black" d="M1223.08,-144.23C1254.46,-134.29 1294.43,-121.63 1327.52,-111.15"/>
<polygon fill="black" stroke="black" points="1328.63,-114.47 1337.11,-108.12 1326.52,-107.8 1328.63,-114.47"/>
</g>
<!-- DOMA&#45;SYCHAR50 -->
<g id="node20" class="node">
<title>DOMA&#45;SYCHAR50</title>
<g id="a_node20"><a xlink:href="./DOMA_SYCHAR50.html" xlink:title="DOMA&#45;SYCHAR50">
<polygon fill="none" stroke="yellow" points="1313.35,-36 1178.94,-36 1178.94,0 1313.35,0 1313.35,-36"/>
<text text-anchor="middle" x="1246.14" y="-13.8" font-family="Times,serif" font-size="14.00">DOMA&#45;SYCHAR50</text>
</a>
</g>
</g>
<!-- DTEL&#45;SYMSGV&#45;&gt;DOMA&#45;SYCHAR50 -->
<g id="edge31" class="edge">
<title>DTEL&#45;SYMSGV&#45;&gt;DOMA&#45;SYCHAR50</title>
<path fill="none" stroke="black" d="M1245.39,-71.7C1245.5,-63.98 1245.63,-54.71 1245.76,-46.11"/>
<polygon fill="black" stroke="black" points="1249.26,-46.15 1245.9,-36.1 1242.26,-46.05 1249.26,-46.15"/>
</g>
<!-- DOMA&#45;SYCHAR01 -->
<g id="node22" class="node">
<title>DOMA&#45;SYCHAR01</title>
<g id="a_node22"><a xlink:href="./DOMA_SYCHAR01.html" xlink:title="DOMA&#45;SYCHAR01">
<polygon fill="none" stroke="yellow" points="1465.35,-36 1330.94,-36 1330.94,0 1465.35,0 1465.35,-36"/>
<text text-anchor="middle" x="1398.14" y="-13.8" font-family="Times,serif" font-size="14.00">DOMA&#45;SYCHAR01</text>
</a>
</g>
</g>
<!-- DTEL&#45;SYMSGTY&#45;&gt;DOMA&#45;SYCHAR01 -->
<g id="edge32" class="edge">
<title>DTEL&#45;SYMSGTY&#45;&gt;DOMA&#45;SYCHAR01</title>
<path fill="none" stroke="black" d="M1392.87,-71.7C1393.65,-63.98 1394.57,-54.71 1395.43,-46.11"/>
<polygon fill="black" stroke="black" points="1398.92,-46.4 1396.43,-36.1 1391.96,-45.71 1398.92,-46.4"/>
</g>
</g>
</svg>
