<?xml version="1.0" encoding="UTF-8" standalone="no"?>
<!DOCTYPE svg PUBLIC "-//W3C//DTD SVG 1.1//EN"
 "http://www.w3.org/Graphics/SVG/1.1/DTD/svg11.dtd">
<!-- Generated by graphviz version 2.47.3 (20210619.1520)
 -->
<!-- Title: G Pages: 1 -->
<svg width="1168pt" height="476pt"
 viewBox="0.00 0.00 1168.26 476.00" xmlns="http://www.w3.org/2000/svg" xmlns:xlink="http://www.w3.org/1999/xlink">
<g id="graph0" class="graph" transform="scale(1 1) rotate(0) translate(4 472)">
<title>G</title>
<polygon fill="white" stroke="transparent" points="-4,4 -4,-472 1164.26,-472 1164.26,4 -4,4"/>
<!-- CLAS&#45;CL_XCO_CP_ARS_RELEASE_CNTRCT_F -->
<g id="node1" class="node">
<title>CLAS&#45;CL_XCO_CP_ARS_RELEASE_CNTRCT_F</title>
<g id="a_node1"><a xlink:href="./CLAS_CL_XCO_CP_ARS_RELEASE_CNTRCT_F.html" xlink:title="CLAS&#45;CL_XCO_CP_ARS_RELEASE_CNTRCT_F">
<polygon fill="none" stroke="green" points="845.92,-468 531.6,-468 531.6,-432 845.92,-432 845.92,-468"/>
<text text-anchor="middle" x="688.76" y="-445.8" font-family="Times,serif" font-size="14.00">CLAS&#45;CL_XCO_CP_ARS_RELEASE_CNTRCT_F</text>
</a>
</g>
</g>
<!-- CLAS&#45;CL_XCO_ARS_RELEASE_CONTRACT -->
<g id="node2" class="node">
<title>CLAS&#45;CL_XCO_ARS_RELEASE_CONTRACT</title>
<g id="a_node2"><a xlink:href="./CLAS_CL_XCO_ARS_RELEASE_CONTRACT.html" xlink:title="CLAS&#45;CL_XCO_ARS_RELEASE_CONTRACT">
<polygon fill="none" stroke="green" points="598.74,-396 302.79,-396 302.79,-360 598.74,-360 598.74,-396"/>
<text text-anchor="middle" x="450.76" y="-373.8" font-family="Times,serif" font-size="14.00">CLAS&#45;CL_XCO_ARS_RELEASE_CONTRACT</text>
</a>
</g>
</g>
<!-- CLAS&#45;CL_XCO_CP_ARS_RELEASE_CNTRCT_F&#45;&gt;CLAS&#45;CL_XCO_ARS_RELEASE_CONTRACT -->
<g id="edge2" class="edge">
<title>CLAS&#45;CL_XCO_CP_ARS_RELEASE_CNTRCT_F&#45;&gt;CLAS&#45;CL_XCO_ARS_RELEASE_CONTRACT</title>
<path fill="none" stroke="black" d="M624.96,-431.97C590.22,-422.06 547.48,-409.51 513,-399.12"/>
<polygon fill="black" stroke="black" points="513.63,-395.66 503.04,-396.11 511.6,-402.36 513.63,-395.66"/>
</g>
<!-- CLAS&#45;CL_XCO_CP_ARS_RELEASE_CNTRCT_F&#45;&gt;CLAS&#45;CL_XCO_ARS_RELEASE_CONTRACT -->
<g id="edge24" class="edge">
<title>CLAS&#45;CL_XCO_CP_ARS_RELEASE_CNTRCT_F&#45;&gt;CLAS&#45;CL_XCO_ARS_RELEASE_CONTRACT</title>
<path fill="none" stroke="black" d="M636.73,-431.97C603.95,-422.01 561.17,-409.41 524.88,-398.99"/>
<polygon fill="black" stroke="black" points="525.41,-395.5 514.83,-396.11 523.48,-402.23 525.41,-395.5"/>
</g>
<!-- CLAS&#45;XCO_CP_ARS -->
<g id="node5" class="node">
<title>CLAS&#45;XCO_CP_ARS</title>
<g id="a_node5"><a xlink:href="./CLAS_XCO_CP_ARS.html" xlink:title="CLAS&#45;XCO_CP_ARS">
<polygon fill="none" stroke="green" points="761.1,-396 616.43,-396 616.43,-360 761.1,-360 761.1,-396"/>
<text text-anchor="middle" x="688.76" y="-373.8" font-family="Times,serif" font-size="14.00">CLAS&#45;XCO_CP_ARS</text>
</a>
</g>
</g>
<!-- CLAS&#45;CL_XCO_CP_ARS_RELEASE_CNTRCT_F&#45;&gt;CLAS&#45;XCO_CP_ARS -->
<g id="edge1" class="edge">
<title>CLAS&#45;CL_XCO_CP_ARS_RELEASE_CNTRCT_F&#45;&gt;CLAS&#45;XCO_CP_ARS</title>
<path fill="none" stroke="black" d="M676.93,-431.7C675.34,-423.98 674.89,-414.71 675.57,-406.11"/>
<polygon fill="black" stroke="black" points="679.05,-406.49 676.97,-396.1 672.12,-405.52 679.05,-406.49"/>
</g>
<!-- CLAS&#45;CL_XCO_CP_ARS_RELEASE_CNTRCT_F&#45;&gt;CLAS&#45;XCO_CP_ARS -->
<g id="edge23" class="edge">
<title>CLAS&#45;CL_XCO_CP_ARS_RELEASE_CNTRCT_F&#45;&gt;CLAS&#45;XCO_CP_ARS</title>
<path fill="none" stroke="black" d="M700.59,-431.7C702.18,-423.98 702.64,-414.71 701.95,-406.11"/>
<polygon fill="black" stroke="black" points="705.4,-405.52 700.55,-396.1 698.47,-406.49 705.4,-405.52"/>
</g>
<!-- DTEL&#45;ARS_RELEASE_CONTRACT -->
<g id="node3" class="node">
<title>DTEL&#45;ARS_RELEASE_CONTRACT</title>
<g id="a_node3"><a xlink:href="./DTEL_ARS_RELEASE_CONTRACT.html" xlink:title="DTEL&#45;ARS_RELEASE_CONTRACT">
<polygon fill="none" stroke="yellow" points="237.78,-324 3.74,-324 3.74,-288 237.78,-288 237.78,-324"/>
<text text-anchor="middle" x="120.76" y="-301.8" font-family="Times,serif" font-size="14.00">DTEL&#45;ARS_RELEASE_CONTRACT</text>
</a>
</g>
</g>
<!-- CLAS&#45;CL_XCO_ARS_RELEASE_CONTRACT&#45;&gt;DTEL&#45;ARS_RELEASE_CONTRACT -->
<g id="edge3" class="edge">
<title>CLAS&#45;CL_XCO_ARS_RELEASE_CONTRACT&#45;&gt;DTEL&#45;ARS_RELEASE_CONTRACT</title>
<path fill="none" stroke="black" d="M370.46,-359.97C322.25,-349.74 260.82,-336.71 210.95,-326.13"/>
<polygon fill="black" stroke="black" points="211.65,-322.7 201.14,-324.05 210.2,-329.55 211.65,-322.7"/>
</g>
<!-- DOMA&#45;ARS_RELEASE_CONTRACT -->
<g id="node4" class="node">
<title>DOMA&#45;ARS_RELEASE_CONTRACT</title>
<g id="a_node4"><a xlink:href="./DOMA_ARS_RELEASE_CONTRACT.html" xlink:title="DOMA&#45;ARS_RELEASE_CONTRACT">
<polygon fill="none" stroke="yellow" points="241.28,-252 0.24,-252 0.24,-216 241.28,-216 241.28,-252"/>
<text text-anchor="middle" x="120.76" y="-229.8" font-family="Times,serif" font-size="14.00">DOMA&#45;ARS_RELEASE_CONTRACT</text>
</a>
</g>
</g>
<!-- DTEL&#45;ARS_RELEASE_CONTRACT&#45;&gt;DOMA&#45;ARS_RELEASE_CONTRACT -->
<g id="edge4" class="edge">
<title>DTEL&#45;ARS_RELEASE_CONTRACT&#45;&gt;DOMA&#45;ARS_RELEASE_CONTRACT</title>
<path fill="none" stroke="black" d="M120.76,-287.7C120.76,-279.98 120.76,-270.71 120.76,-262.11"/>
<polygon fill="black" stroke="black" points="124.26,-262.1 120.76,-252.1 117.26,-262.1 124.26,-262.1"/>
</g>
<!-- CLAS&#45;XCO_CP_ARS&#45;&gt;CLAS&#45;CL_XCO_CP_ARS_RELEASE_CNTRCT_F -->
<g id="edge5" class="edge">
<title>CLAS&#45;XCO_CP_ARS&#45;&gt;CLAS&#45;CL_XCO_CP_ARS_RELEASE_CNTRCT_F</title>
<path fill="none" stroke="black" d="M688.76,-396.1C688.76,-403.79 688.76,-413.05 688.76,-421.67"/>
<polygon fill="black" stroke="black" points="685.26,-421.7 688.76,-431.7 692.26,-421.7 685.26,-421.7"/>
</g>
<!-- CLAS&#45;CL_XCO_CP_ARS_API_STATE_FCTRY -->
<g id="node6" class="node">
<title>CLAS&#45;CL_XCO_CP_ARS_API_STATE_FCTRY</title>
<g id="a_node6"><a xlink:href="./CLAS_CL_XCO_CP_ARS_API_STATE_FCTRY.html" xlink:title="CLAS&#45;CL_XCO_CP_ARS_API_STATE_FCTRY">
<polygon fill="none" stroke="green" points="839.7,-324 537.83,-324 537.83,-288 839.7,-288 839.7,-324"/>
<text text-anchor="middle" x="688.76" y="-301.8" font-family="Times,serif" font-size="14.00">CLAS&#45;CL_XCO_CP_ARS_API_STATE_FCTRY</text>
</a>
</g>
</g>
<!-- CLAS&#45;XCO_CP_ARS&#45;&gt;CLAS&#45;CL_XCO_CP_ARS_API_STATE_FCTRY -->
<g id="edge8" class="edge">
<title>CLAS&#45;XCO_CP_ARS&#45;&gt;CLAS&#45;CL_XCO_CP_ARS_API_STATE_FCTRY</title>
<path fill="none" stroke="black" d="M682.85,-359.7C682.05,-351.98 681.82,-342.71 682.17,-334.11"/>
<polygon fill="black" stroke="black" points="685.66,-334.32 682.87,-324.1 678.68,-333.84 685.66,-334.32"/>
</g>
<!-- CLAS&#45;CL_XCO_CP_ARS_VISIBILITY_F -->
<g id="node15" class="node">
<title>CLAS&#45;CL_XCO_CP_ARS_VISIBILITY_F</title>
<g id="a_node15"><a xlink:href="./CLAS_CL_XCO_CP_ARS_VISIBILITY_F.html" xlink:title="CLAS&#45;CL_XCO_CP_ARS_VISIBILITY_F">
<polygon fill="none" stroke="green" points="519.85,-324 255.68,-324 255.68,-288 519.85,-288 519.85,-324"/>
<text text-anchor="middle" x="387.76" y="-301.8" font-family="Times,serif" font-size="14.00">CLAS&#45;CL_XCO_CP_ARS_VISIBILITY_F</text>
</a>
</g>
</g>
<!-- CLAS&#45;XCO_CP_ARS&#45;&gt;CLAS&#45;CL_XCO_CP_ARS_VISIBILITY_F -->
<g id="edge7" class="edge">
<title>CLAS&#45;XCO_CP_ARS&#45;&gt;CLAS&#45;CL_XCO_CP_ARS_VISIBILITY_F</title>
<path fill="none" stroke="black" d="M616.24,-361.46C570.46,-351.1 511.44,-337.41 464.83,-326.34"/>
<polygon fill="black" stroke="black" points="465.62,-322.93 455.08,-324.02 464,-329.74 465.62,-322.93"/>
</g>
<!-- CLAS&#45;CL_XCO_CP_ARS_RELEASE_STATE_F -->
<g id="node16" class="node">
<title>CLAS&#45;CL_XCO_CP_ARS_RELEASE_STATE_F</title>
<g id="a_node16"><a xlink:href="./CLAS_CL_XCO_CP_ARS_RELEASE_STATE_F.html" xlink:title="CLAS&#45;CL_XCO_CP_ARS_RELEASE_STATE_F">
<polygon fill="none" stroke="green" points="1160.25,-324 857.27,-324 857.27,-288 1160.25,-288 1160.25,-324"/>
<text text-anchor="middle" x="1008.76" y="-301.8" font-family="Times,serif" font-size="14.00">CLAS&#45;CL_XCO_CP_ARS_RELEASE_STATE_F</text>
</a>
</g>
</g>
<!-- CLAS&#45;XCO_CP_ARS&#45;&gt;CLAS&#45;CL_XCO_CP_ARS_RELEASE_STATE_F -->
<g id="edge6" class="edge">
<title>CLAS&#45;XCO_CP_ARS&#45;&gt;CLAS&#45;CL_XCO_CP_ARS_RELEASE_STATE_F</title>
<path fill="none" stroke="black" d="M760.74,-359.97C806.31,-349.76 865.67,-336.76 914.9,-326.2"/>
<polygon fill="black" stroke="black" points="915.88,-329.57 924.93,-324.05 914.42,-322.72 915.88,-329.57"/>
</g>
<!-- CLAS&#45;CL_XCO_CP_ARS_API_STATE_FCTRY&#45;&gt;CLAS&#45;XCO_CP_ARS -->
<g id="edge10" class="edge">
<title>CLAS&#45;CL_XCO_CP_ARS_API_STATE_FCTRY&#45;&gt;CLAS&#45;XCO_CP_ARS</title>
<path fill="none" stroke="black" d="M694.66,-324.1C695.46,-331.79 695.7,-341.05 695.36,-349.67"/>
<polygon fill="black" stroke="black" points="691.87,-349.48 694.68,-359.7 698.85,-349.96 691.87,-349.48"/>
</g>
<!-- CLAS&#45;CL_XCO_ARS_API_STATE -->
<g id="node7" class="node">
<title>CLAS&#45;CL_XCO_ARS_API_STATE</title>
<g id="a_node7"><a xlink:href="./CLAS_CL_XCO_ARS_API_STATE.html" xlink:title="CLAS&#45;CL_XCO_ARS_API_STATE">
<polygon fill="none" stroke="green" points="830.46,-252 605.06,-252 605.06,-216 830.46,-216 830.46,-252"/>
<text text-anchor="middle" x="717.76" y="-229.8" font-family="Times,serif" font-size="14.00">CLAS&#45;CL_XCO_ARS_API_STATE</text>
</a>
</g>
</g>
<!-- CLAS&#45;CL_XCO_CP_ARS_API_STATE_FCTRY&#45;&gt;CLAS&#45;CL_XCO_ARS_API_STATE -->
<g id="edge11" class="edge">
<title>CLAS&#45;CL_XCO_CP_ARS_API_STATE_FCTRY&#45;&gt;CLAS&#45;CL_XCO_ARS_API_STATE</title>
<path fill="none" stroke="black" d="M695.93,-287.7C699.2,-279.81 703.13,-270.3 706.76,-261.55"/>
<polygon fill="black" stroke="black" points="710.08,-262.68 710.67,-252.1 703.61,-260 710.08,-262.68"/>
</g>
<!-- TTYP&#45;SXCO_T_ARS_VISIBILITIES -->
<g id="node11" class="node">
<title>TTYP&#45;SXCO_T_ARS_VISIBILITIES</title>
<g id="a_node11"><a xlink:href="./TTYP_SXCO_T_ARS_VISIBILITIES.html" xlink:title="TTYP&#45;SXCO_T_ARS_VISIBILITIES">
<polygon fill="none" stroke="green" points="661.5,-180 428.03,-180 428.03,-144 661.5,-144 661.5,-180"/>
<text text-anchor="middle" x="544.76" y="-157.8" font-family="Times,serif" font-size="14.00">TTYP&#45;SXCO_T_ARS_VISIBILITIES</text>
</a>
</g>
</g>
<!-- CLAS&#45;CL_XCO_CP_ARS_API_STATE_FCTRY&#45;&gt;TTYP&#45;SXCO_T_ARS_VISIBILITIES -->
<g id="edge9" class="edge">
<title>CLAS&#45;CL_XCO_CP_ARS_API_STATE_FCTRY&#45;&gt;TTYP&#45;SXCO_T_ARS_VISIBILITIES</title>
<path fill="none" stroke="black" d="M648.51,-287.98C630.84,-279.11 610.76,-266.96 595.76,-252 577.83,-234.11 564.08,-208.63 555.4,-189.52"/>
<polygon fill="black" stroke="black" points="558.54,-187.94 551.33,-180.18 552.12,-190.74 558.54,-187.94"/>
</g>
<!-- CLAS&#45;CL_XCO_ARS_RELEASE_STATE -->
<g id="node8" class="node">
<title>CLAS&#45;CL_XCO_ARS_RELEASE_STATE</title>
<g id="a_node8"><a xlink:href="./CLAS_CL_XCO_ARS_RELEASE_STATE.html" xlink:title="CLAS&#45;CL_XCO_ARS_RELEASE_STATE">
<polygon fill="none" stroke="green" points="1125.85,-180 861.67,-180 861.67,-144 1125.85,-144 1125.85,-180"/>
<text text-anchor="middle" x="993.76" y="-157.8" font-family="Times,serif" font-size="14.00">CLAS&#45;CL_XCO_ARS_RELEASE_STATE</text>
</a>
</g>
</g>
<!-- CLAS&#45;CL_XCO_ARS_API_STATE&#45;&gt;CLAS&#45;CL_XCO_ARS_RELEASE_STATE -->
<g id="edge14" class="edge">
<title>CLAS&#45;CL_XCO_ARS_API_STATE&#45;&gt;CLAS&#45;CL_XCO_ARS_RELEASE_STATE</title>
<path fill="none" stroke="black" d="M784.93,-215.97C824.66,-205.89 875.15,-193.08 916.53,-182.59"/>
<polygon fill="black" stroke="black" points="917.46,-185.96 926.3,-180.11 915.74,-179.18 917.46,-185.96"/>
</g>
<!-- CLAS&#45;CL_XCO_ARS_API_STATE&#45;&gt;TTYP&#45;SXCO_T_ARS_VISIBILITIES -->
<g id="edge13" class="edge">
<title>CLAS&#45;CL_XCO_ARS_API_STATE&#45;&gt;TTYP&#45;SXCO_T_ARS_VISIBILITIES</title>
<path fill="none" stroke="black" d="M675.44,-215.88C651.58,-206.22 621.59,-194.09 596.36,-183.88"/>
<polygon fill="black" stroke="black" points="597.53,-180.57 586.94,-180.07 594.9,-187.06 597.53,-180.57"/>
</g>
<!-- DTEL&#45;SFTGL_FT_ID -->
<g id="node13" class="node">
<title>DTEL&#45;SFTGL_FT_ID</title>
<g id="a_node13"><a xlink:href="./DTEL_SFTGL_FT_ID.html" xlink:title="DTEL&#45;SFTGL_FT_ID">
<polygon fill="none" stroke="yellow" points="824.07,-180 679.46,-180 679.46,-144 824.07,-144 824.07,-180"/>
<text text-anchor="middle" x="751.76" y="-157.8" font-family="Times,serif" font-size="14.00">DTEL&#45;SFTGL_FT_ID</text>
</a>
</g>
</g>
<!-- CLAS&#45;CL_XCO_ARS_API_STATE&#45;&gt;DTEL&#45;SFTGL_FT_ID -->
<g id="edge12" class="edge">
<title>CLAS&#45;CL_XCO_ARS_API_STATE&#45;&gt;DTEL&#45;SFTGL_FT_ID</title>
<path fill="none" stroke="black" d="M726.17,-215.7C730.04,-207.73 734.71,-198.1 739,-189.26"/>
<polygon fill="black" stroke="black" points="742.23,-190.63 743.45,-180.1 735.94,-187.57 742.23,-190.63"/>
</g>
<!-- DTEL&#45;ARS_RELEASE_STATE -->
<g id="node9" class="node">
<title>DTEL&#45;ARS_RELEASE_STATE</title>
<g id="a_node9"><a xlink:href="./DTEL_ARS_RELEASE_STATE.html" xlink:title="DTEL&#45;ARS_RELEASE_STATE">
<polygon fill="none" stroke="yellow" points="1094.9,-108 892.63,-108 892.63,-72 1094.9,-72 1094.9,-108"/>
<text text-anchor="middle" x="993.76" y="-85.8" font-family="Times,serif" font-size="14.00">DTEL&#45;ARS_RELEASE_STATE</text>
</a>
</g>
</g>
<!-- CLAS&#45;CL_XCO_ARS_RELEASE_STATE&#45;&gt;DTEL&#45;ARS_RELEASE_STATE -->
<g id="edge15" class="edge">
<title>CLAS&#45;CL_XCO_ARS_RELEASE_STATE&#45;&gt;DTEL&#45;ARS_RELEASE_STATE</title>
<path fill="none" stroke="black" d="M993.76,-143.7C993.76,-135.98 993.76,-126.71 993.76,-118.11"/>
<polygon fill="black" stroke="black" points="997.26,-118.1 993.76,-108.1 990.26,-118.1 997.26,-118.1"/>
</g>
<!-- DOMA&#45;ARS_RELEASE_STATE -->
<g id="node10" class="node">
<title>DOMA&#45;ARS_RELEASE_STATE</title>
<g id="a_node10"><a xlink:href="./DOMA_ARS_RELEASE_STATE.html" xlink:title="DOMA&#45;ARS_RELEASE_STATE">
<polygon fill="none" stroke="yellow" points="1098.4,-36 889.13,-36 889.13,0 1098.4,0 1098.4,-36"/>
<text text-anchor="middle" x="993.76" y="-13.8" font-family="Times,serif" font-size="14.00">DOMA&#45;ARS_RELEASE_STATE</text>
</a>
</g>
</g>
<!-- DTEL&#45;ARS_RELEASE_STATE&#45;&gt;DOMA&#45;ARS_RELEASE_STATE -->
<g id="edge16" class="edge">
<title>DTEL&#45;ARS_RELEASE_STATE&#45;&gt;DOMA&#45;ARS_RELEASE_STATE</title>
<path fill="none" stroke="black" d="M993.76,-71.7C993.76,-63.98 993.76,-54.71 993.76,-46.11"/>
<polygon fill="black" stroke="black" points="997.26,-46.1 993.76,-36.1 990.26,-46.1 997.26,-46.1"/>
</g>
<!-- CLAS&#45;CL_XCO_ARS_VISIBILITY -->
<g id="node12" class="node">
<title>CLAS&#45;CL_XCO_ARS_VISIBILITY</title>
<g id="a_node12"><a xlink:href="./CLAS_CL_XCO_ARS_VISIBILITY.html" xlink:title="CLAS&#45;CL_XCO_ARS_VISIBILITY">
<polygon fill="none" stroke="green" points="585.44,-108 360.08,-108 360.08,-72 585.44,-72 585.44,-108"/>
<text text-anchor="middle" x="472.76" y="-85.8" font-family="Times,serif" font-size="14.00">CLAS&#45;CL_XCO_ARS_VISIBILITY</text>
</a>
</g>
</g>
<!-- TTYP&#45;SXCO_T_ARS_VISIBILITIES&#45;&gt;CLAS&#45;CL_XCO_ARS_VISIBILITY -->
<g id="edge17" class="edge">
<title>TTYP&#45;SXCO_T_ARS_VISIBILITIES&#45;&gt;CLAS&#45;CL_XCO_ARS_VISIBILITY</title>
<path fill="none" stroke="black" d="M526.96,-143.7C518.16,-135.14 507.38,-124.66 497.76,-115.3"/>
<polygon fill="black" stroke="black" points="499.96,-112.57 490.35,-108.1 495.08,-117.58 499.96,-112.57"/>
</g>
<!-- DOMA&#45;FTGL_ID -->
<g id="node14" class="node">
<title>DOMA&#45;FTGL_ID</title>
<g id="a_node14"><a xlink:href="./DOMA_FTGL_ID.html" xlink:title="DOMA&#45;FTGL_ID">
<polygon fill="none" stroke="yellow" points="811.95,-108 691.57,-108 691.57,-72 811.95,-72 811.95,-108"/>
<text text-anchor="middle" x="751.76" y="-85.8" font-family="Times,serif" font-size="14.00">DOMA&#45;FTGL_ID</text>
</a>
</g>
</g>
<!-- DTEL&#45;SFTGL_FT_ID&#45;&gt;DOMA&#45;FTGL_ID -->
<g id="edge18" class="edge">
<title>DTEL&#45;SFTGL_FT_ID&#45;&gt;DOMA&#45;FTGL_ID</title>
<path fill="none" stroke="black" d="M751.76,-143.7C751.76,-135.98 751.76,-126.71 751.76,-118.11"/>
<polygon fill="black" stroke="black" points="755.26,-118.1 751.76,-108.1 748.26,-118.1 755.26,-118.1"/>
</g>
<!-- CLAS&#45;CL_XCO_CP_ARS_VISIBILITY_F&#45;&gt;CLAS&#45;XCO_CP_ARS -->
<g id="edge19" class="edge">
<title>CLAS&#45;CL_XCO_CP_ARS_VISIBILITY_F&#45;&gt;CLAS&#45;XCO_CP_ARS</title>
<path fill="none" stroke="black" d="M466.97,-324.05C511.65,-334.19 567.19,-347.09 611.54,-357.62"/>
<polygon fill="black" stroke="black" points="610.86,-361.06 621.4,-359.97 612.48,-354.25 610.86,-361.06"/>
</g>
<!-- CLAS&#45;CL_XCO_CP_ARS_VISIBILITY_F&#45;&gt;CLAS&#45;CL_XCO_ARS_VISIBILITY -->
<g id="edge20" class="edge">
<title>CLAS&#45;CL_XCO_CP_ARS_VISIBILITY_F&#45;&gt;CLAS&#45;CL_XCO_ARS_VISIBILITY</title>
<path fill="none" stroke="black" d="M387.78,-287.92C388.5,-257.26 393.19,-191.66 418.76,-144 424.53,-133.26 433.21,-123.34 441.93,-115.06"/>
<polygon fill="black" stroke="black" points="444.44,-117.51 449.54,-108.22 439.77,-112.3 444.44,-117.51"/>
</g>
<!-- CLAS&#45;CL_XCO_CP_ARS_RELEASE_STATE_F&#45;&gt;CLAS&#45;XCO_CP_ARS -->
<g id="edge21" class="edge">
<title>CLAS&#45;CL_XCO_CP_ARS_RELEASE_STATE_F&#45;&gt;CLAS&#45;XCO_CP_ARS</title>
<path fill="none" stroke="black" d="M936.77,-324.04C887.59,-335.05 822.36,-349.32 771.11,-360.27"/>
<polygon fill="black" stroke="black" points="770.11,-356.9 761.06,-362.41 771.57,-363.75 770.11,-356.9"/>
</g>
<!-- CLAS&#45;CL_XCO_CP_ARS_RELEASE_STATE_F&#45;&gt;CLAS&#45;CL_XCO_ARS_RELEASE_STATE -->
<g id="edge22" class="edge">
<title>CLAS&#45;CL_XCO_CP_ARS_RELEASE_STATE_F&#45;&gt;CLAS&#45;CL_XCO_ARS_RELEASE_STATE</title>
<path fill="none" stroke="black" d="M1006.95,-287.87C1004.4,-263.67 999.7,-219.21 996.65,-190.39"/>
<polygon fill="black" stroke="black" points="1000.11,-189.77 995.58,-180.19 993.15,-190.5 1000.11,-189.77"/>
</g>
</g>
</svg>
