<?xml version="1.0" encoding="UTF-8" standalone="no"?>
<!DOCTYPE svg PUBLIC "-//W3C//DTD SVG 1.1//EN"
 "http://www.w3.org/Graphics/SVG/1.1/DTD/svg11.dtd">
<!-- Generated by graphviz version 2.47.3 (20210619.1520)
 -->
<!-- Title: G Pages: 1 -->
<svg width="1427pt" height="548pt"
 viewBox="0.00 0.00 1426.65 548.00" xmlns="http://www.w3.org/2000/svg" xmlns:xlink="http://www.w3.org/1999/xlink">
<g id="graph0" class="graph" transform="scale(1 1) rotate(0) translate(4 544)">
<title>G</title>
<polygon fill="white" stroke="transparent" points="-4,4 -4,-544 1422.65,-544 1422.65,4 -4,4"/>
<!-- CLAS&#45;CX_RAP_QUERY_RESPONSE_SET_TWIC -->
<g id="node1" class="node">
<title>CLAS&#45;CX_RAP_QUERY_RESPONSE_SET_TWIC</title>
<polygon fill="none" stroke="green" points="717.57,-540 400.63,-540 400.63,-504 717.57,-504 717.57,-540"/>
<text text-anchor="middle" x="559.1" y="-517.8" font-family="Times,serif" font-size="14.00">CLAS&#45;CX_RAP_QUERY_RESPONSE_SET_TWIC</text>
</g>
<!-- INTF&#45;IF_T100_DYN_MSG -->
<g id="node2" class="node">
<title>INTF&#45;IF_T100_DYN_MSG</title>
<g id="a_node2"><a xlink:href="./INTF_IF_T100_DYN_MSG.html" xlink:title="INTF&#45;IF_T100_DYN_MSG">
<polygon fill="none" stroke="green" points="543.01,-324 367.19,-324 367.19,-288 543.01,-288 543.01,-324"/>
<text text-anchor="middle" x="455.1" y="-301.8" font-family="Times,serif" font-size="14.00">INTF&#45;IF_T100_DYN_MSG</text>
</a>
</g>
</g>
<!-- CLAS&#45;CX_RAP_QUERY_RESPONSE_SET_TWIC&#45;&gt;INTF&#45;IF_T100_DYN_MSG -->
<g id="edge2" class="edge">
<title>CLAS&#45;CX_RAP_QUERY_RESPONSE_SET_TWIC&#45;&gt;INTF&#45;IF_T100_DYN_MSG</title>
<path fill="none" stroke="black" d="M525.98,-503.95C511.91,-495.08 496.59,-482.93 487.1,-468 460.89,-426.77 455.43,-368.55 454.69,-334.59"/>
<polygon fill="black" stroke="black" points="458.19,-334.44 454.59,-324.47 451.19,-334.51 458.19,-334.44"/>
</g>
<!-- CLAS&#45;CX_RAP_QUERY_PROVIDER_CONTRACT -->
<g id="node15" class="node">
<title>CLAS&#45;CX_RAP_QUERY_PROVIDER_CONTRACT</title>
<g id="a_node15"><a xlink:href="./CLAS_CX_RAP_QUERY_PROVIDER_CONTRACT.html" xlink:title="CLAS&#45;CX_RAP_QUERY_PROVIDER_CONTRACT">
<polygon fill="none" stroke="yellow" points="820.34,-468 495.86,-468 495.86,-432 820.34,-432 820.34,-468"/>
<text text-anchor="middle" x="658.1" y="-445.8" font-family="Times,serif" font-size="14.00">CLAS&#45;CX_RAP_QUERY_PROVIDER_CONTRACT</text>
</a>
</g>
</g>
<!-- CLAS&#45;CX_RAP_QUERY_RESPONSE_SET_TWIC&#45;&gt;CLAS&#45;CX_RAP_QUERY_PROVIDER_CONTRACT -->
<g id="edge1" class="edge">
<title>CLAS&#45;CX_RAP_QUERY_RESPONSE_SET_TWIC&#45;&gt;CLAS&#45;CX_RAP_QUERY_PROVIDER_CONTRACT</title>
<path fill="none" stroke="black" d="M583.32,-503.88C596.02,-494.89 611.76,-483.76 625.52,-474.03"/>
<polygon fill="black" stroke="black" points="627.64,-476.82 633.79,-468.19 623.6,-471.11 627.64,-476.82"/>
</g>
<!-- INTF&#45;IF_T100_MESSAGE -->
<g id="node3" class="node">
<title>INTF&#45;IF_T100_MESSAGE</title>
<g id="a_node3"><a xlink:href="./INTF_IF_T100_MESSAGE.html" xlink:title="INTF&#45;IF_T100_MESSAGE">
<polygon fill="none" stroke="green" points="541.69,-252 368.51,-252 368.51,-216 541.69,-216 541.69,-252"/>
<text text-anchor="middle" x="455.1" y="-229.8" font-family="Times,serif" font-size="14.00">INTF&#45;IF_T100_MESSAGE</text>
</a>
</g>
</g>
<!-- INTF&#45;IF_T100_DYN_MSG&#45;&gt;INTF&#45;IF_T100_MESSAGE -->
<g id="edge6" class="edge">
<title>INTF&#45;IF_T100_DYN_MSG&#45;&gt;INTF&#45;IF_T100_MESSAGE</title>
<path fill="none" stroke="black" d="M455.1,-287.7C455.1,-279.98 455.1,-270.71 455.1,-262.11"/>
<polygon fill="black" stroke="black" points="458.6,-262.1 455.1,-252.1 451.6,-262.1 458.6,-262.1"/>
</g>
<!-- INTF&#45;IF_MESSAGE -->
<g id="node4" class="node">
<title>INTF&#45;IF_MESSAGE</title>
<g id="a_node4"><a xlink:href="./INTF_IF_MESSAGE.html" xlink:title="INTF&#45;IF_MESSAGE">
<polygon fill="none" stroke="green" points="722.14,-180 586.07,-180 586.07,-144 722.14,-144 722.14,-180"/>
<text text-anchor="middle" x="654.1" y="-157.8" font-family="Times,serif" font-size="14.00">INTF&#45;IF_MESSAGE</text>
</a>
</g>
</g>
<!-- INTF&#45;IF_T100_DYN_MSG&#45;&gt;INTF&#45;IF_MESSAGE -->
<g id="edge5" class="edge">
<title>INTF&#45;IF_T100_DYN_MSG&#45;&gt;INTF&#45;IF_MESSAGE</title>
<path fill="none" stroke="black" d="M490.35,-287.79C508.97,-278.14 531.89,-265.39 551.1,-252 579.35,-232.32 608.79,-206.22 628.93,-187.38"/>
<polygon fill="black" stroke="black" points="631.57,-189.7 636.44,-180.29 626.76,-184.62 631.57,-189.7"/>
</g>
<!-- DTEL&#45;SYMSGTY -->
<g id="node11" class="node">
<title>DTEL&#45;SYMSGTY</title>
<g id="a_node11"><a xlink:href="./DTEL_SYMSGTY.html" xlink:title="DTEL&#45;SYMSGTY">
<polygon fill="none" stroke="green" points="151.91,-252 28.29,-252 28.29,-216 151.91,-216 151.91,-252"/>
<text text-anchor="middle" x="90.1" y="-229.8" font-family="Times,serif" font-size="14.00">DTEL&#45;SYMSGTY</text>
</a>
</g>
</g>
<!-- INTF&#45;IF_T100_DYN_MSG&#45;&gt;DTEL&#45;SYMSGTY -->
<g id="edge4" class="edge">
<title>INTF&#45;IF_T100_DYN_MSG&#45;&gt;DTEL&#45;SYMSGTY</title>
<path fill="none" stroke="black" d="M367.21,-288.14C304.3,-276.08 220.65,-260.04 161.77,-248.75"/>
<polygon fill="black" stroke="black" points="162.29,-245.28 151.81,-246.84 160.97,-252.16 162.29,-245.28"/>
</g>
<!-- DTEL&#45;SYMSGV -->
<g id="node13" class="node">
<title>DTEL&#45;SYMSGV</title>
<g id="a_node13"><a xlink:href="./DTEL_SYMSGV.html" xlink:title="DTEL&#45;SYMSGV">
<polygon fill="none" stroke="green" points="328.36,-252 213.85,-252 213.85,-216 328.36,-216 328.36,-252"/>
<text text-anchor="middle" x="271.1" y="-229.8" font-family="Times,serif" font-size="14.00">DTEL&#45;SYMSGV</text>
</a>
</g>
</g>
<!-- INTF&#45;IF_T100_DYN_MSG&#45;&gt;DTEL&#45;SYMSGV -->
<g id="edge3" class="edge">
<title>INTF&#45;IF_T100_DYN_MSG&#45;&gt;DTEL&#45;SYMSGV</title>
<path fill="none" stroke="black" d="M410.09,-287.88C384.6,-278.18 352.53,-265.98 325.62,-255.74"/>
<polygon fill="black" stroke="black" points="326.56,-252.35 315.97,-252.07 324.07,-258.9 326.56,-252.35"/>
</g>
<!-- INTF&#45;IF_T100_MESSAGE&#45;&gt;INTF&#45;IF_MESSAGE -->
<g id="edge11" class="edge">
<title>INTF&#45;IF_T100_MESSAGE&#45;&gt;INTF&#45;IF_MESSAGE</title>
<path fill="none" stroke="black" d="M503.53,-215.97C531.33,-206.19 566.44,-193.84 595.75,-183.52"/>
<polygon fill="black" stroke="black" points="597.18,-186.73 605.46,-180.11 594.86,-180.13 597.18,-186.73"/>
</g>
<!-- TABL&#45;SCX_T100KEY -->
<g id="node5" class="node">
<title>TABL&#45;SCX_T100KEY</title>
<g id="a_node5"><a xlink:href="./TABL_SCX_T100KEY.html" xlink:title="TABL&#45;SCX_T100KEY">
<polygon fill="none" stroke="yellow" points="529.85,-180 380.35,-180 380.35,-144 529.85,-144 529.85,-180"/>
<text text-anchor="middle" x="455.1" y="-157.8" font-family="Times,serif" font-size="14.00">TABL&#45;SCX_T100KEY</text>
</a>
</g>
</g>
<!-- INTF&#45;IF_T100_MESSAGE&#45;&gt;TABL&#45;SCX_T100KEY -->
<g id="edge10" class="edge">
<title>INTF&#45;IF_T100_MESSAGE&#45;&gt;TABL&#45;SCX_T100KEY</title>
<path fill="none" stroke="black" d="M455.1,-215.7C455.1,-207.98 455.1,-198.71 455.1,-190.11"/>
<polygon fill="black" stroke="black" points="458.6,-190.1 455.1,-180.1 451.6,-190.1 458.6,-190.1"/>
</g>
<!-- DTEL&#45;SCX_ATTRNAME -->
<g id="node6" class="node">
<title>DTEL&#45;SCX_ATTRNAME</title>
<g id="a_node6"><a xlink:href="./DTEL_SCX_ATTRNAME.html" xlink:title="DTEL&#45;SCX_ATTRNAME">
<polygon fill="none" stroke="green" points="508.51,-108 339.69,-108 339.69,-72 508.51,-72 508.51,-108"/>
<text text-anchor="middle" x="424.1" y="-85.8" font-family="Times,serif" font-size="14.00">DTEL&#45;SCX_ATTRNAME</text>
</a>
</g>
</g>
<!-- INTF&#45;IF_T100_MESSAGE&#45;&gt;DTEL&#45;SCX_ATTRNAME -->
<g id="edge9" class="edge">
<title>INTF&#45;IF_T100_MESSAGE&#45;&gt;DTEL&#45;SCX_ATTRNAME</title>
<path fill="none" stroke="black" d="M411.03,-215.98C395.55,-207.62 379.84,-195.85 371.1,-180 363.37,-165.99 364.98,-158.78 371.1,-144 375.65,-133.03 383.69,-123.14 392.15,-114.96"/>
<polygon fill="black" stroke="black" points="394.54,-117.53 399.62,-108.23 389.85,-112.33 394.54,-117.53"/>
</g>
<!-- DTEL&#45;SYMSGNO -->
<g id="node7" class="node">
<title>DTEL&#45;SYMSGNO</title>
<g id="a_node7"><a xlink:href="./DTEL_SYMSGNO.html" xlink:title="DTEL&#45;SYMSGNO">
<polygon fill="none" stroke="green" points="651.46,-108 526.74,-108 526.74,-72 651.46,-72 651.46,-108"/>
<text text-anchor="middle" x="589.1" y="-85.8" font-family="Times,serif" font-size="14.00">DTEL&#45;SYMSGNO</text>
</a>
</g>
</g>
<!-- INTF&#45;IF_T100_MESSAGE&#45;&gt;DTEL&#45;SYMSGNO -->
<g id="edge8" class="edge">
<title>INTF&#45;IF_T100_MESSAGE&#45;&gt;DTEL&#45;SYMSGNO</title>
<path fill="none" stroke="black" d="M490.63,-215.79C506.78,-206.74 525.32,-194.5 539.1,-180 556.46,-161.73 569.96,-136.29 578.54,-117.29"/>
<polygon fill="black" stroke="black" points="581.79,-118.58 582.56,-108.01 575.37,-115.79 581.79,-118.58"/>
</g>
<!-- DTEL&#45;SYMSGID -->
<g id="node9" class="node">
<title>DTEL&#45;SYMSGID</title>
<g id="a_node9"><a xlink:href="./DTEL_SYMSGID.html" xlink:title="DTEL&#45;SYMSGID">
<polygon fill="none" stroke="green" points="322.02,-108 202.18,-108 202.18,-72 322.02,-72 322.02,-108"/>
<text text-anchor="middle" x="262.1" y="-85.8" font-family="Times,serif" font-size="14.00">DTEL&#45;SYMSGID</text>
</a>
</g>
</g>
<!-- INTF&#45;IF_T100_MESSAGE&#45;&gt;DTEL&#45;SYMSGID -->
<g id="edge7" class="edge">
<title>INTF&#45;IF_T100_MESSAGE&#45;&gt;DTEL&#45;SYMSGID</title>
<path fill="none" stroke="black" d="M420.5,-215.83C402.25,-206.2 379.82,-193.44 361.1,-180 333.76,-160.36 305.48,-134.26 286.18,-115.4"/>
<polygon fill="black" stroke="black" points="288.57,-112.84 278.99,-108.31 283.65,-117.83 288.57,-112.84"/>
</g>
<!-- TABL&#45;SCX_T100KEY&#45;&gt;DTEL&#45;SCX_ATTRNAME -->
<g id="edge14" class="edge">
<title>TABL&#45;SCX_T100KEY&#45;&gt;DTEL&#45;SCX_ATTRNAME</title>
<path fill="none" stroke="black" d="M447.44,-143.7C443.91,-135.73 439.64,-126.1 435.73,-117.26"/>
<polygon fill="black" stroke="black" points="438.92,-115.83 431.68,-108.1 432.52,-118.67 438.92,-115.83"/>
</g>
<!-- TABL&#45;SCX_T100KEY&#45;&gt;DTEL&#45;SYMSGNO -->
<g id="edge13" class="edge">
<title>TABL&#45;SCX_T100KEY&#45;&gt;DTEL&#45;SYMSGNO</title>
<path fill="none" stroke="black" d="M487.88,-143.88C505.73,-134.55 528,-122.92 547.1,-112.94"/>
<polygon fill="black" stroke="black" points="548.95,-115.92 556.19,-108.19 545.71,-109.72 548.95,-115.92"/>
</g>
<!-- TABL&#45;SCX_T100KEY&#45;&gt;DTEL&#45;SYMSGID -->
<g id="edge12" class="edge">
<title>TABL&#45;SCX_T100KEY&#45;&gt;DTEL&#45;SYMSGID</title>
<path fill="none" stroke="black" d="M407.89,-143.88C381.03,-134.14 347.22,-121.87 318.92,-111.61"/>
<polygon fill="black" stroke="black" points="319.75,-108.19 309.16,-108.07 317.37,-114.77 319.75,-108.19"/>
</g>
<!-- DOMA&#45;SYMSGNO -->
<g id="node8" class="node">
<title>DOMA&#45;SYMSGNO</title>
<g id="a_node8"><a xlink:href="./DOMA_SYMSGNO.html" xlink:title="DOMA&#45;SYMSGNO">
<polygon fill="none" stroke="yellow" points="654.96,-36 523.24,-36 523.24,0 654.96,0 654.96,-36"/>
<text text-anchor="middle" x="589.1" y="-13.8" font-family="Times,serif" font-size="14.00">DOMA&#45;SYMSGNO</text>
</a>
</g>
</g>
<!-- DTEL&#45;SYMSGNO&#45;&gt;DOMA&#45;SYMSGNO -->
<g id="edge15" class="edge">
<title>DTEL&#45;SYMSGNO&#45;&gt;DOMA&#45;SYMSGNO</title>
<path fill="none" stroke="black" d="M589.1,-71.7C589.1,-63.98 589.1,-54.71 589.1,-46.11"/>
<polygon fill="black" stroke="black" points="592.6,-46.1 589.1,-36.1 585.6,-46.1 592.6,-46.1"/>
</g>
<!-- DOMA&#45;ARBGB -->
<g id="node10" class="node">
<title>DOMA&#45;ARBGB</title>
<g id="a_node10"><a xlink:href="./DOMA_ARBGB.html" xlink:title="DOMA&#45;ARBGB">
<polygon fill="none" stroke="yellow" points="317.75,-36 206.45,-36 206.45,0 317.75,0 317.75,-36"/>
<text text-anchor="middle" x="262.1" y="-13.8" font-family="Times,serif" font-size="14.00">DOMA&#45;ARBGB</text>
</a>
</g>
</g>
<!-- DTEL&#45;SYMSGID&#45;&gt;DOMA&#45;ARBGB -->
<g id="edge16" class="edge">
<title>DTEL&#45;SYMSGID&#45;&gt;DOMA&#45;ARBGB</title>
<path fill="none" stroke="black" d="M262.1,-71.7C262.1,-63.98 262.1,-54.71 262.1,-46.11"/>
<polygon fill="black" stroke="black" points="265.6,-46.1 262.1,-36.1 258.6,-46.1 265.6,-46.1"/>
</g>
<!-- DOMA&#45;SYCHAR01 -->
<g id="node12" class="node">
<title>DOMA&#45;SYCHAR01</title>
<g id="a_node12"><a xlink:href="./DOMA_SYCHAR01.html" xlink:title="DOMA&#45;SYCHAR01">
<polygon fill="none" stroke="yellow" points="134.3,-180 -0.1,-180 -0.1,-144 134.3,-144 134.3,-180"/>
<text text-anchor="middle" x="67.1" y="-157.8" font-family="Times,serif" font-size="14.00">DOMA&#45;SYCHAR01</text>
</a>
</g>
</g>
<!-- DTEL&#45;SYMSGTY&#45;&gt;DOMA&#45;SYCHAR01 -->
<g id="edge17" class="edge">
<title>DTEL&#45;SYMSGTY&#45;&gt;DOMA&#45;SYCHAR01</title>
<path fill="none" stroke="black" d="M84.41,-215.7C81.85,-207.9 78.77,-198.51 75.92,-189.83"/>
<polygon fill="black" stroke="black" points="79.17,-188.51 72.72,-180.1 72.52,-190.7 79.17,-188.51"/>
</g>
<!-- DOMA&#45;SYCHAR50 -->
<g id="node14" class="node">
<title>DOMA&#45;SYCHAR50</title>
<g id="a_node14"><a xlink:href="./DOMA_SYCHAR50.html" xlink:title="DOMA&#45;SYCHAR50">
<polygon fill="none" stroke="yellow" points="286.3,-180 151.9,-180 151.9,-144 286.3,-144 286.3,-180"/>
<text text-anchor="middle" x="219.1" y="-157.8" font-family="Times,serif" font-size="14.00">DOMA&#45;SYCHAR50</text>
</a>
</g>
</g>
<!-- DTEL&#45;SYMSGV&#45;&gt;DOMA&#45;SYCHAR50 -->
<g id="edge18" class="edge">
<title>DTEL&#45;SYMSGV&#45;&gt;DOMA&#45;SYCHAR50</title>
<path fill="none" stroke="black" d="M258.25,-215.7C252.08,-207.39 244.56,-197.28 237.78,-188.14"/>
<polygon fill="black" stroke="black" points="240.58,-186.04 231.81,-180.1 234.96,-190.22 240.58,-186.04"/>
</g>
<!-- CLAS&#45;CX_SADL_DYNAMIC -->
<g id="node16" class="node">
<title>CLAS&#45;CX_SADL_DYNAMIC</title>
<g id="a_node16"><a xlink:href="./CLAS_CX_SADL_DYNAMIC.html" xlink:title="CLAS&#45;CX_SADL_DYNAMIC">
<polygon fill="none" stroke="yellow" points="791.9,-396 598.3,-396 598.3,-360 791.9,-360 791.9,-396"/>
<text text-anchor="middle" x="695.1" y="-373.8" font-family="Times,serif" font-size="14.00">CLAS&#45;CX_SADL_DYNAMIC</text>
</a>
</g>
</g>
<!-- CLAS&#45;CX_RAP_QUERY_PROVIDER_CONTRACT&#45;&gt;CLAS&#45;CX_SADL_DYNAMIC -->
<g id="edge19" class="edge">
<title>CLAS&#45;CX_RAP_QUERY_PROVIDER_CONTRACT&#45;&gt;CLAS&#45;CX_SADL_DYNAMIC</title>
<path fill="none" stroke="black" d="M667.25,-431.7C671.5,-423.64 676.66,-413.89 681.37,-404.98"/>
<polygon fill="black" stroke="black" points="684.48,-406.58 686.06,-396.1 678.29,-403.31 684.48,-406.58"/>
</g>
<!-- CLAS&#45;CX_DYNAMIC_CHECK -->
<g id="node17" class="node">
<title>CLAS&#45;CX_DYNAMIC_CHECK</title>
<g id="a_node17"><a xlink:href="./CLAS_CX_DYNAMIC_CHECK.html" xlink:title="CLAS&#45;CX_DYNAMIC_CHECK">
<polygon fill="none" stroke="green" points="835.29,-324 630.91,-324 630.91,-288 835.29,-288 835.29,-324"/>
<text text-anchor="middle" x="733.1" y="-301.8" font-family="Times,serif" font-size="14.00">CLAS&#45;CX_DYNAMIC_CHECK</text>
</a>
</g>
</g>
<!-- CLAS&#45;CX_SADL_DYNAMIC&#45;&gt;CLAS&#45;CX_DYNAMIC_CHECK -->
<g id="edge20" class="edge">
<title>CLAS&#45;CX_SADL_DYNAMIC&#45;&gt;CLAS&#45;CX_DYNAMIC_CHECK</title>
<path fill="none" stroke="black" d="M704.49,-359.7C708.87,-351.64 714.16,-341.89 719,-332.98"/>
<polygon fill="black" stroke="black" points="722.12,-334.56 723.82,-324.1 715.97,-331.22 722.12,-334.56"/>
</g>
<!-- CLAS&#45;CX_ROOT -->
<g id="node18" class="node">
<title>CLAS&#45;CX_ROOT</title>
<g id="a_node18"><a xlink:href="./CLAS_CX_ROOT.html" xlink:title="CLAS&#45;CX_ROOT">
<polygon fill="none" stroke="green" points="939.58,-252 818.62,-252 818.62,-216 939.58,-216 939.58,-252"/>
<text text-anchor="middle" x="879.1" y="-229.8" font-family="Times,serif" font-size="14.00">CLAS&#45;CX_ROOT</text>
</a>
</g>
</g>
<!-- CLAS&#45;CX_DYNAMIC_CHECK&#45;&gt;CLAS&#45;CX_ROOT -->
<g id="edge21" class="edge">
<title>CLAS&#45;CX_DYNAMIC_CHECK&#45;&gt;CLAS&#45;CX_ROOT</title>
<path fill="none" stroke="black" d="M768.82,-287.88C788.6,-278.39 813.37,-266.51 834.43,-256.42"/>
<polygon fill="black" stroke="black" points="836,-259.55 843.5,-252.07 832.97,-253.24 836,-259.55"/>
</g>
<!-- CLAS&#45;CX_ROOT&#45;&gt;INTF&#45;IF_MESSAGE -->
<g id="edge25" class="edge">
<title>CLAS&#45;CX_ROOT&#45;&gt;INTF&#45;IF_MESSAGE</title>
<path fill="none" stroke="black" d="M824.35,-215.97C792.5,-206.06 752.18,-193.51 718.78,-183.12"/>
<polygon fill="black" stroke="black" points="719.69,-179.74 709.1,-180.11 717.61,-186.42 719.69,-179.74"/>
</g>
<!-- INTF&#45;IF_SERIALIZABLE_OBJECT -->
<g id="node19" class="node">
<title>INTF&#45;IF_SERIALIZABLE_OBJECT</title>
<g id="a_node19"><a xlink:href="./INTF_IF_SERIALIZABLE_OBJECT.html" xlink:title="INTF&#45;IF_SERIALIZABLE_OBJECT">
<polygon fill="none" stroke="green" points="1270.39,-180 1041.81,-180 1041.81,-144 1270.39,-144 1270.39,-180"/>
<text text-anchor="middle" x="1156.1" y="-157.8" font-family="Times,serif" font-size="14.00">INTF&#45;IF_SERIALIZABLE_OBJECT</text>
</a>
</g>
</g>
<!-- CLAS&#45;CX_ROOT&#45;&gt;INTF&#45;IF_SERIALIZABLE_OBJECT -->
<g id="edge26" class="edge">
<title>CLAS&#45;CX_ROOT&#45;&gt;INTF&#45;IF_SERIALIZABLE_OBJECT</title>
<path fill="none" stroke="black" d="M939.89,-217.64C980.75,-207.31 1034.96,-193.61 1078.88,-182.51"/>
<polygon fill="black" stroke="black" points="1079.82,-185.89 1088.65,-180.04 1078.1,-179.1 1079.82,-185.89"/>
</g>
<!-- DTEL&#45;SYREPID -->
<g id="node20" class="node">
<title>DTEL&#45;SYREPID</title>
<g id="a_node20"><a xlink:href="./DTEL_SYREPID.html" xlink:title="DTEL&#45;SYREPID">
<polygon fill="none" stroke="green" points="1403.35,-180 1288.85,-180 1288.85,-144 1403.35,-144 1403.35,-180"/>
<text text-anchor="middle" x="1346.1" y="-157.8" font-family="Times,serif" font-size="14.00">DTEL&#45;SYREPID</text>
</a>
</g>
</g>
<!-- CLAS&#45;CX_ROOT&#45;&gt;DTEL&#45;SYREPID -->
<g id="edge24" class="edge">
<title>CLAS&#45;CX_ROOT&#45;&gt;DTEL&#45;SYREPID</title>
<path fill="none" stroke="black" d="M939.77,-227.19C1016.45,-219.35 1152.62,-203.78 1278.96,-179.89"/>
<polygon fill="black" stroke="black" points="1279.65,-183.32 1288.82,-178 1278.34,-176.44 1279.65,-183.32"/>
</g>
<!-- DTEL&#45;S380ERRID -->
<g id="node22" class="node">
<title>DTEL&#45;S380ERRID</title>
<g id="a_node22"><a xlink:href="./DTEL_S380ERRID.html" xlink:title="DTEL&#45;S380ERRID">
<polygon fill="none" stroke="yellow" points="867.8,-180 740.4,-180 740.4,-144 867.8,-144 867.8,-180"/>
<text text-anchor="middle" x="804.1" y="-157.8" font-family="Times,serif" font-size="14.00">DTEL&#45;S380ERRID</text>
</a>
</g>
</g>
<!-- CLAS&#45;CX_ROOT&#45;&gt;DTEL&#45;S380ERRID -->
<g id="edge23" class="edge">
<title>CLAS&#45;CX_ROOT&#45;&gt;DTEL&#45;S380ERRID</title>
<path fill="none" stroke="black" d="M860.56,-215.7C851.3,-207.05 839.94,-196.45 829.84,-187.03"/>
<polygon fill="black" stroke="black" points="832.13,-184.37 822.43,-180.1 827.35,-189.49 832.13,-184.37"/>
</g>
<!-- DTEL&#45;SOTR_CONC -->
<g id="node24" class="node">
<title>DTEL&#45;SOTR_CONC</title>
<g id="a_node24"><a xlink:href="./DTEL_SOTR_CONC.html" xlink:title="DTEL&#45;SOTR_CONC">
<polygon fill="none" stroke="yellow" points="1024.19,-180 886.01,-180 886.01,-144 1024.19,-144 1024.19,-180"/>
<text text-anchor="middle" x="955.1" y="-157.8" font-family="Times,serif" font-size="14.00">DTEL&#45;SOTR_CONC</text>
</a>
</g>
</g>
<!-- CLAS&#45;CX_ROOT&#45;&gt;DTEL&#45;SOTR_CONC -->
<g id="edge22" class="edge">
<title>CLAS&#45;CX_ROOT&#45;&gt;DTEL&#45;SOTR_CONC</title>
<path fill="none" stroke="black" d="M897.89,-215.7C907.27,-207.05 918.78,-196.45 929.01,-187.03"/>
<polygon fill="black" stroke="black" points="931.55,-189.45 936.53,-180.1 926.8,-184.3 931.55,-189.45"/>
</g>
<!-- DOMA&#45;PROGRAMM -->
<g id="node21" class="node">
<title>DOMA&#45;PROGRAMM</title>
<g id="a_node21"><a xlink:href="./DOMA_PROGRAMM.html" xlink:title="DOMA&#45;PROGRAMM">
<polygon fill="none" stroke="yellow" points="1418.69,-108 1273.51,-108 1273.51,-72 1418.69,-72 1418.69,-108"/>
<text text-anchor="middle" x="1346.1" y="-85.8" font-family="Times,serif" font-size="14.00">DOMA&#45;PROGRAMM</text>
</a>
</g>
</g>
<!-- DTEL&#45;SYREPID&#45;&gt;DOMA&#45;PROGRAMM -->
<g id="edge27" class="edge">
<title>DTEL&#45;SYREPID&#45;&gt;DOMA&#45;PROGRAMM</title>
<path fill="none" stroke="black" d="M1346.1,-143.7C1346.1,-135.98 1346.1,-126.71 1346.1,-118.11"/>
<polygon fill="black" stroke="black" points="1349.6,-118.1 1346.1,-108.1 1342.6,-118.1 1349.6,-118.1"/>
</g>
<!-- DOMA&#45;SYCHAR30 -->
<g id="node23" class="node">
<title>DOMA&#45;SYCHAR30</title>
<g id="a_node23"><a xlink:href="./DOMA_SYCHAR30.html" xlink:title="DOMA&#45;SYCHAR30">
<polygon fill="none" stroke="yellow" points="869.3,-108 734.9,-108 734.9,-72 869.3,-72 869.3,-108"/>
<text text-anchor="middle" x="802.1" y="-85.8" font-family="Times,serif" font-size="14.00">DOMA&#45;SYCHAR30</text>
</a>
</g>
</g>
<!-- DTEL&#45;S380ERRID&#45;&gt;DOMA&#45;SYCHAR30 -->
<g id="edge28" class="edge">
<title>DTEL&#45;S380ERRID&#45;&gt;DOMA&#45;SYCHAR30</title>
<path fill="none" stroke="black" d="M803.61,-143.7C803.39,-135.98 803.12,-126.71 802.87,-118.11"/>
<polygon fill="black" stroke="black" points="806.37,-118 802.59,-108.1 799.38,-118.2 806.37,-118"/>
</g>
<!-- DOMA&#45;SYSUUID_C -->
<g id="node25" class="node">
<title>DOMA&#45;SYSUUID_C</title>
<g id="a_node25"><a xlink:href="./DOMA_SYSUUID_C.html" xlink:title="DOMA&#45;SYSUUID_C">
<polygon fill="none" stroke="yellow" points="1027.51,-108 886.69,-108 886.69,-72 1027.51,-72 1027.51,-108"/>
<text text-anchor="middle" x="957.1" y="-85.8" font-family="Times,serif" font-size="14.00">DOMA&#45;SYSUUID_C</text>
</a>
</g>
</g>
<!-- DTEL&#45;SOTR_CONC&#45;&gt;DOMA&#45;SYSUUID_C -->
<g id="edge29" class="edge">
<title>DTEL&#45;SOTR_CONC&#45;&gt;DOMA&#45;SYSUUID_C</title>
<path fill="none" stroke="black" d="M955.59,-143.7C955.82,-135.98 956.08,-126.71 956.33,-118.11"/>
<polygon fill="black" stroke="black" points="959.82,-118.2 956.61,-108.1 952.83,-118 959.82,-118.2"/>
</g>
</g>
</svg>
