<?xml version="1.0" encoding="UTF-8" standalone="no"?>
<!DOCTYPE svg PUBLIC "-//W3C//DTD SVG 1.1//EN"
 "http://www.w3.org/Graphics/SVG/1.1/DTD/svg11.dtd">
<!-- Generated by graphviz version 2.47.3 (20210619.1520)
 -->
<!-- Title: G Pages: 1 -->
<svg width="196pt" height="188pt"
 viewBox="0.00 0.00 195.87 188.00" xmlns="http://www.w3.org/2000/svg" xmlns:xlink="http://www.w3.org/1999/xlink">
<g id="graph0" class="graph" transform="scale(1 1) rotate(0) translate(4 184)">
<title>G</title>
<polygon fill="white" stroke="transparent" points="-4,4 -4,-184 191.87,-184 191.87,4 -4,4"/>
<!-- CLAS&#45;CL_SOAP_RUNTIME -->
<g id="node1" class="node">
<title>CLAS&#45;CL_SOAP_RUNTIME</title>
<polygon fill="none" stroke="yellow" points="187.8,-180 0.07,-180 0.07,-144 187.8,-144 187.8,-180"/>
<text text-anchor="middle" x="93.93" y="-157.8" font-family="Times,serif" font-size="14.00">CLAS&#45;CL_SOAP_RUNTIME</text>
</g>
<!-- DTEL&#45;ANYURI -->
<g id="node2" class="node">
<title>DTEL&#45;ANYURI</title>
<g id="a_node2"><a xlink:href="./DTEL_ANYURI.html" xlink:title="DTEL&#45;ANYURI">
<polygon fill="none" stroke="yellow" points="149.28,-108 38.58,-108 38.58,-72 149.28,-72 149.28,-108"/>
<text text-anchor="middle" x="93.93" y="-85.8" font-family="Times,serif" font-size="14.00">DTEL&#45;ANYURI</text>
</a>
</g>
</g>
<!-- CLAS&#45;CL_SOAP_RUNTIME&#45;&gt;DTEL&#45;ANYURI -->
<g id="edge1" class="edge">
<title>CLAS&#45;CL_SOAP_RUNTIME&#45;&gt;DTEL&#45;ANYURI</title>
<path fill="none" stroke="black" d="M93.93,-143.7C93.93,-135.98 93.93,-126.71 93.93,-118.11"/>
<polygon fill="black" stroke="black" points="97.43,-118.1 93.93,-108.1 90.43,-118.1 97.43,-118.1"/>
</g>
<!-- DOMA&#45;ANYURI -->
<g id="node3" class="node">
<title>DOMA&#45;ANYURI</title>
<g id="a_node3"><a xlink:href="./DOMA_ANYURI.html" xlink:title="DOMA&#45;ANYURI">
<polygon fill="none" stroke="yellow" points="152.78,-36 35.08,-36 35.08,0 152.78,0 152.78,-36"/>
<text text-anchor="middle" x="93.93" y="-13.8" font-family="Times,serif" font-size="14.00">DOMA&#45;ANYURI</text>
</a>
</g>
</g>
<!-- DTEL&#45;ANYURI&#45;&gt;DOMA&#45;ANYURI -->
<g id="edge2" class="edge">
<title>DTEL&#45;ANYURI&#45;&gt;DOMA&#45;ANYURI</title>
<path fill="none" stroke="black" d="M93.93,-71.7C93.93,-63.98 93.93,-54.71 93.93,-46.11"/>
<polygon fill="black" stroke="black" points="97.43,-46.1 93.93,-36.1 90.43,-46.1 97.43,-46.1"/>
</g>
</g>
</svg>
