<?xml version="1.0" encoding="UTF-8" standalone="no"?>
<!DOCTYPE svg PUBLIC "-//W3C//DTD SVG 1.1//EN"
 "http://www.w3.org/Graphics/SVG/1.1/DTD/svg11.dtd">
<!-- Generated by graphviz version 2.47.3 (20210619.1520)
 -->
<!-- Title: G Pages: 1 -->
<svg width="1411pt" height="620pt"
 viewBox="0.00 0.00 1411.24 620.00" xmlns="http://www.w3.org/2000/svg" xmlns:xlink="http://www.w3.org/1999/xlink">
<g id="graph0" class="graph" transform="scale(1 1) rotate(0) translate(4 616)">
<title>G</title>
<polygon fill="white" stroke="transparent" points="-4,4 -4,-616 1407.24,-616 1407.24,4 -4,4"/>
<!-- CLAS&#45;CL_ABAP_DB_X_READER -->
<g id="node1" class="node">
<title>CLAS&#45;CL_ABAP_DB_X_READER</title>
<g id="a_node1"><a xlink:href="./CLAS_CL_ABAP_DB_X_READER.html" xlink:title="CLAS&#45;CL_ABAP_DB_X_READER">
<polygon fill="none" stroke="green" points="1064.02,-612 838.62,-612 838.62,-576 1064.02,-576 1064.02,-612"/>
<text text-anchor="middle" x="951.32" y="-589.8" font-family="Times,serif" font-size="14.00">CLAS&#45;CL_ABAP_DB_X_READER</text>
</a>
</g>
</g>
<!-- INTF&#45;IF_ABAP_DB_LOB_HANDLE -->
<g id="node2" class="node">
<title>INTF&#45;IF_ABAP_DB_LOB_HANDLE</title>
<g id="a_node2"><a xlink:href="./INTF_IF_ABAP_DB_LOB_HANDLE.html" xlink:title="INTF&#45;IF_ABAP_DB_LOB_HANDLE">
<polygon fill="none" stroke="green" points="1239.33,-252 1005.31,-252 1005.31,-216 1239.33,-216 1239.33,-252"/>
<text text-anchor="middle" x="1122.32" y="-229.8" font-family="Times,serif" font-size="14.00">INTF&#45;IF_ABAP_DB_LOB_HANDLE</text>
</a>
</g>
</g>
<!-- CLAS&#45;CL_ABAP_DB_X_READER&#45;&gt;INTF&#45;IF_ABAP_DB_LOB_HANDLE -->
<g id="edge4" class="edge">
<title>CLAS&#45;CL_ABAP_DB_X_READER&#45;&gt;INTF&#45;IF_ABAP_DB_LOB_HANDLE</title>
<path fill="none" stroke="black" d="M994.63,-575.87C1042.71,-555.01 1113.32,-514.48 1113.32,-451 1113.32,-451 1113.32,-451 1113.32,-377 1113.32,-337 1113.32,-290.65 1115.61,-262.08"/>
<polygon fill="black" stroke="black" points="1119.1,-262.35 1116.61,-252.05 1112.14,-261.65 1119.1,-262.35"/>
</g>
<!-- CLAS&#45;CL_ABAP_DB_X_READER&#45;&gt;INTF&#45;IF_ABAP_DB_LOB_HANDLE -->
<g id="edge18" class="edge">
<title>CLAS&#45;CL_ABAP_DB_X_READER&#45;&gt;INTF&#45;IF_ABAP_DB_LOB_HANDLE</title>
<path fill="none" stroke="black" d="M1007.85,-575.87C1060.71,-555.01 1131.32,-514.48 1131.32,-451 1131.32,-451 1131.32,-451 1131.32,-377 1131.32,-337 1131.32,-290.65 1129.03,-262.08"/>
<polygon fill="black" stroke="black" points="1132.5,-261.65 1128.03,-252.05 1125.54,-262.35 1132.5,-261.65"/>
</g>
<!-- INTF&#45;IF_ABAP_DB_BLOB_HANDLE -->
<g id="node4" class="node">
<title>INTF&#45;IF_ABAP_DB_BLOB_HANDLE</title>
<g id="a_node4"><a xlink:href="./INTF_IF_ABAP_DB_BLOB_HANDLE.html" xlink:title="INTF&#45;IF_ABAP_DB_BLOB_HANDLE">
<polygon fill="none" stroke="green" points="1403.16,-468 1159.47,-468 1159.47,-432 1403.16,-432 1403.16,-468"/>
<text text-anchor="middle" x="1281.32" y="-445.8" font-family="Times,serif" font-size="14.00">INTF&#45;IF_ABAP_DB_BLOB_HANDLE</text>
</a>
</g>
</g>
<!-- CLAS&#45;CL_ABAP_DB_X_READER&#45;&gt;INTF&#45;IF_ABAP_DB_BLOB_HANDLE -->
<g id="edge3" class="edge">
<title>CLAS&#45;CL_ABAP_DB_X_READER&#45;&gt;INTF&#45;IF_ABAP_DB_BLOB_HANDLE</title>
<path fill="none" stroke="black" d="M1027.6,-575.98C1061.67,-567.44 1101.78,-555.55 1136.32,-540 1175.72,-522.26 1216.66,-493.89 1245.11,-473.96"/>
<polygon fill="black" stroke="black" points="1247.34,-476.67 1253.53,-468.07 1243.33,-470.94 1247.34,-476.67"/>
</g>
<!-- CLAS&#45;CL_ABAP_DB_X_READER&#45;&gt;INTF&#45;IF_ABAP_DB_BLOB_HANDLE -->
<g id="edge17" class="edge">
<title>CLAS&#45;CL_ABAP_DB_X_READER&#45;&gt;INTF&#45;IF_ABAP_DB_BLOB_HANDLE</title>
<path fill="none" stroke="black" d="M1044.23,-575.98C1079.67,-567.44 1119.78,-555.55 1154.32,-540 1193.38,-522.41 1233.95,-494.38 1258.62,-474.48"/>
<polygon fill="black" stroke="black" points="1260.89,-477.14 1266.35,-468.07 1256.42,-471.76 1260.89,-477.14"/>
</g>
<!-- INTF&#45;IF_ABAP_DB_READER -->
<g id="node5" class="node">
<title>INTF&#45;IF_ABAP_DB_READER</title>
<g id="a_node5"><a xlink:href="./INTF_IF_ABAP_DB_READER.html" xlink:title="INTF&#45;IF_ABAP_DB_READER">
<polygon fill="none" stroke="green" points="1050.29,-540 852.34,-540 852.34,-504 1050.29,-504 1050.29,-540"/>
<text text-anchor="middle" x="951.32" y="-517.8" font-family="Times,serif" font-size="14.00">INTF&#45;IF_ABAP_DB_READER</text>
</a>
</g>
</g>
<!-- CLAS&#45;CL_ABAP_DB_X_READER&#45;&gt;INTF&#45;IF_ABAP_DB_READER -->
<g id="edge2" class="edge">
<title>CLAS&#45;CL_ABAP_DB_X_READER&#45;&gt;INTF&#45;IF_ABAP_DB_READER</title>
<path fill="none" stroke="black" d="M945.4,-575.7C944.61,-567.98 944.38,-558.71 944.72,-550.11"/>
<polygon fill="black" stroke="black" points="948.22,-550.32 945.42,-540.1 941.23,-549.84 948.22,-550.32"/>
</g>
<!-- CLAS&#45;CL_ABAP_DB_X_READER&#45;&gt;INTF&#45;IF_ABAP_DB_READER -->
<g id="edge16" class="edge">
<title>CLAS&#45;CL_ABAP_DB_X_READER&#45;&gt;INTF&#45;IF_ABAP_DB_READER</title>
<path fill="none" stroke="black" d="M957.23,-575.7C958.03,-567.98 958.26,-558.71 957.91,-550.11"/>
<polygon fill="black" stroke="black" points="961.4,-549.84 957.21,-540.1 954.42,-550.32 961.4,-549.84"/>
</g>
<!-- CLAS&#45;CL_ABAP_X_READER -->
<g id="node7" class="node">
<title>CLAS&#45;CL_ABAP_X_READER</title>
<g id="a_node7"><a xlink:href="./CLAS_CL_ABAP_X_READER.html" xlink:title="CLAS&#45;CL_ABAP_X_READER">
<polygon fill="none" stroke="yellow" points="283.58,-324 85.06,-324 85.06,-288 283.58,-288 283.58,-324"/>
<text text-anchor="middle" x="184.32" y="-301.8" font-family="Times,serif" font-size="14.00">CLAS&#45;CL_ABAP_X_READER</text>
</a>
</g>
</g>
<!-- CLAS&#45;CL_ABAP_DB_X_READER&#45;&gt;CLAS&#45;CL_ABAP_X_READER -->
<g id="edge1" class="edge">
<title>CLAS&#45;CL_ABAP_DB_X_READER&#45;&gt;CLAS&#45;CL_ABAP_X_READER</title>
<path fill="none" stroke="black" d="M838.4,-589.14C653.56,-580.35 298.37,-552.54 211.32,-468 175.29,-433.01 171.73,-370.41 175.95,-334.45"/>
<polygon fill="black" stroke="black" points="179.47,-334.61 177.48,-324.2 172.54,-333.57 179.47,-334.61"/>
</g>
<!-- CLAS&#45;CL_ABAP_DB_X_READER&#45;&gt;CLAS&#45;CL_ABAP_X_READER -->
<g id="edge15" class="edge">
<title>CLAS&#45;CL_ABAP_DB_X_READER&#45;&gt;CLAS&#45;CL_ABAP_X_READER</title>
<path fill="none" stroke="black" d="M838.41,-588.6C657.53,-579.23 314.64,-550.86 229.32,-468 193.29,-433.01 189.73,-370.41 188.17,-334.45"/>
<polygon fill="black" stroke="black" points="191.65,-334.03 187.71,-324.2 184.66,-334.34 191.65,-334.03"/>
</g>
<!-- INTF&#45;IF_ABAP_CLOSE_RESOURCE -->
<g id="node3" class="node">
<title>INTF&#45;IF_ABAP_CLOSE_RESOURCE</title>
<g id="a_node3"><a xlink:href="./INTF_IF_ABAP_CLOSE_RESOURCE.html" xlink:title="INTF&#45;IF_ABAP_CLOSE_RESOURCE">
<polygon fill="none" stroke="green" points="887.3,-108 647.34,-108 647.34,-72 887.3,-72 887.3,-108"/>
<text text-anchor="middle" x="767.32" y="-85.8" font-family="Times,serif" font-size="14.00">INTF&#45;IF_ABAP_CLOSE_RESOURCE</text>
</a>
</g>
</g>
<!-- INTF&#45;IF_ABAP_DB_LOB_HANDLE&#45;&gt;INTF&#45;IF_ABAP_CLOSE_RESOURCE -->
<g id="edge5" class="edge">
<title>INTF&#45;IF_ABAP_DB_LOB_HANDLE&#45;&gt;INTF&#45;IF_ABAP_CLOSE_RESOURCE</title>
<path fill="none" stroke="black" d="M1102.38,-215.99C1077.83,-195.9 1034.1,-162.83 991.32,-144 957.72,-129.21 919.39,-118.21 884.05,-110.19"/>
<polygon fill="black" stroke="black" points="884.69,-106.75 874.17,-108 883.17,-113.58 884.69,-106.75"/>
</g>
<!-- INTF&#45;IF_ABAP_DB_BLOB_HANDLE&#45;&gt;INTF&#45;IF_ABAP_DB_LOB_HANDLE -->
<g id="edge7" class="edge">
<title>INTF&#45;IF_ABAP_DB_BLOB_HANDLE&#45;&gt;INTF&#45;IF_ABAP_DB_LOB_HANDLE</title>
<path fill="none" stroke="black" d="M1268.58,-431.85C1240.66,-394.28 1174.01,-304.58 1141.21,-260.43"/>
<polygon fill="black" stroke="black" points="1143.9,-258.17 1135.12,-252.23 1138.28,-262.35 1143.9,-258.17"/>
</g>
<!-- INTF&#45;IF_ABAP_DB_BLOB_HANDLE&#45;&gt;INTF&#45;IF_ABAP_CLOSE_RESOURCE -->
<g id="edge6" class="edge">
<title>INTF&#45;IF_ABAP_DB_BLOB_HANDLE&#45;&gt;INTF&#45;IF_ABAP_CLOSE_RESOURCE</title>
<path fill="none" stroke="black" d="M1279.94,-431.96C1277.9,-405.32 1274.32,-352.17 1274.32,-307 1274.32,-307 1274.32,-307 1274.32,-233 1274.32,-154.81 1047.92,-117.71 897.7,-101.7"/>
<polygon fill="black" stroke="black" points="897.78,-98.19 887.47,-100.63 897.05,-105.15 897.78,-98.19"/>
</g>
<!-- INTF&#45;IF_ABAP_DB_READER&#45;&gt;INTF&#45;IF_ABAP_DB_LOB_HANDLE -->
<g id="edge11" class="edge">
<title>INTF&#45;IF_ABAP_DB_READER&#45;&gt;INTF&#45;IF_ABAP_DB_LOB_HANDLE</title>
<path fill="none" stroke="black" d="M975.9,-503.94C988.28,-494.43 1002.86,-481.75 1013.32,-468 1026.8,-450.28 1085.45,-318.73 1110.69,-261.48"/>
<polygon fill="black" stroke="black" points="1113.89,-262.89 1114.72,-252.33 1107.49,-260.07 1113.89,-262.89"/>
</g>
<!-- INTF&#45;IF_ABAP_DB_READER&#45;&gt;INTF&#45;IF_ABAP_CLOSE_RESOURCE -->
<g id="edge8" class="edge">
<title>INTF&#45;IF_ABAP_DB_READER&#45;&gt;INTF&#45;IF_ABAP_CLOSE_RESOURCE</title>
<path fill="none" stroke="black" d="M959.3,-503.75C976.55,-463.9 1013.14,-363.07 980.32,-288 945,-207.24 858.44,-144.84 807.2,-113.43"/>
<polygon fill="black" stroke="black" points="808.74,-110.28 798.37,-108.11 805.13,-116.27 808.74,-110.28"/>
</g>
<!-- CLAS&#45;CL_ABAP_SQL_SELECT_STATEMENT -->
<g id="node6" class="node">
<title>CLAS&#45;CL_ABAP_SQL_SELECT_STATEMENT</title>
<g id="a_node6"><a xlink:href="./CLAS_CL_ABAP_SQL_SELECT_STATEMENT.html" xlink:title="CLAS&#45;CL_ABAP_SQL_SELECT_STATEMENT">
<polygon fill="none" stroke="green" points="529.45,-468 229.18,-468 229.18,-432 529.45,-432 529.45,-468"/>
<text text-anchor="middle" x="379.32" y="-445.8" font-family="Times,serif" font-size="14.00">CLAS&#45;CL_ABAP_SQL_SELECT_STATEMENT</text>
</a>
</g>
</g>
<!-- INTF&#45;IF_ABAP_DB_READER&#45;&gt;CLAS&#45;CL_ABAP_SQL_SELECT_STATEMENT -->
<g id="edge10" class="edge">
<title>INTF&#45;IF_ABAP_DB_READER&#45;&gt;CLAS&#45;CL_ABAP_SQL_SELECT_STATEMENT</title>
<path fill="none" stroke="black" d="M852.34,-508.89C763.06,-497.96 630.49,-481.74 528.39,-469.24"/>
<polygon fill="black" stroke="black" points="528.65,-465.75 518.3,-468.01 527.8,-472.7 528.65,-465.75"/>
</g>
<!-- INTF&#45;IF_ABAP_READER -->
<g id="node9" class="node">
<title>INTF&#45;IF_ABAP_READER</title>
<g id="a_node9"><a xlink:href="./INTF_IF_ABAP_READER.html" xlink:title="INTF&#45;IF_ABAP_READER">
<polygon fill="none" stroke="green" points="570.85,-180 399.79,-180 399.79,-144 570.85,-144 570.85,-180"/>
<text text-anchor="middle" x="485.32" y="-157.8" font-family="Times,serif" font-size="14.00">INTF&#45;IF_ABAP_READER</text>
</a>
</g>
</g>
<!-- INTF&#45;IF_ABAP_DB_READER&#45;&gt;INTF&#45;IF_ABAP_READER -->
<g id="edge9" class="edge">
<title>INTF&#45;IF_ABAP_DB_READER&#45;&gt;INTF&#45;IF_ABAP_READER</title>
<path fill="none" stroke="black" d="M894.49,-503.93C784.97,-469.83 551.17,-390.83 502.32,-324 473.65,-284.79 475.94,-225.16 480.45,-190.54"/>
<polygon fill="black" stroke="black" points="483.98,-190.64 481.96,-180.24 477.05,-189.62 483.98,-190.64"/>
</g>
<!-- CLAS&#45;CL_ABAP_SQL_SELECT_STATEMENT&#45;&gt;CLAS&#45;CL_ABAP_DB_X_READER -->
<g id="edge14" class="edge">
<title>CLAS&#45;CL_ABAP_SQL_SELECT_STATEMENT&#45;&gt;CLAS&#45;CL_ABAP_DB_X_READER</title>
<path fill="none" stroke="black" d="M448.19,-468.1C555.05,-494.63 760.16,-545.54 872.68,-573.48"/>
<polygon fill="black" stroke="black" points="872.06,-576.93 882.61,-575.94 873.74,-570.14 872.06,-576.93"/>
</g>
<!-- CLAS&#45;CL_ABAP_DB_C_READER -->
<g id="node12" class="node">
<title>CLAS&#45;CL_ABAP_DB_C_READER</title>
<g id="a_node12"><a xlink:href="./CLAS_CL_ABAP_DB_C_READER.html" xlink:title="CLAS&#45;CL_ABAP_DB_C_READER">
<polygon fill="none" stroke="green" points="961.75,-396 736.89,-396 736.89,-360 961.75,-360 961.75,-396"/>
<text text-anchor="middle" x="849.32" y="-373.8" font-family="Times,serif" font-size="14.00">CLAS&#45;CL_ABAP_DB_C_READER</text>
</a>
</g>
</g>
<!-- CLAS&#45;CL_ABAP_SQL_SELECT_STATEMENT&#45;&gt;CLAS&#45;CL_ABAP_DB_C_READER -->
<g id="edge13" class="edge">
<title>CLAS&#45;CL_ABAP_SQL_SELECT_STATEMENT&#45;&gt;CLAS&#45;CL_ABAP_DB_C_READER</title>
<path fill="none" stroke="black" d="M493.69,-431.97C564.28,-421.45 654.79,-407.97 726.83,-397.24"/>
<polygon fill="black" stroke="black" points="727.5,-400.68 736.87,-395.75 726.47,-393.76 727.5,-400.68"/>
</g>
<!-- CLAS&#45;CL_ABAP_SQL_STATEMENT_HANDLE -->
<g id="node16" class="node">
<title>CLAS&#45;CL_ABAP_SQL_STATEMENT_HANDLE</title>
<g id="a_node16"><a xlink:href="./CLAS_CL_ABAP_SQL_STATEMENT_HANDLE.html" xlink:title="CLAS&#45;CL_ABAP_SQL_STATEMENT_HANDLE">
<polygon fill="none" stroke="green" points="529.66,-396 222.98,-396 222.98,-360 529.66,-360 529.66,-396"/>
<text text-anchor="middle" x="376.32" y="-373.8" font-family="Times,serif" font-size="14.00">CLAS&#45;CL_ABAP_SQL_STATEMENT_HANDLE</text>
</a>
</g>
</g>
<!-- CLAS&#45;CL_ABAP_SQL_SELECT_STATEMENT&#45;&gt;CLAS&#45;CL_ABAP_SQL_STATEMENT_HANDLE -->
<g id="edge12" class="edge">
<title>CLAS&#45;CL_ABAP_SQL_SELECT_STATEMENT&#45;&gt;CLAS&#45;CL_ABAP_SQL_STATEMENT_HANDLE</title>
<path fill="none" stroke="black" d="M378.58,-431.7C378.25,-423.98 377.85,-414.71 377.48,-406.11"/>
<polygon fill="black" stroke="black" points="380.98,-405.95 377.05,-396.1 373.98,-406.25 380.98,-405.95"/>
</g>
<!-- CLAS&#45;CL_ABAP_X_READER&#45;&gt;INTF&#45;IF_ABAP_CLOSE_RESOURCE -->
<g id="edge19" class="edge">
<title>CLAS&#45;CL_ABAP_X_READER&#45;&gt;INTF&#45;IF_ABAP_CLOSE_RESOURCE</title>
<path fill="none" stroke="black" d="M192.57,-288C202.72,-268.52 221.56,-236.64 245.32,-216 299.63,-168.8 321.59,-165.28 390.32,-144 470.22,-119.26 563.25,-106.03 636.9,-98.97"/>
<polygon fill="black" stroke="black" points="637.53,-102.43 647.16,-98.02 636.88,-95.46 637.53,-102.43"/>
</g>
<!-- INTF&#45;IF_ABAP_X_READER -->
<g id="node8" class="node">
<title>INTF&#45;IF_ABAP_X_READER</title>
<g id="a_node8"><a xlink:href="./INTF_IF_ABAP_X_READER.html" xlink:title="INTF&#45;IF_ABAP_X_READER">
<polygon fill="none" stroke="green" points="203.46,-252 15.18,-252 15.18,-216 203.46,-216 203.46,-252"/>
<text text-anchor="middle" x="109.32" y="-229.8" font-family="Times,serif" font-size="14.00">INTF&#45;IF_ABAP_X_READER</text>
</a>
</g>
</g>
<!-- CLAS&#45;CL_ABAP_X_READER&#45;&gt;INTF&#45;IF_ABAP_X_READER -->
<g id="edge21" class="edge">
<title>CLAS&#45;CL_ABAP_X_READER&#45;&gt;INTF&#45;IF_ABAP_X_READER</title>
<path fill="none" stroke="black" d="M165.78,-287.7C156.51,-279.05 145.16,-268.45 135.06,-259.03"/>
<polygon fill="black" stroke="black" points="137.34,-256.37 127.64,-252.1 132.57,-261.49 137.34,-256.37"/>
</g>
<!-- CLAS&#45;CL_ABAP_X_READER&#45;&gt;INTF&#45;IF_ABAP_READER -->
<g id="edge20" class="edge">
<title>CLAS&#45;CL_ABAP_X_READER&#45;&gt;INTF&#45;IF_ABAP_READER</title>
<path fill="none" stroke="black" d="M204.28,-287.73C233.8,-262.2 285.91,-217.27 288.32,-216 319.54,-199.53 356.31,-187.86 389.57,-179.73"/>
<polygon fill="black" stroke="black" points="390.39,-183.14 399.31,-177.43 388.78,-176.33 390.39,-183.14"/>
</g>
<!-- INTF&#45;IF_ABAP_X_READER&#45;&gt;INTF&#45;IF_ABAP_CLOSE_RESOURCE -->
<g id="edge23" class="edge">
<title>INTF&#45;IF_ABAP_X_READER&#45;&gt;INTF&#45;IF_ABAP_CLOSE_RESOURCE</title>
<path fill="none" stroke="black" d="M127.3,-215.95C152.43,-192.52 197.23,-152.32 217.32,-144 290.6,-113.65 498.69,-100.4 636.86,-94.81"/>
<polygon fill="black" stroke="black" points="637.24,-98.3 647.1,-94.41 636.97,-91.31 637.24,-98.3"/>
</g>
<!-- INTF&#45;IF_ABAP_X_READER&#45;&gt;INTF&#45;IF_ABAP_READER -->
<g id="edge24" class="edge">
<title>INTF&#45;IF_ABAP_X_READER&#45;&gt;INTF&#45;IF_ABAP_READER</title>
<path fill="none" stroke="black" d="M200.82,-215.97C258.05,-205.31 331.64,-191.61 389.64,-180.81"/>
<polygon fill="black" stroke="black" points="390.36,-184.24 399.55,-178.97 389.08,-177.36 390.36,-184.24"/>
</g>
<!-- DTEL&#45;ABAP_MSIZE -->
<g id="node10" class="node">
<title>DTEL&#45;ABAP_MSIZE</title>
<g id="a_node10"><a xlink:href="./DTEL_ABAP_MSIZE.html" xlink:title="DTEL&#45;ABAP_MSIZE">
<polygon fill="none" stroke="green" points="374.57,-108 232.07,-108 232.07,-72 374.57,-72 374.57,-108"/>
<text text-anchor="middle" x="303.32" y="-85.8" font-family="Times,serif" font-size="14.00">DTEL&#45;ABAP_MSIZE</text>
</a>
</g>
</g>
<!-- INTF&#45;IF_ABAP_X_READER&#45;&gt;DTEL&#45;ABAP_MSIZE -->
<g id="edge22" class="edge">
<title>INTF&#45;IF_ABAP_X_READER&#45;&gt;DTEL&#45;ABAP_MSIZE</title>
<path fill="none" stroke="black" d="M116.69,-215.97C126.04,-196.17 143.95,-163.69 168.32,-144 185.55,-130.07 206.9,-119.45 227.49,-111.52"/>
<polygon fill="black" stroke="black" points="228.7,-114.8 236.87,-108.06 226.28,-108.23 228.7,-114.8"/>
</g>
<!-- INTF&#45;IF_ABAP_READER&#45;&gt;INTF&#45;IF_ABAP_CLOSE_RESOURCE -->
<g id="edge26" class="edge">
<title>INTF&#45;IF_ABAP_READER&#45;&gt;INTF&#45;IF_ABAP_CLOSE_RESOURCE</title>
<path fill="none" stroke="black" d="M553.94,-143.97C594.63,-133.87 646.35,-121.03 688.67,-110.52"/>
<polygon fill="black" stroke="black" points="689.52,-113.92 698.39,-108.11 687.84,-107.12 689.52,-113.92"/>
</g>
<!-- INTF&#45;IF_ABAP_READER&#45;&gt;DTEL&#45;ABAP_MSIZE -->
<g id="edge25" class="edge">
<title>INTF&#45;IF_ABAP_READER&#45;&gt;DTEL&#45;ABAP_MSIZE</title>
<path fill="none" stroke="black" d="M440.8,-143.88C415.58,-134.18 383.86,-121.98 357.25,-111.74"/>
<polygon fill="black" stroke="black" points="358.29,-108.39 347.7,-108.07 355.77,-114.92 358.29,-108.39"/>
</g>
<!-- DOMA&#45;ABAP_MSIZE -->
<g id="node11" class="node">
<title>DOMA&#45;ABAP_MSIZE</title>
<g id="a_node11"><a xlink:href="./DOMA_ABAP_MSIZE.html" xlink:title="DOMA&#45;ABAP_MSIZE">
<polygon fill="none" stroke="yellow" points="378.07,-36 228.57,-36 228.57,0 378.07,0 378.07,-36"/>
<text text-anchor="middle" x="303.32" y="-13.8" font-family="Times,serif" font-size="14.00">DOMA&#45;ABAP_MSIZE</text>
</a>
</g>
</g>
<!-- DTEL&#45;ABAP_MSIZE&#45;&gt;DOMA&#45;ABAP_MSIZE -->
<g id="edge27" class="edge">
<title>DTEL&#45;ABAP_MSIZE&#45;&gt;DOMA&#45;ABAP_MSIZE</title>
<path fill="none" stroke="black" d="M303.32,-71.7C303.32,-63.98 303.32,-54.71 303.32,-46.11"/>
<polygon fill="black" stroke="black" points="306.82,-46.1 303.32,-36.1 299.82,-46.1 306.82,-46.1"/>
</g>
<!-- CLAS&#45;CL_ABAP_DB_C_READER&#45;&gt;INTF&#45;IF_ABAP_DB_LOB_HANDLE -->
<g id="edge31" class="edge">
<title>CLAS&#45;CL_ABAP_DB_C_READER&#45;&gt;INTF&#45;IF_ABAP_DB_LOB_HANDLE</title>
<path fill="none" stroke="black" d="M897.2,-359.94C922.41,-350.39 953.55,-337.67 980.32,-324 1019.3,-304.09 1061.5,-276.85 1089.68,-257.76"/>
<polygon fill="black" stroke="black" points="1091.67,-260.65 1097.96,-252.12 1087.72,-254.86 1091.67,-260.65"/>
</g>
<!-- CLAS&#45;CL_ABAP_DB_C_READER&#45;&gt;INTF&#45;IF_ABAP_DB_READER -->
<g id="edge29" class="edge">
<title>CLAS&#45;CL_ABAP_DB_C_READER&#45;&gt;INTF&#45;IF_ABAP_DB_READER</title>
<path fill="none" stroke="black" d="M861.67,-396.19C879.46,-420.96 912.43,-466.86 933.04,-495.56"/>
<polygon fill="black" stroke="black" points="930.34,-497.79 939.01,-503.87 936.02,-493.71 930.34,-497.79"/>
</g>
<!-- INTF&#45;IF_ABAP_DB_CLOB_HANDLE -->
<g id="node13" class="node">
<title>INTF&#45;IF_ABAP_DB_CLOB_HANDLE</title>
<g id="a_node13"><a xlink:href="./INTF_IF_ABAP_DB_CLOB_HANDLE.html" xlink:title="INTF&#45;IF_ABAP_DB_CLOB_HANDLE">
<polygon fill="none" stroke="green" points="971.16,-324 727.47,-324 727.47,-288 971.16,-288 971.16,-324"/>
<text text-anchor="middle" x="849.32" y="-301.8" font-family="Times,serif" font-size="14.00">INTF&#45;IF_ABAP_DB_CLOB_HANDLE</text>
</a>
</g>
</g>
<!-- CLAS&#45;CL_ABAP_DB_C_READER&#45;&gt;INTF&#45;IF_ABAP_DB_CLOB_HANDLE -->
<g id="edge30" class="edge">
<title>CLAS&#45;CL_ABAP_DB_C_READER&#45;&gt;INTF&#45;IF_ABAP_DB_CLOB_HANDLE</title>
<path fill="none" stroke="black" d="M849.32,-359.7C849.32,-351.98 849.32,-342.71 849.32,-334.11"/>
<polygon fill="black" stroke="black" points="852.82,-334.1 849.32,-324.1 845.82,-334.1 852.82,-334.1"/>
</g>
<!-- CLAS&#45;CL_ABAP_C_READER -->
<g id="node14" class="node">
<title>CLAS&#45;CL_ABAP_C_READER</title>
<g id="a_node14"><a xlink:href="./CLAS_CL_ABAP_C_READER.html" xlink:title="CLAS&#45;CL_ABAP_C_READER">
<polygon fill="none" stroke="green" points="709.31,-324 511.33,-324 511.33,-288 709.31,-288 709.31,-324"/>
<text text-anchor="middle" x="610.32" y="-301.8" font-family="Times,serif" font-size="14.00">CLAS&#45;CL_ABAP_C_READER</text>
</a>
</g>
</g>
<!-- CLAS&#45;CL_ABAP_DB_C_READER&#45;&gt;CLAS&#45;CL_ABAP_C_READER -->
<g id="edge28" class="edge">
<title>CLAS&#45;CL_ABAP_DB_C_READER&#45;&gt;CLAS&#45;CL_ABAP_C_READER</title>
<path fill="none" stroke="black" d="M791.16,-359.97C757.18,-350.01 714.13,-337.41 678.56,-326.99"/>
<polygon fill="black" stroke="black" points="679.32,-323.56 668.74,-324.11 677.35,-330.28 679.32,-323.56"/>
</g>
<!-- INTF&#45;IF_ABAP_DB_CLOB_HANDLE&#45;&gt;INTF&#45;IF_ABAP_DB_LOB_HANDLE -->
<g id="edge33" class="edge">
<title>INTF&#45;IF_ABAP_DB_CLOB_HANDLE&#45;&gt;INTF&#45;IF_ABAP_DB_LOB_HANDLE</title>
<path fill="none" stroke="black" d="M915.75,-287.97C954.97,-277.91 1004.79,-265.14 1045.67,-254.65"/>
<polygon fill="black" stroke="black" points="1046.77,-257.98 1055.59,-252.11 1045.03,-251.2 1046.77,-257.98"/>
</g>
<!-- INTF&#45;IF_ABAP_DB_CLOB_HANDLE&#45;&gt;INTF&#45;IF_ABAP_CLOSE_RESOURCE -->
<g id="edge32" class="edge">
<title>INTF&#45;IF_ABAP_DB_CLOB_HANDLE&#45;&gt;INTF&#45;IF_ABAP_CLOSE_RESOURCE</title>
<path fill="none" stroke="black" d="M842.75,-287.85C828.5,-250.68 794.69,-162.44 777.6,-117.82"/>
<polygon fill="black" stroke="black" points="780.77,-116.32 773.92,-108.23 774.23,-118.82 780.77,-116.32"/>
</g>
<!-- CLAS&#45;CL_ABAP_C_READER&#45;&gt;INTF&#45;IF_ABAP_CLOSE_RESOURCE -->
<g id="edge34" class="edge">
<title>CLAS&#45;CL_ABAP_C_READER&#45;&gt;INTF&#45;IF_ABAP_CLOSE_RESOURCE</title>
<path fill="none" stroke="black" d="M697.01,-287.86C716.6,-280.02 735.4,-268.62 748.32,-252 778.37,-213.34 776.35,-152.85 771.97,-118.07"/>
<polygon fill="black" stroke="black" points="775.43,-117.57 770.57,-108.16 768.5,-118.55 775.43,-117.57"/>
</g>
<!-- CLAS&#45;CL_ABAP_C_READER&#45;&gt;INTF&#45;IF_ABAP_READER -->
<g id="edge35" class="edge">
<title>CLAS&#45;CL_ABAP_C_READER&#45;&gt;INTF&#45;IF_ABAP_READER</title>
<path fill="none" stroke="black" d="M584.37,-287.97C570.9,-278.37 554.72,-265.61 542.32,-252 524.87,-232.86 509.33,-207.77 498.91,-189.11"/>
<polygon fill="black" stroke="black" points="501.94,-187.36 494.07,-180.26 495.8,-190.72 501.94,-187.36"/>
</g>
<!-- INTF&#45;IF_ABAP_C_READER -->
<g id="node15" class="node">
<title>INTF&#45;IF_ABAP_C_READER</title>
<g id="a_node15"><a xlink:href="./INTF_IF_ABAP_C_READER.html" xlink:title="INTF&#45;IF_ABAP_C_READER">
<polygon fill="none" stroke="green" points="739.18,-252 551.45,-252 551.45,-216 739.18,-216 739.18,-252"/>
<text text-anchor="middle" x="645.32" y="-229.8" font-family="Times,serif" font-size="14.00">INTF&#45;IF_ABAP_C_READER</text>
</a>
</g>
</g>
<!-- CLAS&#45;CL_ABAP_C_READER&#45;&gt;INTF&#45;IF_ABAP_C_READER -->
<g id="edge36" class="edge">
<title>CLAS&#45;CL_ABAP_C_READER&#45;&gt;INTF&#45;IF_ABAP_C_READER</title>
<path fill="none" stroke="black" d="M618.97,-287.7C622.95,-279.73 627.77,-270.1 632.19,-261.26"/>
<polygon fill="black" stroke="black" points="635.42,-262.61 636.77,-252.1 629.16,-259.48 635.42,-262.61"/>
</g>
<!-- INTF&#45;IF_ABAP_C_READER&#45;&gt;INTF&#45;IF_ABAP_CLOSE_RESOURCE -->
<g id="edge38" class="edge">
<title>INTF&#45;IF_ABAP_C_READER&#45;&gt;INTF&#45;IF_ABAP_CLOSE_RESOURCE</title>
<path fill="none" stroke="black" d="M660.03,-215.87C681.38,-191.03 721.06,-144.85 745.72,-116.14"/>
<polygon fill="black" stroke="black" points="748.69,-118.06 752.55,-108.19 743.38,-113.49 748.69,-118.06"/>
</g>
<!-- INTF&#45;IF_ABAP_C_READER&#45;&gt;INTF&#45;IF_ABAP_READER -->
<g id="edge39" class="edge">
<title>INTF&#45;IF_ABAP_C_READER&#45;&gt;INTF&#45;IF_ABAP_READER</title>
<path fill="none" stroke="black" d="M606.18,-215.88C584.3,-206.31 556.86,-194.3 533.66,-184.15"/>
<polygon fill="black" stroke="black" points="534.9,-180.87 524.33,-180.07 532.09,-187.28 534.9,-180.87"/>
</g>
<!-- INTF&#45;IF_ABAP_C_READER&#45;&gt;DTEL&#45;ABAP_MSIZE -->
<g id="edge37" class="edge">
<title>INTF&#45;IF_ABAP_C_READER&#45;&gt;DTEL&#45;ABAP_MSIZE</title>
<path fill="none" stroke="black" d="M637.72,-215.87C627.68,-195.33 607.96,-161.5 580.32,-144 548.43,-123.81 454.49,-108.71 384.8,-99.9"/>
<polygon fill="black" stroke="black" points="385.06,-96.41 374.71,-98.65 384.2,-103.35 385.06,-96.41"/>
</g>
<!-- CLAS&#45;CL_ABAP_SQL_STATEMENT_HANDLE&#45;&gt;DTEL&#45;ABAP_MSIZE -->
<g id="edge41" class="edge">
<title>CLAS&#45;CL_ABAP_SQL_STATEMENT_HANDLE&#45;&gt;DTEL&#45;ABAP_MSIZE</title>
<path fill="none" stroke="black" d="M222.66,-368.45C173.76,-360.95 120.83,-347.58 76.32,-324 36.88,-303.11 23.11,-293.35 6.32,-252 -32.34,-156.77 121.08,-116.48 221.74,-100.53"/>
<polygon fill="black" stroke="black" points="222.56,-103.94 231.91,-98.97 221.5,-97.02 222.56,-103.94"/>
</g>
<!-- DTEL&#45;DBCON_NAME -->
<g id="node17" class="node">
<title>DTEL&#45;DBCON_NAME</title>
<g id="a_node17"><a xlink:href="./DTEL_DBCON_NAME.html" xlink:title="DTEL&#45;DBCON_NAME">
<polygon fill="none" stroke="yellow" points="454.95,-324 301.69,-324 301.69,-288 454.95,-288 454.95,-324"/>
<text text-anchor="middle" x="378.32" y="-301.8" font-family="Times,serif" font-size="14.00">DTEL&#45;DBCON_NAME</text>
</a>
</g>
</g>
<!-- CLAS&#45;CL_ABAP_SQL_STATEMENT_HANDLE&#45;&gt;DTEL&#45;DBCON_NAME -->
<g id="edge40" class="edge">
<title>CLAS&#45;CL_ABAP_SQL_STATEMENT_HANDLE&#45;&gt;DTEL&#45;DBCON_NAME</title>
<path fill="none" stroke="black" d="M376.81,-359.7C377.03,-351.98 377.3,-342.71 377.54,-334.11"/>
<polygon fill="black" stroke="black" points="381.04,-334.2 377.83,-324.1 374.05,-334 381.04,-334.2"/>
</g>
<!-- DOMA&#45;DBCON_NAME -->
<g id="node18" class="node">
<title>DOMA&#45;DBCON_NAME</title>
<g id="a_node18"><a xlink:href="./DOMA_DBCON_NAME.html" xlink:title="DOMA&#45;DBCON_NAME">
<polygon fill="none" stroke="yellow" points="457.45,-252 297.19,-252 297.19,-216 457.45,-216 457.45,-252"/>
<text text-anchor="middle" x="377.32" y="-229.8" font-family="Times,serif" font-size="14.00">DOMA&#45;DBCON_NAME</text>
</a>
</g>
</g>
<!-- DTEL&#45;DBCON_NAME&#45;&gt;DOMA&#45;DBCON_NAME -->
<g id="edge42" class="edge">
<title>DTEL&#45;DBCON_NAME&#45;&gt;DOMA&#45;DBCON_NAME</title>
<path fill="none" stroke="black" d="M378.07,-287.7C377.96,-279.98 377.83,-270.71 377.71,-262.11"/>
<polygon fill="black" stroke="black" points="381.2,-262.05 377.56,-252.1 374.21,-262.15 381.2,-262.05"/>
</g>
</g>
</svg>
