<?xml version="1.0" encoding="UTF-8" standalone="no"?>
<!DOCTYPE svg PUBLIC "-//W3C//DTD SVG 1.1//EN"
 "http://www.w3.org/Graphics/SVG/1.1/DTD/svg11.dtd">
<!-- Generated by graphviz version 2.47.3 (20210619.1520)
 -->
<!-- Title: G Pages: 1 -->
<svg width="835pt" height="404pt"
 viewBox="0.00 0.00 834.73 404.00" xmlns="http://www.w3.org/2000/svg" xmlns:xlink="http://www.w3.org/1999/xlink">
<g id="graph0" class="graph" transform="scale(1 1) rotate(0) translate(4 400)">
<title>G</title>
<polygon fill="white" stroke="transparent" points="-4,4 -4,-400 830.73,-400 830.73,4 -4,4"/>
<!-- CLAS&#45;CX_SY_RTTI_TYPE_NOT_RELEASED -->
<g id="node1" class="node">
<title>CLAS&#45;CX_SY_RTTI_TYPE_NOT_RELEASED</title>
<polygon fill="none" stroke="green" points="826.82,-396 531.47,-396 531.47,-360 826.82,-360 826.82,-396"/>
<text text-anchor="middle" x="679.14" y="-373.8" font-family="Times,serif" font-size="14.00">CLAS&#45;CX_SY_RTTI_TYPE_NOT_RELEASED</text>
</g>
<!-- CLAS&#45;CX_SY_RTTI_NO_CHECK -->
<g id="node2" class="node">
<title>CLAS&#45;CX_SY_RTTI_NO_CHECK</title>
<g id="a_node2"><a xlink:href="./CLAS_CX_SY_RTTI_NO_CHECK.html" xlink:title="CLAS&#45;CX_SY_RTTI_NO_CHECK">
<polygon fill="none" stroke="green" points="720.17,-324 500.12,-324 500.12,-288 720.17,-288 720.17,-324"/>
<text text-anchor="middle" x="610.14" y="-301.8" font-family="Times,serif" font-size="14.00">CLAS&#45;CX_SY_RTTI_NO_CHECK</text>
</a>
</g>
</g>
<!-- CLAS&#45;CX_SY_RTTI_TYPE_NOT_RELEASED&#45;&gt;CLAS&#45;CX_SY_RTTI_NO_CHECK -->
<g id="edge2" class="edge">
<title>CLAS&#45;CX_SY_RTTI_TYPE_NOT_RELEASED&#45;&gt;CLAS&#45;CX_SY_RTTI_NO_CHECK</title>
<path fill="none" stroke="black" d="M662.09,-359.7C653.65,-351.14 643.32,-340.66 634.1,-331.3"/>
<polygon fill="black" stroke="black" points="636.52,-328.77 627,-324.1 631.53,-333.68 636.52,-328.77"/>
</g>
<!-- DTEL&#45;SOTR_CONC -->
<g id="node11" class="node">
<title>DTEL&#45;SOTR_CONC</title>
<g id="a_node11"><a xlink:href="./DTEL_SOTR_CONC.html" xlink:title="DTEL&#45;SOTR_CONC">
<polygon fill="none" stroke="yellow" points="817.23,-108 679.05,-108 679.05,-72 817.23,-72 817.23,-108"/>
<text text-anchor="middle" x="748.14" y="-85.8" font-family="Times,serif" font-size="14.00">DTEL&#45;SOTR_CONC</text>
</a>
</g>
</g>
<!-- CLAS&#45;CX_SY_RTTI_TYPE_NOT_RELEASED&#45;&gt;DTEL&#45;SOTR_CONC -->
<g id="edge1" class="edge">
<title>CLAS&#45;CX_SY_RTTI_TYPE_NOT_RELEASED&#45;&gt;DTEL&#45;SOTR_CONC</title>
<path fill="none" stroke="black" d="M701,-359.99C711.41,-350.59 722.92,-337.98 729.14,-324 759.87,-254.98 755.96,-163.14 751.54,-118.16"/>
<polygon fill="black" stroke="black" points="755,-117.6 750.45,-108.03 748.03,-118.34 755,-117.6"/>
</g>
<!-- CLAS&#45;CX_NO_CHECK -->
<g id="node3" class="node">
<title>CLAS&#45;CX_NO_CHECK</title>
<g id="a_node3"><a xlink:href="./CLAS_CX_NO_CHECK.html" xlink:title="CLAS&#45;CX_NO_CHECK">
<polygon fill="none" stroke="green" points="573.68,-252 416.61,-252 416.61,-216 573.68,-216 573.68,-252"/>
<text text-anchor="middle" x="495.14" y="-229.8" font-family="Times,serif" font-size="14.00">CLAS&#45;CX_NO_CHECK</text>
</a>
</g>
</g>
<!-- CLAS&#45;CX_SY_RTTI_NO_CHECK&#45;&gt;CLAS&#45;CX_NO_CHECK -->
<g id="edge4" class="edge">
<title>CLAS&#45;CX_SY_RTTI_NO_CHECK&#45;&gt;CLAS&#45;CX_NO_CHECK</title>
<path fill="none" stroke="black" d="M582.01,-287.88C566.98,-278.72 548.28,-267.34 532.08,-257.48"/>
<polygon fill="black" stroke="black" points="533.75,-254.4 523.38,-252.19 530.11,-260.38 533.75,-254.4"/>
</g>
<!-- CLAS&#45;CX_SY_RTTI_NO_CHECK&#45;&gt;DTEL&#45;SOTR_CONC -->
<g id="edge3" class="edge">
<title>CLAS&#45;CX_SY_RTTI_NO_CHECK&#45;&gt;DTEL&#45;SOTR_CONC</title>
<path fill="none" stroke="black" d="M621.2,-287.85C645.38,-250.36 703.04,-160.95 731.57,-116.7"/>
<polygon fill="black" stroke="black" points="734.55,-118.53 737.03,-108.23 728.67,-114.74 734.55,-118.53"/>
</g>
<!-- CLAS&#45;CX_ROOT -->
<g id="node4" class="node">
<title>CLAS&#45;CX_ROOT</title>
<g id="a_node4"><a xlink:href="./CLAS_CX_ROOT.html" xlink:title="CLAS&#45;CX_ROOT">
<polygon fill="none" stroke="green" points="536.63,-180 415.66,-180 415.66,-144 536.63,-144 536.63,-180"/>
<text text-anchor="middle" x="476.14" y="-157.8" font-family="Times,serif" font-size="14.00">CLAS&#45;CX_ROOT</text>
</a>
</g>
</g>
<!-- CLAS&#45;CX_NO_CHECK&#45;&gt;CLAS&#45;CX_ROOT -->
<g id="edge5" class="edge">
<title>CLAS&#45;CX_NO_CHECK&#45;&gt;CLAS&#45;CX_ROOT</title>
<path fill="none" stroke="black" d="M490.45,-215.7C488.33,-207.9 485.78,-198.51 483.43,-189.83"/>
<polygon fill="black" stroke="black" points="486.78,-188.84 480.79,-180.1 480.03,-190.67 486.78,-188.84"/>
</g>
<!-- INTF&#45;IF_SERIALIZABLE_OBJECT -->
<g id="node5" class="node">
<title>INTF&#45;IF_SERIALIZABLE_OBJECT</title>
<g id="a_node5"><a xlink:href="./INTF_IF_SERIALIZABLE_OBJECT.html" xlink:title="INTF&#45;IF_SERIALIZABLE_OBJECT">
<polygon fill="none" stroke="green" points="228.43,-108 -0.14,-108 -0.14,-72 228.43,-72 228.43,-108"/>
<text text-anchor="middle" x="114.14" y="-85.8" font-family="Times,serif" font-size="14.00">INTF&#45;IF_SERIALIZABLE_OBJECT</text>
</a>
</g>
</g>
<!-- CLAS&#45;CX_ROOT&#45;&gt;INTF&#45;IF_SERIALIZABLE_OBJECT -->
<g id="edge10" class="edge">
<title>CLAS&#45;CX_ROOT&#45;&gt;INTF&#45;IF_SERIALIZABLE_OBJECT</title>
<path fill="none" stroke="black" d="M415.55,-149.28C360.03,-138.55 276.85,-122.46 211.93,-109.91"/>
<polygon fill="black" stroke="black" points="212.56,-106.47 202.08,-108 211.24,-113.34 212.56,-106.47"/>
</g>
<!-- INTF&#45;IF_MESSAGE -->
<g id="node6" class="node">
<title>INTF&#45;IF_MESSAGE</title>
<g id="a_node6"><a xlink:href="./INTF_IF_MESSAGE.html" xlink:title="INTF&#45;IF_MESSAGE">
<polygon fill="none" stroke="green" points="382.18,-108 246.11,-108 246.11,-72 382.18,-72 382.18,-108"/>
<text text-anchor="middle" x="314.14" y="-85.8" font-family="Times,serif" font-size="14.00">INTF&#45;IF_MESSAGE</text>
</a>
</g>
</g>
<!-- CLAS&#45;CX_ROOT&#45;&gt;INTF&#45;IF_MESSAGE -->
<g id="edge9" class="edge">
<title>CLAS&#45;CX_ROOT&#45;&gt;INTF&#45;IF_MESSAGE</title>
<path fill="none" stroke="black" d="M436.51,-143.88C414.37,-134.31 386.58,-122.3 363.09,-112.15"/>
<polygon fill="black" stroke="black" points="364.21,-108.82 353.65,-108.07 361.44,-115.25 364.21,-108.82"/>
</g>
<!-- DTEL&#45;SYREPID -->
<g id="node7" class="node">
<title>DTEL&#45;SYREPID</title>
<g id="a_node7"><a xlink:href="./DTEL_SYREPID.html" xlink:title="DTEL&#45;SYREPID">
<polygon fill="none" stroke="green" points="515.4,-108 400.89,-108 400.89,-72 515.4,-72 515.4,-108"/>
<text text-anchor="middle" x="458.14" y="-85.8" font-family="Times,serif" font-size="14.00">DTEL&#45;SYREPID</text>
</a>
</g>
</g>
<!-- CLAS&#45;CX_ROOT&#45;&gt;DTEL&#45;SYREPID -->
<g id="edge8" class="edge">
<title>CLAS&#45;CX_ROOT&#45;&gt;DTEL&#45;SYREPID</title>
<path fill="none" stroke="black" d="M471.7,-143.7C469.69,-135.9 467.28,-126.51 465.04,-117.83"/>
<polygon fill="black" stroke="black" points="468.42,-116.92 462.54,-108.1 461.64,-118.66 468.42,-116.92"/>
</g>
<!-- DTEL&#45;S380ERRID -->
<g id="node9" class="node">
<title>DTEL&#45;S380ERRID</title>
<g id="a_node9"><a xlink:href="./DTEL_S380ERRID.html" xlink:title="DTEL&#45;S380ERRID">
<polygon fill="none" stroke="yellow" points="660.85,-108 533.44,-108 533.44,-72 660.85,-72 660.85,-108"/>
<text text-anchor="middle" x="597.14" y="-85.8" font-family="Times,serif" font-size="14.00">DTEL&#45;S380ERRID</text>
</a>
</g>
</g>
<!-- CLAS&#45;CX_ROOT&#45;&gt;DTEL&#45;S380ERRID -->
<g id="edge7" class="edge">
<title>CLAS&#45;CX_ROOT&#45;&gt;DTEL&#45;S380ERRID</title>
<path fill="none" stroke="black" d="M505.74,-143.88C521.71,-134.64 541.6,-123.13 558.75,-113.21"/>
<polygon fill="black" stroke="black" points="560.53,-116.23 567.43,-108.19 557.02,-110.17 560.53,-116.23"/>
</g>
<!-- CLAS&#45;CX_ROOT&#45;&gt;DTEL&#45;SOTR_CONC -->
<g id="edge6" class="edge">
<title>CLAS&#45;CX_ROOT&#45;&gt;DTEL&#45;SOTR_CONC</title>
<path fill="none" stroke="black" d="M536.85,-145.38C576.79,-135.1 629.39,-121.56 672.12,-110.57"/>
<polygon fill="black" stroke="black" points="673.1,-113.93 681.91,-108.04 671.36,-107.15 673.1,-113.93"/>
</g>
<!-- DOMA&#45;PROGRAMM -->
<g id="node8" class="node">
<title>DOMA&#45;PROGRAMM</title>
<g id="a_node8"><a xlink:href="./DOMA_PROGRAMM.html" xlink:title="DOMA&#45;PROGRAMM">
<polygon fill="none" stroke="yellow" points="511.73,-36 366.55,-36 366.55,0 511.73,0 511.73,-36"/>
<text text-anchor="middle" x="439.14" y="-13.8" font-family="Times,serif" font-size="14.00">DOMA&#45;PROGRAMM</text>
</a>
</g>
</g>
<!-- DTEL&#45;SYREPID&#45;&gt;DOMA&#45;PROGRAMM -->
<g id="edge11" class="edge">
<title>DTEL&#45;SYREPID&#45;&gt;DOMA&#45;PROGRAMM</title>
<path fill="none" stroke="black" d="M453.45,-71.7C451.33,-63.9 448.78,-54.51 446.43,-45.83"/>
<polygon fill="black" stroke="black" points="449.78,-44.84 443.79,-36.1 443.03,-46.67 449.78,-44.84"/>
</g>
<!-- DOMA&#45;SYCHAR30 -->
<g id="node10" class="node">
<title>DOMA&#45;SYCHAR30</title>
<g id="a_node10"><a xlink:href="./DOMA_SYCHAR30.html" xlink:title="DOMA&#45;SYCHAR30">
<polygon fill="none" stroke="yellow" points="664.35,-36 529.94,-36 529.94,0 664.35,0 664.35,-36"/>
<text text-anchor="middle" x="597.14" y="-13.8" font-family="Times,serif" font-size="14.00">DOMA&#45;SYCHAR30</text>
</a>
</g>
</g>
<!-- DTEL&#45;S380ERRID&#45;&gt;DOMA&#45;SYCHAR30 -->
<g id="edge12" class="edge">
<title>DTEL&#45;S380ERRID&#45;&gt;DOMA&#45;SYCHAR30</title>
<path fill="none" stroke="black" d="M597.14,-71.7C597.14,-63.98 597.14,-54.71 597.14,-46.11"/>
<polygon fill="black" stroke="black" points="600.64,-46.1 597.14,-36.1 593.64,-46.1 600.64,-46.1"/>
</g>
<!-- DOMA&#45;SYSUUID_C -->
<g id="node12" class="node">
<title>DOMA&#45;SYSUUID_C</title>
<g id="a_node12"><a xlink:href="./DOMA_SYSUUID_C.html" xlink:title="DOMA&#45;SYSUUID_C">
<polygon fill="none" stroke="yellow" points="822.56,-36 681.73,-36 681.73,0 822.56,0 822.56,-36"/>
<text text-anchor="middle" x="752.14" y="-13.8" font-family="Times,serif" font-size="14.00">DOMA&#45;SYSUUID_C</text>
</a>
</g>
</g>
<!-- DTEL&#45;SOTR_CONC&#45;&gt;DOMA&#45;SYSUUID_C -->
<g id="edge13" class="edge">
<title>DTEL&#45;SOTR_CONC&#45;&gt;DOMA&#45;SYSUUID_C</title>
<path fill="none" stroke="black" d="M749.13,-71.7C749.57,-63.98 750.1,-54.71 750.6,-46.11"/>
<polygon fill="black" stroke="black" points="754.09,-46.29 751.17,-36.1 747.1,-45.89 754.09,-46.29"/>
</g>
</g>
</svg>
