<?xml version="1.0" encoding="UTF-8" standalone="no"?>
<!DOCTYPE svg PUBLIC "-//W3C//DTD SVG 1.1//EN"
 "http://www.w3.org/Graphics/SVG/1.1/DTD/svg11.dtd">
<!-- Generated by graphviz version 2.47.3 (20210619.1520)
 -->
<!-- Title: G Pages: 1 -->
<svg width="2048pt" height="908pt"
 viewBox="0.00 0.00 2048.00 908.00" xmlns="http://www.w3.org/2000/svg" xmlns:xlink="http://www.w3.org/1999/xlink">
<g id="graph0" class="graph" transform="scale(1 1) rotate(0) translate(4 904)">
<title>G</title>
<polygon fill="white" stroke="transparent" points="-4,4 -4,-904 2044,-904 2044,4 -4,4"/>
<!-- CLAS&#45;XCO_CP_STRING -->
<g id="node1" class="node">
<title>CLAS&#45;XCO_CP_STRING</title>
<polygon fill="none" stroke="green" points="1172.51,-900 1005.2,-900 1005.2,-864 1172.51,-864 1172.51,-900"/>
<text text-anchor="middle" x="1088.85" y="-877.8" font-family="Times,serif" font-size="14.00">CLAS&#45;XCO_CP_STRING</text>
</g>
<!-- INTF&#45;IF_XCO_STRING_BUILDER -->
<g id="node2" class="node">
<title>INTF&#45;IF_XCO_STRING_BUILDER</title>
<g id="a_node2"><a xlink:href="./INTF_IF_XCO_STRING_BUILDER.html" xlink:title="INTF&#45;IF_XCO_STRING_BUILDER">
<polygon fill="none" stroke="green" points="919.81,-828 693.9,-828 693.9,-792 919.81,-792 919.81,-828"/>
<text text-anchor="middle" x="806.85" y="-805.8" font-family="Times,serif" font-size="14.00">INTF&#45;IF_XCO_STRING_BUILDER</text>
</a>
</g>
</g>
<!-- CLAS&#45;XCO_CP_STRING&#45;&gt;INTF&#45;IF_XCO_STRING_BUILDER -->
<g id="edge3" class="edge">
<title>CLAS&#45;XCO_CP_STRING&#45;&gt;INTF&#45;IF_XCO_STRING_BUILDER</title>
<path fill="none" stroke="black" d="M1020.23,-863.97C979.54,-853.87 927.82,-841.03 885.5,-830.52"/>
<polygon fill="black" stroke="black" points="886.33,-827.12 875.79,-828.11 884.65,-833.92 886.33,-827.12"/>
</g>
<!-- INTF&#45;IF_XCO_CP_STRING_DCMP_FACTORY -->
<g id="node3" class="node">
<title>INTF&#45;IF_XCO_CP_STRING_DCMP_FACTORY</title>
<g id="a_node3"><a xlink:href="./INTF_IF_XCO_CP_STRING_DCMP_FACTORY.html" xlink:title="INTF&#45;IF_XCO_CP_STRING_DCMP_FACTORY">
<polygon fill="none" stroke="green" points="1239.77,-828 937.93,-828 937.93,-792 1239.77,-792 1239.77,-828"/>
<text text-anchor="middle" x="1088.85" y="-805.8" font-family="Times,serif" font-size="14.00">INTF&#45;IF_XCO_CP_STRING_DCMP_FACTORY</text>
</a>
</g>
</g>
<!-- CLAS&#45;XCO_CP_STRING&#45;&gt;INTF&#45;IF_XCO_CP_STRING_DCMP_FACTORY -->
<g id="edge2" class="edge">
<title>CLAS&#45;XCO_CP_STRING&#45;&gt;INTF&#45;IF_XCO_CP_STRING_DCMP_FACTORY</title>
<path fill="none" stroke="black" d="M1088.85,-863.7C1088.85,-855.98 1088.85,-846.71 1088.85,-838.11"/>
<polygon fill="black" stroke="black" points="1092.35,-838.1 1088.85,-828.1 1085.35,-838.1 1092.35,-838.1"/>
</g>
<!-- INTF&#45;IF_XCO_CP_STRING_CMP_FACTORY -->
<g id="node42" class="node">
<title>INTF&#45;IF_XCO_CP_STRING_CMP_FACTORY</title>
<g id="a_node42"><a xlink:href="./INTF_IF_XCO_CP_STRING_CMP_FACTORY.html" xlink:title="INTF&#45;IF_XCO_CP_STRING_CMP_FACTORY">
<polygon fill="none" stroke="green" points="1506.67,-756 1215.04,-756 1215.04,-720 1506.67,-720 1506.67,-756"/>
<text text-anchor="middle" x="1360.85" y="-733.8" font-family="Times,serif" font-size="14.00">INTF&#45;IF_XCO_CP_STRING_CMP_FACTORY</text>
</a>
</g>
</g>
<!-- CLAS&#45;XCO_CP_STRING&#45;&gt;INTF&#45;IF_XCO_CP_STRING_CMP_FACTORY -->
<g id="edge1" class="edge">
<title>CLAS&#45;XCO_CP_STRING&#45;&gt;INTF&#45;IF_XCO_CP_STRING_CMP_FACTORY</title>
<path fill="none" stroke="black" d="M1157.99,-863.89C1187.02,-855.25 1220.54,-843.31 1248.85,-828 1281.54,-810.33 1314.28,-782.91 1335.84,-763.17"/>
<polygon fill="black" stroke="black" points="1338.31,-765.65 1343.26,-756.28 1333.55,-760.53 1338.31,-765.65"/>
</g>
<!-- INTF&#45;IF_XCO_STRING_DECOMPOSITION -->
<g id="node4" class="node">
<title>INTF&#45;IF_XCO_STRING_DECOMPOSITION</title>
<g id="a_node4"><a xlink:href="./INTF_IF_XCO_STRING_DECOMPOSITION.html" xlink:title="INTF&#45;IF_XCO_STRING_DECOMPOSITION">
<polygon fill="none" stroke="green" points="1197.46,-756 918.25,-756 918.25,-720 1197.46,-720 1197.46,-756"/>
<text text-anchor="middle" x="1057.85" y="-733.8" font-family="Times,serif" font-size="14.00">INTF&#45;IF_XCO_STRING_DECOMPOSITION</text>
</a>
</g>
</g>
<!-- INTF&#45;IF_XCO_CP_STRING_DCMP_FACTORY&#45;&gt;INTF&#45;IF_XCO_STRING_DECOMPOSITION -->
<g id="edge4" class="edge">
<title>INTF&#45;IF_XCO_CP_STRING_DCMP_FACTORY&#45;&gt;INTF&#45;IF_XCO_STRING_DECOMPOSITION</title>
<path fill="none" stroke="black" d="M1081.19,-791.7C1077.66,-783.73 1073.4,-774.1 1069.48,-765.26"/>
<polygon fill="black" stroke="black" points="1072.68,-763.83 1065.43,-756.1 1066.28,-766.67 1072.68,-763.83"/>
</g>
<!-- INTF&#45;IF_XCO_STRINGS -->
<g id="node5" class="node">
<title>INTF&#45;IF_XCO_STRINGS</title>
<g id="a_node5"><a xlink:href="./INTF_IF_XCO_STRINGS.html" xlink:title="INTF&#45;IF_XCO_STRINGS">
<polygon fill="none" stroke="green" points="1627.94,-684 1461.77,-684 1461.77,-648 1627.94,-648 1627.94,-684"/>
<text text-anchor="middle" x="1544.85" y="-661.8" font-family="Times,serif" font-size="14.00">INTF&#45;IF_XCO_STRINGS</text>
</a>
</g>
</g>
<!-- INTF&#45;IF_XCO_STRING_DECOMPOSITION&#45;&gt;INTF&#45;IF_XCO_STRINGS -->
<g id="edge6" class="edge">
<title>INTF&#45;IF_XCO_STRING_DECOMPOSITION&#45;&gt;INTF&#45;IF_XCO_STRINGS</title>
<path fill="none" stroke="black" d="M1176.36,-719.97C1260.84,-707.82 1372.84,-691.72 1451.11,-680.47"/>
<polygon fill="black" stroke="black" points="1452.04,-683.88 1461.44,-678.99 1451.04,-676.95 1452.04,-683.88"/>
</g>
<!-- INTF&#45;IF_XCO_STRING -->
<g id="node9" class="node">
<title>INTF&#45;IF_XCO_STRING</title>
<g id="a_node9"><a xlink:href="./INTF_IF_XCO_STRING.html" xlink:title="INTF&#45;IF_XCO_STRING">
<polygon fill="none" stroke="green" points="1428.15,-468 1269.55,-468 1269.55,-432 1428.15,-432 1428.15,-468"/>
<text text-anchor="middle" x="1348.85" y="-445.8" font-family="Times,serif" font-size="14.00">INTF&#45;IF_XCO_STRING</text>
</a>
</g>
</g>
<!-- INTF&#45;IF_XCO_STRING_DECOMPOSITION&#45;&gt;INTF&#45;IF_XCO_STRING -->
<g id="edge5" class="edge">
<title>INTF&#45;IF_XCO_STRING_DECOMPOSITION&#45;&gt;INTF&#45;IF_XCO_STRING</title>
<path fill="none" stroke="black" d="M1050.85,-719.98C1044.63,-688.25 1043.9,-619.38 1076.85,-576 1120.9,-518.01 1198.65,-485.71 1259.83,-468.54"/>
<polygon fill="black" stroke="black" points="1260.76,-471.91 1269.49,-465.91 1258.93,-465.16 1260.76,-471.91"/>
</g>
<!-- INTF&#45;IF_XCO_STRING_ITERABLE -->
<g id="node6" class="node">
<title>INTF&#45;IF_XCO_STRING_ITERABLE</title>
<g id="a_node6"><a xlink:href="./INTF_IF_XCO_STRING_ITERABLE.html" xlink:title="INTF&#45;IF_XCO_STRING_ITERABLE">
<polygon fill="none" stroke="green" points="1661.31,-612 1428.4,-612 1428.4,-576 1661.31,-576 1661.31,-612"/>
<text text-anchor="middle" x="1544.85" y="-589.8" font-family="Times,serif" font-size="14.00">INTF&#45;IF_XCO_STRING_ITERABLE</text>
</a>
</g>
</g>
<!-- INTF&#45;IF_XCO_STRINGS&#45;&gt;INTF&#45;IF_XCO_STRING_ITERABLE -->
<g id="edge13" class="edge">
<title>INTF&#45;IF_XCO_STRINGS&#45;&gt;INTF&#45;IF_XCO_STRING_ITERABLE</title>
<path fill="none" stroke="black" d="M1544.85,-647.7C1544.85,-639.98 1544.85,-630.71 1544.85,-622.11"/>
<polygon fill="black" stroke="black" points="1548.35,-622.1 1544.85,-612.1 1541.35,-622.1 1548.35,-622.1"/>
</g>
<!-- INTF&#45;IF_XCO_STRINGS&#45;&gt;INTF&#45;IF_XCO_STRING -->
<g id="edge9" class="edge">
<title>INTF&#45;IF_XCO_STRINGS&#45;&gt;INTF&#45;IF_XCO_STRING</title>
<path fill="none" stroke="black" d="M1475.06,-647.91C1452.64,-639.64 1428.99,-627.97 1410.85,-612 1370.65,-576.6 1352.21,-514.15 1347.47,-478.32"/>
<polygon fill="black" stroke="black" points="1350.93,-477.71 1346.44,-468.12 1343.97,-478.42 1350.93,-477.71"/>
</g>
<!-- INTF&#45;IF_XCO_TEXT -->
<g id="node10" class="node">
<title>INTF&#45;IF_XCO_TEXT</title>
<g id="a_node10"><a xlink:href="./INTF_IF_XCO_TEXT.html" xlink:title="INTF&#45;IF_XCO_TEXT">
<polygon fill="none" stroke="green" points="1631.37,-108 1488.33,-108 1488.33,-72 1631.37,-72 1631.37,-108"/>
<text text-anchor="middle" x="1559.85" y="-85.8" font-family="Times,serif" font-size="14.00">INTF&#45;IF_XCO_TEXT</text>
</a>
</g>
</g>
<!-- INTF&#45;IF_XCO_STRINGS&#45;&gt;INTF&#45;IF_XCO_TEXT -->
<g id="edge12" class="edge">
<title>INTF&#45;IF_XCO_STRINGS&#45;&gt;INTF&#45;IF_XCO_TEXT</title>
<path fill="none" stroke="black" d="M1627.99,-654.09C1687.94,-645.18 1762.47,-630.97 1787.85,-612 1823.85,-585.1 1835.85,-567.94 1835.85,-523 1835.85,-523 1835.85,-523 1835.85,-233 1835.85,-144.07 1723.31,-110.83 1641.9,-98.41"/>
<polygon fill="black" stroke="black" points="1642.04,-94.9 1631.64,-96.93 1641.04,-101.82 1642.04,-94.9"/>
</g>
<!-- INTF&#45;IF_XCO_NEWS -->
<g id="node11" class="node">
<title>INTF&#45;IF_XCO_NEWS</title>
<g id="a_node11"><a xlink:href="./INTF_IF_XCO_NEWS.html" xlink:title="INTF&#45;IF_XCO_NEWS">
<polygon fill="none" stroke="green" points="1513.77,-252 1365.94,-252 1365.94,-216 1513.77,-216 1513.77,-252"/>
<text text-anchor="middle" x="1439.85" y="-229.8" font-family="Times,serif" font-size="14.00">INTF&#45;IF_XCO_NEWS</text>
</a>
</g>
</g>
<!-- INTF&#45;IF_XCO_STRINGS&#45;&gt;INTF&#45;IF_XCO_NEWS -->
<g id="edge11" class="edge">
<title>INTF&#45;IF_XCO_STRINGS&#45;&gt;INTF&#45;IF_XCO_NEWS</title>
<path fill="none" stroke="black" d="M1628.09,-656.32C1685.94,-648.42 1755.91,-634.49 1774.85,-612 1831.15,-545.14 1788.17,-335.32 1740.85,-288 1711.05,-258.19 1602.32,-244.97 1524.1,-239.23"/>
<polygon fill="black" stroke="black" points="1523.98,-235.71 1513.76,-238.5 1523.49,-242.69 1523.98,-235.71"/>
</g>
<!-- INTF&#45;IF_XCO_STRING_COMPOSITION -->
<g id="node38" class="node">
<title>INTF&#45;IF_XCO_STRING_COMPOSITION</title>
<g id="a_node38"><a xlink:href="./INTF_IF_XCO_STRING_COMPOSITION.html" xlink:title="INTF&#45;IF_XCO_STRING_COMPOSITION">
<polygon fill="none" stroke="green" points="1355.3,-612 1094.4,-612 1094.4,-576 1355.3,-576 1355.3,-612"/>
<text text-anchor="middle" x="1224.85" y="-589.8" font-family="Times,serif" font-size="14.00">INTF&#45;IF_XCO_STRING_COMPOSITION</text>
</a>
</g>
</g>
<!-- INTF&#45;IF_XCO_STRINGS&#45;&gt;INTF&#45;IF_XCO_STRING_COMPOSITION -->
<g id="edge10" class="edge">
<title>INTF&#45;IF_XCO_STRINGS&#45;&gt;INTF&#45;IF_XCO_STRING_COMPOSITION</title>
<path fill="none" stroke="black" d="M1461.51,-648.05C1413.8,-637.86 1354.23,-624.84 1306.76,-614.25"/>
<polygon fill="black" stroke="black" points="1307.35,-610.8 1296.82,-612.03 1305.82,-617.63 1307.35,-610.8"/>
</g>
<!-- TTYP&#45;STRING_TABLE -->
<g id="node39" class="node">
<title>TTYP&#45;STRING_TABLE</title>
<g id="a_node39"><a xlink:href="./TTYP_STRING_TABLE.html" xlink:title="TTYP&#45;STRING_TABLE">
<polygon fill="none" stroke="green" points="2040.15,-612 1881.55,-612 1881.55,-576 2040.15,-576 2040.15,-612"/>
<text text-anchor="middle" x="1960.85" y="-589.8" font-family="Times,serif" font-size="14.00">TTYP&#45;STRING_TABLE</text>
</a>
</g>
</g>
<!-- INTF&#45;IF_XCO_STRINGS&#45;&gt;TTYP&#45;STRING_TABLE -->
<g id="edge8" class="edge">
<title>INTF&#45;IF_XCO_STRINGS&#45;&gt;TTYP&#45;STRING_TABLE</title>
<path fill="none" stroke="black" d="M1627.9,-651.8C1693.19,-641.32 1786.39,-626.13 1867.85,-612 1868.96,-611.81 1870.08,-611.61 1871.21,-611.42"/>
<polygon fill="black" stroke="black" points="1872.23,-614.79 1881.47,-609.61 1871.02,-607.9 1872.23,-614.79"/>
</g>
<!-- DTEL&#45;INT4 -->
<g id="node40" class="node">
<title>DTEL&#45;INT4</title>
<g id="a_node40"><a xlink:href="./DTEL_INT4.html" xlink:title="DTEL&#45;INT4">
<polygon fill="none" stroke="green" points="1766.1,-612 1679.61,-612 1679.61,-576 1766.1,-576 1766.1,-612"/>
<text text-anchor="middle" x="1722.85" y="-589.8" font-family="Times,serif" font-size="14.00">DTEL&#45;INT4</text>
</a>
</g>
</g>
<!-- INTF&#45;IF_XCO_STRINGS&#45;&gt;DTEL&#45;INT4 -->
<g id="edge7" class="edge">
<title>INTF&#45;IF_XCO_STRINGS&#45;&gt;DTEL&#45;INT4</title>
<path fill="none" stroke="black" d="M1588.4,-647.88C1613.05,-638.18 1644.08,-625.98 1670.11,-615.74"/>
<polygon fill="black" stroke="black" points="1671.43,-618.99 1679.45,-612.07 1668.86,-612.47 1671.43,-618.99"/>
</g>
<!-- INTF&#45;IF_XCO_STRING_ITERATOR -->
<g id="node7" class="node">
<title>INTF&#45;IF_XCO_STRING_ITERATOR</title>
<g id="a_node7"><a xlink:href="./INTF_IF_XCO_STRING_ITERATOR.html" xlink:title="INTF&#45;IF_XCO_STRING_ITERATOR">
<polygon fill="none" stroke="green" points="1657.86,-540 1423.85,-540 1423.85,-504 1657.86,-504 1657.86,-540"/>
<text text-anchor="middle" x="1540.85" y="-517.8" font-family="Times,serif" font-size="14.00">INTF&#45;IF_XCO_STRING_ITERATOR</text>
</a>
</g>
</g>
<!-- INTF&#45;IF_XCO_STRING_ITERABLE&#45;&gt;INTF&#45;IF_XCO_STRING_ITERATOR -->
<g id="edge14" class="edge">
<title>INTF&#45;IF_XCO_STRING_ITERABLE&#45;&gt;INTF&#45;IF_XCO_STRING_ITERATOR</title>
<path fill="none" stroke="black" d="M1543.86,-575.7C1543.42,-567.98 1542.89,-558.71 1542.4,-550.11"/>
<polygon fill="black" stroke="black" points="1545.9,-549.89 1541.83,-540.1 1538.91,-550.29 1545.9,-549.89"/>
</g>
<!-- INTF&#45;IF_XCO_ITERATOR -->
<g id="node8" class="node">
<title>INTF&#45;IF_XCO_ITERATOR</title>
<g id="a_node8"><a xlink:href="./INTF_IF_XCO_ITERATOR.html" xlink:title="INTF&#45;IF_XCO_ITERATOR">
<polygon fill="none" stroke="green" points="1629.31,-468 1452.39,-468 1452.39,-432 1629.31,-432 1629.31,-468"/>
<text text-anchor="middle" x="1540.85" y="-445.8" font-family="Times,serif" font-size="14.00">INTF&#45;IF_XCO_ITERATOR</text>
</a>
</g>
</g>
<!-- INTF&#45;IF_XCO_STRING_ITERATOR&#45;&gt;INTF&#45;IF_XCO_ITERATOR -->
<g id="edge16" class="edge">
<title>INTF&#45;IF_XCO_STRING_ITERATOR&#45;&gt;INTF&#45;IF_XCO_ITERATOR</title>
<path fill="none" stroke="black" d="M1540.85,-503.7C1540.85,-495.98 1540.85,-486.71 1540.85,-478.11"/>
<polygon fill="black" stroke="black" points="1544.35,-478.1 1540.85,-468.1 1537.35,-478.1 1544.35,-478.1"/>
</g>
<!-- INTF&#45;IF_XCO_STRING_ITERATOR&#45;&gt;INTF&#45;IF_XCO_STRING -->
<g id="edge15" class="edge">
<title>INTF&#45;IF_XCO_STRING_ITERATOR&#45;&gt;INTF&#45;IF_XCO_STRING</title>
<path fill="none" stroke="black" d="M1493.88,-503.88C1467.17,-494.14 1433.53,-481.87 1405.38,-471.61"/>
<polygon fill="black" stroke="black" points="1406.26,-468.21 1395.67,-468.07 1403.87,-474.78 1406.26,-468.21"/>
</g>
<!-- INTF&#45;IF_XCO_STRING&#45;&gt;INTF&#45;IF_XCO_STRING_DECOMPOSITION -->
<g id="edge18" class="edge">
<title>INTF&#45;IF_XCO_STRING&#45;&gt;INTF&#45;IF_XCO_STRING_DECOMPOSITION</title>
<path fill="none" stroke="black" d="M1276.37,-468.02C1218.22,-485.06 1139.35,-517.43 1094.85,-576 1065.12,-615.14 1062.81,-675.04 1061.63,-709.68"/>
<polygon fill="black" stroke="black" points="1058.12,-709.86 1061.25,-719.98 1065.12,-710.11 1058.12,-709.86"/>
</g>
<!-- INTF&#45;IF_XCO_STRING&#45;&gt;INTF&#45;IF_XCO_STRINGS -->
<g id="edge17" class="edge">
<title>INTF&#45;IF_XCO_STRING&#45;&gt;INTF&#45;IF_XCO_STRINGS</title>
<path fill="none" stroke="black" d="M1356.66,-468.12C1366.63,-500.94 1384.49,-572.94 1428.85,-612 1444.37,-625.66 1463.92,-636.18 1482.56,-644.11"/>
<polygon fill="black" stroke="black" points="1481.32,-647.38 1491.91,-647.91 1483.96,-640.9 1481.32,-647.38"/>
</g>
<!-- INTF&#45;IF_XCO_STRING&#45;&gt;INTF&#45;IF_XCO_STRING_ITERABLE -->
<g id="edge24" class="edge">
<title>INTF&#45;IF_XCO_STRING&#45;&gt;INTF&#45;IF_XCO_STRING_ITERABLE</title>
<path fill="none" stroke="black" d="M1357.84,-468.3C1368.88,-488.05 1389.32,-520.19 1414.85,-540 1432.39,-553.61 1453.9,-564.24 1474.34,-572.3"/>
<polygon fill="black" stroke="black" points="1473.36,-575.67 1483.95,-575.93 1475.84,-569.12 1473.36,-575.67"/>
</g>
<!-- INTF&#45;IF_XCO_STRING&#45;&gt;INTF&#45;IF_XCO_TEXT -->
<g id="edge23" class="edge">
<title>INTF&#45;IF_XCO_STRING&#45;&gt;INTF&#45;IF_XCO_TEXT</title>
<path fill="none" stroke="black" d="M1428.03,-434.57C1501.07,-421.08 1600.87,-402.11 1618.85,-396 1702.97,-367.41 1797.85,-395.85 1797.85,-307 1797.85,-307 1797.85,-307 1797.85,-233 1797.85,-158.36 1710.47,-122.04 1641.6,-105"/>
<polygon fill="black" stroke="black" points="1642.12,-101.53 1631.58,-102.63 1640.51,-108.34 1642.12,-101.53"/>
</g>
<!-- INTF&#45;IF_XCO_STRING&#45;&gt;INTF&#45;IF_XCO_NEWS -->
<g id="edge22" class="edge">
<title>INTF&#45;IF_XCO_STRING&#45;&gt;INTF&#45;IF_XCO_NEWS</title>
<path fill="none" stroke="black" d="M1356.15,-431.85C1371.99,-394.6 1409.63,-306.07 1428.57,-261.54"/>
<polygon fill="black" stroke="black" points="1431.83,-262.8 1432.53,-252.23 1425.39,-260.07 1431.83,-262.8"/>
</g>
<!-- INTF&#45;IF_XCO_MESSAGE -->
<g id="node13" class="node">
<title>INTF&#45;IF_XCO_MESSAGE</title>
<g id="a_node13"><a xlink:href="./INTF_IF_XCO_MESSAGE.html" xlink:title="INTF&#45;IF_XCO_MESSAGE">
<polygon fill="none" stroke="green" points="997.44,-396 824.27,-396 824.27,-360 997.44,-360 997.44,-396"/>
<text text-anchor="middle" x="910.85" y="-373.8" font-family="Times,serif" font-size="14.00">INTF&#45;IF_XCO_MESSAGE</text>
</a>
</g>
</g>
<!-- INTF&#45;IF_XCO_STRING&#45;&gt;INTF&#45;IF_XCO_MESSAGE -->
<g id="edge19" class="edge">
<title>INTF&#45;IF_XCO_STRING&#45;&gt;INTF&#45;IF_XCO_MESSAGE</title>
<path fill="none" stroke="black" d="M1269.53,-436.32C1195.89,-424.55 1086.08,-407.01 1007.38,-394.43"/>
<polygon fill="black" stroke="black" points="1007.89,-390.96 997.46,-392.84 1006.78,-397.88 1007.89,-390.96"/>
</g>
<!-- INTF&#45;IF_XCO_XSTRING -->
<g id="node35" class="node">
<title>INTF&#45;IF_XCO_XSTRING</title>
<g id="a_node35"><a xlink:href="./INTF_IF_XCO_XSTRING.html" xlink:title="INTF&#45;IF_XCO_XSTRING">
<polygon fill="none" stroke="green" points="1610.26,-396 1441.44,-396 1441.44,-360 1610.26,-360 1610.26,-396"/>
<text text-anchor="middle" x="1525.85" y="-373.8" font-family="Times,serif" font-size="14.00">INTF&#45;IF_XCO_XSTRING</text>
</a>
</g>
</g>
<!-- INTF&#45;IF_XCO_STRING&#45;&gt;INTF&#45;IF_XCO_XSTRING -->
<g id="edge21" class="edge">
<title>INTF&#45;IF_XCO_STRING&#45;&gt;INTF&#45;IF_XCO_XSTRING</title>
<path fill="none" stroke="black" d="M1386.25,-431.88C1409.76,-422.18 1440.5,-409.98 1467.18,-399.74"/>
<polygon fill="black" stroke="black" points="1468.71,-402.9 1476.8,-396.07 1466.21,-396.37 1468.71,-402.9"/>
</g>
<!-- INTF&#45;IF_XCO_STRING_XSTRING_CNVRSN -->
<g id="node37" class="node">
<title>INTF&#45;IF_XCO_STRING_XSTRING_CNVRSN</title>
<g id="a_node37"><a xlink:href="./INTF_IF_XCO_STRING_XSTRING_CNVRSN.html" xlink:title="INTF&#45;IF_XCO_STRING_XSTRING_CNVRSN">
<polygon fill="none" stroke="green" points="806.58,-396 517.12,-396 517.12,-360 806.58,-360 806.58,-396"/>
<text text-anchor="middle" x="661.85" y="-373.8" font-family="Times,serif" font-size="14.00">INTF&#45;IF_XCO_STRING_XSTRING_CNVRSN</text>
</a>
</g>
</g>
<!-- INTF&#45;IF_XCO_STRING&#45;&gt;INTF&#45;IF_XCO_STRING_XSTRING_CNVRSN -->
<g id="edge20" class="edge">
<title>INTF&#45;IF_XCO_STRING&#45;&gt;INTF&#45;IF_XCO_STRING_XSTRING_CNVRSN</title>
<path fill="none" stroke="black" d="M1269.66,-441.43C1167.41,-431.6 983.65,-413.7 816.76,-396.2"/>
<polygon fill="black" stroke="black" points="817.12,-392.71 806.81,-395.15 816.39,-399.68 817.12,-392.71"/>
</g>
<!-- INTF&#45;IF_XCO_TEXT&#45;&gt;INTF&#45;IF_XCO_STRINGS -->
<g id="edge25" class="edge">
<title>INTF&#45;IF_XCO_TEXT&#45;&gt;INTF&#45;IF_XCO_STRINGS</title>
<path fill="none" stroke="black" d="M1631.66,-95.39C1718.76,-104.99 1853.85,-135.57 1853.85,-233 1853.85,-523 1853.85,-523 1853.85,-523 1853.85,-567.94 1841.85,-585.1 1805.85,-612 1779.85,-631.43 1702.25,-645.87 1638.31,-654.73"/>
<polygon fill="black" stroke="black" points="1637.62,-651.3 1628.18,-656.11 1638.56,-658.23 1637.62,-651.3"/>
</g>
<!-- TTYP&#45;SXCO_T_MESSAGES -->
<g id="node12" class="node">
<title>TTYP&#45;SXCO_T_MESSAGES</title>
<g id="a_node12"><a xlink:href="./TTYP_SXCO_T_MESSAGES.html" xlink:title="TTYP&#45;SXCO_T_MESSAGES">
<polygon fill="none" stroke="green" points="1525,-180 1336.7,-180 1336.7,-144 1525,-144 1525,-180"/>
<text text-anchor="middle" x="1430.85" y="-157.8" font-family="Times,serif" font-size="14.00">TTYP&#45;SXCO_T_MESSAGES</text>
</a>
</g>
</g>
<!-- INTF&#45;IF_XCO_NEWS&#45;&gt;TTYP&#45;SXCO_T_MESSAGES -->
<g id="edge26" class="edge">
<title>INTF&#45;IF_XCO_NEWS&#45;&gt;TTYP&#45;SXCO_T_MESSAGES</title>
<path fill="none" stroke="black" d="M1437.63,-215.7C1436.64,-207.98 1435.44,-198.71 1434.34,-190.11"/>
<polygon fill="black" stroke="black" points="1437.8,-189.58 1433.05,-180.1 1430.86,-190.47 1437.8,-189.58"/>
</g>
<!-- TTYP&#45;SXCO_T_MESSAGES&#45;&gt;INTF&#45;IF_XCO_MESSAGE -->
<g id="edge27" class="edge">
<title>TTYP&#45;SXCO_T_MESSAGES&#45;&gt;INTF&#45;IF_XCO_MESSAGE</title>
<path fill="none" stroke="black" d="M1398.54,-180.06C1384.08,-189.08 1367.86,-201.34 1356.85,-216 1326.31,-256.7 1358.39,-291.97 1318.85,-324 1272.48,-361.57 1112.79,-372.67 1007.49,-375.86"/>
<polygon fill="black" stroke="black" points="1007.37,-372.36 997.48,-376.14 1007.57,-379.35 1007.37,-372.36"/>
</g>
<!-- INTF&#45;IF_XCO_MESSAGE&#45;&gt;INTF&#45;IF_XCO_NEWS -->
<g id="edge36" class="edge">
<title>INTF&#45;IF_XCO_MESSAGE&#45;&gt;INTF&#45;IF_XCO_NEWS</title>
<path fill="none" stroke="black" d="M997.64,-373.33C1107.95,-367.5 1291.34,-353.63 1351.85,-324 1381.35,-309.55 1406.7,-281.13 1422.51,-260.28"/>
<polygon fill="black" stroke="black" points="1425.39,-262.28 1428.49,-252.15 1419.75,-258.13 1425.39,-262.28"/>
</g>
<!-- INTF&#45;IF_T100_DYN_MSG -->
<g id="node14" class="node">
<title>INTF&#45;IF_T100_DYN_MSG</title>
<g id="a_node14"><a xlink:href="./INTF_IF_T100_DYN_MSG.html" xlink:title="INTF&#45;IF_T100_DYN_MSG">
<polygon fill="none" stroke="green" points="736.77,-324 560.94,-324 560.94,-288 736.77,-288 736.77,-324"/>
<text text-anchor="middle" x="648.85" y="-301.8" font-family="Times,serif" font-size="14.00">INTF&#45;IF_T100_DYN_MSG</text>
</a>
</g>
</g>
<!-- INTF&#45;IF_XCO_MESSAGE&#45;&gt;INTF&#45;IF_T100_DYN_MSG -->
<g id="edge35" class="edge">
<title>INTF&#45;IF_XCO_MESSAGE&#45;&gt;INTF&#45;IF_T100_DYN_MSG</title>
<path fill="none" stroke="black" d="M847.1,-359.97C809.53,-349.93 761.85,-337.19 722.66,-326.72"/>
<polygon fill="black" stroke="black" points="723.46,-323.31 712.9,-324.11 721.65,-330.07 723.46,-323.31"/>
</g>
<!-- DTEL&#45;SYMSGNO -->
<g id="node19" class="node">
<title>DTEL&#45;SYMSGNO</title>
<g id="a_node19"><a xlink:href="./DTEL_SYMSGNO.html" xlink:title="DTEL&#45;SYMSGNO">
<polygon fill="none" stroke="green" points="717.21,-108 592.49,-108 592.49,-72 717.21,-72 717.21,-108"/>
<text text-anchor="middle" x="654.85" y="-85.8" font-family="Times,serif" font-size="14.00">DTEL&#45;SYMSGNO</text>
</a>
</g>
</g>
<!-- INTF&#45;IF_XCO_MESSAGE&#45;&gt;DTEL&#45;SYMSGNO -->
<g id="edge31" class="edge">
<title>INTF&#45;IF_XCO_MESSAGE&#45;&gt;DTEL&#45;SYMSGNO</title>
<path fill="none" stroke="black" d="M835.32,-359.89C817.09,-352.04 799.74,-340.61 788.85,-324 766.21,-289.47 821.98,-231.47 831.85,-180 834.87,-164.29 841.41,-156.83 831.85,-144 818.93,-126.63 770.42,-112.85 727.45,-103.69"/>
<polygon fill="black" stroke="black" points="728.03,-100.24 717.53,-101.64 726.61,-107.09 728.03,-100.24"/>
</g>
<!-- DTEL&#45;SYMSGID -->
<g id="node21" class="node">
<title>DTEL&#45;SYMSGID</title>
<g id="a_node21"><a xlink:href="./DTEL_SYMSGID.html" xlink:title="DTEL&#45;SYMSGID">
<polygon fill="none" stroke="green" points="315.77,-108 195.94,-108 195.94,-72 315.77,-72 315.77,-108"/>
<text text-anchor="middle" x="255.85" y="-85.8" font-family="Times,serif" font-size="14.00">DTEL&#45;SYMSGID</text>
</a>
</g>
</g>
<!-- INTF&#45;IF_XCO_MESSAGE&#45;&gt;DTEL&#45;SYMSGID -->
<g id="edge30" class="edge">
<title>INTF&#45;IF_XCO_MESSAGE&#45;&gt;DTEL&#45;SYMSGID</title>
<path fill="none" stroke="black" d="M824.19,-361.06C821.38,-360.68 818.6,-360.33 815.85,-360 642.1,-339.29 153,-381.99 35.85,-252 3.17,-215.74 -14.72,-182.06 15.85,-144 36.86,-117.84 122.61,-103.82 185.64,-96.9"/>
<polygon fill="black" stroke="black" points="186.37,-100.34 195.94,-95.81 185.63,-93.38 186.37,-100.34"/>
</g>
<!-- DTEL&#45;SYMSGTY -->
<g id="node23" class="node">
<title>DTEL&#45;SYMSGTY</title>
<g id="a_node23"><a xlink:href="./DTEL_SYMSGTY.html" xlink:title="DTEL&#45;SYMSGTY">
<polygon fill="none" stroke="green" points="544.66,-252 421.05,-252 421.05,-216 544.66,-216 544.66,-252"/>
<text text-anchor="middle" x="482.85" y="-229.8" font-family="Times,serif" font-size="14.00">DTEL&#45;SYMSGTY</text>
</a>
</g>
</g>
<!-- INTF&#45;IF_XCO_MESSAGE&#45;&gt;DTEL&#45;SYMSGTY -->
<g id="edge29" class="edge">
<title>INTF&#45;IF_XCO_MESSAGE&#45;&gt;DTEL&#45;SYMSGTY</title>
<path fill="none" stroke="black" d="M824.16,-361.33C821.36,-360.88 818.58,-360.43 815.85,-360 698.88,-341.57 654.42,-383.19 551.85,-324 526.6,-309.42 507.35,-281.62 495.68,-260.95"/>
<polygon fill="black" stroke="black" points="498.69,-259.16 490.86,-252.03 492.53,-262.49 498.69,-259.16"/>
</g>
<!-- DTEL&#45;SYMSGV -->
<g id="node25" class="node">
<title>DTEL&#45;SYMSGV</title>
<g id="a_node25"><a xlink:href="./DTEL_SYMSGV.html" xlink:title="DTEL&#45;SYMSGV">
<polygon fill="none" stroke="green" points="159.11,-252 44.6,-252 44.6,-216 159.11,-216 159.11,-252"/>
<text text-anchor="middle" x="101.85" y="-229.8" font-family="Times,serif" font-size="14.00">DTEL&#45;SYMSGV</text>
</a>
</g>
</g>
<!-- INTF&#45;IF_XCO_MESSAGE&#45;&gt;DTEL&#45;SYMSGV -->
<g id="edge32" class="edge">
<title>INTF&#45;IF_XCO_MESSAGE&#45;&gt;DTEL&#45;SYMSGV</title>
<path fill="none" stroke="black" d="M824.19,-361.11C821.38,-360.72 818.6,-360.35 815.85,-360 601.41,-332.93 541.68,-371.67 330.85,-324 263.85,-308.85 190.52,-277.54 145.34,-256.4"/>
<polygon fill="black" stroke="black" points="146.68,-253.16 136.14,-252.05 143.69,-259.49 146.68,-253.16"/>
</g>
<!-- INTF&#45;IF_XCO_MESSAGE_SHORT_TEXT -->
<g id="node27" class="node">
<title>INTF&#45;IF_XCO_MESSAGE_SHORT_TEXT</title>
<g id="a_node27"><a xlink:href="./INTF_IF_XCO_MESSAGE_SHORT_TEXT.html" xlink:title="INTF&#45;IF_XCO_MESSAGE_SHORT_TEXT">
<polygon fill="none" stroke="green" points="1310.09,-324 1041.62,-324 1041.62,-288 1310.09,-288 1310.09,-324"/>
<text text-anchor="middle" x="1175.85" y="-301.8" font-family="Times,serif" font-size="14.00">INTF&#45;IF_XCO_MESSAGE_SHORT_TEXT</text>
</a>
</g>
</g>
<!-- INTF&#45;IF_XCO_MESSAGE&#45;&gt;INTF&#45;IF_XCO_MESSAGE_SHORT_TEXT -->
<g id="edge34" class="edge">
<title>INTF&#45;IF_XCO_MESSAGE&#45;&gt;INTF&#45;IF_XCO_MESSAGE_SHORT_TEXT</title>
<path fill="none" stroke="black" d="M969.45,-359.97C1006.47,-349.91 1054.73,-337.14 1095.31,-326.65"/>
<polygon fill="black" stroke="black" points="1096.37,-330 1105.18,-324.11 1094.62,-323.22 1096.37,-330"/>
</g>
<!-- CLAS&#45;CL_XCO_MESSAGE_TYPE -->
<g id="node31" class="node">
<title>CLAS&#45;CL_XCO_MESSAGE_TYPE</title>
<g id="a_node31"><a xlink:href="./CLAS_CL_XCO_MESSAGE_TYPE.html" xlink:title="CLAS&#45;CL_XCO_MESSAGE_TYPE">
<polygon fill="none" stroke="green" points="1023.55,-324 798.15,-324 798.15,-288 1023.55,-288 1023.55,-324"/>
<text text-anchor="middle" x="910.85" y="-301.8" font-family="Times,serif" font-size="14.00">CLAS&#45;CL_XCO_MESSAGE_TYPE</text>
</a>
</g>
</g>
<!-- INTF&#45;IF_XCO_MESSAGE&#45;&gt;CLAS&#45;CL_XCO_MESSAGE_TYPE -->
<g id="edge33" class="edge">
<title>INTF&#45;IF_XCO_MESSAGE&#45;&gt;CLAS&#45;CL_XCO_MESSAGE_TYPE</title>
<path fill="none" stroke="black" d="M910.85,-359.7C910.85,-351.98 910.85,-342.71 910.85,-334.11"/>
<polygon fill="black" stroke="black" points="914.35,-334.1 910.85,-324.1 907.35,-334.1 914.35,-334.1"/>
</g>
<!-- TABL&#45;SYMSG -->
<g id="node34" class="node">
<title>TABL&#45;SYMSG</title>
<g id="a_node34"><a xlink:href="./TABL_SYMSG.html" xlink:title="TABL&#45;SYMSG">
<polygon fill="none" stroke="green" points="445.79,-324 339.92,-324 339.92,-288 445.79,-288 445.79,-324"/>
<text text-anchor="middle" x="392.85" y="-301.8" font-family="Times,serif" font-size="14.00">TABL&#45;SYMSG</text>
</a>
</g>
</g>
<!-- INTF&#45;IF_XCO_MESSAGE&#45;&gt;TABL&#45;SYMSG -->
<g id="edge28" class="edge">
<title>INTF&#45;IF_XCO_MESSAGE&#45;&gt;TABL&#45;SYMSG</title>
<path fill="none" stroke="black" d="M824.17,-361.25C821.37,-360.81 818.59,-360.4 815.85,-360 673.34,-339.31 636.47,-343.96 493.85,-324 481.49,-322.27 468.3,-320.21 455.68,-318.13"/>
<polygon fill="black" stroke="black" points="456.15,-314.66 445.71,-316.46 455,-321.56 456.15,-314.66"/>
</g>
<!-- INTF&#45;IF_T100_MESSAGE -->
<g id="node15" class="node">
<title>INTF&#45;IF_T100_MESSAGE</title>
<g id="a_node15"><a xlink:href="./INTF_IF_T100_MESSAGE.html" xlink:title="INTF&#45;IF_T100_MESSAGE">
<polygon fill="none" stroke="green" points="735.44,-252 562.27,-252 562.27,-216 735.44,-216 735.44,-252"/>
<text text-anchor="middle" x="648.85" y="-229.8" font-family="Times,serif" font-size="14.00">INTF&#45;IF_T100_MESSAGE</text>
</a>
</g>
</g>
<!-- INTF&#45;IF_T100_DYN_MSG&#45;&gt;INTF&#45;IF_T100_MESSAGE -->
<g id="edge40" class="edge">
<title>INTF&#45;IF_T100_DYN_MSG&#45;&gt;INTF&#45;IF_T100_MESSAGE</title>
<path fill="none" stroke="black" d="M648.85,-287.7C648.85,-279.98 648.85,-270.71 648.85,-262.11"/>
<polygon fill="black" stroke="black" points="652.35,-262.1 648.85,-252.1 645.35,-262.1 652.35,-262.1"/>
</g>
<!-- INTF&#45;IF_MESSAGE -->
<g id="node16" class="node">
<title>INTF&#45;IF_MESSAGE</title>
<g id="a_node16"><a xlink:href="./INTF_IF_MESSAGE.html" xlink:title="INTF&#45;IF_MESSAGE">
<polygon fill="none" stroke="green" points="822.89,-180 686.82,-180 686.82,-144 822.89,-144 822.89,-180"/>
<text text-anchor="middle" x="754.85" y="-157.8" font-family="Times,serif" font-size="14.00">INTF&#45;IF_MESSAGE</text>
</a>
</g>
</g>
<!-- INTF&#45;IF_T100_DYN_MSG&#45;&gt;INTF&#45;IF_MESSAGE -->
<g id="edge39" class="edge">
<title>INTF&#45;IF_T100_DYN_MSG&#45;&gt;INTF&#45;IF_MESSAGE</title>
<path fill="none" stroke="black" d="M699.81,-287.94C716.8,-279.72 734.12,-268.07 744.85,-252 756.9,-233.98 758.79,-209.19 758.01,-190.35"/>
<polygon fill="black" stroke="black" points="761.5,-190.05 757.33,-180.31 754.52,-190.52 761.5,-190.05"/>
</g>
<!-- INTF&#45;IF_T100_DYN_MSG&#45;&gt;DTEL&#45;SYMSGTY -->
<g id="edge38" class="edge">
<title>INTF&#45;IF_T100_DYN_MSG&#45;&gt;DTEL&#45;SYMSGTY</title>
<path fill="none" stroke="black" d="M608.24,-287.88C585.45,-278.26 556.83,-266.19 532.68,-256.01"/>
<polygon fill="black" stroke="black" points="533.9,-252.73 523.33,-252.07 531.18,-259.18 533.9,-252.73"/>
</g>
<!-- INTF&#45;IF_T100_DYN_MSG&#45;&gt;DTEL&#45;SYMSGV -->
<g id="edge37" class="edge">
<title>INTF&#45;IF_T100_DYN_MSG&#45;&gt;DTEL&#45;SYMSGV</title>
<path fill="none" stroke="black" d="M560.97,-293.75C451.88,-279.79 268.2,-256.29 169.47,-243.65"/>
<polygon fill="black" stroke="black" points="169.68,-240.15 159.32,-242.35 168.79,-247.09 169.68,-240.15"/>
</g>
<!-- INTF&#45;IF_T100_MESSAGE&#45;&gt;INTF&#45;IF_MESSAGE -->
<g id="edge45" class="edge">
<title>INTF&#45;IF_T100_MESSAGE&#45;&gt;INTF&#45;IF_MESSAGE</title>
<path fill="none" stroke="black" d="M674.78,-215.88C688.51,-206.81 705.56,-195.55 720.39,-185.76"/>
<polygon fill="black" stroke="black" points="722.41,-188.62 728.82,-180.19 718.55,-182.78 722.41,-188.62"/>
</g>
<!-- TABL&#45;SCX_T100KEY -->
<g id="node17" class="node">
<title>TABL&#45;SCX_T100KEY</title>
<g id="a_node17"><a xlink:href="./TABL_SCX_T100KEY.html" xlink:title="TABL&#45;SCX_T100KEY">
<polygon fill="none" stroke="yellow" points="554.61,-180 405.1,-180 405.1,-144 554.61,-144 554.61,-180"/>
<text text-anchor="middle" x="479.85" y="-157.8" font-family="Times,serif" font-size="14.00">TABL&#45;SCX_T100KEY</text>
</a>
</g>
</g>
<!-- INTF&#45;IF_T100_MESSAGE&#45;&gt;TABL&#45;SCX_T100KEY -->
<g id="edge44" class="edge">
<title>INTF&#45;IF_T100_MESSAGE&#45;&gt;TABL&#45;SCX_T100KEY</title>
<path fill="none" stroke="black" d="M607.51,-215.88C584.3,-206.26 555.16,-194.19 530.58,-184.01"/>
<polygon fill="black" stroke="black" points="531.64,-180.66 521.06,-180.07 528.96,-187.13 531.64,-180.66"/>
</g>
<!-- DTEL&#45;SCX_ATTRNAME -->
<g id="node18" class="node">
<title>DTEL&#45;SCX_ATTRNAME</title>
<g id="a_node18"><a xlink:href="./DTEL_SCX_ATTRNAME.html" xlink:title="DTEL&#45;SCX_ATTRNAME">
<polygon fill="none" stroke="green" points="567.26,-108 398.44,-108 398.44,-72 567.26,-72 567.26,-108"/>
<text text-anchor="middle" x="482.85" y="-85.8" font-family="Times,serif" font-size="14.00">DTEL&#45;SCX_ATTRNAME</text>
</a>
</g>
</g>
<!-- INTF&#45;IF_T100_MESSAGE&#45;&gt;DTEL&#45;SCX_ATTRNAME -->
<g id="edge43" class="edge">
<title>INTF&#45;IF_T100_MESSAGE&#45;&gt;DTEL&#45;SCX_ATTRNAME</title>
<path fill="none" stroke="black" d="M634.54,-215.8C618.43,-197 590.96,-166.55 563.85,-144 550.71,-133.07 535.23,-122.46 521.33,-113.63"/>
<polygon fill="black" stroke="black" points="522.81,-110.43 512.47,-108.11 519.11,-116.37 522.81,-110.43"/>
</g>
<!-- INTF&#45;IF_T100_MESSAGE&#45;&gt;DTEL&#45;SYMSGNO -->
<g id="edge42" class="edge">
<title>INTF&#45;IF_T100_MESSAGE&#45;&gt;DTEL&#45;SYMSGNO</title>
<path fill="none" stroke="black" d="M649.58,-215.87C650.6,-191.67 652.48,-147.21 653.7,-118.39"/>
<polygon fill="black" stroke="black" points="657.2,-118.33 654.13,-108.19 650.21,-118.03 657.2,-118.33"/>
</g>
<!-- INTF&#45;IF_T100_MESSAGE&#45;&gt;DTEL&#45;SYMSGID -->
<g id="edge41" class="edge">
<title>INTF&#45;IF_T100_MESSAGE&#45;&gt;DTEL&#45;SYMSGID</title>
<path fill="none" stroke="black" d="M561.98,-217.22C494.78,-204.61 410.74,-187.79 395.85,-180 375.24,-169.21 376.8,-157.49 357.85,-144 341.39,-132.28 322,-121.54 304.56,-112.84"/>
<polygon fill="black" stroke="black" points="305.63,-109.46 295.11,-108.22 302.56,-115.75 305.63,-109.46"/>
</g>
<!-- TABL&#45;SCX_T100KEY&#45;&gt;DTEL&#45;SCX_ATTRNAME -->
<g id="edge48" class="edge">
<title>TABL&#45;SCX_T100KEY&#45;&gt;DTEL&#45;SCX_ATTRNAME</title>
<path fill="none" stroke="black" d="M480.59,-143.7C480.93,-135.98 481.32,-126.71 481.69,-118.11"/>
<polygon fill="black" stroke="black" points="485.19,-118.25 482.12,-108.1 478.19,-117.95 485.19,-118.25"/>
</g>
<!-- TABL&#45;SCX_T100KEY&#45;&gt;DTEL&#45;SYMSGNO -->
<g id="edge47" class="edge">
<title>TABL&#45;SCX_T100KEY&#45;&gt;DTEL&#45;SYMSGNO</title>
<path fill="none" stroke="black" d="M522.66,-143.88C546.8,-134.22 577.14,-122.09 602.66,-111.88"/>
<polygon fill="black" stroke="black" points="604.2,-115.03 612.18,-108.07 601.6,-108.53 604.2,-115.03"/>
</g>
<!-- TABL&#45;SCX_T100KEY&#45;&gt;DTEL&#45;SYMSGID -->
<g id="edge46" class="edge">
<title>TABL&#45;SCX_T100KEY&#45;&gt;DTEL&#45;SYMSGID</title>
<path fill="none" stroke="black" d="M425.34,-143.97C393.64,-134.06 353.5,-121.51 320.24,-111.12"/>
<polygon fill="black" stroke="black" points="321.2,-107.75 310.61,-108.11 319.11,-114.43 321.2,-107.75"/>
</g>
<!-- DOMA&#45;SYMSGNO -->
<g id="node20" class="node">
<title>DOMA&#45;SYMSGNO</title>
<g id="a_node20"><a xlink:href="./DOMA_SYMSGNO.html" xlink:title="DOMA&#45;SYMSGNO">
<polygon fill="none" stroke="yellow" points="720.71,-36 588.99,-36 588.99,0 720.71,0 720.71,-36"/>
<text text-anchor="middle" x="654.85" y="-13.8" font-family="Times,serif" font-size="14.00">DOMA&#45;SYMSGNO</text>
</a>
</g>
</g>
<!-- DTEL&#45;SYMSGNO&#45;&gt;DOMA&#45;SYMSGNO -->
<g id="edge49" class="edge">
<title>DTEL&#45;SYMSGNO&#45;&gt;DOMA&#45;SYMSGNO</title>
<path fill="none" stroke="black" d="M654.85,-71.7C654.85,-63.98 654.85,-54.71 654.85,-46.11"/>
<polygon fill="black" stroke="black" points="658.35,-46.1 654.85,-36.1 651.35,-46.1 658.35,-46.1"/>
</g>
<!-- DOMA&#45;ARBGB -->
<g id="node22" class="node">
<title>DOMA&#45;ARBGB</title>
<g id="a_node22"><a xlink:href="./DOMA_ARBGB.html" xlink:title="DOMA&#45;ARBGB">
<polygon fill="none" stroke="yellow" points="311.5,-36 200.2,-36 200.2,0 311.5,0 311.5,-36"/>
<text text-anchor="middle" x="255.85" y="-13.8" font-family="Times,serif" font-size="14.00">DOMA&#45;ARBGB</text>
</a>
</g>
</g>
<!-- DTEL&#45;SYMSGID&#45;&gt;DOMA&#45;ARBGB -->
<g id="edge50" class="edge">
<title>DTEL&#45;SYMSGID&#45;&gt;DOMA&#45;ARBGB</title>
<path fill="none" stroke="black" d="M255.85,-71.7C255.85,-63.98 255.85,-54.71 255.85,-46.11"/>
<polygon fill="black" stroke="black" points="259.35,-46.1 255.85,-36.1 252.35,-46.1 259.35,-46.1"/>
</g>
<!-- DOMA&#45;SYCHAR01 -->
<g id="node24" class="node">
<title>DOMA&#45;SYCHAR01</title>
<g id="a_node24"><a xlink:href="./DOMA_SYCHAR01.html" xlink:title="DOMA&#45;SYCHAR01">
<polygon fill="none" stroke="yellow" points="349.05,-180 214.65,-180 214.65,-144 349.05,-144 349.05,-180"/>
<text text-anchor="middle" x="281.85" y="-157.8" font-family="Times,serif" font-size="14.00">DOMA&#45;SYCHAR01</text>
</a>
</g>
</g>
<!-- DTEL&#45;SYMSGTY&#45;&gt;DOMA&#45;SYCHAR01 -->
<g id="edge51" class="edge">
<title>DTEL&#45;SYMSGTY&#45;&gt;DOMA&#45;SYCHAR01</title>
<path fill="none" stroke="black" d="M433.94,-215.97C405.86,-206.19 370.4,-193.84 340.78,-183.52"/>
<polygon fill="black" stroke="black" points="341.58,-180.09 330.99,-180.11 339.28,-186.71 341.58,-180.09"/>
</g>
<!-- DOMA&#45;SYCHAR50 -->
<g id="node26" class="node">
<title>DOMA&#45;SYCHAR50</title>
<g id="a_node26"><a xlink:href="./DOMA_SYCHAR50.html" xlink:title="DOMA&#45;SYCHAR50">
<polygon fill="none" stroke="yellow" points="159.05,-180 24.65,-180 24.65,-144 159.05,-144 159.05,-180"/>
<text text-anchor="middle" x="91.85" y="-157.8" font-family="Times,serif" font-size="14.00">DOMA&#45;SYCHAR50</text>
</a>
</g>
</g>
<!-- DTEL&#45;SYMSGV&#45;&gt;DOMA&#45;SYCHAR50 -->
<g id="edge52" class="edge">
<title>DTEL&#45;SYMSGV&#45;&gt;DOMA&#45;SYCHAR50</title>
<path fill="none" stroke="black" d="M99.38,-215.7C98.28,-207.98 96.95,-198.71 95.73,-190.11"/>
<polygon fill="black" stroke="black" points="99.18,-189.51 94.3,-180.1 92.25,-190.5 99.18,-189.51"/>
</g>
<!-- INTF&#45;IF_XCO_MESSAGE_SHORT_TEXT&#45;&gt;INTF&#45;IF_XCO_TEXT -->
<g id="edge54" class="edge">
<title>INTF&#45;IF_XCO_MESSAGE_SHORT_TEXT&#45;&gt;INTF&#45;IF_XCO_TEXT</title>
<path fill="none" stroke="black" d="M1226.45,-287.94C1245.43,-279.53 1265.99,-267.74 1280.85,-252 1316.8,-213.94 1287.56,-177.42 1327.85,-144 1350.65,-125.09 1420.7,-110.73 1477.91,-101.77"/>
<polygon fill="black" stroke="black" points="1478.71,-105.18 1488.06,-100.21 1477.65,-98.27 1478.71,-105.18"/>
</g>
<!-- INTF&#45;IF_XCO_MESSAGE_SHORT_TEXT&#45;&gt;INTF&#45;IF_XCO_MESSAGE -->
<g id="edge53" class="edge">
<title>INTF&#45;IF_XCO_MESSAGE_SHORT_TEXT&#45;&gt;INTF&#45;IF_XCO_MESSAGE</title>
<path fill="none" stroke="black" d="M1116.97,-324.11C1079.9,-334.18 1031.62,-346.95 991.09,-357.43"/>
<polygon fill="black" stroke="black" points="990.04,-354.08 981.23,-359.97 991.79,-360.86 990.04,-354.08"/>
</g>
<!-- INTF&#45;IF_XCO_L10N_TEXT -->
<g id="node28" class="node">
<title>INTF&#45;IF_XCO_L10N_TEXT</title>
<g id="a_node28"><a xlink:href="./INTF_IF_XCO_L10N_TEXT.html" xlink:title="INTF&#45;IF_XCO_L10N_TEXT">
<polygon fill="none" stroke="yellow" points="1271.53,-252 1088.17,-252 1088.17,-216 1271.53,-216 1271.53,-252"/>
<text text-anchor="middle" x="1179.85" y="-229.8" font-family="Times,serif" font-size="14.00">INTF&#45;IF_XCO_L10N_TEXT</text>
</a>
</g>
</g>
<!-- INTF&#45;IF_XCO_MESSAGE_SHORT_TEXT&#45;&gt;INTF&#45;IF_XCO_L10N_TEXT -->
<g id="edge55" class="edge">
<title>INTF&#45;IF_XCO_MESSAGE_SHORT_TEXT&#45;&gt;INTF&#45;IF_XCO_L10N_TEXT</title>
<path fill="none" stroke="black" d="M1176.84,-287.7C1177.28,-279.98 1177.81,-270.71 1178.3,-262.11"/>
<polygon fill="black" stroke="black" points="1181.8,-262.29 1178.88,-252.1 1174.81,-261.89 1181.8,-262.29"/>
</g>
<!-- INTF&#45;IF_XCO_L10N_TEXT&#45;&gt;INTF&#45;IF_XCO_TEXT -->
<g id="edge57" class="edge">
<title>INTF&#45;IF_XCO_L10N_TEXT&#45;&gt;INTF&#45;IF_XCO_TEXT</title>
<path fill="none" stroke="black" d="M1199.29,-215.76C1227.11,-191.23 1276.04,-148.68 1285.85,-144 1346.38,-115.15 1421.54,-102.01 1477.82,-96.01"/>
<polygon fill="black" stroke="black" points="1478.5,-99.46 1488.1,-94.98 1477.8,-92.5 1478.5,-99.46"/>
</g>
<!-- DTEL&#45;SPRAS -->
<g id="node29" class="node">
<title>DTEL&#45;SPRAS</title>
<g id="a_node29"><a xlink:href="./DTEL_SPRAS.html" xlink:title="DTEL&#45;SPRAS">
<polygon fill="none" stroke="green" points="1229.57,-180 1130.14,-180 1130.14,-144 1229.57,-144 1229.57,-180"/>
<text text-anchor="middle" x="1179.85" y="-157.8" font-family="Times,serif" font-size="14.00">DTEL&#45;SPRAS</text>
</a>
</g>
</g>
<!-- INTF&#45;IF_XCO_L10N_TEXT&#45;&gt;DTEL&#45;SPRAS -->
<g id="edge56" class="edge">
<title>INTF&#45;IF_XCO_L10N_TEXT&#45;&gt;DTEL&#45;SPRAS</title>
<path fill="none" stroke="black" d="M1179.85,-215.7C1179.85,-207.98 1179.85,-198.71 1179.85,-190.11"/>
<polygon fill="black" stroke="black" points="1183.35,-190.1 1179.85,-180.1 1176.35,-190.1 1183.35,-190.1"/>
</g>
<!-- DOMA&#45;SPRAS -->
<g id="node30" class="node">
<title>DOMA&#45;SPRAS</title>
<g id="a_node30"><a xlink:href="./DOMA_SPRAS.html" xlink:title="DOMA&#45;SPRAS">
<polygon fill="none" stroke="green" points="1233.07,-108 1126.64,-108 1126.64,-72 1233.07,-72 1233.07,-108"/>
<text text-anchor="middle" x="1179.85" y="-85.8" font-family="Times,serif" font-size="14.00">DOMA&#45;SPRAS</text>
</a>
</g>
</g>
<!-- DTEL&#45;SPRAS&#45;&gt;DOMA&#45;SPRAS -->
<g id="edge58" class="edge">
<title>DTEL&#45;SPRAS&#45;&gt;DOMA&#45;SPRAS</title>
<path fill="none" stroke="black" d="M1179.85,-143.7C1179.85,-135.98 1179.85,-126.71 1179.85,-118.11"/>
<polygon fill="black" stroke="black" points="1183.35,-118.1 1179.85,-108.1 1176.35,-118.1 1183.35,-118.1"/>
</g>
<!-- CLAS&#45;CL_XCO_MESSAGE_TYPE&#45;&gt;INTF&#45;IF_XCO_NEWS -->
<g id="edge61" class="edge">
<title>CLAS&#45;CL_XCO_MESSAGE_TYPE&#45;&gt;INTF&#45;IF_XCO_NEWS</title>
<path fill="none" stroke="black" d="M1023.52,-289.26C1026.66,-288.84 1029.78,-288.41 1032.85,-288 1144.54,-272.95 1273.56,-256.27 1355.88,-245.71"/>
<polygon fill="black" stroke="black" points="1356.46,-249.17 1365.93,-244.42 1355.57,-242.22 1356.46,-249.17"/>
</g>
<!-- CLAS&#45;CL_XCO_MESSAGE_TYPE&#45;&gt;DTEL&#45;SYMSGTY -->
<g id="edge59" class="edge">
<title>CLAS&#45;CL_XCO_MESSAGE_TYPE&#45;&gt;DTEL&#45;SYMSGTY</title>
<path fill="none" stroke="black" d="M797.94,-290.97C729.87,-281.87 641.27,-268.91 554.63,-252.27"/>
<polygon fill="black" stroke="black" points="555.11,-248.79 544.62,-250.32 553.77,-255.66 555.11,-248.79"/>
</g>
<!-- CLAS&#45;CL_XCO_ENUM_CONSTANT -->
<g id="node32" class="node">
<title>CLAS&#45;CL_XCO_ENUM_CONSTANT</title>
<g id="a_node32"><a xlink:href="./CLAS_CL_XCO_ENUM_CONSTANT.html" xlink:title="CLAS&#45;CL_XCO_ENUM_CONSTANT">
<polygon fill="none" stroke="yellow" points="1070.09,-252 829.61,-252 829.61,-216 1070.09,-216 1070.09,-252"/>
<text text-anchor="middle" x="949.85" y="-229.8" font-family="Times,serif" font-size="14.00">CLAS&#45;CL_XCO_ENUM_CONSTANT</text>
</a>
</g>
</g>
<!-- CLAS&#45;CL_XCO_MESSAGE_TYPE&#45;&gt;CLAS&#45;CL_XCO_ENUM_CONSTANT -->
<g id="edge60" class="edge">
<title>CLAS&#45;CL_XCO_MESSAGE_TYPE&#45;&gt;CLAS&#45;CL_XCO_ENUM_CONSTANT</title>
<path fill="none" stroke="black" d="M920.49,-287.7C924.98,-279.64 930.41,-269.89 935.38,-260.98"/>
<polygon fill="black" stroke="black" points="938.51,-262.54 940.32,-252.1 932.4,-259.14 938.51,-262.54"/>
</g>
<!-- INTF&#45;IF_XCO_PRINTABLE -->
<g id="node33" class="node">
<title>INTF&#45;IF_XCO_PRINTABLE</title>
<g id="a_node33"><a xlink:href="./INTF_IF_XCO_PRINTABLE.html" xlink:title="INTF&#45;IF_XCO_PRINTABLE">
<polygon fill="none" stroke="green" points="1092.1,-180 907.61,-180 907.61,-144 1092.1,-144 1092.1,-180"/>
<text text-anchor="middle" x="999.85" y="-157.8" font-family="Times,serif" font-size="14.00">INTF&#45;IF_XCO_PRINTABLE</text>
</a>
</g>
</g>
<!-- CLAS&#45;CL_XCO_ENUM_CONSTANT&#45;&gt;INTF&#45;IF_XCO_PRINTABLE -->
<g id="edge62" class="edge">
<title>CLAS&#45;CL_XCO_ENUM_CONSTANT&#45;&gt;INTF&#45;IF_XCO_PRINTABLE</title>
<path fill="none" stroke="black" d="M962.21,-215.7C968.09,-207.47 975.22,-197.48 981.7,-188.42"/>
<polygon fill="black" stroke="black" points="984.67,-190.28 987.64,-180.1 978.98,-186.21 984.67,-190.28"/>
</g>
<!-- INTF&#45;IF_XCO_PRINTABLE&#45;&gt;INTF&#45;IF_XCO_TEXT -->
<g id="edge63" class="edge">
<title>INTF&#45;IF_XCO_PRINTABLE&#45;&gt;INTF&#45;IF_XCO_TEXT</title>
<path fill="none" stroke="black" d="M1092.32,-147.82C1101.95,-146.5 1111.6,-145.21 1120.85,-144 1245.46,-127.73 1390.2,-110.59 1478.38,-100.36"/>
<polygon fill="black" stroke="black" points="1478.79,-103.83 1488.32,-99.2 1477.99,-96.88 1478.79,-103.83"/>
</g>
<!-- TABL&#45;SYMSG&#45;&gt;DTEL&#45;SYMSGNO -->
<g id="edge66" class="edge">
<title>TABL&#45;SYMSG&#45;&gt;DTEL&#45;SYMSGNO</title>
<path fill="none" stroke="black" d="M391.48,-287.76C390.88,-267.76 393.18,-235.09 411.85,-216 460.39,-166.37 503.04,-213.49 563.85,-180 592.77,-164.07 618.94,-136.42 635.71,-116.15"/>
<polygon fill="black" stroke="black" points="638.53,-118.23 642.08,-108.25 633.08,-113.83 638.53,-118.23"/>
</g>
<!-- TABL&#45;SYMSG&#45;&gt;DTEL&#45;SYMSGID -->
<g id="edge65" class="edge">
<title>TABL&#45;SYMSG&#45;&gt;DTEL&#45;SYMSGID</title>
<path fill="none" stroke="black" d="M344.41,-287.99C299.35,-269.28 234.93,-234.42 205.85,-180 198.31,-165.89 199.95,-158.87 205.85,-144 210.14,-133.2 217.79,-123.32 225.84,-115.1"/>
<polygon fill="black" stroke="black" points="228.43,-117.47 233.26,-108.04 223.6,-112.4 228.43,-117.47"/>
</g>
<!-- TABL&#45;SYMSG&#45;&gt;DTEL&#45;SYMSGTY -->
<g id="edge64" class="edge">
<title>TABL&#45;SYMSG&#45;&gt;DTEL&#45;SYMSGTY</title>
<path fill="none" stroke="black" d="M415.1,-287.7C426.43,-278.88 440.38,-268.03 452.67,-258.47"/>
<polygon fill="black" stroke="black" points="455.12,-261.01 460.86,-252.1 450.82,-255.48 455.12,-261.01"/>
</g>
<!-- TABL&#45;SYMSG&#45;&gt;DTEL&#45;SYMSGV -->
<g id="edge67" class="edge">
<title>TABL&#45;SYMSG&#45;&gt;DTEL&#45;SYMSGV</title>
<path fill="none" stroke="black" d="M339.82,-292.24C291.84,-280.7 220.97,-263.65 169.05,-251.16"/>
<polygon fill="black" stroke="black" points="169.8,-247.74 159.26,-248.81 168.16,-254.55 169.8,-247.74"/>
</g>
<!-- INTF&#45;IF_XCO_XSTRING&#45;&gt;INTF&#45;IF_XCO_STRING -->
<g id="edge69" class="edge">
<title>INTF&#45;IF_XCO_XSTRING&#45;&gt;INTF&#45;IF_XCO_STRING</title>
<path fill="none" stroke="black" d="M1488.59,-396.07C1465.11,-405.76 1434.38,-417.95 1407.68,-428.2"/>
<polygon fill="black" stroke="black" points="1406.14,-425.04 1398.05,-431.88 1408.64,-431.58 1406.14,-425.04"/>
</g>
<!-- INTF&#45;IF_XCO_XSTRING_STRING_CNVRSN -->
<g id="node36" class="node">
<title>INTF&#45;IF_XCO_XSTRING_STRING_CNVRSN</title>
<g id="a_node36"><a xlink:href="./INTF_IF_XCO_XSTRING_STRING_CNVRSN.html" xlink:title="INTF&#45;IF_XCO_XSTRING_STRING_CNVRSN">
<polygon fill="none" stroke="green" points="1731.58,-324 1442.12,-324 1442.12,-288 1731.58,-288 1731.58,-324"/>
<text text-anchor="middle" x="1586.85" y="-301.8" font-family="Times,serif" font-size="14.00">INTF&#45;IF_XCO_XSTRING_STRING_CNVRSN</text>
</a>
</g>
</g>
<!-- INTF&#45;IF_XCO_XSTRING&#45;&gt;INTF&#45;IF_XCO_XSTRING_STRING_CNVRSN -->
<g id="edge68" class="edge">
<title>INTF&#45;IF_XCO_XSTRING&#45;&gt;INTF&#45;IF_XCO_XSTRING_STRING_CNVRSN</title>
<path fill="none" stroke="black" d="M1540.93,-359.7C1548.24,-351.3 1557.16,-341.07 1565.19,-331.86"/>
<polygon fill="black" stroke="black" points="1568.02,-333.94 1571.95,-324.1 1562.74,-329.34 1568.02,-333.94"/>
</g>
<!-- INTF&#45;IF_XCO_STRING_COMPOSITION&#45;&gt;INTF&#45;IF_XCO_STRINGS -->
<g id="edge70" class="edge">
<title>INTF&#45;IF_XCO_STRING_COMPOSITION&#45;&gt;INTF&#45;IF_XCO_STRINGS</title>
<path fill="none" stroke="black" d="M1308.69,-612.05C1356.32,-622.24 1415.66,-635.2 1462.97,-645.75"/>
<polygon fill="black" stroke="black" points="1462.35,-649.2 1472.87,-647.97 1463.87,-642.37 1462.35,-649.2"/>
</g>
<!-- INTF&#45;IF_XCO_STRING_COMPOSITION&#45;&gt;INTF&#45;IF_XCO_STRING -->
<g id="edge71" class="edge">
<title>INTF&#45;IF_XCO_STRING_COMPOSITION&#45;&gt;INTF&#45;IF_XCO_STRING</title>
<path fill="none" stroke="black" d="M1239.81,-575.87C1261.6,-550.92 1302.18,-504.45 1327.22,-475.77"/>
<polygon fill="black" stroke="black" points="1329.9,-478.02 1333.84,-468.19 1324.63,-473.42 1329.9,-478.02"/>
</g>
<!-- DOMA&#45;INT4 -->
<g id="node41" class="node">
<title>DOMA&#45;INT4</title>
<g id="a_node41"><a xlink:href="./DOMA_INT4.html" xlink:title="DOMA&#45;INT4">
<polygon fill="none" stroke="yellow" points="1769.6,-540 1676.11,-540 1676.11,-504 1769.6,-504 1769.6,-540"/>
<text text-anchor="middle" x="1722.85" y="-517.8" font-family="Times,serif" font-size="14.00">DOMA&#45;INT4</text>
</a>
</g>
</g>
<!-- DTEL&#45;INT4&#45;&gt;DOMA&#45;INT4 -->
<g id="edge72" class="edge">
<title>DTEL&#45;INT4&#45;&gt;DOMA&#45;INT4</title>
<path fill="none" stroke="black" d="M1722.85,-575.7C1722.85,-567.98 1722.85,-558.71 1722.85,-550.11"/>
<polygon fill="black" stroke="black" points="1726.35,-550.1 1722.85,-540.1 1719.35,-550.1 1726.35,-550.1"/>
</g>
<!-- INTF&#45;IF_XCO_CP_STRING_CMP_FACTORY&#45;&gt;INTF&#45;IF_XCO_STRING_COMPOSITION -->
<g id="edge73" class="edge">
<title>INTF&#45;IF_XCO_CP_STRING_CMP_FACTORY&#45;&gt;INTF&#45;IF_XCO_STRING_COMPOSITION</title>
<path fill="none" stroke="black" d="M1344.45,-719.87C1320.55,-694.92 1276.04,-648.45 1248.58,-619.77"/>
<polygon fill="black" stroke="black" points="1250.76,-616.99 1241.32,-612.19 1245.71,-621.83 1250.76,-616.99"/>
</g>
</g>
</svg>
