<?xml version="1.0" encoding="UTF-8" standalone="no"?>
<!DOCTYPE svg PUBLIC "-//W3C//DTD SVG 1.1//EN"
 "http://www.w3.org/Graphics/SVG/1.1/DTD/svg11.dtd">
<!-- Generated by graphviz version 2.47.3 (20210619.1520)
 -->
<!-- Title: G Pages: 1 -->
<svg width="1485pt" height="548pt"
 viewBox="0.00 0.00 1484.78 548.00" xmlns="http://www.w3.org/2000/svg" xmlns:xlink="http://www.w3.org/1999/xlink">
<g id="graph0" class="graph" transform="scale(1 1) rotate(0) translate(4 544)">
<title>G</title>
<polygon fill="white" stroke="transparent" points="-4,4 -4,-544 1480.78,-544 1480.78,4 -4,4"/>
<!-- INTF&#45;IF_XCO_GEN_CDS_S_FO_ANN_TARGET -->
<g id="node1" class="node">
<title>INTF&#45;IF_XCO_GEN_CDS_S_FO_ANN_TARGET</title>
<polygon fill="none" stroke="green" points="1111.53,-540 801.64,-540 801.64,-504 1111.53,-504 1111.53,-540"/>
<text text-anchor="middle" x="956.58" y="-517.8" font-family="Times,serif" font-size="14.00">INTF&#45;IF_XCO_GEN_CDS_S_FO_ANN_TARGET</text>
</g>
<!-- INTF&#45;IF_XCO_GEN_CDS_S_FO_ANNOTATION -->
<g id="node2" class="node">
<title>INTF&#45;IF_XCO_GEN_CDS_S_FO_ANNOTATION</title>
<g id="a_node2"><a xlink:href="./INTF_IF_XCO_GEN_CDS_S_FO_ANNOTATION.html" xlink:title="INTF&#45;IF_XCO_GEN_CDS_S_FO_ANNOTATION">
<polygon fill="none" stroke="green" points="1020.52,-468 710.65,-468 710.65,-432 1020.52,-432 1020.52,-468"/>
<text text-anchor="middle" x="865.58" y="-445.8" font-family="Times,serif" font-size="14.00">INTF&#45;IF_XCO_GEN_CDS_S_FO_ANNOTATION</text>
</a>
</g>
</g>
<!-- INTF&#45;IF_XCO_GEN_CDS_S_FO_ANN_TARGET&#45;&gt;INTF&#45;IF_XCO_GEN_CDS_S_FO_ANNOTATION -->
<g id="edge2" class="edge">
<title>INTF&#45;IF_XCO_GEN_CDS_S_FO_ANN_TARGET&#45;&gt;INTF&#45;IF_XCO_GEN_CDS_S_FO_ANNOTATION</title>
<path fill="none" stroke="black" d="M934.09,-503.7C922.63,-494.88 908.53,-484.03 896.1,-474.47"/>
<polygon fill="black" stroke="black" points="897.88,-471.43 887.82,-468.1 893.61,-476.98 897.88,-471.43"/>
</g>
<!-- DTEL&#45;SXCO_CDS_ANN_PROPERTY -->
<g id="node13" class="node">
<title>DTEL&#45;SXCO_CDS_ANN_PROPERTY</title>
<g id="a_node13"><a xlink:href="./DTEL_SXCO_CDS_ANN_PROPERTY.html" xlink:title="DTEL&#45;SXCO_CDS_ANN_PROPERTY">
<polygon fill="none" stroke="green" points="1170.44,-396 926.72,-396 926.72,-360 1170.44,-360 1170.44,-396"/>
<text text-anchor="middle" x="1048.58" y="-373.8" font-family="Times,serif" font-size="14.00">DTEL&#45;SXCO_CDS_ANN_PROPERTY</text>
</a>
</g>
</g>
<!-- INTF&#45;IF_XCO_GEN_CDS_S_FO_ANN_TARGET&#45;&gt;DTEL&#45;SXCO_CDS_ANN_PROPERTY -->
<g id="edge1" class="edge">
<title>INTF&#45;IF_XCO_GEN_CDS_S_FO_ANN_TARGET&#45;&gt;DTEL&#45;SXCO_CDS_ANN_PROPERTY</title>
<path fill="none" stroke="black" d="M990.06,-503.99C1004.31,-495.12 1019.85,-482.97 1029.58,-468 1041.54,-449.62 1046.11,-425.02 1047.8,-406.34"/>
<polygon fill="black" stroke="black" points="1051.31,-406.33 1048.49,-396.11 1044.32,-405.85 1051.31,-406.33"/>
</g>
<!-- INTF&#45;IF_XCO_GEN_CDS_S_FO_ANN_VALUE -->
<g id="node3" class="node">
<title>INTF&#45;IF_XCO_GEN_CDS_S_FO_ANN_VALUE</title>
<g id="a_node3"><a xlink:href="./INTF_IF_XCO_GEN_CDS_S_FO_ANN_VALUE.html" xlink:title="INTF&#45;IF_XCO_GEN_CDS_S_FO_ANN_VALUE">
<polygon fill="none" stroke="green" points="908.75,-396 606.42,-396 606.42,-360 908.75,-360 908.75,-396"/>
<text text-anchor="middle" x="757.58" y="-373.8" font-family="Times,serif" font-size="14.00">INTF&#45;IF_XCO_GEN_CDS_S_FO_ANN_VALUE</text>
</a>
</g>
</g>
<!-- INTF&#45;IF_XCO_GEN_CDS_S_FO_ANNOTATION&#45;&gt;INTF&#45;IF_XCO_GEN_CDS_S_FO_ANN_VALUE -->
<g id="edge4" class="edge">
<title>INTF&#45;IF_XCO_GEN_CDS_S_FO_ANNOTATION&#45;&gt;INTF&#45;IF_XCO_GEN_CDS_S_FO_ANN_VALUE</title>
<path fill="none" stroke="black" d="M839.16,-431.88C825.17,-422.81 807.81,-411.55 792.7,-401.76"/>
<polygon fill="black" stroke="black" points="794.4,-398.69 784.11,-396.19 790.59,-404.57 794.4,-398.69"/>
</g>
<!-- INTF&#45;IF_XCO_GEN_CDS_S_FO_ANNOTATION&#45;&gt;DTEL&#45;SXCO_CDS_ANN_PROPERTY -->
<g id="edge3" class="edge">
<title>INTF&#45;IF_XCO_GEN_CDS_S_FO_ANNOTATION&#45;&gt;DTEL&#45;SXCO_CDS_ANN_PROPERTY</title>
<path fill="none" stroke="black" d="M910.35,-431.88C935.7,-422.18 967.59,-409.98 994.36,-399.74"/>
<polygon fill="black" stroke="black" points="995.87,-402.91 1003.96,-396.07 993.37,-396.37 995.87,-402.91"/>
</g>
<!-- INTF&#45;IF_XCO_GEN_CDS_S_FO_ANN_V_BLDR -->
<g id="node4" class="node">
<title>INTF&#45;IF_XCO_GEN_CDS_S_FO_ANN_V_BLDR</title>
<g id="a_node4"><a xlink:href="./INTF_IF_XCO_GEN_CDS_S_FO_ANN_V_BLDR.html" xlink:title="INTF&#45;IF_XCO_GEN_CDS_S_FO_ANN_V_BLDR">
<polygon fill="none" stroke="green" points="808.26,-324 498.91,-324 498.91,-288 808.26,-288 808.26,-324"/>
<text text-anchor="middle" x="653.58" y="-301.8" font-family="Times,serif" font-size="14.00">INTF&#45;IF_XCO_GEN_CDS_S_FO_ANN_V_BLDR</text>
</a>
</g>
</g>
<!-- INTF&#45;IF_XCO_GEN_CDS_S_FO_ANN_VALUE&#45;&gt;INTF&#45;IF_XCO_GEN_CDS_S_FO_ANN_V_BLDR -->
<g id="edge6" class="edge">
<title>INTF&#45;IF_XCO_GEN_CDS_S_FO_ANN_VALUE&#45;&gt;INTF&#45;IF_XCO_GEN_CDS_S_FO_ANN_V_BLDR</title>
<path fill="none" stroke="black" d="M732.14,-359.88C718.8,-350.89 702.26,-339.76 687.81,-330.03"/>
<polygon fill="black" stroke="black" points="689.37,-326.87 679.12,-324.19 685.46,-332.68 689.37,-326.87"/>
</g>
<!-- INTF&#45;IF_XCO_CDS_ANN_VALUE -->
<g id="node5" class="node">
<title>INTF&#45;IF_XCO_CDS_ANN_VALUE</title>
<g id="a_node5"><a xlink:href="./INTF_IF_XCO_CDS_ANN_VALUE.html" xlink:title="INTF&#45;IF_XCO_CDS_ANN_VALUE">
<polygon fill="none" stroke="green" points="857.81,-252 631.36,-252 631.36,-216 857.81,-216 857.81,-252"/>
<text text-anchor="middle" x="744.58" y="-229.8" font-family="Times,serif" font-size="14.00">INTF&#45;IF_XCO_CDS_ANN_VALUE</text>
</a>
</g>
</g>
<!-- INTF&#45;IF_XCO_GEN_CDS_S_FO_ANN_VALUE&#45;&gt;INTF&#45;IF_XCO_CDS_ANN_VALUE -->
<g id="edge5" class="edge">
<title>INTF&#45;IF_XCO_GEN_CDS_S_FO_ANN_VALUE&#45;&gt;INTF&#45;IF_XCO_CDS_ANN_VALUE</title>
<path fill="none" stroke="black" d="M785.84,-359.97C798.02,-350.96 810.96,-338.7 817.58,-324 824.16,-309.41 824.85,-302.25 817.58,-288 811.35,-275.77 800.83,-265.7 789.68,-257.75"/>
<polygon fill="black" stroke="black" points="791.37,-254.67 781.1,-252.08 787.51,-260.51 791.37,-254.67"/>
</g>
<!-- INTF&#45;IF_XCO_GEN_CDS_S_FO_ANN_V_BLDR&#45;&gt;INTF&#45;IF_XCO_CDS_ANN_VALUE -->
<g id="edge7" class="edge">
<title>INTF&#45;IF_XCO_GEN_CDS_S_FO_ANN_V_BLDR&#45;&gt;INTF&#45;IF_XCO_CDS_ANN_VALUE</title>
<path fill="none" stroke="black" d="M676.08,-287.7C687.54,-278.88 701.64,-268.03 714.07,-258.47"/>
<polygon fill="black" stroke="black" points="716.56,-260.98 722.35,-252.1 712.29,-255.43 716.56,-260.98"/>
</g>
<!-- INTF&#45;IF_XCO_CDS_ANN_VT_VISITOR -->
<g id="node6" class="node">
<title>INTF&#45;IF_XCO_CDS_ANN_VT_VISITOR</title>
<g id="a_node6"><a xlink:href="./INTF_IF_XCO_CDS_ANN_VT_VISITOR.html" xlink:title="INTF&#45;IF_XCO_CDS_ANN_VT_VISITOR">
<polygon fill="none" stroke="green" points="874.75,-180 614.42,-180 614.42,-144 874.75,-144 874.75,-180"/>
<text text-anchor="middle" x="744.58" y="-157.8" font-family="Times,serif" font-size="14.00">INTF&#45;IF_XCO_CDS_ANN_VT_VISITOR</text>
</a>
</g>
</g>
<!-- INTF&#45;IF_XCO_CDS_ANN_VALUE&#45;&gt;INTF&#45;IF_XCO_CDS_ANN_VT_VISITOR -->
<g id="edge8" class="edge">
<title>INTF&#45;IF_XCO_CDS_ANN_VALUE&#45;&gt;INTF&#45;IF_XCO_CDS_ANN_VT_VISITOR</title>
<path fill="none" stroke="black" d="M744.58,-215.7C744.58,-207.98 744.58,-198.71 744.58,-190.11"/>
<polygon fill="black" stroke="black" points="748.08,-190.1 744.58,-180.1 741.08,-190.1 748.08,-190.1"/>
</g>
<!-- INTF&#45;IF_XCO_CDS_ANN_VAL_P_NULL -->
<g id="node7" class="node">
<title>INTF&#45;IF_XCO_CDS_ANN_VAL_P_NULL</title>
<g id="a_node7"><a xlink:href="./INTF_IF_XCO_CDS_ANN_VAL_P_NULL.html" xlink:title="INTF&#45;IF_XCO_CDS_ANN_VAL_P_NULL">
<polygon fill="none" stroke="green" points="267.25,-108 -0.08,-108 -0.08,-72 267.25,-72 267.25,-108"/>
<text text-anchor="middle" x="133.58" y="-85.8" font-family="Times,serif" font-size="14.00">INTF&#45;IF_XCO_CDS_ANN_VAL_P_NULL</text>
</a>
</g>
</g>
<!-- INTF&#45;IF_XCO_CDS_ANN_VT_VISITOR&#45;&gt;INTF&#45;IF_XCO_CDS_ANN_VAL_P_NULL -->
<g id="edge13" class="edge">
<title>INTF&#45;IF_XCO_CDS_ANN_VT_VISITOR&#45;&gt;INTF&#45;IF_XCO_CDS_ANN_VAL_P_NULL</title>
<path fill="none" stroke="black" d="M614.44,-146.46C523.09,-136.2 397.78,-122.04 277.32,-108.08"/>
<polygon fill="black" stroke="black" points="277.51,-104.58 267.17,-106.9 276.7,-111.53 277.51,-104.58"/>
</g>
<!-- INTF&#45;IF_XCO_CDS_ANN_VAL_P_BOOLEAN -->
<g id="node9" class="node">
<title>INTF&#45;IF_XCO_CDS_ANN_VAL_P_BOOLEAN</title>
<g id="a_node9"><a xlink:href="./INTF_IF_XCO_CDS_ANN_VAL_P_BOOLEAN.html" xlink:title="INTF&#45;IF_XCO_CDS_ANN_VAL_P_BOOLEAN">
<polygon fill="none" stroke="green" points="581.8,-108 285.37,-108 285.37,-72 581.8,-72 581.8,-108"/>
<text text-anchor="middle" x="433.58" y="-85.8" font-family="Times,serif" font-size="14.00">INTF&#45;IF_XCO_CDS_ANN_VAL_P_BOOLEAN</text>
</a>
</g>
</g>
<!-- INTF&#45;IF_XCO_CDS_ANN_VT_VISITOR&#45;&gt;INTF&#45;IF_XCO_CDS_ANN_VAL_P_BOOLEAN -->
<g id="edge12" class="edge">
<title>INTF&#45;IF_XCO_CDS_ANN_VT_VISITOR&#45;&gt;INTF&#45;IF_XCO_CDS_ANN_VAL_P_BOOLEAN</title>
<path fill="none" stroke="black" d="M668.9,-143.97C623.66,-133.78 566.06,-120.82 519.17,-110.26"/>
<polygon fill="black" stroke="black" points="519.86,-106.83 509.34,-108.05 518.32,-113.66 519.86,-106.83"/>
</g>
<!-- INTF&#45;IF_XCO_CDS_ANN_VAL_P_NUMBER -->
<g id="node10" class="node">
<title>INTF&#45;IF_XCO_CDS_ANN_VAL_P_NUMBER</title>
<g id="a_node10"><a xlink:href="./INTF_IF_XCO_CDS_ANN_VAL_P_NUMBER.html" xlink:title="INTF&#45;IF_XCO_CDS_ANN_VAL_P_NUMBER">
<polygon fill="none" stroke="green" points="889.32,-108 599.85,-108 599.85,-72 889.32,-72 889.32,-108"/>
<text text-anchor="middle" x="744.58" y="-85.8" font-family="Times,serif" font-size="14.00">INTF&#45;IF_XCO_CDS_ANN_VAL_P_NUMBER</text>
</a>
</g>
</g>
<!-- INTF&#45;IF_XCO_CDS_ANN_VT_VISITOR&#45;&gt;INTF&#45;IF_XCO_CDS_ANN_VAL_P_NUMBER -->
<g id="edge11" class="edge">
<title>INTF&#45;IF_XCO_CDS_ANN_VT_VISITOR&#45;&gt;INTF&#45;IF_XCO_CDS_ANN_VAL_P_NUMBER</title>
<path fill="none" stroke="black" d="M744.58,-143.7C744.58,-135.98 744.58,-126.71 744.58,-118.11"/>
<polygon fill="black" stroke="black" points="748.08,-118.1 744.58,-108.1 741.08,-118.1 748.08,-118.1"/>
</g>
<!-- INTF&#45;IF_XCO_CDS_ANN_VAL_P_ENUM -->
<g id="node11" class="node">
<title>INTF&#45;IF_XCO_CDS_ANN_VAL_P_ENUM</title>
<g id="a_node11"><a xlink:href="./INTF_IF_XCO_CDS_ANN_VAL_P_ENUM.html" xlink:title="INTF&#45;IF_XCO_CDS_ANN_VAL_P_ENUM">
<polygon fill="none" stroke="green" points="1178.14,-108 907.02,-108 907.02,-72 1178.14,-72 1178.14,-108"/>
<text text-anchor="middle" x="1042.58" y="-85.8" font-family="Times,serif" font-size="14.00">INTF&#45;IF_XCO_CDS_ANN_VAL_P_ENUM</text>
</a>
</g>
</g>
<!-- INTF&#45;IF_XCO_CDS_ANN_VT_VISITOR&#45;&gt;INTF&#45;IF_XCO_CDS_ANN_VAL_P_ENUM -->
<g id="edge10" class="edge">
<title>INTF&#45;IF_XCO_CDS_ANN_VT_VISITOR&#45;&gt;INTF&#45;IF_XCO_CDS_ANN_VAL_P_ENUM</title>
<path fill="none" stroke="black" d="M817.1,-143.97C860.27,-133.83 915.18,-120.93 960.01,-110.4"/>
<polygon fill="black" stroke="black" points="961.07,-113.74 970,-108.05 959.46,-106.93 961.07,-113.74"/>
</g>
<!-- INTF&#45;IF_XCO_CDS_ANN_VAL_P_STRING -->
<g id="node12" class="node">
<title>INTF&#45;IF_XCO_CDS_ANN_VAL_P_STRING</title>
<g id="a_node12"><a xlink:href="./INTF_IF_XCO_CDS_ANN_VAL_P_STRING.html" xlink:title="INTF&#45;IF_XCO_CDS_ANN_VAL_P_STRING">
<polygon fill="none" stroke="green" points="1476.98,-108 1196.19,-108 1196.19,-72 1476.98,-72 1476.98,-108"/>
<text text-anchor="middle" x="1336.58" y="-85.8" font-family="Times,serif" font-size="14.00">INTF&#45;IF_XCO_CDS_ANN_VAL_P_STRING</text>
</a>
</g>
</g>
<!-- INTF&#45;IF_XCO_CDS_ANN_VT_VISITOR&#45;&gt;INTF&#45;IF_XCO_CDS_ANN_VAL_P_STRING -->
<g id="edge9" class="edge">
<title>INTF&#45;IF_XCO_CDS_ANN_VT_VISITOR&#45;&gt;INTF&#45;IF_XCO_CDS_ANN_VAL_P_STRING</title>
<path fill="none" stroke="black" d="M874.87,-145.59C966.77,-134.73 1090.11,-120.14 1186.19,-108.78"/>
<polygon fill="black" stroke="black" points="1186.77,-112.24 1196.29,-107.59 1185.95,-105.29 1186.77,-112.24"/>
</g>
<!-- INTF&#45;IF_XCO_CDS_ANN_VAL_PRIMITIVE -->
<g id="node8" class="node">
<title>INTF&#45;IF_XCO_CDS_ANN_VAL_PRIMITIVE</title>
<g id="a_node8"><a xlink:href="./INTF_IF_XCO_CDS_ANN_VAL_PRIMITIVE.html" xlink:title="INTF&#45;IF_XCO_CDS_ANN_VAL_PRIMITIVE">
<polygon fill="none" stroke="green" points="887.41,-36 601.76,-36 601.76,0 887.41,0 887.41,-36"/>
<text text-anchor="middle" x="744.58" y="-13.8" font-family="Times,serif" font-size="14.00">INTF&#45;IF_XCO_CDS_ANN_VAL_PRIMITIVE</text>
</a>
</g>
</g>
<!-- INTF&#45;IF_XCO_CDS_ANN_VAL_P_NULL&#45;&gt;INTF&#45;IF_XCO_CDS_ANN_VAL_PRIMITIVE -->
<g id="edge14" class="edge">
<title>INTF&#45;IF_XCO_CDS_ANN_VAL_P_NULL&#45;&gt;INTF&#45;IF_XCO_CDS_ANN_VAL_PRIMITIVE</title>
<path fill="none" stroke="black" d="M267.17,-73.1C270.34,-72.73 273.48,-72.36 276.58,-72 381.69,-59.8 500.11,-46.39 591.53,-36.12"/>
<polygon fill="black" stroke="black" points="592.15,-39.57 601.7,-34.97 591.37,-32.61 592.15,-39.57"/>
</g>
<!-- INTF&#45;IF_XCO_CDS_ANN_VAL_P_BOOLEAN&#45;&gt;INTF&#45;IF_XCO_CDS_ANN_VAL_PRIMITIVE -->
<g id="edge15" class="edge">
<title>INTF&#45;IF_XCO_CDS_ANN_VAL_P_BOOLEAN&#45;&gt;INTF&#45;IF_XCO_CDS_ANN_VAL_PRIMITIVE</title>
<path fill="none" stroke="black" d="M509.27,-71.97C554.5,-61.78 612.11,-48.82 659,-38.26"/>
<polygon fill="black" stroke="black" points="659.85,-41.66 668.83,-36.05 658.31,-34.83 659.85,-41.66"/>
</g>
<!-- INTF&#45;IF_XCO_CDS_ANN_VAL_P_NUMBER&#45;&gt;INTF&#45;IF_XCO_CDS_ANN_VAL_PRIMITIVE -->
<g id="edge16" class="edge">
<title>INTF&#45;IF_XCO_CDS_ANN_VAL_P_NUMBER&#45;&gt;INTF&#45;IF_XCO_CDS_ANN_VAL_PRIMITIVE</title>
<path fill="none" stroke="black" d="M744.58,-71.7C744.58,-63.98 744.58,-54.71 744.58,-46.11"/>
<polygon fill="black" stroke="black" points="748.08,-46.1 744.58,-36.1 741.08,-46.1 748.08,-46.1"/>
</g>
<!-- INTF&#45;IF_XCO_CDS_ANN_VAL_P_ENUM&#45;&gt;INTF&#45;IF_XCO_CDS_ANN_VAL_PRIMITIVE -->
<g id="edge17" class="edge">
<title>INTF&#45;IF_XCO_CDS_ANN_VAL_P_ENUM&#45;&gt;INTF&#45;IF_XCO_CDS_ANN_VAL_PRIMITIVE</title>
<path fill="none" stroke="black" d="M970.07,-71.97C926.9,-61.83 871.99,-48.93 827.16,-38.4"/>
<polygon fill="black" stroke="black" points="827.7,-34.93 817.17,-36.05 826.1,-41.74 827.7,-34.93"/>
</g>
<!-- INTF&#45;IF_XCO_CDS_ANN_VAL_P_STRING&#45;&gt;INTF&#45;IF_XCO_CDS_ANN_VAL_PRIMITIVE -->
<g id="edge18" class="edge">
<title>INTF&#45;IF_XCO_CDS_ANN_VAL_P_STRING&#45;&gt;INTF&#45;IF_XCO_CDS_ANN_VAL_PRIMITIVE</title>
<path fill="none" stroke="black" d="M1196.29,-72.41C1106.39,-61.78 989.71,-47.98 897.45,-37.08"/>
<polygon fill="black" stroke="black" points="897.81,-33.59 887.47,-35.9 896.99,-40.55 897.81,-33.59"/>
</g>
<!-- DOMA&#45;DDANNOTATION_KEY -->
<g id="node14" class="node">
<title>DOMA&#45;DDANNOTATION_KEY</title>
<g id="a_node14"><a xlink:href="./DOMA_DDANNOTATION_KEY.html" xlink:title="DOMA&#45;DDANNOTATION_KEY">
<polygon fill="none" stroke="yellow" points="1154.5,-324 942.67,-324 942.67,-288 1154.5,-288 1154.5,-324"/>
<text text-anchor="middle" x="1048.58" y="-301.8" font-family="Times,serif" font-size="14.00">DOMA&#45;DDANNOTATION_KEY</text>
</a>
</g>
</g>
<!-- DTEL&#45;SXCO_CDS_ANN_PROPERTY&#45;&gt;DOMA&#45;DDANNOTATION_KEY -->
<g id="edge19" class="edge">
<title>DTEL&#45;SXCO_CDS_ANN_PROPERTY&#45;&gt;DOMA&#45;DDANNOTATION_KEY</title>
<path fill="none" stroke="black" d="M1048.58,-359.7C1048.58,-351.98 1048.58,-342.71 1048.58,-334.11"/>
<polygon fill="black" stroke="black" points="1052.08,-334.1 1048.58,-324.1 1045.08,-334.1 1052.08,-334.1"/>
</g>
</g>
</svg>
