<?xml version="1.0" encoding="UTF-8" standalone="no"?>
<!DOCTYPE svg PUBLIC "-//W3C//DTD SVG 1.1//EN"
 "http://www.w3.org/Graphics/SVG/1.1/DTD/svg11.dtd">
<!-- Generated by graphviz version 2.47.3 (20210619.1520)
 -->
<!-- Title: G Pages: 1 -->
<svg width="750pt" height="188pt"
 viewBox="0.00 0.00 750.12 188.00" xmlns="http://www.w3.org/2000/svg" xmlns:xlink="http://www.w3.org/1999/xlink">
<g id="graph0" class="graph" transform="scale(1 1) rotate(0) translate(4 184)">
<title>G</title>
<polygon fill="white" stroke="transparent" points="-4,4 -4,-184 746.12,-184 746.12,4 -4,4"/>
<!-- INTF&#45;IF_ABAP_LANGUAGE_VERSION -->
<g id="node1" class="node">
<title>INTF&#45;IF_ABAP_LANGUAGE_VERSION</title>
<polygon fill="none" stroke="yellow" points="501.58,-180 240.71,-180 240.71,-144 501.58,-144 501.58,-180"/>
<text text-anchor="middle" x="371.15" y="-157.8" font-family="Times,serif" font-size="14.00">INTF&#45;IF_ABAP_LANGUAGE_VERSION</text>
</g>
<!-- DTEL&#45;SYLANGU -->
<g id="node2" class="node">
<title>DTEL&#45;SYLANGU</title>
<g id="a_node2"><a xlink:href="./DTEL_SYLANGU.html" xlink:title="DTEL&#45;SYLANGU">
<polygon fill="none" stroke="yellow" points="130.94,-108 7.35,-108 7.35,-72 130.94,-72 130.94,-108"/>
<text text-anchor="middle" x="69.15" y="-85.8" font-family="Times,serif" font-size="14.00">DTEL&#45;SYLANGU</text>
</a>
</g>
</g>
<!-- INTF&#45;IF_ABAP_LANGUAGE_VERSION&#45;&gt;DTEL&#45;SYLANGU -->
<g id="edge5" class="edge">
<title>INTF&#45;IF_ABAP_LANGUAGE_VERSION&#45;&gt;DTEL&#45;SYLANGU</title>
<path fill="none" stroke="black" d="M297.66,-143.97C250.06,-132.93 188.37,-118.63 141.08,-107.67"/>
<polygon fill="black" stroke="black" points="141.75,-104.24 131.22,-105.39 140.17,-111.06 141.75,-104.24"/>
</g>
<!-- DTEL&#45;DEVCLASS -->
<g id="node4" class="node">
<title>DTEL&#45;DEVCLASS</title>
<g id="a_node4"><a xlink:href="./DTEL_DEVCLASS.html" xlink:title="DTEL&#45;DEVCLASS">
<polygon fill="none" stroke="yellow" points="280.4,-108 151.89,-108 151.89,-72 280.4,-72 280.4,-108"/>
<text text-anchor="middle" x="216.15" y="-85.8" font-family="Times,serif" font-size="14.00">DTEL&#45;DEVCLASS</text>
</a>
</g>
</g>
<!-- INTF&#45;IF_ABAP_LANGUAGE_VERSION&#45;&gt;DTEL&#45;DEVCLASS -->
<g id="edge4" class="edge">
<title>INTF&#45;IF_ABAP_LANGUAGE_VERSION&#45;&gt;DTEL&#45;DEVCLASS</title>
<path fill="none" stroke="black" d="M333.23,-143.88C312.13,-134.35 285.69,-122.41 263.27,-112.28"/>
<polygon fill="black" stroke="black" points="264.5,-108.99 253.94,-108.07 261.61,-115.37 264.5,-108.99"/>
</g>
<!-- DTEL&#45;ACTIV_AUTH -->
<g id="node6" class="node">
<title>DTEL&#45;ACTIV_AUTH</title>
<g id="a_node6"><a xlink:href="./DTEL_ACTIV_AUTH.html" xlink:title="DTEL&#45;ACTIV_AUTH">
<polygon fill="none" stroke="green" points="443.71,-108 298.59,-108 298.59,-72 443.71,-72 443.71,-108"/>
<text text-anchor="middle" x="371.15" y="-85.8" font-family="Times,serif" font-size="14.00">DTEL&#45;ACTIV_AUTH</text>
</a>
</g>
</g>
<!-- INTF&#45;IF_ABAP_LANGUAGE_VERSION&#45;&gt;DTEL&#45;ACTIV_AUTH -->
<g id="edge3" class="edge">
<title>INTF&#45;IF_ABAP_LANGUAGE_VERSION&#45;&gt;DTEL&#45;ACTIV_AUTH</title>
<path fill="none" stroke="black" d="M371.15,-143.7C371.15,-135.98 371.15,-126.71 371.15,-118.11"/>
<polygon fill="black" stroke="black" points="374.65,-118.1 371.15,-108.1 367.65,-118.1 374.65,-118.1"/>
</g>
<!-- DTEL&#45;TROBJTYPE -->
<g id="node8" class="node">
<title>DTEL&#45;TROBJTYPE</title>
<g id="a_node8"><a xlink:href="./DTEL_TROBJTYPE.html" xlink:title="DTEL&#45;TROBJTYPE">
<polygon fill="none" stroke="yellow" points="596.34,-108 461.95,-108 461.95,-72 596.34,-72 596.34,-108"/>
<text text-anchor="middle" x="529.15" y="-85.8" font-family="Times,serif" font-size="14.00">DTEL&#45;TROBJTYPE</text>
</a>
</g>
</g>
<!-- INTF&#45;IF_ABAP_LANGUAGE_VERSION&#45;&gt;DTEL&#45;TROBJTYPE -->
<g id="edge2" class="edge">
<title>INTF&#45;IF_ABAP_LANGUAGE_VERSION&#45;&gt;DTEL&#45;TROBJTYPE</title>
<path fill="none" stroke="black" d="M409.8,-143.88C431.4,-134.31 458.5,-122.3 481.41,-112.15"/>
<polygon fill="black" stroke="black" points="482.9,-115.32 490.62,-108.07 480.06,-108.92 482.9,-115.32"/>
</g>
<!-- DTEL&#45;VAL_TEXT -->
<g id="node10" class="node">
<title>DTEL&#45;VAL_TEXT</title>
<g id="a_node10"><a xlink:href="./DTEL_VAL_TEXT.html" xlink:title="DTEL&#45;VAL_TEXT">
<polygon fill="none" stroke="yellow" points="742.1,-108 614.19,-108 614.19,-72 742.1,-72 742.1,-108"/>
<text text-anchor="middle" x="678.15" y="-85.8" font-family="Times,serif" font-size="14.00">DTEL&#45;VAL_TEXT</text>
</a>
</g>
</g>
<!-- INTF&#45;IF_ABAP_LANGUAGE_VERSION&#45;&gt;DTEL&#45;VAL_TEXT -->
<g id="edge1" class="edge">
<title>INTF&#45;IF_ABAP_LANGUAGE_VERSION&#45;&gt;DTEL&#45;VAL_TEXT</title>
<path fill="none" stroke="black" d="M446.79,-143.99C490.21,-134.2 546.02,-121.56 604.3,-108.19"/>
<polygon fill="black" stroke="black" points="605.09,-111.6 614.06,-105.95 603.53,-104.77 605.09,-111.6"/>
</g>
<!-- DOMA&#45;SYLANGU -->
<g id="node3" class="node">
<title>DOMA&#45;SYLANGU</title>
<g id="a_node3"><a xlink:href="./DOMA_SYLANGU.html" xlink:title="DOMA&#45;SYLANGU">
<polygon fill="none" stroke="yellow" points="130.44,-36 -0.15,-36 -0.15,0 130.44,0 130.44,-36"/>
<text text-anchor="middle" x="65.15" y="-13.8" font-family="Times,serif" font-size="14.00">DOMA&#45;SYLANGU</text>
</a>
</g>
</g>
<!-- DTEL&#45;SYLANGU&#45;&gt;DOMA&#45;SYLANGU -->
<g id="edge6" class="edge">
<title>DTEL&#45;SYLANGU&#45;&gt;DOMA&#45;SYLANGU</title>
<path fill="none" stroke="black" d="M68.16,-71.7C67.72,-63.98 67.19,-54.71 66.7,-46.11"/>
<polygon fill="black" stroke="black" points="70.19,-45.89 66.12,-36.1 63.2,-46.29 70.19,-45.89"/>
</g>
<!-- DOMA&#45;DEVCLASS -->
<g id="node5" class="node">
<title>DOMA&#45;DEVCLASS</title>
<g id="a_node5"><a xlink:href="./DOMA_DEVCLASS.html" xlink:title="DOMA&#45;DEVCLASS">
<polygon fill="none" stroke="yellow" points="283.9,-36 148.39,-36 148.39,0 283.9,0 283.9,-36"/>
<text text-anchor="middle" x="216.15" y="-13.8" font-family="Times,serif" font-size="14.00">DOMA&#45;DEVCLASS</text>
</a>
</g>
</g>
<!-- DTEL&#45;DEVCLASS&#45;&gt;DOMA&#45;DEVCLASS -->
<g id="edge7" class="edge">
<title>DTEL&#45;DEVCLASS&#45;&gt;DOMA&#45;DEVCLASS</title>
<path fill="none" stroke="black" d="M216.15,-71.7C216.15,-63.98 216.15,-54.71 216.15,-46.11"/>
<polygon fill="black" stroke="black" points="219.65,-46.1 216.15,-36.1 212.65,-46.1 219.65,-46.1"/>
</g>
<!-- DOMA&#45;ACTIV_AUTH -->
<g id="node7" class="node">
<title>DOMA&#45;ACTIV_AUTH</title>
<g id="a_node7"><a xlink:href="./DOMA_ACTIV_AUTH.html" xlink:title="DOMA&#45;ACTIV_AUTH">
<polygon fill="none" stroke="green" points="454.21,-36 302.09,-36 302.09,0 454.21,0 454.21,-36"/>
<text text-anchor="middle" x="378.15" y="-13.8" font-family="Times,serif" font-size="14.00">DOMA&#45;ACTIV_AUTH</text>
</a>
</g>
</g>
<!-- DTEL&#45;ACTIV_AUTH&#45;&gt;DOMA&#45;ACTIV_AUTH -->
<g id="edge8" class="edge">
<title>DTEL&#45;ACTIV_AUTH&#45;&gt;DOMA&#45;ACTIV_AUTH</title>
<path fill="none" stroke="black" d="M372.88,-71.7C373.65,-63.98 374.58,-54.71 375.44,-46.11"/>
<polygon fill="black" stroke="black" points="378.92,-46.4 376.44,-36.1 371.96,-45.71 378.92,-46.4"/>
</g>
<!-- DOMA&#45;OBJECT -->
<g id="node9" class="node">
<title>DOMA&#45;OBJECT</title>
<g id="a_node9"><a xlink:href="./DOMA_OBJECT.html" xlink:title="DOMA&#45;OBJECT">
<polygon fill="none" stroke="yellow" points="586.4,-36 471.89,-36 471.89,0 586.4,0 586.4,-36"/>
<text text-anchor="middle" x="529.15" y="-13.8" font-family="Times,serif" font-size="14.00">DOMA&#45;OBJECT</text>
</a>
</g>
</g>
<!-- DTEL&#45;TROBJTYPE&#45;&gt;DOMA&#45;OBJECT -->
<g id="edge9" class="edge">
<title>DTEL&#45;TROBJTYPE&#45;&gt;DOMA&#45;OBJECT</title>
<path fill="none" stroke="black" d="M529.15,-71.7C529.15,-63.98 529.15,-54.71 529.15,-46.11"/>
<polygon fill="black" stroke="black" points="532.65,-46.1 529.15,-36.1 525.65,-46.1 532.65,-46.1"/>
</g>
<!-- DOMA&#45;DDTEXT -->
<g id="node11" class="node">
<title>DOMA&#45;DDTEXT</title>
<g id="a_node11"><a xlink:href="./DOMA_DDTEXT.html" xlink:title="DOMA&#45;DDTEXT">
<polygon fill="none" stroke="yellow" points="738.05,-36 618.24,-36 618.24,0 738.05,0 738.05,-36"/>
<text text-anchor="middle" x="678.15" y="-13.8" font-family="Times,serif" font-size="14.00">DOMA&#45;DDTEXT</text>
</a>
</g>
</g>
<!-- DTEL&#45;VAL_TEXT&#45;&gt;DOMA&#45;DDTEXT -->
<g id="edge10" class="edge">
<title>DTEL&#45;VAL_TEXT&#45;&gt;DOMA&#45;DDTEXT</title>
<path fill="none" stroke="black" d="M678.15,-71.7C678.15,-63.98 678.15,-54.71 678.15,-46.11"/>
<polygon fill="black" stroke="black" points="681.65,-46.1 678.15,-36.1 674.65,-46.1 681.65,-46.1"/>
</g>
</g>
</svg>
