<?xml version="1.0" encoding="UTF-8" standalone="no"?>
<!DOCTYPE svg PUBLIC "-//W3C//DTD SVG 1.1//EN"
 "http://www.w3.org/Graphics/SVG/1.1/DTD/svg11.dtd">
<!-- Generated by graphviz version 2.47.3 (20210619.1520)
 -->
<!-- Title: G Pages: 1 -->
<svg width="3345pt" height="188pt"
 viewBox="0.00 0.00 3345.14 188.00" xmlns="http://www.w3.org/2000/svg" xmlns:xlink="http://www.w3.org/1999/xlink">
<g id="graph0" class="graph" transform="scale(1 1) rotate(0) translate(4 184)">
<title>G</title>
<polygon fill="white" stroke="transparent" points="-4,4 -4,-184 3341.14,-184 3341.14,4 -4,4"/>
<!-- INTF&#45;IF_SOAP_PERSIST_GET -->
<g id="node1" class="node">
<title>INTF&#45;IF_SOAP_PERSIST_GET</title>
<polygon fill="none" stroke="yellow" points="1655.02,-180 1452.73,-180 1452.73,-144 1655.02,-144 1655.02,-180"/>
<text text-anchor="middle" x="1553.87" y="-157.8" font-family="Times,serif" font-size="14.00">INTF&#45;IF_SOAP_PERSIST_GET</text>
</g>
<!-- DTEL&#45;INT4 -->
<g id="node2" class="node">
<title>DTEL&#45;INT4</title>
<g id="a_node2"><a xlink:href="./DTEL_INT4.html" xlink:title="DTEL&#45;INT4">
<polygon fill="none" stroke="green" points="94.12,-108 7.63,-108 7.63,-72 94.12,-72 94.12,-108"/>
<text text-anchor="middle" x="50.87" y="-85.8" font-family="Times,serif" font-size="14.00">DTEL&#45;INT4</text>
</a>
</g>
</g>
<!-- INTF&#45;IF_SOAP_PERSIST_GET&#45;&gt;DTEL&#45;INT4 -->
<g id="edge21" class="edge">
<title>INTF&#45;IF_SOAP_PERSIST_GET&#45;&gt;DTEL&#45;INT4</title>
<path fill="none" stroke="black" d="M1452.6,-160.75C1168.07,-159.5 365.35,-152.06 105.87,-108 105.27,-107.9 104.67,-107.79 104.06,-107.68"/>
<polygon fill="black" stroke="black" points="104.66,-104.23 94.15,-105.53 103.18,-111.07 104.66,-104.23"/>
</g>
<!-- DTEL&#45;NUMC3 -->
<g id="node4" class="node">
<title>DTEL&#45;NUMC3</title>
<g id="a_node4"><a xlink:href="./DTEL_NUMC3.html" xlink:title="DTEL&#45;NUMC3">
<polygon fill="none" stroke="yellow" points="220.79,-108 114.95,-108 114.95,-72 220.79,-72 220.79,-108"/>
<text text-anchor="middle" x="167.87" y="-85.8" font-family="Times,serif" font-size="14.00">DTEL&#45;NUMC3</text>
</a>
</g>
</g>
<!-- INTF&#45;IF_SOAP_PERSIST_GET&#45;&gt;DTEL&#45;NUMC3 -->
<g id="edge20" class="edge">
<title>INTF&#45;IF_SOAP_PERSIST_GET&#45;&gt;DTEL&#45;NUMC3</title>
<path fill="none" stroke="black" d="M1452.3,-159.92C1188.26,-156.65 483.91,-144.77 230.7,-107.86"/>
<polygon fill="black" stroke="black" points="231.21,-104.39 220.8,-106.36 230.17,-111.32 231.21,-104.39"/>
</g>
<!-- DTEL&#45;TIMESTAMPL -->
<g id="node6" class="node">
<title>DTEL&#45;TIMESTAMPL</title>
<g id="a_node6"><a xlink:href="./DTEL_TIMESTAMPL.html" xlink:title="DTEL&#45;TIMESTAMPL">
<polygon fill="none" stroke="green" points="384.73,-108 239.02,-108 239.02,-72 384.73,-72 384.73,-108"/>
<text text-anchor="middle" x="311.87" y="-85.8" font-family="Times,serif" font-size="14.00">DTEL&#45;TIMESTAMPL</text>
</a>
</g>
</g>
<!-- INTF&#45;IF_SOAP_PERSIST_GET&#45;&gt;DTEL&#45;TIMESTAMPL -->
<g id="edge19" class="edge">
<title>INTF&#45;IF_SOAP_PERSIST_GET&#45;&gt;DTEL&#45;TIMESTAMPL</title>
<path fill="none" stroke="black" d="M1452.56,-161.76C1252.13,-162.09 790.89,-156.99 395.31,-108.06"/>
<polygon fill="black" stroke="black" points="395.45,-104.55 385.09,-106.78 394.58,-111.49 395.45,-104.55"/>
</g>
<!-- DTEL&#45;SXMSREFVAL -->
<g id="node8" class="node">
<title>DTEL&#45;SXMSREFVAL</title>
<g id="a_node8"><a xlink:href="./DTEL_SXMSREFVAL.html" xlink:title="DTEL&#45;SXMSREFVAL">
<polygon fill="none" stroke="yellow" points="551.35,-108 402.39,-108 402.39,-72 551.35,-72 551.35,-108"/>
<text text-anchor="middle" x="476.87" y="-85.8" font-family="Times,serif" font-size="14.00">DTEL&#45;SXMSREFVAL</text>
</a>
</g>
</g>
<!-- INTF&#45;IF_SOAP_PERSIST_GET&#45;&gt;DTEL&#45;SXMSREFVAL -->
<g id="edge18" class="edge">
<title>INTF&#45;IF_SOAP_PERSIST_GET&#45;&gt;DTEL&#45;SXMSREFVAL</title>
<path fill="none" stroke="black" d="M1452.65,-160.48C1274.42,-158.48 892.91,-149.41 561.71,-107.98"/>
<polygon fill="black" stroke="black" points="561.79,-104.46 551.43,-106.68 560.92,-111.4 561.79,-104.46"/>
</g>
<!-- DTEL&#45;SXMSREFID -->
<g id="node9" class="node">
<title>DTEL&#45;SXMSREFID</title>
<g id="a_node9"><a xlink:href="./DTEL_SXMSREFID.html" xlink:title="DTEL&#45;SXMSREFID">
<polygon fill="none" stroke="yellow" points="704.35,-108 569.39,-108 569.39,-72 704.35,-72 704.35,-108"/>
<text text-anchor="middle" x="636.87" y="-85.8" font-family="Times,serif" font-size="14.00">DTEL&#45;SXMSREFID</text>
</a>
</g>
</g>
<!-- INTF&#45;IF_SOAP_PERSIST_GET&#45;&gt;DTEL&#45;SXMSREFID -->
<g id="edge17" class="edge">
<title>INTF&#45;IF_SOAP_PERSIST_GET&#45;&gt;DTEL&#45;SXMSREFID</title>
<path fill="none" stroke="black" d="M1452.7,-159.75C1296.15,-156.67 985.79,-146.05 714.76,-108.15"/>
<polygon fill="black" stroke="black" points="715.12,-104.67 704.73,-106.73 714.14,-111.6 715.12,-104.67"/>
</g>
<!-- DTEL&#45;SXMSPSTYPE -->
<g id="node11" class="node">
<title>DTEL&#45;SXMSPSTYPE</title>
<g id="a_node11"><a xlink:href="./DTEL_SXMSPSTYPE.html" xlink:title="DTEL&#45;SXMSPSTYPE">
<polygon fill="none" stroke="yellow" points="867.47,-108 722.27,-108 722.27,-72 867.47,-72 867.47,-108"/>
<text text-anchor="middle" x="794.87" y="-85.8" font-family="Times,serif" font-size="14.00">DTEL&#45;SXMSPSTYPE</text>
</a>
</g>
</g>
<!-- INTF&#45;IF_SOAP_PERSIST_GET&#45;&gt;DTEL&#45;SXMSPSTYPE -->
<g id="edge16" class="edge">
<title>INTF&#45;IF_SOAP_PERSIST_GET&#45;&gt;DTEL&#45;SXMSPSTYPE</title>
<path fill="none" stroke="black" d="M1452.63,-157.16C1321.79,-151.28 1086.86,-137.62 877.6,-108.15"/>
<polygon fill="black" stroke="black" points="878.04,-104.68 867.65,-106.74 877.06,-111.61 878.04,-104.68"/>
</g>
<!-- DTEL&#45;SYUNAME -->
<g id="node13" class="node">
<title>DTEL&#45;SYUNAME</title>
<g id="a_node13"><a xlink:href="./DTEL_SYUNAME.html" xlink:title="DTEL&#45;SYUNAME">
<polygon fill="none" stroke="green" points="1010.5,-108 885.24,-108 885.24,-72 1010.5,-72 1010.5,-108"/>
<text text-anchor="middle" x="947.87" y="-85.8" font-family="Times,serif" font-size="14.00">DTEL&#45;SYUNAME</text>
</a>
</g>
</g>
<!-- INTF&#45;IF_SOAP_PERSIST_GET&#45;&gt;DTEL&#45;SYUNAME -->
<g id="edge15" class="edge">
<title>INTF&#45;IF_SOAP_PERSIST_GET&#45;&gt;DTEL&#45;SYUNAME</title>
<path fill="none" stroke="black" d="M1452.46,-154.96C1346.97,-147.77 1176.93,-133.59 1020.86,-108.03"/>
<polygon fill="black" stroke="black" points="1021.04,-104.51 1010.6,-106.33 1019.89,-111.42 1021.04,-104.51"/>
</g>
<!-- DTEL&#45;SYMANDT -->
<g id="node15" class="node">
<title>DTEL&#45;SYMANDT</title>
<g id="a_node15"><a xlink:href="./DTEL_SYMANDT.html" xlink:title="DTEL&#45;SYMANDT">
<polygon fill="none" stroke="yellow" points="1154.5,-108 1029.24,-108 1029.24,-72 1154.5,-72 1154.5,-108"/>
<text text-anchor="middle" x="1091.87" y="-85.8" font-family="Times,serif" font-size="14.00">DTEL&#45;SYMANDT</text>
</a>
</g>
</g>
<!-- INTF&#45;IF_SOAP_PERSIST_GET&#45;&gt;DTEL&#45;SYMANDT -->
<g id="edge14" class="edge">
<title>INTF&#45;IF_SOAP_PERSIST_GET&#45;&gt;DTEL&#45;SYMANDT</title>
<path fill="none" stroke="black" d="M1452.44,-149.94C1375.94,-140.97 1268.27,-126.98 1164.64,-108.04"/>
<polygon fill="black" stroke="black" points="1165.09,-104.57 1154.63,-106.19 1163.82,-111.45 1165.09,-104.57"/>
</g>
<!-- DTEL&#45;SXMSQOS -->
<g id="node17" class="node">
<title>DTEL&#45;SXMSQOS</title>
<g id="a_node17"><a xlink:href="./DTEL_SXMSQOS.html" xlink:title="DTEL&#45;SXMSQOS">
<polygon fill="none" stroke="yellow" points="1294.91,-108 1172.83,-108 1172.83,-72 1294.91,-72 1294.91,-108"/>
<text text-anchor="middle" x="1233.87" y="-85.8" font-family="Times,serif" font-size="14.00">DTEL&#45;SXMSQOS</text>
</a>
</g>
</g>
<!-- INTF&#45;IF_SOAP_PERSIST_GET&#45;&gt;DTEL&#45;SXMSQOS -->
<g id="edge13" class="edge">
<title>INTF&#45;IF_SOAP_PERSIST_GET&#45;&gt;DTEL&#45;SXMSQOS</title>
<path fill="none" stroke="black" d="M1470.41,-143.94C1424.22,-134.35 1365.56,-121.93 1304.71,-108.16"/>
<polygon fill="black" stroke="black" points="1305.46,-104.74 1294.93,-105.94 1303.91,-111.57 1305.46,-104.74"/>
</g>
<!-- DTEL&#45;SXMSPMTYPE -->
<g id="node19" class="node">
<title>DTEL&#45;SXMSPMTYPE</title>
<g id="a_node19"><a xlink:href="./DTEL_SXMSPMTYPE.html" xlink:title="DTEL&#45;SXMSPMTYPE">
<polygon fill="none" stroke="yellow" points="1462.64,-108 1313.11,-108 1313.11,-72 1462.64,-72 1462.64,-108"/>
<text text-anchor="middle" x="1387.87" y="-85.8" font-family="Times,serif" font-size="14.00">DTEL&#45;SXMSPMTYPE</text>
</a>
</g>
</g>
<!-- INTF&#45;IF_SOAP_PERSIST_GET&#45;&gt;DTEL&#45;SXMSPMTYPE -->
<g id="edge12" class="edge">
<title>INTF&#45;IF_SOAP_PERSIST_GET&#45;&gt;DTEL&#45;SXMSPMTYPE</title>
<path fill="none" stroke="black" d="M1513.26,-143.88C1490.47,-134.26 1461.85,-122.19 1437.7,-112.01"/>
<polygon fill="black" stroke="black" points="1438.92,-108.73 1428.35,-108.07 1436.2,-115.18 1438.92,-108.73"/>
</g>
<!-- DTEL&#45;SXMSPEGUID -->
<g id="node21" class="node">
<title>DTEL&#45;SXMSPEGUID</title>
<g id="a_node21"><a xlink:href="./DTEL_SXMSPEGUID.html" xlink:title="DTEL&#45;SXMSPEGUID">
<polygon fill="none" stroke="yellow" points="1626.73,-108 1481.02,-108 1481.02,-72 1626.73,-72 1626.73,-108"/>
<text text-anchor="middle" x="1553.87" y="-85.8" font-family="Times,serif" font-size="14.00">DTEL&#45;SXMSPEGUID</text>
</a>
</g>
</g>
<!-- INTF&#45;IF_SOAP_PERSIST_GET&#45;&gt;DTEL&#45;SXMSPEGUID -->
<g id="edge11" class="edge">
<title>INTF&#45;IF_SOAP_PERSIST_GET&#45;&gt;DTEL&#45;SXMSPEGUID</title>
<path fill="none" stroke="black" d="M1553.87,-143.7C1553.87,-135.98 1553.87,-126.71 1553.87,-118.11"/>
<polygon fill="black" stroke="black" points="1557.37,-118.1 1553.87,-108.1 1550.37,-118.1 1557.37,-118.1"/>
</g>
<!-- DTEL&#45;BOOLEAN -->
<g id="node23" class="node">
<title>DTEL&#45;BOOLEAN</title>
<g id="a_node23"><a xlink:href="./DTEL_BOOLEAN.html" xlink:title="DTEL&#45;BOOLEAN">
<polygon fill="none" stroke="yellow" points="1768.67,-108 1645.08,-108 1645.08,-72 1768.67,-72 1768.67,-108"/>
<text text-anchor="middle" x="1706.87" y="-85.8" font-family="Times,serif" font-size="14.00">DTEL&#45;BOOLEAN</text>
</a>
</g>
</g>
<!-- INTF&#45;IF_SOAP_PERSIST_GET&#45;&gt;DTEL&#45;BOOLEAN -->
<g id="edge10" class="edge">
<title>INTF&#45;IF_SOAP_PERSIST_GET&#45;&gt;DTEL&#45;BOOLEAN</title>
<path fill="none" stroke="black" d="M1591.3,-143.88C1612.12,-134.35 1638.23,-122.41 1660.35,-112.28"/>
<polygon fill="black" stroke="black" points="1661.93,-115.41 1669.57,-108.07 1659.02,-109.05 1661.93,-115.41"/>
</g>
<!-- DTEL&#45;SXMSPMSTAT -->
<g id="node25" class="node">
<title>DTEL&#45;SXMSPMSTAT</title>
<g id="a_node25"><a xlink:href="./DTEL_SXMSPMSTAT.html" xlink:title="DTEL&#45;SXMSPMSTAT">
<polygon fill="none" stroke="yellow" points="1936.64,-108 1787.11,-108 1787.11,-72 1936.64,-72 1936.64,-108"/>
<text text-anchor="middle" x="1861.87" y="-85.8" font-family="Times,serif" font-size="14.00">DTEL&#45;SXMSPMSTAT</text>
</a>
</g>
</g>
<!-- INTF&#45;IF_SOAP_PERSIST_GET&#45;&gt;DTEL&#45;SXMSPMSTAT -->
<g id="edge9" class="edge">
<title>INTF&#45;IF_SOAP_PERSIST_GET&#45;&gt;DTEL&#45;SXMSPMSTAT</title>
<path fill="none" stroke="black" d="M1628.82,-143.97C1673.53,-133.8 1730.43,-120.87 1776.82,-110.33"/>
<polygon fill="black" stroke="black" points="1777.88,-113.68 1786.85,-108.05 1776.33,-106.85 1777.88,-113.68"/>
</g>
<!-- DTEL&#45;AIT_RCVR -->
<g id="node27" class="node">
<title>DTEL&#45;AIT_RCVR</title>
<g id="a_node27"><a xlink:href="./DTEL_AIT_RCVR.html" xlink:title="DTEL&#45;AIT_RCVR">
<polygon fill="none" stroke="yellow" points="2079.23,-108 1954.51,-108 1954.51,-72 2079.23,-72 2079.23,-108"/>
<text text-anchor="middle" x="2016.87" y="-85.8" font-family="Times,serif" font-size="14.00">DTEL&#45;AIT_RCVR</text>
</a>
</g>
</g>
<!-- INTF&#45;IF_SOAP_PERSIST_GET&#45;&gt;DTEL&#45;AIT_RCVR -->
<g id="edge8" class="edge">
<title>INTF&#45;IF_SOAP_PERSIST_GET&#45;&gt;DTEL&#45;AIT_RCVR</title>
<path fill="none" stroke="black" d="M1655.03,-150.16C1731.97,-141.25 1840.61,-127.26 1944.22,-108.22"/>
<polygon fill="black" stroke="black" points="1945.03,-111.63 1954.23,-106.36 1943.75,-104.75 1945.03,-111.63"/>
</g>
<!-- DTEL&#45;SXI_PARTY_AGENCY -->
<g id="node29" class="node">
<title>DTEL&#45;SXI_PARTY_AGENCY</title>
<g id="a_node29"><a xlink:href="./DTEL_SXI_PARTY_AGENCY.html" xlink:title="DTEL&#45;SXI_PARTY_AGENCY">
<polygon fill="none" stroke="yellow" points="2436.55,-108 2239.2,-108 2239.2,-72 2436.55,-72 2436.55,-108"/>
<text text-anchor="middle" x="2337.87" y="-85.8" font-family="Times,serif" font-size="14.00">DTEL&#45;SXI_PARTY_AGENCY</text>
</a>
</g>
</g>
<!-- INTF&#45;IF_SOAP_PERSIST_GET&#45;&gt;DTEL&#45;SXI_PARTY_AGENCY -->
<g id="edge7" class="edge">
<title>INTF&#45;IF_SOAP_PERSIST_GET&#45;&gt;DTEL&#45;SXI_PARTY_AGENCY</title>
<path fill="none" stroke="black" d="M1655.18,-155.52C1785.53,-147.92 2019.15,-132.43 2229.06,-108.04"/>
<polygon fill="black" stroke="black" points="2229.51,-111.51 2239.04,-106.87 2228.7,-104.56 2229.51,-111.51"/>
</g>
<!-- DTEL&#45;SXI_PARTY_TYPE -->
<g id="node31" class="node">
<title>DTEL&#45;SXI_PARTY_TYPE</title>
<g id="a_node31"><a xlink:href="./DTEL_SXI_PARTY_TYPE.html" xlink:title="DTEL&#45;SXI_PARTY_TYPE">
<polygon fill="none" stroke="yellow" points="2628.73,-108 2455.02,-108 2455.02,-72 2628.73,-72 2628.73,-108"/>
<text text-anchor="middle" x="2541.87" y="-85.8" font-family="Times,serif" font-size="14.00">DTEL&#45;SXI_PARTY_TYPE</text>
</a>
</g>
</g>
<!-- INTF&#45;IF_SOAP_PERSIST_GET&#45;&gt;DTEL&#45;SXI_PARTY_TYPE -->
<g id="edge6" class="edge">
<title>INTF&#45;IF_SOAP_PERSIST_GET&#45;&gt;DTEL&#45;SXI_PARTY_TYPE</title>
<path fill="none" stroke="black" d="M1655.21,-158.8C1819.16,-154.39 2152.86,-141.92 2444.88,-108.03"/>
<polygon fill="black" stroke="black" points="2445.29,-111.51 2454.82,-106.87 2444.48,-104.56 2445.29,-111.51"/>
</g>
<!-- DTEL&#45;SXI_PARTY -->
<g id="node33" class="node">
<title>DTEL&#45;SXI_PARTY</title>
<g id="a_node33"><a xlink:href="./DTEL_SXI_PARTY.html" xlink:title="DTEL&#45;SXI_PARTY">
<polygon fill="none" stroke="yellow" points="2778.73,-108 2647.01,-108 2647.01,-72 2778.73,-72 2778.73,-108"/>
<text text-anchor="middle" x="2712.87" y="-85.8" font-family="Times,serif" font-size="14.00">DTEL&#45;SXI_PARTY</text>
</a>
</g>
</g>
<!-- INTF&#45;IF_SOAP_PERSIST_GET&#45;&gt;DTEL&#45;SXI_PARTY -->
<g id="edge5" class="edge">
<title>INTF&#45;IF_SOAP_PERSIST_GET&#45;&gt;DTEL&#45;SXI_PARTY</title>
<path fill="none" stroke="black" d="M1655.29,-161.91C1846.05,-162.32 2271.2,-157.16 2636.75,-108"/>
<polygon fill="black" stroke="black" points="2637.3,-111.46 2646.73,-106.65 2636.35,-104.53 2637.3,-111.46"/>
</g>
<!-- DTEL&#45;AIT_SNDR -->
<g id="node35" class="node">
<title>DTEL&#45;AIT_SNDR</title>
<g id="a_node35"><a xlink:href="./DTEL_AIT_SNDR.html" xlink:title="DTEL&#45;AIT_SNDR">
<polygon fill="none" stroke="yellow" points="2220.95,-108 2096.8,-108 2096.8,-72 2220.95,-72 2220.95,-108"/>
<text text-anchor="middle" x="2158.87" y="-85.8" font-family="Times,serif" font-size="14.00">DTEL&#45;AIT_SNDR</text>
</a>
</g>
</g>
<!-- INTF&#45;IF_SOAP_PERSIST_GET&#45;&gt;DTEL&#45;AIT_SNDR -->
<g id="edge4" class="edge">
<title>INTF&#45;IF_SOAP_PERSIST_GET&#45;&gt;DTEL&#45;AIT_SNDR</title>
<path fill="none" stroke="black" d="M1655.3,-155.06C1760.81,-147.94 1930.86,-133.82 2086.41,-108.12"/>
<polygon fill="black" stroke="black" points="2087.35,-111.51 2096.63,-106.41 2086.19,-104.61 2087.35,-111.51"/>
</g>
<!-- DTEL&#45;SRT_SEQUENCE_ID -->
<g id="node36" class="node">
<title>DTEL&#45;SRT_SEQUENCE_ID</title>
<g id="a_node36"><a xlink:href="./DTEL_SRT_SEQUENCE_ID.html" xlink:title="DTEL&#45;SRT_SEQUENCE_ID">
<polygon fill="none" stroke="yellow" points="2980.83,-108 2796.91,-108 2796.91,-72 2980.83,-72 2980.83,-108"/>
<text text-anchor="middle" x="2888.87" y="-85.8" font-family="Times,serif" font-size="14.00">DTEL&#45;SRT_SEQUENCE_ID</text>
</a>
</g>
</g>
<!-- INTF&#45;IF_SOAP_PERSIST_GET&#45;&gt;DTEL&#45;SRT_SEQUENCE_ID -->
<g id="edge3" class="edge">
<title>INTF&#45;IF_SOAP_PERSIST_GET&#45;&gt;DTEL&#45;SRT_SEQUENCE_ID</title>
<path fill="none" stroke="black" d="M1655.36,-160.89C1865.03,-159.72 2361.26,-152.19 2786.7,-108.04"/>
<polygon fill="black" stroke="black" points="2787.16,-111.51 2796.74,-106.99 2786.43,-104.55 2787.16,-111.51"/>
</g>
<!-- DTEL&#45;SRT_SEQ_QUEUENAME -->
<g id="node38" class="node">
<title>DTEL&#45;SRT_SEQ_QUEUENAME</title>
<g id="a_node38"><a xlink:href="./DTEL_SRT_SEQ_QUEUENAME.html" xlink:title="DTEL&#45;SRT_SEQ_QUEUENAME">
<polygon fill="none" stroke="yellow" points="3210.55,-108 2999.2,-108 2999.2,-72 3210.55,-72 3210.55,-108"/>
<text text-anchor="middle" x="3104.87" y="-85.8" font-family="Times,serif" font-size="14.00">DTEL&#45;SRT_SEQ_QUEUENAME</text>
</a>
</g>
</g>
<!-- INTF&#45;IF_SOAP_PERSIST_GET&#45;&gt;DTEL&#45;SRT_SEQ_QUEUENAME -->
<g id="edge2" class="edge">
<title>INTF&#45;IF_SOAP_PERSIST_GET&#45;&gt;DTEL&#45;SRT_SEQ_QUEUENAME</title>
<path fill="none" stroke="black" d="M1655.1,-161.08C1888.52,-160.43 2482.64,-154.07 2988.96,-108.02"/>
<polygon fill="black" stroke="black" points="2989.39,-111.49 2999.03,-107.09 2988.75,-104.52 2989.39,-111.49"/>
</g>
<!-- TABL&#45;QNAME -->
<g id="node40" class="node">
<title>TABL&#45;QNAME</title>
<g id="a_node40"><a xlink:href="./TABL_QNAME.html" xlink:title="TABL&#45;QNAME">
<polygon fill="none" stroke="green" points="3336.9,-108 3228.85,-108 3228.85,-72 3336.9,-72 3336.9,-108"/>
<text text-anchor="middle" x="3282.87" y="-85.8" font-family="Times,serif" font-size="14.00">TABL&#45;QNAME</text>
</a>
</g>
</g>
<!-- INTF&#45;IF_SOAP_PERSIST_GET&#45;&gt;TABL&#45;QNAME -->
<g id="edge1" class="edge">
<title>INTF&#45;IF_SOAP_PERSIST_GET&#45;&gt;TABL&#45;QNAME</title>
<path fill="none" stroke="black" d="M1655.22,-160.85C1964.68,-159.91 2895.38,-153.4 3218.44,-107.95"/>
<polygon fill="black" stroke="black" points="3219.35,-111.36 3228.74,-106.46 3218.35,-104.43 3219.35,-111.36"/>
</g>
<!-- DOMA&#45;INT4 -->
<g id="node3" class="node">
<title>DOMA&#45;INT4</title>
<g id="a_node3"><a xlink:href="./DOMA_INT4.html" xlink:title="DOMA&#45;INT4">
<polygon fill="none" stroke="yellow" points="93.62,-36 0.13,-36 0.13,0 93.62,0 93.62,-36"/>
<text text-anchor="middle" x="46.87" y="-13.8" font-family="Times,serif" font-size="14.00">DOMA&#45;INT4</text>
</a>
</g>
</g>
<!-- DTEL&#45;INT4&#45;&gt;DOMA&#45;INT4 -->
<g id="edge22" class="edge">
<title>DTEL&#45;INT4&#45;&gt;DOMA&#45;INT4</title>
<path fill="none" stroke="black" d="M49.88,-71.7C49.44,-63.98 48.91,-54.71 48.42,-46.11"/>
<polygon fill="black" stroke="black" points="51.91,-45.89 47.85,-36.1 44.93,-46.29 51.91,-45.89"/>
</g>
<!-- DOMA&#45;NUMC3 -->
<g id="node5" class="node">
<title>DOMA&#45;NUMC3</title>
<g id="a_node5"><a xlink:href="./DOMA_NUMC3.html" xlink:title="DOMA&#45;NUMC3">
<polygon fill="none" stroke="yellow" points="224.29,-36 111.45,-36 111.45,0 224.29,0 224.29,-36"/>
<text text-anchor="middle" x="167.87" y="-13.8" font-family="Times,serif" font-size="14.00">DOMA&#45;NUMC3</text>
</a>
</g>
</g>
<!-- DTEL&#45;NUMC3&#45;&gt;DOMA&#45;NUMC3 -->
<g id="edge23" class="edge">
<title>DTEL&#45;NUMC3&#45;&gt;DOMA&#45;NUMC3</title>
<path fill="none" stroke="black" d="M167.87,-71.7C167.87,-63.98 167.87,-54.71 167.87,-46.11"/>
<polygon fill="black" stroke="black" points="171.37,-46.1 167.87,-36.1 164.37,-46.1 171.37,-46.1"/>
</g>
<!-- DOMA&#45;TZNTSTMPL -->
<g id="node7" class="node">
<title>DOMA&#45;TZNTSTMPL</title>
<g id="a_node7"><a xlink:href="./DOMA_TZNTSTMPL.html" xlink:title="DOMA&#45;TZNTSTMPL">
<polygon fill="none" stroke="yellow" points="386.18,-36 241.57,-36 241.57,0 386.18,0 386.18,-36"/>
<text text-anchor="middle" x="313.87" y="-13.8" font-family="Times,serif" font-size="14.00">DOMA&#45;TZNTSTMPL</text>
</a>
</g>
</g>
<!-- DTEL&#45;TIMESTAMPL&#45;&gt;DOMA&#45;TZNTSTMPL -->
<g id="edge24" class="edge">
<title>DTEL&#45;TIMESTAMPL&#45;&gt;DOMA&#45;TZNTSTMPL</title>
<path fill="none" stroke="black" d="M312.37,-71.7C312.59,-63.98 312.85,-54.71 313.1,-46.11"/>
<polygon fill="black" stroke="black" points="316.6,-46.2 313.38,-36.1 309.6,-46 316.6,-46.2"/>
</g>
<!-- DOMA&#45;SXMSREFID -->
<g id="node10" class="node">
<title>DOMA&#45;SXMSREFID</title>
<g id="a_node10"><a xlink:href="./DOMA_SXMSREFID.html" xlink:title="DOMA&#45;SXMSREFID">
<polygon fill="none" stroke="yellow" points="692.85,-36 550.89,-36 550.89,0 692.85,0 692.85,-36"/>
<text text-anchor="middle" x="621.87" y="-13.8" font-family="Times,serif" font-size="14.00">DOMA&#45;SXMSREFID</text>
</a>
</g>
</g>
<!-- DTEL&#45;SXMSREFID&#45;&gt;DOMA&#45;SXMSREFID -->
<g id="edge25" class="edge">
<title>DTEL&#45;SXMSREFID&#45;&gt;DOMA&#45;SXMSREFID</title>
<path fill="none" stroke="black" d="M633.16,-71.7C631.51,-63.98 629.53,-54.71 627.68,-46.11"/>
<polygon fill="black" stroke="black" points="631.06,-45.15 625.54,-36.1 624.21,-46.62 631.06,-45.15"/>
</g>
<!-- DOMA&#45;SXMSPSTYPE -->
<g id="node12" class="node">
<title>DOMA&#45;SXMSPSTYPE</title>
<g id="a_node12"><a xlink:href="./DOMA_SXMSPSTYPE.html" xlink:title="DOMA&#45;SXMSPSTYPE">
<polygon fill="none" stroke="yellow" points="862.97,-36 710.77,-36 710.77,0 862.97,0 862.97,-36"/>
<text text-anchor="middle" x="786.87" y="-13.8" font-family="Times,serif" font-size="14.00">DOMA&#45;SXMSPSTYPE</text>
</a>
</g>
</g>
<!-- DTEL&#45;SXMSPSTYPE&#45;&gt;DOMA&#45;SXMSPSTYPE -->
<g id="edge26" class="edge">
<title>DTEL&#45;SXMSPSTYPE&#45;&gt;DOMA&#45;SXMSPSTYPE</title>
<path fill="none" stroke="black" d="M792.89,-71.7C792.01,-63.98 790.95,-54.71 789.97,-46.11"/>
<polygon fill="black" stroke="black" points="793.44,-45.64 788.83,-36.1 786.49,-46.44 793.44,-45.64"/>
</g>
<!-- DOMA&#45;SYCHAR12 -->
<g id="node14" class="node">
<title>DOMA&#45;SYCHAR12</title>
<g id="a_node14"><a xlink:href="./DOMA_SYCHAR12.html" xlink:title="DOMA&#45;SYCHAR12">
<polygon fill="none" stroke="yellow" points="1015.07,-36 880.67,-36 880.67,0 1015.07,0 1015.07,-36"/>
<text text-anchor="middle" x="947.87" y="-13.8" font-family="Times,serif" font-size="14.00">DOMA&#45;SYCHAR12</text>
</a>
</g>
</g>
<!-- DTEL&#45;SYUNAME&#45;&gt;DOMA&#45;SYCHAR12 -->
<g id="edge27" class="edge">
<title>DTEL&#45;SYUNAME&#45;&gt;DOMA&#45;SYCHAR12</title>
<path fill="none" stroke="black" d="M947.87,-71.7C947.87,-63.98 947.87,-54.71 947.87,-46.11"/>
<polygon fill="black" stroke="black" points="951.37,-46.1 947.87,-36.1 944.37,-46.1 951.37,-46.1"/>
</g>
<!-- DOMA&#45;MANDT -->
<g id="node16" class="node">
<title>DOMA&#45;MANDT</title>
<g id="a_node16"><a xlink:href="./DOMA_MANDT.html" xlink:title="DOMA&#45;MANDT">
<polygon fill="none" stroke="yellow" points="1147.11,-36 1032.63,-36 1032.63,0 1147.11,0 1147.11,-36"/>
<text text-anchor="middle" x="1089.87" y="-13.8" font-family="Times,serif" font-size="14.00">DOMA&#45;MANDT</text>
</a>
</g>
</g>
<!-- DTEL&#45;SYMANDT&#45;&gt;DOMA&#45;MANDT -->
<g id="edge28" class="edge">
<title>DTEL&#45;SYMANDT&#45;&gt;DOMA&#45;MANDT</title>
<path fill="none" stroke="black" d="M1091.38,-71.7C1091.16,-63.98 1090.89,-54.71 1090.65,-46.11"/>
<polygon fill="black" stroke="black" points="1094.15,-46 1090.36,-36.1 1087.15,-46.2 1094.15,-46"/>
</g>
<!-- DOMA&#45;SXMSQOS -->
<g id="node18" class="node">
<title>DOMA&#45;SXMSQOS</title>
<g id="a_node18"><a xlink:href="./DOMA_SXMSQOS.html" xlink:title="DOMA&#45;SXMSQOS">
<polygon fill="none" stroke="yellow" points="1294.41,-36 1165.33,-36 1165.33,0 1294.41,0 1294.41,-36"/>
<text text-anchor="middle" x="1229.87" y="-13.8" font-family="Times,serif" font-size="14.00">DOMA&#45;SXMSQOS</text>
</a>
</g>
</g>
<!-- DTEL&#45;SXMSQOS&#45;&gt;DOMA&#45;SXMSQOS -->
<g id="edge29" class="edge">
<title>DTEL&#45;SXMSQOS&#45;&gt;DOMA&#45;SXMSQOS</title>
<path fill="none" stroke="black" d="M1232.88,-71.7C1232.44,-63.98 1231.91,-54.71 1231.42,-46.11"/>
<polygon fill="black" stroke="black" points="1234.91,-45.89 1230.85,-36.1 1227.93,-46.29 1234.91,-45.89"/>
</g>
<!-- DOMA&#45;SXMSPMTYPE -->
<g id="node20" class="node">
<title>DOMA&#45;SXMSPMTYPE</title>
<g id="a_node20"><a xlink:href="./DOMA_SXMSPMTYPE.html" xlink:title="DOMA&#45;SXMSPMTYPE">
<polygon fill="none" stroke="yellow" points="1469.14,-36 1312.61,-36 1312.61,0 1469.14,0 1469.14,-36"/>
<text text-anchor="middle" x="1390.87" y="-13.8" font-family="Times,serif" font-size="14.00">DOMA&#45;SXMSPMTYPE</text>
</a>
</g>
</g>
<!-- DTEL&#45;SXMSPMTYPE&#45;&gt;DOMA&#45;SXMSPMTYPE -->
<g id="edge30" class="edge">
<title>DTEL&#45;SXMSPMTYPE&#45;&gt;DOMA&#45;SXMSPMTYPE</title>
<path fill="none" stroke="black" d="M1388.61,-71.7C1388.94,-63.98 1389.34,-54.71 1389.71,-46.11"/>
<polygon fill="black" stroke="black" points="1393.21,-46.25 1390.14,-36.1 1386.21,-45.95 1393.21,-46.25"/>
</g>
<!-- DOMA&#45;SYSUUID_C -->
<g id="node22" class="node">
<title>DOMA&#45;SYSUUID_C</title>
<g id="a_node22"><a xlink:href="./DOMA_SYSUUID_C.html" xlink:title="DOMA&#45;SYSUUID_C">
<polygon fill="none" stroke="yellow" points="1628.29,-36 1487.46,-36 1487.46,0 1628.29,0 1628.29,-36"/>
<text text-anchor="middle" x="1557.87" y="-13.8" font-family="Times,serif" font-size="14.00">DOMA&#45;SYSUUID_C</text>
</a>
</g>
</g>
<!-- DTEL&#45;SXMSPEGUID&#45;&gt;DOMA&#45;SYSUUID_C -->
<g id="edge31" class="edge">
<title>DTEL&#45;SXMSPEGUID&#45;&gt;DOMA&#45;SYSUUID_C</title>
<path fill="none" stroke="black" d="M1554.86,-71.7C1555.3,-63.98 1555.83,-54.71 1556.32,-46.11"/>
<polygon fill="black" stroke="black" points="1559.82,-46.29 1556.9,-36.1 1552.83,-45.89 1559.82,-46.29"/>
</g>
<!-- DOMA&#45;BOOLEAN -->
<g id="node24" class="node">
<title>DOMA&#45;BOOLEAN</title>
<g id="a_node24"><a xlink:href="./DOMA_BOOLEAN.html" xlink:title="DOMA&#45;BOOLEAN">
<polygon fill="none" stroke="yellow" points="1776.17,-36 1645.58,-36 1645.58,0 1776.17,0 1776.17,-36"/>
<text text-anchor="middle" x="1710.87" y="-13.8" font-family="Times,serif" font-size="14.00">DOMA&#45;BOOLEAN</text>
</a>
</g>
</g>
<!-- DTEL&#45;BOOLEAN&#45;&gt;DOMA&#45;BOOLEAN -->
<g id="edge32" class="edge">
<title>DTEL&#45;BOOLEAN&#45;&gt;DOMA&#45;BOOLEAN</title>
<path fill="none" stroke="black" d="M1707.86,-71.7C1708.3,-63.98 1708.83,-54.71 1709.32,-46.11"/>
<polygon fill="black" stroke="black" points="1712.82,-46.29 1709.9,-36.1 1705.83,-45.89 1712.82,-46.29"/>
</g>
<!-- DOMA&#45;SXMSPMSTAT -->
<g id="node26" class="node">
<title>DOMA&#45;SXMSPMSTAT</title>
<g id="a_node26"><a xlink:href="./DOMA_SXMSPMSTAT.html" xlink:title="DOMA&#45;SXMSPMSTAT">
<polygon fill="none" stroke="yellow" points="1951.14,-36 1794.61,-36 1794.61,0 1951.14,0 1951.14,-36"/>
<text text-anchor="middle" x="1872.87" y="-13.8" font-family="Times,serif" font-size="14.00">DOMA&#45;SXMSPMSTAT</text>
</a>
</g>
</g>
<!-- DTEL&#45;SXMSPMSTAT&#45;&gt;DOMA&#45;SXMSPMSTAT -->
<g id="edge33" class="edge">
<title>DTEL&#45;SXMSPMSTAT&#45;&gt;DOMA&#45;SXMSPMSTAT</title>
<path fill="none" stroke="black" d="M1864.59,-71.7C1865.8,-63.98 1867.26,-54.71 1868.61,-46.11"/>
<polygon fill="black" stroke="black" points="1872.09,-46.53 1870.18,-36.1 1865.17,-45.44 1872.09,-46.53"/>
</g>
<!-- DOMA&#45;AIT_SYSTEM -->
<g id="node28" class="node">
<title>DOMA&#45;AIT_SYSTEM</title>
<g id="a_node28"><a xlink:href="./DOMA_AIT_SYSTEM.html" xlink:title="DOMA&#45;AIT_SYSTEM">
<polygon fill="none" stroke="yellow" points="2161.34,-36 2012.41,-36 2012.41,0 2161.34,0 2161.34,-36"/>
<text text-anchor="middle" x="2086.87" y="-13.8" font-family="Times,serif" font-size="14.00">DOMA&#45;AIT_SYSTEM</text>
</a>
</g>
</g>
<!-- DTEL&#45;AIT_RCVR&#45;&gt;DOMA&#45;AIT_SYSTEM -->
<g id="edge34" class="edge">
<title>DTEL&#45;AIT_RCVR&#45;&gt;DOMA&#45;AIT_SYSTEM</title>
<path fill="none" stroke="black" d="M2034.18,-71.7C2042.74,-63.14 2053.22,-52.66 2062.57,-43.3"/>
<polygon fill="black" stroke="black" points="2065.17,-45.65 2069.77,-36.1 2060.22,-40.7 2065.17,-45.65"/>
</g>
<!-- DOMA&#45;SXI_PARTY_AGENCY -->
<g id="node30" class="node">
<title>DOMA&#45;SXI_PARTY_AGENCY</title>
<g id="a_node30"><a xlink:href="./DOMA_SXI_PARTY_AGENCY.html" xlink:title="DOMA&#45;SXI_PARTY_AGENCY">
<polygon fill="none" stroke="yellow" points="2426.05,-36 2221.7,-36 2221.7,0 2426.05,0 2426.05,-36"/>
<text text-anchor="middle" x="2323.87" y="-13.8" font-family="Times,serif" font-size="14.00">DOMA&#45;SXI_PARTY_AGENCY</text>
</a>
</g>
</g>
<!-- DTEL&#45;SXI_PARTY_AGENCY&#45;&gt;DOMA&#45;SXI_PARTY_AGENCY -->
<g id="edge35" class="edge">
<title>DTEL&#45;SXI_PARTY_AGENCY&#45;&gt;DOMA&#45;SXI_PARTY_AGENCY</title>
<path fill="none" stroke="black" d="M2334.41,-71.7C2332.87,-63.98 2331.01,-54.71 2329.29,-46.11"/>
<polygon fill="black" stroke="black" points="2332.69,-45.22 2327.29,-36.1 2325.82,-46.6 2332.69,-45.22"/>
</g>
<!-- DOMA&#45;SXI_PARTY_TYPE -->
<g id="node32" class="node">
<title>DOMA&#45;SXI_PARTY_TYPE</title>
<g id="a_node32"><a xlink:href="./DOMA_SXI_PARTY_TYPE.html" xlink:title="DOMA&#45;SXI_PARTY_TYPE">
<polygon fill="none" stroke="yellow" points="2625.23,-36 2444.52,-36 2444.52,0 2625.23,0 2625.23,-36"/>
<text text-anchor="middle" x="2534.87" y="-13.8" font-family="Times,serif" font-size="14.00">DOMA&#45;SXI_PARTY_TYPE</text>
</a>
</g>
</g>
<!-- DTEL&#45;SXI_PARTY_TYPE&#45;&gt;DOMA&#45;SXI_PARTY_TYPE -->
<g id="edge36" class="edge">
<title>DTEL&#45;SXI_PARTY_TYPE&#45;&gt;DOMA&#45;SXI_PARTY_TYPE</title>
<path fill="none" stroke="black" d="M2540.14,-71.7C2539.37,-63.98 2538.44,-54.71 2537.58,-46.11"/>
<polygon fill="black" stroke="black" points="2541.06,-45.71 2536.58,-36.1 2534.1,-46.4 2541.06,-45.71"/>
</g>
<!-- DOMA&#45;SXI_PARTY -->
<g id="node34" class="node">
<title>DOMA&#45;SXI_PARTY</title>
<g id="a_node34"><a xlink:href="./DOMA_SXI_PARTY.html" xlink:title="DOMA&#45;SXI_PARTY">
<polygon fill="none" stroke="yellow" points="2782.23,-36 2643.51,-36 2643.51,0 2782.23,0 2782.23,-36"/>
<text text-anchor="middle" x="2712.87" y="-13.8" font-family="Times,serif" font-size="14.00">DOMA&#45;SXI_PARTY</text>
</a>
</g>
</g>
<!-- DTEL&#45;SXI_PARTY&#45;&gt;DOMA&#45;SXI_PARTY -->
<g id="edge37" class="edge">
<title>DTEL&#45;SXI_PARTY&#45;&gt;DOMA&#45;SXI_PARTY</title>
<path fill="none" stroke="black" d="M2712.87,-71.7C2712.87,-63.98 2712.87,-54.71 2712.87,-46.11"/>
<polygon fill="black" stroke="black" points="2716.37,-46.1 2712.87,-36.1 2709.37,-46.1 2716.37,-46.1"/>
</g>
<!-- DTEL&#45;AIT_SNDR&#45;&gt;DOMA&#45;AIT_SYSTEM -->
<g id="edge38" class="edge">
<title>DTEL&#45;AIT_SNDR&#45;&gt;DOMA&#45;AIT_SYSTEM</title>
<path fill="none" stroke="black" d="M2141.07,-71.7C2132.27,-63.14 2121.49,-52.66 2111.87,-43.3"/>
<polygon fill="black" stroke="black" points="2114.08,-40.57 2104.47,-36.1 2109.2,-45.58 2114.08,-40.57"/>
</g>
<!-- DOMA&#45;SRT_SEQUENCE_QUEUE_IDENT -->
<g id="node37" class="node">
<title>DOMA&#45;SRT_SEQUENCE_QUEUE_IDENT</title>
<g id="a_node37"><a xlink:href="./DOMA_SRT_SEQUENCE_QUEUE_IDENT.html" xlink:title="DOMA&#45;SRT_SEQUENCE_QUEUE_IDENT">
<polygon fill="none" stroke="yellow" points="3072.97,-36 2800.77,-36 2800.77,0 3072.97,0 3072.97,-36"/>
<text text-anchor="middle" x="2936.87" y="-13.8" font-family="Times,serif" font-size="14.00">DOMA&#45;SRT_SEQUENCE_QUEUE_IDENT</text>
</a>
</g>
</g>
<!-- DTEL&#45;SRT_SEQUENCE_ID&#45;&gt;DOMA&#45;SRT_SEQUENCE_QUEUE_IDENT -->
<g id="edge39" class="edge">
<title>DTEL&#45;SRT_SEQUENCE_ID&#45;&gt;DOMA&#45;SRT_SEQUENCE_QUEUE_IDENT</title>
<path fill="none" stroke="black" d="M2900.74,-71.7C2906.38,-63.47 2913.23,-53.48 2919.44,-44.42"/>
<polygon fill="black" stroke="black" points="2922.37,-46.33 2925.14,-36.1 2916.6,-42.37 2922.37,-46.33"/>
</g>
<!-- DOMA&#45;SRT_SEQ_QUEUENAME -->
<g id="node39" class="node">
<title>DOMA&#45;SRT_SEQ_QUEUENAME</title>
<g id="a_node39"><a xlink:href="./DOMA_SRT_SEQ_QUEUENAME.html" xlink:title="DOMA&#45;SRT_SEQ_QUEUENAME">
<polygon fill="none" stroke="yellow" points="3309.05,-36 3090.7,-36 3090.7,0 3309.05,0 3309.05,-36"/>
<text text-anchor="middle" x="3199.87" y="-13.8" font-family="Times,serif" font-size="14.00">DOMA&#45;SRT_SEQ_QUEUENAME</text>
</a>
</g>
</g>
<!-- DTEL&#45;SRT_SEQ_QUEUENAME&#45;&gt;DOMA&#45;SRT_SEQ_QUEUENAME -->
<g id="edge40" class="edge">
<title>DTEL&#45;SRT_SEQ_QUEUENAME&#45;&gt;DOMA&#45;SRT_SEQ_QUEUENAME</title>
<path fill="none" stroke="black" d="M3128.36,-71.7C3140.44,-62.8 3155.33,-51.82 3168.39,-42.2"/>
<polygon fill="black" stroke="black" points="3170.69,-44.85 3176.66,-36.1 3166.53,-39.22 3170.69,-44.85"/>
</g>
</g>
</svg>
