<?xml version="1.0" encoding="UTF-8" standalone="no"?>
<!DOCTYPE svg PUBLIC "-//W3C//DTD SVG 1.1//EN"
 "http://www.w3.org/Graphics/SVG/1.1/DTD/svg11.dtd">
<!-- Generated by graphviz version 2.47.3 (20210619.1520)
 -->
<!-- Title: G Pages: 1 -->
<svg width="596pt" height="332pt"
 viewBox="0.00 0.00 596.37 332.00" xmlns="http://www.w3.org/2000/svg" xmlns:xlink="http://www.w3.org/1999/xlink">
<g id="graph0" class="graph" transform="scale(1 1) rotate(0) translate(4 328)">
<title>G</title>
<polygon fill="white" stroke="transparent" points="-4,4 -4,-328 592.37,-328 592.37,4 -4,4"/>
<!-- INTF&#45;IF_FDT_CP_RULESET -->
<g id="node1" class="node">
<title>INTF&#45;IF_FDT_CP_RULESET</title>
<polygon fill="none" stroke="green" points="350.91,-324 160.51,-324 160.51,-288 350.91,-288 350.91,-324"/>
<text text-anchor="middle" x="255.71" y="-301.8" font-family="Times,serif" font-size="14.00">INTF&#45;IF_FDT_CP_RULESET</text>
</g>
<!-- INTF&#45;IF_FDT_CP_ACTIONS -->
<g id="node2" class="node">
<title>INTF&#45;IF_FDT_CP_ACTIONS</title>
<g id="a_node2"><a xlink:href="./INTF_IF_FDT_CP_ACTIONS.html" xlink:title="INTF&#45;IF_FDT_CP_ACTIONS">
<polygon fill="none" stroke="green" points="189.63,-252 -0.21,-252 -0.21,-216 189.63,-216 189.63,-252"/>
<text text-anchor="middle" x="94.71" y="-229.8" font-family="Times,serif" font-size="14.00">INTF&#45;IF_FDT_CP_ACTIONS</text>
</a>
</g>
</g>
<!-- INTF&#45;IF_FDT_CP_RULESET&#45;&gt;INTF&#45;IF_FDT_CP_ACTIONS -->
<g id="edge5" class="edge">
<title>INTF&#45;IF_FDT_CP_RULESET&#45;&gt;INTF&#45;IF_FDT_CP_ACTIONS</title>
<path fill="none" stroke="black" d="M216.32,-287.88C194.31,-278.31 166.7,-266.3 143.35,-256.15"/>
<polygon fill="black" stroke="black" points="144.53,-252.85 133.97,-252.07 141.74,-259.27 144.53,-252.85"/>
</g>
<!-- INTF&#45;IF_FDT_CP_ADMIN_DATA -->
<g id="node3" class="node">
<title>INTF&#45;IF_FDT_CP_ADMIN_DATA</title>
<g id="a_node3"><a xlink:href="./INTF_IF_FDT_CP_ADMIN_DATA.html" xlink:title="INTF&#45;IF_FDT_CP_ADMIN_DATA">
<polygon fill="none" stroke="green" points="505.77,-252 283.65,-252 283.65,-216 505.77,-216 505.77,-252"/>
<text text-anchor="middle" x="394.71" y="-229.8" font-family="Times,serif" font-size="14.00">INTF&#45;IF_FDT_CP_ADMIN_DATA</text>
</a>
</g>
</g>
<!-- INTF&#45;IF_FDT_CP_RULESET&#45;&gt;INTF&#45;IF_FDT_CP_ADMIN_DATA -->
<g id="edge4" class="edge">
<title>INTF&#45;IF_FDT_CP_RULESET&#45;&gt;INTF&#45;IF_FDT_CP_ADMIN_DATA</title>
<path fill="none" stroke="black" d="M289.71,-287.88C308.31,-278.51 331.54,-266.81 351.42,-256.8"/>
<polygon fill="black" stroke="black" points="353.22,-259.81 360.58,-252.19 350.07,-253.56 353.22,-259.81"/>
</g>
<!-- INTF&#45;IF_FDT_CP_EXTERNAL_TYPES -->
<g id="node4" class="node">
<title>INTF&#45;IF_FDT_CP_EXTERNAL_TYPES</title>
<g id="a_node4"><a xlink:href="./INTF_IF_FDT_CP_EXTERNAL_TYPES.html" xlink:title="INTF&#45;IF_FDT_CP_EXTERNAL_TYPES">
<polygon fill="none" stroke="green" points="498.12,-180 245.3,-180 245.3,-144 498.12,-144 498.12,-180"/>
<text text-anchor="middle" x="371.71" y="-157.8" font-family="Times,serif" font-size="14.00">INTF&#45;IF_FDT_CP_EXTERNAL_TYPES</text>
</a>
</g>
</g>
<!-- INTF&#45;IF_FDT_CP_RULESET&#45;&gt;INTF&#45;IF_FDT_CP_EXTERNAL_TYPES -->
<g id="edge2" class="edge">
<title>INTF&#45;IF_FDT_CP_RULESET&#45;&gt;INTF&#45;IF_FDT_CP_EXTERNAL_TYPES</title>
<path fill="none" stroke="black" d="M255.28,-287.88C255.66,-268.58 258.94,-237.16 274.71,-216 284.54,-202.81 298.66,-192.51 313.1,-184.65"/>
<polygon fill="black" stroke="black" points="314.77,-187.72 322.09,-180.06 311.59,-181.49 314.77,-187.72"/>
</g>
<!-- INTF&#45;IF_FDT_CP_AST_NODE -->
<g id="node5" class="node">
<title>INTF&#45;IF_FDT_CP_AST_NODE</title>
<g id="a_node5"><a xlink:href="./INTF_IF_FDT_CP_AST_NODE.html" xlink:title="INTF&#45;IF_FDT_CP_AST_NODE">
<polygon fill="none" stroke="green" points="464.29,-108 263.13,-108 263.13,-72 464.29,-72 464.29,-108"/>
<text text-anchor="middle" x="363.71" y="-85.8" font-family="Times,serif" font-size="14.00">INTF&#45;IF_FDT_CP_AST_NODE</text>
</a>
</g>
</g>
<!-- INTF&#45;IF_FDT_CP_RULESET&#45;&gt;INTF&#45;IF_FDT_CP_AST_NODE -->
<g id="edge3" class="edge">
<title>INTF&#45;IF_FDT_CP_RULESET&#45;&gt;INTF&#45;IF_FDT_CP_AST_NODE</title>
<path fill="none" stroke="black" d="M246.89,-287.79C232.15,-256.34 206.9,-188.74 236.71,-144 245.92,-130.17 259.51,-119.94 274.41,-112.38"/>
<polygon fill="black" stroke="black" points="276.23,-115.39 283.83,-108.01 273.28,-109.04 276.23,-115.39"/>
</g>
<!-- DTEL&#45;CHAR1 -->
<g id="node6" class="node">
<title>DTEL&#45;CHAR1</title>
<g id="a_node6"><a xlink:href="./DTEL_CHAR1.html" xlink:title="DTEL&#45;CHAR1">
<polygon fill="none" stroke="yellow" points="585.02,-108 482.4,-108 482.4,-72 585.02,-72 585.02,-108"/>
<text text-anchor="middle" x="533.71" y="-85.8" font-family="Times,serif" font-size="14.00">DTEL&#45;CHAR1</text>
</a>
</g>
</g>
<!-- INTF&#45;IF_FDT_CP_RULESET&#45;&gt;DTEL&#45;CHAR1 -->
<g id="edge1" class="edge">
<title>INTF&#45;IF_FDT_CP_RULESET&#45;&gt;DTEL&#45;CHAR1</title>
<path fill="none" stroke="black" d="M350.93,-297.1C415.38,-289.68 492.66,-275.99 514.71,-252 548.02,-215.75 544.68,-153.88 539.23,-118.32"/>
<polygon fill="black" stroke="black" points="542.63,-117.46 537.5,-108.19 535.73,-118.63 542.63,-117.46"/>
</g>
<!-- INTF&#45;IF_FDT_CP_ADMIN_DATA&#45;&gt;INTF&#45;IF_FDT_CP_EXTERNAL_TYPES -->
<g id="edge6" class="edge">
<title>INTF&#45;IF_FDT_CP_ADMIN_DATA&#45;&gt;INTF&#45;IF_FDT_CP_EXTERNAL_TYPES</title>
<path fill="none" stroke="black" d="M389.02,-215.7C386.46,-207.9 383.38,-198.51 380.52,-189.83"/>
<polygon fill="black" stroke="black" points="383.78,-188.51 377.33,-180.1 377.13,-190.7 383.78,-188.51"/>
</g>
<!-- INTF&#45;IF_FDT_CP_EXTERNAL_TYPES&#45;&gt;INTF&#45;IF_FDT_CP_AST_NODE -->
<g id="edge8" class="edge">
<title>INTF&#45;IF_FDT_CP_EXTERNAL_TYPES&#45;&gt;INTF&#45;IF_FDT_CP_AST_NODE</title>
<path fill="none" stroke="black" d="M363.82,-143.7C362.14,-135.98 360.85,-126.71 360.21,-118.11"/>
<polygon fill="black" stroke="black" points="363.71,-117.94 359.77,-108.1 356.72,-118.25 363.71,-117.94"/>
</g>
<!-- INTF&#45;IF_FDT_CP_EXTERNAL_TYPES&#45;&gt;DTEL&#45;CHAR1 -->
<g id="edge7" class="edge">
<title>INTF&#45;IF_FDT_CP_EXTERNAL_TYPES&#45;&gt;DTEL&#45;CHAR1</title>
<path fill="none" stroke="black" d="M411.34,-143.88C433.49,-134.31 461.27,-122.3 484.77,-112.15"/>
<polygon fill="black" stroke="black" points="486.42,-115.25 494.21,-108.07 483.64,-108.82 486.42,-115.25"/>
</g>
<!-- INTF&#45;IF_FDT_CP_AST_NODE&#45;&gt;INTF&#45;IF_FDT_CP_EXTERNAL_TYPES -->
<g id="edge9" class="edge">
<title>INTF&#45;IF_FDT_CP_AST_NODE&#45;&gt;INTF&#45;IF_FDT_CP_EXTERNAL_TYPES</title>
<path fill="none" stroke="black" d="M371.56,-108.1C373.24,-115.79 374.54,-125.05 375.19,-133.67"/>
<polygon fill="black" stroke="black" points="371.7,-133.87 375.65,-143.7 378.69,-133.55 371.7,-133.87"/>
</g>
<!-- DOMA&#45;CHAR1 -->
<g id="node7" class="node">
<title>DOMA&#45;CHAR1</title>
<g id="a_node7"><a xlink:href="./DOMA_CHAR1.html" xlink:title="DOMA&#45;CHAR1">
<polygon fill="none" stroke="green" points="588.52,-36 478.9,-36 478.9,0 588.52,0 588.52,-36"/>
<text text-anchor="middle" x="533.71" y="-13.8" font-family="Times,serif" font-size="14.00">DOMA&#45;CHAR1</text>
</a>
</g>
</g>
<!-- DTEL&#45;CHAR1&#45;&gt;DOMA&#45;CHAR1 -->
<g id="edge10" class="edge">
<title>DTEL&#45;CHAR1&#45;&gt;DOMA&#45;CHAR1</title>
<path fill="none" stroke="black" d="M533.71,-71.7C533.71,-63.98 533.71,-54.71 533.71,-46.11"/>
<polygon fill="black" stroke="black" points="537.21,-46.1 533.71,-36.1 530.21,-46.1 537.21,-46.1"/>
</g>
</g>
</svg>
