<?xml version="1.0" encoding="UTF-8" standalone="no"?>
<!DOCTYPE svg PUBLIC "-//W3C//DTD SVG 1.1//EN"
 "http://www.w3.org/Graphics/SVG/1.1/DTD/svg11.dtd">
<!-- Generated by graphviz version 2.47.3 (20210619.1520)
 -->
<!-- Title: G Pages: 1 -->
<svg width="439pt" height="188pt"
 viewBox="0.00 0.00 439.47 188.00" xmlns="http://www.w3.org/2000/svg" xmlns:xlink="http://www.w3.org/1999/xlink">
<g id="graph0" class="graph" transform="scale(1 1) rotate(0) translate(4 184)">
<title>G</title>
<polygon fill="white" stroke="transparent" points="-4,4 -4,-184 435.47,-184 435.47,4 -4,4"/>
<!-- INTF&#45;IF_SWF_CPWF_CALLBACK -->
<g id="node1" class="node">
<title>INTF&#45;IF_SWF_CPWF_CALLBACK</title>
<polygon fill="none" stroke="green" points="321.96,-180 94.89,-180 94.89,-144 321.96,-144 321.96,-180"/>
<text text-anchor="middle" x="208.43" y="-157.8" font-family="Times,serif" font-size="14.00">INTF&#45;IF_SWF_CPWF_CALLBACK</text>
</g>
<!-- DTEL&#45;SWF_CPWF_HANDLE -->
<g id="node2" class="node">
<title>DTEL&#45;SWF_CPWF_HANDLE</title>
<g id="a_node2"><a xlink:href="./DTEL_SWF_CPWF_HANDLE.html" xlink:title="DTEL&#45;SWF_CPWF_HANDLE">
<polygon fill="none" stroke="green" points="194.78,-108 0.07,-108 0.07,-72 194.78,-72 194.78,-108"/>
<text text-anchor="middle" x="97.43" y="-85.8" font-family="Times,serif" font-size="14.00">DTEL&#45;SWF_CPWF_HANDLE</text>
</a>
</g>
</g>
<!-- INTF&#45;IF_SWF_CPWF_CALLBACK&#45;&gt;DTEL&#45;SWF_CPWF_HANDLE -->
<g id="edge2" class="edge">
<title>INTF&#45;IF_SWF_CPWF_CALLBACK&#45;&gt;DTEL&#45;SWF_CPWF_HANDLE</title>
<path fill="none" stroke="black" d="M181.27,-143.88C166.89,-134.81 149.05,-123.55 133.52,-113.76"/>
<polygon fill="black" stroke="black" points="135.01,-110.56 124.68,-108.19 131.28,-116.48 135.01,-110.56"/>
</g>
<!-- DTEL&#45;SWF_CPWF_CONSUMER -->
<g id="node4" class="node">
<title>DTEL&#45;SWF_CPWF_CONSUMER</title>
<g id="a_node4"><a xlink:href="./DTEL_SWF_CPWF_CONSUMER.html" xlink:title="DTEL&#45;SWF_CPWF_CONSUMER">
<polygon fill="none" stroke="green" points="428.02,-108 212.83,-108 212.83,-72 428.02,-72 428.02,-108"/>
<text text-anchor="middle" x="320.43" y="-85.8" font-family="Times,serif" font-size="14.00">DTEL&#45;SWF_CPWF_CONSUMER</text>
</a>
</g>
</g>
<!-- INTF&#45;IF_SWF_CPWF_CALLBACK&#45;&gt;DTEL&#45;SWF_CPWF_CONSUMER -->
<g id="edge1" class="edge">
<title>INTF&#45;IF_SWF_CPWF_CALLBACK&#45;&gt;DTEL&#45;SWF_CPWF_CONSUMER</title>
<path fill="none" stroke="black" d="M235.82,-143.88C250.33,-134.81 268.34,-123.55 284.01,-113.76"/>
<polygon fill="black" stroke="black" points="286.3,-116.46 292.92,-108.19 282.59,-110.52 286.3,-116.46"/>
</g>
<!-- DOMA&#45;SYSUUID_C32 -->
<g id="node3" class="node">
<title>DOMA&#45;SYSUUID_C32</title>
<g id="a_node3"><a xlink:href="./DOMA_SYSUUID_C32.html" xlink:title="DOMA&#45;SYSUUID_C32">
<polygon fill="none" stroke="yellow" points="174.84,-36 20.01,-36 20.01,0 174.84,0 174.84,-36"/>
<text text-anchor="middle" x="97.43" y="-13.8" font-family="Times,serif" font-size="14.00">DOMA&#45;SYSUUID_C32</text>
</a>
</g>
</g>
<!-- DTEL&#45;SWF_CPWF_HANDLE&#45;&gt;DOMA&#45;SYSUUID_C32 -->
<g id="edge3" class="edge">
<title>DTEL&#45;SWF_CPWF_HANDLE&#45;&gt;DOMA&#45;SYSUUID_C32</title>
<path fill="none" stroke="black" d="M97.43,-71.7C97.43,-63.98 97.43,-54.71 97.43,-46.11"/>
<polygon fill="black" stroke="black" points="100.93,-46.1 97.43,-36.1 93.93,-46.1 100.93,-46.1"/>
</g>
<!-- DOMA&#45;SWF_CPWF_CONSUMER -->
<g id="node5" class="node">
<title>DOMA&#45;SWF_CPWF_CONSUMER</title>
<g id="a_node5"><a xlink:href="./DOMA_SWF_CPWF_CONSUMER.html" xlink:title="DOMA&#45;SWF_CPWF_CONSUMER">
<polygon fill="none" stroke="yellow" points="431.52,-36 209.33,-36 209.33,0 431.52,0 431.52,-36"/>
<text text-anchor="middle" x="320.43" y="-13.8" font-family="Times,serif" font-size="14.00">DOMA&#45;SWF_CPWF_CONSUMER</text>
</a>
</g>
</g>
<!-- DTEL&#45;SWF_CPWF_CONSUMER&#45;&gt;DOMA&#45;SWF_CPWF_CONSUMER -->
<g id="edge4" class="edge">
<title>DTEL&#45;SWF_CPWF_CONSUMER&#45;&gt;DOMA&#45;SWF_CPWF_CONSUMER</title>
<path fill="none" stroke="black" d="M320.43,-71.7C320.43,-63.98 320.43,-54.71 320.43,-46.11"/>
<polygon fill="black" stroke="black" points="323.93,-46.1 320.43,-36.1 316.93,-46.1 323.93,-46.1"/>
</g>
</g>
</svg>
