<?xml version="1.0" encoding="UTF-8" standalone="no"?>
<!DOCTYPE svg PUBLIC "-//W3C//DTD SVG 1.1//EN"
 "http://www.w3.org/Graphics/SVG/1.1/DTD/svg11.dtd">
<!-- Generated by graphviz version 2.47.3 (20210619.1520)
 -->
<!-- Title: G Pages: 1 -->
<svg width="1427pt" height="980pt"
 viewBox="0.00 0.00 1426.96 980.00" xmlns="http://www.w3.org/2000/svg" xmlns:xlink="http://www.w3.org/1999/xlink">
<g id="graph0" class="graph" transform="scale(1 1) rotate(0) translate(4 976)">
<title>G</title>
<polygon fill="white" stroke="transparent" points="-4,4 -4,-976 1422.96,-976 1422.96,4 -4,4"/>
<!-- INTF&#45;IF_XCO_PRINTABLE -->
<g id="node1" class="node">
<title>INTF&#45;IF_XCO_PRINTABLE</title>
<g id="a_node1"><a xlink:href="./INTF_IF_XCO_PRINTABLE.html" xlink:title="INTF&#45;IF_XCO_PRINTABLE">
<polygon fill="none" stroke="green" points="1014.61,-972 830.13,-972 830.13,-936 1014.61,-936 1014.61,-972"/>
<text text-anchor="middle" x="922.37" y="-949.8" font-family="Times,serif" font-size="14.00">INTF&#45;IF_XCO_PRINTABLE</text>
</a>
</g>
</g>
<!-- INTF&#45;IF_XCO_TEXT -->
<g id="node2" class="node">
<title>INTF&#45;IF_XCO_TEXT</title>
<g id="a_node2"><a xlink:href="./INTF_IF_XCO_TEXT.html" xlink:title="INTF&#45;IF_XCO_TEXT">
<polygon fill="none" stroke="green" points="993.89,-900 850.85,-900 850.85,-864 993.89,-864 993.89,-900"/>
<text text-anchor="middle" x="922.37" y="-877.8" font-family="Times,serif" font-size="14.00">INTF&#45;IF_XCO_TEXT</text>
</a>
</g>
</g>
<!-- INTF&#45;IF_XCO_PRINTABLE&#45;&gt;INTF&#45;IF_XCO_TEXT -->
<g id="edge1" class="edge">
<title>INTF&#45;IF_XCO_PRINTABLE&#45;&gt;INTF&#45;IF_XCO_TEXT</title>
<path fill="none" stroke="black" d="M916.45,-935.7C915.66,-927.98 915.43,-918.71 915.77,-910.11"/>
<polygon fill="black" stroke="black" points="919.27,-910.32 916.47,-900.1 912.29,-909.84 919.27,-910.32"/>
</g>
<!-- INTF&#45;IF_XCO_PRINTABLE&#45;&gt;INTF&#45;IF_XCO_TEXT -->
<g id="edge58" class="edge">
<title>INTF&#45;IF_XCO_PRINTABLE&#45;&gt;INTF&#45;IF_XCO_TEXT</title>
<path fill="none" stroke="black" d="M928.29,-935.7C929.08,-927.98 929.31,-918.71 928.96,-910.11"/>
<polygon fill="black" stroke="black" points="932.45,-909.84 928.26,-900.1 925.47,-910.32 932.45,-909.84"/>
</g>
<!-- INTF&#45;IF_XCO_STRINGS -->
<g id="node3" class="node">
<title>INTF&#45;IF_XCO_STRINGS</title>
<g id="a_node3"><a xlink:href="./INTF_IF_XCO_STRINGS.html" xlink:title="INTF&#45;IF_XCO_STRINGS">
<polygon fill="none" stroke="green" points="875.45,-828 709.29,-828 709.29,-792 875.45,-792 875.45,-828"/>
<text text-anchor="middle" x="792.37" y="-805.8" font-family="Times,serif" font-size="14.00">INTF&#45;IF_XCO_STRINGS</text>
</a>
</g>
</g>
<!-- INTF&#45;IF_XCO_TEXT&#45;&gt;INTF&#45;IF_XCO_STRINGS -->
<g id="edge2" class="edge">
<title>INTF&#45;IF_XCO_TEXT&#45;&gt;INTF&#45;IF_XCO_STRINGS</title>
<path fill="none" stroke="black" d="M884.67,-863.88C866.55,-854.64 845.03,-843.13 827.29,-833.21"/>
<polygon fill="black" stroke="black" points="828.82,-830.06 818.39,-828.19 825.38,-836.15 828.82,-830.06"/>
</g>
<!-- INTF&#45;IF_XCO_STRINGS&#45;&gt;INTF&#45;IF_XCO_TEXT -->
<g id="edge8" class="edge">
<title>INTF&#45;IF_XCO_STRINGS&#45;&gt;INTF&#45;IF_XCO_TEXT</title>
<path fill="none" stroke="black" d="M830.2,-828.19C848.33,-837.44 869.85,-848.95 887.58,-858.86"/>
<polygon fill="black" stroke="black" points="886.04,-862.01 896.47,-863.88 889.48,-855.91 886.04,-862.01"/>
</g>
<!-- INTF&#45;IF_XCO_STRING_ITERABLE -->
<g id="node4" class="node">
<title>INTF&#45;IF_XCO_STRING_ITERABLE</title>
<g id="a_node4"><a xlink:href="./INTF_IF_XCO_STRING_ITERABLE.html" xlink:title="INTF&#45;IF_XCO_STRING_ITERABLE">
<polygon fill="none" stroke="green" points="476.82,-756 243.92,-756 243.92,-720 476.82,-720 476.82,-756"/>
<text text-anchor="middle" x="360.37" y="-733.8" font-family="Times,serif" font-size="14.00">INTF&#45;IF_XCO_STRING_ITERABLE</text>
</a>
</g>
</g>
<!-- INTF&#45;IF_XCO_STRINGS&#45;&gt;INTF&#45;IF_XCO_STRING_ITERABLE -->
<g id="edge9" class="edge">
<title>INTF&#45;IF_XCO_STRINGS&#45;&gt;INTF&#45;IF_XCO_STRING_ITERABLE</title>
<path fill="none" stroke="black" d="M709.08,-795.5C642.81,-784.77 549.33,-769.62 475.83,-757.71"/>
<polygon fill="black" stroke="black" points="476.03,-754.2 465.6,-756.05 474.91,-761.11 476.03,-754.2"/>
</g>
<!-- INTF&#45;IF_XCO_STRING -->
<g id="node7" class="node">
<title>INTF&#45;IF_XCO_STRING</title>
<g id="a_node7"><a xlink:href="./INTF_IF_XCO_STRING.html" xlink:title="INTF&#45;IF_XCO_STRING">
<polygon fill="none" stroke="green" points="704.67,-612 546.07,-612 546.07,-576 704.67,-576 704.67,-612"/>
<text text-anchor="middle" x="625.37" y="-589.8" font-family="Times,serif" font-size="14.00">INTF&#45;IF_XCO_STRING</text>
</a>
</g>
</g>
<!-- INTF&#45;IF_XCO_STRINGS&#45;&gt;INTF&#45;IF_XCO_STRING -->
<g id="edge5" class="edge">
<title>INTF&#45;IF_XCO_STRINGS&#45;&gt;INTF&#45;IF_XCO_STRING</title>
<path fill="none" stroke="black" d="M783.16,-791.78C777.28,-772.95 769.83,-742.48 755.37,-720 728.2,-677.77 683.1,-640.92 653.65,-618.38"/>
<polygon fill="black" stroke="black" points="655.5,-615.39 645.42,-612.13 651.27,-620.97 655.5,-615.39"/>
</g>
<!-- INTF&#45;IF_XCO_NEWS -->
<g id="node8" class="node">
<title>INTF&#45;IF_XCO_NEWS</title>
<g id="a_node8"><a xlink:href="./INTF_IF_XCO_NEWS.html" xlink:title="INTF&#45;IF_XCO_NEWS">
<polygon fill="none" stroke="green" points="1063.28,-540 915.46,-540 915.46,-504 1063.28,-504 1063.28,-540"/>
<text text-anchor="middle" x="989.37" y="-517.8" font-family="Times,serif" font-size="14.00">INTF&#45;IF_XCO_NEWS</text>
</a>
</g>
</g>
<!-- INTF&#45;IF_XCO_STRINGS&#45;&gt;INTF&#45;IF_XCO_NEWS -->
<g id="edge7" class="edge">
<title>INTF&#45;IF_XCO_STRINGS&#45;&gt;INTF&#45;IF_XCO_NEWS</title>
<path fill="none" stroke="black" d="M875.61,-797.81C925.15,-789.26 981.23,-775.57 996.37,-756 1043.31,-695.31 1016.88,-596.72 1000.02,-549.65"/>
<polygon fill="black" stroke="black" points="1003.25,-548.31 996.49,-540.16 996.69,-550.75 1003.25,-548.31"/>
</g>
<!-- INTF&#45;IF_XCO_STRING_COMPOSITION -->
<g id="node35" class="node">
<title>INTF&#45;IF_XCO_STRING_COMPOSITION</title>
<g id="a_node35"><a xlink:href="./INTF_IF_XCO_STRING_COMPOSITION.html" xlink:title="INTF&#45;IF_XCO_STRING_COMPOSITION">
<polygon fill="none" stroke="green" points="755.82,-756 494.92,-756 494.92,-720 755.82,-720 755.82,-756"/>
<text text-anchor="middle" x="625.37" y="-733.8" font-family="Times,serif" font-size="14.00">INTF&#45;IF_XCO_STRING_COMPOSITION</text>
</a>
</g>
</g>
<!-- INTF&#45;IF_XCO_STRINGS&#45;&gt;INTF&#45;IF_XCO_STRING_COMPOSITION -->
<g id="edge6" class="edge">
<title>INTF&#45;IF_XCO_STRINGS&#45;&gt;INTF&#45;IF_XCO_STRING_COMPOSITION</title>
<path fill="none" stroke="black" d="M745.62,-791.88C721.79,-782.31 693.02,-770.3 669.57,-760.15"/>
<polygon fill="black" stroke="black" points="670.76,-756.85 660.2,-756.07 667.97,-763.27 670.76,-756.85"/>
</g>
<!-- TTYP&#45;STRING_TABLE -->
<g id="node36" class="node">
<title>TTYP&#45;STRING_TABLE</title>
<g id="a_node36"><a xlink:href="./TTYP_STRING_TABLE.html" xlink:title="TTYP&#45;STRING_TABLE">
<polygon fill="none" stroke="green" points="987.67,-756 829.07,-756 829.07,-720 987.67,-720 987.67,-756"/>
<text text-anchor="middle" x="908.37" y="-733.8" font-family="Times,serif" font-size="14.00">TTYP&#45;STRING_TABLE</text>
</a>
</g>
</g>
<!-- INTF&#45;IF_XCO_STRINGS&#45;&gt;TTYP&#45;STRING_TABLE -->
<g id="edge4" class="edge">
<title>INTF&#45;IF_XCO_STRINGS&#45;&gt;TTYP&#45;STRING_TABLE</title>
<path fill="none" stroke="black" d="M820.75,-791.88C835.91,-782.72 854.77,-771.34 871.11,-761.48"/>
<polygon fill="black" stroke="black" points="873.13,-764.35 879.88,-756.19 869.51,-758.36 873.13,-764.35"/>
</g>
<!-- DTEL&#45;INT4 -->
<g id="node37" class="node">
<title>DTEL&#45;INT4</title>
<g id="a_node37"><a xlink:href="./DTEL_INT4.html" xlink:title="DTEL&#45;INT4">
<polygon fill="none" stroke="green" points="186.61,-756 100.12,-756 100.12,-720 186.61,-720 186.61,-756"/>
<text text-anchor="middle" x="143.37" y="-733.8" font-family="Times,serif" font-size="14.00">DTEL&#45;INT4</text>
</a>
</g>
</g>
<!-- INTF&#45;IF_XCO_STRINGS&#45;&gt;DTEL&#45;INT4 -->
<g id="edge3" class="edge">
<title>INTF&#45;IF_XCO_STRINGS&#45;&gt;DTEL&#45;INT4</title>
<path fill="none" stroke="black" d="M709.12,-806.52C594.24,-801.97 381.04,-789.45 202.37,-756 200.44,-755.64 198.49,-755.24 196.52,-754.82"/>
<polygon fill="black" stroke="black" points="197.18,-751.38 186.64,-752.48 195.57,-758.19 197.18,-751.38"/>
</g>
<!-- INTF&#45;IF_XCO_STRING_ITERATOR -->
<g id="node5" class="node">
<title>INTF&#45;IF_XCO_STRING_ITERATOR</title>
<g id="a_node5"><a xlink:href="./INTF_IF_XCO_STRING_ITERATOR.html" xlink:title="INTF&#45;IF_XCO_STRING_ITERATOR">
<polygon fill="none" stroke="green" points="517.38,-684 283.36,-684 283.36,-648 517.38,-648 517.38,-684"/>
<text text-anchor="middle" x="400.37" y="-661.8" font-family="Times,serif" font-size="14.00">INTF&#45;IF_XCO_STRING_ITERATOR</text>
</a>
</g>
</g>
<!-- INTF&#45;IF_XCO_STRING_ITERABLE&#45;&gt;INTF&#45;IF_XCO_STRING_ITERATOR -->
<g id="edge10" class="edge">
<title>INTF&#45;IF_XCO_STRING_ITERABLE&#45;&gt;INTF&#45;IF_XCO_STRING_ITERATOR</title>
<path fill="none" stroke="black" d="M370.26,-719.7C374.86,-711.64 380.43,-701.89 385.52,-692.98"/>
<polygon fill="black" stroke="black" points="388.67,-694.52 390.6,-684.1 382.6,-691.05 388.67,-694.52"/>
</g>
<!-- INTF&#45;IF_XCO_ITERATOR -->
<g id="node6" class="node">
<title>INTF&#45;IF_XCO_ITERATOR</title>
<g id="a_node6"><a xlink:href="./INTF_IF_XCO_ITERATOR.html" xlink:title="INTF&#45;IF_XCO_ITERATOR">
<polygon fill="none" stroke="green" points="488.83,-612 311.91,-612 311.91,-576 488.83,-576 488.83,-612"/>
<text text-anchor="middle" x="400.37" y="-589.8" font-family="Times,serif" font-size="14.00">INTF&#45;IF_XCO_ITERATOR</text>
</a>
</g>
</g>
<!-- INTF&#45;IF_XCO_STRING_ITERATOR&#45;&gt;INTF&#45;IF_XCO_ITERATOR -->
<g id="edge12" class="edge">
<title>INTF&#45;IF_XCO_STRING_ITERATOR&#45;&gt;INTF&#45;IF_XCO_ITERATOR</title>
<path fill="none" stroke="black" d="M400.37,-647.7C400.37,-639.98 400.37,-630.71 400.37,-622.11"/>
<polygon fill="black" stroke="black" points="403.87,-622.1 400.37,-612.1 396.87,-622.1 403.87,-622.1"/>
</g>
<!-- INTF&#45;IF_XCO_STRING_ITERATOR&#45;&gt;INTF&#45;IF_XCO_STRING -->
<g id="edge11" class="edge">
<title>INTF&#45;IF_XCO_STRING_ITERATOR&#45;&gt;INTF&#45;IF_XCO_STRING</title>
<path fill="none" stroke="black" d="M455.12,-647.97C486.97,-638.06 527.29,-625.51 560.69,-615.12"/>
<polygon fill="black" stroke="black" points="561.86,-618.42 570.37,-612.11 559.78,-611.74 561.86,-618.42"/>
</g>
<!-- INTF&#45;IF_XCO_STRING&#45;&gt;INTF&#45;IF_XCO_TEXT -->
<g id="edge19" class="edge">
<title>INTF&#45;IF_XCO_STRING&#45;&gt;INTF&#45;IF_XCO_TEXT</title>
<path fill="none" stroke="black" d="M704.7,-596.39C792.45,-602.71 930.15,-627.81 996.37,-720 1027.94,-763.95 981.19,-823.51 948.84,-856.48"/>
<polygon fill="black" stroke="black" points="946.02,-854.35 941.39,-863.88 950.95,-859.32 946.02,-854.35"/>
</g>
<!-- INTF&#45;IF_XCO_STRING&#45;&gt;INTF&#45;IF_XCO_STRINGS -->
<g id="edge13" class="edge">
<title>INTF&#45;IF_XCO_STRING&#45;&gt;INTF&#45;IF_XCO_STRINGS</title>
<path fill="none" stroke="black" d="M658.15,-612.13C692.02,-633.7 743.52,-673.6 773.37,-720 785.46,-738.79 792.65,-763.17 795.3,-781.66"/>
<polygon fill="black" stroke="black" points="791.84,-782.19 796.34,-791.78 798.8,-781.47 791.84,-782.19"/>
</g>
<!-- INTF&#45;IF_XCO_STRING&#45;&gt;INTF&#45;IF_XCO_STRING_ITERABLE -->
<g id="edge20" class="edge">
<title>INTF&#45;IF_XCO_STRING&#45;&gt;INTF&#45;IF_XCO_STRING_ITERABLE</title>
<path fill="none" stroke="black" d="M610.58,-612.12C592.54,-632.01 560.25,-664.57 526.37,-684 501.83,-698.07 473.06,-708.94 446.44,-717.06"/>
<polygon fill="black" stroke="black" points="445.34,-713.73 436.74,-719.93 447.32,-720.45 445.34,-713.73"/>
</g>
<!-- INTF&#45;IF_XCO_STRING&#45;&gt;INTF&#45;IF_XCO_NEWS -->
<g id="edge18" class="edge">
<title>INTF&#45;IF_XCO_STRING&#45;&gt;INTF&#45;IF_XCO_NEWS</title>
<path fill="none" stroke="black" d="M704.79,-577.77C759.94,-567.19 835.13,-552.76 901.37,-540 902.66,-539.75 903.96,-539.5 905.27,-539.25"/>
<polygon fill="black" stroke="black" points="906.27,-542.62 915.43,-537.29 904.95,-535.75 906.27,-542.62"/>
</g>
<!-- INTF&#45;IF_XCO_MESSAGE -->
<g id="node10" class="node">
<title>INTF&#45;IF_XCO_MESSAGE</title>
<g id="a_node10"><a xlink:href="./INTF_IF_XCO_MESSAGE.html" xlink:title="INTF&#45;IF_XCO_MESSAGE">
<polygon fill="none" stroke="green" points="976.95,-396 803.79,-396 803.79,-360 976.95,-360 976.95,-396"/>
<text text-anchor="middle" x="890.37" y="-373.8" font-family="Times,serif" font-size="14.00">INTF&#45;IF_XCO_MESSAGE</text>
</a>
</g>
</g>
<!-- INTF&#45;IF_XCO_STRING&#45;&gt;INTF&#45;IF_XCO_MESSAGE -->
<g id="edge15" class="edge">
<title>INTF&#45;IF_XCO_STRING&#45;&gt;INTF&#45;IF_XCO_MESSAGE</title>
<path fill="none" stroke="black" d="M704.55,-585.5C766.74,-577.89 846.39,-563.79 868.37,-540 901.86,-503.76 899.85,-441.89 895.23,-406.32"/>
<polygon fill="black" stroke="black" points="898.65,-405.57 893.74,-396.19 891.73,-406.59 898.65,-405.57"/>
</g>
<!-- INTF&#45;IF_XCO_XSTRING -->
<g id="node31" class="node">
<title>INTF&#45;IF_XCO_XSTRING</title>
<g id="a_node31"><a xlink:href="./INTF_IF_XCO_XSTRING.html" xlink:title="INTF&#45;IF_XCO_XSTRING">
<polygon fill="none" stroke="green" points="551.78,-540 382.96,-540 382.96,-504 551.78,-504 551.78,-540"/>
<text text-anchor="middle" x="467.37" y="-517.8" font-family="Times,serif" font-size="14.00">INTF&#45;IF_XCO_XSTRING</text>
</a>
</g>
</g>
<!-- INTF&#45;IF_XCO_STRING&#45;&gt;INTF&#45;IF_XCO_XSTRING -->
<g id="edge17" class="edge">
<title>INTF&#45;IF_XCO_STRING&#45;&gt;INTF&#45;IF_XCO_XSTRING</title>
<path fill="none" stroke="black" d="M580.82,-575.88C558.32,-566.35 531.24,-554.41 509.14,-544.28"/>
<polygon fill="black" stroke="black" points="510.55,-541.08 500,-540.07 507.62,-547.43 510.55,-541.08"/>
</g>
<!-- INTF&#45;IF_XCO_STRING_XSTRING_CNVRSN -->
<g id="node33" class="node">
<title>INTF&#45;IF_XCO_STRING_XSTRING_CNVRSN</title>
<g id="a_node33"><a xlink:href="./INTF_IF_XCO_STRING_XSTRING_CNVRSN.html" xlink:title="INTF&#45;IF_XCO_STRING_XSTRING_CNVRSN">
<polygon fill="none" stroke="green" points="859.1,-540 569.64,-540 569.64,-504 859.1,-504 859.1,-540"/>
<text text-anchor="middle" x="714.37" y="-517.8" font-family="Times,serif" font-size="14.00">INTF&#45;IF_XCO_STRING_XSTRING_CNVRSN</text>
</a>
</g>
</g>
<!-- INTF&#45;IF_XCO_STRING&#45;&gt;INTF&#45;IF_XCO_STRING_XSTRING_CNVRSN -->
<g id="edge16" class="edge">
<title>INTF&#45;IF_XCO_STRING&#45;&gt;INTF&#45;IF_XCO_STRING_XSTRING_CNVRSN</title>
<path fill="none" stroke="black" d="M647.37,-575.7C658.58,-566.88 672.37,-556.03 684.52,-546.47"/>
<polygon fill="black" stroke="black" points="686.93,-549.04 692.62,-540.1 682.6,-543.54 686.93,-549.04"/>
</g>
<!-- INTF&#45;IF_XCO_STRING_DECOMPOSITION -->
<g id="node34" class="node">
<title>INTF&#45;IF_XCO_STRING_DECOMPOSITION</title>
<g id="a_node34"><a xlink:href="./INTF_IF_XCO_STRING_DECOMPOSITION.html" xlink:title="INTF&#45;IF_XCO_STRING_DECOMPOSITION">
<polygon fill="none" stroke="green" points="364.98,-540 85.76,-540 85.76,-504 364.98,-504 364.98,-540"/>
<text text-anchor="middle" x="225.37" y="-517.8" font-family="Times,serif" font-size="14.00">INTF&#45;IF_XCO_STRING_DECOMPOSITION</text>
</a>
</g>
</g>
<!-- INTF&#45;IF_XCO_STRING&#45;&gt;INTF&#45;IF_XCO_STRING_DECOMPOSITION -->
<g id="edge14" class="edge">
<title>INTF&#45;IF_XCO_STRING&#45;&gt;INTF&#45;IF_XCO_STRING_DECOMPOSITION</title>
<path fill="none" stroke="black" d="M546.16,-580.08C483.17,-569.33 394.68,-553.88 326.56,-541.77"/>
<polygon fill="black" stroke="black" points="327.12,-538.31 316.67,-540.01 325.9,-545.21 327.12,-538.31"/>
</g>
<!-- TTYP&#45;SXCO_T_MESSAGES -->
<g id="node9" class="node">
<title>TTYP&#45;SXCO_T_MESSAGES</title>
<g id="a_node9"><a xlink:href="./TTYP_SXCO_T_MESSAGES.html" xlink:title="TTYP&#45;SXCO_T_MESSAGES">
<polygon fill="none" stroke="green" points="1141.52,-468 953.22,-468 953.22,-432 1141.52,-432 1141.52,-468"/>
<text text-anchor="middle" x="1047.37" y="-445.8" font-family="Times,serif" font-size="14.00">TTYP&#45;SXCO_T_MESSAGES</text>
</a>
</g>
</g>
<!-- INTF&#45;IF_XCO_NEWS&#45;&gt;TTYP&#45;SXCO_T_MESSAGES -->
<g id="edge21" class="edge">
<title>INTF&#45;IF_XCO_NEWS&#45;&gt;TTYP&#45;SXCO_T_MESSAGES</title>
<path fill="none" stroke="black" d="M1003.71,-503.7C1010.66,-495.3 1019.14,-485.07 1026.77,-475.86"/>
<polygon fill="black" stroke="black" points="1029.51,-478.04 1033.2,-468.1 1024.12,-473.57 1029.51,-478.04"/>
</g>
<!-- TTYP&#45;SXCO_T_MESSAGES&#45;&gt;INTF&#45;IF_XCO_MESSAGE -->
<g id="edge22" class="edge">
<title>TTYP&#45;SXCO_T_MESSAGES&#45;&gt;INTF&#45;IF_XCO_MESSAGE</title>
<path fill="none" stroke="black" d="M1008.96,-431.88C987.5,-422.31 960.57,-410.3 937.8,-400.15"/>
<polygon fill="black" stroke="black" points="939.21,-396.94 928.65,-396.07 936.36,-403.34 939.21,-396.94"/>
</g>
<!-- INTF&#45;IF_XCO_MESSAGE&#45;&gt;INTF&#45;IF_XCO_NEWS -->
<g id="edge31" class="edge">
<title>INTF&#45;IF_XCO_MESSAGE&#45;&gt;INTF&#45;IF_XCO_NEWS</title>
<path fill="none" stroke="black" d="M899.75,-396.24C909.96,-414.56 927.14,-444.1 944.37,-468 951.29,-477.6 959.5,-487.61 967.01,-496.32"/>
<polygon fill="black" stroke="black" points="964.43,-498.68 973.65,-503.9 969.69,-494.07 964.43,-498.68"/>
</g>
<!-- INTF&#45;IF_T100_DYN_MSG -->
<g id="node11" class="node">
<title>INTF&#45;IF_T100_DYN_MSG</title>
<g id="a_node11"><a xlink:href="./INTF_IF_T100_DYN_MSG.html" xlink:title="INTF&#45;IF_T100_DYN_MSG">
<polygon fill="none" stroke="green" points="826.28,-324 650.46,-324 650.46,-288 826.28,-288 826.28,-324"/>
<text text-anchor="middle" x="738.37" y="-301.8" font-family="Times,serif" font-size="14.00">INTF&#45;IF_T100_DYN_MSG</text>
</a>
</g>
</g>
<!-- INTF&#45;IF_XCO_MESSAGE&#45;&gt;INTF&#45;IF_T100_DYN_MSG -->
<g id="edge30" class="edge">
<title>INTF&#45;IF_XCO_MESSAGE&#45;&gt;INTF&#45;IF_T100_DYN_MSG</title>
<path fill="none" stroke="black" d="M853.19,-359.88C832.5,-350.35 806.57,-338.41 784.58,-328.28"/>
<polygon fill="black" stroke="black" points="785.98,-325.07 775.43,-324.07 783.05,-331.43 785.98,-325.07"/>
</g>
<!-- DTEL&#45;SYMSGNO -->
<g id="node16" class="node">
<title>DTEL&#45;SYMSGNO</title>
<g id="a_node16"><a xlink:href="./DTEL_SYMSGNO.html" xlink:title="DTEL&#45;SYMSGNO">
<polygon fill="none" stroke="green" points="898.73,-108 774.01,-108 774.01,-72 898.73,-72 898.73,-108"/>
<text text-anchor="middle" x="836.37" y="-85.8" font-family="Times,serif" font-size="14.00">DTEL&#45;SYMSGNO</text>
</a>
</g>
</g>
<!-- INTF&#45;IF_XCO_MESSAGE&#45;&gt;DTEL&#45;SYMSGNO -->
<g id="edge26" class="edge">
<title>INTF&#45;IF_XCO_MESSAGE&#45;&gt;DTEL&#45;SYMSGNO</title>
<path fill="none" stroke="black" d="M803.69,-371.37C735.72,-365.01 639.55,-351.67 559.37,-324 457.19,-288.74 402.56,-280.74 363.37,-180 357.57,-165.09 352.7,-155.93 363.37,-144 389.52,-114.76 637.18,-99.73 763.3,-93.93"/>
<polygon fill="black" stroke="black" points="763.81,-97.41 773.64,-93.46 763.5,-90.41 763.81,-97.41"/>
</g>
<!-- DTEL&#45;SYMSGID -->
<g id="node18" class="node">
<title>DTEL&#45;SYMSGID</title>
<g id="a_node18"><a xlink:href="./DTEL_SYMSGID.html" xlink:title="DTEL&#45;SYMSGID">
<polygon fill="none" stroke="green" points="1223.29,-108 1103.45,-108 1103.45,-72 1223.29,-72 1223.29,-108"/>
<text text-anchor="middle" x="1163.37" y="-85.8" font-family="Times,serif" font-size="14.00">DTEL&#45;SYMSGID</text>
</a>
</g>
</g>
<!-- INTF&#45;IF_XCO_MESSAGE&#45;&gt;DTEL&#45;SYMSGID -->
<g id="edge25" class="edge">
<title>INTF&#45;IF_XCO_MESSAGE&#45;&gt;DTEL&#45;SYMSGID</title>
<path fill="none" stroke="black" d="M917.31,-359.72C976.52,-321.18 1114.96,-227.87 1143.37,-180 1154.52,-161.22 1159.46,-136.84 1161.65,-118.35"/>
<polygon fill="black" stroke="black" points="1165.15,-118.52 1162.64,-108.22 1158.18,-117.83 1165.15,-118.52"/>
</g>
<!-- DTEL&#45;SYMSGTY -->
<g id="node20" class="node">
<title>DTEL&#45;SYMSGTY</title>
<g id="a_node20"><a xlink:href="./DTEL_SYMSGTY.html" xlink:title="DTEL&#45;SYMSGTY">
<polygon fill="none" stroke="green" points="562.18,-252 438.56,-252 438.56,-216 562.18,-216 562.18,-252"/>
<text text-anchor="middle" x="500.37" y="-229.8" font-family="Times,serif" font-size="14.00">DTEL&#45;SYMSGTY</text>
</a>
</g>
</g>
<!-- INTF&#45;IF_XCO_MESSAGE&#45;&gt;DTEL&#45;SYMSGTY -->
<g id="edge24" class="edge">
<title>INTF&#45;IF_XCO_MESSAGE&#45;&gt;DTEL&#45;SYMSGTY</title>
<path fill="none" stroke="black" d="M803.73,-369.16C750.32,-362.07 681.38,-348.75 624.37,-324 587.24,-307.88 550.28,-279.32 526.5,-258.89"/>
<polygon fill="black" stroke="black" points="528.79,-256.25 518.96,-252.31 524.19,-261.52 528.79,-256.25"/>
</g>
<!-- DTEL&#45;SYMSGV -->
<g id="node22" class="node">
<title>DTEL&#45;SYMSGV</title>
<g id="a_node22"><a xlink:href="./DTEL_SYMSGV.html" xlink:title="DTEL&#45;SYMSGV">
<polygon fill="none" stroke="green" points="694.62,-252 580.11,-252 580.11,-216 694.62,-216 694.62,-252"/>
<text text-anchor="middle" x="637.37" y="-229.8" font-family="Times,serif" font-size="14.00">DTEL&#45;SYMSGV</text>
</a>
</g>
</g>
<!-- INTF&#45;IF_XCO_MESSAGE&#45;&gt;DTEL&#45;SYMSGV -->
<g id="edge27" class="edge">
<title>INTF&#45;IF_XCO_MESSAGE&#45;&gt;DTEL&#45;SYMSGV</title>
<path fill="none" stroke="black" d="M803.51,-369.69C740.28,-362.39 662.23,-348.61 641.37,-324 627.2,-307.27 627.49,-281.78 630.58,-262.36"/>
<polygon fill="black" stroke="black" points="634.06,-262.77 632.51,-252.29 627.19,-261.46 634.06,-262.77"/>
</g>
<!-- INTF&#45;IF_XCO_MESSAGE_SHORT_TEXT -->
<g id="node24" class="node">
<title>INTF&#45;IF_XCO_MESSAGE_SHORT_TEXT</title>
<g id="a_node24"><a xlink:href="./INTF_IF_XCO_MESSAGE_SHORT_TEXT.html" xlink:title="INTF&#45;IF_XCO_MESSAGE_SHORT_TEXT">
<polygon fill="none" stroke="green" points="1303.6,-324 1035.14,-324 1035.14,-288 1303.6,-288 1303.6,-324"/>
<text text-anchor="middle" x="1169.37" y="-301.8" font-family="Times,serif" font-size="14.00">INTF&#45;IF_XCO_MESSAGE_SHORT_TEXT</text>
</a>
</g>
</g>
<!-- INTF&#45;IF_XCO_MESSAGE&#45;&gt;INTF&#45;IF_XCO_MESSAGE_SHORT_TEXT -->
<g id="edge29" class="edge">
<title>INTF&#45;IF_XCO_MESSAGE&#45;&gt;INTF&#45;IF_XCO_MESSAGE_SHORT_TEXT</title>
<path fill="none" stroke="black" d="M952.38,-359.97C991.57,-349.87 1042.65,-337.03 1085.44,-326.52"/>
<polygon fill="black" stroke="black" points="1086.4,-329.89 1095.28,-324.11 1084.73,-323.09 1086.4,-329.89"/>
</g>
<!-- CLAS&#45;CL_XCO_MESSAGE_TYPE -->
<g id="node28" class="node">
<title>CLAS&#45;CL_XCO_MESSAGE_TYPE</title>
<g id="a_node28"><a xlink:href="./CLAS_CL_XCO_MESSAGE_TYPE.html" xlink:title="CLAS&#45;CL_XCO_MESSAGE_TYPE">
<polygon fill="none" stroke="green" points="316.07,-324 90.67,-324 90.67,-288 316.07,-288 316.07,-324"/>
<text text-anchor="middle" x="203.37" y="-301.8" font-family="Times,serif" font-size="14.00">CLAS&#45;CL_XCO_MESSAGE_TYPE</text>
</a>
</g>
</g>
<!-- INTF&#45;IF_XCO_MESSAGE&#45;&gt;CLAS&#45;CL_XCO_MESSAGE_TYPE -->
<g id="edge28" class="edge">
<title>INTF&#45;IF_XCO_MESSAGE&#45;&gt;CLAS&#45;CL_XCO_MESSAGE_TYPE</title>
<path fill="none" stroke="black" d="M803.46,-368.18C776.81,-365.51 747.38,-362.6 720.37,-360 547.1,-343.34 503.34,-343.55 330.37,-324 329.06,-323.85 327.75,-323.7 326.43,-323.55"/>
<polygon fill="black" stroke="black" points="326.55,-320.04 316.21,-322.35 325.73,-326.99 326.55,-320.04"/>
</g>
<!-- TABL&#45;SYMSG -->
<g id="node30" class="node">
<title>TABL&#45;SYMSG</title>
<g id="a_node30"><a xlink:href="./TABL_SYMSG.html" xlink:title="TABL&#45;SYMSG">
<polygon fill="none" stroke="green" points="949.3,-324 843.44,-324 843.44,-288 949.3,-288 949.3,-324"/>
<text text-anchor="middle" x="896.37" y="-301.8" font-family="Times,serif" font-size="14.00">TABL&#45;SYMSG</text>
</a>
</g>
</g>
<!-- INTF&#45;IF_XCO_MESSAGE&#45;&gt;TABL&#45;SYMSG -->
<g id="edge23" class="edge">
<title>INTF&#45;IF_XCO_MESSAGE&#45;&gt;TABL&#45;SYMSG</title>
<path fill="none" stroke="black" d="M891.85,-359.7C892.51,-351.98 893.31,-342.71 894.05,-334.11"/>
<polygon fill="black" stroke="black" points="897.54,-334.37 894.9,-324.1 890.56,-333.77 897.54,-334.37"/>
</g>
<!-- INTF&#45;IF_T100_MESSAGE -->
<g id="node12" class="node">
<title>INTF&#45;IF_T100_MESSAGE</title>
<g id="a_node12"><a xlink:href="./INTF_IF_T100_MESSAGE.html" xlink:title="INTF&#45;IF_T100_MESSAGE">
<polygon fill="none" stroke="green" points="923.96,-252 750.78,-252 750.78,-216 923.96,-216 923.96,-252"/>
<text text-anchor="middle" x="837.37" y="-229.8" font-family="Times,serif" font-size="14.00">INTF&#45;IF_T100_MESSAGE</text>
</a>
</g>
</g>
<!-- INTF&#45;IF_T100_DYN_MSG&#45;&gt;INTF&#45;IF_T100_MESSAGE -->
<g id="edge35" class="edge">
<title>INTF&#45;IF_T100_DYN_MSG&#45;&gt;INTF&#45;IF_T100_MESSAGE</title>
<path fill="none" stroke="black" d="M762.59,-287.88C775.29,-278.89 791.03,-267.76 804.79,-258.03"/>
<polygon fill="black" stroke="black" points="806.91,-260.82 813.06,-252.19 802.87,-255.11 806.91,-260.82"/>
</g>
<!-- INTF&#45;IF_MESSAGE -->
<g id="node13" class="node">
<title>INTF&#45;IF_MESSAGE</title>
<g id="a_node13"><a xlink:href="./INTF_IF_MESSAGE.html" xlink:title="INTF&#45;IF_MESSAGE">
<polygon fill="none" stroke="green" points="812.4,-180 676.33,-180 676.33,-144 812.4,-144 812.4,-180"/>
<text text-anchor="middle" x="744.37" y="-157.8" font-family="Times,serif" font-size="14.00">INTF&#45;IF_MESSAGE</text>
</a>
</g>
</g>
<!-- INTF&#45;IF_T100_DYN_MSG&#45;&gt;INTF&#45;IF_MESSAGE -->
<g id="edge34" class="edge">
<title>INTF&#45;IF_T100_DYN_MSG&#45;&gt;INTF&#45;IF_MESSAGE</title>
<path fill="none" stroke="black" d="M738.83,-287.93C739.34,-270.01 740.24,-241.02 741.37,-216 741.75,-207.68 742.23,-198.63 742.7,-190.4"/>
<polygon fill="black" stroke="black" points="746.21,-190.37 743.3,-180.18 739.22,-189.96 746.21,-190.37"/>
</g>
<!-- INTF&#45;IF_T100_DYN_MSG&#45;&gt;DTEL&#45;SYMSGTY -->
<g id="edge33" class="edge">
<title>INTF&#45;IF_T100_DYN_MSG&#45;&gt;DTEL&#45;SYMSGTY</title>
<path fill="none" stroke="black" d="M680.45,-287.97C646.62,-278.01 603.75,-265.41 568.33,-254.99"/>
<polygon fill="black" stroke="black" points="569.13,-251.57 558.55,-252.11 567.15,-258.29 569.13,-251.57"/>
</g>
<!-- INTF&#45;IF_T100_DYN_MSG&#45;&gt;DTEL&#45;SYMSGV -->
<g id="edge32" class="edge">
<title>INTF&#45;IF_T100_DYN_MSG&#45;&gt;DTEL&#45;SYMSGV</title>
<path fill="none" stroke="black" d="M713.66,-287.88C700.7,-278.89 684.64,-267.76 670.6,-258.03"/>
<polygon fill="black" stroke="black" points="672.38,-255.01 662.17,-252.19 668.4,-260.76 672.38,-255.01"/>
</g>
<!-- INTF&#45;IF_T100_MESSAGE&#45;&gt;INTF&#45;IF_MESSAGE -->
<g id="edge40" class="edge">
<title>INTF&#45;IF_T100_MESSAGE&#45;&gt;INTF&#45;IF_MESSAGE</title>
<path fill="none" stroke="black" d="M814.38,-215.7C802.56,-206.8 787.98,-195.82 775.19,-186.2"/>
<polygon fill="black" stroke="black" points="777.19,-183.32 767.09,-180.1 772.98,-188.91 777.19,-183.32"/>
</g>
<!-- TABL&#45;SCX_T100KEY -->
<g id="node14" class="node">
<title>TABL&#45;SCX_T100KEY</title>
<g id="a_node14"><a xlink:href="./TABL_SCX_T100KEY.html" xlink:title="TABL&#45;SCX_T100KEY">
<polygon fill="none" stroke="yellow" points="1056.12,-180 906.62,-180 906.62,-144 1056.12,-144 1056.12,-180"/>
<text text-anchor="middle" x="981.37" y="-157.8" font-family="Times,serif" font-size="14.00">TABL&#45;SCX_T100KEY</text>
</a>
</g>
</g>
<!-- INTF&#45;IF_T100_MESSAGE&#45;&gt;TABL&#45;SCX_T100KEY -->
<g id="edge39" class="edge">
<title>INTF&#45;IF_T100_MESSAGE&#45;&gt;TABL&#45;SCX_T100KEY</title>
<path fill="none" stroke="black" d="M872.6,-215.88C891.95,-206.47 916.14,-194.71 936.8,-184.67"/>
<polygon fill="black" stroke="black" points="938.54,-187.71 946.01,-180.19 935.48,-181.41 938.54,-187.71"/>
</g>
<!-- DTEL&#45;SCX_ATTRNAME -->
<g id="node15" class="node">
<title>DTEL&#45;SCX_ATTRNAME</title>
<g id="a_node15"><a xlink:href="./DTEL_SCX_ATTRNAME.html" xlink:title="DTEL&#45;SCX_ATTRNAME">
<polygon fill="none" stroke="green" points="1085.78,-108 916.96,-108 916.96,-72 1085.78,-72 1085.78,-108"/>
<text text-anchor="middle" x="1001.37" y="-85.8" font-family="Times,serif" font-size="14.00">DTEL&#45;SCX_ATTRNAME</text>
</a>
</g>
</g>
<!-- INTF&#45;IF_T100_MESSAGE&#45;&gt;DTEL&#45;SCX_ATTRNAME -->
<g id="edge38" class="edge">
<title>INTF&#45;IF_T100_MESSAGE&#45;&gt;DTEL&#45;SCX_ATTRNAME</title>
<path fill="none" stroke="black" d="M924.18,-223.98C980.91,-216.09 1047.65,-202.32 1065.37,-180 1075.32,-167.47 1072.18,-158.48 1065.37,-144 1059.85,-132.26 1050.3,-122.22 1040.25,-114.15"/>
<polygon fill="black" stroke="black" points="1042.25,-111.27 1032.14,-108.09 1038.06,-116.88 1042.25,-111.27"/>
</g>
<!-- INTF&#45;IF_T100_MESSAGE&#45;&gt;DTEL&#45;SYMSGNO -->
<g id="edge37" class="edge">
<title>INTF&#45;IF_T100_MESSAGE&#45;&gt;DTEL&#45;SYMSGNO</title>
<path fill="none" stroke="black" d="M837.25,-215.87C837.08,-191.67 836.77,-147.21 836.56,-118.39"/>
<polygon fill="black" stroke="black" points="840.06,-118.16 836.49,-108.19 833.06,-118.21 840.06,-118.16"/>
</g>
<!-- INTF&#45;IF_T100_MESSAGE&#45;&gt;DTEL&#45;SYMSGID -->
<g id="edge36" class="edge">
<title>INTF&#45;IF_T100_MESSAGE&#45;&gt;DTEL&#45;SYMSGID</title>
<path fill="none" stroke="black" d="M923.96,-227.32C973.09,-221.01 1034.2,-207.76 1082.37,-180 1109.33,-164.46 1132.34,-136.87 1146.87,-116.52"/>
<polygon fill="black" stroke="black" points="1149.94,-118.24 1152.75,-108.02 1144.18,-114.25 1149.94,-118.24"/>
</g>
<!-- TABL&#45;SCX_T100KEY&#45;&gt;DTEL&#45;SCX_ATTRNAME -->
<g id="edge43" class="edge">
<title>TABL&#45;SCX_T100KEY&#45;&gt;DTEL&#45;SCX_ATTRNAME</title>
<path fill="none" stroke="black" d="M986.31,-143.7C988.54,-135.9 991.22,-126.51 993.7,-117.83"/>
<polygon fill="black" stroke="black" points="997.1,-118.68 996.48,-108.1 990.37,-116.76 997.1,-118.68"/>
</g>
<!-- TABL&#45;SCX_T100KEY&#45;&gt;DTEL&#45;SYMSGNO -->
<g id="edge42" class="edge">
<title>TABL&#45;SCX_T100KEY&#45;&gt;DTEL&#45;SYMSGNO</title>
<path fill="none" stroke="black" d="M945.9,-143.88C926.25,-134.39 901.65,-122.51 880.74,-112.42"/>
<polygon fill="black" stroke="black" points="882.25,-109.26 871.73,-108.07 879.21,-115.57 882.25,-109.26"/>
</g>
<!-- TABL&#45;SCX_T100KEY&#45;&gt;DTEL&#45;SYMSGID -->
<g id="edge41" class="edge">
<title>TABL&#45;SCX_T100KEY&#45;&gt;DTEL&#45;SYMSGID</title>
<path fill="none" stroke="black" d="M1025.89,-143.88C1051.1,-134.18 1082.82,-121.98 1109.44,-111.74"/>
<polygon fill="black" stroke="black" points="1110.91,-114.92 1118.99,-108.07 1108.4,-108.39 1110.91,-114.92"/>
</g>
<!-- DOMA&#45;SYMSGNO -->
<g id="node17" class="node">
<title>DOMA&#45;SYMSGNO</title>
<g id="a_node17"><a xlink:href="./DOMA_SYMSGNO.html" xlink:title="DOMA&#45;SYMSGNO">
<polygon fill="none" stroke="yellow" points="902.23,-36 770.51,-36 770.51,0 902.23,0 902.23,-36"/>
<text text-anchor="middle" x="836.37" y="-13.8" font-family="Times,serif" font-size="14.00">DOMA&#45;SYMSGNO</text>
</a>
</g>
</g>
<!-- DTEL&#45;SYMSGNO&#45;&gt;DOMA&#45;SYMSGNO -->
<g id="edge44" class="edge">
<title>DTEL&#45;SYMSGNO&#45;&gt;DOMA&#45;SYMSGNO</title>
<path fill="none" stroke="black" d="M836.37,-71.7C836.37,-63.98 836.37,-54.71 836.37,-46.11"/>
<polygon fill="black" stroke="black" points="839.87,-46.1 836.37,-36.1 832.87,-46.1 839.87,-46.1"/>
</g>
<!-- DOMA&#45;ARBGB -->
<g id="node19" class="node">
<title>DOMA&#45;ARBGB</title>
<g id="a_node19"><a xlink:href="./DOMA_ARBGB.html" xlink:title="DOMA&#45;ARBGB">
<polygon fill="none" stroke="yellow" points="1219.02,-36 1107.72,-36 1107.72,0 1219.02,0 1219.02,-36"/>
<text text-anchor="middle" x="1163.37" y="-13.8" font-family="Times,serif" font-size="14.00">DOMA&#45;ARBGB</text>
</a>
</g>
</g>
<!-- DTEL&#45;SYMSGID&#45;&gt;DOMA&#45;ARBGB -->
<g id="edge45" class="edge">
<title>DTEL&#45;SYMSGID&#45;&gt;DOMA&#45;ARBGB</title>
<path fill="none" stroke="black" d="M1163.37,-71.7C1163.37,-63.98 1163.37,-54.71 1163.37,-46.11"/>
<polygon fill="black" stroke="black" points="1166.87,-46.1 1163.37,-36.1 1159.87,-46.1 1166.87,-46.1"/>
</g>
<!-- DOMA&#45;SYCHAR01 -->
<g id="node21" class="node">
<title>DOMA&#45;SYCHAR01</title>
<g id="a_node21"><a xlink:href="./DOMA_SYCHAR01.html" xlink:title="DOMA&#45;SYCHAR01">
<polygon fill="none" stroke="yellow" points="506.57,-180 372.17,-180 372.17,-144 506.57,-144 506.57,-180"/>
<text text-anchor="middle" x="439.37" y="-157.8" font-family="Times,serif" font-size="14.00">DOMA&#45;SYCHAR01</text>
</a>
</g>
</g>
<!-- DTEL&#45;SYMSGTY&#45;&gt;DOMA&#45;SYCHAR01 -->
<g id="edge46" class="edge">
<title>DTEL&#45;SYMSGTY&#45;&gt;DOMA&#45;SYCHAR01</title>
<path fill="none" stroke="black" d="M485.29,-215.7C477.98,-207.3 469.06,-197.07 461.03,-187.86"/>
<polygon fill="black" stroke="black" points="463.48,-185.34 454.27,-180.1 458.21,-189.94 463.48,-185.34"/>
</g>
<!-- DOMA&#45;SYCHAR50 -->
<g id="node23" class="node">
<title>DOMA&#45;SYCHAR50</title>
<g id="a_node23"><a xlink:href="./DOMA_SYCHAR50.html" xlink:title="DOMA&#45;SYCHAR50">
<polygon fill="none" stroke="yellow" points="658.57,-180 524.17,-180 524.17,-144 658.57,-144 658.57,-180"/>
<text text-anchor="middle" x="591.37" y="-157.8" font-family="Times,serif" font-size="14.00">DOMA&#45;SYCHAR50</text>
</a>
</g>
</g>
<!-- DTEL&#45;SYMSGV&#45;&gt;DOMA&#45;SYCHAR50 -->
<g id="edge47" class="edge">
<title>DTEL&#45;SYMSGV&#45;&gt;DOMA&#45;SYCHAR50</title>
<path fill="none" stroke="black" d="M626,-215.7C620.65,-207.56 614.17,-197.69 608.26,-188.7"/>
<polygon fill="black" stroke="black" points="611.03,-186.54 602.61,-180.1 605.18,-190.38 611.03,-186.54"/>
</g>
<!-- INTF&#45;IF_XCO_MESSAGE_SHORT_TEXT&#45;&gt;INTF&#45;IF_XCO_TEXT -->
<g id="edge49" class="edge">
<title>INTF&#45;IF_XCO_MESSAGE_SHORT_TEXT&#45;&gt;INTF&#45;IF_XCO_TEXT</title>
<path fill="none" stroke="black" d="M1169.37,-324.05C1169.37,-350.71 1169.37,-403.89 1169.37,-449 1169.37,-739 1169.37,-739 1169.37,-739 1169.37,-816.83 1076.06,-852.63 1004.14,-868.66"/>
<polygon fill="black" stroke="black" points="1003.19,-865.29 994.14,-870.8 1004.65,-872.13 1003.19,-865.29"/>
</g>
<!-- INTF&#45;IF_XCO_MESSAGE_SHORT_TEXT&#45;&gt;INTF&#45;IF_XCO_MESSAGE -->
<g id="edge48" class="edge">
<title>INTF&#45;IF_XCO_MESSAGE_SHORT_TEXT&#45;&gt;INTF&#45;IF_XCO_MESSAGE</title>
<path fill="none" stroke="black" d="M1107.07,-324.11C1067.82,-334.22 1016.72,-347.06 973.98,-357.56"/>
<polygon fill="black" stroke="black" points="973.03,-354.19 964.15,-359.97 974.7,-360.99 973.03,-354.19"/>
</g>
<!-- INTF&#45;IF_XCO_L10N_TEXT -->
<g id="node25" class="node">
<title>INTF&#45;IF_XCO_L10N_TEXT</title>
<g id="a_node25"><a xlink:href="./INTF_IF_XCO_L10N_TEXT.html" xlink:title="INTF&#45;IF_XCO_L10N_TEXT">
<polygon fill="none" stroke="yellow" points="1419.05,-252 1235.69,-252 1235.69,-216 1419.05,-216 1419.05,-252"/>
<text text-anchor="middle" x="1327.37" y="-229.8" font-family="Times,serif" font-size="14.00">INTF&#45;IF_XCO_L10N_TEXT</text>
</a>
</g>
</g>
<!-- INTF&#45;IF_XCO_MESSAGE_SHORT_TEXT&#45;&gt;INTF&#45;IF_XCO_L10N_TEXT -->
<g id="edge50" class="edge">
<title>INTF&#45;IF_XCO_MESSAGE_SHORT_TEXT&#45;&gt;INTF&#45;IF_XCO_L10N_TEXT</title>
<path fill="none" stroke="black" d="M1208.02,-287.88C1229.62,-278.31 1256.72,-266.3 1279.64,-256.15"/>
<polygon fill="black" stroke="black" points="1281.12,-259.32 1288.84,-252.07 1278.28,-252.92 1281.12,-259.32"/>
</g>
<!-- INTF&#45;IF_XCO_L10N_TEXT&#45;&gt;INTF&#45;IF_XCO_TEXT -->
<g id="edge52" class="edge">
<title>INTF&#45;IF_XCO_L10N_TEXT&#45;&gt;INTF&#45;IF_XCO_TEXT</title>
<path fill="none" stroke="black" d="M1328.16,-252.04C1329.33,-278.7 1331.37,-331.87 1331.37,-377 1331.37,-739 1331.37,-739 1331.37,-739 1331.37,-807.56 1123.66,-850.52 1004.29,-869.55"/>
<polygon fill="black" stroke="black" points="1003.42,-866.14 994.08,-871.15 1004.5,-873.05 1003.42,-866.14"/>
</g>
<!-- DTEL&#45;SPRAS -->
<g id="node26" class="node">
<title>DTEL&#45;SPRAS</title>
<g id="a_node26"><a xlink:href="./DTEL_SPRAS.html" xlink:title="DTEL&#45;SPRAS">
<polygon fill="none" stroke="green" points="1377.09,-180 1277.65,-180 1277.65,-144 1377.09,-144 1377.09,-180"/>
<text text-anchor="middle" x="1327.37" y="-157.8" font-family="Times,serif" font-size="14.00">DTEL&#45;SPRAS</text>
</a>
</g>
</g>
<!-- INTF&#45;IF_XCO_L10N_TEXT&#45;&gt;DTEL&#45;SPRAS -->
<g id="edge51" class="edge">
<title>INTF&#45;IF_XCO_L10N_TEXT&#45;&gt;DTEL&#45;SPRAS</title>
<path fill="none" stroke="black" d="M1327.37,-215.7C1327.37,-207.98 1327.37,-198.71 1327.37,-190.11"/>
<polygon fill="black" stroke="black" points="1330.87,-190.1 1327.37,-180.1 1323.87,-190.1 1330.87,-190.1"/>
</g>
<!-- DOMA&#45;SPRAS -->
<g id="node27" class="node">
<title>DOMA&#45;SPRAS</title>
<g id="a_node27"><a xlink:href="./DOMA_SPRAS.html" xlink:title="DOMA&#45;SPRAS">
<polygon fill="none" stroke="green" points="1380.59,-108 1274.15,-108 1274.15,-72 1380.59,-72 1380.59,-108"/>
<text text-anchor="middle" x="1327.37" y="-85.8" font-family="Times,serif" font-size="14.00">DOMA&#45;SPRAS</text>
</a>
</g>
</g>
<!-- DTEL&#45;SPRAS&#45;&gt;DOMA&#45;SPRAS -->
<g id="edge53" class="edge">
<title>DTEL&#45;SPRAS&#45;&gt;DOMA&#45;SPRAS</title>
<path fill="none" stroke="black" d="M1327.37,-143.7C1327.37,-135.98 1327.37,-126.71 1327.37,-118.11"/>
<polygon fill="black" stroke="black" points="1330.87,-118.1 1327.37,-108.1 1323.87,-118.1 1330.87,-118.1"/>
</g>
<!-- CLAS&#45;CL_XCO_MESSAGE_TYPE&#45;&gt;INTF&#45;IF_XCO_NEWS -->
<g id="edge56" class="edge">
<title>CLAS&#45;CL_XCO_MESSAGE_TYPE&#45;&gt;INTF&#45;IF_XCO_NEWS</title>
<path fill="none" stroke="black" d="M265.91,-324.03C409.84,-363.21 763.86,-459.6 916.92,-501.27"/>
<polygon fill="black" stroke="black" points="916.14,-504.69 926.71,-503.94 917.98,-497.94 916.14,-504.69"/>
</g>
<!-- CLAS&#45;CL_XCO_MESSAGE_TYPE&#45;&gt;DTEL&#45;SYMSGTY -->
<g id="edge54" class="edge">
<title>CLAS&#45;CL_XCO_MESSAGE_TYPE&#45;&gt;DTEL&#45;SYMSGTY</title>
<path fill="none" stroke="black" d="M275.64,-287.97C322.03,-277.03 382.04,-262.89 428.38,-251.97"/>
<polygon fill="black" stroke="black" points="429.41,-255.32 438.34,-249.62 427.81,-248.51 429.41,-255.32"/>
</g>
<!-- CLAS&#45;CL_XCO_ENUM_CONSTANT -->
<g id="node29" class="node">
<title>CLAS&#45;CL_XCO_ENUM_CONSTANT</title>
<g id="a_node29"><a xlink:href="./CLAS_CL_XCO_ENUM_CONSTANT.html" xlink:title="CLAS&#45;CL_XCO_ENUM_CONSTANT">
<polygon fill="none" stroke="yellow" points="240.61,-252 0.13,-252 0.13,-216 240.61,-216 240.61,-252"/>
<text text-anchor="middle" x="120.37" y="-229.8" font-family="Times,serif" font-size="14.00">CLAS&#45;CL_XCO_ENUM_CONSTANT</text>
</a>
</g>
</g>
<!-- CLAS&#45;CL_XCO_MESSAGE_TYPE&#45;&gt;CLAS&#45;CL_XCO_ENUM_CONSTANT -->
<g id="edge55" class="edge">
<title>CLAS&#45;CL_XCO_MESSAGE_TYPE&#45;&gt;CLAS&#45;CL_XCO_ENUM_CONSTANT</title>
<path fill="none" stroke="black" d="M182.85,-287.7C172.5,-278.97 159.78,-268.24 148.53,-258.75"/>
<polygon fill="black" stroke="black" points="150.55,-255.88 140.65,-252.1 146.04,-261.23 150.55,-255.88"/>
</g>
<!-- CLAS&#45;CL_XCO_ENUM_CONSTANT&#45;&gt;INTF&#45;IF_XCO_PRINTABLE -->
<g id="edge57" class="edge">
<title>CLAS&#45;CL_XCO_ENUM_CONSTANT&#45;&gt;INTF&#45;IF_XCO_PRINTABLE</title>
<path fill="none" stroke="black" d="M105.25,-252.09C97.16,-261.99 87.62,-275.03 81.37,-288 63.59,-324.91 57.37,-336.03 57.37,-377 57.37,-811 57.37,-811 57.37,-811 57.37,-887.48 590.68,-931.4 819.79,-946.75"/>
<polygon fill="black" stroke="black" points="819.59,-950.24 829.8,-947.41 820.05,-943.26 819.59,-950.24"/>
</g>
<!-- TABL&#45;SYMSG&#45;&gt;DTEL&#45;SYMSGNO -->
<g id="edge61" class="edge">
<title>TABL&#45;SYMSG&#45;&gt;DTEL&#45;SYMSGNO</title>
<path fill="none" stroke="black" d="M912.41,-287.85C920.38,-278.12 929.19,-265.27 933.37,-252 938.17,-236.74 939.49,-230.78 933.37,-216 924.71,-195.09 911.83,-197.41 897.37,-180 880.58,-159.78 863.87,-135 852.2,-116.72"/>
<polygon fill="black" stroke="black" points="855.03,-114.65 846.74,-108.07 849.11,-118.39 855.03,-114.65"/>
</g>
<!-- TABL&#45;SYMSG&#45;&gt;DTEL&#45;SYMSGID -->
<g id="edge60" class="edge">
<title>TABL&#45;SYMSG&#45;&gt;DTEL&#45;SYMSGID</title>
<path fill="none" stroke="black" d="M942.94,-287.99C991.56,-268.28 1067.53,-231.75 1117.37,-180 1134.45,-162.26 1146.7,-136.93 1154.25,-117.82"/>
<polygon fill="black" stroke="black" points="1157.62,-118.8 1157.86,-108.21 1151.07,-116.34 1157.62,-118.8"/>
</g>
<!-- TABL&#45;SYMSG&#45;&gt;DTEL&#45;SYMSGTY -->
<g id="edge59" class="edge">
<title>TABL&#45;SYMSG&#45;&gt;DTEL&#45;SYMSGTY</title>
<path fill="none" stroke="black" d="M843.58,-289.81C840.81,-289.17 838.06,-288.56 835.37,-288 722.57,-264.7 689.56,-273.31 572.34,-252.06"/>
<polygon fill="black" stroke="black" points="572.72,-248.57 562.25,-250.2 571.45,-255.46 572.72,-248.57"/>
</g>
<!-- TABL&#45;SYMSG&#45;&gt;DTEL&#45;SYMSGV -->
<g id="edge62" class="edge">
<title>TABL&#45;SYMSG&#45;&gt;DTEL&#45;SYMSGV</title>
<path fill="none" stroke="black" d="M843.48,-290.22C840.74,-289.47 838.02,-288.72 835.37,-288 792.04,-276.16 743.31,-263.12 705.03,-252.93"/>
<polygon fill="black" stroke="black" points="705.59,-249.46 695.03,-250.27 703.79,-256.22 705.59,-249.46"/>
</g>
<!-- INTF&#45;IF_XCO_XSTRING&#45;&gt;INTF&#45;IF_XCO_STRING -->
<g id="edge64" class="edge">
<title>INTF&#45;IF_XCO_XSTRING&#45;&gt;INTF&#45;IF_XCO_STRING</title>
<path fill="none" stroke="black" d="M511.79,-540.07C534.27,-549.59 561.35,-561.53 583.47,-571.66"/>
<polygon fill="black" stroke="black" points="582.07,-574.87 592.62,-575.88 585,-568.51 582.07,-574.87"/>
</g>
<!-- INTF&#45;IF_XCO_XSTRING_STRING_CNVRSN -->
<g id="node32" class="node">
<title>INTF&#45;IF_XCO_XSTRING_STRING_CNVRSN</title>
<g id="a_node32"><a xlink:href="./INTF_IF_XCO_XSTRING_STRING_CNVRSN.html" xlink:title="INTF&#45;IF_XCO_XSTRING_STRING_CNVRSN">
<polygon fill="none" stroke="green" points="612.1,-468 322.64,-468 322.64,-432 612.1,-432 612.1,-468"/>
<text text-anchor="middle" x="467.37" y="-445.8" font-family="Times,serif" font-size="14.00">INTF&#45;IF_XCO_XSTRING_STRING_CNVRSN</text>
</a>
</g>
</g>
<!-- INTF&#45;IF_XCO_XSTRING&#45;&gt;INTF&#45;IF_XCO_XSTRING_STRING_CNVRSN -->
<g id="edge63" class="edge">
<title>INTF&#45;IF_XCO_XSTRING&#45;&gt;INTF&#45;IF_XCO_XSTRING_STRING_CNVRSN</title>
<path fill="none" stroke="black" d="M467.37,-503.7C467.37,-495.98 467.37,-486.71 467.37,-478.11"/>
<polygon fill="black" stroke="black" points="470.87,-478.1 467.37,-468.1 463.87,-478.1 470.87,-478.1"/>
</g>
<!-- INTF&#45;IF_XCO_STRING_DECOMPOSITION&#45;&gt;INTF&#45;IF_XCO_STRINGS -->
<g id="edge66" class="edge">
<title>INTF&#45;IF_XCO_STRING_DECOMPOSITION&#45;&gt;INTF&#45;IF_XCO_STRINGS</title>
<path fill="none" stroke="black" d="M219.5,-540.2C206.05,-583.16 178.36,-695.95 235.37,-756 266.59,-788.88 548.55,-801.99 698.9,-806.68"/>
<polygon fill="black" stroke="black" points="698.95,-810.18 709.05,-806.99 699.17,-803.19 698.95,-810.18"/>
</g>
<!-- INTF&#45;IF_XCO_STRING_DECOMPOSITION&#45;&gt;INTF&#45;IF_XCO_STRING -->
<g id="edge65" class="edge">
<title>INTF&#45;IF_XCO_STRING_DECOMPOSITION&#45;&gt;INTF&#45;IF_XCO_STRING</title>
<path fill="none" stroke="black" d="M328.63,-540.04C392.89,-551.08 474.66,-565.39 536.11,-576.36"/>
<polygon fill="black" stroke="black" points="535.72,-579.84 546.18,-578.15 536.95,-572.95 535.72,-579.84"/>
</g>
<!-- INTF&#45;IF_XCO_STRING_COMPOSITION&#45;&gt;INTF&#45;IF_XCO_STRINGS -->
<g id="edge67" class="edge">
<title>INTF&#45;IF_XCO_STRING_COMPOSITION&#45;&gt;INTF&#45;IF_XCO_STRINGS</title>
<path fill="none" stroke="black" d="M671.98,-756.07C695.79,-765.63 724.56,-777.63 748.04,-787.79"/>
<polygon fill="black" stroke="black" points="746.85,-791.09 757.41,-791.88 749.64,-784.67 746.85,-791.09"/>
</g>
<!-- INTF&#45;IF_XCO_STRING_COMPOSITION&#45;&gt;INTF&#45;IF_XCO_STRING -->
<g id="edge68" class="edge">
<title>INTF&#45;IF_XCO_STRING_COMPOSITION&#45;&gt;INTF&#45;IF_XCO_STRING</title>
<path fill="none" stroke="black" d="M625.37,-719.87C625.37,-695.67 625.37,-651.21 625.37,-622.39"/>
<polygon fill="black" stroke="black" points="628.87,-622.19 625.37,-612.19 621.87,-622.19 628.87,-622.19"/>
</g>
<!-- DOMA&#45;INT4 -->
<g id="node38" class="node">
<title>DOMA&#45;INT4</title>
<g id="a_node38"><a xlink:href="./DOMA_INT4.html" xlink:title="DOMA&#45;INT4">
<polygon fill="none" stroke="yellow" points="188.11,-684 94.62,-684 94.62,-648 188.11,-648 188.11,-684"/>
<text text-anchor="middle" x="141.37" y="-661.8" font-family="Times,serif" font-size="14.00">DOMA&#45;INT4</text>
</a>
</g>
</g>
<!-- DTEL&#45;INT4&#45;&gt;DOMA&#45;INT4 -->
<g id="edge69" class="edge">
<title>DTEL&#45;INT4&#45;&gt;DOMA&#45;INT4</title>
<path fill="none" stroke="black" d="M142.88,-719.7C142.65,-711.98 142.39,-702.71 142.14,-694.11"/>
<polygon fill="black" stroke="black" points="145.64,-694 141.86,-684.1 138.65,-694.2 145.64,-694"/>
</g>
</g>
</svg>
