<?xml version="1.0" encoding="UTF-8" standalone="no"?>
<!DOCTYPE svg PUBLIC "-//W3C//DTD SVG 1.1//EN"
 "http://www.w3.org/Graphics/SVG/1.1/DTD/svg11.dtd">
<!-- Generated by graphviz version 2.47.3 (20210619.1520)
 -->
<!-- Title: G Pages: 1 -->
<svg width="440pt" height="116pt"
 viewBox="0.00 0.00 439.52 116.00" xmlns="http://www.w3.org/2000/svg" xmlns:xlink="http://www.w3.org/1999/xlink">
<g id="graph0" class="graph" transform="scale(1 1) rotate(0) translate(4 112)">
<title>G</title>
<polygon fill="white" stroke="transparent" points="-4,4 -4,-112 435.52,-112 435.52,4 -4,4"/>
<!-- INTF&#45;IF_PROXY_BASIS -->
<g id="node1" class="node">
<title>INTF&#45;IF_PROXY_BASIS</title>
<polygon fill="none" stroke="yellow" points="318.29,-108 152.66,-108 152.66,-72 318.29,-72 318.29,-108"/>
<text text-anchor="middle" x="235.48" y="-85.8" font-family="Times,serif" font-size="14.00">INTF&#45;IF_PROXY_BASIS</text>
</g>
<!-- INTF&#45;IF_WS_TRANSPORT_BINDING -->
<g id="node2" class="node">
<title>INTF&#45;IF_WS_TRANSPORT_BINDING</title>
<g id="a_node2"><a xlink:href="./INTF_IF_WS_TRANSPORT_BINDING.html" xlink:title="INTF&#45;IF_WS_TRANSPORT_BINDING">
<polygon fill="none" stroke="green" points="246.93,-36 0.02,-36 0.02,0 246.93,0 246.93,-36"/>
<text text-anchor="middle" x="123.48" y="-13.8" font-family="Times,serif" font-size="14.00">INTF&#45;IF_WS_TRANSPORT_BINDING</text>
</a>
</g>
</g>
<!-- INTF&#45;IF_PROXY_BASIS&#45;&gt;INTF&#45;IF_WS_TRANSPORT_BINDING -->
<g id="edge2" class="edge">
<title>INTF&#45;IF_PROXY_BASIS&#45;&gt;INTF&#45;IF_WS_TRANSPORT_BINDING</title>
<path fill="none" stroke="black" d="M208.08,-71.88C193.57,-62.81 175.56,-51.55 159.89,-41.76"/>
<polygon fill="black" stroke="black" points="161.31,-38.52 150.98,-36.19 157.6,-44.46 161.31,-38.52"/>
</g>
<!-- INTF&#45;IF_WSPROTOCOL -->
<g id="node3" class="node">
<title>INTF&#45;IF_WSPROTOCOL</title>
<g id="a_node3"><a xlink:href="./INTF_IF_WSPROTOCOL.html" xlink:title="INTF&#45;IF_WSPROTOCOL">
<polygon fill="none" stroke="green" points="431.56,-36 265.39,-36 265.39,0 431.56,0 431.56,-36"/>
<text text-anchor="middle" x="348.48" y="-13.8" font-family="Times,serif" font-size="14.00">INTF&#45;IF_WSPROTOCOL</text>
</a>
</g>
</g>
<!-- INTF&#45;IF_PROXY_BASIS&#45;&gt;INTF&#45;IF_WSPROTOCOL -->
<g id="edge1" class="edge">
<title>INTF&#45;IF_PROXY_BASIS&#45;&gt;INTF&#45;IF_WSPROTOCOL</title>
<path fill="none" stroke="black" d="M263.12,-71.88C277.89,-62.72 296.27,-51.34 312.18,-41.48"/>
<polygon fill="black" stroke="black" points="314.07,-44.43 320.73,-36.19 310.38,-38.48 314.07,-44.43"/>
</g>
</g>
</svg>
