<?xml version="1.0" encoding="UTF-8" standalone="no"?>
<!DOCTYPE svg PUBLIC "-//W3C//DTD SVG 1.1//EN"
 "http://www.w3.org/Graphics/SVG/1.1/DTD/svg11.dtd">
<!-- Generated by graphviz version 2.47.3 (20210619.1520)
 -->
<!-- Title: G Pages: 1 -->
<svg width="928pt" height="476pt"
 viewBox="0.00 0.00 928.50 476.00" xmlns="http://www.w3.org/2000/svg" xmlns:xlink="http://www.w3.org/1999/xlink">
<g id="graph0" class="graph" transform="scale(1 1) rotate(0) translate(4 472)">
<title>G</title>
<polygon fill="white" stroke="transparent" points="-4,4 -4,-472 924.5,-472 924.5,4 -4,4"/>
<!-- INTF&#45;/IWBEP/IF_CP_HTTP_CLIENT -->
<g id="node1" class="node">
<title>INTF&#45;/IWBEP/IF_CP_HTTP_CLIENT</title>
<polygon fill="none" stroke="yellow" points="835.45,-468 596.63,-468 596.63,-432 835.45,-432 835.45,-468"/>
<text text-anchor="middle" x="716.04" y="-445.8" font-family="Times,serif" font-size="14.00">INTF&#45;/IWBEP/IF_CP_HTTP_CLIENT</text>
</g>
<!-- INTF&#45;/IWCOR/IF_REST_RESPONSE -->
<g id="node2" class="node">
<title>INTF&#45;/IWCOR/IF_REST_RESPONSE</title>
<g id="a_node2"><a xlink:href="./INTF_%23IWCOR%23IF_REST_RESPONSE.html" xlink:title="INTF&#45;/IWCOR/IF_REST_RESPONSE">
<polygon fill="none" stroke="yellow" points="546.41,-396 309.67,-396 309.67,-360 546.41,-360 546.41,-396"/>
<text text-anchor="middle" x="428.04" y="-373.8" font-family="Times,serif" font-size="14.00">INTF&#45;/IWCOR/IF_REST_RESPONSE</text>
</a>
</g>
</g>
<!-- INTF&#45;/IWBEP/IF_CP_HTTP_CLIENT&#45;&gt;INTF&#45;/IWCOR/IF_REST_RESPONSE -->
<g id="edge3" class="edge">
<title>INTF&#45;/IWBEP/IF_CP_HTTP_CLIENT&#45;&gt;INTF&#45;/IWCOR/IF_REST_RESPONSE</title>
<path fill="none" stroke="black" d="M645.96,-431.97C604.4,-421.87 551.59,-409.03 508.36,-398.52"/>
<polygon fill="black" stroke="black" points="508.98,-395.07 498.44,-396.11 507.33,-401.87 508.98,-395.07"/>
</g>
<!-- TTYP&#45;TIHTTPNVP -->
<g id="node10" class="node">
<title>TTYP&#45;TIHTTPNVP</title>
<g id="a_node10"><a xlink:href="./TTYP_TIHTTPNVP.html" xlink:title="TTYP&#45;TIHTTPNVP">
<polygon fill="none" stroke="green" points="726.9,-180 595.18,-180 595.18,-144 726.9,-144 726.9,-180"/>
<text text-anchor="middle" x="661.04" y="-157.8" font-family="Times,serif" font-size="14.00">TTYP&#45;TIHTTPNVP</text>
</a>
</g>
</g>
<!-- INTF&#45;/IWBEP/IF_CP_HTTP_CLIENT&#45;&gt;TTYP&#45;TIHTTPNVP -->
<g id="edge1" class="edge">
<title>INTF&#45;/IWBEP/IF_CP_HTTP_CLIENT&#45;&gt;TTYP&#45;TIHTTPNVP</title>
<path fill="none" stroke="black" d="M770.16,-432C841.18,-406.64 952.24,-354.66 911.04,-288 873.36,-227.03 795.93,-194.8 737.17,-178.45"/>
<polygon fill="black" stroke="black" points="737.74,-174.98 727.17,-175.77 735.93,-181.74 737.74,-174.98"/>
</g>
<!-- INTF&#45;/IWCOR/IF_REST_REQUEST -->
<g id="node18" class="node">
<title>INTF&#45;/IWCOR/IF_REST_REQUEST</title>
<g id="a_node18"><a xlink:href="./INTF_%23IWCOR%23IF_REST_REQUEST.html" xlink:title="INTF&#45;/IWCOR/IF_REST_REQUEST">
<polygon fill="none" stroke="yellow" points="830.9,-396 601.18,-396 601.18,-360 830.9,-360 830.9,-396"/>
<text text-anchor="middle" x="716.04" y="-373.8" font-family="Times,serif" font-size="14.00">INTF&#45;/IWCOR/IF_REST_REQUEST</text>
</a>
</g>
</g>
<!-- INTF&#45;/IWBEP/IF_CP_HTTP_CLIENT&#45;&gt;INTF&#45;/IWCOR/IF_REST_REQUEST -->
<g id="edge2" class="edge">
<title>INTF&#45;/IWBEP/IF_CP_HTTP_CLIENT&#45;&gt;INTF&#45;/IWCOR/IF_REST_REQUEST</title>
<path fill="none" stroke="black" d="M716.04,-431.7C716.04,-423.98 716.04,-414.71 716.04,-406.11"/>
<polygon fill="black" stroke="black" points="719.54,-406.1 716.04,-396.1 712.54,-406.1 719.54,-406.1"/>
</g>
<!-- INTF&#45;/IWCOR/IF_REST_ENTITY -->
<g id="node3" class="node">
<title>INTF&#45;/IWCOR/IF_REST_ENTITY</title>
<g id="a_node3"><a xlink:href="./INTF_%23IWCOR%23IF_REST_ENTITY.html" xlink:title="INTF&#45;/IWCOR/IF_REST_ENTITY">
<polygon fill="none" stroke="yellow" points="444.94,-252 227.14,-252 227.14,-216 444.94,-216 444.94,-252"/>
<text text-anchor="middle" x="336.04" y="-229.8" font-family="Times,serif" font-size="14.00">INTF&#45;/IWCOR/IF_REST_ENTITY</text>
</a>
</g>
</g>
<!-- INTF&#45;/IWCOR/IF_REST_RESPONSE&#45;&gt;INTF&#45;/IWCOR/IF_REST_ENTITY -->
<g id="edge7" class="edge">
<title>INTF&#45;/IWCOR/IF_REST_RESPONSE&#45;&gt;INTF&#45;/IWCOR/IF_REST_ENTITY</title>
<path fill="none" stroke="black" d="M416.94,-359.87C400.99,-335.24 371.44,-289.64 352.81,-260.88"/>
<polygon fill="black" stroke="black" points="355.55,-258.68 347.18,-252.19 349.68,-262.48 355.55,-258.68"/>
</g>
<!-- INTF&#45;/IWCOR/IF_REST_RESPONSE&#45;&gt;TTYP&#45;TIHTTPNVP -->
<g id="edge5" class="edge">
<title>INTF&#45;/IWCOR/IF_REST_RESPONSE&#45;&gt;TTYP&#45;TIHTTPNVP</title>
<path fill="none" stroke="black" d="M427.73,-359.96C428.2,-340.74 431.58,-309.38 447.04,-288 484.16,-236.69 549.34,-203.06 598.04,-183.74"/>
<polygon fill="black" stroke="black" points="599.48,-186.94 607.54,-180.07 596.95,-180.41 599.48,-186.94"/>
</g>
<!-- INTF&#45;/IWCOR/IF_REST_MESSAGE -->
<g id="node14" class="node">
<title>INTF&#45;/IWCOR/IF_REST_MESSAGE</title>
<g id="a_node14"><a xlink:href="./INTF_%23IWCOR%23IF_REST_MESSAGE.html" xlink:title="INTF&#45;/IWCOR/IF_REST_MESSAGE">
<polygon fill="none" stroke="yellow" points="688.24,-324 455.84,-324 455.84,-288 688.24,-288 688.24,-324"/>
<text text-anchor="middle" x="572.04" y="-301.8" font-family="Times,serif" font-size="14.00">INTF&#45;/IWCOR/IF_REST_MESSAGE</text>
</a>
</g>
</g>
<!-- INTF&#45;/IWCOR/IF_REST_RESPONSE&#45;&gt;INTF&#45;/IWCOR/IF_REST_MESSAGE -->
<g id="edge6" class="edge">
<title>INTF&#45;/IWCOR/IF_REST_RESPONSE&#45;&gt;INTF&#45;/IWCOR/IF_REST_MESSAGE</title>
<path fill="none" stroke="black" d="M463.27,-359.88C482.62,-350.47 506.81,-338.71 527.47,-328.67"/>
<polygon fill="black" stroke="black" points="529.21,-331.71 536.68,-324.19 526.15,-325.41 529.21,-331.71"/>
</g>
<!-- TABL&#45;/IWCOR/REST_ETAG_S -->
<g id="node15" class="node">
<title>TABL&#45;/IWCOR/REST_ETAG_S</title>
<g id="a_node15"><a xlink:href="./TABL_%23IWCOR%23REST_ETAG_S.html" xlink:title="TABL&#45;/IWCOR/REST_ETAG_S">
<polygon fill="none" stroke="yellow" points="315.51,-324 110.57,-324 110.57,-288 315.51,-288 315.51,-324"/>
<text text-anchor="middle" x="213.04" y="-301.8" font-family="Times,serif" font-size="14.00">TABL&#45;/IWCOR/REST_ETAG_S</text>
</a>
</g>
</g>
<!-- INTF&#45;/IWCOR/IF_REST_RESPONSE&#45;&gt;TABL&#45;/IWCOR/REST_ETAG_S -->
<g id="edge4" class="edge">
<title>INTF&#45;/IWCOR/IF_REST_RESPONSE&#45;&gt;TABL&#45;/IWCOR/REST_ETAG_S</title>
<path fill="none" stroke="black" d="M375.72,-359.97C345.42,-350.1 307.09,-337.62 275.25,-327.25"/>
<polygon fill="black" stroke="black" points="276.19,-323.88 265.59,-324.11 274.02,-330.53 276.19,-323.88"/>
</g>
<!-- DTEL&#45;VSCAN_PROFILE -->
<g id="node4" class="node">
<title>DTEL&#45;VSCAN_PROFILE</title>
<g id="a_node4"><a xlink:href="./DTEL_VSCAN_PROFILE.html" xlink:title="DTEL&#45;VSCAN_PROFILE">
<polygon fill="none" stroke="yellow" points="575.68,-180 408.4,-180 408.4,-144 575.68,-144 575.68,-180"/>
<text text-anchor="middle" x="492.04" y="-157.8" font-family="Times,serif" font-size="14.00">DTEL&#45;VSCAN_PROFILE</text>
</a>
</g>
</g>
<!-- INTF&#45;/IWCOR/IF_REST_ENTITY&#45;&gt;DTEL&#45;VSCAN_PROFILE -->
<g id="edge11" class="edge">
<title>INTF&#45;/IWCOR/IF_REST_ENTITY&#45;&gt;DTEL&#45;VSCAN_PROFILE</title>
<path fill="none" stroke="black" d="M374.2,-215.88C395.43,-206.35 422.05,-194.41 444.61,-184.28"/>
<polygon fill="black" stroke="black" points="446.31,-187.36 454,-180.07 443.45,-180.97 446.31,-187.36"/>
</g>
<!-- DTEL&#45;TIMESTAMP -->
<g id="node6" class="node">
<title>DTEL&#45;TIMESTAMP</title>
<g id="a_node6"><a xlink:href="./DTEL_TIMESTAMP.html" xlink:title="DTEL&#45;TIMESTAMP">
<polygon fill="none" stroke="green" points="265.84,-180 128.24,-180 128.24,-144 265.84,-144 265.84,-180"/>
<text text-anchor="middle" x="197.04" y="-157.8" font-family="Times,serif" font-size="14.00">DTEL&#45;TIMESTAMP</text>
</a>
</g>
</g>
<!-- INTF&#45;/IWCOR/IF_REST_ENTITY&#45;&gt;DTEL&#45;TIMESTAMP -->
<g id="edge10" class="edge">
<title>INTF&#45;/IWCOR/IF_REST_ENTITY&#45;&gt;DTEL&#45;TIMESTAMP</title>
<path fill="none" stroke="black" d="M302.04,-215.88C283.44,-206.51 260.21,-194.81 240.33,-184.8"/>
<polygon fill="black" stroke="black" points="241.68,-181.56 231.17,-180.19 238.53,-187.81 241.68,-181.56"/>
</g>
<!-- DTEL&#45;LANGU -->
<g id="node8" class="node">
<title>DTEL&#45;LANGU</title>
<g id="a_node8"><a xlink:href="./DTEL_LANGU.html" xlink:title="DTEL&#45;LANGU">
<polygon fill="none" stroke="yellow" points="388.94,-180 283.14,-180 283.14,-144 388.94,-144 388.94,-180"/>
<text text-anchor="middle" x="336.04" y="-157.8" font-family="Times,serif" font-size="14.00">DTEL&#45;LANGU</text>
</a>
</g>
</g>
<!-- INTF&#45;/IWCOR/IF_REST_ENTITY&#45;&gt;DTEL&#45;LANGU -->
<g id="edge9" class="edge">
<title>INTF&#45;/IWCOR/IF_REST_ENTITY&#45;&gt;DTEL&#45;LANGU</title>
<path fill="none" stroke="black" d="M336.04,-215.7C336.04,-207.98 336.04,-198.71 336.04,-190.11"/>
<polygon fill="black" stroke="black" points="339.54,-190.1 336.04,-180.1 332.54,-190.1 339.54,-190.1"/>
</g>
<!-- INTF&#45;/IWCOR/IF_REST_ENTITY&#45;&gt;TTYP&#45;TIHTTPNVP -->
<g id="edge8" class="edge">
<title>INTF&#45;/IWCOR/IF_REST_ENTITY&#45;&gt;TTYP&#45;TIHTTPNVP</title>
<path fill="none" stroke="black" d="M417.11,-215.97C465.81,-205.68 529.01,-192.23 585.04,-180 585.14,-179.98 585.25,-179.95 585.35,-179.93"/>
<polygon fill="black" stroke="black" points="586.12,-183.35 595.14,-177.78 584.62,-176.51 586.12,-183.35"/>
</g>
<!-- DOMA&#45;VSCAN_PROFILE -->
<g id="node5" class="node">
<title>DOMA&#45;VSCAN_PROFILE</title>
<g id="a_node5"><a xlink:href="./DOMA_VSCAN_PROFILE.html" xlink:title="DOMA&#45;VSCAN_PROFILE">
<polygon fill="none" stroke="yellow" points="581.18,-108 406.9,-108 406.9,-72 581.18,-72 581.18,-108"/>
<text text-anchor="middle" x="494.04" y="-85.8" font-family="Times,serif" font-size="14.00">DOMA&#45;VSCAN_PROFILE</text>
</a>
</g>
</g>
<!-- DTEL&#45;VSCAN_PROFILE&#45;&gt;DOMA&#45;VSCAN_PROFILE -->
<g id="edge12" class="edge">
<title>DTEL&#45;VSCAN_PROFILE&#45;&gt;DOMA&#45;VSCAN_PROFILE</title>
<path fill="none" stroke="black" d="M492.53,-143.7C492.75,-135.98 493.02,-126.71 493.27,-118.11"/>
<polygon fill="black" stroke="black" points="496.76,-118.2 493.55,-108.1 489.77,-118 496.76,-118.2"/>
</g>
<!-- DOMA&#45;TZNTSTMPS -->
<g id="node7" class="node">
<title>DOMA&#45;TZNTSTMPS</title>
<g id="a_node7"><a xlink:href="./DOMA_TZNTSTMPS.html" xlink:title="DOMA&#45;TZNTSTMPS">
<polygon fill="none" stroke="yellow" points="264.58,-108 121.5,-108 121.5,-72 264.58,-72 264.58,-108"/>
<text text-anchor="middle" x="193.04" y="-85.8" font-family="Times,serif" font-size="14.00">DOMA&#45;TZNTSTMPS</text>
</a>
</g>
</g>
<!-- DTEL&#45;TIMESTAMP&#45;&gt;DOMA&#45;TZNTSTMPS -->
<g id="edge13" class="edge">
<title>DTEL&#45;TIMESTAMP&#45;&gt;DOMA&#45;TZNTSTMPS</title>
<path fill="none" stroke="black" d="M196.05,-143.7C195.61,-135.98 195.08,-126.71 194.59,-118.11"/>
<polygon fill="black" stroke="black" points="198.08,-117.89 194.02,-108.1 191.09,-118.29 198.08,-117.89"/>
</g>
<!-- DOMA&#45;SPRAS -->
<g id="node9" class="node">
<title>DOMA&#45;SPRAS</title>
<g id="a_node9"><a xlink:href="./DOMA_SPRAS.html" xlink:title="DOMA&#45;SPRAS">
<polygon fill="none" stroke="green" points="389.26,-108 282.82,-108 282.82,-72 389.26,-72 389.26,-108"/>
<text text-anchor="middle" x="336.04" y="-85.8" font-family="Times,serif" font-size="14.00">DOMA&#45;SPRAS</text>
</a>
</g>
</g>
<!-- DTEL&#45;LANGU&#45;&gt;DOMA&#45;SPRAS -->
<g id="edge14" class="edge">
<title>DTEL&#45;LANGU&#45;&gt;DOMA&#45;SPRAS</title>
<path fill="none" stroke="black" d="M336.04,-143.7C336.04,-135.98 336.04,-126.71 336.04,-118.11"/>
<polygon fill="black" stroke="black" points="339.54,-118.1 336.04,-108.1 332.54,-118.1 339.54,-118.1"/>
</g>
<!-- TABL&#45;IHTTPNVP -->
<g id="node11" class="node">
<title>TABL&#45;IHTTPNVP</title>
<g id="a_node11"><a xlink:href="./TABL_IHTTPNVP.html" xlink:title="TABL&#45;IHTTPNVP">
<polygon fill="none" stroke="yellow" points="724.4,-108 599.68,-108 599.68,-72 724.4,-72 724.4,-108"/>
<text text-anchor="middle" x="662.04" y="-85.8" font-family="Times,serif" font-size="14.00">TABL&#45;IHTTPNVP</text>
</a>
</g>
</g>
<!-- TTYP&#45;TIHTTPNVP&#45;&gt;TABL&#45;IHTTPNVP -->
<g id="edge15" class="edge">
<title>TTYP&#45;TIHTTPNVP&#45;&gt;TABL&#45;IHTTPNVP</title>
<path fill="none" stroke="black" d="M661.29,-143.7C661.4,-135.98 661.53,-126.71 661.65,-118.11"/>
<polygon fill="black" stroke="black" points="665.15,-118.15 661.8,-108.1 658.15,-118.05 665.15,-118.15"/>
</g>
<!-- DTEL&#45;IHTTPVAL -->
<g id="node12" class="node">
<title>DTEL&#45;IHTTPVAL</title>
<g id="a_node12"><a xlink:href="./DTEL_IHTTPVAL.html" xlink:title="DTEL&#45;IHTTPVAL">
<polygon fill="none" stroke="yellow" points="651.39,-36 526.69,-36 526.69,0 651.39,0 651.39,-36"/>
<text text-anchor="middle" x="589.04" y="-13.8" font-family="Times,serif" font-size="14.00">DTEL&#45;IHTTPVAL</text>
</a>
</g>
</g>
<!-- TABL&#45;IHTTPNVP&#45;&gt;DTEL&#45;IHTTPVAL -->
<g id="edge17" class="edge">
<title>TABL&#45;IHTTPNVP&#45;&gt;DTEL&#45;IHTTPVAL</title>
<path fill="none" stroke="black" d="M644,-71.7C634.98,-63.05 623.92,-52.45 614.1,-43.03"/>
<polygon fill="black" stroke="black" points="616.52,-40.5 606.88,-36.1 611.67,-45.55 616.52,-40.5"/>
</g>
<!-- DTEL&#45;IHTTPNAM -->
<g id="node13" class="node">
<title>DTEL&#45;IHTTPNAM</title>
<g id="a_node13"><a xlink:href="./DTEL_IHTTPNAM.html" xlink:title="DTEL&#45;IHTTPNAM">
<polygon fill="none" stroke="yellow" points="798.28,-36 669.8,-36 669.8,0 798.28,0 798.28,-36"/>
<text text-anchor="middle" x="734.04" y="-13.8" font-family="Times,serif" font-size="14.00">DTEL&#45;IHTTPNAM</text>
</a>
</g>
</g>
<!-- TABL&#45;IHTTPNVP&#45;&gt;DTEL&#45;IHTTPNAM -->
<g id="edge16" class="edge">
<title>TABL&#45;IHTTPNVP&#45;&gt;DTEL&#45;IHTTPNAM</title>
<path fill="none" stroke="black" d="M679.84,-71.7C688.64,-63.14 699.42,-52.66 709.04,-43.3"/>
<polygon fill="black" stroke="black" points="711.72,-45.58 716.45,-36.1 706.84,-40.57 711.72,-45.58"/>
</g>
<!-- INTF&#45;/IWCOR/IF_REST_MESSAGE&#45;&gt;INTF&#45;/IWCOR/IF_REST_ENTITY -->
<g id="edge19" class="edge">
<title>INTF&#45;/IWCOR/IF_REST_MESSAGE&#45;&gt;INTF&#45;/IWCOR/IF_REST_ENTITY</title>
<path fill="none" stroke="black" d="M514.61,-287.97C481.06,-278.01 438.55,-265.41 403.43,-254.99"/>
<polygon fill="black" stroke="black" points="404.31,-251.6 393.73,-252.11 402.32,-258.31 404.31,-251.6"/>
</g>
<!-- INTF&#45;/IWCOR/IF_REST_MESSAGE&#45;&gt;TTYP&#45;TIHTTPNVP -->
<g id="edge18" class="edge">
<title>INTF&#45;/IWCOR/IF_REST_MESSAGE&#45;&gt;TTYP&#45;TIHTTPNVP</title>
<path fill="none" stroke="black" d="M582.78,-287.87C598.21,-263.24 626.8,-217.64 644.82,-188.88"/>
<polygon fill="black" stroke="black" points="647.92,-190.52 650.27,-180.19 641.99,-186.8 647.92,-190.52"/>
</g>
<!-- DTEL&#45;BOOLE_D -->
<g id="node16" class="node">
<title>DTEL&#45;BOOLE_D</title>
<g id="a_node16"><a xlink:href="./DTEL_BOOLE_D.html" xlink:title="DTEL&#45;BOOLE_D">
<polygon fill="none" stroke="yellow" points="162.23,-252 41.85,-252 41.85,-216 162.23,-216 162.23,-252"/>
<text text-anchor="middle" x="102.04" y="-229.8" font-family="Times,serif" font-size="14.00">DTEL&#45;BOOLE_D</text>
</a>
</g>
</g>
<!-- TABL&#45;/IWCOR/REST_ETAG_S&#45;&gt;DTEL&#45;BOOLE_D -->
<g id="edge20" class="edge">
<title>TABL&#45;/IWCOR/REST_ETAG_S&#45;&gt;DTEL&#45;BOOLE_D</title>
<path fill="none" stroke="black" d="M185.89,-287.88C171.51,-278.81 153.66,-267.55 138.13,-257.76"/>
<polygon fill="black" stroke="black" points="139.62,-254.56 129.3,-252.19 135.89,-260.48 139.62,-254.56"/>
</g>
<!-- DOMA&#45;BOOLE -->
<g id="node17" class="node">
<title>DOMA&#45;BOOLE</title>
<g id="a_node17"><a xlink:href="./DOMA_BOOLE.html" xlink:title="DOMA&#45;BOOLE">
<polygon fill="none" stroke="yellow" points="110.12,-180 -0.04,-180 -0.04,-144 110.12,-144 110.12,-180"/>
<text text-anchor="middle" x="55.04" y="-157.8" font-family="Times,serif" font-size="14.00">DOMA&#45;BOOLE</text>
</a>
</g>
</g>
<!-- DTEL&#45;BOOLE_D&#45;&gt;DOMA&#45;BOOLE -->
<g id="edge21" class="edge">
<title>DTEL&#45;BOOLE_D&#45;&gt;DOMA&#45;BOOLE</title>
<path fill="none" stroke="black" d="M90.42,-215.7C84.9,-207.47 78.19,-197.48 72.11,-188.42"/>
<polygon fill="black" stroke="black" points="75,-186.46 66.52,-180.1 69.19,-190.36 75,-186.46"/>
</g>
<!-- INTF&#45;/IWCOR/IF_REST_REQUEST&#45;&gt;TTYP&#45;TIHTTPNVP -->
<g id="edge22" class="edge">
<title>INTF&#45;/IWCOR/IF_REST_REQUEST&#45;&gt;TTYP&#45;TIHTTPNVP</title>
<path fill="none" stroke="black" d="M712.75,-359.86C709.21,-341.87 703.26,-312.83 697.04,-288 688.51,-253.92 677.05,-215.1 669.37,-189.89"/>
<polygon fill="black" stroke="black" points="672.71,-188.82 666.43,-180.29 666.02,-190.87 672.71,-188.82"/>
</g>
<!-- INTF&#45;/IWCOR/IF_REST_REQUEST&#45;&gt;INTF&#45;/IWCOR/IF_REST_MESSAGE -->
<g id="edge24" class="edge">
<title>INTF&#45;/IWCOR/IF_REST_REQUEST&#45;&gt;INTF&#45;/IWCOR/IF_REST_MESSAGE</title>
<path fill="none" stroke="black" d="M680.81,-359.88C661.46,-350.47 637.27,-338.71 616.61,-328.67"/>
<polygon fill="black" stroke="black" points="617.93,-325.41 607.4,-324.19 614.87,-331.71 617.93,-325.41"/>
</g>
<!-- TTYP&#45;STRING_TABLE -->
<g id="node19" class="node">
<title>TTYP&#45;STRING_TABLE</title>
<g id="a_node19"><a xlink:href="./TTYP_STRING_TABLE.html" xlink:title="TTYP&#45;STRING_TABLE">
<polygon fill="none" stroke="green" points="902.34,-324 743.74,-324 743.74,-288 902.34,-288 902.34,-324"/>
<text text-anchor="middle" x="823.04" y="-301.8" font-family="Times,serif" font-size="14.00">TTYP&#45;STRING_TABLE</text>
</a>
</g>
</g>
<!-- INTF&#45;/IWCOR/IF_REST_REQUEST&#45;&gt;TTYP&#45;STRING_TABLE -->
<g id="edge23" class="edge">
<title>INTF&#45;/IWCOR/IF_REST_REQUEST&#45;&gt;TTYP&#45;STRING_TABLE</title>
<path fill="none" stroke="black" d="M742.22,-359.88C756.08,-350.81 773.28,-339.55 788.25,-329.76"/>
<polygon fill="black" stroke="black" points="790.31,-332.59 796.76,-324.19 786.48,-326.74 790.31,-332.59"/>
</g>
</g>
</svg>
