<?xml version="1.0" encoding="UTF-8" standalone="no"?>
<!DOCTYPE svg PUBLIC "-//W3C//DTD SVG 1.1//EN"
 "http://www.w3.org/Graphics/SVG/1.1/DTD/svg11.dtd">
<!-- Generated by graphviz version 2.47.3 (20210619.1520)
 -->
<!-- Title: G Pages: 1 -->
<svg width="594pt" height="188pt"
 viewBox="0.00 0.00 593.90 188.00" xmlns="http://www.w3.org/2000/svg" xmlns:xlink="http://www.w3.org/1999/xlink">
<g id="graph0" class="graph" transform="scale(1 1) rotate(0) translate(4 184)">
<title>G</title>
<polygon fill="white" stroke="transparent" points="-4,4 -4,-184 589.9,-184 589.9,4 -4,4"/>
<!-- INTF&#45;IF_XCO_GEN_AO_S_FO_S_EXCEPTION -->
<g id="node1" class="node">
<title>INTF&#45;IF_XCO_GEN_AO_S_FO_S_EXCEPTION</title>
<polygon fill="none" stroke="green" points="450.43,-180 147.53,-180 147.53,-144 450.43,-144 450.43,-180"/>
<text text-anchor="middle" x="298.98" y="-157.8" font-family="Times,serif" font-size="14.00">INTF&#45;IF_XCO_GEN_AO_S_FO_S_EXCEPTION</text>
</g>
<!-- INTF&#45;IF_XCO_GEN_AO_S_FO_SUBCOMPNT -->
<g id="node2" class="node">
<title>INTF&#45;IF_XCO_GEN_AO_S_FO_SUBCOMPNT</title>
<g id="a_node2"><a xlink:href="./INTF_IF_XCO_GEN_AO_S_FO_SUBCOMPNT.html" xlink:title="INTF&#45;IF_XCO_GEN_AO_S_FO_SUBCOMPNT">
<polygon fill="none" stroke="yellow" points="295.94,-108 0.02,-108 0.02,-72 295.94,-72 295.94,-108"/>
<text text-anchor="middle" x="147.98" y="-85.8" font-family="Times,serif" font-size="14.00">INTF&#45;IF_XCO_GEN_AO_S_FO_SUBCOMPNT</text>
</a>
</g>
</g>
<!-- INTF&#45;IF_XCO_GEN_AO_S_FO_S_EXCEPTION&#45;&gt;INTF&#45;IF_XCO_GEN_AO_S_FO_SUBCOMPNT -->
<g id="edge2" class="edge">
<title>INTF&#45;IF_XCO_GEN_AO_S_FO_S_EXCEPTION&#45;&gt;INTF&#45;IF_XCO_GEN_AO_S_FO_SUBCOMPNT</title>
<path fill="none" stroke="black" d="M262.04,-143.88C241.49,-134.35 215.73,-122.41 193.89,-112.28"/>
<polygon fill="black" stroke="black" points="195.34,-109.1 184.8,-108.07 192.4,-115.45 195.34,-109.1"/>
</g>
<!-- DTEL&#45;SXCO_AO_SHORT_DESCRIPTION -->
<g id="node4" class="node">
<title>DTEL&#45;SXCO_AO_SHORT_DESCRIPTION</title>
<g id="a_node4"><a xlink:href="./DTEL_SXCO_AO_SHORT_DESCRIPTION.html" xlink:title="DTEL&#45;SXCO_AO_SHORT_DESCRIPTION">
<polygon fill="none" stroke="green" points="585.82,-108 314.14,-108 314.14,-72 585.82,-72 585.82,-108"/>
<text text-anchor="middle" x="449.98" y="-85.8" font-family="Times,serif" font-size="14.00">DTEL&#45;SXCO_AO_SHORT_DESCRIPTION</text>
</a>
</g>
</g>
<!-- INTF&#45;IF_XCO_GEN_AO_S_FO_S_EXCEPTION&#45;&gt;DTEL&#45;SXCO_AO_SHORT_DESCRIPTION -->
<g id="edge1" class="edge">
<title>INTF&#45;IF_XCO_GEN_AO_S_FO_S_EXCEPTION&#45;&gt;DTEL&#45;SXCO_AO_SHORT_DESCRIPTION</title>
<path fill="none" stroke="black" d="M335.92,-143.88C356.47,-134.35 382.23,-122.41 404.07,-112.28"/>
<polygon fill="black" stroke="black" points="405.56,-115.45 413.16,-108.07 402.62,-109.1 405.56,-115.45"/>
</g>
<!-- DTEL&#45;SXCO_AO_SUBCOMPONENT_NAME -->
<g id="node3" class="node">
<title>DTEL&#45;SXCO_AO_SUBCOMPONENT_NAME</title>
<g id="a_node3"><a xlink:href="./DTEL_SXCO_AO_SUBCOMPONENT_NAME.html" xlink:title="DTEL&#45;SXCO_AO_SUBCOMPONENT_NAME">
<polygon fill="none" stroke="green" points="292.98,-36 2.98,-36 2.98,0 292.98,0 292.98,-36"/>
<text text-anchor="middle" x="147.98" y="-13.8" font-family="Times,serif" font-size="14.00">DTEL&#45;SXCO_AO_SUBCOMPONENT_NAME</text>
</a>
</g>
</g>
<!-- INTF&#45;IF_XCO_GEN_AO_S_FO_SUBCOMPNT&#45;&gt;DTEL&#45;SXCO_AO_SUBCOMPONENT_NAME -->
<g id="edge3" class="edge">
<title>INTF&#45;IF_XCO_GEN_AO_S_FO_SUBCOMPNT&#45;&gt;DTEL&#45;SXCO_AO_SUBCOMPONENT_NAME</title>
<path fill="none" stroke="black" d="M147.98,-71.7C147.98,-63.98 147.98,-54.71 147.98,-46.11"/>
<polygon fill="black" stroke="black" points="151.48,-46.1 147.98,-36.1 144.48,-46.1 151.48,-46.1"/>
</g>
</g>
</svg>
