<?xml version="1.0" encoding="UTF-8" standalone="no"?>
<!DOCTYPE svg PUBLIC "-//W3C//DTD SVG 1.1//EN"
 "http://www.w3.org/Graphics/SVG/1.1/DTD/svg11.dtd">
<!-- Generated by graphviz version 2.47.3 (20210619.1520)
 -->
<!-- Title: G Pages: 1 -->
<svg width="607pt" height="188pt"
 viewBox="0.00 0.00 607.08 188.00" xmlns="http://www.w3.org/2000/svg" xmlns:xlink="http://www.w3.org/1999/xlink">
<g id="graph0" class="graph" transform="scale(1 1) rotate(0) translate(4 184)">
<title>G</title>
<polygon fill="white" stroke="transparent" points="-4,4 -4,-184 603.08,-184 603.08,4 -4,4"/>
<!-- INTF&#45;IF_XCO_LANGUAGE -->
<g id="node1" class="node">
<title>INTF&#45;IF_XCO_LANGUAGE</title>
<g id="a_node1"><a xlink:href="./INTF_IF_XCO_LANGUAGE.html" xlink:title="INTF&#45;IF_XCO_LANGUAGE">
<polygon fill="none" stroke="green" points="372.48,-180 187.48,-180 187.48,-144 372.48,-144 372.48,-180"/>
<text text-anchor="middle" x="279.98" y="-157.8" font-family="Times,serif" font-size="14.00">INTF&#45;IF_XCO_LANGUAGE</text>
</a>
</g>
</g>
<!-- INTF&#45;IF_XCO_LANG_FORMAT -->
<g id="node2" class="node">
<title>INTF&#45;IF_XCO_LANG_FORMAT</title>
<g id="a_node2"><a xlink:href="./INTF_IF_XCO_LANG_FORMAT.html" xlink:title="INTF&#45;IF_XCO_LANG_FORMAT">
<polygon fill="none" stroke="green" points="211.94,-108 0.02,-108 0.02,-72 211.94,-72 211.94,-108"/>
<text text-anchor="middle" x="105.98" y="-85.8" font-family="Times,serif" font-size="14.00">INTF&#45;IF_XCO_LANG_FORMAT</text>
</a>
</g>
</g>
<!-- INTF&#45;IF_XCO_LANGUAGE&#45;&gt;INTF&#45;IF_XCO_LANG_FORMAT -->
<g id="edge4" class="edge">
<title>INTF&#45;IF_XCO_LANGUAGE&#45;&gt;INTF&#45;IF_XCO_LANG_FORMAT</title>
<path fill="none" stroke="black" d="M225.62,-143.88C199.83,-134.31 169.75,-122.3 146.03,-112.15"/>
<polygon fill="black" stroke="black" points="147.19,-108.83 136.62,-108.07 144.41,-115.26 147.19,-108.83"/>
</g>
<!-- INTF&#45;IF_XCO_LANGUAGE&#45;&gt;INTF&#45;IF_XCO_LANG_FORMAT -->
<g id="edge9" class="edge">
<title>INTF&#45;IF_XCO_LANGUAGE&#45;&gt;INTF&#45;IF_XCO_LANG_FORMAT</title>
<path fill="none" stroke="black" d="M249.21,-143.88C227.04,-134.14 196.76,-121.87 169.63,-111.61"/>
<polygon fill="black" stroke="black" points="170.78,-108.3 160.19,-108.07 168.32,-114.85 170.78,-108.3"/>
</g>
<!-- DTEL&#45;SPRAS -->
<g id="node3" class="node">
<title>DTEL&#45;SPRAS</title>
<g id="a_node3"><a xlink:href="./DTEL_SPRAS.html" xlink:title="DTEL&#45;SPRAS">
<polygon fill="none" stroke="green" points="329.7,-108 230.26,-108 230.26,-72 329.7,-72 329.7,-108"/>
<text text-anchor="middle" x="279.98" y="-85.8" font-family="Times,serif" font-size="14.00">DTEL&#45;SPRAS</text>
</a>
</g>
</g>
<!-- INTF&#45;IF_XCO_LANGUAGE&#45;&gt;DTEL&#45;SPRAS -->
<g id="edge3" class="edge">
<title>INTF&#45;IF_XCO_LANGUAGE&#45;&gt;DTEL&#45;SPRAS</title>
<path fill="none" stroke="black" d="M274.06,-143.7C273.27,-135.98 273.04,-126.71 273.38,-118.11"/>
<polygon fill="black" stroke="black" points="276.88,-118.32 274.08,-108.1 269.89,-117.84 276.88,-118.32"/>
</g>
<!-- INTF&#45;IF_XCO_LANGUAGE&#45;&gt;DTEL&#45;SPRAS -->
<g id="edge8" class="edge">
<title>INTF&#45;IF_XCO_LANGUAGE&#45;&gt;DTEL&#45;SPRAS</title>
<path fill="none" stroke="black" d="M285.89,-143.7C286.69,-135.98 286.92,-126.71 286.57,-118.11"/>
<polygon fill="black" stroke="black" points="290.06,-117.84 285.87,-108.1 283.08,-118.32 290.06,-117.84"/>
</g>
<!-- DTEL&#45;SPTXT2 -->
<g id="node5" class="node">
<title>DTEL&#45;SPTXT2</title>
<g id="a_node5"><a xlink:href="./DTEL_SPTXT2.html" xlink:title="DTEL&#45;SPTXT2">
<polygon fill="none" stroke="yellow" points="454.18,-108 347.78,-108 347.78,-72 454.18,-72 454.18,-108"/>
<text text-anchor="middle" x="400.98" y="-85.8" font-family="Times,serif" font-size="14.00">DTEL&#45;SPTXT2</text>
</a>
</g>
</g>
<!-- INTF&#45;IF_XCO_LANGUAGE&#45;&gt;DTEL&#45;SPTXT2 -->
<g id="edge2" class="edge">
<title>INTF&#45;IF_XCO_LANGUAGE&#45;&gt;DTEL&#45;SPTXT2</title>
<path fill="none" stroke="black" d="M303.68,-143.88C318.68,-134.64 338.43,-123.13 356.25,-113.21"/>
<polygon fill="black" stroke="black" points="358.29,-116.08 365.36,-108.19 354.91,-109.95 358.29,-116.08"/>
</g>
<!-- INTF&#45;IF_XCO_LANGUAGE&#45;&gt;DTEL&#45;SPTXT2 -->
<g id="edge7" class="edge">
<title>INTF&#45;IF_XCO_LANGUAGE&#45;&gt;DTEL&#45;SPTXT2</title>
<path fill="none" stroke="black" d="M315.48,-143.88C332.25,-134.72 352.08,-123.34 368.46,-113.48"/>
<polygon fill="black" stroke="black" points="370.44,-116.38 377.17,-108.19 366.81,-110.4 370.44,-116.38"/>
</g>
<!-- DTEL&#45;SPTXT -->
<g id="node7" class="node">
<title>DTEL&#45;SPTXT</title>
<g id="a_node7"><a xlink:href="./DTEL_SPTXT.html" xlink:title="DTEL&#45;SPTXT">
<polygon fill="none" stroke="yellow" points="571.68,-108 472.28,-108 472.28,-72 571.68,-72 571.68,-108"/>
<text text-anchor="middle" x="521.98" y="-85.8" font-family="Times,serif" font-size="14.00">DTEL&#45;SPTXT</text>
</a>
</g>
</g>
<!-- INTF&#45;IF_XCO_LANGUAGE&#45;&gt;DTEL&#45;SPTXT -->
<g id="edge1" class="edge">
<title>INTF&#45;IF_XCO_LANGUAGE&#45;&gt;DTEL&#45;SPTXT</title>
<path fill="none" stroke="black" d="M332.98,-143.97C371.25,-132.55 422.86,-117.63 462.53,-106.54"/>
<polygon fill="black" stroke="black" points="463.64,-109.86 472.34,-103.81 461.76,-103.12 463.64,-109.86"/>
</g>
<!-- INTF&#45;IF_XCO_LANGUAGE&#45;&gt;DTEL&#45;SPTXT -->
<g id="edge6" class="edge">
<title>INTF&#45;IF_XCO_LANGUAGE&#45;&gt;DTEL&#45;SPTXT</title>
<path fill="none" stroke="black" d="M344.76,-143.97C381.39,-133.68 426.82,-120.56 462.54,-109.95"/>
<polygon fill="black" stroke="black" points="463.76,-113.24 472.35,-107.03 461.76,-106.53 463.76,-113.24"/>
</g>
<!-- INTF&#45;IF_XCO_LANG_FORMAT&#45;&gt;INTF&#45;IF_XCO_LANGUAGE -->
<g id="edge5" class="edge">
<title>INTF&#45;IF_XCO_LANG_FORMAT&#45;&gt;INTF&#45;IF_XCO_LANGUAGE</title>
<path fill="none" stroke="black" d="M148.41,-108.07C172.38,-117.71 202.54,-129.85 227.94,-140.06"/>
<polygon fill="black" stroke="black" points="226.83,-143.39 237.41,-143.88 229.44,-136.9 226.83,-143.39"/>
</g>
<!-- DOMA&#45;SPRAS -->
<g id="node4" class="node">
<title>DOMA&#45;SPRAS</title>
<g id="a_node4"><a xlink:href="./DOMA_SPRAS.html" xlink:title="DOMA&#45;SPRAS">
<polygon fill="none" stroke="green" points="323.2,-36 216.76,-36 216.76,0 323.2,0 323.2,-36"/>
<text text-anchor="middle" x="269.98" y="-13.8" font-family="Times,serif" font-size="14.00">DOMA&#45;SPRAS</text>
</a>
</g>
</g>
<!-- DTEL&#45;SPRAS&#45;&gt;DOMA&#45;SPRAS -->
<g id="edge10" class="edge">
<title>DTEL&#45;SPRAS&#45;&gt;DOMA&#45;SPRAS</title>
<path fill="none" stroke="black" d="M277.51,-71.7C276.41,-63.98 275.08,-54.71 273.85,-46.11"/>
<polygon fill="black" stroke="black" points="277.3,-45.51 272.42,-36.1 270.37,-46.5 277.3,-45.51"/>
</g>
<!-- DOMA&#45;SPTXT72 -->
<g id="node6" class="node">
<title>DOMA&#45;SPTXT72</title>
<g id="a_node6"><a xlink:href="./DOMA_SPTXT72.html" xlink:title="DOMA&#45;SPTXT72">
<polygon fill="none" stroke="yellow" points="461.18,-36 340.78,-36 340.78,0 461.18,0 461.18,-36"/>
<text text-anchor="middle" x="400.98" y="-13.8" font-family="Times,serif" font-size="14.00">DOMA&#45;SPTXT72</text>
</a>
</g>
</g>
<!-- DTEL&#45;SPTXT2&#45;&gt;DOMA&#45;SPTXT72 -->
<g id="edge11" class="edge">
<title>DTEL&#45;SPTXT2&#45;&gt;DOMA&#45;SPTXT72</title>
<path fill="none" stroke="black" d="M400.98,-71.7C400.98,-63.98 400.98,-54.71 400.98,-46.11"/>
<polygon fill="black" stroke="black" points="404.48,-46.1 400.98,-36.1 397.48,-46.1 404.48,-46.1"/>
</g>
<!-- DOMA&#45;SPTXT16 -->
<g id="node8" class="node">
<title>DOMA&#45;SPTXT16</title>
<g id="a_node8"><a xlink:href="./DOMA_SPTXT16.html" xlink:title="DOMA&#45;SPTXT16">
<polygon fill="none" stroke="yellow" points="599.18,-36 478.78,-36 478.78,0 599.18,0 599.18,-36"/>
<text text-anchor="middle" x="538.98" y="-13.8" font-family="Times,serif" font-size="14.00">DOMA&#45;SPTXT16</text>
</a>
</g>
</g>
<!-- DTEL&#45;SPTXT&#45;&gt;DOMA&#45;SPTXT16 -->
<g id="edge12" class="edge">
<title>DTEL&#45;SPTXT&#45;&gt;DOMA&#45;SPTXT16</title>
<path fill="none" stroke="black" d="M526.18,-71.7C528.08,-63.9 530.36,-54.51 532.46,-45.83"/>
<polygon fill="black" stroke="black" points="535.87,-46.65 534.83,-36.1 529.06,-45 535.87,-46.65"/>
</g>
</g>
</svg>
