<?xml version="1.0" encoding="UTF-8" standalone="no"?>
<!DOCTYPE svg PUBLIC "-//W3C//DTD SVG 1.1//EN"
 "http://www.w3.org/Graphics/SVG/1.1/DTD/svg11.dtd">
<!-- Generated by graphviz version 2.47.3 (20210619.1520)
 -->
<!-- Title: G Pages: 1 -->
<svg width="753pt" height="404pt"
 viewBox="0.00 0.00 753.47 404.00" xmlns="http://www.w3.org/2000/svg" xmlns:xlink="http://www.w3.org/1999/xlink">
<g id="graph0" class="graph" transform="scale(1 1) rotate(0) translate(4 400)">
<title>G</title>
<polygon fill="white" stroke="transparent" points="-4,4 -4,-400 749.47,-400 749.47,4 -4,4"/>
<!-- INTF&#45;/IWCOR/IF_REST_REQUEST -->
<g id="node1" class="node">
<title>INTF&#45;/IWCOR/IF_REST_REQUEST</title>
<polygon fill="none" stroke="yellow" points="674.18,-396 444.46,-396 444.46,-360 674.18,-360 674.18,-396"/>
<text text-anchor="middle" x="559.32" y="-373.8" font-family="Times,serif" font-size="14.00">INTF&#45;/IWCOR/IF_REST_REQUEST</text>
</g>
<!-- INTF&#45;/IWCOR/IF_REST_MESSAGE -->
<g id="node2" class="node">
<title>INTF&#45;/IWCOR/IF_REST_MESSAGE</title>
<g id="a_node2"><a xlink:href="./INTF_%23IWCOR%23IF_REST_MESSAGE.html" xlink:title="INTF&#45;/IWCOR/IF_REST_MESSAGE">
<polygon fill="none" stroke="yellow" points="531.51,-324 299.12,-324 299.12,-288 531.51,-288 531.51,-324"/>
<text text-anchor="middle" x="415.32" y="-301.8" font-family="Times,serif" font-size="14.00">INTF&#45;/IWCOR/IF_REST_MESSAGE</text>
</a>
</g>
</g>
<!-- INTF&#45;/IWCOR/IF_REST_REQUEST&#45;&gt;INTF&#45;/IWCOR/IF_REST_MESSAGE -->
<g id="edge3" class="edge">
<title>INTF&#45;/IWCOR/IF_REST_REQUEST&#45;&gt;INTF&#45;/IWCOR/IF_REST_MESSAGE</title>
<path fill="none" stroke="black" d="M524.09,-359.88C504.74,-350.47 480.55,-338.71 459.89,-328.67"/>
<polygon fill="black" stroke="black" points="461.2,-325.41 450.68,-324.19 458.14,-331.71 461.2,-325.41"/>
</g>
<!-- TTYP&#45;TIHTTPNVP -->
<g id="node10" class="node">
<title>TTYP&#45;TIHTTPNVP</title>
<g id="a_node10"><a xlink:href="./TTYP_TIHTTPNVP.html" xlink:title="TTYP&#45;TIHTTPNVP">
<polygon fill="none" stroke="green" points="606.18,-180 474.46,-180 474.46,-144 606.18,-144 606.18,-180"/>
<text text-anchor="middle" x="540.32" y="-157.8" font-family="Times,serif" font-size="14.00">TTYP&#45;TIHTTPNVP</text>
</a>
</g>
</g>
<!-- INTF&#45;/IWCOR/IF_REST_REQUEST&#45;&gt;TTYP&#45;TIHTTPNVP -->
<g id="edge1" class="edge">
<title>INTF&#45;/IWCOR/IF_REST_REQUEST&#45;&gt;TTYP&#45;TIHTTPNVP</title>
<path fill="none" stroke="black" d="M557.8,-359.85C554.51,-322.83 546.73,-235.18 542.75,-190.39"/>
<polygon fill="black" stroke="black" points="546.22,-189.88 541.85,-180.23 539.25,-190.5 546.22,-189.88"/>
</g>
<!-- TTYP&#45;STRING_TABLE -->
<g id="node14" class="node">
<title>TTYP&#45;STRING_TABLE</title>
<g id="a_node14"><a xlink:href="./TTYP_STRING_TABLE.html" xlink:title="TTYP&#45;STRING_TABLE">
<polygon fill="none" stroke="green" points="745.62,-324 587.02,-324 587.02,-288 745.62,-288 745.62,-324"/>
<text text-anchor="middle" x="666.32" y="-301.8" font-family="Times,serif" font-size="14.00">TTYP&#45;STRING_TABLE</text>
</a>
</g>
</g>
<!-- INTF&#45;/IWCOR/IF_REST_REQUEST&#45;&gt;TTYP&#45;STRING_TABLE -->
<g id="edge2" class="edge">
<title>INTF&#45;/IWCOR/IF_REST_REQUEST&#45;&gt;TTYP&#45;STRING_TABLE</title>
<path fill="none" stroke="black" d="M585.49,-359.88C599.35,-350.81 616.56,-339.55 631.53,-329.76"/>
<polygon fill="black" stroke="black" points="633.59,-332.59 640.04,-324.19 629.76,-326.74 633.59,-332.59"/>
</g>
<!-- INTF&#45;/IWCOR/IF_REST_ENTITY -->
<g id="node3" class="node">
<title>INTF&#45;/IWCOR/IF_REST_ENTITY</title>
<g id="a_node3"><a xlink:href="./INTF_%23IWCOR%23IF_REST_ENTITY.html" xlink:title="INTF&#45;/IWCOR/IF_REST_ENTITY">
<polygon fill="none" stroke="yellow" points="493.22,-252 275.42,-252 275.42,-216 493.22,-216 493.22,-252"/>
<text text-anchor="middle" x="384.32" y="-229.8" font-family="Times,serif" font-size="14.00">INTF&#45;/IWCOR/IF_REST_ENTITY</text>
</a>
</g>
</g>
<!-- INTF&#45;/IWCOR/IF_REST_MESSAGE&#45;&gt;INTF&#45;/IWCOR/IF_REST_ENTITY -->
<g id="edge5" class="edge">
<title>INTF&#45;/IWCOR/IF_REST_MESSAGE&#45;&gt;INTF&#45;/IWCOR/IF_REST_ENTITY</title>
<path fill="none" stroke="black" d="M407.66,-287.7C404.13,-279.73 399.86,-270.1 395.95,-261.26"/>
<polygon fill="black" stroke="black" points="399.14,-259.83 391.89,-252.1 392.74,-262.67 399.14,-259.83"/>
</g>
<!-- INTF&#45;/IWCOR/IF_REST_MESSAGE&#45;&gt;TTYP&#45;TIHTTPNVP -->
<g id="edge4" class="edge">
<title>INTF&#45;/IWCOR/IF_REST_MESSAGE&#45;&gt;TTYP&#45;TIHTTPNVP</title>
<path fill="none" stroke="black" d="M454.63,-287.77C471.08,-278.99 489.35,-266.98 502.32,-252 517.81,-234.1 527.76,-208.94 533.58,-189.94"/>
<polygon fill="black" stroke="black" points="537.01,-190.68 536.39,-180.1 530.28,-188.75 537.01,-190.68"/>
</g>
<!-- DTEL&#45;VSCAN_PROFILE -->
<g id="node4" class="node">
<title>DTEL&#45;VSCAN_PROFILE</title>
<g id="a_node4"><a xlink:href="./DTEL_VSCAN_PROFILE.html" xlink:title="DTEL&#45;VSCAN_PROFILE">
<polygon fill="none" stroke="yellow" points="174.96,-180 7.68,-180 7.68,-144 174.96,-144 174.96,-180"/>
<text text-anchor="middle" x="91.32" y="-157.8" font-family="Times,serif" font-size="14.00">DTEL&#45;VSCAN_PROFILE</text>
</a>
</g>
</g>
<!-- INTF&#45;/IWCOR/IF_REST_ENTITY&#45;&gt;DTEL&#45;VSCAN_PROFILE -->
<g id="edge9" class="edge">
<title>INTF&#45;/IWCOR/IF_REST_ENTITY&#45;&gt;DTEL&#45;VSCAN_PROFILE</title>
<path fill="none" stroke="black" d="M313.02,-215.97C270.58,-205.83 216.58,-192.93 172.51,-182.4"/>
<polygon fill="black" stroke="black" points="173.23,-178.97 162.69,-180.05 171.6,-185.78 173.23,-178.97"/>
</g>
<!-- DTEL&#45;TIMESTAMP -->
<g id="node6" class="node">
<title>DTEL&#45;TIMESTAMP</title>
<g id="a_node6"><a xlink:href="./DTEL_TIMESTAMP.html" xlink:title="DTEL&#45;TIMESTAMP">
<polygon fill="none" stroke="green" points="333.12,-180 195.51,-180 195.51,-144 333.12,-144 333.12,-180"/>
<text text-anchor="middle" x="264.32" y="-157.8" font-family="Times,serif" font-size="14.00">DTEL&#45;TIMESTAMP</text>
</a>
</g>
</g>
<!-- INTF&#45;/IWCOR/IF_REST_ENTITY&#45;&gt;DTEL&#45;TIMESTAMP -->
<g id="edge8" class="edge">
<title>INTF&#45;/IWCOR/IF_REST_ENTITY&#45;&gt;DTEL&#45;TIMESTAMP</title>
<path fill="none" stroke="black" d="M354.96,-215.88C339.27,-206.72 319.76,-195.34 302.86,-185.48"/>
<polygon fill="black" stroke="black" points="304.19,-182.21 293.79,-180.19 300.66,-188.25 304.19,-182.21"/>
</g>
<!-- DTEL&#45;LANGU -->
<g id="node8" class="node">
<title>DTEL&#45;LANGU</title>
<g id="a_node8"><a xlink:href="./DTEL_LANGU.html" xlink:title="DTEL&#45;LANGU">
<polygon fill="none" stroke="yellow" points="456.22,-180 350.41,-180 350.41,-144 456.22,-144 456.22,-180"/>
<text text-anchor="middle" x="403.32" y="-157.8" font-family="Times,serif" font-size="14.00">DTEL&#45;LANGU</text>
</a>
</g>
</g>
<!-- INTF&#45;/IWCOR/IF_REST_ENTITY&#45;&gt;DTEL&#45;LANGU -->
<g id="edge7" class="edge">
<title>INTF&#45;/IWCOR/IF_REST_ENTITY&#45;&gt;DTEL&#45;LANGU</title>
<path fill="none" stroke="black" d="M389.02,-215.7C391.13,-207.9 393.68,-198.51 396.04,-189.83"/>
<polygon fill="black" stroke="black" points="399.43,-190.67 398.68,-180.1 392.68,-188.84 399.43,-190.67"/>
</g>
<!-- INTF&#45;/IWCOR/IF_REST_ENTITY&#45;&gt;TTYP&#45;TIHTTPNVP -->
<g id="edge6" class="edge">
<title>INTF&#45;/IWCOR/IF_REST_ENTITY&#45;&gt;TTYP&#45;TIHTTPNVP</title>
<path fill="none" stroke="black" d="M422.48,-215.88C443.71,-206.35 470.33,-194.41 492.89,-184.28"/>
<polygon fill="black" stroke="black" points="494.59,-187.36 502.28,-180.07 491.72,-180.97 494.59,-187.36"/>
</g>
<!-- DOMA&#45;VSCAN_PROFILE -->
<g id="node5" class="node">
<title>DOMA&#45;VSCAN_PROFILE</title>
<g id="a_node5"><a xlink:href="./DOMA_VSCAN_PROFILE.html" xlink:title="DOMA&#45;VSCAN_PROFILE">
<polygon fill="none" stroke="yellow" points="174.46,-108 0.18,-108 0.18,-72 174.46,-72 174.46,-108"/>
<text text-anchor="middle" x="87.32" y="-85.8" font-family="Times,serif" font-size="14.00">DOMA&#45;VSCAN_PROFILE</text>
</a>
</g>
</g>
<!-- DTEL&#45;VSCAN_PROFILE&#45;&gt;DOMA&#45;VSCAN_PROFILE -->
<g id="edge10" class="edge">
<title>DTEL&#45;VSCAN_PROFILE&#45;&gt;DOMA&#45;VSCAN_PROFILE</title>
<path fill="none" stroke="black" d="M90.33,-143.7C89.89,-135.98 89.36,-126.71 88.87,-118.11"/>
<polygon fill="black" stroke="black" points="92.36,-117.89 88.3,-108.1 85.37,-118.29 92.36,-117.89"/>
</g>
<!-- DOMA&#45;TZNTSTMPS -->
<g id="node7" class="node">
<title>DOMA&#45;TZNTSTMPS</title>
<g id="a_node7"><a xlink:href="./DOMA_TZNTSTMPS.html" xlink:title="DOMA&#45;TZNTSTMPS">
<polygon fill="none" stroke="yellow" points="335.85,-108 192.78,-108 192.78,-72 335.85,-72 335.85,-108"/>
<text text-anchor="middle" x="264.32" y="-85.8" font-family="Times,serif" font-size="14.00">DOMA&#45;TZNTSTMPS</text>
</a>
</g>
</g>
<!-- DTEL&#45;TIMESTAMP&#45;&gt;DOMA&#45;TZNTSTMPS -->
<g id="edge11" class="edge">
<title>DTEL&#45;TIMESTAMP&#45;&gt;DOMA&#45;TZNTSTMPS</title>
<path fill="none" stroke="black" d="M264.32,-143.7C264.32,-135.98 264.32,-126.71 264.32,-118.11"/>
<polygon fill="black" stroke="black" points="267.82,-118.1 264.32,-108.1 260.82,-118.1 267.82,-118.1"/>
</g>
<!-- DOMA&#45;SPRAS -->
<g id="node9" class="node">
<title>DOMA&#45;SPRAS</title>
<g id="a_node9"><a xlink:href="./DOMA_SPRAS.html" xlink:title="DOMA&#45;SPRAS">
<polygon fill="none" stroke="green" points="460.54,-108 354.1,-108 354.1,-72 460.54,-72 460.54,-108"/>
<text text-anchor="middle" x="407.32" y="-85.8" font-family="Times,serif" font-size="14.00">DOMA&#45;SPRAS</text>
</a>
</g>
</g>
<!-- DTEL&#45;LANGU&#45;&gt;DOMA&#45;SPRAS -->
<g id="edge12" class="edge">
<title>DTEL&#45;LANGU&#45;&gt;DOMA&#45;SPRAS</title>
<path fill="none" stroke="black" d="M404.31,-143.7C404.75,-135.98 405.28,-126.71 405.77,-118.11"/>
<polygon fill="black" stroke="black" points="409.27,-118.29 406.34,-108.1 402.28,-117.89 409.27,-118.29"/>
</g>
<!-- TABL&#45;IHTTPNVP -->
<g id="node11" class="node">
<title>TABL&#45;IHTTPNVP</title>
<g id="a_node11"><a xlink:href="./TABL_IHTTPNVP.html" xlink:title="TABL&#45;IHTTPNVP">
<polygon fill="none" stroke="yellow" points="603.68,-108 478.96,-108 478.96,-72 603.68,-72 603.68,-108"/>
<text text-anchor="middle" x="541.32" y="-85.8" font-family="Times,serif" font-size="14.00">TABL&#45;IHTTPNVP</text>
</a>
</g>
</g>
<!-- TTYP&#45;TIHTTPNVP&#45;&gt;TABL&#45;IHTTPNVP -->
<g id="edge13" class="edge">
<title>TTYP&#45;TIHTTPNVP&#45;&gt;TABL&#45;IHTTPNVP</title>
<path fill="none" stroke="black" d="M540.57,-143.7C540.68,-135.98 540.81,-126.71 540.93,-118.11"/>
<polygon fill="black" stroke="black" points="544.43,-118.15 541.07,-108.1 537.43,-118.05 544.43,-118.15"/>
</g>
<!-- DTEL&#45;IHTTPVAL -->
<g id="node12" class="node">
<title>DTEL&#45;IHTTPVAL</title>
<g id="a_node12"><a xlink:href="./DTEL_IHTTPVAL.html" xlink:title="DTEL&#45;IHTTPVAL">
<polygon fill="none" stroke="yellow" points="530.66,-36 405.97,-36 405.97,0 530.66,0 530.66,-36"/>
<text text-anchor="middle" x="468.32" y="-13.8" font-family="Times,serif" font-size="14.00">DTEL&#45;IHTTPVAL</text>
</a>
</g>
</g>
<!-- TABL&#45;IHTTPNVP&#45;&gt;DTEL&#45;IHTTPVAL -->
<g id="edge15" class="edge">
<title>TABL&#45;IHTTPNVP&#45;&gt;DTEL&#45;IHTTPVAL</title>
<path fill="none" stroke="black" d="M523.27,-71.7C514.26,-63.05 503.2,-52.45 493.38,-43.03"/>
<polygon fill="black" stroke="black" points="495.8,-40.5 486.16,-36.1 490.95,-45.55 495.8,-40.5"/>
</g>
<!-- DTEL&#45;IHTTPNAM -->
<g id="node13" class="node">
<title>DTEL&#45;IHTTPNAM</title>
<g id="a_node13"><a xlink:href="./DTEL_IHTTPNAM.html" xlink:title="DTEL&#45;IHTTPNAM">
<polygon fill="none" stroke="yellow" points="677.56,-36 549.08,-36 549.08,0 677.56,0 677.56,-36"/>
<text text-anchor="middle" x="613.32" y="-13.8" font-family="Times,serif" font-size="14.00">DTEL&#45;IHTTPNAM</text>
</a>
</g>
</g>
<!-- TABL&#45;IHTTPNVP&#45;&gt;DTEL&#45;IHTTPNAM -->
<g id="edge14" class="edge">
<title>TABL&#45;IHTTPNVP&#45;&gt;DTEL&#45;IHTTPNAM</title>
<path fill="none" stroke="black" d="M559.12,-71.7C567.92,-63.14 578.7,-52.66 588.32,-43.3"/>
<polygon fill="black" stroke="black" points="591,-45.58 595.73,-36.1 586.12,-40.57 591,-45.58"/>
</g>
</g>
</svg>
