<?xml version="1.0" encoding="UTF-8" standalone="no"?>
<!DOCTYPE svg PUBLIC "-//W3C//DTD SVG 1.1//EN"
 "http://www.w3.org/Graphics/SVG/1.1/DTD/svg11.dtd">
<!-- Generated by graphviz version 2.47.3 (20210619.1520)
 -->
<!-- Title: G Pages: 1 -->
<svg width="1080pt" height="548pt"
 viewBox="0.00 0.00 1080.03 548.00" xmlns="http://www.w3.org/2000/svg" xmlns:xlink="http://www.w3.org/1999/xlink">
<g id="graph0" class="graph" transform="scale(1 1) rotate(0) translate(4 544)">
<title>G</title>
<polygon fill="white" stroke="transparent" points="-4,4 -4,-544 1076.03,-544 1076.03,4 -4,4"/>
<!-- INTF&#45;IF_XCO_GEN_TABL_FKEY_CARD_LEFT -->
<g id="node1" class="node">
<title>INTF&#45;IF_XCO_GEN_TABL_FKEY_CARD_LEFT</title>
<g id="a_node1"><a xlink:href="./INTF_IF_XCO_GEN_TABL_FKEY_CARD_LEFT.html" xlink:title="INTF&#45;IF_XCO_GEN_TABL_FKEY_CARD_LEFT">
<polygon fill="none" stroke="green" points="700.95,-540 391.05,-540 391.05,-504 700.95,-504 700.95,-540"/>
<text text-anchor="middle" x="546" y="-517.8" font-family="Times,serif" font-size="14.00">INTF&#45;IF_XCO_GEN_TABL_FKEY_CARD_LEFT</text>
</a>
</g>
</g>
<!-- INTF&#45;IF_XCO_GEN_TABL_FKEY_CARDNALTY -->
<g id="node2" class="node">
<title>INTF&#45;IF_XCO_GEN_TABL_FKEY_CARDNALTY</title>
<g id="a_node2"><a xlink:href="./INTF_IF_XCO_GEN_TABL_FKEY_CARDNALTY.html" xlink:title="INTF&#45;IF_XCO_GEN_TABL_FKEY_CARDNALTY">
<polygon fill="none" stroke="green" points="704.43,-468 387.57,-468 387.57,-432 704.43,-432 704.43,-468"/>
<text text-anchor="middle" x="546" y="-445.8" font-family="Times,serif" font-size="14.00">INTF&#45;IF_XCO_GEN_TABL_FKEY_CARDNALTY</text>
</a>
</g>
</g>
<!-- INTF&#45;IF_XCO_GEN_TABL_FKEY_CARD_LEFT&#45;&gt;INTF&#45;IF_XCO_GEN_TABL_FKEY_CARDNALTY -->
<g id="edge1" class="edge">
<title>INTF&#45;IF_XCO_GEN_TABL_FKEY_CARD_LEFT&#45;&gt;INTF&#45;IF_XCO_GEN_TABL_FKEY_CARDNALTY</title>
<path fill="none" stroke="black" d="M540.08,-503.7C539.29,-495.98 539.06,-486.71 539.4,-478.11"/>
<polygon fill="black" stroke="black" points="542.9,-478.32 540.1,-468.1 535.92,-477.84 542.9,-478.32"/>
</g>
<!-- INTF&#45;IF_XCO_GEN_TABL_FKEY_CARD_LEFT&#45;&gt;INTF&#45;IF_XCO_GEN_TABL_FKEY_CARDNALTY -->
<g id="edge26" class="edge">
<title>INTF&#45;IF_XCO_GEN_TABL_FKEY_CARD_LEFT&#45;&gt;INTF&#45;IF_XCO_GEN_TABL_FKEY_CARDNALTY</title>
<path fill="none" stroke="black" d="M551.92,-503.7C552.71,-495.98 552.94,-486.71 552.6,-478.11"/>
<polygon fill="black" stroke="black" points="556.08,-477.84 551.9,-468.1 549.1,-478.32 556.08,-477.84"/>
</g>
<!-- CLAS&#45;CL_XCO_GEN_TABL_BP_FKEY_CARD -->
<g id="node3" class="node">
<title>CLAS&#45;CL_XCO_GEN_TABL_BP_FKEY_CARD</title>
<g id="a_node3"><a xlink:href="./CLAS_CL_XCO_GEN_TABL_BP_FKEY_CARD.html" xlink:title="CLAS&#45;CL_XCO_GEN_TABL_BP_FKEY_CARD">
<polygon fill="none" stroke="green" points="877.75,-396 574.25,-396 574.25,-360 877.75,-360 877.75,-396"/>
<text text-anchor="middle" x="726" y="-373.8" font-family="Times,serif" font-size="14.00">CLAS&#45;CL_XCO_GEN_TABL_BP_FKEY_CARD</text>
</a>
</g>
</g>
<!-- INTF&#45;IF_XCO_GEN_TABL_FKEY_CARDNALTY&#45;&gt;CLAS&#45;CL_XCO_GEN_TABL_BP_FKEY_CARD -->
<g id="edge2" class="edge">
<title>INTF&#45;IF_XCO_GEN_TABL_FKEY_CARDNALTY&#45;&gt;CLAS&#45;CL_XCO_GEN_TABL_BP_FKEY_CARD</title>
<path fill="none" stroke="black" d="M590.03,-431.88C614.97,-422.18 646.34,-409.98 672.66,-399.74"/>
<polygon fill="black" stroke="black" points="674.06,-402.95 682.11,-396.07 671.52,-396.43 674.06,-402.95"/>
</g>
<!-- CLAS&#45;CL_XCO_TAB_FKEY_CARDINALITY -->
<g id="node4" class="node">
<title>CLAS&#45;CL_XCO_TAB_FKEY_CARDINALITY</title>
<g id="a_node4"><a xlink:href="./CLAS_CL_XCO_TAB_FKEY_CARDINALITY.html" xlink:title="CLAS&#45;CL_XCO_TAB_FKEY_CARDINALITY">
<polygon fill="none" stroke="green" points="872.05,-324 579.95,-324 579.95,-288 872.05,-288 872.05,-324"/>
<text text-anchor="middle" x="726" y="-301.8" font-family="Times,serif" font-size="14.00">CLAS&#45;CL_XCO_TAB_FKEY_CARDINALITY</text>
</a>
</g>
</g>
<!-- CLAS&#45;CL_XCO_GEN_TABL_BP_FKEY_CARD&#45;&gt;CLAS&#45;CL_XCO_TAB_FKEY_CARDINALITY -->
<g id="edge3" class="edge">
<title>CLAS&#45;CL_XCO_GEN_TABL_BP_FKEY_CARD&#45;&gt;CLAS&#45;CL_XCO_TAB_FKEY_CARDINALITY</title>
<path fill="none" stroke="black" d="M726,-359.7C726,-351.98 726,-342.71 726,-334.11"/>
<polygon fill="black" stroke="black" points="729.5,-334.1 726,-324.1 722.5,-334.1 729.5,-334.1"/>
</g>
<!-- CLAS&#45;CL_XCO_TAB_FKEY_CARDINALITY&#45;&gt;INTF&#45;IF_XCO_GEN_TABL_FKEY_CARDNALTY -->
<g id="edge9" class="edge">
<title>CLAS&#45;CL_XCO_TAB_FKEY_CARDINALITY&#45;&gt;INTF&#45;IF_XCO_GEN_TABL_FKEY_CARDNALTY</title>
<path fill="none" stroke="black" d="M621.3,-324.08C600.2,-331.93 579.94,-343.36 565,-360 550.04,-376.67 545.82,-402.16 545.04,-421.6"/>
<polygon fill="black" stroke="black" points="541.53,-421.64 544.91,-431.68 548.53,-421.73 541.53,-421.64"/>
</g>
<!-- CLAS&#45;CL_XCO_TAB_FKEY_CARDINALITY_N -->
<g id="node5" class="node">
<title>CLAS&#45;CL_XCO_TAB_FKEY_CARDINALITY_N</title>
<g id="a_node5"><a xlink:href="./CLAS_CL_XCO_TAB_FKEY_CARDINALITY_N.html" xlink:title="CLAS&#45;CL_XCO_TAB_FKEY_CARDINALITY_N">
<polygon fill="none" stroke="green" points="697.66,-252 388.34,-252 388.34,-216 697.66,-216 697.66,-252"/>
<text text-anchor="middle" x="543" y="-229.8" font-family="Times,serif" font-size="14.00">CLAS&#45;CL_XCO_TAB_FKEY_CARDINALITY_N</text>
</a>
</g>
</g>
<!-- CLAS&#45;CL_XCO_TAB_FKEY_CARDINALITY&#45;&gt;CLAS&#45;CL_XCO_TAB_FKEY_CARDINALITY_N -->
<g id="edge8" class="edge">
<title>CLAS&#45;CL_XCO_TAB_FKEY_CARDINALITY&#45;&gt;CLAS&#45;CL_XCO_TAB_FKEY_CARDINALITY_N</title>
<path fill="none" stroke="black" d="M675.34,-287.88C649.09,-278.22 617.25,-266.09 591.34,-255.88"/>
<polygon fill="black" stroke="black" points="592.32,-252.5 581.73,-252.07 589.74,-259.01 592.32,-252.5"/>
</g>
<!-- CLAS&#45;CL_XCO_TAB_FKEY_CARDINALITY_CN -->
<g id="node8" class="node">
<title>CLAS&#45;CL_XCO_TAB_FKEY_CARDINALITY_CN</title>
<g id="a_node8"><a xlink:href="./CLAS_CL_XCO_TAB_FKEY_CARDINALITY_CN.html" xlink:title="CLAS&#45;CL_XCO_TAB_FKEY_CARDINALITY_CN">
<polygon fill="none" stroke="green" points="748.5,-108 429.5,-108 429.5,-72 748.5,-72 748.5,-108"/>
<text text-anchor="middle" x="589" y="-85.8" font-family="Times,serif" font-size="14.00">CLAS&#45;CL_XCO_TAB_FKEY_CARDINALITY_CN</text>
</a>
</g>
</g>
<!-- CLAS&#45;CL_XCO_TAB_FKEY_CARDINALITY&#45;&gt;CLAS&#45;CL_XCO_TAB_FKEY_CARDINALITY_CN -->
<g id="edge7" class="edge">
<title>CLAS&#45;CL_XCO_TAB_FKEY_CARDINALITY&#45;&gt;CLAS&#45;CL_XCO_TAB_FKEY_CARDINALITY_CN</title>
<path fill="none" stroke="black" d="M729.76,-287.83C741.19,-256.17 767.39,-187.82 736,-144 726.21,-130.33 712.68,-120.14 697.77,-112.56"/>
<polygon fill="black" stroke="black" points="698.86,-109.21 688.32,-108.17 695.91,-115.56 698.86,-109.21"/>
</g>
<!-- CLAS&#45;CL_XCO_TAB_FKEY_CARDINALITY_C -->
<g id="node9" class="node">
<title>CLAS&#45;CL_XCO_TAB_FKEY_CARDINALITY_C</title>
<g id="a_node9"><a xlink:href="./CLAS_CL_XCO_TAB_FKEY_CARDINALITY_C.html" xlink:title="CLAS&#45;CL_XCO_TAB_FKEY_CARDINALITY_C">
<polygon fill="none" stroke="green" points="374.39,-108 65.61,-108 65.61,-72 374.39,-72 374.39,-108"/>
<text text-anchor="middle" x="220" y="-85.8" font-family="Times,serif" font-size="14.00">CLAS&#45;CL_XCO_TAB_FKEY_CARDINALITY_C</text>
</a>
</g>
</g>
<!-- CLAS&#45;CL_XCO_TAB_FKEY_CARDINALITY&#45;&gt;CLAS&#45;CL_XCO_TAB_FKEY_CARDINALITY_C -->
<g id="edge6" class="edge">
<title>CLAS&#45;CL_XCO_TAB_FKEY_CARDINALITY&#45;&gt;CLAS&#45;CL_XCO_TAB_FKEY_CARDINALITY_C</title>
<path fill="none" stroke="black" d="M579.93,-292.8C498.35,-284 406.1,-270.41 370,-252 307.09,-219.92 254.13,-153.5 231.28,-116.79"/>
<polygon fill="black" stroke="black" points="234.25,-114.94 226.13,-108.14 228.24,-118.52 234.25,-114.94"/>
</g>
<!-- CLAS&#45;CL_XCO_TAB_FKEY_CARDINALITY_1 -->
<g id="node10" class="node">
<title>CLAS&#45;CL_XCO_TAB_FKEY_CARDINALITY_1</title>
<g id="a_node10"><a xlink:href="./CLAS_CL_XCO_TAB_FKEY_CARDINALITY_1.html" xlink:title="CLAS&#45;CL_XCO_TAB_FKEY_CARDINALITY_1">
<polygon fill="none" stroke="green" points="1072.05,-108 765.95,-108 765.95,-72 1072.05,-72 1072.05,-108"/>
<text text-anchor="middle" x="919" y="-85.8" font-family="Times,serif" font-size="14.00">CLAS&#45;CL_XCO_TAB_FKEY_CARDINALITY_1</text>
</a>
</g>
</g>
<!-- CLAS&#45;CL_XCO_TAB_FKEY_CARDINALITY&#45;&gt;CLAS&#45;CL_XCO_TAB_FKEY_CARDINALITY_1 -->
<g id="edge5" class="edge">
<title>CLAS&#45;CL_XCO_TAB_FKEY_CARDINALITY&#45;&gt;CLAS&#45;CL_XCO_TAB_FKEY_CARDINALITY_1</title>
<path fill="none" stroke="black" d="M736.12,-287.94C745.32,-277.83 758.32,-264.58 769,-252 807.48,-206.66 807.57,-187.61 848,-144 857.68,-133.55 869.33,-123.13 880.45,-114.33"/>
<polygon fill="black" stroke="black" points="882.6,-117.09 888.41,-108.23 878.34,-111.53 882.6,-117.09"/>
</g>
<!-- DTEL&#45;CARD -->
<g id="node11" class="node">
<title>DTEL&#45;CARD</title>
<g id="a_node11"><a xlink:href="./DTEL_CARD.html" xlink:title="DTEL&#45;CARD">
<polygon fill="none" stroke="yellow" points="963.81,-252 868.19,-252 868.19,-216 963.81,-216 963.81,-252"/>
<text text-anchor="middle" x="916" y="-229.8" font-family="Times,serif" font-size="14.00">DTEL&#45;CARD</text>
</a>
</g>
</g>
<!-- CLAS&#45;CL_XCO_TAB_FKEY_CARDINALITY&#45;&gt;DTEL&#45;CARD -->
<g id="edge4" class="edge">
<title>CLAS&#45;CL_XCO_TAB_FKEY_CARDINALITY&#45;&gt;DTEL&#45;CARD</title>
<path fill="none" stroke="black" d="M772.48,-287.88C798.92,-278.14 832.2,-265.87 860.06,-255.61"/>
<polygon fill="black" stroke="black" points="861.5,-258.81 869.67,-252.07 859.08,-252.24 861.5,-258.81"/>
</g>
<!-- CLAS&#45;CL_XCO_TAB_FKEY_CARDINALITY_N&#45;&gt;CLAS&#45;CL_XCO_TAB_FKEY_CARDINALITY -->
<g id="edge10" class="edge">
<title>CLAS&#45;CL_XCO_TAB_FKEY_CARDINALITY_N&#45;&gt;CLAS&#45;CL_XCO_TAB_FKEY_CARDINALITY</title>
<path fill="none" stroke="black" d="M593.51,-252.07C619.74,-261.71 651.58,-273.85 677.51,-284.06"/>
<polygon fill="black" stroke="black" points="676.54,-287.45 687.13,-287.88 679.12,-280.94 676.54,-287.45"/>
</g>
<!-- INTF&#45;IF_XCO_GEN_TABL_FKEY_CARD_RGHT -->
<g id="node6" class="node">
<title>INTF&#45;IF_XCO_GEN_TABL_FKEY_CARD_RGHT</title>
<g id="a_node6"><a xlink:href="./INTF_IF_XCO_GEN_TABL_FKEY_CARD_RGHT.html" xlink:title="INTF&#45;IF_XCO_GEN_TABL_FKEY_CARD_RGHT">
<polygon fill="none" stroke="green" points="559.11,-36 244.89,-36 244.89,0 559.11,0 559.11,-36"/>
<text text-anchor="middle" x="402" y="-13.8" font-family="Times,serif" font-size="14.00">INTF&#45;IF_XCO_GEN_TABL_FKEY_CARD_RGHT</text>
</a>
</g>
</g>
<!-- CLAS&#45;CL_XCO_TAB_FKEY_CARDINALITY_N&#45;&gt;INTF&#45;IF_XCO_GEN_TABL_FKEY_CARD_RGHT -->
<g id="edge12" class="edge">
<title>CLAS&#45;CL_XCO_TAB_FKEY_CARDINALITY_N&#45;&gt;INTF&#45;IF_XCO_GEN_TABL_FKEY_CARD_RGHT</title>
<path fill="none" stroke="black" d="M470.96,-215.95C451.95,-208.05 433.33,-196.59 421,-180 391.91,-140.87 393.49,-80.96 397.55,-46.32"/>
<polygon fill="black" stroke="black" points="401.07,-46.4 398.92,-36.02 394.14,-45.48 401.07,-46.4"/>
</g>
<!-- CLAS&#45;CL_XCO_TAB_FKEY_CARDINALITY_F -->
<g id="node7" class="node">
<title>CLAS&#45;CL_XCO_TAB_FKEY_CARDINALITY_F</title>
<g id="a_node7"><a xlink:href="./CLAS_CL_XCO_TAB_FKEY_CARDINALITY_F.html" xlink:title="CLAS&#45;CL_XCO_TAB_FKEY_CARDINALITY_F">
<polygon fill="none" stroke="green" points="736.34,-180 429.66,-180 429.66,-144 736.34,-144 736.34,-180"/>
<text text-anchor="middle" x="583" y="-157.8" font-family="Times,serif" font-size="14.00">CLAS&#45;CL_XCO_TAB_FKEY_CARDINALITY_F</text>
</a>
</g>
</g>
<!-- CLAS&#45;CL_XCO_TAB_FKEY_CARDINALITY_N&#45;&gt;CLAS&#45;CL_XCO_TAB_FKEY_CARDINALITY_F -->
<g id="edge11" class="edge">
<title>CLAS&#45;CL_XCO_TAB_FKEY_CARDINALITY_N&#45;&gt;CLAS&#45;CL_XCO_TAB_FKEY_CARDINALITY_F</title>
<path fill="none" stroke="black" d="M546.97,-215.7C550.78,-207.56 556.22,-197.69 561.78,-188.7"/>
<polygon fill="black" stroke="black" points="564.85,-190.4 567.33,-180.1 558.97,-186.61 564.85,-190.4"/>
</g>
<!-- INTF&#45;IF_XCO_GEN_TABL_FKEY_CARD_RGHT&#45;&gt;INTF&#45;IF_XCO_GEN_TABL_FKEY_CARDNALTY -->
<g id="edge13" class="edge">
<title>INTF&#45;IF_XCO_GEN_TABL_FKEY_CARD_RGHT&#45;&gt;INTF&#45;IF_XCO_GEN_TABL_FKEY_CARDNALTY</title>
<path fill="none" stroke="black" d="M244.61,-26.05C167.11,-32.81 84.49,-46.06 57,-72 27.58,-99.76 38,-120.55 38,-161 38,-307 38,-307 38,-307 38,-378.95 229.41,-416.07 377.24,-434.02"/>
<polygon fill="black" stroke="black" points="377.01,-437.51 387.36,-435.22 377.84,-430.56 377.01,-437.51"/>
</g>
<!-- CLAS&#45;CL_XCO_TAB_FKEY_CARDINALITY_F&#45;&gt;CLAS&#45;CL_XCO_TAB_FKEY_CARDINALITY -->
<g id="edge18" class="edge">
<title>CLAS&#45;CL_XCO_TAB_FKEY_CARDINALITY_F&#45;&gt;CLAS&#45;CL_XCO_TAB_FKEY_CARDINALITY</title>
<path fill="none" stroke="black" d="M653.94,-180.04C673.66,-187.97 693.39,-199.46 707,-216 721.17,-233.21 725.49,-258.49 726.51,-277.71"/>
<polygon fill="black" stroke="black" points="723.02,-278.04 726.79,-287.95 730.02,-277.86 723.02,-278.04"/>
</g>
<!-- CLAS&#45;CL_XCO_TAB_FKEY_CARDINALITY_F&#45;&gt;CLAS&#45;CL_XCO_TAB_FKEY_CARDINALITY_N -->
<g id="edge15" class="edge">
<title>CLAS&#45;CL_XCO_TAB_FKEY_CARDINALITY_F&#45;&gt;CLAS&#45;CL_XCO_TAB_FKEY_CARDINALITY_N</title>
<path fill="none" stroke="black" d="M579.12,-180.1C575.34,-188.21 569.92,-198.08 564.36,-207.08"/>
<polygon fill="black" stroke="black" points="561.28,-205.39 558.8,-215.7 567.16,-209.19 561.28,-205.39"/>
</g>
<!-- CLAS&#45;CL_XCO_TAB_FKEY_CARDINALITY_F&#45;&gt;CLAS&#45;CL_XCO_TAB_FKEY_CARDINALITY_CN -->
<g id="edge17" class="edge">
<title>CLAS&#45;CL_XCO_TAB_FKEY_CARDINALITY_F&#45;&gt;CLAS&#45;CL_XCO_TAB_FKEY_CARDINALITY_CN</title>
<path fill="none" stroke="black" d="M578.57,-143.7C578.43,-135.98 579,-126.71 580.08,-118.11"/>
<polygon fill="black" stroke="black" points="583.56,-118.52 581.64,-108.1 576.64,-117.45 583.56,-118.52"/>
</g>
<!-- CLAS&#45;CL_XCO_TAB_FKEY_CARDINALITY_F&#45;&gt;CLAS&#45;CL_XCO_TAB_FKEY_CARDINALITY_C -->
<g id="edge16" class="edge">
<title>CLAS&#45;CL_XCO_TAB_FKEY_CARDINALITY_F&#45;&gt;CLAS&#45;CL_XCO_TAB_FKEY_CARDINALITY_C</title>
<path fill="none" stroke="black" d="M488.78,-143.97C434.45,-133.7 366.47,-120.6 312.45,-110"/>
<polygon fill="black" stroke="black" points="313.01,-106.54 302.53,-108.05 311.66,-113.41 313.01,-106.54"/>
</g>
<!-- CLAS&#45;CL_XCO_TAB_FKEY_CARDINALITY_F&#45;&gt;CLAS&#45;CL_XCO_TAB_FKEY_CARDINALITY_1 -->
<g id="edge14" class="edge">
<title>CLAS&#45;CL_XCO_TAB_FKEY_CARDINALITY_F&#45;&gt;CLAS&#45;CL_XCO_TAB_FKEY_CARDINALITY_1</title>
<path fill="none" stroke="black" d="M658.88,-143.97C706.98,-133.72 769.62,-120.66 821.4,-110.07"/>
<polygon fill="black" stroke="black" points="822.17,-113.48 831.27,-108.05 820.77,-106.62 822.17,-113.48"/>
</g>
<!-- CLAS&#45;CL_XCO_TAB_FKEY_CARDINALITY_CN&#45;&gt;CLAS&#45;CL_XCO_TAB_FKEY_CARDINALITY -->
<g id="edge19" class="edge">
<title>CLAS&#45;CL_XCO_TAB_FKEY_CARDINALITY_CN&#45;&gt;CLAS&#45;CL_XCO_TAB_FKEY_CARDINALITY</title>
<path fill="none" stroke="black" d="M705.94,-108.17C724.91,-116.06 742.17,-127.49 754,-144 782.69,-184.05 763.26,-244.6 745.23,-278.9"/>
<polygon fill="black" stroke="black" points="742.06,-277.4 740.22,-287.83 748.16,-280.82 742.06,-277.4"/>
</g>
<!-- CLAS&#45;CL_XCO_TAB_FKEY_CARDINALITY_CN&#45;&gt;INTF&#45;IF_XCO_GEN_TABL_FKEY_CARD_RGHT -->
<g id="edge21" class="edge">
<title>CLAS&#45;CL_XCO_TAB_FKEY_CARDINALITY_CN&#45;&gt;INTF&#45;IF_XCO_GEN_TABL_FKEY_CARD_RGHT</title>
<path fill="none" stroke="black" d="M543.25,-71.88C517.24,-62.14 484.47,-49.87 457.05,-39.61"/>
<polygon fill="black" stroke="black" points="458.19,-36.3 447.6,-36.07 455.74,-42.85 458.19,-36.3"/>
</g>
<!-- CLAS&#45;CL_XCO_TAB_FKEY_CARDINALITY_CN&#45;&gt;CLAS&#45;CL_XCO_TAB_FKEY_CARDINALITY_F -->
<g id="edge20" class="edge">
<title>CLAS&#45;CL_XCO_TAB_FKEY_CARDINALITY_CN&#45;&gt;CLAS&#45;CL_XCO_TAB_FKEY_CARDINALITY_F</title>
<path fill="none" stroke="black" d="M593.43,-108.1C593.58,-115.79 593.02,-125.05 591.95,-133.67"/>
<polygon fill="black" stroke="black" points="588.47,-133.28 590.4,-143.7 595.38,-134.35 588.47,-133.28"/>
</g>
<!-- CLAS&#45;CL_XCO_TAB_FKEY_CARDINALITY_C&#45;&gt;INTF&#45;IF_XCO_GEN_TABL_FKEY_CARD_LEFT -->
<g id="edge24" class="edge">
<title>CLAS&#45;CL_XCO_TAB_FKEY_CARDINALITY_C&#45;&gt;INTF&#45;IF_XCO_GEN_TABL_FKEY_CARD_LEFT</title>
<path fill="none" stroke="black" d="M140.57,-108.05C77.56,-126.8 0,-163.9 0,-233 0,-379 0,-379 0,-379 0,-458.63 220.26,-494.39 380.98,-509.88"/>
<polygon fill="black" stroke="black" points="380.71,-513.37 391,-510.83 381.37,-506.41 380.71,-513.37"/>
</g>
<!-- CLAS&#45;CL_XCO_TAB_FKEY_CARDINALITY_C&#45;&gt;CLAS&#45;CL_XCO_TAB_FKEY_CARDINALITY -->
<g id="edge22" class="edge">
<title>CLAS&#45;CL_XCO_TAB_FKEY_CARDINALITY_C&#45;&gt;CLAS&#45;CL_XCO_TAB_FKEY_CARDINALITY</title>
<path fill="none" stroke="black" d="M236.18,-108.14C263.22,-142 319.76,-217.2 388,-252 420.21,-268.43 497.12,-281.01 569.47,-289.79"/>
<polygon fill="black" stroke="black" points="569.3,-293.29 579.65,-291 570.13,-286.34 569.3,-293.29"/>
</g>
<!-- CLAS&#45;CL_XCO_TAB_FKEY_CARDINALITY_C&#45;&gt;INTF&#45;IF_XCO_GEN_TABL_FKEY_CARD_RGHT -->
<g id="edge25" class="edge">
<title>CLAS&#45;CL_XCO_TAB_FKEY_CARDINALITY_C&#45;&gt;INTF&#45;IF_XCO_GEN_TABL_FKEY_CARD_RGHT</title>
<path fill="none" stroke="black" d="M264.52,-71.88C289.73,-62.18 321.45,-49.98 348.07,-39.74"/>
<polygon fill="black" stroke="black" points="349.55,-42.92 357.62,-36.07 347.03,-36.39 349.55,-42.92"/>
</g>
<!-- CLAS&#45;CL_XCO_TAB_FKEY_CARDINALITY_C&#45;&gt;CLAS&#45;CL_XCO_TAB_FKEY_CARDINALITY_F -->
<g id="edge23" class="edge">
<title>CLAS&#45;CL_XCO_TAB_FKEY_CARDINALITY_C&#45;&gt;CLAS&#45;CL_XCO_TAB_FKEY_CARDINALITY_F</title>
<path fill="none" stroke="black" d="M314.31,-108.05C368.65,-118.32 436.63,-131.42 490.64,-142.02"/>
<polygon fill="black" stroke="black" points="490.06,-145.47 500.55,-143.97 491.41,-138.6 490.06,-145.47"/>
</g>
<!-- CLAS&#45;CL_XCO_TAB_FKEY_CARDINALITY_1&#45;&gt;INTF&#45;IF_XCO_GEN_TABL_FKEY_CARD_LEFT -->
<g id="edge29" class="edge">
<title>CLAS&#45;CL_XCO_TAB_FKEY_CARDINALITY_1&#45;&gt;INTF&#45;IF_XCO_GEN_TABL_FKEY_CARD_LEFT</title>
<path fill="none" stroke="black" d="M944.12,-108.19C955.83,-117.47 968.93,-129.92 977,-144 997.11,-179.09 996,-192.55 996,-233 996,-379 996,-379 996,-379 996,-443.12 827.72,-481.92 696.98,-502.39"/>
<polygon fill="black" stroke="black" points="696.19,-498.97 686.84,-503.95 697.26,-505.89 696.19,-498.97"/>
</g>
<!-- CLAS&#45;CL_XCO_TAB_FKEY_CARDINALITY_1&#45;&gt;CLAS&#45;CL_XCO_TAB_FKEY_CARDINALITY -->
<g id="edge27" class="edge">
<title>CLAS&#45;CL_XCO_TAB_FKEY_CARDINALITY_1&#45;&gt;CLAS&#45;CL_XCO_TAB_FKEY_CARDINALITY</title>
<path fill="none" stroke="black" d="M904.32,-108.23C893.1,-118.08 878.03,-131.02 866,-144 825.57,-187.61 825.48,-206.66 787,-252 778.58,-261.93 768.7,-272.27 759.29,-281.16"/>
<polygon fill="black" stroke="black" points="756.89,-278.61 751.87,-287.94 761.61,-283.77 756.89,-278.61"/>
</g>
<!-- CLAS&#45;CL_XCO_TAB_FKEY_CARDINALITY_1&#45;&gt;INTF&#45;IF_XCO_GEN_TABL_FKEY_CARD_RGHT -->
<g id="edge30" class="edge">
<title>CLAS&#45;CL_XCO_TAB_FKEY_CARDINALITY_1&#45;&gt;INTF&#45;IF_XCO_GEN_TABL_FKEY_CARD_RGHT</title>
<path fill="none" stroke="black" d="M793.19,-71.97C715.94,-61.51 617,-48.11 537.96,-37.41"/>
<polygon fill="black" stroke="black" points="538.31,-33.92 527.93,-36.05 537.37,-40.86 538.31,-33.92"/>
</g>
<!-- CLAS&#45;CL_XCO_TAB_FKEY_CARDINALITY_1&#45;&gt;CLAS&#45;CL_XCO_TAB_FKEY_CARDINALITY_F -->
<g id="edge28" class="edge">
<title>CLAS&#45;CL_XCO_TAB_FKEY_CARDINALITY_1&#45;&gt;CLAS&#45;CL_XCO_TAB_FKEY_CARDINALITY_F</title>
<path fill="none" stroke="black" d="M843.05,-108.05C794.93,-118.3 732.29,-131.36 680.52,-141.95"/>
<polygon fill="black" stroke="black" points="679.75,-138.54 670.65,-143.97 681.15,-145.39 679.75,-138.54"/>
</g>
<!-- DOMA&#45;CARD -->
<g id="node12" class="node">
<title>DOMA&#45;CARD</title>
<g id="a_node12"><a xlink:href="./DOMA_CARD.html" xlink:title="DOMA&#45;CARD">
<polygon fill="none" stroke="yellow" points="968.31,-180 865.69,-180 865.69,-144 968.31,-144 968.31,-180"/>
<text text-anchor="middle" x="917" y="-157.8" font-family="Times,serif" font-size="14.00">DOMA&#45;CARD</text>
</a>
</g>
</g>
<!-- DTEL&#45;CARD&#45;&gt;DOMA&#45;CARD -->
<g id="edge31" class="edge">
<title>DTEL&#45;CARD&#45;&gt;DOMA&#45;CARD</title>
<path fill="none" stroke="black" d="M916.25,-215.7C916.36,-207.98 916.49,-198.71 916.61,-190.11"/>
<polygon fill="black" stroke="black" points="920.11,-190.15 916.76,-180.1 913.11,-190.05 920.11,-190.15"/>
</g>
</g>
</svg>
