<?xml version="1.0" encoding="UTF-8" standalone="no"?>
<!DOCTYPE svg PUBLIC "-//W3C//DTD SVG 1.1//EN"
 "http://www.w3.org/Graphics/SVG/1.1/DTD/svg11.dtd">
<!-- Generated by graphviz version 2.47.3 (20210619.1520)
 -->
<!-- Title: G Pages: 1 -->
<svg width="2190pt" height="476pt"
 viewBox="0.00 0.00 2190.14 476.00" xmlns="http://www.w3.org/2000/svg" xmlns:xlink="http://www.w3.org/1999/xlink">
<g id="graph0" class="graph" transform="scale(1 1) rotate(0) translate(4 472)">
<title>G</title>
<polygon fill="white" stroke="transparent" points="-4,4 -4,-472 2186.14,-472 2186.14,4 -4,4"/>
<!-- INTF&#45;/IWBEP/IF_CP_REQUEST_READ_LIST -->
<g id="node1" class="node">
<title>INTF&#45;/IWBEP/IF_CP_REQUEST_READ_LIST</title>
<polygon fill="none" stroke="green" points="1364.06,-468 1072.47,-468 1072.47,-432 1364.06,-432 1364.06,-468"/>
<text text-anchor="middle" x="1218.26" y="-445.8" font-family="Times,serif" font-size="14.00">INTF&#45;/IWBEP/IF_CP_REQUEST_READ_LIST</text>
</g>
<!-- INTF&#45;/IWBEP/IF_CP_REQUEST_BATCH_OP -->
<g id="node2" class="node">
<title>INTF&#45;/IWBEP/IF_CP_REQUEST_BATCH_OP</title>
<g id="a_node2"><a xlink:href="./INTF_%23IWBEP%23IF_CP_REQUEST_BATCH_OP.html" xlink:title="INTF&#45;/IWBEP/IF_CP_REQUEST_BATCH_OP">
<polygon fill="none" stroke="green" points="977.74,-396 688.79,-396 688.79,-360 977.74,-360 977.74,-396"/>
<text text-anchor="middle" x="833.26" y="-373.8" font-family="Times,serif" font-size="14.00">INTF&#45;/IWBEP/IF_CP_REQUEST_BATCH_OP</text>
</a>
</g>
</g>
<!-- INTF&#45;/IWBEP/IF_CP_REQUEST_READ_LIST&#45;&gt;INTF&#45;/IWBEP/IF_CP_REQUEST_BATCH_OP -->
<g id="edge7" class="edge">
<title>INTF&#45;/IWBEP/IF_CP_REQUEST_READ_LIST&#45;&gt;INTF&#45;/IWBEP/IF_CP_REQUEST_BATCH_OP</title>
<path fill="none" stroke="black" d="M1124.57,-431.97C1067.87,-421.66 995.47,-408.49 937.03,-397.87"/>
<polygon fill="black" stroke="black" points="937.5,-394.4 927.04,-396.05 936.25,-401.28 937.5,-394.4"/>
</g>
<!-- INTF&#45;/IWBEP/IF_CP_FILTER_NODE -->
<g id="node3" class="node">
<title>INTF&#45;/IWBEP/IF_CP_FILTER_NODE</title>
<g id="a_node3"><a xlink:href="./INTF_%23IWBEP%23IF_CP_FILTER_NODE.html" xlink:title="INTF&#45;/IWBEP/IF_CP_FILTER_NODE">
<polygon fill="none" stroke="green" points="1098.23,-324 858.3,-324 858.3,-288 1098.23,-288 1098.23,-324"/>
<text text-anchor="middle" x="978.26" y="-301.8" font-family="Times,serif" font-size="14.00">INTF&#45;/IWBEP/IF_CP_FILTER_NODE</text>
</a>
</g>
</g>
<!-- INTF&#45;/IWBEP/IF_CP_REQUEST_READ_LIST&#45;&gt;INTF&#45;/IWBEP/IF_CP_FILTER_NODE -->
<g id="edge6" class="edge">
<title>INTF&#45;/IWBEP/IF_CP_REQUEST_READ_LIST&#45;&gt;INTF&#45;/IWBEP/IF_CP_FILTER_NODE</title>
<path fill="none" stroke="black" d="M1132.43,-431.97C1104.96,-423.93 1075.44,-412.38 1051.26,-396 1027.02,-379.57 1006.61,-352.78 993.59,-332.88"/>
<polygon fill="black" stroke="black" points="996.45,-330.86 988.14,-324.29 990.54,-334.61 996.45,-330.86"/>
</g>
<!-- INTF&#45;/IWBEP/IF_CP_RUNTIME_TYPES -->
<g id="node4" class="node">
<title>INTF&#45;/IWBEP/IF_CP_RUNTIME_TYPES</title>
<g id="a_node4"><a xlink:href="./INTF_%23IWBEP%23IF_CP_RUNTIME_TYPES.html" xlink:title="INTF&#45;/IWBEP/IF_CP_RUNTIME_TYPES">
<polygon fill="none" stroke="green" points="1376.45,-324 1116.07,-324 1116.07,-288 1376.45,-288 1376.45,-324"/>
<text text-anchor="middle" x="1246.26" y="-301.8" font-family="Times,serif" font-size="14.00">INTF&#45;/IWBEP/IF_CP_RUNTIME_TYPES</text>
</a>
</g>
</g>
<!-- INTF&#45;/IWBEP/IF_CP_REQUEST_READ_LIST&#45;&gt;INTF&#45;/IWBEP/IF_CP_RUNTIME_TYPES -->
<g id="edge5" class="edge">
<title>INTF&#45;/IWBEP/IF_CP_REQUEST_READ_LIST&#45;&gt;INTF&#45;/IWBEP/IF_CP_RUNTIME_TYPES</title>
<path fill="none" stroke="black" d="M1134.23,-432C1084.6,-417.98 1036.15,-394.69 1062.26,-360 1072.61,-346.25 1104.67,-334.96 1139.2,-326.38"/>
<polygon fill="black" stroke="black" points="1140.08,-329.77 1148.99,-324.03 1138.45,-322.96 1140.08,-329.77"/>
</g>
<!-- INTF&#45;/IWBEP/IF_CP_RESPONSE_READ_LST -->
<g id="node29" class="node">
<title>INTF&#45;/IWBEP/IF_CP_RESPONSE_READ_LST</title>
<g id="a_node29"><a xlink:href="./INTF_%23IWBEP%23IF_CP_RESPONSE_READ_LST.html" xlink:title="INTF&#45;/IWBEP/IF_CP_RESPONSE_READ_LST">
<polygon fill="none" stroke="green" points="1364.91,-396 1071.62,-396 1071.62,-360 1364.91,-360 1364.91,-396"/>
<text text-anchor="middle" x="1218.26" y="-373.8" font-family="Times,serif" font-size="14.00">INTF&#45;/IWBEP/IF_CP_RESPONSE_READ_LST</text>
</a>
</g>
</g>
<!-- INTF&#45;/IWBEP/IF_CP_REQUEST_READ_LIST&#45;&gt;INTF&#45;/IWBEP/IF_CP_RESPONSE_READ_LST -->
<g id="edge4" class="edge">
<title>INTF&#45;/IWBEP/IF_CP_REQUEST_READ_LIST&#45;&gt;INTF&#45;/IWBEP/IF_CP_RESPONSE_READ_LST</title>
<path fill="none" stroke="black" d="M1218.26,-431.7C1218.26,-423.98 1218.26,-414.71 1218.26,-406.11"/>
<polygon fill="black" stroke="black" points="1221.76,-406.1 1218.26,-396.1 1214.76,-406.1 1221.76,-406.1"/>
</g>
<!-- INTF&#45;/IWBEP/IF_CP_SEARCH_NODE -->
<g id="node30" class="node">
<title>INTF&#45;/IWBEP/IF_CP_SEARCH_NODE</title>
<g id="a_node30"><a xlink:href="./INTF_%23IWBEP%23IF_CP_SEARCH_NODE.html" xlink:title="INTF&#45;/IWBEP/IF_CP_SEARCH_NODE">
<polygon fill="none" stroke="green" points="2182.01,-396 1934.52,-396 1934.52,-360 2182.01,-360 2182.01,-396"/>
<text text-anchor="middle" x="2058.26" y="-373.8" font-family="Times,serif" font-size="14.00">INTF&#45;/IWBEP/IF_CP_SEARCH_NODE</text>
</a>
</g>
</g>
<!-- INTF&#45;/IWBEP/IF_CP_REQUEST_READ_LIST&#45;&gt;INTF&#45;/IWBEP/IF_CP_SEARCH_NODE -->
<g id="edge3" class="edge">
<title>INTF&#45;/IWBEP/IF_CP_REQUEST_READ_LIST&#45;&gt;INTF&#45;/IWBEP/IF_CP_SEARCH_NODE</title>
<path fill="none" stroke="black" d="M1364.02,-440.31C1504.73,-431.4 1724.04,-416.15 1924.27,-396.07"/>
<polygon fill="black" stroke="black" points="1924.8,-399.53 1934.4,-395.05 1924.09,-392.57 1924.8,-399.53"/>
</g>
<!-- INTF&#45;/IWBEP/IF_CP_FILTER_FACTORY -->
<g id="node31" class="node">
<title>INTF&#45;/IWBEP/IF_CP_FILTER_FACTORY</title>
<g id="a_node31"><a xlink:href="./INTF_%23IWBEP%23IF_CP_FILTER_FACTORY.html" xlink:title="INTF&#45;/IWBEP/IF_CP_FILTER_FACTORY">
<polygon fill="none" stroke="green" points="1916.68,-396 1649.84,-396 1649.84,-360 1916.68,-360 1916.68,-396"/>
<text text-anchor="middle" x="1783.26" y="-373.8" font-family="Times,serif" font-size="14.00">INTF&#45;/IWBEP/IF_CP_FILTER_FACTORY</text>
</a>
</g>
</g>
<!-- INTF&#45;/IWBEP/IF_CP_REQUEST_READ_LIST&#45;&gt;INTF&#45;/IWBEP/IF_CP_FILTER_FACTORY -->
<g id="edge2" class="edge">
<title>INTF&#45;/IWBEP/IF_CP_REQUEST_READ_LIST&#45;&gt;INTF&#45;/IWBEP/IF_CP_FILTER_FACTORY</title>
<path fill="none" stroke="black" d="M1355.76,-431.97C1441.93,-421.29 1552.81,-407.55 1640.06,-396.74"/>
<polygon fill="black" stroke="black" points="1640.54,-400.21 1650.03,-395.51 1639.68,-393.26 1640.54,-400.21"/>
</g>
<!-- INTF&#45;/IWBEP/IF_CP_EXPAND_NODE -->
<g id="node36" class="node">
<title>INTF&#45;/IWBEP/IF_CP_EXPAND_NODE</title>
<g id="a_node36"><a xlink:href="./INTF_%23IWBEP%23IF_CP_EXPAND_NODE.html" xlink:title="INTF&#45;/IWBEP/IF_CP_EXPAND_NODE">
<polygon fill="none" stroke="green" points="1632.05,-396 1382.48,-396 1382.48,-360 1632.05,-360 1632.05,-396"/>
<text text-anchor="middle" x="1507.26" y="-373.8" font-family="Times,serif" font-size="14.00">INTF&#45;/IWBEP/IF_CP_EXPAND_NODE</text>
</a>
</g>
</g>
<!-- INTF&#45;/IWBEP/IF_CP_REQUEST_READ_LIST&#45;&gt;INTF&#45;/IWBEP/IF_CP_EXPAND_NODE -->
<g id="edge1" class="edge">
<title>INTF&#45;/IWBEP/IF_CP_REQUEST_READ_LIST&#45;&gt;INTF&#45;/IWBEP/IF_CP_EXPAND_NODE</title>
<path fill="none" stroke="black" d="M1288.59,-431.97C1330.36,-421.85 1383.49,-408.98 1426.91,-398.46"/>
<polygon fill="black" stroke="black" points="1427.98,-401.81 1436.87,-396.05 1426.33,-395 1427.98,-401.81"/>
</g>
<!-- INTF&#45;/IWBEP/IF_CP_REGISTRY_TYPES -->
<g id="node5" class="node">
<title>INTF&#45;/IWBEP/IF_CP_REGISTRY_TYPES</title>
<g id="a_node5"><a xlink:href="./INTF_%23IWBEP%23IF_CP_REGISTRY_TYPES.html" xlink:title="INTF&#45;/IWBEP/IF_CP_REGISTRY_TYPES">
<polygon fill="none" stroke="yellow" points="726.63,-252 461.9,-252 461.9,-216 726.63,-216 726.63,-252"/>
<text text-anchor="middle" x="594.26" y="-229.8" font-family="Times,serif" font-size="14.00">INTF&#45;/IWBEP/IF_CP_REGISTRY_TYPES</text>
</a>
</g>
</g>
<!-- INTF&#45;/IWBEP/IF_CP_RUNTIME_TYPES&#45;&gt;INTF&#45;/IWBEP/IF_CP_REGISTRY_TYPES -->
<g id="edge15" class="edge">
<title>INTF&#45;/IWBEP/IF_CP_RUNTIME_TYPES&#45;&gt;INTF&#45;/IWBEP/IF_CP_REGISTRY_TYPES</title>
<path fill="none" stroke="black" d="M1115.99,-290.03C1109.99,-289.33 1104.06,-288.65 1098.26,-288 976.21,-274.23 837.65,-260 736.72,-249.76"/>
<polygon fill="black" stroke="black" points="737.06,-246.27 726.76,-248.75 736.36,-253.24 737.06,-246.27"/>
</g>
<!-- DTEL&#45;/IWBEP/CP_PROXY_MODEL_VERSION -->
<g id="node15" class="node">
<title>DTEL&#45;/IWBEP/CP_PROXY_MODEL_VERSION</title>
<g id="a_node15"><a xlink:href="./DTEL_%23IWBEP%23CP_PROXY_MODEL_VERSION.html" xlink:title="DTEL&#45;/IWBEP/CP_PROXY_MODEL_VERSION">
<polygon fill="none" stroke="yellow" points="1096.99,-108 793.54,-108 793.54,-72 1096.99,-72 1096.99,-108"/>
<text text-anchor="middle" x="945.26" y="-85.8" font-family="Times,serif" font-size="14.00">DTEL&#45;/IWBEP/CP_PROXY_MODEL_VERSION</text>
</a>
</g>
</g>
<!-- INTF&#45;/IWBEP/IF_CP_RUNTIME_TYPES&#45;&gt;DTEL&#45;/IWBEP/CP_PROXY_MODEL_VERSION -->
<g id="edge13" class="edge">
<title>INTF&#45;/IWBEP/IF_CP_RUNTIME_TYPES&#45;&gt;DTEL&#45;/IWBEP/CP_PROXY_MODEL_VERSION</title>
<path fill="none" stroke="black" d="M1126.75,-287.95C1043.27,-275.47 945.63,-259.45 939.26,-252 907.52,-214.83 921.91,-153.39 934.24,-118.13"/>
<polygon fill="black" stroke="black" points="937.61,-119.09 937.79,-108.5 931.05,-116.67 937.61,-119.09"/>
</g>
<!-- DTEL&#45;/IWBEP/CP_PROXY_MODEL_ID -->
<g id="node17" class="node">
<title>DTEL&#45;/IWBEP/CP_PROXY_MODEL_ID</title>
<g id="a_node17"><a xlink:href="./DTEL_%23IWBEP%23CP_PROXY_MODEL_ID.html" xlink:title="DTEL&#45;/IWBEP/CP_PROXY_MODEL_ID">
<polygon fill="none" stroke="yellow" points="1373.1,-108 1115.42,-108 1115.42,-72 1373.1,-72 1373.1,-108"/>
<text text-anchor="middle" x="1244.26" y="-85.8" font-family="Times,serif" font-size="14.00">DTEL&#45;/IWBEP/CP_PROXY_MODEL_ID</text>
</a>
</g>
</g>
<!-- INTF&#45;/IWBEP/IF_CP_RUNTIME_TYPES&#45;&gt;DTEL&#45;/IWBEP/CP_PROXY_MODEL_ID -->
<g id="edge11" class="edge">
<title>INTF&#45;/IWBEP/IF_CP_RUNTIME_TYPES&#45;&gt;DTEL&#45;/IWBEP/CP_PROXY_MODEL_ID</title>
<path fill="none" stroke="black" d="M1116.08,-288.21C1046.82,-277.95 973.75,-264.45 963.26,-252 932.35,-215.28 931.62,-180.94 962.26,-144 972.15,-132.08 1038.99,-119.23 1105.1,-109.17"/>
<polygon fill="black" stroke="black" points="1105.9,-112.59 1115.27,-107.65 1104.86,-105.67 1105.9,-112.59"/>
</g>
<!-- DTEL&#45;NUMC3 -->
<g id="node19" class="node">
<title>DTEL&#45;NUMC3</title>
<g id="a_node19"><a xlink:href="./DTEL_NUMC3.html" xlink:title="DTEL&#45;NUMC3">
<polygon fill="none" stroke="yellow" points="1078.18,-252 972.34,-252 972.34,-216 1078.18,-216 1078.18,-252"/>
<text text-anchor="middle" x="1025.26" y="-229.8" font-family="Times,serif" font-size="14.00">DTEL&#45;NUMC3</text>
</a>
</g>
</g>
<!-- INTF&#45;/IWBEP/IF_CP_RUNTIME_TYPES&#45;&gt;DTEL&#45;NUMC3 -->
<g id="edge14" class="edge">
<title>INTF&#45;/IWBEP/IF_CP_RUNTIME_TYPES&#45;&gt;DTEL&#45;NUMC3</title>
<path fill="none" stroke="black" d="M1192.48,-287.97C1160.85,-277.95 1120.72,-265.23 1087.69,-254.77"/>
<polygon fill="black" stroke="black" points="1088.73,-251.43 1078.14,-251.75 1086.61,-258.1 1088.73,-251.43"/>
</g>
<!-- DTEL&#45;/IWBEP/CP_PROXY_MODEL_REPO_ID -->
<g id="node21" class="node">
<title>DTEL&#45;/IWBEP/CP_PROXY_MODEL_REPO_ID</title>
<g id="a_node21"><a xlink:href="./DTEL_%23IWBEP%23CP_PROXY_MODEL_REPO_ID.html" xlink:title="DTEL&#45;/IWBEP/CP_PROXY_MODEL_REPO_ID">
<polygon fill="none" stroke="yellow" points="1396.38,-252 1096.14,-252 1096.14,-216 1396.38,-216 1396.38,-252"/>
<text text-anchor="middle" x="1246.26" y="-229.8" font-family="Times,serif" font-size="14.00">DTEL&#45;/IWBEP/CP_PROXY_MODEL_REPO_ID</text>
</a>
</g>
</g>
<!-- INTF&#45;/IWBEP/IF_CP_RUNTIME_TYPES&#45;&gt;DTEL&#45;/IWBEP/CP_PROXY_MODEL_REPO_ID -->
<g id="edge12" class="edge">
<title>INTF&#45;/IWBEP/IF_CP_RUNTIME_TYPES&#45;&gt;DTEL&#45;/IWBEP/CP_PROXY_MODEL_REPO_ID</title>
<path fill="none" stroke="black" d="M1246.26,-287.7C1246.26,-279.98 1246.26,-270.71 1246.26,-262.11"/>
<polygon fill="black" stroke="black" points="1249.76,-262.1 1246.26,-252.1 1242.76,-262.1 1249.76,-262.1"/>
</g>
<!-- DTEL&#45;CHAR30 -->
<g id="node23" class="node">
<title>DTEL&#45;CHAR30</title>
<g id="a_node23"><a xlink:href="./DTEL_CHAR30.html" xlink:title="DTEL&#45;CHAR30">
<polygon fill="none" stroke="yellow" points="1524.07,-252 1414.45,-252 1414.45,-216 1524.07,-216 1524.07,-252"/>
<text text-anchor="middle" x="1469.26" y="-229.8" font-family="Times,serif" font-size="14.00">DTEL&#45;CHAR30</text>
</a>
</g>
</g>
<!-- INTF&#45;/IWBEP/IF_CP_RUNTIME_TYPES&#45;&gt;DTEL&#45;CHAR30 -->
<g id="edge10" class="edge">
<title>INTF&#45;/IWBEP/IF_CP_RUNTIME_TYPES&#45;&gt;DTEL&#45;CHAR30</title>
<path fill="none" stroke="black" d="M1300.53,-287.97C1332.09,-278.06 1372.05,-265.51 1405.16,-255.12"/>
<polygon fill="black" stroke="black" points="1406.26,-258.45 1414.75,-252.11 1404.16,-251.77 1406.26,-258.45"/>
</g>
<!-- DTEL&#45;CHAR40 -->
<g id="node25" class="node">
<title>DTEL&#45;CHAR40</title>
<g id="a_node25"><a xlink:href="./DTEL_CHAR40.html" xlink:title="DTEL&#45;CHAR40">
<polygon fill="none" stroke="yellow" points="1651.07,-252 1541.45,-252 1541.45,-216 1651.07,-216 1651.07,-252"/>
<text text-anchor="middle" x="1596.26" y="-229.8" font-family="Times,serif" font-size="14.00">DTEL&#45;CHAR40</text>
</a>
</g>
</g>
<!-- INTF&#45;/IWBEP/IF_CP_RUNTIME_TYPES&#45;&gt;DTEL&#45;CHAR40 -->
<g id="edge9" class="edge">
<title>INTF&#45;/IWBEP/IF_CP_RUNTIME_TYPES&#45;&gt;DTEL&#45;CHAR40</title>
<path fill="none" stroke="black" d="M1349.62,-288C1401.74,-278.92 1466.09,-266.97 1531.31,-252.37"/>
<polygon fill="black" stroke="black" points="1532.37,-255.71 1541.35,-250.1 1530.83,-248.89 1532.37,-255.71"/>
</g>
<!-- DTEL&#45;/IWBEP/CP_DELTA_QUERY_ID -->
<g id="node27" class="node">
<title>DTEL&#45;/IWBEP/CP_DELTA_QUERY_ID</title>
<g id="a_node27"><a xlink:href="./DTEL_%23IWBEP%23CP_DELTA_QUERY_ID.html" xlink:title="DTEL&#45;/IWBEP/CP_DELTA_QUERY_ID">
<polygon fill="none" stroke="yellow" points="1923.48,-252 1669.04,-252 1669.04,-216 1923.48,-216 1923.48,-252"/>
<text text-anchor="middle" x="1796.26" y="-229.8" font-family="Times,serif" font-size="14.00">DTEL&#45;/IWBEP/CP_DELTA_QUERY_ID</text>
</a>
</g>
</g>
<!-- INTF&#45;/IWBEP/IF_CP_RUNTIME_TYPES&#45;&gt;DTEL&#45;/IWBEP/CP_DELTA_QUERY_ID -->
<g id="edge8" class="edge">
<title>INTF&#45;/IWBEP/IF_CP_RUNTIME_TYPES&#45;&gt;DTEL&#45;/IWBEP/CP_DELTA_QUERY_ID</title>
<path fill="none" stroke="black" d="M1376.61,-288.41C1461.55,-277.6 1572.24,-263.51 1658.61,-252.52"/>
<polygon fill="black" stroke="black" points="1659.28,-255.96 1668.75,-251.23 1658.39,-249.02 1659.28,-255.96"/>
</g>
<!-- INTF&#45;/IWBEP/IF_CP_REGISTRY_TYPES&#45;&gt;INTF&#45;/IWBEP/IF_CP_RUNTIME_TYPES -->
<g id="edge21" class="edge">
<title>INTF&#45;/IWBEP/IF_CP_REGISTRY_TYPES&#45;&gt;INTF&#45;/IWBEP/IF_CP_RUNTIME_TYPES</title>
<path fill="none" stroke="black" d="M726.64,-247.27C829.55,-257.34 976.06,-272.27 1105.82,-286.83"/>
<polygon fill="black" stroke="black" points="1105.6,-290.32 1115.93,-287.96 1106.38,-283.37 1105.6,-290.32"/>
</g>
<!-- DTEL&#45;PGMID -->
<g id="node6" class="node">
<title>DTEL&#45;PGMID</title>
<g id="a_node6"><a xlink:href="./DTEL_PGMID.html" xlink:title="DTEL&#45;PGMID">
<polygon fill="none" stroke="yellow" points="210.79,-180 109.74,-180 109.74,-144 210.79,-144 210.79,-180"/>
<text text-anchor="middle" x="160.26" y="-157.8" font-family="Times,serif" font-size="14.00">DTEL&#45;PGMID</text>
</a>
</g>
</g>
<!-- INTF&#45;/IWBEP/IF_CP_REGISTRY_TYPES&#45;&gt;DTEL&#45;PGMID -->
<g id="edge20" class="edge">
<title>INTF&#45;/IWBEP/IF_CP_REGISTRY_TYPES&#45;&gt;DTEL&#45;PGMID</title>
<path fill="none" stroke="black" d="M488.65,-215.97C404.59,-202.41 289.93,-183.91 220.71,-172.75"/>
<polygon fill="black" stroke="black" points="221.27,-169.29 210.84,-171.16 220.16,-176.21 221.27,-169.29"/>
</g>
<!-- DTEL&#45;TROBJTYPE -->
<g id="node8" class="node">
<title>DTEL&#45;TROBJTYPE</title>
<g id="a_node8"><a xlink:href="./DTEL_TROBJTYPE.html" xlink:title="DTEL&#45;TROBJTYPE">
<polygon fill="none" stroke="yellow" points="422.46,-180 288.07,-180 288.07,-144 422.46,-144 422.46,-180"/>
<text text-anchor="middle" x="355.26" y="-157.8" font-family="Times,serif" font-size="14.00">DTEL&#45;TROBJTYPE</text>
</a>
</g>
</g>
<!-- INTF&#45;/IWBEP/IF_CP_REGISTRY_TYPES&#45;&gt;DTEL&#45;TROBJTYPE -->
<g id="edge19" class="edge">
<title>INTF&#45;/IWBEP/IF_CP_REGISTRY_TYPES&#45;&gt;DTEL&#45;TROBJTYPE</title>
<path fill="none" stroke="black" d="M536.1,-215.97C502.13,-206.01 459.08,-193.41 423.51,-182.99"/>
<polygon fill="black" stroke="black" points="424.26,-179.56 413.68,-180.11 422.3,-186.28 424.26,-179.56"/>
</g>
<!-- TABL&#45;/IWBEP/I_CP_MOD -->
<g id="node10" class="node">
<title>TABL&#45;/IWBEP/I_CP_MOD</title>
<g id="a_node10"><a xlink:href="./TABL_%23IWBEP%23I_CP_MOD.html" xlink:title="TABL&#45;/IWBEP/I_CP_MOD">
<polygon fill="none" stroke="yellow" points="798.74,-180 621.79,-180 621.79,-144 798.74,-144 798.74,-180"/>
<text text-anchor="middle" x="710.26" y="-157.8" font-family="Times,serif" font-size="14.00">TABL&#45;/IWBEP/I_CP_MOD</text>
</a>
</g>
</g>
<!-- INTF&#45;/IWBEP/IF_CP_REGISTRY_TYPES&#45;&gt;TABL&#45;/IWBEP/I_CP_MOD -->
<g id="edge18" class="edge">
<title>INTF&#45;/IWBEP/IF_CP_REGISTRY_TYPES&#45;&gt;TABL&#45;/IWBEP/I_CP_MOD</title>
<path fill="none" stroke="black" d="M622.64,-215.88C637.81,-206.72 656.67,-195.34 673,-185.48"/>
<polygon fill="black" stroke="black" points="675.02,-188.35 681.78,-180.19 671.41,-182.36 675.02,-188.35"/>
</g>
<!-- DTEL&#45;/IWBEP/CP_PROXY_MODEL_DESCR -->
<g id="node11" class="node">
<title>DTEL&#45;/IWBEP/CP_PROXY_MODEL_DESCR</title>
<g id="a_node11"><a xlink:href="./DTEL_%23IWBEP%23CP_PROXY_MODEL_DESCR.html" xlink:title="DTEL&#45;/IWBEP/CP_PROXY_MODEL_DESCR">
<polygon fill="none" stroke="yellow" points="547.45,-108 259.07,-108 259.07,-72 547.45,-72 547.45,-108"/>
<text text-anchor="middle" x="403.26" y="-85.8" font-family="Times,serif" font-size="14.00">DTEL&#45;/IWBEP/CP_PROXY_MODEL_DESCR</text>
</a>
</g>
</g>
<!-- INTF&#45;/IWBEP/IF_CP_REGISTRY_TYPES&#45;&gt;DTEL&#45;/IWBEP/CP_PROXY_MODEL_DESCR -->
<g id="edge17" class="edge">
<title>INTF&#45;/IWBEP/IF_CP_REGISTRY_TYPES&#45;&gt;DTEL&#45;/IWBEP/CP_PROXY_MODEL_DESCR</title>
<path fill="none" stroke="black" d="M571.22,-215.87C537.09,-190.5 473.01,-142.85 434.63,-114.32"/>
<polygon fill="black" stroke="black" points="436.5,-111.35 426.38,-108.19 432.32,-116.96 436.5,-111.35"/>
</g>
<!-- DTEL&#45;/IWBEP/CP_MPC_NAME -->
<g id="node13" class="node">
<title>DTEL&#45;/IWBEP/CP_MPC_NAME</title>
<g id="a_node13"><a xlink:href="./DTEL_%23IWBEP%23CP_MPC_NAME.html" xlink:title="DTEL&#45;/IWBEP/CP_MPC_NAME">
<polygon fill="none" stroke="yellow" points="774.91,-108 565.62,-108 565.62,-72 774.91,-72 774.91,-108"/>
<text text-anchor="middle" x="670.26" y="-85.8" font-family="Times,serif" font-size="14.00">DTEL&#45;/IWBEP/CP_MPC_NAME</text>
</a>
</g>
</g>
<!-- INTF&#45;/IWBEP/IF_CP_REGISTRY_TYPES&#45;&gt;DTEL&#45;/IWBEP/CP_MPC_NAME -->
<g id="edge16" class="edge">
<title>INTF&#45;/IWBEP/IF_CP_REGISTRY_TYPES&#45;&gt;DTEL&#45;/IWBEP/CP_MPC_NAME</title>
<path fill="none" stroke="black" d="M594.88,-215.85C596.22,-197.09 600.4,-166.67 613.26,-144 619.51,-132.98 628.83,-122.93 638.13,-114.6"/>
<polygon fill="black" stroke="black" points="640.51,-117.18 645.87,-108.04 635.98,-111.84 640.51,-117.18"/>
</g>
<!-- DOMA&#45;PGMID -->
<g id="node7" class="node">
<title>DOMA&#45;PGMID</title>
<g id="a_node7"><a xlink:href="./DOMA_PGMID.html" xlink:title="DOMA&#45;PGMID">
<polygon fill="none" stroke="yellow" points="108.29,-108 0.24,-108 0.24,-72 108.29,-72 108.29,-108"/>
<text text-anchor="middle" x="54.26" y="-85.8" font-family="Times,serif" font-size="14.00">DOMA&#45;PGMID</text>
</a>
</g>
</g>
<!-- DTEL&#45;PGMID&#45;&gt;DOMA&#45;PGMID -->
<g id="edge22" class="edge">
<title>DTEL&#45;PGMID&#45;&gt;DOMA&#45;PGMID</title>
<path fill="none" stroke="black" d="M134.33,-143.88C120.6,-134.81 103.56,-123.55 88.73,-113.76"/>
<polygon fill="black" stroke="black" points="90.57,-110.78 80.29,-108.19 86.71,-116.62 90.57,-110.78"/>
</g>
<!-- DOMA&#45;OBJECT -->
<g id="node9" class="node">
<title>DOMA&#45;OBJECT</title>
<g id="a_node9"><a xlink:href="./DOMA_OBJECT.html" xlink:title="DOMA&#45;OBJECT">
<polygon fill="none" stroke="yellow" points="241.52,-108 127.01,-108 127.01,-72 241.52,-72 241.52,-108"/>
<text text-anchor="middle" x="184.26" y="-85.8" font-family="Times,serif" font-size="14.00">DOMA&#45;OBJECT</text>
</a>
</g>
</g>
<!-- DTEL&#45;TROBJTYPE&#45;&gt;DOMA&#45;OBJECT -->
<g id="edge23" class="edge">
<title>DTEL&#45;TROBJTYPE&#45;&gt;DOMA&#45;OBJECT</title>
<path fill="none" stroke="black" d="M313.43,-143.88C289.85,-134.22 260.2,-122.09 235.26,-111.88"/>
<polygon fill="black" stroke="black" points="236.54,-108.62 225.96,-108.07 233.89,-115.1 236.54,-108.62"/>
</g>
<!-- TABL&#45;/IWBEP/I_CP_MOD&#45;&gt;DTEL&#45;/IWBEP/CP_PROXY_MODEL_DESCR -->
<g id="edge27" class="edge">
<title>TABL&#45;/IWBEP/I_CP_MOD&#45;&gt;DTEL&#45;/IWBEP/CP_PROXY_MODEL_DESCR</title>
<path fill="none" stroke="black" d="M635.55,-143.97C590.99,-133.8 534.27,-120.87 488.04,-110.33"/>
<polygon fill="black" stroke="black" points="488.57,-106.86 478.04,-108.05 487.01,-113.69 488.57,-106.86"/>
</g>
<!-- TABL&#45;/IWBEP/I_CP_MOD&#45;&gt;DTEL&#45;/IWBEP/CP_MPC_NAME -->
<g id="edge26" class="edge">
<title>TABL&#45;/IWBEP/I_CP_MOD&#45;&gt;DTEL&#45;/IWBEP/CP_MPC_NAME</title>
<path fill="none" stroke="black" d="M700.38,-143.7C695.77,-135.64 690.2,-125.89 685.11,-116.98"/>
<polygon fill="black" stroke="black" points="688.04,-115.05 680.04,-108.1 681.96,-118.52 688.04,-115.05"/>
</g>
<!-- TABL&#45;/IWBEP/I_CP_MOD&#45;&gt;DTEL&#45;/IWBEP/CP_PROXY_MODEL_VERSION -->
<g id="edge25" class="edge">
<title>TABL&#45;/IWBEP/I_CP_MOD&#45;&gt;DTEL&#45;/IWBEP/CP_PROXY_MODEL_VERSION</title>
<path fill="none" stroke="black" d="M767.45,-143.97C800.86,-134.01 843.19,-121.41 878.16,-110.99"/>
<polygon fill="black" stroke="black" points="879.23,-114.32 887.82,-108.11 877.24,-107.61 879.23,-114.32"/>
</g>
<!-- TABL&#45;/IWBEP/I_CP_MOD&#45;&gt;DTEL&#45;/IWBEP/CP_PROXY_MODEL_ID -->
<g id="edge24" class="edge">
<title>TABL&#45;/IWBEP/I_CP_MOD&#45;&gt;DTEL&#45;/IWBEP/CP_PROXY_MODEL_ID</title>
<path fill="none" stroke="black" d="M798.74,-149.4C882.12,-138.47 1008.36,-121.92 1105.2,-109.23"/>
<polygon fill="black" stroke="black" points="1105.9,-112.67 1115.36,-107.9 1104.99,-105.73 1105.9,-112.67"/>
</g>
<!-- DOMA&#45;/IWBEP/CP_PROXY_MODEL_DESCR -->
<g id="node12" class="node">
<title>DOMA&#45;/IWBEP/CP_PROXY_MODEL_DESCR</title>
<g id="a_node12"><a xlink:href="./DOMA_%23IWBEP%23CP_PROXY_MODEL_DESCR.html" xlink:title="DOMA&#45;/IWBEP/CP_PROXY_MODEL_DESCR">
<polygon fill="none" stroke="yellow" points="550.95,-36 255.57,-36 255.57,0 550.95,0 550.95,-36"/>
<text text-anchor="middle" x="403.26" y="-13.8" font-family="Times,serif" font-size="14.00">DOMA&#45;/IWBEP/CP_PROXY_MODEL_DESCR</text>
</a>
</g>
</g>
<!-- DTEL&#45;/IWBEP/CP_PROXY_MODEL_DESCR&#45;&gt;DOMA&#45;/IWBEP/CP_PROXY_MODEL_DESCR -->
<g id="edge28" class="edge">
<title>DTEL&#45;/IWBEP/CP_PROXY_MODEL_DESCR&#45;&gt;DOMA&#45;/IWBEP/CP_PROXY_MODEL_DESCR</title>
<path fill="none" stroke="black" d="M403.26,-71.7C403.26,-63.98 403.26,-54.71 403.26,-46.11"/>
<polygon fill="black" stroke="black" points="406.76,-46.1 403.26,-36.1 399.76,-46.1 406.76,-46.1"/>
</g>
<!-- DOMA&#45;SEOCLSNAME -->
<g id="node14" class="node">
<title>DOMA&#45;SEOCLSNAME</title>
<g id="a_node14"><a xlink:href="./DOMA_SEOCLSNAME.html" xlink:title="DOMA&#45;SEOCLSNAME">
<polygon fill="none" stroke="yellow" points="748.51,-36 592.01,-36 592.01,0 748.51,0 748.51,-36"/>
<text text-anchor="middle" x="670.26" y="-13.8" font-family="Times,serif" font-size="14.00">DOMA&#45;SEOCLSNAME</text>
</a>
</g>
</g>
<!-- DTEL&#45;/IWBEP/CP_MPC_NAME&#45;&gt;DOMA&#45;SEOCLSNAME -->
<g id="edge29" class="edge">
<title>DTEL&#45;/IWBEP/CP_MPC_NAME&#45;&gt;DOMA&#45;SEOCLSNAME</title>
<path fill="none" stroke="black" d="M670.26,-71.7C670.26,-63.98 670.26,-54.71 670.26,-46.11"/>
<polygon fill="black" stroke="black" points="673.76,-46.1 670.26,-36.1 666.76,-46.1 673.76,-46.1"/>
</g>
<!-- DOMA&#45;/IWBEP/CP_PROXY_MODEL_VERSION -->
<g id="node16" class="node">
<title>DOMA&#45;/IWBEP/CP_PROXY_MODEL_VERSION</title>
<g id="a_node16"><a xlink:href="./DOMA_%23IWBEP%23CP_PROXY_MODEL_VERSION.html" xlink:title="DOMA&#45;/IWBEP/CP_PROXY_MODEL_VERSION">
<polygon fill="none" stroke="yellow" points="1096.49,-36 786.04,-36 786.04,0 1096.49,0 1096.49,-36"/>
<text text-anchor="middle" x="941.26" y="-13.8" font-family="Times,serif" font-size="14.00">DOMA&#45;/IWBEP/CP_PROXY_MODEL_VERSION</text>
</a>
</g>
</g>
<!-- DTEL&#45;/IWBEP/CP_PROXY_MODEL_VERSION&#45;&gt;DOMA&#45;/IWBEP/CP_PROXY_MODEL_VERSION -->
<g id="edge30" class="edge">
<title>DTEL&#45;/IWBEP/CP_PROXY_MODEL_VERSION&#45;&gt;DOMA&#45;/IWBEP/CP_PROXY_MODEL_VERSION</title>
<path fill="none" stroke="black" d="M944.27,-71.7C943.83,-63.98 943.3,-54.71 942.81,-46.11"/>
<polygon fill="black" stroke="black" points="946.31,-45.89 942.24,-36.1 939.32,-46.29 946.31,-45.89"/>
</g>
<!-- DOMA&#45;/IWBEP/CP_PROXY_MODEL_ID -->
<g id="node18" class="node">
<title>DOMA&#45;/IWBEP/CP_PROXY_MODEL_ID</title>
<g id="a_node18"><a xlink:href="./DOMA_%23IWBEP%23CP_PROXY_MODEL_ID.html" xlink:title="DOMA&#45;/IWBEP/CP_PROXY_MODEL_ID">
<polygon fill="none" stroke="yellow" points="1379.6,-36 1114.92,-36 1114.92,0 1379.6,0 1379.6,-36"/>
<text text-anchor="middle" x="1247.26" y="-13.8" font-family="Times,serif" font-size="14.00">DOMA&#45;/IWBEP/CP_PROXY_MODEL_ID</text>
</a>
</g>
</g>
<!-- DTEL&#45;/IWBEP/CP_PROXY_MODEL_ID&#45;&gt;DOMA&#45;/IWBEP/CP_PROXY_MODEL_ID -->
<g id="edge31" class="edge">
<title>DTEL&#45;/IWBEP/CP_PROXY_MODEL_ID&#45;&gt;DOMA&#45;/IWBEP/CP_PROXY_MODEL_ID</title>
<path fill="none" stroke="black" d="M1245,-71.7C1245.34,-63.98 1245.73,-54.71 1246.1,-46.11"/>
<polygon fill="black" stroke="black" points="1249.6,-46.25 1246.53,-36.1 1242.6,-45.95 1249.6,-46.25"/>
</g>
<!-- DOMA&#45;NUMC3 -->
<g id="node20" class="node">
<title>DOMA&#45;NUMC3</title>
<g id="a_node20"><a xlink:href="./DOMA_NUMC3.html" xlink:title="DOMA&#45;NUMC3">
<polygon fill="none" stroke="yellow" points="1083.68,-180 970.84,-180 970.84,-144 1083.68,-144 1083.68,-180"/>
<text text-anchor="middle" x="1027.26" y="-157.8" font-family="Times,serif" font-size="14.00">DOMA&#45;NUMC3</text>
</a>
</g>
</g>
<!-- DTEL&#45;NUMC3&#45;&gt;DOMA&#45;NUMC3 -->
<g id="edge32" class="edge">
<title>DTEL&#45;NUMC3&#45;&gt;DOMA&#45;NUMC3</title>
<path fill="none" stroke="black" d="M1025.76,-215.7C1025.98,-207.98 1026.24,-198.71 1026.49,-190.11"/>
<polygon fill="black" stroke="black" points="1029.99,-190.2 1026.77,-180.1 1022.99,-190 1029.99,-190.2"/>
</g>
<!-- DOMA&#45;/IWBEP/CP_PROXY_MODEL_REPO_ID -->
<g id="node22" class="node">
<title>DOMA&#45;/IWBEP/CP_PROXY_MODEL_REPO_ID</title>
<g id="a_node22"><a xlink:href="./DOMA_%23IWBEP%23CP_PROXY_MODEL_REPO_ID.html" xlink:title="DOMA&#45;/IWBEP/CP_PROXY_MODEL_REPO_ID">
<polygon fill="none" stroke="yellow" points="1408.88,-180 1101.64,-180 1101.64,-144 1408.88,-144 1408.88,-180"/>
<text text-anchor="middle" x="1255.26" y="-157.8" font-family="Times,serif" font-size="14.00">DOMA&#45;/IWBEP/CP_PROXY_MODEL_REPO_ID</text>
</a>
</g>
</g>
<!-- DTEL&#45;/IWBEP/CP_PROXY_MODEL_REPO_ID&#45;&gt;DOMA&#45;/IWBEP/CP_PROXY_MODEL_REPO_ID -->
<g id="edge33" class="edge">
<title>DTEL&#45;/IWBEP/CP_PROXY_MODEL_REPO_ID&#45;&gt;DOMA&#45;/IWBEP/CP_PROXY_MODEL_REPO_ID</title>
<path fill="none" stroke="black" d="M1248.49,-215.7C1249.48,-207.98 1250.67,-198.71 1251.78,-190.11"/>
<polygon fill="black" stroke="black" points="1255.26,-190.47 1253.06,-180.1 1248.32,-189.58 1255.26,-190.47"/>
</g>
<!-- DOMA&#45;CHAR30 -->
<g id="node24" class="node">
<title>DOMA&#45;CHAR30</title>
<g id="a_node24"><a xlink:href="./DOMA_CHAR30.html" xlink:title="DOMA&#45;CHAR30">
<polygon fill="none" stroke="green" points="1543.57,-180 1426.95,-180 1426.95,-144 1543.57,-144 1543.57,-180"/>
<text text-anchor="middle" x="1485.26" y="-157.8" font-family="Times,serif" font-size="14.00">DOMA&#45;CHAR30</text>
</a>
</g>
</g>
<!-- DTEL&#45;CHAR30&#45;&gt;DOMA&#45;CHAR30 -->
<g id="edge34" class="edge">
<title>DTEL&#45;CHAR30&#45;&gt;DOMA&#45;CHAR30</title>
<path fill="none" stroke="black" d="M1473.22,-215.7C1474.98,-207.98 1477.1,-198.71 1479.07,-190.11"/>
<polygon fill="black" stroke="black" points="1482.54,-190.63 1481.35,-180.1 1475.71,-189.07 1482.54,-190.63"/>
</g>
<!-- DOMA&#45;CHAR40 -->
<g id="node26" class="node">
<title>DOMA&#45;CHAR40</title>
<g id="a_node26"><a xlink:href="./DOMA_CHAR40.html" xlink:title="DOMA&#45;CHAR40">
<polygon fill="none" stroke="yellow" points="1677.57,-180 1560.95,-180 1560.95,-144 1677.57,-144 1677.57,-180"/>
<text text-anchor="middle" x="1619.26" y="-157.8" font-family="Times,serif" font-size="14.00">DOMA&#45;CHAR40</text>
</a>
</g>
</g>
<!-- DTEL&#45;CHAR40&#45;&gt;DOMA&#45;CHAR40 -->
<g id="edge35" class="edge">
<title>DTEL&#45;CHAR40&#45;&gt;DOMA&#45;CHAR40</title>
<path fill="none" stroke="black" d="M1601.95,-215.7C1604.51,-207.9 1607.6,-198.51 1610.45,-189.83"/>
<polygon fill="black" stroke="black" points="1613.85,-190.7 1613.64,-180.1 1607.2,-188.51 1613.85,-190.7"/>
</g>
<!-- DOMA&#45;/IWBEP/L_CP_DLTA -->
<g id="node28" class="node">
<title>DOMA&#45;/IWBEP/L_CP_DLTA</title>
<g id="a_node28"><a xlink:href="./DOMA_%23IWBEP%23L_CP_DLTA.html" xlink:title="DOMA&#45;/IWBEP/L_CP_DLTA">
<polygon fill="none" stroke="yellow" points="1892.01,-180 1700.52,-180 1700.52,-144 1892.01,-144 1892.01,-180"/>
<text text-anchor="middle" x="1796.26" y="-157.8" font-family="Times,serif" font-size="14.00">DOMA&#45;/IWBEP/L_CP_DLTA</text>
</a>
</g>
</g>
<!-- DTEL&#45;/IWBEP/CP_DELTA_QUERY_ID&#45;&gt;DOMA&#45;/IWBEP/L_CP_DLTA -->
<g id="edge36" class="edge">
<title>DTEL&#45;/IWBEP/CP_DELTA_QUERY_ID&#45;&gt;DOMA&#45;/IWBEP/L_CP_DLTA</title>
<path fill="none" stroke="black" d="M1796.26,-215.7C1796.26,-207.98 1796.26,-198.71 1796.26,-190.11"/>
<polygon fill="black" stroke="black" points="1799.76,-190.1 1796.26,-180.1 1792.76,-190.1 1799.76,-190.1"/>
</g>
<!-- INTF&#45;/IWBEP/IF_CP_RESPONSE_READ_LST&#45;&gt;INTF&#45;/IWBEP/IF_CP_RUNTIME_TYPES -->
<g id="edge37" class="edge">
<title>INTF&#45;/IWBEP/IF_CP_RESPONSE_READ_LST&#45;&gt;INTF&#45;/IWBEP/IF_CP_RUNTIME_TYPES</title>
<path fill="none" stroke="black" d="M1225.18,-359.7C1228.34,-351.81 1232.14,-342.3 1235.64,-333.55"/>
<polygon fill="black" stroke="black" points="1238.96,-334.69 1239.42,-324.1 1232.46,-332.09 1238.96,-334.69"/>
</g>
<!-- INTF&#45;/IWBEP/IF_CP_FILTER_FACTORY&#45;&gt;INTF&#45;/IWBEP/IF_CP_FILTER_NODE -->
<g id="edge41" class="edge">
<title>INTF&#45;/IWBEP/IF_CP_FILTER_FACTORY&#45;&gt;INTF&#45;/IWBEP/IF_CP_FILTER_NODE</title>
<path fill="none" stroke="black" d="M1649.88,-360.83C1646.98,-360.54 1644.11,-360.27 1641.26,-360 1407.66,-338.16 1345.65,-347.29 1108.37,-324.07"/>
<polygon fill="black" stroke="black" points="1108.7,-320.59 1098.4,-323.09 1108.01,-327.55 1108.7,-320.59"/>
</g>
<!-- INTF&#45;/IWBEP/IF_CP_FILTER_FACTORY&#45;&gt;INTF&#45;/IWBEP/IF_CP_RUNTIME_TYPES -->
<g id="edge40" class="edge">
<title>INTF&#45;/IWBEP/IF_CP_FILTER_FACTORY&#45;&gt;INTF&#45;/IWBEP/IF_CP_RUNTIME_TYPES</title>
<path fill="none" stroke="black" d="M1652.58,-359.97C1572.04,-349.47 1468.78,-336.01 1386.52,-325.28"/>
<polygon fill="black" stroke="black" points="1386.96,-321.81 1376.6,-323.99 1386.06,-328.75 1386.96,-321.81"/>
</g>
<!-- DTEL&#45;MSEHI -->
<g id="node32" class="node">
<title>DTEL&#45;MSEHI</title>
<g id="a_node32"><a xlink:href="./DTEL_MSEHI.html" xlink:title="DTEL&#45;MSEHI">
<polygon fill="none" stroke="green" points="1875.24,-324 1775.29,-324 1775.29,-288 1875.24,-288 1875.24,-324"/>
<text text-anchor="middle" x="1825.26" y="-301.8" font-family="Times,serif" font-size="14.00">DTEL&#45;MSEHI</text>
</a>
</g>
</g>
<!-- INTF&#45;/IWBEP/IF_CP_FILTER_FACTORY&#45;&gt;DTEL&#45;MSEHI -->
<g id="edge39" class="edge">
<title>INTF&#45;/IWBEP/IF_CP_FILTER_FACTORY&#45;&gt;DTEL&#45;MSEHI</title>
<path fill="none" stroke="black" d="M1793.65,-359.7C1798.53,-351.56 1804.45,-341.69 1809.84,-332.7"/>
<polygon fill="black" stroke="black" points="1812.86,-334.48 1815,-324.1 1806.85,-330.88 1812.86,-334.48"/>
</g>
<!-- DTEL&#45;WAERS_CURC -->
<g id="node34" class="node">
<title>DTEL&#45;WAERS_CURC</title>
<g id="a_node34"><a xlink:href="./DTEL_WAERS_CURC.html" xlink:title="DTEL&#45;WAERS_CURC">
<polygon fill="none" stroke="green" points="2155.3,-324 2005.23,-324 2005.23,-288 2155.3,-288 2155.3,-324"/>
<text text-anchor="middle" x="2080.26" y="-301.8" font-family="Times,serif" font-size="14.00">DTEL&#45;WAERS_CURC</text>
</a>
</g>
</g>
<!-- INTF&#45;/IWBEP/IF_CP_FILTER_FACTORY&#45;&gt;DTEL&#45;WAERS_CURC -->
<g id="edge38" class="edge">
<title>INTF&#45;/IWBEP/IF_CP_FILTER_FACTORY&#45;&gt;DTEL&#45;WAERS_CURC</title>
<path fill="none" stroke="black" d="M1855.54,-359.97C1898.56,-349.83 1953.29,-336.93 1997.97,-326.4"/>
<polygon fill="black" stroke="black" points="1998.99,-329.75 2007.92,-324.05 1997.39,-322.94 1998.99,-329.75"/>
</g>
<!-- DOMA&#45;MEINS -->
<g id="node33" class="node">
<title>DOMA&#45;MEINS</title>
<g id="a_node33"><a xlink:href="./DOMA_MEINS.html" xlink:title="DOMA&#45;MEINS">
<polygon fill="none" stroke="green" points="2048.74,-252 1941.79,-252 1941.79,-216 2048.74,-216 2048.74,-252"/>
<text text-anchor="middle" x="1995.26" y="-229.8" font-family="Times,serif" font-size="14.00">DOMA&#45;MEINS</text>
</a>
</g>
</g>
<!-- DTEL&#45;MSEHI&#45;&gt;DOMA&#45;MEINS -->
<g id="edge42" class="edge">
<title>DTEL&#45;MSEHI&#45;&gt;DOMA&#45;MEINS</title>
<path fill="none" stroke="black" d="M1866.85,-287.88C1890.3,-278.22 1919.77,-266.09 1944.56,-255.88"/>
<polygon fill="black" stroke="black" points="1945.9,-259.11 1953.81,-252.07 1943.23,-252.64 1945.9,-259.11"/>
</g>
<!-- DOMA&#45;WAERS -->
<g id="node35" class="node">
<title>DOMA&#45;WAERS</title>
<g id="a_node35"><a xlink:href="./DOMA_WAERS.html" xlink:title="DOMA&#45;WAERS">
<polygon fill="none" stroke="green" points="2179.68,-252 2066.84,-252 2066.84,-216 2179.68,-216 2179.68,-252"/>
<text text-anchor="middle" x="2123.26" y="-229.8" font-family="Times,serif" font-size="14.00">DOMA&#45;WAERS</text>
</a>
</g>
</g>
<!-- DTEL&#45;WAERS_CURC&#45;&gt;DOMA&#45;WAERS -->
<g id="edge43" class="edge">
<title>DTEL&#45;WAERS_CURC&#45;&gt;DOMA&#45;WAERS</title>
<path fill="none" stroke="black" d="M2090.89,-287.7C2095.89,-279.56 2101.95,-269.69 2107.48,-260.7"/>
<polygon fill="black" stroke="black" points="2110.5,-262.46 2112.76,-252.1 2104.54,-258.79 2110.5,-262.46"/>
</g>
<!-- INTF&#45;/IWBEP/IF_CP_EXPAND_NODE&#45;&gt;INTF&#45;/IWBEP/IF_CP_RUNTIME_TYPES -->
<g id="edge44" class="edge">
<title>INTF&#45;/IWBEP/IF_CP_EXPAND_NODE&#45;&gt;INTF&#45;/IWBEP/IF_CP_RUNTIME_TYPES</title>
<path fill="none" stroke="black" d="M1443.75,-359.97C1406.33,-349.93 1358.83,-337.19 1319.79,-326.72"/>
<polygon fill="black" stroke="black" points="1320.63,-323.32 1310.06,-324.11 1318.81,-330.08 1320.63,-323.32"/>
</g>
</g>
</svg>
