<?xml version="1.0" encoding="UTF-8" standalone="no"?>
<!DOCTYPE svg PUBLIC "-//W3C//DTD SVG 1.1//EN"
 "http://www.w3.org/Graphics/SVG/1.1/DTD/svg11.dtd">
<!-- Generated by graphviz version 2.47.3 (20210619.1520)
 -->
<!-- Title: G Pages: 1 -->
<svg width="1367pt" height="404pt"
 viewBox="0.00 0.00 1366.95 404.00" xmlns="http://www.w3.org/2000/svg" xmlns:xlink="http://www.w3.org/1999/xlink">
<g id="graph0" class="graph" transform="scale(1 1) rotate(0) translate(4 400)">
<title>G</title>
<polygon fill="white" stroke="transparent" points="-4,4 -4,-400 1362.95,-400 1362.95,4 -4,4"/>
<!-- INTF&#45;IF_SXML_READER -->
<g id="node1" class="node">
<title>INTF&#45;IF_SXML_READER</title>
<polygon fill="none" stroke="green" points="593.9,-396 420.73,-396 420.73,-360 593.9,-360 593.9,-396"/>
<text text-anchor="middle" x="507.32" y="-373.8" font-family="Times,serif" font-size="14.00">INTF&#45;IF_SXML_READER</text>
</g>
<!-- CLAS&#45;CL_VSI_KERNEL -->
<g id="node2" class="node">
<title>CLAS&#45;CL_VSI_KERNEL</title>
<g id="a_node2"><a xlink:href="./CLAS_CL_VSI_KERNEL.html" xlink:title="CLAS&#45;CL_VSI_KERNEL">
<polygon fill="none" stroke="yellow" points="170.4,-252 4.23,-252 4.23,-216 170.4,-216 170.4,-252"/>
<text text-anchor="middle" x="87.32" y="-229.8" font-family="Times,serif" font-size="14.00">CLAS&#45;CL_VSI_KERNEL</text>
</a>
</g>
</g>
<!-- INTF&#45;IF_SXML_READER&#45;&gt;CLAS&#45;CL_VSI_KERNEL -->
<g id="edge6" class="edge">
<title>INTF&#45;IF_SXML_READER&#45;&gt;CLAS&#45;CL_VSI_KERNEL</title>
<path fill="none" stroke="black" d="M456.66,-359.87C378.9,-333.58 230.44,-283.39 147.38,-255.31"/>
<polygon fill="black" stroke="black" points="148.43,-251.97 137.83,-252.08 146.19,-258.6 148.43,-251.97"/>
</g>
<!-- INTF&#45;IF_SXML_WRITER -->
<g id="node5" class="node">
<title>INTF&#45;IF_SXML_WRITER</title>
<g id="a_node5"><a xlink:href="./INTF_IF_SXML_WRITER.html" xlink:title="INTF&#45;IF_SXML_WRITER">
<polygon fill="none" stroke="green" points="737.57,-324 567.07,-324 567.07,-288 737.57,-288 737.57,-324"/>
<text text-anchor="middle" x="652.32" y="-301.8" font-family="Times,serif" font-size="14.00">INTF&#45;IF_SXML_WRITER</text>
</a>
</g>
</g>
<!-- INTF&#45;IF_SXML_READER&#45;&gt;INTF&#45;IF_SXML_WRITER -->
<g id="edge5" class="edge">
<title>INTF&#45;IF_SXML_READER&#45;&gt;INTF&#45;IF_SXML_WRITER</title>
<path fill="none" stroke="black" d="M542.79,-359.88C562.44,-350.39 587.04,-338.51 607.95,-328.42"/>
<polygon fill="black" stroke="black" points="609.48,-331.57 616.96,-324.07 606.44,-325.26 609.48,-331.57"/>
</g>
<!-- INTF&#45;IF_SXML_NODE -->
<g id="node6" class="node">
<title>INTF&#45;IF_SXML_NODE</title>
<g id="a_node6"><a xlink:href="./INTF_IF_SXML_NODE.html" xlink:title="INTF&#45;IF_SXML_NODE">
<polygon fill="none" stroke="green" points="767.28,-180 611.35,-180 611.35,-144 767.28,-144 767.28,-180"/>
<text text-anchor="middle" x="689.32" y="-157.8" font-family="Times,serif" font-size="14.00">INTF&#45;IF_SXML_NODE</text>
</a>
</g>
</g>
<!-- INTF&#45;IF_SXML_READER&#45;&gt;INTF&#45;IF_SXML_NODE -->
<g id="edge1" class="edge">
<title>INTF&#45;IF_SXML_READER&#45;&gt;INTF&#45;IF_SXML_NODE</title>
<path fill="none" stroke="black" d="M492.22,-359.87C466.24,-328.27 419.13,-260.01 454.32,-216 472.78,-192.92 542.47,-179.17 601.21,-171.48"/>
<polygon fill="black" stroke="black" points="601.8,-174.94 611.28,-170.21 600.92,-167.99 601.8,-174.94"/>
</g>
<!-- INTF&#45;IF_SXML_VALUE -->
<g id="node11" class="node">
<title>INTF&#45;IF_SXML_VALUE</title>
<g id="a_node11"><a xlink:href="./INTF_IF_SXML_VALUE.html" xlink:title="INTF&#45;IF_SXML_VALUE">
<polygon fill="none" stroke="green" points="1152.34,-108 988.3,-108 988.3,-72 1152.34,-72 1152.34,-108"/>
<text text-anchor="middle" x="1070.32" y="-85.8" font-family="Times,serif" font-size="14.00">INTF&#45;IF_SXML_VALUE</text>
</a>
</g>
</g>
<!-- INTF&#45;IF_SXML_READER&#45;&gt;INTF&#45;IF_SXML_VALUE -->
<g id="edge2" class="edge">
<title>INTF&#45;IF_SXML_READER&#45;&gt;INTF&#45;IF_SXML_VALUE</title>
<path fill="none" stroke="black" d="M593.89,-377.87C788.28,-377.77 1249.82,-365.34 1344.32,-252 1404.42,-179.93 1263.71,-132.55 1162.49,-108.88"/>
<polygon fill="black" stroke="black" points="1163.05,-105.41 1152.52,-106.59 1161.49,-112.24 1163.05,-105.41"/>
</g>
<!-- INTF&#45;IF_SXML_NSURI_HELPER -->
<g id="node14" class="node">
<title>INTF&#45;IF_SXML_NSURI_HELPER</title>
<g id="a_node14"><a xlink:href="./INTF_IF_SXML_NSURI_HELPER.html" xlink:title="INTF&#45;IF_SXML_NSURI_HELPER">
<polygon fill="none" stroke="green" points="407.79,-252 188.85,-252 188.85,-216 407.79,-216 407.79,-252"/>
<text text-anchor="middle" x="298.32" y="-229.8" font-family="Times,serif" font-size="14.00">INTF&#45;IF_SXML_NSURI_HELPER</text>
</a>
</g>
</g>
<!-- INTF&#45;IF_SXML_READER&#45;&gt;INTF&#45;IF_SXML_NSURI_HELPER -->
<g id="edge4" class="edge">
<title>INTF&#45;IF_SXML_READER&#45;&gt;INTF&#45;IF_SXML_NSURI_HELPER</title>
<path fill="none" stroke="black" d="M478.32,-359.86C461.48,-349.73 439.98,-336.48 421.32,-324 389.37,-302.64 353.91,-276.74 329.31,-258.4"/>
<polygon fill="black" stroke="black" points="331.19,-255.43 321.08,-252.25 327,-261.04 331.19,-255.43"/>
</g>
<!-- INTF&#45;IF_SXML -->
<g id="node15" class="node">
<title>INTF&#45;IF_SXML</title>
<g id="a_node15"><a xlink:href="./INTF_IF_SXML.html" xlink:title="INTF&#45;IF_SXML">
<polygon fill="none" stroke="green" points="1335.41,-252 1225.23,-252 1225.23,-216 1335.41,-216 1335.41,-252"/>
<text text-anchor="middle" x="1280.32" y="-229.8" font-family="Times,serif" font-size="14.00">INTF&#45;IF_SXML</text>
</a>
</g>
</g>
<!-- INTF&#45;IF_SXML_READER&#45;&gt;INTF&#45;IF_SXML -->
<g id="edge3" class="edge">
<title>INTF&#45;IF_SXML_READER&#45;&gt;INTF&#45;IF_SXML</title>
<path fill="none" stroke="black" d="M594.01,-364.15C726.19,-344.03 986.08,-302.33 1215.37,-252.12"/>
<polygon fill="black" stroke="black" points="1216.22,-255.52 1225.23,-249.95 1214.72,-248.68 1216.22,-255.52"/>
</g>
<!-- DTEL&#45;VSCAN_PROFILE -->
<g id="node3" class="node">
<title>DTEL&#45;VSCAN_PROFILE</title>
<g id="a_node3"><a xlink:href="./DTEL_VSCAN_PROFILE.html" xlink:title="DTEL&#45;VSCAN_PROFILE">
<polygon fill="none" stroke="yellow" points="170.96,-180 3.68,-180 3.68,-144 170.96,-144 170.96,-180"/>
<text text-anchor="middle" x="87.32" y="-157.8" font-family="Times,serif" font-size="14.00">DTEL&#45;VSCAN_PROFILE</text>
</a>
</g>
</g>
<!-- CLAS&#45;CL_VSI_KERNEL&#45;&gt;DTEL&#45;VSCAN_PROFILE -->
<g id="edge7" class="edge">
<title>CLAS&#45;CL_VSI_KERNEL&#45;&gt;DTEL&#45;VSCAN_PROFILE</title>
<path fill="none" stroke="black" d="M87.32,-215.7C87.32,-207.98 87.32,-198.71 87.32,-190.11"/>
<polygon fill="black" stroke="black" points="90.82,-190.1 87.32,-180.1 83.82,-190.1 90.82,-190.1"/>
</g>
<!-- DOMA&#45;VSCAN_PROFILE -->
<g id="node4" class="node">
<title>DOMA&#45;VSCAN_PROFILE</title>
<g id="a_node4"><a xlink:href="./DOMA_VSCAN_PROFILE.html" xlink:title="DOMA&#45;VSCAN_PROFILE">
<polygon fill="none" stroke="yellow" points="174.46,-108 0.18,-108 0.18,-72 174.46,-72 174.46,-108"/>
<text text-anchor="middle" x="87.32" y="-85.8" font-family="Times,serif" font-size="14.00">DOMA&#45;VSCAN_PROFILE</text>
</a>
</g>
</g>
<!-- DTEL&#45;VSCAN_PROFILE&#45;&gt;DOMA&#45;VSCAN_PROFILE -->
<g id="edge8" class="edge">
<title>DTEL&#45;VSCAN_PROFILE&#45;&gt;DOMA&#45;VSCAN_PROFILE</title>
<path fill="none" stroke="black" d="M87.32,-143.7C87.32,-135.98 87.32,-126.71 87.32,-118.11"/>
<polygon fill="black" stroke="black" points="90.82,-118.1 87.32,-108.1 83.82,-118.1 90.82,-118.1"/>
</g>
<!-- INTF&#45;IF_SXML_WRITER&#45;&gt;CLAS&#45;CL_VSI_KERNEL -->
<g id="edge15" class="edge">
<title>INTF&#45;IF_SXML_WRITER&#45;&gt;CLAS&#45;CL_VSI_KERNEL</title>
<path fill="none" stroke="black" d="M566.82,-297.19C472.09,-288.12 314.92,-271.84 180.32,-252 180.22,-251.99 180.12,-251.97 180.01,-251.96"/>
<polygon fill="black" stroke="black" points="180.84,-248.54 170.42,-250.48 179.78,-255.46 180.84,-248.54"/>
</g>
<!-- INTF&#45;IF_SXML_WRITER&#45;&gt;INTF&#45;IF_SXML_NODE -->
<g id="edge14" class="edge">
<title>INTF&#45;IF_SXML_WRITER&#45;&gt;INTF&#45;IF_SXML_NODE</title>
<path fill="none" stroke="black" d="M677.25,-287.86C688.38,-278.67 700.32,-266.29 706.32,-252 714.74,-231.93 709.09,-207.55 702.12,-189.39"/>
<polygon fill="black" stroke="black" points="705.29,-187.88 698.2,-180 698.83,-190.58 705.29,-187.88"/>
</g>
<!-- INTF&#45;IF_SXML_CLOSE_ELEMENT -->
<g id="node7" class="node">
<title>INTF&#45;IF_SXML_CLOSE_ELEMENT</title>
<g id="a_node7"><a xlink:href="./INTF_IF_SXML_CLOSE_ELEMENT.html" xlink:title="INTF&#45;IF_SXML_CLOSE_ELEMENT">
<polygon fill="none" stroke="green" points="697.06,-252 463.58,-252 463.58,-216 697.06,-216 697.06,-252"/>
<text text-anchor="middle" x="580.32" y="-229.8" font-family="Times,serif" font-size="14.00">INTF&#45;IF_SXML_CLOSE_ELEMENT</text>
</a>
</g>
</g>
<!-- INTF&#45;IF_SXML_WRITER&#45;&gt;INTF&#45;IF_SXML_CLOSE_ELEMENT -->
<g id="edge13" class="edge">
<title>INTF&#45;IF_SXML_WRITER&#45;&gt;INTF&#45;IF_SXML_CLOSE_ELEMENT</title>
<path fill="none" stroke="black" d="M634.52,-287.7C625.72,-279.14 614.94,-268.66 605.32,-259.3"/>
<polygon fill="black" stroke="black" points="607.52,-256.57 597.91,-252.1 602.64,-261.58 607.52,-256.57"/>
</g>
<!-- INTF&#45;IF_SXML_VALUE_NODE -->
<g id="node10" class="node">
<title>INTF&#45;IF_SXML_VALUE_NODE</title>
<g id="a_node10"><a xlink:href="./INTF_IF_SXML_VALUE_NODE.html" xlink:title="INTF&#45;IF_SXML_VALUE_NODE">
<polygon fill="none" stroke="green" points="1207.71,-252 996.93,-252 996.93,-216 1207.71,-216 1207.71,-252"/>
<text text-anchor="middle" x="1102.32" y="-229.8" font-family="Times,serif" font-size="14.00">INTF&#45;IF_SXML_VALUE_NODE</text>
</a>
</g>
</g>
<!-- INTF&#45;IF_SXML_WRITER&#45;&gt;INTF&#45;IF_SXML_VALUE_NODE -->
<g id="edge12" class="edge">
<title>INTF&#45;IF_SXML_WRITER&#45;&gt;INTF&#45;IF_SXML_VALUE_NODE</title>
<path fill="none" stroke="black" d="M737.75,-291.71C808.26,-280.74 908.97,-265.08 986.69,-252.99"/>
<polygon fill="black" stroke="black" points="987.67,-256.38 997.01,-251.38 986.59,-249.46 987.67,-256.38"/>
</g>
<!-- INTF&#45;IF_SXML_OPEN_ELEMENT -->
<g id="node12" class="node">
<title>INTF&#45;IF_SXML_OPEN_ELEMENT</title>
<g id="a_node12"><a xlink:href="./INTF_IF_SXML_OPEN_ELEMENT.html" xlink:title="INTF&#45;IF_SXML_OPEN_ELEMENT">
<polygon fill="none" stroke="green" points="979.27,-252 753.36,-252 753.36,-216 979.27,-216 979.27,-252"/>
<text text-anchor="middle" x="866.32" y="-229.8" font-family="Times,serif" font-size="14.00">INTF&#45;IF_SXML_OPEN_ELEMENT</text>
</a>
</g>
</g>
<!-- INTF&#45;IF_SXML_WRITER&#45;&gt;INTF&#45;IF_SXML_OPEN_ELEMENT -->
<g id="edge11" class="edge">
<title>INTF&#45;IF_SXML_WRITER&#45;&gt;INTF&#45;IF_SXML_OPEN_ELEMENT</title>
<path fill="none" stroke="black" d="M704.4,-287.97C734.56,-278.1 772.7,-265.62 804.4,-255.25"/>
<polygon fill="black" stroke="black" points="805.59,-258.55 814.01,-252.11 803.42,-251.89 805.59,-258.55"/>
</g>
<!-- INTF&#45;IF_SXML_WRITER&#45;&gt;INTF&#45;IF_SXML_NSURI_HELPER -->
<g id="edge10" class="edge">
<title>INTF&#45;IF_SXML_WRITER&#45;&gt;INTF&#45;IF_SXML_NSURI_HELPER</title>
<path fill="none" stroke="black" d="M566.63,-288.05C514.61,-277.77 448.12,-264.62 394.34,-253.99"/>
<polygon fill="black" stroke="black" points="394.94,-250.54 384.45,-252.03 393.58,-257.41 394.94,-250.54"/>
</g>
<!-- INTF&#45;IF_SXML_WRITER&#45;&gt;INTF&#45;IF_SXML -->
<g id="edge9" class="edge">
<title>INTF&#45;IF_SXML_WRITER&#45;&gt;INTF&#45;IF_SXML</title>
<path fill="none" stroke="black" d="M737.95,-301.38C846.93,-295.78 1040.97,-282.49 1215.09,-252.06"/>
<polygon fill="black" stroke="black" points="1215.71,-255.5 1224.94,-250.31 1214.49,-248.61 1215.71,-255.5"/>
</g>
<!-- INTF&#45;IF_SXML_CLOSE_ELEMENT&#45;&gt;INTF&#45;IF_SXML_NODE -->
<g id="edge17" class="edge">
<title>INTF&#45;IF_SXML_CLOSE_ELEMENT&#45;&gt;INTF&#45;IF_SXML_NODE</title>
<path fill="none" stroke="black" d="M606.98,-215.88C621.1,-206.81 638.63,-195.55 653.88,-185.76"/>
<polygon fill="black" stroke="black" points="656.03,-188.54 662.55,-180.19 652.25,-182.65 656.03,-188.54"/>
</g>
<!-- INTF&#45;IF_SXML_NAMED -->
<g id="node8" class="node">
<title>INTF&#45;IF_SXML_NAMED</title>
<g id="a_node8"><a xlink:href="./INTF_IF_SXML_NAMED.html" xlink:title="INTF&#45;IF_SXML_NAMED">
<polygon fill="none" stroke="green" points="772.73,-108 603.91,-108 603.91,-72 772.73,-72 772.73,-108"/>
<text text-anchor="middle" x="688.32" y="-85.8" font-family="Times,serif" font-size="14.00">INTF&#45;IF_SXML_NAMED</text>
</a>
</g>
</g>
<!-- INTF&#45;IF_SXML_CLOSE_ELEMENT&#45;&gt;INTF&#45;IF_SXML_NAMED -->
<g id="edge16" class="edge">
<title>INTF&#45;IF_SXML_CLOSE_ELEMENT&#45;&gt;INTF&#45;IF_SXML_NAMED</title>
<path fill="none" stroke="black" d="M580.77,-215.99C582.06,-196.8 586.65,-165.47 602.32,-144 611.56,-131.33 624.84,-121.05 638.21,-113.03"/>
<polygon fill="black" stroke="black" points="639.98,-116.05 646.96,-108.08 636.53,-109.95 639.98,-116.05"/>
</g>
<!-- TABL&#45;QNAME -->
<g id="node9" class="node">
<title>TABL&#45;QNAME</title>
<g id="a_node9"><a xlink:href="./TABL_QNAME.html" xlink:title="TABL&#45;QNAME">
<polygon fill="none" stroke="green" points="742.35,-36 634.29,-36 634.29,0 742.35,0 742.35,-36"/>
<text text-anchor="middle" x="688.32" y="-13.8" font-family="Times,serif" font-size="14.00">TABL&#45;QNAME</text>
</a>
</g>
</g>
<!-- INTF&#45;IF_SXML_NAMED&#45;&gt;TABL&#45;QNAME -->
<g id="edge18" class="edge">
<title>INTF&#45;IF_SXML_NAMED&#45;&gt;TABL&#45;QNAME</title>
<path fill="none" stroke="black" d="M688.32,-71.7C688.32,-63.98 688.32,-54.71 688.32,-46.11"/>
<polygon fill="black" stroke="black" points="691.82,-46.1 688.32,-36.1 684.82,-46.1 691.82,-46.1"/>
</g>
<!-- INTF&#45;IF_SXML_VALUE_NODE&#45;&gt;INTF&#45;IF_SXML_NODE -->
<g id="edge19" class="edge">
<title>INTF&#45;IF_SXML_VALUE_NODE&#45;&gt;INTF&#45;IF_SXML_NODE</title>
<path fill="none" stroke="black" d="M1001.82,-215.97C933.23,-204.34 843.24,-189.09 777.45,-177.94"/>
<polygon fill="black" stroke="black" points="777.96,-174.47 767.52,-176.25 776.79,-181.38 777.96,-174.47"/>
</g>
<!-- INTF&#45;IF_SXML_VALUE_NODE&#45;&gt;INTF&#45;IF_SXML_VALUE -->
<g id="edge20" class="edge">
<title>INTF&#45;IF_SXML_VALUE_NODE&#45;&gt;INTF&#45;IF_SXML_VALUE</title>
<path fill="none" stroke="black" d="M1098.46,-215.87C1092.98,-191.56 1082.9,-146.82 1076.41,-118.01"/>
<polygon fill="black" stroke="black" points="1079.81,-117.18 1074.19,-108.19 1072.98,-118.71 1079.81,-117.18"/>
</g>
<!-- INTF&#45;IF_SXML_OPEN_ELEMENT&#45;&gt;INTF&#45;IF_SXML_NODE -->
<g id="edge22" class="edge">
<title>INTF&#45;IF_SXML_OPEN_ELEMENT&#45;&gt;INTF&#45;IF_SXML_NODE</title>
<path fill="none" stroke="black" d="M823.02,-215.88C798.61,-206.22 767.92,-194.09 742.11,-183.88"/>
<polygon fill="black" stroke="black" points="743.06,-180.49 732.48,-180.07 740.49,-187 743.06,-180.49"/>
</g>
<!-- INTF&#45;IF_SXML_OPEN_ELEMENT&#45;&gt;INTF&#45;IF_SXML_NAMED -->
<g id="edge21" class="edge">
<title>INTF&#45;IF_SXML_OPEN_ELEMENT&#45;&gt;INTF&#45;IF_SXML_NAMED</title>
<path fill="none" stroke="black" d="M849.3,-215.73C825.45,-191.6 784.13,-150.07 776.32,-144 761.84,-132.74 744.8,-121.98 729.59,-113.13"/>
<polygon fill="black" stroke="black" points="731.29,-110.07 720.87,-108.15 727.82,-116.15 731.29,-110.07"/>
</g>
<!-- INTF&#45;IF_SXML_OPEN_ELEMENT&#45;&gt;INTF&#45;IF_SXML_VALUE -->
<g id="edge24" class="edge">
<title>INTF&#45;IF_SXML_OPEN_ELEMENT&#45;&gt;INTF&#45;IF_SXML_VALUE</title>
<path fill="none" stroke="black" d="M958.74,-215.91C982.76,-208.05 1007.22,-196.61 1026.32,-180 1045.04,-163.72 1056.62,-137.62 1063.17,-117.88"/>
<polygon fill="black" stroke="black" points="1066.54,-118.81 1066.14,-108.23 1059.85,-116.75 1066.54,-118.81"/>
</g>
<!-- INTF&#45;IF_SXML_ATTRIBUTE -->
<g id="node13" class="node">
<title>INTF&#45;IF_SXML_ATTRIBUTE</title>
<g id="a_node13"><a xlink:href="./INTF_IF_SXML_ATTRIBUTE.html" xlink:title="INTF&#45;IF_SXML_ATTRIBUTE">
<polygon fill="none" stroke="green" points="1017.67,-180 822.97,-180 822.97,-144 1017.67,-144 1017.67,-180"/>
<text text-anchor="middle" x="920.32" y="-157.8" font-family="Times,serif" font-size="14.00">INTF&#45;IF_SXML_ATTRIBUTE</text>
</a>
</g>
</g>
<!-- INTF&#45;IF_SXML_OPEN_ELEMENT&#45;&gt;INTF&#45;IF_SXML_ATTRIBUTE -->
<g id="edge23" class="edge">
<title>INTF&#45;IF_SXML_OPEN_ELEMENT&#45;&gt;INTF&#45;IF_SXML_ATTRIBUTE</title>
<path fill="none" stroke="black" d="M879.67,-215.7C886.08,-207.39 893.88,-197.28 900.92,-188.14"/>
<polygon fill="black" stroke="black" points="903.79,-190.16 907.12,-180.1 898.25,-185.88 903.79,-190.16"/>
</g>
<!-- INTF&#45;IF_SXML_ATTRIBUTE&#45;&gt;INTF&#45;IF_SXML_NAMED -->
<g id="edge25" class="edge">
<title>INTF&#45;IF_SXML_ATTRIBUTE&#45;&gt;INTF&#45;IF_SXML_NAMED</title>
<path fill="none" stroke="black" d="M863.86,-143.97C831.02,-134.06 789.45,-121.51 755.01,-111.12"/>
<polygon fill="black" stroke="black" points="755.61,-107.65 745.03,-108.11 753.59,-114.35 755.61,-107.65"/>
</g>
<!-- INTF&#45;IF_SXML_ATTRIBUTE&#45;&gt;INTF&#45;IF_SXML_VALUE -->
<g id="edge26" class="edge">
<title>INTF&#45;IF_SXML_ATTRIBUTE&#45;&gt;INTF&#45;IF_SXML_VALUE</title>
<path fill="none" stroke="black" d="M957.01,-143.88C977.34,-134.39 1002.79,-122.51 1024.42,-112.42"/>
<polygon fill="black" stroke="black" points="1026.16,-115.47 1033.74,-108.07 1023.2,-109.13 1026.16,-115.47"/>
</g>
<!-- INTF&#45;IF_SXML_NSURI_HELPER&#45;&gt;INTF&#45;IF_SXML_NAMED -->
<g id="edge27" class="edge">
<title>INTF&#45;IF_SXML_NSURI_HELPER&#45;&gt;INTF&#45;IF_SXML_NAMED</title>
<path fill="none" stroke="black" d="M345.36,-215.87C417.34,-189.66 554.58,-139.69 631.84,-111.56"/>
<polygon fill="black" stroke="black" points="633.21,-114.79 641.41,-108.08 630.82,-108.21 633.21,-114.79"/>
</g>
</g>
</svg>
