<?xml version="1.0" encoding="UTF-8" standalone="no"?>
<!DOCTYPE svg PUBLIC "-//W3C//DTD SVG 1.1//EN"
 "http://www.w3.org/Graphics/SVG/1.1/DTD/svg11.dtd">
<!-- Generated by graphviz version 2.47.3 (20210619.1520)
 -->
<!-- Title: G Pages: 1 -->
<svg width="1862pt" height="836pt"
 viewBox="0.00 0.00 1861.85 836.00" xmlns="http://www.w3.org/2000/svg" xmlns:xlink="http://www.w3.org/1999/xlink">
<g id="graph0" class="graph" transform="scale(1 1) rotate(0) translate(4 832)">
<title>G</title>
<polygon fill="white" stroke="transparent" points="-4,4 -4,-832 1857.85,-832 1857.85,4 -4,4"/>
<!-- INTF&#45;IF_XCO_CP_STRING_DCMP_FACTORY -->
<g id="node1" class="node">
<title>INTF&#45;IF_XCO_CP_STRING_DCMP_FACTORY</title>
<polygon fill="none" stroke="green" points="1009.77,-828 707.93,-828 707.93,-792 1009.77,-792 1009.77,-828"/>
<text text-anchor="middle" x="858.85" y="-805.8" font-family="Times,serif" font-size="14.00">INTF&#45;IF_XCO_CP_STRING_DCMP_FACTORY</text>
</g>
<!-- INTF&#45;IF_XCO_STRING_DECOMPOSITION -->
<g id="node2" class="node">
<title>INTF&#45;IF_XCO_STRING_DECOMPOSITION</title>
<g id="a_node2"><a xlink:href="./INTF_IF_XCO_STRING_DECOMPOSITION.html" xlink:title="INTF&#45;IF_XCO_STRING_DECOMPOSITION">
<polygon fill="none" stroke="green" points="998.46,-756 719.25,-756 719.25,-720 998.46,-720 998.46,-756"/>
<text text-anchor="middle" x="858.85" y="-733.8" font-family="Times,serif" font-size="14.00">INTF&#45;IF_XCO_STRING_DECOMPOSITION</text>
</a>
</g>
</g>
<!-- INTF&#45;IF_XCO_CP_STRING_DCMP_FACTORY&#45;&gt;INTF&#45;IF_XCO_STRING_DECOMPOSITION -->
<g id="edge1" class="edge">
<title>INTF&#45;IF_XCO_CP_STRING_DCMP_FACTORY&#45;&gt;INTF&#45;IF_XCO_STRING_DECOMPOSITION</title>
<path fill="none" stroke="black" d="M858.85,-791.7C858.85,-783.98 858.85,-774.71 858.85,-766.11"/>
<polygon fill="black" stroke="black" points="862.35,-766.1 858.85,-756.1 855.35,-766.1 862.35,-766.1"/>
</g>
<!-- INTF&#45;IF_XCO_STRINGS -->
<g id="node3" class="node">
<title>INTF&#45;IF_XCO_STRINGS</title>
<g id="a_node3"><a xlink:href="./INTF_IF_XCO_STRINGS.html" xlink:title="INTF&#45;IF_XCO_STRINGS">
<polygon fill="none" stroke="green" points="1452.94,-684 1286.77,-684 1286.77,-648 1452.94,-648 1452.94,-684"/>
<text text-anchor="middle" x="1369.85" y="-661.8" font-family="Times,serif" font-size="14.00">INTF&#45;IF_XCO_STRINGS</text>
</a>
</g>
</g>
<!-- INTF&#45;IF_XCO_STRING_DECOMPOSITION&#45;&gt;INTF&#45;IF_XCO_STRINGS -->
<g id="edge3" class="edge">
<title>INTF&#45;IF_XCO_STRING_DECOMPOSITION&#45;&gt;INTF&#45;IF_XCO_STRINGS</title>
<path fill="none" stroke="black" d="M983.2,-719.97C1073.67,-707.57 1194.24,-691.06 1276.53,-679.78"/>
<polygon fill="black" stroke="black" points="1277.19,-683.23 1286.62,-678.4 1276.24,-676.29 1277.19,-683.23"/>
</g>
<!-- INTF&#45;IF_XCO_STRING -->
<g id="node7" class="node">
<title>INTF&#45;IF_XCO_STRING</title>
<g id="a_node7"><a xlink:href="./INTF_IF_XCO_STRING.html" xlink:title="INTF&#45;IF_XCO_STRING">
<polygon fill="none" stroke="green" points="1409.15,-468 1250.55,-468 1250.55,-432 1409.15,-432 1409.15,-468"/>
<text text-anchor="middle" x="1329.85" y="-445.8" font-family="Times,serif" font-size="14.00">INTF&#45;IF_XCO_STRING</text>
</a>
</g>
</g>
<!-- INTF&#45;IF_XCO_STRING_DECOMPOSITION&#45;&gt;INTF&#45;IF_XCO_STRING -->
<g id="edge2" class="edge">
<title>INTF&#45;IF_XCO_STRING_DECOMPOSITION&#45;&gt;INTF&#45;IF_XCO_STRING</title>
<path fill="none" stroke="black" d="M851.31,-719.95C843.93,-687.56 841.26,-616.74 877.85,-576 925.59,-522.85 1122.72,-482.97 1240.36,-463.75"/>
<polygon fill="black" stroke="black" points="1241.12,-467.17 1250.44,-462.12 1240.01,-460.26 1241.12,-467.17"/>
</g>
<!-- INTF&#45;IF_XCO_STRING_ITERABLE -->
<g id="node4" class="node">
<title>INTF&#45;IF_XCO_STRING_ITERABLE</title>
<g id="a_node4"><a xlink:href="./INTF_IF_XCO_STRING_ITERABLE.html" xlink:title="INTF&#45;IF_XCO_STRING_ITERABLE">
<polygon fill="none" stroke="green" points="1639.31,-612 1406.4,-612 1406.4,-576 1639.31,-576 1639.31,-612"/>
<text text-anchor="middle" x="1522.85" y="-589.8" font-family="Times,serif" font-size="14.00">INTF&#45;IF_XCO_STRING_ITERABLE</text>
</a>
</g>
</g>
<!-- INTF&#45;IF_XCO_STRINGS&#45;&gt;INTF&#45;IF_XCO_STRING_ITERABLE -->
<g id="edge10" class="edge">
<title>INTF&#45;IF_XCO_STRINGS&#45;&gt;INTF&#45;IF_XCO_STRING_ITERABLE</title>
<path fill="none" stroke="black" d="M1407.28,-647.88C1428.1,-638.35 1454.21,-626.41 1476.33,-616.28"/>
<polygon fill="black" stroke="black" points="1477.91,-619.41 1485.55,-612.07 1475,-613.05 1477.91,-619.41"/>
</g>
<!-- INTF&#45;IF_XCO_STRINGS&#45;&gt;INTF&#45;IF_XCO_STRING -->
<g id="edge6" class="edge">
<title>INTF&#45;IF_XCO_STRINGS&#45;&gt;INTF&#45;IF_XCO_STRING</title>
<path fill="none" stroke="black" d="M1362.77,-647.85C1352.31,-610.83 1335.66,-523.18 1330.28,-478.39"/>
<polygon fill="black" stroke="black" points="1333.74,-477.8 1329.19,-468.23 1326.78,-478.55 1333.74,-477.8"/>
</g>
<!-- INTF&#45;IF_XCO_TEXT -->
<g id="node8" class="node">
<title>INTF&#45;IF_XCO_TEXT</title>
<g id="a_node8"><a xlink:href="./INTF_IF_XCO_TEXT.html" xlink:title="INTF&#45;IF_XCO_TEXT">
<polygon fill="none" stroke="green" points="1631.37,-108 1488.33,-108 1488.33,-72 1631.37,-72 1631.37,-108"/>
<text text-anchor="middle" x="1559.85" y="-85.8" font-family="Times,serif" font-size="14.00">INTF&#45;IF_XCO_TEXT</text>
</a>
</g>
</g>
<!-- INTF&#45;IF_XCO_STRINGS&#45;&gt;INTF&#45;IF_XCO_TEXT -->
<g id="edge9" class="edge">
<title>INTF&#45;IF_XCO_STRINGS&#45;&gt;INTF&#45;IF_XCO_TEXT</title>
<path fill="none" stroke="black" d="M1453.18,-661.51C1554.23,-656.07 1717.37,-642.81 1769.85,-612 1812.32,-587.07 1835.85,-572.25 1835.85,-523 1835.85,-523 1835.85,-523 1835.85,-233 1835.85,-144.07 1723.31,-110.83 1641.9,-98.41"/>
<polygon fill="black" stroke="black" points="1642.04,-94.9 1631.64,-96.93 1641.04,-101.82 1642.04,-94.9"/>
</g>
<!-- INTF&#45;IF_XCO_NEWS -->
<g id="node9" class="node">
<title>INTF&#45;IF_XCO_NEWS</title>
<g id="a_node9"><a xlink:href="./INTF_IF_XCO_NEWS.html" xlink:title="INTF&#45;IF_XCO_NEWS">
<polygon fill="none" stroke="green" points="1513.77,-252 1365.94,-252 1365.94,-216 1513.77,-216 1513.77,-252"/>
<text text-anchor="middle" x="1439.85" y="-229.8" font-family="Times,serif" font-size="14.00">INTF&#45;IF_XCO_NEWS</text>
</a>
</g>
</g>
<!-- INTF&#45;IF_XCO_STRINGS&#45;&gt;INTF&#45;IF_XCO_NEWS -->
<g id="edge8" class="edge">
<title>INTF&#45;IF_XCO_STRINGS&#45;&gt;INTF&#45;IF_XCO_NEWS</title>
<path fill="none" stroke="black" d="M1453.33,-665.33C1554.12,-663.8 1715.12,-654.51 1754.85,-612 1807.4,-555.79 1800.62,-353.18 1740.85,-288 1712.32,-256.89 1602.99,-243.98 1524.31,-238.66"/>
<polygon fill="black" stroke="black" points="1524.11,-235.14 1513.91,-237.99 1523.66,-242.13 1524.11,-235.14"/>
</g>
<!-- INTF&#45;IF_XCO_STRING_COMPOSITION -->
<g id="node36" class="node">
<title>INTF&#45;IF_XCO_STRING_COMPOSITION</title>
<g id="a_node36"><a xlink:href="./INTF_IF_XCO_STRING_COMPOSITION.html" xlink:title="INTF&#45;IF_XCO_STRING_COMPOSITION">
<polygon fill="none" stroke="green" points="1156.3,-612 895.4,-612 895.4,-576 1156.3,-576 1156.3,-612"/>
<text text-anchor="middle" x="1025.85" y="-589.8" font-family="Times,serif" font-size="14.00">INTF&#45;IF_XCO_STRING_COMPOSITION</text>
</a>
</g>
</g>
<!-- INTF&#45;IF_XCO_STRINGS&#45;&gt;INTF&#45;IF_XCO_STRING_COMPOSITION -->
<g id="edge7" class="edge">
<title>INTF&#45;IF_XCO_STRINGS&#45;&gt;INTF&#45;IF_XCO_STRING_COMPOSITION</title>
<path fill="none" stroke="black" d="M1286.47,-649.2C1234.16,-638.8 1166.85,-625.13 1113.72,-614.12"/>
<polygon fill="black" stroke="black" points="1114.13,-610.63 1103.63,-612.02 1112.71,-617.48 1114.13,-610.63"/>
</g>
<!-- TTYP&#45;STRING_TABLE -->
<g id="node37" class="node">
<title>TTYP&#45;STRING_TABLE</title>
<g id="a_node37"><a xlink:href="./TTYP_STRING_TABLE.html" xlink:title="TTYP&#45;STRING_TABLE">
<polygon fill="none" stroke="green" points="1333.15,-612 1174.55,-612 1174.55,-576 1333.15,-576 1333.15,-612"/>
<text text-anchor="middle" x="1253.85" y="-589.8" font-family="Times,serif" font-size="14.00">TTYP&#45;STRING_TABLE</text>
</a>
</g>
</g>
<!-- INTF&#45;IF_XCO_STRINGS&#45;&gt;TTYP&#45;STRING_TABLE -->
<g id="edge5" class="edge">
<title>INTF&#45;IF_XCO_STRINGS&#45;&gt;TTYP&#45;STRING_TABLE</title>
<path fill="none" stroke="black" d="M1341.48,-647.88C1326.31,-638.72 1307.45,-627.34 1291.11,-617.48"/>
<polygon fill="black" stroke="black" points="1292.71,-614.36 1282.34,-612.19 1289.09,-620.35 1292.71,-614.36"/>
</g>
<!-- DTEL&#45;INT4 -->
<g id="node38" class="node">
<title>DTEL&#45;INT4</title>
<g id="a_node38"><a xlink:href="./DTEL_INT4.html" xlink:title="DTEL&#45;INT4">
<polygon fill="none" stroke="green" points="1746.1,-612 1659.61,-612 1659.61,-576 1746.1,-576 1746.1,-612"/>
<text text-anchor="middle" x="1702.85" y="-589.8" font-family="Times,serif" font-size="14.00">DTEL&#45;INT4</text>
</a>
</g>
</g>
<!-- INTF&#45;IF_XCO_STRINGS&#45;&gt;DTEL&#45;INT4 -->
<g id="edge4" class="edge">
<title>INTF&#45;IF_XCO_STRINGS&#45;&gt;DTEL&#45;INT4</title>
<path fill="none" stroke="black" d="M1453.1,-651.63C1508.61,-642.1 1583.01,-628.15 1647.85,-612 1648.44,-611.85 1649.04,-611.7 1649.63,-611.55"/>
<polygon fill="black" stroke="black" points="1650.7,-614.89 1659.45,-608.91 1648.88,-608.13 1650.7,-614.89"/>
</g>
<!-- INTF&#45;IF_XCO_STRING_ITERATOR -->
<g id="node5" class="node">
<title>INTF&#45;IF_XCO_STRING_ITERATOR</title>
<g id="a_node5"><a xlink:href="./INTF_IF_XCO_STRING_ITERATOR.html" xlink:title="INTF&#45;IF_XCO_STRING_ITERATOR">
<polygon fill="none" stroke="green" points="1638.86,-540 1404.85,-540 1404.85,-504 1638.86,-504 1638.86,-540"/>
<text text-anchor="middle" x="1521.85" y="-517.8" font-family="Times,serif" font-size="14.00">INTF&#45;IF_XCO_STRING_ITERATOR</text>
</a>
</g>
</g>
<!-- INTF&#45;IF_XCO_STRING_ITERABLE&#45;&gt;INTF&#45;IF_XCO_STRING_ITERATOR -->
<g id="edge11" class="edge">
<title>INTF&#45;IF_XCO_STRING_ITERABLE&#45;&gt;INTF&#45;IF_XCO_STRING_ITERATOR</title>
<path fill="none" stroke="black" d="M1522.61,-575.7C1522.5,-567.98 1522.36,-558.71 1522.24,-550.11"/>
<polygon fill="black" stroke="black" points="1525.74,-550.05 1522.1,-540.1 1518.74,-550.15 1525.74,-550.05"/>
</g>
<!-- INTF&#45;IF_XCO_ITERATOR -->
<g id="node6" class="node">
<title>INTF&#45;IF_XCO_ITERATOR</title>
<g id="a_node6"><a xlink:href="./INTF_IF_XCO_ITERATOR.html" xlink:title="INTF&#45;IF_XCO_ITERATOR">
<polygon fill="none" stroke="green" points="1610.31,-468 1433.39,-468 1433.39,-432 1610.31,-432 1610.31,-468"/>
<text text-anchor="middle" x="1521.85" y="-445.8" font-family="Times,serif" font-size="14.00">INTF&#45;IF_XCO_ITERATOR</text>
</a>
</g>
</g>
<!-- INTF&#45;IF_XCO_STRING_ITERATOR&#45;&gt;INTF&#45;IF_XCO_ITERATOR -->
<g id="edge13" class="edge">
<title>INTF&#45;IF_XCO_STRING_ITERATOR&#45;&gt;INTF&#45;IF_XCO_ITERATOR</title>
<path fill="none" stroke="black" d="M1521.85,-503.7C1521.85,-495.98 1521.85,-486.71 1521.85,-478.11"/>
<polygon fill="black" stroke="black" points="1525.35,-478.1 1521.85,-468.1 1518.35,-478.1 1525.35,-478.1"/>
</g>
<!-- INTF&#45;IF_XCO_STRING_ITERATOR&#45;&gt;INTF&#45;IF_XCO_STRING -->
<g id="edge12" class="edge">
<title>INTF&#45;IF_XCO_STRING_ITERATOR&#45;&gt;INTF&#45;IF_XCO_STRING</title>
<path fill="none" stroke="black" d="M1474.88,-503.88C1448.17,-494.14 1414.53,-481.87 1386.38,-471.61"/>
<polygon fill="black" stroke="black" points="1387.26,-468.21 1376.67,-468.07 1384.87,-474.78 1387.26,-468.21"/>
</g>
<!-- INTF&#45;IF_XCO_STRING&#45;&gt;INTF&#45;IF_XCO_STRING_DECOMPOSITION -->
<g id="edge15" class="edge">
<title>INTF&#45;IF_XCO_STRING&#45;&gt;INTF&#45;IF_XCO_STRING_DECOMPOSITION</title>
<path fill="none" stroke="black" d="M1250.28,-464.09C1138.44,-483.44 943.31,-523.16 895.85,-576 862.69,-612.92 861.77,-674.54 861.65,-709.88"/>
<polygon fill="black" stroke="black" points="858.15,-709.93 861.6,-719.95 865.15,-709.97 858.15,-709.93"/>
</g>
<!-- INTF&#45;IF_XCO_STRING&#45;&gt;INTF&#45;IF_XCO_STRINGS -->
<g id="edge14" class="edge">
<title>INTF&#45;IF_XCO_STRING&#45;&gt;INTF&#45;IF_XCO_STRINGS</title>
<path fill="none" stroke="black" d="M1336.96,-468.23C1347.42,-505.32 1364.07,-592.98 1369.44,-637.71"/>
<polygon fill="black" stroke="black" points="1365.98,-638.28 1370.52,-647.85 1372.94,-637.53 1365.98,-638.28"/>
</g>
<!-- INTF&#45;IF_XCO_STRING&#45;&gt;INTF&#45;IF_XCO_STRING_ITERABLE -->
<g id="edge21" class="edge">
<title>INTF&#45;IF_XCO_STRING&#45;&gt;INTF&#45;IF_XCO_STRING_ITERABLE</title>
<path fill="none" stroke="black" d="M1338.87,-468.26C1349.93,-487.98 1370.4,-520.08 1395.85,-540 1413.15,-553.54 1434.41,-564.19 1454.54,-572.28"/>
<polygon fill="black" stroke="black" points="1453.42,-575.59 1464.01,-575.93 1455.94,-569.06 1453.42,-575.59"/>
</g>
<!-- INTF&#45;IF_XCO_STRING&#45;&gt;INTF&#45;IF_XCO_TEXT -->
<g id="edge20" class="edge">
<title>INTF&#45;IF_XCO_STRING&#45;&gt;INTF&#45;IF_XCO_TEXT</title>
<path fill="none" stroke="black" d="M1409.28,-434.71C1493.08,-419.59 1613.82,-397.68 1618.85,-396 1703.15,-367.93 1797.85,-395.85 1797.85,-307 1797.85,-307 1797.85,-307 1797.85,-233 1797.85,-158.36 1710.47,-122.04 1641.6,-105"/>
<polygon fill="black" stroke="black" points="1642.12,-101.53 1631.58,-102.63 1640.51,-108.34 1642.12,-101.53"/>
</g>
<!-- INTF&#45;IF_XCO_STRING&#45;&gt;INTF&#45;IF_XCO_NEWS -->
<g id="edge19" class="edge">
<title>INTF&#45;IF_XCO_STRING&#45;&gt;INTF&#45;IF_XCO_NEWS</title>
<path fill="none" stroke="black" d="M1338.67,-431.85C1357.86,-394.52 1403.51,-305.69 1426.36,-261.26"/>
<polygon fill="black" stroke="black" points="1429.54,-262.73 1431,-252.23 1423.31,-259.53 1429.54,-262.73"/>
</g>
<!-- INTF&#45;IF_XCO_MESSAGE -->
<g id="node11" class="node">
<title>INTF&#45;IF_XCO_MESSAGE</title>
<g id="a_node11"><a xlink:href="./INTF_IF_XCO_MESSAGE.html" xlink:title="INTF&#45;IF_XCO_MESSAGE">
<polygon fill="none" stroke="green" points="997.44,-396 824.27,-396 824.27,-360 997.44,-360 997.44,-396"/>
<text text-anchor="middle" x="910.85" y="-373.8" font-family="Times,serif" font-size="14.00">INTF&#45;IF_XCO_MESSAGE</text>
</a>
</g>
</g>
<!-- INTF&#45;IF_XCO_STRING&#45;&gt;INTF&#45;IF_XCO_MESSAGE -->
<g id="edge16" class="edge">
<title>INTF&#45;IF_XCO_STRING&#45;&gt;INTF&#45;IF_XCO_MESSAGE</title>
<path fill="none" stroke="black" d="M1250.55,-435.75C1181.55,-424.22 1081.34,-407.48 1007.63,-395.17"/>
<polygon fill="black" stroke="black" points="1007.85,-391.66 997.41,-393.46 1006.7,-398.56 1007.85,-391.66"/>
</g>
<!-- INTF&#45;IF_XCO_XSTRING -->
<g id="node33" class="node">
<title>INTF&#45;IF_XCO_XSTRING</title>
<g id="a_node33"><a xlink:href="./INTF_IF_XCO_XSTRING.html" xlink:title="INTF&#45;IF_XCO_XSTRING">
<polygon fill="none" stroke="green" points="1610.26,-396 1441.44,-396 1441.44,-360 1610.26,-360 1610.26,-396"/>
<text text-anchor="middle" x="1525.85" y="-373.8" font-family="Times,serif" font-size="14.00">INTF&#45;IF_XCO_XSTRING</text>
</a>
</g>
</g>
<!-- INTF&#45;IF_XCO_STRING&#45;&gt;INTF&#45;IF_XCO_XSTRING -->
<g id="edge18" class="edge">
<title>INTF&#45;IF_XCO_STRING&#45;&gt;INTF&#45;IF_XCO_XSTRING</title>
<path fill="none" stroke="black" d="M1371.9,-431.88C1398.38,-422.05 1432.99,-409.66 1462.71,-399.34"/>
<polygon fill="black" stroke="black" points="1463.86,-402.64 1472.17,-396.07 1461.58,-396.03 1463.86,-402.64"/>
</g>
<!-- INTF&#45;IF_XCO_STRING_XSTRING_CNVRSN -->
<g id="node35" class="node">
<title>INTF&#45;IF_XCO_STRING_XSTRING_CNVRSN</title>
<g id="a_node35"><a xlink:href="./INTF_IF_XCO_STRING_XSTRING_CNVRSN.html" xlink:title="INTF&#45;IF_XCO_STRING_XSTRING_CNVRSN">
<polygon fill="none" stroke="green" points="806.58,-396 517.12,-396 517.12,-360 806.58,-360 806.58,-396"/>
<text text-anchor="middle" x="661.85" y="-373.8" font-family="Times,serif" font-size="14.00">INTF&#45;IF_XCO_STRING_XSTRING_CNVRSN</text>
</a>
</g>
</g>
<!-- INTF&#45;IF_XCO_STRING&#45;&gt;INTF&#45;IF_XCO_STRING_XSTRING_CNVRSN -->
<g id="edge17" class="edge">
<title>INTF&#45;IF_XCO_STRING&#45;&gt;INTF&#45;IF_XCO_STRING_XSTRING_CNVRSN</title>
<path fill="none" stroke="black" d="M1250.43,-441.03C1151.33,-431.04 976.38,-413.25 816.81,-396.21"/>
<polygon fill="black" stroke="black" points="817.12,-392.72 806.81,-395.14 816.38,-399.68 817.12,-392.72"/>
</g>
<!-- INTF&#45;IF_XCO_TEXT&#45;&gt;INTF&#45;IF_XCO_STRINGS -->
<g id="edge22" class="edge">
<title>INTF&#45;IF_XCO_TEXT&#45;&gt;INTF&#45;IF_XCO_STRINGS</title>
<path fill="none" stroke="black" d="M1631.66,-95.39C1718.76,-104.99 1853.85,-135.57 1853.85,-233 1853.85,-523 1853.85,-523 1853.85,-523 1853.85,-572.25 1830.32,-587.07 1787.85,-612 1734.91,-643.07 1569.4,-656.3 1463.16,-661.64"/>
<polygon fill="black" stroke="black" points="1462.89,-658.15 1453.07,-662.14 1463.23,-665.15 1462.89,-658.15"/>
</g>
<!-- TTYP&#45;SXCO_T_MESSAGES -->
<g id="node10" class="node">
<title>TTYP&#45;SXCO_T_MESSAGES</title>
<g id="a_node10"><a xlink:href="./TTYP_SXCO_T_MESSAGES.html" xlink:title="TTYP&#45;SXCO_T_MESSAGES">
<polygon fill="none" stroke="green" points="1525,-180 1336.7,-180 1336.7,-144 1525,-144 1525,-180"/>
<text text-anchor="middle" x="1430.85" y="-157.8" font-family="Times,serif" font-size="14.00">TTYP&#45;SXCO_T_MESSAGES</text>
</a>
</g>
</g>
<!-- INTF&#45;IF_XCO_NEWS&#45;&gt;TTYP&#45;SXCO_T_MESSAGES -->
<g id="edge23" class="edge">
<title>INTF&#45;IF_XCO_NEWS&#45;&gt;TTYP&#45;SXCO_T_MESSAGES</title>
<path fill="none" stroke="black" d="M1437.63,-215.7C1436.64,-207.98 1435.44,-198.71 1434.34,-190.11"/>
<polygon fill="black" stroke="black" points="1437.8,-189.58 1433.05,-180.1 1430.86,-190.47 1437.8,-189.58"/>
</g>
<!-- TTYP&#45;SXCO_T_MESSAGES&#45;&gt;INTF&#45;IF_XCO_MESSAGE -->
<g id="edge24" class="edge">
<title>TTYP&#45;SXCO_T_MESSAGES&#45;&gt;INTF&#45;IF_XCO_MESSAGE</title>
<path fill="none" stroke="black" d="M1398.54,-180.06C1384.08,-189.08 1367.86,-201.34 1356.85,-216 1326.31,-256.7 1358.39,-291.97 1318.85,-324 1272.48,-361.57 1112.79,-372.67 1007.49,-375.86"/>
<polygon fill="black" stroke="black" points="1007.37,-372.36 997.48,-376.14 1007.57,-379.35 1007.37,-372.36"/>
</g>
<!-- INTF&#45;IF_XCO_MESSAGE&#45;&gt;INTF&#45;IF_XCO_NEWS -->
<g id="edge33" class="edge">
<title>INTF&#45;IF_XCO_MESSAGE&#45;&gt;INTF&#45;IF_XCO_NEWS</title>
<path fill="none" stroke="black" d="M997.64,-373.33C1107.95,-367.5 1291.34,-353.63 1351.85,-324 1381.35,-309.55 1406.7,-281.13 1422.51,-260.28"/>
<polygon fill="black" stroke="black" points="1425.39,-262.28 1428.49,-252.15 1419.75,-258.13 1425.39,-262.28"/>
</g>
<!-- INTF&#45;IF_T100_DYN_MSG -->
<g id="node12" class="node">
<title>INTF&#45;IF_T100_DYN_MSG</title>
<g id="a_node12"><a xlink:href="./INTF_IF_T100_DYN_MSG.html" xlink:title="INTF&#45;IF_T100_DYN_MSG">
<polygon fill="none" stroke="green" points="736.77,-324 560.94,-324 560.94,-288 736.77,-288 736.77,-324"/>
<text text-anchor="middle" x="648.85" y="-301.8" font-family="Times,serif" font-size="14.00">INTF&#45;IF_T100_DYN_MSG</text>
</a>
</g>
</g>
<!-- INTF&#45;IF_XCO_MESSAGE&#45;&gt;INTF&#45;IF_T100_DYN_MSG -->
<g id="edge32" class="edge">
<title>INTF&#45;IF_XCO_MESSAGE&#45;&gt;INTF&#45;IF_T100_DYN_MSG</title>
<path fill="none" stroke="black" d="M847.1,-359.97C809.53,-349.93 761.85,-337.19 722.66,-326.72"/>
<polygon fill="black" stroke="black" points="723.46,-323.31 712.9,-324.11 721.65,-330.07 723.46,-323.31"/>
</g>
<!-- DTEL&#45;SYMSGNO -->
<g id="node17" class="node">
<title>DTEL&#45;SYMSGNO</title>
<g id="a_node17"><a xlink:href="./DTEL_SYMSGNO.html" xlink:title="DTEL&#45;SYMSGNO">
<polygon fill="none" stroke="green" points="717.21,-108 592.49,-108 592.49,-72 717.21,-72 717.21,-108"/>
<text text-anchor="middle" x="654.85" y="-85.8" font-family="Times,serif" font-size="14.00">DTEL&#45;SYMSGNO</text>
</a>
</g>
</g>
<!-- INTF&#45;IF_XCO_MESSAGE&#45;&gt;DTEL&#45;SYMSGNO -->
<g id="edge28" class="edge">
<title>INTF&#45;IF_XCO_MESSAGE&#45;&gt;DTEL&#45;SYMSGNO</title>
<path fill="none" stroke="black" d="M835.32,-359.89C817.09,-352.04 799.74,-340.61 788.85,-324 766.21,-289.47 821.98,-231.47 831.85,-180 834.87,-164.29 841.41,-156.83 831.85,-144 818.93,-126.63 770.42,-112.85 727.45,-103.69"/>
<polygon fill="black" stroke="black" points="728.03,-100.24 717.53,-101.64 726.61,-107.09 728.03,-100.24"/>
</g>
<!-- DTEL&#45;SYMSGID -->
<g id="node19" class="node">
<title>DTEL&#45;SYMSGID</title>
<g id="a_node19"><a xlink:href="./DTEL_SYMSGID.html" xlink:title="DTEL&#45;SYMSGID">
<polygon fill="none" stroke="green" points="315.77,-108 195.94,-108 195.94,-72 315.77,-72 315.77,-108"/>
<text text-anchor="middle" x="255.85" y="-85.8" font-family="Times,serif" font-size="14.00">DTEL&#45;SYMSGID</text>
</a>
</g>
</g>
<!-- INTF&#45;IF_XCO_MESSAGE&#45;&gt;DTEL&#45;SYMSGID -->
<g id="edge27" class="edge">
<title>INTF&#45;IF_XCO_MESSAGE&#45;&gt;DTEL&#45;SYMSGID</title>
<path fill="none" stroke="black" d="M824.19,-361.06C821.38,-360.68 818.6,-360.33 815.85,-360 642.1,-339.29 153,-381.99 35.85,-252 3.17,-215.74 -14.72,-182.06 15.85,-144 36.86,-117.84 122.61,-103.82 185.64,-96.9"/>
<polygon fill="black" stroke="black" points="186.37,-100.34 195.94,-95.81 185.63,-93.38 186.37,-100.34"/>
</g>
<!-- DTEL&#45;SYMSGTY -->
<g id="node21" class="node">
<title>DTEL&#45;SYMSGTY</title>
<g id="a_node21"><a xlink:href="./DTEL_SYMSGTY.html" xlink:title="DTEL&#45;SYMSGTY">
<polygon fill="none" stroke="green" points="544.66,-252 421.05,-252 421.05,-216 544.66,-216 544.66,-252"/>
<text text-anchor="middle" x="482.85" y="-229.8" font-family="Times,serif" font-size="14.00">DTEL&#45;SYMSGTY</text>
</a>
</g>
</g>
<!-- INTF&#45;IF_XCO_MESSAGE&#45;&gt;DTEL&#45;SYMSGTY -->
<g id="edge26" class="edge">
<title>INTF&#45;IF_XCO_MESSAGE&#45;&gt;DTEL&#45;SYMSGTY</title>
<path fill="none" stroke="black" d="M824.16,-361.33C821.36,-360.88 818.58,-360.43 815.85,-360 698.88,-341.57 654.42,-383.19 551.85,-324 526.6,-309.42 507.35,-281.62 495.68,-260.95"/>
<polygon fill="black" stroke="black" points="498.69,-259.16 490.86,-252.03 492.53,-262.49 498.69,-259.16"/>
</g>
<!-- DTEL&#45;SYMSGV -->
<g id="node23" class="node">
<title>DTEL&#45;SYMSGV</title>
<g id="a_node23"><a xlink:href="./DTEL_SYMSGV.html" xlink:title="DTEL&#45;SYMSGV">
<polygon fill="none" stroke="green" points="159.11,-252 44.6,-252 44.6,-216 159.11,-216 159.11,-252"/>
<text text-anchor="middle" x="101.85" y="-229.8" font-family="Times,serif" font-size="14.00">DTEL&#45;SYMSGV</text>
</a>
</g>
</g>
<!-- INTF&#45;IF_XCO_MESSAGE&#45;&gt;DTEL&#45;SYMSGV -->
<g id="edge29" class="edge">
<title>INTF&#45;IF_XCO_MESSAGE&#45;&gt;DTEL&#45;SYMSGV</title>
<path fill="none" stroke="black" d="M824.19,-361.11C821.38,-360.72 818.6,-360.35 815.85,-360 601.41,-332.93 541.68,-371.67 330.85,-324 263.85,-308.85 190.52,-277.54 145.34,-256.4"/>
<polygon fill="black" stroke="black" points="146.68,-253.16 136.14,-252.05 143.69,-259.49 146.68,-253.16"/>
</g>
<!-- INTF&#45;IF_XCO_MESSAGE_SHORT_TEXT -->
<g id="node25" class="node">
<title>INTF&#45;IF_XCO_MESSAGE_SHORT_TEXT</title>
<g id="a_node25"><a xlink:href="./INTF_IF_XCO_MESSAGE_SHORT_TEXT.html" xlink:title="INTF&#45;IF_XCO_MESSAGE_SHORT_TEXT">
<polygon fill="none" stroke="green" points="1310.09,-324 1041.62,-324 1041.62,-288 1310.09,-288 1310.09,-324"/>
<text text-anchor="middle" x="1175.85" y="-301.8" font-family="Times,serif" font-size="14.00">INTF&#45;IF_XCO_MESSAGE_SHORT_TEXT</text>
</a>
</g>
</g>
<!-- INTF&#45;IF_XCO_MESSAGE&#45;&gt;INTF&#45;IF_XCO_MESSAGE_SHORT_TEXT -->
<g id="edge31" class="edge">
<title>INTF&#45;IF_XCO_MESSAGE&#45;&gt;INTF&#45;IF_XCO_MESSAGE_SHORT_TEXT</title>
<path fill="none" stroke="black" d="M969.45,-359.97C1006.47,-349.91 1054.73,-337.14 1095.31,-326.65"/>
<polygon fill="black" stroke="black" points="1096.37,-330 1105.18,-324.11 1094.62,-323.22 1096.37,-330"/>
</g>
<!-- CLAS&#45;CL_XCO_MESSAGE_TYPE -->
<g id="node29" class="node">
<title>CLAS&#45;CL_XCO_MESSAGE_TYPE</title>
<g id="a_node29"><a xlink:href="./CLAS_CL_XCO_MESSAGE_TYPE.html" xlink:title="CLAS&#45;CL_XCO_MESSAGE_TYPE">
<polygon fill="none" stroke="green" points="1023.55,-324 798.15,-324 798.15,-288 1023.55,-288 1023.55,-324"/>
<text text-anchor="middle" x="910.85" y="-301.8" font-family="Times,serif" font-size="14.00">CLAS&#45;CL_XCO_MESSAGE_TYPE</text>
</a>
</g>
</g>
<!-- INTF&#45;IF_XCO_MESSAGE&#45;&gt;CLAS&#45;CL_XCO_MESSAGE_TYPE -->
<g id="edge30" class="edge">
<title>INTF&#45;IF_XCO_MESSAGE&#45;&gt;CLAS&#45;CL_XCO_MESSAGE_TYPE</title>
<path fill="none" stroke="black" d="M910.85,-359.7C910.85,-351.98 910.85,-342.71 910.85,-334.11"/>
<polygon fill="black" stroke="black" points="914.35,-334.1 910.85,-324.1 907.35,-334.1 914.35,-334.1"/>
</g>
<!-- TABL&#45;SYMSG -->
<g id="node32" class="node">
<title>TABL&#45;SYMSG</title>
<g id="a_node32"><a xlink:href="./TABL_SYMSG.html" xlink:title="TABL&#45;SYMSG">
<polygon fill="none" stroke="green" points="445.79,-324 339.92,-324 339.92,-288 445.79,-288 445.79,-324"/>
<text text-anchor="middle" x="392.85" y="-301.8" font-family="Times,serif" font-size="14.00">TABL&#45;SYMSG</text>
</a>
</g>
</g>
<!-- INTF&#45;IF_XCO_MESSAGE&#45;&gt;TABL&#45;SYMSG -->
<g id="edge25" class="edge">
<title>INTF&#45;IF_XCO_MESSAGE&#45;&gt;TABL&#45;SYMSG</title>
<path fill="none" stroke="black" d="M824.17,-361.25C821.37,-360.81 818.59,-360.4 815.85,-360 673.34,-339.31 636.47,-343.96 493.85,-324 481.49,-322.27 468.3,-320.21 455.68,-318.13"/>
<polygon fill="black" stroke="black" points="456.15,-314.66 445.71,-316.46 455,-321.56 456.15,-314.66"/>
</g>
<!-- INTF&#45;IF_T100_MESSAGE -->
<g id="node13" class="node">
<title>INTF&#45;IF_T100_MESSAGE</title>
<g id="a_node13"><a xlink:href="./INTF_IF_T100_MESSAGE.html" xlink:title="INTF&#45;IF_T100_MESSAGE">
<polygon fill="none" stroke="green" points="735.44,-252 562.27,-252 562.27,-216 735.44,-216 735.44,-252"/>
<text text-anchor="middle" x="648.85" y="-229.8" font-family="Times,serif" font-size="14.00">INTF&#45;IF_T100_MESSAGE</text>
</a>
</g>
</g>
<!-- INTF&#45;IF_T100_DYN_MSG&#45;&gt;INTF&#45;IF_T100_MESSAGE -->
<g id="edge37" class="edge">
<title>INTF&#45;IF_T100_DYN_MSG&#45;&gt;INTF&#45;IF_T100_MESSAGE</title>
<path fill="none" stroke="black" d="M648.85,-287.7C648.85,-279.98 648.85,-270.71 648.85,-262.11"/>
<polygon fill="black" stroke="black" points="652.35,-262.1 648.85,-252.1 645.35,-262.1 652.35,-262.1"/>
</g>
<!-- INTF&#45;IF_MESSAGE -->
<g id="node14" class="node">
<title>INTF&#45;IF_MESSAGE</title>
<g id="a_node14"><a xlink:href="./INTF_IF_MESSAGE.html" xlink:title="INTF&#45;IF_MESSAGE">
<polygon fill="none" stroke="green" points="822.89,-180 686.82,-180 686.82,-144 822.89,-144 822.89,-180"/>
<text text-anchor="middle" x="754.85" y="-157.8" font-family="Times,serif" font-size="14.00">INTF&#45;IF_MESSAGE</text>
</a>
</g>
</g>
<!-- INTF&#45;IF_T100_DYN_MSG&#45;&gt;INTF&#45;IF_MESSAGE -->
<g id="edge36" class="edge">
<title>INTF&#45;IF_T100_DYN_MSG&#45;&gt;INTF&#45;IF_MESSAGE</title>
<path fill="none" stroke="black" d="M699.81,-287.94C716.8,-279.72 734.12,-268.07 744.85,-252 756.9,-233.98 758.79,-209.19 758.01,-190.35"/>
<polygon fill="black" stroke="black" points="761.5,-190.05 757.33,-180.31 754.52,-190.52 761.5,-190.05"/>
</g>
<!-- INTF&#45;IF_T100_DYN_MSG&#45;&gt;DTEL&#45;SYMSGTY -->
<g id="edge35" class="edge">
<title>INTF&#45;IF_T100_DYN_MSG&#45;&gt;DTEL&#45;SYMSGTY</title>
<path fill="none" stroke="black" d="M608.24,-287.88C585.45,-278.26 556.83,-266.19 532.68,-256.01"/>
<polygon fill="black" stroke="black" points="533.9,-252.73 523.33,-252.07 531.18,-259.18 533.9,-252.73"/>
</g>
<!-- INTF&#45;IF_T100_DYN_MSG&#45;&gt;DTEL&#45;SYMSGV -->
<g id="edge34" class="edge">
<title>INTF&#45;IF_T100_DYN_MSG&#45;&gt;DTEL&#45;SYMSGV</title>
<path fill="none" stroke="black" d="M560.97,-293.75C451.88,-279.79 268.2,-256.29 169.47,-243.65"/>
<polygon fill="black" stroke="black" points="169.68,-240.15 159.32,-242.35 168.79,-247.09 169.68,-240.15"/>
</g>
<!-- INTF&#45;IF_T100_MESSAGE&#45;&gt;INTF&#45;IF_MESSAGE -->
<g id="edge42" class="edge">
<title>INTF&#45;IF_T100_MESSAGE&#45;&gt;INTF&#45;IF_MESSAGE</title>
<path fill="none" stroke="black" d="M674.78,-215.88C688.51,-206.81 705.56,-195.55 720.39,-185.76"/>
<polygon fill="black" stroke="black" points="722.41,-188.62 728.82,-180.19 718.55,-182.78 722.41,-188.62"/>
</g>
<!-- TABL&#45;SCX_T100KEY -->
<g id="node15" class="node">
<title>TABL&#45;SCX_T100KEY</title>
<g id="a_node15"><a xlink:href="./TABL_SCX_T100KEY.html" xlink:title="TABL&#45;SCX_T100KEY">
<polygon fill="none" stroke="yellow" points="554.61,-180 405.1,-180 405.1,-144 554.61,-144 554.61,-180"/>
<text text-anchor="middle" x="479.85" y="-157.8" font-family="Times,serif" font-size="14.00">TABL&#45;SCX_T100KEY</text>
</a>
</g>
</g>
<!-- INTF&#45;IF_T100_MESSAGE&#45;&gt;TABL&#45;SCX_T100KEY -->
<g id="edge41" class="edge">
<title>INTF&#45;IF_T100_MESSAGE&#45;&gt;TABL&#45;SCX_T100KEY</title>
<path fill="none" stroke="black" d="M607.51,-215.88C584.3,-206.26 555.16,-194.19 530.58,-184.01"/>
<polygon fill="black" stroke="black" points="531.64,-180.66 521.06,-180.07 528.96,-187.13 531.64,-180.66"/>
</g>
<!-- DTEL&#45;SCX_ATTRNAME -->
<g id="node16" class="node">
<title>DTEL&#45;SCX_ATTRNAME</title>
<g id="a_node16"><a xlink:href="./DTEL_SCX_ATTRNAME.html" xlink:title="DTEL&#45;SCX_ATTRNAME">
<polygon fill="none" stroke="green" points="567.26,-108 398.44,-108 398.44,-72 567.26,-72 567.26,-108"/>
<text text-anchor="middle" x="482.85" y="-85.8" font-family="Times,serif" font-size="14.00">DTEL&#45;SCX_ATTRNAME</text>
</a>
</g>
</g>
<!-- INTF&#45;IF_T100_MESSAGE&#45;&gt;DTEL&#45;SCX_ATTRNAME -->
<g id="edge40" class="edge">
<title>INTF&#45;IF_T100_MESSAGE&#45;&gt;DTEL&#45;SCX_ATTRNAME</title>
<path fill="none" stroke="black" d="M634.54,-215.8C618.43,-197 590.96,-166.55 563.85,-144 550.71,-133.07 535.23,-122.46 521.33,-113.63"/>
<polygon fill="black" stroke="black" points="522.81,-110.43 512.47,-108.11 519.11,-116.37 522.81,-110.43"/>
</g>
<!-- INTF&#45;IF_T100_MESSAGE&#45;&gt;DTEL&#45;SYMSGNO -->
<g id="edge39" class="edge">
<title>INTF&#45;IF_T100_MESSAGE&#45;&gt;DTEL&#45;SYMSGNO</title>
<path fill="none" stroke="black" d="M649.58,-215.87C650.6,-191.67 652.48,-147.21 653.7,-118.39"/>
<polygon fill="black" stroke="black" points="657.2,-118.33 654.13,-108.19 650.21,-118.03 657.2,-118.33"/>
</g>
<!-- INTF&#45;IF_T100_MESSAGE&#45;&gt;DTEL&#45;SYMSGID -->
<g id="edge38" class="edge">
<title>INTF&#45;IF_T100_MESSAGE&#45;&gt;DTEL&#45;SYMSGID</title>
<path fill="none" stroke="black" d="M561.98,-217.22C494.78,-204.61 410.74,-187.79 395.85,-180 375.24,-169.21 376.8,-157.49 357.85,-144 341.39,-132.28 322,-121.54 304.56,-112.84"/>
<polygon fill="black" stroke="black" points="305.63,-109.46 295.11,-108.22 302.56,-115.75 305.63,-109.46"/>
</g>
<!-- TABL&#45;SCX_T100KEY&#45;&gt;DTEL&#45;SCX_ATTRNAME -->
<g id="edge45" class="edge">
<title>TABL&#45;SCX_T100KEY&#45;&gt;DTEL&#45;SCX_ATTRNAME</title>
<path fill="none" stroke="black" d="M480.59,-143.7C480.93,-135.98 481.32,-126.71 481.69,-118.11"/>
<polygon fill="black" stroke="black" points="485.19,-118.25 482.12,-108.1 478.19,-117.95 485.19,-118.25"/>
</g>
<!-- TABL&#45;SCX_T100KEY&#45;&gt;DTEL&#45;SYMSGNO -->
<g id="edge44" class="edge">
<title>TABL&#45;SCX_T100KEY&#45;&gt;DTEL&#45;SYMSGNO</title>
<path fill="none" stroke="black" d="M522.66,-143.88C546.8,-134.22 577.14,-122.09 602.66,-111.88"/>
<polygon fill="black" stroke="black" points="604.2,-115.03 612.18,-108.07 601.6,-108.53 604.2,-115.03"/>
</g>
<!-- TABL&#45;SCX_T100KEY&#45;&gt;DTEL&#45;SYMSGID -->
<g id="edge43" class="edge">
<title>TABL&#45;SCX_T100KEY&#45;&gt;DTEL&#45;SYMSGID</title>
<path fill="none" stroke="black" d="M425.34,-143.97C393.64,-134.06 353.5,-121.51 320.24,-111.12"/>
<polygon fill="black" stroke="black" points="321.2,-107.75 310.61,-108.11 319.11,-114.43 321.2,-107.75"/>
</g>
<!-- DOMA&#45;SYMSGNO -->
<g id="node18" class="node">
<title>DOMA&#45;SYMSGNO</title>
<g id="a_node18"><a xlink:href="./DOMA_SYMSGNO.html" xlink:title="DOMA&#45;SYMSGNO">
<polygon fill="none" stroke="yellow" points="720.71,-36 588.99,-36 588.99,0 720.71,0 720.71,-36"/>
<text text-anchor="middle" x="654.85" y="-13.8" font-family="Times,serif" font-size="14.00">DOMA&#45;SYMSGNO</text>
</a>
</g>
</g>
<!-- DTEL&#45;SYMSGNO&#45;&gt;DOMA&#45;SYMSGNO -->
<g id="edge46" class="edge">
<title>DTEL&#45;SYMSGNO&#45;&gt;DOMA&#45;SYMSGNO</title>
<path fill="none" stroke="black" d="M654.85,-71.7C654.85,-63.98 654.85,-54.71 654.85,-46.11"/>
<polygon fill="black" stroke="black" points="658.35,-46.1 654.85,-36.1 651.35,-46.1 658.35,-46.1"/>
</g>
<!-- DOMA&#45;ARBGB -->
<g id="node20" class="node">
<title>DOMA&#45;ARBGB</title>
<g id="a_node20"><a xlink:href="./DOMA_ARBGB.html" xlink:title="DOMA&#45;ARBGB">
<polygon fill="none" stroke="yellow" points="311.5,-36 200.2,-36 200.2,0 311.5,0 311.5,-36"/>
<text text-anchor="middle" x="255.85" y="-13.8" font-family="Times,serif" font-size="14.00">DOMA&#45;ARBGB</text>
</a>
</g>
</g>
<!-- DTEL&#45;SYMSGID&#45;&gt;DOMA&#45;ARBGB -->
<g id="edge47" class="edge">
<title>DTEL&#45;SYMSGID&#45;&gt;DOMA&#45;ARBGB</title>
<path fill="none" stroke="black" d="M255.85,-71.7C255.85,-63.98 255.85,-54.71 255.85,-46.11"/>
<polygon fill="black" stroke="black" points="259.35,-46.1 255.85,-36.1 252.35,-46.1 259.35,-46.1"/>
</g>
<!-- DOMA&#45;SYCHAR01 -->
<g id="node22" class="node">
<title>DOMA&#45;SYCHAR01</title>
<g id="a_node22"><a xlink:href="./DOMA_SYCHAR01.html" xlink:title="DOMA&#45;SYCHAR01">
<polygon fill="none" stroke="yellow" points="349.05,-180 214.65,-180 214.65,-144 349.05,-144 349.05,-180"/>
<text text-anchor="middle" x="281.85" y="-157.8" font-family="Times,serif" font-size="14.00">DOMA&#45;SYCHAR01</text>
</a>
</g>
</g>
<!-- DTEL&#45;SYMSGTY&#45;&gt;DOMA&#45;SYCHAR01 -->
<g id="edge48" class="edge">
<title>DTEL&#45;SYMSGTY&#45;&gt;DOMA&#45;SYCHAR01</title>
<path fill="none" stroke="black" d="M433.94,-215.97C405.86,-206.19 370.4,-193.84 340.78,-183.52"/>
<polygon fill="black" stroke="black" points="341.58,-180.09 330.99,-180.11 339.28,-186.71 341.58,-180.09"/>
</g>
<!-- DOMA&#45;SYCHAR50 -->
<g id="node24" class="node">
<title>DOMA&#45;SYCHAR50</title>
<g id="a_node24"><a xlink:href="./DOMA_SYCHAR50.html" xlink:title="DOMA&#45;SYCHAR50">
<polygon fill="none" stroke="yellow" points="159.05,-180 24.65,-180 24.65,-144 159.05,-144 159.05,-180"/>
<text text-anchor="middle" x="91.85" y="-157.8" font-family="Times,serif" font-size="14.00">DOMA&#45;SYCHAR50</text>
</a>
</g>
</g>
<!-- DTEL&#45;SYMSGV&#45;&gt;DOMA&#45;SYCHAR50 -->
<g id="edge49" class="edge">
<title>DTEL&#45;SYMSGV&#45;&gt;DOMA&#45;SYCHAR50</title>
<path fill="none" stroke="black" d="M99.38,-215.7C98.28,-207.98 96.95,-198.71 95.73,-190.11"/>
<polygon fill="black" stroke="black" points="99.18,-189.51 94.3,-180.1 92.25,-190.5 99.18,-189.51"/>
</g>
<!-- INTF&#45;IF_XCO_MESSAGE_SHORT_TEXT&#45;&gt;INTF&#45;IF_XCO_TEXT -->
<g id="edge51" class="edge">
<title>INTF&#45;IF_XCO_MESSAGE_SHORT_TEXT&#45;&gt;INTF&#45;IF_XCO_TEXT</title>
<path fill="none" stroke="black" d="M1226.45,-287.94C1245.43,-279.53 1265.99,-267.74 1280.85,-252 1316.8,-213.94 1287.56,-177.42 1327.85,-144 1350.65,-125.09 1420.7,-110.73 1477.91,-101.77"/>
<polygon fill="black" stroke="black" points="1478.71,-105.18 1488.06,-100.21 1477.65,-98.27 1478.71,-105.18"/>
</g>
<!-- INTF&#45;IF_XCO_MESSAGE_SHORT_TEXT&#45;&gt;INTF&#45;IF_XCO_MESSAGE -->
<g id="edge50" class="edge">
<title>INTF&#45;IF_XCO_MESSAGE_SHORT_TEXT&#45;&gt;INTF&#45;IF_XCO_MESSAGE</title>
<path fill="none" stroke="black" d="M1116.97,-324.11C1079.9,-334.18 1031.62,-346.95 991.09,-357.43"/>
<polygon fill="black" stroke="black" points="990.04,-354.08 981.23,-359.97 991.79,-360.86 990.04,-354.08"/>
</g>
<!-- INTF&#45;IF_XCO_L10N_TEXT -->
<g id="node26" class="node">
<title>INTF&#45;IF_XCO_L10N_TEXT</title>
<g id="a_node26"><a xlink:href="./INTF_IF_XCO_L10N_TEXT.html" xlink:title="INTF&#45;IF_XCO_L10N_TEXT">
<polygon fill="none" stroke="yellow" points="1271.53,-252 1088.17,-252 1088.17,-216 1271.53,-216 1271.53,-252"/>
<text text-anchor="middle" x="1179.85" y="-229.8" font-family="Times,serif" font-size="14.00">INTF&#45;IF_XCO_L10N_TEXT</text>
</a>
</g>
</g>
<!-- INTF&#45;IF_XCO_MESSAGE_SHORT_TEXT&#45;&gt;INTF&#45;IF_XCO_L10N_TEXT -->
<g id="edge52" class="edge">
<title>INTF&#45;IF_XCO_MESSAGE_SHORT_TEXT&#45;&gt;INTF&#45;IF_XCO_L10N_TEXT</title>
<path fill="none" stroke="black" d="M1176.84,-287.7C1177.28,-279.98 1177.81,-270.71 1178.3,-262.11"/>
<polygon fill="black" stroke="black" points="1181.8,-262.29 1178.88,-252.1 1174.81,-261.89 1181.8,-262.29"/>
</g>
<!-- INTF&#45;IF_XCO_L10N_TEXT&#45;&gt;INTF&#45;IF_XCO_TEXT -->
<g id="edge54" class="edge">
<title>INTF&#45;IF_XCO_L10N_TEXT&#45;&gt;INTF&#45;IF_XCO_TEXT</title>
<path fill="none" stroke="black" d="M1199.29,-215.76C1227.11,-191.23 1276.04,-148.68 1285.85,-144 1346.38,-115.15 1421.54,-102.01 1477.82,-96.01"/>
<polygon fill="black" stroke="black" points="1478.5,-99.46 1488.1,-94.98 1477.8,-92.5 1478.5,-99.46"/>
</g>
<!-- DTEL&#45;SPRAS -->
<g id="node27" class="node">
<title>DTEL&#45;SPRAS</title>
<g id="a_node27"><a xlink:href="./DTEL_SPRAS.html" xlink:title="DTEL&#45;SPRAS">
<polygon fill="none" stroke="green" points="1229.57,-180 1130.14,-180 1130.14,-144 1229.57,-144 1229.57,-180"/>
<text text-anchor="middle" x="1179.85" y="-157.8" font-family="Times,serif" font-size="14.00">DTEL&#45;SPRAS</text>
</a>
</g>
</g>
<!-- INTF&#45;IF_XCO_L10N_TEXT&#45;&gt;DTEL&#45;SPRAS -->
<g id="edge53" class="edge">
<title>INTF&#45;IF_XCO_L10N_TEXT&#45;&gt;DTEL&#45;SPRAS</title>
<path fill="none" stroke="black" d="M1179.85,-215.7C1179.85,-207.98 1179.85,-198.71 1179.85,-190.11"/>
<polygon fill="black" stroke="black" points="1183.35,-190.1 1179.85,-180.1 1176.35,-190.1 1183.35,-190.1"/>
</g>
<!-- DOMA&#45;SPRAS -->
<g id="node28" class="node">
<title>DOMA&#45;SPRAS</title>
<g id="a_node28"><a xlink:href="./DOMA_SPRAS.html" xlink:title="DOMA&#45;SPRAS">
<polygon fill="none" stroke="green" points="1233.07,-108 1126.64,-108 1126.64,-72 1233.07,-72 1233.07,-108"/>
<text text-anchor="middle" x="1179.85" y="-85.8" font-family="Times,serif" font-size="14.00">DOMA&#45;SPRAS</text>
</a>
</g>
</g>
<!-- DTEL&#45;SPRAS&#45;&gt;DOMA&#45;SPRAS -->
<g id="edge55" class="edge">
<title>DTEL&#45;SPRAS&#45;&gt;DOMA&#45;SPRAS</title>
<path fill="none" stroke="black" d="M1179.85,-143.7C1179.85,-135.98 1179.85,-126.71 1179.85,-118.11"/>
<polygon fill="black" stroke="black" points="1183.35,-118.1 1179.85,-108.1 1176.35,-118.1 1183.35,-118.1"/>
</g>
<!-- CLAS&#45;CL_XCO_MESSAGE_TYPE&#45;&gt;INTF&#45;IF_XCO_NEWS -->
<g id="edge58" class="edge">
<title>CLAS&#45;CL_XCO_MESSAGE_TYPE&#45;&gt;INTF&#45;IF_XCO_NEWS</title>
<path fill="none" stroke="black" d="M1023.52,-289.26C1026.66,-288.84 1029.78,-288.41 1032.85,-288 1144.54,-272.95 1273.56,-256.27 1355.88,-245.71"/>
<polygon fill="black" stroke="black" points="1356.46,-249.17 1365.93,-244.42 1355.57,-242.22 1356.46,-249.17"/>
</g>
<!-- CLAS&#45;CL_XCO_MESSAGE_TYPE&#45;&gt;DTEL&#45;SYMSGTY -->
<g id="edge56" class="edge">
<title>CLAS&#45;CL_XCO_MESSAGE_TYPE&#45;&gt;DTEL&#45;SYMSGTY</title>
<path fill="none" stroke="black" d="M797.94,-290.97C729.87,-281.87 641.27,-268.91 554.63,-252.27"/>
<polygon fill="black" stroke="black" points="555.11,-248.79 544.62,-250.32 553.77,-255.66 555.11,-248.79"/>
</g>
<!-- CLAS&#45;CL_XCO_ENUM_CONSTANT -->
<g id="node30" class="node">
<title>CLAS&#45;CL_XCO_ENUM_CONSTANT</title>
<g id="a_node30"><a xlink:href="./CLAS_CL_XCO_ENUM_CONSTANT.html" xlink:title="CLAS&#45;CL_XCO_ENUM_CONSTANT">
<polygon fill="none" stroke="yellow" points="1070.09,-252 829.61,-252 829.61,-216 1070.09,-216 1070.09,-252"/>
<text text-anchor="middle" x="949.85" y="-229.8" font-family="Times,serif" font-size="14.00">CLAS&#45;CL_XCO_ENUM_CONSTANT</text>
</a>
</g>
</g>
<!-- CLAS&#45;CL_XCO_MESSAGE_TYPE&#45;&gt;CLAS&#45;CL_XCO_ENUM_CONSTANT -->
<g id="edge57" class="edge">
<title>CLAS&#45;CL_XCO_MESSAGE_TYPE&#45;&gt;CLAS&#45;CL_XCO_ENUM_CONSTANT</title>
<path fill="none" stroke="black" d="M920.49,-287.7C924.98,-279.64 930.41,-269.89 935.38,-260.98"/>
<polygon fill="black" stroke="black" points="938.51,-262.54 940.32,-252.1 932.4,-259.14 938.51,-262.54"/>
</g>
<!-- INTF&#45;IF_XCO_PRINTABLE -->
<g id="node31" class="node">
<title>INTF&#45;IF_XCO_PRINTABLE</title>
<g id="a_node31"><a xlink:href="./INTF_IF_XCO_PRINTABLE.html" xlink:title="INTF&#45;IF_XCO_PRINTABLE">
<polygon fill="none" stroke="green" points="1092.1,-180 907.61,-180 907.61,-144 1092.1,-144 1092.1,-180"/>
<text text-anchor="middle" x="999.85" y="-157.8" font-family="Times,serif" font-size="14.00">INTF&#45;IF_XCO_PRINTABLE</text>
</a>
</g>
</g>
<!-- CLAS&#45;CL_XCO_ENUM_CONSTANT&#45;&gt;INTF&#45;IF_XCO_PRINTABLE -->
<g id="edge59" class="edge">
<title>CLAS&#45;CL_XCO_ENUM_CONSTANT&#45;&gt;INTF&#45;IF_XCO_PRINTABLE</title>
<path fill="none" stroke="black" d="M962.21,-215.7C968.09,-207.47 975.22,-197.48 981.7,-188.42"/>
<polygon fill="black" stroke="black" points="984.67,-190.28 987.64,-180.1 978.98,-186.21 984.67,-190.28"/>
</g>
<!-- INTF&#45;IF_XCO_PRINTABLE&#45;&gt;INTF&#45;IF_XCO_TEXT -->
<g id="edge60" class="edge">
<title>INTF&#45;IF_XCO_PRINTABLE&#45;&gt;INTF&#45;IF_XCO_TEXT</title>
<path fill="none" stroke="black" d="M1092.32,-147.82C1101.95,-146.5 1111.6,-145.21 1120.85,-144 1245.46,-127.73 1390.2,-110.59 1478.38,-100.36"/>
<polygon fill="black" stroke="black" points="1478.79,-103.83 1488.32,-99.2 1477.99,-96.88 1478.79,-103.83"/>
</g>
<!-- TABL&#45;SYMSG&#45;&gt;DTEL&#45;SYMSGNO -->
<g id="edge63" class="edge">
<title>TABL&#45;SYMSG&#45;&gt;DTEL&#45;SYMSGNO</title>
<path fill="none" stroke="black" d="M391.48,-287.76C390.88,-267.76 393.18,-235.09 411.85,-216 460.39,-166.37 503.04,-213.49 563.85,-180 592.77,-164.07 618.94,-136.42 635.71,-116.15"/>
<polygon fill="black" stroke="black" points="638.53,-118.23 642.08,-108.25 633.08,-113.83 638.53,-118.23"/>
</g>
<!-- TABL&#45;SYMSG&#45;&gt;DTEL&#45;SYMSGID -->
<g id="edge62" class="edge">
<title>TABL&#45;SYMSG&#45;&gt;DTEL&#45;SYMSGID</title>
<path fill="none" stroke="black" d="M344.41,-287.99C299.35,-269.28 234.93,-234.42 205.85,-180 198.31,-165.89 199.95,-158.87 205.85,-144 210.14,-133.2 217.79,-123.32 225.84,-115.1"/>
<polygon fill="black" stroke="black" points="228.43,-117.47 233.26,-108.04 223.6,-112.4 228.43,-117.47"/>
</g>
<!-- TABL&#45;SYMSG&#45;&gt;DTEL&#45;SYMSGTY -->
<g id="edge61" class="edge">
<title>TABL&#45;SYMSG&#45;&gt;DTEL&#45;SYMSGTY</title>
<path fill="none" stroke="black" d="M415.1,-287.7C426.43,-278.88 440.38,-268.03 452.67,-258.47"/>
<polygon fill="black" stroke="black" points="455.12,-261.01 460.86,-252.1 450.82,-255.48 455.12,-261.01"/>
</g>
<!-- TABL&#45;SYMSG&#45;&gt;DTEL&#45;SYMSGV -->
<g id="edge64" class="edge">
<title>TABL&#45;SYMSG&#45;&gt;DTEL&#45;SYMSGV</title>
<path fill="none" stroke="black" d="M339.82,-292.24C291.84,-280.7 220.97,-263.65 169.05,-251.16"/>
<polygon fill="black" stroke="black" points="169.8,-247.74 159.26,-248.81 168.16,-254.55 169.8,-247.74"/>
</g>
<!-- INTF&#45;IF_XCO_XSTRING&#45;&gt;INTF&#45;IF_XCO_STRING -->
<g id="edge66" class="edge">
<title>INTF&#45;IF_XCO_XSTRING&#45;&gt;INTF&#45;IF_XCO_STRING</title>
<path fill="none" stroke="black" d="M1483.84,-396.11C1457.33,-405.95 1422.66,-418.36 1392.91,-428.69"/>
<polygon fill="black" stroke="black" points="1391.74,-425.39 1383.44,-431.97 1394.03,-432.01 1391.74,-425.39"/>
</g>
<!-- INTF&#45;IF_XCO_XSTRING_STRING_CNVRSN -->
<g id="node34" class="node">
<title>INTF&#45;IF_XCO_XSTRING_STRING_CNVRSN</title>
<g id="a_node34"><a xlink:href="./INTF_IF_XCO_XSTRING_STRING_CNVRSN.html" xlink:title="INTF&#45;IF_XCO_XSTRING_STRING_CNVRSN">
<polygon fill="none" stroke="green" points="1731.58,-324 1442.12,-324 1442.12,-288 1731.58,-288 1731.58,-324"/>
<text text-anchor="middle" x="1586.85" y="-301.8" font-family="Times,serif" font-size="14.00">INTF&#45;IF_XCO_XSTRING_STRING_CNVRSN</text>
</a>
</g>
</g>
<!-- INTF&#45;IF_XCO_XSTRING&#45;&gt;INTF&#45;IF_XCO_XSTRING_STRING_CNVRSN -->
<g id="edge65" class="edge">
<title>INTF&#45;IF_XCO_XSTRING&#45;&gt;INTF&#45;IF_XCO_XSTRING_STRING_CNVRSN</title>
<path fill="none" stroke="black" d="M1540.93,-359.7C1548.24,-351.3 1557.16,-341.07 1565.19,-331.86"/>
<polygon fill="black" stroke="black" points="1568.02,-333.94 1571.95,-324.1 1562.74,-329.34 1568.02,-333.94"/>
</g>
<!-- INTF&#45;IF_XCO_STRING_COMPOSITION&#45;&gt;INTF&#45;IF_XCO_STRINGS -->
<g id="edge67" class="edge">
<title>INTF&#45;IF_XCO_STRING_COMPOSITION&#45;&gt;INTF&#45;IF_XCO_STRINGS</title>
<path fill="none" stroke="black" d="M1115.53,-612.05C1166.87,-622.28 1230.98,-635.31 1282,-645.88"/>
<polygon fill="black" stroke="black" points="1281.53,-649.36 1292.03,-647.97 1282.95,-642.51 1281.53,-649.36"/>
</g>
<!-- INTF&#45;IF_XCO_STRING_COMPOSITION&#45;&gt;INTF&#45;IF_XCO_STRING -->
<g id="edge68" class="edge">
<title>INTF&#45;IF_XCO_STRING_COMPOSITION&#45;&gt;INTF&#45;IF_XCO_STRING</title>
<path fill="none" stroke="black" d="M1062.52,-575.87C1117.99,-549.96 1223.15,-500.84 1283.73,-472.55"/>
<polygon fill="black" stroke="black" points="1285.47,-475.59 1293.05,-468.19 1282.51,-469.25 1285.47,-475.59"/>
</g>
<!-- DOMA&#45;INT4 -->
<g id="node39" class="node">
<title>DOMA&#45;INT4</title>
<g id="a_node39"><a xlink:href="./DOMA_INT4.html" xlink:title="DOMA&#45;INT4">
<polygon fill="none" stroke="yellow" points="1750.6,-540 1657.11,-540 1657.11,-504 1750.6,-504 1750.6,-540"/>
<text text-anchor="middle" x="1703.85" y="-517.8" font-family="Times,serif" font-size="14.00">DOMA&#45;INT4</text>
</a>
</g>
</g>
<!-- DTEL&#45;INT4&#45;&gt;DOMA&#45;INT4 -->
<g id="edge69" class="edge">
<title>DTEL&#45;INT4&#45;&gt;DOMA&#45;INT4</title>
<path fill="none" stroke="black" d="M1703.1,-575.7C1703.21,-567.98 1703.34,-558.71 1703.47,-550.11"/>
<polygon fill="black" stroke="black" points="1706.97,-550.15 1703.61,-540.1 1699.97,-550.05 1706.97,-550.15"/>
</g>
</g>
</svg>
