<?xml version="1.0" encoding="UTF-8" standalone="no"?>
<!DOCTYPE svg PUBLIC "-//W3C//DTD SVG 1.1//EN"
 "http://www.w3.org/Graphics/SVG/1.1/DTD/svg11.dtd">
<!-- Generated by graphviz version 2.47.3 (20210619.1520)
 -->
<!-- Title: G Pages: 1 -->
<svg width="550pt" height="332pt"
 viewBox="0.00 0.00 550.10 332.00" xmlns="http://www.w3.org/2000/svg" xmlns:xlink="http://www.w3.org/1999/xlink">
<g id="graph0" class="graph" transform="scale(1 1) rotate(0) translate(4 328)">
<title>G</title>
<polygon fill="white" stroke="transparent" points="-4,4 -4,-328 546.1,-328 546.1,4 -4,4"/>
<!-- INTF&#45;IF_FDT_CP_OPERATION_CHECK -->
<g id="node1" class="node">
<title>INTF&#45;IF_FDT_CP_OPERATION_CHECK</title>
<polygon fill="none" stroke="green" points="422.09,-324 160.05,-324 160.05,-288 422.09,-288 422.09,-324"/>
<text text-anchor="middle" x="291.07" y="-301.8" font-family="Times,serif" font-size="14.00">INTF&#45;IF_FDT_CP_OPERATION_CHECK</text>
</g>
<!-- INTF&#45;IF_FDT_CP_VALIDATION_OPERATION -->
<g id="node2" class="node">
<title>INTF&#45;IF_FDT_CP_VALIDATION_OPERATION</title>
<g id="a_node2"><a xlink:href="./INTF_IF_FDT_CP_VALIDATION_OPERATION.html" xlink:title="INTF&#45;IF_FDT_CP_VALIDATION_OPERATION">
<polygon fill="none" stroke="green" points="302.22,-252 -0.07,-252 -0.07,-216 302.22,-216 302.22,-252"/>
<text text-anchor="middle" x="151.07" y="-229.8" font-family="Times,serif" font-size="14.00">INTF&#45;IF_FDT_CP_VALIDATION_OPERATION</text>
</a>
</g>
</g>
<!-- INTF&#45;IF_FDT_CP_OPERATION_CHECK&#45;&gt;INTF&#45;IF_FDT_CP_VALIDATION_OPERATION -->
<g id="edge2" class="edge">
<title>INTF&#45;IF_FDT_CP_OPERATION_CHECK&#45;&gt;INTF&#45;IF_FDT_CP_VALIDATION_OPERATION</title>
<path fill="none" stroke="black" d="M256.82,-287.88C238.01,-278.47 214.49,-266.71 194.41,-256.67"/>
<polygon fill="black" stroke="black" points="195.96,-253.53 185.45,-252.19 192.83,-259.79 195.96,-253.53"/>
</g>
<!-- INTF&#45;IF_FDT_CP_ADMIN_DATA -->
<g id="node7" class="node">
<title>INTF&#45;IF_FDT_CP_ADMIN_DATA</title>
<g id="a_node7"><a xlink:href="./INTF_IF_FDT_CP_ADMIN_DATA.html" xlink:title="INTF&#45;IF_FDT_CP_ADMIN_DATA">
<polygon fill="none" stroke="green" points="542.14,-252 320.01,-252 320.01,-216 542.14,-216 542.14,-252"/>
<text text-anchor="middle" x="431.07" y="-229.8" font-family="Times,serif" font-size="14.00">INTF&#45;IF_FDT_CP_ADMIN_DATA</text>
</a>
</g>
</g>
<!-- INTF&#45;IF_FDT_CP_OPERATION_CHECK&#45;&gt;INTF&#45;IF_FDT_CP_ADMIN_DATA -->
<g id="edge1" class="edge">
<title>INTF&#45;IF_FDT_CP_OPERATION_CHECK&#45;&gt;INTF&#45;IF_FDT_CP_ADMIN_DATA</title>
<path fill="none" stroke="black" d="M325.32,-287.88C344.13,-278.47 367.66,-266.71 387.74,-256.67"/>
<polygon fill="black" stroke="black" points="389.31,-259.79 396.69,-252.19 386.18,-253.53 389.31,-259.79"/>
</g>
<!-- INTF&#45;IF_FDT_CP_EXTERNAL_TYPES -->
<g id="node3" class="node">
<title>INTF&#45;IF_FDT_CP_EXTERNAL_TYPES</title>
<g id="a_node3"><a xlink:href="./INTF_IF_FDT_CP_EXTERNAL_TYPES.html" xlink:title="INTF&#45;IF_FDT_CP_EXTERNAL_TYPES">
<polygon fill="none" stroke="green" points="417.48,-180 164.66,-180 164.66,-144 417.48,-144 417.48,-180"/>
<text text-anchor="middle" x="291.07" y="-157.8" font-family="Times,serif" font-size="14.00">INTF&#45;IF_FDT_CP_EXTERNAL_TYPES</text>
</a>
</g>
</g>
<!-- INTF&#45;IF_FDT_CP_VALIDATION_OPERATION&#45;&gt;INTF&#45;IF_FDT_CP_EXTERNAL_TYPES -->
<g id="edge3" class="edge">
<title>INTF&#45;IF_FDT_CP_VALIDATION_OPERATION&#45;&gt;INTF&#45;IF_FDT_CP_EXTERNAL_TYPES</title>
<path fill="none" stroke="black" d="M185.32,-215.88C204.13,-206.47 227.66,-194.71 247.74,-184.67"/>
<polygon fill="black" stroke="black" points="249.31,-187.79 256.69,-180.19 246.18,-181.53 249.31,-187.79"/>
</g>
<!-- INTF&#45;IF_FDT_CP_AST_NODE -->
<g id="node4" class="node">
<title>INTF&#45;IF_FDT_CP_AST_NODE</title>
<g id="a_node4"><a xlink:href="./INTF_IF_FDT_CP_AST_NODE.html" xlink:title="INTF&#45;IF_FDT_CP_AST_NODE">
<polygon fill="none" stroke="green" points="391.65,-108 190.49,-108 190.49,-72 391.65,-72 391.65,-108"/>
<text text-anchor="middle" x="291.07" y="-85.8" font-family="Times,serif" font-size="14.00">INTF&#45;IF_FDT_CP_AST_NODE</text>
</a>
</g>
</g>
<!-- INTF&#45;IF_FDT_CP_EXTERNAL_TYPES&#45;&gt;INTF&#45;IF_FDT_CP_AST_NODE -->
<g id="edge5" class="edge">
<title>INTF&#45;IF_FDT_CP_EXTERNAL_TYPES&#45;&gt;INTF&#45;IF_FDT_CP_AST_NODE</title>
<path fill="none" stroke="black" d="M285.16,-143.7C284.36,-135.98 284.13,-126.71 284.48,-118.11"/>
<polygon fill="black" stroke="black" points="287.97,-118.32 285.18,-108.1 280.99,-117.84 287.97,-118.32"/>
</g>
<!-- DTEL&#45;CHAR1 -->
<g id="node5" class="node">
<title>DTEL&#45;CHAR1</title>
<g id="a_node5"><a xlink:href="./DTEL_CHAR1.html" xlink:title="DTEL&#45;CHAR1">
<polygon fill="none" stroke="yellow" points="512.38,-108 409.76,-108 409.76,-72 512.38,-72 512.38,-108"/>
<text text-anchor="middle" x="461.07" y="-85.8" font-family="Times,serif" font-size="14.00">DTEL&#45;CHAR1</text>
</a>
</g>
</g>
<!-- INTF&#45;IF_FDT_CP_EXTERNAL_TYPES&#45;&gt;DTEL&#45;CHAR1 -->
<g id="edge4" class="edge">
<title>INTF&#45;IF_FDT_CP_EXTERNAL_TYPES&#45;&gt;DTEL&#45;CHAR1</title>
<path fill="none" stroke="black" d="M332.66,-143.88C356.11,-134.22 385.58,-122.09 410.37,-111.88"/>
<polygon fill="black" stroke="black" points="411.71,-115.11 419.62,-108.07 409.04,-108.64 411.71,-115.11"/>
</g>
<!-- INTF&#45;IF_FDT_CP_AST_NODE&#45;&gt;INTF&#45;IF_FDT_CP_EXTERNAL_TYPES -->
<g id="edge6" class="edge">
<title>INTF&#45;IF_FDT_CP_AST_NODE&#45;&gt;INTF&#45;IF_FDT_CP_EXTERNAL_TYPES</title>
<path fill="none" stroke="black" d="M296.97,-108.1C297.77,-115.79 298.01,-125.05 297.68,-133.67"/>
<polygon fill="black" stroke="black" points="294.18,-133.48 296.99,-143.7 301.16,-133.96 294.18,-133.48"/>
</g>
<!-- DOMA&#45;CHAR1 -->
<g id="node6" class="node">
<title>DOMA&#45;CHAR1</title>
<g id="a_node6"><a xlink:href="./DOMA_CHAR1.html" xlink:title="DOMA&#45;CHAR1">
<polygon fill="none" stroke="green" points="515.88,-36 406.26,-36 406.26,0 515.88,0 515.88,-36"/>
<text text-anchor="middle" x="461.07" y="-13.8" font-family="Times,serif" font-size="14.00">DOMA&#45;CHAR1</text>
</a>
</g>
</g>
<!-- DTEL&#45;CHAR1&#45;&gt;DOMA&#45;CHAR1 -->
<g id="edge7" class="edge">
<title>DTEL&#45;CHAR1&#45;&gt;DOMA&#45;CHAR1</title>
<path fill="none" stroke="black" d="M461.07,-71.7C461.07,-63.98 461.07,-54.71 461.07,-46.11"/>
<polygon fill="black" stroke="black" points="464.57,-46.1 461.07,-36.1 457.57,-46.1 464.57,-46.1"/>
</g>
<!-- INTF&#45;IF_FDT_CP_ADMIN_DATA&#45;&gt;INTF&#45;IF_FDT_CP_EXTERNAL_TYPES -->
<g id="edge8" class="edge">
<title>INTF&#45;IF_FDT_CP_ADMIN_DATA&#45;&gt;INTF&#45;IF_FDT_CP_EXTERNAL_TYPES</title>
<path fill="none" stroke="black" d="M396.82,-215.88C378.01,-206.47 354.49,-194.71 334.41,-184.67"/>
<polygon fill="black" stroke="black" points="335.96,-181.53 325.45,-180.19 332.83,-187.79 335.96,-181.53"/>
</g>
</g>
</svg>
