<?xml version="1.0" encoding="UTF-8" standalone="no"?>
<!DOCTYPE svg PUBLIC "-//W3C//DTD SVG 1.1//EN"
 "http://www.w3.org/Graphics/SVG/1.1/DTD/svg11.dtd">
<!-- Generated by graphviz version 2.47.3 (20210619.1520)
 -->
<!-- Title: G Pages: 1 -->
<svg width="335pt" height="188pt"
 viewBox="0.00 0.00 335.35 188.00" xmlns="http://www.w3.org/2000/svg" xmlns:xlink="http://www.w3.org/1999/xlink">
<g id="graph0" class="graph" transform="scale(1 1) rotate(0) translate(4 184)">
<title>G</title>
<polygon fill="white" stroke="transparent" points="-4,4 -4,-184 331.35,-184 331.35,4 -4,4"/>
<!-- INTF&#45;IF_SOAP_PROPERTY -->
<g id="node1" class="node">
<title>INTF&#45;IF_SOAP_PROPERTY</title>
<polygon fill="none" stroke="yellow" points="268.75,-180 83.66,-180 83.66,-144 268.75,-144 268.75,-180"/>
<text text-anchor="middle" x="176.2" y="-157.8" font-family="Times,serif" font-size="14.00">INTF&#45;IF_SOAP_PROPERTY</text>
</g>
<!-- TTYP&#45;SOAP_VALUE_LIST -->
<g id="node2" class="node">
<title>TTYP&#45;SOAP_VALUE_LIST</title>
<g id="a_node2"><a xlink:href="./TTYP_SOAP_VALUE_LIST.html" xlink:title="TTYP&#45;SOAP_VALUE_LIST">
<polygon fill="none" stroke="yellow" points="182.61,-108 -0.2,-108 -0.2,-72 182.61,-72 182.61,-108"/>
<text text-anchor="middle" x="91.2" y="-85.8" font-family="Times,serif" font-size="14.00">TTYP&#45;SOAP_VALUE_LIST</text>
</a>
</g>
</g>
<!-- INTF&#45;IF_SOAP_PROPERTY&#45;&gt;TTYP&#45;SOAP_VALUE_LIST -->
<g id="edge2" class="edge">
<title>INTF&#45;IF_SOAP_PROPERTY&#45;&gt;TTYP&#45;SOAP_VALUE_LIST</title>
<path fill="none" stroke="black" d="M155.19,-143.7C144.49,-134.88 131.31,-124.03 119.71,-114.47"/>
<polygon fill="black" stroke="black" points="121.92,-111.76 111.97,-108.1 117.47,-117.16 121.92,-111.76"/>
</g>
<!-- DTEL&#45;BOOLEAN -->
<g id="node3" class="node">
<title>DTEL&#45;BOOLEAN</title>
<g id="a_node3"><a xlink:href="./DTEL_BOOLEAN.html" xlink:title="DTEL&#45;BOOLEAN">
<polygon fill="none" stroke="yellow" points="324,-108 200.41,-108 200.41,-72 324,-72 324,-108"/>
<text text-anchor="middle" x="262.2" y="-85.8" font-family="Times,serif" font-size="14.00">DTEL&#45;BOOLEAN</text>
</a>
</g>
</g>
<!-- INTF&#45;IF_SOAP_PROPERTY&#45;&gt;DTEL&#45;BOOLEAN -->
<g id="edge1" class="edge">
<title>INTF&#45;IF_SOAP_PROPERTY&#45;&gt;DTEL&#45;BOOLEAN</title>
<path fill="none" stroke="black" d="M197.46,-143.7C208.29,-134.88 221.62,-124.03 233.36,-114.47"/>
<polygon fill="black" stroke="black" points="235.64,-117.13 241.19,-108.1 231.22,-111.7 235.64,-117.13"/>
</g>
<!-- DOMA&#45;BOOLEAN -->
<g id="node4" class="node">
<title>DOMA&#45;BOOLEAN</title>
<g id="a_node4"><a xlink:href="./DOMA_BOOLEAN.html" xlink:title="DOMA&#45;BOOLEAN">
<polygon fill="none" stroke="yellow" points="327.5,-36 196.91,-36 196.91,0 327.5,0 327.5,-36"/>
<text text-anchor="middle" x="262.2" y="-13.8" font-family="Times,serif" font-size="14.00">DOMA&#45;BOOLEAN</text>
</a>
</g>
</g>
<!-- DTEL&#45;BOOLEAN&#45;&gt;DOMA&#45;BOOLEAN -->
<g id="edge3" class="edge">
<title>DTEL&#45;BOOLEAN&#45;&gt;DOMA&#45;BOOLEAN</title>
<path fill="none" stroke="black" d="M262.2,-71.7C262.2,-63.98 262.2,-54.71 262.2,-46.11"/>
<polygon fill="black" stroke="black" points="265.7,-46.1 262.2,-36.1 258.7,-46.1 265.7,-46.1"/>
</g>
</g>
</svg>
