<?xml version="1.0" encoding="UTF-8" standalone="no"?>
<!DOCTYPE svg PUBLIC "-//W3C//DTD SVG 1.1//EN"
 "http://www.w3.org/Graphics/SVG/1.1/DTD/svg11.dtd">
<!-- Generated by graphviz version 2.47.3 (20210619.1520)
 -->
<!-- Title: G Pages: 1 -->
<svg width="424pt" height="260pt"
 viewBox="0.00 0.00 423.76 260.00" xmlns="http://www.w3.org/2000/svg" xmlns:xlink="http://www.w3.org/1999/xlink">
<g id="graph0" class="graph" transform="scale(1 1) rotate(0) translate(4 256)">
<title>G</title>
<polygon fill="white" stroke="transparent" points="-4,4 -4,-256 419.76,-256 419.76,4 -4,4"/>
<!-- INTF&#45;IF_BALI_FREE_TEXT_SETTER -->
<g id="node1" class="node">
<title>INTF&#45;IF_BALI_FREE_TEXT_SETTER</title>
<polygon fill="none" stroke="green" points="343.28,-252 96.92,-252 96.92,-216 343.28,-216 343.28,-252"/>
<text text-anchor="middle" x="220.1" y="-229.8" font-family="Times,serif" font-size="14.00">INTF&#45;IF_BALI_FREE_TEXT_SETTER</text>
</g>
<!-- INTF&#45;IF_BALI_ITEM_SETTER -->
<g id="node2" class="node">
<title>INTF&#45;IF_BALI_ITEM_SETTER</title>
<g id="a_node2"><a xlink:href="./INTF_IF_BALI_ITEM_SETTER.html" xlink:title="INTF&#45;IF_BALI_ITEM_SETTER">
<polygon fill="none" stroke="green" points="322,-180 118.2,-180 118.2,-144 322,-144 322,-180"/>
<text text-anchor="middle" x="220.1" y="-157.8" font-family="Times,serif" font-size="14.00">INTF&#45;IF_BALI_ITEM_SETTER</text>
</a>
</g>
</g>
<!-- INTF&#45;IF_BALI_FREE_TEXT_SETTER&#45;&gt;INTF&#45;IF_BALI_ITEM_SETTER -->
<g id="edge1" class="edge">
<title>INTF&#45;IF_BALI_FREE_TEXT_SETTER&#45;&gt;INTF&#45;IF_BALI_ITEM_SETTER</title>
<path fill="none" stroke="black" d="M220.1,-215.7C220.1,-207.98 220.1,-198.71 220.1,-190.11"/>
<polygon fill="black" stroke="black" points="223.6,-190.1 220.1,-180.1 216.6,-190.1 223.6,-190.1"/>
</g>
<!-- DTEL&#45;SYMSGTY -->
<g id="node3" class="node">
<title>DTEL&#45;SYMSGTY</title>
<g id="a_node3"><a xlink:href="./DTEL_SYMSGTY.html" xlink:title="DTEL&#45;SYMSGTY">
<polygon fill="none" stroke="green" points="133.91,-108 10.29,-108 10.29,-72 133.91,-72 133.91,-108"/>
<text text-anchor="middle" x="72.1" y="-85.8" font-family="Times,serif" font-size="14.00">DTEL&#45;SYMSGTY</text>
</a>
</g>
</g>
<!-- INTF&#45;IF_BALI_ITEM_SETTER&#45;&gt;DTEL&#45;SYMSGTY -->
<g id="edge4" class="edge">
<title>INTF&#45;IF_BALI_ITEM_SETTER&#45;&gt;DTEL&#45;SYMSGTY</title>
<path fill="none" stroke="black" d="M183.9,-143.88C163.84,-134.39 138.73,-122.51 117.39,-112.42"/>
<polygon fill="black" stroke="black" points="118.72,-109.18 108.19,-108.07 115.73,-115.51 118.72,-109.18"/>
</g>
<!-- DTEL&#45;BALLEVEL -->
<g id="node5" class="node">
<title>DTEL&#45;BALLEVEL</title>
<g id="a_node5"><a xlink:href="./DTEL_BALLEVEL.html" xlink:title="DTEL&#45;BALLEVEL">
<polygon fill="none" stroke="green" points="284.34,-108 155.86,-108 155.86,-72 284.34,-72 284.34,-108"/>
<text text-anchor="middle" x="220.1" y="-85.8" font-family="Times,serif" font-size="14.00">DTEL&#45;BALLEVEL</text>
</a>
</g>
</g>
<!-- INTF&#45;IF_BALI_ITEM_SETTER&#45;&gt;DTEL&#45;BALLEVEL -->
<g id="edge3" class="edge">
<title>INTF&#45;IF_BALI_ITEM_SETTER&#45;&gt;DTEL&#45;BALLEVEL</title>
<path fill="none" stroke="black" d="M220.1,-143.7C220.1,-135.98 220.1,-126.71 220.1,-118.11"/>
<polygon fill="black" stroke="black" points="223.6,-118.1 220.1,-108.1 216.6,-118.1 223.6,-118.1"/>
</g>
<!-- DTEL&#45;CHAR1 -->
<g id="node7" class="node">
<title>DTEL&#45;CHAR1</title>
<g id="a_node7"><a xlink:href="./DTEL_CHAR1.html" xlink:title="DTEL&#45;CHAR1">
<polygon fill="none" stroke="yellow" points="408.41,-108 305.79,-108 305.79,-72 408.41,-72 408.41,-108"/>
<text text-anchor="middle" x="357.1" y="-85.8" font-family="Times,serif" font-size="14.00">DTEL&#45;CHAR1</text>
</a>
</g>
</g>
<!-- INTF&#45;IF_BALI_ITEM_SETTER&#45;&gt;DTEL&#45;CHAR1 -->
<g id="edge2" class="edge">
<title>INTF&#45;IF_BALI_ITEM_SETTER&#45;&gt;DTEL&#45;CHAR1</title>
<path fill="none" stroke="black" d="M253.61,-143.88C271.94,-134.51 294.84,-122.81 314.43,-112.8"/>
<polygon fill="black" stroke="black" points="316.15,-115.86 323.46,-108.19 312.96,-109.62 316.15,-115.86"/>
</g>
<!-- DOMA&#45;SYCHAR01 -->
<g id="node4" class="node">
<title>DOMA&#45;SYCHAR01</title>
<g id="a_node4"><a xlink:href="./DOMA_SYCHAR01.html" xlink:title="DOMA&#45;SYCHAR01">
<polygon fill="none" stroke="yellow" points="134.3,-36 -0.1,-36 -0.1,0 134.3,0 134.3,-36"/>
<text text-anchor="middle" x="67.1" y="-13.8" font-family="Times,serif" font-size="14.00">DOMA&#45;SYCHAR01</text>
</a>
</g>
</g>
<!-- DTEL&#45;SYMSGTY&#45;&gt;DOMA&#45;SYCHAR01 -->
<g id="edge5" class="edge">
<title>DTEL&#45;SYMSGTY&#45;&gt;DOMA&#45;SYCHAR01</title>
<path fill="none" stroke="black" d="M70.86,-71.7C70.31,-63.98 69.65,-54.71 69.04,-46.11"/>
<polygon fill="black" stroke="black" points="72.53,-45.83 68.32,-36.1 65.54,-46.33 72.53,-45.83"/>
</g>
<!-- DOMA&#45;BALLEVEL -->
<g id="node6" class="node">
<title>DOMA&#45;BALLEVEL</title>
<g id="a_node6"><a xlink:href="./DOMA_BALLEVEL.html" xlink:title="DOMA&#45;BALLEVEL">
<polygon fill="none" stroke="yellow" points="287.84,-36 152.36,-36 152.36,0 287.84,0 287.84,-36"/>
<text text-anchor="middle" x="220.1" y="-13.8" font-family="Times,serif" font-size="14.00">DOMA&#45;BALLEVEL</text>
</a>
</g>
</g>
<!-- DTEL&#45;BALLEVEL&#45;&gt;DOMA&#45;BALLEVEL -->
<g id="edge6" class="edge">
<title>DTEL&#45;BALLEVEL&#45;&gt;DOMA&#45;BALLEVEL</title>
<path fill="none" stroke="black" d="M220.1,-71.7C220.1,-63.98 220.1,-54.71 220.1,-46.11"/>
<polygon fill="black" stroke="black" points="223.6,-46.1 220.1,-36.1 216.6,-46.1 223.6,-46.1"/>
</g>
<!-- DOMA&#45;CHAR1 -->
<g id="node8" class="node">
<title>DOMA&#45;CHAR1</title>
<g id="a_node8"><a xlink:href="./DOMA_CHAR1.html" xlink:title="DOMA&#45;CHAR1">
<polygon fill="none" stroke="green" points="415.91,-36 306.29,-36 306.29,0 415.91,0 415.91,-36"/>
<text text-anchor="middle" x="361.1" y="-13.8" font-family="Times,serif" font-size="14.00">DOMA&#45;CHAR1</text>
</a>
</g>
</g>
<!-- DTEL&#45;CHAR1&#45;&gt;DOMA&#45;CHAR1 -->
<g id="edge7" class="edge">
<title>DTEL&#45;CHAR1&#45;&gt;DOMA&#45;CHAR1</title>
<path fill="none" stroke="black" d="M358.09,-71.7C358.53,-63.98 359.06,-54.71 359.55,-46.11"/>
<polygon fill="black" stroke="black" points="363.05,-46.29 360.12,-36.1 356.06,-45.89 363.05,-46.29"/>
</g>
</g>
</svg>
