<?xml version="1.0" encoding="UTF-8" standalone="no"?>
<!DOCTYPE svg PUBLIC "-//W3C//DTD SVG 1.1//EN"
 "http://www.w3.org/Graphics/SVG/1.1/DTD/svg11.dtd">
<!-- Generated by graphviz version 2.47.3 (20210619.1520)
 -->
<!-- Title: G Pages: 1 -->
<svg width="2355pt" height="260pt"
 viewBox="0.00 0.00 2354.97 260.00" xmlns="http://www.w3.org/2000/svg" xmlns:xlink="http://www.w3.org/1999/xlink">
<g id="graph0" class="graph" transform="scale(1 1) rotate(0) translate(4 256)">
<title>G</title>
<polygon fill="white" stroke="transparent" points="-4,4 -4,-256 2350.97,-256 2350.97,4 -4,4"/>
<!-- INTF&#45;/IWBEP/IF_CP_REGISTRY_TYPES -->
<g id="node1" class="node">
<title>INTF&#45;/IWBEP/IF_CP_REGISTRY_TYPES</title>
<g id="a_node1"><a xlink:href="./INTF_%23IWBEP%23IF_CP_REGISTRY_TYPES.html" xlink:title="INTF&#45;/IWBEP/IF_CP_REGISTRY_TYPES">
<polygon fill="none" stroke="yellow" points="1097.96,-252 833.23,-252 833.23,-216 1097.96,-216 1097.96,-252"/>
<text text-anchor="middle" x="965.59" y="-229.8" font-family="Times,serif" font-size="14.00">INTF&#45;/IWBEP/IF_CP_REGISTRY_TYPES</text>
</a>
</g>
</g>
<!-- INTF&#45;/IWBEP/IF_CP_RUNTIME_TYPES -->
<g id="node2" class="node">
<title>INTF&#45;/IWBEP/IF_CP_RUNTIME_TYPES</title>
<g id="a_node2"><a xlink:href="./INTF_%23IWBEP%23IF_CP_RUNTIME_TYPES.html" xlink:title="INTF&#45;/IWBEP/IF_CP_RUNTIME_TYPES">
<polygon fill="none" stroke="green" points="1095.79,-180 835.4,-180 835.4,-144 1095.79,-144 1095.79,-180"/>
<text text-anchor="middle" x="965.59" y="-157.8" font-family="Times,serif" font-size="14.00">INTF&#45;/IWBEP/IF_CP_RUNTIME_TYPES</text>
</a>
</g>
</g>
<!-- INTF&#45;/IWBEP/IF_CP_REGISTRY_TYPES&#45;&gt;INTF&#45;/IWBEP/IF_CP_RUNTIME_TYPES -->
<g id="edge6" class="edge">
<title>INTF&#45;/IWBEP/IF_CP_REGISTRY_TYPES&#45;&gt;INTF&#45;/IWBEP/IF_CP_RUNTIME_TYPES</title>
<path fill="none" stroke="black" d="M953.76,-215.7C952.17,-207.98 951.72,-198.71 952.4,-190.11"/>
<polygon fill="black" stroke="black" points="955.88,-190.49 953.8,-180.1 948.95,-189.52 955.88,-190.49"/>
</g>
<!-- INTF&#45;/IWBEP/IF_CP_REGISTRY_TYPES&#45;&gt;INTF&#45;/IWBEP/IF_CP_RUNTIME_TYPES -->
<g id="edge20" class="edge">
<title>INTF&#45;/IWBEP/IF_CP_REGISTRY_TYPES&#45;&gt;INTF&#45;/IWBEP/IF_CP_RUNTIME_TYPES</title>
<path fill="none" stroke="black" d="M977.43,-215.7C979.02,-207.98 979.47,-198.71 978.79,-190.11"/>
<polygon fill="black" stroke="black" points="982.24,-189.52 977.38,-180.1 975.3,-190.49 982.24,-189.52"/>
</g>
<!-- DTEL&#45;PGMID -->
<g id="node3" class="node">
<title>DTEL&#45;PGMID</title>
<g id="a_node3"><a xlink:href="./DTEL_PGMID.html" xlink:title="DTEL&#45;PGMID">
<polygon fill="none" stroke="yellow" points="1215.12,-180 1114.07,-180 1114.07,-144 1215.12,-144 1215.12,-180"/>
<text text-anchor="middle" x="1164.59" y="-157.8" font-family="Times,serif" font-size="14.00">DTEL&#45;PGMID</text>
</a>
</g>
</g>
<!-- INTF&#45;/IWBEP/IF_CP_REGISTRY_TYPES&#45;&gt;DTEL&#45;PGMID -->
<g id="edge5" class="edge">
<title>INTF&#45;/IWBEP/IF_CP_REGISTRY_TYPES&#45;&gt;DTEL&#45;PGMID</title>
<path fill="none" stroke="black" d="M1008.38,-215.88C1036.28,-205.69 1073.04,-192.73 1103.92,-182.2"/>
<polygon fill="black" stroke="black" points="1105.38,-185.4 1113.72,-178.87 1103.13,-178.77 1105.38,-185.4"/>
</g>
<!-- INTF&#45;/IWBEP/IF_CP_REGISTRY_TYPES&#45;&gt;DTEL&#45;PGMID -->
<g id="edge19" class="edge">
<title>INTF&#45;/IWBEP/IF_CP_REGISTRY_TYPES&#45;&gt;DTEL&#45;PGMID</title>
<path fill="none" stroke="black" d="M1019.91,-215.97C1048.62,-206.23 1083.65,-193.94 1112.09,-183.66"/>
<polygon fill="black" stroke="black" points="1113.64,-186.82 1121.85,-180.11 1111.25,-180.24 1113.64,-186.82"/>
</g>
<!-- DTEL&#45;TROBJTYPE -->
<g id="node5" class="node">
<title>DTEL&#45;TROBJTYPE</title>
<g id="a_node5"><a xlink:href="./DTEL_TROBJTYPE.html" xlink:title="DTEL&#45;TROBJTYPE">
<polygon fill="none" stroke="yellow" points="1367.79,-180 1233.4,-180 1233.4,-144 1367.79,-144 1367.79,-180"/>
<text text-anchor="middle" x="1300.59" y="-157.8" font-family="Times,serif" font-size="14.00">DTEL&#45;TROBJTYPE</text>
</a>
</g>
</g>
<!-- INTF&#45;/IWBEP/IF_CP_REGISTRY_TYPES&#45;&gt;DTEL&#45;TROBJTYPE -->
<g id="edge4" class="edge">
<title>INTF&#45;/IWBEP/IF_CP_REGISTRY_TYPES&#45;&gt;DTEL&#45;TROBJTYPE</title>
<path fill="none" stroke="black" d="M1042.98,-215.96C1092.39,-205.76 1157.7,-192.4 1215.59,-180 1218.08,-179.47 1220.61,-178.92 1223.17,-178.37"/>
<polygon fill="black" stroke="black" points="1224.13,-181.74 1233.16,-176.19 1222.64,-174.9 1224.13,-181.74"/>
</g>
<!-- INTF&#45;/IWBEP/IF_CP_REGISTRY_TYPES&#45;&gt;DTEL&#45;TROBJTYPE -->
<g id="edge18" class="edge">
<title>INTF&#45;/IWBEP/IF_CP_REGISTRY_TYPES&#45;&gt;DTEL&#45;TROBJTYPE</title>
<path fill="none" stroke="black" d="M1058.68,-215.96C1107.36,-206.36 1168.11,-193.95 1223.37,-182.18"/>
<polygon fill="black" stroke="black" points="1224.21,-185.58 1233.26,-180.07 1222.74,-178.74 1224.21,-185.58"/>
</g>
<!-- TABL&#45;/IWBEP/I_CP_MOD -->
<g id="node7" class="node">
<title>TABL&#45;/IWBEP/I_CP_MOD</title>
<g id="a_node7"><a xlink:href="./TABL_%23IWBEP%23I_CP_MOD.html" xlink:title="TABL&#45;/IWBEP/I_CP_MOD">
<polygon fill="none" stroke="yellow" points="786.07,-180 609.12,-180 609.12,-144 786.07,-144 786.07,-180"/>
<text text-anchor="middle" x="697.59" y="-157.8" font-family="Times,serif" font-size="14.00">TABL&#45;/IWBEP/I_CP_MOD</text>
</a>
</g>
</g>
<!-- INTF&#45;/IWBEP/IF_CP_REGISTRY_TYPES&#45;&gt;TABL&#45;/IWBEP/I_CP_MOD -->
<g id="edge3" class="edge">
<title>INTF&#45;/IWBEP/IF_CP_REGISTRY_TYPES&#45;&gt;TABL&#45;/IWBEP/I_CP_MOD</title>
<path fill="none" stroke="black" d="M894.49,-215.97C855.01,-205.93 806.15,-193.19 766.95,-182.72"/>
<polygon fill="black" stroke="black" points="767.77,-179.32 757.21,-180.11 765.96,-186.08 767.77,-179.32"/>
</g>
<!-- INTF&#45;/IWBEP/IF_CP_REGISTRY_TYPES&#45;&gt;TABL&#45;/IWBEP/I_CP_MOD -->
<g id="edge17" class="edge">
<title>INTF&#45;/IWBEP/IF_CP_REGISTRY_TYPES&#45;&gt;TABL&#45;/IWBEP/I_CP_MOD</title>
<path fill="none" stroke="black" d="M906.26,-215.97C868.74,-205.89 819.8,-193.08 778.72,-182.59"/>
<polygon fill="black" stroke="black" points="779.56,-179.19 769,-180.11 777.83,-185.97 779.56,-179.19"/>
</g>
<!-- DTEL&#45;/IWBEP/CP_PROXY_MODEL_DESCR -->
<g id="node8" class="node">
<title>DTEL&#45;/IWBEP/CP_PROXY_MODEL_DESCR</title>
<g id="a_node8"><a xlink:href="./DTEL_%23IWBEP%23CP_PROXY_MODEL_DESCR.html" xlink:title="DTEL&#45;/IWBEP/CP_PROXY_MODEL_DESCR">
<polygon fill="none" stroke="yellow" points="291.78,-108 3.41,-108 3.41,-72 291.78,-72 291.78,-108"/>
<text text-anchor="middle" x="147.59" y="-85.8" font-family="Times,serif" font-size="14.00">DTEL&#45;/IWBEP/CP_PROXY_MODEL_DESCR</text>
</a>
</g>
</g>
<!-- INTF&#45;/IWBEP/IF_CP_REGISTRY_TYPES&#45;&gt;DTEL&#45;/IWBEP/CP_PROXY_MODEL_DESCR -->
<g id="edge2" class="edge">
<title>INTF&#45;/IWBEP/IF_CP_REGISTRY_TYPES&#45;&gt;DTEL&#45;/IWBEP/CP_PROXY_MODEL_DESCR</title>
<path fill="none" stroke="black" d="M832.87,-222.77C739.16,-214.2 611.01,-200.11 499.59,-180 397.12,-161.5 280.45,-130.98 210.41,-110.93"/>
<polygon fill="black" stroke="black" points="211,-107.46 200.42,-108.05 209.06,-114.18 211,-107.46"/>
</g>
<!-- INTF&#45;/IWBEP/IF_CP_REGISTRY_TYPES&#45;&gt;DTEL&#45;/IWBEP/CP_PROXY_MODEL_DESCR -->
<g id="edge16" class="edge">
<title>INTF&#45;/IWBEP/IF_CP_REGISTRY_TYPES&#45;&gt;DTEL&#45;/IWBEP/CP_PROXY_MODEL_DESCR</title>
<path fill="none" stroke="black" d="M833.12,-221.36C743.64,-212.69 623.12,-199.05 517.59,-180 414.7,-161.43 297.49,-130.73 222.99,-110.68"/>
<polygon fill="black" stroke="black" points="223.79,-107.27 213.22,-108.05 221.97,-114.03 223.79,-107.27"/>
</g>
<!-- DTEL&#45;/IWBEP/CP_MPC_NAME -->
<g id="node10" class="node">
<title>DTEL&#45;/IWBEP/CP_MPC_NAME</title>
<g id="a_node10"><a xlink:href="./DTEL_%23IWBEP%23CP_MPC_NAME.html" xlink:title="DTEL&#45;/IWBEP/CP_MPC_NAME">
<polygon fill="none" stroke="yellow" points="519.24,-108 309.95,-108 309.95,-72 519.24,-72 519.24,-108"/>
<text text-anchor="middle" x="414.59" y="-85.8" font-family="Times,serif" font-size="14.00">DTEL&#45;/IWBEP/CP_MPC_NAME</text>
</a>
</g>
</g>
<!-- INTF&#45;/IWBEP/IF_CP_REGISTRY_TYPES&#45;&gt;DTEL&#45;/IWBEP/CP_MPC_NAME -->
<g id="edge1" class="edge">
<title>INTF&#45;/IWBEP/IF_CP_REGISTRY_TYPES&#45;&gt;DTEL&#45;/IWBEP/CP_MPC_NAME</title>
<path fill="none" stroke="black" d="M833.18,-224.3C760.55,-217 669.7,-203.76 591.59,-180 537.83,-163.65 480.07,-133.89 445.5,-113.31"/>
<polygon fill="black" stroke="black" points="447.17,-110.23 436.81,-108.03 443.54,-116.21 447.17,-110.23"/>
</g>
<!-- INTF&#45;/IWBEP/IF_CP_REGISTRY_TYPES&#45;&gt;DTEL&#45;/IWBEP/CP_MPC_NAME -->
<g id="edge15" class="edge">
<title>INTF&#45;/IWBEP/IF_CP_REGISTRY_TYPES&#45;&gt;DTEL&#45;/IWBEP/CP_MPC_NAME</title>
<path fill="none" stroke="black" d="M832.89,-222.57C765.08,-214.96 681.88,-201.99 609.59,-180 555.38,-163.51 497.09,-133.38 458.37,-112.79"/>
<polygon fill="black" stroke="black" points="459.91,-109.64 449.44,-108.03 456.62,-115.82 459.91,-109.64"/>
</g>
<!-- INTF&#45;/IWBEP/IF_CP_RUNTIME_TYPES&#45;&gt;INTF&#45;/IWBEP/IF_CP_REGISTRY_TYPES -->
<g id="edge14" class="edge">
<title>INTF&#45;/IWBEP/IF_CP_RUNTIME_TYPES&#45;&gt;INTF&#45;/IWBEP/IF_CP_REGISTRY_TYPES</title>
<path fill="none" stroke="black" d="M965.59,-180.1C965.59,-187.79 965.59,-197.05 965.59,-205.67"/>
<polygon fill="black" stroke="black" points="962.09,-205.7 965.59,-215.7 969.09,-205.7 962.09,-205.7"/>
</g>
<!-- DTEL&#45;/IWBEP/CP_PROXY_MODEL_VERSION -->
<g id="node12" class="node">
<title>DTEL&#45;/IWBEP/CP_PROXY_MODEL_VERSION</title>
<g id="a_node12"><a xlink:href="./DTEL_%23IWBEP%23CP_PROXY_MODEL_VERSION.html" xlink:title="DTEL&#45;/IWBEP/CP_PROXY_MODEL_VERSION">
<polygon fill="none" stroke="yellow" points="1117.32,-108 813.87,-108 813.87,-72 1117.32,-72 1117.32,-108"/>
<text text-anchor="middle" x="965.59" y="-85.8" font-family="Times,serif" font-size="14.00">DTEL&#45;/IWBEP/CP_PROXY_MODEL_VERSION</text>
</a>
</g>
</g>
<!-- INTF&#45;/IWBEP/IF_CP_RUNTIME_TYPES&#45;&gt;DTEL&#45;/IWBEP/CP_PROXY_MODEL_VERSION -->
<g id="edge12" class="edge">
<title>INTF&#45;/IWBEP/IF_CP_RUNTIME_TYPES&#45;&gt;DTEL&#45;/IWBEP/CP_PROXY_MODEL_VERSION</title>
<path fill="none" stroke="black" d="M965.59,-143.7C965.59,-135.98 965.59,-126.71 965.59,-118.11"/>
<polygon fill="black" stroke="black" points="969.09,-118.1 965.59,-108.1 962.09,-118.1 969.09,-118.1"/>
</g>
<!-- DTEL&#45;/IWBEP/CP_PROXY_MODEL_ID -->
<g id="node14" class="node">
<title>DTEL&#45;/IWBEP/CP_PROXY_MODEL_ID</title>
<g id="a_node14"><a xlink:href="./DTEL_%23IWBEP%23CP_PROXY_MODEL_ID.html" xlink:title="DTEL&#45;/IWBEP/CP_PROXY_MODEL_ID">
<polygon fill="none" stroke="yellow" points="795.44,-108 537.75,-108 537.75,-72 795.44,-72 795.44,-108"/>
<text text-anchor="middle" x="666.59" y="-85.8" font-family="Times,serif" font-size="14.00">DTEL&#45;/IWBEP/CP_PROXY_MODEL_ID</text>
</a>
</g>
</g>
<!-- INTF&#45;/IWBEP/IF_CP_RUNTIME_TYPES&#45;&gt;DTEL&#45;/IWBEP/CP_PROXY_MODEL_ID -->
<g id="edge10" class="edge">
<title>INTF&#45;/IWBEP/IF_CP_RUNTIME_TYPES&#45;&gt;DTEL&#45;/IWBEP/CP_PROXY_MODEL_ID</title>
<path fill="none" stroke="black" d="M892.83,-143.97C849.43,-133.8 794.19,-120.87 749.16,-110.33"/>
<polygon fill="black" stroke="black" points="749.96,-106.92 739.42,-108.05 748.36,-113.74 749.96,-106.92"/>
</g>
<!-- DTEL&#45;NUMC3 -->
<g id="node16" class="node">
<title>DTEL&#45;NUMC3</title>
<g id="a_node16"><a xlink:href="./DTEL_NUMC3.html" xlink:title="DTEL&#45;NUMC3">
<polygon fill="none" stroke="yellow" points="1641.51,-108 1535.67,-108 1535.67,-72 1641.51,-72 1641.51,-108"/>
<text text-anchor="middle" x="1588.59" y="-85.8" font-family="Times,serif" font-size="14.00">DTEL&#45;NUMC3</text>
</a>
</g>
</g>
<!-- INTF&#45;/IWBEP/IF_CP_RUNTIME_TYPES&#45;&gt;DTEL&#45;NUMC3 -->
<g id="edge13" class="edge">
<title>INTF&#45;/IWBEP/IF_CP_RUNTIME_TYPES&#45;&gt;DTEL&#45;NUMC3</title>
<path fill="none" stroke="black" d="M1095.8,-144.93C1098.76,-144.61 1101.69,-144.3 1104.59,-144 1288.53,-124.91 1339.5,-140.46 1525.52,-107.99"/>
<polygon fill="black" stroke="black" points="1526.4,-111.39 1535.64,-106.2 1525.18,-104.5 1526.4,-111.39"/>
</g>
<!-- DTEL&#45;/IWBEP/CP_PROXY_MODEL_REPO_ID -->
<g id="node18" class="node">
<title>DTEL&#45;/IWBEP/CP_PROXY_MODEL_REPO_ID</title>
<g id="a_node18"><a xlink:href="./DTEL_%23IWBEP%23CP_PROXY_MODEL_REPO_ID.html" xlink:title="DTEL&#45;/IWBEP/CP_PROXY_MODEL_REPO_ID">
<polygon fill="none" stroke="yellow" points="1959.71,-108 1659.47,-108 1659.47,-72 1959.71,-72 1959.71,-108"/>
<text text-anchor="middle" x="1809.59" y="-85.8" font-family="Times,serif" font-size="14.00">DTEL&#45;/IWBEP/CP_PROXY_MODEL_REPO_ID</text>
</a>
</g>
</g>
<!-- INTF&#45;/IWBEP/IF_CP_RUNTIME_TYPES&#45;&gt;DTEL&#45;/IWBEP/CP_PROXY_MODEL_REPO_ID -->
<g id="edge11" class="edge">
<title>INTF&#45;/IWBEP/IF_CP_RUNTIME_TYPES&#45;&gt;DTEL&#45;/IWBEP/CP_PROXY_MODEL_REPO_ID</title>
<path fill="none" stroke="black" d="M1095.79,-144.85C1098.75,-144.56 1101.69,-144.27 1104.59,-144 1343.41,-121.54 1406.59,-128.73 1649.19,-108.1"/>
<polygon fill="black" stroke="black" points="1649.72,-111.57 1659.39,-107.22 1649.13,-104.59 1649.72,-111.57"/>
</g>
<!-- DTEL&#45;CHAR30 -->
<g id="node20" class="node">
<title>DTEL&#45;CHAR30</title>
<g id="a_node20"><a xlink:href="./DTEL_CHAR30.html" xlink:title="DTEL&#45;CHAR30">
<polygon fill="none" stroke="yellow" points="2087.41,-108 1977.78,-108 1977.78,-72 2087.41,-72 2087.41,-108"/>
<text text-anchor="middle" x="2032.59" y="-85.8" font-family="Times,serif" font-size="14.00">DTEL&#45;CHAR30</text>
</a>
</g>
</g>
<!-- INTF&#45;/IWBEP/IF_CP_RUNTIME_TYPES&#45;&gt;DTEL&#45;CHAR30 -->
<g id="edge9" class="edge">
<title>INTF&#45;/IWBEP/IF_CP_RUNTIME_TYPES&#45;&gt;DTEL&#45;CHAR30</title>
<path fill="none" stroke="black" d="M1095.78,-144.76C1098.75,-144.49 1101.69,-144.24 1104.59,-144 1484.37,-112.91 1586.87,-164.78 1967.69,-107.92"/>
<polygon fill="black" stroke="black" points="1968.23,-111.38 1977.6,-106.42 1967.19,-104.45 1968.23,-111.38"/>
</g>
<!-- DTEL&#45;CHAR40 -->
<g id="node22" class="node">
<title>DTEL&#45;CHAR40</title>
<g id="a_node22"><a xlink:href="./DTEL_CHAR40.html" xlink:title="DTEL&#45;CHAR40">
<polygon fill="none" stroke="yellow" points="1245.41,-108 1135.78,-108 1135.78,-72 1245.41,-72 1245.41,-108"/>
<text text-anchor="middle" x="1190.59" y="-85.8" font-family="Times,serif" font-size="14.00">DTEL&#45;CHAR40</text>
</a>
</g>
</g>
<!-- INTF&#45;/IWBEP/IF_CP_RUNTIME_TYPES&#45;&gt;DTEL&#45;CHAR40 -->
<g id="edge8" class="edge">
<title>INTF&#45;/IWBEP/IF_CP_RUNTIME_TYPES&#45;&gt;DTEL&#45;CHAR40</title>
<path fill="none" stroke="black" d="M1020.35,-143.97C1052.2,-134.06 1092.51,-121.51 1125.92,-111.12"/>
<polygon fill="black" stroke="black" points="1127.09,-114.42 1135.6,-108.11 1125.01,-107.74 1127.09,-114.42"/>
</g>
<!-- DTEL&#45;/IWBEP/CP_DELTA_QUERY_ID -->
<g id="node24" class="node">
<title>DTEL&#45;/IWBEP/CP_DELTA_QUERY_ID</title>
<g id="a_node24"><a xlink:href="./DTEL_%23IWBEP%23CP_DELTA_QUERY_ID.html" xlink:title="DTEL&#45;/IWBEP/CP_DELTA_QUERY_ID">
<polygon fill="none" stroke="yellow" points="1517.81,-108 1263.37,-108 1263.37,-72 1517.81,-72 1517.81,-108"/>
<text text-anchor="middle" x="1390.59" y="-85.8" font-family="Times,serif" font-size="14.00">DTEL&#45;/IWBEP/CP_DELTA_QUERY_ID</text>
</a>
</g>
</g>
<!-- INTF&#45;/IWBEP/IF_CP_RUNTIME_TYPES&#45;&gt;DTEL&#45;/IWBEP/CP_DELTA_QUERY_ID -->
<g id="edge7" class="edge">
<title>INTF&#45;/IWBEP/IF_CP_RUNTIME_TYPES&#45;&gt;DTEL&#45;/IWBEP/CP_DELTA_QUERY_ID</title>
<path fill="none" stroke="black" d="M1069.02,-143.97C1131.87,-133.61 1212.2,-120.38 1276.84,-109.74"/>
<polygon fill="black" stroke="black" points="1277.78,-113.13 1287.08,-108.05 1276.64,-106.22 1277.78,-113.13"/>
</g>
<!-- DOMA&#45;PGMID -->
<g id="node4" class="node">
<title>DOMA&#45;PGMID</title>
<g id="a_node4"><a xlink:href="./DOMA_PGMID.html" xlink:title="DOMA&#45;PGMID">
<polygon fill="none" stroke="yellow" points="2213.62,-108 2105.57,-108 2105.57,-72 2213.62,-72 2213.62,-108"/>
<text text-anchor="middle" x="2159.59" y="-85.8" font-family="Times,serif" font-size="14.00">DOMA&#45;PGMID</text>
</a>
</g>
</g>
<!-- DTEL&#45;PGMID&#45;&gt;DOMA&#45;PGMID -->
<g id="edge21" class="edge">
<title>DTEL&#45;PGMID&#45;&gt;DOMA&#45;PGMID</title>
<path fill="none" stroke="black" d="M1215.15,-145.78C1218.33,-145.1 1221.49,-144.5 1224.59,-144 1604.33,-83.23 1711.38,-165.46 2095.47,-107.95"/>
<polygon fill="black" stroke="black" points="2096.1,-111.39 2105.46,-106.43 2095.05,-104.47 2096.1,-111.39"/>
</g>
<!-- DOMA&#45;OBJECT -->
<g id="node6" class="node">
<title>DOMA&#45;OBJECT</title>
<g id="a_node6"><a xlink:href="./DOMA_OBJECT.html" xlink:title="DOMA&#45;OBJECT">
<polygon fill="none" stroke="yellow" points="2346.85,-108 2232.34,-108 2232.34,-72 2346.85,-72 2346.85,-108"/>
<text text-anchor="middle" x="2289.59" y="-85.8" font-family="Times,serif" font-size="14.00">DOMA&#45;OBJECT</text>
</a>
</g>
</g>
<!-- DTEL&#45;TROBJTYPE&#45;&gt;DOMA&#45;OBJECT -->
<g id="edge22" class="edge">
<title>DTEL&#45;TROBJTYPE&#45;&gt;DOMA&#45;OBJECT</title>
<path fill="none" stroke="black" d="M1367.87,-161.51C1519.15,-161.73 1897.61,-156.99 2221.93,-107.9"/>
<polygon fill="black" stroke="black" points="2222.64,-111.33 2232,-106.36 2221.58,-104.41 2222.64,-111.33"/>
</g>
<!-- TABL&#45;/IWBEP/I_CP_MOD&#45;&gt;DTEL&#45;/IWBEP/CP_PROXY_MODEL_DESCR -->
<g id="edge26" class="edge">
<title>TABL&#45;/IWBEP/I_CP_MOD&#45;&gt;DTEL&#45;/IWBEP/CP_PROXY_MODEL_DESCR</title>
<path fill="none" stroke="black" d="M608.92,-149.71C523.21,-138.81 391.89,-122.09 291.25,-109.28"/>
<polygon fill="black" stroke="black" points="291.67,-105.81 281.3,-108.02 290.78,-112.75 291.67,-105.81"/>
</g>
<!-- TABL&#45;/IWBEP/I_CP_MOD&#45;&gt;DTEL&#45;/IWBEP/CP_MPC_NAME -->
<g id="edge25" class="edge">
<title>TABL&#45;/IWBEP/I_CP_MOD&#45;&gt;DTEL&#45;/IWBEP/CP_MPC_NAME</title>
<path fill="none" stroke="black" d="M628.73,-143.97C587.9,-133.87 536,-121.03 493.52,-110.52"/>
<polygon fill="black" stroke="black" points="494.32,-107.11 483.77,-108.11 492.64,-113.91 494.32,-107.11"/>
</g>
<!-- TABL&#45;/IWBEP/I_CP_MOD&#45;&gt;DTEL&#45;/IWBEP/CP_PROXY_MODEL_VERSION -->
<g id="edge24" class="edge">
<title>TABL&#45;/IWBEP/I_CP_MOD&#45;&gt;DTEL&#45;/IWBEP/CP_PROXY_MODEL_VERSION</title>
<path fill="none" stroke="black" d="M762.81,-143.97C801.32,-133.91 850.22,-121.14 890.35,-110.65"/>
<polygon fill="black" stroke="black" points="891.29,-114.02 900.08,-108.11 889.52,-107.25 891.29,-114.02"/>
</g>
<!-- TABL&#45;/IWBEP/I_CP_MOD&#45;&gt;DTEL&#45;/IWBEP/CP_PROXY_MODEL_ID -->
<g id="edge23" class="edge">
<title>TABL&#45;/IWBEP/I_CP_MOD&#45;&gt;DTEL&#45;/IWBEP/CP_PROXY_MODEL_ID</title>
<path fill="none" stroke="black" d="M689.93,-143.7C686.4,-135.73 682.14,-126.1 678.23,-117.26"/>
<polygon fill="black" stroke="black" points="681.42,-115.83 674.17,-108.1 675.02,-118.67 681.42,-115.83"/>
</g>
<!-- DOMA&#45;/IWBEP/CP_PROXY_MODEL_DESCR -->
<g id="node9" class="node">
<title>DOMA&#45;/IWBEP/CP_PROXY_MODEL_DESCR</title>
<g id="a_node9"><a xlink:href="./DOMA_%23IWBEP%23CP_PROXY_MODEL_DESCR.html" xlink:title="DOMA&#45;/IWBEP/CP_PROXY_MODEL_DESCR">
<polygon fill="none" stroke="yellow" points="295.28,-36 -0.09,-36 -0.09,0 295.28,0 295.28,-36"/>
<text text-anchor="middle" x="147.59" y="-13.8" font-family="Times,serif" font-size="14.00">DOMA&#45;/IWBEP/CP_PROXY_MODEL_DESCR</text>
</a>
</g>
</g>
<!-- DTEL&#45;/IWBEP/CP_PROXY_MODEL_DESCR&#45;&gt;DOMA&#45;/IWBEP/CP_PROXY_MODEL_DESCR -->
<g id="edge27" class="edge">
<title>DTEL&#45;/IWBEP/CP_PROXY_MODEL_DESCR&#45;&gt;DOMA&#45;/IWBEP/CP_PROXY_MODEL_DESCR</title>
<path fill="none" stroke="black" d="M147.59,-71.7C147.59,-63.98 147.59,-54.71 147.59,-46.11"/>
<polygon fill="black" stroke="black" points="151.09,-46.1 147.59,-36.1 144.09,-46.1 151.09,-46.1"/>
</g>
<!-- DOMA&#45;SEOCLSNAME -->
<g id="node11" class="node">
<title>DOMA&#45;SEOCLSNAME</title>
<g id="a_node11"><a xlink:href="./DOMA_SEOCLSNAME.html" xlink:title="DOMA&#45;SEOCLSNAME">
<polygon fill="none" stroke="yellow" points="492.84,-36 336.35,-36 336.35,0 492.84,0 492.84,-36"/>
<text text-anchor="middle" x="414.59" y="-13.8" font-family="Times,serif" font-size="14.00">DOMA&#45;SEOCLSNAME</text>
</a>
</g>
</g>
<!-- DTEL&#45;/IWBEP/CP_MPC_NAME&#45;&gt;DOMA&#45;SEOCLSNAME -->
<g id="edge28" class="edge">
<title>DTEL&#45;/IWBEP/CP_MPC_NAME&#45;&gt;DOMA&#45;SEOCLSNAME</title>
<path fill="none" stroke="black" d="M414.59,-71.7C414.59,-63.98 414.59,-54.71 414.59,-46.11"/>
<polygon fill="black" stroke="black" points="418.09,-46.1 414.59,-36.1 411.09,-46.1 418.09,-46.1"/>
</g>
<!-- DOMA&#45;/IWBEP/CP_PROXY_MODEL_VERSION -->
<g id="node13" class="node">
<title>DOMA&#45;/IWBEP/CP_PROXY_MODEL_VERSION</title>
<g id="a_node13"><a xlink:href="./DOMA_%23IWBEP%23CP_PROXY_MODEL_VERSION.html" xlink:title="DOMA&#45;/IWBEP/CP_PROXY_MODEL_VERSION">
<polygon fill="none" stroke="yellow" points="1120.82,-36 810.37,-36 810.37,0 1120.82,0 1120.82,-36"/>
<text text-anchor="middle" x="965.59" y="-13.8" font-family="Times,serif" font-size="14.00">DOMA&#45;/IWBEP/CP_PROXY_MODEL_VERSION</text>
</a>
</g>
</g>
<!-- DTEL&#45;/IWBEP/CP_PROXY_MODEL_VERSION&#45;&gt;DOMA&#45;/IWBEP/CP_PROXY_MODEL_VERSION -->
<g id="edge29" class="edge">
<title>DTEL&#45;/IWBEP/CP_PROXY_MODEL_VERSION&#45;&gt;DOMA&#45;/IWBEP/CP_PROXY_MODEL_VERSION</title>
<path fill="none" stroke="black" d="M965.59,-71.7C965.59,-63.98 965.59,-54.71 965.59,-46.11"/>
<polygon fill="black" stroke="black" points="969.09,-46.1 965.59,-36.1 962.09,-46.1 969.09,-46.1"/>
</g>
<!-- DOMA&#45;/IWBEP/CP_PROXY_MODEL_ID -->
<g id="node15" class="node">
<title>DOMA&#45;/IWBEP/CP_PROXY_MODEL_ID</title>
<g id="a_node15"><a xlink:href="./DOMA_%23IWBEP%23CP_PROXY_MODEL_ID.html" xlink:title="DOMA&#45;/IWBEP/CP_PROXY_MODEL_ID">
<polygon fill="none" stroke="yellow" points="791.94,-36 527.25,-36 527.25,0 791.94,0 791.94,-36"/>
<text text-anchor="middle" x="659.59" y="-13.8" font-family="Times,serif" font-size="14.00">DOMA&#45;/IWBEP/CP_PROXY_MODEL_ID</text>
</a>
</g>
</g>
<!-- DTEL&#45;/IWBEP/CP_PROXY_MODEL_ID&#45;&gt;DOMA&#45;/IWBEP/CP_PROXY_MODEL_ID -->
<g id="edge30" class="edge">
<title>DTEL&#45;/IWBEP/CP_PROXY_MODEL_ID&#45;&gt;DOMA&#45;/IWBEP/CP_PROXY_MODEL_ID</title>
<path fill="none" stroke="black" d="M664.86,-71.7C664.09,-63.98 663.17,-54.71 662.31,-46.11"/>
<polygon fill="black" stroke="black" points="665.78,-45.71 661.31,-36.1 658.82,-46.4 665.78,-45.71"/>
</g>
<!-- DOMA&#45;NUMC3 -->
<g id="node17" class="node">
<title>DOMA&#45;NUMC3</title>
<g id="a_node17"><a xlink:href="./DOMA_NUMC3.html" xlink:title="DOMA&#45;NUMC3">
<polygon fill="none" stroke="yellow" points="1638.01,-36 1525.17,-36 1525.17,0 1638.01,0 1638.01,-36"/>
<text text-anchor="middle" x="1581.59" y="-13.8" font-family="Times,serif" font-size="14.00">DOMA&#45;NUMC3</text>
</a>
</g>
</g>
<!-- DTEL&#45;NUMC3&#45;&gt;DOMA&#45;NUMC3 -->
<g id="edge31" class="edge">
<title>DTEL&#45;NUMC3&#45;&gt;DOMA&#45;NUMC3</title>
<path fill="none" stroke="black" d="M1586.86,-71.7C1586.09,-63.98 1585.17,-54.71 1584.31,-46.11"/>
<polygon fill="black" stroke="black" points="1587.78,-45.71 1583.31,-36.1 1580.82,-46.4 1587.78,-45.71"/>
</g>
<!-- DOMA&#45;/IWBEP/CP_PROXY_MODEL_REPO_ID -->
<g id="node19" class="node">
<title>DOMA&#45;/IWBEP/CP_PROXY_MODEL_REPO_ID</title>
<g id="a_node19"><a xlink:href="./DOMA_%23IWBEP%23CP_PROXY_MODEL_REPO_ID.html" xlink:title="DOMA&#45;/IWBEP/CP_PROXY_MODEL_REPO_ID">
<polygon fill="none" stroke="yellow" points="1963.21,-36 1655.97,-36 1655.97,0 1963.21,0 1963.21,-36"/>
<text text-anchor="middle" x="1809.59" y="-13.8" font-family="Times,serif" font-size="14.00">DOMA&#45;/IWBEP/CP_PROXY_MODEL_REPO_ID</text>
</a>
</g>
</g>
<!-- DTEL&#45;/IWBEP/CP_PROXY_MODEL_REPO_ID&#45;&gt;DOMA&#45;/IWBEP/CP_PROXY_MODEL_REPO_ID -->
<g id="edge32" class="edge">
<title>DTEL&#45;/IWBEP/CP_PROXY_MODEL_REPO_ID&#45;&gt;DOMA&#45;/IWBEP/CP_PROXY_MODEL_REPO_ID</title>
<path fill="none" stroke="black" d="M1809.59,-71.7C1809.59,-63.98 1809.59,-54.71 1809.59,-46.11"/>
<polygon fill="black" stroke="black" points="1813.09,-46.1 1809.59,-36.1 1806.09,-46.1 1813.09,-46.1"/>
</g>
<!-- DOMA&#45;CHAR30 -->
<g id="node21" class="node">
<title>DOMA&#45;CHAR30</title>
<g id="a_node21"><a xlink:href="./DOMA_CHAR30.html" xlink:title="DOMA&#45;CHAR30">
<polygon fill="none" stroke="green" points="2097.91,-36 1981.28,-36 1981.28,0 2097.91,0 2097.91,-36"/>
<text text-anchor="middle" x="2039.59" y="-13.8" font-family="Times,serif" font-size="14.00">DOMA&#45;CHAR30</text>
</a>
</g>
</g>
<!-- DTEL&#45;CHAR30&#45;&gt;DOMA&#45;CHAR30 -->
<g id="edge33" class="edge">
<title>DTEL&#45;CHAR30&#45;&gt;DOMA&#45;CHAR30</title>
<path fill="none" stroke="black" d="M2034.33,-71.7C2035.1,-63.98 2036.02,-54.71 2036.88,-46.11"/>
<polygon fill="black" stroke="black" points="2040.37,-46.4 2037.88,-36.1 2033.41,-45.71 2040.37,-46.4"/>
</g>
<!-- DOMA&#45;CHAR40 -->
<g id="node23" class="node">
<title>DOMA&#45;CHAR40</title>
<g id="a_node23"><a xlink:href="./DOMA_CHAR40.html" xlink:title="DOMA&#45;CHAR40">
<polygon fill="none" stroke="yellow" points="1255.91,-36 1139.28,-36 1139.28,0 1255.91,0 1255.91,-36"/>
<text text-anchor="middle" x="1197.59" y="-13.8" font-family="Times,serif" font-size="14.00">DOMA&#45;CHAR40</text>
</a>
</g>
</g>
<!-- DTEL&#45;CHAR40&#45;&gt;DOMA&#45;CHAR40 -->
<g id="edge34" class="edge">
<title>DTEL&#45;CHAR40&#45;&gt;DOMA&#45;CHAR40</title>
<path fill="none" stroke="black" d="M1192.33,-71.7C1193.1,-63.98 1194.02,-54.71 1194.88,-46.11"/>
<polygon fill="black" stroke="black" points="1198.37,-46.4 1195.88,-36.1 1191.41,-45.71 1198.37,-46.4"/>
</g>
<!-- DOMA&#45;/IWBEP/L_CP_DLTA -->
<g id="node25" class="node">
<title>DOMA&#45;/IWBEP/L_CP_DLTA</title>
<g id="a_node25"><a xlink:href="./DOMA_%23IWBEP%23L_CP_DLTA.html" xlink:title="DOMA&#45;/IWBEP/L_CP_DLTA">
<polygon fill="none" stroke="yellow" points="1486.34,-36 1294.85,-36 1294.85,0 1486.34,0 1486.34,-36"/>
<text text-anchor="middle" x="1390.59" y="-13.8" font-family="Times,serif" font-size="14.00">DOMA&#45;/IWBEP/L_CP_DLTA</text>
</a>
</g>
</g>
<!-- DTEL&#45;/IWBEP/CP_DELTA_QUERY_ID&#45;&gt;DOMA&#45;/IWBEP/L_CP_DLTA -->
<g id="edge35" class="edge">
<title>DTEL&#45;/IWBEP/CP_DELTA_QUERY_ID&#45;&gt;DOMA&#45;/IWBEP/L_CP_DLTA</title>
<path fill="none" stroke="black" d="M1390.59,-71.7C1390.59,-63.98 1390.59,-54.71 1390.59,-46.11"/>
<polygon fill="black" stroke="black" points="1394.09,-46.1 1390.59,-36.1 1387.09,-46.1 1394.09,-46.1"/>
</g>
</g>
</svg>
