<?xml version="1.0" encoding="UTF-8" standalone="no"?>
<!DOCTYPE svg PUBLIC "-//W3C//DTD SVG 1.1//EN"
 "http://www.w3.org/Graphics/SVG/1.1/DTD/svg11.dtd">
<!-- Generated by graphviz version 2.47.3 (20210619.1520)
 -->
<!-- Title: G Pages: 1 -->
<svg width="308pt" height="188pt"
 viewBox="0.00 0.00 307.85 188.00" xmlns="http://www.w3.org/2000/svg" xmlns:xlink="http://www.w3.org/1999/xlink">
<g id="graph0" class="graph" transform="scale(1 1) rotate(0) translate(4 184)">
<title>G</title>
<polygon fill="white" stroke="transparent" points="-4,4 -4,-184 303.85,-184 303.85,4 -4,4"/>
<!-- INTF&#45;IF_XCO_GEN_SRVD_S_FO_EXPOSURE -->
<g id="node1" class="node">
<title>INTF&#45;IF_XCO_GEN_SRVD_S_FO_EXPOSURE</title>
<polygon fill="none" stroke="green" points="299.78,-180 0.07,-180 0.07,-144 299.78,-144 299.78,-180"/>
<text text-anchor="middle" x="149.93" y="-157.8" font-family="Times,serif" font-size="14.00">INTF&#45;IF_XCO_GEN_SRVD_S_FO_EXPOSURE</text>
</g>
<!-- DTEL&#45;SXCO_CDS_OBJECT_NAME -->
<g id="node2" class="node">
<title>DTEL&#45;SXCO_CDS_OBJECT_NAME</title>
<g id="a_node2"><a xlink:href="./DTEL_SXCO_CDS_OBJECT_NAME.html" xlink:title="DTEL&#45;SXCO_CDS_OBJECT_NAME">
<polygon fill="none" stroke="green" points="266.95,-108 32.9,-108 32.9,-72 266.95,-72 266.95,-108"/>
<text text-anchor="middle" x="149.93" y="-85.8" font-family="Times,serif" font-size="14.00">DTEL&#45;SXCO_CDS_OBJECT_NAME</text>
</a>
</g>
</g>
<!-- INTF&#45;IF_XCO_GEN_SRVD_S_FO_EXPOSURE&#45;&gt;DTEL&#45;SXCO_CDS_OBJECT_NAME -->
<g id="edge1" class="edge">
<title>INTF&#45;IF_XCO_GEN_SRVD_S_FO_EXPOSURE&#45;&gt;DTEL&#45;SXCO_CDS_OBJECT_NAME</title>
<path fill="none" stroke="black" d="M149.93,-143.7C149.93,-135.98 149.93,-126.71 149.93,-118.11"/>
<polygon fill="black" stroke="black" points="153.43,-118.1 149.93,-108.1 146.43,-118.1 153.43,-118.1"/>
</g>
<!-- DOMA&#45;CHAR30 -->
<g id="node3" class="node">
<title>DOMA&#45;CHAR30</title>
<g id="a_node3"><a xlink:href="./DOMA_CHAR30.html" xlink:title="DOMA&#45;CHAR30">
<polygon fill="none" stroke="green" points="208.24,-36 91.61,-36 91.61,0 208.24,0 208.24,-36"/>
<text text-anchor="middle" x="149.93" y="-13.8" font-family="Times,serif" font-size="14.00">DOMA&#45;CHAR30</text>
</a>
</g>
</g>
<!-- DTEL&#45;SXCO_CDS_OBJECT_NAME&#45;&gt;DOMA&#45;CHAR30 -->
<g id="edge2" class="edge">
<title>DTEL&#45;SXCO_CDS_OBJECT_NAME&#45;&gt;DOMA&#45;CHAR30</title>
<path fill="none" stroke="black" d="M149.93,-71.7C149.93,-63.98 149.93,-54.71 149.93,-46.11"/>
<polygon fill="black" stroke="black" points="153.43,-46.1 149.93,-36.1 146.43,-46.1 153.43,-46.1"/>
</g>
</g>
</svg>
