<?xml version="1.0" encoding="UTF-8" standalone="no"?>
<!DOCTYPE svg PUBLIC "-//W3C//DTD SVG 1.1//EN"
 "http://www.w3.org/Graphics/SVG/1.1/DTD/svg11.dtd">
<!-- Generated by graphviz version 2.47.3 (20210619.1520)
 -->
<!-- Title: G Pages: 1 -->
<svg width="853pt" height="188pt"
 viewBox="0.00 0.00 852.51 188.00" xmlns="http://www.w3.org/2000/svg" xmlns:xlink="http://www.w3.org/1999/xlink">
<g id="graph0" class="graph" transform="scale(1 1) rotate(0) translate(4 184)">
<title>G</title>
<polygon fill="white" stroke="transparent" points="-4,4 -4,-184 848.51,-184 848.51,4 -4,4"/>
<!-- INTF&#45;IF_XCO_GEN_CLAS_S_FO_D_C_M_BI -->
<g id="node1" class="node">
<title>INTF&#45;IF_XCO_GEN_CLAS_S_FO_D_C_M_BI</title>
<polygon fill="none" stroke="green" points="596.61,-180 303.89,-180 303.89,-144 596.61,-144 596.61,-180"/>
<text text-anchor="middle" x="450.25" y="-157.8" font-family="Times,serif" font-size="14.00">INTF&#45;IF_XCO_GEN_CLAS_S_FO_D_C_M_BI</text>
</g>
<!-- DTEL&#45;SXCO_AO_SUBCOMPONENT_NAME -->
<g id="node2" class="node">
<title>DTEL&#45;SXCO_AO_SUBCOMPONENT_NAME</title>
<g id="a_node2"><a xlink:href="./DTEL_SXCO_AO_SUBCOMPONENT_NAME.html" xlink:title="DTEL&#45;SXCO_AO_SUBCOMPONENT_NAME">
<polygon fill="none" stroke="green" points="290.25,-108 0.25,-108 0.25,-72 290.25,-72 290.25,-108"/>
<text text-anchor="middle" x="145.25" y="-85.8" font-family="Times,serif" font-size="14.00">DTEL&#45;SXCO_AO_SUBCOMPONENT_NAME</text>
</a>
</g>
</g>
<!-- INTF&#45;IF_XCO_GEN_CLAS_S_FO_D_C_M_BI&#45;&gt;DTEL&#45;SXCO_AO_SUBCOMPONENT_NAME -->
<g id="edge3" class="edge">
<title>INTF&#45;IF_XCO_GEN_CLAS_S_FO_D_C_M_BI&#45;&gt;DTEL&#45;SXCO_AO_SUBCOMPONENT_NAME</title>
<path fill="none" stroke="black" d="M376.03,-143.97C331.76,-133.8 275.41,-120.87 229.47,-110.33"/>
<polygon fill="black" stroke="black" points="230.07,-106.88 219.54,-108.05 228.5,-113.7 230.07,-106.88"/>
</g>
<!-- DTEL&#45;SXCO_BDEF_EVALUATION_NAME -->
<g id="node3" class="node">
<title>DTEL&#45;SXCO_BDEF_EVALUATION_NAME</title>
<g id="a_node3"><a xlink:href="./DTEL_SXCO_BDEF_EVALUATION_NAME.html" xlink:title="DTEL&#45;SXCO_BDEF_EVALUATION_NAME">
<polygon fill="none" stroke="green" points="591.46,-108 309.05,-108 309.05,-72 591.46,-72 591.46,-108"/>
<text text-anchor="middle" x="450.25" y="-85.8" font-family="Times,serif" font-size="14.00">DTEL&#45;SXCO_BDEF_EVALUATION_NAME</text>
</a>
</g>
</g>
<!-- INTF&#45;IF_XCO_GEN_CLAS_S_FO_D_C_M_BI&#45;&gt;DTEL&#45;SXCO_BDEF_EVALUATION_NAME -->
<g id="edge2" class="edge">
<title>INTF&#45;IF_XCO_GEN_CLAS_S_FO_D_C_M_BI&#45;&gt;DTEL&#45;SXCO_BDEF_EVALUATION_NAME</title>
<path fill="none" stroke="black" d="M450.25,-143.7C450.25,-135.98 450.25,-126.71 450.25,-118.11"/>
<polygon fill="black" stroke="black" points="453.75,-118.1 450.25,-108.1 446.75,-118.1 453.75,-118.1"/>
</g>
<!-- DTEL&#45;SXCO_CDS_OBJECT_NAME -->
<g id="node5" class="node">
<title>DTEL&#45;SXCO_CDS_OBJECT_NAME</title>
<g id="a_node5"><a xlink:href="./DTEL_SXCO_CDS_OBJECT_NAME.html" xlink:title="DTEL&#45;SXCO_CDS_OBJECT_NAME">
<polygon fill="none" stroke="green" points="844.27,-108 610.23,-108 610.23,-72 844.27,-72 844.27,-108"/>
<text text-anchor="middle" x="727.25" y="-85.8" font-family="Times,serif" font-size="14.00">DTEL&#45;SXCO_CDS_OBJECT_NAME</text>
</a>
</g>
</g>
<!-- INTF&#45;IF_XCO_GEN_CLAS_S_FO_D_C_M_BI&#45;&gt;DTEL&#45;SXCO_CDS_OBJECT_NAME -->
<g id="edge1" class="edge">
<title>INTF&#45;IF_XCO_GEN_CLAS_S_FO_D_C_M_BI&#45;&gt;DTEL&#45;SXCO_CDS_OBJECT_NAME</title>
<path fill="none" stroke="black" d="M517.66,-143.97C557.54,-133.89 608.21,-121.08 649.74,-110.59"/>
<polygon fill="black" stroke="black" points="650.7,-113.95 659.54,-108.11 648.99,-107.17 650.7,-113.95"/>
</g>
<!-- DOMA&#45;CHAR30 -->
<g id="node4" class="node">
<title>DOMA&#45;CHAR30</title>
<g id="a_node4"><a xlink:href="./DOMA_CHAR30.html" xlink:title="DOMA&#45;CHAR30">
<polygon fill="none" stroke="green" points="646.56,-36 529.94,-36 529.94,0 646.56,0 646.56,-36"/>
<text text-anchor="middle" x="588.25" y="-13.8" font-family="Times,serif" font-size="14.00">DOMA&#45;CHAR30</text>
</a>
</g>
</g>
<!-- DTEL&#45;SXCO_BDEF_EVALUATION_NAME&#45;&gt;DOMA&#45;CHAR30 -->
<g id="edge4" class="edge">
<title>DTEL&#45;SXCO_BDEF_EVALUATION_NAME&#45;&gt;DOMA&#45;CHAR30</title>
<path fill="none" stroke="black" d="M484.01,-71.88C502.47,-62.51 525.53,-50.81 545.27,-40.8"/>
<polygon fill="black" stroke="black" points="547.03,-43.83 554.36,-36.19 543.86,-37.59 547.03,-43.83"/>
</g>
<!-- DTEL&#45;SXCO_CDS_OBJECT_NAME&#45;&gt;DOMA&#45;CHAR30 -->
<g id="edge5" class="edge">
<title>DTEL&#45;SXCO_CDS_OBJECT_NAME&#45;&gt;DOMA&#45;CHAR30</title>
<path fill="none" stroke="black" d="M693.25,-71.88C674.65,-62.51 651.42,-50.81 631.55,-40.8"/>
<polygon fill="black" stroke="black" points="632.89,-37.56 622.39,-36.19 629.74,-43.81 632.89,-37.56"/>
</g>
</g>
</svg>
