<?xml version="1.0" encoding="UTF-8" standalone="no"?>
<!DOCTYPE svg PUBLIC "-//W3C//DTD SVG 1.1//EN"
 "http://www.w3.org/Graphics/SVG/1.1/DTD/svg11.dtd">
<!-- Generated by graphviz version 2.47.3 (20210619.1520)
 -->
<!-- Title: G Pages: 1 -->
<svg width="2725pt" height="188pt"
 viewBox="0.00 0.00 2724.70 188.00" xmlns="http://www.w3.org/2000/svg" xmlns:xlink="http://www.w3.org/1999/xlink">
<g id="graph0" class="graph" transform="scale(1 1) rotate(0) translate(4 184)">
<title>G</title>
<polygon fill="white" stroke="transparent" points="-4,4 -4,-184 2720.7,-184 2720.7,4 -4,4"/>
<!-- INTF&#45;IF_APJ_TYPES -->
<g id="node1" class="node">
<title>INTF&#45;IF_APJ_TYPES</title>
<polygon fill="none" stroke="green" points="1410.2,-180 1265.56,-180 1265.56,-144 1410.2,-144 1410.2,-180"/>
<text text-anchor="middle" x="1337.88" y="-157.8" font-family="Times,serif" font-size="14.00">INTF&#45;IF_APJ_TYPES</text>
</g>
<!-- DTEL&#45;RVARI_VAL_255 -->
<g id="node2" class="node">
<title>DTEL&#45;RVARI_VAL_255</title>
<g id="a_node2"><a xlink:href="./DTEL_RVARI_VAL_255.html" xlink:title="DTEL&#45;RVARI_VAL_255">
<polygon fill="none" stroke="yellow" points="171.62,-108 8.14,-108 8.14,-72 171.62,-72 171.62,-108"/>
<text text-anchor="middle" x="89.88" y="-85.8" font-family="Times,serif" font-size="14.00">DTEL&#45;RVARI_VAL_255</text>
</a>
</g>
</g>
<!-- INTF&#45;IF_APJ_TYPES&#45;&gt;DTEL&#45;RVARI_VAL_255 -->
<g id="edge16" class="edge">
<title>INTF&#45;IF_APJ_TYPES&#45;&gt;DTEL&#45;RVARI_VAL_255</title>
<path fill="none" stroke="black" d="M1265.58,-161.11C1084.65,-160.67 597.73,-154.91 182.17,-107.91"/>
<polygon fill="black" stroke="black" points="182.39,-104.42 172.06,-106.76 181.6,-111.37 182.39,-104.42"/>
</g>
<!-- DTEL&#45;TVARV_OPTI -->
<g id="node4" class="node">
<title>DTEL&#45;TVARV_OPTI</title>
<g id="a_node4"><a xlink:href="./DTEL_TVARV_OPTI.html" xlink:title="DTEL&#45;TVARV_OPTI">
<polygon fill="none" stroke="yellow" points="333.12,-108 190.64,-108 190.64,-72 333.12,-72 333.12,-108"/>
<text text-anchor="middle" x="261.88" y="-85.8" font-family="Times,serif" font-size="14.00">DTEL&#45;TVARV_OPTI</text>
</a>
</g>
</g>
<!-- INTF&#45;IF_APJ_TYPES&#45;&gt;DTEL&#45;TVARV_OPTI -->
<g id="edge15" class="edge">
<title>INTF&#45;IF_APJ_TYPES&#45;&gt;DTEL&#45;TVARV_OPTI</title>
<path fill="none" stroke="black" d="M1265.43,-160.94C1102.35,-160 694.02,-153.03 343.43,-107.93"/>
<polygon fill="black" stroke="black" points="343.7,-104.43 333.33,-106.62 342.8,-111.38 343.7,-104.43"/>
</g>
<!-- DTEL&#45;TVARV_SIGN -->
<g id="node6" class="node">
<title>DTEL&#45;TVARV_SIGN</title>
<g id="a_node6"><a xlink:href="./DTEL_TVARV_SIGN.html" xlink:title="DTEL&#45;TVARV_SIGN">
<polygon fill="none" stroke="yellow" points="496.17,-108 351.59,-108 351.59,-72 496.17,-72 496.17,-108"/>
<text text-anchor="middle" x="423.88" y="-85.8" font-family="Times,serif" font-size="14.00">DTEL&#45;TVARV_SIGN</text>
</a>
</g>
</g>
<!-- INTF&#45;IF_APJ_TYPES&#45;&gt;DTEL&#45;TVARV_SIGN -->
<g id="edge14" class="edge">
<title>INTF&#45;IF_APJ_TYPES&#45;&gt;DTEL&#45;TVARV_SIGN</title>
<path fill="none" stroke="black" d="M1265.67,-159.88C1122.47,-156.91 792.37,-146.29 506.37,-108.09"/>
<polygon fill="black" stroke="black" points="506.59,-104.59 496.22,-106.72 505.66,-111.52 506.59,-104.59"/>
</g>
<!-- DTEL&#45;RSSCR_KIND -->
<g id="node8" class="node">
<title>DTEL&#45;RSSCR_KIND</title>
<g id="a_node8"><a xlink:href="./DTEL_RSSCR_KIND.html" xlink:title="DTEL&#45;RSSCR_KIND">
<polygon fill="none" stroke="yellow" points="655.86,-108 513.9,-108 513.9,-72 655.86,-72 655.86,-108"/>
<text text-anchor="middle" x="584.88" y="-85.8" font-family="Times,serif" font-size="14.00">DTEL&#45;RSSCR_KIND</text>
</a>
</g>
</g>
<!-- INTF&#45;IF_APJ_TYPES&#45;&gt;DTEL&#45;RSSCR_KIND -->
<g id="edge13" class="edge">
<title>INTF&#45;IF_APJ_TYPES&#45;&gt;DTEL&#45;RSSCR_KIND</title>
<path fill="none" stroke="black" d="M1265.33,-158.4C1143.41,-153.34 889.65,-139.89 665.86,-108.03"/>
<polygon fill="black" stroke="black" points="666.29,-104.55 655.89,-106.59 665.29,-111.48 666.29,-104.55"/>
</g>
<!-- DTEL&#45;SYST_MSGV -->
<g id="node9" class="node">
<title>DTEL&#45;SYST_MSGV</title>
<g id="a_node9"><a xlink:href="./DTEL_SYST_MSGV.html" xlink:title="DTEL&#45;SYST_MSGV">
<polygon fill="none" stroke="yellow" points="811.97,-108 673.79,-108 673.79,-72 811.97,-72 811.97,-108"/>
<text text-anchor="middle" x="742.88" y="-85.8" font-family="Times,serif" font-size="14.00">DTEL&#45;SYST_MSGV</text>
</a>
</g>
</g>
<!-- INTF&#45;IF_APJ_TYPES&#45;&gt;DTEL&#45;SYST_MSGV -->
<g id="edge12" class="edge">
<title>INTF&#45;IF_APJ_TYPES&#45;&gt;DTEL&#45;SYST_MSGV</title>
<path fill="none" stroke="black" d="M1265.62,-156.17C1167.42,-149.03 986.21,-133.83 822.39,-108.14"/>
<polygon fill="black" stroke="black" points="822.55,-104.62 812.13,-106.52 821.46,-111.54 822.55,-104.62"/>
</g>
<!-- DTEL&#45;SYMSGNO -->
<g id="node11" class="node">
<title>DTEL&#45;SYMSGNO</title>
<g id="a_node11"><a xlink:href="./DTEL_SYMSGNO.html" xlink:title="DTEL&#45;SYMSGNO">
<polygon fill="none" stroke="green" points="954.24,-108 829.52,-108 829.52,-72 954.24,-72 954.24,-108"/>
<text text-anchor="middle" x="891.88" y="-85.8" font-family="Times,serif" font-size="14.00">DTEL&#45;SYMSGNO</text>
</a>
</g>
</g>
<!-- INTF&#45;IF_APJ_TYPES&#45;&gt;DTEL&#45;SYMSGNO -->
<g id="edge11" class="edge">
<title>INTF&#45;IF_APJ_TYPES&#45;&gt;DTEL&#45;SYMSGNO</title>
<path fill="none" stroke="black" d="M1265.66,-152.85C1192.12,-144.09 1074.66,-128.81 964.49,-108.22"/>
<polygon fill="black" stroke="black" points="965.01,-104.76 954.53,-106.34 963.71,-111.63 965.01,-104.76"/>
</g>
<!-- DTEL&#45;SYMSGID -->
<g id="node13" class="node">
<title>DTEL&#45;SYMSGID</title>
<g id="a_node13"><a xlink:href="./DTEL_SYMSGID.html" xlink:title="DTEL&#45;SYMSGID">
<polygon fill="none" stroke="green" points="1091.8,-108 971.97,-108 971.97,-72 1091.8,-72 1091.8,-108"/>
<text text-anchor="middle" x="1031.88" y="-85.8" font-family="Times,serif" font-size="14.00">DTEL&#45;SYMSGID</text>
</a>
</g>
</g>
<!-- INTF&#45;IF_APJ_TYPES&#45;&gt;DTEL&#45;SYMSGID -->
<g id="edge10" class="edge">
<title>INTF&#45;IF_APJ_TYPES&#45;&gt;DTEL&#45;SYMSGID</title>
<path fill="none" stroke="black" d="M1265.71,-145.28C1221.09,-135.47 1162.41,-122.38 1101.49,-108.12"/>
<polygon fill="black" stroke="black" points="1102.24,-104.7 1091.7,-105.82 1100.64,-111.51 1102.24,-104.7"/>
</g>
<!-- DTEL&#45;APJ_JOB_TEMPLATE_VALUE -->
<g id="node15" class="node">
<title>DTEL&#45;APJ_JOB_TEMPLATE_VALUE</title>
<g id="a_node15"><a xlink:href="./DTEL_APJ_JOB_TEMPLATE_VALUE.html" xlink:title="DTEL&#45;APJ_JOB_TEMPLATE_VALUE">
<polygon fill="none" stroke="yellow" points="1356.05,-108 1109.71,-108 1109.71,-72 1356.05,-72 1356.05,-108"/>
<text text-anchor="middle" x="1232.88" y="-85.8" font-family="Times,serif" font-size="14.00">DTEL&#45;APJ_JOB_TEMPLATE_VALUE</text>
</a>
</g>
</g>
<!-- INTF&#45;IF_APJ_TYPES&#45;&gt;DTEL&#45;APJ_JOB_TEMPLATE_VALUE -->
<g id="edge9" class="edge">
<title>INTF&#45;IF_APJ_TYPES&#45;&gt;DTEL&#45;APJ_JOB_TEMPLATE_VALUE</title>
<path fill="none" stroke="black" d="M1312.2,-143.88C1298.59,-134.81 1281.71,-123.55 1267.02,-113.76"/>
<polygon fill="black" stroke="black" points="1268.93,-110.82 1258.67,-108.19 1265.05,-116.65 1268.93,-110.82"/>
</g>
<!-- DTEL&#45;APJ_OPTION -->
<g id="node17" class="node">
<title>DTEL&#45;APJ_OPTION</title>
<g id="a_node17"><a xlink:href="./DTEL_APJ_OPTION.html" xlink:title="DTEL&#45;APJ_OPTION">
<polygon fill="none" stroke="yellow" points="1511.96,-108 1373.81,-108 1373.81,-72 1511.96,-72 1511.96,-108"/>
<text text-anchor="middle" x="1442.88" y="-85.8" font-family="Times,serif" font-size="14.00">DTEL&#45;APJ_OPTION</text>
</a>
</g>
</g>
<!-- INTF&#45;IF_APJ_TYPES&#45;&gt;DTEL&#45;APJ_OPTION -->
<g id="edge8" class="edge">
<title>INTF&#45;IF_APJ_TYPES&#45;&gt;DTEL&#45;APJ_OPTION</title>
<path fill="none" stroke="black" d="M1363.57,-143.88C1377.17,-134.81 1394.05,-123.55 1408.74,-113.76"/>
<polygon fill="black" stroke="black" points="1410.72,-116.65 1417.1,-108.19 1406.83,-110.82 1410.72,-116.65"/>
</g>
<!-- DTEL&#45;APJ_SIGN -->
<g id="node19" class="node">
<title>DTEL&#45;APJ_SIGN</title>
<g id="a_node19"><a xlink:href="./DTEL_APJ_SIGN.html" xlink:title="DTEL&#45;APJ_SIGN">
<polygon fill="none" stroke="yellow" points="1649.8,-108 1529.97,-108 1529.97,-72 1649.8,-72 1649.8,-108"/>
<text text-anchor="middle" x="1589.88" y="-85.8" font-family="Times,serif" font-size="14.00">DTEL&#45;APJ_SIGN</text>
</a>
</g>
</g>
<!-- INTF&#45;IF_APJ_TYPES&#45;&gt;DTEL&#45;APJ_SIGN -->
<g id="edge7" class="edge">
<title>INTF&#45;IF_APJ_TYPES&#45;&gt;DTEL&#45;APJ_SIGN</title>
<path fill="none" stroke="black" d="M1399.21,-143.97C1435.72,-133.82 1482.17,-120.92 1520.08,-110.39"/>
<polygon fill="black" stroke="black" points="1521.33,-113.68 1530.03,-107.63 1519.45,-106.93 1521.33,-113.68"/>
</g>
<!-- DTEL&#45;APJ_JOB_PARAMETER_NAME -->
<g id="node21" class="node">
<title>DTEL&#45;APJ_JOB_PARAMETER_NAME</title>
<g id="a_node21"><a xlink:href="./DTEL_APJ_JOB_PARAMETER_NAME.html" xlink:title="DTEL&#45;APJ_JOB_PARAMETER_NAME">
<polygon fill="none" stroke="yellow" points="1919.51,-108 1668.25,-108 1668.25,-72 1919.51,-72 1919.51,-108"/>
<text text-anchor="middle" x="1793.88" y="-85.8" font-family="Times,serif" font-size="14.00">DTEL&#45;APJ_JOB_PARAMETER_NAME</text>
</a>
</g>
</g>
<!-- INTF&#45;IF_APJ_TYPES&#45;&gt;DTEL&#45;APJ_JOB_PARAMETER_NAME -->
<g id="edge6" class="edge">
<title>INTF&#45;IF_APJ_TYPES&#45;&gt;DTEL&#45;APJ_JOB_PARAMETER_NAME</title>
<path fill="none" stroke="black" d="M1410.14,-149.91C1480.6,-139.09 1589.09,-122.44 1672.76,-109.59"/>
<polygon fill="black" stroke="black" points="1673.48,-113.02 1682.83,-108.05 1672.42,-106.1 1673.48,-113.02"/>
</g>
<!-- DTEL&#45;SEVERITY -->
<g id="node22" class="node">
<title>DTEL&#45;SEVERITY</title>
<g id="a_node22"><a xlink:href="./DTEL_SEVERITY.html" xlink:title="DTEL&#45;SEVERITY">
<polygon fill="none" stroke="yellow" points="2061.96,-108 1937.81,-108 1937.81,-72 2061.96,-72 2061.96,-108"/>
<text text-anchor="middle" x="1999.88" y="-85.8" font-family="Times,serif" font-size="14.00">DTEL&#45;SEVERITY</text>
</a>
</g>
</g>
<!-- INTF&#45;IF_APJ_TYPES&#45;&gt;DTEL&#45;SEVERITY -->
<g id="edge5" class="edge">
<title>INTF&#45;IF_APJ_TYPES&#45;&gt;DTEL&#45;SEVERITY</title>
<path fill="none" stroke="black" d="M1410.18,-157.91C1520.08,-152.47 1735.81,-138.84 1927.66,-108.06"/>
<polygon fill="black" stroke="black" points="1928.34,-111.5 1937.65,-106.44 1927.22,-104.59 1928.34,-111.5"/>
</g>
<!-- DTEL&#45;RALDB_OPTI -->
<g id="node24" class="node">
<title>DTEL&#45;RALDB_OPTI</title>
<g id="a_node24"><a xlink:href="./DTEL_RALDB_OPTI.html" xlink:title="DTEL&#45;RALDB_OPTI">
<polygon fill="none" stroke="yellow" points="2221.85,-108 2079.92,-108 2079.92,-72 2221.85,-72 2221.85,-108"/>
<text text-anchor="middle" x="2150.88" y="-85.8" font-family="Times,serif" font-size="14.00">DTEL&#45;RALDB_OPTI</text>
</a>
</g>
</g>
<!-- INTF&#45;IF_APJ_TYPES&#45;&gt;DTEL&#45;RALDB_OPTI -->
<g id="edge4" class="edge">
<title>INTF&#45;IF_APJ_TYPES&#45;&gt;DTEL&#45;RALDB_OPTI</title>
<path fill="none" stroke="black" d="M1410.28,-159.06C1540.41,-154.84 1822.54,-142.43 2069.62,-108.06"/>
<polygon fill="black" stroke="black" points="2070.46,-111.48 2079.87,-106.62 2069.48,-104.54 2070.46,-111.48"/>
</g>
<!-- DTEL&#45;RALDB_INCL -->
<g id="node26" class="node">
<title>DTEL&#45;RALDB_INCL</title>
<g id="a_node26"><a xlink:href="./DTEL_RALDB_INCL.html" xlink:title="DTEL&#45;RALDB_INCL">
<polygon fill="none" stroke="yellow" points="2383.4,-108 2240.36,-108 2240.36,-72 2383.4,-72 2383.4,-108"/>
<text text-anchor="middle" x="2311.88" y="-85.8" font-family="Times,serif" font-size="14.00">DTEL&#45;RALDB_INCL</text>
</a>
</g>
</g>
<!-- INTF&#45;IF_APJ_TYPES&#45;&gt;DTEL&#45;RALDB_INCL -->
<g id="edge3" class="edge">
<title>INTF&#45;IF_APJ_TYPES&#45;&gt;DTEL&#45;RALDB_INCL</title>
<path fill="none" stroke="black" d="M1410.28,-160.32C1561.11,-158.11 1920,-148.77 2229.91,-108"/>
<polygon fill="black" stroke="black" points="2230.54,-111.45 2239.99,-106.66 2229.61,-104.51 2230.54,-111.45"/>
</g>
<!-- DTEL&#45;RALDB_EXCL -->
<g id="node28" class="node">
<title>DTEL&#45;RALDB_EXCL</title>
<g id="a_node28"><a xlink:href="./DTEL_RALDB_EXCL.html" xlink:title="DTEL&#45;RALDB_EXCL">
<polygon fill="none" stroke="yellow" points="2548.79,-108 2400.97,-108 2400.97,-72 2548.79,-72 2548.79,-108"/>
<text text-anchor="middle" x="2474.88" y="-85.8" font-family="Times,serif" font-size="14.00">DTEL&#45;RALDB_EXCL</text>
</a>
</g>
</g>
<!-- INTF&#45;IF_APJ_TYPES&#45;&gt;DTEL&#45;RALDB_EXCL -->
<g id="edge2" class="edge">
<title>INTF&#45;IF_APJ_TYPES&#45;&gt;DTEL&#45;RALDB_EXCL</title>
<path fill="none" stroke="black" d="M1410.17,-161.2C1580,-160.84 2017.66,-155.11 2390.59,-108.19"/>
<polygon fill="black" stroke="black" points="2391.29,-111.63 2400.77,-106.9 2390.41,-104.69 2391.29,-111.63"/>
</g>
<!-- DTEL&#45;RALDB_REPO -->
<g id="node29" class="node">
<title>DTEL&#45;RALDB_REPO</title>
<g id="a_node29"><a xlink:href="./DTEL_RALDB_REPO.html" xlink:title="DTEL&#45;RALDB_REPO">
<polygon fill="none" stroke="yellow" points="2713.02,-108 2566.74,-108 2566.74,-72 2713.02,-72 2713.02,-108"/>
<text text-anchor="middle" x="2639.88" y="-85.8" font-family="Times,serif" font-size="14.00">DTEL&#45;RALDB_REPO</text>
</a>
</g>
</g>
<!-- INTF&#45;IF_APJ_TYPES&#45;&gt;DTEL&#45;RALDB_REPO -->
<g id="edge1" class="edge">
<title>INTF&#45;IF_APJ_TYPES&#45;&gt;DTEL&#45;RALDB_REPO</title>
<path fill="none" stroke="black" d="M1410.22,-159.39C1634.01,-154.16 2314.07,-136.44 2556.49,-108.02"/>
<polygon fill="black" stroke="black" points="2557.15,-111.46 2566.66,-106.79 2556.31,-104.52 2557.15,-111.46"/>
</g>
<!-- DOMA&#45;RSDSSELOPT_255 -->
<g id="node3" class="node">
<title>DOMA&#45;RSDSSELOPT_255</title>
<g id="a_node3"><a xlink:href="./DOMA_RSDSSELOPT_255.html" xlink:title="DOMA&#45;RSDSSELOPT_255">
<polygon fill="none" stroke="yellow" points="177.64,-36 0.12,-36 0.12,0 177.64,0 177.64,-36"/>
<text text-anchor="middle" x="88.88" y="-13.8" font-family="Times,serif" font-size="14.00">DOMA&#45;RSDSSELOPT_255</text>
</a>
</g>
</g>
<!-- DTEL&#45;RVARI_VAL_255&#45;&gt;DOMA&#45;RSDSSELOPT_255 -->
<g id="edge17" class="edge">
<title>DTEL&#45;RVARI_VAL_255&#45;&gt;DOMA&#45;RSDSSELOPT_255</title>
<path fill="none" stroke="black" d="M89.63,-71.7C89.52,-63.98 89.39,-54.71 89.27,-46.11"/>
<polygon fill="black" stroke="black" points="92.77,-46.05 89.13,-36.1 85.77,-46.15 92.77,-46.05"/>
</g>
<!-- DOMA&#45;SYCHAR02 -->
<g id="node5" class="node">
<title>DOMA&#45;SYCHAR02</title>
<g id="a_node5"><a xlink:href="./DOMA_SYCHAR02.html" xlink:title="DOMA&#45;SYCHAR02">
<polygon fill="none" stroke="yellow" points="330.08,-36 195.68,-36 195.68,0 330.08,0 330.08,-36"/>
<text text-anchor="middle" x="262.88" y="-13.8" font-family="Times,serif" font-size="14.00">DOMA&#45;SYCHAR02</text>
</a>
</g>
</g>
<!-- DTEL&#45;TVARV_OPTI&#45;&gt;DOMA&#45;SYCHAR02 -->
<g id="edge18" class="edge">
<title>DTEL&#45;TVARV_OPTI&#45;&gt;DOMA&#45;SYCHAR02</title>
<path fill="none" stroke="black" d="M262.13,-71.7C262.24,-63.98 262.37,-54.71 262.49,-46.11"/>
<polygon fill="black" stroke="black" points="265.99,-46.15 262.64,-36.1 258.99,-46.05 265.99,-46.15"/>
</g>
<!-- DOMA&#45;SYCHAR01 -->
<g id="node7" class="node">
<title>DOMA&#45;SYCHAR01</title>
<g id="a_node7"><a xlink:href="./DOMA_SYCHAR01.html" xlink:title="DOMA&#45;SYCHAR01">
<polygon fill="none" stroke="yellow" points="571.08,-36 436.68,-36 436.68,0 571.08,0 571.08,-36"/>
<text text-anchor="middle" x="503.88" y="-13.8" font-family="Times,serif" font-size="14.00">DOMA&#45;SYCHAR01</text>
</a>
</g>
</g>
<!-- DTEL&#45;TVARV_SIGN&#45;&gt;DOMA&#45;SYCHAR01 -->
<g id="edge19" class="edge">
<title>DTEL&#45;TVARV_SIGN&#45;&gt;DOMA&#45;SYCHAR01</title>
<path fill="none" stroke="black" d="M443.66,-71.7C453.64,-62.97 465.89,-52.24 476.74,-42.75"/>
<polygon fill="black" stroke="black" points="479.11,-45.32 484.33,-36.1 474.5,-40.06 479.11,-45.32"/>
</g>
<!-- DTEL&#45;RSSCR_KIND&#45;&gt;DOMA&#45;SYCHAR01 -->
<g id="edge20" class="edge">
<title>DTEL&#45;RSSCR_KIND&#45;&gt;DOMA&#45;SYCHAR01</title>
<path fill="none" stroke="black" d="M564.86,-71.7C554.76,-62.97 542.35,-52.24 531.36,-42.75"/>
<polygon fill="black" stroke="black" points="533.53,-39.99 523.67,-36.1 528.95,-45.29 533.53,-39.99"/>
</g>
<!-- DOMA&#45;SYCHAR50 -->
<g id="node10" class="node">
<title>DOMA&#45;SYCHAR50</title>
<g id="a_node10"><a xlink:href="./DOMA_SYCHAR50.html" xlink:title="DOMA&#45;SYCHAR50">
<polygon fill="none" stroke="yellow" points="808.08,-36 673.68,-36 673.68,0 808.08,0 808.08,-36"/>
<text text-anchor="middle" x="740.88" y="-13.8" font-family="Times,serif" font-size="14.00">DOMA&#45;SYCHAR50</text>
</a>
</g>
</g>
<!-- DTEL&#45;SYST_MSGV&#45;&gt;DOMA&#45;SYCHAR50 -->
<g id="edge21" class="edge">
<title>DTEL&#45;SYST_MSGV&#45;&gt;DOMA&#45;SYCHAR50</title>
<path fill="none" stroke="black" d="M742.39,-71.7C742.17,-63.98 741.9,-54.71 741.66,-46.11"/>
<polygon fill="black" stroke="black" points="745.15,-46 741.37,-36.1 738.16,-46.2 745.15,-46"/>
</g>
<!-- DOMA&#45;SYMSGNO -->
<g id="node12" class="node">
<title>DOMA&#45;SYMSGNO</title>
<g id="a_node12"><a xlink:href="./DOMA_SYMSGNO.html" xlink:title="DOMA&#45;SYMSGNO">
<polygon fill="none" stroke="yellow" points="957.74,-36 826.02,-36 826.02,0 957.74,0 957.74,-36"/>
<text text-anchor="middle" x="891.88" y="-13.8" font-family="Times,serif" font-size="14.00">DOMA&#45;SYMSGNO</text>
</a>
</g>
</g>
<!-- DTEL&#45;SYMSGNO&#45;&gt;DOMA&#45;SYMSGNO -->
<g id="edge22" class="edge">
<title>DTEL&#45;SYMSGNO&#45;&gt;DOMA&#45;SYMSGNO</title>
<path fill="none" stroke="black" d="M891.88,-71.7C891.88,-63.98 891.88,-54.71 891.88,-46.11"/>
<polygon fill="black" stroke="black" points="895.38,-46.1 891.88,-36.1 888.38,-46.1 895.38,-46.1"/>
</g>
<!-- DOMA&#45;ARBGB -->
<g id="node14" class="node">
<title>DOMA&#45;ARBGB</title>
<g id="a_node14"><a xlink:href="./DOMA_ARBGB.html" xlink:title="DOMA&#45;ARBGB">
<polygon fill="none" stroke="yellow" points="1087.53,-36 976.23,-36 976.23,0 1087.53,0 1087.53,-36"/>
<text text-anchor="middle" x="1031.88" y="-13.8" font-family="Times,serif" font-size="14.00">DOMA&#45;ARBGB</text>
</a>
</g>
</g>
<!-- DTEL&#45;SYMSGID&#45;&gt;DOMA&#45;ARBGB -->
<g id="edge23" class="edge">
<title>DTEL&#45;SYMSGID&#45;&gt;DOMA&#45;ARBGB</title>
<path fill="none" stroke="black" d="M1031.88,-71.7C1031.88,-63.98 1031.88,-54.71 1031.88,-46.11"/>
<polygon fill="black" stroke="black" points="1035.38,-46.1 1031.88,-36.1 1028.38,-46.1 1035.38,-46.1"/>
</g>
<!-- DOMA&#45;APJ_JOB_TEMPLATE_VALUE -->
<g id="node16" class="node">
<title>DOMA&#45;APJ_JOB_TEMPLATE_VALUE</title>
<g id="a_node16"><a xlink:href="./DOMA_APJ_JOB_TEMPLATE_VALUE.html" xlink:title="DOMA&#45;APJ_JOB_TEMPLATE_VALUE">
<polygon fill="none" stroke="yellow" points="1358.55,-36 1105.21,-36 1105.21,0 1358.55,0 1358.55,-36"/>
<text text-anchor="middle" x="1231.88" y="-13.8" font-family="Times,serif" font-size="14.00">DOMA&#45;APJ_JOB_TEMPLATE_VALUE</text>
</a>
</g>
</g>
<!-- DTEL&#45;APJ_JOB_TEMPLATE_VALUE&#45;&gt;DOMA&#45;APJ_JOB_TEMPLATE_VALUE -->
<g id="edge24" class="edge">
<title>DTEL&#45;APJ_JOB_TEMPLATE_VALUE&#45;&gt;DOMA&#45;APJ_JOB_TEMPLATE_VALUE</title>
<path fill="none" stroke="black" d="M1232.63,-71.7C1232.52,-63.98 1232.39,-54.71 1232.27,-46.11"/>
<polygon fill="black" stroke="black" points="1235.77,-46.05 1232.13,-36.1 1228.77,-46.15 1235.77,-46.05"/>
</g>
<!-- DOMA&#45;APJ_OPTION -->
<g id="node18" class="node">
<title>DOMA&#45;APJ_OPTION</title>
<g id="a_node18"><a xlink:href="./DOMA_APJ_OPTION.html" xlink:title="DOMA&#45;APJ_OPTION">
<polygon fill="none" stroke="yellow" points="1521.46,-36 1376.31,-36 1376.31,0 1521.46,0 1521.46,-36"/>
<text text-anchor="middle" x="1448.88" y="-13.8" font-family="Times,serif" font-size="14.00">DOMA&#45;APJ_OPTION</text>
</a>
</g>
</g>
<!-- DTEL&#45;APJ_OPTION&#45;&gt;DOMA&#45;APJ_OPTION -->
<g id="edge25" class="edge">
<title>DTEL&#45;APJ_OPTION&#45;&gt;DOMA&#45;APJ_OPTION</title>
<path fill="none" stroke="black" d="M1444.36,-71.7C1445.03,-63.98 1445.82,-54.71 1446.56,-46.11"/>
<polygon fill="black" stroke="black" points="1450.05,-46.37 1447.42,-36.1 1443.07,-45.77 1450.05,-46.37"/>
</g>
<!-- DOMA&#45;APJ_SIGN -->
<g id="node20" class="node">
<title>DOMA&#45;APJ_SIGN</title>
<g id="a_node20"><a xlink:href="./DOMA_APJ_SIGN.html" xlink:title="DOMA&#45;APJ_SIGN">
<polygon fill="none" stroke="yellow" points="1666.3,-36 1539.47,-36 1539.47,0 1666.3,0 1666.3,-36"/>
<text text-anchor="middle" x="1602.88" y="-13.8" font-family="Times,serif" font-size="14.00">DOMA&#45;APJ_SIGN</text>
</a>
</g>
</g>
<!-- DTEL&#45;APJ_SIGN&#45;&gt;DOMA&#45;APJ_SIGN -->
<g id="edge26" class="edge">
<title>DTEL&#45;APJ_SIGN&#45;&gt;DOMA&#45;APJ_SIGN</title>
<path fill="none" stroke="black" d="M1593.09,-71.7C1594.53,-63.98 1596.25,-54.71 1597.85,-46.11"/>
<polygon fill="black" stroke="black" points="1601.32,-46.58 1599.7,-36.1 1594.44,-45.3 1601.32,-46.58"/>
</g>
<!-- DOMA&#45;SEVERITY -->
<g id="node23" class="node">
<title>DOMA&#45;SEVERITY</title>
<g id="a_node23"><a xlink:href="./DOMA_SEVERITY.html" xlink:title="DOMA&#45;SEVERITY">
<polygon fill="none" stroke="yellow" points="2061.46,-36 1930.31,-36 1930.31,0 2061.46,0 2061.46,-36"/>
<text text-anchor="middle" x="1995.88" y="-13.8" font-family="Times,serif" font-size="14.00">DOMA&#45;SEVERITY</text>
</a>
</g>
</g>
<!-- DTEL&#45;SEVERITY&#45;&gt;DOMA&#45;SEVERITY -->
<g id="edge27" class="edge">
<title>DTEL&#45;SEVERITY&#45;&gt;DOMA&#45;SEVERITY</title>
<path fill="none" stroke="black" d="M1998.89,-71.7C1998.45,-63.98 1997.92,-54.71 1997.43,-46.11"/>
<polygon fill="black" stroke="black" points="2000.92,-45.89 1996.86,-36.1 1993.94,-46.29 2000.92,-45.89"/>
</g>
<!-- DOMA&#45;RALDB_OPTI -->
<g id="node25" class="node">
<title>DOMA&#45;RALDB_OPTI</title>
<g id="a_node25"><a xlink:href="./DOMA_RALDB_OPTI.html" xlink:title="DOMA&#45;RALDB_OPTI">
<polygon fill="none" stroke="yellow" points="2228.35,-36 2079.42,-36 2079.42,0 2228.35,0 2228.35,-36"/>
<text text-anchor="middle" x="2153.88" y="-13.8" font-family="Times,serif" font-size="14.00">DOMA&#45;RALDB_OPTI</text>
</a>
</g>
</g>
<!-- DTEL&#45;RALDB_OPTI&#45;&gt;DOMA&#45;RALDB_OPTI -->
<g id="edge28" class="edge">
<title>DTEL&#45;RALDB_OPTI&#45;&gt;DOMA&#45;RALDB_OPTI</title>
<path fill="none" stroke="black" d="M2151.62,-71.7C2151.95,-63.98 2152.35,-54.71 2152.72,-46.11"/>
<polygon fill="black" stroke="black" points="2156.22,-46.25 2153.15,-36.1 2149.22,-45.95 2156.22,-46.25"/>
</g>
<!-- DOMA&#45;RALDB_BUTT -->
<g id="node27" class="node">
<title>DOMA&#45;RALDB_BUTT</title>
<g id="a_node27"><a xlink:href="./DOMA_RALDB_BUTT.html" xlink:title="DOMA&#45;RALDB_BUTT">
<polygon fill="none" stroke="yellow" points="2472.29,-36 2317.47,-36 2317.47,0 2472.29,0 2472.29,-36"/>
<text text-anchor="middle" x="2394.88" y="-13.8" font-family="Times,serif" font-size="14.00">DOMA&#45;RALDB_BUTT</text>
</a>
</g>
</g>
<!-- DTEL&#45;RALDB_INCL&#45;&gt;DOMA&#45;RALDB_BUTT -->
<g id="edge29" class="edge">
<title>DTEL&#45;RALDB_INCL&#45;&gt;DOMA&#45;RALDB_BUTT</title>
<path fill="none" stroke="black" d="M2332.4,-71.7C2342.75,-62.97 2355.47,-52.24 2366.72,-42.75"/>
<polygon fill="black" stroke="black" points="2369.21,-45.23 2374.6,-36.1 2364.7,-39.88 2369.21,-45.23"/>
</g>
<!-- DTEL&#45;RALDB_EXCL&#45;&gt;DOMA&#45;RALDB_BUTT -->
<g id="edge30" class="edge">
<title>DTEL&#45;RALDB_EXCL&#45;&gt;DOMA&#45;RALDB_BUTT</title>
<path fill="none" stroke="black" d="M2455.11,-71.7C2445.13,-62.97 2432.87,-52.24 2422.02,-42.75"/>
<polygon fill="black" stroke="black" points="2424.26,-40.06 2414.43,-36.1 2419.65,-45.32 2424.26,-40.06"/>
</g>
<!-- DOMA&#45;RALDB_REPO -->
<g id="node30" class="node">
<title>DOMA&#45;RALDB_REPO</title>
<g id="a_node30"><a xlink:href="./DOMA_RALDB_REPO.html" xlink:title="DOMA&#45;RALDB_REPO">
<polygon fill="none" stroke="yellow" points="2716.52,-36 2563.24,-36 2563.24,0 2716.52,0 2716.52,-36"/>
<text text-anchor="middle" x="2639.88" y="-13.8" font-family="Times,serif" font-size="14.00">DOMA&#45;RALDB_REPO</text>
</a>
</g>
</g>
<!-- DTEL&#45;RALDB_REPO&#45;&gt;DOMA&#45;RALDB_REPO -->
<g id="edge31" class="edge">
<title>DTEL&#45;RALDB_REPO&#45;&gt;DOMA&#45;RALDB_REPO</title>
<path fill="none" stroke="black" d="M2639.88,-71.7C2639.88,-63.98 2639.88,-54.71 2639.88,-46.11"/>
<polygon fill="black" stroke="black" points="2643.38,-46.1 2639.88,-36.1 2636.38,-46.1 2643.38,-46.1"/>
</g>
</g>
</svg>
