<?xml version="1.0" encoding="UTF-8" standalone="no"?>
<!DOCTYPE svg PUBLIC "-//W3C//DTD SVG 1.1//EN"
 "http://www.w3.org/Graphics/SVG/1.1/DTD/svg11.dtd">
<!-- Generated by graphviz version 2.47.3 (20210619.1520)
 -->
<!-- Title: G Pages: 1 -->
<svg width="1277pt" height="404pt"
 viewBox="0.00 0.00 1277.35 404.00" xmlns="http://www.w3.org/2000/svg" xmlns:xlink="http://www.w3.org/1999/xlink">
<g id="graph0" class="graph" transform="scale(1 1) rotate(0) translate(4 400)">
<title>G</title>
<polygon fill="white" stroke="transparent" points="-4,4 -4,-400 1273.35,-400 1273.35,4 -4,4"/>
<!-- INTF&#45;IF_A4C_CP_SERVICE -->
<g id="node1" class="node">
<title>INTF&#45;IF_A4C_CP_SERVICE</title>
<g id="a_node1"><a xlink:href="./INTF_IF_A4C_CP_SERVICE.html" xlink:title="INTF&#45;IF_A4C_CP_SERVICE">
<polygon fill="none" stroke="green" points="750.74,-396 563.55,-396 563.55,-360 750.74,-360 750.74,-396"/>
<text text-anchor="middle" x="657.15" y="-373.8" font-family="Times,serif" font-size="14.00">INTF&#45;IF_A4C_CP_SERVICE</text>
</a>
</g>
</g>
<!-- INTF&#45;IF_WEB_HTTP_CLIENT -->
<g id="node2" class="node">
<title>INTF&#45;IF_WEB_HTTP_CLIENT</title>
<g id="a_node2"><a xlink:href="./INTF_IF_WEB_HTTP_CLIENT.html" xlink:title="INTF&#45;IF_WEB_HTTP_CLIENT">
<polygon fill="none" stroke="green" points="503.71,-324 302.58,-324 302.58,-288 503.71,-288 503.71,-324"/>
<text text-anchor="middle" x="403.15" y="-301.8" font-family="Times,serif" font-size="14.00">INTF&#45;IF_WEB_HTTP_CLIENT</text>
</a>
</g>
</g>
<!-- INTF&#45;IF_A4C_CP_SERVICE&#45;&gt;INTF&#45;IF_WEB_HTTP_CLIENT -->
<g id="edge3" class="edge">
<title>INTF&#45;IF_A4C_CP_SERVICE&#45;&gt;INTF&#45;IF_WEB_HTTP_CLIENT</title>
<path fill="none" stroke="black" d="M583.56,-359.97C545.36,-350.01 499.42,-337.41 463.34,-326.99"/>
<polygon fill="black" stroke="black" points="464.02,-323.54 453.44,-324.11 462.07,-330.26 464.02,-323.54"/>
</g>
<!-- INTF&#45;IF_A4C_CP_SERVICE&#45;&gt;INTF&#45;IF_WEB_HTTP_CLIENT -->
<g id="edge9" class="edge">
<title>INTF&#45;IF_A4C_CP_SERVICE&#45;&gt;INTF&#45;IF_WEB_HTTP_CLIENT</title>
<path fill="none" stroke="black" d="M607.11,-359.97C572.74,-349.91 526.56,-337.14 486.74,-326.65"/>
<polygon fill="black" stroke="black" points="487.59,-323.26 477.03,-324.11 485.81,-330.03 487.59,-323.26"/>
</g>
<!-- TABL&#45;TSA4C_CP_SVC_CONN_DETAILS -->
<g id="node3" class="node">
<title>TABL&#45;TSA4C_CP_SVC_CONN_DETAILS</title>
<g id="a_node3"><a xlink:href="./TABL_TSA4C_CP_SVC_CONN_DETAILS.html" xlink:title="TABL&#45;TSA4C_CP_SVC_CONN_DETAILS">
<polygon fill="none" stroke="green" points="792.45,-324 521.84,-324 521.84,-288 792.45,-288 792.45,-324"/>
<text text-anchor="middle" x="657.15" y="-301.8" font-family="Times,serif" font-size="14.00">TABL&#45;TSA4C_CP_SVC_CONN_DETAILS</text>
</a>
</g>
</g>
<!-- INTF&#45;IF_A4C_CP_SERVICE&#45;&gt;TABL&#45;TSA4C_CP_SVC_CONN_DETAILS -->
<g id="edge2" class="edge">
<title>INTF&#45;IF_A4C_CP_SERVICE&#45;&gt;TABL&#45;TSA4C_CP_SVC_CONN_DETAILS</title>
<path fill="none" stroke="black" d="M651.23,-359.7C650.44,-351.98 650.21,-342.71 650.55,-334.11"/>
<polygon fill="black" stroke="black" points="654.05,-334.32 651.25,-324.1 647.06,-333.84 654.05,-334.32"/>
</g>
<!-- INTF&#45;IF_A4C_CP_SERVICE&#45;&gt;TABL&#45;TSA4C_CP_SVC_CONN_DETAILS -->
<g id="edge8" class="edge">
<title>INTF&#45;IF_A4C_CP_SERVICE&#45;&gt;TABL&#45;TSA4C_CP_SVC_CONN_DETAILS</title>
<path fill="none" stroke="black" d="M663.06,-359.7C663.86,-351.98 664.09,-342.71 663.74,-334.11"/>
<polygon fill="black" stroke="black" points="667.23,-333.84 663.04,-324.1 660.25,-334.32 667.23,-333.84"/>
</g>
<!-- DTEL&#45;UUID -->
<g id="node11" class="node">
<title>DTEL&#45;UUID</title>
<g id="a_node11"><a xlink:href="./DTEL_UUID.html" xlink:title="DTEL&#45;UUID">
<polygon fill="none" stroke="yellow" points="902.05,-324 810.24,-324 810.24,-288 902.05,-288 902.05,-324"/>
<text text-anchor="middle" x="856.15" y="-301.8" font-family="Times,serif" font-size="14.00">DTEL&#45;UUID</text>
</a>
</g>
</g>
<!-- INTF&#45;IF_A4C_CP_SERVICE&#45;&gt;DTEL&#45;UUID -->
<g id="edge1" class="edge">
<title>INTF&#45;IF_A4C_CP_SERVICE&#45;&gt;DTEL&#45;UUID</title>
<path fill="none" stroke="black" d="M699.93,-359.88C729.36,-349.13 768.64,-335.31 800.49,-324.49"/>
<polygon fill="black" stroke="black" points="801.76,-327.75 810.12,-321.24 799.52,-321.12 801.76,-327.75"/>
</g>
<!-- INTF&#45;IF_A4C_CP_SERVICE&#45;&gt;DTEL&#45;UUID -->
<g id="edge7" class="edge">
<title>INTF&#45;IF_A4C_CP_SERVICE&#45;&gt;DTEL&#45;UUID</title>
<path fill="none" stroke="black" d="M711.46,-359.97C740.17,-350.23 775.2,-337.94 803.64,-327.66"/>
<polygon fill="black" stroke="black" points="805.2,-330.82 813.4,-324.11 802.81,-324.24 805.2,-330.82"/>
</g>
<!-- INTF&#45;IF_WEB_HTTP_CLIENT&#45;&gt;INTF&#45;IF_A4C_CP_SERVICE -->
<g id="edge6" class="edge">
<title>INTF&#45;IF_WEB_HTTP_CLIENT&#45;&gt;INTF&#45;IF_A4C_CP_SERVICE</title>
<path fill="none" stroke="black" d="M465.24,-324.11C501.55,-334.12 547.54,-346.79 585.4,-357.23"/>
<polygon fill="black" stroke="black" points="584.77,-360.68 595.34,-359.97 586.63,-353.93 584.77,-360.68"/>
</g>
<!-- INTF&#45;IF_WEB_HTTP_REQUEST -->
<g id="node13" class="node">
<title>INTF&#45;IF_WEB_HTTP_REQUEST</title>
<g id="a_node13"><a xlink:href="./INTF_IF_WEB_HTTP_REQUEST.html" xlink:title="INTF&#45;IF_WEB_HTTP_REQUEST">
<polygon fill="none" stroke="green" points="214.44,-180 -0.15,-180 -0.15,-144 214.44,-144 214.44,-180"/>
<text text-anchor="middle" x="107.15" y="-157.8" font-family="Times,serif" font-size="14.00">INTF&#45;IF_WEB_HTTP_REQUEST</text>
</a>
</g>
</g>
<!-- INTF&#45;IF_WEB_HTTP_CLIENT&#45;&gt;INTF&#45;IF_WEB_HTTP_REQUEST -->
<g id="edge5" class="edge">
<title>INTF&#45;IF_WEB_HTTP_CLIENT&#45;&gt;INTF&#45;IF_WEB_HTTP_REQUEST</title>
<path fill="none" stroke="black" d="M302.45,-303.67C211.55,-300.08 87.42,-288.41 56.15,-252 39.17,-232.23 58.26,-205.99 77.73,-187.13"/>
<polygon fill="black" stroke="black" points="80.16,-189.65 85.14,-180.29 75.42,-184.5 80.16,-189.65"/>
</g>
<!-- INTF&#45;IF_WEB_HTTP_RESPONSE -->
<g id="node16" class="node">
<title>INTF&#45;IF_WEB_HTTP_RESPONSE</title>
<g id="a_node16"><a xlink:href="./INTF_IF_WEB_HTTP_RESPONSE.html" xlink:title="INTF&#45;IF_WEB_HTTP_RESPONSE">
<polygon fill="none" stroke="green" points="286.95,-252 65.34,-252 65.34,-216 286.95,-216 286.95,-252"/>
<text text-anchor="middle" x="176.15" y="-229.8" font-family="Times,serif" font-size="14.00">INTF&#45;IF_WEB_HTTP_RESPONSE</text>
</a>
</g>
</g>
<!-- INTF&#45;IF_WEB_HTTP_CLIENT&#45;&gt;INTF&#45;IF_WEB_HTTP_RESPONSE -->
<g id="edge4" class="edge">
<title>INTF&#45;IF_WEB_HTTP_CLIENT&#45;&gt;INTF&#45;IF_WEB_HTTP_RESPONSE</title>
<path fill="none" stroke="black" d="M347.91,-287.97C315.78,-278.06 275.1,-265.51 241.4,-255.12"/>
<polygon fill="black" stroke="black" points="242.22,-251.71 231.64,-252.11 240.16,-258.4 242.22,-251.71"/>
</g>
<!-- DTEL&#45;OA2C_CONFIGURATION -->
<g id="node4" class="node">
<title>DTEL&#45;OA2C_CONFIGURATION</title>
<g id="a_node4"><a xlink:href="./DTEL_OA2C_CONFIGURATION.html" xlink:title="DTEL&#45;OA2C_CONFIGURATION">
<polygon fill="none" stroke="yellow" points="519.7,-252 304.6,-252 304.6,-216 519.7,-216 519.7,-252"/>
<text text-anchor="middle" x="412.15" y="-229.8" font-family="Times,serif" font-size="14.00">DTEL&#45;OA2C_CONFIGURATION</text>
</a>
</g>
</g>
<!-- TABL&#45;TSA4C_CP_SVC_CONN_DETAILS&#45;&gt;DTEL&#45;OA2C_CONFIGURATION -->
<g id="edge13" class="edge">
<title>TABL&#45;TSA4C_CP_SVC_CONN_DETAILS&#45;&gt;DTEL&#45;OA2C_CONFIGURATION</title>
<path fill="none" stroke="black" d="M597.53,-287.97C562.7,-278.01 518.57,-265.41 482.1,-254.99"/>
<polygon fill="black" stroke="black" points="482.61,-251.49 472.04,-252.11 480.69,-258.22 482.61,-251.49"/>
</g>
<!-- DTEL&#45;A4C_CP_SVC_AUTHN_TYPE -->
<g id="node6" class="node">
<title>DTEL&#45;A4C_CP_SVC_AUTHN_TYPE</title>
<g id="a_node6"><a xlink:href="./DTEL_A4C_CP_SVC_AUTHN_TYPE.html" xlink:title="DTEL&#45;A4C_CP_SVC_AUTHN_TYPE">
<polygon fill="none" stroke="yellow" points="776.83,-252 537.46,-252 537.46,-216 776.83,-216 776.83,-252"/>
<text text-anchor="middle" x="657.15" y="-229.8" font-family="Times,serif" font-size="14.00">DTEL&#45;A4C_CP_SVC_AUTHN_TYPE</text>
</a>
</g>
</g>
<!-- TABL&#45;TSA4C_CP_SVC_CONN_DETAILS&#45;&gt;DTEL&#45;A4C_CP_SVC_AUTHN_TYPE -->
<g id="edge12" class="edge">
<title>TABL&#45;TSA4C_CP_SVC_CONN_DETAILS&#45;&gt;DTEL&#45;A4C_CP_SVC_AUTHN_TYPE</title>
<path fill="none" stroke="black" d="M657.15,-287.7C657.15,-279.98 657.15,-270.71 657.15,-262.11"/>
<polygon fill="black" stroke="black" points="660.65,-262.1 657.15,-252.1 653.65,-262.1 660.65,-262.1"/>
</g>
<!-- DTEL&#45;A4C_CP_SVC_LPORT -->
<g id="node7" class="node">
<title>DTEL&#45;A4C_CP_SVC_LPORT</title>
<g id="a_node7"><a xlink:href="./DTEL_A4C_CP_SVC_LPORT.html" xlink:title="DTEL&#45;A4C_CP_SVC_LPORT">
<polygon fill="none" stroke="yellow" points="987.19,-252 795.1,-252 795.1,-216 987.19,-216 987.19,-252"/>
<text text-anchor="middle" x="891.15" y="-229.8" font-family="Times,serif" font-size="14.00">DTEL&#45;A4C_CP_SVC_LPORT</text>
</a>
</g>
</g>
<!-- TABL&#45;TSA4C_CP_SVC_CONN_DETAILS&#45;&gt;DTEL&#45;A4C_CP_SVC_LPORT -->
<g id="edge11" class="edge">
<title>TABL&#45;TSA4C_CP_SVC_CONN_DETAILS&#45;&gt;DTEL&#45;A4C_CP_SVC_LPORT</title>
<path fill="none" stroke="black" d="M714.09,-287.97C747.35,-278.01 789.5,-265.41 824.33,-254.99"/>
<polygon fill="black" stroke="black" points="825.37,-258.33 833.95,-252.11 823.36,-251.62 825.37,-258.33"/>
</g>
<!-- DTEL&#45;SYSUUID_X16 -->
<g id="node9" class="node">
<title>DTEL&#45;SYSUUID_X16</title>
<g id="a_node9"><a xlink:href="./DTEL_SYSUUID_X16.html" xlink:title="DTEL&#45;SYSUUID_X16">
<polygon fill="none" stroke="green" points="1153.33,-252 1004.96,-252 1004.96,-216 1153.33,-216 1153.33,-252"/>
<text text-anchor="middle" x="1079.15" y="-229.8" font-family="Times,serif" font-size="14.00">DTEL&#45;SYSUUID_X16</text>
</a>
</g>
</g>
<!-- TABL&#45;TSA4C_CP_SVC_CONN_DETAILS&#45;&gt;DTEL&#45;SYSUUID_X16 -->
<g id="edge10" class="edge">
<title>TABL&#45;TSA4C_CP_SVC_CONN_DETAILS&#45;&gt;DTEL&#45;SYSUUID_X16</title>
<path fill="none" stroke="black" d="M775.04,-287.96C837.65,-278.57 916.13,-266.28 994.87,-252.19"/>
<polygon fill="black" stroke="black" points="995.75,-255.59 1004.97,-250.37 994.51,-248.7 995.75,-255.59"/>
</g>
<!-- DOMA&#45;OA2C_CONFIGURATION -->
<g id="node5" class="node">
<title>DOMA&#45;OA2C_CONFIGURATION</title>
<g id="a_node5"><a xlink:href="./DOMA_OA2C_CONFIGURATION.html" xlink:title="DOMA&#45;OA2C_CONFIGURATION">
<polygon fill="none" stroke="yellow" points="523.2,-180 301.1,-180 301.1,-144 523.2,-144 523.2,-180"/>
<text text-anchor="middle" x="412.15" y="-157.8" font-family="Times,serif" font-size="14.00">DOMA&#45;OA2C_CONFIGURATION</text>
</a>
</g>
</g>
<!-- DTEL&#45;OA2C_CONFIGURATION&#45;&gt;DOMA&#45;OA2C_CONFIGURATION -->
<g id="edge14" class="edge">
<title>DTEL&#45;OA2C_CONFIGURATION&#45;&gt;DOMA&#45;OA2C_CONFIGURATION</title>
<path fill="none" stroke="black" d="M412.15,-215.7C412.15,-207.98 412.15,-198.71 412.15,-190.11"/>
<polygon fill="black" stroke="black" points="415.65,-190.1 412.15,-180.1 408.65,-190.1 415.65,-190.1"/>
</g>
<!-- DOMA&#45;RFCDEST -->
<g id="node8" class="node">
<title>DOMA&#45;RFCDEST</title>
<g id="a_node8"><a xlink:href="./DOMA_RFCDEST.html" xlink:title="DOMA&#45;RFCDEST">
<polygon fill="none" stroke="yellow" points="953.52,-180 828.77,-180 828.77,-144 953.52,-144 953.52,-180"/>
<text text-anchor="middle" x="891.15" y="-157.8" font-family="Times,serif" font-size="14.00">DOMA&#45;RFCDEST</text>
</a>
</g>
</g>
<!-- DTEL&#45;A4C_CP_SVC_LPORT&#45;&gt;DOMA&#45;RFCDEST -->
<g id="edge15" class="edge">
<title>DTEL&#45;A4C_CP_SVC_LPORT&#45;&gt;DOMA&#45;RFCDEST</title>
<path fill="none" stroke="black" d="M891.15,-215.7C891.15,-207.98 891.15,-198.71 891.15,-190.11"/>
<polygon fill="black" stroke="black" points="894.65,-190.1 891.15,-180.1 887.65,-190.1 894.65,-190.1"/>
</g>
<!-- DOMA&#45;SYSUUID_X16 -->
<g id="node10" class="node">
<title>DOMA&#45;SYSUUID_X16</title>
<g id="a_node10"><a xlink:href="./DOMA_SYSUUID_X16.html" xlink:title="DOMA&#45;SYSUUID_X16">
<polygon fill="none" stroke="yellow" points="1156.83,-180 1001.46,-180 1001.46,-144 1156.83,-144 1156.83,-180"/>
<text text-anchor="middle" x="1079.15" y="-157.8" font-family="Times,serif" font-size="14.00">DOMA&#45;SYSUUID_X16</text>
</a>
</g>
</g>
<!-- DTEL&#45;SYSUUID_X16&#45;&gt;DOMA&#45;SYSUUID_X16 -->
<g id="edge16" class="edge">
<title>DTEL&#45;SYSUUID_X16&#45;&gt;DOMA&#45;SYSUUID_X16</title>
<path fill="none" stroke="black" d="M1079.15,-215.7C1079.15,-207.98 1079.15,-198.71 1079.15,-190.11"/>
<polygon fill="black" stroke="black" points="1082.65,-190.1 1079.15,-180.1 1075.65,-190.1 1082.65,-190.1"/>
</g>
<!-- DOMA&#45;UUID -->
<g id="node12" class="node">
<title>DOMA&#45;UUID</title>
<g id="a_node12"><a xlink:href="./DOMA_UUID.html" xlink:title="DOMA&#45;UUID">
<polygon fill="none" stroke="yellow" points="1269.55,-252 1170.74,-252 1170.74,-216 1269.55,-216 1269.55,-252"/>
<text text-anchor="middle" x="1220.15" y="-229.8" font-family="Times,serif" font-size="14.00">DOMA&#45;UUID</text>
</a>
</g>
</g>
<!-- DTEL&#45;UUID&#45;&gt;DOMA&#45;UUID -->
<g id="edge17" class="edge">
<title>DTEL&#45;UUID&#45;&gt;DOMA&#45;UUID</title>
<path fill="none" stroke="black" d="M902.09,-298.71C960.25,-290.37 1063.61,-274.34 1160.89,-252.16"/>
<polygon fill="black" stroke="black" points="1161.93,-255.51 1170.89,-249.85 1160.36,-248.69 1161.93,-255.51"/>
</g>
<!-- DTEL&#45;INT4 -->
<g id="node14" class="node">
<title>DTEL&#45;INT4</title>
<g id="a_node14"><a xlink:href="./DTEL_INT4.html" xlink:title="DTEL&#45;INT4">
<polygon fill="none" stroke="green" points="150.39,-108 63.9,-108 63.9,-72 150.39,-72 150.39,-108"/>
<text text-anchor="middle" x="107.15" y="-85.8" font-family="Times,serif" font-size="14.00">DTEL&#45;INT4</text>
</a>
</g>
</g>
<!-- INTF&#45;IF_WEB_HTTP_REQUEST&#45;&gt;DTEL&#45;INT4 -->
<g id="edge18" class="edge">
<title>INTF&#45;IF_WEB_HTTP_REQUEST&#45;&gt;DTEL&#45;INT4</title>
<path fill="none" stroke="black" d="M107.15,-143.7C107.15,-135.98 107.15,-126.71 107.15,-118.11"/>
<polygon fill="black" stroke="black" points="110.65,-118.1 107.15,-108.1 103.65,-118.1 110.65,-118.1"/>
</g>
<!-- DOMA&#45;INT4 -->
<g id="node15" class="node">
<title>DOMA&#45;INT4</title>
<g id="a_node15"><a xlink:href="./DOMA_INT4.html" xlink:title="DOMA&#45;INT4">
<polygon fill="none" stroke="yellow" points="153.89,-36 60.4,-36 60.4,0 153.89,0 153.89,-36"/>
<text text-anchor="middle" x="107.15" y="-13.8" font-family="Times,serif" font-size="14.00">DOMA&#45;INT4</text>
</a>
</g>
</g>
<!-- DTEL&#45;INT4&#45;&gt;DOMA&#45;INT4 -->
<g id="edge19" class="edge">
<title>DTEL&#45;INT4&#45;&gt;DOMA&#45;INT4</title>
<path fill="none" stroke="black" d="M107.15,-71.7C107.15,-63.98 107.15,-54.71 107.15,-46.11"/>
<polygon fill="black" stroke="black" points="110.65,-46.1 107.15,-36.1 103.65,-46.1 110.65,-46.1"/>
</g>
<!-- INTF&#45;IF_WEB_HTTP_RESPONSE&#45;&gt;INTF&#45;IF_WEB_HTTP_REQUEST -->
<g id="edge20" class="edge">
<title>INTF&#45;IF_WEB_HTTP_RESPONSE&#45;&gt;INTF&#45;IF_WEB_HTTP_REQUEST</title>
<path fill="none" stroke="black" d="M159.09,-215.7C150.65,-207.14 140.32,-196.66 131.1,-187.3"/>
<polygon fill="black" stroke="black" points="133.52,-184.77 124.01,-180.1 128.53,-189.68 133.52,-184.77"/>
</g>
</g>
</svg>
