<?xml version="1.0" encoding="UTF-8" standalone="no"?>
<!DOCTYPE svg PUBLIC "-//W3C//DTD SVG 1.1//EN"
 "http://www.w3.org/Graphics/SVG/1.1/DTD/svg11.dtd">
<!-- Generated by graphviz version 2.47.3 (20210619.1520)
 -->
<!-- Title: G Pages: 1 -->
<svg width="1000pt" height="260pt"
 viewBox="0.00 0.00 999.81 260.00" xmlns="http://www.w3.org/2000/svg" xmlns:xlink="http://www.w3.org/1999/xlink">
<g id="graph0" class="graph" transform="scale(1 1) rotate(0) translate(4 256)">
<title>G</title>
<polygon fill="white" stroke="transparent" points="-4,4 -4,-256 995.81,-256 995.81,4 -4,4"/>
<!-- INTF&#45;IF_XCO_CTS_OBJECT -->
<g id="node1" class="node">
<title>INTF&#45;IF_XCO_CTS_OBJECT</title>
<g id="a_node1"><a xlink:href="./INTF_IF_XCO_CTS_OBJECT.html" xlink:title="INTF&#45;IF_XCO_CTS_OBJECT">
<polygon fill="none" stroke="green" points="471.19,-252 279.67,-252 279.67,-216 471.19,-216 471.19,-252"/>
<text text-anchor="middle" x="375.43" y="-229.8" font-family="Times,serif" font-size="14.00">INTF&#45;IF_XCO_CTS_OBJECT</text>
</a>
</g>
</g>
<!-- INTF&#45;IF_XCO_CTS_OBJECT_LOCK -->
<g id="node2" class="node">
<title>INTF&#45;IF_XCO_CTS_OBJECT_LOCK</title>
<g id="a_node2"><a xlink:href="./INTF_IF_XCO_CTS_OBJECT_LOCK.html" xlink:title="INTF&#45;IF_XCO_CTS_OBJECT_LOCK">
<polygon fill="none" stroke="green" points="236.79,-180 0.07,-180 0.07,-144 236.79,-144 236.79,-180"/>
<text text-anchor="middle" x="118.43" y="-157.8" font-family="Times,serif" font-size="14.00">INTF&#45;IF_XCO_CTS_OBJECT_LOCK</text>
</a>
</g>
</g>
<!-- INTF&#45;IF_XCO_CTS_OBJECT&#45;&gt;INTF&#45;IF_XCO_CTS_OBJECT_LOCK -->
<g id="edge4" class="edge">
<title>INTF&#45;IF_XCO_CTS_OBJECT&#45;&gt;INTF&#45;IF_XCO_CTS_OBJECT_LOCK</title>
<path fill="none" stroke="black" d="M301.11,-215.97C262.48,-206.01 216.01,-193.41 179.48,-182.99"/>
<polygon fill="black" stroke="black" points="180.04,-179.51 169.46,-180.11 178.11,-186.23 180.04,-179.51"/>
</g>
<!-- INTF&#45;IF_XCO_CTS_OBJECT&#45;&gt;INTF&#45;IF_XCO_CTS_OBJECT_LOCK -->
<g id="edge10" class="edge">
<title>INTF&#45;IF_XCO_CTS_OBJECT&#45;&gt;INTF&#45;IF_XCO_CTS_OBJECT_LOCK</title>
<path fill="none" stroke="black" d="M324.66,-215.97C289.86,-205.91 243.13,-193.14 202.86,-182.65"/>
<polygon fill="black" stroke="black" points="203.6,-179.23 193.04,-180.11 201.85,-186.01 203.6,-179.23"/>
</g>
<!-- CLAS&#45;CL_XCO_CTS_PROGRAM_ID -->
<g id="node3" class="node">
<title>CLAS&#45;CL_XCO_CTS_PROGRAM_ID</title>
<g id="a_node3"><a xlink:href="./CLAS_CL_XCO_CTS_PROGRAM_ID.html" xlink:title="CLAS&#45;CL_XCO_CTS_PROGRAM_ID">
<polygon fill="none" stroke="green" points="495.97,-180 254.89,-180 254.89,-144 495.97,-144 495.97,-180"/>
<text text-anchor="middle" x="375.43" y="-157.8" font-family="Times,serif" font-size="14.00">CLAS&#45;CL_XCO_CTS_PROGRAM_ID</text>
</a>
</g>
</g>
<!-- INTF&#45;IF_XCO_CTS_OBJECT&#45;&gt;CLAS&#45;CL_XCO_CTS_PROGRAM_ID -->
<g id="edge3" class="edge">
<title>INTF&#45;IF_XCO_CTS_OBJECT&#45;&gt;CLAS&#45;CL_XCO_CTS_PROGRAM_ID</title>
<path fill="none" stroke="black" d="M369.51,-215.7C368.72,-207.98 368.49,-198.71 368.83,-190.11"/>
<polygon fill="black" stroke="black" points="372.33,-190.32 369.53,-180.1 365.35,-189.84 372.33,-190.32"/>
</g>
<!-- INTF&#45;IF_XCO_CTS_OBJECT&#45;&gt;CLAS&#45;CL_XCO_CTS_PROGRAM_ID -->
<g id="edge9" class="edge">
<title>INTF&#45;IF_XCO_CTS_OBJECT&#45;&gt;CLAS&#45;CL_XCO_CTS_PROGRAM_ID</title>
<path fill="none" stroke="black" d="M381.35,-215.7C382.14,-207.98 382.37,-198.71 382.03,-190.11"/>
<polygon fill="black" stroke="black" points="385.51,-189.84 381.32,-180.1 378.53,-190.32 385.51,-189.84"/>
</g>
<!-- DTEL&#45;SXCO_CTS_OBJECT_NAME -->
<g id="node7" class="node">
<title>DTEL&#45;SXCO_CTS_OBJECT_NAME</title>
<g id="a_node7"><a xlink:href="./DTEL_SXCO_CTS_OBJECT_NAME.html" xlink:title="DTEL&#45;SXCO_CTS_OBJECT_NAME">
<polygon fill="none" stroke="green" points="746.9,-180 513.96,-180 513.96,-144 746.9,-144 746.9,-180"/>
<text text-anchor="middle" x="630.43" y="-157.8" font-family="Times,serif" font-size="14.00">DTEL&#45;SXCO_CTS_OBJECT_NAME</text>
</a>
</g>
</g>
<!-- INTF&#45;IF_XCO_CTS_OBJECT&#45;&gt;DTEL&#45;SXCO_CTS_OBJECT_NAME -->
<g id="edge2" class="edge">
<title>INTF&#45;IF_XCO_CTS_OBJECT&#45;&gt;DTEL&#45;SXCO_CTS_OBJECT_NAME</title>
<path fill="none" stroke="black" d="M431.6,-215.97C467.1,-205.93 513.42,-193.19 552.45,-182.72"/>
<polygon fill="black" stroke="black" points="553.45,-186.08 562.2,-180.11 551.64,-179.31 553.45,-186.08"/>
</g>
<!-- INTF&#45;IF_XCO_CTS_OBJECT&#45;&gt;DTEL&#45;SXCO_CTS_OBJECT_NAME -->
<g id="edge8" class="edge">
<title>INTF&#45;IF_XCO_CTS_OBJECT&#45;&gt;DTEL&#45;SXCO_CTS_OBJECT_NAME</title>
<path fill="none" stroke="black" d="M443.37,-215.97C480.83,-205.97 527.09,-193.3 564.26,-182.85"/>
<polygon fill="black" stroke="black" points="565.32,-186.19 573.99,-180.11 563.42,-179.45 565.32,-186.19"/>
</g>
<!-- DTEL&#45;SXCO_CTS_OBJECT_TYPE -->
<g id="node9" class="node">
<title>DTEL&#45;SXCO_CTS_OBJECT_TYPE</title>
<g id="a_node9"><a xlink:href="./DTEL_SXCO_CTS_OBJECT_TYPE.html" xlink:title="DTEL&#45;SXCO_CTS_OBJECT_TYPE">
<polygon fill="none" stroke="green" points="991.68,-180 765.18,-180 765.18,-144 991.68,-144 991.68,-180"/>
<text text-anchor="middle" x="878.43" y="-157.8" font-family="Times,serif" font-size="14.00">DTEL&#45;SXCO_CTS_OBJECT_TYPE</text>
</a>
</g>
</g>
<!-- INTF&#45;IF_XCO_CTS_OBJECT&#45;&gt;DTEL&#45;SXCO_CTS_OBJECT_TYPE -->
<g id="edge1" class="edge">
<title>INTF&#45;IF_XCO_CTS_OBJECT&#45;&gt;DTEL&#45;SXCO_CTS_OBJECT_TYPE</title>
<path fill="none" stroke="black" d="M471.37,-218.88C551.93,-207.46 667.49,-191.36 754.94,-179.38"/>
<polygon fill="black" stroke="black" points="755.49,-182.83 764.92,-178.01 754.54,-175.9 755.49,-182.83"/>
</g>
<!-- INTF&#45;IF_XCO_CTS_OBJECT&#45;&gt;DTEL&#45;SXCO_CTS_OBJECT_TYPE -->
<g id="edge7" class="edge">
<title>INTF&#45;IF_XCO_CTS_OBJECT&#45;&gt;DTEL&#45;SXCO_CTS_OBJECT_TYPE</title>
<path fill="none" stroke="black" d="M471.27,-220.4C551.89,-209.41 667.63,-193.34 755.14,-180.99"/>
<polygon fill="black" stroke="black" points="755.72,-184.44 765.13,-179.58 754.74,-177.51 755.72,-184.44"/>
</g>
<!-- INTF&#45;IF_XCO_CTS_OBJECT_LOCK&#45;&gt;INTF&#45;IF_XCO_CTS_OBJECT -->
<g id="edge6" class="edge">
<title>INTF&#45;IF_XCO_CTS_OBJECT_LOCK&#45;&gt;INTF&#45;IF_XCO_CTS_OBJECT</title>
<path fill="none" stroke="black" d="M181.25,-180.11C217.99,-190.12 264.53,-202.79 302.83,-213.23"/>
<polygon fill="black" stroke="black" points="302.32,-216.71 312.89,-215.97 304.16,-209.96 302.32,-216.71"/>
</g>
<!-- DTEL&#45;SXCO_TRANSPORT -->
<g id="node11" class="node">
<title>DTEL&#45;SXCO_TRANSPORT</title>
<g id="a_node11"><a xlink:href="./DTEL_SXCO_TRANSPORT.html" xlink:title="DTEL&#45;SXCO_TRANSPORT">
<polygon fill="none" stroke="green" points="209.85,-108 27.01,-108 27.01,-72 209.85,-72 209.85,-108"/>
<text text-anchor="middle" x="118.43" y="-85.8" font-family="Times,serif" font-size="14.00">DTEL&#45;SXCO_TRANSPORT</text>
</a>
</g>
</g>
<!-- INTF&#45;IF_XCO_CTS_OBJECT_LOCK&#45;&gt;DTEL&#45;SXCO_TRANSPORT -->
<g id="edge5" class="edge">
<title>INTF&#45;IF_XCO_CTS_OBJECT_LOCK&#45;&gt;DTEL&#45;SXCO_TRANSPORT</title>
<path fill="none" stroke="black" d="M118.43,-143.7C118.43,-135.98 118.43,-126.71 118.43,-118.11"/>
<polygon fill="black" stroke="black" points="121.93,-118.1 118.43,-108.1 114.93,-118.1 121.93,-118.1"/>
</g>
<!-- CLAS&#45;CL_XCO_CTS_PROGRAM_ID_F -->
<g id="node4" class="node">
<title>CLAS&#45;CL_XCO_CTS_PROGRAM_ID_F</title>
<g id="a_node4"><a xlink:href="./CLAS_CL_XCO_CTS_PROGRAM_ID_F.html" xlink:title="CLAS&#45;CL_XCO_CTS_PROGRAM_ID_F">
<polygon fill="none" stroke="green" points="493.75,-108 237.11,-108 237.11,-72 493.75,-72 493.75,-108"/>
<text text-anchor="middle" x="365.43" y="-85.8" font-family="Times,serif" font-size="14.00">CLAS&#45;CL_XCO_CTS_PROGRAM_ID_F</text>
</a>
</g>
</g>
<!-- CLAS&#45;CL_XCO_CTS_PROGRAM_ID&#45;&gt;CLAS&#45;CL_XCO_CTS_PROGRAM_ID_F -->
<g id="edge12" class="edge">
<title>CLAS&#45;CL_XCO_CTS_PROGRAM_ID&#45;&gt;CLAS&#45;CL_XCO_CTS_PROGRAM_ID_F</title>
<path fill="none" stroke="black" d="M367.04,-143.7C365.14,-135.98 363.59,-126.71 362.71,-118.11"/>
<polygon fill="black" stroke="black" points="366.2,-117.82 361.98,-108.1 359.21,-118.33 366.2,-117.82"/>
</g>
<!-- DTEL&#45;PGMID -->
<g id="node5" class="node">
<title>DTEL&#45;PGMID</title>
<g id="a_node5"><a xlink:href="./DTEL_PGMID.html" xlink:title="DTEL&#45;PGMID">
<polygon fill="none" stroke="yellow" points="612.96,-108 511.9,-108 511.9,-72 612.96,-72 612.96,-108"/>
<text text-anchor="middle" x="562.43" y="-85.8" font-family="Times,serif" font-size="14.00">DTEL&#45;PGMID</text>
</a>
</g>
</g>
<!-- CLAS&#45;CL_XCO_CTS_PROGRAM_ID&#45;&gt;DTEL&#45;PGMID -->
<g id="edge11" class="edge">
<title>CLAS&#45;CL_XCO_CTS_PROGRAM_ID&#45;&gt;DTEL&#45;PGMID</title>
<path fill="none" stroke="black" d="M421.18,-143.88C447.19,-134.14 479.96,-121.87 507.38,-111.61"/>
<polygon fill="black" stroke="black" points="508.69,-114.85 516.83,-108.07 506.24,-108.3 508.69,-114.85"/>
</g>
<!-- CLAS&#45;CL_XCO_CTS_PROGRAM_ID_F&#45;&gt;CLAS&#45;CL_XCO_CTS_PROGRAM_ID -->
<g id="edge13" class="edge">
<title>CLAS&#45;CL_XCO_CTS_PROGRAM_ID_F&#45;&gt;CLAS&#45;CL_XCO_CTS_PROGRAM_ID</title>
<path fill="none" stroke="black" d="M373.77,-108.1C375.67,-115.79 377.23,-125.05 378.13,-133.67"/>
<polygon fill="black" stroke="black" points="374.64,-133.98 378.87,-143.7 381.62,-133.46 374.64,-133.98"/>
</g>
<!-- DOMA&#45;PGMID -->
<g id="node6" class="node">
<title>DOMA&#45;PGMID</title>
<g id="a_node6"><a xlink:href="./DOMA_PGMID.html" xlink:title="DOMA&#45;PGMID">
<polygon fill="none" stroke="yellow" points="616.46,-36 508.4,-36 508.4,0 616.46,0 616.46,-36"/>
<text text-anchor="middle" x="562.43" y="-13.8" font-family="Times,serif" font-size="14.00">DOMA&#45;PGMID</text>
</a>
</g>
</g>
<!-- DTEL&#45;PGMID&#45;&gt;DOMA&#45;PGMID -->
<g id="edge14" class="edge">
<title>DTEL&#45;PGMID&#45;&gt;DOMA&#45;PGMID</title>
<path fill="none" stroke="black" d="M562.43,-71.7C562.43,-63.98 562.43,-54.71 562.43,-46.11"/>
<polygon fill="black" stroke="black" points="565.93,-46.1 562.43,-36.1 558.93,-46.1 565.93,-46.1"/>
</g>
<!-- DOMA&#45;TROBJ_NAME -->
<g id="node8" class="node">
<title>DOMA&#45;TROBJ_NAME</title>
<g id="a_node8"><a xlink:href="./DOMA_TROBJ_NAME.html" xlink:title="DOMA&#45;TROBJ_NAME">
<polygon fill="none" stroke="yellow" points="785.84,-108 631.02,-108 631.02,-72 785.84,-72 785.84,-108"/>
<text text-anchor="middle" x="708.43" y="-85.8" font-family="Times,serif" font-size="14.00">DOMA&#45;TROBJ_NAME</text>
</a>
</g>
</g>
<!-- DTEL&#45;SXCO_CTS_OBJECT_NAME&#45;&gt;DOMA&#45;TROBJ_NAME -->
<g id="edge15" class="edge">
<title>DTEL&#45;SXCO_CTS_OBJECT_NAME&#45;&gt;DOMA&#45;TROBJ_NAME</title>
<path fill="none" stroke="black" d="M649.71,-143.7C659.35,-135.05 671.16,-124.45 681.66,-115.03"/>
<polygon fill="black" stroke="black" points="684.27,-117.39 689.37,-108.1 679.59,-112.18 684.27,-117.39"/>
</g>
<!-- DOMA&#45;OBJECT -->
<g id="node10" class="node">
<title>DOMA&#45;OBJECT</title>
<g id="a_node10"><a xlink:href="./DOMA_OBJECT.html" xlink:title="DOMA&#45;OBJECT">
<polygon fill="none" stroke="yellow" points="935.68,-108 821.18,-108 821.18,-72 935.68,-72 935.68,-108"/>
<text text-anchor="middle" x="878.43" y="-85.8" font-family="Times,serif" font-size="14.00">DOMA&#45;OBJECT</text>
</a>
</g>
</g>
<!-- DTEL&#45;SXCO_CTS_OBJECT_TYPE&#45;&gt;DOMA&#45;OBJECT -->
<g id="edge16" class="edge">
<title>DTEL&#45;SXCO_CTS_OBJECT_TYPE&#45;&gt;DOMA&#45;OBJECT</title>
<path fill="none" stroke="black" d="M878.43,-143.7C878.43,-135.98 878.43,-126.71 878.43,-118.11"/>
<polygon fill="black" stroke="black" points="881.93,-118.1 878.43,-108.1 874.93,-118.1 881.93,-118.1"/>
</g>
<!-- DOMA&#45;TRKORR -->
<g id="node12" class="node">
<title>DOMA&#45;TRKORR</title>
<g id="a_node12"><a xlink:href="./DOMA_TRKORR.html" xlink:title="DOMA&#45;TRKORR">
<polygon fill="none" stroke="yellow" points="178.63,-36 58.23,-36 58.23,0 178.63,0 178.63,-36"/>
<text text-anchor="middle" x="118.43" y="-13.8" font-family="Times,serif" font-size="14.00">DOMA&#45;TRKORR</text>
</a>
</g>
</g>
<!-- DTEL&#45;SXCO_TRANSPORT&#45;&gt;DOMA&#45;TRKORR -->
<g id="edge17" class="edge">
<title>DTEL&#45;SXCO_TRANSPORT&#45;&gt;DOMA&#45;TRKORR</title>
<path fill="none" stroke="black" d="M118.43,-71.7C118.43,-63.98 118.43,-54.71 118.43,-46.11"/>
<polygon fill="black" stroke="black" points="121.93,-46.1 118.43,-36.1 114.93,-46.1 121.93,-46.1"/>
</g>
</g>
</svg>
