<?xml version="1.0" encoding="UTF-8" standalone="no"?>
<!DOCTYPE svg PUBLIC "-//W3C//DTD SVG 1.1//EN"
 "http://www.w3.org/Graphics/SVG/1.1/DTD/svg11.dtd">
<!-- Generated by graphviz version 2.47.3 (20210619.1520)
 -->
<!-- Title: G Pages: 1 -->
<svg width="1005pt" height="332pt"
 viewBox="0.00 0.00 1005.08 332.00" xmlns="http://www.w3.org/2000/svg" xmlns:xlink="http://www.w3.org/1999/xlink">
<g id="graph0" class="graph" transform="scale(1 1) rotate(0) translate(4 328)">
<title>G</title>
<polygon fill="white" stroke="transparent" points="-4,4 -4,-328 1001.08,-328 1001.08,4 -4,4"/>
<!-- INTF&#45;IF_XCO_CP_GEN_MSAG_D_O_PUT_OBJ -->
<g id="node1" class="node">
<title>INTF&#45;IF_XCO_CP_GEN_MSAG_D_O_PUT_OBJ</title>
<polygon fill="none" stroke="green" points="820.17,-324 512.92,-324 512.92,-288 820.17,-288 820.17,-324"/>
<text text-anchor="middle" x="666.54" y="-301.8" font-family="Times,serif" font-size="14.00">INTF&#45;IF_XCO_CP_GEN_MSAG_D_O_PUT_OBJ</text>
</g>
<!-- INTF&#45;IF_XCO_CP_GEN_MSAG_S_FORM -->
<g id="node2" class="node">
<title>INTF&#45;IF_XCO_CP_GEN_MSAG_S_FORM</title>
<g id="a_node2"><a xlink:href="./INTF_IF_XCO_CP_GEN_MSAG_S_FORM.html" xlink:title="INTF&#45;IF_XCO_CP_GEN_MSAG_S_FORM">
<polygon fill="none" stroke="green" points="565.08,-252 296.01,-252 296.01,-216 565.08,-216 565.08,-252"/>
<text text-anchor="middle" x="430.54" y="-229.8" font-family="Times,serif" font-size="14.00">INTF&#45;IF_XCO_CP_GEN_MSAG_S_FORM</text>
</a>
</g>
</g>
<!-- INTF&#45;IF_XCO_CP_GEN_MSAG_D_O_PUT_OBJ&#45;&gt;INTF&#45;IF_XCO_CP_GEN_MSAG_S_FORM -->
<g id="edge3" class="edge">
<title>INTF&#45;IF_XCO_CP_GEN_MSAG_D_O_PUT_OBJ&#45;&gt;INTF&#45;IF_XCO_CP_GEN_MSAG_S_FORM</title>
<path fill="none" stroke="black" d="M609.11,-287.97C575.57,-278.01 533.06,-265.41 497.93,-254.99"/>
<polygon fill="black" stroke="black" points="498.81,-251.6 488.23,-252.11 496.82,-258.31 498.81,-251.6"/>
</g>
<!-- DTEL&#45;SXCO_PACKAGE -->
<g id="node10" class="node">
<title>DTEL&#45;SXCO_PACKAGE</title>
<g id="a_node10"><a xlink:href="./DTEL_SXCO_PACKAGE.html" xlink:title="DTEL&#45;SXCO_PACKAGE">
<polygon fill="none" stroke="green" points="749.9,-252 583.19,-252 583.19,-216 749.9,-216 749.9,-252"/>
<text text-anchor="middle" x="666.54" y="-229.8" font-family="Times,serif" font-size="14.00">DTEL&#45;SXCO_PACKAGE</text>
</a>
</g>
</g>
<!-- INTF&#45;IF_XCO_CP_GEN_MSAG_D_O_PUT_OBJ&#45;&gt;DTEL&#45;SXCO_PACKAGE -->
<g id="edge2" class="edge">
<title>INTF&#45;IF_XCO_CP_GEN_MSAG_D_O_PUT_OBJ&#45;&gt;DTEL&#45;SXCO_PACKAGE</title>
<path fill="none" stroke="black" d="M666.54,-287.7C666.54,-279.98 666.54,-270.71 666.54,-262.11"/>
<polygon fill="black" stroke="black" points="670.04,-262.1 666.54,-252.1 663.04,-262.1 670.04,-262.1"/>
</g>
<!-- DTEL&#45;SXCO_MC_OBJECT_NAME -->
<g id="node12" class="node">
<title>DTEL&#45;SXCO_MC_OBJECT_NAME</title>
<g id="a_node12"><a xlink:href="./DTEL_SXCO_MC_OBJECT_NAME.html" xlink:title="DTEL&#45;SXCO_MC_OBJECT_NAME">
<polygon fill="none" stroke="green" points="997.12,-252 767.96,-252 767.96,-216 997.12,-216 997.12,-252"/>
<text text-anchor="middle" x="882.54" y="-229.8" font-family="Times,serif" font-size="14.00">DTEL&#45;SXCO_MC_OBJECT_NAME</text>
</a>
</g>
</g>
<!-- INTF&#45;IF_XCO_CP_GEN_MSAG_D_O_PUT_OBJ&#45;&gt;DTEL&#45;SXCO_MC_OBJECT_NAME -->
<g id="edge1" class="edge">
<title>INTF&#45;IF_XCO_CP_GEN_MSAG_D_O_PUT_OBJ&#45;&gt;DTEL&#45;SXCO_MC_OBJECT_NAME</title>
<path fill="none" stroke="black" d="M719.11,-287.97C749.55,-278.1 788.05,-265.62 820.04,-255.25"/>
<polygon fill="black" stroke="black" points="821.31,-258.52 829.74,-252.11 819.15,-251.86 821.31,-258.52"/>
</g>
<!-- INTF&#45;IF_XCO_CP_GEN_MSAG_S_FO_MSG -->
<g id="node3" class="node">
<title>INTF&#45;IF_XCO_CP_GEN_MSAG_S_FO_MSG</title>
<g id="a_node3"><a xlink:href="./INTF_IF_XCO_CP_GEN_MSAG_S_FO_MSG.html" xlink:title="INTF&#45;IF_XCO_CP_GEN_MSAG_S_FO_MSG">
<polygon fill="none" stroke="green" points="285.13,-180 -0.04,-180 -0.04,-144 285.13,-144 285.13,-180"/>
<text text-anchor="middle" x="142.54" y="-157.8" font-family="Times,serif" font-size="14.00">INTF&#45;IF_XCO_CP_GEN_MSAG_S_FO_MSG</text>
</a>
</g>
</g>
<!-- INTF&#45;IF_XCO_CP_GEN_MSAG_S_FORM&#45;&gt;INTF&#45;IF_XCO_CP_GEN_MSAG_S_FO_MSG -->
<g id="edge5" class="edge">
<title>INTF&#45;IF_XCO_CP_GEN_MSAG_S_FORM&#45;&gt;INTF&#45;IF_XCO_CP_GEN_MSAG_S_FO_MSG</title>
<path fill="none" stroke="black" d="M360.46,-215.97C318.91,-205.87 266.09,-193.03 222.86,-182.52"/>
<polygon fill="black" stroke="black" points="223.49,-179.07 212.94,-180.11 221.83,-185.87 223.49,-179.07"/>
</g>
<!-- DTEL&#45;SXCO_AR_SHORT_DESCRIPTION -->
<g id="node8" class="node">
<title>DTEL&#45;SXCO_AR_SHORT_DESCRIPTION</title>
<g id="a_node8"><a xlink:href="./DTEL_SXCO_AR_SHORT_DESCRIPTION.html" xlink:title="DTEL&#45;SXCO_AR_SHORT_DESCRIPTION">
<polygon fill="none" stroke="green" points="574.11,-180 302.97,-180 302.97,-144 574.11,-144 574.11,-180"/>
<text text-anchor="middle" x="438.54" y="-157.8" font-family="Times,serif" font-size="14.00">DTEL&#45;SXCO_AR_SHORT_DESCRIPTION</text>
</a>
</g>
</g>
<!-- INTF&#45;IF_XCO_CP_GEN_MSAG_S_FORM&#45;&gt;DTEL&#45;SXCO_AR_SHORT_DESCRIPTION -->
<g id="edge4" class="edge">
<title>INTF&#45;IF_XCO_CP_GEN_MSAG_S_FORM&#45;&gt;DTEL&#45;SXCO_AR_SHORT_DESCRIPTION</title>
<path fill="none" stroke="black" d="M432.52,-215.7C433.4,-207.98 434.46,-198.71 435.44,-190.11"/>
<polygon fill="black" stroke="black" points="438.93,-190.44 436.59,-180.1 431.98,-189.64 438.93,-190.44"/>
</g>
<!-- DTEL&#45;NATXT -->
<g id="node4" class="node">
<title>DTEL&#45;NATXT</title>
<g id="a_node4"><a xlink:href="./DTEL_NATXT.html" xlink:title="DTEL&#45;NATXT">
<polygon fill="none" stroke="yellow" points="126.39,-108 22.69,-108 22.69,-72 126.39,-72 126.39,-108"/>
<text text-anchor="middle" x="74.54" y="-85.8" font-family="Times,serif" font-size="14.00">DTEL&#45;NATXT</text>
</a>
</g>
</g>
<!-- INTF&#45;IF_XCO_CP_GEN_MSAG_S_FO_MSG&#45;&gt;DTEL&#45;NATXT -->
<g id="edge7" class="edge">
<title>INTF&#45;IF_XCO_CP_GEN_MSAG_S_FO_MSG&#45;&gt;DTEL&#45;NATXT</title>
<path fill="none" stroke="black" d="M125.73,-143.7C117.42,-135.14 107.24,-124.66 98.15,-115.3"/>
<polygon fill="black" stroke="black" points="100.64,-112.84 91.16,-108.1 95.62,-117.72 100.64,-112.84"/>
</g>
<!-- DTEL&#45;SYMSGNO -->
<g id="node6" class="node">
<title>DTEL&#45;SYMSGNO</title>
<g id="a_node6"><a xlink:href="./DTEL_SYMSGNO.html" xlink:title="DTEL&#45;SYMSGNO">
<polygon fill="none" stroke="green" points="270.9,-108 146.18,-108 146.18,-72 270.9,-72 270.9,-108"/>
<text text-anchor="middle" x="208.54" y="-85.8" font-family="Times,serif" font-size="14.00">DTEL&#45;SYMSGNO</text>
</a>
</g>
</g>
<!-- INTF&#45;IF_XCO_CP_GEN_MSAG_S_FO_MSG&#45;&gt;DTEL&#45;SYMSGNO -->
<g id="edge6" class="edge">
<title>INTF&#45;IF_XCO_CP_GEN_MSAG_S_FO_MSG&#45;&gt;DTEL&#45;SYMSGNO</title>
<path fill="none" stroke="black" d="M158.86,-143.7C166.85,-135.22 176.62,-124.86 185.37,-115.58"/>
<polygon fill="black" stroke="black" points="188.1,-117.78 192.42,-108.1 183.01,-112.98 188.1,-117.78"/>
</g>
<!-- DOMA&#45;NATXT -->
<g id="node5" class="node">
<title>DOMA&#45;NATXT</title>
<g id="a_node5"><a xlink:href="./DOMA_NATXT.html" xlink:title="DOMA&#45;NATXT">
<polygon fill="none" stroke="yellow" points="126.89,-36 16.19,-36 16.19,0 126.89,0 126.89,-36"/>
<text text-anchor="middle" x="71.54" y="-13.8" font-family="Times,serif" font-size="14.00">DOMA&#45;NATXT</text>
</a>
</g>
</g>
<!-- DTEL&#45;NATXT&#45;&gt;DOMA&#45;NATXT -->
<g id="edge8" class="edge">
<title>DTEL&#45;NATXT&#45;&gt;DOMA&#45;NATXT</title>
<path fill="none" stroke="black" d="M73.8,-71.7C73.47,-63.98 73.07,-54.71 72.71,-46.11"/>
<polygon fill="black" stroke="black" points="76.2,-45.95 72.28,-36.1 69.21,-46.25 76.2,-45.95"/>
</g>
<!-- DOMA&#45;SYMSGNO -->
<g id="node7" class="node">
<title>DOMA&#45;SYMSGNO</title>
<g id="a_node7"><a xlink:href="./DOMA_SYMSGNO.html" xlink:title="DOMA&#45;SYMSGNO">
<polygon fill="none" stroke="yellow" points="276.4,-36 144.68,-36 144.68,0 276.4,0 276.4,-36"/>
<text text-anchor="middle" x="210.54" y="-13.8" font-family="Times,serif" font-size="14.00">DOMA&#45;SYMSGNO</text>
</a>
</g>
</g>
<!-- DTEL&#45;SYMSGNO&#45;&gt;DOMA&#45;SYMSGNO -->
<g id="edge9" class="edge">
<title>DTEL&#45;SYMSGNO&#45;&gt;DOMA&#45;SYMSGNO</title>
<path fill="none" stroke="black" d="M209.04,-71.7C209.26,-63.98 209.52,-54.71 209.77,-46.11"/>
<polygon fill="black" stroke="black" points="213.27,-46.2 210.05,-36.1 206.27,-46 213.27,-46.2"/>
</g>
<!-- DOMA&#45;AS4TEXT -->
<g id="node9" class="node">
<title>DOMA&#45;AS4TEXT</title>
<g id="a_node9"><a xlink:href="./DOMA_AS4TEXT.html" xlink:title="DOMA&#45;AS4TEXT">
<polygon fill="none" stroke="yellow" points="500.62,-108 376.46,-108 376.46,-72 500.62,-72 500.62,-108"/>
<text text-anchor="middle" x="438.54" y="-85.8" font-family="Times,serif" font-size="14.00">DOMA&#45;AS4TEXT</text>
</a>
</g>
</g>
<!-- DTEL&#45;SXCO_AR_SHORT_DESCRIPTION&#45;&gt;DOMA&#45;AS4TEXT -->
<g id="edge10" class="edge">
<title>DTEL&#45;SXCO_AR_SHORT_DESCRIPTION&#45;&gt;DOMA&#45;AS4TEXT</title>
<path fill="none" stroke="black" d="M438.54,-143.7C438.54,-135.98 438.54,-126.71 438.54,-118.11"/>
<polygon fill="black" stroke="black" points="442.04,-118.1 438.54,-108.1 435.04,-118.1 442.04,-118.1"/>
</g>
<!-- DOMA&#45;DEVCLASS -->
<g id="node11" class="node">
<title>DOMA&#45;DEVCLASS</title>
<g id="a_node11"><a xlink:href="./DOMA_DEVCLASS.html" xlink:title="DOMA&#45;DEVCLASS">
<polygon fill="none" stroke="yellow" points="734.3,-180 598.79,-180 598.79,-144 734.3,-144 734.3,-180"/>
<text text-anchor="middle" x="666.54" y="-157.8" font-family="Times,serif" font-size="14.00">DOMA&#45;DEVCLASS</text>
</a>
</g>
</g>
<!-- DTEL&#45;SXCO_PACKAGE&#45;&gt;DOMA&#45;DEVCLASS -->
<g id="edge11" class="edge">
<title>DTEL&#45;SXCO_PACKAGE&#45;&gt;DOMA&#45;DEVCLASS</title>
<path fill="none" stroke="black" d="M666.54,-215.7C666.54,-207.98 666.54,-198.71 666.54,-190.11"/>
<polygon fill="black" stroke="black" points="670.04,-190.1 666.54,-180.1 663.04,-190.1 670.04,-190.1"/>
</g>
</g>
</svg>
