<?xml version="1.0" encoding="UTF-8" standalone="no"?>
<!DOCTYPE svg PUBLIC "-//W3C//DTD SVG 1.1//EN"
 "http://www.w3.org/Graphics/SVG/1.1/DTD/svg11.dtd">
<!-- Generated by graphviz version 2.47.3 (20210619.1520)
 -->
<!-- Title: G Pages: 1 -->
<svg width="624pt" height="188pt"
 viewBox="0.00 0.00 623.79 188.00" xmlns="http://www.w3.org/2000/svg" xmlns:xlink="http://www.w3.org/1999/xlink">
<g id="graph0" class="graph" transform="scale(1 1) rotate(0) translate(4 184)">
<title>G</title>
<polygon fill="white" stroke="transparent" points="-4,4 -4,-184 619.79,-184 619.79,4 -4,4"/>
<!-- INTF&#45;/IWCOR/IF_DS_EDM_ASSOC -->
<g id="node1" class="node">
<title>INTF&#45;/IWCOR/IF_DS_EDM_ASSOC</title>
<g id="a_node1"><a xlink:href="./INTF_%23IWCOR%23IF_DS_EDM_ASSOC.html" xlink:title="INTF&#45;/IWCOR/IF_DS_EDM_ASSOC">
<polygon fill="none" stroke="yellow" points="454.73,-180 221.23,-180 221.23,-144 454.73,-144 454.73,-180"/>
<text text-anchor="middle" x="337.98" y="-157.8" font-family="Times,serif" font-size="14.00">INTF&#45;/IWCOR/IF_DS_EDM_ASSOC</text>
</a>
</g>
</g>
<!-- INTF&#45;/IWCOR/IF_DS_EDM_NAMED -->
<g id="node2" class="node">
<title>INTF&#45;/IWCOR/IF_DS_EDM_NAMED</title>
<g id="a_node2"><a xlink:href="./INTF_%23IWCOR%23IF_DS_EDM_NAMED.html" xlink:title="INTF&#45;/IWCOR/IF_DS_EDM_NAMED">
<polygon fill="none" stroke="yellow" points="239.93,-36 0.02,-36 0.02,0 239.93,0 239.93,-36"/>
<text text-anchor="middle" x="119.98" y="-13.8" font-family="Times,serif" font-size="14.00">INTF&#45;/IWCOR/IF_DS_EDM_NAMED</text>
</a>
</g>
</g>
<!-- INTF&#45;/IWCOR/IF_DS_EDM_ASSOC&#45;&gt;INTF&#45;/IWCOR/IF_DS_EDM_NAMED -->
<g id="edge3" class="edge">
<title>INTF&#45;/IWCOR/IF_DS_EDM_ASSOC&#45;&gt;INTF&#45;/IWCOR/IF_DS_EDM_NAMED</title>
<path fill="none" stroke="black" d="M254.78,-143.92C228.81,-135.77 201.2,-124.17 178.98,-108 156.14,-91.38 137.33,-64.98 126.97,-45.24"/>
<polygon fill="black" stroke="black" points="130.08,-43.63 122.58,-36.15 123.78,-46.68 130.08,-43.63"/>
</g>
<!-- INTF&#45;/IWCOR/IF_DS_EDM_ASSOC&#45;&gt;INTF&#45;/IWCOR/IF_DS_EDM_NAMED -->
<g id="edge11" class="edge">
<title>INTF&#45;/IWCOR/IF_DS_EDM_ASSOC&#45;&gt;INTF&#45;/IWCOR/IF_DS_EDM_NAMED</title>
<path fill="none" stroke="black" d="M271.73,-143.92C246.81,-135.77 219.2,-124.17 196.98,-108 173.83,-91.16 154.82,-64.25 141.13,-44.43"/>
<polygon fill="black" stroke="black" points="143.97,-42.39 135.4,-36.15 138.21,-46.37 143.97,-42.39"/>
</g>
<!-- INTF&#45;/IWCOR/IF_DS_EDM_ENTITY_TYPE -->
<g id="node3" class="node">
<title>INTF&#45;/IWCOR/IF_DS_EDM_ENTITY_TYPE</title>
<g id="a_node3"><a xlink:href="./INTF_%23IWCOR%23IF_DS_EDM_ENTITY_TYPE.html" xlink:title="INTF&#45;/IWCOR/IF_DS_EDM_ENTITY_TYPE">
<polygon fill="none" stroke="yellow" points="478.64,-108 197.31,-108 197.31,-72 478.64,-72 478.64,-108"/>
<text text-anchor="middle" x="337.98" y="-85.8" font-family="Times,serif" font-size="14.00">INTF&#45;/IWCOR/IF_DS_EDM_ENTITY_TYPE</text>
</a>
</g>
</g>
<!-- INTF&#45;/IWCOR/IF_DS_EDM_ASSOC&#45;&gt;INTF&#45;/IWCOR/IF_DS_EDM_ENTITY_TYPE -->
<g id="edge2" class="edge">
<title>INTF&#45;/IWCOR/IF_DS_EDM_ASSOC&#45;&gt;INTF&#45;/IWCOR/IF_DS_EDM_ENTITY_TYPE</title>
<path fill="none" stroke="black" d="M332.06,-143.7C331.26,-135.98 331.04,-126.71 331.38,-118.11"/>
<polygon fill="black" stroke="black" points="334.87,-118.32 332.08,-108.1 327.89,-117.84 334.87,-118.32"/>
</g>
<!-- INTF&#45;/IWCOR/IF_DS_EDM_ASSOC&#45;&gt;INTF&#45;/IWCOR/IF_DS_EDM_ENTITY_TYPE -->
<g id="edge10" class="edge">
<title>INTF&#45;/IWCOR/IF_DS_EDM_ASSOC&#45;&gt;INTF&#45;/IWCOR/IF_DS_EDM_ENTITY_TYPE</title>
<path fill="none" stroke="black" d="M343.89,-143.7C344.69,-135.98 344.91,-126.71 344.57,-118.11"/>
<polygon fill="black" stroke="black" points="348.06,-117.84 343.87,-108.1 341.08,-118.32 348.06,-117.84"/>
</g>
<!-- INTF&#45;/IWCOR/IF_DS_EDM -->
<g id="node4" class="node">
<title>INTF&#45;/IWCOR/IF_DS_EDM</title>
<g id="a_node4"><a xlink:href="./INTF_%23IWCOR%23IF_DS_EDM.html" xlink:title="INTF&#45;/IWCOR/IF_DS_EDM">
<polygon fill="none" stroke="yellow" points="615.61,-36 434.34,-36 434.34,0 615.61,0 615.61,-36"/>
<text text-anchor="middle" x="524.98" y="-13.8" font-family="Times,serif" font-size="14.00">INTF&#45;/IWCOR/IF_DS_EDM</text>
</a>
</g>
</g>
<!-- INTF&#45;/IWCOR/IF_DS_EDM_ASSOC&#45;&gt;INTF&#45;/IWCOR/IF_DS_EDM -->
<g id="edge1" class="edge">
<title>INTF&#45;/IWCOR/IF_DS_EDM_ASSOC&#45;&gt;INTF&#45;/IWCOR/IF_DS_EDM</title>
<path fill="none" stroke="black" d="M407.3,-143.94C429.35,-136.07 452.43,-124.62 469.98,-108 487.54,-91.36 497.07,-65.13 505.27,-45.45"/>
<polygon fill="black" stroke="black" points="508.56,-46.68 509.35,-36.11 502.14,-43.88 508.56,-46.68"/>
</g>
<!-- INTF&#45;/IWCOR/IF_DS_EDM_ASSOC&#45;&gt;INTF&#45;/IWCOR/IF_DS_EDM -->
<g id="edge9" class="edge">
<title>INTF&#45;/IWCOR/IF_DS_EDM_ASSOC&#45;&gt;INTF&#45;/IWCOR/IF_DS_EDM</title>
<path fill="none" stroke="black" d="M441.86,-143.94C465.35,-136.07 488.43,-124.62 505.98,-108 523.3,-91.59 532.8,-65.85 534.72,-46.26"/>
<polygon fill="black" stroke="black" points="538.22,-46.21 535,-36.11 531.22,-46.01 538.22,-46.21"/>
</g>
<!-- INTF&#45;/IWCOR/IF_DS_EDM_ENTITY_TYPE&#45;&gt;INTF&#45;/IWCOR/IF_DS_EDM_NAMED -->
<g id="edge5" class="edge">
<title>INTF&#45;/IWCOR/IF_DS_EDM_ENTITY_TYPE&#45;&gt;INTF&#45;/IWCOR/IF_DS_EDM_NAMED</title>
<path fill="none" stroke="black" d="M284.93,-71.97C254.2,-62.1 215.34,-49.62 183.06,-39.25"/>
<polygon fill="black" stroke="black" points="183.86,-35.84 173.26,-36.11 181.72,-42.5 183.86,-35.84"/>
</g>
<!-- INTF&#45;/IWCOR/IF_DS_EDM_ENTITY_TYPE&#45;&gt;INTF&#45;/IWCOR/IF_DS_EDM -->
<g id="edge6" class="edge">
<title>INTF&#45;/IWCOR/IF_DS_EDM_ENTITY_TYPE&#45;&gt;INTF&#45;/IWCOR/IF_DS_EDM</title>
<path fill="none" stroke="black" d="M377.82,-71.88C402.93,-62.09 435.77,-49.77 464.08,-39.47"/>
<polygon fill="black" stroke="black" points="465.28,-42.76 473.49,-36.07 462.89,-36.18 465.28,-42.76"/>
</g>
<!-- TTYP&#45;STRING_TABLE -->
<g id="node5" class="node">
<title>TTYP&#45;STRING_TABLE</title>
<g id="a_node5"><a xlink:href="./TTYP_STRING_TABLE.html" xlink:title="TTYP&#45;STRING_TABLE">
<polygon fill="none" stroke="green" points="416.28,-36 257.67,-36 257.67,0 416.28,0 416.28,-36"/>
<text text-anchor="middle" x="336.98" y="-13.8" font-family="Times,serif" font-size="14.00">TTYP&#45;STRING_TABLE</text>
</a>
</g>
</g>
<!-- INTF&#45;/IWCOR/IF_DS_EDM_ENTITY_TYPE&#45;&gt;TTYP&#45;STRING_TABLE -->
<g id="edge4" class="edge">
<title>INTF&#45;/IWCOR/IF_DS_EDM_ENTITY_TYPE&#45;&gt;TTYP&#45;STRING_TABLE</title>
<path fill="none" stroke="black" d="M337.73,-71.7C337.62,-63.98 337.49,-54.71 337.36,-46.11"/>
<polygon fill="black" stroke="black" points="340.86,-46.05 337.22,-36.1 333.86,-46.15 340.86,-46.05"/>
</g>
<!-- INTF&#45;/IWCOR/IF_DS_EDM&#45;&gt;INTF&#45;/IWCOR/IF_DS_EDM_ASSOC -->
<g id="edge8" class="edge">
<title>INTF&#45;/IWCOR/IF_DS_EDM&#45;&gt;INTF&#45;/IWCOR/IF_DS_EDM_ASSOC</title>
<path fill="none" stroke="black" d="M522.18,-36.11C518.06,-56 508.51,-88.55 487.98,-108 472.9,-122.28 453.73,-132.75 434.19,-140.4"/>
<polygon fill="black" stroke="black" points="432.75,-137.2 424.58,-143.94 435.17,-143.77 432.75,-137.2"/>
</g>
<!-- INTF&#45;/IWCOR/IF_DS_EDM&#45;&gt;INTF&#45;/IWCOR/IF_DS_EDM_ENTITY_TYPE -->
<g id="edge7" class="edge">
<title>INTF&#45;/IWCOR/IF_DS_EDM&#45;&gt;INTF&#45;/IWCOR/IF_DS_EDM_ENTITY_TYPE</title>
<path fill="none" stroke="black" d="M485.27,-36.07C460.19,-45.84 427.36,-58.17 399.04,-68.47"/>
<polygon fill="black" stroke="black" points="397.83,-65.18 389.62,-71.88 400.21,-71.76 397.83,-65.18"/>
</g>
</g>
</svg>
