<?xml version="1.0" encoding="UTF-8" standalone="no"?>
<!DOCTYPE svg PUBLIC "-//W3C//DTD SVG 1.1//EN"
 "http://www.w3.org/Graphics/SVG/1.1/DTD/svg11.dtd">
<!-- Generated by graphviz version 2.47.3 (20210619.1520)
 -->
<!-- Title: G Pages: 1 -->
<svg width="228pt" height="260pt"
 viewBox="0.00 0.00 227.74 260.00" xmlns="http://www.w3.org/2000/svg" xmlns:xlink="http://www.w3.org/1999/xlink">
<g id="graph0" class="graph" transform="scale(1 1) rotate(0) translate(4 256)">
<title>G</title>
<polygon fill="white" stroke="transparent" points="-4,4 -4,-256 223.74,-256 223.74,4 -4,4"/>
<!-- INTF&#45;IF_IXML_ISTREAM_CORE -->
<g id="node1" class="node">
<title>INTF&#45;IF_IXML_ISTREAM_CORE</title>
<polygon fill="none" stroke="green" points="219.61,-252 0.13,-252 0.13,-216 219.61,-216 219.61,-252"/>
<text text-anchor="middle" x="109.87" y="-229.8" font-family="Times,serif" font-size="14.00">INTF&#45;IF_IXML_ISTREAM_CORE</text>
</g>
<!-- INTF&#45;IF_IXML_STREAM_CORE -->
<g id="node2" class="node">
<title>INTF&#45;IF_IXML_STREAM_CORE</title>
<g id="a_node2"><a xlink:href="./INTF_IF_IXML_STREAM_CORE.html" xlink:title="INTF&#45;IF_IXML_STREAM_CORE">
<polygon fill="none" stroke="green" points="217.45,-180 2.29,-180 2.29,-144 217.45,-144 217.45,-180"/>
<text text-anchor="middle" x="109.87" y="-157.8" font-family="Times,serif" font-size="14.00">INTF&#45;IF_IXML_STREAM_CORE</text>
</a>
</g>
</g>
<!-- INTF&#45;IF_IXML_ISTREAM_CORE&#45;&gt;INTF&#45;IF_IXML_STREAM_CORE -->
<g id="edge1" class="edge">
<title>INTF&#45;IF_IXML_ISTREAM_CORE&#45;&gt;INTF&#45;IF_IXML_STREAM_CORE</title>
<path fill="none" stroke="black" d="M109.87,-215.7C109.87,-207.98 109.87,-198.71 109.87,-190.11"/>
<polygon fill="black" stroke="black" points="113.37,-190.1 109.87,-180.1 106.37,-190.1 113.37,-190.1"/>
</g>
<!-- INTF&#45;IF_IXML_ENCODING -->
<g id="node3" class="node">
<title>INTF&#45;IF_IXML_ENCODING</title>
<g id="a_node3"><a xlink:href="./INTF_IF_IXML_ENCODING.html" xlink:title="INTF&#45;IF_IXML_ENCODING">
<polygon fill="none" stroke="green" points="203.42,-108 16.32,-108 16.32,-72 203.42,-72 203.42,-108"/>
<text text-anchor="middle" x="109.87" y="-85.8" font-family="Times,serif" font-size="14.00">INTF&#45;IF_IXML_ENCODING</text>
</a>
</g>
</g>
<!-- INTF&#45;IF_IXML_STREAM_CORE&#45;&gt;INTF&#45;IF_IXML_ENCODING -->
<g id="edge2" class="edge">
<title>INTF&#45;IF_IXML_STREAM_CORE&#45;&gt;INTF&#45;IF_IXML_ENCODING</title>
<path fill="none" stroke="black" d="M109.87,-143.7C109.87,-135.98 109.87,-126.71 109.87,-118.11"/>
<polygon fill="black" stroke="black" points="113.37,-118.1 109.87,-108.1 106.37,-118.1 113.37,-118.1"/>
</g>
<!-- INTF&#45;IF_IXML_UNKNOWN -->
<g id="node4" class="node">
<title>INTF&#45;IF_IXML_UNKNOWN</title>
<g id="a_node4"><a xlink:href="./INTF_IF_IXML_UNKNOWN.html" xlink:title="INTF&#45;IF_IXML_UNKNOWN">
<polygon fill="none" stroke="green" points="203.69,-36 16.04,-36 16.04,0 203.69,0 203.69,-36"/>
<text text-anchor="middle" x="109.87" y="-13.8" font-family="Times,serif" font-size="14.00">INTF&#45;IF_IXML_UNKNOWN</text>
</a>
</g>
</g>
<!-- INTF&#45;IF_IXML_ENCODING&#45;&gt;INTF&#45;IF_IXML_UNKNOWN -->
<g id="edge3" class="edge">
<title>INTF&#45;IF_IXML_ENCODING&#45;&gt;INTF&#45;IF_IXML_UNKNOWN</title>
<path fill="none" stroke="black" d="M109.87,-71.7C109.87,-63.98 109.87,-54.71 109.87,-46.11"/>
<polygon fill="black" stroke="black" points="113.37,-46.1 109.87,-36.1 106.37,-46.1 113.37,-46.1"/>
</g>
</g>
</svg>
