<?xml version="1.0" encoding="UTF-8" standalone="no"?>
<!DOCTYPE svg PUBLIC "-//W3C//DTD SVG 1.1//EN"
 "http://www.w3.org/Graphics/SVG/1.1/DTD/svg11.dtd">
<!-- Generated by graphviz version 2.47.3 (20210619.1520)
 -->
<!-- Title: G Pages: 1 -->
<svg width="730pt" height="476pt"
 viewBox="0.00 0.00 730.37 476.00" xmlns="http://www.w3.org/2000/svg" xmlns:xlink="http://www.w3.org/1999/xlink">
<g id="graph0" class="graph" transform="scale(1 1) rotate(0) translate(4 472)">
<title>G</title>
<polygon fill="white" stroke="transparent" points="-4,4 -4,-472 726.37,-472 726.37,4 -4,4"/>
<!-- INTF&#45;IF_ABAP_BEHV -->
<g id="node1" class="node">
<title>INTF&#45;IF_ABAP_BEHV</title>
<polygon fill="none" stroke="green" points="570.74,-468 417.46,-468 417.46,-432 570.74,-432 570.74,-468"/>
<text text-anchor="middle" x="494.1" y="-445.8" font-family="Times,serif" font-size="14.00">INTF&#45;IF_ABAP_BEHV</text>
</g>
<!-- INTF&#45;IF_T100_DYN_MSG -->
<g id="node2" class="node">
<title>INTF&#45;IF_T100_DYN_MSG</title>
<g id="a_node2"><a xlink:href="./INTF_IF_T100_DYN_MSG.html" xlink:title="INTF&#45;IF_T100_DYN_MSG">
<polygon fill="none" stroke="green" points="524.01,-324 348.19,-324 348.19,-288 524.01,-288 524.01,-324"/>
<text text-anchor="middle" x="436.1" y="-301.8" font-family="Times,serif" font-size="14.00">INTF&#45;IF_T100_DYN_MSG</text>
</a>
</g>
</g>
<!-- INTF&#45;IF_ABAP_BEHV&#45;&gt;INTF&#45;IF_T100_DYN_MSG -->
<g id="edge2" class="edge">
<title>INTF&#45;IF_ABAP_BEHV&#45;&gt;INTF&#45;IF_T100_DYN_MSG</title>
<path fill="none" stroke="black" d="M471.53,-431.85C460.98,-422.5 449.38,-409.98 443.1,-396 434.43,-376.71 433.02,-352.7 433.58,-334.48"/>
<polygon fill="black" stroke="black" points="437.09,-334.41 434.13,-324.24 430.1,-334.04 437.09,-334.41"/>
</g>
<!-- INTF&#45;IF_ABAP_BEHV_MESSAGE -->
<g id="node15" class="node">
<title>INTF&#45;IF_ABAP_BEHV_MESSAGE</title>
<g id="a_node15"><a xlink:href="./INTF_IF_ABAP_BEHV_MESSAGE.html" xlink:title="INTF&#45;IF_ABAP_BEHV_MESSAGE">
<polygon fill="none" stroke="green" points="678.07,-396 452.13,-396 452.13,-360 678.07,-360 678.07,-396"/>
<text text-anchor="middle" x="565.1" y="-373.8" font-family="Times,serif" font-size="14.00">INTF&#45;IF_ABAP_BEHV_MESSAGE</text>
</a>
</g>
</g>
<!-- INTF&#45;IF_ABAP_BEHV&#45;&gt;INTF&#45;IF_ABAP_BEHV_MESSAGE -->
<g id="edge1" class="edge">
<title>INTF&#45;IF_ABAP_BEHV&#45;&gt;INTF&#45;IF_ABAP_BEHV_MESSAGE</title>
<path fill="none" stroke="black" d="M511.65,-431.7C520.33,-423.14 530.96,-412.66 540.45,-403.3"/>
<polygon fill="black" stroke="black" points="543.09,-405.62 547.75,-396.1 538.17,-400.63 543.09,-405.62"/>
</g>
<!-- INTF&#45;IF_T100_MESSAGE -->
<g id="node3" class="node">
<title>INTF&#45;IF_T100_MESSAGE</title>
<g id="a_node3"><a xlink:href="./INTF_IF_T100_MESSAGE.html" xlink:title="INTF&#45;IF_T100_MESSAGE">
<polygon fill="none" stroke="green" points="587.69,-252 414.51,-252 414.51,-216 587.69,-216 587.69,-252"/>
<text text-anchor="middle" x="501.1" y="-229.8" font-family="Times,serif" font-size="14.00">INTF&#45;IF_T100_MESSAGE</text>
</a>
</g>
</g>
<!-- INTF&#45;IF_T100_DYN_MSG&#45;&gt;INTF&#45;IF_T100_MESSAGE -->
<g id="edge6" class="edge">
<title>INTF&#45;IF_T100_DYN_MSG&#45;&gt;INTF&#45;IF_T100_MESSAGE</title>
<path fill="none" stroke="black" d="M452.17,-287.7C460.04,-279.22 469.66,-268.86 478.27,-259.58"/>
<polygon fill="black" stroke="black" points="480.98,-261.81 485.22,-252.1 475.85,-257.05 480.98,-261.81"/>
</g>
<!-- INTF&#45;IF_MESSAGE -->
<g id="node4" class="node">
<title>INTF&#45;IF_MESSAGE</title>
<g id="a_node4"><a xlink:href="./INTF_IF_MESSAGE.html" xlink:title="INTF&#45;IF_MESSAGE">
<polygon fill="none" stroke="green" points="722.14,-180 586.07,-180 586.07,-144 722.14,-144 722.14,-180"/>
<text text-anchor="middle" x="654.1" y="-157.8" font-family="Times,serif" font-size="14.00">INTF&#45;IF_MESSAGE</text>
</a>
</g>
</g>
<!-- INTF&#45;IF_T100_DYN_MSG&#45;&gt;INTF&#45;IF_MESSAGE -->
<g id="edge5" class="edge">
<title>INTF&#45;IF_T100_DYN_MSG&#45;&gt;INTF&#45;IF_MESSAGE</title>
<path fill="none" stroke="black" d="M523.74,-287.91C549.19,-279.98 575.82,-268.5 597.1,-252 618.16,-235.67 633.67,-209.22 643.15,-189.4"/>
<polygon fill="black" stroke="black" points="646.35,-190.82 647.32,-180.27 639.98,-187.91 646.35,-190.82"/>
</g>
<!-- DTEL&#45;SYMSGTY -->
<g id="node11" class="node">
<title>DTEL&#45;SYMSGTY</title>
<g id="a_node11"><a xlink:href="./DTEL_SYMSGTY.html" xlink:title="DTEL&#45;SYMSGTY">
<polygon fill="none" stroke="green" points="196.91,-252 73.29,-252 73.29,-216 196.91,-216 196.91,-252"/>
<text text-anchor="middle" x="135.1" y="-229.8" font-family="Times,serif" font-size="14.00">DTEL&#45;SYMSGTY</text>
</a>
</g>
</g>
<!-- INTF&#45;IF_T100_DYN_MSG&#45;&gt;DTEL&#45;SYMSGTY -->
<g id="edge4" class="edge">
<title>INTF&#45;IF_T100_DYN_MSG&#45;&gt;DTEL&#45;SYMSGTY</title>
<path fill="none" stroke="black" d="M362.85,-287.97C315.41,-276.93 253.93,-262.63 206.8,-251.67"/>
<polygon fill="black" stroke="black" points="207.5,-248.24 196.97,-249.39 205.92,-255.06 207.5,-248.24"/>
</g>
<!-- DTEL&#45;SYMSGV -->
<g id="node13" class="node">
<title>DTEL&#45;SYMSGV</title>
<g id="a_node13"><a xlink:href="./DTEL_SYMSGV.html" xlink:title="DTEL&#45;SYMSGV">
<polygon fill="none" stroke="green" points="336.36,-252 221.85,-252 221.85,-216 336.36,-216 336.36,-252"/>
<text text-anchor="middle" x="279.1" y="-229.8" font-family="Times,serif" font-size="14.00">DTEL&#45;SYMSGV</text>
</a>
</g>
</g>
<!-- INTF&#45;IF_T100_DYN_MSG&#45;&gt;DTEL&#45;SYMSGV -->
<g id="edge3" class="edge">
<title>INTF&#45;IF_T100_DYN_MSG&#45;&gt;DTEL&#45;SYMSGV</title>
<path fill="none" stroke="black" d="M397.69,-287.88C376.23,-278.31 349.3,-266.3 326.53,-256.15"/>
<polygon fill="black" stroke="black" points="327.94,-252.94 317.38,-252.07 325.09,-259.34 327.94,-252.94"/>
</g>
<!-- INTF&#45;IF_T100_MESSAGE&#45;&gt;INTF&#45;IF_MESSAGE -->
<g id="edge11" class="edge">
<title>INTF&#45;IF_T100_MESSAGE&#45;&gt;INTF&#45;IF_MESSAGE</title>
<path fill="none" stroke="black" d="M538.53,-215.88C559.35,-206.35 585.45,-194.41 607.58,-184.28"/>
<polygon fill="black" stroke="black" points="609.16,-187.41 616.79,-180.07 606.24,-181.05 609.16,-187.41"/>
</g>
<!-- TABL&#45;SCX_T100KEY -->
<g id="node5" class="node">
<title>TABL&#45;SCX_T100KEY</title>
<g id="a_node5"><a xlink:href="./TABL_SCX_T100KEY.html" xlink:title="TABL&#45;SCX_T100KEY">
<polygon fill="none" stroke="yellow" points="491.85,-180 342.35,-180 342.35,-144 491.85,-144 491.85,-180"/>
<text text-anchor="middle" x="417.1" y="-157.8" font-family="Times,serif" font-size="14.00">TABL&#45;SCX_T100KEY</text>
</a>
</g>
</g>
<!-- INTF&#45;IF_T100_MESSAGE&#45;&gt;TABL&#45;SCX_T100KEY -->
<g id="edge10" class="edge">
<title>INTF&#45;IF_T100_MESSAGE&#45;&gt;TABL&#45;SCX_T100KEY</title>
<path fill="none" stroke="black" d="M480.34,-215.7C469.86,-206.97 456.99,-196.24 445.6,-186.75"/>
<polygon fill="black" stroke="black" points="447.55,-183.82 437.63,-180.1 443.07,-189.19 447.55,-183.82"/>
</g>
<!-- DTEL&#45;SCX_ATTRNAME -->
<g id="node6" class="node">
<title>DTEL&#45;SCX_ATTRNAME</title>
<g id="a_node6"><a xlink:href="./DTEL_SCX_ATTRNAME.html" xlink:title="DTEL&#45;SCX_ATTRNAME">
<polygon fill="none" stroke="green" points="681.51,-108 512.69,-108 512.69,-72 681.51,-72 681.51,-108"/>
<text text-anchor="middle" x="597.1" y="-85.8" font-family="Times,serif" font-size="14.00">DTEL&#45;SCX_ATTRNAME</text>
</a>
</g>
</g>
<!-- INTF&#45;IF_T100_MESSAGE&#45;&gt;DTEL&#45;SCX_ATTRNAME -->
<g id="edge9" class="edge">
<title>INTF&#45;IF_T100_MESSAGE&#45;&gt;DTEL&#45;SCX_ATTRNAME</title>
<path fill="none" stroke="black" d="M512.68,-215.87C529.4,-191.14 560.43,-145.24 579.85,-116.51"/>
<polygon fill="black" stroke="black" points="582.78,-118.43 585.48,-108.19 576.98,-114.51 582.78,-118.43"/>
</g>
<!-- DTEL&#45;SYMSGNO -->
<g id="node7" class="node">
<title>DTEL&#45;SYMSGNO</title>
<g id="a_node7"><a xlink:href="./DTEL_SYMSGNO.html" xlink:title="DTEL&#45;SYMSGNO">
<polygon fill="none" stroke="green" points="357.46,-108 232.74,-108 232.74,-72 357.46,-72 357.46,-108"/>
<text text-anchor="middle" x="295.1" y="-85.8" font-family="Times,serif" font-size="14.00">DTEL&#45;SYMSGNO</text>
</a>
</g>
</g>
<!-- INTF&#45;IF_T100_MESSAGE&#45;&gt;DTEL&#45;SYMSGNO -->
<g id="edge8" class="edge">
<title>INTF&#45;IF_T100_MESSAGE&#45;&gt;DTEL&#45;SYMSGNO</title>
<path fill="none" stroke="black" d="M414.35,-220.59C385.74,-212.87 355.53,-200.34 333.1,-180 315.27,-163.83 305.49,-137.89 300.34,-118.18"/>
<polygon fill="black" stroke="black" points="303.7,-117.17 298,-108.24 296.89,-118.78 303.7,-117.17"/>
</g>
<!-- DTEL&#45;SYMSGID -->
<g id="node9" class="node">
<title>DTEL&#45;SYMSGID</title>
<g id="a_node9"><a xlink:href="./DTEL_SYMSGID.html" xlink:title="DTEL&#45;SYMSGID">
<polygon fill="none" stroke="green" points="495.02,-108 375.18,-108 375.18,-72 495.02,-72 495.02,-108"/>
<text text-anchor="middle" x="435.1" y="-85.8" font-family="Times,serif" font-size="14.00">DTEL&#45;SYMSGID</text>
</a>
</g>
</g>
<!-- INTF&#45;IF_T100_MESSAGE&#45;&gt;DTEL&#45;SYMSGID -->
<g id="edge7" class="edge">
<title>INTF&#45;IF_T100_MESSAGE&#45;&gt;DTEL&#45;SYMSGID</title>
<path fill="none" stroke="black" d="M505.28,-215.97C508.94,-197.32 512.12,-166.99 501.1,-144 495.44,-132.18 485.71,-122.17 475.44,-114.14"/>
<polygon fill="black" stroke="black" points="477.3,-111.16 467.15,-108.12 473.19,-116.83 477.3,-111.16"/>
</g>
<!-- TABL&#45;SCX_T100KEY&#45;&gt;DTEL&#45;SCX_ATTRNAME -->
<g id="edge14" class="edge">
<title>TABL&#45;SCX_T100KEY&#45;&gt;DTEL&#45;SCX_ATTRNAME</title>
<path fill="none" stroke="black" d="M461.13,-143.88C486.07,-134.18 517.44,-121.98 543.76,-111.74"/>
<polygon fill="black" stroke="black" points="545.16,-114.95 553.21,-108.07 542.62,-108.43 545.16,-114.95"/>
</g>
<!-- TABL&#45;SCX_T100KEY&#45;&gt;DTEL&#45;SYMSGNO -->
<g id="edge13" class="edge">
<title>TABL&#45;SCX_T100KEY&#45;&gt;DTEL&#45;SYMSGNO</title>
<path fill="none" stroke="black" d="M387.26,-143.88C371.16,-134.64 351.1,-123.13 333.81,-113.21"/>
<polygon fill="black" stroke="black" points="335.48,-110.13 325.06,-108.19 331.99,-116.2 335.48,-110.13"/>
</g>
<!-- TABL&#45;SCX_T100KEY&#45;&gt;DTEL&#45;SYMSGID -->
<g id="edge12" class="edge">
<title>TABL&#45;SCX_T100KEY&#45;&gt;DTEL&#45;SYMSGID</title>
<path fill="none" stroke="black" d="M421.55,-143.7C423.56,-135.9 425.97,-126.51 428.2,-117.83"/>
<polygon fill="black" stroke="black" points="431.6,-118.66 430.7,-108.1 424.82,-116.92 431.6,-118.66"/>
</g>
<!-- DOMA&#45;SYMSGNO -->
<g id="node8" class="node">
<title>DOMA&#45;SYMSGNO</title>
<g id="a_node8"><a xlink:href="./DOMA_SYMSGNO.html" xlink:title="DOMA&#45;SYMSGNO">
<polygon fill="none" stroke="yellow" points="360.96,-36 229.24,-36 229.24,0 360.96,0 360.96,-36"/>
<text text-anchor="middle" x="295.1" y="-13.8" font-family="Times,serif" font-size="14.00">DOMA&#45;SYMSGNO</text>
</a>
</g>
</g>
<!-- DTEL&#45;SYMSGNO&#45;&gt;DOMA&#45;SYMSGNO -->
<g id="edge15" class="edge">
<title>DTEL&#45;SYMSGNO&#45;&gt;DOMA&#45;SYMSGNO</title>
<path fill="none" stroke="black" d="M295.1,-71.7C295.1,-63.98 295.1,-54.71 295.1,-46.11"/>
<polygon fill="black" stroke="black" points="298.6,-46.1 295.1,-36.1 291.6,-46.1 298.6,-46.1"/>
</g>
<!-- DOMA&#45;ARBGB -->
<g id="node10" class="node">
<title>DOMA&#45;ARBGB</title>
<g id="a_node10"><a xlink:href="./DOMA_ARBGB.html" xlink:title="DOMA&#45;ARBGB">
<polygon fill="none" stroke="yellow" points="490.75,-36 379.45,-36 379.45,0 490.75,0 490.75,-36"/>
<text text-anchor="middle" x="435.1" y="-13.8" font-family="Times,serif" font-size="14.00">DOMA&#45;ARBGB</text>
</a>
</g>
</g>
<!-- DTEL&#45;SYMSGID&#45;&gt;DOMA&#45;ARBGB -->
<g id="edge16" class="edge">
<title>DTEL&#45;SYMSGID&#45;&gt;DOMA&#45;ARBGB</title>
<path fill="none" stroke="black" d="M435.1,-71.7C435.1,-63.98 435.1,-54.71 435.1,-46.11"/>
<polygon fill="black" stroke="black" points="438.6,-46.1 435.1,-36.1 431.6,-46.1 438.6,-46.1"/>
</g>
<!-- DOMA&#45;SYCHAR01 -->
<g id="node12" class="node">
<title>DOMA&#45;SYCHAR01</title>
<g id="a_node12"><a xlink:href="./DOMA_SYCHAR01.html" xlink:title="DOMA&#45;SYCHAR01">
<polygon fill="none" stroke="yellow" points="134.3,-180 -0.1,-180 -0.1,-144 134.3,-144 134.3,-180"/>
<text text-anchor="middle" x="67.1" y="-157.8" font-family="Times,serif" font-size="14.00">DOMA&#45;SYCHAR01</text>
</a>
</g>
</g>
<!-- DTEL&#45;SYMSGTY&#45;&gt;DOMA&#45;SYCHAR01 -->
<g id="edge17" class="edge">
<title>DTEL&#45;SYMSGTY&#45;&gt;DOMA&#45;SYCHAR01</title>
<path fill="none" stroke="black" d="M118.29,-215.7C109.97,-207.14 99.79,-196.66 90.71,-187.3"/>
<polygon fill="black" stroke="black" points="93.19,-184.84 83.72,-180.1 88.17,-189.72 93.19,-184.84"/>
</g>
<!-- DOMA&#45;SYCHAR50 -->
<g id="node14" class="node">
<title>DOMA&#45;SYCHAR50</title>
<g id="a_node14"><a xlink:href="./DOMA_SYCHAR50.html" xlink:title="DOMA&#45;SYCHAR50">
<polygon fill="none" stroke="yellow" points="286.3,-180 151.9,-180 151.9,-144 286.3,-144 286.3,-180"/>
<text text-anchor="middle" x="219.1" y="-157.8" font-family="Times,serif" font-size="14.00">DOMA&#45;SYCHAR50</text>
</a>
</g>
</g>
<!-- DTEL&#45;SYMSGV&#45;&gt;DOMA&#45;SYCHAR50 -->
<g id="edge18" class="edge">
<title>DTEL&#45;SYMSGV&#45;&gt;DOMA&#45;SYCHAR50</title>
<path fill="none" stroke="black" d="M264.27,-215.7C257.08,-207.3 248.3,-197.07 240.41,-187.86"/>
<polygon fill="black" stroke="black" points="242.93,-185.42 233.76,-180.1 237.61,-189.97 242.93,-185.42"/>
</g>
<!-- INTF&#45;IF_ABAP_BEHV_MESSAGE&#45;&gt;INTF&#45;IF_T100_DYN_MSG -->
<g id="edge20" class="edge">
<title>INTF&#45;IF_ABAP_BEHV_MESSAGE&#45;&gt;INTF&#45;IF_T100_DYN_MSG</title>
<path fill="none" stroke="black" d="M533.54,-359.88C516.44,-350.6 495.12,-339.03 476.78,-329.08"/>
<polygon fill="black" stroke="black" points="478.24,-325.88 467.78,-324.19 474.9,-332.04 478.24,-325.88"/>
</g>
<!-- INTF&#45;IF_ABAP_BEHV_MESSAGE&#45;&gt;INTF&#45;IF_T100_MESSAGE -->
<g id="edge21" class="edge">
<title>INTF&#45;IF_ABAP_BEHV_MESSAGE&#45;&gt;INTF&#45;IF_T100_MESSAGE</title>
<path fill="none" stroke="black" d="M560.05,-359.87C554.43,-341.64 544.6,-312.17 533.1,-288 528.76,-278.88 523.29,-269.31 518.11,-260.85"/>
<polygon fill="black" stroke="black" points="520.95,-258.79 512.67,-252.18 515.02,-262.51 520.95,-258.79"/>
</g>
<!-- INTF&#45;IF_ABAP_BEHV_MESSAGE&#45;&gt;INTF&#45;IF_MESSAGE -->
<g id="edge19" class="edge">
<title>INTF&#45;IF_ABAP_BEHV_MESSAGE&#45;&gt;INTF&#45;IF_MESSAGE</title>
<path fill="none" stroke="black" d="M574.42,-359.98C587.17,-336.26 610.27,-291.7 626.1,-252 634.22,-231.62 641.59,-207.9 646.72,-190.07"/>
<polygon fill="black" stroke="black" points="650.13,-190.9 649.48,-180.33 643.39,-189 650.13,-190.9"/>
</g>
</g>
</svg>
