<?xml version="1.0" encoding="UTF-8" standalone="no"?>
<!DOCTYPE svg PUBLIC "-//W3C//DTD SVG 1.1//EN"
 "http://www.w3.org/Graphics/SVG/1.1/DTD/svg11.dtd">
<!-- Generated by graphviz version 2.47.3 (20210619.1520)
 -->
<!-- Title: G Pages: 1 -->
<svg width="653pt" height="188pt"
 viewBox="0.00 0.00 652.64 188.00" xmlns="http://www.w3.org/2000/svg" xmlns:xlink="http://www.w3.org/1999/xlink">
<g id="graph0" class="graph" transform="scale(1 1) rotate(0) translate(4 184)">
<title>G</title>
<polygon fill="white" stroke="transparent" points="-4,4 -4,-184 648.64,-184 648.64,4 -4,4"/>
<!-- INTF&#45;IF_XCO_GEN_DDLS_S_FO_J_LEFT_O -->
<g id="node1" class="node">
<title>INTF&#45;IF_XCO_GEN_DDLS_S_FO_J_LEFT_O</title>
<polygon fill="none" stroke="yellow" points="464.88,-180 175.41,-180 175.41,-144 464.88,-144 464.88,-180"/>
<text text-anchor="middle" x="320.15" y="-157.8" font-family="Times,serif" font-size="14.00">INTF&#45;IF_XCO_GEN_DDLS_S_FO_J_LEFT_O</text>
</g>
<!-- CLAS&#45;CL_XCO_CDS_LEFT_OUTER_JOIN_CAR -->
<g id="node2" class="node">
<title>CLAS&#45;CL_XCO_CDS_LEFT_OUTER_JOIN_CAR</title>
<g id="a_node2"><a xlink:href="./CLAS_CL_XCO_CDS_LEFT_OUTER_JOIN_CAR.html" xlink:title="CLAS&#45;CL_XCO_CDS_LEFT_OUTER_JOIN_CAR">
<polygon fill="none" stroke="green" points="312.45,-108 -0.15,-108 -0.15,-72 312.45,-72 312.45,-108"/>
<text text-anchor="middle" x="156.15" y="-85.8" font-family="Times,serif" font-size="14.00">CLAS&#45;CL_XCO_CDS_LEFT_OUTER_JOIN_CAR</text>
</a>
</g>
</g>
<!-- INTF&#45;IF_XCO_GEN_DDLS_S_FO_J_LEFT_O&#45;&gt;CLAS&#45;CL_XCO_CDS_LEFT_OUTER_JOIN_CAR -->
<g id="edge2" class="edge">
<title>INTF&#45;IF_XCO_GEN_DDLS_S_FO_J_LEFT_O&#45;&gt;CLAS&#45;CL_XCO_CDS_LEFT_OUTER_JOIN_CAR</title>
<path fill="none" stroke="black" d="M280.03,-143.88C257.51,-134.26 229.23,-122.19 205.38,-112.01"/>
<polygon fill="black" stroke="black" points="206.71,-108.77 196.14,-108.07 203.96,-115.21 206.71,-108.77"/>
</g>
<!-- INTF&#45;IF_XCO_GEN_DDLS_DDL_EXPRESSION -->
<g id="node4" class="node">
<title>INTF&#45;IF_XCO_GEN_DDLS_DDL_EXPRESSION</title>
<g id="a_node4"><a xlink:href="./INTF_IF_XCO_GEN_DDLS_DDL_EXPRESSION.html" xlink:title="INTF&#45;IF_XCO_GEN_DDLS_DDL_EXPRESSION">
<polygon fill="none" stroke="green" points="638.75,-108 331.54,-108 331.54,-72 638.75,-72 638.75,-108"/>
<text text-anchor="middle" x="485.15" y="-85.8" font-family="Times,serif" font-size="14.00">INTF&#45;IF_XCO_GEN_DDLS_DDL_EXPRESSION</text>
</a>
</g>
</g>
<!-- INTF&#45;IF_XCO_GEN_DDLS_S_FO_J_LEFT_O&#45;&gt;INTF&#45;IF_XCO_GEN_DDLS_DDL_EXPRESSION -->
<g id="edge1" class="edge">
<title>INTF&#45;IF_XCO_GEN_DDLS_S_FO_J_LEFT_O&#45;&gt;INTF&#45;IF_XCO_GEN_DDLS_DDL_EXPRESSION</title>
<path fill="none" stroke="black" d="M360.51,-143.88C383.17,-134.26 411.62,-122.19 435.62,-112.01"/>
<polygon fill="black" stroke="black" points="437.08,-115.2 444.92,-108.07 434.34,-108.75 437.08,-115.2"/>
</g>
<!-- CLAS&#45;CL_XCO_CDS_LEFT_OUTER_JOIN_C_F -->
<g id="node3" class="node">
<title>CLAS&#45;CL_XCO_CDS_LEFT_OUTER_JOIN_C_F</title>
<g id="a_node3"><a xlink:href="./CLAS_CL_XCO_CDS_LEFT_OUTER_JOIN_C_F.html" xlink:title="CLAS&#45;CL_XCO_CDS_LEFT_OUTER_JOIN_C_F">
<polygon fill="none" stroke="green" points="309.79,-36 2.51,-36 2.51,0 309.79,0 309.79,-36"/>
<text text-anchor="middle" x="156.15" y="-13.8" font-family="Times,serif" font-size="14.00">CLAS&#45;CL_XCO_CDS_LEFT_OUTER_JOIN_C_F</text>
</a>
</g>
</g>
<!-- CLAS&#45;CL_XCO_CDS_LEFT_OUTER_JOIN_CAR&#45;&gt;CLAS&#45;CL_XCO_CDS_LEFT_OUTER_JOIN_C_F -->
<g id="edge3" class="edge">
<title>CLAS&#45;CL_XCO_CDS_LEFT_OUTER_JOIN_CAR&#45;&gt;CLAS&#45;CL_XCO_CDS_LEFT_OUTER_JOIN_C_F</title>
<path fill="none" stroke="black" d="M150.23,-71.7C149.44,-63.98 149.21,-54.71 149.55,-46.11"/>
<polygon fill="black" stroke="black" points="153.05,-46.32 150.25,-36.1 146.06,-45.84 153.05,-46.32"/>
</g>
<!-- CLAS&#45;CL_XCO_CDS_LEFT_OUTER_JOIN_C_F&#45;&gt;CLAS&#45;CL_XCO_CDS_LEFT_OUTER_JOIN_CAR -->
<g id="edge4" class="edge">
<title>CLAS&#45;CL_XCO_CDS_LEFT_OUTER_JOIN_C_F&#45;&gt;CLAS&#45;CL_XCO_CDS_LEFT_OUTER_JOIN_CAR</title>
<path fill="none" stroke="black" d="M162.04,-36.1C162.85,-43.79 163.09,-53.05 162.75,-61.67"/>
<polygon fill="black" stroke="black" points="159.26,-61.48 162.06,-71.7 166.24,-61.96 159.26,-61.48"/>
</g>
<!-- CLAS&#45;CL_XCO_GEN_DDLS_BP_DDL_EXPRESS -->
<g id="node5" class="node">
<title>CLAS&#45;CL_XCO_GEN_DDLS_BP_DDL_EXPRESS</title>
<g id="a_node5"><a xlink:href="./CLAS_CL_XCO_GEN_DDLS_BP_DDL_EXPRESS.html" xlink:title="CLAS&#45;CL_XCO_GEN_DDLS_BP_DDL_EXPRESS">
<polygon fill="none" stroke="green" points="644.62,-36 327.68,-36 327.68,0 644.62,0 644.62,-36"/>
<text text-anchor="middle" x="486.15" y="-13.8" font-family="Times,serif" font-size="14.00">CLAS&#45;CL_XCO_GEN_DDLS_BP_DDL_EXPRESS</text>
</a>
</g>
</g>
<!-- INTF&#45;IF_XCO_GEN_DDLS_DDL_EXPRESSION&#45;&gt;CLAS&#45;CL_XCO_GEN_DDLS_BP_DDL_EXPRESS -->
<g id="edge5" class="edge">
<title>INTF&#45;IF_XCO_GEN_DDLS_DDL_EXPRESSION&#45;&gt;CLAS&#45;CL_XCO_GEN_DDLS_BP_DDL_EXPRESS</title>
<path fill="none" stroke="black" d="M485.4,-71.7C485.51,-63.98 485.64,-54.71 485.76,-46.11"/>
<polygon fill="black" stroke="black" points="489.26,-46.15 485.9,-36.1 482.26,-46.05 489.26,-46.15"/>
</g>
</g>
</svg>
