<?xml version="1.0" encoding="UTF-8" standalone="no"?>
<!DOCTYPE svg PUBLIC "-//W3C//DTD SVG 1.1//EN"
 "http://www.w3.org/Graphics/SVG/1.1/DTD/svg11.dtd">
<!-- Generated by graphviz version 2.47.3 (20210619.1520)
 -->
<!-- Title: G Pages: 1 -->
<svg width="891pt" height="404pt"
 viewBox="0.00 0.00 891.40 404.00" xmlns="http://www.w3.org/2000/svg" xmlns:xlink="http://www.w3.org/1999/xlink">
<g id="graph0" class="graph" transform="scale(1 1) rotate(0) translate(4 400)">
<title>G</title>
<polygon fill="white" stroke="transparent" points="-4,4 -4,-400 887.4,-400 887.4,4 -4,4"/>
<!-- INTF&#45;IF_XCO_GEN_BDEF_S_FO_B_VALIDTN -->
<g id="node1" class="node">
<title>INTF&#45;IF_XCO_GEN_BDEF_S_FO_B_VALIDTN</title>
<polygon fill="none" stroke="green" points="738.26,-396 434.25,-396 434.25,-360 738.26,-360 738.26,-396"/>
<text text-anchor="middle" x="586.26" y="-373.8" font-family="Times,serif" font-size="14.00">INTF&#45;IF_XCO_GEN_BDEF_S_FO_B_VALIDTN</text>
</g>
<!-- INTF&#45;IF_XCO_GEN_BDEF_S_FO_B_EVAL -->
<g id="node2" class="node">
<title>INTF&#45;IF_XCO_GEN_BDEF_S_FO_B_EVAL</title>
<g id="a_node2"><a xlink:href="./INTF_IF_XCO_GEN_BDEF_S_FO_B_EVAL.html" xlink:title="INTF&#45;IF_XCO_GEN_BDEF_S_FO_B_EVAL">
<polygon fill="none" stroke="yellow" points="866.88,-324 587.63,-324 587.63,-288 866.88,-288 866.88,-324"/>
<text text-anchor="middle" x="727.26" y="-301.8" font-family="Times,serif" font-size="14.00">INTF&#45;IF_XCO_GEN_BDEF_S_FO_B_EVAL</text>
</a>
</g>
</g>
<!-- INTF&#45;IF_XCO_GEN_BDEF_S_FO_B_VALIDTN&#45;&gt;INTF&#45;IF_XCO_GEN_BDEF_S_FO_B_EVAL -->
<g id="edge4" class="edge">
<title>INTF&#45;IF_XCO_GEN_BDEF_S_FO_B_VALIDTN&#45;&gt;INTF&#45;IF_XCO_GEN_BDEF_S_FO_B_EVAL</title>
<path fill="none" stroke="black" d="M620.75,-359.88C639.7,-350.47 663.39,-338.71 683.61,-328.67"/>
<polygon fill="black" stroke="black" points="685.23,-331.77 692.63,-324.19 682.12,-325.5 685.23,-331.77"/>
</g>
<!-- CLAS&#45;CL_XCO_BDEF_EVALUATION_TIME -->
<g id="node5" class="node">
<title>CLAS&#45;CL_XCO_BDEF_EVALUATION_TIME</title>
<g id="a_node5"><a xlink:href="./CLAS_CL_XCO_BDEF_EVALUATION_TIME.html" xlink:title="CLAS&#45;CL_XCO_BDEF_EVALUATION_TIME">
<polygon fill="none" stroke="green" points="305.58,-324 12.93,-324 12.93,-288 305.58,-288 305.58,-324"/>
<text text-anchor="middle" x="159.26" y="-301.8" font-family="Times,serif" font-size="14.00">CLAS&#45;CL_XCO_BDEF_EVALUATION_TIME</text>
</a>
</g>
</g>
<!-- INTF&#45;IF_XCO_GEN_BDEF_S_FO_B_VALIDTN&#45;&gt;CLAS&#45;CL_XCO_BDEF_EVALUATION_TIME -->
<g id="edge3" class="edge">
<title>INTF&#45;IF_XCO_GEN_BDEF_S_FO_B_VALIDTN&#45;&gt;CLAS&#45;CL_XCO_BDEF_EVALUATION_TIME</title>
<path fill="none" stroke="black" d="M482.35,-359.97C419.07,-349.59 338.16,-336.33 273.14,-325.67"/>
<polygon fill="black" stroke="black" points="273.7,-322.21 263.26,-324.05 272.56,-329.12 273.7,-322.21"/>
</g>
<!-- TTYP&#45;SXCO_T_BDEF_TRIGGER_OPERATIONS -->
<g id="node10" class="node">
<title>TTYP&#45;SXCO_T_BDEF_TRIGGER_OPERATIONS</title>
<g id="a_node10"><a xlink:href="./TTYP_SXCO_T_BDEF_TRIGGER_OPERATIONS.html" xlink:title="TTYP&#45;SXCO_T_BDEF_TRIGGER_OPERATIONS">
<polygon fill="none" stroke="green" points="847.82,-108 534.69,-108 534.69,-72 847.82,-72 847.82,-108"/>
<text text-anchor="middle" x="691.26" y="-85.8" font-family="Times,serif" font-size="14.00">TTYP&#45;SXCO_T_BDEF_TRIGGER_OPERATIONS</text>
</a>
</g>
</g>
<!-- INTF&#45;IF_XCO_GEN_BDEF_S_FO_B_VALIDTN&#45;&gt;TTYP&#45;SXCO_T_BDEF_TRIGGER_OPERATIONS -->
<g id="edge2" class="edge">
<title>INTF&#45;IF_XCO_GEN_BDEF_S_FO_B_VALIDTN&#45;&gt;TTYP&#45;SXCO_T_BDEF_TRIGGER_OPERATIONS</title>
<path fill="none" stroke="black" d="M738.5,-366.75C798.54,-359.25 857.66,-346.31 876.26,-324 886.21,-312.06 885.97,-240.46 872.26,-216 844.42,-166.35 787.63,-132.14 745.05,-112.22"/>
<polygon fill="black" stroke="black" points="746.47,-109.02 735.92,-108.07 743.57,-115.39 746.47,-109.02"/>
</g>
<!-- TTYP&#45;SXCO_T_CDS_FIELD_NAMES -->
<g id="node11" class="node">
<title>TTYP&#45;SXCO_T_CDS_FIELD_NAMES</title>
<g id="a_node11"><a xlink:href="./TTYP_SXCO_T_CDS_FIELD_NAMES.html" xlink:title="TTYP&#45;SXCO_T_CDS_FIELD_NAMES">
<polygon fill="none" stroke="green" points="569.17,-324 323.34,-324 323.34,-288 569.17,-288 569.17,-324"/>
<text text-anchor="middle" x="446.26" y="-301.8" font-family="Times,serif" font-size="14.00">TTYP&#45;SXCO_T_CDS_FIELD_NAMES</text>
</a>
</g>
</g>
<!-- INTF&#45;IF_XCO_GEN_BDEF_S_FO_B_VALIDTN&#45;&gt;TTYP&#45;SXCO_T_CDS_FIELD_NAMES -->
<g id="edge1" class="edge">
<title>INTF&#45;IF_XCO_GEN_BDEF_S_FO_B_VALIDTN&#45;&gt;TTYP&#45;SXCO_T_CDS_FIELD_NAMES</title>
<path fill="none" stroke="black" d="M552.01,-359.88C533.19,-350.47 509.67,-338.71 489.59,-328.67"/>
<polygon fill="black" stroke="black" points="491.15,-325.53 480.64,-324.19 488.01,-331.79 491.15,-325.53"/>
</g>
<!-- DTEL&#45;SXCO_BDEF_EVALUATION_NAME -->
<g id="node3" class="node">
<title>DTEL&#45;SXCO_BDEF_EVALUATION_NAME</title>
<g id="a_node3"><a xlink:href="./DTEL_SXCO_BDEF_EVALUATION_NAME.html" xlink:title="DTEL&#45;SXCO_BDEF_EVALUATION_NAME">
<polygon fill="none" stroke="green" points="863.46,-252 581.05,-252 581.05,-216 863.46,-216 863.46,-252"/>
<text text-anchor="middle" x="722.26" y="-229.8" font-family="Times,serif" font-size="14.00">DTEL&#45;SXCO_BDEF_EVALUATION_NAME</text>
</a>
</g>
</g>
<!-- INTF&#45;IF_XCO_GEN_BDEF_S_FO_B_EVAL&#45;&gt;DTEL&#45;SXCO_BDEF_EVALUATION_NAME -->
<g id="edge5" class="edge">
<title>INTF&#45;IF_XCO_GEN_BDEF_S_FO_B_EVAL&#45;&gt;DTEL&#45;SXCO_BDEF_EVALUATION_NAME</title>
<path fill="none" stroke="black" d="M726.02,-287.7C725.47,-279.98 724.81,-270.71 724.19,-262.11"/>
<polygon fill="black" stroke="black" points="727.68,-261.83 723.48,-252.1 720.7,-262.33 727.68,-261.83"/>
</g>
<!-- DOMA&#45;CHAR30 -->
<g id="node4" class="node">
<title>DOMA&#45;CHAR30</title>
<g id="a_node4"><a xlink:href="./DOMA_CHAR30.html" xlink:title="DOMA&#45;CHAR30">
<polygon fill="none" stroke="green" points="644.57,-180 527.94,-180 527.94,-144 644.57,-144 644.57,-180"/>
<text text-anchor="middle" x="586.26" y="-157.8" font-family="Times,serif" font-size="14.00">DOMA&#45;CHAR30</text>
</a>
</g>
</g>
<!-- DTEL&#45;SXCO_BDEF_EVALUATION_NAME&#45;&gt;DOMA&#45;CHAR30 -->
<g id="edge6" class="edge">
<title>DTEL&#45;SXCO_BDEF_EVALUATION_NAME&#45;&gt;DOMA&#45;CHAR30</title>
<path fill="none" stroke="black" d="M688.99,-215.88C670.79,-206.51 648.07,-194.81 628.62,-184.8"/>
<polygon fill="black" stroke="black" points="630.15,-181.65 619.65,-180.19 626.94,-187.88 630.15,-181.65"/>
</g>
<!-- CLAS&#45;CL_XCO_BDEF_EVALUATION_TIME_F -->
<g id="node6" class="node">
<title>CLAS&#45;CL_XCO_BDEF_EVALUATION_TIME_F</title>
<g id="a_node6"><a xlink:href="./CLAS_CL_XCO_BDEF_EVALUATION_TIME_F.html" xlink:title="CLAS&#45;CL_XCO_BDEF_EVALUATION_TIME_F">
<polygon fill="none" stroke="green" points="312.86,-252 5.65,-252 5.65,-216 312.86,-216 312.86,-252"/>
<text text-anchor="middle" x="159.26" y="-229.8" font-family="Times,serif" font-size="14.00">CLAS&#45;CL_XCO_BDEF_EVALUATION_TIME_F</text>
</a>
</g>
</g>
<!-- CLAS&#45;CL_XCO_BDEF_EVALUATION_TIME&#45;&gt;CLAS&#45;CL_XCO_BDEF_EVALUATION_TIME_F -->
<g id="edge7" class="edge">
<title>CLAS&#45;CL_XCO_BDEF_EVALUATION_TIME&#45;&gt;CLAS&#45;CL_XCO_BDEF_EVALUATION_TIME_F</title>
<path fill="none" stroke="black" d="M153.34,-287.7C152.54,-279.98 152.32,-270.71 152.66,-262.11"/>
<polygon fill="black" stroke="black" points="156.15,-262.32 153.36,-252.1 149.17,-261.84 156.15,-262.32"/>
</g>
<!-- CLAS&#45;CL_XCO_BDEF_EVALUATION_TIME_F&#45;&gt;CLAS&#45;CL_XCO_BDEF_EVALUATION_TIME -->
<g id="edge9" class="edge">
<title>CLAS&#45;CL_XCO_BDEF_EVALUATION_TIME_F&#45;&gt;CLAS&#45;CL_XCO_BDEF_EVALUATION_TIME</title>
<path fill="none" stroke="black" d="M165.15,-252.1C165.96,-259.79 166.19,-269.05 165.86,-277.67"/>
<polygon fill="black" stroke="black" points="162.36,-277.48 165.17,-287.7 169.35,-277.96 162.36,-277.48"/>
</g>
<!-- CLAS&#45;CL_XCO_BDEF_EVALUATION_F -->
<g id="node7" class="node">
<title>CLAS&#45;CL_XCO_BDEF_EVALUATION_F</title>
<g id="a_node7"><a xlink:href="./CLAS_CL_XCO_BDEF_EVALUATION_F.html" xlink:title="CLAS&#45;CL_XCO_BDEF_EVALUATION_F">
<polygon fill="none" stroke="green" points="292.65,-180 25.86,-180 25.86,-144 292.65,-144 292.65,-180"/>
<text text-anchor="middle" x="159.26" y="-157.8" font-family="Times,serif" font-size="14.00">CLAS&#45;CL_XCO_BDEF_EVALUATION_F</text>
</a>
</g>
</g>
<!-- CLAS&#45;CL_XCO_BDEF_EVALUATION_TIME_F&#45;&gt;CLAS&#45;CL_XCO_BDEF_EVALUATION_F -->
<g id="edge8" class="edge">
<title>CLAS&#45;CL_XCO_BDEF_EVALUATION_TIME_F&#45;&gt;CLAS&#45;CL_XCO_BDEF_EVALUATION_F</title>
<path fill="none" stroke="black" d="M153.34,-215.7C152.54,-207.98 152.32,-198.71 152.66,-190.11"/>
<polygon fill="black" stroke="black" points="156.15,-190.32 153.36,-180.1 149.17,-189.84 156.15,-190.32"/>
</g>
<!-- CLAS&#45;CL_XCO_BDEF_EVALUATION_F&#45;&gt;CLAS&#45;CL_XCO_BDEF_EVALUATION_TIME_F -->
<g id="edge10" class="edge">
<title>CLAS&#45;CL_XCO_BDEF_EVALUATION_F&#45;&gt;CLAS&#45;CL_XCO_BDEF_EVALUATION_TIME_F</title>
<path fill="none" stroke="black" d="M165.15,-180.1C165.96,-187.79 166.19,-197.05 165.86,-205.67"/>
<polygon fill="black" stroke="black" points="162.36,-205.48 165.17,-215.7 169.35,-205.96 162.36,-205.48"/>
</g>
<!-- CLAS&#45;CL_XCO_BDEF_EVAL_TRIGGER_OP_F -->
<g id="node8" class="node">
<title>CLAS&#45;CL_XCO_BDEF_EVAL_TRIGGER_OP_F</title>
<g id="a_node8"><a xlink:href="./CLAS_CL_XCO_BDEF_EVAL_TRIGGER_OP_F.html" xlink:title="CLAS&#45;CL_XCO_BDEF_EVAL_TRIGGER_OP_F">
<polygon fill="none" stroke="green" points="312.05,-108 6.46,-108 6.46,-72 312.05,-72 312.05,-108"/>
<text text-anchor="middle" x="159.26" y="-85.8" font-family="Times,serif" font-size="14.00">CLAS&#45;CL_XCO_BDEF_EVAL_TRIGGER_OP_F</text>
</a>
</g>
</g>
<!-- CLAS&#45;CL_XCO_BDEF_EVALUATION_F&#45;&gt;CLAS&#45;CL_XCO_BDEF_EVAL_TRIGGER_OP_F -->
<g id="edge11" class="edge">
<title>CLAS&#45;CL_XCO_BDEF_EVALUATION_F&#45;&gt;CLAS&#45;CL_XCO_BDEF_EVAL_TRIGGER_OP_F</title>
<path fill="none" stroke="black" d="M153.34,-143.7C152.54,-135.98 152.32,-126.71 152.66,-118.11"/>
<polygon fill="black" stroke="black" points="156.15,-118.32 153.36,-108.1 149.17,-117.84 156.15,-118.32"/>
</g>
<!-- CLAS&#45;CL_XCO_BDEF_EVAL_TRIGGER_OP_F&#45;&gt;CLAS&#45;CL_XCO_BDEF_EVALUATION_F -->
<g id="edge12" class="edge">
<title>CLAS&#45;CL_XCO_BDEF_EVAL_TRIGGER_OP_F&#45;&gt;CLAS&#45;CL_XCO_BDEF_EVALUATION_F</title>
<path fill="none" stroke="black" d="M165.15,-108.1C165.96,-115.79 166.19,-125.05 165.86,-133.67"/>
<polygon fill="black" stroke="black" points="162.36,-133.48 165.17,-143.7 169.35,-133.96 162.36,-133.48"/>
</g>
<!-- CLAS&#45;CL_XCO_BDEF_EVAL_TRIGGER_OPRTN -->
<g id="node9" class="node">
<title>CLAS&#45;CL_XCO_BDEF_EVAL_TRIGGER_OPRTN</title>
<g id="a_node9"><a xlink:href="./CLAS_CL_XCO_BDEF_EVAL_TRIGGER_OPRTN.html" xlink:title="CLAS&#45;CL_XCO_BDEF_EVAL_TRIGGER_OPRTN">
<polygon fill="none" stroke="green" points="318.27,-36 0.24,-36 0.24,0 318.27,0 318.27,-36"/>
<text text-anchor="middle" x="159.26" y="-13.8" font-family="Times,serif" font-size="14.00">CLAS&#45;CL_XCO_BDEF_EVAL_TRIGGER_OPRTN</text>
</a>
</g>
</g>
<!-- CLAS&#45;CL_XCO_BDEF_EVAL_TRIGGER_OP_F&#45;&gt;CLAS&#45;CL_XCO_BDEF_EVAL_TRIGGER_OPRTN -->
<g id="edge13" class="edge">
<title>CLAS&#45;CL_XCO_BDEF_EVAL_TRIGGER_OP_F&#45;&gt;CLAS&#45;CL_XCO_BDEF_EVAL_TRIGGER_OPRTN</title>
<path fill="none" stroke="black" d="M153.34,-71.7C152.54,-63.98 152.32,-54.71 152.66,-46.11"/>
<polygon fill="black" stroke="black" points="156.15,-46.32 153.36,-36.1 149.17,-45.84 156.15,-46.32"/>
</g>
<!-- CLAS&#45;CL_XCO_BDEF_EVAL_TRIGGER_OPRTN&#45;&gt;CLAS&#45;CL_XCO_BDEF_EVAL_TRIGGER_OP_F -->
<g id="edge14" class="edge">
<title>CLAS&#45;CL_XCO_BDEF_EVAL_TRIGGER_OPRTN&#45;&gt;CLAS&#45;CL_XCO_BDEF_EVAL_TRIGGER_OP_F</title>
<path fill="none" stroke="black" d="M165.15,-36.1C165.96,-43.79 166.19,-53.05 165.86,-61.67"/>
<polygon fill="black" stroke="black" points="162.36,-61.48 165.17,-71.7 169.35,-61.96 162.36,-61.48"/>
</g>
<!-- TTYP&#45;SXCO_T_BDEF_TRIGGER_OPERATIONS&#45;&gt;CLAS&#45;CL_XCO_BDEF_EVAL_TRIGGER_OPRTN -->
<g id="edge15" class="edge">
<title>TTYP&#45;SXCO_T_BDEF_TRIGGER_OPERATIONS&#45;&gt;CLAS&#45;CL_XCO_BDEF_EVAL_TRIGGER_OPRTN</title>
<path fill="none" stroke="black" d="M561.79,-71.97C482.31,-61.51 380.5,-48.11 299.16,-37.41"/>
<polygon fill="black" stroke="black" points="299.21,-33.88 288.84,-36.05 298.29,-40.82 299.21,-33.88"/>
</g>
<!-- DTEL&#45;SXCO_CDS_FIELD_NAME -->
<g id="node12" class="node">
<title>DTEL&#45;SXCO_CDS_FIELD_NAME</title>
<g id="a_node12"><a xlink:href="./DTEL_SXCO_CDS_FIELD_NAME.html" xlink:title="DTEL&#45;SXCO_CDS_FIELD_NAME">
<polygon fill="none" stroke="green" points="559.6,-252 336.91,-252 336.91,-216 559.6,-216 559.6,-252"/>
<text text-anchor="middle" x="448.26" y="-229.8" font-family="Times,serif" font-size="14.00">DTEL&#45;SXCO_CDS_FIELD_NAME</text>
</a>
</g>
</g>
<!-- TTYP&#45;SXCO_T_CDS_FIELD_NAMES&#45;&gt;DTEL&#45;SXCO_CDS_FIELD_NAME -->
<g id="edge16" class="edge">
<title>TTYP&#45;SXCO_T_CDS_FIELD_NAMES&#45;&gt;DTEL&#45;SXCO_CDS_FIELD_NAME</title>
<path fill="none" stroke="black" d="M446.75,-287.7C446.97,-279.98 447.24,-270.71 447.48,-262.11"/>
<polygon fill="black" stroke="black" points="450.98,-262.2 447.77,-252.1 443.98,-262 450.98,-262.2"/>
</g>
<!-- DTEL&#45;SXCO_CDS_FIELD_NAME&#45;&gt;DOMA&#45;CHAR30 -->
<g id="edge17" class="edge">
<title>DTEL&#45;SXCO_CDS_FIELD_NAME&#45;&gt;DOMA&#45;CHAR30</title>
<path fill="none" stroke="black" d="M482.01,-215.88C500.48,-206.51 523.54,-194.81 543.27,-184.8"/>
<polygon fill="black" stroke="black" points="545.03,-187.83 552.37,-180.19 541.87,-181.59 545.03,-187.83"/>
</g>
</g>
</svg>
