<?xml version="1.0" encoding="UTF-8" standalone="no"?>
<!DOCTYPE svg PUBLIC "-//W3C//DTD SVG 1.1//EN"
 "http://www.w3.org/Graphics/SVG/1.1/DTD/svg11.dtd">
<!-- Generated by graphviz version 2.47.3 (20210619.1520)
 -->
<!-- Title: G Pages: 1 -->
<svg width="902pt" height="188pt"
 viewBox="0.00 0.00 902.46 188.00" xmlns="http://www.w3.org/2000/svg" xmlns:xlink="http://www.w3.org/1999/xlink">
<g id="graph0" class="graph" transform="scale(1 1) rotate(0) translate(4 184)">
<title>G</title>
<polygon fill="white" stroke="transparent" points="-4,4 -4,-184 898.46,-184 898.46,4 -4,4"/>
<!-- INTF&#45;IF_XCO_GEN_TABL_S_FO_SHELP -->
<g id="node1" class="node">
<title>INTF&#45;IF_XCO_GEN_TABL_S_FO_SHELP</title>
<polygon fill="none" stroke="green" points="677.27,-180 408.24,-180 408.24,-144 677.27,-144 677.27,-180"/>
<text text-anchor="middle" x="542.76" y="-157.8" font-family="Times,serif" font-size="14.00">INTF&#45;IF_XCO_GEN_TABL_S_FO_SHELP</text>
</g>
<!-- DTEL&#45;SXCO_AD_OBJECT_NAME -->
<g id="node2" class="node">
<title>DTEL&#45;SXCO_AD_OBJECT_NAME</title>
<g id="a_node2"><a xlink:href="./DTEL_SXCO_AD_OBJECT_NAME.html" xlink:title="DTEL&#45;SXCO_AD_OBJECT_NAME">
<polygon fill="none" stroke="green" points="227.27,-108 0.24,-108 0.24,-72 227.27,-72 227.27,-108"/>
<text text-anchor="middle" x="113.76" y="-85.8" font-family="Times,serif" font-size="14.00">DTEL&#45;SXCO_AD_OBJECT_NAME</text>
</a>
</g>
</g>
<!-- INTF&#45;IF_XCO_GEN_TABL_S_FO_SHELP&#45;&gt;DTEL&#45;SXCO_AD_OBJECT_NAME -->
<g id="edge5" class="edge">
<title>INTF&#45;IF_XCO_GEN_TABL_S_FO_SHELP&#45;&gt;DTEL&#45;SXCO_AD_OBJECT_NAME</title>
<path fill="none" stroke="black" d="M438.36,-143.97C374.78,-133.59 293.5,-120.33 228.18,-109.67"/>
<polygon fill="black" stroke="black" points="228.68,-106.21 218.25,-108.05 227.55,-113.11 228.68,-106.21"/>
</g>
<!-- DTEL&#45;SXCO_AD_FIELD_NAME -->
<g id="node4" class="node">
<title>DTEL&#45;SXCO_AD_FIELD_NAME</title>
<g id="a_node4"><a xlink:href="./DTEL_SXCO_AD_FIELD_NAME.html" xlink:title="DTEL&#45;SXCO_AD_FIELD_NAME">
<polygon fill="none" stroke="green" points="461.59,-108 245.92,-108 245.92,-72 461.59,-72 461.59,-108"/>
<text text-anchor="middle" x="353.76" y="-85.8" font-family="Times,serif" font-size="14.00">DTEL&#45;SXCO_AD_FIELD_NAME</text>
</a>
</g>
</g>
<!-- INTF&#45;IF_XCO_GEN_TABL_S_FO_SHELP&#45;&gt;DTEL&#45;SXCO_AD_FIELD_NAME -->
<g id="edge4" class="edge">
<title>INTF&#45;IF_XCO_GEN_TABL_S_FO_SHELP&#45;&gt;DTEL&#45;SXCO_AD_FIELD_NAME</title>
<path fill="none" stroke="black" d="M496.52,-143.88C470.22,-134.14 437.11,-121.87 409.4,-111.61"/>
<polygon fill="black" stroke="black" points="410.43,-108.26 399.84,-108.07 408,-114.82 410.43,-108.26"/>
</g>
<!-- DTEL&#45;TABNAME -->
<g id="node5" class="node">
<title>DTEL&#45;TABNAME</title>
<g id="a_node5"><a xlink:href="./DTEL_TABNAME.html" xlink:title="DTEL&#45;TABNAME">
<polygon fill="none" stroke="green" points="605.39,-108 480.12,-108 480.12,-72 605.39,-72 605.39,-108"/>
<text text-anchor="middle" x="542.76" y="-85.8" font-family="Times,serif" font-size="14.00">DTEL&#45;TABNAME</text>
</a>
</g>
</g>
<!-- INTF&#45;IF_XCO_GEN_TABL_S_FO_SHELP&#45;&gt;DTEL&#45;TABNAME -->
<g id="edge3" class="edge">
<title>INTF&#45;IF_XCO_GEN_TABL_S_FO_SHELP&#45;&gt;DTEL&#45;TABNAME</title>
<path fill="none" stroke="black" d="M542.76,-143.7C542.76,-135.98 542.76,-126.71 542.76,-118.11"/>
<polygon fill="black" stroke="black" points="546.26,-118.1 542.76,-108.1 539.26,-118.1 546.26,-118.1"/>
</g>
<!-- DTEL&#45;FIELDNAME -->
<g id="node7" class="node">
<title>DTEL&#45;FIELDNAME</title>
<g id="a_node7"><a xlink:href="./DTEL_FIELDNAME.html" xlink:title="DTEL&#45;FIELDNAME">
<polygon fill="none" stroke="yellow" points="760.55,-108 622.96,-108 622.96,-72 760.55,-72 760.55,-108"/>
<text text-anchor="middle" x="691.76" y="-85.8" font-family="Times,serif" font-size="14.00">DTEL&#45;FIELDNAME</text>
</a>
</g>
</g>
<!-- INTF&#45;IF_XCO_GEN_TABL_S_FO_SHELP&#45;&gt;DTEL&#45;FIELDNAME -->
<g id="edge2" class="edge">
<title>INTF&#45;IF_XCO_GEN_TABL_S_FO_SHELP&#45;&gt;DTEL&#45;FIELDNAME</title>
<path fill="none" stroke="black" d="M579.2,-143.88C599.39,-134.39 624.68,-122.51 646.16,-112.42"/>
<polygon fill="black" stroke="black" points="647.86,-115.49 655.42,-108.07 644.88,-109.15 647.86,-115.49"/>
</g>
<!-- DTEL&#45;DDTEXT -->
<g id="node9" class="node">
<title>DTEL&#45;DDTEXT</title>
<g id="a_node9"><a xlink:href="./DTEL_DDTEXT.html" xlink:title="DTEL&#45;DDTEXT">
<polygon fill="none" stroke="yellow" points="891.16,-108 778.35,-108 778.35,-72 891.16,-72 891.16,-108"/>
<text text-anchor="middle" x="834.76" y="-85.8" font-family="Times,serif" font-size="14.00">DTEL&#45;DDTEXT</text>
</a>
</g>
</g>
<!-- INTF&#45;IF_XCO_GEN_TABL_S_FO_SHELP&#45;&gt;DTEL&#45;DDTEXT -->
<g id="edge1" class="edge">
<title>INTF&#45;IF_XCO_GEN_TABL_S_FO_SHELP&#45;&gt;DTEL&#45;DDTEXT</title>
<path fill="none" stroke="black" d="M618.02,-143.95C659.77,-134.37 712.86,-121.99 768.38,-108.31"/>
<polygon fill="black" stroke="black" points="769.54,-111.63 778.41,-105.83 767.86,-104.84 769.54,-111.63"/>
</g>
<!-- DOMA&#45;CHAR30 -->
<g id="node3" class="node">
<title>DOMA&#45;CHAR30</title>
<g id="a_node3"><a xlink:href="./DOMA_CHAR30.html" xlink:title="DOMA&#45;CHAR30">
<polygon fill="none" stroke="green" points="292.07,-36 175.44,-36 175.44,0 292.07,0 292.07,-36"/>
<text text-anchor="middle" x="233.76" y="-13.8" font-family="Times,serif" font-size="14.00">DOMA&#45;CHAR30</text>
</a>
</g>
</g>
<!-- DTEL&#45;SXCO_AD_OBJECT_NAME&#45;&gt;DOMA&#45;CHAR30 -->
<g id="edge6" class="edge">
<title>DTEL&#45;SXCO_AD_OBJECT_NAME&#45;&gt;DOMA&#45;CHAR30</title>
<path fill="none" stroke="black" d="M143.11,-71.88C158.8,-62.72 178.31,-51.34 195.21,-41.48"/>
<polygon fill="black" stroke="black" points="197.41,-44.25 204.29,-36.19 193.89,-38.21 197.41,-44.25"/>
</g>
<!-- DTEL&#45;SXCO_AD_FIELD_NAME&#45;&gt;DOMA&#45;CHAR30 -->
<g id="edge7" class="edge">
<title>DTEL&#45;SXCO_AD_FIELD_NAME&#45;&gt;DOMA&#45;CHAR30</title>
<path fill="none" stroke="black" d="M324.4,-71.88C308.71,-62.72 289.2,-51.34 272.3,-41.48"/>
<polygon fill="black" stroke="black" points="273.62,-38.21 263.22,-36.19 270.1,-44.25 273.62,-38.21"/>
</g>
<!-- DOMA&#45;AS4TAB -->
<g id="node6" class="node">
<title>DOMA&#45;AS4TAB</title>
<g id="a_node6"><a xlink:href="./DOMA_AS4TAB.html" xlink:title="DOMA&#45;AS4TAB">
<polygon fill="none" stroke="yellow" points="601.07,-36 484.44,-36 484.44,0 601.07,0 601.07,-36"/>
<text text-anchor="middle" x="542.76" y="-13.8" font-family="Times,serif" font-size="14.00">DOMA&#45;AS4TAB</text>
</a>
</g>
</g>
<!-- DTEL&#45;TABNAME&#45;&gt;DOMA&#45;AS4TAB -->
<g id="edge8" class="edge">
<title>DTEL&#45;TABNAME&#45;&gt;DOMA&#45;AS4TAB</title>
<path fill="none" stroke="black" d="M542.76,-71.7C542.76,-63.98 542.76,-54.71 542.76,-46.11"/>
<polygon fill="black" stroke="black" points="546.26,-46.1 542.76,-36.1 539.26,-46.1 546.26,-46.1"/>
</g>
<!-- DOMA&#45;FDNAME -->
<g id="node8" class="node">
<title>DOMA&#45;FDNAME</title>
<g id="a_node8"><a xlink:href="./DOMA_FDNAME.html" xlink:title="DOMA&#45;FDNAME">
<polygon fill="none" stroke="yellow" points="752.78,-36 630.73,-36 630.73,0 752.78,0 752.78,-36"/>
<text text-anchor="middle" x="691.76" y="-13.8" font-family="Times,serif" font-size="14.00">DOMA&#45;FDNAME</text>
</a>
</g>
</g>
<!-- DTEL&#45;FIELDNAME&#45;&gt;DOMA&#45;FDNAME -->
<g id="edge9" class="edge">
<title>DTEL&#45;FIELDNAME&#45;&gt;DOMA&#45;FDNAME</title>
<path fill="none" stroke="black" d="M691.76,-71.7C691.76,-63.98 691.76,-54.71 691.76,-46.11"/>
<polygon fill="black" stroke="black" points="695.26,-46.1 691.76,-36.1 688.26,-46.1 695.26,-46.1"/>
</g>
<!-- DOMA&#45;DDTEXT -->
<g id="node10" class="node">
<title>DOMA&#45;DDTEXT</title>
<g id="a_node10"><a xlink:href="./DOMA_DDTEXT.html" xlink:title="DOMA&#45;DDTEXT">
<polygon fill="none" stroke="yellow" points="894.66,-36 774.85,-36 774.85,0 894.66,0 894.66,-36"/>
<text text-anchor="middle" x="834.76" y="-13.8" font-family="Times,serif" font-size="14.00">DOMA&#45;DDTEXT</text>
</a>
</g>
</g>
<!-- DTEL&#45;DDTEXT&#45;&gt;DOMA&#45;DDTEXT -->
<g id="edge10" class="edge">
<title>DTEL&#45;DDTEXT&#45;&gt;DOMA&#45;DDTEXT</title>
<path fill="none" stroke="black" d="M834.76,-71.7C834.76,-63.98 834.76,-54.71 834.76,-46.11"/>
<polygon fill="black" stroke="black" points="838.26,-46.1 834.76,-36.1 831.26,-46.1 838.26,-46.1"/>
</g>
</g>
</svg>
