<?xml version="1.0" encoding="UTF-8" standalone="no"?>
<!DOCTYPE svg PUBLIC "-//W3C//DTD SVG 1.1//EN"
 "http://www.w3.org/Graphics/SVG/1.1/DTD/svg11.dtd">
<!-- Generated by graphviz version 2.47.3 (20210619.1520)
 -->
<!-- Title: G Pages: 1 -->
<svg width="271pt" height="188pt"
 viewBox="0.00 0.00 271.30 188.00" xmlns="http://www.w3.org/2000/svg" xmlns:xlink="http://www.w3.org/1999/xlink">
<g id="graph0" class="graph" transform="scale(1 1) rotate(0) translate(4 184)">
<title>G</title>
<polygon fill="white" stroke="transparent" points="-4,4 -4,-184 267.3,-184 267.3,4 -4,4"/>
<!-- INTF&#45;IF_ABAP_GZIP_TEXT_HANDLER -->
<g id="node1" class="node">
<title>INTF&#45;IF_ABAP_GZIP_TEXT_HANDLER</title>
<g id="a_node1"><a xlink:href="./INTF_IF_ABAP_GZIP_TEXT_HANDLER.html" xlink:title="INTF&#45;IF_ABAP_GZIP_TEXT_HANDLER">
<polygon fill="none" stroke="green" points="263.43,-180 -0.12,-180 -0.12,-144 263.43,-144 263.43,-180"/>
<text text-anchor="middle" x="131.65" y="-157.8" font-family="Times,serif" font-size="14.00">INTF&#45;IF_ABAP_GZIP_TEXT_HANDLER</text>
</a>
</g>
</g>
<!-- CLAS&#45;CL_ABAP_GZIP_TEXT_STREAM -->
<g id="node2" class="node">
<title>CLAS&#45;CL_ABAP_GZIP_TEXT_STREAM</title>
<g id="a_node2"><a xlink:href="./CLAS_CL_ABAP_GZIP_TEXT_STREAM.html" xlink:title="CLAS&#45;CL_ABAP_GZIP_TEXT_STREAM">
<polygon fill="none" stroke="green" points="263.45,-108 -0.15,-108 -0.15,-72 263.45,-72 263.45,-108"/>
<text text-anchor="middle" x="131.65" y="-85.8" font-family="Times,serif" font-size="14.00">CLAS&#45;CL_ABAP_GZIP_TEXT_STREAM</text>
</a>
</g>
</g>
<!-- INTF&#45;IF_ABAP_GZIP_TEXT_HANDLER&#45;&gt;CLAS&#45;CL_ABAP_GZIP_TEXT_STREAM -->
<g id="edge1" class="edge">
<title>INTF&#45;IF_ABAP_GZIP_TEXT_HANDLER&#45;&gt;CLAS&#45;CL_ABAP_GZIP_TEXT_STREAM</title>
<path fill="none" stroke="black" d="M119.82,-143.7C118.23,-135.98 117.78,-126.71 118.46,-118.11"/>
<polygon fill="black" stroke="black" points="121.94,-118.49 119.86,-108.1 115.01,-117.52 121.94,-118.49"/>
</g>
<!-- INTF&#45;IF_ABAP_GZIP_TEXT_HANDLER&#45;&gt;CLAS&#45;CL_ABAP_GZIP_TEXT_STREAM -->
<g id="edge4" class="edge">
<title>INTF&#45;IF_ABAP_GZIP_TEXT_HANDLER&#45;&gt;CLAS&#45;CL_ABAP_GZIP_TEXT_STREAM</title>
<path fill="none" stroke="black" d="M143.48,-143.7C145.07,-135.98 145.53,-126.71 144.84,-118.11"/>
<polygon fill="black" stroke="black" points="148.29,-117.52 143.44,-108.1 141.36,-118.49 148.29,-117.52"/>
</g>
<!-- CLAS&#45;CL_ABAP_GZIP_TEXT_STREAM&#45;&gt;INTF&#45;IF_ABAP_GZIP_TEXT_HANDLER -->
<g id="edge3" class="edge">
<title>CLAS&#45;CL_ABAP_GZIP_TEXT_STREAM&#45;&gt;INTF&#45;IF_ABAP_GZIP_TEXT_HANDLER</title>
<path fill="none" stroke="black" d="M131.65,-108.1C131.65,-115.79 131.65,-125.05 131.65,-133.67"/>
<polygon fill="black" stroke="black" points="128.15,-133.7 131.65,-143.7 135.15,-133.7 128.15,-133.7"/>
</g>
<!-- DTEL&#45;ABAP_ENCOD -->
<g id="node3" class="node">
<title>DTEL&#45;ABAP_ENCOD</title>
<g id="a_node3"><a xlink:href="./DTEL_ABAP_ENCOD.html" xlink:title="DTEL&#45;ABAP_ENCOD">
<polygon fill="none" stroke="green" points="206.12,-36 57.19,-36 57.19,0 206.12,0 206.12,-36"/>
<text text-anchor="middle" x="131.65" y="-13.8" font-family="Times,serif" font-size="14.00">DTEL&#45;ABAP_ENCOD</text>
</a>
</g>
</g>
<!-- CLAS&#45;CL_ABAP_GZIP_TEXT_STREAM&#45;&gt;DTEL&#45;ABAP_ENCOD -->
<g id="edge2" class="edge">
<title>CLAS&#45;CL_ABAP_GZIP_TEXT_STREAM&#45;&gt;DTEL&#45;ABAP_ENCOD</title>
<path fill="none" stroke="black" d="M131.65,-71.7C131.65,-63.98 131.65,-54.71 131.65,-46.11"/>
<polygon fill="black" stroke="black" points="135.15,-46.1 131.65,-36.1 128.15,-46.1 135.15,-46.1"/>
</g>
</g>
</svg>
