<?xml version="1.0" encoding="UTF-8" standalone="no"?>
<!DOCTYPE svg PUBLIC "-//W3C//DTD SVG 1.1//EN"
 "http://www.w3.org/Graphics/SVG/1.1/DTD/svg11.dtd">
<!-- Generated by graphviz version 2.47.3 (20210619.1520)
 -->
<!-- Title: G Pages: 1 -->
<svg width="1530pt" height="260pt"
 viewBox="0.00 0.00 1530.23 260.00" xmlns="http://www.w3.org/2000/svg" xmlns:xlink="http://www.w3.org/1999/xlink">
<g id="graph0" class="graph" transform="scale(1 1) rotate(0) translate(4 256)">
<title>G</title>
<polygon fill="white" stroke="transparent" points="-4,4 -4,-256 1526.23,-256 1526.23,4 -4,4"/>
<!-- INTF&#45;IF_XCO_GEN_BDEF_S_FO_B_CHARA -->
<g id="node1" class="node">
<title>INTF&#45;IF_XCO_GEN_BDEF_S_FO_B_CHARA</title>
<polygon fill="none" stroke="green" points="874.56,-252 582.95,-252 582.95,-216 874.56,-216 874.56,-252"/>
<text text-anchor="middle" x="728.76" y="-229.8" font-family="Times,serif" font-size="14.00">INTF&#45;IF_XCO_GEN_BDEF_S_FO_B_CHARA</text>
</g>
<!-- INTF&#45;IF_XCO_GEN_BDEF_S_FO_B_AUTH -->
<g id="node2" class="node">
<title>INTF&#45;IF_XCO_GEN_BDEF_S_FO_B_AUTH</title>
<g id="a_node2"><a xlink:href="./INTF_IF_XCO_GEN_BDEF_S_FO_B_AUTH.html" xlink:title="INTF&#45;IF_XCO_GEN_BDEF_S_FO_B_AUTH">
<polygon fill="none" stroke="green" points="1018.44,-180 737.07,-180 737.07,-144 1018.44,-144 1018.44,-180"/>
<text text-anchor="middle" x="877.76" y="-157.8" font-family="Times,serif" font-size="14.00">INTF&#45;IF_XCO_GEN_BDEF_S_FO_B_AUTH</text>
</a>
</g>
</g>
<!-- INTF&#45;IF_XCO_GEN_BDEF_S_FO_B_CHARA&#45;&gt;INTF&#45;IF_XCO_GEN_BDEF_S_FO_B_AUTH -->
<g id="edge6" class="edge">
<title>INTF&#45;IF_XCO_GEN_BDEF_S_FO_B_CHARA&#45;&gt;INTF&#45;IF_XCO_GEN_BDEF_S_FO_B_AUTH</title>
<path fill="none" stroke="black" d="M765.2,-215.88C785.39,-206.39 810.68,-194.51 832.16,-184.42"/>
<polygon fill="black" stroke="black" points="833.86,-187.49 841.42,-180.07 830.88,-181.15 833.86,-187.49"/>
</g>
<!-- INTF&#45;IF_XCO_GEN_BDEF_S_FO_B_LOCK -->
<g id="node6" class="node">
<title>INTF&#45;IF_XCO_GEN_BDEF_S_FO_B_LOCK</title>
<g id="a_node6"><a xlink:href="./INTF_IF_XCO_GEN_BDEF_S_FO_B_LOCK.html" xlink:title="INTF&#45;IF_XCO_GEN_BDEF_S_FO_B_LOCK">
<polygon fill="none" stroke="green" points="422.17,-180 141.34,-180 141.34,-144 422.17,-144 422.17,-180"/>
<text text-anchor="middle" x="281.76" y="-157.8" font-family="Times,serif" font-size="14.00">INTF&#45;IF_XCO_GEN_BDEF_S_FO_B_LOCK</text>
</a>
</g>
</g>
<!-- INTF&#45;IF_XCO_GEN_BDEF_S_FO_B_CHARA&#45;&gt;INTF&#45;IF_XCO_GEN_BDEF_S_FO_B_LOCK -->
<g id="edge5" class="edge">
<title>INTF&#45;IF_XCO_GEN_BDEF_S_FO_B_CHARA&#45;&gt;INTF&#45;IF_XCO_GEN_BDEF_S_FO_B_LOCK</title>
<path fill="none" stroke="black" d="M619.98,-215.97C553.6,-205.57 468.69,-192.27 400.56,-181.6"/>
<polygon fill="black" stroke="black" points="401.05,-178.14 390.63,-180.05 399.97,-185.06 401.05,-178.14"/>
</g>
<!-- INTF&#45;IF_XCO_GEN_BDEF_S_FO_B_ETAG -->
<g id="node7" class="node">
<title>INTF&#45;IF_XCO_GEN_BDEF_S_FO_B_ETAG</title>
<g id="a_node7"><a xlink:href="./INTF_IF_XCO_GEN_BDEF_S_FO_B_ETAG.html" xlink:title="INTF&#45;IF_XCO_GEN_BDEF_S_FO_B_ETAG">
<polygon fill="none" stroke="green" points="719.38,-180 440.13,-180 440.13,-144 719.38,-144 719.38,-180"/>
<text text-anchor="middle" x="579.76" y="-157.8" font-family="Times,serif" font-size="14.00">INTF&#45;IF_XCO_GEN_BDEF_S_FO_B_ETAG</text>
</a>
</g>
</g>
<!-- INTF&#45;IF_XCO_GEN_BDEF_S_FO_B_CHARA&#45;&gt;INTF&#45;IF_XCO_GEN_BDEF_S_FO_B_ETAG -->
<g id="edge4" class="edge">
<title>INTF&#45;IF_XCO_GEN_BDEF_S_FO_B_CHARA&#45;&gt;INTF&#45;IF_XCO_GEN_BDEF_S_FO_B_ETAG</title>
<path fill="none" stroke="black" d="M692.31,-215.88C672.12,-206.39 646.83,-194.51 625.35,-184.42"/>
<polygon fill="black" stroke="black" points="626.63,-181.15 616.09,-180.07 623.65,-187.49 626.63,-181.15"/>
</g>
<!-- DTEL&#45;SXCO_DBT_OBJECT_NAME -->
<g id="node8" class="node">
<title>DTEL&#45;SXCO_DBT_OBJECT_NAME</title>
<g id="a_node8"><a xlink:href="./DTEL_SXCO_DBT_OBJECT_NAME.html" xlink:title="DTEL&#45;SXCO_DBT_OBJECT_NAME">
<polygon fill="none" stroke="green" points="1271.55,-180 1035.96,-180 1035.96,-144 1271.55,-144 1271.55,-180"/>
<text text-anchor="middle" x="1153.76" y="-157.8" font-family="Times,serif" font-size="14.00">DTEL&#45;SXCO_DBT_OBJECT_NAME</text>
</a>
</g>
</g>
<!-- INTF&#45;IF_XCO_GEN_BDEF_S_FO_B_CHARA&#45;&gt;DTEL&#45;SXCO_DBT_OBJECT_NAME -->
<g id="edge3" class="edge">
<title>INTF&#45;IF_XCO_GEN_BDEF_S_FO_B_CHARA&#45;&gt;DTEL&#45;SXCO_DBT_OBJECT_NAME</title>
<path fill="none" stroke="black" d="M832.18,-215.97C895.03,-205.61 975.36,-192.38 1040,-181.74"/>
<polygon fill="black" stroke="black" points="1040.94,-185.13 1050.24,-180.05 1039.8,-178.22 1040.94,-185.13"/>
</g>
<!-- DTEL&#45;SXCO_AO_OBJECT_NAME -->
<g id="node10" class="node">
<title>DTEL&#45;SXCO_AO_OBJECT_NAME</title>
<g id="a_node10"><a xlink:href="./DTEL_SXCO_AO_OBJECT_NAME.html" xlink:title="DTEL&#45;SXCO_AO_OBJECT_NAME">
<polygon fill="none" stroke="green" points="227.27,-108 0.24,-108 0.24,-72 227.27,-72 227.27,-108"/>
<text text-anchor="middle" x="113.76" y="-85.8" font-family="Times,serif" font-size="14.00">DTEL&#45;SXCO_AO_OBJECT_NAME</text>
</a>
</g>
</g>
<!-- INTF&#45;IF_XCO_GEN_BDEF_S_FO_B_CHARA&#45;&gt;DTEL&#45;SXCO_AO_OBJECT_NAME -->
<g id="edge2" class="edge">
<title>INTF&#45;IF_XCO_GEN_BDEF_S_FO_B_CHARA&#45;&gt;DTEL&#45;SXCO_AO_OBJECT_NAME</title>
<path fill="none" stroke="black" d="M582.99,-228.97C417.42,-223.01 165.79,-209.24 132.76,-180 115.71,-164.91 111.83,-138.61 111.7,-118.5"/>
<polygon fill="black" stroke="black" points="115.2,-118.44 111.94,-108.36 108.21,-118.27 115.2,-118.44"/>
</g>
<!-- DTEL&#45;SXCO_BDEF_ALIAS_NAME -->
<g id="node11" class="node">
<title>DTEL&#45;SXCO_BDEF_ALIAS_NAME</title>
<g id="a_node11"><a xlink:href="./DTEL_SXCO_BDEF_ALIAS_NAME.html" xlink:title="DTEL&#45;SXCO_BDEF_ALIAS_NAME">
<polygon fill="none" stroke="green" points="1522.21,-180 1289.3,-180 1289.3,-144 1522.21,-144 1522.21,-180"/>
<text text-anchor="middle" x="1405.76" y="-157.8" font-family="Times,serif" font-size="14.00">DTEL&#45;SXCO_BDEF_ALIAS_NAME</text>
</a>
</g>
</g>
<!-- INTF&#45;IF_XCO_GEN_BDEF_S_FO_B_CHARA&#45;&gt;DTEL&#45;SXCO_BDEF_ALIAS_NAME -->
<g id="edge1" class="edge">
<title>INTF&#45;IF_XCO_GEN_BDEF_S_FO_B_CHARA&#45;&gt;DTEL&#45;SXCO_BDEF_ALIAS_NAME</title>
<path fill="none" stroke="black" d="M874.49,-220.59C983.26,-210.95 1135.82,-196.64 1278.73,-180.21"/>
<polygon fill="black" stroke="black" points="1279.47,-183.65 1289,-179.03 1278.67,-176.7 1279.47,-183.65"/>
</g>
<!-- DTEL&#45;SXCO_CDS_ASSOCIATION_NAME -->
<g id="node3" class="node">
<title>DTEL&#45;SXCO_CDS_ASSOCIATION_NAME</title>
<g id="a_node3"><a xlink:href="./DTEL_SXCO_CDS_ASSOCIATION_NAME.html" xlink:title="DTEL&#45;SXCO_CDS_ASSOCIATION_NAME">
<polygon fill="none" stroke="green" points="521.76,-108 245.75,-108 245.75,-72 521.76,-72 521.76,-108"/>
<text text-anchor="middle" x="383.76" y="-85.8" font-family="Times,serif" font-size="14.00">DTEL&#45;SXCO_CDS_ASSOCIATION_NAME</text>
</a>
</g>
</g>
<!-- INTF&#45;IF_XCO_GEN_BDEF_S_FO_B_AUTH&#45;&gt;DTEL&#45;SXCO_CDS_ASSOCIATION_NAME -->
<g id="edge8" class="edge">
<title>INTF&#45;IF_XCO_GEN_BDEF_S_FO_B_AUTH&#45;&gt;DTEL&#45;SXCO_CDS_ASSOCIATION_NAME</title>
<path fill="none" stroke="black" d="M757.54,-143.97C683.88,-133.53 589.58,-120.17 514.13,-109.47"/>
<polygon fill="black" stroke="black" points="514.47,-105.99 504.08,-108.05 513.49,-112.92 514.47,-105.99"/>
</g>
<!-- DTEL&#45;SXCO_CDS_FIELD_NAME -->
<g id="node5" class="node">
<title>DTEL&#45;SXCO_CDS_FIELD_NAME</title>
<g id="a_node5"><a xlink:href="./DTEL_SXCO_CDS_FIELD_NAME.html" xlink:title="DTEL&#45;SXCO_CDS_FIELD_NAME">
<polygon fill="none" stroke="green" points="763.1,-108 540.41,-108 540.41,-72 763.1,-72 763.1,-108"/>
<text text-anchor="middle" x="651.76" y="-85.8" font-family="Times,serif" font-size="14.00">DTEL&#45;SXCO_CDS_FIELD_NAME</text>
</a>
</g>
</g>
<!-- INTF&#45;IF_XCO_GEN_BDEF_S_FO_B_AUTH&#45;&gt;DTEL&#45;SXCO_CDS_FIELD_NAME -->
<g id="edge7" class="edge">
<title>INTF&#45;IF_XCO_GEN_BDEF_S_FO_B_AUTH&#45;&gt;DTEL&#45;SXCO_CDS_FIELD_NAME</title>
<path fill="none" stroke="black" d="M822.76,-143.97C790.77,-134.06 750.27,-121.51 716.72,-111.12"/>
<polygon fill="black" stroke="black" points="717.59,-107.73 707,-108.11 715.52,-114.41 717.59,-107.73"/>
</g>
<!-- DOMA&#45;CHAR30 -->
<g id="node4" class="node">
<title>DOMA&#45;CHAR30</title>
<g id="a_node4"><a xlink:href="./DOMA_CHAR30.html" xlink:title="DOMA&#45;CHAR30">
<polygon fill="none" stroke="green" points="442.07,-36 325.44,-36 325.44,0 442.07,0 442.07,-36"/>
<text text-anchor="middle" x="383.76" y="-13.8" font-family="Times,serif" font-size="14.00">DOMA&#45;CHAR30</text>
</a>
</g>
</g>
<!-- DTEL&#45;SXCO_CDS_ASSOCIATION_NAME&#45;&gt;DOMA&#45;CHAR30 -->
<g id="edge9" class="edge">
<title>DTEL&#45;SXCO_CDS_ASSOCIATION_NAME&#45;&gt;DOMA&#45;CHAR30</title>
<path fill="none" stroke="black" d="M383.76,-71.7C383.76,-63.98 383.76,-54.71 383.76,-46.11"/>
<polygon fill="black" stroke="black" points="387.26,-46.1 383.76,-36.1 380.26,-46.1 387.26,-46.1"/>
</g>
<!-- DTEL&#45;SXCO_CDS_FIELD_NAME&#45;&gt;DOMA&#45;CHAR30 -->
<g id="edge10" class="edge">
<title>DTEL&#45;SXCO_CDS_FIELD_NAME&#45;&gt;DOMA&#45;CHAR30</title>
<path fill="none" stroke="black" d="M586.54,-71.97C545.66,-61.29 493.06,-47.55 451.68,-36.74"/>
<polygon fill="black" stroke="black" points="452.51,-33.34 441.95,-34.2 450.74,-40.11 452.51,-33.34"/>
</g>
<!-- INTF&#45;IF_XCO_GEN_BDEF_S_FO_B_LOCK&#45;&gt;DTEL&#45;SXCO_CDS_ASSOCIATION_NAME -->
<g id="edge12" class="edge">
<title>INTF&#45;IF_XCO_GEN_BDEF_S_FO_B_LOCK&#45;&gt;DTEL&#45;SXCO_CDS_ASSOCIATION_NAME</title>
<path fill="none" stroke="black" d="M306.71,-143.88C319.8,-134.89 336.02,-123.76 350.19,-114.03"/>
<polygon fill="black" stroke="black" points="352.44,-116.73 358.71,-108.19 348.48,-110.96 352.44,-116.73"/>
</g>
<!-- INTF&#45;IF_XCO_GEN_BDEF_S_FO_B_LOCK&#45;&gt;DTEL&#45;SXCO_CDS_FIELD_NAME -->
<g id="edge11" class="edge">
<title>INTF&#45;IF_XCO_GEN_BDEF_S_FO_B_LOCK&#45;&gt;DTEL&#45;SXCO_CDS_FIELD_NAME</title>
<path fill="none" stroke="black" d="M371.79,-143.97C426.18,-133.68 495.58,-120.55 551.68,-109.93"/>
<polygon fill="black" stroke="black" points="552.46,-113.35 561.63,-108.05 551.16,-106.47 552.46,-113.35"/>
</g>
<!-- INTF&#45;IF_XCO_GEN_BDEF_S_FO_B_ETAG&#45;&gt;DTEL&#45;SXCO_CDS_ASSOCIATION_NAME -->
<g id="edge14" class="edge">
<title>INTF&#45;IF_XCO_GEN_BDEF_S_FO_B_ETAG&#45;&gt;DTEL&#45;SXCO_CDS_ASSOCIATION_NAME</title>
<path fill="none" stroke="black" d="M532.06,-143.97C504.67,-134.19 470.1,-121.84 441.22,-111.52"/>
<polygon fill="black" stroke="black" points="442.26,-108.18 431.67,-108.11 439.91,-114.77 442.26,-108.18"/>
</g>
<!-- INTF&#45;IF_XCO_GEN_BDEF_S_FO_B_ETAG&#45;&gt;DTEL&#45;SXCO_CDS_FIELD_NAME -->
<g id="edge13" class="edge">
<title>INTF&#45;IF_XCO_GEN_BDEF_S_FO_B_ETAG&#45;&gt;DTEL&#45;SXCO_CDS_FIELD_NAME</title>
<path fill="none" stroke="black" d="M597.55,-143.7C606.36,-135.14 617.14,-124.66 626.76,-115.3"/>
<polygon fill="black" stroke="black" points="629.43,-117.58 634.16,-108.1 624.55,-112.57 629.43,-117.58"/>
</g>
<!-- DOMA&#45;CHAR16 -->
<g id="node9" class="node">
<title>DOMA&#45;CHAR16</title>
<g id="a_node9"><a xlink:href="./DOMA_CHAR16.html" xlink:title="DOMA&#45;CHAR16">
<polygon fill="none" stroke="yellow" points="1212.07,-108 1095.44,-108 1095.44,-72 1212.07,-72 1212.07,-108"/>
<text text-anchor="middle" x="1153.76" y="-85.8" font-family="Times,serif" font-size="14.00">DOMA&#45;CHAR16</text>
</a>
</g>
</g>
<!-- DTEL&#45;SXCO_DBT_OBJECT_NAME&#45;&gt;DOMA&#45;CHAR16 -->
<g id="edge15" class="edge">
<title>DTEL&#45;SXCO_DBT_OBJECT_NAME&#45;&gt;DOMA&#45;CHAR16</title>
<path fill="none" stroke="black" d="M1153.76,-143.7C1153.76,-135.98 1153.76,-126.71 1153.76,-118.11"/>
<polygon fill="black" stroke="black" points="1157.26,-118.1 1153.76,-108.1 1150.26,-118.1 1157.26,-118.1"/>
</g>
<!-- DTEL&#45;SXCO_AO_OBJECT_NAME&#45;&gt;DOMA&#45;CHAR30 -->
<g id="edge16" class="edge">
<title>DTEL&#45;SXCO_AO_OBJECT_NAME&#45;&gt;DOMA&#45;CHAR30</title>
<path fill="none" stroke="black" d="M179.46,-71.97C220.79,-61.25 274.01,-47.45 315.77,-36.63"/>
<polygon fill="black" stroke="black" points="316.77,-39.98 325.58,-34.08 315.02,-33.21 316.77,-39.98"/>
</g>
<!-- DOMA&#45;CHAR20 -->
<g id="node12" class="node">
<title>DOMA&#45;CHAR20</title>
<g id="a_node12"><a xlink:href="./DOMA_CHAR20.html" xlink:title="DOMA&#45;CHAR20">
<polygon fill="none" stroke="yellow" points="1464.07,-108 1347.44,-108 1347.44,-72 1464.07,-72 1464.07,-108"/>
<text text-anchor="middle" x="1405.76" y="-85.8" font-family="Times,serif" font-size="14.00">DOMA&#45;CHAR20</text>
</a>
</g>
</g>
<!-- DTEL&#45;SXCO_BDEF_ALIAS_NAME&#45;&gt;DOMA&#45;CHAR20 -->
<g id="edge17" class="edge">
<title>DTEL&#45;SXCO_BDEF_ALIAS_NAME&#45;&gt;DOMA&#45;CHAR20</title>
<path fill="none" stroke="black" d="M1405.76,-143.7C1405.76,-135.98 1405.76,-126.71 1405.76,-118.11"/>
<polygon fill="black" stroke="black" points="1409.26,-118.1 1405.76,-108.1 1402.26,-118.1 1409.26,-118.1"/>
</g>
</g>
</svg>
