<?xml version="1.0" encoding="UTF-8" standalone="no"?>
<!DOCTYPE svg PUBLIC "-//W3C//DTD SVG 1.1//EN"
 "http://www.w3.org/Graphics/SVG/1.1/DTD/svg11.dtd">
<!-- Generated by graphviz version 2.47.3 (20210619.1520)
 -->
<!-- Title: G Pages: 1 -->
<svg width="376pt" height="332pt"
 viewBox="0.00 0.00 375.53 332.00" xmlns="http://www.w3.org/2000/svg" xmlns:xlink="http://www.w3.org/1999/xlink">
<g id="graph0" class="graph" transform="scale(1 1) rotate(0) translate(4 328)">
<title>G</title>
<polygon fill="white" stroke="transparent" points="-4,4 -4,-328 371.53,-328 371.53,4 -4,4"/>
<!-- INTF&#45;IF_XCO_CP_GEN_MSAG_S_INSERT -->
<g id="node1" class="node">
<title>INTF&#45;IF_XCO_CP_GEN_MSAG_S_INSERT</title>
<polygon fill="none" stroke="green" points="364.34,-324 85.63,-324 85.63,-288 364.34,-288 364.34,-324"/>
<text text-anchor="middle" x="224.98" y="-301.8" font-family="Times,serif" font-size="14.00">INTF&#45;IF_XCO_CP_GEN_MSAG_S_INSERT</text>
</g>
<!-- INTF&#45;IF_XCO_CP_GEN_MSAG_S_IN_MSG -->
<g id="node2" class="node">
<title>INTF&#45;IF_XCO_CP_GEN_MSAG_S_IN_MSG</title>
<g id="a_node2"><a xlink:href="./INTF_IF_XCO_CP_GEN_MSAG_S_IN_MSG.html" xlink:title="INTF&#45;IF_XCO_CP_GEN_MSAG_S_IN_MSG">
<polygon fill="none" stroke="green" points="281.95,-252 0.02,-252 0.02,-216 281.95,-216 281.95,-252"/>
<text text-anchor="middle" x="140.98" y="-229.8" font-family="Times,serif" font-size="14.00">INTF&#45;IF_XCO_CP_GEN_MSAG_S_IN_MSG</text>
</a>
</g>
</g>
<!-- INTF&#45;IF_XCO_CP_GEN_MSAG_S_INSERT&#45;&gt;INTF&#45;IF_XCO_CP_GEN_MSAG_S_IN_MSG -->
<g id="edge2" class="edge">
<title>INTF&#45;IF_XCO_CP_GEN_MSAG_S_INSERT&#45;&gt;INTF&#45;IF_XCO_CP_GEN_MSAG_S_IN_MSG</title>
<path fill="none" stroke="black" d="M204.22,-287.7C193.74,-278.97 180.87,-268.24 169.48,-258.75"/>
<polygon fill="black" stroke="black" points="171.43,-255.82 161.51,-252.1 166.95,-261.19 171.43,-255.82"/>
</g>
<!-- INTF&#45;IF_XCO_CP_GEN_MSAG_S_FO_MSG -->
<g id="node3" class="node">
<title>INTF&#45;IF_XCO_CP_GEN_MSAG_S_FO_MSG</title>
<g id="a_node3"><a xlink:href="./INTF_IF_XCO_CP_GEN_MSAG_S_FO_MSG.html" xlink:title="INTF&#45;IF_XCO_CP_GEN_MSAG_S_FO_MSG">
<polygon fill="none" stroke="green" points="367.57,-180 82.4,-180 82.4,-144 367.57,-144 367.57,-180"/>
<text text-anchor="middle" x="224.98" y="-157.8" font-family="Times,serif" font-size="14.00">INTF&#45;IF_XCO_CP_GEN_MSAG_S_FO_MSG</text>
</a>
</g>
</g>
<!-- INTF&#45;IF_XCO_CP_GEN_MSAG_S_INSERT&#45;&gt;INTF&#45;IF_XCO_CP_GEN_MSAG_S_FO_MSG -->
<g id="edge1" class="edge">
<title>INTF&#45;IF_XCO_CP_GEN_MSAG_S_INSERT&#45;&gt;INTF&#45;IF_XCO_CP_GEN_MSAG_S_FO_MSG</title>
<path fill="none" stroke="black" d="M257.04,-287.88C270.1,-279.05 283.8,-266.97 290.98,-252 297.9,-237.57 297.9,-230.43 290.98,-216 285.32,-204.18 275.59,-194.17 265.32,-186.14"/>
<polygon fill="black" stroke="black" points="267.18,-183.16 257.04,-180.12 263.07,-188.83 267.18,-183.16"/>
</g>
<!-- INTF&#45;IF_XCO_CP_GEN_MSAG_S_IN_MSG&#45;&gt;INTF&#45;IF_XCO_CP_GEN_MSAG_S_FO_MSG -->
<g id="edge3" class="edge">
<title>INTF&#45;IF_XCO_CP_GEN_MSAG_S_IN_MSG&#45;&gt;INTF&#45;IF_XCO_CP_GEN_MSAG_S_FO_MSG</title>
<path fill="none" stroke="black" d="M161.75,-215.7C172.22,-206.97 185.09,-196.24 196.48,-186.75"/>
<polygon fill="black" stroke="black" points="199.02,-189.19 204.46,-180.1 194.53,-183.82 199.02,-189.19"/>
</g>
<!-- DTEL&#45;NATXT -->
<g id="node4" class="node">
<title>DTEL&#45;NATXT</title>
<g id="a_node4"><a xlink:href="./DTEL_NATXT.html" xlink:title="DTEL&#45;NATXT">
<polygon fill="none" stroke="yellow" points="210.83,-108 107.13,-108 107.13,-72 210.83,-72 210.83,-108"/>
<text text-anchor="middle" x="158.98" y="-85.8" font-family="Times,serif" font-size="14.00">DTEL&#45;NATXT</text>
</a>
</g>
</g>
<!-- INTF&#45;IF_XCO_CP_GEN_MSAG_S_FO_MSG&#45;&gt;DTEL&#45;NATXT -->
<g id="edge5" class="edge">
<title>INTF&#45;IF_XCO_CP_GEN_MSAG_S_FO_MSG&#45;&gt;DTEL&#45;NATXT</title>
<path fill="none" stroke="black" d="M208.67,-143.7C200.68,-135.22 190.91,-124.86 182.16,-115.58"/>
<polygon fill="black" stroke="black" points="184.52,-112.98 175.11,-108.1 179.42,-117.78 184.52,-112.98"/>
</g>
<!-- DTEL&#45;SYMSGNO -->
<g id="node6" class="node">
<title>DTEL&#45;SYMSGNO</title>
<g id="a_node6"><a xlink:href="./DTEL_SYMSGNO.html" xlink:title="DTEL&#45;SYMSGNO">
<polygon fill="none" stroke="green" points="355.34,-108 230.62,-108 230.62,-72 355.34,-72 355.34,-108"/>
<text text-anchor="middle" x="292.98" y="-85.8" font-family="Times,serif" font-size="14.00">DTEL&#45;SYMSGNO</text>
</a>
</g>
</g>
<!-- INTF&#45;IF_XCO_CP_GEN_MSAG_S_FO_MSG&#45;&gt;DTEL&#45;SYMSGNO -->
<g id="edge4" class="edge">
<title>INTF&#45;IF_XCO_CP_GEN_MSAG_S_FO_MSG&#45;&gt;DTEL&#45;SYMSGNO</title>
<path fill="none" stroke="black" d="M241.79,-143.7C250.11,-135.14 260.29,-124.66 269.37,-115.3"/>
<polygon fill="black" stroke="black" points="271.91,-117.72 276.37,-108.1 266.89,-112.84 271.91,-117.72"/>
</g>
<!-- DOMA&#45;NATXT -->
<g id="node5" class="node">
<title>DOMA&#45;NATXT</title>
<g id="a_node5"><a xlink:href="./DOMA_NATXT.html" xlink:title="DOMA&#45;NATXT">
<polygon fill="none" stroke="yellow" points="211.33,-36 100.63,-36 100.63,0 211.33,0 211.33,-36"/>
<text text-anchor="middle" x="155.98" y="-13.8" font-family="Times,serif" font-size="14.00">DOMA&#45;NATXT</text>
</a>
</g>
</g>
<!-- DTEL&#45;NATXT&#45;&gt;DOMA&#45;NATXT -->
<g id="edge6" class="edge">
<title>DTEL&#45;NATXT&#45;&gt;DOMA&#45;NATXT</title>
<path fill="none" stroke="black" d="M158.24,-71.7C157.91,-63.98 157.51,-54.71 157.14,-46.11"/>
<polygon fill="black" stroke="black" points="160.64,-45.95 156.72,-36.1 153.65,-46.25 160.64,-45.95"/>
</g>
<!-- DOMA&#45;SYMSGNO -->
<g id="node7" class="node">
<title>DOMA&#45;SYMSGNO</title>
<g id="a_node7"><a xlink:href="./DOMA_SYMSGNO.html" xlink:title="DOMA&#45;SYMSGNO">
<polygon fill="none" stroke="yellow" points="360.84,-36 229.12,-36 229.12,0 360.84,0 360.84,-36"/>
<text text-anchor="middle" x="294.98" y="-13.8" font-family="Times,serif" font-size="14.00">DOMA&#45;SYMSGNO</text>
</a>
</g>
</g>
<!-- DTEL&#45;SYMSGNO&#45;&gt;DOMA&#45;SYMSGNO -->
<g id="edge7" class="edge">
<title>DTEL&#45;SYMSGNO&#45;&gt;DOMA&#45;SYMSGNO</title>
<path fill="none" stroke="black" d="M293.48,-71.7C293.7,-63.98 293.96,-54.71 294.21,-46.11"/>
<polygon fill="black" stroke="black" points="297.71,-46.2 294.49,-36.1 290.71,-46 297.71,-46.2"/>
</g>
</g>
</svg>
