<?xml version="1.0" encoding="UTF-8" standalone="no"?>
<!DOCTYPE svg PUBLIC "-//W3C//DTD SVG 1.1//EN"
 "http://www.w3.org/Graphics/SVG/1.1/DTD/svg11.dtd">
<!-- Generated by graphviz version 2.47.3 (20210619.1520)
 -->
<!-- Title: G Pages: 1 -->
<svg width="1485pt" height="836pt"
 viewBox="0.00 0.00 1484.93 836.00" xmlns="http://www.w3.org/2000/svg" xmlns:xlink="http://www.w3.org/1999/xlink">
<g id="graph0" class="graph" transform="scale(1 1) rotate(0) translate(4 832)">
<title>G</title>
<polygon fill="white" stroke="transparent" points="-4,4 -4,-832 1480.93,-832 1480.93,4 -4,4"/>
<!-- INTF&#45;IF_XCO_STRINGS -->
<g id="node1" class="node">
<title>INTF&#45;IF_XCO_STRINGS</title>
<g id="a_node1"><a xlink:href="./INTF_IF_XCO_STRINGS.html" xlink:title="INTF&#45;IF_XCO_STRINGS">
<polygon fill="none" stroke="green" points="695.08,-828 528.92,-828 528.92,-792 695.08,-792 695.08,-828"/>
<text text-anchor="middle" x="612" y="-805.8" font-family="Times,serif" font-size="14.00">INTF&#45;IF_XCO_STRINGS</text>
</a>
</g>
</g>
<!-- INTF&#45;IF_XCO_STRING_ITERABLE -->
<g id="node2" class="node">
<title>INTF&#45;IF_XCO_STRING_ITERABLE</title>
<g id="a_node2"><a xlink:href="./INTF_IF_XCO_STRING_ITERABLE.html" xlink:title="INTF&#45;IF_XCO_STRING_ITERABLE">
<polygon fill="none" stroke="green" points="390.45,-756 157.55,-756 157.55,-720 390.45,-720 390.45,-756"/>
<text text-anchor="middle" x="274" y="-733.8" font-family="Times,serif" font-size="14.00">INTF&#45;IF_XCO_STRING_ITERABLE</text>
</a>
</g>
</g>
<!-- INTF&#45;IF_XCO_STRINGS&#45;&gt;INTF&#45;IF_XCO_STRING_ITERABLE -->
<g id="edge7" class="edge">
<title>INTF&#45;IF_XCO_STRINGS&#45;&gt;INTF&#45;IF_XCO_STRING_ITERABLE</title>
<path fill="none" stroke="black" d="M528.68,-792.94C477.42,-782.57 411.91,-769.02 360.14,-758.1"/>
<polygon fill="black" stroke="black" points="360.82,-754.67 350.31,-756.02 359.37,-761.52 360.82,-754.67"/>
</g>
<!-- INTF&#45;IF_XCO_STRINGS&#45;&gt;INTF&#45;IF_XCO_STRING_ITERABLE -->
<g id="edge26" class="edge">
<title>INTF&#45;IF_XCO_STRINGS&#45;&gt;INTF&#45;IF_XCO_STRING_ITERABLE</title>
<path fill="none" stroke="black" d="M535.64,-791.97C487.24,-781.72 424.23,-768.66 372.14,-758.07"/>
<polygon fill="black" stroke="black" points="372.71,-754.61 362.22,-756.05 371.32,-761.47 372.71,-754.61"/>
</g>
<!-- INTF&#45;IF_XCO_STRING -->
<g id="node5" class="node">
<title>INTF&#45;IF_XCO_STRING</title>
<g id="a_node5"><a xlink:href="./INTF_IF_XCO_STRING.html" xlink:title="INTF&#45;IF_XCO_STRING">
<polygon fill="none" stroke="green" points="515.3,-612 356.7,-612 356.7,-576 515.3,-576 515.3,-612"/>
<text text-anchor="middle" x="436" y="-589.8" font-family="Times,serif" font-size="14.00">INTF&#45;IF_XCO_STRING</text>
</a>
</g>
</g>
<!-- INTF&#45;IF_XCO_STRINGS&#45;&gt;INTF&#45;IF_XCO_STRING -->
<g id="edge3" class="edge">
<title>INTF&#45;IF_XCO_STRINGS&#45;&gt;INTF&#45;IF_XCO_STRING</title>
<path fill="none" stroke="black" d="M528.81,-797.65C501.42,-789.99 473.48,-777.23 455,-756 422.24,-718.36 416.92,-657.51 422.52,-622.39"/>
<polygon fill="black" stroke="black" points="426,-622.87 424.6,-612.37 419.14,-621.45 426,-622.87"/>
</g>
<!-- INTF&#45;IF_XCO_STRINGS&#45;&gt;INTF&#45;IF_XCO_STRING -->
<g id="edge22" class="edge">
<title>INTF&#45;IF_XCO_STRINGS&#45;&gt;INTF&#45;IF_XCO_STRING</title>
<path fill="none" stroke="black" d="M545.78,-791.95C525.82,-784.1 505.5,-772.66 491,-756 458.24,-718.36 452.92,-657.51 447.22,-622.39"/>
<polygon fill="black" stroke="black" points="450.63,-621.59 445.41,-612.37 443.74,-622.83 450.63,-621.59"/>
</g>
<!-- INTF&#45;IF_XCO_TEXT -->
<g id="node6" class="node">
<title>INTF&#45;IF_XCO_TEXT</title>
<g id="a_node6"><a xlink:href="./INTF_IF_XCO_TEXT.html" xlink:title="INTF&#45;IF_XCO_TEXT">
<polygon fill="none" stroke="green" points="145.52,-108 2.48,-108 2.48,-72 145.52,-72 145.52,-108"/>
<text text-anchor="middle" x="74" y="-85.8" font-family="Times,serif" font-size="14.00">INTF&#45;IF_XCO_TEXT</text>
</a>
</g>
</g>
<!-- INTF&#45;IF_XCO_STRINGS&#45;&gt;INTF&#45;IF_XCO_TEXT -->
<g id="edge6" class="edge">
<title>INTF&#45;IF_XCO_STRINGS&#45;&gt;INTF&#45;IF_XCO_TEXT</title>
<path fill="none" stroke="black" d="M528.8,-806.77C361.19,-799.96 0,-772.83 0,-667 0,-667 0,-667 0,-233 0,-189.53 22.99,-143.47 44.25,-115.98"/>
<polygon fill="black" stroke="black" points="47.1,-118.02 50.76,-108.07 41.7,-113.57 47.1,-118.02"/>
</g>
<!-- INTF&#45;IF_XCO_STRINGS&#45;&gt;INTF&#45;IF_XCO_TEXT -->
<g id="edge25" class="edge">
<title>INTF&#45;IF_XCO_STRINGS&#45;&gt;INTF&#45;IF_XCO_TEXT</title>
<path fill="none" stroke="black" d="M528.66,-805.85C368.82,-797.66 36,-768.59 36,-667 36,-667 36,-667 36,-233 36,-190.28 58.21,-145.06 70.16,-117.42"/>
<polygon fill="black" stroke="black" points="73.44,-118.65 74.03,-108.07 66.97,-115.97 73.44,-118.65"/>
</g>
<!-- INTF&#45;IF_XCO_NEWS -->
<g id="node7" class="node">
<title>INTF&#45;IF_XCO_NEWS</title>
<g id="a_node7"><a xlink:href="./INTF_IF_XCO_NEWS.html" xlink:title="INTF&#45;IF_XCO_NEWS">
<polygon fill="none" stroke="green" points="1079.91,-540 932.09,-540 932.09,-504 1079.91,-504 1079.91,-540"/>
<text text-anchor="middle" x="1006" y="-517.8" font-family="Times,serif" font-size="14.00">INTF&#45;IF_XCO_NEWS</text>
</a>
</g>
</g>
<!-- INTF&#45;IF_XCO_STRINGS&#45;&gt;INTF&#45;IF_XCO_NEWS -->
<g id="edge5" class="edge">
<title>INTF&#45;IF_XCO_STRINGS&#45;&gt;INTF&#45;IF_XCO_NEWS</title>
<path fill="none" stroke="black" d="M681.1,-791.94C708.73,-783.68 740.03,-772 766,-756 859.57,-698.37 943.29,-595.28 982.73,-547.97"/>
<polygon fill="black" stroke="black" points="985.61,-549.99 989.35,-540.08 980.24,-545.49 985.61,-549.99"/>
</g>
<!-- INTF&#45;IF_XCO_STRINGS&#45;&gt;INTF&#45;IF_XCO_NEWS -->
<g id="edge24" class="edge">
<title>INTF&#45;IF_XCO_STRINGS&#45;&gt;INTF&#45;IF_XCO_NEWS</title>
<path fill="none" stroke="black" d="M695.42,-792.65C724.89,-784.36 757.27,-772.46 784,-756 877.18,-698.61 960.6,-596.13 992.63,-548.56"/>
<polygon fill="black" stroke="black" points="995.63,-550.36 998.17,-540.08 989.77,-546.54 995.63,-550.36"/>
</g>
<!-- INTF&#45;IF_XCO_STRING_COMPOSITION -->
<g id="node31" class="node">
<title>INTF&#45;IF_XCO_STRING_COMPOSITION</title>
<g id="a_node31"><a xlink:href="./INTF_IF_XCO_STRING_COMPOSITION.html" xlink:title="INTF&#45;IF_XCO_STRING_COMPOSITION">
<polygon fill="none" stroke="green" points="742.45,-756 481.55,-756 481.55,-720 742.45,-720 742.45,-756"/>
<text text-anchor="middle" x="612" y="-733.8" font-family="Times,serif" font-size="14.00">INTF&#45;IF_XCO_STRING_COMPOSITION</text>
</a>
</g>
</g>
<!-- INTF&#45;IF_XCO_STRINGS&#45;&gt;INTF&#45;IF_XCO_STRING_COMPOSITION -->
<g id="edge4" class="edge">
<title>INTF&#45;IF_XCO_STRINGS&#45;&gt;INTF&#45;IF_XCO_STRING_COMPOSITION</title>
<path fill="none" stroke="black" d="M600.17,-791.7C598.58,-783.98 598.12,-774.71 598.81,-766.11"/>
<polygon fill="black" stroke="black" points="602.29,-766.49 600.21,-756.1 595.36,-765.52 602.29,-766.49"/>
</g>
<!-- INTF&#45;IF_XCO_STRINGS&#45;&gt;INTF&#45;IF_XCO_STRING_COMPOSITION -->
<g id="edge23" class="edge">
<title>INTF&#45;IF_XCO_STRINGS&#45;&gt;INTF&#45;IF_XCO_STRING_COMPOSITION</title>
<path fill="none" stroke="black" d="M612,-791.7C612,-783.98 612,-774.71 612,-766.11"/>
<polygon fill="black" stroke="black" points="615.5,-766.1 612,-756.1 608.5,-766.1 615.5,-766.1"/>
</g>
<!-- TTYP&#45;STRING_TABLE -->
<g id="node32" class="node">
<title>TTYP&#45;STRING_TABLE</title>
<g id="a_node32"><a xlink:href="./TTYP_STRING_TABLE.html" xlink:title="TTYP&#45;STRING_TABLE">
<polygon fill="none" stroke="green" points="1012.3,-756 853.7,-756 853.7,-720 1012.3,-720 1012.3,-756"/>
<text text-anchor="middle" x="933" y="-733.8" font-family="Times,serif" font-size="14.00">TTYP&#45;STRING_TABLE</text>
</a>
</g>
</g>
<!-- INTF&#45;IF_XCO_STRINGS&#45;&gt;TTYP&#45;STRING_TABLE -->
<g id="edge2" class="edge">
<title>INTF&#45;IF_XCO_STRINGS&#45;&gt;TTYP&#45;STRING_TABLE</title>
<path fill="none" stroke="black" d="M684.23,-791.97C731.48,-781.42 793.51,-767.88 843.83,-757.14"/>
<polygon fill="black" stroke="black" points="844.67,-760.54 853.73,-755.03 843.22,-753.69 844.67,-760.54"/>
</g>
<!-- INTF&#45;IF_XCO_STRINGS&#45;&gt;TTYP&#45;STRING_TABLE -->
<g id="edge21" class="edge">
<title>INTF&#45;IF_XCO_STRINGS&#45;&gt;TTYP&#45;STRING_TABLE</title>
<path fill="none" stroke="black" d="M695.16,-792.14C743.11,-781.93 803.11,-768.86 850.87,-758.24"/>
<polygon fill="black" stroke="black" points="851.87,-761.6 860.87,-756.01 850.35,-754.77 851.87,-761.6"/>
</g>
<!-- DTEL&#45;INT4 -->
<g id="node33" class="node">
<title>DTEL&#45;INT4</title>
<g id="a_node33"><a xlink:href="./DTEL_INT4.html" xlink:title="DTEL&#45;INT4">
<polygon fill="none" stroke="green" points="1117.25,-756 1030.75,-756 1030.75,-720 1117.25,-720 1117.25,-756"/>
<text text-anchor="middle" x="1074" y="-733.8" font-family="Times,serif" font-size="14.00">DTEL&#45;INT4</text>
</a>
</g>
</g>
<!-- INTF&#45;IF_XCO_STRINGS&#45;&gt;DTEL&#45;INT4 -->
<g id="edge1" class="edge">
<title>INTF&#45;IF_XCO_STRINGS&#45;&gt;DTEL&#45;INT4</title>
<path fill="none" stroke="black" d="M695.17,-802.05C776.6,-794.51 903.68,-780.18 1012,-756 1014.92,-755.35 1017.92,-754.6 1020.93,-753.8"/>
<polygon fill="black" stroke="black" points="1021.93,-757.15 1030.61,-751.07 1020.03,-750.42 1021.93,-757.15"/>
</g>
<!-- INTF&#45;IF_XCO_STRINGS&#45;&gt;DTEL&#45;INT4 -->
<g id="edge20" class="edge">
<title>INTF&#45;IF_XCO_STRINGS&#45;&gt;DTEL&#45;INT4</title>
<path fill="none" stroke="black" d="M695.12,-803.26C777.78,-796.3 907.94,-782.36 1020.75,-758.03"/>
<polygon fill="black" stroke="black" points="1021.55,-761.43 1030.57,-755.87 1020.05,-754.6 1021.55,-761.43"/>
</g>
<!-- INTF&#45;IF_XCO_STRING_ITERATOR -->
<g id="node3" class="node">
<title>INTF&#45;IF_XCO_STRING_ITERATOR</title>
<g id="a_node3"><a xlink:href="./INTF_IF_XCO_STRING_ITERATOR.html" xlink:title="INTF&#45;IF_XCO_STRING_ITERATOR">
<polygon fill="none" stroke="green" points="352.01,-684 117.99,-684 117.99,-648 352.01,-648 352.01,-684"/>
<text text-anchor="middle" x="235" y="-661.8" font-family="Times,serif" font-size="14.00">INTF&#45;IF_XCO_STRING_ITERATOR</text>
</a>
</g>
</g>
<!-- INTF&#45;IF_XCO_STRING_ITERABLE&#45;&gt;INTF&#45;IF_XCO_STRING_ITERATOR -->
<g id="edge8" class="edge">
<title>INTF&#45;IF_XCO_STRING_ITERABLE&#45;&gt;INTF&#45;IF_XCO_STRING_ITERATOR</title>
<path fill="none" stroke="black" d="M264.36,-719.7C259.87,-711.64 254.44,-701.89 249.48,-692.98"/>
<polygon fill="black" stroke="black" points="252.45,-691.14 244.53,-684.1 246.34,-694.54 252.45,-691.14"/>
</g>
<!-- INTF&#45;IF_XCO_ITERATOR -->
<g id="node4" class="node">
<title>INTF&#45;IF_XCO_ITERATOR</title>
<g id="a_node4"><a xlink:href="./INTF_IF_XCO_ITERATOR.html" xlink:title="INTF&#45;IF_XCO_ITERATOR">
<polygon fill="none" stroke="green" points="323.46,-612 146.54,-612 146.54,-576 323.46,-576 323.46,-612"/>
<text text-anchor="middle" x="235" y="-589.8" font-family="Times,serif" font-size="14.00">INTF&#45;IF_XCO_ITERATOR</text>
</a>
</g>
</g>
<!-- INTF&#45;IF_XCO_STRING_ITERATOR&#45;&gt;INTF&#45;IF_XCO_ITERATOR -->
<g id="edge10" class="edge">
<title>INTF&#45;IF_XCO_STRING_ITERATOR&#45;&gt;INTF&#45;IF_XCO_ITERATOR</title>
<path fill="none" stroke="black" d="M235,-647.7C235,-639.98 235,-630.71 235,-622.11"/>
<polygon fill="black" stroke="black" points="238.5,-622.1 235,-612.1 231.5,-622.1 238.5,-622.1"/>
</g>
<!-- INTF&#45;IF_XCO_STRING_ITERATOR&#45;&gt;INTF&#45;IF_XCO_STRING -->
<g id="edge9" class="edge">
<title>INTF&#45;IF_XCO_STRING_ITERATOR&#45;&gt;INTF&#45;IF_XCO_STRING</title>
<path fill="none" stroke="black" d="M283.91,-647.97C312,-638.19 347.46,-625.84 377.07,-615.52"/>
<polygon fill="black" stroke="black" points="378.57,-618.71 386.87,-612.11 376.27,-612.09 378.57,-618.71"/>
</g>
<!-- INTF&#45;IF_XCO_STRING&#45;&gt;INTF&#45;IF_XCO_STRINGS -->
<g id="edge11" class="edge">
<title>INTF&#45;IF_XCO_STRING&#45;&gt;INTF&#45;IF_XCO_STRINGS</title>
<path fill="none" stroke="black" d="M435,-612.37C434.11,-644.67 436.85,-714.46 473,-756 485.3,-770.14 501.8,-780.52 519.12,-788.13"/>
<polygon fill="black" stroke="black" points="518.23,-791.55 528.81,-792.09 520.88,-785.07 518.23,-791.55"/>
</g>
<!-- INTF&#45;IF_XCO_STRING&#45;&gt;INTF&#45;IF_XCO_STRING_ITERABLE -->
<g id="edge18" class="edge">
<title>INTF&#45;IF_XCO_STRING&#45;&gt;INTF&#45;IF_XCO_STRING_ITERABLE</title>
<path fill="none" stroke="black" d="M424.15,-612.17C410.44,-631.23 386.46,-662.17 361,-684 347.55,-695.54 331.3,-706.16 316.5,-714.82"/>
<polygon fill="black" stroke="black" points="314.46,-711.95 307.51,-719.95 317.93,-718.03 314.46,-711.95"/>
</g>
<!-- INTF&#45;IF_XCO_STRING&#45;&gt;INTF&#45;IF_XCO_TEXT -->
<g id="edge17" class="edge">
<title>INTF&#45;IF_XCO_STRING&#45;&gt;INTF&#45;IF_XCO_TEXT</title>
<path fill="none" stroke="black" d="M356.8,-579.95C348.43,-578.6 340.04,-577.26 332,-576 278.94,-567.67 132.12,-576.81 93,-540 63.54,-512.28 74,-491.45 74,-451 74,-451 74,-451 74,-233 74,-193 74,-146.65 74,-118.08"/>
<polygon fill="black" stroke="black" points="77.5,-118.05 74,-108.05 70.5,-118.05 77.5,-118.05"/>
</g>
<!-- INTF&#45;IF_XCO_STRING&#45;&gt;INTF&#45;IF_XCO_NEWS -->
<g id="edge16" class="edge">
<title>INTF&#45;IF_XCO_STRING&#45;&gt;INTF&#45;IF_XCO_NEWS</title>
<path fill="none" stroke="black" d="M515.17,-586.68C609.61,-578.62 772.43,-563.1 921.59,-540.14"/>
<polygon fill="black" stroke="black" points="922.51,-543.54 931.85,-538.55 921.43,-536.62 922.51,-543.54"/>
</g>
<!-- INTF&#45;IF_XCO_MESSAGE -->
<g id="node9" class="node">
<title>INTF&#45;IF_XCO_MESSAGE</title>
<g id="a_node9"><a xlink:href="./INTF_IF_XCO_MESSAGE.html" xlink:title="INTF&#45;IF_XCO_MESSAGE">
<polygon fill="none" stroke="green" points="884.58,-396 711.42,-396 711.42,-360 884.58,-360 884.58,-396"/>
<text text-anchor="middle" x="798" y="-373.8" font-family="Times,serif" font-size="14.00">INTF&#45;IF_XCO_MESSAGE</text>
</a>
</g>
</g>
<!-- INTF&#45;IF_XCO_STRING&#45;&gt;INTF&#45;IF_XCO_MESSAGE -->
<g id="edge13" class="edge">
<title>INTF&#45;IF_XCO_STRING&#45;&gt;INTF&#45;IF_XCO_MESSAGE</title>
<path fill="none" stroke="black" d="M503.75,-575.89C530.8,-567.4 561.51,-555.56 587,-540 606.86,-527.88 607.09,-518.85 625,-504 671.03,-465.85 727.75,-426.14 763.4,-401.99"/>
<polygon fill="black" stroke="black" points="765.66,-404.69 772,-396.2 761.75,-398.89 765.66,-404.69"/>
</g>
<!-- INTF&#45;IF_XCO_XSTRING -->
<g id="node35" class="node">
<title>INTF&#45;IF_XCO_XSTRING</title>
<g id="a_node35"><a xlink:href="./INTF_IF_XCO_XSTRING.html" xlink:title="INTF&#45;IF_XCO_XSTRING">
<polygon fill="none" stroke="green" points="270.41,-540 101.59,-540 101.59,-504 270.41,-504 270.41,-540"/>
<text text-anchor="middle" x="186" y="-517.8" font-family="Times,serif" font-size="14.00">INTF&#45;IF_XCO_XSTRING</text>
</a>
</g>
</g>
<!-- INTF&#45;IF_XCO_STRING&#45;&gt;INTF&#45;IF_XCO_XSTRING -->
<g id="edge15" class="edge">
<title>INTF&#45;IF_XCO_STRING&#45;&gt;INTF&#45;IF_XCO_XSTRING</title>
<path fill="none" stroke="black" d="M369.28,-575.97C332.69,-566.01 287.57,-553.41 251.22,-542.99"/>
<polygon fill="black" stroke="black" points="251.79,-539.51 241.21,-540.11 249.86,-546.24 251.79,-539.51"/>
</g>
<!-- INTF&#45;IF_XCO_STRING_XSTRING_CNVRSN -->
<g id="node37" class="node">
<title>INTF&#45;IF_XCO_STRING_XSTRING_CNVRSN</title>
<g id="a_node37"><a xlink:href="./INTF_IF_XCO_STRING_XSTRING_CNVRSN.html" xlink:title="INTF&#45;IF_XCO_STRING_XSTRING_CNVRSN">
<polygon fill="none" stroke="green" points="577.73,-540 288.27,-540 288.27,-504 577.73,-504 577.73,-540"/>
<text text-anchor="middle" x="433" y="-517.8" font-family="Times,serif" font-size="14.00">INTF&#45;IF_XCO_STRING_XSTRING_CNVRSN</text>
</a>
</g>
</g>
<!-- INTF&#45;IF_XCO_STRING&#45;&gt;INTF&#45;IF_XCO_STRING_XSTRING_CNVRSN -->
<g id="edge14" class="edge">
<title>INTF&#45;IF_XCO_STRING&#45;&gt;INTF&#45;IF_XCO_STRING_XSTRING_CNVRSN</title>
<path fill="none" stroke="black" d="M435.26,-575.7C434.93,-567.98 434.53,-558.71 434.16,-550.11"/>
<polygon fill="black" stroke="black" points="437.66,-549.95 433.73,-540.1 430.66,-550.25 437.66,-549.95"/>
</g>
<!-- INTF&#45;IF_XCO_STRING_DECOMPOSITION -->
<g id="node38" class="node">
<title>INTF&#45;IF_XCO_STRING_DECOMPOSITION</title>
<g id="a_node38"><a xlink:href="./INTF_IF_XCO_STRING_DECOMPOSITION.html" xlink:title="INTF&#45;IF_XCO_STRING_DECOMPOSITION">
<polygon fill="none" stroke="green" points="913.61,-540 634.39,-540 634.39,-504 913.61,-504 913.61,-540"/>
<text text-anchor="middle" x="774" y="-517.8" font-family="Times,serif" font-size="14.00">INTF&#45;IF_XCO_STRING_DECOMPOSITION</text>
</a>
</g>
</g>
<!-- INTF&#45;IF_XCO_STRING&#45;&gt;INTF&#45;IF_XCO_STRING_DECOMPOSITION -->
<g id="edge12" class="edge">
<title>INTF&#45;IF_XCO_STRING&#45;&gt;INTF&#45;IF_XCO_STRING_DECOMPOSITION</title>
<path fill="none" stroke="black" d="M512.36,-575.97C560.76,-565.72 623.77,-552.66 675.86,-542.07"/>
<polygon fill="black" stroke="black" points="676.68,-545.47 685.78,-540.05 675.29,-538.61 676.68,-545.47"/>
</g>
<!-- INTF&#45;IF_XCO_TEXT&#45;&gt;INTF&#45;IF_XCO_STRINGS -->
<g id="edge19" class="edge">
<title>INTF&#45;IF_XCO_TEXT&#45;&gt;INTF&#45;IF_XCO_STRINGS</title>
<path fill="none" stroke="black" d="M62.4,-108.07C45.99,-133.91 18,-185.03 18,-233 18,-667 18,-667 18,-667 18,-768.7 351.54,-797.72 518.75,-805.88"/>
<polygon fill="black" stroke="black" points="518.63,-809.37 528.78,-806.35 518.96,-802.38 518.63,-809.37"/>
</g>
<!-- TTYP&#45;SXCO_T_MESSAGES -->
<g id="node8" class="node">
<title>TTYP&#45;SXCO_T_MESSAGES</title>
<g id="a_node8"><a xlink:href="./TTYP_SXCO_T_MESSAGES.html" xlink:title="TTYP&#45;SXCO_T_MESSAGES">
<polygon fill="none" stroke="green" points="932.15,-468 743.85,-468 743.85,-432 932.15,-432 932.15,-468"/>
<text text-anchor="middle" x="838" y="-445.8" font-family="Times,serif" font-size="14.00">TTYP&#45;SXCO_T_MESSAGES</text>
</a>
</g>
</g>
<!-- INTF&#45;IF_XCO_NEWS&#45;&gt;TTYP&#45;SXCO_T_MESSAGES -->
<g id="edge27" class="edge">
<title>INTF&#45;IF_XCO_NEWS&#45;&gt;TTYP&#45;SXCO_T_MESSAGES</title>
<path fill="none" stroke="black" d="M964.9,-503.88C941.83,-494.26 912.86,-482.19 888.43,-472.01"/>
<polygon fill="black" stroke="black" points="889.54,-468.68 878.96,-468.07 886.85,-475.15 889.54,-468.68"/>
</g>
<!-- TTYP&#45;SXCO_T_MESSAGES&#45;&gt;INTF&#45;IF_XCO_MESSAGE -->
<g id="edge28" class="edge">
<title>TTYP&#45;SXCO_T_MESSAGES&#45;&gt;INTF&#45;IF_XCO_MESSAGE</title>
<path fill="none" stroke="black" d="M828.11,-431.7C823.51,-423.64 817.94,-413.89 812.85,-404.98"/>
<polygon fill="black" stroke="black" points="815.77,-403.05 807.77,-396.1 809.7,-406.52 815.77,-403.05"/>
</g>
<!-- INTF&#45;IF_XCO_MESSAGE&#45;&gt;INTF&#45;IF_XCO_NEWS -->
<g id="edge37" class="edge">
<title>INTF&#45;IF_XCO_MESSAGE&#45;&gt;INTF&#45;IF_XCO_NEWS</title>
<path fill="none" stroke="black" d="M868.33,-396.02C892.91,-404.22 919.67,-415.87 941,-432 963.27,-448.84 981.26,-475.39 992.63,-495.11"/>
<polygon fill="black" stroke="black" points="989.6,-496.87 997.52,-503.91 995.72,-493.47 989.6,-496.87"/>
</g>
<!-- INTF&#45;IF_T100_DYN_MSG -->
<g id="node10" class="node">
<title>INTF&#45;IF_T100_DYN_MSG</title>
<g id="a_node10"><a xlink:href="./INTF_IF_T100_DYN_MSG.html" xlink:title="INTF&#45;IF_T100_DYN_MSG">
<polygon fill="none" stroke="green" points="924.91,-324 749.09,-324 749.09,-288 924.91,-288 924.91,-324"/>
<text text-anchor="middle" x="837" y="-301.8" font-family="Times,serif" font-size="14.00">INTF&#45;IF_T100_DYN_MSG</text>
</a>
</g>
</g>
<!-- INTF&#45;IF_XCO_MESSAGE&#45;&gt;INTF&#45;IF_T100_DYN_MSG -->
<g id="edge36" class="edge">
<title>INTF&#45;IF_XCO_MESSAGE&#45;&gt;INTF&#45;IF_T100_DYN_MSG</title>
<path fill="none" stroke="black" d="M807.64,-359.7C812.13,-351.64 817.56,-341.89 822.52,-332.98"/>
<polygon fill="black" stroke="black" points="825.66,-334.54 827.47,-324.1 819.55,-331.14 825.66,-334.54"/>
</g>
<!-- DTEL&#45;SYMSGNO -->
<g id="node15" class="node">
<title>DTEL&#45;SYMSGNO</title>
<g id="a_node15"><a xlink:href="./DTEL_SYMSGNO.html" xlink:title="DTEL&#45;SYMSGNO">
<polygon fill="none" stroke="green" points="1473.36,-108 1348.64,-108 1348.64,-72 1473.36,-72 1473.36,-108"/>
<text text-anchor="middle" x="1411" y="-85.8" font-family="Times,serif" font-size="14.00">DTEL&#45;SYMSGNO</text>
</a>
</g>
</g>
<!-- INTF&#45;IF_XCO_MESSAGE&#45;&gt;DTEL&#45;SYMSGNO -->
<g id="edge32" class="edge">
<title>INTF&#45;IF_XCO_MESSAGE&#45;&gt;DTEL&#45;SYMSGNO</title>
<path fill="none" stroke="black" d="M884.6,-377.17C1004.98,-373.49 1225.36,-352.15 1379,-252 1414.62,-228.78 1427.04,-219.8 1442,-180 1447.63,-165.02 1446.18,-159.44 1442,-144 1439.42,-134.48 1434.66,-124.92 1429.62,-116.59"/>
<polygon fill="black" stroke="black" points="1432.51,-114.6 1424.15,-108.09 1426.62,-118.39 1432.51,-114.6"/>
</g>
<!-- DTEL&#45;SYMSGID -->
<g id="node17" class="node">
<title>DTEL&#45;SYMSGID</title>
<g id="a_node17"><a xlink:href="./DTEL_SYMSGID.html" xlink:title="DTEL&#45;SYMSGID">
<polygon fill="none" stroke="green" points="1050.92,-108 931.08,-108 931.08,-72 1050.92,-72 1050.92,-108"/>
<text text-anchor="middle" x="991" y="-85.8" font-family="Times,serif" font-size="14.00">DTEL&#45;SYMSGID</text>
</a>
</g>
</g>
<!-- INTF&#45;IF_XCO_MESSAGE&#45;&gt;DTEL&#45;SYMSGID -->
<g id="edge31" class="edge">
<title>INTF&#45;IF_XCO_MESSAGE&#45;&gt;DTEL&#45;SYMSGID</title>
<path fill="none" stroke="black" d="M766,-359.9C731.43,-339.42 678.19,-301.58 655,-252 634.61,-208.4 615.66,-180.53 647,-144 681.57,-103.7 830.77,-93.75 920.94,-91.48"/>
<polygon fill="black" stroke="black" points="921.17,-94.97 931.09,-91.25 921.01,-87.98 921.17,-94.97"/>
</g>
<!-- DTEL&#45;SYMSGTY -->
<g id="node19" class="node">
<title>DTEL&#45;SYMSGTY</title>
<g id="a_node19"><a xlink:href="./DTEL_SYMSGTY.html" xlink:title="DTEL&#45;SYMSGTY">
<polygon fill="none" stroke="green" points="1148.81,-252 1025.19,-252 1025.19,-216 1148.81,-216 1148.81,-252"/>
<text text-anchor="middle" x="1087" y="-229.8" font-family="Times,serif" font-size="14.00">DTEL&#45;SYMSGTY</text>
</a>
</g>
</g>
<!-- INTF&#45;IF_XCO_MESSAGE&#45;&gt;DTEL&#45;SYMSGTY -->
<g id="edge30" class="edge">
<title>INTF&#45;IF_XCO_MESSAGE&#45;&gt;DTEL&#45;SYMSGTY</title>
<path fill="none" stroke="black" d="M847.25,-359.91C873.43,-350.3 905.92,-337.54 934,-324 975.82,-303.84 1021.57,-276.47 1052.04,-257.43"/>
<polygon fill="black" stroke="black" points="1054,-260.34 1060.6,-252.05 1050.27,-254.41 1054,-260.34"/>
</g>
<!-- DTEL&#45;SYMSGV -->
<g id="node21" class="node">
<title>DTEL&#45;SYMSGV</title>
<g id="a_node21"><a xlink:href="./DTEL_SYMSGV.html" xlink:title="DTEL&#45;SYMSGV">
<polygon fill="none" stroke="green" points="778.25,-252 663.75,-252 663.75,-216 778.25,-216 778.25,-252"/>
<text text-anchor="middle" x="721" y="-229.8" font-family="Times,serif" font-size="14.00">DTEL&#45;SYMSGV</text>
</a>
</g>
</g>
<!-- INTF&#45;IF_XCO_MESSAGE&#45;&gt;DTEL&#45;SYMSGV -->
<g id="edge33" class="edge">
<title>INTF&#45;IF_XCO_MESSAGE&#45;&gt;DTEL&#45;SYMSGV</title>
<path fill="none" stroke="black" d="M772.88,-359.81C761.17,-350.53 748.07,-338.08 740,-324 729.16,-305.09 724.49,-280.72 722.48,-262.27"/>
<polygon fill="black" stroke="black" points="725.96,-261.82 721.58,-252.17 718.98,-262.44 725.96,-261.82"/>
</g>
<!-- INTF&#45;IF_XCO_MESSAGE_SHORT_TEXT -->
<g id="node23" class="node">
<title>INTF&#45;IF_XCO_MESSAGE_SHORT_TEXT</title>
<g id="a_node23"><a xlink:href="./INTF_IF_XCO_MESSAGE_SHORT_TEXT.html" xlink:title="INTF&#45;IF_XCO_MESSAGE_SHORT_TEXT">
<polygon fill="none" stroke="green" points="624.23,-324 355.77,-324 355.77,-288 624.23,-288 624.23,-324"/>
<text text-anchor="middle" x="490" y="-301.8" font-family="Times,serif" font-size="14.00">INTF&#45;IF_XCO_MESSAGE_SHORT_TEXT</text>
</a>
</g>
</g>
<!-- INTF&#45;IF_XCO_MESSAGE&#45;&gt;INTF&#45;IF_XCO_MESSAGE_SHORT_TEXT -->
<g id="edge35" class="edge">
<title>INTF&#45;IF_XCO_MESSAGE&#45;&gt;INTF&#45;IF_XCO_MESSAGE_SHORT_TEXT</title>
<path fill="none" stroke="black" d="M717.16,-359.97C671.38,-349.8 614.41,-336.87 568.94,-326.33"/>
<polygon fill="black" stroke="black" points="569.66,-322.9 559.13,-324.05 568.08,-329.72 569.66,-322.9"/>
</g>
<!-- CLAS&#45;CL_XCO_MESSAGE_TYPE -->
<g id="node27" class="node">
<title>CLAS&#45;CL_XCO_MESSAGE_TYPE</title>
<g id="a_node27"><a xlink:href="./CLAS_CL_XCO_MESSAGE_TYPE.html" xlink:title="CLAS&#45;CL_XCO_MESSAGE_TYPE">
<polygon fill="none" stroke="green" points="337.7,-324 112.3,-324 112.3,-288 337.7,-288 337.7,-324"/>
<text text-anchor="middle" x="225" y="-301.8" font-family="Times,serif" font-size="14.00">CLAS&#45;CL_XCO_MESSAGE_TYPE</text>
</a>
</g>
</g>
<!-- INTF&#45;IF_XCO_MESSAGE&#45;&gt;CLAS&#45;CL_XCO_MESSAGE_TYPE -->
<g id="edge34" class="edge">
<title>INTF&#45;IF_XCO_MESSAGE&#45;&gt;CLAS&#45;CL_XCO_MESSAGE_TYPE</title>
<path fill="none" stroke="black" d="M711.22,-363.68C702.04,-362.38 692.83,-361.13 684,-360 537.8,-341.3 498.19,-342.34 347.73,-324.06"/>
<polygon fill="black" stroke="black" points="348,-320.57 337.65,-322.83 347.15,-327.52 348,-320.57"/>
</g>
<!-- TABL&#45;SYMSG -->
<g id="node30" class="node">
<title>TABL&#45;SYMSG</title>
<g id="a_node30"><a xlink:href="./TABL_SYMSG.html" xlink:title="TABL&#45;SYMSG">
<polygon fill="none" stroke="green" points="1139.93,-324 1034.07,-324 1034.07,-288 1139.93,-288 1139.93,-324"/>
<text text-anchor="middle" x="1087" y="-301.8" font-family="Times,serif" font-size="14.00">TABL&#45;SYMSG</text>
</a>
</g>
</g>
<!-- INTF&#45;IF_XCO_MESSAGE&#45;&gt;TABL&#45;SYMSG -->
<g id="edge29" class="edge">
<title>INTF&#45;IF_XCO_MESSAGE&#45;&gt;TABL&#45;SYMSG</title>
<path fill="none" stroke="black" d="M868.33,-359.97C915.96,-348.43 978.34,-333.32 1024.28,-322.19"/>
<polygon fill="black" stroke="black" points="1025.22,-325.56 1034.12,-319.81 1023.57,-318.76 1025.22,-325.56"/>
</g>
<!-- INTF&#45;IF_T100_MESSAGE -->
<g id="node11" class="node">
<title>INTF&#45;IF_T100_MESSAGE</title>
<g id="a_node11"><a xlink:href="./INTF_IF_T100_MESSAGE.html" xlink:title="INTF&#45;IF_T100_MESSAGE">
<polygon fill="none" stroke="green" points="1007.59,-252 834.41,-252 834.41,-216 1007.59,-216 1007.59,-252"/>
<text text-anchor="middle" x="921" y="-229.8" font-family="Times,serif" font-size="14.00">INTF&#45;IF_T100_MESSAGE</text>
</a>
</g>
</g>
<!-- INTF&#45;IF_T100_DYN_MSG&#45;&gt;INTF&#45;IF_T100_MESSAGE -->
<g id="edge41" class="edge">
<title>INTF&#45;IF_T100_DYN_MSG&#45;&gt;INTF&#45;IF_T100_MESSAGE</title>
<path fill="none" stroke="black" d="M857.76,-287.7C868.24,-278.97 881.11,-268.24 892.5,-258.75"/>
<polygon fill="black" stroke="black" points="895.03,-261.19 900.47,-252.1 890.55,-255.82 895.03,-261.19"/>
</g>
<!-- INTF&#45;IF_MESSAGE -->
<g id="node12" class="node">
<title>INTF&#45;IF_MESSAGE</title>
<g id="a_node12"><a xlink:href="./INTF_IF_MESSAGE.html" xlink:title="INTF&#45;IF_MESSAGE">
<polygon fill="none" stroke="green" points="944.04,-180 807.96,-180 807.96,-144 944.04,-144 944.04,-180"/>
<text text-anchor="middle" x="876" y="-157.8" font-family="Times,serif" font-size="14.00">INTF&#45;IF_MESSAGE</text>
</a>
</g>
</g>
<!-- INTF&#45;IF_T100_DYN_MSG&#45;&gt;INTF&#45;IF_MESSAGE -->
<g id="edge40" class="edge">
<title>INTF&#45;IF_T100_DYN_MSG&#45;&gt;INTF&#45;IF_MESSAGE</title>
<path fill="none" stroke="black" d="M829.76,-287.97C823.06,-269.57 815.44,-239.72 825,-216 829.35,-205.21 837.06,-195.39 845.19,-187.21"/>
<polygon fill="black" stroke="black" points="847.79,-189.57 852.7,-180.18 843,-184.46 847.79,-189.57"/>
</g>
<!-- INTF&#45;IF_T100_DYN_MSG&#45;&gt;DTEL&#45;SYMSGTY -->
<g id="edge39" class="edge">
<title>INTF&#45;IF_T100_DYN_MSG&#45;&gt;DTEL&#45;SYMSGTY</title>
<path fill="none" stroke="black" d="M897.84,-287.97C933.53,-277.97 978.79,-265.3 1016.09,-254.85"/>
<polygon fill="black" stroke="black" points="1017.2,-258.18 1025.89,-252.11 1015.32,-251.44 1017.2,-258.18"/>
</g>
<!-- INTF&#45;IF_T100_DYN_MSG&#45;&gt;DTEL&#45;SYMSGV -->
<g id="edge38" class="edge">
<title>INTF&#45;IF_T100_DYN_MSG&#45;&gt;DTEL&#45;SYMSGV</title>
<path fill="none" stroke="black" d="M808.62,-287.88C793.46,-278.72 774.59,-267.34 758.26,-257.48"/>
<polygon fill="black" stroke="black" points="759.86,-254.36 749.49,-252.19 756.24,-260.35 759.86,-254.36"/>
</g>
<!-- INTF&#45;IF_T100_MESSAGE&#45;&gt;INTF&#45;IF_MESSAGE -->
<g id="edge46" class="edge">
<title>INTF&#45;IF_T100_MESSAGE&#45;&gt;INTF&#45;IF_MESSAGE</title>
<path fill="none" stroke="black" d="M909.88,-215.7C904.64,-207.56 898.3,-197.69 892.52,-188.7"/>
<polygon fill="black" stroke="black" points="895.35,-186.62 887,-180.1 889.46,-190.41 895.35,-186.62"/>
</g>
<!-- TABL&#45;SCX_T100KEY -->
<g id="node13" class="node">
<title>TABL&#45;SCX_T100KEY</title>
<g id="a_node13"><a xlink:href="./TABL_SCX_T100KEY.html" xlink:title="TABL&#45;SCX_T100KEY">
<polygon fill="none" stroke="yellow" points="1187.75,-180 1038.25,-180 1038.25,-144 1187.75,-144 1187.75,-180"/>
<text text-anchor="middle" x="1113" y="-157.8" font-family="Times,serif" font-size="14.00">TABL&#45;SCX_T100KEY</text>
</a>
</g>
</g>
<!-- INTF&#45;IF_T100_MESSAGE&#45;&gt;TABL&#45;SCX_T100KEY -->
<g id="edge45" class="edge">
<title>INTF&#45;IF_T100_MESSAGE&#45;&gt;TABL&#45;SCX_T100KEY</title>
<path fill="none" stroke="black" d="M967.97,-215.88C994.68,-206.14 1028.32,-193.87 1056.47,-183.61"/>
<polygon fill="black" stroke="black" points="1057.99,-186.78 1066.18,-180.07 1055.59,-180.21 1057.99,-186.78"/>
</g>
<!-- DTEL&#45;SCX_ATTRNAME -->
<g id="node14" class="node">
<title>DTEL&#45;SCX_ATTRNAME</title>
<g id="a_node14"><a xlink:href="./DTEL_SCX_ATTRNAME.html" xlink:title="DTEL&#45;SCX_ATTRNAME">
<polygon fill="none" stroke="green" points="1278.41,-108 1109.59,-108 1109.59,-72 1278.41,-72 1278.41,-108"/>
<text text-anchor="middle" x="1194" y="-85.8" font-family="Times,serif" font-size="14.00">DTEL&#45;SCX_ATTRNAME</text>
</a>
</g>
</g>
<!-- INTF&#45;IF_T100_MESSAGE&#45;&gt;DTEL&#45;SCX_ATTRNAME -->
<g id="edge44" class="edge">
<title>INTF&#45;IF_T100_MESSAGE&#45;&gt;DTEL&#45;SCX_ATTRNAME</title>
<path fill="none" stroke="black" d="M1007.67,-217.02C1088.02,-202.11 1195.45,-181.88 1197,-180 1211.02,-163.03 1208.52,-137.4 1203.53,-117.99"/>
<polygon fill="black" stroke="black" points="1206.84,-116.84 1200.68,-108.22 1200.12,-118.8 1206.84,-116.84"/>
</g>
<!-- INTF&#45;IF_T100_MESSAGE&#45;&gt;DTEL&#45;SYMSGNO -->
<g id="edge43" class="edge">
<title>INTF&#45;IF_T100_MESSAGE&#45;&gt;DTEL&#45;SYMSGNO</title>
<path fill="none" stroke="black" d="M1007.67,-217.48C1094.49,-201.92 1215.38,-180.24 1216,-180 1243.93,-169.15 1246.22,-157.44 1273,-144 1297.5,-131.71 1325.59,-120.44 1349.99,-111.49"/>
<polygon fill="black" stroke="black" points="1351.29,-114.75 1359.5,-108.05 1348.91,-108.16 1351.29,-114.75"/>
</g>
<!-- INTF&#45;IF_T100_MESSAGE&#45;&gt;DTEL&#45;SYMSGID -->
<g id="edge42" class="edge">
<title>INTF&#45;IF_T100_MESSAGE&#45;&gt;DTEL&#45;SYMSGID</title>
<path fill="none" stroke="black" d="M932.3,-215.68C938.73,-205.5 946.73,-192.25 953,-180 963.49,-159.53 973.62,-135.5 980.79,-117.58"/>
<polygon fill="black" stroke="black" points="984.13,-118.64 984.54,-108.05 977.62,-116.07 984.13,-118.64"/>
</g>
<!-- TABL&#45;SCX_T100KEY&#45;&gt;DTEL&#45;SCX_ATTRNAME -->
<g id="edge49" class="edge">
<title>TABL&#45;SCX_T100KEY&#45;&gt;DTEL&#45;SCX_ATTRNAME</title>
<path fill="none" stroke="black" d="M1133.02,-143.7C1143.13,-134.97 1155.54,-124.24 1166.52,-114.75"/>
<polygon fill="black" stroke="black" points="1168.93,-117.29 1174.21,-108.1 1164.35,-111.99 1168.93,-117.29"/>
</g>
<!-- TABL&#45;SCX_T100KEY&#45;&gt;DTEL&#45;SYMSGNO -->
<g id="edge48" class="edge">
<title>TABL&#45;SCX_T100KEY&#45;&gt;DTEL&#45;SYMSGNO</title>
<path fill="none" stroke="black" d="M1185.52,-143.97C1231.9,-133.07 1291.86,-118.99 1338.28,-108.08"/>
<polygon fill="black" stroke="black" points="1339.34,-111.43 1348.27,-105.73 1337.74,-104.61 1339.34,-111.43"/>
</g>
<!-- TABL&#45;SCX_T100KEY&#45;&gt;DTEL&#45;SYMSGID -->
<g id="edge47" class="edge">
<title>TABL&#45;SCX_T100KEY&#45;&gt;DTEL&#45;SYMSGID</title>
<path fill="none" stroke="black" d="M1083.16,-143.88C1067.06,-134.64 1047,-123.13 1029.71,-113.21"/>
<polygon fill="black" stroke="black" points="1031.37,-110.13 1020.96,-108.19 1027.89,-116.2 1031.37,-110.13"/>
</g>
<!-- DOMA&#45;SYMSGNO -->
<g id="node16" class="node">
<title>DOMA&#45;SYMSGNO</title>
<g id="a_node16"><a xlink:href="./DOMA_SYMSGNO.html" xlink:title="DOMA&#45;SYMSGNO">
<polygon fill="none" stroke="yellow" points="1476.86,-36 1345.14,-36 1345.14,0 1476.86,0 1476.86,-36"/>
<text text-anchor="middle" x="1411" y="-13.8" font-family="Times,serif" font-size="14.00">DOMA&#45;SYMSGNO</text>
</a>
</g>
</g>
<!-- DTEL&#45;SYMSGNO&#45;&gt;DOMA&#45;SYMSGNO -->
<g id="edge50" class="edge">
<title>DTEL&#45;SYMSGNO&#45;&gt;DOMA&#45;SYMSGNO</title>
<path fill="none" stroke="black" d="M1411,-71.7C1411,-63.98 1411,-54.71 1411,-46.11"/>
<polygon fill="black" stroke="black" points="1414.5,-46.1 1411,-36.1 1407.5,-46.1 1414.5,-46.1"/>
</g>
<!-- DOMA&#45;ARBGB -->
<g id="node18" class="node">
<title>DOMA&#45;ARBGB</title>
<g id="a_node18"><a xlink:href="./DOMA_ARBGB.html" xlink:title="DOMA&#45;ARBGB">
<polygon fill="none" stroke="yellow" points="1046.65,-36 935.35,-36 935.35,0 1046.65,0 1046.65,-36"/>
<text text-anchor="middle" x="991" y="-13.8" font-family="Times,serif" font-size="14.00">DOMA&#45;ARBGB</text>
</a>
</g>
</g>
<!-- DTEL&#45;SYMSGID&#45;&gt;DOMA&#45;ARBGB -->
<g id="edge51" class="edge">
<title>DTEL&#45;SYMSGID&#45;&gt;DOMA&#45;ARBGB</title>
<path fill="none" stroke="black" d="M991,-71.7C991,-63.98 991,-54.71 991,-46.11"/>
<polygon fill="black" stroke="black" points="994.5,-46.1 991,-36.1 987.5,-46.1 994.5,-46.1"/>
</g>
<!-- DOMA&#45;SYCHAR01 -->
<g id="node20" class="node">
<title>DOMA&#45;SYCHAR01</title>
<g id="a_node20"><a xlink:href="./DOMA_SYCHAR01.html" xlink:title="DOMA&#45;SYCHAR01">
<polygon fill="none" stroke="yellow" points="1416.2,-180 1281.8,-180 1281.8,-144 1416.2,-144 1416.2,-180"/>
<text text-anchor="middle" x="1349" y="-157.8" font-family="Times,serif" font-size="14.00">DOMA&#45;SYCHAR01</text>
</a>
</g>
</g>
<!-- DTEL&#45;SYMSGTY&#45;&gt;DOMA&#45;SYCHAR01 -->
<g id="edge52" class="edge">
<title>DTEL&#45;SYMSGTY&#45;&gt;DOMA&#45;SYCHAR01</title>
<path fill="none" stroke="black" d="M1148.76,-216.5C1186.63,-206.38 1235.35,-193.37 1275.24,-182.71"/>
<polygon fill="black" stroke="black" points="1276.16,-186.08 1284.92,-180.12 1274.36,-179.32 1276.16,-186.08"/>
</g>
<!-- DOMA&#45;SYCHAR50 -->
<g id="node22" class="node">
<title>DOMA&#45;SYCHAR50</title>
<g id="a_node22"><a xlink:href="./DOMA_SYCHAR50.html" xlink:title="DOMA&#45;SYCHAR50">
<polygon fill="none" stroke="yellow" points="790.2,-180 655.8,-180 655.8,-144 790.2,-144 790.2,-180"/>
<text text-anchor="middle" x="723" y="-157.8" font-family="Times,serif" font-size="14.00">DOMA&#45;SYCHAR50</text>
</a>
</g>
</g>
<!-- DTEL&#45;SYMSGV&#45;&gt;DOMA&#45;SYCHAR50 -->
<g id="edge53" class="edge">
<title>DTEL&#45;SYMSGV&#45;&gt;DOMA&#45;SYCHAR50</title>
<path fill="none" stroke="black" d="M721.49,-215.7C721.71,-207.98 721.98,-198.71 722.23,-190.11"/>
<polygon fill="black" stroke="black" points="725.72,-190.2 722.51,-180.1 718.73,-190 725.72,-190.2"/>
</g>
<!-- INTF&#45;IF_XCO_MESSAGE_SHORT_TEXT&#45;&gt;INTF&#45;IF_XCO_TEXT -->
<g id="edge55" class="edge">
<title>INTF&#45;IF_XCO_MESSAGE_SHORT_TEXT&#45;&gt;INTF&#45;IF_XCO_TEXT</title>
<path fill="none" stroke="black" d="M447.57,-287.96C428.43,-279.01 406.3,-266.81 389,-252 343.63,-213.14 359.05,-176.61 309,-144 263.45,-114.32 203.56,-101.11 155.64,-95.31"/>
<polygon fill="black" stroke="black" points="155.93,-91.82 145.6,-94.18 155.15,-98.77 155.93,-91.82"/>
</g>
<!-- INTF&#45;IF_XCO_MESSAGE_SHORT_TEXT&#45;&gt;INTF&#45;IF_XCO_MESSAGE -->
<g id="edge54" class="edge">
<title>INTF&#45;IF_XCO_MESSAGE_SHORT_TEXT&#45;&gt;INTF&#45;IF_XCO_MESSAGE</title>
<path fill="none" stroke="black" d="M570.91,-324.05C616.7,-334.21 673.68,-347.15 719.13,-357.69"/>
<polygon fill="black" stroke="black" points="718.4,-361.11 728.94,-359.97 719.99,-354.29 718.4,-361.11"/>
</g>
<!-- INTF&#45;IF_XCO_L10N_TEXT -->
<g id="node24" class="node">
<title>INTF&#45;IF_XCO_L10N_TEXT</title>
<g id="a_node24"><a xlink:href="./INTF_IF_XCO_L10N_TEXT.html" xlink:title="INTF&#45;IF_XCO_L10N_TEXT">
<polygon fill="none" stroke="yellow" points="581.68,-252 398.32,-252 398.32,-216 581.68,-216 581.68,-252"/>
<text text-anchor="middle" x="490" y="-229.8" font-family="Times,serif" font-size="14.00">INTF&#45;IF_XCO_L10N_TEXT</text>
</a>
</g>
</g>
<!-- INTF&#45;IF_XCO_MESSAGE_SHORT_TEXT&#45;&gt;INTF&#45;IF_XCO_L10N_TEXT -->
<g id="edge56" class="edge">
<title>INTF&#45;IF_XCO_MESSAGE_SHORT_TEXT&#45;&gt;INTF&#45;IF_XCO_L10N_TEXT</title>
<path fill="none" stroke="black" d="M490,-287.7C490,-279.98 490,-270.71 490,-262.11"/>
<polygon fill="black" stroke="black" points="493.5,-262.1 490,-252.1 486.5,-262.1 493.5,-262.1"/>
</g>
<!-- INTF&#45;IF_XCO_L10N_TEXT&#45;&gt;INTF&#45;IF_XCO_TEXT -->
<g id="edge58" class="edge">
<title>INTF&#45;IF_XCO_L10N_TEXT&#45;&gt;INTF&#45;IF_XCO_TEXT</title>
<path fill="none" stroke="black" d="M470.58,-215.74C442.77,-191.17 393.87,-148.57 384,-144 311.46,-110.39 220.49,-97.89 155.9,-93.35"/>
<polygon fill="black" stroke="black" points="155.98,-89.84 145.77,-92.68 155.52,-96.83 155.98,-89.84"/>
</g>
<!-- DTEL&#45;SPRAS -->
<g id="node25" class="node">
<title>DTEL&#45;SPRAS</title>
<g id="a_node25"><a xlink:href="./DTEL_SPRAS.html" xlink:title="DTEL&#45;SPRAS">
<polygon fill="none" stroke="green" points="539.72,-180 440.28,-180 440.28,-144 539.72,-144 539.72,-180"/>
<text text-anchor="middle" x="490" y="-157.8" font-family="Times,serif" font-size="14.00">DTEL&#45;SPRAS</text>
</a>
</g>
</g>
<!-- INTF&#45;IF_XCO_L10N_TEXT&#45;&gt;DTEL&#45;SPRAS -->
<g id="edge57" class="edge">
<title>INTF&#45;IF_XCO_L10N_TEXT&#45;&gt;DTEL&#45;SPRAS</title>
<path fill="none" stroke="black" d="M490,-215.7C490,-207.98 490,-198.71 490,-190.11"/>
<polygon fill="black" stroke="black" points="493.5,-190.1 490,-180.1 486.5,-190.1 493.5,-190.1"/>
</g>
<!-- DOMA&#45;SPRAS -->
<g id="node26" class="node">
<title>DOMA&#45;SPRAS</title>
<g id="a_node26"><a xlink:href="./DOMA_SPRAS.html" xlink:title="DOMA&#45;SPRAS">
<polygon fill="none" stroke="green" points="543.22,-108 436.78,-108 436.78,-72 543.22,-72 543.22,-108"/>
<text text-anchor="middle" x="490" y="-85.8" font-family="Times,serif" font-size="14.00">DOMA&#45;SPRAS</text>
</a>
</g>
</g>
<!-- DTEL&#45;SPRAS&#45;&gt;DOMA&#45;SPRAS -->
<g id="edge59" class="edge">
<title>DTEL&#45;SPRAS&#45;&gt;DOMA&#45;SPRAS</title>
<path fill="none" stroke="black" d="M490,-143.7C490,-135.98 490,-126.71 490,-118.11"/>
<polygon fill="black" stroke="black" points="493.5,-118.1 490,-108.1 486.5,-118.1 493.5,-118.1"/>
</g>
<!-- CLAS&#45;CL_XCO_MESSAGE_TYPE&#45;&gt;INTF&#45;IF_XCO_NEWS -->
<g id="edge62" class="edge">
<title>CLAS&#45;CL_XCO_MESSAGE_TYPE&#45;&gt;INTF&#45;IF_XCO_NEWS</title>
<path fill="none" stroke="black" d="M272.63,-324.09C362.23,-355.78 562.39,-424.39 735,-468 814.42,-488.07 837.83,-487.54 922.21,-503.88"/>
<polygon fill="black" stroke="black" points="921.76,-507.35 932.24,-505.84 923.1,-500.48 921.76,-507.35"/>
</g>
<!-- CLAS&#45;CL_XCO_MESSAGE_TYPE&#45;&gt;DTEL&#45;SYMSGTY -->
<g id="edge60" class="edge">
<title>CLAS&#45;CL_XCO_MESSAGE_TYPE&#45;&gt;DTEL&#45;SYMSGTY</title>
<path fill="none" stroke="black" d="M337.63,-288.95C340.79,-288.62 343.91,-288.3 347,-288 640.5,-259.72 720.18,-294.57 1015.15,-252.12"/>
<polygon fill="black" stroke="black" points="1015.89,-255.55 1025.29,-250.64 1014.88,-248.62 1015.89,-255.55"/>
</g>
<!-- CLAS&#45;CL_XCO_ENUM_CONSTANT -->
<g id="node28" class="node">
<title>CLAS&#45;CL_XCO_ENUM_CONSTANT</title>
<g id="a_node28"><a xlink:href="./CLAS_CL_XCO_ENUM_CONSTANT.html" xlink:title="CLAS&#45;CL_XCO_ENUM_CONSTANT">
<polygon fill="none" stroke="yellow" points="342.24,-252 101.76,-252 101.76,-216 342.24,-216 342.24,-252"/>
<text text-anchor="middle" x="222" y="-229.8" font-family="Times,serif" font-size="14.00">CLAS&#45;CL_XCO_ENUM_CONSTANT</text>
</a>
</g>
</g>
<!-- CLAS&#45;CL_XCO_MESSAGE_TYPE&#45;&gt;CLAS&#45;CL_XCO_ENUM_CONSTANT -->
<g id="edge61" class="edge">
<title>CLAS&#45;CL_XCO_MESSAGE_TYPE&#45;&gt;CLAS&#45;CL_XCO_ENUM_CONSTANT</title>
<path fill="none" stroke="black" d="M224.26,-287.7C223.93,-279.98 223.53,-270.71 223.16,-262.11"/>
<polygon fill="black" stroke="black" points="226.66,-261.95 222.73,-252.1 219.66,-262.25 226.66,-261.95"/>
</g>
<!-- INTF&#45;IF_XCO_PRINTABLE -->
<g id="node29" class="node">
<title>INTF&#45;IF_XCO_PRINTABLE</title>
<g id="a_node29"><a xlink:href="./INTF_IF_XCO_PRINTABLE.html" xlink:title="INTF&#45;IF_XCO_PRINTABLE">
<polygon fill="none" stroke="green" points="300.24,-180 115.76,-180 115.76,-144 300.24,-144 300.24,-180"/>
<text text-anchor="middle" x="208" y="-157.8" font-family="Times,serif" font-size="14.00">INTF&#45;IF_XCO_PRINTABLE</text>
</a>
</g>
</g>
<!-- CLAS&#45;CL_XCO_ENUM_CONSTANT&#45;&gt;INTF&#45;IF_XCO_PRINTABLE -->
<g id="edge63" class="edge">
<title>CLAS&#45;CL_XCO_ENUM_CONSTANT&#45;&gt;INTF&#45;IF_XCO_PRINTABLE</title>
<path fill="none" stroke="black" d="M218.54,-215.7C217,-207.98 215.14,-198.71 213.42,-190.11"/>
<polygon fill="black" stroke="black" points="216.81,-189.22 211.42,-180.1 209.95,-190.6 216.81,-189.22"/>
</g>
<!-- INTF&#45;IF_XCO_PRINTABLE&#45;&gt;INTF&#45;IF_XCO_TEXT -->
<g id="edge64" class="edge">
<title>INTF&#45;IF_XCO_PRINTABLE&#45;&gt;INTF&#45;IF_XCO_TEXT</title>
<path fill="none" stroke="black" d="M175.22,-143.88C157.37,-134.55 135.1,-122.92 116,-112.94"/>
<polygon fill="black" stroke="black" points="117.39,-109.72 106.91,-108.19 114.15,-115.92 117.39,-109.72"/>
</g>
<!-- TABL&#45;SYMSG&#45;&gt;DTEL&#45;SYMSGNO -->
<g id="edge67" class="edge">
<title>TABL&#45;SYMSG&#45;&gt;DTEL&#45;SYMSGNO</title>
<path fill="none" stroke="black" d="M1139.73,-303.08C1217.33,-297.07 1360.11,-273.19 1425,-180 1437.71,-161.75 1431.98,-136.31 1424.37,-117.3"/>
<polygon fill="black" stroke="black" points="1427.53,-115.78 1420.31,-108.02 1421.11,-118.58 1427.53,-115.78"/>
</g>
<!-- TABL&#45;SYMSG&#45;&gt;DTEL&#45;SYMSGID -->
<g id="edge66" class="edge">
<title>TABL&#45;SYMSG&#45;&gt;DTEL&#45;SYMSGID</title>
<path fill="none" stroke="black" d="M1122.17,-287.94C1135.98,-279.25 1150.35,-267.26 1158,-252 1165.17,-237.7 1167.67,-228.74 1158,-216 1122.01,-168.59 1073.76,-219.24 1029,-180 1010.79,-164.04 1001.04,-137.85 996,-118"/>
<polygon fill="black" stroke="black" points="999.35,-116.98 993.71,-108.01 992.53,-118.54 999.35,-116.98"/>
</g>
<!-- TABL&#45;SYMSG&#45;&gt;DTEL&#45;SYMSGTY -->
<g id="edge65" class="edge">
<title>TABL&#45;SYMSG&#45;&gt;DTEL&#45;SYMSGTY</title>
<path fill="none" stroke="black" d="M1087,-287.7C1087,-279.98 1087,-270.71 1087,-262.11"/>
<polygon fill="black" stroke="black" points="1090.5,-262.1 1087,-252.1 1083.5,-262.1 1090.5,-262.1"/>
</g>
<!-- TABL&#45;SYMSG&#45;&gt;DTEL&#45;SYMSGV -->
<g id="edge68" class="edge">
<title>TABL&#45;SYMSG&#45;&gt;DTEL&#45;SYMSGV</title>
<path fill="none" stroke="black" d="M1034.17,-294.9C969.36,-282.5 859.38,-261.47 788.5,-247.91"/>
<polygon fill="black" stroke="black" points="788.82,-244.41 778.34,-245.97 787.5,-251.28 788.82,-244.41"/>
</g>
<!-- INTF&#45;IF_XCO_STRING_COMPOSITION&#45;&gt;INTF&#45;IF_XCO_STRINGS -->
<g id="edge69" class="edge">
<title>INTF&#45;IF_XCO_STRING_COMPOSITION&#45;&gt;INTF&#45;IF_XCO_STRINGS</title>
<path fill="none" stroke="black" d="M623.79,-756.1C625.4,-763.79 625.87,-773.05 625.21,-781.67"/>
<polygon fill="black" stroke="black" points="621.72,-781.31 623.83,-791.7 628.66,-782.27 621.72,-781.31"/>
</g>
<!-- INTF&#45;IF_XCO_STRING_COMPOSITION&#45;&gt;INTF&#45;IF_XCO_STRING -->
<g id="edge70" class="edge">
<title>INTF&#45;IF_XCO_STRING_COMPOSITION&#45;&gt;INTF&#45;IF_XCO_STRING</title>
<path fill="none" stroke="black" d="M590.77,-719.87C559.45,-694.6 500.77,-647.25 465.35,-618.68"/>
<polygon fill="black" stroke="black" points="467.29,-615.74 457.31,-612.19 462.89,-621.19 467.29,-615.74"/>
</g>
<!-- DOMA&#45;INT4 -->
<g id="node34" class="node">
<title>DOMA&#45;INT4</title>
<g id="a_node34"><a xlink:href="./DOMA_INT4.html" xlink:title="DOMA&#45;INT4">
<polygon fill="none" stroke="yellow" points="1120.75,-684 1027.25,-684 1027.25,-648 1120.75,-648 1120.75,-684"/>
<text text-anchor="middle" x="1074" y="-661.8" font-family="Times,serif" font-size="14.00">DOMA&#45;INT4</text>
</a>
</g>
</g>
<!-- DTEL&#45;INT4&#45;&gt;DOMA&#45;INT4 -->
<g id="edge71" class="edge">
<title>DTEL&#45;INT4&#45;&gt;DOMA&#45;INT4</title>
<path fill="none" stroke="black" d="M1074,-719.7C1074,-711.98 1074,-702.71 1074,-694.11"/>
<polygon fill="black" stroke="black" points="1077.5,-694.1 1074,-684.1 1070.5,-694.1 1077.5,-694.1"/>
</g>
<!-- INTF&#45;IF_XCO_XSTRING&#45;&gt;INTF&#45;IF_XCO_STRING -->
<g id="edge73" class="edge">
<title>INTF&#45;IF_XCO_XSTRING&#45;&gt;INTF&#45;IF_XCO_STRING</title>
<path fill="none" stroke="black" d="M253.01,-540.11C289.64,-550.08 334.76,-562.68 371.06,-573.09"/>
<polygon fill="black" stroke="black" points="370.47,-576.57 381.05,-575.97 372.41,-569.84 370.47,-576.57"/>
</g>
<!-- INTF&#45;IF_XCO_XSTRING_STRING_CNVRSN -->
<g id="node36" class="node">
<title>INTF&#45;IF_XCO_XSTRING_STRING_CNVRSN</title>
<g id="a_node36"><a xlink:href="./INTF_IF_XCO_XSTRING_STRING_CNVRSN.html" xlink:title="INTF&#45;IF_XCO_XSTRING_STRING_CNVRSN">
<polygon fill="none" stroke="green" points="391.73,-468 102.27,-468 102.27,-432 391.73,-432 391.73,-468"/>
<text text-anchor="middle" x="247" y="-445.8" font-family="Times,serif" font-size="14.00">INTF&#45;IF_XCO_XSTRING_STRING_CNVRSN</text>
</a>
</g>
</g>
<!-- INTF&#45;IF_XCO_XSTRING&#45;&gt;INTF&#45;IF_XCO_XSTRING_STRING_CNVRSN -->
<g id="edge72" class="edge">
<title>INTF&#45;IF_XCO_XSTRING&#45;&gt;INTF&#45;IF_XCO_XSTRING_STRING_CNVRSN</title>
<path fill="none" stroke="black" d="M201.08,-503.7C208.39,-495.3 217.31,-485.07 225.34,-475.86"/>
<polygon fill="black" stroke="black" points="228.16,-477.94 232.09,-468.1 222.89,-473.34 228.16,-477.94"/>
</g>
<!-- INTF&#45;IF_XCO_STRING_DECOMPOSITION&#45;&gt;INTF&#45;IF_XCO_STRINGS -->
<g id="edge75" class="edge">
<title>INTF&#45;IF_XCO_STRING_DECOMPOSITION&#45;&gt;INTF&#45;IF_XCO_STRINGS</title>
<path fill="none" stroke="black" d="M777.83,-540.09C786.13,-581.81 801.22,-690.27 751,-756 739.25,-771.38 722.47,-782.3 704.61,-790.04"/>
<polygon fill="black" stroke="black" points="703.17,-786.85 695.19,-793.81 705.77,-793.35 703.17,-786.85"/>
</g>
<!-- INTF&#45;IF_XCO_STRING_DECOMPOSITION&#45;&gt;INTF&#45;IF_XCO_STRING -->
<g id="edge74" class="edge">
<title>INTF&#45;IF_XCO_STRING_DECOMPOSITION&#45;&gt;INTF&#45;IF_XCO_STRING</title>
<path fill="none" stroke="black" d="M697.69,-540.02C646.52,-550.86 578.97,-564.85 525.3,-575.73"/>
<polygon fill="black" stroke="black" points="524.55,-572.31 515.45,-577.72 525.94,-579.17 524.55,-572.31"/>
</g>
</g>
</svg>
