<?xml version="1.0" encoding="UTF-8" standalone="no"?>
<!DOCTYPE svg PUBLIC "-//W3C//DTD SVG 1.1//EN"
 "http://www.w3.org/Graphics/SVG/1.1/DTD/svg11.dtd">
<!-- Generated by graphviz version 2.47.3 (20210619.1520)
 -->
<!-- Title: G Pages: 1 -->
<svg width="2262pt" height="188pt"
 viewBox="0.00 0.00 2262.02 188.00" xmlns="http://www.w3.org/2000/svg" xmlns:xlink="http://www.w3.org/1999/xlink">
<g id="graph0" class="graph" transform="scale(1 1) rotate(0) translate(4 184)">
<title>G</title>
<polygon fill="white" stroke="transparent" points="-4,4 -4,-184 2258.02,-184 2258.02,4 -4,4"/>
<!-- INTF&#45;IF_SOAP_PERSIST_SET -->
<g id="node1" class="node">
<title>INTF&#45;IF_SOAP_PERSIST_SET</title>
<polygon fill="none" stroke="yellow" points="1304.2,-180 1103.55,-180 1103.55,-144 1304.2,-144 1304.2,-180"/>
<text text-anchor="middle" x="1203.87" y="-157.8" font-family="Times,serif" font-size="14.00">INTF&#45;IF_SOAP_PERSIST_SET</text>
</g>
<!-- DTEL&#45;INT4 -->
<g id="node2" class="node">
<title>DTEL&#45;INT4</title>
<g id="a_node2"><a xlink:href="./DTEL_INT4.html" xlink:title="DTEL&#45;INT4">
<polygon fill="none" stroke="green" points="97.12,-108 10.63,-108 10.63,-72 97.12,-72 97.12,-108"/>
<text text-anchor="middle" x="53.87" y="-85.8" font-family="Times,serif" font-size="14.00">DTEL&#45;INT4</text>
</a>
</g>
</g>
<!-- INTF&#45;IF_SOAP_PERSIST_SET&#45;&gt;DTEL&#45;INT4 -->
<g id="edge14" class="edge">
<title>INTF&#45;IF_SOAP_PERSIST_SET&#45;&gt;DTEL&#45;INT4</title>
<path fill="none" stroke="black" d="M1103.53,-159.36C870.51,-155.04 298.2,-141.29 108.87,-108 108.27,-107.89 107.67,-107.78 107.07,-107.67"/>
<polygon fill="black" stroke="black" points="107.68,-104.22 97.16,-105.48 106.17,-111.06 107.68,-104.22"/>
</g>
<!-- DTEL&#45;NUMC3 -->
<g id="node4" class="node">
<title>DTEL&#45;NUMC3</title>
<g id="a_node4"><a xlink:href="./DTEL_NUMC3.html" xlink:title="DTEL&#45;NUMC3">
<polygon fill="none" stroke="yellow" points="223.79,-108 117.95,-108 117.95,-72 223.79,-72 223.79,-108"/>
<text text-anchor="middle" x="170.87" y="-85.8" font-family="Times,serif" font-size="14.00">DTEL&#45;NUMC3</text>
</a>
</g>
</g>
<!-- INTF&#45;IF_SOAP_PERSIST_SET&#45;&gt;DTEL&#45;NUMC3 -->
<g id="edge13" class="edge">
<title>INTF&#45;IF_SOAP_PERSIST_SET&#45;&gt;DTEL&#45;NUMC3</title>
<path fill="none" stroke="black" d="M1103.47,-159.81C930.41,-156.76 565.04,-145.98 258.87,-108 250.66,-106.98 242.06,-105.65 233.59,-104.18"/>
<polygon fill="black" stroke="black" points="234.2,-100.74 223.74,-102.41 232.96,-107.63 234.2,-100.74"/>
</g>
<!-- DTEL&#45;TIMESTAMP -->
<g id="node6" class="node">
<title>DTEL&#45;TIMESTAMP</title>
<g id="a_node6"><a xlink:href="./DTEL_TIMESTAMP.html" xlink:title="DTEL&#45;TIMESTAMP">
<polygon fill="none" stroke="green" points="405.68,-108 268.07,-108 268.07,-72 405.68,-72 405.68,-108"/>
<text text-anchor="middle" x="336.87" y="-85.8" font-family="Times,serif" font-size="14.00">DTEL&#45;TIMESTAMP</text>
</a>
</g>
</g>
<!-- INTF&#45;IF_SOAP_PERSIST_SET&#45;&gt;DTEL&#45;TIMESTAMP -->
<g id="edge12" class="edge">
<title>INTF&#45;IF_SOAP_PERSIST_SET&#45;&gt;DTEL&#45;TIMESTAMP</title>
<path fill="none" stroke="black" d="M1103.62,-155.83C961.03,-148.02 691.56,-131.58 462.87,-108 447.65,-106.43 431.44,-104.46 415.88,-102.43"/>
<polygon fill="black" stroke="black" points="416.14,-98.94 405.77,-101.09 415.22,-105.88 416.14,-98.94"/>
</g>
<!-- DTEL&#45;SRT_SEQUENCE_ID -->
<g id="node8" class="node">
<title>DTEL&#45;SRT_SEQUENCE_ID</title>
<g id="a_node8"><a xlink:href="./DTEL_SRT_SEQUENCE_ID.html" xlink:title="DTEL&#45;SRT_SEQUENCE_ID">
<polygon fill="none" stroke="yellow" points="655.83,-108 471.91,-108 471.91,-72 655.83,-72 655.83,-108"/>
<text text-anchor="middle" x="563.87" y="-85.8" font-family="Times,serif" font-size="14.00">DTEL&#45;SRT_SEQUENCE_ID</text>
</a>
</g>
</g>
<!-- INTF&#45;IF_SOAP_PERSIST_SET&#45;&gt;DTEL&#45;SRT_SEQUENCE_ID -->
<g id="edge11" class="edge">
<title>INTF&#45;IF_SOAP_PERSIST_SET&#45;&gt;DTEL&#45;SRT_SEQUENCE_ID</title>
<path fill="none" stroke="black" d="M1103.59,-151.66C999.73,-141.75 832.78,-125.19 688.87,-108 681.46,-107.12 673.81,-106.16 666.11,-105.18"/>
<polygon fill="black" stroke="black" points="666.35,-101.68 655.99,-103.87 665.46,-108.63 666.35,-101.68"/>
</g>
<!-- DTEL&#45;SYUNAME -->
<g id="node10" class="node">
<title>DTEL&#45;SYUNAME</title>
<g id="a_node10"><a xlink:href="./DTEL_SYUNAME.html" xlink:title="DTEL&#45;SYUNAME">
<polygon fill="none" stroke="green" points="823.5,-108 698.24,-108 698.24,-72 823.5,-72 823.5,-108"/>
<text text-anchor="middle" x="760.87" y="-85.8" font-family="Times,serif" font-size="14.00">DTEL&#45;SYUNAME</text>
</a>
</g>
</g>
<!-- INTF&#45;IF_SOAP_PERSIST_SET&#45;&gt;DTEL&#45;SYUNAME -->
<g id="edge10" class="edge">
<title>INTF&#45;IF_SOAP_PERSIST_SET&#45;&gt;DTEL&#45;SYUNAME</title>
<path fill="none" stroke="black" d="M1103.59,-149.29C1030.97,-140.21 930.3,-126.38 833.48,-108.22"/>
<polygon fill="black" stroke="black" points="834,-104.76 823.52,-106.34 832.7,-111.64 834,-104.76"/>
</g>
<!-- DTEL&#45;SRT_SEQ_QUEUENAME -->
<g id="node12" class="node">
<title>DTEL&#45;SRT_SEQ_QUEUENAME</title>
<g id="a_node12"><a xlink:href="./DTEL_SRT_SEQ_QUEUENAME.html" xlink:title="DTEL&#45;SRT_SEQ_QUEUENAME">
<polygon fill="none" stroke="yellow" points="1052.55,-108 841.2,-108 841.2,-72 1052.55,-72 1052.55,-108"/>
<text text-anchor="middle" x="946.87" y="-85.8" font-family="Times,serif" font-size="14.00">DTEL&#45;SRT_SEQ_QUEUENAME</text>
</a>
</g>
</g>
<!-- INTF&#45;IF_SOAP_PERSIST_SET&#45;&gt;DTEL&#45;SRT_SEQ_QUEUENAME -->
<g id="edge9" class="edge">
<title>INTF&#45;IF_SOAP_PERSIST_SET&#45;&gt;DTEL&#45;SRT_SEQ_QUEUENAME</title>
<path fill="none" stroke="black" d="M1141.33,-143.97C1104.64,-133.97 1058.11,-121.3 1019.76,-110.85"/>
<polygon fill="black" stroke="black" points="1020.26,-107.36 1009.69,-108.11 1018.42,-114.12 1020.26,-107.36"/>
</g>
<!-- DTEL&#45;SYMANDT -->
<g id="node14" class="node">
<title>DTEL&#45;SYMANDT</title>
<g id="a_node14"><a xlink:href="./DTEL_SYMANDT.html" xlink:title="DTEL&#45;SYMANDT">
<polygon fill="none" stroke="yellow" points="1195.5,-108 1070.24,-108 1070.24,-72 1195.5,-72 1195.5,-108"/>
<text text-anchor="middle" x="1132.87" y="-85.8" font-family="Times,serif" font-size="14.00">DTEL&#45;SYMANDT</text>
</a>
</g>
</g>
<!-- INTF&#45;IF_SOAP_PERSIST_SET&#45;&gt;DTEL&#45;SYMANDT -->
<g id="edge8" class="edge">
<title>INTF&#45;IF_SOAP_PERSIST_SET&#45;&gt;DTEL&#45;SYMANDT</title>
<path fill="none" stroke="black" d="M1186.32,-143.7C1177.64,-135.14 1167.01,-124.66 1157.52,-115.3"/>
<polygon fill="black" stroke="black" points="1159.8,-112.63 1150.22,-108.1 1154.88,-117.62 1159.8,-112.63"/>
</g>
<!-- DTEL&#45;AIT_SNDR -->
<g id="node16" class="node">
<title>DTEL&#45;AIT_SNDR</title>
<g id="a_node16"><a xlink:href="./DTEL_AIT_SNDR.html" xlink:title="DTEL&#45;AIT_SNDR">
<polygon fill="none" stroke="yellow" points="1337.95,-108 1213.8,-108 1213.8,-72 1337.95,-72 1337.95,-108"/>
<text text-anchor="middle" x="1275.87" y="-85.8" font-family="Times,serif" font-size="14.00">DTEL&#45;AIT_SNDR</text>
</a>
</g>
</g>
<!-- INTF&#45;IF_SOAP_PERSIST_SET&#45;&gt;DTEL&#45;AIT_SNDR -->
<g id="edge7" class="edge">
<title>INTF&#45;IF_SOAP_PERSIST_SET&#45;&gt;DTEL&#45;AIT_SNDR</title>
<path fill="none" stroke="black" d="M1221.67,-143.7C1230.48,-135.14 1241.25,-124.66 1250.87,-115.3"/>
<polygon fill="black" stroke="black" points="1253.55,-117.58 1258.28,-108.1 1248.67,-112.57 1253.55,-117.58"/>
</g>
<!-- DTEL&#45;SXMSQOS -->
<g id="node18" class="node">
<title>DTEL&#45;SXMSQOS</title>
<g id="a_node18"><a xlink:href="./DTEL_SXMSQOS.html" xlink:title="DTEL&#45;SXMSQOS">
<polygon fill="none" stroke="yellow" points="1477.91,-108 1355.83,-108 1355.83,-72 1477.91,-72 1477.91,-108"/>
<text text-anchor="middle" x="1416.87" y="-85.8" font-family="Times,serif" font-size="14.00">DTEL&#45;SXMSQOS</text>
</a>
</g>
</g>
<!-- INTF&#45;IF_SOAP_PERSIST_SET&#45;&gt;DTEL&#45;SXMSQOS -->
<g id="edge6" class="edge">
<title>INTF&#45;IF_SOAP_PERSIST_SET&#45;&gt;DTEL&#45;SXMSQOS</title>
<path fill="none" stroke="black" d="M1255.71,-143.97C1285.73,-134.1 1323.7,-121.62 1355.24,-111.25"/>
<polygon fill="black" stroke="black" points="1356.4,-114.56 1364.81,-108.11 1354.21,-107.91 1356.4,-114.56"/>
</g>
<!-- TABL&#45;QNAME -->
<g id="node20" class="node">
<title>TABL&#45;QNAME</title>
<g id="a_node20"><a xlink:href="./TABL_QNAME.html" xlink:title="TABL&#45;QNAME">
<polygon fill="none" stroke="green" points="1604.9,-108 1496.85,-108 1496.85,-72 1604.9,-72 1604.9,-108"/>
<text text-anchor="middle" x="1550.87" y="-85.8" font-family="Times,serif" font-size="14.00">TABL&#45;QNAME</text>
</a>
</g>
</g>
<!-- INTF&#45;IF_SOAP_PERSIST_SET&#45;&gt;TABL&#45;QNAME -->
<g id="edge5" class="edge">
<title>INTF&#45;IF_SOAP_PERSIST_SET&#45;&gt;TABL&#45;QNAME</title>
<path fill="none" stroke="black" d="M1304.11,-144.1C1358.4,-134.48 1426.54,-121.64 1486.87,-108 1486.97,-107.98 1487.08,-107.95 1487.18,-107.93"/>
<polygon fill="black" stroke="black" points="1487.89,-111.36 1496.82,-105.66 1486.28,-104.55 1487.89,-111.36"/>
</g>
<!-- DTEL&#45;SXMSPMTYPE -->
<g id="node21" class="node">
<title>DTEL&#45;SXMSPMTYPE</title>
<g id="a_node21"><a xlink:href="./DTEL_SXMSPMTYPE.html" xlink:title="DTEL&#45;SXMSPMTYPE">
<polygon fill="none" stroke="yellow" points="1772.64,-108 1623.11,-108 1623.11,-72 1772.64,-72 1772.64,-108"/>
<text text-anchor="middle" x="1697.87" y="-85.8" font-family="Times,serif" font-size="14.00">DTEL&#45;SXMSPMTYPE</text>
</a>
</g>
</g>
<!-- INTF&#45;IF_SOAP_PERSIST_SET&#45;&gt;DTEL&#45;SXMSPMTYPE -->
<g id="edge4" class="edge">
<title>INTF&#45;IF_SOAP_PERSIST_SET&#45;&gt;DTEL&#45;SXMSPMTYPE</title>
<path fill="none" stroke="black" d="M1304.42,-150.02C1385.16,-140.74 1501.66,-126.29 1612.77,-108.12"/>
<polygon fill="black" stroke="black" points="1613.52,-111.54 1622.82,-106.47 1612.38,-104.64 1613.52,-111.54"/>
</g>
<!-- DTEL&#45;BOOLEAN -->
<g id="node23" class="node">
<title>DTEL&#45;BOOLEAN</title>
<g id="a_node23"><a xlink:href="./DTEL_BOOLEAN.html" xlink:title="DTEL&#45;BOOLEAN">
<polygon fill="none" stroke="yellow" points="1914.67,-108 1791.08,-108 1791.08,-72 1914.67,-72 1914.67,-108"/>
<text text-anchor="middle" x="1852.87" y="-85.8" font-family="Times,serif" font-size="14.00">DTEL&#45;BOOLEAN</text>
</a>
</g>
</g>
<!-- INTF&#45;IF_SOAP_PERSIST_SET&#45;&gt;DTEL&#45;BOOLEAN -->
<g id="edge3" class="edge">
<title>INTF&#45;IF_SOAP_PERSIST_SET&#45;&gt;DTEL&#45;BOOLEAN</title>
<path fill="none" stroke="black" d="M1304.15,-156.18C1417.66,-149.74 1608.15,-135.93 1780.98,-108"/>
<polygon fill="black" stroke="black" points="1781.72,-111.43 1791.02,-106.36 1780.59,-104.52 1781.72,-111.43"/>
</g>
<!-- DTEL&#45;SXMSPMSTAT -->
<g id="node25" class="node">
<title>DTEL&#45;SXMSPMSTAT</title>
<g id="a_node25"><a xlink:href="./DTEL_SXMSPMSTAT.html" xlink:title="DTEL&#45;SXMSPMSTAT">
<polygon fill="none" stroke="yellow" points="2085.64,-108 1936.11,-108 1936.11,-72 2085.64,-72 2085.64,-108"/>
<text text-anchor="middle" x="2010.87" y="-85.8" font-family="Times,serif" font-size="14.00">DTEL&#45;SXMSPMSTAT</text>
</a>
</g>
</g>
<!-- INTF&#45;IF_SOAP_PERSIST_SET&#45;&gt;DTEL&#45;SXMSPMSTAT -->
<g id="edge2" class="edge">
<title>INTF&#45;IF_SOAP_PERSIST_SET&#45;&gt;DTEL&#45;SXMSPMSTAT</title>
<path fill="none" stroke="black" d="M1304.14,-157.4C1443.61,-151.54 1703.83,-137.49 1923.87,-108 1924.49,-107.92 1925.11,-107.83 1925.74,-107.75"/>
<polygon fill="black" stroke="black" points="1926.61,-111.15 1935.99,-106.22 1925.58,-104.23 1926.61,-111.15"/>
</g>
<!-- DTEL&#45;TIMESTAMPL -->
<g id="node27" class="node">
<title>DTEL&#45;TIMESTAMPL</title>
<g id="a_node27"><a xlink:href="./DTEL_TIMESTAMPL.html" xlink:title="DTEL&#45;TIMESTAMPL">
<polygon fill="none" stroke="green" points="2252.73,-108 2107.02,-108 2107.02,-72 2252.73,-72 2252.73,-108"/>
<text text-anchor="middle" x="2179.87" y="-85.8" font-family="Times,serif" font-size="14.00">DTEL&#45;TIMESTAMPL</text>
</a>
</g>
</g>
<!-- INTF&#45;IF_SOAP_PERSIST_SET&#45;&gt;DTEL&#45;TIMESTAMPL -->
<g id="edge1" class="edge">
<title>INTF&#45;IF_SOAP_PERSIST_SET&#45;&gt;DTEL&#45;TIMESTAMPL</title>
<path fill="none" stroke="black" d="M1304.18,-159.54C1469.57,-156.12 1809.59,-144.83 2094.87,-108 2095.48,-107.92 2096.09,-107.84 2096.7,-107.76"/>
<polygon fill="black" stroke="black" points="2097.33,-111.2 2106.72,-106.3 2096.32,-104.28 2097.33,-111.2"/>
</g>
<!-- DOMA&#45;INT4 -->
<g id="node3" class="node">
<title>DOMA&#45;INT4</title>
<g id="a_node3"><a xlink:href="./DOMA_INT4.html" xlink:title="DOMA&#45;INT4">
<polygon fill="none" stroke="yellow" points="93.62,-36 0.13,-36 0.13,0 93.62,0 93.62,-36"/>
<text text-anchor="middle" x="46.87" y="-13.8" font-family="Times,serif" font-size="14.00">DOMA&#45;INT4</text>
</a>
</g>
</g>
<!-- DTEL&#45;INT4&#45;&gt;DOMA&#45;INT4 -->
<g id="edge15" class="edge">
<title>DTEL&#45;INT4&#45;&gt;DOMA&#45;INT4</title>
<path fill="none" stroke="black" d="M52.14,-71.7C51.37,-63.98 50.44,-54.71 49.58,-46.11"/>
<polygon fill="black" stroke="black" points="53.06,-45.71 48.58,-36.1 46.1,-46.4 53.06,-45.71"/>
</g>
<!-- DOMA&#45;NUMC3 -->
<g id="node5" class="node">
<title>DOMA&#45;NUMC3</title>
<g id="a_node5"><a xlink:href="./DOMA_NUMC3.html" xlink:title="DOMA&#45;NUMC3">
<polygon fill="none" stroke="yellow" points="224.29,-36 111.45,-36 111.45,0 224.29,0 224.29,-36"/>
<text text-anchor="middle" x="167.87" y="-13.8" font-family="Times,serif" font-size="14.00">DOMA&#45;NUMC3</text>
</a>
</g>
</g>
<!-- DTEL&#45;NUMC3&#45;&gt;DOMA&#45;NUMC3 -->
<g id="edge16" class="edge">
<title>DTEL&#45;NUMC3&#45;&gt;DOMA&#45;NUMC3</title>
<path fill="none" stroke="black" d="M170.13,-71.7C169.8,-63.98 169.4,-54.71 169.03,-46.11"/>
<polygon fill="black" stroke="black" points="172.53,-45.95 168.61,-36.1 165.54,-46.25 172.53,-45.95"/>
</g>
<!-- DOMA&#45;TZNTSTMPS -->
<g id="node7" class="node">
<title>DOMA&#45;TZNTSTMPS</title>
<g id="a_node7"><a xlink:href="./DOMA_TZNTSTMPS.html" xlink:title="DOMA&#45;TZNTSTMPS">
<polygon fill="none" stroke="yellow" points="385.41,-36 242.34,-36 242.34,0 385.41,0 385.41,-36"/>
<text text-anchor="middle" x="313.87" y="-13.8" font-family="Times,serif" font-size="14.00">DOMA&#45;TZNTSTMPS</text>
</a>
</g>
</g>
<!-- DTEL&#45;TIMESTAMP&#45;&gt;DOMA&#45;TZNTSTMPS -->
<g id="edge17" class="edge">
<title>DTEL&#45;TIMESTAMP&#45;&gt;DOMA&#45;TZNTSTMPS</title>
<path fill="none" stroke="black" d="M331.19,-71.7C328.62,-63.9 325.54,-54.51 322.69,-45.83"/>
<polygon fill="black" stroke="black" points="325.94,-44.51 319.49,-36.1 319.29,-46.7 325.94,-44.51"/>
</g>
<!-- DOMA&#45;SRT_SEQUENCE_QUEUE_IDENT -->
<g id="node9" class="node">
<title>DOMA&#45;SRT_SEQUENCE_QUEUE_IDENT</title>
<g id="a_node9"><a xlink:href="./DOMA_SRT_SEQUENCE_QUEUE_IDENT.html" xlink:title="DOMA&#45;SRT_SEQUENCE_QUEUE_IDENT">
<polygon fill="none" stroke="yellow" points="675.97,-36 403.77,-36 403.77,0 675.97,0 675.97,-36"/>
<text text-anchor="middle" x="539.87" y="-13.8" font-family="Times,serif" font-size="14.00">DOMA&#45;SRT_SEQUENCE_QUEUE_IDENT</text>
</a>
</g>
</g>
<!-- DTEL&#45;SRT_SEQUENCE_ID&#45;&gt;DOMA&#45;SRT_SEQUENCE_QUEUE_IDENT -->
<g id="edge18" class="edge">
<title>DTEL&#45;SRT_SEQUENCE_ID&#45;&gt;DOMA&#45;SRT_SEQUENCE_QUEUE_IDENT</title>
<path fill="none" stroke="black" d="M557.94,-71.7C555.27,-63.9 552.05,-54.51 549.07,-45.83"/>
<polygon fill="black" stroke="black" points="552.29,-44.43 545.74,-36.1 545.67,-46.7 552.29,-44.43"/>
</g>
<!-- DOMA&#45;SYCHAR12 -->
<g id="node11" class="node">
<title>DOMA&#45;SYCHAR12</title>
<g id="a_node11"><a xlink:href="./DOMA_SYCHAR12.html" xlink:title="DOMA&#45;SYCHAR12">
<polygon fill="none" stroke="yellow" points="828.07,-36 693.67,-36 693.67,0 828.07,0 828.07,-36"/>
<text text-anchor="middle" x="760.87" y="-13.8" font-family="Times,serif" font-size="14.00">DOMA&#45;SYCHAR12</text>
</a>
</g>
</g>
<!-- DTEL&#45;SYUNAME&#45;&gt;DOMA&#45;SYCHAR12 -->
<g id="edge19" class="edge">
<title>DTEL&#45;SYUNAME&#45;&gt;DOMA&#45;SYCHAR12</title>
<path fill="none" stroke="black" d="M760.87,-71.7C760.87,-63.98 760.87,-54.71 760.87,-46.11"/>
<polygon fill="black" stroke="black" points="764.37,-46.1 760.87,-36.1 757.37,-46.1 764.37,-46.1"/>
</g>
<!-- DOMA&#45;SRT_SEQ_QUEUENAME -->
<g id="node13" class="node">
<title>DOMA&#45;SRT_SEQ_QUEUENAME</title>
<g id="a_node13"><a xlink:href="./DOMA_SRT_SEQ_QUEUENAME.html" xlink:title="DOMA&#45;SRT_SEQ_QUEUENAME">
<polygon fill="none" stroke="yellow" points="1064.05,-36 845.7,-36 845.7,0 1064.05,0 1064.05,-36"/>
<text text-anchor="middle" x="954.87" y="-13.8" font-family="Times,serif" font-size="14.00">DOMA&#45;SRT_SEQ_QUEUENAME</text>
</a>
</g>
</g>
<!-- DTEL&#45;SRT_SEQ_QUEUENAME&#45;&gt;DOMA&#45;SRT_SEQ_QUEUENAME -->
<g id="edge20" class="edge">
<title>DTEL&#45;SRT_SEQ_QUEUENAME&#45;&gt;DOMA&#45;SRT_SEQ_QUEUENAME</title>
<path fill="none" stroke="black" d="M948.85,-71.7C949.73,-63.98 950.79,-54.71 951.77,-46.11"/>
<polygon fill="black" stroke="black" points="955.26,-46.44 952.92,-36.1 948.3,-45.64 955.26,-46.44"/>
</g>
<!-- DOMA&#45;MANDT -->
<g id="node15" class="node">
<title>DOMA&#45;MANDT</title>
<g id="a_node15"><a xlink:href="./DOMA_MANDT.html" xlink:title="DOMA&#45;MANDT">
<polygon fill="none" stroke="yellow" points="1196.11,-36 1081.63,-36 1081.63,0 1196.11,0 1196.11,-36"/>
<text text-anchor="middle" x="1138.87" y="-13.8" font-family="Times,serif" font-size="14.00">DOMA&#45;MANDT</text>
</a>
</g>
</g>
<!-- DTEL&#45;SYMANDT&#45;&gt;DOMA&#45;MANDT -->
<g id="edge21" class="edge">
<title>DTEL&#45;SYMANDT&#45;&gt;DOMA&#45;MANDT</title>
<path fill="none" stroke="black" d="M1134.36,-71.7C1135.02,-63.98 1135.81,-54.71 1136.55,-46.11"/>
<polygon fill="black" stroke="black" points="1140.04,-46.37 1137.41,-36.1 1133.06,-45.77 1140.04,-46.37"/>
</g>
<!-- DOMA&#45;AIT_SYSTEM -->
<g id="node17" class="node">
<title>DOMA&#45;AIT_SYSTEM</title>
<g id="a_node17"><a xlink:href="./DOMA_AIT_SYSTEM.html" xlink:title="DOMA&#45;AIT_SYSTEM">
<polygon fill="none" stroke="yellow" points="1363.34,-36 1214.41,-36 1214.41,0 1363.34,0 1363.34,-36"/>
<text text-anchor="middle" x="1288.87" y="-13.8" font-family="Times,serif" font-size="14.00">DOMA&#45;AIT_SYSTEM</text>
</a>
</g>
</g>
<!-- DTEL&#45;AIT_SNDR&#45;&gt;DOMA&#45;AIT_SYSTEM -->
<g id="edge22" class="edge">
<title>DTEL&#45;AIT_SNDR&#45;&gt;DOMA&#45;AIT_SYSTEM</title>
<path fill="none" stroke="black" d="M1279.09,-71.7C1280.52,-63.98 1282.24,-54.71 1283.84,-46.11"/>
<polygon fill="black" stroke="black" points="1287.31,-46.58 1285.7,-36.1 1280.43,-45.3 1287.31,-46.58"/>
</g>
<!-- DOMA&#45;SXMSQOS -->
<g id="node19" class="node">
<title>DOMA&#45;SXMSQOS</title>
<g id="a_node19"><a xlink:href="./DOMA_SXMSQOS.html" xlink:title="DOMA&#45;SXMSQOS">
<polygon fill="none" stroke="yellow" points="1510.41,-36 1381.33,-36 1381.33,0 1510.41,0 1510.41,-36"/>
<text text-anchor="middle" x="1445.87" y="-13.8" font-family="Times,serif" font-size="14.00">DOMA&#45;SXMSQOS</text>
</a>
</g>
</g>
<!-- DTEL&#45;SXMSQOS&#45;&gt;DOMA&#45;SXMSQOS -->
<g id="edge23" class="edge">
<title>DTEL&#45;SXMSQOS&#45;&gt;DOMA&#45;SXMSQOS</title>
<path fill="none" stroke="black" d="M1424.04,-71.7C1427.31,-63.81 1431.25,-54.3 1434.87,-45.55"/>
<polygon fill="black" stroke="black" points="1438.19,-46.68 1438.79,-36.1 1431.73,-44 1438.19,-46.68"/>
</g>
<!-- DOMA&#45;SXMSPMTYPE -->
<g id="node22" class="node">
<title>DOMA&#45;SXMSPMTYPE</title>
<g id="a_node22"><a xlink:href="./DOMA_SXMSPMTYPE.html" xlink:title="DOMA&#45;SXMSPMTYPE">
<polygon fill="none" stroke="yellow" points="1767.14,-36 1610.61,-36 1610.61,0 1767.14,0 1767.14,-36"/>
<text text-anchor="middle" x="1688.87" y="-13.8" font-family="Times,serif" font-size="14.00">DOMA&#45;SXMSPMTYPE</text>
</a>
</g>
</g>
<!-- DTEL&#45;SXMSPMTYPE&#45;&gt;DOMA&#45;SXMSPMTYPE -->
<g id="edge24" class="edge">
<title>DTEL&#45;SXMSPMTYPE&#45;&gt;DOMA&#45;SXMSPMTYPE</title>
<path fill="none" stroke="black" d="M1695.65,-71.7C1694.66,-63.98 1693.46,-54.71 1692.36,-46.11"/>
<polygon fill="black" stroke="black" points="1695.82,-45.58 1691.07,-36.1 1688.88,-46.47 1695.82,-45.58"/>
</g>
<!-- DOMA&#45;BOOLEAN -->
<g id="node24" class="node">
<title>DOMA&#45;BOOLEAN</title>
<g id="a_node24"><a xlink:href="./DOMA_BOOLEAN.html" xlink:title="DOMA&#45;BOOLEAN">
<polygon fill="none" stroke="yellow" points="1916.17,-36 1785.58,-36 1785.58,0 1916.17,0 1916.17,-36"/>
<text text-anchor="middle" x="1850.87" y="-13.8" font-family="Times,serif" font-size="14.00">DOMA&#45;BOOLEAN</text>
</a>
</g>
</g>
<!-- DTEL&#45;BOOLEAN&#45;&gt;DOMA&#45;BOOLEAN -->
<g id="edge25" class="edge">
<title>DTEL&#45;BOOLEAN&#45;&gt;DOMA&#45;BOOLEAN</title>
<path fill="none" stroke="black" d="M1852.38,-71.7C1852.16,-63.98 1851.89,-54.71 1851.65,-46.11"/>
<polygon fill="black" stroke="black" points="1855.15,-46 1851.36,-36.1 1848.15,-46.2 1855.15,-46"/>
</g>
<!-- DOMA&#45;SXMSPMSTAT -->
<g id="node26" class="node">
<title>DOMA&#45;SXMSPMSTAT</title>
<g id="a_node26"><a xlink:href="./DOMA_SXMSPMSTAT.html" xlink:title="DOMA&#45;SXMSPMSTAT">
<polygon fill="none" stroke="yellow" points="2091.14,-36 1934.61,-36 1934.61,0 2091.14,0 2091.14,-36"/>
<text text-anchor="middle" x="2012.87" y="-13.8" font-family="Times,serif" font-size="14.00">DOMA&#45;SXMSPMSTAT</text>
</a>
</g>
</g>
<!-- DTEL&#45;SXMSPMSTAT&#45;&gt;DOMA&#45;SXMSPMSTAT -->
<g id="edge26" class="edge">
<title>DTEL&#45;SXMSPMSTAT&#45;&gt;DOMA&#45;SXMSPMSTAT</title>
<path fill="none" stroke="black" d="M2011.37,-71.7C2011.59,-63.98 2011.85,-54.71 2012.1,-46.11"/>
<polygon fill="black" stroke="black" points="2015.6,-46.2 2012.38,-36.1 2008.6,-46 2015.6,-46.2"/>
</g>
<!-- DOMA&#45;TZNTSTMPL -->
<g id="node28" class="node">
<title>DOMA&#45;TZNTSTMPL</title>
<g id="a_node28"><a xlink:href="./DOMA_TZNTSTMPL.html" xlink:title="DOMA&#45;TZNTSTMPL">
<polygon fill="none" stroke="yellow" points="2254.18,-36 2109.57,-36 2109.57,0 2254.18,0 2254.18,-36"/>
<text text-anchor="middle" x="2181.87" y="-13.8" font-family="Times,serif" font-size="14.00">DOMA&#45;TZNTSTMPL</text>
</a>
</g>
</g>
<!-- DTEL&#45;TIMESTAMPL&#45;&gt;DOMA&#45;TZNTSTMPL -->
<g id="edge27" class="edge">
<title>DTEL&#45;TIMESTAMPL&#45;&gt;DOMA&#45;TZNTSTMPL</title>
<path fill="none" stroke="black" d="M2180.37,-71.7C2180.59,-63.98 2180.85,-54.71 2181.1,-46.11"/>
<polygon fill="black" stroke="black" points="2184.6,-46.2 2181.38,-36.1 2177.6,-46 2184.6,-46.2"/>
</g>
</g>
</svg>
