<?xml version="1.0" encoding="UTF-8" standalone="no"?>
<!DOCTYPE svg PUBLIC "-//W3C//DTD SVG 1.1//EN"
 "http://www.w3.org/Graphics/SVG/1.1/DTD/svg11.dtd">
<!-- Generated by graphviz version 2.47.3 (20210619.1520)
 -->
<!-- Title: G Pages: 1 -->
<svg width="2110pt" height="836pt"
 viewBox="0.00 0.00 2110.46 836.00" xmlns="http://www.w3.org/2000/svg" xmlns:xlink="http://www.w3.org/1999/xlink">
<g id="graph0" class="graph" transform="scale(1 1) rotate(0) translate(4 832)">
<title>G</title>
<polygon fill="white" stroke="transparent" points="-4,4 -4,-832 2106.46,-832 2106.46,4 -4,4"/>
<!-- INTF&#45;IF_XCO_XSTRING -->
<g id="node1" class="node">
<title>INTF&#45;IF_XCO_XSTRING</title>
<g id="a_node1"><a xlink:href="./INTF_IF_XCO_XSTRING.html" xlink:title="INTF&#45;IF_XCO_XSTRING">
<polygon fill="none" stroke="green" points="788.66,-828 619.84,-828 619.84,-792 788.66,-792 788.66,-828"/>
<text text-anchor="middle" x="704.25" y="-805.8" font-family="Times,serif" font-size="14.00">INTF&#45;IF_XCO_XSTRING</text>
</a>
</g>
</g>
<!-- INTF&#45;IF_XCO_STRING -->
<g id="node2" class="node">
<title>INTF&#45;IF_XCO_STRING</title>
<g id="a_node2"><a xlink:href="./INTF_IF_XCO_STRING.html" xlink:title="INTF&#45;IF_XCO_STRING">
<polygon fill="none" stroke="green" points="783.56,-756 624.95,-756 624.95,-720 783.56,-720 783.56,-756"/>
<text text-anchor="middle" x="704.25" y="-733.8" font-family="Times,serif" font-size="14.00">INTF&#45;IF_XCO_STRING</text>
</a>
</g>
</g>
<!-- INTF&#45;IF_XCO_XSTRING&#45;&gt;INTF&#45;IF_XCO_STRING -->
<g id="edge2" class="edge">
<title>INTF&#45;IF_XCO_XSTRING&#45;&gt;INTF&#45;IF_XCO_STRING</title>
<path fill="none" stroke="black" d="M692.42,-791.7C690.83,-783.98 690.38,-774.71 691.06,-766.11"/>
<polygon fill="black" stroke="black" points="694.54,-766.49 692.46,-756.1 687.61,-765.52 694.54,-766.49"/>
</g>
<!-- INTF&#45;IF_XCO_XSTRING&#45;&gt;INTF&#45;IF_XCO_STRING -->
<g id="edge68" class="edge">
<title>INTF&#45;IF_XCO_XSTRING&#45;&gt;INTF&#45;IF_XCO_STRING</title>
<path fill="none" stroke="black" d="M716.08,-791.7C717.68,-783.98 718.13,-774.71 717.44,-766.11"/>
<polygon fill="black" stroke="black" points="720.9,-765.52 716.04,-756.1 713.96,-766.49 720.9,-765.52"/>
</g>
<!-- INTF&#45;IF_XCO_XSTRING_STRING_CNVRSN -->
<g id="node36" class="node">
<title>INTF&#45;IF_XCO_XSTRING_STRING_CNVRSN</title>
<g id="a_node36"><a xlink:href="./INTF_IF_XCO_XSTRING_STRING_CNVRSN.html" xlink:title="INTF&#45;IF_XCO_XSTRING_STRING_CNVRSN">
<polygon fill="none" stroke="green" points="1090.98,-756 801.52,-756 801.52,-720 1090.98,-720 1090.98,-756"/>
<text text-anchor="middle" x="946.25" y="-733.8" font-family="Times,serif" font-size="14.00">INTF&#45;IF_XCO_XSTRING_STRING_CNVRSN</text>
</a>
</g>
</g>
<!-- INTF&#45;IF_XCO_XSTRING&#45;&gt;INTF&#45;IF_XCO_XSTRING_STRING_CNVRSN -->
<g id="edge1" class="edge">
<title>INTF&#45;IF_XCO_XSTRING&#45;&gt;INTF&#45;IF_XCO_XSTRING_STRING_CNVRSN</title>
<path fill="none" stroke="black" d="M757.26,-791.97C790.75,-781.97 834.48,-769.3 871.46,-758.85"/>
<polygon fill="black" stroke="black" points="872.53,-762.19 881.2,-756.11 870.63,-755.45 872.53,-762.19"/>
</g>
<!-- INTF&#45;IF_XCO_XSTRING&#45;&gt;INTF&#45;IF_XCO_XSTRING_STRING_CNVRSN -->
<g id="edge67" class="edge">
<title>INTF&#45;IF_XCO_XSTRING&#45;&gt;INTF&#45;IF_XCO_XSTRING_STRING_CNVRSN</title>
<path fill="none" stroke="black" d="M769.03,-791.97C804.48,-782.01 848.16,-769.41 883.32,-758.99"/>
<polygon fill="black" stroke="black" points="884.41,-762.32 892.99,-756.11 882.41,-755.61 884.41,-762.32"/>
</g>
<!-- INTF&#45;IF_XCO_STRING&#45;&gt;INTF&#45;IF_XCO_XSTRING -->
<g id="edge7" class="edge">
<title>INTF&#45;IF_XCO_STRING&#45;&gt;INTF&#45;IF_XCO_XSTRING</title>
<path fill="none" stroke="black" d="M704.25,-756.1C704.25,-763.79 704.25,-773.05 704.25,-781.67"/>
<polygon fill="black" stroke="black" points="700.75,-781.7 704.25,-791.7 707.75,-781.7 700.75,-781.7"/>
</g>
<!-- INTF&#45;IF_XCO_STRING_ITERABLE -->
<g id="node3" class="node">
<title>INTF&#45;IF_XCO_STRING_ITERABLE</title>
<g id="a_node3"><a xlink:href="./INTF_IF_XCO_STRING_ITERABLE.html" xlink:title="INTF&#45;IF_XCO_STRING_ITERABLE">
<polygon fill="none" stroke="green" points="305.71,-540 72.8,-540 72.8,-504 305.71,-504 305.71,-540"/>
<text text-anchor="middle" x="189.25" y="-517.8" font-family="Times,serif" font-size="14.00">INTF&#45;IF_XCO_STRING_ITERABLE</text>
</a>
</g>
</g>
<!-- INTF&#45;IF_XCO_STRING&#45;&gt;INTF&#45;IF_XCO_STRING_ITERABLE -->
<g id="edge10" class="edge">
<title>INTF&#45;IF_XCO_STRING&#45;&gt;INTF&#45;IF_XCO_STRING_ITERABLE</title>
<path fill="none" stroke="black" d="M624.69,-732.92C527.57,-726.78 370,-712.66 319.25,-684 263.26,-652.37 222.01,-586.26 202.26,-549.35"/>
<polygon fill="black" stroke="black" points="205.22,-547.45 197.49,-540.2 199.01,-550.68 205.22,-547.45"/>
</g>
<!-- INTF&#45;IF_XCO_TEXT -->
<g id="node6" class="node">
<title>INTF&#45;IF_XCO_TEXT</title>
<g id="a_node6"><a xlink:href="./INTF_IF_XCO_TEXT.html" xlink:title="INTF&#45;IF_XCO_TEXT">
<polygon fill="none" stroke="green" points="797.77,-108 654.73,-108 654.73,-72 797.77,-72 797.77,-108"/>
<text text-anchor="middle" x="726.25" y="-85.8" font-family="Times,serif" font-size="14.00">INTF&#45;IF_XCO_TEXT</text>
</a>
</g>
</g>
<!-- INTF&#45;IF_XCO_STRING&#45;&gt;INTF&#45;IF_XCO_TEXT -->
<g id="edge9" class="edge">
<title>INTF&#45;IF_XCO_STRING&#45;&gt;INTF&#45;IF_XCO_TEXT</title>
<path fill="none" stroke="black" d="M624.81,-732.29C541.19,-725.93 416.48,-711.99 378.25,-684 342.49,-657.82 333.25,-639.32 333.25,-595 333.25,-595 333.25,-595 333.25,-233 333.25,-167.42 529.26,-123.65 644.43,-103.59"/>
<polygon fill="black" stroke="black" points="645.36,-106.98 654.63,-101.83 644.18,-100.08 645.36,-106.98"/>
</g>
<!-- INTF&#45;IF_XCO_STRINGS -->
<g id="node7" class="node">
<title>INTF&#45;IF_XCO_STRINGS</title>
<g id="a_node7"><a xlink:href="./INTF_IF_XCO_STRINGS.html" xlink:title="INTF&#45;IF_XCO_STRINGS">
<polygon fill="none" stroke="green" points="744.34,-612 578.17,-612 578.17,-576 744.34,-576 744.34,-612"/>
<text text-anchor="middle" x="661.25" y="-589.8" font-family="Times,serif" font-size="14.00">INTF&#45;IF_XCO_STRINGS</text>
</a>
</g>
</g>
<!-- INTF&#45;IF_XCO_STRING&#45;&gt;INTF&#45;IF_XCO_STRINGS -->
<g id="edge3" class="edge">
<title>INTF&#45;IF_XCO_STRING&#45;&gt;INTF&#45;IF_XCO_STRINGS</title>
<path fill="none" stroke="black" d="M694.48,-719.87C684.55,-695.56 670.72,-650.82 664,-622.01"/>
<polygon fill="black" stroke="black" points="667.41,-621.22 661.87,-612.19 660.57,-622.7 667.41,-621.22"/>
</g>
<!-- INTF&#45;IF_XCO_NEWS -->
<g id="node8" class="node">
<title>INTF&#45;IF_XCO_NEWS</title>
<g id="a_node8"><a xlink:href="./INTF_IF_XCO_NEWS.html" xlink:title="INTF&#45;IF_XCO_NEWS">
<polygon fill="none" stroke="green" points="1162.17,-540 1014.34,-540 1014.34,-504 1162.17,-504 1162.17,-540"/>
<text text-anchor="middle" x="1088.25" y="-517.8" font-family="Times,serif" font-size="14.00">INTF&#45;IF_XCO_NEWS</text>
</a>
</g>
</g>
<!-- INTF&#45;IF_XCO_STRING&#45;&gt;INTF&#45;IF_XCO_NEWS -->
<g id="edge8" class="edge">
<title>INTF&#45;IF_XCO_STRING&#45;&gt;INTF&#45;IF_XCO_NEWS</title>
<path fill="none" stroke="black" d="M783.87,-721.55C786.7,-721.02 789.5,-720.5 792.25,-720 884.54,-703.1 923.95,-738.59 1000.25,-684 1046.12,-651.19 1070.63,-586.77 1081.39,-550.15"/>
<polygon fill="black" stroke="black" points="1084.86,-550.74 1084.18,-540.17 1078.12,-548.86 1084.86,-550.74"/>
</g>
<!-- INTF&#45;IF_XCO_MESSAGE -->
<g id="node10" class="node">
<title>INTF&#45;IF_XCO_MESSAGE</title>
<g id="a_node10"><a xlink:href="./INTF_IF_XCO_MESSAGE.html" xlink:title="INTF&#45;IF_XCO_MESSAGE">
<polygon fill="none" stroke="green" points="1329.84,-396 1156.67,-396 1156.67,-360 1329.84,-360 1329.84,-396"/>
<text text-anchor="middle" x="1243.25" y="-373.8" font-family="Times,serif" font-size="14.00">INTF&#45;IF_XCO_MESSAGE</text>
</a>
</g>
</g>
<!-- INTF&#45;IF_XCO_STRING&#45;&gt;INTF&#45;IF_XCO_MESSAGE -->
<g id="edge5" class="edge">
<title>INTF&#45;IF_XCO_STRING&#45;&gt;INTF&#45;IF_XCO_MESSAGE</title>
<path fill="none" stroke="black" d="M764.06,-719.93C846.84,-694.49 986.25,-644.33 986.25,-595 986.25,-595 986.25,-595 986.25,-521 986.25,-479.79 982.27,-460.27 1012.25,-432 1031.95,-413.43 1092.41,-399.95 1146.53,-391.23"/>
<polygon fill="black" stroke="black" points="1147.22,-394.67 1156.55,-389.66 1146.13,-387.75 1147.22,-394.67"/>
</g>
<!-- INTF&#45;IF_XCO_STRING_XSTRING_CNVRSN -->
<g id="node37" class="node">
<title>INTF&#45;IF_XCO_STRING_XSTRING_CNVRSN</title>
<g id="a_node37"><a xlink:href="./INTF_IF_XCO_STRING_XSTRING_CNVRSN.html" xlink:title="INTF&#45;IF_XCO_STRING_XSTRING_CNVRSN">
<polygon fill="none" stroke="green" points="1341.98,-684 1052.52,-684 1052.52,-648 1341.98,-648 1341.98,-684"/>
<text text-anchor="middle" x="1197.25" y="-661.8" font-family="Times,serif" font-size="14.00">INTF&#45;IF_XCO_STRING_XSTRING_CNVRSN</text>
</a>
</g>
</g>
<!-- INTF&#45;IF_XCO_STRING&#45;&gt;INTF&#45;IF_XCO_STRING_XSTRING_CNVRSN -->
<g id="edge6" class="edge">
<title>INTF&#45;IF_XCO_STRING&#45;&gt;INTF&#45;IF_XCO_STRING_XSTRING_CNVRSN</title>
<path fill="none" stroke="black" d="M783.84,-721.4C786.68,-720.92 789.49,-720.45 792.25,-720 874.49,-706.69 966.53,-694.43 1042.07,-685.07"/>
<polygon fill="black" stroke="black" points="1042.65,-688.52 1052.14,-683.82 1041.79,-681.58 1042.65,-688.52"/>
</g>
<!-- INTF&#45;IF_XCO_STRING_DECOMPOSITION -->
<g id="node38" class="node">
<title>INTF&#45;IF_XCO_STRING_DECOMPOSITION</title>
<g id="a_node38"><a xlink:href="./INTF_IF_XCO_STRING_DECOMPOSITION.html" xlink:title="INTF&#45;IF_XCO_STRING_DECOMPOSITION">
<polygon fill="none" stroke="green" points="666.86,-684 387.65,-684 387.65,-648 666.86,-648 666.86,-684"/>
<text text-anchor="middle" x="527.25" y="-661.8" font-family="Times,serif" font-size="14.00">INTF&#45;IF_XCO_STRING_DECOMPOSITION</text>
</a>
</g>
</g>
<!-- INTF&#45;IF_XCO_STRING&#45;&gt;INTF&#45;IF_XCO_STRING_DECOMPOSITION -->
<g id="edge4" class="edge">
<title>INTF&#45;IF_XCO_STRING&#45;&gt;INTF&#45;IF_XCO_STRING_DECOMPOSITION</title>
<path fill="none" stroke="black" d="M655.06,-719.88C629.63,-710.22 598.84,-698.09 573.81,-687.88"/>
<polygon fill="black" stroke="black" points="575.1,-684.62 564.52,-684.07 572.44,-691.1 575.1,-684.62"/>
</g>
<!-- INTF&#45;IF_XCO_STRING_ITERATOR -->
<g id="node4" class="node">
<title>INTF&#45;IF_XCO_STRING_ITERATOR</title>
<g id="a_node4"><a xlink:href="./INTF_IF_XCO_STRING_ITERATOR.html" xlink:title="INTF&#45;IF_XCO_STRING_ITERATOR">
<polygon fill="none" stroke="green" points="234.26,-468 0.25,-468 0.25,-432 234.26,-432 234.26,-468"/>
<text text-anchor="middle" x="117.25" y="-445.8" font-family="Times,serif" font-size="14.00">INTF&#45;IF_XCO_STRING_ITERATOR</text>
</a>
</g>
</g>
<!-- INTF&#45;IF_XCO_STRING_ITERABLE&#45;&gt;INTF&#45;IF_XCO_STRING_ITERATOR -->
<g id="edge11" class="edge">
<title>INTF&#45;IF_XCO_STRING_ITERABLE&#45;&gt;INTF&#45;IF_XCO_STRING_ITERATOR</title>
<path fill="none" stroke="black" d="M171.46,-503.7C162.65,-495.14 151.87,-484.66 142.25,-475.3"/>
<polygon fill="black" stroke="black" points="144.46,-472.57 134.85,-468.1 139.58,-477.58 144.46,-472.57"/>
</g>
<!-- INTF&#45;IF_XCO_STRING_ITERATOR&#45;&gt;INTF&#45;IF_XCO_STRING -->
<g id="edge12" class="edge">
<title>INTF&#45;IF_XCO_STRING_ITERATOR&#45;&gt;INTF&#45;IF_XCO_STRING</title>
<path fill="none" stroke="black" d="M92.78,-468.23C81.85,-477.44 70.13,-489.81 64.25,-504 58.13,-518.78 56.84,-525.82 64.25,-540 116.15,-639.33 166.56,-644.02 271.25,-684 332.08,-707.23 506.55,-723.17 614.55,-731.12"/>
<polygon fill="black" stroke="black" points="614.56,-734.63 624.79,-731.87 615.07,-727.65 614.56,-734.63"/>
</g>
<!-- INTF&#45;IF_XCO_ITERATOR -->
<g id="node5" class="node">
<title>INTF&#45;IF_XCO_ITERATOR</title>
<g id="a_node5"><a xlink:href="./INTF_IF_XCO_ITERATOR.html" xlink:title="INTF&#45;IF_XCO_ITERATOR">
<polygon fill="none" stroke="green" points="205.71,-396 28.79,-396 28.79,-360 205.71,-360 205.71,-396"/>
<text text-anchor="middle" x="117.25" y="-373.8" font-family="Times,serif" font-size="14.00">INTF&#45;IF_XCO_ITERATOR</text>
</a>
</g>
</g>
<!-- INTF&#45;IF_XCO_STRING_ITERATOR&#45;&gt;INTF&#45;IF_XCO_ITERATOR -->
<g id="edge13" class="edge">
<title>INTF&#45;IF_XCO_STRING_ITERATOR&#45;&gt;INTF&#45;IF_XCO_ITERATOR</title>
<path fill="none" stroke="black" d="M117.25,-431.7C117.25,-423.98 117.25,-414.71 117.25,-406.11"/>
<polygon fill="black" stroke="black" points="120.75,-406.1 117.25,-396.1 113.75,-406.1 120.75,-406.1"/>
</g>
<!-- INTF&#45;IF_XCO_TEXT&#45;&gt;INTF&#45;IF_XCO_STRINGS -->
<g id="edge14" class="edge">
<title>INTF&#45;IF_XCO_TEXT&#45;&gt;INTF&#45;IF_XCO_STRINGS</title>
<path fill="none" stroke="black" d="M718.34,-108.21C702.39,-133.82 670.25,-184.2 670.25,-233 670.25,-451 670.25,-451 670.25,-451 670.25,-491 670.25,-537.35 667.96,-565.92"/>
<polygon fill="black" stroke="black" points="664.47,-565.65 666.97,-575.95 671.44,-566.35 664.47,-565.65"/>
</g>
<!-- INTF&#45;IF_XCO_STRINGS&#45;&gt;INTF&#45;IF_XCO_STRING -->
<g id="edge17" class="edge">
<title>INTF&#45;IF_XCO_STRINGS&#45;&gt;INTF&#45;IF_XCO_STRING</title>
<path fill="none" stroke="black" d="M671.05,-612.19C680.99,-636.53 694.82,-681.28 701.52,-710.06"/>
<polygon fill="black" stroke="black" points="698.11,-710.84 703.65,-719.87 704.95,-709.36 698.11,-710.84"/>
</g>
<!-- INTF&#45;IF_XCO_STRINGS&#45;&gt;INTF&#45;IF_XCO_STRING_ITERABLE -->
<g id="edge21" class="edge">
<title>INTF&#45;IF_XCO_STRINGS&#45;&gt;INTF&#45;IF_XCO_STRING_ITERABLE</title>
<path fill="none" stroke="black" d="M577.96,-580.65C504.84,-569.8 397.46,-553.88 314.07,-541.51"/>
<polygon fill="black" stroke="black" points="314.43,-538.03 304.03,-540.02 313.41,-544.95 314.43,-538.03"/>
</g>
<!-- INTF&#45;IF_XCO_STRINGS&#45;&gt;INTF&#45;IF_XCO_TEXT -->
<g id="edge20" class="edge">
<title>INTF&#45;IF_XCO_STRINGS&#45;&gt;INTF&#45;IF_XCO_TEXT</title>
<path fill="none" stroke="black" d="M655.54,-575.95C652.25,-549.29 652.25,-496.11 652.25,-451 652.25,-451 652.25,-451 652.25,-233 652.25,-188.77 678.65,-143.25 700.12,-116.04"/>
<polygon fill="black" stroke="black" points="702.93,-118.15 706.6,-108.21 697.53,-113.69 702.93,-118.15"/>
</g>
<!-- INTF&#45;IF_XCO_STRINGS&#45;&gt;INTF&#45;IF_XCO_NEWS -->
<g id="edge19" class="edge">
<title>INTF&#45;IF_XCO_STRINGS&#45;&gt;INTF&#45;IF_XCO_NEWS</title>
<path fill="none" stroke="black" d="M744.34,-579.38C819.34,-567.08 929.14,-549.08 1004.38,-536.75"/>
<polygon fill="black" stroke="black" points="1005,-540.2 1014.3,-535.12 1003.86,-533.29 1005,-540.2"/>
</g>
<!-- INTF&#45;IF_XCO_STRING_COMPOSITION -->
<g id="node32" class="node">
<title>INTF&#45;IF_XCO_STRING_COMPOSITION</title>
<g id="a_node32"><a xlink:href="./INTF_IF_XCO_STRING_COMPOSITION.html" xlink:title="INTF&#45;IF_XCO_STRING_COMPOSITION">
<polygon fill="none" stroke="green" points="958.7,-540 697.8,-540 697.8,-504 958.7,-504 958.7,-540"/>
<text text-anchor="middle" x="828.25" y="-517.8" font-family="Times,serif" font-size="14.00">INTF&#45;IF_XCO_STRING_COMPOSITION</text>
</a>
</g>
</g>
<!-- INTF&#45;IF_XCO_STRINGS&#45;&gt;INTF&#45;IF_XCO_STRING_COMPOSITION -->
<g id="edge18" class="edge">
<title>INTF&#45;IF_XCO_STRINGS&#45;&gt;INTF&#45;IF_XCO_STRING_COMPOSITION</title>
<path fill="none" stroke="black" d="M696.21,-575.88C718.23,-566.22 747.07,-554.09 772.21,-543.88"/>
<polygon fill="black" stroke="black" points="773.68,-547.06 781.64,-540.07 771.06,-540.57 773.68,-547.06"/>
</g>
<!-- TTYP&#45;STRING_TABLE -->
<g id="node33" class="node">
<title>TTYP&#45;STRING_TABLE</title>
<g id="a_node33"><a xlink:href="./TTYP_STRING_TABLE.html" xlink:title="TTYP&#45;STRING_TABLE">
<polygon fill="none" stroke="green" points="519.56,-540 360.95,-540 360.95,-504 519.56,-504 519.56,-540"/>
<text text-anchor="middle" x="440.25" y="-517.8" font-family="Times,serif" font-size="14.00">TTYP&#45;STRING_TABLE</text>
</a>
</g>
</g>
<!-- INTF&#45;IF_XCO_STRINGS&#45;&gt;TTYP&#45;STRING_TABLE -->
<g id="edge16" class="edge">
<title>INTF&#45;IF_XCO_STRINGS&#45;&gt;TTYP&#45;STRING_TABLE</title>
<path fill="none" stroke="black" d="M607.47,-575.97C576.33,-566.1 536.93,-553.62 504.2,-543.25"/>
<polygon fill="black" stroke="black" points="504.86,-539.79 494.27,-540.11 502.75,-546.47 504.86,-539.79"/>
</g>
<!-- DTEL&#45;INT4 -->
<g id="node34" class="node">
<title>DTEL&#45;INT4</title>
<g id="a_node34"><a xlink:href="./DTEL_INT4.html" xlink:title="DTEL&#45;INT4">
<polygon fill="none" stroke="green" points="624.5,-540 538.01,-540 538.01,-504 624.5,-504 624.5,-540"/>
<text text-anchor="middle" x="581.25" y="-517.8" font-family="Times,serif" font-size="14.00">DTEL&#45;INT4</text>
</a>
</g>
</g>
<!-- INTF&#45;IF_XCO_STRINGS&#45;&gt;DTEL&#45;INT4 -->
<g id="edge15" class="edge">
<title>INTF&#45;IF_XCO_STRINGS&#45;&gt;DTEL&#45;INT4</title>
<path fill="none" stroke="black" d="M641.48,-575.7C631.5,-566.97 619.24,-556.24 608.4,-546.75"/>
<polygon fill="black" stroke="black" points="610.63,-544.06 600.8,-540.1 606.02,-549.32 610.63,-544.06"/>
</g>
<!-- TTYP&#45;SXCO_T_MESSAGES -->
<g id="node9" class="node">
<title>TTYP&#45;SXCO_T_MESSAGES</title>
<g id="a_node9"><a xlink:href="./TTYP_SXCO_T_MESSAGES.html" xlink:title="TTYP&#45;SXCO_T_MESSAGES">
<polygon fill="none" stroke="green" points="1209.4,-468 1021.1,-468 1021.1,-432 1209.4,-432 1209.4,-468"/>
<text text-anchor="middle" x="1115.25" y="-445.8" font-family="Times,serif" font-size="14.00">TTYP&#45;SXCO_T_MESSAGES</text>
</a>
</g>
</g>
<!-- INTF&#45;IF_XCO_NEWS&#45;&gt;TTYP&#45;SXCO_T_MESSAGES -->
<g id="edge22" class="edge">
<title>INTF&#45;IF_XCO_NEWS&#45;&gt;TTYP&#45;SXCO_T_MESSAGES</title>
<path fill="none" stroke="black" d="M1094.93,-503.7C1097.97,-495.81 1101.64,-486.3 1105.01,-477.55"/>
<polygon fill="black" stroke="black" points="1108.32,-478.69 1108.66,-468.1 1101.79,-476.17 1108.32,-478.69"/>
</g>
<!-- TTYP&#45;SXCO_T_MESSAGES&#45;&gt;INTF&#45;IF_XCO_MESSAGE -->
<g id="edge23" class="edge">
<title>TTYP&#45;SXCO_T_MESSAGES&#45;&gt;INTF&#45;IF_XCO_MESSAGE</title>
<path fill="none" stroke="black" d="M1146.57,-431.88C1163.46,-422.64 1184.5,-411.13 1202.64,-401.21"/>
<polygon fill="black" stroke="black" points="1204.73,-404.06 1211.82,-396.19 1201.37,-397.92 1204.73,-404.06"/>
</g>
<!-- INTF&#45;IF_XCO_MESSAGE&#45;&gt;INTF&#45;IF_XCO_NEWS -->
<g id="edge32" class="edge">
<title>INTF&#45;IF_XCO_MESSAGE&#45;&gt;INTF&#45;IF_XCO_NEWS</title>
<path fill="none" stroke="black" d="M1242.79,-396.19C1241.36,-415.84 1236.21,-447.89 1218.25,-468 1205.79,-481.96 1189.11,-492.31 1171.86,-499.97"/>
<polygon fill="black" stroke="black" points="1170.15,-496.89 1162.24,-503.95 1172.82,-503.36 1170.15,-496.89"/>
</g>
<!-- INTF&#45;IF_T100_DYN_MSG -->
<g id="node11" class="node">
<title>INTF&#45;IF_T100_DYN_MSG</title>
<g id="a_node11"><a xlink:href="./INTF_IF_T100_DYN_MSG.html" xlink:title="INTF&#45;IF_T100_DYN_MSG">
<polygon fill="none" stroke="green" points="1610.17,-324 1434.34,-324 1434.34,-288 1610.17,-288 1610.17,-324"/>
<text text-anchor="middle" x="1522.25" y="-301.8" font-family="Times,serif" font-size="14.00">INTF&#45;IF_T100_DYN_MSG</text>
</a>
</g>
</g>
<!-- INTF&#45;IF_XCO_MESSAGE&#45;&gt;INTF&#45;IF_T100_DYN_MSG -->
<g id="edge31" class="edge">
<title>INTF&#45;IF_XCO_MESSAGE&#45;&gt;INTF&#45;IF_T100_DYN_MSG</title>
<path fill="none" stroke="black" d="M1311.15,-359.97C1351.32,-349.89 1402.35,-337.08 1444.18,-326.59"/>
<polygon fill="black" stroke="black" points="1445.21,-329.94 1454.05,-324.11 1443.5,-323.15 1445.21,-329.94"/>
</g>
<!-- DTEL&#45;SYMSGNO -->
<g id="node16" class="node">
<title>DTEL&#45;SYMSGNO</title>
<g id="a_node16"><a xlink:href="./DTEL_SYMSGNO.html" xlink:title="DTEL&#45;SYMSGNO">
<polygon fill="none" stroke="green" points="1692.61,-108 1567.89,-108 1567.89,-72 1692.61,-72 1692.61,-108"/>
<text text-anchor="middle" x="1630.25" y="-85.8" font-family="Times,serif" font-size="14.00">DTEL&#45;SYMSGNO</text>
</a>
</g>
</g>
<!-- INTF&#45;IF_XCO_MESSAGE&#45;&gt;DTEL&#45;SYMSGNO -->
<g id="edge27" class="edge">
<title>INTF&#45;IF_XCO_MESSAGE&#45;&gt;DTEL&#45;SYMSGNO</title>
<path fill="none" stroke="black" d="M1330.04,-377.39C1429.2,-375.76 1582.55,-366.24 1619.25,-324 1672.71,-262.48 1555.74,-220.35 1584.25,-144 1588.13,-133.62 1595.06,-123.93 1602.38,-115.74"/>
<polygon fill="black" stroke="black" points="1605.04,-118.03 1609.43,-108.38 1599.98,-113.18 1605.04,-118.03"/>
</g>
<!-- DTEL&#45;SYMSGID -->
<g id="node18" class="node">
<title>DTEL&#45;SYMSGID</title>
<g id="a_node18"><a xlink:href="./DTEL_SYMSGID.html" xlink:title="DTEL&#45;SYMSGID">
<polygon fill="none" stroke="green" points="1875.17,-108 1755.34,-108 1755.34,-72 1875.17,-72 1875.17,-108"/>
<text text-anchor="middle" x="1815.25" y="-85.8" font-family="Times,serif" font-size="14.00">DTEL&#45;SYMSGID</text>
</a>
</g>
</g>
<!-- INTF&#45;IF_XCO_MESSAGE&#45;&gt;DTEL&#45;SYMSGID -->
<g id="edge26" class="edge">
<title>INTF&#45;IF_XCO_MESSAGE&#45;&gt;DTEL&#45;SYMSGID</title>
<path fill="none" stroke="black" d="M1330.02,-372.98C1455.29,-364.32 1691.59,-337.11 1872.25,-252 1925.11,-227.1 1954.47,-231.4 1982.25,-180 1989.86,-165.93 1991.7,-156.91 1982.25,-144 1970.26,-127.62 1925.37,-113.91 1885.14,-104.54"/>
<polygon fill="black" stroke="black" points="1885.84,-101.11 1875.31,-102.31 1884.29,-107.93 1885.84,-101.11"/>
</g>
<!-- DTEL&#45;SYMSGTY -->
<g id="node20" class="node">
<title>DTEL&#45;SYMSGTY</title>
<g id="a_node20"><a xlink:href="./DTEL_SYMSGTY.html" xlink:title="DTEL&#45;SYMSGTY">
<polygon fill="none" stroke="green" points="1319.06,-252 1195.45,-252 1195.45,-216 1319.06,-216 1319.06,-252"/>
<text text-anchor="middle" x="1257.25" y="-229.8" font-family="Times,serif" font-size="14.00">DTEL&#45;SYMSGTY</text>
</a>
</g>
</g>
<!-- INTF&#45;IF_XCO_MESSAGE&#45;&gt;DTEL&#45;SYMSGTY -->
<g id="edge25" class="edge">
<title>INTF&#45;IF_XCO_MESSAGE&#45;&gt;DTEL&#45;SYMSGTY</title>
<path fill="none" stroke="black" d="M1244.94,-359.87C1247.33,-335.67 1251.71,-291.21 1254.55,-262.39"/>
<polygon fill="black" stroke="black" points="1258.06,-262.48 1255.56,-252.19 1251.09,-261.8 1258.06,-262.48"/>
</g>
<!-- DTEL&#45;SYMSGV -->
<g id="node22" class="node">
<title>DTEL&#45;SYMSGV</title>
<g id="a_node22"><a xlink:href="./DTEL_SYMSGV.html" xlink:title="DTEL&#45;SYMSGV">
<polygon fill="none" stroke="green" points="1451.51,-252 1337,-252 1337,-216 1451.51,-216 1451.51,-252"/>
<text text-anchor="middle" x="1394.25" y="-229.8" font-family="Times,serif" font-size="14.00">DTEL&#45;SYMSGV</text>
</a>
</g>
</g>
<!-- INTF&#45;IF_XCO_MESSAGE&#45;&gt;DTEL&#45;SYMSGV -->
<g id="edge28" class="edge">
<title>INTF&#45;IF_XCO_MESSAGE&#45;&gt;DTEL&#45;SYMSGV</title>
<path fill="none" stroke="black" d="M1251.51,-359.89C1261.45,-340.61 1279.69,-309.19 1302.25,-288 1315.28,-275.76 1331.64,-265.19 1346.94,-256.78"/>
<polygon fill="black" stroke="black" points="1348.6,-259.86 1355.79,-252.08 1345.31,-253.68 1348.6,-259.86"/>
</g>
<!-- INTF&#45;IF_XCO_MESSAGE_SHORT_TEXT -->
<g id="node24" class="node">
<title>INTF&#45;IF_XCO_MESSAGE_SHORT_TEXT</title>
<g id="a_node24"><a xlink:href="./INTF_IF_XCO_MESSAGE_SHORT_TEXT.html" xlink:title="INTF&#45;IF_XCO_MESSAGE_SHORT_TEXT">
<polygon fill="none" stroke="green" points="1217.49,-324 949.02,-324 949.02,-288 1217.49,-288 1217.49,-324"/>
<text text-anchor="middle" x="1083.25" y="-301.8" font-family="Times,serif" font-size="14.00">INTF&#45;IF_XCO_MESSAGE_SHORT_TEXT</text>
</a>
</g>
</g>
<!-- INTF&#45;IF_XCO_MESSAGE&#45;&gt;INTF&#45;IF_XCO_MESSAGE_SHORT_TEXT -->
<g id="edge30" class="edge">
<title>INTF&#45;IF_XCO_MESSAGE&#45;&gt;INTF&#45;IF_XCO_MESSAGE_SHORT_TEXT</title>
<path fill="none" stroke="black" d="M1198.22,-359.88C1175.44,-350.35 1148.02,-338.41 1125.63,-328.28"/>
<polygon fill="black" stroke="black" points="1126.93,-325.03 1116.38,-324.07 1124.03,-331.4 1126.93,-325.03"/>
</g>
<!-- CLAS&#45;CL_XCO_MESSAGE_TYPE -->
<g id="node28" class="node">
<title>CLAS&#45;CL_XCO_MESSAGE_TYPE</title>
<g id="a_node28"><a xlink:href="./CLAS_CL_XCO_MESSAGE_TYPE.html" xlink:title="CLAS&#45;CL_XCO_MESSAGE_TYPE">
<polygon fill="none" stroke="green" points="930.95,-324 705.55,-324 705.55,-288 930.95,-288 930.95,-324"/>
<text text-anchor="middle" x="818.25" y="-301.8" font-family="Times,serif" font-size="14.00">CLAS&#45;CL_XCO_MESSAGE_TYPE</text>
</a>
</g>
</g>
<!-- INTF&#45;IF_XCO_MESSAGE&#45;&gt;CLAS&#45;CL_XCO_MESSAGE_TYPE -->
<g id="edge29" class="edge">
<title>INTF&#45;IF_XCO_MESSAGE&#45;&gt;CLAS&#45;CL_XCO_MESSAGE_TYPE</title>
<path fill="none" stroke="black" d="M1156.48,-362.71C1091.69,-352.04 1002.55,-337.35 932.04,-325.74"/>
<polygon fill="black" stroke="black" points="932.22,-322.22 921.78,-324.05 931.08,-329.13 932.22,-322.22"/>
</g>
<!-- TABL&#45;SYMSG -->
<g id="node31" class="node">
<title>TABL&#45;SYMSG</title>
<g id="a_node31"><a xlink:href="./TABL_SYMSG.html" xlink:title="TABL&#45;SYMSG">
<polygon fill="none" stroke="green" points="1417.19,-324 1311.32,-324 1311.32,-288 1417.19,-288 1417.19,-324"/>
<text text-anchor="middle" x="1364.25" y="-301.8" font-family="Times,serif" font-size="14.00">TABL&#45;SYMSG</text>
</a>
</g>
</g>
<!-- INTF&#45;IF_XCO_MESSAGE&#45;&gt;TABL&#45;SYMSG -->
<g id="edge24" class="edge">
<title>INTF&#45;IF_XCO_MESSAGE&#45;&gt;TABL&#45;SYMSG</title>
<path fill="none" stroke="black" d="M1272.85,-359.88C1288.82,-350.64 1308.71,-339.13 1325.86,-329.21"/>
<polygon fill="black" stroke="black" points="1327.64,-332.23 1334.54,-324.19 1324.13,-326.17 1327.64,-332.23"/>
</g>
<!-- INTF&#45;IF_T100_MESSAGE -->
<g id="node12" class="node">
<title>INTF&#45;IF_T100_MESSAGE</title>
<g id="a_node12"><a xlink:href="./INTF_IF_T100_MESSAGE.html" xlink:title="INTF&#45;IF_T100_MESSAGE">
<polygon fill="none" stroke="green" points="1862.84,-252 1689.67,-252 1689.67,-216 1862.84,-216 1862.84,-252"/>
<text text-anchor="middle" x="1776.25" y="-229.8" font-family="Times,serif" font-size="14.00">INTF&#45;IF_T100_MESSAGE</text>
</a>
</g>
</g>
<!-- INTF&#45;IF_T100_DYN_MSG&#45;&gt;INTF&#45;IF_T100_MESSAGE -->
<g id="edge36" class="edge">
<title>INTF&#45;IF_T100_DYN_MSG&#45;&gt;INTF&#45;IF_T100_MESSAGE</title>
<path fill="none" stroke="black" d="M1584.06,-287.97C1620.32,-277.97 1666.31,-265.3 1704.21,-254.85"/>
<polygon fill="black" stroke="black" points="1705.45,-258.14 1714.17,-252.11 1703.59,-251.39 1705.45,-258.14"/>
</g>
<!-- INTF&#45;IF_MESSAGE -->
<g id="node13" class="node">
<title>INTF&#45;IF_MESSAGE</title>
<g id="a_node13"><a xlink:href="./INTF_IF_MESSAGE.html" xlink:title="INTF&#45;IF_MESSAGE">
<polygon fill="none" stroke="green" points="1729.29,-180 1593.22,-180 1593.22,-144 1729.29,-144 1729.29,-180"/>
<text text-anchor="middle" x="1661.25" y="-157.8" font-family="Times,serif" font-size="14.00">INTF&#45;IF_MESSAGE</text>
</a>
</g>
</g>
<!-- INTF&#45;IF_T100_DYN_MSG&#45;&gt;INTF&#45;IF_MESSAGE -->
<g id="edge35" class="edge">
<title>INTF&#45;IF_T100_DYN_MSG&#45;&gt;INTF&#45;IF_MESSAGE</title>
<path fill="none" stroke="black" d="M1539.02,-287.87C1563.54,-262.82 1609.32,-216.05 1637.36,-187.41"/>
<polygon fill="black" stroke="black" points="1639.93,-189.78 1644.43,-180.19 1634.93,-184.89 1639.93,-189.78"/>
</g>
<!-- INTF&#45;IF_T100_DYN_MSG&#45;&gt;DTEL&#45;SYMSGTY -->
<g id="edge34" class="edge">
<title>INTF&#45;IF_T100_DYN_MSG&#45;&gt;DTEL&#45;SYMSGTY</title>
<path fill="none" stroke="black" d="M1457.77,-287.97C1418.84,-277.68 1369.18,-264.57 1329.02,-253.96"/>
<polygon fill="black" stroke="black" points="1329.85,-250.56 1319.29,-251.39 1328.06,-257.32 1329.85,-250.56"/>
</g>
<!-- INTF&#45;IF_T100_DYN_MSG&#45;&gt;DTEL&#45;SYMSGV -->
<g id="edge33" class="edge">
<title>INTF&#45;IF_T100_DYN_MSG&#45;&gt;DTEL&#45;SYMSGV</title>
<path fill="none" stroke="black" d="M1490.94,-287.88C1474.05,-278.64 1453.01,-267.13 1434.87,-257.21"/>
<polygon fill="black" stroke="black" points="1436.14,-253.92 1425.69,-252.19 1432.78,-260.06 1436.14,-253.92"/>
</g>
<!-- INTF&#45;IF_T100_MESSAGE&#45;&gt;INTF&#45;IF_MESSAGE -->
<g id="edge41" class="edge">
<title>INTF&#45;IF_T100_MESSAGE&#45;&gt;INTF&#45;IF_MESSAGE</title>
<path fill="none" stroke="black" d="M1748.12,-215.88C1733.08,-206.72 1714.39,-195.34 1698.19,-185.48"/>
<polygon fill="black" stroke="black" points="1699.86,-182.4 1689.49,-180.19 1696.22,-188.38 1699.86,-182.4"/>
</g>
<!-- TABL&#45;SCX_T100KEY -->
<g id="node14" class="node">
<title>TABL&#45;SCX_T100KEY</title>
<g id="a_node14"><a xlink:href="./TABL_SCX_T100KEY.html" xlink:title="TABL&#45;SCX_T100KEY">
<polygon fill="none" stroke="yellow" points="1973.01,-180 1823.5,-180 1823.5,-144 1973.01,-144 1973.01,-180"/>
<text text-anchor="middle" x="1898.25" y="-157.8" font-family="Times,serif" font-size="14.00">TABL&#45;SCX_T100KEY</text>
</a>
</g>
</g>
<!-- INTF&#45;IF_T100_MESSAGE&#45;&gt;TABL&#45;SCX_T100KEY -->
<g id="edge40" class="edge">
<title>INTF&#45;IF_T100_MESSAGE&#45;&gt;TABL&#45;SCX_T100KEY</title>
<path fill="none" stroke="black" d="M1806.1,-215.88C1822.2,-206.64 1842.25,-195.13 1859.54,-185.21"/>
<polygon fill="black" stroke="black" points="1861.36,-188.2 1868.29,-180.19 1857.88,-182.13 1861.36,-188.2"/>
</g>
<!-- DTEL&#45;SCX_ATTRNAME -->
<g id="node15" class="node">
<title>DTEL&#45;SCX_ATTRNAME</title>
<g id="a_node15"><a xlink:href="./DTEL_SCX_ATTRNAME.html" xlink:title="DTEL&#45;SCX_ATTRNAME">
<polygon fill="none" stroke="green" points="2102.66,-108 1933.84,-108 1933.84,-72 2102.66,-72 2102.66,-108"/>
<text text-anchor="middle" x="2018.25" y="-85.8" font-family="Times,serif" font-size="14.00">DTEL&#45;SCX_ATTRNAME</text>
</a>
</g>
</g>
<!-- INTF&#45;IF_T100_MESSAGE&#45;&gt;DTEL&#45;SCX_ATTRNAME -->
<g id="edge39" class="edge">
<title>INTF&#45;IF_T100_MESSAGE&#45;&gt;DTEL&#45;SCX_ATTRNAME</title>
<path fill="none" stroke="black" d="M1862.97,-228.38C1903.33,-222.15 1949.54,-208.64 1982.25,-180 2000.32,-164.18 2009.46,-137.97 2013.99,-118.08"/>
<polygon fill="black" stroke="black" points="2017.46,-118.56 2016.01,-108.06 2010.6,-117.17 2017.46,-118.56"/>
</g>
<!-- INTF&#45;IF_T100_MESSAGE&#45;&gt;DTEL&#45;SYMSGNO -->
<g id="edge38" class="edge">
<title>INTF&#45;IF_T100_MESSAGE&#45;&gt;DTEL&#45;SYMSGNO</title>
<path fill="none" stroke="black" d="M1772.76,-215.94C1767.97,-196.41 1757.68,-164.48 1738.25,-144 1725.58,-130.64 1708.82,-120.2 1692.3,-112.24"/>
<polygon fill="black" stroke="black" points="1693.73,-109.05 1683.17,-108.08 1690.82,-115.41 1693.73,-109.05"/>
</g>
<!-- INTF&#45;IF_T100_MESSAGE&#45;&gt;DTEL&#45;SYMSGID -->
<g id="edge37" class="edge">
<title>INTF&#45;IF_T100_MESSAGE&#45;&gt;DTEL&#45;SYMSGID</title>
<path fill="none" stroke="black" d="M1780.96,-215.87C1787.63,-191.56 1799.92,-146.82 1807.83,-118.01"/>
<polygon fill="black" stroke="black" points="1811.26,-118.76 1810.53,-108.19 1804.51,-116.91 1811.26,-118.76"/>
</g>
<!-- TABL&#45;SCX_T100KEY&#45;&gt;DTEL&#45;SCX_ATTRNAME -->
<g id="edge44" class="edge">
<title>TABL&#45;SCX_T100KEY&#45;&gt;DTEL&#45;SCX_ATTRNAME</title>
<path fill="none" stroke="black" d="M1927.61,-143.88C1943.3,-134.72 1962.81,-123.34 1979.71,-113.48"/>
<polygon fill="black" stroke="black" points="1981.91,-116.25 1988.79,-108.19 1978.38,-110.21 1981.91,-116.25"/>
</g>
<!-- TABL&#45;SCX_T100KEY&#45;&gt;DTEL&#45;SYMSGNO -->
<g id="edge43" class="edge">
<title>TABL&#45;SCX_T100KEY&#45;&gt;DTEL&#45;SYMSGNO</title>
<path fill="none" stroke="black" d="M1833.04,-143.97C1793.67,-133.68 1743.45,-120.57 1702.83,-109.96"/>
<polygon fill="black" stroke="black" points="1703.55,-106.53 1692.99,-107.39 1701.78,-113.3 1703.55,-106.53"/>
</g>
<!-- TABL&#45;SCX_T100KEY&#45;&gt;DTEL&#45;SYMSGID -->
<g id="edge42" class="edge">
<title>TABL&#45;SCX_T100KEY&#45;&gt;DTEL&#45;SYMSGID</title>
<path fill="none" stroke="black" d="M1877.74,-143.7C1867.38,-134.97 1854.67,-124.24 1843.41,-114.75"/>
<polygon fill="black" stroke="black" points="1845.43,-111.88 1835.53,-108.1 1840.92,-117.23 1845.43,-111.88"/>
</g>
<!-- DOMA&#45;SYMSGNO -->
<g id="node17" class="node">
<title>DOMA&#45;SYMSGNO</title>
<g id="a_node17"><a xlink:href="./DOMA_SYMSGNO.html" xlink:title="DOMA&#45;SYMSGNO">
<polygon fill="none" stroke="yellow" points="1696.11,-36 1564.39,-36 1564.39,0 1696.11,0 1696.11,-36"/>
<text text-anchor="middle" x="1630.25" y="-13.8" font-family="Times,serif" font-size="14.00">DOMA&#45;SYMSGNO</text>
</a>
</g>
</g>
<!-- DTEL&#45;SYMSGNO&#45;&gt;DOMA&#45;SYMSGNO -->
<g id="edge45" class="edge">
<title>DTEL&#45;SYMSGNO&#45;&gt;DOMA&#45;SYMSGNO</title>
<path fill="none" stroke="black" d="M1630.25,-71.7C1630.25,-63.98 1630.25,-54.71 1630.25,-46.11"/>
<polygon fill="black" stroke="black" points="1633.75,-46.1 1630.25,-36.1 1626.75,-46.1 1633.75,-46.1"/>
</g>
<!-- DOMA&#45;ARBGB -->
<g id="node19" class="node">
<title>DOMA&#45;ARBGB</title>
<g id="a_node19"><a xlink:href="./DOMA_ARBGB.html" xlink:title="DOMA&#45;ARBGB">
<polygon fill="none" stroke="yellow" points="1870.9,-36 1759.6,-36 1759.6,0 1870.9,0 1870.9,-36"/>
<text text-anchor="middle" x="1815.25" y="-13.8" font-family="Times,serif" font-size="14.00">DOMA&#45;ARBGB</text>
</a>
</g>
</g>
<!-- DTEL&#45;SYMSGID&#45;&gt;DOMA&#45;ARBGB -->
<g id="edge46" class="edge">
<title>DTEL&#45;SYMSGID&#45;&gt;DOMA&#45;ARBGB</title>
<path fill="none" stroke="black" d="M1815.25,-71.7C1815.25,-63.98 1815.25,-54.71 1815.25,-46.11"/>
<polygon fill="black" stroke="black" points="1818.75,-46.1 1815.25,-36.1 1811.75,-46.1 1818.75,-46.1"/>
</g>
<!-- DOMA&#45;SYCHAR01 -->
<g id="node21" class="node">
<title>DOMA&#45;SYCHAR01</title>
<g id="a_node21"><a xlink:href="./DOMA_SYCHAR01.html" xlink:title="DOMA&#45;SYCHAR01">
<polygon fill="none" stroke="yellow" points="1309.45,-180 1175.05,-180 1175.05,-144 1309.45,-144 1309.45,-180"/>
<text text-anchor="middle" x="1242.25" y="-157.8" font-family="Times,serif" font-size="14.00">DOMA&#45;SYCHAR01</text>
</a>
</g>
</g>
<!-- DTEL&#45;SYMSGTY&#45;&gt;DOMA&#45;SYCHAR01 -->
<g id="edge47" class="edge">
<title>DTEL&#45;SYMSGTY&#45;&gt;DOMA&#45;SYCHAR01</title>
<path fill="none" stroke="black" d="M1253.55,-215.7C1251.89,-207.98 1249.91,-198.71 1248.06,-190.11"/>
<polygon fill="black" stroke="black" points="1251.44,-189.15 1245.92,-180.1 1244.59,-190.62 1251.44,-189.15"/>
</g>
<!-- DOMA&#45;SYCHAR50 -->
<g id="node23" class="node">
<title>DOMA&#45;SYCHAR50</title>
<g id="a_node23"><a xlink:href="./DOMA_SYCHAR50.html" xlink:title="DOMA&#45;SYCHAR50">
<polygon fill="none" stroke="yellow" points="1461.45,-180 1327.05,-180 1327.05,-144 1461.45,-144 1461.45,-180"/>
<text text-anchor="middle" x="1394.25" y="-157.8" font-family="Times,serif" font-size="14.00">DOMA&#45;SYCHAR50</text>
</a>
</g>
</g>
<!-- DTEL&#45;SYMSGV&#45;&gt;DOMA&#45;SYCHAR50 -->
<g id="edge48" class="edge">
<title>DTEL&#45;SYMSGV&#45;&gt;DOMA&#45;SYCHAR50</title>
<path fill="none" stroke="black" d="M1394.25,-215.7C1394.25,-207.98 1394.25,-198.71 1394.25,-190.11"/>
<polygon fill="black" stroke="black" points="1397.75,-190.1 1394.25,-180.1 1390.75,-190.1 1397.75,-190.1"/>
</g>
<!-- INTF&#45;IF_XCO_MESSAGE_SHORT_TEXT&#45;&gt;INTF&#45;IF_XCO_TEXT -->
<g id="edge50" class="edge">
<title>INTF&#45;IF_XCO_MESSAGE_SHORT_TEXT&#45;&gt;INTF&#45;IF_XCO_TEXT</title>
<path fill="none" stroke="black" d="M1042.59,-287.98C1023.91,-278.96 1002.2,-266.7 985.25,-252 940.13,-212.86 954.2,-178.25 905.25,-144 876.62,-123.96 840.34,-111.4 807.94,-103.57"/>
<polygon fill="black" stroke="black" points="808.56,-100.12 798.03,-101.29 806.99,-106.94 808.56,-100.12"/>
</g>
<!-- INTF&#45;IF_XCO_MESSAGE_SHORT_TEXT&#45;&gt;INTF&#45;IF_XCO_MESSAGE -->
<g id="edge49" class="edge">
<title>INTF&#45;IF_XCO_MESSAGE_SHORT_TEXT&#45;&gt;INTF&#45;IF_XCO_MESSAGE</title>
<path fill="none" stroke="black" d="M1128.16,-324.07C1150.91,-333.59 1178.33,-345.53 1200.74,-355.66"/>
<polygon fill="black" stroke="black" points="1199.46,-358.92 1210.01,-359.88 1202.36,-352.55 1199.46,-358.92"/>
</g>
<!-- INTF&#45;IF_XCO_L10N_TEXT -->
<g id="node25" class="node">
<title>INTF&#45;IF_XCO_L10N_TEXT</title>
<g id="a_node25"><a xlink:href="./INTF_IF_XCO_L10N_TEXT.html" xlink:title="INTF&#45;IF_XCO_L10N_TEXT">
<polygon fill="none" stroke="yellow" points="1177.93,-252 994.57,-252 994.57,-216 1177.93,-216 1177.93,-252"/>
<text text-anchor="middle" x="1086.25" y="-229.8" font-family="Times,serif" font-size="14.00">INTF&#45;IF_XCO_L10N_TEXT</text>
</a>
</g>
</g>
<!-- INTF&#45;IF_XCO_MESSAGE_SHORT_TEXT&#45;&gt;INTF&#45;IF_XCO_L10N_TEXT -->
<g id="edge51" class="edge">
<title>INTF&#45;IF_XCO_MESSAGE_SHORT_TEXT&#45;&gt;INTF&#45;IF_XCO_L10N_TEXT</title>
<path fill="none" stroke="black" d="M1083.99,-287.7C1084.33,-279.98 1084.72,-270.71 1085.09,-262.11"/>
<polygon fill="black" stroke="black" points="1088.59,-262.25 1085.52,-252.1 1081.6,-261.95 1088.59,-262.25"/>
</g>
<!-- INTF&#45;IF_XCO_L10N_TEXT&#45;&gt;INTF&#45;IF_XCO_TEXT -->
<g id="edge53" class="edge">
<title>INTF&#45;IF_XCO_L10N_TEXT&#45;&gt;INTF&#45;IF_XCO_TEXT</title>
<path fill="none" stroke="black" d="M1066.81,-215.78C1038.97,-191.27 990.03,-148.75 980.25,-144 926.21,-117.76 859.55,-104.47 808.07,-97.77"/>
<polygon fill="black" stroke="black" points="808.35,-94.28 797.99,-96.51 807.48,-101.22 808.35,-94.28"/>
</g>
<!-- DTEL&#45;SPRAS -->
<g id="node26" class="node">
<title>DTEL&#45;SPRAS</title>
<g id="a_node26"><a xlink:href="./DTEL_SPRAS.html" xlink:title="DTEL&#45;SPRAS">
<polygon fill="none" stroke="green" points="1135.97,-180 1036.54,-180 1036.54,-144 1135.97,-144 1135.97,-180"/>
<text text-anchor="middle" x="1086.25" y="-157.8" font-family="Times,serif" font-size="14.00">DTEL&#45;SPRAS</text>
</a>
</g>
</g>
<!-- INTF&#45;IF_XCO_L10N_TEXT&#45;&gt;DTEL&#45;SPRAS -->
<g id="edge52" class="edge">
<title>INTF&#45;IF_XCO_L10N_TEXT&#45;&gt;DTEL&#45;SPRAS</title>
<path fill="none" stroke="black" d="M1086.25,-215.7C1086.25,-207.98 1086.25,-198.71 1086.25,-190.11"/>
<polygon fill="black" stroke="black" points="1089.75,-190.1 1086.25,-180.1 1082.75,-190.1 1089.75,-190.1"/>
</g>
<!-- DOMA&#45;SPRAS -->
<g id="node27" class="node">
<title>DOMA&#45;SPRAS</title>
<g id="a_node27"><a xlink:href="./DOMA_SPRAS.html" xlink:title="DOMA&#45;SPRAS">
<polygon fill="none" stroke="green" points="1139.47,-108 1033.04,-108 1033.04,-72 1139.47,-72 1139.47,-108"/>
<text text-anchor="middle" x="1086.25" y="-85.8" font-family="Times,serif" font-size="14.00">DOMA&#45;SPRAS</text>
</a>
</g>
</g>
<!-- DTEL&#45;SPRAS&#45;&gt;DOMA&#45;SPRAS -->
<g id="edge54" class="edge">
<title>DTEL&#45;SPRAS&#45;&gt;DOMA&#45;SPRAS</title>
<path fill="none" stroke="black" d="M1086.25,-143.7C1086.25,-135.98 1086.25,-126.71 1086.25,-118.11"/>
<polygon fill="black" stroke="black" points="1089.75,-118.1 1086.25,-108.1 1082.75,-118.1 1089.75,-118.1"/>
</g>
<!-- CLAS&#45;CL_XCO_MESSAGE_TYPE&#45;&gt;INTF&#45;IF_XCO_NEWS -->
<g id="edge57" class="edge">
<title>CLAS&#45;CL_XCO_MESSAGE_TYPE&#45;&gt;INTF&#45;IF_XCO_NEWS</title>
<path fill="none" stroke="black" d="M837.64,-324.01C872.06,-354.01 946.44,-417.88 1012.25,-468 1025.69,-478.23 1040.89,-488.99 1054.15,-498.11"/>
<polygon fill="black" stroke="black" points="1052.31,-501.1 1062.54,-503.86 1056.26,-495.32 1052.31,-501.1"/>
</g>
<!-- CLAS&#45;CL_XCO_MESSAGE_TYPE&#45;&gt;DTEL&#45;SYMSGTY -->
<g id="edge55" class="edge">
<title>CLAS&#45;CL_XCO_MESSAGE_TYPE&#45;&gt;DTEL&#45;SYMSGTY</title>
<path fill="none" stroke="black" d="M931.11,-289.06C1024.36,-275.85 1146.6,-258.43 1185.61,-252.06"/>
<polygon fill="black" stroke="black" points="1186.23,-255.5 1195.49,-250.34 1185.04,-248.6 1186.23,-255.5"/>
</g>
<!-- CLAS&#45;CL_XCO_ENUM_CONSTANT -->
<g id="node29" class="node">
<title>CLAS&#45;CL_XCO_ENUM_CONSTANT</title>
<g id="a_node29"><a xlink:href="./CLAS_CL_XCO_ENUM_CONSTANT.html" xlink:title="CLAS&#45;CL_XCO_ENUM_CONSTANT">
<polygon fill="none" stroke="yellow" points="938.49,-252 698.01,-252 698.01,-216 938.49,-216 938.49,-252"/>
<text text-anchor="middle" x="818.25" y="-229.8" font-family="Times,serif" font-size="14.00">CLAS&#45;CL_XCO_ENUM_CONSTANT</text>
</a>
</g>
</g>
<!-- CLAS&#45;CL_XCO_MESSAGE_TYPE&#45;&gt;CLAS&#45;CL_XCO_ENUM_CONSTANT -->
<g id="edge56" class="edge">
<title>CLAS&#45;CL_XCO_MESSAGE_TYPE&#45;&gt;CLAS&#45;CL_XCO_ENUM_CONSTANT</title>
<path fill="none" stroke="black" d="M818.25,-287.7C818.25,-279.98 818.25,-270.71 818.25,-262.11"/>
<polygon fill="black" stroke="black" points="821.75,-262.1 818.25,-252.1 814.75,-262.1 821.75,-262.1"/>
</g>
<!-- INTF&#45;IF_XCO_PRINTABLE -->
<g id="node30" class="node">
<title>INTF&#45;IF_XCO_PRINTABLE</title>
<g id="a_node30"><a xlink:href="./INTF_IF_XCO_PRINTABLE.html" xlink:title="INTF&#45;IF_XCO_PRINTABLE">
<polygon fill="none" stroke="green" points="896.5,-180 712.01,-180 712.01,-144 896.5,-144 896.5,-180"/>
<text text-anchor="middle" x="804.25" y="-157.8" font-family="Times,serif" font-size="14.00">INTF&#45;IF_XCO_PRINTABLE</text>
</a>
</g>
</g>
<!-- CLAS&#45;CL_XCO_ENUM_CONSTANT&#45;&gt;INTF&#45;IF_XCO_PRINTABLE -->
<g id="edge58" class="edge">
<title>CLAS&#45;CL_XCO_ENUM_CONSTANT&#45;&gt;INTF&#45;IF_XCO_PRINTABLE</title>
<path fill="none" stroke="black" d="M814.79,-215.7C813.25,-207.98 811.4,-198.71 809.68,-190.11"/>
<polygon fill="black" stroke="black" points="813.07,-189.22 807.67,-180.1 806.2,-190.6 813.07,-189.22"/>
</g>
<!-- INTF&#45;IF_XCO_PRINTABLE&#45;&gt;INTF&#45;IF_XCO_TEXT -->
<g id="edge59" class="edge">
<title>INTF&#45;IF_XCO_PRINTABLE&#45;&gt;INTF&#45;IF_XCO_TEXT</title>
<path fill="none" stroke="black" d="M784.97,-143.7C775.34,-135.05 763.52,-124.45 753.03,-115.03"/>
<polygon fill="black" stroke="black" points="755.09,-112.18 745.31,-108.1 750.42,-117.39 755.09,-112.18"/>
</g>
<!-- TABL&#45;SYMSG&#45;&gt;DTEL&#45;SYMSGNO -->
<g id="edge62" class="edge">
<title>TABL&#45;SYMSG&#45;&gt;DTEL&#45;SYMSGNO</title>
<path fill="none" stroke="black" d="M1407.73,-287.98C1425.69,-279.29 1445.68,-267.3 1460.25,-252 1497.14,-213.29 1474.87,-181.22 1513.25,-144 1527.3,-130.38 1545.45,-119.88 1563.25,-111.95"/>
<polygon fill="black" stroke="black" points="1564.66,-115.15 1572.5,-108.03 1561.93,-108.71 1564.66,-115.15"/>
</g>
<!-- TABL&#45;SYMSG&#45;&gt;DTEL&#45;SYMSGID -->
<g id="edge61" class="edge">
<title>TABL&#45;SYMSG&#45;&gt;DTEL&#45;SYMSGID</title>
<path fill="none" stroke="black" d="M1414.85,-287.98C1437.24,-279.14 1463.21,-267.02 1484.25,-252 1537.5,-214 1527.64,-176.77 1584.25,-144 1611.34,-128.32 1687.8,-112.56 1745.39,-102.35"/>
<polygon fill="black" stroke="black" points="1746.3,-105.75 1755.54,-100.58 1745.09,-98.85 1746.3,-105.75"/>
</g>
<!-- TABL&#45;SYMSG&#45;&gt;DTEL&#45;SYMSGTY -->
<g id="edge60" class="edge">
<title>TABL&#45;SYMSG&#45;&gt;DTEL&#45;SYMSGTY</title>
<path fill="none" stroke="black" d="M1338.08,-287.88C1324.22,-278.81 1307.01,-267.55 1292.04,-257.76"/>
<polygon fill="black" stroke="black" points="1293.81,-254.74 1283.53,-252.19 1289.98,-260.59 1293.81,-254.74"/>
</g>
<!-- TABL&#45;SYMSG&#45;&gt;DTEL&#45;SYMSGV -->
<g id="edge63" class="edge">
<title>TABL&#45;SYMSG&#45;&gt;DTEL&#45;SYMSGV</title>
<path fill="none" stroke="black" d="M1371.67,-287.7C1375.05,-279.81 1379.12,-270.3 1382.88,-261.55"/>
<polygon fill="black" stroke="black" points="1386.2,-262.67 1386.92,-252.1 1379.77,-259.92 1386.2,-262.67"/>
</g>
<!-- INTF&#45;IF_XCO_STRING_COMPOSITION&#45;&gt;INTF&#45;IF_XCO_STRING -->
<g id="edge65" class="edge">
<title>INTF&#45;IF_XCO_STRING_COMPOSITION&#45;&gt;INTF&#45;IF_XCO_STRING</title>
<path fill="none" stroke="black" d="M818.27,-540.23C796.55,-577.72 744.91,-666.84 719.25,-711.12"/>
<polygon fill="black" stroke="black" points="716.18,-709.44 714.19,-719.85 722.23,-712.95 716.18,-709.44"/>
</g>
<!-- INTF&#45;IF_XCO_STRING_COMPOSITION&#45;&gt;INTF&#45;IF_XCO_STRINGS -->
<g id="edge64" class="edge">
<title>INTF&#45;IF_XCO_STRING_COMPOSITION&#45;&gt;INTF&#45;IF_XCO_STRINGS</title>
<path fill="none" stroke="black" d="M793.42,-540.07C771.43,-549.71 742.6,-561.85 717.44,-572.06"/>
<polygon fill="black" stroke="black" points="715.96,-568.89 708,-575.88 718.59,-575.38 715.96,-568.89"/>
</g>
<!-- DOMA&#45;INT4 -->
<g id="node35" class="node">
<title>DOMA&#45;INT4</title>
<g id="a_node35"><a xlink:href="./DOMA_INT4.html" xlink:title="DOMA&#45;INT4">
<polygon fill="none" stroke="yellow" points="624,-468 530.51,-468 530.51,-432 624,-432 624,-468"/>
<text text-anchor="middle" x="577.25" y="-445.8" font-family="Times,serif" font-size="14.00">DOMA&#45;INT4</text>
</a>
</g>
</g>
<!-- DTEL&#45;INT4&#45;&gt;DOMA&#45;INT4 -->
<g id="edge66" class="edge">
<title>DTEL&#45;INT4&#45;&gt;DOMA&#45;INT4</title>
<path fill="none" stroke="black" d="M580.26,-503.7C579.82,-495.98 579.29,-486.71 578.8,-478.11"/>
<polygon fill="black" stroke="black" points="582.3,-477.89 578.23,-468.1 575.31,-478.29 582.3,-477.89"/>
</g>
<!-- INTF&#45;IF_XCO_STRING_DECOMPOSITION&#45;&gt;INTF&#45;IF_XCO_STRING -->
<g id="edge69" class="edge">
<title>INTF&#45;IF_XCO_STRING_DECOMPOSITION&#45;&gt;INTF&#45;IF_XCO_STRING</title>
<path fill="none" stroke="black" d="M576.3,-684.07C601.7,-693.71 632.5,-705.85 657.55,-716.06"/>
<polygon fill="black" stroke="black" points="656.27,-719.32 666.85,-719.88 658.93,-712.84 656.27,-719.32"/>
</g>
<!-- INTF&#45;IF_XCO_STRING_DECOMPOSITION&#45;&gt;INTF&#45;IF_XCO_STRINGS -->
<g id="edge70" class="edge">
<title>INTF&#45;IF_XCO_STRING_DECOMPOSITION&#45;&gt;INTF&#45;IF_XCO_STRINGS</title>
<path fill="none" stroke="black" d="M560.03,-647.88C577.88,-638.55 600.15,-626.92 619.26,-616.94"/>
<polygon fill="black" stroke="black" points="621.1,-619.92 628.35,-612.19 617.86,-613.72 621.1,-619.92"/>
</g>
</g>
</svg>
