<?xml version="1.0" encoding="UTF-8" standalone="no"?>
<!DOCTYPE svg PUBLIC "-//W3C//DTD SVG 1.1//EN"
 "http://www.w3.org/Graphics/SVG/1.1/DTD/svg11.dtd">
<!-- Generated by graphviz version 2.47.3 (20210619.1520)
 -->
<!-- Title: G Pages: 1 -->
<svg width="1485pt" height="476pt"
 viewBox="0.00 0.00 1484.78 476.00" xmlns="http://www.w3.org/2000/svg" xmlns:xlink="http://www.w3.org/1999/xlink">
<g id="graph0" class="graph" transform="scale(1 1) rotate(0) translate(4 472)">
<title>G</title>
<polygon fill="white" stroke="transparent" points="-4,4 -4,-472 1480.78,-472 1480.78,4 -4,4"/>
<!-- INTF&#45;IF_XCO_CDS_ANN_VALUE_FACTORY -->
<g id="node1" class="node">
<title>INTF&#45;IF_XCO_CDS_ANN_VALUE_FACTORY</title>
<polygon fill="none" stroke="green" points="894.14,-468 595.03,-468 595.03,-432 894.14,-432 894.14,-468"/>
<text text-anchor="middle" x="744.58" y="-445.8" font-family="Times,serif" font-size="14.00">INTF&#45;IF_XCO_CDS_ANN_VALUE_FACTORY</text>
</g>
<!-- INTF&#45;IF_XCO_CDS_ANN_VALUE -->
<g id="node2" class="node">
<title>INTF&#45;IF_XCO_CDS_ANN_VALUE</title>
<g id="a_node2"><a xlink:href="./INTF_IF_XCO_CDS_ANN_VALUE.html" xlink:title="INTF&#45;IF_XCO_CDS_ANN_VALUE">
<polygon fill="none" stroke="green" points="857.81,-252 631.36,-252 631.36,-216 857.81,-216 857.81,-252"/>
<text text-anchor="middle" x="744.58" y="-229.8" font-family="Times,serif" font-size="14.00">INTF&#45;IF_XCO_CDS_ANN_VALUE</text>
</a>
</g>
</g>
<!-- INTF&#45;IF_XCO_CDS_ANN_VALUE_FACTORY&#45;&gt;INTF&#45;IF_XCO_CDS_ANN_VALUE -->
<g id="edge3" class="edge">
<title>INTF&#45;IF_XCO_CDS_ANN_VALUE_FACTORY&#45;&gt;INTF&#45;IF_XCO_CDS_ANN_VALUE</title>
<path fill="none" stroke="black" d="M712.38,-431.91C662.82,-403.32 577.31,-343.46 614.58,-288 623.87,-274.18 637.46,-263.96 652.4,-256.41"/>
<polygon fill="black" stroke="black" points="654.24,-259.41 661.84,-252.04 651.3,-253.06 654.24,-259.41"/>
</g>
<!-- TTYP&#45;SXCO_T_CDS_ANN_VALUES -->
<g id="node10" class="node">
<title>TTYP&#45;SXCO_T_CDS_ANN_VALUES</title>
<g id="a_node10"><a xlink:href="./TTYP_SXCO_T_CDS_ANN_VALUES.html" xlink:title="TTYP&#45;SXCO_T_CDS_ANN_VALUES">
<polygon fill="none" stroke="green" points="865.88,-324 623.29,-324 623.29,-288 865.88,-288 865.88,-324"/>
<text text-anchor="middle" x="744.58" y="-301.8" font-family="Times,serif" font-size="14.00">TTYP&#45;SXCO_T_CDS_ANN_VALUES</text>
</a>
</g>
</g>
<!-- INTF&#45;IF_XCO_CDS_ANN_VALUE_FACTORY&#45;&gt;TTYP&#45;SXCO_T_CDS_ANN_VALUES -->
<g id="edge2" class="edge">
<title>INTF&#45;IF_XCO_CDS_ANN_VALUE_FACTORY&#45;&gt;TTYP&#45;SXCO_T_CDS_ANN_VALUES</title>
<path fill="none" stroke="black" d="M744.58,-431.87C744.58,-407.67 744.58,-363.21 744.58,-334.39"/>
<polygon fill="black" stroke="black" points="748.08,-334.19 744.58,-324.19 741.08,-334.19 748.08,-334.19"/>
</g>
<!-- TTYP&#45;SXCO_T_CDS_ANN_VAL_MEMBER -->
<g id="node11" class="node">
<title>TTYP&#45;SXCO_T_CDS_ANN_VAL_MEMBER</title>
<g id="a_node11"><a xlink:href="./TTYP_SXCO_T_CDS_ANN_VAL_MEMBER.html" xlink:title="TTYP&#45;SXCO_T_CDS_ANN_VAL_MEMBER">
<polygon fill="none" stroke="green" points="1111.1,-396 828.06,-396 828.06,-360 1111.1,-360 1111.1,-396"/>
<text text-anchor="middle" x="969.58" y="-373.8" font-family="Times,serif" font-size="14.00">TTYP&#45;SXCO_T_CDS_ANN_VAL_MEMBER</text>
</a>
</g>
</g>
<!-- INTF&#45;IF_XCO_CDS_ANN_VALUE_FACTORY&#45;&gt;TTYP&#45;SXCO_T_CDS_ANN_VAL_MEMBER -->
<g id="edge1" class="edge">
<title>INTF&#45;IF_XCO_CDS_ANN_VALUE_FACTORY&#45;&gt;TTYP&#45;SXCO_T_CDS_ANN_VAL_MEMBER</title>
<path fill="none" stroke="black" d="M799.34,-431.97C831.19,-422.06 871.5,-409.51 904.91,-399.12"/>
<polygon fill="black" stroke="black" points="906.08,-402.42 914.59,-396.11 904,-395.74 906.08,-402.42"/>
</g>
<!-- INTF&#45;IF_XCO_CDS_ANN_VT_VISITOR -->
<g id="node3" class="node">
<title>INTF&#45;IF_XCO_CDS_ANN_VT_VISITOR</title>
<g id="a_node3"><a xlink:href="./INTF_IF_XCO_CDS_ANN_VT_VISITOR.html" xlink:title="INTF&#45;IF_XCO_CDS_ANN_VT_VISITOR">
<polygon fill="none" stroke="green" points="874.75,-180 614.42,-180 614.42,-144 874.75,-144 874.75,-180"/>
<text text-anchor="middle" x="744.58" y="-157.8" font-family="Times,serif" font-size="14.00">INTF&#45;IF_XCO_CDS_ANN_VT_VISITOR</text>
</a>
</g>
</g>
<!-- INTF&#45;IF_XCO_CDS_ANN_VALUE&#45;&gt;INTF&#45;IF_XCO_CDS_ANN_VT_VISITOR -->
<g id="edge4" class="edge">
<title>INTF&#45;IF_XCO_CDS_ANN_VALUE&#45;&gt;INTF&#45;IF_XCO_CDS_ANN_VT_VISITOR</title>
<path fill="none" stroke="black" d="M744.58,-215.7C744.58,-207.98 744.58,-198.71 744.58,-190.11"/>
<polygon fill="black" stroke="black" points="748.08,-190.1 744.58,-180.1 741.08,-190.1 748.08,-190.1"/>
</g>
<!-- INTF&#45;IF_XCO_CDS_ANN_VAL_P_NULL -->
<g id="node4" class="node">
<title>INTF&#45;IF_XCO_CDS_ANN_VAL_P_NULL</title>
<g id="a_node4"><a xlink:href="./INTF_IF_XCO_CDS_ANN_VAL_P_NULL.html" xlink:title="INTF&#45;IF_XCO_CDS_ANN_VAL_P_NULL">
<polygon fill="none" stroke="green" points="267.25,-108 -0.08,-108 -0.08,-72 267.25,-72 267.25,-108"/>
<text text-anchor="middle" x="133.58" y="-85.8" font-family="Times,serif" font-size="14.00">INTF&#45;IF_XCO_CDS_ANN_VAL_P_NULL</text>
</a>
</g>
</g>
<!-- INTF&#45;IF_XCO_CDS_ANN_VT_VISITOR&#45;&gt;INTF&#45;IF_XCO_CDS_ANN_VAL_P_NULL -->
<g id="edge9" class="edge">
<title>INTF&#45;IF_XCO_CDS_ANN_VT_VISITOR&#45;&gt;INTF&#45;IF_XCO_CDS_ANN_VAL_P_NULL</title>
<path fill="none" stroke="black" d="M614.44,-146.46C523.09,-136.2 397.78,-122.04 277.32,-108.08"/>
<polygon fill="black" stroke="black" points="277.51,-104.58 267.17,-106.9 276.7,-111.53 277.51,-104.58"/>
</g>
<!-- INTF&#45;IF_XCO_CDS_ANN_VAL_P_BOOLEAN -->
<g id="node6" class="node">
<title>INTF&#45;IF_XCO_CDS_ANN_VAL_P_BOOLEAN</title>
<g id="a_node6"><a xlink:href="./INTF_IF_XCO_CDS_ANN_VAL_P_BOOLEAN.html" xlink:title="INTF&#45;IF_XCO_CDS_ANN_VAL_P_BOOLEAN">
<polygon fill="none" stroke="green" points="581.8,-108 285.37,-108 285.37,-72 581.8,-72 581.8,-108"/>
<text text-anchor="middle" x="433.58" y="-85.8" font-family="Times,serif" font-size="14.00">INTF&#45;IF_XCO_CDS_ANN_VAL_P_BOOLEAN</text>
</a>
</g>
</g>
<!-- INTF&#45;IF_XCO_CDS_ANN_VT_VISITOR&#45;&gt;INTF&#45;IF_XCO_CDS_ANN_VAL_P_BOOLEAN -->
<g id="edge8" class="edge">
<title>INTF&#45;IF_XCO_CDS_ANN_VT_VISITOR&#45;&gt;INTF&#45;IF_XCO_CDS_ANN_VAL_P_BOOLEAN</title>
<path fill="none" stroke="black" d="M668.9,-143.97C623.66,-133.78 566.06,-120.82 519.17,-110.26"/>
<polygon fill="black" stroke="black" points="519.86,-106.83 509.34,-108.05 518.32,-113.66 519.86,-106.83"/>
</g>
<!-- INTF&#45;IF_XCO_CDS_ANN_VAL_P_NUMBER -->
<g id="node7" class="node">
<title>INTF&#45;IF_XCO_CDS_ANN_VAL_P_NUMBER</title>
<g id="a_node7"><a xlink:href="./INTF_IF_XCO_CDS_ANN_VAL_P_NUMBER.html" xlink:title="INTF&#45;IF_XCO_CDS_ANN_VAL_P_NUMBER">
<polygon fill="none" stroke="green" points="889.32,-108 599.85,-108 599.85,-72 889.32,-72 889.32,-108"/>
<text text-anchor="middle" x="744.58" y="-85.8" font-family="Times,serif" font-size="14.00">INTF&#45;IF_XCO_CDS_ANN_VAL_P_NUMBER</text>
</a>
</g>
</g>
<!-- INTF&#45;IF_XCO_CDS_ANN_VT_VISITOR&#45;&gt;INTF&#45;IF_XCO_CDS_ANN_VAL_P_NUMBER -->
<g id="edge7" class="edge">
<title>INTF&#45;IF_XCO_CDS_ANN_VT_VISITOR&#45;&gt;INTF&#45;IF_XCO_CDS_ANN_VAL_P_NUMBER</title>
<path fill="none" stroke="black" d="M744.58,-143.7C744.58,-135.98 744.58,-126.71 744.58,-118.11"/>
<polygon fill="black" stroke="black" points="748.08,-118.1 744.58,-108.1 741.08,-118.1 748.08,-118.1"/>
</g>
<!-- INTF&#45;IF_XCO_CDS_ANN_VAL_P_ENUM -->
<g id="node8" class="node">
<title>INTF&#45;IF_XCO_CDS_ANN_VAL_P_ENUM</title>
<g id="a_node8"><a xlink:href="./INTF_IF_XCO_CDS_ANN_VAL_P_ENUM.html" xlink:title="INTF&#45;IF_XCO_CDS_ANN_VAL_P_ENUM">
<polygon fill="none" stroke="green" points="1178.14,-108 907.02,-108 907.02,-72 1178.14,-72 1178.14,-108"/>
<text text-anchor="middle" x="1042.58" y="-85.8" font-family="Times,serif" font-size="14.00">INTF&#45;IF_XCO_CDS_ANN_VAL_P_ENUM</text>
</a>
</g>
</g>
<!-- INTF&#45;IF_XCO_CDS_ANN_VT_VISITOR&#45;&gt;INTF&#45;IF_XCO_CDS_ANN_VAL_P_ENUM -->
<g id="edge6" class="edge">
<title>INTF&#45;IF_XCO_CDS_ANN_VT_VISITOR&#45;&gt;INTF&#45;IF_XCO_CDS_ANN_VAL_P_ENUM</title>
<path fill="none" stroke="black" d="M817.1,-143.97C860.27,-133.83 915.18,-120.93 960.01,-110.4"/>
<polygon fill="black" stroke="black" points="961.07,-113.74 970,-108.05 959.46,-106.93 961.07,-113.74"/>
</g>
<!-- INTF&#45;IF_XCO_CDS_ANN_VAL_P_STRING -->
<g id="node9" class="node">
<title>INTF&#45;IF_XCO_CDS_ANN_VAL_P_STRING</title>
<g id="a_node9"><a xlink:href="./INTF_IF_XCO_CDS_ANN_VAL_P_STRING.html" xlink:title="INTF&#45;IF_XCO_CDS_ANN_VAL_P_STRING">
<polygon fill="none" stroke="green" points="1476.98,-108 1196.19,-108 1196.19,-72 1476.98,-72 1476.98,-108"/>
<text text-anchor="middle" x="1336.58" y="-85.8" font-family="Times,serif" font-size="14.00">INTF&#45;IF_XCO_CDS_ANN_VAL_P_STRING</text>
</a>
</g>
</g>
<!-- INTF&#45;IF_XCO_CDS_ANN_VT_VISITOR&#45;&gt;INTF&#45;IF_XCO_CDS_ANN_VAL_P_STRING -->
<g id="edge5" class="edge">
<title>INTF&#45;IF_XCO_CDS_ANN_VT_VISITOR&#45;&gt;INTF&#45;IF_XCO_CDS_ANN_VAL_P_STRING</title>
<path fill="none" stroke="black" d="M874.87,-145.59C966.77,-134.73 1090.11,-120.14 1186.19,-108.78"/>
<polygon fill="black" stroke="black" points="1186.77,-112.24 1196.29,-107.59 1185.95,-105.29 1186.77,-112.24"/>
</g>
<!-- INTF&#45;IF_XCO_CDS_ANN_VAL_PRIMITIVE -->
<g id="node5" class="node">
<title>INTF&#45;IF_XCO_CDS_ANN_VAL_PRIMITIVE</title>
<g id="a_node5"><a xlink:href="./INTF_IF_XCO_CDS_ANN_VAL_PRIMITIVE.html" xlink:title="INTF&#45;IF_XCO_CDS_ANN_VAL_PRIMITIVE">
<polygon fill="none" stroke="green" points="887.41,-36 601.76,-36 601.76,0 887.41,0 887.41,-36"/>
<text text-anchor="middle" x="744.58" y="-13.8" font-family="Times,serif" font-size="14.00">INTF&#45;IF_XCO_CDS_ANN_VAL_PRIMITIVE</text>
</a>
</g>
</g>
<!-- INTF&#45;IF_XCO_CDS_ANN_VAL_P_NULL&#45;&gt;INTF&#45;IF_XCO_CDS_ANN_VAL_PRIMITIVE -->
<g id="edge10" class="edge">
<title>INTF&#45;IF_XCO_CDS_ANN_VAL_P_NULL&#45;&gt;INTF&#45;IF_XCO_CDS_ANN_VAL_PRIMITIVE</title>
<path fill="none" stroke="black" d="M267.17,-73.1C270.34,-72.73 273.48,-72.36 276.58,-72 381.69,-59.8 500.11,-46.39 591.53,-36.12"/>
<polygon fill="black" stroke="black" points="592.15,-39.57 601.7,-34.97 591.37,-32.61 592.15,-39.57"/>
</g>
<!-- INTF&#45;IF_XCO_CDS_ANN_VAL_P_BOOLEAN&#45;&gt;INTF&#45;IF_XCO_CDS_ANN_VAL_PRIMITIVE -->
<g id="edge11" class="edge">
<title>INTF&#45;IF_XCO_CDS_ANN_VAL_P_BOOLEAN&#45;&gt;INTF&#45;IF_XCO_CDS_ANN_VAL_PRIMITIVE</title>
<path fill="none" stroke="black" d="M509.27,-71.97C554.5,-61.78 612.11,-48.82 659,-38.26"/>
<polygon fill="black" stroke="black" points="659.85,-41.66 668.83,-36.05 658.31,-34.83 659.85,-41.66"/>
</g>
<!-- INTF&#45;IF_XCO_CDS_ANN_VAL_P_NUMBER&#45;&gt;INTF&#45;IF_XCO_CDS_ANN_VAL_PRIMITIVE -->
<g id="edge12" class="edge">
<title>INTF&#45;IF_XCO_CDS_ANN_VAL_P_NUMBER&#45;&gt;INTF&#45;IF_XCO_CDS_ANN_VAL_PRIMITIVE</title>
<path fill="none" stroke="black" d="M744.58,-71.7C744.58,-63.98 744.58,-54.71 744.58,-46.11"/>
<polygon fill="black" stroke="black" points="748.08,-46.1 744.58,-36.1 741.08,-46.1 748.08,-46.1"/>
</g>
<!-- INTF&#45;IF_XCO_CDS_ANN_VAL_P_ENUM&#45;&gt;INTF&#45;IF_XCO_CDS_ANN_VAL_PRIMITIVE -->
<g id="edge13" class="edge">
<title>INTF&#45;IF_XCO_CDS_ANN_VAL_P_ENUM&#45;&gt;INTF&#45;IF_XCO_CDS_ANN_VAL_PRIMITIVE</title>
<path fill="none" stroke="black" d="M970.07,-71.97C926.9,-61.83 871.99,-48.93 827.16,-38.4"/>
<polygon fill="black" stroke="black" points="827.7,-34.93 817.17,-36.05 826.1,-41.74 827.7,-34.93"/>
</g>
<!-- INTF&#45;IF_XCO_CDS_ANN_VAL_P_STRING&#45;&gt;INTF&#45;IF_XCO_CDS_ANN_VAL_PRIMITIVE -->
<g id="edge14" class="edge">
<title>INTF&#45;IF_XCO_CDS_ANN_VAL_P_STRING&#45;&gt;INTF&#45;IF_XCO_CDS_ANN_VAL_PRIMITIVE</title>
<path fill="none" stroke="black" d="M1196.29,-72.41C1106.39,-61.78 989.71,-47.98 897.45,-37.08"/>
<polygon fill="black" stroke="black" points="897.81,-33.59 887.47,-35.9 896.99,-40.55 897.81,-33.59"/>
</g>
<!-- TTYP&#45;SXCO_T_CDS_ANN_VALUES&#45;&gt;INTF&#45;IF_XCO_CDS_ANN_VALUE -->
<g id="edge15" class="edge">
<title>TTYP&#45;SXCO_T_CDS_ANN_VALUES&#45;&gt;INTF&#45;IF_XCO_CDS_ANN_VALUE</title>
<path fill="none" stroke="black" d="M744.58,-287.7C744.58,-279.98 744.58,-270.71 744.58,-262.11"/>
<polygon fill="black" stroke="black" points="748.08,-262.1 744.58,-252.1 741.08,-262.1 748.08,-262.1"/>
</g>
<!-- TABL&#45;SXCO_S_CDS_ANN_VAL_MEMBER -->
<g id="node12" class="node">
<title>TABL&#45;SXCO_S_CDS_ANN_VAL_MEMBER</title>
<g id="a_node12"><a xlink:href="./TABL_SXCO_S_CDS_ANN_VAL_MEMBER.html" xlink:title="TABL&#45;SXCO_S_CDS_ANN_VAL_MEMBER">
<polygon fill="none" stroke="green" points="1167.89,-324 883.28,-324 883.28,-288 1167.89,-288 1167.89,-324"/>
<text text-anchor="middle" x="1025.58" y="-301.8" font-family="Times,serif" font-size="14.00">TABL&#45;SXCO_S_CDS_ANN_VAL_MEMBER</text>
</a>
</g>
</g>
<!-- TTYP&#45;SXCO_T_CDS_ANN_VAL_MEMBER&#45;&gt;TABL&#45;SXCO_S_CDS_ANN_VAL_MEMBER -->
<g id="edge16" class="edge">
<title>TTYP&#45;SXCO_T_CDS_ANN_VAL_MEMBER&#45;&gt;TABL&#45;SXCO_S_CDS_ANN_VAL_MEMBER</title>
<path fill="none" stroke="black" d="M983.43,-359.7C990.07,-351.39 998.16,-341.28 1005.47,-332.14"/>
<polygon fill="black" stroke="black" points="1008.39,-334.1 1011.9,-324.1 1002.92,-329.73 1008.39,-334.1"/>
</g>
<!-- TABL&#45;SXCO_S_CDS_ANN_VAL_MEMBER&#45;&gt;INTF&#45;IF_XCO_CDS_ANN_VALUE -->
<g id="edge17" class="edge">
<title>TABL&#45;SXCO_S_CDS_ANN_VAL_MEMBER&#45;&gt;INTF&#45;IF_XCO_CDS_ANN_VALUE</title>
<path fill="none" stroke="black" d="M957.2,-287.97C916.75,-277.89 865.34,-265.08 823.21,-254.59"/>
<polygon fill="black" stroke="black" points="823.82,-251.13 813.27,-252.11 822.13,-257.92 823.82,-251.13"/>
</g>
</g>
</svg>
