<?xml version="1.0" encoding="UTF-8" standalone="no"?>
<!DOCTYPE svg PUBLIC "-//W3C//DTD SVG 1.1//EN"
 "http://www.w3.org/Graphics/SVG/1.1/DTD/svg11.dtd">
<!-- Generated by graphviz version 2.47.3 (20210619.1520)
 -->
<!-- Title: G Pages: 1 -->
<svg width="2018pt" height="188pt"
 viewBox="0.00 0.00 2017.96 188.00" xmlns="http://www.w3.org/2000/svg" xmlns:xlink="http://www.w3.org/1999/xlink">
<g id="graph0" class="graph" transform="scale(1 1) rotate(0) translate(4 184)">
<title>G</title>
<polygon fill="white" stroke="transparent" points="-4,4 -4,-184 2013.96,-184 2013.96,4 -4,4"/>
<!-- INTF&#45;IF_SOAP_PERSIST_GET -->
<g id="node1" class="node">
<title>INTF&#45;IF_SOAP_PERSIST_GET</title>
<polygon fill="none" stroke="yellow" points="1014.02,-180 811.73,-180 811.73,-144 1014.02,-144 1014.02,-180"/>
<text text-anchor="middle" x="912.87" y="-157.8" font-family="Times,serif" font-size="14.00">INTF&#45;IF_SOAP_PERSIST_GET</text>
</g>
<!-- DTEL&#45;INT4 -->
<g id="node2" class="node">
<title>DTEL&#45;INT4</title>
<g id="a_node2"><a xlink:href="./DTEL_INT4.html" xlink:title="DTEL&#45;INT4">
<polygon fill="none" stroke="green" points="95.12,-108 8.63,-108 8.63,-72 95.12,-72 95.12,-108"/>
<text text-anchor="middle" x="51.87" y="-85.8" font-family="Times,serif" font-size="14.00">DTEL&#45;INT4</text>
</a>
</g>
</g>
<!-- INTF&#45;IF_SOAP_PERSIST_GET&#45;&gt;DTEL&#45;INT4 -->
<g id="edge13" class="edge">
<title>INTF&#45;IF_SOAP_PERSIST_GET&#45;&gt;DTEL&#45;INT4</title>
<path fill="none" stroke="black" d="M811.41,-161.9C657.69,-161.56 357.16,-154.25 106.87,-108 106.27,-107.89 105.67,-107.77 105.07,-107.66"/>
<polygon fill="black" stroke="black" points="105.7,-104.21 95.17,-105.41 104.15,-111.04 105.7,-104.21"/>
</g>
<!-- DTEL&#45;NUMC3 -->
<g id="node4" class="node">
<title>DTEL&#45;NUMC3</title>
<g id="a_node4"><a xlink:href="./DTEL_NUMC3.html" xlink:title="DTEL&#45;NUMC3">
<polygon fill="none" stroke="yellow" points="221.79,-108 115.95,-108 115.95,-72 221.79,-72 221.79,-108"/>
<text text-anchor="middle" x="168.87" y="-85.8" font-family="Times,serif" font-size="14.00">DTEL&#45;NUMC3</text>
</a>
</g>
</g>
<!-- INTF&#45;IF_SOAP_PERSIST_GET&#45;&gt;DTEL&#45;NUMC3 -->
<g id="edge12" class="edge">
<title>INTF&#45;IF_SOAP_PERSIST_GET&#45;&gt;DTEL&#45;NUMC3</title>
<path fill="none" stroke="black" d="M811.64,-158.85C678.18,-154.7 436.42,-142.67 232.87,-108 232.53,-107.94 232.19,-107.88 231.85,-107.82"/>
<polygon fill="black" stroke="black" points="232.28,-104.34 221.79,-105.85 230.93,-111.21 232.28,-104.34"/>
</g>
<!-- DTEL&#45;TIMESTAMPL -->
<g id="node6" class="node">
<title>DTEL&#45;TIMESTAMPL</title>
<g id="a_node6"><a xlink:href="./DTEL_TIMESTAMPL.html" xlink:title="DTEL&#45;TIMESTAMPL">
<polygon fill="none" stroke="green" points="387.73,-108 242.02,-108 242.02,-72 387.73,-72 387.73,-108"/>
<text text-anchor="middle" x="314.87" y="-85.8" font-family="Times,serif" font-size="14.00">DTEL&#45;TIMESTAMPL</text>
</a>
</g>
</g>
<!-- INTF&#45;IF_SOAP_PERSIST_GET&#45;&gt;DTEL&#45;TIMESTAMPL -->
<g id="edge11" class="edge">
<title>INTF&#45;IF_SOAP_PERSIST_GET&#45;&gt;DTEL&#45;TIMESTAMPL</title>
<path fill="none" stroke="black" d="M811.56,-153.47C707.63,-145.06 541.43,-129.72 398.87,-108 398.65,-107.97 398.43,-107.93 398.21,-107.9"/>
<polygon fill="black" stroke="black" points="398.53,-104.4 388.1,-106.25 397.41,-111.31 398.53,-104.4"/>
</g>
<!-- DTEL&#45;SYUNAME -->
<g id="node8" class="node">
<title>DTEL&#45;SYUNAME</title>
<g id="a_node8"><a xlink:href="./DTEL_SYUNAME.html" xlink:title="DTEL&#45;SYUNAME">
<polygon fill="none" stroke="green" points="533.5,-108 408.24,-108 408.24,-72 533.5,-72 533.5,-108"/>
<text text-anchor="middle" x="470.87" y="-85.8" font-family="Times,serif" font-size="14.00">DTEL&#45;SYUNAME</text>
</a>
</g>
</g>
<!-- INTF&#45;IF_SOAP_PERSIST_GET&#45;&gt;DTEL&#45;SYUNAME -->
<g id="edge10" class="edge">
<title>INTF&#45;IF_SOAP_PERSIST_GET&#45;&gt;DTEL&#45;SYUNAME</title>
<path fill="none" stroke="black" d="M811.47,-148.83C737.12,-139.32 633.88,-124.91 543.87,-108 543.77,-107.98 543.66,-107.96 543.56,-107.94"/>
<polygon fill="black" stroke="black" points="544.2,-104.5 533.71,-106 542.85,-111.37 544.2,-104.5"/>
</g>
<!-- DTEL&#45;SYMANDT -->
<g id="node10" class="node">
<title>DTEL&#45;SYMANDT</title>
<g id="a_node10"><a xlink:href="./DTEL_SYMANDT.html" xlink:title="DTEL&#45;SYMANDT">
<polygon fill="none" stroke="yellow" points="678.5,-108 553.24,-108 553.24,-72 678.5,-72 678.5,-108"/>
<text text-anchor="middle" x="615.87" y="-85.8" font-family="Times,serif" font-size="14.00">DTEL&#45;SYMANDT</text>
</a>
</g>
</g>
<!-- INTF&#45;IF_SOAP_PERSIST_GET&#45;&gt;DTEL&#45;SYMANDT -->
<g id="edge9" class="edge">
<title>INTF&#45;IF_SOAP_PERSIST_GET&#45;&gt;DTEL&#45;SYMANDT</title>
<path fill="none" stroke="black" d="M840.6,-143.97C794.53,-133.11 735.03,-119.08 688.83,-108.19"/>
<polygon fill="black" stroke="black" points="689.42,-104.74 678.88,-105.85 687.81,-111.55 689.42,-104.74"/>
</g>
<!-- DTEL&#45;SXMSQOS -->
<g id="node12" class="node">
<title>DTEL&#45;SXMSQOS</title>
<g id="a_node12"><a xlink:href="./DTEL_SXMSQOS.html" xlink:title="DTEL&#45;SXMSQOS">
<polygon fill="none" stroke="yellow" points="819.91,-108 697.83,-108 697.83,-72 819.91,-72 819.91,-108"/>
<text text-anchor="middle" x="758.87" y="-85.8" font-family="Times,serif" font-size="14.00">DTEL&#45;SXMSQOS</text>
</a>
</g>
</g>
<!-- INTF&#45;IF_SOAP_PERSIST_GET&#45;&gt;DTEL&#45;SXMSQOS -->
<g id="edge8" class="edge">
<title>INTF&#45;IF_SOAP_PERSIST_GET&#45;&gt;DTEL&#45;SXMSQOS</title>
<path fill="none" stroke="black" d="M875.2,-143.88C854.24,-134.35 827.97,-122.41 805.7,-112.28"/>
<polygon fill="black" stroke="black" points="806.97,-109.02 796.42,-108.07 804.08,-115.39 806.97,-109.02"/>
</g>
<!-- DTEL&#45;SXMSPMTYPE -->
<g id="node14" class="node">
<title>DTEL&#45;SXMSPMTYPE</title>
<g id="a_node14"><a xlink:href="./DTEL_SXMSPMTYPE.html" xlink:title="DTEL&#45;SXMSPMTYPE">
<polygon fill="none" stroke="yellow" points="987.64,-108 838.11,-108 838.11,-72 987.64,-72 987.64,-108"/>
<text text-anchor="middle" x="912.87" y="-85.8" font-family="Times,serif" font-size="14.00">DTEL&#45;SXMSPMTYPE</text>
</a>
</g>
</g>
<!-- INTF&#45;IF_SOAP_PERSIST_GET&#45;&gt;DTEL&#45;SXMSPMTYPE -->
<g id="edge7" class="edge">
<title>INTF&#45;IF_SOAP_PERSIST_GET&#45;&gt;DTEL&#45;SXMSPMTYPE</title>
<path fill="none" stroke="black" d="M912.87,-143.7C912.87,-135.98 912.87,-126.71 912.87,-118.11"/>
<polygon fill="black" stroke="black" points="916.37,-118.1 912.87,-108.1 909.37,-118.1 916.37,-118.1"/>
</g>
<!-- DTEL&#45;BOOLEAN -->
<g id="node16" class="node">
<title>DTEL&#45;BOOLEAN</title>
<g id="a_node16"><a xlink:href="./DTEL_BOOLEAN.html" xlink:title="DTEL&#45;BOOLEAN">
<polygon fill="none" stroke="yellow" points="1129.67,-108 1006.08,-108 1006.08,-72 1129.67,-72 1129.67,-108"/>
<text text-anchor="middle" x="1067.87" y="-85.8" font-family="Times,serif" font-size="14.00">DTEL&#45;BOOLEAN</text>
</a>
</g>
</g>
<!-- INTF&#45;IF_SOAP_PERSIST_GET&#45;&gt;DTEL&#45;BOOLEAN -->
<g id="edge6" class="edge">
<title>INTF&#45;IF_SOAP_PERSIST_GET&#45;&gt;DTEL&#45;BOOLEAN</title>
<path fill="none" stroke="black" d="M950.79,-143.88C971.88,-134.35 998.33,-122.41 1020.75,-112.28"/>
<polygon fill="black" stroke="black" points="1022.41,-115.37 1030.08,-108.07 1019.52,-108.99 1022.41,-115.37"/>
</g>
<!-- DTEL&#45;SXMSPMSTAT -->
<g id="node18" class="node">
<title>DTEL&#45;SXMSPMSTAT</title>
<g id="a_node18"><a xlink:href="./DTEL_SXMSPMSTAT.html" xlink:title="DTEL&#45;SXMSPMSTAT">
<polygon fill="none" stroke="yellow" points="1297.64,-108 1148.11,-108 1148.11,-72 1297.64,-72 1297.64,-108"/>
<text text-anchor="middle" x="1222.87" y="-85.8" font-family="Times,serif" font-size="14.00">DTEL&#45;SXMSPMSTAT</text>
</a>
</g>
</g>
<!-- INTF&#45;IF_SOAP_PERSIST_GET&#45;&gt;DTEL&#45;SXMSPMSTAT -->
<g id="edge5" class="edge">
<title>INTF&#45;IF_SOAP_PERSIST_GET&#45;&gt;DTEL&#45;SXMSPMSTAT</title>
<path fill="none" stroke="black" d="M988.31,-143.97C1033.57,-133.75 1091.25,-120.72 1138.08,-110.15"/>
<polygon fill="black" stroke="black" points="1138.92,-113.55 1147.9,-107.93 1137.38,-106.72 1138.92,-113.55"/>
</g>
<!-- DTEL&#45;AIT_SNDR -->
<g id="node20" class="node">
<title>DTEL&#45;AIT_SNDR</title>
<g id="a_node20"><a xlink:href="./DTEL_AIT_SNDR.html" xlink:title="DTEL&#45;AIT_SNDR">
<polygon fill="none" stroke="yellow" points="1439.95,-108 1315.8,-108 1315.8,-72 1439.95,-72 1439.95,-108"/>
<text text-anchor="middle" x="1377.87" y="-85.8" font-family="Times,serif" font-size="14.00">DTEL&#45;AIT_SNDR</text>
</a>
</g>
</g>
<!-- INTF&#45;IF_SOAP_PERSIST_GET&#45;&gt;DTEL&#45;AIT_SNDR -->
<g id="edge4" class="edge">
<title>INTF&#45;IF_SOAP_PERSIST_GET&#45;&gt;DTEL&#45;AIT_SNDR</title>
<path fill="none" stroke="black" d="M1014.13,-150.24C1091.49,-141.35 1200.89,-127.35 1305.5,-108.16"/>
<polygon fill="black" stroke="black" points="1306.42,-111.55 1315.61,-106.28 1305.14,-104.67 1306.42,-111.55"/>
</g>
<!-- DTEL&#45;SRT_SEQUENCE_ID -->
<g id="node22" class="node">
<title>DTEL&#45;SRT_SEQUENCE_ID</title>
<g id="a_node22"><a xlink:href="./DTEL_SRT_SEQUENCE_ID.html" xlink:title="DTEL&#45;SRT_SEQUENCE_ID">
<polygon fill="none" stroke="yellow" points="1641.83,-108 1457.91,-108 1457.91,-72 1641.83,-72 1641.83,-108"/>
<text text-anchor="middle" x="1549.87" y="-85.8" font-family="Times,serif" font-size="14.00">DTEL&#45;SRT_SEQUENCE_ID</text>
</a>
</g>
</g>
<!-- INTF&#45;IF_SOAP_PERSIST_GET&#45;&gt;DTEL&#45;SRT_SEQUENCE_ID -->
<g id="edge3" class="edge">
<title>INTF&#45;IF_SOAP_PERSIST_GET&#45;&gt;DTEL&#45;SRT_SEQUENCE_ID</title>
<path fill="none" stroke="black" d="M1014.37,-153.04C1120.02,-144.28 1290.51,-128.81 1447.4,-108.15"/>
<polygon fill="black" stroke="black" points="1448.26,-111.56 1457.71,-106.78 1447.34,-104.62 1448.26,-111.56"/>
</g>
<!-- DTEL&#45;SRT_SEQ_QUEUENAME -->
<g id="node24" class="node">
<title>DTEL&#45;SRT_SEQ_QUEUENAME</title>
<g id="a_node24"><a xlink:href="./DTEL_SRT_SEQ_QUEUENAME.html" xlink:title="DTEL&#45;SRT_SEQ_QUEUENAME">
<polygon fill="none" stroke="yellow" points="1871.55,-108 1660.2,-108 1660.2,-72 1871.55,-72 1871.55,-108"/>
<text text-anchor="middle" x="1765.87" y="-85.8" font-family="Times,serif" font-size="14.00">DTEL&#45;SRT_SEQ_QUEUENAME</text>
</a>
</g>
</g>
<!-- INTF&#45;IF_SOAP_PERSIST_GET&#45;&gt;DTEL&#45;SRT_SEQ_QUEUENAME -->
<g id="edge2" class="edge">
<title>INTF&#45;IF_SOAP_PERSIST_GET&#45;&gt;DTEL&#45;SRT_SEQ_QUEUENAME</title>
<path fill="none" stroke="black" d="M1014.26,-156.13C1154.69,-148.85 1416.52,-133.32 1649.97,-108.05"/>
<polygon fill="black" stroke="black" points="1650.45,-111.52 1660.01,-106.95 1649.69,-104.56 1650.45,-111.52"/>
</g>
<!-- TABL&#45;QNAME -->
<g id="node26" class="node">
<title>TABL&#45;QNAME</title>
<g id="a_node26"><a xlink:href="./TABL_QNAME.html" xlink:title="TABL&#45;QNAME">
<polygon fill="none" stroke="green" points="1997.9,-108 1889.85,-108 1889.85,-72 1997.9,-72 1997.9,-108"/>
<text text-anchor="middle" x="1943.87" y="-85.8" font-family="Times,serif" font-size="14.00">TABL&#45;QNAME</text>
</a>
</g>
</g>
<!-- INTF&#45;IF_SOAP_PERSIST_GET&#45;&gt;TABL&#45;QNAME -->
<g id="edge1" class="edge">
<title>INTF&#45;IF_SOAP_PERSIST_GET&#45;&gt;TABL&#45;QNAME</title>
<path fill="none" stroke="black" d="M1014.09,-158.14C1223.31,-151.79 1698.3,-135.04 1879.76,-107.93"/>
<polygon fill="black" stroke="black" points="1880.39,-111.37 1889.73,-106.38 1879.31,-104.46 1880.39,-111.37"/>
</g>
<!-- DOMA&#45;INT4 -->
<g id="node3" class="node">
<title>DOMA&#45;INT4</title>
<g id="a_node3"><a xlink:href="./DOMA_INT4.html" xlink:title="DOMA&#45;INT4">
<polygon fill="none" stroke="yellow" points="93.62,-36 0.13,-36 0.13,0 93.62,0 93.62,-36"/>
<text text-anchor="middle" x="46.87" y="-13.8" font-family="Times,serif" font-size="14.00">DOMA&#45;INT4</text>
</a>
</g>
</g>
<!-- DTEL&#45;INT4&#45;&gt;DOMA&#45;INT4 -->
<g id="edge14" class="edge">
<title>DTEL&#45;INT4&#45;&gt;DOMA&#45;INT4</title>
<path fill="none" stroke="black" d="M50.64,-71.7C50.09,-63.98 49.42,-54.71 48.81,-46.11"/>
<polygon fill="black" stroke="black" points="52.3,-45.83 48.09,-36.1 45.32,-46.33 52.3,-45.83"/>
</g>
<!-- DOMA&#45;NUMC3 -->
<g id="node5" class="node">
<title>DOMA&#45;NUMC3</title>
<g id="a_node5"><a xlink:href="./DOMA_NUMC3.html" xlink:title="DOMA&#45;NUMC3">
<polygon fill="none" stroke="yellow" points="224.29,-36 111.45,-36 111.45,0 224.29,0 224.29,-36"/>
<text text-anchor="middle" x="167.87" y="-13.8" font-family="Times,serif" font-size="14.00">DOMA&#45;NUMC3</text>
</a>
</g>
</g>
<!-- DTEL&#45;NUMC3&#45;&gt;DOMA&#45;NUMC3 -->
<g id="edge15" class="edge">
<title>DTEL&#45;NUMC3&#45;&gt;DOMA&#45;NUMC3</title>
<path fill="none" stroke="black" d="M168.63,-71.7C168.52,-63.98 168.38,-54.71 168.26,-46.11"/>
<polygon fill="black" stroke="black" points="171.76,-46.05 168.12,-36.1 164.76,-46.15 171.76,-46.05"/>
</g>
<!-- DOMA&#45;TZNTSTMPL -->
<g id="node7" class="node">
<title>DOMA&#45;TZNTSTMPL</title>
<g id="a_node7"><a xlink:href="./DOMA_TZNTSTMPL.html" xlink:title="DOMA&#45;TZNTSTMPL">
<polygon fill="none" stroke="yellow" points="386.18,-36 241.57,-36 241.57,0 386.18,0 386.18,-36"/>
<text text-anchor="middle" x="313.87" y="-13.8" font-family="Times,serif" font-size="14.00">DOMA&#45;TZNTSTMPL</text>
</a>
</g>
</g>
<!-- DTEL&#45;TIMESTAMPL&#45;&gt;DOMA&#45;TZNTSTMPL -->
<g id="edge16" class="edge">
<title>DTEL&#45;TIMESTAMPL&#45;&gt;DOMA&#45;TZNTSTMPL</title>
<path fill="none" stroke="black" d="M314.63,-71.7C314.52,-63.98 314.38,-54.71 314.26,-46.11"/>
<polygon fill="black" stroke="black" points="317.76,-46.05 314.12,-36.1 310.76,-46.15 317.76,-46.05"/>
</g>
<!-- DOMA&#45;SYCHAR12 -->
<g id="node9" class="node">
<title>DOMA&#45;SYCHAR12</title>
<g id="a_node9"><a xlink:href="./DOMA_SYCHAR12.html" xlink:title="DOMA&#45;SYCHAR12">
<polygon fill="none" stroke="yellow" points="538.07,-36 403.67,-36 403.67,0 538.07,0 538.07,-36"/>
<text text-anchor="middle" x="470.87" y="-13.8" font-family="Times,serif" font-size="14.00">DOMA&#45;SYCHAR12</text>
</a>
</g>
</g>
<!-- DTEL&#45;SYUNAME&#45;&gt;DOMA&#45;SYCHAR12 -->
<g id="edge17" class="edge">
<title>DTEL&#45;SYUNAME&#45;&gt;DOMA&#45;SYCHAR12</title>
<path fill="none" stroke="black" d="M470.87,-71.7C470.87,-63.98 470.87,-54.71 470.87,-46.11"/>
<polygon fill="black" stroke="black" points="474.37,-46.1 470.87,-36.1 467.37,-46.1 474.37,-46.1"/>
</g>
<!-- DOMA&#45;MANDT -->
<g id="node11" class="node">
<title>DOMA&#45;MANDT</title>
<g id="a_node11"><a xlink:href="./DOMA_MANDT.html" xlink:title="DOMA&#45;MANDT">
<polygon fill="none" stroke="yellow" points="670.11,-36 555.63,-36 555.63,0 670.11,0 670.11,-36"/>
<text text-anchor="middle" x="612.87" y="-13.8" font-family="Times,serif" font-size="14.00">DOMA&#45;MANDT</text>
</a>
</g>
</g>
<!-- DTEL&#45;SYMANDT&#45;&gt;DOMA&#45;MANDT -->
<g id="edge18" class="edge">
<title>DTEL&#45;SYMANDT&#45;&gt;DOMA&#45;MANDT</title>
<path fill="none" stroke="black" d="M615.13,-71.7C614.8,-63.98 614.4,-54.71 614.03,-46.11"/>
<polygon fill="black" stroke="black" points="617.53,-45.95 613.61,-36.1 610.54,-46.25 617.53,-45.95"/>
</g>
<!-- DOMA&#45;SXMSQOS -->
<g id="node13" class="node">
<title>DOMA&#45;SXMSQOS</title>
<g id="a_node13"><a xlink:href="./DOMA_SXMSQOS.html" xlink:title="DOMA&#45;SXMSQOS">
<polygon fill="none" stroke="yellow" points="817.41,-36 688.33,-36 688.33,0 817.41,0 817.41,-36"/>
<text text-anchor="middle" x="752.87" y="-13.8" font-family="Times,serif" font-size="14.00">DOMA&#45;SXMSQOS</text>
</a>
</g>
</g>
<!-- DTEL&#45;SXMSQOS&#45;&gt;DOMA&#45;SXMSQOS -->
<g id="edge19" class="edge">
<title>DTEL&#45;SXMSQOS&#45;&gt;DOMA&#45;SXMSQOS</title>
<path fill="none" stroke="black" d="M757.39,-71.7C756.73,-63.98 755.93,-54.71 755.2,-46.11"/>
<polygon fill="black" stroke="black" points="758.68,-45.77 754.34,-36.1 751.71,-46.37 758.68,-45.77"/>
</g>
<!-- DOMA&#45;SXMSPMTYPE -->
<g id="node15" class="node">
<title>DOMA&#45;SXMSPMTYPE</title>
<g id="a_node15"><a xlink:href="./DOMA_SXMSPMTYPE.html" xlink:title="DOMA&#45;SXMSPMTYPE">
<polygon fill="none" stroke="yellow" points="992.14,-36 835.61,-36 835.61,0 992.14,0 992.14,-36"/>
<text text-anchor="middle" x="913.87" y="-13.8" font-family="Times,serif" font-size="14.00">DOMA&#45;SXMSPMTYPE</text>
</a>
</g>
</g>
<!-- DTEL&#45;SXMSPMTYPE&#45;&gt;DOMA&#45;SXMSPMTYPE -->
<g id="edge20" class="edge">
<title>DTEL&#45;SXMSPMTYPE&#45;&gt;DOMA&#45;SXMSPMTYPE</title>
<path fill="none" stroke="black" d="M913.12,-71.7C913.23,-63.98 913.36,-54.71 913.49,-46.11"/>
<polygon fill="black" stroke="black" points="916.98,-46.15 913.63,-36.1 909.99,-46.05 916.98,-46.15"/>
</g>
<!-- DOMA&#45;BOOLEAN -->
<g id="node17" class="node">
<title>DOMA&#45;BOOLEAN</title>
<g id="a_node17"><a xlink:href="./DOMA_BOOLEAN.html" xlink:title="DOMA&#45;BOOLEAN">
<polygon fill="none" stroke="yellow" points="1141.17,-36 1010.58,-36 1010.58,0 1141.17,0 1141.17,-36"/>
<text text-anchor="middle" x="1075.87" y="-13.8" font-family="Times,serif" font-size="14.00">DOMA&#45;BOOLEAN</text>
</a>
</g>
</g>
<!-- DTEL&#45;BOOLEAN&#45;&gt;DOMA&#45;BOOLEAN -->
<g id="edge21" class="edge">
<title>DTEL&#45;BOOLEAN&#45;&gt;DOMA&#45;BOOLEAN</title>
<path fill="none" stroke="black" d="M1069.85,-71.7C1070.73,-63.98 1071.79,-54.71 1072.77,-46.11"/>
<polygon fill="black" stroke="black" points="1076.26,-46.44 1073.92,-36.1 1069.3,-45.64 1076.26,-46.44"/>
</g>
<!-- DOMA&#45;SXMSPMSTAT -->
<g id="node19" class="node">
<title>DOMA&#45;SXMSPMSTAT</title>
<g id="a_node19"><a xlink:href="./DOMA_SXMSPMSTAT.html" xlink:title="DOMA&#45;SXMSPMSTAT">
<polygon fill="none" stroke="yellow" points="1316.14,-36 1159.61,-36 1159.61,0 1316.14,0 1316.14,-36"/>
<text text-anchor="middle" x="1237.87" y="-13.8" font-family="Times,serif" font-size="14.00">DOMA&#45;SXMSPMSTAT</text>
</a>
</g>
</g>
<!-- DTEL&#45;SXMSPMSTAT&#45;&gt;DOMA&#45;SXMSPMSTAT -->
<g id="edge22" class="edge">
<title>DTEL&#45;SXMSPMSTAT&#45;&gt;DOMA&#45;SXMSPMSTAT</title>
<path fill="none" stroke="black" d="M1226.58,-71.7C1228.23,-63.98 1230.22,-54.71 1232.06,-46.11"/>
<polygon fill="black" stroke="black" points="1235.53,-46.62 1234.21,-36.1 1228.69,-45.15 1235.53,-46.62"/>
</g>
<!-- DOMA&#45;AIT_SYSTEM -->
<g id="node21" class="node">
<title>DOMA&#45;AIT_SYSTEM</title>
<g id="a_node21"><a xlink:href="./DOMA_AIT_SYSTEM.html" xlink:title="DOMA&#45;AIT_SYSTEM">
<polygon fill="none" stroke="yellow" points="1483.34,-36 1334.41,-36 1334.41,0 1483.34,0 1483.34,-36"/>
<text text-anchor="middle" x="1408.87" y="-13.8" font-family="Times,serif" font-size="14.00">DOMA&#45;AIT_SYSTEM</text>
</a>
</g>
</g>
<!-- DTEL&#45;AIT_SNDR&#45;&gt;DOMA&#45;AIT_SYSTEM -->
<g id="edge23" class="edge">
<title>DTEL&#45;AIT_SNDR&#45;&gt;DOMA&#45;AIT_SYSTEM</title>
<path fill="none" stroke="black" d="M1385.54,-71.7C1389.06,-63.73 1393.33,-54.1 1397.24,-45.26"/>
<polygon fill="black" stroke="black" points="1400.45,-46.67 1401.3,-36.1 1394.05,-43.83 1400.45,-46.67"/>
</g>
<!-- DOMA&#45;SRT_SEQUENCE_QUEUE_IDENT -->
<g id="node23" class="node">
<title>DOMA&#45;SRT_SEQUENCE_QUEUE_IDENT</title>
<g id="a_node23"><a xlink:href="./DOMA_SRT_SEQUENCE_QUEUE_IDENT.html" xlink:title="DOMA&#45;SRT_SEQUENCE_QUEUE_IDENT">
<polygon fill="none" stroke="yellow" points="1773.97,-36 1501.77,-36 1501.77,0 1773.97,0 1773.97,-36"/>
<text text-anchor="middle" x="1637.87" y="-13.8" font-family="Times,serif" font-size="14.00">DOMA&#45;SRT_SEQUENCE_QUEUE_IDENT</text>
</a>
</g>
</g>
<!-- DTEL&#45;SRT_SEQUENCE_ID&#45;&gt;DOMA&#45;SRT_SEQUENCE_QUEUE_IDENT -->
<g id="edge24" class="edge">
<title>DTEL&#45;SRT_SEQUENCE_ID&#45;&gt;DOMA&#45;SRT_SEQUENCE_QUEUE_IDENT</title>
<path fill="none" stroke="black" d="M1571.63,-71.7C1582.71,-62.88 1596.35,-52.03 1608.36,-42.47"/>
<polygon fill="black" stroke="black" points="1610.72,-45.07 1616.37,-36.1 1606.36,-39.59 1610.72,-45.07"/>
</g>
<!-- DOMA&#45;SRT_SEQ_QUEUENAME -->
<g id="node25" class="node">
<title>DOMA&#45;SRT_SEQ_QUEUENAME</title>
<g id="a_node25"><a xlink:href="./DOMA_SRT_SEQ_QUEUENAME.html" xlink:title="DOMA&#45;SRT_SEQ_QUEUENAME">
<polygon fill="none" stroke="yellow" points="2010.05,-36 1791.7,-36 1791.7,0 2010.05,0 2010.05,-36"/>
<text text-anchor="middle" x="1900.87" y="-13.8" font-family="Times,serif" font-size="14.00">DOMA&#45;SRT_SEQ_QUEUENAME</text>
</a>
</g>
</g>
<!-- DTEL&#45;SRT_SEQ_QUEUENAME&#45;&gt;DOMA&#45;SRT_SEQ_QUEUENAME -->
<g id="edge25" class="edge">
<title>DTEL&#45;SRT_SEQ_QUEUENAME&#45;&gt;DOMA&#45;SRT_SEQ_QUEUENAME</title>
<path fill="none" stroke="black" d="M1798.9,-71.88C1816.96,-62.51 1839.52,-50.81 1858.82,-40.8"/>
<polygon fill="black" stroke="black" points="1860.45,-43.9 1867.72,-36.19 1857.23,-37.69 1860.45,-43.9"/>
</g>
</g>
</svg>
