<?xml version="1.0" encoding="UTF-8" standalone="no"?>
<!DOCTYPE svg PUBLIC "-//W3C//DTD SVG 1.1//EN"
 "http://www.w3.org/Graphics/SVG/1.1/DTD/svg11.dtd">
<!-- Generated by graphviz version 2.47.3 (20210619.1520)
 -->
<!-- Title: G Pages: 1 -->
<svg width="522pt" height="116pt"
 viewBox="0.00 0.00 522.12 116.00" xmlns="http://www.w3.org/2000/svg" xmlns:xlink="http://www.w3.org/1999/xlink">
<g id="graph0" class="graph" transform="scale(1 1) rotate(0) translate(4 112)">
<title>G</title>
<polygon fill="white" stroke="transparent" points="-4,4 -4,-112 518.12,-112 518.12,4 -4,4"/>
<!-- INTF&#45;IF_XCO_JSON_TRANSFORMATION -->
<g id="node1" class="node">
<title>INTF&#45;IF_XCO_JSON_TRANSFORMATION</title>
<polygon fill="none" stroke="green" points="394.48,-108 116.91,-108 116.91,-72 394.48,-72 394.48,-108"/>
<text text-anchor="middle" x="255.7" y="-85.8" font-family="Times,serif" font-size="14.00">INTF&#45;IF_XCO_JSON_TRANSFORMATION</text>
</g>
<!-- INTF&#45;IF_XCO_JSON_TREE_VISITOR -->
<g id="node2" class="node">
<title>INTF&#45;IF_XCO_JSON_TREE_VISITOR</title>
<g id="a_node2"><a xlink:href="./INTF_IF_XCO_JSON_TREE_VISITOR.html" xlink:title="INTF&#45;IF_XCO_JSON_TREE_VISITOR">
<polygon fill="none" stroke="green" points="245.6,-36 -0.2,-36 -0.2,0 245.6,0 245.6,-36"/>
<text text-anchor="middle" x="122.7" y="-13.8" font-family="Times,serif" font-size="14.00">INTF&#45;IF_XCO_JSON_TREE_VISITOR</text>
</a>
</g>
</g>
<!-- INTF&#45;IF_XCO_JSON_TRANSFORMATION&#45;&gt;INTF&#45;IF_XCO_JSON_TREE_VISITOR -->
<g id="edge2" class="edge">
<title>INTF&#45;IF_XCO_JSON_TRANSFORMATION&#45;&gt;INTF&#45;IF_XCO_JSON_TREE_VISITOR</title>
<path fill="none" stroke="black" d="M223.16,-71.88C205.45,-62.55 183.35,-50.92 164.38,-40.94"/>
<polygon fill="black" stroke="black" points="165.84,-37.75 155.36,-36.19 162.58,-43.94 165.84,-37.75"/>
</g>
<!-- INTF&#45;IF_XCO_JSON_TREE_BUILDER -->
<g id="node3" class="node">
<title>INTF&#45;IF_XCO_JSON_TREE_BUILDER</title>
<g id="a_node3"><a xlink:href="./INTF_IF_XCO_JSON_TREE_BUILDER.html" xlink:title="INTF&#45;IF_XCO_JSON_TREE_BUILDER">
<polygon fill="none" stroke="green" points="514.04,-36 263.36,-36 263.36,0 514.04,0 514.04,-36"/>
<text text-anchor="middle" x="388.7" y="-13.8" font-family="Times,serif" font-size="14.00">INTF&#45;IF_XCO_JSON_TREE_BUILDER</text>
</a>
</g>
</g>
<!-- INTF&#45;IF_XCO_JSON_TRANSFORMATION&#45;&gt;INTF&#45;IF_XCO_JSON_TREE_BUILDER -->
<g id="edge1" class="edge">
<title>INTF&#45;IF_XCO_JSON_TRANSFORMATION&#45;&gt;INTF&#45;IF_XCO_JSON_TREE_BUILDER</title>
<path fill="none" stroke="black" d="M288.23,-71.88C305.95,-62.55 328.05,-50.92 347.01,-40.94"/>
<polygon fill="black" stroke="black" points="348.82,-43.94 356.04,-36.19 345.56,-37.75 348.82,-43.94"/>
</g>
</g>
</svg>
