<?xml version="1.0" encoding="UTF-8" standalone="no"?>
<!DOCTYPE svg PUBLIC "-//W3C//DTD SVG 1.1//EN"
 "http://www.w3.org/Graphics/SVG/1.1/DTD/svg11.dtd">
<!-- Generated by graphviz version 2.47.3 (20210619.1520)
 -->
<!-- Title: G Pages: 1 -->
<svg width="350pt" height="188pt"
 viewBox="0.00 0.00 350.19 188.00" xmlns="http://www.w3.org/2000/svg" xmlns:xlink="http://www.w3.org/1999/xlink">
<g id="graph0" class="graph" transform="scale(1 1) rotate(0) translate(4 184)">
<title>G</title>
<polygon fill="white" stroke="transparent" points="-4,4 -4,-184 346.19,-184 346.19,4 -4,4"/>
<!-- INTF&#45;IF_SXML_CLOSE_ELEMENT -->
<g id="node1" class="node">
<title>INTF&#45;IF_SXML_CLOSE_ELEMENT</title>
<polygon fill="none" stroke="green" points="284.72,-180 51.24,-180 51.24,-144 284.72,-144 284.72,-180"/>
<text text-anchor="middle" x="167.98" y="-157.8" font-family="Times,serif" font-size="14.00">INTF&#45;IF_SXML_CLOSE_ELEMENT</text>
</g>
<!-- INTF&#45;IF_SXML_NODE -->
<g id="node2" class="node">
<title>INTF&#45;IF_SXML_NODE</title>
<g id="a_node2"><a xlink:href="./INTF_IF_SXML_NODE.html" xlink:title="INTF&#45;IF_SXML_NODE">
<polygon fill="none" stroke="green" points="155.95,-108 0.02,-108 0.02,-72 155.95,-72 155.95,-108"/>
<text text-anchor="middle" x="77.98" y="-85.8" font-family="Times,serif" font-size="14.00">INTF&#45;IF_SXML_NODE</text>
</a>
</g>
</g>
<!-- INTF&#45;IF_SXML_CLOSE_ELEMENT&#45;&gt;INTF&#45;IF_SXML_NODE -->
<g id="edge2" class="edge">
<title>INTF&#45;IF_SXML_CLOSE_ELEMENT&#45;&gt;INTF&#45;IF_SXML_NODE</title>
<path fill="none" stroke="black" d="M145.74,-143.7C134.4,-134.88 120.45,-124.03 108.16,-114.47"/>
<polygon fill="black" stroke="black" points="110.02,-111.48 99.97,-108.1 105.72,-117.01 110.02,-111.48"/>
</g>
<!-- INTF&#45;IF_SXML_NAMED -->
<g id="node3" class="node">
<title>INTF&#45;IF_SXML_NAMED</title>
<g id="a_node3"><a xlink:href="./INTF_IF_SXML_NAMED.html" xlink:title="INTF&#45;IF_SXML_NAMED">
<polygon fill="none" stroke="green" points="342.39,-108 173.57,-108 173.57,-72 342.39,-72 342.39,-108"/>
<text text-anchor="middle" x="257.98" y="-85.8" font-family="Times,serif" font-size="14.00">INTF&#45;IF_SXML_NAMED</text>
</a>
</g>
</g>
<!-- INTF&#45;IF_SXML_CLOSE_ELEMENT&#45;&gt;INTF&#45;IF_SXML_NAMED -->
<g id="edge1" class="edge">
<title>INTF&#45;IF_SXML_CLOSE_ELEMENT&#45;&gt;INTF&#45;IF_SXML_NAMED</title>
<path fill="none" stroke="black" d="M190.23,-143.7C201.56,-134.88 215.51,-124.03 227.8,-114.47"/>
<polygon fill="black" stroke="black" points="230.25,-117.01 235.99,-108.1 225.95,-111.48 230.25,-117.01"/>
</g>
<!-- TABL&#45;QNAME -->
<g id="node4" class="node">
<title>TABL&#45;QNAME</title>
<g id="a_node4"><a xlink:href="./TABL_QNAME.html" xlink:title="TABL&#45;QNAME">
<polygon fill="none" stroke="green" points="312.01,-36 203.96,-36 203.96,0 312.01,0 312.01,-36"/>
<text text-anchor="middle" x="257.98" y="-13.8" font-family="Times,serif" font-size="14.00">TABL&#45;QNAME</text>
</a>
</g>
</g>
<!-- INTF&#45;IF_SXML_NAMED&#45;&gt;TABL&#45;QNAME -->
<g id="edge3" class="edge">
<title>INTF&#45;IF_SXML_NAMED&#45;&gt;TABL&#45;QNAME</title>
<path fill="none" stroke="black" d="M257.98,-71.7C257.98,-63.98 257.98,-54.71 257.98,-46.11"/>
<polygon fill="black" stroke="black" points="261.48,-46.1 257.98,-36.1 254.48,-46.1 261.48,-46.1"/>
</g>
</g>
</svg>
