<?xml version="1.0" encoding="UTF-8" standalone="no"?>
<!DOCTYPE svg PUBLIC "-//W3C//DTD SVG 1.1//EN"
 "http://www.w3.org/Graphics/SVG/1.1/DTD/svg11.dtd">
<!-- Generated by graphviz version 2.47.3 (20210619.1520)
 -->
<!-- Title: G Pages: 1 -->
<svg width="1485pt" height="620pt"
 viewBox="0.00 0.00 1484.78 620.00" xmlns="http://www.w3.org/2000/svg" xmlns:xlink="http://www.w3.org/1999/xlink">
<g id="graph0" class="graph" transform="scale(1 1) rotate(0) translate(4 616)">
<title>G</title>
<polygon fill="white" stroke="transparent" points="-4,4 -4,-616 1480.78,-616 1480.78,4 -4,4"/>
<!-- INTF&#45;IF_XCO_CP_GEN_SRVD_S_FORM -->
<g id="node1" class="node">
<title>INTF&#45;IF_XCO_CP_GEN_SRVD_S_FORM</title>
<polygon fill="none" stroke="green" points="920.01,-612 653.16,-612 653.16,-576 920.01,-576 920.01,-612"/>
<text text-anchor="middle" x="786.58" y="-589.8" font-family="Times,serif" font-size="14.00">INTF&#45;IF_XCO_CP_GEN_SRVD_S_FORM</text>
</g>
<!-- INTF&#45;IF_XCO_GEN_SRVD_S_FO_EXPOSURE -->
<g id="node2" class="node">
<title>INTF&#45;IF_XCO_GEN_SRVD_S_FO_EXPOSURE</title>
<g id="a_node2"><a xlink:href="./INTF_IF_XCO_GEN_SRVD_S_FO_EXPOSURE.html" xlink:title="INTF&#45;IF_XCO_GEN_SRVD_S_FO_EXPOSURE">
<polygon fill="none" stroke="green" points="667.44,-540 367.73,-540 367.73,-504 667.44,-504 667.44,-540"/>
<text text-anchor="middle" x="517.58" y="-517.8" font-family="Times,serif" font-size="14.00">INTF&#45;IF_XCO_GEN_SRVD_S_FO_EXPOSURE</text>
</a>
</g>
</g>
<!-- INTF&#45;IF_XCO_CP_GEN_SRVD_S_FORM&#45;&gt;INTF&#45;IF_XCO_GEN_SRVD_S_FO_EXPOSURE -->
<g id="edge4" class="edge">
<title>INTF&#45;IF_XCO_CP_GEN_SRVD_S_FORM&#45;&gt;INTF&#45;IF_XCO_GEN_SRVD_S_FO_EXPOSURE</title>
<path fill="none" stroke="black" d="M721.12,-575.97C682.48,-565.91 633.39,-553.14 593.11,-542.65"/>
<polygon fill="black" stroke="black" points="593.9,-539.24 583.34,-540.11 592.13,-546.02 593.9,-539.24"/>
</g>
<!-- DTEL&#45;SXCO_CDS_OBJECT_NAME -->
<g id="node3" class="node">
<title>DTEL&#45;SXCO_CDS_OBJECT_NAME</title>
<g id="a_node3"><a xlink:href="./DTEL_SXCO_CDS_OBJECT_NAME.html" xlink:title="DTEL&#45;SXCO_CDS_OBJECT_NAME">
<polygon fill="none" stroke="green" points="641.61,-468 407.56,-468 407.56,-432 641.61,-432 641.61,-468"/>
<text text-anchor="middle" x="524.58" y="-445.8" font-family="Times,serif" font-size="14.00">DTEL&#45;SXCO_CDS_OBJECT_NAME</text>
</a>
</g>
</g>
<!-- INTF&#45;IF_XCO_CP_GEN_SRVD_S_FORM&#45;&gt;DTEL&#45;SXCO_CDS_OBJECT_NAME -->
<g id="edge2" class="edge">
<title>INTF&#45;IF_XCO_CP_GEN_SRVD_S_FORM&#45;&gt;DTEL&#45;SXCO_CDS_OBJECT_NAME</title>
<path fill="none" stroke="black" d="M761.68,-575.82C747.54,-565.79 729.71,-552.65 714.58,-540 696.74,-525.08 696.45,-516.1 676.58,-504 653.93,-490.21 627.18,-479.36 602.49,-471.16"/>
<polygon fill="black" stroke="black" points="603.37,-467.77 592.78,-468.04 601.23,-474.43 603.37,-467.77"/>
</g>
<!-- INTF&#45;IF_XCO_GEN_CDS_S_FO_ANN_TARGET -->
<g id="node5" class="node">
<title>INTF&#45;IF_XCO_GEN_CDS_S_FO_ANN_TARGET</title>
<g id="a_node5"><a xlink:href="./INTF_IF_XCO_GEN_CDS_S_FO_ANN_TARGET.html" xlink:title="INTF&#45;IF_XCO_GEN_CDS_S_FO_ANN_TARGET">
<polygon fill="none" stroke="green" points="1033.53,-540 723.64,-540 723.64,-504 1033.53,-504 1033.53,-540"/>
<text text-anchor="middle" x="878.58" y="-517.8" font-family="Times,serif" font-size="14.00">INTF&#45;IF_XCO_GEN_CDS_S_FO_ANN_TARGET</text>
</a>
</g>
</g>
<!-- INTF&#45;IF_XCO_CP_GEN_SRVD_S_FORM&#45;&gt;INTF&#45;IF_XCO_GEN_CDS_S_FO_ANN_TARGET -->
<g id="edge3" class="edge">
<title>INTF&#45;IF_XCO_CP_GEN_SRVD_S_FORM&#45;&gt;INTF&#45;IF_XCO_GEN_CDS_S_FO_ANN_TARGET</title>
<path fill="none" stroke="black" d="M809.33,-575.7C821.02,-566.8 835.45,-555.82 848.09,-546.2"/>
<polygon fill="black" stroke="black" points="850.27,-548.94 856.1,-540.1 846.03,-543.37 850.27,-548.94"/>
</g>
<!-- DTEL&#45;SXCO_AR_SHORT_DESCRIPTION -->
<g id="node19" class="node">
<title>DTEL&#45;SXCO_AR_SHORT_DESCRIPTION</title>
<g id="a_node19"><a xlink:href="./DTEL_SXCO_AR_SHORT_DESCRIPTION.html" xlink:title="DTEL&#45;SXCO_AR_SHORT_DESCRIPTION">
<polygon fill="none" stroke="green" points="1323.15,-540 1052.01,-540 1052.01,-504 1323.15,-504 1323.15,-540"/>
<text text-anchor="middle" x="1187.58" y="-517.8" font-family="Times,serif" font-size="14.00">DTEL&#45;SXCO_AR_SHORT_DESCRIPTION</text>
</a>
</g>
</g>
<!-- INTF&#45;IF_XCO_CP_GEN_SRVD_S_FORM&#45;&gt;DTEL&#45;SXCO_AR_SHORT_DESCRIPTION -->
<g id="edge1" class="edge">
<title>INTF&#45;IF_XCO_CP_GEN_SRVD_S_FORM&#45;&gt;DTEL&#45;SXCO_AR_SHORT_DESCRIPTION</title>
<path fill="none" stroke="black" d="M884.17,-575.97C943.35,-565.63 1018.95,-552.44 1079.88,-541.8"/>
<polygon fill="black" stroke="black" points="1080.66,-545.22 1089.91,-540.05 1079.46,-538.32 1080.66,-545.22"/>
</g>
<!-- INTF&#45;IF_XCO_GEN_SRVD_S_FO_EXPOSURE&#45;&gt;DTEL&#45;SXCO_CDS_OBJECT_NAME -->
<g id="edge5" class="edge">
<title>INTF&#45;IF_XCO_GEN_SRVD_S_FO_EXPOSURE&#45;&gt;DTEL&#45;SXCO_CDS_OBJECT_NAME</title>
<path fill="none" stroke="black" d="M519.31,-503.7C520.09,-495.98 521.01,-486.71 521.87,-478.11"/>
<polygon fill="black" stroke="black" points="525.36,-478.4 522.87,-468.1 518.4,-477.71 525.36,-478.4"/>
</g>
<!-- DOMA&#45;CHAR30 -->
<g id="node4" class="node">
<title>DOMA&#45;CHAR30</title>
<g id="a_node4"><a xlink:href="./DOMA_CHAR30.html" xlink:title="DOMA&#45;CHAR30">
<polygon fill="none" stroke="green" points="582.9,-396 466.27,-396 466.27,-360 582.9,-360 582.9,-396"/>
<text text-anchor="middle" x="524.58" y="-373.8" font-family="Times,serif" font-size="14.00">DOMA&#45;CHAR30</text>
</a>
</g>
</g>
<!-- DTEL&#45;SXCO_CDS_OBJECT_NAME&#45;&gt;DOMA&#45;CHAR30 -->
<g id="edge6" class="edge">
<title>DTEL&#45;SXCO_CDS_OBJECT_NAME&#45;&gt;DOMA&#45;CHAR30</title>
<path fill="none" stroke="black" d="M524.58,-431.7C524.58,-423.98 524.58,-414.71 524.58,-406.11"/>
<polygon fill="black" stroke="black" points="528.08,-406.1 524.58,-396.1 521.08,-406.1 528.08,-406.1"/>
</g>
<!-- INTF&#45;IF_XCO_GEN_CDS_S_FO_ANNOTATION -->
<g id="node6" class="node">
<title>INTF&#45;IF_XCO_GEN_CDS_S_FO_ANNOTATION</title>
<g id="a_node6"><a xlink:href="./INTF_IF_XCO_GEN_CDS_S_FO_ANNOTATION.html" xlink:title="INTF&#45;IF_XCO_GEN_CDS_S_FO_ANNOTATION">
<polygon fill="none" stroke="green" points="1020.52,-468 710.65,-468 710.65,-432 1020.52,-432 1020.52,-468"/>
<text text-anchor="middle" x="865.58" y="-445.8" font-family="Times,serif" font-size="14.00">INTF&#45;IF_XCO_GEN_CDS_S_FO_ANNOTATION</text>
</a>
</g>
</g>
<!-- INTF&#45;IF_XCO_GEN_CDS_S_FO_ANN_TARGET&#45;&gt;INTF&#45;IF_XCO_GEN_CDS_S_FO_ANNOTATION -->
<g id="edge8" class="edge">
<title>INTF&#45;IF_XCO_GEN_CDS_S_FO_ANN_TARGET&#45;&gt;INTF&#45;IF_XCO_GEN_CDS_S_FO_ANNOTATION</title>
<path fill="none" stroke="black" d="M875.37,-503.7C873.94,-495.98 872.22,-486.71 870.62,-478.11"/>
<polygon fill="black" stroke="black" points="874.03,-477.3 868.76,-468.1 867.15,-478.58 874.03,-477.3"/>
</g>
<!-- DTEL&#45;SXCO_CDS_ANN_PROPERTY -->
<g id="node17" class="node">
<title>DTEL&#45;SXCO_CDS_ANN_PROPERTY</title>
<g id="a_node17"><a xlink:href="./DTEL_SXCO_CDS_ANN_PROPERTY.html" xlink:title="DTEL&#45;SXCO_CDS_ANN_PROPERTY">
<polygon fill="none" stroke="green" points="1170.44,-396 926.72,-396 926.72,-360 1170.44,-360 1170.44,-396"/>
<text text-anchor="middle" x="1048.58" y="-373.8" font-family="Times,serif" font-size="14.00">DTEL&#45;SXCO_CDS_ANN_PROPERTY</text>
</a>
</g>
</g>
<!-- INTF&#45;IF_XCO_GEN_CDS_S_FO_ANN_TARGET&#45;&gt;DTEL&#45;SXCO_CDS_ANN_PROPERTY -->
<g id="edge7" class="edge">
<title>INTF&#45;IF_XCO_GEN_CDS_S_FO_ANN_TARGET&#45;&gt;DTEL&#45;SXCO_CDS_ANN_PROPERTY</title>
<path fill="none" stroke="black" d="M973.74,-503.95C994.65,-496.12 1014.9,-484.68 1029.58,-468 1044.38,-451.19 1048.62,-425.71 1049.45,-406.31"/>
<polygon fill="black" stroke="black" points="1052.95,-406.31 1049.61,-396.26 1045.95,-406.2 1052.95,-406.31"/>
</g>
<!-- INTF&#45;IF_XCO_GEN_CDS_S_FO_ANN_VALUE -->
<g id="node7" class="node">
<title>INTF&#45;IF_XCO_GEN_CDS_S_FO_ANN_VALUE</title>
<g id="a_node7"><a xlink:href="./INTF_IF_XCO_GEN_CDS_S_FO_ANN_VALUE.html" xlink:title="INTF&#45;IF_XCO_GEN_CDS_S_FO_ANN_VALUE">
<polygon fill="none" stroke="green" points="908.75,-396 606.42,-396 606.42,-360 908.75,-360 908.75,-396"/>
<text text-anchor="middle" x="757.58" y="-373.8" font-family="Times,serif" font-size="14.00">INTF&#45;IF_XCO_GEN_CDS_S_FO_ANN_VALUE</text>
</a>
</g>
</g>
<!-- INTF&#45;IF_XCO_GEN_CDS_S_FO_ANNOTATION&#45;&gt;INTF&#45;IF_XCO_GEN_CDS_S_FO_ANN_VALUE -->
<g id="edge10" class="edge">
<title>INTF&#45;IF_XCO_GEN_CDS_S_FO_ANNOTATION&#45;&gt;INTF&#45;IF_XCO_GEN_CDS_S_FO_ANN_VALUE</title>
<path fill="none" stroke="black" d="M839.16,-431.88C825.17,-422.81 807.81,-411.55 792.7,-401.76"/>
<polygon fill="black" stroke="black" points="794.4,-398.69 784.11,-396.19 790.59,-404.57 794.4,-398.69"/>
</g>
<!-- INTF&#45;IF_XCO_GEN_CDS_S_FO_ANNOTATION&#45;&gt;DTEL&#45;SXCO_CDS_ANN_PROPERTY -->
<g id="edge9" class="edge">
<title>INTF&#45;IF_XCO_GEN_CDS_S_FO_ANNOTATION&#45;&gt;DTEL&#45;SXCO_CDS_ANN_PROPERTY</title>
<path fill="none" stroke="black" d="M910.35,-431.88C935.7,-422.18 967.59,-409.98 994.36,-399.74"/>
<polygon fill="black" stroke="black" points="995.87,-402.91 1003.96,-396.07 993.37,-396.37 995.87,-402.91"/>
</g>
<!-- INTF&#45;IF_XCO_GEN_CDS_S_FO_ANN_V_BLDR -->
<g id="node8" class="node">
<title>INTF&#45;IF_XCO_GEN_CDS_S_FO_ANN_V_BLDR</title>
<g id="a_node8"><a xlink:href="./INTF_IF_XCO_GEN_CDS_S_FO_ANN_V_BLDR.html" xlink:title="INTF&#45;IF_XCO_GEN_CDS_S_FO_ANN_V_BLDR">
<polygon fill="none" stroke="green" points="808.26,-324 498.91,-324 498.91,-288 808.26,-288 808.26,-324"/>
<text text-anchor="middle" x="653.58" y="-301.8" font-family="Times,serif" font-size="14.00">INTF&#45;IF_XCO_GEN_CDS_S_FO_ANN_V_BLDR</text>
</a>
</g>
</g>
<!-- INTF&#45;IF_XCO_GEN_CDS_S_FO_ANN_VALUE&#45;&gt;INTF&#45;IF_XCO_GEN_CDS_S_FO_ANN_V_BLDR -->
<g id="edge12" class="edge">
<title>INTF&#45;IF_XCO_GEN_CDS_S_FO_ANN_VALUE&#45;&gt;INTF&#45;IF_XCO_GEN_CDS_S_FO_ANN_V_BLDR</title>
<path fill="none" stroke="black" d="M732.14,-359.88C718.8,-350.89 702.26,-339.76 687.81,-330.03"/>
<polygon fill="black" stroke="black" points="689.37,-326.87 679.12,-324.19 685.46,-332.68 689.37,-326.87"/>
</g>
<!-- INTF&#45;IF_XCO_CDS_ANN_VALUE -->
<g id="node9" class="node">
<title>INTF&#45;IF_XCO_CDS_ANN_VALUE</title>
<g id="a_node9"><a xlink:href="./INTF_IF_XCO_CDS_ANN_VALUE.html" xlink:title="INTF&#45;IF_XCO_CDS_ANN_VALUE">
<polygon fill="none" stroke="green" points="857.81,-252 631.36,-252 631.36,-216 857.81,-216 857.81,-252"/>
<text text-anchor="middle" x="744.58" y="-229.8" font-family="Times,serif" font-size="14.00">INTF&#45;IF_XCO_CDS_ANN_VALUE</text>
</a>
</g>
</g>
<!-- INTF&#45;IF_XCO_GEN_CDS_S_FO_ANN_VALUE&#45;&gt;INTF&#45;IF_XCO_CDS_ANN_VALUE -->
<g id="edge11" class="edge">
<title>INTF&#45;IF_XCO_GEN_CDS_S_FO_ANN_VALUE&#45;&gt;INTF&#45;IF_XCO_CDS_ANN_VALUE</title>
<path fill="none" stroke="black" d="M785.84,-359.97C798.02,-350.96 810.96,-338.7 817.58,-324 824.16,-309.41 824.85,-302.25 817.58,-288 811.35,-275.77 800.83,-265.7 789.68,-257.75"/>
<polygon fill="black" stroke="black" points="791.37,-254.67 781.1,-252.08 787.51,-260.51 791.37,-254.67"/>
</g>
<!-- INTF&#45;IF_XCO_GEN_CDS_S_FO_ANN_V_BLDR&#45;&gt;INTF&#45;IF_XCO_CDS_ANN_VALUE -->
<g id="edge13" class="edge">
<title>INTF&#45;IF_XCO_GEN_CDS_S_FO_ANN_V_BLDR&#45;&gt;INTF&#45;IF_XCO_CDS_ANN_VALUE</title>
<path fill="none" stroke="black" d="M676.08,-287.7C687.54,-278.88 701.64,-268.03 714.07,-258.47"/>
<polygon fill="black" stroke="black" points="716.56,-260.98 722.35,-252.1 712.29,-255.43 716.56,-260.98"/>
</g>
<!-- INTF&#45;IF_XCO_CDS_ANN_VT_VISITOR -->
<g id="node10" class="node">
<title>INTF&#45;IF_XCO_CDS_ANN_VT_VISITOR</title>
<g id="a_node10"><a xlink:href="./INTF_IF_XCO_CDS_ANN_VT_VISITOR.html" xlink:title="INTF&#45;IF_XCO_CDS_ANN_VT_VISITOR">
<polygon fill="none" stroke="green" points="874.75,-180 614.42,-180 614.42,-144 874.75,-144 874.75,-180"/>
<text text-anchor="middle" x="744.58" y="-157.8" font-family="Times,serif" font-size="14.00">INTF&#45;IF_XCO_CDS_ANN_VT_VISITOR</text>
</a>
</g>
</g>
<!-- INTF&#45;IF_XCO_CDS_ANN_VALUE&#45;&gt;INTF&#45;IF_XCO_CDS_ANN_VT_VISITOR -->
<g id="edge14" class="edge">
<title>INTF&#45;IF_XCO_CDS_ANN_VALUE&#45;&gt;INTF&#45;IF_XCO_CDS_ANN_VT_VISITOR</title>
<path fill="none" stroke="black" d="M744.58,-215.7C744.58,-207.98 744.58,-198.71 744.58,-190.11"/>
<polygon fill="black" stroke="black" points="748.08,-190.1 744.58,-180.1 741.08,-190.1 748.08,-190.1"/>
</g>
<!-- INTF&#45;IF_XCO_CDS_ANN_VAL_P_NULL -->
<g id="node11" class="node">
<title>INTF&#45;IF_XCO_CDS_ANN_VAL_P_NULL</title>
<g id="a_node11"><a xlink:href="./INTF_IF_XCO_CDS_ANN_VAL_P_NULL.html" xlink:title="INTF&#45;IF_XCO_CDS_ANN_VAL_P_NULL">
<polygon fill="none" stroke="green" points="267.25,-108 -0.08,-108 -0.08,-72 267.25,-72 267.25,-108"/>
<text text-anchor="middle" x="133.58" y="-85.8" font-family="Times,serif" font-size="14.00">INTF&#45;IF_XCO_CDS_ANN_VAL_P_NULL</text>
</a>
</g>
</g>
<!-- INTF&#45;IF_XCO_CDS_ANN_VT_VISITOR&#45;&gt;INTF&#45;IF_XCO_CDS_ANN_VAL_P_NULL -->
<g id="edge19" class="edge">
<title>INTF&#45;IF_XCO_CDS_ANN_VT_VISITOR&#45;&gt;INTF&#45;IF_XCO_CDS_ANN_VAL_P_NULL</title>
<path fill="none" stroke="black" d="M614.44,-146.46C523.09,-136.2 397.78,-122.04 277.32,-108.08"/>
<polygon fill="black" stroke="black" points="277.51,-104.58 267.17,-106.9 276.7,-111.53 277.51,-104.58"/>
</g>
<!-- INTF&#45;IF_XCO_CDS_ANN_VAL_P_BOOLEAN -->
<g id="node13" class="node">
<title>INTF&#45;IF_XCO_CDS_ANN_VAL_P_BOOLEAN</title>
<g id="a_node13"><a xlink:href="./INTF_IF_XCO_CDS_ANN_VAL_P_BOOLEAN.html" xlink:title="INTF&#45;IF_XCO_CDS_ANN_VAL_P_BOOLEAN">
<polygon fill="none" stroke="green" points="581.8,-108 285.37,-108 285.37,-72 581.8,-72 581.8,-108"/>
<text text-anchor="middle" x="433.58" y="-85.8" font-family="Times,serif" font-size="14.00">INTF&#45;IF_XCO_CDS_ANN_VAL_P_BOOLEAN</text>
</a>
</g>
</g>
<!-- INTF&#45;IF_XCO_CDS_ANN_VT_VISITOR&#45;&gt;INTF&#45;IF_XCO_CDS_ANN_VAL_P_BOOLEAN -->
<g id="edge18" class="edge">
<title>INTF&#45;IF_XCO_CDS_ANN_VT_VISITOR&#45;&gt;INTF&#45;IF_XCO_CDS_ANN_VAL_P_BOOLEAN</title>
<path fill="none" stroke="black" d="M668.9,-143.97C623.66,-133.78 566.06,-120.82 519.17,-110.26"/>
<polygon fill="black" stroke="black" points="519.86,-106.83 509.34,-108.05 518.32,-113.66 519.86,-106.83"/>
</g>
<!-- INTF&#45;IF_XCO_CDS_ANN_VAL_P_NUMBER -->
<g id="node14" class="node">
<title>INTF&#45;IF_XCO_CDS_ANN_VAL_P_NUMBER</title>
<g id="a_node14"><a xlink:href="./INTF_IF_XCO_CDS_ANN_VAL_P_NUMBER.html" xlink:title="INTF&#45;IF_XCO_CDS_ANN_VAL_P_NUMBER">
<polygon fill="none" stroke="green" points="889.32,-108 599.85,-108 599.85,-72 889.32,-72 889.32,-108"/>
<text text-anchor="middle" x="744.58" y="-85.8" font-family="Times,serif" font-size="14.00">INTF&#45;IF_XCO_CDS_ANN_VAL_P_NUMBER</text>
</a>
</g>
</g>
<!-- INTF&#45;IF_XCO_CDS_ANN_VT_VISITOR&#45;&gt;INTF&#45;IF_XCO_CDS_ANN_VAL_P_NUMBER -->
<g id="edge17" class="edge">
<title>INTF&#45;IF_XCO_CDS_ANN_VT_VISITOR&#45;&gt;INTF&#45;IF_XCO_CDS_ANN_VAL_P_NUMBER</title>
<path fill="none" stroke="black" d="M744.58,-143.7C744.58,-135.98 744.58,-126.71 744.58,-118.11"/>
<polygon fill="black" stroke="black" points="748.08,-118.1 744.58,-108.1 741.08,-118.1 748.08,-118.1"/>
</g>
<!-- INTF&#45;IF_XCO_CDS_ANN_VAL_P_ENUM -->
<g id="node15" class="node">
<title>INTF&#45;IF_XCO_CDS_ANN_VAL_P_ENUM</title>
<g id="a_node15"><a xlink:href="./INTF_IF_XCO_CDS_ANN_VAL_P_ENUM.html" xlink:title="INTF&#45;IF_XCO_CDS_ANN_VAL_P_ENUM">
<polygon fill="none" stroke="green" points="1178.14,-108 907.02,-108 907.02,-72 1178.14,-72 1178.14,-108"/>
<text text-anchor="middle" x="1042.58" y="-85.8" font-family="Times,serif" font-size="14.00">INTF&#45;IF_XCO_CDS_ANN_VAL_P_ENUM</text>
</a>
</g>
</g>
<!-- INTF&#45;IF_XCO_CDS_ANN_VT_VISITOR&#45;&gt;INTF&#45;IF_XCO_CDS_ANN_VAL_P_ENUM -->
<g id="edge16" class="edge">
<title>INTF&#45;IF_XCO_CDS_ANN_VT_VISITOR&#45;&gt;INTF&#45;IF_XCO_CDS_ANN_VAL_P_ENUM</title>
<path fill="none" stroke="black" d="M817.1,-143.97C860.27,-133.83 915.18,-120.93 960.01,-110.4"/>
<polygon fill="black" stroke="black" points="961.07,-113.74 970,-108.05 959.46,-106.93 961.07,-113.74"/>
</g>
<!-- INTF&#45;IF_XCO_CDS_ANN_VAL_P_STRING -->
<g id="node16" class="node">
<title>INTF&#45;IF_XCO_CDS_ANN_VAL_P_STRING</title>
<g id="a_node16"><a xlink:href="./INTF_IF_XCO_CDS_ANN_VAL_P_STRING.html" xlink:title="INTF&#45;IF_XCO_CDS_ANN_VAL_P_STRING">
<polygon fill="none" stroke="green" points="1476.98,-108 1196.19,-108 1196.19,-72 1476.98,-72 1476.98,-108"/>
<text text-anchor="middle" x="1336.58" y="-85.8" font-family="Times,serif" font-size="14.00">INTF&#45;IF_XCO_CDS_ANN_VAL_P_STRING</text>
</a>
</g>
</g>
<!-- INTF&#45;IF_XCO_CDS_ANN_VT_VISITOR&#45;&gt;INTF&#45;IF_XCO_CDS_ANN_VAL_P_STRING -->
<g id="edge15" class="edge">
<title>INTF&#45;IF_XCO_CDS_ANN_VT_VISITOR&#45;&gt;INTF&#45;IF_XCO_CDS_ANN_VAL_P_STRING</title>
<path fill="none" stroke="black" d="M874.87,-145.59C966.77,-134.73 1090.11,-120.14 1186.19,-108.78"/>
<polygon fill="black" stroke="black" points="1186.77,-112.24 1196.29,-107.59 1185.95,-105.29 1186.77,-112.24"/>
</g>
<!-- INTF&#45;IF_XCO_CDS_ANN_VAL_PRIMITIVE -->
<g id="node12" class="node">
<title>INTF&#45;IF_XCO_CDS_ANN_VAL_PRIMITIVE</title>
<g id="a_node12"><a xlink:href="./INTF_IF_XCO_CDS_ANN_VAL_PRIMITIVE.html" xlink:title="INTF&#45;IF_XCO_CDS_ANN_VAL_PRIMITIVE">
<polygon fill="none" stroke="green" points="887.41,-36 601.76,-36 601.76,0 887.41,0 887.41,-36"/>
<text text-anchor="middle" x="744.58" y="-13.8" font-family="Times,serif" font-size="14.00">INTF&#45;IF_XCO_CDS_ANN_VAL_PRIMITIVE</text>
</a>
</g>
</g>
<!-- INTF&#45;IF_XCO_CDS_ANN_VAL_P_NULL&#45;&gt;INTF&#45;IF_XCO_CDS_ANN_VAL_PRIMITIVE -->
<g id="edge20" class="edge">
<title>INTF&#45;IF_XCO_CDS_ANN_VAL_P_NULL&#45;&gt;INTF&#45;IF_XCO_CDS_ANN_VAL_PRIMITIVE</title>
<path fill="none" stroke="black" d="M267.17,-73.1C270.34,-72.73 273.48,-72.36 276.58,-72 381.69,-59.8 500.11,-46.39 591.53,-36.12"/>
<polygon fill="black" stroke="black" points="592.15,-39.57 601.7,-34.97 591.37,-32.61 592.15,-39.57"/>
</g>
<!-- INTF&#45;IF_XCO_CDS_ANN_VAL_P_BOOLEAN&#45;&gt;INTF&#45;IF_XCO_CDS_ANN_VAL_PRIMITIVE -->
<g id="edge21" class="edge">
<title>INTF&#45;IF_XCO_CDS_ANN_VAL_P_BOOLEAN&#45;&gt;INTF&#45;IF_XCO_CDS_ANN_VAL_PRIMITIVE</title>
<path fill="none" stroke="black" d="M509.27,-71.97C554.5,-61.78 612.11,-48.82 659,-38.26"/>
<polygon fill="black" stroke="black" points="659.85,-41.66 668.83,-36.05 658.31,-34.83 659.85,-41.66"/>
</g>
<!-- INTF&#45;IF_XCO_CDS_ANN_VAL_P_NUMBER&#45;&gt;INTF&#45;IF_XCO_CDS_ANN_VAL_PRIMITIVE -->
<g id="edge22" class="edge">
<title>INTF&#45;IF_XCO_CDS_ANN_VAL_P_NUMBER&#45;&gt;INTF&#45;IF_XCO_CDS_ANN_VAL_PRIMITIVE</title>
<path fill="none" stroke="black" d="M744.58,-71.7C744.58,-63.98 744.58,-54.71 744.58,-46.11"/>
<polygon fill="black" stroke="black" points="748.08,-46.1 744.58,-36.1 741.08,-46.1 748.08,-46.1"/>
</g>
<!-- INTF&#45;IF_XCO_CDS_ANN_VAL_P_ENUM&#45;&gt;INTF&#45;IF_XCO_CDS_ANN_VAL_PRIMITIVE -->
<g id="edge23" class="edge">
<title>INTF&#45;IF_XCO_CDS_ANN_VAL_P_ENUM&#45;&gt;INTF&#45;IF_XCO_CDS_ANN_VAL_PRIMITIVE</title>
<path fill="none" stroke="black" d="M970.07,-71.97C926.9,-61.83 871.99,-48.93 827.16,-38.4"/>
<polygon fill="black" stroke="black" points="827.7,-34.93 817.17,-36.05 826.1,-41.74 827.7,-34.93"/>
</g>
<!-- INTF&#45;IF_XCO_CDS_ANN_VAL_P_STRING&#45;&gt;INTF&#45;IF_XCO_CDS_ANN_VAL_PRIMITIVE -->
<g id="edge24" class="edge">
<title>INTF&#45;IF_XCO_CDS_ANN_VAL_P_STRING&#45;&gt;INTF&#45;IF_XCO_CDS_ANN_VAL_PRIMITIVE</title>
<path fill="none" stroke="black" d="M1196.29,-72.41C1106.39,-61.78 989.71,-47.98 897.45,-37.08"/>
<polygon fill="black" stroke="black" points="897.81,-33.59 887.47,-35.9 896.99,-40.55 897.81,-33.59"/>
</g>
<!-- DOMA&#45;DDANNOTATION_KEY -->
<g id="node18" class="node">
<title>DOMA&#45;DDANNOTATION_KEY</title>
<g id="a_node18"><a xlink:href="./DOMA_DDANNOTATION_KEY.html" xlink:title="DOMA&#45;DDANNOTATION_KEY">
<polygon fill="none" stroke="yellow" points="1154.5,-324 942.67,-324 942.67,-288 1154.5,-288 1154.5,-324"/>
<text text-anchor="middle" x="1048.58" y="-301.8" font-family="Times,serif" font-size="14.00">DOMA&#45;DDANNOTATION_KEY</text>
</a>
</g>
</g>
<!-- DTEL&#45;SXCO_CDS_ANN_PROPERTY&#45;&gt;DOMA&#45;DDANNOTATION_KEY -->
<g id="edge25" class="edge">
<title>DTEL&#45;SXCO_CDS_ANN_PROPERTY&#45;&gt;DOMA&#45;DDANNOTATION_KEY</title>
<path fill="none" stroke="black" d="M1048.58,-359.7C1048.58,-351.98 1048.58,-342.71 1048.58,-334.11"/>
<polygon fill="black" stroke="black" points="1052.08,-334.1 1048.58,-324.1 1045.08,-334.1 1052.08,-334.1"/>
</g>
<!-- DOMA&#45;AS4TEXT -->
<g id="node20" class="node">
<title>DOMA&#45;AS4TEXT</title>
<g id="a_node20"><a xlink:href="./DOMA_AS4TEXT.html" xlink:title="DOMA&#45;AS4TEXT">
<polygon fill="none" stroke="yellow" points="1249.66,-468 1125.51,-468 1125.51,-432 1249.66,-432 1249.66,-468"/>
<text text-anchor="middle" x="1187.58" y="-445.8" font-family="Times,serif" font-size="14.00">DOMA&#45;AS4TEXT</text>
</a>
</g>
</g>
<!-- DTEL&#45;SXCO_AR_SHORT_DESCRIPTION&#45;&gt;DOMA&#45;AS4TEXT -->
<g id="edge26" class="edge">
<title>DTEL&#45;SXCO_AR_SHORT_DESCRIPTION&#45;&gt;DOMA&#45;AS4TEXT</title>
<path fill="none" stroke="black" d="M1187.58,-503.7C1187.58,-495.98 1187.58,-486.71 1187.58,-478.11"/>
<polygon fill="black" stroke="black" points="1191.08,-478.1 1187.58,-468.1 1184.08,-478.1 1191.08,-478.1"/>
</g>
</g>
</svg>
