<?xml version="1.0" encoding="UTF-8" standalone="no"?>
<!DOCTYPE svg PUBLIC "-//W3C//DTD SVG 1.1//EN"
 "http://www.w3.org/Graphics/SVG/1.1/DTD/svg11.dtd">
<!-- Generated by graphviz version 2.47.3 (20210619.1520)
 -->
<!-- Title: G Pages: 1 -->
<svg width="1623pt" height="620pt"
 viewBox="0.00 0.00 1623.13 620.00" xmlns="http://www.w3.org/2000/svg" xmlns:xlink="http://www.w3.org/1999/xlink">
<g id="graph0" class="graph" transform="scale(1 1) rotate(0) translate(4 616)">
<title>G</title>
<polygon fill="white" stroke="transparent" points="-4,4 -4,-616 1619.13,-616 1619.13,4 -4,4"/>
<!-- INTF&#45;IF_SXMLP_OBSERVER -->
<g id="node1" class="node">
<title>INTF&#45;IF_SXMLP_OBSERVER</title>
<polygon fill="none" stroke="yellow" points="983.11,-612 785.14,-612 785.14,-576 983.11,-576 983.11,-612"/>
<text text-anchor="middle" x="884.13" y="-589.8" font-family="Times,serif" font-size="14.00">INTF&#45;IF_SXMLP_OBSERVER</text>
</g>
<!-- INTF&#45;IF_SXMLP_OBSERVER_ABSTRACT -->
<g id="node2" class="node">
<title>INTF&#45;IF_SXMLP_OBSERVER_ABSTRACT</title>
<g id="a_node2"><a xlink:href="./INTF_IF_SXMLP_OBSERVER_ABSTRACT.html" xlink:title="INTF&#45;IF_SXMLP_OBSERVER_ABSTRACT">
<polygon fill="none" stroke="yellow" points="786.22,-540 508.03,-540 508.03,-504 786.22,-504 786.22,-540"/>
<text text-anchor="middle" x="647.13" y="-517.8" font-family="Times,serif" font-size="14.00">INTF&#45;IF_SXMLP_OBSERVER_ABSTRACT</text>
</a>
</g>
</g>
<!-- INTF&#45;IF_SXMLP_OBSERVER&#45;&gt;INTF&#45;IF_SXMLP_OBSERVER_ABSTRACT -->
<g id="edge3" class="edge">
<title>INTF&#45;IF_SXMLP_OBSERVER&#45;&gt;INTF&#45;IF_SXMLP_OBSERVER_ABSTRACT</title>
<path fill="none" stroke="black" d="M826.45,-575.97C792.76,-566.01 750.07,-553.41 714.8,-542.99"/>
<polygon fill="black" stroke="black" points="715.64,-539.59 705.06,-540.11 713.66,-546.3 715.64,-539.59"/>
</g>
<!-- INTF&#45;IF_SXMLP_PART -->
<g id="node3" class="node">
<title>INTF&#45;IF_SXMLP_PART</title>
<g id="a_node3"><a xlink:href="./INTF_IF_SXMLP_PART.html" xlink:title="INTF&#45;IF_SXMLP_PART">
<polygon fill="none" stroke="yellow" points="964.28,-540 803.97,-540 803.97,-504 964.28,-504 964.28,-540"/>
<text text-anchor="middle" x="884.13" y="-517.8" font-family="Times,serif" font-size="14.00">INTF&#45;IF_SXMLP_PART</text>
</a>
</g>
</g>
<!-- INTF&#45;IF_SXMLP_OBSERVER&#45;&gt;INTF&#45;IF_SXMLP_PART -->
<g id="edge2" class="edge">
<title>INTF&#45;IF_SXMLP_OBSERVER&#45;&gt;INTF&#45;IF_SXMLP_PART</title>
<path fill="none" stroke="black" d="M884.13,-575.7C884.13,-567.98 884.13,-558.71 884.13,-550.11"/>
<polygon fill="black" stroke="black" points="887.63,-550.1 884.13,-540.1 880.63,-550.1 887.63,-550.1"/>
</g>
<!-- INTF&#45;IF_SXML_OPEN_ELEMENT -->
<g id="node20" class="node">
<title>INTF&#45;IF_SXML_OPEN_ELEMENT</title>
<g id="a_node20"><a xlink:href="./INTF_IF_SXML_OPEN_ELEMENT.html" xlink:title="INTF&#45;IF_SXML_OPEN_ELEMENT">
<polygon fill="none" stroke="green" points="1351.08,-252 1125.17,-252 1125.17,-216 1351.08,-216 1351.08,-252"/>
<text text-anchor="middle" x="1238.13" y="-229.8" font-family="Times,serif" font-size="14.00">INTF&#45;IF_SXML_OPEN_ELEMENT</text>
</a>
</g>
</g>
<!-- INTF&#45;IF_SXMLP_OBSERVER&#45;&gt;INTF&#45;IF_SXML_OPEN_ELEMENT -->
<g id="edge1" class="edge">
<title>INTF&#45;IF_SXMLP_OBSERVER&#45;&gt;INTF&#45;IF_SXML_OPEN_ELEMENT</title>
<path fill="none" stroke="black" d="M983.34,-586.86C1071.71,-575.37 1187.13,-542.79 1187.13,-451 1187.13,-451 1187.13,-451 1187.13,-377 1187.13,-334.59 1207.53,-289.02 1222.52,-261.26"/>
<polygon fill="black" stroke="black" points="1225.75,-262.65 1227.56,-252.21 1219.64,-259.25 1225.75,-262.65"/>
</g>
<!-- INTF&#45;IF_SXMLP_PART_ABSTRACT -->
<g id="node4" class="node">
<title>INTF&#45;IF_SXMLP_PART_ABSTRACT</title>
<g id="a_node4"><a xlink:href="./INTF_IF_SXMLP_PART_ABSTRACT.html" xlink:title="INTF&#45;IF_SXMLP_PART_ABSTRACT">
<polygon fill="none" stroke="yellow" points="779.39,-468 538.86,-468 538.86,-432 779.39,-432 779.39,-468"/>
<text text-anchor="middle" x="659.13" y="-445.8" font-family="Times,serif" font-size="14.00">INTF&#45;IF_SXMLP_PART_ABSTRACT</text>
</a>
</g>
</g>
<!-- INTF&#45;IF_SXMLP_PART&#45;&gt;INTF&#45;IF_SXMLP_PART_ABSTRACT -->
<g id="edge9" class="edge">
<title>INTF&#45;IF_SXMLP_PART&#45;&gt;INTF&#45;IF_SXMLP_PART_ABSTRACT</title>
<path fill="none" stroke="black" d="M829.37,-503.97C797.53,-494.06 757.21,-481.51 723.8,-471.12"/>
<polygon fill="black" stroke="black" points="724.71,-467.74 714.13,-468.11 722.63,-474.42 724.71,-467.74"/>
</g>
<!-- INTF&#45;IF_SXML_SERIALIZABLE -->
<g id="node5" class="node">
<title>INTF&#45;IF_SXML_SERIALIZABLE</title>
<g id="a_node5"><a xlink:href="./INTF_IF_SXML_SERIALIZABLE.html" xlink:title="INTF&#45;IF_SXML_SERIALIZABLE">
<polygon fill="none" stroke="yellow" points="520.97,-468 305.28,-468 305.28,-432 520.97,-432 520.97,-468"/>
<text text-anchor="middle" x="413.13" y="-445.8" font-family="Times,serif" font-size="14.00">INTF&#45;IF_SXML_SERIALIZABLE</text>
</a>
</g>
</g>
<!-- INTF&#45;IF_SXMLP_PART&#45;&gt;INTF&#45;IF_SXML_SERIALIZABLE -->
<g id="edge8" class="edge">
<title>INTF&#45;IF_SXMLP_PART&#45;&gt;INTF&#45;IF_SXML_SERIALIZABLE</title>
<path fill="none" stroke="black" d="M803.63,-505.42C800.76,-504.93 797.92,-504.46 795.13,-504 681.03,-485.37 649.53,-484.58 531.35,-468.16"/>
<polygon fill="black" stroke="black" points="531.56,-464.65 521.17,-466.74 530.59,-471.59 531.56,-464.65"/>
</g>
<!-- DTEL&#45;ANYURI -->
<g id="node7" class="node">
<title>DTEL&#45;ANYURI</title>
<g id="a_node7"><a xlink:href="./DTEL_ANYURI.html" xlink:title="DTEL&#45;ANYURI">
<polygon fill="none" stroke="yellow" points="197.48,-324 86.78,-324 86.78,-288 197.48,-288 197.48,-324"/>
<text text-anchor="middle" x="142.13" y="-301.8" font-family="Times,serif" font-size="14.00">DTEL&#45;ANYURI</text>
</a>
</g>
</g>
<!-- INTF&#45;IF_SXMLP_PART&#45;&gt;DTEL&#45;ANYURI -->
<g id="edge4" class="edge">
<title>INTF&#45;IF_SXMLP_PART&#45;&gt;DTEL&#45;ANYURI</title>
<path fill="none" stroke="black" d="M803.66,-505.19C800.79,-504.77 797.93,-504.37 795.13,-504 619.88,-481.02 115.96,-535.27 7.13,-396 -2.73,-383.39 -1.89,-373.22 7.13,-360 22.91,-336.85 50.48,-323.81 76.61,-316.47"/>
<polygon fill="black" stroke="black" points="77.71,-319.8 86.53,-313.92 75.97,-313.02 77.71,-319.8"/>
</g>
<!-- TABL&#45;QNAME -->
<g id="node17" class="node">
<title>TABL&#45;QNAME</title>
<g id="a_node17"><a xlink:href="./TABL_QNAME.html" xlink:title="TABL&#45;QNAME">
<polygon fill="none" stroke="green" points="1482.15,-36 1374.1,-36 1374.1,0 1482.15,0 1482.15,-36"/>
<text text-anchor="middle" x="1428.13" y="-13.8" font-family="Times,serif" font-size="14.00">TABL&#45;QNAME</text>
</a>
</g>
</g>
<!-- INTF&#45;IF_SXMLP_PART&#45;&gt;TABL&#45;QNAME -->
<g id="edge5" class="edge">
<title>INTF&#45;IF_SXMLP_PART&#45;&gt;TABL&#45;QNAME</title>
<path fill="none" stroke="black" d="M964.45,-513.76C1154.34,-495.58 1615.13,-444.69 1615.13,-379 1615.13,-379 1615.13,-379 1615.13,-161 1615.13,-97.55 1545.99,-58.76 1491.8,-38.1"/>
<polygon fill="black" stroke="black" points="1492.81,-34.74 1482.21,-34.58 1490.39,-41.31 1492.81,-34.74"/>
</g>
<!-- INTF&#45;IF_SXMLP_VALUE -->
<g id="node25" class="node">
<title>INTF&#45;IF_SXMLP_VALUE</title>
<g id="a_node25"><a xlink:href="./INTF_IF_SXMLP_VALUE.html" xlink:title="INTF&#45;IF_SXMLP_VALUE">
<polygon fill="none" stroke="yellow" points="970.43,-468 797.83,-468 797.83,-432 970.43,-432 970.43,-468"/>
<text text-anchor="middle" x="884.13" y="-445.8" font-family="Times,serif" font-size="14.00">INTF&#45;IF_SXMLP_VALUE</text>
</a>
</g>
</g>
<!-- INTF&#45;IF_SXMLP_PART&#45;&gt;INTF&#45;IF_SXMLP_VALUE -->
<g id="edge7" class="edge">
<title>INTF&#45;IF_SXMLP_PART&#45;&gt;INTF&#45;IF_SXMLP_VALUE</title>
<path fill="none" stroke="black" d="M884.13,-503.7C884.13,-495.98 884.13,-486.71 884.13,-478.11"/>
<polygon fill="black" stroke="black" points="887.63,-478.1 884.13,-468.1 880.63,-478.1 887.63,-478.1"/>
</g>
<!-- DTEL&#45;NCNAME -->
<g id="node26" class="node">
<title>DTEL&#45;NCNAME</title>
<g id="a_node26"><a xlink:href="./DTEL_NCNAME.html" xlink:title="DTEL&#45;NCNAME">
<polygon fill="none" stroke="yellow" points="1105.71,-468 988.55,-468 988.55,-432 1105.71,-432 1105.71,-468"/>
<text text-anchor="middle" x="1047.13" y="-445.8" font-family="Times,serif" font-size="14.00">DTEL&#45;NCNAME</text>
</a>
</g>
</g>
<!-- INTF&#45;IF_SXMLP_PART&#45;&gt;DTEL&#45;NCNAME -->
<g id="edge6" class="edge">
<title>INTF&#45;IF_SXMLP_PART&#45;&gt;DTEL&#45;NCNAME</title>
<path fill="none" stroke="black" d="M924,-503.88C946.28,-494.31 974.24,-482.3 997.88,-472.15"/>
<polygon fill="black" stroke="black" points="999.57,-475.23 1007.38,-468.07 996.81,-468.8 999.57,-475.23"/>
</g>
<!-- INTF&#45;IF_SXMLP_PACKAGE_READER -->
<g id="node6" class="node">
<title>INTF&#45;IF_SXMLP_PACKAGE_READER</title>
<g id="a_node6"><a xlink:href="./INTF_IF_SXMLP_PACKAGE_READER.html" xlink:title="INTF&#45;IF_SXMLP_PACKAGE_READER">
<polygon fill="none" stroke="yellow" points="540.09,-396 286.16,-396 286.16,-360 540.09,-360 540.09,-396"/>
<text text-anchor="middle" x="413.13" y="-373.8" font-family="Times,serif" font-size="14.00">INTF&#45;IF_SXMLP_PACKAGE_READER</text>
</a>
</g>
</g>
<!-- INTF&#45;IF_SXML_SERIALIZABLE&#45;&gt;INTF&#45;IF_SXMLP_PACKAGE_READER -->
<g id="edge13" class="edge">
<title>INTF&#45;IF_SXML_SERIALIZABLE&#45;&gt;INTF&#45;IF_SXMLP_PACKAGE_READER</title>
<path fill="none" stroke="black" d="M413.13,-431.7C413.13,-423.98 413.13,-414.71 413.13,-406.11"/>
<polygon fill="black" stroke="black" points="416.63,-406.1 413.13,-396.1 409.63,-406.1 416.63,-406.1"/>
</g>
<!-- INTF&#45;IF_SXML_READER -->
<g id="node9" class="node">
<title>INTF&#45;IF_SXML_READER</title>
<g id="a_node9"><a xlink:href="./INTF_IF_SXML_READER.html" xlink:title="INTF&#45;IF_SXML_READER">
<polygon fill="none" stroke="green" points="731.71,-396 558.54,-396 558.54,-360 731.71,-360 731.71,-396"/>
<text text-anchor="middle" x="645.13" y="-373.8" font-family="Times,serif" font-size="14.00">INTF&#45;IF_SXML_READER</text>
</a>
</g>
</g>
<!-- INTF&#45;IF_SXML_SERIALIZABLE&#45;&gt;INTF&#45;IF_SXML_READER -->
<g id="edge12" class="edge">
<title>INTF&#45;IF_SXML_SERIALIZABLE&#45;&gt;INTF&#45;IF_SXML_READER</title>
<path fill="none" stroke="black" d="M469.58,-431.97C502.42,-422.06 543.99,-409.51 578.44,-399.12"/>
<polygon fill="black" stroke="black" points="579.85,-402.35 588.42,-396.11 577.83,-395.65 579.85,-402.35"/>
</g>
<!-- INTF&#45;IF_SXML_WRITER -->
<g id="node13" class="node">
<title>INTF&#45;IF_SXML_WRITER</title>
<g id="a_node13"><a xlink:href="./INTF_IF_SXML_WRITER.html" xlink:title="INTF&#45;IF_SXML_WRITER">
<polygon fill="none" stroke="green" points="888.37,-324 717.88,-324 717.88,-288 888.37,-288 888.37,-324"/>
<text text-anchor="middle" x="803.13" y="-301.8" font-family="Times,serif" font-size="14.00">INTF&#45;IF_SXML_WRITER</text>
</a>
</g>
</g>
<!-- INTF&#45;IF_SXML_SERIALIZABLE&#45;&gt;INTF&#45;IF_SXML_WRITER -->
<g id="edge10" class="edge">
<title>INTF&#45;IF_SXML_SERIALIZABLE&#45;&gt;INTF&#45;IF_SXML_WRITER</title>
<path fill="none" stroke="black" d="M521.09,-432.57C614.83,-418.14 736.35,-399 741.13,-396 764.66,-381.2 781.67,-353.88 791.85,-333.39"/>
<polygon fill="black" stroke="black" points="795.06,-334.79 796.18,-324.25 788.74,-331.79 795.06,-334.79"/>
</g>
<!-- INTF&#45;IF_SXMLP_PACKAGE_WRITER -->
<g id="node24" class="node">
<title>INTF&#45;IF_SXMLP_PACKAGE_WRITER</title>
<g id="a_node24"><a xlink:href="./INTF_IF_SXMLP_PACKAGE_WRITER.html" xlink:title="INTF&#45;IF_SXMLP_PACKAGE_WRITER">
<polygon fill="none" stroke="yellow" points="267.75,-396 16.5,-396 16.5,-360 267.75,-360 267.75,-396"/>
<text text-anchor="middle" x="142.13" y="-373.8" font-family="Times,serif" font-size="14.00">INTF&#45;IF_SXMLP_PACKAGE_WRITER</text>
</a>
</g>
</g>
<!-- INTF&#45;IF_SXML_SERIALIZABLE&#45;&gt;INTF&#45;IF_SXMLP_PACKAGE_WRITER -->
<g id="edge11" class="edge">
<title>INTF&#45;IF_SXML_SERIALIZABLE&#45;&gt;INTF&#45;IF_SXMLP_PACKAGE_WRITER</title>
<path fill="none" stroke="black" d="M347.18,-431.97C308.24,-421.91 258.8,-409.14 218.22,-398.65"/>
<polygon fill="black" stroke="black" points="218.93,-395.22 208.37,-396.11 217.18,-402 218.93,-395.22"/>
</g>
<!-- INTF&#45;IF_SXMLP_PACKAGE_READER&#45;&gt;DTEL&#45;ANYURI -->
<g id="edge14" class="edge">
<title>INTF&#45;IF_SXMLP_PACKAGE_READER&#45;&gt;DTEL&#45;ANYURI</title>
<path fill="none" stroke="black" d="M347.18,-359.97C304.83,-349.03 250.03,-334.87 207.75,-323.95"/>
<polygon fill="black" stroke="black" points="208.39,-320.5 197.83,-321.39 206.64,-327.28 208.39,-320.5"/>
</g>
<!-- DOMA&#45;ANYURI -->
<g id="node8" class="node">
<title>DOMA&#45;ANYURI</title>
<g id="a_node8"><a xlink:href="./DOMA_ANYURI.html" xlink:title="DOMA&#45;ANYURI">
<polygon fill="none" stroke="yellow" points="200.98,-252 83.28,-252 83.28,-216 200.98,-216 200.98,-252"/>
<text text-anchor="middle" x="142.13" y="-229.8" font-family="Times,serif" font-size="14.00">DOMA&#45;ANYURI</text>
</a>
</g>
</g>
<!-- DTEL&#45;ANYURI&#45;&gt;DOMA&#45;ANYURI -->
<g id="edge15" class="edge">
<title>DTEL&#45;ANYURI&#45;&gt;DOMA&#45;ANYURI</title>
<path fill="none" stroke="black" d="M142.13,-287.7C142.13,-279.98 142.13,-270.71 142.13,-262.11"/>
<polygon fill="black" stroke="black" points="145.63,-262.1 142.13,-252.1 138.63,-262.1 145.63,-262.1"/>
</g>
<!-- CLAS&#45;CL_VSI_KERNEL -->
<g id="node10" class="node">
<title>CLAS&#45;CL_VSI_KERNEL</title>
<g id="a_node10"><a xlink:href="./CLAS_CL_VSI_KERNEL.html" xlink:title="CLAS&#45;CL_VSI_KERNEL">
<polygon fill="none" stroke="yellow" points="589.21,-252 423.04,-252 423.04,-216 589.21,-216 589.21,-252"/>
<text text-anchor="middle" x="506.13" y="-229.8" font-family="Times,serif" font-size="14.00">CLAS&#45;CL_VSI_KERNEL</text>
</a>
</g>
</g>
<!-- INTF&#45;IF_SXML_READER&#45;&gt;CLAS&#45;CL_VSI_KERNEL -->
<g id="edge21" class="edge">
<title>INTF&#45;IF_SXML_READER&#45;&gt;CLAS&#45;CL_VSI_KERNEL</title>
<path fill="none" stroke="black" d="M628.36,-359.87C603.84,-334.82 558.06,-288.05 530.02,-259.41"/>
<polygon fill="black" stroke="black" points="532.45,-256.89 522.95,-252.19 527.45,-261.78 532.45,-256.89"/>
</g>
<!-- INTF&#45;IF_SXML_READER&#45;&gt;INTF&#45;IF_SXML_WRITER -->
<g id="edge20" class="edge">
<title>INTF&#45;IF_SXML_READER&#45;&gt;INTF&#45;IF_SXML_WRITER</title>
<path fill="none" stroke="black" d="M683.78,-359.88C705.38,-350.31 732.48,-338.3 755.39,-328.15"/>
<polygon fill="black" stroke="black" points="756.88,-331.32 764.6,-324.07 754.04,-324.92 756.88,-331.32"/>
</g>
<!-- INTF&#45;IF_SXML_NODE -->
<g id="node14" class="node">
<title>INTF&#45;IF_SXML_NODE</title>
<g id="a_node14"><a xlink:href="./INTF_IF_SXML_NODE.html" xlink:title="INTF&#45;IF_SXML_NODE">
<polygon fill="none" stroke="green" points="923.09,-180 767.16,-180 767.16,-144 923.09,-144 923.09,-180"/>
<text text-anchor="middle" x="845.13" y="-157.8" font-family="Times,serif" font-size="14.00">INTF&#45;IF_SXML_NODE</text>
</a>
</g>
</g>
<!-- INTF&#45;IF_SXML_READER&#45;&gt;INTF&#45;IF_SXML_NODE -->
<g id="edge16" class="edge">
<title>INTF&#45;IF_SXML_READER&#45;&gt;INTF&#45;IF_SXML_NODE</title>
<path fill="none" stroke="black" d="M561.34,-359.96C465.35,-338.48 317.25,-298.67 286.13,-252 277.25,-238.69 275.36,-227.84 286.13,-216 317.15,-181.9 607.51,-169.26 757.03,-164.98"/>
<polygon fill="black" stroke="black" points="757.21,-168.48 767.11,-164.7 757.02,-161.48 757.21,-168.48"/>
</g>
<!-- INTF&#45;IF_SXML_VALUE -->
<g id="node19" class="node">
<title>INTF&#45;IF_SXML_VALUE</title>
<g id="a_node19"><a xlink:href="./INTF_IF_SXML_VALUE.html" xlink:title="INTF&#45;IF_SXML_VALUE">
<polygon fill="none" stroke="green" points="936.14,-108 772.11,-108 772.11,-72 936.14,-72 936.14,-108"/>
<text text-anchor="middle" x="854.13" y="-85.8" font-family="Times,serif" font-size="14.00">INTF&#45;IF_SXML_VALUE</text>
</a>
</g>
</g>
<!-- INTF&#45;IF_SXML_READER&#45;&gt;INTF&#45;IF_SXML_VALUE -->
<g id="edge17" class="edge">
<title>INTF&#45;IF_SXML_READER&#45;&gt;INTF&#45;IF_SXML_VALUE</title>
<path fill="none" stroke="black" d="M558.53,-361.62C555.35,-361.07 552.21,-360.53 549.13,-360 452.77,-343.48 416.34,-373.66 332.13,-324 285.37,-296.43 241.04,-258.23 275.13,-216 335.21,-141.57 613.73,-109.3 761.49,-97.23"/>
<polygon fill="black" stroke="black" points="762.21,-100.68 771.89,-96.39 761.65,-93.7 762.21,-100.68"/>
</g>
<!-- INTF&#45;IF_SXML_NSURI_HELPER -->
<g id="node22" class="node">
<title>INTF&#45;IF_SXML_NSURI_HELPER</title>
<g id="a_node22"><a xlink:href="./INTF_IF_SXML_NSURI_HELPER.html" xlink:title="INTF&#45;IF_SXML_NSURI_HELPER">
<polygon fill="none" stroke="green" points="1587.6,-252 1368.66,-252 1368.66,-216 1587.6,-216 1587.6,-252"/>
<text text-anchor="middle" x="1478.13" y="-229.8" font-family="Times,serif" font-size="14.00">INTF&#45;IF_SXML_NSURI_HELPER</text>
</a>
</g>
</g>
<!-- INTF&#45;IF_SXML_READER&#45;&gt;INTF&#45;IF_SXML_NSURI_HELPER -->
<g id="edge19" class="edge">
<title>INTF&#45;IF_SXML_READER&#45;&gt;INTF&#45;IF_SXML_NSURI_HELPER</title>
<path fill="none" stroke="black" d="M731.91,-362.21C884.54,-336.19 1200.67,-282.3 1368.27,-253.73"/>
<polygon fill="black" stroke="black" points="1369.08,-257.14 1378.35,-252.01 1367.91,-250.24 1369.08,-257.14"/>
</g>
<!-- INTF&#45;IF_SXML -->
<g id="node23" class="node">
<title>INTF&#45;IF_SXML</title>
<g id="a_node23"><a xlink:href="./INTF_IF_SXML.html" xlink:title="INTF&#45;IF_SXML">
<polygon fill="none" stroke="green" points="405.22,-252 295.03,-252 295.03,-216 405.22,-216 405.22,-252"/>
<text text-anchor="middle" x="350.13" y="-229.8" font-family="Times,serif" font-size="14.00">INTF&#45;IF_SXML</text>
</a>
</g>
</g>
<!-- INTF&#45;IF_SXML_READER&#45;&gt;INTF&#45;IF_SXML -->
<g id="edge18" class="edge">
<title>INTF&#45;IF_SXML_READER&#45;&gt;INTF&#45;IF_SXML</title>
<path fill="none" stroke="black" d="M609.54,-359.87C555.72,-333.96 453.67,-284.84 394.89,-256.55"/>
<polygon fill="black" stroke="black" points="396.37,-253.37 385.84,-252.19 393.33,-259.68 396.37,-253.37"/>
</g>
<!-- DTEL&#45;VSCAN_PROFILE -->
<g id="node11" class="node">
<title>DTEL&#45;VSCAN_PROFILE</title>
<g id="a_node11"><a xlink:href="./DTEL_VSCAN_PROFILE.html" xlink:title="DTEL&#45;VSCAN_PROFILE">
<polygon fill="none" stroke="yellow" points="200.77,-180 33.49,-180 33.49,-144 200.77,-144 200.77,-180"/>
<text text-anchor="middle" x="117.13" y="-157.8" font-family="Times,serif" font-size="14.00">DTEL&#45;VSCAN_PROFILE</text>
</a>
</g>
</g>
<!-- CLAS&#45;CL_VSI_KERNEL&#45;&gt;DTEL&#45;VSCAN_PROFILE -->
<g id="edge22" class="edge">
<title>CLAS&#45;CL_VSI_KERNEL&#45;&gt;DTEL&#45;VSCAN_PROFILE</title>
<path fill="none" stroke="black" d="M422.89,-217.59C419.93,-217.06 417,-216.52 414.13,-216 346.17,-203.66 269.41,-189.97 210.96,-179.59"/>
<polygon fill="black" stroke="black" points="211.46,-176.13 201,-177.83 210.24,-183.02 211.46,-176.13"/>
</g>
<!-- DOMA&#45;VSCAN_PROFILE -->
<g id="node12" class="node">
<title>DOMA&#45;VSCAN_PROFILE</title>
<g id="a_node12"><a xlink:href="./DOMA_VSCAN_PROFILE.html" xlink:title="DOMA&#45;VSCAN_PROFILE">
<polygon fill="none" stroke="yellow" points="204.27,-108 29.99,-108 29.99,-72 204.27,-72 204.27,-108"/>
<text text-anchor="middle" x="117.13" y="-85.8" font-family="Times,serif" font-size="14.00">DOMA&#45;VSCAN_PROFILE</text>
</a>
</g>
</g>
<!-- DTEL&#45;VSCAN_PROFILE&#45;&gt;DOMA&#45;VSCAN_PROFILE -->
<g id="edge23" class="edge">
<title>DTEL&#45;VSCAN_PROFILE&#45;&gt;DOMA&#45;VSCAN_PROFILE</title>
<path fill="none" stroke="black" d="M117.13,-143.7C117.13,-135.98 117.13,-126.71 117.13,-118.11"/>
<polygon fill="black" stroke="black" points="120.63,-118.1 117.13,-108.1 113.63,-118.1 120.63,-118.1"/>
</g>
<!-- INTF&#45;IF_SXML_WRITER&#45;&gt;CLAS&#45;CL_VSI_KERNEL -->
<g id="edge30" class="edge">
<title>INTF&#45;IF_SXML_WRITER&#45;&gt;CLAS&#45;CL_VSI_KERNEL</title>
<path fill="none" stroke="black" d="M730.85,-287.97C687.83,-277.83 633.1,-264.93 588.42,-254.4"/>
<polygon fill="black" stroke="black" points="589,-250.94 578.47,-252.05 587.4,-257.75 589,-250.94"/>
</g>
<!-- INTF&#45;IF_SXML_WRITER&#45;&gt;INTF&#45;IF_SXML_NODE -->
<g id="edge29" class="edge">
<title>INTF&#45;IF_SXML_WRITER&#45;&gt;INTF&#45;IF_SXML_NODE</title>
<path fill="none" stroke="black" d="M811.69,-287.67C816.46,-277.48 822.21,-264.23 826.13,-252 832.62,-231.72 837.54,-208.12 840.75,-190.32"/>
<polygon fill="black" stroke="black" points="844.22,-190.78 842.48,-180.33 837.33,-189.58 844.22,-190.78"/>
</g>
<!-- INTF&#45;IF_SXML_CLOSE_ELEMENT -->
<g id="node15" class="node">
<title>INTF&#45;IF_SXML_CLOSE_ELEMENT</title>
<g id="a_node15"><a xlink:href="./INTF_IF_SXML_CLOSE_ELEMENT.html" xlink:title="INTF&#45;IF_SXML_CLOSE_ELEMENT">
<polygon fill="none" stroke="green" points="1106.86,-252 873.39,-252 873.39,-216 1106.86,-216 1106.86,-252"/>
<text text-anchor="middle" x="990.13" y="-229.8" font-family="Times,serif" font-size="14.00">INTF&#45;IF_SXML_CLOSE_ELEMENT</text>
</a>
</g>
</g>
<!-- INTF&#45;IF_SXML_WRITER&#45;&gt;INTF&#45;IF_SXML_CLOSE_ELEMENT -->
<g id="edge28" class="edge">
<title>INTF&#45;IF_SXML_WRITER&#45;&gt;INTF&#45;IF_SXML_CLOSE_ELEMENT</title>
<path fill="none" stroke="black" d="M848.87,-287.88C874.89,-278.14 907.65,-265.87 935.07,-255.61"/>
<polygon fill="black" stroke="black" points="936.39,-258.85 944.53,-252.07 933.94,-252.3 936.39,-258.85"/>
</g>
<!-- INTF&#45;IF_SXML_VALUE_NODE -->
<g id="node18" class="node">
<title>INTF&#45;IF_SXML_VALUE_NODE</title>
<g id="a_node18"><a xlink:href="./INTF_IF_SXML_VALUE_NODE.html" xlink:title="INTF&#45;IF_SXML_VALUE_NODE">
<polygon fill="none" stroke="green" points="817.52,-252 606.74,-252 606.74,-216 817.52,-216 817.52,-252"/>
<text text-anchor="middle" x="712.13" y="-229.8" font-family="Times,serif" font-size="14.00">INTF&#45;IF_SXML_VALUE_NODE</text>
</a>
</g>
</g>
<!-- INTF&#45;IF_SXML_WRITER&#45;&gt;INTF&#45;IF_SXML_VALUE_NODE -->
<g id="edge27" class="edge">
<title>INTF&#45;IF_SXML_WRITER&#45;&gt;INTF&#45;IF_SXML_VALUE_NODE</title>
<path fill="none" stroke="black" d="M780.63,-287.7C769.17,-278.88 755.07,-268.03 742.64,-258.47"/>
<polygon fill="black" stroke="black" points="744.42,-255.43 734.36,-252.1 740.15,-260.98 744.42,-255.43"/>
</g>
<!-- INTF&#45;IF_SXML_WRITER&#45;&gt;INTF&#45;IF_SXML_OPEN_ELEMENT -->
<g id="edge26" class="edge">
<title>INTF&#45;IF_SXML_WRITER&#45;&gt;INTF&#45;IF_SXML_OPEN_ELEMENT</title>
<path fill="none" stroke="black" d="M888.55,-291.25C955.19,-280.53 1048.45,-265.52 1121.89,-253.7"/>
<polygon fill="black" stroke="black" points="1122.8,-257.1 1132.12,-252.06 1121.69,-250.19 1122.8,-257.1"/>
</g>
<!-- INTF&#45;IF_SXML_WRITER&#45;&gt;INTF&#45;IF_SXML_NSURI_HELPER -->
<g id="edge25" class="edge">
<title>INTF&#45;IF_SXML_WRITER&#45;&gt;INTF&#45;IF_SXML_NSURI_HELPER</title>
<path fill="none" stroke="black" d="M888.67,-298.15C996.04,-289.26 1186.1,-272.57 1358.52,-252.16"/>
<polygon fill="black" stroke="black" points="1359.03,-255.63 1368.54,-250.97 1358.2,-248.68 1359.03,-255.63"/>
</g>
<!-- INTF&#45;IF_SXML_WRITER&#45;&gt;INTF&#45;IF_SXML -->
<g id="edge24" class="edge">
<title>INTF&#45;IF_SXML_WRITER&#45;&gt;INTF&#45;IF_SXML</title>
<path fill="none" stroke="black" d="M717.63,-296.44C640.79,-288.04 524.76,-273.61 415.09,-252.06"/>
<polygon fill="black" stroke="black" points="415.67,-248.61 405.18,-250.09 414.31,-255.47 415.67,-248.61"/>
</g>
<!-- INTF&#45;IF_SXML_CLOSE_ELEMENT&#45;&gt;INTF&#45;IF_SXML_NODE -->
<g id="edge32" class="edge">
<title>INTF&#45;IF_SXML_CLOSE_ELEMENT&#45;&gt;INTF&#45;IF_SXML_NODE</title>
<path fill="none" stroke="black" d="M954.66,-215.88C935.01,-206.39 910.4,-194.51 889.49,-184.42"/>
<polygon fill="black" stroke="black" points="891.01,-181.26 880.48,-180.07 887.97,-187.57 891.01,-181.26"/>
</g>
<!-- INTF&#45;IF_SXML_NAMED -->
<g id="node16" class="node">
<title>INTF&#45;IF_SXML_NAMED</title>
<g id="a_node16"><a xlink:href="./INTF_IF_SXML_NAMED.html" xlink:title="INTF&#45;IF_SXML_NAMED">
<polygon fill="none" stroke="green" points="1386.54,-108 1217.72,-108 1217.72,-72 1386.54,-72 1386.54,-108"/>
<text text-anchor="middle" x="1302.13" y="-85.8" font-family="Times,serif" font-size="14.00">INTF&#45;IF_SXML_NAMED</text>
</a>
</g>
</g>
<!-- INTF&#45;IF_SXML_CLOSE_ELEMENT&#45;&gt;INTF&#45;IF_SXML_NAMED -->
<g id="edge31" class="edge">
<title>INTF&#45;IF_SXML_CLOSE_ELEMENT&#45;&gt;INTF&#45;IF_SXML_NAMED</title>
<path fill="none" stroke="black" d="M1001.03,-215.68C1014.81,-195.29 1040.46,-161.92 1071.13,-144 1112.4,-119.87 1163.8,-106.73 1207.63,-99.57"/>
<polygon fill="black" stroke="black" points="1208.38,-102.99 1217.72,-98 1207.3,-96.08 1208.38,-102.99"/>
</g>
<!-- INTF&#45;IF_SXML_NAMED&#45;&gt;TABL&#45;QNAME -->
<g id="edge33" class="edge">
<title>INTF&#45;IF_SXML_NAMED&#45;&gt;TABL&#45;QNAME</title>
<path fill="none" stroke="black" d="M1332.95,-71.88C1349.58,-62.64 1370.29,-51.13 1388.15,-41.21"/>
<polygon fill="black" stroke="black" points="1390.14,-44.11 1397.18,-36.19 1386.74,-37.99 1390.14,-44.11"/>
</g>
<!-- INTF&#45;IF_SXML_VALUE_NODE&#45;&gt;INTF&#45;IF_SXML_NODE -->
<g id="edge34" class="edge">
<title>INTF&#45;IF_SXML_VALUE_NODE&#45;&gt;INTF&#45;IF_SXML_NODE</title>
<path fill="none" stroke="black" d="M744.66,-215.88C762.37,-206.55 784.48,-194.92 803.44,-184.94"/>
<polygon fill="black" stroke="black" points="805.25,-187.94 812.47,-180.19 801.99,-181.75 805.25,-187.94"/>
</g>
<!-- INTF&#45;IF_SXML_VALUE_NODE&#45;&gt;INTF&#45;IF_SXML_VALUE -->
<g id="edge35" class="edge">
<title>INTF&#45;IF_SXML_VALUE_NODE&#45;&gt;INTF&#45;IF_SXML_VALUE</title>
<path fill="none" stroke="black" d="M717.6,-215.76C724.47,-196.35 737.87,-164.82 758.13,-144 770.45,-131.34 786.45,-120.89 801.84,-112.72"/>
<polygon fill="black" stroke="black" points="803.47,-115.82 810.8,-108.17 800.3,-109.58 803.47,-115.82"/>
</g>
<!-- INTF&#45;IF_SXML_OPEN_ELEMENT&#45;&gt;INTF&#45;IF_SXML_NODE -->
<g id="edge37" class="edge">
<title>INTF&#45;IF_SXML_OPEN_ELEMENT&#45;&gt;INTF&#45;IF_SXML_NODE</title>
<path fill="none" stroke="black" d="M1142.49,-215.97C1078.78,-204.62 995.67,-189.81 933.52,-178.74"/>
<polygon fill="black" stroke="black" points="933.79,-175.24 923.34,-176.93 932.57,-182.13 933.79,-175.24"/>
</g>
<!-- INTF&#45;IF_SXML_OPEN_ELEMENT&#45;&gt;INTF&#45;IF_SXML_NAMED -->
<g id="edge36" class="edge">
<title>INTF&#45;IF_SXML_OPEN_ELEMENT&#45;&gt;INTF&#45;IF_SXML_NAMED</title>
<path fill="none" stroke="black" d="M1256.41,-215.97C1265.76,-206.29 1276.52,-193.43 1283.13,-180 1292.69,-160.56 1297.46,-136.42 1299.82,-118.19"/>
<polygon fill="black" stroke="black" points="1303.31,-118.54 1300.96,-108.21 1296.35,-117.75 1303.31,-118.54"/>
</g>
<!-- INTF&#45;IF_SXML_OPEN_ELEMENT&#45;&gt;INTF&#45;IF_SXML_VALUE -->
<g id="edge39" class="edge">
<title>INTF&#45;IF_SXML_OPEN_ELEMENT&#45;&gt;INTF&#45;IF_SXML_VALUE</title>
<path fill="none" stroke="black" d="M1180.54,-216C1148.17,-206.12 1107.15,-193.08 1071.13,-180 1012.29,-158.64 945.87,-130.84 902.19,-112.04"/>
<polygon fill="black" stroke="black" points="903.52,-108.8 892.95,-108.05 900.75,-115.23 903.52,-108.8"/>
</g>
<!-- INTF&#45;IF_SXML_ATTRIBUTE -->
<g id="node21" class="node">
<title>INTF&#45;IF_SXML_ATTRIBUTE</title>
<g id="a_node21"><a xlink:href="./INTF_IF_SXML_ATTRIBUTE.html" xlink:title="INTF&#45;IF_SXML_ATTRIBUTE">
<polygon fill="none" stroke="green" points="1274.48,-180 1079.78,-180 1079.78,-144 1274.48,-144 1274.48,-180"/>
<text text-anchor="middle" x="1177.13" y="-157.8" font-family="Times,serif" font-size="14.00">INTF&#45;IF_SXML_ATTRIBUTE</text>
</a>
</g>
</g>
<!-- INTF&#45;IF_SXML_OPEN_ELEMENT&#45;&gt;INTF&#45;IF_SXML_ATTRIBUTE -->
<g id="edge38" class="edge">
<title>INTF&#45;IF_SXML_OPEN_ELEMENT&#45;&gt;INTF&#45;IF_SXML_ATTRIBUTE</title>
<path fill="none" stroke="black" d="M1223.05,-215.7C1215.73,-207.3 1206.82,-197.07 1198.79,-187.86"/>
<polygon fill="black" stroke="black" points="1201.24,-185.34 1192.03,-180.1 1195.96,-189.94 1201.24,-185.34"/>
</g>
<!-- INTF&#45;IF_SXML_ATTRIBUTE&#45;&gt;INTF&#45;IF_SXML_NAMED -->
<g id="edge40" class="edge">
<title>INTF&#45;IF_SXML_ATTRIBUTE&#45;&gt;INTF&#45;IF_SXML_NAMED</title>
<path fill="none" stroke="black" d="M1207.7,-143.88C1224.2,-134.64 1244.75,-123.13 1262.46,-113.21"/>
<polygon fill="black" stroke="black" points="1264.42,-116.13 1271.43,-108.19 1261,-110.02 1264.42,-116.13"/>
</g>
<!-- INTF&#45;IF_SXML_ATTRIBUTE&#45;&gt;INTF&#45;IF_SXML_VALUE -->
<g id="edge41" class="edge">
<title>INTF&#45;IF_SXML_ATTRIBUTE&#45;&gt;INTF&#45;IF_SXML_VALUE</title>
<path fill="none" stroke="black" d="M1098.52,-143.97C1051.44,-133.76 991.47,-120.76 942.71,-110.2"/>
<polygon fill="black" stroke="black" points="943.31,-106.75 932.8,-108.05 941.83,-113.59 943.31,-106.75"/>
</g>
<!-- INTF&#45;IF_SXML_NSURI_HELPER&#45;&gt;INTF&#45;IF_SXML_NAMED -->
<g id="edge42" class="edge">
<title>INTF&#45;IF_SXML_NSURI_HELPER&#45;&gt;INTF&#45;IF_SXML_NAMED</title>
<path fill="none" stroke="black" d="M1456.9,-215.87C1425.58,-190.6 1366.89,-143.25 1331.47,-114.68"/>
<polygon fill="black" stroke="black" points="1333.41,-111.74 1323.43,-108.19 1329.02,-117.19 1333.41,-111.74"/>
</g>
<!-- INTF&#45;IF_SXMLP_PACKAGE_WRITER&#45;&gt;DTEL&#45;ANYURI -->
<g id="edge43" class="edge">
<title>INTF&#45;IF_SXMLP_PACKAGE_WRITER&#45;&gt;DTEL&#45;ANYURI</title>
<path fill="none" stroke="black" d="M142.13,-359.7C142.13,-351.98 142.13,-342.71 142.13,-334.11"/>
<polygon fill="black" stroke="black" points="145.63,-334.1 142.13,-324.1 138.63,-334.1 145.63,-334.1"/>
</g>
<!-- INTF&#45;IF_SXMLP_VALUE&#45;&gt;INTF&#45;IF_SXML_READER -->
<g id="edge45" class="edge">
<title>INTF&#45;IF_SXMLP_VALUE&#45;&gt;INTF&#45;IF_SXML_READER</title>
<path fill="none" stroke="black" d="M825.97,-431.97C791.99,-422.01 748.94,-409.41 713.37,-398.99"/>
<polygon fill="black" stroke="black" points="714.13,-395.56 703.55,-396.11 712.16,-402.28 714.13,-395.56"/>
</g>
<!-- INTF&#45;IF_SXMLP_VALUE&#45;&gt;INTF&#45;IF_SXML_WRITER -->
<g id="edge44" class="edge">
<title>INTF&#45;IF_SXMLP_VALUE&#45;&gt;INTF&#45;IF_SXML_WRITER</title>
<path fill="none" stroke="black" d="M874.36,-431.87C860.31,-407.24 834.29,-361.64 817.89,-332.88"/>
<polygon fill="black" stroke="black" points="820.93,-331.14 812.93,-324.19 814.85,-334.61 820.93,-331.14"/>
</g>
<!-- DOMA&#45;NCNAME -->
<g id="node27" class="node">
<title>DOMA&#45;NCNAME</title>
<g id="a_node27"><a xlink:href="./DOMA_NCNAME.html" xlink:title="DOMA&#45;NCNAME">
<polygon fill="none" stroke="yellow" points="1109.21,-396 985.05,-396 985.05,-360 1109.21,-360 1109.21,-396"/>
<text text-anchor="middle" x="1047.13" y="-373.8" font-family="Times,serif" font-size="14.00">DOMA&#45;NCNAME</text>
</a>
</g>
</g>
<!-- DTEL&#45;NCNAME&#45;&gt;DOMA&#45;NCNAME -->
<g id="edge46" class="edge">
<title>DTEL&#45;NCNAME&#45;&gt;DOMA&#45;NCNAME</title>
<path fill="none" stroke="black" d="M1047.13,-431.7C1047.13,-423.98 1047.13,-414.71 1047.13,-406.11"/>
<polygon fill="black" stroke="black" points="1050.63,-406.1 1047.13,-396.1 1043.63,-406.1 1050.63,-406.1"/>
</g>
</g>
</svg>
