<?xml version="1.0" encoding="UTF-8" standalone="no"?>
<!DOCTYPE svg PUBLIC "-//W3C//DTD SVG 1.1//EN"
 "http://www.w3.org/Graphics/SVG/1.1/DTD/svg11.dtd">
<!-- Generated by graphviz version 2.47.3 (20210619.1520)
 -->
<!-- Title: G Pages: 1 -->
<svg width="2151pt" height="260pt"
 viewBox="0.00 0.00 2150.76 260.00" xmlns="http://www.w3.org/2000/svg" xmlns:xlink="http://www.w3.org/1999/xlink">
<g id="graph0" class="graph" transform="scale(1 1) rotate(0) translate(4 256)">
<title>G</title>
<polygon fill="white" stroke="transparent" points="-4,4 -4,-256 2146.76,-256 2146.76,4 -4,4"/>
<!-- INTF&#45;IF_BALI_MESSAGE_SETTER -->
<g id="node1" class="node">
<title>INTF&#45;IF_BALI_MESSAGE_SETTER</title>
<polygon fill="none" stroke="green" points="999.12,-252 765.08,-252 765.08,-216 999.12,-216 999.12,-252"/>
<text text-anchor="middle" x="882.1" y="-229.8" font-family="Times,serif" font-size="14.00">INTF&#45;IF_BALI_MESSAGE_SETTER</text>
</g>
<!-- INTF&#45;IF_BALI_ITEM_SETTER -->
<g id="node2" class="node">
<title>INTF&#45;IF_BALI_ITEM_SETTER</title>
<g id="a_node2"><a xlink:href="./INTF_IF_BALI_ITEM_SETTER.html" xlink:title="INTF&#45;IF_BALI_ITEM_SETTER">
<polygon fill="none" stroke="green" points="1979,-180 1775.2,-180 1775.2,-144 1979,-144 1979,-180"/>
<text text-anchor="middle" x="1877.1" y="-157.8" font-family="Times,serif" font-size="14.00">INTF&#45;IF_BALI_ITEM_SETTER</text>
</a>
</g>
</g>
<!-- INTF&#45;IF_BALI_MESSAGE_SETTER&#45;&gt;INTF&#45;IF_BALI_ITEM_SETTER -->
<g id="edge5" class="edge">
<title>INTF&#45;IF_BALI_MESSAGE_SETTER&#45;&gt;INTF&#45;IF_BALI_ITEM_SETTER</title>
<path fill="none" stroke="black" d="M999.17,-224.76C1192.33,-211.17 1575.3,-184.23 1765.09,-170.88"/>
<polygon fill="black" stroke="black" points="1765.36,-174.37 1775.09,-170.18 1764.87,-167.39 1765.36,-174.37"/>
</g>
<!-- TABL&#45;BAPIRET2 -->
<g id="node9" class="node">
<title>TABL&#45;BAPIRET2</title>
<g id="a_node9"><a xlink:href="./TABL_BAPIRET2.html" xlink:title="TABL&#45;BAPIRET2">
<polygon fill="none" stroke="green" points="943.14,-180 821.06,-180 821.06,-144 943.14,-144 943.14,-180"/>
<text text-anchor="middle" x="882.1" y="-157.8" font-family="Times,serif" font-size="14.00">TABL&#45;BAPIRET2</text>
</a>
</g>
</g>
<!-- INTF&#45;IF_BALI_MESSAGE_SETTER&#45;&gt;TABL&#45;BAPIRET2 -->
<g id="edge4" class="edge">
<title>INTF&#45;IF_BALI_MESSAGE_SETTER&#45;&gt;TABL&#45;BAPIRET2</title>
<path fill="none" stroke="black" d="M882.1,-215.7C882.1,-207.98 882.1,-198.71 882.1,-190.11"/>
<polygon fill="black" stroke="black" points="885.6,-190.1 882.1,-180.1 878.6,-190.1 885.6,-190.1"/>
</g>
<!-- DTEL&#45;SYST_MSGV -->
<g id="node31" class="node">
<title>DTEL&#45;SYST_MSGV</title>
<g id="a_node31"><a xlink:href="./DTEL_SYST_MSGV.html" xlink:title="DTEL&#45;SYST_MSGV">
<polygon fill="none" stroke="yellow" points="240.19,-180 102.01,-180 102.01,-144 240.19,-144 240.19,-180"/>
<text text-anchor="middle" x="171.1" y="-157.8" font-family="Times,serif" font-size="14.00">DTEL&#45;SYST_MSGV</text>
</a>
</g>
</g>
<!-- INTF&#45;IF_BALI_MESSAGE_SETTER&#45;&gt;DTEL&#45;SYST_MSGV -->
<g id="edge3" class="edge">
<title>INTF&#45;IF_BALI_MESSAGE_SETTER&#45;&gt;DTEL&#45;SYST_MSGV</title>
<path fill="none" stroke="black" d="M764.69,-221.44C619.29,-207.13 375.56,-183.13 250.46,-170.81"/>
<polygon fill="black" stroke="black" points="250.49,-167.3 240.19,-169.8 249.8,-174.27 250.49,-167.3"/>
</g>
<!-- DTEL&#45;SYST_MSGNO -->
<g id="node32" class="node">
<title>DTEL&#45;SYST_MSGNO</title>
<g id="a_node32"><a xlink:href="./DTEL_SYST_MSGNO.html" xlink:title="DTEL&#45;SYST_MSGNO">
<polygon fill="none" stroke="yellow" points="671.3,-180 522.9,-180 522.9,-144 671.3,-144 671.3,-180"/>
<text text-anchor="middle" x="597.1" y="-157.8" font-family="Times,serif" font-size="14.00">DTEL&#45;SYST_MSGNO</text>
</a>
</g>
</g>
<!-- INTF&#45;IF_BALI_MESSAGE_SETTER&#45;&gt;DTEL&#45;SYST_MSGNO -->
<g id="edge2" class="edge">
<title>INTF&#45;IF_BALI_MESSAGE_SETTER&#45;&gt;DTEL&#45;SYST_MSGNO</title>
<path fill="none" stroke="black" d="M812.75,-215.97C771.63,-205.87 719.36,-193.03 676.58,-182.52"/>
<polygon fill="black" stroke="black" points="677.31,-179.1 666.77,-180.11 675.64,-185.9 677.31,-179.1"/>
</g>
<!-- DTEL&#45;SYST_MSGID -->
<g id="node33" class="node">
<title>DTEL&#45;SYST_MSGID</title>
<g id="a_node33"><a xlink:href="./DTEL_SYST_MSGID.html" xlink:title="DTEL&#45;SYST_MSGID">
<polygon fill="none" stroke="yellow" points="1467.35,-180 1324.85,-180 1324.85,-144 1467.35,-144 1467.35,-180"/>
<text text-anchor="middle" x="1396.1" y="-157.8" font-family="Times,serif" font-size="14.00">DTEL&#45;SYST_MSGID</text>
</a>
</g>
</g>
<!-- INTF&#45;IF_BALI_MESSAGE_SETTER&#45;&gt;DTEL&#45;SYST_MSGID -->
<g id="edge1" class="edge">
<title>INTF&#45;IF_BALI_MESSAGE_SETTER&#45;&gt;DTEL&#45;SYST_MSGID</title>
<path fill="none" stroke="black" d="M999.38,-217.03C1095.61,-203.92 1229.4,-185.7 1314.37,-174.13"/>
<polygon fill="black" stroke="black" points="1315.05,-177.57 1324.49,-172.75 1314.1,-170.63 1315.05,-177.57"/>
</g>
<!-- DTEL&#45;SYMSGTY -->
<g id="node3" class="node">
<title>DTEL&#45;SYMSGTY</title>
<g id="a_node3"><a xlink:href="./DTEL_SYMSGTY.html" xlink:title="DTEL&#45;SYMSGTY">
<polygon fill="none" stroke="green" points="1866.91,-108 1743.29,-108 1743.29,-72 1866.91,-72 1866.91,-108"/>
<text text-anchor="middle" x="1805.1" y="-85.8" font-family="Times,serif" font-size="14.00">DTEL&#45;SYMSGTY</text>
</a>
</g>
</g>
<!-- INTF&#45;IF_BALI_ITEM_SETTER&#45;&gt;DTEL&#45;SYMSGTY -->
<g id="edge8" class="edge">
<title>INTF&#45;IF_BALI_ITEM_SETTER&#45;&gt;DTEL&#45;SYMSGTY</title>
<path fill="none" stroke="black" d="M1859.3,-143.7C1850.5,-135.14 1839.72,-124.66 1830.1,-115.3"/>
<polygon fill="black" stroke="black" points="1832.3,-112.57 1822.69,-108.1 1827.42,-117.58 1832.3,-112.57"/>
</g>
<!-- DTEL&#45;BALLEVEL -->
<g id="node5" class="node">
<title>DTEL&#45;BALLEVEL</title>
<g id="a_node5"><a xlink:href="./DTEL_BALLEVEL.html" xlink:title="DTEL&#45;BALLEVEL">
<polygon fill="none" stroke="green" points="2013.34,-108 1884.86,-108 1884.86,-72 2013.34,-72 2013.34,-108"/>
<text text-anchor="middle" x="1949.1" y="-85.8" font-family="Times,serif" font-size="14.00">DTEL&#45;BALLEVEL</text>
</a>
</g>
</g>
<!-- INTF&#45;IF_BALI_ITEM_SETTER&#45;&gt;DTEL&#45;BALLEVEL -->
<g id="edge7" class="edge">
<title>INTF&#45;IF_BALI_ITEM_SETTER&#45;&gt;DTEL&#45;BALLEVEL</title>
<path fill="none" stroke="black" d="M1894.9,-143.7C1903.7,-135.14 1914.48,-124.66 1924.1,-115.3"/>
<polygon fill="black" stroke="black" points="1926.78,-117.58 1931.51,-108.1 1921.9,-112.57 1926.78,-117.58"/>
</g>
<!-- DTEL&#45;CHAR1 -->
<g id="node7" class="node">
<title>DTEL&#45;CHAR1</title>
<g id="a_node7"><a xlink:href="./DTEL_CHAR1.html" xlink:title="DTEL&#45;CHAR1">
<polygon fill="none" stroke="yellow" points="2137.41,-108 2034.79,-108 2034.79,-72 2137.41,-72 2137.41,-108"/>
<text text-anchor="middle" x="2086.1" y="-85.8" font-family="Times,serif" font-size="14.00">DTEL&#45;CHAR1</text>
</a>
</g>
</g>
<!-- INTF&#45;IF_BALI_ITEM_SETTER&#45;&gt;DTEL&#45;CHAR1 -->
<g id="edge6" class="edge">
<title>INTF&#45;IF_BALI_ITEM_SETTER&#45;&gt;DTEL&#45;CHAR1</title>
<path fill="none" stroke="black" d="M1927.96,-143.97C1957.29,-134.14 1994.35,-121.73 2025.22,-111.39"/>
<polygon fill="black" stroke="black" points="2026.64,-114.61 2035.01,-108.11 2024.42,-107.97 2026.64,-114.61"/>
</g>
<!-- DOMA&#45;SYCHAR01 -->
<g id="node4" class="node">
<title>DOMA&#45;SYCHAR01</title>
<g id="a_node4"><a xlink:href="./DOMA_SYCHAR01.html" xlink:title="DOMA&#45;SYCHAR01">
<polygon fill="none" stroke="yellow" points="1772.3,-36 1637.9,-36 1637.9,0 1772.3,0 1772.3,-36"/>
<text text-anchor="middle" x="1705.1" y="-13.8" font-family="Times,serif" font-size="14.00">DOMA&#45;SYCHAR01</text>
</a>
</g>
</g>
<!-- DTEL&#45;SYMSGTY&#45;&gt;DOMA&#45;SYCHAR01 -->
<g id="edge9" class="edge">
<title>DTEL&#45;SYMSGTY&#45;&gt;DOMA&#45;SYCHAR01</title>
<path fill="none" stroke="black" d="M1780.64,-71.88C1767.8,-62.89 1751.9,-51.76 1738.01,-42.03"/>
<polygon fill="black" stroke="black" points="1739.86,-39.06 1729.66,-36.19 1735.84,-44.79 1739.86,-39.06"/>
</g>
<!-- DOMA&#45;BALLEVEL -->
<g id="node6" class="node">
<title>DOMA&#45;BALLEVEL</title>
<g id="a_node6"><a xlink:href="./DOMA_BALLEVEL.html" xlink:title="DOMA&#45;BALLEVEL">
<polygon fill="none" stroke="yellow" points="2014.84,-36 1879.36,-36 1879.36,0 2014.84,0 2014.84,-36"/>
<text text-anchor="middle" x="1947.1" y="-13.8" font-family="Times,serif" font-size="14.00">DOMA&#45;BALLEVEL</text>
</a>
</g>
</g>
<!-- DTEL&#45;BALLEVEL&#45;&gt;DOMA&#45;BALLEVEL -->
<g id="edge10" class="edge">
<title>DTEL&#45;BALLEVEL&#45;&gt;DOMA&#45;BALLEVEL</title>
<path fill="none" stroke="black" d="M1948.61,-71.7C1948.39,-63.98 1948.12,-54.71 1947.87,-46.11"/>
<polygon fill="black" stroke="black" points="1951.37,-46 1947.59,-36.1 1944.38,-46.2 1951.37,-46"/>
</g>
<!-- DOMA&#45;CHAR1 -->
<g id="node8" class="node">
<title>DOMA&#45;CHAR1</title>
<g id="a_node8"><a xlink:href="./DOMA_CHAR1.html" xlink:title="DOMA&#45;CHAR1">
<polygon fill="none" stroke="green" points="2142.91,-36 2033.29,-36 2033.29,0 2142.91,0 2142.91,-36"/>
<text text-anchor="middle" x="2088.1" y="-13.8" font-family="Times,serif" font-size="14.00">DOMA&#45;CHAR1</text>
</a>
</g>
</g>
<!-- DTEL&#45;CHAR1&#45;&gt;DOMA&#45;CHAR1 -->
<g id="edge11" class="edge">
<title>DTEL&#45;CHAR1&#45;&gt;DOMA&#45;CHAR1</title>
<path fill="none" stroke="black" d="M2086.59,-71.7C2086.82,-63.98 2087.08,-54.71 2087.33,-46.11"/>
<polygon fill="black" stroke="black" points="2090.82,-46.2 2087.61,-36.1 2083.83,-46 2090.82,-46.2"/>
</g>
<!-- DTEL&#45;BAPILOGSYS -->
<g id="node10" class="node">
<title>DTEL&#45;BAPILOGSYS</title>
<g id="a_node10"><a xlink:href="./DTEL_BAPILOGSYS.html" xlink:title="DTEL&#45;BAPILOGSYS">
<polygon fill="none" stroke="green" points="1105.35,-108 962.85,-108 962.85,-72 1105.35,-72 1105.35,-108"/>
<text text-anchor="middle" x="1034.1" y="-85.8" font-family="Times,serif" font-size="14.00">DTEL&#45;BAPILOGSYS</text>
</a>
</g>
</g>
<!-- TABL&#45;BAPIRET2&#45;&gt;DTEL&#45;BAPILOGSYS -->
<g id="edge22" class="edge">
<title>TABL&#45;BAPIRET2&#45;&gt;DTEL&#45;BAPILOGSYS</title>
<path fill="none" stroke="black" d="M919.28,-143.88C939.97,-134.35 965.9,-122.41 987.89,-112.28"/>
<polygon fill="black" stroke="black" points="989.42,-115.43 997.04,-108.07 986.49,-109.07 989.42,-115.43"/>
</g>
<!-- DTEL&#45;BAPI_FLD -->
<g id="node12" class="node">
<title>DTEL&#45;BAPI_FLD</title>
<g id="a_node12"><a xlink:href="./DTEL_BAPI_FLD.html" xlink:title="DTEL&#45;BAPI_FLD">
<polygon fill="none" stroke="green" points="1244.85,-108 1123.35,-108 1123.35,-72 1244.85,-72 1244.85,-108"/>
<text text-anchor="middle" x="1184.1" y="-85.8" font-family="Times,serif" font-size="14.00">DTEL&#45;BAPI_FLD</text>
</a>
</g>
</g>
<!-- TABL&#45;BAPIRET2&#45;&gt;DTEL&#45;BAPI_FLD -->
<g id="edge21" class="edge">
<title>TABL&#45;BAPIRET2&#45;&gt;DTEL&#45;BAPI_FLD</title>
<path fill="none" stroke="black" d="M943.21,-147.28C987.74,-137.23 1049.78,-123.11 1113.25,-108.19"/>
<polygon fill="black" stroke="black" points="1114.1,-111.58 1123.03,-105.88 1112.49,-104.77 1114.1,-111.58"/>
</g>
<!-- DTEL&#45;BAPI_LINE -->
<g id="node14" class="node">
<title>DTEL&#45;BAPI_LINE</title>
<g id="a_node14"><a xlink:href="./DTEL_BAPI_LINE.html" xlink:title="DTEL&#45;BAPI_LINE">
<polygon fill="none" stroke="green" points="1389.78,-108 1262.42,-108 1262.42,-72 1389.78,-72 1389.78,-108"/>
<text text-anchor="middle" x="1326.1" y="-85.8" font-family="Times,serif" font-size="14.00">DTEL&#45;BAPI_LINE</text>
</a>
</g>
</g>
<!-- TABL&#45;BAPIRET2&#45;&gt;DTEL&#45;BAPI_LINE -->
<g id="edge20" class="edge">
<title>TABL&#45;BAPIRET2&#45;&gt;DTEL&#45;BAPI_LINE</title>
<path fill="none" stroke="black" d="M943.27,-154C1015.12,-145.4 1138.08,-129.49 1252.22,-108.28"/>
<polygon fill="black" stroke="black" points="1252.99,-111.69 1262.17,-106.41 1251.7,-104.81 1252.99,-111.69"/>
</g>
<!-- DTEL&#45;BAPI_PARAM -->
<g id="node16" class="node">
<title>DTEL&#45;BAPI_PARAM</title>
<g id="a_node16"><a xlink:href="./DTEL_BAPI_PARAM.html" xlink:title="DTEL&#45;BAPI_PARAM">
<polygon fill="none" stroke="green" points="524.69,-108 379.51,-108 379.51,-72 524.69,-72 524.69,-108"/>
<text text-anchor="middle" x="452.1" y="-85.8" font-family="Times,serif" font-size="14.00">DTEL&#45;BAPI_PARAM</text>
</a>
</g>
</g>
<!-- TABL&#45;BAPIRET2&#45;&gt;DTEL&#45;BAPI_PARAM -->
<g id="edge19" class="edge">
<title>TABL&#45;BAPIRET2&#45;&gt;DTEL&#45;BAPI_PARAM</title>
<path fill="none" stroke="black" d="M820.96,-152.69C753.44,-143.29 641.3,-127.02 534.89,-108.09"/>
<polygon fill="black" stroke="black" points="535.4,-104.63 524.94,-106.31 534.17,-111.52 535.4,-104.63"/>
</g>
<!-- DTEL&#45;SYMSGV -->
<g id="node18" class="node">
<title>DTEL&#45;SYMSGV</title>
<g id="a_node18"><a xlink:href="./DTEL_SYMSGV.html" xlink:title="DTEL&#45;SYMSGV">
<polygon fill="none" stroke="green" points="218.36,-108 103.85,-108 103.85,-72 218.36,-72 218.36,-108"/>
<text text-anchor="middle" x="161.1" y="-85.8" font-family="Times,serif" font-size="14.00">DTEL&#45;SYMSGV</text>
</a>
</g>
</g>
<!-- TABL&#45;BAPIRET2&#45;&gt;DTEL&#45;SYMSGV -->
<g id="edge18" class="edge">
<title>TABL&#45;BAPIRET2&#45;&gt;DTEL&#45;SYMSGV</title>
<path fill="none" stroke="black" d="M820.67,-155.76C780.64,-152.36 727.28,-147.86 680.1,-144 482.48,-127.81 428.65,-140.48 228.66,-107.91"/>
<polygon fill="black" stroke="black" points="229.15,-104.45 218.71,-106.28 228.01,-111.35 229.15,-104.45"/>
</g>
<!-- DTEL&#45;BALMNR -->
<g id="node20" class="node">
<title>DTEL&#45;BALMNR</title>
<g id="a_node20"><a xlink:href="./DTEL_BALMNR.html" xlink:title="DTEL&#45;BALMNR">
<polygon fill="none" stroke="green" points="659.41,-108 542.79,-108 542.79,-72 659.41,-72 659.41,-108"/>
<text text-anchor="middle" x="601.1" y="-85.8" font-family="Times,serif" font-size="14.00">DTEL&#45;BALMNR</text>
</a>
</g>
</g>
<!-- TABL&#45;BAPIRET2&#45;&gt;DTEL&#45;BALMNR -->
<g id="edge17" class="edge">
<title>TABL&#45;BAPIRET2&#45;&gt;DTEL&#45;BALMNR</title>
<path fill="none" stroke="black" d="M820.73,-145.9C780.28,-135.92 725.86,-122.46 669.38,-108.32"/>
<polygon fill="black" stroke="black" points="670.11,-104.89 659.56,-105.85 668.41,-111.68 670.11,-104.89"/>
</g>
<!-- DTEL&#45;BALOGNR -->
<g id="node22" class="node">
<title>DTEL&#45;BALOGNR</title>
<g id="a_node22"><a xlink:href="./DTEL_BALOGNR.html" xlink:title="DTEL&#45;BALOGNR">
<polygon fill="none" stroke="green" points="801.18,-108 677.02,-108 677.02,-72 801.18,-72 801.18,-108"/>
<text text-anchor="middle" x="739.1" y="-85.8" font-family="Times,serif" font-size="14.00">DTEL&#45;BALOGNR</text>
</a>
</g>
</g>
<!-- TABL&#45;BAPIRET2&#45;&gt;DTEL&#45;BALOGNR -->
<g id="edge16" class="edge">
<title>TABL&#45;BAPIRET2&#45;&gt;DTEL&#45;BALOGNR</title>
<path fill="none" stroke="black" d="M847.12,-143.88C827.9,-134.47 803.87,-122.71 783.36,-112.67"/>
<polygon fill="black" stroke="black" points="784.74,-109.44 774.22,-108.19 781.66,-115.73 784.74,-109.44"/>
</g>
<!-- DTEL&#45;BAPI_MSG -->
<g id="node24" class="node">
<title>DTEL&#45;BAPI_MSG</title>
<g id="a_node24"><a xlink:href="./DTEL_BAPI_MSG.html" xlink:title="DTEL&#45;BAPI_MSG">
<polygon fill="none" stroke="green" points="944.75,-108 819.45,-108 819.45,-72 944.75,-72 944.75,-108"/>
<text text-anchor="middle" x="882.1" y="-85.8" font-family="Times,serif" font-size="14.00">DTEL&#45;BAPI_MSG</text>
</a>
</g>
</g>
<!-- TABL&#45;BAPIRET2&#45;&gt;DTEL&#45;BAPI_MSG -->
<g id="edge15" class="edge">
<title>TABL&#45;BAPIRET2&#45;&gt;DTEL&#45;BAPI_MSG</title>
<path fill="none" stroke="black" d="M882.1,-143.7C882.1,-135.98 882.1,-126.71 882.1,-118.11"/>
<polygon fill="black" stroke="black" points="885.6,-118.1 882.1,-108.1 878.6,-118.1 885.6,-118.1"/>
</g>
<!-- DTEL&#45;SYMSGNO -->
<g id="node26" class="node">
<title>DTEL&#45;SYMSGNO</title>
<g id="a_node26"><a xlink:href="./DTEL_SYMSGNO.html" xlink:title="DTEL&#45;SYMSGNO">
<polygon fill="none" stroke="green" points="361.46,-108 236.74,-108 236.74,-72 361.46,-72 361.46,-108"/>
<text text-anchor="middle" x="299.1" y="-85.8" font-family="Times,serif" font-size="14.00">DTEL&#45;SYMSGNO</text>
</a>
</g>
</g>
<!-- TABL&#45;BAPIRET2&#45;&gt;DTEL&#45;SYMSGNO -->
<g id="edge14" class="edge">
<title>TABL&#45;BAPIRET2&#45;&gt;DTEL&#45;SYMSGNO</title>
<path fill="none" stroke="black" d="M820.69,-155.67C708.21,-145.74 472.19,-124.1 371.86,-108.14"/>
<polygon fill="black" stroke="black" points="372.16,-104.64 361.73,-106.47 371.02,-111.55 372.16,-104.64"/>
</g>
<!-- DTEL&#45;SYMSGID -->
<g id="node28" class="node">
<title>DTEL&#45;SYMSGID</title>
<g id="a_node28"><a xlink:href="./DTEL_SYMSGID.html" xlink:title="DTEL&#45;SYMSGID">
<polygon fill="none" stroke="green" points="1527.02,-108 1407.18,-108 1407.18,-72 1527.02,-72 1527.02,-108"/>
<text text-anchor="middle" x="1467.1" y="-85.8" font-family="Times,serif" font-size="14.00">DTEL&#45;SYMSGID</text>
</a>
</g>
</g>
<!-- TABL&#45;BAPIRET2&#45;&gt;DTEL&#45;SYMSGID -->
<g id="edge13" class="edge">
<title>TABL&#45;BAPIRET2&#45;&gt;DTEL&#45;SYMSGID</title>
<path fill="none" stroke="black" d="M943.37,-157.56C1038.67,-151.59 1228.21,-137.21 1397.06,-108.23"/>
<polygon fill="black" stroke="black" points="1397.88,-111.65 1407.13,-106.49 1396.68,-104.75 1397.88,-111.65"/>
</g>
<!-- DTEL&#45;BAPI_MTYPE -->
<g id="node30" class="node">
<title>DTEL&#45;BAPI_MTYPE</title>
<g id="a_node30"><a xlink:href="./DTEL_BAPI_MTYPE.html" xlink:title="DTEL&#45;BAPI_MTYPE">
<polygon fill="none" stroke="green" points="1687.35,-108 1544.85,-108 1544.85,-72 1687.35,-72 1687.35,-108"/>
<text text-anchor="middle" x="1616.1" y="-85.8" font-family="Times,serif" font-size="14.00">DTEL&#45;BAPI_MTYPE</text>
</a>
</g>
</g>
<!-- TABL&#45;BAPIRET2&#45;&gt;DTEL&#45;BAPI_MTYPE -->
<g id="edge12" class="edge">
<title>TABL&#45;BAPIRET2&#45;&gt;DTEL&#45;BAPI_MTYPE</title>
<path fill="none" stroke="black" d="M943.26,-158.67C1057.64,-153.74 1311.81,-140.08 1534.73,-108.1"/>
<polygon fill="black" stroke="black" points="1535.26,-111.56 1544.65,-106.66 1534.25,-104.63 1535.26,-111.56"/>
</g>
<!-- DOMA&#45;LOGSYS -->
<g id="node11" class="node">
<title>DOMA&#45;LOGSYS</title>
<g id="a_node11"><a xlink:href="./DOMA_LOGSYS.html" xlink:title="DOMA&#45;LOGSYS">
<polygon fill="none" stroke="yellow" points="1092.96,-36 975.24,-36 975.24,0 1092.96,0 1092.96,-36"/>
<text text-anchor="middle" x="1034.1" y="-13.8" font-family="Times,serif" font-size="14.00">DOMA&#45;LOGSYS</text>
</a>
</g>
</g>
<!-- DTEL&#45;BAPILOGSYS&#45;&gt;DOMA&#45;LOGSYS -->
<g id="edge23" class="edge">
<title>DTEL&#45;BAPILOGSYS&#45;&gt;DOMA&#45;LOGSYS</title>
<path fill="none" stroke="black" d="M1034.1,-71.7C1034.1,-63.98 1034.1,-54.71 1034.1,-46.11"/>
<polygon fill="black" stroke="black" points="1037.6,-46.1 1034.1,-36.1 1030.6,-46.1 1037.6,-46.1"/>
</g>
<!-- DOMA&#45;FDNAME -->
<g id="node13" class="node">
<title>DOMA&#45;FDNAME</title>
<g id="a_node13"><a xlink:href="./DOMA_FDNAME.html" xlink:title="DOMA&#45;FDNAME">
<polygon fill="none" stroke="yellow" points="1245.13,-36 1123.07,-36 1123.07,0 1245.13,0 1245.13,-36"/>
<text text-anchor="middle" x="1184.1" y="-13.8" font-family="Times,serif" font-size="14.00">DOMA&#45;FDNAME</text>
</a>
</g>
</g>
<!-- DTEL&#45;BAPI_FLD&#45;&gt;DOMA&#45;FDNAME -->
<g id="edge24" class="edge">
<title>DTEL&#45;BAPI_FLD&#45;&gt;DOMA&#45;FDNAME</title>
<path fill="none" stroke="black" d="M1184.1,-71.7C1184.1,-63.98 1184.1,-54.71 1184.1,-46.11"/>
<polygon fill="black" stroke="black" points="1187.6,-46.1 1184.1,-36.1 1180.6,-46.1 1187.6,-46.1"/>
</g>
<!-- DOMA&#45;INT4 -->
<g id="node15" class="node">
<title>DOMA&#45;INT4</title>
<g id="a_node15"><a xlink:href="./DOMA_INT4.html" xlink:title="DOMA&#45;INT4">
<polygon fill="none" stroke="yellow" points="1372.85,-36 1279.36,-36 1279.36,0 1372.85,0 1372.85,-36"/>
<text text-anchor="middle" x="1326.1" y="-13.8" font-family="Times,serif" font-size="14.00">DOMA&#45;INT4</text>
</a>
</g>
</g>
<!-- DTEL&#45;BAPI_LINE&#45;&gt;DOMA&#45;INT4 -->
<g id="edge25" class="edge">
<title>DTEL&#45;BAPI_LINE&#45;&gt;DOMA&#45;INT4</title>
<path fill="none" stroke="black" d="M1326.1,-71.7C1326.1,-63.98 1326.1,-54.71 1326.1,-46.11"/>
<polygon fill="black" stroke="black" points="1329.6,-46.1 1326.1,-36.1 1322.6,-46.1 1329.6,-46.1"/>
</g>
<!-- DOMA&#45;SWC_ELEM -->
<g id="node17" class="node">
<title>DOMA&#45;SWC_ELEM</title>
<g id="a_node17"><a xlink:href="./DOMA_SWC_ELEM.html" xlink:title="DOMA&#45;SWC_ELEM">
<polygon fill="none" stroke="yellow" points="517.46,-36 378.74,-36 378.74,0 517.46,0 517.46,-36"/>
<text text-anchor="middle" x="448.1" y="-13.8" font-family="Times,serif" font-size="14.00">DOMA&#45;SWC_ELEM</text>
</a>
</g>
</g>
<!-- DTEL&#45;BAPI_PARAM&#45;&gt;DOMA&#45;SWC_ELEM -->
<g id="edge26" class="edge">
<title>DTEL&#45;BAPI_PARAM&#45;&gt;DOMA&#45;SWC_ELEM</title>
<path fill="none" stroke="black" d="M451.11,-71.7C450.67,-63.98 450.14,-54.71 449.65,-46.11"/>
<polygon fill="black" stroke="black" points="453.14,-45.89 449.08,-36.1 446.15,-46.29 453.14,-45.89"/>
</g>
<!-- DOMA&#45;SYCHAR50 -->
<g id="node19" class="node">
<title>DOMA&#45;SYCHAR50</title>
<g id="a_node19"><a xlink:href="./DOMA_SYCHAR50.html" xlink:title="DOMA&#45;SYCHAR50">
<polygon fill="none" stroke="yellow" points="134.3,-36 -0.1,-36 -0.1,0 134.3,0 134.3,-36"/>
<text text-anchor="middle" x="67.1" y="-13.8" font-family="Times,serif" font-size="14.00">DOMA&#45;SYCHAR50</text>
</a>
</g>
</g>
<!-- DTEL&#45;SYMSGV&#45;&gt;DOMA&#45;SYCHAR50 -->
<g id="edge27" class="edge">
<title>DTEL&#45;SYMSGV&#45;&gt;DOMA&#45;SYCHAR50</title>
<path fill="none" stroke="black" d="M137.86,-71.7C125.91,-62.8 111.18,-51.82 98.25,-42.2"/>
<polygon fill="black" stroke="black" points="100.18,-39.27 90.07,-36.1 96,-44.88 100.18,-39.27"/>
</g>
<!-- DOMA&#45;BALMNR -->
<g id="node21" class="node">
<title>DOMA&#45;BALMNR</title>
<g id="a_node21"><a xlink:href="./DOMA_BALMNR.html" xlink:title="DOMA&#45;BALMNR">
<polygon fill="none" stroke="yellow" points="658.91,-36 535.29,-36 535.29,0 658.91,0 658.91,-36"/>
<text text-anchor="middle" x="597.1" y="-13.8" font-family="Times,serif" font-size="14.00">DOMA&#45;BALMNR</text>
</a>
</g>
</g>
<!-- DTEL&#45;BALMNR&#45;&gt;DOMA&#45;BALMNR -->
<g id="edge28" class="edge">
<title>DTEL&#45;BALMNR&#45;&gt;DOMA&#45;BALMNR</title>
<path fill="none" stroke="black" d="M600.11,-71.7C599.67,-63.98 599.14,-54.71 598.65,-46.11"/>
<polygon fill="black" stroke="black" points="602.14,-45.89 598.08,-36.1 595.15,-46.29 602.14,-45.89"/>
</g>
<!-- DOMA&#45;BALOGNR -->
<g id="node23" class="node">
<title>DOMA&#45;BALOGNR</title>
<g id="a_node23"><a xlink:href="./DOMA_BALOGNR.html" xlink:title="DOMA&#45;BALOGNR">
<polygon fill="none" stroke="yellow" points="807.68,-36 676.52,-36 676.52,0 807.68,0 807.68,-36"/>
<text text-anchor="middle" x="742.1" y="-13.8" font-family="Times,serif" font-size="14.00">DOMA&#45;BALOGNR</text>
</a>
</g>
</g>
<!-- DTEL&#45;BALOGNR&#45;&gt;DOMA&#45;BALOGNR -->
<g id="edge29" class="edge">
<title>DTEL&#45;BALOGNR&#45;&gt;DOMA&#45;BALOGNR</title>
<path fill="none" stroke="black" d="M739.84,-71.7C740.17,-63.98 740.57,-54.71 740.94,-46.11"/>
<polygon fill="black" stroke="black" points="744.44,-46.25 741.37,-36.1 737.44,-45.95 744.44,-46.25"/>
</g>
<!-- DOMA&#45;TEXT220 -->
<g id="node25" class="node">
<title>DOMA&#45;TEXT220</title>
<g id="a_node25"><a xlink:href="./DOMA_TEXT220.html" xlink:title="DOMA&#45;TEXT220">
<polygon fill="none" stroke="yellow" points="946.29,-36 825.91,-36 825.91,0 946.29,0 946.29,-36"/>
<text text-anchor="middle" x="886.1" y="-13.8" font-family="Times,serif" font-size="14.00">DOMA&#45;TEXT220</text>
</a>
</g>
</g>
<!-- DTEL&#45;BAPI_MSG&#45;&gt;DOMA&#45;TEXT220 -->
<g id="edge30" class="edge">
<title>DTEL&#45;BAPI_MSG&#45;&gt;DOMA&#45;TEXT220</title>
<path fill="none" stroke="black" d="M883.09,-71.7C883.53,-63.98 884.06,-54.71 884.55,-46.11"/>
<polygon fill="black" stroke="black" points="888.05,-46.29 885.12,-36.1 881.06,-45.89 888.05,-46.29"/>
</g>
<!-- DOMA&#45;SYMSGNO -->
<g id="node27" class="node">
<title>DOMA&#45;SYMSGNO</title>
<g id="a_node27"><a xlink:href="./DOMA_SYMSGNO.html" xlink:title="DOMA&#45;SYMSGNO">
<polygon fill="none" stroke="yellow" points="334.96,-36 203.24,-36 203.24,0 334.96,0 334.96,-36"/>
<text text-anchor="middle" x="269.1" y="-13.8" font-family="Times,serif" font-size="14.00">DOMA&#45;SYMSGNO</text>
</a>
</g>
</g>
<!-- DTEL&#45;SYMSGNO&#45;&gt;DOMA&#45;SYMSGNO -->
<g id="edge31" class="edge">
<title>DTEL&#45;SYMSGNO&#45;&gt;DOMA&#45;SYMSGNO</title>
<path fill="none" stroke="black" d="M291.68,-71.7C288.31,-63.81 284.23,-54.3 280.48,-45.55"/>
<polygon fill="black" stroke="black" points="283.59,-43.92 276.43,-36.1 277.15,-46.67 283.59,-43.92"/>
</g>
<!-- DOMA&#45;ARBGB -->
<g id="node29" class="node">
<title>DOMA&#45;ARBGB</title>
<g id="a_node29"><a xlink:href="./DOMA_ARBGB.html" xlink:title="DOMA&#45;ARBGB">
<polygon fill="none" stroke="yellow" points="1570.75,-36 1459.45,-36 1459.45,0 1570.75,0 1570.75,-36"/>
<text text-anchor="middle" x="1515.1" y="-13.8" font-family="Times,serif" font-size="14.00">DOMA&#45;ARBGB</text>
</a>
</g>
</g>
<!-- DTEL&#45;SYMSGID&#45;&gt;DOMA&#45;ARBGB -->
<g id="edge32" class="edge">
<title>DTEL&#45;SYMSGID&#45;&gt;DOMA&#45;ARBGB</title>
<path fill="none" stroke="black" d="M1478.97,-71.7C1484.6,-63.47 1491.45,-53.48 1497.67,-44.42"/>
<polygon fill="black" stroke="black" points="1500.6,-46.33 1503.37,-36.1 1494.83,-42.37 1500.6,-46.33"/>
</g>
<!-- DTEL&#45;BAPI_MTYPE&#45;&gt;DOMA&#45;SYCHAR01 -->
<g id="edge33" class="edge">
<title>DTEL&#45;BAPI_MTYPE&#45;&gt;DOMA&#45;SYCHAR01</title>
<path fill="none" stroke="black" d="M1638.1,-71.7C1649.31,-62.88 1663.1,-52.03 1675.25,-42.47"/>
<polygon fill="black" stroke="black" points="1677.66,-45.04 1683.35,-36.1 1673.33,-39.54 1677.66,-45.04"/>
</g>
<!-- DTEL&#45;SYST_MSGV&#45;&gt;DOMA&#45;SYCHAR50 -->
<g id="edge34" class="edge">
<title>DTEL&#45;SYST_MSGV&#45;&gt;DOMA&#45;SYCHAR50</title>
<path fill="none" stroke="black" d="M107.14,-143.95C89.52,-136 72.42,-124.5 62.1,-108 50.6,-89.62 53.18,-64.72 57.88,-45.92"/>
<polygon fill="black" stroke="black" points="61.28,-46.77 60.63,-36.19 54.54,-44.86 61.28,-46.77"/>
</g>
<!-- DTEL&#45;SYST_MSGNO&#45;&gt;DOMA&#45;SYMSGNO -->
<g id="edge35" class="edge">
<title>DTEL&#45;SYST_MSGNO&#45;&gt;DOMA&#45;SYMSGNO</title>
<path fill="none" stroke="black" d="M522.9,-158.54C390.15,-153.37 123.17,-139.19 95.1,-108 59.82,-68.8 131.53,-44.39 193.31,-31.26"/>
<polygon fill="black" stroke="black" points="194.03,-34.69 203.12,-29.25 192.62,-27.83 194.03,-34.69"/>
</g>
<!-- DTEL&#45;SYST_MSGID&#45;&gt;DOMA&#45;ARBGB -->
<g id="edge36" class="edge">
<title>DTEL&#45;SYST_MSGID&#45;&gt;DOMA&#45;ARBGB</title>
<path fill="none" stroke="black" d="M1467.6,-158.6C1546.91,-154.26 1667.51,-142.09 1696.1,-108 1733.35,-63.6 1646.78,-39.41 1580.93,-27.86"/>
<polygon fill="black" stroke="black" points="1581.41,-24.39 1570.97,-26.18 1580.25,-31.29 1581.41,-24.39"/>
</g>
</g>
</svg>
