<?xml version="1.0" encoding="UTF-8" standalone="no"?>
<!DOCTYPE svg PUBLIC "-//W3C//DTD SVG 1.1//EN"
 "http://www.w3.org/Graphics/SVG/1.1/DTD/svg11.dtd">
<!-- Generated by graphviz version 2.47.3 (20210619.1520)
 -->
<!-- Title: G Pages: 1 -->
<svg width="1425pt" height="1124pt"
 viewBox="0.00 0.00 1425.35 1124.00" xmlns="http://www.w3.org/2000/svg" xmlns:xlink="http://www.w3.org/1999/xlink">
<g id="graph0" class="graph" transform="scale(1 1) rotate(0) translate(4 1120)">
<title>G</title>
<polygon fill="white" stroke="transparent" points="-4,4 -4,-1120 1421.35,-1120 1421.35,4 -4,4"/>
<!-- INTF&#45;IF_XCO_TRANSPORT_LAYER -->
<g id="node1" class="node">
<title>INTF&#45;IF_XCO_TRANSPORT_LAYER</title>
<polygon fill="none" stroke="green" points="462.34,-1116 219.19,-1116 219.19,-1080 462.34,-1080 462.34,-1116"/>
<text text-anchor="middle" x="340.76" y="-1093.8" font-family="Times,serif" font-size="14.00">INTF&#45;IF_XCO_TRANSPORT_LAYER</text>
</g>
<!-- INTF&#45;IF_XCO_TRANSPORT_TARGET -->
<g id="node2" class="node">
<title>INTF&#45;IF_XCO_TRANSPORT_TARGET</title>
<g id="a_node2"><a xlink:href="./INTF_IF_XCO_TRANSPORT_TARGET.html" xlink:title="INTF&#45;IF_XCO_TRANSPORT_TARGET">
<polygon fill="none" stroke="green" points="361.39,-1044 110.13,-1044 110.13,-1008 361.39,-1008 361.39,-1044"/>
<text text-anchor="middle" x="235.76" y="-1021.8" font-family="Times,serif" font-size="14.00">INTF&#45;IF_XCO_TRANSPORT_TARGET</text>
</a>
</g>
</g>
<!-- INTF&#45;IF_XCO_TRANSPORT_LAYER&#45;&gt;INTF&#45;IF_XCO_TRANSPORT_TARGET -->
<g id="edge2" class="edge">
<title>INTF&#45;IF_XCO_TRANSPORT_LAYER&#45;&gt;INTF&#45;IF_XCO_TRANSPORT_TARGET</title>
<path fill="none" stroke="black" d="M315.08,-1079.88C301.47,-1070.81 284.59,-1059.55 269.9,-1049.76"/>
<polygon fill="black" stroke="black" points="271.81,-1046.82 261.55,-1044.19 267.92,-1052.65 271.81,-1046.82"/>
</g>
<!-- DTEL&#45;DEVLAYER -->
<g id="node43" class="node">
<title>DTEL&#45;DEVLAYER</title>
<g id="a_node43"><a xlink:href="./DTEL_DEVLAYER.html" xlink:title="DTEL&#45;DEVLAYER">
<polygon fill="none" stroke="yellow" points="511.61,-1044 379.92,-1044 379.92,-1008 511.61,-1008 511.61,-1044"/>
<text text-anchor="middle" x="445.76" y="-1021.8" font-family="Times,serif" font-size="14.00">DTEL&#45;DEVLAYER</text>
</a>
</g>
</g>
<!-- INTF&#45;IF_XCO_TRANSPORT_LAYER&#45;&gt;DTEL&#45;DEVLAYER -->
<g id="edge1" class="edge">
<title>INTF&#45;IF_XCO_TRANSPORT_LAYER&#45;&gt;DTEL&#45;DEVLAYER</title>
<path fill="none" stroke="black" d="M366.45,-1079.88C380.05,-1070.81 396.93,-1059.55 411.62,-1049.76"/>
<polygon fill="black" stroke="black" points="413.6,-1052.65 419.98,-1044.19 409.71,-1046.82 413.6,-1052.65"/>
</g>
<!-- INTF&#45;IF_XCO_PRINTABLE -->
<g id="node3" class="node">
<title>INTF&#45;IF_XCO_PRINTABLE</title>
<g id="a_node3"><a xlink:href="./INTF_IF_XCO_PRINTABLE.html" xlink:title="INTF&#45;IF_XCO_PRINTABLE">
<polygon fill="none" stroke="green" points="343,-972 158.52,-972 158.52,-936 343,-936 343,-972"/>
<text text-anchor="middle" x="250.76" y="-949.8" font-family="Times,serif" font-size="14.00">INTF&#45;IF_XCO_PRINTABLE</text>
</a>
</g>
</g>
<!-- INTF&#45;IF_XCO_TRANSPORT_TARGET&#45;&gt;INTF&#45;IF_XCO_PRINTABLE -->
<g id="edge4" class="edge">
<title>INTF&#45;IF_XCO_TRANSPORT_TARGET&#45;&gt;INTF&#45;IF_XCO_PRINTABLE</title>
<path fill="none" stroke="black" d="M239.47,-1007.7C241.12,-999.98 243.11,-990.71 244.95,-982.11"/>
<polygon fill="black" stroke="black" points="248.42,-982.62 247.1,-972.1 241.58,-981.15 248.42,-982.62"/>
</g>
<!-- DTEL&#45;TR_TARGET -->
<g id="node41" class="node">
<title>DTEL&#45;TR_TARGET</title>
<g id="a_node41"><a xlink:href="./DTEL_TR_TARGET.html" xlink:title="DTEL&#45;TR_TARGET">
<polygon fill="none" stroke="yellow" points="139.78,-972 3.74,-972 3.74,-936 139.78,-936 139.78,-972"/>
<text text-anchor="middle" x="71.76" y="-949.8" font-family="Times,serif" font-size="14.00">DTEL&#45;TR_TARGET</text>
</a>
</g>
</g>
<!-- INTF&#45;IF_XCO_TRANSPORT_TARGET&#45;&gt;DTEL&#45;TR_TARGET -->
<g id="edge3" class="edge">
<title>INTF&#45;IF_XCO_TRANSPORT_TARGET&#45;&gt;DTEL&#45;TR_TARGET</title>
<path fill="none" stroke="black" d="M195.64,-1007.88C173.12,-998.26 144.84,-986.19 120.99,-976.01"/>
<polygon fill="black" stroke="black" points="122.32,-972.77 111.75,-972.07 119.57,-979.21 122.32,-972.77"/>
</g>
<!-- INTF&#45;IF_XCO_TEXT -->
<g id="node4" class="node">
<title>INTF&#45;IF_XCO_TEXT</title>
<g id="a_node4"><a xlink:href="./INTF_IF_XCO_TEXT.html" xlink:title="INTF&#45;IF_XCO_TEXT">
<polygon fill="none" stroke="green" points="806.28,-900 663.24,-900 663.24,-864 806.28,-864 806.28,-900"/>
<text text-anchor="middle" x="734.76" y="-877.8" font-family="Times,serif" font-size="14.00">INTF&#45;IF_XCO_TEXT</text>
</a>
</g>
</g>
<!-- INTF&#45;IF_XCO_PRINTABLE&#45;&gt;INTF&#45;IF_XCO_TEXT -->
<g id="edge5" class="edge">
<title>INTF&#45;IF_XCO_PRINTABLE&#45;&gt;INTF&#45;IF_XCO_TEXT</title>
<path fill="none" stroke="black" d="M343.05,-939.58C351.4,-938.37 359.74,-937.16 367.76,-936 465.73,-921.81 578.41,-905.54 652.79,-894.82"/>
<polygon fill="black" stroke="black" points="653.63,-898.23 663.03,-893.34 652.63,-891.3 653.63,-898.23"/>
</g>
<!-- INTF&#45;IF_XCO_STRINGS -->
<g id="node5" class="node">
<title>INTF&#45;IF_XCO_STRINGS</title>
<g id="a_node5"><a xlink:href="./INTF_IF_XCO_STRINGS.html" xlink:title="INTF&#45;IF_XCO_STRINGS">
<polygon fill="none" stroke="green" points="817.85,-828 651.68,-828 651.68,-792 817.85,-792 817.85,-828"/>
<text text-anchor="middle" x="734.76" y="-805.8" font-family="Times,serif" font-size="14.00">INTF&#45;IF_XCO_STRINGS</text>
</a>
</g>
</g>
<!-- INTF&#45;IF_XCO_TEXT&#45;&gt;INTF&#45;IF_XCO_STRINGS -->
<g id="edge6" class="edge">
<title>INTF&#45;IF_XCO_TEXT&#45;&gt;INTF&#45;IF_XCO_STRINGS</title>
<path fill="none" stroke="black" d="M728.85,-863.7C728.05,-855.98 727.82,-846.71 728.17,-838.11"/>
<polygon fill="black" stroke="black" points="731.66,-838.32 728.87,-828.1 724.68,-837.84 731.66,-838.32"/>
</g>
<!-- INTF&#45;IF_XCO_STRINGS&#45;&gt;INTF&#45;IF_XCO_TEXT -->
<g id="edge12" class="edge">
<title>INTF&#45;IF_XCO_STRINGS&#45;&gt;INTF&#45;IF_XCO_TEXT</title>
<path fill="none" stroke="black" d="M740.66,-828.1C741.46,-835.79 741.7,-845.05 741.36,-853.67"/>
<polygon fill="black" stroke="black" points="737.87,-853.48 740.68,-863.7 744.85,-853.96 737.87,-853.48"/>
</g>
<!-- INTF&#45;IF_XCO_STRING_ITERABLE -->
<g id="node6" class="node">
<title>INTF&#45;IF_XCO_STRING_ITERABLE</title>
<g id="a_node6"><a xlink:href="./INTF_IF_XCO_STRING_ITERABLE.html" xlink:title="INTF&#45;IF_XCO_STRING_ITERABLE">
<polygon fill="none" stroke="green" points="851.21,-756 618.31,-756 618.31,-720 851.21,-720 851.21,-756"/>
<text text-anchor="middle" x="734.76" y="-733.8" font-family="Times,serif" font-size="14.00">INTF&#45;IF_XCO_STRING_ITERABLE</text>
</a>
</g>
</g>
<!-- INTF&#45;IF_XCO_STRINGS&#45;&gt;INTF&#45;IF_XCO_STRING_ITERABLE -->
<g id="edge13" class="edge">
<title>INTF&#45;IF_XCO_STRINGS&#45;&gt;INTF&#45;IF_XCO_STRING_ITERABLE</title>
<path fill="none" stroke="black" d="M734.76,-791.7C734.76,-783.98 734.76,-774.71 734.76,-766.11"/>
<polygon fill="black" stroke="black" points="738.26,-766.1 734.76,-756.1 731.26,-766.1 738.26,-766.1"/>
</g>
<!-- INTF&#45;IF_XCO_STRING -->
<g id="node9" class="node">
<title>INTF&#45;IF_XCO_STRING</title>
<g id="a_node9"><a xlink:href="./INTF_IF_XCO_STRING.html" xlink:title="INTF&#45;IF_XCO_STRING">
<polygon fill="none" stroke="green" points="661.06,-612 502.46,-612 502.46,-576 661.06,-576 661.06,-612"/>
<text text-anchor="middle" x="581.76" y="-589.8" font-family="Times,serif" font-size="14.00">INTF&#45;IF_XCO_STRING</text>
</a>
</g>
</g>
<!-- INTF&#45;IF_XCO_STRINGS&#45;&gt;INTF&#45;IF_XCO_STRING -->
<g id="edge9" class="edge">
<title>INTF&#45;IF_XCO_STRINGS&#45;&gt;INTF&#45;IF_XCO_STRING</title>
<path fill="none" stroke="black" d="M652.94,-791.87C633.1,-783.97 613.88,-772.52 600.76,-756 570.07,-717.34 568.16,-656.85 572.92,-622.07"/>
<polygon fill="black" stroke="black" points="576.38,-622.6 574.58,-612.16 569.47,-621.44 576.38,-622.6"/>
</g>
<!-- INTF&#45;IF_XCO_NEWS -->
<g id="node10" class="node">
<title>INTF&#45;IF_XCO_NEWS</title>
<g id="a_node10"><a xlink:href="./INTF_IF_XCO_NEWS.html" xlink:title="INTF&#45;IF_XCO_NEWS">
<polygon fill="none" stroke="green" points="1216.67,-540 1068.85,-540 1068.85,-504 1216.67,-504 1216.67,-540"/>
<text text-anchor="middle" x="1142.76" y="-517.8" font-family="Times,serif" font-size="14.00">INTF&#45;IF_XCO_NEWS</text>
</a>
</g>
</g>
<!-- INTF&#45;IF_XCO_STRINGS&#45;&gt;INTF&#45;IF_XCO_NEWS -->
<g id="edge11" class="edge">
<title>INTF&#45;IF_XCO_STRINGS&#45;&gt;INTF&#45;IF_XCO_NEWS</title>
<path fill="none" stroke="black" d="M818.05,-804.58C936.6,-797.43 1142.21,-781.5 1164.76,-756 1216.13,-697.91 1178.68,-596.93 1156.29,-549.3"/>
<polygon fill="black" stroke="black" points="1159.42,-547.73 1151.91,-540.25 1153.12,-550.78 1159.42,-547.73"/>
</g>
<!-- INTF&#45;IF_XCO_STRING_COMPOSITION -->
<g id="node37" class="node">
<title>INTF&#45;IF_XCO_STRING_COMPOSITION</title>
<g id="a_node37"><a xlink:href="./INTF_IF_XCO_STRING_COMPOSITION.html" xlink:title="INTF&#45;IF_XCO_STRING_COMPOSITION">
<polygon fill="none" stroke="green" points="545.21,-756 284.31,-756 284.31,-720 545.21,-720 545.21,-756"/>
<text text-anchor="middle" x="414.76" y="-733.8" font-family="Times,serif" font-size="14.00">INTF&#45;IF_XCO_STRING_COMPOSITION</text>
</a>
</g>
</g>
<!-- INTF&#45;IF_XCO_STRINGS&#45;&gt;INTF&#45;IF_XCO_STRING_COMPOSITION -->
<g id="edge10" class="edge">
<title>INTF&#45;IF_XCO_STRINGS&#45;&gt;INTF&#45;IF_XCO_STRING_COMPOSITION</title>
<path fill="none" stroke="black" d="M651.42,-792.05C603.71,-781.86 544.13,-768.84 496.67,-758.25"/>
<polygon fill="black" stroke="black" points="497.25,-754.8 486.73,-756.03 495.73,-761.63 497.25,-754.8"/>
</g>
<!-- TTYP&#45;STRING_TABLE -->
<g id="node38" class="node">
<title>TTYP&#45;STRING_TABLE</title>
<g id="a_node38"><a xlink:href="./TTYP_STRING_TABLE.html" xlink:title="TTYP&#45;STRING_TABLE">
<polygon fill="none" stroke="green" points="1028.06,-756 869.46,-756 869.46,-720 1028.06,-720 1028.06,-756"/>
<text text-anchor="middle" x="948.76" y="-733.8" font-family="Times,serif" font-size="14.00">TTYP&#45;STRING_TABLE</text>
</a>
</g>
</g>
<!-- INTF&#45;IF_XCO_STRINGS&#45;&gt;TTYP&#45;STRING_TABLE -->
<g id="edge8" class="edge">
<title>INTF&#45;IF_XCO_STRINGS&#45;&gt;TTYP&#45;STRING_TABLE</title>
<path fill="none" stroke="black" d="M786.84,-791.97C817,-782.1 855.15,-769.62 886.84,-759.25"/>
<polygon fill="black" stroke="black" points="888.03,-762.55 896.45,-756.11 885.86,-755.89 888.03,-762.55"/>
</g>
<!-- DTEL&#45;INT4 -->
<g id="node39" class="node">
<title>DTEL&#45;INT4</title>
<g id="a_node39"><a xlink:href="./DTEL_INT4.html" xlink:title="DTEL&#45;INT4">
<polygon fill="none" stroke="green" points="1133.01,-756 1046.52,-756 1046.52,-720 1133.01,-720 1133.01,-756"/>
<text text-anchor="middle" x="1089.76" y="-733.8" font-family="Times,serif" font-size="14.00">DTEL&#45;INT4</text>
</a>
</g>
</g>
<!-- INTF&#45;IF_XCO_STRINGS&#45;&gt;DTEL&#45;INT4 -->
<g id="edge7" class="edge">
<title>INTF&#45;IF_XCO_STRINGS&#45;&gt;DTEL&#45;INT4</title>
<path fill="none" stroke="black" d="M818.07,-797.51C879.08,-788.34 963.63,-774.05 1036.76,-756 1036.86,-755.98 1036.96,-755.95 1037.06,-755.93"/>
<polygon fill="black" stroke="black" points="1037.75,-759.36 1046.51,-753.4 1035.95,-752.6 1037.75,-759.36"/>
</g>
<!-- INTF&#45;IF_XCO_STRING_ITERATOR -->
<g id="node7" class="node">
<title>INTF&#45;IF_XCO_STRING_ITERATOR</title>
<g id="a_node7"><a xlink:href="./INTF_IF_XCO_STRING_ITERATOR.html" xlink:title="INTF&#45;IF_XCO_STRING_ITERATOR">
<polygon fill="none" stroke="green" points="890.77,-684 656.75,-684 656.75,-648 890.77,-648 890.77,-684"/>
<text text-anchor="middle" x="773.76" y="-661.8" font-family="Times,serif" font-size="14.00">INTF&#45;IF_XCO_STRING_ITERATOR</text>
</a>
</g>
</g>
<!-- INTF&#45;IF_XCO_STRING_ITERABLE&#45;&gt;INTF&#45;IF_XCO_STRING_ITERATOR -->
<g id="edge14" class="edge">
<title>INTF&#45;IF_XCO_STRING_ITERABLE&#45;&gt;INTF&#45;IF_XCO_STRING_ITERATOR</title>
<path fill="none" stroke="black" d="M744.4,-719.7C748.89,-711.64 754.32,-701.89 759.28,-692.98"/>
<polygon fill="black" stroke="black" points="762.42,-694.54 764.23,-684.1 756.31,-691.14 762.42,-694.54"/>
</g>
<!-- INTF&#45;IF_XCO_ITERATOR -->
<g id="node8" class="node">
<title>INTF&#45;IF_XCO_ITERATOR</title>
<g id="a_node8"><a xlink:href="./INTF_IF_XCO_ITERATOR.html" xlink:title="INTF&#45;IF_XCO_ITERATOR">
<polygon fill="none" stroke="green" points="862.22,-612 685.3,-612 685.3,-576 862.22,-576 862.22,-612"/>
<text text-anchor="middle" x="773.76" y="-589.8" font-family="Times,serif" font-size="14.00">INTF&#45;IF_XCO_ITERATOR</text>
</a>
</g>
</g>
<!-- INTF&#45;IF_XCO_STRING_ITERATOR&#45;&gt;INTF&#45;IF_XCO_ITERATOR -->
<g id="edge16" class="edge">
<title>INTF&#45;IF_XCO_STRING_ITERATOR&#45;&gt;INTF&#45;IF_XCO_ITERATOR</title>
<path fill="none" stroke="black" d="M773.76,-647.7C773.76,-639.98 773.76,-630.71 773.76,-622.11"/>
<polygon fill="black" stroke="black" points="777.26,-622.1 773.76,-612.1 770.26,-622.1 777.26,-622.1"/>
</g>
<!-- INTF&#45;IF_XCO_STRING_ITERATOR&#45;&gt;INTF&#45;IF_XCO_STRING -->
<g id="edge15" class="edge">
<title>INTF&#45;IF_XCO_STRING_ITERATOR&#45;&gt;INTF&#45;IF_XCO_STRING</title>
<path fill="none" stroke="black" d="M726.79,-647.88C700.08,-638.14 666.44,-625.87 638.29,-615.61"/>
<polygon fill="black" stroke="black" points="639.17,-612.21 628.58,-612.07 636.77,-618.78 639.17,-612.21"/>
</g>
<!-- INTF&#45;IF_XCO_STRING&#45;&gt;INTF&#45;IF_XCO_TEXT -->
<g id="edge23" class="edge">
<title>INTF&#45;IF_XCO_STRING&#45;&gt;INTF&#45;IF_XCO_TEXT</title>
<path fill="none" stroke="black" d="M502.29,-605.97C391.07,-624.68 209.61,-669.43 275.76,-756 321.32,-815.62 533.44,-853.58 652.73,-870.59"/>
<polygon fill="black" stroke="black" points="652.53,-874.1 662.92,-872.03 653.5,-867.17 652.53,-874.1"/>
</g>
<!-- INTF&#45;IF_XCO_STRING&#45;&gt;INTF&#45;IF_XCO_STRINGS -->
<g id="edge17" class="edge">
<title>INTF&#45;IF_XCO_STRING&#45;&gt;INTF&#45;IF_XCO_STRINGS</title>
<path fill="none" stroke="black" d="M584.99,-612.16C586.08,-644.11 584.89,-713.34 618.76,-756 629.73,-769.81 644.96,-780.08 660.8,-787.69"/>
<polygon fill="black" stroke="black" points="659.62,-790.99 670.17,-791.87 662.47,-784.6 659.62,-790.99"/>
</g>
<!-- INTF&#45;IF_XCO_STRING&#45;&gt;INTF&#45;IF_XCO_STRING_ITERABLE -->
<g id="edge24" class="edge">
<title>INTF&#45;IF_XCO_STRING&#45;&gt;INTF&#45;IF_XCO_STRING_ITERABLE</title>
<path fill="none" stroke="black" d="M591.75,-612.28C603.43,-631.44 624.18,-662.47 647.76,-684 660.63,-695.75 676.49,-706.31 691.12,-714.85"/>
<polygon fill="black" stroke="black" points="689.61,-718.02 700.03,-719.9 693.06,-711.93 689.61,-718.02"/>
</g>
<!-- INTF&#45;IF_XCO_STRING&#45;&gt;INTF&#45;IF_XCO_NEWS -->
<g id="edge22" class="edge">
<title>INTF&#45;IF_XCO_STRING&#45;&gt;INTF&#45;IF_XCO_NEWS</title>
<path fill="none" stroke="black" d="M660.99,-578.31C666.32,-577.48 671.61,-576.7 676.76,-576 842.94,-553.36 888.91,-564.74 1058.6,-540.08"/>
<polygon fill="black" stroke="black" points="1059.24,-543.52 1068.62,-538.6 1058.22,-536.6 1059.24,-543.52"/>
</g>
<!-- INTF&#45;IF_XCO_MESSAGE -->
<g id="node12" class="node">
<title>INTF&#45;IF_XCO_MESSAGE</title>
<g id="a_node12"><a xlink:href="./INTF_IF_XCO_MESSAGE.html" xlink:title="INTF&#45;IF_XCO_MESSAGE">
<polygon fill="none" stroke="green" points="1068.35,-396 895.18,-396 895.18,-360 1068.35,-360 1068.35,-396"/>
<text text-anchor="middle" x="981.76" y="-373.8" font-family="Times,serif" font-size="14.00">INTF&#45;IF_XCO_MESSAGE</text>
</a>
</g>
</g>
<!-- INTF&#45;IF_XCO_STRING&#45;&gt;INTF&#45;IF_XCO_MESSAGE -->
<g id="edge19" class="edge">
<title>INTF&#45;IF_XCO_STRING&#45;&gt;INTF&#45;IF_XCO_MESSAGE</title>
<path fill="none" stroke="black" d="M643.68,-575.9C669.53,-567.26 699.2,-555.32 723.76,-540 743.5,-527.69 743.07,-517.85 761.76,-504 818.56,-461.93 890.88,-423.36 936.76,-400.51"/>
<polygon fill="black" stroke="black" points="938.44,-403.58 945.86,-396.02 935.34,-397.31 938.44,-403.58"/>
</g>
<!-- INTF&#45;IF_XCO_XSTRING -->
<g id="node33" class="node">
<title>INTF&#45;IF_XCO_XSTRING</title>
<g id="a_node33"><a xlink:href="./INTF_IF_XCO_XSTRING.html" xlink:title="INTF&#45;IF_XCO_XSTRING">
<polygon fill="none" stroke="green" points="407.17,-540 238.35,-540 238.35,-504 407.17,-504 407.17,-540"/>
<text text-anchor="middle" x="322.76" y="-517.8" font-family="Times,serif" font-size="14.00">INTF&#45;IF_XCO_XSTRING</text>
</a>
</g>
</g>
<!-- INTF&#45;IF_XCO_STRING&#45;&gt;INTF&#45;IF_XCO_XSTRING -->
<g id="edge21" class="edge">
<title>INTF&#45;IF_XCO_STRING&#45;&gt;INTF&#45;IF_XCO_XSTRING</title>
<path fill="none" stroke="black" d="M512.85,-575.97C474.82,-565.97 427.84,-553.3 390.07,-542.85"/>
<polygon fill="black" stroke="black" points="390.75,-539.41 380.18,-540.11 388.88,-546.16 390.75,-539.41"/>
</g>
<!-- INTF&#45;IF_XCO_STRING_XSTRING_CNVRSN -->
<g id="node35" class="node">
<title>INTF&#45;IF_XCO_STRING_XSTRING_CNVRSN</title>
<g id="a_node35"><a xlink:href="./INTF_IF_XCO_STRING_XSTRING_CNVRSN.html" xlink:title="INTF&#45;IF_XCO_STRING_XSTRING_CNVRSN">
<polygon fill="none" stroke="green" points="714.49,-540 425.03,-540 425.03,-504 714.49,-504 714.49,-540"/>
<text text-anchor="middle" x="569.76" y="-517.8" font-family="Times,serif" font-size="14.00">INTF&#45;IF_XCO_STRING_XSTRING_CNVRSN</text>
</a>
</g>
</g>
<!-- INTF&#45;IF_XCO_STRING&#45;&gt;INTF&#45;IF_XCO_STRING_XSTRING_CNVRSN -->
<g id="edge20" class="edge">
<title>INTF&#45;IF_XCO_STRING&#45;&gt;INTF&#45;IF_XCO_STRING_XSTRING_CNVRSN</title>
<path fill="none" stroke="black" d="M578.79,-575.7C577.47,-567.98 575.88,-558.71 574.41,-550.11"/>
<polygon fill="black" stroke="black" points="577.83,-549.37 572.69,-540.1 570.93,-550.55 577.83,-549.37"/>
</g>
<!-- INTF&#45;IF_XCO_STRING_DECOMPOSITION -->
<g id="node36" class="node">
<title>INTF&#45;IF_XCO_STRING_DECOMPOSITION</title>
<g id="a_node36"><a xlink:href="./INTF_IF_XCO_STRING_DECOMPOSITION.html" xlink:title="INTF&#45;IF_XCO_STRING_DECOMPOSITION">
<polygon fill="none" stroke="green" points="1050.37,-540 771.15,-540 771.15,-504 1050.37,-504 1050.37,-540"/>
<text text-anchor="middle" x="910.76" y="-517.8" font-family="Times,serif" font-size="14.00">INTF&#45;IF_XCO_STRING_DECOMPOSITION</text>
</a>
</g>
</g>
<!-- INTF&#45;IF_XCO_STRING&#45;&gt;INTF&#45;IF_XCO_STRING_DECOMPOSITION -->
<g id="edge18" class="edge">
<title>INTF&#45;IF_XCO_STRING&#45;&gt;INTF&#45;IF_XCO_STRING_DECOMPOSITION</title>
<path fill="none" stroke="black" d="M655.93,-575.97C702.91,-565.74 764.09,-552.71 814.75,-542.13"/>
<polygon fill="black" stroke="black" points="815.66,-545.52 824.74,-540.05 814.23,-538.66 815.66,-545.52"/>
</g>
<!-- TTYP&#45;SXCO_T_MESSAGES -->
<g id="node11" class="node">
<title>TTYP&#45;SXCO_T_MESSAGES</title>
<g id="a_node11"><a xlink:href="./TTYP_SXCO_T_MESSAGES.html" xlink:title="TTYP&#45;SXCO_T_MESSAGES">
<polygon fill="none" stroke="green" points="1211.91,-468 1023.61,-468 1023.61,-432 1211.91,-432 1211.91,-468"/>
<text text-anchor="middle" x="1117.76" y="-445.8" font-family="Times,serif" font-size="14.00">TTYP&#45;SXCO_T_MESSAGES</text>
</a>
</g>
</g>
<!-- INTF&#45;IF_XCO_NEWS&#45;&gt;TTYP&#45;SXCO_T_MESSAGES -->
<g id="edge25" class="edge">
<title>INTF&#45;IF_XCO_NEWS&#45;&gt;TTYP&#45;SXCO_T_MESSAGES</title>
<path fill="none" stroke="black" d="M1136.58,-503.7C1133.77,-495.81 1130.37,-486.3 1127.24,-477.55"/>
<polygon fill="black" stroke="black" points="1130.53,-476.34 1123.87,-468.1 1123.94,-478.7 1130.53,-476.34"/>
</g>
<!-- TTYP&#45;SXCO_T_MESSAGES&#45;&gt;INTF&#45;IF_XCO_MESSAGE -->
<g id="edge26" class="edge">
<title>TTYP&#45;SXCO_T_MESSAGES&#45;&gt;INTF&#45;IF_XCO_MESSAGE</title>
<path fill="none" stroke="black" d="M1084.49,-431.88C1066.3,-422.51 1043.57,-410.81 1024.12,-400.8"/>
<polygon fill="black" stroke="black" points="1025.65,-397.65 1015.16,-396.19 1022.45,-403.88 1025.65,-397.65"/>
</g>
<!-- INTF&#45;IF_XCO_MESSAGE&#45;&gt;INTF&#45;IF_XCO_NEWS -->
<g id="edge35" class="edge">
<title>INTF&#45;IF_XCO_MESSAGE&#45;&gt;INTF&#45;IF_XCO_NEWS</title>
<path fill="none" stroke="black" d="M983.97,-396.25C987.34,-415.96 995.55,-448.06 1014.76,-468 1028.19,-481.94 1045.82,-492.35 1063.69,-500.08"/>
<polygon fill="black" stroke="black" points="1062.45,-503.35 1073.04,-503.88 1065.09,-496.87 1062.45,-503.35"/>
</g>
<!-- INTF&#45;IF_T100_DYN_MSG -->
<g id="node13" class="node">
<title>INTF&#45;IF_T100_DYN_MSG</title>
<g id="a_node13"><a xlink:href="./INTF_IF_T100_DYN_MSG.html" xlink:title="INTF&#45;IF_T100_DYN_MSG">
<polygon fill="none" stroke="green" points="822.67,-324 646.85,-324 646.85,-288 822.67,-288 822.67,-324"/>
<text text-anchor="middle" x="734.76" y="-301.8" font-family="Times,serif" font-size="14.00">INTF&#45;IF_T100_DYN_MSG</text>
</a>
</g>
</g>
<!-- INTF&#45;IF_XCO_MESSAGE&#45;&gt;INTF&#45;IF_T100_DYN_MSG -->
<g id="edge34" class="edge">
<title>INTF&#45;IF_XCO_MESSAGE&#45;&gt;INTF&#45;IF_T100_DYN_MSG</title>
<path fill="none" stroke="black" d="M921.65,-359.97C886.39,-349.97 841.67,-337.3 804.82,-326.85"/>
<polygon fill="black" stroke="black" points="805.71,-323.47 795.14,-324.11 803.8,-330.2 805.71,-323.47"/>
</g>
<!-- DTEL&#45;SYMSGNO -->
<g id="node18" class="node">
<title>DTEL&#45;SYMSGNO</title>
<g id="a_node18"><a xlink:href="./DTEL_SYMSGNO.html" xlink:title="DTEL&#45;SYMSGNO">
<polygon fill="none" stroke="green" points="1097.12,-108 972.4,-108 972.4,-72 1097.12,-72 1097.12,-108"/>
<text text-anchor="middle" x="1034.76" y="-85.8" font-family="Times,serif" font-size="14.00">DTEL&#45;SYMSGNO</text>
</a>
</g>
</g>
<!-- INTF&#45;IF_XCO_MESSAGE&#45;&gt;DTEL&#45;SYMSGNO -->
<g id="edge30" class="edge">
<title>INTF&#45;IF_XCO_MESSAGE&#45;&gt;DTEL&#45;SYMSGNO</title>
<path fill="none" stroke="black" d="M997.56,-359.93C1017.59,-337.19 1051.47,-294.84 1067.76,-252 1084.89,-206.98 1092.6,-189.49 1076.76,-144 1073.23,-133.86 1066.86,-124.19 1060.12,-115.96"/>
<polygon fill="black" stroke="black" points="1062.59,-113.46 1053.37,-108.24 1057.32,-118.07 1062.59,-113.46"/>
</g>
<!-- DTEL&#45;SYMSGID -->
<g id="node20" class="node">
<title>DTEL&#45;SYMSGID</title>
<g id="a_node20"><a xlink:href="./DTEL_SYMSGID.html" xlink:title="DTEL&#45;SYMSGID">
<polygon fill="none" stroke="green" points="850.68,-108 730.84,-108 730.84,-72 850.68,-72 850.68,-108"/>
<text text-anchor="middle" x="790.76" y="-85.8" font-family="Times,serif" font-size="14.00">DTEL&#45;SYMSGID</text>
</a>
</g>
</g>
<!-- INTF&#45;IF_XCO_MESSAGE&#45;&gt;DTEL&#45;SYMSGID -->
<g id="edge29" class="edge">
<title>INTF&#45;IF_XCO_MESSAGE&#45;&gt;DTEL&#45;SYMSGID</title>
<path fill="none" stroke="black" d="M923.91,-359.96C904.49,-351.78 884.14,-340.14 869.76,-324 816.11,-263.79 798.63,-165.67 793.14,-118.29"/>
<polygon fill="black" stroke="black" points="796.61,-117.76 792.07,-108.19 789.65,-118.5 796.61,-117.76"/>
</g>
<!-- DTEL&#45;SYMSGTY -->
<g id="node22" class="node">
<title>DTEL&#45;SYMSGTY</title>
<g id="a_node22"><a xlink:href="./DTEL_SYMSGTY.html" xlink:title="DTEL&#45;SYMSGTY">
<polygon fill="none" stroke="green" points="566.57,-252 442.95,-252 442.95,-216 566.57,-216 566.57,-252"/>
<text text-anchor="middle" x="504.76" y="-229.8" font-family="Times,serif" font-size="14.00">DTEL&#45;SYMSGTY</text>
</a>
</g>
</g>
<!-- INTF&#45;IF_XCO_MESSAGE&#45;&gt;DTEL&#45;SYMSGTY -->
<g id="edge28" class="edge">
<title>INTF&#45;IF_XCO_MESSAGE&#45;&gt;DTEL&#45;SYMSGTY</title>
<path fill="none" stroke="black" d="M894.86,-369.56C808.18,-361.09 681.78,-345.57 637.76,-324 616.87,-313.76 618.51,-301.77 599.76,-288 584.09,-276.49 565.67,-265.67 549.23,-256.84"/>
<polygon fill="black" stroke="black" points="550.81,-253.72 540.34,-252.15 547.55,-259.91 550.81,-253.72"/>
</g>
<!-- DTEL&#45;SYMSGV -->
<g id="node24" class="node">
<title>DTEL&#45;SYMSGV</title>
<g id="a_node24"><a xlink:href="./DTEL_SYMSGV.html" xlink:title="DTEL&#45;SYMSGV">
<polygon fill="none" stroke="green" points="1036.02,-252 921.51,-252 921.51,-216 1036.02,-216 1036.02,-252"/>
<text text-anchor="middle" x="978.76" y="-229.8" font-family="Times,serif" font-size="14.00">DTEL&#45;SYMSGV</text>
</a>
</g>
</g>
<!-- INTF&#45;IF_XCO_MESSAGE&#45;&gt;DTEL&#45;SYMSGV -->
<g id="edge31" class="edge">
<title>INTF&#45;IF_XCO_MESSAGE&#45;&gt;DTEL&#45;SYMSGV</title>
<path fill="none" stroke="black" d="M986.63,-359.98C989.33,-349.67 992.4,-336.19 993.76,-324 995.54,-308.1 995.96,-303.85 993.76,-288 992.58,-279.48 990.37,-270.39 988.01,-262.2"/>
<polygon fill="black" stroke="black" points="991.28,-260.94 985,-252.41 984.59,-262.99 991.28,-260.94"/>
</g>
<!-- INTF&#45;IF_XCO_MESSAGE_SHORT_TEXT -->
<g id="node26" class="node">
<title>INTF&#45;IF_XCO_MESSAGE_SHORT_TEXT</title>
<g id="a_node26"><a xlink:href="./INTF_IF_XCO_MESSAGE_SHORT_TEXT.html" xlink:title="INTF&#45;IF_XCO_MESSAGE_SHORT_TEXT">
<polygon fill="none" stroke="green" points="1378.99,-324 1110.53,-324 1110.53,-288 1378.99,-288 1378.99,-324"/>
<text text-anchor="middle" x="1244.76" y="-301.8" font-family="Times,serif" font-size="14.00">INTF&#45;IF_XCO_MESSAGE_SHORT_TEXT</text>
</a>
</g>
</g>
<!-- INTF&#45;IF_XCO_MESSAGE&#45;&gt;INTF&#45;IF_XCO_MESSAGE_SHORT_TEXT -->
<g id="edge33" class="edge">
<title>INTF&#45;IF_XCO_MESSAGE&#45;&gt;INTF&#45;IF_XCO_MESSAGE_SHORT_TEXT</title>
<path fill="none" stroke="black" d="M1039.87,-359.97C1076.6,-349.91 1124.5,-337.14 1164.78,-326.65"/>
<polygon fill="black" stroke="black" points="1165.78,-330.01 1174.58,-324.11 1164.02,-323.24 1165.78,-330.01"/>
</g>
<!-- CLAS&#45;CL_XCO_MESSAGE_TYPE -->
<g id="node30" class="node">
<title>CLAS&#45;CL_XCO_MESSAGE_TYPE</title>
<g id="a_node30"><a xlink:href="./CLAS_CL_XCO_MESSAGE_TYPE.html" xlink:title="CLAS&#45;CL_XCO_MESSAGE_TYPE">
<polygon fill="none" stroke="green" points="590.46,-324 365.06,-324 365.06,-288 590.46,-288 590.46,-324"/>
<text text-anchor="middle" x="477.76" y="-301.8" font-family="Times,serif" font-size="14.00">CLAS&#45;CL_XCO_MESSAGE_TYPE</text>
</a>
</g>
</g>
<!-- INTF&#45;IF_XCO_MESSAGE&#45;&gt;CLAS&#45;CL_XCO_MESSAGE_TYPE -->
<g id="edge32" class="edge">
<title>INTF&#45;IF_XCO_MESSAGE&#45;&gt;CLAS&#45;CL_XCO_MESSAGE_TYPE</title>
<path fill="none" stroke="black" d="M895.12,-364.97C814.01,-353.7 691.97,-336.75 600.79,-324.09"/>
<polygon fill="black" stroke="black" points="601.05,-320.59 590.66,-322.68 600.09,-327.52 601.05,-320.59"/>
</g>
<!-- TABL&#45;SYMSG -->
<g id="node32" class="node">
<title>TABL&#45;SYMSG</title>
<g id="a_node32"><a xlink:href="./TABL_SYMSG.html" xlink:title="TABL&#45;SYMSG">
<polygon fill="none" stroke="green" points="984.69,-324 878.83,-324 878.83,-288 984.69,-288 984.69,-324"/>
<text text-anchor="middle" x="931.76" y="-301.8" font-family="Times,serif" font-size="14.00">TABL&#45;SYMSG</text>
</a>
</g>
</g>
<!-- INTF&#45;IF_XCO_MESSAGE&#45;&gt;TABL&#45;SYMSG -->
<g id="edge27" class="edge">
<title>INTF&#45;IF_XCO_MESSAGE&#45;&gt;TABL&#45;SYMSG</title>
<path fill="none" stroke="black" d="M969.4,-359.7C963.53,-351.47 956.39,-341.48 949.92,-332.42"/>
<polygon fill="black" stroke="black" points="952.64,-330.21 943.98,-324.1 946.94,-334.28 952.64,-330.21"/>
</g>
<!-- INTF&#45;IF_T100_MESSAGE -->
<g id="node14" class="node">
<title>INTF&#45;IF_T100_MESSAGE</title>
<g id="a_node14"><a xlink:href="./INTF_IF_T100_MESSAGE.html" xlink:title="INTF&#45;IF_T100_MESSAGE">
<polygon fill="none" stroke="green" points="796.35,-252 623.17,-252 623.17,-216 796.35,-216 796.35,-252"/>
<text text-anchor="middle" x="709.76" y="-229.8" font-family="Times,serif" font-size="14.00">INTF&#45;IF_T100_MESSAGE</text>
</a>
</g>
</g>
<!-- INTF&#45;IF_T100_DYN_MSG&#45;&gt;INTF&#45;IF_T100_MESSAGE -->
<g id="edge39" class="edge">
<title>INTF&#45;IF_T100_DYN_MSG&#45;&gt;INTF&#45;IF_T100_MESSAGE</title>
<path fill="none" stroke="black" d="M728.58,-287.7C725.77,-279.81 722.37,-270.3 719.24,-261.55"/>
<polygon fill="black" stroke="black" points="722.53,-260.34 715.87,-252.1 715.94,-262.7 722.53,-260.34"/>
</g>
<!-- INTF&#45;IF_MESSAGE -->
<g id="node15" class="node">
<title>INTF&#45;IF_MESSAGE</title>
<g id="a_node15"><a xlink:href="./INTF_IF_MESSAGE.html" xlink:title="INTF&#45;IF_MESSAGE">
<polygon fill="none" stroke="green" points="540.8,-180 404.73,-180 404.73,-144 540.8,-144 540.8,-180"/>
<text text-anchor="middle" x="472.76" y="-157.8" font-family="Times,serif" font-size="14.00">INTF&#45;IF_MESSAGE</text>
</a>
</g>
</g>
<!-- INTF&#45;IF_T100_DYN_MSG&#45;&gt;INTF&#45;IF_MESSAGE -->
<g id="edge38" class="edge">
<title>INTF&#45;IF_T100_DYN_MSG&#45;&gt;INTF&#45;IF_MESSAGE</title>
<path fill="none" stroke="black" d="M685.67,-287.98C662.85,-278.96 635.93,-266.7 613.76,-252 594.37,-239.14 594.74,-229.46 575.76,-216 559,-204.11 539.21,-193.27 521.47,-184.53"/>
<polygon fill="black" stroke="black" points="522.94,-181.36 512.42,-180.16 519.9,-187.66 522.94,-181.36"/>
</g>
<!-- INTF&#45;IF_T100_DYN_MSG&#45;&gt;DTEL&#45;SYMSGTY -->
<g id="edge37" class="edge">
<title>INTF&#45;IF_T100_DYN_MSG&#45;&gt;DTEL&#45;SYMSGTY</title>
<path fill="none" stroke="black" d="M678.79,-287.97C646.24,-278.06 605.02,-265.51 570.87,-255.12"/>
<polygon fill="black" stroke="black" points="571.57,-251.67 560.98,-252.11 569.53,-258.37 571.57,-251.67"/>
</g>
<!-- INTF&#45;IF_T100_DYN_MSG&#45;&gt;DTEL&#45;SYMSGV -->
<g id="edge36" class="edge">
<title>INTF&#45;IF_T100_DYN_MSG&#45;&gt;DTEL&#45;SYMSGV</title>
<path fill="none" stroke="black" d="M794.14,-287.97C829.62,-277.79 874.79,-264.83 911.58,-254.27"/>
<polygon fill="black" stroke="black" points="912.58,-257.63 921.22,-251.51 910.65,-250.9 912.58,-257.63"/>
</g>
<!-- INTF&#45;IF_T100_MESSAGE&#45;&gt;INTF&#45;IF_MESSAGE -->
<g id="edge44" class="edge">
<title>INTF&#45;IF_T100_MESSAGE&#45;&gt;INTF&#45;IF_MESSAGE</title>
<path fill="none" stroke="black" d="M652.09,-215.97C618.4,-206.01 575.71,-193.41 540.43,-182.99"/>
<polygon fill="black" stroke="black" points="541.28,-179.59 530.69,-180.11 539.29,-186.3 541.28,-179.59"/>
</g>
<!-- TABL&#45;SCX_T100KEY -->
<g id="node16" class="node">
<title>TABL&#45;SCX_T100KEY</title>
<g id="a_node16"><a xlink:href="./TABL_SCX_T100KEY.html" xlink:title="TABL&#45;SCX_T100KEY">
<polygon fill="none" stroke="yellow" points="784.51,-180 635.01,-180 635.01,-144 784.51,-144 784.51,-180"/>
<text text-anchor="middle" x="709.76" y="-157.8" font-family="Times,serif" font-size="14.00">TABL&#45;SCX_T100KEY</text>
</a>
</g>
</g>
<!-- INTF&#45;IF_T100_MESSAGE&#45;&gt;TABL&#45;SCX_T100KEY -->
<g id="edge43" class="edge">
<title>INTF&#45;IF_T100_MESSAGE&#45;&gt;TABL&#45;SCX_T100KEY</title>
<path fill="none" stroke="black" d="M709.76,-215.7C709.76,-207.98 709.76,-198.71 709.76,-190.11"/>
<polygon fill="black" stroke="black" points="713.26,-190.1 709.76,-180.1 706.26,-190.1 713.26,-190.1"/>
</g>
<!-- DTEL&#45;SCX_ATTRNAME -->
<g id="node17" class="node">
<title>DTEL&#45;SCX_ATTRNAME</title>
<g id="a_node17"><a xlink:href="./DTEL_SCX_ATTRNAME.html" xlink:title="DTEL&#45;SCX_ATTRNAME">
<polygon fill="none" stroke="green" points="683.17,-108 514.35,-108 514.35,-72 683.17,-72 683.17,-108"/>
<text text-anchor="middle" x="598.76" y="-85.8" font-family="Times,serif" font-size="14.00">DTEL&#45;SCX_ATTRNAME</text>
</a>
</g>
</g>
<!-- INTF&#45;IF_T100_MESSAGE&#45;&gt;DTEL&#45;SCX_ATTRNAME -->
<g id="edge42" class="edge">
<title>INTF&#45;IF_T100_MESSAGE&#45;&gt;DTEL&#45;SCX_ATTRNAME</title>
<path fill="none" stroke="black" d="M660.63,-215.8C643.65,-207.51 626.06,-195.83 614.76,-180 601.97,-162.08 598.39,-137.08 597.77,-118.14"/>
<polygon fill="black" stroke="black" points="601.27,-118.03 597.7,-108.05 594.27,-118.08 601.27,-118.03"/>
</g>
<!-- INTF&#45;IF_T100_MESSAGE&#45;&gt;DTEL&#45;SYMSGNO -->
<g id="edge41" class="edge">
<title>INTF&#45;IF_T100_MESSAGE&#45;&gt;DTEL&#45;SYMSGNO</title>
<path fill="none" stroke="black" d="M746.85,-215.97C786.54,-197.83 851.39,-168.42 907.76,-144 932.71,-133.19 960.58,-121.51 983.84,-111.88"/>
<polygon fill="black" stroke="black" points="985.27,-115.08 993.17,-108.02 982.59,-108.61 985.27,-115.08"/>
</g>
<!-- INTF&#45;IF_T100_MESSAGE&#45;&gt;DTEL&#45;SYMSGID -->
<g id="edge40" class="edge">
<title>INTF&#45;IF_T100_MESSAGE&#45;&gt;DTEL&#45;SYMSGID</title>
<path fill="none" stroke="black" d="M665.69,-215.98C650.21,-207.62 634.5,-195.85 625.76,-180 618.03,-165.99 616.33,-156.93 625.76,-144 637.53,-127.86 681.46,-114.21 721.03,-104.8"/>
<polygon fill="black" stroke="black" points="722.02,-108.17 730.98,-102.51 720.45,-101.35 722.02,-108.17"/>
</g>
<!-- TABL&#45;SCX_T100KEY&#45;&gt;DTEL&#45;SCX_ATTRNAME -->
<g id="edge47" class="edge">
<title>TABL&#45;SCX_T100KEY&#45;&gt;DTEL&#45;SCX_ATTRNAME</title>
<path fill="none" stroke="black" d="M682.61,-143.88C668.23,-134.81 650.38,-123.55 634.85,-113.76"/>
<polygon fill="black" stroke="black" points="636.34,-110.56 626.02,-108.19 632.61,-116.48 636.34,-110.56"/>
</g>
<!-- TABL&#45;SCX_T100KEY&#45;&gt;DTEL&#45;SYMSGNO -->
<g id="edge46" class="edge">
<title>TABL&#45;SCX_T100KEY&#45;&gt;DTEL&#45;SYMSGNO</title>
<path fill="none" stroke="black" d="M784.73,-144.85C838.09,-133.36 909.4,-118 962.21,-106.63"/>
<polygon fill="black" stroke="black" points="963.14,-110.01 972.18,-104.48 961.67,-103.16 963.14,-110.01"/>
</g>
<!-- TABL&#45;SCX_T100KEY&#45;&gt;DTEL&#45;SYMSGID -->
<g id="edge45" class="edge">
<title>TABL&#45;SCX_T100KEY&#45;&gt;DTEL&#45;SYMSGID</title>
<path fill="none" stroke="black" d="M729.78,-143.7C739.89,-134.97 752.3,-124.24 763.28,-114.75"/>
<polygon fill="black" stroke="black" points="765.69,-117.29 770.97,-108.1 761.11,-111.99 765.69,-117.29"/>
</g>
<!-- DOMA&#45;SYMSGNO -->
<g id="node19" class="node">
<title>DOMA&#45;SYMSGNO</title>
<g id="a_node19"><a xlink:href="./DOMA_SYMSGNO.html" xlink:title="DOMA&#45;SYMSGNO">
<polygon fill="none" stroke="yellow" points="1100.62,-36 968.9,-36 968.9,0 1100.62,0 1100.62,-36"/>
<text text-anchor="middle" x="1034.76" y="-13.8" font-family="Times,serif" font-size="14.00">DOMA&#45;SYMSGNO</text>
</a>
</g>
</g>
<!-- DTEL&#45;SYMSGNO&#45;&gt;DOMA&#45;SYMSGNO -->
<g id="edge48" class="edge">
<title>DTEL&#45;SYMSGNO&#45;&gt;DOMA&#45;SYMSGNO</title>
<path fill="none" stroke="black" d="M1034.76,-71.7C1034.76,-63.98 1034.76,-54.71 1034.76,-46.11"/>
<polygon fill="black" stroke="black" points="1038.26,-46.1 1034.76,-36.1 1031.26,-46.1 1038.26,-46.1"/>
</g>
<!-- DOMA&#45;ARBGB -->
<g id="node21" class="node">
<title>DOMA&#45;ARBGB</title>
<g id="a_node21"><a xlink:href="./DOMA_ARBGB.html" xlink:title="DOMA&#45;ARBGB">
<polygon fill="none" stroke="yellow" points="846.41,-36 735.11,-36 735.11,0 846.41,0 846.41,-36"/>
<text text-anchor="middle" x="790.76" y="-13.8" font-family="Times,serif" font-size="14.00">DOMA&#45;ARBGB</text>
</a>
</g>
</g>
<!-- DTEL&#45;SYMSGID&#45;&gt;DOMA&#45;ARBGB -->
<g id="edge49" class="edge">
<title>DTEL&#45;SYMSGID&#45;&gt;DOMA&#45;ARBGB</title>
<path fill="none" stroke="black" d="M790.76,-71.7C790.76,-63.98 790.76,-54.71 790.76,-46.11"/>
<polygon fill="black" stroke="black" points="794.26,-46.1 790.76,-36.1 787.26,-46.1 794.26,-46.1"/>
</g>
<!-- DOMA&#45;SYCHAR01 -->
<g id="node23" class="node">
<title>DOMA&#45;SYCHAR01</title>
<g id="a_node23"><a xlink:href="./DOMA_SYCHAR01.html" xlink:title="DOMA&#45;SYCHAR01">
<polygon fill="none" stroke="yellow" points="386.96,-180 252.56,-180 252.56,-144 386.96,-144 386.96,-180"/>
<text text-anchor="middle" x="319.76" y="-157.8" font-family="Times,serif" font-size="14.00">DOMA&#45;SYCHAR01</text>
</a>
</g>
</g>
<!-- DTEL&#45;SYMSGTY&#45;&gt;DOMA&#45;SYCHAR01 -->
<g id="edge50" class="edge">
<title>DTEL&#45;SYMSGTY&#45;&gt;DOMA&#45;SYCHAR01</title>
<path fill="none" stroke="black" d="M459.5,-215.88C433.76,-206.14 401.35,-193.87 374.23,-183.61"/>
<polygon fill="black" stroke="black" points="375.46,-180.33 364.87,-180.07 372.98,-186.88 375.46,-180.33"/>
</g>
<!-- DOMA&#45;SYCHAR50 -->
<g id="node25" class="node">
<title>DOMA&#45;SYCHAR50</title>
<g id="a_node25"><a xlink:href="./DOMA_SYCHAR50.html" xlink:title="DOMA&#45;SYCHAR50">
<polygon fill="none" stroke="yellow" points="1050.96,-180 916.56,-180 916.56,-144 1050.96,-144 1050.96,-180"/>
<text text-anchor="middle" x="983.76" y="-157.8" font-family="Times,serif" font-size="14.00">DOMA&#45;SYCHAR50</text>
</a>
</g>
</g>
<!-- DTEL&#45;SYMSGV&#45;&gt;DOMA&#45;SYCHAR50 -->
<g id="edge51" class="edge">
<title>DTEL&#45;SYMSGV&#45;&gt;DOMA&#45;SYCHAR50</title>
<path fill="none" stroke="black" d="M980,-215.7C980.55,-207.98 981.21,-198.71 981.82,-190.11"/>
<polygon fill="black" stroke="black" points="985.32,-190.33 982.54,-180.1 978.34,-189.83 985.32,-190.33"/>
</g>
<!-- INTF&#45;IF_XCO_MESSAGE_SHORT_TEXT&#45;&gt;INTF&#45;IF_XCO_TEXT -->
<g id="edge53" class="edge">
<title>INTF&#45;IF_XCO_MESSAGE_SHORT_TEXT&#45;&gt;INTF&#45;IF_XCO_TEXT</title>
<path fill="none" stroke="black" d="M1244.76,-324.05C1244.76,-350.71 1244.76,-403.89 1244.76,-449 1244.76,-739 1244.76,-739 1244.76,-739 1244.76,-826.79 960.75,-862.63 816.61,-875.17"/>
<polygon fill="black" stroke="black" points="816.15,-871.7 806.48,-876.03 816.74,-878.67 816.15,-871.7"/>
</g>
<!-- INTF&#45;IF_XCO_MESSAGE_SHORT_TEXT&#45;&gt;INTF&#45;IF_XCO_MESSAGE -->
<g id="edge52" class="edge">
<title>INTF&#45;IF_XCO_MESSAGE_SHORT_TEXT&#45;&gt;INTF&#45;IF_XCO_MESSAGE</title>
<path fill="none" stroke="black" d="M1186.37,-324.11C1149.59,-334.18 1101.67,-346.95 1061.44,-357.43"/>
<polygon fill="black" stroke="black" points="1060.45,-354.07 1051.65,-359.97 1062.21,-360.84 1060.45,-354.07"/>
</g>
<!-- INTF&#45;IF_XCO_L10N_TEXT -->
<g id="node27" class="node">
<title>INTF&#45;IF_XCO_L10N_TEXT</title>
<g id="a_node27"><a xlink:href="./INTF_IF_XCO_L10N_TEXT.html" xlink:title="INTF&#45;IF_XCO_L10N_TEXT">
<polygon fill="none" stroke="yellow" points="1417.44,-252 1234.08,-252 1234.08,-216 1417.44,-216 1417.44,-252"/>
<text text-anchor="middle" x="1325.76" y="-229.8" font-family="Times,serif" font-size="14.00">INTF&#45;IF_XCO_L10N_TEXT</text>
</a>
</g>
</g>
<!-- INTF&#45;IF_XCO_MESSAGE_SHORT_TEXT&#45;&gt;INTF&#45;IF_XCO_L10N_TEXT -->
<g id="edge54" class="edge">
<title>INTF&#45;IF_XCO_MESSAGE_SHORT_TEXT&#45;&gt;INTF&#45;IF_XCO_L10N_TEXT</title>
<path fill="none" stroke="black" d="M1264.78,-287.7C1274.89,-278.97 1287.3,-268.24 1298.28,-258.75"/>
<polygon fill="black" stroke="black" points="1300.69,-261.29 1305.97,-252.1 1296.11,-255.99 1300.69,-261.29"/>
</g>
<!-- INTF&#45;IF_XCO_L10N_TEXT&#45;&gt;INTF&#45;IF_XCO_TEXT -->
<g id="edge56" class="edge">
<title>INTF&#45;IF_XCO_L10N_TEXT&#45;&gt;INTF&#45;IF_XCO_TEXT</title>
<path fill="none" stroke="black" d="M1352.94,-252.08C1365.37,-261.26 1379.21,-273.64 1387.76,-288 1408.45,-322.76 1406.76,-336.55 1406.76,-377 1406.76,-739 1406.76,-739 1406.76,-739 1406.76,-858.38 995.63,-877.89 816.52,-880.72"/>
<polygon fill="black" stroke="black" points="816.31,-877.22 806.36,-880.86 816.41,-884.22 816.31,-877.22"/>
</g>
<!-- DTEL&#45;SPRAS -->
<g id="node28" class="node">
<title>DTEL&#45;SPRAS</title>
<g id="a_node28"><a xlink:href="./DTEL_SPRAS.html" xlink:title="DTEL&#45;SPRAS">
<polygon fill="none" stroke="green" points="1375.48,-180 1276.04,-180 1276.04,-144 1375.48,-144 1375.48,-180"/>
<text text-anchor="middle" x="1325.76" y="-157.8" font-family="Times,serif" font-size="14.00">DTEL&#45;SPRAS</text>
</a>
</g>
</g>
<!-- INTF&#45;IF_XCO_L10N_TEXT&#45;&gt;DTEL&#45;SPRAS -->
<g id="edge55" class="edge">
<title>INTF&#45;IF_XCO_L10N_TEXT&#45;&gt;DTEL&#45;SPRAS</title>
<path fill="none" stroke="black" d="M1325.76,-215.7C1325.76,-207.98 1325.76,-198.71 1325.76,-190.11"/>
<polygon fill="black" stroke="black" points="1329.26,-190.1 1325.76,-180.1 1322.26,-190.1 1329.26,-190.1"/>
</g>
<!-- DOMA&#45;SPRAS -->
<g id="node29" class="node">
<title>DOMA&#45;SPRAS</title>
<g id="a_node29"><a xlink:href="./DOMA_SPRAS.html" xlink:title="DOMA&#45;SPRAS">
<polygon fill="none" stroke="green" points="1378.98,-108 1272.54,-108 1272.54,-72 1378.98,-72 1378.98,-108"/>
<text text-anchor="middle" x="1325.76" y="-85.8" font-family="Times,serif" font-size="14.00">DOMA&#45;SPRAS</text>
</a>
</g>
</g>
<!-- DTEL&#45;SPRAS&#45;&gt;DOMA&#45;SPRAS -->
<g id="edge57" class="edge">
<title>DTEL&#45;SPRAS&#45;&gt;DOMA&#45;SPRAS</title>
<path fill="none" stroke="black" d="M1325.76,-143.7C1325.76,-135.98 1325.76,-126.71 1325.76,-118.11"/>
<polygon fill="black" stroke="black" points="1329.26,-118.1 1325.76,-108.1 1322.26,-118.1 1329.26,-118.1"/>
</g>
<!-- CLAS&#45;CL_XCO_MESSAGE_TYPE&#45;&gt;INTF&#45;IF_XCO_NEWS -->
<g id="edge60" class="edge">
<title>CLAS&#45;CL_XCO_MESSAGE_TYPE&#45;&gt;INTF&#45;IF_XCO_NEWS</title>
<path fill="none" stroke="black" d="M530.91,-324.1C652.34,-363.18 949.67,-458.86 1079.91,-500.77"/>
<polygon fill="black" stroke="black" points="1079.15,-504.21 1089.74,-503.94 1081.3,-497.54 1079.15,-504.21"/>
</g>
<!-- CLAS&#45;CL_XCO_MESSAGE_TYPE&#45;&gt;DTEL&#45;SYMSGTY -->
<g id="edge58" class="edge">
<title>CLAS&#45;CL_XCO_MESSAGE_TYPE&#45;&gt;DTEL&#45;SYMSGTY</title>
<path fill="none" stroke="black" d="M484.44,-287.7C487.48,-279.81 491.14,-270.3 494.52,-261.55"/>
<polygon fill="black" stroke="black" points="497.83,-262.69 498.16,-252.1 491.3,-260.17 497.83,-262.69"/>
</g>
<!-- CLAS&#45;CL_XCO_ENUM_CONSTANT -->
<g id="node31" class="node">
<title>CLAS&#45;CL_XCO_ENUM_CONSTANT</title>
<g id="a_node31"><a xlink:href="./CLAS_CL_XCO_ENUM_CONSTANT.html" xlink:title="CLAS&#45;CL_XCO_ENUM_CONSTANT">
<polygon fill="none" stroke="yellow" points="384,-252 143.52,-252 143.52,-216 384,-216 384,-252"/>
<text text-anchor="middle" x="263.76" y="-229.8" font-family="Times,serif" font-size="14.00">CLAS&#45;CL_XCO_ENUM_CONSTANT</text>
</a>
</g>
</g>
<!-- CLAS&#45;CL_XCO_MESSAGE_TYPE&#45;&gt;CLAS&#45;CL_XCO_ENUM_CONSTANT -->
<g id="edge59" class="edge">
<title>CLAS&#45;CL_XCO_MESSAGE_TYPE&#45;&gt;CLAS&#45;CL_XCO_ENUM_CONSTANT</title>
<path fill="none" stroke="black" d="M425.68,-287.97C395.52,-278.1 357.38,-265.62 325.68,-255.25"/>
<polygon fill="black" stroke="black" points="326.66,-251.89 316.07,-252.11 324.49,-258.55 326.66,-251.89"/>
</g>
<!-- CLAS&#45;CL_XCO_ENUM_CONSTANT&#45;&gt;INTF&#45;IF_XCO_PRINTABLE -->
<g id="edge61" class="edge">
<title>CLAS&#45;CL_XCO_ENUM_CONSTANT&#45;&gt;INTF&#45;IF_XCO_PRINTABLE</title>
<path fill="none" stroke="black" d="M252.78,-252.16C237.26,-278.11 210.76,-329.37 210.76,-377 210.76,-811 210.76,-811 210.76,-811 210.76,-852.52 226.8,-898.39 238.56,-926.46"/>
<polygon fill="black" stroke="black" points="235.49,-928.16 242.67,-935.95 241.91,-925.38 235.49,-928.16"/>
</g>
<!-- TABL&#45;SYMSG&#45;&gt;DTEL&#45;SYMSGNO -->
<g id="edge64" class="edge">
<title>TABL&#45;SYMSG&#45;&gt;DTEL&#45;SYMSGNO</title>
<path fill="none" stroke="black" d="M984.52,-291.63C1006.2,-283.56 1029.71,-271.04 1044.76,-252 1074.81,-213.98 1070.35,-191.29 1059.76,-144 1057.75,-135.01 1054.03,-125.75 1050.07,-117.53"/>
<polygon fill="black" stroke="black" points="1053.08,-115.73 1045.39,-108.44 1046.85,-118.94 1053.08,-115.73"/>
</g>
<!-- TABL&#45;SYMSG&#45;&gt;DTEL&#45;SYMSGID -->
<g id="edge63" class="edge">
<title>TABL&#45;SYMSG&#45;&gt;DTEL&#45;SYMSGID</title>
<path fill="none" stroke="black" d="M925.23,-287.84C910.31,-248.83 874.25,-155.94 864.76,-144 855.5,-132.36 843.04,-122.11 830.99,-113.8"/>
<polygon fill="black" stroke="black" points="832.62,-110.68 822.34,-108.11 828.77,-116.53 832.62,-110.68"/>
</g>
<!-- TABL&#45;SYMSG&#45;&gt;DTEL&#45;SYMSGTY -->
<g id="edge62" class="edge">
<title>TABL&#45;SYMSG&#45;&gt;DTEL&#45;SYMSGTY</title>
<path fill="none" stroke="black" d="M878.84,-295.92C863.64,-293.34 847.05,-290.54 831.76,-288 743.93,-273.42 642.75,-257.09 576.48,-246.46"/>
<polygon fill="black" stroke="black" points="576.99,-243 566.56,-244.87 575.88,-249.91 576.99,-243"/>
</g>
<!-- TABL&#45;SYMSG&#45;&gt;DTEL&#45;SYMSGV -->
<g id="edge65" class="edge">
<title>TABL&#45;SYMSG&#45;&gt;DTEL&#45;SYMSGV</title>
<path fill="none" stroke="black" d="M943.38,-287.7C948.9,-279.47 955.61,-269.48 961.69,-260.42"/>
<polygon fill="black" stroke="black" points="964.61,-262.36 967.28,-252.1 958.8,-258.46 964.61,-262.36"/>
</g>
<!-- INTF&#45;IF_XCO_XSTRING&#45;&gt;INTF&#45;IF_XCO_STRING -->
<g id="edge67" class="edge">
<title>INTF&#45;IF_XCO_XSTRING&#45;&gt;INTF&#45;IF_XCO_STRING</title>
<path fill="none" stroke="black" d="M391.97,-540.11C430.04,-550.12 477.02,-562.79 514.74,-573.23"/>
<polygon fill="black" stroke="black" points="514.05,-576.67 524.62,-575.97 515.92,-569.92 514.05,-576.67"/>
</g>
<!-- INTF&#45;IF_XCO_XSTRING_STRING_CNVRSN -->
<g id="node34" class="node">
<title>INTF&#45;IF_XCO_XSTRING_STRING_CNVRSN</title>
<g id="a_node34"><a xlink:href="./INTF_IF_XCO_XSTRING_STRING_CNVRSN.html" xlink:title="INTF&#45;IF_XCO_XSTRING_STRING_CNVRSN">
<polygon fill="none" stroke="green" points="528.49,-468 239.03,-468 239.03,-432 528.49,-432 528.49,-468"/>
<text text-anchor="middle" x="383.76" y="-445.8" font-family="Times,serif" font-size="14.00">INTF&#45;IF_XCO_XSTRING_STRING_CNVRSN</text>
</a>
</g>
</g>
<!-- INTF&#45;IF_XCO_XSTRING&#45;&gt;INTF&#45;IF_XCO_XSTRING_STRING_CNVRSN -->
<g id="edge66" class="edge">
<title>INTF&#45;IF_XCO_XSTRING&#45;&gt;INTF&#45;IF_XCO_XSTRING_STRING_CNVRSN</title>
<path fill="none" stroke="black" d="M337.84,-503.7C345.15,-495.3 354.07,-485.07 362.1,-475.86"/>
<polygon fill="black" stroke="black" points="364.92,-477.94 368.86,-468.1 359.65,-473.34 364.92,-477.94"/>
</g>
<!-- INTF&#45;IF_XCO_STRING_DECOMPOSITION&#45;&gt;INTF&#45;IF_XCO_STRINGS -->
<g id="edge69" class="edge">
<title>INTF&#45;IF_XCO_STRING_DECOMPOSITION&#45;&gt;INTF&#45;IF_XCO_STRINGS</title>
<path fill="none" stroke="black" d="M980.97,-540.02C1035.41,-557.31 1107.21,-590.03 1141.76,-648 1166.33,-689.23 1173.43,-719.93 1141.76,-756 1121.36,-779.22 941.64,-795.31 827.94,-803.27"/>
<polygon fill="black" stroke="black" points="827.57,-799.79 817.84,-803.97 828.05,-806.77 827.57,-799.79"/>
</g>
<!-- INTF&#45;IF_XCO_STRING_DECOMPOSITION&#45;&gt;INTF&#45;IF_XCO_STRING -->
<g id="edge68" class="edge">
<title>INTF&#45;IF_XCO_STRING_DECOMPOSITION&#45;&gt;INTF&#45;IF_XCO_STRING</title>
<path fill="none" stroke="black" d="M836.54,-540.04C787.39,-550.74 722.7,-564.51 670.79,-575.33"/>
<polygon fill="black" stroke="black" points="669.99,-571.91 660.92,-577.38 671.42,-578.77 669.99,-571.91"/>
</g>
<!-- INTF&#45;IF_XCO_STRING_COMPOSITION&#45;&gt;INTF&#45;IF_XCO_STRINGS -->
<g id="edge70" class="edge">
<title>INTF&#45;IF_XCO_STRING_COMPOSITION&#45;&gt;INTF&#45;IF_XCO_STRINGS</title>
<path fill="none" stroke="black" d="M498.59,-756.05C546.23,-766.24 605.57,-779.2 652.87,-789.75"/>
<polygon fill="black" stroke="black" points="652.25,-793.2 662.78,-791.97 653.78,-786.37 652.25,-793.2"/>
</g>
<!-- INTF&#45;IF_XCO_STRING_COMPOSITION&#45;&gt;INTF&#45;IF_XCO_STRING -->
<g id="edge71" class="edge">
<title>INTF&#45;IF_XCO_STRING_COMPOSITION&#45;&gt;INTF&#45;IF_XCO_STRING</title>
<path fill="none" stroke="black" d="M434.91,-719.87C464.62,-694.6 520.31,-647.25 553.91,-618.68"/>
<polygon fill="black" stroke="black" points="556.19,-621.33 561.55,-612.19 551.66,-616 556.19,-621.33"/>
</g>
<!-- DOMA&#45;INT4 -->
<g id="node40" class="node">
<title>DOMA&#45;INT4</title>
<g id="a_node40"><a xlink:href="./DOMA_INT4.html" xlink:title="DOMA&#45;INT4">
<polygon fill="none" stroke="yellow" points="1132.51,-684 1039.02,-684 1039.02,-648 1132.51,-648 1132.51,-684"/>
<text text-anchor="middle" x="1085.76" y="-661.8" font-family="Times,serif" font-size="14.00">DOMA&#45;INT4</text>
</a>
</g>
</g>
<!-- DTEL&#45;INT4&#45;&gt;DOMA&#45;INT4 -->
<g id="edge72" class="edge">
<title>DTEL&#45;INT4&#45;&gt;DOMA&#45;INT4</title>
<path fill="none" stroke="black" d="M1088.77,-719.7C1088.33,-711.98 1087.8,-702.71 1087.31,-694.11"/>
<polygon fill="black" stroke="black" points="1090.8,-693.89 1086.74,-684.1 1083.81,-694.29 1090.8,-693.89"/>
</g>
<!-- DOMA&#45;TR_TARGET -->
<g id="node42" class="node">
<title>DOMA&#45;TR_TARGET</title>
<g id="a_node42"><a xlink:href="./DOMA_TR_TARGET.html" xlink:title="DOMA&#45;TR_TARGET">
<polygon fill="none" stroke="yellow" points="143.28,-900 0.24,-900 0.24,-864 143.28,-864 143.28,-900"/>
<text text-anchor="middle" x="71.76" y="-877.8" font-family="Times,serif" font-size="14.00">DOMA&#45;TR_TARGET</text>
</a>
</g>
</g>
<!-- DTEL&#45;TR_TARGET&#45;&gt;DOMA&#45;TR_TARGET -->
<g id="edge73" class="edge">
<title>DTEL&#45;TR_TARGET&#45;&gt;DOMA&#45;TR_TARGET</title>
<path fill="none" stroke="black" d="M71.76,-935.7C71.76,-927.98 71.76,-918.71 71.76,-910.11"/>
<polygon fill="black" stroke="black" points="75.26,-910.1 71.76,-900.1 68.26,-910.1 75.26,-910.1"/>
</g>
<!-- DOMA&#45;DEVLAYER -->
<g id="node44" class="node">
<title>DOMA&#45;DEVLAYER</title>
<g id="a_node44"><a xlink:href="./DOMA_DEVLAYER.html" xlink:title="DOMA&#45;DEVLAYER">
<polygon fill="none" stroke="yellow" points="515.11,-972 376.42,-972 376.42,-936 515.11,-936 515.11,-972"/>
<text text-anchor="middle" x="445.76" y="-949.8" font-family="Times,serif" font-size="14.00">DOMA&#45;DEVLAYER</text>
</a>
</g>
</g>
<!-- DTEL&#45;DEVLAYER&#45;&gt;DOMA&#45;DEVLAYER -->
<g id="edge74" class="edge">
<title>DTEL&#45;DEVLAYER&#45;&gt;DOMA&#45;DEVLAYER</title>
<path fill="none" stroke="black" d="M445.76,-1007.7C445.76,-999.98 445.76,-990.71 445.76,-982.11"/>
<polygon fill="black" stroke="black" points="449.26,-982.1 445.76,-972.1 442.26,-982.1 449.26,-982.1"/>
</g>
</g>
</svg>
