<?xml version="1.0" encoding="UTF-8" standalone="no"?>
<!DOCTYPE svg PUBLIC "-//W3C//DTD SVG 1.1//EN"
 "http://www.w3.org/Graphics/SVG/1.1/DTD/svg11.dtd">
<!-- Generated by graphviz version 2.47.3 (20210619.1520)
 -->
<!-- Title: G Pages: 1 -->
<svg width="649pt" height="404pt"
 viewBox="0.00 0.00 649.05 404.00" xmlns="http://www.w3.org/2000/svg" xmlns:xlink="http://www.w3.org/1999/xlink">
<g id="graph0" class="graph" transform="scale(1 1) rotate(0) translate(4 400)">
<title>G</title>
<polygon fill="white" stroke="transparent" points="-4,4 -4,-400 645.05,-400 645.05,4 -4,4"/>
<!-- INTF&#45;IF_FDT_CP_TEXT_RULE -->
<g id="node1" class="node">
<title>INTF&#45;IF_FDT_CP_TEXT_RULE</title>
<polygon fill="none" stroke="green" points="313.42,-396 105.26,-396 105.26,-360 313.42,-360 313.42,-396"/>
<text text-anchor="middle" x="209.34" y="-373.8" font-family="Times,serif" font-size="14.00">INTF&#45;IF_FDT_CP_TEXT_RULE</text>
</g>
<!-- INTF&#45;IF_FDT_CP_ADMIN_DATA -->
<g id="node2" class="node">
<title>INTF&#45;IF_FDT_CP_ADMIN_DATA</title>
<g id="a_node2"><a xlink:href="./INTF_IF_FDT_CP_ADMIN_DATA.html" xlink:title="INTF&#45;IF_FDT_CP_ADMIN_DATA">
<polygon fill="none" stroke="green" points="237.4,-252 15.27,-252 15.27,-216 237.4,-216 237.4,-252"/>
<text text-anchor="middle" x="126.34" y="-229.8" font-family="Times,serif" font-size="14.00">INTF&#45;IF_FDT_CP_ADMIN_DATA</text>
</a>
</g>
</g>
<!-- INTF&#45;IF_FDT_CP_TEXT_RULE&#45;&gt;INTF&#45;IF_FDT_CP_ADMIN_DATA -->
<g id="edge4" class="edge">
<title>INTF&#45;IF_FDT_CP_TEXT_RULE&#45;&gt;INTF&#45;IF_FDT_CP_ADMIN_DATA</title>
<path fill="none" stroke="black" d="M199.33,-359.87C184.93,-335.24 158.27,-289.64 141.47,-260.88"/>
<polygon fill="black" stroke="black" points="144.45,-259.06 136.39,-252.19 138.41,-262.59 144.45,-259.06"/>
</g>
<!-- INTF&#45;IF_FDT_CP_EXTERNAL_TYPES -->
<g id="node3" class="node">
<title>INTF&#45;IF_FDT_CP_EXTERNAL_TYPES</title>
<g id="a_node3"><a xlink:href="./INTF_IF_FDT_CP_EXTERNAL_TYPES.html" xlink:title="INTF&#45;IF_FDT_CP_EXTERNAL_TYPES">
<polygon fill="none" stroke="green" points="254.75,-180 1.93,-180 1.93,-144 254.75,-144 254.75,-180"/>
<text text-anchor="middle" x="128.34" y="-157.8" font-family="Times,serif" font-size="14.00">INTF&#45;IF_FDT_CP_EXTERNAL_TYPES</text>
</a>
</g>
</g>
<!-- INTF&#45;IF_FDT_CP_TEXT_RULE&#45;&gt;INTF&#45;IF_FDT_CP_EXTERNAL_TYPES -->
<g id="edge1" class="edge">
<title>INTF&#45;IF_FDT_CP_TEXT_RULE&#45;&gt;INTF&#45;IF_FDT_CP_EXTERNAL_TYPES</title>
<path fill="none" stroke="black" d="M153.62,-359.96C105.01,-341.8 37.52,-307.83 6.34,-252 -1.46,-238.03 -2.44,-229.38 6.34,-216 15.36,-202.25 28.8,-192.04 43.51,-184.48"/>
<polygon fill="black" stroke="black" points="45.25,-187.53 52.8,-180.11 42.26,-181.2 45.25,-187.53"/>
</g>
<!-- INTF&#45;IF_FDT_CP_ACTIONS -->
<g id="node7" class="node">
<title>INTF&#45;IF_FDT_CP_ACTIONS</title>
<g id="a_node7"><a xlink:href="./INTF_IF_FDT_CP_ACTIONS.html" xlink:title="INTF&#45;IF_FDT_CP_ACTIONS">
<polygon fill="none" stroke="green" points="641.26,-252 451.42,-252 451.42,-216 641.26,-216 641.26,-252"/>
<text text-anchor="middle" x="546.34" y="-229.8" font-family="Times,serif" font-size="14.00">INTF&#45;IF_FDT_CP_ACTIONS</text>
</a>
</g>
</g>
<!-- INTF&#45;IF_FDT_CP_TEXT_RULE&#45;&gt;INTF&#45;IF_FDT_CP_ACTIONS -->
<g id="edge3" class="edge">
<title>INTF&#45;IF_FDT_CP_TEXT_RULE&#45;&gt;INTF&#45;IF_FDT_CP_ACTIONS</title>
<path fill="none" stroke="black" d="M272.13,-359.91C303.84,-350.56 342.64,-338.04 376.34,-324 423.28,-304.44 474.68,-276.56 508.54,-257.24"/>
<polygon fill="black" stroke="black" points="510.68,-260.05 517.6,-252.03 507.19,-253.98 510.68,-260.05"/>
</g>
<!-- INTF&#45;IF_FDT_CP_RULE -->
<g id="node8" class="node">
<title>INTF&#45;IF_FDT_CP_RULE</title>
<g id="a_node8"><a xlink:href="./INTF_IF_FDT_CP_RULE.html" xlink:title="INTF&#45;IF_FDT_CP_RULE">
<polygon fill="none" stroke="green" points="367.15,-324 201.52,-324 201.52,-288 367.15,-288 367.15,-324"/>
<text text-anchor="middle" x="284.34" y="-301.8" font-family="Times,serif" font-size="14.00">INTF&#45;IF_FDT_CP_RULE</text>
</a>
</g>
</g>
<!-- INTF&#45;IF_FDT_CP_TEXT_RULE&#45;&gt;INTF&#45;IF_FDT_CP_RULE -->
<g id="edge2" class="edge">
<title>INTF&#45;IF_FDT_CP_TEXT_RULE&#45;&gt;INTF&#45;IF_FDT_CP_RULE</title>
<path fill="none" stroke="black" d="M227.88,-359.7C237.14,-351.05 248.5,-340.45 258.59,-331.03"/>
<polygon fill="black" stroke="black" points="261.09,-333.49 266.01,-324.1 256.31,-328.37 261.09,-333.49"/>
</g>
<!-- INTF&#45;IF_FDT_CP_ADMIN_DATA&#45;&gt;INTF&#45;IF_FDT_CP_EXTERNAL_TYPES -->
<g id="edge5" class="edge">
<title>INTF&#45;IF_FDT_CP_ADMIN_DATA&#45;&gt;INTF&#45;IF_FDT_CP_EXTERNAL_TYPES</title>
<path fill="none" stroke="black" d="M126.83,-215.7C127.05,-207.98 127.32,-198.71 127.56,-190.11"/>
<polygon fill="black" stroke="black" points="131.06,-190.2 127.85,-180.1 124.07,-190 131.06,-190.2"/>
</g>
<!-- INTF&#45;IF_FDT_CP_AST_NODE -->
<g id="node4" class="node">
<title>INTF&#45;IF_FDT_CP_AST_NODE</title>
<g id="a_node4"><a xlink:href="./INTF_IF_FDT_CP_AST_NODE.html" xlink:title="INTF&#45;IF_FDT_CP_AST_NODE">
<polygon fill="none" stroke="green" points="228.92,-108 27.76,-108 27.76,-72 228.92,-72 228.92,-108"/>
<text text-anchor="middle" x="128.34" y="-85.8" font-family="Times,serif" font-size="14.00">INTF&#45;IF_FDT_CP_AST_NODE</text>
</a>
</g>
</g>
<!-- INTF&#45;IF_FDT_CP_EXTERNAL_TYPES&#45;&gt;INTF&#45;IF_FDT_CP_AST_NODE -->
<g id="edge7" class="edge">
<title>INTF&#45;IF_FDT_CP_EXTERNAL_TYPES&#45;&gt;INTF&#45;IF_FDT_CP_AST_NODE</title>
<path fill="none" stroke="black" d="M122.42,-143.7C121.63,-135.98 121.4,-126.71 121.74,-118.11"/>
<polygon fill="black" stroke="black" points="125.24,-118.32 122.44,-108.1 118.25,-117.84 125.24,-118.32"/>
</g>
<!-- DTEL&#45;CHAR1 -->
<g id="node5" class="node">
<title>DTEL&#45;CHAR1</title>
<g id="a_node5"><a xlink:href="./DTEL_CHAR1.html" xlink:title="DTEL&#45;CHAR1">
<polygon fill="none" stroke="yellow" points="352.65,-108 250.03,-108 250.03,-72 352.65,-72 352.65,-108"/>
<text text-anchor="middle" x="301.34" y="-85.8" font-family="Times,serif" font-size="14.00">DTEL&#45;CHAR1</text>
</a>
</g>
</g>
<!-- INTF&#45;IF_FDT_CP_EXTERNAL_TYPES&#45;&gt;DTEL&#45;CHAR1 -->
<g id="edge6" class="edge">
<title>INTF&#45;IF_FDT_CP_EXTERNAL_TYPES&#45;&gt;DTEL&#45;CHAR1</title>
<path fill="none" stroke="black" d="M170.66,-143.88C194.52,-134.22 224.51,-122.09 249.74,-111.88"/>
<polygon fill="black" stroke="black" points="251.2,-115.06 259.16,-108.07 248.57,-108.57 251.2,-115.06"/>
</g>
<!-- INTF&#45;IF_FDT_CP_AST_NODE&#45;&gt;INTF&#45;IF_FDT_CP_EXTERNAL_TYPES -->
<g id="edge8" class="edge">
<title>INTF&#45;IF_FDT_CP_AST_NODE&#45;&gt;INTF&#45;IF_FDT_CP_EXTERNAL_TYPES</title>
<path fill="none" stroke="black" d="M134.23,-108.1C135.04,-115.79 135.28,-125.05 134.94,-133.67"/>
<polygon fill="black" stroke="black" points="131.45,-133.48 134.25,-143.7 138.43,-133.96 131.45,-133.48"/>
</g>
<!-- DOMA&#45;CHAR1 -->
<g id="node6" class="node">
<title>DOMA&#45;CHAR1</title>
<g id="a_node6"><a xlink:href="./DOMA_CHAR1.html" xlink:title="DOMA&#45;CHAR1">
<polygon fill="none" stroke="green" points="356.15,-36 246.53,-36 246.53,0 356.15,0 356.15,-36"/>
<text text-anchor="middle" x="301.34" y="-13.8" font-family="Times,serif" font-size="14.00">DOMA&#45;CHAR1</text>
</a>
</g>
</g>
<!-- DTEL&#45;CHAR1&#45;&gt;DOMA&#45;CHAR1 -->
<g id="edge9" class="edge">
<title>DTEL&#45;CHAR1&#45;&gt;DOMA&#45;CHAR1</title>
<path fill="none" stroke="black" d="M301.34,-71.7C301.34,-63.98 301.34,-54.71 301.34,-46.11"/>
<polygon fill="black" stroke="black" points="304.84,-46.1 301.34,-36.1 297.84,-46.1 304.84,-46.1"/>
</g>
<!-- INTF&#45;IF_FDT_CP_RULE&#45;&gt;INTF&#45;IF_FDT_CP_ADMIN_DATA -->
<g id="edge13" class="edge">
<title>INTF&#45;IF_FDT_CP_RULE&#45;&gt;INTF&#45;IF_FDT_CP_ADMIN_DATA</title>
<path fill="none" stroke="black" d="M245.69,-287.88C224.09,-278.31 196.99,-266.3 174.07,-256.15"/>
<polygon fill="black" stroke="black" points="175.42,-252.92 164.86,-252.07 172.59,-259.32 175.42,-252.92"/>
</g>
<!-- INTF&#45;IF_FDT_CP_RULE&#45;&gt;INTF&#45;IF_FDT_CP_EXTERNAL_TYPES -->
<g id="edge12" class="edge">
<title>INTF&#45;IF_FDT_CP_RULE&#45;&gt;INTF&#45;IF_FDT_CP_EXTERNAL_TYPES</title>
<path fill="none" stroke="black" d="M280.96,-287.82C276.3,-268.18 266.11,-236.14 246.34,-216 233,-202.41 215.55,-192.01 198.18,-184.17"/>
<polygon fill="black" stroke="black" points="199.13,-180.78 188.56,-180.08 196.39,-187.22 199.13,-180.78"/>
</g>
<!-- INTF&#45;IF_FDT_CP_RULE&#45;&gt;DTEL&#45;CHAR1 -->
<g id="edge11" class="edge">
<title>INTF&#45;IF_FDT_CP_RULE&#45;&gt;DTEL&#45;CHAR1</title>
<path fill="none" stroke="black" d="M285.7,-287.85C288.64,-250.83 295.6,-163.18 299.16,-118.39"/>
<polygon fill="black" stroke="black" points="302.67,-118.48 299.97,-108.23 295.69,-117.92 302.67,-118.48"/>
</g>
<!-- INTF&#45;IF_FDT_CP_RULE&#45;&gt;INTF&#45;IF_FDT_CP_ACTIONS -->
<g id="edge14" class="edge">
<title>INTF&#45;IF_FDT_CP_RULE&#45;&gt;INTF&#45;IF_FDT_CP_ACTIONS</title>
<path fill="none" stroke="black" d="M348.1,-287.97C385.66,-277.93 433.34,-265.19 472.53,-254.72"/>
<polygon fill="black" stroke="black" points="473.54,-258.07 482.29,-252.11 471.73,-251.31 473.54,-258.07"/>
</g>
<!-- DTEL&#45;CHAR2 -->
<g id="node9" class="node">
<title>DTEL&#45;CHAR2</title>
<g id="a_node9"><a xlink:href="./DTEL_CHAR2.html" xlink:title="DTEL&#45;CHAR2">
<polygon fill="none" stroke="yellow" points="433.65,-252 331.03,-252 331.03,-216 433.65,-216 433.65,-252"/>
<text text-anchor="middle" x="382.34" y="-229.8" font-family="Times,serif" font-size="14.00">DTEL&#45;CHAR2</text>
</a>
</g>
</g>
<!-- INTF&#45;IF_FDT_CP_RULE&#45;&gt;DTEL&#45;CHAR2 -->
<g id="edge10" class="edge">
<title>INTF&#45;IF_FDT_CP_RULE&#45;&gt;DTEL&#45;CHAR2</title>
<path fill="none" stroke="black" d="M308.31,-287.88C320.89,-278.89 336.47,-267.76 350.09,-258.03"/>
<polygon fill="black" stroke="black" points="352.17,-260.85 358.27,-252.19 348.1,-255.15 352.17,-260.85"/>
</g>
<!-- DOMA&#45;CHAR2 -->
<g id="node10" class="node">
<title>DOMA&#45;CHAR2</title>
<g id="a_node10"><a xlink:href="./DOMA_CHAR2.html" xlink:title="DOMA&#45;CHAR2">
<polygon fill="none" stroke="yellow" points="441.15,-180 331.53,-180 331.53,-144 441.15,-144 441.15,-180"/>
<text text-anchor="middle" x="386.34" y="-157.8" font-family="Times,serif" font-size="14.00">DOMA&#45;CHAR2</text>
</a>
</g>
</g>
<!-- DTEL&#45;CHAR2&#45;&gt;DOMA&#45;CHAR2 -->
<g id="edge15" class="edge">
<title>DTEL&#45;CHAR2&#45;&gt;DOMA&#45;CHAR2</title>
<path fill="none" stroke="black" d="M383.33,-215.7C383.77,-207.98 384.3,-198.71 384.79,-190.11"/>
<polygon fill="black" stroke="black" points="388.28,-190.29 385.36,-180.1 381.3,-189.89 388.28,-190.29"/>
</g>
</g>
</svg>
