<?xml version="1.0" encoding="UTF-8" standalone="no"?>
<!DOCTYPE svg PUBLIC "-//W3C//DTD SVG 1.1//EN"
 "http://www.w3.org/Graphics/SVG/1.1/DTD/svg11.dtd">
<!-- Generated by graphviz version 2.47.3 (20210619.1520)
 -->
<!-- Title: G Pages: 1 -->
<svg width="319pt" height="260pt"
 viewBox="0.00 0.00 318.73 260.00" xmlns="http://www.w3.org/2000/svg" xmlns:xlink="http://www.w3.org/1999/xlink">
<g id="graph0" class="graph" transform="scale(1 1) rotate(0) translate(4 256)">
<title>G</title>
<polygon fill="white" stroke="transparent" points="-4,4 -4,-256 314.73,-256 314.73,4 -4,4"/>
<!-- INTF&#45;IF_XCO_CP_TM_TIME_ZONE_FACTORY -->
<g id="node1" class="node">
<title>INTF&#45;IF_XCO_CP_TM_TIME_ZONE_FACTORY</title>
<polygon fill="none" stroke="green" points="310.59,-252 0.14,-252 0.14,-216 310.59,-216 310.59,-252"/>
<text text-anchor="middle" x="155.36" y="-229.8" font-family="Times,serif" font-size="14.00">INTF&#45;IF_XCO_CP_TM_TIME_ZONE_FACTORY</text>
</g>
<!-- INTF&#45;IF_XCO_TM_TIME_ZONE -->
<g id="node2" class="node">
<title>INTF&#45;IF_XCO_TM_TIME_ZONE</title>
<g id="a_node2"><a xlink:href="./INTF_IF_XCO_TM_TIME_ZONE.html" xlink:title="INTF&#45;IF_XCO_TM_TIME_ZONE">
<polygon fill="none" stroke="green" points="262.65,-180 48.08,-180 48.08,-144 262.65,-144 262.65,-180"/>
<text text-anchor="middle" x="155.36" y="-157.8" font-family="Times,serif" font-size="14.00">INTF&#45;IF_XCO_TM_TIME_ZONE</text>
</a>
</g>
</g>
<!-- INTF&#45;IF_XCO_CP_TM_TIME_ZONE_FACTORY&#45;&gt;INTF&#45;IF_XCO_TM_TIME_ZONE -->
<g id="edge1" class="edge">
<title>INTF&#45;IF_XCO_CP_TM_TIME_ZONE_FACTORY&#45;&gt;INTF&#45;IF_XCO_TM_TIME_ZONE</title>
<path fill="none" stroke="black" d="M155.36,-215.7C155.36,-207.98 155.36,-198.71 155.36,-190.11"/>
<polygon fill="black" stroke="black" points="158.86,-190.1 155.36,-180.1 151.86,-190.1 158.86,-190.1"/>
</g>
<!-- DTEL&#45;TZNTSTMPS -->
<g id="node3" class="node">
<title>DTEL&#45;TZNTSTMPS</title>
<g id="a_node3"><a xlink:href="./DTEL_TZNTSTMPS.html" xlink:title="DTEL&#45;TZNTSTMPS">
<polygon fill="none" stroke="green" points="143.4,-108 7.33,-108 7.33,-72 143.4,-72 143.4,-108"/>
<text text-anchor="middle" x="75.36" y="-85.8" font-family="Times,serif" font-size="14.00">DTEL&#45;TZNTSTMPS</text>
</a>
</g>
</g>
<!-- INTF&#45;IF_XCO_TM_TIME_ZONE&#45;&gt;DTEL&#45;TZNTSTMPS -->
<g id="edge3" class="edge">
<title>INTF&#45;IF_XCO_TM_TIME_ZONE&#45;&gt;DTEL&#45;TZNTSTMPS</title>
<path fill="none" stroke="black" d="M135.59,-143.7C125.61,-134.97 113.35,-124.24 102.51,-114.75"/>
<polygon fill="black" stroke="black" points="104.74,-112.06 94.91,-108.1 100.13,-117.32 104.74,-112.06"/>
</g>
<!-- DTEL&#45;TZNZONESYS -->
<g id="node5" class="node">
<title>DTEL&#45;TZNZONESYS</title>
<g id="a_node5"><a xlink:href="./DTEL_TZNZONESYS.html" xlink:title="DTEL&#45;TZNZONESYS">
<polygon fill="none" stroke="yellow" points="308.49,-108 162.24,-108 162.24,-72 308.49,-72 308.49,-108"/>
<text text-anchor="middle" x="235.36" y="-85.8" font-family="Times,serif" font-size="14.00">DTEL&#45;TZNZONESYS</text>
</a>
</g>
</g>
<!-- INTF&#45;IF_XCO_TM_TIME_ZONE&#45;&gt;DTEL&#45;TZNZONESYS -->
<g id="edge2" class="edge">
<title>INTF&#45;IF_XCO_TM_TIME_ZONE&#45;&gt;DTEL&#45;TZNZONESYS</title>
<path fill="none" stroke="black" d="M175.14,-143.7C185.12,-134.97 197.38,-124.24 208.22,-114.75"/>
<polygon fill="black" stroke="black" points="210.6,-117.32 215.82,-108.1 205.99,-112.06 210.6,-117.32"/>
</g>
<!-- DOMA&#45;TZNTSTMPS -->
<g id="node4" class="node">
<title>DOMA&#45;TZNTSTMPS</title>
<g id="a_node4"><a xlink:href="./DOMA_TZNTSTMPS.html" xlink:title="DOMA&#45;TZNTSTMPS">
<polygon fill="none" stroke="yellow" points="146.9,-36 3.83,-36 3.83,0 146.9,0 146.9,-36"/>
<text text-anchor="middle" x="75.36" y="-13.8" font-family="Times,serif" font-size="14.00">DOMA&#45;TZNTSTMPS</text>
</a>
</g>
</g>
<!-- DTEL&#45;TZNTSTMPS&#45;&gt;DOMA&#45;TZNTSTMPS -->
<g id="edge4" class="edge">
<title>DTEL&#45;TZNTSTMPS&#45;&gt;DOMA&#45;TZNTSTMPS</title>
<path fill="none" stroke="black" d="M75.36,-71.7C75.36,-63.98 75.36,-54.71 75.36,-46.11"/>
<polygon fill="black" stroke="black" points="78.86,-46.1 75.36,-36.1 71.86,-46.1 78.86,-46.1"/>
</g>
<!-- DOMA&#45;TZNZONE -->
<g id="node6" class="node">
<title>DOMA&#45;TZNZONE</title>
<g id="a_node6"><a xlink:href="./DOMA_TZNZONE.html" xlink:title="DOMA&#45;TZNZONE">
<polygon fill="none" stroke="yellow" points="299.32,-36 171.41,-36 171.41,0 299.32,0 299.32,-36"/>
<text text-anchor="middle" x="235.36" y="-13.8" font-family="Times,serif" font-size="14.00">DOMA&#45;TZNZONE</text>
</a>
</g>
</g>
<!-- DTEL&#45;TZNZONESYS&#45;&gt;DOMA&#45;TZNZONE -->
<g id="edge5" class="edge">
<title>DTEL&#45;TZNZONESYS&#45;&gt;DOMA&#45;TZNZONE</title>
<path fill="none" stroke="black" d="M235.36,-71.7C235.36,-63.98 235.36,-54.71 235.36,-46.11"/>
<polygon fill="black" stroke="black" points="238.86,-46.1 235.36,-36.1 231.86,-46.1 238.86,-46.1"/>
</g>
</g>
</svg>
