<?xml version="1.0" encoding="UTF-8" standalone="no"?>
<!DOCTYPE svg PUBLIC "-//W3C//DTD SVG 1.1//EN"
 "http://www.w3.org/Graphics/SVG/1.1/DTD/svg11.dtd">
<!-- Generated by graphviz version 2.47.3 (20210619.1520)
 -->
<!-- Title: G Pages: 1 -->
<svg width="641pt" height="332pt"
 viewBox="0.00 0.00 641.37 332.00" xmlns="http://www.w3.org/2000/svg" xmlns:xlink="http://www.w3.org/1999/xlink">
<g id="graph0" class="graph" transform="scale(1 1) rotate(0) translate(4 328)">
<title>G</title>
<polygon fill="white" stroke="transparent" points="-4,4 -4,-328 637.37,-328 637.37,4 -4,4"/>
<!-- INTF&#45;IF_FDT_CP_RULE -->
<g id="node1" class="node">
<title>INTF&#45;IF_FDT_CP_RULE</title>
<polygon fill="none" stroke="green" points="540.53,-324 374.89,-324 374.89,-288 540.53,-288 540.53,-324"/>
<text text-anchor="middle" x="457.71" y="-301.8" font-family="Times,serif" font-size="14.00">INTF&#45;IF_FDT_CP_RULE</text>
</g>
<!-- INTF&#45;IF_FDT_CP_ACTIONS -->
<g id="node2" class="node">
<title>INTF&#45;IF_FDT_CP_ACTIONS</title>
<g id="a_node2"><a xlink:href="./INTF_IF_FDT_CP_ACTIONS.html" xlink:title="INTF&#45;IF_FDT_CP_ACTIONS">
<polygon fill="none" stroke="green" points="189.63,-252 -0.21,-252 -0.21,-216 189.63,-216 189.63,-252"/>
<text text-anchor="middle" x="94.71" y="-229.8" font-family="Times,serif" font-size="14.00">INTF&#45;IF_FDT_CP_ACTIONS</text>
</a>
</g>
</g>
<!-- INTF&#45;IF_FDT_CP_RULE&#45;&gt;INTF&#45;IF_FDT_CP_ACTIONS -->
<g id="edge5" class="edge">
<title>INTF&#45;IF_FDT_CP_RULE&#45;&gt;INTF&#45;IF_FDT_CP_ACTIONS</title>
<path fill="none" stroke="black" d="M374.89,-289.03C320.8,-278.6 249.91,-264.93 192.98,-253.95"/>
<polygon fill="black" stroke="black" points="193.36,-250.46 182.88,-252 192.04,-257.33 193.36,-250.46"/>
</g>
<!-- INTF&#45;IF_FDT_CP_ADMIN_DATA -->
<g id="node3" class="node">
<title>INTF&#45;IF_FDT_CP_ADMIN_DATA</title>
<g id="a_node3"><a xlink:href="./INTF_IF_FDT_CP_ADMIN_DATA.html" xlink:title="INTF&#45;IF_FDT_CP_ADMIN_DATA">
<polygon fill="none" stroke="green" points="429.77,-252 207.65,-252 207.65,-216 429.77,-216 429.77,-252"/>
<text text-anchor="middle" x="318.71" y="-229.8" font-family="Times,serif" font-size="14.00">INTF&#45;IF_FDT_CP_ADMIN_DATA</text>
</a>
</g>
</g>
<!-- INTF&#45;IF_FDT_CP_RULE&#45;&gt;INTF&#45;IF_FDT_CP_ADMIN_DATA -->
<g id="edge4" class="edge">
<title>INTF&#45;IF_FDT_CP_RULE&#45;&gt;INTF&#45;IF_FDT_CP_ADMIN_DATA</title>
<path fill="none" stroke="black" d="M423.71,-287.88C405.11,-278.51 381.88,-266.81 362,-256.8"/>
<polygon fill="black" stroke="black" points="363.35,-253.56 352.84,-252.19 360.2,-259.81 363.35,-253.56"/>
</g>
<!-- INTF&#45;IF_FDT_CP_EXTERNAL_TYPES -->
<g id="node4" class="node">
<title>INTF&#45;IF_FDT_CP_EXTERNAL_TYPES</title>
<g id="a_node4"><a xlink:href="./INTF_IF_FDT_CP_EXTERNAL_TYPES.html" xlink:title="INTF&#45;IF_FDT_CP_EXTERNAL_TYPES">
<polygon fill="none" stroke="green" points="452.12,-180 199.3,-180 199.3,-144 452.12,-144 452.12,-180"/>
<text text-anchor="middle" x="325.71" y="-157.8" font-family="Times,serif" font-size="14.00">INTF&#45;IF_FDT_CP_EXTERNAL_TYPES</text>
</a>
</g>
</g>
<!-- INTF&#45;IF_FDT_CP_RULE&#45;&gt;INTF&#45;IF_FDT_CP_EXTERNAL_TYPES -->
<g id="edge3" class="edge">
<title>INTF&#45;IF_FDT_CP_RULE&#45;&gt;INTF&#45;IF_FDT_CP_EXTERNAL_TYPES</title>
<path fill="none" stroke="black" d="M458.37,-287.7C458.21,-268.24 455.12,-236.66 438.71,-216 427.84,-202.31 412.6,-191.99 396.82,-184.27"/>
<polygon fill="black" stroke="black" points="398.05,-180.98 387.5,-180.02 395.15,-187.35 398.05,-180.98"/>
</g>
<!-- DTEL&#45;CHAR1 -->
<g id="node6" class="node">
<title>DTEL&#45;CHAR1</title>
<g id="a_node6"><a xlink:href="./DTEL_CHAR1.html" xlink:title="DTEL&#45;CHAR1">
<polygon fill="none" stroke="yellow" points="547.02,-108 444.4,-108 444.4,-72 547.02,-72 547.02,-108"/>
<text text-anchor="middle" x="495.71" y="-85.8" font-family="Times,serif" font-size="14.00">DTEL&#45;CHAR1</text>
</a>
</g>
</g>
<!-- INTF&#45;IF_FDT_CP_RULE&#45;&gt;DTEL&#45;CHAR1 -->
<g id="edge2" class="edge">
<title>INTF&#45;IF_FDT_CP_RULE&#45;&gt;DTEL&#45;CHAR1</title>
<path fill="none" stroke="black" d="M460.76,-287.85C467.34,-250.75 482.96,-162.81 490.9,-118.1"/>
<polygon fill="black" stroke="black" points="494.35,-118.69 492.65,-108.23 487.46,-117.47 494.35,-118.69"/>
</g>
<!-- DTEL&#45;CHAR2 -->
<g id="node8" class="node">
<title>DTEL&#45;CHAR2</title>
<g id="a_node8"><a xlink:href="./DTEL_CHAR2.html" xlink:title="DTEL&#45;CHAR2">
<polygon fill="none" stroke="yellow" points="628.02,-252 525.4,-252 525.4,-216 628.02,-216 628.02,-252"/>
<text text-anchor="middle" x="576.71" y="-229.8" font-family="Times,serif" font-size="14.00">DTEL&#45;CHAR2</text>
</a>
</g>
</g>
<!-- INTF&#45;IF_FDT_CP_RULE&#45;&gt;DTEL&#45;CHAR2 -->
<g id="edge1" class="edge">
<title>INTF&#45;IF_FDT_CP_RULE&#45;&gt;DTEL&#45;CHAR2</title>
<path fill="none" stroke="black" d="M486.82,-287.88C502.38,-278.72 521.73,-267.34 538.49,-257.48"/>
<polygon fill="black" stroke="black" points="540.64,-260.28 547.49,-252.19 537.09,-254.24 540.64,-260.28"/>
</g>
<!-- INTF&#45;IF_FDT_CP_ADMIN_DATA&#45;&gt;INTF&#45;IF_FDT_CP_EXTERNAL_TYPES -->
<g id="edge6" class="edge">
<title>INTF&#45;IF_FDT_CP_ADMIN_DATA&#45;&gt;INTF&#45;IF_FDT_CP_EXTERNAL_TYPES</title>
<path fill="none" stroke="black" d="M320.44,-215.7C321.21,-207.98 322.14,-198.71 323,-190.11"/>
<polygon fill="black" stroke="black" points="326.49,-190.4 324,-180.1 319.52,-189.71 326.49,-190.4"/>
</g>
<!-- INTF&#45;IF_FDT_CP_AST_NODE -->
<g id="node5" class="node">
<title>INTF&#45;IF_FDT_CP_AST_NODE</title>
<g id="a_node5"><a xlink:href="./INTF_IF_FDT_CP_AST_NODE.html" xlink:title="INTF&#45;IF_FDT_CP_AST_NODE">
<polygon fill="none" stroke="green" points="426.29,-108 225.13,-108 225.13,-72 426.29,-72 426.29,-108"/>
<text text-anchor="middle" x="325.71" y="-85.8" font-family="Times,serif" font-size="14.00">INTF&#45;IF_FDT_CP_AST_NODE</text>
</a>
</g>
</g>
<!-- INTF&#45;IF_FDT_CP_EXTERNAL_TYPES&#45;&gt;INTF&#45;IF_FDT_CP_AST_NODE -->
<g id="edge8" class="edge">
<title>INTF&#45;IF_FDT_CP_EXTERNAL_TYPES&#45;&gt;INTF&#45;IF_FDT_CP_AST_NODE</title>
<path fill="none" stroke="black" d="M319.79,-143.7C319,-135.98 318.77,-126.71 319.11,-118.11"/>
<polygon fill="black" stroke="black" points="322.61,-118.32 319.81,-108.1 315.63,-117.84 322.61,-118.32"/>
</g>
<!-- INTF&#45;IF_FDT_CP_EXTERNAL_TYPES&#45;&gt;DTEL&#45;CHAR1 -->
<g id="edge7" class="edge">
<title>INTF&#45;IF_FDT_CP_EXTERNAL_TYPES&#45;&gt;DTEL&#45;CHAR1</title>
<path fill="none" stroke="black" d="M367.3,-143.88C390.74,-134.22 420.21,-122.09 445.01,-111.88"/>
<polygon fill="black" stroke="black" points="446.34,-115.11 454.26,-108.07 443.68,-108.64 446.34,-115.11"/>
</g>
<!-- INTF&#45;IF_FDT_CP_AST_NODE&#45;&gt;INTF&#45;IF_FDT_CP_EXTERNAL_TYPES -->
<g id="edge9" class="edge">
<title>INTF&#45;IF_FDT_CP_AST_NODE&#45;&gt;INTF&#45;IF_FDT_CP_EXTERNAL_TYPES</title>
<path fill="none" stroke="black" d="M331.6,-108.1C332.41,-115.79 332.65,-125.05 332.31,-133.67"/>
<polygon fill="black" stroke="black" points="328.82,-133.48 331.63,-143.7 335.8,-133.96 328.82,-133.48"/>
</g>
<!-- DOMA&#45;CHAR1 -->
<g id="node7" class="node">
<title>DOMA&#45;CHAR1</title>
<g id="a_node7"><a xlink:href="./DOMA_CHAR1.html" xlink:title="DOMA&#45;CHAR1">
<polygon fill="none" stroke="green" points="550.52,-36 440.9,-36 440.9,0 550.52,0 550.52,-36"/>
<text text-anchor="middle" x="495.71" y="-13.8" font-family="Times,serif" font-size="14.00">DOMA&#45;CHAR1</text>
</a>
</g>
</g>
<!-- DTEL&#45;CHAR1&#45;&gt;DOMA&#45;CHAR1 -->
<g id="edge10" class="edge">
<title>DTEL&#45;CHAR1&#45;&gt;DOMA&#45;CHAR1</title>
<path fill="none" stroke="black" d="M495.71,-71.7C495.71,-63.98 495.71,-54.71 495.71,-46.11"/>
<polygon fill="black" stroke="black" points="499.21,-46.1 495.71,-36.1 492.21,-46.1 499.21,-46.1"/>
</g>
<!-- DOMA&#45;CHAR2 -->
<g id="node9" class="node">
<title>DOMA&#45;CHAR2</title>
<g id="a_node9"><a xlink:href="./DOMA_CHAR2.html" xlink:title="DOMA&#45;CHAR2">
<polygon fill="none" stroke="yellow" points="633.52,-180 523.9,-180 523.9,-144 633.52,-144 633.52,-180"/>
<text text-anchor="middle" x="578.71" y="-157.8" font-family="Times,serif" font-size="14.00">DOMA&#45;CHAR2</text>
</a>
</g>
</g>
<!-- DTEL&#45;CHAR2&#45;&gt;DOMA&#45;CHAR2 -->
<g id="edge11" class="edge">
<title>DTEL&#45;CHAR2&#45;&gt;DOMA&#45;CHAR2</title>
<path fill="none" stroke="black" d="M577.2,-215.7C577.42,-207.98 577.69,-198.71 577.94,-190.11"/>
<polygon fill="black" stroke="black" points="581.43,-190.2 578.22,-180.1 574.44,-190 581.43,-190.2"/>
</g>
</g>
</svg>
