<?xml version="1.0" encoding="UTF-8" standalone="no"?>
<!DOCTYPE svg PUBLIC "-//W3C//DTD SVG 1.1//EN"
 "http://www.w3.org/Graphics/SVG/1.1/DTD/svg11.dtd">
<!-- Generated by graphviz version 2.47.3 (20210619.1520)
 -->
<!-- Title: G Pages: 1 -->
<svg width="850pt" height="404pt"
 viewBox="0.00 0.00 849.59 404.00" xmlns="http://www.w3.org/2000/svg" xmlns:xlink="http://www.w3.org/1999/xlink">
<g id="graph0" class="graph" transform="scale(1 1) rotate(0) translate(4 400)">
<title>G</title>
<polygon fill="white" stroke="transparent" points="-4,4 -4,-400 845.59,-400 845.59,4 -4,4"/>
<!-- INTF&#45;/IWCOR/IF_REST_RESPONSE -->
<g id="node1" class="node">
<title>INTF&#45;/IWCOR/IF_REST_RESPONSE</title>
<polygon fill="none" stroke="yellow" points="655.48,-396 418.74,-396 418.74,-360 655.48,-360 655.48,-396"/>
<text text-anchor="middle" x="537.11" y="-373.8" font-family="Times,serif" font-size="14.00">INTF&#45;/IWCOR/IF_REST_RESPONSE</text>
</g>
<!-- INTF&#45;/IWCOR/IF_REST_ENTITY -->
<g id="node2" class="node">
<title>INTF&#45;/IWCOR/IF_REST_ENTITY</title>
<g id="a_node2"><a xlink:href="./INTF_%23IWCOR%23IF_REST_ENTITY.html" xlink:title="INTF&#45;/IWCOR/IF_REST_ENTITY">
<polygon fill="none" stroke="yellow" points="433.01,-252 215.21,-252 215.21,-216 433.01,-216 433.01,-252"/>
<text text-anchor="middle" x="324.11" y="-229.8" font-family="Times,serif" font-size="14.00">INTF&#45;/IWCOR/IF_REST_ENTITY</text>
</a>
</g>
</g>
<!-- INTF&#45;/IWCOR/IF_REST_RESPONSE&#45;&gt;INTF&#45;/IWCOR/IF_REST_ENTITY -->
<g id="edge4" class="edge">
<title>INTF&#45;/IWCOR/IF_REST_RESPONSE&#45;&gt;INTF&#45;/IWCOR/IF_REST_ENTITY</title>
<path fill="none" stroke="black" d="M435.39,-359.95C394.5,-351.06 353.79,-338.9 340.11,-324 324.97,-307.51 321.73,-281.78 321.83,-262.22"/>
<polygon fill="black" stroke="black" points="325.33,-262.19 322.18,-252.08 318.34,-261.95 325.33,-262.19"/>
</g>
<!-- TTYP&#45;TIHTTPNVP -->
<g id="node9" class="node">
<title>TTYP&#45;TIHTTPNVP</title>
<g id="a_node9"><a xlink:href="./TTYP_TIHTTPNVP.html" xlink:title="TTYP&#45;TIHTTPNVP">
<polygon fill="none" stroke="green" points="604.97,-180 473.25,-180 473.25,-144 604.97,-144 604.97,-180"/>
<text text-anchor="middle" x="539.11" y="-157.8" font-family="Times,serif" font-size="14.00">TTYP&#45;TIHTTPNVP</text>
</a>
</g>
</g>
<!-- INTF&#45;/IWCOR/IF_REST_RESPONSE&#45;&gt;TTYP&#45;TIHTTPNVP -->
<g id="edge2" class="edge">
<title>INTF&#45;/IWCOR/IF_REST_RESPONSE&#45;&gt;TTYP&#45;TIHTTPNVP</title>
<path fill="none" stroke="black" d="M561.58,-359.77C572.51,-350.56 584.23,-338.19 590.11,-324 609.39,-277.45 579.8,-220.85 558.27,-188.67"/>
<polygon fill="black" stroke="black" points="561.02,-186.5 552.46,-180.26 555.27,-190.48 561.02,-186.5"/>
</g>
<!-- INTF&#45;/IWCOR/IF_REST_MESSAGE -->
<g id="node13" class="node">
<title>INTF&#45;/IWCOR/IF_REST_MESSAGE</title>
<g id="a_node13"><a xlink:href="./INTF_%23IWCOR%23IF_REST_MESSAGE.html" xlink:title="INTF&#45;/IWCOR/IF_REST_MESSAGE">
<polygon fill="none" stroke="yellow" points="581.3,-324 348.91,-324 348.91,-288 581.3,-288 581.3,-324"/>
<text text-anchor="middle" x="465.11" y="-301.8" font-family="Times,serif" font-size="14.00">INTF&#45;/IWCOR/IF_REST_MESSAGE</text>
</a>
</g>
</g>
<!-- INTF&#45;/IWCOR/IF_REST_RESPONSE&#45;&gt;INTF&#45;/IWCOR/IF_REST_MESSAGE -->
<g id="edge3" class="edge">
<title>INTF&#45;/IWCOR/IF_REST_RESPONSE&#45;&gt;INTF&#45;/IWCOR/IF_REST_MESSAGE</title>
<path fill="none" stroke="black" d="M519.31,-359.7C510.5,-351.14 499.73,-340.66 490.11,-331.3"/>
<polygon fill="black" stroke="black" points="492.31,-328.57 482.7,-324.1 487.43,-333.58 492.31,-328.57"/>
</g>
<!-- TABL&#45;/IWCOR/REST_ETAG_S -->
<g id="node14" class="node">
<title>TABL&#45;/IWCOR/REST_ETAG_S</title>
<g id="a_node14"><a xlink:href="./TABL_%23IWCOR%23REST_ETAG_S.html" xlink:title="TABL&#45;/IWCOR/REST_ETAG_S">
<polygon fill="none" stroke="yellow" points="841.58,-324 636.64,-324 636.64,-288 841.58,-288 841.58,-324"/>
<text text-anchor="middle" x="739.11" y="-301.8" font-family="Times,serif" font-size="14.00">TABL&#45;/IWCOR/REST_ETAG_S</text>
</a>
</g>
</g>
<!-- INTF&#45;/IWCOR/IF_REST_RESPONSE&#45;&gt;TABL&#45;/IWCOR/REST_ETAG_S -->
<g id="edge1" class="edge">
<title>INTF&#45;/IWCOR/IF_REST_RESPONSE&#45;&gt;TABL&#45;/IWCOR/REST_ETAG_S</title>
<path fill="none" stroke="black" d="M586.26,-359.97C614.61,-350.14 650.43,-337.73 680.27,-327.39"/>
<polygon fill="black" stroke="black" points="681.43,-330.69 689.73,-324.11 679.14,-324.08 681.43,-330.69"/>
</g>
<!-- DTEL&#45;VSCAN_PROFILE -->
<g id="node3" class="node">
<title>DTEL&#45;VSCAN_PROFILE</title>
<g id="a_node3"><a xlink:href="./DTEL_VSCAN_PROFILE.html" xlink:title="DTEL&#45;VSCAN_PROFILE">
<polygon fill="none" stroke="yellow" points="295.75,-180 128.47,-180 128.47,-144 295.75,-144 295.75,-180"/>
<text text-anchor="middle" x="212.11" y="-157.8" font-family="Times,serif" font-size="14.00">DTEL&#45;VSCAN_PROFILE</text>
</a>
</g>
</g>
<!-- INTF&#45;/IWCOR/IF_REST_ENTITY&#45;&gt;DTEL&#45;VSCAN_PROFILE -->
<g id="edge8" class="edge">
<title>INTF&#45;/IWCOR/IF_REST_ENTITY&#45;&gt;DTEL&#45;VSCAN_PROFILE</title>
<path fill="none" stroke="black" d="M296.71,-215.88C282.2,-206.81 264.19,-195.55 248.52,-185.76"/>
<polygon fill="black" stroke="black" points="249.95,-182.52 239.61,-180.19 246.24,-188.46 249.95,-182.52"/>
</g>
<!-- DTEL&#45;TIMESTAMP -->
<g id="node5" class="node">
<title>DTEL&#45;TIMESTAMP</title>
<g id="a_node5"><a xlink:href="./DTEL_TIMESTAMP.html" xlink:title="DTEL&#45;TIMESTAMP">
<polygon fill="none" stroke="green" points="453.91,-180 316.3,-180 316.3,-144 453.91,-144 453.91,-180"/>
<text text-anchor="middle" x="385.11" y="-157.8" font-family="Times,serif" font-size="14.00">DTEL&#45;TIMESTAMP</text>
</a>
</g>
</g>
<!-- INTF&#45;/IWCOR/IF_REST_ENTITY&#45;&gt;DTEL&#45;TIMESTAMP -->
<g id="edge7" class="edge">
<title>INTF&#45;/IWCOR/IF_REST_ENTITY&#45;&gt;DTEL&#45;TIMESTAMP</title>
<path fill="none" stroke="black" d="M339.19,-215.7C346.5,-207.3 355.42,-197.07 363.44,-187.86"/>
<polygon fill="black" stroke="black" points="366.27,-189.94 370.2,-180.1 360.99,-185.34 366.27,-189.94"/>
</g>
<!-- DTEL&#45;LANGU -->
<g id="node7" class="node">
<title>DTEL&#45;LANGU</title>
<g id="a_node7"><a xlink:href="./DTEL_LANGU.html" xlink:title="DTEL&#45;LANGU">
<polygon fill="none" stroke="yellow" points="109.01,-180 3.2,-180 3.2,-144 109.01,-144 109.01,-180"/>
<text text-anchor="middle" x="56.11" y="-157.8" font-family="Times,serif" font-size="14.00">DTEL&#45;LANGU</text>
</a>
</g>
</g>
<!-- INTF&#45;/IWCOR/IF_REST_ENTITY&#45;&gt;DTEL&#45;LANGU -->
<g id="edge6" class="edge">
<title>INTF&#45;/IWCOR/IF_REST_ENTITY&#45;&gt;DTEL&#45;LANGU</title>
<path fill="none" stroke="black" d="M257.59,-215.99C217.45,-205.68 165.31,-192.21 119.11,-180 119.01,-179.97 118.9,-179.95 118.8,-179.92"/>
<polygon fill="black" stroke="black" points="119.6,-176.51 109.03,-177.32 117.8,-183.27 119.6,-176.51"/>
</g>
<!-- INTF&#45;/IWCOR/IF_REST_ENTITY&#45;&gt;TTYP&#45;TIHTTPNVP -->
<g id="edge5" class="edge">
<title>INTF&#45;/IWCOR/IF_REST_ENTITY&#45;&gt;TTYP&#45;TIHTTPNVP</title>
<path fill="none" stroke="black" d="M376.43,-215.97C406.73,-206.1 445.06,-193.62 476.9,-183.25"/>
<polygon fill="black" stroke="black" points="478.13,-186.53 486.55,-180.11 475.96,-179.88 478.13,-186.53"/>
</g>
<!-- DOMA&#45;VSCAN_PROFILE -->
<g id="node4" class="node">
<title>DOMA&#45;VSCAN_PROFILE</title>
<g id="a_node4"><a xlink:href="./DOMA_VSCAN_PROFILE.html" xlink:title="DOMA&#45;VSCAN_PROFILE">
<polygon fill="none" stroke="yellow" points="298.25,-108 123.97,-108 123.97,-72 298.25,-72 298.25,-108"/>
<text text-anchor="middle" x="211.11" y="-85.8" font-family="Times,serif" font-size="14.00">DOMA&#45;VSCAN_PROFILE</text>
</a>
</g>
</g>
<!-- DTEL&#45;VSCAN_PROFILE&#45;&gt;DOMA&#45;VSCAN_PROFILE -->
<g id="edge9" class="edge">
<title>DTEL&#45;VSCAN_PROFILE&#45;&gt;DOMA&#45;VSCAN_PROFILE</title>
<path fill="none" stroke="black" d="M211.86,-143.7C211.75,-135.98 211.62,-126.71 211.5,-118.11"/>
<polygon fill="black" stroke="black" points="214.99,-118.05 211.35,-108.1 208,-118.15 214.99,-118.05"/>
</g>
<!-- DOMA&#45;TZNTSTMPS -->
<g id="node6" class="node">
<title>DOMA&#45;TZNTSTMPS</title>
<g id="a_node6"><a xlink:href="./DOMA_TZNTSTMPS.html" xlink:title="DOMA&#45;TZNTSTMPS">
<polygon fill="none" stroke="yellow" points="459.64,-108 316.57,-108 316.57,-72 459.64,-72 459.64,-108"/>
<text text-anchor="middle" x="388.11" y="-85.8" font-family="Times,serif" font-size="14.00">DOMA&#45;TZNTSTMPS</text>
</a>
</g>
</g>
<!-- DTEL&#45;TIMESTAMP&#45;&gt;DOMA&#45;TZNTSTMPS -->
<g id="edge10" class="edge">
<title>DTEL&#45;TIMESTAMP&#45;&gt;DOMA&#45;TZNTSTMPS</title>
<path fill="none" stroke="black" d="M385.85,-143.7C386.18,-135.98 386.58,-126.71 386.95,-118.11"/>
<polygon fill="black" stroke="black" points="390.44,-118.25 387.37,-108.1 383.45,-117.95 390.44,-118.25"/>
</g>
<!-- DOMA&#45;SPRAS -->
<g id="node8" class="node">
<title>DOMA&#45;SPRAS</title>
<g id="a_node8"><a xlink:href="./DOMA_SPRAS.html" xlink:title="DOMA&#45;SPRAS">
<polygon fill="none" stroke="green" points="106.32,-108 -0.11,-108 -0.11,-72 106.32,-72 106.32,-108"/>
<text text-anchor="middle" x="53.11" y="-85.8" font-family="Times,serif" font-size="14.00">DOMA&#45;SPRAS</text>
</a>
</g>
</g>
<!-- DTEL&#45;LANGU&#45;&gt;DOMA&#45;SPRAS -->
<g id="edge11" class="edge">
<title>DTEL&#45;LANGU&#45;&gt;DOMA&#45;SPRAS</title>
<path fill="none" stroke="black" d="M55.37,-143.7C55.04,-135.98 54.64,-126.71 54.27,-118.11"/>
<polygon fill="black" stroke="black" points="57.77,-117.95 53.84,-108.1 50.77,-118.25 57.77,-117.95"/>
</g>
<!-- TABL&#45;IHTTPNVP -->
<g id="node10" class="node">
<title>TABL&#45;IHTTPNVP</title>
<g id="a_node10"><a xlink:href="./TABL_IHTTPNVP.html" xlink:title="TABL&#45;IHTTPNVP">
<polygon fill="none" stroke="yellow" points="602.47,-108 477.75,-108 477.75,-72 602.47,-72 602.47,-108"/>
<text text-anchor="middle" x="540.11" y="-85.8" font-family="Times,serif" font-size="14.00">TABL&#45;IHTTPNVP</text>
</a>
</g>
</g>
<!-- TTYP&#45;TIHTTPNVP&#45;&gt;TABL&#45;IHTTPNVP -->
<g id="edge12" class="edge">
<title>TTYP&#45;TIHTTPNVP&#45;&gt;TABL&#45;IHTTPNVP</title>
<path fill="none" stroke="black" d="M539.36,-143.7C539.47,-135.98 539.6,-126.71 539.72,-118.11"/>
<polygon fill="black" stroke="black" points="543.22,-118.15 539.86,-108.1 536.22,-118.05 543.22,-118.15"/>
</g>
<!-- DTEL&#45;IHTTPVAL -->
<g id="node11" class="node">
<title>DTEL&#45;IHTTPVAL</title>
<g id="a_node11"><a xlink:href="./DTEL_IHTTPVAL.html" xlink:title="DTEL&#45;IHTTPVAL">
<polygon fill="none" stroke="yellow" points="529.45,-36 404.76,-36 404.76,0 529.45,0 529.45,-36"/>
<text text-anchor="middle" x="467.11" y="-13.8" font-family="Times,serif" font-size="14.00">DTEL&#45;IHTTPVAL</text>
</a>
</g>
</g>
<!-- TABL&#45;IHTTPNVP&#45;&gt;DTEL&#45;IHTTPVAL -->
<g id="edge14" class="edge">
<title>TABL&#45;IHTTPNVP&#45;&gt;DTEL&#45;IHTTPVAL</title>
<path fill="none" stroke="black" d="M522.06,-71.7C513.05,-63.05 501.99,-52.45 492.16,-43.03"/>
<polygon fill="black" stroke="black" points="494.59,-40.5 484.95,-36.1 489.74,-45.55 494.59,-40.5"/>
</g>
<!-- DTEL&#45;IHTTPNAM -->
<g id="node12" class="node">
<title>DTEL&#45;IHTTPNAM</title>
<g id="a_node12"><a xlink:href="./DTEL_IHTTPNAM.html" xlink:title="DTEL&#45;IHTTPNAM">
<polygon fill="none" stroke="yellow" points="676.35,-36 547.87,-36 547.87,0 676.35,0 676.35,-36"/>
<text text-anchor="middle" x="612.11" y="-13.8" font-family="Times,serif" font-size="14.00">DTEL&#45;IHTTPNAM</text>
</a>
</g>
</g>
<!-- TABL&#45;IHTTPNVP&#45;&gt;DTEL&#45;IHTTPNAM -->
<g id="edge13" class="edge">
<title>TABL&#45;IHTTPNVP&#45;&gt;DTEL&#45;IHTTPNAM</title>
<path fill="none" stroke="black" d="M557.91,-71.7C566.71,-63.14 577.49,-52.66 587.11,-43.3"/>
<polygon fill="black" stroke="black" points="589.78,-45.58 594.51,-36.1 584.91,-40.57 589.78,-45.58"/>
</g>
<!-- INTF&#45;/IWCOR/IF_REST_MESSAGE&#45;&gt;INTF&#45;/IWCOR/IF_REST_ENTITY -->
<g id="edge16" class="edge">
<title>INTF&#45;/IWCOR/IF_REST_MESSAGE&#45;&gt;INTF&#45;/IWCOR/IF_REST_ENTITY</title>
<path fill="none" stroke="black" d="M430.62,-287.88C411.67,-278.47 387.98,-266.71 367.75,-256.67"/>
<polygon fill="black" stroke="black" points="369.25,-253.5 358.73,-252.19 366.13,-259.77 369.25,-253.5"/>
</g>
<!-- INTF&#45;/IWCOR/IF_REST_MESSAGE&#45;&gt;TTYP&#45;TIHTTPNVP -->
<g id="edge15" class="edge">
<title>INTF&#45;/IWCOR/IF_REST_MESSAGE&#45;&gt;TTYP&#45;TIHTTPNVP</title>
<path fill="none" stroke="black" d="M474.03,-287.87C486.81,-263.35 510.43,-218.03 525.42,-189.26"/>
<polygon fill="black" stroke="black" points="528.63,-190.67 530.15,-180.19 522.42,-187.44 528.63,-190.67"/>
</g>
<!-- DTEL&#45;BOOLE_D -->
<g id="node15" class="node">
<title>DTEL&#45;BOOLE_D</title>
<g id="a_node15"><a xlink:href="./DTEL_BOOLE_D.html" xlink:title="DTEL&#45;BOOLE_D">
<polygon fill="none" stroke="yellow" points="799.29,-252 678.92,-252 678.92,-216 799.29,-216 799.29,-252"/>
<text text-anchor="middle" x="739.11" y="-229.8" font-family="Times,serif" font-size="14.00">DTEL&#45;BOOLE_D</text>
</a>
</g>
</g>
<!-- TABL&#45;/IWCOR/REST_ETAG_S&#45;&gt;DTEL&#45;BOOLE_D -->
<g id="edge17" class="edge">
<title>TABL&#45;/IWCOR/REST_ETAG_S&#45;&gt;DTEL&#45;BOOLE_D</title>
<path fill="none" stroke="black" d="M739.11,-287.7C739.11,-279.98 739.11,-270.71 739.11,-262.11"/>
<polygon fill="black" stroke="black" points="742.61,-262.1 739.11,-252.1 735.61,-262.1 742.61,-262.1"/>
</g>
<!-- DOMA&#45;BOOLE -->
<g id="node16" class="node">
<title>DOMA&#45;BOOLE</title>
<g id="a_node16"><a xlink:href="./DOMA_BOOLE.html" xlink:title="DOMA&#45;BOOLE">
<polygon fill="none" stroke="yellow" points="794.19,-180 684.03,-180 684.03,-144 794.19,-144 794.19,-180"/>
<text text-anchor="middle" x="739.11" y="-157.8" font-family="Times,serif" font-size="14.00">DOMA&#45;BOOLE</text>
</a>
</g>
</g>
<!-- DTEL&#45;BOOLE_D&#45;&gt;DOMA&#45;BOOLE -->
<g id="edge18" class="edge">
<title>DTEL&#45;BOOLE_D&#45;&gt;DOMA&#45;BOOLE</title>
<path fill="none" stroke="black" d="M739.11,-215.7C739.11,-207.98 739.11,-198.71 739.11,-190.11"/>
<polygon fill="black" stroke="black" points="742.61,-190.1 739.11,-180.1 735.61,-190.1 742.61,-190.1"/>
</g>
</g>
</svg>
