<?xml version="1.0" encoding="UTF-8" standalone="no"?>
<!DOCTYPE svg PUBLIC "-//W3C//DTD SVG 1.1//EN"
 "http://www.w3.org/Graphics/SVG/1.1/DTD/svg11.dtd">
<!-- Generated by graphviz version 2.47.3 (20210619.1520)
 -->
<!-- Title: G Pages: 1 -->
<svg width="612pt" height="260pt"
 viewBox="0.00 0.00 612.13 260.00" xmlns="http://www.w3.org/2000/svg" xmlns:xlink="http://www.w3.org/1999/xlink">
<g id="graph0" class="graph" transform="scale(1 1) rotate(0) translate(4 256)">
<title>G</title>
<polygon fill="white" stroke="transparent" points="-4,4 -4,-256 608.13,-256 608.13,4 -4,4"/>
<!-- INTF&#45;IF_XCO_GEN_DOMA_S_FO_FXD_VALS -->
<g id="node1" class="node">
<title>INTF&#45;IF_XCO_GEN_DOMA_S_FO_FXD_VALS</title>
<polygon fill="none" stroke="green" points="535.98,-252 231.97,-252 231.97,-216 535.98,-216 535.98,-252"/>
<text text-anchor="middle" x="383.98" y="-229.8" font-family="Times,serif" font-size="14.00">INTF&#45;IF_XCO_GEN_DOMA_S_FO_FXD_VALS</text>
</g>
<!-- INTF&#45;IF_XCO_GEN_DOMA_S_FO_FXD_VALUE -->
<g id="node2" class="node">
<title>INTF&#45;IF_XCO_GEN_DOMA_S_FO_FXD_VALUE</title>
<g id="a_node2"><a xlink:href="./INTF_IF_XCO_GEN_DOMA_S_FO_FXD_VALUE.html" xlink:title="INTF&#45;IF_XCO_GEN_DOMA_S_FO_FXD_VALUE">
<polygon fill="none" stroke="green" points="420.86,-180 105.1,-180 105.1,-144 420.86,-144 420.86,-180"/>
<text text-anchor="middle" x="262.98" y="-157.8" font-family="Times,serif" font-size="14.00">INTF&#45;IF_XCO_GEN_DOMA_S_FO_FXD_VALUE</text>
</a>
</g>
</g>
<!-- INTF&#45;IF_XCO_GEN_DOMA_S_FO_FXD_VALS&#45;&gt;INTF&#45;IF_XCO_GEN_DOMA_S_FO_FXD_VALUE -->
<g id="edge2" class="edge">
<title>INTF&#45;IF_XCO_GEN_DOMA_S_FO_FXD_VALS&#45;&gt;INTF&#45;IF_XCO_GEN_DOMA_S_FO_FXD_VALUE</title>
<path fill="none" stroke="black" d="M354.38,-215.88C338.41,-206.64 318.52,-195.13 301.37,-185.21"/>
<polygon fill="black" stroke="black" points="303.1,-182.17 292.69,-180.19 299.59,-188.23 303.1,-182.17"/>
</g>
<!-- DTEL&#45;ENTITYTAB -->
<g id="node8" class="node">
<title>DTEL&#45;ENTITYTAB</title>
<g id="a_node8"><a xlink:href="./DTEL_ENTITYTAB.html" xlink:title="DTEL&#45;ENTITYTAB">
<polygon fill="none" stroke="yellow" points="593.43,-180 458.53,-180 458.53,-144 593.43,-144 593.43,-180"/>
<text text-anchor="middle" x="525.98" y="-157.8" font-family="Times,serif" font-size="14.00">DTEL&#45;ENTITYTAB</text>
</a>
</g>
</g>
<!-- INTF&#45;IF_XCO_GEN_DOMA_S_FO_FXD_VALS&#45;&gt;DTEL&#45;ENTITYTAB -->
<g id="edge1" class="edge">
<title>INTF&#45;IF_XCO_GEN_DOMA_S_FO_FXD_VALS&#45;&gt;DTEL&#45;ENTITYTAB</title>
<path fill="none" stroke="black" d="M418.71,-215.88C437.8,-206.47 461.66,-194.71 482.02,-184.67"/>
<polygon fill="black" stroke="black" points="483.69,-187.75 491.11,-180.19 480.59,-181.47 483.69,-187.75"/>
</g>
<!-- DTEL&#45;VAL_TEXT -->
<g id="node3" class="node">
<title>DTEL&#45;VAL_TEXT</title>
<g id="a_node3"><a xlink:href="./DTEL_VAL_TEXT.html" xlink:title="DTEL&#45;VAL_TEXT">
<polygon fill="none" stroke="yellow" points="127.93,-108 0.02,-108 0.02,-72 127.93,-72 127.93,-108"/>
<text text-anchor="middle" x="63.98" y="-85.8" font-family="Times,serif" font-size="14.00">DTEL&#45;VAL_TEXT</text>
</a>
</g>
</g>
<!-- INTF&#45;IF_XCO_GEN_DOMA_S_FO_FXD_VALUE&#45;&gt;DTEL&#45;VAL_TEXT -->
<g id="edge5" class="edge">
<title>INTF&#45;IF_XCO_GEN_DOMA_S_FO_FXD_VALUE&#45;&gt;DTEL&#45;VAL_TEXT</title>
<path fill="none" stroke="black" d="M214.55,-143.97C186.75,-134.19 151.64,-121.84 122.32,-111.52"/>
<polygon fill="black" stroke="black" points="123.22,-108.13 112.62,-108.11 120.89,-114.73 123.22,-108.13"/>
</g>
<!-- DTEL&#45;DOMVALUE_H -->
<g id="node5" class="node">
<title>DTEL&#45;DOMVALUE_H</title>
<g id="a_node5"><a xlink:href="./DTEL_DOMVALUE_H.html" xlink:title="DTEL&#45;DOMVALUE_H">
<polygon fill="none" stroke="yellow" points="299.59,-108 146.36,-108 146.36,-72 299.59,-72 299.59,-108"/>
<text text-anchor="middle" x="222.98" y="-85.8" font-family="Times,serif" font-size="14.00">DTEL&#45;DOMVALUE_H</text>
</a>
</g>
</g>
<!-- INTF&#45;IF_XCO_GEN_DOMA_S_FO_FXD_VALUE&#45;&gt;DTEL&#45;DOMVALUE_H -->
<g id="edge4" class="edge">
<title>INTF&#45;IF_XCO_GEN_DOMA_S_FO_FXD_VALUE&#45;&gt;DTEL&#45;DOMVALUE_H</title>
<path fill="none" stroke="black" d="M253.09,-143.7C248.49,-135.64 242.92,-125.89 237.82,-116.98"/>
<polygon fill="black" stroke="black" points="240.75,-115.05 232.75,-108.1 234.67,-118.52 240.75,-115.05"/>
</g>
<!-- DTEL&#45;DOMVALUE_L -->
<g id="node7" class="node">
<title>DTEL&#45;DOMVALUE_L</title>
<g id="a_node7"><a xlink:href="./DTEL_DOMVALUE_L.html" xlink:title="DTEL&#45;DOMVALUE_L">
<polygon fill="none" stroke="yellow" points="470.04,-108 317.92,-108 317.92,-72 470.04,-72 470.04,-108"/>
<text text-anchor="middle" x="393.98" y="-85.8" font-family="Times,serif" font-size="14.00">DTEL&#45;DOMVALUE_L</text>
</a>
</g>
</g>
<!-- INTF&#45;IF_XCO_GEN_DOMA_S_FO_FXD_VALUE&#45;&gt;DTEL&#45;DOMVALUE_L -->
<g id="edge3" class="edge">
<title>INTF&#45;IF_XCO_GEN_DOMA_S_FO_FXD_VALUE&#45;&gt;DTEL&#45;DOMVALUE_L</title>
<path fill="none" stroke="black" d="M295.02,-143.88C312.47,-134.55 334.24,-122.92 352.92,-112.94"/>
<polygon fill="black" stroke="black" points="354.64,-115.99 361.81,-108.19 351.34,-109.82 354.64,-115.99"/>
</g>
<!-- DOMA&#45;DDTEXT -->
<g id="node4" class="node">
<title>DOMA&#45;DDTEXT</title>
<g id="a_node4"><a xlink:href="./DOMA_DDTEXT.html" xlink:title="DOMA&#45;DDTEXT">
<polygon fill="none" stroke="yellow" points="123.88,-36 4.07,-36 4.07,0 123.88,0 123.88,-36"/>
<text text-anchor="middle" x="63.98" y="-13.8" font-family="Times,serif" font-size="14.00">DOMA&#45;DDTEXT</text>
</a>
</g>
</g>
<!-- DTEL&#45;VAL_TEXT&#45;&gt;DOMA&#45;DDTEXT -->
<g id="edge6" class="edge">
<title>DTEL&#45;VAL_TEXT&#45;&gt;DOMA&#45;DDTEXT</title>
<path fill="none" stroke="black" d="M63.98,-71.7C63.98,-63.98 63.98,-54.71 63.98,-46.11"/>
<polygon fill="black" stroke="black" points="67.48,-46.1 63.98,-36.1 60.48,-46.1 67.48,-46.1"/>
</g>
<!-- DOMA&#45;DOMVAL -->
<g id="node6" class="node">
<title>DOMA&#45;DOMVAL</title>
<g id="a_node6"><a xlink:href="./DOMA_DOMVAL.html" xlink:title="DOMA&#45;DOMVAL">
<polygon fill="none" stroke="yellow" points="370.33,-36 245.63,-36 245.63,0 370.33,0 370.33,-36"/>
<text text-anchor="middle" x="307.98" y="-13.8" font-family="Times,serif" font-size="14.00">DOMA&#45;DOMVAL</text>
</a>
</g>
</g>
<!-- DTEL&#45;DOMVALUE_H&#45;&gt;DOMA&#45;DOMVAL -->
<g id="edge7" class="edge">
<title>DTEL&#45;DOMVALUE_H&#45;&gt;DOMA&#45;DOMVAL</title>
<path fill="none" stroke="black" d="M243.99,-71.7C254.69,-62.88 267.87,-52.03 279.47,-42.47"/>
<polygon fill="black" stroke="black" points="281.71,-45.16 287.21,-36.1 277.26,-39.76 281.71,-45.16"/>
</g>
<!-- DTEL&#45;DOMVALUE_L&#45;&gt;DOMA&#45;DOMVAL -->
<g id="edge8" class="edge">
<title>DTEL&#45;DOMVALUE_L&#45;&gt;DOMA&#45;DOMVAL</title>
<path fill="none" stroke="black" d="M372.72,-71.7C361.89,-62.88 348.56,-52.03 336.82,-42.47"/>
<polygon fill="black" stroke="black" points="338.96,-39.7 328.99,-36.1 334.54,-45.13 338.96,-39.7"/>
</g>
<!-- DOMA&#45;AS4TAB -->
<g id="node9" class="node">
<title>DOMA&#45;AS4TAB</title>
<g id="a_node9"><a xlink:href="./DOMA_AS4TAB.html" xlink:title="DOMA&#45;AS4TAB">
<polygon fill="none" stroke="yellow" points="604.29,-108 487.67,-108 487.67,-72 604.29,-72 604.29,-108"/>
<text text-anchor="middle" x="545.98" y="-85.8" font-family="Times,serif" font-size="14.00">DOMA&#45;AS4TAB</text>
</a>
</g>
</g>
<!-- DTEL&#45;ENTITYTAB&#45;&gt;DOMA&#45;AS4TAB -->
<g id="edge9" class="edge">
<title>DTEL&#45;ENTITYTAB&#45;&gt;DOMA&#45;AS4TAB</title>
<path fill="none" stroke="black" d="M530.92,-143.7C533.15,-135.9 535.83,-126.51 538.31,-117.83"/>
<polygon fill="black" stroke="black" points="541.71,-118.68 541.09,-108.1 534.98,-116.76 541.71,-118.68"/>
</g>
</g>
</svg>
