<?xml version="1.0" encoding="UTF-8" standalone="no"?>
<!DOCTYPE svg PUBLIC "-//W3C//DTD SVG 1.1//EN"
 "http://www.w3.org/Graphics/SVG/1.1/DTD/svg11.dtd">
<!-- Generated by graphviz version 2.47.3 (20210619.1520)
 -->
<!-- Title: G Pages: 1 -->
<svg width="975pt" height="188pt"
 viewBox="0.00 0.00 974.87 188.00" xmlns="http://www.w3.org/2000/svg" xmlns:xlink="http://www.w3.org/1999/xlink">
<g id="graph0" class="graph" transform="scale(1 1) rotate(0) translate(4 184)">
<title>G</title>
<polygon fill="white" stroke="transparent" points="-4,4 -4,-184 970.87,-184 970.87,4 -4,4"/>
<!-- INTF&#45;IF_APS_CA_COMM_ARRGMNT_CONST -->
<g id="node1" class="node">
<title>INTF&#45;IF_APS_CA_COMM_ARRGMNT_CONST</title>
<polygon fill="none" stroke="yellow" points="531.18,-180 227.13,-180 227.13,-144 531.18,-144 531.18,-180"/>
<text text-anchor="middle" x="379.16" y="-157.8" font-family="Times,serif" font-size="14.00">INTF&#45;IF_APS_CA_COMM_ARRGMNT_CONST</text>
</g>
<!-- DTEL&#45;CHAR20 -->
<g id="node2" class="node">
<title>DTEL&#45;CHAR20</title>
<g id="a_node2"><a xlink:href="./DTEL_CHAR20.html" xlink:title="DTEL&#45;CHAR20">
<polygon fill="none" stroke="yellow" points="115.97,-108 6.34,-108 6.34,-72 115.97,-72 115.97,-108"/>
<text text-anchor="middle" x="61.16" y="-85.8" font-family="Times,serif" font-size="14.00">DTEL&#45;CHAR20</text>
</a>
</g>
</g>
<!-- INTF&#45;IF_APS_CA_COMM_ARRGMNT_CONST&#45;&gt;DTEL&#45;CHAR20 -->
<g id="edge5" class="edge">
<title>INTF&#45;IF_APS_CA_COMM_ARRGMNT_CONST&#45;&gt;DTEL&#45;CHAR20</title>
<path fill="none" stroke="black" d="M291.61,-143.94C245.02,-134.58 186.56,-122.38 125.71,-108.07"/>
<polygon fill="black" stroke="black" points="126.46,-104.65 115.92,-105.75 124.85,-111.46 126.46,-104.65"/>
</g>
<!-- DTEL&#45;NUMC5 -->
<g id="node4" class="node">
<title>DTEL&#45;NUMC5</title>
<g id="a_node4"><a xlink:href="./DTEL_NUMC5.html" xlink:title="DTEL&#45;NUMC5">
<polygon fill="none" stroke="yellow" points="240.08,-108 134.24,-108 134.24,-72 240.08,-72 240.08,-108"/>
<text text-anchor="middle" x="187.16" y="-85.8" font-family="Times,serif" font-size="14.00">DTEL&#45;NUMC5</text>
</a>
</g>
</g>
<!-- INTF&#45;IF_APS_CA_COMM_ARRGMNT_CONST&#45;&gt;DTEL&#45;NUMC5 -->
<g id="edge4" class="edge">
<title>INTF&#45;IF_APS_CA_COMM_ARRGMNT_CONST&#45;&gt;DTEL&#45;NUMC5</title>
<path fill="none" stroke="black" d="M332.19,-143.88C305.47,-134.14 271.83,-121.87 243.68,-111.61"/>
<polygon fill="black" stroke="black" points="244.57,-108.21 233.97,-108.07 242.17,-114.78 244.57,-108.21"/>
</g>
<!-- DTEL&#45;APS_CA_COMM_PROTOCOL -->
<g id="node6" class="node">
<title>DTEL&#45;APS_CA_COMM_PROTOCOL</title>
<g id="a_node6"><a xlink:href="./DTEL_APS_CA_COMM_PROTOCOL.html" xlink:title="DTEL&#45;APS_CA_COMM_PROTOCOL">
<polygon fill="none" stroke="yellow" points="499.41,-108 258.9,-108 258.9,-72 499.41,-72 499.41,-108"/>
<text text-anchor="middle" x="379.16" y="-85.8" font-family="Times,serif" font-size="14.00">DTEL&#45;APS_CA_COMM_PROTOCOL</text>
</a>
</g>
</g>
<!-- INTF&#45;IF_APS_CA_COMM_ARRGMNT_CONST&#45;&gt;DTEL&#45;APS_CA_COMM_PROTOCOL -->
<g id="edge3" class="edge">
<title>INTF&#45;IF_APS_CA_COMM_ARRGMNT_CONST&#45;&gt;DTEL&#45;APS_CA_COMM_PROTOCOL</title>
<path fill="none" stroke="black" d="M379.16,-143.7C379.16,-135.98 379.16,-126.71 379.16,-118.11"/>
<polygon fill="black" stroke="black" points="382.66,-118.1 379.16,-108.1 375.66,-118.1 382.66,-118.1"/>
</g>
<!-- DTEL&#45;APS_COM_CSCN_PROTOCOL -->
<g id="node8" class="node">
<title>DTEL&#45;APS_COM_CSCN_PROTOCOL</title>
<g id="a_node8"><a xlink:href="./DTEL_APS_COM_CSCN_PROTOCOL.html" xlink:title="DTEL&#45;APS_COM_CSCN_PROTOCOL">
<polygon fill="none" stroke="yellow" points="766.08,-108 520.23,-108 520.23,-72 766.08,-72 766.08,-108"/>
<text text-anchor="middle" x="643.16" y="-85.8" font-family="Times,serif" font-size="14.00">DTEL&#45;APS_COM_CSCN_PROTOCOL</text>
</a>
</g>
</g>
<!-- INTF&#45;IF_APS_CA_COMM_ARRGMNT_CONST&#45;&gt;DTEL&#45;APS_COM_CSCN_PROTOCOL -->
<g id="edge2" class="edge">
<title>INTF&#45;IF_APS_CA_COMM_ARRGMNT_CONST&#45;&gt;DTEL&#45;APS_COM_CSCN_PROTOCOL</title>
<path fill="none" stroke="black" d="M443.4,-143.97C481.25,-133.93 529.29,-121.19 568.78,-110.72"/>
<polygon fill="black" stroke="black" points="569.85,-114.06 578.62,-108.11 568.06,-107.29 569.85,-114.06"/>
</g>
<!-- DTEL&#45;APS_CA_STATUS -->
<g id="node10" class="node">
<title>DTEL&#45;APS_CA_STATUS</title>
<g id="a_node10"><a xlink:href="./DTEL_APS_CA_STATUS.html" xlink:title="DTEL&#45;APS_CA_STATUS">
<polygon fill="none" stroke="yellow" points="957.58,-108 788.73,-108 788.73,-72 957.58,-72 957.58,-108"/>
<text text-anchor="middle" x="873.16" y="-85.8" font-family="Times,serif" font-size="14.00">DTEL&#45;APS_CA_STATUS</text>
</a>
</g>
</g>
<!-- INTF&#45;IF_APS_CA_COMM_ARRGMNT_CONST&#45;&gt;DTEL&#45;APS_CA_STATUS -->
<g id="edge1" class="edge">
<title>INTF&#45;IF_APS_CA_COMM_ARRGMNT_CONST&#45;&gt;DTEL&#45;APS_CA_STATUS</title>
<path fill="none" stroke="black" d="M516.34,-143.97C592.65,-134.16 689.29,-121.19 775.16,-108 776.27,-107.83 777.38,-107.66 778.5,-107.48"/>
<polygon fill="black" stroke="black" points="779.4,-110.88 788.73,-105.86 778.3,-103.97 779.4,-110.88"/>
</g>
<!-- DOMA&#45;CHAR20 -->
<g id="node3" class="node">
<title>DOMA&#45;CHAR20</title>
<g id="a_node3"><a xlink:href="./DOMA_CHAR20.html" xlink:title="DOMA&#45;CHAR20">
<polygon fill="none" stroke="yellow" points="116.47,-36 -0.16,-36 -0.16,0 116.47,0 116.47,-36"/>
<text text-anchor="middle" x="58.16" y="-13.8" font-family="Times,serif" font-size="14.00">DOMA&#45;CHAR20</text>
</a>
</g>
</g>
<!-- DTEL&#45;CHAR20&#45;&gt;DOMA&#45;CHAR20 -->
<g id="edge6" class="edge">
<title>DTEL&#45;CHAR20&#45;&gt;DOMA&#45;CHAR20</title>
<path fill="none" stroke="black" d="M60.41,-71.7C60.08,-63.98 59.69,-54.71 59.32,-46.11"/>
<polygon fill="black" stroke="black" points="62.81,-45.95 58.89,-36.1 55.82,-46.25 62.81,-45.95"/>
</g>
<!-- DOMA&#45;NUM5 -->
<g id="node5" class="node">
<title>DOMA&#45;NUM5</title>
<g id="a_node5"><a xlink:href="./DOMA_NUM5.html" xlink:title="DOMA&#45;NUM5">
<polygon fill="none" stroke="yellow" points="237.74,-36 134.57,-36 134.57,0 237.74,0 237.74,-36"/>
<text text-anchor="middle" x="186.16" y="-13.8" font-family="Times,serif" font-size="14.00">DOMA&#45;NUM5</text>
</a>
</g>
</g>
<!-- DTEL&#45;NUMC5&#45;&gt;DOMA&#45;NUM5 -->
<g id="edge7" class="edge">
<title>DTEL&#45;NUMC5&#45;&gt;DOMA&#45;NUM5</title>
<path fill="none" stroke="black" d="M186.91,-71.7C186.8,-63.98 186.67,-54.71 186.54,-46.11"/>
<polygon fill="black" stroke="black" points="190.04,-46.05 186.4,-36.1 183.04,-46.15 190.04,-46.05"/>
</g>
<!-- DOMA&#45;APS_CA_COMM_PROTOCOL -->
<g id="node7" class="node">
<title>DOMA&#45;APS_CA_COMM_PROTOCOL</title>
<g id="a_node7"><a xlink:href="./DOMA_APS_CA_COMM_PROTOCOL.html" xlink:title="DOMA&#45;APS_CA_COMM_PROTOCOL">
<polygon fill="none" stroke="yellow" points="502.91,-36 255.4,-36 255.4,0 502.91,0 502.91,-36"/>
<text text-anchor="middle" x="379.16" y="-13.8" font-family="Times,serif" font-size="14.00">DOMA&#45;APS_CA_COMM_PROTOCOL</text>
</a>
</g>
</g>
<!-- DTEL&#45;APS_CA_COMM_PROTOCOL&#45;&gt;DOMA&#45;APS_CA_COMM_PROTOCOL -->
<g id="edge8" class="edge">
<title>DTEL&#45;APS_CA_COMM_PROTOCOL&#45;&gt;DOMA&#45;APS_CA_COMM_PROTOCOL</title>
<path fill="none" stroke="black" d="M379.16,-71.7C379.16,-63.98 379.16,-54.71 379.16,-46.11"/>
<polygon fill="black" stroke="black" points="382.66,-46.1 379.16,-36.1 375.66,-46.1 382.66,-46.1"/>
</g>
<!-- DOMA&#45;APS_COM_CSCN_PROTOCOL -->
<g id="node9" class="node">
<title>DOMA&#45;APS_COM_CSCN_PROTOCOL</title>
<g id="a_node9"><a xlink:href="./DOMA_APS_COM_CSCN_PROTOCOL.html" xlink:title="DOMA&#45;APS_COM_CSCN_PROTOCOL">
<polygon fill="none" stroke="yellow" points="773.58,-36 520.73,-36 520.73,0 773.58,0 773.58,-36"/>
<text text-anchor="middle" x="647.16" y="-13.8" font-family="Times,serif" font-size="14.00">DOMA&#45;APS_COM_CSCN_PROTOCOL</text>
</a>
</g>
</g>
<!-- DTEL&#45;APS_COM_CSCN_PROTOCOL&#45;&gt;DOMA&#45;APS_COM_CSCN_PROTOCOL -->
<g id="edge9" class="edge">
<title>DTEL&#45;APS_COM_CSCN_PROTOCOL&#45;&gt;DOMA&#45;APS_COM_CSCN_PROTOCOL</title>
<path fill="none" stroke="black" d="M644.14,-71.7C644.59,-63.98 645.11,-54.71 645.61,-46.11"/>
<polygon fill="black" stroke="black" points="649.1,-46.29 646.18,-36.1 642.11,-45.89 649.1,-46.29"/>
</g>
<!-- DOMA&#45;APS_CA_STATUS -->
<g id="node11" class="node">
<title>DOMA&#45;APS_CA_STATUS</title>
<g id="a_node11"><a xlink:href="./DOMA_APS_CA_STATUS.html" xlink:title="DOMA&#45;APS_CA_STATUS">
<polygon fill="none" stroke="yellow" points="967.08,-36 791.23,-36 791.23,0 967.08,0 967.08,-36"/>
<text text-anchor="middle" x="879.16" y="-13.8" font-family="Times,serif" font-size="14.00">DOMA&#45;APS_CA_STATUS</text>
</a>
</g>
</g>
<!-- DTEL&#45;APS_CA_STATUS&#45;&gt;DOMA&#45;APS_CA_STATUS -->
<g id="edge10" class="edge">
<title>DTEL&#45;APS_CA_STATUS&#45;&gt;DOMA&#45;APS_CA_STATUS</title>
<path fill="none" stroke="black" d="M874.64,-71.7C875.3,-63.98 876.09,-54.71 876.83,-46.11"/>
<polygon fill="black" stroke="black" points="880.32,-46.37 877.69,-36.1 873.35,-45.77 880.32,-46.37"/>
</g>
</g>
</svg>
