<?xml version="1.0" encoding="UTF-8" standalone="no"?>
<!DOCTYPE svg PUBLIC "-//W3C//DTD SVG 1.1//EN"
 "http://www.w3.org/Graphics/SVG/1.1/DTD/svg11.dtd">
<!-- Generated by graphviz version 2.47.3 (20210619.1520)
 -->
<!-- Title: G Pages: 1 -->
<svg width="359pt" height="188pt"
 viewBox="0.00 0.00 358.86 188.00" xmlns="http://www.w3.org/2000/svg" xmlns:xlink="http://www.w3.org/1999/xlink">
<g id="graph0" class="graph" transform="scale(1 1) rotate(0) translate(4 184)">
<title>G</title>
<polygon fill="white" stroke="transparent" points="-4,4 -4,-184 354.86,-184 354.86,4 -4,4"/>
<!-- INTF&#45;IF_FDT_CP_EXTERNAL_TYPES -->
<g id="node1" class="node">
<title>INTF&#45;IF_FDT_CP_EXTERNAL_TYPES</title>
<g id="a_node1"><a xlink:href="./INTF_IF_FDT_CP_EXTERNAL_TYPES.html" xlink:title="INTF&#45;IF_FDT_CP_EXTERNAL_TYPES">
<polygon fill="none" stroke="green" points="252.62,-180 -0.21,-180 -0.21,-144 252.62,-144 252.62,-180"/>
<text text-anchor="middle" x="126.21" y="-157.8" font-family="Times,serif" font-size="14.00">INTF&#45;IF_FDT_CP_EXTERNAL_TYPES</text>
</a>
</g>
</g>
<!-- INTF&#45;IF_FDT_CP_AST_NODE -->
<g id="node2" class="node">
<title>INTF&#45;IF_FDT_CP_AST_NODE</title>
<g id="a_node2"><a xlink:href="./INTF_IF_FDT_CP_AST_NODE.html" xlink:title="INTF&#45;IF_FDT_CP_AST_NODE">
<polygon fill="none" stroke="green" points="226.79,-108 25.62,-108 25.62,-72 226.79,-72 226.79,-108"/>
<text text-anchor="middle" x="126.21" y="-85.8" font-family="Times,serif" font-size="14.00">INTF&#45;IF_FDT_CP_AST_NODE</text>
</a>
</g>
</g>
<!-- INTF&#45;IF_FDT_CP_EXTERNAL_TYPES&#45;&gt;INTF&#45;IF_FDT_CP_AST_NODE -->
<g id="edge2" class="edge">
<title>INTF&#45;IF_FDT_CP_EXTERNAL_TYPES&#45;&gt;INTF&#45;IF_FDT_CP_AST_NODE</title>
<path fill="none" stroke="black" d="M114.37,-143.7C112.78,-135.98 112.33,-126.71 113.01,-118.11"/>
<polygon fill="black" stroke="black" points="116.5,-118.49 114.42,-108.1 109.56,-117.52 116.5,-118.49"/>
</g>
<!-- INTF&#45;IF_FDT_CP_EXTERNAL_TYPES&#45;&gt;INTF&#45;IF_FDT_CP_AST_NODE -->
<g id="edge5" class="edge">
<title>INTF&#45;IF_FDT_CP_EXTERNAL_TYPES&#45;&gt;INTF&#45;IF_FDT_CP_AST_NODE</title>
<path fill="none" stroke="black" d="M138.04,-143.7C139.63,-135.98 140.08,-126.71 139.4,-118.11"/>
<polygon fill="black" stroke="black" points="142.85,-117.52 138,-108.1 135.92,-118.49 142.85,-117.52"/>
</g>
<!-- DTEL&#45;CHAR1 -->
<g id="node3" class="node">
<title>DTEL&#45;CHAR1</title>
<g id="a_node3"><a xlink:href="./DTEL_CHAR1.html" xlink:title="DTEL&#45;CHAR1">
<polygon fill="none" stroke="yellow" points="347.52,-108 244.89,-108 244.89,-72 347.52,-72 347.52,-108"/>
<text text-anchor="middle" x="296.21" y="-85.8" font-family="Times,serif" font-size="14.00">DTEL&#45;CHAR1</text>
</a>
</g>
</g>
<!-- INTF&#45;IF_FDT_CP_EXTERNAL_TYPES&#45;&gt;DTEL&#45;CHAR1 -->
<g id="edge1" class="edge">
<title>INTF&#45;IF_FDT_CP_EXTERNAL_TYPES&#45;&gt;DTEL&#45;CHAR1</title>
<path fill="none" stroke="black" d="M161.9,-143.88C184.33,-134.22 213.69,-122.09 239.27,-111.88"/>
<polygon fill="black" stroke="black" points="240.86,-115.01 248.86,-108.07 238.28,-108.51 240.86,-115.01"/>
</g>
<!-- INTF&#45;IF_FDT_CP_EXTERNAL_TYPES&#45;&gt;DTEL&#45;CHAR1 -->
<g id="edge4" class="edge">
<title>INTF&#45;IF_FDT_CP_EXTERNAL_TYPES&#45;&gt;DTEL&#45;CHAR1</title>
<path fill="none" stroke="black" d="M173.69,-143.88C198.04,-134.26 227.47,-122.19 251.42,-112.01"/>
<polygon fill="black" stroke="black" points="252.83,-115.22 260.65,-108.07 250.07,-108.78 252.83,-115.22"/>
</g>
<!-- INTF&#45;IF_FDT_CP_AST_NODE&#45;&gt;INTF&#45;IF_FDT_CP_EXTERNAL_TYPES -->
<g id="edge3" class="edge">
<title>INTF&#45;IF_FDT_CP_AST_NODE&#45;&gt;INTF&#45;IF_FDT_CP_EXTERNAL_TYPES</title>
<path fill="none" stroke="black" d="M126.21,-108.1C126.21,-115.79 126.21,-125.05 126.21,-133.67"/>
<polygon fill="black" stroke="black" points="122.71,-133.7 126.21,-143.7 129.71,-133.7 122.71,-133.7"/>
</g>
<!-- DOMA&#45;CHAR1 -->
<g id="node4" class="node">
<title>DOMA&#45;CHAR1</title>
<g id="a_node4"><a xlink:href="./DOMA_CHAR1.html" xlink:title="DOMA&#45;CHAR1">
<polygon fill="none" stroke="green" points="351.02,-36 241.39,-36 241.39,0 351.02,0 351.02,-36"/>
<text text-anchor="middle" x="296.21" y="-13.8" font-family="Times,serif" font-size="14.00">DOMA&#45;CHAR1</text>
</a>
</g>
</g>
<!-- DTEL&#45;CHAR1&#45;&gt;DOMA&#45;CHAR1 -->
<g id="edge6" class="edge">
<title>DTEL&#45;CHAR1&#45;&gt;DOMA&#45;CHAR1</title>
<path fill="none" stroke="black" d="M296.21,-71.7C296.21,-63.98 296.21,-54.71 296.21,-46.11"/>
<polygon fill="black" stroke="black" points="299.71,-46.1 296.21,-36.1 292.71,-46.1 299.71,-46.1"/>
</g>
</g>
</svg>
