<?xml version="1.0" encoding="UTF-8" standalone="no"?>
<!DOCTYPE svg PUBLIC "-//W3C//DTD SVG 1.1//EN"
 "http://www.w3.org/Graphics/SVG/1.1/DTD/svg11.dtd">
<!-- Generated by graphviz version 2.47.3 (20210619.1520)
 -->
<!-- Title: G Pages: 1 -->
<svg width="624pt" height="260pt"
 viewBox="0.00 0.00 623.79 260.00" xmlns="http://www.w3.org/2000/svg" xmlns:xlink="http://www.w3.org/1999/xlink">
<g id="graph0" class="graph" transform="scale(1 1) rotate(0) translate(4 256)">
<title>G</title>
<polygon fill="white" stroke="transparent" points="-4,4 -4,-256 619.79,-256 619.79,4 -4,4"/>
<!-- INTF&#45;/IWCOR/IF_DS_EDM_NAV_PROPERTY -->
<g id="node1" class="node">
<title>INTF&#45;/IWCOR/IF_DS_EDM_NAV_PROPERTY</title>
<polygon fill="none" stroke="yellow" points="527.33,-252 230.31,-252 230.31,-216 527.33,-216 527.33,-252"/>
<text text-anchor="middle" x="378.82" y="-229.8" font-family="Times,serif" font-size="14.00">INTF&#45;/IWCOR/IF_DS_EDM_NAV_PROPERTY</text>
</g>
<!-- INTF&#45;/IWCOR/IF_DS_EDM_ASSOC -->
<g id="node2" class="node">
<title>INTF&#45;/IWCOR/IF_DS_EDM_ASSOC</title>
<g id="a_node2"><a xlink:href="./INTF_%23IWCOR%23IF_DS_EDM_ASSOC.html" xlink:title="INTF&#45;/IWCOR/IF_DS_EDM_ASSOC">
<polygon fill="none" stroke="yellow" points="392.57,-180 159.07,-180 159.07,-144 392.57,-144 392.57,-180"/>
<text text-anchor="middle" x="275.82" y="-157.8" font-family="Times,serif" font-size="14.00">INTF&#45;/IWCOR/IF_DS_EDM_ASSOC</text>
</a>
</g>
</g>
<!-- INTF&#45;/IWCOR/IF_DS_EDM_NAV_PROPERTY&#45;&gt;INTF&#45;/IWCOR/IF_DS_EDM_ASSOC -->
<g id="edge2" class="edge">
<title>INTF&#45;/IWCOR/IF_DS_EDM_NAV_PROPERTY&#45;&gt;INTF&#45;/IWCOR/IF_DS_EDM_ASSOC</title>
<path fill="none" stroke="black" d="M353.62,-215.88C340.4,-206.89 324.03,-195.76 309.71,-186.03"/>
<polygon fill="black" stroke="black" points="311.35,-182.92 301.11,-180.19 307.41,-188.71 311.35,-182.92"/>
</g>
<!-- INTF&#45;/IWCOR/IF_DS_EDM_NAMED -->
<g id="node3" class="node">
<title>INTF&#45;/IWCOR/IF_DS_EDM_NAMED</title>
<g id="a_node3"><a xlink:href="./INTF_%23IWCOR%23IF_DS_EDM_NAMED.html" xlink:title="INTF&#45;/IWCOR/IF_DS_EDM_NAMED">
<polygon fill="none" stroke="yellow" points="615.77,-36 375.87,-36 375.87,0 615.77,0 615.77,-36"/>
<text text-anchor="middle" x="495.82" y="-13.8" font-family="Times,serif" font-size="14.00">INTF&#45;/IWCOR/IF_DS_EDM_NAMED</text>
</a>
</g>
</g>
<!-- INTF&#45;/IWCOR/IF_DS_EDM_NAV_PROPERTY&#45;&gt;INTF&#45;/IWCOR/IF_DS_EDM_NAMED -->
<g id="edge1" class="edge">
<title>INTF&#45;/IWCOR/IF_DS_EDM_NAV_PROPERTY&#45;&gt;INTF&#45;/IWCOR/IF_DS_EDM_NAMED</title>
<path fill="none" stroke="black" d="M390.75,-215.67C406.82,-191.97 435.81,-147.82 456.82,-108 467.64,-87.48 478.09,-63.32 485.45,-45.35"/>
<polygon fill="black" stroke="black" points="488.7,-46.66 489.2,-36.07 482.21,-44.03 488.7,-46.66"/>
</g>
<!-- INTF&#45;/IWCOR/IF_DS_EDM_ASSOC&#45;&gt;INTF&#45;/IWCOR/IF_DS_EDM_NAMED -->
<g id="edge5" class="edge">
<title>INTF&#45;/IWCOR/IF_DS_EDM_ASSOC&#45;&gt;INTF&#45;/IWCOR/IF_DS_EDM_NAMED</title>
<path fill="none" stroke="black" d="M349.65,-143.99C375.29,-135.82 403.26,-124.17 425.82,-108 449.23,-91.21 468.78,-64.48 481.21,-44.69"/>
<polygon fill="black" stroke="black" points="484.2,-46.51 486.41,-36.14 478.22,-42.87 484.2,-46.51"/>
</g>
<!-- INTF&#45;/IWCOR/IF_DS_EDM_ENTITY_TYPE -->
<g id="node4" class="node">
<title>INTF&#45;/IWCOR/IF_DS_EDM_ENTITY_TYPE</title>
<g id="a_node4"><a xlink:href="./INTF_%23IWCOR%23IF_DS_EDM_ENTITY_TYPE.html" xlink:title="INTF&#45;/IWCOR/IF_DS_EDM_ENTITY_TYPE">
<polygon fill="none" stroke="yellow" points="416.48,-108 135.16,-108 135.16,-72 416.48,-72 416.48,-108"/>
<text text-anchor="middle" x="275.82" y="-85.8" font-family="Times,serif" font-size="14.00">INTF&#45;/IWCOR/IF_DS_EDM_ENTITY_TYPE</text>
</a>
</g>
</g>
<!-- INTF&#45;/IWCOR/IF_DS_EDM_ASSOC&#45;&gt;INTF&#45;/IWCOR/IF_DS_EDM_ENTITY_TYPE -->
<g id="edge4" class="edge">
<title>INTF&#45;/IWCOR/IF_DS_EDM_ASSOC&#45;&gt;INTF&#45;/IWCOR/IF_DS_EDM_ENTITY_TYPE</title>
<path fill="none" stroke="black" d="M275.82,-143.7C275.82,-135.98 275.82,-126.71 275.82,-118.11"/>
<polygon fill="black" stroke="black" points="279.32,-118.1 275.82,-108.1 272.32,-118.1 279.32,-118.1"/>
</g>
<!-- INTF&#45;/IWCOR/IF_DS_EDM -->
<g id="node5" class="node">
<title>INTF&#45;/IWCOR/IF_DS_EDM</title>
<g id="a_node5"><a xlink:href="./INTF_%23IWCOR%23IF_DS_EDM.html" xlink:title="INTF&#45;/IWCOR/IF_DS_EDM">
<polygon fill="none" stroke="yellow" points="181.45,-36 0.18,-36 0.18,0 181.45,0 181.45,-36"/>
<text text-anchor="middle" x="90.82" y="-13.8" font-family="Times,serif" font-size="14.00">INTF&#45;/IWCOR/IF_DS_EDM</text>
</a>
</g>
</g>
<!-- INTF&#45;/IWCOR/IF_DS_EDM_ASSOC&#45;&gt;INTF&#45;/IWCOR/IF_DS_EDM -->
<g id="edge3" class="edge">
<title>INTF&#45;/IWCOR/IF_DS_EDM_ASSOC&#45;&gt;INTF&#45;/IWCOR/IF_DS_EDM</title>
<path fill="none" stroke="black" d="M179.57,-143.89C156.7,-136.03 134,-124.59 116.82,-108 99.79,-91.55 90.87,-65.82 87.87,-46.24"/>
<polygon fill="black" stroke="black" points="91.33,-45.67 86.79,-36.1 84.36,-46.41 91.33,-45.67"/>
</g>
<!-- INTF&#45;/IWCOR/IF_DS_EDM_ENTITY_TYPE&#45;&gt;INTF&#45;/IWCOR/IF_DS_EDM_NAMED -->
<g id="edge7" class="edge">
<title>INTF&#45;/IWCOR/IF_DS_EDM_ENTITY_TYPE&#45;&gt;INTF&#45;/IWCOR/IF_DS_EDM_NAMED</title>
<path fill="none" stroke="black" d="M329.35,-71.97C360.36,-62.1 399.58,-49.62 432.16,-39.25"/>
<polygon fill="black" stroke="black" points="433.57,-42.48 442.04,-36.11 431.45,-35.81 433.57,-42.48"/>
</g>
<!-- INTF&#45;/IWCOR/IF_DS_EDM_ENTITY_TYPE&#45;&gt;INTF&#45;/IWCOR/IF_DS_EDM -->
<g id="edge8" class="edge">
<title>INTF&#45;/IWCOR/IF_DS_EDM_ENTITY_TYPE&#45;&gt;INTF&#45;/IWCOR/IF_DS_EDM</title>
<path fill="none" stroke="black" d="M224.66,-71.88C198.02,-62.18 165.67,-49.98 139.41,-39.74"/>
<polygon fill="black" stroke="black" points="140.62,-36.46 130.04,-36.07 138.07,-42.98 140.62,-36.46"/>
</g>
<!-- TTYP&#45;STRING_TABLE -->
<g id="node6" class="node">
<title>TTYP&#45;STRING_TABLE</title>
<g id="a_node6"><a xlink:href="./TTYP_STRING_TABLE.html" xlink:title="TTYP&#45;STRING_TABLE">
<polygon fill="none" stroke="green" points="358.12,-36 199.52,-36 199.52,0 358.12,0 358.12,-36"/>
<text text-anchor="middle" x="278.82" y="-13.8" font-family="Times,serif" font-size="14.00">TTYP&#45;STRING_TABLE</text>
</a>
</g>
</g>
<!-- INTF&#45;/IWCOR/IF_DS_EDM_ENTITY_TYPE&#45;&gt;TTYP&#45;STRING_TABLE -->
<g id="edge6" class="edge">
<title>INTF&#45;/IWCOR/IF_DS_EDM_ENTITY_TYPE&#45;&gt;TTYP&#45;STRING_TABLE</title>
<path fill="none" stroke="black" d="M276.56,-71.7C276.89,-63.98 277.29,-54.71 277.66,-46.11"/>
<polygon fill="black" stroke="black" points="281.15,-46.25 278.08,-36.1 274.16,-45.95 281.15,-46.25"/>
</g>
<!-- INTF&#45;/IWCOR/IF_DS_EDM&#45;&gt;INTF&#45;/IWCOR/IF_DS_EDM_ASSOC -->
<g id="edge10" class="edge">
<title>INTF&#45;/IWCOR/IF_DS_EDM&#45;&gt;INTF&#45;/IWCOR/IF_DS_EDM_ASSOC</title>
<path fill="none" stroke="black" d="M99.61,-36.1C105.84,-55.97 114.63,-88.51 134.82,-108 149.59,-122.26 168.43,-132.71 187.51,-140.36"/>
<polygon fill="black" stroke="black" points="186.29,-143.64 196.88,-143.89 188.76,-137.09 186.29,-143.64"/>
</g>
<!-- INTF&#45;/IWCOR/IF_DS_EDM&#45;&gt;INTF&#45;/IWCOR/IF_DS_EDM_ENTITY_TYPE -->
<g id="edge9" class="edge">
<title>INTF&#45;/IWCOR/IF_DS_EDM&#45;&gt;INTF&#45;/IWCOR/IF_DS_EDM_ENTITY_TYPE</title>
<path fill="none" stroke="black" d="M141.82,-36.07C168.44,-45.76 200.79,-57.95 227.07,-68.2"/>
<polygon fill="black" stroke="black" points="225.87,-71.49 236.46,-71.88 228.42,-64.97 225.87,-71.49"/>
</g>
</g>
</svg>
