<?xml version="1.0" encoding="UTF-8" standalone="no"?>
<!DOCTYPE svg PUBLIC "-//W3C//DTD SVG 1.1//EN"
 "http://www.w3.org/Graphics/SVG/1.1/DTD/svg11.dtd">
<!-- Generated by graphviz version 2.47.3 (20210619.1520)
 -->
<!-- Title: G Pages: 1 -->
<svg width="391pt" height="188pt"
 viewBox="0.00 0.00 391.41 188.00" xmlns="http://www.w3.org/2000/svg" xmlns:xlink="http://www.w3.org/1999/xlink">
<g id="graph0" class="graph" transform="scale(1 1) rotate(0) translate(4 184)">
<title>G</title>
<polygon fill="white" stroke="transparent" points="-4,4 -4,-184 387.41,-184 387.41,4 -4,4"/>
<!-- INTF&#45;/IWBEP/IF_CP_REQUEST_BATCH -->
<g id="node1" class="node">
<title>INTF&#45;/IWBEP/IF_CP_REQUEST_BATCH</title>
<polygon fill="none" stroke="green" points="371.01,-180 106.84,-180 106.84,-144 371.01,-144 371.01,-180"/>
<text text-anchor="middle" x="238.92" y="-157.8" font-family="Times,serif" font-size="14.00">INTF&#45;/IWBEP/IF_CP_REQUEST_BATCH</text>
</g>
<!-- INTF&#45;/IWBEP/IF_CP_REQUEST_CHANGESET -->
<g id="node2" class="node">
<title>INTF&#45;/IWBEP/IF_CP_REQUEST_CHANGESET</title>
<g id="a_node2"><a xlink:href="./INTF_%23IWBEP%23IF_CP_REQUEST_CHANGESET.html" xlink:title="INTF&#45;/IWBEP/IF_CP_REQUEST_CHANGESET">
<polygon fill="none" stroke="green" points="299.77,-108 0.08,-108 0.08,-72 299.77,-72 299.77,-108"/>
<text text-anchor="middle" x="149.92" y="-85.8" font-family="Times,serif" font-size="14.00">INTF&#45;/IWBEP/IF_CP_REQUEST_CHANGESET</text>
</a>
</g>
</g>
<!-- INTF&#45;/IWBEP/IF_CP_REQUEST_BATCH&#45;&gt;INTF&#45;/IWBEP/IF_CP_REQUEST_CHANGESET -->
<g id="edge2" class="edge">
<title>INTF&#45;/IWBEP/IF_CP_REQUEST_BATCH&#45;&gt;INTF&#45;/IWBEP/IF_CP_REQUEST_CHANGESET</title>
<path fill="none" stroke="black" d="M216.92,-143.7C205.71,-134.88 191.92,-124.03 179.77,-114.47"/>
<polygon fill="black" stroke="black" points="181.69,-111.54 171.67,-108.1 177.37,-117.04 181.69,-111.54"/>
</g>
<!-- INTF&#45;/IWBEP/IF_CP_REQUEST_BATCH_OP -->
<g id="node3" class="node">
<title>INTF&#45;/IWBEP/IF_CP_REQUEST_BATCH_OP</title>
<g id="a_node3"><a xlink:href="./INTF_%23IWBEP%23IF_CP_REQUEST_BATCH_OP.html" xlink:title="INTF&#45;/IWBEP/IF_CP_REQUEST_BATCH_OP">
<polygon fill="none" stroke="green" points="383.4,-36 94.45,-36 94.45,0 383.4,0 383.4,-36"/>
<text text-anchor="middle" x="238.92" y="-13.8" font-family="Times,serif" font-size="14.00">INTF&#45;/IWBEP/IF_CP_REQUEST_BATCH_OP</text>
</a>
</g>
</g>
<!-- INTF&#45;/IWBEP/IF_CP_REQUEST_BATCH&#45;&gt;INTF&#45;/IWBEP/IF_CP_REQUEST_BATCH_OP -->
<g id="edge1" class="edge">
<title>INTF&#45;/IWBEP/IF_CP_REQUEST_BATCH&#45;&gt;INTF&#45;/IWBEP/IF_CP_REQUEST_BATCH_OP</title>
<path fill="none" stroke="black" d="M273.61,-143.83C287.23,-135.13 301.39,-123.15 308.92,-108 316.05,-93.67 316.05,-86.33 308.92,-72 302.92,-59.93 292.71,-49.87 281.91,-41.88"/>
<polygon fill="black" stroke="black" points="283.83,-38.95 273.61,-36.17 279.87,-44.71 283.83,-38.95"/>
</g>
<!-- INTF&#45;/IWBEP/IF_CP_REQUEST_CHANGESET&#45;&gt;INTF&#45;/IWBEP/IF_CP_REQUEST_BATCH_OP -->
<g id="edge3" class="edge">
<title>INTF&#45;/IWBEP/IF_CP_REQUEST_CHANGESET&#45;&gt;INTF&#45;/IWBEP/IF_CP_REQUEST_BATCH_OP</title>
<path fill="none" stroke="black" d="M171.92,-71.7C183.13,-62.88 196.93,-52.03 209.08,-42.47"/>
<polygon fill="black" stroke="black" points="211.48,-45.04 217.18,-36.1 207.15,-39.54 211.48,-45.04"/>
</g>
</g>
</svg>
