<?xml version="1.0" encoding="UTF-8" standalone="no"?>
<!DOCTYPE svg PUBLIC "-//W3C//DTD SVG 1.1//EN"
 "http://www.w3.org/Graphics/SVG/1.1/DTD/svg11.dtd">
<!-- Generated by graphviz version 2.47.3 (20210619.1520)
 -->
<!-- Title: G Pages: 1 -->
<svg width="2188pt" height="260pt"
 viewBox="0.00 0.00 2187.87 260.00" xmlns="http://www.w3.org/2000/svg" xmlns:xlink="http://www.w3.org/1999/xlink">
<g id="graph0" class="graph" transform="scale(1 1) rotate(0) translate(4 256)">
<title>G</title>
<polygon fill="white" stroke="transparent" points="-4,4 -4,-256 2183.87,-256 2183.87,4 -4,4"/>
<!-- INTF&#45;IF_SOAP_PERSIST_HEADER -->
<g id="node1" class="node">
<title>INTF&#45;IF_SOAP_PERSIST_HEADER</title>
<polygon fill="none" stroke="yellow" points="1232.3,-252 999.9,-252 999.9,-216 1232.3,-216 1232.3,-252"/>
<text text-anchor="middle" x="1116.1" y="-229.8" font-family="Times,serif" font-size="14.00">INTF&#45;IF_SOAP_PERSIST_HEADER</text>
</g>
<!-- INTF&#45;IF_SOAP_PERSIST_SET -->
<g id="node2" class="node">
<title>INTF&#45;IF_SOAP_PERSIST_SET</title>
<g id="a_node2"><a xlink:href="./INTF_IF_SOAP_PERSIST_SET.html" xlink:title="INTF&#45;IF_SOAP_PERSIST_SET">
<polygon fill="none" stroke="yellow" points="1326.42,-180 1125.78,-180 1125.78,-144 1326.42,-144 1326.42,-180"/>
<text text-anchor="middle" x="1226.1" y="-157.8" font-family="Times,serif" font-size="14.00">INTF&#45;IF_SOAP_PERSIST_SET</text>
</a>
</g>
</g>
<!-- INTF&#45;IF_SOAP_PERSIST_HEADER&#45;&gt;INTF&#45;IF_SOAP_PERSIST_SET -->
<g id="edge2" class="edge">
<title>INTF&#45;IF_SOAP_PERSIST_HEADER&#45;&gt;INTF&#45;IF_SOAP_PERSIST_SET</title>
<path fill="none" stroke="black" d="M1143.01,-215.88C1157.26,-206.81 1174.95,-195.55 1190.34,-185.76"/>
<polygon fill="black" stroke="black" points="1192.53,-188.51 1199.09,-180.19 1188.77,-182.61 1192.53,-188.51"/>
</g>
<!-- INTF&#45;IF_SOAP_PERSIST_GET -->
<g id="node30" class="node">
<title>INTF&#45;IF_SOAP_PERSIST_GET</title>
<g id="a_node30"><a xlink:href="./INTF_IF_SOAP_PERSIST_GET.html" xlink:title="INTF&#45;IF_SOAP_PERSIST_GET">
<polygon fill="none" stroke="yellow" points="1108.25,-180 905.95,-180 905.95,-144 1108.25,-144 1108.25,-180"/>
<text text-anchor="middle" x="1007.1" y="-157.8" font-family="Times,serif" font-size="14.00">INTF&#45;IF_SOAP_PERSIST_GET</text>
</a>
</g>
</g>
<!-- INTF&#45;IF_SOAP_PERSIST_HEADER&#45;&gt;INTF&#45;IF_SOAP_PERSIST_GET -->
<g id="edge1" class="edge">
<title>INTF&#45;IF_SOAP_PERSIST_HEADER&#45;&gt;INTF&#45;IF_SOAP_PERSIST_GET</title>
<path fill="none" stroke="black" d="M1089.44,-215.88C1075.32,-206.81 1057.79,-195.55 1042.54,-185.76"/>
<polygon fill="black" stroke="black" points="1044.17,-182.65 1033.87,-180.19 1040.39,-188.54 1044.17,-182.65"/>
</g>
<!-- DTEL&#45;INT4 -->
<g id="node3" class="node">
<title>DTEL&#45;INT4</title>
<g id="a_node3"><a xlink:href="./DTEL_INT4.html" xlink:title="DTEL&#45;INT4">
<polygon fill="none" stroke="green" points="1569.35,-108 1482.86,-108 1482.86,-72 1569.35,-72 1569.35,-108"/>
<text text-anchor="middle" x="1526.1" y="-85.8" font-family="Times,serif" font-size="14.00">DTEL&#45;INT4</text>
</a>
</g>
</g>
<!-- INTF&#45;IF_SOAP_PERSIST_SET&#45;&gt;DTEL&#45;INT4 -->
<g id="edge16" class="edge">
<title>INTF&#45;IF_SOAP_PERSIST_SET&#45;&gt;DTEL&#45;INT4</title>
<path fill="none" stroke="black" d="M1317.06,-143.95C1361.63,-135.03 1416.21,-123.26 1472.93,-108.19"/>
<polygon fill="black" stroke="black" points="1474.04,-111.51 1482.79,-105.54 1472.23,-104.75 1474.04,-111.51"/>
</g>
<!-- DTEL&#45;NUMC3 -->
<g id="node5" class="node">
<title>DTEL&#45;NUMC3</title>
<g id="a_node5"><a xlink:href="./DTEL_NUMC3.html" xlink:title="DTEL&#45;NUMC3">
<polygon fill="none" stroke="yellow" points="1693.02,-108 1587.18,-108 1587.18,-72 1693.02,-72 1693.02,-108"/>
<text text-anchor="middle" x="1640.1" y="-85.8" font-family="Times,serif" font-size="14.00">DTEL&#45;NUMC3</text>
</a>
</g>
</g>
<!-- INTF&#45;IF_SOAP_PERSIST_SET&#45;&gt;DTEL&#45;NUMC3 -->
<g id="edge15" class="edge">
<title>INTF&#45;IF_SOAP_PERSIST_SET&#45;&gt;DTEL&#45;NUMC3</title>
<path fill="none" stroke="black" d="M1326.42,-149.1C1394.67,-140.25 1487.14,-126.8 1577.26,-108.05"/>
<polygon fill="black" stroke="black" points="1578.04,-111.46 1587.1,-105.97 1576.59,-104.61 1578.04,-111.46"/>
</g>
<!-- DTEL&#45;TIMESTAMP -->
<g id="node7" class="node">
<title>DTEL&#45;TIMESTAMP</title>
<g id="a_node7"><a xlink:href="./DTEL_TIMESTAMP.html" xlink:title="DTEL&#45;TIMESTAMP">
<polygon fill="none" stroke="green" points="2176.91,-108 2039.3,-108 2039.3,-72 2176.91,-72 2176.91,-108"/>
<text text-anchor="middle" x="2108.1" y="-85.8" font-family="Times,serif" font-size="14.00">DTEL&#45;TIMESTAMP</text>
</a>
</g>
</g>
<!-- INTF&#45;IF_SOAP_PERSIST_SET&#45;&gt;DTEL&#45;TIMESTAMP -->
<g id="edge14" class="edge">
<title>INTF&#45;IF_SOAP_PERSIST_SET&#45;&gt;DTEL&#45;TIMESTAMP</title>
<path fill="none" stroke="black" d="M1326.55,-159.17C1477.29,-155.36 1770.95,-143.8 2029.35,-107.97"/>
<polygon fill="black" stroke="black" points="2029.88,-111.43 2039.3,-106.58 2028.91,-104.5 2029.88,-111.43"/>
</g>
<!-- DTEL&#45;SRT_SEQUENCE_ID -->
<g id="node9" class="node">
<title>DTEL&#45;SRT_SEQUENCE_ID</title>
<g id="a_node9"><a xlink:href="./DTEL_SRT_SEQUENCE_ID.html" xlink:title="DTEL&#45;SRT_SEQUENCE_ID">
<polygon fill="none" stroke="yellow" points="1895.06,-108 1711.14,-108 1711.14,-72 1895.06,-72 1895.06,-108"/>
<text text-anchor="middle" x="1803.1" y="-85.8" font-family="Times,serif" font-size="14.00">DTEL&#45;SRT_SEQUENCE_ID</text>
</a>
</g>
</g>
<!-- INTF&#45;IF_SOAP_PERSIST_SET&#45;&gt;DTEL&#45;SRT_SEQUENCE_ID -->
<g id="edge13" class="edge">
<title>INTF&#45;IF_SOAP_PERSIST_SET&#45;&gt;DTEL&#45;SRT_SEQUENCE_ID</title>
<path fill="none" stroke="black" d="M1326.6,-151.46C1420.72,-142.14 1565.53,-126.83 1700.8,-108.14"/>
<polygon fill="black" stroke="black" points="1701.51,-111.58 1710.93,-106.73 1700.55,-104.64 1701.51,-111.58"/>
</g>
<!-- DTEL&#45;SYUNAME -->
<g id="node11" class="node">
<title>DTEL&#45;SYUNAME</title>
<g id="a_node11"><a xlink:href="./DTEL_SYUNAME.html" xlink:title="DTEL&#45;SYUNAME">
<polygon fill="none" stroke="green" points="168.73,-108 43.47,-108 43.47,-72 168.73,-72 168.73,-108"/>
<text text-anchor="middle" x="106.1" y="-85.8" font-family="Times,serif" font-size="14.00">DTEL&#45;SYUNAME</text>
</a>
</g>
</g>
<!-- INTF&#45;IF_SOAP_PERSIST_SET&#45;&gt;DTEL&#45;SYUNAME -->
<g id="edge12" class="edge">
<title>INTF&#45;IF_SOAP_PERSIST_SET&#45;&gt;DTEL&#45;SYUNAME</title>
<path fill="none" stroke="black" d="M1125.78,-144.9C1122.86,-144.58 1119.96,-144.28 1117.1,-144 704.31,-104.04 593.07,-163.97 179.22,-108.14"/>
<polygon fill="black" stroke="black" points="179.46,-104.64 169.08,-106.76 178.51,-111.58 179.46,-104.64"/>
</g>
<!-- DTEL&#45;SRT_SEQ_QUEUENAME -->
<g id="node13" class="node">
<title>DTEL&#45;SRT_SEQ_QUEUENAME</title>
<g id="a_node13"><a xlink:href="./DTEL_SRT_SEQ_QUEUENAME.html" xlink:title="DTEL&#45;SRT_SEQ_QUEUENAME">
<polygon fill="none" stroke="yellow" points="397.77,-108 186.43,-108 186.43,-72 397.77,-72 397.77,-108"/>
<text text-anchor="middle" x="292.1" y="-85.8" font-family="Times,serif" font-size="14.00">DTEL&#45;SRT_SEQ_QUEUENAME</text>
</a>
</g>
</g>
<!-- INTF&#45;IF_SOAP_PERSIST_SET&#45;&gt;DTEL&#45;SRT_SEQ_QUEUENAME -->
<g id="edge11" class="edge">
<title>INTF&#45;IF_SOAP_PERSIST_SET&#45;&gt;DTEL&#45;SRT_SEQ_QUEUENAME</title>
<path fill="none" stroke="black" d="M1125.78,-144.95C1122.86,-144.61 1119.96,-144.29 1117.1,-144 805.74,-111.93 722.72,-138.78 408.27,-108.16"/>
<polygon fill="black" stroke="black" points="408.24,-104.64 397.95,-107.14 407.55,-111.61 408.24,-104.64"/>
</g>
<!-- DTEL&#45;SYMANDT -->
<g id="node15" class="node">
<title>DTEL&#45;SYMANDT</title>
<g id="a_node15"><a xlink:href="./DTEL_SYMANDT.html" xlink:title="DTEL&#45;SYMANDT">
<polygon fill="none" stroke="yellow" points="540.73,-108 415.47,-108 415.47,-72 540.73,-72 540.73,-108"/>
<text text-anchor="middle" x="478.1" y="-85.8" font-family="Times,serif" font-size="14.00">DTEL&#45;SYMANDT</text>
</a>
</g>
</g>
<!-- INTF&#45;IF_SOAP_PERSIST_SET&#45;&gt;DTEL&#45;SYMANDT -->
<g id="edge10" class="edge">
<title>INTF&#45;IF_SOAP_PERSIST_SET&#45;&gt;DTEL&#45;SYMANDT</title>
<path fill="none" stroke="black" d="M1125.77,-145C1122.85,-144.65 1119.96,-144.31 1117.1,-144 869.4,-116.88 801.64,-144.4 550.95,-107.96"/>
<polygon fill="black" stroke="black" points="551.21,-104.46 540.81,-106.46 550.19,-111.38 551.21,-104.46"/>
</g>
<!-- DTEL&#45;AIT_SNDR -->
<g id="node17" class="node">
<title>DTEL&#45;AIT_SNDR</title>
<g id="a_node17"><a xlink:href="./DTEL_AIT_SNDR.html" xlink:title="DTEL&#45;AIT_SNDR">
<polygon fill="none" stroke="yellow" points="683.18,-108 559.02,-108 559.02,-72 683.18,-72 683.18,-108"/>
<text text-anchor="middle" x="621.1" y="-85.8" font-family="Times,serif" font-size="14.00">DTEL&#45;AIT_SNDR</text>
</a>
</g>
</g>
<!-- INTF&#45;IF_SOAP_PERSIST_SET&#45;&gt;DTEL&#45;AIT_SNDR -->
<g id="edge9" class="edge">
<title>INTF&#45;IF_SOAP_PERSIST_SET&#45;&gt;DTEL&#45;AIT_SNDR</title>
<path fill="none" stroke="black" d="M1125.76,-145.08C1122.84,-144.7 1119.95,-144.34 1117.1,-144 932.11,-121.77 880.99,-137.59 693.25,-108.04"/>
<polygon fill="black" stroke="black" points="693.76,-104.58 683.33,-106.46 692.65,-111.49 693.76,-104.58"/>
</g>
<!-- DTEL&#45;SXMSQOS -->
<g id="node19" class="node">
<title>DTEL&#45;SXMSQOS</title>
<g id="a_node19"><a xlink:href="./DTEL_SXMSQOS.html" xlink:title="DTEL&#45;SXMSQOS">
<polygon fill="none" stroke="yellow" points="823.14,-108 701.06,-108 701.06,-72 823.14,-72 823.14,-108"/>
<text text-anchor="middle" x="762.1" y="-85.8" font-family="Times,serif" font-size="14.00">DTEL&#45;SXMSQOS</text>
</a>
</g>
</g>
<!-- INTF&#45;IF_SOAP_PERSIST_SET&#45;&gt;DTEL&#45;SXMSQOS -->
<g id="edge8" class="edge">
<title>INTF&#45;IF_SOAP_PERSIST_SET&#45;&gt;DTEL&#45;SXMSQOS</title>
<path fill="none" stroke="black" d="M1125.74,-145.24C1122.83,-144.81 1119.94,-144.4 1117.1,-144 993.89,-126.61 959.4,-130.87 833.51,-108.15"/>
<polygon fill="black" stroke="black" points="833.94,-104.67 823.48,-106.32 832.69,-111.56 833.94,-104.67"/>
</g>
<!-- TABL&#45;QNAME -->
<g id="node21" class="node">
<title>TABL&#45;QNAME</title>
<g id="a_node21"><a xlink:href="./TABL_QNAME.html" xlink:title="TABL&#45;QNAME">
<polygon fill="none" stroke="green" points="2021.13,-108 1913.07,-108 1913.07,-72 2021.13,-72 2021.13,-108"/>
<text text-anchor="middle" x="1967.1" y="-85.8" font-family="Times,serif" font-size="14.00">TABL&#45;QNAME</text>
</a>
</g>
</g>
<!-- INTF&#45;IF_SOAP_PERSIST_SET&#45;&gt;TABL&#45;QNAME -->
<g id="edge7" class="edge">
<title>INTF&#45;IF_SOAP_PERSIST_SET&#45;&gt;TABL&#45;QNAME</title>
<path fill="none" stroke="black" d="M1326.48,-158.96C1457.38,-155 1693.41,-143.41 1902.99,-108"/>
<polygon fill="black" stroke="black" points="1903.68,-111.43 1912.95,-106.3 1902.5,-104.53 1903.68,-111.43"/>
</g>
<!-- DTEL&#45;SXMSPMTYPE -->
<g id="node22" class="node">
<title>DTEL&#45;SXMSPMTYPE</title>
<g id="a_node22"><a xlink:href="./DTEL_SXMSPMTYPE.html" xlink:title="DTEL&#45;SXMSPMTYPE">
<polygon fill="none" stroke="yellow" points="990.86,-108 841.34,-108 841.34,-72 990.86,-72 990.86,-108"/>
<text text-anchor="middle" x="916.1" y="-85.8" font-family="Times,serif" font-size="14.00">DTEL&#45;SXMSPMTYPE</text>
</a>
</g>
</g>
<!-- INTF&#45;IF_SOAP_PERSIST_SET&#45;&gt;DTEL&#45;SXMSPMTYPE -->
<g id="edge6" class="edge">
<title>INTF&#45;IF_SOAP_PERSIST_SET&#45;&gt;DTEL&#45;SXMSPMTYPE</title>
<path fill="none" stroke="black" d="M1150.66,-143.97C1105.4,-133.75 1047.73,-120.72 1000.89,-110.15"/>
<polygon fill="black" stroke="black" points="1001.6,-106.72 991.07,-107.93 1000.05,-113.55 1001.6,-106.72"/>
</g>
<!-- DTEL&#45;BOOLEAN -->
<g id="node24" class="node">
<title>DTEL&#45;BOOLEAN</title>
<g id="a_node24"><a xlink:href="./DTEL_BOOLEAN.html" xlink:title="DTEL&#45;BOOLEAN">
<polygon fill="none" stroke="yellow" points="1132.89,-108 1009.31,-108 1009.31,-72 1132.89,-72 1132.89,-108"/>
<text text-anchor="middle" x="1071.1" y="-85.8" font-family="Times,serif" font-size="14.00">DTEL&#45;BOOLEAN</text>
</a>
</g>
</g>
<!-- INTF&#45;IF_SOAP_PERSIST_SET&#45;&gt;DTEL&#45;BOOLEAN -->
<g id="edge5" class="edge">
<title>INTF&#45;IF_SOAP_PERSIST_SET&#45;&gt;DTEL&#45;BOOLEAN</title>
<path fill="none" stroke="black" d="M1188.18,-143.88C1167.09,-134.35 1140.64,-122.41 1118.23,-112.28"/>
<polygon fill="black" stroke="black" points="1119.45,-108.99 1108.89,-108.07 1116.57,-115.37 1119.45,-108.99"/>
</g>
<!-- DTEL&#45;SXMSPMSTAT -->
<g id="node26" class="node">
<title>DTEL&#45;SXMSPMSTAT</title>
<g id="a_node26"><a xlink:href="./DTEL_SXMSPMSTAT.html" xlink:title="DTEL&#45;SXMSPMSTAT">
<polygon fill="none" stroke="yellow" points="1300.86,-108 1151.34,-108 1151.34,-72 1300.86,-72 1300.86,-108"/>
<text text-anchor="middle" x="1226.1" y="-85.8" font-family="Times,serif" font-size="14.00">DTEL&#45;SXMSPMSTAT</text>
</a>
</g>
</g>
<!-- INTF&#45;IF_SOAP_PERSIST_SET&#45;&gt;DTEL&#45;SXMSPMSTAT -->
<g id="edge4" class="edge">
<title>INTF&#45;IF_SOAP_PERSIST_SET&#45;&gt;DTEL&#45;SXMSPMSTAT</title>
<path fill="none" stroke="black" d="M1226.1,-143.7C1226.1,-135.98 1226.1,-126.71 1226.1,-118.11"/>
<polygon fill="black" stroke="black" points="1229.6,-118.1 1226.1,-108.1 1222.6,-118.1 1229.6,-118.1"/>
</g>
<!-- DTEL&#45;TIMESTAMPL -->
<g id="node28" class="node">
<title>DTEL&#45;TIMESTAMPL</title>
<g id="a_node28"><a xlink:href="./DTEL_TIMESTAMPL.html" xlink:title="DTEL&#45;TIMESTAMPL">
<polygon fill="none" stroke="green" points="1464.96,-108 1319.24,-108 1319.24,-72 1464.96,-72 1464.96,-108"/>
<text text-anchor="middle" x="1392.1" y="-85.8" font-family="Times,serif" font-size="14.00">DTEL&#45;TIMESTAMPL</text>
</a>
</g>
</g>
<!-- INTF&#45;IF_SOAP_PERSIST_SET&#45;&gt;DTEL&#45;TIMESTAMPL -->
<g id="edge3" class="edge">
<title>INTF&#45;IF_SOAP_PERSIST_SET&#45;&gt;DTEL&#45;TIMESTAMPL</title>
<path fill="none" stroke="black" d="M1266.71,-143.88C1289.5,-134.26 1318.13,-122.19 1342.27,-112.01"/>
<polygon fill="black" stroke="black" points="1343.77,-115.18 1351.62,-108.07 1341.05,-108.73 1343.77,-115.18"/>
</g>
<!-- DOMA&#45;INT4 -->
<g id="node4" class="node">
<title>DOMA&#45;INT4</title>
<g id="a_node4"><a xlink:href="./DOMA_INT4.html" xlink:title="DOMA&#45;INT4">
<polygon fill="none" stroke="yellow" points="1589.85,-36 1496.36,-36 1496.36,0 1589.85,0 1589.85,-36"/>
<text text-anchor="middle" x="1543.1" y="-13.8" font-family="Times,serif" font-size="14.00">DOMA&#45;INT4</text>
</a>
</g>
</g>
<!-- DTEL&#45;INT4&#45;&gt;DOMA&#45;INT4 -->
<g id="edge17" class="edge">
<title>DTEL&#45;INT4&#45;&gt;DOMA&#45;INT4</title>
<path fill="none" stroke="black" d="M1530.3,-71.7C1532.2,-63.9 1534.48,-54.51 1536.58,-45.83"/>
<polygon fill="black" stroke="black" points="1539.99,-46.65 1538.95,-36.1 1533.19,-45 1539.99,-46.65"/>
</g>
<!-- DOMA&#45;NUMC3 -->
<g id="node6" class="node">
<title>DOMA&#45;NUMC3</title>
<g id="a_node6"><a xlink:href="./DOMA_NUMC3.html" xlink:title="DOMA&#45;NUMC3">
<polygon fill="none" stroke="yellow" points="1720.52,-36 1607.68,-36 1607.68,0 1720.52,0 1720.52,-36"/>
<text text-anchor="middle" x="1664.1" y="-13.8" font-family="Times,serif" font-size="14.00">DOMA&#45;NUMC3</text>
</a>
</g>
</g>
<!-- DTEL&#45;NUMC3&#45;&gt;DOMA&#45;NUMC3 -->
<g id="edge18" class="edge">
<title>DTEL&#45;NUMC3&#45;&gt;DOMA&#45;NUMC3</title>
<path fill="none" stroke="black" d="M1646.03,-71.7C1648.71,-63.9 1651.93,-54.51 1654.9,-45.83"/>
<polygon fill="black" stroke="black" points="1658.3,-46.7 1658.24,-36.1 1651.68,-44.43 1658.3,-46.7"/>
</g>
<!-- DOMA&#45;TZNTSTMPS -->
<g id="node8" class="node">
<title>DOMA&#45;TZNTSTMPS</title>
<g id="a_node8"><a xlink:href="./DOMA_TZNTSTMPS.html" xlink:title="DOMA&#45;TZNTSTMPS">
<polygon fill="none" stroke="yellow" points="2179.64,-36 2036.57,-36 2036.57,0 2179.64,0 2179.64,-36"/>
<text text-anchor="middle" x="2108.1" y="-13.8" font-family="Times,serif" font-size="14.00">DOMA&#45;TZNTSTMPS</text>
</a>
</g>
</g>
<!-- DTEL&#45;TIMESTAMP&#45;&gt;DOMA&#45;TZNTSTMPS -->
<g id="edge19" class="edge">
<title>DTEL&#45;TIMESTAMP&#45;&gt;DOMA&#45;TZNTSTMPS</title>
<path fill="none" stroke="black" d="M2108.1,-71.7C2108.1,-63.98 2108.1,-54.71 2108.1,-46.11"/>
<polygon fill="black" stroke="black" points="2111.6,-46.1 2108.1,-36.1 2104.6,-46.1 2111.6,-46.1"/>
</g>
<!-- DOMA&#45;SRT_SEQUENCE_QUEUE_IDENT -->
<g id="node10" class="node">
<title>DOMA&#45;SRT_SEQUENCE_QUEUE_IDENT</title>
<g id="a_node10"><a xlink:href="./DOMA_SRT_SEQUENCE_QUEUE_IDENT.html" xlink:title="DOMA&#45;SRT_SEQUENCE_QUEUE_IDENT">
<polygon fill="none" stroke="yellow" points="2011.2,-36 1739,-36 1739,0 2011.2,0 2011.2,-36"/>
<text text-anchor="middle" x="1875.1" y="-13.8" font-family="Times,serif" font-size="14.00">DOMA&#45;SRT_SEQUENCE_QUEUE_IDENT</text>
</a>
</g>
</g>
<!-- DTEL&#45;SRT_SEQUENCE_ID&#45;&gt;DOMA&#45;SRT_SEQUENCE_QUEUE_IDENT -->
<g id="edge20" class="edge">
<title>DTEL&#45;SRT_SEQUENCE_ID&#45;&gt;DOMA&#45;SRT_SEQUENCE_QUEUE_IDENT</title>
<path fill="none" stroke="black" d="M1820.9,-71.7C1829.7,-63.14 1840.48,-52.66 1850.1,-43.3"/>
<polygon fill="black" stroke="black" points="1852.78,-45.58 1857.51,-36.1 1847.9,-40.57 1852.78,-45.58"/>
</g>
<!-- DOMA&#45;SYCHAR12 -->
<g id="node12" class="node">
<title>DOMA&#45;SYCHAR12</title>
<g id="a_node12"><a xlink:href="./DOMA_SYCHAR12.html" xlink:title="DOMA&#45;SYCHAR12">
<polygon fill="none" stroke="yellow" points="134.3,-36 -0.1,-36 -0.1,0 134.3,0 134.3,-36"/>
<text text-anchor="middle" x="67.1" y="-13.8" font-family="Times,serif" font-size="14.00">DOMA&#45;SYCHAR12</text>
</a>
</g>
</g>
<!-- DTEL&#45;SYUNAME&#45;&gt;DOMA&#45;SYCHAR12 -->
<g id="edge21" class="edge">
<title>DTEL&#45;SYUNAME&#45;&gt;DOMA&#45;SYCHAR12</title>
<path fill="none" stroke="black" d="M96.46,-71.7C91.97,-63.64 86.54,-53.89 81.58,-44.98"/>
<polygon fill="black" stroke="black" points="84.55,-43.14 76.63,-36.1 78.44,-46.54 84.55,-43.14"/>
</g>
<!-- DOMA&#45;SRT_SEQ_QUEUENAME -->
<g id="node14" class="node">
<title>DOMA&#45;SRT_SEQ_QUEUENAME</title>
<g id="a_node14"><a xlink:href="./DOMA_SRT_SEQ_QUEUENAME.html" xlink:title="DOMA&#45;SRT_SEQ_QUEUENAME">
<polygon fill="none" stroke="yellow" points="370.27,-36 151.93,-36 151.93,0 370.27,0 370.27,-36"/>
<text text-anchor="middle" x="261.1" y="-13.8" font-family="Times,serif" font-size="14.00">DOMA&#45;SRT_SEQ_QUEUENAME</text>
</a>
</g>
</g>
<!-- DTEL&#45;SRT_SEQ_QUEUENAME&#45;&gt;DOMA&#45;SRT_SEQ_QUEUENAME -->
<g id="edge22" class="edge">
<title>DTEL&#45;SRT_SEQ_QUEUENAME&#45;&gt;DOMA&#45;SRT_SEQ_QUEUENAME</title>
<path fill="none" stroke="black" d="M284.44,-71.7C280.91,-63.73 276.64,-54.1 272.73,-45.26"/>
<polygon fill="black" stroke="black" points="275.92,-43.83 268.68,-36.1 269.52,-46.67 275.92,-43.83"/>
</g>
<!-- DOMA&#45;MANDT -->
<g id="node16" class="node">
<title>DOMA&#45;MANDT</title>
<g id="a_node16"><a xlink:href="./DOMA_MANDT.html" xlink:title="DOMA&#45;MANDT">
<polygon fill="none" stroke="yellow" points="502.34,-36 387.86,-36 387.86,0 502.34,0 502.34,-36"/>
<text text-anchor="middle" x="445.1" y="-13.8" font-family="Times,serif" font-size="14.00">DOMA&#45;MANDT</text>
</a>
</g>
</g>
<!-- DTEL&#45;SYMANDT&#45;&gt;DOMA&#45;MANDT -->
<g id="edge23" class="edge">
<title>DTEL&#45;SYMANDT&#45;&gt;DOMA&#45;MANDT</title>
<path fill="none" stroke="black" d="M469.94,-71.7C466.19,-63.73 461.65,-54.1 457.48,-45.26"/>
<polygon fill="black" stroke="black" points="460.59,-43.66 453.16,-36.1 454.26,-46.64 460.59,-43.66"/>
</g>
<!-- DOMA&#45;AIT_SYSTEM -->
<g id="node18" class="node">
<title>DOMA&#45;AIT_SYSTEM</title>
<g id="a_node18"><a xlink:href="./DOMA_AIT_SYSTEM.html" xlink:title="DOMA&#45;AIT_SYSTEM">
<polygon fill="none" stroke="yellow" points="669.57,-36 520.63,-36 520.63,0 669.57,0 669.57,-36"/>
<text text-anchor="middle" x="595.1" y="-13.8" font-family="Times,serif" font-size="14.00">DOMA&#45;AIT_SYSTEM</text>
</a>
</g>
</g>
<!-- DTEL&#45;AIT_SNDR&#45;&gt;DOMA&#45;AIT_SYSTEM -->
<g id="edge24" class="edge">
<title>DTEL&#45;AIT_SNDR&#45;&gt;DOMA&#45;AIT_SYSTEM</title>
<path fill="none" stroke="black" d="M614.67,-71.7C611.75,-63.81 608.21,-54.3 604.96,-45.55"/>
<polygon fill="black" stroke="black" points="608.22,-44.26 601.45,-36.1 601.65,-46.7 608.22,-44.26"/>
</g>
<!-- DOMA&#45;SXMSQOS -->
<g id="node20" class="node">
<title>DOMA&#45;SXMSQOS</title>
<g id="a_node20"><a xlink:href="./DOMA_SXMSQOS.html" xlink:title="DOMA&#45;SXMSQOS">
<polygon fill="none" stroke="yellow" points="816.64,-36 687.56,-36 687.56,0 816.64,0 816.64,-36"/>
<text text-anchor="middle" x="752.1" y="-13.8" font-family="Times,serif" font-size="14.00">DOMA&#45;SXMSQOS</text>
</a>
</g>
</g>
<!-- DTEL&#45;SXMSQOS&#45;&gt;DOMA&#45;SXMSQOS -->
<g id="edge25" class="edge">
<title>DTEL&#45;SXMSQOS&#45;&gt;DOMA&#45;SXMSQOS</title>
<path fill="none" stroke="black" d="M759.63,-71.7C758.53,-63.98 757.2,-54.71 755.97,-46.11"/>
<polygon fill="black" stroke="black" points="759.42,-45.51 754.54,-36.1 752.49,-46.5 759.42,-45.51"/>
</g>
<!-- DOMA&#45;SXMSPMTYPE -->
<g id="node23" class="node">
<title>DOMA&#45;SXMSPMTYPE</title>
<g id="a_node23"><a xlink:href="./DOMA_SXMSPMTYPE.html" xlink:title="DOMA&#45;SXMSPMTYPE">
<polygon fill="none" stroke="yellow" points="991.36,-36 834.84,-36 834.84,0 991.36,0 991.36,-36"/>
<text text-anchor="middle" x="913.1" y="-13.8" font-family="Times,serif" font-size="14.00">DOMA&#45;SXMSPMTYPE</text>
</a>
</g>
</g>
<!-- DTEL&#45;SXMSPMTYPE&#45;&gt;DOMA&#45;SXMSPMTYPE -->
<g id="edge26" class="edge">
<title>DTEL&#45;SXMSPMTYPE&#45;&gt;DOMA&#45;SXMSPMTYPE</title>
<path fill="none" stroke="black" d="M915.36,-71.7C915.03,-63.98 914.63,-54.71 914.26,-46.11"/>
<polygon fill="black" stroke="black" points="917.76,-45.95 913.83,-36.1 910.76,-46.25 917.76,-45.95"/>
</g>
<!-- DOMA&#45;BOOLEAN -->
<g id="node25" class="node">
<title>DOMA&#45;BOOLEAN</title>
<g id="a_node25"><a xlink:href="./DOMA_BOOLEAN.html" xlink:title="DOMA&#45;BOOLEAN">
<polygon fill="none" stroke="yellow" points="1140.39,-36 1009.81,-36 1009.81,0 1140.39,0 1140.39,-36"/>
<text text-anchor="middle" x="1075.1" y="-13.8" font-family="Times,serif" font-size="14.00">DOMA&#45;BOOLEAN</text>
</a>
</g>
</g>
<!-- DTEL&#45;BOOLEAN&#45;&gt;DOMA&#45;BOOLEAN -->
<g id="edge27" class="edge">
<title>DTEL&#45;BOOLEAN&#45;&gt;DOMA&#45;BOOLEAN</title>
<path fill="none" stroke="black" d="M1072.09,-71.7C1072.53,-63.98 1073.06,-54.71 1073.55,-46.11"/>
<polygon fill="black" stroke="black" points="1077.05,-46.29 1074.12,-36.1 1070.06,-45.89 1077.05,-46.29"/>
</g>
<!-- DOMA&#45;SXMSPMSTAT -->
<g id="node27" class="node">
<title>DOMA&#45;SXMSPMSTAT</title>
<g id="a_node27"><a xlink:href="./DOMA_SXMSPMSTAT.html" xlink:title="DOMA&#45;SXMSPMSTAT">
<polygon fill="none" stroke="yellow" points="1315.36,-36 1158.84,-36 1158.84,0 1315.36,0 1315.36,-36"/>
<text text-anchor="middle" x="1237.1" y="-13.8" font-family="Times,serif" font-size="14.00">DOMA&#45;SXMSPMSTAT</text>
</a>
</g>
</g>
<!-- DTEL&#45;SXMSPMSTAT&#45;&gt;DOMA&#45;SXMSPMSTAT -->
<g id="edge28" class="edge">
<title>DTEL&#45;SXMSPMSTAT&#45;&gt;DOMA&#45;SXMSPMSTAT</title>
<path fill="none" stroke="black" d="M1228.82,-71.7C1230.03,-63.98 1231.49,-54.71 1232.84,-46.11"/>
<polygon fill="black" stroke="black" points="1236.32,-46.53 1234.41,-36.1 1229.4,-45.44 1236.32,-46.53"/>
</g>
<!-- DOMA&#45;TZNTSTMPL -->
<g id="node29" class="node">
<title>DOMA&#45;TZNTSTMPL</title>
<g id="a_node29"><a xlink:href="./DOMA_TZNTSTMPL.html" xlink:title="DOMA&#45;TZNTSTMPL">
<polygon fill="none" stroke="yellow" points="1478.41,-36 1333.8,-36 1333.8,0 1478.41,0 1478.41,-36"/>
<text text-anchor="middle" x="1406.1" y="-13.8" font-family="Times,serif" font-size="14.00">DOMA&#45;TZNTSTMPL</text>
</a>
</g>
</g>
<!-- DTEL&#45;TIMESTAMPL&#45;&gt;DOMA&#45;TZNTSTMPL -->
<g id="edge29" class="edge">
<title>DTEL&#45;TIMESTAMPL&#45;&gt;DOMA&#45;TZNTSTMPL</title>
<path fill="none" stroke="black" d="M1395.56,-71.7C1397.1,-63.98 1398.96,-54.71 1400.68,-46.11"/>
<polygon fill="black" stroke="black" points="1404.15,-46.6 1402.68,-36.1 1397.29,-45.22 1404.15,-46.6"/>
</g>
<!-- INTF&#45;IF_SOAP_PERSIST_GET&#45;&gt;DTEL&#45;INT4 -->
<g id="edge42" class="edge">
<title>INTF&#45;IF_SOAP_PERSIST_GET&#45;&gt;DTEL&#45;INT4</title>
<path fill="none" stroke="black" d="M1108.37,-145.14C1111.31,-144.75 1114.23,-144.37 1117.1,-144 1272.04,-124.23 1316.27,-140.28 1472.62,-108.06"/>
<polygon fill="black" stroke="black" points="1473.52,-111.45 1482.59,-105.98 1472.09,-104.6 1473.52,-111.45"/>
</g>
<!-- INTF&#45;IF_SOAP_PERSIST_GET&#45;&gt;DTEL&#45;NUMC3 -->
<g id="edge41" class="edge">
<title>INTF&#45;IF_SOAP_PERSIST_GET&#45;&gt;DTEL&#45;NUMC3</title>
<path fill="none" stroke="black" d="M1108.36,-145.06C1111.3,-144.69 1114.22,-144.33 1117.1,-144 1317.95,-120.67 1373.86,-142.6 1577.05,-107.98"/>
<polygon fill="black" stroke="black" points="1577.89,-111.38 1587.15,-106.23 1576.7,-104.48 1577.89,-111.38"/>
</g>
<!-- INTF&#45;IF_SOAP_PERSIST_GET&#45;&gt;DTEL&#45;SRT_SEQUENCE_ID -->
<g id="edge32" class="edge">
<title>INTF&#45;IF_SOAP_PERSIST_GET&#45;&gt;DTEL&#45;SRT_SEQUENCE_ID</title>
<path fill="none" stroke="black" d="M1108.35,-144.99C1111.3,-144.64 1114.22,-144.31 1117.1,-144 1372.8,-116.43 1441.57,-137.12 1700.86,-108.07"/>
<polygon fill="black" stroke="black" points="1701.42,-111.53 1710.96,-106.92 1700.63,-104.57 1701.42,-111.53"/>
</g>
<!-- INTF&#45;IF_SOAP_PERSIST_GET&#45;&gt;DTEL&#45;SYUNAME -->
<g id="edge39" class="edge">
<title>INTF&#45;IF_SOAP_PERSIST_GET&#45;&gt;DTEL&#45;SYUNAME</title>
<path fill="none" stroke="black" d="M905.89,-160.11C750.96,-157.5 445.73,-147.51 179.35,-108.2"/>
<polygon fill="black" stroke="black" points="179.5,-104.69 169.09,-106.67 178.47,-111.61 179.5,-104.69"/>
</g>
<!-- INTF&#45;IF_SOAP_PERSIST_GET&#45;&gt;DTEL&#45;SRT_SEQ_QUEUENAME -->
<g id="edge31" class="edge">
<title>INTF&#45;IF_SOAP_PERSIST_GET&#45;&gt;DTEL&#45;SRT_SEQ_QUEUENAME</title>
<path fill="none" stroke="black" d="M905.89,-153.94C788.45,-145.32 588.75,-129.37 407.92,-108.18"/>
<polygon fill="black" stroke="black" points="408.3,-104.7 397.96,-107.01 407.48,-111.65 408.3,-104.7"/>
</g>
<!-- INTF&#45;IF_SOAP_PERSIST_GET&#45;&gt;DTEL&#45;SYMANDT -->
<g id="edge38" class="edge">
<title>INTF&#45;IF_SOAP_PERSIST_GET&#45;&gt;DTEL&#45;SYMANDT</title>
<path fill="none" stroke="black" d="M905.87,-152.67C815.3,-144.43 678.79,-130.07 550.82,-108.01"/>
<polygon fill="black" stroke="black" points="551.29,-104.54 540.84,-106.27 550.09,-111.43 551.29,-104.54"/>
</g>
<!-- INTF&#45;IF_SOAP_PERSIST_GET&#45;&gt;DTEL&#45;AIT_SNDR -->
<g id="edge33" class="edge">
<title>INTF&#45;IF_SOAP_PERSIST_GET&#45;&gt;DTEL&#45;AIT_SNDR</title>
<path fill="none" stroke="black" d="M905.7,-145.74C846.33,-136.38 769.74,-123.57 693.2,-108.16"/>
<polygon fill="black" stroke="black" points="693.88,-104.73 683.38,-106.17 692.49,-111.59 693.88,-104.73"/>
</g>
<!-- INTF&#45;IF_SOAP_PERSIST_GET&#45;&gt;DTEL&#45;SXMSQOS -->
<g id="edge37" class="edge">
<title>INTF&#45;IF_SOAP_PERSIST_GET&#45;&gt;DTEL&#45;SXMSQOS</title>
<path fill="none" stroke="black" d="M947.48,-143.97C912.65,-134.01 868.52,-121.41 832.06,-110.99"/>
<polygon fill="black" stroke="black" points="832.56,-107.49 821.99,-108.11 830.64,-114.22 832.56,-107.49"/>
</g>
<!-- INTF&#45;IF_SOAP_PERSIST_GET&#45;&gt;TABL&#45;QNAME -->
<g id="edge30" class="edge">
<title>INTF&#45;IF_SOAP_PERSIST_GET&#45;&gt;TABL&#45;QNAME</title>
<path fill="none" stroke="black" d="M1108.34,-144.93C1111.29,-144.6 1114.22,-144.29 1117.1,-144 1462.19,-109.54 1556.35,-160.93 1902.9,-107.97"/>
<polygon fill="black" stroke="black" points="1903.62,-111.4 1912.97,-106.41 1902.55,-104.48 1903.62,-111.4"/>
</g>
<!-- INTF&#45;IF_SOAP_PERSIST_GET&#45;&gt;DTEL&#45;SXMSPMTYPE -->
<g id="edge36" class="edge">
<title>INTF&#45;IF_SOAP_PERSIST_GET&#45;&gt;DTEL&#45;SXMSPMTYPE</title>
<path fill="none" stroke="black" d="M984.61,-143.7C973.15,-134.88 959.04,-124.03 946.62,-114.47"/>
<polygon fill="black" stroke="black" points="948.4,-111.43 938.34,-108.1 944.13,-116.98 948.4,-111.43"/>
</g>
<!-- INTF&#45;IF_SOAP_PERSIST_GET&#45;&gt;DTEL&#45;BOOLEAN -->
<g id="edge35" class="edge">
<title>INTF&#45;IF_SOAP_PERSIST_GET&#45;&gt;DTEL&#45;BOOLEAN</title>
<path fill="none" stroke="black" d="M1022.92,-143.7C1030.67,-135.22 1040.14,-124.86 1048.62,-115.58"/>
<polygon fill="black" stroke="black" points="1051.3,-117.85 1055.46,-108.1 1046.13,-113.12 1051.3,-117.85"/>
</g>
<!-- INTF&#45;IF_SOAP_PERSIST_GET&#45;&gt;DTEL&#45;SXMSPMSTAT -->
<g id="edge34" class="edge">
<title>INTF&#45;IF_SOAP_PERSIST_GET&#45;&gt;DTEL&#45;SXMSPMSTAT</title>
<path fill="none" stroke="black" d="M1060.39,-143.97C1091.26,-134.1 1130.3,-121.62 1162.73,-111.25"/>
<polygon fill="black" stroke="black" points="1164.11,-114.49 1172.57,-108.11 1161.98,-107.82 1164.11,-114.49"/>
</g>
<!-- INTF&#45;IF_SOAP_PERSIST_GET&#45;&gt;DTEL&#45;TIMESTAMPL -->
<g id="edge40" class="edge">
<title>INTF&#45;IF_SOAP_PERSIST_GET&#45;&gt;DTEL&#45;TIMESTAMPL</title>
<path fill="none" stroke="black" d="M1108.59,-144.06C1164.86,-134.48 1236.33,-121.99 1308.6,-108.26"/>
<polygon fill="black" stroke="black" points="1309.64,-111.62 1318.81,-106.31 1308.33,-104.75 1309.64,-111.62"/>
</g>
</g>
</svg>
