<?xml version="1.0" encoding="UTF-8" standalone="no"?>
<!DOCTYPE svg PUBLIC "-//W3C//DTD SVG 1.1//EN"
 "http://www.w3.org/Graphics/SVG/1.1/DTD/svg11.dtd">
<!-- Generated by graphviz version 2.47.3 (20210619.1520)
 -->
<!-- Title: G Pages: 1 -->
<svg width="269pt" height="188pt"
 viewBox="0.00 0.00 268.59 188.00" xmlns="http://www.w3.org/2000/svg" xmlns:xlink="http://www.w3.org/1999/xlink">
<g id="graph0" class="graph" transform="scale(1 1) rotate(0) translate(4 184)">
<title>G</title>
<polygon fill="white" stroke="transparent" points="-4,4 -4,-184 264.59,-184 264.59,4 -4,4"/>
<!-- INTF&#45;IF_ABAP_C_WRITER -->
<g id="node1" class="node">
<title>INTF&#45;IF_ABAP_C_WRITER</title>
<polygon fill="none" stroke="green" points="233.13,-180 48.07,-180 48.07,-144 233.13,-144 233.13,-180"/>
<text text-anchor="middle" x="140.6" y="-157.8" font-family="Times,serif" font-size="14.00">INTF&#45;IF_ABAP_C_WRITER</text>
</g>
<!-- INTF&#45;IF_ABAP_WRITER -->
<g id="node2" class="node">
<title>INTF&#45;IF_ABAP_WRITER</title>
<g id="a_node2"><a xlink:href="./INTF_IF_ABAP_WRITER.html" xlink:title="INTF&#45;IF_ABAP_WRITER">
<polygon fill="none" stroke="green" points="169.29,-108 -0.1,-108 -0.1,-72 169.29,-72 169.29,-108"/>
<text text-anchor="middle" x="84.6" y="-85.8" font-family="Times,serif" font-size="14.00">INTF&#45;IF_ABAP_WRITER</text>
</a>
</g>
</g>
<!-- INTF&#45;IF_ABAP_C_WRITER&#45;&gt;INTF&#45;IF_ABAP_WRITER -->
<g id="edge2" class="edge">
<title>INTF&#45;IF_ABAP_C_WRITER&#45;&gt;INTF&#45;IF_ABAP_WRITER</title>
<path fill="none" stroke="black" d="M126.75,-143.7C120.11,-135.39 112.02,-125.28 104.71,-116.14"/>
<polygon fill="black" stroke="black" points="107.26,-113.73 98.28,-108.1 101.79,-118.1 107.26,-113.73"/>
</g>
<!-- INTF&#45;IF_ABAP_CLOSE_RESOURCE -->
<g id="node3" class="node">
<title>INTF&#45;IF_ABAP_CLOSE_RESOURCE</title>
<g id="a_node3"><a xlink:href="./INTF_IF_ABAP_CLOSE_RESOURCE.html" xlink:title="INTF&#45;IF_ABAP_CLOSE_RESOURCE">
<polygon fill="none" stroke="green" points="260.58,-36 20.62,-36 20.62,0 260.58,0 260.58,-36"/>
<text text-anchor="middle" x="140.6" y="-13.8" font-family="Times,serif" font-size="14.00">INTF&#45;IF_ABAP_CLOSE_RESOURCE</text>
</a>
</g>
</g>
<!-- INTF&#45;IF_ABAP_C_WRITER&#45;&gt;INTF&#45;IF_ABAP_CLOSE_RESOURCE -->
<g id="edge1" class="edge">
<title>INTF&#45;IF_ABAP_C_WRITER&#45;&gt;INTF&#45;IF_ABAP_CLOSE_RESOURCE</title>
<path fill="none" stroke="black" d="M157.06,-143.92C165.25,-134.22 174.3,-121.37 178.6,-108 183.49,-92.77 183.49,-87.23 178.6,-72 175.41,-62.08 169.6,-52.44 163.47,-44.17"/>
<polygon fill="black" stroke="black" points="166.01,-41.74 157.06,-36.08 160.53,-46.09 166.01,-41.74"/>
</g>
<!-- INTF&#45;IF_ABAP_WRITER&#45;&gt;INTF&#45;IF_ABAP_CLOSE_RESOURCE -->
<g id="edge3" class="edge">
<title>INTF&#45;IF_ABAP_WRITER&#45;&gt;INTF&#45;IF_ABAP_CLOSE_RESOURCE</title>
<path fill="none" stroke="black" d="M98.44,-71.7C105.08,-63.39 113.17,-53.28 120.48,-44.14"/>
<polygon fill="black" stroke="black" points="123.4,-46.1 126.91,-36.1 117.93,-41.73 123.4,-46.1"/>
</g>
</g>
</svg>
