<?xml version="1.0" encoding="UTF-8" standalone="no"?>
<!DOCTYPE svg PUBLIC "-//W3C//DTD SVG 1.1//EN"
 "http://www.w3.org/Graphics/SVG/1.1/DTD/svg11.dtd">
<!-- Generated by graphviz version 2.47.3 (20210619.1520)
 -->
<!-- Title: G Pages: 1 -->
<svg width="326pt" height="188pt"
 viewBox="0.00 0.00 326.12 188.00" xmlns="http://www.w3.org/2000/svg" xmlns:xlink="http://www.w3.org/1999/xlink">
<g id="graph0" class="graph" transform="scale(1 1) rotate(0) translate(4 184)">
<title>G</title>
<polygon fill="white" stroke="transparent" points="-4,4 -4,-184 322.12,-184 322.12,4 -4,4"/>
<!-- INTF&#45;IF_ATOM_TYPES -->
<g id="node1" class="node">
<title>INTF&#45;IF_ATOM_TYPES</title>
<polygon fill="none" stroke="yellow" points="254.44,-180 92.06,-180 92.06,-144 254.44,-144 254.44,-180"/>
<text text-anchor="middle" x="173.25" y="-157.8" font-family="Times,serif" font-size="14.00">INTF&#45;IF_ATOM_TYPES</text>
</g>
<!-- DTEL&#45;XSDDATETIME_Z -->
<g id="node2" class="node">
<title>DTEL&#45;XSDDATETIME_Z</title>
<g id="a_node2"><a xlink:href="./DTEL_XSDDATETIME_Z.html" xlink:title="DTEL&#45;XSDDATETIME_Z">
<polygon fill="none" stroke="green" points="176.75,-108 5.75,-108 5.75,-72 176.75,-72 176.75,-108"/>
<text text-anchor="middle" x="91.25" y="-85.8" font-family="Times,serif" font-size="14.00">DTEL&#45;XSDDATETIME_Z</text>
</a>
</g>
</g>
<!-- INTF&#45;IF_ATOM_TYPES&#45;&gt;DTEL&#45;XSDDATETIME_Z -->
<g id="edge2" class="edge">
<title>INTF&#45;IF_ATOM_TYPES&#45;&gt;DTEL&#45;XSDDATETIME_Z</title>
<path fill="none" stroke="black" d="M152.98,-143.7C142.75,-134.97 130.19,-124.24 119.07,-114.75"/>
<polygon fill="black" stroke="black" points="121.17,-111.94 111.29,-108.1 116.62,-117.26 121.17,-111.94"/>
</g>
<!-- DTEL&#45;XSDANY -->
<g id="node4" class="node">
<title>DTEL&#45;XSDANY</title>
<g id="a_node4"><a xlink:href="./DTEL_XSDANY.html" xlink:title="DTEL&#45;XSDANY">
<polygon fill="none" stroke="green" points="312.49,-108 198.01,-108 198.01,-72 312.49,-72 312.49,-108"/>
<text text-anchor="middle" x="255.25" y="-85.8" font-family="Times,serif" font-size="14.00">DTEL&#45;XSDANY</text>
</a>
</g>
</g>
<!-- INTF&#45;IF_ATOM_TYPES&#45;&gt;DTEL&#45;XSDANY -->
<g id="edge1" class="edge">
<title>INTF&#45;IF_ATOM_TYPES&#45;&gt;DTEL&#45;XSDANY</title>
<path fill="none" stroke="black" d="M193.52,-143.7C203.75,-134.97 216.31,-124.24 227.43,-114.75"/>
<polygon fill="black" stroke="black" points="229.88,-117.26 235.21,-108.1 225.34,-111.94 229.88,-117.26"/>
</g>
<!-- DOMA&#45;XSDDATETIME_Z -->
<g id="node3" class="node">
<title>DOMA&#45;XSDDATETIME_Z</title>
<g id="a_node3"><a xlink:href="./DOMA_XSDDATETIME_Z.html" xlink:title="DOMA&#45;XSDDATETIME_Z">
<polygon fill="none" stroke="green" points="178.25,-36 0.25,-36 0.25,0 178.25,0 178.25,-36"/>
<text text-anchor="middle" x="89.25" y="-13.8" font-family="Times,serif" font-size="14.00">DOMA&#45;XSDDATETIME_Z</text>
</a>
</g>
</g>
<!-- DTEL&#45;XSDDATETIME_Z&#45;&gt;DOMA&#45;XSDDATETIME_Z -->
<g id="edge3" class="edge">
<title>DTEL&#45;XSDDATETIME_Z&#45;&gt;DOMA&#45;XSDDATETIME_Z</title>
<path fill="none" stroke="black" d="M90.76,-71.7C90.54,-63.98 90.27,-54.71 90.03,-46.11"/>
<polygon fill="black" stroke="black" points="93.52,-46 89.74,-36.1 86.53,-46.2 93.52,-46"/>
</g>
<!-- DOMA&#45;XSDANY -->
<g id="node5" class="node">
<title>DOMA&#45;XSDANY</title>
<g id="a_node5"><a xlink:href="./DOMA_XSDANY.html" xlink:title="DOMA&#45;XSDANY">
<polygon fill="none" stroke="green" points="317.99,-36 196.51,-36 196.51,0 317.99,0 317.99,-36"/>
<text text-anchor="middle" x="257.25" y="-13.8" font-family="Times,serif" font-size="14.00">DOMA&#45;XSDANY</text>
</a>
</g>
</g>
<!-- DTEL&#45;XSDANY&#45;&gt;DOMA&#45;XSDANY -->
<g id="edge4" class="edge">
<title>DTEL&#45;XSDANY&#45;&gt;DOMA&#45;XSDANY</title>
<path fill="none" stroke="black" d="M255.75,-71.7C255.97,-63.98 256.23,-54.71 256.48,-46.11"/>
<polygon fill="black" stroke="black" points="259.98,-46.2 256.76,-36.1 252.98,-46 259.98,-46.2"/>
</g>
</g>
</svg>
