<?xml version="1.0" encoding="UTF-8" standalone="no"?>
<!DOCTYPE svg PUBLIC "-//W3C//DTD SVG 1.1//EN"
 "http://www.w3.org/Graphics/SVG/1.1/DTD/svg11.dtd">
<!-- Generated by graphviz version 2.47.3 (20210619.1520)
 -->
<!-- Title: G Pages: 1 -->
<svg width="2068pt" height="692pt"
 viewBox="0.00 0.00 2067.75 692.00" xmlns="http://www.w3.org/2000/svg" xmlns:xlink="http://www.w3.org/1999/xlink">
<g id="graph0" class="graph" transform="scale(1 1) rotate(0) translate(4 688)">
<title>G</title>
<polygon fill="white" stroke="transparent" points="-4,4 -4,-688 2063.75,-688 2063.75,4 -4,4"/>
<!-- INTF&#45;IF_SXMLP_LIST -->
<g id="node1" class="node">
<title>INTF&#45;IF_SXMLP_LIST</title>
<polygon fill="none" stroke="yellow" points="1757.74,-684 1602.89,-684 1602.89,-648 1757.74,-648 1757.74,-684"/>
<text text-anchor="middle" x="1680.32" y="-661.8" font-family="Times,serif" font-size="14.00">INTF&#45;IF_SXMLP_LIST</text>
</g>
<!-- INTF&#45;IF_SXMLP_PACKAGE_READER -->
<g id="node2" class="node">
<title>INTF&#45;IF_SXMLP_PACKAGE_READER</title>
<g id="a_node2"><a xlink:href="./INTF_IF_SXMLP_PACKAGE_READER.html" xlink:title="INTF&#45;IF_SXMLP_PACKAGE_READER">
<polygon fill="none" stroke="yellow" points="1773.28,-396 1519.35,-396 1519.35,-360 1773.28,-360 1773.28,-396"/>
<text text-anchor="middle" x="1646.32" y="-373.8" font-family="Times,serif" font-size="14.00">INTF&#45;IF_SXMLP_PACKAGE_READER</text>
</a>
</g>
</g>
<!-- INTF&#45;IF_SXMLP_LIST&#45;&gt;INTF&#45;IF_SXMLP_PACKAGE_READER -->
<g id="edge6" class="edge">
<title>INTF&#45;IF_SXMLP_LIST&#45;&gt;INTF&#45;IF_SXMLP_PACKAGE_READER</title>
<path fill="none" stroke="black" d="M1602.8,-653.98C1571.16,-646.37 1535.86,-633.55 1509.32,-612 1480.9,-588.92 1478.5,-575.44 1469.32,-540 1455.6,-487.05 1484.88,-465.24 1528.32,-432 1545.41,-418.92 1566.24,-408.21 1585.61,-399.92"/>
<polygon fill="black" stroke="black" points="1587.08,-403.1 1594.98,-396.05 1584.4,-396.63 1587.08,-403.1"/>
</g>
<!-- INTF&#45;IF_SXML_READER -->
<g id="node5" class="node">
<title>INTF&#45;IF_SXML_READER</title>
<g id="a_node5"><a xlink:href="./INTF_IF_SXML_READER.html" xlink:title="INTF&#45;IF_SXML_READER">
<polygon fill="none" stroke="green" points="1116.9,-396 943.73,-396 943.73,-360 1116.9,-360 1116.9,-396"/>
<text text-anchor="middle" x="1030.32" y="-373.8" font-family="Times,serif" font-size="14.00">INTF&#45;IF_SXML_READER</text>
</a>
</g>
</g>
<!-- INTF&#45;IF_SXMLP_LIST&#45;&gt;INTF&#45;IF_SXML_READER -->
<g id="edge5" class="edge">
<title>INTF&#45;IF_SXMLP_LIST&#45;&gt;INTF&#45;IF_SXML_READER</title>
<path fill="none" stroke="black" d="M1602.87,-655.18C1435.83,-632.23 1050.61,-569.25 974.32,-468 958.44,-446.93 978.34,-421.28 998.68,-402.94"/>
<polygon fill="black" stroke="black" points="1001.12,-405.46 1006.43,-396.29 996.56,-400.15 1001.12,-405.46"/>
</g>
<!-- TABL&#45;QNAME -->
<g id="node13" class="node">
<title>TABL&#45;QNAME</title>
<g id="a_node13"><a xlink:href="./TABL_QNAME.html" xlink:title="TABL&#45;QNAME">
<polygon fill="none" stroke="green" points="2054.35,-36 1946.29,-36 1946.29,0 2054.35,0 2054.35,-36"/>
<text text-anchor="middle" x="2000.32" y="-13.8" font-family="Times,serif" font-size="14.00">TABL&#45;QNAME</text>
</a>
</g>
</g>
<!-- INTF&#45;IF_SXMLP_LIST&#45;&gt;TABL&#45;QNAME -->
<g id="edge1" class="edge">
<title>INTF&#45;IF_SXMLP_LIST&#45;&gt;TABL&#45;QNAME</title>
<path fill="none" stroke="black" d="M1757.65,-663.47C1850.25,-659.99 1997.84,-648.67 2037.32,-612 2067.02,-584.41 2057.32,-563.54 2057.32,-523 2057.32,-523 2057.32,-523 2057.32,-161 2057.32,-117.8 2034.32,-72.19 2017.54,-44.66"/>
<polygon fill="black" stroke="black" points="2020.41,-42.65 2012.13,-36.04 2014.48,-46.37 2020.41,-42.65"/>
</g>
<!-- INTF&#45;IF_SXMLP_OBSERVER -->
<g id="node20" class="node">
<title>INTF&#45;IF_SXMLP_OBSERVER</title>
<g id="a_node20"><a xlink:href="./INTF_IF_SXMLP_OBSERVER.html" xlink:title="INTF&#45;IF_SXMLP_OBSERVER">
<polygon fill="none" stroke="yellow" points="1716.31,-612 1518.33,-612 1518.33,-576 1716.31,-576 1716.31,-612"/>
<text text-anchor="middle" x="1617.32" y="-589.8" font-family="Times,serif" font-size="14.00">INTF&#45;IF_SXMLP_OBSERVER</text>
</a>
</g>
</g>
<!-- INTF&#45;IF_SXMLP_LIST&#45;&gt;INTF&#45;IF_SXMLP_OBSERVER -->
<g id="edge4" class="edge">
<title>INTF&#45;IF_SXMLP_LIST&#45;&gt;INTF&#45;IF_SXMLP_OBSERVER</title>
<path fill="none" stroke="black" d="M1664.75,-647.7C1657.12,-639.22 1647.8,-628.86 1639.44,-619.58"/>
<polygon fill="black" stroke="black" points="1642,-617.2 1632.71,-612.1 1636.8,-621.88 1642,-617.2"/>
</g>
<!-- INTF&#45;IF_SXMLP_PART -->
<g id="node22" class="node">
<title>INTF&#45;IF_SXMLP_PART</title>
<g id="a_node22"><a xlink:href="./INTF_IF_SXMLP_PART.html" xlink:title="INTF&#45;IF_SXMLP_PART">
<polygon fill="none" stroke="yellow" points="1934.47,-540 1774.17,-540 1774.17,-504 1934.47,-504 1934.47,-540"/>
<text text-anchor="middle" x="1854.32" y="-517.8" font-family="Times,serif" font-size="14.00">INTF&#45;IF_SXMLP_PART</text>
</a>
</g>
</g>
<!-- INTF&#45;IF_SXMLP_LIST&#45;&gt;INTF&#45;IF_SXMLP_PART -->
<g id="edge2" class="edge">
<title>INTF&#45;IF_SXMLP_LIST&#45;&gt;INTF&#45;IF_SXMLP_PART</title>
<path fill="none" stroke="black" d="M1695.31,-647.76C1715.01,-625.32 1748.79,-587.6 1763.32,-576 1777.77,-564.46 1795.01,-553.77 1810.57,-545.05"/>
<polygon fill="black" stroke="black" points="1812.42,-548.03 1819.51,-540.16 1809.06,-541.89 1812.42,-548.03"/>
</g>
<!-- INTF&#45;IF_SXMLP_PART_COLLECTION -->
<g id="node29" class="node">
<title>INTF&#45;IF_SXMLP_PART_COLLECTION</title>
<g id="a_node29"><a xlink:href="./INTF_IF_SXMLP_PART_COLLECTION.html" xlink:title="INTF&#45;IF_SXMLP_PART_COLLECTION">
<polygon fill="none" stroke="yellow" points="2027.84,-612 1772.8,-612 1772.8,-576 2027.84,-576 2027.84,-612"/>
<text text-anchor="middle" x="1900.32" y="-589.8" font-family="Times,serif" font-size="14.00">INTF&#45;IF_SXMLP_PART_COLLECTION</text>
</a>
</g>
</g>
<!-- INTF&#45;IF_SXMLP_LIST&#45;&gt;INTF&#45;IF_SXMLP_PART_COLLECTION -->
<g id="edge3" class="edge">
<title>INTF&#45;IF_SXMLP_LIST&#45;&gt;INTF&#45;IF_SXMLP_PART_COLLECTION</title>
<path fill="none" stroke="black" d="M1733.86,-647.97C1764.86,-638.1 1804.08,-625.62 1836.66,-615.25"/>
<polygon fill="black" stroke="black" points="1838.07,-618.48 1846.54,-612.11 1835.95,-611.81 1838.07,-618.48"/>
</g>
<!-- DTEL&#45;ANYURI -->
<g id="node3" class="node">
<title>DTEL&#45;ANYURI</title>
<g id="a_node3"><a xlink:href="./DTEL_ANYURI.html" xlink:title="DTEL&#45;ANYURI">
<polygon fill="none" stroke="yellow" points="1701.67,-324 1590.97,-324 1590.97,-288 1701.67,-288 1701.67,-324"/>
<text text-anchor="middle" x="1646.32" y="-301.8" font-family="Times,serif" font-size="14.00">DTEL&#45;ANYURI</text>
</a>
</g>
</g>
<!-- INTF&#45;IF_SXMLP_PACKAGE_READER&#45;&gt;DTEL&#45;ANYURI -->
<g id="edge7" class="edge">
<title>INTF&#45;IF_SXMLP_PACKAGE_READER&#45;&gt;DTEL&#45;ANYURI</title>
<path fill="none" stroke="black" d="M1646.32,-359.7C1646.32,-351.98 1646.32,-342.71 1646.32,-334.11"/>
<polygon fill="black" stroke="black" points="1649.82,-334.1 1646.32,-324.1 1642.82,-334.1 1649.82,-334.1"/>
</g>
<!-- DOMA&#45;ANYURI -->
<g id="node4" class="node">
<title>DOMA&#45;ANYURI</title>
<g id="a_node4"><a xlink:href="./DOMA_ANYURI.html" xlink:title="DOMA&#45;ANYURI">
<polygon fill="none" stroke="yellow" points="1705.17,-252 1587.47,-252 1587.47,-216 1705.17,-216 1705.17,-252"/>
<text text-anchor="middle" x="1646.32" y="-229.8" font-family="Times,serif" font-size="14.00">DOMA&#45;ANYURI</text>
</a>
</g>
</g>
<!-- DTEL&#45;ANYURI&#45;&gt;DOMA&#45;ANYURI -->
<g id="edge8" class="edge">
<title>DTEL&#45;ANYURI&#45;&gt;DOMA&#45;ANYURI</title>
<path fill="none" stroke="black" d="M1646.32,-287.7C1646.32,-279.98 1646.32,-270.71 1646.32,-262.11"/>
<polygon fill="black" stroke="black" points="1649.82,-262.1 1646.32,-252.1 1642.82,-262.1 1649.82,-262.1"/>
</g>
<!-- CLAS&#45;CL_VSI_KERNEL -->
<g id="node6" class="node">
<title>CLAS&#45;CL_VSI_KERNEL</title>
<g id="a_node6"><a xlink:href="./CLAS_CL_VSI_KERNEL.html" xlink:title="CLAS&#45;CL_VSI_KERNEL">
<polygon fill="none" stroke="yellow" points="170.4,-252 4.23,-252 4.23,-216 170.4,-216 170.4,-252"/>
<text text-anchor="middle" x="87.32" y="-229.8" font-family="Times,serif" font-size="14.00">CLAS&#45;CL_VSI_KERNEL</text>
</a>
</g>
</g>
<!-- INTF&#45;IF_SXML_READER&#45;&gt;CLAS&#45;CL_VSI_KERNEL -->
<g id="edge14" class="edge">
<title>INTF&#45;IF_SXML_READER&#45;&gt;CLAS&#45;CL_VSI_KERNEL</title>
<path fill="none" stroke="black" d="M943.76,-368.67C851.69,-359.41 701.88,-343.21 573.32,-324 435.94,-303.48 277.89,-273.31 180.3,-253.9"/>
<polygon fill="black" stroke="black" points="180.95,-250.47 170.46,-251.94 179.58,-257.33 180.95,-250.47"/>
</g>
<!-- INTF&#45;IF_SXML_WRITER -->
<g id="node9" class="node">
<title>INTF&#45;IF_SXML_WRITER</title>
<g id="a_node9"><a xlink:href="./INTF_IF_SXML_WRITER.html" xlink:title="INTF&#45;IF_SXML_WRITER">
<polygon fill="none" stroke="green" points="1000.57,-324 830.07,-324 830.07,-288 1000.57,-288 1000.57,-324"/>
<text text-anchor="middle" x="915.32" y="-301.8" font-family="Times,serif" font-size="14.00">INTF&#45;IF_SXML_WRITER</text>
</a>
</g>
</g>
<!-- INTF&#45;IF_SXML_READER&#45;&gt;INTF&#45;IF_SXML_WRITER -->
<g id="edge13" class="edge">
<title>INTF&#45;IF_SXML_READER&#45;&gt;INTF&#45;IF_SXML_WRITER</title>
<path fill="none" stroke="black" d="M1002.19,-359.88C987.15,-350.72 968.45,-339.34 952.26,-329.48"/>
<polygon fill="black" stroke="black" points="953.92,-326.4 943.56,-324.19 950.28,-332.38 953.92,-326.4"/>
</g>
<!-- INTF&#45;IF_SXML_NODE -->
<g id="node10" class="node">
<title>INTF&#45;IF_SXML_NODE</title>
<g id="a_node10"><a xlink:href="./INTF_IF_SXML_NODE.html" xlink:title="INTF&#45;IF_SXML_NODE">
<polygon fill="none" stroke="green" points="993.28,-180 837.35,-180 837.35,-144 993.28,-144 993.28,-180"/>
<text text-anchor="middle" x="915.32" y="-157.8" font-family="Times,serif" font-size="14.00">INTF&#45;IF_SXML_NODE</text>
</a>
</g>
</g>
<!-- INTF&#45;IF_SXML_READER&#45;&gt;INTF&#45;IF_SXML_NODE -->
<g id="edge9" class="edge">
<title>INTF&#45;IF_SXML_READER&#45;&gt;INTF&#45;IF_SXML_NODE</title>
<path fill="none" stroke="black" d="M1041.51,-359.75C1060.39,-328.24 1093.61,-260.54 1062.32,-216 1048.4,-196.19 1026.32,-183.75 1003.46,-175.95"/>
<polygon fill="black" stroke="black" points="1004.23,-172.52 993.64,-172.88 1002.14,-179.2 1004.23,-172.52"/>
</g>
<!-- INTF&#45;IF_SXML_VALUE -->
<g id="node15" class="node">
<title>INTF&#45;IF_SXML_VALUE</title>
<g id="a_node15"><a xlink:href="./INTF_IF_SXML_VALUE.html" xlink:title="INTF&#45;IF_SXML_VALUE">
<polygon fill="none" stroke="green" points="1347.34,-108 1183.3,-108 1183.3,-72 1347.34,-72 1347.34,-108"/>
<text text-anchor="middle" x="1265.32" y="-85.8" font-family="Times,serif" font-size="14.00">INTF&#45;IF_SXML_VALUE</text>
</a>
</g>
</g>
<!-- INTF&#45;IF_SXML_READER&#45;&gt;INTF&#45;IF_SXML_VALUE -->
<g id="edge10" class="edge">
<title>INTF&#45;IF_SXML_READER&#45;&gt;INTF&#45;IF_SXML_VALUE</title>
<path fill="none" stroke="black" d="M1117.07,-368.72C1191.28,-356.53 1293.85,-326.42 1344.32,-252 1375.11,-206.6 1326.11,-147.44 1292.55,-114.96"/>
<polygon fill="black" stroke="black" points="1294.92,-112.38 1285.25,-108.06 1290.12,-117.47 1294.92,-112.38"/>
</g>
<!-- INTF&#45;IF_SXML_NSURI_HELPER -->
<g id="node18" class="node">
<title>INTF&#45;IF_SXML_NSURI_HELPER</title>
<g id="a_node18"><a xlink:href="./INTF_IF_SXML_NSURI_HELPER.html" xlink:title="INTF&#45;IF_SXML_NSURI_HELPER">
<polygon fill="none" stroke="green" points="407.79,-252 188.85,-252 188.85,-216 407.79,-216 407.79,-252"/>
<text text-anchor="middle" x="298.32" y="-229.8" font-family="Times,serif" font-size="14.00">INTF&#45;IF_SXML_NSURI_HELPER</text>
</a>
</g>
</g>
<!-- INTF&#45;IF_SXML_READER&#45;&gt;INTF&#45;IF_SXML_NSURI_HELPER -->
<g id="edge12" class="edge">
<title>INTF&#45;IF_SXML_READER&#45;&gt;INTF&#45;IF_SXML_NSURI_HELPER</title>
<path fill="none" stroke="black" d="M943.47,-360.15C806.27,-333.54 540.19,-281.92 396.33,-254.01"/>
<polygon fill="black" stroke="black" points="396.67,-250.51 386.19,-252.05 395.34,-257.39 396.67,-250.51"/>
</g>
<!-- INTF&#45;IF_SXML -->
<g id="node19" class="node">
<title>INTF&#45;IF_SXML</title>
<g id="a_node19"><a xlink:href="./INTF_IF_SXML.html" xlink:title="INTF&#45;IF_SXML">
<polygon fill="none" stroke="green" points="1053.41,-252 943.23,-252 943.23,-216 1053.41,-216 1053.41,-252"/>
<text text-anchor="middle" x="998.32" y="-229.8" font-family="Times,serif" font-size="14.00">INTF&#45;IF_SXML</text>
</a>
</g>
</g>
<!-- INTF&#45;IF_SXML_READER&#45;&gt;INTF&#45;IF_SXML -->
<g id="edge11" class="edge">
<title>INTF&#45;IF_SXML_READER&#45;&gt;INTF&#45;IF_SXML</title>
<path fill="none" stroke="black" d="M1026.46,-359.87C1020.98,-335.56 1010.9,-290.82 1004.41,-262.01"/>
<polygon fill="black" stroke="black" points="1007.81,-261.18 1002.19,-252.19 1000.98,-262.71 1007.81,-261.18"/>
</g>
<!-- DTEL&#45;VSCAN_PROFILE -->
<g id="node7" class="node">
<title>DTEL&#45;VSCAN_PROFILE</title>
<g id="a_node7"><a xlink:href="./DTEL_VSCAN_PROFILE.html" xlink:title="DTEL&#45;VSCAN_PROFILE">
<polygon fill="none" stroke="yellow" points="170.96,-180 3.68,-180 3.68,-144 170.96,-144 170.96,-180"/>
<text text-anchor="middle" x="87.32" y="-157.8" font-family="Times,serif" font-size="14.00">DTEL&#45;VSCAN_PROFILE</text>
</a>
</g>
</g>
<!-- CLAS&#45;CL_VSI_KERNEL&#45;&gt;DTEL&#45;VSCAN_PROFILE -->
<g id="edge15" class="edge">
<title>CLAS&#45;CL_VSI_KERNEL&#45;&gt;DTEL&#45;VSCAN_PROFILE</title>
<path fill="none" stroke="black" d="M87.32,-215.7C87.32,-207.98 87.32,-198.71 87.32,-190.11"/>
<polygon fill="black" stroke="black" points="90.82,-190.1 87.32,-180.1 83.82,-190.1 90.82,-190.1"/>
</g>
<!-- DOMA&#45;VSCAN_PROFILE -->
<g id="node8" class="node">
<title>DOMA&#45;VSCAN_PROFILE</title>
<g id="a_node8"><a xlink:href="./DOMA_VSCAN_PROFILE.html" xlink:title="DOMA&#45;VSCAN_PROFILE">
<polygon fill="none" stroke="yellow" points="174.46,-108 0.18,-108 0.18,-72 174.46,-72 174.46,-108"/>
<text text-anchor="middle" x="87.32" y="-85.8" font-family="Times,serif" font-size="14.00">DOMA&#45;VSCAN_PROFILE</text>
</a>
</g>
</g>
<!-- DTEL&#45;VSCAN_PROFILE&#45;&gt;DOMA&#45;VSCAN_PROFILE -->
<g id="edge16" class="edge">
<title>DTEL&#45;VSCAN_PROFILE&#45;&gt;DOMA&#45;VSCAN_PROFILE</title>
<path fill="none" stroke="black" d="M87.32,-143.7C87.32,-135.98 87.32,-126.71 87.32,-118.11"/>
<polygon fill="black" stroke="black" points="90.82,-118.1 87.32,-108.1 83.82,-118.1 90.82,-118.1"/>
</g>
<!-- INTF&#45;IF_SXML_WRITER&#45;&gt;CLAS&#45;CL_VSI_KERNEL -->
<g id="edge23" class="edge">
<title>INTF&#45;IF_SXML_WRITER&#45;&gt;CLAS&#45;CL_VSI_KERNEL</title>
<path fill="none" stroke="black" d="M829.86,-301.86C692.51,-296.13 414.32,-281.73 180.32,-252 180.22,-251.99 180.12,-251.97 180.01,-251.96"/>
<polygon fill="black" stroke="black" points="180.78,-248.53 170.4,-250.65 179.84,-255.47 180.78,-248.53"/>
</g>
<!-- INTF&#45;IF_SXML_WRITER&#45;&gt;INTF&#45;IF_SXML_NODE -->
<g id="edge22" class="edge">
<title>INTF&#45;IF_SXML_WRITER&#45;&gt;INTF&#45;IF_SXML_NODE</title>
<path fill="none" stroke="black" d="M915.32,-287.87C915.32,-263.67 915.32,-219.21 915.32,-190.39"/>
<polygon fill="black" stroke="black" points="918.82,-190.19 915.32,-180.19 911.82,-190.19 918.82,-190.19"/>
</g>
<!-- INTF&#45;IF_SXML_CLOSE_ELEMENT -->
<g id="node11" class="node">
<title>INTF&#45;IF_SXML_CLOSE_ELEMENT</title>
<g id="a_node11"><a xlink:href="./INTF_IF_SXML_CLOSE_ELEMENT.html" xlink:title="INTF&#45;IF_SXML_CLOSE_ELEMENT">
<polygon fill="none" stroke="green" points="659.06,-252 425.58,-252 425.58,-216 659.06,-216 659.06,-252"/>
<text text-anchor="middle" x="542.32" y="-229.8" font-family="Times,serif" font-size="14.00">INTF&#45;IF_SXML_CLOSE_ELEMENT</text>
</a>
</g>
</g>
<!-- INTF&#45;IF_SXML_WRITER&#45;&gt;INTF&#45;IF_SXML_CLOSE_ELEMENT -->
<g id="edge21" class="edge">
<title>INTF&#45;IF_SXML_WRITER&#45;&gt;INTF&#45;IF_SXML_CLOSE_ELEMENT</title>
<path fill="none" stroke="black" d="M829.75,-288.94C774.14,-278.5 701.4,-264.85 643.01,-253.9"/>
<polygon fill="black" stroke="black" points="643.5,-250.43 633.03,-252.02 642.21,-257.31 643.5,-250.43"/>
</g>
<!-- INTF&#45;IF_SXML_VALUE_NODE -->
<g id="node14" class="node">
<title>INTF&#45;IF_SXML_VALUE_NODE</title>
<g id="a_node14"><a xlink:href="./INTF_IF_SXML_VALUE_NODE.html" xlink:title="INTF&#45;IF_SXML_VALUE_NODE">
<polygon fill="none" stroke="green" points="887.71,-252 676.93,-252 676.93,-216 887.71,-216 887.71,-252"/>
<text text-anchor="middle" x="782.32" y="-229.8" font-family="Times,serif" font-size="14.00">INTF&#45;IF_SXML_VALUE_NODE</text>
</a>
</g>
</g>
<!-- INTF&#45;IF_SXML_WRITER&#45;&gt;INTF&#45;IF_SXML_VALUE_NODE -->
<g id="edge20" class="edge">
<title>INTF&#45;IF_SXML_WRITER&#45;&gt;INTF&#45;IF_SXML_VALUE_NODE</title>
<path fill="none" stroke="black" d="M882.78,-287.88C865.07,-278.55 842.97,-266.92 824,-256.94"/>
<polygon fill="black" stroke="black" points="825.46,-253.75 814.98,-252.19 822.2,-259.94 825.46,-253.75"/>
</g>
<!-- INTF&#45;IF_SXML_OPEN_ELEMENT -->
<g id="node16" class="node">
<title>INTF&#45;IF_SXML_OPEN_ELEMENT</title>
<g id="a_node16"><a xlink:href="./INTF_IF_SXML_OPEN_ELEMENT.html" xlink:title="INTF&#45;IF_SXML_OPEN_ELEMENT">
<polygon fill="none" stroke="green" points="1335.27,-252 1109.36,-252 1109.36,-216 1335.27,-216 1335.27,-252"/>
<text text-anchor="middle" x="1222.32" y="-229.8" font-family="Times,serif" font-size="14.00">INTF&#45;IF_SXML_OPEN_ELEMENT</text>
</a>
</g>
</g>
<!-- INTF&#45;IF_SXML_WRITER&#45;&gt;INTF&#45;IF_SXML_OPEN_ELEMENT -->
<g id="edge19" class="edge">
<title>INTF&#45;IF_SXML_WRITER&#45;&gt;INTF&#45;IF_SXML_OPEN_ELEMENT</title>
<path fill="none" stroke="black" d="M990.03,-287.97C1034.59,-277.8 1091.31,-264.87 1137.54,-254.33"/>
<polygon fill="black" stroke="black" points="1138.57,-257.69 1147.54,-252.05 1137.01,-250.86 1138.57,-257.69"/>
</g>
<!-- INTF&#45;IF_SXML_WRITER&#45;&gt;INTF&#45;IF_SXML_NSURI_HELPER -->
<g id="edge18" class="edge">
<title>INTF&#45;IF_SXML_WRITER&#45;&gt;INTF&#45;IF_SXML_NSURI_HELPER</title>
<path fill="none" stroke="black" d="M830,-296.91C732.79,-287.48 568.9,-270.91 418.27,-252.22"/>
<polygon fill="black" stroke="black" points="418.26,-248.69 407.91,-250.93 417.4,-255.64 418.26,-248.69"/>
</g>
<!-- INTF&#45;IF_SXML_WRITER&#45;&gt;INTF&#45;IF_SXML -->
<g id="edge17" class="edge">
<title>INTF&#45;IF_SXML_WRITER&#45;&gt;INTF&#45;IF_SXML</title>
<path fill="none" stroke="black" d="M935.84,-287.7C946.19,-278.97 958.91,-268.24 970.16,-258.75"/>
<polygon fill="black" stroke="black" points="972.65,-261.23 978.04,-252.1 968.14,-255.88 972.65,-261.23"/>
</g>
<!-- INTF&#45;IF_SXML_CLOSE_ELEMENT&#45;&gt;INTF&#45;IF_SXML_NODE -->
<g id="edge25" class="edge">
<title>INTF&#45;IF_SXML_CLOSE_ELEMENT&#45;&gt;INTF&#45;IF_SXML_NODE</title>
<path fill="none" stroke="black" d="M633.09,-215.97C692.1,-204.89 768.66,-190.52 827.15,-179.55"/>
<polygon fill="black" stroke="black" points="827.93,-182.96 837.11,-177.68 826.64,-176.08 827.93,-182.96"/>
</g>
<!-- INTF&#45;IF_SXML_NAMED -->
<g id="node12" class="node">
<title>INTF&#45;IF_SXML_NAMED</title>
<g id="a_node12"><a xlink:href="./INTF_IF_SXML_NAMED.html" xlink:title="INTF&#45;IF_SXML_NAMED">
<polygon fill="none" stroke="green" points="1132.73,-108 963.91,-108 963.91,-72 1132.73,-72 1132.73,-108"/>
<text text-anchor="middle" x="1048.32" y="-85.8" font-family="Times,serif" font-size="14.00">INTF&#45;IF_SXML_NAMED</text>
</a>
</g>
</g>
<!-- INTF&#45;IF_SXML_CLOSE_ELEMENT&#45;&gt;INTF&#45;IF_SXML_NAMED -->
<g id="edge24" class="edge">
<title>INTF&#45;IF_SXML_CLOSE_ELEMENT&#45;&gt;INTF&#45;IF_SXML_NAMED</title>
<path fill="none" stroke="black" d="M585.37,-215.99C635.46,-196.65 720.93,-165.04 796.32,-144 847.88,-129.61 906.33,-117.09 953.96,-107.83"/>
<polygon fill="black" stroke="black" points="954.79,-111.24 963.95,-105.91 953.46,-104.36 954.79,-111.24"/>
</g>
<!-- INTF&#45;IF_SXML_NAMED&#45;&gt;TABL&#45;QNAME -->
<g id="edge26" class="edge">
<title>INTF&#45;IF_SXML_NAMED&#45;&gt;TABL&#45;QNAME</title>
<path fill="none" stroke="black" d="M1132.6,-76.8C1146.52,-75.02 1160.81,-73.34 1174.32,-72 1457.51,-43.85 1796.88,-27.53 1936.03,-21.59"/>
<polygon fill="black" stroke="black" points="1936.25,-25.08 1946.09,-21.16 1935.95,-18.09 1936.25,-25.08"/>
</g>
<!-- INTF&#45;IF_SXML_VALUE_NODE&#45;&gt;INTF&#45;IF_SXML_NODE -->
<g id="edge27" class="edge">
<title>INTF&#45;IF_SXML_VALUE_NODE&#45;&gt;INTF&#45;IF_SXML_NODE</title>
<path fill="none" stroke="black" d="M814.85,-215.88C832.57,-206.55 854.67,-194.92 873.64,-184.94"/>
<polygon fill="black" stroke="black" points="875.44,-187.94 882.66,-180.19 872.18,-181.75 875.44,-187.94"/>
</g>
<!-- INTF&#45;IF_SXML_VALUE_NODE&#45;&gt;INTF&#45;IF_SXML_VALUE -->
<g id="edge28" class="edge">
<title>INTF&#45;IF_SXML_VALUE_NODE&#45;&gt;INTF&#45;IF_SXML_VALUE</title>
<path fill="none" stroke="black" d="M786.07,-215.67C791.54,-194.93 803.84,-160.9 828.32,-144 885.94,-104.23 1071.85,-116.76 1141.32,-108 1151.53,-106.71 1162.21,-105.32 1172.83,-103.91"/>
<polygon fill="black" stroke="black" points="1173.53,-107.34 1182.98,-102.54 1172.6,-100.4 1173.53,-107.34"/>
</g>
<!-- INTF&#45;IF_SXML_OPEN_ELEMENT&#45;&gt;INTF&#45;IF_SXML_NODE -->
<g id="edge30" class="edge">
<title>INTF&#45;IF_SXML_OPEN_ELEMENT&#45;&gt;INTF&#45;IF_SXML_NODE</title>
<path fill="none" stroke="black" d="M1147.61,-215.97C1103.05,-205.8 1046.33,-192.87 1000.1,-182.33"/>
<polygon fill="black" stroke="black" points="1000.62,-178.86 990.1,-180.05 999.07,-185.69 1000.62,-178.86"/>
</g>
<!-- INTF&#45;IF_SXML_OPEN_ELEMENT&#45;&gt;INTF&#45;IF_SXML_NAMED -->
<g id="edge29" class="edge">
<title>INTF&#45;IF_SXML_OPEN_ELEMENT&#45;&gt;INTF&#45;IF_SXML_NAMED</title>
<path fill="none" stroke="black" d="M1123.48,-215.98C1102.44,-208.14 1082.14,-196.7 1067.32,-180 1052.45,-163.25 1048.23,-137.76 1047.41,-118.35"/>
<polygon fill="black" stroke="black" points="1050.91,-118.23 1047.27,-108.28 1043.91,-118.33 1050.91,-118.23"/>
</g>
<!-- INTF&#45;IF_SXML_OPEN_ELEMENT&#45;&gt;INTF&#45;IF_SXML_VALUE -->
<g id="edge32" class="edge">
<title>INTF&#45;IF_SXML_OPEN_ELEMENT&#45;&gt;INTF&#45;IF_SXML_VALUE</title>
<path fill="none" stroke="black" d="M1248.9,-215.91C1260.56,-206.81 1273,-194.49 1279.32,-180 1287.96,-160.16 1283.17,-135.76 1276.94,-117.53"/>
<polygon fill="black" stroke="black" points="1280.2,-116.25 1273.41,-108.11 1273.65,-118.7 1280.2,-116.25"/>
</g>
<!-- INTF&#45;IF_SXML_ATTRIBUTE -->
<g id="node17" class="node">
<title>INTF&#45;IF_SXML_ATTRIBUTE</title>
<g id="a_node17"><a xlink:href="./INTF_IF_SXML_ATTRIBUTE.html" xlink:title="INTF&#45;IF_SXML_ATTRIBUTE">
<polygon fill="none" stroke="green" points="1270.67,-180 1075.97,-180 1075.97,-144 1270.67,-144 1270.67,-180"/>
<text text-anchor="middle" x="1173.32" y="-157.8" font-family="Times,serif" font-size="14.00">INTF&#45;IF_SXML_ATTRIBUTE</text>
</a>
</g>
</g>
<!-- INTF&#45;IF_SXML_OPEN_ELEMENT&#45;&gt;INTF&#45;IF_SXML_ATTRIBUTE -->
<g id="edge31" class="edge">
<title>INTF&#45;IF_SXML_OPEN_ELEMENT&#45;&gt;INTF&#45;IF_SXML_ATTRIBUTE</title>
<path fill="none" stroke="black" d="M1210.21,-215.7C1204.45,-207.47 1197.46,-197.48 1191.11,-188.42"/>
<polygon fill="black" stroke="black" points="1193.89,-186.29 1185.29,-180.1 1188.16,-190.3 1193.89,-186.29"/>
</g>
<!-- INTF&#45;IF_SXML_ATTRIBUTE&#45;&gt;INTF&#45;IF_SXML_NAMED -->
<g id="edge33" class="edge">
<title>INTF&#45;IF_SXML_ATTRIBUTE&#45;&gt;INTF&#45;IF_SXML_NAMED</title>
<path fill="none" stroke="black" d="M1142.74,-143.88C1126.25,-134.64 1105.7,-123.13 1087.98,-113.21"/>
<polygon fill="black" stroke="black" points="1089.45,-110.02 1079.02,-108.19 1086.03,-116.13 1089.45,-110.02"/>
</g>
<!-- INTF&#45;IF_SXML_ATTRIBUTE&#45;&gt;INTF&#45;IF_SXML_VALUE -->
<g id="edge34" class="edge">
<title>INTF&#45;IF_SXML_ATTRIBUTE&#45;&gt;INTF&#45;IF_SXML_VALUE</title>
<path fill="none" stroke="black" d="M1196.06,-143.7C1207.76,-134.8 1222.18,-123.82 1234.83,-114.2"/>
<polygon fill="black" stroke="black" points="1237,-116.94 1242.84,-108.1 1232.76,-111.37 1237,-116.94"/>
</g>
<!-- INTF&#45;IF_SXML_NSURI_HELPER&#45;&gt;INTF&#45;IF_SXML_NAMED -->
<g id="edge35" class="edge">
<title>INTF&#45;IF_SXML_NSURI_HELPER&#45;&gt;INTF&#45;IF_SXML_NAMED</title>
<path fill="none" stroke="black" d="M363.86,-215.92C439.67,-196.59 568.39,-165.06 680.32,-144 772.71,-126.62 879.09,-111.86 953.64,-102.36"/>
<polygon fill="black" stroke="black" points="954.46,-105.79 963.94,-101.06 953.58,-98.84 954.46,-105.79"/>
</g>
<!-- INTF&#45;IF_SXMLP_OBSERVER&#45;&gt;INTF&#45;IF_SXML_OPEN_ELEMENT -->
<g id="edge36" class="edge">
<title>INTF&#45;IF_SXMLP_OBSERVER&#45;&gt;INTF&#45;IF_SXML_OPEN_ELEMENT</title>
<path fill="none" stroke="black" d="M1518.27,-577.01C1407.96,-556.94 1240.13,-518.88 1202.32,-468 1156.31,-406.09 1189.61,-307.74 1209.84,-261.14"/>
<polygon fill="black" stroke="black" points="1213.03,-262.57 1213.92,-252.01 1206.64,-259.71 1213.03,-262.57"/>
</g>
<!-- INTF&#45;IF_SXMLP_OBSERVER_ABSTRACT -->
<g id="node21" class="node">
<title>INTF&#45;IF_SXMLP_OBSERVER_ABSTRACT</title>
<g id="a_node21"><a xlink:href="./INTF_IF_SXMLP_OBSERVER_ABSTRACT.html" xlink:title="INTF&#45;IF_SXMLP_OBSERVER_ABSTRACT">
<polygon fill="none" stroke="yellow" points="1756.42,-540 1478.22,-540 1478.22,-504 1756.42,-504 1756.42,-540"/>
<text text-anchor="middle" x="1617.32" y="-517.8" font-family="Times,serif" font-size="14.00">INTF&#45;IF_SXMLP_OBSERVER_ABSTRACT</text>
</a>
</g>
</g>
<!-- INTF&#45;IF_SXMLP_OBSERVER&#45;&gt;INTF&#45;IF_SXMLP_OBSERVER_ABSTRACT -->
<g id="edge38" class="edge">
<title>INTF&#45;IF_SXMLP_OBSERVER&#45;&gt;INTF&#45;IF_SXMLP_OBSERVER_ABSTRACT</title>
<path fill="none" stroke="black" d="M1617.32,-575.7C1617.32,-567.98 1617.32,-558.71 1617.32,-550.11"/>
<polygon fill="black" stroke="black" points="1620.82,-550.1 1617.32,-540.1 1613.82,-550.1 1620.82,-550.1"/>
</g>
<!-- INTF&#45;IF_SXMLP_OBSERVER&#45;&gt;INTF&#45;IF_SXMLP_PART -->
<g id="edge37" class="edge">
<title>INTF&#45;IF_SXMLP_OBSERVER&#45;&gt;INTF&#45;IF_SXMLP_PART</title>
<path fill="none" stroke="black" d="M1674.99,-575.97C1708.68,-566.01 1751.37,-553.41 1786.65,-542.99"/>
<polygon fill="black" stroke="black" points="1787.79,-546.3 1796.39,-540.11 1785.8,-539.59 1787.79,-546.3"/>
</g>
<!-- INTF&#45;IF_SXMLP_PART&#45;&gt;DTEL&#45;ANYURI -->
<g id="edge39" class="edge">
<title>INTF&#45;IF_SXMLP_PART&#45;&gt;DTEL&#45;ANYURI</title>
<path fill="none" stroke="black" d="M1887.12,-503.99C1900.54,-495.19 1914.69,-483.09 1922.32,-468 1943.99,-425.16 1954.92,-396.99 1924.32,-360 1897.88,-328.05 1785.43,-315.19 1711.9,-310.14"/>
<polygon fill="black" stroke="black" points="1712,-306.64 1701.79,-309.47 1711.54,-313.62 1712,-306.64"/>
</g>
<!-- INTF&#45;IF_SXMLP_PART&#45;&gt;TABL&#45;QNAME -->
<g id="edge40" class="edge">
<title>INTF&#45;IF_SXMLP_PART&#45;&gt;TABL&#45;QNAME</title>
<path fill="none" stroke="black" d="M1895.51,-503.86C1912.43,-495.16 1931.1,-483.18 1944.32,-468 1972.45,-435.69 1981.32,-421.84 1981.32,-379 1981.32,-379 1981.32,-379 1981.32,-161 1981.32,-120.86 1988.87,-74.9 1994.45,-46.4"/>
<polygon fill="black" stroke="black" points="1997.93,-46.88 1996.47,-36.39 1991.06,-45.5 1997.93,-46.88"/>
</g>
<!-- INTF&#45;IF_SXMLP_PART_ABSTRACT -->
<g id="node23" class="node">
<title>INTF&#45;IF_SXMLP_PART_ABSTRACT</title>
<g id="a_node23"><a xlink:href="./INTF_IF_SXMLP_PART_ABSTRACT.html" xlink:title="INTF&#45;IF_SXMLP_PART_ABSTRACT">
<polygon fill="none" stroke="yellow" points="1777.58,-468 1537.05,-468 1537.05,-432 1777.58,-432 1777.58,-468"/>
<text text-anchor="middle" x="1657.32" y="-445.8" font-family="Times,serif" font-size="14.00">INTF&#45;IF_SXMLP_PART_ABSTRACT</text>
</a>
</g>
</g>
<!-- INTF&#45;IF_SXMLP_PART&#45;&gt;INTF&#45;IF_SXMLP_PART_ABSTRACT -->
<g id="edge44" class="edge">
<title>INTF&#45;IF_SXMLP_PART&#45;&gt;INTF&#45;IF_SXMLP_PART_ABSTRACT</title>
<path fill="none" stroke="black" d="M1806.38,-503.97C1778.85,-494.19 1744.1,-481.84 1715.08,-471.52"/>
<polygon fill="black" stroke="black" points="1716.07,-468.16 1705.47,-468.11 1713.72,-474.76 1716.07,-468.16"/>
</g>
<!-- INTF&#45;IF_SXML_SERIALIZABLE -->
<g id="node24" class="node">
<title>INTF&#45;IF_SXML_SERIALIZABLE</title>
<g id="a_node24"><a xlink:href="./INTF_IF_SXML_SERIALIZABLE.html" xlink:title="INTF&#45;IF_SXML_SERIALIZABLE">
<polygon fill="none" stroke="yellow" points="1427.16,-468 1211.47,-468 1211.47,-432 1427.16,-432 1427.16,-468"/>
<text text-anchor="middle" x="1319.32" y="-445.8" font-family="Times,serif" font-size="14.00">INTF&#45;IF_SXML_SERIALIZABLE</text>
</a>
</g>
</g>
<!-- INTF&#45;IF_SXMLP_PART&#45;&gt;INTF&#45;IF_SXML_SERIALIZABLE -->
<g id="edge43" class="edge">
<title>INTF&#45;IF_SXMLP_PART&#45;&gt;INTF&#45;IF_SXML_SERIALIZABLE</title>
<path fill="none" stroke="black" d="M1773.83,-505.36C1770.96,-504.89 1768.12,-504.43 1765.32,-504 1654.47,-486.85 1527.36,-472.24 1437.27,-462.73"/>
<polygon fill="black" stroke="black" points="1437.61,-459.24 1427.3,-461.68 1436.88,-466.2 1437.61,-459.24"/>
</g>
<!-- INTF&#45;IF_SXMLP_VALUE -->
<g id="node26" class="node">
<title>INTF&#45;IF_SXMLP_VALUE</title>
<g id="a_node26"><a xlink:href="./INTF_IF_SXMLP_VALUE.html" xlink:title="INTF&#45;IF_SXMLP_VALUE">
<polygon fill="none" stroke="yellow" points="1155.62,-468 983.02,-468 983.02,-432 1155.62,-432 1155.62,-468"/>
<text text-anchor="middle" x="1069.32" y="-445.8" font-family="Times,serif" font-size="14.00">INTF&#45;IF_SXMLP_VALUE</text>
</a>
</g>
</g>
<!-- INTF&#45;IF_SXMLP_PART&#45;&gt;INTF&#45;IF_SXMLP_VALUE -->
<g id="edge42" class="edge">
<title>INTF&#45;IF_SXMLP_PART&#45;&gt;INTF&#45;IF_SXMLP_VALUE</title>
<path fill="none" stroke="black" d="M1773.86,-505.17C1770.98,-504.75 1768.13,-504.36 1765.32,-504 1516.58,-472.42 1451.91,-491.91 1202.32,-468 1190.55,-466.87 1178.22,-465.52 1166.01,-464.09"/>
<polygon fill="black" stroke="black" points="1166.14,-460.58 1155.8,-462.86 1165.31,-467.53 1166.14,-460.58"/>
</g>
<!-- DTEL&#45;NCNAME -->
<g id="node27" class="node">
<title>DTEL&#45;NCNAME</title>
<g id="a_node27"><a xlink:href="./DTEL_NCNAME.html" xlink:title="DTEL&#45;NCNAME">
<polygon fill="none" stroke="yellow" points="1912.9,-468 1795.74,-468 1795.74,-432 1912.9,-432 1912.9,-468"/>
<text text-anchor="middle" x="1854.32" y="-445.8" font-family="Times,serif" font-size="14.00">DTEL&#45;NCNAME</text>
</a>
</g>
</g>
<!-- INTF&#45;IF_SXMLP_PART&#45;&gt;DTEL&#45;NCNAME -->
<g id="edge41" class="edge">
<title>INTF&#45;IF_SXMLP_PART&#45;&gt;DTEL&#45;NCNAME</title>
<path fill="none" stroke="black" d="M1854.32,-503.7C1854.32,-495.98 1854.32,-486.71 1854.32,-478.11"/>
<polygon fill="black" stroke="black" points="1857.82,-478.1 1854.32,-468.1 1850.82,-478.1 1857.82,-478.1"/>
</g>
<!-- INTF&#45;IF_SXML_SERIALIZABLE&#45;&gt;INTF&#45;IF_SXMLP_PACKAGE_READER -->
<g id="edge48" class="edge">
<title>INTF&#45;IF_SXML_SERIALIZABLE&#45;&gt;INTF&#45;IF_SXMLP_PACKAGE_READER</title>
<path fill="none" stroke="black" d="M1398.89,-431.97C1446.56,-421.76 1507.28,-408.76 1556.64,-398.2"/>
<polygon fill="black" stroke="black" points="1557.63,-401.57 1566.67,-396.05 1556.16,-394.72 1557.63,-401.57"/>
</g>
<!-- INTF&#45;IF_SXML_SERIALIZABLE&#45;&gt;INTF&#45;IF_SXML_READER -->
<g id="edge47" class="edge">
<title>INTF&#45;IF_SXML_SERIALIZABLE&#45;&gt;INTF&#45;IF_SXML_READER</title>
<path fill="none" stroke="black" d="M1248.99,-431.97C1207.22,-421.85 1154.1,-408.98 1110.67,-398.46"/>
<polygon fill="black" stroke="black" points="1111.25,-395 1100.71,-396.05 1109.61,-401.81 1111.25,-395"/>
</g>
<!-- INTF&#45;IF_SXML_SERIALIZABLE&#45;&gt;INTF&#45;IF_SXML_WRITER -->
<g id="edge45" class="edge">
<title>INTF&#45;IF_SXML_SERIALIZABLE&#45;&gt;INTF&#45;IF_SXML_WRITER</title>
<path fill="none" stroke="black" d="M1287.3,-431.99C1249.63,-412.5 1184.78,-380.62 1126.32,-360 1088.23,-346.56 1045.14,-335.11 1007.88,-326.32"/>
<polygon fill="black" stroke="black" points="1008.57,-322.88 998.03,-324.02 1006.98,-329.7 1008.57,-322.88"/>
</g>
<!-- INTF&#45;IF_SXMLP_PACKAGE_WRITER -->
<g id="node25" class="node">
<title>INTF&#45;IF_SXMLP_PACKAGE_WRITER</title>
<g id="a_node25"><a xlink:href="./INTF_IF_SXMLP_PACKAGE_WRITER.html" xlink:title="INTF&#45;IF_SXMLP_PACKAGE_WRITER">
<polygon fill="none" stroke="yellow" points="1500.95,-396 1249.69,-396 1249.69,-360 1500.95,-360 1500.95,-396"/>
<text text-anchor="middle" x="1375.32" y="-373.8" font-family="Times,serif" font-size="14.00">INTF&#45;IF_SXMLP_PACKAGE_WRITER</text>
</a>
</g>
</g>
<!-- INTF&#45;IF_SXML_SERIALIZABLE&#45;&gt;INTF&#45;IF_SXMLP_PACKAGE_WRITER -->
<g id="edge46" class="edge">
<title>INTF&#45;IF_SXML_SERIALIZABLE&#45;&gt;INTF&#45;IF_SXMLP_PACKAGE_WRITER</title>
<path fill="none" stroke="black" d="M1333.16,-431.7C1339.81,-423.39 1347.9,-413.28 1355.21,-404.14"/>
<polygon fill="black" stroke="black" points="1358.12,-406.1 1361.64,-396.1 1352.66,-401.73 1358.12,-406.1"/>
</g>
<!-- INTF&#45;IF_SXMLP_PACKAGE_WRITER&#45;&gt;DTEL&#45;ANYURI -->
<g id="edge49" class="edge">
<title>INTF&#45;IF_SXMLP_PACKAGE_WRITER&#45;&gt;DTEL&#45;ANYURI</title>
<path fill="none" stroke="black" d="M1441.27,-359.97C1483.62,-349.03 1538.41,-334.87 1580.7,-323.95"/>
<polygon fill="black" stroke="black" points="1581.81,-327.28 1590.62,-321.39 1580.06,-320.5 1581.81,-327.28"/>
</g>
<!-- INTF&#45;IF_SXMLP_VALUE&#45;&gt;INTF&#45;IF_SXML_READER -->
<g id="edge51" class="edge">
<title>INTF&#45;IF_SXMLP_VALUE&#45;&gt;INTF&#45;IF_SXML_READER</title>
<path fill="none" stroke="black" d="M1059.68,-431.7C1055.19,-423.64 1049.76,-413.89 1044.8,-404.98"/>
<polygon fill="black" stroke="black" points="1047.77,-403.14 1039.85,-396.1 1041.66,-406.54 1047.77,-403.14"/>
</g>
<!-- INTF&#45;IF_SXMLP_VALUE&#45;&gt;INTF&#45;IF_SXML_WRITER -->
<g id="edge50" class="edge">
<title>INTF&#45;IF_SXMLP_VALUE&#45;&gt;INTF&#45;IF_SXML_WRITER</title>
<path fill="none" stroke="black" d="M988.67,-431.91C968.39,-424.04 948.41,-412.61 934.32,-396 919.83,-378.92 915.56,-353.47 914.64,-334.15"/>
<polygon fill="black" stroke="black" points="918.14,-334.07 914.42,-324.14 911.14,-334.22 918.14,-334.07"/>
</g>
<!-- DOMA&#45;NCNAME -->
<g id="node28" class="node">
<title>DOMA&#45;NCNAME</title>
<g id="a_node28"><a xlink:href="./DOMA_NCNAME.html" xlink:title="DOMA&#45;NCNAME">
<polygon fill="none" stroke="yellow" points="1915.4,-396 1791.24,-396 1791.24,-360 1915.4,-360 1915.4,-396"/>
<text text-anchor="middle" x="1853.32" y="-373.8" font-family="Times,serif" font-size="14.00">DOMA&#45;NCNAME</text>
</a>
</g>
</g>
<!-- DTEL&#45;NCNAME&#45;&gt;DOMA&#45;NCNAME -->
<g id="edge52" class="edge">
<title>DTEL&#45;NCNAME&#45;&gt;DOMA&#45;NCNAME</title>
<path fill="none" stroke="black" d="M1854.07,-431.7C1853.96,-423.98 1853.83,-414.71 1853.71,-406.11"/>
<polygon fill="black" stroke="black" points="1857.21,-406.05 1853.56,-396.1 1850.21,-406.15 1857.21,-406.05"/>
</g>
<!-- INTF&#45;IF_SXMLP_PART_COLLECTION&#45;&gt;TABL&#45;QNAME -->
<g id="edge53" class="edge">
<title>INTF&#45;IF_SXMLP_PART_COLLECTION&#45;&gt;TABL&#45;QNAME</title>
<path fill="none" stroke="black" d="M1929.13,-575.85C1964.34,-552.45 2019.32,-506.97 2019.32,-451 2019.32,-451 2019.32,-451 2019.32,-161 2019.32,-120.86 2011.77,-74.9 2006.19,-46.4"/>
<polygon fill="black" stroke="black" points="2009.57,-45.5 2004.16,-36.39 2002.71,-46.88 2009.57,-45.5"/>
</g>
<!-- INTF&#45;IF_SXMLP_PART_COLLECTION&#45;&gt;INTF&#45;IF_SXMLP_PART -->
<g id="edge54" class="edge">
<title>INTF&#45;IF_SXMLP_PART_COLLECTION&#45;&gt;INTF&#45;IF_SXMLP_PART</title>
<path fill="none" stroke="black" d="M1888.95,-575.7C1883.6,-567.56 1877.11,-557.69 1871.21,-548.7"/>
<polygon fill="black" stroke="black" points="1873.98,-546.54 1865.56,-540.1 1868.13,-550.38 1873.98,-546.54"/>
</g>
</g>
</svg>
