<?xml version="1.0" encoding="UTF-8" standalone="no"?>
<!DOCTYPE svg PUBLIC "-//W3C//DTD SVG 1.1//EN"
 "http://www.w3.org/Graphics/SVG/1.1/DTD/svg11.dtd">
<!-- Generated by graphviz version 2.47.3 (20210619.1520)
 -->
<!-- Title: G Pages: 1 -->
<svg width="523pt" height="404pt"
 viewBox="0.00 0.00 523.13 404.00" xmlns="http://www.w3.org/2000/svg" xmlns:xlink="http://www.w3.org/1999/xlink">
<g id="graph0" class="graph" transform="scale(1 1) rotate(0) translate(4 400)">
<title>G</title>
<polygon fill="white" stroke="transparent" points="-4,4 -4,-400 519.13,-400 519.13,4 -4,4"/>
<!-- INTF&#45;IF_AUNIT_AUTHORITY_OBJSET -->
<g id="node1" class="node">
<title>INTF&#45;IF_AUNIT_AUTHORITY_OBJSET</title>
<polygon fill="none" stroke="green" points="393.63,-396 133.33,-396 133.33,-360 393.63,-360 393.63,-396"/>
<text text-anchor="middle" x="263.48" y="-373.8" font-family="Times,serif" font-size="14.00">INTF&#45;IF_AUNIT_AUTHORITY_OBJSET</text>
</g>
<!-- CLAS&#45;CL_AUNIT_AUTH_CHECK_TYPES_DEF -->
<g id="node2" class="node">
<title>CLAS&#45;CL_AUNIT_AUTH_CHECK_TYPES_DEF</title>
<g id="a_node2"><a xlink:href="./CLAS_CL_AUNIT_AUTH_CHECK_TYPES_DEF.html" xlink:title="CLAS&#45;CL_AUNIT_AUTH_CHECK_TYPES_DEF">
<polygon fill="none" stroke="green" points="417.88,-324 109.09,-324 109.09,-288 417.88,-288 417.88,-324"/>
<text text-anchor="middle" x="263.48" y="-301.8" font-family="Times,serif" font-size="14.00">CLAS&#45;CL_AUNIT_AUTH_CHECK_TYPES_DEF</text>
</a>
</g>
</g>
<!-- INTF&#45;IF_AUNIT_AUTHORITY_OBJSET&#45;&gt;CLAS&#45;CL_AUNIT_AUTH_CHECK_TYPES_DEF -->
<g id="edge1" class="edge">
<title>INTF&#45;IF_AUNIT_AUTHORITY_OBJSET&#45;&gt;CLAS&#45;CL_AUNIT_AUTH_CHECK_TYPES_DEF</title>
<path fill="none" stroke="black" d="M263.48,-359.7C263.48,-351.98 263.48,-342.71 263.48,-334.11"/>
<polygon fill="black" stroke="black" points="266.98,-334.1 263.48,-324.1 259.98,-334.1 266.98,-334.1"/>
</g>
<!-- DTEL&#45;XUOBJECT -->
<g id="node3" class="node">
<title>DTEL&#45;XUOBJECT</title>
<g id="a_node3"><a xlink:href="./DTEL_XUOBJECT.html" xlink:title="DTEL&#45;XUOBJECT">
<polygon fill="none" stroke="yellow" points="131.45,-252 3.52,-252 3.52,-216 131.45,-216 131.45,-252"/>
<text text-anchor="middle" x="67.48" y="-229.8" font-family="Times,serif" font-size="14.00">DTEL&#45;XUOBJECT</text>
</a>
</g>
</g>
<!-- CLAS&#45;CL_AUNIT_AUTH_CHECK_TYPES_DEF&#45;&gt;DTEL&#45;XUOBJECT -->
<g id="edge4" class="edge">
<title>CLAS&#45;CL_AUNIT_AUTH_CHECK_TYPES_DEF&#45;&gt;DTEL&#45;XUOBJECT</title>
<path fill="none" stroke="black" d="M215.79,-287.97C188.4,-278.19 153.83,-265.84 124.95,-255.52"/>
<polygon fill="black" stroke="black" points="125.99,-252.18 115.39,-252.11 123.63,-258.77 125.99,-252.18"/>
</g>
<!-- TTYP&#45;AUTHVALINTERVAL_TAB -->
<g id="node5" class="node">
<title>TTYP&#45;AUTHVALINTERVAL_TAB</title>
<g id="a_node5"><a xlink:href="./TTYP_AUTHVALINTERVAL_TAB.html" xlink:title="TTYP&#45;AUTHVALINTERVAL_TAB">
<polygon fill="none" stroke="green" points="377.75,-252 149.22,-252 149.22,-216 377.75,-216 377.75,-252"/>
<text text-anchor="middle" x="263.48" y="-229.8" font-family="Times,serif" font-size="14.00">TTYP&#45;AUTHVALINTERVAL_TAB</text>
</a>
</g>
</g>
<!-- CLAS&#45;CL_AUNIT_AUTH_CHECK_TYPES_DEF&#45;&gt;TTYP&#45;AUTHVALINTERVAL_TAB -->
<g id="edge3" class="edge">
<title>CLAS&#45;CL_AUNIT_AUTH_CHECK_TYPES_DEF&#45;&gt;TTYP&#45;AUTHVALINTERVAL_TAB</title>
<path fill="none" stroke="black" d="M263.48,-287.7C263.48,-279.98 263.48,-270.71 263.48,-262.11"/>
<polygon fill="black" stroke="black" points="266.98,-262.1 263.48,-252.1 259.98,-262.1 266.98,-262.1"/>
</g>
<!-- DTEL&#45;XUFIELD -->
<g id="node9" class="node">
<title>DTEL&#45;XUFIELD</title>
<g id="a_node9"><a xlink:href="./DTEL_XUFIELD.html" xlink:title="DTEL&#45;XUFIELD">
<polygon fill="none" stroke="yellow" points="511.78,-252 395.19,-252 395.19,-216 511.78,-216 511.78,-252"/>
<text text-anchor="middle" x="453.48" y="-229.8" font-family="Times,serif" font-size="14.00">DTEL&#45;XUFIELD</text>
</a>
</g>
</g>
<!-- CLAS&#45;CL_AUNIT_AUTH_CHECK_TYPES_DEF&#45;&gt;DTEL&#45;XUFIELD -->
<g id="edge2" class="edge">
<title>CLAS&#45;CL_AUNIT_AUTH_CHECK_TYPES_DEF&#45;&gt;DTEL&#45;XUFIELD</title>
<path fill="none" stroke="black" d="M309.96,-287.88C336.4,-278.14 369.69,-265.87 397.55,-255.61"/>
<polygon fill="black" stroke="black" points="398.98,-258.81 407.16,-252.07 396.56,-252.24 398.98,-258.81"/>
</g>
<!-- DOMA&#45;XUOBJECT -->
<g id="node4" class="node">
<title>DOMA&#45;XUOBJECT</title>
<g id="a_node4"><a xlink:href="./DOMA_XUOBJECT.html" xlink:title="DOMA&#45;XUOBJECT">
<polygon fill="none" stroke="yellow" points="134.95,-180 0.02,-180 0.02,-144 134.95,-144 134.95,-180"/>
<text text-anchor="middle" x="67.48" y="-157.8" font-family="Times,serif" font-size="14.00">DOMA&#45;XUOBJECT</text>
</a>
</g>
</g>
<!-- DTEL&#45;XUOBJECT&#45;&gt;DOMA&#45;XUOBJECT -->
<g id="edge5" class="edge">
<title>DTEL&#45;XUOBJECT&#45;&gt;DOMA&#45;XUOBJECT</title>
<path fill="none" stroke="black" d="M67.48,-215.7C67.48,-207.98 67.48,-198.71 67.48,-190.11"/>
<polygon fill="black" stroke="black" points="70.98,-190.1 67.48,-180.1 63.98,-190.1 70.98,-190.1"/>
</g>
<!-- TABL&#45;AUTHVALINTERVAL -->
<g id="node6" class="node">
<title>TABL&#45;AUTHVALINTERVAL</title>
<g id="a_node6"><a xlink:href="./TABL_AUTHVALINTERVAL.html" xlink:title="TABL&#45;AUTHVALINTERVAL">
<polygon fill="none" stroke="green" points="360.81,-180 166.16,-180 166.16,-144 360.81,-144 360.81,-180"/>
<text text-anchor="middle" x="263.48" y="-157.8" font-family="Times,serif" font-size="14.00">TABL&#45;AUTHVALINTERVAL</text>
</a>
</g>
</g>
<!-- TTYP&#45;AUTHVALINTERVAL_TAB&#45;&gt;TABL&#45;AUTHVALINTERVAL -->
<g id="edge6" class="edge">
<title>TTYP&#45;AUTHVALINTERVAL_TAB&#45;&gt;TABL&#45;AUTHVALINTERVAL</title>
<path fill="none" stroke="black" d="M263.48,-215.7C263.48,-207.98 263.48,-198.71 263.48,-190.11"/>
<polygon fill="black" stroke="black" points="266.98,-190.1 263.48,-180.1 259.98,-190.1 266.98,-190.1"/>
</g>
<!-- DTEL&#45;XUVAL -->
<g id="node7" class="node">
<title>DTEL&#45;XUVAL</title>
<g id="a_node7"><a xlink:href="./DTEL_XUVAL.html" xlink:title="DTEL&#45;XUVAL">
<polygon fill="none" stroke="yellow" points="316.39,-108 210.58,-108 210.58,-72 316.39,-72 316.39,-108"/>
<text text-anchor="middle" x="263.48" y="-85.8" font-family="Times,serif" font-size="14.00">DTEL&#45;XUVAL</text>
</a>
</g>
</g>
<!-- TABL&#45;AUTHVALINTERVAL&#45;&gt;DTEL&#45;XUVAL -->
<g id="edge7" class="edge">
<title>TABL&#45;AUTHVALINTERVAL&#45;&gt;DTEL&#45;XUVAL</title>
<path fill="none" stroke="black" d="M263.48,-143.7C263.48,-135.98 263.48,-126.71 263.48,-118.11"/>
<polygon fill="black" stroke="black" points="266.98,-118.1 263.48,-108.1 259.98,-118.1 266.98,-118.1"/>
</g>
<!-- DOMA&#45;XUVALUE -->
<g id="node8" class="node">
<title>DOMA&#45;XUVALUE</title>
<g id="a_node8"><a xlink:href="./DOMA_XUVALUE.html" xlink:title="DOMA&#45;XUVALUE">
<polygon fill="none" stroke="yellow" points="329.05,-36 197.92,-36 197.92,0 329.05,0 329.05,-36"/>
<text text-anchor="middle" x="263.48" y="-13.8" font-family="Times,serif" font-size="14.00">DOMA&#45;XUVALUE</text>
</a>
</g>
</g>
<!-- DTEL&#45;XUVAL&#45;&gt;DOMA&#45;XUVALUE -->
<g id="edge8" class="edge">
<title>DTEL&#45;XUVAL&#45;&gt;DOMA&#45;XUVALUE</title>
<path fill="none" stroke="black" d="M263.48,-71.7C263.48,-63.98 263.48,-54.71 263.48,-46.11"/>
<polygon fill="black" stroke="black" points="266.98,-46.1 263.48,-36.1 259.98,-46.1 266.98,-46.1"/>
</g>
<!-- DOMA&#45;XUFIELD -->
<g id="node10" class="node">
<title>DOMA&#45;XUFIELD</title>
<g id="a_node10"><a xlink:href="./DOMA_XUFIELD.html" xlink:title="DOMA&#45;XUFIELD">
<polygon fill="none" stroke="yellow" points="515.28,-180 391.69,-180 391.69,-144 515.28,-144 515.28,-180"/>
<text text-anchor="middle" x="453.48" y="-157.8" font-family="Times,serif" font-size="14.00">DOMA&#45;XUFIELD</text>
</a>
</g>
</g>
<!-- DTEL&#45;XUFIELD&#45;&gt;DOMA&#45;XUFIELD -->
<g id="edge9" class="edge">
<title>DTEL&#45;XUFIELD&#45;&gt;DOMA&#45;XUFIELD</title>
<path fill="none" stroke="black" d="M453.48,-215.7C453.48,-207.98 453.48,-198.71 453.48,-190.11"/>
<polygon fill="black" stroke="black" points="456.98,-190.1 453.48,-180.1 449.98,-190.1 456.98,-190.1"/>
</g>
</g>
</svg>
