<?xml version="1.0" encoding="UTF-8" standalone="no"?>
<!DOCTYPE svg PUBLIC "-//W3C//DTD SVG 1.1//EN"
 "http://www.w3.org/Graphics/SVG/1.1/DTD/svg11.dtd">
<!-- Generated by graphviz version 2.47.3 (20210619.1520)
 -->
<!-- Title: G Pages: 1 -->
<svg width="678pt" height="188pt"
 viewBox="0.00 0.00 678.30 188.00" xmlns="http://www.w3.org/2000/svg" xmlns:xlink="http://www.w3.org/1999/xlink">
<g id="graph0" class="graph" transform="scale(1 1) rotate(0) translate(4 184)">
<title>G</title>
<polygon fill="white" stroke="transparent" points="-4,4 -4,-184 674.3,-184 674.3,4 -4,4"/>
<!-- INTF&#45;/IWBEP/IF_CP_RUNTIME_TYPES_V2 -->
<g id="node1" class="node">
<title>INTF&#45;/IWBEP/IF_CP_RUNTIME_TYPES_V2</title>
<polygon fill="none" stroke="yellow" points="438.95,-180 154.36,-180 154.36,-144 438.95,-144 438.95,-180"/>
<text text-anchor="middle" x="296.66" y="-157.8" font-family="Times,serif" font-size="14.00">INTF&#45;/IWBEP/IF_CP_RUNTIME_TYPES_V2</text>
</g>
<!-- DTEL&#45;CHAR1 -->
<g id="node2" class="node">
<title>DTEL&#45;CHAR1</title>
<g id="a_node2"><a xlink:href="./DTEL_CHAR1.html" xlink:title="DTEL&#45;CHAR1">
<polygon fill="none" stroke="yellow" points="108.97,-108 6.34,-108 6.34,-72 108.97,-72 108.97,-108"/>
<text text-anchor="middle" x="57.66" y="-85.8" font-family="Times,serif" font-size="14.00">DTEL&#45;CHAR1</text>
</a>
</g>
</g>
<!-- INTF&#45;/IWBEP/IF_CP_RUNTIME_TYPES_V2&#45;&gt;DTEL&#45;CHAR1 -->
<g id="edge4" class="edge">
<title>INTF&#45;/IWBEP/IF_CP_RUNTIME_TYPES_V2&#45;&gt;DTEL&#45;CHAR1</title>
<path fill="none" stroke="black" d="M238.5,-143.97C202.22,-133.34 155.6,-119.69 118.78,-108.9"/>
<polygon fill="black" stroke="black" points="119.74,-105.54 109.16,-106.08 117.77,-112.25 119.74,-105.54"/>
</g>
<!-- DTEL&#45;SYSUUID_C -->
<g id="node4" class="node">
<title>DTEL&#45;SYSUUID_C</title>
<g id="a_node4"><a xlink:href="./DTEL_SYSUUID_C.html" xlink:title="DTEL&#45;SYSUUID_C">
<polygon fill="none" stroke="yellow" points="262.57,-108 128.74,-108 128.74,-72 262.57,-72 262.57,-108"/>
<text text-anchor="middle" x="195.66" y="-85.8" font-family="Times,serif" font-size="14.00">DTEL&#45;SYSUUID_C</text>
</a>
</g>
</g>
<!-- INTF&#45;/IWBEP/IF_CP_RUNTIME_TYPES_V2&#45;&gt;DTEL&#45;SYSUUID_C -->
<g id="edge3" class="edge">
<title>INTF&#45;/IWBEP/IF_CP_RUNTIME_TYPES_V2&#45;&gt;DTEL&#45;SYSUUID_C</title>
<path fill="none" stroke="black" d="M271.95,-143.88C258.99,-134.89 242.93,-123.76 228.89,-114.03"/>
<polygon fill="black" stroke="black" points="230.67,-111.01 220.46,-108.19 226.68,-116.76 230.67,-111.01"/>
</g>
<!-- DTEL&#45;/IWBEP/MGW_TECH_NAME -->
<g id="node6" class="node">
<title>DTEL&#45;/IWBEP/MGW_TECH_NAME</title>
<g id="a_node6"><a xlink:href="./DTEL_%23IWBEP%23MGW_TECH_NAME.html" xlink:title="DTEL&#45;/IWBEP/MGW_TECH_NAME">
<polygon fill="none" stroke="yellow" points="515.43,-108 279.88,-108 279.88,-72 515.43,-72 515.43,-108"/>
<text text-anchor="middle" x="397.66" y="-85.8" font-family="Times,serif" font-size="14.00">DTEL&#45;/IWBEP/MGW_TECH_NAME</text>
</a>
</g>
</g>
<!-- INTF&#45;/IWBEP/IF_CP_RUNTIME_TYPES_V2&#45;&gt;DTEL&#45;/IWBEP/MGW_TECH_NAME -->
<g id="edge2" class="edge">
<title>INTF&#45;/IWBEP/IF_CP_RUNTIME_TYPES_V2&#45;&gt;DTEL&#45;/IWBEP/MGW_TECH_NAME</title>
<path fill="none" stroke="black" d="M321.36,-143.88C334.32,-134.89 350.38,-123.76 364.42,-114.03"/>
<polygon fill="black" stroke="black" points="366.63,-116.76 372.85,-108.19 362.64,-111.01 366.63,-116.76"/>
</g>
<!-- DTEL&#45;FIELDNAME -->
<g id="node7" class="node">
<title>DTEL&#45;FIELDNAME</title>
<g id="a_node7"><a xlink:href="./DTEL_FIELDNAME.html" xlink:title="DTEL&#45;FIELDNAME">
<polygon fill="none" stroke="yellow" points="670.45,-108 532.86,-108 532.86,-72 670.45,-72 670.45,-108"/>
<text text-anchor="middle" x="601.66" y="-85.8" font-family="Times,serif" font-size="14.00">DTEL&#45;FIELDNAME</text>
</a>
</g>
</g>
<!-- INTF&#45;/IWBEP/IF_CP_RUNTIME_TYPES_V2&#45;&gt;DTEL&#45;FIELDNAME -->
<g id="edge1" class="edge">
<title>INTF&#45;/IWBEP/IF_CP_RUNTIME_TYPES_V2&#45;&gt;DTEL&#45;FIELDNAME</title>
<path fill="none" stroke="black" d="M370.88,-143.97C416.97,-133.39 476.15,-119.8 523.05,-109.04"/>
<polygon fill="black" stroke="black" points="523.89,-112.44 532.86,-106.79 522.33,-105.62 523.89,-112.44"/>
</g>
<!-- DOMA&#45;CHAR1 -->
<g id="node3" class="node">
<title>DOMA&#45;CHAR1</title>
<g id="a_node3"><a xlink:href="./DOMA_CHAR1.html" xlink:title="DOMA&#45;CHAR1">
<polygon fill="none" stroke="green" points="109.47,-36 -0.16,-36 -0.16,0 109.47,0 109.47,-36"/>
<text text-anchor="middle" x="54.66" y="-13.8" font-family="Times,serif" font-size="14.00">DOMA&#45;CHAR1</text>
</a>
</g>
</g>
<!-- DTEL&#45;CHAR1&#45;&gt;DOMA&#45;CHAR1 -->
<g id="edge5" class="edge">
<title>DTEL&#45;CHAR1&#45;&gt;DOMA&#45;CHAR1</title>
<path fill="none" stroke="black" d="M56.91,-71.7C56.58,-63.98 56.19,-54.71 55.82,-46.11"/>
<polygon fill="black" stroke="black" points="59.31,-45.95 55.39,-36.1 52.32,-46.25 59.31,-45.95"/>
</g>
<!-- DOMA&#45;SYSUUID_C -->
<g id="node5" class="node">
<title>DOMA&#45;SYSUUID_C</title>
<g id="a_node5"><a xlink:href="./DOMA_SYSUUID_C.html" xlink:title="DOMA&#45;SYSUUID_C">
<polygon fill="none" stroke="yellow" points="268.07,-36 127.24,-36 127.24,0 268.07,0 268.07,-36"/>
<text text-anchor="middle" x="197.66" y="-13.8" font-family="Times,serif" font-size="14.00">DOMA&#45;SYSUUID_C</text>
</a>
</g>
</g>
<!-- DTEL&#45;SYSUUID_C&#45;&gt;DOMA&#45;SYSUUID_C -->
<g id="edge6" class="edge">
<title>DTEL&#45;SYSUUID_C&#45;&gt;DOMA&#45;SYSUUID_C</title>
<path fill="none" stroke="black" d="M196.15,-71.7C196.37,-63.98 196.64,-54.71 196.88,-46.11"/>
<polygon fill="black" stroke="black" points="200.38,-46.2 197.17,-36.1 193.38,-46 200.38,-46.2"/>
</g>
<!-- DOMA&#45;FDNAME -->
<g id="node8" class="node">
<title>DOMA&#45;FDNAME</title>
<g id="a_node8"><a xlink:href="./DOMA_FDNAME.html" xlink:title="DOMA&#45;FDNAME">
<polygon fill="none" stroke="yellow" points="662.68,-36 540.63,-36 540.63,0 662.68,0 662.68,-36"/>
<text text-anchor="middle" x="601.66" y="-13.8" font-family="Times,serif" font-size="14.00">DOMA&#45;FDNAME</text>
</a>
</g>
</g>
<!-- DTEL&#45;FIELDNAME&#45;&gt;DOMA&#45;FDNAME -->
<g id="edge7" class="edge">
<title>DTEL&#45;FIELDNAME&#45;&gt;DOMA&#45;FDNAME</title>
<path fill="none" stroke="black" d="M601.66,-71.7C601.66,-63.98 601.66,-54.71 601.66,-46.11"/>
<polygon fill="black" stroke="black" points="605.16,-46.1 601.66,-36.1 598.16,-46.1 605.16,-46.1"/>
</g>
</g>
</svg>
