<?xml version="1.0" encoding="UTF-8" standalone="no"?>
<!DOCTYPE svg PUBLIC "-//W3C//DTD SVG 1.1//EN"
 "http://www.w3.org/Graphics/SVG/1.1/DTD/svg11.dtd">
<!-- Generated by graphviz version 2.47.3 (20210619.1520)
 -->
<!-- Title: G Pages: 1 -->
<svg width="848pt" height="404pt"
 viewBox="0.00 0.00 848.31 404.00" xmlns="http://www.w3.org/2000/svg" xmlns:xlink="http://www.w3.org/1999/xlink">
<g id="graph0" class="graph" transform="scale(1 1) rotate(0) translate(4 400)">
<title>G</title>
<polygon fill="white" stroke="transparent" points="-4,4 -4,-400 844.31,-400 844.31,4 -4,4"/>
<!-- INTF&#45;IF_ABAP_BEHV_MESSAGE -->
<g id="node1" class="node">
<title>INTF&#45;IF_ABAP_BEHV_MESSAGE</title>
<polygon fill="none" stroke="green" points="485.07,-396 259.13,-396 259.13,-360 485.07,-360 485.07,-396"/>
<text text-anchor="middle" x="372.1" y="-373.8" font-family="Times,serif" font-size="14.00">INTF&#45;IF_ABAP_BEHV_MESSAGE</text>
</g>
<!-- INTF&#45;IF_T100_MESSAGE -->
<g id="node2" class="node">
<title>INTF&#45;IF_T100_MESSAGE</title>
<g id="a_node2"><a xlink:href="./INTF_IF_T100_MESSAGE.html" xlink:title="INTF&#45;IF_T100_MESSAGE">
<polygon fill="none" stroke="green" points="573.69,-252 400.51,-252 400.51,-216 573.69,-216 573.69,-252"/>
<text text-anchor="middle" x="487.1" y="-229.8" font-family="Times,serif" font-size="14.00">INTF&#45;IF_T100_MESSAGE</text>
</a>
</g>
</g>
<!-- INTF&#45;IF_ABAP_BEHV_MESSAGE&#45;&gt;INTF&#45;IF_T100_MESSAGE -->
<g id="edge3" class="edge">
<title>INTF&#45;IF_ABAP_BEHV_MESSAGE&#45;&gt;INTF&#45;IF_T100_MESSAGE</title>
<path fill="none" stroke="black" d="M385.97,-359.87C406.09,-335.03 443.49,-288.85 466.74,-260.14"/>
<polygon fill="black" stroke="black" points="469.61,-262.16 473.18,-252.19 464.17,-257.76 469.61,-262.16"/>
</g>
<!-- INTF&#45;IF_MESSAGE -->
<g id="node3" class="node">
<title>INTF&#45;IF_MESSAGE</title>
<g id="a_node3"><a xlink:href="./INTF_IF_MESSAGE.html" xlink:title="INTF&#45;IF_MESSAGE">
<polygon fill="none" stroke="green" points="440.14,-180 304.07,-180 304.07,-144 440.14,-144 440.14,-180"/>
<text text-anchor="middle" x="372.1" y="-157.8" font-family="Times,serif" font-size="14.00">INTF&#45;IF_MESSAGE</text>
</a>
</g>
</g>
<!-- INTF&#45;IF_ABAP_BEHV_MESSAGE&#45;&gt;INTF&#45;IF_MESSAGE -->
<g id="edge1" class="edge">
<title>INTF&#45;IF_ABAP_BEHV_MESSAGE&#45;&gt;INTF&#45;IF_MESSAGE</title>
<path fill="none" stroke="black" d="M372.1,-359.85C372.1,-322.83 372.1,-235.18 372.1,-190.39"/>
<polygon fill="black" stroke="black" points="375.6,-190.23 372.1,-180.23 368.6,-190.23 375.6,-190.23"/>
</g>
<!-- INTF&#45;IF_T100_DYN_MSG -->
<g id="node10" class="node">
<title>INTF&#45;IF_T100_DYN_MSG</title>
<g id="a_node10"><a xlink:href="./INTF_IF_T100_DYN_MSG.html" xlink:title="INTF&#45;IF_T100_DYN_MSG">
<polygon fill="none" stroke="green" points="344.01,-324 168.19,-324 168.19,-288 344.01,-288 344.01,-324"/>
<text text-anchor="middle" x="256.1" y="-301.8" font-family="Times,serif" font-size="14.00">INTF&#45;IF_T100_DYN_MSG</text>
</a>
</g>
</g>
<!-- INTF&#45;IF_ABAP_BEHV_MESSAGE&#45;&gt;INTF&#45;IF_T100_DYN_MSG -->
<g id="edge2" class="edge">
<title>INTF&#45;IF_ABAP_BEHV_MESSAGE&#45;&gt;INTF&#45;IF_T100_DYN_MSG</title>
<path fill="none" stroke="black" d="M343.72,-359.88C328.56,-350.72 309.7,-339.34 293.36,-329.48"/>
<polygon fill="black" stroke="black" points="294.96,-326.36 284.59,-324.19 291.34,-332.35 294.96,-326.36"/>
</g>
<!-- INTF&#45;IF_T100_MESSAGE&#45;&gt;INTF&#45;IF_MESSAGE -->
<g id="edge8" class="edge">
<title>INTF&#45;IF_T100_MESSAGE&#45;&gt;INTF&#45;IF_MESSAGE</title>
<path fill="none" stroke="black" d="M458.97,-215.88C443.93,-206.72 425.23,-195.34 409.04,-185.48"/>
<polygon fill="black" stroke="black" points="410.7,-182.4 400.34,-180.19 407.06,-188.38 410.7,-182.4"/>
</g>
<!-- TABL&#45;SCX_T100KEY -->
<g id="node4" class="node">
<title>TABL&#45;SCX_T100KEY</title>
<g id="a_node4"><a xlink:href="./TABL_SCX_T100KEY.html" xlink:title="TABL&#45;SCX_T100KEY">
<polygon fill="none" stroke="yellow" points="645.85,-180 496.35,-180 496.35,-144 645.85,-144 645.85,-180"/>
<text text-anchor="middle" x="571.1" y="-157.8" font-family="Times,serif" font-size="14.00">TABL&#45;SCX_T100KEY</text>
</a>
</g>
</g>
<!-- INTF&#45;IF_T100_MESSAGE&#45;&gt;TABL&#45;SCX_T100KEY -->
<g id="edge7" class="edge">
<title>INTF&#45;IF_T100_MESSAGE&#45;&gt;TABL&#45;SCX_T100KEY</title>
<path fill="none" stroke="black" d="M507.86,-215.7C518.34,-206.97 531.21,-196.24 542.6,-186.75"/>
<polygon fill="black" stroke="black" points="545.13,-189.19 550.58,-180.1 540.65,-183.82 545.13,-189.19"/>
</g>
<!-- DTEL&#45;SCX_ATTRNAME -->
<g id="node5" class="node">
<title>DTEL&#45;SCX_ATTRNAME</title>
<g id="a_node5"><a xlink:href="./DTEL_SCX_ATTRNAME.html" xlink:title="DTEL&#45;SCX_ATTRNAME">
<polygon fill="none" stroke="green" points="840.51,-108 671.69,-108 671.69,-72 840.51,-72 840.51,-108"/>
<text text-anchor="middle" x="756.1" y="-85.8" font-family="Times,serif" font-size="14.00">DTEL&#45;SCX_ATTRNAME</text>
</a>
</g>
</g>
<!-- INTF&#45;IF_T100_MESSAGE&#45;&gt;DTEL&#45;SCX_ATTRNAME -->
<g id="edge6" class="edge">
<title>INTF&#45;IF_T100_MESSAGE&#45;&gt;DTEL&#45;SCX_ATTRNAME</title>
<path fill="none" stroke="black" d="M573.92,-218.24C606.32,-210.2 642.42,-198.06 672.1,-180 699.1,-163.57 723.08,-136.19 738.44,-116.12"/>
<polygon fill="black" stroke="black" points="741.31,-118.14 744.48,-108.03 735.69,-113.95 741.31,-118.14"/>
</g>
<!-- DTEL&#45;SYMSGNO -->
<g id="node6" class="node">
<title>DTEL&#45;SYMSGNO</title>
<g id="a_node6"><a xlink:href="./DTEL_SYMSGNO.html" xlink:title="DTEL&#45;SYMSGNO">
<polygon fill="none" stroke="green" points="516.46,-108 391.74,-108 391.74,-72 516.46,-72 516.46,-108"/>
<text text-anchor="middle" x="454.1" y="-85.8" font-family="Times,serif" font-size="14.00">DTEL&#45;SYMSGNO</text>
</a>
</g>
</g>
<!-- INTF&#45;IF_T100_MESSAGE&#45;&gt;DTEL&#45;SYMSGNO -->
<g id="edge5" class="edge">
<title>INTF&#45;IF_T100_MESSAGE&#45;&gt;DTEL&#45;SYMSGNO</title>
<path fill="none" stroke="black" d="M483.12,-215.87C477.47,-191.56 467.07,-146.82 460.38,-118.01"/>
<polygon fill="black" stroke="black" points="463.77,-117.14 458.09,-108.19 456.95,-118.72 463.77,-117.14"/>
</g>
<!-- DTEL&#45;SYMSGID -->
<g id="node8" class="node">
<title>DTEL&#45;SYMSGID</title>
<g id="a_node8"><a xlink:href="./DTEL_SYMSGID.html" xlink:title="DTEL&#45;SYMSGID">
<polygon fill="none" stroke="green" points="654.02,-108 534.18,-108 534.18,-72 654.02,-72 654.02,-108"/>
<text text-anchor="middle" x="594.1" y="-85.8" font-family="Times,serif" font-size="14.00">DTEL&#45;SYMSGID</text>
</a>
</g>
</g>
<!-- INTF&#45;IF_T100_MESSAGE&#45;&gt;DTEL&#45;SYMSGID -->
<g id="edge4" class="edge">
<title>INTF&#45;IF_T100_MESSAGE&#45;&gt;DTEL&#45;SYMSGID</title>
<path fill="none" stroke="black" d="M573.68,-226.47C604.44,-219.47 636.11,-205.9 655.1,-180 664.56,-167.1 661.74,-158.56 655.1,-144 649.87,-132.53 640.8,-122.58 631.23,-114.5"/>
<polygon fill="black" stroke="black" points="633.17,-111.58 623.14,-108.16 628.85,-117.09 633.17,-111.58"/>
</g>
<!-- TABL&#45;SCX_T100KEY&#45;&gt;DTEL&#45;SCX_ATTRNAME -->
<g id="edge11" class="edge">
<title>TABL&#45;SCX_T100KEY&#45;&gt;DTEL&#45;SCX_ATTRNAME</title>
<path fill="none" stroke="black" d="M616.36,-143.88C642.1,-134.14 674.51,-121.87 701.64,-111.61"/>
<polygon fill="black" stroke="black" points="702.88,-114.88 710.99,-108.07 700.4,-108.33 702.88,-114.88"/>
</g>
<!-- TABL&#45;SCX_T100KEY&#45;&gt;DTEL&#45;SYMSGNO -->
<g id="edge10" class="edge">
<title>TABL&#45;SCX_T100KEY&#45;&gt;DTEL&#45;SYMSGNO</title>
<path fill="none" stroke="black" d="M542.48,-143.88C527.18,-134.72 508.16,-123.34 491.68,-113.48"/>
<polygon fill="black" stroke="black" points="493.21,-110.32 482.83,-108.19 489.62,-116.33 493.21,-110.32"/>
</g>
<!-- TABL&#45;SCX_T100KEY&#45;&gt;DTEL&#45;SYMSGID -->
<g id="edge9" class="edge">
<title>TABL&#45;SCX_T100KEY&#45;&gt;DTEL&#45;SYMSGID</title>
<path fill="none" stroke="black" d="M576.79,-143.7C579.35,-135.9 582.43,-126.51 585.29,-117.83"/>
<polygon fill="black" stroke="black" points="588.68,-118.7 588.48,-108.1 582.03,-116.51 588.68,-118.7"/>
</g>
<!-- DOMA&#45;SYMSGNO -->
<g id="node7" class="node">
<title>DOMA&#45;SYMSGNO</title>
<g id="a_node7"><a xlink:href="./DOMA_SYMSGNO.html" xlink:title="DOMA&#45;SYMSGNO">
<polygon fill="none" stroke="yellow" points="519.96,-36 388.24,-36 388.24,0 519.96,0 519.96,-36"/>
<text text-anchor="middle" x="454.1" y="-13.8" font-family="Times,serif" font-size="14.00">DOMA&#45;SYMSGNO</text>
</a>
</g>
</g>
<!-- DTEL&#45;SYMSGNO&#45;&gt;DOMA&#45;SYMSGNO -->
<g id="edge12" class="edge">
<title>DTEL&#45;SYMSGNO&#45;&gt;DOMA&#45;SYMSGNO</title>
<path fill="none" stroke="black" d="M454.1,-71.7C454.1,-63.98 454.1,-54.71 454.1,-46.11"/>
<polygon fill="black" stroke="black" points="457.6,-46.1 454.1,-36.1 450.6,-46.1 457.6,-46.1"/>
</g>
<!-- DOMA&#45;ARBGB -->
<g id="node9" class="node">
<title>DOMA&#45;ARBGB</title>
<g id="a_node9"><a xlink:href="./DOMA_ARBGB.html" xlink:title="DOMA&#45;ARBGB">
<polygon fill="none" stroke="yellow" points="649.75,-36 538.45,-36 538.45,0 649.75,0 649.75,-36"/>
<text text-anchor="middle" x="594.1" y="-13.8" font-family="Times,serif" font-size="14.00">DOMA&#45;ARBGB</text>
</a>
</g>
</g>
<!-- DTEL&#45;SYMSGID&#45;&gt;DOMA&#45;ARBGB -->
<g id="edge13" class="edge">
<title>DTEL&#45;SYMSGID&#45;&gt;DOMA&#45;ARBGB</title>
<path fill="none" stroke="black" d="M594.1,-71.7C594.1,-63.98 594.1,-54.71 594.1,-46.11"/>
<polygon fill="black" stroke="black" points="597.6,-46.1 594.1,-36.1 590.6,-46.1 597.6,-46.1"/>
</g>
<!-- INTF&#45;IF_T100_DYN_MSG&#45;&gt;INTF&#45;IF_T100_MESSAGE -->
<g id="edge17" class="edge">
<title>INTF&#45;IF_T100_DYN_MSG&#45;&gt;INTF&#45;IF_T100_MESSAGE</title>
<path fill="none" stroke="black" d="M312.31,-287.97C345.01,-278.06 386.4,-265.51 420.7,-255.12"/>
<polygon fill="black" stroke="black" points="422.08,-258.36 430.63,-252.11 420.05,-251.66 422.08,-258.36"/>
</g>
<!-- INTF&#45;IF_T100_DYN_MSG&#45;&gt;INTF&#45;IF_MESSAGE -->
<g id="edge16" class="edge">
<title>INTF&#45;IF_T100_DYN_MSG&#45;&gt;INTF&#45;IF_MESSAGE</title>
<path fill="none" stroke="black" d="M270.09,-287.87C290.39,-263.03 328.11,-216.85 351.56,-188.14"/>
<polygon fill="black" stroke="black" points="354.44,-190.15 358.06,-180.19 349.02,-185.72 354.44,-190.15"/>
</g>
<!-- DTEL&#45;SYMSGTY -->
<g id="node11" class="node">
<title>DTEL&#45;SYMSGTY</title>
<g id="a_node11"><a xlink:href="./DTEL_SYMSGTY.html" xlink:title="DTEL&#45;SYMSGTY">
<polygon fill="none" stroke="green" points="286.91,-252 163.29,-252 163.29,-216 286.91,-216 286.91,-252"/>
<text text-anchor="middle" x="225.1" y="-229.8" font-family="Times,serif" font-size="14.00">DTEL&#45;SYMSGTY</text>
</a>
</g>
</g>
<!-- INTF&#45;IF_T100_DYN_MSG&#45;&gt;DTEL&#45;SYMSGTY -->
<g id="edge15" class="edge">
<title>INTF&#45;IF_T100_DYN_MSG&#45;&gt;DTEL&#45;SYMSGTY</title>
<path fill="none" stroke="black" d="M248.44,-287.7C244.91,-279.73 240.64,-270.1 236.73,-261.26"/>
<polygon fill="black" stroke="black" points="239.92,-259.83 232.68,-252.1 233.52,-262.67 239.92,-259.83"/>
</g>
<!-- DTEL&#45;SYMSGV -->
<g id="node13" class="node">
<title>DTEL&#45;SYMSGV</title>
<g id="a_node13"><a xlink:href="./DTEL_SYMSGV.html" xlink:title="DTEL&#45;SYMSGV">
<polygon fill="none" stroke="green" points="138.36,-252 23.85,-252 23.85,-216 138.36,-216 138.36,-252"/>
<text text-anchor="middle" x="81.1" y="-229.8" font-family="Times,serif" font-size="14.00">DTEL&#45;SYMSGV</text>
</a>
</g>
</g>
<!-- INTF&#45;IF_T100_DYN_MSG&#45;&gt;DTEL&#45;SYMSGV -->
<g id="edge14" class="edge">
<title>INTF&#45;IF_T100_DYN_MSG&#45;&gt;DTEL&#45;SYMSGV</title>
<path fill="none" stroke="black" d="M213.29,-287.88C189.15,-278.22 158.82,-266.09 133.29,-255.88"/>
<polygon fill="black" stroke="black" points="134.36,-252.53 123.77,-252.07 131.76,-259.03 134.36,-252.53"/>
</g>
<!-- DOMA&#45;SYCHAR01 -->
<g id="node12" class="node">
<title>DOMA&#45;SYCHAR01</title>
<g id="a_node12"><a xlink:href="./DOMA_SYCHAR01.html" xlink:title="DOMA&#45;SYCHAR01">
<polygon fill="none" stroke="yellow" points="286.3,-180 151.9,-180 151.9,-144 286.3,-144 286.3,-180"/>
<text text-anchor="middle" x="219.1" y="-157.8" font-family="Times,serif" font-size="14.00">DOMA&#45;SYCHAR01</text>
</a>
</g>
</g>
<!-- DTEL&#45;SYMSGTY&#45;&gt;DOMA&#45;SYCHAR01 -->
<g id="edge18" class="edge">
<title>DTEL&#45;SYMSGTY&#45;&gt;DOMA&#45;SYCHAR01</title>
<path fill="none" stroke="black" d="M223.62,-215.7C222.96,-207.98 222.16,-198.71 221.42,-190.11"/>
<polygon fill="black" stroke="black" points="224.91,-189.77 220.57,-180.1 217.93,-190.37 224.91,-189.77"/>
</g>
<!-- DOMA&#45;SYCHAR50 -->
<g id="node14" class="node">
<title>DOMA&#45;SYCHAR50</title>
<g id="a_node14"><a xlink:href="./DOMA_SYCHAR50.html" xlink:title="DOMA&#45;SYCHAR50">
<polygon fill="none" stroke="yellow" points="134.3,-180 -0.1,-180 -0.1,-144 134.3,-144 134.3,-180"/>
<text text-anchor="middle" x="67.1" y="-157.8" font-family="Times,serif" font-size="14.00">DOMA&#45;SYCHAR50</text>
</a>
</g>
</g>
<!-- DTEL&#45;SYMSGV&#45;&gt;DOMA&#45;SYCHAR50 -->
<g id="edge19" class="edge">
<title>DTEL&#45;SYMSGV&#45;&gt;DOMA&#45;SYCHAR50</title>
<path fill="none" stroke="black" d="M77.64,-215.7C76.1,-207.98 74.24,-198.71 72.52,-190.11"/>
<polygon fill="black" stroke="black" points="75.91,-189.22 70.52,-180.1 69.05,-190.6 75.91,-189.22"/>
</g>
</g>
</svg>
