<?xml version="1.0" encoding="UTF-8" standalone="no"?>
<!DOCTYPE svg PUBLIC "-//W3C//DTD SVG 1.1//EN"
 "http://www.w3.org/Graphics/SVG/1.1/DTD/svg11.dtd">
<!-- Generated by graphviz version 2.47.3 (20210619.1520)
 -->
<!-- Title: G Pages: 1 -->
<svg width="1635pt" height="836pt"
 viewBox="0.00 0.00 1635.14 836.00" xmlns="http://www.w3.org/2000/svg" xmlns:xlink="http://www.w3.org/1999/xlink">
<g id="graph0" class="graph" transform="scale(1 1) rotate(0) translate(4 832)">
<title>G</title>
<polygon fill="white" stroke="transparent" points="-4,4 -4,-832 1631.14,-832 1631.14,4 -4,4"/>
<!-- INTF&#45;IF_XCO_CP_GEN_DDLX_D_O_PUT_SCT -->
<g id="node1" class="node">
<title>INTF&#45;IF_XCO_CP_GEN_DDLX_D_O_PUT_SCT</title>
<polygon fill="none" stroke="green" points="481.6,-828 174.92,-828 174.92,-792 481.6,-792 481.6,-828"/>
<text text-anchor="middle" x="328.26" y="-805.8" font-family="Times,serif" font-size="14.00">INTF&#45;IF_XCO_CP_GEN_DDLX_D_O_PUT_SCT</text>
</g>
<!-- INTF&#45;IF_XCO_CP_GEN_DDLX_D_O_PUT_OBJ -->
<g id="node2" class="node">
<title>INTF&#45;IF_XCO_CP_GEN_DDLX_D_O_PUT_OBJ</title>
<g id="a_node2"><a xlink:href="./INTF_IF_XCO_CP_GEN_DDLX_D_O_PUT_OBJ.html" xlink:title="INTF&#45;IF_XCO_CP_GEN_DDLX_D_O_PUT_OBJ">
<polygon fill="none" stroke="green" points="581.32,-756 275.21,-756 275.21,-720 581.32,-720 581.32,-756"/>
<text text-anchor="middle" x="428.26" y="-733.8" font-family="Times,serif" font-size="14.00">INTF&#45;IF_XCO_CP_GEN_DDLX_D_O_PUT_OBJ</text>
</a>
</g>
</g>
<!-- INTF&#45;IF_XCO_CP_GEN_DDLX_D_O_PUT_SCT&#45;&gt;INTF&#45;IF_XCO_CP_GEN_DDLX_D_O_PUT_OBJ -->
<g id="edge2" class="edge">
<title>INTF&#45;IF_XCO_CP_GEN_DDLX_D_O_PUT_SCT&#45;&gt;INTF&#45;IF_XCO_CP_GEN_DDLX_D_O_PUT_OBJ</title>
<path fill="none" stroke="black" d="M352.72,-791.88C365.56,-782.89 381.46,-771.76 395.36,-762.03"/>
<polygon fill="black" stroke="black" points="397.52,-764.79 403.7,-756.19 393.51,-759.06 397.52,-764.79"/>
</g>
<!-- DTEL&#45;SXCO_CDS_OBJECT_NAME -->
<g id="node24" class="node">
<title>DTEL&#45;SXCO_CDS_OBJECT_NAME</title>
<g id="a_node24"><a xlink:href="./DTEL_SXCO_CDS_OBJECT_NAME.html" xlink:title="DTEL&#45;SXCO_CDS_OBJECT_NAME">
<polygon fill="none" stroke="green" points="234.29,-612 0.24,-612 0.24,-576 234.29,-576 234.29,-612"/>
<text text-anchor="middle" x="117.26" y="-589.8" font-family="Times,serif" font-size="14.00">DTEL&#45;SXCO_CDS_OBJECT_NAME</text>
</a>
</g>
</g>
<!-- INTF&#45;IF_XCO_CP_GEN_DDLX_D_O_PUT_SCT&#45;&gt;DTEL&#45;SXCO_CDS_OBJECT_NAME -->
<g id="edge1" class="edge">
<title>INTF&#45;IF_XCO_CP_GEN_DDLX_D_O_PUT_SCT&#45;&gt;DTEL&#45;SXCO_CDS_OBJECT_NAME</title>
<path fill="none" stroke="black" d="M307.06,-791.92C294.83,-781.81 279.33,-768.56 266.26,-756 218.43,-710.01 166.68,-652.05 138.51,-619.71"/>
<polygon fill="black" stroke="black" points="141.07,-617.32 131.87,-612.06 135.79,-621.91 141.07,-617.32"/>
</g>
<!-- INTF&#45;IF_XCO_CP_GEN_DDLX_S_FORM -->
<g id="node3" class="node">
<title>INTF&#45;IF_XCO_CP_GEN_DDLX_S_FORM</title>
<g id="a_node3"><a xlink:href="./INTF_IF_XCO_CP_GEN_DDLX_S_FORM.html" xlink:title="INTF&#45;IF_XCO_CP_GEN_DDLX_S_FORM">
<polygon fill="none" stroke="green" points="769.23,-684 501.3,-684 501.3,-648 769.23,-648 769.23,-684"/>
<text text-anchor="middle" x="635.26" y="-661.8" font-family="Times,serif" font-size="14.00">INTF&#45;IF_XCO_CP_GEN_DDLX_S_FORM</text>
</a>
</g>
</g>
<!-- INTF&#45;IF_XCO_CP_GEN_DDLX_D_O_PUT_OBJ&#45;&gt;INTF&#45;IF_XCO_CP_GEN_DDLX_S_FORM -->
<g id="edge5" class="edge">
<title>INTF&#45;IF_XCO_CP_GEN_DDLX_D_O_PUT_OBJ&#45;&gt;INTF&#45;IF_XCO_CP_GEN_DDLX_S_FORM</title>
<path fill="none" stroke="black" d="M478.63,-719.97C507.68,-710.14 544.39,-697.73 574.97,-687.39"/>
<polygon fill="black" stroke="black" points="576.31,-690.63 584.66,-684.11 574.07,-684 576.31,-690.63"/>
</g>
<!-- INTF&#45;IF_XCO_CP_GEN_DDLX_D_O_PUT_OBJ&#45;&gt;DTEL&#45;SXCO_CDS_OBJECT_NAME -->
<g id="edge3" class="edge">
<title>INTF&#45;IF_XCO_CP_GEN_DDLX_D_O_PUT_OBJ&#45;&gt;DTEL&#45;SXCO_CDS_OBJECT_NAME</title>
<path fill="none" stroke="black" d="M396.58,-719.84C361.68,-701.21 303.67,-671.03 252.26,-648 226.7,-636.55 197.87,-625.04 173.43,-615.69"/>
<polygon fill="black" stroke="black" points="174.54,-612.37 163.94,-612.09 172.05,-618.91 174.54,-612.37"/>
</g>
<!-- DTEL&#45;SXCO_PACKAGE -->
<g id="node27" class="node">
<title>DTEL&#45;SXCO_PACKAGE</title>
<g id="a_node27"><a xlink:href="./DTEL_SXCO_PACKAGE.html" xlink:title="DTEL&#45;SXCO_PACKAGE">
<polygon fill="none" stroke="green" points="1297.62,-684 1130.91,-684 1130.91,-648 1297.62,-648 1297.62,-684"/>
<text text-anchor="middle" x="1214.26" y="-661.8" font-family="Times,serif" font-size="14.00">DTEL&#45;SXCO_PACKAGE</text>
</a>
</g>
</g>
<!-- INTF&#45;IF_XCO_CP_GEN_DDLX_D_O_PUT_OBJ&#45;&gt;DTEL&#45;SXCO_PACKAGE -->
<g id="edge4" class="edge">
<title>INTF&#45;IF_XCO_CP_GEN_DDLX_D_O_PUT_OBJ&#45;&gt;DTEL&#45;SXCO_PACKAGE</title>
<path fill="none" stroke="black" d="M581.68,-723.34C741.69,-709.09 987.4,-687.2 1120.6,-675.34"/>
<polygon fill="black" stroke="black" points="1121.13,-678.81 1130.78,-674.44 1120.5,-671.84 1121.13,-678.81"/>
</g>
<!-- INTF&#45;IF_XCO_GEN_DDLX_S_FO_FIELD -->
<g id="node4" class="node">
<title>INTF&#45;IF_XCO_GEN_DDLX_S_FO_FIELD</title>
<g id="a_node4"><a xlink:href="./INTF_IF_XCO_GEN_DDLX_S_FO_FIELD.html" xlink:title="INTF&#45;IF_XCO_GEN_DDLX_S_FO_FIELD">
<polygon fill="none" stroke="green" points="769.48,-612 501.04,-612 501.04,-576 769.48,-576 769.48,-612"/>
<text text-anchor="middle" x="635.26" y="-589.8" font-family="Times,serif" font-size="14.00">INTF&#45;IF_XCO_GEN_DDLX_S_FO_FIELD</text>
</a>
</g>
</g>
<!-- INTF&#45;IF_XCO_CP_GEN_DDLX_S_FORM&#45;&gt;INTF&#45;IF_XCO_GEN_DDLX_S_FO_FIELD -->
<g id="edge13" class="edge">
<title>INTF&#45;IF_XCO_CP_GEN_DDLX_S_FORM&#45;&gt;INTF&#45;IF_XCO_GEN_DDLX_S_FO_FIELD</title>
<path fill="none" stroke="black" d="M635.26,-647.7C635.26,-639.98 635.26,-630.71 635.26,-622.11"/>
<polygon fill="black" stroke="black" points="638.76,-622.1 635.26,-612.1 631.76,-622.1 638.76,-622.1"/>
</g>
<!-- INTF&#45;IF_XCO_GEN_CDS_S_FO_ANN_TARGET -->
<g id="node5" class="node">
<title>INTF&#45;IF_XCO_GEN_CDS_S_FO_ANN_TARGET</title>
<g id="a_node5"><a xlink:href="./INTF_IF_XCO_GEN_CDS_S_FO_ANN_TARGET.html" xlink:title="INTF&#45;IF_XCO_GEN_CDS_S_FO_ANN_TARGET">
<polygon fill="none" stroke="green" points="1196.21,-540 886.31,-540 886.31,-504 1196.21,-504 1196.21,-540"/>
<text text-anchor="middle" x="1041.26" y="-517.8" font-family="Times,serif" font-size="14.00">INTF&#45;IF_XCO_GEN_CDS_S_FO_ANN_TARGET</text>
</a>
</g>
</g>
<!-- INTF&#45;IF_XCO_CP_GEN_DDLX_S_FORM&#45;&gt;INTF&#45;IF_XCO_GEN_CDS_S_FO_ANN_TARGET -->
<g id="edge10" class="edge">
<title>INTF&#45;IF_XCO_CP_GEN_DDLX_S_FORM&#45;&gt;INTF&#45;IF_XCO_GEN_CDS_S_FO_ANN_TARGET</title>
<path fill="none" stroke="black" d="M769.4,-660.29C912.86,-653.83 1123.24,-639.74 1148.26,-612 1158.98,-600.12 1156.7,-589.59 1148.26,-576 1139.88,-562.49 1126.91,-552.32 1112.86,-544.7"/>
<polygon fill="black" stroke="black" points="1114.03,-541.37 1103.51,-540.05 1110.91,-547.63 1114.03,-541.37"/>
</g>
<!-- DTEL&#45;SXCO_CDS_FIELD_NAME -->
<g id="node19" class="node">
<title>DTEL&#45;SXCO_CDS_FIELD_NAME</title>
<g id="a_node19"><a xlink:href="./DTEL_SXCO_CDS_FIELD_NAME.html" xlink:title="DTEL&#45;SXCO_CDS_FIELD_NAME">
<polygon fill="none" stroke="green" points="543.61,-540 320.91,-540 320.91,-504 543.61,-504 543.61,-540"/>
<text text-anchor="middle" x="432.26" y="-517.8" font-family="Times,serif" font-size="14.00">DTEL&#45;SXCO_CDS_FIELD_NAME</text>
</a>
</g>
</g>
<!-- INTF&#45;IF_XCO_CP_GEN_DDLX_S_FORM&#45;&gt;DTEL&#45;SXCO_CDS_FIELD_NAME -->
<g id="edge9" class="edge">
<title>INTF&#45;IF_XCO_CP_GEN_DDLX_S_FORM&#45;&gt;DTEL&#45;SXCO_CDS_FIELD_NAME</title>
<path fill="none" stroke="black" d="M501.04,-662.54C413.23,-657.76 309.7,-645.02 281.26,-612 254.46,-580.89 297.88,-557.84 344.93,-543.01"/>
<polygon fill="black" stroke="black" points="346.13,-546.3 354.68,-540.06 344.1,-539.6 346.13,-546.3"/>
</g>
<!-- INTF&#45;IF_XCO_GEN_DDLX_S_FO_PARAMETER -->
<g id="node21" class="node">
<title>INTF&#45;IF_XCO_GEN_DDLX_S_FO_PARAMETER</title>
<g id="a_node21"><a xlink:href="./INTF_IF_XCO_GEN_DDLX_S_FO_PARAMETER.html" xlink:title="INTF&#45;IF_XCO_GEN_DDLX_S_FO_PARAMETER">
<polygon fill="none" stroke="green" points="1139.1,-612 825.42,-612 825.42,-576 1139.1,-576 1139.1,-612"/>
<text text-anchor="middle" x="982.26" y="-589.8" font-family="Times,serif" font-size="14.00">INTF&#45;IF_XCO_GEN_DDLX_S_FO_PARAMETER</text>
</a>
</g>
</g>
<!-- INTF&#45;IF_XCO_CP_GEN_DDLX_S_FORM&#45;&gt;INTF&#45;IF_XCO_GEN_DDLX_S_FO_PARAMETER -->
<g id="edge12" class="edge">
<title>INTF&#45;IF_XCO_CP_GEN_DDLX_S_FORM&#45;&gt;INTF&#45;IF_XCO_GEN_DDLX_S_FO_PARAMETER</title>
<path fill="none" stroke="black" d="M719.7,-647.97C770.49,-637.72 835.26,-624.66 887.75,-614.07"/>
<polygon fill="black" stroke="black" points="888.63,-617.46 897.74,-612.05 887.25,-610.6 888.63,-617.46"/>
</g>
<!-- DTEL&#45;SXCO_CDS_PARAMETER_NAME -->
<g id="node22" class="node">
<title>DTEL&#45;SXCO_CDS_PARAMETER_NAME</title>
<g id="a_node22"><a xlink:href="./DTEL_SXCO_CDS_PARAMETER_NAME.html" xlink:title="DTEL&#45;SXCO_CDS_PARAMETER_NAME">
<polygon fill="none" stroke="green" points="868.23,-540 600.3,-540 600.3,-504 868.23,-504 868.23,-540"/>
<text text-anchor="middle" x="734.26" y="-517.8" font-family="Times,serif" font-size="14.00">DTEL&#45;SXCO_CDS_PARAMETER_NAME</text>
</a>
</g>
</g>
<!-- INTF&#45;IF_XCO_CP_GEN_DDLX_S_FORM&#45;&gt;DTEL&#45;SXCO_CDS_PARAMETER_NAME -->
<g id="edge8" class="edge">
<title>INTF&#45;IF_XCO_CP_GEN_DDLX_S_FORM&#45;&gt;DTEL&#45;SXCO_CDS_PARAMETER_NAME</title>
<path fill="none" stroke="black" d="M730.52,-647.89C749.27,-640.05 766.69,-628.63 778.26,-612 792.39,-591.7 776.85,-566.19 760.47,-547.69"/>
<polygon fill="black" stroke="black" points="762.87,-545.14 753.48,-540.23 757.76,-549.92 762.87,-545.14"/>
</g>
<!-- CLAS&#45;CL_XCO_ME_LAYER -->
<g id="node23" class="node">
<title>CLAS&#45;CL_XCO_ME_LAYER</title>
<g id="a_node23"><a xlink:href="./CLAS_CL_XCO_ME_LAYER.html" xlink:title="CLAS&#45;CL_XCO_ME_LAYER">
<polygon fill="none" stroke="green" points="482.29,-612 290.23,-612 290.23,-576 482.29,-576 482.29,-612"/>
<text text-anchor="middle" x="386.26" y="-589.8" font-family="Times,serif" font-size="14.00">CLAS&#45;CL_XCO_ME_LAYER</text>
</a>
</g>
</g>
<!-- INTF&#45;IF_XCO_CP_GEN_DDLX_S_FORM&#45;&gt;CLAS&#45;CL_XCO_ME_LAYER -->
<g id="edge11" class="edge">
<title>INTF&#45;IF_XCO_CP_GEN_DDLX_S_FORM&#45;&gt;CLAS&#45;CL_XCO_ME_LAYER</title>
<path fill="none" stroke="black" d="M574.67,-647.97C539.12,-637.97 494.04,-625.3 456.88,-614.85"/>
<polygon fill="black" stroke="black" points="457.7,-611.45 447.13,-612.11 455.81,-618.19 457.7,-611.45"/>
</g>
<!-- INTF&#45;IF_XCO_CP_GEN_DDLX_S_FORM&#45;&gt;DTEL&#45;SXCO_CDS_OBJECT_NAME -->
<g id="edge7" class="edge">
<title>INTF&#45;IF_XCO_CP_GEN_DDLX_S_FORM&#45;&gt;DTEL&#45;SXCO_CDS_OBJECT_NAME</title>
<path fill="none" stroke="black" d="M509.21,-647.97C428.94,-637.12 325.29,-623.11 244.75,-612.23"/>
<polygon fill="black" stroke="black" points="244.92,-608.72 234.55,-610.85 243.99,-615.66 244.92,-608.72"/>
</g>
<!-- DTEL&#45;SXCO_CDS_SHORT_DESCRIPTION -->
<g id="node25" class="node">
<title>DTEL&#45;SXCO_CDS_SHORT_DESCRIPTION</title>
<g id="a_node25"><a xlink:href="./DTEL_SXCO_CDS_SHORT_DESCRIPTION.html" xlink:title="DTEL&#45;SXCO_CDS_SHORT_DESCRIPTION">
<polygon fill="none" stroke="yellow" points="1473.61,-612 1194.91,-612 1194.91,-576 1473.61,-576 1473.61,-612"/>
<text text-anchor="middle" x="1334.26" y="-589.8" font-family="Times,serif" font-size="14.00">DTEL&#45;SXCO_CDS_SHORT_DESCRIPTION</text>
</a>
</g>
</g>
<!-- INTF&#45;IF_XCO_CP_GEN_DDLX_S_FORM&#45;&gt;DTEL&#45;SXCO_CDS_SHORT_DESCRIPTION -->
<g id="edge6" class="edge">
<title>INTF&#45;IF_XCO_CP_GEN_DDLX_S_FORM&#45;&gt;DTEL&#45;SXCO_CDS_SHORT_DESCRIPTION</title>
<path fill="none" stroke="black" d="M769.38,-652.5C879.94,-642.08 1040.83,-626.62 1181.26,-612 1182.36,-611.89 1183.46,-611.77 1184.56,-611.66"/>
<polygon fill="black" stroke="black" points="1185.02,-615.13 1194.6,-610.6 1184.29,-608.16 1185.02,-615.13"/>
</g>
<!-- INTF&#45;IF_XCO_GEN_DDLX_S_FO_FIELD&#45;&gt;INTF&#45;IF_XCO_GEN_CDS_S_FO_ANN_TARGET -->
<g id="edge15" class="edge">
<title>INTF&#45;IF_XCO_GEN_DDLX_S_FO_FIELD&#45;&gt;INTF&#45;IF_XCO_GEN_CDS_S_FO_ANN_TARGET</title>
<path fill="none" stroke="black" d="M734.06,-575.97C793.98,-565.63 870.52,-552.44 932.21,-541.8"/>
<polygon fill="black" stroke="black" points="933.11,-545.2 942.37,-540.05 931.92,-538.3 933.11,-545.2"/>
</g>
<!-- INTF&#45;IF_XCO_GEN_DDLX_S_FO_FIELD&#45;&gt;DTEL&#45;SXCO_CDS_FIELD_NAME -->
<g id="edge14" class="edge">
<title>INTF&#45;IF_XCO_GEN_DDLX_S_FO_FIELD&#45;&gt;DTEL&#45;SXCO_CDS_FIELD_NAME</title>
<path fill="none" stroke="black" d="M585.86,-575.97C557.37,-566.14 521.38,-553.73 491.39,-543.39"/>
<polygon fill="black" stroke="black" points="492.48,-540.06 481.88,-540.11 490.2,-546.68 492.48,-540.06"/>
</g>
<!-- INTF&#45;IF_XCO_GEN_CDS_S_FO_ANNOTATION -->
<g id="node6" class="node">
<title>INTF&#45;IF_XCO_GEN_CDS_S_FO_ANNOTATION</title>
<g id="a_node6"><a xlink:href="./INTF_IF_XCO_GEN_CDS_S_FO_ANNOTATION.html" xlink:title="INTF&#45;IF_XCO_GEN_CDS_S_FO_ANNOTATION">
<polygon fill="none" stroke="green" points="1104.19,-468 794.33,-468 794.33,-432 1104.19,-432 1104.19,-468"/>
<text text-anchor="middle" x="949.26" y="-445.8" font-family="Times,serif" font-size="14.00">INTF&#45;IF_XCO_GEN_CDS_S_FO_ANNOTATION</text>
</a>
</g>
</g>
<!-- INTF&#45;IF_XCO_GEN_CDS_S_FO_ANN_TARGET&#45;&gt;INTF&#45;IF_XCO_GEN_CDS_S_FO_ANNOTATION -->
<g id="edge17" class="edge">
<title>INTF&#45;IF_XCO_GEN_CDS_S_FO_ANN_TARGET&#45;&gt;INTF&#45;IF_XCO_GEN_CDS_S_FO_ANNOTATION</title>
<path fill="none" stroke="black" d="M1018.52,-503.7C1006.82,-494.8 992.4,-483.82 979.75,-474.2"/>
<polygon fill="black" stroke="black" points="981.82,-471.37 971.74,-468.1 977.58,-476.94 981.82,-471.37"/>
</g>
<!-- DTEL&#45;SXCO_CDS_ANN_PROPERTY -->
<g id="node17" class="node">
<title>DTEL&#45;SXCO_CDS_ANN_PROPERTY</title>
<g id="a_node17"><a xlink:href="./DTEL_SXCO_CDS_ANN_PROPERTY.html" xlink:title="DTEL&#45;SXCO_CDS_ANN_PROPERTY">
<polygon fill="none" stroke="green" points="1254.12,-396 1010.4,-396 1010.4,-360 1254.12,-360 1254.12,-396"/>
<text text-anchor="middle" x="1132.26" y="-373.8" font-family="Times,serif" font-size="14.00">DTEL&#45;SXCO_CDS_ANN_PROPERTY</text>
</a>
</g>
</g>
<!-- INTF&#45;IF_XCO_GEN_CDS_S_FO_ANN_TARGET&#45;&gt;DTEL&#45;SXCO_CDS_ANN_PROPERTY -->
<g id="edge16" class="edge">
<title>INTF&#45;IF_XCO_GEN_CDS_S_FO_ANN_TARGET&#45;&gt;DTEL&#45;SXCO_CDS_ANN_PROPERTY</title>
<path fill="none" stroke="black" d="M1074.29,-503.89C1088.34,-495 1103.66,-482.87 1113.26,-468 1125.15,-449.58 1129.74,-424.98 1131.44,-406.31"/>
<polygon fill="black" stroke="black" points="1134.95,-406.31 1132.14,-396.1 1127.96,-405.83 1134.95,-406.31"/>
</g>
<!-- INTF&#45;IF_XCO_GEN_CDS_S_FO_ANN_VALUE -->
<g id="node7" class="node">
<title>INTF&#45;IF_XCO_GEN_CDS_S_FO_ANN_VALUE</title>
<g id="a_node7"><a xlink:href="./INTF_IF_XCO_GEN_CDS_S_FO_ANN_VALUE.html" xlink:title="INTF&#45;IF_XCO_GEN_CDS_S_FO_ANN_VALUE">
<polygon fill="none" stroke="green" points="992.43,-396 690.1,-396 690.1,-360 992.43,-360 992.43,-396"/>
<text text-anchor="middle" x="841.26" y="-373.8" font-family="Times,serif" font-size="14.00">INTF&#45;IF_XCO_GEN_CDS_S_FO_ANN_VALUE</text>
</a>
</g>
</g>
<!-- INTF&#45;IF_XCO_GEN_CDS_S_FO_ANNOTATION&#45;&gt;INTF&#45;IF_XCO_GEN_CDS_S_FO_ANN_VALUE -->
<g id="edge19" class="edge">
<title>INTF&#45;IF_XCO_GEN_CDS_S_FO_ANNOTATION&#45;&gt;INTF&#45;IF_XCO_GEN_CDS_S_FO_ANN_VALUE</title>
<path fill="none" stroke="black" d="M922.84,-431.88C908.85,-422.81 891.49,-411.55 876.38,-401.76"/>
<polygon fill="black" stroke="black" points="878.08,-398.69 867.78,-396.19 874.27,-404.57 878.08,-398.69"/>
</g>
<!-- INTF&#45;IF_XCO_GEN_CDS_S_FO_ANNOTATION&#45;&gt;DTEL&#45;SXCO_CDS_ANN_PROPERTY -->
<g id="edge18" class="edge">
<title>INTF&#45;IF_XCO_GEN_CDS_S_FO_ANNOTATION&#45;&gt;DTEL&#45;SXCO_CDS_ANN_PROPERTY</title>
<path fill="none" stroke="black" d="M994.03,-431.88C1019.38,-422.18 1051.27,-409.98 1078.03,-399.74"/>
<polygon fill="black" stroke="black" points="1079.55,-402.91 1087.64,-396.07 1077.05,-396.37 1079.55,-402.91"/>
</g>
<!-- INTF&#45;IF_XCO_GEN_CDS_S_FO_ANN_V_BLDR -->
<g id="node8" class="node">
<title>INTF&#45;IF_XCO_GEN_CDS_S_FO_ANN_V_BLDR</title>
<g id="a_node8"><a xlink:href="./INTF_IF_XCO_GEN_CDS_S_FO_ANN_V_BLDR.html" xlink:title="INTF&#45;IF_XCO_GEN_CDS_S_FO_ANN_V_BLDR">
<polygon fill="none" stroke="green" points="1001.94,-324 692.58,-324 692.58,-288 1001.94,-288 1001.94,-324"/>
<text text-anchor="middle" x="847.26" y="-301.8" font-family="Times,serif" font-size="14.00">INTF&#45;IF_XCO_GEN_CDS_S_FO_ANN_V_BLDR</text>
</a>
</g>
</g>
<!-- INTF&#45;IF_XCO_GEN_CDS_S_FO_ANN_VALUE&#45;&gt;INTF&#45;IF_XCO_GEN_CDS_S_FO_ANN_V_BLDR -->
<g id="edge21" class="edge">
<title>INTF&#45;IF_XCO_GEN_CDS_S_FO_ANN_VALUE&#45;&gt;INTF&#45;IF_XCO_GEN_CDS_S_FO_ANN_V_BLDR</title>
<path fill="none" stroke="black" d="M842.74,-359.7C843.41,-351.98 844.2,-342.71 844.94,-334.11"/>
<polygon fill="black" stroke="black" points="848.43,-334.37 845.8,-324.1 841.45,-333.77 848.43,-334.37"/>
</g>
<!-- INTF&#45;IF_XCO_CDS_ANN_VALUE -->
<g id="node9" class="node">
<title>INTF&#45;IF_XCO_CDS_ANN_VALUE</title>
<g id="a_node9"><a xlink:href="./INTF_IF_XCO_CDS_ANN_VALUE.html" xlink:title="INTF&#45;IF_XCO_CDS_ANN_VALUE">
<polygon fill="none" stroke="green" points="868.49,-252 642.03,-252 642.03,-216 868.49,-216 868.49,-252"/>
<text text-anchor="middle" x="755.26" y="-229.8" font-family="Times,serif" font-size="14.00">INTF&#45;IF_XCO_CDS_ANN_VALUE</text>
</a>
</g>
</g>
<!-- INTF&#45;IF_XCO_GEN_CDS_S_FO_ANN_VALUE&#45;&gt;INTF&#45;IF_XCO_CDS_ANN_VALUE -->
<g id="edge20" class="edge">
<title>INTF&#45;IF_XCO_GEN_CDS_S_FO_ANN_VALUE&#45;&gt;INTF&#45;IF_XCO_CDS_ANN_VALUE</title>
<path fill="none" stroke="black" d="M731.37,-359.93C712.51,-352.02 695.17,-340.56 683.26,-324 673.92,-311.01 676.04,-302.28 683.26,-288 689.4,-275.86 699.78,-265.82 710.77,-257.86"/>
<polygon fill="black" stroke="black" points="712.88,-260.66 719.24,-252.19 708.98,-254.85 712.88,-260.66"/>
</g>
<!-- INTF&#45;IF_XCO_GEN_CDS_S_FO_ANN_V_BLDR&#45;&gt;INTF&#45;IF_XCO_CDS_ANN_VALUE -->
<g id="edge22" class="edge">
<title>INTF&#45;IF_XCO_GEN_CDS_S_FO_ANN_V_BLDR&#45;&gt;INTF&#45;IF_XCO_CDS_ANN_VALUE</title>
<path fill="none" stroke="black" d="M824.52,-287.7C812.82,-278.8 798.4,-267.82 785.75,-258.2"/>
<polygon fill="black" stroke="black" points="787.82,-255.37 777.74,-252.1 783.58,-260.94 787.82,-255.37"/>
</g>
<!-- INTF&#45;IF_XCO_CDS_ANN_VT_VISITOR -->
<g id="node10" class="node">
<title>INTF&#45;IF_XCO_CDS_ANN_VT_VISITOR</title>
<g id="a_node10"><a xlink:href="./INTF_IF_XCO_CDS_ANN_VT_VISITOR.html" xlink:title="INTF&#45;IF_XCO_CDS_ANN_VT_VISITOR">
<polygon fill="none" stroke="green" points="885.43,-180 625.09,-180 625.09,-144 885.43,-144 885.43,-180"/>
<text text-anchor="middle" x="755.26" y="-157.8" font-family="Times,serif" font-size="14.00">INTF&#45;IF_XCO_CDS_ANN_VT_VISITOR</text>
</a>
</g>
</g>
<!-- INTF&#45;IF_XCO_CDS_ANN_VALUE&#45;&gt;INTF&#45;IF_XCO_CDS_ANN_VT_VISITOR -->
<g id="edge23" class="edge">
<title>INTF&#45;IF_XCO_CDS_ANN_VALUE&#45;&gt;INTF&#45;IF_XCO_CDS_ANN_VT_VISITOR</title>
<path fill="none" stroke="black" d="M755.26,-215.7C755.26,-207.98 755.26,-198.71 755.26,-190.11"/>
<polygon fill="black" stroke="black" points="758.76,-190.1 755.26,-180.1 751.76,-190.1 758.76,-190.1"/>
</g>
<!-- INTF&#45;IF_XCO_CDS_ANN_VAL_P_NULL -->
<g id="node11" class="node">
<title>INTF&#45;IF_XCO_CDS_ANN_VAL_P_NULL</title>
<g id="a_node11"><a xlink:href="./INTF_IF_XCO_CDS_ANN_VAL_P_NULL.html" xlink:title="INTF&#45;IF_XCO_CDS_ANN_VAL_P_NULL">
<polygon fill="none" stroke="green" points="277.93,-108 10.59,-108 10.59,-72 277.93,-72 277.93,-108"/>
<text text-anchor="middle" x="144.26" y="-85.8" font-family="Times,serif" font-size="14.00">INTF&#45;IF_XCO_CDS_ANN_VAL_P_NULL</text>
</a>
</g>
</g>
<!-- INTF&#45;IF_XCO_CDS_ANN_VT_VISITOR&#45;&gt;INTF&#45;IF_XCO_CDS_ANN_VAL_P_NULL -->
<g id="edge28" class="edge">
<title>INTF&#45;IF_XCO_CDS_ANN_VT_VISITOR&#45;&gt;INTF&#45;IF_XCO_CDS_ANN_VAL_P_NULL</title>
<path fill="none" stroke="black" d="M625.12,-146.46C533.77,-136.2 408.45,-122.04 287.99,-108.08"/>
<polygon fill="black" stroke="black" points="288.18,-104.58 277.85,-106.9 287.38,-111.53 288.18,-104.58"/>
</g>
<!-- INTF&#45;IF_XCO_CDS_ANN_VAL_P_BOOLEAN -->
<g id="node13" class="node">
<title>INTF&#45;IF_XCO_CDS_ANN_VAL_P_BOOLEAN</title>
<g id="a_node13"><a xlink:href="./INTF_IF_XCO_CDS_ANN_VAL_P_BOOLEAN.html" xlink:title="INTF&#45;IF_XCO_CDS_ANN_VAL_P_BOOLEAN">
<polygon fill="none" stroke="green" points="592.48,-108 296.04,-108 296.04,-72 592.48,-72 592.48,-108"/>
<text text-anchor="middle" x="444.26" y="-85.8" font-family="Times,serif" font-size="14.00">INTF&#45;IF_XCO_CDS_ANN_VAL_P_BOOLEAN</text>
</a>
</g>
</g>
<!-- INTF&#45;IF_XCO_CDS_ANN_VT_VISITOR&#45;&gt;INTF&#45;IF_XCO_CDS_ANN_VAL_P_BOOLEAN -->
<g id="edge27" class="edge">
<title>INTF&#45;IF_XCO_CDS_ANN_VT_VISITOR&#45;&gt;INTF&#45;IF_XCO_CDS_ANN_VAL_P_BOOLEAN</title>
<path fill="none" stroke="black" d="M679.58,-143.97C634.34,-133.78 576.74,-120.82 529.85,-110.26"/>
<polygon fill="black" stroke="black" points="530.54,-106.83 520.01,-108.05 529,-113.66 530.54,-106.83"/>
</g>
<!-- INTF&#45;IF_XCO_CDS_ANN_VAL_P_NUMBER -->
<g id="node14" class="node">
<title>INTF&#45;IF_XCO_CDS_ANN_VAL_P_NUMBER</title>
<g id="a_node14"><a xlink:href="./INTF_IF_XCO_CDS_ANN_VAL_P_NUMBER.html" xlink:title="INTF&#45;IF_XCO_CDS_ANN_VAL_P_NUMBER">
<polygon fill="none" stroke="green" points="900,-108 610.53,-108 610.53,-72 900,-72 900,-108"/>
<text text-anchor="middle" x="755.26" y="-85.8" font-family="Times,serif" font-size="14.00">INTF&#45;IF_XCO_CDS_ANN_VAL_P_NUMBER</text>
</a>
</g>
</g>
<!-- INTF&#45;IF_XCO_CDS_ANN_VT_VISITOR&#45;&gt;INTF&#45;IF_XCO_CDS_ANN_VAL_P_NUMBER -->
<g id="edge26" class="edge">
<title>INTF&#45;IF_XCO_CDS_ANN_VT_VISITOR&#45;&gt;INTF&#45;IF_XCO_CDS_ANN_VAL_P_NUMBER</title>
<path fill="none" stroke="black" d="M755.26,-143.7C755.26,-135.98 755.26,-126.71 755.26,-118.11"/>
<polygon fill="black" stroke="black" points="758.76,-118.1 755.26,-108.1 751.76,-118.1 758.76,-118.1"/>
</g>
<!-- INTF&#45;IF_XCO_CDS_ANN_VAL_P_ENUM -->
<g id="node15" class="node">
<title>INTF&#45;IF_XCO_CDS_ANN_VAL_P_ENUM</title>
<g id="a_node15"><a xlink:href="./INTF_IF_XCO_CDS_ANN_VAL_P_ENUM.html" xlink:title="INTF&#45;IF_XCO_CDS_ANN_VAL_P_ENUM">
<polygon fill="none" stroke="green" points="1188.82,-108 917.7,-108 917.7,-72 1188.82,-72 1188.82,-108"/>
<text text-anchor="middle" x="1053.26" y="-85.8" font-family="Times,serif" font-size="14.00">INTF&#45;IF_XCO_CDS_ANN_VAL_P_ENUM</text>
</a>
</g>
</g>
<!-- INTF&#45;IF_XCO_CDS_ANN_VT_VISITOR&#45;&gt;INTF&#45;IF_XCO_CDS_ANN_VAL_P_ENUM -->
<g id="edge25" class="edge">
<title>INTF&#45;IF_XCO_CDS_ANN_VT_VISITOR&#45;&gt;INTF&#45;IF_XCO_CDS_ANN_VAL_P_ENUM</title>
<path fill="none" stroke="black" d="M827.78,-143.97C870.95,-133.83 925.86,-120.93 970.69,-110.4"/>
<polygon fill="black" stroke="black" points="971.74,-113.74 980.68,-108.05 970.14,-106.93 971.74,-113.74"/>
</g>
<!-- INTF&#45;IF_XCO_CDS_ANN_VAL_P_STRING -->
<g id="node16" class="node">
<title>INTF&#45;IF_XCO_CDS_ANN_VAL_P_STRING</title>
<g id="a_node16"><a xlink:href="./INTF_IF_XCO_CDS_ANN_VAL_P_STRING.html" xlink:title="INTF&#45;IF_XCO_CDS_ANN_VAL_P_STRING">
<polygon fill="none" stroke="green" points="1487.66,-108 1206.87,-108 1206.87,-72 1487.66,-72 1487.66,-108"/>
<text text-anchor="middle" x="1347.26" y="-85.8" font-family="Times,serif" font-size="14.00">INTF&#45;IF_XCO_CDS_ANN_VAL_P_STRING</text>
</a>
</g>
</g>
<!-- INTF&#45;IF_XCO_CDS_ANN_VT_VISITOR&#45;&gt;INTF&#45;IF_XCO_CDS_ANN_VAL_P_STRING -->
<g id="edge24" class="edge">
<title>INTF&#45;IF_XCO_CDS_ANN_VT_VISITOR&#45;&gt;INTF&#45;IF_XCO_CDS_ANN_VAL_P_STRING</title>
<path fill="none" stroke="black" d="M885.54,-145.59C977.44,-134.73 1100.79,-120.14 1196.87,-108.78"/>
<polygon fill="black" stroke="black" points="1197.44,-112.24 1206.96,-107.59 1196.62,-105.29 1197.44,-112.24"/>
</g>
<!-- INTF&#45;IF_XCO_CDS_ANN_VAL_PRIMITIVE -->
<g id="node12" class="node">
<title>INTF&#45;IF_XCO_CDS_ANN_VAL_PRIMITIVE</title>
<g id="a_node12"><a xlink:href="./INTF_IF_XCO_CDS_ANN_VAL_PRIMITIVE.html" xlink:title="INTF&#45;IF_XCO_CDS_ANN_VAL_PRIMITIVE">
<polygon fill="none" stroke="green" points="898.09,-36 612.44,-36 612.44,0 898.09,0 898.09,-36"/>
<text text-anchor="middle" x="755.26" y="-13.8" font-family="Times,serif" font-size="14.00">INTF&#45;IF_XCO_CDS_ANN_VAL_PRIMITIVE</text>
</a>
</g>
</g>
<!-- INTF&#45;IF_XCO_CDS_ANN_VAL_P_NULL&#45;&gt;INTF&#45;IF_XCO_CDS_ANN_VAL_PRIMITIVE -->
<g id="edge29" class="edge">
<title>INTF&#45;IF_XCO_CDS_ANN_VAL_P_NULL&#45;&gt;INTF&#45;IF_XCO_CDS_ANN_VAL_PRIMITIVE</title>
<path fill="none" stroke="black" d="M277.85,-73.1C281.02,-72.73 284.16,-72.36 287.26,-72 392.36,-59.8 510.79,-46.39 602.21,-36.12"/>
<polygon fill="black" stroke="black" points="602.83,-39.57 612.38,-34.97 602.05,-32.61 602.83,-39.57"/>
</g>
<!-- INTF&#45;IF_XCO_CDS_ANN_VAL_P_BOOLEAN&#45;&gt;INTF&#45;IF_XCO_CDS_ANN_VAL_PRIMITIVE -->
<g id="edge30" class="edge">
<title>INTF&#45;IF_XCO_CDS_ANN_VAL_P_BOOLEAN&#45;&gt;INTF&#45;IF_XCO_CDS_ANN_VAL_PRIMITIVE</title>
<path fill="none" stroke="black" d="M519.94,-71.97C565.18,-61.78 622.78,-48.82 669.68,-38.26"/>
<polygon fill="black" stroke="black" points="670.52,-41.66 679.51,-36.05 668.99,-34.83 670.52,-41.66"/>
</g>
<!-- INTF&#45;IF_XCO_CDS_ANN_VAL_P_NUMBER&#45;&gt;INTF&#45;IF_XCO_CDS_ANN_VAL_PRIMITIVE -->
<g id="edge31" class="edge">
<title>INTF&#45;IF_XCO_CDS_ANN_VAL_P_NUMBER&#45;&gt;INTF&#45;IF_XCO_CDS_ANN_VAL_PRIMITIVE</title>
<path fill="none" stroke="black" d="M755.26,-71.7C755.26,-63.98 755.26,-54.71 755.26,-46.11"/>
<polygon fill="black" stroke="black" points="758.76,-46.1 755.26,-36.1 751.76,-46.1 758.76,-46.1"/>
</g>
<!-- INTF&#45;IF_XCO_CDS_ANN_VAL_P_ENUM&#45;&gt;INTF&#45;IF_XCO_CDS_ANN_VAL_PRIMITIVE -->
<g id="edge32" class="edge">
<title>INTF&#45;IF_XCO_CDS_ANN_VAL_P_ENUM&#45;&gt;INTF&#45;IF_XCO_CDS_ANN_VAL_PRIMITIVE</title>
<path fill="none" stroke="black" d="M980.74,-71.97C937.58,-61.83 882.66,-48.93 837.83,-38.4"/>
<polygon fill="black" stroke="black" points="838.38,-34.93 827.85,-36.05 836.78,-41.74 838.38,-34.93"/>
</g>
<!-- INTF&#45;IF_XCO_CDS_ANN_VAL_P_STRING&#45;&gt;INTF&#45;IF_XCO_CDS_ANN_VAL_PRIMITIVE -->
<g id="edge33" class="edge">
<title>INTF&#45;IF_XCO_CDS_ANN_VAL_P_STRING&#45;&gt;INTF&#45;IF_XCO_CDS_ANN_VAL_PRIMITIVE</title>
<path fill="none" stroke="black" d="M1206.97,-72.41C1117.07,-61.78 1000.39,-47.98 908.13,-37.08"/>
<polygon fill="black" stroke="black" points="908.49,-33.59 898.15,-35.9 907.67,-40.55 908.49,-33.59"/>
</g>
<!-- DOMA&#45;DDANNOTATION_KEY -->
<g id="node18" class="node">
<title>DOMA&#45;DDANNOTATION_KEY</title>
<g id="a_node18"><a xlink:href="./DOMA_DDANNOTATION_KEY.html" xlink:title="DOMA&#45;DDANNOTATION_KEY">
<polygon fill="none" stroke="yellow" points="1238.18,-324 1026.35,-324 1026.35,-288 1238.18,-288 1238.18,-324"/>
<text text-anchor="middle" x="1132.26" y="-301.8" font-family="Times,serif" font-size="14.00">DOMA&#45;DDANNOTATION_KEY</text>
</a>
</g>
</g>
<!-- DTEL&#45;SXCO_CDS_ANN_PROPERTY&#45;&gt;DOMA&#45;DDANNOTATION_KEY -->
<g id="edge34" class="edge">
<title>DTEL&#45;SXCO_CDS_ANN_PROPERTY&#45;&gt;DOMA&#45;DDANNOTATION_KEY</title>
<path fill="none" stroke="black" d="M1132.26,-359.7C1132.26,-351.98 1132.26,-342.71 1132.26,-334.11"/>
<polygon fill="black" stroke="black" points="1135.76,-334.1 1132.26,-324.1 1128.76,-334.1 1135.76,-334.1"/>
</g>
<!-- DOMA&#45;CHAR30 -->
<g id="node20" class="node">
<title>DOMA&#45;CHAR30</title>
<g id="a_node20"><a xlink:href="./DOMA_CHAR30.html" xlink:title="DOMA&#45;CHAR30">
<polygon fill="none" stroke="green" points="490.57,-468 373.95,-468 373.95,-432 490.57,-432 490.57,-468"/>
<text text-anchor="middle" x="432.26" y="-445.8" font-family="Times,serif" font-size="14.00">DOMA&#45;CHAR30</text>
</a>
</g>
</g>
<!-- DTEL&#45;SXCO_CDS_FIELD_NAME&#45;&gt;DOMA&#45;CHAR30 -->
<g id="edge35" class="edge">
<title>DTEL&#45;SXCO_CDS_FIELD_NAME&#45;&gt;DOMA&#45;CHAR30</title>
<path fill="none" stroke="black" d="M432.26,-503.7C432.26,-495.98 432.26,-486.71 432.26,-478.11"/>
<polygon fill="black" stroke="black" points="435.76,-478.1 432.26,-468.1 428.76,-478.1 435.76,-478.1"/>
</g>
<!-- INTF&#45;IF_XCO_GEN_DDLX_S_FO_PARAMETER&#45;&gt;INTF&#45;IF_XCO_GEN_CDS_S_FO_ANN_TARGET -->
<g id="edge37" class="edge">
<title>INTF&#45;IF_XCO_GEN_DDLX_S_FO_PARAMETER&#45;&gt;INTF&#45;IF_XCO_GEN_CDS_S_FO_ANN_TARGET</title>
<path fill="none" stroke="black" d="M996.85,-575.7C1003.92,-567.3 1012.55,-557.07 1020.31,-547.86"/>
<polygon fill="black" stroke="black" points="1023.08,-550.01 1026.85,-540.1 1017.72,-545.49 1023.08,-550.01"/>
</g>
<!-- INTF&#45;IF_XCO_GEN_DDLX_S_FO_PARAMETER&#45;&gt;DTEL&#45;SXCO_CDS_PARAMETER_NAME -->
<g id="edge36" class="edge">
<title>INTF&#45;IF_XCO_GEN_DDLX_S_FO_PARAMETER&#45;&gt;DTEL&#45;SXCO_CDS_PARAMETER_NAME</title>
<path fill="none" stroke="black" d="M921.91,-575.97C886.51,-565.97 841.6,-553.3 804.6,-542.85"/>
<polygon fill="black" stroke="black" points="805.46,-539.46 794.88,-540.11 803.56,-546.2 805.46,-539.46"/>
</g>
<!-- DTEL&#45;SXCO_CDS_PARAMETER_NAME&#45;&gt;DOMA&#45;CHAR30 -->
<g id="edge38" class="edge">
<title>DTEL&#45;SXCO_CDS_PARAMETER_NAME&#45;&gt;DOMA&#45;CHAR30</title>
<path fill="none" stroke="black" d="M660.77,-503.97C612.03,-492.67 548.52,-477.95 500.82,-466.89"/>
<polygon fill="black" stroke="black" points="501.43,-463.44 490.9,-464.59 499.85,-470.26 501.43,-463.44"/>
</g>
<!-- DTEL&#45;SXCO_CDS_OBJECT_NAME&#45;&gt;DOMA&#45;CHAR30 -->
<g id="edge39" class="edge">
<title>DTEL&#45;SXCO_CDS_OBJECT_NAME&#45;&gt;DOMA&#45;CHAR30</title>
<path fill="none" stroke="black" d="M154.22,-575.97C193.39,-557.95 257.1,-528.77 312.26,-504 335.79,-493.44 361.98,-481.85 383.88,-472.21"/>
<polygon fill="black" stroke="black" points="385.55,-475.3 393.3,-468.07 382.73,-468.89 385.55,-475.3"/>
</g>
<!-- DOMA&#45;DDTEXT -->
<g id="node26" class="node">
<title>DOMA&#45;DDTEXT</title>
<g id="a_node26"><a xlink:href="./DOMA_DDTEXT.html" xlink:title="DOMA&#45;DDTEXT">
<polygon fill="none" stroke="yellow" points="1394.16,-540 1274.36,-540 1274.36,-504 1394.16,-504 1394.16,-540"/>
<text text-anchor="middle" x="1334.26" y="-517.8" font-family="Times,serif" font-size="14.00">DOMA&#45;DDTEXT</text>
</a>
</g>
</g>
<!-- DTEL&#45;SXCO_CDS_SHORT_DESCRIPTION&#45;&gt;DOMA&#45;DDTEXT -->
<g id="edge40" class="edge">
<title>DTEL&#45;SXCO_CDS_SHORT_DESCRIPTION&#45;&gt;DOMA&#45;DDTEXT</title>
<path fill="none" stroke="black" d="M1334.26,-575.7C1334.26,-567.98 1334.26,-558.71 1334.26,-550.11"/>
<polygon fill="black" stroke="black" points="1337.76,-550.1 1334.26,-540.1 1330.76,-550.1 1337.76,-550.1"/>
</g>
<!-- DOMA&#45;DEVCLASS -->
<g id="node28" class="node">
<title>DOMA&#45;DEVCLASS</title>
<g id="a_node28"><a xlink:href="./DOMA_DEVCLASS.html" xlink:title="DOMA&#45;DEVCLASS">
<polygon fill="none" stroke="yellow" points="1627.01,-612 1491.51,-612 1491.51,-576 1627.01,-576 1627.01,-612"/>
<text text-anchor="middle" x="1559.26" y="-589.8" font-family="Times,serif" font-size="14.00">DOMA&#45;DEVCLASS</text>
</a>
</g>
</g>
<!-- DTEL&#45;SXCO_PACKAGE&#45;&gt;DOMA&#45;DEVCLASS -->
<g id="edge41" class="edge">
<title>DTEL&#45;SXCO_PACKAGE&#45;&gt;DOMA&#45;DEVCLASS</title>
<path fill="none" stroke="black" d="M1297.65,-649C1348.11,-639.2 1414,-626.21 1481.32,-612.18"/>
<polygon fill="black" stroke="black" points="1482.19,-615.57 1491.26,-610.1 1480.75,-608.72 1482.19,-615.57"/>
</g>
</g>
</svg>
