<?xml version="1.0" encoding="UTF-8" standalone="no"?>
<!DOCTYPE svg PUBLIC "-//W3C//DTD SVG 1.1//EN"
 "http://www.w3.org/Graphics/SVG/1.1/DTD/svg11.dtd">
<!-- Generated by graphviz version 2.47.3 (20210619.1520)
 -->
<!-- Title: G Pages: 1 -->
<svg width="607pt" height="404pt"
 viewBox="0.00 0.00 607.08 404.00" xmlns="http://www.w3.org/2000/svg" xmlns:xlink="http://www.w3.org/1999/xlink">
<g id="graph0" class="graph" transform="scale(1 1) rotate(0) translate(4 400)">
<title>G</title>
<polygon fill="white" stroke="transparent" points="-4,4 -4,-400 603.08,-400 603.08,4 -4,4"/>
<!-- INTF&#45;IF_XCO_CP_SYS_API_LANGUAGES -->
<g id="node1" class="node">
<title>INTF&#45;IF_XCO_CP_SYS_API_LANGUAGES</title>
<polygon fill="none" stroke="green" points="419.6,-396 140.35,-396 140.35,-360 419.6,-360 419.6,-396"/>
<text text-anchor="middle" x="279.98" y="-373.8" font-family="Times,serif" font-size="14.00">INTF&#45;IF_XCO_CP_SYS_API_LANGUAGES</text>
</g>
<!-- INTF&#45;IF_XCO_LANGUAGES -->
<g id="node2" class="node">
<title>INTF&#45;IF_XCO_LANGUAGES</title>
<g id="a_node2"><a xlink:href="./INTF_IF_XCO_LANGUAGES.html" xlink:title="INTF&#45;IF_XCO_LANGUAGES">
<polygon fill="none" stroke="green" points="376.76,-324 183.2,-324 183.2,-288 376.76,-288 376.76,-324"/>
<text text-anchor="middle" x="279.98" y="-301.8" font-family="Times,serif" font-size="14.00">INTF&#45;IF_XCO_LANGUAGES</text>
</a>
</g>
</g>
<!-- INTF&#45;IF_XCO_CP_SYS_API_LANGUAGES&#45;&gt;INTF&#45;IF_XCO_LANGUAGES -->
<g id="edge1" class="edge">
<title>INTF&#45;IF_XCO_CP_SYS_API_LANGUAGES&#45;&gt;INTF&#45;IF_XCO_LANGUAGES</title>
<path fill="none" stroke="black" d="M279.98,-359.7C279.98,-351.98 279.98,-342.71 279.98,-334.11"/>
<polygon fill="black" stroke="black" points="283.48,-334.1 279.98,-324.1 276.48,-334.1 283.48,-334.1"/>
</g>
<!-- TTYP&#45;SXCO_T_LANGUAGES -->
<g id="node3" class="node">
<title>TTYP&#45;SXCO_T_LANGUAGES</title>
<g id="a_node3"><a xlink:href="./TTYP_SXCO_T_LANGUAGES.html" xlink:title="TTYP&#45;SXCO_T_LANGUAGES">
<polygon fill="none" stroke="green" points="380.55,-252 179.41,-252 179.41,-216 380.55,-216 380.55,-252"/>
<text text-anchor="middle" x="279.98" y="-229.8" font-family="Times,serif" font-size="14.00">TTYP&#45;SXCO_T_LANGUAGES</text>
</a>
</g>
</g>
<!-- INTF&#45;IF_XCO_LANGUAGES&#45;&gt;TTYP&#45;SXCO_T_LANGUAGES -->
<g id="edge2" class="edge">
<title>INTF&#45;IF_XCO_LANGUAGES&#45;&gt;TTYP&#45;SXCO_T_LANGUAGES</title>
<path fill="none" stroke="black" d="M279.98,-287.7C279.98,-279.98 279.98,-270.71 279.98,-262.11"/>
<polygon fill="black" stroke="black" points="283.48,-262.1 279.98,-252.1 276.48,-262.1 283.48,-262.1"/>
</g>
<!-- INTF&#45;IF_XCO_LANGUAGE -->
<g id="node4" class="node">
<title>INTF&#45;IF_XCO_LANGUAGE</title>
<g id="a_node4"><a xlink:href="./INTF_IF_XCO_LANGUAGE.html" xlink:title="INTF&#45;IF_XCO_LANGUAGE">
<polygon fill="none" stroke="green" points="372.48,-180 187.48,-180 187.48,-144 372.48,-144 372.48,-180"/>
<text text-anchor="middle" x="279.98" y="-157.8" font-family="Times,serif" font-size="14.00">INTF&#45;IF_XCO_LANGUAGE</text>
</a>
</g>
</g>
<!-- TTYP&#45;SXCO_T_LANGUAGES&#45;&gt;INTF&#45;IF_XCO_LANGUAGE -->
<g id="edge3" class="edge">
<title>TTYP&#45;SXCO_T_LANGUAGES&#45;&gt;INTF&#45;IF_XCO_LANGUAGE</title>
<path fill="none" stroke="black" d="M279.98,-215.7C279.98,-207.98 279.98,-198.71 279.98,-190.11"/>
<polygon fill="black" stroke="black" points="283.48,-190.1 279.98,-180.1 276.48,-190.1 283.48,-190.1"/>
</g>
<!-- INTF&#45;IF_XCO_LANG_FORMAT -->
<g id="node5" class="node">
<title>INTF&#45;IF_XCO_LANG_FORMAT</title>
<g id="a_node5"><a xlink:href="./INTF_IF_XCO_LANG_FORMAT.html" xlink:title="INTF&#45;IF_XCO_LANG_FORMAT">
<polygon fill="none" stroke="green" points="211.94,-108 0.02,-108 0.02,-72 211.94,-72 211.94,-108"/>
<text text-anchor="middle" x="105.98" y="-85.8" font-family="Times,serif" font-size="14.00">INTF&#45;IF_XCO_LANG_FORMAT</text>
</a>
</g>
</g>
<!-- INTF&#45;IF_XCO_LANGUAGE&#45;&gt;INTF&#45;IF_XCO_LANG_FORMAT -->
<g id="edge7" class="edge">
<title>INTF&#45;IF_XCO_LANGUAGE&#45;&gt;INTF&#45;IF_XCO_LANG_FORMAT</title>
<path fill="none" stroke="black" d="M231.52,-143.88C206.62,-134.26 176.5,-122.19 151.96,-112.01"/>
<polygon fill="black" stroke="black" points="153.09,-108.69 142.51,-108.07 150.39,-115.15 153.09,-108.69"/>
</g>
<!-- DTEL&#45;SPRAS -->
<g id="node6" class="node">
<title>DTEL&#45;SPRAS</title>
<g id="a_node6"><a xlink:href="./DTEL_SPRAS.html" xlink:title="DTEL&#45;SPRAS">
<polygon fill="none" stroke="green" points="329.7,-108 230.26,-108 230.26,-72 329.7,-72 329.7,-108"/>
<text text-anchor="middle" x="279.98" y="-85.8" font-family="Times,serif" font-size="14.00">DTEL&#45;SPRAS</text>
</a>
</g>
</g>
<!-- INTF&#45;IF_XCO_LANGUAGE&#45;&gt;DTEL&#45;SPRAS -->
<g id="edge6" class="edge">
<title>INTF&#45;IF_XCO_LANGUAGE&#45;&gt;DTEL&#45;SPRAS</title>
<path fill="none" stroke="black" d="M279.98,-143.7C279.98,-135.98 279.98,-126.71 279.98,-118.11"/>
<polygon fill="black" stroke="black" points="283.48,-118.1 279.98,-108.1 276.48,-118.1 283.48,-118.1"/>
</g>
<!-- DTEL&#45;SPTXT2 -->
<g id="node8" class="node">
<title>DTEL&#45;SPTXT2</title>
<g id="a_node8"><a xlink:href="./DTEL_SPTXT2.html" xlink:title="DTEL&#45;SPTXT2">
<polygon fill="none" stroke="yellow" points="454.18,-108 347.78,-108 347.78,-72 454.18,-72 454.18,-108"/>
<text text-anchor="middle" x="400.98" y="-85.8" font-family="Times,serif" font-size="14.00">DTEL&#45;SPTXT2</text>
</a>
</g>
</g>
<!-- INTF&#45;IF_XCO_LANGUAGE&#45;&gt;DTEL&#45;SPTXT2 -->
<g id="edge5" class="edge">
<title>INTF&#45;IF_XCO_LANGUAGE&#45;&gt;DTEL&#45;SPTXT2</title>
<path fill="none" stroke="black" d="M309.58,-143.88C325.55,-134.64 345.44,-123.13 362.58,-113.21"/>
<polygon fill="black" stroke="black" points="364.36,-116.23 371.27,-108.19 360.86,-110.17 364.36,-116.23"/>
</g>
<!-- DTEL&#45;SPTXT -->
<g id="node10" class="node">
<title>DTEL&#45;SPTXT</title>
<g id="a_node10"><a xlink:href="./DTEL_SPTXT.html" xlink:title="DTEL&#45;SPTXT">
<polygon fill="none" stroke="yellow" points="580.68,-108 481.28,-108 481.28,-72 580.68,-72 580.68,-108"/>
<text text-anchor="middle" x="530.98" y="-85.8" font-family="Times,serif" font-size="14.00">DTEL&#45;SPTXT</text>
</a>
</g>
</g>
<!-- INTF&#45;IF_XCO_LANGUAGE&#45;&gt;DTEL&#45;SPTXT -->
<g id="edge4" class="edge">
<title>INTF&#45;IF_XCO_LANGUAGE&#45;&gt;DTEL&#45;SPTXT</title>
<path fill="none" stroke="black" d="M341.06,-143.97C380.66,-132.92 431.99,-118.61 471.31,-107.64"/>
<polygon fill="black" stroke="black" points="472.34,-110.99 481.03,-104.93 470.46,-104.25 472.34,-110.99"/>
</g>
<!-- INTF&#45;IF_XCO_LANG_FORMAT&#45;&gt;INTF&#45;IF_XCO_LANGUAGE -->
<g id="edge8" class="edge">
<title>INTF&#45;IF_XCO_LANG_FORMAT&#45;&gt;INTF&#45;IF_XCO_LANGUAGE</title>
<path fill="none" stroke="black" d="M154.3,-108.07C179.18,-117.67 209.3,-129.74 233.85,-139.93"/>
<polygon fill="black" stroke="black" points="232.73,-143.25 243.31,-143.88 235.43,-136.79 232.73,-143.25"/>
</g>
<!-- DOMA&#45;SPRAS -->
<g id="node7" class="node">
<title>DOMA&#45;SPRAS</title>
<g id="a_node7"><a xlink:href="./DOMA_SPRAS.html" xlink:title="DOMA&#45;SPRAS">
<polygon fill="none" stroke="green" points="323.2,-36 216.76,-36 216.76,0 323.2,0 323.2,-36"/>
<text text-anchor="middle" x="269.98" y="-13.8" font-family="Times,serif" font-size="14.00">DOMA&#45;SPRAS</text>
</a>
</g>
</g>
<!-- DTEL&#45;SPRAS&#45;&gt;DOMA&#45;SPRAS -->
<g id="edge9" class="edge">
<title>DTEL&#45;SPRAS&#45;&gt;DOMA&#45;SPRAS</title>
<path fill="none" stroke="black" d="M277.51,-71.7C276.41,-63.98 275.08,-54.71 273.85,-46.11"/>
<polygon fill="black" stroke="black" points="277.3,-45.51 272.42,-36.1 270.37,-46.5 277.3,-45.51"/>
</g>
<!-- DOMA&#45;SPTXT72 -->
<g id="node9" class="node">
<title>DOMA&#45;SPTXT72</title>
<g id="a_node9"><a xlink:href="./DOMA_SPTXT72.html" xlink:title="DOMA&#45;SPTXT72">
<polygon fill="none" stroke="yellow" points="461.18,-36 340.78,-36 340.78,0 461.18,0 461.18,-36"/>
<text text-anchor="middle" x="400.98" y="-13.8" font-family="Times,serif" font-size="14.00">DOMA&#45;SPTXT72</text>
</a>
</g>
</g>
<!-- DTEL&#45;SPTXT2&#45;&gt;DOMA&#45;SPTXT72 -->
<g id="edge10" class="edge">
<title>DTEL&#45;SPTXT2&#45;&gt;DOMA&#45;SPTXT72</title>
<path fill="none" stroke="black" d="M400.98,-71.7C400.98,-63.98 400.98,-54.71 400.98,-46.11"/>
<polygon fill="black" stroke="black" points="404.48,-46.1 400.98,-36.1 397.48,-46.1 404.48,-46.1"/>
</g>
<!-- DOMA&#45;SPTXT16 -->
<g id="node11" class="node">
<title>DOMA&#45;SPTXT16</title>
<g id="a_node11"><a xlink:href="./DOMA_SPTXT16.html" xlink:title="DOMA&#45;SPTXT16">
<polygon fill="none" stroke="yellow" points="599.18,-36 478.78,-36 478.78,0 599.18,0 599.18,-36"/>
<text text-anchor="middle" x="538.98" y="-13.8" font-family="Times,serif" font-size="14.00">DOMA&#45;SPTXT16</text>
</a>
</g>
</g>
<!-- DTEL&#45;SPTXT&#45;&gt;DOMA&#45;SPTXT16 -->
<g id="edge11" class="edge">
<title>DTEL&#45;SPTXT&#45;&gt;DOMA&#45;SPTXT16</title>
<path fill="none" stroke="black" d="M532.96,-71.7C533.84,-63.98 534.9,-54.71 535.88,-46.11"/>
<polygon fill="black" stroke="black" points="539.37,-46.44 537.02,-36.1 532.41,-45.64 539.37,-46.44"/>
</g>
</g>
</svg>
