<?xml version="1.0" encoding="UTF-8" standalone="no"?>
<!DOCTYPE svg PUBLIC "-//W3C//DTD SVG 1.1//EN"
 "http://www.w3.org/Graphics/SVG/1.1/DTD/svg11.dtd">
<!-- Generated by graphviz version 2.47.3 (20210619.1520)
 -->
<!-- Title: G Pages: 1 -->
<svg width="1593pt" height="908pt"
 viewBox="0.00 0.00 1593.12 908.00" xmlns="http://www.w3.org/2000/svg" xmlns:xlink="http://www.w3.org/1999/xlink">
<g id="graph0" class="graph" transform="scale(1 1) rotate(0) translate(4 904)">
<title>G</title>
<polygon fill="white" stroke="transparent" points="-4,4 -4,-904 1589.12,-904 1589.12,4 -4,4"/>
<!-- INTF&#45;IF_XCO_NEWS -->
<g id="node1" class="node">
<title>INTF&#45;IF_XCO_NEWS</title>
<g id="a_node1"><a xlink:href="./INTF_IF_XCO_NEWS.html" xlink:title="INTF&#45;IF_XCO_NEWS">
<polygon fill="none" stroke="green" points="1026.91,-900 879.09,-900 879.09,-864 1026.91,-864 1026.91,-900"/>
<text text-anchor="middle" x="953" y="-877.8" font-family="Times,serif" font-size="14.00">INTF&#45;IF_XCO_NEWS</text>
</a>
</g>
</g>
<!-- TTYP&#45;SXCO_T_MESSAGES -->
<g id="node2" class="node">
<title>TTYP&#45;SXCO_T_MESSAGES</title>
<g id="a_node2"><a xlink:href="./TTYP_SXCO_T_MESSAGES.html" xlink:title="TTYP&#45;SXCO_T_MESSAGES">
<polygon fill="none" stroke="green" points="986.15,-828 797.85,-828 797.85,-792 986.15,-792 986.15,-828"/>
<text text-anchor="middle" x="892" y="-805.8" font-family="Times,serif" font-size="14.00">TTYP&#45;SXCO_T_MESSAGES</text>
</a>
</g>
</g>
<!-- INTF&#45;IF_XCO_NEWS&#45;&gt;TTYP&#45;SXCO_T_MESSAGES -->
<g id="edge1" class="edge">
<title>INTF&#45;IF_XCO_NEWS&#45;&gt;TTYP&#45;SXCO_T_MESSAGES</title>
<path fill="none" stroke="black" d="M932.01,-863.7C923.91,-855.39 914.9,-845.28 907.4,-836.14"/>
<polygon fill="black" stroke="black" points="909.97,-833.75 901.01,-828.1 904.5,-838.11 909.97,-833.75"/>
</g>
<!-- INTF&#45;IF_XCO_NEWS&#45;&gt;TTYP&#45;SXCO_T_MESSAGES -->
<g id="edge12" class="edge">
<title>INTF&#45;IF_XCO_NEWS&#45;&gt;TTYP&#45;SXCO_T_MESSAGES</title>
<path fill="none" stroke="black" d="M943.84,-863.7C937.32,-855.22 928.49,-844.86 919.9,-835.58"/>
<polygon fill="black" stroke="black" points="922.22,-832.95 912.8,-828.1 917.15,-837.77 922.22,-832.95"/>
</g>
<!-- INTF&#45;IF_XCO_MESSAGE -->
<g id="node3" class="node">
<title>INTF&#45;IF_XCO_MESSAGE</title>
<g id="a_node3"><a xlink:href="./INTF_IF_XCO_MESSAGE.html" xlink:title="INTF&#45;IF_XCO_MESSAGE">
<polygon fill="none" stroke="green" points="978.58,-756 805.42,-756 805.42,-720 978.58,-720 978.58,-756"/>
<text text-anchor="middle" x="892" y="-733.8" font-family="Times,serif" font-size="14.00">INTF&#45;IF_XCO_MESSAGE</text>
</a>
</g>
</g>
<!-- TTYP&#45;SXCO_T_MESSAGES&#45;&gt;INTF&#45;IF_XCO_MESSAGE -->
<g id="edge2" class="edge">
<title>TTYP&#45;SXCO_T_MESSAGES&#45;&gt;INTF&#45;IF_XCO_MESSAGE</title>
<path fill="none" stroke="black" d="M892,-791.7C892,-783.98 892,-774.71 892,-766.11"/>
<polygon fill="black" stroke="black" points="895.5,-766.1 892,-756.1 888.5,-766.1 895.5,-766.1"/>
</g>
<!-- INTF&#45;IF_XCO_MESSAGE&#45;&gt;INTF&#45;IF_XCO_NEWS -->
<g id="edge11" class="edge">
<title>INTF&#45;IF_XCO_MESSAGE&#45;&gt;INTF&#45;IF_XCO_NEWS</title>
<path fill="none" stroke="black" d="M950.9,-756.04C968.12,-764.07 985,-775.6 995,-792 1007.58,-812.62 993.46,-837.6 978.29,-855.84"/>
<polygon fill="black" stroke="black" points="975.34,-853.9 971.34,-863.71 980.59,-858.53 975.34,-853.9"/>
</g>
<!-- INTF&#45;IF_T100_DYN_MSG -->
<g id="node4" class="node">
<title>INTF&#45;IF_T100_DYN_MSG</title>
<g id="a_node4"><a xlink:href="./INTF_IF_T100_DYN_MSG.html" xlink:title="INTF&#45;IF_T100_DYN_MSG">
<polygon fill="none" stroke="green" points="663.91,-684 488.09,-684 488.09,-648 663.91,-648 663.91,-684"/>
<text text-anchor="middle" x="576" y="-661.8" font-family="Times,serif" font-size="14.00">INTF&#45;IF_T100_DYN_MSG</text>
</a>
</g>
</g>
<!-- INTF&#45;IF_XCO_MESSAGE&#45;&gt;INTF&#45;IF_T100_DYN_MSG -->
<g id="edge10" class="edge">
<title>INTF&#45;IF_XCO_MESSAGE&#45;&gt;INTF&#45;IF_T100_DYN_MSG</title>
<path fill="none" stroke="black" d="M815.1,-719.97C769.14,-709.78 710.61,-696.82 662.96,-686.26"/>
<polygon fill="black" stroke="black" points="663.49,-682.8 652.97,-684.05 661.98,-689.63 663.49,-682.8"/>
</g>
<!-- DTEL&#45;SYMSGNO -->
<g id="node9" class="node">
<title>DTEL&#45;SYMSGNO</title>
<g id="a_node9"><a xlink:href="./DTEL_SYMSGNO.html" xlink:title="DTEL&#45;SYMSGNO">
<polygon fill="none" stroke="green" points="589.36,-468 464.64,-468 464.64,-432 589.36,-432 589.36,-468"/>
<text text-anchor="middle" x="527" y="-445.8" font-family="Times,serif" font-size="14.00">DTEL&#45;SYMSGNO</text>
</a>
</g>
</g>
<!-- INTF&#45;IF_XCO_MESSAGE&#45;&gt;DTEL&#45;SYMSGNO -->
<g id="edge6" class="edge">
<title>INTF&#45;IF_XCO_MESSAGE&#45;&gt;DTEL&#45;SYMSGNO</title>
<path fill="none" stroke="black" d="M896.87,-719.88C907.89,-677.12 929.58,-564.72 873,-504 836.95,-465.31 690,-454.73 599.6,-451.92"/>
<polygon fill="black" stroke="black" points="599.5,-448.42 589.41,-451.63 599.3,-455.41 599.5,-448.42"/>
</g>
<!-- DTEL&#45;SYMSGID -->
<g id="node11" class="node">
<title>DTEL&#45;SYMSGID</title>
<g id="a_node11"><a xlink:href="./DTEL_SYMSGID.html" xlink:title="DTEL&#45;SYMSGID">
<polygon fill="none" stroke="green" points="424.92,-468 305.08,-468 305.08,-432 424.92,-432 424.92,-468"/>
<text text-anchor="middle" x="365" y="-445.8" font-family="Times,serif" font-size="14.00">DTEL&#45;SYMSGID</text>
</a>
</g>
</g>
<!-- INTF&#45;IF_XCO_MESSAGE&#45;&gt;DTEL&#45;SYMSGID -->
<g id="edge5" class="edge">
<title>INTF&#45;IF_XCO_MESSAGE&#45;&gt;DTEL&#45;SYMSGID</title>
<path fill="none" stroke="black" d="M805.2,-736.35C699.05,-733.81 527.49,-723.48 479,-684 413.39,-630.58 461.5,-575.97 417,-504 410.55,-493.57 401.71,-483.57 393.15,-475.13"/>
<polygon fill="black" stroke="black" points="395.44,-472.47 385.77,-468.13 390.62,-477.55 395.44,-472.47"/>
</g>
<!-- DTEL&#45;SYMSGTY -->
<g id="node13" class="node">
<title>DTEL&#45;SYMSGTY</title>
<g id="a_node13"><a xlink:href="./DTEL_SYMSGTY.html" xlink:title="DTEL&#45;SYMSGTY">
<polygon fill="none" stroke="green" points="858.81,-612 735.19,-612 735.19,-576 858.81,-576 858.81,-612"/>
<text text-anchor="middle" x="797" y="-589.8" font-family="Times,serif" font-size="14.00">DTEL&#45;SYMSGTY</text>
</a>
</g>
</g>
<!-- INTF&#45;IF_XCO_MESSAGE&#45;&gt;DTEL&#45;SYMSGTY -->
<g id="edge4" class="edge">
<title>INTF&#45;IF_XCO_MESSAGE&#45;&gt;DTEL&#45;SYMSGTY</title>
<path fill="none" stroke="black" d="M881.34,-719.76C870.08,-701.71 851.68,-672.6 835,-648 828.8,-638.86 821.82,-629 815.54,-620.29"/>
<polygon fill="black" stroke="black" points="818.25,-618.07 809.55,-612.03 812.59,-622.18 818.25,-618.07"/>
</g>
<!-- DTEL&#45;SYMSGV -->
<g id="node15" class="node">
<title>DTEL&#45;SYMSGV</title>
<g id="a_node15"><a xlink:href="./DTEL_SYMSGV.html" xlink:title="DTEL&#45;SYMSGV">
<polygon fill="none" stroke="green" points="634.25,-612 519.75,-612 519.75,-576 634.25,-576 634.25,-612"/>
<text text-anchor="middle" x="577" y="-589.8" font-family="Times,serif" font-size="14.00">DTEL&#45;SYMSGV</text>
</a>
</g>
</g>
<!-- INTF&#45;IF_XCO_MESSAGE&#45;&gt;DTEL&#45;SYMSGV -->
<g id="edge7" class="edge">
<title>INTF&#45;IF_XCO_MESSAGE&#45;&gt;DTEL&#45;SYMSGV</title>
<path fill="none" stroke="black" d="M805.28,-720.48C774.23,-712.32 739.81,-700.56 711,-684 690.83,-672.41 691.78,-661.73 673,-648 657.18,-636.43 638.56,-625.6 621.95,-616.78"/>
<polygon fill="black" stroke="black" points="623.45,-613.61 612.96,-612.09 620.21,-619.82 623.45,-613.61"/>
</g>
<!-- INTF&#45;IF_XCO_MESSAGE_SHORT_TEXT -->
<g id="node17" class="node">
<title>INTF&#45;IF_XCO_MESSAGE_SHORT_TEXT</title>
<g id="a_node17"><a xlink:href="./INTF_IF_XCO_MESSAGE_SHORT_TEXT.html" xlink:title="INTF&#45;IF_XCO_MESSAGE_SHORT_TEXT">
<polygon fill="none" stroke="green" points="1188.23,-684 919.77,-684 919.77,-648 1188.23,-648 1188.23,-684"/>
<text text-anchor="middle" x="1054" y="-661.8" font-family="Times,serif" font-size="14.00">INTF&#45;IF_XCO_MESSAGE_SHORT_TEXT</text>
</a>
</g>
</g>
<!-- INTF&#45;IF_XCO_MESSAGE&#45;&gt;INTF&#45;IF_XCO_MESSAGE_SHORT_TEXT -->
<g id="edge9" class="edge">
<title>INTF&#45;IF_XCO_MESSAGE&#45;&gt;INTF&#45;IF_XCO_MESSAGE_SHORT_TEXT</title>
<path fill="none" stroke="black" d="M925.73,-719.88C946.97,-710.26 974.79,-698.19 999.12,-688.01"/>
<polygon fill="black" stroke="black" points="1000.72,-691.14 1008.61,-684.07 998.03,-684.68 1000.72,-691.14"/>
</g>
<!-- CLAS&#45;CL_XCO_MESSAGE_TYPE -->
<g id="node35" class="node">
<title>CLAS&#45;CL_XCO_MESSAGE_TYPE</title>
<g id="a_node35"><a xlink:href="./CLAS_CL_XCO_MESSAGE_TYPE.html" xlink:title="CLAS&#45;CL_XCO_MESSAGE_TYPE">
<polygon fill="none" stroke="green" points="1431.7,-684 1206.3,-684 1206.3,-648 1431.7,-648 1431.7,-684"/>
<text text-anchor="middle" x="1319" y="-661.8" font-family="Times,serif" font-size="14.00">CLAS&#45;CL_XCO_MESSAGE_TYPE</text>
</a>
</g>
</g>
<!-- INTF&#45;IF_XCO_MESSAGE&#45;&gt;CLAS&#45;CL_XCO_MESSAGE_TYPE -->
<g id="edge8" class="edge">
<title>INTF&#45;IF_XCO_MESSAGE&#45;&gt;CLAS&#45;CL_XCO_MESSAGE_TYPE</title>
<path fill="none" stroke="black" d="M978.67,-722.79C1043.97,-712.09 1134.11,-697.31 1205.22,-685.65"/>
<polygon fill="black" stroke="black" points="1205.82,-689.1 1215.12,-684.03 1204.69,-682.19 1205.82,-689.1"/>
</g>
<!-- TABL&#45;SYMSG -->
<g id="node38" class="node">
<title>TABL&#45;SYMSG</title>
<g id="a_node38"><a xlink:href="./TABL_SYMSG.html" xlink:title="TABL&#45;SYMSG">
<polygon fill="none" stroke="green" points="825.93,-684 720.07,-684 720.07,-648 825.93,-648 825.93,-684"/>
<text text-anchor="middle" x="773" y="-661.8" font-family="Times,serif" font-size="14.00">TABL&#45;SYMSG</text>
</a>
</g>
</g>
<!-- INTF&#45;IF_XCO_MESSAGE&#45;&gt;TABL&#45;SYMSG -->
<g id="edge3" class="edge">
<title>INTF&#45;IF_XCO_MESSAGE&#45;&gt;TABL&#45;SYMSG</title>
<path fill="none" stroke="black" d="M862.89,-719.88C847.33,-710.72 827.98,-699.34 811.22,-689.48"/>
<polygon fill="black" stroke="black" points="812.62,-686.24 802.22,-684.19 809.07,-692.28 812.62,-686.24"/>
</g>
<!-- INTF&#45;IF_T100_MESSAGE -->
<g id="node5" class="node">
<title>INTF&#45;IF_T100_MESSAGE</title>
<g id="a_node5"><a xlink:href="./INTF_IF_T100_MESSAGE.html" xlink:title="INTF&#45;IF_T100_MESSAGE">
<polygon fill="none" stroke="green" points="389.59,-612 216.41,-612 216.41,-576 389.59,-576 389.59,-612"/>
<text text-anchor="middle" x="303" y="-589.8" font-family="Times,serif" font-size="14.00">INTF&#45;IF_T100_MESSAGE</text>
</a>
</g>
</g>
<!-- INTF&#45;IF_T100_DYN_MSG&#45;&gt;INTF&#45;IF_T100_MESSAGE -->
<g id="edge16" class="edge">
<title>INTF&#45;IF_T100_DYN_MSG&#45;&gt;INTF&#45;IF_T100_MESSAGE</title>
<path fill="none" stroke="black" d="M509.57,-647.97C470.34,-637.91 420.53,-625.14 379.65,-614.65"/>
<polygon fill="black" stroke="black" points="380.29,-611.2 369.73,-612.11 378.55,-617.98 380.29,-611.2"/>
</g>
<!-- INTF&#45;IF_MESSAGE -->
<g id="node6" class="node">
<title>INTF&#45;IF_MESSAGE</title>
<g id="a_node6"><a xlink:href="./INTF_IF_MESSAGE.html" xlink:title="INTF&#45;IF_MESSAGE">
<polygon fill="none" stroke="green" points="164.04,-540 27.96,-540 27.96,-504 164.04,-504 164.04,-540"/>
<text text-anchor="middle" x="96" y="-517.8" font-family="Times,serif" font-size="14.00">INTF&#45;IF_MESSAGE</text>
</a>
</g>
</g>
<!-- INTF&#45;IF_T100_DYN_MSG&#45;&gt;INTF&#45;IF_MESSAGE -->
<g id="edge15" class="edge">
<title>INTF&#45;IF_T100_DYN_MSG&#45;&gt;INTF&#45;IF_MESSAGE</title>
<path fill="none" stroke="black" d="M488.26,-657.76C395.54,-649.17 256.06,-633.28 207,-612 172.49,-597.03 139.75,-568.37 118.9,-547.61"/>
<polygon fill="black" stroke="black" points="121.28,-545.04 111.77,-540.36 116.28,-549.95 121.28,-545.04"/>
</g>
<!-- INTF&#45;IF_T100_DYN_MSG&#45;&gt;DTEL&#45;SYMSGTY -->
<g id="edge14" class="edge">
<title>INTF&#45;IF_T100_DYN_MSG&#45;&gt;DTEL&#45;SYMSGTY</title>
<path fill="none" stroke="black" d="M629.78,-647.97C660.93,-638.1 700.32,-625.62 733.05,-615.25"/>
<polygon fill="black" stroke="black" points="734.5,-618.47 742.98,-612.11 732.39,-611.79 734.5,-618.47"/>
</g>
<!-- INTF&#45;IF_T100_DYN_MSG&#45;&gt;DTEL&#45;SYMSGV -->
<g id="edge13" class="edge">
<title>INTF&#45;IF_T100_DYN_MSG&#45;&gt;DTEL&#45;SYMSGV</title>
<path fill="none" stroke="black" d="M576.25,-647.7C576.36,-639.98 576.49,-630.71 576.61,-622.11"/>
<polygon fill="black" stroke="black" points="580.11,-622.15 576.76,-612.1 573.11,-622.05 580.11,-622.15"/>
</g>
<!-- INTF&#45;IF_T100_MESSAGE&#45;&gt;INTF&#45;IF_MESSAGE -->
<g id="edge21" class="edge">
<title>INTF&#45;IF_T100_MESSAGE&#45;&gt;INTF&#45;IF_MESSAGE</title>
<path fill="none" stroke="black" d="M252.63,-575.97C223.58,-566.14 186.87,-553.73 156.29,-543.39"/>
<polygon fill="black" stroke="black" points="157.19,-540 146.6,-540.11 154.95,-546.63 157.19,-540"/>
</g>
<!-- TABL&#45;SCX_T100KEY -->
<g id="node7" class="node">
<title>TABL&#45;SCX_T100KEY</title>
<g id="a_node7"><a xlink:href="./TABL_SCX_T100KEY.html" xlink:title="TABL&#45;SCX_T100KEY">
<polygon fill="none" stroke="yellow" points="407.75,-540 258.25,-540 258.25,-504 407.75,-504 407.75,-540"/>
<text text-anchor="middle" x="333" y="-517.8" font-family="Times,serif" font-size="14.00">TABL&#45;SCX_T100KEY</text>
</a>
</g>
</g>
<!-- INTF&#45;IF_T100_MESSAGE&#45;&gt;TABL&#45;SCX_T100KEY -->
<g id="edge20" class="edge">
<title>INTF&#45;IF_T100_MESSAGE&#45;&gt;TABL&#45;SCX_T100KEY</title>
<path fill="none" stroke="black" d="M310.42,-575.7C313.79,-567.81 317.87,-558.3 321.62,-549.55"/>
<polygon fill="black" stroke="black" points="324.95,-550.67 325.67,-540.1 318.51,-547.92 324.95,-550.67"/>
</g>
<!-- DTEL&#45;SCX_ATTRNAME -->
<g id="node8" class="node">
<title>DTEL&#45;SCX_ATTRNAME</title>
<g id="a_node8"><a xlink:href="./DTEL_SCX_ATTRNAME.html" xlink:title="DTEL&#45;SCX_ATTRNAME">
<polygon fill="none" stroke="green" points="281.41,-468 112.59,-468 112.59,-432 281.41,-432 281.41,-468"/>
<text text-anchor="middle" x="197" y="-445.8" font-family="Times,serif" font-size="14.00">DTEL&#45;SCX_ATTRNAME</text>
</a>
</g>
</g>
<!-- INTF&#45;IF_T100_MESSAGE&#45;&gt;DTEL&#45;SCX_ATTRNAME -->
<g id="edge19" class="edge">
<title>INTF&#45;IF_T100_MESSAGE&#45;&gt;DTEL&#45;SCX_ATTRNAME</title>
<path fill="none" stroke="black" d="M278.08,-575.95C265.51,-566.45 250.7,-553.77 240,-540 225.27,-521.05 213.8,-496.24 206.43,-477.63"/>
<polygon fill="black" stroke="black" points="209.69,-476.36 202.85,-468.27 203.15,-478.86 209.69,-476.36"/>
</g>
<!-- INTF&#45;IF_T100_MESSAGE&#45;&gt;DTEL&#45;SYMSGNO -->
<g id="edge18" class="edge">
<title>INTF&#45;IF_T100_MESSAGE&#45;&gt;DTEL&#45;SYMSGNO</title>
<path fill="none" stroke="black" d="M345.98,-575.99C367.9,-566.58 394.59,-553.98 417,-540 447.68,-520.86 479.45,-494.31 500.91,-475.19"/>
<polygon fill="black" stroke="black" points="503.51,-477.56 508.6,-468.26 498.83,-472.35 503.51,-477.56"/>
</g>
<!-- INTF&#45;IF_T100_MESSAGE&#45;&gt;DTEL&#45;SYMSGID -->
<g id="edge17" class="edge">
<title>INTF&#45;IF_T100_MESSAGE&#45;&gt;DTEL&#45;SYMSGID</title>
<path fill="none" stroke="black" d="M278.07,-575.86C266.94,-566.67 255,-554.29 249,-540 242.81,-525.25 240.35,-517.46 249,-504 259.85,-487.11 277.57,-475.53 295.93,-467.63"/>
<polygon fill="black" stroke="black" points="297.26,-470.87 305.26,-463.93 294.68,-464.36 297.26,-470.87"/>
</g>
<!-- TABL&#45;SCX_T100KEY&#45;&gt;DTEL&#45;SCX_ATTRNAME -->
<g id="edge24" class="edge">
<title>TABL&#45;SCX_T100KEY&#45;&gt;DTEL&#45;SCX_ATTRNAME</title>
<path fill="none" stroke="black" d="M299.73,-503.88C281.54,-494.51 258.81,-482.81 239.36,-472.8"/>
<polygon fill="black" stroke="black" points="240.89,-469.65 230.4,-468.19 237.69,-475.88 240.89,-469.65"/>
</g>
<!-- TABL&#45;SCX_T100KEY&#45;&gt;DTEL&#45;SYMSGNO -->
<g id="edge23" class="edge">
<title>TABL&#45;SCX_T100KEY&#45;&gt;DTEL&#45;SYMSGNO</title>
<path fill="none" stroke="black" d="M380.46,-503.88C407.57,-494.09 441.74,-481.77 470.26,-471.47"/>
<polygon fill="black" stroke="black" points="471.48,-474.75 479.7,-468.07 469.1,-468.17 471.48,-474.75"/>
</g>
<!-- TABL&#45;SCX_T100KEY&#45;&gt;DTEL&#45;SYMSGID -->
<g id="edge22" class="edge">
<title>TABL&#45;SCX_T100KEY&#45;&gt;DTEL&#45;SYMSGID</title>
<path fill="none" stroke="black" d="M340.91,-503.7C344.55,-495.73 348.95,-486.1 352.99,-477.26"/>
<polygon fill="black" stroke="black" points="356.21,-478.65 357.18,-468.1 349.84,-475.74 356.21,-478.65"/>
</g>
<!-- DOMA&#45;SYMSGNO -->
<g id="node10" class="node">
<title>DOMA&#45;SYMSGNO</title>
<g id="a_node10"><a xlink:href="./DOMA_SYMSGNO.html" xlink:title="DOMA&#45;SYMSGNO">
<polygon fill="none" stroke="yellow" points="592.86,-396 461.14,-396 461.14,-360 592.86,-360 592.86,-396"/>
<text text-anchor="middle" x="527" y="-373.8" font-family="Times,serif" font-size="14.00">DOMA&#45;SYMSGNO</text>
</a>
</g>
</g>
<!-- DTEL&#45;SYMSGNO&#45;&gt;DOMA&#45;SYMSGNO -->
<g id="edge25" class="edge">
<title>DTEL&#45;SYMSGNO&#45;&gt;DOMA&#45;SYMSGNO</title>
<path fill="none" stroke="black" d="M527,-431.7C527,-423.98 527,-414.71 527,-406.11"/>
<polygon fill="black" stroke="black" points="530.5,-406.1 527,-396.1 523.5,-406.1 530.5,-406.1"/>
</g>
<!-- DOMA&#45;ARBGB -->
<g id="node12" class="node">
<title>DOMA&#45;ARBGB</title>
<g id="a_node12"><a xlink:href="./DOMA_ARBGB.html" xlink:title="DOMA&#45;ARBGB">
<polygon fill="none" stroke="yellow" points="420.65,-396 309.35,-396 309.35,-360 420.65,-360 420.65,-396"/>
<text text-anchor="middle" x="365" y="-373.8" font-family="Times,serif" font-size="14.00">DOMA&#45;ARBGB</text>
</a>
</g>
</g>
<!-- DTEL&#45;SYMSGID&#45;&gt;DOMA&#45;ARBGB -->
<g id="edge26" class="edge">
<title>DTEL&#45;SYMSGID&#45;&gt;DOMA&#45;ARBGB</title>
<path fill="none" stroke="black" d="M365,-431.7C365,-423.98 365,-414.71 365,-406.11"/>
<polygon fill="black" stroke="black" points="368.5,-406.1 365,-396.1 361.5,-406.1 368.5,-406.1"/>
</g>
<!-- DOMA&#45;SYCHAR01 -->
<g id="node14" class="node">
<title>DOMA&#45;SYCHAR01</title>
<g id="a_node14"><a xlink:href="./DOMA_SYCHAR01.html" xlink:title="DOMA&#45;SYCHAR01">
<polygon fill="none" stroke="yellow" points="864.2,-540 729.8,-540 729.8,-504 864.2,-504 864.2,-540"/>
<text text-anchor="middle" x="797" y="-517.8" font-family="Times,serif" font-size="14.00">DOMA&#45;SYCHAR01</text>
</a>
</g>
</g>
<!-- DTEL&#45;SYMSGTY&#45;&gt;DOMA&#45;SYCHAR01 -->
<g id="edge27" class="edge">
<title>DTEL&#45;SYMSGTY&#45;&gt;DOMA&#45;SYCHAR01</title>
<path fill="none" stroke="black" d="M797,-575.7C797,-567.98 797,-558.71 797,-550.11"/>
<polygon fill="black" stroke="black" points="800.5,-550.1 797,-540.1 793.5,-550.1 800.5,-550.1"/>
</g>
<!-- DOMA&#45;SYCHAR50 -->
<g id="node16" class="node">
<title>DOMA&#45;SYCHAR50</title>
<g id="a_node16"><a xlink:href="./DOMA_SYCHAR50.html" xlink:title="DOMA&#45;SYCHAR50">
<polygon fill="none" stroke="yellow" points="636.2,-540 501.8,-540 501.8,-504 636.2,-504 636.2,-540"/>
<text text-anchor="middle" x="569" y="-517.8" font-family="Times,serif" font-size="14.00">DOMA&#45;SYCHAR50</text>
</a>
</g>
</g>
<!-- DTEL&#45;SYMSGV&#45;&gt;DOMA&#45;SYCHAR50 -->
<g id="edge28" class="edge">
<title>DTEL&#45;SYMSGV&#45;&gt;DOMA&#45;SYCHAR50</title>
<path fill="none" stroke="black" d="M575.02,-575.7C574.14,-567.98 573.08,-558.71 572.1,-550.11"/>
<polygon fill="black" stroke="black" points="575.57,-549.64 570.95,-540.1 568.61,-550.44 575.57,-549.64"/>
</g>
<!-- INTF&#45;IF_XCO_MESSAGE_SHORT_TEXT&#45;&gt;INTF&#45;IF_XCO_MESSAGE -->
<g id="edge29" class="edge">
<title>INTF&#45;IF_XCO_MESSAGE_SHORT_TEXT&#45;&gt;INTF&#45;IF_XCO_MESSAGE</title>
<path fill="none" stroke="black" d="M1020.39,-684.07C999.18,-693.67 971.36,-705.74 947.02,-715.93"/>
<polygon fill="black" stroke="black" points="945.42,-712.8 937.53,-719.88 948.1,-719.27 945.42,-712.8"/>
</g>
<!-- INTF&#45;IF_XCO_L10N_TEXT -->
<g id="node18" class="node">
<title>INTF&#45;IF_XCO_L10N_TEXT</title>
<g id="a_node18"><a xlink:href="./INTF_IF_XCO_L10N_TEXT.html" xlink:title="INTF&#45;IF_XCO_L10N_TEXT">
<polygon fill="none" stroke="yellow" points="1103.68,-612 920.32,-612 920.32,-576 1103.68,-576 1103.68,-612"/>
<text text-anchor="middle" x="1012" y="-589.8" font-family="Times,serif" font-size="14.00">INTF&#45;IF_XCO_L10N_TEXT</text>
</a>
</g>
</g>
<!-- INTF&#45;IF_XCO_MESSAGE_SHORT_TEXT&#45;&gt;INTF&#45;IF_XCO_L10N_TEXT -->
<g id="edge31" class="edge">
<title>INTF&#45;IF_XCO_MESSAGE_SHORT_TEXT&#45;&gt;INTF&#45;IF_XCO_L10N_TEXT</title>
<path fill="none" stroke="black" d="M1043.62,-647.7C1038.74,-639.56 1032.81,-629.69 1027.42,-620.7"/>
<polygon fill="black" stroke="black" points="1030.41,-618.88 1022.26,-612.1 1024.41,-622.48 1030.41,-618.88"/>
</g>
<!-- INTF&#45;IF_XCO_TEXT -->
<g id="node19" class="node">
<title>INTF&#45;IF_XCO_TEXT</title>
<g id="a_node19"><a xlink:href="./INTF_IF_XCO_TEXT.html" xlink:title="INTF&#45;IF_XCO_TEXT">
<polygon fill="none" stroke="green" points="1183.52,-468 1040.48,-468 1040.48,-432 1183.52,-432 1183.52,-468"/>
<text text-anchor="middle" x="1112" y="-445.8" font-family="Times,serif" font-size="14.00">INTF&#45;IF_XCO_TEXT</text>
</a>
</g>
</g>
<!-- INTF&#45;IF_XCO_MESSAGE_SHORT_TEXT&#45;&gt;INTF&#45;IF_XCO_TEXT -->
<g id="edge30" class="edge">
<title>INTF&#45;IF_XCO_MESSAGE_SHORT_TEXT&#45;&gt;INTF&#45;IF_XCO_TEXT</title>
<path fill="none" stroke="black" d="M1081.8,-647.87C1093.77,-638.84 1106.5,-626.59 1113,-612 1132.41,-568.46 1125.52,-511.48 1118.75,-478.29"/>
<polygon fill="black" stroke="black" points="1122.14,-477.42 1116.59,-468.4 1115.3,-478.91 1122.14,-477.42"/>
</g>
<!-- INTF&#45;IF_XCO_L10N_TEXT&#45;&gt;INTF&#45;IF_XCO_TEXT -->
<g id="edge33" class="edge">
<title>INTF&#45;IF_XCO_L10N_TEXT&#45;&gt;INTF&#45;IF_XCO_TEXT</title>
<path fill="none" stroke="black" d="M1029.41,-575.64C1038.98,-565.65 1050.76,-552.62 1060,-540 1074.77,-519.84 1088.9,-495.19 1098.69,-476.95"/>
<polygon fill="black" stroke="black" points="1101.82,-478.53 1103.4,-468.05 1095.63,-475.25 1101.82,-478.53"/>
</g>
<!-- DTEL&#45;SPRAS -->
<g id="node33" class="node">
<title>DTEL&#45;SPRAS</title>
<g id="a_node33"><a xlink:href="./DTEL_SPRAS.html" xlink:title="DTEL&#45;SPRAS">
<polygon fill="none" stroke="green" points="1050.72,-540 951.28,-540 951.28,-504 1050.72,-504 1050.72,-540"/>
<text text-anchor="middle" x="1001" y="-517.8" font-family="Times,serif" font-size="14.00">DTEL&#45;SPRAS</text>
</a>
</g>
</g>
<!-- INTF&#45;IF_XCO_L10N_TEXT&#45;&gt;DTEL&#45;SPRAS -->
<g id="edge32" class="edge">
<title>INTF&#45;IF_XCO_L10N_TEXT&#45;&gt;DTEL&#45;SPRAS</title>
<path fill="none" stroke="black" d="M1009.28,-575.7C1008.07,-567.98 1006.61,-558.71 1005.26,-550.11"/>
<polygon fill="black" stroke="black" points="1008.7,-549.44 1003.69,-540.1 1001.78,-550.53 1008.7,-549.44"/>
</g>
<!-- INTF&#45;IF_XCO_STRINGS -->
<g id="node20" class="node">
<title>INTF&#45;IF_XCO_STRINGS</title>
<g id="a_node20"><a xlink:href="./INTF_IF_XCO_STRINGS.html" xlink:title="INTF&#45;IF_XCO_STRINGS">
<polygon fill="none" stroke="green" points="1195.08,-396 1028.92,-396 1028.92,-360 1195.08,-360 1195.08,-396"/>
<text text-anchor="middle" x="1112" y="-373.8" font-family="Times,serif" font-size="14.00">INTF&#45;IF_XCO_STRINGS</text>
</a>
</g>
</g>
<!-- INTF&#45;IF_XCO_TEXT&#45;&gt;INTF&#45;IF_XCO_STRINGS -->
<g id="edge34" class="edge">
<title>INTF&#45;IF_XCO_TEXT&#45;&gt;INTF&#45;IF_XCO_STRINGS</title>
<path fill="none" stroke="black" d="M1106.08,-431.7C1105.29,-423.98 1105.06,-414.71 1105.4,-406.11"/>
<polygon fill="black" stroke="black" points="1108.9,-406.32 1106.1,-396.1 1101.92,-405.84 1108.9,-406.32"/>
</g>
<!-- INTF&#45;IF_XCO_STRINGS&#45;&gt;INTF&#45;IF_XCO_NEWS -->
<g id="edge39" class="edge">
<title>INTF&#45;IF_XCO_STRINGS&#45;&gt;INTF&#45;IF_XCO_NEWS</title>
<path fill="none" stroke="black" d="M1195.28,-392.38C1308.75,-413.01 1498,-457 1498,-521 1498,-739 1498,-739 1498,-739 1498,-833.09 1189.99,-865.96 1037.07,-876.49"/>
<polygon fill="black" stroke="black" points="1036.53,-873.02 1026.78,-877.18 1037,-880 1036.53,-873.02"/>
</g>
<!-- INTF&#45;IF_XCO_STRINGS&#45;&gt;INTF&#45;IF_XCO_TEXT -->
<g id="edge40" class="edge">
<title>INTF&#45;IF_XCO_STRINGS&#45;&gt;INTF&#45;IF_XCO_TEXT</title>
<path fill="none" stroke="black" d="M1117.9,-396.1C1118.7,-403.79 1118.94,-413.05 1118.6,-421.67"/>
<polygon fill="black" stroke="black" points="1115.11,-421.48 1117.92,-431.7 1122.09,-421.96 1115.11,-421.48"/>
</g>
<!-- INTF&#45;IF_XCO_STRING_ITERABLE -->
<g id="node21" class="node">
<title>INTF&#45;IF_XCO_STRING_ITERABLE</title>
<g id="a_node21"><a xlink:href="./INTF_IF_XCO_STRING_ITERABLE.html" xlink:title="INTF&#45;IF_XCO_STRING_ITERABLE">
<polygon fill="none" stroke="green" points="1508.45,-324 1275.55,-324 1275.55,-288 1508.45,-288 1508.45,-324"/>
<text text-anchor="middle" x="1392" y="-301.8" font-family="Times,serif" font-size="14.00">INTF&#45;IF_XCO_STRING_ITERABLE</text>
</a>
</g>
</g>
<!-- INTF&#45;IF_XCO_STRINGS&#45;&gt;INTF&#45;IF_XCO_STRING_ITERABLE -->
<g id="edge41" class="edge">
<title>INTF&#45;IF_XCO_STRINGS&#45;&gt;INTF&#45;IF_XCO_STRING_ITERABLE</title>
<path fill="none" stroke="black" d="M1180.14,-359.97C1220.45,-349.89 1271.67,-337.08 1313.65,-326.59"/>
<polygon fill="black" stroke="black" points="1314.7,-329.93 1323.56,-324.11 1313.01,-323.14 1314.7,-329.93"/>
</g>
<!-- INTF&#45;IF_XCO_STRING -->
<g id="node24" class="node">
<title>INTF&#45;IF_XCO_STRING</title>
<g id="a_node24"><a xlink:href="./INTF_IF_XCO_STRING.html" xlink:title="INTF&#45;IF_XCO_STRING">
<polygon fill="none" stroke="green" points="1036.3,-180 877.7,-180 877.7,-144 1036.3,-144 1036.3,-180"/>
<text text-anchor="middle" x="957" y="-157.8" font-family="Times,serif" font-size="14.00">INTF&#45;IF_XCO_STRING</text>
</a>
</g>
</g>
<!-- INTF&#45;IF_XCO_STRINGS&#45;&gt;INTF&#45;IF_XCO_STRING -->
<g id="edge37" class="edge">
<title>INTF&#45;IF_XCO_STRINGS&#45;&gt;INTF&#45;IF_XCO_STRING</title>
<path fill="none" stroke="black" d="M1028.69,-359.98C1008.66,-352.08 989.27,-340.62 976,-324 945.2,-285.42 943.33,-224.91 948.12,-190.1"/>
<polygon fill="black" stroke="black" points="951.58,-190.62 949.8,-180.17 944.68,-189.45 951.58,-190.62"/>
</g>
<!-- INTF&#45;IF_XCO_STRING_COMPOSITION -->
<g id="node29" class="node">
<title>INTF&#45;IF_XCO_STRING_COMPOSITION</title>
<g id="a_node29"><a xlink:href="./INTF_IF_XCO_STRING_COMPOSITION.html" xlink:title="INTF&#45;IF_XCO_STRING_COMPOSITION">
<polygon fill="none" stroke="green" points="920.45,-324 659.55,-324 659.55,-288 920.45,-288 920.45,-324"/>
<text text-anchor="middle" x="790" y="-301.8" font-family="Times,serif" font-size="14.00">INTF&#45;IF_XCO_STRING_COMPOSITION</text>
</a>
</g>
</g>
<!-- INTF&#45;IF_XCO_STRINGS&#45;&gt;INTF&#45;IF_XCO_STRING_COMPOSITION -->
<g id="edge38" class="edge">
<title>INTF&#45;IF_XCO_STRINGS&#45;&gt;INTF&#45;IF_XCO_STRING_COMPOSITION</title>
<path fill="none" stroke="black" d="M1028.59,-360.14C980.51,-349.93 920.32,-336.86 872.4,-326.24"/>
<polygon fill="black" stroke="black" points="872.9,-322.76 862.37,-324.01 871.38,-329.6 872.9,-322.76"/>
</g>
<!-- TTYP&#45;STRING_TABLE -->
<g id="node30" class="node">
<title>TTYP&#45;STRING_TABLE</title>
<g id="a_node30"><a xlink:href="./TTYP_STRING_TABLE.html" xlink:title="TTYP&#45;STRING_TABLE">
<polygon fill="none" stroke="green" points="1152.3,-324 993.7,-324 993.7,-288 1152.3,-288 1152.3,-324"/>
<text text-anchor="middle" x="1073" y="-301.8" font-family="Times,serif" font-size="14.00">TTYP&#45;STRING_TABLE</text>
</a>
</g>
</g>
<!-- INTF&#45;IF_XCO_STRINGS&#45;&gt;TTYP&#45;STRING_TABLE -->
<g id="edge36" class="edge">
<title>INTF&#45;IF_XCO_STRINGS&#45;&gt;TTYP&#45;STRING_TABLE</title>
<path fill="none" stroke="black" d="M1102.36,-359.7C1097.87,-351.64 1092.44,-341.89 1087.48,-332.98"/>
<polygon fill="black" stroke="black" points="1090.45,-331.14 1082.53,-324.1 1084.34,-334.54 1090.45,-331.14"/>
</g>
<!-- DTEL&#45;INT4 -->
<g id="node31" class="node">
<title>DTEL&#45;INT4</title>
<g id="a_node31"><a xlink:href="./DTEL_INT4.html" xlink:title="DTEL&#45;INT4">
<polygon fill="none" stroke="green" points="1257.25,-324 1170.75,-324 1170.75,-288 1257.25,-288 1257.25,-324"/>
<text text-anchor="middle" x="1214" y="-301.8" font-family="Times,serif" font-size="14.00">DTEL&#45;INT4</text>
</a>
</g>
</g>
<!-- INTF&#45;IF_XCO_STRINGS&#45;&gt;DTEL&#45;INT4 -->
<g id="edge35" class="edge">
<title>INTF&#45;IF_XCO_STRINGS&#45;&gt;DTEL&#45;INT4</title>
<path fill="none" stroke="black" d="M1136.95,-359.88C1150.04,-350.89 1166.26,-339.76 1180.44,-330.03"/>
<polygon fill="black" stroke="black" points="1182.69,-332.73 1188.95,-324.19 1178.73,-326.96 1182.69,-332.73"/>
</g>
<!-- INTF&#45;IF_XCO_STRING_ITERATOR -->
<g id="node22" class="node">
<title>INTF&#45;IF_XCO_STRING_ITERATOR</title>
<g id="a_node22"><a xlink:href="./INTF_IF_XCO_STRING_ITERATOR.html" xlink:title="INTF&#45;IF_XCO_STRING_ITERATOR">
<polygon fill="none" stroke="green" points="1567.01,-252 1332.99,-252 1332.99,-216 1567.01,-216 1567.01,-252"/>
<text text-anchor="middle" x="1450" y="-229.8" font-family="Times,serif" font-size="14.00">INTF&#45;IF_XCO_STRING_ITERATOR</text>
</a>
</g>
</g>
<!-- INTF&#45;IF_XCO_STRING_ITERABLE&#45;&gt;INTF&#45;IF_XCO_STRING_ITERATOR -->
<g id="edge42" class="edge">
<title>INTF&#45;IF_XCO_STRING_ITERABLE&#45;&gt;INTF&#45;IF_XCO_STRING_ITERATOR</title>
<path fill="none" stroke="black" d="M1406.34,-287.7C1413.29,-279.3 1421.77,-269.07 1429.4,-259.86"/>
<polygon fill="black" stroke="black" points="1432.14,-262.04 1435.83,-252.1 1426.75,-257.57 1432.14,-262.04"/>
</g>
<!-- INTF&#45;IF_XCO_ITERATOR -->
<g id="node23" class="node">
<title>INTF&#45;IF_XCO_ITERATOR</title>
<g id="a_node23"><a xlink:href="./INTF_IF_XCO_ITERATOR.html" xlink:title="INTF&#45;IF_XCO_ITERATOR">
<polygon fill="none" stroke="green" points="1538.46,-180 1361.54,-180 1361.54,-144 1538.46,-144 1538.46,-180"/>
<text text-anchor="middle" x="1450" y="-157.8" font-family="Times,serif" font-size="14.00">INTF&#45;IF_XCO_ITERATOR</text>
</a>
</g>
</g>
<!-- INTF&#45;IF_XCO_STRING_ITERATOR&#45;&gt;INTF&#45;IF_XCO_ITERATOR -->
<g id="edge44" class="edge">
<title>INTF&#45;IF_XCO_STRING_ITERATOR&#45;&gt;INTF&#45;IF_XCO_ITERATOR</title>
<path fill="none" stroke="black" d="M1450,-215.7C1450,-207.98 1450,-198.71 1450,-190.11"/>
<polygon fill="black" stroke="black" points="1453.5,-190.1 1450,-180.1 1446.5,-190.1 1453.5,-190.1"/>
</g>
<!-- INTF&#45;IF_XCO_STRING_ITERATOR&#45;&gt;INTF&#45;IF_XCO_STRING -->
<g id="edge43" class="edge">
<title>INTF&#45;IF_XCO_STRING_ITERATOR&#45;&gt;INTF&#45;IF_XCO_STRING</title>
<path fill="none" stroke="black" d="M1332.85,-216.37C1245.05,-203.9 1126.71,-187.1 1046.44,-175.7"/>
<polygon fill="black" stroke="black" points="1046.75,-172.21 1036.35,-174.27 1045.76,-179.14 1046.75,-172.21"/>
</g>
<!-- INTF&#45;IF_XCO_STRING&#45;&gt;INTF&#45;IF_XCO_NEWS -->
<g id="edge50" class="edge">
<title>INTF&#45;IF_XCO_STRING&#45;&gt;INTF&#45;IF_XCO_NEWS</title>
<path fill="none" stroke="black" d="M877.46,-166.47C647.82,-177.52 0,-216.56 0,-305 0,-739 0,-739 0,-739 0,-826.46 636.05,-865.79 868.9,-877.26"/>
<polygon fill="black" stroke="black" points="868.85,-880.76 879.01,-877.75 869.2,-873.77 868.85,-880.76"/>
</g>
<!-- INTF&#45;IF_XCO_STRING&#45;&gt;INTF&#45;IF_XCO_MESSAGE -->
<g id="edge47" class="edge">
<title>INTF&#45;IF_XCO_STRING&#45;&gt;INTF&#45;IF_XCO_MESSAGE</title>
<path fill="none" stroke="black" d="M1036.34,-163.75C1104.69,-167.17 1204.44,-178.93 1283,-216 1304.93,-226.35 1302.19,-241.4 1324,-252 1402.48,-290.15 1454.51,-227.1 1517,-288 1545.97,-316.23 1536,-336.55 1536,-377 1536,-451 1536,-451 1536,-451 1536,-562.83 1530.7,-617.22 1441,-684 1405.62,-710.34 1136.74,-726.22 988.83,-733.05"/>
<polygon fill="black" stroke="black" points="988.66,-729.56 978.83,-733.51 988.98,-736.55 988.66,-729.56"/>
</g>
<!-- INTF&#45;IF_XCO_STRING&#45;&gt;INTF&#45;IF_XCO_TEXT -->
<g id="edge51" class="edge">
<title>INTF&#45;IF_XCO_STRING&#45;&gt;INTF&#45;IF_XCO_TEXT</title>
<path fill="none" stroke="black" d="M877.52,-173.98C766.28,-192.7 584.8,-237.46 651,-324 662.72,-339.33 901.15,-398.46 1030.39,-429.58"/>
<polygon fill="black" stroke="black" points="1029.72,-433.02 1040.26,-431.96 1031.35,-426.22 1029.72,-433.02"/>
</g>
<!-- INTF&#45;IF_XCO_STRING&#45;&gt;INTF&#45;IF_XCO_STRINGS -->
<g id="edge45" class="edge">
<title>INTF&#45;IF_XCO_STRING&#45;&gt;INTF&#45;IF_XCO_STRINGS</title>
<path fill="none" stroke="black" d="M960.21,-180.17C961.26,-212.15 960.01,-281.43 994,-324 1005.09,-337.89 1020.46,-348.18 1036.47,-355.8"/>
<polygon fill="black" stroke="black" points="1035.38,-359.14 1045.94,-359.98 1038.2,-352.74 1035.38,-359.14"/>
</g>
<!-- INTF&#45;IF_XCO_STRING&#45;&gt;INTF&#45;IF_XCO_STRING_ITERABLE -->
<g id="edge52" class="edge">
<title>INTF&#45;IF_XCO_STRING&#45;&gt;INTF&#45;IF_XCO_STRING_ITERABLE</title>
<path fill="none" stroke="black" d="M1036.29,-166.47C1096.76,-171.66 1180.82,-184.49 1248,-216 1270.57,-226.58 1270.29,-238.13 1291,-252 1308.23,-263.54 1328.27,-274.51 1345.94,-283.45"/>
<polygon fill="black" stroke="black" points="1344.42,-286.6 1354.93,-287.92 1347.54,-280.33 1344.42,-286.6"/>
</g>
<!-- INTF&#45;IF_XCO_XSTRING -->
<g id="node25" class="node">
<title>INTF&#45;IF_XCO_XSTRING</title>
<g id="a_node25"><a xlink:href="./INTF_IF_XCO_XSTRING.html" xlink:title="INTF&#45;IF_XCO_XSTRING">
<polygon fill="none" stroke="green" points="1041.41,-108 872.59,-108 872.59,-72 1041.41,-72 1041.41,-108"/>
<text text-anchor="middle" x="957" y="-85.8" font-family="Times,serif" font-size="14.00">INTF&#45;IF_XCO_XSTRING</text>
</a>
</g>
</g>
<!-- INTF&#45;IF_XCO_STRING&#45;&gt;INTF&#45;IF_XCO_XSTRING -->
<g id="edge49" class="edge">
<title>INTF&#45;IF_XCO_STRING&#45;&gt;INTF&#45;IF_XCO_XSTRING</title>
<path fill="none" stroke="black" d="M951.08,-143.7C950.29,-135.98 950.06,-126.71 950.4,-118.11"/>
<polygon fill="black" stroke="black" points="953.9,-118.32 951.1,-108.1 946.92,-117.84 953.9,-118.32"/>
</g>
<!-- INTF&#45;IF_XCO_STRING_XSTRING_CNVRSN -->
<g id="node27" class="node">
<title>INTF&#45;IF_XCO_STRING_XSTRING_CNVRSN</title>
<g id="a_node27"><a xlink:href="./INTF_IF_XCO_STRING_XSTRING_CNVRSN.html" xlink:title="INTF&#45;IF_XCO_STRING_XSTRING_CNVRSN">
<polygon fill="none" stroke="green" points="854.73,-108 565.27,-108 565.27,-72 854.73,-72 854.73,-108"/>
<text text-anchor="middle" x="710" y="-85.8" font-family="Times,serif" font-size="14.00">INTF&#45;IF_XCO_STRING_XSTRING_CNVRSN</text>
</a>
</g>
</g>
<!-- INTF&#45;IF_XCO_STRING&#45;&gt;INTF&#45;IF_XCO_STRING_XSTRING_CNVRSN -->
<g id="edge48" class="edge">
<title>INTF&#45;IF_XCO_STRING&#45;&gt;INTF&#45;IF_XCO_STRING_XSTRING_CNVRSN</title>
<path fill="none" stroke="black" d="M896.89,-143.97C861.63,-133.97 816.91,-121.3 780.06,-110.85"/>
<polygon fill="black" stroke="black" points="780.95,-107.47 770.38,-108.11 779.04,-114.2 780.95,-107.47"/>
</g>
<!-- INTF&#45;IF_XCO_STRING_DECOMPOSITION -->
<g id="node28" class="node">
<title>INTF&#45;IF_XCO_STRING_DECOMPOSITION</title>
<g id="a_node28"><a xlink:href="./INTF_IF_XCO_STRING_DECOMPOSITION.html" xlink:title="INTF&#45;IF_XCO_STRING_DECOMPOSITION">
<polygon fill="none" stroke="green" points="1338.61,-108 1059.39,-108 1059.39,-72 1338.61,-72 1338.61,-108"/>
<text text-anchor="middle" x="1199" y="-85.8" font-family="Times,serif" font-size="14.00">INTF&#45;IF_XCO_STRING_DECOMPOSITION</text>
</a>
</g>
</g>
<!-- INTF&#45;IF_XCO_STRING&#45;&gt;INTF&#45;IF_XCO_STRING_DECOMPOSITION -->
<g id="edge46" class="edge">
<title>INTF&#45;IF_XCO_STRING&#45;&gt;INTF&#45;IF_XCO_STRING_DECOMPOSITION</title>
<path fill="none" stroke="black" d="M1010,-143.97C1043.5,-133.97 1087.22,-121.3 1124.21,-110.85"/>
<polygon fill="black" stroke="black" points="1125.27,-114.19 1133.95,-108.11 1123.38,-107.45 1125.27,-114.19"/>
</g>
<!-- INTF&#45;IF_XCO_XSTRING&#45;&gt;INTF&#45;IF_XCO_STRING -->
<g id="edge54" class="edge">
<title>INTF&#45;IF_XCO_XSTRING&#45;&gt;INTF&#45;IF_XCO_STRING</title>
<path fill="none" stroke="black" d="M962.9,-108.1C963.7,-115.79 963.94,-125.05 963.6,-133.67"/>
<polygon fill="black" stroke="black" points="960.11,-133.48 962.92,-143.7 967.09,-133.96 960.11,-133.48"/>
</g>
<!-- INTF&#45;IF_XCO_XSTRING_STRING_CNVRSN -->
<g id="node26" class="node">
<title>INTF&#45;IF_XCO_XSTRING_STRING_CNVRSN</title>
<g id="a_node26"><a xlink:href="./INTF_IF_XCO_XSTRING_STRING_CNVRSN.html" xlink:title="INTF&#45;IF_XCO_XSTRING_STRING_CNVRSN">
<polygon fill="none" stroke="green" points="1101.73,-36 812.27,-36 812.27,0 1101.73,0 1101.73,-36"/>
<text text-anchor="middle" x="957" y="-13.8" font-family="Times,serif" font-size="14.00">INTF&#45;IF_XCO_XSTRING_STRING_CNVRSN</text>
</a>
</g>
</g>
<!-- INTF&#45;IF_XCO_XSTRING&#45;&gt;INTF&#45;IF_XCO_XSTRING_STRING_CNVRSN -->
<g id="edge53" class="edge">
<title>INTF&#45;IF_XCO_XSTRING&#45;&gt;INTF&#45;IF_XCO_XSTRING_STRING_CNVRSN</title>
<path fill="none" stroke="black" d="M957,-71.7C957,-63.98 957,-54.71 957,-46.11"/>
<polygon fill="black" stroke="black" points="960.5,-46.1 957,-36.1 953.5,-46.1 960.5,-46.1"/>
</g>
<!-- INTF&#45;IF_XCO_STRING_DECOMPOSITION&#45;&gt;INTF&#45;IF_XCO_STRINGS -->
<g id="edge56" class="edge">
<title>INTF&#45;IF_XCO_STRING_DECOMPOSITION&#45;&gt;INTF&#45;IF_XCO_STRINGS</title>
<path fill="none" stroke="black" d="M1338.9,-98.32C1421.05,-105.26 1514.89,-118.59 1547,-144 1585.97,-174.84 1592.73,-205.2 1576,-252 1562.08,-290.96 1553.16,-303.9 1517,-324 1465.11,-352.84 1307.87,-366.62 1205.27,-372.71"/>
<polygon fill="black" stroke="black" points="1204.99,-369.22 1195.2,-373.29 1205.39,-376.21 1204.99,-369.22"/>
</g>
<!-- INTF&#45;IF_XCO_STRING_DECOMPOSITION&#45;&gt;INTF&#45;IF_XCO_STRING -->
<g id="edge55" class="edge">
<title>INTF&#45;IF_XCO_STRING_DECOMPOSITION&#45;&gt;INTF&#45;IF_XCO_STRING</title>
<path fill="none" stroke="black" d="M1145.74,-108.11C1112.19,-118.12 1068.46,-130.79 1031.51,-141.23"/>
<polygon fill="black" stroke="black" points="1030.46,-137.89 1021.78,-143.97 1032.35,-144.62 1030.46,-137.89"/>
</g>
<!-- INTF&#45;IF_XCO_STRING_COMPOSITION&#45;&gt;INTF&#45;IF_XCO_STRINGS -->
<g id="edge57" class="edge">
<title>INTF&#45;IF_XCO_STRING_COMPOSITION&#45;&gt;INTF&#45;IF_XCO_STRINGS</title>
<path fill="none" stroke="black" d="M874.32,-324.05C922.24,-334.24 981.95,-347.2 1029.56,-357.75"/>
<polygon fill="black" stroke="black" points="1029.01,-361.21 1039.53,-359.97 1030.53,-354.38 1029.01,-361.21"/>
</g>
<!-- INTF&#45;IF_XCO_STRING_COMPOSITION&#45;&gt;INTF&#45;IF_XCO_STRING -->
<g id="edge58" class="edge">
<title>INTF&#45;IF_XCO_STRING_COMPOSITION&#45;&gt;INTF&#45;IF_XCO_STRING</title>
<path fill="none" stroke="black" d="M810.14,-287.87C839.86,-262.6 895.55,-215.25 929.15,-186.68"/>
<polygon fill="black" stroke="black" points="931.43,-189.33 936.78,-180.19 926.9,-184 931.43,-189.33"/>
</g>
<!-- DOMA&#45;INT4 -->
<g id="node32" class="node">
<title>DOMA&#45;INT4</title>
<g id="a_node32"><a xlink:href="./DOMA_INT4.html" xlink:title="DOMA&#45;INT4">
<polygon fill="none" stroke="yellow" points="1238.75,-252 1145.25,-252 1145.25,-216 1238.75,-216 1238.75,-252"/>
<text text-anchor="middle" x="1192" y="-229.8" font-family="Times,serif" font-size="14.00">DOMA&#45;INT4</text>
</a>
</g>
</g>
<!-- DTEL&#45;INT4&#45;&gt;DOMA&#45;INT4 -->
<g id="edge59" class="edge">
<title>DTEL&#45;INT4&#45;&gt;DOMA&#45;INT4</title>
<path fill="none" stroke="black" d="M1208.56,-287.7C1206.11,-279.9 1203.16,-270.51 1200.43,-261.83"/>
<polygon fill="black" stroke="black" points="1203.71,-260.59 1197.38,-252.1 1197.04,-262.69 1203.71,-260.59"/>
</g>
<!-- DOMA&#45;SPRAS -->
<g id="node34" class="node">
<title>DOMA&#45;SPRAS</title>
<g id="a_node34"><a xlink:href="./DOMA_SPRAS.html" xlink:title="DOMA&#45;SPRAS">
<polygon fill="none" stroke="green" points="1022.22,-468 915.78,-468 915.78,-432 1022.22,-432 1022.22,-468"/>
<text text-anchor="middle" x="969" y="-445.8" font-family="Times,serif" font-size="14.00">DOMA&#45;SPRAS</text>
</a>
</g>
</g>
<!-- DTEL&#45;SPRAS&#45;&gt;DOMA&#45;SPRAS -->
<g id="edge60" class="edge">
<title>DTEL&#45;SPRAS&#45;&gt;DOMA&#45;SPRAS</title>
<path fill="none" stroke="black" d="M993.09,-503.7C989.45,-495.73 985.05,-486.1 981.01,-477.26"/>
<polygon fill="black" stroke="black" points="984.16,-475.74 976.82,-468.1 977.79,-478.65 984.16,-475.74"/>
</g>
<!-- CLAS&#45;CL_XCO_MESSAGE_TYPE&#45;&gt;INTF&#45;IF_XCO_NEWS -->
<g id="edge63" class="edge">
<title>CLAS&#45;CL_XCO_MESSAGE_TYPE&#45;&gt;INTF&#45;IF_XCO_NEWS</title>
<path fill="none" stroke="black" d="M1289.78,-684.08C1224.09,-722.49 1064.75,-815.66 991.27,-858.62"/>
<polygon fill="black" stroke="black" points="989.2,-855.78 982.33,-863.85 992.73,-861.82 989.2,-855.78"/>
</g>
<!-- CLAS&#45;CL_XCO_MESSAGE_TYPE&#45;&gt;DTEL&#45;SYMSGTY -->
<g id="edge61" class="edge">
<title>CLAS&#45;CL_XCO_MESSAGE_TYPE&#45;&gt;DTEL&#45;SYMSGTY</title>
<path fill="none" stroke="black" d="M1206.34,-649.25C1203.19,-648.82 1200.07,-648.41 1197,-648 1070,-631.16 1037.92,-629.45 911,-612 897.36,-610.12 882.82,-608.03 868.84,-605.97"/>
<polygon fill="black" stroke="black" points="869.2,-602.48 858.79,-604.48 868.17,-609.41 869.2,-602.48"/>
</g>
<!-- CLAS&#45;CL_XCO_ENUM_CONSTANT -->
<g id="node36" class="node">
<title>CLAS&#45;CL_XCO_ENUM_CONSTANT</title>
<g id="a_node36"><a xlink:href="./CLAS_CL_XCO_ENUM_CONSTANT.html" xlink:title="CLAS&#45;CL_XCO_ENUM_CONSTANT">
<polygon fill="none" stroke="yellow" points="1416.24,-612 1175.76,-612 1175.76,-576 1416.24,-576 1416.24,-612"/>
<text text-anchor="middle" x="1296" y="-589.8" font-family="Times,serif" font-size="14.00">CLAS&#45;CL_XCO_ENUM_CONSTANT</text>
</a>
</g>
</g>
<!-- CLAS&#45;CL_XCO_MESSAGE_TYPE&#45;&gt;CLAS&#45;CL_XCO_ENUM_CONSTANT -->
<g id="edge62" class="edge">
<title>CLAS&#45;CL_XCO_MESSAGE_TYPE&#45;&gt;CLAS&#45;CL_XCO_ENUM_CONSTANT</title>
<path fill="none" stroke="black" d="M1313.31,-647.7C1310.75,-639.9 1307.67,-630.51 1304.82,-621.83"/>
<polygon fill="black" stroke="black" points="1308.07,-620.51 1301.62,-612.1 1301.42,-622.7 1308.07,-620.51"/>
</g>
<!-- INTF&#45;IF_XCO_PRINTABLE -->
<g id="node37" class="node">
<title>INTF&#45;IF_XCO_PRINTABLE</title>
<g id="a_node37"><a xlink:href="./INTF_IF_XCO_PRINTABLE.html" xlink:title="INTF&#45;IF_XCO_PRINTABLE">
<polygon fill="none" stroke="green" points="1366.24,-540 1181.76,-540 1181.76,-504 1366.24,-504 1366.24,-540"/>
<text text-anchor="middle" x="1274" y="-517.8" font-family="Times,serif" font-size="14.00">INTF&#45;IF_XCO_PRINTABLE</text>
</a>
</g>
</g>
<!-- CLAS&#45;CL_XCO_ENUM_CONSTANT&#45;&gt;INTF&#45;IF_XCO_PRINTABLE -->
<g id="edge64" class="edge">
<title>CLAS&#45;CL_XCO_ENUM_CONSTANT&#45;&gt;INTF&#45;IF_XCO_PRINTABLE</title>
<path fill="none" stroke="black" d="M1290.56,-575.7C1288.11,-567.9 1285.16,-558.51 1282.43,-549.83"/>
<polygon fill="black" stroke="black" points="1285.71,-548.59 1279.38,-540.1 1279.04,-550.69 1285.71,-548.59"/>
</g>
<!-- INTF&#45;IF_XCO_PRINTABLE&#45;&gt;INTF&#45;IF_XCO_TEXT -->
<g id="edge65" class="edge">
<title>INTF&#45;IF_XCO_PRINTABLE&#45;&gt;INTF&#45;IF_XCO_TEXT</title>
<path fill="none" stroke="black" d="M1234.37,-503.88C1212.22,-494.31 1184.44,-482.3 1160.94,-472.15"/>
<polygon fill="black" stroke="black" points="1162.07,-468.82 1151.5,-468.07 1159.29,-475.25 1162.07,-468.82"/>
</g>
<!-- TABL&#45;SYMSG&#45;&gt;DTEL&#45;SYMSGNO -->
<g id="edge68" class="edge">
<title>TABL&#45;SYMSG&#45;&gt;DTEL&#45;SYMSGNO</title>
<path fill="none" stroke="black" d="M755.44,-647.96C745.9,-638.07 734.39,-625.03 726,-612 697.57,-567.83 716.61,-539.61 678,-504 656.36,-484.04 626.75,-471.52 599.49,-463.7"/>
<polygon fill="black" stroke="black" points="600.14,-460.25 589.57,-461.03 598.32,-467.01 600.14,-460.25"/>
</g>
<!-- TABL&#45;SYMSG&#45;&gt;DTEL&#45;SYMSGID -->
<g id="edge67" class="edge">
<title>TABL&#45;SYMSG&#45;&gt;DTEL&#45;SYMSGID</title>
<path fill="none" stroke="black" d="M747.26,-647.84C734.19,-638.3 718.65,-625.62 707,-612 671.02,-569.94 690.1,-536.08 645,-504 643.91,-503.23 517.18,-479.43 434.6,-463.99"/>
<polygon fill="black" stroke="black" points="435.24,-460.55 424.76,-462.15 433.95,-467.43 435.24,-460.55"/>
</g>
<!-- TABL&#45;SYMSG&#45;&gt;DTEL&#45;SYMSGTY -->
<g id="edge66" class="edge">
<title>TABL&#45;SYMSG&#45;&gt;DTEL&#45;SYMSGTY</title>
<path fill="none" stroke="black" d="M778.93,-647.7C781.61,-639.9 784.83,-630.51 787.8,-621.83"/>
<polygon fill="black" stroke="black" points="791.2,-622.7 791.14,-612.1 784.58,-620.43 791.2,-622.7"/>
</g>
<!-- TABL&#45;SYMSG&#45;&gt;DTEL&#45;SYMSGV -->
<g id="edge69" class="edge">
<title>TABL&#45;SYMSG&#45;&gt;DTEL&#45;SYMSGV</title>
<path fill="none" stroke="black" d="M725.3,-647.97C697.92,-638.19 663.34,-625.84 634.47,-615.52"/>
<polygon fill="black" stroke="black" points="635.5,-612.18 624.91,-612.11 633.15,-618.77 635.5,-612.18"/>
</g>
</g>
</svg>
