<?xml version="1.0" encoding="UTF-8" standalone="no"?>
<!DOCTYPE svg PUBLIC "-//W3C//DTD SVG 1.1//EN"
 "http://www.w3.org/Graphics/SVG/1.1/DTD/svg11.dtd">
<!-- Generated by graphviz version 2.47.3 (20210619.1520)
 -->
<!-- Title: G Pages: 1 -->
<svg width="4938pt" height="260pt"
 viewBox="0.00 0.00 4938.18 260.00" xmlns="http://www.w3.org/2000/svg" xmlns:xlink="http://www.w3.org/1999/xlink">
<g id="graph0" class="graph" transform="scale(1 1) rotate(0) translate(4 256)">
<title>G</title>
<polygon fill="white" stroke="transparent" points="-4,4 -4,-256 4934.18,-256 4934.18,4 -4,4"/>
<!-- INTF&#45;IF_APS_IAM_BU_CAT_RESTR_TYPE -->
<g id="node1" class="node">
<title>INTF&#45;IF_APS_IAM_BU_CAT_RESTR_TYPE</title>
<polygon fill="none" stroke="yellow" points="2557.06,-252 2271.89,-252 2271.89,-216 2557.06,-216 2557.06,-252"/>
<text text-anchor="middle" x="2414.48" y="-229.8" font-family="Times,serif" font-size="14.00">INTF&#45;IF_APS_IAM_BU_CAT_RESTR_TYPE</text>
</g>
<!-- DTEL&#45;CONVEXIT -->
<g id="node2" class="node">
<title>DTEL&#45;CONVEXIT</title>
<g id="a_node2"><a xlink:href="./DTEL_CONVEXIT.html" xlink:title="DTEL&#45;CONVEXIT">
<polygon fill="none" stroke="yellow" points="139.43,-180 11.52,-180 11.52,-144 139.43,-144 139.43,-180"/>
<text text-anchor="middle" x="75.48" y="-157.8" font-family="Times,serif" font-size="14.00">DTEL&#45;CONVEXIT</text>
</a>
</g>
</g>
<!-- INTF&#45;IF_APS_IAM_BU_CAT_RESTR_TYPE&#45;&gt;DTEL&#45;CONVEXIT -->
<g id="edge23" class="edge">
<title>INTF&#45;IF_APS_IAM_BU_CAT_RESTR_TYPE&#45;&gt;DTEL&#45;CONVEXIT</title>
<path fill="none" stroke="black" d="M2271.65,-233.33C1841.78,-233.73 564.35,-230.51 151.48,-180 150.87,-179.93 150.26,-179.85 149.65,-179.77"/>
<polygon fill="black" stroke="black" points="150,-176.28 139.59,-178.27 148.97,-183.21 150,-176.28"/>
</g>
<!-- DTEL&#45;DDOBJNAME -->
<g id="node4" class="node">
<title>DTEL&#45;DDOBJNAME</title>
<g id="a_node4"><a xlink:href="./DTEL_DDOBJNAME.html" xlink:title="DTEL&#45;DDOBJNAME">
<polygon fill="none" stroke="yellow" points="302.71,-180 160.24,-180 160.24,-144 302.71,-144 302.71,-180"/>
<text text-anchor="middle" x="231.48" y="-157.8" font-family="Times,serif" font-size="14.00">DTEL&#45;DDOBJNAME</text>
</a>
</g>
</g>
<!-- INTF&#45;IF_APS_IAM_BU_CAT_RESTR_TYPE&#45;&gt;DTEL&#45;DDOBJNAME -->
<g id="edge22" class="edge">
<title>INTF&#45;IF_APS_IAM_BU_CAT_RESTR_TYPE&#45;&gt;DTEL&#45;DDOBJNAME</title>
<path fill="none" stroke="black" d="M2271.63,-232.64C1863.21,-231.09 695.58,-222.93 315.48,-180 314.57,-179.9 313.66,-179.79 312.75,-179.68"/>
<polygon fill="black" stroke="black" points="313.21,-176.21 302.83,-178.32 312.26,-183.15 313.21,-176.21"/>
</g>
<!-- DTEL&#45;APS_IAM_AUTH_FIELD_NAME -->
<g id="node6" class="node">
<title>DTEL&#45;APS_IAM_AUTH_FIELD_NAME</title>
<g id="a_node6"><a xlink:href="./DTEL_APS_IAM_AUTH_FIELD_NAME.html" xlink:title="DTEL&#45;APS_IAM_AUTH_FIELD_NAME">
<polygon fill="none" stroke="yellow" points="957.02,-180 699.93,-180 699.93,-144 957.02,-144 957.02,-180"/>
<text text-anchor="middle" x="828.48" y="-157.8" font-family="Times,serif" font-size="14.00">DTEL&#45;APS_IAM_AUTH_FIELD_NAME</text>
</a>
</g>
</g>
<!-- INTF&#45;IF_APS_IAM_BU_CAT_RESTR_TYPE&#45;&gt;DTEL&#45;APS_IAM_AUTH_FIELD_NAME -->
<g id="edge21" class="edge">
<title>INTF&#45;IF_APS_IAM_BU_CAT_RESTR_TYPE&#45;&gt;DTEL&#45;APS_IAM_AUTH_FIELD_NAME</title>
<path fill="none" stroke="black" d="M2271.82,-230.7C2015.87,-225.89 1461.83,-212.41 995.48,-180 986.4,-179.37 977.06,-178.64 967.65,-177.84"/>
<polygon fill="black" stroke="black" points="967.68,-174.33 957.42,-176.96 967.08,-181.31 967.68,-174.33"/>
</g>
<!-- DTEL&#45;APS_IAM_FIELD_NAME -->
<g id="node8" class="node">
<title>DTEL&#45;APS_IAM_FIELD_NAME</title>
<g id="a_node8"><a xlink:href="./DTEL_APS_IAM_FIELD_NAME.html" xlink:title="DTEL&#45;APS_IAM_FIELD_NAME">
<polygon fill="none" stroke="yellow" points="1216.15,-180 1004.8,-180 1004.8,-144 1216.15,-144 1216.15,-180"/>
<text text-anchor="middle" x="1110.48" y="-157.8" font-family="Times,serif" font-size="14.00">DTEL&#45;APS_IAM_FIELD_NAME</text>
</a>
</g>
</g>
<!-- INTF&#45;IF_APS_IAM_BU_CAT_RESTR_TYPE&#45;&gt;DTEL&#45;APS_IAM_FIELD_NAME -->
<g id="edge20" class="edge">
<title>INTF&#45;IF_APS_IAM_BU_CAT_RESTR_TYPE&#45;&gt;DTEL&#45;APS_IAM_FIELD_NAME</title>
<path fill="none" stroke="black" d="M2271.62,-230.2C2051.11,-225.05 1614.64,-211.56 1245.48,-180 1239.22,-179.47 1232.81,-178.86 1226.34,-178.2"/>
<polygon fill="black" stroke="black" points="1226.46,-174.69 1216.14,-177.13 1225.72,-181.65 1226.46,-174.69"/>
</g>
<!-- DTEL&#45;APS_IAM_TIMESTAMP_CHANGED -->
<g id="node10" class="node">
<title>DTEL&#45;APS_IAM_TIMESTAMP_CHANGED</title>
<g id="a_node10"><a xlink:href="./DTEL_APS_IAM_TIMESTAMP_CHANGED.html" xlink:title="DTEL&#45;APS_IAM_TIMESTAMP_CHANGED">
<polygon fill="none" stroke="yellow" points="976.09,-108 696.87,-108 696.87,-72 976.09,-72 976.09,-108"/>
<text text-anchor="middle" x="836.48" y="-85.8" font-family="Times,serif" font-size="14.00">DTEL&#45;APS_IAM_TIMESTAMP_CHANGED</text>
</a>
</g>
</g>
<!-- INTF&#45;IF_APS_IAM_BU_CAT_RESTR_TYPE&#45;&gt;DTEL&#45;APS_IAM_TIMESTAMP_CHANGED -->
<g id="edge19" class="edge">
<title>INTF&#45;IF_APS_IAM_BU_CAT_RESTR_TYPE&#45;&gt;DTEL&#45;APS_IAM_TIMESTAMP_CHANGED</title>
<path fill="none" stroke="black" d="M2271.85,-230.2C1989.24,-224.08 1377.42,-207.8 1285.48,-180 1255.71,-171 1254.82,-154.31 1225.48,-144 1202.71,-136 1086.06,-120.63 986.38,-108.49"/>
<polygon fill="black" stroke="black" points="986.53,-104.98 976.18,-107.25 985.68,-111.93 986.53,-104.98"/>
</g>
<!-- DTEL&#45;APS_IAM_AUTH_ACCESS_CAT_RELEV -->
<g id="node12" class="node">
<title>DTEL&#45;APS_IAM_AUTH_ACCESS_CAT_RELEV</title>
<g id="a_node12"><a xlink:href="./DTEL_APS_IAM_AUTH_ACCESS_CAT_RELEV.html" xlink:title="DTEL&#45;APS_IAM_AUTH_ACCESS_CAT_RELEV">
<polygon fill="none" stroke="yellow" points="1990.15,-180 1680.8,-180 1680.8,-144 1990.15,-144 1990.15,-180"/>
<text text-anchor="middle" x="1835.48" y="-157.8" font-family="Times,serif" font-size="14.00">DTEL&#45;APS_IAM_AUTH_ACCESS_CAT_RELEV</text>
</a>
</g>
</g>
<!-- INTF&#45;IF_APS_IAM_BU_CAT_RESTR_TYPE&#45;&gt;DTEL&#45;APS_IAM_AUTH_ACCESS_CAT_RELEV -->
<g id="edge18" class="edge">
<title>INTF&#45;IF_APS_IAM_BU_CAT_RESTR_TYPE&#45;&gt;DTEL&#45;APS_IAM_AUTH_ACCESS_CAT_RELEV</title>
<path fill="none" stroke="black" d="M2273.58,-215.97C2186.63,-205.45 2075.15,-191.98 1986.41,-181.25"/>
<polygon fill="black" stroke="black" points="1986.6,-177.75 1976.25,-180.02 1985.76,-184.69 1986.6,-177.75"/>
</g>
<!-- DTEL&#45;APS_IAM_AGOBJECT -->
<g id="node14" class="node">
<title>DTEL&#45;APS_IAM_AGOBJECT</title>
<g id="a_node14"><a xlink:href="./DTEL_APS_IAM_AGOBJECT.html" xlink:title="DTEL&#45;APS_IAM_AGOBJECT">
<polygon fill="none" stroke="yellow" points="2348.83,-180 2154.13,-180 2154.13,-144 2348.83,-144 2348.83,-180"/>
<text text-anchor="middle" x="2251.48" y="-157.8" font-family="Times,serif" font-size="14.00">DTEL&#45;APS_IAM_AGOBJECT</text>
</a>
</g>
</g>
<!-- INTF&#45;IF_APS_IAM_BU_CAT_RESTR_TYPE&#45;&gt;DTEL&#45;APS_IAM_AGOBJECT -->
<g id="edge17" class="edge">
<title>INTF&#45;IF_APS_IAM_BU_CAT_RESTR_TYPE&#45;&gt;DTEL&#45;APS_IAM_AGOBJECT</title>
<path fill="none" stroke="black" d="M2374.6,-215.88C2352.32,-206.31 2324.36,-194.3 2300.72,-184.15"/>
<polygon fill="black" stroke="black" points="2301.79,-180.8 2291.22,-180.07 2299.03,-187.23 2301.79,-180.8"/>
</g>
<!-- DTEL&#45;APS_IAM_CAT_RTYPE_ACC_CAT_CODE -->
<g id="node16" class="node">
<title>DTEL&#45;APS_IAM_CAT_RTYPE_ACC_CAT_CODE</title>
<g id="a_node16"><a xlink:href="./DTEL_APS_IAM_CAT_RTYPE_ACC_CAT_CODE.html" xlink:title="DTEL&#45;APS_IAM_CAT_RTYPE_ACC_CAT_CODE">
<polygon fill="none" stroke="yellow" points="2595.49,-108 2277.46,-108 2277.46,-72 2595.49,-72 2595.49,-108"/>
<text text-anchor="middle" x="2436.48" y="-85.8" font-family="Times,serif" font-size="14.00">DTEL&#45;APS_IAM_CAT_RTYPE_ACC_CAT_CODE</text>
</a>
</g>
</g>
<!-- INTF&#45;IF_APS_IAM_BU_CAT_RESTR_TYPE&#45;&gt;DTEL&#45;APS_IAM_CAT_RTYPE_ACC_CAT_CODE -->
<g id="edge16" class="edge">
<title>INTF&#45;IF_APS_IAM_BU_CAT_RESTR_TYPE&#45;&gt;DTEL&#45;APS_IAM_CAT_RTYPE_ACC_CAT_CODE</title>
<path fill="none" stroke="black" d="M2407.31,-215.95C2400.71,-197.79 2392.98,-168.37 2400.48,-144 2403.49,-134.22 2408.98,-124.62 2414.79,-116.33"/>
<polygon fill="black" stroke="black" points="2417.67,-118.33 2420.87,-108.23 2412.07,-114.13 2417.67,-118.33"/>
</g>
<!-- DTEL&#45;AGVAL -->
<g id="node18" class="node">
<title>DTEL&#45;AGVAL</title>
<g id="a_node18"><a xlink:href="./DTEL_AGVAL.html" xlink:title="DTEL&#45;AGVAL">
<polygon fill="none" stroke="yellow" points="2719.38,-108 2613.57,-108 2613.57,-72 2719.38,-72 2719.38,-108"/>
<text text-anchor="middle" x="2666.48" y="-85.8" font-family="Times,serif" font-size="14.00">DTEL&#45;AGVAL</text>
</a>
</g>
</g>
<!-- INTF&#45;IF_APS_IAM_BU_CAT_RESTR_TYPE&#45;&gt;DTEL&#45;AGVAL -->
<g id="edge15" class="edge">
<title>INTF&#45;IF_APS_IAM_BU_CAT_RESTR_TYPE&#45;&gt;DTEL&#45;AGVAL</title>
<path fill="none" stroke="black" d="M2413.02,-215.68C2412.35,-195.6 2414.57,-162.85 2433.48,-144 2486.22,-91.41 2525.64,-123.39 2603.56,-107.94"/>
<polygon fill="black" stroke="black" points="2604.76,-111.26 2613.77,-105.68 2603.25,-104.42 2604.76,-111.26"/>
</g>
<!-- DTEL&#45;APS_IAM_AUTH_OBJECT_ID -->
<g id="node20" class="node">
<title>DTEL&#45;APS_IAM_AUTH_OBJECT_ID</title>
<g id="a_node20"><a xlink:href="./DTEL_APS_IAM_AUTH_OBJECT_ID.html" xlink:title="DTEL&#45;APS_IAM_AUTH_OBJECT_ID">
<polygon fill="none" stroke="yellow" points="2979.75,-108 2737.2,-108 2737.2,-72 2979.75,-72 2979.75,-108"/>
<text text-anchor="middle" x="2858.48" y="-85.8" font-family="Times,serif" font-size="14.00">DTEL&#45;APS_IAM_AUTH_OBJECT_ID</text>
</a>
</g>
</g>
<!-- INTF&#45;IF_APS_IAM_BU_CAT_RESTR_TYPE&#45;&gt;DTEL&#45;APS_IAM_AUTH_OBJECT_ID -->
<g id="edge14" class="edge">
<title>INTF&#45;IF_APS_IAM_BU_CAT_RESTR_TYPE&#45;&gt;DTEL&#45;APS_IAM_AUTH_OBJECT_ID</title>
<path fill="none" stroke="black" d="M2552.55,-215.99C2587.46,-208.15 2623.97,-196.7 2655.48,-180 2676.03,-169.1 2673.46,-155.85 2693.48,-144 2717.35,-129.86 2745.44,-119.03 2771.6,-110.96"/>
<polygon fill="black" stroke="black" points="2772.94,-114.22 2781.52,-108 2770.94,-107.51 2772.94,-114.22"/>
</g>
<!-- TABL&#45;APS_IAM_W_AUACTM -->
<g id="node21" class="node">
<title>TABL&#45;APS_IAM_W_AUACTM</title>
<g id="a_node21"><a xlink:href="./TABL_APS_IAM_W_AUACTM.html" xlink:title="TABL&#45;APS_IAM_W_AUACTM">
<polygon fill="none" stroke="yellow" points="2646.94,-180 2442.02,-180 2442.02,-144 2646.94,-144 2646.94,-180"/>
<text text-anchor="middle" x="2544.48" y="-157.8" font-family="Times,serif" font-size="14.00">TABL&#45;APS_IAM_W_AUACTM</text>
</a>
</g>
</g>
<!-- INTF&#45;IF_APS_IAM_BU_CAT_RESTR_TYPE&#45;&gt;TABL&#45;APS_IAM_W_AUACTM -->
<g id="edge13" class="edge">
<title>INTF&#45;IF_APS_IAM_BU_CAT_RESTR_TYPE&#45;&gt;TABL&#45;APS_IAM_W_AUACTM</title>
<path fill="none" stroke="black" d="M2446.28,-215.88C2463.59,-206.55 2485.2,-194.92 2503.73,-184.94"/>
<polygon fill="black" stroke="black" points="2505.41,-188.01 2512.55,-180.19 2502.09,-181.85 2505.41,-188.01"/>
</g>
<!-- DTEL&#45;APS_IAM_BU_CATALOG_ID -->
<g id="node22" class="node">
<title>DTEL&#45;APS_IAM_BU_CATALOG_ID</title>
<g id="a_node22"><a xlink:href="./DTEL_APS_IAM_BU_CATALOG_ID.html" xlink:title="DTEL&#45;APS_IAM_BU_CATALOG_ID">
<polygon fill="none" stroke="yellow" points="2940.86,-180 2702.09,-180 2702.09,-144 2940.86,-144 2940.86,-180"/>
<text text-anchor="middle" x="2821.48" y="-157.8" font-family="Times,serif" font-size="14.00">DTEL&#45;APS_IAM_BU_CATALOG_ID</text>
</a>
</g>
</g>
<!-- INTF&#45;IF_APS_IAM_BU_CAT_RESTR_TYPE&#45;&gt;DTEL&#45;APS_IAM_BU_CATALOG_ID -->
<g id="edge12" class="edge">
<title>INTF&#45;IF_APS_IAM_BU_CAT_RESTR_TYPE&#45;&gt;DTEL&#45;APS_IAM_BU_CATALOG_ID</title>
<path fill="none" stroke="black" d="M2513.52,-215.97C2573.59,-205.63 2650.32,-192.44 2712.16,-181.8"/>
<polygon fill="black" stroke="black" points="2713.08,-185.19 2722.34,-180.05 2711.89,-178.3 2713.08,-185.19"/>
</g>
<!-- DTEL&#45;APS_IAM_CAT_RTYPE_ACC_STATUS -->
<g id="node24" class="node">
<title>DTEL&#45;APS_IAM_CAT_RTYPE_ACC_STATUS</title>
<g id="a_node24"><a xlink:href="./DTEL_APS_IAM_CAT_RTYPE_ACC_STATUS.html" xlink:title="DTEL&#45;APS_IAM_CAT_RTYPE_ACC_STATUS">
<polygon fill="none" stroke="yellow" points="3256.78,-180 2958.18,-180 2958.18,-144 3256.78,-144 3256.78,-180"/>
<text text-anchor="middle" x="3107.48" y="-157.8" font-family="Times,serif" font-size="14.00">DTEL&#45;APS_IAM_CAT_RTYPE_ACC_STATUS</text>
</a>
</g>
</g>
<!-- INTF&#45;IF_APS_IAM_BU_CAT_RESTR_TYPE&#45;&gt;DTEL&#45;APS_IAM_CAT_RTYPE_ACC_STATUS -->
<g id="edge11" class="edge">
<title>INTF&#45;IF_APS_IAM_BU_CAT_RESTR_TYPE&#45;&gt;DTEL&#45;APS_IAM_CAT_RTYPE_ACC_STATUS</title>
<path fill="none" stroke="black" d="M2557.28,-219.18C2662.55,-208.92 2809.52,-194.43 2948.23,-180.12"/>
<polygon fill="black" stroke="black" points="2948.61,-183.6 2958.2,-179.1 2947.9,-176.64 2948.61,-183.6"/>
</g>
<!-- DTEL&#45;APS_IAM_CAT_RTYPE_ACC_F4 -->
<g id="node26" class="node">
<title>DTEL&#45;APS_IAM_CAT_RTYPE_ACC_F4</title>
<g id="a_node26"><a xlink:href="./DTEL_APS_IAM_CAT_RTYPE_ACC_F4.html" xlink:title="DTEL&#45;APS_IAM_CAT_RTYPE_ACC_F4">
<polygon fill="none" stroke="yellow" points="3534.67,-180 3274.28,-180 3274.28,-144 3534.67,-144 3534.67,-180"/>
<text text-anchor="middle" x="3404.48" y="-157.8" font-family="Times,serif" font-size="14.00">DTEL&#45;APS_IAM_CAT_RTYPE_ACC_F4</text>
</a>
</g>
</g>
<!-- INTF&#45;IF_APS_IAM_BU_CAT_RESTR_TYPE&#45;&gt;DTEL&#45;APS_IAM_CAT_RTYPE_ACC_F4 -->
<g id="edge10" class="edge">
<title>INTF&#45;IF_APS_IAM_BU_CAT_RESTR_TYPE&#45;&gt;DTEL&#45;APS_IAM_CAT_RTYPE_ACC_F4</title>
<path fill="none" stroke="black" d="M2557.34,-226.7C2724.35,-218.75 3009.28,-203.33 3264.09,-180.1"/>
<polygon fill="black" stroke="black" points="3264.64,-183.56 3274.28,-179.16 3264,-176.59 3264.64,-183.56"/>
</g>
<!-- DTEL&#45;APS_IAM_CAT_RTYPE_ACC_WRITE -->
<g id="node28" class="node">
<title>DTEL&#45;APS_IAM_CAT_RTYPE_ACC_WRITE</title>
<g id="a_node28"><a xlink:href="./DTEL_APS_IAM_CAT_RTYPE_ACC_WRITE.html" xlink:title="DTEL&#45;APS_IAM_CAT_RTYPE_ACC_WRITE">
<polygon fill="none" stroke="yellow" points="3842.21,-180 3552.74,-180 3552.74,-144 3842.21,-144 3842.21,-180"/>
<text text-anchor="middle" x="3697.48" y="-157.8" font-family="Times,serif" font-size="14.00">DTEL&#45;APS_IAM_CAT_RTYPE_ACC_WRITE</text>
</a>
</g>
</g>
<!-- INTF&#45;IF_APS_IAM_BU_CAT_RESTR_TYPE&#45;&gt;DTEL&#45;APS_IAM_CAT_RTYPE_ACC_WRITE -->
<g id="edge9" class="edge">
<title>INTF&#45;IF_APS_IAM_BU_CAT_RESTR_TYPE&#45;&gt;DTEL&#45;APS_IAM_CAT_RTYPE_ACC_WRITE</title>
<path fill="none" stroke="black" d="M2557.24,-229.18C2769.64,-222.86 3181.67,-208.1 3542.29,-180.06"/>
<polygon fill="black" stroke="black" points="3542.71,-183.54 3552.41,-179.27 3542.17,-176.56 3542.71,-183.54"/>
</g>
<!-- DTEL&#45;APS_IAM_CAT_RTYPE_ACC_READ -->
<g id="node29" class="node">
<title>DTEL&#45;APS_IAM_CAT_RTYPE_ACC_READ</title>
<g id="a_node29"><a xlink:href="./DTEL_APS_IAM_CAT_RTYPE_ACC_READ.html" xlink:title="DTEL&#45;APS_IAM_CAT_RTYPE_ACC_READ">
<polygon fill="none" stroke="yellow" points="4143.99,-180 3860.96,-180 3860.96,-144 4143.99,-144 4143.99,-180"/>
<text text-anchor="middle" x="4002.48" y="-157.8" font-family="Times,serif" font-size="14.00">DTEL&#45;APS_IAM_CAT_RTYPE_ACC_READ</text>
</a>
</g>
</g>
<!-- INTF&#45;IF_APS_IAM_BU_CAT_RESTR_TYPE&#45;&gt;DTEL&#45;APS_IAM_CAT_RTYPE_ACC_READ -->
<g id="edge8" class="edge">
<title>INTF&#45;IF_APS_IAM_BU_CAT_RESTR_TYPE&#45;&gt;DTEL&#45;APS_IAM_CAT_RTYPE_ACC_READ</title>
<path fill="none" stroke="black" d="M2557.19,-231.29C2813.82,-227.43 3370.35,-215.48 3850.39,-180.04"/>
<polygon fill="black" stroke="black" points="3850.93,-183.51 3860.64,-179.28 3850.41,-176.53 3850.93,-183.51"/>
</g>
<!-- DTEL&#45;ORDER -->
<g id="node30" class="node">
<title>DTEL&#45;ORDER</title>
<g id="a_node30"><a xlink:href="./DTEL_ORDER.html" xlink:title="DTEL&#45;ORDER">
<polygon fill="none" stroke="yellow" points="4266.34,-180 4162.61,-180 4162.61,-144 4266.34,-144 4266.34,-180"/>
<text text-anchor="middle" x="4214.48" y="-157.8" font-family="Times,serif" font-size="14.00">DTEL&#45;ORDER</text>
</a>
</g>
</g>
<!-- INTF&#45;IF_APS_IAM_BU_CAT_RESTR_TYPE&#45;&gt;DTEL&#45;ORDER -->
<g id="edge7" class="edge">
<title>INTF&#45;IF_APS_IAM_BU_CAT_RESTR_TYPE&#45;&gt;DTEL&#45;ORDER</title>
<path fill="none" stroke="black" d="M2557.26,-233.08C2911.97,-232.57 3827.37,-226.75 4152.05,-179.94"/>
<polygon fill="black" stroke="black" points="4153.04,-183.33 4162.41,-178.4 4152.01,-176.41 4153.04,-183.33"/>
</g>
<!-- TABL&#45;APS_IAM_ADMIN_DATA -->
<g id="node32" class="node">
<title>TABL&#45;APS_IAM_ADMIN_DATA</title>
<g id="a_node32"><a xlink:href="./TABL_APS_IAM_ADMIN_DATA.html" xlink:title="TABL&#45;APS_IAM_ADMIN_DATA">
<polygon fill="none" stroke="yellow" points="1512.37,-180 1294.59,-180 1294.59,-144 1512.37,-144 1512.37,-180"/>
<text text-anchor="middle" x="1403.48" y="-157.8" font-family="Times,serif" font-size="14.00">TABL&#45;APS_IAM_ADMIN_DATA</text>
</a>
</g>
</g>
<!-- INTF&#45;IF_APS_IAM_BU_CAT_RESTR_TYPE&#45;&gt;TABL&#45;APS_IAM_ADMIN_DATA -->
<g id="edge6" class="edge">
<title>INTF&#45;IF_APS_IAM_BU_CAT_RESTR_TYPE&#45;&gt;TABL&#45;APS_IAM_ADMIN_DATA</title>
<path fill="none" stroke="black" d="M2271.77,-223.12C2071.21,-209.23 1709.61,-184.2 1522.64,-171.25"/>
<polygon fill="black" stroke="black" points="1522.72,-167.75 1512.5,-170.55 1522.24,-174.73 1522.72,-167.75"/>
</g>
<!-- DTEL&#45;AGRFIELD -->
<g id="node37" class="node">
<title>DTEL&#45;AGRFIELD</title>
<g id="a_node37"><a xlink:href="./DTEL_AGRFIELD.html" xlink:title="DTEL&#45;AGRFIELD">
<polygon fill="none" stroke="yellow" points="4410.11,-180 4284.85,-180 4284.85,-144 4410.11,-144 4410.11,-180"/>
<text text-anchor="middle" x="4347.48" y="-157.8" font-family="Times,serif" font-size="14.00">DTEL&#45;AGRFIELD</text>
</a>
</g>
</g>
<!-- INTF&#45;IF_APS_IAM_BU_CAT_RESTR_TYPE&#45;&gt;DTEL&#45;AGRFIELD -->
<g id="edge5" class="edge">
<title>INTF&#45;IF_APS_IAM_BU_CAT_RESTR_TYPE&#45;&gt;DTEL&#45;AGRFIELD</title>
<path fill="none" stroke="black" d="M2557.14,-232.69C2929.28,-231.28 3924.29,-223.55 4274.61,-179.9"/>
<polygon fill="black" stroke="black" points="4275.31,-183.33 4284.79,-178.59 4274.42,-176.39 4275.31,-183.33"/>
</g>
<!-- DTEL&#45;AGOBJECT -->
<g id="node39" class="node">
<title>DTEL&#45;AGOBJECT</title>
<g id="a_node39"><a xlink:href="./DTEL_AGOBJECT.html" xlink:title="DTEL&#45;AGOBJECT">
<polygon fill="none" stroke="yellow" points="2136.44,-180 2008.51,-180 2008.51,-144 2136.44,-144 2136.44,-180"/>
<text text-anchor="middle" x="2072.48" y="-157.8" font-family="Times,serif" font-size="14.00">DTEL&#45;AGOBJECT</text>
</a>
</g>
</g>
<!-- INTF&#45;IF_APS_IAM_BU_CAT_RESTR_TYPE&#45;&gt;DTEL&#45;AGOBJECT -->
<g id="edge4" class="edge">
<title>INTF&#45;IF_APS_IAM_BU_CAT_RESTR_TYPE&#45;&gt;DTEL&#45;AGOBJECT</title>
<path fill="none" stroke="black" d="M2324.04,-215.98C2274.32,-206.44 2211.32,-194.03 2146.53,-180.19"/>
<polygon fill="black" stroke="black" points="2147.05,-176.73 2136.54,-178.05 2145.59,-183.57 2147.05,-176.73"/>
</g>
<!-- DTEL&#45;APS_IAM_CAT_RTYPE_FIELD_NAME -->
<g id="node40" class="node">
<title>DTEL&#45;APS_IAM_CAT_RTYPE_FIELD_NAME</title>
<g id="a_node40"><a xlink:href="./DTEL_APS_IAM_CAT_RTYPE_FIELD_NAME.html" xlink:title="DTEL&#45;APS_IAM_CAT_RTYPE_FIELD_NAME">
<polygon fill="none" stroke="yellow" points="621.98,-180 324.98,-180 324.98,-144 621.98,-144 621.98,-180"/>
<text text-anchor="middle" x="473.48" y="-157.8" font-family="Times,serif" font-size="14.00">DTEL&#45;APS_IAM_CAT_RTYPE_FIELD_NAME</text>
</a>
</g>
</g>
<!-- INTF&#45;IF_APS_IAM_BU_CAT_RESTR_TYPE&#45;&gt;DTEL&#45;APS_IAM_CAT_RTYPE_FIELD_NAME -->
<g id="edge3" class="edge">
<title>INTF&#45;IF_APS_IAM_BU_CAT_RESTR_TYPE&#45;&gt;DTEL&#45;APS_IAM_CAT_RTYPE_FIELD_NAME</title>
<path fill="none" stroke="black" d="M2271.9,-230.9C1976.66,-226.06 1276.9,-211.97 690.48,-180 671.68,-178.98 651.98,-177.71 632.44,-176.33"/>
<polygon fill="black" stroke="black" points="632.47,-172.82 622.25,-175.59 631.97,-179.8 632.47,-172.82"/>
</g>
<!-- DTEL&#45;APS_IAM_RTYPE_AGGR_CAT -->
<g id="node41" class="node">
<title>DTEL&#45;APS_IAM_RTYPE_AGGR_CAT</title>
<g id="a_node41"><a xlink:href="./DTEL_APS_IAM_RTYPE_AGGR_CAT.html" xlink:title="DTEL&#45;APS_IAM_RTYPE_AGGR_CAT">
<polygon fill="none" stroke="yellow" points="4677.27,-180 4427.68,-180 4427.68,-144 4677.27,-144 4677.27,-180"/>
<text text-anchor="middle" x="4552.48" y="-157.8" font-family="Times,serif" font-size="14.00">DTEL&#45;APS_IAM_RTYPE_AGGR_CAT</text>
</a>
</g>
</g>
<!-- INTF&#45;IF_APS_IAM_BU_CAT_RESTR_TYPE&#45;&gt;DTEL&#45;APS_IAM_RTYPE_AGGR_CAT -->
<g id="edge2" class="edge">
<title>INTF&#45;IF_APS_IAM_BU_CAT_RESTR_TYPE&#45;&gt;DTEL&#45;APS_IAM_RTYPE_AGGR_CAT</title>
<path fill="none" stroke="black" d="M2557.14,-231.1C2948.96,-225.58 4037.2,-208.2 4417.34,-180.11"/>
<polygon fill="black" stroke="black" points="4417.85,-183.58 4427.56,-179.34 4417.33,-176.6 4417.85,-183.58"/>
</g>
<!-- DTEL&#45;APS_IAM_CAT_RTYPE_ID -->
<g id="node43" class="node">
<title>DTEL&#45;APS_IAM_CAT_RTYPE_ID</title>
<g id="a_node43"><a xlink:href="./DTEL_APS_IAM_CAT_RTYPE_ID.html" xlink:title="DTEL&#45;APS_IAM_CAT_RTYPE_ID">
<polygon fill="none" stroke="yellow" points="4923.88,-180 4699.07,-180 4699.07,-144 4923.88,-144 4923.88,-180"/>
<text text-anchor="middle" x="4811.48" y="-157.8" font-family="Times,serif" font-size="14.00">DTEL&#45;APS_IAM_CAT_RTYPE_ID</text>
</a>
</g>
</g>
<!-- INTF&#45;IF_APS_IAM_BU_CAT_RESTR_TYPE&#45;&gt;DTEL&#45;APS_IAM_CAT_RTYPE_ID -->
<g id="edge1" class="edge">
<title>INTF&#45;IF_APS_IAM_BU_CAT_RESTR_TYPE&#45;&gt;DTEL&#45;APS_IAM_CAT_RTYPE_ID</title>
<path fill="none" stroke="black" d="M2557.33,-231.76C2988.07,-227.69 4270.06,-213.07 4686.48,-180 4687.25,-179.94 4688.04,-179.87 4688.82,-179.81"/>
<polygon fill="black" stroke="black" points="4689.46,-183.27 4699.11,-178.89 4688.83,-176.29 4689.46,-183.27"/>
</g>
<!-- DOMA&#45;CONVEXIT -->
<g id="node3" class="node">
<title>DOMA&#45;CONVEXIT</title>
<g id="a_node3"><a xlink:href="./DOMA_CONVEXIT.html" xlink:title="DOMA&#45;CONVEXIT">
<polygon fill="none" stroke="yellow" points="134.93,-108 0.02,-108 0.02,-72 134.93,-72 134.93,-108"/>
<text text-anchor="middle" x="67.48" y="-85.8" font-family="Times,serif" font-size="14.00">DOMA&#45;CONVEXIT</text>
</a>
</g>
</g>
<!-- DTEL&#45;CONVEXIT&#45;&gt;DOMA&#45;CONVEXIT -->
<g id="edge24" class="edge">
<title>DTEL&#45;CONVEXIT&#45;&gt;DOMA&#45;CONVEXIT</title>
<path fill="none" stroke="black" d="M73.5,-143.7C72.62,-135.98 71.56,-126.71 70.58,-118.11"/>
<polygon fill="black" stroke="black" points="74.04,-117.64 69.43,-108.1 67.09,-118.44 74.04,-117.64"/>
</g>
<!-- DOMA&#45;DDOBJNAME -->
<g id="node5" class="node">
<title>DOMA&#45;DDOBJNAME</title>
<g id="a_node5"><a xlink:href="./DOMA_DDOBJNAME.html" xlink:title="DOMA&#45;DDOBJNAME">
<polygon fill="none" stroke="yellow" points="302.21,-108 152.74,-108 152.74,-72 302.21,-72 302.21,-108"/>
<text text-anchor="middle" x="227.48" y="-85.8" font-family="Times,serif" font-size="14.00">DOMA&#45;DDOBJNAME</text>
</a>
</g>
</g>
<!-- DTEL&#45;DDOBJNAME&#45;&gt;DOMA&#45;DDOBJNAME -->
<g id="edge25" class="edge">
<title>DTEL&#45;DDOBJNAME&#45;&gt;DOMA&#45;DDOBJNAME</title>
<path fill="none" stroke="black" d="M230.49,-143.7C230.05,-135.98 229.52,-126.71 229.03,-118.11"/>
<polygon fill="black" stroke="black" points="232.52,-117.89 228.45,-108.1 225.53,-118.29 232.52,-117.89"/>
</g>
<!-- DOMA&#45;FDNAME -->
<g id="node7" class="node">
<title>DOMA&#45;FDNAME</title>
<g id="a_node7"><a xlink:href="./DOMA_FDNAME.html" xlink:title="DOMA&#45;FDNAME">
<polygon fill="none" stroke="yellow" points="442.5,-108 320.45,-108 320.45,-72 442.5,-72 442.5,-108"/>
<text text-anchor="middle" x="381.48" y="-85.8" font-family="Times,serif" font-size="14.00">DOMA&#45;FDNAME</text>
</a>
</g>
</g>
<!-- DTEL&#45;APS_IAM_AUTH_FIELD_NAME&#45;&gt;DOMA&#45;FDNAME -->
<g id="edge26" class="edge">
<title>DTEL&#45;APS_IAM_AUTH_FIELD_NAME&#45;&gt;DOMA&#45;FDNAME</title>
<path fill="none" stroke="black" d="M699.71,-146.09C629.26,-137.16 540.29,-124.65 452.71,-108.14"/>
<polygon fill="black" stroke="black" points="453.34,-104.7 442.86,-106.27 452.03,-111.58 453.34,-104.7"/>
</g>
<!-- DOMA&#45;APS_IAM_FIELD_NAME -->
<g id="node9" class="node">
<title>DOMA&#45;APS_IAM_FIELD_NAME</title>
<g id="a_node9"><a xlink:href="./DOMA_APS_IAM_FIELD_NAME.html" xlink:title="DOMA&#45;APS_IAM_FIELD_NAME">
<polygon fill="none" stroke="yellow" points="678.65,-108 460.3,-108 460.3,-72 678.65,-72 678.65,-108"/>
<text text-anchor="middle" x="569.48" y="-85.8" font-family="Times,serif" font-size="14.00">DOMA&#45;APS_IAM_FIELD_NAME</text>
</a>
</g>
</g>
<!-- DTEL&#45;APS_IAM_FIELD_NAME&#45;&gt;DOMA&#45;APS_IAM_FIELD_NAME -->
<g id="edge27" class="edge">
<title>DTEL&#45;APS_IAM_FIELD_NAME&#45;&gt;DOMA&#45;APS_IAM_FIELD_NAME</title>
<path fill="none" stroke="black" d="M1004.8,-148.31C921.61,-138.19 802.46,-123.41 688.69,-108.15"/>
<polygon fill="black" stroke="black" points="689.14,-104.68 678.76,-106.82 688.2,-111.62 689.14,-104.68"/>
</g>
<!-- DOMA&#45;TZNTSTMPS -->
<g id="node11" class="node">
<title>DOMA&#45;TZNTSTMPS</title>
<g id="a_node11"><a xlink:href="./DOMA_TZNTSTMPS.html" xlink:title="DOMA&#45;TZNTSTMPS">
<polygon fill="none" stroke="yellow" points="1056.01,-36 912.94,-36 912.94,0 1056.01,0 1056.01,-36"/>
<text text-anchor="middle" x="984.48" y="-13.8" font-family="Times,serif" font-size="14.00">DOMA&#45;TZNTSTMPS</text>
</a>
</g>
</g>
<!-- DTEL&#45;APS_IAM_TIMESTAMP_CHANGED&#45;&gt;DOMA&#45;TZNTSTMPS -->
<g id="edge28" class="edge">
<title>DTEL&#45;APS_IAM_TIMESTAMP_CHANGED&#45;&gt;DOMA&#45;TZNTSTMPS</title>
<path fill="none" stroke="black" d="M872.68,-71.88C892.73,-62.39 917.85,-50.51 939.19,-40.42"/>
<polygon fill="black" stroke="black" points="940.85,-43.51 948.39,-36.07 937.85,-37.18 940.85,-43.51"/>
</g>
<!-- DOMA&#45;APS_IAM_AUTH_ACCESS_CAT_RELEV -->
<g id="node13" class="node">
<title>DOMA&#45;APS_IAM_AUTH_ACCESS_CAT_RELEV</title>
<g id="a_node13"><a xlink:href="./DOMA_APS_IAM_AUTH_ACCESS_CAT_RELEV.html" xlink:title="DOMA&#45;APS_IAM_AUTH_ACCESS_CAT_RELEV">
<polygon fill="none" stroke="yellow" points="2105.65,-108 1789.3,-108 1789.3,-72 2105.65,-72 2105.65,-108"/>
<text text-anchor="middle" x="1947.48" y="-85.8" font-family="Times,serif" font-size="14.00">DOMA&#45;APS_IAM_AUTH_ACCESS_CAT_RELEV</text>
</a>
</g>
</g>
<!-- DTEL&#45;APS_IAM_AUTH_ACCESS_CAT_RELEV&#45;&gt;DOMA&#45;APS_IAM_AUTH_ACCESS_CAT_RELEV -->
<g id="edge29" class="edge">
<title>DTEL&#45;APS_IAM_AUTH_ACCESS_CAT_RELEV&#45;&gt;DOMA&#45;APS_IAM_AUTH_ACCESS_CAT_RELEV</title>
<path fill="none" stroke="black" d="M1862.88,-143.88C1877.38,-134.81 1895.39,-123.55 1911.06,-113.76"/>
<polygon fill="black" stroke="black" points="1913.35,-116.46 1919.97,-108.19 1909.64,-110.52 1913.35,-116.46"/>
</g>
<!-- DOMA&#45;XUOBJECT -->
<g id="node15" class="node">
<title>DOMA&#45;XUOBJECT</title>
<g id="a_node15"><a xlink:href="./DOMA_XUOBJECT.html" xlink:title="DOMA&#45;XUOBJECT">
<polygon fill="none" stroke="yellow" points="2258.94,-108 2124.01,-108 2124.01,-72 2258.94,-72 2258.94,-108"/>
<text text-anchor="middle" x="2191.48" y="-85.8" font-family="Times,serif" font-size="14.00">DOMA&#45;XUOBJECT</text>
</a>
</g>
</g>
<!-- DTEL&#45;APS_IAM_AGOBJECT&#45;&gt;DOMA&#45;XUOBJECT -->
<g id="edge30" class="edge">
<title>DTEL&#45;APS_IAM_AGOBJECT&#45;&gt;DOMA&#45;XUOBJECT</title>
<path fill="none" stroke="black" d="M2236.65,-143.7C2229.45,-135.3 2220.68,-125.07 2212.79,-115.86"/>
<polygon fill="black" stroke="black" points="2215.3,-113.42 2206.14,-108.1 2209.99,-117.97 2215.3,-113.42"/>
</g>
<!-- DOMA&#45;APS_IAM_CAT_RTYPE_ACC_CAT_CODE -->
<g id="node17" class="node">
<title>DOMA&#45;APS_IAM_CAT_RTYPE_ACC_CAT_CODE</title>
<g id="a_node17"><a xlink:href="./DOMA_APS_IAM_CAT_RTYPE_ACC_CAT_CODE.html" xlink:title="DOMA&#45;APS_IAM_CAT_RTYPE_ACC_CAT_CODE">
<polygon fill="none" stroke="yellow" points="2590.99,-36 2265.96,-36 2265.96,0 2590.99,0 2590.99,-36"/>
<text text-anchor="middle" x="2428.48" y="-13.8" font-family="Times,serif" font-size="14.00">DOMA&#45;APS_IAM_CAT_RTYPE_ACC_CAT_CODE</text>
</a>
</g>
</g>
<!-- DTEL&#45;APS_IAM_CAT_RTYPE_ACC_CAT_CODE&#45;&gt;DOMA&#45;APS_IAM_CAT_RTYPE_ACC_CAT_CODE -->
<g id="edge31" class="edge">
<title>DTEL&#45;APS_IAM_CAT_RTYPE_ACC_CAT_CODE&#45;&gt;DOMA&#45;APS_IAM_CAT_RTYPE_ACC_CAT_CODE</title>
<path fill="none" stroke="black" d="M2434.5,-71.7C2433.62,-63.98 2432.56,-54.71 2431.58,-46.11"/>
<polygon fill="black" stroke="black" points="2435.04,-45.64 2430.43,-36.1 2428.09,-46.44 2435.04,-45.64"/>
</g>
<!-- DOMA&#45;XUVALUE -->
<g id="node19" class="node">
<title>DOMA&#45;XUVALUE</title>
<g id="a_node19"><a xlink:href="./DOMA_XUVALUE.html" xlink:title="DOMA&#45;XUVALUE">
<polygon fill="none" stroke="yellow" points="2740.04,-36 2608.91,-36 2608.91,0 2740.04,0 2740.04,-36"/>
<text text-anchor="middle" x="2674.48" y="-13.8" font-family="Times,serif" font-size="14.00">DOMA&#45;XUVALUE</text>
</a>
</g>
</g>
<!-- DTEL&#45;AGVAL&#45;&gt;DOMA&#45;XUVALUE -->
<g id="edge32" class="edge">
<title>DTEL&#45;AGVAL&#45;&gt;DOMA&#45;XUVALUE</title>
<path fill="none" stroke="black" d="M2668.45,-71.7C2669.34,-63.98 2670.4,-54.71 2671.38,-46.11"/>
<polygon fill="black" stroke="black" points="2674.86,-46.44 2672.52,-36.1 2667.91,-45.64 2674.86,-46.44"/>
</g>
<!-- TABL&#45;APS_IAM_W_AUACTM&#45;&gt;DTEL&#45;APS_IAM_CAT_RTYPE_ACC_CAT_CODE -->
<g id="edge35" class="edge">
<title>TABL&#45;APS_IAM_W_AUACTM&#45;&gt;DTEL&#45;APS_IAM_CAT_RTYPE_ACC_CAT_CODE</title>
<path fill="none" stroke="black" d="M2518.06,-143.88C2504.07,-134.81 2486.7,-123.55 2471.59,-113.76"/>
<polygon fill="black" stroke="black" points="2473.29,-110.69 2463,-108.19 2469.49,-116.57 2473.29,-110.69"/>
</g>
<!-- TABL&#45;APS_IAM_W_AUACTM&#45;&gt;DTEL&#45;AGVAL -->
<g id="edge34" class="edge">
<title>TABL&#45;APS_IAM_W_AUACTM&#45;&gt;DTEL&#45;AGVAL</title>
<path fill="none" stroke="black" d="M2574.32,-143.88C2590.42,-134.64 2610.48,-123.13 2627.77,-113.21"/>
<polygon fill="black" stroke="black" points="2629.59,-116.2 2636.52,-108.19 2626.1,-110.13 2629.59,-116.2"/>
</g>
<!-- TABL&#45;APS_IAM_W_AUACTM&#45;&gt;DTEL&#45;APS_IAM_AUTH_OBJECT_ID -->
<g id="edge33" class="edge">
<title>TABL&#45;APS_IAM_W_AUACTM&#45;&gt;DTEL&#45;APS_IAM_AUTH_OBJECT_ID</title>
<path fill="none" stroke="black" d="M2620.89,-143.97C2666.56,-133.78 2724.72,-120.82 2772.07,-110.26"/>
<polygon fill="black" stroke="black" points="2773,-113.64 2782,-108.05 2771.47,-106.81 2773,-113.64"/>
</g>
<!-- DOMA&#45;APS_IAM_BU_CATALOG_ID -->
<g id="node23" class="node">
<title>DOMA&#45;APS_IAM_BU_CATALOG_ID</title>
<g id="a_node23"><a xlink:href="./DOMA_APS_IAM_BU_CATALOG_ID.html" xlink:title="DOMA&#45;APS_IAM_BU_CATALOG_ID">
<polygon fill="none" stroke="yellow" points="3243.36,-108 2997.59,-108 2997.59,-72 3243.36,-72 3243.36,-108"/>
<text text-anchor="middle" x="3120.48" y="-85.8" font-family="Times,serif" font-size="14.00">DOMA&#45;APS_IAM_BU_CATALOG_ID</text>
</a>
</g>
</g>
<!-- DTEL&#45;APS_IAM_BU_CATALOG_ID&#45;&gt;DOMA&#45;APS_IAM_BU_CATALOG_ID -->
<g id="edge36" class="edge">
<title>DTEL&#45;APS_IAM_BU_CATALOG_ID&#45;&gt;DOMA&#45;APS_IAM_BU_CATALOG_ID</title>
<path fill="none" stroke="black" d="M2894.24,-143.97C2937.64,-133.8 2992.88,-120.87 3037.91,-110.33"/>
<polygon fill="black" stroke="black" points="3038.71,-113.74 3047.65,-108.05 3037.11,-106.92 3038.71,-113.74"/>
</g>
<!-- DOMA&#45;APS_IAM_CAT_RTYPE_ACC_STATUS -->
<g id="node25" class="node">
<title>DOMA&#45;APS_IAM_CAT_RTYPE_ACC_STATUS</title>
<g id="a_node25"><a xlink:href="./DOMA_APS_IAM_CAT_RTYPE_ACC_STATUS.html" xlink:title="DOMA&#45;APS_IAM_CAT_RTYPE_ACC_STATUS">
<polygon fill="none" stroke="yellow" points="3566.28,-108 3260.68,-108 3260.68,-72 3566.28,-72 3566.28,-108"/>
<text text-anchor="middle" x="3413.48" y="-85.8" font-family="Times,serif" font-size="14.00">DOMA&#45;APS_IAM_CAT_RTYPE_ACC_STATUS</text>
</a>
</g>
</g>
<!-- DTEL&#45;APS_IAM_CAT_RTYPE_ACC_STATUS&#45;&gt;DOMA&#45;APS_IAM_CAT_RTYPE_ACC_STATUS -->
<g id="edge37" class="edge">
<title>DTEL&#45;APS_IAM_CAT_RTYPE_ACC_STATUS&#45;&gt;DOMA&#45;APS_IAM_CAT_RTYPE_ACC_STATUS</title>
<path fill="none" stroke="black" d="M3181.94,-143.97C3226.36,-133.8 3282.89,-120.87 3328.98,-110.33"/>
<polygon fill="black" stroke="black" points="3329.98,-113.69 3338.94,-108.05 3328.42,-106.87 3329.98,-113.69"/>
</g>
<!-- DOMA&#45;XFELD -->
<g id="node27" class="node">
<title>DOMA&#45;XFELD</title>
<g id="a_node27"><a xlink:href="./DOMA_XFELD.html" xlink:title="DOMA&#45;XFELD">
<polygon fill="none" stroke="yellow" points="3751.5,-108 3643.45,-108 3643.45,-72 3751.5,-72 3751.5,-108"/>
<text text-anchor="middle" x="3697.48" y="-85.8" font-family="Times,serif" font-size="14.00">DOMA&#45;XFELD</text>
</a>
</g>
</g>
<!-- DTEL&#45;APS_IAM_CAT_RTYPE_ACC_F4&#45;&gt;DOMA&#45;XFELD -->
<g id="edge38" class="edge">
<title>DTEL&#45;APS_IAM_CAT_RTYPE_ACC_F4&#45;&gt;DOMA&#45;XFELD</title>
<path fill="none" stroke="black" d="M3475.78,-143.97C3523.91,-132.47 3586.9,-117.42 3633.43,-106.3"/>
<polygon fill="black" stroke="black" points="3634.49,-109.65 3643.4,-103.92 3632.86,-102.84 3634.49,-109.65"/>
</g>
<!-- DTEL&#45;APS_IAM_CAT_RTYPE_ACC_WRITE&#45;&gt;DOMA&#45;XFELD -->
<g id="edge39" class="edge">
<title>DTEL&#45;APS_IAM_CAT_RTYPE_ACC_WRITE&#45;&gt;DOMA&#45;XFELD</title>
<path fill="none" stroke="black" d="M3697.48,-143.7C3697.48,-135.98 3697.48,-126.71 3697.48,-118.11"/>
<polygon fill="black" stroke="black" points="3700.98,-118.1 3697.48,-108.1 3693.98,-118.1 3700.98,-118.1"/>
</g>
<!-- DTEL&#45;APS_IAM_CAT_RTYPE_ACC_READ&#45;&gt;DOMA&#45;XFELD -->
<g id="edge40" class="edge">
<title>DTEL&#45;APS_IAM_CAT_RTYPE_ACC_READ&#45;&gt;DOMA&#45;XFELD</title>
<path fill="none" stroke="black" d="M3928.26,-143.97C3877.28,-132.27 3810.3,-116.89 3761.63,-105.72"/>
<polygon fill="black" stroke="black" points="3762.38,-102.3 3751.85,-103.48 3760.81,-109.13 3762.38,-102.3"/>
</g>
<!-- DOMA&#45;NUM2 -->
<g id="node31" class="node">
<title>DOMA&#45;NUM2</title>
<g id="a_node31"><a xlink:href="./DOMA_NUM2.html" xlink:title="DOMA&#45;NUM2">
<polygon fill="none" stroke="yellow" points="4265.06,-108 4161.89,-108 4161.89,-72 4265.06,-72 4265.06,-108"/>
<text text-anchor="middle" x="4213.48" y="-85.8" font-family="Times,serif" font-size="14.00">DOMA&#45;NUM2</text>
</a>
</g>
</g>
<!-- DTEL&#45;ORDER&#45;&gt;DOMA&#45;NUM2 -->
<g id="edge41" class="edge">
<title>DTEL&#45;ORDER&#45;&gt;DOMA&#45;NUM2</title>
<path fill="none" stroke="black" d="M4214.23,-143.7C4214.12,-135.98 4213.99,-126.71 4213.86,-118.11"/>
<polygon fill="black" stroke="black" points="4217.36,-118.05 4213.72,-108.1 4210.36,-118.15 4217.36,-118.05"/>
</g>
<!-- TABL&#45;APS_IAM_ADMIN_DATA&#45;&gt;DTEL&#45;APS_IAM_TIMESTAMP_CHANGED -->
<g id="edge45" class="edge">
<title>TABL&#45;APS_IAM_ADMIN_DATA&#45;&gt;DTEL&#45;APS_IAM_TIMESTAMP_CHANGED</title>
<path fill="none" stroke="black" d="M1294.61,-146.69C1287.46,-145.77 1280.36,-144.87 1273.48,-144 1178.03,-131.97 1070.78,-118.96 986.42,-108.83"/>
<polygon fill="black" stroke="black" points="986.6,-105.33 976.25,-107.62 985.76,-112.28 986.6,-105.33"/>
</g>
<!-- DTEL&#45;APS_IAM_USER_CHANGED -->
<g id="node33" class="node">
<title>DTEL&#45;APS_IAM_USER_CHANGED</title>
<g id="a_node33"><a xlink:href="./DTEL_APS_IAM_USER_CHANGED.html" xlink:title="DTEL&#45;APS_IAM_USER_CHANGED">
<polygon fill="none" stroke="yellow" points="1771.49,-108 1537.47,-108 1537.47,-72 1771.49,-72 1771.49,-108"/>
<text text-anchor="middle" x="1654.48" y="-85.8" font-family="Times,serif" font-size="14.00">DTEL&#45;APS_IAM_USER_CHANGED</text>
</a>
</g>
</g>
<!-- TABL&#45;APS_IAM_ADMIN_DATA&#45;&gt;DTEL&#45;APS_IAM_USER_CHANGED -->
<g id="edge44" class="edge">
<title>TABL&#45;APS_IAM_ADMIN_DATA&#45;&gt;DTEL&#45;APS_IAM_USER_CHANGED</title>
<path fill="none" stroke="black" d="M1464.56,-143.97C1500.39,-133.97 1545.84,-121.3 1583.29,-110.85"/>
<polygon fill="black" stroke="black" points="1584.43,-114.17 1593.12,-108.11 1582.55,-107.43 1584.43,-114.17"/>
</g>
<!-- DTEL&#45;APS_IAM_TIMESTAMP_CREATED -->
<g id="node35" class="node">
<title>DTEL&#45;APS_IAM_TIMESTAMP_CREATED</title>
<g id="a_node35"><a xlink:href="./DTEL_APS_IAM_TIMESTAMP_CREATED.html" xlink:title="DTEL&#45;APS_IAM_TIMESTAMP_CREATED">
<polygon fill="none" stroke="yellow" points="1270.21,-108 994.74,-108 994.74,-72 1270.21,-72 1270.21,-108"/>
<text text-anchor="middle" x="1132.48" y="-85.8" font-family="Times,serif" font-size="14.00">DTEL&#45;APS_IAM_TIMESTAMP_CREATED</text>
</a>
</g>
</g>
<!-- TABL&#45;APS_IAM_ADMIN_DATA&#45;&gt;DTEL&#45;APS_IAM_TIMESTAMP_CREATED -->
<g id="edge43" class="edge">
<title>TABL&#45;APS_IAM_ADMIN_DATA&#45;&gt;DTEL&#45;APS_IAM_TIMESTAMP_CREATED</title>
<path fill="none" stroke="black" d="M1337.53,-143.97C1298.59,-133.91 1249.15,-121.14 1208.57,-110.65"/>
<polygon fill="black" stroke="black" points="1209.28,-107.22 1198.72,-108.11 1207.53,-114 1209.28,-107.22"/>
</g>
<!-- DTEL&#45;APS_IAM_USER_CREATED -->
<g id="node36" class="node">
<title>DTEL&#45;APS_IAM_USER_CREATED</title>
<g id="a_node36"><a xlink:href="./DTEL_APS_IAM_USER_CREATED.html" xlink:title="DTEL&#45;APS_IAM_USER_CREATED">
<polygon fill="none" stroke="yellow" points="1518.61,-108 1288.35,-108 1288.35,-72 1518.61,-72 1518.61,-108"/>
<text text-anchor="middle" x="1403.48" y="-85.8" font-family="Times,serif" font-size="14.00">DTEL&#45;APS_IAM_USER_CREATED</text>
</a>
</g>
</g>
<!-- TABL&#45;APS_IAM_ADMIN_DATA&#45;&gt;DTEL&#45;APS_IAM_USER_CREATED -->
<g id="edge42" class="edge">
<title>TABL&#45;APS_IAM_ADMIN_DATA&#45;&gt;DTEL&#45;APS_IAM_USER_CREATED</title>
<path fill="none" stroke="black" d="M1403.48,-143.7C1403.48,-135.98 1403.48,-126.71 1403.48,-118.11"/>
<polygon fill="black" stroke="black" points="1406.98,-118.1 1403.48,-108.1 1399.98,-118.1 1406.98,-118.1"/>
</g>
<!-- DOMA&#45;BNAME -->
<g id="node34" class="node">
<title>DOMA&#45;BNAME</title>
<g id="a_node34"><a xlink:href="./DOMA_BNAME.html" xlink:title="DOMA&#45;BNAME">
<polygon fill="none" stroke="yellow" points="1585.45,-36 1471.5,-36 1471.5,0 1585.45,0 1585.45,-36"/>
<text text-anchor="middle" x="1528.48" y="-13.8" font-family="Times,serif" font-size="14.00">DOMA&#45;BNAME</text>
</a>
</g>
</g>
<!-- DTEL&#45;APS_IAM_USER_CHANGED&#45;&gt;DOMA&#45;BNAME -->
<g id="edge46" class="edge">
<title>DTEL&#45;APS_IAM_USER_CHANGED&#45;&gt;DOMA&#45;BNAME</title>
<path fill="none" stroke="black" d="M1623.65,-71.88C1607.03,-62.64 1586.31,-51.13 1568.46,-41.21"/>
<polygon fill="black" stroke="black" points="1569.86,-37.99 1559.42,-36.19 1566.46,-44.11 1569.86,-37.99"/>
</g>
<!-- DTEL&#45;APS_IAM_TIMESTAMP_CREATED&#45;&gt;DOMA&#45;TZNTSTMPS -->
<g id="edge47" class="edge">
<title>DTEL&#45;APS_IAM_TIMESTAMP_CREATED&#45;&gt;DOMA&#45;TZNTSTMPS</title>
<path fill="none" stroke="black" d="M1096.27,-71.88C1076.22,-62.39 1051.11,-50.51 1029.76,-40.42"/>
<polygon fill="black" stroke="black" points="1031.1,-37.18 1020.56,-36.07 1028.11,-43.51 1031.1,-37.18"/>
</g>
<!-- DTEL&#45;APS_IAM_USER_CREATED&#45;&gt;DOMA&#45;BNAME -->
<g id="edge48" class="edge">
<title>DTEL&#45;APS_IAM_USER_CREATED&#45;&gt;DOMA&#45;BNAME</title>
<path fill="none" stroke="black" d="M1434.06,-71.88C1450.55,-62.64 1471.1,-51.13 1488.81,-41.21"/>
<polygon fill="black" stroke="black" points="1490.77,-44.13 1497.78,-36.19 1487.35,-38.02 1490.77,-44.13"/>
</g>
<!-- DOMA&#45;XUFIELD -->
<g id="node38" class="node">
<title>DOMA&#45;XUFIELD</title>
<g id="a_node38"><a xlink:href="./DOMA_XUFIELD.html" xlink:title="DOMA&#45;XUFIELD">
<polygon fill="none" stroke="yellow" points="4406.27,-108 4282.68,-108 4282.68,-72 4406.27,-72 4406.27,-108"/>
<text text-anchor="middle" x="4344.48" y="-85.8" font-family="Times,serif" font-size="14.00">DOMA&#45;XUFIELD</text>
</a>
</g>
</g>
<!-- DTEL&#45;AGRFIELD&#45;&gt;DOMA&#45;XUFIELD -->
<g id="edge49" class="edge">
<title>DTEL&#45;AGRFIELD&#45;&gt;DOMA&#45;XUFIELD</title>
<path fill="none" stroke="black" d="M4346.74,-143.7C4346.4,-135.98 4346.01,-126.71 4345.64,-118.11"/>
<polygon fill="black" stroke="black" points="4349.14,-117.95 4345.21,-108.1 4342.14,-118.25 4349.14,-117.95"/>
</g>
<!-- DTEL&#45;AGOBJECT&#45;&gt;DOMA&#45;XUOBJECT -->
<g id="edge50" class="edge">
<title>DTEL&#45;AGOBJECT&#45;&gt;DOMA&#45;XUOBJECT</title>
<path fill="none" stroke="black" d="M2101.59,-143.88C2117.15,-134.72 2136.5,-123.34 2153.25,-113.48"/>
<polygon fill="black" stroke="black" points="2155.41,-116.28 2162.25,-108.19 2151.86,-110.24 2155.41,-116.28"/>
</g>
<!-- DTEL&#45;APS_IAM_CAT_RTYPE_FIELD_NAME&#45;&gt;DOMA&#45;FDNAME -->
<g id="edge51" class="edge">
<title>DTEL&#45;APS_IAM_CAT_RTYPE_FIELD_NAME&#45;&gt;DOMA&#45;FDNAME</title>
<path fill="none" stroke="black" d="M450.74,-143.7C439.04,-134.8 424.62,-123.82 411.97,-114.2"/>
<polygon fill="black" stroke="black" points="414.03,-111.37 403.96,-108.1 409.8,-116.94 414.03,-111.37"/>
</g>
<!-- DOMA&#45;APS_IAM_RTYPE_AGGR_CAT -->
<g id="node42" class="node">
<title>DOMA&#45;APS_IAM_RTYPE_AGGR_CAT</title>
<g id="a_node42"><a xlink:href="./DOMA_APS_IAM_RTYPE_AGGR_CAT.html" xlink:title="DOMA&#45;APS_IAM_RTYPE_AGGR_CAT">
<polygon fill="none" stroke="yellow" points="4680.77,-108 4424.18,-108 4424.18,-72 4680.77,-72 4680.77,-108"/>
<text text-anchor="middle" x="4552.48" y="-85.8" font-family="Times,serif" font-size="14.00">DOMA&#45;APS_IAM_RTYPE_AGGR_CAT</text>
</a>
</g>
</g>
<!-- DTEL&#45;APS_IAM_RTYPE_AGGR_CAT&#45;&gt;DOMA&#45;APS_IAM_RTYPE_AGGR_CAT -->
<g id="edge52" class="edge">
<title>DTEL&#45;APS_IAM_RTYPE_AGGR_CAT&#45;&gt;DOMA&#45;APS_IAM_RTYPE_AGGR_CAT</title>
<path fill="none" stroke="black" d="M4552.48,-143.7C4552.48,-135.98 4552.48,-126.71 4552.48,-118.11"/>
<polygon fill="black" stroke="black" points="4555.98,-118.1 4552.48,-108.1 4548.98,-118.1 4555.98,-118.1"/>
</g>
<!-- DOMA&#45;APS_IAM_CAT_RTYPE_ID -->
<g id="node44" class="node">
<title>DOMA&#45;APS_IAM_CAT_RTYPE_ID</title>
<g id="a_node44"><a xlink:href="./DOMA_APS_IAM_CAT_RTYPE_ID.html" xlink:title="DOMA&#45;APS_IAM_CAT_RTYPE_ID">
<polygon fill="none" stroke="yellow" points="4930.38,-108 4698.57,-108 4698.57,-72 4930.38,-72 4930.38,-108"/>
<text text-anchor="middle" x="4814.48" y="-85.8" font-family="Times,serif" font-size="14.00">DOMA&#45;APS_IAM_CAT_RTYPE_ID</text>
</a>
</g>
</g>
<!-- DTEL&#45;APS_IAM_CAT_RTYPE_ID&#45;&gt;DOMA&#45;APS_IAM_CAT_RTYPE_ID -->
<g id="edge53" class="edge">
<title>DTEL&#45;APS_IAM_CAT_RTYPE_ID&#45;&gt;DOMA&#45;APS_IAM_CAT_RTYPE_ID</title>
<path fill="none" stroke="black" d="M4812.22,-143.7C4812.55,-135.98 4812.95,-126.71 4813.31,-118.11"/>
<polygon fill="black" stroke="black" points="4816.81,-118.25 4813.74,-108.1 4809.82,-117.95 4816.81,-118.25"/>
</g>
</g>
</svg>
