<?xml version="1.0" encoding="UTF-8" standalone="no"?>
<!DOCTYPE svg PUBLIC "-//W3C//DTD SVG 1.1//EN"
 "http://www.w3.org/Graphics/SVG/1.1/DTD/svg11.dtd">
<!-- Generated by graphviz version 2.47.3 (20210619.1520)
 -->
<!-- Title: G Pages: 1 -->
<svg width="2284pt" height="764pt"
 viewBox="0.00 0.00 2283.65 764.00" xmlns="http://www.w3.org/2000/svg" xmlns:xlink="http://www.w3.org/1999/xlink">
<g id="graph0" class="graph" transform="scale(1 1) rotate(0) translate(4 760)">
<title>G</title>
<polygon fill="white" stroke="transparent" points="-4,4 -4,-760 2279.65,-760 2279.65,4 -4,4"/>
<!-- INTF&#45;IF_XCO_MESSAGE -->
<g id="node1" class="node">
<title>INTF&#45;IF_XCO_MESSAGE</title>
<g id="a_node1"><a xlink:href="./INTF_IF_XCO_MESSAGE.html" xlink:title="INTF&#45;IF_XCO_MESSAGE">
<polygon fill="none" stroke="green" points="1498.58,-756 1325.42,-756 1325.42,-720 1498.58,-720 1498.58,-756"/>
<text text-anchor="middle" x="1412" y="-733.8" font-family="Times,serif" font-size="14.00">INTF&#45;IF_XCO_MESSAGE</text>
</a>
</g>
</g>
<!-- INTF&#45;IF_XCO_NEWS -->
<g id="node2" class="node">
<title>INTF&#45;IF_XCO_NEWS</title>
<g id="a_node2"><a xlink:href="./INTF_IF_XCO_NEWS.html" xlink:title="INTF&#45;IF_XCO_NEWS">
<polygon fill="none" stroke="green" points="1373.91,-108 1226.09,-108 1226.09,-72 1373.91,-72 1373.91,-108"/>
<text text-anchor="middle" x="1300" y="-85.8" font-family="Times,serif" font-size="14.00">INTF&#45;IF_XCO_NEWS</text>
</a>
</g>
</g>
<!-- INTF&#45;IF_XCO_MESSAGE&#45;&gt;INTF&#45;IF_XCO_NEWS -->
<g id="edge9" class="edge">
<title>INTF&#45;IF_XCO_MESSAGE&#45;&gt;INTF&#45;IF_XCO_NEWS</title>
<path fill="none" stroke="black" d="M1394.58,-719.93C1374.99,-694.09 1347,-642.97 1347,-595 1347,-595 1347,-595 1347,-233 1347,-190.09 1324.6,-144.66 1310.41,-117.06"/>
<polygon fill="black" stroke="black" points="1313.47,-115.36 1305.78,-108.07 1307.25,-118.56 1313.47,-115.36"/>
</g>
<!-- INTF&#45;IF_XCO_MESSAGE&#45;&gt;INTF&#45;IF_XCO_NEWS -->
<g id="edge20" class="edge">
<title>INTF&#45;IF_XCO_MESSAGE&#45;&gt;INTF&#45;IF_XCO_NEWS</title>
<path fill="none" stroke="black" d="M1406.22,-719.93C1392.99,-694.09 1365,-642.97 1365,-595 1365,-595 1365,-595 1365,-233 1365,-189.72 1342.21,-143.87 1323.37,-116.34"/>
<polygon fill="black" stroke="black" points="1326.1,-114.15 1317.42,-108.07 1320.42,-118.23 1326.1,-114.15"/>
</g>
<!-- INTF&#45;IF_T100_DYN_MSG -->
<g id="node4" class="node">
<title>INTF&#45;IF_T100_DYN_MSG</title>
<g id="a_node4"><a xlink:href="./INTF_IF_T100_DYN_MSG.html" xlink:title="INTF&#45;IF_T100_DYN_MSG">
<polygon fill="none" stroke="green" points="1680.91,-684 1505.09,-684 1505.09,-648 1680.91,-648 1680.91,-684"/>
<text text-anchor="middle" x="1593" y="-661.8" font-family="Times,serif" font-size="14.00">INTF&#45;IF_T100_DYN_MSG</text>
</a>
</g>
</g>
<!-- INTF&#45;IF_XCO_MESSAGE&#45;&gt;INTF&#45;IF_T100_DYN_MSG -->
<g id="edge8" class="edge">
<title>INTF&#45;IF_XCO_MESSAGE&#45;&gt;INTF&#45;IF_T100_DYN_MSG</title>
<path fill="none" stroke="black" d="M1450.38,-719.88C1474.55,-710.14 1506.15,-697.87 1533.5,-687.61"/>
<polygon fill="black" stroke="black" points="1534.83,-690.85 1542.97,-684.07 1532.38,-684.29 1534.83,-690.85"/>
</g>
<!-- INTF&#45;IF_XCO_MESSAGE&#45;&gt;INTF&#45;IF_T100_DYN_MSG -->
<g id="edge19" class="edge">
<title>INTF&#45;IF_XCO_MESSAGE&#45;&gt;INTF&#45;IF_T100_DYN_MSG</title>
<path fill="none" stroke="black" d="M1462.17,-719.88C1488.15,-710.22 1519.64,-698.09 1545.25,-687.88"/>
<polygon fill="black" stroke="black" points="1546.78,-691.04 1554.76,-684.07 1544.17,-684.54 1546.78,-691.04"/>
</g>
<!-- DTEL&#45;SYMSGNO -->
<g id="node9" class="node">
<title>DTEL&#45;SYMSGNO</title>
<g id="a_node9"><a xlink:href="./DTEL_SYMSGNO.html" xlink:title="DTEL&#45;SYMSGNO">
<polygon fill="none" stroke="green" points="1673.36,-468 1548.64,-468 1548.64,-432 1673.36,-432 1673.36,-468"/>
<text text-anchor="middle" x="1611" y="-445.8" font-family="Times,serif" font-size="14.00">DTEL&#45;SYMSGNO</text>
</a>
</g>
</g>
<!-- INTF&#45;IF_XCO_MESSAGE&#45;&gt;DTEL&#45;SYMSGNO -->
<g id="edge4" class="edge">
<title>INTF&#45;IF_XCO_MESSAGE&#45;&gt;DTEL&#45;SYMSGNO</title>
<path fill="none" stroke="black" d="M1403.96,-719.97C1391.6,-677.89 1377.78,-567.84 1431,-504 1456.85,-472.99 1500.49,-459.8 1538.39,-454.34"/>
<polygon fill="black" stroke="black" points="1538.93,-457.8 1548.4,-453.05 1538.03,-450.86 1538.93,-457.8"/>
</g>
<!-- INTF&#45;IF_XCO_MESSAGE&#45;&gt;DTEL&#45;SYMSGNO -->
<g id="edge15" class="edge">
<title>INTF&#45;IF_XCO_MESSAGE&#45;&gt;DTEL&#45;SYMSGNO</title>
<path fill="none" stroke="black" d="M1412.85,-719.97C1409.6,-677.89 1395.78,-567.84 1449,-504 1471.09,-477.5 1506.17,-464.02 1538.08,-457.25"/>
<polygon fill="black" stroke="black" points="1539.16,-460.6 1548.32,-455.27 1537.83,-453.73 1539.16,-460.6"/>
</g>
<!-- DTEL&#45;SYMSGID -->
<g id="node11" class="node">
<title>DTEL&#45;SYMSGID</title>
<g id="a_node11"><a xlink:href="./DTEL_SYMSGID.html" xlink:title="DTEL&#45;SYMSGID">
<polygon fill="none" stroke="green" points="2144.92,-468 2025.08,-468 2025.08,-432 2144.92,-432 2144.92,-468"/>
<text text-anchor="middle" x="2085" y="-445.8" font-family="Times,serif" font-size="14.00">DTEL&#45;SYMSGID</text>
</a>
</g>
</g>
<!-- INTF&#45;IF_XCO_MESSAGE&#45;&gt;DTEL&#45;SYMSGID -->
<g id="edge3" class="edge">
<title>INTF&#45;IF_XCO_MESSAGE&#45;&gt;DTEL&#45;SYMSGID</title>
<path fill="none" stroke="black" d="M1498.55,-731.07C1594.91,-723.81 1754.84,-709.27 1891,-684 2013.95,-661.18 2052.29,-670.16 2163,-612 2216.83,-583.72 2283.08,-552.95 2247,-504 2225.61,-474.98 2188.49,-461.37 2155.13,-455.18"/>
<polygon fill="black" stroke="black" points="2155.36,-451.67 2144.92,-453.48 2154.22,-458.57 2155.36,-451.67"/>
</g>
<!-- INTF&#45;IF_XCO_MESSAGE&#45;&gt;DTEL&#45;SYMSGID -->
<g id="edge14" class="edge">
<title>INTF&#45;IF_XCO_MESSAGE&#45;&gt;DTEL&#45;SYMSGID</title>
<path fill="none" stroke="black" d="M1498.8,-731.99C1598.59,-725.09 1766.77,-710.39 1909,-684 2031.95,-661.18 2070.29,-670.16 2181,-612 2234.83,-583.72 2301.08,-552.95 2265,-504 2240.23,-470.4 2194.39,-457.46 2155.1,-452.76"/>
<polygon fill="black" stroke="black" points="2155.31,-449.27 2145,-451.71 2154.59,-456.23 2155.31,-449.27"/>
</g>
<!-- DTEL&#45;SYMSGTY -->
<g id="node13" class="node">
<title>DTEL&#45;SYMSGTY</title>
<g id="a_node13"><a xlink:href="./DTEL_SYMSGTY.html" xlink:title="DTEL&#45;SYMSGTY">
<polygon fill="none" stroke="green" points="1572.81,-612 1449.19,-612 1449.19,-576 1572.81,-576 1572.81,-612"/>
<text text-anchor="middle" x="1511" y="-589.8" font-family="Times,serif" font-size="14.00">DTEL&#45;SYMSGTY</text>
</a>
</g>
</g>
<!-- INTF&#45;IF_XCO_MESSAGE&#45;&gt;DTEL&#45;SYMSGTY -->
<g id="edge2" class="edge">
<title>INTF&#45;IF_XCO_MESSAGE&#45;&gt;DTEL&#45;SYMSGTY</title>
<path fill="none" stroke="black" d="M1419.36,-719.87C1434.05,-695.03 1466.01,-648.85 1488.17,-620.14"/>
<polygon fill="black" stroke="black" points="1491,-622.21 1494.43,-612.19 1485.49,-617.89 1491,-622.21"/>
</g>
<!-- INTF&#45;IF_XCO_MESSAGE&#45;&gt;DTEL&#45;SYMSGTY -->
<g id="edge13" class="edge">
<title>INTF&#45;IF_XCO_MESSAGE&#45;&gt;DTEL&#45;SYMSGTY</title>
<path fill="none" stroke="black" d="M1428.53,-719.87C1448.3,-695.24 1480.35,-649.64 1498.31,-620.88"/>
<polygon fill="black" stroke="black" points="1501.39,-622.55 1503.61,-612.19 1495.41,-618.91 1501.39,-622.55"/>
</g>
<!-- DTEL&#45;SYMSGV -->
<g id="node15" class="node">
<title>DTEL&#45;SYMSGV</title>
<g id="a_node15"><a xlink:href="./DTEL_SYMSGV.html" xlink:title="DTEL&#45;SYMSGV">
<polygon fill="none" stroke="green" points="2163.25,-612 2048.75,-612 2048.75,-576 2163.25,-576 2163.25,-612"/>
<text text-anchor="middle" x="2106" y="-589.8" font-family="Times,serif" font-size="14.00">DTEL&#45;SYMSGV</text>
</a>
</g>
</g>
<!-- INTF&#45;IF_XCO_MESSAGE&#45;&gt;DTEL&#45;SYMSGV -->
<g id="edge5" class="edge">
<title>INTF&#45;IF_XCO_MESSAGE&#45;&gt;DTEL&#45;SYMSGV</title>
<path fill="none" stroke="black" d="M1498.79,-728.97C1578.67,-720.94 1700.02,-706.51 1804,-684 1887.43,-665.94 1981.46,-635.53 2042.2,-615.36"/>
<polygon fill="black" stroke="black" points="2043.64,-618.57 2052.03,-612.09 2041.43,-611.92 2043.64,-618.57"/>
</g>
<!-- INTF&#45;IF_XCO_MESSAGE&#45;&gt;DTEL&#45;SYMSGV -->
<g id="edge16" class="edge">
<title>INTF&#45;IF_XCO_MESSAGE&#45;&gt;DTEL&#45;SYMSGV</title>
<path fill="none" stroke="black" d="M1498.57,-730.33C1582.19,-722.62 1711.84,-707.84 1822,-684 1905.08,-666.02 1998.69,-635.78 2055.06,-615.61"/>
<polygon fill="black" stroke="black" points="2056.59,-618.78 2064.8,-612.09 2054.21,-612.19 2056.59,-618.78"/>
</g>
<!-- INTF&#45;IF_XCO_MESSAGE_SHORT_TEXT -->
<g id="node17" class="node">
<title>INTF&#45;IF_XCO_MESSAGE_SHORT_TEXT</title>
<g id="a_node17"><a xlink:href="./INTF_IF_XCO_MESSAGE_SHORT_TEXT.html" xlink:title="INTF&#45;IF_XCO_MESSAGE_SHORT_TEXT">
<polygon fill="none" stroke="green" points="1075.23,-684 806.77,-684 806.77,-648 1075.23,-648 1075.23,-684"/>
<text text-anchor="middle" x="941" y="-661.8" font-family="Times,serif" font-size="14.00">INTF&#45;IF_XCO_MESSAGE_SHORT_TEXT</text>
</a>
</g>
</g>
<!-- INTF&#45;IF_XCO_MESSAGE&#45;&gt;INTF&#45;IF_XCO_MESSAGE_SHORT_TEXT -->
<g id="edge7" class="edge">
<title>INTF&#45;IF_XCO_MESSAGE&#45;&gt;INTF&#45;IF_XCO_MESSAGE_SHORT_TEXT</title>
<path fill="none" stroke="black" d="M1325.27,-725.64C1248.84,-714.81 1137.28,-698.32 1053.93,-685.58"/>
<polygon fill="black" stroke="black" points="1054.33,-682.1 1043.92,-684.05 1053.27,-689.02 1054.33,-682.1"/>
</g>
<!-- INTF&#45;IF_XCO_MESSAGE&#45;&gt;INTF&#45;IF_XCO_MESSAGE_SHORT_TEXT -->
<g id="edge18" class="edge">
<title>INTF&#45;IF_XCO_MESSAGE&#45;&gt;INTF&#45;IF_XCO_MESSAGE_SHORT_TEXT</title>
<path fill="none" stroke="black" d="M1325.34,-724.12C1252.52,-713.3 1147.53,-697.69 1065.68,-685.53"/>
<polygon fill="black" stroke="black" points="1065.97,-682.03 1055.56,-684.03 1064.94,-688.96 1065.97,-682.03"/>
</g>
<!-- CLAS&#45;CL_XCO_MESSAGE_TYPE -->
<g id="node35" class="node">
<title>CLAS&#45;CL_XCO_MESSAGE_TYPE</title>
<g id="a_node35"><a xlink:href="./CLAS_CL_XCO_MESSAGE_TYPE.html" xlink:title="CLAS&#45;CL_XCO_MESSAGE_TYPE">
<polygon fill="none" stroke="green" points="1318.7,-684 1093.3,-684 1093.3,-648 1318.7,-648 1318.7,-684"/>
<text text-anchor="middle" x="1206" y="-661.8" font-family="Times,serif" font-size="14.00">CLAS&#45;CL_XCO_MESSAGE_TYPE</text>
</a>
</g>
</g>
<!-- INTF&#45;IF_XCO_MESSAGE&#45;&gt;CLAS&#45;CL_XCO_MESSAGE_TYPE -->
<g id="edge6" class="edge">
<title>INTF&#45;IF_XCO_MESSAGE&#45;&gt;CLAS&#45;CL_XCO_MESSAGE_TYPE</title>
<path fill="none" stroke="black" d="M1355.98,-719.97C1326.17,-710.19 1289.72,-697.84 1260.19,-687.52"/>
<polygon fill="black" stroke="black" points="1261.05,-684.12 1250.46,-684.11 1258.74,-690.72 1261.05,-684.12"/>
</g>
<!-- INTF&#45;IF_XCO_MESSAGE&#45;&gt;CLAS&#45;CL_XCO_MESSAGE_TYPE -->
<g id="edge17" class="edge">
<title>INTF&#45;IF_XCO_MESSAGE&#45;&gt;CLAS&#45;CL_XCO_MESSAGE_TYPE</title>
<path fill="none" stroke="black" d="M1367.76,-719.97C1339.76,-710.1 1303.14,-697.62 1271.79,-687.25"/>
<polygon fill="black" stroke="black" points="1272.84,-683.92 1262.25,-684.11 1270.65,-690.56 1272.84,-683.92"/>
</g>
<!-- TABL&#45;SYMSG -->
<g id="node38" class="node">
<title>TABL&#45;SYMSG</title>
<g id="a_node38"><a xlink:href="./TABL_SYMSG.html" xlink:title="TABL&#45;SYMSG">
<polygon fill="none" stroke="green" points="1803.93,-684 1698.07,-684 1698.07,-648 1803.93,-648 1803.93,-684"/>
<text text-anchor="middle" x="1751" y="-661.8" font-family="Times,serif" font-size="14.00">TABL&#45;SYMSG</text>
</a>
</g>
</g>
<!-- INTF&#45;IF_XCO_MESSAGE&#45;&gt;TABL&#45;SYMSG -->
<g id="edge1" class="edge">
<title>INTF&#45;IF_XCO_MESSAGE&#45;&gt;TABL&#45;SYMSG</title>
<path fill="none" stroke="black" d="M1498.76,-720.97C1551.62,-711.33 1620.36,-698.2 1681,-684 1683.44,-683.43 1685.92,-682.83 1688.43,-682.2"/>
<polygon fill="black" stroke="black" points="1689.39,-685.57 1698.21,-679.7 1687.65,-678.79 1689.39,-685.57"/>
</g>
<!-- INTF&#45;IF_XCO_MESSAGE&#45;&gt;TABL&#45;SYMSG -->
<g id="edge12" class="edge">
<title>INTF&#45;IF_XCO_MESSAGE&#45;&gt;TABL&#45;SYMSG</title>
<path fill="none" stroke="black" d="M1498.71,-723.72C1553.08,-714.41 1624.69,-701.04 1688.8,-686.36"/>
<polygon fill="black" stroke="black" points="1689.66,-689.76 1698.61,-684.09 1688.08,-682.94 1689.66,-689.76"/>
</g>
<!-- TTYP&#45;SXCO_T_MESSAGES -->
<g id="node3" class="node">
<title>TTYP&#45;SXCO_T_MESSAGES</title>
<g id="a_node3"><a xlink:href="./TTYP_SXCO_T_MESSAGES.html" xlink:title="TTYP&#45;SXCO_T_MESSAGES">
<polygon fill="none" stroke="green" points="202.15,-36 13.85,-36 13.85,0 202.15,0 202.15,-36"/>
<text text-anchor="middle" x="108" y="-13.8" font-family="Times,serif" font-size="14.00">TTYP&#45;SXCO_T_MESSAGES</text>
</a>
</g>
</g>
<!-- INTF&#45;IF_XCO_NEWS&#45;&gt;TTYP&#45;SXCO_T_MESSAGES -->
<g id="edge10" class="edge">
<title>INTF&#45;IF_XCO_NEWS&#45;&gt;TTYP&#45;SXCO_T_MESSAGES</title>
<path fill="none" stroke="black" d="M1226.23,-75.49C1217.08,-74.14 1207.84,-72.93 1199,-72 821.62,-32.43 724.84,-57.52 346,-36 302.25,-33.51 254.02,-30.18 212.49,-27.12"/>
<polygon fill="black" stroke="black" points="212.58,-23.62 202.35,-26.37 212.07,-30.6 212.58,-23.62"/>
</g>
<!-- TTYP&#45;SXCO_T_MESSAGES&#45;&gt;INTF&#45;IF_XCO_MESSAGE -->
<g id="edge11" class="edge">
<title>TTYP&#45;SXCO_T_MESSAGES&#45;&gt;INTF&#45;IF_XCO_MESSAGE</title>
<path fill="none" stroke="black" d="M82.68,-36.17C50.76,-60.08 0,-106.64 0,-161 0,-595 0,-595 0,-595 0,-727.45 996.31,-737.58 1315.13,-737.43"/>
<polygon fill="black" stroke="black" points="1315.27,-740.93 1325.27,-737.42 1315.27,-733.93 1315.27,-740.93"/>
</g>
<!-- INTF&#45;IF_T100_MESSAGE -->
<g id="node5" class="node">
<title>INTF&#45;IF_T100_MESSAGE</title>
<g id="a_node5"><a xlink:href="./INTF_IF_T100_MESSAGE.html" xlink:title="INTF&#45;IF_T100_MESSAGE">
<polygon fill="none" stroke="green" points="1908.59,-612 1735.41,-612 1735.41,-576 1908.59,-576 1908.59,-612"/>
<text text-anchor="middle" x="1822" y="-589.8" font-family="Times,serif" font-size="14.00">INTF&#45;IF_T100_MESSAGE</text>
</a>
</g>
</g>
<!-- INTF&#45;IF_T100_DYN_MSG&#45;&gt;INTF&#45;IF_T100_MESSAGE -->
<g id="edge24" class="edge">
<title>INTF&#45;IF_T100_DYN_MSG&#45;&gt;INTF&#45;IF_T100_MESSAGE</title>
<path fill="none" stroke="black" d="M1648.73,-647.97C1681.14,-638.06 1722.18,-625.51 1756.18,-615.12"/>
<polygon fill="black" stroke="black" points="1757.48,-618.38 1766.02,-612.11 1755.44,-611.69 1757.48,-618.38"/>
</g>
<!-- INTF&#45;IF_MESSAGE -->
<g id="node6" class="node">
<title>INTF&#45;IF_MESSAGE</title>
<g id="a_node6"><a xlink:href="./INTF_IF_MESSAGE.html" xlink:title="INTF&#45;IF_MESSAGE">
<polygon fill="none" stroke="green" points="1775.04,-540 1638.96,-540 1638.96,-504 1775.04,-504 1775.04,-540"/>
<text text-anchor="middle" x="1707" y="-517.8" font-family="Times,serif" font-size="14.00">INTF&#45;IF_MESSAGE</text>
</a>
</g>
</g>
<!-- INTF&#45;IF_T100_DYN_MSG&#45;&gt;INTF&#45;IF_MESSAGE -->
<g id="edge23" class="edge">
<title>INTF&#45;IF_T100_DYN_MSG&#45;&gt;INTF&#45;IF_MESSAGE</title>
<path fill="none" stroke="black" d="M1606.75,-647.87C1626.69,-623.03 1663.77,-576.85 1686.82,-548.14"/>
<polygon fill="black" stroke="black" points="1689.67,-550.18 1693.2,-540.19 1684.21,-545.8 1689.67,-550.18"/>
</g>
<!-- INTF&#45;IF_T100_DYN_MSG&#45;&gt;DTEL&#45;SYMSGTY -->
<g id="edge22" class="edge">
<title>INTF&#45;IF_T100_DYN_MSG&#45;&gt;DTEL&#45;SYMSGTY</title>
<path fill="none" stroke="black" d="M1572.73,-647.7C1562.5,-638.97 1549.94,-628.24 1538.82,-618.75"/>
<polygon fill="black" stroke="black" points="1540.91,-615.94 1531.04,-612.1 1536.37,-621.26 1540.91,-615.94"/>
</g>
<!-- INTF&#45;IF_T100_DYN_MSG&#45;&gt;DTEL&#45;SYMSGV -->
<g id="edge21" class="edge">
<title>INTF&#45;IF_T100_DYN_MSG&#45;&gt;DTEL&#45;SYMSGV</title>
<path fill="none" stroke="black" d="M1680.86,-649.26C1683.6,-648.83 1686.32,-648.41 1689,-648 1811.94,-629.31 1955.96,-612.02 2038.54,-602.55"/>
<polygon fill="black" stroke="black" points="2039,-606.02 2048.54,-601.4 2038.21,-599.06 2039,-606.02"/>
</g>
<!-- INTF&#45;IF_T100_MESSAGE&#45;&gt;INTF&#45;IF_MESSAGE -->
<g id="edge29" class="edge">
<title>INTF&#45;IF_T100_MESSAGE&#45;&gt;INTF&#45;IF_MESSAGE</title>
<path fill="none" stroke="black" d="M1793.87,-575.88C1778.83,-566.72 1760.13,-555.34 1743.94,-545.48"/>
<polygon fill="black" stroke="black" points="1745.6,-542.4 1735.24,-540.19 1741.96,-548.38 1745.6,-542.4"/>
</g>
<!-- TABL&#45;SCX_T100KEY -->
<g id="node7" class="node">
<title>TABL&#45;SCX_T100KEY</title>
<g id="a_node7"><a xlink:href="./TABL_SCX_T100KEY.html" xlink:title="TABL&#45;SCX_T100KEY">
<polygon fill="none" stroke="yellow" points="2018.75,-540 1869.25,-540 1869.25,-504 2018.75,-504 2018.75,-540"/>
<text text-anchor="middle" x="1944" y="-517.8" font-family="Times,serif" font-size="14.00">TABL&#45;SCX_T100KEY</text>
</a>
</g>
</g>
<!-- INTF&#45;IF_T100_MESSAGE&#45;&gt;TABL&#45;SCX_T100KEY -->
<g id="edge28" class="edge">
<title>INTF&#45;IF_T100_MESSAGE&#45;&gt;TABL&#45;SCX_T100KEY</title>
<path fill="none" stroke="black" d="M1851.84,-575.88C1867.94,-566.64 1888,-555.13 1905.29,-545.21"/>
<polygon fill="black" stroke="black" points="1907.11,-548.2 1914.04,-540.19 1903.63,-542.13 1907.11,-548.2"/>
</g>
<!-- DTEL&#45;SCX_ATTRNAME -->
<g id="node8" class="node">
<title>DTEL&#45;SCX_ATTRNAME</title>
<g id="a_node8"><a xlink:href="./DTEL_SCX_ATTRNAME.html" xlink:title="DTEL&#45;SCX_ATTRNAME">
<polygon fill="none" stroke="green" points="1966.41,-468 1797.59,-468 1797.59,-432 1966.41,-432 1966.41,-468"/>
<text text-anchor="middle" x="1882" y="-445.8" font-family="Times,serif" font-size="14.00">DTEL&#45;SCX_ATTRNAME</text>
</a>
</g>
</g>
<!-- INTF&#45;IF_T100_MESSAGE&#45;&gt;DTEL&#45;SCX_ATTRNAME -->
<g id="edge27" class="edge">
<title>INTF&#45;IF_T100_MESSAGE&#45;&gt;DTEL&#45;SCX_ATTRNAME</title>
<path fill="none" stroke="black" d="M1829.24,-575.87C1839.55,-551.46 1858.58,-506.43 1870.75,-477.64"/>
<polygon fill="black" stroke="black" points="1874.07,-478.76 1874.74,-468.19 1867.62,-476.04 1874.07,-478.76"/>
</g>
<!-- INTF&#45;IF_T100_MESSAGE&#45;&gt;DTEL&#45;SYMSGNO -->
<g id="edge26" class="edge">
<title>INTF&#45;IF_T100_MESSAGE&#45;&gt;DTEL&#45;SYMSGNO</title>
<path fill="none" stroke="black" d="M1819.13,-575.73C1814.91,-555.69 1805.12,-522.98 1784,-504 1756.36,-479.15 1717.31,-465.95 1683.31,-458.94"/>
<polygon fill="black" stroke="black" points="1683.88,-455.48 1673.4,-457.04 1682.56,-462.36 1683.88,-455.48"/>
</g>
<!-- INTF&#45;IF_T100_MESSAGE&#45;&gt;DTEL&#45;SYMSGID -->
<g id="edge25" class="edge">
<title>INTF&#45;IF_T100_MESSAGE&#45;&gt;DTEL&#45;SYMSGID</title>
<path fill="none" stroke="black" d="M1908.56,-585.27C1947.94,-578.3 1993.37,-565.06 2028,-540 2049.72,-524.28 2065.21,-497.52 2074.51,-477.44"/>
<polygon fill="black" stroke="black" points="2077.75,-478.75 2078.58,-468.19 2071.35,-475.93 2077.75,-478.75"/>
</g>
<!-- TABL&#45;SCX_T100KEY&#45;&gt;DTEL&#45;SCX_ATTRNAME -->
<g id="edge32" class="edge">
<title>TABL&#45;SCX_T100KEY&#45;&gt;DTEL&#45;SCX_ATTRNAME</title>
<path fill="none" stroke="black" d="M1928.67,-503.7C1921.24,-495.3 1912.18,-485.07 1904.02,-475.86"/>
<polygon fill="black" stroke="black" points="1906.4,-473.27 1897.15,-468.1 1901.16,-477.91 1906.4,-473.27"/>
</g>
<!-- TABL&#45;SCX_T100KEY&#45;&gt;DTEL&#45;SYMSGNO -->
<g id="edge31" class="edge">
<title>TABL&#45;SCX_T100KEY&#45;&gt;DTEL&#45;SYMSGNO</title>
<path fill="none" stroke="black" d="M1868.85,-505.2C1813.41,-493.55 1738.4,-477.78 1683.58,-466.26"/>
<polygon fill="black" stroke="black" points="1684.09,-462.79 1673.59,-464.16 1682.65,-469.64 1684.09,-462.79"/>
</g>
<!-- TABL&#45;SCX_T100KEY&#45;&gt;DTEL&#45;SYMSGID -->
<g id="edge30" class="edge">
<title>TABL&#45;SCX_T100KEY&#45;&gt;DTEL&#45;SYMSGID</title>
<path fill="none" stroke="black" d="M1978.49,-503.88C1997.44,-494.47 2021.13,-482.71 2041.36,-472.67"/>
<polygon fill="black" stroke="black" points="2042.97,-475.77 2050.37,-468.19 2039.86,-469.5 2042.97,-475.77"/>
</g>
<!-- DOMA&#45;SYMSGNO -->
<g id="node10" class="node">
<title>DOMA&#45;SYMSGNO</title>
<g id="a_node10"><a xlink:href="./DOMA_SYMSGNO.html" xlink:title="DOMA&#45;SYMSGNO">
<polygon fill="none" stroke="yellow" points="1676.86,-396 1545.14,-396 1545.14,-360 1676.86,-360 1676.86,-396"/>
<text text-anchor="middle" x="1611" y="-373.8" font-family="Times,serif" font-size="14.00">DOMA&#45;SYMSGNO</text>
</a>
</g>
</g>
<!-- DTEL&#45;SYMSGNO&#45;&gt;DOMA&#45;SYMSGNO -->
<g id="edge33" class="edge">
<title>DTEL&#45;SYMSGNO&#45;&gt;DOMA&#45;SYMSGNO</title>
<path fill="none" stroke="black" d="M1611,-431.7C1611,-423.98 1611,-414.71 1611,-406.11"/>
<polygon fill="black" stroke="black" points="1614.5,-406.1 1611,-396.1 1607.5,-406.1 1614.5,-406.1"/>
</g>
<!-- DOMA&#45;ARBGB -->
<g id="node12" class="node">
<title>DOMA&#45;ARBGB</title>
<g id="a_node12"><a xlink:href="./DOMA_ARBGB.html" xlink:title="DOMA&#45;ARBGB">
<polygon fill="none" stroke="yellow" points="2140.65,-396 2029.35,-396 2029.35,-360 2140.65,-360 2140.65,-396"/>
<text text-anchor="middle" x="2085" y="-373.8" font-family="Times,serif" font-size="14.00">DOMA&#45;ARBGB</text>
</a>
</g>
</g>
<!-- DTEL&#45;SYMSGID&#45;&gt;DOMA&#45;ARBGB -->
<g id="edge34" class="edge">
<title>DTEL&#45;SYMSGID&#45;&gt;DOMA&#45;ARBGB</title>
<path fill="none" stroke="black" d="M2085,-431.7C2085,-423.98 2085,-414.71 2085,-406.11"/>
<polygon fill="black" stroke="black" points="2088.5,-406.1 2085,-396.1 2081.5,-406.1 2088.5,-406.1"/>
</g>
<!-- DOMA&#45;SYCHAR01 -->
<g id="node14" class="node">
<title>DOMA&#45;SYCHAR01</title>
<g id="a_node14"><a xlink:href="./DOMA_SYCHAR01.html" xlink:title="DOMA&#45;SYCHAR01">
<polygon fill="none" stroke="yellow" points="1583.2,-540 1448.8,-540 1448.8,-504 1583.2,-504 1583.2,-540"/>
<text text-anchor="middle" x="1516" y="-517.8" font-family="Times,serif" font-size="14.00">DOMA&#45;SYCHAR01</text>
</a>
</g>
</g>
<!-- DTEL&#45;SYMSGTY&#45;&gt;DOMA&#45;SYCHAR01 -->
<g id="edge35" class="edge">
<title>DTEL&#45;SYMSGTY&#45;&gt;DOMA&#45;SYCHAR01</title>
<path fill="none" stroke="black" d="M1512.24,-575.7C1512.79,-567.98 1513.45,-558.71 1514.06,-550.11"/>
<polygon fill="black" stroke="black" points="1517.56,-550.33 1514.78,-540.1 1510.57,-549.83 1517.56,-550.33"/>
</g>
<!-- DOMA&#45;SYCHAR50 -->
<g id="node16" class="node">
<title>DOMA&#45;SYCHAR50</title>
<g id="a_node16"><a xlink:href="./DOMA_SYCHAR50.html" xlink:title="DOMA&#45;SYCHAR50">
<polygon fill="none" stroke="yellow" points="2247.2,-540 2112.8,-540 2112.8,-504 2247.2,-504 2247.2,-540"/>
<text text-anchor="middle" x="2180" y="-517.8" font-family="Times,serif" font-size="14.00">DOMA&#45;SYCHAR50</text>
</a>
</g>
</g>
<!-- DTEL&#45;SYMSGV&#45;&gt;DOMA&#45;SYCHAR50 -->
<g id="edge36" class="edge">
<title>DTEL&#45;SYMSGV&#45;&gt;DOMA&#45;SYCHAR50</title>
<path fill="none" stroke="black" d="M2124.29,-575.7C2133.43,-567.05 2144.64,-556.45 2154.6,-547.03"/>
<polygon fill="black" stroke="black" points="2157.06,-549.52 2161.92,-540.1 2152.25,-544.43 2157.06,-549.52"/>
</g>
<!-- INTF&#45;IF_XCO_MESSAGE_SHORT_TEXT&#45;&gt;INTF&#45;IF_XCO_MESSAGE -->
<g id="edge37" class="edge">
<title>INTF&#45;IF_XCO_MESSAGE_SHORT_TEXT&#45;&gt;INTF&#45;IF_XCO_MESSAGE</title>
<path fill="none" stroke="black" d="M1067.55,-684.06C1145.47,-695.29 1243.7,-709.9 1315.38,-720.92"/>
<polygon fill="black" stroke="black" points="1314.9,-724.39 1325.32,-722.45 1315.97,-717.47 1314.9,-724.39"/>
</g>
<!-- INTF&#45;IF_XCO_L10N_TEXT -->
<g id="node18" class="node">
<title>INTF&#45;IF_XCO_L10N_TEXT</title>
<g id="a_node18"><a xlink:href="./INTF_IF_XCO_L10N_TEXT.html" xlink:title="INTF&#45;IF_XCO_L10N_TEXT">
<polygon fill="none" stroke="yellow" points="984.68,-612 801.32,-612 801.32,-576 984.68,-576 984.68,-612"/>
<text text-anchor="middle" x="893" y="-589.8" font-family="Times,serif" font-size="14.00">INTF&#45;IF_XCO_L10N_TEXT</text>
</a>
</g>
</g>
<!-- INTF&#45;IF_XCO_MESSAGE_SHORT_TEXT&#45;&gt;INTF&#45;IF_XCO_L10N_TEXT -->
<g id="edge39" class="edge">
<title>INTF&#45;IF_XCO_MESSAGE_SHORT_TEXT&#45;&gt;INTF&#45;IF_XCO_L10N_TEXT</title>
<path fill="none" stroke="black" d="M929.13,-647.7C923.5,-639.47 916.65,-629.48 910.43,-620.42"/>
<polygon fill="black" stroke="black" points="913.27,-618.37 904.73,-612.1 907.5,-622.33 913.27,-618.37"/>
</g>
<!-- INTF&#45;IF_XCO_TEXT -->
<g id="node19" class="node">
<title>INTF&#45;IF_XCO_TEXT</title>
<g id="a_node19"><a xlink:href="./INTF_IF_XCO_TEXT.html" xlink:title="INTF&#45;IF_XCO_TEXT">
<polygon fill="none" stroke="green" points="1091.52,-468 948.48,-468 948.48,-432 1091.52,-432 1091.52,-468"/>
<text text-anchor="middle" x="1020" y="-445.8" font-family="Times,serif" font-size="14.00">INTF&#45;IF_XCO_TEXT</text>
</a>
</g>
</g>
<!-- INTF&#45;IF_XCO_MESSAGE_SHORT_TEXT&#45;&gt;INTF&#45;IF_XCO_TEXT -->
<g id="edge38" class="edge">
<title>INTF&#45;IF_XCO_MESSAGE_SHORT_TEXT&#45;&gt;INTF&#45;IF_XCO_TEXT</title>
<path fill="none" stroke="black" d="M963.96,-647.79C974.8,-638.42 986.89,-625.9 994,-612 1016.01,-568.97 1020.23,-511.74 1020.59,-478.38"/>
<polygon fill="black" stroke="black" points="1024.09,-478.03 1020.59,-468.04 1017.09,-478.04 1024.09,-478.03"/>
</g>
<!-- INTF&#45;IF_XCO_L10N_TEXT&#45;&gt;INTF&#45;IF_XCO_TEXT -->
<g id="edge41" class="edge">
<title>INTF&#45;IF_XCO_L10N_TEXT&#45;&gt;INTF&#45;IF_XCO_TEXT</title>
<path fill="none" stroke="black" d="M908.32,-575.87C930.63,-550.92 972.2,-504.45 997.84,-475.77"/>
<polygon fill="black" stroke="black" points="1000.57,-477.98 1004.63,-468.19 995.35,-473.31 1000.57,-477.98"/>
</g>
<!-- DTEL&#45;SPRAS -->
<g id="node33" class="node">
<title>DTEL&#45;SPRAS</title>
<g id="a_node33"><a xlink:href="./DTEL_SPRAS.html" xlink:title="DTEL&#45;SPRAS">
<polygon fill="none" stroke="green" points="929.72,-540 830.28,-540 830.28,-504 929.72,-504 929.72,-540"/>
<text text-anchor="middle" x="880" y="-517.8" font-family="Times,serif" font-size="14.00">DTEL&#45;SPRAS</text>
</a>
</g>
</g>
<!-- INTF&#45;IF_XCO_L10N_TEXT&#45;&gt;DTEL&#45;SPRAS -->
<g id="edge40" class="edge">
<title>INTF&#45;IF_XCO_L10N_TEXT&#45;&gt;DTEL&#45;SPRAS</title>
<path fill="none" stroke="black" d="M889.79,-575.7C888.35,-567.98 886.63,-558.71 885.04,-550.11"/>
<polygon fill="black" stroke="black" points="888.44,-549.3 883.18,-540.1 881.56,-550.58 888.44,-549.3"/>
</g>
<!-- INTF&#45;IF_XCO_STRINGS -->
<g id="node20" class="node">
<title>INTF&#45;IF_XCO_STRINGS</title>
<g id="a_node20"><a xlink:href="./INTF_IF_XCO_STRINGS.html" xlink:title="INTF&#45;IF_XCO_STRINGS">
<polygon fill="none" stroke="green" points="1103.08,-396 936.92,-396 936.92,-360 1103.08,-360 1103.08,-396"/>
<text text-anchor="middle" x="1020" y="-373.8" font-family="Times,serif" font-size="14.00">INTF&#45;IF_XCO_STRINGS</text>
</a>
</g>
</g>
<!-- INTF&#45;IF_XCO_TEXT&#45;&gt;INTF&#45;IF_XCO_STRINGS -->
<g id="edge42" class="edge">
<title>INTF&#45;IF_XCO_TEXT&#45;&gt;INTF&#45;IF_XCO_STRINGS</title>
<path fill="none" stroke="black" d="M1014.08,-431.7C1013.29,-423.98 1013.06,-414.71 1013.4,-406.11"/>
<polygon fill="black" stroke="black" points="1016.9,-406.32 1014.1,-396.1 1009.92,-405.84 1016.9,-406.32"/>
</g>
<!-- INTF&#45;IF_XCO_STRINGS&#45;&gt;INTF&#45;IF_XCO_NEWS -->
<g id="edge47" class="edge">
<title>INTF&#45;IF_XCO_STRINGS&#45;&gt;INTF&#45;IF_XCO_NEWS</title>
<path fill="none" stroke="black" d="M1103.35,-370.95C1140.53,-364.33 1182.49,-350.92 1212,-324 1272.74,-268.6 1291.8,-166.98 1297.58,-118.34"/>
<polygon fill="black" stroke="black" points="1301.08,-118.58 1298.68,-108.26 1294.12,-117.82 1301.08,-118.58"/>
</g>
<!-- INTF&#45;IF_XCO_STRINGS&#45;&gt;INTF&#45;IF_XCO_TEXT -->
<g id="edge48" class="edge">
<title>INTF&#45;IF_XCO_STRINGS&#45;&gt;INTF&#45;IF_XCO_TEXT</title>
<path fill="none" stroke="black" d="M1025.9,-396.1C1026.7,-403.79 1026.94,-413.05 1026.6,-421.67"/>
<polygon fill="black" stroke="black" points="1023.11,-421.48 1025.92,-431.7 1030.09,-421.96 1023.11,-421.48"/>
</g>
<!-- INTF&#45;IF_XCO_STRING_ITERABLE -->
<g id="node21" class="node">
<title>INTF&#45;IF_XCO_STRING_ITERABLE</title>
<g id="a_node21"><a xlink:href="./INTF_IF_XCO_STRING_ITERABLE.html" xlink:title="INTF&#45;IF_XCO_STRING_ITERABLE">
<polygon fill="none" stroke="green" points="588.45,-324 355.55,-324 355.55,-288 588.45,-288 588.45,-324"/>
<text text-anchor="middle" x="472" y="-301.8" font-family="Times,serif" font-size="14.00">INTF&#45;IF_XCO_STRING_ITERABLE</text>
</a>
</g>
</g>
<!-- INTF&#45;IF_XCO_STRINGS&#45;&gt;INTF&#45;IF_XCO_STRING_ITERABLE -->
<g id="edge49" class="edge">
<title>INTF&#45;IF_XCO_STRINGS&#45;&gt;INTF&#45;IF_XCO_STRING_ITERABLE</title>
<path fill="none" stroke="black" d="M936.7,-366.77C853.8,-356.53 722.66,-340.2 598.75,-324.09"/>
<polygon fill="black" stroke="black" points="599.06,-320.6 588.7,-322.78 598.16,-327.54 599.06,-320.6"/>
</g>
<!-- INTF&#45;IF_XCO_STRING -->
<g id="node24" class="node">
<title>INTF&#45;IF_XCO_STRING</title>
<g id="a_node24"><a xlink:href="./INTF_IF_XCO_STRING.html" xlink:title="INTF&#45;IF_XCO_STRING">
<polygon fill="none" stroke="green" points="816.3,-180 657.7,-180 657.7,-144 816.3,-144 816.3,-180"/>
<text text-anchor="middle" x="737" y="-157.8" font-family="Times,serif" font-size="14.00">INTF&#45;IF_XCO_STRING</text>
</a>
</g>
</g>
<!-- INTF&#45;IF_XCO_STRINGS&#45;&gt;INTF&#45;IF_XCO_STRING -->
<g id="edge45" class="edge">
<title>INTF&#45;IF_XCO_STRINGS&#45;&gt;INTF&#45;IF_XCO_STRING</title>
<path fill="none" stroke="black" d="M1101.48,-359.99C1119.98,-352.15 1137.52,-340.71 1149,-324 1176.18,-284.44 1180.75,-252 1149,-216 1127.83,-192 941.45,-176.16 826.7,-168.46"/>
<polygon fill="black" stroke="black" points="826.72,-164.96 816.51,-167.79 826.26,-171.94 826.72,-164.96"/>
</g>
<!-- INTF&#45;IF_XCO_STRING_COMPOSITION -->
<g id="node29" class="node">
<title>INTF&#45;IF_XCO_STRING_COMPOSITION</title>
<g id="a_node29"><a xlink:href="./INTF_IF_XCO_STRING_COMPOSITION.html" xlink:title="INTF&#45;IF_XCO_STRING_COMPOSITION">
<polygon fill="none" stroke="green" points="867.45,-324 606.55,-324 606.55,-288 867.45,-288 867.45,-324"/>
<text text-anchor="middle" x="737" y="-301.8" font-family="Times,serif" font-size="14.00">INTF&#45;IF_XCO_STRING_COMPOSITION</text>
</a>
</g>
</g>
<!-- INTF&#45;IF_XCO_STRINGS&#45;&gt;INTF&#45;IF_XCO_STRING_COMPOSITION -->
<g id="edge46" class="edge">
<title>INTF&#45;IF_XCO_STRINGS&#45;&gt;INTF&#45;IF_XCO_STRING_COMPOSITION</title>
<path fill="none" stroke="black" d="M945.24,-359.97C903.44,-349.89 851.59,-337.08 810.06,-326.59"/>
<polygon fill="black" stroke="black" points="810.83,-323.17 800.28,-324.11 809.12,-329.96 810.83,-323.17"/>
</g>
<!-- TTYP&#45;STRING_TABLE -->
<g id="node30" class="node">
<title>TTYP&#45;STRING_TABLE</title>
<g id="a_node30"><a xlink:href="./TTYP_STRING_TABLE.html" xlink:title="TTYP&#45;STRING_TABLE">
<polygon fill="none" stroke="green" points="1044.3,-324 885.7,-324 885.7,-288 1044.3,-288 1044.3,-324"/>
<text text-anchor="middle" x="965" y="-301.8" font-family="Times,serif" font-size="14.00">TTYP&#45;STRING_TABLE</text>
</a>
</g>
</g>
<!-- INTF&#45;IF_XCO_STRINGS&#45;&gt;TTYP&#45;STRING_TABLE -->
<g id="edge44" class="edge">
<title>INTF&#45;IF_XCO_STRINGS&#45;&gt;TTYP&#45;STRING_TABLE</title>
<path fill="none" stroke="black" d="M1006.4,-359.7C999.88,-351.39 991.93,-341.28 984.75,-332.14"/>
<polygon fill="black" stroke="black" points="987.37,-329.81 978.44,-324.1 981.87,-334.13 987.37,-329.81"/>
</g>
<!-- DTEL&#45;INT4 -->
<g id="node31" class="node">
<title>DTEL&#45;INT4</title>
<g id="a_node31"><a xlink:href="./DTEL_INT4.html" xlink:title="DTEL&#45;INT4">
<polygon fill="none" stroke="green" points="1149.25,-324 1062.75,-324 1062.75,-288 1149.25,-288 1149.25,-324"/>
<text text-anchor="middle" x="1106" y="-301.8" font-family="Times,serif" font-size="14.00">DTEL&#45;INT4</text>
</a>
</g>
</g>
<!-- INTF&#45;IF_XCO_STRINGS&#45;&gt;DTEL&#45;INT4 -->
<g id="edge43" class="edge">
<title>INTF&#45;IF_XCO_STRINGS&#45;&gt;DTEL&#45;INT4</title>
<path fill="none" stroke="black" d="M1041.26,-359.7C1052.09,-350.88 1065.42,-340.03 1077.16,-330.47"/>
<polygon fill="black" stroke="black" points="1079.44,-333.13 1084.99,-324.1 1075.02,-327.7 1079.44,-333.13"/>
</g>
<!-- INTF&#45;IF_XCO_STRING_ITERATOR -->
<g id="node22" class="node">
<title>INTF&#45;IF_XCO_STRING_ITERATOR</title>
<g id="a_node22"><a xlink:href="./INTF_IF_XCO_STRING_ITERATOR.html" xlink:title="INTF&#45;IF_XCO_STRING_ITERATOR">
<polygon fill="none" stroke="green" points="262.01,-252 27.99,-252 27.99,-216 262.01,-216 262.01,-252"/>
<text text-anchor="middle" x="145" y="-229.8" font-family="Times,serif" font-size="14.00">INTF&#45;IF_XCO_STRING_ITERATOR</text>
</a>
</g>
</g>
<!-- INTF&#45;IF_XCO_STRING_ITERABLE&#45;&gt;INTF&#45;IF_XCO_STRING_ITERATOR -->
<g id="edge50" class="edge">
<title>INTF&#45;IF_XCO_STRING_ITERABLE&#45;&gt;INTF&#45;IF_XCO_STRING_ITERATOR</title>
<path fill="none" stroke="black" d="M392.42,-287.97C344.76,-277.76 284.04,-264.76 234.68,-254.2"/>
<polygon fill="black" stroke="black" points="235.16,-250.72 224.65,-252.05 233.69,-257.57 235.16,-250.72"/>
</g>
<!-- INTF&#45;IF_XCO_ITERATOR -->
<g id="node23" class="node">
<title>INTF&#45;IF_XCO_ITERATOR</title>
<g id="a_node23"><a xlink:href="./INTF_IF_XCO_ITERATOR.html" xlink:title="INTF&#45;IF_XCO_ITERATOR">
<polygon fill="none" stroke="green" points="233.46,-180 56.54,-180 56.54,-144 233.46,-144 233.46,-180"/>
<text text-anchor="middle" x="145" y="-157.8" font-family="Times,serif" font-size="14.00">INTF&#45;IF_XCO_ITERATOR</text>
</a>
</g>
</g>
<!-- INTF&#45;IF_XCO_STRING_ITERATOR&#45;&gt;INTF&#45;IF_XCO_ITERATOR -->
<g id="edge52" class="edge">
<title>INTF&#45;IF_XCO_STRING_ITERATOR&#45;&gt;INTF&#45;IF_XCO_ITERATOR</title>
<path fill="none" stroke="black" d="M145,-215.7C145,-207.98 145,-198.71 145,-190.11"/>
<polygon fill="black" stroke="black" points="148.5,-190.1 145,-180.1 141.5,-190.1 148.5,-190.1"/>
</g>
<!-- INTF&#45;IF_XCO_STRING_ITERATOR&#45;&gt;INTF&#45;IF_XCO_STRING -->
<g id="edge51" class="edge">
<title>INTF&#45;IF_XCO_STRING_ITERATOR&#45;&gt;INTF&#45;IF_XCO_STRING</title>
<path fill="none" stroke="black" d="M262.12,-217.72C266.81,-217.13 271.45,-216.56 276,-216 405.1,-200.2 554.72,-183.25 647.63,-172.88"/>
<polygon fill="black" stroke="black" points="648.28,-176.33 657.83,-171.75 647.51,-169.38 648.28,-176.33"/>
</g>
<!-- INTF&#45;IF_XCO_STRING&#45;&gt;INTF&#45;IF_XCO_MESSAGE -->
<g id="edge55" class="edge">
<title>INTF&#45;IF_XCO_STRING&#45;&gt;INTF&#45;IF_XCO_MESSAGE</title>
<path fill="none" stroke="black" d="M657.56,-165.13C556.3,-169.25 388.32,-181.27 338,-216 301.01,-241.53 290,-260.06 290,-305 290,-595 290,-595 290,-595 290,-697.92 1042.7,-727.51 1315.09,-734.84"/>
<polygon fill="black" stroke="black" points="1315.27,-738.35 1325.36,-735.12 1315.45,-731.35 1315.27,-738.35"/>
</g>
<!-- INTF&#45;IF_XCO_STRING&#45;&gt;INTF&#45;IF_XCO_NEWS -->
<g id="edge58" class="edge">
<title>INTF&#45;IF_XCO_STRING&#45;&gt;INTF&#45;IF_XCO_NEWS</title>
<path fill="none" stroke="black" d="M816.46,-153.17C908.64,-143.78 1065.1,-126.94 1199,-108 1204.5,-107.22 1210.17,-106.38 1215.87,-105.5"/>
<polygon fill="black" stroke="black" points="1216.82,-108.9 1226.15,-103.89 1215.73,-101.98 1216.82,-108.9"/>
</g>
<!-- INTF&#45;IF_XCO_STRING&#45;&gt;INTF&#45;IF_XCO_TEXT -->
<g id="edge59" class="edge">
<title>INTF&#45;IF_XCO_STRING&#45;&gt;INTF&#45;IF_XCO_TEXT</title>
<path fill="none" stroke="black" d="M657.82,-168.02C519.62,-179.67 257.21,-216.35 347,-324 430.65,-424.29 790.35,-407.15 938.2,-432.02"/>
<polygon fill="black" stroke="black" points="938,-435.54 948.47,-433.88 939.25,-428.65 938,-435.54"/>
</g>
<!-- INTF&#45;IF_XCO_STRING&#45;&gt;INTF&#45;IF_XCO_STRINGS -->
<g id="edge53" class="edge">
<title>INTF&#45;IF_XCO_STRING&#45;&gt;INTF&#45;IF_XCO_STRINGS</title>
<path fill="none" stroke="black" d="M816.59,-167.07C934.64,-174.15 1144.46,-190.45 1167,-216 1198.75,-252 1194.18,-284.44 1167,-324 1154.28,-342.52 1134.12,-354.57 1112.73,-362.41"/>
<polygon fill="black" stroke="black" points="1111.54,-359.12 1103.18,-365.62 1113.77,-365.75 1111.54,-359.12"/>
</g>
<!-- INTF&#45;IF_XCO_STRING&#45;&gt;INTF&#45;IF_XCO_STRING_ITERABLE -->
<g id="edge60" class="edge">
<title>INTF&#45;IF_XCO_STRING&#45;&gt;INTF&#45;IF_XCO_STRING_ITERABLE</title>
<path fill="none" stroke="black" d="M704.92,-180.19C656.8,-205.97 565.96,-254.65 513.07,-283"/>
<polygon fill="black" stroke="black" points="511.13,-280.06 503.97,-287.87 514.43,-286.23 511.13,-280.06"/>
</g>
<!-- INTF&#45;IF_XCO_XSTRING -->
<g id="node25" class="node">
<title>INTF&#45;IF_XCO_XSTRING</title>
<g id="a_node25"><a xlink:href="./INTF_IF_XCO_XSTRING.html" xlink:title="INTF&#45;IF_XCO_XSTRING">
<polygon fill="none" stroke="green" points="584.41,-108 415.59,-108 415.59,-72 584.41,-72 584.41,-108"/>
<text text-anchor="middle" x="500" y="-85.8" font-family="Times,serif" font-size="14.00">INTF&#45;IF_XCO_XSTRING</text>
</a>
</g>
</g>
<!-- INTF&#45;IF_XCO_STRING&#45;&gt;INTF&#45;IF_XCO_XSTRING -->
<g id="edge57" class="edge">
<title>INTF&#45;IF_XCO_STRING&#45;&gt;INTF&#45;IF_XCO_XSTRING</title>
<path fill="none" stroke="black" d="M673.44,-143.97C638.85,-134.06 596.28,-121.51 561.95,-111.12"/>
<polygon fill="black" stroke="black" points="562.62,-107.67 552.04,-108.11 560.59,-114.37 562.62,-107.67"/>
</g>
<!-- INTF&#45;IF_XCO_STRING_XSTRING_CNVRSN -->
<g id="node27" class="node">
<title>INTF&#45;IF_XCO_STRING_XSTRING_CNVRSN</title>
<g id="a_node27"><a xlink:href="./INTF_IF_XCO_STRING_XSTRING_CNVRSN.html" xlink:title="INTF&#45;IF_XCO_STRING_XSTRING_CNVRSN">
<polygon fill="none" stroke="green" points="891.73,-108 602.27,-108 602.27,-72 891.73,-72 891.73,-108"/>
<text text-anchor="middle" x="747" y="-85.8" font-family="Times,serif" font-size="14.00">INTF&#45;IF_XCO_STRING_XSTRING_CNVRSN</text>
</a>
</g>
</g>
<!-- INTF&#45;IF_XCO_STRING&#45;&gt;INTF&#45;IF_XCO_STRING_XSTRING_CNVRSN -->
<g id="edge56" class="edge">
<title>INTF&#45;IF_XCO_STRING&#45;&gt;INTF&#45;IF_XCO_STRING_XSTRING_CNVRSN</title>
<path fill="none" stroke="black" d="M739.47,-143.7C740.57,-135.98 741.9,-126.71 743.13,-118.11"/>
<polygon fill="black" stroke="black" points="746.61,-118.5 744.56,-108.1 739.68,-117.51 746.61,-118.5"/>
</g>
<!-- INTF&#45;IF_XCO_STRING_DECOMPOSITION -->
<g id="node28" class="node">
<title>INTF&#45;IF_XCO_STRING_DECOMPOSITION</title>
<g id="a_node28"><a xlink:href="./INTF_IF_XCO_STRING_DECOMPOSITION.html" xlink:title="INTF&#45;IF_XCO_STRING_DECOMPOSITION">
<polygon fill="none" stroke="green" points="1189.61,-108 910.39,-108 910.39,-72 1189.61,-72 1189.61,-108"/>
<text text-anchor="middle" x="1050" y="-85.8" font-family="Times,serif" font-size="14.00">INTF&#45;IF_XCO_STRING_DECOMPOSITION</text>
</a>
</g>
</g>
<!-- INTF&#45;IF_XCO_STRING&#45;&gt;INTF&#45;IF_XCO_STRING_DECOMPOSITION -->
<g id="edge54" class="edge">
<title>INTF&#45;IF_XCO_STRING&#45;&gt;INTF&#45;IF_XCO_STRING_DECOMPOSITION</title>
<path fill="none" stroke="black" d="M807.28,-143.97C851.83,-133.76 909.88,-120.76 958.06,-110.2"/>
<polygon fill="black" stroke="black" points="958.85,-113.61 967.87,-108.05 957.36,-106.77 958.85,-113.61"/>
</g>
<!-- INTF&#45;IF_XCO_XSTRING&#45;&gt;INTF&#45;IF_XCO_STRING -->
<g id="edge62" class="edge">
<title>INTF&#45;IF_XCO_XSTRING&#45;&gt;INTF&#45;IF_XCO_STRING</title>
<path fill="none" stroke="black" d="M563.83,-108.11C598.46,-118.03 641.02,-130.58 675.32,-140.96"/>
<polygon fill="black" stroke="black" points="674.63,-144.41 685.21,-143.97 676.66,-137.71 674.63,-144.41"/>
</g>
<!-- INTF&#45;IF_XCO_XSTRING_STRING_CNVRSN -->
<g id="node26" class="node">
<title>INTF&#45;IF_XCO_XSTRING_STRING_CNVRSN</title>
<g id="a_node26"><a xlink:href="./INTF_IF_XCO_XSTRING_STRING_CNVRSN.html" xlink:title="INTF&#45;IF_XCO_XSTRING_STRING_CNVRSN">
<polygon fill="none" stroke="green" points="644.73,-36 355.27,-36 355.27,0 644.73,0 644.73,-36"/>
<text text-anchor="middle" x="500" y="-13.8" font-family="Times,serif" font-size="14.00">INTF&#45;IF_XCO_XSTRING_STRING_CNVRSN</text>
</a>
</g>
</g>
<!-- INTF&#45;IF_XCO_XSTRING&#45;&gt;INTF&#45;IF_XCO_XSTRING_STRING_CNVRSN -->
<g id="edge61" class="edge">
<title>INTF&#45;IF_XCO_XSTRING&#45;&gt;INTF&#45;IF_XCO_XSTRING_STRING_CNVRSN</title>
<path fill="none" stroke="black" d="M500,-71.7C500,-63.98 500,-54.71 500,-46.11"/>
<polygon fill="black" stroke="black" points="503.5,-46.1 500,-36.1 496.5,-46.1 503.5,-46.1"/>
</g>
<!-- INTF&#45;IF_XCO_STRING_DECOMPOSITION&#45;&gt;INTF&#45;IF_XCO_STRINGS -->
<g id="edge64" class="edge">
<title>INTF&#45;IF_XCO_STRING_DECOMPOSITION&#45;&gt;INTF&#45;IF_XCO_STRINGS</title>
<path fill="none" stroke="black" d="M1081.77,-108.12C1116.05,-128.62 1168.72,-166.48 1191,-216 1210.69,-259.78 1218.71,-285.53 1190,-324 1171.81,-348.37 1142.49,-361.84 1113.29,-369.18"/>
<polygon fill="black" stroke="black" points="1112.37,-365.8 1103.4,-371.45 1113.93,-372.63 1112.37,-365.8"/>
</g>
<!-- INTF&#45;IF_XCO_STRING_DECOMPOSITION&#45;&gt;INTF&#45;IF_XCO_STRING -->
<g id="edge63" class="edge">
<title>INTF&#45;IF_XCO_STRING_DECOMPOSITION&#45;&gt;INTF&#45;IF_XCO_STRING</title>
<path fill="none" stroke="black" d="M979.7,-108.04C934.27,-118.44 874.83,-131.75 826.11,-142.42"/>
<polygon fill="black" stroke="black" points="825.23,-139.03 816.21,-144.59 826.72,-145.87 825.23,-139.03"/>
</g>
<!-- INTF&#45;IF_XCO_STRING_COMPOSITION&#45;&gt;INTF&#45;IF_XCO_STRINGS -->
<g id="edge65" class="edge">
<title>INTF&#45;IF_XCO_STRING_COMPOSITION&#45;&gt;INTF&#45;IF_XCO_STRINGS</title>
<path fill="none" stroke="black" d="M811.82,-324.05C853.72,-334.15 905.68,-346.98 947.24,-357.49"/>
<polygon fill="black" stroke="black" points="946.47,-360.9 957.02,-359.97 948.19,-354.12 946.47,-360.9"/>
</g>
<!-- INTF&#45;IF_XCO_STRING_COMPOSITION&#45;&gt;INTF&#45;IF_XCO_STRING -->
<g id="edge66" class="edge">
<title>INTF&#45;IF_XCO_STRING_COMPOSITION&#45;&gt;INTF&#45;IF_XCO_STRING</title>
<path fill="none" stroke="black" d="M737,-287.87C737,-263.67 737,-219.21 737,-190.39"/>
<polygon fill="black" stroke="black" points="740.5,-190.19 737,-180.19 733.5,-190.19 740.5,-190.19"/>
</g>
<!-- DOMA&#45;INT4 -->
<g id="node32" class="node">
<title>DOMA&#45;INT4</title>
<g id="a_node32"><a xlink:href="./DOMA_INT4.html" xlink:title="DOMA&#45;INT4">
<polygon fill="none" stroke="yellow" points="1148.75,-252 1055.25,-252 1055.25,-216 1148.75,-216 1148.75,-252"/>
<text text-anchor="middle" x="1102" y="-229.8" font-family="Times,serif" font-size="14.00">DOMA&#45;INT4</text>
</a>
</g>
</g>
<!-- DTEL&#45;INT4&#45;&gt;DOMA&#45;INT4 -->
<g id="edge67" class="edge">
<title>DTEL&#45;INT4&#45;&gt;DOMA&#45;INT4</title>
<path fill="none" stroke="black" d="M1105.01,-287.7C1104.57,-279.98 1104.04,-270.71 1103.55,-262.11"/>
<polygon fill="black" stroke="black" points="1107.04,-261.89 1102.98,-252.1 1100.05,-262.29 1107.04,-261.89"/>
</g>
<!-- DOMA&#45;SPRAS -->
<g id="node34" class="node">
<title>DOMA&#45;SPRAS</title>
<g id="a_node34"><a xlink:href="./DOMA_SPRAS.html" xlink:title="DOMA&#45;SPRAS">
<polygon fill="none" stroke="green" points="930.22,-468 823.78,-468 823.78,-432 930.22,-432 930.22,-468"/>
<text text-anchor="middle" x="877" y="-445.8" font-family="Times,serif" font-size="14.00">DOMA&#45;SPRAS</text>
</a>
</g>
</g>
<!-- DTEL&#45;SPRAS&#45;&gt;DOMA&#45;SPRAS -->
<g id="edge68" class="edge">
<title>DTEL&#45;SPRAS&#45;&gt;DOMA&#45;SPRAS</title>
<path fill="none" stroke="black" d="M879.26,-503.7C878.93,-495.98 878.53,-486.71 878.16,-478.11"/>
<polygon fill="black" stroke="black" points="881.66,-477.95 877.73,-468.1 874.66,-478.25 881.66,-477.95"/>
</g>
<!-- CLAS&#45;CL_XCO_MESSAGE_TYPE&#45;&gt;INTF&#45;IF_XCO_NEWS -->
<g id="edge71" class="edge">
<title>CLAS&#45;CL_XCO_MESSAGE_TYPE&#45;&gt;INTF&#45;IF_XCO_NEWS</title>
<path fill="none" stroke="black" d="M1246.65,-647.89C1262.42,-639.31 1279.25,-627.42 1290,-612 1313.14,-578.83 1309,-563.45 1309,-523 1309,-523 1309,-523 1309,-233 1309,-192.92 1305.38,-146.59 1302.74,-118.05"/>
<polygon fill="black" stroke="black" points="1306.21,-117.65 1301.78,-108.03 1299.25,-118.31 1306.21,-117.65"/>
</g>
<!-- CLAS&#45;CL_XCO_MESSAGE_TYPE&#45;&gt;DTEL&#45;SYMSGTY -->
<g id="edge69" class="edge">
<title>CLAS&#45;CL_XCO_MESSAGE_TYPE&#45;&gt;DTEL&#45;SYMSGTY</title>
<path fill="none" stroke="black" d="M1280.22,-647.97C1328.62,-636.86 1391.45,-622.44 1439.33,-611.45"/>
<polygon fill="black" stroke="black" points="1440.35,-614.81 1449.31,-609.16 1438.78,-607.98 1440.35,-614.81"/>
</g>
<!-- CLAS&#45;CL_XCO_ENUM_CONSTANT -->
<g id="node36" class="node">
<title>CLAS&#45;CL_XCO_ENUM_CONSTANT</title>
<g id="a_node36"><a xlink:href="./CLAS_CL_XCO_ENUM_CONSTANT.html" xlink:title="CLAS&#45;CL_XCO_ENUM_CONSTANT">
<polygon fill="none" stroke="yellow" points="1281.24,-612 1040.76,-612 1040.76,-576 1281.24,-576 1281.24,-612"/>
<text text-anchor="middle" x="1161" y="-589.8" font-family="Times,serif" font-size="14.00">CLAS&#45;CL_XCO_ENUM_CONSTANT</text>
</a>
</g>
</g>
<!-- CLAS&#45;CL_XCO_MESSAGE_TYPE&#45;&gt;CLAS&#45;CL_XCO_ENUM_CONSTANT -->
<g id="edge70" class="edge">
<title>CLAS&#45;CL_XCO_MESSAGE_TYPE&#45;&gt;CLAS&#45;CL_XCO_ENUM_CONSTANT</title>
<path fill="none" stroke="black" d="M1194.88,-647.7C1189.64,-639.56 1183.3,-629.69 1177.52,-620.7"/>
<polygon fill="black" stroke="black" points="1180.35,-618.62 1172,-612.1 1174.46,-622.41 1180.35,-618.62"/>
</g>
<!-- INTF&#45;IF_XCO_PRINTABLE -->
<g id="node37" class="node">
<title>INTF&#45;IF_XCO_PRINTABLE</title>
<g id="a_node37"><a xlink:href="./INTF_IF_XCO_PRINTABLE.html" xlink:title="INTF&#45;IF_XCO_PRINTABLE">
<polygon fill="none" stroke="green" points="1239.24,-540 1054.76,-540 1054.76,-504 1239.24,-504 1239.24,-540"/>
<text text-anchor="middle" x="1147" y="-517.8" font-family="Times,serif" font-size="14.00">INTF&#45;IF_XCO_PRINTABLE</text>
</a>
</g>
</g>
<!-- CLAS&#45;CL_XCO_ENUM_CONSTANT&#45;&gt;INTF&#45;IF_XCO_PRINTABLE -->
<g id="edge72" class="edge">
<title>CLAS&#45;CL_XCO_ENUM_CONSTANT&#45;&gt;INTF&#45;IF_XCO_PRINTABLE</title>
<path fill="none" stroke="black" d="M1157.54,-575.7C1156,-567.98 1154.14,-558.71 1152.42,-550.11"/>
<polygon fill="black" stroke="black" points="1155.81,-549.22 1150.42,-540.1 1148.95,-550.6 1155.81,-549.22"/>
</g>
<!-- INTF&#45;IF_XCO_PRINTABLE&#45;&gt;INTF&#45;IF_XCO_TEXT -->
<g id="edge73" class="edge">
<title>INTF&#45;IF_XCO_PRINTABLE&#45;&gt;INTF&#45;IF_XCO_TEXT</title>
<path fill="none" stroke="black" d="M1115.93,-503.88C1099.17,-494.64 1078.29,-483.13 1060.3,-473.21"/>
<polygon fill="black" stroke="black" points="1061.63,-469.95 1051.19,-468.19 1058.26,-476.08 1061.63,-469.95"/>
</g>
<!-- TABL&#45;SYMSG&#45;&gt;DTEL&#45;SYMSGNO -->
<g id="edge76" class="edge">
<title>TABL&#45;SYMSG&#45;&gt;DTEL&#45;SYMSGNO</title>
<path fill="none" stroke="black" d="M1727.87,-647.88C1700.12,-626.04 1654.29,-585.58 1630,-540 1619.75,-520.77 1615.03,-496.43 1612.86,-478.06"/>
<polygon fill="black" stroke="black" points="1616.33,-477.62 1611.85,-468.02 1609.36,-478.32 1616.33,-477.62"/>
</g>
<!-- TABL&#45;SYMSG&#45;&gt;DTEL&#45;SYMSGID -->
<g id="edge75" class="edge">
<title>TABL&#45;SYMSG&#45;&gt;DTEL&#45;SYMSGID</title>
<path fill="none" stroke="black" d="M1803.98,-649.26C1844.64,-636.98 1897.2,-620.61 1918,-612 1982.28,-585.38 2012.24,-593.27 2057,-540 2071.68,-522.53 2078.69,-497.32 2082.01,-478.2"/>
<polygon fill="black" stroke="black" points="2085.48,-478.69 2083.51,-468.28 2078.56,-477.65 2085.48,-478.69"/>
</g>
<!-- TABL&#45;SYMSG&#45;&gt;DTEL&#45;SYMSGTY -->
<g id="edge74" class="edge">
<title>TABL&#45;SYMSG&#45;&gt;DTEL&#45;SYMSGTY</title>
<path fill="none" stroke="black" d="M1698.03,-649.55C1663.06,-639.35 1616.9,-625.89 1579.19,-614.89"/>
<polygon fill="black" stroke="black" points="1579.88,-611.44 1569.3,-612 1577.92,-618.16 1579.88,-611.44"/>
</g>
<!-- TABL&#45;SYMSG&#45;&gt;DTEL&#45;SYMSGV -->
<g id="edge77" class="edge">
<title>TABL&#45;SYMSG&#45;&gt;DTEL&#45;SYMSGV</title>
<path fill="none" stroke="black" d="M1803.76,-655.98C1860.91,-646.01 1954.67,-629.1 2035,-612 2036.26,-611.73 2037.52,-611.46 2038.8,-611.18"/>
<polygon fill="black" stroke="black" points="2039.7,-614.57 2048.71,-608.98 2038.18,-607.73 2039.7,-614.57"/>
</g>
</g>
</svg>
