<?xml version="1.0" encoding="UTF-8" standalone="no"?>
<!DOCTYPE svg PUBLIC "-//W3C//DTD SVG 1.1//EN"
 "http://www.w3.org/Graphics/SVG/1.1/DTD/svg11.dtd">
<!-- Generated by graphviz version 2.47.3 (20210619.1520)
 -->
<!-- Title: G Pages: 1 -->
<svg width="684pt" height="260pt"
 viewBox="0.00 0.00 683.74 260.00" xmlns="http://www.w3.org/2000/svg" xmlns:xlink="http://www.w3.org/1999/xlink">
<g id="graph0" class="graph" transform="scale(1 1) rotate(0) translate(4 256)">
<title>G</title>
<polygon fill="white" stroke="transparent" points="-4,4 -4,-256 679.74,-256 679.74,4 -4,4"/>
<!-- INTF&#45;IF_XCO_GEN_SRVB_S_FO_SERVICE -->
<g id="node1" class="node">
<title>INTF&#45;IF_XCO_GEN_SRVB_S_FO_SERVICE</title>
<polygon fill="none" stroke="green" points="539.9,-252 254.73,-252 254.73,-216 539.9,-216 539.9,-252"/>
<text text-anchor="middle" x="397.31" y="-229.8" font-family="Times,serif" font-size="14.00">INTF&#45;IF_XCO_GEN_SRVB_S_FO_SERVICE</text>
</g>
<!-- INTF&#45;IF_XCO_GEN_SRVB_S_FO_SRV_VERSN -->
<g id="node2" class="node">
<title>INTF&#45;IF_XCO_GEN_SRVB_S_FO_SRV_VERSN</title>
<g id="a_node2"><a xlink:href="./INTF_IF_XCO_GEN_SRVB_S_FO_SRV_VERSN.html" xlink:title="INTF&#45;IF_XCO_GEN_SRVB_S_FO_SRV_VERSN">
<polygon fill="none" stroke="green" points="369.68,-180 62.95,-180 62.95,-144 369.68,-144 369.68,-180"/>
<text text-anchor="middle" x="216.31" y="-157.8" font-family="Times,serif" font-size="14.00">INTF&#45;IF_XCO_GEN_SRVB_S_FO_SRV_VERSN</text>
</a>
</g>
</g>
<!-- INTF&#45;IF_XCO_GEN_SRVB_S_FO_SERVICE&#45;&gt;INTF&#45;IF_XCO_GEN_SRVB_S_FO_SRV_VERSN -->
<g id="edge3" class="edge">
<title>INTF&#45;IF_XCO_GEN_SRVB_S_FO_SERVICE&#45;&gt;INTF&#45;IF_XCO_GEN_SRVB_S_FO_SRV_VERSN</title>
<path fill="none" stroke="black" d="M353.04,-215.88C327.96,-206.18 296.42,-193.98 269.95,-183.74"/>
<polygon fill="black" stroke="black" points="271.04,-180.41 260.45,-180.07 268.51,-186.94 271.04,-180.41"/>
</g>
<!-- DTEL&#45;SXCO_SRVB_SERVICE_VERSION -->
<g id="node5" class="node">
<title>DTEL&#45;SXCO_SRVB_SERVICE_VERSION</title>
<g id="a_node5"><a xlink:href="./DTEL_SXCO_SRVB_SERVICE_VERSION.html" xlink:title="DTEL&#45;SXCO_SRVB_SERVICE_VERSION">
<polygon fill="none" stroke="green" points="532.62,-108 262.01,-108 262.01,-72 532.62,-72 532.62,-108"/>
<text text-anchor="middle" x="397.31" y="-85.8" font-family="Times,serif" font-size="14.00">DTEL&#45;SXCO_SRVB_SERVICE_VERSION</text>
</a>
</g>
</g>
<!-- INTF&#45;IF_XCO_GEN_SRVB_S_FO_SERVICE&#45;&gt;DTEL&#45;SXCO_SRVB_SERVICE_VERSION -->
<g id="edge2" class="edge">
<title>INTF&#45;IF_XCO_GEN_SRVB_S_FO_SERVICE&#45;&gt;DTEL&#45;SXCO_SRVB_SERVICE_VERSION</title>
<path fill="none" stroke="black" d="M397.31,-215.87C397.31,-191.67 397.31,-147.21 397.31,-118.39"/>
<polygon fill="black" stroke="black" points="400.81,-118.19 397.31,-108.19 393.81,-118.19 400.81,-118.19"/>
</g>
<!-- DTEL&#45;SXCO_SRVB_SERVICE_NAME -->
<g id="node6" class="node">
<title>DTEL&#45;SXCO_SRVB_SERVICE_NAME</title>
<g id="a_node6"><a xlink:href="./DTEL_SXCO_SRVB_SERVICE_NAME.html" xlink:title="DTEL&#45;SXCO_SRVB_SERVICE_NAME">
<polygon fill="none" stroke="green" points="675.67,-180 424.96,-180 424.96,-144 675.67,-144 675.67,-180"/>
<text text-anchor="middle" x="550.31" y="-157.8" font-family="Times,serif" font-size="14.00">DTEL&#45;SXCO_SRVB_SERVICE_NAME</text>
</a>
</g>
</g>
<!-- INTF&#45;IF_XCO_GEN_SRVB_S_FO_SERVICE&#45;&gt;DTEL&#45;SXCO_SRVB_SERVICE_NAME -->
<g id="edge1" class="edge">
<title>INTF&#45;IF_XCO_GEN_SRVB_S_FO_SERVICE&#45;&gt;DTEL&#45;SXCO_SRVB_SERVICE_NAME</title>
<path fill="none" stroke="black" d="M434.74,-215.88C455.57,-206.35 481.67,-194.41 503.8,-184.28"/>
<polygon fill="black" stroke="black" points="505.37,-187.41 513.01,-180.07 502.46,-181.05 505.37,-187.41"/>
</g>
<!-- DTEL&#45;SXCO_SRVD_OBJECT_NAME -->
<g id="node3" class="node">
<title>DTEL&#45;SXCO_SRVD_OBJECT_NAME</title>
<g id="a_node3"><a xlink:href="./DTEL_SXCO_SRVD_OBJECT_NAME.html" xlink:title="DTEL&#45;SXCO_SRVD_OBJECT_NAME">
<polygon fill="none" stroke="green" points="244.44,-108 0.18,-108 0.18,-72 244.44,-72 244.44,-108"/>
<text text-anchor="middle" x="122.31" y="-85.8" font-family="Times,serif" font-size="14.00">DTEL&#45;SXCO_SRVD_OBJECT_NAME</text>
</a>
</g>
</g>
<!-- INTF&#45;IF_XCO_GEN_SRVB_S_FO_SRV_VERSN&#45;&gt;DTEL&#45;SXCO_SRVD_OBJECT_NAME -->
<g id="edge5" class="edge">
<title>INTF&#45;IF_XCO_GEN_SRVB_S_FO_SRV_VERSN&#45;&gt;DTEL&#45;SXCO_SRVD_OBJECT_NAME</title>
<path fill="none" stroke="black" d="M193.08,-143.7C181.13,-134.8 166.39,-123.82 153.47,-114.2"/>
<polygon fill="black" stroke="black" points="155.39,-111.27 145.28,-108.1 151.21,-116.88 155.39,-111.27"/>
</g>
<!-- INTF&#45;IF_XCO_GEN_SRVB_S_FO_SRV_VERSN&#45;&gt;DTEL&#45;SXCO_SRVB_SERVICE_VERSION -->
<g id="edge4" class="edge">
<title>INTF&#45;IF_XCO_GEN_SRVB_S_FO_SRV_VERSN&#45;&gt;DTEL&#45;SXCO_SRVB_SERVICE_VERSION</title>
<path fill="none" stroke="black" d="M260.59,-143.88C285.67,-134.18 317.21,-121.98 343.68,-111.74"/>
<polygon fill="black" stroke="black" points="345.12,-114.94 353.18,-108.07 342.59,-108.41 345.12,-114.94"/>
</g>
<!-- DOMA&#45;CHAR30 -->
<g id="node4" class="node">
<title>DOMA&#45;CHAR30</title>
<g id="a_node4"><a xlink:href="./DOMA_CHAR30.html" xlink:title="DOMA&#45;CHAR30">
<polygon fill="none" stroke="green" points="180.63,-36 64,-36 64,0 180.63,0 180.63,-36"/>
<text text-anchor="middle" x="122.31" y="-13.8" font-family="Times,serif" font-size="14.00">DOMA&#45;CHAR30</text>
</a>
</g>
</g>
<!-- DTEL&#45;SXCO_SRVD_OBJECT_NAME&#45;&gt;DOMA&#45;CHAR30 -->
<g id="edge6" class="edge">
<title>DTEL&#45;SXCO_SRVD_OBJECT_NAME&#45;&gt;DOMA&#45;CHAR30</title>
<path fill="none" stroke="black" d="M122.31,-71.7C122.31,-63.98 122.31,-54.71 122.31,-46.11"/>
<polygon fill="black" stroke="black" points="125.81,-46.1 122.31,-36.1 118.81,-46.1 125.81,-46.1"/>
</g>
</g>
</svg>
