<?xml version="1.0" encoding="UTF-8" standalone="no"?>
<!DOCTYPE svg PUBLIC "-//W3C//DTD SVG 1.1//EN"
 "http://www.w3.org/Graphics/SVG/1.1/DTD/svg11.dtd">
<!-- Generated by graphviz version 2.47.3 (20210619.1520)
 -->
<!-- Title: G Pages: 1 -->
<svg width="1605pt" height="404pt"
 viewBox="0.00 0.00 1604.90 404.00" xmlns="http://www.w3.org/2000/svg" xmlns:xlink="http://www.w3.org/1999/xlink">
<g id="graph0" class="graph" transform="scale(1 1) rotate(0) translate(4 400)">
<title>G</title>
<polygon fill="white" stroke="transparent" points="-4,4 -4,-400 1600.9,-400 1600.9,4 -4,4"/>
<!-- INTF&#45;IF_XCO_CP_GEN_MSAG_D_O_PATCH_O -->
<g id="node1" class="node">
<title>INTF&#45;IF_XCO_CP_GEN_MSAG_D_O_PATCH_O</title>
<polygon fill="none" stroke="green" points="1271.82,-396 959.25,-396 959.25,-360 1271.82,-360 1271.82,-396"/>
<text text-anchor="middle" x="1115.54" y="-373.8" font-family="Times,serif" font-size="14.00">INTF&#45;IF_XCO_CP_GEN_MSAG_D_O_PATCH_O</text>
</g>
<!-- INTF&#45;IF_XCO_CP_GEN_MSAG_S_DELETE -->
<g id="node2" class="node">
<title>INTF&#45;IF_XCO_CP_GEN_MSAG_S_DELETE</title>
<g id="a_node2"><a xlink:href="./INTF_IF_XCO_CP_GEN_MSAG_S_DELETE.html" xlink:title="INTF&#45;IF_XCO_CP_GEN_MSAG_S_DELETE">
<polygon fill="none" stroke="green" points="1596.77,-252 1314.3,-252 1314.3,-216 1596.77,-216 1596.77,-252"/>
<text text-anchor="middle" x="1455.54" y="-229.8" font-family="Times,serif" font-size="14.00">INTF&#45;IF_XCO_CP_GEN_MSAG_S_DELETE</text>
</a>
</g>
</g>
<!-- INTF&#45;IF_XCO_CP_GEN_MSAG_D_O_PATCH_O&#45;&gt;INTF&#45;IF_XCO_CP_GEN_MSAG_S_DELETE -->
<g id="edge5" class="edge">
<title>INTF&#45;IF_XCO_CP_GEN_MSAG_D_O_PATCH_O&#45;&gt;INTF&#45;IF_XCO_CP_GEN_MSAG_S_DELETE</title>
<path fill="none" stroke="black" d="M1181.19,-359.93C1207.88,-351.39 1238.31,-339.51 1263.54,-324 1283.35,-311.82 1281.64,-300.06 1301.54,-288 1324.38,-274.16 1351.33,-263.31 1376.25,-255.14"/>
<polygon fill="black" stroke="black" points="1377.58,-258.39 1386.05,-252.03 1375.46,-251.72 1377.58,-258.39"/>
</g>
<!-- INTF&#45;IF_XCO_CP_GEN_MSAG_S_MODIFY -->
<g id="node8" class="node">
<title>INTF&#45;IF_XCO_CP_GEN_MSAG_S_MODIFY</title>
<g id="a_node8"><a xlink:href="./INTF_IF_XCO_CP_GEN_MSAG_S_MODIFY.html" xlink:title="INTF&#45;IF_XCO_CP_GEN_MSAG_S_MODIFY">
<polygon fill="none" stroke="green" points="958.11,-324 672.96,-324 672.96,-288 958.11,-288 958.11,-324"/>
<text text-anchor="middle" x="815.54" y="-301.8" font-family="Times,serif" font-size="14.00">INTF&#45;IF_XCO_CP_GEN_MSAG_S_MODIFY</text>
</a>
</g>
</g>
<!-- INTF&#45;IF_XCO_CP_GEN_MSAG_D_O_PATCH_O&#45;&gt;INTF&#45;IF_XCO_CP_GEN_MSAG_S_MODIFY -->
<g id="edge4" class="edge">
<title>INTF&#45;IF_XCO_CP_GEN_MSAG_D_O_PATCH_O&#45;&gt;INTF&#45;IF_XCO_CP_GEN_MSAG_S_MODIFY</title>
<path fill="none" stroke="black" d="M1042.53,-359.97C998.98,-349.8 943.56,-336.87 898.38,-326.33"/>
<polygon fill="black" stroke="black" points="899.14,-322.91 888.61,-324.05 897.55,-329.73 899.14,-322.91"/>
</g>
<!-- INTF&#45;IF_XCO_CP_GEN_MSAG_S_UPDATE -->
<g id="node10" class="node">
<title>INTF&#45;IF_XCO_CP_GEN_MSAG_S_UPDATE</title>
<g id="a_node10"><a xlink:href="./INTF_IF_XCO_CP_GEN_MSAG_S_UPDATE.html" xlink:title="INTF&#45;IF_XCO_CP_GEN_MSAG_S_UPDATE">
<polygon fill="none" stroke="green" points="635.11,-324 349.96,-324 349.96,-288 635.11,-288 635.11,-324"/>
<text text-anchor="middle" x="492.54" y="-301.8" font-family="Times,serif" font-size="14.00">INTF&#45;IF_XCO_CP_GEN_MSAG_S_UPDATE</text>
</a>
</g>
</g>
<!-- INTF&#45;IF_XCO_CP_GEN_MSAG_D_O_PATCH_O&#45;&gt;INTF&#45;IF_XCO_CP_GEN_MSAG_S_UPDATE -->
<g id="edge3" class="edge">
<title>INTF&#45;IF_XCO_CP_GEN_MSAG_D_O_PATCH_O&#45;&gt;INTF&#45;IF_XCO_CP_GEN_MSAG_S_UPDATE</title>
<path fill="none" stroke="black" d="M963.93,-359.97C867.22,-349.1 742.31,-335.06 645.36,-324.17"/>
<polygon fill="black" stroke="black" points="645.51,-320.67 635.18,-323.03 644.73,-327.62 645.51,-320.67"/>
</g>
<!-- INTF&#45;IF_XCO_CP_GEN_MSAG_S_INSERT -->
<g id="node14" class="node">
<title>INTF&#45;IF_XCO_CP_GEN_MSAG_S_INSERT</title>
<g id="a_node14"><a xlink:href="./INTF_IF_XCO_CP_GEN_MSAG_S_INSERT.html" xlink:title="INTF&#45;IF_XCO_CP_GEN_MSAG_S_INSERT">
<polygon fill="none" stroke="green" points="1254.89,-324 976.18,-324 976.18,-288 1254.89,-288 1254.89,-324"/>
<text text-anchor="middle" x="1115.54" y="-301.8" font-family="Times,serif" font-size="14.00">INTF&#45;IF_XCO_CP_GEN_MSAG_S_INSERT</text>
</a>
</g>
</g>
<!-- INTF&#45;IF_XCO_CP_GEN_MSAG_D_O_PATCH_O&#45;&gt;INTF&#45;IF_XCO_CP_GEN_MSAG_S_INSERT -->
<g id="edge2" class="edge">
<title>INTF&#45;IF_XCO_CP_GEN_MSAG_D_O_PATCH_O&#45;&gt;INTF&#45;IF_XCO_CP_GEN_MSAG_S_INSERT</title>
<path fill="none" stroke="black" d="M1115.54,-359.7C1115.54,-351.98 1115.54,-342.71 1115.54,-334.11"/>
<polygon fill="black" stroke="black" points="1119.04,-334.1 1115.54,-324.1 1112.04,-334.1 1119.04,-334.1"/>
</g>
<!-- DTEL&#45;SXCO_MC_OBJECT_NAME -->
<g id="node16" class="node">
<title>DTEL&#45;SXCO_MC_OBJECT_NAME</title>
<g id="a_node16"><a xlink:href="./DTEL_SXCO_MC_OBJECT_NAME.html" xlink:title="DTEL&#45;SXCO_MC_OBJECT_NAME">
<polygon fill="none" stroke="green" points="1540.11,-324 1310.96,-324 1310.96,-288 1540.11,-288 1540.11,-324"/>
<text text-anchor="middle" x="1425.54" y="-301.8" font-family="Times,serif" font-size="14.00">DTEL&#45;SXCO_MC_OBJECT_NAME</text>
</a>
</g>
</g>
<!-- INTF&#45;IF_XCO_CP_GEN_MSAG_D_O_PATCH_O&#45;&gt;DTEL&#45;SXCO_MC_OBJECT_NAME -->
<g id="edge1" class="edge">
<title>INTF&#45;IF_XCO_CP_GEN_MSAG_D_O_PATCH_O&#45;&gt;DTEL&#45;SXCO_MC_OBJECT_NAME</title>
<path fill="none" stroke="black" d="M1190.97,-359.97C1236.07,-349.78 1293.48,-336.82 1340.22,-326.26"/>
<polygon fill="black" stroke="black" points="1341.04,-329.67 1350.03,-324.05 1339.5,-322.84 1341.04,-329.67"/>
</g>
<!-- INTF&#45;IF_XCO_CP_GEN_MSAG_S_FO_MSG -->
<g id="node3" class="node">
<title>INTF&#45;IF_XCO_CP_GEN_MSAG_S_FO_MSG</title>
<g id="a_node3"><a xlink:href="./INTF_IF_XCO_CP_GEN_MSAG_S_FO_MSG.html" xlink:title="INTF&#45;IF_XCO_CP_GEN_MSAG_S_FO_MSG">
<polygon fill="none" stroke="green" points="1091.12,-180 805.95,-180 805.95,-144 1091.12,-144 1091.12,-180"/>
<text text-anchor="middle" x="948.54" y="-157.8" font-family="Times,serif" font-size="14.00">INTF&#45;IF_XCO_CP_GEN_MSAG_S_FO_MSG</text>
</a>
</g>
</g>
<!-- INTF&#45;IF_XCO_CP_GEN_MSAG_S_DELETE&#45;&gt;INTF&#45;IF_XCO_CP_GEN_MSAG_S_FO_MSG -->
<g id="edge6" class="edge">
<title>INTF&#45;IF_XCO_CP_GEN_MSAG_S_DELETE&#45;&gt;INTF&#45;IF_XCO_CP_GEN_MSAG_S_FO_MSG</title>
<path fill="none" stroke="black" d="M1332.16,-215.97C1256.56,-205.53 1159.78,-192.17 1082.34,-181.47"/>
<polygon fill="black" stroke="black" points="1082.41,-177.95 1072.03,-180.05 1081.45,-184.88 1082.41,-177.95"/>
</g>
<!-- DTEL&#45;NATXT -->
<g id="node4" class="node">
<title>DTEL&#45;NATXT</title>
<g id="a_node4"><a xlink:href="./DTEL_NATXT.html" xlink:title="DTEL&#45;NATXT">
<polygon fill="none" stroke="yellow" points="933.39,-108 829.68,-108 829.68,-72 933.39,-72 933.39,-108"/>
<text text-anchor="middle" x="881.54" y="-85.8" font-family="Times,serif" font-size="14.00">DTEL&#45;NATXT</text>
</a>
</g>
</g>
<!-- INTF&#45;IF_XCO_CP_GEN_MSAG_S_FO_MSG&#45;&gt;DTEL&#45;NATXT -->
<g id="edge8" class="edge">
<title>INTF&#45;IF_XCO_CP_GEN_MSAG_S_FO_MSG&#45;&gt;DTEL&#45;NATXT</title>
<path fill="none" stroke="black" d="M931.97,-143.7C923.86,-135.22 913.95,-124.86 905.06,-115.58"/>
<polygon fill="black" stroke="black" points="907.35,-112.91 897.91,-108.1 902.29,-117.75 907.35,-112.91"/>
</g>
<!-- DTEL&#45;SYMSGNO -->
<g id="node6" class="node">
<title>DTEL&#45;SYMSGNO</title>
<g id="a_node6"><a xlink:href="./DTEL_SYMSGNO.html" xlink:title="DTEL&#45;SYMSGNO">
<polygon fill="none" stroke="green" points="1077.9,-108 953.17,-108 953.17,-72 1077.9,-72 1077.9,-108"/>
<text text-anchor="middle" x="1015.54" y="-85.8" font-family="Times,serif" font-size="14.00">DTEL&#45;SYMSGNO</text>
</a>
</g>
</g>
<!-- INTF&#45;IF_XCO_CP_GEN_MSAG_S_FO_MSG&#45;&gt;DTEL&#45;SYMSGNO -->
<g id="edge7" class="edge">
<title>INTF&#45;IF_XCO_CP_GEN_MSAG_S_FO_MSG&#45;&gt;DTEL&#45;SYMSGNO</title>
<path fill="none" stroke="black" d="M965.1,-143.7C973.21,-135.22 983.12,-124.86 992.01,-115.58"/>
<polygon fill="black" stroke="black" points="994.78,-117.75 999.16,-108.1 989.72,-112.91 994.78,-117.75"/>
</g>
<!-- DOMA&#45;NATXT -->
<g id="node5" class="node">
<title>DOMA&#45;NATXT</title>
<g id="a_node5"><a xlink:href="./DOMA_NATXT.html" xlink:title="DOMA&#45;NATXT">
<polygon fill="none" stroke="yellow" points="933.89,-36 823.18,-36 823.18,0 933.89,0 933.89,-36"/>
<text text-anchor="middle" x="878.54" y="-13.8" font-family="Times,serif" font-size="14.00">DOMA&#45;NATXT</text>
</a>
</g>
</g>
<!-- DTEL&#45;NATXT&#45;&gt;DOMA&#45;NATXT -->
<g id="edge9" class="edge">
<title>DTEL&#45;NATXT&#45;&gt;DOMA&#45;NATXT</title>
<path fill="none" stroke="black" d="M880.79,-71.7C880.46,-63.98 880.07,-54.71 879.7,-46.11"/>
<polygon fill="black" stroke="black" points="883.19,-45.95 879.27,-36.1 876.2,-46.25 883.19,-45.95"/>
</g>
<!-- DOMA&#45;SYMSGNO -->
<g id="node7" class="node">
<title>DOMA&#45;SYMSGNO</title>
<g id="a_node7"><a xlink:href="./DOMA_SYMSGNO.html" xlink:title="DOMA&#45;SYMSGNO">
<polygon fill="none" stroke="yellow" points="1083.4,-36 951.67,-36 951.67,0 1083.4,0 1083.4,-36"/>
<text text-anchor="middle" x="1017.54" y="-13.8" font-family="Times,serif" font-size="14.00">DOMA&#45;SYMSGNO</text>
</a>
</g>
</g>
<!-- DTEL&#45;SYMSGNO&#45;&gt;DOMA&#45;SYMSGNO -->
<g id="edge10" class="edge">
<title>DTEL&#45;SYMSGNO&#45;&gt;DOMA&#45;SYMSGNO</title>
<path fill="none" stroke="black" d="M1016.03,-71.7C1016.25,-63.98 1016.51,-54.71 1016.76,-46.11"/>
<polygon fill="black" stroke="black" points="1020.26,-46.2 1017.05,-36.1 1013.26,-46 1020.26,-46.2"/>
</g>
<!-- INTF&#45;IF_XCO_CP_GEN_MSAG_S_MODIFY&#45;&gt;INTF&#45;IF_XCO_CP_GEN_MSAG_S_FO_MSG -->
<g id="edge11" class="edge">
<title>INTF&#45;IF_XCO_CP_GEN_MSAG_S_MODIFY&#45;&gt;INTF&#45;IF_XCO_CP_GEN_MSAG_S_FO_MSG</title>
<path fill="none" stroke="black" d="M878.16,-287.97C897.18,-279.93 916.47,-268.38 929.54,-252 943.35,-234.67 947.73,-209.62 948.87,-190.5"/>
<polygon fill="black" stroke="black" points="952.37,-190.42 949.21,-180.31 945.37,-190.19 952.37,-190.42"/>
</g>
<!-- INTF&#45;IF_XCO_CP_GEN_MSAG_S_MO_MSG -->
<g id="node9" class="node">
<title>INTF&#45;IF_XCO_CP_GEN_MSAG_S_MO_MSG</title>
<g id="a_node9"><a xlink:href="./INTF_IF_XCO_CP_GEN_MSAG_S_MO_MSG.html" xlink:title="INTF&#45;IF_XCO_CP_GEN_MSAG_S_MO_MSG">
<polygon fill="none" stroke="green" points="920.28,-252 630.79,-252 630.79,-216 920.28,-216 920.28,-252"/>
<text text-anchor="middle" x="775.54" y="-229.8" font-family="Times,serif" font-size="14.00">INTF&#45;IF_XCO_CP_GEN_MSAG_S_MO_MSG</text>
</a>
</g>
</g>
<!-- INTF&#45;IF_XCO_CP_GEN_MSAG_S_MODIFY&#45;&gt;INTF&#45;IF_XCO_CP_GEN_MSAG_S_MO_MSG -->
<g id="edge12" class="edge">
<title>INTF&#45;IF_XCO_CP_GEN_MSAG_S_MODIFY&#45;&gt;INTF&#45;IF_XCO_CP_GEN_MSAG_S_MO_MSG</title>
<path fill="none" stroke="black" d="M805.65,-287.7C801.05,-279.64 795.47,-269.89 790.38,-260.98"/>
<polygon fill="black" stroke="black" points="793.31,-259.05 785.31,-252.1 787.23,-262.52 793.31,-259.05"/>
</g>
<!-- INTF&#45;IF_XCO_CP_GEN_MSAG_S_MO_MSG&#45;&gt;INTF&#45;IF_XCO_CP_GEN_MSAG_S_FO_MSG -->
<g id="edge13" class="edge">
<title>INTF&#45;IF_XCO_CP_GEN_MSAG_S_MO_MSG&#45;&gt;INTF&#45;IF_XCO_CP_GEN_MSAG_S_FO_MSG</title>
<path fill="none" stroke="black" d="M817.86,-215.88C841.72,-206.22 871.71,-194.09 896.94,-183.88"/>
<polygon fill="black" stroke="black" points="898.39,-187.06 906.35,-180.07 895.77,-180.57 898.39,-187.06"/>
</g>
<!-- INTF&#45;IF_XCO_CP_GEN_MSAG_S_UPDATE&#45;&gt;INTF&#45;IF_XCO_CP_GEN_MSAG_S_FO_MSG -->
<g id="edge15" class="edge">
<title>INTF&#45;IF_XCO_CP_GEN_MSAG_S_UPDATE&#45;&gt;INTF&#45;IF_XCO_CP_GEN_MSAG_S_FO_MSG</title>
<path fill="none" stroke="black" d="M526.13,-287.86C543.83,-278.24 565.54,-265.48 583.54,-252 602.16,-238.05 600.68,-226.32 621.54,-216 674.9,-189.59 738.59,-175.87 795.52,-168.9"/>
<polygon fill="black" stroke="black" points="796.17,-172.35 805.69,-167.72 795.36,-165.4 796.17,-172.35"/>
</g>
<!-- INTF&#45;IF_XCO_CP_GEN_MSAG_S_UP_MSG -->
<g id="node11" class="node">
<title>INTF&#45;IF_XCO_CP_GEN_MSAG_S_UP_MSG</title>
<g id="a_node11"><a xlink:href="./INTF_IF_XCO_CP_GEN_MSAG_S_UP_MSG.html" xlink:title="INTF&#45;IF_XCO_CP_GEN_MSAG_S_UP_MSG">
<polygon fill="none" stroke="green" points="574.12,-252 288.95,-252 288.95,-216 574.12,-216 574.12,-252"/>
<text text-anchor="middle" x="431.54" y="-229.8" font-family="Times,serif" font-size="14.00">INTF&#45;IF_XCO_CP_GEN_MSAG_S_UP_MSG</text>
</a>
</g>
</g>
<!-- INTF&#45;IF_XCO_CP_GEN_MSAG_S_UPDATE&#45;&gt;INTF&#45;IF_XCO_CP_GEN_MSAG_S_UP_MSG -->
<g id="edge16" class="edge">
<title>INTF&#45;IF_XCO_CP_GEN_MSAG_S_UPDATE&#45;&gt;INTF&#45;IF_XCO_CP_GEN_MSAG_S_UP_MSG</title>
<path fill="none" stroke="black" d="M477.46,-287.7C470.14,-279.3 461.23,-269.07 453.2,-259.86"/>
<polygon fill="black" stroke="black" points="455.65,-257.34 446.44,-252.1 450.37,-261.94 455.65,-257.34"/>
</g>
<!-- DTEL&#45;SXCO_AR_SHORT_DESCRIPTION -->
<g id="node12" class="node">
<title>DTEL&#45;SXCO_AR_SHORT_DESCRIPTION</title>
<g id="a_node12"><a xlink:href="./DTEL_SXCO_AR_SHORT_DESCRIPTION.html" xlink:title="DTEL&#45;SXCO_AR_SHORT_DESCRIPTION">
<polygon fill="none" stroke="green" points="271.11,-252 -0.04,-252 -0.04,-216 271.11,-216 271.11,-252"/>
<text text-anchor="middle" x="135.54" y="-229.8" font-family="Times,serif" font-size="14.00">DTEL&#45;SXCO_AR_SHORT_DESCRIPTION</text>
</a>
</g>
</g>
<!-- INTF&#45;IF_XCO_CP_GEN_MSAG_S_UPDATE&#45;&gt;DTEL&#45;SXCO_AR_SHORT_DESCRIPTION -->
<g id="edge14" class="edge">
<title>INTF&#45;IF_XCO_CP_GEN_MSAG_S_UPDATE&#45;&gt;DTEL&#45;SXCO_AR_SHORT_DESCRIPTION</title>
<path fill="none" stroke="black" d="M405.66,-287.97C353.3,-277.7 286.5,-264.6 232.43,-254"/>
<polygon fill="black" stroke="black" points="232.98,-250.54 222.49,-252.05 231.63,-257.41 232.98,-250.54"/>
</g>
<!-- INTF&#45;IF_XCO_CP_GEN_MSAG_S_UP_MSG&#45;&gt;INTF&#45;IF_XCO_CP_GEN_MSAG_S_FO_MSG -->
<g id="edge17" class="edge">
<title>INTF&#45;IF_XCO_CP_GEN_MSAG_S_UP_MSG&#45;&gt;INTF&#45;IF_XCO_CP_GEN_MSAG_S_FO_MSG</title>
<path fill="none" stroke="black" d="M557.35,-215.97C634.59,-205.51 733.53,-192.11 812.58,-181.41"/>
<polygon fill="black" stroke="black" points="813.17,-184.86 822.61,-180.05 812.23,-177.92 813.17,-184.86"/>
</g>
<!-- DOMA&#45;AS4TEXT -->
<g id="node13" class="node">
<title>DOMA&#45;AS4TEXT</title>
<g id="a_node13"><a xlink:href="./DOMA_AS4TEXT.html" xlink:title="DOMA&#45;AS4TEXT">
<polygon fill="none" stroke="yellow" points="197.61,-180 73.46,-180 73.46,-144 197.61,-144 197.61,-180"/>
<text text-anchor="middle" x="135.54" y="-157.8" font-family="Times,serif" font-size="14.00">DOMA&#45;AS4TEXT</text>
</a>
</g>
</g>
<!-- DTEL&#45;SXCO_AR_SHORT_DESCRIPTION&#45;&gt;DOMA&#45;AS4TEXT -->
<g id="edge18" class="edge">
<title>DTEL&#45;SXCO_AR_SHORT_DESCRIPTION&#45;&gt;DOMA&#45;AS4TEXT</title>
<path fill="none" stroke="black" d="M135.54,-215.7C135.54,-207.98 135.54,-198.71 135.54,-190.11"/>
<polygon fill="black" stroke="black" points="139.04,-190.1 135.54,-180.1 132.04,-190.1 139.04,-190.1"/>
</g>
<!-- INTF&#45;IF_XCO_CP_GEN_MSAG_S_INSERT&#45;&gt;INTF&#45;IF_XCO_CP_GEN_MSAG_S_FO_MSG -->
<g id="edge19" class="edge">
<title>INTF&#45;IF_XCO_CP_GEN_MSAG_S_INSERT&#45;&gt;INTF&#45;IF_XCO_CP_GEN_MSAG_S_FO_MSG</title>
<path fill="none" stroke="black" d="M1065.76,-287.92C1045.54,-279.32 1022.91,-267.39 1005.54,-252 985.8,-234.51 970.26,-208.61 960.42,-189.25"/>
<polygon fill="black" stroke="black" points="963.47,-187.52 955.93,-180.07 957.18,-190.59 963.47,-187.52"/>
</g>
<!-- INTF&#45;IF_XCO_CP_GEN_MSAG_S_IN_MSG -->
<g id="node15" class="node">
<title>INTF&#45;IF_XCO_CP_GEN_MSAG_S_IN_MSG</title>
<g id="a_node15"><a xlink:href="./INTF_IF_XCO_CP_GEN_MSAG_S_IN_MSG.html" xlink:title="INTF&#45;IF_XCO_CP_GEN_MSAG_S_IN_MSG">
<polygon fill="none" stroke="green" points="1296.5,-252 1014.57,-252 1014.57,-216 1296.5,-216 1296.5,-252"/>
<text text-anchor="middle" x="1155.54" y="-229.8" font-family="Times,serif" font-size="14.00">INTF&#45;IF_XCO_CP_GEN_MSAG_S_IN_MSG</text>
</a>
</g>
</g>
<!-- INTF&#45;IF_XCO_CP_GEN_MSAG_S_INSERT&#45;&gt;INTF&#45;IF_XCO_CP_GEN_MSAG_S_IN_MSG -->
<g id="edge20" class="edge">
<title>INTF&#45;IF_XCO_CP_GEN_MSAG_S_INSERT&#45;&gt;INTF&#45;IF_XCO_CP_GEN_MSAG_S_IN_MSG</title>
<path fill="none" stroke="black" d="M1125.42,-287.7C1130.02,-279.64 1135.6,-269.89 1140.69,-260.98"/>
<polygon fill="black" stroke="black" points="1143.84,-262.52 1145.76,-252.1 1137.76,-259.05 1143.84,-262.52"/>
</g>
<!-- INTF&#45;IF_XCO_CP_GEN_MSAG_S_IN_MSG&#45;&gt;INTF&#45;IF_XCO_CP_GEN_MSAG_S_FO_MSG -->
<g id="edge21" class="edge">
<title>INTF&#45;IF_XCO_CP_GEN_MSAG_S_IN_MSG&#45;&gt;INTF&#45;IF_XCO_CP_GEN_MSAG_S_FO_MSG</title>
<path fill="none" stroke="black" d="M1105.16,-215.97C1076.11,-206.14 1039.41,-193.73 1008.83,-183.39"/>
<polygon fill="black" stroke="black" points="1009.73,-180 999.13,-180.11 1007.49,-186.63 1009.73,-180"/>
</g>
</g>
</svg>
