<?xml version="1.0" encoding="UTF-8" standalone="no"?>
<!DOCTYPE svg PUBLIC "-//W3C//DTD SVG 1.1//EN"
 "http://www.w3.org/Graphics/SVG/1.1/DTD/svg11.dtd">
<!-- Generated by graphviz version 2.47.3 (20210619.1520)
 -->
<!-- Title: G Pages: 1 -->
<svg width="852pt" height="188pt"
 viewBox="0.00 0.00 851.80 188.00" xmlns="http://www.w3.org/2000/svg" xmlns:xlink="http://www.w3.org/1999/xlink">
<g id="graph0" class="graph" transform="scale(1 1) rotate(0) translate(4 184)">
<title>G</title>
<polygon fill="white" stroke="transparent" points="-4,4 -4,-184 847.8,-184 847.8,4 -4,4"/>
<!-- INTF&#45;IF_SYSTEM_UUID_STATIC -->
<g id="node1" class="node">
<title>INTF&#45;IF_SYSTEM_UUID_STATIC</title>
<polygon fill="none" stroke="green" points="533.61,-180 308.81,-180 308.81,-144 533.61,-144 533.61,-180"/>
<text text-anchor="middle" x="421.21" y="-157.8" font-family="Times,serif" font-size="14.00">INTF&#45;IF_SYSTEM_UUID_STATIC</text>
</g>
<!-- DTEL&#45;SYSUUID_C36 -->
<g id="node2" class="node">
<title>DTEL&#45;SYSUUID_C36</title>
<g id="a_node2"><a xlink:href="./DTEL_SYSUUID_C36.html" xlink:title="DTEL&#45;SYSUUID_C36">
<polygon fill="none" stroke="green" points="158.12,-108 10.29,-108 10.29,-72 158.12,-72 158.12,-108"/>
<text text-anchor="middle" x="84.21" y="-85.8" font-family="Times,serif" font-size="14.00">DTEL&#45;SYSUUID_C36</text>
</a>
</g>
</g>
<!-- INTF&#45;IF_SYSTEM_UUID_STATIC&#45;&gt;DTEL&#45;SYSUUID_C36 -->
<g id="edge5" class="edge">
<title>INTF&#45;IF_SYSTEM_UUID_STATIC&#45;&gt;DTEL&#45;SYSUUID_C36</title>
<path fill="none" stroke="black" d="M339.2,-143.97C287.22,-133.17 220.17,-119.24 167.87,-108.38"/>
<polygon fill="black" stroke="black" points="168.45,-104.92 157.95,-106.32 167.03,-111.78 168.45,-104.92"/>
</g>
<!-- DTEL&#45;SYSUUID_C32 -->
<g id="node4" class="node">
<title>DTEL&#45;SYSUUID_C32</title>
<g id="a_node4"><a xlink:href="./DTEL_SYSUUID_C32.html" xlink:title="DTEL&#45;SYSUUID_C32">
<polygon fill="none" stroke="green" points="326.12,-108 178.29,-108 178.29,-72 326.12,-72 326.12,-108"/>
<text text-anchor="middle" x="252.21" y="-85.8" font-family="Times,serif" font-size="14.00">DTEL&#45;SYSUUID_C32</text>
</a>
</g>
</g>
<!-- INTF&#45;IF_SYSTEM_UUID_STATIC&#45;&gt;DTEL&#45;SYSUUID_C32 -->
<g id="edge4" class="edge">
<title>INTF&#45;IF_SYSTEM_UUID_STATIC&#45;&gt;DTEL&#45;SYSUUID_C32</title>
<path fill="none" stroke="black" d="M379.86,-143.88C356.66,-134.26 327.52,-122.19 302.94,-112.01"/>
<polygon fill="black" stroke="black" points="303.99,-108.66 293.41,-108.07 301.31,-115.13 303.99,-108.66"/>
</g>
<!-- DTEL&#45;SYSUUID_C26 -->
<g id="node6" class="node">
<title>DTEL&#45;SYSUUID_C26</title>
<g id="a_node6"><a xlink:href="./DTEL_SYSUUID_C26.html" xlink:title="DTEL&#45;SYSUUID_C26">
<polygon fill="none" stroke="green" points="495.12,-108 347.29,-108 347.29,-72 495.12,-72 495.12,-108"/>
<text text-anchor="middle" x="421.21" y="-85.8" font-family="Times,serif" font-size="14.00">DTEL&#45;SYSUUID_C26</text>
</a>
</g>
</g>
<!-- INTF&#45;IF_SYSTEM_UUID_STATIC&#45;&gt;DTEL&#45;SYSUUID_C26 -->
<g id="edge3" class="edge">
<title>INTF&#45;IF_SYSTEM_UUID_STATIC&#45;&gt;DTEL&#45;SYSUUID_C26</title>
<path fill="none" stroke="black" d="M421.21,-143.7C421.21,-135.98 421.21,-126.71 421.21,-118.11"/>
<polygon fill="black" stroke="black" points="424.71,-118.1 421.21,-108.1 417.71,-118.1 424.71,-118.1"/>
</g>
<!-- DTEL&#45;SYSUUID_C22 -->
<g id="node8" class="node">
<title>DTEL&#45;SYSUUID_C22</title>
<g id="a_node8"><a xlink:href="./DTEL_SYSUUID_C22.html" xlink:title="DTEL&#45;SYSUUID_C22">
<polygon fill="none" stroke="green" points="663.12,-108 515.29,-108 515.29,-72 663.12,-72 663.12,-108"/>
<text text-anchor="middle" x="589.21" y="-85.8" font-family="Times,serif" font-size="14.00">DTEL&#45;SYSUUID_C22</text>
</a>
</g>
</g>
<!-- INTF&#45;IF_SYSTEM_UUID_STATIC&#45;&gt;DTEL&#45;SYSUUID_C22 -->
<g id="edge2" class="edge">
<title>INTF&#45;IF_SYSTEM_UUID_STATIC&#45;&gt;DTEL&#45;SYSUUID_C22</title>
<path fill="none" stroke="black" d="M462.3,-143.88C485.37,-134.26 514.34,-122.19 538.78,-112.01"/>
<polygon fill="black" stroke="black" points="540.36,-115.15 548.24,-108.07 537.67,-108.68 540.36,-115.15"/>
</g>
<!-- DTEL&#45;SYSUUID_X16 -->
<g id="node10" class="node">
<title>DTEL&#45;SYSUUID_X16</title>
<g id="a_node10"><a xlink:href="./DTEL_SYSUUID_X16.html" xlink:title="DTEL&#45;SYSUUID_X16">
<polygon fill="none" stroke="green" points="834.39,-108 686.02,-108 686.02,-72 834.39,-72 834.39,-108"/>
<text text-anchor="middle" x="760.21" y="-85.8" font-family="Times,serif" font-size="14.00">DTEL&#45;SYSUUID_X16</text>
</a>
</g>
</g>
<!-- INTF&#45;IF_SYSTEM_UUID_STATIC&#45;&gt;DTEL&#45;SYSUUID_X16 -->
<g id="edge1" class="edge">
<title>INTF&#45;IF_SYSTEM_UUID_STATIC&#45;&gt;DTEL&#45;SYSUUID_X16</title>
<path fill="none" stroke="black" d="M503.7,-143.97C555.99,-133.17 623.44,-119.24 676.05,-108.38"/>
<polygon fill="black" stroke="black" points="676.94,-111.77 686.02,-106.32 675.52,-104.91 676.94,-111.77"/>
</g>
<!-- DOMA&#45;SYSUUID_C36 -->
<g id="node3" class="node">
<title>DOMA&#45;SYSUUID_C36</title>
<g id="a_node3"><a xlink:href="./DOMA_SYSUUID_C36.html" xlink:title="DOMA&#45;SYSUUID_C36">
<polygon fill="none" stroke="yellow" points="154.62,-36 -0.21,-36 -0.21,0 154.62,0 154.62,-36"/>
<text text-anchor="middle" x="77.21" y="-13.8" font-family="Times,serif" font-size="14.00">DOMA&#45;SYSUUID_C36</text>
</a>
</g>
</g>
<!-- DTEL&#45;SYSUUID_C36&#45;&gt;DOMA&#45;SYSUUID_C36 -->
<g id="edge6" class="edge">
<title>DTEL&#45;SYSUUID_C36&#45;&gt;DOMA&#45;SYSUUID_C36</title>
<path fill="none" stroke="black" d="M82.48,-71.7C81.71,-63.98 80.78,-54.71 79.92,-46.11"/>
<polygon fill="black" stroke="black" points="83.4,-45.71 78.92,-36.1 76.43,-46.4 83.4,-45.71"/>
</g>
<!-- DOMA&#45;SYSUUID_C32 -->
<g id="node5" class="node">
<title>DOMA&#45;SYSUUID_C32</title>
<g id="a_node5"><a xlink:href="./DOMA_SYSUUID_C32.html" xlink:title="DOMA&#45;SYSUUID_C32">
<polygon fill="none" stroke="yellow" points="326.62,-36 171.79,-36 171.79,0 326.62,0 326.62,-36"/>
<text text-anchor="middle" x="249.21" y="-13.8" font-family="Times,serif" font-size="14.00">DOMA&#45;SYSUUID_C32</text>
</a>
</g>
</g>
<!-- DTEL&#45;SYSUUID_C32&#45;&gt;DOMA&#45;SYSUUID_C32 -->
<g id="edge7" class="edge">
<title>DTEL&#45;SYSUUID_C32&#45;&gt;DOMA&#45;SYSUUID_C32</title>
<path fill="none" stroke="black" d="M251.47,-71.7C251.13,-63.98 250.74,-54.71 250.37,-46.11"/>
<polygon fill="black" stroke="black" points="253.87,-45.95 249.94,-36.1 246.87,-46.25 253.87,-45.95"/>
</g>
<!-- DOMA&#45;SYSUUID_C26 -->
<g id="node7" class="node">
<title>DOMA&#45;SYSUUID_C26</title>
<g id="a_node7"><a xlink:href="./DOMA_SYSUUID_C26.html" xlink:title="DOMA&#45;SYSUUID_C26">
<polygon fill="none" stroke="yellow" points="498.62,-36 343.79,-36 343.79,0 498.62,0 498.62,-36"/>
<text text-anchor="middle" x="421.21" y="-13.8" font-family="Times,serif" font-size="14.00">DOMA&#45;SYSUUID_C26</text>
</a>
</g>
</g>
<!-- DTEL&#45;SYSUUID_C26&#45;&gt;DOMA&#45;SYSUUID_C26 -->
<g id="edge8" class="edge">
<title>DTEL&#45;SYSUUID_C26&#45;&gt;DOMA&#45;SYSUUID_C26</title>
<path fill="none" stroke="black" d="M421.21,-71.7C421.21,-63.98 421.21,-54.71 421.21,-46.11"/>
<polygon fill="black" stroke="black" points="424.71,-46.1 421.21,-36.1 417.71,-46.1 424.71,-46.1"/>
</g>
<!-- DOMA&#45;SYSUUID_C22 -->
<g id="node9" class="node">
<title>DOMA&#45;SYSUUID_C22</title>
<g id="a_node9"><a xlink:href="./DOMA_SYSUUID_C22.html" xlink:title="DOMA&#45;SYSUUID_C22">
<polygon fill="none" stroke="yellow" points="670.62,-36 515.79,-36 515.79,0 670.62,0 670.62,-36"/>
<text text-anchor="middle" x="593.21" y="-13.8" font-family="Times,serif" font-size="14.00">DOMA&#45;SYSUUID_C22</text>
</a>
</g>
</g>
<!-- DTEL&#45;SYSUUID_C22&#45;&gt;DOMA&#45;SYSUUID_C22 -->
<g id="edge9" class="edge">
<title>DTEL&#45;SYSUUID_C22&#45;&gt;DOMA&#45;SYSUUID_C22</title>
<path fill="none" stroke="black" d="M590.2,-71.7C590.64,-63.98 591.17,-54.71 591.66,-46.11"/>
<polygon fill="black" stroke="black" points="595.15,-46.29 592.23,-36.1 588.16,-45.89 595.15,-46.29"/>
</g>
<!-- DOMA&#45;SYSUUID_X16 -->
<g id="node11" class="node">
<title>DOMA&#45;SYSUUID_X16</title>
<g id="a_node11"><a xlink:href="./DOMA_SYSUUID_X16.html" xlink:title="DOMA&#45;SYSUUID_X16">
<polygon fill="none" stroke="yellow" points="843.89,-36 688.52,-36 688.52,0 843.89,0 843.89,-36"/>
<text text-anchor="middle" x="766.21" y="-13.8" font-family="Times,serif" font-size="14.00">DOMA&#45;SYSUUID_X16</text>
</a>
</g>
</g>
<!-- DTEL&#45;SYSUUID_X16&#45;&gt;DOMA&#45;SYSUUID_X16 -->
<g id="edge10" class="edge">
<title>DTEL&#45;SYSUUID_X16&#45;&gt;DOMA&#45;SYSUUID_X16</title>
<path fill="none" stroke="black" d="M761.69,-71.7C762.35,-63.98 763.15,-54.71 763.88,-46.11"/>
<polygon fill="black" stroke="black" points="767.37,-46.37 764.74,-36.1 760.4,-45.77 767.37,-46.37"/>
</g>
</g>
</svg>
