<?xml version="1.0" encoding="UTF-8" standalone="no"?>
<!DOCTYPE svg PUBLIC "-//W3C//DTD SVG 1.1//EN"
 "http://www.w3.org/Graphics/SVG/1.1/DTD/svg11.dtd">
<!-- Generated by graphviz version 2.47.3 (20210619.1520)
 -->
<!-- Title: G Pages: 1 -->
<svg width="1023pt" height="188pt"
 viewBox="0.00 0.00 1023.30 188.00" xmlns="http://www.w3.org/2000/svg" xmlns:xlink="http://www.w3.org/1999/xlink">
<g id="graph0" class="graph" transform="scale(1 1) rotate(0) translate(4 184)">
<title>G</title>
<polygon fill="white" stroke="transparent" points="-4,4 -4,-184 1019.3,-184 1019.3,4 -4,4"/>
<!-- INTF&#45;IF_APS_COM_SC_TYPES -->
<g id="node1" class="node">
<title>INTF&#45;IF_APS_COM_SC_TYPES</title>
<polygon fill="none" stroke="yellow" points="583.75,-180 374.43,-180 374.43,-144 583.75,-144 583.75,-180"/>
<text text-anchor="middle" x="479.09" y="-157.8" font-family="Times,serif" font-size="14.00">INTF&#45;IF_APS_COM_SC_TYPES</text>
</g>
<!-- DTEL&#45;OA2C_GRANTTYPE -->
<g id="node2" class="node">
<title>DTEL&#45;OA2C_GRANTTYPE</title>
<g id="a_node2"><a xlink:href="./DTEL_OA2C_GRANTTYPE.html" xlink:title="DTEL&#45;OA2C_GRANTTYPE">
<polygon fill="none" stroke="yellow" points="189.77,-108 6.41,-108 6.41,-72 189.77,-72 189.77,-108"/>
<text text-anchor="middle" x="98.09" y="-85.8" font-family="Times,serif" font-size="14.00">DTEL&#45;OA2C_GRANTTYPE</text>
</a>
</g>
</g>
<!-- INTF&#45;IF_APS_COM_SC_TYPES&#45;&gt;DTEL&#45;OA2C_GRANTTYPE -->
<g id="edge5" class="edge">
<title>INTF&#45;IF_APS_COM_SC_TYPES&#45;&gt;DTEL&#45;OA2C_GRANTTYPE</title>
<path fill="none" stroke="black" d="M386.37,-143.97C329.95,-133.6 257.81,-120.35 199.82,-109.69"/>
<polygon fill="black" stroke="black" points="200.37,-106.23 189.9,-107.87 199.1,-113.12 200.37,-106.23"/>
</g>
<!-- DTEL&#45;APS_COM_OBS_TYPE -->
<g id="node4" class="node">
<title>DTEL&#45;APS_COM_OBS_TYPE</title>
<g id="a_node4"><a xlink:href="./DTEL_APS_COM_OBS_TYPE.html" xlink:title="DTEL&#45;APS_COM_OBS_TYPE">
<polygon fill="none" stroke="yellow" points="406.79,-108 209.38,-108 209.38,-72 406.79,-72 406.79,-108"/>
<text text-anchor="middle" x="308.09" y="-85.8" font-family="Times,serif" font-size="14.00">DTEL&#45;APS_COM_OBS_TYPE</text>
</a>
</g>
</g>
<!-- INTF&#45;IF_APS_COM_SC_TYPES&#45;&gt;DTEL&#45;APS_COM_OBS_TYPE -->
<g id="edge4" class="edge">
<title>INTF&#45;IF_APS_COM_SC_TYPES&#45;&gt;DTEL&#45;APS_COM_OBS_TYPE</title>
<path fill="none" stroke="black" d="M437.26,-143.88C413.67,-134.22 384.03,-122.09 359.09,-111.88"/>
<polygon fill="black" stroke="black" points="360.37,-108.62 349.78,-108.07 357.71,-115.1 360.37,-108.62"/>
</g>
<!-- TABL&#45;QNAME -->
<g id="node6" class="node">
<title>TABL&#45;QNAME</title>
<g id="a_node6"><a xlink:href="./TABL_QNAME.html" xlink:title="TABL&#45;QNAME">
<polygon fill="none" stroke="green" points="533.12,-108 425.06,-108 425.06,-72 533.12,-72 533.12,-108"/>
<text text-anchor="middle" x="479.09" y="-85.8" font-family="Times,serif" font-size="14.00">TABL&#45;QNAME</text>
</a>
</g>
</g>
<!-- INTF&#45;IF_APS_COM_SC_TYPES&#45;&gt;TABL&#45;QNAME -->
<g id="edge3" class="edge">
<title>INTF&#45;IF_APS_COM_SC_TYPES&#45;&gt;TABL&#45;QNAME</title>
<path fill="none" stroke="black" d="M479.09,-143.7C479.09,-135.98 479.09,-126.71 479.09,-118.11"/>
<polygon fill="black" stroke="black" points="482.59,-118.1 479.09,-108.1 475.59,-118.1 482.59,-118.1"/>
</g>
<!-- DTEL&#45;APS_COM_IBS_TYPE -->
<g id="node7" class="node">
<title>DTEL&#45;APS_COM_IBS_TYPE</title>
<g id="a_node7"><a xlink:href="./DTEL_APS_COM_IBS_TYPE.html" xlink:title="DTEL&#45;APS_COM_IBS_TYPE">
<polygon fill="none" stroke="yellow" points="742.85,-108 551.33,-108 551.33,-72 742.85,-72 742.85,-108"/>
<text text-anchor="middle" x="647.09" y="-85.8" font-family="Times,serif" font-size="14.00">DTEL&#45;APS_COM_IBS_TYPE</text>
</a>
</g>
</g>
<!-- INTF&#45;IF_APS_COM_SC_TYPES&#45;&gt;DTEL&#45;APS_COM_IBS_TYPE -->
<g id="edge2" class="edge">
<title>INTF&#45;IF_APS_COM_SC_TYPES&#45;&gt;DTEL&#45;APS_COM_IBS_TYPE</title>
<path fill="none" stroke="black" d="M520.19,-143.88C543.26,-134.26 572.22,-122.19 596.66,-112.01"/>
<polygon fill="black" stroke="black" points="598.24,-115.15 606.13,-108.07 595.55,-108.68 598.24,-115.15"/>
</g>
<!-- DTEL&#45;APS_COM_CSCN_PROTOCOL -->
<g id="node9" class="node">
<title>DTEL&#45;APS_COM_CSCN_PROTOCOL</title>
<g id="a_node9"><a xlink:href="./DTEL_APS_COM_CSCN_PROTOCOL.html" xlink:title="DTEL&#45;APS_COM_CSCN_PROTOCOL">
<polygon fill="none" stroke="yellow" points="1010.02,-108 764.16,-108 764.16,-72 1010.02,-72 1010.02,-108"/>
<text text-anchor="middle" x="887.09" y="-85.8" font-family="Times,serif" font-size="14.00">DTEL&#45;APS_COM_CSCN_PROTOCOL</text>
</a>
</g>
</g>
<!-- INTF&#45;IF_APS_COM_SC_TYPES&#45;&gt;DTEL&#45;APS_COM_CSCN_PROTOCOL -->
<g id="edge1" class="edge">
<title>INTF&#45;IF_APS_COM_SC_TYPES&#45;&gt;DTEL&#45;APS_COM_CSCN_PROTOCOL</title>
<path fill="none" stroke="black" d="M578.38,-143.97C638.59,-133.63 715.51,-120.44 777.5,-109.8"/>
<polygon fill="black" stroke="black" points="778.45,-113.19 787.71,-108.05 777.26,-106.29 778.45,-113.19"/>
</g>
<!-- DOMA&#45;OA2C_GRANTTYPE -->
<g id="node3" class="node">
<title>DOMA&#45;OA2C_GRANTTYPE</title>
<g id="a_node3"><a xlink:href="./DOMA_OA2C_GRANTTYPE.html" xlink:title="DOMA&#45;OA2C_GRANTTYPE">
<polygon fill="none" stroke="yellow" points="190.27,-36 -0.09,-36 -0.09,0 190.27,0 190.27,-36"/>
<text text-anchor="middle" x="95.09" y="-13.8" font-family="Times,serif" font-size="14.00">DOMA&#45;OA2C_GRANTTYPE</text>
</a>
</g>
</g>
<!-- DTEL&#45;OA2C_GRANTTYPE&#45;&gt;DOMA&#45;OA2C_GRANTTYPE -->
<g id="edge6" class="edge">
<title>DTEL&#45;OA2C_GRANTTYPE&#45;&gt;DOMA&#45;OA2C_GRANTTYPE</title>
<path fill="none" stroke="black" d="M97.35,-71.7C97.02,-63.98 96.62,-54.71 96.25,-46.11"/>
<polygon fill="black" stroke="black" points="99.75,-45.95 95.82,-36.1 92.75,-46.25 99.75,-45.95"/>
</g>
<!-- DOMA&#45;APS_COM_OBS_TYPE -->
<g id="node5" class="node">
<title>DOMA&#45;APS_COM_OBS_TYPE</title>
<g id="a_node5"><a xlink:href="./DOMA_APS_COM_OBS_TYPE.html" xlink:title="DOMA&#45;APS_COM_OBS_TYPE">
<polygon fill="none" stroke="yellow" points="412.29,-36 207.88,-36 207.88,0 412.29,0 412.29,-36"/>
<text text-anchor="middle" x="310.09" y="-13.8" font-family="Times,serif" font-size="14.00">DOMA&#45;APS_COM_OBS_TYPE</text>
</a>
</g>
</g>
<!-- DTEL&#45;APS_COM_OBS_TYPE&#45;&gt;DOMA&#45;APS_COM_OBS_TYPE -->
<g id="edge7" class="edge">
<title>DTEL&#45;APS_COM_OBS_TYPE&#45;&gt;DOMA&#45;APS_COM_OBS_TYPE</title>
<path fill="none" stroke="black" d="M308.58,-71.7C308.8,-63.98 309.07,-54.71 309.31,-46.11"/>
<polygon fill="black" stroke="black" points="312.81,-46.2 309.6,-36.1 305.82,-46 312.81,-46.2"/>
</g>
<!-- DOMA&#45;APS_COM_IBS_TYPE -->
<g id="node8" class="node">
<title>DOMA&#45;APS_COM_IBS_TYPE</title>
<g id="a_node8"><a xlink:href="./DOMA_APS_COM_IBS_TYPE.html" xlink:title="DOMA&#45;APS_COM_IBS_TYPE">
<polygon fill="none" stroke="yellow" points="744.35,-36 545.83,-36 545.83,0 744.35,0 744.35,-36"/>
<text text-anchor="middle" x="645.09" y="-13.8" font-family="Times,serif" font-size="14.00">DOMA&#45;APS_COM_IBS_TYPE</text>
</a>
</g>
</g>
<!-- DTEL&#45;APS_COM_IBS_TYPE&#45;&gt;DOMA&#45;APS_COM_IBS_TYPE -->
<g id="edge8" class="edge">
<title>DTEL&#45;APS_COM_IBS_TYPE&#45;&gt;DOMA&#45;APS_COM_IBS_TYPE</title>
<path fill="none" stroke="black" d="M646.59,-71.7C646.37,-63.98 646.11,-54.71 645.86,-46.11"/>
<polygon fill="black" stroke="black" points="649.36,-46 645.58,-36.1 642.36,-46.2 649.36,-46"/>
</g>
<!-- DOMA&#45;APS_COM_CSCN_PROTOCOL -->
<g id="node10" class="node">
<title>DOMA&#45;APS_COM_CSCN_PROTOCOL</title>
<g id="a_node10"><a xlink:href="./DOMA_APS_COM_CSCN_PROTOCOL.html" xlink:title="DOMA&#45;APS_COM_CSCN_PROTOCOL">
<polygon fill="none" stroke="yellow" points="1015.52,-36 762.66,-36 762.66,0 1015.52,0 1015.52,-36"/>
<text text-anchor="middle" x="889.09" y="-13.8" font-family="Times,serif" font-size="14.00">DOMA&#45;APS_COM_CSCN_PROTOCOL</text>
</a>
</g>
</g>
<!-- DTEL&#45;APS_COM_CSCN_PROTOCOL&#45;&gt;DOMA&#45;APS_COM_CSCN_PROTOCOL -->
<g id="edge9" class="edge">
<title>DTEL&#45;APS_COM_CSCN_PROTOCOL&#45;&gt;DOMA&#45;APS_COM_CSCN_PROTOCOL</title>
<path fill="none" stroke="black" d="M887.58,-71.7C887.8,-63.98 888.07,-54.71 888.31,-46.11"/>
<polygon fill="black" stroke="black" points="891.81,-46.2 888.6,-36.1 884.82,-46 891.81,-46.2"/>
</g>
</g>
</svg>
