<?xml version="1.0" encoding="UTF-8" standalone="no"?>
<!DOCTYPE svg PUBLIC "-//W3C//DTD SVG 1.1//EN"
 "http://www.w3.org/Graphics/SVG/1.1/DTD/svg11.dtd">
<!-- Generated by graphviz version 2.47.3 (20210619.1520)
 -->
<!-- Title: G Pages: 1 -->
<svg width="1641pt" height="836pt"
 viewBox="0.00 0.00 1640.79 836.00" xmlns="http://www.w3.org/2000/svg" xmlns:xlink="http://www.w3.org/1999/xlink">
<g id="graph0" class="graph" transform="scale(1 1) rotate(0) translate(4 832)">
<title>G</title>
<polygon fill="white" stroke="transparent" points="-4,4 -4,-832 1636.79,-832 1636.79,4 -4,4"/>
<!-- INTF&#45;IF_XCO_STRING_COMPOSITION -->
<g id="node1" class="node">
<title>INTF&#45;IF_XCO_STRING_COMPOSITION</title>
<g id="a_node1"><a xlink:href="./INTF_IF_XCO_STRING_COMPOSITION.html" xlink:title="INTF&#45;IF_XCO_STRING_COMPOSITION">
<polygon fill="none" stroke="green" points="648.04,-828 387.14,-828 387.14,-792 648.04,-792 648.04,-828"/>
<text text-anchor="middle" x="517.59" y="-805.8" font-family="Times,serif" font-size="14.00">INTF&#45;IF_XCO_STRING_COMPOSITION</text>
</a>
</g>
</g>
<!-- INTF&#45;IF_XCO_STRING -->
<g id="node2" class="node">
<title>INTF&#45;IF_XCO_STRING</title>
<g id="a_node2"><a xlink:href="./INTF_IF_XCO_STRING.html" xlink:title="INTF&#45;IF_XCO_STRING">
<polygon fill="none" stroke="green" points="838.89,-756 680.29,-756 680.29,-720 838.89,-720 838.89,-756"/>
<text text-anchor="middle" x="759.59" y="-733.8" font-family="Times,serif" font-size="14.00">INTF&#45;IF_XCO_STRING</text>
</a>
</g>
</g>
<!-- INTF&#45;IF_XCO_STRING_COMPOSITION&#45;&gt;INTF&#45;IF_XCO_STRING -->
<g id="edge2" class="edge">
<title>INTF&#45;IF_XCO_STRING_COMPOSITION&#45;&gt;INTF&#45;IF_XCO_STRING</title>
<path fill="none" stroke="black" d="M570.59,-791.97C604.09,-781.97 647.81,-769.3 684.8,-758.85"/>
<polygon fill="black" stroke="black" points="685.86,-762.19 694.54,-756.11 683.97,-755.45 685.86,-762.19"/>
</g>
<!-- INTF&#45;IF_XCO_STRING_COMPOSITION&#45;&gt;INTF&#45;IF_XCO_STRING -->
<g id="edge65" class="edge">
<title>INTF&#45;IF_XCO_STRING_COMPOSITION&#45;&gt;INTF&#45;IF_XCO_STRING</title>
<path fill="none" stroke="black" d="M582.37,-791.97C617.82,-782.01 661.5,-769.41 696.66,-758.99"/>
<polygon fill="black" stroke="black" points="697.74,-762.32 706.33,-756.11 695.75,-755.61 697.74,-762.32"/>
</g>
<!-- INTF&#45;IF_XCO_STRINGS -->
<g id="node7" class="node">
<title>INTF&#45;IF_XCO_STRINGS</title>
<g id="a_node7"><a xlink:href="./INTF_IF_XCO_STRINGS.html" xlink:title="INTF&#45;IF_XCO_STRINGS">
<polygon fill="none" stroke="green" points="663.67,-612 497.51,-612 497.51,-576 663.67,-576 663.67,-612"/>
<text text-anchor="middle" x="580.59" y="-589.8" font-family="Times,serif" font-size="14.00">INTF&#45;IF_XCO_STRINGS</text>
</a>
</g>
</g>
<!-- INTF&#45;IF_XCO_STRING_COMPOSITION&#45;&gt;INTF&#45;IF_XCO_STRINGS -->
<g id="edge1" class="edge">
<title>INTF&#45;IF_XCO_STRING_COMPOSITION&#45;&gt;INTF&#45;IF_XCO_STRINGS</title>
<path fill="none" stroke="black" d="M514.88,-791.85C518.73,-754.6 544.29,-666.07 563.51,-621.54"/>
<polygon fill="black" stroke="black" points="566.79,-622.78 567.75,-612.23 560.42,-619.88 566.79,-622.78"/>
</g>
<!-- INTF&#45;IF_XCO_STRING_COMPOSITION&#45;&gt;INTF&#45;IF_XCO_STRINGS -->
<g id="edge64" class="edge">
<title>INTF&#45;IF_XCO_STRING_COMPOSITION&#45;&gt;INTF&#45;IF_XCO_STRINGS</title>
<path fill="none" stroke="black" d="M530.39,-791.85C548.36,-754.83 574.71,-667.18 581.91,-622.39"/>
<polygon fill="black" stroke="black" points="585.41,-622.61 583.29,-612.23 578.48,-621.67 585.41,-622.61"/>
</g>
<!-- INTF&#45;IF_XCO_STRING_ITERABLE -->
<g id="node3" class="node">
<title>INTF&#45;IF_XCO_STRING_ITERABLE</title>
<g id="a_node3"><a xlink:href="./INTF_IF_XCO_STRING_ITERABLE.html" xlink:title="INTF&#45;IF_XCO_STRING_ITERABLE">
<polygon fill="none" stroke="green" points="1531.04,-540 1298.14,-540 1298.14,-504 1531.04,-504 1531.04,-540"/>
<text text-anchor="middle" x="1414.59" y="-517.8" font-family="Times,serif" font-size="14.00">INTF&#45;IF_XCO_STRING_ITERABLE</text>
</a>
</g>
</g>
<!-- INTF&#45;IF_XCO_STRING&#45;&gt;INTF&#45;IF_XCO_STRING_ITERABLE -->
<g id="edge10" class="edge">
<title>INTF&#45;IF_XCO_STRING&#45;&gt;INTF&#45;IF_XCO_STRING_ITERABLE</title>
<path fill="none" stroke="black" d="M838.98,-734.25C1007.14,-727.93 1388.16,-710.82 1440.59,-684 1489.67,-658.9 1528.59,-624.06 1501.59,-576 1494.34,-563.1 1482.53,-552.96 1469.92,-545.17"/>
<polygon fill="black" stroke="black" points="1471.53,-542.06 1461.11,-540.15 1468.06,-548.14 1471.53,-542.06"/>
</g>
<!-- INTF&#45;IF_XCO_TEXT -->
<g id="node6" class="node">
<title>INTF&#45;IF_XCO_TEXT</title>
<g id="a_node6"><a xlink:href="./INTF_IF_XCO_TEXT.html" xlink:title="INTF&#45;IF_XCO_TEXT">
<polygon fill="none" stroke="green" points="433.11,-684 290.07,-684 290.07,-648 433.11,-648 433.11,-684"/>
<text text-anchor="middle" x="361.59" y="-661.8" font-family="Times,serif" font-size="14.00">INTF&#45;IF_XCO_TEXT</text>
</a>
</g>
</g>
<!-- INTF&#45;IF_XCO_STRING&#45;&gt;INTF&#45;IF_XCO_TEXT -->
<g id="edge9" class="edge">
<title>INTF&#45;IF_XCO_STRING&#45;&gt;INTF&#45;IF_XCO_TEXT</title>
<path fill="none" stroke="black" d="M680.3,-724.14C617.18,-713.75 526.62,-698.52 447.59,-684 446.14,-683.73 444.68,-683.46 443.2,-683.19"/>
<polygon fill="black" stroke="black" points="443.83,-679.75 433.36,-681.34 442.54,-686.63 443.83,-679.75"/>
</g>
<!-- INTF&#45;IF_XCO_STRING&#45;&gt;INTF&#45;IF_XCO_STRINGS -->
<g id="edge3" class="edge">
<title>INTF&#45;IF_XCO_STRING&#45;&gt;INTF&#45;IF_XCO_STRINGS</title>
<path fill="none" stroke="black" d="M680.29,-725.54C652.15,-717.88 622.38,-705.14 601.59,-684 585.29,-667.42 577.84,-641.7 575.99,-622.16"/>
<polygon fill="black" stroke="black" points="579.48,-621.87 575.52,-612.04 572.49,-622.19 579.48,-621.87"/>
</g>
<!-- INTF&#45;IF_XCO_NEWS -->
<g id="node8" class="node">
<title>INTF&#45;IF_XCO_NEWS</title>
<g id="a_node8"><a xlink:href="./INTF_IF_XCO_NEWS.html" xlink:title="INTF&#45;IF_XCO_NEWS">
<polygon fill="none" stroke="green" points="649.5,-540 501.68,-540 501.68,-504 649.5,-504 649.5,-540"/>
<text text-anchor="middle" x="575.59" y="-517.8" font-family="Times,serif" font-size="14.00">INTF&#45;IF_XCO_NEWS</text>
</a>
</g>
</g>
<!-- INTF&#45;IF_XCO_STRING&#45;&gt;INTF&#45;IF_XCO_NEWS -->
<g id="edge8" class="edge">
<title>INTF&#45;IF_XCO_STRING&#45;&gt;INTF&#45;IF_XCO_NEWS</title>
<path fill="none" stroke="black" d="M680.34,-726.86C613.9,-713.46 524.33,-682.61 488.59,-612 481.36,-597.72 480.75,-589.95 488.59,-576 495.84,-563.1 507.65,-552.96 520.26,-545.17"/>
<polygon fill="black" stroke="black" points="522.12,-548.14 529.07,-540.15 518.65,-542.06 522.12,-548.14"/>
</g>
<!-- INTF&#45;IF_XCO_MESSAGE -->
<g id="node10" class="node">
<title>INTF&#45;IF_XCO_MESSAGE</title>
<g id="a_node10"><a xlink:href="./INTF_IF_XCO_MESSAGE.html" xlink:title="INTF&#45;IF_XCO_MESSAGE">
<polygon fill="none" stroke="green" points="904.17,-396 731.01,-396 731.01,-360 904.17,-360 904.17,-396"/>
<text text-anchor="middle" x="817.59" y="-373.8" font-family="Times,serif" font-size="14.00">INTF&#45;IF_XCO_MESSAGE</text>
</a>
</g>
</g>
<!-- INTF&#45;IF_XCO_STRING&#45;&gt;INTF&#45;IF_XCO_MESSAGE -->
<g id="edge5" class="edge">
<title>INTF&#45;IF_XCO_STRING&#45;&gt;INTF&#45;IF_XCO_MESSAGE</title>
<path fill="none" stroke="black" d="M838.87,-733.45C963.07,-727.06 1191.95,-711.66 1216.59,-684 1227.23,-672.05 1223.49,-662.43 1216.59,-648 1183.58,-579 1014.53,-470.76 948.59,-432 926.94,-419.27 901.65,-408.25 879.1,-399.6"/>
<polygon fill="black" stroke="black" points="880.22,-396.28 869.63,-396.04 877.76,-402.83 880.22,-396.28"/>
</g>
<!-- INTF&#45;IF_XCO_XSTRING -->
<g id="node35" class="node">
<title>INTF&#45;IF_XCO_XSTRING</title>
<g id="a_node35"><a xlink:href="./INTF_IF_XCO_XSTRING.html" xlink:title="INTF&#45;IF_XCO_XSTRING">
<polygon fill="none" stroke="green" points="1432,-684 1263.18,-684 1263.18,-648 1432,-648 1432,-684"/>
<text text-anchor="middle" x="1347.59" y="-661.8" font-family="Times,serif" font-size="14.00">INTF&#45;IF_XCO_XSTRING</text>
</a>
</g>
</g>
<!-- INTF&#45;IF_XCO_STRING&#45;&gt;INTF&#45;IF_XCO_XSTRING -->
<g id="edge7" class="edge">
<title>INTF&#45;IF_XCO_STRING&#45;&gt;INTF&#45;IF_XCO_XSTRING</title>
<path fill="none" stroke="black" d="M839.13,-729.37C934.67,-720.3 1099.51,-703.85 1240.59,-684 1244.73,-683.42 1248.96,-682.79 1253.23,-682.14"/>
<polygon fill="black" stroke="black" points="1253.93,-685.58 1263.27,-680.57 1252.85,-678.66 1253.93,-685.58"/>
</g>
<!-- INTF&#45;IF_XCO_STRING_XSTRING_CNVRSN -->
<g id="node37" class="node">
<title>INTF&#45;IF_XCO_STRING_XSTRING_CNVRSN</title>
<g id="a_node37"><a xlink:href="./INTF_IF_XCO_STRING_XSTRING_CNVRSN.html" xlink:title="INTF&#45;IF_XCO_STRING_XSTRING_CNVRSN">
<polygon fill="none" stroke="green" points="1207.32,-684 917.86,-684 917.86,-648 1207.32,-648 1207.32,-684"/>
<text text-anchor="middle" x="1062.59" y="-661.8" font-family="Times,serif" font-size="14.00">INTF&#45;IF_XCO_STRING_XSTRING_CNVRSN</text>
</a>
</g>
</g>
<!-- INTF&#45;IF_XCO_STRING&#45;&gt;INTF&#45;IF_XCO_STRING_XSTRING_CNVRSN -->
<g id="edge6" class="edge">
<title>INTF&#45;IF_XCO_STRING&#45;&gt;INTF&#45;IF_XCO_STRING_XSTRING_CNVRSN</title>
<path fill="none" stroke="black" d="M833.32,-719.97C877.31,-709.8 933.29,-696.87 978.92,-686.33"/>
<polygon fill="black" stroke="black" points="979.83,-689.71 988.79,-684.05 978.26,-682.89 979.83,-689.71"/>
</g>
<!-- INTF&#45;IF_XCO_STRING_DECOMPOSITION -->
<g id="node38" class="node">
<title>INTF&#45;IF_XCO_STRING_DECOMPOSITION</title>
<g id="a_node38"><a xlink:href="./INTF_IF_XCO_STRING_DECOMPOSITION.html" xlink:title="INTF&#45;IF_XCO_STRING_DECOMPOSITION">
<polygon fill="none" stroke="green" points="899.2,-684 619.98,-684 619.98,-648 899.2,-648 899.2,-684"/>
<text text-anchor="middle" x="759.59" y="-661.8" font-family="Times,serif" font-size="14.00">INTF&#45;IF_XCO_STRING_DECOMPOSITION</text>
</a>
</g>
</g>
<!-- INTF&#45;IF_XCO_STRING&#45;&gt;INTF&#45;IF_XCO_STRING_DECOMPOSITION -->
<g id="edge4" class="edge">
<title>INTF&#45;IF_XCO_STRING&#45;&gt;INTF&#45;IF_XCO_STRING_DECOMPOSITION</title>
<path fill="none" stroke="black" d="M753.67,-719.7C752.88,-711.98 752.65,-702.71 752.99,-694.11"/>
<polygon fill="black" stroke="black" points="756.49,-694.32 753.69,-684.1 749.51,-693.84 756.49,-694.32"/>
</g>
<!-- INTF&#45;IF_XCO_STRING_ITERATOR -->
<g id="node4" class="node">
<title>INTF&#45;IF_XCO_STRING_ITERATOR</title>
<g id="a_node4"><a xlink:href="./INTF_IF_XCO_STRING_ITERATOR.html" xlink:title="INTF&#45;IF_XCO_STRING_ITERATOR">
<polygon fill="none" stroke="green" points="1603.6,-468 1369.58,-468 1369.58,-432 1603.6,-432 1603.6,-468"/>
<text text-anchor="middle" x="1486.59" y="-445.8" font-family="Times,serif" font-size="14.00">INTF&#45;IF_XCO_STRING_ITERATOR</text>
</a>
</g>
</g>
<!-- INTF&#45;IF_XCO_STRING_ITERABLE&#45;&gt;INTF&#45;IF_XCO_STRING_ITERATOR -->
<g id="edge11" class="edge">
<title>INTF&#45;IF_XCO_STRING_ITERABLE&#45;&gt;INTF&#45;IF_XCO_STRING_ITERATOR</title>
<path fill="none" stroke="black" d="M1432.39,-503.7C1441.19,-495.14 1451.97,-484.66 1461.59,-475.3"/>
<polygon fill="black" stroke="black" points="1464.27,-477.58 1469,-468.1 1459.39,-472.57 1464.27,-477.58"/>
</g>
<!-- INTF&#45;IF_XCO_STRING_ITERATOR&#45;&gt;INTF&#45;IF_XCO_STRING -->
<g id="edge12" class="edge">
<title>INTF&#45;IF_XCO_STRING_ITERATOR&#45;&gt;INTF&#45;IF_XCO_STRING</title>
<path fill="none" stroke="black" d="M1511.07,-468.23C1521.99,-477.44 1533.71,-489.81 1539.59,-504 1571.86,-581.91 1550.65,-638.59 1479.59,-684 1427.63,-717.2 1030.14,-730.68 849.01,-735.13"/>
<polygon fill="black" stroke="black" points="848.89,-731.64 838.97,-735.38 849.06,-738.63 848.89,-731.64"/>
</g>
<!-- INTF&#45;IF_XCO_ITERATOR -->
<g id="node5" class="node">
<title>INTF&#45;IF_XCO_ITERATOR</title>
<g id="a_node5"><a xlink:href="./INTF_IF_XCO_ITERATOR.html" xlink:title="INTF&#45;IF_XCO_ITERATOR">
<polygon fill="none" stroke="green" points="1575.05,-396 1398.13,-396 1398.13,-360 1575.05,-360 1575.05,-396"/>
<text text-anchor="middle" x="1486.59" y="-373.8" font-family="Times,serif" font-size="14.00">INTF&#45;IF_XCO_ITERATOR</text>
</a>
</g>
</g>
<!-- INTF&#45;IF_XCO_STRING_ITERATOR&#45;&gt;INTF&#45;IF_XCO_ITERATOR -->
<g id="edge13" class="edge">
<title>INTF&#45;IF_XCO_STRING_ITERATOR&#45;&gt;INTF&#45;IF_XCO_ITERATOR</title>
<path fill="none" stroke="black" d="M1486.59,-431.7C1486.59,-423.98 1486.59,-414.71 1486.59,-406.11"/>
<polygon fill="black" stroke="black" points="1490.09,-406.1 1486.59,-396.1 1483.09,-406.1 1490.09,-406.1"/>
</g>
<!-- INTF&#45;IF_XCO_TEXT&#45;&gt;INTF&#45;IF_XCO_STRINGS -->
<g id="edge14" class="edge">
<title>INTF&#45;IF_XCO_TEXT&#45;&gt;INTF&#45;IF_XCO_STRINGS</title>
<path fill="none" stroke="black" d="M409,-647.97C438.95,-638.06 478.1,-625.51 511.46,-615.12"/>
<polygon fill="black" stroke="black" points="512.65,-618.42 521.16,-612.11 510.57,-611.73 512.65,-618.42"/>
</g>
<!-- INTF&#45;IF_XCO_STRINGS&#45;&gt;INTF&#45;IF_XCO_STRING_COMPOSITION -->
<g id="edge18" class="edge">
<title>INTF&#45;IF_XCO_STRINGS&#45;&gt;INTF&#45;IF_XCO_STRING_COMPOSITION</title>
<path fill="none" stroke="black" d="M575.52,-612.23C564.57,-649.4 538.68,-737.35 525.54,-782"/>
<polygon fill="black" stroke="black" points="522.11,-781.27 522.64,-791.85 528.82,-783.24 522.11,-781.27"/>
</g>
<!-- INTF&#45;IF_XCO_STRINGS&#45;&gt;INTF&#45;IF_XCO_STRING -->
<g id="edge17" class="edge">
<title>INTF&#45;IF_XCO_STRINGS&#45;&gt;INTF&#45;IF_XCO_STRING</title>
<path fill="none" stroke="black" d="M588.35,-612.04C593.38,-631.86 600.27,-664.35 619.59,-684 633.75,-698.4 652.08,-708.9 670.8,-716.56"/>
<polygon fill="black" stroke="black" points="669.71,-719.89 680.3,-720.2 672.21,-713.35 669.71,-719.89"/>
</g>
<!-- INTF&#45;IF_XCO_STRINGS&#45;&gt;INTF&#45;IF_XCO_STRING_ITERABLE -->
<g id="edge21" class="edge">
<title>INTF&#45;IF_XCO_STRINGS&#45;&gt;INTF&#45;IF_XCO_STRING_ITERABLE</title>
<path fill="none" stroke="black" d="M663.99,-586C810.51,-573.7 1114.96,-548.15 1287.71,-533.65"/>
<polygon fill="black" stroke="black" points="1288.2,-537.12 1297.87,-532.8 1287.61,-530.15 1288.2,-537.12"/>
</g>
<!-- INTF&#45;IF_XCO_STRINGS&#45;&gt;INTF&#45;IF_XCO_TEXT -->
<g id="edge20" class="edge">
<title>INTF&#45;IF_XCO_STRINGS&#45;&gt;INTF&#45;IF_XCO_TEXT</title>
<path fill="none" stroke="black" d="M532.95,-612.11C502.95,-622.03 463.8,-634.58 430.46,-644.96"/>
<polygon fill="black" stroke="black" points="429.28,-641.66 420.77,-647.97 431.36,-648.34 429.28,-641.66"/>
</g>
<!-- INTF&#45;IF_XCO_STRINGS&#45;&gt;INTF&#45;IF_XCO_NEWS -->
<g id="edge19" class="edge">
<title>INTF&#45;IF_XCO_STRINGS&#45;&gt;INTF&#45;IF_XCO_NEWS</title>
<path fill="none" stroke="black" d="M579.35,-575.7C578.8,-567.98 578.14,-558.71 577.53,-550.11"/>
<polygon fill="black" stroke="black" points="581.02,-549.83 576.81,-540.1 574.03,-550.33 581.02,-549.83"/>
</g>
<!-- TTYP&#45;STRING_TABLE -->
<g id="node32" class="node">
<title>TTYP&#45;STRING_TABLE</title>
<g id="a_node32"><a xlink:href="./TTYP_STRING_TABLE.html" xlink:title="TTYP&#45;STRING_TABLE">
<polygon fill="none" stroke="green" points="825.89,-540 667.29,-540 667.29,-504 825.89,-504 825.89,-540"/>
<text text-anchor="middle" x="746.59" y="-517.8" font-family="Times,serif" font-size="14.00">TTYP&#45;STRING_TABLE</text>
</a>
</g>
</g>
<!-- INTF&#45;IF_XCO_STRINGS&#45;&gt;TTYP&#45;STRING_TABLE -->
<g id="edge16" class="edge">
<title>INTF&#45;IF_XCO_STRINGS&#45;&gt;TTYP&#45;STRING_TABLE</title>
<path fill="none" stroke="black" d="M621.2,-575.88C643.99,-566.26 672.62,-554.19 696.76,-544.01"/>
<polygon fill="black" stroke="black" points="698.26,-547.18 706.11,-540.07 695.54,-540.73 698.26,-547.18"/>
</g>
<!-- DTEL&#45;INT4 -->
<g id="node33" class="node">
<title>DTEL&#45;INT4</title>
<g id="a_node33"><a xlink:href="./DTEL_INT4.html" xlink:title="DTEL&#45;INT4">
<polygon fill="none" stroke="green" points="933.83,-540 847.34,-540 847.34,-504 933.83,-504 933.83,-540"/>
<text text-anchor="middle" x="890.59" y="-517.8" font-family="Times,serif" font-size="14.00">DTEL&#45;INT4</text>
</a>
</g>
</g>
<!-- INTF&#45;IF_XCO_STRINGS&#45;&gt;DTEL&#45;INT4 -->
<g id="edge15" class="edge">
<title>INTF&#45;IF_XCO_STRINGS&#45;&gt;DTEL&#45;INT4</title>
<path fill="none" stroke="black" d="M663.67,-577.6C713.49,-567.89 777.96,-554.47 834.59,-540 835.49,-539.77 836.41,-539.53 837.32,-539.29"/>
<polygon fill="black" stroke="black" points="838.56,-542.58 847.28,-536.56 836.72,-535.83 838.56,-542.58"/>
</g>
<!-- TTYP&#45;SXCO_T_MESSAGES -->
<g id="node9" class="node">
<title>TTYP&#45;SXCO_T_MESSAGES</title>
<g id="a_node9"><a xlink:href="./TTYP_SXCO_T_MESSAGES.html" xlink:title="TTYP&#45;SXCO_T_MESSAGES">
<polygon fill="none" stroke="green" points="789.74,-468 601.44,-468 601.44,-432 789.74,-432 789.74,-468"/>
<text text-anchor="middle" x="695.59" y="-445.8" font-family="Times,serif" font-size="14.00">TTYP&#45;SXCO_T_MESSAGES</text>
</a>
</g>
</g>
<!-- INTF&#45;IF_XCO_NEWS&#45;&gt;TTYP&#45;SXCO_T_MESSAGES -->
<g id="edge22" class="edge">
<title>INTF&#45;IF_XCO_NEWS&#45;&gt;TTYP&#45;SXCO_T_MESSAGES</title>
<path fill="none" stroke="black" d="M604.95,-503.88C620.64,-494.72 640.15,-483.34 657.04,-473.48"/>
<polygon fill="black" stroke="black" points="659.25,-476.25 666.12,-468.19 655.72,-470.21 659.25,-476.25"/>
</g>
<!-- TTYP&#45;SXCO_T_MESSAGES&#45;&gt;INTF&#45;IF_XCO_MESSAGE -->
<g id="edge23" class="edge">
<title>TTYP&#45;SXCO_T_MESSAGES&#45;&gt;INTF&#45;IF_XCO_MESSAGE</title>
<path fill="none" stroke="black" d="M725.43,-431.88C741.53,-422.64 761.59,-411.13 778.88,-401.21"/>
<polygon fill="black" stroke="black" points="780.7,-404.2 787.63,-396.19 777.21,-398.13 780.7,-404.2"/>
</g>
<!-- INTF&#45;IF_XCO_MESSAGE&#45;&gt;INTF&#45;IF_XCO_NEWS -->
<g id="edge32" class="edge">
<title>INTF&#45;IF_XCO_MESSAGE&#45;&gt;INTF&#45;IF_XCO_NEWS</title>
<path fill="none" stroke="black" d="M818.96,-396.23C819.55,-416.23 817.25,-448.9 798.59,-468 793.48,-473.23 720.65,-489.94 659.59,-503.22"/>
<polygon fill="black" stroke="black" points="658.55,-499.86 649.51,-505.4 660.03,-506.7 658.55,-499.86"/>
</g>
<!-- INTF&#45;IF_T100_DYN_MSG -->
<g id="node11" class="node">
<title>INTF&#45;IF_T100_DYN_MSG</title>
<g id="a_node11"><a xlink:href="./INTF_IF_T100_DYN_MSG.html" xlink:title="INTF&#45;IF_T100_DYN_MSG">
<polygon fill="none" stroke="green" points="1187.5,-324 1011.68,-324 1011.68,-288 1187.5,-288 1187.5,-324"/>
<text text-anchor="middle" x="1099.59" y="-301.8" font-family="Times,serif" font-size="14.00">INTF&#45;IF_T100_DYN_MSG</text>
</a>
</g>
</g>
<!-- INTF&#45;IF_XCO_MESSAGE&#45;&gt;INTF&#45;IF_T100_DYN_MSG -->
<g id="edge31" class="edge">
<title>INTF&#45;IF_XCO_MESSAGE&#45;&gt;INTF&#45;IF_T100_DYN_MSG</title>
<path fill="none" stroke="black" d="M886.21,-359.97C926.9,-349.87 978.62,-337.03 1020.95,-326.52"/>
<polygon fill="black" stroke="black" points="1021.8,-329.92 1030.66,-324.11 1020.11,-323.12 1021.8,-329.92"/>
</g>
<!-- DTEL&#45;SYMSGNO -->
<g id="node16" class="node">
<title>DTEL&#45;SYMSGNO</title>
<g id="a_node16"><a xlink:href="./DTEL_SYMSGNO.html" xlink:title="DTEL&#45;SYMSGNO">
<polygon fill="none" stroke="green" points="1406.95,-108 1282.23,-108 1282.23,-72 1406.95,-72 1406.95,-108"/>
<text text-anchor="middle" x="1344.59" y="-85.8" font-family="Times,serif" font-size="14.00">DTEL&#45;SYMSGNO</text>
</a>
</g>
</g>
<!-- INTF&#45;IF_XCO_MESSAGE&#45;&gt;DTEL&#45;SYMSGNO -->
<g id="edge27" class="edge">
<title>INTF&#45;IF_XCO_MESSAGE&#45;&gt;DTEL&#45;SYMSGNO</title>
<path fill="none" stroke="black" d="M904.19,-372.99C1024.25,-364.38 1245.24,-337.25 1411.59,-252 1460.33,-227.02 1486.62,-228.74 1511.59,-180 1518.88,-165.76 1521.04,-156.91 1511.59,-144 1499.87,-127.99 1456.74,-114.53 1417.24,-105.19"/>
<polygon fill="black" stroke="black" points="1417.83,-101.73 1407.3,-102.9 1416.26,-108.55 1417.83,-101.73"/>
</g>
<!-- DTEL&#45;SYMSGID -->
<g id="node18" class="node">
<title>DTEL&#45;SYMSGID</title>
<g id="a_node18"><a xlink:href="./DTEL_SYMSGID.html" xlink:title="DTEL&#45;SYMSGID">
<polygon fill="none" stroke="green" points="1124.51,-108 1004.67,-108 1004.67,-72 1124.51,-72 1124.51,-108"/>
<text text-anchor="middle" x="1064.59" y="-85.8" font-family="Times,serif" font-size="14.00">DTEL&#45;SYMSGID</text>
</a>
</g>
</g>
<!-- INTF&#45;IF_XCO_MESSAGE&#45;&gt;DTEL&#45;SYMSGID -->
<g id="edge26" class="edge">
<title>INTF&#45;IF_XCO_MESSAGE&#45;&gt;DTEL&#45;SYMSGID</title>
<path fill="none" stroke="black" d="M806.36,-359.96C787.65,-331.3 751.41,-274.38 743.59,-252 727.68,-206.49 702.31,-180.68 733.59,-144 766.46,-105.45 907.72,-94.82 994.73,-91.97"/>
<polygon fill="black" stroke="black" points="994.92,-95.46 1004.81,-91.66 994.7,-88.46 994.92,-95.46"/>
</g>
<!-- DTEL&#45;SYMSGTY -->
<g id="node20" class="node">
<title>DTEL&#45;SYMSGTY</title>
<g id="a_node20"><a xlink:href="./DTEL_SYMSGTY.html" xlink:title="DTEL&#45;SYMSGTY">
<polygon fill="none" stroke="green" points="876.4,-252 752.78,-252 752.78,-216 876.4,-216 876.4,-252"/>
<text text-anchor="middle" x="814.59" y="-229.8" font-family="Times,serif" font-size="14.00">DTEL&#45;SYMSGTY</text>
</a>
</g>
</g>
<!-- INTF&#45;IF_XCO_MESSAGE&#45;&gt;DTEL&#45;SYMSGTY -->
<g id="edge25" class="edge">
<title>INTF&#45;IF_XCO_MESSAGE&#45;&gt;DTEL&#45;SYMSGTY</title>
<path fill="none" stroke="black" d="M817.23,-359.87C816.72,-335.67 815.78,-291.21 815.17,-262.39"/>
<polygon fill="black" stroke="black" points="818.66,-262.11 814.95,-252.19 811.67,-262.26 818.66,-262.11"/>
</g>
<!-- DTEL&#45;SYMSGV -->
<g id="node22" class="node">
<title>DTEL&#45;SYMSGV</title>
<g id="a_node22"><a xlink:href="./DTEL_SYMSGV.html" xlink:title="DTEL&#45;SYMSGV">
<polygon fill="none" stroke="green" points="1089.84,-252 975.33,-252 975.33,-216 1089.84,-216 1089.84,-252"/>
<text text-anchor="middle" x="1032.59" y="-229.8" font-family="Times,serif" font-size="14.00">DTEL&#45;SYMSGV</text>
</a>
</g>
</g>
<!-- INTF&#45;IF_XCO_MESSAGE&#45;&gt;DTEL&#45;SYMSGV -->
<g id="edge28" class="edge">
<title>INTF&#45;IF_XCO_MESSAGE&#45;&gt;DTEL&#45;SYMSGV</title>
<path fill="none" stroke="black" d="M890.07,-359.92C915.21,-351.74 942.59,-340.11 964.59,-324 987.48,-307.24 1006.36,-280.67 1018.37,-260.93"/>
<polygon fill="black" stroke="black" points="1021.5,-262.52 1023.55,-252.12 1015.47,-258.97 1021.5,-262.52"/>
</g>
<!-- INTF&#45;IF_XCO_MESSAGE_SHORT_TEXT -->
<g id="node24" class="node">
<title>INTF&#45;IF_XCO_MESSAGE_SHORT_TEXT</title>
<g id="a_node24"><a xlink:href="./INTF_IF_XCO_MESSAGE_SHORT_TEXT.html" xlink:title="INTF&#45;IF_XCO_MESSAGE_SHORT_TEXT">
<polygon fill="none" stroke="green" points="507.82,-324 239.36,-324 239.36,-288 507.82,-288 507.82,-324"/>
<text text-anchor="middle" x="373.59" y="-301.8" font-family="Times,serif" font-size="14.00">INTF&#45;IF_XCO_MESSAGE_SHORT_TEXT</text>
</a>
</g>
</g>
<!-- INTF&#45;IF_XCO_MESSAGE&#45;&gt;INTF&#45;IF_XCO_MESSAGE_SHORT_TEXT -->
<g id="edge30" class="edge">
<title>INTF&#45;IF_XCO_MESSAGE&#45;&gt;INTF&#45;IF_XCO_MESSAGE_SHORT_TEXT</title>
<path fill="none" stroke="black" d="M730.79,-364.16C660.8,-353.38 561.93,-337.82 485.92,-325.66"/>
<polygon fill="black" stroke="black" points="486.25,-322.17 475.82,-324.05 485.14,-329.08 486.25,-322.17"/>
</g>
<!-- CLAS&#45;CL_XCO_MESSAGE_TYPE -->
<g id="node28" class="node">
<title>CLAS&#45;CL_XCO_MESSAGE_TYPE</title>
<g id="a_node28"><a xlink:href="./CLAS_CL_XCO_MESSAGE_TYPE.html" xlink:title="CLAS&#45;CL_XCO_MESSAGE_TYPE">
<polygon fill="none" stroke="green" points="751.29,-324 525.89,-324 525.89,-288 751.29,-288 751.29,-324"/>
<text text-anchor="middle" x="638.59" y="-301.8" font-family="Times,serif" font-size="14.00">CLAS&#45;CL_XCO_MESSAGE_TYPE</text>
</a>
</g>
</g>
<!-- INTF&#45;IF_XCO_MESSAGE&#45;&gt;CLAS&#45;CL_XCO_MESSAGE_TYPE -->
<g id="edge29" class="edge">
<title>INTF&#45;IF_XCO_MESSAGE&#45;&gt;CLAS&#45;CL_XCO_MESSAGE_TYPE</title>
<path fill="none" stroke="black" d="M773.8,-359.88C749,-350.18 717.81,-337.98 691.63,-327.74"/>
<polygon fill="black" stroke="black" points="692.82,-324.45 682.24,-324.07 690.27,-330.97 692.82,-324.45"/>
</g>
<!-- TABL&#45;SYMSG -->
<g id="node31" class="node">
<title>TABL&#45;SYMSG</title>
<g id="a_node31"><a xlink:href="./TABL_SYMSG.html" xlink:title="TABL&#45;SYMSG">
<polygon fill="none" stroke="green" points="955.52,-324 849.66,-324 849.66,-288 955.52,-288 955.52,-324"/>
<text text-anchor="middle" x="902.59" y="-301.8" font-family="Times,serif" font-size="14.00">TABL&#45;SYMSG</text>
</a>
</g>
</g>
<!-- INTF&#45;IF_XCO_MESSAGE&#45;&gt;TABL&#45;SYMSG -->
<g id="edge24" class="edge">
<title>INTF&#45;IF_XCO_MESSAGE&#45;&gt;TABL&#45;SYMSG</title>
<path fill="none" stroke="black" d="M838.6,-359.7C849.31,-350.88 862.48,-340.03 874.09,-330.47"/>
<polygon fill="black" stroke="black" points="876.33,-333.16 881.82,-324.1 871.88,-327.76 876.33,-333.16"/>
</g>
<!-- INTF&#45;IF_T100_MESSAGE -->
<g id="node12" class="node">
<title>INTF&#45;IF_T100_MESSAGE</title>
<g id="a_node12"><a xlink:href="./INTF_IF_T100_MESSAGE.html" xlink:title="INTF&#45;IF_T100_MESSAGE">
<polygon fill="none" stroke="green" points="1402.18,-252 1229,-252 1229,-216 1402.18,-216 1402.18,-252"/>
<text text-anchor="middle" x="1315.59" y="-229.8" font-family="Times,serif" font-size="14.00">INTF&#45;IF_T100_MESSAGE</text>
</a>
</g>
</g>
<!-- INTF&#45;IF_T100_DYN_MSG&#45;&gt;INTF&#45;IF_T100_MESSAGE -->
<g id="edge36" class="edge">
<title>INTF&#45;IF_T100_DYN_MSG&#45;&gt;INTF&#45;IF_T100_MESSAGE</title>
<path fill="none" stroke="black" d="M1152.15,-287.97C1182.6,-278.1 1221.1,-265.62 1253.09,-255.25"/>
<polygon fill="black" stroke="black" points="1254.36,-258.52 1262.79,-252.11 1252.2,-251.86 1254.36,-258.52"/>
</g>
<!-- INTF&#45;IF_MESSAGE -->
<g id="node13" class="node">
<title>INTF&#45;IF_MESSAGE</title>
<g id="a_node13"><a xlink:href="./INTF_IF_MESSAGE.html" xlink:title="INTF&#45;IF_MESSAGE">
<polygon fill="none" stroke="green" points="1258.62,-180 1122.55,-180 1122.55,-144 1258.62,-144 1258.62,-180"/>
<text text-anchor="middle" x="1190.59" y="-157.8" font-family="Times,serif" font-size="14.00">INTF&#45;IF_MESSAGE</text>
</a>
</g>
</g>
<!-- INTF&#45;IF_T100_DYN_MSG&#45;&gt;INTF&#45;IF_MESSAGE -->
<g id="edge35" class="edge">
<title>INTF&#45;IF_T100_DYN_MSG&#45;&gt;INTF&#45;IF_MESSAGE</title>
<path fill="none" stroke="black" d="M1110.57,-287.87C1126.35,-263.24 1155.58,-217.64 1174,-188.88"/>
<polygon fill="black" stroke="black" points="1177.13,-190.5 1179.57,-180.19 1171.23,-186.72 1177.13,-190.5"/>
</g>
<!-- INTF&#45;IF_T100_DYN_MSG&#45;&gt;DTEL&#45;SYMSGTY -->
<g id="edge34" class="edge">
<title>INTF&#45;IF_T100_DYN_MSG&#45;&gt;DTEL&#45;SYMSGTY</title>
<path fill="none" stroke="black" d="M1030.24,-287.97C986.58,-277.24 930.36,-263.43 886.26,-252.6"/>
<polygon fill="black" stroke="black" points="887.02,-249.19 876.48,-250.2 885.35,-255.98 887.02,-249.19"/>
</g>
<!-- INTF&#45;IF_T100_DYN_MSG&#45;&gt;DTEL&#45;SYMSGV -->
<g id="edge33" class="edge">
<title>INTF&#45;IF_T100_DYN_MSG&#45;&gt;DTEL&#45;SYMSGV</title>
<path fill="none" stroke="black" d="M1083.03,-287.7C1074.91,-279.22 1065,-268.86 1056.12,-259.58"/>
<polygon fill="black" stroke="black" points="1058.4,-256.91 1048.96,-252.1 1053.35,-261.75 1058.4,-256.91"/>
</g>
<!-- INTF&#45;IF_T100_MESSAGE&#45;&gt;INTF&#45;IF_MESSAGE -->
<g id="edge41" class="edge">
<title>INTF&#45;IF_T100_MESSAGE&#45;&gt;INTF&#45;IF_MESSAGE</title>
<path fill="none" stroke="black" d="M1285.01,-215.88C1268.52,-206.64 1247.97,-195.13 1230.25,-185.21"/>
<polygon fill="black" stroke="black" points="1231.72,-182.02 1221.29,-180.19 1228.3,-188.13 1231.72,-182.02"/>
</g>
<!-- TABL&#45;SCX_T100KEY -->
<g id="node14" class="node">
<title>TABL&#45;SCX_T100KEY</title>
<g id="a_node14"><a xlink:href="./TABL_SCX_T100KEY.html" xlink:title="TABL&#45;SCX_T100KEY">
<polygon fill="none" stroke="yellow" points="1502.34,-180 1352.84,-180 1352.84,-144 1502.34,-144 1502.34,-180"/>
<text text-anchor="middle" x="1427.59" y="-157.8" font-family="Times,serif" font-size="14.00">TABL&#45;SCX_T100KEY</text>
</a>
</g>
</g>
<!-- INTF&#45;IF_T100_MESSAGE&#45;&gt;TABL&#45;SCX_T100KEY -->
<g id="edge40" class="edge">
<title>INTF&#45;IF_T100_MESSAGE&#45;&gt;TABL&#45;SCX_T100KEY</title>
<path fill="none" stroke="black" d="M1342.99,-215.88C1357.5,-206.81 1375.51,-195.55 1391.18,-185.76"/>
<polygon fill="black" stroke="black" points="1393.46,-188.46 1400.09,-180.19 1389.75,-182.52 1393.46,-188.46"/>
</g>
<!-- DTEL&#45;SCX_ATTRNAME -->
<g id="node15" class="node">
<title>DTEL&#45;SCX_ATTRNAME</title>
<g id="a_node15"><a xlink:href="./DTEL_SCX_ATTRNAME.html" xlink:title="DTEL&#45;SCX_ATTRNAME">
<polygon fill="none" stroke="green" points="1633,-108 1464.18,-108 1464.18,-72 1633,-72 1633,-108"/>
<text text-anchor="middle" x="1548.59" y="-85.8" font-family="Times,serif" font-size="14.00">DTEL&#45;SCX_ATTRNAME</text>
</a>
</g>
</g>
<!-- INTF&#45;IF_T100_MESSAGE&#45;&gt;DTEL&#45;SCX_ATTRNAME -->
<g id="edge39" class="edge">
<title>INTF&#45;IF_T100_MESSAGE&#45;&gt;DTEL&#45;SCX_ATTRNAME</title>
<path fill="none" stroke="black" d="M1402.22,-226.55C1439.59,-219.8 1481.52,-206.39 1511.59,-180 1529.71,-164.09 1539.16,-137.89 1543.95,-118.03"/>
<polygon fill="black" stroke="black" points="1547.42,-118.54 1546.11,-108.03 1540.58,-117.07 1547.42,-118.54"/>
</g>
<!-- INTF&#45;IF_T100_MESSAGE&#45;&gt;DTEL&#45;SYMSGNO -->
<g id="edge38" class="edge">
<title>INTF&#45;IF_T100_MESSAGE&#45;&gt;DTEL&#45;SYMSGNO</title>
<path fill="none" stroke="black" d="M1319.09,-215.87C1324.05,-191.56 1333.19,-146.82 1339.07,-118.01"/>
<polygon fill="black" stroke="black" points="1342.51,-118.69 1341.08,-108.19 1335.65,-117.29 1342.51,-118.69"/>
</g>
<!-- INTF&#45;IF_T100_MESSAGE&#45;&gt;DTEL&#45;SYMSGID -->
<g id="edge37" class="edge">
<title>INTF&#45;IF_T100_MESSAGE&#45;&gt;DTEL&#45;SYMSGID</title>
<path fill="none" stroke="black" d="M1310.92,-215.86C1304.53,-195.63 1291.06,-162.43 1267.59,-144 1229.67,-114.21 1176.68,-101.06 1134.35,-95.3"/>
<polygon fill="black" stroke="black" points="1134.74,-91.83 1124.39,-94.06 1133.87,-98.77 1134.74,-91.83"/>
</g>
<!-- TABL&#45;SCX_T100KEY&#45;&gt;DTEL&#45;SCX_ATTRNAME -->
<g id="edge44" class="edge">
<title>TABL&#45;SCX_T100KEY&#45;&gt;DTEL&#45;SCX_ATTRNAME</title>
<path fill="none" stroke="black" d="M1457.19,-143.88C1473.16,-134.64 1493.05,-123.13 1510.2,-113.21"/>
<polygon fill="black" stroke="black" points="1511.97,-116.23 1518.88,-108.19 1508.47,-110.17 1511.97,-116.23"/>
</g>
<!-- TABL&#45;SCX_T100KEY&#45;&gt;DTEL&#45;SYMSGNO -->
<g id="edge43" class="edge">
<title>TABL&#45;SCX_T100KEY&#45;&gt;DTEL&#45;SYMSGNO</title>
<path fill="none" stroke="black" d="M1407.07,-143.7C1396.72,-134.97 1384,-124.24 1372.75,-114.75"/>
<polygon fill="black" stroke="black" points="1374.77,-111.88 1364.87,-108.1 1370.26,-117.23 1374.77,-111.88"/>
</g>
<!-- TABL&#45;SCX_T100KEY&#45;&gt;DTEL&#45;SYMSGID -->
<g id="edge42" class="edge">
<title>TABL&#45;SCX_T100KEY&#45;&gt;DTEL&#45;SYMSGID</title>
<path fill="none" stroke="black" d="M1352.82,-146.58C1288.82,-134.24 1197.38,-116.61 1134.75,-104.53"/>
<polygon fill="black" stroke="black" points="1135.05,-101.02 1124.57,-102.57 1133.72,-107.9 1135.05,-101.02"/>
</g>
<!-- DOMA&#45;SYMSGNO -->
<g id="node17" class="node">
<title>DOMA&#45;SYMSGNO</title>
<g id="a_node17"><a xlink:href="./DOMA_SYMSGNO.html" xlink:title="DOMA&#45;SYMSGNO">
<polygon fill="none" stroke="yellow" points="1410.45,-36 1278.73,-36 1278.73,0 1410.45,0 1410.45,-36"/>
<text text-anchor="middle" x="1344.59" y="-13.8" font-family="Times,serif" font-size="14.00">DOMA&#45;SYMSGNO</text>
</a>
</g>
</g>
<!-- DTEL&#45;SYMSGNO&#45;&gt;DOMA&#45;SYMSGNO -->
<g id="edge45" class="edge">
<title>DTEL&#45;SYMSGNO&#45;&gt;DOMA&#45;SYMSGNO</title>
<path fill="none" stroke="black" d="M1344.59,-71.7C1344.59,-63.98 1344.59,-54.71 1344.59,-46.11"/>
<polygon fill="black" stroke="black" points="1348.09,-46.1 1344.59,-36.1 1341.09,-46.1 1348.09,-46.1"/>
</g>
<!-- DOMA&#45;ARBGB -->
<g id="node19" class="node">
<title>DOMA&#45;ARBGB</title>
<g id="a_node19"><a xlink:href="./DOMA_ARBGB.html" xlink:title="DOMA&#45;ARBGB">
<polygon fill="none" stroke="yellow" points="1120.24,-36 1008.94,-36 1008.94,0 1120.24,0 1120.24,-36"/>
<text text-anchor="middle" x="1064.59" y="-13.8" font-family="Times,serif" font-size="14.00">DOMA&#45;ARBGB</text>
</a>
</g>
</g>
<!-- DTEL&#45;SYMSGID&#45;&gt;DOMA&#45;ARBGB -->
<g id="edge46" class="edge">
<title>DTEL&#45;SYMSGID&#45;&gt;DOMA&#45;ARBGB</title>
<path fill="none" stroke="black" d="M1064.59,-71.7C1064.59,-63.98 1064.59,-54.71 1064.59,-46.11"/>
<polygon fill="black" stroke="black" points="1068.09,-46.1 1064.59,-36.1 1061.09,-46.1 1068.09,-46.1"/>
</g>
<!-- DOMA&#45;SYCHAR01 -->
<g id="node21" class="node">
<title>DOMA&#45;SYCHAR01</title>
<g id="a_node21"><a xlink:href="./DOMA_SYCHAR01.html" xlink:title="DOMA&#45;SYCHAR01">
<polygon fill="none" stroke="yellow" points="876.79,-180 742.39,-180 742.39,-144 876.79,-144 876.79,-180"/>
<text text-anchor="middle" x="809.59" y="-157.8" font-family="Times,serif" font-size="14.00">DOMA&#45;SYCHAR01</text>
</a>
</g>
</g>
<!-- DTEL&#45;SYMSGTY&#45;&gt;DOMA&#45;SYCHAR01 -->
<g id="edge47" class="edge">
<title>DTEL&#45;SYMSGTY&#45;&gt;DOMA&#45;SYCHAR01</title>
<path fill="none" stroke="black" d="M813.35,-215.7C812.8,-207.98 812.14,-198.71 811.53,-190.11"/>
<polygon fill="black" stroke="black" points="815.02,-189.83 810.81,-180.1 808.03,-190.33 815.02,-189.83"/>
</g>
<!-- DOMA&#45;SYCHAR50 -->
<g id="node23" class="node">
<title>DOMA&#45;SYCHAR50</title>
<g id="a_node23"><a xlink:href="./DOMA_SYCHAR50.html" xlink:title="DOMA&#45;SYCHAR50">
<polygon fill="none" stroke="yellow" points="1104.79,-180 970.39,-180 970.39,-144 1104.79,-144 1104.79,-180"/>
<text text-anchor="middle" x="1037.59" y="-157.8" font-family="Times,serif" font-size="14.00">DOMA&#45;SYCHAR50</text>
</a>
</g>
</g>
<!-- DTEL&#45;SYMSGV&#45;&gt;DOMA&#45;SYCHAR50 -->
<g id="edge48" class="edge">
<title>DTEL&#45;SYMSGV&#45;&gt;DOMA&#45;SYCHAR50</title>
<path fill="none" stroke="black" d="M1033.83,-215.7C1034.38,-207.98 1035.04,-198.71 1035.65,-190.11"/>
<polygon fill="black" stroke="black" points="1039.15,-190.33 1036.37,-180.1 1032.16,-189.83 1039.15,-190.33"/>
</g>
<!-- INTF&#45;IF_XCO_MESSAGE_SHORT_TEXT&#45;&gt;INTF&#45;IF_XCO_TEXT -->
<g id="edge50" class="edge">
<title>INTF&#45;IF_XCO_MESSAGE_SHORT_TEXT&#45;&gt;INTF&#45;IF_XCO_TEXT</title>
<path fill="none" stroke="black" d="M373.19,-324.05C372.61,-350.71 371.59,-403.88 371.59,-449 371.59,-523 371.59,-523 371.59,-523 371.59,-563.1 367.57,-609.42 364.63,-637.96"/>
<polygon fill="black" stroke="black" points="361.14,-637.66 363.57,-647.98 368.1,-638.4 361.14,-637.66"/>
</g>
<!-- INTF&#45;IF_XCO_MESSAGE_SHORT_TEXT&#45;&gt;INTF&#45;IF_XCO_MESSAGE -->
<g id="edge49" class="edge">
<title>INTF&#45;IF_XCO_MESSAGE_SHORT_TEXT&#45;&gt;INTF&#45;IF_XCO_MESSAGE</title>
<path fill="none" stroke="black" d="M487.67,-324.06C559.93,-335.26 652.33,-349.84 720.97,-360.85"/>
<polygon fill="black" stroke="black" points="720.49,-364.32 730.92,-362.45 721.6,-357.41 720.49,-364.32"/>
</g>
<!-- INTF&#45;IF_XCO_L10N_TEXT -->
<g id="node25" class="node">
<title>INTF&#45;IF_XCO_L10N_TEXT</title>
<g id="a_node25"><a xlink:href="./INTF_IF_XCO_L10N_TEXT.html" xlink:title="INTF&#45;IF_XCO_L10N_TEXT">
<polygon fill="none" stroke="yellow" points="183.27,-252 -0.09,-252 -0.09,-216 183.27,-216 183.27,-252"/>
<text text-anchor="middle" x="91.59" y="-229.8" font-family="Times,serif" font-size="14.00">INTF&#45;IF_XCO_L10N_TEXT</text>
</a>
</g>
</g>
<!-- INTF&#45;IF_XCO_MESSAGE_SHORT_TEXT&#45;&gt;INTF&#45;IF_XCO_L10N_TEXT -->
<g id="edge51" class="edge">
<title>INTF&#45;IF_XCO_MESSAGE_SHORT_TEXT&#45;&gt;INTF&#45;IF_XCO_L10N_TEXT</title>
<path fill="none" stroke="black" d="M304.97,-287.97C264.28,-277.87 212.56,-265.03 170.23,-254.52"/>
<polygon fill="black" stroke="black" points="171.07,-251.12 160.52,-252.11 169.38,-257.92 171.07,-251.12"/>
</g>
<!-- INTF&#45;IF_XCO_L10N_TEXT&#45;&gt;INTF&#45;IF_XCO_TEXT -->
<g id="edge53" class="edge">
<title>INTF&#45;IF_XCO_L10N_TEXT&#45;&gt;INTF&#45;IF_XCO_TEXT</title>
<path fill="none" stroke="black" d="M99.89,-252.03C111.87,-278.23 132.59,-330.3 132.59,-377 132.59,-523 132.59,-523 132.59,-523 132.59,-594.42 214.03,-631.15 279.77,-649.18"/>
<polygon fill="black" stroke="black" points="279.2,-652.64 289.76,-651.81 280.98,-645.88 279.2,-652.64"/>
</g>
<!-- DTEL&#45;SPRAS -->
<g id="node26" class="node">
<title>DTEL&#45;SPRAS</title>
<g id="a_node26"><a xlink:href="./DTEL_SPRAS.html" xlink:title="DTEL&#45;SPRAS">
<polygon fill="none" stroke="green" points="141.31,-180 41.87,-180 41.87,-144 141.31,-144 141.31,-180"/>
<text text-anchor="middle" x="91.59" y="-157.8" font-family="Times,serif" font-size="14.00">DTEL&#45;SPRAS</text>
</a>
</g>
</g>
<!-- INTF&#45;IF_XCO_L10N_TEXT&#45;&gt;DTEL&#45;SPRAS -->
<g id="edge52" class="edge">
<title>INTF&#45;IF_XCO_L10N_TEXT&#45;&gt;DTEL&#45;SPRAS</title>
<path fill="none" stroke="black" d="M91.59,-215.7C91.59,-207.98 91.59,-198.71 91.59,-190.11"/>
<polygon fill="black" stroke="black" points="95.09,-190.1 91.59,-180.1 88.09,-190.1 95.09,-190.1"/>
</g>
<!-- DOMA&#45;SPRAS -->
<g id="node27" class="node">
<title>DOMA&#45;SPRAS</title>
<g id="a_node27"><a xlink:href="./DOMA_SPRAS.html" xlink:title="DOMA&#45;SPRAS">
<polygon fill="none" stroke="green" points="144.81,-108 38.37,-108 38.37,-72 144.81,-72 144.81,-108"/>
<text text-anchor="middle" x="91.59" y="-85.8" font-family="Times,serif" font-size="14.00">DOMA&#45;SPRAS</text>
</a>
</g>
</g>
<!-- DTEL&#45;SPRAS&#45;&gt;DOMA&#45;SPRAS -->
<g id="edge54" class="edge">
<title>DTEL&#45;SPRAS&#45;&gt;DOMA&#45;SPRAS</title>
<path fill="none" stroke="black" d="M91.59,-143.7C91.59,-135.98 91.59,-126.71 91.59,-118.11"/>
<polygon fill="black" stroke="black" points="95.09,-118.1 91.59,-108.1 88.09,-118.1 95.09,-118.1"/>
</g>
<!-- CLAS&#45;CL_XCO_MESSAGE_TYPE&#45;&gt;INTF&#45;IF_XCO_NEWS -->
<g id="edge57" class="edge">
<title>CLAS&#45;CL_XCO_MESSAGE_TYPE&#45;&gt;INTF&#45;IF_XCO_NEWS</title>
<path fill="none" stroke="black" d="M631.28,-324.1C621.33,-347.9 603.53,-392.56 592.59,-432 586.92,-452.43 582.51,-476.02 579.6,-493.78"/>
<polygon fill="black" stroke="black" points="576.13,-493.32 578.03,-503.75 583.04,-494.41 576.13,-493.32"/>
</g>
<!-- CLAS&#45;CL_XCO_MESSAGE_TYPE&#45;&gt;DTEL&#45;SYMSGTY -->
<g id="edge55" class="edge">
<title>CLAS&#45;CL_XCO_MESSAGE_TYPE&#45;&gt;DTEL&#45;SYMSGTY</title>
<path fill="none" stroke="black" d="M681.64,-287.88C705.92,-278.22 736.43,-266.09 762.1,-255.88"/>
<polygon fill="black" stroke="black" points="763.68,-259.02 771.68,-252.07 761.09,-252.51 763.68,-259.02"/>
</g>
<!-- CLAS&#45;CL_XCO_ENUM_CONSTANT -->
<g id="node29" class="node">
<title>CLAS&#45;CL_XCO_ENUM_CONSTANT</title>
<g id="a_node29"><a xlink:href="./CLAS_CL_XCO_ENUM_CONSTANT.html" xlink:title="CLAS&#45;CL_XCO_ENUM_CONSTANT">
<polygon fill="none" stroke="yellow" points="586.83,-252 346.35,-252 346.35,-216 586.83,-216 586.83,-252"/>
<text text-anchor="middle" x="466.59" y="-229.8" font-family="Times,serif" font-size="14.00">CLAS&#45;CL_XCO_ENUM_CONSTANT</text>
</a>
</g>
</g>
<!-- CLAS&#45;CL_XCO_MESSAGE_TYPE&#45;&gt;CLAS&#45;CL_XCO_ENUM_CONSTANT -->
<g id="edge56" class="edge">
<title>CLAS&#45;CL_XCO_MESSAGE_TYPE&#45;&gt;CLAS&#45;CL_XCO_ENUM_CONSTANT</title>
<path fill="none" stroke="black" d="M596.51,-287.88C572.79,-278.22 542.97,-266.09 517.89,-255.88"/>
<polygon fill="black" stroke="black" points="519.11,-252.6 508.53,-252.07 516.47,-259.08 519.11,-252.6"/>
</g>
<!-- INTF&#45;IF_XCO_PRINTABLE -->
<g id="node30" class="node">
<title>INTF&#45;IF_XCO_PRINTABLE</title>
<g id="a_node30"><a xlink:href="./INTF_IF_XCO_PRINTABLE.html" xlink:title="INTF&#45;IF_XCO_PRINTABLE">
<polygon fill="none" stroke="green" points="451.83,-180 267.35,-180 267.35,-144 451.83,-144 451.83,-180"/>
<text text-anchor="middle" x="359.59" y="-157.8" font-family="Times,serif" font-size="14.00">INTF&#45;IF_XCO_PRINTABLE</text>
</a>
</g>
</g>
<!-- CLAS&#45;CL_XCO_ENUM_CONSTANT&#45;&gt;INTF&#45;IF_XCO_PRINTABLE -->
<g id="edge58" class="edge">
<title>CLAS&#45;CL_XCO_ENUM_CONSTANT&#45;&gt;INTF&#45;IF_XCO_PRINTABLE</title>
<path fill="none" stroke="black" d="M440.41,-215.88C426.55,-206.81 409.35,-195.55 394.38,-185.76"/>
<polygon fill="black" stroke="black" points="396.15,-182.74 385.87,-180.19 392.32,-188.59 396.15,-182.74"/>
</g>
<!-- INTF&#45;IF_XCO_PRINTABLE&#45;&gt;INTF&#45;IF_XCO_TEXT -->
<g id="edge59" class="edge">
<title>INTF&#45;IF_XCO_PRINTABLE&#45;&gt;INTF&#45;IF_XCO_TEXT</title>
<path fill="none" stroke="black" d="M320.32,-180.01C276.47,-201.96 211.59,-244.64 211.59,-305 211.59,-523 211.59,-523 211.59,-523 211.59,-579.58 268.57,-620.35 312.29,-643.32"/>
<polygon fill="black" stroke="black" points="310.89,-646.53 321.39,-647.94 314.06,-640.29 310.89,-646.53"/>
</g>
<!-- TABL&#45;SYMSG&#45;&gt;DTEL&#45;SYMSGNO -->
<g id="edge62" class="edge">
<title>TABL&#45;SYMSG&#45;&gt;DTEL&#45;SYMSGNO</title>
<path fill="none" stroke="black" d="M906.5,-287.94C915.44,-250.44 938.41,-162.68 961.59,-144 985.26,-124.91 1167.34,-106.29 1271.69,-97.04"/>
<polygon fill="black" stroke="black" points="1272.2,-100.51 1281.85,-96.15 1271.58,-93.54 1272.2,-100.51"/>
</g>
<!-- TABL&#45;SYMSG&#45;&gt;DTEL&#45;SYMSGID -->
<g id="edge61" class="edge">
<title>TABL&#45;SYMSG&#45;&gt;DTEL&#45;SYMSGID</title>
<path fill="none" stroke="black" d="M900.25,-287.77C896.88,-255.7 894.42,-186.28 928.59,-144 945.11,-123.55 970.57,-110.98 995.02,-103.25"/>
<polygon fill="black" stroke="black" points="996.06,-106.59 1004.67,-100.42 994.09,-99.87 996.06,-106.59"/>
</g>
<!-- TABL&#45;SYMSG&#45;&gt;DTEL&#45;SYMSGTY -->
<g id="edge60" class="edge">
<title>TABL&#45;SYMSG&#45;&gt;DTEL&#45;SYMSGTY</title>
<path fill="none" stroke="black" d="M880.84,-287.7C869.75,-278.88 856.12,-268.03 844.1,-258.47"/>
<polygon fill="black" stroke="black" points="846.1,-255.59 836.09,-252.1 841.74,-261.07 846.1,-255.59"/>
</g>
<!-- TABL&#45;SYMSG&#45;&gt;DTEL&#45;SYMSGV -->
<g id="edge63" class="edge">
<title>TABL&#45;SYMSG&#45;&gt;DTEL&#45;SYMSGV</title>
<path fill="none" stroke="black" d="M934.39,-287.88C951.7,-278.55 973.31,-266.92 991.85,-256.94"/>
<polygon fill="black" stroke="black" points="993.52,-260.01 1000.67,-252.19 990.2,-253.85 993.52,-260.01"/>
</g>
<!-- DOMA&#45;INT4 -->
<g id="node34" class="node">
<title>DOMA&#45;INT4</title>
<g id="a_node34"><a xlink:href="./DOMA_INT4.html" xlink:title="DOMA&#45;INT4">
<polygon fill="none" stroke="yellow" points="939.33,-468 845.84,-468 845.84,-432 939.33,-432 939.33,-468"/>
<text text-anchor="middle" x="892.59" y="-445.8" font-family="Times,serif" font-size="14.00">DOMA&#45;INT4</text>
</a>
</g>
</g>
<!-- DTEL&#45;INT4&#45;&gt;DOMA&#45;INT4 -->
<g id="edge66" class="edge">
<title>DTEL&#45;INT4&#45;&gt;DOMA&#45;INT4</title>
<path fill="none" stroke="black" d="M891.08,-503.7C891.3,-495.98 891.57,-486.71 891.82,-478.11"/>
<polygon fill="black" stroke="black" points="895.31,-478.2 892.1,-468.1 888.32,-478 895.31,-478.2"/>
</g>
<!-- INTF&#45;IF_XCO_XSTRING&#45;&gt;INTF&#45;IF_XCO_STRING -->
<g id="edge68" class="edge">
<title>INTF&#45;IF_XCO_XSTRING&#45;&gt;INTF&#45;IF_XCO_STRING</title>
<path fill="none" stroke="black" d="M1263.24,-683.33C1261.68,-683.56 1260.13,-683.78 1258.59,-684 1116.05,-704.05 949.26,-720.64 849.08,-729.65"/>
<polygon fill="black" stroke="black" points="848.65,-726.18 839,-730.55 849.27,-733.15 848.65,-726.18"/>
</g>
<!-- INTF&#45;IF_XCO_XSTRING_STRING_CNVRSN -->
<g id="node36" class="node">
<title>INTF&#45;IF_XCO_XSTRING_STRING_CNVRSN</title>
<g id="a_node36"><a xlink:href="./INTF_IF_XCO_XSTRING_STRING_CNVRSN.html" xlink:title="INTF&#45;IF_XCO_XSTRING_STRING_CNVRSN">
<polygon fill="none" stroke="green" points="1492.32,-612 1202.86,-612 1202.86,-576 1492.32,-576 1492.32,-612"/>
<text text-anchor="middle" x="1347.59" y="-589.8" font-family="Times,serif" font-size="14.00">INTF&#45;IF_XCO_XSTRING_STRING_CNVRSN</text>
</a>
</g>
</g>
<!-- INTF&#45;IF_XCO_XSTRING&#45;&gt;INTF&#45;IF_XCO_XSTRING_STRING_CNVRSN -->
<g id="edge67" class="edge">
<title>INTF&#45;IF_XCO_XSTRING&#45;&gt;INTF&#45;IF_XCO_XSTRING_STRING_CNVRSN</title>
<path fill="none" stroke="black" d="M1347.59,-647.7C1347.59,-639.98 1347.59,-630.71 1347.59,-622.11"/>
<polygon fill="black" stroke="black" points="1351.09,-622.1 1347.59,-612.1 1344.09,-622.1 1351.09,-622.1"/>
</g>
<!-- INTF&#45;IF_XCO_STRING_DECOMPOSITION&#45;&gt;INTF&#45;IF_XCO_STRING -->
<g id="edge69" class="edge">
<title>INTF&#45;IF_XCO_STRING_DECOMPOSITION&#45;&gt;INTF&#45;IF_XCO_STRING</title>
<path fill="none" stroke="black" d="M765.48,-684.1C766.29,-691.79 766.53,-701.05 766.19,-709.67"/>
<polygon fill="black" stroke="black" points="762.7,-709.48 765.51,-719.7 769.68,-709.96 762.7,-709.48"/>
</g>
<!-- INTF&#45;IF_XCO_STRING_DECOMPOSITION&#45;&gt;INTF&#45;IF_XCO_STRINGS -->
<g id="edge70" class="edge">
<title>INTF&#45;IF_XCO_STRING_DECOMPOSITION&#45;&gt;INTF&#45;IF_XCO_STRINGS</title>
<path fill="none" stroke="black" d="M715.8,-647.88C691,-638.18 659.81,-625.98 633.63,-615.74"/>
<polygon fill="black" stroke="black" points="634.82,-612.45 624.24,-612.07 632.27,-618.97 634.82,-612.45"/>
</g>
</g>
</svg>
