<?xml version="1.0" encoding="UTF-8" standalone="no"?>
<!DOCTYPE svg PUBLIC "-//W3C//DTD SVG 1.1//EN"
 "http://www.w3.org/Graphics/SVG/1.1/DTD/svg11.dtd">
<!-- Generated by graphviz version 2.47.3 (20210619.1520)
 -->
<!-- Title: G Pages: 1 -->
<svg width="1028pt" height="260pt"
 viewBox="0.00 0.00 1028.48 260.00" xmlns="http://www.w3.org/2000/svg" xmlns:xlink="http://www.w3.org/1999/xlink">
<g id="graph0" class="graph" transform="scale(1 1) rotate(0) translate(4 256)">
<title>G</title>
<polygon fill="white" stroke="transparent" points="-4,4 -4,-256 1024.48,-256 1024.48,4 -4,4"/>
<!-- INTF&#45;IF_BALI_MESSAGE_GETTER -->
<g id="node1" class="node">
<title>INTF&#45;IF_BALI_MESSAGE_GETTER</title>
<polygon fill="none" stroke="green" points="823.44,-252 586.76,-252 586.76,-216 823.44,-216 823.44,-252"/>
<text text-anchor="middle" x="705.1" y="-229.8" font-family="Times,serif" font-size="14.00">INTF&#45;IF_BALI_MESSAGE_GETTER</text>
</g>
<!-- INTF&#45;IF_BALI_ITEM_GETTER -->
<g id="node2" class="node">
<title>INTF&#45;IF_BALI_ITEM_GETTER</title>
<g id="a_node2"><a xlink:href="./INTF_IF_BALI_ITEM_GETTER.html" xlink:title="INTF&#45;IF_BALI_ITEM_GETTER">
<polygon fill="none" stroke="green" points="462.83,-180 257.37,-180 257.37,-144 462.83,-144 462.83,-180"/>
<text text-anchor="middle" x="360.1" y="-157.8" font-family="Times,serif" font-size="14.00">INTF&#45;IF_BALI_ITEM_GETTER</text>
</a>
</g>
</g>
<!-- INTF&#45;IF_BALI_MESSAGE_GETTER&#45;&gt;INTF&#45;IF_BALI_ITEM_GETTER -->
<g id="edge4" class="edge">
<title>INTF&#45;IF_BALI_MESSAGE_GETTER&#45;&gt;INTF&#45;IF_BALI_ITEM_GETTER</title>
<path fill="none" stroke="black" d="M621.14,-215.97C570.65,-205.72 506.26,-192.66 454.07,-182.07"/>
<polygon fill="black" stroke="black" points="454.63,-178.61 444.13,-180.05 453.24,-185.47 454.63,-178.61"/>
</g>
<!-- DTEL&#45;SYST_MSGV -->
<g id="node11" class="node">
<title>DTEL&#45;SYST_MSGV</title>
<g id="a_node11"><a xlink:href="./DTEL_SYST_MSGV.html" xlink:title="DTEL&#45;SYST_MSGV">
<polygon fill="none" stroke="yellow" points="694.19,-180 556.01,-180 556.01,-144 694.19,-144 694.19,-180"/>
<text text-anchor="middle" x="625.1" y="-157.8" font-family="Times,serif" font-size="14.00">DTEL&#45;SYST_MSGV</text>
</a>
</g>
</g>
<!-- INTF&#45;IF_BALI_MESSAGE_GETTER&#45;&gt;DTEL&#45;SYST_MSGV -->
<g id="edge3" class="edge">
<title>INTF&#45;IF_BALI_MESSAGE_GETTER&#45;&gt;DTEL&#45;SYST_MSGV</title>
<path fill="none" stroke="black" d="M685.33,-215.7C675.35,-206.97 663.09,-196.24 652.24,-186.75"/>
<polygon fill="black" stroke="black" points="654.48,-184.06 644.65,-180.1 649.87,-189.32 654.48,-184.06"/>
</g>
<!-- DTEL&#45;SYST_MSGNO -->
<g id="node13" class="node">
<title>DTEL&#45;SYST_MSGNO</title>
<g id="a_node13"><a xlink:href="./DTEL_SYST_MSGNO.html" xlink:title="DTEL&#45;SYST_MSGNO">
<polygon fill="none" stroke="yellow" points="860.3,-180 711.9,-180 711.9,-144 860.3,-144 860.3,-180"/>
<text text-anchor="middle" x="786.1" y="-157.8" font-family="Times,serif" font-size="14.00">DTEL&#45;SYST_MSGNO</text>
</a>
</g>
</g>
<!-- INTF&#45;IF_BALI_MESSAGE_GETTER&#45;&gt;DTEL&#45;SYST_MSGNO -->
<g id="edge2" class="edge">
<title>INTF&#45;IF_BALI_MESSAGE_GETTER&#45;&gt;DTEL&#45;SYST_MSGNO</title>
<path fill="none" stroke="black" d="M725.12,-215.7C735.23,-206.97 747.64,-196.24 758.62,-186.75"/>
<polygon fill="black" stroke="black" points="761.03,-189.29 766.31,-180.1 756.45,-183.99 761.03,-189.29"/>
</g>
<!-- DTEL&#45;SYST_MSGID -->
<g id="node15" class="node">
<title>DTEL&#45;SYST_MSGID</title>
<g id="a_node15"><a xlink:href="./DTEL_SYST_MSGID.html" xlink:title="DTEL&#45;SYST_MSGID">
<polygon fill="none" stroke="yellow" points="1020.35,-180 877.85,-180 877.85,-144 1020.35,-144 1020.35,-180"/>
<text text-anchor="middle" x="949.1" y="-157.8" font-family="Times,serif" font-size="14.00">DTEL&#45;SYST_MSGID</text>
</a>
</g>
</g>
<!-- INTF&#45;IF_BALI_MESSAGE_GETTER&#45;&gt;DTEL&#45;SYST_MSGID -->
<g id="edge1" class="edge">
<title>INTF&#45;IF_BALI_MESSAGE_GETTER&#45;&gt;DTEL&#45;SYST_MSGID</title>
<path fill="none" stroke="black" d="M764.48,-215.97C799.16,-206.01 843.11,-193.41 879.43,-182.99"/>
<polygon fill="black" stroke="black" points="880.81,-186.23 889.46,-180.11 878.88,-179.5 880.81,-186.23"/>
</g>
<!-- DTEL&#45;SYMSGTY -->
<g id="node3" class="node">
<title>DTEL&#45;SYMSGTY</title>
<g id="a_node3"><a xlink:href="./DTEL_SYMSGTY.html" xlink:title="DTEL&#45;SYMSGTY">
<polygon fill="none" stroke="green" points="135.91,-108 12.29,-108 12.29,-72 135.91,-72 135.91,-108"/>
<text text-anchor="middle" x="74.1" y="-85.8" font-family="Times,serif" font-size="14.00">DTEL&#45;SYMSGTY</text>
</a>
</g>
</g>
<!-- INTF&#45;IF_BALI_ITEM_GETTER&#45;&gt;DTEL&#45;SYMSGTY -->
<g id="edge8" class="edge">
<title>INTF&#45;IF_BALI_ITEM_GETTER&#45;&gt;DTEL&#45;SYMSGTY</title>
<path fill="none" stroke="black" d="M290.5,-143.97C246.69,-133.24 190.27,-119.43 146.03,-108.6"/>
<polygon fill="black" stroke="black" points="146.75,-105.18 136.21,-106.2 145.09,-111.98 146.75,-105.18"/>
</g>
<!-- DTEL&#45;BALMNR -->
<g id="node5" class="node">
<title>DTEL&#45;BALMNR</title>
<g id="a_node5"><a xlink:href="./DTEL_BALMNR.html" xlink:title="DTEL&#45;BALMNR">
<polygon fill="none" stroke="green" points="274.41,-108 157.79,-108 157.79,-72 274.41,-72 274.41,-108"/>
<text text-anchor="middle" x="216.1" y="-85.8" font-family="Times,serif" font-size="14.00">DTEL&#45;BALMNR</text>
</a>
</g>
</g>
<!-- INTF&#45;IF_BALI_ITEM_GETTER&#45;&gt;DTEL&#45;BALMNR -->
<g id="edge7" class="edge">
<title>INTF&#45;IF_BALI_ITEM_GETTER&#45;&gt;DTEL&#45;BALMNR</title>
<path fill="none" stroke="black" d="M324.87,-143.88C305.52,-134.47 281.33,-122.71 260.67,-112.67"/>
<polygon fill="black" stroke="black" points="261.99,-109.41 251.46,-108.19 258.93,-115.71 261.99,-109.41"/>
</g>
<!-- DTEL&#45;BALLEVEL -->
<g id="node7" class="node">
<title>DTEL&#45;BALLEVEL</title>
<g id="a_node7"><a xlink:href="./DTEL_BALLEVEL.html" xlink:title="DTEL&#45;BALLEVEL">
<polygon fill="none" stroke="green" points="424.34,-108 295.86,-108 295.86,-72 424.34,-72 424.34,-108"/>
<text text-anchor="middle" x="360.1" y="-85.8" font-family="Times,serif" font-size="14.00">DTEL&#45;BALLEVEL</text>
</a>
</g>
</g>
<!-- INTF&#45;IF_BALI_ITEM_GETTER&#45;&gt;DTEL&#45;BALLEVEL -->
<g id="edge6" class="edge">
<title>INTF&#45;IF_BALI_ITEM_GETTER&#45;&gt;DTEL&#45;BALLEVEL</title>
<path fill="none" stroke="black" d="M360.1,-143.7C360.1,-135.98 360.1,-126.71 360.1,-118.11"/>
<polygon fill="black" stroke="black" points="363.6,-118.1 360.1,-108.1 356.6,-118.1 363.6,-118.1"/>
</g>
<!-- DTEL&#45;CHAR1 -->
<g id="node9" class="node">
<title>DTEL&#45;CHAR1</title>
<g id="a_node9"><a xlink:href="./DTEL_CHAR1.html" xlink:title="DTEL&#45;CHAR1">
<polygon fill="none" stroke="yellow" points="545.41,-108 442.79,-108 442.79,-72 545.41,-72 545.41,-108"/>
<text text-anchor="middle" x="494.1" y="-85.8" font-family="Times,serif" font-size="14.00">DTEL&#45;CHAR1</text>
</a>
</g>
</g>
<!-- INTF&#45;IF_BALI_ITEM_GETTER&#45;&gt;DTEL&#45;CHAR1 -->
<g id="edge5" class="edge">
<title>INTF&#45;IF_BALI_ITEM_GETTER&#45;&gt;DTEL&#45;CHAR1</title>
<path fill="none" stroke="black" d="M392.88,-143.88C410.73,-134.55 433,-122.92 452.1,-112.94"/>
<polygon fill="black" stroke="black" points="453.95,-115.92 461.19,-108.19 450.71,-109.72 453.95,-115.92"/>
</g>
<!-- DOMA&#45;SYCHAR01 -->
<g id="node4" class="node">
<title>DOMA&#45;SYCHAR01</title>
<g id="a_node4"><a xlink:href="./DOMA_SYCHAR01.html" xlink:title="DOMA&#45;SYCHAR01">
<polygon fill="none" stroke="yellow" points="134.3,-36 -0.1,-36 -0.1,0 134.3,0 134.3,-36"/>
<text text-anchor="middle" x="67.1" y="-13.8" font-family="Times,serif" font-size="14.00">DOMA&#45;SYCHAR01</text>
</a>
</g>
</g>
<!-- DTEL&#45;SYMSGTY&#45;&gt;DOMA&#45;SYCHAR01 -->
<g id="edge9" class="edge">
<title>DTEL&#45;SYMSGTY&#45;&gt;DOMA&#45;SYCHAR01</title>
<path fill="none" stroke="black" d="M72.37,-71.7C71.6,-63.98 70.67,-54.71 69.81,-46.11"/>
<polygon fill="black" stroke="black" points="73.29,-45.71 68.81,-36.1 66.32,-46.4 73.29,-45.71"/>
</g>
<!-- DOMA&#45;BALMNR -->
<g id="node6" class="node">
<title>DOMA&#45;BALMNR</title>
<g id="a_node6"><a xlink:href="./DOMA_BALMNR.html" xlink:title="DOMA&#45;BALMNR">
<polygon fill="none" stroke="yellow" points="275.91,-36 152.29,-36 152.29,0 275.91,0 275.91,-36"/>
<text text-anchor="middle" x="214.1" y="-13.8" font-family="Times,serif" font-size="14.00">DOMA&#45;BALMNR</text>
</a>
</g>
</g>
<!-- DTEL&#45;BALMNR&#45;&gt;DOMA&#45;BALMNR -->
<g id="edge10" class="edge">
<title>DTEL&#45;BALMNR&#45;&gt;DOMA&#45;BALMNR</title>
<path fill="none" stroke="black" d="M215.61,-71.7C215.39,-63.98 215.12,-54.71 214.87,-46.11"/>
<polygon fill="black" stroke="black" points="218.37,-46 214.59,-36.1 211.38,-46.2 218.37,-46"/>
</g>
<!-- DOMA&#45;BALLEVEL -->
<g id="node8" class="node">
<title>DOMA&#45;BALLEVEL</title>
<g id="a_node8"><a xlink:href="./DOMA_BALLEVEL.html" xlink:title="DOMA&#45;BALLEVEL">
<polygon fill="none" stroke="yellow" points="429.84,-36 294.36,-36 294.36,0 429.84,0 429.84,-36"/>
<text text-anchor="middle" x="362.1" y="-13.8" font-family="Times,serif" font-size="14.00">DOMA&#45;BALLEVEL</text>
</a>
</g>
</g>
<!-- DTEL&#45;BALLEVEL&#45;&gt;DOMA&#45;BALLEVEL -->
<g id="edge11" class="edge">
<title>DTEL&#45;BALLEVEL&#45;&gt;DOMA&#45;BALLEVEL</title>
<path fill="none" stroke="black" d="M360.59,-71.7C360.82,-63.98 361.08,-54.71 361.33,-46.11"/>
<polygon fill="black" stroke="black" points="364.82,-46.2 361.61,-36.1 357.83,-46 364.82,-46.2"/>
</g>
<!-- DOMA&#45;CHAR1 -->
<g id="node10" class="node">
<title>DOMA&#45;CHAR1</title>
<g id="a_node10"><a xlink:href="./DOMA_CHAR1.html" xlink:title="DOMA&#45;CHAR1">
<polygon fill="none" stroke="green" points="557.91,-36 448.29,-36 448.29,0 557.91,0 557.91,-36"/>
<text text-anchor="middle" x="503.1" y="-13.8" font-family="Times,serif" font-size="14.00">DOMA&#45;CHAR1</text>
</a>
</g>
</g>
<!-- DTEL&#45;CHAR1&#45;&gt;DOMA&#45;CHAR1 -->
<g id="edge12" class="edge">
<title>DTEL&#45;CHAR1&#45;&gt;DOMA&#45;CHAR1</title>
<path fill="none" stroke="black" d="M496.33,-71.7C497.32,-63.98 498.51,-54.71 499.61,-46.11"/>
<polygon fill="black" stroke="black" points="503.1,-46.47 500.9,-36.1 496.15,-45.58 503.1,-46.47"/>
</g>
<!-- DOMA&#45;SYCHAR50 -->
<g id="node12" class="node">
<title>DOMA&#45;SYCHAR50</title>
<g id="a_node12"><a xlink:href="./DOMA_SYCHAR50.html" xlink:title="DOMA&#45;SYCHAR50">
<polygon fill="none" stroke="yellow" points="697.3,-108 562.9,-108 562.9,-72 697.3,-72 697.3,-108"/>
<text text-anchor="middle" x="630.1" y="-85.8" font-family="Times,serif" font-size="14.00">DOMA&#45;SYCHAR50</text>
</a>
</g>
</g>
<!-- DTEL&#45;SYST_MSGV&#45;&gt;DOMA&#45;SYCHAR50 -->
<g id="edge13" class="edge">
<title>DTEL&#45;SYST_MSGV&#45;&gt;DOMA&#45;SYCHAR50</title>
<path fill="none" stroke="black" d="M626.34,-143.7C626.89,-135.98 627.55,-126.71 628.16,-118.11"/>
<polygon fill="black" stroke="black" points="631.66,-118.33 628.88,-108.1 624.67,-117.83 631.66,-118.33"/>
</g>
<!-- DOMA&#45;SYMSGNO -->
<g id="node14" class="node">
<title>DOMA&#45;SYMSGNO</title>
<g id="a_node14"><a xlink:href="./DOMA_SYMSGNO.html" xlink:title="DOMA&#45;SYMSGNO">
<polygon fill="none" stroke="yellow" points="851.96,-108 720.24,-108 720.24,-72 851.96,-72 851.96,-108"/>
<text text-anchor="middle" x="786.1" y="-85.8" font-family="Times,serif" font-size="14.00">DOMA&#45;SYMSGNO</text>
</a>
</g>
</g>
<!-- DTEL&#45;SYST_MSGNO&#45;&gt;DOMA&#45;SYMSGNO -->
<g id="edge14" class="edge">
<title>DTEL&#45;SYST_MSGNO&#45;&gt;DOMA&#45;SYMSGNO</title>
<path fill="none" stroke="black" d="M786.1,-143.7C786.1,-135.98 786.1,-126.71 786.1,-118.11"/>
<polygon fill="black" stroke="black" points="789.6,-118.1 786.1,-108.1 782.6,-118.1 789.6,-118.1"/>
</g>
<!-- DOMA&#45;ARBGB -->
<g id="node16" class="node">
<title>DOMA&#45;ARBGB</title>
<g id="a_node16"><a xlink:href="./DOMA_ARBGB.html" xlink:title="DOMA&#45;ARBGB">
<polygon fill="none" stroke="yellow" points="1004.75,-108 893.45,-108 893.45,-72 1004.75,-72 1004.75,-108"/>
<text text-anchor="middle" x="949.1" y="-85.8" font-family="Times,serif" font-size="14.00">DOMA&#45;ARBGB</text>
</a>
</g>
</g>
<!-- DTEL&#45;SYST_MSGID&#45;&gt;DOMA&#45;ARBGB -->
<g id="edge15" class="edge">
<title>DTEL&#45;SYST_MSGID&#45;&gt;DOMA&#45;ARBGB</title>
<path fill="none" stroke="black" d="M949.1,-143.7C949.1,-135.98 949.1,-126.71 949.1,-118.11"/>
<polygon fill="black" stroke="black" points="952.6,-118.1 949.1,-108.1 945.6,-118.1 952.6,-118.1"/>
</g>
</g>
</svg>
