<?xml version="1.0" encoding="UTF-8" standalone="no"?>
<!DOCTYPE svg PUBLIC "-//W3C//DTD SVG 1.1//EN"
 "http://www.w3.org/Graphics/SVG/1.1/DTD/svg11.dtd">
<!-- Generated by graphviz version 2.47.3 (20210619.1520)
 -->
<!-- Title: G Pages: 1 -->
<svg width="320pt" height="188pt"
 viewBox="0.00 0.00 319.52 188.00" xmlns="http://www.w3.org/2000/svg" xmlns:xlink="http://www.w3.org/1999/xlink">
<g id="graph0" class="graph" transform="scale(1 1) rotate(0) translate(4 184)">
<title>G</title>
<polygon fill="white" stroke="transparent" points="-4,4 -4,-184 315.52,-184 315.52,4 -4,4"/>
<!-- INTF&#45;IF_XCO_GEN_CLAS_S_FO_D_C_M_AMD -->
<g id="node1" class="node">
<title>INTF&#45;IF_XCO_GEN_CLAS_S_FO_D_C_M_AMD</title>
<polygon fill="none" stroke="green" points="311.28,-180 0.24,-180 0.24,-144 311.28,-144 311.28,-180"/>
<text text-anchor="middle" x="155.76" y="-157.8" font-family="Times,serif" font-size="14.00">INTF&#45;IF_XCO_GEN_CLAS_S_FO_D_C_M_AMD</text>
</g>
<!-- DTEL&#45;SXCO_CDS_OBJECT_NAME -->
<g id="node2" class="node">
<title>DTEL&#45;SXCO_CDS_OBJECT_NAME</title>
<g id="a_node2"><a xlink:href="./DTEL_SXCO_CDS_OBJECT_NAME.html" xlink:title="DTEL&#45;SXCO_CDS_OBJECT_NAME">
<polygon fill="none" stroke="green" points="272.78,-108 38.74,-108 38.74,-72 272.78,-72 272.78,-108"/>
<text text-anchor="middle" x="155.76" y="-85.8" font-family="Times,serif" font-size="14.00">DTEL&#45;SXCO_CDS_OBJECT_NAME</text>
</a>
</g>
</g>
<!-- INTF&#45;IF_XCO_GEN_CLAS_S_FO_D_C_M_AMD&#45;&gt;DTEL&#45;SXCO_CDS_OBJECT_NAME -->
<g id="edge1" class="edge">
<title>INTF&#45;IF_XCO_GEN_CLAS_S_FO_D_C_M_AMD&#45;&gt;DTEL&#45;SXCO_CDS_OBJECT_NAME</title>
<path fill="none" stroke="black" d="M155.76,-143.7C155.76,-135.98 155.76,-126.71 155.76,-118.11"/>
<polygon fill="black" stroke="black" points="159.26,-118.1 155.76,-108.1 152.26,-118.1 159.26,-118.1"/>
</g>
<!-- DOMA&#45;CHAR30 -->
<g id="node3" class="node">
<title>DOMA&#45;CHAR30</title>
<g id="a_node3"><a xlink:href="./DOMA_CHAR30.html" xlink:title="DOMA&#45;CHAR30">
<polygon fill="none" stroke="green" points="214.07,-36 97.45,-36 97.45,0 214.07,0 214.07,-36"/>
<text text-anchor="middle" x="155.76" y="-13.8" font-family="Times,serif" font-size="14.00">DOMA&#45;CHAR30</text>
</a>
</g>
</g>
<!-- DTEL&#45;SXCO_CDS_OBJECT_NAME&#45;&gt;DOMA&#45;CHAR30 -->
<g id="edge2" class="edge">
<title>DTEL&#45;SXCO_CDS_OBJECT_NAME&#45;&gt;DOMA&#45;CHAR30</title>
<path fill="none" stroke="black" d="M155.76,-71.7C155.76,-63.98 155.76,-54.71 155.76,-46.11"/>
<polygon fill="black" stroke="black" points="159.26,-46.1 155.76,-36.1 152.26,-46.1 159.26,-46.1"/>
</g>
</g>
</svg>
