<?xml version="1.0" encoding="UTF-8" standalone="no"?>
<!DOCTYPE svg PUBLIC "-//W3C//DTD SVG 1.1//EN"
 "http://www.w3.org/Graphics/SVG/1.1/DTD/svg11.dtd">
<!-- Generated by graphviz version 2.47.3 (20210619.1520)
 -->
<!-- Title: G Pages: 1 -->
<svg width="381pt" height="332pt"
 viewBox="0.00 0.00 381.42 332.00" xmlns="http://www.w3.org/2000/svg" xmlns:xlink="http://www.w3.org/1999/xlink">
<g id="graph0" class="graph" transform="scale(1 1) rotate(0) translate(4 328)">
<title>G</title>
<polygon fill="white" stroke="transparent" points="-4,4 -4,-328 377.42,-328 377.42,4 -4,4"/>
<!-- INTF&#45;IF_XCO_CP_GEN_MSAG_S_MODIFY -->
<g id="node1" class="node">
<title>INTF&#45;IF_XCO_CP_GEN_MSAG_S_MODIFY</title>
<polygon fill="none" stroke="green" points="373.45,-324 88.3,-324 88.3,-288 373.45,-288 373.45,-324"/>
<text text-anchor="middle" x="230.87" y="-301.8" font-family="Times,serif" font-size="14.00">INTF&#45;IF_XCO_CP_GEN_MSAG_S_MODIFY</text>
</g>
<!-- INTF&#45;IF_XCO_CP_GEN_MSAG_S_MO_MSG -->
<g id="node2" class="node">
<title>INTF&#45;IF_XCO_CP_GEN_MSAG_S_MO_MSG</title>
<g id="a_node2"><a xlink:href="./INTF_IF_XCO_CP_GEN_MSAG_S_MO_MSG.html" xlink:title="INTF&#45;IF_XCO_CP_GEN_MSAG_S_MO_MSG">
<polygon fill="none" stroke="green" points="289.62,-252 0.13,-252 0.13,-216 289.62,-216 289.62,-252"/>
<text text-anchor="middle" x="144.87" y="-229.8" font-family="Times,serif" font-size="14.00">INTF&#45;IF_XCO_CP_GEN_MSAG_S_MO_MSG</text>
</a>
</g>
</g>
<!-- INTF&#45;IF_XCO_CP_GEN_MSAG_S_MODIFY&#45;&gt;INTF&#45;IF_XCO_CP_GEN_MSAG_S_MO_MSG -->
<g id="edge2" class="edge">
<title>INTF&#45;IF_XCO_CP_GEN_MSAG_S_MODIFY&#45;&gt;INTF&#45;IF_XCO_CP_GEN_MSAG_S_MO_MSG</title>
<path fill="none" stroke="black" d="M209.62,-287.7C198.79,-278.88 185.46,-268.03 173.71,-258.47"/>
<polygon fill="black" stroke="black" points="175.85,-255.7 165.89,-252.1 171.43,-261.13 175.85,-255.7"/>
</g>
<!-- INTF&#45;IF_XCO_CP_GEN_MSAG_S_FO_MSG -->
<g id="node3" class="node">
<title>INTF&#45;IF_XCO_CP_GEN_MSAG_S_FO_MSG</title>
<g id="a_node3"><a xlink:href="./INTF_IF_XCO_CP_GEN_MSAG_S_FO_MSG.html" xlink:title="INTF&#45;IF_XCO_CP_GEN_MSAG_S_FO_MSG">
<polygon fill="none" stroke="green" points="373.46,-180 88.29,-180 88.29,-144 373.46,-144 373.46,-180"/>
<text text-anchor="middle" x="230.87" y="-157.8" font-family="Times,serif" font-size="14.00">INTF&#45;IF_XCO_CP_GEN_MSAG_S_FO_MSG</text>
</a>
</g>
</g>
<!-- INTF&#45;IF_XCO_CP_GEN_MSAG_S_MODIFY&#45;&gt;INTF&#45;IF_XCO_CP_GEN_MSAG_S_FO_MSG -->
<g id="edge1" class="edge">
<title>INTF&#45;IF_XCO_CP_GEN_MSAG_S_MODIFY&#45;&gt;INTF&#45;IF_XCO_CP_GEN_MSAG_S_FO_MSG</title>
<path fill="none" stroke="black" d="M264.23,-287.86C277.58,-279.09 291.52,-267.06 298.87,-252 305.9,-237.62 305.9,-230.38 298.87,-216 293.07,-204.11 283.17,-194.12 272.69,-186.12"/>
<polygon fill="black" stroke="black" points="274.42,-183.06 264.23,-180.14 270.38,-188.78 274.42,-183.06"/>
</g>
<!-- INTF&#45;IF_XCO_CP_GEN_MSAG_S_MO_MSG&#45;&gt;INTF&#45;IF_XCO_CP_GEN_MSAG_S_FO_MSG -->
<g id="edge3" class="edge">
<title>INTF&#45;IF_XCO_CP_GEN_MSAG_S_MO_MSG&#45;&gt;INTF&#45;IF_XCO_CP_GEN_MSAG_S_FO_MSG</title>
<path fill="none" stroke="black" d="M166.13,-215.7C176.96,-206.88 190.29,-196.03 202.03,-186.47"/>
<polygon fill="black" stroke="black" points="204.31,-189.13 209.86,-180.1 199.9,-183.7 204.31,-189.13"/>
</g>
<!-- DTEL&#45;NATXT -->
<g id="node4" class="node">
<title>DTEL&#45;NATXT</title>
<g id="a_node4"><a xlink:href="./DTEL_NATXT.html" xlink:title="DTEL&#45;NATXT">
<polygon fill="none" stroke="yellow" points="216.72,-108 113.02,-108 113.02,-72 216.72,-72 216.72,-108"/>
<text text-anchor="middle" x="164.87" y="-85.8" font-family="Times,serif" font-size="14.00">DTEL&#45;NATXT</text>
</a>
</g>
</g>
<!-- INTF&#45;IF_XCO_CP_GEN_MSAG_S_FO_MSG&#45;&gt;DTEL&#45;NATXT -->
<g id="edge5" class="edge">
<title>INTF&#45;IF_XCO_CP_GEN_MSAG_S_FO_MSG&#45;&gt;DTEL&#45;NATXT</title>
<path fill="none" stroke="black" d="M214.56,-143.7C206.57,-135.22 196.8,-124.86 188.05,-115.58"/>
<polygon fill="black" stroke="black" points="190.41,-112.98 181,-108.1 185.32,-117.78 190.41,-112.98"/>
</g>
<!-- DTEL&#45;SYMSGNO -->
<g id="node6" class="node">
<title>DTEL&#45;SYMSGNO</title>
<g id="a_node6"><a xlink:href="./DTEL_SYMSGNO.html" xlink:title="DTEL&#45;SYMSGNO">
<polygon fill="none" stroke="green" points="361.24,-108 236.51,-108 236.51,-72 361.24,-72 361.24,-108"/>
<text text-anchor="middle" x="298.87" y="-85.8" font-family="Times,serif" font-size="14.00">DTEL&#45;SYMSGNO</text>
</a>
</g>
</g>
<!-- INTF&#45;IF_XCO_CP_GEN_MSAG_S_FO_MSG&#45;&gt;DTEL&#45;SYMSGNO -->
<g id="edge4" class="edge">
<title>INTF&#45;IF_XCO_CP_GEN_MSAG_S_FO_MSG&#45;&gt;DTEL&#45;SYMSGNO</title>
<path fill="none" stroke="black" d="M247.68,-143.7C256,-135.14 266.18,-124.66 275.26,-115.3"/>
<polygon fill="black" stroke="black" points="277.8,-117.72 282.26,-108.1 272.78,-112.84 277.8,-117.72"/>
</g>
<!-- DOMA&#45;NATXT -->
<g id="node5" class="node">
<title>DOMA&#45;NATXT</title>
<g id="a_node5"><a xlink:href="./DOMA_NATXT.html" xlink:title="DOMA&#45;NATXT">
<polygon fill="none" stroke="yellow" points="217.22,-36 106.52,-36 106.52,0 217.22,0 217.22,-36"/>
<text text-anchor="middle" x="161.87" y="-13.8" font-family="Times,serif" font-size="14.00">DOMA&#45;NATXT</text>
</a>
</g>
</g>
<!-- DTEL&#45;NATXT&#45;&gt;DOMA&#45;NATXT -->
<g id="edge6" class="edge">
<title>DTEL&#45;NATXT&#45;&gt;DOMA&#45;NATXT</title>
<path fill="none" stroke="black" d="M164.13,-71.7C163.8,-63.98 163.41,-54.71 163.04,-46.11"/>
<polygon fill="black" stroke="black" points="166.53,-45.95 162.61,-36.1 159.54,-46.25 166.53,-45.95"/>
</g>
<!-- DOMA&#45;SYMSGNO -->
<g id="node7" class="node">
<title>DOMA&#45;SYMSGNO</title>
<g id="a_node7"><a xlink:href="./DOMA_SYMSGNO.html" xlink:title="DOMA&#45;SYMSGNO">
<polygon fill="none" stroke="yellow" points="366.74,-36 235.01,-36 235.01,0 366.74,0 366.74,-36"/>
<text text-anchor="middle" x="300.87" y="-13.8" font-family="Times,serif" font-size="14.00">DOMA&#45;SYMSGNO</text>
</a>
</g>
</g>
<!-- DTEL&#45;SYMSGNO&#45;&gt;DOMA&#45;SYMSGNO -->
<g id="edge7" class="edge">
<title>DTEL&#45;SYMSGNO&#45;&gt;DOMA&#45;SYMSGNO</title>
<path fill="none" stroke="black" d="M299.37,-71.7C299.59,-63.98 299.85,-54.71 300.1,-46.11"/>
<polygon fill="black" stroke="black" points="303.6,-46.2 300.39,-36.1 296.6,-46 303.6,-46.2"/>
</g>
</g>
</svg>
