<?xml version="1.0" encoding="UTF-8" standalone="no"?>
<!DOCTYPE svg PUBLIC "-//W3C//DTD SVG 1.1//EN"
 "http://www.w3.org/Graphics/SVG/1.1/DTD/svg11.dtd">
<!-- Generated by graphviz version 2.47.3 (20210619.1520)
 -->
<!-- Title: G Pages: 1 -->
<svg width="313pt" height="188pt"
 viewBox="0.00 0.00 313.08 188.00" xmlns="http://www.w3.org/2000/svg" xmlns:xlink="http://www.w3.org/1999/xlink">
<g id="graph0" class="graph" transform="scale(1 1) rotate(0) translate(4 184)">
<title>G</title>
<polygon fill="white" stroke="transparent" points="-4,4 -4,-184 309.08,-184 309.08,4 -4,4"/>
<!-- INTF&#45;IF_XCO_TM_TIME_ZONE -->
<g id="node1" class="node">
<title>INTF&#45;IF_XCO_TM_TIME_ZONE</title>
<polygon fill="none" stroke="green" points="259.05,-180 44.49,-180 44.49,-144 259.05,-144 259.05,-180"/>
<text text-anchor="middle" x="151.77" y="-157.8" font-family="Times,serif" font-size="14.00">INTF&#45;IF_XCO_TM_TIME_ZONE</text>
</g>
<!-- DTEL&#45;TZNTSTMPS -->
<g id="node2" class="node">
<title>DTEL&#45;TZNTSTMPS</title>
<g id="a_node2"><a xlink:href="./DTEL_TZNTSTMPS.html" xlink:title="DTEL&#45;TZNTSTMPS">
<polygon fill="none" stroke="green" points="139.8,-108 3.73,-108 3.73,-72 139.8,-72 139.8,-108"/>
<text text-anchor="middle" x="71.77" y="-85.8" font-family="Times,serif" font-size="14.00">DTEL&#45;TZNTSTMPS</text>
</a>
</g>
</g>
<!-- INTF&#45;IF_XCO_TM_TIME_ZONE&#45;&gt;DTEL&#45;TZNTSTMPS -->
<g id="edge2" class="edge">
<title>INTF&#45;IF_XCO_TM_TIME_ZONE&#45;&gt;DTEL&#45;TZNTSTMPS</title>
<path fill="none" stroke="black" d="M131.99,-143.7C122.01,-134.97 109.76,-124.24 98.91,-114.75"/>
<polygon fill="black" stroke="black" points="101.15,-112.06 91.32,-108.1 96.54,-117.32 101.15,-112.06"/>
</g>
<!-- DTEL&#45;TZNZONESYS -->
<g id="node4" class="node">
<title>DTEL&#45;TZNZONESYS</title>
<g id="a_node4"><a xlink:href="./DTEL_TZNZONESYS.html" xlink:title="DTEL&#45;TZNZONESYS">
<polygon fill="none" stroke="yellow" points="304.89,-108 158.64,-108 158.64,-72 304.89,-72 304.89,-108"/>
<text text-anchor="middle" x="231.77" y="-85.8" font-family="Times,serif" font-size="14.00">DTEL&#45;TZNZONESYS</text>
</a>
</g>
</g>
<!-- INTF&#45;IF_XCO_TM_TIME_ZONE&#45;&gt;DTEL&#45;TZNZONESYS -->
<g id="edge1" class="edge">
<title>INTF&#45;IF_XCO_TM_TIME_ZONE&#45;&gt;DTEL&#45;TZNZONESYS</title>
<path fill="none" stroke="black" d="M171.54,-143.7C181.52,-134.97 193.78,-124.24 204.62,-114.75"/>
<polygon fill="black" stroke="black" points="207,-117.32 212.22,-108.1 202.39,-112.06 207,-117.32"/>
</g>
<!-- DOMA&#45;TZNTSTMPS -->
<g id="node3" class="node">
<title>DOMA&#45;TZNTSTMPS</title>
<g id="a_node3"><a xlink:href="./DOMA_TZNTSTMPS.html" xlink:title="DOMA&#45;TZNTSTMPS">
<polygon fill="none" stroke="yellow" points="143.3,-36 0.23,-36 0.23,0 143.3,0 143.3,-36"/>
<text text-anchor="middle" x="71.77" y="-13.8" font-family="Times,serif" font-size="14.00">DOMA&#45;TZNTSTMPS</text>
</a>
</g>
</g>
<!-- DTEL&#45;TZNTSTMPS&#45;&gt;DOMA&#45;TZNTSTMPS -->
<g id="edge3" class="edge">
<title>DTEL&#45;TZNTSTMPS&#45;&gt;DOMA&#45;TZNTSTMPS</title>
<path fill="none" stroke="black" d="M71.77,-71.7C71.77,-63.98 71.77,-54.71 71.77,-46.11"/>
<polygon fill="black" stroke="black" points="75.27,-46.1 71.77,-36.1 68.27,-46.1 75.27,-46.1"/>
</g>
<!-- DOMA&#45;TZNZONE -->
<g id="node5" class="node">
<title>DOMA&#45;TZNZONE</title>
<g id="a_node5"><a xlink:href="./DOMA_TZNZONE.html" xlink:title="DOMA&#45;TZNZONE">
<polygon fill="none" stroke="yellow" points="295.72,-36 167.81,-36 167.81,0 295.72,0 295.72,-36"/>
<text text-anchor="middle" x="231.77" y="-13.8" font-family="Times,serif" font-size="14.00">DOMA&#45;TZNZONE</text>
</a>
</g>
</g>
<!-- DTEL&#45;TZNZONESYS&#45;&gt;DOMA&#45;TZNZONE -->
<g id="edge4" class="edge">
<title>DTEL&#45;TZNZONESYS&#45;&gt;DOMA&#45;TZNZONE</title>
<path fill="none" stroke="black" d="M231.77,-71.7C231.77,-63.98 231.77,-54.71 231.77,-46.11"/>
<polygon fill="black" stroke="black" points="235.27,-46.1 231.77,-36.1 228.27,-46.1 235.27,-46.1"/>
</g>
</g>
</svg>
