<?xml version="1.0" encoding="UTF-8" standalone="no"?>
<!DOCTYPE svg PUBLIC "-//W3C//DTD SVG 1.1//EN"
 "http://www.w3.org/Graphics/SVG/1.1/DTD/svg11.dtd">
<!-- Generated by graphviz version 2.47.3 (20210619.1520)
 -->
<!-- Title: G Pages: 1 -->
<svg width="1719pt" height="332pt"
 viewBox="0.00 0.00 1718.58 332.00" xmlns="http://www.w3.org/2000/svg" xmlns:xlink="http://www.w3.org/1999/xlink">
<g id="graph0" class="graph" transform="scale(1 1) rotate(0) translate(4 328)">
<title>G</title>
<polygon fill="white" stroke="transparent" points="-4,4 -4,-328 1714.58,-328 1714.58,4 -4,4"/>
<!-- INTF&#45;IF_CLMS_VTR_EVENTS -->
<g id="node1" class="node">
<title>INTF&#45;IF_CLMS_VTR_EVENTS</title>
<polygon fill="none" stroke="yellow" points="1126.85,-324 921.9,-324 921.9,-288 1126.85,-288 1126.85,-324"/>
<text text-anchor="middle" x="1024.37" y="-301.8" font-family="Times,serif" font-size="14.00">INTF&#45;IF_CLMS_VTR_EVENTS</text>
</g>
<!-- INTF&#45;IF_BADI_INTERFACE -->
<g id="node2" class="node">
<title>INTF&#45;IF_BADI_INTERFACE</title>
<g id="a_node2"><a xlink:href="./INTF_IF_BADI_INTERFACE.html" xlink:title="INTF&#45;IF_BADI_INTERFACE">
<polygon fill="none" stroke="green" points="710.28,-252 520.47,-252 520.47,-216 710.28,-216 710.28,-252"/>
<text text-anchor="middle" x="615.37" y="-229.8" font-family="Times,serif" font-size="14.00">INTF&#45;IF_BADI_INTERFACE</text>
</a>
</g>
</g>
<!-- INTF&#45;IF_CLMS_VTR_EVENTS&#45;&gt;INTF&#45;IF_BADI_INTERFACE -->
<g id="edge6" class="edge">
<title>INTF&#45;IF_CLMS_VTR_EVENTS&#45;&gt;INTF&#45;IF_BADI_INTERFACE</title>
<path fill="none" stroke="black" d="M924.84,-287.97C862.9,-277.36 783.32,-263.74 720.37,-252.97"/>
<polygon fill="black" stroke="black" points="720.86,-249.5 710.42,-251.27 719.68,-256.4 720.86,-249.5"/>
</g>
<!-- TTYP&#45;BAPIRETTAB -->
<g id="node3" class="node">
<title>TTYP&#45;BAPIRETTAB</title>
<g id="a_node3"><a xlink:href="./TTYP_BAPIRETTAB.html" xlink:title="TTYP&#45;BAPIRETTAB">
<polygon fill="none" stroke="green" points="870.35,-252 728.4,-252 728.4,-216 870.35,-216 870.35,-252"/>
<text text-anchor="middle" x="799.37" y="-229.8" font-family="Times,serif" font-size="14.00">TTYP&#45;BAPIRETTAB</text>
</a>
</g>
</g>
<!-- INTF&#45;IF_CLMS_VTR_EVENTS&#45;&gt;TTYP&#45;BAPIRETTAB -->
<g id="edge5" class="edge">
<title>INTF&#45;IF_CLMS_VTR_EVENTS&#45;&gt;TTYP&#45;BAPIRETTAB</title>
<path fill="none" stroke="black" d="M969.62,-287.97C937.77,-278.06 897.45,-265.51 864.05,-255.12"/>
<polygon fill="black" stroke="black" points="864.96,-251.74 854.37,-252.11 862.88,-258.42 864.96,-251.74"/>
</g>
<!-- DTEL&#45;UUID -->
<g id="node27" class="node">
<title>DTEL&#45;UUID</title>
<g id="a_node27"><a xlink:href="./DTEL_UUID.html" xlink:title="DTEL&#45;UUID">
<polygon fill="none" stroke="yellow" points="980.28,-252 888.47,-252 888.47,-216 980.28,-216 980.28,-252"/>
<text text-anchor="middle" x="934.37" y="-229.8" font-family="Times,serif" font-size="14.00">DTEL&#45;UUID</text>
</a>
</g>
</g>
<!-- INTF&#45;IF_CLMS_VTR_EVENTS&#45;&gt;DTEL&#45;UUID -->
<g id="edge4" class="edge">
<title>INTF&#45;IF_CLMS_VTR_EVENTS&#45;&gt;DTEL&#45;UUID</title>
<path fill="none" stroke="black" d="M1002.13,-287.7C990.79,-278.88 976.84,-268.03 964.56,-258.47"/>
<polygon fill="black" stroke="black" points="966.41,-255.48 956.37,-252.1 962.11,-261.01 966.41,-255.48"/>
</g>
<!-- DTEL&#45;CLMS_TM_VTR_SYMPTOM -->
<g id="node29" class="node">
<title>DTEL&#45;CLMS_TM_VTR_SYMPTOM</title>
<g id="a_node29"><a xlink:href="./DTEL_CLMS_TM_VTR_SYMPTOM.html" xlink:title="DTEL&#45;CLMS_TM_VTR_SYMPTOM">
<polygon fill="none" stroke="yellow" points="1232.13,-252 998.62,-252 998.62,-216 1232.13,-216 1232.13,-252"/>
<text text-anchor="middle" x="1115.37" y="-229.8" font-family="Times,serif" font-size="14.00">DTEL&#45;CLMS_TM_VTR_SYMPTOM</text>
</a>
</g>
</g>
<!-- INTF&#45;IF_CLMS_VTR_EVENTS&#45;&gt;DTEL&#45;CLMS_TM_VTR_SYMPTOM -->
<g id="edge3" class="edge">
<title>INTF&#45;IF_CLMS_VTR_EVENTS&#45;&gt;DTEL&#45;CLMS_TM_VTR_SYMPTOM</title>
<path fill="none" stroke="black" d="M1046.87,-287.7C1058.33,-278.88 1072.43,-268.03 1084.86,-258.47"/>
<polygon fill="black" stroke="black" points="1087.35,-260.98 1093.14,-252.1 1083.08,-255.43 1087.35,-260.98"/>
</g>
<!-- DTEL&#45;CLMS_TM_VTR_STATUS -->
<g id="node31" class="node">
<title>DTEL&#45;CLMS_TM_VTR_STATUS</title>
<g id="a_node31"><a xlink:href="./DTEL_CLMS_TM_VTR_STATUS.html" xlink:title="DTEL&#45;CLMS_TM_VTR_STATUS">
<polygon fill="none" stroke="yellow" points="1468.29,-252 1250.46,-252 1250.46,-216 1468.29,-216 1468.29,-252"/>
<text text-anchor="middle" x="1359.37" y="-229.8" font-family="Times,serif" font-size="14.00">DTEL&#45;CLMS_TM_VTR_STATUS</text>
</a>
</g>
</g>
<!-- INTF&#45;IF_CLMS_VTR_EVENTS&#45;&gt;DTEL&#45;CLMS_TM_VTR_STATUS -->
<g id="edge2" class="edge">
<title>INTF&#45;IF_CLMS_VTR_EVENTS&#45;&gt;DTEL&#45;CLMS_TM_VTR_STATUS</title>
<path fill="none" stroke="black" d="M1105.9,-287.97C1154.83,-277.74 1217.19,-264.71 1267.82,-254.13"/>
<polygon fill="black" stroke="black" points="1268.71,-257.52 1277.78,-252.05 1267.27,-250.67 1268.71,-257.52"/>
</g>
<!-- DTEL&#45;CLMS_TM_VTR_NUMBER -->
<g id="node33" class="node">
<title>DTEL&#45;CLMS_TM_VTR_NUMBER</title>
<g id="a_node33"><a xlink:href="./DTEL_CLMS_TM_VTR_NUMBER.html" xlink:title="DTEL&#45;CLMS_TM_VTR_NUMBER">
<polygon fill="none" stroke="yellow" points="1710.79,-252 1485.96,-252 1485.96,-216 1710.79,-216 1710.79,-252"/>
<text text-anchor="middle" x="1598.37" y="-229.8" font-family="Times,serif" font-size="14.00">DTEL&#45;CLMS_TM_VTR_NUMBER</text>
</a>
</g>
</g>
<!-- INTF&#45;IF_CLMS_VTR_EVENTS&#45;&gt;DTEL&#45;CLMS_TM_VTR_NUMBER -->
<g id="edge1" class="edge">
<title>INTF&#45;IF_CLMS_VTR_EVENTS&#45;&gt;DTEL&#45;CLMS_TM_VTR_NUMBER</title>
<path fill="none" stroke="black" d="M1127.01,-293.68C1216.45,-283.65 1349.95,-268.3 1475.79,-252.19"/>
<polygon fill="black" stroke="black" points="1476.52,-255.62 1485.99,-250.88 1475.63,-248.68 1476.52,-255.62"/>
</g>
<!-- TABL&#45;BAPIRET2 -->
<g id="node4" class="node">
<title>TABL&#45;BAPIRET2</title>
<g id="a_node4"><a xlink:href="./TABL_BAPIRET2.html" xlink:title="TABL&#45;BAPIRET2">
<polygon fill="none" stroke="green" points="860.41,-180 738.34,-180 738.34,-144 860.41,-144 860.41,-180"/>
<text text-anchor="middle" x="799.37" y="-157.8" font-family="Times,serif" font-size="14.00">TABL&#45;BAPIRET2</text>
</a>
</g>
</g>
<!-- TTYP&#45;BAPIRETTAB&#45;&gt;TABL&#45;BAPIRET2 -->
<g id="edge7" class="edge">
<title>TTYP&#45;BAPIRETTAB&#45;&gt;TABL&#45;BAPIRET2</title>
<path fill="none" stroke="black" d="M799.37,-215.7C799.37,-207.98 799.37,-198.71 799.37,-190.11"/>
<polygon fill="black" stroke="black" points="802.87,-190.1 799.37,-180.1 795.87,-190.1 802.87,-190.1"/>
</g>
<!-- DTEL&#45;BAPILOGSYS -->
<g id="node5" class="node">
<title>DTEL&#45;BAPILOGSYS</title>
<g id="a_node5"><a xlink:href="./DTEL_BAPILOGSYS.html" xlink:title="DTEL&#45;BAPILOGSYS">
<polygon fill="none" stroke="green" points="142.62,-108 0.13,-108 0.13,-72 142.62,-72 142.62,-108"/>
<text text-anchor="middle" x="71.37" y="-85.8" font-family="Times,serif" font-size="14.00">DTEL&#45;BAPILOGSYS</text>
</a>
</g>
</g>
<!-- TABL&#45;BAPIRET2&#45;&gt;DTEL&#45;BAPILOGSYS -->
<g id="edge18" class="edge">
<title>TABL&#45;BAPIRET2&#45;&gt;DTEL&#45;BAPILOGSYS</title>
<path fill="none" stroke="black" d="M738.33,-158.61C624.83,-153.6 373.56,-139.85 152.97,-108.13"/>
<polygon fill="black" stroke="black" points="153.22,-104.63 142.82,-106.66 152.21,-111.56 153.22,-104.63"/>
</g>
<!-- DTEL&#45;BAPI_FLD -->
<g id="node7" class="node">
<title>DTEL&#45;BAPI_FLD</title>
<g id="a_node7"><a xlink:href="./DTEL_BAPI_FLD.html" xlink:title="DTEL&#45;BAPI_FLD">
<polygon fill="none" stroke="green" points="282.13,-108 160.62,-108 160.62,-72 282.13,-72 282.13,-108"/>
<text text-anchor="middle" x="221.37" y="-85.8" font-family="Times,serif" font-size="14.00">DTEL&#45;BAPI_FLD</text>
</a>
</g>
</g>
<!-- TABL&#45;BAPIRET2&#45;&gt;DTEL&#45;BAPI_FLD -->
<g id="edge17" class="edge">
<title>TABL&#45;BAPIRET2&#45;&gt;DTEL&#45;BAPI_FLD</title>
<path fill="none" stroke="black" d="M738.28,-157.37C644.22,-151.18 458.21,-136.56 292.13,-108.19"/>
<polygon fill="black" stroke="black" points="292.68,-104.73 282.23,-106.48 291.49,-111.63 292.68,-104.73"/>
</g>
<!-- DTEL&#45;BAPI_LINE -->
<g id="node9" class="node">
<title>DTEL&#45;BAPI_LINE</title>
<g id="a_node9"><a xlink:href="./DTEL_BAPI_LINE.html" xlink:title="DTEL&#45;BAPI_LINE">
<polygon fill="none" stroke="green" points="427.06,-108 299.69,-108 299.69,-72 427.06,-72 427.06,-108"/>
<text text-anchor="middle" x="363.37" y="-85.8" font-family="Times,serif" font-size="14.00">DTEL&#45;BAPI_LINE</text>
</a>
</g>
</g>
<!-- TABL&#45;BAPIRET2&#45;&gt;DTEL&#45;BAPI_LINE -->
<g id="edge16" class="edge">
<title>TABL&#45;BAPIRET2&#45;&gt;DTEL&#45;BAPI_LINE</title>
<path fill="none" stroke="black" d="M738.24,-153.75C667.82,-145.04 548.48,-129.13 437.34,-108.3"/>
<polygon fill="black" stroke="black" points="437.78,-104.82 427.3,-106.4 436.48,-111.7 437.78,-104.82"/>
</g>
<!-- DTEL&#45;BAPI_PARAM -->
<g id="node11" class="node">
<title>DTEL&#45;BAPI_PARAM</title>
<g id="a_node11"><a xlink:href="./DTEL_BAPI_PARAM.html" xlink:title="DTEL&#45;BAPI_PARAM">
<polygon fill="none" stroke="green" points="589.96,-108 444.79,-108 444.79,-72 589.96,-72 589.96,-108"/>
<text text-anchor="middle" x="517.37" y="-85.8" font-family="Times,serif" font-size="14.00">DTEL&#45;BAPI_PARAM</text>
</a>
</g>
</g>
<!-- TABL&#45;BAPIRET2&#45;&gt;DTEL&#45;BAPI_PARAM -->
<g id="edge15" class="edge">
<title>TABL&#45;BAPIRET2&#45;&gt;DTEL&#45;BAPI_PARAM</title>
<path fill="none" stroke="black" d="M738.18,-145.81C696.38,-135.43 640.62,-121.59 595.6,-110.42"/>
<polygon fill="black" stroke="black" points="596.42,-107.01 585.87,-108 594.73,-113.81 596.42,-107.01"/>
</g>
<!-- DTEL&#45;SYMSGV -->
<g id="node13" class="node">
<title>DTEL&#45;SYMSGV</title>
<g id="a_node13"><a xlink:href="./DTEL_SYMSGV.html" xlink:title="DTEL&#45;SYMSGV">
<polygon fill="none" stroke="green" points="722.63,-108 608.12,-108 608.12,-72 722.63,-72 722.63,-108"/>
<text text-anchor="middle" x="665.37" y="-85.8" font-family="Times,serif" font-size="14.00">DTEL&#45;SYMSGV</text>
</a>
</g>
</g>
<!-- TABL&#45;BAPIRET2&#45;&gt;DTEL&#45;SYMSGV -->
<g id="edge14" class="edge">
<title>TABL&#45;BAPIRET2&#45;&gt;DTEL&#45;SYMSGV</title>
<path fill="none" stroke="black" d="M766.59,-143.88C748.75,-134.55 726.48,-122.92 707.37,-112.94"/>
<polygon fill="black" stroke="black" points="708.76,-109.72 698.28,-108.19 705.52,-115.92 708.76,-109.72"/>
</g>
<!-- DTEL&#45;BALMNR -->
<g id="node15" class="node">
<title>DTEL&#45;BALMNR</title>
<g id="a_node15"><a xlink:href="./DTEL_BALMNR.html" xlink:title="DTEL&#45;BALMNR">
<polygon fill="none" stroke="green" points="857.68,-108 741.07,-108 741.07,-72 857.68,-72 857.68,-108"/>
<text text-anchor="middle" x="799.37" y="-85.8" font-family="Times,serif" font-size="14.00">DTEL&#45;BALMNR</text>
</a>
</g>
</g>
<!-- TABL&#45;BAPIRET2&#45;&gt;DTEL&#45;BALMNR -->
<g id="edge13" class="edge">
<title>TABL&#45;BAPIRET2&#45;&gt;DTEL&#45;BALMNR</title>
<path fill="none" stroke="black" d="M799.37,-143.7C799.37,-135.98 799.37,-126.71 799.37,-118.11"/>
<polygon fill="black" stroke="black" points="802.87,-118.1 799.37,-108.1 795.87,-118.1 802.87,-118.1"/>
</g>
<!-- DTEL&#45;BALOGNR -->
<g id="node17" class="node">
<title>DTEL&#45;BALOGNR</title>
<g id="a_node17"><a xlink:href="./DTEL_BALOGNR.html" xlink:title="DTEL&#45;BALOGNR">
<polygon fill="none" stroke="green" points="999.45,-108 875.3,-108 875.3,-72 999.45,-72 999.45,-108"/>
<text text-anchor="middle" x="937.37" y="-85.8" font-family="Times,serif" font-size="14.00">DTEL&#45;BALOGNR</text>
</a>
</g>
</g>
<!-- TABL&#45;BAPIRET2&#45;&gt;DTEL&#45;BALOGNR -->
<g id="edge12" class="edge">
<title>TABL&#45;BAPIRET2&#45;&gt;DTEL&#45;BALOGNR</title>
<path fill="none" stroke="black" d="M833.13,-143.88C851.59,-134.51 874.66,-122.81 894.39,-112.8"/>
<polygon fill="black" stroke="black" points="896.15,-115.83 903.49,-108.19 892.98,-109.59 896.15,-115.83"/>
</g>
<!-- DTEL&#45;BAPI_MSG -->
<g id="node19" class="node">
<title>DTEL&#45;BAPI_MSG</title>
<g id="a_node19"><a xlink:href="./DTEL_BAPI_MSG.html" xlink:title="DTEL&#45;BAPI_MSG">
<polygon fill="none" stroke="green" points="1143.02,-108 1017.73,-108 1017.73,-72 1143.02,-72 1143.02,-108"/>
<text text-anchor="middle" x="1080.37" y="-85.8" font-family="Times,serif" font-size="14.00">DTEL&#45;BAPI_MSG</text>
</a>
</g>
</g>
<!-- TABL&#45;BAPIRET2&#45;&gt;DTEL&#45;BAPI_MSG -->
<g id="edge11" class="edge">
<title>TABL&#45;BAPIRET2&#45;&gt;DTEL&#45;BAPI_MSG</title>
<path fill="none" stroke="black" d="M860.69,-145.72C904.02,-134.93 962.27,-120.42 1007.9,-109.05"/>
<polygon fill="black" stroke="black" points="1008.87,-112.42 1017.73,-106.61 1007.18,-105.63 1008.87,-112.42"/>
</g>
<!-- DTEL&#45;SYMSGNO -->
<g id="node21" class="node">
<title>DTEL&#45;SYMSGNO</title>
<g id="a_node21"><a xlink:href="./DTEL_SYMSGNO.html" xlink:title="DTEL&#45;SYMSGNO">
<polygon fill="none" stroke="green" points="1285.74,-108 1161.01,-108 1161.01,-72 1285.74,-72 1285.74,-108"/>
<text text-anchor="middle" x="1223.37" y="-85.8" font-family="Times,serif" font-size="14.00">DTEL&#45;SYMSGNO</text>
</a>
</g>
</g>
<!-- TABL&#45;BAPIRET2&#45;&gt;DTEL&#45;SYMSGNO -->
<g id="edge10" class="edge">
<title>TABL&#45;BAPIRET2&#45;&gt;DTEL&#45;SYMSGNO</title>
<path fill="none" stroke="black" d="M860.75,-145.68C863.66,-145.09 866.55,-144.52 869.37,-144 990.9,-121.59 1025.88,-130.32 1150.78,-108.18"/>
<polygon fill="black" stroke="black" points="1151.51,-111.61 1160.73,-106.39 1150.27,-104.72 1151.51,-111.61"/>
</g>
<!-- DTEL&#45;SYMSGID -->
<g id="node23" class="node">
<title>DTEL&#45;SYMSGID</title>
<g id="a_node23"><a xlink:href="./DTEL_SYMSGID.html" xlink:title="DTEL&#45;SYMSGID">
<polygon fill="none" stroke="green" points="1423.29,-108 1303.46,-108 1303.46,-72 1423.29,-72 1423.29,-108"/>
<text text-anchor="middle" x="1363.37" y="-85.8" font-family="Times,serif" font-size="14.00">DTEL&#45;SYMSGID</text>
</a>
</g>
</g>
<!-- TABL&#45;BAPIRET2&#45;&gt;DTEL&#45;SYMSGID -->
<g id="edge9" class="edge">
<title>TABL&#45;BAPIRET2&#45;&gt;DTEL&#45;SYMSGID</title>
<path fill="none" stroke="black" d="M860.73,-145.54C863.64,-144.98 866.54,-144.46 869.37,-144 1053.28,-114.06 1105.55,-137.92 1293.71,-107.94"/>
<polygon fill="black" stroke="black" points="1294.34,-111.38 1303.65,-106.32 1293.22,-104.47 1294.34,-111.38"/>
</g>
<!-- DTEL&#45;BAPI_MTYPE -->
<g id="node25" class="node">
<title>DTEL&#45;BAPI_MTYPE</title>
<g id="a_node25"><a xlink:href="./DTEL_BAPI_MTYPE.html" xlink:title="DTEL&#45;BAPI_MTYPE">
<polygon fill="none" stroke="green" points="1583.63,-108 1441.12,-108 1441.12,-72 1583.63,-72 1583.63,-108"/>
<text text-anchor="middle" x="1512.37" y="-85.8" font-family="Times,serif" font-size="14.00">DTEL&#45;BAPI_MTYPE</text>
</a>
</g>
</g>
<!-- TABL&#45;BAPIRET2&#45;&gt;DTEL&#45;BAPI_MTYPE -->
<g id="edge8" class="edge">
<title>TABL&#45;BAPIRET2&#45;&gt;DTEL&#45;BAPI_MTYPE</title>
<path fill="none" stroke="black" d="M860.71,-145.46C863.63,-144.93 866.53,-144.43 869.37,-144 1113.98,-106.77 1182.19,-141.22 1430.87,-108.08"/>
<polygon fill="black" stroke="black" points="1431.5,-111.53 1440.94,-106.72 1430.56,-104.59 1431.5,-111.53"/>
</g>
<!-- DOMA&#45;LOGSYS -->
<g id="node6" class="node">
<title>DOMA&#45;LOGSYS</title>
<g id="a_node6"><a xlink:href="./DOMA_LOGSYS.html" xlink:title="DOMA&#45;LOGSYS">
<polygon fill="none" stroke="yellow" points="130.24,-36 12.51,-36 12.51,0 130.24,0 130.24,-36"/>
<text text-anchor="middle" x="71.37" y="-13.8" font-family="Times,serif" font-size="14.00">DOMA&#45;LOGSYS</text>
</a>
</g>
</g>
<!-- DTEL&#45;BAPILOGSYS&#45;&gt;DOMA&#45;LOGSYS -->
<g id="edge19" class="edge">
<title>DTEL&#45;BAPILOGSYS&#45;&gt;DOMA&#45;LOGSYS</title>
<path fill="none" stroke="black" d="M71.37,-71.7C71.37,-63.98 71.37,-54.71 71.37,-46.11"/>
<polygon fill="black" stroke="black" points="74.87,-46.1 71.37,-36.1 67.87,-46.1 74.87,-46.1"/>
</g>
<!-- DOMA&#45;FDNAME -->
<g id="node8" class="node">
<title>DOMA&#45;FDNAME</title>
<g id="a_node8"><a xlink:href="./DOMA_FDNAME.html" xlink:title="DOMA&#45;FDNAME">
<polygon fill="none" stroke="yellow" points="282.4,-36 160.35,-36 160.35,0 282.4,0 282.4,-36"/>
<text text-anchor="middle" x="221.37" y="-13.8" font-family="Times,serif" font-size="14.00">DOMA&#45;FDNAME</text>
</a>
</g>
</g>
<!-- DTEL&#45;BAPI_FLD&#45;&gt;DOMA&#45;FDNAME -->
<g id="edge20" class="edge">
<title>DTEL&#45;BAPI_FLD&#45;&gt;DOMA&#45;FDNAME</title>
<path fill="none" stroke="black" d="M221.37,-71.7C221.37,-63.98 221.37,-54.71 221.37,-46.11"/>
<polygon fill="black" stroke="black" points="224.87,-46.1 221.37,-36.1 217.87,-46.1 224.87,-46.1"/>
</g>
<!-- DOMA&#45;INT4 -->
<g id="node10" class="node">
<title>DOMA&#45;INT4</title>
<g id="a_node10"><a xlink:href="./DOMA_INT4.html" xlink:title="DOMA&#45;INT4">
<polygon fill="none" stroke="yellow" points="406.12,-36 312.63,-36 312.63,0 406.12,0 406.12,-36"/>
<text text-anchor="middle" x="359.37" y="-13.8" font-family="Times,serif" font-size="14.00">DOMA&#45;INT4</text>
</a>
</g>
</g>
<!-- DTEL&#45;BAPI_LINE&#45;&gt;DOMA&#45;INT4 -->
<g id="edge21" class="edge">
<title>DTEL&#45;BAPI_LINE&#45;&gt;DOMA&#45;INT4</title>
<path fill="none" stroke="black" d="M362.39,-71.7C361.94,-63.98 361.42,-54.71 360.92,-46.11"/>
<polygon fill="black" stroke="black" points="364.42,-45.89 360.35,-36.1 357.43,-46.29 364.42,-45.89"/>
</g>
<!-- DOMA&#45;SWC_ELEM -->
<g id="node12" class="node">
<title>DOMA&#45;SWC_ELEM</title>
<g id="a_node12"><a xlink:href="./DOMA_SWC_ELEM.html" xlink:title="DOMA&#45;SWC_ELEM">
<polygon fill="none" stroke="yellow" points="562.74,-36 424.01,-36 424.01,0 562.74,0 562.74,-36"/>
<text text-anchor="middle" x="493.37" y="-13.8" font-family="Times,serif" font-size="14.00">DOMA&#45;SWC_ELEM</text>
</a>
</g>
</g>
<!-- DTEL&#45;BAPI_PARAM&#45;&gt;DOMA&#45;SWC_ELEM -->
<g id="edge22" class="edge">
<title>DTEL&#45;BAPI_PARAM&#45;&gt;DOMA&#45;SWC_ELEM</title>
<path fill="none" stroke="black" d="M511.44,-71.7C508.77,-63.9 505.55,-54.51 502.57,-45.83"/>
<polygon fill="black" stroke="black" points="505.79,-44.43 499.24,-36.1 499.17,-46.7 505.79,-44.43"/>
</g>
<!-- DOMA&#45;SYCHAR50 -->
<g id="node14" class="node">
<title>DOMA&#45;SYCHAR50</title>
<g id="a_node14"><a xlink:href="./DOMA_SYCHAR50.html" xlink:title="DOMA&#45;SYCHAR50">
<polygon fill="none" stroke="yellow" points="715.58,-36 581.17,-36 581.17,0 715.58,0 715.58,-36"/>
<text text-anchor="middle" x="648.37" y="-13.8" font-family="Times,serif" font-size="14.00">DOMA&#45;SYCHAR50</text>
</a>
</g>
</g>
<!-- DTEL&#45;SYMSGV&#45;&gt;DOMA&#45;SYCHAR50 -->
<g id="edge23" class="edge">
<title>DTEL&#45;SYMSGV&#45;&gt;DOMA&#45;SYCHAR50</title>
<path fill="none" stroke="black" d="M661.17,-71.7C659.28,-63.9 657,-54.51 654.89,-45.83"/>
<polygon fill="black" stroke="black" points="658.29,-45 652.53,-36.1 651.49,-46.65 658.29,-45"/>
</g>
<!-- DOMA&#45;BALMNR -->
<g id="node16" class="node">
<title>DOMA&#45;BALMNR</title>
<g id="a_node16"><a xlink:href="./DOMA_BALMNR.html" xlink:title="DOMA&#45;BALMNR">
<polygon fill="none" stroke="yellow" points="857.18,-36 733.57,-36 733.57,0 857.18,0 857.18,-36"/>
<text text-anchor="middle" x="795.37" y="-13.8" font-family="Times,serif" font-size="14.00">DOMA&#45;BALMNR</text>
</a>
</g>
</g>
<!-- DTEL&#45;BALMNR&#45;&gt;DOMA&#45;BALMNR -->
<g id="edge24" class="edge">
<title>DTEL&#45;BALMNR&#45;&gt;DOMA&#45;BALMNR</title>
<path fill="none" stroke="black" d="M798.39,-71.7C797.94,-63.98 797.42,-54.71 796.92,-46.11"/>
<polygon fill="black" stroke="black" points="800.42,-45.89 796.35,-36.1 793.43,-46.29 800.42,-45.89"/>
</g>
<!-- DOMA&#45;BALOGNR -->
<g id="node18" class="node">
<title>DOMA&#45;BALOGNR</title>
<g id="a_node18"><a xlink:href="./DOMA_BALOGNR.html" xlink:title="DOMA&#45;BALOGNR">
<polygon fill="none" stroke="yellow" points="1005.95,-36 874.8,-36 874.8,0 1005.95,0 1005.95,-36"/>
<text text-anchor="middle" x="940.37" y="-13.8" font-family="Times,serif" font-size="14.00">DOMA&#45;BALOGNR</text>
</a>
</g>
</g>
<!-- DTEL&#45;BALOGNR&#45;&gt;DOMA&#45;BALOGNR -->
<g id="edge25" class="edge">
<title>DTEL&#45;BALOGNR&#45;&gt;DOMA&#45;BALOGNR</title>
<path fill="none" stroke="black" d="M938.12,-71.7C938.45,-63.98 938.84,-54.71 939.21,-46.11"/>
<polygon fill="black" stroke="black" points="942.71,-46.25 939.64,-36.1 935.72,-45.95 942.71,-46.25"/>
</g>
<!-- DOMA&#45;TEXT220 -->
<g id="node20" class="node">
<title>DOMA&#45;TEXT220</title>
<g id="a_node20"><a xlink:href="./DOMA_TEXT220.html" xlink:title="DOMA&#45;TEXT220">
<polygon fill="none" stroke="yellow" points="1144.56,-36 1024.18,-36 1024.18,0 1144.56,0 1144.56,-36"/>
<text text-anchor="middle" x="1084.37" y="-13.8" font-family="Times,serif" font-size="14.00">DOMA&#45;TEXT220</text>
</a>
</g>
</g>
<!-- DTEL&#45;BAPI_MSG&#45;&gt;DOMA&#45;TEXT220 -->
<g id="edge26" class="edge">
<title>DTEL&#45;BAPI_MSG&#45;&gt;DOMA&#45;TEXT220</title>
<path fill="none" stroke="black" d="M1081.36,-71.7C1081.8,-63.98 1082.33,-54.71 1082.83,-46.11"/>
<polygon fill="black" stroke="black" points="1086.32,-46.29 1083.4,-36.1 1079.33,-45.89 1086.32,-46.29"/>
</g>
<!-- DOMA&#45;SYMSGNO -->
<g id="node22" class="node">
<title>DOMA&#45;SYMSGNO</title>
<g id="a_node22"><a xlink:href="./DOMA_SYMSGNO.html" xlink:title="DOMA&#45;SYMSGNO">
<polygon fill="none" stroke="yellow" points="1294.24,-36 1162.51,-36 1162.51,0 1294.24,0 1294.24,-36"/>
<text text-anchor="middle" x="1228.37" y="-13.8" font-family="Times,serif" font-size="14.00">DOMA&#45;SYMSGNO</text>
</a>
</g>
</g>
<!-- DTEL&#45;SYMSGNO&#45;&gt;DOMA&#45;SYMSGNO -->
<g id="edge27" class="edge">
<title>DTEL&#45;SYMSGNO&#45;&gt;DOMA&#45;SYMSGNO</title>
<path fill="none" stroke="black" d="M1224.61,-71.7C1225.16,-63.98 1225.82,-54.71 1226.44,-46.11"/>
<polygon fill="black" stroke="black" points="1229.93,-46.33 1227.15,-36.1 1222.95,-45.83 1229.93,-46.33"/>
</g>
<!-- DOMA&#45;ARBGB -->
<g id="node24" class="node">
<title>DOMA&#45;ARBGB</title>
<g id="a_node24"><a xlink:href="./DOMA_ARBGB.html" xlink:title="DOMA&#45;ARBGB">
<polygon fill="none" stroke="yellow" points="1424.02,-36 1312.73,-36 1312.73,0 1424.02,0 1424.02,-36"/>
<text text-anchor="middle" x="1368.37" y="-13.8" font-family="Times,serif" font-size="14.00">DOMA&#45;ARBGB</text>
</a>
</g>
</g>
<!-- DTEL&#45;SYMSGID&#45;&gt;DOMA&#45;ARBGB -->
<g id="edge28" class="edge">
<title>DTEL&#45;SYMSGID&#45;&gt;DOMA&#45;ARBGB</title>
<path fill="none" stroke="black" d="M1364.61,-71.7C1365.16,-63.98 1365.82,-54.71 1366.44,-46.11"/>
<polygon fill="black" stroke="black" points="1369.93,-46.33 1367.15,-36.1 1362.95,-45.83 1369.93,-46.33"/>
</g>
<!-- DOMA&#45;SYCHAR01 -->
<g id="node26" class="node">
<title>DOMA&#45;SYCHAR01</title>
<g id="a_node26"><a xlink:href="./DOMA_SYCHAR01.html" xlink:title="DOMA&#45;SYCHAR01">
<polygon fill="none" stroke="yellow" points="1579.58,-36 1445.17,-36 1445.17,0 1579.58,0 1579.58,-36"/>
<text text-anchor="middle" x="1512.37" y="-13.8" font-family="Times,serif" font-size="14.00">DOMA&#45;SYCHAR01</text>
</a>
</g>
</g>
<!-- DTEL&#45;BAPI_MTYPE&#45;&gt;DOMA&#45;SYCHAR01 -->
<g id="edge29" class="edge">
<title>DTEL&#45;BAPI_MTYPE&#45;&gt;DOMA&#45;SYCHAR01</title>
<path fill="none" stroke="black" d="M1512.37,-71.7C1512.37,-63.98 1512.37,-54.71 1512.37,-46.11"/>
<polygon fill="black" stroke="black" points="1515.87,-46.1 1512.37,-36.1 1508.87,-46.1 1515.87,-46.1"/>
</g>
<!-- DOMA&#45;UUID -->
<g id="node28" class="node">
<title>DOMA&#45;UUID</title>
<g id="a_node28"><a xlink:href="./DOMA_UUID.html" xlink:title="DOMA&#45;UUID">
<polygon fill="none" stroke="yellow" points="976.78,-180 877.97,-180 877.97,-144 976.78,-144 976.78,-180"/>
<text text-anchor="middle" x="927.37" y="-157.8" font-family="Times,serif" font-size="14.00">DOMA&#45;UUID</text>
</a>
</g>
</g>
<!-- DTEL&#45;UUID&#45;&gt;DOMA&#45;UUID -->
<g id="edge30" class="edge">
<title>DTEL&#45;UUID&#45;&gt;DOMA&#45;UUID</title>
<path fill="none" stroke="black" d="M932.64,-215.7C931.87,-207.98 930.95,-198.71 930.09,-190.11"/>
<polygon fill="black" stroke="black" points="933.56,-189.71 929.08,-180.1 926.6,-190.4 933.56,-189.71"/>
</g>
<!-- DOMA&#45;CLMS_TM_VTR_SYMPTOM -->
<g id="node30" class="node">
<title>DOMA&#45;CLMS_TM_VTR_SYMPTOM</title>
<g id="a_node30"><a xlink:href="./DOMA_CLMS_TM_VTR_SYMPTOM.html" xlink:title="DOMA&#45;CLMS_TM_VTR_SYMPTOM">
<polygon fill="none" stroke="yellow" points="1235.63,-180 995.12,-180 995.12,-144 1235.63,-144 1235.63,-180"/>
<text text-anchor="middle" x="1115.37" y="-157.8" font-family="Times,serif" font-size="14.00">DOMA&#45;CLMS_TM_VTR_SYMPTOM</text>
</a>
</g>
</g>
<!-- DTEL&#45;CLMS_TM_VTR_SYMPTOM&#45;&gt;DOMA&#45;CLMS_TM_VTR_SYMPTOM -->
<g id="edge31" class="edge">
<title>DTEL&#45;CLMS_TM_VTR_SYMPTOM&#45;&gt;DOMA&#45;CLMS_TM_VTR_SYMPTOM</title>
<path fill="none" stroke="black" d="M1115.37,-215.7C1115.37,-207.98 1115.37,-198.71 1115.37,-190.11"/>
<polygon fill="black" stroke="black" points="1118.87,-190.1 1115.37,-180.1 1111.87,-190.1 1118.87,-190.1"/>
</g>
<!-- DOMA&#45;CLMS_TM_VTR_STATUS -->
<g id="node32" class="node">
<title>DOMA&#45;CLMS_TM_VTR_STATUS</title>
<g id="a_node32"><a xlink:href="./DOMA_CLMS_TM_VTR_STATUS.html" xlink:title="DOMA&#45;CLMS_TM_VTR_STATUS">
<polygon fill="none" stroke="yellow" points="1478.79,-180 1253.96,-180 1253.96,-144 1478.79,-144 1478.79,-180"/>
<text text-anchor="middle" x="1366.37" y="-157.8" font-family="Times,serif" font-size="14.00">DOMA&#45;CLMS_TM_VTR_STATUS</text>
</a>
</g>
</g>
<!-- DTEL&#45;CLMS_TM_VTR_STATUS&#45;&gt;DOMA&#45;CLMS_TM_VTR_STATUS -->
<g id="edge32" class="edge">
<title>DTEL&#45;CLMS_TM_VTR_STATUS&#45;&gt;DOMA&#45;CLMS_TM_VTR_STATUS</title>
<path fill="none" stroke="black" d="M1361.1,-215.7C1361.88,-207.98 1362.8,-198.71 1363.66,-190.11"/>
<polygon fill="black" stroke="black" points="1367.15,-190.4 1364.66,-180.1 1360.19,-189.71 1367.15,-190.4"/>
</g>
</g>
</svg>
