<?xml version="1.0" encoding="UTF-8" standalone="no"?>
<!DOCTYPE svg PUBLIC "-//W3C//DTD SVG 1.1//EN"
 "http://www.w3.org/Graphics/SVG/1.1/DTD/svg11.dtd">
<!-- Generated by graphviz version 2.47.3 (20210619.1520)
 -->
<!-- Title: G Pages: 1 -->
<svg width="298pt" height="260pt"
 viewBox="0.00 0.00 297.75 260.00" xmlns="http://www.w3.org/2000/svg" xmlns:xlink="http://www.w3.org/1999/xlink">
<g id="graph0" class="graph" transform="scale(1 1) rotate(0) translate(4 256)">
<title>G</title>
<polygon fill="white" stroke="transparent" points="-4,4 -4,-256 293.75,-256 293.75,4 -4,4"/>
<!-- INTF&#45;IF_APJ_RT_EXEC_OBJECT -->
<g id="node1" class="node">
<title>INTF&#45;IF_APJ_RT_EXEC_OBJECT</title>
<polygon fill="none" stroke="green" points="233.68,-252 12.06,-252 12.06,-216 233.68,-216 233.68,-252"/>
<text text-anchor="middle" x="122.87" y="-229.8" font-family="Times,serif" font-size="14.00">INTF&#45;IF_APJ_RT_EXEC_OBJECT</text>
</g>
<!-- INTF&#45;IF_APJ_DT_EXEC_OBJECT -->
<g id="node2" class="node">
<title>INTF&#45;IF_APJ_DT_EXEC_OBJECT</title>
<g id="a_node2"><a xlink:href="./INTF_IF_APJ_DT_EXEC_OBJECT.html" xlink:title="INTF&#45;IF_APJ_DT_EXEC_OBJECT">
<polygon fill="none" stroke="green" points="233.95,-180 11.8,-180 11.8,-144 233.95,-144 233.95,-180"/>
<text text-anchor="middle" x="122.87" y="-157.8" font-family="Times,serif" font-size="14.00">INTF&#45;IF_APJ_DT_EXEC_OBJECT</text>
</a>
</g>
</g>
<!-- INTF&#45;IF_APJ_RT_EXEC_OBJECT&#45;&gt;INTF&#45;IF_APJ_DT_EXEC_OBJECT -->
<g id="edge1" class="edge">
<title>INTF&#45;IF_APJ_RT_EXEC_OBJECT&#45;&gt;INTF&#45;IF_APJ_DT_EXEC_OBJECT</title>
<path fill="none" stroke="black" d="M122.87,-215.7C122.87,-207.98 122.87,-198.71 122.87,-190.11"/>
<polygon fill="black" stroke="black" points="126.37,-190.1 122.87,-180.1 119.37,-190.1 126.37,-190.1"/>
</g>
<!-- DTEL&#45;INT4 -->
<g id="node3" class="node">
<title>DTEL&#45;INT4</title>
<g id="a_node3"><a xlink:href="./DTEL_INT4.html" xlink:title="DTEL&#45;INT4">
<polygon fill="none" stroke="green" points="95.12,-108 8.63,-108 8.63,-72 95.12,-72 95.12,-108"/>
<text text-anchor="middle" x="51.87" y="-85.8" font-family="Times,serif" font-size="14.00">DTEL&#45;INT4</text>
</a>
</g>
</g>
<!-- INTF&#45;IF_APJ_DT_EXEC_OBJECT&#45;&gt;DTEL&#45;INT4 -->
<g id="edge3" class="edge">
<title>INTF&#45;IF_APJ_DT_EXEC_OBJECT&#45;&gt;DTEL&#45;INT4</title>
<path fill="none" stroke="black" d="M105.32,-143.7C96.64,-135.14 86.01,-124.66 76.52,-115.3"/>
<polygon fill="black" stroke="black" points="78.8,-112.63 69.22,-108.1 73.88,-117.62 78.8,-112.63"/>
</g>
<!-- DTEL&#45;RVARI_VAL_255 -->
<g id="node5" class="node">
<title>DTEL&#45;RVARI_VAL_255</title>
<g id="a_node5"><a xlink:href="./DTEL_RVARI_VAL_255.html" xlink:title="DTEL&#45;RVARI_VAL_255">
<polygon fill="none" stroke="yellow" points="279.61,-108 116.13,-108 116.13,-72 279.61,-72 279.61,-108"/>
<text text-anchor="middle" x="197.87" y="-85.8" font-family="Times,serif" font-size="14.00">DTEL&#45;RVARI_VAL_255</text>
</a>
</g>
</g>
<!-- INTF&#45;IF_APJ_DT_EXEC_OBJECT&#45;&gt;DTEL&#45;RVARI_VAL_255 -->
<g id="edge2" class="edge">
<title>INTF&#45;IF_APJ_DT_EXEC_OBJECT&#45;&gt;DTEL&#45;RVARI_VAL_255</title>
<path fill="none" stroke="black" d="M141.41,-143.7C150.68,-135.05 162.03,-124.45 172.13,-115.03"/>
<polygon fill="black" stroke="black" points="174.62,-117.49 179.55,-108.1 169.85,-112.37 174.62,-117.49"/>
</g>
<!-- DOMA&#45;INT4 -->
<g id="node4" class="node">
<title>DOMA&#45;INT4</title>
<g id="a_node4"><a xlink:href="./DOMA_INT4.html" xlink:title="DOMA&#45;INT4">
<polygon fill="none" stroke="yellow" points="93.62,-36 0.13,-36 0.13,0 93.62,0 93.62,-36"/>
<text text-anchor="middle" x="46.87" y="-13.8" font-family="Times,serif" font-size="14.00">DOMA&#45;INT4</text>
</a>
</g>
</g>
<!-- DTEL&#45;INT4&#45;&gt;DOMA&#45;INT4 -->
<g id="edge4" class="edge">
<title>DTEL&#45;INT4&#45;&gt;DOMA&#45;INT4</title>
<path fill="none" stroke="black" d="M50.64,-71.7C50.09,-63.98 49.42,-54.71 48.81,-46.11"/>
<polygon fill="black" stroke="black" points="52.3,-45.83 48.09,-36.1 45.32,-46.33 52.3,-45.83"/>
</g>
<!-- DOMA&#45;RSDSSELOPT_255 -->
<g id="node6" class="node">
<title>DOMA&#45;RSDSSELOPT_255</title>
<g id="a_node6"><a xlink:href="./DOMA_RSDSSELOPT_255.html" xlink:title="DOMA&#45;RSDSSELOPT_255">
<polygon fill="none" stroke="yellow" points="289.64,-36 112.11,-36 112.11,0 289.64,0 289.64,-36"/>
<text text-anchor="middle" x="200.87" y="-13.8" font-family="Times,serif" font-size="14.00">DOMA&#45;RSDSSELOPT_255</text>
</a>
</g>
</g>
<!-- DTEL&#45;RVARI_VAL_255&#45;&gt;DOMA&#45;RSDSSELOPT_255 -->
<g id="edge5" class="edge">
<title>DTEL&#45;RVARI_VAL_255&#45;&gt;DOMA&#45;RSDSSELOPT_255</title>
<path fill="none" stroke="black" d="M198.61,-71.7C198.94,-63.98 199.34,-54.71 199.71,-46.11"/>
<polygon fill="black" stroke="black" points="203.21,-46.25 200.14,-36.1 196.21,-45.95 203.21,-46.25"/>
</g>
</g>
</svg>
