<?xml version="1.0" encoding="UTF-8" standalone="no"?>
<!DOCTYPE svg PUBLIC "-//W3C//DTD SVG 1.1//EN"
 "http://www.w3.org/Graphics/SVG/1.1/DTD/svg11.dtd">
<!-- Generated by graphviz version 2.47.3 (20210619.1520)
 -->
<!-- Title: G Pages: 1 -->
<svg width="1254pt" height="548pt"
 viewBox="0.00 0.00 1254.35 548.00" xmlns="http://www.w3.org/2000/svg" xmlns:xlink="http://www.w3.org/1999/xlink">
<g id="graph0" class="graph" transform="scale(1 1) rotate(0) translate(4 544)">
<title>G</title>
<polygon fill="white" stroke="transparent" points="-4,4 -4,-544 1250.35,-544 1250.35,4 -4,4"/>
<!-- INTF&#45;IF_XCO_GEN_DDLS_S_FO_ASSOC -->
<g id="node1" class="node">
<title>INTF&#45;IF_XCO_GEN_DDLS_S_FO_ASSOC</title>
<polygon fill="none" stroke="green" points="839.34,-540 567.63,-540 567.63,-504 839.34,-504 839.34,-540"/>
<text text-anchor="middle" x="703.49" y="-517.8" font-family="Times,serif" font-size="14.00">INTF&#45;IF_XCO_GEN_DDLS_S_FO_ASSOC</text>
</g>
<!-- INTF&#45;IF_XCO_GEN_DDLS_DDL_EXPRESSION -->
<g id="node2" class="node">
<title>INTF&#45;IF_XCO_GEN_DDLS_DDL_EXPRESSION</title>
<g id="a_node2"><a xlink:href="./INTF_IF_XCO_GEN_DDLS_DDL_EXPRESSION.html" xlink:title="INTF&#45;IF_XCO_GEN_DDLS_DDL_EXPRESSION">
<polygon fill="none" stroke="green" points="398.09,-468 90.88,-468 90.88,-432 398.09,-432 398.09,-468"/>
<text text-anchor="middle" x="244.49" y="-445.8" font-family="Times,serif" font-size="14.00">INTF&#45;IF_XCO_GEN_DDLS_DDL_EXPRESSION</text>
</a>
</g>
</g>
<!-- INTF&#45;IF_XCO_GEN_DDLS_S_FO_ASSOC&#45;&gt;INTF&#45;IF_XCO_GEN_DDLS_DDL_EXPRESSION -->
<g id="edge4" class="edge">
<title>INTF&#45;IF_XCO_GEN_DDLS_S_FO_ASSOC&#45;&gt;INTF&#45;IF_XCO_GEN_DDLS_DDL_EXPRESSION</title>
<path fill="none" stroke="black" d="M591.79,-503.97C523.63,-493.57 436.44,-480.27 366.48,-469.6"/>
<polygon fill="black" stroke="black" points="366.7,-466.1 356.29,-468.05 365.64,-473.02 366.7,-466.1"/>
</g>
<!-- INTF&#45;IF_XCO_GEN_CDS_CARDINALITY -->
<g id="node4" class="node">
<title>INTF&#45;IF_XCO_GEN_CDS_CARDINALITY</title>
<g id="a_node4"><a xlink:href="./INTF_IF_XCO_GEN_CDS_CARDINALITY.html" xlink:title="INTF&#45;IF_XCO_GEN_CDS_CARDINALITY">
<polygon fill="none" stroke="green" points="704.37,-468 430.61,-468 430.61,-432 704.37,-432 704.37,-468"/>
<text text-anchor="middle" x="567.49" y="-445.8" font-family="Times,serif" font-size="14.00">INTF&#45;IF_XCO_GEN_CDS_CARDINALITY</text>
</a>
</g>
</g>
<!-- INTF&#45;IF_XCO_GEN_DDLS_S_FO_ASSOC&#45;&gt;INTF&#45;IF_XCO_GEN_CDS_CARDINALITY -->
<g id="edge3" class="edge">
<title>INTF&#45;IF_XCO_GEN_DDLS_S_FO_ASSOC&#45;&gt;INTF&#45;IF_XCO_GEN_CDS_CARDINALITY</title>
<path fill="none" stroke="black" d="M670.22,-503.88C652.02,-494.51 629.3,-482.81 609.85,-472.8"/>
<polygon fill="black" stroke="black" points="611.38,-469.65 600.88,-468.19 608.17,-475.88 611.38,-469.65"/>
</g>
<!-- DTEL&#45;SXCO_DDEF_ALIAS_NAME -->
<g id="node13" class="node">
<title>DTEL&#45;SXCO_DDEF_ALIAS_NAME</title>
<g id="a_node13"><a xlink:href="./DTEL_SXCO_DDEF_ALIAS_NAME.html" xlink:title="DTEL&#45;SXCO_DDEF_ALIAS_NAME">
<polygon fill="none" stroke="green" points="956.21,-468 722.76,-468 722.76,-432 956.21,-432 956.21,-468"/>
<text text-anchor="middle" x="839.49" y="-445.8" font-family="Times,serif" font-size="14.00">DTEL&#45;SXCO_DDEF_ALIAS_NAME</text>
</a>
</g>
</g>
<!-- INTF&#45;IF_XCO_GEN_DDLS_S_FO_ASSOC&#45;&gt;DTEL&#45;SXCO_DDEF_ALIAS_NAME -->
<g id="edge2" class="edge">
<title>INTF&#45;IF_XCO_GEN_DDLS_S_FO_ASSOC&#45;&gt;DTEL&#45;SXCO_DDEF_ALIAS_NAME</title>
<path fill="none" stroke="black" d="M736.76,-503.88C754.95,-494.51 777.68,-482.81 797.13,-472.8"/>
<polygon fill="black" stroke="black" points="798.8,-475.88 806.09,-468.19 795.6,-469.65 798.8,-475.88"/>
</g>
<!-- DTEL&#45;SXCO_CDS_OBJECT_NAME -->
<g id="node15" class="node">
<title>DTEL&#45;SXCO_CDS_OBJECT_NAME</title>
<g id="a_node15"><a xlink:href="./DTEL_SXCO_CDS_OBJECT_NAME.html" xlink:title="DTEL&#45;SXCO_CDS_OBJECT_NAME">
<polygon fill="none" stroke="green" points="1208.51,-468 974.46,-468 974.46,-432 1208.51,-432 1208.51,-468"/>
<text text-anchor="middle" x="1091.49" y="-445.8" font-family="Times,serif" font-size="14.00">DTEL&#45;SXCO_CDS_OBJECT_NAME</text>
</a>
</g>
</g>
<!-- INTF&#45;IF_XCO_GEN_DDLS_S_FO_ASSOC&#45;&gt;DTEL&#45;SXCO_CDS_OBJECT_NAME -->
<g id="edge1" class="edge">
<title>INTF&#45;IF_XCO_GEN_DDLS_S_FO_ASSOC&#45;&gt;DTEL&#45;SXCO_CDS_OBJECT_NAME</title>
<path fill="none" stroke="black" d="M797.91,-503.97C855.05,-493.66 928.02,-480.49 986.91,-469.87"/>
<polygon fill="black" stroke="black" points="987.76,-473.27 996.98,-468.05 986.52,-466.38 987.76,-473.27"/>
</g>
<!-- CLAS&#45;CL_XCO_GEN_DDLS_BP_DDL_EXPRESS -->
<g id="node3" class="node">
<title>CLAS&#45;CL_XCO_GEN_DDLS_BP_DDL_EXPRESS</title>
<g id="a_node3"><a xlink:href="./CLAS_CL_XCO_GEN_DDLS_BP_DDL_EXPRESS.html" xlink:title="CLAS&#45;CL_XCO_GEN_DDLS_BP_DDL_EXPRESS">
<polygon fill="none" stroke="green" points="316.96,-396 0.01,-396 0.01,-360 316.96,-360 316.96,-396"/>
<text text-anchor="middle" x="158.49" y="-373.8" font-family="Times,serif" font-size="14.00">CLAS&#45;CL_XCO_GEN_DDLS_BP_DDL_EXPRESS</text>
</a>
</g>
</g>
<!-- INTF&#45;IF_XCO_GEN_DDLS_DDL_EXPRESSION&#45;&gt;CLAS&#45;CL_XCO_GEN_DDLS_BP_DDL_EXPRESS -->
<g id="edge5" class="edge">
<title>INTF&#45;IF_XCO_GEN_DDLS_DDL_EXPRESSION&#45;&gt;CLAS&#45;CL_XCO_GEN_DDLS_BP_DDL_EXPRESS</title>
<path fill="none" stroke="black" d="M223.23,-431.7C212.4,-422.88 199.07,-412.03 187.33,-402.47"/>
<polygon fill="black" stroke="black" points="189.47,-399.7 179.5,-396.1 185.05,-405.13 189.47,-399.7"/>
</g>
<!-- CLAS&#45;CL_XCO_GEN_CDS_BP_CARDINALITY -->
<g id="node5" class="node">
<title>CLAS&#45;CL_XCO_GEN_CDS_BP_CARDINALITY</title>
<g id="a_node5"><a xlink:href="./CLAS_CL_XCO_GEN_CDS_BP_CARDINALITY.html" xlink:title="CLAS&#45;CL_XCO_GEN_CDS_BP_CARDINALITY">
<polygon fill="none" stroke="green" points="914.11,-396 606.87,-396 606.87,-360 914.11,-360 914.11,-396"/>
<text text-anchor="middle" x="760.49" y="-373.8" font-family="Times,serif" font-size="14.00">CLAS&#45;CL_XCO_GEN_CDS_BP_CARDINALITY</text>
</a>
</g>
</g>
<!-- INTF&#45;IF_XCO_GEN_CDS_CARDINALITY&#45;&gt;CLAS&#45;CL_XCO_GEN_CDS_BP_CARDINALITY -->
<g id="edge6" class="edge">
<title>INTF&#45;IF_XCO_GEN_CDS_CARDINALITY&#45;&gt;CLAS&#45;CL_XCO_GEN_CDS_BP_CARDINALITY</title>
<path fill="none" stroke="black" d="M614.7,-431.88C641.55,-422.14 675.37,-409.87 703.67,-399.61"/>
<polygon fill="black" stroke="black" points="705.22,-402.77 713.43,-396.07 702.83,-396.19 705.22,-402.77"/>
</g>
<!-- CLAS&#45;CL_XCO_CDS_CARDINALITY -->
<g id="node6" class="node">
<title>CLAS&#45;CL_XCO_CDS_CARDINALITY</title>
<g id="a_node6"><a xlink:href="./CLAS_CL_XCO_CDS_CARDINALITY.html" xlink:title="CLAS&#45;CL_XCO_CDS_CARDINALITY">
<polygon fill="none" stroke="green" points="886.22,-324 638.75,-324 638.75,-288 886.22,-288 886.22,-324"/>
<text text-anchor="middle" x="762.49" y="-301.8" font-family="Times,serif" font-size="14.00">CLAS&#45;CL_XCO_CDS_CARDINALITY</text>
</a>
</g>
</g>
<!-- CLAS&#45;CL_XCO_GEN_CDS_BP_CARDINALITY&#45;&gt;CLAS&#45;CL_XCO_CDS_CARDINALITY -->
<g id="edge7" class="edge">
<title>CLAS&#45;CL_XCO_GEN_CDS_BP_CARDINALITY&#45;&gt;CLAS&#45;CL_XCO_CDS_CARDINALITY</title>
<path fill="none" stroke="black" d="M760.98,-359.7C761.2,-351.98 761.47,-342.71 761.71,-334.11"/>
<polygon fill="black" stroke="black" points="765.21,-334.2 762,-324.1 758.21,-334 765.21,-334.2"/>
</g>
<!-- CLAS&#45;CL_XCO_CDS_CARDINALITY&#45;&gt;INTF&#45;IF_XCO_GEN_CDS_CARDINALITY -->
<g id="edge13" class="edge">
<title>CLAS&#45;CL_XCO_CDS_CARDINALITY&#45;&gt;INTF&#45;IF_XCO_GEN_CDS_CARDINALITY</title>
<path fill="none" stroke="black" d="M659.2,-324.04C636.61,-331.88 614.41,-343.31 597.49,-360 580.93,-376.32 573.51,-402.07 570.18,-421.69"/>
<polygon fill="black" stroke="black" points="566.68,-421.46 568.73,-431.85 573.61,-422.45 566.68,-421.46"/>
</g>
<!-- CLAS&#45;CL_XCO_CDS_CARDINALITY_CN -->
<g id="node7" class="node">
<title>CLAS&#45;CL_XCO_CDS_CARDINALITY_CN</title>
<g id="a_node7"><a xlink:href="./CLAS_CL_XCO_CDS_CARDINALITY_CN.html" xlink:title="CLAS&#45;CL_XCO_CDS_CARDINALITY_CN">
<polygon fill="none" stroke="green" points="646.67,-108 372.31,-108 372.31,-72 646.67,-72 646.67,-108"/>
<text text-anchor="middle" x="509.49" y="-85.8" font-family="Times,serif" font-size="14.00">CLAS&#45;CL_XCO_CDS_CARDINALITY_CN</text>
</a>
</g>
</g>
<!-- CLAS&#45;CL_XCO_CDS_CARDINALITY&#45;&gt;CLAS&#45;CL_XCO_CDS_CARDINALITY_CN -->
<g id="edge12" class="edge">
<title>CLAS&#45;CL_XCO_CDS_CARDINALITY&#45;&gt;CLAS&#45;CL_XCO_CDS_CARDINALITY_CN</title>
<path fill="none" stroke="black" d="M638.5,-289.65C590.92,-281.09 544.25,-268.72 528.49,-252 494.45,-215.89 493.85,-153.97 499.76,-118.36"/>
<polygon fill="black" stroke="black" points="503.26,-118.7 501.77,-108.21 496.39,-117.34 503.26,-118.7"/>
</g>
<!-- CLAS&#45;CL_XCO_CDS_CARDINALITY_F -->
<g id="node9" class="node">
<title>CLAS&#45;CL_XCO_CDS_CARDINALITY_F</title>
<g id="a_node9"><a xlink:href="./CLAS_CL_XCO_CDS_CARDINALITY_F.html" xlink:title="CLAS&#45;CL_XCO_CDS_CARDINALITY_F">
<polygon fill="none" stroke="green" points="964.51,-180 702.47,-180 702.47,-144 964.51,-144 964.51,-180"/>
<text text-anchor="middle" x="833.49" y="-157.8" font-family="Times,serif" font-size="14.00">CLAS&#45;CL_XCO_CDS_CARDINALITY_F</text>
</a>
</g>
</g>
<!-- CLAS&#45;CL_XCO_CDS_CARDINALITY&#45;&gt;CLAS&#45;CL_XCO_CDS_CARDINALITY_F -->
<g id="edge8" class="edge">
<title>CLAS&#45;CL_XCO_CDS_CARDINALITY&#45;&gt;CLAS&#45;CL_XCO_CDS_CARDINALITY_F</title>
<path fill="none" stroke="black" d="M779.4,-287.91C790.09,-278.65 802.93,-266.2 810.49,-252 820.62,-232.95 823.9,-208.59 826.17,-190.18"/>
<polygon fill="black" stroke="black" points="829.66,-190.46 827.44,-180.11 822.72,-189.59 829.66,-190.46"/>
</g>
<!-- CLAS&#45;CL_XCO_CDS_CARDINALITY_N -->
<g id="node10" class="node">
<title>CLAS&#45;CL_XCO_CDS_CARDINALITY_N</title>
<g id="a_node10"><a xlink:href="./CLAS_CL_XCO_CDS_CARDINALITY_N.html" xlink:title="CLAS&#45;CL_XCO_CDS_CARDINALITY_N">
<polygon fill="none" stroke="green" points="966.83,-108 702.14,-108 702.14,-72 966.83,-72 966.83,-108"/>
<text text-anchor="middle" x="834.49" y="-85.8" font-family="Times,serif" font-size="14.00">CLAS&#45;CL_XCO_CDS_CARDINALITY_N</text>
</a>
</g>
</g>
<!-- CLAS&#45;CL_XCO_CDS_CARDINALITY&#45;&gt;CLAS&#45;CL_XCO_CDS_CARDINALITY_N -->
<g id="edge11" class="edge">
<title>CLAS&#45;CL_XCO_CDS_CARDINALITY&#45;&gt;CLAS&#45;CL_XCO_CDS_CARDINALITY_N</title>
<path fill="none" stroke="black" d="M815.2,-287.89C863.62,-269.97 932.34,-236.41 964.49,-180 972.41,-166.1 973.56,-157.18 964.49,-144 954.96,-130.17 941.31,-119.95 926.39,-112.4"/>
<polygon fill="black" stroke="black" points="927.51,-109.06 916.96,-108.03 924.56,-115.41 927.51,-109.06"/>
</g>
<!-- CLAS&#45;CL_XCO_CDS_CARDINALITY_1 -->
<g id="node11" class="node">
<title>CLAS&#45;CL_XCO_CDS_CARDINALITY_1</title>
<g id="a_node11"><a xlink:href="./CLAS_CL_XCO_CDS_CARDINALITY_1.html" xlink:title="CLAS&#45;CL_XCO_CDS_CARDINALITY_1">
<polygon fill="none" stroke="green" points="1246.22,-108 984.75,-108 984.75,-72 1246.22,-72 1246.22,-108"/>
<text text-anchor="middle" x="1115.49" y="-85.8" font-family="Times,serif" font-size="14.00">CLAS&#45;CL_XCO_CDS_CARDINALITY_1</text>
</a>
</g>
</g>
<!-- CLAS&#45;CL_XCO_CDS_CARDINALITY&#45;&gt;CLAS&#45;CL_XCO_CDS_CARDINALITY_1 -->
<g id="edge9" class="edge">
<title>CLAS&#45;CL_XCO_CDS_CARDINALITY&#45;&gt;CLAS&#45;CL_XCO_CDS_CARDINALITY_1</title>
<path fill="none" stroke="black" d="M844.47,-287.89C874.61,-279.77 908.21,-268.19 936.49,-252 999.94,-215.66 1058.16,-150.89 1090.29,-115.59"/>
<polygon fill="black" stroke="black" points="1092.97,-117.86 1097.13,-108.11 1087.8,-113.14 1092.97,-117.86"/>
</g>
<!-- CLAS&#45;CL_XCO_CDS_CARDINALITY_C -->
<g id="node12" class="node">
<title>CLAS&#45;CL_XCO_CDS_CARDINALITY_C</title>
<g id="a_node12"><a xlink:href="./CLAS_CL_XCO_CDS_CARDINALITY_C.html" xlink:title="CLAS&#45;CL_XCO_CDS_CARDINALITY_C">
<polygon fill="none" stroke="green" points="810.56,-252 546.41,-252 546.41,-216 810.56,-216 810.56,-252"/>
<text text-anchor="middle" x="678.49" y="-229.8" font-family="Times,serif" font-size="14.00">CLAS&#45;CL_XCO_CDS_CARDINALITY_C</text>
</a>
</g>
</g>
<!-- CLAS&#45;CL_XCO_CDS_CARDINALITY&#45;&gt;CLAS&#45;CL_XCO_CDS_CARDINALITY_C -->
<g id="edge10" class="edge">
<title>CLAS&#45;CL_XCO_CDS_CARDINALITY&#45;&gt;CLAS&#45;CL_XCO_CDS_CARDINALITY_C</title>
<path fill="none" stroke="black" d="M735.81,-287.7C724.54,-279.05 711.64,-268.45 700.87,-259.03"/>
<polygon fill="black" stroke="black" points="702.91,-256.15 693.12,-252.1 698.25,-261.37 702.91,-256.15"/>
</g>
<!-- CLAS&#45;CL_XCO_CDS_CARDINALITY_CN&#45;&gt;CLAS&#45;CL_XCO_CDS_CARDINALITY -->
<g id="edge14" class="edge">
<title>CLAS&#45;CL_XCO_CDS_CARDINALITY_CN&#45;&gt;CLAS&#45;CL_XCO_CDS_CARDINALITY</title>
<path fill="none" stroke="black" d="M512.06,-108.21C512.09,-140.88 508.93,-212.15 546.49,-252 560.12,-266.47 596.91,-277.68 636.36,-285.98"/>
<polygon fill="black" stroke="black" points="635.66,-289.41 646.16,-287.97 637.06,-282.55 635.66,-289.41"/>
</g>
<!-- INTF&#45;IF_XCO_GEN_BDEF_RSLT_CARDNALTY -->
<g id="node8" class="node">
<title>INTF&#45;IF_XCO_GEN_BDEF_RSLT_CARDNALTY</title>
<g id="a_node8"><a xlink:href="./INTF_IF_XCO_GEN_BDEF_RSLT_CARDNALTY.html" xlink:title="INTF&#45;IF_XCO_GEN_BDEF_RSLT_CARDNALTY">
<polygon fill="none" stroke="green" points="831.32,-36 517.65,-36 517.65,0 831.32,0 831.32,-36"/>
<text text-anchor="middle" x="674.49" y="-13.8" font-family="Times,serif" font-size="14.00">INTF&#45;IF_XCO_GEN_BDEF_RSLT_CARDNALTY</text>
</a>
</g>
</g>
<!-- CLAS&#45;CL_XCO_CDS_CARDINALITY_CN&#45;&gt;INTF&#45;IF_XCO_GEN_BDEF_RSLT_CARDNALTY -->
<g id="edge16" class="edge">
<title>CLAS&#45;CL_XCO_CDS_CARDINALITY_CN&#45;&gt;INTF&#45;IF_XCO_GEN_BDEF_RSLT_CARDNALTY</title>
<path fill="none" stroke="black" d="M549.85,-71.88C572.51,-62.26 600.96,-50.19 624.96,-40.01"/>
<polygon fill="black" stroke="black" points="626.42,-43.2 634.25,-36.07 623.68,-36.75 626.42,-43.2"/>
</g>
<!-- CLAS&#45;CL_XCO_CDS_CARDINALITY_CN&#45;&gt;CLAS&#45;CL_XCO_CDS_CARDINALITY_F -->
<g id="edge15" class="edge">
<title>CLAS&#45;CL_XCO_CDS_CARDINALITY_CN&#45;&gt;CLAS&#45;CL_XCO_CDS_CARDINALITY_F</title>
<path fill="none" stroke="black" d="M594.29,-108.05C642.51,-118.24 702.59,-131.2 750.5,-141.75"/>
<polygon fill="black" stroke="black" points="750.01,-145.23 760.53,-143.97 751.52,-138.39 750.01,-145.23"/>
</g>
<!-- INTF&#45;IF_XCO_GEN_BDEF_RSLT_CARDNALTY&#45;&gt;INTF&#45;IF_XCO_GEN_CDS_CARDINALITY -->
<g id="edge17" class="edge">
<title>INTF&#45;IF_XCO_GEN_BDEF_RSLT_CARDNALTY&#45;&gt;INTF&#45;IF_XCO_GEN_CDS_CARDINALITY</title>
<path fill="none" stroke="black" d="M517.33,-29.53C452.13,-37.12 386.36,-50.06 363.49,-72 334.3,-100 344.49,-120.55 344.49,-161 344.49,-307 344.49,-307 344.49,-307 344.49,-372.79 414.39,-409.42 475.92,-428.92"/>
<polygon fill="black" stroke="black" points="475.13,-432.34 485.72,-431.91 477.17,-425.64 475.13,-432.34"/>
</g>
<!-- CLAS&#45;CL_XCO_CDS_CARDINALITY_F&#45;&gt;CLAS&#45;CL_XCO_CDS_CARDINALITY -->
<g id="edge22" class="edge">
<title>CLAS&#45;CL_XCO_CDS_CARDINALITY_F&#45;&gt;CLAS&#45;CL_XCO_CDS_CARDINALITY</title>
<path fill="none" stroke="black" d="M840.62,-180.11C842.92,-198.83 840.61,-229.21 828.49,-252 822.53,-263.2 813.27,-273.32 803.49,-281.63"/>
<polygon fill="black" stroke="black" points="801.25,-278.95 795.6,-287.91 805.6,-284.43 801.25,-278.95"/>
</g>
<!-- CLAS&#45;CL_XCO_CDS_CARDINALITY_F&#45;&gt;CLAS&#45;CL_XCO_CDS_CARDINALITY_CN -->
<g id="edge20" class="edge">
<title>CLAS&#45;CL_XCO_CDS_CARDINALITY_F&#45;&gt;CLAS&#45;CL_XCO_CDS_CARDINALITY_CN</title>
<path fill="none" stroke="black" d="M748.75,-143.97C700.55,-133.78 640.47,-120.82 592.55,-110.26"/>
<polygon fill="black" stroke="black" points="593.03,-106.79 582.51,-108.05 591.53,-113.62 593.03,-106.79"/>
</g>
<!-- CLAS&#45;CL_XCO_CDS_CARDINALITY_F&#45;&gt;CLAS&#45;CL_XCO_CDS_CARDINALITY_N -->
<g id="edge21" class="edge">
<title>CLAS&#45;CL_XCO_CDS_CARDINALITY_F&#45;&gt;CLAS&#45;CL_XCO_CDS_CARDINALITY_N</title>
<path fill="none" stroke="black" d="M827.82,-143.7C827.13,-135.98 827.04,-126.71 827.5,-118.11"/>
<polygon fill="black" stroke="black" points="831,-118.36 828.35,-108.1 824.02,-117.78 831,-118.36"/>
</g>
<!-- CLAS&#45;CL_XCO_CDS_CARDINALITY_F&#45;&gt;CLAS&#45;CL_XCO_CDS_CARDINALITY_1 -->
<g id="edge19" class="edge">
<title>CLAS&#45;CL_XCO_CDS_CARDINALITY_F&#45;&gt;CLAS&#45;CL_XCO_CDS_CARDINALITY_1</title>
<path fill="none" stroke="black" d="M896.22,-143.97C935.92,-133.85 987.68,-120.98 1030.96,-110.46"/>
<polygon fill="black" stroke="black" points="1032.02,-113.81 1040.91,-108.05 1030.37,-107.01 1032.02,-113.81"/>
</g>
<!-- CLAS&#45;CL_XCO_CDS_CARDINALITY_F&#45;&gt;CLAS&#45;CL_XCO_CDS_CARDINALITY_C -->
<g id="edge18" class="edge">
<title>CLAS&#45;CL_XCO_CDS_CARDINALITY_F&#45;&gt;CLAS&#45;CL_XCO_CDS_CARDINALITY_C</title>
<path fill="none" stroke="black" d="M801.58,-180.07C781.42,-189.63 754.96,-201.63 731.71,-211.79"/>
<polygon fill="black" stroke="black" points="730.08,-208.68 722.3,-215.88 732.87,-215.1 730.08,-208.68"/>
</g>
<!-- CLAS&#45;CL_XCO_CDS_CARDINALITY_N&#45;&gt;CLAS&#45;CL_XCO_CDS_CARDINALITY -->
<g id="edge23" class="edge">
<title>CLAS&#45;CL_XCO_CDS_CARDINALITY_N&#45;&gt;CLAS&#45;CL_XCO_CDS_CARDINALITY</title>
<path fill="none" stroke="black" d="M934.44,-108.03C953.47,-115.86 970.98,-127.3 982.49,-144 991.56,-157.18 990.41,-166.1 982.49,-180 952.23,-233.08 889.6,-265.93 838.8,-284.55"/>
<polygon fill="black" stroke="black" points="837.4,-281.34 829.14,-287.98 839.74,-287.93 837.4,-281.34"/>
</g>
<!-- CLAS&#45;CL_XCO_CDS_CARDINALITY_N&#45;&gt;INTF&#45;IF_XCO_GEN_BDEF_RSLT_CARDNALTY -->
<g id="edge25" class="edge">
<title>CLAS&#45;CL_XCO_CDS_CARDINALITY_N&#45;&gt;INTF&#45;IF_XCO_GEN_BDEF_RSLT_CARDNALTY</title>
<path fill="none" stroke="black" d="M795.35,-71.88C773.47,-62.31 746.03,-50.3 722.82,-40.15"/>
<polygon fill="black" stroke="black" points="724.06,-36.87 713.5,-36.07 721.26,-43.28 724.06,-36.87"/>
</g>
<!-- CLAS&#45;CL_XCO_CDS_CARDINALITY_N&#45;&gt;CLAS&#45;CL_XCO_CDS_CARDINALITY_F -->
<g id="edge24" class="edge">
<title>CLAS&#45;CL_XCO_CDS_CARDINALITY_N&#45;&gt;CLAS&#45;CL_XCO_CDS_CARDINALITY_F</title>
<path fill="none" stroke="black" d="M840.14,-108.1C840.83,-115.79 840.94,-125.05 840.48,-133.67"/>
<polygon fill="black" stroke="black" points="836.99,-133.44 839.65,-143.7 843.96,-134.02 836.99,-133.44"/>
</g>
<!-- CLAS&#45;CL_XCO_CDS_CARDINALITY_1&#45;&gt;CLAS&#45;CL_XCO_CDS_CARDINALITY -->
<g id="edge26" class="edge">
<title>CLAS&#45;CL_XCO_CDS_CARDINALITY_1&#45;&gt;CLAS&#45;CL_XCO_CDS_CARDINALITY</title>
<path fill="none" stroke="black" d="M1107.35,-108.11C1084.94,-140.93 1022.74,-212.91 954.49,-252 929.2,-266.48 899.64,-277.27 871.37,-285.2"/>
<polygon fill="black" stroke="black" points="870.18,-281.9 861.44,-287.89 872.01,-288.65 870.18,-281.9"/>
</g>
<!-- CLAS&#45;CL_XCO_CDS_CARDINALITY_1&#45;&gt;INTF&#45;IF_XCO_GEN_BDEF_RSLT_CARDNALTY -->
<g id="edge28" class="edge">
<title>CLAS&#45;CL_XCO_CDS_CARDINALITY_1&#45;&gt;INTF&#45;IF_XCO_GEN_BDEF_RSLT_CARDNALTY</title>
<path fill="none" stroke="black" d="M1008.17,-71.97C942.81,-61.59 859.26,-48.33 792.11,-37.67"/>
<polygon fill="black" stroke="black" points="792.33,-34.16 781.9,-36.05 791.23,-41.07 792.33,-34.16"/>
</g>
<!-- CLAS&#45;CL_XCO_CDS_CARDINALITY_1&#45;&gt;CLAS&#45;CL_XCO_CDS_CARDINALITY_F -->
<g id="edge27" class="edge">
<title>CLAS&#45;CL_XCO_CDS_CARDINALITY_1&#45;&gt;CLAS&#45;CL_XCO_CDS_CARDINALITY_F</title>
<path fill="none" stroke="black" d="M1052.45,-108.11C1012.77,-118.22 961.12,-131.06 917.93,-141.56"/>
<polygon fill="black" stroke="black" points="916.89,-138.21 908,-143.97 918.54,-145.01 916.89,-138.21"/>
</g>
<!-- CLAS&#45;CL_XCO_CDS_CARDINALITY_C&#45;&gt;CLAS&#45;CL_XCO_CDS_CARDINALITY -->
<g id="edge29" class="edge">
<title>CLAS&#45;CL_XCO_CDS_CARDINALITY_C&#45;&gt;CLAS&#45;CL_XCO_CDS_CARDINALITY</title>
<path fill="none" stroke="black" d="M704.91,-252.1C716.26,-260.8 729.3,-271.52 740.17,-281.03"/>
<polygon fill="black" stroke="black" points="737.85,-283.65 747.64,-287.7 742.51,-278.43 737.85,-283.65"/>
</g>
<!-- CLAS&#45;CL_XCO_CDS_CARDINALITY_C&#45;&gt;INTF&#45;IF_XCO_GEN_BDEF_RSLT_CARDNALTY -->
<g id="edge31" class="edge">
<title>CLAS&#45;CL_XCO_CDS_CARDINALITY_C&#45;&gt;INTF&#45;IF_XCO_GEN_BDEF_RSLT_CARDNALTY</title>
<path fill="none" stroke="black" d="M678.17,-215.85C677.47,-178.83 675.84,-91.18 675,-46.39"/>
<polygon fill="black" stroke="black" points="678.5,-46.17 674.81,-36.23 671.5,-46.3 678.5,-46.17"/>
</g>
<!-- CLAS&#45;CL_XCO_CDS_CARDINALITY_C&#45;&gt;CLAS&#45;CL_XCO_CDS_CARDINALITY_F -->
<g id="edge30" class="edge">
<title>CLAS&#45;CL_XCO_CDS_CARDINALITY_C&#45;&gt;CLAS&#45;CL_XCO_CDS_CARDINALITY_F</title>
<path fill="none" stroke="black" d="M710.51,-215.88C730.7,-206.31 757.16,-194.3 780.4,-184.15"/>
<polygon fill="black" stroke="black" points="782.02,-187.26 789.8,-180.07 779.23,-180.84 782.02,-187.26"/>
</g>
<!-- DOMA&#45;CHAR30 -->
<g id="node14" class="node">
<title>DOMA&#45;CHAR30</title>
<g id="a_node14"><a xlink:href="./DOMA_CHAR30.html" xlink:title="DOMA&#45;CHAR30">
<polygon fill="none" stroke="green" points="1100.8,-396 984.17,-396 984.17,-360 1100.8,-360 1100.8,-396"/>
<text text-anchor="middle" x="1042.49" y="-373.8" font-family="Times,serif" font-size="14.00">DOMA&#45;CHAR30</text>
</a>
</g>
</g>
<!-- DTEL&#45;SXCO_DDEF_ALIAS_NAME&#45;&gt;DOMA&#45;CHAR30 -->
<g id="edge32" class="edge">
<title>DTEL&#45;SXCO_DDEF_ALIAS_NAME&#45;&gt;DOMA&#45;CHAR30</title>
<path fill="none" stroke="black" d="M888.89,-431.97C917.37,-422.14 953.37,-409.73 983.36,-399.39"/>
<polygon fill="black" stroke="black" points="984.55,-402.68 992.87,-396.11 982.27,-396.06 984.55,-402.68"/>
</g>
<!-- DTEL&#45;SXCO_CDS_OBJECT_NAME&#45;&gt;DOMA&#45;CHAR30 -->
<g id="edge33" class="edge">
<title>DTEL&#45;SXCO_CDS_OBJECT_NAME&#45;&gt;DOMA&#45;CHAR30</title>
<path fill="none" stroke="black" d="M1079.37,-431.7C1073.62,-423.47 1066.62,-413.48 1060.28,-404.42"/>
<polygon fill="black" stroke="black" points="1063.06,-402.29 1054.46,-396.1 1057.33,-406.3 1063.06,-402.29"/>
</g>
</g>
</svg>
