<?xml version="1.0" encoding="UTF-8" standalone="no"?>
<!DOCTYPE svg PUBLIC "-//W3C//DTD SVG 1.1//EN"
 "http://www.w3.org/Graphics/SVG/1.1/DTD/svg11.dtd">
<!-- Generated by graphviz version 2.47.3 (20210619.1520)
 -->
<!-- Title: G Pages: 1 -->
<svg width="1909pt" height="332pt"
 viewBox="0.00 0.00 1909.07 332.00" xmlns="http://www.w3.org/2000/svg" xmlns:xlink="http://www.w3.org/1999/xlink">
<g id="graph0" class="graph" transform="scale(1 1) rotate(0) translate(4 328)">
<title>G</title>
<polygon fill="white" stroke="transparent" points="-4,4 -4,-328 1905.07,-328 1905.07,4 -4,4"/>
<!-- INTF&#45;IF_ABAP_BEHAVIOR_TESTDOUBLE -->
<g id="node1" class="node">
<title>INTF&#45;IF_ABAP_BEHAVIOR_TESTDOUBLE</title>
<polygon fill="none" stroke="green" points="1093.58,-324 808.48,-324 808.48,-288 1093.58,-288 1093.58,-324"/>
<text text-anchor="middle" x="951.03" y="-301.8" font-family="Times,serif" font-size="14.00">INTF&#45;IF_ABAP_BEHAVIOR_TESTDOUBLE</text>
</g>
<!-- DTEL&#45;ABP_BEHV_PID -->
<g id="node2" class="node">
<title>DTEL&#45;ABP_BEHV_PID</title>
<g id="a_node2"><a xlink:href="./DTEL_ABP_BEHV_PID.html" xlink:title="DTEL&#45;ABP_BEHV_PID">
<polygon fill="none" stroke="green" points="164.33,-252 5.73,-252 5.73,-216 164.33,-216 164.33,-252"/>
<text text-anchor="middle" x="85.03" y="-229.8" font-family="Times,serif" font-size="14.00">DTEL&#45;ABP_BEHV_PID</text>
</a>
</g>
</g>
<!-- INTF&#45;IF_ABAP_BEHAVIOR_TESTDOUBLE&#45;&gt;DTEL&#45;ABP_BEHV_PID -->
<g id="edge9" class="edge">
<title>INTF&#45;IF_ABAP_BEHAVIOR_TESTDOUBLE&#45;&gt;DTEL&#45;ABP_BEHV_PID</title>
<path fill="none" stroke="black" d="M808.49,-299.83C653.41,-293.13 398.41,-278.96 180.03,-252 178.1,-251.76 176.14,-251.51 174.18,-251.25"/>
<polygon fill="black" stroke="black" points="174.63,-247.78 164.24,-249.84 173.65,-254.71 174.63,-247.78"/>
</g>
<!-- DTEL&#45;ABP_ENTITY_NAME -->
<g id="node4" class="node">
<title>DTEL&#45;ABP_ENTITY_NAME</title>
<g id="a_node4"><a xlink:href="./DTEL_ABP_ENTITY_NAME.html" xlink:title="DTEL&#45;ABP_ENTITY_NAME">
<polygon fill="none" stroke="green" points="1184.92,-108 995.14,-108 995.14,-72 1184.92,-72 1184.92,-108"/>
<text text-anchor="middle" x="1090.03" y="-85.8" font-family="Times,serif" font-size="14.00">DTEL&#45;ABP_ENTITY_NAME</text>
</a>
</g>
</g>
<!-- INTF&#45;IF_ABAP_BEHAVIOR_TESTDOUBLE&#45;&gt;DTEL&#45;ABP_ENTITY_NAME -->
<g id="edge8" class="edge">
<title>INTF&#45;IF_ABAP_BEHAVIOR_TESTDOUBLE&#45;&gt;DTEL&#45;ABP_ENTITY_NAME</title>
<path fill="none" stroke="black" d="M1093.95,-302.74C1182.8,-297.95 1285.39,-285.12 1314.03,-252 1332.25,-230.92 1308.14,-155.32 1297.03,-144 1281.99,-128.68 1238.24,-116.38 1194.81,-107.5"/>
<polygon fill="black" stroke="black" points="1195.46,-104.06 1184.97,-105.54 1194.1,-110.92 1195.46,-104.06"/>
</g>
<!-- TTYP&#45;ABP_BEHV_AUTHORIZATION_TAB -->
<g id="node6" class="node">
<title>TTYP&#45;ABP_BEHV_AUTHORIZATION_TAB</title>
<g id="a_node6"><a xlink:href="./TTYP_ABP_BEHV_AUTHORIZATION_TAB.html" xlink:title="TTYP&#45;ABP_BEHV_AUTHORIZATION_TAB">
<polygon fill="none" stroke="green" points="1646.57,-252 1361.49,-252 1361.49,-216 1646.57,-216 1646.57,-252"/>
<text text-anchor="middle" x="1504.03" y="-229.8" font-family="Times,serif" font-size="14.00">TTYP&#45;ABP_BEHV_AUTHORIZATION_TAB</text>
</a>
</g>
</g>
<!-- INTF&#45;IF_ABAP_BEHAVIOR_TESTDOUBLE&#45;&gt;TTYP&#45;ABP_BEHV_AUTHORIZATION_TAB -->
<g id="edge7" class="edge">
<title>INTF&#45;IF_ABAP_BEHAVIOR_TESTDOUBLE&#45;&gt;TTYP&#45;ABP_BEHV_AUTHORIZATION_TAB</title>
<path fill="none" stroke="black" d="M1085.6,-287.97C1168.48,-277.47 1274.7,-264.03 1359.38,-253.31"/>
<polygon fill="black" stroke="black" points="1359.85,-256.78 1369.33,-252.05 1358.97,-249.83 1359.85,-256.78"/>
</g>
<!-- TTYP&#45;ABP_BEHV_GLOBAL_PERMISSION_TAB -->
<g id="node8" class="node">
<title>TTYP&#45;ABP_BEHV_GLOBAL_PERMISSION_TAB</title>
<g id="a_node8"><a xlink:href="./TTYP_ABP_BEHV_GLOBAL_PERMISSION_TAB.html" xlink:title="TTYP&#45;ABP_BEHV_GLOBAL_PERMISSION_TAB">
<polygon fill="none" stroke="green" points="812.49,-252 495.57,-252 495.57,-216 812.49,-216 812.49,-252"/>
<text text-anchor="middle" x="654.03" y="-229.8" font-family="Times,serif" font-size="14.00">TTYP&#45;ABP_BEHV_GLOBAL_PERMISSION_TAB</text>
</a>
</g>
</g>
<!-- INTF&#45;IF_ABAP_BEHAVIOR_TESTDOUBLE&#45;&gt;TTYP&#45;ABP_BEHV_GLOBAL_PERMISSION_TAB -->
<g id="edge6" class="edge">
<title>INTF&#45;IF_ABAP_BEHAVIOR_TESTDOUBLE&#45;&gt;TTYP&#45;ABP_BEHV_GLOBAL_PERMISSION_TAB</title>
<path fill="none" stroke="black" d="M878.75,-287.97C835.73,-277.83 781,-264.93 736.33,-254.4"/>
<polygon fill="black" stroke="black" points="736.91,-250.94 726.37,-252.05 735.3,-257.75 736.91,-250.94"/>
</g>
<!-- TTYP&#45;ABP_BEHV_FEATURES_TAB -->
<g id="node10" class="node">
<title>TTYP&#45;ABP_BEHV_FEATURES_TAB</title>
<g id="a_node10"><a xlink:href="./TTYP_ABP_BEHV_FEATURES_TAB.html" xlink:title="TTYP&#45;ABP_BEHV_FEATURES_TAB">
<polygon fill="none" stroke="green" points="1071.28,-252 830.78,-252 830.78,-216 1071.28,-216 1071.28,-252"/>
<text text-anchor="middle" x="951.03" y="-229.8" font-family="Times,serif" font-size="14.00">TTYP&#45;ABP_BEHV_FEATURES_TAB</text>
</a>
</g>
</g>
<!-- INTF&#45;IF_ABAP_BEHAVIOR_TESTDOUBLE&#45;&gt;TTYP&#45;ABP_BEHV_FEATURES_TAB -->
<g id="edge5" class="edge">
<title>INTF&#45;IF_ABAP_BEHAVIOR_TESTDOUBLE&#45;&gt;TTYP&#45;ABP_BEHV_FEATURES_TAB</title>
<path fill="none" stroke="black" d="M951.03,-287.7C951.03,-279.98 951.03,-270.71 951.03,-262.11"/>
<polygon fill="black" stroke="black" points="954.53,-262.1 951.03,-252.1 947.53,-262.1 954.53,-262.1"/>
</g>
<!-- TTYP&#45;ABP_BEHV_LOCKS_TAB -->
<g id="node12" class="node">
<title>TTYP&#45;ABP_BEHV_LOCKS_TAB</title>
<g id="a_node12"><a xlink:href="./TTYP_ABP_BEHV_LOCKS_TAB.html" xlink:title="TTYP&#45;ABP_BEHV_LOCKS_TAB">
<polygon fill="none" stroke="green" points="1304.89,-252 1089.17,-252 1089.17,-216 1304.89,-216 1304.89,-252"/>
<text text-anchor="middle" x="1197.03" y="-229.8" font-family="Times,serif" font-size="14.00">TTYP&#45;ABP_BEHV_LOCKS_TAB</text>
</a>
</g>
</g>
<!-- INTF&#45;IF_ABAP_BEHAVIOR_TESTDOUBLE&#45;&gt;TTYP&#45;ABP_BEHV_LOCKS_TAB -->
<g id="edge4" class="edge">
<title>INTF&#45;IF_ABAP_BEHAVIOR_TESTDOUBLE&#45;&gt;TTYP&#45;ABP_BEHV_LOCKS_TAB</title>
<path fill="none" stroke="black" d="M1010.89,-287.97C1046.01,-277.97 1090.55,-265.3 1127.26,-254.85"/>
<polygon fill="black" stroke="black" points="1128.24,-258.21 1136.9,-252.11 1126.32,-251.48 1128.24,-258.21"/>
</g>
<!-- TTYP&#45;ABP_BEHV_RETRIEVALS_TAB -->
<g id="node14" class="node">
<title>TTYP&#45;ABP_BEHV_RETRIEVALS_TAB</title>
<g id="a_node14"><a xlink:href="./TTYP_ABP_BEHV_RETRIEVALS_TAB.html" xlink:title="TTYP&#45;ABP_BEHV_RETRIEVALS_TAB">
<polygon fill="none" stroke="green" points="477.55,-252 222.51,-252 222.51,-216 477.55,-216 477.55,-252"/>
<text text-anchor="middle" x="350.03" y="-229.8" font-family="Times,serif" font-size="14.00">TTYP&#45;ABP_BEHV_RETRIEVALS_TAB</text>
</a>
</g>
</g>
<!-- INTF&#45;IF_ABAP_BEHAVIOR_TESTDOUBLE&#45;&gt;TTYP&#45;ABP_BEHV_RETRIEVALS_TAB -->
<g id="edge3" class="edge">
<title>INTF&#45;IF_ABAP_BEHAVIOR_TESTDOUBLE&#45;&gt;TTYP&#45;ABP_BEHV_RETRIEVALS_TAB</title>
<path fill="none" stroke="black" d="M808.32,-289.06C719.13,-279.01 601.59,-265.61 487.6,-252.06"/>
<polygon fill="black" stroke="black" points="487.99,-248.58 477.64,-250.88 487.16,-255.53 487.99,-248.58"/>
</g>
<!-- TTYP&#45;ABP_BEHV_CHANGES_TAB -->
<g id="node18" class="node">
<title>TTYP&#45;ABP_BEHV_CHANGES_TAB</title>
<g id="a_node18"><a xlink:href="./TTYP_ABP_BEHV_CHANGES_TAB.html" xlink:title="TTYP&#45;ABP_BEHV_CHANGES_TAB">
<polygon fill="none" stroke="green" points="1901.11,-252 1664.95,-252 1664.95,-216 1901.11,-216 1901.11,-252"/>
<text text-anchor="middle" x="1783.03" y="-229.8" font-family="Times,serif" font-size="14.00">TTYP&#45;ABP_BEHV_CHANGES_TAB</text>
</a>
</g>
</g>
<!-- INTF&#45;IF_ABAP_BEHAVIOR_TESTDOUBLE&#45;&gt;TTYP&#45;ABP_BEHV_CHANGES_TAB -->
<g id="edge2" class="edge">
<title>INTF&#45;IF_ABAP_BEHAVIOR_TESTDOUBLE&#45;&gt;TTYP&#45;ABP_BEHV_CHANGES_TAB</title>
<path fill="none" stroke="black" d="M1093.7,-296.71C1233.9,-288 1454.16,-272.82 1654.62,-252.11"/>
<polygon fill="black" stroke="black" points="1655.17,-255.58 1664.75,-251.06 1654.45,-248.61 1655.17,-255.58"/>
</g>
<!-- DTEL&#45;ABP_ROOT_ENTITY_NAME -->
<g id="node22" class="node">
<title>DTEL&#45;ABP_ROOT_ENTITY_NAME</title>
<g id="a_node22"><a xlink:href="./DTEL_ABP_ROOT_ENTITY_NAME.html" xlink:title="DTEL&#45;ABP_ROOT_ENTITY_NAME">
<polygon fill="none" stroke="green" points="312.53,-108 77.53,-108 77.53,-72 312.53,-72 312.53,-108"/>
<text text-anchor="middle" x="195.03" y="-85.8" font-family="Times,serif" font-size="14.00">DTEL&#45;ABP_ROOT_ENTITY_NAME</text>
</a>
</g>
</g>
<!-- INTF&#45;IF_ABAP_BEHAVIOR_TESTDOUBLE&#45;&gt;DTEL&#45;ABP_ROOT_ENTITY_NAME -->
<g id="edge1" class="edge">
<title>INTF&#45;IF_ABAP_BEHAVIOR_TESTDOUBLE&#45;&gt;DTEL&#45;ABP_ROOT_ENTITY_NAME</title>
<path fill="none" stroke="black" d="M808.49,-304.38C606.02,-302.08 254.91,-292.25 213.03,-252 177.22,-217.59 182.25,-154.05 188.81,-117.94"/>
<polygon fill="black" stroke="black" points="192.25,-118.59 190.76,-108.1 185.38,-117.23 192.25,-118.59"/>
</g>
<!-- DOMA&#45;XSDUUID_RAW -->
<g id="node3" class="node">
<title>DOMA&#45;XSDUUID_RAW</title>
<g id="a_node3"><a xlink:href="./DOMA_XSDUUID_RAW.html" xlink:title="DOMA&#45;XSDUUID_RAW">
<polygon fill="none" stroke="green" points="166.09,-180 -0.03,-180 -0.03,-144 166.09,-144 166.09,-180"/>
<text text-anchor="middle" x="83.03" y="-157.8" font-family="Times,serif" font-size="14.00">DOMA&#45;XSDUUID_RAW</text>
</a>
</g>
</g>
<!-- DTEL&#45;ABP_BEHV_PID&#45;&gt;DOMA&#45;XSDUUID_RAW -->
<g id="edge10" class="edge">
<title>DTEL&#45;ABP_BEHV_PID&#45;&gt;DOMA&#45;XSDUUID_RAW</title>
<path fill="none" stroke="black" d="M84.54,-215.7C84.31,-207.98 84.05,-198.71 83.8,-190.11"/>
<polygon fill="black" stroke="black" points="87.3,-190 83.52,-180.1 80.31,-190.2 87.3,-190"/>
</g>
<!-- DOMA&#45;ABP_ENTITY_NAME -->
<g id="node5" class="node">
<title>DOMA&#45;ABP_ENTITY_NAME</title>
<g id="a_node5"><a xlink:href="./DOMA_ABP_ENTITY_NAME.html" xlink:title="DOMA&#45;ABP_ENTITY_NAME">
<polygon fill="none" stroke="yellow" points="307.42,-36 110.64,-36 110.64,0 307.42,0 307.42,-36"/>
<text text-anchor="middle" x="209.03" y="-13.8" font-family="Times,serif" font-size="14.00">DOMA&#45;ABP_ENTITY_NAME</text>
</a>
</g>
</g>
<!-- DTEL&#45;ABP_ENTITY_NAME&#45;&gt;DOMA&#45;ABP_ENTITY_NAME -->
<g id="edge11" class="edge">
<title>DTEL&#45;ABP_ENTITY_NAME&#45;&gt;DOMA&#45;ABP_ENTITY_NAME</title>
<path fill="none" stroke="black" d="M995.18,-84.81C850.24,-77.87 565.07,-62.11 324.03,-36 321.91,-35.77 319.78,-35.53 317.62,-35.28"/>
<polygon fill="black" stroke="black" points="317.8,-31.78 307.46,-34.06 316.97,-38.73 317.8,-31.78"/>
</g>
<!-- TABL&#45;ABP_BEHV_AUTHORIZATION -->
<g id="node7" class="node">
<title>TABL&#45;ABP_BEHV_AUTHORIZATION</title>
<g id="a_node7"><a xlink:href="./TABL_ABP_BEHV_AUTHORIZATION.html" xlink:title="TABL&#45;ABP_BEHV_AUTHORIZATION">
<polygon fill="none" stroke="green" points="1620.63,-180 1369.43,-180 1369.43,-144 1620.63,-144 1620.63,-180"/>
<text text-anchor="middle" x="1495.03" y="-157.8" font-family="Times,serif" font-size="14.00">TABL&#45;ABP_BEHV_AUTHORIZATION</text>
</a>
</g>
</g>
<!-- TTYP&#45;ABP_BEHV_AUTHORIZATION_TAB&#45;&gt;TABL&#45;ABP_BEHV_AUTHORIZATION -->
<g id="edge12" class="edge">
<title>TTYP&#45;ABP_BEHV_AUTHORIZATION_TAB&#45;&gt;TABL&#45;ABP_BEHV_AUTHORIZATION</title>
<path fill="none" stroke="black" d="M1501.8,-215.7C1500.81,-207.98 1499.62,-198.71 1498.52,-190.11"/>
<polygon fill="black" stroke="black" points="1501.98,-189.58 1497.23,-180.1 1495.03,-190.47 1501.98,-189.58"/>
</g>
<!-- TABL&#45;ABP_BEHV_AUTHORIZATION&#45;&gt;DTEL&#45;ABP_ENTITY_NAME -->
<g id="edge13" class="edge">
<title>TABL&#45;ABP_BEHV_AUTHORIZATION&#45;&gt;DTEL&#45;ABP_ENTITY_NAME</title>
<path fill="none" stroke="black" d="M1396.47,-143.97C1335.48,-133.42 1257.22,-119.9 1195.06,-109.15"/>
<polygon fill="black" stroke="black" points="1195.29,-105.64 1184.84,-107.39 1194.09,-112.54 1195.29,-105.64"/>
</g>
<!-- TABL&#45;ABP_BEHV_GLOBAL_PERMISSIONS -->
<g id="node9" class="node">
<title>TABL&#45;ABP_BEHV_GLOBAL_PERMISSIONS</title>
<g id="a_node9"><a xlink:href="./TABL_ABP_BEHV_GLOBAL_PERMISSIONS.html" xlink:title="TABL&#45;ABP_BEHV_GLOBAL_PERMISSIONS">
<polygon fill="none" stroke="green" points="859.83,-180 568.23,-180 568.23,-144 859.83,-144 859.83,-180"/>
<text text-anchor="middle" x="714.03" y="-157.8" font-family="Times,serif" font-size="14.00">TABL&#45;ABP_BEHV_GLOBAL_PERMISSIONS</text>
</a>
</g>
</g>
<!-- TTYP&#45;ABP_BEHV_GLOBAL_PERMISSION_TAB&#45;&gt;TABL&#45;ABP_BEHV_GLOBAL_PERMISSIONS -->
<g id="edge14" class="edge">
<title>TTYP&#45;ABP_BEHV_GLOBAL_PERMISSION_TAB&#45;&gt;TABL&#45;ABP_BEHV_GLOBAL_PERMISSIONS</title>
<path fill="none" stroke="black" d="M668.86,-215.7C676.05,-207.3 684.83,-197.07 692.72,-187.86"/>
<polygon fill="black" stroke="black" points="695.52,-189.97 699.37,-180.1 690.2,-185.42 695.52,-189.97"/>
</g>
<!-- TABL&#45;ABP_BEHV_GLOBAL_PERMISSIONS&#45;&gt;DTEL&#45;ABP_ENTITY_NAME -->
<g id="edge15" class="edge">
<title>TABL&#45;ABP_BEHV_GLOBAL_PERMISSIONS&#45;&gt;DTEL&#45;ABP_ENTITY_NAME</title>
<path fill="none" stroke="black" d="M805.53,-143.97C860.79,-133.68 931.32,-120.55 988.33,-109.93"/>
<polygon fill="black" stroke="black" points="989.26,-113.32 998.45,-108.05 987.97,-106.44 989.26,-113.32"/>
</g>
<!-- TABL&#45;ABP_BEHV_FEATURES -->
<g id="node11" class="node">
<title>TABL&#45;ABP_BEHV_FEATURES</title>
<g id="a_node11"><a xlink:href="./TABL_ABP_BEHV_FEATURES.html" xlink:title="TABL&#45;ABP_BEHV_FEATURES">
<polygon fill="none" stroke="green" points="1086.84,-180 879.22,-180 879.22,-144 1086.84,-144 1086.84,-180"/>
<text text-anchor="middle" x="983.03" y="-157.8" font-family="Times,serif" font-size="14.00">TABL&#45;ABP_BEHV_FEATURES</text>
</a>
</g>
</g>
<!-- TTYP&#45;ABP_BEHV_FEATURES_TAB&#45;&gt;TABL&#45;ABP_BEHV_FEATURES -->
<g id="edge16" class="edge">
<title>TTYP&#45;ABP_BEHV_FEATURES_TAB&#45;&gt;TABL&#45;ABP_BEHV_FEATURES</title>
<path fill="none" stroke="black" d="M958.94,-215.7C962.58,-207.73 966.98,-198.1 971.02,-189.26"/>
<polygon fill="black" stroke="black" points="974.24,-190.65 975.21,-180.1 967.87,-187.74 974.24,-190.65"/>
</g>
<!-- TABL&#45;ABP_BEHV_FEATURES&#45;&gt;DTEL&#45;ABP_ENTITY_NAME -->
<g id="edge17" class="edge">
<title>TABL&#45;ABP_BEHV_FEATURES&#45;&gt;DTEL&#45;ABP_ENTITY_NAME</title>
<path fill="none" stroke="black" d="M1009.2,-143.88C1023.07,-134.81 1040.27,-123.55 1055.24,-113.76"/>
<polygon fill="black" stroke="black" points="1057.3,-116.59 1063.75,-108.19 1053.47,-110.74 1057.3,-116.59"/>
</g>
<!-- TABL&#45;ABP_BEHV_LOCKS -->
<g id="node13" class="node">
<title>TABL&#45;ABP_BEHV_LOCKS</title>
<g id="a_node13"><a xlink:href="./TABL_ABP_BEHV_LOCKS.html" xlink:title="TABL&#45;ABP_BEHV_LOCKS">
<polygon fill="none" stroke="green" points="1288.45,-180 1105.61,-180 1105.61,-144 1288.45,-144 1288.45,-180"/>
<text text-anchor="middle" x="1197.03" y="-157.8" font-family="Times,serif" font-size="14.00">TABL&#45;ABP_BEHV_LOCKS</text>
</a>
</g>
</g>
<!-- TTYP&#45;ABP_BEHV_LOCKS_TAB&#45;&gt;TABL&#45;ABP_BEHV_LOCKS -->
<g id="edge18" class="edge">
<title>TTYP&#45;ABP_BEHV_LOCKS_TAB&#45;&gt;TABL&#45;ABP_BEHV_LOCKS</title>
<path fill="none" stroke="black" d="M1197.03,-215.7C1197.03,-207.98 1197.03,-198.71 1197.03,-190.11"/>
<polygon fill="black" stroke="black" points="1200.53,-190.1 1197.03,-180.1 1193.53,-190.1 1200.53,-190.1"/>
</g>
<!-- TABL&#45;ABP_BEHV_LOCKS&#45;&gt;DTEL&#45;ABP_ENTITY_NAME -->
<g id="edge19" class="edge">
<title>TABL&#45;ABP_BEHV_LOCKS&#45;&gt;DTEL&#45;ABP_ENTITY_NAME</title>
<path fill="none" stroke="black" d="M1170.85,-143.88C1156.99,-134.81 1139.79,-123.55 1124.82,-113.76"/>
<polygon fill="black" stroke="black" points="1126.59,-110.74 1116.31,-108.19 1122.76,-116.59 1126.59,-110.74"/>
</g>
<!-- TABL&#45;ABP_BEHV_RETRIEVALS -->
<g id="node15" class="node">
<title>TABL&#45;ABP_BEHV_RETRIEVALS</title>
<g id="a_node15"><a xlink:href="./TABL_ABP_BEHV_RETRIEVALS.html" xlink:title="TABL&#45;ABP_BEHV_RETRIEVALS">
<polygon fill="none" stroke="green" points="547.11,-180 324.95,-180 324.95,-144 547.11,-144 547.11,-180"/>
<text text-anchor="middle" x="436.03" y="-157.8" font-family="Times,serif" font-size="14.00">TABL&#45;ABP_BEHV_RETRIEVALS</text>
</a>
</g>
</g>
<!-- TTYP&#45;ABP_BEHV_RETRIEVALS_TAB&#45;&gt;TABL&#45;ABP_BEHV_RETRIEVALS -->
<g id="edge20" class="edge">
<title>TTYP&#45;ABP_BEHV_RETRIEVALS_TAB&#45;&gt;TABL&#45;ABP_BEHV_RETRIEVALS</title>
<path fill="none" stroke="black" d="M371.29,-215.7C382.12,-206.88 395.45,-196.03 407.19,-186.47"/>
<polygon fill="black" stroke="black" points="409.47,-189.13 415.02,-180.1 405.05,-183.7 409.47,-189.13"/>
</g>
<!-- TABL&#45;ABP_BEHV_RETRIEVALS&#45;&gt;DTEL&#45;ABP_ENTITY_NAME -->
<g id="edge22" class="edge">
<title>TABL&#45;ABP_BEHV_RETRIEVALS&#45;&gt;DTEL&#45;ABP_ENTITY_NAME</title>
<path fill="none" stroke="black" d="M547.3,-145.43C551.26,-144.94 555.18,-144.46 559.03,-144 706.53,-126.45 877.55,-110.1 984.77,-100.32"/>
<polygon fill="black" stroke="black" points="985.31,-103.79 994.95,-99.4 984.67,-96.82 985.31,-103.79"/>
</g>
<!-- DTEL&#45;ABP_BEHV_OP_READ -->
<g id="node16" class="node">
<title>DTEL&#45;ABP_BEHV_OP_READ</title>
<g id="a_node16"><a xlink:href="./DTEL_ABP_BEHV_OP_READ.html" xlink:title="DTEL&#45;ABP_BEHV_OP_READ">
<polygon fill="none" stroke="green" points="535.27,-108 336.78,-108 336.78,-72 535.27,-72 535.27,-108"/>
<text text-anchor="middle" x="436.03" y="-85.8" font-family="Times,serif" font-size="14.00">DTEL&#45;ABP_BEHV_OP_READ</text>
</a>
</g>
</g>
<!-- TABL&#45;ABP_BEHV_RETRIEVALS&#45;&gt;DTEL&#45;ABP_BEHV_OP_READ -->
<g id="edge21" class="edge">
<title>TABL&#45;ABP_BEHV_RETRIEVALS&#45;&gt;DTEL&#45;ABP_BEHV_OP_READ</title>
<path fill="none" stroke="black" d="M436.03,-143.7C436.03,-135.98 436.03,-126.71 436.03,-118.11"/>
<polygon fill="black" stroke="black" points="439.53,-118.1 436.03,-108.1 432.53,-118.1 439.53,-118.1"/>
</g>
<!-- DOMA&#45;ABP_BEHV_OP_READ -->
<g id="node17" class="node">
<title>DOMA&#45;ABP_BEHV_OP_READ</title>
<g id="a_node17"><a xlink:href="./DOMA_ABP_BEHV_OP_READ.html" xlink:title="DOMA&#45;ABP_BEHV_OP_READ">
<polygon fill="none" stroke="yellow" points="538.77,-36 333.28,-36 333.28,0 538.77,0 538.77,-36"/>
<text text-anchor="middle" x="436.03" y="-13.8" font-family="Times,serif" font-size="14.00">DOMA&#45;ABP_BEHV_OP_READ</text>
</a>
</g>
</g>
<!-- DTEL&#45;ABP_BEHV_OP_READ&#45;&gt;DOMA&#45;ABP_BEHV_OP_READ -->
<g id="edge23" class="edge">
<title>DTEL&#45;ABP_BEHV_OP_READ&#45;&gt;DOMA&#45;ABP_BEHV_OP_READ</title>
<path fill="none" stroke="black" d="M436.03,-71.7C436.03,-63.98 436.03,-54.71 436.03,-46.11"/>
<polygon fill="black" stroke="black" points="439.53,-46.1 436.03,-36.1 432.53,-46.1 439.53,-46.1"/>
</g>
<!-- TABL&#45;ABP_BEHV_CHANGES -->
<g id="node19" class="node">
<title>TABL&#45;ABP_BEHV_CHANGES</title>
<g id="a_node19"><a xlink:href="./TABL_ABP_BEHV_CHANGES.html" xlink:title="TABL&#45;ABP_BEHV_CHANGES">
<polygon fill="none" stroke="green" points="1862.17,-180 1659.89,-180 1659.89,-144 1862.17,-144 1862.17,-180"/>
<text text-anchor="middle" x="1761.03" y="-157.8" font-family="Times,serif" font-size="14.00">TABL&#45;ABP_BEHV_CHANGES</text>
</a>
</g>
</g>
<!-- TTYP&#45;ABP_BEHV_CHANGES_TAB&#45;&gt;TABL&#45;ABP_BEHV_CHANGES -->
<g id="edge24" class="edge">
<title>TTYP&#45;ABP_BEHV_CHANGES_TAB&#45;&gt;TABL&#45;ABP_BEHV_CHANGES</title>
<path fill="none" stroke="black" d="M1777.59,-215.7C1775.14,-207.9 1772.19,-198.51 1769.46,-189.83"/>
<polygon fill="black" stroke="black" points="1772.74,-188.59 1766.41,-180.1 1766.06,-190.69 1772.74,-188.59"/>
</g>
<!-- TABL&#45;ABP_BEHV_CHANGES&#45;&gt;DTEL&#45;ABP_ENTITY_NAME -->
<g id="edge26" class="edge">
<title>TABL&#45;ABP_BEHV_CHANGES&#45;&gt;DTEL&#45;ABP_ENTITY_NAME</title>
<path fill="none" stroke="black" d="M1659.87,-147.55C1649.79,-146.31 1639.71,-145.1 1630.03,-144 1478.91,-126.78 1303.61,-110.2 1194.74,-100.3"/>
<polygon fill="black" stroke="black" points="1195.02,-96.81 1184.74,-99.39 1194.39,-103.78 1195.02,-96.81"/>
</g>
<!-- DTEL&#45;ABP_BEHV_OP_MODIFY -->
<g id="node20" class="node">
<title>DTEL&#45;ABP_BEHV_OP_MODIFY</title>
<g id="a_node20"><a xlink:href="./DTEL_ABP_BEHV_OP_MODIFY.html" xlink:title="DTEL&#45;ABP_BEHV_OP_MODIFY">
<polygon fill="none" stroke="green" points="1868.88,-108 1653.18,-108 1653.18,-72 1868.88,-72 1868.88,-108"/>
<text text-anchor="middle" x="1761.03" y="-85.8" font-family="Times,serif" font-size="14.00">DTEL&#45;ABP_BEHV_OP_MODIFY</text>
</a>
</g>
</g>
<!-- TABL&#45;ABP_BEHV_CHANGES&#45;&gt;DTEL&#45;ABP_BEHV_OP_MODIFY -->
<g id="edge25" class="edge">
<title>TABL&#45;ABP_BEHV_CHANGES&#45;&gt;DTEL&#45;ABP_BEHV_OP_MODIFY</title>
<path fill="none" stroke="black" d="M1761.03,-143.7C1761.03,-135.98 1761.03,-126.71 1761.03,-118.11"/>
<polygon fill="black" stroke="black" points="1764.53,-118.1 1761.03,-108.1 1757.53,-118.1 1764.53,-118.1"/>
</g>
<!-- DOMA&#45;ABP_BEHV_OP_MODIFY -->
<g id="node21" class="node">
<title>DOMA&#45;ABP_BEHV_OP_MODIFY</title>
<g id="a_node21"><a xlink:href="./DOMA_ABP_BEHV_OP_MODIFY.html" xlink:title="DOMA&#45;ABP_BEHV_OP_MODIFY">
<polygon fill="none" stroke="yellow" points="1872.38,-36 1649.68,-36 1649.68,0 1872.38,0 1872.38,-36"/>
<text text-anchor="middle" x="1761.03" y="-13.8" font-family="Times,serif" font-size="14.00">DOMA&#45;ABP_BEHV_OP_MODIFY</text>
</a>
</g>
</g>
<!-- DTEL&#45;ABP_BEHV_OP_MODIFY&#45;&gt;DOMA&#45;ABP_BEHV_OP_MODIFY -->
<g id="edge27" class="edge">
<title>DTEL&#45;ABP_BEHV_OP_MODIFY&#45;&gt;DOMA&#45;ABP_BEHV_OP_MODIFY</title>
<path fill="none" stroke="black" d="M1761.03,-71.7C1761.03,-63.98 1761.03,-54.71 1761.03,-46.11"/>
<polygon fill="black" stroke="black" points="1764.53,-46.1 1761.03,-36.1 1757.53,-46.1 1764.53,-46.1"/>
</g>
<!-- DTEL&#45;ABP_ROOT_ENTITY_NAME&#45;&gt;DOMA&#45;ABP_ENTITY_NAME -->
<g id="edge28" class="edge">
<title>DTEL&#45;ABP_ROOT_ENTITY_NAME&#45;&gt;DOMA&#45;ABP_ENTITY_NAME</title>
<path fill="none" stroke="black" d="M198.49,-71.7C200.03,-63.98 201.89,-54.71 203.61,-46.11"/>
<polygon fill="black" stroke="black" points="207.08,-46.6 205.61,-36.1 200.22,-45.22 207.08,-46.6"/>
</g>
</g>
</svg>
