<?xml version="1.0" encoding="UTF-8" standalone="no"?>
<!DOCTYPE svg PUBLIC "-//W3C//DTD SVG 1.1//EN"
 "http://www.w3.org/Graphics/SVG/1.1/DTD/svg11.dtd">
<!-- Generated by graphviz version 2.47.3 (20210619.1520)
 -->
<!-- Title: G Pages: 1 -->
<svg width="1849pt" height="1052pt"
 viewBox="0.00 0.00 1849.39 1052.00" xmlns="http://www.w3.org/2000/svg" xmlns:xlink="http://www.w3.org/1999/xlink">
<g id="graph0" class="graph" transform="scale(1 1) rotate(0) translate(4 1048)">
<title>G</title>
<polygon fill="white" stroke="transparent" points="-4,4 -4,-1048 1845.39,-1048 1845.39,4 -4,4"/>
<!-- INTF&#45;IF_XCO_DDL_LITERAL_FACTORY -->
<g id="node1" class="node">
<title>INTF&#45;IF_XCO_DDL_LITERAL_FACTORY</title>
<polygon fill="none" stroke="green" points="1694.54,-1044 1420.21,-1044 1420.21,-1008 1694.54,-1008 1694.54,-1044"/>
<text text-anchor="middle" x="1557.37" y="-1021.8" font-family="Times,serif" font-size="14.00">INTF&#45;IF_XCO_DDL_LITERAL_FACTORY</text>
</g>
<!-- INTF&#45;IF_XCO_DDL_EXPRESSION -->
<g id="node2" class="node">
<title>INTF&#45;IF_XCO_DDL_EXPRESSION</title>
<g id="a_node2"><a xlink:href="./INTF_IF_XCO_DDL_EXPRESSION.html" xlink:title="INTF&#45;IF_XCO_DDL_EXPRESSION">
<polygon fill="none" stroke="green" points="1671.66,-972 1443.08,-972 1443.08,-936 1671.66,-936 1671.66,-972"/>
<text text-anchor="middle" x="1557.37" y="-949.8" font-family="Times,serif" font-size="14.00">INTF&#45;IF_XCO_DDL_EXPRESSION</text>
</a>
</g>
</g>
<!-- INTF&#45;IF_XCO_DDL_LITERAL_FACTORY&#45;&gt;INTF&#45;IF_XCO_DDL_EXPRESSION -->
<g id="edge1" class="edge">
<title>INTF&#45;IF_XCO_DDL_LITERAL_FACTORY&#45;&gt;INTF&#45;IF_XCO_DDL_EXPRESSION</title>
<path fill="none" stroke="black" d="M1557.37,-1007.7C1557.37,-999.98 1557.37,-990.71 1557.37,-982.11"/>
<polygon fill="black" stroke="black" points="1560.87,-982.1 1557.37,-972.1 1553.87,-982.1 1560.87,-982.1"/>
</g>
<!-- INTF&#45;IF_XCO_TEXT -->
<g id="node3" class="node">
<title>INTF&#45;IF_XCO_TEXT</title>
<g id="a_node3"><a xlink:href="./INTF_IF_XCO_TEXT.html" xlink:title="INTF&#45;IF_XCO_TEXT">
<polygon fill="none" stroke="green" points="984.89,-900 841.85,-900 841.85,-864 984.89,-864 984.89,-900"/>
<text text-anchor="middle" x="913.37" y="-877.8" font-family="Times,serif" font-size="14.00">INTF&#45;IF_XCO_TEXT</text>
</a>
</g>
</g>
<!-- INTF&#45;IF_XCO_DDL_EXPRESSION&#45;&gt;INTF&#45;IF_XCO_TEXT -->
<g id="edge4" class="edge">
<title>INTF&#45;IF_XCO_DDL_EXPRESSION&#45;&gt;INTF&#45;IF_XCO_TEXT</title>
<path fill="none" stroke="black" d="M1442.98,-940.57C1314.39,-926.59 1108.8,-904.24 995.3,-891.91"/>
<polygon fill="black" stroke="black" points="995.6,-888.42 985.28,-890.82 994.84,-895.38 995.6,-888.42"/>
</g>
<!-- INTF&#45;IF_XCO_GEN_DDLS_DDL_EXPRESSION -->
<g id="node41" class="node">
<title>INTF&#45;IF_XCO_GEN_DDLS_DDL_EXPRESSION</title>
<g id="a_node41"><a xlink:href="./INTF_IF_XCO_GEN_DDLS_DDL_EXPRESSION.html" xlink:title="INTF&#45;IF_XCO_GEN_DDLS_DDL_EXPRESSION">
<polygon fill="none" stroke="green" points="1558.98,-900 1251.77,-900 1251.77,-864 1558.98,-864 1558.98,-900"/>
<text text-anchor="middle" x="1405.37" y="-877.8" font-family="Times,serif" font-size="14.00">INTF&#45;IF_XCO_GEN_DDLS_DDL_EXPRESSION</text>
</a>
</g>
</g>
<!-- INTF&#45;IF_XCO_DDL_EXPRESSION&#45;&gt;INTF&#45;IF_XCO_GEN_DDLS_DDL_EXPRESSION -->
<g id="edge3" class="edge">
<title>INTF&#45;IF_XCO_DDL_EXPRESSION&#45;&gt;INTF&#45;IF_XCO_GEN_DDLS_DDL_EXPRESSION</title>
<path fill="none" stroke="black" d="M1520.19,-935.88C1499.5,-926.35 1473.57,-914.41 1451.59,-904.28"/>
<polygon fill="black" stroke="black" points="1452.98,-901.07 1442.43,-900.07 1450.05,-907.43 1452.98,-901.07"/>
</g>
<!-- INTF&#45;IF_XCO_DDL_EXPR_CONDITION -->
<g id="node43" class="node">
<title>INTF&#45;IF_XCO_DDL_EXPR_CONDITION</title>
<g id="a_node43"><a xlink:href="./INTF_IF_XCO_DDL_EXPR_CONDITION.html" xlink:title="INTF&#45;IF_XCO_DDL_EXPR_CONDITION">
<polygon fill="none" stroke="green" points="1841.42,-900 1577.33,-900 1577.33,-864 1841.42,-864 1841.42,-900"/>
<text text-anchor="middle" x="1709.37" y="-877.8" font-family="Times,serif" font-size="14.00">INTF&#45;IF_XCO_DDL_EXPR_CONDITION</text>
</a>
</g>
</g>
<!-- INTF&#45;IF_XCO_DDL_EXPRESSION&#45;&gt;INTF&#45;IF_XCO_DDL_EXPR_CONDITION -->
<g id="edge2" class="edge">
<title>INTF&#45;IF_XCO_DDL_EXPRESSION&#45;&gt;INTF&#45;IF_XCO_DDL_EXPR_CONDITION</title>
<path fill="none" stroke="black" d="M1588.66,-935.88C1608.44,-926.31 1634.39,-914.3 1657.19,-904.15"/>
<polygon fill="black" stroke="black" points="1658.69,-907.31 1666.42,-900.07 1655.86,-900.91 1658.69,-907.31"/>
</g>
<!-- INTF&#45;IF_XCO_STRINGS -->
<g id="node4" class="node">
<title>INTF&#45;IF_XCO_STRINGS</title>
<g id="a_node4"><a xlink:href="./INTF_IF_XCO_STRINGS.html" xlink:title="INTF&#45;IF_XCO_STRINGS">
<polygon fill="none" stroke="green" points="996.46,-828 830.29,-828 830.29,-792 996.46,-792 996.46,-828"/>
<text text-anchor="middle" x="913.37" y="-805.8" font-family="Times,serif" font-size="14.00">INTF&#45;IF_XCO_STRINGS</text>
</a>
</g>
</g>
<!-- INTF&#45;IF_XCO_TEXT&#45;&gt;INTF&#45;IF_XCO_STRINGS -->
<g id="edge5" class="edge">
<title>INTF&#45;IF_XCO_TEXT&#45;&gt;INTF&#45;IF_XCO_STRINGS</title>
<path fill="none" stroke="black" d="M907.46,-863.7C906.66,-855.98 906.43,-846.71 906.78,-838.11"/>
<polygon fill="black" stroke="black" points="910.27,-838.32 907.48,-828.1 903.29,-837.84 910.27,-838.32"/>
</g>
<!-- INTF&#45;IF_XCO_STRINGS&#45;&gt;INTF&#45;IF_XCO_TEXT -->
<g id="edge11" class="edge">
<title>INTF&#45;IF_XCO_STRINGS&#45;&gt;INTF&#45;IF_XCO_TEXT</title>
<path fill="none" stroke="black" d="M919.27,-828.1C920.07,-835.79 920.31,-845.05 919.98,-853.67"/>
<polygon fill="black" stroke="black" points="916.48,-853.48 919.29,-863.7 923.46,-853.96 916.48,-853.48"/>
</g>
<!-- INTF&#45;IF_XCO_STRING_ITERABLE -->
<g id="node5" class="node">
<title>INTF&#45;IF_XCO_STRING_ITERABLE</title>
<g id="a_node5"><a xlink:href="./INTF_IF_XCO_STRING_ITERABLE.html" xlink:title="INTF&#45;IF_XCO_STRING_ITERABLE">
<polygon fill="none" stroke="green" points="539.82,-756 306.92,-756 306.92,-720 539.82,-720 539.82,-756"/>
<text text-anchor="middle" x="423.37" y="-733.8" font-family="Times,serif" font-size="14.00">INTF&#45;IF_XCO_STRING_ITERABLE</text>
</a>
</g>
</g>
<!-- INTF&#45;IF_XCO_STRINGS&#45;&gt;INTF&#45;IF_XCO_STRING_ITERABLE -->
<g id="edge12" class="edge">
<title>INTF&#45;IF_XCO_STRINGS&#45;&gt;INTF&#45;IF_XCO_STRING_ITERABLE</title>
<path fill="none" stroke="black" d="M830.25,-797.13C753.48,-786.16 638.33,-769.71 550.1,-757.1"/>
<polygon fill="black" stroke="black" points="550.41,-753.61 540.02,-755.66 549.42,-760.54 550.41,-753.61"/>
</g>
<!-- INTF&#45;IF_XCO_STRING -->
<g id="node8" class="node">
<title>INTF&#45;IF_XCO_STRING</title>
<g id="a_node8"><a xlink:href="./INTF_IF_XCO_STRING.html" xlink:title="INTF&#45;IF_XCO_STRING">
<polygon fill="none" stroke="green" points="767.67,-612 609.07,-612 609.07,-576 767.67,-576 767.67,-612"/>
<text text-anchor="middle" x="688.37" y="-589.8" font-family="Times,serif" font-size="14.00">INTF&#45;IF_XCO_STRING</text>
</a>
</g>
</g>
<!-- INTF&#45;IF_XCO_STRINGS&#45;&gt;INTF&#45;IF_XCO_STRING -->
<g id="edge8" class="edge">
<title>INTF&#45;IF_XCO_STRINGS&#45;&gt;INTF&#45;IF_XCO_STRING</title>
<path fill="none" stroke="black" d="M890.87,-791.92C871.55,-773.75 843.58,-744.32 818.37,-720 781.12,-684.06 736.33,-644.38 710.03,-619.57"/>
<polygon fill="black" stroke="black" points="712.14,-616.75 702.49,-612.37 707.31,-621.81 712.14,-616.75"/>
</g>
<!-- INTF&#45;IF_XCO_NEWS -->
<g id="node9" class="node">
<title>INTF&#45;IF_XCO_NEWS</title>
<g id="a_node9"><a xlink:href="./INTF_IF_XCO_NEWS.html" xlink:title="INTF&#45;IF_XCO_NEWS">
<polygon fill="none" stroke="green" points="1164.28,-540 1016.46,-540 1016.46,-504 1164.28,-504 1164.28,-540"/>
<text text-anchor="middle" x="1090.37" y="-517.8" font-family="Times,serif" font-size="14.00">INTF&#45;IF_XCO_NEWS</text>
</a>
</g>
</g>
<!-- INTF&#45;IF_XCO_STRINGS&#45;&gt;INTF&#45;IF_XCO_NEWS -->
<g id="edge10" class="edge">
<title>INTF&#45;IF_XCO_STRINGS&#45;&gt;INTF&#45;IF_XCO_NEWS</title>
<path fill="none" stroke="black" d="M996.46,-804.36C1068.32,-798.4 1164.34,-785.1 1188.37,-756 1241.86,-691.22 1160.56,-593.04 1116.14,-547.63"/>
<polygon fill="black" stroke="black" points="1118.37,-544.91 1108.84,-540.3 1113.41,-549.85 1118.37,-544.91"/>
</g>
<!-- INTF&#45;IF_XCO_STRING_COMPOSITION -->
<g id="node37" class="node">
<title>INTF&#45;IF_XCO_STRING_COMPOSITION</title>
<g id="a_node37"><a xlink:href="./INTF_IF_XCO_STRING_COMPOSITION.html" xlink:title="INTF&#45;IF_XCO_STRING_COMPOSITION">
<polygon fill="none" stroke="green" points="818.82,-756 557.92,-756 557.92,-720 818.82,-720 818.82,-756"/>
<text text-anchor="middle" x="688.37" y="-733.8" font-family="Times,serif" font-size="14.00">INTF&#45;IF_XCO_STRING_COMPOSITION</text>
</a>
</g>
</g>
<!-- INTF&#45;IF_XCO_STRINGS&#45;&gt;INTF&#45;IF_XCO_STRING_COMPOSITION -->
<g id="edge9" class="edge">
<title>INTF&#45;IF_XCO_STRINGS&#45;&gt;INTF&#45;IF_XCO_STRING_COMPOSITION</title>
<path fill="none" stroke="black" d="M852.73,-791.97C819.98,-782.1 779.77,-769.62 747.29,-759.25"/>
<polygon fill="black" stroke="black" points="748.07,-755.83 737.48,-756.11 745.93,-762.49 748.07,-755.83"/>
</g>
<!-- TTYP&#45;STRING_TABLE -->
<g id="node38" class="node">
<title>TTYP&#45;STRING_TABLE</title>
<g id="a_node38"><a xlink:href="./TTYP_STRING_TABLE.html" xlink:title="TTYP&#45;STRING_TABLE">
<polygon fill="none" stroke="green" points="1050.67,-756 892.07,-756 892.07,-720 1050.67,-720 1050.67,-756"/>
<text text-anchor="middle" x="971.37" y="-733.8" font-family="Times,serif" font-size="14.00">TTYP&#45;STRING_TABLE</text>
</a>
</g>
</g>
<!-- INTF&#45;IF_XCO_STRINGS&#45;&gt;TTYP&#45;STRING_TABLE -->
<g id="edge7" class="edge">
<title>INTF&#45;IF_XCO_STRINGS&#45;&gt;TTYP&#45;STRING_TABLE</title>
<path fill="none" stroke="black" d="M927.71,-791.7C934.66,-783.3 943.14,-773.07 950.77,-763.86"/>
<polygon fill="black" stroke="black" points="953.51,-766.04 957.2,-756.1 948.12,-761.57 953.51,-766.04"/>
</g>
<!-- DTEL&#45;INT4 -->
<g id="node39" class="node">
<title>DTEL&#45;INT4</title>
<g id="a_node39"><a xlink:href="./DTEL_INT4.html" xlink:title="DTEL&#45;INT4">
<polygon fill="none" stroke="green" points="1155.62,-756 1069.13,-756 1069.13,-720 1155.62,-720 1155.62,-756"/>
<text text-anchor="middle" x="1112.37" y="-733.8" font-family="Times,serif" font-size="14.00">DTEL&#45;INT4</text>
</a>
</g>
</g>
<!-- INTF&#45;IF_XCO_STRINGS&#45;&gt;DTEL&#45;INT4 -->
<g id="edge6" class="edge">
<title>INTF&#45;IF_XCO_STRINGS&#45;&gt;DTEL&#45;INT4</title>
<path fill="none" stroke="black" d="M961.8,-791.97C991.28,-781.59 1028.97,-768.34 1059.27,-757.68"/>
<polygon fill="black" stroke="black" points="1060.55,-760.94 1068.83,-754.32 1058.23,-754.33 1060.55,-760.94"/>
</g>
<!-- INTF&#45;IF_XCO_STRING_ITERATOR -->
<g id="node6" class="node">
<title>INTF&#45;IF_XCO_STRING_ITERATOR</title>
<g id="a_node6"><a xlink:href="./INTF_IF_XCO_STRING_ITERATOR.html" xlink:title="INTF&#45;IF_XCO_STRING_ITERATOR">
<polygon fill="none" stroke="green" points="280.38,-684 46.36,-684 46.36,-648 280.38,-648 280.38,-684"/>
<text text-anchor="middle" x="163.37" y="-661.8" font-family="Times,serif" font-size="14.00">INTF&#45;IF_XCO_STRING_ITERATOR</text>
</a>
</g>
</g>
<!-- INTF&#45;IF_XCO_STRING_ITERABLE&#45;&gt;INTF&#45;IF_XCO_STRING_ITERATOR -->
<g id="edge13" class="edge">
<title>INTF&#45;IF_XCO_STRING_ITERABLE&#45;&gt;INTF&#45;IF_XCO_STRING_ITERATOR</title>
<path fill="none" stroke="black" d="M360.1,-719.97C322.83,-709.93 275.51,-697.19 236.62,-686.72"/>
<polygon fill="black" stroke="black" points="237.49,-683.33 226.93,-684.11 235.67,-690.09 237.49,-683.33"/>
</g>
<!-- INTF&#45;IF_XCO_ITERATOR -->
<g id="node7" class="node">
<title>INTF&#45;IF_XCO_ITERATOR</title>
<g id="a_node7"><a xlink:href="./INTF_IF_XCO_ITERATOR.html" xlink:title="INTF&#45;IF_XCO_ITERATOR">
<polygon fill="none" stroke="green" points="251.83,-612 74.91,-612 74.91,-576 251.83,-576 251.83,-612"/>
<text text-anchor="middle" x="163.37" y="-589.8" font-family="Times,serif" font-size="14.00">INTF&#45;IF_XCO_ITERATOR</text>
</a>
</g>
</g>
<!-- INTF&#45;IF_XCO_STRING_ITERATOR&#45;&gt;INTF&#45;IF_XCO_ITERATOR -->
<g id="edge15" class="edge">
<title>INTF&#45;IF_XCO_STRING_ITERATOR&#45;&gt;INTF&#45;IF_XCO_ITERATOR</title>
<path fill="none" stroke="black" d="M163.37,-647.7C163.37,-639.98 163.37,-630.71 163.37,-622.11"/>
<polygon fill="black" stroke="black" points="166.87,-622.1 163.37,-612.1 159.87,-622.1 166.87,-622.1"/>
</g>
<!-- INTF&#45;IF_XCO_STRING_ITERATOR&#45;&gt;INTF&#45;IF_XCO_STRING -->
<g id="edge14" class="edge">
<title>INTF&#45;IF_XCO_STRING_ITERATOR&#45;&gt;INTF&#45;IF_XCO_STRING</title>
<path fill="none" stroke="black" d="M280.54,-649.38C376.86,-636.54 511.29,-618.61 599.07,-606.91"/>
<polygon fill="black" stroke="black" points="599.56,-610.37 609.01,-605.58 598.63,-603.43 599.56,-610.37"/>
</g>
<!-- INTF&#45;IF_XCO_STRING&#45;&gt;INTF&#45;IF_XCO_TEXT -->
<g id="edge22" class="edge">
<title>INTF&#45;IF_XCO_STRING&#45;&gt;INTF&#45;IF_XCO_TEXT</title>
<path fill="none" stroke="black" d="M609.13,-599.87C471.19,-611.27 209.72,-647.52 298.37,-756 364.84,-837.34 680.08,-867.06 831.63,-876.78"/>
<polygon fill="black" stroke="black" points="831.61,-880.29 841.81,-877.42 832.05,-873.3 831.61,-880.29"/>
</g>
<!-- INTF&#45;IF_XCO_STRING&#45;&gt;INTF&#45;IF_XCO_STRINGS -->
<g id="edge16" class="edge">
<title>INTF&#45;IF_XCO_STRING&#45;&gt;INTF&#45;IF_XCO_STRINGS</title>
<path fill="none" stroke="black" d="M714.38,-612.17C744.69,-635.88 795.15,-680.23 836.37,-720 858.23,-741.09 882.17,-766.02 897.71,-784.13"/>
<polygon fill="black" stroke="black" points="895.13,-786.49 904.22,-791.92 900.5,-782.01 895.13,-786.49"/>
</g>
<!-- INTF&#45;IF_XCO_STRING&#45;&gt;INTF&#45;IF_XCO_STRING_ITERABLE -->
<g id="edge23" class="edge">
<title>INTF&#45;IF_XCO_STRING&#45;&gt;INTF&#45;IF_XCO_STRING_ITERABLE</title>
<path fill="none" stroke="black" d="M656.29,-612.19C608.18,-637.97 517.33,-686.65 464.44,-715"/>
<polygon fill="black" stroke="black" points="462.5,-712.06 455.34,-719.87 465.8,-718.23 462.5,-712.06"/>
</g>
<!-- INTF&#45;IF_XCO_STRING&#45;&gt;INTF&#45;IF_XCO_NEWS -->
<g id="edge21" class="edge">
<title>INTF&#45;IF_XCO_STRING&#45;&gt;INTF&#45;IF_XCO_NEWS</title>
<path fill="none" stroke="black" d="M767.83,-580.64C830.12,-570.76 919.23,-556.2 1006.79,-540.07"/>
<polygon fill="black" stroke="black" points="1007.44,-543.51 1016.63,-538.25 1006.16,-536.63 1007.44,-543.51"/>
</g>
<!-- INTF&#45;IF_XCO_MESSAGE -->
<g id="node11" class="node">
<title>INTF&#45;IF_XCO_MESSAGE</title>
<g id="a_node11"><a xlink:href="./INTF_IF_XCO_MESSAGE.html" xlink:title="INTF&#45;IF_XCO_MESSAGE">
<polygon fill="none" stroke="green" points="1054.96,-396 881.79,-396 881.79,-360 1054.96,-360 1054.96,-396"/>
<text text-anchor="middle" x="968.37" y="-373.8" font-family="Times,serif" font-size="14.00">INTF&#45;IF_XCO_MESSAGE</text>
</a>
</g>
</g>
<!-- INTF&#45;IF_XCO_STRING&#45;&gt;INTF&#45;IF_XCO_MESSAGE -->
<g id="edge18" class="edge">
<title>INTF&#45;IF_XCO_STRING&#45;&gt;INTF&#45;IF_XCO_MESSAGE</title>
<path fill="none" stroke="black" d="M688.2,-575.71C688.89,-556.25 692.77,-524.67 709.37,-504 753.25,-449.34 826.88,-417.04 884.45,-399.01"/>
<polygon fill="black" stroke="black" points="885.72,-402.29 894.27,-396.03 883.68,-395.59 885.72,-402.29"/>
</g>
<!-- INTF&#45;IF_XCO_XSTRING -->
<g id="node33" class="node">
<title>INTF&#45;IF_XCO_XSTRING</title>
<g id="a_node33"><a xlink:href="./INTF_IF_XCO_XSTRING.html" xlink:title="INTF&#45;IF_XCO_XSTRING">
<polygon fill="none" stroke="green" points="354.78,-540 185.96,-540 185.96,-504 354.78,-504 354.78,-540"/>
<text text-anchor="middle" x="270.37" y="-517.8" font-family="Times,serif" font-size="14.00">INTF&#45;IF_XCO_XSTRING</text>
</a>
</g>
</g>
<!-- INTF&#45;IF_XCO_STRING&#45;&gt;INTF&#45;IF_XCO_XSTRING -->
<g id="edge20" class="edge">
<title>INTF&#45;IF_XCO_STRING&#45;&gt;INTF&#45;IF_XCO_XSTRING</title>
<path fill="none" stroke="black" d="M608.98,-581.61C543.76,-571.54 448.88,-556.25 364.59,-541.76"/>
<polygon fill="black" stroke="black" points="365.08,-538.29 354.63,-540.04 363.89,-545.19 365.08,-538.29"/>
</g>
<!-- INTF&#45;IF_XCO_STRING_XSTRING_CNVRSN -->
<g id="node35" class="node">
<title>INTF&#45;IF_XCO_STRING_XSTRING_CNVRSN</title>
<g id="a_node35"><a xlink:href="./INTF_IF_XCO_STRING_XSTRING_CNVRSN.html" xlink:title="INTF&#45;IF_XCO_STRING_XSTRING_CNVRSN">
<polygon fill="none" stroke="green" points="662.1,-540 372.64,-540 372.64,-504 662.1,-504 662.1,-540"/>
<text text-anchor="middle" x="517.37" y="-517.8" font-family="Times,serif" font-size="14.00">INTF&#45;IF_XCO_STRING_XSTRING_CNVRSN</text>
</a>
</g>
</g>
<!-- INTF&#45;IF_XCO_STRING&#45;&gt;INTF&#45;IF_XCO_STRING_XSTRING_CNVRSN -->
<g id="edge19" class="edge">
<title>INTF&#45;IF_XCO_STRING&#45;&gt;INTF&#45;IF_XCO_STRING_XSTRING_CNVRSN</title>
<path fill="none" stroke="black" d="M646.54,-575.88C622.96,-566.22 593.31,-554.09 568.37,-543.88"/>
<polygon fill="black" stroke="black" points="569.65,-540.62 559.07,-540.07 567,-547.1 569.65,-540.62"/>
</g>
<!-- INTF&#45;IF_XCO_STRING_DECOMPOSITION -->
<g id="node36" class="node">
<title>INTF&#45;IF_XCO_STRING_DECOMPOSITION</title>
<g id="a_node36"><a xlink:href="./INTF_IF_XCO_STRING_DECOMPOSITION.html" xlink:title="INTF&#45;IF_XCO_STRING_DECOMPOSITION">
<polygon fill="none" stroke="green" points="997.98,-540 718.76,-540 718.76,-504 997.98,-504 997.98,-540"/>
<text text-anchor="middle" x="858.37" y="-517.8" font-family="Times,serif" font-size="14.00">INTF&#45;IF_XCO_STRING_DECOMPOSITION</text>
</a>
</g>
</g>
<!-- INTF&#45;IF_XCO_STRING&#45;&gt;INTF&#45;IF_XCO_STRING_DECOMPOSITION -->
<g id="edge17" class="edge">
<title>INTF&#45;IF_XCO_STRING&#45;&gt;INTF&#45;IF_XCO_STRING_DECOMPOSITION</title>
<path fill="none" stroke="black" d="M724.06,-575.88C746.5,-566.22 775.86,-554.09 801.43,-543.88"/>
<polygon fill="black" stroke="black" points="803.03,-547.01 811.03,-540.07 800.44,-540.51 803.03,-547.01"/>
</g>
<!-- TTYP&#45;SXCO_T_MESSAGES -->
<g id="node10" class="node">
<title>TTYP&#45;SXCO_T_MESSAGES</title>
<g id="a_node10"><a xlink:href="./TTYP_SXCO_T_MESSAGES.html" xlink:title="TTYP&#45;SXCO_T_MESSAGES">
<polygon fill="none" stroke="green" points="1184.52,-468 996.22,-468 996.22,-432 1184.52,-432 1184.52,-468"/>
<text text-anchor="middle" x="1090.37" y="-445.8" font-family="Times,serif" font-size="14.00">TTYP&#45;SXCO_T_MESSAGES</text>
</a>
</g>
</g>
<!-- INTF&#45;IF_XCO_NEWS&#45;&gt;TTYP&#45;SXCO_T_MESSAGES -->
<g id="edge24" class="edge">
<title>INTF&#45;IF_XCO_NEWS&#45;&gt;TTYP&#45;SXCO_T_MESSAGES</title>
<path fill="none" stroke="black" d="M1090.37,-503.7C1090.37,-495.98 1090.37,-486.71 1090.37,-478.11"/>
<polygon fill="black" stroke="black" points="1093.87,-478.1 1090.37,-468.1 1086.87,-478.1 1093.87,-478.1"/>
</g>
<!-- TTYP&#45;SXCO_T_MESSAGES&#45;&gt;INTF&#45;IF_XCO_MESSAGE -->
<g id="edge25" class="edge">
<title>TTYP&#45;SXCO_T_MESSAGES&#45;&gt;INTF&#45;IF_XCO_MESSAGE</title>
<path fill="none" stroke="black" d="M1060.53,-431.88C1044.43,-422.64 1024.37,-411.13 1007.08,-401.21"/>
<polygon fill="black" stroke="black" points="1008.75,-398.13 998.33,-396.19 1005.26,-404.2 1008.75,-398.13"/>
</g>
<!-- INTF&#45;IF_XCO_MESSAGE&#45;&gt;INTF&#45;IF_XCO_NEWS -->
<g id="edge34" class="edge">
<title>INTF&#45;IF_XCO_MESSAGE&#45;&gt;INTF&#45;IF_XCO_NEWS</title>
<path fill="none" stroke="black" d="M967.85,-396.19C968.14,-415.55 971.34,-447.04 987.37,-468 997.59,-481.36 1012.13,-491.65 1027.07,-499.44"/>
<polygon fill="black" stroke="black" points="1025.87,-502.75 1036.39,-503.98 1028.93,-496.46 1025.87,-502.75"/>
</g>
<!-- INTF&#45;IF_T100_DYN_MSG -->
<g id="node12" class="node">
<title>INTF&#45;IF_T100_DYN_MSG</title>
<g id="a_node12"><a xlink:href="./INTF_IF_T100_DYN_MSG.html" xlink:title="INTF&#45;IF_T100_DYN_MSG">
<polygon fill="none" stroke="green" points="898.28,-324 722.46,-324 722.46,-288 898.28,-288 898.28,-324"/>
<text text-anchor="middle" x="810.37" y="-301.8" font-family="Times,serif" font-size="14.00">INTF&#45;IF_T100_DYN_MSG</text>
</a>
</g>
</g>
<!-- INTF&#45;IF_XCO_MESSAGE&#45;&gt;INTF&#45;IF_T100_DYN_MSG -->
<g id="edge33" class="edge">
<title>INTF&#45;IF_XCO_MESSAGE&#45;&gt;INTF&#45;IF_T100_DYN_MSG</title>
<path fill="none" stroke="black" d="M929.72,-359.88C908.12,-350.31 881.02,-338.3 858.11,-328.15"/>
<polygon fill="black" stroke="black" points="859.46,-324.92 848.9,-324.07 856.62,-331.32 859.46,-324.92"/>
</g>
<!-- DTEL&#45;SYMSGNO -->
<g id="node17" class="node">
<title>DTEL&#45;SYMSGNO</title>
<g id="a_node17"><a xlink:href="./DTEL_SYMSGNO.html" xlink:title="DTEL&#45;SYMSGNO">
<polygon fill="none" stroke="green" points="575.73,-108 451.01,-108 451.01,-72 575.73,-72 575.73,-108"/>
<text text-anchor="middle" x="513.37" y="-85.8" font-family="Times,serif" font-size="14.00">DTEL&#45;SYMSGNO</text>
</a>
</g>
</g>
<!-- INTF&#45;IF_XCO_MESSAGE&#45;&gt;DTEL&#45;SYMSGNO -->
<g id="edge29" class="edge">
<title>INTF&#45;IF_XCO_MESSAGE&#45;&gt;DTEL&#45;SYMSGNO</title>
<path fill="none" stroke="black" d="M881.71,-371.56C790.08,-361.53 646.21,-333.02 553.37,-252 524.94,-227.19 518.77,-216.27 508.37,-180 502.59,-159.82 504.33,-136.05 507.26,-118.15"/>
<polygon fill="black" stroke="black" points="510.74,-118.57 509.12,-108.1 503.85,-117.3 510.74,-118.57"/>
</g>
<!-- DTEL&#45;SYMSGID -->
<g id="node19" class="node">
<title>DTEL&#45;SYMSGID</title>
<g id="a_node19"><a xlink:href="./DTEL_SYMSGID.html" xlink:title="DTEL&#45;SYMSGID">
<polygon fill="none" stroke="green" points="979.29,-108 859.46,-108 859.46,-72 979.29,-72 979.29,-108"/>
<text text-anchor="middle" x="919.37" y="-85.8" font-family="Times,serif" font-size="14.00">DTEL&#45;SYMSGID</text>
</a>
</g>
</g>
<!-- INTF&#45;IF_XCO_MESSAGE&#45;&gt;DTEL&#45;SYMSGID -->
<g id="edge28" class="edge">
<title>INTF&#45;IF_XCO_MESSAGE&#45;&gt;DTEL&#45;SYMSGID</title>
<path fill="none" stroke="black" d="M999.61,-359.91C1016.01,-350.3 1036.04,-337.54 1052.37,-324 1120.78,-267.3 1194.35,-213.8 1139.37,-144 1120.85,-120.49 1046.46,-106.19 989.25,-98.47"/>
<polygon fill="black" stroke="black" points="989.52,-94.97 979.15,-97.15 988.61,-101.91 989.52,-94.97"/>
</g>
<!-- DTEL&#45;SYMSGTY -->
<g id="node21" class="node">
<title>DTEL&#45;SYMSGTY</title>
<g id="a_node21"><a xlink:href="./DTEL_SYMSGTY.html" xlink:title="DTEL&#45;SYMSGTY">
<polygon fill="none" stroke="green" points="428.18,-252 304.56,-252 304.56,-216 428.18,-216 428.18,-252"/>
<text text-anchor="middle" x="366.37" y="-229.8" font-family="Times,serif" font-size="14.00">DTEL&#45;SYMSGTY</text>
</a>
</g>
</g>
<!-- INTF&#45;IF_XCO_MESSAGE&#45;&gt;DTEL&#45;SYMSGTY -->
<g id="edge27" class="edge">
<title>INTF&#45;IF_XCO_MESSAGE&#45;&gt;DTEL&#45;SYMSGTY</title>
<path fill="none" stroke="black" d="M881.81,-376.01C752.62,-373.25 516.62,-362.87 442.37,-324 415.4,-309.88 393.97,-281.8 380.83,-260.94"/>
<polygon fill="black" stroke="black" points="383.72,-258.96 375.55,-252.22 377.73,-262.59 383.72,-258.96"/>
</g>
<!-- DTEL&#45;SYMSGV -->
<g id="node23" class="node">
<title>DTEL&#45;SYMSGV</title>
<g id="a_node23"><a xlink:href="./DTEL_SYMSGV.html" xlink:title="DTEL&#45;SYMSGV">
<polygon fill="none" stroke="green" points="1110.63,-252 996.12,-252 996.12,-216 1110.63,-216 1110.63,-252"/>
<text text-anchor="middle" x="1053.37" y="-229.8" font-family="Times,serif" font-size="14.00">DTEL&#45;SYMSGV</text>
</a>
</g>
</g>
<!-- INTF&#45;IF_XCO_MESSAGE&#45;&gt;DTEL&#45;SYMSGV -->
<g id="edge30" class="edge">
<title>INTF&#45;IF_XCO_MESSAGE&#45;&gt;DTEL&#45;SYMSGV</title>
<path fill="none" stroke="black" d="M994.97,-359.99C1007.42,-350.75 1021.45,-338.29 1030.37,-324 1042.03,-305.33 1047.8,-280.94 1050.65,-262.42"/>
<polygon fill="black" stroke="black" points="1054.15,-262.65 1052.01,-252.28 1047.21,-261.72 1054.15,-262.65"/>
</g>
<!-- INTF&#45;IF_XCO_MESSAGE_SHORT_TEXT -->
<g id="node25" class="node">
<title>INTF&#45;IF_XCO_MESSAGE_SHORT_TEXT</title>
<g id="a_node25"><a xlink:href="./INTF_IF_XCO_MESSAGE_SHORT_TEXT.html" xlink:title="INTF&#45;IF_XCO_MESSAGE_SHORT_TEXT">
<polygon fill="none" stroke="green" points="1390.61,-324 1122.14,-324 1122.14,-288 1390.61,-288 1390.61,-324"/>
<text text-anchor="middle" x="1256.37" y="-301.8" font-family="Times,serif" font-size="14.00">INTF&#45;IF_XCO_MESSAGE_SHORT_TEXT</text>
</a>
</g>
</g>
<!-- INTF&#45;IF_XCO_MESSAGE&#45;&gt;INTF&#45;IF_XCO_MESSAGE_SHORT_TEXT -->
<g id="edge32" class="edge">
<title>INTF&#45;IF_XCO_MESSAGE&#45;&gt;INTF&#45;IF_XCO_MESSAGE_SHORT_TEXT</title>
<path fill="none" stroke="black" d="M1032.57,-359.97C1073.22,-349.83 1126.21,-336.93 1170.46,-326.4"/>
<polygon fill="black" stroke="black" points="1171.41,-329.77 1180.33,-324.05 1169.8,-322.96 1171.41,-329.77"/>
</g>
<!-- CLAS&#45;CL_XCO_MESSAGE_TYPE -->
<g id="node29" class="node">
<title>CLAS&#45;CL_XCO_MESSAGE_TYPE</title>
<g id="a_node29"><a xlink:href="./CLAS_CL_XCO_MESSAGE_TYPE.html" xlink:title="CLAS&#45;CL_XCO_MESSAGE_TYPE">
<polygon fill="none" stroke="green" points="390.07,-324 164.67,-324 164.67,-288 390.07,-288 390.07,-324"/>
<text text-anchor="middle" x="277.37" y="-301.8" font-family="Times,serif" font-size="14.00">CLAS&#45;CL_XCO_MESSAGE_TYPE</text>
</a>
</g>
</g>
<!-- INTF&#45;IF_XCO_MESSAGE&#45;&gt;CLAS&#45;CL_XCO_MESSAGE_TYPE -->
<g id="edge31" class="edge">
<title>INTF&#45;IF_XCO_MESSAGE&#45;&gt;CLAS&#45;CL_XCO_MESSAGE_TYPE</title>
<path fill="none" stroke="black" d="M881.79,-369.93C770.98,-360.64 573.18,-343.22 404.37,-324 403.07,-323.85 401.75,-323.7 400.43,-323.55"/>
<polygon fill="black" stroke="black" points="400.56,-320.04 390.21,-322.34 399.73,-326.99 400.56,-320.04"/>
</g>
<!-- TABL&#45;SYMSG -->
<g id="node32" class="node">
<title>TABL&#45;SYMSG</title>
<g id="a_node32"><a xlink:href="./TABL_SYMSG.html" xlink:title="TABL&#45;SYMSG">
<polygon fill="none" stroke="green" points="1021.3,-324 915.44,-324 915.44,-288 1021.3,-288 1021.3,-324"/>
<text text-anchor="middle" x="968.37" y="-301.8" font-family="Times,serif" font-size="14.00">TABL&#45;SYMSG</text>
</a>
</g>
</g>
<!-- INTF&#45;IF_XCO_MESSAGE&#45;&gt;TABL&#45;SYMSG -->
<g id="edge26" class="edge">
<title>INTF&#45;IF_XCO_MESSAGE&#45;&gt;TABL&#45;SYMSG</title>
<path fill="none" stroke="black" d="M968.37,-359.7C968.37,-351.98 968.37,-342.71 968.37,-334.11"/>
<polygon fill="black" stroke="black" points="971.87,-334.1 968.37,-324.1 964.87,-334.1 971.87,-334.1"/>
</g>
<!-- INTF&#45;IF_T100_MESSAGE -->
<g id="node13" class="node">
<title>INTF&#45;IF_T100_MESSAGE</title>
<g id="a_node13"><a xlink:href="./INTF_IF_T100_MESSAGE.html" xlink:title="INTF&#45;IF_T100_MESSAGE">
<polygon fill="none" stroke="green" points="829.96,-252 656.78,-252 656.78,-216 829.96,-216 829.96,-252"/>
<text text-anchor="middle" x="743.37" y="-229.8" font-family="Times,serif" font-size="14.00">INTF&#45;IF_T100_MESSAGE</text>
</a>
</g>
</g>
<!-- INTF&#45;IF_T100_DYN_MSG&#45;&gt;INTF&#45;IF_T100_MESSAGE -->
<g id="edge38" class="edge">
<title>INTF&#45;IF_T100_DYN_MSG&#45;&gt;INTF&#45;IF_T100_MESSAGE</title>
<path fill="none" stroke="black" d="M793.81,-287.7C785.7,-279.22 775.78,-268.86 766.9,-259.58"/>
<polygon fill="black" stroke="black" points="769.19,-256.91 759.74,-252.1 764.13,-261.75 769.19,-256.91"/>
</g>
<!-- INTF&#45;IF_MESSAGE -->
<g id="node14" class="node">
<title>INTF&#45;IF_MESSAGE</title>
<g id="a_node14"><a xlink:href="./INTF_IF_MESSAGE.html" xlink:title="INTF&#45;IF_MESSAGE">
<polygon fill="none" stroke="green" points="940.41,-180 804.34,-180 804.34,-144 940.41,-144 940.41,-180"/>
<text text-anchor="middle" x="872.37" y="-157.8" font-family="Times,serif" font-size="14.00">INTF&#45;IF_MESSAGE</text>
</a>
</g>
</g>
<!-- INTF&#45;IF_T100_DYN_MSG&#45;&gt;INTF&#45;IF_MESSAGE -->
<g id="edge37" class="edge">
<title>INTF&#45;IF_T100_DYN_MSG&#45;&gt;INTF&#45;IF_MESSAGE</title>
<path fill="none" stroke="black" d="M820.69,-287.66C826.55,-277.47 833.8,-264.22 839.37,-252 848.73,-231.47 857.52,-207.45 863.67,-189.54"/>
<polygon fill="black" stroke="black" points="867,-190.62 866.88,-180.03 860.37,-188.38 867,-190.62"/>
</g>
<!-- INTF&#45;IF_T100_DYN_MSG&#45;&gt;DTEL&#45;SYMSGTY -->
<g id="edge36" class="edge">
<title>INTF&#45;IF_T100_DYN_MSG&#45;&gt;DTEL&#45;SYMSGTY</title>
<path fill="none" stroke="black" d="M722.65,-291.17C639.45,-278.05 515.94,-258.58 438.36,-246.35"/>
<polygon fill="black" stroke="black" points="438.62,-242.85 428.2,-244.75 437.53,-249.76 438.62,-242.85"/>
</g>
<!-- INTF&#45;IF_T100_DYN_MSG&#45;&gt;DTEL&#45;SYMSGV -->
<g id="edge35" class="edge">
<title>INTF&#45;IF_T100_DYN_MSG&#45;&gt;DTEL&#45;SYMSGV</title>
<path fill="none" stroke="black" d="M869.51,-287.97C904.69,-277.83 949.45,-264.94 986,-254.41"/>
<polygon fill="black" stroke="black" points="987.43,-257.64 996.07,-251.51 985.49,-250.91 987.43,-257.64"/>
</g>
<!-- INTF&#45;IF_T100_MESSAGE&#45;&gt;INTF&#45;IF_MESSAGE -->
<g id="edge43" class="edge">
<title>INTF&#45;IF_T100_MESSAGE&#45;&gt;INTF&#45;IF_MESSAGE</title>
<path fill="none" stroke="black" d="M774.93,-215.88C792.03,-206.6 813.35,-195.03 831.69,-185.08"/>
<polygon fill="black" stroke="black" points="833.57,-188.04 840.69,-180.19 830.23,-181.88 833.57,-188.04"/>
</g>
<!-- TABL&#45;SCX_T100KEY -->
<g id="node15" class="node">
<title>TABL&#45;SCX_T100KEY</title>
<g id="a_node15"><a xlink:href="./TABL_SCX_T100KEY.html" xlink:title="TABL&#45;SCX_T100KEY">
<polygon fill="none" stroke="yellow" points="710.13,-180 560.62,-180 560.62,-144 710.13,-144 710.13,-180"/>
<text text-anchor="middle" x="635.37" y="-157.8" font-family="Times,serif" font-size="14.00">TABL&#45;SCX_T100KEY</text>
</a>
</g>
</g>
<!-- INTF&#45;IF_T100_MESSAGE&#45;&gt;TABL&#45;SCX_T100KEY -->
<g id="edge42" class="edge">
<title>INTF&#45;IF_T100_MESSAGE&#45;&gt;TABL&#45;SCX_T100KEY</title>
<path fill="none" stroke="black" d="M716.95,-215.88C702.96,-206.81 685.6,-195.55 670.49,-185.76"/>
<polygon fill="black" stroke="black" points="672.19,-182.69 661.89,-180.19 668.38,-188.57 672.19,-182.69"/>
</g>
<!-- DTEL&#45;SCX_ATTRNAME -->
<g id="node16" class="node">
<title>DTEL&#45;SCX_ATTRNAME</title>
<g id="a_node16"><a xlink:href="./DTEL_SCX_ATTRNAME.html" xlink:title="DTEL&#45;SCX_ATTRNAME">
<polygon fill="none" stroke="green" points="792.78,-108 623.96,-108 623.96,-72 792.78,-72 792.78,-108"/>
<text text-anchor="middle" x="708.37" y="-85.8" font-family="Times,serif" font-size="14.00">DTEL&#45;SCX_ATTRNAME</text>
</a>
</g>
</g>
<!-- INTF&#45;IF_T100_MESSAGE&#45;&gt;DTEL&#45;SCX_ATTRNAME -->
<g id="edge41" class="edge">
<title>INTF&#45;IF_T100_MESSAGE&#45;&gt;DTEL&#45;SCX_ATTRNAME</title>
<path fill="none" stroke="black" d="M739.15,-215.87C733.16,-191.56 722.13,-146.82 715.03,-118.01"/>
<polygon fill="black" stroke="black" points="718.4,-117.06 712.61,-108.19 711.6,-118.74 718.4,-117.06"/>
</g>
<!-- INTF&#45;IF_T100_MESSAGE&#45;&gt;DTEL&#45;SYMSGNO -->
<g id="edge40" class="edge">
<title>INTF&#45;IF_T100_MESSAGE&#45;&gt;DTEL&#45;SYMSGNO</title>
<path fill="none" stroke="black" d="M656.66,-225.66C620.57,-218.7 580.4,-205.37 551.37,-180 533.14,-164.07 523.4,-137.87 518.36,-118.02"/>
<polygon fill="black" stroke="black" points="521.71,-116.99 516.08,-108.02 514.89,-118.55 521.71,-116.99"/>
</g>
<!-- INTF&#45;IF_T100_MESSAGE&#45;&gt;DTEL&#45;SYMSGID -->
<g id="edge39" class="edge">
<title>INTF&#45;IF_T100_MESSAGE&#45;&gt;DTEL&#45;SYMSGID</title>
<path fill="none" stroke="black" d="M749.59,-215.73C757.48,-196 772.83,-163.89 795.37,-144 811.06,-130.16 830.91,-119.52 850.1,-111.54"/>
<polygon fill="black" stroke="black" points="851.44,-114.77 859.45,-107.83 848.86,-108.26 851.44,-114.77"/>
</g>
<!-- TABL&#45;SCX_T100KEY&#45;&gt;DTEL&#45;SCX_ATTRNAME -->
<g id="edge46" class="edge">
<title>TABL&#45;SCX_T100KEY&#45;&gt;DTEL&#45;SCX_ATTRNAME</title>
<path fill="none" stroke="black" d="M653.42,-143.7C662.43,-135.05 673.49,-124.45 683.31,-115.03"/>
<polygon fill="black" stroke="black" points="685.74,-117.55 690.53,-108.1 680.89,-112.5 685.74,-117.55"/>
</g>
<!-- TABL&#45;SCX_T100KEY&#45;&gt;DTEL&#45;SYMSGNO -->
<g id="edge45" class="edge">
<title>TABL&#45;SCX_T100KEY&#45;&gt;DTEL&#45;SYMSGNO</title>
<path fill="none" stroke="black" d="M605.53,-143.88C589.43,-134.64 569.37,-123.13 552.08,-113.21"/>
<polygon fill="black" stroke="black" points="553.75,-110.13 543.33,-108.19 550.26,-116.2 553.75,-110.13"/>
</g>
<!-- TABL&#45;SCX_T100KEY&#45;&gt;DTEL&#45;SYMSGID -->
<g id="edge44" class="edge">
<title>TABL&#45;SCX_T100KEY&#45;&gt;DTEL&#45;SYMSGID</title>
<path fill="none" stroke="black" d="M704.48,-143.97C748.6,-133.09 805.59,-119.05 849.79,-108.15"/>
<polygon fill="black" stroke="black" points="850.72,-111.53 859.59,-105.73 849.04,-104.73 850.72,-111.53"/>
</g>
<!-- DOMA&#45;SYMSGNO -->
<g id="node18" class="node">
<title>DOMA&#45;SYMSGNO</title>
<g id="a_node18"><a xlink:href="./DOMA_SYMSGNO.html" xlink:title="DOMA&#45;SYMSGNO">
<polygon fill="none" stroke="yellow" points="579.23,-36 447.51,-36 447.51,0 579.23,0 579.23,-36"/>
<text text-anchor="middle" x="513.37" y="-13.8" font-family="Times,serif" font-size="14.00">DOMA&#45;SYMSGNO</text>
</a>
</g>
</g>
<!-- DTEL&#45;SYMSGNO&#45;&gt;DOMA&#45;SYMSGNO -->
<g id="edge47" class="edge">
<title>DTEL&#45;SYMSGNO&#45;&gt;DOMA&#45;SYMSGNO</title>
<path fill="none" stroke="black" d="M513.37,-71.7C513.37,-63.98 513.37,-54.71 513.37,-46.11"/>
<polygon fill="black" stroke="black" points="516.87,-46.1 513.37,-36.1 509.87,-46.1 516.87,-46.1"/>
</g>
<!-- DOMA&#45;ARBGB -->
<g id="node20" class="node">
<title>DOMA&#45;ARBGB</title>
<g id="a_node20"><a xlink:href="./DOMA_ARBGB.html" xlink:title="DOMA&#45;ARBGB">
<polygon fill="none" stroke="yellow" points="975.02,-36 863.72,-36 863.72,0 975.02,0 975.02,-36"/>
<text text-anchor="middle" x="919.37" y="-13.8" font-family="Times,serif" font-size="14.00">DOMA&#45;ARBGB</text>
</a>
</g>
</g>
<!-- DTEL&#45;SYMSGID&#45;&gt;DOMA&#45;ARBGB -->
<g id="edge48" class="edge">
<title>DTEL&#45;SYMSGID&#45;&gt;DOMA&#45;ARBGB</title>
<path fill="none" stroke="black" d="M919.37,-71.7C919.37,-63.98 919.37,-54.71 919.37,-46.11"/>
<polygon fill="black" stroke="black" points="922.87,-46.1 919.37,-36.1 915.87,-46.1 922.87,-46.1"/>
</g>
<!-- DOMA&#45;SYCHAR01 -->
<g id="node22" class="node">
<title>DOMA&#45;SYCHAR01</title>
<g id="a_node22"><a xlink:href="./DOMA_SYCHAR01.html" xlink:title="DOMA&#45;SYCHAR01">
<polygon fill="none" stroke="yellow" points="428.57,-180 294.17,-180 294.17,-144 428.57,-144 428.57,-180"/>
<text text-anchor="middle" x="361.37" y="-157.8" font-family="Times,serif" font-size="14.00">DOMA&#45;SYCHAR01</text>
</a>
</g>
</g>
<!-- DTEL&#45;SYMSGTY&#45;&gt;DOMA&#45;SYCHAR01 -->
<g id="edge49" class="edge">
<title>DTEL&#45;SYMSGTY&#45;&gt;DOMA&#45;SYCHAR01</title>
<path fill="none" stroke="black" d="M365.14,-215.7C364.58,-207.98 363.92,-198.71 363.31,-190.11"/>
<polygon fill="black" stroke="black" points="366.8,-189.83 362.59,-180.1 359.81,-190.33 366.8,-189.83"/>
</g>
<!-- DOMA&#45;SYCHAR50 -->
<g id="node24" class="node">
<title>DOMA&#45;SYCHAR50</title>
<g id="a_node24"><a xlink:href="./DOMA_SYCHAR50.html" xlink:title="DOMA&#45;SYCHAR50">
<polygon fill="none" stroke="yellow" points="1130.57,-180 996.17,-180 996.17,-144 1130.57,-144 1130.57,-180"/>
<text text-anchor="middle" x="1063.37" y="-157.8" font-family="Times,serif" font-size="14.00">DOMA&#45;SYCHAR50</text>
</a>
</g>
</g>
<!-- DTEL&#45;SYMSGV&#45;&gt;DOMA&#45;SYCHAR50 -->
<g id="edge50" class="edge">
<title>DTEL&#45;SYMSGV&#45;&gt;DOMA&#45;SYCHAR50</title>
<path fill="none" stroke="black" d="M1055.84,-215.7C1056.95,-207.98 1058.27,-198.71 1059.5,-190.11"/>
<polygon fill="black" stroke="black" points="1062.98,-190.5 1060.93,-180.1 1056.05,-189.51 1062.98,-190.5"/>
</g>
<!-- INTF&#45;IF_XCO_MESSAGE_SHORT_TEXT&#45;&gt;INTF&#45;IF_XCO_TEXT -->
<g id="edge52" class="edge">
<title>INTF&#45;IF_XCO_MESSAGE_SHORT_TEXT&#45;&gt;INTF&#45;IF_XCO_TEXT</title>
<path fill="none" stroke="black" d="M1256.96,-324.05C1257.84,-350.7 1259.37,-403.88 1259.37,-449 1259.37,-739 1259.37,-739 1259.37,-739 1259.37,-795.87 1097.38,-841.4 995.08,-864.48"/>
<polygon fill="black" stroke="black" points="994.06,-861.12 985.06,-866.71 995.58,-867.95 994.06,-861.12"/>
</g>
<!-- INTF&#45;IF_XCO_MESSAGE_SHORT_TEXT&#45;&gt;INTF&#45;IF_XCO_MESSAGE -->
<g id="edge51" class="edge">
<title>INTF&#45;IF_XCO_MESSAGE_SHORT_TEXT&#45;&gt;INTF&#45;IF_XCO_MESSAGE</title>
<path fill="none" stroke="black" d="M1191.87,-324.11C1151.23,-334.25 1098.35,-347.12 1054.2,-357.62"/>
<polygon fill="black" stroke="black" points="1053.26,-354.25 1044.34,-359.97 1054.88,-361.06 1053.26,-354.25"/>
</g>
<!-- INTF&#45;IF_XCO_L10N_TEXT -->
<g id="node26" class="node">
<title>INTF&#45;IF_XCO_L10N_TEXT</title>
<g id="a_node26"><a xlink:href="./INTF_IF_XCO_L10N_TEXT.html" xlink:title="INTF&#45;IF_XCO_L10N_TEXT">
<polygon fill="none" stroke="yellow" points="1431.05,-252 1247.69,-252 1247.69,-216 1431.05,-216 1431.05,-252"/>
<text text-anchor="middle" x="1339.37" y="-229.8" font-family="Times,serif" font-size="14.00">INTF&#45;IF_XCO_L10N_TEXT</text>
</a>
</g>
</g>
<!-- INTF&#45;IF_XCO_MESSAGE_SHORT_TEXT&#45;&gt;INTF&#45;IF_XCO_L10N_TEXT -->
<g id="edge53" class="edge">
<title>INTF&#45;IF_XCO_MESSAGE_SHORT_TEXT&#45;&gt;INTF&#45;IF_XCO_L10N_TEXT</title>
<path fill="none" stroke="black" d="M1276.89,-287.7C1287.24,-278.97 1299.96,-268.24 1311.21,-258.75"/>
<polygon fill="black" stroke="black" points="1313.7,-261.23 1319.09,-252.1 1309.19,-255.88 1313.7,-261.23"/>
</g>
<!-- INTF&#45;IF_XCO_L10N_TEXT&#45;&gt;INTF&#45;IF_XCO_TEXT -->
<g id="edge55" class="edge">
<title>INTF&#45;IF_XCO_L10N_TEXT&#45;&gt;INTF&#45;IF_XCO_TEXT</title>
<path fill="none" stroke="black" d="M1365.36,-252.02C1377.48,-261.26 1391.03,-273.72 1399.37,-288 1419.78,-322.92 1418.37,-336.55 1418.37,-377 1418.37,-739 1418.37,-739 1418.37,-739 1418.37,-825.88 1137.86,-862.13 994.97,-874.97"/>
<polygon fill="black" stroke="black" points="994.58,-871.49 984.92,-875.85 995.19,-878.46 994.58,-871.49"/>
</g>
<!-- DTEL&#45;SPRAS -->
<g id="node27" class="node">
<title>DTEL&#45;SPRAS</title>
<g id="a_node27"><a xlink:href="./DTEL_SPRAS.html" xlink:title="DTEL&#45;SPRAS">
<polygon fill="none" stroke="green" points="1389.09,-180 1289.66,-180 1289.66,-144 1389.09,-144 1389.09,-180"/>
<text text-anchor="middle" x="1339.37" y="-157.8" font-family="Times,serif" font-size="14.00">DTEL&#45;SPRAS</text>
</a>
</g>
</g>
<!-- INTF&#45;IF_XCO_L10N_TEXT&#45;&gt;DTEL&#45;SPRAS -->
<g id="edge54" class="edge">
<title>INTF&#45;IF_XCO_L10N_TEXT&#45;&gt;DTEL&#45;SPRAS</title>
<path fill="none" stroke="black" d="M1339.37,-215.7C1339.37,-207.98 1339.37,-198.71 1339.37,-190.11"/>
<polygon fill="black" stroke="black" points="1342.87,-190.1 1339.37,-180.1 1335.87,-190.1 1342.87,-190.1"/>
</g>
<!-- DOMA&#45;SPRAS -->
<g id="node28" class="node">
<title>DOMA&#45;SPRAS</title>
<g id="a_node28"><a xlink:href="./DOMA_SPRAS.html" xlink:title="DOMA&#45;SPRAS">
<polygon fill="none" stroke="green" points="1392.59,-108 1286.16,-108 1286.16,-72 1392.59,-72 1392.59,-108"/>
<text text-anchor="middle" x="1339.37" y="-85.8" font-family="Times,serif" font-size="14.00">DOMA&#45;SPRAS</text>
</a>
</g>
</g>
<!-- DTEL&#45;SPRAS&#45;&gt;DOMA&#45;SPRAS -->
<g id="edge56" class="edge">
<title>DTEL&#45;SPRAS&#45;&gt;DOMA&#45;SPRAS</title>
<path fill="none" stroke="black" d="M1339.37,-143.7C1339.37,-135.98 1339.37,-126.71 1339.37,-118.11"/>
<polygon fill="black" stroke="black" points="1342.87,-118.1 1339.37,-108.1 1335.87,-118.1 1342.87,-118.1"/>
</g>
<!-- CLAS&#45;CL_XCO_MESSAGE_TYPE&#45;&gt;INTF&#45;IF_XCO_NEWS -->
<g id="edge59" class="edge">
<title>CLAS&#45;CL_XCO_MESSAGE_TYPE&#45;&gt;INTF&#45;IF_XCO_NEWS</title>
<path fill="none" stroke="black" d="M342.06,-324.03C490.93,-363.21 857.11,-459.6 1015.43,-501.27"/>
<polygon fill="black" stroke="black" points="1014.99,-504.78 1025.56,-503.94 1016.78,-498.01 1014.99,-504.78"/>
</g>
<!-- CLAS&#45;CL_XCO_MESSAGE_TYPE&#45;&gt;DTEL&#45;SYMSGTY -->
<g id="edge57" class="edge">
<title>CLAS&#45;CL_XCO_MESSAGE_TYPE&#45;&gt;DTEL&#45;SYMSGTY</title>
<path fill="none" stroke="black" d="M299.37,-287.7C310.58,-278.88 324.37,-268.03 336.53,-258.47"/>
<polygon fill="black" stroke="black" points="338.93,-261.04 344.62,-252.1 334.6,-255.54 338.93,-261.04"/>
</g>
<!-- CLAS&#45;CL_XCO_ENUM_CONSTANT -->
<g id="node30" class="node">
<title>CLAS&#45;CL_XCO_ENUM_CONSTANT</title>
<g id="a_node30"><a xlink:href="./CLAS_CL_XCO_ENUM_CONSTANT.html" xlink:title="CLAS&#45;CL_XCO_ENUM_CONSTANT">
<polygon fill="none" stroke="yellow" points="286.61,-252 46.13,-252 46.13,-216 286.61,-216 286.61,-252"/>
<text text-anchor="middle" x="166.37" y="-229.8" font-family="Times,serif" font-size="14.00">CLAS&#45;CL_XCO_ENUM_CONSTANT</text>
</a>
</g>
</g>
<!-- CLAS&#45;CL_XCO_MESSAGE_TYPE&#45;&gt;CLAS&#45;CL_XCO_ENUM_CONSTANT -->
<g id="edge58" class="edge">
<title>CLAS&#45;CL_XCO_MESSAGE_TYPE&#45;&gt;CLAS&#45;CL_XCO_ENUM_CONSTANT</title>
<path fill="none" stroke="black" d="M250.22,-287.88C235.84,-278.81 217.99,-267.55 202.46,-257.76"/>
<polygon fill="black" stroke="black" points="203.96,-254.56 193.63,-252.19 200.22,-260.48 203.96,-254.56"/>
</g>
<!-- INTF&#45;IF_XCO_PRINTABLE -->
<g id="node31" class="node">
<title>INTF&#45;IF_XCO_PRINTABLE</title>
<g id="a_node31"><a xlink:href="./INTF_IF_XCO_PRINTABLE.html" xlink:title="INTF&#45;IF_XCO_PRINTABLE">
<polygon fill="none" stroke="green" points="184.62,-180 0.13,-180 0.13,-144 184.62,-144 184.62,-180"/>
<text text-anchor="middle" x="92.37" y="-157.8" font-family="Times,serif" font-size="14.00">INTF&#45;IF_XCO_PRINTABLE</text>
</a>
</g>
</g>
<!-- CLAS&#45;CL_XCO_ENUM_CONSTANT&#45;&gt;INTF&#45;IF_XCO_PRINTABLE -->
<g id="edge60" class="edge">
<title>CLAS&#45;CL_XCO_ENUM_CONSTANT&#45;&gt;INTF&#45;IF_XCO_PRINTABLE</title>
<path fill="none" stroke="black" d="M148.08,-215.7C138.94,-207.05 127.73,-196.45 117.77,-187.03"/>
<polygon fill="black" stroke="black" points="120.12,-184.43 110.45,-180.1 115.31,-189.52 120.12,-184.43"/>
</g>
<!-- INTF&#45;IF_XCO_PRINTABLE&#45;&gt;INTF&#45;IF_XCO_TEXT -->
<g id="edge61" class="edge">
<title>INTF&#45;IF_XCO_PRINTABLE&#45;&gt;INTF&#45;IF_XCO_TEXT</title>
<path fill="none" stroke="black" d="M68.84,-180.2C57.67,-189.58 45.1,-202.09 37.37,-216 17.73,-251.36 18.37,-264.55 18.37,-305 18.37,-739 18.37,-739 18.37,-739 18.37,-820.89 610.32,-863.5 831.4,-876.56"/>
<polygon fill="black" stroke="black" points="831.46,-880.07 841.64,-877.16 831.86,-873.08 831.46,-880.07"/>
</g>
<!-- TABL&#45;SYMSG&#45;&gt;DTEL&#45;SYMSGNO -->
<g id="edge64" class="edge">
<title>TABL&#45;SYMSG&#45;&gt;DTEL&#45;SYMSGNO</title>
<path fill="none" stroke="black" d="M915.58,-289.82C912.81,-289.17 910.06,-288.56 907.37,-288 793.15,-264.29 757.6,-290.2 647.37,-252 587.52,-231.26 559.2,-232.91 524.37,-180 512.44,-161.87 510.24,-137.09 510.71,-118.28"/>
<polygon fill="black" stroke="black" points="514.21,-118.43 511.23,-108.26 507.22,-118.07 514.21,-118.43"/>
</g>
<!-- TABL&#45;SYMSG&#45;&gt;DTEL&#45;SYMSGID -->
<g id="edge63" class="edge">
<title>TABL&#45;SYMSG&#45;&gt;DTEL&#45;SYMSGID</title>
<path fill="none" stroke="black" d="M968.55,-287.6C968.36,-257.54 965.83,-194.29 949.37,-144 946.36,-134.8 941.67,-125.4 936.88,-117.13"/>
<polygon fill="black" stroke="black" points="939.71,-115.04 931.52,-108.33 933.73,-118.69 939.71,-115.04"/>
</g>
<!-- TABL&#45;SYMSG&#45;&gt;DTEL&#45;SYMSGTY -->
<g id="edge62" class="edge">
<title>TABL&#45;SYMSG&#45;&gt;DTEL&#45;SYMSGTY</title>
<path fill="none" stroke="black" d="M915.61,-289.64C912.84,-289.04 910.08,-288.49 907.37,-288 719.93,-254.29 669.54,-274.06 480.37,-252 466.7,-250.41 452.14,-248.44 438.16,-246.42"/>
<polygon fill="black" stroke="black" points="438.51,-242.93 428.1,-244.94 437.49,-249.86 438.51,-242.93"/>
</g>
<!-- TABL&#45;SYMSG&#45;&gt;DTEL&#45;SYMSGV -->
<g id="edge65" class="edge">
<title>TABL&#45;SYMSG&#45;&gt;DTEL&#45;SYMSGV</title>
<path fill="none" stroke="black" d="M989.38,-287.7C1000.09,-278.88 1013.26,-268.03 1024.87,-258.47"/>
<polygon fill="black" stroke="black" points="1027.11,-261.16 1032.6,-252.1 1022.66,-255.76 1027.11,-261.16"/>
</g>
<!-- INTF&#45;IF_XCO_XSTRING&#45;&gt;INTF&#45;IF_XCO_STRING -->
<g id="edge67" class="edge">
<title>INTF&#45;IF_XCO_XSTRING&#45;&gt;INTF&#45;IF_XCO_STRING</title>
<path fill="none" stroke="black" d="M354.7,-536.9C360.69,-537.96 366.63,-539.01 372.37,-540 448.97,-553.25 535.89,-567.37 599.2,-577.71"/>
<polygon fill="black" stroke="black" points="598.72,-581.18 609.16,-579.33 599.85,-574.27 598.72,-581.18"/>
</g>
<!-- INTF&#45;IF_XCO_XSTRING_STRING_CNVRSN -->
<g id="node34" class="node">
<title>INTF&#45;IF_XCO_XSTRING_STRING_CNVRSN</title>
<g id="a_node34"><a xlink:href="./INTF_IF_XCO_XSTRING_STRING_CNVRSN.html" xlink:title="INTF&#45;IF_XCO_XSTRING_STRING_CNVRSN">
<polygon fill="none" stroke="green" points="415.1,-468 125.64,-468 125.64,-432 415.1,-432 415.1,-468"/>
<text text-anchor="middle" x="270.37" y="-445.8" font-family="Times,serif" font-size="14.00">INTF&#45;IF_XCO_XSTRING_STRING_CNVRSN</text>
</a>
</g>
</g>
<!-- INTF&#45;IF_XCO_XSTRING&#45;&gt;INTF&#45;IF_XCO_XSTRING_STRING_CNVRSN -->
<g id="edge66" class="edge">
<title>INTF&#45;IF_XCO_XSTRING&#45;&gt;INTF&#45;IF_XCO_XSTRING_STRING_CNVRSN</title>
<path fill="none" stroke="black" d="M270.37,-503.7C270.37,-495.98 270.37,-486.71 270.37,-478.11"/>
<polygon fill="black" stroke="black" points="273.87,-478.1 270.37,-468.1 266.87,-478.1 273.87,-478.1"/>
</g>
<!-- INTF&#45;IF_XCO_STRING_DECOMPOSITION&#45;&gt;INTF&#45;IF_XCO_STRINGS -->
<g id="edge69" class="edge">
<title>INTF&#45;IF_XCO_STRING_DECOMPOSITION&#45;&gt;INTF&#45;IF_XCO_STRINGS</title>
<path fill="none" stroke="black" d="M981.82,-540.05C1047.81,-556.14 1123.65,-587.38 1164.37,-648 1191.14,-687.85 1194.6,-718.72 1164.37,-756 1144.47,-780.55 1069.5,-794.16 1006.64,-801.43"/>
<polygon fill="black" stroke="black" points="1006.21,-797.95 996.66,-802.54 1006.99,-804.91 1006.21,-797.95"/>
</g>
<!-- INTF&#45;IF_XCO_STRING_DECOMPOSITION&#45;&gt;INTF&#45;IF_XCO_STRING -->
<g id="edge68" class="edge">
<title>INTF&#45;IF_XCO_STRING_DECOMPOSITION&#45;&gt;INTF&#45;IF_XCO_STRING</title>
<path fill="none" stroke="black" d="M822.81,-540.07C800.4,-549.71 771.05,-561.85 745.46,-572.06"/>
<polygon fill="black" stroke="black" points="743.86,-568.93 735.86,-575.88 746.44,-575.44 743.86,-568.93"/>
</g>
<!-- INTF&#45;IF_XCO_STRING_COMPOSITION&#45;&gt;INTF&#45;IF_XCO_STRINGS -->
<g id="edge70" class="edge">
<title>INTF&#45;IF_XCO_STRING_COMPOSITION&#45;&gt;INTF&#45;IF_XCO_STRINGS</title>
<path fill="none" stroke="black" d="M749.27,-756.11C782.06,-765.99 822.26,-778.47 854.7,-788.83"/>
<polygon fill="black" stroke="black" points="853.91,-792.25 864.51,-791.97 856.05,-785.58 853.91,-792.25"/>
</g>
<!-- INTF&#45;IF_XCO_STRING_COMPOSITION&#45;&gt;INTF&#45;IF_XCO_STRING -->
<g id="edge71" class="edge">
<title>INTF&#45;IF_XCO_STRING_COMPOSITION&#45;&gt;INTF&#45;IF_XCO_STRING</title>
<path fill="none" stroke="black" d="M688.37,-719.87C688.37,-695.67 688.37,-651.21 688.37,-622.39"/>
<polygon fill="black" stroke="black" points="691.87,-622.19 688.37,-612.19 684.87,-622.19 691.87,-622.19"/>
</g>
<!-- DOMA&#45;INT4 -->
<g id="node40" class="node">
<title>DOMA&#45;INT4</title>
<g id="a_node40"><a xlink:href="./DOMA_INT4.html" xlink:title="DOMA&#45;INT4">
<polygon fill="none" stroke="yellow" points="1155.12,-684 1061.63,-684 1061.63,-648 1155.12,-648 1155.12,-684"/>
<text text-anchor="middle" x="1108.37" y="-661.8" font-family="Times,serif" font-size="14.00">DOMA&#45;INT4</text>
</a>
</g>
</g>
<!-- DTEL&#45;INT4&#45;&gt;DOMA&#45;INT4 -->
<g id="edge72" class="edge">
<title>DTEL&#45;INT4&#45;&gt;DOMA&#45;INT4</title>
<path fill="none" stroke="black" d="M1111.38,-719.7C1110.94,-711.98 1110.41,-702.71 1109.92,-694.11"/>
<polygon fill="black" stroke="black" points="1113.41,-693.89 1109.35,-684.1 1106.43,-694.29 1113.41,-693.89"/>
</g>
<!-- CLAS&#45;CL_XCO_GEN_DDLS_BP_DDL_EXPRESS -->
<g id="node42" class="node">
<title>CLAS&#45;CL_XCO_GEN_DDLS_BP_DDL_EXPRESS</title>
<g id="a_node42"><a xlink:href="./CLAS_CL_XCO_GEN_DDLS_BP_DDL_EXPRESS.html" xlink:title="CLAS&#45;CL_XCO_GEN_DDLS_BP_DDL_EXPRESS">
<polygon fill="none" stroke="green" points="1762.85,-828 1445.9,-828 1445.9,-792 1762.85,-792 1762.85,-828"/>
<text text-anchor="middle" x="1604.37" y="-805.8" font-family="Times,serif" font-size="14.00">CLAS&#45;CL_XCO_GEN_DDLS_BP_DDL_EXPRESS</text>
</a>
</g>
</g>
<!-- INTF&#45;IF_XCO_GEN_DDLS_DDL_EXPRESSION&#45;&gt;CLAS&#45;CL_XCO_GEN_DDLS_BP_DDL_EXPRESS -->
<g id="edge73" class="edge">
<title>INTF&#45;IF_XCO_GEN_DDLS_DDL_EXPRESSION&#45;&gt;CLAS&#45;CL_XCO_GEN_DDLS_BP_DDL_EXPRESS</title>
<path fill="none" stroke="black" d="M1453.8,-863.97C1481.6,-854.19 1516.71,-841.84 1546.03,-831.52"/>
<polygon fill="black" stroke="black" points="1547.46,-834.73 1555.73,-828.11 1545.13,-828.13 1547.46,-834.73"/>
</g>
<!-- INTF&#45;IF_XCO_DDL_EXPR_CONDITION&#45;&gt;INTF&#45;IF_XCO_DDL_EXPRESSION -->
<g id="edge74" class="edge">
<title>INTF&#45;IF_XCO_DDL_EXPR_CONDITION&#45;&gt;INTF&#45;IF_XCO_DDL_EXPRESSION</title>
<path fill="none" stroke="black" d="M1678.2,-900.07C1658.45,-909.63 1632.5,-921.63 1609.68,-931.79"/>
<polygon fill="black" stroke="black" points="1608.18,-928.63 1600.45,-935.88 1611.01,-935.03 1608.18,-928.63"/>
</g>
</g>
</svg>
