<?xml version="1.0" encoding="UTF-8" standalone="no"?>
<!DOCTYPE svg PUBLIC "-//W3C//DTD SVG 1.1//EN"
 "http://www.w3.org/Graphics/SVG/1.1/DTD/svg11.dtd">
<!-- Generated by graphviz version 2.47.3 (20210619.1520)
 -->
<!-- Title: G Pages: 1 -->
<svg width="1200pt" height="404pt"
 viewBox="0.00 0.00 1199.56 404.00" xmlns="http://www.w3.org/2000/svg" xmlns:xlink="http://www.w3.org/1999/xlink">
<g id="graph0" class="graph" transform="scale(1 1) rotate(0) translate(4 400)">
<title>G</title>
<polygon fill="white" stroke="transparent" points="-4,4 -4,-400 1195.56,-400 1195.56,4 -4,4"/>
<!-- INTF&#45;IF_ABAP_TESTDOUBLE_CONFIG -->
<g id="node1" class="node">
<title>INTF&#45;IF_ABAP_TESTDOUBLE_CONFIG</title>
<polygon fill="none" stroke="green" points="919.26,-396 654.58,-396 654.58,-360 919.26,-360 919.26,-396"/>
<text text-anchor="middle" x="786.92" y="-373.8" font-family="Times,serif" font-size="14.00">INTF&#45;IF_ABAP_TESTDOUBLE_CONFIG</text>
</g>
<!-- INTF&#45;IF_ABAP_TESTDOUBLE_MATCHER -->
<g id="node2" class="node">
<title>INTF&#45;IF_ABAP_TESTDOUBLE_MATCHER</title>
<g id="a_node2"><a xlink:href="./INTF_IF_ABAP_TESTDOUBLE_MATCHER.html" xlink:title="INTF&#45;IF_ABAP_TESTDOUBLE_MATCHER">
<polygon fill="none" stroke="green" points="405.59,-324 124.24,-324 124.24,-288 405.59,-288 405.59,-324"/>
<text text-anchor="middle" x="264.92" y="-301.8" font-family="Times,serif" font-size="14.00">INTF&#45;IF_ABAP_TESTDOUBLE_MATCHER</text>
</a>
</g>
</g>
<!-- INTF&#45;IF_ABAP_TESTDOUBLE_CONFIG&#45;&gt;INTF&#45;IF_ABAP_TESTDOUBLE_MATCHER -->
<g id="edge4" class="edge">
<title>INTF&#45;IF_ABAP_TESTDOUBLE_CONFIG&#45;&gt;INTF&#45;IF_ABAP_TESTDOUBLE_MATCHER</title>
<path fill="none" stroke="black" d="M659.89,-359.97C581.89,-349.51 482,-336.11 402.19,-325.41"/>
<polygon fill="black" stroke="black" points="402.44,-321.91 392.06,-324.05 401.51,-328.85 402.44,-321.91"/>
</g>
<!-- INTF&#45;IF_ABAP_TESTDOUBLE_ANSWER -->
<g id="node4" class="node">
<title>INTF&#45;IF_ABAP_TESTDOUBLE_ANSWER</title>
<g id="a_node4"><a xlink:href="./INTF_IF_ABAP_TESTDOUBLE_ANSWER.html" xlink:title="INTF&#45;IF_ABAP_TESTDOUBLE_ANSWER">
<polygon fill="none" stroke="green" points="698.76,-324 427.08,-324 427.08,-288 698.76,-288 698.76,-324"/>
<text text-anchor="middle" x="562.92" y="-301.8" font-family="Times,serif" font-size="14.00">INTF&#45;IF_ABAP_TESTDOUBLE_ANSWER</text>
</a>
</g>
</g>
<!-- INTF&#45;IF_ABAP_TESTDOUBLE_CONFIG&#45;&gt;INTF&#45;IF_ABAP_TESTDOUBLE_ANSWER -->
<g id="edge3" class="edge">
<title>INTF&#45;IF_ABAP_TESTDOUBLE_CONFIG&#45;&gt;INTF&#45;IF_ABAP_TESTDOUBLE_ANSWER</title>
<path fill="none" stroke="black" d="M732.41,-359.97C700.7,-350.06 660.56,-337.51 627.31,-327.12"/>
<polygon fill="black" stroke="black" points="628.26,-323.75 617.67,-324.11 626.17,-330.43 628.26,-323.75"/>
</g>
<!-- CLAS&#45;CX_ROOT -->
<g id="node6" class="node">
<title>CLAS&#45;CX_ROOT</title>
<g id="a_node6"><a xlink:href="./CLAS_CX_ROOT.html" xlink:title="CLAS&#45;CX_ROOT">
<polygon fill="none" stroke="green" points="735.4,-180 614.43,-180 614.43,-144 735.4,-144 735.4,-180"/>
<text text-anchor="middle" x="674.92" y="-157.8" font-family="Times,serif" font-size="14.00">CLAS&#45;CX_ROOT</text>
</a>
</g>
</g>
<!-- INTF&#45;IF_ABAP_TESTDOUBLE_CONFIG&#45;&gt;CLAS&#45;CX_ROOT -->
<g id="edge1" class="edge">
<title>INTF&#45;IF_ABAP_TESTDOUBLE_CONFIG&#45;&gt;CLAS&#45;CX_ROOT</title>
<path fill="none" stroke="black" d="M810.26,-359.86C848.94,-329.4 918.5,-264.47 880.92,-216 864.23,-194.48 798.39,-180.16 745.58,-171.89"/>
<polygon fill="black" stroke="black" points="745.96,-168.41 735.54,-170.37 744.91,-175.33 745.96,-168.41"/>
</g>
<!-- INTF&#45;IF_ABAP_TESTDOUBLE_VERIFY -->
<g id="node16" class="node">
<title>INTF&#45;IF_ABAP_TESTDOUBLE_VERIFY</title>
<g id="a_node16"><a xlink:href="./INTF_IF_ABAP_TESTDOUBLE_VERIFY.html" xlink:title="INTF&#45;IF_ABAP_TESTDOUBLE_VERIFY">
<polygon fill="none" stroke="green" points="1191.7,-324 928.13,-324 928.13,-288 1191.7,-288 1191.7,-324"/>
<text text-anchor="middle" x="1059.92" y="-301.8" font-family="Times,serif" font-size="14.00">INTF&#45;IF_ABAP_TESTDOUBLE_VERIFY</text>
</a>
</g>
</g>
<!-- INTF&#45;IF_ABAP_TESTDOUBLE_CONFIG&#45;&gt;INTF&#45;IF_ABAP_TESTDOUBLE_VERIFY -->
<g id="edge2" class="edge">
<title>INTF&#45;IF_ABAP_TESTDOUBLE_CONFIG&#45;&gt;INTF&#45;IF_ABAP_TESTDOUBLE_VERIFY</title>
<path fill="none" stroke="black" d="M853.35,-359.97C892.57,-349.91 942.39,-337.14 983.27,-326.65"/>
<polygon fill="black" stroke="black" points="984.37,-329.98 993.19,-324.11 982.63,-323.2 984.37,-329.98"/>
</g>
<!-- INTF&#45;IF_ABAP_TESTDOUBLE_ARGUMENTS -->
<g id="node3" class="node">
<title>INTF&#45;IF_ABAP_TESTDOUBLE_ARGUMENTS</title>
<g id="a_node3"><a xlink:href="./INTF_IF_ABAP_TESTDOUBLE_ARGUMENTS.html" xlink:title="INTF&#45;IF_ABAP_TESTDOUBLE_ARGUMENTS">
<polygon fill="none" stroke="green" points="299.75,-252 0.08,-252 0.08,-216 299.75,-216 299.75,-252"/>
<text text-anchor="middle" x="149.92" y="-229.8" font-family="Times,serif" font-size="14.00">INTF&#45;IF_ABAP_TESTDOUBLE_ARGUMENTS</text>
</a>
</g>
</g>
<!-- INTF&#45;IF_ABAP_TESTDOUBLE_MATCHER&#45;&gt;INTF&#45;IF_ABAP_TESTDOUBLE_ARGUMENTS -->
<g id="edge5" class="edge">
<title>INTF&#45;IF_ABAP_TESTDOUBLE_MATCHER&#45;&gt;INTF&#45;IF_ABAP_TESTDOUBLE_ARGUMENTS</title>
<path fill="none" stroke="black" d="M236.79,-287.88C221.75,-278.72 203.05,-267.34 186.86,-257.48"/>
<polygon fill="black" stroke="black" points="188.52,-254.4 178.16,-252.19 184.88,-260.38 188.52,-254.4"/>
</g>
<!-- INTF&#45;IF_ABAP_TESTDOUBLE_ANSWER&#45;&gt;INTF&#45;IF_ABAP_TESTDOUBLE_ARGUMENTS -->
<g id="edge7" class="edge">
<title>INTF&#45;IF_ABAP_TESTDOUBLE_ANSWER&#45;&gt;INTF&#45;IF_ABAP_TESTDOUBLE_ARGUMENTS</title>
<path fill="none" stroke="black" d="M462.41,-287.97C401.33,-277.61 323.28,-264.38 260.46,-253.74"/>
<polygon fill="black" stroke="black" points="260.96,-250.27 250.51,-252.05 259.79,-257.17 260.96,-250.27"/>
</g>
<!-- INTF&#45;IF_ABAP_TESTDOUBLE_RESULT -->
<g id="node5" class="node">
<title>INTF&#45;IF_ABAP_TESTDOUBLE_RESULT</title>
<g id="a_node5"><a xlink:href="./INTF_IF_ABAP_TESTDOUBLE_RESULT.html" xlink:title="INTF&#45;IF_ABAP_TESTDOUBLE_RESULT">
<polygon fill="none" stroke="green" points="583.54,-252 318.29,-252 318.29,-216 583.54,-216 583.54,-252"/>
<text text-anchor="middle" x="450.92" y="-229.8" font-family="Times,serif" font-size="14.00">INTF&#45;IF_ABAP_TESTDOUBLE_RESULT</text>
</a>
</g>
</g>
<!-- INTF&#45;IF_ABAP_TESTDOUBLE_ANSWER&#45;&gt;INTF&#45;IF_ABAP_TESTDOUBLE_RESULT -->
<g id="edge8" class="edge">
<title>INTF&#45;IF_ABAP_TESTDOUBLE_ANSWER&#45;&gt;INTF&#45;IF_ABAP_TESTDOUBLE_RESULT</title>
<path fill="none" stroke="black" d="M535.52,-287.88C521.01,-278.81 503,-267.55 487.33,-257.76"/>
<polygon fill="black" stroke="black" points="488.76,-254.52 478.42,-252.19 485.05,-260.46 488.76,-254.52"/>
</g>
<!-- INTF&#45;IF_ABAP_TESTDOUBLE_HANDLE -->
<g id="node15" class="node">
<title>INTF&#45;IF_ABAP_TESTDOUBLE_HANDLE</title>
<g id="a_node15"><a xlink:href="./INTF_IF_ABAP_TESTDOUBLE_HANDLE.html" xlink:title="INTF&#45;IF_ABAP_TESTDOUBLE_HANDLE">
<polygon fill="none" stroke="green" points="872.19,-252 601.65,-252 601.65,-216 872.19,-216 872.19,-252"/>
<text text-anchor="middle" x="736.92" y="-229.8" font-family="Times,serif" font-size="14.00">INTF&#45;IF_ABAP_TESTDOUBLE_HANDLE</text>
</a>
</g>
</g>
<!-- INTF&#45;IF_ABAP_TESTDOUBLE_ANSWER&#45;&gt;INTF&#45;IF_ABAP_TESTDOUBLE_HANDLE -->
<g id="edge6" class="edge">
<title>INTF&#45;IF_ABAP_TESTDOUBLE_ANSWER&#45;&gt;INTF&#45;IF_ABAP_TESTDOUBLE_HANDLE</title>
<path fill="none" stroke="black" d="M605.48,-287.88C629.48,-278.22 659.65,-266.09 685.02,-255.88"/>
<polygon fill="black" stroke="black" points="686.52,-259.05 694.49,-252.07 683.91,-252.55 686.52,-259.05"/>
</g>
<!-- INTF&#45;IF_ABAP_TESTDOUBLE_RESULT&#45;&gt;CLAS&#45;CX_ROOT -->
<g id="edge9" class="edge">
<title>INTF&#45;IF_ABAP_TESTDOUBLE_RESULT&#45;&gt;CLAS&#45;CX_ROOT</title>
<path fill="none" stroke="black" d="M505.43,-215.97C537.13,-206.06 577.27,-193.51 610.53,-183.12"/>
<polygon fill="black" stroke="black" points="611.66,-186.43 620.16,-180.11 609.57,-179.75 611.66,-186.43"/>
</g>
<!-- INTF&#45;IF_SERIALIZABLE_OBJECT -->
<g id="node7" class="node">
<title>INTF&#45;IF_SERIALIZABLE_OBJECT</title>
<g id="a_node7"><a xlink:href="./INTF_IF_SERIALIZABLE_OBJECT.html" xlink:title="INTF&#45;IF_SERIALIZABLE_OBJECT">
<polygon fill="none" stroke="green" points="445.21,-108 216.63,-108 216.63,-72 445.21,-72 445.21,-108"/>
<text text-anchor="middle" x="330.92" y="-85.8" font-family="Times,serif" font-size="14.00">INTF&#45;IF_SERIALIZABLE_OBJECT</text>
</a>
</g>
</g>
<!-- CLAS&#45;CX_ROOT&#45;&gt;INTF&#45;IF_SERIALIZABLE_OBJECT -->
<g id="edge14" class="edge">
<title>CLAS&#45;CX_ROOT&#45;&gt;INTF&#45;IF_SERIALIZABLE_OBJECT</title>
<path fill="none" stroke="black" d="M614.21,-148.65C561.68,-137.96 484.88,-122.33 424.49,-110.04"/>
<polygon fill="black" stroke="black" points="425.06,-106.59 414.57,-108.02 423.67,-113.45 425.06,-106.59"/>
</g>
<!-- INTF&#45;IF_MESSAGE -->
<g id="node8" class="node">
<title>INTF&#45;IF_MESSAGE</title>
<g id="a_node8"><a xlink:href="./INTF_IF_MESSAGE.html" xlink:title="INTF&#45;IF_MESSAGE">
<polygon fill="none" stroke="green" points="598.95,-108 462.88,-108 462.88,-72 598.95,-72 598.95,-108"/>
<text text-anchor="middle" x="530.92" y="-85.8" font-family="Times,serif" font-size="14.00">INTF&#45;IF_MESSAGE</text>
</a>
</g>
</g>
<!-- CLAS&#45;CX_ROOT&#45;&gt;INTF&#45;IF_MESSAGE -->
<g id="edge13" class="edge">
<title>CLAS&#45;CX_ROOT&#45;&gt;INTF&#45;IF_MESSAGE</title>
<path fill="none" stroke="black" d="M639.69,-143.88C620.34,-134.47 596.15,-122.71 575.49,-112.67"/>
<polygon fill="black" stroke="black" points="576.8,-109.41 566.28,-108.19 573.74,-115.71 576.8,-109.41"/>
</g>
<!-- DTEL&#45;SYREPID -->
<g id="node9" class="node">
<title>DTEL&#45;SYREPID</title>
<g id="a_node9"><a xlink:href="./DTEL_SYREPID.html" xlink:title="DTEL&#45;SYREPID">
<polygon fill="none" stroke="green" points="732.17,-108 617.66,-108 617.66,-72 732.17,-72 732.17,-108"/>
<text text-anchor="middle" x="674.92" y="-85.8" font-family="Times,serif" font-size="14.00">DTEL&#45;SYREPID</text>
</a>
</g>
</g>
<!-- CLAS&#45;CX_ROOT&#45;&gt;DTEL&#45;SYREPID -->
<g id="edge12" class="edge">
<title>CLAS&#45;CX_ROOT&#45;&gt;DTEL&#45;SYREPID</title>
<path fill="none" stroke="black" d="M674.92,-143.7C674.92,-135.98 674.92,-126.71 674.92,-118.11"/>
<polygon fill="black" stroke="black" points="678.42,-118.1 674.92,-108.1 671.42,-118.1 678.42,-118.1"/>
</g>
<!-- DTEL&#45;S380ERRID -->
<g id="node11" class="node">
<title>DTEL&#45;S380ERRID</title>
<g id="a_node11"><a xlink:href="./DTEL_S380ERRID.html" xlink:title="DTEL&#45;S380ERRID">
<polygon fill="none" stroke="yellow" points="877.62,-108 750.22,-108 750.22,-72 877.62,-72 877.62,-108"/>
<text text-anchor="middle" x="813.92" y="-85.8" font-family="Times,serif" font-size="14.00">DTEL&#45;S380ERRID</text>
</a>
</g>
</g>
<!-- CLAS&#45;CX_ROOT&#45;&gt;DTEL&#45;S380ERRID -->
<g id="edge11" class="edge">
<title>CLAS&#45;CX_ROOT&#45;&gt;DTEL&#45;S380ERRID</title>
<path fill="none" stroke="black" d="M708.92,-143.88C727.52,-134.51 750.75,-122.81 770.62,-112.8"/>
<polygon fill="black" stroke="black" points="772.43,-115.81 779.78,-108.19 769.28,-109.56 772.43,-115.81"/>
</g>
<!-- DTEL&#45;SOTR_CONC -->
<g id="node13" class="node">
<title>DTEL&#45;SOTR_CONC</title>
<g id="a_node13"><a xlink:href="./DTEL_SOTR_CONC.html" xlink:title="DTEL&#45;SOTR_CONC">
<polygon fill="none" stroke="yellow" points="1036.01,-108 897.83,-108 897.83,-72 1036.01,-72 1036.01,-108"/>
<text text-anchor="middle" x="966.92" y="-85.8" font-family="Times,serif" font-size="14.00">DTEL&#45;SOTR_CONC</text>
</a>
</g>
</g>
<!-- CLAS&#45;CX_ROOT&#45;&gt;DTEL&#45;SOTR_CONC -->
<g id="edge10" class="edge">
<title>CLAS&#45;CX_ROOT&#45;&gt;DTEL&#45;SOTR_CONC</title>
<path fill="none" stroke="black" d="M735.42,-146.5C779.65,-135.89 840.04,-121.42 888.05,-109.91"/>
<polygon fill="black" stroke="black" points="888.88,-113.31 897.78,-107.57 887.24,-106.5 888.88,-113.31"/>
</g>
<!-- DOMA&#45;PROGRAMM -->
<g id="node10" class="node">
<title>DOMA&#45;PROGRAMM</title>
<g id="a_node10"><a xlink:href="./DOMA_PROGRAMM.html" xlink:title="DOMA&#45;PROGRAMM">
<polygon fill="none" stroke="yellow" points="728.51,-36 583.33,-36 583.33,0 728.51,0 728.51,-36"/>
<text text-anchor="middle" x="655.92" y="-13.8" font-family="Times,serif" font-size="14.00">DOMA&#45;PROGRAMM</text>
</a>
</g>
</g>
<!-- DTEL&#45;SYREPID&#45;&gt;DOMA&#45;PROGRAMM -->
<g id="edge15" class="edge">
<title>DTEL&#45;SYREPID&#45;&gt;DOMA&#45;PROGRAMM</title>
<path fill="none" stroke="black" d="M670.22,-71.7C668.1,-63.9 665.56,-54.51 663.2,-45.83"/>
<polygon fill="black" stroke="black" points="666.56,-44.84 660.56,-36.1 659.8,-46.67 666.56,-44.84"/>
</g>
<!-- DOMA&#45;SYCHAR30 -->
<g id="node12" class="node">
<title>DOMA&#45;SYCHAR30</title>
<g id="a_node12"><a xlink:href="./DOMA_SYCHAR30.html" xlink:title="DOMA&#45;SYCHAR30">
<polygon fill="none" stroke="yellow" points="881.12,-36 746.72,-36 746.72,0 881.12,0 881.12,-36"/>
<text text-anchor="middle" x="813.92" y="-13.8" font-family="Times,serif" font-size="14.00">DOMA&#45;SYCHAR30</text>
</a>
</g>
</g>
<!-- DTEL&#45;S380ERRID&#45;&gt;DOMA&#45;SYCHAR30 -->
<g id="edge16" class="edge">
<title>DTEL&#45;S380ERRID&#45;&gt;DOMA&#45;SYCHAR30</title>
<path fill="none" stroke="black" d="M813.92,-71.7C813.92,-63.98 813.92,-54.71 813.92,-46.11"/>
<polygon fill="black" stroke="black" points="817.42,-46.1 813.92,-36.1 810.42,-46.1 817.42,-46.1"/>
</g>
<!-- DOMA&#45;SYSUUID_C -->
<g id="node14" class="node">
<title>DOMA&#45;SYSUUID_C</title>
<g id="a_node14"><a xlink:href="./DOMA_SYSUUID_C.html" xlink:title="DOMA&#45;SYSUUID_C">
<polygon fill="none" stroke="yellow" points="1039.33,-36 898.5,-36 898.5,0 1039.33,0 1039.33,-36"/>
<text text-anchor="middle" x="968.92" y="-13.8" font-family="Times,serif" font-size="14.00">DOMA&#45;SYSUUID_C</text>
</a>
</g>
</g>
<!-- DTEL&#45;SOTR_CONC&#45;&gt;DOMA&#45;SYSUUID_C -->
<g id="edge17" class="edge">
<title>DTEL&#45;SOTR_CONC&#45;&gt;DOMA&#45;SYSUUID_C</title>
<path fill="none" stroke="black" d="M967.41,-71.7C967.63,-63.98 967.9,-54.71 968.14,-46.11"/>
<polygon fill="black" stroke="black" points="971.64,-46.2 968.43,-36.1 964.65,-46 971.64,-46.2"/>
</g>
</g>
</svg>
