<?xml version="1.0" encoding="UTF-8" standalone="no"?>
<!DOCTYPE svg PUBLIC "-//W3C//DTD SVG 1.1//EN"
 "http://www.w3.org/Graphics/SVG/1.1/DTD/svg11.dtd">
<!-- Generated by graphviz version 2.47.3 (20210619.1520)
 -->
<!-- Title: G Pages: 1 -->
<svg width="296pt" height="332pt"
 viewBox="0.00 0.00 296.19 332.00" xmlns="http://www.w3.org/2000/svg" xmlns:xlink="http://www.w3.org/1999/xlink">
<g id="graph0" class="graph" transform="scale(1 1) rotate(0) translate(4 328)">
<title>G</title>
<polygon fill="white" stroke="transparent" points="-4,4 -4,-328 292.19,-328 292.19,4 -4,4"/>
<!-- INTF&#45;IF_FDT_CP_AST_REFERENCE_NODE -->
<g id="node1" class="node">
<title>INTF&#45;IF_FDT_CP_AST_REFERENCE_NODE</title>
<polygon fill="none" stroke="green" points="288.29,-324 -0.1,-324 -0.1,-288 288.29,-288 288.29,-324"/>
<text text-anchor="middle" x="144.1" y="-301.8" font-family="Times,serif" font-size="14.00">INTF&#45;IF_FDT_CP_AST_REFERENCE_NODE</text>
</g>
<!-- INTF&#45;IF_FDT_CP_AST_NODE -->
<g id="node2" class="node">
<title>INTF&#45;IF_FDT_CP_AST_NODE</title>
<g id="a_node2"><a xlink:href="./INTF_IF_FDT_CP_AST_NODE.html" xlink:title="INTF&#45;IF_FDT_CP_AST_NODE">
<polygon fill="none" stroke="green" points="244.68,-252 43.51,-252 43.51,-216 244.68,-216 244.68,-252"/>
<text text-anchor="middle" x="144.1" y="-229.8" font-family="Times,serif" font-size="14.00">INTF&#45;IF_FDT_CP_AST_NODE</text>
</a>
</g>
</g>
<!-- INTF&#45;IF_FDT_CP_AST_REFERENCE_NODE&#45;&gt;INTF&#45;IF_FDT_CP_AST_NODE -->
<g id="edge1" class="edge">
<title>INTF&#45;IF_FDT_CP_AST_REFERENCE_NODE&#45;&gt;INTF&#45;IF_FDT_CP_AST_NODE</title>
<path fill="none" stroke="black" d="M144.1,-287.7C144.1,-279.98 144.1,-270.71 144.1,-262.11"/>
<polygon fill="black" stroke="black" points="147.6,-262.1 144.1,-252.1 140.6,-262.1 147.6,-262.1"/>
</g>
<!-- INTF&#45;IF_FDT_CP_EXTERNAL_TYPES -->
<g id="node3" class="node">
<title>INTF&#45;IF_FDT_CP_EXTERNAL_TYPES</title>
<g id="a_node3"><a xlink:href="./INTF_IF_FDT_CP_EXTERNAL_TYPES.html" xlink:title="INTF&#45;IF_FDT_CP_EXTERNAL_TYPES">
<polygon fill="none" stroke="green" points="270.51,-180 17.68,-180 17.68,-144 270.51,-144 270.51,-180"/>
<text text-anchor="middle" x="144.1" y="-157.8" font-family="Times,serif" font-size="14.00">INTF&#45;IF_FDT_CP_EXTERNAL_TYPES</text>
</a>
</g>
</g>
<!-- INTF&#45;IF_FDT_CP_AST_NODE&#45;&gt;INTF&#45;IF_FDT_CP_EXTERNAL_TYPES -->
<g id="edge2" class="edge">
<title>INTF&#45;IF_FDT_CP_AST_NODE&#45;&gt;INTF&#45;IF_FDT_CP_EXTERNAL_TYPES</title>
<path fill="none" stroke="black" d="M138.18,-215.7C137.38,-207.98 137.16,-198.71 137.5,-190.11"/>
<polygon fill="black" stroke="black" points="140.99,-190.32 138.2,-180.1 134.01,-189.84 140.99,-190.32"/>
</g>
<!-- INTF&#45;IF_FDT_CP_EXTERNAL_TYPES&#45;&gt;INTF&#45;IF_FDT_CP_AST_NODE -->
<g id="edge4" class="edge">
<title>INTF&#45;IF_FDT_CP_EXTERNAL_TYPES&#45;&gt;INTF&#45;IF_FDT_CP_AST_NODE</title>
<path fill="none" stroke="black" d="M149.99,-180.1C150.8,-187.79 151.03,-197.05 150.7,-205.67"/>
<polygon fill="black" stroke="black" points="147.2,-205.48 150.01,-215.7 154.19,-205.96 147.2,-205.48"/>
</g>
<!-- DTEL&#45;CHAR1 -->
<g id="node4" class="node">
<title>DTEL&#45;CHAR1</title>
<g id="a_node4"><a xlink:href="./DTEL_CHAR1.html" xlink:title="DTEL&#45;CHAR1">
<polygon fill="none" stroke="yellow" points="195.41,-108 92.78,-108 92.78,-72 195.41,-72 195.41,-108"/>
<text text-anchor="middle" x="144.1" y="-85.8" font-family="Times,serif" font-size="14.00">DTEL&#45;CHAR1</text>
</a>
</g>
</g>
<!-- INTF&#45;IF_FDT_CP_EXTERNAL_TYPES&#45;&gt;DTEL&#45;CHAR1 -->
<g id="edge3" class="edge">
<title>INTF&#45;IF_FDT_CP_EXTERNAL_TYPES&#45;&gt;DTEL&#45;CHAR1</title>
<path fill="none" stroke="black" d="M144.1,-143.7C144.1,-135.98 144.1,-126.71 144.1,-118.11"/>
<polygon fill="black" stroke="black" points="147.6,-118.1 144.1,-108.1 140.6,-118.1 147.6,-118.1"/>
</g>
<!-- DOMA&#45;CHAR1 -->
<g id="node5" class="node">
<title>DOMA&#45;CHAR1</title>
<g id="a_node5"><a xlink:href="./DOMA_CHAR1.html" xlink:title="DOMA&#45;CHAR1">
<polygon fill="none" stroke="green" points="198.91,-36 89.28,-36 89.28,0 198.91,0 198.91,-36"/>
<text text-anchor="middle" x="144.1" y="-13.8" font-family="Times,serif" font-size="14.00">DOMA&#45;CHAR1</text>
</a>
</g>
</g>
<!-- DTEL&#45;CHAR1&#45;&gt;DOMA&#45;CHAR1 -->
<g id="edge5" class="edge">
<title>DTEL&#45;CHAR1&#45;&gt;DOMA&#45;CHAR1</title>
<path fill="none" stroke="black" d="M144.1,-71.7C144.1,-63.98 144.1,-54.71 144.1,-46.11"/>
<polygon fill="black" stroke="black" points="147.6,-46.1 144.1,-36.1 140.6,-46.1 147.6,-46.1"/>
</g>
</g>
</svg>
