<?xml version="1.0" encoding="UTF-8" standalone="no"?>
<!DOCTYPE svg PUBLIC "-//W3C//DTD SVG 1.1//EN"
 "http://www.w3.org/Graphics/SVG/1.1/DTD/svg11.dtd">
<!-- Generated by graphviz version 2.47.3 (20210619.1520)
 -->
<!-- Title: G Pages: 1 -->
<svg width="298pt" height="260pt"
 viewBox="0.00 0.00 297.75 260.00" xmlns="http://www.w3.org/2000/svg" xmlns:xlink="http://www.w3.org/1999/xlink">
<g id="graph0" class="graph" transform="scale(1 1) rotate(0) translate(4 256)">
<title>G</title>
<polygon fill="white" stroke="transparent" points="-4,4 -4,-256 293.75,-256 293.75,4 -4,4"/>
<!-- INTF&#45;IF_XCO_CP_GEN_MSAG_S_MO_MSG -->
<g id="node1" class="node">
<title>INTF&#45;IF_XCO_CP_GEN_MSAG_S_MO_MSG</title>
<polygon fill="none" stroke="green" points="289.62,-252 0.13,-252 0.13,-216 289.62,-216 289.62,-252"/>
<text text-anchor="middle" x="144.87" y="-229.8" font-family="Times,serif" font-size="14.00">INTF&#45;IF_XCO_CP_GEN_MSAG_S_MO_MSG</text>
</g>
<!-- INTF&#45;IF_XCO_CP_GEN_MSAG_S_FO_MSG -->
<g id="node2" class="node">
<title>INTF&#45;IF_XCO_CP_GEN_MSAG_S_FO_MSG</title>
<g id="a_node2"><a xlink:href="./INTF_IF_XCO_CP_GEN_MSAG_S_FO_MSG.html" xlink:title="INTF&#45;IF_XCO_CP_GEN_MSAG_S_FO_MSG">
<polygon fill="none" stroke="green" points="287.46,-180 2.29,-180 2.29,-144 287.46,-144 287.46,-180"/>
<text text-anchor="middle" x="144.87" y="-157.8" font-family="Times,serif" font-size="14.00">INTF&#45;IF_XCO_CP_GEN_MSAG_S_FO_MSG</text>
</a>
</g>
</g>
<!-- INTF&#45;IF_XCO_CP_GEN_MSAG_S_MO_MSG&#45;&gt;INTF&#45;IF_XCO_CP_GEN_MSAG_S_FO_MSG -->
<g id="edge1" class="edge">
<title>INTF&#45;IF_XCO_CP_GEN_MSAG_S_MO_MSG&#45;&gt;INTF&#45;IF_XCO_CP_GEN_MSAG_S_FO_MSG</title>
<path fill="none" stroke="black" d="M144.87,-215.7C144.87,-207.98 144.87,-198.71 144.87,-190.11"/>
<polygon fill="black" stroke="black" points="148.37,-190.1 144.87,-180.1 141.37,-190.1 148.37,-190.1"/>
</g>
<!-- DTEL&#45;NATXT -->
<g id="node3" class="node">
<title>DTEL&#45;NATXT</title>
<g id="a_node3"><a xlink:href="./DTEL_NATXT.html" xlink:title="DTEL&#45;NATXT">
<polygon fill="none" stroke="yellow" points="129.72,-108 26.02,-108 26.02,-72 129.72,-72 129.72,-108"/>
<text text-anchor="middle" x="77.87" y="-85.8" font-family="Times,serif" font-size="14.00">DTEL&#45;NATXT</text>
</a>
</g>
</g>
<!-- INTF&#45;IF_XCO_CP_GEN_MSAG_S_FO_MSG&#45;&gt;DTEL&#45;NATXT -->
<g id="edge3" class="edge">
<title>INTF&#45;IF_XCO_CP_GEN_MSAG_S_FO_MSG&#45;&gt;DTEL&#45;NATXT</title>
<path fill="none" stroke="black" d="M128.31,-143.7C120.2,-135.22 110.29,-124.86 101.4,-115.58"/>
<polygon fill="black" stroke="black" points="103.69,-112.91 94.25,-108.1 98.63,-117.75 103.69,-112.91"/>
</g>
<!-- DTEL&#45;SYMSGNO -->
<g id="node5" class="node">
<title>DTEL&#45;SYMSGNO</title>
<g id="a_node5"><a xlink:href="./DTEL_SYMSGNO.html" xlink:title="DTEL&#45;SYMSGNO">
<polygon fill="none" stroke="green" points="275.24,-108 150.51,-108 150.51,-72 275.24,-72 275.24,-108"/>
<text text-anchor="middle" x="212.87" y="-85.8" font-family="Times,serif" font-size="14.00">DTEL&#45;SYMSGNO</text>
</a>
</g>
</g>
<!-- INTF&#45;IF_XCO_CP_GEN_MSAG_S_FO_MSG&#45;&gt;DTEL&#45;SYMSGNO -->
<g id="edge2" class="edge">
<title>INTF&#45;IF_XCO_CP_GEN_MSAG_S_FO_MSG&#45;&gt;DTEL&#45;SYMSGNO</title>
<path fill="none" stroke="black" d="M161.68,-143.7C170,-135.14 180.18,-124.66 189.26,-115.3"/>
<polygon fill="black" stroke="black" points="191.8,-117.72 196.26,-108.1 186.78,-112.84 191.8,-117.72"/>
</g>
<!-- DOMA&#45;NATXT -->
<g id="node4" class="node">
<title>DOMA&#45;NATXT</title>
<g id="a_node4"><a xlink:href="./DOMA_NATXT.html" xlink:title="DOMA&#45;NATXT">
<polygon fill="none" stroke="yellow" points="131.22,-36 20.52,-36 20.52,0 131.22,0 131.22,-36"/>
<text text-anchor="middle" x="75.87" y="-13.8" font-family="Times,serif" font-size="14.00">DOMA&#45;NATXT</text>
</a>
</g>
</g>
<!-- DTEL&#45;NATXT&#45;&gt;DOMA&#45;NATXT -->
<g id="edge4" class="edge">
<title>DTEL&#45;NATXT&#45;&gt;DOMA&#45;NATXT</title>
<path fill="none" stroke="black" d="M77.38,-71.7C77.16,-63.98 76.89,-54.71 76.65,-46.11"/>
<polygon fill="black" stroke="black" points="80.15,-46 76.36,-36.1 73.15,-46.2 80.15,-46"/>
</g>
<!-- DOMA&#45;SYMSGNO -->
<g id="node6" class="node">
<title>DOMA&#45;SYMSGNO</title>
<g id="a_node6"><a xlink:href="./DOMA_SYMSGNO.html" xlink:title="DOMA&#45;SYMSGNO">
<polygon fill="none" stroke="yellow" points="280.74,-36 149.01,-36 149.01,0 280.74,0 280.74,-36"/>
<text text-anchor="middle" x="214.87" y="-13.8" font-family="Times,serif" font-size="14.00">DOMA&#45;SYMSGNO</text>
</a>
</g>
</g>
<!-- DTEL&#45;SYMSGNO&#45;&gt;DOMA&#45;SYMSGNO -->
<g id="edge5" class="edge">
<title>DTEL&#45;SYMSGNO&#45;&gt;DOMA&#45;SYMSGNO</title>
<path fill="none" stroke="black" d="M213.37,-71.7C213.59,-63.98 213.85,-54.71 214.1,-46.11"/>
<polygon fill="black" stroke="black" points="217.6,-46.2 214.39,-36.1 210.6,-46 217.6,-46.2"/>
</g>
</g>
</svg>
