<?xml version="1.0" encoding="UTF-8" standalone="no"?>
<!DOCTYPE svg PUBLIC "-//W3C//DTD SVG 1.1//EN"
 "http://www.w3.org/Graphics/SVG/1.1/DTD/svg11.dtd">
<!-- Generated by graphviz version 2.47.3 (20210619.1520)
 -->
<!-- Title: G Pages: 1 -->
<svg width="1859pt" height="332pt"
 viewBox="0.00 0.00 1858.62 332.00" xmlns="http://www.w3.org/2000/svg" xmlns:xlink="http://www.w3.org/1999/xlink">
<g id="graph0" class="graph" transform="scale(1 1) rotate(0) translate(4 328)">
<title>G</title>
<polygon fill="white" stroke="transparent" points="-4,4 -4,-328 1854.62,-328 1854.62,4 -4,4"/>
<!-- INTF&#45;/IWBEP/IF_CP_RUNTIME_TYPES -->
<g id="node1" class="node">
<title>INTF&#45;/IWBEP/IF_CP_RUNTIME_TYPES</title>
<g id="a_node1"><a xlink:href="./INTF_%23IWBEP%23IF_CP_RUNTIME_TYPES.html" xlink:title="INTF&#45;/IWBEP/IF_CP_RUNTIME_TYPES">
<polygon fill="none" stroke="green" points="1247.45,-324 987.07,-324 987.07,-288 1247.45,-288 1247.45,-324"/>
<text text-anchor="middle" x="1117.26" y="-301.8" font-family="Times,serif" font-size="14.00">INTF&#45;/IWBEP/IF_CP_RUNTIME_TYPES</text>
</a>
</g>
</g>
<!-- INTF&#45;/IWBEP/IF_CP_REGISTRY_TYPES -->
<g id="node2" class="node">
<title>INTF&#45;/IWBEP/IF_CP_REGISTRY_TYPES</title>
<g id="a_node2"><a xlink:href="./INTF_%23IWBEP%23IF_CP_REGISTRY_TYPES.html" xlink:title="INTF&#45;/IWBEP/IF_CP_REGISTRY_TYPES">
<polygon fill="none" stroke="yellow" points="726.63,-252 461.9,-252 461.9,-216 726.63,-216 726.63,-252"/>
<text text-anchor="middle" x="594.26" y="-229.8" font-family="Times,serif" font-size="14.00">INTF&#45;/IWBEP/IF_CP_REGISTRY_TYPES</text>
</a>
</g>
</g>
<!-- INTF&#45;/IWBEP/IF_CP_RUNTIME_TYPES&#45;&gt;INTF&#45;/IWBEP/IF_CP_REGISTRY_TYPES -->
<g id="edge8" class="edge">
<title>INTF&#45;/IWBEP/IF_CP_RUNTIME_TYPES&#45;&gt;INTF&#45;/IWBEP/IF_CP_REGISTRY_TYPES</title>
<path fill="none" stroke="black" d="M987.06,-289.12C905.43,-278.52 800.85,-264.54 720.06,-253.45"/>
<polygon fill="black" stroke="black" points="720.21,-249.94 709.83,-252.04 719.26,-256.87 720.21,-249.94"/>
</g>
<!-- INTF&#45;/IWBEP/IF_CP_RUNTIME_TYPES&#45;&gt;INTF&#45;/IWBEP/IF_CP_REGISTRY_TYPES -->
<g id="edge22" class="edge">
<title>INTF&#45;/IWBEP/IF_CP_RUNTIME_TYPES&#45;&gt;INTF&#45;/IWBEP/IF_CP_REGISTRY_TYPES</title>
<path fill="none" stroke="black" d="M1001.77,-287.97C923.7,-277.21 820.2,-263.36 736.99,-252.51"/>
<polygon fill="black" stroke="black" points="737.31,-249.03 726.94,-251.21 736.41,-255.97 737.31,-249.03"/>
</g>
<!-- DTEL&#45;NUMC3 -->
<g id="node3" class="node">
<title>DTEL&#45;NUMC3</title>
<g id="a_node3"><a xlink:href="./DTEL_NUMC3.html" xlink:title="DTEL&#45;NUMC3">
<polygon fill="none" stroke="yellow" points="889.18,-252 783.34,-252 783.34,-216 889.18,-216 889.18,-252"/>
<text text-anchor="middle" x="836.26" y="-229.8" font-family="Times,serif" font-size="14.00">DTEL&#45;NUMC3</text>
</a>
</g>
</g>
<!-- INTF&#45;/IWBEP/IF_CP_RUNTIME_TYPES&#45;&gt;DTEL&#45;NUMC3 -->
<g id="edge7" class="edge">
<title>INTF&#45;/IWBEP/IF_CP_RUNTIME_TYPES&#45;&gt;DTEL&#45;NUMC3</title>
<path fill="none" stroke="black" d="M1040.03,-287.91C999.65,-278.22 949.29,-265.77 899.3,-253.26"/>
<polygon fill="black" stroke="black" points="899.87,-249.79 889.32,-250.76 898.17,-256.58 899.87,-249.79"/>
</g>
<!-- INTF&#45;/IWBEP/IF_CP_RUNTIME_TYPES&#45;&gt;DTEL&#45;NUMC3 -->
<g id="edge21" class="edge">
<title>INTF&#45;/IWBEP/IF_CP_RUNTIME_TYPES&#45;&gt;DTEL&#45;NUMC3</title>
<path fill="none" stroke="black" d="M1055.67,-287.91C1014.96,-277.58 960.53,-264.1 912.26,-252 907.96,-250.92 903.49,-249.8 898.99,-248.67"/>
<polygon fill="black" stroke="black" points="899.63,-245.22 889.08,-246.19 897.94,-252.01 899.63,-245.22"/>
</g>
<!-- DTEL&#45;/IWBEP/CP_PROXY_MODEL_VERSION -->
<g id="node5" class="node">
<title>DTEL&#45;/IWBEP/CP_PROXY_MODEL_VERSION</title>
<g id="a_node5"><a xlink:href="./DTEL_%23IWBEP%23CP_PROXY_MODEL_VERSION.html" xlink:title="DTEL&#45;/IWBEP/CP_PROXY_MODEL_VERSION">
<polygon fill="none" stroke="yellow" points="1096.99,-108 793.54,-108 793.54,-72 1096.99,-72 1096.99,-108"/>
<text text-anchor="middle" x="945.26" y="-85.8" font-family="Times,serif" font-size="14.00">DTEL&#45;/IWBEP/CP_PROXY_MODEL_VERSION</text>
</a>
</g>
</g>
<!-- INTF&#45;/IWBEP/IF_CP_RUNTIME_TYPES&#45;&gt;DTEL&#45;/IWBEP/CP_PROXY_MODEL_VERSION -->
<g id="edge6" class="edge">
<title>INTF&#45;/IWBEP/IF_CP_RUNTIME_TYPES&#45;&gt;DTEL&#45;/IWBEP/CP_PROXY_MODEL_VERSION</title>
<path fill="none" stroke="black" d="M1000.56,-287.94C980.67,-280.05 962.28,-268.6 949.26,-252 919.16,-213.6 923.97,-153.02 932.97,-118.15"/>
<polygon fill="black" stroke="black" points="936.43,-118.79 935.86,-108.21 929.71,-116.84 936.43,-118.79"/>
</g>
<!-- INTF&#45;/IWBEP/IF_CP_RUNTIME_TYPES&#45;&gt;DTEL&#45;/IWBEP/CP_PROXY_MODEL_VERSION -->
<g id="edge20" class="edge">
<title>INTF&#45;/IWBEP/IF_CP_RUNTIME_TYPES&#45;&gt;DTEL&#45;/IWBEP/CP_PROXY_MODEL_VERSION</title>
<path fill="none" stroke="black" d="M1018.15,-287.94C998.67,-280.05 980.28,-268.6 967.26,-252 937.29,-213.76 941.93,-153.54 945.28,-118.61"/>
<polygon fill="black" stroke="black" points="948.8,-118.5 946.27,-108.21 941.83,-117.83 948.8,-118.5"/>
</g>
<!-- DTEL&#45;/IWBEP/CP_PROXY_MODEL_REPO_ID -->
<g id="node7" class="node">
<title>DTEL&#45;/IWBEP/CP_PROXY_MODEL_REPO_ID</title>
<g id="a_node7"><a xlink:href="./DTEL_%23IWBEP%23CP_PROXY_MODEL_REPO_ID.html" xlink:title="DTEL&#45;/IWBEP/CP_PROXY_MODEL_REPO_ID">
<polygon fill="none" stroke="yellow" points="1267.38,-252 967.14,-252 967.14,-216 1267.38,-216 1267.38,-252"/>
<text text-anchor="middle" x="1117.26" y="-229.8" font-family="Times,serif" font-size="14.00">DTEL&#45;/IWBEP/CP_PROXY_MODEL_REPO_ID</text>
</a>
</g>
</g>
<!-- INTF&#45;/IWBEP/IF_CP_RUNTIME_TYPES&#45;&gt;DTEL&#45;/IWBEP/CP_PROXY_MODEL_REPO_ID -->
<g id="edge5" class="edge">
<title>INTF&#45;/IWBEP/IF_CP_RUNTIME_TYPES&#45;&gt;DTEL&#45;/IWBEP/CP_PROXY_MODEL_REPO_ID</title>
<path fill="none" stroke="black" d="M1111.35,-287.7C1110.55,-279.98 1110.33,-270.71 1110.67,-262.11"/>
<polygon fill="black" stroke="black" points="1114.16,-262.32 1111.37,-252.1 1107.18,-261.84 1114.16,-262.32"/>
</g>
<!-- INTF&#45;/IWBEP/IF_CP_RUNTIME_TYPES&#45;&gt;DTEL&#45;/IWBEP/CP_PROXY_MODEL_REPO_ID -->
<g id="edge19" class="edge">
<title>INTF&#45;/IWBEP/IF_CP_RUNTIME_TYPES&#45;&gt;DTEL&#45;/IWBEP/CP_PROXY_MODEL_REPO_ID</title>
<path fill="none" stroke="black" d="M1123.18,-287.7C1123.97,-279.98 1124.2,-270.71 1123.86,-262.11"/>
<polygon fill="black" stroke="black" points="1127.35,-261.84 1123.16,-252.1 1120.36,-262.32 1127.35,-261.84"/>
</g>
<!-- DTEL&#45;/IWBEP/CP_PROXY_MODEL_ID -->
<g id="node9" class="node">
<title>DTEL&#45;/IWBEP/CP_PROXY_MODEL_ID</title>
<g id="a_node9"><a xlink:href="./DTEL_%23IWBEP%23CP_PROXY_MODEL_ID.html" xlink:title="DTEL&#45;/IWBEP/CP_PROXY_MODEL_ID">
<polygon fill="none" stroke="yellow" points="1437.1,-108 1179.42,-108 1179.42,-72 1437.1,-72 1437.1,-108"/>
<text text-anchor="middle" x="1308.26" y="-85.8" font-family="Times,serif" font-size="14.00">DTEL&#45;/IWBEP/CP_PROXY_MODEL_ID</text>
</a>
</g>
</g>
<!-- INTF&#45;/IWBEP/IF_CP_RUNTIME_TYPES&#45;&gt;DTEL&#45;/IWBEP/CP_PROXY_MODEL_ID -->
<g id="edge4" class="edge">
<title>INTF&#45;/IWBEP/IF_CP_RUNTIME_TYPES&#45;&gt;DTEL&#45;/IWBEP/CP_PROXY_MODEL_ID</title>
<path fill="none" stroke="black" d="M1211.68,-288C1232.42,-280.15 1252.54,-268.7 1267.26,-252 1300.06,-214.81 1303.06,-153.79 1304.44,-118.53"/>
<polygon fill="black" stroke="black" points="1307.94,-118.59 1304.84,-108.46 1300.94,-118.31 1307.94,-118.59"/>
</g>
<!-- INTF&#45;/IWBEP/IF_CP_RUNTIME_TYPES&#45;&gt;DTEL&#45;/IWBEP/CP_PROXY_MODEL_ID -->
<g id="edge18" class="edge">
<title>INTF&#45;/IWBEP/IF_CP_RUNTIME_TYPES&#45;&gt;DTEL&#45;/IWBEP/CP_PROXY_MODEL_ID</title>
<path fill="none" stroke="black" d="M1229.2,-288C1250.42,-280.15 1270.54,-268.7 1285.26,-252 1318.06,-214.81 1321.06,-153.79 1316.78,-118.53"/>
<polygon fill="black" stroke="black" points="1320.22,-117.82 1315.25,-108.46 1313.3,-118.87 1320.22,-117.82"/>
</g>
<!-- DTEL&#45;CHAR30 -->
<g id="node11" class="node">
<title>DTEL&#45;CHAR30</title>
<g id="a_node11"><a xlink:href="./DTEL_CHAR30.html" xlink:title="DTEL&#45;CHAR30">
<polygon fill="none" stroke="yellow" points="1451.07,-252 1341.45,-252 1341.45,-216 1451.07,-216 1451.07,-252"/>
<text text-anchor="middle" x="1396.26" y="-229.8" font-family="Times,serif" font-size="14.00">DTEL&#45;CHAR30</text>
</a>
</g>
</g>
<!-- INTF&#45;/IWBEP/IF_CP_RUNTIME_TYPES&#45;&gt;DTEL&#45;CHAR30 -->
<g id="edge3" class="edge">
<title>INTF&#45;/IWBEP/IF_CP_RUNTIME_TYPES&#45;&gt;DTEL&#45;CHAR30</title>
<path fill="none" stroke="black" d="M1179.27,-287.97C1224.48,-276.32 1285.52,-261.02 1331.38,-249.86"/>
<polygon fill="black" stroke="black" points="1332.32,-253.24 1341.22,-247.48 1330.67,-246.43 1332.32,-253.24"/>
</g>
<!-- INTF&#45;/IWBEP/IF_CP_RUNTIME_TYPES&#45;&gt;DTEL&#45;CHAR30 -->
<g id="edge17" class="edge">
<title>INTF&#45;/IWBEP/IF_CP_RUNTIME_TYPES&#45;&gt;DTEL&#45;CHAR30</title>
<path fill="none" stroke="black" d="M1191.04,-287.97C1234.73,-277.29 1289.51,-263.55 1331.51,-252.74"/>
<polygon fill="black" stroke="black" points="1332.55,-256.09 1341.36,-250.2 1330.8,-249.31 1332.55,-256.09"/>
</g>
<!-- DTEL&#45;CHAR40 -->
<g id="node13" class="node">
<title>DTEL&#45;CHAR40</title>
<g id="a_node13"><a xlink:href="./DTEL_CHAR40.html" xlink:title="DTEL&#45;CHAR40">
<polygon fill="none" stroke="yellow" points="1578.07,-252 1468.45,-252 1468.45,-216 1578.07,-216 1578.07,-252"/>
<text text-anchor="middle" x="1523.26" y="-229.8" font-family="Times,serif" font-size="14.00">DTEL&#45;CHAR40</text>
</a>
</g>
</g>
<!-- INTF&#45;/IWBEP/IF_CP_RUNTIME_TYPES&#45;&gt;DTEL&#45;CHAR40 -->
<g id="edge2" class="edge">
<title>INTF&#45;/IWBEP/IF_CP_RUNTIME_TYPES&#45;&gt;DTEL&#45;CHAR40</title>
<path fill="none" stroke="black" d="M1241.67,-287.99C1304.72,-278.91 1382.29,-266.59 1451.26,-252 1453.6,-251.51 1455.98,-250.98 1458.39,-250.42"/>
<polygon fill="black" stroke="black" points="1459.46,-253.77 1468.37,-248.03 1457.83,-246.96 1459.46,-253.77"/>
</g>
<!-- INTF&#45;/IWBEP/IF_CP_RUNTIME_TYPES&#45;&gt;DTEL&#45;CHAR40 -->
<g id="edge16" class="edge">
<title>INTF&#45;/IWBEP/IF_CP_RUNTIME_TYPES&#45;&gt;DTEL&#45;CHAR40</title>
<path fill="none" stroke="black" d="M1247.69,-289.42C1311.28,-280.65 1388.95,-268.56 1459,-254.14"/>
<polygon fill="black" stroke="black" points="1459.76,-257.56 1468.84,-252.09 1458.33,-250.71 1459.76,-257.56"/>
</g>
<!-- DTEL&#45;/IWBEP/CP_DELTA_QUERY_ID -->
<g id="node15" class="node">
<title>DTEL&#45;/IWBEP/CP_DELTA_QUERY_ID</title>
<g id="a_node15"><a xlink:href="./DTEL_%23IWBEP%23CP_DELTA_QUERY_ID.html" xlink:title="DTEL&#45;/IWBEP/CP_DELTA_QUERY_ID">
<polygon fill="none" stroke="yellow" points="1850.48,-252 1596.04,-252 1596.04,-216 1850.48,-216 1850.48,-252"/>
<text text-anchor="middle" x="1723.26" y="-229.8" font-family="Times,serif" font-size="14.00">DTEL&#45;/IWBEP/CP_DELTA_QUERY_ID</text>
</a>
</g>
</g>
<!-- INTF&#45;/IWBEP/IF_CP_RUNTIME_TYPES&#45;&gt;DTEL&#45;/IWBEP/CP_DELTA_QUERY_ID -->
<g id="edge1" class="edge">
<title>INTF&#45;/IWBEP/IF_CP_RUNTIME_TYPES&#45;&gt;DTEL&#45;/IWBEP/CP_DELTA_QUERY_ID</title>
<path fill="none" stroke="black" d="M1247.48,-289.9C1339.8,-279.52 1466.55,-265.28 1578.26,-252 1580.8,-251.7 1583.35,-251.39 1585.93,-251.08"/>
<polygon fill="black" stroke="black" points="1586.46,-254.55 1595.97,-249.87 1585.62,-247.6 1586.46,-254.55"/>
</g>
<!-- INTF&#45;/IWBEP/IF_CP_RUNTIME_TYPES&#45;&gt;DTEL&#45;/IWBEP/CP_DELTA_QUERY_ID -->
<g id="edge15" class="edge">
<title>INTF&#45;/IWBEP/IF_CP_RUNTIME_TYPES&#45;&gt;DTEL&#45;/IWBEP/CP_DELTA_QUERY_ID</title>
<path fill="none" stroke="black" d="M1247.4,-291.57C1341.06,-281.39 1470.59,-266.89 1585.88,-253.23"/>
<polygon fill="black" stroke="black" points="1586.4,-256.69 1595.92,-252.04 1585.58,-249.74 1586.4,-256.69"/>
</g>
<!-- INTF&#45;/IWBEP/IF_CP_REGISTRY_TYPES&#45;&gt;INTF&#45;/IWBEP/IF_CP_RUNTIME_TYPES -->
<g id="edge14" class="edge">
<title>INTF&#45;/IWBEP/IF_CP_REGISTRY_TYPES&#45;&gt;INTF&#45;/IWBEP/IF_CP_RUNTIME_TYPES</title>
<path fill="none" stroke="black" d="M721.65,-252.05C799.82,-262.51 899.9,-275.91 979.85,-286.61"/>
<polygon fill="black" stroke="black" points="979.62,-290.11 989.99,-287.97 980.54,-283.17 979.62,-290.11"/>
</g>
<!-- DTEL&#45;PGMID -->
<g id="node17" class="node">
<title>DTEL&#45;PGMID</title>
<g id="a_node17"><a xlink:href="./DTEL_PGMID.html" xlink:title="DTEL&#45;PGMID">
<polygon fill="none" stroke="yellow" points="190.79,-180 89.74,-180 89.74,-144 190.79,-144 190.79,-180"/>
<text text-anchor="middle" x="140.26" y="-157.8" font-family="Times,serif" font-size="14.00">DTEL&#45;PGMID</text>
</a>
</g>
</g>
<!-- INTF&#45;/IWBEP/IF_CP_REGISTRY_TYPES&#45;&gt;DTEL&#45;PGMID -->
<g id="edge13" class="edge">
<title>INTF&#45;/IWBEP/IF_CP_REGISTRY_TYPES&#45;&gt;DTEL&#45;PGMID</title>
<path fill="none" stroke="black" d="M483.78,-215.97C394.97,-202.27 273.52,-183.55 201.35,-172.42"/>
<polygon fill="black" stroke="black" points="201.49,-168.9 191.07,-170.83 200.42,-175.82 201.49,-168.9"/>
</g>
<!-- DTEL&#45;TROBJTYPE -->
<g id="node19" class="node">
<title>DTEL&#45;TROBJTYPE</title>
<g id="a_node19"><a xlink:href="./DTEL_TROBJTYPE.html" xlink:title="DTEL&#45;TROBJTYPE">
<polygon fill="none" stroke="yellow" points="402.46,-180 268.07,-180 268.07,-144 402.46,-144 402.46,-180"/>
<text text-anchor="middle" x="335.26" y="-157.8" font-family="Times,serif" font-size="14.00">DTEL&#45;TROBJTYPE</text>
</a>
</g>
</g>
<!-- INTF&#45;/IWBEP/IF_CP_REGISTRY_TYPES&#45;&gt;DTEL&#45;TROBJTYPE -->
<g id="edge12" class="edge">
<title>INTF&#45;/IWBEP/IF_CP_REGISTRY_TYPES&#45;&gt;DTEL&#45;TROBJTYPE</title>
<path fill="none" stroke="black" d="M531.24,-215.97C494.1,-205.93 446.97,-193.19 408.23,-182.72"/>
<polygon fill="black" stroke="black" points="409.14,-179.34 398.57,-180.11 407.31,-186.1 409.14,-179.34"/>
</g>
<!-- TABL&#45;/IWBEP/I_CP_MOD -->
<g id="node21" class="node">
<title>TABL&#45;/IWBEP/I_CP_MOD</title>
<g id="a_node21"><a xlink:href="./TABL_%23IWBEP%23I_CP_MOD.html" xlink:title="TABL&#45;/IWBEP/I_CP_MOD">
<polygon fill="none" stroke="yellow" points="758.74,-180 581.79,-180 581.79,-144 758.74,-144 758.74,-180"/>
<text text-anchor="middle" x="670.26" y="-157.8" font-family="Times,serif" font-size="14.00">TABL&#45;/IWBEP/I_CP_MOD</text>
</a>
</g>
</g>
<!-- INTF&#45;/IWBEP/IF_CP_REGISTRY_TYPES&#45;&gt;TABL&#45;/IWBEP/I_CP_MOD -->
<g id="edge11" class="edge">
<title>INTF&#45;/IWBEP/IF_CP_REGISTRY_TYPES&#45;&gt;TABL&#45;/IWBEP/I_CP_MOD</title>
<path fill="none" stroke="black" d="M613.05,-215.7C622.44,-207.05 633.95,-196.45 644.18,-187.03"/>
<polygon fill="black" stroke="black" points="646.71,-189.45 651.69,-180.1 641.97,-184.3 646.71,-189.45"/>
</g>
<!-- DTEL&#45;/IWBEP/CP_PROXY_MODEL_DESCR -->
<g id="node22" class="node">
<title>DTEL&#45;/IWBEP/CP_PROXY_MODEL_DESCR</title>
<g id="a_node22"><a xlink:href="./DTEL_%23IWBEP%23CP_PROXY_MODEL_DESCR.html" xlink:title="DTEL&#45;/IWBEP/CP_PROXY_MODEL_DESCR">
<polygon fill="none" stroke="yellow" points="547.45,-108 259.07,-108 259.07,-72 547.45,-72 547.45,-108"/>
<text text-anchor="middle" x="403.26" y="-85.8" font-family="Times,serif" font-size="14.00">DTEL&#45;/IWBEP/CP_PROXY_MODEL_DESCR</text>
</a>
</g>
</g>
<!-- INTF&#45;/IWBEP/IF_CP_REGISTRY_TYPES&#45;&gt;DTEL&#45;/IWBEP/CP_PROXY_MODEL_DESCR -->
<g id="edge10" class="edge">
<title>INTF&#45;/IWBEP/IF_CP_REGISTRY_TYPES&#45;&gt;DTEL&#45;/IWBEP/CP_PROXY_MODEL_DESCR</title>
<path fill="none" stroke="black" d="M571.22,-215.87C537.09,-190.5 473.01,-142.85 434.63,-114.32"/>
<polygon fill="black" stroke="black" points="436.5,-111.35 426.38,-108.19 432.32,-116.96 436.5,-111.35"/>
</g>
<!-- DTEL&#45;/IWBEP/CP_MPC_NAME -->
<g id="node24" class="node">
<title>DTEL&#45;/IWBEP/CP_MPC_NAME</title>
<g id="a_node24"><a xlink:href="./DTEL_%23IWBEP%23CP_MPC_NAME.html" xlink:title="DTEL&#45;/IWBEP/CP_MPC_NAME">
<polygon fill="none" stroke="yellow" points="774.91,-108 565.62,-108 565.62,-72 774.91,-72 774.91,-108"/>
<text text-anchor="middle" x="670.26" y="-85.8" font-family="Times,serif" font-size="14.00">DTEL&#45;/IWBEP/CP_MPC_NAME</text>
</a>
</g>
</g>
<!-- INTF&#45;/IWBEP/IF_CP_REGISTRY_TYPES&#45;&gt;DTEL&#45;/IWBEP/CP_MPC_NAME -->
<g id="edge9" class="edge">
<title>INTF&#45;/IWBEP/IF_CP_REGISTRY_TYPES&#45;&gt;DTEL&#45;/IWBEP/CP_MPC_NAME</title>
<path fill="none" stroke="black" d="M583.12,-215.8C572.49,-196.99 559.9,-166.53 573.26,-144 581.17,-130.66 593.75,-120.47 607.27,-112.75"/>
<polygon fill="black" stroke="black" points="609.02,-115.79 616.24,-108.04 605.76,-109.59 609.02,-115.79"/>
</g>
<!-- DOMA&#45;NUMC3 -->
<g id="node4" class="node">
<title>DOMA&#45;NUMC3</title>
<g id="a_node4"><a xlink:href="./DOMA_NUMC3.html" xlink:title="DOMA&#45;NUMC3">
<polygon fill="none" stroke="yellow" points="889.68,-180 776.84,-180 776.84,-144 889.68,-144 889.68,-180"/>
<text text-anchor="middle" x="833.26" y="-157.8" font-family="Times,serif" font-size="14.00">DOMA&#45;NUMC3</text>
</a>
</g>
</g>
<!-- DTEL&#45;NUMC3&#45;&gt;DOMA&#45;NUMC3 -->
<g id="edge23" class="edge">
<title>DTEL&#45;NUMC3&#45;&gt;DOMA&#45;NUMC3</title>
<path fill="none" stroke="black" d="M835.52,-215.7C835.19,-207.98 834.79,-198.71 834.42,-190.11"/>
<polygon fill="black" stroke="black" points="837.92,-189.95 834,-180.1 830.93,-190.25 837.92,-189.95"/>
</g>
<!-- DOMA&#45;/IWBEP/CP_PROXY_MODEL_VERSION -->
<g id="node6" class="node">
<title>DOMA&#45;/IWBEP/CP_PROXY_MODEL_VERSION</title>
<g id="a_node6"><a xlink:href="./DOMA_%23IWBEP%23CP_PROXY_MODEL_VERSION.html" xlink:title="DOMA&#45;/IWBEP/CP_PROXY_MODEL_VERSION">
<polygon fill="none" stroke="yellow" points="1100.49,-36 790.04,-36 790.04,0 1100.49,0 1100.49,-36"/>
<text text-anchor="middle" x="945.26" y="-13.8" font-family="Times,serif" font-size="14.00">DOMA&#45;/IWBEP/CP_PROXY_MODEL_VERSION</text>
</a>
</g>
</g>
<!-- DTEL&#45;/IWBEP/CP_PROXY_MODEL_VERSION&#45;&gt;DOMA&#45;/IWBEP/CP_PROXY_MODEL_VERSION -->
<g id="edge24" class="edge">
<title>DTEL&#45;/IWBEP/CP_PROXY_MODEL_VERSION&#45;&gt;DOMA&#45;/IWBEP/CP_PROXY_MODEL_VERSION</title>
<path fill="none" stroke="black" d="M945.26,-71.7C945.26,-63.98 945.26,-54.71 945.26,-46.11"/>
<polygon fill="black" stroke="black" points="948.76,-46.1 945.26,-36.1 941.76,-46.1 948.76,-46.1"/>
</g>
<!-- DOMA&#45;/IWBEP/CP_PROXY_MODEL_REPO_ID -->
<g id="node8" class="node">
<title>DOMA&#45;/IWBEP/CP_PROXY_MODEL_REPO_ID</title>
<g id="a_node8"><a xlink:href="./DOMA_%23IWBEP%23CP_PROXY_MODEL_REPO_ID.html" xlink:title="DOMA&#45;/IWBEP/CP_PROXY_MODEL_REPO_ID">
<polygon fill="none" stroke="yellow" points="1270.88,-180 963.64,-180 963.64,-144 1270.88,-144 1270.88,-180"/>
<text text-anchor="middle" x="1117.26" y="-157.8" font-family="Times,serif" font-size="14.00">DOMA&#45;/IWBEP/CP_PROXY_MODEL_REPO_ID</text>
</a>
</g>
</g>
<!-- DTEL&#45;/IWBEP/CP_PROXY_MODEL_REPO_ID&#45;&gt;DOMA&#45;/IWBEP/CP_PROXY_MODEL_REPO_ID -->
<g id="edge25" class="edge">
<title>DTEL&#45;/IWBEP/CP_PROXY_MODEL_REPO_ID&#45;&gt;DOMA&#45;/IWBEP/CP_PROXY_MODEL_REPO_ID</title>
<path fill="none" stroke="black" d="M1117.26,-215.7C1117.26,-207.98 1117.26,-198.71 1117.26,-190.11"/>
<polygon fill="black" stroke="black" points="1120.76,-190.1 1117.26,-180.1 1113.76,-190.1 1120.76,-190.1"/>
</g>
<!-- DOMA&#45;/IWBEP/CP_PROXY_MODEL_ID -->
<g id="node10" class="node">
<title>DOMA&#45;/IWBEP/CP_PROXY_MODEL_ID</title>
<g id="a_node10"><a xlink:href="./DOMA_%23IWBEP%23CP_PROXY_MODEL_ID.html" xlink:title="DOMA&#45;/IWBEP/CP_PROXY_MODEL_ID">
<polygon fill="none" stroke="yellow" points="1440.6,-36 1175.92,-36 1175.92,0 1440.6,0 1440.6,-36"/>
<text text-anchor="middle" x="1308.26" y="-13.8" font-family="Times,serif" font-size="14.00">DOMA&#45;/IWBEP/CP_PROXY_MODEL_ID</text>
</a>
</g>
</g>
<!-- DTEL&#45;/IWBEP/CP_PROXY_MODEL_ID&#45;&gt;DOMA&#45;/IWBEP/CP_PROXY_MODEL_ID -->
<g id="edge26" class="edge">
<title>DTEL&#45;/IWBEP/CP_PROXY_MODEL_ID&#45;&gt;DOMA&#45;/IWBEP/CP_PROXY_MODEL_ID</title>
<path fill="none" stroke="black" d="M1308.26,-71.7C1308.26,-63.98 1308.26,-54.71 1308.26,-46.11"/>
<polygon fill="black" stroke="black" points="1311.76,-46.1 1308.26,-36.1 1304.76,-46.1 1311.76,-46.1"/>
</g>
<!-- DOMA&#45;CHAR30 -->
<g id="node12" class="node">
<title>DOMA&#45;CHAR30</title>
<g id="a_node12"><a xlink:href="./DOMA_CHAR30.html" xlink:title="DOMA&#45;CHAR30">
<polygon fill="none" stroke="green" points="1461.57,-180 1344.95,-180 1344.95,-144 1461.57,-144 1461.57,-180"/>
<text text-anchor="middle" x="1403.26" y="-157.8" font-family="Times,serif" font-size="14.00">DOMA&#45;CHAR30</text>
</a>
</g>
</g>
<!-- DTEL&#45;CHAR30&#45;&gt;DOMA&#45;CHAR30 -->
<g id="edge27" class="edge">
<title>DTEL&#45;CHAR30&#45;&gt;DOMA&#45;CHAR30</title>
<path fill="none" stroke="black" d="M1397.99,-215.7C1398.76,-207.98 1399.69,-198.71 1400.55,-190.11"/>
<polygon fill="black" stroke="black" points="1404.04,-190.4 1401.55,-180.1 1397.07,-189.71 1404.04,-190.4"/>
</g>
<!-- DOMA&#45;CHAR40 -->
<g id="node14" class="node">
<title>DOMA&#45;CHAR40</title>
<g id="a_node14"><a xlink:href="./DOMA_CHAR40.html" xlink:title="DOMA&#45;CHAR40">
<polygon fill="none" stroke="yellow" points="1595.57,-180 1478.95,-180 1478.95,-144 1595.57,-144 1595.57,-180"/>
<text text-anchor="middle" x="1537.26" y="-157.8" font-family="Times,serif" font-size="14.00">DOMA&#45;CHAR40</text>
</a>
</g>
</g>
<!-- DTEL&#45;CHAR40&#45;&gt;DOMA&#45;CHAR40 -->
<g id="edge28" class="edge">
<title>DTEL&#45;CHAR40&#45;&gt;DOMA&#45;CHAR40</title>
<path fill="none" stroke="black" d="M1526.72,-215.7C1528.27,-207.98 1530.12,-198.71 1531.84,-190.11"/>
<polygon fill="black" stroke="black" points="1535.31,-190.6 1533.84,-180.1 1528.45,-189.22 1535.31,-190.6"/>
</g>
<!-- DOMA&#45;/IWBEP/L_CP_DLTA -->
<g id="node16" class="node">
<title>DOMA&#45;/IWBEP/L_CP_DLTA</title>
<g id="a_node16"><a xlink:href="./DOMA_%23IWBEP%23L_CP_DLTA.html" xlink:title="DOMA&#45;/IWBEP/L_CP_DLTA">
<polygon fill="none" stroke="yellow" points="1819.01,-180 1627.52,-180 1627.52,-144 1819.01,-144 1819.01,-180"/>
<text text-anchor="middle" x="1723.26" y="-157.8" font-family="Times,serif" font-size="14.00">DOMA&#45;/IWBEP/L_CP_DLTA</text>
</a>
</g>
</g>
<!-- DTEL&#45;/IWBEP/CP_DELTA_QUERY_ID&#45;&gt;DOMA&#45;/IWBEP/L_CP_DLTA -->
<g id="edge29" class="edge">
<title>DTEL&#45;/IWBEP/CP_DELTA_QUERY_ID&#45;&gt;DOMA&#45;/IWBEP/L_CP_DLTA</title>
<path fill="none" stroke="black" d="M1723.26,-215.7C1723.26,-207.98 1723.26,-198.71 1723.26,-190.11"/>
<polygon fill="black" stroke="black" points="1726.76,-190.1 1723.26,-180.1 1719.76,-190.1 1726.76,-190.1"/>
</g>
<!-- DOMA&#45;PGMID -->
<g id="node18" class="node">
<title>DOMA&#45;PGMID</title>
<g id="a_node18"><a xlink:href="./DOMA_PGMID.html" xlink:title="DOMA&#45;PGMID">
<polygon fill="none" stroke="yellow" points="108.29,-108 0.24,-108 0.24,-72 108.29,-72 108.29,-108"/>
<text text-anchor="middle" x="54.26" y="-85.8" font-family="Times,serif" font-size="14.00">DOMA&#45;PGMID</text>
</a>
</g>
</g>
<!-- DTEL&#45;PGMID&#45;&gt;DOMA&#45;PGMID -->
<g id="edge30" class="edge">
<title>DTEL&#45;PGMID&#45;&gt;DOMA&#45;PGMID</title>
<path fill="none" stroke="black" d="M119,-143.7C108.17,-134.88 94.85,-124.03 83.1,-114.47"/>
<polygon fill="black" stroke="black" points="85.24,-111.7 75.28,-108.1 80.82,-117.13 85.24,-111.7"/>
</g>
<!-- DOMA&#45;OBJECT -->
<g id="node20" class="node">
<title>DOMA&#45;OBJECT</title>
<g id="a_node20"><a xlink:href="./DOMA_OBJECT.html" xlink:title="DOMA&#45;OBJECT">
<polygon fill="none" stroke="yellow" points="241.52,-108 127.01,-108 127.01,-72 241.52,-72 241.52,-108"/>
<text text-anchor="middle" x="184.26" y="-85.8" font-family="Times,serif" font-size="14.00">DOMA&#45;OBJECT</text>
</a>
</g>
</g>
<!-- DTEL&#45;TROBJTYPE&#45;&gt;DOMA&#45;OBJECT -->
<g id="edge31" class="edge">
<title>DTEL&#45;TROBJTYPE&#45;&gt;DOMA&#45;OBJECT</title>
<path fill="none" stroke="black" d="M298.32,-143.88C277.77,-134.35 252.01,-122.41 230.17,-112.28"/>
<polygon fill="black" stroke="black" points="231.63,-109.1 221.08,-108.07 228.68,-115.45 231.63,-109.1"/>
</g>
<!-- TABL&#45;/IWBEP/I_CP_MOD&#45;&gt;DTEL&#45;/IWBEP/CP_PROXY_MODEL_VERSION -->
<g id="edge33" class="edge">
<title>TABL&#45;/IWBEP/I_CP_MOD&#45;&gt;DTEL&#45;/IWBEP/CP_PROXY_MODEL_VERSION</title>
<path fill="none" stroke="black" d="M737.18,-143.97C776.78,-133.89 827.08,-121.08 868.31,-110.59"/>
<polygon fill="black" stroke="black" points="869.21,-113.97 878.04,-108.11 867.49,-107.19 869.21,-113.97"/>
</g>
<!-- TABL&#45;/IWBEP/I_CP_MOD&#45;&gt;DTEL&#45;/IWBEP/CP_PROXY_MODEL_ID -->
<g id="edge32" class="edge">
<title>TABL&#45;/IWBEP/I_CP_MOD&#45;&gt;DTEL&#45;/IWBEP/CP_PROXY_MODEL_ID</title>
<path fill="none" stroke="black" d="M758.89,-145.32C762.05,-144.86 765.18,-144.42 768.26,-144 842.92,-133.88 1035.11,-115.71 1168.8,-103.51"/>
<polygon fill="black" stroke="black" points="1169.49,-106.96 1179.13,-102.57 1168.85,-99.99 1169.49,-106.96"/>
</g>
<!-- TABL&#45;/IWBEP/I_CP_MOD&#45;&gt;DTEL&#45;/IWBEP/CP_PROXY_MODEL_DESCR -->
<g id="edge35" class="edge">
<title>TABL&#45;/IWBEP/I_CP_MOD&#45;&gt;DTEL&#45;/IWBEP/CP_PROXY_MODEL_DESCR</title>
<path fill="none" stroke="black" d="M605.29,-143.97C566.93,-133.91 518.21,-121.14 478.23,-110.65"/>
<polygon fill="black" stroke="black" points="479.09,-107.26 468.53,-108.11 477.31,-114.03 479.09,-107.26"/>
</g>
<!-- TABL&#45;/IWBEP/I_CP_MOD&#45;&gt;DTEL&#45;/IWBEP/CP_MPC_NAME -->
<g id="edge34" class="edge">
<title>TABL&#45;/IWBEP/I_CP_MOD&#45;&gt;DTEL&#45;/IWBEP/CP_MPC_NAME</title>
<path fill="none" stroke="black" d="M670.26,-143.7C670.26,-135.98 670.26,-126.71 670.26,-118.11"/>
<polygon fill="black" stroke="black" points="673.76,-118.1 670.26,-108.1 666.76,-118.1 673.76,-118.1"/>
</g>
<!-- DOMA&#45;/IWBEP/CP_PROXY_MODEL_DESCR -->
<g id="node23" class="node">
<title>DOMA&#45;/IWBEP/CP_PROXY_MODEL_DESCR</title>
<g id="a_node23"><a xlink:href="./DOMA_%23IWBEP%23CP_PROXY_MODEL_DESCR.html" xlink:title="DOMA&#45;/IWBEP/CP_PROXY_MODEL_DESCR">
<polygon fill="none" stroke="yellow" points="550.95,-36 255.57,-36 255.57,0 550.95,0 550.95,-36"/>
<text text-anchor="middle" x="403.26" y="-13.8" font-family="Times,serif" font-size="14.00">DOMA&#45;/IWBEP/CP_PROXY_MODEL_DESCR</text>
</a>
</g>
</g>
<!-- DTEL&#45;/IWBEP/CP_PROXY_MODEL_DESCR&#45;&gt;DOMA&#45;/IWBEP/CP_PROXY_MODEL_DESCR -->
<g id="edge36" class="edge">
<title>DTEL&#45;/IWBEP/CP_PROXY_MODEL_DESCR&#45;&gt;DOMA&#45;/IWBEP/CP_PROXY_MODEL_DESCR</title>
<path fill="none" stroke="black" d="M403.26,-71.7C403.26,-63.98 403.26,-54.71 403.26,-46.11"/>
<polygon fill="black" stroke="black" points="406.76,-46.1 403.26,-36.1 399.76,-46.1 406.76,-46.1"/>
</g>
<!-- DOMA&#45;SEOCLSNAME -->
<g id="node25" class="node">
<title>DOMA&#45;SEOCLSNAME</title>
<g id="a_node25"><a xlink:href="./DOMA_SEOCLSNAME.html" xlink:title="DOMA&#45;SEOCLSNAME">
<polygon fill="none" stroke="yellow" points="748.51,-36 592.01,-36 592.01,0 748.51,0 748.51,-36"/>
<text text-anchor="middle" x="670.26" y="-13.8" font-family="Times,serif" font-size="14.00">DOMA&#45;SEOCLSNAME</text>
</a>
</g>
</g>
<!-- DTEL&#45;/IWBEP/CP_MPC_NAME&#45;&gt;DOMA&#45;SEOCLSNAME -->
<g id="edge37" class="edge">
<title>DTEL&#45;/IWBEP/CP_MPC_NAME&#45;&gt;DOMA&#45;SEOCLSNAME</title>
<path fill="none" stroke="black" d="M670.26,-71.7C670.26,-63.98 670.26,-54.71 670.26,-46.11"/>
<polygon fill="black" stroke="black" points="673.76,-46.1 670.26,-36.1 666.76,-46.1 673.76,-46.1"/>
</g>
</g>
</svg>
