<?xml version="1.0" encoding="UTF-8" standalone="no"?>
<!DOCTYPE svg PUBLIC "-//W3C//DTD SVG 1.1//EN"
 "http://www.w3.org/Graphics/SVG/1.1/DTD/svg11.dtd">
<!-- Generated by graphviz version 2.47.3 (20210619.1520)
 -->
<!-- Title: G Pages: 1 -->
<svg width="1265pt" height="188pt"
 viewBox="0.00 0.00 1264.75 188.00" xmlns="http://www.w3.org/2000/svg" xmlns:xlink="http://www.w3.org/1999/xlink">
<g id="graph0" class="graph" transform="scale(1 1) rotate(0) translate(4 184)">
<title>G</title>
<polygon fill="white" stroke="transparent" points="-4,4 -4,-184 1260.75,-184 1260.75,4 -4,4"/>
<!-- TABL&#45;SUID_ST_NODE_WORKPLACE -->
<g id="node1" class="node">
<title>TABL&#45;SUID_ST_NODE_WORKPLACE</title>
<polygon fill="none" stroke="yellow" points="757.15,-180 503.82,-180 503.82,-144 757.15,-144 757.15,-180"/>
<text text-anchor="middle" x="630.49" y="-157.8" font-family="Times,serif" font-size="14.00">TABL&#45;SUID_ST_NODE_WORKPLACE</text>
</g>
<!-- DTEL&#45;AD_COMM -->
<g id="node2" class="node">
<title>DTEL&#45;AD_COMM</title>
<g id="a_node2"><a xlink:href="./DTEL_AD_COMM.html" xlink:title="DTEL&#45;AD_COMM">
<polygon fill="none" stroke="yellow" points="131.46,-108 3.51,-108 3.51,-72 131.46,-72 131.46,-108"/>
<text text-anchor="middle" x="67.49" y="-85.8" font-family="Times,serif" font-size="14.00">DTEL&#45;AD_COMM</text>
</a>
</g>
</g>
<!-- TABL&#45;SUID_ST_NODE_WORKPLACE&#45;&gt;DTEL&#45;AD_COMM -->
<g id="edge8" class="edge">
<title>TABL&#45;SUID_ST_NODE_WORKPLACE&#45;&gt;DTEL&#45;AD_COMM</title>
<path fill="none" stroke="black" d="M503.76,-151.53C407.01,-143.31 270.27,-129.55 141.54,-108.06"/>
<polygon fill="black" stroke="black" points="141.93,-104.58 131.49,-106.37 140.77,-111.48 141.93,-104.58"/>
</g>
<!-- DTEL&#45;AD_IH_MAIL -->
<g id="node4" class="node">
<title>DTEL&#45;AD_IH_MAIL</title>
<g id="a_node4"><a xlink:href="./DTEL_AD_IH_MAIL.html" xlink:title="DTEL&#45;AD_IH_MAIL">
<polygon fill="none" stroke="yellow" points="291.16,-108 149.82,-108 149.82,-72 291.16,-72 291.16,-108"/>
<text text-anchor="middle" x="220.49" y="-85.8" font-family="Times,serif" font-size="14.00">DTEL&#45;AD_IH_MAIL</text>
</a>
</g>
</g>
<!-- TABL&#45;SUID_ST_NODE_WORKPLACE&#45;&gt;DTEL&#45;AD_IH_MAIL -->
<g id="edge7" class="edge">
<title>TABL&#45;SUID_ST_NODE_WORKPLACE&#45;&gt;DTEL&#45;AD_IH_MAIL</title>
<path fill="none" stroke="black" d="M514.57,-143.98C453.67,-134.67 377.56,-122.46 301.35,-108.3"/>
<polygon fill="black" stroke="black" points="301.56,-104.78 291.08,-106.39 300.27,-111.66 301.56,-104.78"/>
</g>
<!-- DTEL&#45;AD_ID_CODE -->
<g id="node6" class="node">
<title>DTEL&#45;AD_ID_CODE</title>
<g id="a_node6"><a xlink:href="./DTEL_AD_ID_CODE.html" xlink:title="DTEL&#45;AD_ID_CODE">
<polygon fill="none" stroke="yellow" points="451.99,-108 308.98,-108 308.98,-72 451.99,-72 451.99,-108"/>
<text text-anchor="middle" x="380.49" y="-85.8" font-family="Times,serif" font-size="14.00">DTEL&#45;AD_ID_CODE</text>
</a>
</g>
</g>
<!-- TABL&#45;SUID_ST_NODE_WORKPLACE&#45;&gt;DTEL&#45;AD_ID_CODE -->
<g id="edge6" class="edge">
<title>TABL&#45;SUID_ST_NODE_WORKPLACE&#45;&gt;DTEL&#45;AD_ID_CODE</title>
<path fill="none" stroke="black" d="M569.65,-143.97C533.96,-133.97 488.69,-121.3 451.39,-110.85"/>
<polygon fill="black" stroke="black" points="452.17,-107.44 441.6,-108.11 450.28,-114.18 452.17,-107.44"/>
</g>
<!-- DTEL&#45;AD_ROOMNUM -->
<g id="node7" class="node">
<title>DTEL&#45;AD_ROOMNUM</title>
<g id="a_node7"><a xlink:href="./DTEL_AD_ROOMNUM.html" xlink:title="DTEL&#45;AD_ROOMNUM">
<polygon fill="none" stroke="yellow" points="628.78,-108 470.19,-108 470.19,-72 628.78,-72 628.78,-108"/>
<text text-anchor="middle" x="549.49" y="-85.8" font-family="Times,serif" font-size="14.00">DTEL&#45;AD_ROOMNUM</text>
</a>
</g>
</g>
<!-- TABL&#45;SUID_ST_NODE_WORKPLACE&#45;&gt;DTEL&#45;AD_ROOMNUM -->
<g id="edge5" class="edge">
<title>TABL&#45;SUID_ST_NODE_WORKPLACE&#45;&gt;DTEL&#45;AD_ROOMNUM</title>
<path fill="none" stroke="black" d="M610.46,-143.7C600.36,-134.97 587.95,-124.24 576.97,-114.75"/>
<polygon fill="black" stroke="black" points="579.13,-111.99 569.28,-108.1 574.56,-117.29 579.13,-111.99"/>
</g>
<!-- DTEL&#45;AD_FLOOR -->
<g id="node8" class="node">
<title>DTEL&#45;AD_FLOOR</title>
<g id="a_node8"><a xlink:href="./DTEL_AD_FLOOR.html" xlink:title="DTEL&#45;AD_FLOOR">
<polygon fill="none" stroke="yellow" points="776.01,-108 646.96,-108 646.96,-72 776.01,-72 776.01,-108"/>
<text text-anchor="middle" x="711.49" y="-85.8" font-family="Times,serif" font-size="14.00">DTEL&#45;AD_FLOOR</text>
</a>
</g>
</g>
<!-- TABL&#45;SUID_ST_NODE_WORKPLACE&#45;&gt;DTEL&#45;AD_FLOOR -->
<g id="edge4" class="edge">
<title>TABL&#45;SUID_ST_NODE_WORKPLACE&#45;&gt;DTEL&#45;AD_FLOOR</title>
<path fill="none" stroke="black" d="M650.51,-143.7C660.61,-134.97 673.02,-124.24 684,-114.75"/>
<polygon fill="black" stroke="black" points="686.42,-117.29 691.69,-108.1 681.84,-111.99 686.42,-117.29"/>
</g>
<!-- DTEL&#45;AD_BLDNG_P -->
<g id="node9" class="node">
<title>DTEL&#45;AD_BLDNG_P</title>
<g id="a_node9"><a xlink:href="./DTEL_AD_BLDNG_P.html" xlink:title="DTEL&#45;AD_BLDNG_P">
<polygon fill="none" stroke="yellow" points="940.62,-108 794.36,-108 794.36,-72 940.62,-72 940.62,-108"/>
<text text-anchor="middle" x="867.49" y="-85.8" font-family="Times,serif" font-size="14.00">DTEL&#45;AD_BLDNG_P</text>
</a>
</g>
</g>
<!-- TABL&#45;SUID_ST_NODE_WORKPLACE&#45;&gt;DTEL&#45;AD_BLDNG_P -->
<g id="edge3" class="edge">
<title>TABL&#45;SUID_ST_NODE_WORKPLACE&#45;&gt;DTEL&#45;AD_BLDNG_P</title>
<path fill="none" stroke="black" d="M688.16,-143.97C721.85,-134.01 764.54,-121.41 799.81,-110.99"/>
<polygon fill="black" stroke="black" points="800.95,-114.3 809.55,-108.11 798.97,-107.59 800.95,-114.3"/>
</g>
<!-- DTEL&#45;AD_FNCTN -->
<g id="node10" class="node">
<title>DTEL&#45;AD_FNCTN</title>
<g id="a_node10"><a xlink:href="./DTEL_AD_FNCTN.html" xlink:title="DTEL&#45;AD_FNCTN">
<polygon fill="none" stroke="yellow" points="1088.01,-108 958.96,-108 958.96,-72 1088.01,-72 1088.01,-108"/>
<text text-anchor="middle" x="1023.49" y="-85.8" font-family="Times,serif" font-size="14.00">DTEL&#45;AD_FNCTN</text>
</a>
</g>
</g>
<!-- TABL&#45;SUID_ST_NODE_WORKPLACE&#45;&gt;DTEL&#45;AD_FNCTN -->
<g id="edge2" class="edge">
<title>TABL&#45;SUID_ST_NODE_WORKPLACE&#45;&gt;DTEL&#45;AD_FNCTN</title>
<path fill="none" stroke="black" d="M743.36,-143.97C801.9,-134.72 874.76,-122.57 948.61,-108.11"/>
<polygon fill="black" stroke="black" points="949.43,-111.52 958.56,-106.15 948.07,-104.65 949.43,-111.52"/>
</g>
<!-- DTEL&#45;AD_DPRTMNT -->
<g id="node12" class="node">
<title>DTEL&#45;AD_DPRTMNT</title>
<g id="a_node12"><a xlink:href="./DTEL_AD_DPRTMNT.html" xlink:title="DTEL&#45;AD_DPRTMNT">
<polygon fill="none" stroke="yellow" points="1256.51,-108 1106.46,-108 1106.46,-72 1256.51,-72 1256.51,-108"/>
<text text-anchor="middle" x="1181.49" y="-85.8" font-family="Times,serif" font-size="14.00">DTEL&#45;AD_DPRTMNT</text>
</a>
</g>
</g>
<!-- TABL&#45;SUID_ST_NODE_WORKPLACE&#45;&gt;DTEL&#45;AD_DPRTMNT -->
<g id="edge1" class="edge">
<title>TABL&#45;SUID_ST_NODE_WORKPLACE&#45;&gt;DTEL&#45;AD_DPRTMNT</title>
<path fill="none" stroke="black" d="M757.24,-149.61C848.83,-140.68 975.67,-126.85 1096.28,-108.12"/>
<polygon fill="black" stroke="black" points="1097.1,-111.53 1106.44,-106.52 1096.02,-104.61 1097.1,-111.53"/>
</g>
<!-- DOMA&#45;AD_COMM -->
<g id="node3" class="node">
<title>DOMA&#45;AD_COMM</title>
<g id="a_node3"><a xlink:href="./DOMA_AD_COMM.html" xlink:title="DOMA&#45;AD_COMM">
<polygon fill="none" stroke="yellow" points="134.96,-36 0.01,-36 0.01,0 134.96,0 134.96,-36"/>
<text text-anchor="middle" x="67.49" y="-13.8" font-family="Times,serif" font-size="14.00">DOMA&#45;AD_COMM</text>
</a>
</g>
</g>
<!-- DTEL&#45;AD_COMM&#45;&gt;DOMA&#45;AD_COMM -->
<g id="edge9" class="edge">
<title>DTEL&#45;AD_COMM&#45;&gt;DOMA&#45;AD_COMM</title>
<path fill="none" stroke="black" d="M67.49,-71.7C67.49,-63.98 67.49,-54.71 67.49,-46.11"/>
<polygon fill="black" stroke="black" points="70.99,-46.1 67.49,-36.1 63.99,-46.1 70.99,-46.1"/>
</g>
<!-- DOMA&#45;TEXT10 -->
<g id="node5" class="node">
<title>DOMA&#45;TEXT10</title>
<g id="a_node5"><a xlink:href="./DOMA_TEXT10.html" xlink:title="DOMA&#45;TEXT10">
<polygon fill="none" stroke="yellow" points="606.17,-36 492.8,-36 492.8,0 606.17,0 606.17,-36"/>
<text text-anchor="middle" x="549.49" y="-13.8" font-family="Times,serif" font-size="14.00">DOMA&#45;TEXT10</text>
</a>
</g>
</g>
<!-- DTEL&#45;AD_IH_MAIL&#45;&gt;DOMA&#45;TEXT10 -->
<g id="edge10" class="edge">
<title>DTEL&#45;AD_IH_MAIL&#45;&gt;DOMA&#45;TEXT10</title>
<path fill="none" stroke="black" d="M291.12,-73.79C293.94,-73.18 296.74,-72.59 299.49,-72 361.72,-58.71 432.7,-43.67 483.09,-33.02"/>
<polygon fill="black" stroke="black" points="483.82,-36.44 492.88,-30.95 482.37,-29.59 483.82,-36.44"/>
</g>
<!-- DTEL&#45;AD_ID_CODE&#45;&gt;DOMA&#45;TEXT10 -->
<g id="edge11" class="edge">
<title>DTEL&#45;AD_ID_CODE&#45;&gt;DOMA&#45;TEXT10</title>
<path fill="none" stroke="black" d="M421.83,-71.88C445.03,-62.26 474.18,-50.19 498.76,-40.01"/>
<polygon fill="black" stroke="black" points="500.38,-43.13 508.28,-36.07 497.7,-36.66 500.38,-43.13"/>
</g>
<!-- DTEL&#45;AD_ROOMNUM&#45;&gt;DOMA&#45;TEXT10 -->
<g id="edge12" class="edge">
<title>DTEL&#45;AD_ROOMNUM&#45;&gt;DOMA&#45;TEXT10</title>
<path fill="none" stroke="black" d="M549.49,-71.7C549.49,-63.98 549.49,-54.71 549.49,-46.11"/>
<polygon fill="black" stroke="black" points="552.99,-46.1 549.49,-36.1 545.99,-46.1 552.99,-46.1"/>
</g>
<!-- DTEL&#45;AD_FLOOR&#45;&gt;DOMA&#45;TEXT10 -->
<g id="edge13" class="edge">
<title>DTEL&#45;AD_FLOOR&#45;&gt;DOMA&#45;TEXT10</title>
<path fill="none" stroke="black" d="M671.86,-71.88C649.71,-62.31 621.92,-50.3 598.43,-40.15"/>
<polygon fill="black" stroke="black" points="599.55,-36.82 588.99,-36.07 596.78,-43.25 599.55,-36.82"/>
</g>
<!-- DTEL&#45;AD_BLDNG_P&#45;&gt;DOMA&#45;TEXT10 -->
<g id="edge14" class="edge">
<title>DTEL&#45;AD_BLDNG_P&#45;&gt;DOMA&#45;TEXT10</title>
<path fill="none" stroke="black" d="M794.13,-72.85C740.37,-61.02 667.98,-45.08 615.92,-33.62"/>
<polygon fill="black" stroke="black" points="616.63,-30.2 606.11,-31.47 615.13,-37.03 616.63,-30.2"/>
</g>
<!-- DOMA&#45;TEXT40 -->
<g id="node11" class="node">
<title>DOMA&#45;TEXT40</title>
<g id="a_node11"><a xlink:href="./DOMA_TEXT40.html" xlink:title="DOMA&#45;TEXT40">
<polygon fill="none" stroke="green" points="1159.17,-36 1045.8,-36 1045.8,0 1159.17,0 1159.17,-36"/>
<text text-anchor="middle" x="1102.49" y="-13.8" font-family="Times,serif" font-size="14.00">DOMA&#45;TEXT40</text>
</a>
</g>
</g>
<!-- DTEL&#45;AD_FNCTN&#45;&gt;DOMA&#45;TEXT40 -->
<g id="edge15" class="edge">
<title>DTEL&#45;AD_FNCTN&#45;&gt;DOMA&#45;TEXT40</title>
<path fill="none" stroke="black" d="M1043.01,-71.7C1052.87,-62.97 1064.97,-52.24 1075.68,-42.75"/>
<polygon fill="black" stroke="black" points="1078.02,-45.36 1083.18,-36.1 1073.38,-40.12 1078.02,-45.36"/>
</g>
<!-- DTEL&#45;AD_DPRTMNT&#45;&gt;DOMA&#45;TEXT40 -->
<g id="edge16" class="edge">
<title>DTEL&#45;AD_DPRTMNT&#45;&gt;DOMA&#45;TEXT40</title>
<path fill="none" stroke="black" d="M1161.96,-71.7C1152.1,-62.97 1140,-52.24 1129.29,-42.75"/>
<polygon fill="black" stroke="black" points="1131.59,-40.12 1121.79,-36.1 1126.95,-45.36 1131.59,-40.12"/>
</g>
</g>
</svg>
