<?xml version="1.0" encoding="UTF-8" standalone="no"?>
<!DOCTYPE svg PUBLIC "-//W3C//DTD SVG 1.1//EN"
 "http://www.w3.org/Graphics/SVG/1.1/DTD/svg11.dtd">
<!-- Generated by graphviz version 2.47.3 (20210619.1520)
 -->
<!-- Title: G Pages: 1 -->
<svg width="1920pt" height="260pt"
 viewBox="0.00 0.00 1920.50 260.00" xmlns="http://www.w3.org/2000/svg" xmlns:xlink="http://www.w3.org/1999/xlink">
<g id="graph0" class="graph" transform="scale(1 1) rotate(0) translate(4 256)">
<title>G</title>
<polygon fill="white" stroke="transparent" points="-4,4 -4,-256 1916.5,-256 1916.5,4 -4,4"/>
<!-- TABL&#45;APS_IAM_W_BU_CAB -->
<g id="node1" class="node">
<title>TABL&#45;APS_IAM_W_BU_CAB</title>
<polygon fill="none" stroke="yellow" points="1274.34,-252 1075.27,-252 1075.27,-216 1274.34,-216 1274.34,-252"/>
<text text-anchor="middle" x="1174.81" y="-229.8" font-family="Times,serif" font-size="14.00">TABL&#45;APS_IAM_W_BU_CAB</text>
</g>
<!-- TABL&#45;APS_IAM_ADMIN_DATA -->
<g id="node2" class="node">
<title>TABL&#45;APS_IAM_ADMIN_DATA</title>
<g id="a_node2"><a xlink:href="./TABL_APS_IAM_ADMIN_DATA.html" xlink:title="TABL&#45;APS_IAM_ADMIN_DATA">
<polygon fill="none" stroke="yellow" points="680.7,-180 462.91,-180 462.91,-144 680.7,-144 680.7,-180"/>
<text text-anchor="middle" x="571.81" y="-157.8" font-family="Times,serif" font-size="14.00">TABL&#45;APS_IAM_ADMIN_DATA</text>
</a>
</g>
</g>
<!-- TABL&#45;APS_IAM_W_BU_CAB&#45;&gt;TABL&#45;APS_IAM_ADMIN_DATA -->
<g id="edge5" class="edge">
<title>TABL&#45;APS_IAM_W_BU_CAB&#45;&gt;TABL&#45;APS_IAM_ADMIN_DATA</title>
<path fill="none" stroke="black" d="M1074.83,-223.08C978.99,-213.35 829.97,-197.6 690.77,-180.1"/>
<polygon fill="black" stroke="black" points="691.12,-176.62 680.76,-178.84 690.25,-183.56 691.12,-176.62"/>
</g>
<!-- DTEL&#45;APS_IAM_BU_CATALOG_BLOB_CONT -->
<g id="node9" class="node">
<title>DTEL&#45;APS_IAM_BU_CATALOG_BLOB_CONT</title>
<g id="a_node9"><a xlink:href="./DTEL_APS_IAM_BU_CATALOG_BLOB_CONT.html" xlink:title="DTEL&#45;APS_IAM_BU_CATALOG_BLOB_CONT">
<polygon fill="none" stroke="yellow" points="1004.86,-180 698.75,-180 698.75,-144 1004.86,-144 1004.86,-180"/>
<text text-anchor="middle" x="851.81" y="-157.8" font-family="Times,serif" font-size="14.00">DTEL&#45;APS_IAM_BU_CATALOG_BLOB_CONT</text>
</a>
</g>
</g>
<!-- TABL&#45;APS_IAM_W_BU_CAB&#45;&gt;DTEL&#45;APS_IAM_BU_CATALOG_BLOB_CONT -->
<g id="edge4" class="edge">
<title>TABL&#45;APS_IAM_W_BU_CAB&#45;&gt;DTEL&#45;APS_IAM_BU_CATALOG_BLOB_CONT</title>
<path fill="none" stroke="black" d="M1096.2,-215.97C1049.12,-205.76 989.14,-192.76 940.39,-182.2"/>
<polygon fill="black" stroke="black" points="940.99,-178.75 930.48,-180.05 939.51,-185.59 940.99,-178.75"/>
</g>
<!-- DTEL&#45;APS_IAM_BU_CATALOG_BLOB_VERS -->
<g id="node10" class="node">
<title>DTEL&#45;APS_IAM_BU_CATALOG_BLOB_VERS</title>
<g id="a_node10"><a xlink:href="./DTEL_APS_IAM_BU_CATALOG_BLOB_VERS.html" xlink:title="DTEL&#45;APS_IAM_BU_CATALOG_BLOB_VERS">
<polygon fill="none" stroke="yellow" points="1326.54,-180 1023.07,-180 1023.07,-144 1326.54,-144 1326.54,-180"/>
<text text-anchor="middle" x="1174.81" y="-157.8" font-family="Times,serif" font-size="14.00">DTEL&#45;APS_IAM_BU_CATALOG_BLOB_VERS</text>
</a>
</g>
</g>
<!-- TABL&#45;APS_IAM_W_BU_CAB&#45;&gt;DTEL&#45;APS_IAM_BU_CATALOG_BLOB_VERS -->
<g id="edge3" class="edge">
<title>TABL&#45;APS_IAM_W_BU_CAB&#45;&gt;DTEL&#45;APS_IAM_BU_CATALOG_BLOB_VERS</title>
<path fill="none" stroke="black" d="M1174.81,-215.7C1174.81,-207.98 1174.81,-198.71 1174.81,-190.11"/>
<polygon fill="black" stroke="black" points="1178.31,-190.1 1174.81,-180.1 1171.31,-190.1 1178.31,-190.1"/>
</g>
<!-- DTEL&#45;APS_IAM_BU_CATALOG_BLOB_TYPE -->
<g id="node11" class="node">
<title>DTEL&#45;APS_IAM_BU_CATALOG_BLOB_TYPE</title>
<g id="a_node11"><a xlink:href="./DTEL_APS_IAM_BU_CATALOG_BLOB_TYPE.html" xlink:title="DTEL&#45;APS_IAM_BU_CATALOG_BLOB_TYPE">
<polygon fill="none" stroke="yellow" points="1647.25,-180 1344.36,-180 1344.36,-144 1647.25,-144 1647.25,-180"/>
<text text-anchor="middle" x="1495.81" y="-157.8" font-family="Times,serif" font-size="14.00">DTEL&#45;APS_IAM_BU_CATALOG_BLOB_TYPE</text>
</a>
</g>
</g>
<!-- TABL&#45;APS_IAM_W_BU_CAB&#45;&gt;DTEL&#45;APS_IAM_BU_CATALOG_BLOB_TYPE -->
<g id="edge2" class="edge">
<title>TABL&#45;APS_IAM_W_BU_CAB&#45;&gt;DTEL&#45;APS_IAM_BU_CATALOG_BLOB_TYPE</title>
<path fill="none" stroke="black" d="M1252.92,-215.97C1299.71,-205.76 1359.32,-192.76 1407.77,-182.2"/>
<polygon fill="black" stroke="black" points="1408.59,-185.6 1417.62,-180.05 1407.1,-178.76 1408.59,-185.6"/>
</g>
<!-- DTEL&#45;APS_IAM_BU_CATALOG_ID -->
<g id="node13" class="node">
<title>DTEL&#45;APS_IAM_BU_CATALOG_ID</title>
<g id="a_node13"><a xlink:href="./DTEL_APS_IAM_BU_CATALOG_ID.html" xlink:title="DTEL&#45;APS_IAM_BU_CATALOG_ID">
<polygon fill="none" stroke="yellow" points="1907.19,-180 1668.42,-180 1668.42,-144 1907.19,-144 1907.19,-180"/>
<text text-anchor="middle" x="1787.81" y="-157.8" font-family="Times,serif" font-size="14.00">DTEL&#45;APS_IAM_BU_CATALOG_ID</text>
</a>
</g>
</g>
<!-- TABL&#45;APS_IAM_W_BU_CAB&#45;&gt;DTEL&#45;APS_IAM_BU_CATALOG_ID -->
<g id="edge1" class="edge">
<title>TABL&#45;APS_IAM_W_BU_CAB&#45;&gt;DTEL&#45;APS_IAM_BU_CATALOG_ID</title>
<path fill="none" stroke="black" d="M1274.36,-222.57C1371.67,-212.25 1524,-195.75 1655.81,-180 1656.58,-179.91 1657.36,-179.81 1658.14,-179.72"/>
<polygon fill="black" stroke="black" points="1658.87,-183.16 1668.38,-178.48 1658.03,-176.21 1658.87,-183.16"/>
</g>
<!-- DTEL&#45;APS_IAM_TIMESTAMP_CHANGED -->
<g id="node3" class="node">
<title>DTEL&#45;APS_IAM_TIMESTAMP_CHANGED</title>
<g id="a_node3"><a xlink:href="./DTEL_APS_IAM_TIMESTAMP_CHANGED.html" xlink:title="DTEL&#45;APS_IAM_TIMESTAMP_CHANGED">
<polygon fill="none" stroke="yellow" points="279.42,-108 0.19,-108 0.19,-72 279.42,-72 279.42,-108"/>
<text text-anchor="middle" x="139.81" y="-85.8" font-family="Times,serif" font-size="14.00">DTEL&#45;APS_IAM_TIMESTAMP_CHANGED</text>
</a>
</g>
</g>
<!-- TABL&#45;APS_IAM_ADMIN_DATA&#45;&gt;DTEL&#45;APS_IAM_TIMESTAMP_CHANGED -->
<g id="edge9" class="edge">
<title>TABL&#45;APS_IAM_ADMIN_DATA&#45;&gt;DTEL&#45;APS_IAM_TIMESTAMP_CHANGED</title>
<path fill="none" stroke="black" d="M466.68,-143.97C402.66,-133.59 320.81,-120.33 255.03,-109.67"/>
<polygon fill="black" stroke="black" points="255.46,-106.19 245.03,-108.05 254.34,-113.1 255.46,-106.19"/>
</g>
<!-- DTEL&#45;APS_IAM_USER_CHANGED -->
<g id="node5" class="node">
<title>DTEL&#45;APS_IAM_USER_CHANGED</title>
<g id="a_node5"><a xlink:href="./DTEL_APS_IAM_USER_CHANGED.html" xlink:title="DTEL&#45;APS_IAM_USER_CHANGED">
<polygon fill="none" stroke="yellow" points="825.81,-108 591.8,-108 591.8,-72 825.81,-72 825.81,-108"/>
<text text-anchor="middle" x="708.81" y="-85.8" font-family="Times,serif" font-size="14.00">DTEL&#45;APS_IAM_USER_CHANGED</text>
</a>
</g>
</g>
<!-- TABL&#45;APS_IAM_ADMIN_DATA&#45;&gt;DTEL&#45;APS_IAM_USER_CHANGED -->
<g id="edge8" class="edge">
<title>TABL&#45;APS_IAM_ADMIN_DATA&#45;&gt;DTEL&#45;APS_IAM_USER_CHANGED</title>
<path fill="none" stroke="black" d="M605.32,-143.88C623.65,-134.51 646.54,-122.81 666.13,-112.8"/>
<polygon fill="black" stroke="black" points="667.85,-115.86 675.16,-108.19 664.66,-109.62 667.85,-115.86"/>
</g>
<!-- DTEL&#45;APS_IAM_TIMESTAMP_CREATED -->
<g id="node7" class="node">
<title>DTEL&#45;APS_IAM_TIMESTAMP_CREATED</title>
<g id="a_node7"><a xlink:href="./DTEL_APS_IAM_TIMESTAMP_CREATED.html" xlink:title="DTEL&#45;APS_IAM_TIMESTAMP_CREATED">
<polygon fill="none" stroke="yellow" points="573.54,-108 298.07,-108 298.07,-72 573.54,-72 573.54,-108"/>
<text text-anchor="middle" x="435.81" y="-85.8" font-family="Times,serif" font-size="14.00">DTEL&#45;APS_IAM_TIMESTAMP_CREATED</text>
</a>
</g>
</g>
<!-- TABL&#45;APS_IAM_ADMIN_DATA&#45;&gt;DTEL&#45;APS_IAM_TIMESTAMP_CREATED -->
<g id="edge7" class="edge">
<title>TABL&#45;APS_IAM_ADMIN_DATA&#45;&gt;DTEL&#45;APS_IAM_TIMESTAMP_CREATED</title>
<path fill="none" stroke="black" d="M538.54,-143.88C520.34,-134.51 497.61,-122.81 478.17,-112.8"/>
<polygon fill="black" stroke="black" points="479.7,-109.65 469.2,-108.19 476.49,-115.88 479.7,-109.65"/>
</g>
<!-- DTEL&#45;APS_IAM_USER_CREATED -->
<g id="node8" class="node">
<title>DTEL&#45;APS_IAM_USER_CREATED</title>
<g id="a_node8"><a xlink:href="./DTEL_APS_IAM_USER_CREATED.html" xlink:title="DTEL&#45;APS_IAM_USER_CREATED">
<polygon fill="none" stroke="yellow" points="1074.94,-108 844.67,-108 844.67,-72 1074.94,-72 1074.94,-108"/>
<text text-anchor="middle" x="959.81" y="-85.8" font-family="Times,serif" font-size="14.00">DTEL&#45;APS_IAM_USER_CREATED</text>
</a>
</g>
</g>
<!-- TABL&#45;APS_IAM_ADMIN_DATA&#45;&gt;DTEL&#45;APS_IAM_USER_CREATED -->
<g id="edge6" class="edge">
<title>TABL&#45;APS_IAM_ADMIN_DATA&#45;&gt;DTEL&#45;APS_IAM_USER_CREATED</title>
<path fill="none" stroke="black" d="M666.22,-143.97C723.37,-133.66 796.33,-120.49 855.23,-109.87"/>
<polygon fill="black" stroke="black" points="856.08,-113.27 865.3,-108.05 854.84,-106.38 856.08,-113.27"/>
</g>
<!-- DOMA&#45;TZNTSTMPS -->
<g id="node4" class="node">
<title>DOMA&#45;TZNTSTMPS</title>
<g id="a_node4"><a xlink:href="./DOMA_TZNTSTMPS.html" xlink:title="DOMA&#45;TZNTSTMPS">
<polygon fill="none" stroke="yellow" points="359.34,-36 216.27,-36 216.27,0 359.34,0 359.34,-36"/>
<text text-anchor="middle" x="287.81" y="-13.8" font-family="Times,serif" font-size="14.00">DOMA&#45;TZNTSTMPS</text>
</a>
</g>
</g>
<!-- DTEL&#45;APS_IAM_TIMESTAMP_CHANGED&#45;&gt;DOMA&#45;TZNTSTMPS -->
<g id="edge10" class="edge">
<title>DTEL&#45;APS_IAM_TIMESTAMP_CHANGED&#45;&gt;DOMA&#45;TZNTSTMPS</title>
<path fill="none" stroke="black" d="M176.01,-71.88C196.06,-62.39 221.18,-50.51 242.52,-40.42"/>
<polygon fill="black" stroke="black" points="244.17,-43.51 251.72,-36.07 241.18,-37.18 244.17,-43.51"/>
</g>
<!-- DOMA&#45;BNAME -->
<g id="node6" class="node">
<title>DOMA&#45;BNAME</title>
<g id="a_node6"><a xlink:href="./DOMA_BNAME.html" xlink:title="DOMA&#45;BNAME">
<polygon fill="none" stroke="yellow" points="890.78,-36 776.83,-36 776.83,0 890.78,0 890.78,-36"/>
<text text-anchor="middle" x="833.81" y="-13.8" font-family="Times,serif" font-size="14.00">DOMA&#45;BNAME</text>
</a>
</g>
</g>
<!-- DTEL&#45;APS_IAM_USER_CHANGED&#45;&gt;DOMA&#45;BNAME -->
<g id="edge11" class="edge">
<title>DTEL&#45;APS_IAM_USER_CHANGED&#45;&gt;DOMA&#45;BNAME</title>
<path fill="none" stroke="black" d="M739.38,-71.88C755.88,-62.64 776.43,-51.13 794.14,-41.21"/>
<polygon fill="black" stroke="black" points="796.09,-44.13 803.11,-36.19 792.67,-38.02 796.09,-44.13"/>
</g>
<!-- DTEL&#45;APS_IAM_TIMESTAMP_CREATED&#45;&gt;DOMA&#45;TZNTSTMPS -->
<g id="edge12" class="edge">
<title>DTEL&#45;APS_IAM_TIMESTAMP_CREATED&#45;&gt;DOMA&#45;TZNTSTMPS</title>
<path fill="none" stroke="black" d="M399.6,-71.88C379.55,-62.39 354.43,-50.51 333.09,-40.42"/>
<polygon fill="black" stroke="black" points="334.43,-37.18 323.89,-36.07 331.44,-43.51 334.43,-37.18"/>
</g>
<!-- DTEL&#45;APS_IAM_USER_CREATED&#45;&gt;DOMA&#45;BNAME -->
<g id="edge13" class="edge">
<title>DTEL&#45;APS_IAM_USER_CREATED&#45;&gt;DOMA&#45;BNAME</title>
<path fill="none" stroke="black" d="M928.98,-71.88C912.35,-62.64 891.64,-51.13 873.79,-41.21"/>
<polygon fill="black" stroke="black" points="875.19,-37.99 864.75,-36.19 871.79,-44.11 875.19,-37.99"/>
</g>
<!-- DOMA&#45;APS_IAM_BU_CATALOG_BLOB_TYPE -->
<g id="node12" class="node">
<title>DOMA&#45;APS_IAM_BU_CATALOG_BLOB_TYPE</title>
<g id="a_node12"><a xlink:href="./DOMA_APS_IAM_BU_CATALOG_BLOB_TYPE.html" xlink:title="DOMA&#45;APS_IAM_BU_CATALOG_BLOB_TYPE">
<polygon fill="none" stroke="yellow" points="1648.75,-108 1338.86,-108 1338.86,-72 1648.75,-72 1648.75,-108"/>
<text text-anchor="middle" x="1493.81" y="-85.8" font-family="Times,serif" font-size="14.00">DOMA&#45;APS_IAM_BU_CATALOG_BLOB_TYPE</text>
</a>
</g>
</g>
<!-- DTEL&#45;APS_IAM_BU_CATALOG_BLOB_TYPE&#45;&gt;DOMA&#45;APS_IAM_BU_CATALOG_BLOB_TYPE -->
<g id="edge14" class="edge">
<title>DTEL&#45;APS_IAM_BU_CATALOG_BLOB_TYPE&#45;&gt;DOMA&#45;APS_IAM_BU_CATALOG_BLOB_TYPE</title>
<path fill="none" stroke="black" d="M1495.31,-143.7C1495.09,-135.98 1494.83,-126.71 1494.58,-118.11"/>
<polygon fill="black" stroke="black" points="1498.08,-118 1494.29,-108.1 1491.08,-118.2 1498.08,-118"/>
</g>
<!-- DOMA&#45;APS_IAM_BU_CATALOG_ID -->
<g id="node14" class="node">
<title>DOMA&#45;APS_IAM_BU_CATALOG_ID</title>
<g id="a_node14"><a xlink:href="./DOMA_APS_IAM_BU_CATALOG_ID.html" xlink:title="DOMA&#45;APS_IAM_BU_CATALOG_ID">
<polygon fill="none" stroke="yellow" points="1912.69,-108 1666.92,-108 1666.92,-72 1912.69,-72 1912.69,-108"/>
<text text-anchor="middle" x="1789.81" y="-85.8" font-family="Times,serif" font-size="14.00">DOMA&#45;APS_IAM_BU_CATALOG_ID</text>
</a>
</g>
</g>
<!-- DTEL&#45;APS_IAM_BU_CATALOG_ID&#45;&gt;DOMA&#45;APS_IAM_BU_CATALOG_ID -->
<g id="edge15" class="edge">
<title>DTEL&#45;APS_IAM_BU_CATALOG_ID&#45;&gt;DOMA&#45;APS_IAM_BU_CATALOG_ID</title>
<path fill="none" stroke="black" d="M1788.3,-143.7C1788.52,-135.98 1788.78,-126.71 1789.03,-118.11"/>
<polygon fill="black" stroke="black" points="1792.53,-118.2 1789.32,-108.1 1785.53,-118 1792.53,-118.2"/>
</g>
</g>
</svg>
