<?xml version="1.0" encoding="UTF-8" standalone="no"?>
<!DOCTYPE svg PUBLIC "-//W3C//DTD SVG 1.1//EN"
 "http://www.w3.org/Graphics/SVG/1.1/DTD/svg11.dtd">
<!-- Generated by graphviz version 2.47.3 (20210619.1520)
 -->
<!-- Title: G Pages: 1 -->
<svg width="1598pt" height="188pt"
 viewBox="0.00 0.00 1597.75 188.00" xmlns="http://www.w3.org/2000/svg" xmlns:xlink="http://www.w3.org/1999/xlink">
<g id="graph0" class="graph" transform="scale(1 1) rotate(0) translate(4 184)">
<title>G</title>
<polygon fill="white" stroke="transparent" points="-4,4 -4,-184 1593.75,-184 1593.75,4 -4,4"/>
<!-- TABL&#45;SUID_ST_NODE_DEFAULTS -->
<g id="node1" class="node">
<title>TABL&#45;SUID_ST_NODE_DEFAULTS</title>
<polygon fill="none" stroke="yellow" points="923.65,-180 686.42,-180 686.42,-144 923.65,-144 923.65,-180"/>
<text text-anchor="middle" x="805.04" y="-157.8" font-family="Times,serif" font-size="14.00">TABL&#45;SUID_ST_NODE_DEFAULTS</text>
</g>
<!-- DTEL&#45;XUTIMEFM -->
<g id="node2" class="node">
<title>DTEL&#45;XUTIMEFM</title>
<g id="a_node2"><a xlink:href="./DTEL_XUTIMEFM.html" xlink:title="DTEL&#45;XUTIMEFM">
<polygon fill="none" stroke="yellow" points="135.61,-108 4.46,-108 4.46,-72 135.61,-72 135.61,-108"/>
<text text-anchor="middle" x="70.04" y="-85.8" font-family="Times,serif" font-size="14.00">DTEL&#45;XUTIMEFM</text>
</a>
</g>
</g>
<!-- TABL&#45;SUID_ST_NODE_DEFAULTS&#45;&gt;DTEL&#45;XUTIMEFM -->
<g id="edge11" class="edge">
<title>TABL&#45;SUID_ST_NODE_DEFAULTS&#45;&gt;DTEL&#45;XUTIMEFM</title>
<path fill="none" stroke="black" d="M686.42,-156.58C556.11,-150.56 340.62,-137.18 145.92,-108"/>
<polygon fill="black" stroke="black" points="146.2,-104.5 135.79,-106.46 145.15,-111.42 146.2,-104.5"/>
</g>
<!-- DTEL&#45;SUIDTZONE -->
<g id="node4" class="node">
<title>DTEL&#45;SUIDTZONE</title>
<g id="a_node4"><a xlink:href="./DTEL_SUIDTZONE.html" xlink:title="DTEL&#45;SUIDTZONE">
<polygon fill="none" stroke="yellow" points="288.49,-108 153.59,-108 153.59,-72 288.49,-72 288.49,-108"/>
<text text-anchor="middle" x="221.04" y="-85.8" font-family="Times,serif" font-size="14.00">DTEL&#45;SUIDTZONE</text>
</a>
</g>
</g>
<!-- TABL&#45;SUID_ST_NODE_DEFAULTS&#45;&gt;DTEL&#45;SUIDTZONE -->
<g id="edge10" class="edge">
<title>TABL&#45;SUID_ST_NODE_DEFAULTS&#45;&gt;DTEL&#45;SUIDTZONE</title>
<path fill="none" stroke="black" d="M686.17,-151.03C585.68,-141.95 438.06,-127.05 310.04,-108 306.4,-107.46 302.69,-106.87 298.94,-106.26"/>
<polygon fill="black" stroke="black" points="299.41,-102.79 288.97,-104.57 298.24,-109.69 299.41,-102.79"/>
</g>
<!-- DTEL&#45;XUSTART -->
<g id="node6" class="node">
<title>DTEL&#45;XUSTART</title>
<g id="a_node6"><a xlink:href="./DTEL_XUSTART.html" xlink:title="DTEL&#45;XUSTART">
<polygon fill="none" stroke="yellow" points="439.51,-108 318.57,-108 318.57,-72 439.51,-72 439.51,-108"/>
<text text-anchor="middle" x="379.04" y="-85.8" font-family="Times,serif" font-size="14.00">DTEL&#45;XUSTART</text>
</a>
</g>
</g>
<!-- TABL&#45;SUID_ST_NODE_DEFAULTS&#45;&gt;DTEL&#45;XUSTART -->
<g id="edge9" class="edge">
<title>TABL&#45;SUID_ST_NODE_DEFAULTS&#45;&gt;DTEL&#45;XUSTART</title>
<path fill="none" stroke="black" d="M686.3,-144.67C619.14,-134.99 533.71,-121.91 458.04,-108 455.35,-107.51 452.61,-106.99 449.85,-106.45"/>
<polygon fill="black" stroke="black" points="450.27,-102.97 439.78,-104.46 448.91,-109.84 450.27,-102.97"/>
</g>
<!-- DTEL&#45;XUCATT -->
<g id="node8" class="node">
<title>DTEL&#45;XUCATT</title>
<g id="a_node8"><a xlink:href="./DTEL_XUCATT.html" xlink:title="DTEL&#45;XUCATT">
<polygon fill="none" stroke="yellow" points="580.72,-108 467.35,-108 467.35,-72 580.72,-72 580.72,-108"/>
<text text-anchor="middle" x="524.04" y="-85.8" font-family="Times,serif" font-size="14.00">DTEL&#45;XUCATT</text>
</a>
</g>
</g>
<!-- TABL&#45;SUID_ST_NODE_DEFAULTS&#45;&gt;DTEL&#45;XUCATT -->
<g id="edge8" class="edge">
<title>TABL&#45;SUID_ST_NODE_DEFAULTS&#45;&gt;DTEL&#45;XUCATT</title>
<path fill="none" stroke="black" d="M735.28,-144C695.57,-134.27 644.65,-121.73 590.67,-108.15"/>
<polygon fill="black" stroke="black" points="591.46,-104.74 580.91,-105.69 589.75,-111.53 591.46,-104.74"/>
</g>
<!-- DTEL&#45;XULANGU -->
<g id="node10" class="node">
<title>DTEL&#45;XULANGU</title>
<g id="a_node10"><a xlink:href="./DTEL_XULANGU.html" xlink:title="DTEL&#45;XULANGU">
<polygon fill="none" stroke="yellow" points="724.66,-108 599.42,-108 599.42,-72 724.66,-72 724.66,-108"/>
<text text-anchor="middle" x="662.04" y="-85.8" font-family="Times,serif" font-size="14.00">DTEL&#45;XULANGU</text>
</a>
</g>
</g>
<!-- TABL&#45;SUID_ST_NODE_DEFAULTS&#45;&gt;DTEL&#45;XULANGU -->
<g id="edge7" class="edge">
<title>TABL&#45;SUID_ST_NODE_DEFAULTS&#45;&gt;DTEL&#45;XULANGU</title>
<path fill="none" stroke="black" d="M770.06,-143.88C750.84,-134.47 726.81,-122.71 706.3,-112.67"/>
<polygon fill="black" stroke="black" points="707.67,-109.44 697.15,-108.19 704.6,-115.73 707.67,-109.44"/>
</g>
<!-- DTEL&#45;XUDCPFM -->
<g id="node12" class="node">
<title>DTEL&#45;XUDCPFM</title>
<g id="a_node12"><a xlink:href="./DTEL_XUDCPFM.html" xlink:title="DTEL&#45;XUDCPFM">
<polygon fill="none" stroke="yellow" points="867.13,-108 742.95,-108 742.95,-72 867.13,-72 867.13,-108"/>
<text text-anchor="middle" x="805.04" y="-85.8" font-family="Times,serif" font-size="14.00">DTEL&#45;XUDCPFM</text>
</a>
</g>
</g>
<!-- TABL&#45;SUID_ST_NODE_DEFAULTS&#45;&gt;DTEL&#45;XUDCPFM -->
<g id="edge6" class="edge">
<title>TABL&#45;SUID_ST_NODE_DEFAULTS&#45;&gt;DTEL&#45;XUDCPFM</title>
<path fill="none" stroke="black" d="M805.04,-143.7C805.04,-135.98 805.04,-126.71 805.04,-118.11"/>
<polygon fill="black" stroke="black" points="808.54,-118.1 805.04,-108.1 801.54,-118.1 808.54,-118.1"/>
</g>
<!-- DTEL&#45;XUDATFM -->
<g id="node14" class="node">
<title>DTEL&#45;XUDATFM</title>
<g id="a_node14"><a xlink:href="./DTEL_XUDATFM.html" xlink:title="DTEL&#45;XUDATFM">
<polygon fill="none" stroke="yellow" points="1010.67,-108 885.41,-108 885.41,-72 1010.67,-72 1010.67,-108"/>
<text text-anchor="middle" x="948.04" y="-85.8" font-family="Times,serif" font-size="14.00">DTEL&#45;XUDATFM</text>
</a>
</g>
</g>
<!-- TABL&#45;SUID_ST_NODE_DEFAULTS&#45;&gt;DTEL&#45;XUDATFM -->
<g id="edge5" class="edge">
<title>TABL&#45;SUID_ST_NODE_DEFAULTS&#45;&gt;DTEL&#45;XUDATFM</title>
<path fill="none" stroke="black" d="M840.02,-143.88C859.24,-134.47 883.26,-122.71 903.77,-112.67"/>
<polygon fill="black" stroke="black" points="905.48,-115.73 912.92,-108.19 902.4,-109.44 905.48,-115.73"/>
</g>
<!-- DTEL&#45;XUSPDA -->
<g id="node16" class="node">
<title>DTEL&#45;XUSPDA</title>
<g id="a_node16"><a xlink:href="./DTEL_XUSPDA.html" xlink:title="DTEL&#45;XUSPDA">
<polygon fill="none" stroke="yellow" points="1144.46,-108 1031.62,-108 1031.62,-72 1144.46,-72 1144.46,-108"/>
<text text-anchor="middle" x="1088.04" y="-85.8" font-family="Times,serif" font-size="14.00">DTEL&#45;XUSPDA</text>
</a>
</g>
</g>
<!-- TABL&#45;SUID_ST_NODE_DEFAULTS&#45;&gt;DTEL&#45;XUSPDA -->
<g id="edge4" class="edge">
<title>TABL&#45;SUID_ST_NODE_DEFAULTS&#45;&gt;DTEL&#45;XUSPDA</title>
<path fill="none" stroke="black" d="M874.28,-143.99C916.43,-133.62 971.35,-120.09 1020.04,-108 1020.63,-107.85 1021.22,-107.71 1021.82,-107.56"/>
<polygon fill="black" stroke="black" points="1022.78,-110.93 1031.64,-105.11 1021.09,-104.13 1022.78,-110.93"/>
</g>
<!-- DTEL&#45;XUSPDB -->
<g id="node18" class="node">
<title>DTEL&#45;XUSPDB</title>
<g id="a_node18"><a xlink:href="./DTEL_XUSPDB.html" xlink:title="DTEL&#45;XUSPDB">
<polygon fill="none" stroke="yellow" points="1278.69,-108 1167.39,-108 1167.39,-72 1278.69,-72 1278.69,-108"/>
<text text-anchor="middle" x="1223.04" y="-85.8" font-family="Times,serif" font-size="14.00">DTEL&#45;XUSPDB</text>
</a>
</g>
</g>
<!-- TABL&#45;SUID_ST_NODE_DEFAULTS&#45;&gt;DTEL&#45;XUSPDB -->
<g id="edge3" class="edge">
<title>TABL&#45;SUID_ST_NODE_DEFAULTS&#45;&gt;DTEL&#45;XUSPDB</title>
<path fill="none" stroke="black" d="M923.87,-145.52C991.33,-136.07 1077.19,-122.96 1153.04,-108 1154.49,-107.71 1155.97,-107.42 1157.45,-107.11"/>
<polygon fill="black" stroke="black" points="1158.31,-110.51 1167.35,-104.99 1156.84,-103.66 1158.31,-110.51"/>
</g>
<!-- DTEL&#45;XUSPLG -->
<g id="node20" class="node">
<title>DTEL&#45;XUSPLG</title>
<g id="a_node20"><a xlink:href="./DTEL_XUSPLG.html" xlink:title="DTEL&#45;XUSPLG">
<polygon fill="none" stroke="yellow" points="1413.4,-108 1302.68,-108 1302.68,-72 1413.4,-72 1413.4,-108"/>
<text text-anchor="middle" x="1358.04" y="-85.8" font-family="Times,serif" font-size="14.00">DTEL&#45;XUSPLG</text>
</a>
</g>
</g>
<!-- TABL&#45;SUID_ST_NODE_DEFAULTS&#45;&gt;DTEL&#45;XUSPLG -->
<g id="edge2" class="edge">
<title>TABL&#45;SUID_ST_NODE_DEFAULTS&#45;&gt;DTEL&#45;XUSPLG</title>
<path fill="none" stroke="black" d="M923.75,-152.27C1021.89,-144.02 1164.65,-129.66 1288.04,-108 1289.5,-107.74 1290.98,-107.47 1292.47,-107.19"/>
<polygon fill="black" stroke="black" points="1293.27,-110.6 1302.39,-105.2 1291.9,-103.74 1293.27,-110.6"/>
</g>
<!-- DTEL&#45;RSPOPNAME -->
<g id="node22" class="node">
<title>DTEL&#45;RSPOPNAME</title>
<g id="a_node22"><a xlink:href="./DTEL_RSPOPNAME.html" xlink:title="DTEL&#45;RSPOPNAME">
<polygon fill="none" stroke="yellow" points="1579.46,-108 1438.61,-108 1438.61,-72 1579.46,-72 1579.46,-108"/>
<text text-anchor="middle" x="1509.04" y="-85.8" font-family="Times,serif" font-size="14.00">DTEL&#45;RSPOPNAME</text>
</a>
</g>
</g>
<!-- TABL&#45;SUID_ST_NODE_DEFAULTS&#45;&gt;DTEL&#45;RSPOPNAME -->
<g id="edge1" class="edge">
<title>TABL&#45;SUID_ST_NODE_DEFAULTS&#45;&gt;DTEL&#45;RSPOPNAME</title>
<path fill="none" stroke="black" d="M923.75,-154.59C1048.29,-146.99 1249.56,-132.19 1422.04,-108 1424.12,-107.71 1426.23,-107.4 1428.36,-107.07"/>
<polygon fill="black" stroke="black" points="1429.08,-110.5 1438.4,-105.46 1427.97,-103.59 1429.08,-110.5"/>
</g>
<!-- DOMA&#45;XUTIMEFM -->
<g id="node3" class="node">
<title>DOMA&#45;XUTIMEFM</title>
<g id="a_node3"><a xlink:href="./DOMA_XUTIMEFM.html" xlink:title="DOMA&#45;XUTIMEFM">
<polygon fill="none" stroke="yellow" points="138.11,-36 -0.04,-36 -0.04,0 138.11,0 138.11,-36"/>
<text text-anchor="middle" x="69.04" y="-13.8" font-family="Times,serif" font-size="14.00">DOMA&#45;XUTIMEFM</text>
</a>
</g>
</g>
<!-- DTEL&#45;XUTIMEFM&#45;&gt;DOMA&#45;XUTIMEFM -->
<g id="edge12" class="edge">
<title>DTEL&#45;XUTIMEFM&#45;&gt;DOMA&#45;XUTIMEFM</title>
<path fill="none" stroke="black" d="M69.79,-71.7C69.68,-63.98 69.55,-54.71 69.43,-46.11"/>
<polygon fill="black" stroke="black" points="72.92,-46.05 69.28,-36.1 65.93,-46.15 72.92,-46.05"/>
</g>
<!-- DOMA&#45;TZNZONE -->
<g id="node5" class="node">
<title>DOMA&#45;TZNZONE</title>
<g id="a_node5"><a xlink:href="./DOMA_TZNZONE.html" xlink:title="DOMA&#45;TZNZONE">
<polygon fill="none" stroke="yellow" points="283.99,-36 156.08,-36 156.08,0 283.99,0 283.99,-36"/>
<text text-anchor="middle" x="220.04" y="-13.8" font-family="Times,serif" font-size="14.00">DOMA&#45;TZNZONE</text>
</a>
</g>
</g>
<!-- DTEL&#45;SUIDTZONE&#45;&gt;DOMA&#45;TZNZONE -->
<g id="edge13" class="edge">
<title>DTEL&#45;SUIDTZONE&#45;&gt;DOMA&#45;TZNZONE</title>
<path fill="none" stroke="black" d="M220.79,-71.7C220.68,-63.98 220.55,-54.71 220.43,-46.11"/>
<polygon fill="black" stroke="black" points="223.92,-46.05 220.28,-36.1 216.93,-46.15 223.92,-46.05"/>
</g>
<!-- DOMA&#45;SYCHAR30 -->
<g id="node7" class="node">
<title>DOMA&#45;SYCHAR30</title>
<g id="a_node7"><a xlink:href="./DOMA_SYCHAR30.html" xlink:title="DOMA&#45;SYCHAR30">
<polygon fill="none" stroke="yellow" points="436.24,-36 301.84,-36 301.84,0 436.24,0 436.24,-36"/>
<text text-anchor="middle" x="369.04" y="-13.8" font-family="Times,serif" font-size="14.00">DOMA&#45;SYCHAR30</text>
</a>
</g>
</g>
<!-- DTEL&#45;XUSTART&#45;&gt;DOMA&#45;SYCHAR30 -->
<g id="edge14" class="edge">
<title>DTEL&#45;XUSTART&#45;&gt;DOMA&#45;SYCHAR30</title>
<path fill="none" stroke="black" d="M376.57,-71.7C375.46,-63.98 374.14,-54.71 372.91,-46.11"/>
<polygon fill="black" stroke="black" points="376.36,-45.51 371.48,-36.1 369.43,-46.5 376.36,-45.51"/>
</g>
<!-- DOMA&#45;XUBUTTON -->
<g id="node9" class="node">
<title>DOMA&#45;XUBUTTON</title>
<g id="a_node9"><a xlink:href="./DOMA_XUBUTTON.html" xlink:title="DOMA&#45;XUBUTTON">
<polygon fill="none" stroke="yellow" points="594.44,-36 453.64,-36 453.64,0 594.44,0 594.44,-36"/>
<text text-anchor="middle" x="524.04" y="-13.8" font-family="Times,serif" font-size="14.00">DOMA&#45;XUBUTTON</text>
</a>
</g>
</g>
<!-- DTEL&#45;XUCATT&#45;&gt;DOMA&#45;XUBUTTON -->
<g id="edge15" class="edge">
<title>DTEL&#45;XUCATT&#45;&gt;DOMA&#45;XUBUTTON</title>
<path fill="none" stroke="black" d="M524.04,-71.7C524.04,-63.98 524.04,-54.71 524.04,-46.11"/>
<polygon fill="black" stroke="black" points="527.54,-46.1 524.04,-36.1 520.54,-46.1 527.54,-46.1"/>
</g>
<!-- DOMA&#45;LANG -->
<g id="node11" class="node">
<title>DOMA&#45;LANG</title>
<g id="a_node11"><a xlink:href="./DOMA_LANG.html" xlink:title="DOMA&#45;LANG">
<polygon fill="none" stroke="yellow" points="714.34,-36 611.74,-36 611.74,0 714.34,0 714.34,-36"/>
<text text-anchor="middle" x="663.04" y="-13.8" font-family="Times,serif" font-size="14.00">DOMA&#45;LANG</text>
</a>
</g>
</g>
<!-- DTEL&#45;XULANGU&#45;&gt;DOMA&#45;LANG -->
<g id="edge16" class="edge">
<title>DTEL&#45;XULANGU&#45;&gt;DOMA&#45;LANG</title>
<path fill="none" stroke="black" d="M662.29,-71.7C662.4,-63.98 662.53,-54.71 662.65,-46.11"/>
<polygon fill="black" stroke="black" points="666.15,-46.15 662.79,-36.1 659.15,-46.05 666.15,-46.15"/>
</g>
<!-- DOMA&#45;XUDCPFM -->
<g id="node13" class="node">
<title>DOMA&#45;XUDCPFM</title>
<g id="a_node13"><a xlink:href="./DOMA_XUDCPFM.html" xlink:title="DOMA&#45;XUDCPFM">
<polygon fill="none" stroke="yellow" points="863.63,-36 732.45,-36 732.45,0 863.63,0 863.63,-36"/>
<text text-anchor="middle" x="798.04" y="-13.8" font-family="Times,serif" font-size="14.00">DOMA&#45;XUDCPFM</text>
</a>
</g>
</g>
<!-- DTEL&#45;XUDCPFM&#45;&gt;DOMA&#45;XUDCPFM -->
<g id="edge17" class="edge">
<title>DTEL&#45;XUDCPFM&#45;&gt;DOMA&#45;XUDCPFM</title>
<path fill="none" stroke="black" d="M803.31,-71.7C802.54,-63.98 801.61,-54.71 800.75,-46.11"/>
<polygon fill="black" stroke="black" points="804.23,-45.71 799.75,-36.1 797.26,-46.4 804.23,-45.71"/>
</g>
<!-- DOMA&#45;XUDATFM -->
<g id="node15" class="node">
<title>DOMA&#45;XUDATFM</title>
<g id="a_node15"><a xlink:href="./DOMA_XUDATFM.html" xlink:title="DOMA&#45;XUDATFM">
<polygon fill="none" stroke="yellow" points="1014.17,-36 881.91,-36 881.91,0 1014.17,0 1014.17,-36"/>
<text text-anchor="middle" x="948.04" y="-13.8" font-family="Times,serif" font-size="14.00">DOMA&#45;XUDATFM</text>
</a>
</g>
</g>
<!-- DTEL&#45;XUDATFM&#45;&gt;DOMA&#45;XUDATFM -->
<g id="edge18" class="edge">
<title>DTEL&#45;XUDATFM&#45;&gt;DOMA&#45;XUDATFM</title>
<path fill="none" stroke="black" d="M948.04,-71.7C948.04,-63.98 948.04,-54.71 948.04,-46.11"/>
<polygon fill="black" stroke="black" points="951.54,-46.1 948.04,-36.1 944.54,-46.1 951.54,-46.1"/>
</g>
<!-- DOMA&#45;XUSPDA -->
<g id="node17" class="node">
<title>DOMA&#45;XUSPDA</title>
<g id="a_node17"><a xlink:href="./DOMA_XUSPDA.html" xlink:title="DOMA&#45;XUSPDA">
<polygon fill="none" stroke="yellow" points="1151.96,-36 1032.12,-36 1032.12,0 1151.96,0 1151.96,-36"/>
<text text-anchor="middle" x="1092.04" y="-13.8" font-family="Times,serif" font-size="14.00">DOMA&#45;XUSPDA</text>
</a>
</g>
</g>
<!-- DTEL&#45;XUSPDA&#45;&gt;DOMA&#45;XUSPDA -->
<g id="edge19" class="edge">
<title>DTEL&#45;XUSPDA&#45;&gt;DOMA&#45;XUSPDA</title>
<path fill="none" stroke="black" d="M1089.03,-71.7C1089.47,-63.98 1090,-54.71 1090.49,-46.11"/>
<polygon fill="black" stroke="black" points="1093.98,-46.29 1091.06,-36.1 1087,-45.89 1093.98,-46.29"/>
</g>
<!-- DOMA&#45;XUSPDB -->
<g id="node19" class="node">
<title>DOMA&#45;XUSPDB</title>
<g id="a_node19"><a xlink:href="./DOMA_XUSPDB.html" xlink:title="DOMA&#45;XUSPDB">
<polygon fill="none" stroke="yellow" points="1288.19,-36 1169.89,-36 1169.89,0 1288.19,0 1288.19,-36"/>
<text text-anchor="middle" x="1229.04" y="-13.8" font-family="Times,serif" font-size="14.00">DOMA&#45;XUSPDB</text>
</a>
</g>
</g>
<!-- DTEL&#45;XUSPDB&#45;&gt;DOMA&#45;XUSPDB -->
<g id="edge20" class="edge">
<title>DTEL&#45;XUSPDB&#45;&gt;DOMA&#45;XUSPDB</title>
<path fill="none" stroke="black" d="M1224.52,-71.7C1225.18,-63.98 1225.98,-54.71 1226.71,-46.11"/>
<polygon fill="black" stroke="black" points="1230.2,-46.37 1227.57,-36.1 1223.23,-45.77 1230.2,-46.37"/>
</g>
<!-- DOMA&#45;XUSPLG -->
<g id="node21" class="node">
<title>DOMA&#45;XUSPLG</title>
<g id="a_node21"><a xlink:href="./DOMA_XUSPLG.html" xlink:title="DOMA&#45;XUSPLG">
<polygon fill="none" stroke="yellow" points="1423.9,-36 1306.18,-36 1306.18,0 1423.9,0 1423.9,-36"/>
<text text-anchor="middle" x="1365.04" y="-13.8" font-family="Times,serif" font-size="14.00">DOMA&#45;XUSPLG</text>
</a>
</g>
</g>
<!-- DTEL&#45;XUSPLG&#45;&gt;DOMA&#45;XUSPLG -->
<g id="edge21" class="edge">
<title>DTEL&#45;XUSPLG&#45;&gt;DOMA&#45;XUSPLG</title>
<path fill="none" stroke="black" d="M1359.77,-71.7C1360.54,-63.98 1361.47,-54.71 1362.33,-46.11"/>
<polygon fill="black" stroke="black" points="1365.81,-46.4 1363.33,-36.1 1358.85,-45.71 1365.81,-46.4"/>
</g>
<!-- DOMA&#45;RSPOPNAME -->
<g id="node23" class="node">
<title>DOMA&#45;RSPOPNAME</title>
<g id="a_node23"><a xlink:href="./DOMA_RSPOPNAME.html" xlink:title="DOMA&#45;RSPOPNAME">
<polygon fill="none" stroke="yellow" points="1589.96,-36 1442.11,-36 1442.11,0 1589.96,0 1589.96,-36"/>
<text text-anchor="middle" x="1516.04" y="-13.8" font-family="Times,serif" font-size="14.00">DOMA&#45;RSPOPNAME</text>
</a>
</g>
</g>
<!-- DTEL&#45;RSPOPNAME&#45;&gt;DOMA&#45;RSPOPNAME -->
<g id="edge22" class="edge">
<title>DTEL&#45;RSPOPNAME&#45;&gt;DOMA&#45;RSPOPNAME</title>
<path fill="none" stroke="black" d="M1510.77,-71.7C1511.54,-63.98 1512.47,-54.71 1513.33,-46.11"/>
<polygon fill="black" stroke="black" points="1516.81,-46.4 1514.33,-36.1 1509.85,-45.71 1516.81,-46.4"/>
</g>
</g>
</svg>
