<?xml version="1.0" encoding="UTF-8" standalone="no"?>
<!DOCTYPE svg PUBLIC "-//W3C//DTD SVG 1.1//EN"
 "http://www.w3.org/Graphics/SVG/1.1/DTD/svg11.dtd">
<!-- Generated by graphviz version 2.47.3 (20210619.1520)
 -->
<!-- Title: G Pages: 1 -->
<svg width="1861pt" height="188pt"
 viewBox="0.00 0.00 1860.63 188.00" xmlns="http://www.w3.org/2000/svg" xmlns:xlink="http://www.w3.org/1999/xlink">
<g id="graph0" class="graph" transform="scale(1 1) rotate(0) translate(4 184)">
<title>G</title>
<polygon fill="white" stroke="transparent" points="-4,4 -4,-184 1856.63,-184 1856.63,4 -4,4"/>
<!-- TABL&#45;BAPIALG -->
<g id="node1" class="node">
<title>TABL&#45;BAPIALG</title>
<polygon fill="none" stroke="green" points="957.95,-180 840.23,-180 840.23,-144 957.95,-144 957.95,-180"/>
<text text-anchor="middle" x="899.09" y="-157.8" font-family="Times,serif" font-size="14.00">TABL&#45;BAPIALG</text>
</g>
<!-- DTEL&#45;BALUSER -->
<g id="node2" class="node">
<title>DTEL&#45;BALUSER</title>
<g id="a_node2"><a xlink:href="./DTEL_BALUSER.html" xlink:title="DTEL&#45;BALUSER">
<polygon fill="none" stroke="yellow" points="127.29,-108 6.89,-108 6.89,-72 127.29,-72 127.29,-108"/>
<text text-anchor="middle" x="67.09" y="-85.8" font-family="Times,serif" font-size="14.00">DTEL&#45;BALUSER</text>
</a>
</g>
</g>
<!-- TABL&#45;BAPIALG&#45;&gt;DTEL&#45;BALUSER -->
<g id="edge13" class="edge">
<title>TABL&#45;BAPIALG&#45;&gt;DTEL&#45;BALUSER</title>
<path fill="none" stroke="black" d="M839.83,-160.35C712.65,-158.2 404.13,-149 137.81,-108.11"/>
<polygon fill="black" stroke="black" points="137.97,-104.6 127.55,-106.52 136.9,-111.51 137.97,-104.6"/>
</g>
<!-- DTEL&#45;BALTIME -->
<g id="node4" class="node">
<title>DTEL&#45;BALTIME</title>
<g id="a_node4"><a xlink:href="./DTEL_BALTIME.html" xlink:title="DTEL&#45;BALTIME">
<polygon fill="none" stroke="yellow" points="263.22,-108 144.96,-108 144.96,-72 263.22,-72 263.22,-108"/>
<text text-anchor="middle" x="204.09" y="-85.8" font-family="Times,serif" font-size="14.00">DTEL&#45;BALTIME</text>
</a>
</g>
</g>
<!-- TABL&#45;BAPIALG&#45;&gt;DTEL&#45;BALTIME -->
<g id="edge12" class="edge">
<title>TABL&#45;BAPIALG&#45;&gt;DTEL&#45;BALTIME</title>
<path fill="none" stroke="black" d="M839.92,-159.16C729.98,-155.07 486.76,-142.77 273.45,-108.07"/>
<polygon fill="black" stroke="black" points="273.75,-104.57 263.31,-106.4 272.61,-111.48 273.75,-104.57"/>
</g>
<!-- DTEL&#45;BALDATE -->
<g id="node6" class="node">
<title>DTEL&#45;BALDATE</title>
<g id="a_node6"><a xlink:href="./DTEL_BALDATE.html" xlink:title="DTEL&#45;BALDATE">
<polygon fill="none" stroke="yellow" points="402.83,-108 281.35,-108 281.35,-72 402.83,-72 402.83,-108"/>
<text text-anchor="middle" x="342.09" y="-85.8" font-family="Times,serif" font-size="14.00">DTEL&#45;BALDATE</text>
</a>
</g>
</g>
<!-- TABL&#45;BAPIALG&#45;&gt;DTEL&#45;BALDATE -->
<g id="edge11" class="edge">
<title>TABL&#45;BAPIALG&#45;&gt;DTEL&#45;BALDATE</title>
<path fill="none" stroke="black" d="M839.9,-157.05C749.77,-150.49 572.64,-135.44 413.08,-108.04"/>
<polygon fill="black" stroke="black" points="413.53,-104.57 403.08,-106.3 412.33,-111.46 413.53,-104.57"/>
</g>
<!-- DTEL&#45;SYMSGV -->
<g id="node8" class="node">
<title>DTEL&#45;SYMSGV</title>
<g id="a_node8"><a xlink:href="./DTEL_SYMSGV.html" xlink:title="DTEL&#45;SYMSGV">
<polygon fill="none" stroke="green" points="535.35,-108 420.84,-108 420.84,-72 535.35,-72 535.35,-108"/>
<text text-anchor="middle" x="478.09" y="-85.8" font-family="Times,serif" font-size="14.00">DTEL&#45;SYMSGV</text>
</a>
</g>
</g>
<!-- TABL&#45;BAPIALG&#45;&gt;DTEL&#45;SYMSGV -->
<g id="edge10" class="edge">
<title>TABL&#45;BAPIALG&#45;&gt;DTEL&#45;SYMSGV</title>
<path fill="none" stroke="black" d="M840.03,-154.09C771.39,-145.63 654.55,-129.92 545.46,-108.17"/>
<polygon fill="black" stroke="black" points="546.1,-104.73 535.6,-106.19 544.72,-111.6 546.1,-104.73"/>
</g>
<!-- DTEL&#45;BAPI_MSG -->
<g id="node10" class="node">
<title>DTEL&#45;BAPI_MSG</title>
<g id="a_node10"><a xlink:href="./DTEL_BAPI_MSG.html" xlink:title="DTEL&#45;BAPI_MSG">
<polygon fill="none" stroke="green" points="678.74,-108 553.45,-108 553.45,-72 678.74,-72 678.74,-108"/>
<text text-anchor="middle" x="616.09" y="-85.8" font-family="Times,serif" font-size="14.00">DTEL&#45;BAPI_MSG</text>
</a>
</g>
</g>
<!-- TABL&#45;BAPIALG&#45;&gt;DTEL&#45;BAPI_MSG -->
<g id="edge9" class="edge">
<title>TABL&#45;BAPIALG&#45;&gt;DTEL&#45;BAPI_MSG</title>
<path fill="none" stroke="black" d="M840.11,-146.41C796.1,-135.53 735.72,-120.59 688.74,-108.97"/>
<polygon fill="black" stroke="black" points="689.47,-105.55 678.93,-106.54 687.79,-112.34 689.47,-105.55"/>
</g>
<!-- DTEL&#45;SYMSGNO -->
<g id="node12" class="node">
<title>DTEL&#45;SYMSGNO</title>
<g id="a_node12"><a xlink:href="./DTEL_SYMSGNO.html" xlink:title="DTEL&#45;SYMSGNO">
<polygon fill="none" stroke="green" points="821.45,-108 696.73,-108 696.73,-72 821.45,-72 821.45,-108"/>
<text text-anchor="middle" x="759.09" y="-85.8" font-family="Times,serif" font-size="14.00">DTEL&#45;SYMSGNO</text>
</a>
</g>
</g>
<!-- TABL&#45;BAPIALG&#45;&gt;DTEL&#45;SYMSGNO -->
<g id="edge8" class="edge">
<title>TABL&#45;BAPIALG&#45;&gt;DTEL&#45;SYMSGNO</title>
<path fill="none" stroke="black" d="M864.84,-143.88C846.03,-134.47 822.51,-122.71 802.43,-112.67"/>
<polygon fill="black" stroke="black" points="803.98,-109.53 793.47,-108.19 800.85,-115.79 803.98,-109.53"/>
</g>
<!-- DTEL&#45;SYMSGID -->
<g id="node14" class="node">
<title>DTEL&#45;SYMSGID</title>
<g id="a_node14"><a xlink:href="./DTEL_SYMSGID.html" xlink:title="DTEL&#45;SYMSGID">
<polygon fill="none" stroke="green" points="959.01,-108 839.18,-108 839.18,-72 959.01,-72 959.01,-108"/>
<text text-anchor="middle" x="899.09" y="-85.8" font-family="Times,serif" font-size="14.00">DTEL&#45;SYMSGID</text>
</a>
</g>
</g>
<!-- TABL&#45;BAPIALG&#45;&gt;DTEL&#45;SYMSGID -->
<g id="edge7" class="edge">
<title>TABL&#45;BAPIALG&#45;&gt;DTEL&#45;SYMSGID</title>
<path fill="none" stroke="black" d="M899.09,-143.7C899.09,-135.98 899.09,-126.71 899.09,-118.11"/>
<polygon fill="black" stroke="black" points="902.59,-118.1 899.09,-108.1 895.59,-118.1 902.59,-118.1"/>
</g>
<!-- DTEL&#45;BAPI_MTYPE -->
<g id="node16" class="node">
<title>DTEL&#45;BAPI_MTYPE</title>
<g id="a_node16"><a xlink:href="./DTEL_BAPI_MTYPE.html" xlink:title="DTEL&#45;BAPI_MTYPE">
<polygon fill="none" stroke="green" points="1119.34,-108 976.84,-108 976.84,-72 1119.34,-72 1119.34,-108"/>
<text text-anchor="middle" x="1048.09" y="-85.8" font-family="Times,serif" font-size="14.00">DTEL&#45;BAPI_MTYPE</text>
</a>
</g>
</g>
<!-- TABL&#45;BAPIALG&#45;&gt;DTEL&#45;BAPI_MTYPE -->
<g id="edge6" class="edge">
<title>TABL&#45;BAPIALG&#45;&gt;DTEL&#45;BAPI_MTYPE</title>
<path fill="none" stroke="black" d="M935.54,-143.88C955.73,-134.39 981.01,-122.51 1002.5,-112.42"/>
<polygon fill="black" stroke="black" points="1004.2,-115.49 1011.76,-108.07 1001.22,-109.15 1004.2,-115.49"/>
</g>
<!-- DTEL&#45;BALNREXT -->
<g id="node18" class="node">
<title>DTEL&#45;BALNREXT</title>
<g id="a_node18"><a xlink:href="./DTEL_BALNREXT.html" xlink:title="DTEL&#45;BALNREXT">
<polygon fill="none" stroke="yellow" points="1268.67,-108 1137.52,-108 1137.52,-72 1268.67,-72 1268.67,-108"/>
<text text-anchor="middle" x="1203.09" y="-85.8" font-family="Times,serif" font-size="14.00">DTEL&#45;BALNREXT</text>
</a>
</g>
</g>
<!-- TABL&#45;BAPIALG&#45;&gt;DTEL&#45;BALNREXT -->
<g id="edge5" class="edge">
<title>TABL&#45;BAPIALG&#45;&gt;DTEL&#45;BALNREXT</title>
<path fill="none" stroke="black" d="M958.07,-147.42C1006.41,-136.29 1075.14,-120.46 1127.51,-108.4"/>
<polygon fill="black" stroke="black" points="1128.47,-111.78 1137.43,-106.12 1126.9,-104.95 1128.47,-111.78"/>
</g>
<!-- DTEL&#45;BALSUBOBJ -->
<g id="node20" class="node">
<title>DTEL&#45;BALSUBOBJ</title>
<g id="a_node20"><a xlink:href="./DTEL_BALSUBOBJ.html" xlink:title="DTEL&#45;BALSUBOBJ">
<polygon fill="none" stroke="green" points="1423.13,-108 1287.06,-108 1287.06,-72 1423.13,-72 1423.13,-108"/>
<text text-anchor="middle" x="1355.09" y="-85.8" font-family="Times,serif" font-size="14.00">DTEL&#45;BALSUBOBJ</text>
</a>
</g>
</g>
<!-- TABL&#45;BAPIALG&#45;&gt;DTEL&#45;BALSUBOBJ -->
<g id="edge4" class="edge">
<title>TABL&#45;BAPIALG&#45;&gt;DTEL&#45;BALSUBOBJ</title>
<path fill="none" stroke="black" d="M958.08,-154.2C1030.77,-145.51 1158.25,-129.2 1276.74,-108.17"/>
<polygon fill="black" stroke="black" points="1277.49,-111.59 1286.71,-106.39 1276.25,-104.7 1277.49,-111.59"/>
</g>
<!-- DTEL&#45;BALOBJ_D -->
<g id="node22" class="node">
<title>DTEL&#45;BALOBJ_D</title>
<g id="a_node22"><a xlink:href="./DTEL_BALOBJ_D.html" xlink:title="DTEL&#45;BALOBJ_D">
<polygon fill="none" stroke="green" points="1567.51,-108 1440.68,-108 1440.68,-72 1567.51,-72 1567.51,-108"/>
<text text-anchor="middle" x="1504.09" y="-85.8" font-family="Times,serif" font-size="14.00">DTEL&#45;BALOBJ_D</text>
</a>
</g>
</g>
<!-- TABL&#45;BAPIALG&#45;&gt;DTEL&#45;BALOBJ_D -->
<g id="edge3" class="edge">
<title>TABL&#45;BAPIALG&#45;&gt;DTEL&#45;BALOBJ_D</title>
<path fill="none" stroke="black" d="M958.19,-157.69C1055.05,-151.71 1253.71,-137.09 1430.58,-108.14"/>
<polygon fill="black" stroke="black" points="1431.29,-111.57 1440.58,-106.48 1430.14,-104.66 1431.29,-111.57"/>
</g>
<!-- DTEL&#45;BALMNR -->
<g id="node24" class="node">
<title>DTEL&#45;BALMNR</title>
<g id="a_node24"><a xlink:href="./DTEL_BALMNR.html" xlink:title="DTEL&#45;BALMNR">
<polygon fill="none" stroke="green" points="1701.4,-108 1584.78,-108 1584.78,-72 1701.4,-72 1701.4,-108"/>
<text text-anchor="middle" x="1643.09" y="-85.8" font-family="Times,serif" font-size="14.00">DTEL&#45;BALMNR</text>
</a>
</g>
</g>
<!-- TABL&#45;BAPIALG&#45;&gt;DTEL&#45;BALMNR -->
<g id="edge2" class="edge">
<title>TABL&#45;BAPIALG&#45;&gt;DTEL&#45;BALMNR</title>
<path fill="none" stroke="black" d="M958.36,-159.75C1074.92,-156.55 1342.13,-145.6 1574.75,-108.06"/>
<polygon fill="black" stroke="black" points="1575.45,-111.49 1584.75,-106.43 1574.32,-104.58 1575.45,-111.49"/>
</g>
<!-- DTEL&#45;BALOGNR -->
<g id="node26" class="node">
<title>DTEL&#45;BALOGNR</title>
<g id="a_node26"><a xlink:href="./DTEL_BALOGNR.html" xlink:title="DTEL&#45;BALOGNR">
<polygon fill="none" stroke="green" points="1846.17,-108 1722.02,-108 1722.02,-72 1846.17,-72 1846.17,-108"/>
<text text-anchor="middle" x="1784.09" y="-85.8" font-family="Times,serif" font-size="14.00">DTEL&#45;BALOGNR</text>
</a>
</g>
</g>
<!-- TABL&#45;BAPIALG&#45;&gt;DTEL&#45;BALOGNR -->
<g id="edge1" class="edge">
<title>TABL&#45;BAPIALG&#45;&gt;DTEL&#45;BALOGNR</title>
<path fill="none" stroke="black" d="M958.2,-160.38C1092.52,-158.26 1430.7,-148.95 1710.09,-108 1710.7,-107.91 1711.32,-107.82 1711.93,-107.72"/>
<polygon fill="black" stroke="black" points="1712.77,-111.13 1722.05,-106.01 1711.61,-104.23 1712.77,-111.13"/>
</g>
<!-- DOMA&#45;XUBNAME -->
<g id="node3" class="node">
<title>DOMA&#45;XUBNAME</title>
<g id="a_node3"><a xlink:href="./DOMA_XUBNAME.html" xlink:title="DOMA&#45;XUBNAME">
<polygon fill="none" stroke="yellow" points="134.28,-36 -0.09,-36 -0.09,0 134.28,0 134.28,-36"/>
<text text-anchor="middle" x="67.09" y="-13.8" font-family="Times,serif" font-size="14.00">DOMA&#45;XUBNAME</text>
</a>
</g>
</g>
<!-- DTEL&#45;BALUSER&#45;&gt;DOMA&#45;XUBNAME -->
<g id="edge14" class="edge">
<title>DTEL&#45;BALUSER&#45;&gt;DOMA&#45;XUBNAME</title>
<path fill="none" stroke="black" d="M67.09,-71.7C67.09,-63.98 67.09,-54.71 67.09,-46.11"/>
<polygon fill="black" stroke="black" points="70.59,-46.1 67.09,-36.1 63.59,-46.1 70.59,-46.1"/>
</g>
<!-- DOMA&#45;UZEIT -->
<g id="node5" class="node">
<title>DOMA&#45;UZEIT</title>
<g id="a_node5"><a xlink:href="./DOMA_UZEIT.html" xlink:title="DOMA&#45;UZEIT">
<polygon fill="none" stroke="yellow" points="255.94,-36 152.24,-36 152.24,0 255.94,0 255.94,-36"/>
<text text-anchor="middle" x="204.09" y="-13.8" font-family="Times,serif" font-size="14.00">DOMA&#45;UZEIT</text>
</a>
</g>
</g>
<!-- DTEL&#45;BALTIME&#45;&gt;DOMA&#45;UZEIT -->
<g id="edge15" class="edge">
<title>DTEL&#45;BALTIME&#45;&gt;DOMA&#45;UZEIT</title>
<path fill="none" stroke="black" d="M204.09,-71.7C204.09,-63.98 204.09,-54.71 204.09,-46.11"/>
<polygon fill="black" stroke="black" points="207.59,-46.1 204.09,-36.1 200.59,-46.1 207.59,-46.1"/>
</g>
<!-- DOMA&#45;DATUM -->
<g id="node7" class="node">
<title>DOMA&#45;DATUM</title>
<g id="a_node7"><a xlink:href="./DOMA_DATUM.html" xlink:title="DOMA&#45;DATUM">
<polygon fill="none" stroke="yellow" points="388.33,-36 273.85,-36 273.85,0 388.33,0 388.33,-36"/>
<text text-anchor="middle" x="331.09" y="-13.8" font-family="Times,serif" font-size="14.00">DOMA&#45;DATUM</text>
</a>
</g>
</g>
<!-- DTEL&#45;BALDATE&#45;&gt;DOMA&#45;DATUM -->
<g id="edge16" class="edge">
<title>DTEL&#45;BALDATE&#45;&gt;DOMA&#45;DATUM</title>
<path fill="none" stroke="black" d="M339.37,-71.7C338.16,-63.98 336.7,-54.71 335.35,-46.11"/>
<polygon fill="black" stroke="black" points="338.79,-45.44 333.78,-36.1 331.88,-46.53 338.79,-45.44"/>
</g>
<!-- DOMA&#45;SYCHAR50 -->
<g id="node9" class="node">
<title>DOMA&#45;SYCHAR50</title>
<g id="a_node9"><a xlink:href="./DOMA_SYCHAR50.html" xlink:title="DOMA&#45;SYCHAR50">
<polygon fill="none" stroke="yellow" points="540.29,-36 405.89,-36 405.89,0 540.29,0 540.29,-36"/>
<text text-anchor="middle" x="473.09" y="-13.8" font-family="Times,serif" font-size="14.00">DOMA&#45;SYCHAR50</text>
</a>
</g>
</g>
<!-- DTEL&#45;SYMSGV&#45;&gt;DOMA&#45;SYCHAR50 -->
<g id="edge17" class="edge">
<title>DTEL&#45;SYMSGV&#45;&gt;DOMA&#45;SYCHAR50</title>
<path fill="none" stroke="black" d="M476.86,-71.7C476.31,-63.98 475.64,-54.71 475.03,-46.11"/>
<polygon fill="black" stroke="black" points="478.52,-45.83 474.31,-36.1 471.54,-46.33 478.52,-45.83"/>
</g>
<!-- DOMA&#45;TEXT220 -->
<g id="node11" class="node">
<title>DOMA&#45;TEXT220</title>
<g id="a_node11"><a xlink:href="./DOMA_TEXT220.html" xlink:title="DOMA&#45;TEXT220">
<polygon fill="none" stroke="yellow" points="678.28,-36 557.9,-36 557.9,0 678.28,0 678.28,-36"/>
<text text-anchor="middle" x="618.09" y="-13.8" font-family="Times,serif" font-size="14.00">DOMA&#45;TEXT220</text>
</a>
</g>
</g>
<!-- DTEL&#45;BAPI_MSG&#45;&gt;DOMA&#45;TEXT220 -->
<g id="edge18" class="edge">
<title>DTEL&#45;BAPI_MSG&#45;&gt;DOMA&#45;TEXT220</title>
<path fill="none" stroke="black" d="M616.59,-71.7C616.81,-63.98 617.07,-54.71 617.32,-46.11"/>
<polygon fill="black" stroke="black" points="620.82,-46.2 617.6,-36.1 613.82,-46 620.82,-46.2"/>
</g>
<!-- DOMA&#45;SYMSGNO -->
<g id="node13" class="node">
<title>DOMA&#45;SYMSGNO</title>
<g id="a_node13"><a xlink:href="./DOMA_SYMSGNO.html" xlink:title="DOMA&#45;SYMSGNO">
<polygon fill="none" stroke="yellow" points="827.95,-36 696.23,-36 696.23,0 827.95,0 827.95,-36"/>
<text text-anchor="middle" x="762.09" y="-13.8" font-family="Times,serif" font-size="14.00">DOMA&#45;SYMSGNO</text>
</a>
</g>
</g>
<!-- DTEL&#45;SYMSGNO&#45;&gt;DOMA&#45;SYMSGNO -->
<g id="edge19" class="edge">
<title>DTEL&#45;SYMSGNO&#45;&gt;DOMA&#45;SYMSGNO</title>
<path fill="none" stroke="black" d="M759.83,-71.7C760.16,-63.98 760.56,-54.71 760.93,-46.11"/>
<polygon fill="black" stroke="black" points="764.43,-46.25 761.36,-36.1 757.43,-45.95 764.43,-46.25"/>
</g>
<!-- DOMA&#45;ARBGB -->
<g id="node15" class="node">
<title>DOMA&#45;ARBGB</title>
<g id="a_node15"><a xlink:href="./DOMA_ARBGB.html" xlink:title="DOMA&#45;ARBGB">
<polygon fill="none" stroke="yellow" points="957.74,-36 846.44,-36 846.44,0 957.74,0 957.74,-36"/>
<text text-anchor="middle" x="902.09" y="-13.8" font-family="Times,serif" font-size="14.00">DOMA&#45;ARBGB</text>
</a>
</g>
</g>
<!-- DTEL&#45;SYMSGID&#45;&gt;DOMA&#45;ARBGB -->
<g id="edge20" class="edge">
<title>DTEL&#45;SYMSGID&#45;&gt;DOMA&#45;ARBGB</title>
<path fill="none" stroke="black" d="M899.83,-71.7C900.16,-63.98 900.56,-54.71 900.93,-46.11"/>
<polygon fill="black" stroke="black" points="904.43,-46.25 901.36,-36.1 897.43,-45.95 904.43,-46.25"/>
</g>
<!-- DOMA&#45;SYCHAR01 -->
<g id="node17" class="node">
<title>DOMA&#45;SYCHAR01</title>
<g id="a_node17"><a xlink:href="./DOMA_SYCHAR01.html" xlink:title="DOMA&#45;SYCHAR01">
<polygon fill="none" stroke="yellow" points="1110.29,-36 975.89,-36 975.89,0 1110.29,0 1110.29,-36"/>
<text text-anchor="middle" x="1043.09" y="-13.8" font-family="Times,serif" font-size="14.00">DOMA&#45;SYCHAR01</text>
</a>
</g>
</g>
<!-- DTEL&#45;BAPI_MTYPE&#45;&gt;DOMA&#45;SYCHAR01 -->
<g id="edge21" class="edge">
<title>DTEL&#45;BAPI_MTYPE&#45;&gt;DOMA&#45;SYCHAR01</title>
<path fill="none" stroke="black" d="M1046.86,-71.7C1046.31,-63.98 1045.64,-54.71 1045.03,-46.11"/>
<polygon fill="black" stroke="black" points="1048.52,-45.83 1044.31,-36.1 1041.54,-46.33 1048.52,-45.83"/>
</g>
<!-- DOMA&#45;BALNREXT -->
<g id="node19" class="node">
<title>DOMA&#45;BALNREXT</title>
<g id="a_node19"><a xlink:href="./DOMA_BALNREXT.html" xlink:title="DOMA&#45;BALNREXT">
<polygon fill="none" stroke="yellow" points="1266.17,-36 1128.02,-36 1128.02,0 1266.17,0 1266.17,-36"/>
<text text-anchor="middle" x="1197.09" y="-13.8" font-family="Times,serif" font-size="14.00">DOMA&#45;BALNREXT</text>
</a>
</g>
</g>
<!-- DTEL&#45;BALNREXT&#45;&gt;DOMA&#45;BALNREXT -->
<g id="edge22" class="edge">
<title>DTEL&#45;BALNREXT&#45;&gt;DOMA&#45;BALNREXT</title>
<path fill="none" stroke="black" d="M1201.61,-71.7C1200.95,-63.98 1200.15,-54.71 1199.42,-46.11"/>
<polygon fill="black" stroke="black" points="1202.9,-45.77 1198.56,-36.1 1195.93,-46.37 1202.9,-45.77"/>
</g>
<!-- DOMA&#45;BALSUBOBJ -->
<g id="node21" class="node">
<title>DOMA&#45;BALSUBOBJ</title>
<g id="a_node21"><a xlink:href="./DOMA_BALSUBOBJ.html" xlink:title="DOMA&#45;BALSUBOBJ">
<polygon fill="none" stroke="yellow" points="1427.63,-36 1284.56,-36 1284.56,0 1427.63,0 1427.63,-36"/>
<text text-anchor="middle" x="1356.09" y="-13.8" font-family="Times,serif" font-size="14.00">DOMA&#45;BALSUBOBJ</text>
</a>
</g>
</g>
<!-- DTEL&#45;BALSUBOBJ&#45;&gt;DOMA&#45;BALSUBOBJ -->
<g id="edge23" class="edge">
<title>DTEL&#45;BALSUBOBJ&#45;&gt;DOMA&#45;BALSUBOBJ</title>
<path fill="none" stroke="black" d="M1355.34,-71.7C1355.45,-63.98 1355.58,-54.71 1355.71,-46.11"/>
<polygon fill="black" stroke="black" points="1359.2,-46.15 1355.85,-36.1 1352.21,-46.05 1359.2,-46.15"/>
</g>
<!-- DOMA&#45;BALOBJ -->
<g id="node23" class="node">
<title>DOMA&#45;BALOBJ</title>
<g id="a_node23"><a xlink:href="./DOMA_BALOBJ.html" xlink:title="DOMA&#45;BALOBJ">
<polygon fill="none" stroke="yellow" points="1562.4,-36 1445.78,-36 1445.78,0 1562.4,0 1562.4,-36"/>
<text text-anchor="middle" x="1504.09" y="-13.8" font-family="Times,serif" font-size="14.00">DOMA&#45;BALOBJ</text>
</a>
</g>
</g>
<!-- DTEL&#45;BALOBJ_D&#45;&gt;DOMA&#45;BALOBJ -->
<g id="edge24" class="edge">
<title>DTEL&#45;BALOBJ_D&#45;&gt;DOMA&#45;BALOBJ</title>
<path fill="none" stroke="black" d="M1504.09,-71.7C1504.09,-63.98 1504.09,-54.71 1504.09,-46.11"/>
<polygon fill="black" stroke="black" points="1507.59,-46.1 1504.09,-36.1 1500.59,-46.1 1507.59,-46.1"/>
</g>
<!-- DOMA&#45;BALMNR -->
<g id="node25" class="node">
<title>DOMA&#45;BALMNR</title>
<g id="a_node25"><a xlink:href="./DOMA_BALMNR.html" xlink:title="DOMA&#45;BALMNR">
<polygon fill="none" stroke="yellow" points="1703.9,-36 1580.28,-36 1580.28,0 1703.9,0 1703.9,-36"/>
<text text-anchor="middle" x="1642.09" y="-13.8" font-family="Times,serif" font-size="14.00">DOMA&#45;BALMNR</text>
</a>
</g>
</g>
<!-- DTEL&#45;BALMNR&#45;&gt;DOMA&#45;BALMNR -->
<g id="edge25" class="edge">
<title>DTEL&#45;BALMNR&#45;&gt;DOMA&#45;BALMNR</title>
<path fill="none" stroke="black" d="M1642.85,-71.7C1642.74,-63.98 1642.6,-54.71 1642.48,-46.11"/>
<polygon fill="black" stroke="black" points="1645.98,-46.05 1642.34,-36.1 1638.98,-46.15 1645.98,-46.05"/>
</g>
<!-- DOMA&#45;BALOGNR -->
<g id="node27" class="node">
<title>DOMA&#45;BALOGNR</title>
<g id="a_node27"><a xlink:href="./DOMA_BALOGNR.html" xlink:title="DOMA&#45;BALOGNR">
<polygon fill="none" stroke="yellow" points="1852.67,-36 1721.52,-36 1721.52,0 1852.67,0 1852.67,-36"/>
<text text-anchor="middle" x="1787.09" y="-13.8" font-family="Times,serif" font-size="14.00">DOMA&#45;BALOGNR</text>
</a>
</g>
</g>
<!-- DTEL&#45;BALOGNR&#45;&gt;DOMA&#45;BALOGNR -->
<g id="edge26" class="edge">
<title>DTEL&#45;BALOGNR&#45;&gt;DOMA&#45;BALOGNR</title>
<path fill="none" stroke="black" d="M1784.83,-71.7C1785.16,-63.98 1785.56,-54.71 1785.93,-46.11"/>
<polygon fill="black" stroke="black" points="1789.43,-46.25 1786.36,-36.1 1782.43,-45.95 1789.43,-46.25"/>
</g>
</g>
</svg>
