<?xml version="1.0" encoding="UTF-8" standalone="no"?>
<!DOCTYPE svg PUBLIC "-//W3C//DTD SVG 1.1//EN"
 "http://www.w3.org/Graphics/SVG/1.1/DTD/svg11.dtd">
<!-- Generated by graphviz version 2.47.3 (20210619.1520)
 -->
<!-- Title: G Pages: 1 -->
<svg width="2366pt" height="260pt"
 viewBox="0.00 0.00 2366.36 260.00" xmlns="http://www.w3.org/2000/svg" xmlns:xlink="http://www.w3.org/1999/xlink">
<g id="graph0" class="graph" transform="scale(1 1) rotate(0) translate(4 256)">
<title>G</title>
<polygon fill="white" stroke="transparent" points="-4,4 -4,-256 2362.36,-256 2362.36,4 -4,4"/>
<!-- TABL&#45;ISAPS_COM_CA_APIKEY_TP_D -->
<g id="node1" class="node">
<title>TABL&#45;ISAPS_COM_CA_APIKEY_TP_D</title>
<polygon fill="none" stroke="yellow" points="1077.84,-252 818.01,-252 818.01,-216 1077.84,-216 1077.84,-252"/>
<text text-anchor="middle" x="947.93" y="-229.8" font-family="Times,serif" font-size="14.00">TABL&#45;ISAPS_COM_CA_APIKEY_TP_D</text>
</g>
<!-- DTEL&#45;SDRAFT_IS_ACTIVE -->
<g id="node2" class="node">
<title>DTEL&#45;SDRAFT_IS_ACTIVE</title>
<g id="a_node2"><a xlink:href="./DTEL_SDRAFT_IS_ACTIVE.html" xlink:title="DTEL&#45;SDRAFT_IS_ACTIVE">
<polygon fill="none" stroke="yellow" points="187.78,-180 0.07,-180 0.07,-144 187.78,-144 187.78,-180"/>
<text text-anchor="middle" x="93.93" y="-157.8" font-family="Times,serif" font-size="14.00">DTEL&#45;SDRAFT_IS_ACTIVE</text>
</a>
</g>
</g>
<!-- TABL&#45;ISAPS_COM_CA_APIKEY_TP_D&#45;&gt;DTEL&#45;SDRAFT_IS_ACTIVE -->
<g id="edge8" class="edge">
<title>TABL&#45;ISAPS_COM_CA_APIKEY_TP_D&#45;&gt;DTEL&#45;SDRAFT_IS_ACTIVE</title>
<path fill="none" stroke="black" d="M818,-224.01C679.42,-214.19 453.54,-197.51 258.93,-180 239.3,-178.23 218.37,-176.2 198.24,-174.16"/>
<polygon fill="black" stroke="black" points="198.42,-170.66 188.12,-173.13 197.71,-177.63 198.42,-170.66"/>
</g>
<!-- TABL&#45;SDRAFT_WRITE_DRAFT_ADMIN -->
<g id="node4" class="node">
<title>TABL&#45;SDRAFT_WRITE_DRAFT_ADMIN</title>
<g id="a_node4"><a xlink:href="./TABL_SDRAFT_WRITE_DRAFT_ADMIN.html" xlink:title="TABL&#45;SDRAFT_WRITE_DRAFT_ADMIN">
<polygon fill="none" stroke="yellow" points="959.43,-180 690.42,-180 690.42,-144 959.43,-144 959.43,-180"/>
<text text-anchor="middle" x="824.93" y="-157.8" font-family="Times,serif" font-size="14.00">TABL&#45;SDRAFT_WRITE_DRAFT_ADMIN</text>
</a>
</g>
</g>
<!-- TABL&#45;ISAPS_COM_CA_APIKEY_TP_D&#45;&gt;TABL&#45;SDRAFT_WRITE_DRAFT_ADMIN -->
<g id="edge7" class="edge">
<title>TABL&#45;ISAPS_COM_CA_APIKEY_TP_D&#45;&gt;TABL&#45;SDRAFT_WRITE_DRAFT_ADMIN</title>
<path fill="none" stroke="black" d="M917.84,-215.88C901.61,-206.64 881.38,-195.13 863.95,-185.21"/>
<polygon fill="black" stroke="black" points="865.55,-182.09 855.13,-180.19 862.09,-188.18 865.55,-182.09"/>
</g>
<!-- DTEL&#45;SDRAFT_HAS_ACTIVE -->
<g id="node14" class="node">
<title>DTEL&#45;SDRAFT_HAS_ACTIVE</title>
<g id="a_node14"><a xlink:href="./DTEL_SDRAFT_HAS_ACTIVE.html" xlink:title="DTEL&#45;SDRAFT_HAS_ACTIVE">
<polygon fill="none" stroke="yellow" points="471.83,-180 268.02,-180 268.02,-144 471.83,-144 471.83,-180"/>
<text text-anchor="middle" x="369.93" y="-157.8" font-family="Times,serif" font-size="14.00">DTEL&#45;SDRAFT_HAS_ACTIVE</text>
</a>
</g>
</g>
<!-- TABL&#45;ISAPS_COM_CA_APIKEY_TP_D&#45;&gt;DTEL&#45;SDRAFT_HAS_ACTIVE -->
<g id="edge6" class="edge">
<title>TABL&#45;ISAPS_COM_CA_APIKEY_TP_D&#45;&gt;DTEL&#45;SDRAFT_HAS_ACTIVE</title>
<path fill="none" stroke="black" d="M818.21,-217.29C717.11,-205.05 578.19,-188.22 481.91,-176.56"/>
<polygon fill="black" stroke="black" points="482.2,-173.07 471.85,-175.34 481.35,-180.02 482.2,-173.07"/>
</g>
<!-- DTEL&#45;/BOBF/UUID -->
<g id="node15" class="node">
<title>DTEL&#45;/BOBF/UUID</title>
<g id="a_node15"><a xlink:href="./DTEL_%23BOBF%23UUID.html" xlink:title="DTEL&#45;/BOBF/UUID">
<polygon fill="none" stroke="yellow" points="656.67,-180 521.18,-180 521.18,-144 656.67,-144 656.67,-180"/>
<text text-anchor="middle" x="588.93" y="-157.8" font-family="Times,serif" font-size="14.00">DTEL&#45;/BOBF/UUID</text>
</a>
</g>
</g>
<!-- TABL&#45;ISAPS_COM_CA_APIKEY_TP_D&#45;&gt;DTEL&#45;/BOBF/UUID -->
<g id="edge5" class="edge">
<title>TABL&#45;ISAPS_COM_CA_APIKEY_TP_D&#45;&gt;DTEL&#45;/BOBF/UUID</title>
<path fill="none" stroke="black" d="M860.56,-215.97C801.43,-204.44 724,-189.34 666.95,-178.21"/>
<polygon fill="black" stroke="black" points="667.38,-174.73 656.9,-176.25 666.04,-181.6 667.38,-174.73"/>
</g>
<!-- DTEL&#45;APS_COM_CSCN_ID -->
<g id="node16" class="node">
<title>DTEL&#45;APS_COM_CSCN_ID</title>
<g id="a_node16"><a xlink:href="./DTEL_APS_COM_CSCN_ID.html" xlink:title="DTEL&#45;APS_COM_CSCN_ID">
<polygon fill="none" stroke="yellow" points="1333.24,-180 1146.61,-180 1146.61,-144 1333.24,-144 1333.24,-180"/>
<text text-anchor="middle" x="1239.93" y="-157.8" font-family="Times,serif" font-size="14.00">DTEL&#45;APS_COM_CSCN_ID</text>
</a>
</g>
</g>
<!-- TABL&#45;ISAPS_COM_CA_APIKEY_TP_D&#45;&gt;DTEL&#45;APS_COM_CSCN_ID -->
<g id="edge4" class="edge">
<title>TABL&#45;ISAPS_COM_CA_APIKEY_TP_D&#45;&gt;DTEL&#45;APS_COM_CSCN_ID</title>
<path fill="none" stroke="black" d="M1018.98,-215.97C1061.28,-205.83 1115.09,-192.93 1159.02,-182.4"/>
<polygon fill="black" stroke="black" points="1159.89,-185.78 1168.8,-180.05 1158.26,-178.98 1159.89,-185.78"/>
</g>
<!-- DTEL&#45;APS_CA_API_KEY_REFERENCE -->
<g id="node18" class="node">
<title>DTEL&#45;APS_CA_API_KEY_REFERENCE</title>
<g id="a_node18"><a xlink:href="./DTEL_APS_CA_API_KEY_REFERENCE.html" xlink:title="DTEL&#45;APS_CA_API_KEY_REFERENCE">
<polygon fill="none" stroke="yellow" points="1697.39,-180 1436.46,-180 1436.46,-144 1697.39,-144 1697.39,-180"/>
<text text-anchor="middle" x="1566.93" y="-157.8" font-family="Times,serif" font-size="14.00">DTEL&#45;APS_CA_API_KEY_REFERENCE</text>
</a>
</g>
</g>
<!-- TABL&#45;ISAPS_COM_CA_APIKEY_TP_D&#45;&gt;DTEL&#45;APS_CA_API_KEY_REFERENCE -->
<g id="edge3" class="edge">
<title>TABL&#45;ISAPS_COM_CA_APIKEY_TP_D&#45;&gt;DTEL&#45;APS_CA_API_KEY_REFERENCE</title>
<path fill="none" stroke="black" d="M1077.69,-218.33C1179.69,-206.79 1321.55,-190.75 1426.25,-178.91"/>
<polygon fill="black" stroke="black" points="1426.73,-182.38 1436.27,-177.78 1425.94,-175.42 1426.73,-182.38"/>
</g>
<!-- DTEL&#45;APS_COM_CSCN_PROPERTY_VALUE -->
<g id="node20" class="node">
<title>DTEL&#45;APS_COM_CSCN_PROPERTY_VALUE</title>
<g id="a_node20"><a xlink:href="./DTEL_APS_COM_CSCN_PROPERTY_VALUE.html" xlink:title="DTEL&#45;APS_COM_CSCN_PROPERTY_VALUE">
<polygon fill="none" stroke="yellow" points="2054.45,-180 1757.4,-180 1757.4,-144 2054.45,-144 2054.45,-180"/>
<text text-anchor="middle" x="1905.93" y="-157.8" font-family="Times,serif" font-size="14.00">DTEL&#45;APS_COM_CSCN_PROPERTY_VALUE</text>
</a>
</g>
</g>
<!-- TABL&#45;ISAPS_COM_CA_APIKEY_TP_D&#45;&gt;DTEL&#45;APS_COM_CSCN_PROPERTY_VALUE -->
<g id="edge2" class="edge">
<title>TABL&#45;ISAPS_COM_CA_APIKEY_TP_D&#45;&gt;DTEL&#45;APS_COM_CSCN_PROPERTY_VALUE</title>
<path fill="none" stroke="black" d="M1077.74,-224.52C1228.72,-214.51 1485.46,-197.08 1705.93,-180 1719.28,-178.97 1733.12,-177.86 1747.02,-176.73"/>
<polygon fill="black" stroke="black" points="1747.46,-180.2 1757.14,-175.9 1746.89,-173.22 1747.46,-180.2"/>
</g>
<!-- DTEL&#45;APS_COM_CSCN_PROPERTY_ID -->
<g id="node22" class="node">
<title>DTEL&#45;APS_COM_CSCN_PROPERTY_ID</title>
<g id="a_node22"><a xlink:href="./DTEL_APS_COM_CSCN_PROPERTY_ID.html" xlink:title="DTEL&#45;APS_COM_CSCN_PROPERTY_ID">
<polygon fill="none" stroke="yellow" points="2358.3,-180 2093.55,-180 2093.55,-144 2358.3,-144 2358.3,-180"/>
<text text-anchor="middle" x="2225.93" y="-157.8" font-family="Times,serif" font-size="14.00">DTEL&#45;APS_COM_CSCN_PROPERTY_ID</text>
</a>
</g>
</g>
<!-- TABL&#45;ISAPS_COM_CA_APIKEY_TP_D&#45;&gt;DTEL&#45;APS_COM_CSCN_PROPERTY_ID -->
<g id="edge1" class="edge">
<title>TABL&#45;ISAPS_COM_CA_APIKEY_TP_D&#45;&gt;DTEL&#45;APS_COM_CSCN_PROPERTY_ID</title>
<path fill="none" stroke="black" d="M1077.8,-229.24C1286.08,-222.67 1707.57,-207.14 2063.93,-180 2070.22,-179.52 2076.64,-179 2083.13,-178.44"/>
<polygon fill="black" stroke="black" points="2083.72,-181.9 2093.37,-177.53 2083.1,-174.93 2083.72,-181.9"/>
</g>
<!-- DOMA&#45;BOOLE -->
<g id="node3" class="node">
<title>DOMA&#45;BOOLE</title>
<g id="a_node3"><a xlink:href="./DOMA_BOOLE.html" xlink:title="DOMA&#45;BOOLE">
<polygon fill="none" stroke="yellow" points="122.01,-108 11.85,-108 11.85,-72 122.01,-72 122.01,-108"/>
<text text-anchor="middle" x="66.93" y="-85.8" font-family="Times,serif" font-size="14.00">DOMA&#45;BOOLE</text>
</a>
</g>
</g>
<!-- DTEL&#45;SDRAFT_IS_ACTIVE&#45;&gt;DOMA&#45;BOOLE -->
<g id="edge9" class="edge">
<title>DTEL&#45;SDRAFT_IS_ACTIVE&#45;&gt;DOMA&#45;BOOLE</title>
<path fill="none" stroke="black" d="M87.25,-143.7C84.21,-135.81 80.54,-126.3 77.17,-117.55"/>
<polygon fill="black" stroke="black" points="80.39,-116.17 73.52,-108.1 73.86,-118.69 80.39,-116.17"/>
</g>
<!-- DTEL&#45;SDRAFT_OPERATION_CODE -->
<g id="node5" class="node">
<title>DTEL&#45;SDRAFT_OPERATION_CODE</title>
<g id="a_node5"><a xlink:href="./DTEL_SDRAFT_OPERATION_CODE.html" xlink:title="DTEL&#45;SDRAFT_OPERATION_CODE">
<polygon fill="none" stroke="yellow" points="934.43,-108 693.42,-108 693.42,-72 934.43,-72 934.43,-108"/>
<text text-anchor="middle" x="813.93" y="-85.8" font-family="Times,serif" font-size="14.00">DTEL&#45;SDRAFT_OPERATION_CODE</text>
</a>
</g>
</g>
<!-- TABL&#45;SDRAFT_WRITE_DRAFT_ADMIN&#45;&gt;DTEL&#45;SDRAFT_OPERATION_CODE -->
<g id="edge14" class="edge">
<title>TABL&#45;SDRAFT_WRITE_DRAFT_ADMIN&#45;&gt;DTEL&#45;SDRAFT_OPERATION_CODE</title>
<path fill="none" stroke="black" d="M822.21,-143.7C820.99,-135.98 819.54,-126.71 818.19,-118.11"/>
<polygon fill="black" stroke="black" points="821.62,-117.44 816.61,-108.1 814.71,-118.53 821.62,-117.44"/>
</g>
<!-- DTEL&#45;SDRAFT_CONSISTENCY_STATUS -->
<g id="node7" class="node">
<title>DTEL&#45;SDRAFT_CONSISTENCY_STATUS</title>
<g id="a_node7"><a xlink:href="./DTEL_SDRAFT_CONSISTENCY_STATUS.html" xlink:title="DTEL&#45;SDRAFT_CONSISTENCY_STATUS">
<polygon fill="none" stroke="yellow" points="675.83,-108 402.02,-108 402.02,-72 675.83,-72 675.83,-108"/>
<text text-anchor="middle" x="538.93" y="-85.8" font-family="Times,serif" font-size="14.00">DTEL&#45;SDRAFT_CONSISTENCY_STATUS</text>
</a>
</g>
</g>
<!-- TABL&#45;SDRAFT_WRITE_DRAFT_ADMIN&#45;&gt;DTEL&#45;SDRAFT_CONSISTENCY_STATUS -->
<g id="edge13" class="edge">
<title>TABL&#45;SDRAFT_WRITE_DRAFT_ADMIN&#45;&gt;DTEL&#45;SDRAFT_CONSISTENCY_STATUS</title>
<path fill="none" stroke="black" d="M755.33,-143.97C714.06,-133.87 661.61,-121.03 618.68,-110.52"/>
<polygon fill="black" stroke="black" points="619.38,-107.09 608.84,-108.11 617.72,-113.89 619.38,-107.09"/>
</g>
<!-- DTEL&#45;SDRAFT_ADMIN_UUID -->
<g id="node9" class="node">
<title>DTEL&#45;SDRAFT_ADMIN_UUID</title>
<g id="a_node9"><a xlink:href="./DTEL_SDRAFT_ADMIN_UUID.html" xlink:title="DTEL&#45;SDRAFT_ADMIN_UUID">
<polygon fill="none" stroke="yellow" points="384.42,-108 177.43,-108 177.43,-72 384.42,-72 384.42,-108"/>
<text text-anchor="middle" x="280.93" y="-85.8" font-family="Times,serif" font-size="14.00">DTEL&#45;SDRAFT_ADMIN_UUID</text>
</a>
</g>
</g>
<!-- TABL&#45;SDRAFT_WRITE_DRAFT_ADMIN&#45;&gt;DTEL&#45;SDRAFT_ADMIN_UUID -->
<g id="edge12" class="edge">
<title>TABL&#45;SDRAFT_WRITE_DRAFT_ADMIN&#45;&gt;DTEL&#45;SDRAFT_ADMIN_UUID</title>
<path fill="none" stroke="black" d="M690.05,-145.46C607.44,-135.7 499.31,-122.49 394.48,-108.19"/>
<polygon fill="black" stroke="black" points="394.73,-104.7 384.35,-106.81 393.78,-111.63 394.73,-104.7"/>
</g>
<!-- DTEL&#45;SDRAFT_LAST_CHANGED_AT -->
<g id="node11" class="node">
<title>DTEL&#45;SDRAFT_LAST_CHANGED_AT</title>
<g id="a_node11"><a xlink:href="./DTEL_SDRAFT_LAST_CHANGED_AT.html" xlink:title="DTEL&#45;SDRAFT_LAST_CHANGED_AT">
<polygon fill="none" stroke="yellow" points="1430.59,-108 1177.26,-108 1177.26,-72 1430.59,-72 1430.59,-108"/>
<text text-anchor="middle" x="1303.93" y="-85.8" font-family="Times,serif" font-size="14.00">DTEL&#45;SDRAFT_LAST_CHANGED_AT</text>
</a>
</g>
</g>
<!-- TABL&#45;SDRAFT_WRITE_DRAFT_ADMIN&#45;&gt;DTEL&#45;SDRAFT_LAST_CHANGED_AT -->
<g id="edge11" class="edge">
<title>TABL&#45;SDRAFT_WRITE_DRAFT_ADMIN&#45;&gt;DTEL&#45;SDRAFT_LAST_CHANGED_AT</title>
<path fill="none" stroke="black" d="M941.49,-143.97C1012.77,-133.55 1103.98,-120.22 1177.07,-109.54"/>
<polygon fill="black" stroke="black" points="1177.87,-112.96 1187.25,-108.05 1176.85,-106.03 1177.87,-112.96"/>
</g>
<!-- DTEL&#45;SDRAFT_CREATED_AT -->
<g id="node13" class="node">
<title>DTEL&#45;SDRAFT_CREATED_AT</title>
<g id="a_node13"><a xlink:href="./DTEL_SDRAFT_CREATED_AT.html" xlink:title="DTEL&#45;SDRAFT_CREATED_AT">
<polygon fill="none" stroke="yellow" points="1159.72,-108 952.13,-108 952.13,-72 1159.72,-72 1159.72,-108"/>
<text text-anchor="middle" x="1055.93" y="-85.8" font-family="Times,serif" font-size="14.00">DTEL&#45;SDRAFT_CREATED_AT</text>
</a>
</g>
</g>
<!-- TABL&#45;SDRAFT_WRITE_DRAFT_ADMIN&#45;&gt;DTEL&#45;SDRAFT_CREATED_AT -->
<g id="edge10" class="edge">
<title>TABL&#45;SDRAFT_WRITE_DRAFT_ADMIN&#45;&gt;DTEL&#45;SDRAFT_CREATED_AT</title>
<path fill="none" stroke="black" d="M881.14,-143.97C913.84,-134.06 955.23,-121.51 989.53,-111.12"/>
<polygon fill="black" stroke="black" points="990.9,-114.36 999.46,-108.11 988.87,-107.66 990.9,-114.36"/>
</g>
<!-- DOMA&#45;SDRAFT_OPERATION_CODE -->
<g id="node6" class="node">
<title>DOMA&#45;SDRAFT_OPERATION_CODE</title>
<g id="a_node6"><a xlink:href="./DOMA_SDRAFT_OPERATION_CODE.html" xlink:title="DOMA&#45;SDRAFT_OPERATION_CODE">
<polygon fill="none" stroke="yellow" points="940.93,-36 692.92,-36 692.92,0 940.93,0 940.93,-36"/>
<text text-anchor="middle" x="816.93" y="-13.8" font-family="Times,serif" font-size="14.00">DOMA&#45;SDRAFT_OPERATION_CODE</text>
</a>
</g>
</g>
<!-- DTEL&#45;SDRAFT_OPERATION_CODE&#45;&gt;DOMA&#45;SDRAFT_OPERATION_CODE -->
<g id="edge15" class="edge">
<title>DTEL&#45;SDRAFT_OPERATION_CODE&#45;&gt;DOMA&#45;SDRAFT_OPERATION_CODE</title>
<path fill="none" stroke="black" d="M814.67,-71.7C815,-63.98 815.4,-54.71 815.76,-46.11"/>
<polygon fill="black" stroke="black" points="819.26,-46.25 816.19,-36.1 812.27,-45.95 819.26,-46.25"/>
</g>
<!-- DOMA&#45;SDRAFT_CONSISTENCY_STATUS -->
<g id="node8" class="node">
<title>DOMA&#45;SDRAFT_CONSISTENCY_STATUS</title>
<g id="a_node8"><a xlink:href="./DOMA_SDRAFT_CONSISTENCY_STATUS.html" xlink:title="DOMA&#45;SDRAFT_CONSISTENCY_STATUS">
<polygon fill="none" stroke="yellow" points="675.33,-36 394.52,-36 394.52,0 675.33,0 675.33,-36"/>
<text text-anchor="middle" x="534.93" y="-13.8" font-family="Times,serif" font-size="14.00">DOMA&#45;SDRAFT_CONSISTENCY_STATUS</text>
</a>
</g>
</g>
<!-- DTEL&#45;SDRAFT_CONSISTENCY_STATUS&#45;&gt;DOMA&#45;SDRAFT_CONSISTENCY_STATUS -->
<g id="edge16" class="edge">
<title>DTEL&#45;SDRAFT_CONSISTENCY_STATUS&#45;&gt;DOMA&#45;SDRAFT_CONSISTENCY_STATUS</title>
<path fill="none" stroke="black" d="M537.94,-71.7C537.5,-63.98 536.97,-54.71 536.47,-46.11"/>
<polygon fill="black" stroke="black" points="539.97,-45.89 535.9,-36.1 532.98,-46.29 539.97,-45.89"/>
</g>
<!-- DOMA&#45;SYSUUID -->
<g id="node10" class="node">
<title>DOMA&#45;SYSUUID</title>
<g id="a_node10"><a xlink:href="./DOMA_SYSUUID.html" xlink:title="DOMA&#45;SYSUUID">
<polygon fill="none" stroke="yellow" points="278,-36 153.85,-36 153.85,0 278,0 278,-36"/>
<text text-anchor="middle" x="215.93" y="-13.8" font-family="Times,serif" font-size="14.00">DOMA&#45;SYSUUID</text>
</a>
</g>
</g>
<!-- DTEL&#45;SDRAFT_ADMIN_UUID&#45;&gt;DOMA&#45;SYSUUID -->
<g id="edge17" class="edge">
<title>DTEL&#45;SDRAFT_ADMIN_UUID&#45;&gt;DOMA&#45;SYSUUID</title>
<path fill="none" stroke="black" d="M264.86,-71.7C256.99,-63.22 247.37,-52.86 238.75,-43.58"/>
<polygon fill="black" stroke="black" points="241.18,-41.05 231.81,-36.1 236.05,-45.81 241.18,-41.05"/>
</g>
<!-- DOMA&#45;TZNTSTMPL -->
<g id="node12" class="node">
<title>DOMA&#45;TZNTSTMPL</title>
<g id="a_node12"><a xlink:href="./DOMA_TZNTSTMPL.html" xlink:title="DOMA&#45;TZNTSTMPL">
<polygon fill="none" stroke="yellow" points="1252.23,-36 1107.62,-36 1107.62,0 1252.23,0 1252.23,-36"/>
<text text-anchor="middle" x="1179.93" y="-13.8" font-family="Times,serif" font-size="14.00">DOMA&#45;TZNTSTMPL</text>
</a>
</g>
</g>
<!-- DTEL&#45;SDRAFT_LAST_CHANGED_AT&#45;&gt;DOMA&#45;TZNTSTMPL -->
<g id="edge18" class="edge">
<title>DTEL&#45;SDRAFT_LAST_CHANGED_AT&#45;&gt;DOMA&#45;TZNTSTMPL</title>
<path fill="none" stroke="black" d="M1273.59,-71.88C1257.23,-62.64 1236.84,-51.13 1219.27,-41.21"/>
<polygon fill="black" stroke="black" points="1220.8,-38.06 1210.38,-36.19 1217.36,-44.15 1220.8,-38.06"/>
</g>
<!-- DTEL&#45;SDRAFT_CREATED_AT&#45;&gt;DOMA&#45;TZNTSTMPL -->
<g id="edge19" class="edge">
<title>DTEL&#45;SDRAFT_CREATED_AT&#45;&gt;DOMA&#45;TZNTSTMPL</title>
<path fill="none" stroke="black" d="M1086.26,-71.88C1102.62,-62.64 1123.01,-51.13 1140.58,-41.21"/>
<polygon fill="black" stroke="black" points="1142.49,-44.15 1149.48,-36.19 1139.05,-38.06 1142.49,-44.15"/>
</g>
<!-- DTEL&#45;SDRAFT_HAS_ACTIVE&#45;&gt;DOMA&#45;BOOLE -->
<g id="edge20" class="edge">
<title>DTEL&#45;SDRAFT_HAS_ACTIVE&#45;&gt;DOMA&#45;BOOLE</title>
<path fill="none" stroke="black" d="M293.17,-144C247.46,-133.78 188.32,-120.39 135.93,-108 134.68,-107.7 133.41,-107.41 132.14,-107.1"/>
<polygon fill="black" stroke="black" points="132.81,-103.66 122.27,-104.73 131.17,-110.47 132.81,-103.66"/>
</g>
<!-- DTEL&#45;/BOBF/UUID&#45;&gt;DOMA&#45;SYSUUID -->
<g id="edge21" class="edge">
<title>DTEL&#45;/BOBF/UUID&#45;&gt;DOMA&#45;SYSUUID</title>
<path fill="none" stroke="black" d="M521.01,-149.87C507.73,-147.82 493.9,-145.77 480.93,-144 411.77,-134.57 215.36,-160.1 168.93,-108 151.89,-88.88 169.76,-62.49 188.15,-43.41"/>
<polygon fill="black" stroke="black" points="190.77,-45.75 195.43,-36.24 185.85,-40.77 190.77,-45.75"/>
</g>
<!-- DOMA&#45;APS_COM_CSCN_ID -->
<g id="node17" class="node">
<title>DOMA&#45;APS_COM_CSCN_ID</title>
<g id="a_node17"><a xlink:href="./DOMA_APS_COM_CSCN_ID.html" xlink:title="DOMA&#45;APS_COM_CSCN_ID">
<polygon fill="none" stroke="yellow" points="1641.74,-108 1448.11,-108 1448.11,-72 1641.74,-72 1641.74,-108"/>
<text text-anchor="middle" x="1544.93" y="-85.8" font-family="Times,serif" font-size="14.00">DOMA&#45;APS_COM_CSCN_ID</text>
</a>
</g>
</g>
<!-- DTEL&#45;APS_COM_CSCN_ID&#45;&gt;DOMA&#45;APS_COM_CSCN_ID -->
<g id="edge22" class="edge">
<title>DTEL&#45;APS_COM_CSCN_ID&#45;&gt;DOMA&#45;APS_COM_CSCN_ID</title>
<path fill="none" stroke="black" d="M1314.15,-143.97C1358.42,-133.8 1414.77,-120.87 1460.7,-110.33"/>
<polygon fill="black" stroke="black" points="1461.67,-113.7 1470.64,-108.05 1460.11,-106.88 1461.67,-113.7"/>
</g>
<!-- DOMA&#45;/BOBF/CONF_KEY -->
<g id="node19" class="node">
<title>DOMA&#45;/BOBF/CONF_KEY</title>
<g id="a_node19"><a xlink:href="./DOMA_%23BOBF%23CONF_KEY.html" xlink:title="DOMA&#45;/BOBF/CONF_KEY">
<polygon fill="none" stroke="yellow" points="1840.29,-108 1659.56,-108 1659.56,-72 1840.29,-72 1840.29,-108"/>
<text text-anchor="middle" x="1749.93" y="-85.8" font-family="Times,serif" font-size="14.00">DOMA&#45;/BOBF/CONF_KEY</text>
</a>
</g>
</g>
<!-- DTEL&#45;APS_CA_API_KEY_REFERENCE&#45;&gt;DOMA&#45;/BOBF/CONF_KEY -->
<g id="edge23" class="edge">
<title>DTEL&#45;APS_CA_API_KEY_REFERENCE&#45;&gt;DOMA&#45;/BOBF/CONF_KEY</title>
<path fill="none" stroke="black" d="M1611.69,-143.88C1637.04,-134.18 1668.94,-121.98 1695.7,-111.74"/>
<polygon fill="black" stroke="black" points="1697.21,-114.91 1705.3,-108.07 1694.71,-108.37 1697.21,-114.91"/>
</g>
<!-- DOMA&#45;APS_COM_CSCN_PROPERTY_VALUE -->
<g id="node21" class="node">
<title>DOMA&#45;APS_COM_CSCN_PROPERTY_VALUE</title>
<g id="a_node21"><a xlink:href="./DOMA_APS_COM_CSCN_PROPERTY_VALUE.html" xlink:title="DOMA&#45;APS_COM_CSCN_PROPERTY_VALUE">
<polygon fill="none" stroke="yellow" points="2162.95,-108 1858.9,-108 1858.9,-72 2162.95,-72 2162.95,-108"/>
<text text-anchor="middle" x="2010.93" y="-85.8" font-family="Times,serif" font-size="14.00">DOMA&#45;APS_COM_CSCN_PROPERTY_VALUE</text>
</a>
</g>
</g>
<!-- DTEL&#45;APS_COM_CSCN_PROPERTY_VALUE&#45;&gt;DOMA&#45;APS_COM_CSCN_PROPERTY_VALUE -->
<g id="edge24" class="edge">
<title>DTEL&#45;APS_COM_CSCN_PROPERTY_VALUE&#45;&gt;DOMA&#45;APS_COM_CSCN_PROPERTY_VALUE</title>
<path fill="none" stroke="black" d="M1931.61,-143.88C1945.21,-134.81 1962.1,-123.55 1976.79,-113.76"/>
<polygon fill="black" stroke="black" points="1978.76,-116.65 1985.14,-108.19 1974.88,-110.82 1978.76,-116.65"/>
</g>
<!-- DOMA&#45;NUMC4 -->
<g id="node23" class="node">
<title>DOMA&#45;NUMC4</title>
<g id="a_node23"><a xlink:href="./DOMA_NUMC4.html" xlink:title="DOMA&#45;NUMC4">
<polygon fill="none" stroke="yellow" points="2293.35,-108 2180.51,-108 2180.51,-72 2293.35,-72 2293.35,-108"/>
<text text-anchor="middle" x="2236.93" y="-85.8" font-family="Times,serif" font-size="14.00">DOMA&#45;NUMC4</text>
</a>
</g>
</g>
<!-- DTEL&#45;APS_COM_CSCN_PROPERTY_ID&#45;&gt;DOMA&#45;NUMC4 -->
<g id="edge25" class="edge">
<title>DTEL&#45;APS_COM_CSCN_PROPERTY_ID&#45;&gt;DOMA&#45;NUMC4</title>
<path fill="none" stroke="black" d="M2228.64,-143.7C2229.86,-135.98 2231.31,-126.71 2232.67,-118.11"/>
<polygon fill="black" stroke="black" points="2236.14,-118.53 2234.24,-108.1 2229.23,-117.44 2236.14,-118.53"/>
</g>
</g>
</svg>
