<?xml version="1.0" encoding="UTF-8" standalone="no"?>
<!DOCTYPE svg PUBLIC "-//W3C//DTD SVG 1.1//EN"
 "http://www.w3.org/Graphics/SVG/1.1/DTD/svg11.dtd">
<!-- Generated by graphviz version 2.47.3 (20210619.1520)
 -->
<!-- Title: G Pages: 1 -->
<svg width="467pt" height="188pt"
 viewBox="0.00 0.00 467.13 188.00" xmlns="http://www.w3.org/2000/svg" xmlns:xlink="http://www.w3.org/1999/xlink">
<g id="graph0" class="graph" transform="scale(1 1) rotate(0) translate(4 184)">
<title>G</title>
<polygon fill="white" stroke="transparent" points="-4,4 -4,-184 463.13,-184 463.13,4 -4,4"/>
<!-- TABL&#45;BAL_S_PROG -->
<g id="node1" class="node">
<title>TABL&#45;BAL_S_PROG</title>
<polygon fill="none" stroke="yellow" points="297.3,-180 152.66,-180 152.66,-144 297.3,-144 297.3,-180"/>
<text text-anchor="middle" x="224.98" y="-157.8" font-family="Times,serif" font-size="14.00">TABL&#45;BAL_S_PROG</text>
</g>
<!-- DTEL&#45;BALPROG -->
<g id="node2" class="node">
<title>DTEL&#45;BALPROG</title>
<g id="a_node2"><a xlink:href="./DTEL_BALPROG.html" xlink:title="DTEL&#45;BALPROG">
<polygon fill="none" stroke="yellow" points="134.74,-108 13.23,-108 13.23,-72 134.74,-72 134.74,-108"/>
<text text-anchor="middle" x="73.98" y="-85.8" font-family="Times,serif" font-size="14.00">DTEL&#45;BALPROG</text>
</a>
</g>
</g>
<!-- TABL&#45;BAL_S_PROG&#45;&gt;DTEL&#45;BALPROG -->
<g id="edge3" class="edge">
<title>TABL&#45;BAL_S_PROG&#45;&gt;DTEL&#45;BALPROG</title>
<path fill="none" stroke="black" d="M188.05,-143.88C167.49,-134.35 141.73,-122.41 119.89,-112.28"/>
<polygon fill="black" stroke="black" points="121.35,-109.1 110.8,-108.07 118.4,-115.45 121.35,-109.1"/>
</g>
<!-- DTEL&#45;TVARV_OPTI -->
<g id="node4" class="node">
<title>DTEL&#45;TVARV_OPTI</title>
<g id="a_node4"><a xlink:href="./DTEL_TVARV_OPTI.html" xlink:title="DTEL&#45;TVARV_OPTI">
<polygon fill="none" stroke="yellow" points="296.22,-108 153.75,-108 153.75,-72 296.22,-72 296.22,-108"/>
<text text-anchor="middle" x="224.98" y="-85.8" font-family="Times,serif" font-size="14.00">DTEL&#45;TVARV_OPTI</text>
</a>
</g>
</g>
<!-- TABL&#45;BAL_S_PROG&#45;&gt;DTEL&#45;TVARV_OPTI -->
<g id="edge2" class="edge">
<title>TABL&#45;BAL_S_PROG&#45;&gt;DTEL&#45;TVARV_OPTI</title>
<path fill="none" stroke="black" d="M224.98,-143.7C224.98,-135.98 224.98,-126.71 224.98,-118.11"/>
<polygon fill="black" stroke="black" points="228.48,-118.1 224.98,-108.1 221.48,-118.1 228.48,-118.1"/>
</g>
<!-- DTEL&#45;TVARV_SIGN -->
<g id="node6" class="node">
<title>DTEL&#45;TVARV_SIGN</title>
<g id="a_node6"><a xlink:href="./DTEL_TVARV_SIGN.html" xlink:title="DTEL&#45;TVARV_SIGN">
<polygon fill="none" stroke="yellow" points="459.27,-108 314.69,-108 314.69,-72 459.27,-72 459.27,-108"/>
<text text-anchor="middle" x="386.98" y="-85.8" font-family="Times,serif" font-size="14.00">DTEL&#45;TVARV_SIGN</text>
</a>
</g>
</g>
<!-- TABL&#45;BAL_S_PROG&#45;&gt;DTEL&#45;TVARV_SIGN -->
<g id="edge1" class="edge">
<title>TABL&#45;BAL_S_PROG&#45;&gt;DTEL&#45;TVARV_SIGN</title>
<path fill="none" stroke="black" d="M264.61,-143.88C286.76,-134.31 314.55,-122.3 338.04,-112.15"/>
<polygon fill="black" stroke="black" points="339.69,-115.25 347.48,-108.07 336.91,-108.82 339.69,-115.25"/>
</g>
<!-- DOMA&#45;PROGNAME -->
<g id="node3" class="node">
<title>DOMA&#45;PROGNAME</title>
<g id="a_node3"><a xlink:href="./DOMA_PROGNAME.html" xlink:title="DOMA&#45;PROGNAME">
<polygon fill="none" stroke="yellow" points="141.95,-36 0.02,-36 0.02,0 141.95,0 141.95,-36"/>
<text text-anchor="middle" x="70.98" y="-13.8" font-family="Times,serif" font-size="14.00">DOMA&#45;PROGNAME</text>
</a>
</g>
</g>
<!-- DTEL&#45;BALPROG&#45;&gt;DOMA&#45;PROGNAME -->
<g id="edge4" class="edge">
<title>DTEL&#45;BALPROG&#45;&gt;DOMA&#45;PROGNAME</title>
<path fill="none" stroke="black" d="M73.24,-71.7C72.91,-63.98 72.51,-54.71 72.15,-46.11"/>
<polygon fill="black" stroke="black" points="75.64,-45.95 71.72,-36.1 68.65,-46.25 75.64,-45.95"/>
</g>
<!-- DOMA&#45;SYCHAR02 -->
<g id="node5" class="node">
<title>DOMA&#45;SYCHAR02</title>
<g id="a_node5"><a xlink:href="./DOMA_SYCHAR02.html" xlink:title="DOMA&#45;SYCHAR02">
<polygon fill="none" stroke="yellow" points="294.18,-36 159.78,-36 159.78,0 294.18,0 294.18,-36"/>
<text text-anchor="middle" x="226.98" y="-13.8" font-family="Times,serif" font-size="14.00">DOMA&#45;SYCHAR02</text>
</a>
</g>
</g>
<!-- DTEL&#45;TVARV_OPTI&#45;&gt;DOMA&#45;SYCHAR02 -->
<g id="edge5" class="edge">
<title>DTEL&#45;TVARV_OPTI&#45;&gt;DOMA&#45;SYCHAR02</title>
<path fill="none" stroke="black" d="M225.48,-71.7C225.7,-63.98 225.96,-54.71 226.21,-46.11"/>
<polygon fill="black" stroke="black" points="229.71,-46.2 226.5,-36.1 222.71,-46 229.71,-46.2"/>
</g>
<!-- DOMA&#45;SYCHAR01 -->
<g id="node7" class="node">
<title>DOMA&#45;SYCHAR01</title>
<g id="a_node7"><a xlink:href="./DOMA_SYCHAR01.html" xlink:title="DOMA&#45;SYCHAR01">
<polygon fill="none" stroke="yellow" points="454.18,-36 319.78,-36 319.78,0 454.18,0 454.18,-36"/>
<text text-anchor="middle" x="386.98" y="-13.8" font-family="Times,serif" font-size="14.00">DOMA&#45;SYCHAR01</text>
</a>
</g>
</g>
<!-- DTEL&#45;TVARV_SIGN&#45;&gt;DOMA&#45;SYCHAR01 -->
<g id="edge6" class="edge">
<title>DTEL&#45;TVARV_SIGN&#45;&gt;DOMA&#45;SYCHAR01</title>
<path fill="none" stroke="black" d="M386.98,-71.7C386.98,-63.98 386.98,-54.71 386.98,-46.11"/>
<polygon fill="black" stroke="black" points="390.48,-46.1 386.98,-36.1 383.48,-46.1 390.48,-46.1"/>
</g>
</g>
</svg>
