<?xml version="1.0" encoding="UTF-8" standalone="no"?>
<!DOCTYPE svg PUBLIC "-//W3C//DTD SVG 1.1//EN"
 "http://www.w3.org/Graphics/SVG/1.1/DTD/svg11.dtd">
<!-- Generated by graphviz version 2.47.3 (20210619.1520)
 -->
<!-- Title: G Pages: 1 -->
<svg width="1032pt" height="188pt"
 viewBox="0.00 0.00 1032.13 188.00" xmlns="http://www.w3.org/2000/svg" xmlns:xlink="http://www.w3.org/1999/xlink">
<g id="graph0" class="graph" transform="scale(1 1) rotate(0) translate(4 184)">
<title>G</title>
<polygon fill="white" stroke="transparent" points="-4,4 -4,-184 1028.13,-184 1028.13,4 -4,4"/>
<!-- TABL&#45;FDT_S_TIMEPOINT -->
<g id="node1" class="node">
<title>TABL&#45;FDT_S_TIMEPOINT</title>
<polygon fill="none" stroke="yellow" points="695.49,-180 514.79,-180 514.79,-144 695.49,-144 695.49,-180"/>
<text text-anchor="middle" x="605.14" y="-157.8" font-family="Times,serif" font-size="14.00">TABL&#45;FDT_S_TIMEPOINT</text>
</g>
<!-- DTEL&#45;FDT_TIMEPOINT_TYPE -->
<g id="node2" class="node">
<title>DTEL&#45;FDT_TIMEPOINT_TYPE</title>
<g id="a_node2"><a xlink:href="./DTEL_FDT_TIMEPOINT_TYPE.html" xlink:title="DTEL&#45;FDT_TIMEPOINT_TYPE">
<polygon fill="none" stroke="yellow" points="210.92,-108 3.36,-108 3.36,-72 210.92,-72 210.92,-108"/>
<text text-anchor="middle" x="107.14" y="-85.8" font-family="Times,serif" font-size="14.00">DTEL&#45;FDT_TIMEPOINT_TYPE</text>
</a>
</g>
</g>
<!-- TABL&#45;FDT_S_TIMEPOINT&#45;&gt;DTEL&#45;FDT_TIMEPOINT_TYPE -->
<g id="edge6" class="edge">
<title>TABL&#45;FDT_S_TIMEPOINT&#45;&gt;DTEL&#45;FDT_TIMEPOINT_TYPE</title>
<path fill="none" stroke="black" d="M514.47,-148.84C438.79,-138.62 327.78,-123.45 220.89,-108.1"/>
<polygon fill="black" stroke="black" points="221.29,-104.62 210.89,-106.66 220.29,-111.55 221.29,-104.62"/>
</g>
<!-- DTEL&#45;TZNUTCSIGN -->
<g id="node4" class="node">
<title>DTEL&#45;TZNUTCSIGN</title>
<g id="a_node4"><a xlink:href="./DTEL_TZNUTCSIGN.html" xlink:title="DTEL&#45;TZNUTCSIGN">
<polygon fill="none" stroke="yellow" points="373.43,-108 228.85,-108 228.85,-72 373.43,-72 373.43,-108"/>
<text text-anchor="middle" x="301.14" y="-85.8" font-family="Times,serif" font-size="14.00">DTEL&#45;TZNUTCSIGN</text>
</a>
</g>
</g>
<!-- TABL&#45;FDT_S_TIMEPOINT&#45;&gt;DTEL&#45;TZNUTCSIGN -->
<g id="edge5" class="edge">
<title>TABL&#45;FDT_S_TIMEPOINT&#45;&gt;DTEL&#45;TZNUTCSIGN</title>
<path fill="none" stroke="black" d="M531.16,-143.97C486.46,-133.67 429.41,-120.54 383.31,-109.92"/>
<polygon fill="black" stroke="black" points="383.88,-106.46 373.35,-107.63 382.31,-113.28 383.88,-106.46"/>
</g>
<!-- DTEL&#45;FDT_UTC_OFFSET_TIME -->
<g id="node6" class="node">
<title>DTEL&#45;FDT_UTC_OFFSET_TIME</title>
<g id="a_node6"><a xlink:href="./DTEL_FDT_UTC_OFFSET_TIME.html" xlink:title="DTEL&#45;FDT_UTC_OFFSET_TIME">
<polygon fill="none" stroke="yellow" points="607.27,-108 391.01,-108 391.01,-72 607.27,-72 607.27,-108"/>
<text text-anchor="middle" x="499.14" y="-85.8" font-family="Times,serif" font-size="14.00">DTEL&#45;FDT_UTC_OFFSET_TIME</text>
</a>
</g>
</g>
<!-- TABL&#45;FDT_S_TIMEPOINT&#45;&gt;DTEL&#45;FDT_UTC_OFFSET_TIME -->
<g id="edge4" class="edge">
<title>TABL&#45;FDT_S_TIMEPOINT&#45;&gt;DTEL&#45;FDT_UTC_OFFSET_TIME</title>
<path fill="none" stroke="black" d="M579.21,-143.88C565.48,-134.81 548.43,-123.55 533.6,-113.76"/>
<polygon fill="black" stroke="black" points="535.44,-110.78 525.17,-108.19 531.59,-116.62 535.44,-110.78"/>
</g>
<!-- DTEL&#45;FDT_TIMESTAMP -->
<g id="node8" class="node">
<title>DTEL&#45;FDT_TIMESTAMP</title>
<g id="a_node8"><a xlink:href="./DTEL_FDT_TIMESTAMP.html" xlink:title="DTEL&#45;FDT_TIMESTAMP">
<polygon fill="none" stroke="yellow" points="796.39,-108 625.89,-108 625.89,-72 796.39,-72 796.39,-108"/>
<text text-anchor="middle" x="711.14" y="-85.8" font-family="Times,serif" font-size="14.00">DTEL&#45;FDT_TIMESTAMP</text>
</a>
</g>
</g>
<!-- TABL&#45;FDT_S_TIMEPOINT&#45;&gt;DTEL&#45;FDT_TIMESTAMP -->
<g id="edge3" class="edge">
<title>TABL&#45;FDT_S_TIMEPOINT&#45;&gt;DTEL&#45;FDT_TIMESTAMP</title>
<path fill="none" stroke="black" d="M631.07,-143.88C644.8,-134.81 661.85,-123.55 676.68,-113.76"/>
<polygon fill="black" stroke="black" points="678.69,-116.62 685.11,-108.19 674.84,-110.78 678.69,-116.62"/>
</g>
<!-- DTEL&#45;TIMS -->
<g id="node10" class="node">
<title>DTEL&#45;TIMS</title>
<g id="a_node10"><a xlink:href="./DTEL_TIMS.html" xlink:title="DTEL&#45;TIMS">
<polygon fill="none" stroke="yellow" points="904.01,-108 814.27,-108 814.27,-72 904.01,-72 904.01,-108"/>
<text text-anchor="middle" x="859.14" y="-85.8" font-family="Times,serif" font-size="14.00">DTEL&#45;TIMS</text>
</a>
</g>
</g>
<!-- TABL&#45;FDT_S_TIMEPOINT&#45;&gt;DTEL&#45;TIMS -->
<g id="edge2" class="edge">
<title>TABL&#45;FDT_S_TIMEPOINT&#45;&gt;DTEL&#45;TIMS</title>
<path fill="none" stroke="black" d="M672.48,-143.98C708.94,-134.57 754.97,-122.38 804.22,-108.21"/>
<polygon fill="black" stroke="black" points="805.47,-111.49 814.11,-105.35 803.53,-104.76 805.47,-111.49"/>
</g>
<!-- DTEL&#45;DATS -->
<g id="node12" class="node">
<title>DTEL&#45;DATS</title>
<g id="a_node12"><a xlink:href="./DTEL_DATS.html" xlink:title="DTEL&#45;DATS">
<polygon fill="none" stroke="yellow" points="1018.61,-108 925.67,-108 925.67,-72 1018.61,-72 1018.61,-108"/>
<text text-anchor="middle" x="972.14" y="-85.8" font-family="Times,serif" font-size="14.00">DTEL&#45;DATS</text>
</a>
</g>
</g>
<!-- TABL&#45;FDT_S_TIMEPOINT&#45;&gt;DTEL&#45;DATS -->
<g id="edge1" class="edge">
<title>TABL&#45;FDT_S_TIMEPOINT&#45;&gt;DTEL&#45;DATS</title>
<path fill="none" stroke="black" d="M695.62,-148.11C757.27,-138.68 840.56,-124.65 913.14,-108 914.03,-107.8 914.92,-107.59 915.82,-107.37"/>
<polygon fill="black" stroke="black" points="916.72,-110.76 925.57,-104.93 915.01,-103.97 916.72,-110.76"/>
</g>
<!-- DOMA&#45;FDT_TIMEPOINT_TYPE -->
<g id="node3" class="node">
<title>DOMA&#45;FDT_TIMEPOINT_TYPE</title>
<g id="a_node3"><a xlink:href="./DOMA_FDT_TIMEPOINT_TYPE.html" xlink:title="DOMA&#45;FDT_TIMEPOINT_TYPE">
<polygon fill="none" stroke="yellow" points="214.42,-36 -0.14,-36 -0.14,0 214.42,0 214.42,-36"/>
<text text-anchor="middle" x="107.14" y="-13.8" font-family="Times,serif" font-size="14.00">DOMA&#45;FDT_TIMEPOINT_TYPE</text>
</a>
</g>
</g>
<!-- DTEL&#45;FDT_TIMEPOINT_TYPE&#45;&gt;DOMA&#45;FDT_TIMEPOINT_TYPE -->
<g id="edge7" class="edge">
<title>DTEL&#45;FDT_TIMEPOINT_TYPE&#45;&gt;DOMA&#45;FDT_TIMEPOINT_TYPE</title>
<path fill="none" stroke="black" d="M107.14,-71.7C107.14,-63.98 107.14,-54.71 107.14,-46.11"/>
<polygon fill="black" stroke="black" points="110.64,-46.1 107.14,-36.1 103.64,-46.1 110.64,-46.1"/>
</g>
<!-- DOMA&#45;TZNSIGN -->
<g id="node5" class="node">
<title>DOMA&#45;TZNSIGN</title>
<g id="a_node5"><a xlink:href="./DOMA_TZNSIGN.html" xlink:title="DOMA&#45;TZNSIGN">
<polygon fill="none" stroke="yellow" points="362.93,-36 239.35,-36 239.35,0 362.93,0 362.93,-36"/>
<text text-anchor="middle" x="301.14" y="-13.8" font-family="Times,serif" font-size="14.00">DOMA&#45;TZNSIGN</text>
</a>
</g>
</g>
<!-- DTEL&#45;TZNUTCSIGN&#45;&gt;DOMA&#45;TZNSIGN -->
<g id="edge8" class="edge">
<title>DTEL&#45;TZNUTCSIGN&#45;&gt;DOMA&#45;TZNSIGN</title>
<path fill="none" stroke="black" d="M301.14,-71.7C301.14,-63.98 301.14,-54.71 301.14,-46.11"/>
<polygon fill="black" stroke="black" points="304.64,-46.1 301.14,-36.1 297.64,-46.1 304.64,-46.1"/>
</g>
<!-- DOMA&#45;FDT_UTC_OFFSET_TIME -->
<g id="node7" class="node">
<title>DOMA&#45;FDT_UTC_OFFSET_TIME</title>
<g id="a_node7"><a xlink:href="./DOMA_FDT_UTC_OFFSET_TIME.html" xlink:title="DOMA&#45;FDT_UTC_OFFSET_TIME">
<polygon fill="none" stroke="yellow" points="610.77,-36 387.51,-36 387.51,0 610.77,0 610.77,-36"/>
<text text-anchor="middle" x="499.14" y="-13.8" font-family="Times,serif" font-size="14.00">DOMA&#45;FDT_UTC_OFFSET_TIME</text>
</a>
</g>
</g>
<!-- DTEL&#45;FDT_UTC_OFFSET_TIME&#45;&gt;DOMA&#45;FDT_UTC_OFFSET_TIME -->
<g id="edge9" class="edge">
<title>DTEL&#45;FDT_UTC_OFFSET_TIME&#45;&gt;DOMA&#45;FDT_UTC_OFFSET_TIME</title>
<path fill="none" stroke="black" d="M499.14,-71.7C499.14,-63.98 499.14,-54.71 499.14,-46.11"/>
<polygon fill="black" stroke="black" points="502.64,-46.1 499.14,-36.1 495.64,-46.1 502.64,-46.1"/>
</g>
<!-- DOMA&#45;TZNTSTMPS -->
<g id="node9" class="node">
<title>DOMA&#45;TZNTSTMPS</title>
<g id="a_node9"><a xlink:href="./DOMA_TZNTSTMPS.html" xlink:title="DOMA&#45;TZNTSTMPS">
<polygon fill="none" stroke="yellow" points="782.68,-36 639.61,-36 639.61,0 782.68,0 782.68,-36"/>
<text text-anchor="middle" x="711.14" y="-13.8" font-family="Times,serif" font-size="14.00">DOMA&#45;TZNTSTMPS</text>
</a>
</g>
</g>
<!-- DTEL&#45;FDT_TIMESTAMP&#45;&gt;DOMA&#45;TZNTSTMPS -->
<g id="edge10" class="edge">
<title>DTEL&#45;FDT_TIMESTAMP&#45;&gt;DOMA&#45;TZNTSTMPS</title>
<path fill="none" stroke="black" d="M711.14,-71.7C711.14,-63.98 711.14,-54.71 711.14,-46.11"/>
<polygon fill="black" stroke="black" points="714.64,-46.1 711.14,-36.1 707.64,-46.1 714.64,-46.1"/>
</g>
<!-- DOMA&#45;TIME -->
<g id="node11" class="node">
<title>DOMA&#45;TIME</title>
<g id="a_node11"><a xlink:href="./DOMA_TIME.html" xlink:title="DOMA&#45;TIME">
<polygon fill="none" stroke="yellow" points="905.78,-36 808.5,-36 808.5,0 905.78,0 905.78,-36"/>
<text text-anchor="middle" x="857.14" y="-13.8" font-family="Times,serif" font-size="14.00">DOMA&#45;TIME</text>
</a>
</g>
</g>
<!-- DTEL&#45;TIMS&#45;&gt;DOMA&#45;TIME -->
<g id="edge11" class="edge">
<title>DTEL&#45;TIMS&#45;&gt;DOMA&#45;TIME</title>
<path fill="none" stroke="black" d="M858.65,-71.7C858.43,-63.98 858.16,-54.71 857.91,-46.11"/>
<polygon fill="black" stroke="black" points="861.41,-46 857.63,-36.1 854.42,-46.2 861.41,-46"/>
</g>
<!-- DOMA&#45;DATS -->
<g id="node13" class="node">
<title>DOMA&#45;DATS</title>
<g id="a_node13"><a xlink:href="./DOMA_DATS.html" xlink:title="DOMA&#45;DATS">
<polygon fill="none" stroke="yellow" points="1024.11,-36 924.17,-36 924.17,0 1024.11,0 1024.11,-36"/>
<text text-anchor="middle" x="974.14" y="-13.8" font-family="Times,serif" font-size="14.00">DOMA&#45;DATS</text>
</a>
</g>
</g>
<!-- DTEL&#45;DATS&#45;&gt;DOMA&#45;DATS -->
<g id="edge12" class="edge">
<title>DTEL&#45;DATS&#45;&gt;DOMA&#45;DATS</title>
<path fill="none" stroke="black" d="M972.63,-71.7C972.86,-63.98 973.12,-54.71 973.37,-46.11"/>
<polygon fill="black" stroke="black" points="976.86,-46.2 973.65,-36.1 969.87,-46 976.86,-46.2"/>
</g>
</g>
</svg>
