<?xml version="1.0" encoding="UTF-8" standalone="no"?>
<!DOCTYPE svg PUBLIC "-//W3C//DTD SVG 1.1//EN"
 "http://www.w3.org/Graphics/SVG/1.1/DTD/svg11.dtd">
<!-- Generated by graphviz version 2.47.3 (20210619.1520)
 -->
<!-- Title: G Pages: 1 -->
<svg width="626pt" height="188pt"
 viewBox="0.00 0.00 626.21 188.00" xmlns="http://www.w3.org/2000/svg" xmlns:xlink="http://www.w3.org/1999/xlink">
<g id="graph0" class="graph" transform="scale(1 1) rotate(0) translate(4 184)">
<title>G</title>
<polygon fill="white" stroke="transparent" points="-4,4 -4,-184 622.21,-184 622.21,4 -4,4"/>
<!-- TABL&#45;SUID_ST_NODE_EXTUID -->
<g id="node1" class="node">
<title>TABL&#45;SUID_ST_NODE_EXTUID</title>
<polygon fill="none" stroke="yellow" points="436.78,-180 218.47,-180 218.47,-144 436.78,-144 436.78,-180"/>
<text text-anchor="middle" x="327.63" y="-157.8" font-family="Times,serif" font-size="14.00">TABL&#45;SUID_ST_NODE_EXTUID</text>
</g>
<!-- DTEL&#45;SUID_NODE_KEY_HANDLE -->
<g id="node2" class="node">
<title>DTEL&#45;SUID_NODE_KEY_HANDLE</title>
<g id="a_node2"><a xlink:href="./DTEL_SUID_NODE_KEY_HANDLE.html" xlink:title="DTEL&#45;SUID_NODE_KEY_HANDLE">
<polygon fill="none" stroke="yellow" points="235.38,-108 -0.13,-108 -0.13,-72 235.38,-72 235.38,-108"/>
<text text-anchor="middle" x="117.63" y="-85.8" font-family="Times,serif" font-size="14.00">DTEL&#45;SUID_NODE_KEY_HANDLE</text>
</a>
</g>
</g>
<!-- TABL&#45;SUID_ST_NODE_EXTUID&#45;&gt;DTEL&#45;SUID_NODE_KEY_HANDLE -->
<g id="edge3" class="edge">
<title>TABL&#45;SUID_ST_NODE_EXTUID&#45;&gt;DTEL&#45;SUID_NODE_KEY_HANDLE</title>
<path fill="none" stroke="black" d="M276.52,-143.97C247.05,-134.14 209.81,-121.73 178.79,-111.39"/>
<polygon fill="black" stroke="black" points="179.55,-107.95 168.96,-108.11 177.34,-114.59 179.55,-107.95"/>
</g>
<!-- DTEL&#45;SUID_EXTUID -->
<g id="node3" class="node">
<title>DTEL&#45;SUID_EXTUID</title>
<g id="a_node3"><a xlink:href="./DTEL_SUID_EXTUID.html" xlink:title="DTEL&#45;SUID_EXTUID">
<polygon fill="none" stroke="yellow" points="401.79,-108 253.46,-108 253.46,-72 401.79,-72 401.79,-108"/>
<text text-anchor="middle" x="327.63" y="-85.8" font-family="Times,serif" font-size="14.00">DTEL&#45;SUID_EXTUID</text>
</a>
</g>
</g>
<!-- TABL&#45;SUID_ST_NODE_EXTUID&#45;&gt;DTEL&#45;SUID_EXTUID -->
<g id="edge2" class="edge">
<title>TABL&#45;SUID_ST_NODE_EXTUID&#45;&gt;DTEL&#45;SUID_EXTUID</title>
<path fill="none" stroke="black" d="M327.63,-143.7C327.63,-135.98 327.63,-126.71 327.63,-118.11"/>
<polygon fill="black" stroke="black" points="331.13,-118.1 327.63,-108.1 324.13,-118.1 331.13,-118.1"/>
</g>
<!-- DTEL&#45;SUID_EXTUID_TYPE -->
<g id="node5" class="node">
<title>DTEL&#45;SUID_EXTUID_TYPE</title>
<g id="a_node5"><a xlink:href="./DTEL_SUID_EXTUID_TYPE.html" xlink:title="DTEL&#45;SUID_EXTUID_TYPE">
<polygon fill="none" stroke="yellow" points="612.79,-108 422.46,-108 422.46,-72 612.79,-72 612.79,-108"/>
<text text-anchor="middle" x="517.63" y="-85.8" font-family="Times,serif" font-size="14.00">DTEL&#45;SUID_EXTUID_TYPE</text>
</a>
</g>
</g>
<!-- TABL&#45;SUID_ST_NODE_EXTUID&#45;&gt;DTEL&#45;SUID_EXTUID_TYPE -->
<g id="edge1" class="edge">
<title>TABL&#45;SUID_ST_NODE_EXTUID&#45;&gt;DTEL&#45;SUID_EXTUID_TYPE</title>
<path fill="none" stroke="black" d="M374.1,-143.88C400.54,-134.14 433.83,-121.87 461.69,-111.61"/>
<polygon fill="black" stroke="black" points="463.12,-114.81 471.3,-108.07 460.7,-108.24 463.12,-114.81"/>
</g>
<!-- DOMA&#45;SUID_EXTUID -->
<g id="node4" class="node">
<title>DOMA&#45;SUID_EXTUID</title>
<g id="a_node4"><a xlink:href="./DOMA_SUID_EXTUID.html" xlink:title="DOMA&#45;SUID_EXTUID">
<polygon fill="none" stroke="yellow" points="403.29,-36 247.96,-36 247.96,0 403.29,0 403.29,-36"/>
<text text-anchor="middle" x="325.63" y="-13.8" font-family="Times,serif" font-size="14.00">DOMA&#45;SUID_EXTUID</text>
</a>
</g>
</g>
<!-- DTEL&#45;SUID_EXTUID&#45;&gt;DOMA&#45;SUID_EXTUID -->
<g id="edge4" class="edge">
<title>DTEL&#45;SUID_EXTUID&#45;&gt;DOMA&#45;SUID_EXTUID</title>
<path fill="none" stroke="black" d="M327.13,-71.7C326.91,-63.98 326.65,-54.71 326.4,-46.11"/>
<polygon fill="black" stroke="black" points="329.9,-46 326.11,-36.1 322.9,-46.2 329.9,-46"/>
</g>
<!-- DOMA&#45;SUID_EXTUID_TYPE -->
<g id="node6" class="node">
<title>DOMA&#45;SUID_EXTUID_TYPE</title>
<g id="a_node6"><a xlink:href="./DOMA_SUID_EXTUID_TYPE.html" xlink:title="DOMA&#45;SUID_EXTUID_TYPE">
<polygon fill="none" stroke="yellow" points="618.29,-36 420.96,-36 420.96,0 618.29,0 618.29,-36"/>
<text text-anchor="middle" x="519.63" y="-13.8" font-family="Times,serif" font-size="14.00">DOMA&#45;SUID_EXTUID_TYPE</text>
</a>
</g>
</g>
<!-- DTEL&#45;SUID_EXTUID_TYPE&#45;&gt;DOMA&#45;SUID_EXTUID_TYPE -->
<g id="edge5" class="edge">
<title>DTEL&#45;SUID_EXTUID_TYPE&#45;&gt;DOMA&#45;SUID_EXTUID_TYPE</title>
<path fill="none" stroke="black" d="M518.12,-71.7C518.34,-63.98 518.61,-54.71 518.85,-46.11"/>
<polygon fill="black" stroke="black" points="522.35,-46.2 519.14,-36.1 515.35,-46 522.35,-46.2"/>
</g>
</g>
</svg>
