<?xml version="1.0" encoding="UTF-8" standalone="no"?>
<!DOCTYPE svg PUBLIC "-//W3C//DTD SVG 1.1//EN"
 "http://www.w3.org/Graphics/SVG/1.1/DTD/svg11.dtd">
<!-- Generated by graphviz version 2.47.3 (20210619.1520)
 -->
<!-- Title: G Pages: 1 -->
<svg width="1669pt" height="260pt"
 viewBox="0.00 0.00 1669.07 260.00" xmlns="http://www.w3.org/2000/svg" xmlns:xlink="http://www.w3.org/1999/xlink">
<g id="graph0" class="graph" transform="scale(1 1) rotate(0) translate(4 256)">
<title>G</title>
<polygon fill="white" stroke="transparent" points="-4,4 -4,-256 1665.07,-256 1665.07,4 -4,4"/>
<!-- TABL&#45;APS_S_COM_CS_D2_PARTNER_TP_D -->
<g id="node1" class="node">
<title>TABL&#45;APS_S_COM_CS_D2_PARTNER_TP_D</title>
<polygon fill="none" stroke="yellow" points="964.7,-252 668.71,-252 668.71,-216 964.7,-216 964.7,-252"/>
<text text-anchor="middle" x="816.7" y="-229.8" font-family="Times,serif" font-size="14.00">TABL&#45;APS_S_COM_CS_D2_PARTNER_TP_D</text>
</g>
<!-- DTEL&#45;SDRAFT_IS_ACTIVE -->
<g id="node2" class="node">
<title>DTEL&#45;SDRAFT_IS_ACTIVE</title>
<g id="a_node2"><a xlink:href="./DTEL_SDRAFT_IS_ACTIVE.html" xlink:title="DTEL&#45;SDRAFT_IS_ACTIVE">
<polygon fill="none" stroke="yellow" points="460.55,-180 272.85,-180 272.85,-144 460.55,-144 460.55,-180"/>
<text text-anchor="middle" x="366.7" y="-157.8" font-family="Times,serif" font-size="14.00">DTEL&#45;SDRAFT_IS_ACTIVE</text>
</a>
</g>
</g>
<!-- TABL&#45;APS_S_COM_CS_D2_PARTNER_TP_D&#45;&gt;DTEL&#45;SDRAFT_IS_ACTIVE -->
<g id="edge7" class="edge">
<title>TABL&#45;APS_S_COM_CS_D2_PARTNER_TP_D&#45;&gt;DTEL&#45;SDRAFT_IS_ACTIVE</title>
<path fill="none" stroke="black" d="M707.2,-215.97C635.29,-204.78 541.78,-190.23 470.96,-179.22"/>
<polygon fill="black" stroke="black" points="471.1,-175.7 460.68,-177.62 470.02,-182.61 471.1,-175.7"/>
</g>
<!-- TABL&#45;SDRAFT_WRITE_DRAFT_ADMIN -->
<g id="node4" class="node">
<title>TABL&#45;SDRAFT_WRITE_DRAFT_ADMIN</title>
<g id="a_node4"><a xlink:href="./TABL_SDRAFT_WRITE_DRAFT_ADMIN.html" xlink:title="TABL&#45;SDRAFT_WRITE_DRAFT_ADMIN">
<polygon fill="none" stroke="yellow" points="951.21,-180 682.2,-180 682.2,-144 951.21,-144 951.21,-180"/>
<text text-anchor="middle" x="816.7" y="-157.8" font-family="Times,serif" font-size="14.00">TABL&#45;SDRAFT_WRITE_DRAFT_ADMIN</text>
</a>
</g>
</g>
<!-- TABL&#45;APS_S_COM_CS_D2_PARTNER_TP_D&#45;&gt;TABL&#45;SDRAFT_WRITE_DRAFT_ADMIN -->
<g id="edge6" class="edge">
<title>TABL&#45;APS_S_COM_CS_D2_PARTNER_TP_D&#45;&gt;TABL&#45;SDRAFT_WRITE_DRAFT_ADMIN</title>
<path fill="none" stroke="black" d="M816.7,-215.7C816.7,-207.98 816.7,-198.71 816.7,-190.11"/>
<polygon fill="black" stroke="black" points="820.2,-190.1 816.7,-180.1 813.2,-190.1 820.2,-190.1"/>
</g>
<!-- DTEL&#45;SDRAFT_HAS_ACTIVE -->
<g id="node14" class="node">
<title>DTEL&#45;SDRAFT_HAS_ACTIVE</title>
<g id="a_node14"><a xlink:href="./DTEL_SDRAFT_HAS_ACTIVE.html" xlink:title="DTEL&#45;SDRAFT_HAS_ACTIVE">
<polygon fill="none" stroke="yellow" points="203.61,-180 -0.2,-180 -0.2,-144 203.61,-144 203.61,-180"/>
<text text-anchor="middle" x="101.7" y="-157.8" font-family="Times,serif" font-size="14.00">DTEL&#45;SDRAFT_HAS_ACTIVE</text>
</a>
</g>
</g>
<!-- TABL&#45;APS_S_COM_CS_D2_PARTNER_TP_D&#45;&gt;DTEL&#45;SDRAFT_HAS_ACTIVE -->
<g id="edge5" class="edge">
<title>TABL&#45;APS_S_COM_CS_D2_PARTNER_TP_D&#45;&gt;DTEL&#45;SDRAFT_HAS_ACTIVE</title>
<path fill="none" stroke="black" d="M668.5,-219.16C557.13,-208.67 400.81,-193.76 263.7,-180 247.62,-178.39 230.65,-176.65 213.99,-174.92"/>
<polygon fill="black" stroke="black" points="213.97,-171.39 203.66,-173.84 213.24,-178.36 213.97,-171.39"/>
</g>
<!-- DTEL&#45;/BOBF/UUID -->
<g id="node15" class="node">
<title>DTEL&#45;/BOBF/UUID</title>
<g id="a_node15"><a xlink:href="./DTEL_%23BOBF%23UUID.html" xlink:title="DTEL&#45;/BOBF/UUID">
<polygon fill="none" stroke="yellow" points="1215.45,-180 1079.95,-180 1079.95,-144 1215.45,-144 1215.45,-180"/>
<text text-anchor="middle" x="1147.7" y="-157.8" font-family="Times,serif" font-size="14.00">DTEL&#45;/BOBF/UUID</text>
</a>
</g>
</g>
<!-- TABL&#45;APS_S_COM_CS_D2_PARTNER_TP_D&#45;&gt;DTEL&#45;/BOBF/UUID -->
<g id="edge4" class="edge">
<title>TABL&#45;APS_S_COM_CS_D2_PARTNER_TP_D&#45;&gt;DTEL&#45;/BOBF/UUID</title>
<path fill="none" stroke="black" d="M897.25,-215.97C949.83,-204.85 1018.12,-190.4 1070.1,-179.41"/>
<polygon fill="black" stroke="black" points="1070.88,-182.82 1079.94,-177.33 1069.43,-175.98 1070.88,-182.82"/>
</g>
<!-- DTEL&#45;TIMESTAMPL -->
<g id="node16" class="node">
<title>DTEL&#45;TIMESTAMPL</title>
<g id="a_node16"><a xlink:href="./DTEL_TIMESTAMPL.html" xlink:title="DTEL&#45;TIMESTAMPL">
<polygon fill="none" stroke="green" points="650.56,-180 504.84,-180 504.84,-144 650.56,-144 650.56,-180"/>
<text text-anchor="middle" x="577.7" y="-157.8" font-family="Times,serif" font-size="14.00">DTEL&#45;TIMESTAMPL</text>
</a>
</g>
</g>
<!-- TABL&#45;APS_S_COM_CS_D2_PARTNER_TP_D&#45;&gt;DTEL&#45;TIMESTAMPL -->
<g id="edge3" class="edge">
<title>TABL&#45;APS_S_COM_CS_D2_PARTNER_TP_D&#45;&gt;DTEL&#45;TIMESTAMPL</title>
<path fill="none" stroke="black" d="M758.54,-215.97C724.57,-206.01 681.52,-193.41 645.94,-182.99"/>
<polygon fill="black" stroke="black" points="646.7,-179.56 636.12,-180.11 644.74,-186.28 646.7,-179.56"/>
</g>
<!-- DTEL&#45;UNAME -->
<g id="node17" class="node">
<title>DTEL&#45;UNAME</title>
<g id="a_node17"><a xlink:href="./DTEL_UNAME.html" xlink:title="DTEL&#45;UNAME">
<polygon fill="none" stroke="yellow" points="1629.44,-180 1521.96,-180 1521.96,-144 1629.44,-144 1629.44,-180"/>
<text text-anchor="middle" x="1575.7" y="-157.8" font-family="Times,serif" font-size="14.00">DTEL&#45;UNAME</text>
</a>
</g>
</g>
<!-- TABL&#45;APS_S_COM_CS_D2_PARTNER_TP_D&#45;&gt;DTEL&#45;UNAME -->
<g id="edge2" class="edge">
<title>TABL&#45;APS_S_COM_CS_D2_PARTNER_TP_D&#45;&gt;DTEL&#45;UNAME</title>
<path fill="none" stroke="black" d="M964.99,-225.84C1100.88,-218.19 1307.43,-203.83 1485.7,-180 1494.08,-178.88 1502.87,-177.49 1511.53,-175.99"/>
<polygon fill="black" stroke="black" points="1512.37,-179.4 1521.6,-174.2 1511.14,-172.51 1512.37,-179.4"/>
</g>
<!-- DTEL&#45;BU_PARTNER_GUID -->
<g id="node19" class="node">
<title>DTEL&#45;BU_PARTNER_GUID</title>
<g id="a_node19"><a xlink:href="./DTEL_BU_PARTNER_GUID.html" xlink:title="DTEL&#45;BU_PARTNER_GUID">
<polygon fill="none" stroke="yellow" points="1476.83,-180 1288.58,-180 1288.58,-144 1476.83,-144 1476.83,-180"/>
<text text-anchor="middle" x="1382.7" y="-157.8" font-family="Times,serif" font-size="14.00">DTEL&#45;BU_PARTNER_GUID</text>
</a>
</g>
</g>
<!-- TABL&#45;APS_S_COM_CS_D2_PARTNER_TP_D&#45;&gt;DTEL&#45;BU_PARTNER_GUID -->
<g id="edge1" class="edge">
<title>TABL&#45;APS_S_COM_CS_D2_PARTNER_TP_D&#45;&gt;DTEL&#45;BU_PARTNER_GUID</title>
<path fill="none" stroke="black" d="M954.44,-215.97C1054.26,-203.62 1187.17,-187.18 1278.3,-175.91"/>
<polygon fill="black" stroke="black" points="1278.87,-179.37 1288.36,-174.67 1278.01,-172.42 1278.87,-179.37"/>
</g>
<!-- DOMA&#45;BOOLE -->
<g id="node3" class="node">
<title>DOMA&#45;BOOLE</title>
<g id="a_node3"><a xlink:href="./DOMA_BOOLE.html" xlink:title="DOMA&#45;BOOLE">
<polygon fill="none" stroke="yellow" points="143.78,-108 33.62,-108 33.62,-72 143.78,-72 143.78,-108"/>
<text text-anchor="middle" x="88.7" y="-85.8" font-family="Times,serif" font-size="14.00">DOMA&#45;BOOLE</text>
</a>
</g>
</g>
<!-- DTEL&#45;SDRAFT_IS_ACTIVE&#45;&gt;DOMA&#45;BOOLE -->
<g id="edge8" class="edge">
<title>DTEL&#45;SDRAFT_IS_ACTIVE&#45;&gt;DOMA&#45;BOOLE</title>
<path fill="none" stroke="black" d="M299.05,-143.97C254.92,-132.85 197.61,-118.42 153.96,-107.43"/>
<polygon fill="black" stroke="black" points="154.58,-103.98 144.03,-104.93 152.87,-110.77 154.58,-103.98"/>
</g>
<!-- DTEL&#45;SDRAFT_OPERATION_CODE -->
<g id="node5" class="node">
<title>DTEL&#45;SDRAFT_OPERATION_CODE</title>
<g id="a_node5"><a xlink:href="./DTEL_SDRAFT_OPERATION_CODE.html" xlink:title="DTEL&#45;SDRAFT_OPERATION_CODE">
<polygon fill="none" stroke="yellow" points="937.21,-108 696.2,-108 696.2,-72 937.21,-72 937.21,-108"/>
<text text-anchor="middle" x="816.7" y="-85.8" font-family="Times,serif" font-size="14.00">DTEL&#45;SDRAFT_OPERATION_CODE</text>
</a>
</g>
</g>
<!-- TABL&#45;SDRAFT_WRITE_DRAFT_ADMIN&#45;&gt;DTEL&#45;SDRAFT_OPERATION_CODE -->
<g id="edge13" class="edge">
<title>TABL&#45;SDRAFT_WRITE_DRAFT_ADMIN&#45;&gt;DTEL&#45;SDRAFT_OPERATION_CODE</title>
<path fill="none" stroke="black" d="M816.7,-143.7C816.7,-135.98 816.7,-126.71 816.7,-118.11"/>
<polygon fill="black" stroke="black" points="820.2,-118.1 816.7,-108.1 813.2,-118.1 820.2,-118.1"/>
</g>
<!-- DTEL&#45;SDRAFT_CONSISTENCY_STATUS -->
<g id="node7" class="node">
<title>DTEL&#45;SDRAFT_CONSISTENCY_STATUS</title>
<g id="a_node7"><a xlink:href="./DTEL_SDRAFT_CONSISTENCY_STATUS.html" xlink:title="DTEL&#45;SDRAFT_CONSISTENCY_STATUS">
<polygon fill="none" stroke="yellow" points="1228.61,-108 954.79,-108 954.79,-72 1228.61,-72 1228.61,-108"/>
<text text-anchor="middle" x="1091.7" y="-85.8" font-family="Times,serif" font-size="14.00">DTEL&#45;SDRAFT_CONSISTENCY_STATUS</text>
</a>
</g>
</g>
<!-- TABL&#45;SDRAFT_WRITE_DRAFT_ADMIN&#45;&gt;DTEL&#45;SDRAFT_CONSISTENCY_STATUS -->
<g id="edge12" class="edge">
<title>TABL&#45;SDRAFT_WRITE_DRAFT_ADMIN&#45;&gt;DTEL&#45;SDRAFT_CONSISTENCY_STATUS</title>
<path fill="none" stroke="black" d="M883.62,-143.97C923.22,-133.89 973.52,-121.08 1014.75,-110.59"/>
<polygon fill="black" stroke="black" points="1015.65,-113.97 1024.48,-108.11 1013.93,-107.19 1015.65,-113.97"/>
</g>
<!-- DTEL&#45;SDRAFT_ADMIN_UUID -->
<g id="node9" class="node">
<title>DTEL&#45;SDRAFT_ADMIN_UUID</title>
<g id="a_node9"><a xlink:href="./DTEL_SDRAFT_ADMIN_UUID.html" xlink:title="DTEL&#45;SDRAFT_ADMIN_UUID">
<polygon fill="none" stroke="yellow" points="1453.2,-108 1246.2,-108 1246.2,-72 1453.2,-72 1453.2,-108"/>
<text text-anchor="middle" x="1349.7" y="-85.8" font-family="Times,serif" font-size="14.00">DTEL&#45;SDRAFT_ADMIN_UUID</text>
</a>
</g>
</g>
<!-- TABL&#45;SDRAFT_WRITE_DRAFT_ADMIN&#45;&gt;DTEL&#45;SDRAFT_ADMIN_UUID -->
<g id="edge11" class="edge">
<title>TABL&#45;SDRAFT_WRITE_DRAFT_ADMIN&#45;&gt;DTEL&#45;SDRAFT_ADMIN_UUID</title>
<path fill="none" stroke="black" d="M951.43,-144.92C1031.45,-135.16 1135.18,-122.14 1236.2,-108.19"/>
<polygon fill="black" stroke="black" points="1236.86,-111.63 1246.28,-106.8 1235.89,-104.7 1236.86,-111.63"/>
</g>
<!-- DTEL&#45;SDRAFT_LAST_CHANGED_AT -->
<g id="node11" class="node">
<title>DTEL&#45;SDRAFT_LAST_CHANGED_AT</title>
<g id="a_node11"><a xlink:href="./DTEL_SDRAFT_LAST_CHANGED_AT.html" xlink:title="DTEL&#45;SDRAFT_LAST_CHANGED_AT">
<polygon fill="none" stroke="yellow" points="678.37,-108 425.03,-108 425.03,-72 678.37,-72 678.37,-108"/>
<text text-anchor="middle" x="551.7" y="-85.8" font-family="Times,serif" font-size="14.00">DTEL&#45;SDRAFT_LAST_CHANGED_AT</text>
</a>
</g>
</g>
<!-- TABL&#45;SDRAFT_WRITE_DRAFT_ADMIN&#45;&gt;DTEL&#45;SDRAFT_LAST_CHANGED_AT -->
<g id="edge10" class="edge">
<title>TABL&#45;SDRAFT_WRITE_DRAFT_ADMIN&#45;&gt;DTEL&#45;SDRAFT_LAST_CHANGED_AT</title>
<path fill="none" stroke="black" d="M752.21,-143.97C714.22,-133.93 665.99,-121.19 626.36,-110.72"/>
<polygon fill="black" stroke="black" points="627.04,-107.28 616.48,-108.11 625.25,-114.05 627.04,-107.28"/>
</g>
<!-- DTEL&#45;SDRAFT_CREATED_AT -->
<g id="node13" class="node">
<title>DTEL&#45;SDRAFT_CREATED_AT</title>
<g id="a_node13"><a xlink:href="./DTEL_SDRAFT_CREATED_AT.html" xlink:title="DTEL&#45;SDRAFT_CREATED_AT">
<polygon fill="none" stroke="yellow" points="407.5,-108 199.91,-108 199.91,-72 407.5,-72 407.5,-108"/>
<text text-anchor="middle" x="303.7" y="-85.8" font-family="Times,serif" font-size="14.00">DTEL&#45;SDRAFT_CREATED_AT</text>
</a>
</g>
</g>
<!-- TABL&#45;SDRAFT_WRITE_DRAFT_ADMIN&#45;&gt;DTEL&#45;SDRAFT_CREATED_AT -->
<g id="edge9" class="edge">
<title>TABL&#45;SDRAFT_WRITE_DRAFT_ADMIN&#45;&gt;DTEL&#45;SDRAFT_CREATED_AT</title>
<path fill="none" stroke="black" d="M682.95,-143.98C607.61,-134.23 511.52,-121.54 417.41,-108.23"/>
<polygon fill="black" stroke="black" points="417.82,-104.75 407.43,-106.82 416.84,-111.68 417.82,-104.75"/>
</g>
<!-- DOMA&#45;SDRAFT_OPERATION_CODE -->
<g id="node6" class="node">
<title>DOMA&#45;SDRAFT_OPERATION_CODE</title>
<g id="a_node6"><a xlink:href="./DOMA_SDRAFT_OPERATION_CODE.html" xlink:title="DOMA&#45;SDRAFT_OPERATION_CODE">
<polygon fill="none" stroke="yellow" points="936.71,-36 688.7,-36 688.7,0 936.71,0 936.71,-36"/>
<text text-anchor="middle" x="812.7" y="-13.8" font-family="Times,serif" font-size="14.00">DOMA&#45;SDRAFT_OPERATION_CODE</text>
</a>
</g>
</g>
<!-- DTEL&#45;SDRAFT_OPERATION_CODE&#45;&gt;DOMA&#45;SDRAFT_OPERATION_CODE -->
<g id="edge14" class="edge">
<title>DTEL&#45;SDRAFT_OPERATION_CODE&#45;&gt;DOMA&#45;SDRAFT_OPERATION_CODE</title>
<path fill="none" stroke="black" d="M815.71,-71.7C815.27,-63.98 814.74,-54.71 814.25,-46.11"/>
<polygon fill="black" stroke="black" points="817.74,-45.89 813.68,-36.1 810.76,-46.29 817.74,-45.89"/>
</g>
<!-- DOMA&#45;SDRAFT_CONSISTENCY_STATUS -->
<g id="node8" class="node">
<title>DOMA&#45;SDRAFT_CONSISTENCY_STATUS</title>
<g id="a_node8"><a xlink:href="./DOMA_SDRAFT_CONSISTENCY_STATUS.html" xlink:title="DOMA&#45;SDRAFT_CONSISTENCY_STATUS">
<polygon fill="none" stroke="yellow" points="1235.11,-36 954.29,-36 954.29,0 1235.11,0 1235.11,-36"/>
<text text-anchor="middle" x="1094.7" y="-13.8" font-family="Times,serif" font-size="14.00">DOMA&#45;SDRAFT_CONSISTENCY_STATUS</text>
</a>
</g>
</g>
<!-- DTEL&#45;SDRAFT_CONSISTENCY_STATUS&#45;&gt;DOMA&#45;SDRAFT_CONSISTENCY_STATUS -->
<g id="edge15" class="edge">
<title>DTEL&#45;SDRAFT_CONSISTENCY_STATUS&#45;&gt;DOMA&#45;SDRAFT_CONSISTENCY_STATUS</title>
<path fill="none" stroke="black" d="M1092.44,-71.7C1092.77,-63.98 1093.17,-54.71 1093.54,-46.11"/>
<polygon fill="black" stroke="black" points="1097.04,-46.25 1093.97,-36.1 1090.04,-45.95 1097.04,-46.25"/>
</g>
<!-- DOMA&#45;SYSUUID -->
<g id="node10" class="node">
<title>DOMA&#45;SYSUUID</title>
<g id="a_node10"><a xlink:href="./DOMA_SYSUUID.html" xlink:title="DOMA&#45;SYSUUID">
<polygon fill="none" stroke="yellow" points="1542.78,-36 1418.62,-36 1418.62,0 1542.78,0 1542.78,-36"/>
<text text-anchor="middle" x="1480.7" y="-13.8" font-family="Times,serif" font-size="14.00">DOMA&#45;SYSUUID</text>
</a>
</g>
</g>
<!-- DTEL&#45;SDRAFT_ADMIN_UUID&#45;&gt;DOMA&#45;SYSUUID -->
<g id="edge16" class="edge">
<title>DTEL&#45;SDRAFT_ADMIN_UUID&#45;&gt;DOMA&#45;SYSUUID</title>
<path fill="none" stroke="black" d="M1381.75,-71.88C1399.19,-62.55 1420.97,-50.92 1439.64,-40.94"/>
<polygon fill="black" stroke="black" points="1441.36,-43.99 1448.53,-36.19 1438.06,-37.82 1441.36,-43.99"/>
</g>
<!-- DOMA&#45;TZNTSTMPL -->
<g id="node12" class="node">
<title>DOMA&#45;TZNTSTMPL</title>
<g id="a_node12"><a xlink:href="./DOMA_TZNTSTMPL.html" xlink:title="DOMA&#45;TZNTSTMPL">
<polygon fill="none" stroke="yellow" points="376.01,-36 231.4,-36 231.4,0 376.01,0 376.01,-36"/>
<text text-anchor="middle" x="303.7" y="-13.8" font-family="Times,serif" font-size="14.00">DOMA&#45;TZNTSTMPL</text>
</a>
</g>
</g>
<!-- DTEL&#45;SDRAFT_LAST_CHANGED_AT&#45;&gt;DOMA&#45;TZNTSTMPL -->
<g id="edge17" class="edge">
<title>DTEL&#45;SDRAFT_LAST_CHANGED_AT&#45;&gt;DOMA&#45;TZNTSTMPL</title>
<path fill="none" stroke="black" d="M491.35,-71.97C455.95,-61.97 411.04,-49.3 374.04,-38.85"/>
<polygon fill="black" stroke="black" points="374.9,-35.46 364.32,-36.11 373,-42.2 374.9,-35.46"/>
</g>
<!-- DTEL&#45;SDRAFT_CREATED_AT&#45;&gt;DOMA&#45;TZNTSTMPL -->
<g id="edge18" class="edge">
<title>DTEL&#45;SDRAFT_CREATED_AT&#45;&gt;DOMA&#45;TZNTSTMPL</title>
<path fill="none" stroke="black" d="M303.7,-71.7C303.7,-63.98 303.7,-54.71 303.7,-46.11"/>
<polygon fill="black" stroke="black" points="307.2,-46.1 303.7,-36.1 300.2,-46.1 307.2,-46.1"/>
</g>
<!-- DTEL&#45;SDRAFT_HAS_ACTIVE&#45;&gt;DOMA&#45;BOOLE -->
<g id="edge19" class="edge">
<title>DTEL&#45;SDRAFT_HAS_ACTIVE&#45;&gt;DOMA&#45;BOOLE</title>
<path fill="none" stroke="black" d="M98.49,-143.7C97.06,-135.98 95.33,-126.71 93.74,-118.11"/>
<polygon fill="black" stroke="black" points="97.15,-117.3 91.88,-108.1 90.26,-118.58 97.15,-117.3"/>
</g>
<!-- DTEL&#45;/BOBF/UUID&#45;&gt;DOMA&#45;SYSUUID -->
<g id="edge20" class="edge">
<title>DTEL&#45;/BOBF/UUID&#45;&gt;DOMA&#45;SYSUUID</title>
<path fill="none" stroke="black" d="M1215.67,-151.5C1305.31,-138.68 1452.84,-116.48 1461.7,-108 1478.14,-92.25 1482.1,-66.03 1482.41,-46.12"/>
<polygon fill="black" stroke="black" points="1485.91,-46.05 1482.28,-36.09 1478.91,-46.14 1485.91,-46.05"/>
</g>
<!-- DTEL&#45;TIMESTAMPL&#45;&gt;DOMA&#45;TZNTSTMPL -->
<g id="edge21" class="edge">
<title>DTEL&#45;TIMESTAMPL&#45;&gt;DOMA&#45;TZNTSTMPL</title>
<path fill="none" stroke="black" d="M504.84,-149.25C493.1,-147.44 481.07,-145.63 469.7,-144 407.82,-135.14 231.98,-154.95 190.7,-108 180.14,-95.98 182.12,-85.5 190.7,-72 199.41,-58.29 212.71,-48.07 227.16,-40.47"/>
<polygon fill="black" stroke="black" points="228.79,-43.56 236.27,-36.06 225.74,-37.26 228.79,-43.56"/>
</g>
<!-- DOMA&#45;UNAME -->
<g id="node18" class="node">
<title>DOMA&#45;UNAME</title>
<g id="a_node18"><a xlink:href="./DOMA_UNAME.html" xlink:title="DOMA&#45;UNAME">
<polygon fill="none" stroke="yellow" points="1660.94,-108 1546.46,-108 1546.46,-72 1660.94,-72 1660.94,-108"/>
<text text-anchor="middle" x="1603.7" y="-85.8" font-family="Times,serif" font-size="14.00">DOMA&#45;UNAME</text>
</a>
</g>
</g>
<!-- DTEL&#45;UNAME&#45;&gt;DOMA&#45;UNAME -->
<g id="edge22" class="edge">
<title>DTEL&#45;UNAME&#45;&gt;DOMA&#45;UNAME</title>
<path fill="none" stroke="black" d="M1582.62,-143.7C1585.78,-135.81 1589.58,-126.3 1593.08,-117.55"/>
<polygon fill="black" stroke="black" points="1596.4,-118.69 1596.86,-108.1 1589.9,-116.09 1596.4,-118.69"/>
</g>
<!-- DTEL&#45;BU_PARTNER_GUID&#45;&gt;DOMA&#45;SYSUUID -->
<g id="edge23" class="edge">
<title>DTEL&#45;BU_PARTNER_GUID&#45;&gt;DOMA&#45;SYSUUID</title>
<path fill="none" stroke="black" d="M1449.26,-143.94C1467.05,-136.02 1484.23,-124.54 1494.7,-108 1506.47,-89.4 1501.08,-64.36 1493.83,-45.58"/>
<polygon fill="black" stroke="black" points="1496.95,-43.98 1489.83,-36.13 1490.5,-46.7 1496.95,-43.98"/>
</g>
</g>
</svg>
