<?xml version="1.0" encoding="UTF-8" standalone="no"?>
<!DOCTYPE svg PUBLIC "-//W3C//DTD SVG 1.1//EN"
 "http://www.w3.org/Graphics/SVG/1.1/DTD/svg11.dtd">
<!-- Generated by graphviz version 2.47.3 (20210619.1520)
 -->
<!-- Title: G Pages: 1 -->
<svg width="979pt" height="260pt"
 viewBox="0.00 0.00 979.24 260.00" xmlns="http://www.w3.org/2000/svg" xmlns:xlink="http://www.w3.org/1999/xlink">
<g id="graph0" class="graph" transform="scale(1 1) rotate(0) translate(4 256)">
<title>G</title>
<polygon fill="white" stroke="transparent" points="-4,4 -4,-256 975.24,-256 975.24,4 -4,4"/>
<!-- TABL&#45;CMIS_S_PROPERTY_VALUE -->
<g id="node1" class="node">
<title>TABL&#45;CMIS_S_PROPERTY_VALUE</title>
<polygon fill="none" stroke="green" points="714.84,-252 475.45,-252 475.45,-216 714.84,-216 714.84,-252"/>
<text text-anchor="middle" x="595.14" y="-229.8" font-family="Times,serif" font-size="14.00">TABL&#45;CMIS_S_PROPERTY_VALUE</text>
</g>
<!-- TABL&#45;CMIS_S_DATE_TIME -->
<g id="node2" class="node">
<title>TABL&#45;CMIS_S_DATE_TIME</title>
<g id="a_node2"><a xlink:href="./TABL_CMIS_S_DATE_TIME.html" xlink:title="TABL&#45;CMIS_S_DATE_TIME">
<polygon fill="none" stroke="green" points="328.89,-180 137.4,-180 137.4,-144 328.89,-144 328.89,-180"/>
<text text-anchor="middle" x="233.14" y="-157.8" font-family="Times,serif" font-size="14.00">TABL&#45;CMIS_S_DATE_TIME</text>
</a>
</g>
</g>
<!-- TABL&#45;CMIS_S_PROPERTY_VALUE&#45;&gt;TABL&#45;CMIS_S_DATE_TIME -->
<g id="edge5" class="edge">
<title>TABL&#45;CMIS_S_PROPERTY_VALUE&#45;&gt;TABL&#45;CMIS_S_DATE_TIME</title>
<path fill="none" stroke="black" d="M507.05,-215.97C453.96,-205.7 386.22,-192.6 331.4,-182"/>
<polygon fill="black" stroke="black" points="331.8,-178.51 321.32,-180.05 330.47,-185.39 331.8,-178.51"/>
</g>
<!-- DTEL&#45;CMIS_DECIMAL -->
<g id="node9" class="node">
<title>DTEL&#45;CMIS_DECIMAL</title>
<g id="a_node9"><a xlink:href="./DTEL_CMIS_DECIMAL.html" xlink:title="DTEL&#45;CMIS_DECIMAL">
<polygon fill="none" stroke="green" points="509.05,-180 347.23,-180 347.23,-144 509.05,-144 509.05,-180"/>
<text text-anchor="middle" x="428.14" y="-157.8" font-family="Times,serif" font-size="14.00">DTEL&#45;CMIS_DECIMAL</text>
</a>
</g>
</g>
<!-- TABL&#45;CMIS_S_PROPERTY_VALUE&#45;&gt;DTEL&#45;CMIS_DECIMAL -->
<g id="edge4" class="edge">
<title>TABL&#45;CMIS_S_PROPERTY_VALUE&#45;&gt;DTEL&#45;CMIS_DECIMAL</title>
<path fill="none" stroke="black" d="M554.29,-215.88C531.36,-206.26 502.56,-194.19 478.27,-184.01"/>
<polygon fill="black" stroke="black" points="479.44,-180.71 468.86,-180.07 476.73,-187.16 479.44,-180.71"/>
</g>
<!-- DTEL&#45;CMIS_LONG -->
<g id="node10" class="node">
<title>DTEL&#45;CMIS_LONG</title>
<g id="a_node10"><a xlink:href="./DTEL_CMIS_LONG.html" xlink:title="DTEL&#45;CMIS_LONG">
<polygon fill="none" stroke="green" points="663.17,-180 527.12,-180 527.12,-144 663.17,-144 663.17,-180"/>
<text text-anchor="middle" x="595.14" y="-157.8" font-family="Times,serif" font-size="14.00">DTEL&#45;CMIS_LONG</text>
</a>
</g>
</g>
<!-- TABL&#45;CMIS_S_PROPERTY_VALUE&#45;&gt;DTEL&#45;CMIS_LONG -->
<g id="edge3" class="edge">
<title>TABL&#45;CMIS_S_PROPERTY_VALUE&#45;&gt;DTEL&#45;CMIS_LONG</title>
<path fill="none" stroke="black" d="M595.14,-215.7C595.14,-207.98 595.14,-198.71 595.14,-190.11"/>
<polygon fill="black" stroke="black" points="598.64,-190.1 595.14,-180.1 591.64,-190.1 598.64,-190.1"/>
</g>
<!-- DTEL&#45;BOOLEAN -->
<g id="node11" class="node">
<title>DTEL&#45;BOOLEAN</title>
<g id="a_node11"><a xlink:href="./DTEL_BOOLEAN.html" xlink:title="DTEL&#45;BOOLEAN">
<polygon fill="none" stroke="yellow" points="804.94,-180 681.35,-180 681.35,-144 804.94,-144 804.94,-180"/>
<text text-anchor="middle" x="743.14" y="-157.8" font-family="Times,serif" font-size="14.00">DTEL&#45;BOOLEAN</text>
</a>
</g>
</g>
<!-- TABL&#45;CMIS_S_PROPERTY_VALUE&#45;&gt;DTEL&#45;BOOLEAN -->
<g id="edge2" class="edge">
<title>TABL&#45;CMIS_S_PROPERTY_VALUE&#45;&gt;DTEL&#45;BOOLEAN</title>
<path fill="none" stroke="black" d="M631.35,-215.88C651.4,-206.39 676.52,-194.51 697.86,-184.42"/>
<polygon fill="black" stroke="black" points="699.51,-187.51 707.06,-180.07 696.52,-181.18 699.51,-187.51"/>
</g>
<!-- DTEL&#45;CMIS_STRING -->
<g id="node13" class="node">
<title>DTEL&#45;CMIS_STRING</title>
<g id="a_node13"><a xlink:href="./DTEL_CMIS_STRING.html" xlink:title="DTEL&#45;CMIS_STRING">
<polygon fill="none" stroke="green" points="971.34,-180 822.95,-180 822.95,-144 971.34,-144 971.34,-180"/>
<text text-anchor="middle" x="897.14" y="-157.8" font-family="Times,serif" font-size="14.00">DTEL&#45;CMIS_STRING</text>
</a>
</g>
</g>
<!-- TABL&#45;CMIS_S_PROPERTY_VALUE&#45;&gt;DTEL&#45;CMIS_STRING -->
<g id="edge1" class="edge">
<title>TABL&#45;CMIS_S_PROPERTY_VALUE&#45;&gt;DTEL&#45;CMIS_STRING</title>
<path fill="none" stroke="black" d="M668.64,-215.97C712.47,-205.8 768.27,-192.87 813.75,-182.33"/>
<polygon fill="black" stroke="black" points="814.63,-185.72 823.59,-180.05 813.05,-178.9 814.63,-185.72"/>
</g>
<!-- DTEL&#45;TZNUTCSIGN -->
<g id="node3" class="node">
<title>DTEL&#45;TZNUTCSIGN</title>
<g id="a_node3"><a xlink:href="./DTEL_TZNUTCSIGN.html" xlink:title="DTEL&#45;TZNUTCSIGN">
<polygon fill="none" stroke="yellow" points="144.43,-108 -0.14,-108 -0.14,-72 144.43,-72 144.43,-108"/>
<text text-anchor="middle" x="72.14" y="-85.8" font-family="Times,serif" font-size="14.00">DTEL&#45;TZNUTCSIGN</text>
</a>
</g>
</g>
<!-- TABL&#45;CMIS_S_DATE_TIME&#45;&gt;DTEL&#45;TZNUTCSIGN -->
<g id="edge8" class="edge">
<title>TABL&#45;CMIS_S_DATE_TIME&#45;&gt;DTEL&#45;TZNUTCSIGN</title>
<path fill="none" stroke="black" d="M193.76,-143.88C171.75,-134.31 144.13,-122.3 120.78,-112.15"/>
<polygon fill="black" stroke="black" points="121.97,-108.85 111.4,-108.07 119.18,-115.27 121.97,-108.85"/>
</g>
<!-- DTEL&#45;TZNUTCDIFF -->
<g id="node5" class="node">
<title>DTEL&#45;TZNUTCDIFF</title>
<g id="a_node5"><a xlink:href="./DTEL_TZNUTCDIFF.html" xlink:title="DTEL&#45;TZNUTCDIFF">
<polygon fill="none" stroke="yellow" points="304.11,-108 162.18,-108 162.18,-72 304.11,-72 304.11,-108"/>
<text text-anchor="middle" x="233.14" y="-85.8" font-family="Times,serif" font-size="14.00">DTEL&#45;TZNUTCDIFF</text>
</a>
</g>
</g>
<!-- TABL&#45;CMIS_S_DATE_TIME&#45;&gt;DTEL&#45;TZNUTCDIFF -->
<g id="edge7" class="edge">
<title>TABL&#45;CMIS_S_DATE_TIME&#45;&gt;DTEL&#45;TZNUTCDIFF</title>
<path fill="none" stroke="black" d="M233.14,-143.7C233.14,-135.98 233.14,-126.71 233.14,-118.11"/>
<polygon fill="black" stroke="black" points="236.64,-118.1 233.14,-108.1 229.64,-118.1 236.64,-118.1"/>
</g>
<!-- DTEL&#45;TIMESTAMPL -->
<g id="node7" class="node">
<title>DTEL&#45;TIMESTAMPL</title>
<g id="a_node7"><a xlink:href="./DTEL_TIMESTAMPL.html" xlink:title="DTEL&#45;TIMESTAMPL">
<polygon fill="none" stroke="green" points="469,-108 323.29,-108 323.29,-72 469,-72 469,-108"/>
<text text-anchor="middle" x="396.14" y="-85.8" font-family="Times,serif" font-size="14.00">DTEL&#45;TIMESTAMPL</text>
</a>
</g>
</g>
<!-- TABL&#45;CMIS_S_DATE_TIME&#45;&gt;DTEL&#45;TIMESTAMPL -->
<g id="edge6" class="edge">
<title>TABL&#45;CMIS_S_DATE_TIME&#45;&gt;DTEL&#45;TIMESTAMPL</title>
<path fill="none" stroke="black" d="M273.02,-143.88C295.3,-134.31 323.26,-122.3 346.9,-112.15"/>
<polygon fill="black" stroke="black" points="348.59,-115.23 356.4,-108.07 345.83,-108.8 348.59,-115.23"/>
</g>
<!-- DOMA&#45;TZNSIGN -->
<g id="node4" class="node">
<title>DOMA&#45;TZNSIGN</title>
<g id="a_node4"><a xlink:href="./DOMA_TZNSIGN.html" xlink:title="DOMA&#45;TZNSIGN">
<polygon fill="none" stroke="yellow" points="133.94,-36 10.35,-36 10.35,0 133.94,0 133.94,-36"/>
<text text-anchor="middle" x="72.14" y="-13.8" font-family="Times,serif" font-size="14.00">DOMA&#45;TZNSIGN</text>
</a>
</g>
</g>
<!-- DTEL&#45;TZNUTCSIGN&#45;&gt;DOMA&#45;TZNSIGN -->
<g id="edge9" class="edge">
<title>DTEL&#45;TZNUTCSIGN&#45;&gt;DOMA&#45;TZNSIGN</title>
<path fill="none" stroke="black" d="M72.14,-71.7C72.14,-63.98 72.14,-54.71 72.14,-46.11"/>
<polygon fill="black" stroke="black" points="75.64,-46.1 72.14,-36.1 68.64,-46.1 75.64,-46.1"/>
</g>
<!-- DOMA&#45;TZNTIMDIFF -->
<g id="node6" class="node">
<title>DOMA&#45;TZNTIMDIFF</title>
<g id="a_node6"><a xlink:href="./DOMA_TZNTIMDIFF.html" xlink:title="DOMA&#45;TZNTIMDIFF">
<polygon fill="none" stroke="yellow" points="306.27,-36 160.02,-36 160.02,0 306.27,0 306.27,-36"/>
<text text-anchor="middle" x="233.14" y="-13.8" font-family="Times,serif" font-size="14.00">DOMA&#45;TZNTIMDIFF</text>
</a>
</g>
</g>
<!-- DTEL&#45;TZNUTCDIFF&#45;&gt;DOMA&#45;TZNTIMDIFF -->
<g id="edge10" class="edge">
<title>DTEL&#45;TZNUTCDIFF&#45;&gt;DOMA&#45;TZNTIMDIFF</title>
<path fill="none" stroke="black" d="M233.14,-71.7C233.14,-63.98 233.14,-54.71 233.14,-46.11"/>
<polygon fill="black" stroke="black" points="236.64,-46.1 233.14,-36.1 229.64,-46.1 236.64,-46.1"/>
</g>
<!-- DOMA&#45;TZNTSTMPL -->
<g id="node8" class="node">
<title>DOMA&#45;TZNTSTMPL</title>
<g id="a_node8"><a xlink:href="./DOMA_TZNTSTMPL.html" xlink:title="DOMA&#45;TZNTSTMPL">
<polygon fill="none" stroke="yellow" points="468.45,-36 323.84,-36 323.84,0 468.45,0 468.45,-36"/>
<text text-anchor="middle" x="396.14" y="-13.8" font-family="Times,serif" font-size="14.00">DOMA&#45;TZNTSTMPL</text>
</a>
</g>
</g>
<!-- DTEL&#45;TIMESTAMPL&#45;&gt;DOMA&#45;TZNTSTMPL -->
<g id="edge11" class="edge">
<title>DTEL&#45;TIMESTAMPL&#45;&gt;DOMA&#45;TZNTSTMPL</title>
<path fill="none" stroke="black" d="M396.14,-71.7C396.14,-63.98 396.14,-54.71 396.14,-46.11"/>
<polygon fill="black" stroke="black" points="399.64,-46.1 396.14,-36.1 392.64,-46.1 399.64,-46.1"/>
</g>
<!-- DOMA&#45;BOOLEAN -->
<g id="node12" class="node">
<title>DOMA&#45;BOOLEAN</title>
<g id="a_node12"><a xlink:href="./DOMA_BOOLEAN.html" xlink:title="DOMA&#45;BOOLEAN">
<polygon fill="none" stroke="yellow" points="808.44,-108 677.85,-108 677.85,-72 808.44,-72 808.44,-108"/>
<text text-anchor="middle" x="743.14" y="-85.8" font-family="Times,serif" font-size="14.00">DOMA&#45;BOOLEAN</text>
</a>
</g>
</g>
<!-- DTEL&#45;BOOLEAN&#45;&gt;DOMA&#45;BOOLEAN -->
<g id="edge12" class="edge">
<title>DTEL&#45;BOOLEAN&#45;&gt;DOMA&#45;BOOLEAN</title>
<path fill="none" stroke="black" d="M743.14,-143.7C743.14,-135.98 743.14,-126.71 743.14,-118.11"/>
<polygon fill="black" stroke="black" points="746.64,-118.1 743.14,-108.1 739.64,-118.1 746.64,-118.1"/>
</g>
</g>
</svg>
