<?xml version="1.0" encoding="UTF-8" standalone="no"?>
<!DOCTYPE svg PUBLIC "-//W3C//DTD SVG 1.1//EN"
 "http://www.w3.org/Graphics/SVG/1.1/DTD/svg11.dtd">
<!-- Generated by graphviz version 2.47.3 (20210619.1520)
 -->
<!-- Title: G Pages: 1 -->
<svg width="1646pt" height="188pt"
 viewBox="0.00 0.00 1646.23 188.00" xmlns="http://www.w3.org/2000/svg" xmlns:xlink="http://www.w3.org/1999/xlink">
<g id="graph0" class="graph" transform="scale(1 1) rotate(0) translate(4 184)">
<title>G</title>
<polygon fill="white" stroke="transparent" points="-4,4 -4,-184 1642.23,-184 1642.23,4 -4,4"/>
<!-- TABL&#45;APS_IAM_BR_FLDS_DATA -->
<g id="node1" class="node">
<title>TABL&#45;APS_IAM_BR_FLDS_DATA</title>
<polygon fill="none" stroke="yellow" points="1044.89,-180 815.16,-180 815.16,-144 1044.89,-144 1044.89,-180"/>
<text text-anchor="middle" x="930.03" y="-157.8" font-family="Times,serif" font-size="14.00">TABL&#45;APS_IAM_BR_FLDS_DATA</text>
</g>
<!-- DTEL&#45;APS_IAM_BROLE_CMN_INDICATOR -->
<g id="node2" class="node">
<title>DTEL&#45;APS_IAM_BROLE_CMN_INDICATOR</title>
<g id="a_node2"><a xlink:href="./DTEL_APS_IAM_BROLE_CMN_INDICATOR.html" xlink:title="DTEL&#45;APS_IAM_BROLE_CMN_INDICATOR">
<polygon fill="none" stroke="yellow" points="292.08,-108 -0.03,-108 -0.03,-72 292.08,-72 292.08,-108"/>
<text text-anchor="middle" x="146.03" y="-85.8" font-family="Times,serif" font-size="14.00">DTEL&#45;APS_IAM_BROLE_CMN_INDICATOR</text>
</a>
</g>
</g>
<!-- TABL&#45;APS_IAM_BR_FLDS_DATA&#45;&gt;DTEL&#45;APS_IAM_BROLE_CMN_INDICATOR -->
<g id="edge6" class="edge">
<title>TABL&#45;APS_IAM_BR_FLDS_DATA&#45;&gt;DTEL&#45;APS_IAM_BROLE_CMN_INDICATOR</title>
<path fill="none" stroke="black" d="M814.88,-152.17C690.97,-142.47 487.82,-125.99 302.66,-108.15"/>
<polygon fill="black" stroke="black" points="302.75,-104.64 292.46,-107.16 302.08,-111.61 302.75,-104.64"/>
</g>
<!-- DTEL&#45;APS_IAM_BROLE_STATUS_MAINT_RES -->
<g id="node4" class="node">
<title>DTEL&#45;APS_IAM_BROLE_STATUS_MAINT_RES</title>
<g id="a_node4"><a xlink:href="./DTEL_APS_IAM_BROLE_STATUS_MAINT_RES.html" xlink:title="DTEL&#45;APS_IAM_BROLE_STATUS_MAINT_RES">
<polygon fill="none" stroke="yellow" points="624.15,-108 309.91,-108 309.91,-72 624.15,-72 624.15,-108"/>
<text text-anchor="middle" x="467.03" y="-85.8" font-family="Times,serif" font-size="14.00">DTEL&#45;APS_IAM_BROLE_STATUS_MAINT_RES</text>
</a>
</g>
</g>
<!-- TABL&#45;APS_IAM_BR_FLDS_DATA&#45;&gt;DTEL&#45;APS_IAM_BROLE_STATUS_MAINT_RES -->
<g id="edge5" class="edge">
<title>TABL&#45;APS_IAM_BR_FLDS_DATA&#45;&gt;DTEL&#45;APS_IAM_BROLE_STATUS_MAINT_RES</title>
<path fill="none" stroke="black" d="M817.36,-143.97C748.6,-133.57 660.66,-120.27 590.08,-109.6"/>
<polygon fill="black" stroke="black" points="590.21,-106.08 579.8,-108.05 589.17,-113.01 590.21,-106.08"/>
</g>
<!-- DTEL&#45;APS_IAM_CAT_RTYPE_FIELD_NAME -->
<g id="node6" class="node">
<title>DTEL&#45;APS_IAM_CAT_RTYPE_FIELD_NAME</title>
<g id="a_node6"><a xlink:href="./DTEL_APS_IAM_CAT_RTYPE_FIELD_NAME.html" xlink:title="DTEL&#45;APS_IAM_CAT_RTYPE_FIELD_NAME">
<polygon fill="none" stroke="yellow" points="939.53,-108 642.53,-108 642.53,-72 939.53,-72 939.53,-108"/>
<text text-anchor="middle" x="791.03" y="-85.8" font-family="Times,serif" font-size="14.00">DTEL&#45;APS_IAM_CAT_RTYPE_FIELD_NAME</text>
</a>
</g>
</g>
<!-- TABL&#45;APS_IAM_BR_FLDS_DATA&#45;&gt;DTEL&#45;APS_IAM_CAT_RTYPE_FIELD_NAME -->
<g id="edge4" class="edge">
<title>TABL&#45;APS_IAM_BR_FLDS_DATA&#45;&gt;DTEL&#45;APS_IAM_CAT_RTYPE_FIELD_NAME</title>
<path fill="none" stroke="black" d="M896.02,-143.88C877.43,-134.51 854.2,-122.81 834.32,-112.8"/>
<polygon fill="black" stroke="black" points="835.67,-109.56 825.16,-108.19 832.52,-115.81 835.67,-109.56"/>
</g>
<!-- DTEL&#45;APS_IAM_CAT_RTYPE_ID -->
<g id="node8" class="node">
<title>DTEL&#45;APS_IAM_CAT_RTYPE_ID</title>
<g id="a_node8"><a xlink:href="./DTEL_APS_IAM_CAT_RTYPE_ID.html" xlink:title="DTEL&#45;APS_IAM_CAT_RTYPE_ID">
<polygon fill="none" stroke="yellow" points="1182.43,-108 957.62,-108 957.62,-72 1182.43,-72 1182.43,-108"/>
<text text-anchor="middle" x="1070.03" y="-85.8" font-family="Times,serif" font-size="14.00">DTEL&#45;APS_IAM_CAT_RTYPE_ID</text>
</a>
</g>
</g>
<!-- TABL&#45;APS_IAM_BR_FLDS_DATA&#45;&gt;DTEL&#45;APS_IAM_CAT_RTYPE_ID -->
<g id="edge3" class="edge">
<title>TABL&#45;APS_IAM_BR_FLDS_DATA&#45;&gt;DTEL&#45;APS_IAM_CAT_RTYPE_ID</title>
<path fill="none" stroke="black" d="M964.28,-143.88C983.09,-134.47 1006.61,-122.71 1026.69,-112.67"/>
<polygon fill="black" stroke="black" points="1028.27,-115.79 1035.65,-108.19 1025.14,-109.53 1028.27,-115.79"/>
</g>
<!-- DTEL&#45;APS_IAM_CAT_RTYPE_ACC_CAT_CODE -->
<g id="node10" class="node">
<title>DTEL&#45;APS_IAM_CAT_RTYPE_ACC_CAT_CODE</title>
<g id="a_node10"><a xlink:href="./DTEL_APS_IAM_CAT_RTYPE_ACC_CAT_CODE.html" xlink:title="DTEL&#45;APS_IAM_CAT_RTYPE_ACC_CAT_CODE">
<polygon fill="none" stroke="yellow" points="1518.04,-108 1200.01,-108 1200.01,-72 1518.04,-72 1518.04,-108"/>
<text text-anchor="middle" x="1359.03" y="-85.8" font-family="Times,serif" font-size="14.00">DTEL&#45;APS_IAM_CAT_RTYPE_ACC_CAT_CODE</text>
</a>
</g>
</g>
<!-- TABL&#45;APS_IAM_BR_FLDS_DATA&#45;&gt;DTEL&#45;APS_IAM_CAT_RTYPE_ACC_CAT_CODE -->
<g id="edge2" class="edge">
<title>TABL&#45;APS_IAM_BR_FLDS_DATA&#45;&gt;DTEL&#45;APS_IAM_CAT_RTYPE_ACC_CAT_CODE</title>
<path fill="none" stroke="black" d="M1034.42,-143.97C1098,-133.59 1179.28,-120.33 1244.61,-109.67"/>
<polygon fill="black" stroke="black" points="1245.23,-113.11 1254.53,-108.05 1244.1,-106.21 1245.23,-113.11"/>
</g>
<!-- DTEL&#45;UUID -->
<g id="node12" class="node">
<title>DTEL&#45;UUID</title>
<g id="a_node12"><a xlink:href="./DTEL_UUID.html" xlink:title="DTEL&#45;UUID">
<polygon fill="none" stroke="yellow" points="1631.93,-108 1540.12,-108 1540.12,-72 1631.93,-72 1631.93,-108"/>
<text text-anchor="middle" x="1586.03" y="-85.8" font-family="Times,serif" font-size="14.00">DTEL&#45;UUID</text>
</a>
</g>
</g>
<!-- TABL&#45;APS_IAM_BR_FLDS_DATA&#45;&gt;DTEL&#45;UUID -->
<g id="edge1" class="edge">
<title>TABL&#45;APS_IAM_BR_FLDS_DATA&#45;&gt;DTEL&#45;UUID</title>
<path fill="none" stroke="black" d="M1045.09,-157.33C1165.97,-151.96 1361.2,-138.96 1527.03,-108 1528.1,-107.8 1529.18,-107.59 1530.27,-107.37"/>
<polygon fill="black" stroke="black" points="1531.19,-110.75 1540.17,-105.13 1529.65,-103.92 1531.19,-110.75"/>
</g>
<!-- DOMA&#45;XFELD -->
<g id="node3" class="node">
<title>DOMA&#45;XFELD</title>
<g id="a_node3"><a xlink:href="./DOMA_XFELD.html" xlink:title="DOMA&#45;XFELD">
<polygon fill="none" stroke="yellow" points="200.05,-36 92,-36 92,0 200.05,0 200.05,-36"/>
<text text-anchor="middle" x="146.03" y="-13.8" font-family="Times,serif" font-size="14.00">DOMA&#45;XFELD</text>
</a>
</g>
</g>
<!-- DTEL&#45;APS_IAM_BROLE_CMN_INDICATOR&#45;&gt;DOMA&#45;XFELD -->
<g id="edge7" class="edge">
<title>DTEL&#45;APS_IAM_BROLE_CMN_INDICATOR&#45;&gt;DOMA&#45;XFELD</title>
<path fill="none" stroke="black" d="M146.03,-71.7C146.03,-63.98 146.03,-54.71 146.03,-46.11"/>
<polygon fill="black" stroke="black" points="149.53,-46.1 146.03,-36.1 142.53,-46.1 149.53,-46.1"/>
</g>
<!-- DOMA&#45;APS_IAM_BROLE_STATUS_MAINT_RES -->
<g id="node5" class="node">
<title>DOMA&#45;APS_IAM_BROLE_STATUS_MAINT_RES</title>
<g id="a_node5"><a xlink:href="./DOMA_APS_IAM_BROLE_STATUS_MAINT_RES.html" xlink:title="DOMA&#45;APS_IAM_BROLE_STATUS_MAINT_RES">
<polygon fill="none" stroke="yellow" points="627.65,-36 306.41,-36 306.41,0 627.65,0 627.65,-36"/>
<text text-anchor="middle" x="467.03" y="-13.8" font-family="Times,serif" font-size="14.00">DOMA&#45;APS_IAM_BROLE_STATUS_MAINT_RES</text>
</a>
</g>
</g>
<!-- DTEL&#45;APS_IAM_BROLE_STATUS_MAINT_RES&#45;&gt;DOMA&#45;APS_IAM_BROLE_STATUS_MAINT_RES -->
<g id="edge8" class="edge">
<title>DTEL&#45;APS_IAM_BROLE_STATUS_MAINT_RES&#45;&gt;DOMA&#45;APS_IAM_BROLE_STATUS_MAINT_RES</title>
<path fill="none" stroke="black" d="M467.03,-71.7C467.03,-63.98 467.03,-54.71 467.03,-46.11"/>
<polygon fill="black" stroke="black" points="470.53,-46.1 467.03,-36.1 463.53,-46.1 470.53,-46.1"/>
</g>
<!-- DOMA&#45;FDNAME -->
<g id="node7" class="node">
<title>DOMA&#45;FDNAME</title>
<g id="a_node7"><a xlink:href="./DOMA_FDNAME.html" xlink:title="DOMA&#45;FDNAME">
<polygon fill="none" stroke="yellow" points="852.05,-36 730,-36 730,0 852.05,0 852.05,-36"/>
<text text-anchor="middle" x="791.03" y="-13.8" font-family="Times,serif" font-size="14.00">DOMA&#45;FDNAME</text>
</a>
</g>
</g>
<!-- DTEL&#45;APS_IAM_CAT_RTYPE_FIELD_NAME&#45;&gt;DOMA&#45;FDNAME -->
<g id="edge9" class="edge">
<title>DTEL&#45;APS_IAM_CAT_RTYPE_FIELD_NAME&#45;&gt;DOMA&#45;FDNAME</title>
<path fill="none" stroke="black" d="M791.03,-71.7C791.03,-63.98 791.03,-54.71 791.03,-46.11"/>
<polygon fill="black" stroke="black" points="794.53,-46.1 791.03,-36.1 787.53,-46.1 794.53,-46.1"/>
</g>
<!-- DOMA&#45;APS_IAM_CAT_RTYPE_ID -->
<g id="node9" class="node">
<title>DOMA&#45;APS_IAM_CAT_RTYPE_ID</title>
<g id="a_node9"><a xlink:href="./DOMA_APS_IAM_CAT_RTYPE_ID.html" xlink:title="DOMA&#45;APS_IAM_CAT_RTYPE_ID">
<polygon fill="none" stroke="yellow" points="1178.93,-36 947.12,-36 947.12,0 1178.93,0 1178.93,-36"/>
<text text-anchor="middle" x="1063.03" y="-13.8" font-family="Times,serif" font-size="14.00">DOMA&#45;APS_IAM_CAT_RTYPE_ID</text>
</a>
</g>
</g>
<!-- DTEL&#45;APS_IAM_CAT_RTYPE_ID&#45;&gt;DOMA&#45;APS_IAM_CAT_RTYPE_ID -->
<g id="edge10" class="edge">
<title>DTEL&#45;APS_IAM_CAT_RTYPE_ID&#45;&gt;DOMA&#45;APS_IAM_CAT_RTYPE_ID</title>
<path fill="none" stroke="black" d="M1068.3,-71.7C1067.53,-63.98 1066.6,-54.71 1065.74,-46.11"/>
<polygon fill="black" stroke="black" points="1069.22,-45.71 1064.74,-36.1 1062.25,-46.4 1069.22,-45.71"/>
</g>
<!-- DOMA&#45;APS_IAM_CAT_RTYPE_ACC_CAT_CODE -->
<g id="node11" class="node">
<title>DOMA&#45;APS_IAM_CAT_RTYPE_ACC_CAT_CODE</title>
<g id="a_node11"><a xlink:href="./DOMA_APS_IAM_CAT_RTYPE_ACC_CAT_CODE.html" xlink:title="DOMA&#45;APS_IAM_CAT_RTYPE_ACC_CAT_CODE">
<polygon fill="none" stroke="yellow" points="1521.54,-36 1196.51,-36 1196.51,0 1521.54,0 1521.54,-36"/>
<text text-anchor="middle" x="1359.03" y="-13.8" font-family="Times,serif" font-size="14.00">DOMA&#45;APS_IAM_CAT_RTYPE_ACC_CAT_CODE</text>
</a>
</g>
</g>
<!-- DTEL&#45;APS_IAM_CAT_RTYPE_ACC_CAT_CODE&#45;&gt;DOMA&#45;APS_IAM_CAT_RTYPE_ACC_CAT_CODE -->
<g id="edge11" class="edge">
<title>DTEL&#45;APS_IAM_CAT_RTYPE_ACC_CAT_CODE&#45;&gt;DOMA&#45;APS_IAM_CAT_RTYPE_ACC_CAT_CODE</title>
<path fill="none" stroke="black" d="M1359.03,-71.7C1359.03,-63.98 1359.03,-54.71 1359.03,-46.11"/>
<polygon fill="black" stroke="black" points="1362.53,-46.1 1359.03,-36.1 1355.53,-46.1 1362.53,-46.1"/>
</g>
<!-- DOMA&#45;UUID -->
<g id="node13" class="node">
<title>DOMA&#45;UUID</title>
<g id="a_node13"><a xlink:href="./DOMA_UUID.html" xlink:title="DOMA&#45;UUID">
<polygon fill="none" stroke="yellow" points="1638.43,-36 1539.62,-36 1539.62,0 1638.43,0 1638.43,-36"/>
<text text-anchor="middle" x="1589.03" y="-13.8" font-family="Times,serif" font-size="14.00">DOMA&#45;UUID</text>
</a>
</g>
</g>
<!-- DTEL&#45;UUID&#45;&gt;DOMA&#45;UUID -->
<g id="edge12" class="edge">
<title>DTEL&#45;UUID&#45;&gt;DOMA&#45;UUID</title>
<path fill="none" stroke="black" d="M1586.77,-71.7C1587.1,-63.98 1587.5,-54.71 1587.87,-46.11"/>
<polygon fill="black" stroke="black" points="1591.36,-46.25 1588.29,-36.1 1584.37,-45.95 1591.36,-46.25"/>
</g>
</g>
</svg>
