<?xml version="1.0" encoding="UTF-8" standalone="no"?>
<!DOCTYPE svg PUBLIC "-//W3C//DTD SVG 1.1//EN"
 "http://www.w3.org/Graphics/SVG/1.1/DTD/svg11.dtd">
<!-- Generated by graphviz version 2.47.3 (20210619.1520)
 -->
<!-- Title: G Pages: 1 -->
<svg width="3383pt" height="260pt"
 viewBox="0.00 0.00 3383.50 260.00" xmlns="http://www.w3.org/2000/svg" xmlns:xlink="http://www.w3.org/1999/xlink">
<g id="graph0" class="graph" transform="scale(1 1) rotate(0) translate(4 256)">
<title>G</title>
<polygon fill="white" stroke="transparent" points="-4,4 -4,-256 3379.5,-256 3379.5,4 -4,4"/>
<!-- TABL&#45;APS_IAM_W_BU_CAT -->
<g id="node1" class="node">
<title>TABL&#45;APS_IAM_W_BU_CAT</title>
<polygon fill="none" stroke="yellow" points="2283.05,-252 2084.56,-252 2084.56,-216 2283.05,-216 2283.05,-252"/>
<text text-anchor="middle" x="2183.81" y="-229.8" font-family="Times,serif" font-size="14.00">TABL&#45;APS_IAM_W_BU_CAT</text>
</g>
<!-- TABL&#45;APS_IAM_ADMIN_DATA -->
<g id="node2" class="node">
<title>TABL&#45;APS_IAM_ADMIN_DATA</title>
<g id="a_node2"><a xlink:href="./TABL_APS_IAM_ADMIN_DATA.html" xlink:title="TABL&#45;APS_IAM_ADMIN_DATA">
<polygon fill="none" stroke="yellow" points="817.7,-180 599.91,-180 599.91,-144 817.7,-144 817.7,-180"/>
<text text-anchor="middle" x="708.81" y="-157.8" font-family="Times,serif" font-size="14.00">TABL&#45;APS_IAM_ADMIN_DATA</text>
</a>
</g>
</g>
<!-- TABL&#45;APS_IAM_W_BU_CAT&#45;&gt;TABL&#45;APS_IAM_ADMIN_DATA -->
<g id="edge10" class="edge">
<title>TABL&#45;APS_IAM_W_BU_CAT&#45;&gt;TABL&#45;APS_IAM_ADMIN_DATA</title>
<path fill="none" stroke="black" d="M2084.44,-228.46C1887.2,-219.42 1432.21,-198.47 1049.81,-180 976.18,-176.44 893.63,-172.33 828.19,-169.04"/>
<polygon fill="black" stroke="black" points="828,-165.53 817.84,-168.52 827.65,-172.52 828,-165.53"/>
</g>
<!-- DTEL&#45;ABAP_LANGUAGE_VERSION -->
<g id="node9" class="node">
<title>DTEL&#45;ABAP_LANGUAGE_VERSION</title>
<g id="a_node9"><a xlink:href="./DTEL_ABAP_LANGUAGE_VERSION.html" xlink:title="DTEL&#45;ABAP_LANGUAGE_VERSION">
<polygon fill="none" stroke="yellow" points="1304.96,-180 1058.65,-180 1058.65,-144 1304.96,-144 1304.96,-180"/>
<text text-anchor="middle" x="1181.81" y="-157.8" font-family="Times,serif" font-size="14.00">DTEL&#45;ABAP_LANGUAGE_VERSION</text>
</a>
</g>
</g>
<!-- TABL&#45;APS_IAM_W_BU_CAT&#45;&gt;DTEL&#45;ABAP_LANGUAGE_VERSION -->
<g id="edge9" class="edge">
<title>TABL&#45;APS_IAM_W_BU_CAT&#45;&gt;DTEL&#45;ABAP_LANGUAGE_VERSION</title>
<path fill="none" stroke="black" d="M2084.48,-229.12C1924.63,-222.4 1600.22,-206.78 1315.21,-180.1"/>
<polygon fill="black" stroke="black" points="1315.37,-176.6 1305.09,-179.14 1314.71,-183.57 1315.37,-176.6"/>
</g>
<!-- DTEL&#45;APS_IAM_BU_CAT_READ_ONLY -->
<g id="node11" class="node">
<title>DTEL&#45;APS_IAM_BU_CAT_READ_ONLY</title>
<g id="a_node11"><a xlink:href="./DTEL_APS_IAM_BU_CAT_READ_ONLY.html" xlink:title="DTEL&#45;APS_IAM_BU_CAT_READ_ONLY">
<polygon fill="none" stroke="yellow" points="1591.03,-180 1322.58,-180 1322.58,-144 1591.03,-144 1591.03,-180"/>
<text text-anchor="middle" x="1456.81" y="-157.8" font-family="Times,serif" font-size="14.00">DTEL&#45;APS_IAM_BU_CAT_READ_ONLY</text>
</a>
</g>
</g>
<!-- TABL&#45;APS_IAM_W_BU_CAT&#45;&gt;DTEL&#45;APS_IAM_BU_CAT_READ_ONLY -->
<g id="edge8" class="edge">
<title>TABL&#45;APS_IAM_W_BU_CAT&#45;&gt;DTEL&#45;APS_IAM_BU_CAT_READ_ONLY</title>
<path fill="none" stroke="black" d="M2084.52,-224.84C1970.42,-215.26 1777.24,-198.46 1601.11,-180.12"/>
<polygon fill="black" stroke="black" points="1601.45,-176.64 1591.14,-179.08 1600.72,-183.6 1601.45,-176.64"/>
</g>
<!-- DTEL&#45;APS_IAM_BU_CAT_RESTRICTABLE -->
<g id="node13" class="node">
<title>DTEL&#45;APS_IAM_BU_CAT_RESTRICTABLE</title>
<g id="a_node13"><a xlink:href="./DTEL_APS_IAM_BU_CAT_RESTRICTABLE.html" xlink:title="DTEL&#45;APS_IAM_BU_CAT_RESTRICTABLE">
<polygon fill="none" stroke="yellow" points="1896.71,-180 1608.9,-180 1608.9,-144 1896.71,-144 1896.71,-180"/>
<text text-anchor="middle" x="1752.81" y="-157.8" font-family="Times,serif" font-size="14.00">DTEL&#45;APS_IAM_BU_CAT_RESTRICTABLE</text>
</a>
</g>
</g>
<!-- TABL&#45;APS_IAM_W_BU_CAT&#45;&gt;DTEL&#45;APS_IAM_BU_CAT_RESTRICTABLE -->
<g id="edge7" class="edge">
<title>TABL&#45;APS_IAM_W_BU_CAT&#45;&gt;DTEL&#45;APS_IAM_BU_CAT_RESTRICTABLE</title>
<path fill="none" stroke="black" d="M2084.38,-216.85C2019.83,-206.37 1935.47,-192.67 1867.99,-181.71"/>
<polygon fill="black" stroke="black" points="1868.17,-178.19 1857.74,-180.04 1867.05,-185.1 1868.17,-178.19"/>
</g>
<!-- DTEL&#45;APS_IAM_BU_CAT_DERIVABLE -->
<g id="node15" class="node">
<title>DTEL&#45;APS_IAM_BU_CAT_DERIVABLE</title>
<g id="a_node15"><a xlink:href="./DTEL_APS_IAM_BU_CAT_DERIVABLE.html" xlink:title="DTEL&#45;APS_IAM_BU_CAT_DERIVABLE">
<polygon fill="none" stroke="yellow" points="2178.86,-180 1914.75,-180 1914.75,-144 2178.86,-144 2178.86,-180"/>
<text text-anchor="middle" x="2046.81" y="-157.8" font-family="Times,serif" font-size="14.00">DTEL&#45;APS_IAM_BU_CAT_DERIVABLE</text>
</a>
</g>
</g>
<!-- TABL&#45;APS_IAM_W_BU_CAT&#45;&gt;DTEL&#45;APS_IAM_BU_CAT_DERIVABLE -->
<g id="edge6" class="edge">
<title>TABL&#45;APS_IAM_W_BU_CAT&#45;&gt;DTEL&#45;APS_IAM_BU_CAT_DERIVABLE</title>
<path fill="none" stroke="black" d="M2150.29,-215.88C2131.96,-206.51 2109.07,-194.81 2089.48,-184.8"/>
<polygon fill="black" stroke="black" points="2090.95,-181.62 2080.45,-180.19 2087.76,-187.86 2090.95,-181.62"/>
</g>
<!-- DTEL&#45;AGR_NAME -->
<g id="node16" class="node">
<title>DTEL&#45;AGR_NAME</title>
<g id="a_node16"><a xlink:href="./DTEL_AGR_NAME.html" xlink:title="DTEL&#45;AGR_NAME">
<polygon fill="none" stroke="yellow" points="2596.99,-180 2462.62,-180 2462.62,-144 2596.99,-144 2596.99,-180"/>
<text text-anchor="middle" x="2529.81" y="-157.8" font-family="Times,serif" font-size="14.00">DTEL&#45;AGR_NAME</text>
</a>
</g>
</g>
<!-- TABL&#45;APS_IAM_W_BU_CAT&#45;&gt;DTEL&#45;AGR_NAME -->
<g id="edge5" class="edge">
<title>TABL&#45;APS_IAM_W_BU_CAT&#45;&gt;DTEL&#45;AGR_NAME</title>
<path fill="none" stroke="black" d="M2273.62,-215.98C2323.63,-206.36 2387.28,-193.88 2452.62,-180.22"/>
<polygon fill="black" stroke="black" points="2453.62,-183.59 2462.69,-178.11 2452.18,-176.74 2453.62,-183.59"/>
</g>
<!-- DTEL&#45;APS_IAM_CATALOG_ID -->
<g id="node18" class="node">
<title>DTEL&#45;APS_IAM_CATALOG_ID</title>
<g id="a_node18"><a xlink:href="./DTEL_APS_IAM_CATALOG_ID.html" xlink:title="DTEL&#45;APS_IAM_CATALOG_ID">
<polygon fill="none" stroke="yellow" points="2826.75,-180 2614.86,-180 2614.86,-144 2826.75,-144 2826.75,-180"/>
<text text-anchor="middle" x="2720.81" y="-157.8" font-family="Times,serif" font-size="14.00">DTEL&#45;APS_IAM_CATALOG_ID</text>
</a>
</g>
</g>
<!-- TABL&#45;APS_IAM_W_BU_CAT&#45;&gt;DTEL&#45;APS_IAM_CATALOG_ID -->
<g id="edge4" class="edge">
<title>TABL&#45;APS_IAM_W_BU_CAT&#45;&gt;DTEL&#45;APS_IAM_CATALOG_ID</title>
<path fill="none" stroke="black" d="M2283.22,-221.14C2366.36,-211.07 2488.37,-195.96 2604.48,-180.17"/>
<polygon fill="black" stroke="black" points="2605.18,-183.6 2614.61,-178.78 2604.23,-176.67 2605.18,-183.6"/>
</g>
<!-- DTEL&#45;APS_BC_SCOPE_DEPENDENT -->
<g id="node20" class="node">
<title>DTEL&#45;APS_BC_SCOPE_DEPENDENT</title>
<g id="a_node20"><a xlink:href="./DTEL_APS_BC_SCOPE_DEPENDENT.html" xlink:title="DTEL&#45;APS_BC_SCOPE_DEPENDENT">
<polygon fill="none" stroke="yellow" points="2444.56,-180 2197.05,-180 2197.05,-144 2444.56,-144 2444.56,-180"/>
<text text-anchor="middle" x="2320.81" y="-157.8" font-family="Times,serif" font-size="14.00">DTEL&#45;APS_BC_SCOPE_DEPENDENT</text>
</a>
</g>
</g>
<!-- TABL&#45;APS_IAM_W_BU_CAT&#45;&gt;DTEL&#45;APS_BC_SCOPE_DEPENDENT -->
<g id="edge3" class="edge">
<title>TABL&#45;APS_IAM_W_BU_CAT&#45;&gt;DTEL&#45;APS_BC_SCOPE_DEPENDENT</title>
<path fill="none" stroke="black" d="M2217.32,-215.88C2235.65,-206.51 2258.54,-194.81 2278.13,-184.8"/>
<polygon fill="black" stroke="black" points="2279.85,-187.86 2287.16,-180.19 2276.66,-181.62 2279.85,-187.86"/>
</g>
<!-- DTEL&#45;APS_IAM_BU_CATALOG_TYPE -->
<g id="node21" class="node">
<title>DTEL&#45;APS_IAM_BU_CATALOG_TYPE</title>
<g id="a_node21"><a xlink:href="./DTEL_APS_IAM_BU_CATALOG_TYPE.html" xlink:title="DTEL&#45;APS_IAM_BU_CATALOG_TYPE">
<polygon fill="none" stroke="yellow" points="3105.92,-180 2847.69,-180 2847.69,-144 3105.92,-144 3105.92,-180"/>
<text text-anchor="middle" x="2976.81" y="-157.8" font-family="Times,serif" font-size="14.00">DTEL&#45;APS_IAM_BU_CATALOG_TYPE</text>
</a>
</g>
</g>
<!-- TABL&#45;APS_IAM_W_BU_CAT&#45;&gt;DTEL&#45;APS_IAM_BU_CATALOG_TYPE -->
<g id="edge2" class="edge">
<title>TABL&#45;APS_IAM_W_BU_CAT&#45;&gt;DTEL&#45;APS_IAM_BU_CATALOG_TYPE</title>
<path fill="none" stroke="black" d="M2283.33,-226.12C2411.29,-216.99 2640.33,-199.72 2835.81,-180 2836.28,-179.95 2836.76,-179.9 2837.23,-179.86"/>
<polygon fill="black" stroke="black" points="2837.78,-183.32 2847.36,-178.8 2837.05,-176.36 2837.78,-183.32"/>
</g>
<!-- DTEL&#45;APS_IAM_BU_CATALOG_ID -->
<g id="node23" class="node">
<title>DTEL&#45;APS_IAM_BU_CATALOG_ID</title>
<g id="a_node23"><a xlink:href="./DTEL_APS_IAM_BU_CATALOG_ID.html" xlink:title="DTEL&#45;APS_IAM_BU_CATALOG_ID">
<polygon fill="none" stroke="yellow" points="3369.19,-180 3130.42,-180 3130.42,-144 3369.19,-144 3369.19,-180"/>
<text text-anchor="middle" x="3249.81" y="-157.8" font-family="Times,serif" font-size="14.00">DTEL&#45;APS_IAM_BU_CATALOG_ID</text>
</a>
</g>
</g>
<!-- TABL&#45;APS_IAM_W_BU_CAT&#45;&gt;DTEL&#45;APS_IAM_BU_CATALOG_ID -->
<g id="edge1" class="edge">
<title>TABL&#45;APS_IAM_W_BU_CAT&#45;&gt;DTEL&#45;APS_IAM_BU_CATALOG_ID</title>
<path fill="none" stroke="black" d="M2283.18,-229.58C2453.6,-223.2 2812.51,-207.61 3114.81,-180 3116.58,-179.84 3118.38,-179.67 3120.18,-179.5"/>
<polygon fill="black" stroke="black" points="3120.99,-182.93 3130.6,-178.46 3120.3,-175.97 3120.99,-182.93"/>
</g>
<!-- DTEL&#45;APS_IAM_TIMESTAMP_CHANGED -->
<g id="node3" class="node">
<title>DTEL&#45;APS_IAM_TIMESTAMP_CHANGED</title>
<g id="a_node3"><a xlink:href="./DTEL_APS_IAM_TIMESTAMP_CHANGED.html" xlink:title="DTEL&#45;APS_IAM_TIMESTAMP_CHANGED">
<polygon fill="none" stroke="yellow" points="279.42,-108 0.19,-108 0.19,-72 279.42,-72 279.42,-108"/>
<text text-anchor="middle" x="139.81" y="-85.8" font-family="Times,serif" font-size="14.00">DTEL&#45;APS_IAM_TIMESTAMP_CHANGED</text>
</a>
</g>
</g>
<!-- TABL&#45;APS_IAM_ADMIN_DATA&#45;&gt;DTEL&#45;APS_IAM_TIMESTAMP_CHANGED -->
<g id="edge14" class="edge">
<title>TABL&#45;APS_IAM_ADMIN_DATA&#45;&gt;DTEL&#45;APS_IAM_TIMESTAMP_CHANGED</title>
<path fill="none" stroke="black" d="M600.11,-147.63C511.62,-136.74 385.81,-121.26 288.08,-109.24"/>
<polygon fill="black" stroke="black" points="288.46,-105.76 278.11,-108.01 287.61,-112.71 288.46,-105.76"/>
</g>
<!-- DTEL&#45;APS_IAM_USER_CHANGED -->
<g id="node5" class="node">
<title>DTEL&#45;APS_IAM_USER_CHANGED</title>
<g id="a_node5"><a xlink:href="./DTEL_APS_IAM_USER_CHANGED.html" xlink:title="DTEL&#45;APS_IAM_USER_CHANGED">
<polygon fill="none" stroke="yellow" points="825.81,-108 591.8,-108 591.8,-72 825.81,-72 825.81,-108"/>
<text text-anchor="middle" x="708.81" y="-85.8" font-family="Times,serif" font-size="14.00">DTEL&#45;APS_IAM_USER_CHANGED</text>
</a>
</g>
</g>
<!-- TABL&#45;APS_IAM_ADMIN_DATA&#45;&gt;DTEL&#45;APS_IAM_USER_CHANGED -->
<g id="edge13" class="edge">
<title>TABL&#45;APS_IAM_ADMIN_DATA&#45;&gt;DTEL&#45;APS_IAM_USER_CHANGED</title>
<path fill="none" stroke="black" d="M708.81,-143.7C708.81,-135.98 708.81,-126.71 708.81,-118.11"/>
<polygon fill="black" stroke="black" points="712.31,-118.1 708.81,-108.1 705.31,-118.1 712.31,-118.1"/>
</g>
<!-- DTEL&#45;APS_IAM_TIMESTAMP_CREATED -->
<g id="node7" class="node">
<title>DTEL&#45;APS_IAM_TIMESTAMP_CREATED</title>
<g id="a_node7"><a xlink:href="./DTEL_APS_IAM_TIMESTAMP_CREATED.html" xlink:title="DTEL&#45;APS_IAM_TIMESTAMP_CREATED">
<polygon fill="none" stroke="yellow" points="573.54,-108 298.07,-108 298.07,-72 573.54,-72 573.54,-108"/>
<text text-anchor="middle" x="435.81" y="-85.8" font-family="Times,serif" font-size="14.00">DTEL&#45;APS_IAM_TIMESTAMP_CREATED</text>
</a>
</g>
</g>
<!-- TABL&#45;APS_IAM_ADMIN_DATA&#45;&gt;DTEL&#45;APS_IAM_TIMESTAMP_CREATED -->
<g id="edge12" class="edge">
<title>TABL&#45;APS_IAM_ADMIN_DATA&#45;&gt;DTEL&#45;APS_IAM_TIMESTAMP_CREATED</title>
<path fill="none" stroke="black" d="M642.37,-143.97C603.15,-133.91 553.34,-121.14 512.46,-110.65"/>
<polygon fill="black" stroke="black" points="513.09,-107.2 502.54,-108.11 511.35,-113.98 513.09,-107.2"/>
</g>
<!-- DTEL&#45;APS_IAM_USER_CREATED -->
<g id="node8" class="node">
<title>DTEL&#45;APS_IAM_USER_CREATED</title>
<g id="a_node8"><a xlink:href="./DTEL_APS_IAM_USER_CREATED.html" xlink:title="DTEL&#45;APS_IAM_USER_CREATED">
<polygon fill="none" stroke="yellow" points="1074.94,-108 844.67,-108 844.67,-72 1074.94,-72 1074.94,-108"/>
<text text-anchor="middle" x="959.81" y="-85.8" font-family="Times,serif" font-size="14.00">DTEL&#45;APS_IAM_USER_CREATED</text>
</a>
</g>
</g>
<!-- TABL&#45;APS_IAM_ADMIN_DATA&#45;&gt;DTEL&#45;APS_IAM_USER_CREATED -->
<g id="edge11" class="edge">
<title>TABL&#45;APS_IAM_ADMIN_DATA&#45;&gt;DTEL&#45;APS_IAM_USER_CREATED</title>
<path fill="none" stroke="black" d="M769.89,-143.97C805.72,-133.97 851.16,-121.3 888.61,-110.85"/>
<polygon fill="black" stroke="black" points="889.76,-114.17 898.45,-108.11 887.88,-107.43 889.76,-114.17"/>
</g>
<!-- DOMA&#45;TZNTSTMPS -->
<g id="node4" class="node">
<title>DOMA&#45;TZNTSTMPS</title>
<g id="a_node4"><a xlink:href="./DOMA_TZNTSTMPS.html" xlink:title="DOMA&#45;TZNTSTMPS">
<polygon fill="none" stroke="yellow" points="359.34,-36 216.27,-36 216.27,0 359.34,0 359.34,-36"/>
<text text-anchor="middle" x="287.81" y="-13.8" font-family="Times,serif" font-size="14.00">DOMA&#45;TZNTSTMPS</text>
</a>
</g>
</g>
<!-- DTEL&#45;APS_IAM_TIMESTAMP_CHANGED&#45;&gt;DOMA&#45;TZNTSTMPS -->
<g id="edge15" class="edge">
<title>DTEL&#45;APS_IAM_TIMESTAMP_CHANGED&#45;&gt;DOMA&#45;TZNTSTMPS</title>
<path fill="none" stroke="black" d="M176.01,-71.88C196.06,-62.39 221.18,-50.51 242.52,-40.42"/>
<polygon fill="black" stroke="black" points="244.17,-43.51 251.72,-36.07 241.18,-37.18 244.17,-43.51"/>
</g>
<!-- DOMA&#45;BNAME -->
<g id="node6" class="node">
<title>DOMA&#45;BNAME</title>
<g id="a_node6"><a xlink:href="./DOMA_BNAME.html" xlink:title="DOMA&#45;BNAME">
<polygon fill="none" stroke="yellow" points="890.78,-36 776.83,-36 776.83,0 890.78,0 890.78,-36"/>
<text text-anchor="middle" x="833.81" y="-13.8" font-family="Times,serif" font-size="14.00">DOMA&#45;BNAME</text>
</a>
</g>
</g>
<!-- DTEL&#45;APS_IAM_USER_CHANGED&#45;&gt;DOMA&#45;BNAME -->
<g id="edge16" class="edge">
<title>DTEL&#45;APS_IAM_USER_CHANGED&#45;&gt;DOMA&#45;BNAME</title>
<path fill="none" stroke="black" d="M739.38,-71.88C755.88,-62.64 776.43,-51.13 794.14,-41.21"/>
<polygon fill="black" stroke="black" points="796.09,-44.13 803.11,-36.19 792.67,-38.02 796.09,-44.13"/>
</g>
<!-- DTEL&#45;APS_IAM_TIMESTAMP_CREATED&#45;&gt;DOMA&#45;TZNTSTMPS -->
<g id="edge17" class="edge">
<title>DTEL&#45;APS_IAM_TIMESTAMP_CREATED&#45;&gt;DOMA&#45;TZNTSTMPS</title>
<path fill="none" stroke="black" d="M399.6,-71.88C379.55,-62.39 354.43,-50.51 333.09,-40.42"/>
<polygon fill="black" stroke="black" points="334.43,-37.18 323.89,-36.07 331.44,-43.51 334.43,-37.18"/>
</g>
<!-- DTEL&#45;APS_IAM_USER_CREATED&#45;&gt;DOMA&#45;BNAME -->
<g id="edge18" class="edge">
<title>DTEL&#45;APS_IAM_USER_CREATED&#45;&gt;DOMA&#45;BNAME</title>
<path fill="none" stroke="black" d="M928.98,-71.88C912.35,-62.64 891.64,-51.13 873.79,-41.21"/>
<polygon fill="black" stroke="black" points="875.19,-37.99 864.75,-36.19 871.79,-44.11 875.19,-37.99"/>
</g>
<!-- DOMA&#45;ABAP_LANGUAGE_VERSION -->
<g id="node10" class="node">
<title>DOMA&#45;ABAP_LANGUAGE_VERSION</title>
<g id="a_node10"><a xlink:href="./DOMA_ABAP_LANGUAGE_VERSION.html" xlink:title="DOMA&#45;ABAP_LANGUAGE_VERSION">
<polygon fill="none" stroke="yellow" points="1346.46,-108 1093.15,-108 1093.15,-72 1346.46,-72 1346.46,-108"/>
<text text-anchor="middle" x="1219.81" y="-85.8" font-family="Times,serif" font-size="14.00">DOMA&#45;ABAP_LANGUAGE_VERSION</text>
</a>
</g>
</g>
<!-- DTEL&#45;ABAP_LANGUAGE_VERSION&#45;&gt;DOMA&#45;ABAP_LANGUAGE_VERSION -->
<g id="edge19" class="edge">
<title>DTEL&#45;ABAP_LANGUAGE_VERSION&#45;&gt;DOMA&#45;ABAP_LANGUAGE_VERSION</title>
<path fill="none" stroke="black" d="M1191.2,-143.7C1195.57,-135.64 1200.86,-125.89 1205.7,-116.98"/>
<polygon fill="black" stroke="black" points="1208.82,-118.56 1210.52,-108.1 1202.67,-115.22 1208.82,-118.56"/>
</g>
<!-- DOMA&#45;XFELD -->
<g id="node12" class="node">
<title>DOMA&#45;XFELD</title>
<g id="a_node12"><a xlink:href="./DOMA_XFELD.html" xlink:title="DOMA&#45;XFELD">
<polygon fill="none" stroke="yellow" points="1510.83,-108 1402.78,-108 1402.78,-72 1510.83,-72 1510.83,-108"/>
<text text-anchor="middle" x="1456.81" y="-85.8" font-family="Times,serif" font-size="14.00">DOMA&#45;XFELD</text>
</a>
</g>
</g>
<!-- DTEL&#45;APS_IAM_BU_CAT_READ_ONLY&#45;&gt;DOMA&#45;XFELD -->
<g id="edge20" class="edge">
<title>DTEL&#45;APS_IAM_BU_CAT_READ_ONLY&#45;&gt;DOMA&#45;XFELD</title>
<path fill="none" stroke="black" d="M1456.81,-143.7C1456.81,-135.98 1456.81,-126.71 1456.81,-118.11"/>
<polygon fill="black" stroke="black" points="1460.31,-118.1 1456.81,-108.1 1453.31,-118.1 1460.31,-118.1"/>
</g>
<!-- DOMA&#45;FLAG -->
<g id="node14" class="node">
<title>DOMA&#45;FLAG</title>
<g id="a_node14"><a xlink:href="./DOMA_FLAG.html" xlink:title="DOMA&#45;FLAG">
<polygon fill="none" stroke="yellow" points="2096.78,-108 1996.83,-108 1996.83,-72 2096.78,-72 2096.78,-108"/>
<text text-anchor="middle" x="2046.81" y="-85.8" font-family="Times,serif" font-size="14.00">DOMA&#45;FLAG</text>
</a>
</g>
</g>
<!-- DTEL&#45;APS_IAM_BU_CAT_RESTRICTABLE&#45;&gt;DOMA&#45;FLAG -->
<g id="edge21" class="edge">
<title>DTEL&#45;APS_IAM_BU_CAT_RESTRICTABLE&#45;&gt;DOMA&#45;FLAG</title>
<path fill="none" stroke="black" d="M1824.35,-143.97C1874.18,-132.1 1939.87,-116.46 1986.93,-105.26"/>
<polygon fill="black" stroke="black" points="1987.76,-108.66 1996.68,-102.94 1986.14,-101.85 1987.76,-108.66"/>
</g>
<!-- DTEL&#45;APS_IAM_BU_CAT_DERIVABLE&#45;&gt;DOMA&#45;FLAG -->
<g id="edge22" class="edge">
<title>DTEL&#45;APS_IAM_BU_CAT_DERIVABLE&#45;&gt;DOMA&#45;FLAG</title>
<path fill="none" stroke="black" d="M2046.81,-143.7C2046.81,-135.98 2046.81,-126.71 2046.81,-118.11"/>
<polygon fill="black" stroke="black" points="2050.31,-118.1 2046.81,-108.1 2043.31,-118.1 2050.31,-118.1"/>
</g>
<!-- DOMA&#45;AGR_NAME -->
<g id="node17" class="node">
<title>DOMA&#45;AGR_NAME</title>
<g id="a_node17"><a xlink:href="./DOMA_AGR_NAME.html" xlink:title="DOMA&#45;AGR_NAME">
<polygon fill="none" stroke="yellow" points="2591.49,-108 2450.12,-108 2450.12,-72 2591.49,-72 2591.49,-108"/>
<text text-anchor="middle" x="2520.81" y="-85.8" font-family="Times,serif" font-size="14.00">DOMA&#45;AGR_NAME</text>
</a>
</g>
</g>
<!-- DTEL&#45;AGR_NAME&#45;&gt;DOMA&#45;AGR_NAME -->
<g id="edge23" class="edge">
<title>DTEL&#45;AGR_NAME&#45;&gt;DOMA&#45;AGR_NAME</title>
<path fill="none" stroke="black" d="M2527.58,-143.7C2526.59,-135.98 2525.4,-126.71 2524.29,-118.11"/>
<polygon fill="black" stroke="black" points="2527.75,-117.58 2523,-108.1 2520.81,-118.47 2527.75,-117.58"/>
</g>
<!-- DOMA&#45;APS_IAM_CATALOG_ID -->
<g id="node19" class="node">
<title>DOMA&#45;APS_IAM_CATALOG_ID</title>
<g id="a_node19"><a xlink:href="./DOMA_APS_IAM_CATALOG_ID.html" xlink:title="DOMA&#45;APS_IAM_CATALOG_ID">
<polygon fill="none" stroke="yellow" points="2828.25,-108 2609.36,-108 2609.36,-72 2828.25,-72 2828.25,-108"/>
<text text-anchor="middle" x="2718.81" y="-85.8" font-family="Times,serif" font-size="14.00">DOMA&#45;APS_IAM_CATALOG_ID</text>
</a>
</g>
</g>
<!-- DTEL&#45;APS_IAM_CATALOG_ID&#45;&gt;DOMA&#45;APS_IAM_CATALOG_ID -->
<g id="edge24" class="edge">
<title>DTEL&#45;APS_IAM_CATALOG_ID&#45;&gt;DOMA&#45;APS_IAM_CATALOG_ID</title>
<path fill="none" stroke="black" d="M2720.31,-143.7C2720.09,-135.98 2719.83,-126.71 2719.58,-118.11"/>
<polygon fill="black" stroke="black" points="2723.08,-118 2719.29,-108.1 2716.08,-118.2 2723.08,-118"/>
</g>
<!-- DTEL&#45;APS_BC_SCOPE_DEPENDENT&#45;&gt;DOMA&#45;FLAG -->
<g id="edge25" class="edge">
<title>DTEL&#45;APS_BC_SCOPE_DEPENDENT&#45;&gt;DOMA&#45;FLAG</title>
<path fill="none" stroke="black" d="M2254.13,-143.97C2209.16,-132.48 2150.32,-117.45 2106.82,-106.33"/>
<polygon fill="black" stroke="black" points="2107.5,-102.89 2096.94,-103.81 2105.77,-109.68 2107.5,-102.89"/>
</g>
<!-- DOMA&#45;APS_IAM_BU_CATALOG_TYPE -->
<g id="node22" class="node">
<title>DOMA&#45;APS_IAM_BU_CATALOG_TYPE</title>
<g id="a_node22"><a xlink:href="./DOMA_APS_IAM_BU_CATALOG_TYPE.html" xlink:title="DOMA&#45;APS_IAM_BU_CATALOG_TYPE">
<polygon fill="none" stroke="yellow" points="3111.42,-108 2846.19,-108 2846.19,-72 3111.42,-72 3111.42,-108"/>
<text text-anchor="middle" x="2978.81" y="-85.8" font-family="Times,serif" font-size="14.00">DOMA&#45;APS_IAM_BU_CATALOG_TYPE</text>
</a>
</g>
</g>
<!-- DTEL&#45;APS_IAM_BU_CATALOG_TYPE&#45;&gt;DOMA&#45;APS_IAM_BU_CATALOG_TYPE -->
<g id="edge26" class="edge">
<title>DTEL&#45;APS_IAM_BU_CATALOG_TYPE&#45;&gt;DOMA&#45;APS_IAM_BU_CATALOG_TYPE</title>
<path fill="none" stroke="black" d="M2977.3,-143.7C2977.52,-135.98 2977.78,-126.71 2978.03,-118.11"/>
<polygon fill="black" stroke="black" points="2981.53,-118.2 2978.32,-108.1 2974.53,-118 2981.53,-118.2"/>
</g>
<!-- DOMA&#45;APS_IAM_BU_CATALOG_ID -->
<g id="node24" class="node">
<title>DOMA&#45;APS_IAM_BU_CATALOG_ID</title>
<g id="a_node24"><a xlink:href="./DOMA_APS_IAM_BU_CATALOG_ID.html" xlink:title="DOMA&#45;APS_IAM_BU_CATALOG_ID">
<polygon fill="none" stroke="yellow" points="3375.69,-108 3129.92,-108 3129.92,-72 3375.69,-72 3375.69,-108"/>
<text text-anchor="middle" x="3252.81" y="-85.8" font-family="Times,serif" font-size="14.00">DOMA&#45;APS_IAM_BU_CATALOG_ID</text>
</a>
</g>
</g>
<!-- DTEL&#45;APS_IAM_BU_CATALOG_ID&#45;&gt;DOMA&#45;APS_IAM_BU_CATALOG_ID -->
<g id="edge27" class="edge">
<title>DTEL&#45;APS_IAM_BU_CATALOG_ID&#45;&gt;DOMA&#45;APS_IAM_BU_CATALOG_ID</title>
<path fill="none" stroke="black" d="M3250.55,-143.7C3250.88,-135.98 3251.27,-126.71 3251.64,-118.11"/>
<polygon fill="black" stroke="black" points="3255.14,-118.25 3252.07,-108.1 3248.15,-117.95 3255.14,-118.25"/>
</g>
</g>
</svg>
