<?xml version="1.0" encoding="UTF-8" standalone="no"?>
<!DOCTYPE svg PUBLIC "-//W3C//DTD SVG 1.1//EN"
 "http://www.w3.org/Graphics/SVG/1.1/DTD/svg11.dtd">
<!-- Generated by graphviz version 2.47.3 (20210619.1520)
 -->
<!-- Title: G Pages: 1 -->
<svg width="287pt" height="188pt"
 viewBox="0.00 0.00 287.24 188.00" xmlns="http://www.w3.org/2000/svg" xmlns:xlink="http://www.w3.org/1999/xlink">
<g id="graph0" class="graph" transform="scale(1 1) rotate(0) translate(4 184)">
<title>G</title>
<polygon fill="white" stroke="transparent" points="-4,4 -4,-184 283.24,-184 283.24,4 -4,4"/>
<!-- TABL&#45;USORG -->
<g id="node1" class="node">
<title>TABL&#45;USORG</title>
<polygon fill="none" stroke="yellow" points="195.75,-180 91.45,-180 91.45,-144 195.75,-144 195.75,-180"/>
<text text-anchor="middle" x="143.6" y="-157.8" font-family="Times,serif" font-size="14.00">TABL&#45;USORG</text>
</g>
<!-- DTEL&#45;TPRORGVAR -->
<g id="node2" class="node">
<title>DTEL&#45;TPRORGVAR</title>
<g id="a_node2"><a xlink:href="./DTEL_TPRORGVAR.html" xlink:title="DTEL&#45;TPRORGVAR">
<polygon fill="none" stroke="yellow" points="141.29,-108 -0.1,-108 -0.1,-72 141.29,-72 141.29,-108"/>
<text text-anchor="middle" x="70.6" y="-85.8" font-family="Times,serif" font-size="14.00">DTEL&#45;TPRORGVAR</text>
</a>
</g>
</g>
<!-- TABL&#45;USORG&#45;&gt;DTEL&#45;TPRORGVAR -->
<g id="edge2" class="edge">
<title>TABL&#45;USORG&#45;&gt;DTEL&#45;TPRORGVAR</title>
<path fill="none" stroke="black" d="M125.55,-143.7C116.54,-135.05 105.48,-124.45 95.65,-115.03"/>
<polygon fill="black" stroke="black" points="98.08,-112.5 88.44,-108.1 93.23,-117.55 98.08,-112.5"/>
</g>
<!-- DTEL&#45;XUFIELD -->
<g id="node4" class="node">
<title>DTEL&#45;XUFIELD</title>
<g id="a_node4"><a xlink:href="./DTEL_XUFIELD.html" xlink:title="DTEL&#45;XUFIELD">
<polygon fill="none" stroke="yellow" points="275.89,-108 159.3,-108 159.3,-72 275.89,-72 275.89,-108"/>
<text text-anchor="middle" x="217.6" y="-85.8" font-family="Times,serif" font-size="14.00">DTEL&#45;XUFIELD</text>
</a>
</g>
</g>
<!-- TABL&#45;USORG&#45;&gt;DTEL&#45;XUFIELD -->
<g id="edge1" class="edge">
<title>TABL&#45;USORG&#45;&gt;DTEL&#45;XUFIELD</title>
<path fill="none" stroke="black" d="M161.89,-143.7C171.03,-135.05 182.24,-124.45 192.2,-115.03"/>
<polygon fill="black" stroke="black" points="194.66,-117.52 199.52,-108.1 189.85,-112.43 194.66,-117.52"/>
</g>
<!-- DOMA&#45;XUVALUE -->
<g id="node3" class="node">
<title>DOMA&#45;XUVALUE</title>
<g id="a_node3"><a xlink:href="./DOMA_XUVALUE.html" xlink:title="DOMA&#45;XUVALUE">
<polygon fill="none" stroke="yellow" points="136.16,-36 5.03,-36 5.03,0 136.16,0 136.16,-36"/>
<text text-anchor="middle" x="70.6" y="-13.8" font-family="Times,serif" font-size="14.00">DOMA&#45;XUVALUE</text>
</a>
</g>
</g>
<!-- DTEL&#45;TPRORGVAR&#45;&gt;DOMA&#45;XUVALUE -->
<g id="edge3" class="edge">
<title>DTEL&#45;TPRORGVAR&#45;&gt;DOMA&#45;XUVALUE</title>
<path fill="none" stroke="black" d="M70.6,-71.7C70.6,-63.98 70.6,-54.71 70.6,-46.11"/>
<polygon fill="black" stroke="black" points="74.1,-46.1 70.6,-36.1 67.1,-46.1 74.1,-46.1"/>
</g>
<!-- DOMA&#45;XUFIELD -->
<g id="node5" class="node">
<title>DOMA&#45;XUFIELD</title>
<g id="a_node5"><a xlink:href="./DOMA_XUFIELD.html" xlink:title="DOMA&#45;XUFIELD">
<polygon fill="none" stroke="yellow" points="279.39,-36 155.8,-36 155.8,0 279.39,0 279.39,-36"/>
<text text-anchor="middle" x="217.6" y="-13.8" font-family="Times,serif" font-size="14.00">DOMA&#45;XUFIELD</text>
</a>
</g>
</g>
<!-- DTEL&#45;XUFIELD&#45;&gt;DOMA&#45;XUFIELD -->
<g id="edge4" class="edge">
<title>DTEL&#45;XUFIELD&#45;&gt;DOMA&#45;XUFIELD</title>
<path fill="none" stroke="black" d="M217.6,-71.7C217.6,-63.98 217.6,-54.71 217.6,-46.11"/>
<polygon fill="black" stroke="black" points="221.1,-46.1 217.6,-36.1 214.1,-46.1 221.1,-46.1"/>
</g>
</g>
</svg>
