<?xml version="1.0" encoding="UTF-8" standalone="no"?>
<!DOCTYPE svg PUBLIC "-//W3C//DTD SVG 1.1//EN"
 "http://www.w3.org/Graphics/SVG/1.1/DTD/svg11.dtd">
<!-- Generated by graphviz version 2.47.3 (20210619.1520)
 -->
<!-- Title: G Pages: 1 -->
<svg width="966pt" height="188pt"
 viewBox="0.00 0.00 966.45 188.00" xmlns="http://www.w3.org/2000/svg" xmlns:xlink="http://www.w3.org/1999/xlink">
<g id="graph0" class="graph" transform="scale(1 1) rotate(0) translate(4 184)">
<title>G</title>
<polygon fill="white" stroke="transparent" points="-4,4 -4,-184 962.45,-184 962.45,4 -4,4"/>
<!-- TABL&#45;AGR_HIERT -->
<g id="node1" class="node">
<title>TABL&#45;AGR_HIERT</title>
<polygon fill="none" stroke="yellow" points="572.1,-180 437.17,-180 437.17,-144 572.1,-144 572.1,-180"/>
<text text-anchor="middle" x="504.64" y="-157.8" font-family="Times,serif" font-size="14.00">TABL&#45;AGR_HIERT</text>
</g>
<!-- DTEL&#45;MENU_LONGTEXT -->
<g id="node2" class="node">
<title>DTEL&#45;MENU_LONGTEXT</title>
<g id="a_node2"><a xlink:href="./DTEL_MENU_LONGTEXT.html" xlink:title="DTEL&#45;MENU_LONGTEXT">
<polygon fill="none" stroke="yellow" points="179.41,-108 -0.14,-108 -0.14,-72 179.41,-72 179.41,-108"/>
<text text-anchor="middle" x="89.64" y="-85.8" font-family="Times,serif" font-size="14.00">DTEL&#45;MENU_LONGTEXT</text>
</a>
</g>
</g>
<!-- TABL&#45;AGR_HIERT&#45;&gt;DTEL&#45;MENU_LONGTEXT -->
<g id="edge6" class="edge">
<title>TABL&#45;AGR_HIERT&#45;&gt;DTEL&#45;MENU_LONGTEXT</title>
<path fill="none" stroke="black" d="M437.12,-149.75C375.38,-139.45 281.23,-123.7 189.49,-108.14"/>
<polygon fill="black" stroke="black" points="189.92,-104.66 179.48,-106.44 188.75,-111.57 189.92,-104.66"/>
</g>
<!-- DTEL&#45;SSM_TITLE -->
<g id="node4" class="node">
<title>DTEL&#45;SSM_TITLE</title>
<g id="a_node4"><a xlink:href="./DTEL_SSM_TITLE.html" xlink:title="DTEL&#45;SSM_TITLE">
<polygon fill="none" stroke="yellow" points="327.94,-108 197.33,-108 197.33,-72 327.94,-72 327.94,-108"/>
<text text-anchor="middle" x="262.64" y="-85.8" font-family="Times,serif" font-size="14.00">DTEL&#45;SSM_TITLE</text>
</a>
</g>
</g>
<!-- TABL&#45;AGR_HIERT&#45;&gt;DTEL&#45;SSM_TITLE -->
<g id="edge5" class="edge">
<title>TABL&#45;AGR_HIERT&#45;&gt;DTEL&#45;SSM_TITLE</title>
<path fill="none" stroke="black" d="M445.75,-143.97C411.34,-134.01 367.75,-121.41 331.74,-110.99"/>
<polygon fill="black" stroke="black" points="332.37,-107.53 321.79,-108.11 330.42,-114.25 332.37,-107.53"/>
</g>
<!-- DTEL&#45;MENU_NUM_8 -->
<g id="node6" class="node">
<title>DTEL&#45;MENU_NUM_8</title>
<g id="a_node6"><a xlink:href="./DTEL_MENU_NUM_8.html" xlink:title="DTEL&#45;MENU_NUM_8">
<polygon fill="none" stroke="yellow" points="497.43,-108 345.84,-108 345.84,-72 497.43,-72 497.43,-108"/>
<text text-anchor="middle" x="421.64" y="-85.8" font-family="Times,serif" font-size="14.00">DTEL&#45;MENU_NUM_8</text>
</a>
</g>
</g>
<!-- TABL&#45;AGR_HIERT&#45;&gt;DTEL&#45;MENU_NUM_8 -->
<g id="edge4" class="edge">
<title>TABL&#45;AGR_HIERT&#45;&gt;DTEL&#45;MENU_NUM_8</title>
<path fill="none" stroke="black" d="M484.12,-143.7C473.77,-134.97 461.05,-124.24 449.8,-114.75"/>
<polygon fill="black" stroke="black" points="451.82,-111.88 441.92,-108.1 447.3,-117.23 451.82,-111.88"/>
</g>
<!-- DTEL&#45;MENU_SPRAS -->
<g id="node8" class="node">
<title>DTEL&#45;MENU_SPRAS</title>
<g id="a_node8"><a xlink:href="./DTEL_MENU_SPRAS.html" xlink:title="DTEL&#45;MENU_SPRAS">
<polygon fill="none" stroke="yellow" points="662.56,-108 514.71,-108 514.71,-72 662.56,-72 662.56,-108"/>
<text text-anchor="middle" x="588.64" y="-85.8" font-family="Times,serif" font-size="14.00">DTEL&#45;MENU_SPRAS</text>
</a>
</g>
</g>
<!-- TABL&#45;AGR_HIERT&#45;&gt;DTEL&#45;MENU_SPRAS -->
<g id="edge3" class="edge">
<title>TABL&#45;AGR_HIERT&#45;&gt;DTEL&#45;MENU_SPRAS</title>
<path fill="none" stroke="black" d="M525.4,-143.7C535.88,-134.97 548.75,-124.24 560.14,-114.75"/>
<polygon fill="black" stroke="black" points="562.67,-117.19 568.11,-108.1 558.19,-111.82 562.67,-117.19"/>
</g>
<!-- DTEL&#45;AGR_NAME -->
<g id="node10" class="node">
<title>DTEL&#45;AGR_NAME</title>
<g id="a_node10"><a xlink:href="./DTEL_AGR_NAME.html" xlink:title="DTEL&#45;AGR_NAME">
<polygon fill="none" stroke="yellow" points="814.82,-108 680.45,-108 680.45,-72 814.82,-72 814.82,-108"/>
<text text-anchor="middle" x="747.64" y="-85.8" font-family="Times,serif" font-size="14.00">DTEL&#45;AGR_NAME</text>
</a>
</g>
</g>
<!-- TABL&#45;AGR_HIERT&#45;&gt;DTEL&#45;AGR_NAME -->
<g id="edge2" class="edge">
<title>TABL&#45;AGR_HIERT&#45;&gt;DTEL&#45;AGR_NAME</title>
<path fill="none" stroke="black" d="M563.77,-143.97C598.31,-134.01 642.08,-121.41 678.25,-110.99"/>
<polygon fill="black" stroke="black" points="679.6,-114.24 688.24,-108.11 677.66,-107.52 679.6,-114.24"/>
</g>
<!-- DTEL&#45;SYMANDT -->
<g id="node12" class="node">
<title>DTEL&#45;SYMANDT</title>
<g id="a_node12"><a xlink:href="./DTEL_SYMANDT.html" xlink:title="DTEL&#45;SYMANDT">
<polygon fill="none" stroke="yellow" points="958.27,-108 833,-108 833,-72 958.27,-72 958.27,-108"/>
<text text-anchor="middle" x="895.64" y="-85.8" font-family="Times,serif" font-size="14.00">DTEL&#45;SYMANDT</text>
</a>
</g>
</g>
<!-- TABL&#45;AGR_HIERT&#45;&gt;DTEL&#45;SYMANDT -->
<g id="edge1" class="edge">
<title>TABL&#45;AGR_HIERT&#45;&gt;DTEL&#45;SYMANDT</title>
<path fill="none" stroke="black" d="M572.4,-151.09C634.93,-141.64 730.55,-126.42 823.05,-108.05"/>
<polygon fill="black" stroke="black" points="823.74,-111.48 832.86,-106.08 822.37,-104.61 823.74,-111.48"/>
</g>
<!-- DOMA&#45;CHAR255_CASE -->
<g id="node3" class="node">
<title>DOMA&#45;CHAR255_CASE</title>
<g id="a_node3"><a xlink:href="./DOMA_CHAR255_CASE.html" xlink:title="DOMA&#45;CHAR255_CASE">
<polygon fill="none" stroke="yellow" points="172.73,-36 6.55,-36 6.55,0 172.73,0 172.73,-36"/>
<text text-anchor="middle" x="89.64" y="-13.8" font-family="Times,serif" font-size="14.00">DOMA&#45;CHAR255_CASE</text>
</a>
</g>
</g>
<!-- DTEL&#45;MENU_LONGTEXT&#45;&gt;DOMA&#45;CHAR255_CASE -->
<g id="edge7" class="edge">
<title>DTEL&#45;MENU_LONGTEXT&#45;&gt;DOMA&#45;CHAR255_CASE</title>
<path fill="none" stroke="black" d="M89.64,-71.7C89.64,-63.98 89.64,-54.71 89.64,-46.11"/>
<polygon fill="black" stroke="black" points="93.14,-46.1 89.64,-36.1 86.14,-46.1 93.14,-46.1"/>
</g>
<!-- DOMA&#45;TEXT80 -->
<g id="node5" class="node">
<title>DOMA&#45;TEXT80</title>
<g id="a_node5"><a xlink:href="./DOMA_TEXT80.html" xlink:title="DOMA&#45;TEXT80">
<polygon fill="none" stroke="yellow" points="319.33,-36 205.95,-36 205.95,0 319.33,0 319.33,-36"/>
<text text-anchor="middle" x="262.64" y="-13.8" font-family="Times,serif" font-size="14.00">DOMA&#45;TEXT80</text>
</a>
</g>
</g>
<!-- DTEL&#45;SSM_TITLE&#45;&gt;DOMA&#45;TEXT80 -->
<g id="edge8" class="edge">
<title>DTEL&#45;SSM_TITLE&#45;&gt;DOMA&#45;TEXT80</title>
<path fill="none" stroke="black" d="M262.64,-71.7C262.64,-63.98 262.64,-54.71 262.64,-46.11"/>
<polygon fill="black" stroke="black" points="266.14,-46.1 262.64,-36.1 259.14,-46.1 266.14,-46.1"/>
</g>
<!-- DOMA&#45;NUM08 -->
<g id="node7" class="node">
<title>DOMA&#45;NUM08</title>
<g id="a_node7"><a xlink:href="./DOMA_NUM08.html" xlink:title="DOMA&#45;NUM08">
<polygon fill="none" stroke="yellow" points="476.72,-36 366.55,-36 366.55,0 476.72,0 476.72,-36"/>
<text text-anchor="middle" x="421.64" y="-13.8" font-family="Times,serif" font-size="14.00">DOMA&#45;NUM08</text>
</a>
</g>
</g>
<!-- DTEL&#45;MENU_NUM_8&#45;&gt;DOMA&#45;NUM08 -->
<g id="edge9" class="edge">
<title>DTEL&#45;MENU_NUM_8&#45;&gt;DOMA&#45;NUM08</title>
<path fill="none" stroke="black" d="M421.64,-71.7C421.64,-63.98 421.64,-54.71 421.64,-46.11"/>
<polygon fill="black" stroke="black" points="425.14,-46.1 421.64,-36.1 418.14,-46.1 425.14,-46.1"/>
</g>
<!-- DOMA&#45;SPRAS -->
<g id="node9" class="node">
<title>DOMA&#45;SPRAS</title>
<g id="a_node9"><a xlink:href="./DOMA_SPRAS.html" xlink:title="DOMA&#45;SPRAS">
<polygon fill="none" stroke="green" points="641.85,-36 535.42,-36 535.42,0 641.85,0 641.85,-36"/>
<text text-anchor="middle" x="588.64" y="-13.8" font-family="Times,serif" font-size="14.00">DOMA&#45;SPRAS</text>
</a>
</g>
</g>
<!-- DTEL&#45;MENU_SPRAS&#45;&gt;DOMA&#45;SPRAS -->
<g id="edge10" class="edge">
<title>DTEL&#45;MENU_SPRAS&#45;&gt;DOMA&#45;SPRAS</title>
<path fill="none" stroke="black" d="M588.64,-71.7C588.64,-63.98 588.64,-54.71 588.64,-46.11"/>
<polygon fill="black" stroke="black" points="592.14,-46.1 588.64,-36.1 585.14,-46.1 592.14,-46.1"/>
</g>
<!-- DOMA&#45;AGR_NAME -->
<g id="node11" class="node">
<title>DOMA&#45;AGR_NAME</title>
<g id="a_node11"><a xlink:href="./DOMA_AGR_NAME.html" xlink:title="DOMA&#45;AGR_NAME">
<polygon fill="none" stroke="yellow" points="818.32,-36 676.95,-36 676.95,0 818.32,0 818.32,-36"/>
<text text-anchor="middle" x="747.64" y="-13.8" font-family="Times,serif" font-size="14.00">DOMA&#45;AGR_NAME</text>
</a>
</g>
</g>
<!-- DTEL&#45;AGR_NAME&#45;&gt;DOMA&#45;AGR_NAME -->
<g id="edge11" class="edge">
<title>DTEL&#45;AGR_NAME&#45;&gt;DOMA&#45;AGR_NAME</title>
<path fill="none" stroke="black" d="M747.64,-71.7C747.64,-63.98 747.64,-54.71 747.64,-46.11"/>
<polygon fill="black" stroke="black" points="751.14,-46.1 747.64,-36.1 744.14,-46.1 751.14,-46.1"/>
</g>
<!-- DOMA&#45;MANDT -->
<g id="node13" class="node">
<title>DOMA&#45;MANDT</title>
<g id="a_node13"><a xlink:href="./DOMA_MANDT.html" xlink:title="DOMA&#45;MANDT">
<polygon fill="none" stroke="yellow" points="952.88,-36 838.39,-36 838.39,0 952.88,0 952.88,-36"/>
<text text-anchor="middle" x="895.64" y="-13.8" font-family="Times,serif" font-size="14.00">DOMA&#45;MANDT</text>
</a>
</g>
</g>
<!-- DTEL&#45;SYMANDT&#45;&gt;DOMA&#45;MANDT -->
<g id="edge12" class="edge">
<title>DTEL&#45;SYMANDT&#45;&gt;DOMA&#45;MANDT</title>
<path fill="none" stroke="black" d="M895.64,-71.7C895.64,-63.98 895.64,-54.71 895.64,-46.11"/>
<polygon fill="black" stroke="black" points="899.14,-46.1 895.64,-36.1 892.14,-46.1 899.14,-46.1"/>
</g>
</g>
</svg>
