<?xml version="1.0" encoding="UTF-8" standalone="no"?>
<!DOCTYPE svg PUBLIC "-//W3C//DTD SVG 1.1//EN"
 "http://www.w3.org/Graphics/SVG/1.1/DTD/svg11.dtd">
<!-- Generated by graphviz version 2.47.3 (20210619.1520)
 -->
<!-- Title: G Pages: 1 -->
<svg width="278pt" height="188pt"
 viewBox="0.00 0.00 278.29 188.00" xmlns="http://www.w3.org/2000/svg" xmlns:xlink="http://www.w3.org/1999/xlink">
<g id="graph0" class="graph" transform="scale(1 1) rotate(0) translate(4 184)">
<title>G</title>
<polygon fill="white" stroke="transparent" points="-4,4 -4,-184 274.29,-184 274.29,4 -4,4"/>
<!-- TABL&#45;SUID_ST_NODE_ROLE_MEMBER -->
<g id="node1" class="node">
<title>TABL&#45;SUID_ST_NODE_ROLE_MEMBER</title>
<polygon fill="none" stroke="yellow" points="270.43,-180 -0.14,-180 -0.14,-144 270.43,-144 270.43,-180"/>
<text text-anchor="middle" x="135.14" y="-157.8" font-family="Times,serif" font-size="14.00">TABL&#45;SUID_ST_NODE_ROLE_MEMBER</text>
</g>
<!-- DTEL&#45;AGR_NAME -->
<g id="node2" class="node">
<title>DTEL&#45;AGR_NAME</title>
<g id="a_node2"><a xlink:href="./DTEL_AGR_NAME.html" xlink:title="DTEL&#45;AGR_NAME">
<polygon fill="none" stroke="yellow" points="202.33,-108 67.96,-108 67.96,-72 202.33,-72 202.33,-108"/>
<text text-anchor="middle" x="135.14" y="-85.8" font-family="Times,serif" font-size="14.00">DTEL&#45;AGR_NAME</text>
</a>
</g>
</g>
<!-- TABL&#45;SUID_ST_NODE_ROLE_MEMBER&#45;&gt;DTEL&#45;AGR_NAME -->
<g id="edge1" class="edge">
<title>TABL&#45;SUID_ST_NODE_ROLE_MEMBER&#45;&gt;DTEL&#45;AGR_NAME</title>
<path fill="none" stroke="black" d="M135.14,-143.7C135.14,-135.98 135.14,-126.71 135.14,-118.11"/>
<polygon fill="black" stroke="black" points="138.64,-118.1 135.14,-108.1 131.64,-118.1 138.64,-118.1"/>
</g>
<!-- DOMA&#45;AGR_NAME -->
<g id="node3" class="node">
<title>DOMA&#45;AGR_NAME</title>
<g id="a_node3"><a xlink:href="./DOMA_AGR_NAME.html" xlink:title="DOMA&#45;AGR_NAME">
<polygon fill="none" stroke="yellow" points="205.83,-36 64.46,-36 64.46,0 205.83,0 205.83,-36"/>
<text text-anchor="middle" x="135.14" y="-13.8" font-family="Times,serif" font-size="14.00">DOMA&#45;AGR_NAME</text>
</a>
</g>
</g>
<!-- DTEL&#45;AGR_NAME&#45;&gt;DOMA&#45;AGR_NAME -->
<g id="edge2" class="edge">
<title>DTEL&#45;AGR_NAME&#45;&gt;DOMA&#45;AGR_NAME</title>
<path fill="none" stroke="black" d="M135.14,-71.7C135.14,-63.98 135.14,-54.71 135.14,-46.11"/>
<polygon fill="black" stroke="black" points="138.64,-46.1 135.14,-36.1 131.64,-46.1 138.64,-46.1"/>
</g>
</g>
</svg>
