<?xml version="1.0" encoding="UTF-8" standalone="no"?>
<!DOCTYPE svg PUBLIC "-//W3C//DTD SVG 1.1//EN"
 "http://www.w3.org/Graphics/SVG/1.1/DTD/svg11.dtd">
<!-- Generated by graphviz version 2.47.3 (20210619.1520)
 -->
<!-- Title: G Pages: 1 -->
<svg width="249pt" height="188pt"
 viewBox="0.00 0.00 249.02 188.00" xmlns="http://www.w3.org/2000/svg" xmlns:xlink="http://www.w3.org/1999/xlink">
<g id="graph0" class="graph" transform="scale(1 1) rotate(0) translate(4 184)">
<title>G</title>
<polygon fill="white" stroke="transparent" points="-4,4 -4,-184 245.02,-184 245.02,4 -4,4"/>
<!-- TABL&#45;BAL_S_DTTM -->
<g id="node1" class="node">
<title>TABL&#45;BAL_S_DTTM</title>
<polygon fill="none" stroke="yellow" points="191.79,-180 45.5,-180 45.5,-144 191.79,-144 191.79,-180"/>
<text text-anchor="middle" x="118.65" y="-157.8" font-family="Times,serif" font-size="14.00">TABL&#45;BAL_S_DTTM</text>
</g>
<!-- DTEL&#45;ALTIME -->
<g id="node2" class="node">
<title>DTEL&#45;ALTIME</title>
<g id="a_node2"><a xlink:href="./DTEL_ALTIME.html" xlink:title="DTEL&#45;ALTIME">
<polygon fill="none" stroke="yellow" points="109.44,-108 -0.15,-108 -0.15,-72 109.44,-72 109.44,-108"/>
<text text-anchor="middle" x="54.65" y="-85.8" font-family="Times,serif" font-size="14.00">DTEL&#45;ALTIME</text>
</a>
</g>
</g>
<!-- TABL&#45;BAL_S_DTTM&#45;&gt;DTEL&#45;ALTIME -->
<g id="edge2" class="edge">
<title>TABL&#45;BAL_S_DTTM&#45;&gt;DTEL&#45;ALTIME</title>
<path fill="none" stroke="black" d="M102.83,-143.7C95.08,-135.22 85.61,-124.86 77.12,-115.58"/>
<polygon fill="black" stroke="black" points="79.62,-113.12 70.29,-108.1 74.45,-117.85 79.62,-113.12"/>
</g>
<!-- DTEL&#45;ALDATE -->
<g id="node4" class="node">
<title>DTEL&#45;ALDATE</title>
<g id="a_node4"><a xlink:href="./DTEL_ALDATE.html" xlink:title="DTEL&#45;ALDATE">
<polygon fill="none" stroke="yellow" points="240.05,-108 127.24,-108 127.24,-72 240.05,-72 240.05,-108"/>
<text text-anchor="middle" x="183.65" y="-85.8" font-family="Times,serif" font-size="14.00">DTEL&#45;ALDATE</text>
</a>
</g>
</g>
<!-- TABL&#45;BAL_S_DTTM&#45;&gt;DTEL&#45;ALDATE -->
<g id="edge1" class="edge">
<title>TABL&#45;BAL_S_DTTM&#45;&gt;DTEL&#45;ALDATE</title>
<path fill="none" stroke="black" d="M134.71,-143.7C142.59,-135.22 152.2,-124.86 160.82,-115.58"/>
<polygon fill="black" stroke="black" points="163.52,-117.81 167.76,-108.1 158.4,-113.05 163.52,-117.81"/>
</g>
<!-- DOMA&#45;TIME -->
<g id="node3" class="node">
<title>DOMA&#45;TIME</title>
<g id="a_node3"><a xlink:href="./DOMA_TIME.html" xlink:title="DOMA&#45;TIME">
<polygon fill="none" stroke="yellow" points="103.28,-36 6.01,-36 6.01,0 103.28,0 103.28,-36"/>
<text text-anchor="middle" x="54.65" y="-13.8" font-family="Times,serif" font-size="14.00">DOMA&#45;TIME</text>
</a>
</g>
</g>
<!-- DTEL&#45;ALTIME&#45;&gt;DOMA&#45;TIME -->
<g id="edge3" class="edge">
<title>DTEL&#45;ALTIME&#45;&gt;DOMA&#45;TIME</title>
<path fill="none" stroke="black" d="M54.65,-71.7C54.65,-63.98 54.65,-54.71 54.65,-46.11"/>
<polygon fill="black" stroke="black" points="58.15,-46.1 54.65,-36.1 51.15,-46.1 58.15,-46.1"/>
</g>
<!-- DOMA&#45;DATUM -->
<g id="node5" class="node">
<title>DOMA&#45;DATUM</title>
<g id="a_node5"><a xlink:href="./DOMA_DATUM.html" xlink:title="DOMA&#45;DATUM">
<polygon fill="none" stroke="yellow" points="240.89,-36 126.41,-36 126.41,0 240.89,0 240.89,-36"/>
<text text-anchor="middle" x="183.65" y="-13.8" font-family="Times,serif" font-size="14.00">DOMA&#45;DATUM</text>
</a>
</g>
</g>
<!-- DTEL&#45;ALDATE&#45;&gt;DOMA&#45;DATUM -->
<g id="edge4" class="edge">
<title>DTEL&#45;ALDATE&#45;&gt;DOMA&#45;DATUM</title>
<path fill="none" stroke="black" d="M183.65,-71.7C183.65,-63.98 183.65,-54.71 183.65,-46.11"/>
<polygon fill="black" stroke="black" points="187.15,-46.1 183.65,-36.1 180.15,-46.1 187.15,-46.1"/>
</g>
</g>
</svg>
