<?xml version="1.0" encoding="UTF-8" standalone="no"?>
<!DOCTYPE svg PUBLIC "-//W3C//DTD SVG 1.1//EN"
 "http://www.w3.org/Graphics/SVG/1.1/DTD/svg11.dtd">
<!-- Generated by graphviz version 2.47.3 (20210619.1520)
 -->
<!-- Title: G Pages: 1 -->
<svg width="542pt" height="188pt"
 viewBox="0.00 0.00 542.42 188.00" xmlns="http://www.w3.org/2000/svg" xmlns:xlink="http://www.w3.org/1999/xlink">
<g id="graph0" class="graph" transform="scale(1 1) rotate(0) translate(4 184)">
<title>G</title>
<polygon fill="white" stroke="transparent" points="-4,4 -4,-184 538.42,-184 538.42,4 -4,4"/>
<!-- TABL&#45;SUID_ST_NODE_CERT_USRRULES -->
<g id="node1" class="node">
<title>TABL&#45;SUID_ST_NODE_CERT_USRRULES</title>
<polygon fill="none" stroke="yellow" points="424.67,-180 143.86,-180 143.86,-144 424.67,-144 424.67,-180"/>
<text text-anchor="middle" x="284.26" y="-157.8" font-family="Times,serif" font-size="14.00">TABL&#45;SUID_ST_NODE_CERT_USRRULES</text>
</g>
<!-- DTEL&#45;CERT_SUBJECT_ALT -->
<g id="node2" class="node">
<title>DTEL&#45;CERT_SUBJECT_ALT</title>
<g id="a_node2"><a xlink:href="./DTEL_CERT_SUBJECT_ALT.html" xlink:title="DTEL&#45;CERT_SUBJECT_ALT">
<polygon fill="none" stroke="yellow" points="192.29,-108 0.24,-108 0.24,-72 192.29,-72 192.29,-108"/>
<text text-anchor="middle" x="96.26" y="-85.8" font-family="Times,serif" font-size="14.00">DTEL&#45;CERT_SUBJECT_ALT</text>
</a>
</g>
</g>
<!-- TABL&#45;SUID_ST_NODE_CERT_USRRULES&#45;&gt;DTEL&#45;CERT_SUBJECT_ALT -->
<g id="edge3" class="edge">
<title>TABL&#45;SUID_ST_NODE_CERT_USRRULES&#45;&gt;DTEL&#45;CERT_SUBJECT_ALT</title>
<path fill="none" stroke="black" d="M238.27,-143.88C212.12,-134.14 179.18,-121.87 151.61,-111.61"/>
<polygon fill="black" stroke="black" points="152.7,-108.28 142.1,-108.07 150.25,-114.84 152.7,-108.28"/>
</g>
<!-- DTEL&#45;CERT_ISSUER -->
<g id="node4" class="node">
<title>DTEL&#45;CERT_ISSUER</title>
<g id="a_node4"><a xlink:href="./DTEL_CERT_ISSUER.html" xlink:title="DTEL&#45;CERT_ISSUER">
<polygon fill="none" stroke="yellow" points="358.19,-108 210.34,-108 210.34,-72 358.19,-72 358.19,-108"/>
<text text-anchor="middle" x="284.26" y="-85.8" font-family="Times,serif" font-size="14.00">DTEL&#45;CERT_ISSUER</text>
</a>
</g>
</g>
<!-- TABL&#45;SUID_ST_NODE_CERT_USRRULES&#45;&gt;DTEL&#45;CERT_ISSUER -->
<g id="edge2" class="edge">
<title>TABL&#45;SUID_ST_NODE_CERT_USRRULES&#45;&gt;DTEL&#45;CERT_ISSUER</title>
<path fill="none" stroke="black" d="M284.26,-143.7C284.26,-135.98 284.26,-126.71 284.26,-118.11"/>
<polygon fill="black" stroke="black" points="287.76,-118.1 284.26,-108.1 280.76,-118.1 287.76,-118.1"/>
</g>
<!-- DTEL&#45;CERT_SUBJECT -->
<g id="node5" class="node">
<title>DTEL&#45;CERT_SUBJECT</title>
<g id="a_node5"><a xlink:href="./DTEL_CERT_SUBJECT.html" xlink:title="DTEL&#45;CERT_SUBJECT">
<polygon fill="none" stroke="yellow" points="534.58,-108 375.95,-108 375.95,-72 534.58,-72 534.58,-108"/>
<text text-anchor="middle" x="455.26" y="-85.8" font-family="Times,serif" font-size="14.00">DTEL&#45;CERT_SUBJECT</text>
</a>
</g>
</g>
<!-- TABL&#45;SUID_ST_NODE_CERT_USRRULES&#45;&gt;DTEL&#45;CERT_SUBJECT -->
<g id="edge1" class="edge">
<title>TABL&#45;SUID_ST_NODE_CERT_USRRULES&#45;&gt;DTEL&#45;CERT_SUBJECT</title>
<path fill="none" stroke="black" d="M326.1,-143.88C349.68,-134.22 379.32,-122.09 404.26,-111.88"/>
<polygon fill="black" stroke="black" points="405.64,-115.1 413.57,-108.07 402.99,-108.62 405.64,-115.1"/>
</g>
<!-- DOMA&#45;CERT_STRING -->
<g id="node3" class="node">
<title>DOMA&#45;CERT_STRING</title>
<g id="a_node3"><a xlink:href="./DOMA_CERT_STRING.html" xlink:title="DOMA&#45;CERT_STRING">
<polygon fill="none" stroke="yellow" points="362.51,-36 206.01,-36 206.01,0 362.51,0 362.51,-36"/>
<text text-anchor="middle" x="284.26" y="-13.8" font-family="Times,serif" font-size="14.00">DOMA&#45;CERT_STRING</text>
</a>
</g>
</g>
<!-- DTEL&#45;CERT_SUBJECT_ALT&#45;&gt;DOMA&#45;CERT_STRING -->
<g id="edge4" class="edge">
<title>DTEL&#45;CERT_SUBJECT_ALT&#45;&gt;DOMA&#45;CERT_STRING</title>
<path fill="none" stroke="black" d="M142.25,-71.88C168.41,-62.14 201.35,-49.87 228.92,-39.61"/>
<polygon fill="black" stroke="black" points="230.27,-42.84 238.42,-36.07 227.83,-36.28 230.27,-42.84"/>
</g>
<!-- DTEL&#45;CERT_ISSUER&#45;&gt;DOMA&#45;CERT_STRING -->
<g id="edge5" class="edge">
<title>DTEL&#45;CERT_ISSUER&#45;&gt;DOMA&#45;CERT_STRING</title>
<path fill="none" stroke="black" d="M284.26,-71.7C284.26,-63.98 284.26,-54.71 284.26,-46.11"/>
<polygon fill="black" stroke="black" points="287.76,-46.1 284.26,-36.1 280.76,-46.1 287.76,-46.1"/>
</g>
<!-- DTEL&#45;CERT_SUBJECT&#45;&gt;DOMA&#45;CERT_STRING -->
<g id="edge6" class="edge">
<title>DTEL&#45;CERT_SUBJECT&#45;&gt;DOMA&#45;CERT_STRING</title>
<path fill="none" stroke="black" d="M413.43,-71.88C389.85,-62.22 360.2,-50.09 335.26,-39.88"/>
<polygon fill="black" stroke="black" points="336.54,-36.62 325.96,-36.07 333.89,-43.1 336.54,-36.62"/>
</g>
</g>
</svg>
