<?xml version="1.0" encoding="UTF-8" standalone="no"?>
<!DOCTYPE svg PUBLIC "-//W3C//DTD SVG 1.1//EN"
 "http://www.w3.org/Graphics/SVG/1.1/DTD/svg11.dtd">
<!-- Generated by graphviz version 2.47.3 (20210619.1520)
 -->
<!-- Title: G Pages: 1 -->
<svg width="926pt" height="332pt"
 viewBox="0.00 0.00 926.31 332.00" xmlns="http://www.w3.org/2000/svg" xmlns:xlink="http://www.w3.org/1999/xlink">
<g id="graph0" class="graph" transform="scale(1 1) rotate(0) translate(4 328)">
<title>G</title>
<polygon fill="white" stroke="transparent" points="-4,4 -4,-328 922.31,-328 922.31,4 -4,4"/>
<!-- TABL&#45;APS_COM_CS_S_BP_ODATA_API -->
<g id="node1" class="node">
<title>TABL&#45;APS_COM_CS_S_BP_ODATA_API</title>
<polygon fill="none" stroke="yellow" points="518.47,-324 247.84,-324 247.84,-288 518.47,-288 518.47,-324"/>
<text text-anchor="middle" x="383.16" y="-301.8" font-family="Times,serif" font-size="14.00">TABL&#45;APS_COM_CS_S_BP_ODATA_API</text>
</g>
<!-- DTEL&#45;CHAR80 -->
<g id="node2" class="node">
<title>DTEL&#45;CHAR80</title>
<g id="a_node2"><a xlink:href="./DTEL_CHAR80.html" xlink:title="DTEL&#45;CHAR80">
<polygon fill="none" stroke="yellow" points="116.97,-252 7.34,-252 7.34,-216 116.97,-216 116.97,-252"/>
<text text-anchor="middle" x="62.16" y="-229.8" font-family="Times,serif" font-size="14.00">DTEL&#45;CHAR80</text>
</a>
</g>
</g>
<!-- TABL&#45;APS_COM_CS_S_BP_ODATA_API&#45;&gt;DTEL&#45;CHAR80 -->
<g id="edge5" class="edge">
<title>TABL&#45;APS_COM_CS_S_BP_ODATA_API&#45;&gt;DTEL&#45;CHAR80</title>
<path fill="none" stroke="black" d="M296.84,-287.94C247.6,-277.97 184.79,-264.86 129.16,-252 128.41,-251.83 127.66,-251.65 126.91,-251.48"/>
<polygon fill="black" stroke="black" points="127.49,-248.02 116.96,-249.11 125.87,-254.83 127.49,-248.02"/>
</g>
<!-- DTEL&#45;BU_PARTNER -->
<g id="node4" class="node">
<title>DTEL&#45;BU_PARTNER</title>
<g id="a_node4"><a xlink:href="./DTEL_BU_PARTNER.html" xlink:title="DTEL&#45;BU_PARTNER">
<polygon fill="none" stroke="yellow" points="284.3,-252 138.01,-252 138.01,-216 284.3,-216 284.3,-252"/>
<text text-anchor="middle" x="211.16" y="-229.8" font-family="Times,serif" font-size="14.00">DTEL&#45;BU_PARTNER</text>
</a>
</g>
</g>
<!-- TABL&#45;APS_COM_CS_S_BP_ODATA_API&#45;&gt;DTEL&#45;BU_PARTNER -->
<g id="edge4" class="edge">
<title>TABL&#45;APS_COM_CS_S_BP_ODATA_API&#45;&gt;DTEL&#45;BU_PARTNER</title>
<path fill="none" stroke="black" d="M341.08,-287.88C317.36,-278.22 287.54,-266.09 262.45,-255.88"/>
<polygon fill="black" stroke="black" points="263.68,-252.6 253.09,-252.07 261.04,-259.08 263.68,-252.6"/>
</g>
<!-- DTEL&#45;SUIDTECHDESC -->
<g id="node6" class="node">
<title>DTEL&#45;SUIDTECHDESC</title>
<g id="a_node6"><a xlink:href="./DTEL_SUIDTECHDESC.html" xlink:title="DTEL&#45;SUIDTECHDESC">
<polygon fill="none" stroke="yellow" points="464.06,-252 302.25,-252 302.25,-216 464.06,-216 464.06,-252"/>
<text text-anchor="middle" x="383.16" y="-229.8" font-family="Times,serif" font-size="14.00">DTEL&#45;SUIDTECHDESC</text>
</a>
</g>
</g>
<!-- TABL&#45;APS_COM_CS_S_BP_ODATA_API&#45;&gt;DTEL&#45;SUIDTECHDESC -->
<g id="edge3" class="edge">
<title>TABL&#45;APS_COM_CS_S_BP_ODATA_API&#45;&gt;DTEL&#45;SUIDTECHDESC</title>
<path fill="none" stroke="black" d="M383.16,-287.7C383.16,-279.98 383.16,-270.71 383.16,-262.11"/>
<polygon fill="black" stroke="black" points="386.66,-262.1 383.16,-252.1 379.66,-262.1 386.66,-262.1"/>
</g>
<!-- TABL&#45;APS_CS_S_BUSINESS_PARTNER_D -->
<g id="node8" class="node">
<title>TABL&#45;APS_CS_S_BUSINESS_PARTNER_D</title>
<g id="a_node8"><a xlink:href="./TABL_APS_CS_S_BUSINESS_PARTNER_D.html" xlink:title="TABL&#45;APS_CS_S_BUSINESS_PARTNER_D">
<polygon fill="none" stroke="yellow" points="764.43,-252 481.88,-252 481.88,-216 764.43,-216 764.43,-252"/>
<text text-anchor="middle" x="623.16" y="-229.8" font-family="Times,serif" font-size="14.00">TABL&#45;APS_CS_S_BUSINESS_PARTNER_D</text>
</a>
</g>
</g>
<!-- TABL&#45;APS_COM_CS_S_BP_ODATA_API&#45;&gt;TABL&#45;APS_CS_S_BUSINESS_PARTNER_D -->
<g id="edge2" class="edge">
<title>TABL&#45;APS_COM_CS_S_BP_ODATA_API&#45;&gt;TABL&#45;APS_CS_S_BUSINESS_PARTNER_D</title>
<path fill="none" stroke="black" d="M441.56,-287.97C475.68,-278.01 518.91,-265.41 554.63,-254.99"/>
<polygon fill="black" stroke="black" points="555.87,-258.27 564.49,-252.11 553.91,-251.55 555.87,-258.27"/>
</g>
<!-- DTEL&#45;APS_CS_ID -->
<g id="node16" class="node">
<title>DTEL&#45;APS_CS_ID</title>
<g id="a_node16"><a xlink:href="./DTEL_APS_CS_ID.html" xlink:title="DTEL&#45;APS_CS_ID">
<polygon fill="none" stroke="yellow" points="910.14,-252 782.17,-252 782.17,-216 910.14,-216 910.14,-252"/>
<text text-anchor="middle" x="846.16" y="-229.8" font-family="Times,serif" font-size="14.00">DTEL&#45;APS_CS_ID</text>
</a>
</g>
</g>
<!-- TABL&#45;APS_COM_CS_S_BP_ODATA_API&#45;&gt;DTEL&#45;APS_CS_ID -->
<g id="edge1" class="edge">
<title>TABL&#45;APS_COM_CS_S_BP_ODATA_API&#45;&gt;DTEL&#45;APS_CS_ID</title>
<path fill="none" stroke="black" d="M518.57,-289.76C591.1,-280.84 682.13,-268.42 772.03,-252.12"/>
<polygon fill="black" stroke="black" points="772.93,-255.51 782.13,-250.27 771.67,-248.63 772.93,-255.51"/>
</g>
<!-- DOMA&#45;CHAR80 -->
<g id="node3" class="node">
<title>DOMA&#45;CHAR80</title>
<g id="a_node3"><a xlink:href="./DOMA_CHAR80.html" xlink:title="DOMA&#45;CHAR80">
<polygon fill="none" stroke="yellow" points="116.47,-180 -0.16,-180 -0.16,-144 116.47,-144 116.47,-180"/>
<text text-anchor="middle" x="58.16" y="-157.8" font-family="Times,serif" font-size="14.00">DOMA&#45;CHAR80</text>
</a>
</g>
</g>
<!-- DTEL&#45;CHAR80&#45;&gt;DOMA&#45;CHAR80 -->
<g id="edge6" class="edge">
<title>DTEL&#45;CHAR80&#45;&gt;DOMA&#45;CHAR80</title>
<path fill="none" stroke="black" d="M61.17,-215.7C60.73,-207.98 60.2,-198.71 59.7,-190.11"/>
<polygon fill="black" stroke="black" points="63.2,-189.89 59.13,-180.1 56.21,-190.29 63.2,-189.89"/>
</g>
<!-- DOMA&#45;BU_PARTNER -->
<g id="node5" class="node">
<title>DOMA&#45;BU_PARTNER</title>
<g id="a_node5"><a xlink:href="./DOMA_BU_PARTNER.html" xlink:title="DOMA&#45;BU_PARTNER">
<polygon fill="none" stroke="yellow" points="287.8,-180 134.51,-180 134.51,-144 287.8,-144 287.8,-180"/>
<text text-anchor="middle" x="211.16" y="-157.8" font-family="Times,serif" font-size="14.00">DOMA&#45;BU_PARTNER</text>
</a>
</g>
</g>
<!-- DTEL&#45;BU_PARTNER&#45;&gt;DOMA&#45;BU_PARTNER -->
<g id="edge7" class="edge">
<title>DTEL&#45;BU_PARTNER&#45;&gt;DOMA&#45;BU_PARTNER</title>
<path fill="none" stroke="black" d="M211.16,-215.7C211.16,-207.98 211.16,-198.71 211.16,-190.11"/>
<polygon fill="black" stroke="black" points="214.66,-190.1 211.16,-180.1 207.66,-190.1 214.66,-190.1"/>
</g>
<!-- DOMA&#45;SUIDTECHDESC -->
<g id="node7" class="node">
<title>DOMA&#45;SUIDTECHDESC</title>
<g id="a_node7"><a xlink:href="./DOMA_SUIDTECHDESC.html" xlink:title="DOMA&#45;SUIDTECHDESC">
<polygon fill="none" stroke="yellow" points="474.56,-180 305.75,-180 305.75,-144 474.56,-144 474.56,-180"/>
<text text-anchor="middle" x="390.16" y="-157.8" font-family="Times,serif" font-size="14.00">DOMA&#45;SUIDTECHDESC</text>
</a>
</g>
</g>
<!-- DTEL&#45;SUIDTECHDESC&#45;&gt;DOMA&#45;SUIDTECHDESC -->
<g id="edge8" class="edge">
<title>DTEL&#45;SUIDTECHDESC&#45;&gt;DOMA&#45;SUIDTECHDESC</title>
<path fill="none" stroke="black" d="M384.89,-215.7C385.66,-207.98 386.58,-198.71 387.44,-190.11"/>
<polygon fill="black" stroke="black" points="390.93,-190.4 388.45,-180.1 383.97,-189.71 390.93,-190.4"/>
</g>
<!-- TABL&#45;APS_S_LIB_ADMIN_DATA -->
<g id="node9" class="node">
<title>TABL&#45;APS_S_LIB_ADMIN_DATA</title>
<g id="a_node9"><a xlink:href="./TABL_APS_S_LIB_ADMIN_DATA.html" xlink:title="TABL&#45;APS_S_LIB_ADMIN_DATA">
<polygon fill="none" stroke="yellow" points="727.67,-180 500.64,-180 500.64,-144 727.67,-144 727.67,-180"/>
<text text-anchor="middle" x="614.16" y="-157.8" font-family="Times,serif" font-size="14.00">TABL&#45;APS_S_LIB_ADMIN_DATA</text>
</a>
</g>
</g>
<!-- TABL&#45;APS_CS_S_BUSINESS_PARTNER_D&#45;&gt;TABL&#45;APS_S_LIB_ADMIN_DATA -->
<g id="edge10" class="edge">
<title>TABL&#45;APS_CS_S_BUSINESS_PARTNER_D&#45;&gt;TABL&#45;APS_S_LIB_ADMIN_DATA</title>
<path fill="none" stroke="black" d="M620.93,-215.7C619.94,-207.98 618.75,-198.71 617.64,-190.11"/>
<polygon fill="black" stroke="black" points="621.1,-189.58 616.35,-180.1 614.16,-190.47 621.1,-189.58"/>
</g>
<!-- DTEL&#45;APS_CS_BP_UUID -->
<g id="node14" class="node">
<title>DTEL&#45;APS_CS_BP_UUID</title>
<g id="a_node14"><a xlink:href="./DTEL_APS_CS_BP_UUID.html" xlink:title="DTEL&#45;APS_CS_BP_UUID">
<polygon fill="none" stroke="yellow" points="918.47,-180 745.84,-180 745.84,-144 918.47,-144 918.47,-180"/>
<text text-anchor="middle" x="832.16" y="-157.8" font-family="Times,serif" font-size="14.00">DTEL&#45;APS_CS_BP_UUID</text>
</a>
</g>
</g>
<!-- TABL&#45;APS_CS_S_BUSINESS_PARTNER_D&#45;&gt;DTEL&#45;APS_CS_BP_UUID -->
<g id="edge9" class="edge">
<title>TABL&#45;APS_CS_S_BUSINESS_PARTNER_D&#45;&gt;DTEL&#45;APS_CS_BP_UUID</title>
<path fill="none" stroke="black" d="M674.02,-215.97C703.34,-206.14 740.41,-193.73 771.28,-183.39"/>
<polygon fill="black" stroke="black" points="772.7,-186.61 781.07,-180.11 770.47,-179.97 772.7,-186.61"/>
</g>
<!-- DTEL&#45;UNAME -->
<g id="node10" class="node">
<title>DTEL&#45;UNAME</title>
<g id="a_node10"><a xlink:href="./DTEL_UNAME.html" xlink:title="DTEL&#45;UNAME">
<polygon fill="none" stroke="yellow" points="554.9,-108 447.41,-108 447.41,-72 554.9,-72 554.9,-108"/>
<text text-anchor="middle" x="501.16" y="-85.8" font-family="Times,serif" font-size="14.00">DTEL&#45;UNAME</text>
</a>
</g>
</g>
<!-- TABL&#45;APS_S_LIB_ADMIN_DATA&#45;&gt;DTEL&#45;UNAME -->
<g id="edge12" class="edge">
<title>TABL&#45;APS_S_LIB_ADMIN_DATA&#45;&gt;DTEL&#45;UNAME</title>
<path fill="none" stroke="black" d="M586.51,-143.88C571.74,-134.72 553.36,-123.34 537.45,-113.48"/>
<polygon fill="black" stroke="black" points="539.25,-110.48 528.9,-108.19 535.56,-116.43 539.25,-110.48"/>
</g>
<!-- DTEL&#45;TIMESTAMPL -->
<g id="node12" class="node">
<title>DTEL&#45;TIMESTAMPL</title>
<g id="a_node12"><a xlink:href="./DTEL_TIMESTAMPL.html" xlink:title="DTEL&#45;TIMESTAMPL">
<polygon fill="none" stroke="green" points="720.01,-108 574.3,-108 574.3,-72 720.01,-72 720.01,-108"/>
<text text-anchor="middle" x="647.16" y="-85.8" font-family="Times,serif" font-size="14.00">DTEL&#45;TIMESTAMPL</text>
</a>
</g>
</g>
<!-- TABL&#45;APS_S_LIB_ADMIN_DATA&#45;&gt;DTEL&#45;TIMESTAMPL -->
<g id="edge11" class="edge">
<title>TABL&#45;APS_S_LIB_ADMIN_DATA&#45;&gt;DTEL&#45;TIMESTAMPL</title>
<path fill="none" stroke="black" d="M622.31,-143.7C626.07,-135.73 630.61,-126.1 634.77,-117.26"/>
<polygon fill="black" stroke="black" points="637.99,-118.64 639.09,-108.1 631.66,-115.66 637.99,-118.64"/>
</g>
<!-- DOMA&#45;UNAME -->
<g id="node11" class="node">
<title>DOMA&#45;UNAME</title>
<g id="a_node11"><a xlink:href="./DOMA_UNAME.html" xlink:title="DOMA&#45;UNAME">
<polygon fill="none" stroke="yellow" points="557.4,-36 442.91,-36 442.91,0 557.4,0 557.4,-36"/>
<text text-anchor="middle" x="500.16" y="-13.8" font-family="Times,serif" font-size="14.00">DOMA&#45;UNAME</text>
</a>
</g>
</g>
<!-- DTEL&#45;UNAME&#45;&gt;DOMA&#45;UNAME -->
<g id="edge13" class="edge">
<title>DTEL&#45;UNAME&#45;&gt;DOMA&#45;UNAME</title>
<path fill="none" stroke="black" d="M500.91,-71.7C500.8,-63.98 500.67,-54.71 500.54,-46.11"/>
<polygon fill="black" stroke="black" points="504.04,-46.05 500.4,-36.1 497.04,-46.15 504.04,-46.05"/>
</g>
<!-- DOMA&#45;TZNTSTMPL -->
<g id="node13" class="node">
<title>DOMA&#45;TZNTSTMPL</title>
<g id="a_node13"><a xlink:href="./DOMA_TZNTSTMPL.html" xlink:title="DOMA&#45;TZNTSTMPL">
<polygon fill="none" stroke="yellow" points="720.46,-36 575.85,-36 575.85,0 720.46,0 720.46,-36"/>
<text text-anchor="middle" x="648.16" y="-13.8" font-family="Times,serif" font-size="14.00">DOMA&#45;TZNTSTMPL</text>
</a>
</g>
</g>
<!-- DTEL&#45;TIMESTAMPL&#45;&gt;DOMA&#45;TZNTSTMPL -->
<g id="edge14" class="edge">
<title>DTEL&#45;TIMESTAMPL&#45;&gt;DOMA&#45;TZNTSTMPL</title>
<path fill="none" stroke="black" d="M647.4,-71.7C647.51,-63.98 647.65,-54.71 647.77,-46.11"/>
<polygon fill="black" stroke="black" points="651.27,-46.15 647.91,-36.1 644.27,-46.05 651.27,-46.15"/>
</g>
<!-- DOMA&#45;SYSUUID -->
<g id="node15" class="node">
<title>DOMA&#45;SYSUUID</title>
<g id="a_node15"><a xlink:href="./DOMA_SYSUUID.html" xlink:title="DOMA&#45;SYSUUID">
<polygon fill="none" stroke="yellow" points="894.23,-108 770.08,-108 770.08,-72 894.23,-72 894.23,-108"/>
<text text-anchor="middle" x="832.16" y="-85.8" font-family="Times,serif" font-size="14.00">DOMA&#45;SYSUUID</text>
</a>
</g>
</g>
<!-- DTEL&#45;APS_CS_BP_UUID&#45;&gt;DOMA&#45;SYSUUID -->
<g id="edge15" class="edge">
<title>DTEL&#45;APS_CS_BP_UUID&#45;&gt;DOMA&#45;SYSUUID</title>
<path fill="none" stroke="black" d="M832.16,-143.7C832.16,-135.98 832.16,-126.71 832.16,-118.11"/>
<polygon fill="black" stroke="black" points="835.66,-118.1 832.16,-108.1 828.66,-118.1 835.66,-118.1"/>
</g>
</g>
</svg>
