<?xml version="1.0" encoding="UTF-8" standalone="no"?>
<!DOCTYPE svg PUBLIC "-//W3C//DTD SVG 1.1//EN"
 "http://www.w3.org/Graphics/SVG/1.1/DTD/svg11.dtd">
<!-- Generated by graphviz version 2.47.3 (20210619.1520)
 -->
<!-- Title: G Pages: 1 -->
<svg width="864pt" height="188pt"
 viewBox="0.00 0.00 863.62 188.00" xmlns="http://www.w3.org/2000/svg" xmlns:xlink="http://www.w3.org/1999/xlink">
<g id="graph0" class="graph" transform="scale(1 1) rotate(0) translate(4 184)">
<title>G</title>
<polygon fill="white" stroke="transparent" points="-4,4 -4,-184 859.62,-184 859.62,4 -4,4"/>
<!-- TABL&#45;TSA4C_CP_SVC_CONN_DETAILS -->
<g id="node1" class="node">
<title>TABL&#45;TSA4C_CP_SVC_CONN_DETAILS</title>
<polygon fill="none" stroke="green" points="608.33,-180 337.72,-180 337.72,-144 608.33,-144 608.33,-180"/>
<text text-anchor="middle" x="473.03" y="-157.8" font-family="Times,serif" font-size="14.00">TABL&#45;TSA4C_CP_SVC_CONN_DETAILS</text>
</g>
<!-- DTEL&#45;OA2C_CONFIGURATION -->
<g id="node2" class="node">
<title>DTEL&#45;OA2C_CONFIGURATION</title>
<g id="a_node2"><a xlink:href="./DTEL_OA2C_CONFIGURATION.html" xlink:title="DTEL&#45;OA2C_CONFIGURATION">
<polygon fill="none" stroke="yellow" points="218.58,-108 3.47,-108 3.47,-72 218.58,-72 218.58,-108"/>
<text text-anchor="middle" x="111.03" y="-85.8" font-family="Times,serif" font-size="14.00">DTEL&#45;OA2C_CONFIGURATION</text>
</a>
</g>
</g>
<!-- TABL&#45;TSA4C_CP_SVC_CONN_DETAILS&#45;&gt;DTEL&#45;OA2C_CONFIGURATION -->
<g id="edge4" class="edge">
<title>TABL&#45;TSA4C_CP_SVC_CONN_DETAILS&#45;&gt;DTEL&#45;OA2C_CONFIGURATION</title>
<path fill="none" stroke="black" d="M384.93,-143.97C331.84,-133.7 264.1,-120.6 209.28,-110"/>
<polygon fill="black" stroke="black" points="209.68,-106.51 199.2,-108.05 208.35,-113.39 209.68,-106.51"/>
</g>
<!-- DTEL&#45;A4C_CP_SVC_AUTHN_TYPE -->
<g id="node4" class="node">
<title>DTEL&#45;A4C_CP_SVC_AUTHN_TYPE</title>
<g id="a_node4"><a xlink:href="./DTEL_A4C_CP_SVC_AUTHN_TYPE.html" xlink:title="DTEL&#45;A4C_CP_SVC_AUTHN_TYPE">
<polygon fill="none" stroke="yellow" points="475.71,-108 236.34,-108 236.34,-72 475.71,-72 475.71,-108"/>
<text text-anchor="middle" x="356.03" y="-85.8" font-family="Times,serif" font-size="14.00">DTEL&#45;A4C_CP_SVC_AUTHN_TYPE</text>
</a>
</g>
</g>
<!-- TABL&#45;TSA4C_CP_SVC_CONN_DETAILS&#45;&gt;DTEL&#45;A4C_CP_SVC_AUTHN_TYPE -->
<g id="edge3" class="edge">
<title>TABL&#45;TSA4C_CP_SVC_CONN_DETAILS&#45;&gt;DTEL&#45;A4C_CP_SVC_AUTHN_TYPE</title>
<path fill="none" stroke="black" d="M444.4,-143.88C429.11,-134.72 410.08,-123.34 393.61,-113.48"/>
<polygon fill="black" stroke="black" points="395.14,-110.32 384.76,-108.19 391.54,-116.33 395.14,-110.32"/>
</g>
<!-- DTEL&#45;A4C_CP_SVC_LPORT -->
<g id="node5" class="node">
<title>DTEL&#45;A4C_CP_SVC_LPORT</title>
<g id="a_node5"><a xlink:href="./DTEL_A4C_CP_SVC_LPORT.html" xlink:title="DTEL&#45;A4C_CP_SVC_LPORT">
<polygon fill="none" stroke="yellow" points="686.07,-108 493.98,-108 493.98,-72 686.07,-72 686.07,-108"/>
<text text-anchor="middle" x="590.03" y="-85.8" font-family="Times,serif" font-size="14.00">DTEL&#45;A4C_CP_SVC_LPORT</text>
</a>
</g>
</g>
<!-- TABL&#45;TSA4C_CP_SVC_CONN_DETAILS&#45;&gt;DTEL&#45;A4C_CP_SVC_LPORT -->
<g id="edge2" class="edge">
<title>TABL&#45;TSA4C_CP_SVC_CONN_DETAILS&#45;&gt;DTEL&#45;A4C_CP_SVC_LPORT</title>
<path fill="none" stroke="black" d="M501.65,-143.88C516.94,-134.72 535.97,-123.34 552.44,-113.48"/>
<polygon fill="black" stroke="black" points="554.51,-116.33 561.29,-108.19 550.92,-110.32 554.51,-116.33"/>
</g>
<!-- DTEL&#45;SYSUUID_X16 -->
<g id="node7" class="node">
<title>DTEL&#45;SYSUUID_X16</title>
<g id="a_node7"><a xlink:href="./DTEL_SYSUUID_X16.html" xlink:title="DTEL&#45;SYSUUID_X16">
<polygon fill="none" stroke="green" points="852.21,-108 703.84,-108 703.84,-72 852.21,-72 852.21,-108"/>
<text text-anchor="middle" x="778.03" y="-85.8" font-family="Times,serif" font-size="14.00">DTEL&#45;SYSUUID_X16</text>
</a>
</g>
</g>
<!-- TABL&#45;TSA4C_CP_SVC_CONN_DETAILS&#45;&gt;DTEL&#45;SYSUUID_X16 -->
<g id="edge1" class="edge">
<title>TABL&#45;TSA4C_CP_SVC_CONN_DETAILS&#45;&gt;DTEL&#45;SYSUUID_X16</title>
<path fill="none" stroke="black" d="M547.25,-143.97C591.52,-133.8 647.87,-120.87 693.8,-110.33"/>
<polygon fill="black" stroke="black" points="694.77,-113.7 703.74,-108.05 693.21,-106.88 694.77,-113.7"/>
</g>
<!-- DOMA&#45;OA2C_CONFIGURATION -->
<g id="node3" class="node">
<title>DOMA&#45;OA2C_CONFIGURATION</title>
<g id="a_node3"><a xlink:href="./DOMA_OA2C_CONFIGURATION.html" xlink:title="DOMA&#45;OA2C_CONFIGURATION">
<polygon fill="none" stroke="yellow" points="222.08,-36 -0.03,-36 -0.03,0 222.08,0 222.08,-36"/>
<text text-anchor="middle" x="111.03" y="-13.8" font-family="Times,serif" font-size="14.00">DOMA&#45;OA2C_CONFIGURATION</text>
</a>
</g>
</g>
<!-- DTEL&#45;OA2C_CONFIGURATION&#45;&gt;DOMA&#45;OA2C_CONFIGURATION -->
<g id="edge5" class="edge">
<title>DTEL&#45;OA2C_CONFIGURATION&#45;&gt;DOMA&#45;OA2C_CONFIGURATION</title>
<path fill="none" stroke="black" d="M111.03,-71.7C111.03,-63.98 111.03,-54.71 111.03,-46.11"/>
<polygon fill="black" stroke="black" points="114.53,-46.1 111.03,-36.1 107.53,-46.1 114.53,-46.1"/>
</g>
<!-- DOMA&#45;RFCDEST -->
<g id="node6" class="node">
<title>DOMA&#45;RFCDEST</title>
<g id="a_node6"><a xlink:href="./DOMA_RFCDEST.html" xlink:title="DOMA&#45;RFCDEST">
<polygon fill="none" stroke="yellow" points="652.4,-36 527.65,-36 527.65,0 652.4,0 652.4,-36"/>
<text text-anchor="middle" x="590.03" y="-13.8" font-family="Times,serif" font-size="14.00">DOMA&#45;RFCDEST</text>
</a>
</g>
</g>
<!-- DTEL&#45;A4C_CP_SVC_LPORT&#45;&gt;DOMA&#45;RFCDEST -->
<g id="edge6" class="edge">
<title>DTEL&#45;A4C_CP_SVC_LPORT&#45;&gt;DOMA&#45;RFCDEST</title>
<path fill="none" stroke="black" d="M590.03,-71.7C590.03,-63.98 590.03,-54.71 590.03,-46.11"/>
<polygon fill="black" stroke="black" points="593.53,-46.1 590.03,-36.1 586.53,-46.1 593.53,-46.1"/>
</g>
<!-- DOMA&#45;SYSUUID_X16 -->
<g id="node8" class="node">
<title>DOMA&#45;SYSUUID_X16</title>
<g id="a_node8"><a xlink:href="./DOMA_SYSUUID_X16.html" xlink:title="DOMA&#45;SYSUUID_X16">
<polygon fill="none" stroke="yellow" points="855.71,-36 700.34,-36 700.34,0 855.71,0 855.71,-36"/>
<text text-anchor="middle" x="778.03" y="-13.8" font-family="Times,serif" font-size="14.00">DOMA&#45;SYSUUID_X16</text>
</a>
</g>
</g>
<!-- DTEL&#45;SYSUUID_X16&#45;&gt;DOMA&#45;SYSUUID_X16 -->
<g id="edge7" class="edge">
<title>DTEL&#45;SYSUUID_X16&#45;&gt;DOMA&#45;SYSUUID_X16</title>
<path fill="none" stroke="black" d="M778.03,-71.7C778.03,-63.98 778.03,-54.71 778.03,-46.11"/>
<polygon fill="black" stroke="black" points="781.53,-46.1 778.03,-36.1 774.53,-46.1 781.53,-46.1"/>
</g>
</g>
</svg>
