<?xml version="1.0" encoding="UTF-8" standalone="no"?>
<!DOCTYPE svg PUBLIC "-//W3C//DTD SVG 1.1//EN"
 "http://www.w3.org/Graphics/SVG/1.1/DTD/svg11.dtd">
<!-- Generated by graphviz version 2.47.3 (20210619.1520)
 -->
<!-- Title: G Pages: 1 -->
<svg width="762pt" height="260pt"
 viewBox="0.00 0.00 761.60 260.00" xmlns="http://www.w3.org/2000/svg" xmlns:xlink="http://www.w3.org/1999/xlink">
<g id="graph0" class="graph" transform="scale(1 1) rotate(0) translate(4 256)">
<title>G</title>
<polygon fill="white" stroke="transparent" points="-4,4 -4,-256 757.6,-256 757.6,4 -4,4"/>
<!-- TABL&#45;FPRTS_PDFOPTIONS -->
<g id="node1" class="node">
<title>TABL&#45;FPRTS_PDFOPTIONS</title>
<polygon fill="none" stroke="yellow" points="576.1,-252 385.67,-252 385.67,-216 576.1,-216 576.1,-252"/>
<text text-anchor="middle" x="480.88" y="-229.8" font-family="Times,serif" font-size="14.00">TABL&#45;FPRTS_PDFOPTIONS</text>
</g>
<!-- DTEL&#45;FPFNTEMB -->
<g id="node2" class="node">
<title>DTEL&#45;FPFNTEMB</title>
<g id="a_node2"><a xlink:href="./DTEL_FPFNTEMB.html" xlink:title="DTEL&#45;FPFNTEMB">
<polygon fill="none" stroke="yellow" points="135.15,-180 6.62,-180 6.62,-144 135.15,-144 135.15,-180"/>
<text text-anchor="middle" x="70.88" y="-157.8" font-family="Times,serif" font-size="14.00">DTEL&#45;FPFNTEMB</text>
</a>
</g>
</g>
<!-- TABL&#45;FPRTS_PDFOPTIONS&#45;&gt;DTEL&#45;FPFNTEMB -->
<g id="edge5" class="edge">
<title>TABL&#45;FPRTS_PDFOPTIONS&#45;&gt;DTEL&#45;FPFNTEMB</title>
<path fill="none" stroke="black" d="M385.59,-219.5C318.62,-209.62 227.04,-195.31 146.88,-180 146.42,-179.91 145.95,-179.82 145.48,-179.73"/>
<polygon fill="black" stroke="black" points="146,-176.26 135.51,-177.74 144.63,-183.13 146,-176.26"/>
</g>
<!-- DTEL&#45;FPCHANGESRESTRICTED -->
<g id="node4" class="node">
<title>DTEL&#45;FPCHANGESRESTRICTED</title>
<g id="a_node4"><a xlink:href="./DTEL_FPCHANGESRESTRICTED.html" xlink:title="DTEL&#45;FPCHANGESRESTRICTED">
<polygon fill="none" stroke="yellow" points="378.24,-180 155.52,-180 155.52,-144 378.24,-144 378.24,-180"/>
<text text-anchor="middle" x="266.88" y="-157.8" font-family="Times,serif" font-size="14.00">DTEL&#45;FPCHANGESRESTRICTED</text>
</a>
</g>
</g>
<!-- TABL&#45;FPRTS_PDFOPTIONS&#45;&gt;DTEL&#45;FPCHANGESRESTRICTED -->
<g id="edge4" class="edge">
<title>TABL&#45;FPRTS_PDFOPTIONS&#45;&gt;DTEL&#45;FPCHANGESRESTRICTED</title>
<path fill="none" stroke="black" d="M428.81,-215.97C398.65,-206.1 360.5,-193.62 328.81,-183.25"/>
<polygon fill="black" stroke="black" points="329.79,-179.89 319.19,-180.11 327.61,-186.55 329.79,-179.89"/>
</g>
<!-- TABL&#45;SFPINITIALVIEW -->
<g id="node6" class="node">
<title>TABL&#45;SFPINITIALVIEW</title>
<g id="a_node6"><a xlink:href="./TABL_SFPINITIALVIEW.html" xlink:title="TABL&#45;SFPINITIALVIEW">
<polygon fill="none" stroke="yellow" points="565.27,-180 396.49,-180 396.49,-144 565.27,-144 565.27,-180"/>
<text text-anchor="middle" x="480.88" y="-157.8" font-family="Times,serif" font-size="14.00">TABL&#45;SFPINITIALVIEW</text>
</a>
</g>
</g>
<!-- TABL&#45;FPRTS_PDFOPTIONS&#45;&gt;TABL&#45;SFPINITIALVIEW -->
<g id="edge3" class="edge">
<title>TABL&#45;FPRTS_PDFOPTIONS&#45;&gt;TABL&#45;SFPINITIALVIEW</title>
<path fill="none" stroke="black" d="M480.88,-215.7C480.88,-207.98 480.88,-198.71 480.88,-190.11"/>
<polygon fill="black" stroke="black" points="484.38,-190.1 480.88,-180.1 477.38,-190.1 484.38,-190.1"/>
</g>
<!-- DTEL&#45;FPBOOLEAN -->
<g id="node7" class="node">
<title>DTEL&#45;FPBOOLEAN</title>
<g id="a_node7"><a xlink:href="./DTEL_FPBOOLEAN.html" xlink:title="DTEL&#45;FPBOOLEAN">
<polygon fill="none" stroke="yellow" points="576.24,-108 437.52,-108 437.52,-72 576.24,-72 576.24,-108"/>
<text text-anchor="middle" x="506.88" y="-85.8" font-family="Times,serif" font-size="14.00">DTEL&#45;FPBOOLEAN</text>
</a>
</g>
</g>
<!-- TABL&#45;FPRTS_PDFOPTIONS&#45;&gt;DTEL&#45;FPBOOLEAN -->
<g id="edge1" class="edge">
<title>TABL&#45;FPRTS_PDFOPTIONS&#45;&gt;DTEL&#45;FPBOOLEAN</title>
<path fill="none" stroke="black" d="M532,-215.84C548.31,-207.67 564.55,-196.07 573.88,-180 581.92,-166.17 580.85,-158.4 573.88,-144 568.12,-132.1 558.25,-122.06 547.82,-114.02"/>
<polygon fill="black" stroke="black" points="549.58,-110.98 539.41,-108.02 545.51,-116.68 549.58,-110.98"/>
</g>
<!-- TTYP&#45;TFPURIGHT -->
<g id="node9" class="node">
<title>TTYP&#45;TFPURIGHT</title>
<g id="a_node9"><a xlink:href="./TTYP_TFPURIGHT.html" xlink:title="TTYP&#45;TFPURIGHT">
<polygon fill="none" stroke="yellow" points="753.03,-180 620.74,-180 620.74,-144 753.03,-144 753.03,-180"/>
<text text-anchor="middle" x="686.88" y="-157.8" font-family="Times,serif" font-size="14.00">TTYP&#45;TFPURIGHT</text>
</a>
</g>
</g>
<!-- TABL&#45;FPRTS_PDFOPTIONS&#45;&gt;TTYP&#45;TFPURIGHT -->
<g id="edge2" class="edge">
<title>TABL&#45;FPRTS_PDFOPTIONS&#45;&gt;TTYP&#45;TFPURIGHT</title>
<path fill="none" stroke="black" d="M531.01,-215.97C559.92,-206.14 596.45,-193.73 626.88,-183.39"/>
<polygon fill="black" stroke="black" points="628.19,-186.64 636.53,-180.11 625.93,-180.01 628.19,-186.64"/>
</g>
<!-- DOMA&#45;FPFNTEMB -->
<g id="node3" class="node">
<title>DOMA&#45;FPFNTEMB</title>
<g id="a_node3"><a xlink:href="./DOMA_FPFNTEMB.html" xlink:title="DOMA&#45;FPFNTEMB">
<polygon fill="none" stroke="yellow" points="135.65,-108 0.12,-108 0.12,-72 135.65,-72 135.65,-108"/>
<text text-anchor="middle" x="67.88" y="-85.8" font-family="Times,serif" font-size="14.00">DOMA&#45;FPFNTEMB</text>
</a>
</g>
</g>
<!-- DTEL&#45;FPFNTEMB&#45;&gt;DOMA&#45;FPFNTEMB -->
<g id="edge6" class="edge">
<title>DTEL&#45;FPFNTEMB&#45;&gt;DOMA&#45;FPFNTEMB</title>
<path fill="none" stroke="black" d="M70.14,-143.7C69.81,-135.98 69.41,-126.71 69.04,-118.11"/>
<polygon fill="black" stroke="black" points="72.54,-117.95 68.62,-108.1 65.55,-118.25 72.54,-117.95"/>
</g>
<!-- DOMA&#45;FPCHANGESRESTRICTED -->
<g id="node5" class="node">
<title>DOMA&#45;FPCHANGESRESTRICTED</title>
<g id="a_node5"><a xlink:href="./DOMA_FPCHANGESRESTRICTED.html" xlink:title="DOMA&#45;FPCHANGESRESTRICTED">
<polygon fill="none" stroke="yellow" points="383.74,-108 154.02,-108 154.02,-72 383.74,-72 383.74,-108"/>
<text text-anchor="middle" x="268.88" y="-85.8" font-family="Times,serif" font-size="14.00">DOMA&#45;FPCHANGESRESTRICTED</text>
</a>
</g>
</g>
<!-- DTEL&#45;FPCHANGESRESTRICTED&#45;&gt;DOMA&#45;FPCHANGESRESTRICTED -->
<g id="edge7" class="edge">
<title>DTEL&#45;FPCHANGESRESTRICTED&#45;&gt;DOMA&#45;FPCHANGESRESTRICTED</title>
<path fill="none" stroke="black" d="M267.38,-143.7C267.6,-135.98 267.86,-126.71 268.11,-118.11"/>
<polygon fill="black" stroke="black" points="271.61,-118.2 268.39,-108.1 264.61,-118 271.61,-118.2"/>
</g>
<!-- TABL&#45;SFPINITIALVIEW&#45;&gt;DTEL&#45;FPBOOLEAN -->
<g id="edge8" class="edge">
<title>TABL&#45;SFPINITIALVIEW&#45;&gt;DTEL&#45;FPBOOLEAN</title>
<path fill="none" stroke="black" d="M487.31,-143.7C490.24,-135.81 493.77,-126.3 497.02,-117.55"/>
<polygon fill="black" stroke="black" points="500.33,-118.7 500.53,-108.1 493.77,-116.26 500.33,-118.7"/>
</g>
<!-- DOMA&#45;FPBOOLEAN -->
<g id="node8" class="node">
<title>DOMA&#45;FPBOOLEAN</title>
<g id="a_node8"><a xlink:href="./DOMA_FPBOOLEAN.html" xlink:title="DOMA&#45;FPBOOLEAN">
<polygon fill="none" stroke="yellow" points="579.74,-36 434.02,-36 434.02,0 579.74,0 579.74,-36"/>
<text text-anchor="middle" x="506.88" y="-13.8" font-family="Times,serif" font-size="14.00">DOMA&#45;FPBOOLEAN</text>
</a>
</g>
</g>
<!-- DTEL&#45;FPBOOLEAN&#45;&gt;DOMA&#45;FPBOOLEAN -->
<g id="edge9" class="edge">
<title>DTEL&#45;FPBOOLEAN&#45;&gt;DOMA&#45;FPBOOLEAN</title>
<path fill="none" stroke="black" d="M506.88,-71.7C506.88,-63.98 506.88,-54.71 506.88,-46.11"/>
<polygon fill="black" stroke="black" points="510.38,-46.1 506.88,-36.1 503.38,-46.1 510.38,-46.1"/>
</g>
<!-- TABL&#45;SFPURIGHT -->
<g id="node10" class="node">
<title>TABL&#45;SFPURIGHT</title>
<g id="a_node10"><a xlink:href="./TABL_SFPURIGHT.html" xlink:title="TABL&#45;SFPURIGHT">
<polygon fill="none" stroke="yellow" points="753.81,-108 619.96,-108 619.96,-72 753.81,-72 753.81,-108"/>
<text text-anchor="middle" x="686.88" y="-85.8" font-family="Times,serif" font-size="14.00">TABL&#45;SFPURIGHT</text>
</a>
</g>
</g>
<!-- TTYP&#45;TFPURIGHT&#45;&gt;TABL&#45;SFPURIGHT -->
<g id="edge10" class="edge">
<title>TTYP&#45;TFPURIGHT&#45;&gt;TABL&#45;SFPURIGHT</title>
<path fill="none" stroke="black" d="M686.88,-143.7C686.88,-135.98 686.88,-126.71 686.88,-118.11"/>
<polygon fill="black" stroke="black" points="690.38,-118.1 686.88,-108.1 683.38,-118.1 690.38,-118.1"/>
</g>
</g>
</svg>
