<?xml version="1.0" encoding="UTF-8" standalone="no"?>
<!DOCTYPE svg PUBLIC "-//W3C//DTD SVG 1.1//EN"
 "http://www.w3.org/Graphics/SVG/1.1/DTD/svg11.dtd">
<!-- Generated by graphviz version 2.47.3 (20210619.1520)
 -->
<!-- Title: G Pages: 1 -->
<svg width="1332pt" height="260pt"
 viewBox="0.00 0.00 1332.19 260.00" xmlns="http://www.w3.org/2000/svg" xmlns:xlink="http://www.w3.org/1999/xlink">
<g id="graph0" class="graph" transform="scale(1 1) rotate(0) translate(4 256)">
<title>G</title>
<polygon fill="white" stroke="transparent" points="-4,4 -4,-256 1328.19,-256 1328.19,4 -4,4"/>
<!-- TABL&#45;PT1250 -->
<g id="node1" class="node">
<title>TABL&#45;PT1250</title>
<polygon fill="none" stroke="yellow" points="1016.25,-252 915.16,-252 915.16,-216 1016.25,-216 1016.25,-252"/>
<text text-anchor="middle" x="965.7" y="-229.8" font-family="Times,serif" font-size="14.00">TABL&#45;PT1250</text>
</g>
<!-- DTEL&#45;XUTEXT -->
<g id="node2" class="node">
<title>DTEL&#45;XUTEXT</title>
<g id="a_node2"><a xlink:href="./DTEL_XUTEXT.html" xlink:title="DTEL&#45;XUTEXT">
<polygon fill="none" stroke="yellow" points="340.1,-180 227.3,-180 227.3,-144 340.1,-144 340.1,-180"/>
<text text-anchor="middle" x="283.7" y="-157.8" font-family="Times,serif" font-size="14.00">DTEL&#45;XUTEXT</text>
</a>
</g>
</g>
<!-- TABL&#45;PT1250&#45;&gt;DTEL&#45;XUTEXT -->
<g id="edge5" class="edge">
<title>TABL&#45;PT1250&#45;&gt;DTEL&#45;XUTEXT</title>
<path fill="none" stroke="black" d="M915,-227.8C793.6,-215.34 486.26,-183.79 350.23,-169.83"/>
<polygon fill="black" stroke="black" points="350.26,-166.31 339.95,-168.77 349.54,-173.28 350.26,-166.31"/>
</g>
<!-- TABL&#45;TPR_STA_IN -->
<g id="node4" class="node">
<title>TABL&#45;TPR_STA_IN</title>
<g id="a_node4"><a xlink:href="./TABL_TPR_STA_IN.html" xlink:title="TABL&#45;TPR_STA_IN">
<polygon fill="none" stroke="yellow" points="639.79,-180 501.61,-180 501.61,-144 639.79,-144 639.79,-180"/>
<text text-anchor="middle" x="570.7" y="-157.8" font-family="Times,serif" font-size="14.00">TABL&#45;TPR_STA_IN</text>
</a>
</g>
</g>
<!-- TABL&#45;PT1250&#45;&gt;TABL&#45;TPR_STA_IN -->
<g id="edge4" class="edge">
<title>TABL&#45;PT1250&#45;&gt;TABL&#45;TPR_STA_IN</title>
<path fill="none" stroke="black" d="M914.87,-223.99C847.73,-212.09 728.79,-191.02 649.83,-177.02"/>
<polygon fill="black" stroke="black" points="650.39,-173.57 639.93,-175.27 649.16,-180.46 650.39,-173.57"/>
</g>
<!-- DTEL&#45;TPR_VARI -->
<g id="node14" class="node">
<title>DTEL&#45;TPR_VARI</title>
<g id="a_node14"><a xlink:href="./DTEL_TPR_VARI.html" xlink:title="DTEL&#45;TPR_VARI">
<polygon fill="none" stroke="yellow" points="1027.51,-180 903.89,-180 903.89,-144 1027.51,-144 1027.51,-180"/>
<text text-anchor="middle" x="965.7" y="-157.8" font-family="Times,serif" font-size="14.00">DTEL&#45;TPR_VARI</text>
</a>
</g>
</g>
<!-- TABL&#45;PT1250&#45;&gt;DTEL&#45;TPR_VARI -->
<g id="edge3" class="edge">
<title>TABL&#45;PT1250&#45;&gt;DTEL&#45;TPR_VARI</title>
<path fill="none" stroke="black" d="M965.7,-215.7C965.7,-207.98 965.7,-198.71 965.7,-190.11"/>
<polygon fill="black" stroke="black" points="969.2,-190.1 965.7,-180.1 962.2,-190.1 969.2,-190.1"/>
</g>
<!-- DTEL&#45;XUAUTH -->
<g id="node16" class="node">
<title>DTEL&#45;XUAUTH</title>
<g id="a_node16"><a xlink:href="./DTEL_XUAUTH.html" xlink:title="DTEL&#45;XUAUTH">
<polygon fill="none" stroke="yellow" points="1163.21,-180 1048.19,-180 1048.19,-144 1163.21,-144 1163.21,-180"/>
<text text-anchor="middle" x="1105.7" y="-157.8" font-family="Times,serif" font-size="14.00">DTEL&#45;XUAUTH</text>
</a>
</g>
</g>
<!-- TABL&#45;PT1250&#45;&gt;DTEL&#45;XUAUTH -->
<g id="edge2" class="edge">
<title>TABL&#45;PT1250&#45;&gt;DTEL&#45;XUAUTH</title>
<path fill="none" stroke="black" d="M999.95,-215.88C1018.76,-206.47 1042.29,-194.71 1062.37,-184.67"/>
<polygon fill="black" stroke="black" points="1063.94,-187.79 1071.32,-180.19 1060.81,-181.53 1063.94,-187.79"/>
</g>
<!-- DTEL&#45;XUOBJECT -->
<g id="node18" class="node">
<title>DTEL&#45;XUOBJECT</title>
<g id="a_node18"><a xlink:href="./DTEL_XUOBJECT.html" xlink:title="DTEL&#45;XUOBJECT">
<polygon fill="none" stroke="yellow" points="1314.67,-180 1186.73,-180 1186.73,-144 1314.67,-144 1314.67,-180"/>
<text text-anchor="middle" x="1250.7" y="-157.8" font-family="Times,serif" font-size="14.00">DTEL&#45;XUOBJECT</text>
</a>
</g>
</g>
<!-- TABL&#45;PT1250&#45;&gt;DTEL&#45;XUOBJECT -->
<g id="edge1" class="edge">
<title>TABL&#45;PT1250&#45;&gt;DTEL&#45;XUOBJECT</title>
<path fill="none" stroke="black" d="M1016.33,-220.57C1060.86,-209.63 1126.27,-193.56 1176.69,-181.18"/>
<polygon fill="black" stroke="black" points="1177.68,-184.54 1186.56,-178.75 1176.01,-177.74 1177.68,-184.54"/>
</g>
<!-- DOMA&#45;XUTEXT -->
<g id="node3" class="node">
<title>DOMA&#45;XUTEXT</title>
<g id="a_node3"><a xlink:href="./DOMA_XUTEXT.html" xlink:title="DOMA&#45;XUTEXT">
<polygon fill="none" stroke="yellow" points="119.6,-108 -0.2,-108 -0.2,-72 119.6,-72 119.6,-108"/>
<text text-anchor="middle" x="59.7" y="-85.8" font-family="Times,serif" font-size="14.00">DOMA&#45;XUTEXT</text>
</a>
</g>
</g>
<!-- DTEL&#45;XUTEXT&#45;&gt;DOMA&#45;XUTEXT -->
<g id="edge6" class="edge">
<title>DTEL&#45;XUTEXT&#45;&gt;DOMA&#45;XUTEXT</title>
<path fill="none" stroke="black" d="M229.19,-143.97C197.49,-134.06 157.35,-121.51 124.09,-111.12"/>
<polygon fill="black" stroke="black" points="125.04,-107.75 114.46,-108.11 122.96,-114.43 125.04,-107.75"/>
</g>
<!-- DTEL&#45;SEU_ID -->
<g id="node5" class="node">
<title>DTEL&#45;SEU_ID</title>
<g id="a_node5"><a xlink:href="./DTEL_SEU_ID.html" xlink:title="DTEL&#45;SEU_ID">
<polygon fill="none" stroke="yellow" points="241.84,-108 137.57,-108 137.57,-72 241.84,-72 241.84,-108"/>
<text text-anchor="middle" x="189.7" y="-85.8" font-family="Times,serif" font-size="14.00">DTEL&#45;SEU_ID</text>
</a>
</g>
</g>
<!-- TABL&#45;TPR_STA_IN&#45;&gt;DTEL&#45;SEU_ID -->
<g id="edge11" class="edge">
<title>TABL&#45;TPR_STA_IN&#45;&gt;DTEL&#45;SEU_ID</title>
<path fill="none" stroke="black" d="M501.63,-151.75C438.82,-142.85 343.46,-128.08 251.85,-108.13"/>
<polygon fill="black" stroke="black" points="252.37,-104.66 241.85,-105.93 250.87,-111.5 252.37,-104.66"/>
</g>
<!-- DTEL&#45;TPR_ST_NEW -->
<g id="node7" class="node">
<title>DTEL&#45;TPR_ST_NEW</title>
<g id="a_node7"><a xlink:href="./DTEL_TPR_ST_NEW.html" xlink:title="DTEL&#45;TPR_ST_NEW">
<polygon fill="none" stroke="yellow" points="404.01,-108 259.4,-108 259.4,-72 404.01,-72 404.01,-108"/>
<text text-anchor="middle" x="331.7" y="-85.8" font-family="Times,serif" font-size="14.00">DTEL&#45;TPR_ST_NEW</text>
</a>
</g>
</g>
<!-- TABL&#45;TPR_STA_IN&#45;&gt;DTEL&#45;TPR_ST_NEW -->
<g id="edge10" class="edge">
<title>TABL&#45;TPR_STA_IN&#45;&gt;DTEL&#45;TPR_ST_NEW</title>
<path fill="none" stroke="black" d="M512.54,-143.97C478.57,-134.01 435.52,-121.41 399.94,-110.99"/>
<polygon fill="black" stroke="black" points="400.7,-107.56 390.12,-108.11 398.74,-114.28 400.7,-107.56"/>
</g>
<!-- DTEL&#45;TPR_ST_COP -->
<g id="node9" class="node">
<title>DTEL&#45;TPR_ST_COP</title>
<g id="a_node9"><a xlink:href="./DTEL_TPR_ST_COP.html" xlink:title="DTEL&#45;TPR_ST_COP">
<polygon fill="none" stroke="yellow" points="561.36,-108 422.04,-108 422.04,-72 561.36,-72 561.36,-108"/>
<text text-anchor="middle" x="491.7" y="-85.8" font-family="Times,serif" font-size="14.00">DTEL&#45;TPR_ST_COP</text>
</a>
</g>
</g>
<!-- TABL&#45;TPR_STA_IN&#45;&gt;DTEL&#45;TPR_ST_COP -->
<g id="edge9" class="edge">
<title>TABL&#45;TPR_STA_IN&#45;&gt;DTEL&#45;TPR_ST_COP</title>
<path fill="none" stroke="black" d="M551.17,-143.7C541.32,-134.97 529.22,-124.24 518.51,-114.75"/>
<polygon fill="black" stroke="black" points="520.81,-112.12 511,-108.1 516.17,-117.36 520.81,-112.12"/>
</g>
<!-- DTEL&#45;TPR_ST_DEL -->
<g id="node11" class="node">
<title>DTEL&#45;TPR_ST_DEL</title>
<g id="a_node11"><a xlink:href="./DTEL_TPR_ST_DEL.html" xlink:title="DTEL&#45;TPR_ST_DEL">
<polygon fill="none" stroke="yellow" points="719.35,-108 580.06,-108 580.06,-72 719.35,-72 719.35,-108"/>
<text text-anchor="middle" x="649.7" y="-85.8" font-family="Times,serif" font-size="14.00">DTEL&#45;TPR_ST_DEL</text>
</a>
</g>
</g>
<!-- TABL&#45;TPR_STA_IN&#45;&gt;DTEL&#45;TPR_ST_DEL -->
<g id="edge8" class="edge">
<title>TABL&#45;TPR_STA_IN&#45;&gt;DTEL&#45;TPR_ST_DEL</title>
<path fill="none" stroke="black" d="M590.23,-143.7C600.08,-134.97 612.19,-124.24 622.9,-114.75"/>
<polygon fill="black" stroke="black" points="625.23,-117.36 630.4,-108.1 620.59,-112.12 625.23,-117.36"/>
</g>
<!-- DTEL&#45;TPR_ST_MOD -->
<g id="node12" class="node">
<title>DTEL&#45;TPR_ST_MOD</title>
<g id="a_node12"><a xlink:href="./DTEL_TPR_ST_MOD.html" xlink:title="DTEL&#45;TPR_ST_MOD">
<polygon fill="none" stroke="yellow" points="882.29,-108 737.11,-108 737.11,-72 882.29,-72 882.29,-108"/>
<text text-anchor="middle" x="809.7" y="-85.8" font-family="Times,serif" font-size="14.00">DTEL&#45;TPR_ST_MOD</text>
</a>
</g>
</g>
<!-- TABL&#45;TPR_STA_IN&#45;&gt;DTEL&#45;TPR_ST_MOD -->
<g id="edge7" class="edge">
<title>TABL&#45;TPR_STA_IN&#45;&gt;DTEL&#45;TPR_ST_MOD</title>
<path fill="none" stroke="black" d="M628.86,-143.97C662.84,-134.01 705.89,-121.41 741.46,-110.99"/>
<polygon fill="black" stroke="black" points="742.67,-114.28 751.28,-108.11 740.7,-107.56 742.67,-114.28"/>
</g>
<!-- DOMA&#45;SEU_ID -->
<g id="node6" class="node">
<title>DOMA&#45;SEU_ID</title>
<g id="a_node6"><a xlink:href="./DOMA_SEU_ID.html" xlink:title="DOMA&#45;SEU_ID">
<polygon fill="none" stroke="yellow" points="242.34,-36 131.07,-36 131.07,0 242.34,0 242.34,-36"/>
<text text-anchor="middle" x="186.7" y="-13.8" font-family="Times,serif" font-size="14.00">DOMA&#45;SEU_ID</text>
</a>
</g>
</g>
<!-- DTEL&#45;SEU_ID&#45;&gt;DOMA&#45;SEU_ID -->
<g id="edge12" class="edge">
<title>DTEL&#45;SEU_ID&#45;&gt;DOMA&#45;SEU_ID</title>
<path fill="none" stroke="black" d="M188.96,-71.7C188.63,-63.98 188.23,-54.71 187.86,-46.11"/>
<polygon fill="black" stroke="black" points="191.36,-45.95 187.43,-36.1 184.37,-46.25 191.36,-45.95"/>
</g>
<!-- DOMA&#45;TPR_ST_NEW -->
<g id="node8" class="node">
<title>DOMA&#45;TPR_ST_NEW</title>
<g id="a_node8"><a xlink:href="./DOMA_TPR_ST_NEW.html" xlink:title="DOMA&#45;TPR_ST_NEW">
<polygon fill="none" stroke="yellow" points="411.51,-36 259.9,-36 259.9,0 411.51,0 411.51,-36"/>
<text text-anchor="middle" x="335.7" y="-13.8" font-family="Times,serif" font-size="14.00">DOMA&#45;TPR_ST_NEW</text>
</a>
</g>
</g>
<!-- DTEL&#45;TPR_ST_NEW&#45;&gt;DOMA&#45;TPR_ST_NEW -->
<g id="edge13" class="edge">
<title>DTEL&#45;TPR_ST_NEW&#45;&gt;DOMA&#45;TPR_ST_NEW</title>
<path fill="none" stroke="black" d="M332.69,-71.7C333.13,-63.98 333.66,-54.71 334.15,-46.11"/>
<polygon fill="black" stroke="black" points="337.65,-46.29 334.72,-36.1 330.66,-45.89 337.65,-46.29"/>
</g>
<!-- DOMA&#45;XFELD -->
<g id="node10" class="node">
<title>DOMA&#45;XFELD</title>
<g id="a_node10"><a xlink:href="./DOMA_XFELD.html" xlink:title="DOMA&#45;XFELD">
<polygon fill="none" stroke="yellow" points="624.73,-36 516.67,-36 516.67,0 624.73,0 624.73,-36"/>
<text text-anchor="middle" x="570.7" y="-13.8" font-family="Times,serif" font-size="14.00">DOMA&#45;XFELD</text>
</a>
</g>
</g>
<!-- DTEL&#45;TPR_ST_COP&#45;&gt;DOMA&#45;XFELD -->
<g id="edge14" class="edge">
<title>DTEL&#45;TPR_ST_COP&#45;&gt;DOMA&#45;XFELD</title>
<path fill="none" stroke="black" d="M511.23,-71.7C521.08,-62.97 533.19,-52.24 543.9,-42.75"/>
<polygon fill="black" stroke="black" points="546.23,-45.36 551.4,-36.1 541.59,-40.12 546.23,-45.36"/>
</g>
<!-- DTEL&#45;TPR_ST_DEL&#45;&gt;DOMA&#45;XFELD -->
<g id="edge15" class="edge">
<title>DTEL&#45;TPR_ST_DEL&#45;&gt;DOMA&#45;XFELD</title>
<path fill="none" stroke="black" d="M630.17,-71.7C620.32,-62.97 608.22,-52.24 597.51,-42.75"/>
<polygon fill="black" stroke="black" points="599.81,-40.12 590,-36.1 595.17,-45.36 599.81,-40.12"/>
</g>
<!-- DOMA&#45;TPR_ST_MOD -->
<g id="node13" class="node">
<title>DOMA&#45;TPR_ST_MOD</title>
<g id="a_node13"><a xlink:href="./DOMA_TPR_ST_MOD.html" xlink:title="DOMA&#45;TPR_ST_MOD">
<polygon fill="none" stroke="yellow" points="885.79,-36 733.61,-36 733.61,0 885.79,0 885.79,-36"/>
<text text-anchor="middle" x="809.7" y="-13.8" font-family="Times,serif" font-size="14.00">DOMA&#45;TPR_ST_MOD</text>
</a>
</g>
</g>
<!-- DTEL&#45;TPR_ST_MOD&#45;&gt;DOMA&#45;TPR_ST_MOD -->
<g id="edge16" class="edge">
<title>DTEL&#45;TPR_ST_MOD&#45;&gt;DOMA&#45;TPR_ST_MOD</title>
<path fill="none" stroke="black" d="M809.7,-71.7C809.7,-63.98 809.7,-54.71 809.7,-46.11"/>
<polygon fill="black" stroke="black" points="813.2,-46.1 809.7,-36.1 806.2,-46.1 813.2,-46.1"/>
</g>
<!-- DOMA&#45;TPR_VARI -->
<g id="node15" class="node">
<title>DOMA&#45;TPR_VARI</title>
<g id="a_node15"><a xlink:href="./DOMA_TPR_VARI.html" xlink:title="DOMA&#45;TPR_VARI">
<polygon fill="none" stroke="yellow" points="1031.01,-108 900.39,-108 900.39,-72 1031.01,-72 1031.01,-108"/>
<text text-anchor="middle" x="965.7" y="-85.8" font-family="Times,serif" font-size="14.00">DOMA&#45;TPR_VARI</text>
</a>
</g>
</g>
<!-- DTEL&#45;TPR_VARI&#45;&gt;DOMA&#45;TPR_VARI -->
<g id="edge17" class="edge">
<title>DTEL&#45;TPR_VARI&#45;&gt;DOMA&#45;TPR_VARI</title>
<path fill="none" stroke="black" d="M965.7,-143.7C965.7,-135.98 965.7,-126.71 965.7,-118.11"/>
<polygon fill="black" stroke="black" points="969.2,-118.1 965.7,-108.1 962.2,-118.1 969.2,-118.1"/>
</g>
<!-- DOMA&#45;XUAUTH -->
<g id="node17" class="node">
<title>DOMA&#45;XUAUTH</title>
<g id="a_node17"><a xlink:href="./DOMA_XUAUTH.html" xlink:title="DOMA&#45;XUAUTH">
<polygon fill="none" stroke="yellow" points="1170.71,-108 1048.69,-108 1048.69,-72 1170.71,-72 1170.71,-108"/>
<text text-anchor="middle" x="1109.7" y="-85.8" font-family="Times,serif" font-size="14.00">DOMA&#45;XUAUTH</text>
</a>
</g>
</g>
<!-- DTEL&#45;XUAUTH&#45;&gt;DOMA&#45;XUAUTH -->
<g id="edge18" class="edge">
<title>DTEL&#45;XUAUTH&#45;&gt;DOMA&#45;XUAUTH</title>
<path fill="none" stroke="black" d="M1106.69,-143.7C1107.13,-135.98 1107.66,-126.71 1108.15,-118.11"/>
<polygon fill="black" stroke="black" points="1111.65,-118.29 1108.72,-108.1 1104.66,-117.89 1111.65,-118.29"/>
</g>
<!-- DOMA&#45;XUOBJECT -->
<g id="node19" class="node">
<title>DOMA&#45;XUOBJECT</title>
<g id="a_node19"><a xlink:href="./DOMA_XUOBJECT.html" xlink:title="DOMA&#45;XUOBJECT">
<polygon fill="none" stroke="yellow" points="1324.17,-108 1189.23,-108 1189.23,-72 1324.17,-72 1324.17,-108"/>
<text text-anchor="middle" x="1256.7" y="-85.8" font-family="Times,serif" font-size="14.00">DOMA&#45;XUOBJECT</text>
</a>
</g>
</g>
<!-- DTEL&#45;XUOBJECT&#45;&gt;DOMA&#45;XUOBJECT -->
<g id="edge19" class="edge">
<title>DTEL&#45;XUOBJECT&#45;&gt;DOMA&#45;XUOBJECT</title>
<path fill="none" stroke="black" d="M1252.18,-143.7C1252.85,-135.98 1253.64,-126.71 1254.38,-118.11"/>
<polygon fill="black" stroke="black" points="1257.87,-118.37 1255.24,-108.1 1250.89,-117.77 1257.87,-118.37"/>
</g>
</g>
</svg>
