<?xml version="1.0" encoding="UTF-8" standalone="no"?>
<!DOCTYPE svg PUBLIC "-//W3C//DTD SVG 1.1//EN"
 "http://www.w3.org/Graphics/SVG/1.1/DTD/svg11.dtd">
<!-- Generated by graphviz version 2.47.3 (20210619.1520)
 -->
<!-- Title: G Pages: 1 -->
<svg width="498pt" height="188pt"
 viewBox="0.00 0.00 497.86 188.00" xmlns="http://www.w3.org/2000/svg" xmlns:xlink="http://www.w3.org/1999/xlink">
<g id="graph0" class="graph" transform="scale(1 1) rotate(0) translate(4 184)">
<title>G</title>
<polygon fill="white" stroke="transparent" points="-4,4 -4,-184 493.86,-184 493.86,4 -4,4"/>
<!-- TABL&#45;T006C -->
<g id="node1" class="node">
<title>TABL&#45;T006C</title>
<polygon fill="none" stroke="yellow" points="288.58,-180 192.39,-180 192.39,-144 288.58,-144 288.58,-180"/>
<text text-anchor="middle" x="240.49" y="-157.8" font-family="Times,serif" font-size="14.00">TABL&#45;T006C</text>
</g>
<!-- DTEL&#45;MSEHI -->
<g id="node2" class="node">
<title>DTEL&#45;MSEHI</title>
<g id="a_node2"><a xlink:href="./DTEL_MSEHI.html" xlink:title="DTEL&#45;MSEHI">
<polygon fill="none" stroke="green" points="109.46,-108 9.51,-108 9.51,-72 109.46,-72 109.46,-108"/>
<text text-anchor="middle" x="59.49" y="-85.8" font-family="Times,serif" font-size="14.00">DTEL&#45;MSEHI</text>
</a>
</g>
</g>
<!-- TABL&#45;T006C&#45;&gt;DTEL&#45;MSEHI -->
<g id="edge4" class="edge">
<title>TABL&#45;T006C&#45;&gt;DTEL&#45;MSEHI</title>
<path fill="none" stroke="black" d="M196.21,-143.88C171.13,-134.18 139.59,-121.98 113.12,-111.74"/>
<polygon fill="black" stroke="black" points="114.21,-108.41 103.62,-108.07 111.68,-114.94 114.21,-108.41"/>
</g>
<!-- DTEL&#45;MSEC6 -->
<g id="node4" class="node">
<title>DTEL&#45;MSEC6</title>
<g id="a_node4"><a xlink:href="./DTEL_MSEC6.html" xlink:title="DTEL&#45;MSEC6">
<polygon fill="none" stroke="yellow" points="232.03,-108 130.94,-108 130.94,-72 232.03,-72 232.03,-108"/>
<text text-anchor="middle" x="181.49" y="-85.8" font-family="Times,serif" font-size="14.00">DTEL&#45;MSEC6</text>
</a>
</g>
</g>
<!-- TABL&#45;T006C&#45;&gt;DTEL&#45;MSEC6 -->
<g id="edge3" class="edge">
<title>TABL&#45;T006C&#45;&gt;DTEL&#45;MSEC6</title>
<path fill="none" stroke="black" d="M225.9,-143.7C218.83,-135.3 210.2,-125.07 202.44,-115.86"/>
<polygon fill="black" stroke="black" points="205.02,-113.49 195.9,-108.1 199.67,-118.01 205.02,-113.49"/>
</g>
<!-- DTEL&#45;SPRAS -->
<g id="node6" class="node">
<title>DTEL&#45;SPRAS</title>
<g id="a_node6"><a xlink:href="./DTEL_SPRAS.html" xlink:title="DTEL&#45;SPRAS">
<polygon fill="none" stroke="green" points="352.2,-108 252.77,-108 252.77,-72 352.2,-72 352.2,-108"/>
<text text-anchor="middle" x="302.49" y="-85.8" font-family="Times,serif" font-size="14.00">DTEL&#45;SPRAS</text>
</a>
</g>
</g>
<!-- TABL&#45;T006C&#45;&gt;DTEL&#45;SPRAS -->
<g id="edge2" class="edge">
<title>TABL&#45;T006C&#45;&gt;DTEL&#45;SPRAS</title>
<path fill="none" stroke="black" d="M255.81,-143.7C263.24,-135.3 272.31,-125.07 280.47,-115.86"/>
<polygon fill="black" stroke="black" points="283.33,-117.91 287.34,-108.1 278.09,-113.27 283.33,-117.91"/>
</g>
<!-- DTEL&#45;MANDT -->
<g id="node8" class="node">
<title>DTEL&#45;MANDT</title>
<g id="a_node8"><a xlink:href="./DTEL_MANDT.html" xlink:title="DTEL&#45;MANDT">
<polygon fill="none" stroke="green" points="482.23,-108 374.74,-108 374.74,-72 482.23,-72 482.23,-108"/>
<text text-anchor="middle" x="428.49" y="-85.8" font-family="Times,serif" font-size="14.00">DTEL&#45;MANDT</text>
</a>
</g>
</g>
<!-- TABL&#45;T006C&#45;&gt;DTEL&#45;MANDT -->
<g id="edge1" class="edge">
<title>TABL&#45;T006C&#45;&gt;DTEL&#45;MANDT</title>
<path fill="none" stroke="black" d="M286.48,-143.88C312.63,-134.14 345.57,-121.87 373.14,-111.61"/>
<polygon fill="black" stroke="black" points="374.5,-114.84 382.65,-108.07 372.05,-108.28 374.5,-114.84"/>
</g>
<!-- DOMA&#45;MEINS -->
<g id="node3" class="node">
<title>DOMA&#45;MEINS</title>
<g id="a_node3"><a xlink:href="./DOMA_MEINS.html" xlink:title="DOMA&#45;MEINS">
<polygon fill="none" stroke="green" points="106.96,-36 0.01,-36 0.01,0 106.96,0 106.96,-36"/>
<text text-anchor="middle" x="53.49" y="-13.8" font-family="Times,serif" font-size="14.00">DOMA&#45;MEINS</text>
</a>
</g>
</g>
<!-- DTEL&#45;MSEHI&#45;&gt;DOMA&#45;MEINS -->
<g id="edge5" class="edge">
<title>DTEL&#45;MSEHI&#45;&gt;DOMA&#45;MEINS</title>
<path fill="none" stroke="black" d="M58,-71.7C57.34,-63.98 56.55,-54.71 55.81,-46.11"/>
<polygon fill="black" stroke="black" points="59.29,-45.77 54.95,-36.1 52.32,-46.37 59.29,-45.77"/>
</g>
<!-- DOMA&#45;MSEC6 -->
<g id="node5" class="node">
<title>DOMA&#45;MSEC6</title>
<g id="a_node5"><a xlink:href="./DOMA_MSEC6.html" xlink:title="DOMA&#45;MSEC6">
<polygon fill="none" stroke="yellow" points="233.53,-36 125.44,-36 125.44,0 233.53,0 233.53,-36"/>
<text text-anchor="middle" x="179.49" y="-13.8" font-family="Times,serif" font-size="14.00">DOMA&#45;MSEC6</text>
</a>
</g>
</g>
<!-- DTEL&#45;MSEC6&#45;&gt;DOMA&#45;MSEC6 -->
<g id="edge6" class="edge">
<title>DTEL&#45;MSEC6&#45;&gt;DOMA&#45;MSEC6</title>
<path fill="none" stroke="black" d="M180.99,-71.7C180.77,-63.98 180.51,-54.71 180.26,-46.11"/>
<polygon fill="black" stroke="black" points="183.76,-46 179.97,-36.1 176.76,-46.2 183.76,-46"/>
</g>
<!-- DOMA&#45;SPRAS -->
<g id="node7" class="node">
<title>DOMA&#45;SPRAS</title>
<g id="a_node7"><a xlink:href="./DOMA_SPRAS.html" xlink:title="DOMA&#45;SPRAS">
<polygon fill="none" stroke="green" points="357.7,-36 251.27,-36 251.27,0 357.7,0 357.7,-36"/>
<text text-anchor="middle" x="304.49" y="-13.8" font-family="Times,serif" font-size="14.00">DOMA&#45;SPRAS</text>
</a>
</g>
</g>
<!-- DTEL&#45;SPRAS&#45;&gt;DOMA&#45;SPRAS -->
<g id="edge7" class="edge">
<title>DTEL&#45;SPRAS&#45;&gt;DOMA&#45;SPRAS</title>
<path fill="none" stroke="black" d="M302.98,-71.7C303.2,-63.98 303.47,-54.71 303.71,-46.11"/>
<polygon fill="black" stroke="black" points="307.21,-46.2 304,-36.1 300.21,-46 307.21,-46.2"/>
</g>
<!-- DOMA&#45;MANDT -->
<g id="node9" class="node">
<title>DOMA&#45;MANDT</title>
<g id="a_node9"><a xlink:href="./DOMA_MANDT.html" xlink:title="DOMA&#45;MANDT">
<polygon fill="none" stroke="yellow" points="489.73,-36 375.24,-36 375.24,0 489.73,0 489.73,-36"/>
<text text-anchor="middle" x="432.49" y="-13.8" font-family="Times,serif" font-size="14.00">DOMA&#45;MANDT</text>
</a>
</g>
</g>
<!-- DTEL&#45;MANDT&#45;&gt;DOMA&#45;MANDT -->
<g id="edge8" class="edge">
<title>DTEL&#45;MANDT&#45;&gt;DOMA&#45;MANDT</title>
<path fill="none" stroke="black" d="M429.47,-71.7C429.92,-63.98 430.45,-54.71 430.94,-46.11"/>
<polygon fill="black" stroke="black" points="434.43,-46.29 431.51,-36.1 427.44,-45.89 434.43,-46.29"/>
</g>
</g>
</svg>
