<?xml version="1.0" encoding="UTF-8" standalone="no"?>
<!DOCTYPE svg PUBLIC "-//W3C//DTD SVG 1.1//EN"
 "http://www.w3.org/Graphics/SVG/1.1/DTD/svg11.dtd">
<!-- Generated by graphviz version 2.47.3 (20210619.1520)
 -->
<!-- Title: G Pages: 1 -->
<svg width="2269pt" height="260pt"
 viewBox="0.00 0.00 2268.98 260.00" xmlns="http://www.w3.org/2000/svg" xmlns:xlink="http://www.w3.org/1999/xlink">
<g id="graph0" class="graph" transform="scale(1 1) rotate(0) translate(4 256)">
<title>G</title>
<polygon fill="white" stroke="transparent" points="-4,4 -4,-256 2264.98,-256 2264.98,4 -4,4"/>
<!-- TABL&#45;ISAPS_COM_CA_INB_SRV_TP_D -->
<g id="node1" class="node">
<title>TABL&#45;ISAPS_COM_CA_INB_SRV_TP_D</title>
<polygon fill="none" stroke="yellow" points="1441.47,-252 1174.61,-252 1174.61,-216 1441.47,-216 1441.47,-252"/>
<text text-anchor="middle" x="1308.04" y="-229.8" font-family="Times,serif" font-size="14.00">TABL&#45;ISAPS_COM_CA_INB_SRV_TP_D</text>
</g>
<!-- DTEL&#45;SDRAFT_IS_ACTIVE -->
<g id="node2" class="node">
<title>DTEL&#45;SDRAFT_IS_ACTIVE</title>
<g id="a_node2"><a xlink:href="./DTEL_SDRAFT_IS_ACTIVE.html" xlink:title="DTEL&#45;SDRAFT_IS_ACTIVE">
<polygon fill="none" stroke="yellow" points="323.89,-180 136.19,-180 136.19,-144 323.89,-144 323.89,-180"/>
<text text-anchor="middle" x="230.04" y="-157.8" font-family="Times,serif" font-size="14.00">DTEL&#45;SDRAFT_IS_ACTIVE</text>
</a>
</g>
</g>
<!-- TABL&#45;ISAPS_COM_CA_INB_SRV_TP_D&#45;&gt;DTEL&#45;SDRAFT_IS_ACTIVE -->
<g id="edge8" class="edge">
<title>TABL&#45;ISAPS_COM_CA_INB_SRV_TP_D&#45;&gt;DTEL&#45;SDRAFT_IS_ACTIVE</title>
<path fill="none" stroke="black" d="M1174.61,-225.21C1007.03,-215.31 710.68,-197.4 457.04,-180 416.87,-177.24 372.71,-173.99 334.11,-171.07"/>
<polygon fill="black" stroke="black" points="334.13,-167.56 323.9,-170.29 333.6,-174.54 334.13,-167.56"/>
</g>
<!-- TABL&#45;SDRAFT_WRITE_DRAFT_ADMIN -->
<g id="node4" class="node">
<title>TABL&#45;SDRAFT_WRITE_DRAFT_ADMIN</title>
<g id="a_node4"><a xlink:href="./TABL_SDRAFT_WRITE_DRAFT_ADMIN.html" xlink:title="TABL&#45;SDRAFT_WRITE_DRAFT_ADMIN">
<polygon fill="none" stroke="yellow" points="1018.54,-180 749.54,-180 749.54,-144 1018.54,-144 1018.54,-180"/>
<text text-anchor="middle" x="884.04" y="-157.8" font-family="Times,serif" font-size="14.00">TABL&#45;SDRAFT_WRITE_DRAFT_ADMIN</text>
</a>
</g>
</g>
<!-- TABL&#45;ISAPS_COM_CA_INB_SRV_TP_D&#45;&gt;TABL&#45;SDRAFT_WRITE_DRAFT_ADMIN -->
<g id="edge7" class="edge">
<title>TABL&#45;ISAPS_COM_CA_INB_SRV_TP_D&#45;&gt;TABL&#45;SDRAFT_WRITE_DRAFT_ADMIN</title>
<path fill="none" stroke="black" d="M1204.86,-215.97C1142.15,-205.61 1062.02,-192.38 997.53,-181.74"/>
<polygon fill="black" stroke="black" points="997.75,-178.23 987.31,-180.05 996.61,-185.13 997.75,-178.23"/>
</g>
<!-- DTEL&#45;SDRAFT_HAS_ACTIVE -->
<g id="node14" class="node">
<title>DTEL&#45;SDRAFT_HAS_ACTIVE</title>
<g id="a_node14"><a xlink:href="./DTEL_SDRAFT_HAS_ACTIVE.html" xlink:title="DTEL&#45;SDRAFT_HAS_ACTIVE">
<polygon fill="none" stroke="yellow" points="669.94,-180 466.14,-180 466.14,-144 669.94,-144 669.94,-180"/>
<text text-anchor="middle" x="568.04" y="-157.8" font-family="Times,serif" font-size="14.00">DTEL&#45;SDRAFT_HAS_ACTIVE</text>
</a>
</g>
</g>
<!-- TABL&#45;ISAPS_COM_CA_INB_SRV_TP_D&#45;&gt;DTEL&#45;SDRAFT_HAS_ACTIVE -->
<g id="edge6" class="edge">
<title>TABL&#45;ISAPS_COM_CA_INB_SRV_TP_D&#45;&gt;DTEL&#45;SDRAFT_HAS_ACTIVE</title>
<path fill="none" stroke="black" d="M1174.61,-220.76C1059.49,-210.15 888.78,-194.29 740.04,-180 720.62,-178.13 699.97,-176.12 679.97,-174.15"/>
<polygon fill="black" stroke="black" points="680.19,-170.66 669.89,-173.16 679.5,-177.62 680.19,-170.66"/>
</g>
<!-- DTEL&#45;/BOBF/UUID -->
<g id="node15" class="node">
<title>DTEL&#45;/BOBF/UUID</title>
<g id="a_node15"><a xlink:href="./DTEL_%23BOBF%23UUID.html" xlink:title="DTEL&#45;/BOBF/UUID">
<polygon fill="none" stroke="yellow" points="1286.79,-180 1151.29,-180 1151.29,-144 1286.79,-144 1286.79,-180"/>
<text text-anchor="middle" x="1219.04" y="-157.8" font-family="Times,serif" font-size="14.00">DTEL&#45;/BOBF/UUID</text>
</a>
</g>
</g>
<!-- TABL&#45;ISAPS_COM_CA_INB_SRV_TP_D&#45;&gt;DTEL&#45;/BOBF/UUID -->
<g id="edge5" class="edge">
<title>TABL&#45;ISAPS_COM_CA_INB_SRV_TP_D&#45;&gt;DTEL&#45;/BOBF/UUID</title>
<path fill="none" stroke="black" d="M1286.04,-215.7C1274.83,-206.88 1261.04,-196.03 1248.89,-186.47"/>
<polygon fill="black" stroke="black" points="1250.81,-183.54 1240.79,-180.1 1246.48,-189.04 1250.81,-183.54"/>
</g>
<!-- DTEL&#45;APS_COM_CSCN_ID -->
<g id="node16" class="node">
<title>DTEL&#45;APS_COM_CSCN_ID</title>
<g id="a_node16"><a xlink:href="./DTEL_APS_COM_CSCN_ID.html" xlink:title="DTEL&#45;APS_COM_CSCN_ID">
<polygon fill="none" stroke="yellow" points="1491.35,-180 1304.73,-180 1304.73,-144 1491.35,-144 1491.35,-180"/>
<text text-anchor="middle" x="1398.04" y="-157.8" font-family="Times,serif" font-size="14.00">DTEL&#45;APS_COM_CSCN_ID</text>
</a>
</g>
</g>
<!-- TABL&#45;ISAPS_COM_CA_INB_SRV_TP_D&#45;&gt;DTEL&#45;APS_COM_CSCN_ID -->
<g id="edge4" class="edge">
<title>TABL&#45;ISAPS_COM_CA_INB_SRV_TP_D&#45;&gt;DTEL&#45;APS_COM_CSCN_ID</title>
<path fill="none" stroke="black" d="M1330.29,-215.7C1341.62,-206.88 1355.57,-196.03 1367.86,-186.47"/>
<polygon fill="black" stroke="black" points="1370.3,-189.01 1376.05,-180.1 1366.01,-183.48 1370.3,-189.01"/>
</g>
<!-- DTEL&#45;APS_CA_INBOUND_STATUS -->
<g id="node18" class="node">
<title>DTEL&#45;APS_CA_INBOUND_STATUS</title>
<g id="a_node18"><a xlink:href="./DTEL_APS_CA_INBOUND_STATUS.html" xlink:title="DTEL&#45;APS_CA_INBOUND_STATUS">
<polygon fill="none" stroke="yellow" points="1748.99,-180 1509.09,-180 1509.09,-144 1748.99,-144 1748.99,-180"/>
<text text-anchor="middle" x="1629.04" y="-157.8" font-family="Times,serif" font-size="14.00">DTEL&#45;APS_CA_INBOUND_STATUS</text>
</a>
</g>
</g>
<!-- TABL&#45;ISAPS_COM_CA_INB_SRV_TP_D&#45;&gt;DTEL&#45;APS_CA_INBOUND_STATUS -->
<g id="edge3" class="edge">
<title>TABL&#45;ISAPS_COM_CA_INB_SRV_TP_D&#45;&gt;DTEL&#45;APS_CA_INBOUND_STATUS</title>
<path fill="none" stroke="black" d="M1386.15,-215.97C1432.95,-205.76 1492.55,-192.76 1541.01,-182.2"/>
<polygon fill="black" stroke="black" points="1541.83,-185.6 1550.85,-180.05 1540.34,-178.76 1541.83,-185.6"/>
</g>
<!-- DTEL&#45;APS_COM_CSCN_NUMBER -->
<g id="node20" class="node">
<title>DTEL&#45;APS_COM_CSCN_NUMBER</title>
<g id="a_node20"><a xlink:href="./DTEL_APS_COM_CSCN_NUMBER.html" xlink:title="DTEL&#45;APS_COM_CSCN_NUMBER">
<polygon fill="none" stroke="yellow" points="1998.97,-180 1767.11,-180 1767.11,-144 1998.97,-144 1998.97,-180"/>
<text text-anchor="middle" x="1883.04" y="-157.8" font-family="Times,serif" font-size="14.00">DTEL&#45;APS_COM_CSCN_NUMBER</text>
</a>
</g>
</g>
<!-- TABL&#45;ISAPS_COM_CA_INB_SRV_TP_D&#45;&gt;DTEL&#45;APS_COM_CSCN_NUMBER -->
<g id="edge2" class="edge">
<title>TABL&#45;ISAPS_COM_CA_INB_SRV_TP_D&#45;&gt;DTEL&#45;APS_COM_CSCN_NUMBER</title>
<path fill="none" stroke="black" d="M1441.52,-217.91C1528.47,-207.94 1644.67,-194.32 1757.11,-180.11"/>
<polygon fill="black" stroke="black" points="1757.79,-183.55 1767.28,-178.82 1756.91,-176.6 1757.79,-183.55"/>
</g>
<!-- DTEL&#45;APS_CA_COMMSYS_INBUSR -->
<g id="node21" class="node">
<title>DTEL&#45;APS_CA_COMMSYS_INBUSR</title>
<g id="a_node21"><a xlink:href="./DTEL_APS_CA_COMMSYS_INBUSR.html" xlink:title="DTEL&#45;APS_CA_COMMSYS_INBUSR">
<polygon fill="none" stroke="yellow" points="2260.91,-180 2017.17,-180 2017.17,-144 2260.91,-144 2260.91,-180"/>
<text text-anchor="middle" x="2139.04" y="-157.8" font-family="Times,serif" font-size="14.00">DTEL&#45;APS_CA_COMMSYS_INBUSR</text>
</a>
</g>
</g>
<!-- TABL&#45;ISAPS_COM_CA_INB_SRV_TP_D&#45;&gt;DTEL&#45;APS_CA_COMMSYS_INBUSR -->
<g id="edge1" class="edge">
<title>TABL&#45;ISAPS_COM_CA_INB_SRV_TP_D&#45;&gt;DTEL&#45;APS_CA_COMMSYS_INBUSR</title>
<path fill="none" stroke="black" d="M1441.45,-225.03C1580.16,-216.25 1803.83,-200.72 2007.07,-180.07"/>
<polygon fill="black" stroke="black" points="2007.44,-183.55 2017.04,-179.05 2006.73,-176.58 2007.44,-183.55"/>
</g>
<!-- DOMA&#45;BOOLE -->
<g id="node3" class="node">
<title>DOMA&#45;BOOLE</title>
<g id="a_node3"><a xlink:href="./DOMA_BOOLE.html" xlink:title="DOMA&#45;BOOLE">
<polygon fill="none" stroke="yellow" points="110.12,-108 -0.04,-108 -0.04,-72 110.12,-72 110.12,-108"/>
<text text-anchor="middle" x="55.04" y="-85.8" font-family="Times,serif" font-size="14.00">DOMA&#45;BOOLE</text>
</a>
</g>
</g>
<!-- DTEL&#45;SDRAFT_IS_ACTIVE&#45;&gt;DOMA&#45;BOOLE -->
<g id="edge9" class="edge">
<title>DTEL&#45;SDRAFT_IS_ACTIVE&#45;&gt;DOMA&#45;BOOLE</title>
<path fill="none" stroke="black" d="M187.23,-143.88C163.09,-134.22 132.76,-122.09 107.23,-111.88"/>
<polygon fill="black" stroke="black" points="108.3,-108.53 97.71,-108.07 105.7,-115.03 108.3,-108.53"/>
</g>
<!-- DTEL&#45;SDRAFT_OPERATION_CODE -->
<g id="node5" class="node">
<title>DTEL&#45;SDRAFT_OPERATION_CODE</title>
<g id="a_node5"><a xlink:href="./DTEL_SDRAFT_OPERATION_CODE.html" xlink:title="DTEL&#45;SDRAFT_OPERATION_CODE">
<polygon fill="none" stroke="yellow" points="1156.55,-108 915.53,-108 915.53,-72 1156.55,-72 1156.55,-108"/>
<text text-anchor="middle" x="1036.04" y="-85.8" font-family="Times,serif" font-size="14.00">DTEL&#45;SDRAFT_OPERATION_CODE</text>
</a>
</g>
</g>
<!-- TABL&#45;SDRAFT_WRITE_DRAFT_ADMIN&#45;&gt;DTEL&#45;SDRAFT_OPERATION_CODE -->
<g id="edge14" class="edge">
<title>TABL&#45;SDRAFT_WRITE_DRAFT_ADMIN&#45;&gt;DTEL&#45;SDRAFT_OPERATION_CODE</title>
<path fill="none" stroke="black" d="M921.22,-143.88C941.91,-134.35 967.84,-122.41 989.82,-112.28"/>
<polygon fill="black" stroke="black" points="991.36,-115.43 998.98,-108.07 988.43,-109.07 991.36,-115.43"/>
</g>
<!-- DTEL&#45;SDRAFT_CONSISTENCY_STATUS -->
<g id="node7" class="node">
<title>DTEL&#45;SDRAFT_CONSISTENCY_STATUS</title>
<g id="a_node7"><a xlink:href="./DTEL_SDRAFT_CONSISTENCY_STATUS.html" xlink:title="DTEL&#45;SDRAFT_CONSISTENCY_STATUS">
<polygon fill="none" stroke="yellow" points="401.95,-108 128.13,-108 128.13,-72 401.95,-72 401.95,-108"/>
<text text-anchor="middle" x="265.04" y="-85.8" font-family="Times,serif" font-size="14.00">DTEL&#45;SDRAFT_CONSISTENCY_STATUS</text>
</a>
</g>
</g>
<!-- TABL&#45;SDRAFT_WRITE_DRAFT_ADMIN&#45;&gt;DTEL&#45;SDRAFT_CONSISTENCY_STATUS -->
<g id="edge13" class="edge">
<title>TABL&#45;SDRAFT_WRITE_DRAFT_ADMIN&#45;&gt;DTEL&#45;SDRAFT_CONSISTENCY_STATUS</title>
<path fill="none" stroke="black" d="M749.43,-146.14C657.13,-135.91 531.58,-121.9 412.1,-108.23"/>
<polygon fill="black" stroke="black" points="412.37,-104.74 402.03,-107.08 411.57,-111.7 412.37,-104.74"/>
</g>
<!-- DTEL&#45;SDRAFT_ADMIN_UUID -->
<g id="node9" class="node">
<title>DTEL&#45;SDRAFT_ADMIN_UUID</title>
<g id="a_node9"><a xlink:href="./DTEL_SDRAFT_ADMIN_UUID.html" xlink:title="DTEL&#45;SDRAFT_ADMIN_UUID">
<polygon fill="none" stroke="yellow" points="1381.54,-108 1174.54,-108 1174.54,-72 1381.54,-72 1381.54,-108"/>
<text text-anchor="middle" x="1278.04" y="-85.8" font-family="Times,serif" font-size="14.00">DTEL&#45;SDRAFT_ADMIN_UUID</text>
</a>
</g>
</g>
<!-- TABL&#45;SDRAFT_WRITE_DRAFT_ADMIN&#45;&gt;DTEL&#45;SDRAFT_ADMIN_UUID -->
<g id="edge12" class="edge">
<title>TABL&#45;SDRAFT_WRITE_DRAFT_ADMIN&#45;&gt;DTEL&#45;SDRAFT_ADMIN_UUID</title>
<path fill="none" stroke="black" d="M979.92,-143.97C1038.07,-133.63 1112.35,-120.44 1172.21,-109.8"/>
<polygon fill="black" stroke="black" points="1172.84,-113.25 1182.07,-108.05 1171.61,-106.35 1172.84,-113.25"/>
</g>
<!-- DTEL&#45;SDRAFT_LAST_CHANGED_AT -->
<g id="node11" class="node">
<title>DTEL&#45;SDRAFT_LAST_CHANGED_AT</title>
<g id="a_node11"><a xlink:href="./DTEL_SDRAFT_LAST_CHANGED_AT.html" xlink:title="DTEL&#45;SDRAFT_LAST_CHANGED_AT">
<polygon fill="none" stroke="yellow" points="897.71,-108 644.37,-108 644.37,-72 897.71,-72 897.71,-108"/>
<text text-anchor="middle" x="771.04" y="-85.8" font-family="Times,serif" font-size="14.00">DTEL&#45;SDRAFT_LAST_CHANGED_AT</text>
</a>
</g>
</g>
<!-- TABL&#45;SDRAFT_WRITE_DRAFT_ADMIN&#45;&gt;DTEL&#45;SDRAFT_LAST_CHANGED_AT -->
<g id="edge11" class="edge">
<title>TABL&#45;SDRAFT_WRITE_DRAFT_ADMIN&#45;&gt;DTEL&#45;SDRAFT_LAST_CHANGED_AT</title>
<path fill="none" stroke="black" d="M856.4,-143.88C841.62,-134.72 823.25,-123.34 807.34,-113.48"/>
<polygon fill="black" stroke="black" points="809.13,-110.48 798.79,-108.19 805.45,-116.43 809.13,-110.48"/>
</g>
<!-- DTEL&#45;SDRAFT_CREATED_AT -->
<g id="node13" class="node">
<title>DTEL&#45;SDRAFT_CREATED_AT</title>
<g id="a_node13"><a xlink:href="./DTEL_SDRAFT_CREATED_AT.html" xlink:title="DTEL&#45;SDRAFT_CREATED_AT">
<polygon fill="none" stroke="yellow" points="626.84,-108 419.24,-108 419.24,-72 626.84,-72 626.84,-108"/>
<text text-anchor="middle" x="523.04" y="-85.8" font-family="Times,serif" font-size="14.00">DTEL&#45;SDRAFT_CREATED_AT</text>
</a>
</g>
</g>
<!-- TABL&#45;SDRAFT_WRITE_DRAFT_ADMIN&#45;&gt;DTEL&#45;SDRAFT_CREATED_AT -->
<g id="edge10" class="edge">
<title>TABL&#45;SDRAFT_WRITE_DRAFT_ADMIN&#45;&gt;DTEL&#45;SDRAFT_CREATED_AT</title>
<path fill="none" stroke="black" d="M796.19,-143.97C743.24,-133.7 675.7,-120.6 621.02,-110"/>
<polygon fill="black" stroke="black" points="621.45,-106.52 610.97,-108.05 620.12,-113.39 621.45,-106.52"/>
</g>
<!-- DOMA&#45;SDRAFT_OPERATION_CODE -->
<g id="node6" class="node">
<title>DOMA&#45;SDRAFT_OPERATION_CODE</title>
<g id="a_node6"><a xlink:href="./DOMA_SDRAFT_OPERATION_CODE.html" xlink:title="DOMA&#45;SDRAFT_OPERATION_CODE">
<polygon fill="none" stroke="yellow" points="1160.05,-36 912.03,-36 912.03,0 1160.05,0 1160.05,-36"/>
<text text-anchor="middle" x="1036.04" y="-13.8" font-family="Times,serif" font-size="14.00">DOMA&#45;SDRAFT_OPERATION_CODE</text>
</a>
</g>
</g>
<!-- DTEL&#45;SDRAFT_OPERATION_CODE&#45;&gt;DOMA&#45;SDRAFT_OPERATION_CODE -->
<g id="edge15" class="edge">
<title>DTEL&#45;SDRAFT_OPERATION_CODE&#45;&gt;DOMA&#45;SDRAFT_OPERATION_CODE</title>
<path fill="none" stroke="black" d="M1036.04,-71.7C1036.04,-63.98 1036.04,-54.71 1036.04,-46.11"/>
<polygon fill="black" stroke="black" points="1039.54,-46.1 1036.04,-36.1 1032.54,-46.1 1039.54,-46.1"/>
</g>
<!-- DOMA&#45;SDRAFT_CONSISTENCY_STATUS -->
<g id="node8" class="node">
<title>DOMA&#45;SDRAFT_CONSISTENCY_STATUS</title>
<g id="a_node8"><a xlink:href="./DOMA_SDRAFT_CONSISTENCY_STATUS.html" xlink:title="DOMA&#45;SDRAFT_CONSISTENCY_STATUS">
<polygon fill="none" stroke="yellow" points="405.45,-36 124.63,-36 124.63,0 405.45,0 405.45,-36"/>
<text text-anchor="middle" x="265.04" y="-13.8" font-family="Times,serif" font-size="14.00">DOMA&#45;SDRAFT_CONSISTENCY_STATUS</text>
</a>
</g>
</g>
<!-- DTEL&#45;SDRAFT_CONSISTENCY_STATUS&#45;&gt;DOMA&#45;SDRAFT_CONSISTENCY_STATUS -->
<g id="edge16" class="edge">
<title>DTEL&#45;SDRAFT_CONSISTENCY_STATUS&#45;&gt;DOMA&#45;SDRAFT_CONSISTENCY_STATUS</title>
<path fill="none" stroke="black" d="M265.04,-71.7C265.04,-63.98 265.04,-54.71 265.04,-46.11"/>
<polygon fill="black" stroke="black" points="268.54,-46.1 265.04,-36.1 261.54,-46.1 268.54,-46.1"/>
</g>
<!-- DOMA&#45;SYSUUID -->
<g id="node10" class="node">
<title>DOMA&#45;SYSUUID</title>
<g id="a_node10"><a xlink:href="./DOMA_SYSUUID.html" xlink:title="DOMA&#45;SYSUUID">
<polygon fill="none" stroke="yellow" points="1405.12,-36 1280.96,-36 1280.96,0 1405.12,0 1405.12,-36"/>
<text text-anchor="middle" x="1343.04" y="-13.8" font-family="Times,serif" font-size="14.00">DOMA&#45;SYSUUID</text>
</a>
</g>
</g>
<!-- DTEL&#45;SDRAFT_ADMIN_UUID&#45;&gt;DOMA&#45;SYSUUID -->
<g id="edge17" class="edge">
<title>DTEL&#45;SDRAFT_ADMIN_UUID&#45;&gt;DOMA&#45;SYSUUID</title>
<path fill="none" stroke="black" d="M1294.11,-71.7C1301.98,-63.22 1311.6,-52.86 1320.21,-43.58"/>
<polygon fill="black" stroke="black" points="1322.92,-45.81 1327.16,-36.1 1317.79,-41.05 1322.92,-45.81"/>
</g>
<!-- DOMA&#45;TZNTSTMPL -->
<g id="node12" class="node">
<title>DOMA&#45;TZNTSTMPL</title>
<g id="a_node12"><a xlink:href="./DOMA_TZNTSTMPL.html" xlink:title="DOMA&#45;TZNTSTMPL">
<polygon fill="none" stroke="yellow" points="719.34,-36 574.74,-36 574.74,0 719.34,0 719.34,-36"/>
<text text-anchor="middle" x="647.04" y="-13.8" font-family="Times,serif" font-size="14.00">DOMA&#45;TZNTSTMPL</text>
</a>
</g>
</g>
<!-- DTEL&#45;SDRAFT_LAST_CHANGED_AT&#45;&gt;DOMA&#45;TZNTSTMPL -->
<g id="edge18" class="edge">
<title>DTEL&#45;SDRAFT_LAST_CHANGED_AT&#45;&gt;DOMA&#45;TZNTSTMPL</title>
<path fill="none" stroke="black" d="M740.71,-71.88C724.34,-62.64 703.96,-51.13 686.39,-41.21"/>
<polygon fill="black" stroke="black" points="687.92,-38.06 677.49,-36.19 684.48,-44.15 687.92,-38.06"/>
</g>
<!-- DTEL&#45;SDRAFT_CREATED_AT&#45;&gt;DOMA&#45;TZNTSTMPL -->
<g id="edge19" class="edge">
<title>DTEL&#45;SDRAFT_CREATED_AT&#45;&gt;DOMA&#45;TZNTSTMPL</title>
<path fill="none" stroke="black" d="M553.37,-71.88C569.74,-62.64 590.12,-51.13 607.69,-41.21"/>
<polygon fill="black" stroke="black" points="609.6,-44.15 616.59,-36.19 606.16,-38.06 609.6,-44.15"/>
</g>
<!-- DTEL&#45;SDRAFT_HAS_ACTIVE&#45;&gt;DOMA&#45;BOOLE -->
<g id="edge20" class="edge">
<title>DTEL&#45;SDRAFT_HAS_ACTIVE&#45;&gt;DOMA&#45;BOOLE</title>
<path fill="none" stroke="black" d="M466.21,-153.14C377.2,-145.31 244.42,-131.31 120.16,-108.06"/>
<polygon fill="black" stroke="black" points="120.56,-104.58 110.08,-106.15 119.26,-111.45 120.56,-104.58"/>
</g>
<!-- DTEL&#45;/BOBF/UUID&#45;&gt;DOMA&#45;SYSUUID -->
<g id="edge21" class="edge">
<title>DTEL&#45;/BOBF/UUID&#45;&gt;DOMA&#45;SYSUUID</title>
<path fill="none" stroke="black" d="M1287.15,-143.99C1331.96,-132.11 1383.52,-116.85 1390.04,-108 1404.92,-87.81 1388.35,-62.29 1370.91,-43.76"/>
<polygon fill="black" stroke="black" points="1373.01,-40.91 1363.47,-36.28 1368.04,-45.84 1373.01,-40.91"/>
</g>
<!-- DOMA&#45;APS_COM_CSCN_ID -->
<g id="node17" class="node">
<title>DOMA&#45;APS_COM_CSCN_ID</title>
<g id="a_node17"><a xlink:href="./DOMA_APS_COM_CSCN_ID.html" xlink:title="DOMA&#45;APS_COM_CSCN_ID">
<polygon fill="none" stroke="yellow" points="1630.85,-108 1437.23,-108 1437.23,-72 1630.85,-72 1630.85,-108"/>
<text text-anchor="middle" x="1534.04" y="-85.8" font-family="Times,serif" font-size="14.00">DOMA&#45;APS_COM_CSCN_ID</text>
</a>
</g>
</g>
<!-- DTEL&#45;APS_COM_CSCN_ID&#45;&gt;DOMA&#45;APS_COM_CSCN_ID -->
<g id="edge22" class="edge">
<title>DTEL&#45;APS_COM_CSCN_ID&#45;&gt;DOMA&#45;APS_COM_CSCN_ID</title>
<path fill="none" stroke="black" d="M1431.31,-143.88C1449.5,-134.51 1472.23,-122.81 1491.68,-112.8"/>
<polygon fill="black" stroke="black" points="1493.35,-115.88 1500.64,-108.19 1490.15,-109.65 1493.35,-115.88"/>
</g>
<!-- DOMA&#45;APS_CA_INBOUND_STATUS -->
<g id="node19" class="node">
<title>DOMA&#45;APS_CA_INBOUND_STATUS</title>
<g id="a_node19"><a xlink:href="./DOMA_APS_CA_INBOUND_STATUS.html" xlink:title="DOMA&#45;APS_CA_INBOUND_STATUS">
<polygon fill="none" stroke="yellow" points="1895.49,-108 1648.59,-108 1648.59,-72 1895.49,-72 1895.49,-108"/>
<text text-anchor="middle" x="1772.04" y="-85.8" font-family="Times,serif" font-size="14.00">DOMA&#45;APS_CA_INBOUND_STATUS</text>
</a>
</g>
</g>
<!-- DTEL&#45;APS_CA_INBOUND_STATUS&#45;&gt;DOMA&#45;APS_CA_INBOUND_STATUS -->
<g id="edge23" class="edge">
<title>DTEL&#45;APS_CA_INBOUND_STATUS&#45;&gt;DOMA&#45;APS_CA_INBOUND_STATUS</title>
<path fill="none" stroke="black" d="M1664.02,-143.88C1683.24,-134.47 1707.27,-122.71 1727.78,-112.67"/>
<polygon fill="black" stroke="black" points="1729.48,-115.73 1736.92,-108.19 1726.4,-109.44 1729.48,-115.73"/>
</g>
<!-- DOMA&#45;/BOBF/CONF_KEY -->
<g id="node22" class="node">
<title>DOMA&#45;/BOBF/CONF_KEY</title>
<g id="a_node22"><a xlink:href="./DOMA_%23BOBF%23CONF_KEY.html" xlink:title="DOMA&#45;/BOBF/CONF_KEY">
<polygon fill="none" stroke="yellow" points="2229.41,-108 2048.67,-108 2048.67,-72 2229.41,-72 2229.41,-108"/>
<text text-anchor="middle" x="2139.04" y="-85.8" font-family="Times,serif" font-size="14.00">DOMA&#45;/BOBF/CONF_KEY</text>
</a>
</g>
</g>
<!-- DTEL&#45;APS_CA_COMMSYS_INBUSR&#45;&gt;DOMA&#45;/BOBF/CONF_KEY -->
<g id="edge24" class="edge">
<title>DTEL&#45;APS_CA_COMMSYS_INBUSR&#45;&gt;DOMA&#45;/BOBF/CONF_KEY</title>
<path fill="none" stroke="black" d="M2139.04,-143.7C2139.04,-135.98 2139.04,-126.71 2139.04,-118.11"/>
<polygon fill="black" stroke="black" points="2142.54,-118.1 2139.04,-108.1 2135.54,-118.1 2142.54,-118.1"/>
</g>
</g>
</svg>
