<?xml version="1.0" encoding="UTF-8" standalone="no"?>
<!DOCTYPE svg PUBLIC "-//W3C//DTD SVG 1.1//EN"
 "http://www.w3.org/Graphics/SVG/1.1/DTD/svg11.dtd">
<!-- Generated by graphviz version 2.47.3 (20210619.1520)
 -->
<!-- Title: G Pages: 1 -->
<svg width="771pt" height="260pt"
 viewBox="0.00 0.00 770.70 260.00" xmlns="http://www.w3.org/2000/svg" xmlns:xlink="http://www.w3.org/1999/xlink">
<g id="graph0" class="graph" transform="scale(1 1) rotate(0) translate(4 256)">
<title>G</title>
<polygon fill="white" stroke="transparent" points="-4,4 -4,-256 766.7,-256 766.7,4 -4,4"/>
<!-- TABL&#45;/BOBF/S_FRW_LOCATION -->
<g id="node1" class="node">
<title>TABL&#45;/BOBF/S_FRW_LOCATION</title>
<polygon fill="none" stroke="yellow" points="603.97,-252 378.57,-252 378.57,-216 603.97,-216 603.97,-252"/>
<text text-anchor="middle" x="491.27" y="-229.8" font-family="Times,serif" font-size="14.00">TABL&#45;/BOBF/S_FRW_LOCATION</text>
</g>
<!-- TTYP&#45;/BOBF/T_FRW_ASSOC_KEY -->
<g id="node2" class="node">
<title>TTYP&#45;/BOBF/T_FRW_ASSOC_KEY</title>
<g id="a_node2"><a xlink:href="./TTYP_%23BOBF%23T_FRW_ASSOC_KEY.html" xlink:title="TTYP&#45;/BOBF/T_FRW_ASSOC_KEY">
<polygon fill="none" stroke="yellow" points="243.03,-180 9.5,-180 9.5,-144 243.03,-144 243.03,-180"/>
<text text-anchor="middle" x="126.27" y="-157.8" font-family="Times,serif" font-size="14.00">TTYP&#45;/BOBF/T_FRW_ASSOC_KEY</text>
</a>
</g>
</g>
<!-- TABL&#45;/BOBF/S_FRW_LOCATION&#45;&gt;TTYP&#45;/BOBF/T_FRW_ASSOC_KEY -->
<g id="edge5" class="edge">
<title>TABL&#45;/BOBF/S_FRW_LOCATION&#45;&gt;TTYP&#45;/BOBF/T_FRW_ASSOC_KEY</title>
<path fill="none" stroke="black" d="M402.45,-215.97C348.91,-205.7 280.62,-192.6 225.34,-182"/>
<polygon fill="black" stroke="black" points="225.65,-178.5 215.17,-180.05 224.33,-185.37 225.65,-178.5"/>
</g>
<!-- TTYP&#45;/BOBF/T_FRW_NAME -->
<g id="node5" class="node">
<title>TTYP&#45;/BOBF/T_FRW_NAME</title>
<g id="a_node5"><a xlink:href="./TTYP_%23BOBF%23T_FRW_NAME.html" xlink:title="TTYP&#45;/BOBF/T_FRW_NAME">
<polygon fill="none" stroke="yellow" points="463.36,-180 269.17,-180 269.17,-144 463.36,-144 463.36,-180"/>
<text text-anchor="middle" x="366.27" y="-157.8" font-family="Times,serif" font-size="14.00">TTYP&#45;/BOBF/T_FRW_NAME</text>
</a>
</g>
</g>
<!-- TABL&#45;/BOBF/S_FRW_LOCATION&#45;&gt;TTYP&#45;/BOBF/T_FRW_NAME -->
<g id="edge4" class="edge">
<title>TABL&#45;/BOBF/S_FRW_LOCATION&#45;&gt;TTYP&#45;/BOBF/T_FRW_NAME</title>
<path fill="none" stroke="black" d="M460.69,-215.88C444.2,-206.64 423.64,-195.13 405.93,-185.21"/>
<polygon fill="black" stroke="black" points="407.4,-182.02 396.96,-180.19 403.98,-188.13 407.4,-182.02"/>
</g>
<!-- DTEL&#45;/BOBF/CONF_KEY -->
<g id="node6" class="node">
<title>DTEL&#45;/BOBF/CONF_KEY</title>
<g id="a_node6"><a xlink:href="./DTEL_%23BOBF%23CONF_KEY.html" xlink:title="DTEL&#45;/BOBF/CONF_KEY">
<polygon fill="none" stroke="yellow" points="412.14,-108 238.4,-108 238.4,-72 412.14,-72 412.14,-108"/>
<text text-anchor="middle" x="325.27" y="-85.8" font-family="Times,serif" font-size="14.00">DTEL&#45;/BOBF/CONF_KEY</text>
</a>
</g>
</g>
<!-- TABL&#45;/BOBF/S_FRW_LOCATION&#45;&gt;DTEL&#45;/BOBF/CONF_KEY -->
<g id="edge3" class="edge">
<title>TABL&#45;/BOBF/S_FRW_LOCATION&#45;&gt;DTEL&#45;/BOBF/CONF_KEY</title>
<path fill="none" stroke="black" d="M492.26,-215.77C492.45,-196.08 489.72,-164 472.27,-144 458.86,-128.63 440.64,-117.72 421.6,-109.97"/>
<polygon fill="black" stroke="black" points="422.79,-106.68 412.2,-106.41 420.32,-113.23 422.79,-106.68"/>
</g>
<!-- DTEL&#45;/BOBF/OBM_NODE_KEY -->
<g id="node7" class="node">
<title>DTEL&#45;/BOBF/OBM_NODE_KEY</title>
<g id="a_node7"><a xlink:href="./DTEL_%23BOBF%23OBM_NODE_KEY.html" xlink:title="DTEL&#45;/BOBF/OBM_NODE_KEY">
<polygon fill="none" stroke="yellow" points="644.56,-108 429.97,-108 429.97,-72 644.56,-72 644.56,-108"/>
<text text-anchor="middle" x="537.27" y="-85.8" font-family="Times,serif" font-size="14.00">DTEL&#45;/BOBF/OBM_NODE_KEY</text>
</a>
</g>
</g>
<!-- TABL&#45;/BOBF/S_FRW_LOCATION&#45;&gt;DTEL&#45;/BOBF/OBM_NODE_KEY -->
<g id="edge2" class="edge">
<title>TABL&#45;/BOBF/S_FRW_LOCATION&#45;&gt;DTEL&#45;/BOBF/OBM_NODE_KEY</title>
<path fill="none" stroke="black" d="M496.82,-215.87C504.69,-191.56 519.19,-146.82 528.52,-118.01"/>
<polygon fill="black" stroke="black" points="531.95,-118.78 531.7,-108.19 525.29,-116.62 531.95,-118.78"/>
</g>
<!-- DTEL&#45;/BOBF/OBM_BO_KEY -->
<g id="node8" class="node">
<title>DTEL&#45;/BOBF/OBM_BO_KEY</title>
<g id="a_node8"><a xlink:href="./DTEL_%23BOBF%23OBM_BO_KEY.html" xlink:title="DTEL&#45;/BOBF/OBM_BO_KEY">
<polygon fill="none" stroke="yellow" points="762.63,-180 567.9,-180 567.9,-144 762.63,-144 762.63,-180"/>
<text text-anchor="middle" x="665.27" y="-157.8" font-family="Times,serif" font-size="14.00">DTEL&#45;/BOBF/OBM_BO_KEY</text>
</a>
</g>
</g>
<!-- TABL&#45;/BOBF/S_FRW_LOCATION&#45;&gt;DTEL&#45;/BOBF/OBM_BO_KEY -->
<g id="edge1" class="edge">
<title>TABL&#45;/BOBF/S_FRW_LOCATION&#45;&gt;DTEL&#45;/BOBF/OBM_BO_KEY</title>
<path fill="none" stroke="black" d="M533.83,-215.88C557.83,-206.22 588,-194.09 613.37,-183.88"/>
<polygon fill="black" stroke="black" points="614.87,-187.05 622.84,-180.07 612.26,-180.55 614.87,-187.05"/>
</g>
<!-- DTEL&#45;/BOBF/OBM_ASSOC_KEY -->
<g id="node3" class="node">
<title>DTEL&#45;/BOBF/OBM_ASSOC_KEY</title>
<g id="a_node3"><a xlink:href="./DTEL_%23BOBF%23OBM_ASSOC_KEY.html" xlink:title="DTEL&#45;/BOBF/OBM_ASSOC_KEY">
<polygon fill="none" stroke="yellow" points="220.31,-108 0.23,-108 0.23,-72 220.31,-72 220.31,-108"/>
<text text-anchor="middle" x="110.27" y="-85.8" font-family="Times,serif" font-size="14.00">DTEL&#45;/BOBF/OBM_ASSOC_KEY</text>
</a>
</g>
</g>
<!-- TTYP&#45;/BOBF/T_FRW_ASSOC_KEY&#45;&gt;DTEL&#45;/BOBF/OBM_ASSOC_KEY -->
<g id="edge6" class="edge">
<title>TTYP&#45;/BOBF/T_FRW_ASSOC_KEY&#45;&gt;DTEL&#45;/BOBF/OBM_ASSOC_KEY</title>
<path fill="none" stroke="black" d="M122.31,-143.7C120.55,-135.98 118.43,-126.71 116.47,-118.11"/>
<polygon fill="black" stroke="black" points="119.82,-117.07 114.18,-108.1 112.99,-118.63 119.82,-117.07"/>
</g>
<!-- DOMA&#45;/BOBF/CONF_KEY -->
<g id="node4" class="node">
<title>DOMA&#45;/BOBF/CONF_KEY</title>
<g id="a_node4"><a xlink:href="./DOMA_%23BOBF%23CONF_KEY.html" xlink:title="DOMA&#45;/BOBF/CONF_KEY">
<polygon fill="none" stroke="yellow" points="521.64,-36 340.9,-36 340.9,0 521.64,0 521.64,-36"/>
<text text-anchor="middle" x="431.27" y="-13.8" font-family="Times,serif" font-size="14.00">DOMA&#45;/BOBF/CONF_KEY</text>
</a>
</g>
</g>
<!-- DTEL&#45;/BOBF/OBM_ASSOC_KEY&#45;&gt;DOMA&#45;/BOBF/CONF_KEY -->
<g id="edge7" class="edge">
<title>DTEL&#45;/BOBF/OBM_ASSOC_KEY&#45;&gt;DOMA&#45;/BOBF/CONF_KEY</title>
<path fill="none" stroke="black" d="M188.38,-71.97C235.17,-61.76 294.78,-48.76 343.23,-38.2"/>
<polygon fill="black" stroke="black" points="344.06,-41.6 353.08,-36.05 342.57,-34.76 344.06,-41.6"/>
</g>
<!-- DTEL&#45;/BOBF/CONF_KEY&#45;&gt;DOMA&#45;/BOBF/CONF_KEY -->
<g id="edge8" class="edge">
<title>DTEL&#45;/BOBF/CONF_KEY&#45;&gt;DOMA&#45;/BOBF/CONF_KEY</title>
<path fill="none" stroke="black" d="M351.2,-71.88C364.93,-62.81 381.98,-51.55 396.8,-41.76"/>
<polygon fill="black" stroke="black" points="398.82,-44.62 405.24,-36.19 394.97,-38.78 398.82,-44.62"/>
</g>
<!-- DTEL&#45;/BOBF/OBM_NODE_KEY&#45;&gt;DOMA&#45;/BOBF/CONF_KEY -->
<g id="edge9" class="edge">
<title>DTEL&#45;/BOBF/OBM_NODE_KEY&#45;&gt;DOMA&#45;/BOBF/CONF_KEY</title>
<path fill="none" stroke="black" d="M511.34,-71.88C497.61,-62.81 480.56,-51.55 465.73,-41.76"/>
<polygon fill="black" stroke="black" points="467.57,-38.78 457.3,-36.19 463.71,-44.62 467.57,-38.78"/>
</g>
<!-- DTEL&#45;/BOBF/OBM_BO_KEY&#45;&gt;DOMA&#45;/BOBF/CONF_KEY -->
<g id="edge10" class="edge">
<title>DTEL&#45;/BOBF/OBM_BO_KEY&#45;&gt;DOMA&#45;/BOBF/CONF_KEY</title>
<path fill="none" stroke="black" d="M668.18,-143.92C670.51,-124.07 670.94,-91.54 653.27,-72 636.51,-53.47 582.4,-40.34 531.8,-31.78"/>
<polygon fill="black" stroke="black" points="532.18,-28.29 521.74,-30.13 531.04,-35.2 532.18,-28.29"/>
</g>
</g>
</svg>
