<?xml version="1.0" encoding="UTF-8" standalone="no"?>
<!DOCTYPE svg PUBLIC "-//W3C//DTD SVG 1.1//EN"
 "http://www.w3.org/Graphics/SVG/1.1/DTD/svg11.dtd">
<!-- Generated by graphviz version 2.47.3 (20210619.1520)
 -->
<!-- Title: G Pages: 1 -->
<svg width="497pt" height="188pt"
 viewBox="0.00 0.00 496.64 188.00" xmlns="http://www.w3.org/2000/svg" xmlns:xlink="http://www.w3.org/1999/xlink">
<g id="graph0" class="graph" transform="scale(1 1) rotate(0) translate(4 184)">
<title>G</title>
<polygon fill="white" stroke="transparent" points="-4,4 -4,-184 492.64,-184 492.64,4 -4,4"/>
<!-- TABL&#45;APS_IAM_W_APPT -->
<g id="node1" class="node">
<title>TABL&#45;APS_IAM_W_APPT</title>
<polygon fill="none" stroke="yellow" points="365.57,-180 187.5,-180 187.5,-144 365.57,-144 365.57,-180"/>
<text text-anchor="middle" x="276.54" y="-157.8" font-family="Times,serif" font-size="14.00">TABL&#45;APS_IAM_W_APPT</text>
</g>
<!-- DTEL&#45;APS_IAM_TEXT80 -->
<g id="node2" class="node">
<title>DTEL&#45;APS_IAM_TEXT80</title>
<g id="a_node2"><a xlink:href="./DTEL_APS_IAM_TEXT80.html" xlink:title="DTEL&#45;APS_IAM_TEXT80">
<polygon fill="none" stroke="yellow" points="173.11,-108 -0.04,-108 -0.04,-72 173.11,-72 173.11,-108"/>
<text text-anchor="middle" x="86.54" y="-85.8" font-family="Times,serif" font-size="14.00">DTEL&#45;APS_IAM_TEXT80</text>
</a>
</g>
</g>
<!-- TABL&#45;APS_IAM_W_APPT&#45;&gt;DTEL&#45;APS_IAM_TEXT80 -->
<g id="edge3" class="edge">
<title>TABL&#45;APS_IAM_W_APPT&#45;&gt;DTEL&#45;APS_IAM_TEXT80</title>
<path fill="none" stroke="black" d="M230.06,-143.88C203.62,-134.14 170.33,-121.87 142.47,-111.61"/>
<polygon fill="black" stroke="black" points="143.46,-108.24 132.86,-108.07 141.04,-114.81 143.46,-108.24"/>
</g>
<!-- DTEL&#45;APS_IAM_APP_ID -->
<g id="node4" class="node">
<title>DTEL&#45;APS_IAM_APP_ID</title>
<g id="a_node4"><a xlink:href="./DTEL_APS_IAM_APP_ID.html" xlink:title="DTEL&#45;APS_IAM_APP_ID">
<polygon fill="none" stroke="yellow" points="361.78,-108 191.29,-108 191.29,-72 361.78,-72 361.78,-108"/>
<text text-anchor="middle" x="276.54" y="-85.8" font-family="Times,serif" font-size="14.00">DTEL&#45;APS_IAM_APP_ID</text>
</a>
</g>
</g>
<!-- TABL&#45;APS_IAM_W_APPT&#45;&gt;DTEL&#45;APS_IAM_APP_ID -->
<g id="edge2" class="edge">
<title>TABL&#45;APS_IAM_W_APPT&#45;&gt;DTEL&#45;APS_IAM_APP_ID</title>
<path fill="none" stroke="black" d="M276.54,-143.7C276.54,-135.98 276.54,-126.71 276.54,-118.11"/>
<polygon fill="black" stroke="black" points="280.04,-118.1 276.54,-108.1 273.04,-118.1 280.04,-118.1"/>
</g>
<!-- DTEL&#45;LANGU -->
<g id="node6" class="node">
<title>DTEL&#45;LANGU</title>
<g id="a_node6"><a xlink:href="./DTEL_LANGU.html" xlink:title="DTEL&#45;LANGU">
<polygon fill="none" stroke="yellow" points="487.44,-108 381.63,-108 381.63,-72 487.44,-72 487.44,-108"/>
<text text-anchor="middle" x="434.54" y="-85.8" font-family="Times,serif" font-size="14.00">DTEL&#45;LANGU</text>
</a>
</g>
</g>
<!-- TABL&#45;APS_IAM_W_APPT&#45;&gt;DTEL&#45;LANGU -->
<g id="edge1" class="edge">
<title>TABL&#45;APS_IAM_W_APPT&#45;&gt;DTEL&#45;LANGU</title>
<path fill="none" stroke="black" d="M315.19,-143.88C336.79,-134.31 363.89,-122.3 386.8,-112.15"/>
<polygon fill="black" stroke="black" points="388.29,-115.32 396.01,-108.07 385.45,-108.92 388.29,-115.32"/>
</g>
<!-- DOMA&#45;TEXT80 -->
<g id="node3" class="node">
<title>DOMA&#45;TEXT80</title>
<g id="a_node3"><a xlink:href="./DOMA_TEXT80.html" xlink:title="DOMA&#45;TEXT80">
<polygon fill="none" stroke="yellow" points="143.23,-36 29.85,-36 29.85,0 143.23,0 143.23,-36"/>
<text text-anchor="middle" x="86.54" y="-13.8" font-family="Times,serif" font-size="14.00">DOMA&#45;TEXT80</text>
</a>
</g>
</g>
<!-- DTEL&#45;APS_IAM_TEXT80&#45;&gt;DOMA&#45;TEXT80 -->
<g id="edge4" class="edge">
<title>DTEL&#45;APS_IAM_TEXT80&#45;&gt;DOMA&#45;TEXT80</title>
<path fill="none" stroke="black" d="M86.54,-71.7C86.54,-63.98 86.54,-54.71 86.54,-46.11"/>
<polygon fill="black" stroke="black" points="90.04,-46.1 86.54,-36.1 83.04,-46.1 90.04,-46.1"/>
</g>
<!-- DOMA&#45;APS_IAM_APP_ID -->
<g id="node5" class="node">
<title>DOMA&#45;APS_IAM_APP_ID</title>
<g id="a_node5"><a xlink:href="./DOMA_APS_IAM_APP_ID.html" xlink:title="DOMA&#45;APS_IAM_APP_ID">
<polygon fill="none" stroke="yellow" points="364.28,-36 186.79,-36 186.79,0 364.28,0 364.28,-36"/>
<text text-anchor="middle" x="275.54" y="-13.8" font-family="Times,serif" font-size="14.00">DOMA&#45;APS_IAM_APP_ID</text>
</a>
</g>
</g>
<!-- DTEL&#45;APS_IAM_APP_ID&#45;&gt;DOMA&#45;APS_IAM_APP_ID -->
<g id="edge5" class="edge">
<title>DTEL&#45;APS_IAM_APP_ID&#45;&gt;DOMA&#45;APS_IAM_APP_ID</title>
<path fill="none" stroke="black" d="M276.29,-71.7C276.18,-63.98 276.05,-54.71 275.92,-46.11"/>
<polygon fill="black" stroke="black" points="279.42,-46.05 275.78,-36.1 272.42,-46.15 279.42,-46.05"/>
</g>
<!-- DOMA&#45;SPRAS -->
<g id="node7" class="node">
<title>DOMA&#45;SPRAS</title>
<g id="a_node7"><a xlink:href="./DOMA_SPRAS.html" xlink:title="DOMA&#45;SPRAS">
<polygon fill="none" stroke="green" points="488.75,-36 382.32,-36 382.32,0 488.75,0 488.75,-36"/>
<text text-anchor="middle" x="435.54" y="-13.8" font-family="Times,serif" font-size="14.00">DOMA&#45;SPRAS</text>
</a>
</g>
</g>
<!-- DTEL&#45;LANGU&#45;&gt;DOMA&#45;SPRAS -->
<g id="edge6" class="edge">
<title>DTEL&#45;LANGU&#45;&gt;DOMA&#45;SPRAS</title>
<path fill="none" stroke="black" d="M434.78,-71.7C434.89,-63.98 435.03,-54.71 435.15,-46.11"/>
<polygon fill="black" stroke="black" points="438.65,-46.15 435.29,-36.1 431.65,-46.05 438.65,-46.15"/>
</g>
</g>
</svg>
