<?xml version="1.0" encoding="UTF-8" standalone="no"?>
<!DOCTYPE svg PUBLIC "-//W3C//DTD SVG 1.1//EN"
 "http://www.w3.org/Graphics/SVG/1.1/DTD/svg11.dtd">
<!-- Generated by graphviz version 2.47.3 (20210619.1520)
 -->
<!-- Title: G Pages: 1 -->
<svg width="280pt" height="188pt"
 viewBox="0.00 0.00 280.19 188.00" xmlns="http://www.w3.org/2000/svg" xmlns:xlink="http://www.w3.org/1999/xlink">
<g id="graph0" class="graph" transform="scale(1 1) rotate(0) translate(4 184)">
<title>G</title>
<polygon fill="white" stroke="transparent" points="-4,4 -4,-184 276.19,-184 276.19,4 -4,4"/>
<!-- TABL&#45;BAPIALF -->
<g id="node1" class="node">
<title>TABL&#45;BAPIALF</title>
<polygon fill="none" stroke="green" points="191.19,-180 76.12,-180 76.12,-144 191.19,-144 191.19,-180"/>
<text text-anchor="middle" x="133.65" y="-157.8" font-family="Times,serif" font-size="14.00">TABL&#45;BAPIALF</text>
</g>
<!-- DTEL&#45;BALMNR -->
<g id="node2" class="node">
<title>DTEL&#45;BALMNR</title>
<g id="a_node2"><a xlink:href="./DTEL_BALMNR.html" xlink:title="DTEL&#45;BALMNR">
<polygon fill="none" stroke="green" points="121.96,-108 5.35,-108 5.35,-72 121.96,-72 121.96,-108"/>
<text text-anchor="middle" x="63.65" y="-85.8" font-family="Times,serif" font-size="14.00">DTEL&#45;BALMNR</text>
</a>
</g>
</g>
<!-- TABL&#45;BAPIALF&#45;&gt;DTEL&#45;BALMNR -->
<g id="edge2" class="edge">
<title>TABL&#45;BAPIALF&#45;&gt;DTEL&#45;BALMNR</title>
<path fill="none" stroke="black" d="M116.35,-143.7C107.79,-135.14 97.31,-124.66 87.96,-115.3"/>
<polygon fill="black" stroke="black" points="90.3,-112.7 80.76,-108.1 85.35,-117.65 90.3,-112.7"/>
</g>
<!-- DTEL&#45;BALOGNR -->
<g id="node4" class="node">
<title>DTEL&#45;BALOGNR</title>
<g id="a_node4"><a xlink:href="./DTEL_BALOGNR.html" xlink:title="DTEL&#45;BALOGNR">
<polygon fill="none" stroke="green" points="266.73,-108 142.58,-108 142.58,-72 266.73,-72 266.73,-108"/>
<text text-anchor="middle" x="204.65" y="-85.8" font-family="Times,serif" font-size="14.00">DTEL&#45;BALOGNR</text>
</a>
</g>
</g>
<!-- TABL&#45;BAPIALF&#45;&gt;DTEL&#45;BALOGNR -->
<g id="edge1" class="edge">
<title>TABL&#45;BAPIALF&#45;&gt;DTEL&#45;BALOGNR</title>
<path fill="none" stroke="black" d="M151.2,-143.7C159.89,-135.14 170.52,-124.66 180,-115.3"/>
<polygon fill="black" stroke="black" points="182.64,-117.62 187.31,-108.1 177.73,-112.63 182.64,-117.62"/>
</g>
<!-- DOMA&#45;BALMNR -->
<g id="node3" class="node">
<title>DOMA&#45;BALMNR</title>
<g id="a_node3"><a xlink:href="./DOMA_BALMNR.html" xlink:title="DOMA&#45;BALMNR">
<polygon fill="none" stroke="yellow" points="123.46,-36 -0.15,-36 -0.15,0 123.46,0 123.46,-36"/>
<text text-anchor="middle" x="61.65" y="-13.8" font-family="Times,serif" font-size="14.00">DOMA&#45;BALMNR</text>
</a>
</g>
</g>
<!-- DTEL&#45;BALMNR&#45;&gt;DOMA&#45;BALMNR -->
<g id="edge3" class="edge">
<title>DTEL&#45;BALMNR&#45;&gt;DOMA&#45;BALMNR</title>
<path fill="none" stroke="black" d="M63.16,-71.7C62.94,-63.98 62.67,-54.71 62.43,-46.11"/>
<polygon fill="black" stroke="black" points="65.93,-46 62.14,-36.1 58.93,-46.2 65.93,-46"/>
</g>
<!-- DOMA&#45;BALOGNR -->
<g id="node5" class="node">
<title>DOMA&#45;BALOGNR</title>
<g id="a_node5"><a xlink:href="./DOMA_BALOGNR.html" xlink:title="DOMA&#45;BALOGNR">
<polygon fill="none" stroke="yellow" points="272.23,-36 141.08,-36 141.08,0 272.23,0 272.23,-36"/>
<text text-anchor="middle" x="206.65" y="-13.8" font-family="Times,serif" font-size="14.00">DOMA&#45;BALOGNR</text>
</a>
</g>
</g>
<!-- DTEL&#45;BALOGNR&#45;&gt;DOMA&#45;BALOGNR -->
<g id="edge4" class="edge">
<title>DTEL&#45;BALOGNR&#45;&gt;DOMA&#45;BALOGNR</title>
<path fill="none" stroke="black" d="M205.15,-71.7C205.37,-63.98 205.63,-54.71 205.88,-46.11"/>
<polygon fill="black" stroke="black" points="209.38,-46.2 206.17,-36.1 202.38,-46 209.38,-46.2"/>
</g>
</g>
</svg>
