<?xml version="1.0" encoding="UTF-8" standalone="no"?>
<!DOCTYPE svg PUBLIC "-//W3C//DTD SVG 1.1//EN"
 "http://www.w3.org/Graphics/SVG/1.1/DTD/svg11.dtd">
<!-- Generated by graphviz version 2.47.3 (20210619.1520)
 -->
<!-- Title: G Pages: 1 -->
<svg width="3027pt" height="476pt"
 viewBox="0.00 0.00 3026.74 476.00" xmlns="http://www.w3.org/2000/svg" xmlns:xlink="http://www.w3.org/1999/xlink">
<g id="graph0" class="graph" transform="scale(1 1) rotate(0) translate(4 472)">
<title>G</title>
<polygon fill="white" stroke="transparent" points="-4,4 -4,-472 3022.74,-472 3022.74,4 -4,4"/>
<!-- TABL&#45;APS_COM_CA_S_INB_SRV_API -->
<g id="node1" class="node">
<title>TABL&#45;APS_COM_CA_S_INB_SRV_API</title>
<polygon fill="none" stroke="yellow" points="1983.14,-468 1725.39,-468 1725.39,-432 1983.14,-432 1983.14,-468"/>
<text text-anchor="middle" x="1854.26" y="-445.8" font-family="Times,serif" font-size="14.00">TABL&#45;APS_COM_CA_S_INB_SRV_API</text>
</g>
<!-- TTYP&#45;ITAPS_COM_CA_INB_SRV_APIKEY_TP -->
<g id="node2" class="node">
<title>TTYP&#45;ITAPS_COM_CA_INB_SRV_APIKEY_TP</title>
<g id="a_node2"><a xlink:href="./TTYP_ITAPS_COM_CA_INB_SRV_APIKEY_TP.html" xlink:title="TTYP&#45;ITAPS_COM_CA_INB_SRV_APIKEY_TP">
<polygon fill="none" stroke="yellow" points="1917.62,-396 1610.91,-396 1610.91,-360 1917.62,-360 1917.62,-396"/>
<text text-anchor="middle" x="1764.26" y="-373.8" font-family="Times,serif" font-size="14.00">TTYP&#45;ITAPS_COM_CA_INB_SRV_APIKEY_TP</text>
</a>
</g>
</g>
<!-- TABL&#45;APS_COM_CA_S_INB_SRV_API&#45;&gt;TTYP&#45;ITAPS_COM_CA_INB_SRV_APIKEY_TP -->
<g id="edge2" class="edge">
<title>TABL&#45;APS_COM_CA_S_INB_SRV_API&#45;&gt;TTYP&#45;ITAPS_COM_CA_INB_SRV_APIKEY_TP</title>
<path fill="none" stroke="black" d="M1832.02,-431.7C1820.68,-422.88 1806.73,-412.03 1794.45,-402.47"/>
<polygon fill="black" stroke="black" points="1796.3,-399.48 1786.26,-396.1 1792,-405.01 1796.3,-399.48"/>
</g>
<!-- TABL&#45;ISAPS_COM_CA_INB_SRV_TP -->
<g id="node30" class="node">
<title>TABL&#45;ISAPS_COM_CA_INB_SRV_TP</title>
<g id="a_node30"><a xlink:href="./TABL_ISAPS_COM_CA_INB_SRV_TP.html" xlink:title="TABL&#45;ISAPS_COM_CA_INB_SRV_TP">
<polygon fill="none" stroke="yellow" points="2128.08,-324 1878.44,-324 1878.44,-288 2128.08,-288 2128.08,-324"/>
<text text-anchor="middle" x="2003.26" y="-301.8" font-family="Times,serif" font-size="14.00">TABL&#45;ISAPS_COM_CA_INB_SRV_TP</text>
</a>
</g>
</g>
<!-- TABL&#45;APS_COM_CA_S_INB_SRV_API&#45;&gt;TABL&#45;ISAPS_COM_CA_INB_SRV_TP -->
<g id="edge1" class="edge">
<title>TABL&#45;APS_COM_CA_S_INB_SRV_API&#45;&gt;TABL&#45;ISAPS_COM_CA_INB_SRV_TP</title>
<path fill="none" stroke="black" d="M1880.34,-431.91C1894.52,-422.11 1912.02,-409.17 1926.26,-396 1947.73,-376.16 1969.26,-350.69 1984.07,-332.09"/>
<polygon fill="black" stroke="black" points="1986.95,-334.09 1990.38,-324.07 1981.44,-329.76 1986.95,-334.09"/>
</g>
<!-- TABL&#45;ISAPS_COM_CA_INB_SRV_APIKEY_TP -->
<g id="node3" class="node">
<title>TABL&#45;ISAPS_COM_CA_INB_SRV_APIKEY_TP</title>
<g id="a_node3"><a xlink:href="./TABL_ISAPS_COM_CA_INB_SRV_APIKEY_TP.html" xlink:title="TABL&#45;ISAPS_COM_CA_INB_SRV_APIKEY_TP">
<polygon fill="none" stroke="yellow" points="1860.9,-324 1553.63,-324 1553.63,-288 1860.9,-288 1860.9,-324"/>
<text text-anchor="middle" x="1707.26" y="-301.8" font-family="Times,serif" font-size="14.00">TABL&#45;ISAPS_COM_CA_INB_SRV_APIKEY_TP</text>
</a>
</g>
</g>
<!-- TTYP&#45;ITAPS_COM_CA_INB_SRV_APIKEY_TP&#45;&gt;TABL&#45;ISAPS_COM_CA_INB_SRV_APIKEY_TP -->
<g id="edge3" class="edge">
<title>TTYP&#45;ITAPS_COM_CA_INB_SRV_APIKEY_TP&#45;&gt;TABL&#45;ISAPS_COM_CA_INB_SRV_APIKEY_TP</title>
<path fill="none" stroke="black" d="M1750.17,-359.7C1743.34,-351.3 1735.01,-341.07 1727.51,-331.86"/>
<polygon fill="black" stroke="black" points="1730.22,-329.65 1721.19,-324.1 1724.79,-334.07 1730.22,-329.65"/>
</g>
<!-- TABL&#45;ISAPS_COM_CA_INB_SRV_APIKEY0_D -->
<g id="node4" class="node">
<title>TABL&#45;ISAPS_COM_CA_INB_SRV_APIKEY0_D</title>
<g id="a_node4"><a xlink:href="./TABL_ISAPS_COM_CA_INB_SRV_APIKEY0_D.html" xlink:title="TABL&#45;ISAPS_COM_CA_INB_SRV_APIKEY0_D">
<polygon fill="none" stroke="yellow" points="1628.67,-252 1319.86,-252 1319.86,-216 1628.67,-216 1628.67,-252"/>
<text text-anchor="middle" x="1474.26" y="-229.8" font-family="Times,serif" font-size="14.00">TABL&#45;ISAPS_COM_CA_INB_SRV_APIKEY0_D</text>
</a>
</g>
</g>
<!-- TABL&#45;ISAPS_COM_CA_INB_SRV_APIKEY_TP&#45;&gt;TABL&#45;ISAPS_COM_CA_INB_SRV_APIKEY0_D -->
<g id="edge5" class="edge">
<title>TABL&#45;ISAPS_COM_CA_INB_SRV_APIKEY_TP&#45;&gt;TABL&#45;ISAPS_COM_CA_INB_SRV_APIKEY0_D</title>
<path fill="none" stroke="black" d="M1650.56,-287.97C1617.58,-278.06 1575.83,-265.51 1541.24,-255.12"/>
<polygon fill="black" stroke="black" points="1541.8,-251.64 1531.22,-252.11 1539.79,-258.34 1541.8,-251.64"/>
</g>
<!-- TABL&#45;/BOBF/S_FRW_KEY_INCL -->
<g id="node28" class="node">
<title>TABL&#45;/BOBF/S_FRW_KEY_INCL</title>
<g id="a_node28"><a xlink:href="./TABL_%23BOBF%23S_FRW_KEY_INCL.html" xlink:title="TABL&#45;/BOBF/S_FRW_KEY_INCL">
<polygon fill="none" stroke="yellow" points="2245.36,-252 2023.17,-252 2023.17,-216 2245.36,-216 2245.36,-252"/>
<text text-anchor="middle" x="2134.26" y="-229.8" font-family="Times,serif" font-size="14.00">TABL&#45;/BOBF/S_FRW_KEY_INCL</text>
</a>
</g>
</g>
<!-- TABL&#45;ISAPS_COM_CA_INB_SRV_APIKEY_TP&#45;&gt;TABL&#45;/BOBF/S_FRW_KEY_INCL -->
<g id="edge4" class="edge">
<title>TABL&#45;ISAPS_COM_CA_INB_SRV_APIKEY_TP&#45;&gt;TABL&#45;/BOBF/S_FRW_KEY_INCL</title>
<path fill="none" stroke="black" d="M1811.17,-287.97C1874.46,-277.59 1955.36,-264.33 2020.38,-253.67"/>
<polygon fill="black" stroke="black" points="2020.96,-257.12 2030.26,-252.05 2019.82,-250.21 2020.96,-257.12"/>
</g>
<!-- DTEL&#45;SDRAFT_IS_ACTIVE -->
<g id="node5" class="node">
<title>DTEL&#45;SDRAFT_IS_ACTIVE</title>
<g id="a_node5"><a xlink:href="./DTEL_SDRAFT_IS_ACTIVE.html" xlink:title="DTEL&#45;SDRAFT_IS_ACTIVE">
<polygon fill="none" stroke="yellow" points="1400.12,-180 1212.41,-180 1212.41,-144 1400.12,-144 1400.12,-180"/>
<text text-anchor="middle" x="1306.26" y="-157.8" font-family="Times,serif" font-size="14.00">DTEL&#45;SDRAFT_IS_ACTIVE</text>
</a>
</g>
</g>
<!-- TABL&#45;ISAPS_COM_CA_INB_SRV_APIKEY0_D&#45;&gt;DTEL&#45;SDRAFT_IS_ACTIVE -->
<g id="edge14" class="edge">
<title>TABL&#45;ISAPS_COM_CA_INB_SRV_APIKEY0_D&#45;&gt;DTEL&#45;SDRAFT_IS_ACTIVE</title>
<path fill="none" stroke="black" d="M1433.17,-215.88C1410.1,-206.26 1381.13,-194.19 1356.69,-184.01"/>
<polygon fill="black" stroke="black" points="1357.81,-180.68 1347.23,-180.07 1355.11,-187.15 1357.81,-180.68"/>
</g>
<!-- TABL&#45;SDRAFT_WRITE_DRAFT_ADMIN -->
<g id="node7" class="node">
<title>TABL&#45;SDRAFT_WRITE_DRAFT_ADMIN</title>
<g id="a_node7"><a xlink:href="./TABL_SDRAFT_WRITE_DRAFT_ADMIN.html" xlink:title="TABL&#45;SDRAFT_WRITE_DRAFT_ADMIN">
<polygon fill="none" stroke="yellow" points="1193.77,-180 924.76,-180 924.76,-144 1193.77,-144 1193.77,-180"/>
<text text-anchor="middle" x="1059.26" y="-157.8" font-family="Times,serif" font-size="14.00">TABL&#45;SDRAFT_WRITE_DRAFT_ADMIN</text>
</a>
</g>
</g>
<!-- TABL&#45;ISAPS_COM_CA_INB_SRV_APIKEY0_D&#45;&gt;TABL&#45;SDRAFT_WRITE_DRAFT_ADMIN -->
<g id="edge13" class="edge">
<title>TABL&#45;ISAPS_COM_CA_INB_SRV_APIKEY0_D&#45;&gt;TABL&#45;SDRAFT_WRITE_DRAFT_ADMIN</title>
<path fill="none" stroke="black" d="M1373.27,-215.97C1311.9,-205.61 1233.47,-192.38 1170.34,-181.74"/>
<polygon fill="black" stroke="black" points="1170.79,-178.26 1160.35,-180.05 1169.63,-185.16 1170.79,-178.26"/>
</g>
<!-- DTEL&#45;SDRAFT_HAS_ACTIVE -->
<g id="node17" class="node">
<title>DTEL&#45;SDRAFT_HAS_ACTIVE</title>
<g id="a_node17"><a xlink:href="./DTEL_SDRAFT_HAS_ACTIVE.html" xlink:title="DTEL&#45;SDRAFT_HAS_ACTIVE">
<polygon fill="none" stroke="yellow" points="1900.17,-180 1696.36,-180 1696.36,-144 1900.17,-144 1900.17,-180"/>
<text text-anchor="middle" x="1798.26" y="-157.8" font-family="Times,serif" font-size="14.00">DTEL&#45;SDRAFT_HAS_ACTIVE</text>
</a>
</g>
</g>
<!-- TABL&#45;ISAPS_COM_CA_INB_SRV_APIKEY0_D&#45;&gt;DTEL&#45;SDRAFT_HAS_ACTIVE -->
<g id="edge12" class="edge">
<title>TABL&#45;ISAPS_COM_CA_INB_SRV_APIKEY0_D&#45;&gt;DTEL&#45;SDRAFT_HAS_ACTIVE</title>
<path fill="none" stroke="black" d="M1553.11,-215.97C1600.34,-205.76 1660.5,-192.76 1709.41,-182.2"/>
<polygon fill="black" stroke="black" points="1710.31,-185.58 1719.35,-180.05 1708.83,-178.74 1710.31,-185.58"/>
</g>
<!-- DTEL&#45;/BOBF/UUID -->
<g id="node18" class="node">
<title>DTEL&#45;/BOBF/UUID</title>
<g id="a_node18"><a xlink:href="./DTEL_%23BOBF%23UUID.html" xlink:title="DTEL&#45;/BOBF/UUID">
<polygon fill="none" stroke="yellow" points="2303.01,-180 2167.52,-180 2167.52,-144 2303.01,-144 2303.01,-180"/>
<text text-anchor="middle" x="2235.26" y="-157.8" font-family="Times,serif" font-size="14.00">DTEL&#45;/BOBF/UUID</text>
</a>
</g>
</g>
<!-- TABL&#45;ISAPS_COM_CA_INB_SRV_APIKEY0_D&#45;&gt;DTEL&#45;/BOBF/UUID -->
<g id="edge11" class="edge">
<title>TABL&#45;ISAPS_COM_CA_INB_SRV_APIKEY0_D&#45;&gt;DTEL&#45;/BOBF/UUID</title>
<path fill="none" stroke="black" d="M1628.48,-222.2C1805.43,-209.63 2080.16,-189.54 2157.41,-179.88"/>
<polygon fill="black" stroke="black" points="2157.9,-183.35 2167.34,-178.54 2156.96,-176.41 2157.9,-183.35"/>
</g>
<!-- DTEL&#45;APS_COM_CSCN_NUMBER -->
<g id="node19" class="node">
<title>DTEL&#45;APS_COM_CSCN_NUMBER</title>
<g id="a_node19"><a xlink:href="./DTEL_APS_COM_CSCN_NUMBER.html" xlink:title="DTEL&#45;APS_COM_CSCN_NUMBER">
<polygon fill="none" stroke="yellow" points="2149.2,-180 1917.33,-180 1917.33,-144 2149.2,-144 2149.2,-180"/>
<text text-anchor="middle" x="2033.26" y="-157.8" font-family="Times,serif" font-size="14.00">DTEL&#45;APS_COM_CSCN_NUMBER</text>
</a>
</g>
</g>
<!-- TABL&#45;ISAPS_COM_CA_INB_SRV_APIKEY0_D&#45;&gt;DTEL&#45;APS_COM_CSCN_NUMBER -->
<g id="edge10" class="edge">
<title>TABL&#45;ISAPS_COM_CA_INB_SRV_APIKEY0_D&#45;&gt;DTEL&#45;APS_COM_CSCN_NUMBER</title>
<path fill="none" stroke="black" d="M1618.34,-216C1700.36,-206.18 1805.3,-193.41 1907.26,-180.25"/>
<polygon fill="black" stroke="black" points="1907.96,-183.69 1917.43,-178.94 1907.07,-176.75 1907.96,-183.69"/>
</g>
<!-- DTEL&#45;APS_COM_CSCN_ID -->
<g id="node20" class="node">
<title>DTEL&#45;APS_COM_CSCN_ID</title>
<g id="a_node20"><a xlink:href="./DTEL_APS_COM_CSCN_ID.html" xlink:title="DTEL&#45;APS_COM_CSCN_ID">
<polygon fill="none" stroke="yellow" points="906.58,-180 719.95,-180 719.95,-144 906.58,-144 906.58,-180"/>
<text text-anchor="middle" x="813.26" y="-157.8" font-family="Times,serif" font-size="14.00">DTEL&#45;APS_COM_CSCN_ID</text>
</a>
</g>
</g>
<!-- TABL&#45;ISAPS_COM_CA_INB_SRV_APIKEY0_D&#45;&gt;DTEL&#45;APS_COM_CSCN_ID -->
<g id="edge9" class="edge">
<title>TABL&#45;ISAPS_COM_CA_INB_SRV_APIKEY0_D&#45;&gt;DTEL&#45;APS_COM_CSCN_ID</title>
<path fill="none" stroke="black" d="M1320.01,-221.32C1210.21,-212.31 1058.96,-198.48 916.83,-180.16"/>
<polygon fill="black" stroke="black" points="916.98,-176.65 906.61,-178.83 916.07,-183.59 916.98,-176.65"/>
</g>
<!-- DTEL&#45;APS_CA_API_KEY_REFERENCE -->
<g id="node22" class="node">
<title>DTEL&#45;APS_CA_API_KEY_REFERENCE</title>
<g id="a_node22"><a xlink:href="./DTEL_APS_CA_API_KEY_REFERENCE.html" xlink:title="DTEL&#45;APS_CA_API_KEY_REFERENCE">
<polygon fill="none" stroke="yellow" points="1678.73,-180 1417.8,-180 1417.8,-144 1678.73,-144 1678.73,-180"/>
<text text-anchor="middle" x="1548.26" y="-157.8" font-family="Times,serif" font-size="14.00">DTEL&#45;APS_CA_API_KEY_REFERENCE</text>
</a>
</g>
</g>
<!-- TABL&#45;ISAPS_COM_CA_INB_SRV_APIKEY0_D&#45;&gt;DTEL&#45;APS_CA_API_KEY_REFERENCE -->
<g id="edge8" class="edge">
<title>TABL&#45;ISAPS_COM_CA_INB_SRV_APIKEY0_D&#45;&gt;DTEL&#45;APS_CA_API_KEY_REFERENCE</title>
<path fill="none" stroke="black" d="M1492.56,-215.7C1501.7,-207.05 1512.9,-196.45 1522.86,-187.03"/>
<polygon fill="black" stroke="black" points="1525.32,-189.52 1530.18,-180.1 1520.51,-184.43 1525.32,-189.52"/>
</g>
<!-- DTEL&#45;APS_COM_CSCN_PROPERTY_VALUE -->
<g id="node24" class="node">
<title>DTEL&#45;APS_COM_CSCN_PROPERTY_VALUE</title>
<g id="a_node24"><a xlink:href="./DTEL_APS_COM_CSCN_PROPERTY_VALUE.html" xlink:title="DTEL&#45;APS_COM_CSCN_PROPERTY_VALUE">
<polygon fill="none" stroke="yellow" points="330.79,-180 33.74,-180 33.74,-144 330.79,-144 330.79,-180"/>
<text text-anchor="middle" x="182.26" y="-157.8" font-family="Times,serif" font-size="14.00">DTEL&#45;APS_COM_CSCN_PROPERTY_VALUE</text>
</a>
</g>
</g>
<!-- TABL&#45;ISAPS_COM_CA_INB_SRV_APIKEY0_D&#45;&gt;DTEL&#45;APS_COM_CSCN_PROPERTY_VALUE -->
<g id="edge7" class="edge">
<title>TABL&#45;ISAPS_COM_CA_INB_SRV_APIKEY0_D&#45;&gt;DTEL&#45;APS_COM_CSCN_PROPERTY_VALUE</title>
<path fill="none" stroke="black" d="M1319.75,-226.79C1110.86,-218.07 726.77,-200.9 399.26,-180 380.48,-178.8 360.79,-177.43 341.25,-175.99"/>
<polygon fill="black" stroke="black" points="341.29,-172.48 331.06,-175.23 340.77,-179.46 341.29,-172.48"/>
</g>
<!-- DTEL&#45;APS_COM_CSCN_PROPERTY_ID -->
<g id="node26" class="node">
<title>DTEL&#45;APS_COM_CSCN_PROPERTY_ID</title>
<g id="a_node26"><a xlink:href="./DTEL_APS_COM_CSCN_PROPERTY_ID.html" xlink:title="DTEL&#45;APS_COM_CSCN_PROPERTY_ID">
<polygon fill="none" stroke="yellow" points="672.64,-180 407.89,-180 407.89,-144 672.64,-144 672.64,-180"/>
<text text-anchor="middle" x="540.26" y="-157.8" font-family="Times,serif" font-size="14.00">DTEL&#45;APS_COM_CSCN_PROPERTY_ID</text>
</a>
</g>
</g>
<!-- TABL&#45;ISAPS_COM_CA_INB_SRV_APIKEY0_D&#45;&gt;DTEL&#45;APS_COM_CSCN_PROPERTY_ID -->
<g id="edge6" class="edge">
<title>TABL&#45;ISAPS_COM_CA_INB_SRV_APIKEY0_D&#45;&gt;DTEL&#45;APS_COM_CSCN_PROPERTY_ID</title>
<path fill="none" stroke="black" d="M1319.99,-223.63C1165.79,-213.95 921.97,-197.79 711.26,-180 702,-179.22 692.45,-178.37 682.83,-177.5"/>
<polygon fill="black" stroke="black" points="683.07,-174 672.79,-176.57 682.43,-180.97 683.07,-174"/>
</g>
<!-- DOMA&#45;BOOLE -->
<g id="node6" class="node">
<title>DOMA&#45;BOOLE</title>
<g id="a_node6"><a xlink:href="./DOMA_BOOLE.html" xlink:title="DOMA&#45;BOOLE">
<polygon fill="none" stroke="yellow" points="2044.34,-108 1934.18,-108 1934.18,-72 2044.34,-72 2044.34,-108"/>
<text text-anchor="middle" x="1989.26" y="-85.8" font-family="Times,serif" font-size="14.00">DOMA&#45;BOOLE</text>
</a>
</g>
</g>
<!-- DTEL&#45;SDRAFT_IS_ACTIVE&#45;&gt;DOMA&#45;BOOLE -->
<g id="edge15" class="edge">
<title>DTEL&#45;SDRAFT_IS_ACTIVE&#45;&gt;DOMA&#45;BOOLE</title>
<path fill="none" stroke="black" d="M1400.24,-145.12C1403.28,-144.72 1406.29,-144.35 1409.26,-144 1634.36,-117.63 1696.72,-144.88 1924.01,-108.02"/>
<polygon fill="black" stroke="black" points="1924.6,-111.47 1933.9,-106.39 1923.47,-104.56 1924.6,-111.47"/>
</g>
<!-- DTEL&#45;SDRAFT_OPERATION_CODE -->
<g id="node8" class="node">
<title>DTEL&#45;SDRAFT_OPERATION_CODE</title>
<g id="a_node8"><a xlink:href="./DTEL_SDRAFT_OPERATION_CODE.html" xlink:title="DTEL&#45;SDRAFT_OPERATION_CODE">
<polygon fill="none" stroke="yellow" points="904.77,-108 663.76,-108 663.76,-72 904.77,-72 904.77,-108"/>
<text text-anchor="middle" x="784.26" y="-85.8" font-family="Times,serif" font-size="14.00">DTEL&#45;SDRAFT_OPERATION_CODE</text>
</a>
</g>
</g>
<!-- TABL&#45;SDRAFT_WRITE_DRAFT_ADMIN&#45;&gt;DTEL&#45;SDRAFT_OPERATION_CODE -->
<g id="edge20" class="edge">
<title>TABL&#45;SDRAFT_WRITE_DRAFT_ADMIN&#45;&gt;DTEL&#45;SDRAFT_OPERATION_CODE</title>
<path fill="none" stroke="black" d="M992.34,-143.97C952.75,-133.89 902.45,-121.08 861.22,-110.59"/>
<polygon fill="black" stroke="black" points="862.04,-107.19 851.49,-108.11 860.31,-113.97 862.04,-107.19"/>
</g>
<!-- DTEL&#45;SDRAFT_CONSISTENCY_STATUS -->
<g id="node10" class="node">
<title>DTEL&#45;SDRAFT_CONSISTENCY_STATUS</title>
<g id="a_node10"><a xlink:href="./DTEL_SDRAFT_CONSISTENCY_STATUS.html" xlink:title="DTEL&#45;SDRAFT_CONSISTENCY_STATUS">
<polygon fill="none" stroke="yellow" points="1196.17,-108 922.36,-108 922.36,-72 1196.17,-72 1196.17,-108"/>
<text text-anchor="middle" x="1059.26" y="-85.8" font-family="Times,serif" font-size="14.00">DTEL&#45;SDRAFT_CONSISTENCY_STATUS</text>
</a>
</g>
</g>
<!-- TABL&#45;SDRAFT_WRITE_DRAFT_ADMIN&#45;&gt;DTEL&#45;SDRAFT_CONSISTENCY_STATUS -->
<g id="edge19" class="edge">
<title>TABL&#45;SDRAFT_WRITE_DRAFT_ADMIN&#45;&gt;DTEL&#45;SDRAFT_CONSISTENCY_STATUS</title>
<path fill="none" stroke="black" d="M1059.26,-143.7C1059.26,-135.98 1059.26,-126.71 1059.26,-118.11"/>
<polygon fill="black" stroke="black" points="1062.76,-118.1 1059.26,-108.1 1055.76,-118.1 1062.76,-118.1"/>
</g>
<!-- DTEL&#45;SDRAFT_ADMIN_UUID -->
<g id="node12" class="node">
<title>DTEL&#45;SDRAFT_ADMIN_UUID</title>
<g id="a_node12"><a xlink:href="./DTEL_SDRAFT_ADMIN_UUID.html" xlink:title="DTEL&#45;SDRAFT_ADMIN_UUID">
<polygon fill="none" stroke="yellow" points="1916.76,-108 1709.77,-108 1709.77,-72 1916.76,-72 1916.76,-108"/>
<text text-anchor="middle" x="1813.26" y="-85.8" font-family="Times,serif" font-size="14.00">DTEL&#45;SDRAFT_ADMIN_UUID</text>
</a>
</g>
</g>
<!-- TABL&#45;SDRAFT_WRITE_DRAFT_ADMIN&#45;&gt;DTEL&#45;SDRAFT_ADMIN_UUID -->
<g id="edge18" class="edge">
<title>TABL&#45;SDRAFT_WRITE_DRAFT_ADMIN&#45;&gt;DTEL&#45;SDRAFT_ADMIN_UUID</title>
<path fill="none" stroke="black" d="M1194.15,-144.89C1197.22,-144.58 1200.26,-144.29 1203.26,-144 1420.94,-123.29 1479.04,-132.39 1699.91,-108.1"/>
<polygon fill="black" stroke="black" points="1700.32,-111.58 1709.87,-107 1699.54,-104.62 1700.32,-111.58"/>
</g>
<!-- DTEL&#45;SDRAFT_LAST_CHANGED_AT -->
<g id="node14" class="node">
<title>DTEL&#45;SDRAFT_LAST_CHANGED_AT</title>
<g id="a_node14"><a xlink:href="./DTEL_SDRAFT_LAST_CHANGED_AT.html" xlink:title="DTEL&#45;SDRAFT_LAST_CHANGED_AT">
<polygon fill="none" stroke="yellow" points="1466.93,-108 1213.6,-108 1213.6,-72 1466.93,-72 1466.93,-108"/>
<text text-anchor="middle" x="1340.26" y="-85.8" font-family="Times,serif" font-size="14.00">DTEL&#45;SDRAFT_LAST_CHANGED_AT</text>
</a>
</g>
</g>
<!-- TABL&#45;SDRAFT_WRITE_DRAFT_ADMIN&#45;&gt;DTEL&#45;SDRAFT_LAST_CHANGED_AT -->
<g id="edge17" class="edge">
<title>TABL&#45;SDRAFT_WRITE_DRAFT_ADMIN&#45;&gt;DTEL&#45;SDRAFT_LAST_CHANGED_AT</title>
<path fill="none" stroke="black" d="M1127.65,-143.97C1168.1,-133.89 1219.5,-121.08 1261.63,-110.59"/>
<polygon fill="black" stroke="black" points="1262.72,-113.92 1271.58,-108.11 1261.03,-107.13 1262.72,-113.92"/>
</g>
<!-- DTEL&#45;SDRAFT_CREATED_AT -->
<g id="node16" class="node">
<title>DTEL&#45;SDRAFT_CREATED_AT</title>
<g id="a_node16"><a xlink:href="./DTEL_SDRAFT_CREATED_AT.html" xlink:title="DTEL&#45;SDRAFT_CREATED_AT">
<polygon fill="none" stroke="yellow" points="1692.06,-108 1484.47,-108 1484.47,-72 1692.06,-72 1692.06,-108"/>
<text text-anchor="middle" x="1588.26" y="-85.8" font-family="Times,serif" font-size="14.00">DTEL&#45;SDRAFT_CREATED_AT</text>
</a>
</g>
</g>
<!-- TABL&#45;SDRAFT_WRITE_DRAFT_ADMIN&#45;&gt;DTEL&#45;SDRAFT_CREATED_AT -->
<g id="edge16" class="edge">
<title>TABL&#45;SDRAFT_WRITE_DRAFT_ADMIN&#45;&gt;DTEL&#45;SDRAFT_CREATED_AT</title>
<path fill="none" stroke="black" d="M1194.12,-144.7C1273.2,-134.94 1375.3,-121.99 1474.63,-108.21"/>
<polygon fill="black" stroke="black" points="1475.12,-111.68 1484.54,-106.83 1474.16,-104.75 1475.12,-111.68"/>
</g>
<!-- DOMA&#45;SDRAFT_OPERATION_CODE -->
<g id="node9" class="node">
<title>DOMA&#45;SDRAFT_OPERATION_CODE</title>
<g id="a_node9"><a xlink:href="./DOMA_SDRAFT_OPERATION_CODE.html" xlink:title="DOMA&#45;SDRAFT_OPERATION_CODE">
<polygon fill="none" stroke="yellow" points="904.27,-36 656.26,-36 656.26,0 904.27,0 904.27,-36"/>
<text text-anchor="middle" x="780.26" y="-13.8" font-family="Times,serif" font-size="14.00">DOMA&#45;SDRAFT_OPERATION_CODE</text>
</a>
</g>
</g>
<!-- DTEL&#45;SDRAFT_OPERATION_CODE&#45;&gt;DOMA&#45;SDRAFT_OPERATION_CODE -->
<g id="edge21" class="edge">
<title>DTEL&#45;SDRAFT_OPERATION_CODE&#45;&gt;DOMA&#45;SDRAFT_OPERATION_CODE</title>
<path fill="none" stroke="black" d="M783.28,-71.7C782.83,-63.98 782.31,-54.71 781.81,-46.11"/>
<polygon fill="black" stroke="black" points="785.31,-45.89 781.24,-36.1 778.32,-46.29 785.31,-45.89"/>
</g>
<!-- DOMA&#45;SDRAFT_CONSISTENCY_STATUS -->
<g id="node11" class="node">
<title>DOMA&#45;SDRAFT_CONSISTENCY_STATUS</title>
<g id="a_node11"><a xlink:href="./DOMA_SDRAFT_CONSISTENCY_STATUS.html" xlink:title="DOMA&#45;SDRAFT_CONSISTENCY_STATUS">
<polygon fill="none" stroke="yellow" points="1202.67,-36 921.86,-36 921.86,0 1202.67,0 1202.67,-36"/>
<text text-anchor="middle" x="1062.26" y="-13.8" font-family="Times,serif" font-size="14.00">DOMA&#45;SDRAFT_CONSISTENCY_STATUS</text>
</a>
</g>
</g>
<!-- DTEL&#45;SDRAFT_CONSISTENCY_STATUS&#45;&gt;DOMA&#45;SDRAFT_CONSISTENCY_STATUS -->
<g id="edge22" class="edge">
<title>DTEL&#45;SDRAFT_CONSISTENCY_STATUS&#45;&gt;DOMA&#45;SDRAFT_CONSISTENCY_STATUS</title>
<path fill="none" stroke="black" d="M1060.01,-71.7C1060.34,-63.98 1060.73,-54.71 1061.1,-46.11"/>
<polygon fill="black" stroke="black" points="1064.6,-46.25 1061.53,-36.1 1057.61,-45.95 1064.6,-46.25"/>
</g>
<!-- DOMA&#45;SYSUUID -->
<g id="node13" class="node">
<title>DOMA&#45;SYSUUID</title>
<g id="a_node13"><a xlink:href="./DOMA_SYSUUID.html" xlink:title="DOMA&#45;SYSUUID">
<polygon fill="none" stroke="yellow" points="2045.34,-36 1921.19,-36 1921.19,0 2045.34,0 2045.34,-36"/>
<text text-anchor="middle" x="1983.26" y="-13.8" font-family="Times,serif" font-size="14.00">DOMA&#45;SYSUUID</text>
</a>
</g>
</g>
<!-- DTEL&#45;SDRAFT_ADMIN_UUID&#45;&gt;DOMA&#45;SYSUUID -->
<g id="edge23" class="edge">
<title>DTEL&#45;SDRAFT_ADMIN_UUID&#45;&gt;DOMA&#45;SYSUUID</title>
<path fill="none" stroke="black" d="M1854.85,-71.88C1878.3,-62.22 1907.77,-50.09 1932.56,-39.88"/>
<polygon fill="black" stroke="black" points="1933.9,-43.11 1941.81,-36.07 1931.23,-36.64 1933.9,-43.11"/>
</g>
<!-- DOMA&#45;TZNTSTMPL -->
<g id="node15" class="node">
<title>DOMA&#45;TZNTSTMPL</title>
<g id="a_node15"><a xlink:href="./DOMA_TZNTSTMPL.html" xlink:title="DOMA&#45;TZNTSTMPL">
<polygon fill="none" stroke="yellow" points="1536.57,-36 1391.96,-36 1391.96,0 1536.57,0 1536.57,-36"/>
<text text-anchor="middle" x="1464.26" y="-13.8" font-family="Times,serif" font-size="14.00">DOMA&#45;TZNTSTMPL</text>
</a>
</g>
</g>
<!-- DTEL&#45;SDRAFT_LAST_CHANGED_AT&#45;&gt;DOMA&#45;TZNTSTMPL -->
<g id="edge24" class="edge">
<title>DTEL&#45;SDRAFT_LAST_CHANGED_AT&#45;&gt;DOMA&#45;TZNTSTMPL</title>
<path fill="none" stroke="black" d="M1370.6,-71.88C1386.96,-62.64 1407.35,-51.13 1424.92,-41.21"/>
<polygon fill="black" stroke="black" points="1426.83,-44.15 1433.81,-36.19 1423.39,-38.06 1426.83,-44.15"/>
</g>
<!-- DTEL&#45;SDRAFT_CREATED_AT&#45;&gt;DOMA&#45;TZNTSTMPL -->
<g id="edge25" class="edge">
<title>DTEL&#45;SDRAFT_CREATED_AT&#45;&gt;DOMA&#45;TZNTSTMPL</title>
<path fill="none" stroke="black" d="M1557.93,-71.88C1541.57,-62.64 1521.18,-51.13 1503.61,-41.21"/>
<polygon fill="black" stroke="black" points="1505.14,-38.06 1494.71,-36.19 1501.7,-44.15 1505.14,-38.06"/>
</g>
<!-- DTEL&#45;SDRAFT_HAS_ACTIVE&#45;&gt;DOMA&#45;BOOLE -->
<g id="edge26" class="edge">
<title>DTEL&#45;SDRAFT_HAS_ACTIVE&#45;&gt;DOMA&#45;BOOLE</title>
<path fill="none" stroke="black" d="M1844.99,-143.88C1871.56,-134.14 1905.03,-121.87 1933.03,-111.61"/>
<polygon fill="black" stroke="black" points="1934.51,-114.8 1942.69,-108.07 1932.1,-108.22 1934.51,-114.8"/>
</g>
<!-- DTEL&#45;/BOBF/UUID&#45;&gt;DOMA&#45;SYSUUID -->
<g id="edge27" class="edge">
<title>DTEL&#45;/BOBF/UUID&#45;&gt;DOMA&#45;SYSUUID</title>
<path fill="none" stroke="black" d="M2204.87,-143.87C2159.27,-118.18 2073.15,-69.65 2022.75,-41.25"/>
<polygon fill="black" stroke="black" points="2024.2,-38.05 2013.77,-36.19 2020.76,-44.15 2024.2,-38.05"/>
</g>
<!-- DOMA&#45;APS_COM_CSCN_ID -->
<g id="node21" class="node">
<title>DOMA&#45;APS_COM_CSCN_ID</title>
<g id="a_node21"><a xlink:href="./DOMA_APS_COM_CSCN_ID.html" xlink:title="DOMA&#45;APS_COM_CSCN_ID">
<polygon fill="none" stroke="yellow" points="646.08,-108 452.45,-108 452.45,-72 646.08,-72 646.08,-108"/>
<text text-anchor="middle" x="549.26" y="-85.8" font-family="Times,serif" font-size="14.00">DOMA&#45;APS_COM_CSCN_ID</text>
</a>
</g>
</g>
<!-- DTEL&#45;APS_COM_CSCN_ID&#45;&gt;DOMA&#45;APS_COM_CSCN_ID -->
<g id="edge28" class="edge">
<title>DTEL&#45;APS_COM_CSCN_ID&#45;&gt;DOMA&#45;APS_COM_CSCN_ID</title>
<path fill="none" stroke="black" d="M749.02,-143.97C711.17,-133.93 663.13,-121.19 623.64,-110.72"/>
<polygon fill="black" stroke="black" points="624.36,-107.29 613.8,-108.11 622.57,-114.06 624.36,-107.29"/>
</g>
<!-- DOMA&#45;/BOBF/CONF_KEY -->
<g id="node23" class="node">
<title>DOMA&#45;/BOBF/CONF_KEY</title>
<g id="a_node23"><a xlink:href="./DOMA_%23BOBF%23CONF_KEY.html" xlink:title="DOMA&#45;/BOBF/CONF_KEY">
<polygon fill="none" stroke="yellow" points="2533.63,-108 2352.9,-108 2352.9,-72 2533.63,-72 2533.63,-108"/>
<text text-anchor="middle" x="2443.26" y="-85.8" font-family="Times,serif" font-size="14.00">DOMA&#45;/BOBF/CONF_KEY</text>
</a>
</g>
</g>
<!-- DTEL&#45;APS_CA_API_KEY_REFERENCE&#45;&gt;DOMA&#45;/BOBF/CONF_KEY -->
<g id="edge29" class="edge">
<title>DTEL&#45;APS_CA_API_KEY_REFERENCE&#45;&gt;DOMA&#45;/BOBF/CONF_KEY</title>
<path fill="none" stroke="black" d="M1678.83,-144.83C1681.67,-144.55 1684.48,-144.27 1687.26,-144 1921.48,-121.48 2197.39,-104.56 2342.44,-96.41"/>
<polygon fill="black" stroke="black" points="2342.87,-99.89 2352.66,-95.83 2342.48,-92.9 2342.87,-99.89"/>
</g>
<!-- DOMA&#45;APS_COM_CSCN_PROPERTY_VALUE -->
<g id="node25" class="node">
<title>DOMA&#45;APS_COM_CSCN_PROPERTY_VALUE</title>
<g id="a_node25"><a xlink:href="./DOMA_APS_COM_CSCN_PROPERTY_VALUE.html" xlink:title="DOMA&#45;APS_COM_CSCN_PROPERTY_VALUE">
<polygon fill="none" stroke="yellow" points="304.29,-108 0.24,-108 0.24,-72 304.29,-72 304.29,-108"/>
<text text-anchor="middle" x="152.26" y="-85.8" font-family="Times,serif" font-size="14.00">DOMA&#45;APS_COM_CSCN_PROPERTY_VALUE</text>
</a>
</g>
</g>
<!-- DTEL&#45;APS_COM_CSCN_PROPERTY_VALUE&#45;&gt;DOMA&#45;APS_COM_CSCN_PROPERTY_VALUE -->
<g id="edge30" class="edge">
<title>DTEL&#45;APS_COM_CSCN_PROPERTY_VALUE&#45;&gt;DOMA&#45;APS_COM_CSCN_PROPERTY_VALUE</title>
<path fill="none" stroke="black" d="M174.85,-143.7C171.47,-135.81 167.39,-126.3 163.64,-117.55"/>
<polygon fill="black" stroke="black" points="166.75,-115.92 159.59,-108.1 160.32,-118.67 166.75,-115.92"/>
</g>
<!-- DOMA&#45;NUMC4 -->
<g id="node27" class="node">
<title>DOMA&#45;NUMC4</title>
<g id="a_node27"><a xlink:href="./DOMA_NUMC4.html" xlink:title="DOMA&#45;NUMC4">
<polygon fill="none" stroke="yellow" points="434.68,-108 321.84,-108 321.84,-72 434.68,-72 434.68,-108"/>
<text text-anchor="middle" x="378.26" y="-85.8" font-family="Times,serif" font-size="14.00">DOMA&#45;NUMC4</text>
</a>
</g>
</g>
<!-- DTEL&#45;APS_COM_CSCN_PROPERTY_ID&#45;&gt;DOMA&#45;NUMC4 -->
<g id="edge31" class="edge">
<title>DTEL&#45;APS_COM_CSCN_PROPERTY_ID&#45;&gt;DOMA&#45;NUMC4</title>
<path fill="none" stroke="black" d="M500.63,-143.88C478.49,-134.31 450.7,-122.3 427.21,-112.15"/>
<polygon fill="black" stroke="black" points="428.33,-108.82 417.77,-108.07 425.56,-115.25 428.33,-108.82"/>
</g>
<!-- DTEL&#45;/BOBF/CONF_KEY -->
<g id="node29" class="node">
<title>DTEL&#45;/BOBF/CONF_KEY</title>
<g id="a_node29"><a xlink:href="./DTEL_%23BOBF%23CONF_KEY.html" xlink:title="DTEL&#45;/BOBF/CONF_KEY">
<polygon fill="none" stroke="yellow" points="2757.13,-180 2583.4,-180 2583.4,-144 2757.13,-144 2757.13,-180"/>
<text text-anchor="middle" x="2670.26" y="-157.8" font-family="Times,serif" font-size="14.00">DTEL&#45;/BOBF/CONF_KEY</text>
</a>
</g>
</g>
<!-- TABL&#45;/BOBF/S_FRW_KEY_INCL&#45;&gt;DTEL&#45;/BOBF/CONF_KEY -->
<g id="edge32" class="edge">
<title>TABL&#45;/BOBF/S_FRW_KEY_INCL&#45;&gt;DTEL&#45;/BOBF/CONF_KEY</title>
<path fill="none" stroke="black" d="M2245.71,-221.3C2332.35,-211.8 2455.8,-197.39 2573.28,-180.1"/>
<polygon fill="black" stroke="black" points="2573.8,-183.57 2583.18,-178.64 2572.77,-176.64 2573.8,-183.57"/>
</g>
<!-- DTEL&#45;/BOBF/CONF_KEY&#45;&gt;DOMA&#45;/BOBF/CONF_KEY -->
<g id="edge33" class="edge">
<title>DTEL&#45;/BOBF/CONF_KEY&#45;&gt;DOMA&#45;/BOBF/CONF_KEY</title>
<path fill="none" stroke="black" d="M2615.02,-143.97C2582.89,-134.06 2542.22,-121.51 2508.51,-111.12"/>
<polygon fill="black" stroke="black" points="2509.34,-107.71 2498.75,-108.11 2507.28,-114.4 2509.34,-107.71"/>
</g>
<!-- TABL&#45;ISAPS_COM_CA_INB_SRV_TP&#45;&gt;TABL&#45;/BOBF/S_FRW_KEY_INCL -->
<g id="edge34" class="edge">
<title>TABL&#45;ISAPS_COM_CA_INB_SRV_TP&#45;&gt;TABL&#45;/BOBF/S_FRW_KEY_INCL</title>
<path fill="none" stroke="black" d="M2035.31,-287.88C2052.76,-278.55 2074.53,-266.92 2093.21,-256.94"/>
<polygon fill="black" stroke="black" points="2094.92,-259.99 2102.1,-252.19 2091.63,-253.82 2094.92,-259.99"/>
</g>
<!-- TABL&#45;ISAPS_COM_CA_INB_SRV_TP_D -->
<g id="node31" class="node">
<title>TABL&#45;ISAPS_COM_CA_INB_SRV_TP_D</title>
<g id="a_node31"><a xlink:href="./TABL_ISAPS_COM_CA_INB_SRV_TP_D.html" xlink:title="TABL&#45;ISAPS_COM_CA_INB_SRV_TP_D">
<polygon fill="none" stroke="yellow" points="2005.69,-252 1738.84,-252 1738.84,-216 2005.69,-216 2005.69,-252"/>
<text text-anchor="middle" x="1872.26" y="-229.8" font-family="Times,serif" font-size="14.00">TABL&#45;ISAPS_COM_CA_INB_SRV_TP_D</text>
</a>
</g>
</g>
<!-- TABL&#45;ISAPS_COM_CA_INB_SRV_TP&#45;&gt;TABL&#45;ISAPS_COM_CA_INB_SRV_TP_D -->
<g id="edge35" class="edge">
<title>TABL&#45;ISAPS_COM_CA_INB_SRV_TP&#45;&gt;TABL&#45;ISAPS_COM_CA_INB_SRV_TP_D</title>
<path fill="none" stroke="black" d="M1971.22,-287.88C1953.77,-278.55 1932,-266.92 1913.32,-256.94"/>
<polygon fill="black" stroke="black" points="1914.9,-253.82 1904.43,-252.19 1911.6,-259.99 1914.9,-253.82"/>
</g>
<!-- TABL&#45;ISAPS_COM_CA_INB_SRV_TP_D&#45;&gt;DTEL&#45;SDRAFT_IS_ACTIVE -->
<g id="edge43" class="edge">
<title>TABL&#45;ISAPS_COM_CA_INB_SRV_TP_D&#45;&gt;DTEL&#45;SDRAFT_IS_ACTIVE</title>
<path fill="none" stroke="black" d="M1738.82,-219.5C1648.83,-209.97 1527.16,-196.27 1410.45,-180.13"/>
<polygon fill="black" stroke="black" points="1410.65,-176.62 1400.26,-178.71 1409.68,-183.56 1410.65,-176.62"/>
</g>
<!-- TABL&#45;ISAPS_COM_CA_INB_SRV_TP_D&#45;&gt;TABL&#45;SDRAFT_WRITE_DRAFT_ADMIN -->
<g id="edge42" class="edge">
<title>TABL&#45;ISAPS_COM_CA_INB_SRV_TP_D&#45;&gt;TABL&#45;SDRAFT_WRITE_DRAFT_ADMIN</title>
<path fill="none" stroke="black" d="M1738.88,-223.04C1579.03,-211.01 1319.39,-191.11 1204.18,-180.06"/>
<polygon fill="black" stroke="black" points="1204.44,-176.57 1194.15,-179.08 1203.77,-183.54 1204.44,-176.57"/>
</g>
<!-- TABL&#45;ISAPS_COM_CA_INB_SRV_TP_D&#45;&gt;DTEL&#45;SDRAFT_HAS_ACTIVE -->
<g id="edge41" class="edge">
<title>TABL&#45;ISAPS_COM_CA_INB_SRV_TP_D&#45;&gt;DTEL&#45;SDRAFT_HAS_ACTIVE</title>
<path fill="none" stroke="black" d="M1853.97,-215.7C1844.83,-207.05 1833.62,-196.45 1823.66,-187.03"/>
<polygon fill="black" stroke="black" points="1826.02,-184.43 1816.35,-180.1 1821.21,-189.52 1826.02,-184.43"/>
</g>
<!-- TABL&#45;ISAPS_COM_CA_INB_SRV_TP_D&#45;&gt;DTEL&#45;/BOBF/UUID -->
<g id="edge40" class="edge">
<title>TABL&#45;ISAPS_COM_CA_INB_SRV_TP_D&#45;&gt;DTEL&#45;/BOBF/UUID</title>
<path fill="none" stroke="black" d="M1968.74,-215.97C2021.65,-206.42 2088.66,-194.01 2157.16,-180.19"/>
<polygon fill="black" stroke="black" points="2158.16,-183.56 2167.27,-178.14 2156.78,-176.7 2158.16,-183.56"/>
</g>
<!-- TABL&#45;ISAPS_COM_CA_INB_SRV_TP_D&#45;&gt;DTEL&#45;APS_COM_CSCN_NUMBER -->
<g id="edge37" class="edge">
<title>TABL&#45;ISAPS_COM_CA_INB_SRV_TP_D&#45;&gt;DTEL&#45;APS_COM_CSCN_NUMBER</title>
<path fill="none" stroke="black" d="M1911.65,-215.88C1933.66,-206.31 1961.27,-194.3 1984.62,-184.15"/>
<polygon fill="black" stroke="black" points="1986.23,-187.27 1994.01,-180.07 1983.44,-180.85 1986.23,-187.27"/>
</g>
<!-- TABL&#45;ISAPS_COM_CA_INB_SRV_TP_D&#45;&gt;DTEL&#45;APS_COM_CSCN_ID -->
<g id="edge39" class="edge">
<title>TABL&#45;ISAPS_COM_CA_INB_SRV_TP_D&#45;&gt;DTEL&#45;APS_COM_CSCN_ID</title>
<path fill="none" stroke="black" d="M1739.01,-222.84C1705.79,-220.45 1670.23,-218.01 1637.26,-216 1319.86,-196.61 1236.4,-214.1 916.6,-180.07"/>
<polygon fill="black" stroke="black" points="916.91,-176.58 906.59,-179 916.16,-183.54 916.91,-176.58"/>
</g>
<!-- DTEL&#45;APS_CA_INBOUND_STATUS -->
<g id="node32" class="node">
<title>DTEL&#45;APS_CA_INBOUND_STATUS</title>
<g id="a_node32"><a xlink:href="./DTEL_APS_CA_INBOUND_STATUS.html" xlink:title="DTEL&#45;APS_CA_INBOUND_STATUS">
<polygon fill="none" stroke="yellow" points="3015.22,-180 2775.31,-180 2775.31,-144 3015.22,-144 3015.22,-180"/>
<text text-anchor="middle" x="2895.26" y="-157.8" font-family="Times,serif" font-size="14.00">DTEL&#45;APS_CA_INBOUND_STATUS</text>
</a>
</g>
</g>
<!-- TABL&#45;ISAPS_COM_CA_INB_SRV_TP_D&#45;&gt;DTEL&#45;APS_CA_INBOUND_STATUS -->
<g id="edge38" class="edge">
<title>TABL&#45;ISAPS_COM_CA_INB_SRV_TP_D&#45;&gt;DTEL&#45;APS_CA_INBOUND_STATUS</title>
<path fill="none" stroke="black" d="M2005.64,-216.75C2008.54,-216.49 2011.42,-216.24 2014.26,-216 2344.28,-188.38 2431.22,-209.44 2764.69,-180.09"/>
<polygon fill="black" stroke="black" points="2765.48,-183.54 2775.13,-179.16 2764.86,-176.56 2765.48,-183.54"/>
</g>
<!-- DTEL&#45;APS_CA_COMMSYS_INBUSR -->
<g id="node34" class="node">
<title>DTEL&#45;APS_CA_COMMSYS_INBUSR</title>
<g id="a_node34"><a xlink:href="./DTEL_APS_CA_COMMSYS_INBUSR.html" xlink:title="DTEL&#45;APS_CA_COMMSYS_INBUSR">
<polygon fill="none" stroke="yellow" points="2565.14,-180 2321.39,-180 2321.39,-144 2565.14,-144 2565.14,-180"/>
<text text-anchor="middle" x="2443.26" y="-157.8" font-family="Times,serif" font-size="14.00">DTEL&#45;APS_CA_COMMSYS_INBUSR</text>
</a>
</g>
</g>
<!-- TABL&#45;ISAPS_COM_CA_INB_SRV_TP_D&#45;&gt;DTEL&#45;APS_CA_COMMSYS_INBUSR -->
<g id="edge36" class="edge">
<title>TABL&#45;ISAPS_COM_CA_INB_SRV_TP_D&#45;&gt;DTEL&#45;APS_CA_COMMSYS_INBUSR</title>
<path fill="none" stroke="black" d="M2005.62,-217C2115.54,-203.8 2260.24,-186.4 2311.31,-180.1"/>
<polygon fill="black" stroke="black" points="2311.75,-183.58 2321.24,-178.87 2310.89,-176.63 2311.75,-183.58"/>
</g>
<!-- DOMA&#45;APS_CA_INBOUND_STATUS -->
<g id="node33" class="node">
<title>DOMA&#45;APS_CA_INBOUND_STATUS</title>
<g id="a_node33"><a xlink:href="./DOMA_APS_CA_INBOUND_STATUS.html" xlink:title="DOMA&#45;APS_CA_INBOUND_STATUS">
<polygon fill="none" stroke="yellow" points="3018.72,-108 2771.81,-108 2771.81,-72 3018.72,-72 3018.72,-108"/>
<text text-anchor="middle" x="2895.26" y="-85.8" font-family="Times,serif" font-size="14.00">DOMA&#45;APS_CA_INBOUND_STATUS</text>
</a>
</g>
</g>
<!-- DTEL&#45;APS_CA_INBOUND_STATUS&#45;&gt;DOMA&#45;APS_CA_INBOUND_STATUS -->
<g id="edge44" class="edge">
<title>DTEL&#45;APS_CA_INBOUND_STATUS&#45;&gt;DOMA&#45;APS_CA_INBOUND_STATUS</title>
<path fill="none" stroke="black" d="M2895.26,-143.7C2895.26,-135.98 2895.26,-126.71 2895.26,-118.11"/>
<polygon fill="black" stroke="black" points="2898.76,-118.1 2895.26,-108.1 2891.76,-118.1 2898.76,-118.1"/>
</g>
<!-- DTEL&#45;APS_CA_COMMSYS_INBUSR&#45;&gt;DOMA&#45;/BOBF/CONF_KEY -->
<g id="edge45" class="edge">
<title>DTEL&#45;APS_CA_COMMSYS_INBUSR&#45;&gt;DOMA&#45;/BOBF/CONF_KEY</title>
<path fill="none" stroke="black" d="M2443.26,-143.7C2443.26,-135.98 2443.26,-126.71 2443.26,-118.11"/>
<polygon fill="black" stroke="black" points="2446.76,-118.1 2443.26,-108.1 2439.76,-118.1 2446.76,-118.1"/>
</g>
</g>
</svg>
