<?xml version="1.0" encoding="UTF-8" standalone="no"?>
<!DOCTYPE svg PUBLIC "-//W3C//DTD SVG 1.1//EN"
 "http://www.w3.org/Graphics/SVG/1.1/DTD/svg11.dtd">
<!-- Generated by graphviz version 2.47.3 (20210619.1520)
 -->
<!-- Title: G Pages: 1 -->
<svg width="423pt" height="188pt"
 viewBox="0.00 0.00 422.65 188.00" xmlns="http://www.w3.org/2000/svg" xmlns:xlink="http://www.w3.org/1999/xlink">
<g id="graph0" class="graph" transform="scale(1 1) rotate(0) translate(4 184)">
<title>G</title>
<polygon fill="white" stroke="transparent" points="-4,4 -4,-184 418.65,-184 418.65,4 -4,4"/>
<!-- TABL&#45;TCDOBT -->
<g id="node1" class="node">
<title>TABL&#45;TCDOBT</title>
<polygon fill="none" stroke="yellow" points="278.24,-180 164.84,-180 164.84,-144 278.24,-144 278.24,-180"/>
<text text-anchor="middle" x="221.54" y="-157.8" font-family="Times,serif" font-size="14.00">TABL&#45;TCDOBT</text>
</g>
<!-- DTEL&#45;CDOBTEXT -->
<g id="node2" class="node">
<title>DTEL&#45;CDOBTEXT</title>
<g id="a_node2"><a xlink:href="./DTEL_CDOBTEXT.html" xlink:title="DTEL&#45;CDOBTEXT">
<polygon fill="none" stroke="yellow" points="131.11,-108 -0.04,-108 -0.04,-72 131.11,-72 131.11,-108"/>
<text text-anchor="middle" x="65.54" y="-85.8" font-family="Times,serif" font-size="14.00">DTEL&#45;CDOBTEXT</text>
</a>
</g>
</g>
<!-- TABL&#45;TCDOBT&#45;&gt;DTEL&#45;CDOBTEXT -->
<g id="edge3" class="edge">
<title>TABL&#45;TCDOBT&#45;&gt;DTEL&#45;CDOBTEXT</title>
<path fill="none" stroke="black" d="M183.38,-143.88C162.14,-134.35 135.53,-122.41 112.97,-112.28"/>
<polygon fill="black" stroke="black" points="114.13,-108.97 103.58,-108.07 111.27,-115.36 114.13,-108.97"/>
</g>
<!-- DTEL&#45;CDOBJECTCL -->
<g id="node4" class="node">
<title>DTEL&#45;CDOBJECTCL</title>
<g id="a_node4"><a xlink:href="./DTEL_CDOBJECTCL.html" xlink:title="DTEL&#45;CDOBJECTCL">
<polygon fill="none" stroke="yellow" points="294.12,-108 148.95,-108 148.95,-72 294.12,-72 294.12,-108"/>
<text text-anchor="middle" x="221.54" y="-85.8" font-family="Times,serif" font-size="14.00">DTEL&#45;CDOBJECTCL</text>
</a>
</g>
</g>
<!-- TABL&#45;TCDOBT&#45;&gt;DTEL&#45;CDOBJECTCL -->
<g id="edge2" class="edge">
<title>TABL&#45;TCDOBT&#45;&gt;DTEL&#45;CDOBJECTCL</title>
<path fill="none" stroke="black" d="M221.54,-143.7C221.54,-135.98 221.54,-126.71 221.54,-118.11"/>
<polygon fill="black" stroke="black" points="225.04,-118.1 221.54,-108.1 218.04,-118.1 225.04,-118.1"/>
</g>
<!-- DTEL&#45;SPRAS -->
<g id="node6" class="node">
<title>DTEL&#45;SPRAS</title>
<g id="a_node6"><a xlink:href="./DTEL_SPRAS.html" xlink:title="DTEL&#45;SPRAS">
<polygon fill="none" stroke="green" points="411.25,-108 311.82,-108 311.82,-72 411.25,-72 411.25,-108"/>
<text text-anchor="middle" x="361.54" y="-85.8" font-family="Times,serif" font-size="14.00">DTEL&#45;SPRAS</text>
</a>
</g>
</g>
<!-- TABL&#45;TCDOBT&#45;&gt;DTEL&#45;SPRAS -->
<g id="edge1" class="edge">
<title>TABL&#45;TCDOBT&#45;&gt;DTEL&#45;SPRAS</title>
<path fill="none" stroke="black" d="M255.79,-143.88C274.6,-134.47 298.12,-122.71 318.2,-112.67"/>
<polygon fill="black" stroke="black" points="319.78,-115.79 327.16,-108.19 316.65,-109.53 319.78,-115.79"/>
</g>
<!-- DOMA&#45;TEXT60 -->
<g id="node3" class="node">
<title>DOMA&#45;TEXT60</title>
<g id="a_node3"><a xlink:href="./DOMA_TEXT60.html" xlink:title="DOMA&#45;TEXT60">
<polygon fill="none" stroke="yellow" points="122.23,-36 8.85,-36 8.85,0 122.23,0 122.23,-36"/>
<text text-anchor="middle" x="65.54" y="-13.8" font-family="Times,serif" font-size="14.00">DOMA&#45;TEXT60</text>
</a>
</g>
</g>
<!-- DTEL&#45;CDOBTEXT&#45;&gt;DOMA&#45;TEXT60 -->
<g id="edge4" class="edge">
<title>DTEL&#45;CDOBTEXT&#45;&gt;DOMA&#45;TEXT60</title>
<path fill="none" stroke="black" d="M65.54,-71.7C65.54,-63.98 65.54,-54.71 65.54,-46.11"/>
<polygon fill="black" stroke="black" points="69.04,-46.1 65.54,-36.1 62.04,-46.1 69.04,-46.1"/>
</g>
<!-- DOMA&#45;OBJECTCL -->
<g id="node5" class="node">
<title>DOMA&#45;OBJECTCL</title>
<g id="a_node5"><a xlink:href="./DOMA_OBJECTCL.html" xlink:title="DOMA&#45;OBJECTCL">
<polygon fill="none" stroke="yellow" points="287.68,-36 155.39,-36 155.39,0 287.68,0 287.68,-36"/>
<text text-anchor="middle" x="221.54" y="-13.8" font-family="Times,serif" font-size="14.00">DOMA&#45;OBJECTCL</text>
</a>
</g>
</g>
<!-- DTEL&#45;CDOBJECTCL&#45;&gt;DOMA&#45;OBJECTCL -->
<g id="edge5" class="edge">
<title>DTEL&#45;CDOBJECTCL&#45;&gt;DOMA&#45;OBJECTCL</title>
<path fill="none" stroke="black" d="M221.54,-71.7C221.54,-63.98 221.54,-54.71 221.54,-46.11"/>
<polygon fill="black" stroke="black" points="225.04,-46.1 221.54,-36.1 218.04,-46.1 225.04,-46.1"/>
</g>
<!-- DOMA&#45;SPRAS -->
<g id="node7" class="node">
<title>DOMA&#45;SPRAS</title>
<g id="a_node7"><a xlink:href="./DOMA_SPRAS.html" xlink:title="DOMA&#45;SPRAS">
<polygon fill="none" stroke="green" points="414.75,-36 308.32,-36 308.32,0 414.75,0 414.75,-36"/>
<text text-anchor="middle" x="361.54" y="-13.8" font-family="Times,serif" font-size="14.00">DOMA&#45;SPRAS</text>
</a>
</g>
</g>
<!-- DTEL&#45;SPRAS&#45;&gt;DOMA&#45;SPRAS -->
<g id="edge6" class="edge">
<title>DTEL&#45;SPRAS&#45;&gt;DOMA&#45;SPRAS</title>
<path fill="none" stroke="black" d="M361.54,-71.7C361.54,-63.98 361.54,-54.71 361.54,-46.11"/>
<polygon fill="black" stroke="black" points="365.04,-46.1 361.54,-36.1 358.04,-46.1 365.04,-46.1"/>
</g>
</g>
</svg>
