<?xml version="1.0" encoding="UTF-8" standalone="no"?>
<!DOCTYPE svg PUBLIC "-//W3C//DTD SVG 1.1//EN"
 "http://www.w3.org/Graphics/SVG/1.1/DTD/svg11.dtd">
<!-- Generated by graphviz version 2.47.3 (20210619.1520)
 -->
<!-- Title: G Pages: 1 -->
<svg width="1758pt" height="188pt"
 viewBox="0.00 0.00 1758.29 188.00" xmlns="http://www.w3.org/2000/svg" xmlns:xlink="http://www.w3.org/1999/xlink">
<g id="graph0" class="graph" transform="scale(1 1) rotate(0) translate(4 184)">
<title>G</title>
<polygon fill="white" stroke="transparent" points="-4,4 -4,-184 1754.29,-184 1754.29,4 -4,4"/>
<!-- TABL&#45;SUID_ST_NODE_CUA_UCLASS -->
<g id="node1" class="node">
<title>TABL&#45;SUID_ST_NODE_CUA_UCLASS</title>
<polygon fill="none" stroke="yellow" points="1054.92,-180 798.34,-180 798.34,-144 1054.92,-144 1054.92,-180"/>
<text text-anchor="middle" x="926.63" y="-157.8" font-family="Times,serif" font-size="14.00">TABL&#45;SUID_ST_NODE_CUA_UCLASS</text>
</g>
<!-- DTEL&#45;SUID_NODE_KEY_HANDLE -->
<g id="node2" class="node">
<title>DTEL&#45;SUID_NODE_KEY_HANDLE</title>
<g id="a_node2"><a xlink:href="./DTEL_SUID_NODE_KEY_HANDLE.html" xlink:title="DTEL&#45;SUID_NODE_KEY_HANDLE">
<polygon fill="none" stroke="yellow" points="235.38,-108 -0.13,-108 -0.13,-72 235.38,-72 235.38,-108"/>
<text text-anchor="middle" x="117.63" y="-85.8" font-family="Times,serif" font-size="14.00">DTEL&#45;SUID_NODE_KEY_HANDLE</text>
</a>
</g>
</g>
<!-- TABL&#45;SUID_ST_NODE_CUA_UCLASS&#45;&gt;DTEL&#45;SUID_NODE_KEY_HANDLE -->
<g id="edge11" class="edge">
<title>TABL&#45;SUID_ST_NODE_CUA_UCLASS&#45;&gt;DTEL&#45;SUID_NODE_KEY_HANDLE</title>
<path fill="none" stroke="black" d="M798.22,-153.15C663.26,-144.42 444.54,-128.88 245.62,-108.07"/>
<polygon fill="black" stroke="black" points="245.88,-104.58 235.56,-107.01 245.14,-111.54 245.88,-104.58"/>
</g>
<!-- DTEL&#45;SUID_CHANGE_MODE -->
<g id="node3" class="node">
<title>DTEL&#45;SUID_CHANGE_MODE</title>
<g id="a_node3"><a xlink:href="./DTEL_SUID_CHANGE_MODE.html" xlink:title="DTEL&#45;SUID_CHANGE_MODE">
<polygon fill="none" stroke="yellow" points="455.73,-108 253.52,-108 253.52,-72 455.73,-72 455.73,-108"/>
<text text-anchor="middle" x="354.63" y="-85.8" font-family="Times,serif" font-size="14.00">DTEL&#45;SUID_CHANGE_MODE</text>
</a>
</g>
</g>
<!-- TABL&#45;SUID_ST_NODE_CUA_UCLASS&#45;&gt;DTEL&#45;SUID_CHANGE_MODE -->
<g id="edge10" class="edge">
<title>TABL&#45;SUID_ST_NODE_CUA_UCLASS&#45;&gt;DTEL&#45;SUID_CHANGE_MODE</title>
<path fill="none" stroke="black" d="M798.01,-147.61C707.76,-137.89 584.03,-123.92 465.85,-108.14"/>
<polygon fill="black" stroke="black" points="466.28,-104.66 455.9,-106.8 465.35,-111.6 466.28,-104.66"/>
</g>
<!-- DTEL&#45;XANAME -->
<g id="node5" class="node">
<title>DTEL&#45;XANAME</title>
<g id="a_node5"><a xlink:href="./DTEL_XANAME.html" xlink:title="DTEL&#45;XANAME">
<polygon fill="none" stroke="yellow" points="591.47,-108 473.78,-108 473.78,-72 591.47,-72 591.47,-108"/>
<text text-anchor="middle" x="532.63" y="-85.8" font-family="Times,serif" font-size="14.00">DTEL&#45;XANAME</text>
</a>
</g>
</g>
<!-- TABL&#45;SUID_ST_NODE_CUA_UCLASS&#45;&gt;DTEL&#45;XANAME -->
<g id="edge9" class="edge">
<title>TABL&#45;SUID_ST_NODE_CUA_UCLASS&#45;&gt;DTEL&#45;XANAME</title>
<path fill="none" stroke="black" d="M806.58,-143.94C747.47,-134.95 674.98,-123.04 601.44,-108.08"/>
<polygon fill="black" stroke="black" points="602.03,-104.63 591.53,-106.05 600.62,-111.49 602.03,-104.63"/>
</g>
<!-- DTEL&#45;MANDT -->
<g id="node7" class="node">
<title>DTEL&#45;MANDT</title>
<g id="a_node7"><a xlink:href="./DTEL_MANDT.html" xlink:title="DTEL&#45;MANDT">
<polygon fill="none" stroke="green" points="717.37,-108 609.88,-108 609.88,-72 717.37,-72 717.37,-108"/>
<text text-anchor="middle" x="663.63" y="-85.8" font-family="Times,serif" font-size="14.00">DTEL&#45;MANDT</text>
</a>
</g>
</g>
<!-- TABL&#45;SUID_ST_NODE_CUA_UCLASS&#45;&gt;DTEL&#45;MANDT -->
<g id="edge8" class="edge">
<title>TABL&#45;SUID_ST_NODE_CUA_UCLASS&#45;&gt;DTEL&#45;MANDT</title>
<path fill="none" stroke="black" d="M861.75,-143.89C824.98,-134.17 777.85,-121.68 727.38,-108.2"/>
<polygon fill="black" stroke="black" points="728.14,-104.78 717.58,-105.58 726.33,-111.54 728.14,-104.78"/>
</g>
<!-- DTEL&#45;SYSYSID -->
<g id="node9" class="node">
<title>DTEL&#45;SYSYSID</title>
<g id="a_node9"><a xlink:href="./DTEL_SYSYSID.html" xlink:title="DTEL&#45;SYSYSID">
<polygon fill="none" stroke="yellow" points="849.88,-108 735.37,-108 735.37,-72 849.88,-72 849.88,-108"/>
<text text-anchor="middle" x="792.63" y="-85.8" font-family="Times,serif" font-size="14.00">DTEL&#45;SYSYSID</text>
</a>
</g>
</g>
<!-- TABL&#45;SUID_ST_NODE_CUA_UCLASS&#45;&gt;DTEL&#45;SYSYSID -->
<g id="edge7" class="edge">
<title>TABL&#45;SUID_ST_NODE_CUA_UCLASS&#45;&gt;DTEL&#45;SYSYSID</title>
<path fill="none" stroke="black" d="M893.85,-143.88C876,-134.55 853.73,-122.92 834.62,-112.94"/>
<polygon fill="black" stroke="black" points="836.02,-109.72 825.53,-108.19 832.77,-115.92 836.02,-109.72"/>
</g>
<!-- DTEL&#45;XBISDAT -->
<g id="node11" class="node">
<title>DTEL&#45;XBISDAT</title>
<g id="a_node11"><a xlink:href="./DTEL_XBISDAT.html" xlink:title="DTEL&#45;XBISDAT">
<polygon fill="none" stroke="yellow" points="985.2,-108 868.05,-108 868.05,-72 985.2,-72 985.2,-108"/>
<text text-anchor="middle" x="926.63" y="-85.8" font-family="Times,serif" font-size="14.00">DTEL&#45;XBISDAT</text>
</a>
</g>
</g>
<!-- TABL&#45;SUID_ST_NODE_CUA_UCLASS&#45;&gt;DTEL&#45;XBISDAT -->
<g id="edge6" class="edge">
<title>TABL&#45;SUID_ST_NODE_CUA_UCLASS&#45;&gt;DTEL&#45;XBISDAT</title>
<path fill="none" stroke="black" d="M926.63,-143.7C926.63,-135.98 926.63,-126.71 926.63,-118.11"/>
<polygon fill="black" stroke="black" points="930.13,-118.1 926.63,-108.1 923.13,-118.1 930.13,-118.1"/>
</g>
<!-- DTEL&#45;XVONDAT -->
<g id="node13" class="node">
<title>DTEL&#45;XVONDAT</title>
<g id="a_node13"><a xlink:href="./DTEL_XVONDAT.html" xlink:title="DTEL&#45;XVONDAT">
<polygon fill="none" stroke="yellow" points="1128.24,-108 1003.01,-108 1003.01,-72 1128.24,-72 1128.24,-108"/>
<text text-anchor="middle" x="1065.63" y="-85.8" font-family="Times,serif" font-size="14.00">DTEL&#45;XVONDAT</text>
</a>
</g>
</g>
<!-- TABL&#45;SUID_ST_NODE_CUA_UCLASS&#45;&gt;DTEL&#45;XVONDAT -->
<g id="edge5" class="edge">
<title>TABL&#45;SUID_ST_NODE_CUA_UCLASS&#45;&gt;DTEL&#45;XVONDAT</title>
<path fill="none" stroke="black" d="M960.63,-143.88C979.22,-134.51 1002.45,-122.81 1022.33,-112.8"/>
<polygon fill="black" stroke="black" points="1024.13,-115.81 1031.49,-108.19 1020.99,-109.56 1024.13,-115.81"/>
</g>
<!-- DTEL&#45;USMM_DEC3 -->
<g id="node14" class="node">
<title>DTEL&#45;USMM_DEC3</title>
<g id="a_node14"><a xlink:href="./DTEL_USMM_DEC3.html" xlink:title="DTEL&#45;USMM_DEC3">
<polygon fill="none" stroke="yellow" points="1287.32,-108 1145.93,-108 1145.93,-72 1287.32,-72 1287.32,-108"/>
<text text-anchor="middle" x="1216.63" y="-85.8" font-family="Times,serif" font-size="14.00">DTEL&#45;USMM_DEC3</text>
</a>
</g>
</g>
<!-- TABL&#45;SUID_ST_NODE_CUA_UCLASS&#45;&gt;DTEL&#45;USMM_DEC3 -->
<g id="edge4" class="edge">
<title>TABL&#45;SUID_ST_NODE_CUA_UCLASS&#45;&gt;DTEL&#45;USMM_DEC3</title>
<path fill="none" stroke="black" d="M997.2,-143.97C1039.12,-133.85 1092.42,-120.98 1135.99,-110.46"/>
<polygon fill="black" stroke="black" points="1137.09,-113.8 1145.99,-108.05 1135.45,-106.99 1137.09,-113.8"/>
</g>
<!-- DTEL&#45;VERSIONZU -->
<g id="node16" class="node">
<title>DTEL&#45;VERSIONZU</title>
<g id="a_node16"><a xlink:href="./DTEL_VERSIONZU.html" xlink:title="DTEL&#45;VERSIONZU">
<polygon fill="none" stroke="yellow" points="1440.36,-108 1304.89,-108 1304.89,-72 1440.36,-72 1440.36,-108"/>
<text text-anchor="middle" x="1372.63" y="-85.8" font-family="Times,serif" font-size="14.00">DTEL&#45;VERSIONZU</text>
</a>
</g>
</g>
<!-- TABL&#45;SUID_ST_NODE_CUA_UCLASS&#45;&gt;DTEL&#45;VERSIONZU -->
<g id="edge3" class="edge">
<title>TABL&#45;SUID_ST_NODE_CUA_UCLASS&#45;&gt;DTEL&#45;VERSIONZU</title>
<path fill="none" stroke="black" d="M1055.02,-145.11C1123.67,-136.01 1209.83,-123.63 1294.66,-108.3"/>
<polygon fill="black" stroke="black" points="1295.52,-111.7 1304.73,-106.46 1294.26,-104.81 1295.52,-111.7"/>
</g>
<!-- DTEL&#45;USERTYPEC -->
<g id="node18" class="node">
<title>DTEL&#45;USERTYPEC</title>
<g id="a_node18"><a xlink:href="./DTEL_USERTYPEC.html" xlink:title="DTEL&#45;USERTYPEC">
<polygon fill="none" stroke="yellow" points="1594.66,-108 1458.59,-108 1458.59,-72 1594.66,-72 1594.66,-108"/>
<text text-anchor="middle" x="1526.63" y="-85.8" font-family="Times,serif" font-size="14.00">DTEL&#45;USERTYPEC</text>
</a>
</g>
</g>
<!-- TABL&#45;SUID_ST_NODE_CUA_UCLASS&#45;&gt;DTEL&#45;USERTYPEC -->
<g id="edge2" class="edge">
<title>TABL&#45;SUID_ST_NODE_CUA_UCLASS&#45;&gt;DTEL&#45;USERTYPEC</title>
<path fill="none" stroke="black" d="M1054.79,-152.19C1158.51,-144.09 1308.47,-130.17 1448.23,-108.12"/>
<polygon fill="black" stroke="black" points="1448.95,-111.55 1458.27,-106.52 1447.84,-104.64 1448.95,-111.55"/>
</g>
<!-- DTEL&#45;RFCRCVSYS -->
<g id="node20" class="node">
<title>DTEL&#45;RFCRCVSYS</title>
<g id="a_node20"><a xlink:href="./DTEL_RFCRCVSYS.html" xlink:title="DTEL&#45;RFCRCVSYS">
<polygon fill="none" stroke="yellow" points="1750.46,-108 1612.79,-108 1612.79,-72 1750.46,-72 1750.46,-108"/>
<text text-anchor="middle" x="1681.63" y="-85.8" font-family="Times,serif" font-size="14.00">DTEL&#45;RFCRCVSYS</text>
</a>
</g>
</g>
<!-- TABL&#45;SUID_ST_NODE_CUA_UCLASS&#45;&gt;DTEL&#45;RFCRCVSYS -->
<g id="edge1" class="edge">
<title>TABL&#45;SUID_ST_NODE_CUA_UCLASS&#45;&gt;DTEL&#45;RFCRCVSYS</title>
<path fill="none" stroke="black" d="M1054.79,-156.18C1189.11,-149.93 1406.3,-136.46 1602.88,-107.99"/>
<polygon fill="black" stroke="black" points="1603.43,-111.44 1612.82,-106.53 1602.41,-104.52 1603.43,-111.44"/>
</g>
<!-- DOMA&#45;SUID_CHANGE_MODE -->
<g id="node4" class="node">
<title>DOMA&#45;SUID_CHANGE_MODE</title>
<g id="a_node4"><a xlink:href="./DOMA_SUID_CHANGE_MODE.html" xlink:title="DOMA&#45;SUID_CHANGE_MODE">
<polygon fill="none" stroke="yellow" points="442.23,-36 233.02,-36 233.02,0 442.23,0 442.23,-36"/>
<text text-anchor="middle" x="337.63" y="-13.8" font-family="Times,serif" font-size="14.00">DOMA&#45;SUID_CHANGE_MODE</text>
</a>
</g>
</g>
<!-- DTEL&#45;SUID_CHANGE_MODE&#45;&gt;DOMA&#45;SUID_CHANGE_MODE -->
<g id="edge12" class="edge">
<title>DTEL&#45;SUID_CHANGE_MODE&#45;&gt;DOMA&#45;SUID_CHANGE_MODE</title>
<path fill="none" stroke="black" d="M350.42,-71.7C348.53,-63.9 346.25,-54.51 344.14,-45.83"/>
<polygon fill="black" stroke="black" points="347.54,-45 341.78,-36.1 340.74,-46.65 347.54,-45"/>
</g>
<!-- DOMA&#45;XUBNAME -->
<g id="node6" class="node">
<title>DOMA&#45;XUBNAME</title>
<g id="a_node6"><a xlink:href="./DOMA_XUBNAME.html" xlink:title="DOMA&#45;XUBNAME">
<polygon fill="none" stroke="yellow" points="594.81,-36 460.44,-36 460.44,0 594.81,0 594.81,-36"/>
<text text-anchor="middle" x="527.63" y="-13.8" font-family="Times,serif" font-size="14.00">DOMA&#45;XUBNAME</text>
</a>
</g>
</g>
<!-- DTEL&#45;XANAME&#45;&gt;DOMA&#45;XUBNAME -->
<g id="edge13" class="edge">
<title>DTEL&#45;XANAME&#45;&gt;DOMA&#45;XUBNAME</title>
<path fill="none" stroke="black" d="M531.39,-71.7C530.84,-63.98 530.18,-54.71 529.56,-46.11"/>
<polygon fill="black" stroke="black" points="533.05,-45.83 528.85,-36.1 526.07,-46.33 533.05,-45.83"/>
</g>
<!-- DOMA&#45;MANDT -->
<g id="node8" class="node">
<title>DOMA&#45;MANDT</title>
<g id="a_node8"><a xlink:href="./DOMA_MANDT.html" xlink:title="DOMA&#45;MANDT">
<polygon fill="none" stroke="yellow" points="726.87,-36 612.38,-36 612.38,0 726.87,0 726.87,-36"/>
<text text-anchor="middle" x="669.63" y="-13.8" font-family="Times,serif" font-size="14.00">DOMA&#45;MANDT</text>
</a>
</g>
</g>
<!-- DTEL&#45;MANDT&#45;&gt;DOMA&#45;MANDT -->
<g id="edge14" class="edge">
<title>DTEL&#45;MANDT&#45;&gt;DOMA&#45;MANDT</title>
<path fill="none" stroke="black" d="M665.11,-71.7C665.77,-63.98 666.56,-54.71 667.3,-46.11"/>
<polygon fill="black" stroke="black" points="670.79,-46.37 668.16,-36.1 663.82,-45.77 670.79,-46.37"/>
</g>
<!-- DOMA&#45;SYCHAR08 -->
<g id="node10" class="node">
<title>DOMA&#45;SYCHAR08</title>
<g id="a_node10"><a xlink:href="./DOMA_SYCHAR08.html" xlink:title="DOMA&#45;SYCHAR08">
<polygon fill="none" stroke="yellow" points="878.83,-36 744.42,-36 744.42,0 878.83,0 878.83,-36"/>
<text text-anchor="middle" x="811.63" y="-13.8" font-family="Times,serif" font-size="14.00">DOMA&#45;SYCHAR08</text>
</a>
</g>
</g>
<!-- DTEL&#45;SYSYSID&#45;&gt;DOMA&#45;SYCHAR08 -->
<g id="edge15" class="edge">
<title>DTEL&#45;SYSYSID&#45;&gt;DOMA&#45;SYCHAR08</title>
<path fill="none" stroke="black" d="M797.32,-71.7C799.44,-63.9 801.99,-54.51 804.34,-45.83"/>
<polygon fill="black" stroke="black" points="807.74,-46.67 806.98,-36.1 800.99,-44.84 807.74,-46.67"/>
</g>
<!-- DOMA&#45;DATUM -->
<g id="node12" class="node">
<title>DOMA&#45;DATUM</title>
<g id="a_node12"><a xlink:href="./DOMA_DATUM.html" xlink:title="DOMA&#45;DATUM">
<polygon fill="none" stroke="yellow" points="1066.87,-36 952.38,-36 952.38,0 1066.87,0 1066.87,-36"/>
<text text-anchor="middle" x="1009.63" y="-13.8" font-family="Times,serif" font-size="14.00">DOMA&#45;DATUM</text>
</a>
</g>
</g>
<!-- DTEL&#45;XBISDAT&#45;&gt;DOMA&#45;DATUM -->
<g id="edge16" class="edge">
<title>DTEL&#45;XBISDAT&#45;&gt;DOMA&#45;DATUM</title>
<path fill="none" stroke="black" d="M947.14,-71.7C957.5,-62.97 970.21,-52.24 981.46,-42.75"/>
<polygon fill="black" stroke="black" points="983.96,-45.23 989.34,-36.1 979.44,-39.88 983.96,-45.23"/>
</g>
<!-- DTEL&#45;XVONDAT&#45;&gt;DOMA&#45;DATUM -->
<g id="edge17" class="edge">
<title>DTEL&#45;XVONDAT&#45;&gt;DOMA&#45;DATUM</title>
<path fill="none" stroke="black" d="M1051.78,-71.7C1045.14,-63.39 1037.05,-53.28 1029.74,-44.14"/>
<polygon fill="black" stroke="black" points="1032.29,-41.73 1023.31,-36.1 1026.82,-46.1 1032.29,-41.73"/>
</g>
<!-- DOMA&#45;USMM_DEC3 -->
<g id="node15" class="node">
<title>DOMA&#45;USMM_DEC3</title>
<g id="a_node15"><a xlink:href="./DOMA_USMM_DEC3.html" xlink:title="DOMA&#45;USMM_DEC3">
<polygon fill="none" stroke="yellow" points="1283.82,-36 1135.43,-36 1135.43,0 1283.82,0 1283.82,-36"/>
<text text-anchor="middle" x="1209.63" y="-13.8" font-family="Times,serif" font-size="14.00">DOMA&#45;USMM_DEC3</text>
</a>
</g>
</g>
<!-- DTEL&#45;USMM_DEC3&#45;&gt;DOMA&#45;USMM_DEC3 -->
<g id="edge18" class="edge">
<title>DTEL&#45;USMM_DEC3&#45;&gt;DOMA&#45;USMM_DEC3</title>
<path fill="none" stroke="black" d="M1214.9,-71.7C1214.12,-63.98 1213.2,-54.71 1212.34,-46.11"/>
<polygon fill="black" stroke="black" points="1215.81,-45.71 1211.34,-36.1 1208.85,-46.4 1215.81,-45.71"/>
</g>
<!-- DOMA&#45;VERSIONZU -->
<g id="node17" class="node">
<title>DOMA&#45;VERSIONZU</title>
<g id="a_node17"><a xlink:href="./DOMA_VERSIONZU.html" xlink:title="DOMA&#45;VERSIONZU">
<polygon fill="none" stroke="yellow" points="1443.86,-36 1301.39,-36 1301.39,0 1443.86,0 1443.86,-36"/>
<text text-anchor="middle" x="1372.63" y="-13.8" font-family="Times,serif" font-size="14.00">DOMA&#45;VERSIONZU</text>
</a>
</g>
</g>
<!-- DTEL&#45;VERSIONZU&#45;&gt;DOMA&#45;VERSIONZU -->
<g id="edge19" class="edge">
<title>DTEL&#45;VERSIONZU&#45;&gt;DOMA&#45;VERSIONZU</title>
<path fill="none" stroke="black" d="M1372.63,-71.7C1372.63,-63.98 1372.63,-54.71 1372.63,-46.11"/>
<polygon fill="black" stroke="black" points="1376.13,-46.1 1372.63,-36.1 1369.13,-46.1 1376.13,-46.1"/>
</g>
<!-- DOMA&#45;USERTYPC -->
<g id="node19" class="node">
<title>DOMA&#45;USERTYPC</title>
<g id="a_node19"><a xlink:href="./DOMA_USERTYPC.html" xlink:title="DOMA&#45;USERTYPC">
<polygon fill="none" stroke="yellow" points="1597.11,-36 1462.14,-36 1462.14,0 1597.11,0 1597.11,-36"/>
<text text-anchor="middle" x="1529.63" y="-13.8" font-family="Times,serif" font-size="14.00">DOMA&#45;USERTYPC</text>
</a>
</g>
</g>
<!-- DTEL&#45;USERTYPEC&#45;&gt;DOMA&#45;USERTYPC -->
<g id="edge20" class="edge">
<title>DTEL&#45;USERTYPEC&#45;&gt;DOMA&#45;USERTYPC</title>
<path fill="none" stroke="black" d="M1527.37,-71.7C1527.7,-63.98 1528.1,-54.71 1528.46,-46.11"/>
<polygon fill="black" stroke="black" points="1531.96,-46.25 1528.89,-36.1 1524.97,-45.95 1531.96,-46.25"/>
</g>
<!-- DOMA&#45;LOGSYS -->
<g id="node21" class="node">
<title>DOMA&#45;LOGSYS</title>
<g id="a_node21"><a xlink:href="./DOMA_LOGSYS.html" xlink:title="DOMA&#45;LOGSYS">
<polygon fill="none" stroke="yellow" points="1740.49,-36 1622.76,-36 1622.76,0 1740.49,0 1740.49,-36"/>
<text text-anchor="middle" x="1681.63" y="-13.8" font-family="Times,serif" font-size="14.00">DOMA&#45;LOGSYS</text>
</a>
</g>
</g>
<!-- DTEL&#45;RFCRCVSYS&#45;&gt;DOMA&#45;LOGSYS -->
<g id="edge21" class="edge">
<title>DTEL&#45;RFCRCVSYS&#45;&gt;DOMA&#45;LOGSYS</title>
<path fill="none" stroke="black" d="M1681.63,-71.7C1681.63,-63.98 1681.63,-54.71 1681.63,-46.11"/>
<polygon fill="black" stroke="black" points="1685.13,-46.1 1681.63,-36.1 1678.13,-46.1 1685.13,-46.1"/>
</g>
</g>
</svg>
