<?xml version="1.0" encoding="UTF-8" standalone="no"?>
<!DOCTYPE svg PUBLIC "-//W3C//DTD SVG 1.1//EN"
 "http://www.w3.org/Graphics/SVG/1.1/DTD/svg11.dtd">
<!-- Generated by graphviz version 2.47.3 (20210619.1520)
 -->
<!-- Title: G Pages: 1 -->
<svg width="1543pt" height="188pt"
 viewBox="0.00 0.00 1542.75 188.00" xmlns="http://www.w3.org/2000/svg" xmlns:xlink="http://www.w3.org/1999/xlink">
<g id="graph0" class="graph" transform="scale(1 1) rotate(0) translate(4 184)">
<title>G</title>
<polygon fill="white" stroke="transparent" points="-4,4 -4,-184 1538.75,-184 1538.75,4 -4,4"/>
<!-- TABL&#45;E071 -->
<g id="node1" class="node">
<title>TABL&#45;E071</title>
<polygon fill="none" stroke="yellow" points="850.91,-180 764.39,-180 764.39,-144 850.91,-144 850.91,-180"/>
<text text-anchor="middle" x="807.65" y="-157.8" font-family="Times,serif" font-size="14.00">TABL&#45;E071</text>
</g>
<!-- DTEL&#45;TRACTIVITY -->
<g id="node2" class="node">
<title>DTEL&#45;TRACTIVITY</title>
<g id="a_node2"><a xlink:href="./DTEL_TRACTIVITY.html" xlink:title="DTEL&#45;TRACTIVITY">
<polygon fill="none" stroke="yellow" points="154.05,-108 13.26,-108 13.26,-72 154.05,-72 154.05,-108"/>
<text text-anchor="middle" x="83.65" y="-85.8" font-family="Times,serif" font-size="14.00">DTEL&#45;TRACTIVITY</text>
</a>
</g>
</g>
<!-- TABL&#45;E071&#45;&gt;DTEL&#45;TRACTIVITY -->
<g id="edge10" class="edge">
<title>TABL&#45;E071&#45;&gt;DTEL&#45;TRACTIVITY</title>
<path fill="none" stroke="black" d="M764.31,-159.21C660.62,-154.53 390.21,-140.02 166.65,-108 165.89,-107.89 165.12,-107.78 164.35,-107.66"/>
<polygon fill="black" stroke="black" points="164.62,-104.16 154.19,-106.04 163.51,-111.07 164.62,-104.16"/>
</g>
<!-- DTEL&#45;SPRAS -->
<g id="node4" class="node">
<title>DTEL&#45;SPRAS</title>
<g id="a_node4"><a xlink:href="./DTEL_SPRAS.html" xlink:title="DTEL&#45;SPRAS">
<polygon fill="none" stroke="green" points="275.37,-108 175.94,-108 175.94,-72 275.37,-72 275.37,-108"/>
<text text-anchor="middle" x="225.65" y="-85.8" font-family="Times,serif" font-size="14.00">DTEL&#45;SPRAS</text>
</a>
</g>
</g>
<!-- TABL&#45;E071&#45;&gt;DTEL&#45;SPRAS -->
<g id="edge9" class="edge">
<title>TABL&#45;E071&#45;&gt;DTEL&#45;SPRAS</title>
<path fill="none" stroke="black" d="M764.23,-157.9C677.11,-151.35 474.92,-134.49 306.65,-108 299.88,-106.93 292.82,-105.68 285.82,-104.33"/>
<polygon fill="black" stroke="black" points="286.12,-100.82 275.63,-102.32 284.76,-107.69 286.12,-100.82"/>
</g>
<!-- DTEL&#45;TRGENNUM -->
<g id="node6" class="node">
<title>DTEL&#45;TRGENNUM</title>
<g id="a_node6"><a xlink:href="./DTEL_TRGENNUM.html" xlink:title="DTEL&#45;TRGENNUM">
<polygon fill="none" stroke="yellow" points="451.39,-108 315.91,-108 315.91,-72 451.39,-72 451.39,-108"/>
<text text-anchor="middle" x="383.65" y="-85.8" font-family="Times,serif" font-size="14.00">DTEL&#45;TRGENNUM</text>
</a>
</g>
</g>
<!-- TABL&#45;E071&#45;&gt;DTEL&#45;TRGENNUM -->
<g id="edge8" class="edge">
<title>TABL&#45;E071&#45;&gt;DTEL&#45;TRGENNUM</title>
<path fill="none" stroke="black" d="M764.27,-153.84C693.14,-142.09 550.74,-118.59 461.72,-103.89"/>
<polygon fill="black" stroke="black" points="462.1,-100.4 451.67,-102.23 460.96,-107.31 462.1,-100.4"/>
</g>
<!-- DTEL&#45;LOCKFLAG -->
<g id="node8" class="node">
<title>DTEL&#45;LOCKFLAG</title>
<g id="a_node8"><a xlink:href="./DTEL_LOCKFLAG.html" xlink:title="DTEL&#45;LOCKFLAG">
<polygon fill="none" stroke="yellow" points="636.23,-108 505.08,-108 505.08,-72 636.23,-72 636.23,-108"/>
<text text-anchor="middle" x="570.65" y="-85.8" font-family="Times,serif" font-size="14.00">DTEL&#45;LOCKFLAG</text>
</a>
</g>
</g>
<!-- TABL&#45;E071&#45;&gt;DTEL&#45;LOCKFLAG -->
<g id="edge7" class="edge">
<title>TABL&#45;E071&#45;&gt;DTEL&#45;LOCKFLAG</title>
<path fill="none" stroke="black" d="M764.18,-148.16C729,-137.77 678.82,-122.95 638.38,-111"/>
<polygon fill="black" stroke="black" points="639.17,-107.59 628.59,-108.11 637.19,-114.3 639.17,-107.59"/>
</g>
<!-- DTEL&#45;OBJFUNC -->
<g id="node10" class="node">
<title>DTEL&#45;OBJFUNC</title>
<g id="a_node10"><a xlink:href="./DTEL_OBJFUNC.html" xlink:title="DTEL&#45;OBJFUNC">
<polygon fill="none" stroke="yellow" points="791.8,-108 673.51,-108 673.51,-72 791.8,-72 791.8,-108"/>
<text text-anchor="middle" x="732.65" y="-85.8" font-family="Times,serif" font-size="14.00">DTEL&#45;OBJFUNC</text>
</a>
</g>
</g>
<!-- TABL&#45;E071&#45;&gt;DTEL&#45;OBJFUNC -->
<g id="edge6" class="edge">
<title>TABL&#45;E071&#45;&gt;DTEL&#45;OBJFUNC</title>
<path fill="none" stroke="black" d="M789.11,-143.7C779.85,-135.05 768.49,-124.45 758.4,-115.03"/>
<polygon fill="black" stroke="black" points="760.68,-112.37 750.98,-108.1 755.9,-117.49 760.68,-112.37"/>
</g>
<!-- DTEL&#45;TROBJ_NAME -->
<g id="node12" class="node">
<title>DTEL&#45;TROBJ_NAME</title>
<g id="a_node12"><a xlink:href="./DTEL_TROBJ_NAME.html" xlink:title="DTEL&#45;TROBJ_NAME">
<polygon fill="none" stroke="yellow" points="957.57,-108 809.74,-108 809.74,-72 957.57,-72 957.57,-108"/>
<text text-anchor="middle" x="883.65" y="-85.8" font-family="Times,serif" font-size="14.00">DTEL&#45;TROBJ_NAME</text>
</a>
</g>
</g>
<!-- TABL&#45;E071&#45;&gt;DTEL&#45;TROBJ_NAME -->
<g id="edge5" class="edge">
<title>TABL&#45;E071&#45;&gt;DTEL&#45;TROBJ_NAME</title>
<path fill="none" stroke="black" d="M826.44,-143.7C835.83,-135.05 847.34,-124.45 857.57,-115.03"/>
<polygon fill="black" stroke="black" points="860.1,-117.45 865.08,-108.1 855.36,-112.3 860.1,-117.45"/>
</g>
<!-- DTEL&#45;TROBJTYPE -->
<g id="node14" class="node">
<title>DTEL&#45;TROBJTYPE</title>
<g id="a_node14"><a xlink:href="./DTEL_TROBJTYPE.html" xlink:title="DTEL&#45;TROBJTYPE">
<polygon fill="none" stroke="yellow" points="1109.85,-108 975.46,-108 975.46,-72 1109.85,-72 1109.85,-108"/>
<text text-anchor="middle" x="1042.65" y="-85.8" font-family="Times,serif" font-size="14.00">DTEL&#45;TROBJTYPE</text>
</a>
</g>
</g>
<!-- TABL&#45;E071&#45;&gt;DTEL&#45;TROBJTYPE -->
<g id="edge4" class="edge">
<title>TABL&#45;E071&#45;&gt;DTEL&#45;TROBJTYPE</title>
<path fill="none" stroke="black" d="M851.03,-148.08C885.95,-137.68 935.63,-122.88 975.65,-110.96"/>
<polygon fill="black" stroke="black" points="976.76,-114.28 985.34,-108.07 974.76,-107.57 976.76,-114.28"/>
</g>
<!-- DTEL&#45;PGMID -->
<g id="node16" class="node">
<title>DTEL&#45;PGMID</title>
<g id="a_node16"><a xlink:href="./DTEL_PGMID.html" xlink:title="DTEL&#45;PGMID">
<polygon fill="none" stroke="yellow" points="1229.18,-108 1128.13,-108 1128.13,-72 1229.18,-72 1229.18,-108"/>
<text text-anchor="middle" x="1178.65" y="-85.8" font-family="Times,serif" font-size="14.00">DTEL&#45;PGMID</text>
</a>
</g>
</g>
<!-- TABL&#45;E071&#45;&gt;DTEL&#45;PGMID -->
<g id="edge3" class="edge">
<title>TABL&#45;E071&#45;&gt;DTEL&#45;PGMID</title>
<path fill="none" stroke="black" d="M850.95,-155.12C909.42,-146.85 1016.97,-130.48 1118.23,-107.96"/>
<polygon fill="black" stroke="black" points="1119.02,-111.37 1128.01,-105.76 1117.49,-104.54 1119.02,-111.37"/>
</g>
<!-- DTEL&#45;DDPOSITION -->
<g id="node18" class="node">
<title>DTEL&#45;DDPOSITION</title>
<g id="a_node18"><a xlink:href="./DTEL_DDPOSITION.html" xlink:title="DTEL&#45;DDPOSITION">
<polygon fill="none" stroke="yellow" points="1391.05,-108 1250.26,-108 1250.26,-72 1391.05,-72 1391.05,-108"/>
<text text-anchor="middle" x="1320.65" y="-85.8" font-family="Times,serif" font-size="14.00">DTEL&#45;DDPOSITION</text>
</a>
</g>
</g>
<!-- TABL&#45;E071&#45;&gt;DTEL&#45;DDPOSITION -->
<g id="edge2" class="edge">
<title>TABL&#45;E071&#45;&gt;DTEL&#45;DDPOSITION</title>
<path fill="none" stroke="black" d="M850.95,-156.86C928.81,-149.16 1097.51,-131.27 1238.65,-108 1239.12,-107.92 1239.59,-107.85 1240.06,-107.77"/>
<polygon fill="black" stroke="black" points="1240.8,-111.19 1250.05,-106.02 1239.6,-104.29 1240.8,-111.19"/>
</g>
<!-- DTEL&#45;TRKORR -->
<g id="node20" class="node">
<title>DTEL&#45;TRKORR</title>
<g id="a_node20"><a xlink:href="./DTEL_TRKORR.html" xlink:title="DTEL&#45;TRKORR">
<polygon fill="none" stroke="yellow" points="1527.35,-108 1413.95,-108 1413.95,-72 1527.35,-72 1527.35,-108"/>
<text text-anchor="middle" x="1470.65" y="-85.8" font-family="Times,serif" font-size="14.00">DTEL&#45;TRKORR</text>
</a>
</g>
</g>
<!-- TABL&#45;E071&#45;&gt;DTEL&#45;TRKORR -->
<g id="edge1" class="edge">
<title>TABL&#45;E071&#45;&gt;DTEL&#45;TRKORR</title>
<path fill="none" stroke="black" d="M851.01,-159.28C949.22,-154.93 1195.98,-141.32 1399.65,-108 1400.95,-107.79 1402.27,-107.56 1403.59,-107.33"/>
<polygon fill="black" stroke="black" points="1404.67,-110.69 1413.83,-105.38 1403.36,-103.81 1404.67,-110.69"/>
</g>
<!-- DOMA&#45;CUS_IMG_AC -->
<g id="node3" class="node">
<title>DOMA&#45;CUS_IMG_AC</title>
<g id="a_node3"><a xlink:href="./DOMA_CUS_IMG_AC.html" xlink:title="DOMA&#45;CUS_IMG_AC">
<polygon fill="none" stroke="yellow" points="151.46,-36 -0.15,-36 -0.15,0 151.46,0 151.46,-36"/>
<text text-anchor="middle" x="75.65" y="-13.8" font-family="Times,serif" font-size="14.00">DOMA&#45;CUS_IMG_AC</text>
</a>
</g>
</g>
<!-- DTEL&#45;TRACTIVITY&#45;&gt;DOMA&#45;CUS_IMG_AC -->
<g id="edge11" class="edge">
<title>DTEL&#45;TRACTIVITY&#45;&gt;DOMA&#45;CUS_IMG_AC</title>
<path fill="none" stroke="black" d="M81.68,-71.7C80.79,-63.98 79.73,-54.71 78.75,-46.11"/>
<polygon fill="black" stroke="black" points="82.22,-45.64 77.61,-36.1 75.27,-46.44 82.22,-45.64"/>
</g>
<!-- DOMA&#45;SPRAS -->
<g id="node5" class="node">
<title>DOMA&#45;SPRAS</title>
<g id="a_node5"><a xlink:href="./DOMA_SPRAS.html" xlink:title="DOMA&#45;SPRAS">
<polygon fill="none" stroke="green" points="275.87,-36 169.44,-36 169.44,0 275.87,0 275.87,-36"/>
<text text-anchor="middle" x="222.65" y="-13.8" font-family="Times,serif" font-size="14.00">DOMA&#45;SPRAS</text>
</a>
</g>
</g>
<!-- DTEL&#45;SPRAS&#45;&gt;DOMA&#45;SPRAS -->
<g id="edge12" class="edge">
<title>DTEL&#45;SPRAS&#45;&gt;DOMA&#45;SPRAS</title>
<path fill="none" stroke="black" d="M224.91,-71.7C224.58,-63.98 224.18,-54.71 223.81,-46.11"/>
<polygon fill="black" stroke="black" points="227.31,-45.95 223.39,-36.1 220.32,-46.25 227.31,-45.95"/>
</g>
<!-- DOMA&#45;TRGENNUM -->
<g id="node7" class="node">
<title>DOMA&#45;TRGENNUM</title>
<g id="a_node7"><a xlink:href="./DOMA_TRGENNUM.html" xlink:title="DOMA&#45;TRGENNUM">
<polygon fill="none" stroke="yellow" points="435.89,-36 293.41,-36 293.41,0 435.89,0 435.89,-36"/>
<text text-anchor="middle" x="364.65" y="-13.8" font-family="Times,serif" font-size="14.00">DOMA&#45;TRGENNUM</text>
</a>
</g>
</g>
<!-- DTEL&#45;TRGENNUM&#45;&gt;DOMA&#45;TRGENNUM -->
<g id="edge13" class="edge">
<title>DTEL&#45;TRGENNUM&#45;&gt;DOMA&#45;TRGENNUM</title>
<path fill="none" stroke="black" d="M378.96,-71.7C376.84,-63.9 374.29,-54.51 371.94,-45.83"/>
<polygon fill="black" stroke="black" points="375.29,-44.84 369.3,-36.1 368.54,-46.67 375.29,-44.84"/>
</g>
<!-- DOMA&#45;TR_IMPORT_STATUS -->
<g id="node9" class="node">
<title>DOMA&#45;TR_IMPORT_STATUS</title>
<g id="a_node9"><a xlink:href="./DOMA_TR_IMPORT_STATUS.html" xlink:title="DOMA&#45;TR_IMPORT_STATUS">
<polygon fill="none" stroke="yellow" points="655.23,-36 454.07,-36 454.07,0 655.23,0 655.23,-36"/>
<text text-anchor="middle" x="554.65" y="-13.8" font-family="Times,serif" font-size="14.00">DOMA&#45;TR_IMPORT_STATUS</text>
</a>
</g>
</g>
<!-- DTEL&#45;LOCKFLAG&#45;&gt;DOMA&#45;TR_IMPORT_STATUS -->
<g id="edge14" class="edge">
<title>DTEL&#45;LOCKFLAG&#45;&gt;DOMA&#45;TR_IMPORT_STATUS</title>
<path fill="none" stroke="black" d="M566.7,-71.7C564.93,-63.98 562.82,-54.71 560.85,-46.11"/>
<polygon fill="black" stroke="black" points="564.2,-45.07 558.56,-36.1 557.38,-46.63 564.2,-45.07"/>
</g>
<!-- DOMA&#45;OBJFUNC -->
<g id="node11" class="node">
<title>DOMA&#45;OBJFUNC</title>
<g id="a_node11"><a xlink:href="./DOMA_OBJFUNC.html" xlink:title="DOMA&#45;OBJFUNC">
<polygon fill="none" stroke="yellow" points="798.3,-36 673.01,-36 673.01,0 798.3,0 798.3,-36"/>
<text text-anchor="middle" x="735.65" y="-13.8" font-family="Times,serif" font-size="14.00">DOMA&#45;OBJFUNC</text>
</a>
</g>
</g>
<!-- DTEL&#45;OBJFUNC&#45;&gt;DOMA&#45;OBJFUNC -->
<g id="edge15" class="edge">
<title>DTEL&#45;OBJFUNC&#45;&gt;DOMA&#45;OBJFUNC</title>
<path fill="none" stroke="black" d="M733.39,-71.7C733.73,-63.98 734.12,-54.71 734.49,-46.11"/>
<polygon fill="black" stroke="black" points="737.99,-46.25 734.92,-36.1 730.99,-45.95 737.99,-46.25"/>
</g>
<!-- DOMA&#45;TROBJ_NAME -->
<g id="node13" class="node">
<title>DOMA&#45;TROBJ_NAME</title>
<g id="a_node13"><a xlink:href="./DOMA_TROBJ_NAME.html" xlink:title="DOMA&#45;TROBJ_NAME">
<polygon fill="none" stroke="yellow" points="971.07,-36 816.24,-36 816.24,0 971.07,0 971.07,-36"/>
<text text-anchor="middle" x="893.65" y="-13.8" font-family="Times,serif" font-size="14.00">DOMA&#45;TROBJ_NAME</text>
</a>
</g>
</g>
<!-- DTEL&#45;TROBJ_NAME&#45;&gt;DOMA&#45;TROBJ_NAME -->
<g id="edge16" class="edge">
<title>DTEL&#45;TROBJ_NAME&#45;&gt;DOMA&#45;TROBJ_NAME</title>
<path fill="none" stroke="black" d="M886.12,-71.7C887.23,-63.98 888.55,-54.71 889.78,-46.11"/>
<polygon fill="black" stroke="black" points="893.26,-46.5 891.21,-36.1 886.33,-45.51 893.26,-46.5"/>
</g>
<!-- DOMA&#45;OBJECT -->
<g id="node15" class="node">
<title>DOMA&#45;OBJECT</title>
<g id="a_node15"><a xlink:href="./DOMA_OBJECT.html" xlink:title="DOMA&#45;OBJECT">
<polygon fill="none" stroke="yellow" points="1103.91,-36 989.4,-36 989.4,0 1103.91,0 1103.91,-36"/>
<text text-anchor="middle" x="1046.65" y="-13.8" font-family="Times,serif" font-size="14.00">DOMA&#45;OBJECT</text>
</a>
</g>
</g>
<!-- DTEL&#45;TROBJTYPE&#45;&gt;DOMA&#45;OBJECT -->
<g id="edge17" class="edge">
<title>DTEL&#45;TROBJTYPE&#45;&gt;DOMA&#45;OBJECT</title>
<path fill="none" stroke="black" d="M1043.64,-71.7C1044.08,-63.98 1044.61,-54.71 1045.1,-46.11"/>
<polygon fill="black" stroke="black" points="1048.6,-46.29 1045.68,-36.1 1041.61,-45.89 1048.6,-46.29"/>
</g>
<!-- DOMA&#45;PGMID -->
<g id="node17" class="node">
<title>DOMA&#45;PGMID</title>
<g id="a_node17"><a xlink:href="./DOMA_PGMID.html" xlink:title="DOMA&#45;PGMID">
<polygon fill="none" stroke="yellow" points="1230.68,-36 1122.63,-36 1122.63,0 1230.68,0 1230.68,-36"/>
<text text-anchor="middle" x="1176.65" y="-13.8" font-family="Times,serif" font-size="14.00">DOMA&#45;PGMID</text>
</a>
</g>
</g>
<!-- DTEL&#45;PGMID&#45;&gt;DOMA&#45;PGMID -->
<g id="edge18" class="edge">
<title>DTEL&#45;PGMID&#45;&gt;DOMA&#45;PGMID</title>
<path fill="none" stroke="black" d="M1178.16,-71.7C1177.94,-63.98 1177.67,-54.71 1177.43,-46.11"/>
<polygon fill="black" stroke="black" points="1180.93,-46 1177.14,-36.1 1173.93,-46.2 1180.93,-46"/>
</g>
<!-- DOMA&#45;DDPOSITION -->
<g id="node19" class="node">
<title>DOMA&#45;DDPOSITION</title>
<g id="a_node19"><a xlink:href="./DOMA_DDPOSITION.html" xlink:title="DOMA&#45;DDPOSITION">
<polygon fill="none" stroke="yellow" points="1396.55,-36 1248.76,-36 1248.76,0 1396.55,0 1396.55,-36"/>
<text text-anchor="middle" x="1322.65" y="-13.8" font-family="Times,serif" font-size="14.00">DOMA&#45;DDPOSITION</text>
</a>
</g>
</g>
<!-- DTEL&#45;DDPOSITION&#45;&gt;DOMA&#45;DDPOSITION -->
<g id="edge19" class="edge">
<title>DTEL&#45;DDPOSITION&#45;&gt;DOMA&#45;DDPOSITION</title>
<path fill="none" stroke="black" d="M1321.15,-71.7C1321.37,-63.98 1321.63,-54.71 1321.88,-46.11"/>
<polygon fill="black" stroke="black" points="1325.38,-46.2 1322.16,-36.1 1318.38,-46 1325.38,-46.2"/>
</g>
<!-- DOMA&#45;TRKORR -->
<g id="node21" class="node">
<title>DOMA&#45;TRKORR</title>
<g id="a_node21"><a xlink:href="./DOMA_TRKORR.html" xlink:title="DOMA&#45;TRKORR">
<polygon fill="none" stroke="yellow" points="1534.85,-36 1414.45,-36 1414.45,0 1534.85,0 1534.85,-36"/>
<text text-anchor="middle" x="1474.65" y="-13.8" font-family="Times,serif" font-size="14.00">DOMA&#45;TRKORR</text>
</a>
</g>
</g>
<!-- DTEL&#45;TRKORR&#45;&gt;DOMA&#45;TRKORR -->
<g id="edge20" class="edge">
<title>DTEL&#45;TRKORR&#45;&gt;DOMA&#45;TRKORR</title>
<path fill="none" stroke="black" d="M1471.64,-71.7C1472.08,-63.98 1472.61,-54.71 1473.1,-46.11"/>
<polygon fill="black" stroke="black" points="1476.6,-46.29 1473.68,-36.1 1469.61,-45.89 1476.6,-46.29"/>
</g>
</g>
</svg>
