<?xml version="1.0" encoding="UTF-8" standalone="no"?>
<!DOCTYPE svg PUBLIC "-//W3C//DTD SVG 1.1//EN"
 "http://www.w3.org/Graphics/SVG/1.1/DTD/svg11.dtd">
<!-- Generated by graphviz version 2.47.3 (20210619.1520)
 -->
<!-- Title: G Pages: 1 -->
<svg width="371pt" height="188pt"
 viewBox="0.00 0.00 370.53 188.00" xmlns="http://www.w3.org/2000/svg" xmlns:xlink="http://www.w3.org/1999/xlink">
<g id="graph0" class="graph" transform="scale(1 1) rotate(0) translate(4 184)">
<title>G</title>
<polygon fill="white" stroke="transparent" points="-4,4 -4,-184 366.53,-184 366.53,4 -4,4"/>
<!-- TABL&#45;NROBJECT_RANGE -->
<g id="node1" class="node">
<title>TABL&#45;NROBJECT_RANGE</title>
<polygon fill="none" stroke="yellow" points="272.57,-180 89.19,-180 89.19,-144 272.57,-144 272.57,-180"/>
<text text-anchor="middle" x="180.88" y="-157.8" font-family="Times,serif" font-size="14.00">TABL&#45;NROBJECT_RANGE</text>
</g>
<!-- DTEL&#45;NROBJ -->
<g id="node2" class="node">
<title>DTEL&#45;NROBJ</title>
<g id="a_node2"><a xlink:href="./DTEL_NROBJ.html" xlink:title="DTEL&#45;NROBJ">
<polygon fill="none" stroke="yellow" points="108.13,-108 7.62,-108 7.62,-72 108.13,-72 108.13,-108"/>
<text text-anchor="middle" x="57.88" y="-85.8" font-family="Times,serif" font-size="14.00">DTEL&#45;NROBJ</text>
</a>
</g>
</g>
<!-- TABL&#45;NROBJECT_RANGE&#45;&gt;DTEL&#45;NROBJ -->
<g id="edge3" class="edge">
<title>TABL&#45;NROBJECT_RANGE&#45;&gt;DTEL&#45;NROBJ</title>
<path fill="none" stroke="black" d="M150.79,-143.88C134.56,-134.64 114.34,-123.13 96.91,-113.21"/>
<polygon fill="black" stroke="black" points="98.51,-110.09 88.08,-108.19 95.04,-116.18 98.51,-110.09"/>
</g>
<!-- DTEL&#45;CHAR2 -->
<g id="node4" class="node">
<title>DTEL&#45;CHAR2</title>
<g id="a_node4"><a xlink:href="./DTEL_CHAR2.html" xlink:title="DTEL&#45;CHAR2">
<polygon fill="none" stroke="yellow" points="232.19,-108 129.57,-108 129.57,-72 232.19,-72 232.19,-108"/>
<text text-anchor="middle" x="180.88" y="-85.8" font-family="Times,serif" font-size="14.00">DTEL&#45;CHAR2</text>
</a>
</g>
</g>
<!-- TABL&#45;NROBJECT_RANGE&#45;&gt;DTEL&#45;CHAR2 -->
<g id="edge2" class="edge">
<title>TABL&#45;NROBJECT_RANGE&#45;&gt;DTEL&#45;CHAR2</title>
<path fill="none" stroke="black" d="M180.88,-143.7C180.88,-135.98 180.88,-126.71 180.88,-118.11"/>
<polygon fill="black" stroke="black" points="184.38,-118.1 180.88,-108.1 177.38,-118.1 184.38,-118.1"/>
</g>
<!-- DTEL&#45;CHAR1 -->
<g id="node6" class="node">
<title>DTEL&#45;CHAR1</title>
<g id="a_node6"><a xlink:href="./DTEL_CHAR1.html" xlink:title="DTEL&#45;CHAR1">
<polygon fill="none" stroke="yellow" points="355.19,-108 252.57,-108 252.57,-72 355.19,-72 355.19,-108"/>
<text text-anchor="middle" x="303.88" y="-85.8" font-family="Times,serif" font-size="14.00">DTEL&#45;CHAR1</text>
</a>
</g>
</g>
<!-- TABL&#45;NROBJECT_RANGE&#45;&gt;DTEL&#45;CHAR1 -->
<g id="edge1" class="edge">
<title>TABL&#45;NROBJECT_RANGE&#45;&gt;DTEL&#45;CHAR1</title>
<path fill="none" stroke="black" d="M210.97,-143.88C227.2,-134.64 247.42,-123.13 264.85,-113.21"/>
<polygon fill="black" stroke="black" points="266.71,-116.18 273.67,-108.19 263.25,-110.09 266.71,-116.18"/>
</g>
<!-- DOMA&#45;NROBJ -->
<g id="node3" class="node">
<title>DOMA&#45;NROBJ</title>
<g id="a_node3"><a xlink:href="./DOMA_NROBJ.html" xlink:title="DOMA&#45;NROBJ">
<polygon fill="none" stroke="yellow" points="107.63,-36 0.12,-36 0.12,0 107.63,0 107.63,-36"/>
<text text-anchor="middle" x="53.88" y="-13.8" font-family="Times,serif" font-size="14.00">DOMA&#45;NROBJ</text>
</a>
</g>
</g>
<!-- DTEL&#45;NROBJ&#45;&gt;DOMA&#45;NROBJ -->
<g id="edge4" class="edge">
<title>DTEL&#45;NROBJ&#45;&gt;DOMA&#45;NROBJ</title>
<path fill="none" stroke="black" d="M56.89,-71.7C56.45,-63.98 55.92,-54.71 55.43,-46.11"/>
<polygon fill="black" stroke="black" points="58.92,-45.89 54.86,-36.1 51.93,-46.29 58.92,-45.89"/>
</g>
<!-- DOMA&#45;CHAR2 -->
<g id="node5" class="node">
<title>DOMA&#45;CHAR2</title>
<g id="a_node5"><a xlink:href="./DOMA_CHAR2.html" xlink:title="DOMA&#45;CHAR2">
<polygon fill="none" stroke="yellow" points="235.69,-36 126.07,-36 126.07,0 235.69,0 235.69,-36"/>
<text text-anchor="middle" x="180.88" y="-13.8" font-family="Times,serif" font-size="14.00">DOMA&#45;CHAR2</text>
</a>
</g>
</g>
<!-- DTEL&#45;CHAR2&#45;&gt;DOMA&#45;CHAR2 -->
<g id="edge5" class="edge">
<title>DTEL&#45;CHAR2&#45;&gt;DOMA&#45;CHAR2</title>
<path fill="none" stroke="black" d="M180.88,-71.7C180.88,-63.98 180.88,-54.71 180.88,-46.11"/>
<polygon fill="black" stroke="black" points="184.38,-46.1 180.88,-36.1 177.38,-46.1 184.38,-46.1"/>
</g>
<!-- DOMA&#45;CHAR1 -->
<g id="node7" class="node">
<title>DOMA&#45;CHAR1</title>
<g id="a_node7"><a xlink:href="./DOMA_CHAR1.html" xlink:title="DOMA&#45;CHAR1">
<polygon fill="none" stroke="green" points="362.69,-36 253.07,-36 253.07,0 362.69,0 362.69,-36"/>
<text text-anchor="middle" x="307.88" y="-13.8" font-family="Times,serif" font-size="14.00">DOMA&#45;CHAR1</text>
</a>
</g>
</g>
<!-- DTEL&#45;CHAR1&#45;&gt;DOMA&#45;CHAR1 -->
<g id="edge6" class="edge">
<title>DTEL&#45;CHAR1&#45;&gt;DOMA&#45;CHAR1</title>
<path fill="none" stroke="black" d="M304.87,-71.7C305.31,-63.98 305.84,-54.71 306.33,-46.11"/>
<polygon fill="black" stroke="black" points="309.82,-46.29 306.9,-36.1 302.84,-45.89 309.82,-46.29"/>
</g>
</g>
</svg>
