<?xml version="1.0" encoding="UTF-8" standalone="no"?>
<!DOCTYPE svg PUBLIC "-//W3C//DTD SVG 1.1//EN"
 "http://www.w3.org/Graphics/SVG/1.1/DTD/svg11.dtd">
<!-- Generated by graphviz version 2.47.3 (20210619.1520)
 -->
<!-- Title: G Pages: 1 -->
<svg width="320pt" height="188pt"
 viewBox="0.00 0.00 320.25 188.00" xmlns="http://www.w3.org/2000/svg" xmlns:xlink="http://www.w3.org/1999/xlink">
<g id="graph0" class="graph" transform="scale(1 1) rotate(0) translate(4 184)">
<title>G</title>
<polygon fill="white" stroke="transparent" points="-4,4 -4,-184 316.25,-184 316.25,4 -4,4"/>
<!-- TABL&#45;BUP_S_COMMDATA_READ_API -->
<g id="node1" class="node">
<title>TABL&#45;BUP_S_COMMDATA_READ_API</title>
<polygon fill="none" stroke="yellow" points="288.2,-180 24.05,-180 24.05,-144 288.2,-144 288.2,-180"/>
<text text-anchor="middle" x="156.13" y="-157.8" font-family="Times,serif" font-size="14.00">TABL&#45;BUP_S_COMMDATA_READ_API</text>
</g>
<!-- DTEL&#45;ADDR_READ_COMMUNICATION_TYPE -->
<g id="node2" class="node">
<title>DTEL&#45;ADDR_READ_COMMUNICATION_TYPE</title>
<g id="a_node2"><a xlink:href="./DTEL_ADDR_READ_COMMUNICATION_TYPE.html" xlink:title="DTEL&#45;ADDR_READ_COMMUNICATION_TYPE">
<polygon fill="none" stroke="yellow" points="312.38,-108 -0.13,-108 -0.13,-72 312.38,-72 312.38,-108"/>
<text text-anchor="middle" x="156.13" y="-85.8" font-family="Times,serif" font-size="14.00">DTEL&#45;ADDR_READ_COMMUNICATION_TYPE</text>
</a>
</g>
</g>
<!-- TABL&#45;BUP_S_COMMDATA_READ_API&#45;&gt;DTEL&#45;ADDR_READ_COMMUNICATION_TYPE -->
<g id="edge1" class="edge">
<title>TABL&#45;BUP_S_COMMDATA_READ_API&#45;&gt;DTEL&#45;ADDR_READ_COMMUNICATION_TYPE</title>
<path fill="none" stroke="black" d="M156.13,-143.7C156.13,-135.98 156.13,-126.71 156.13,-118.11"/>
<polygon fill="black" stroke="black" points="159.63,-118.1 156.13,-108.1 152.63,-118.1 159.63,-118.1"/>
</g>
<!-- DOMA&#45;XFELD -->
<g id="node3" class="node">
<title>DOMA&#45;XFELD</title>
<g id="a_node3"><a xlink:href="./DOMA_XFELD.html" xlink:title="DOMA&#45;XFELD">
<polygon fill="none" stroke="yellow" points="210.15,-36 102.1,-36 102.1,0 210.15,0 210.15,-36"/>
<text text-anchor="middle" x="156.13" y="-13.8" font-family="Times,serif" font-size="14.00">DOMA&#45;XFELD</text>
</a>
</g>
</g>
<!-- DTEL&#45;ADDR_READ_COMMUNICATION_TYPE&#45;&gt;DOMA&#45;XFELD -->
<g id="edge2" class="edge">
<title>DTEL&#45;ADDR_READ_COMMUNICATION_TYPE&#45;&gt;DOMA&#45;XFELD</title>
<path fill="none" stroke="black" d="M156.13,-71.7C156.13,-63.98 156.13,-54.71 156.13,-46.11"/>
<polygon fill="black" stroke="black" points="159.63,-46.1 156.13,-36.1 152.63,-46.1 159.63,-46.1"/>
</g>
</g>
</svg>
