<?xml version="1.0" encoding="UTF-8" standalone="no"?>
<!DOCTYPE svg PUBLIC "-//W3C//DTD SVG 1.1//EN"
 "http://www.w3.org/Graphics/SVG/1.1/DTD/svg11.dtd">
<!-- Generated by graphviz version 2.47.3 (20210619.1520)
 -->
<!-- Title: G Pages: 1 -->
<svg width="131pt" height="188pt"
 viewBox="0.00 0.00 131.31 188.00" xmlns="http://www.w3.org/2000/svg" xmlns:xlink="http://www.w3.org/1999/xlink">
<g id="graph0" class="graph" transform="scale(1 1) rotate(0) translate(4 184)">
<title>G</title>
<polygon fill="white" stroke="transparent" points="-4,4 -4,-184 127.31,-184 127.31,4 -4,4"/>
<!-- TABL&#45;BAPIF4C -->
<g id="node1" class="node">
<title>TABL&#45;BAPIF4C</title>
<polygon fill="none" stroke="green" points="118.37,-180 4.94,-180 4.94,-144 118.37,-144 118.37,-180"/>
<text text-anchor="middle" x="61.66" y="-157.8" font-family="Times,serif" font-size="14.00">TABL&#45;BAPIF4C</text>
</g>
<!-- DTEL&#45;CHAR255 -->
<g id="node2" class="node">
<title>DTEL&#45;CHAR255</title>
<g id="a_node2"><a xlink:href="./DTEL_CHAR255.html" xlink:title="DTEL&#45;CHAR255">
<polygon fill="none" stroke="yellow" points="119.97,-108 3.34,-108 3.34,-72 119.97,-72 119.97,-108"/>
<text text-anchor="middle" x="61.66" y="-85.8" font-family="Times,serif" font-size="14.00">DTEL&#45;CHAR255</text>
</a>
</g>
</g>
<!-- TABL&#45;BAPIF4C&#45;&gt;DTEL&#45;CHAR255 -->
<g id="edge1" class="edge">
<title>TABL&#45;BAPIF4C&#45;&gt;DTEL&#45;CHAR255</title>
<path fill="none" stroke="black" d="M61.66,-143.7C61.66,-135.98 61.66,-126.71 61.66,-118.11"/>
<polygon fill="black" stroke="black" points="65.16,-118.1 61.66,-108.1 58.16,-118.1 65.16,-118.1"/>
</g>
<!-- DOMA&#45;CHAR255 -->
<g id="node3" class="node">
<title>DOMA&#45;CHAR255</title>
<g id="a_node3"><a xlink:href="./DOMA_CHAR255.html" xlink:title="DOMA&#45;CHAR255">
<polygon fill="none" stroke="yellow" points="123.47,-36 -0.16,-36 -0.16,0 123.47,0 123.47,-36"/>
<text text-anchor="middle" x="61.66" y="-13.8" font-family="Times,serif" font-size="14.00">DOMA&#45;CHAR255</text>
</a>
</g>
</g>
<!-- DTEL&#45;CHAR255&#45;&gt;DOMA&#45;CHAR255 -->
<g id="edge2" class="edge">
<title>DTEL&#45;CHAR255&#45;&gt;DOMA&#45;CHAR255</title>
<path fill="none" stroke="black" d="M61.66,-71.7C61.66,-63.98 61.66,-54.71 61.66,-46.11"/>
<polygon fill="black" stroke="black" points="65.16,-46.1 61.66,-36.1 58.16,-46.1 65.16,-46.1"/>
</g>
</g>
</svg>
