<?xml version="1.0" encoding="UTF-8" standalone="no"?>
<!DOCTYPE svg PUBLIC "-//W3C//DTD SVG 1.1//EN"
 "http://www.w3.org/Graphics/SVG/1.1/DTD/svg11.dtd">
<!-- Generated by graphviz version 2.47.3 (20210619.1520)
 -->
<!-- Title: G Pages: 1 -->
<svg width="149pt" height="188pt"
 viewBox="0.00 0.00 149.22 188.00" xmlns="http://www.w3.org/2000/svg" xmlns:xlink="http://www.w3.org/1999/xlink">
<g id="graph0" class="graph" transform="scale(1 1) rotate(0) translate(4 184)">
<title>G</title>
<polygon fill="white" stroke="transparent" points="-4,4 -4,-184 145.22,-184 145.22,4 -4,4"/>
<!-- TABL&#45;BAPISRCSYS -->
<g id="node1" class="node">
<title>TABL&#45;BAPISRCSYS</title>
<polygon fill="none" stroke="green" points="141.33,-180 -0.11,-180 -0.11,-144 141.33,-144 141.33,-180"/>
<text text-anchor="middle" x="70.61" y="-157.8" font-family="Times,serif" font-size="14.00">TABL&#45;BAPISRCSYS</text>
</g>
<!-- DTEL&#45;SYSYSID -->
<g id="node2" class="node">
<title>DTEL&#45;SYSYSID</title>
<g id="a_node2"><a xlink:href="./DTEL_SYSYSID.html" xlink:title="DTEL&#45;SYSYSID">
<polygon fill="none" stroke="yellow" points="127.86,-108 13.36,-108 13.36,-72 127.86,-72 127.86,-108"/>
<text text-anchor="middle" x="70.61" y="-85.8" font-family="Times,serif" font-size="14.00">DTEL&#45;SYSYSID</text>
</a>
</g>
</g>
<!-- TABL&#45;BAPISRCSYS&#45;&gt;DTEL&#45;SYSYSID -->
<g id="edge1" class="edge">
<title>TABL&#45;BAPISRCSYS&#45;&gt;DTEL&#45;SYSYSID</title>
<path fill="none" stroke="black" d="M70.61,-143.7C70.61,-135.98 70.61,-126.71 70.61,-118.11"/>
<polygon fill="black" stroke="black" points="74.11,-118.1 70.61,-108.1 67.11,-118.1 74.11,-118.1"/>
</g>
<!-- DOMA&#45;SYCHAR08 -->
<g id="node3" class="node">
<title>DOMA&#45;SYCHAR08</title>
<g id="a_node3"><a xlink:href="./DOMA_SYCHAR08.html" xlink:title="DOMA&#45;SYCHAR08">
<polygon fill="none" stroke="yellow" points="137.81,-36 3.41,-36 3.41,0 137.81,0 137.81,-36"/>
<text text-anchor="middle" x="70.61" y="-13.8" font-family="Times,serif" font-size="14.00">DOMA&#45;SYCHAR08</text>
</a>
</g>
</g>
<!-- DTEL&#45;SYSYSID&#45;&gt;DOMA&#45;SYCHAR08 -->
<g id="edge2" class="edge">
<title>DTEL&#45;SYSYSID&#45;&gt;DOMA&#45;SYCHAR08</title>
<path fill="none" stroke="black" d="M70.61,-71.7C70.61,-63.98 70.61,-54.71 70.61,-46.11"/>
<polygon fill="black" stroke="black" points="74.11,-46.1 70.61,-36.1 67.11,-46.1 74.11,-46.1"/>
</g>
</g>
</svg>
