<?xml version="1.0" encoding="UTF-8" standalone="no"?>
<!DOCTYPE svg PUBLIC "-//W3C//DTD SVG 1.1//EN"
 "http://www.w3.org/Graphics/SVG/1.1/DTD/svg11.dtd">
<!-- Generated by graphviz version 2.47.3 (20210619.1520)
 -->
<!-- Title: G Pages: 1 -->
<svg width="573pt" height="188pt"
 viewBox="0.00 0.00 572.65 188.00" xmlns="http://www.w3.org/2000/svg" xmlns:xlink="http://www.w3.org/1999/xlink">
<g id="graph0" class="graph" transform="scale(1 1) rotate(0) translate(4 184)">
<title>G</title>
<polygon fill="white" stroke="transparent" points="-4,4 -4,-184 568.65,-184 568.65,4 -4,4"/>
<!-- TABL&#45;BALSUBT -->
<g id="node1" class="node">
<title>TABL&#45;BALSUBT</title>
<polygon fill="none" stroke="yellow" points="366.03,-180 245.06,-180 245.06,-144 366.03,-144 366.03,-180"/>
<text text-anchor="middle" x="305.54" y="-157.8" font-family="Times,serif" font-size="14.00">TABL&#45;BALSUBT</text>
</g>
<!-- DTEL&#45;BALSUBOBJT -->
<g id="node2" class="node">
<title>DTEL&#45;BALSUBOBJT</title>
<g id="a_node2"><a xlink:href="./DTEL_BALSUBOBJT.html" xlink:title="DTEL&#45;BALSUBOBJT">
<polygon fill="none" stroke="yellow" points="145.13,-108 -0.04,-108 -0.04,-72 145.13,-72 145.13,-108"/>
<text text-anchor="middle" x="72.54" y="-85.8" font-family="Times,serif" font-size="14.00">DTEL&#45;BALSUBOBJT</text>
</a>
</g>
</g>
<!-- TABL&#45;BALSUBT&#45;&gt;DTEL&#45;BALSUBOBJT -->
<g id="edge4" class="edge">
<title>TABL&#45;BALSUBT&#45;&gt;DTEL&#45;BALSUBOBJT</title>
<path fill="none" stroke="black" d="M248.84,-143.97C215.86,-134.06 174.11,-121.51 139.52,-111.12"/>
<polygon fill="black" stroke="black" points="140.08,-107.64 129.5,-108.11 138.07,-114.34 140.08,-107.64"/>
</g>
<!-- DTEL&#45;BALSUBOBJ -->
<g id="node4" class="node">
<title>DTEL&#45;BALSUBOBJ</title>
<g id="a_node4"><a xlink:href="./DTEL_BALSUBOBJ.html" xlink:title="DTEL&#45;BALSUBOBJ">
<polygon fill="none" stroke="green" points="299.58,-108 163.51,-108 163.51,-72 299.58,-72 299.58,-108"/>
<text text-anchor="middle" x="231.54" y="-85.8" font-family="Times,serif" font-size="14.00">DTEL&#45;BALSUBOBJ</text>
</a>
</g>
</g>
<!-- TABL&#45;BALSUBT&#45;&gt;DTEL&#45;BALSUBOBJ -->
<g id="edge3" class="edge">
<title>TABL&#45;BALSUBT&#45;&gt;DTEL&#45;BALSUBOBJ</title>
<path fill="none" stroke="black" d="M287.25,-143.7C278.11,-135.05 266.9,-124.45 256.94,-115.03"/>
<polygon fill="black" stroke="black" points="259.3,-112.43 249.63,-108.1 254.48,-117.52 259.3,-112.43"/>
</g>
<!-- DTEL&#45;BALOBJ_D -->
<g id="node6" class="node">
<title>DTEL&#45;BALOBJ_D</title>
<g id="a_node6"><a xlink:href="./DTEL_BALOBJ_D.html" xlink:title="DTEL&#45;BALOBJ_D">
<polygon fill="none" stroke="green" points="443.96,-108 317.13,-108 317.13,-72 443.96,-72 443.96,-108"/>
<text text-anchor="middle" x="380.54" y="-85.8" font-family="Times,serif" font-size="14.00">DTEL&#45;BALOBJ_D</text>
</a>
</g>
</g>
<!-- TABL&#45;BALSUBT&#45;&gt;DTEL&#45;BALOBJ_D -->
<g id="edge2" class="edge">
<title>TABL&#45;BALSUBT&#45;&gt;DTEL&#45;BALOBJ_D</title>
<path fill="none" stroke="black" d="M324.08,-143.7C333.35,-135.05 344.71,-124.45 354.8,-115.03"/>
<polygon fill="black" stroke="black" points="357.29,-117.49 362.22,-108.1 352.52,-112.37 357.29,-117.49"/>
</g>
<!-- DTEL&#45;SPRAS -->
<g id="node8" class="node">
<title>DTEL&#45;SPRAS</title>
<g id="a_node8"><a xlink:href="./DTEL_SPRAS.html" xlink:title="DTEL&#45;SPRAS">
<polygon fill="none" stroke="green" points="561.26,-108 461.83,-108 461.83,-72 561.26,-72 561.26,-108"/>
<text text-anchor="middle" x="511.54" y="-85.8" font-family="Times,serif" font-size="14.00">DTEL&#45;SPRAS</text>
</a>
</g>
</g>
<!-- TABL&#45;BALSUBT&#45;&gt;DTEL&#45;SPRAS -->
<g id="edge1" class="edge">
<title>TABL&#45;BALSUBT&#45;&gt;DTEL&#45;SPRAS</title>
<path fill="none" stroke="black" d="M355.67,-143.97C384.8,-134.07 421.66,-121.54 452.22,-111.16"/>
<polygon fill="black" stroke="black" points="453.56,-114.4 461.9,-107.87 451.31,-107.77 453.56,-114.4"/>
</g>
<!-- DOMA&#45;TEXT60 -->
<g id="node3" class="node">
<title>DOMA&#45;TEXT60</title>
<g id="a_node3"><a xlink:href="./DOMA_TEXT60.html" xlink:title="DOMA&#45;TEXT60">
<polygon fill="none" stroke="yellow" points="129.23,-36 15.85,-36 15.85,0 129.23,0 129.23,-36"/>
<text text-anchor="middle" x="72.54" y="-13.8" font-family="Times,serif" font-size="14.00">DOMA&#45;TEXT60</text>
</a>
</g>
</g>
<!-- DTEL&#45;BALSUBOBJT&#45;&gt;DOMA&#45;TEXT60 -->
<g id="edge5" class="edge">
<title>DTEL&#45;BALSUBOBJT&#45;&gt;DOMA&#45;TEXT60</title>
<path fill="none" stroke="black" d="M72.54,-71.7C72.54,-63.98 72.54,-54.71 72.54,-46.11"/>
<polygon fill="black" stroke="black" points="76.04,-46.1 72.54,-36.1 69.04,-46.1 76.04,-46.1"/>
</g>
<!-- DOMA&#45;BALSUBOBJ -->
<g id="node5" class="node">
<title>DOMA&#45;BALSUBOBJ</title>
<g id="a_node5"><a xlink:href="./DOMA_BALSUBOBJ.html" xlink:title="DOMA&#45;BALSUBOBJ">
<polygon fill="none" stroke="yellow" points="303.08,-36 160.01,-36 160.01,0 303.08,0 303.08,-36"/>
<text text-anchor="middle" x="231.54" y="-13.8" font-family="Times,serif" font-size="14.00">DOMA&#45;BALSUBOBJ</text>
</a>
</g>
</g>
<!-- DTEL&#45;BALSUBOBJ&#45;&gt;DOMA&#45;BALSUBOBJ -->
<g id="edge6" class="edge">
<title>DTEL&#45;BALSUBOBJ&#45;&gt;DOMA&#45;BALSUBOBJ</title>
<path fill="none" stroke="black" d="M231.54,-71.7C231.54,-63.98 231.54,-54.71 231.54,-46.11"/>
<polygon fill="black" stroke="black" points="235.04,-46.1 231.54,-36.1 228.04,-46.1 235.04,-46.1"/>
</g>
<!-- DOMA&#45;BALOBJ -->
<g id="node7" class="node">
<title>DOMA&#45;BALOBJ</title>
<g id="a_node7"><a xlink:href="./DOMA_BALOBJ.html" xlink:title="DOMA&#45;BALOBJ">
<polygon fill="none" stroke="yellow" points="438.85,-36 322.23,-36 322.23,0 438.85,0 438.85,-36"/>
<text text-anchor="middle" x="380.54" y="-13.8" font-family="Times,serif" font-size="14.00">DOMA&#45;BALOBJ</text>
</a>
</g>
</g>
<!-- DTEL&#45;BALOBJ_D&#45;&gt;DOMA&#45;BALOBJ -->
<g id="edge7" class="edge">
<title>DTEL&#45;BALOBJ_D&#45;&gt;DOMA&#45;BALOBJ</title>
<path fill="none" stroke="black" d="M380.54,-71.7C380.54,-63.98 380.54,-54.71 380.54,-46.11"/>
<polygon fill="black" stroke="black" points="384.04,-46.1 380.54,-36.1 377.04,-46.1 384.04,-46.1"/>
</g>
<!-- DOMA&#45;SPRAS -->
<g id="node9" class="node">
<title>DOMA&#45;SPRAS</title>
<g id="a_node9"><a xlink:href="./DOMA_SPRAS.html" xlink:title="DOMA&#45;SPRAS">
<polygon fill="none" stroke="green" points="564.76,-36 458.33,-36 458.33,0 564.76,0 564.76,-36"/>
<text text-anchor="middle" x="511.54" y="-13.8" font-family="Times,serif" font-size="14.00">DOMA&#45;SPRAS</text>
</a>
</g>
</g>
<!-- DTEL&#45;SPRAS&#45;&gt;DOMA&#45;SPRAS -->
<g id="edge8" class="edge">
<title>DTEL&#45;SPRAS&#45;&gt;DOMA&#45;SPRAS</title>
<path fill="none" stroke="black" d="M511.54,-71.7C511.54,-63.98 511.54,-54.71 511.54,-46.11"/>
<polygon fill="black" stroke="black" points="515.04,-46.1 511.54,-36.1 508.04,-46.1 515.04,-46.1"/>
</g>
</g>
</svg>
