<?xml version="1.0" encoding="UTF-8" standalone="no"?>
<!DOCTYPE svg PUBLIC "-//W3C//DTD SVG 1.1//EN"
 "http://www.w3.org/Graphics/SVG/1.1/DTD/svg11.dtd">
<!-- Generated by graphviz version 2.47.3 (20210619.1520)
 -->
<!-- Title: G Pages: 1 -->
<svg width="1034pt" height="188pt"
 viewBox="0.00 0.00 1033.83 188.00" xmlns="http://www.w3.org/2000/svg" xmlns:xlink="http://www.w3.org/1999/xlink">
<g id="graph0" class="graph" transform="scale(1 1) rotate(0) translate(4 184)">
<title>G</title>
<polygon fill="white" stroke="transparent" points="-4,4 -4,-184 1029.83,-184 1029.83,4 -4,4"/>
<!-- TABL&#45;SUID_ST_NODE_PROFILE -->
<g id="node1" class="node">
<title>TABL&#45;SUID_ST_NODE_PROFILE</title>
<polygon fill="none" stroke="yellow" points="717.97,-180 495.28,-180 495.28,-144 717.97,-144 717.97,-180"/>
<text text-anchor="middle" x="606.63" y="-157.8" font-family="Times,serif" font-size="14.00">TABL&#45;SUID_ST_NODE_PROFILE</text>
</g>
<!-- DTEL&#45;SUID_NODE_KEY_HANDLE -->
<g id="node2" class="node">
<title>DTEL&#45;SUID_NODE_KEY_HANDLE</title>
<g id="a_node2"><a xlink:href="./DTEL_SUID_NODE_KEY_HANDLE.html" xlink:title="DTEL&#45;SUID_NODE_KEY_HANDLE">
<polygon fill="none" stroke="yellow" points="235.38,-108 -0.13,-108 -0.13,-72 235.38,-72 235.38,-108"/>
<text text-anchor="middle" x="117.63" y="-85.8" font-family="Times,serif" font-size="14.00">DTEL&#45;SUID_NODE_KEY_HANDLE</text>
</a>
</g>
</g>
<!-- TABL&#45;SUID_ST_NODE_PROFILE&#45;&gt;DTEL&#45;SUID_NODE_KEY_HANDLE -->
<g id="edge6" class="edge">
<title>TABL&#45;SUID_ST_NODE_PROFILE&#45;&gt;DTEL&#45;SUID_NODE_KEY_HANDLE</title>
<path fill="none" stroke="black" d="M495.05,-145.03C420.87,-134.41 323.22,-120.43 245.84,-109.35"/>
<polygon fill="black" stroke="black" points="245.93,-105.83 235.54,-107.88 244.94,-112.76 245.93,-105.83"/>
</g>
<!-- DTEL&#45;SUID_CHANGE_MODE -->
<g id="node3" class="node">
<title>DTEL&#45;SUID_CHANGE_MODE</title>
<g id="a_node3"><a xlink:href="./DTEL_SUID_CHANGE_MODE.html" xlink:title="DTEL&#45;SUID_CHANGE_MODE">
<polygon fill="none" stroke="yellow" points="455.73,-108 253.52,-108 253.52,-72 455.73,-72 455.73,-108"/>
<text text-anchor="middle" x="354.63" y="-85.8" font-family="Times,serif" font-size="14.00">DTEL&#45;SUID_CHANGE_MODE</text>
</a>
</g>
</g>
<!-- TABL&#45;SUID_ST_NODE_PROFILE&#45;&gt;DTEL&#45;SUID_CHANGE_MODE -->
<g id="edge5" class="edge">
<title>TABL&#45;SUID_ST_NODE_PROFILE&#45;&gt;DTEL&#45;SUID_CHANGE_MODE</title>
<path fill="none" stroke="black" d="M545.3,-143.97C509.33,-133.97 463.7,-121.3 426.1,-110.85"/>
<polygon fill="black" stroke="black" points="426.8,-107.42 416.22,-108.11 424.92,-114.16 426.8,-107.42"/>
</g>
<!-- DTEL&#45;XUAKTPAS -->
<g id="node5" class="node">
<title>DTEL&#45;XUAKTPAS</title>
<g id="a_node5"><a xlink:href="./DTEL_XUAKTPAS.html" xlink:title="DTEL&#45;XUAKTPAS">
<polygon fill="none" stroke="yellow" points="605.2,-108 474.05,-108 474.05,-72 605.2,-72 605.2,-108"/>
<text text-anchor="middle" x="539.63" y="-85.8" font-family="Times,serif" font-size="14.00">DTEL&#45;XUAKTPAS</text>
</a>
</g>
</g>
<!-- TABL&#45;SUID_ST_NODE_PROFILE&#45;&gt;DTEL&#45;XUAKTPAS -->
<g id="edge4" class="edge">
<title>TABL&#45;SUID_ST_NODE_PROFILE&#45;&gt;DTEL&#45;XUAKTPAS</title>
<path fill="none" stroke="black" d="M590.06,-143.7C581.95,-135.22 572.04,-124.86 563.15,-115.58"/>
<polygon fill="black" stroke="black" points="565.44,-112.91 556,-108.1 560.38,-117.75 565.44,-112.91"/>
</g>
<!-- DTEL&#45;XUTYP -->
<g id="node7" class="node">
<title>DTEL&#45;XUTYP</title>
<g id="a_node7"><a xlink:href="./DTEL_XUTYP.html" xlink:title="DTEL&#45;XUTYP">
<polygon fill="none" stroke="yellow" points="726.21,-108 623.05,-108 623.05,-72 726.21,-72 726.21,-108"/>
<text text-anchor="middle" x="674.63" y="-85.8" font-family="Times,serif" font-size="14.00">DTEL&#45;XUTYP</text>
</a>
</g>
</g>
<!-- TABL&#45;SUID_ST_NODE_PROFILE&#45;&gt;DTEL&#45;XUTYP -->
<g id="edge3" class="edge">
<title>TABL&#45;SUID_ST_NODE_PROFILE&#45;&gt;DTEL&#45;XUTYP</title>
<path fill="none" stroke="black" d="M623.43,-143.7C631.75,-135.14 641.93,-124.66 651.02,-115.3"/>
<polygon fill="black" stroke="black" points="653.55,-117.72 658.01,-108.1 648.53,-112.84 653.55,-117.72"/>
</g>
<!-- DTEL&#45;XUTEXT -->
<g id="node9" class="node">
<title>DTEL&#45;XUTEXT</title>
<g id="a_node9"><a xlink:href="./DTEL_XUTEXT.html" xlink:title="DTEL&#45;XUTEXT">
<polygon fill="none" stroke="yellow" points="861.03,-108 748.22,-108 748.22,-72 861.03,-72 861.03,-108"/>
<text text-anchor="middle" x="804.63" y="-85.8" font-family="Times,serif" font-size="14.00">DTEL&#45;XUTEXT</text>
</a>
</g>
</g>
<!-- TABL&#45;SUID_ST_NODE_PROFILE&#45;&gt;DTEL&#45;XUTEXT -->
<g id="edge2" class="edge">
<title>TABL&#45;SUID_ST_NODE_PROFILE&#45;&gt;DTEL&#45;XUTEXT</title>
<path fill="none" stroke="black" d="M654.81,-143.97C682.47,-134.19 717.4,-121.84 746.57,-111.52"/>
<polygon fill="black" stroke="black" points="747.96,-114.74 756.23,-108.11 745.63,-108.14 747.96,-114.74"/>
</g>
<!-- DTEL&#45;XUPROFILE -->
<g id="node11" class="node">
<title>DTEL&#45;XUPROFILE</title>
<g id="a_node11"><a xlink:href="./DTEL_XUPROFILE.html" xlink:title="DTEL&#45;XUPROFILE">
<polygon fill="none" stroke="yellow" points="1019.54,-108 885.71,-108 885.71,-72 1019.54,-72 1019.54,-108"/>
<text text-anchor="middle" x="952.63" y="-85.8" font-family="Times,serif" font-size="14.00">DTEL&#45;XUPROFILE</text>
</a>
</g>
</g>
<!-- TABL&#45;SUID_ST_NODE_PROFILE&#45;&gt;DTEL&#45;XUPROFILE -->
<g id="edge1" class="edge">
<title>TABL&#45;SUID_ST_NODE_PROFILE&#45;&gt;DTEL&#45;XUPROFILE</title>
<path fill="none" stroke="black" d="M691.62,-143.94C743.14,-133.59 810.17,-120.08 869.63,-108 871.57,-107.6 873.54,-107.2 875.53,-106.8"/>
<polygon fill="black" stroke="black" points="876.49,-110.18 885.59,-104.75 875.09,-103.32 876.49,-110.18"/>
</g>
<!-- DOMA&#45;SUID_CHANGE_MODE -->
<g id="node4" class="node">
<title>DOMA&#45;SUID_CHANGE_MODE</title>
<g id="a_node4"><a xlink:href="./DOMA_SUID_CHANGE_MODE.html" xlink:title="DOMA&#45;SUID_CHANGE_MODE">
<polygon fill="none" stroke="yellow" points="445.23,-36 236.02,-36 236.02,0 445.23,0 445.23,-36"/>
<text text-anchor="middle" x="340.63" y="-13.8" font-family="Times,serif" font-size="14.00">DOMA&#45;SUID_CHANGE_MODE</text>
</a>
</g>
</g>
<!-- DTEL&#45;SUID_CHANGE_MODE&#45;&gt;DOMA&#45;SUID_CHANGE_MODE -->
<g id="edge7" class="edge">
<title>DTEL&#45;SUID_CHANGE_MODE&#45;&gt;DOMA&#45;SUID_CHANGE_MODE</title>
<path fill="none" stroke="black" d="M351.16,-71.7C349.62,-63.98 347.77,-54.71 346.05,-46.11"/>
<polygon fill="black" stroke="black" points="349.44,-45.22 344.05,-36.1 342.58,-46.6 349.44,-45.22"/>
</g>
<!-- DOMA&#45;XUAKTPAS -->
<g id="node6" class="node">
<title>DOMA&#45;XUAKTPAS</title>
<g id="a_node6"><a xlink:href="./DOMA_XUAKTPAS.html" xlink:title="DOMA&#45;XUAKTPAS">
<polygon fill="none" stroke="yellow" points="601.7,-36 463.55,-36 463.55,0 601.7,0 601.7,-36"/>
<text text-anchor="middle" x="532.63" y="-13.8" font-family="Times,serif" font-size="14.00">DOMA&#45;XUAKTPAS</text>
</a>
</g>
</g>
<!-- DTEL&#45;XUAKTPAS&#45;&gt;DOMA&#45;XUAKTPAS -->
<g id="edge8" class="edge">
<title>DTEL&#45;XUAKTPAS&#45;&gt;DOMA&#45;XUAKTPAS</title>
<path fill="none" stroke="black" d="M537.9,-71.7C537.12,-63.98 536.2,-54.71 535.34,-46.11"/>
<polygon fill="black" stroke="black" points="538.81,-45.71 534.34,-36.1 531.85,-46.4 538.81,-45.71"/>
</g>
<!-- DOMA&#45;XUTYP -->
<g id="node8" class="node">
<title>DOMA&#45;XUTYP</title>
<g id="a_node8"><a xlink:href="./DOMA_XUTYP.html" xlink:title="DOMA&#45;XUTYP">
<polygon fill="none" stroke="yellow" points="729.71,-36 619.55,-36 619.55,0 729.71,0 729.71,-36"/>
<text text-anchor="middle" x="674.63" y="-13.8" font-family="Times,serif" font-size="14.00">DOMA&#45;XUTYP</text>
</a>
</g>
</g>
<!-- DTEL&#45;XUTYP&#45;&gt;DOMA&#45;XUTYP -->
<g id="edge9" class="edge">
<title>DTEL&#45;XUTYP&#45;&gt;DOMA&#45;XUTYP</title>
<path fill="none" stroke="black" d="M674.63,-71.7C674.63,-63.98 674.63,-54.71 674.63,-46.11"/>
<polygon fill="black" stroke="black" points="678.13,-46.1 674.63,-36.1 671.13,-46.1 678.13,-46.1"/>
</g>
<!-- DOMA&#45;XUTEXT -->
<g id="node10" class="node">
<title>DOMA&#45;XUTEXT</title>
<g id="a_node10"><a xlink:href="./DOMA_XUTEXT.html" xlink:title="DOMA&#45;XUTEXT">
<polygon fill="none" stroke="yellow" points="867.53,-36 747.72,-36 747.72,0 867.53,0 867.53,-36"/>
<text text-anchor="middle" x="807.63" y="-13.8" font-family="Times,serif" font-size="14.00">DOMA&#45;XUTEXT</text>
</a>
</g>
</g>
<!-- DTEL&#45;XUTEXT&#45;&gt;DOMA&#45;XUTEXT -->
<g id="edge10" class="edge">
<title>DTEL&#45;XUTEXT&#45;&gt;DOMA&#45;XUTEXT</title>
<path fill="none" stroke="black" d="M805.37,-71.7C805.7,-63.98 806.1,-54.71 806.46,-46.11"/>
<polygon fill="black" stroke="black" points="809.96,-46.25 806.89,-36.1 802.97,-45.95 809.96,-46.25"/>
</g>
<!-- DOMA&#45;XUPROFILE -->
<g id="node12" class="node">
<title>DOMA&#45;XUPROFILE</title>
<g id="a_node12"><a xlink:href="./DOMA_XUPROFILE.html" xlink:title="DOMA&#45;XUPROFILE">
<polygon fill="none" stroke="yellow" points="1026.04,-36 885.21,-36 885.21,0 1026.04,0 1026.04,-36"/>
<text text-anchor="middle" x="955.63" y="-13.8" font-family="Times,serif" font-size="14.00">DOMA&#45;XUPROFILE</text>
</a>
</g>
</g>
<!-- DTEL&#45;XUPROFILE&#45;&gt;DOMA&#45;XUPROFILE -->
<g id="edge11" class="edge">
<title>DTEL&#45;XUPROFILE&#45;&gt;DOMA&#45;XUPROFILE</title>
<path fill="none" stroke="black" d="M953.37,-71.7C953.7,-63.98 954.1,-54.71 954.46,-46.11"/>
<polygon fill="black" stroke="black" points="957.96,-46.25 954.89,-36.1 950.97,-45.95 957.96,-46.25"/>
</g>
</g>
</svg>
