<?xml version="1.0" encoding="UTF-8" standalone="no"?>
<!DOCTYPE svg PUBLIC "-//W3C//DTD SVG 1.1//EN"
 "http://www.w3.org/Graphics/SVG/1.1/DTD/svg11.dtd">
<!-- Generated by graphviz version 2.47.3 (20210619.1520)
 -->
<!-- Title: G Pages: 1 -->
<svg width="803pt" height="188pt"
 viewBox="0.00 0.00 803.30 188.00" xmlns="http://www.w3.org/2000/svg" xmlns:xlink="http://www.w3.org/1999/xlink">
<g id="graph0" class="graph" transform="scale(1 1) rotate(0) translate(4 184)">
<title>G</title>
<polygon fill="white" stroke="transparent" points="-4,4 -4,-184 799.3,-184 799.3,4 -4,4"/>
<!-- TABL&#45;APS_IAM_A_APPST -->
<g id="node1" class="node">
<title>TABL&#45;APS_IAM_A_APPST</title>
<polygon fill="none" stroke="yellow" points="486.63,-180 303.22,-180 303.22,-144 486.63,-144 486.63,-180"/>
<text text-anchor="middle" x="394.93" y="-157.8" font-family="Times,serif" font-size="14.00">TABL&#45;APS_IAM_A_APPST</text>
</g>
<!-- DTEL&#45;APS_IAM_APP_TITLE -->
<g id="node2" class="node">
<title>DTEL&#45;APS_IAM_APP_TITLE</title>
<g id="a_node2"><a xlink:href="./DTEL_APS_IAM_APP_TITLE.html" xlink:title="DTEL&#45;APS_IAM_APP_TITLE">
<polygon fill="none" stroke="yellow" points="202.28,-108 7.57,-108 7.57,-72 202.28,-72 202.28,-108"/>
<text text-anchor="middle" x="104.93" y="-85.8" font-family="Times,serif" font-size="14.00">DTEL&#45;APS_IAM_APP_TITLE</text>
</a>
</g>
</g>
<!-- TABL&#45;APS_IAM_A_APPST&#45;&gt;DTEL&#45;APS_IAM_APP_TITLE -->
<g id="edge4" class="edge">
<title>TABL&#45;APS_IAM_A_APPST&#45;&gt;DTEL&#45;APS_IAM_APP_TITLE</title>
<path fill="none" stroke="black" d="M324.35,-143.97C282.44,-133.85 229.13,-120.98 185.56,-110.46"/>
<polygon fill="black" stroke="black" points="186.1,-106.99 175.56,-108.05 184.46,-113.8 186.1,-106.99"/>
</g>
<!-- DTEL&#45;LANGUX -->
<g id="node4" class="node">
<title>DTEL&#45;LANGUX</title>
<g id="a_node4"><a xlink:href="./DTEL_LANGUX.html" xlink:title="DTEL&#45;LANGUX">
<polygon fill="none" stroke="yellow" points="337.44,-108 222.41,-108 222.41,-72 337.44,-72 337.44,-108"/>
<text text-anchor="middle" x="279.93" y="-85.8" font-family="Times,serif" font-size="14.00">DTEL&#45;LANGUX</text>
</a>
</g>
</g>
<!-- TABL&#45;APS_IAM_A_APPST&#45;&gt;DTEL&#45;LANGUX -->
<g id="edge3" class="edge">
<title>TABL&#45;APS_IAM_A_APPST&#45;&gt;DTEL&#45;LANGUX</title>
<path fill="none" stroke="black" d="M366.79,-143.88C351.76,-134.72 333.06,-123.34 316.87,-113.48"/>
<polygon fill="black" stroke="black" points="318.53,-110.4 308.17,-108.19 314.89,-116.38 318.53,-110.4"/>
</g>
<!-- DTEL&#45;APS_IAM_BU_CATALOG_APP_CHIP_ID -->
<g id="node6" class="node">
<title>DTEL&#45;APS_IAM_BU_CATALOG_APP_CHIP_ID</title>
<g id="a_node6"><a xlink:href="./DTEL_APS_IAM_BU_CATALOG_APP_CHIP_ID.html" xlink:title="DTEL&#45;APS_IAM_BU_CATALOG_APP_CHIP_ID">
<polygon fill="none" stroke="yellow" points="665.87,-108 355.98,-108 355.98,-72 665.87,-72 665.87,-108"/>
<text text-anchor="middle" x="510.93" y="-85.8" font-family="Times,serif" font-size="14.00">DTEL&#45;APS_IAM_BU_CATALOG_APP_CHIP_ID</text>
</a>
</g>
</g>
<!-- TABL&#45;APS_IAM_A_APPST&#45;&gt;DTEL&#45;APS_IAM_BU_CATALOG_APP_CHIP_ID -->
<g id="edge2" class="edge">
<title>TABL&#45;APS_IAM_A_APPST&#45;&gt;DTEL&#45;APS_IAM_BU_CATALOG_APP_CHIP_ID</title>
<path fill="none" stroke="black" d="M423.3,-143.88C438.47,-134.72 457.33,-123.34 473.66,-113.48"/>
<polygon fill="black" stroke="black" points="475.69,-116.35 482.44,-108.19 472.07,-110.36 475.69,-116.35"/>
</g>
<!-- DTEL&#45;MANDT -->
<g id="node7" class="node">
<title>DTEL&#45;MANDT</title>
<g id="a_node7"><a xlink:href="./DTEL_MANDT.html" xlink:title="DTEL&#45;MANDT">
<polygon fill="none" stroke="green" points="791.67,-108 684.18,-108 684.18,-72 791.67,-72 791.67,-108"/>
<text text-anchor="middle" x="737.93" y="-85.8" font-family="Times,serif" font-size="14.00">DTEL&#45;MANDT</text>
</a>
</g>
</g>
<!-- TABL&#45;APS_IAM_A_APPST&#45;&gt;DTEL&#45;MANDT -->
<g id="edge1" class="edge">
<title>TABL&#45;APS_IAM_A_APPST&#45;&gt;DTEL&#45;MANDT</title>
<path fill="none" stroke="black" d="M486.72,-145.45C538.99,-136.17 605.86,-123.56 673.98,-108.13"/>
<polygon fill="black" stroke="black" points="675.07,-111.47 684.04,-105.83 673.51,-104.65 675.07,-111.47"/>
</g>
<!-- DOMA&#45;APS_IAM_APP_TITLE -->
<g id="node3" class="node">
<title>DOMA&#45;APS_IAM_APP_TITLE</title>
<g id="a_node3"><a xlink:href="./DOMA_APS_IAM_APP_TITLE.html" xlink:title="DOMA&#45;APS_IAM_APP_TITLE">
<polygon fill="none" stroke="yellow" points="201.78,-36 0.07,-36 0.07,0 201.78,0 201.78,-36"/>
<text text-anchor="middle" x="100.93" y="-13.8" font-family="Times,serif" font-size="14.00">DOMA&#45;APS_IAM_APP_TITLE</text>
</a>
</g>
</g>
<!-- DTEL&#45;APS_IAM_APP_TITLE&#45;&gt;DOMA&#45;APS_IAM_APP_TITLE -->
<g id="edge5" class="edge">
<title>DTEL&#45;APS_IAM_APP_TITLE&#45;&gt;DOMA&#45;APS_IAM_APP_TITLE</title>
<path fill="none" stroke="black" d="M103.94,-71.7C103.5,-63.98 102.97,-54.71 102.47,-46.11"/>
<polygon fill="black" stroke="black" points="105.97,-45.89 101.9,-36.1 98.98,-46.29 105.97,-45.89"/>
</g>
<!-- DOMA&#45;CHAR1_X -->
<g id="node5" class="node">
<title>DOMA&#45;CHAR1_X</title>
<g id="a_node5"><a xlink:href="./DOMA_CHAR1_X.html" xlink:title="DOMA&#45;CHAR1_X">
<polygon fill="none" stroke="yellow" points="346.34,-36 219.51,-36 219.51,0 346.34,0 346.34,-36"/>
<text text-anchor="middle" x="282.93" y="-13.8" font-family="Times,serif" font-size="14.00">DOMA&#45;CHAR1_X</text>
</a>
</g>
</g>
<!-- DTEL&#45;LANGUX&#45;&gt;DOMA&#45;CHAR1_X -->
<g id="edge6" class="edge">
<title>DTEL&#45;LANGUX&#45;&gt;DOMA&#45;CHAR1_X</title>
<path fill="none" stroke="black" d="M280.67,-71.7C281,-63.98 281.4,-54.71 281.76,-46.11"/>
<polygon fill="black" stroke="black" points="285.26,-46.25 282.19,-36.1 278.27,-45.95 285.26,-46.25"/>
</g>
<!-- DOMA&#45;MANDT -->
<g id="node8" class="node">
<title>DOMA&#45;MANDT</title>
<g id="a_node8"><a xlink:href="./DOMA_MANDT.html" xlink:title="DOMA&#45;MANDT">
<polygon fill="none" stroke="yellow" points="795.17,-36 680.68,-36 680.68,0 795.17,0 795.17,-36"/>
<text text-anchor="middle" x="737.93" y="-13.8" font-family="Times,serif" font-size="14.00">DOMA&#45;MANDT</text>
</a>
</g>
</g>
<!-- DTEL&#45;MANDT&#45;&gt;DOMA&#45;MANDT -->
<g id="edge7" class="edge">
<title>DTEL&#45;MANDT&#45;&gt;DOMA&#45;MANDT</title>
<path fill="none" stroke="black" d="M737.93,-71.7C737.93,-63.98 737.93,-54.71 737.93,-46.11"/>
<polygon fill="black" stroke="black" points="741.43,-46.1 737.93,-36.1 734.43,-46.1 741.43,-46.1"/>
</g>
</g>
</svg>
