<?xml version="1.0" encoding="UTF-8" standalone="no"?>
<!DOCTYPE svg PUBLIC "-//W3C//DTD SVG 1.1//EN"
 "http://www.w3.org/Graphics/SVG/1.1/DTD/svg11.dtd">
<!-- Generated by graphviz version 2.47.3 (20210619.1520)
 -->
<!-- Title: G Pages: 1 -->
<svg width="2439pt" height="188pt"
 viewBox="0.00 0.00 2439.39 188.00" xmlns="http://www.w3.org/2000/svg" xmlns:xlink="http://www.w3.org/1999/xlink">
<g id="graph0" class="graph" transform="scale(1 1) rotate(0) translate(4 184)">
<title>G</title>
<polygon fill="white" stroke="transparent" points="-4,4 -4,-184 2435.39,-184 2435.39,4 -4,4"/>
<!-- TABL&#45;AGR_HIER -->
<g id="node1" class="node">
<title>TABL&#45;AGR_HIER</title>
<polygon fill="none" stroke="yellow" points="1308,-180 1181.16,-180 1181.16,-144 1308,-144 1308,-180"/>
<text text-anchor="middle" x="1244.58" y="-157.8" font-family="Times,serif" font-size="14.00">TABL&#45;AGR_HIER</text>
</g>
<!-- DTEL&#45;MENU_DETAILS_ALIAS -->
<g id="node2" class="node">
<title>DTEL&#45;MENU_DETAILS_ALIAS</title>
<g id="a_node2"><a xlink:href="./DTEL_MENU_DETAILS_ALIAS.html" xlink:title="DTEL&#45;MENU_DETAILS_ALIAS">
<polygon fill="none" stroke="yellow" points="211.24,-108 -0.08,-108 -0.08,-72 211.24,-72 211.24,-108"/>
<text text-anchor="middle" x="105.58" y="-85.8" font-family="Times,serif" font-size="14.00">DTEL&#45;MENU_DETAILS_ALIAS</text>
</a>
</g>
</g>
<!-- TABL&#45;AGR_HIER&#45;&gt;DTEL&#45;MENU_DETAILS_ALIAS -->
<g id="edge15" class="edge">
<title>TABL&#45;AGR_HIER&#45;&gt;DTEL&#45;MENU_DETAILS_ALIAS</title>
<path fill="none" stroke="black" d="M1181.2,-159.81C1021.76,-156.38 590.93,-144.31 221.52,-108.03"/>
<polygon fill="black" stroke="black" points="221.73,-104.54 211.43,-107.03 221.04,-111.5 221.73,-104.54"/>
</g>
<!-- DTEL&#45;MENU_FLAGS -->
<g id="node4" class="node">
<title>DTEL&#45;MENU_FLAGS</title>
<g id="a_node4"><a xlink:href="./DTEL_MENU_FLAGS.html" xlink:title="DTEL&#45;MENU_FLAGS">
<polygon fill="none" stroke="yellow" points="378.05,-108 229.11,-108 229.11,-72 378.05,-72 378.05,-108"/>
<text text-anchor="middle" x="303.58" y="-85.8" font-family="Times,serif" font-size="14.00">DTEL&#45;MENU_FLAGS</text>
</a>
</g>
</g>
<!-- TABL&#45;AGR_HIER&#45;&gt;DTEL&#45;MENU_FLAGS -->
<g id="edge14" class="edge">
<title>TABL&#45;AGR_HIER&#45;&gt;DTEL&#45;MENU_FLAGS</title>
<path fill="none" stroke="black" d="M1181.13,-160.06C1040.24,-157.34 690.59,-147.03 388.42,-107.99"/>
<polygon fill="black" stroke="black" points="388.51,-104.47 378.14,-106.65 387.61,-111.41 388.51,-104.47"/>
</g>
<!-- DTEL&#45;MENU_ICON -->
<g id="node6" class="node">
<title>DTEL&#45;MENU_ICON</title>
<g id="a_node6"><a xlink:href="./DTEL_MENU_ICON.html" xlink:title="DTEL&#45;MENU_ICON">
<polygon fill="none" stroke="yellow" points="534.93,-108 396.23,-108 396.23,-72 534.93,-72 534.93,-108"/>
<text text-anchor="middle" x="465.58" y="-85.8" font-family="Times,serif" font-size="14.00">DTEL&#45;MENU_ICON</text>
</a>
</g>
</g>
<!-- TABL&#45;AGR_HIER&#45;&gt;DTEL&#45;MENU_ICON -->
<g id="edge13" class="edge">
<title>TABL&#45;AGR_HIER&#45;&gt;DTEL&#45;MENU_ICON</title>
<path fill="none" stroke="black" d="M1180.94,-159.15C1059.14,-154.97 784.6,-142.44 545.17,-108.12"/>
<polygon fill="black" stroke="black" points="545.63,-104.65 535.23,-106.68 544.63,-111.58 545.63,-104.65"/>
</g>
<!-- DTEL&#45;COLOR_INFO -->
<g id="node8" class="node">
<title>DTEL&#45;COLOR_INFO</title>
<g id="a_node8"><a xlink:href="./DTEL_COLOR_INFO.html" xlink:title="DTEL&#45;COLOR_INFO">
<polygon fill="none" stroke="yellow" points="696.1,-108 553.06,-108 553.06,-72 696.1,-72 696.1,-108"/>
<text text-anchor="middle" x="624.58" y="-85.8" font-family="Times,serif" font-size="14.00">DTEL&#45;COLOR_INFO</text>
</a>
</g>
</g>
<!-- TABL&#45;AGR_HIER&#45;&gt;DTEL&#45;COLOR_INFO -->
<g id="edge12" class="edge">
<title>TABL&#45;AGR_HIER&#45;&gt;DTEL&#45;COLOR_INFO</title>
<path fill="none" stroke="black" d="M1181.11,-157.07C1081.77,-150.42 883.4,-135.1 706.48,-108.21"/>
<polygon fill="black" stroke="black" points="706.88,-104.73 696.47,-106.67 705.82,-111.65 706.88,-104.73"/>
</g>
<!-- DTEL&#45;MENU_NUM_5 -->
<g id="node10" class="node">
<title>DTEL&#45;MENU_NUM_5</title>
<g id="a_node10"><a xlink:href="./DTEL_MENU_NUM_5.html" xlink:title="DTEL&#45;MENU_NUM_5">
<polygon fill="none" stroke="yellow" points="865.37,-108 713.79,-108 713.79,-72 865.37,-72 865.37,-108"/>
<text text-anchor="middle" x="789.58" y="-85.8" font-family="Times,serif" font-size="14.00">DTEL&#45;MENU_NUM_5</text>
</a>
</g>
</g>
<!-- TABL&#45;AGR_HIER&#45;&gt;DTEL&#45;MENU_NUM_5 -->
<g id="edge11" class="edge">
<title>TABL&#45;AGR_HIER&#45;&gt;DTEL&#45;MENU_NUM_5</title>
<path fill="none" stroke="black" d="M1181.24,-153.01C1109.51,-143.71 988.94,-127.36 875.44,-108.1"/>
<polygon fill="black" stroke="black" points="875.99,-104.64 865.54,-106.41 874.81,-111.54 875.99,-104.64"/>
</g>
<!-- DTEL&#45;RFCDEST -->
<g id="node12" class="node">
<title>DTEL&#45;RFCDEST</title>
<g id="a_node12"><a xlink:href="./DTEL_RFCDEST.html" xlink:title="DTEL&#45;RFCDEST">
<polygon fill="none" stroke="green" points="1001.45,-108 883.7,-108 883.7,-72 1001.45,-72 1001.45,-108"/>
<text text-anchor="middle" x="942.58" y="-85.8" font-family="Times,serif" font-size="14.00">DTEL&#45;RFCDEST</text>
</a>
</g>
</g>
<!-- TABL&#45;AGR_HIER&#45;&gt;DTEL&#45;RFCDEST -->
<g id="edge10" class="edge">
<title>TABL&#45;AGR_HIER&#45;&gt;DTEL&#45;RFCDEST</title>
<path fill="none" stroke="black" d="M1180.93,-146.98C1136.12,-137.03 1074.49,-123.14 1011.28,-108.14"/>
<polygon fill="black" stroke="black" points="1012.07,-104.73 1001.53,-105.82 1010.45,-111.54 1012.07,-104.73"/>
</g>
<!-- DTEL&#45;MENU_ATTR -->
<g id="node14" class="node">
<title>DTEL&#45;MENU_ATTR</title>
<g id="a_node14"><a xlink:href="./DTEL_MENU_ATTR.html" xlink:title="DTEL&#45;MENU_ATTR">
<polygon fill="none" stroke="yellow" points="1161.26,-108 1019.9,-108 1019.9,-72 1161.26,-72 1161.26,-108"/>
<text text-anchor="middle" x="1090.58" y="-85.8" font-family="Times,serif" font-size="14.00">DTEL&#45;MENU_ATTR</text>
</a>
</g>
</g>
<!-- TABL&#45;AGR_HIER&#45;&gt;DTEL&#45;MENU_ATTR -->
<g id="edge9" class="edge">
<title>TABL&#45;AGR_HIER&#45;&gt;DTEL&#45;MENU_ATTR</title>
<path fill="none" stroke="black" d="M1206.91,-143.88C1185.95,-134.35 1159.67,-122.41 1137.4,-112.28"/>
<polygon fill="black" stroke="black" points="1138.68,-109.02 1128.13,-108.07 1135.78,-115.39 1138.68,-109.02"/>
</g>
<!-- DTEL&#45;HIER_GUID -->
<g id="node16" class="node">
<title>DTEL&#45;HIER_GUID</title>
<g id="a_node16"><a xlink:href="./DTEL_HIER_GUID.html" xlink:title="DTEL&#45;HIER_GUID">
<polygon fill="none" stroke="yellow" points="1310.14,-108 1179.02,-108 1179.02,-72 1310.14,-72 1310.14,-108"/>
<text text-anchor="middle" x="1244.58" y="-85.8" font-family="Times,serif" font-size="14.00">DTEL&#45;HIER_GUID</text>
</a>
</g>
</g>
<!-- TABL&#45;AGR_HIER&#45;&gt;DTEL&#45;HIER_GUID -->
<g id="edge8" class="edge">
<title>TABL&#45;AGR_HIER&#45;&gt;DTEL&#45;HIER_GUID</title>
<path fill="none" stroke="black" d="M1244.58,-143.7C1244.58,-135.98 1244.58,-126.71 1244.58,-118.11"/>
<polygon fill="black" stroke="black" points="1248.08,-118.1 1244.58,-108.1 1241.08,-118.1 1248.08,-118.1"/>
</g>
<!-- DTEL&#45;MENU_NUM_2 -->
<g id="node18" class="node">
<title>DTEL&#45;MENU_NUM_2</title>
<g id="a_node18"><a xlink:href="./DTEL_MENU_NUM_2.html" xlink:title="DTEL&#45;MENU_NUM_2">
<polygon fill="none" stroke="yellow" points="1479.37,-108 1327.79,-108 1327.79,-72 1479.37,-72 1479.37,-108"/>
<text text-anchor="middle" x="1403.58" y="-85.8" font-family="Times,serif" font-size="14.00">DTEL&#45;MENU_NUM_2</text>
</a>
</g>
</g>
<!-- TABL&#45;AGR_HIER&#45;&gt;DTEL&#45;MENU_NUM_2 -->
<g id="edge7" class="edge">
<title>TABL&#45;AGR_HIER&#45;&gt;DTEL&#45;MENU_NUM_2</title>
<path fill="none" stroke="black" d="M1283.48,-143.88C1305.21,-134.31 1332.48,-122.3 1355.54,-112.15"/>
<polygon fill="black" stroke="black" points="1357.07,-115.3 1364.81,-108.07 1354.25,-108.89 1357.07,-115.3"/>
</g>
<!-- DTEL&#45;EXTDREPORT -->
<g id="node20" class="node">
<title>DTEL&#45;EXTDREPORT</title>
<g id="a_node20"><a xlink:href="./DTEL_EXTDREPORT.html" xlink:title="DTEL&#45;EXTDREPORT">
<polygon fill="none" stroke="yellow" points="1644.49,-108 1496.67,-108 1496.67,-72 1644.49,-72 1644.49,-108"/>
<text text-anchor="middle" x="1570.58" y="-85.8" font-family="Times,serif" font-size="14.00">DTEL&#45;EXTDREPORT</text>
</a>
</g>
</g>
<!-- TABL&#45;AGR_HIER&#45;&gt;DTEL&#45;EXTDREPORT -->
<g id="edge6" class="edge">
<title>TABL&#45;AGR_HIER&#45;&gt;DTEL&#45;EXTDREPORT</title>
<path fill="none" stroke="black" d="M1307.82,-147.42C1358.83,-136.47 1431.01,-120.97 1486.81,-108.99"/>
<polygon fill="black" stroke="black" points="1487.64,-112.39 1496.68,-106.87 1486.17,-105.55 1487.64,-112.39"/>
</g>
<!-- DTEL&#45;REPORTTYPE -->
<g id="node22" class="node">
<title>DTEL&#45;REPORTTYPE</title>
<g id="a_node22"><a xlink:href="./DTEL_REPORTTYPE.html" xlink:title="DTEL&#45;REPORTTYPE">
<polygon fill="none" stroke="yellow" points="1807.17,-108 1661.99,-108 1661.99,-72 1807.17,-72 1807.17,-108"/>
<text text-anchor="middle" x="1734.58" y="-85.8" font-family="Times,serif" font-size="14.00">DTEL&#45;REPORTTYPE</text>
</a>
</g>
</g>
<!-- TABL&#45;AGR_HIER&#45;&gt;DTEL&#45;REPORTTYPE -->
<g id="edge5" class="edge">
<title>TABL&#45;AGR_HIER&#45;&gt;DTEL&#45;REPORTTYPE</title>
<path fill="none" stroke="black" d="M1307.87,-154.35C1386.39,-145.75 1524.56,-129.49 1651.85,-108.23"/>
<polygon fill="black" stroke="black" points="1652.49,-111.67 1661.77,-106.56 1651.33,-104.77 1652.49,-111.67"/>
</g>
<!-- DTEL&#45;MENU_FLAG -->
<g id="node24" class="node">
<title>DTEL&#45;MENU_FLAG</title>
<g id="a_node24"><a xlink:href="./DTEL_MENU_FLAG.html" xlink:title="DTEL&#45;MENU_FLAG">
<polygon fill="none" stroke="yellow" points="1966.26,-108 1824.9,-108 1824.9,-72 1966.26,-72 1966.26,-108"/>
<text text-anchor="middle" x="1895.58" y="-85.8" font-family="Times,serif" font-size="14.00">DTEL&#45;MENU_FLAG</text>
</a>
</g>
</g>
<!-- TABL&#45;AGR_HIER&#45;&gt;DTEL&#45;MENU_FLAG -->
<g id="edge4" class="edge">
<title>TABL&#45;AGR_HIER&#45;&gt;DTEL&#45;MENU_FLAG</title>
<path fill="none" stroke="black" d="M1307.94,-157.61C1411.9,-151.51 1625.31,-136.69 1814.47,-108.23"/>
<polygon fill="black" stroke="black" points="1815.23,-111.66 1824.59,-106.69 1814.18,-104.74 1815.23,-111.66"/>
</g>
<!-- DTEL&#45;MENU_NUM_8 -->
<g id="node26" class="node">
<title>DTEL&#45;MENU_NUM_8</title>
<g id="a_node26"><a xlink:href="./DTEL_MENU_NUM_8.html" xlink:title="DTEL&#45;MENU_NUM_8">
<polygon fill="none" stroke="yellow" points="2135.37,-108 1983.79,-108 1983.79,-72 2135.37,-72 2135.37,-108"/>
<text text-anchor="middle" x="2059.58" y="-85.8" font-family="Times,serif" font-size="14.00">DTEL&#45;MENU_NUM_8</text>
</a>
</g>
</g>
<!-- TABL&#45;AGR_HIER&#45;&gt;DTEL&#45;MENU_NUM_8 -->
<g id="edge3" class="edge">
<title>TABL&#45;AGR_HIER&#45;&gt;DTEL&#45;MENU_NUM_8</title>
<path fill="none" stroke="black" d="M1307.93,-159.12C1433.37,-154.81 1722.31,-141.95 1973.6,-108.18"/>
<polygon fill="black" stroke="black" points="1974.21,-111.63 1983.65,-106.82 1973.27,-104.7 1974.21,-111.63"/>
</g>
<!-- DTEL&#45;AGR_NAME -->
<g id="node28" class="node">
<title>DTEL&#45;AGR_NAME</title>
<g id="a_node28"><a xlink:href="./DTEL_AGR_NAME.html" xlink:title="DTEL&#45;AGR_NAME">
<polygon fill="none" stroke="yellow" points="2287.76,-108 2153.39,-108 2153.39,-72 2287.76,-72 2287.76,-108"/>
<text text-anchor="middle" x="2220.58" y="-85.8" font-family="Times,serif" font-size="14.00">DTEL&#45;AGR_NAME</text>
</a>
</g>
</g>
<!-- TABL&#45;AGR_HIER&#45;&gt;DTEL&#45;AGR_NAME -->
<g id="edge2" class="edge">
<title>TABL&#45;AGR_HIER&#45;&gt;DTEL&#45;AGR_NAME</title>
<path fill="none" stroke="black" d="M1307.94,-160.77C1453.83,-159.49 1824.75,-151.92 2142.8,-108.12"/>
<polygon fill="black" stroke="black" points="2143.72,-111.52 2153.14,-106.68 2142.75,-104.59 2143.72,-111.52"/>
</g>
<!-- DTEL&#45;SYMANDT -->
<g id="node30" class="node">
<title>DTEL&#45;SYMANDT</title>
<g id="a_node30"><a xlink:href="./DTEL_SYMANDT.html" xlink:title="DTEL&#45;SYMANDT">
<polygon fill="none" stroke="yellow" points="2431.21,-108 2305.95,-108 2305.95,-72 2431.21,-72 2431.21,-108"/>
<text text-anchor="middle" x="2368.58" y="-85.8" font-family="Times,serif" font-size="14.00">DTEL&#45;SYMANDT</text>
</a>
</g>
</g>
<!-- TABL&#45;AGR_HIER&#45;&gt;DTEL&#45;SYMANDT -->
<g id="edge1" class="edge">
<title>TABL&#45;AGR_HIER&#45;&gt;DTEL&#45;SYMANDT</title>
<path fill="none" stroke="black" d="M1308.02,-159.32C1501.76,-153.94 2084.78,-135.95 2295.81,-107.9"/>
<polygon fill="black" stroke="black" points="2296.45,-111.34 2305.88,-106.51 2295.49,-104.41 2296.45,-111.34"/>
</g>
<!-- DOMA&#45;TEXT60 -->
<g id="node3" class="node">
<title>DOMA&#45;TEXT60</title>
<g id="a_node3"><a xlink:href="./DOMA_TEXT60.html" xlink:title="DOMA&#45;TEXT60">
<polygon fill="none" stroke="yellow" points="162.27,-36 48.89,-36 48.89,0 162.27,0 162.27,-36"/>
<text text-anchor="middle" x="105.58" y="-13.8" font-family="Times,serif" font-size="14.00">DOMA&#45;TEXT60</text>
</a>
</g>
</g>
<!-- DTEL&#45;MENU_DETAILS_ALIAS&#45;&gt;DOMA&#45;TEXT60 -->
<g id="edge16" class="edge">
<title>DTEL&#45;MENU_DETAILS_ALIAS&#45;&gt;DOMA&#45;TEXT60</title>
<path fill="none" stroke="black" d="M105.58,-71.7C105.58,-63.98 105.58,-54.71 105.58,-46.11"/>
<polygon fill="black" stroke="black" points="109.08,-46.1 105.58,-36.1 102.08,-46.1 109.08,-46.1"/>
</g>
<!-- DOMA&#45;CHAR16 -->
<g id="node5" class="node">
<title>DOMA&#45;CHAR16</title>
<g id="a_node5"><a xlink:href="./DOMA_CHAR16.html" xlink:title="DOMA&#45;CHAR16">
<polygon fill="none" stroke="yellow" points="361.89,-36 245.27,-36 245.27,0 361.89,0 361.89,-36"/>
<text text-anchor="middle" x="303.58" y="-13.8" font-family="Times,serif" font-size="14.00">DOMA&#45;CHAR16</text>
</a>
</g>
</g>
<!-- DTEL&#45;MENU_FLAGS&#45;&gt;DOMA&#45;CHAR16 -->
<g id="edge17" class="edge">
<title>DTEL&#45;MENU_FLAGS&#45;&gt;DOMA&#45;CHAR16</title>
<path fill="none" stroke="black" d="M303.58,-71.7C303.58,-63.98 303.58,-54.71 303.58,-46.11"/>
<polygon fill="black" stroke="black" points="307.08,-46.1 303.58,-36.1 300.08,-46.1 307.08,-46.1"/>
</g>
<!-- DOMA&#45;CHAR128_CASE -->
<g id="node7" class="node">
<title>DOMA&#45;CHAR128_CASE</title>
<g id="a_node7"><a xlink:href="./DOMA_CHAR128_CASE.html" xlink:title="DOMA&#45;CHAR128_CASE">
<polygon fill="none" stroke="yellow" points="547.67,-36 381.49,-36 381.49,0 547.67,0 547.67,-36"/>
<text text-anchor="middle" x="464.58" y="-13.8" font-family="Times,serif" font-size="14.00">DOMA&#45;CHAR128_CASE</text>
</a>
</g>
</g>
<!-- DTEL&#45;MENU_ICON&#45;&gt;DOMA&#45;CHAR128_CASE -->
<g id="edge18" class="edge">
<title>DTEL&#45;MENU_ICON&#45;&gt;DOMA&#45;CHAR128_CASE</title>
<path fill="none" stroke="black" d="M465.33,-71.7C465.22,-63.98 465.09,-54.71 464.97,-46.11"/>
<polygon fill="black" stroke="black" points="468.47,-46.05 464.82,-36.1 461.47,-46.15 468.47,-46.05"/>
</g>
<!-- DOMA&#45;COLOR_INFO -->
<g id="node9" class="node">
<title>DOMA&#45;COLOR_INFO</title>
<g id="a_node9"><a xlink:href="./DOMA_COLOR_INFO.html" xlink:title="DOMA&#45;COLOR_INFO">
<polygon fill="none" stroke="yellow" points="715.6,-36 565.56,-36 565.56,0 715.6,0 715.6,-36"/>
<text text-anchor="middle" x="640.58" y="-13.8" font-family="Times,serif" font-size="14.00">DOMA&#45;COLOR_INFO</text>
</a>
</g>
</g>
<!-- DTEL&#45;COLOR_INFO&#45;&gt;DOMA&#45;COLOR_INFO -->
<g id="edge19" class="edge">
<title>DTEL&#45;COLOR_INFO&#45;&gt;DOMA&#45;COLOR_INFO</title>
<path fill="none" stroke="black" d="M628.53,-71.7C630.3,-63.98 632.42,-54.71 634.38,-46.11"/>
<polygon fill="black" stroke="black" points="637.85,-46.63 636.67,-36.1 631.03,-45.07 637.85,-46.63"/>
</g>
<!-- DOMA&#45;NUM05 -->
<g id="node11" class="node">
<title>DOMA&#45;NUM05</title>
<g id="a_node11"><a xlink:href="./DOMA_NUM05.html" xlink:title="DOMA&#45;NUM05">
<polygon fill="none" stroke="yellow" points="844.66,-36 734.5,-36 734.5,0 844.66,0 844.66,-36"/>
<text text-anchor="middle" x="789.58" y="-13.8" font-family="Times,serif" font-size="14.00">DOMA&#45;NUM05</text>
</a>
</g>
</g>
<!-- DTEL&#45;MENU_NUM_5&#45;&gt;DOMA&#45;NUM05 -->
<g id="edge20" class="edge">
<title>DTEL&#45;MENU_NUM_5&#45;&gt;DOMA&#45;NUM05</title>
<path fill="none" stroke="black" d="M789.58,-71.7C789.58,-63.98 789.58,-54.71 789.58,-46.11"/>
<polygon fill="black" stroke="black" points="793.08,-46.1 789.58,-36.1 786.08,-46.1 793.08,-46.1"/>
</g>
<!-- DOMA&#45;RFCDEST -->
<g id="node13" class="node">
<title>DOMA&#45;RFCDEST</title>
<g id="a_node13"><a xlink:href="./DOMA_RFCDEST.html" xlink:title="DOMA&#45;RFCDEST">
<polygon fill="none" stroke="yellow" points="1004.95,-36 880.2,-36 880.2,0 1004.95,0 1004.95,-36"/>
<text text-anchor="middle" x="942.58" y="-13.8" font-family="Times,serif" font-size="14.00">DOMA&#45;RFCDEST</text>
</a>
</g>
</g>
<!-- DTEL&#45;RFCDEST&#45;&gt;DOMA&#45;RFCDEST -->
<g id="edge21" class="edge">
<title>DTEL&#45;RFCDEST&#45;&gt;DOMA&#45;RFCDEST</title>
<path fill="none" stroke="black" d="M942.58,-71.7C942.58,-63.98 942.58,-54.71 942.58,-46.11"/>
<polygon fill="black" stroke="black" points="946.08,-46.1 942.58,-36.1 939.08,-46.1 946.08,-46.1"/>
</g>
<!-- DOMA&#45;CHAR10 -->
<g id="node15" class="node">
<title>DOMA&#45;CHAR10</title>
<g id="a_node15"><a xlink:href="./DOMA_CHAR10.html" xlink:title="DOMA&#45;CHAR10">
<polygon fill="none" stroke="yellow" points="1148.89,-36 1032.27,-36 1032.27,0 1148.89,0 1148.89,-36"/>
<text text-anchor="middle" x="1090.58" y="-13.8" font-family="Times,serif" font-size="14.00">DOMA&#45;CHAR10</text>
</a>
</g>
</g>
<!-- DTEL&#45;MENU_ATTR&#45;&gt;DOMA&#45;CHAR10 -->
<g id="edge22" class="edge">
<title>DTEL&#45;MENU_ATTR&#45;&gt;DOMA&#45;CHAR10</title>
<path fill="none" stroke="black" d="M1090.58,-71.7C1090.58,-63.98 1090.58,-54.71 1090.58,-46.11"/>
<polygon fill="black" stroke="black" points="1094.08,-46.1 1090.58,-36.1 1087.08,-46.1 1094.08,-46.1"/>
</g>
<!-- DOMA&#45;SYCHAR32 -->
<g id="node17" class="node">
<title>DOMA&#45;SYCHAR32</title>
<g id="a_node17"><a xlink:href="./DOMA_SYCHAR32.html" xlink:title="DOMA&#45;SYCHAR32">
<polygon fill="none" stroke="yellow" points="1311.78,-36 1177.38,-36 1177.38,0 1311.78,0 1311.78,-36"/>
<text text-anchor="middle" x="1244.58" y="-13.8" font-family="Times,serif" font-size="14.00">DOMA&#45;SYCHAR32</text>
</a>
</g>
</g>
<!-- DTEL&#45;HIER_GUID&#45;&gt;DOMA&#45;SYCHAR32 -->
<g id="edge23" class="edge">
<title>DTEL&#45;HIER_GUID&#45;&gt;DOMA&#45;SYCHAR32</title>
<path fill="none" stroke="black" d="M1244.58,-71.7C1244.58,-63.98 1244.58,-54.71 1244.58,-46.11"/>
<polygon fill="black" stroke="black" points="1248.08,-46.1 1244.58,-36.1 1241.08,-46.1 1248.08,-46.1"/>
</g>
<!-- DOMA&#45;NUM02 -->
<g id="node19" class="node">
<title>DOMA&#45;NUM02</title>
<g id="a_node19"><a xlink:href="./DOMA_NUM02.html" xlink:title="DOMA&#45;NUM02">
<polygon fill="none" stroke="yellow" points="1458.66,-36 1348.5,-36 1348.5,0 1458.66,0 1458.66,-36"/>
<text text-anchor="middle" x="1403.58" y="-13.8" font-family="Times,serif" font-size="14.00">DOMA&#45;NUM02</text>
</a>
</g>
</g>
<!-- DTEL&#45;MENU_NUM_2&#45;&gt;DOMA&#45;NUM02 -->
<g id="edge24" class="edge">
<title>DTEL&#45;MENU_NUM_2&#45;&gt;DOMA&#45;NUM02</title>
<path fill="none" stroke="black" d="M1403.58,-71.7C1403.58,-63.98 1403.58,-54.71 1403.58,-46.11"/>
<polygon fill="black" stroke="black" points="1407.08,-46.1 1403.58,-36.1 1400.08,-46.1 1407.08,-46.1"/>
</g>
<!-- DOMA&#45;EXTDREPORT -->
<g id="node21" class="node">
<title>DOMA&#45;EXTDREPORT</title>
<g id="a_node21"><a xlink:href="./DOMA_EXTDREPORT.html" xlink:title="DOMA&#45;EXTDREPORT">
<polygon fill="none" stroke="yellow" points="1647.99,-36 1493.17,-36 1493.17,0 1647.99,0 1647.99,-36"/>
<text text-anchor="middle" x="1570.58" y="-13.8" font-family="Times,serif" font-size="14.00">DOMA&#45;EXTDREPORT</text>
</a>
</g>
</g>
<!-- DTEL&#45;EXTDREPORT&#45;&gt;DOMA&#45;EXTDREPORT -->
<g id="edge25" class="edge">
<title>DTEL&#45;EXTDREPORT&#45;&gt;DOMA&#45;EXTDREPORT</title>
<path fill="none" stroke="black" d="M1570.58,-71.7C1570.58,-63.98 1570.58,-54.71 1570.58,-46.11"/>
<polygon fill="black" stroke="black" points="1574.08,-46.1 1570.58,-36.1 1567.08,-46.1 1574.08,-46.1"/>
</g>
<!-- DOMA&#45;CHAR2REP -->
<g id="node23" class="node">
<title>DOMA&#45;CHAR2REP</title>
<g id="a_node23"><a xlink:href="./DOMA_CHAR2REP.html" xlink:title="DOMA&#45;CHAR2REP">
<polygon fill="none" stroke="yellow" points="1802.06,-36 1667.1,-36 1667.1,0 1802.06,0 1802.06,-36"/>
<text text-anchor="middle" x="1734.58" y="-13.8" font-family="Times,serif" font-size="14.00">DOMA&#45;CHAR2REP</text>
</a>
</g>
</g>
<!-- DTEL&#45;REPORTTYPE&#45;&gt;DOMA&#45;CHAR2REP -->
<g id="edge26" class="edge">
<title>DTEL&#45;REPORTTYPE&#45;&gt;DOMA&#45;CHAR2REP</title>
<path fill="none" stroke="black" d="M1734.58,-71.7C1734.58,-63.98 1734.58,-54.71 1734.58,-46.11"/>
<polygon fill="black" stroke="black" points="1738.08,-46.1 1734.58,-36.1 1731.08,-46.1 1738.08,-46.1"/>
</g>
<!-- DOMA&#45;CHAR1 -->
<g id="node25" class="node">
<title>DOMA&#45;CHAR1</title>
<g id="a_node25"><a xlink:href="./DOMA_CHAR1.html" xlink:title="DOMA&#45;CHAR1">
<polygon fill="none" stroke="green" points="1950.39,-36 1840.77,-36 1840.77,0 1950.39,0 1950.39,-36"/>
<text text-anchor="middle" x="1895.58" y="-13.8" font-family="Times,serif" font-size="14.00">DOMA&#45;CHAR1</text>
</a>
</g>
</g>
<!-- DTEL&#45;MENU_FLAG&#45;&gt;DOMA&#45;CHAR1 -->
<g id="edge27" class="edge">
<title>DTEL&#45;MENU_FLAG&#45;&gt;DOMA&#45;CHAR1</title>
<path fill="none" stroke="black" d="M1895.58,-71.7C1895.58,-63.98 1895.58,-54.71 1895.58,-46.11"/>
<polygon fill="black" stroke="black" points="1899.08,-46.1 1895.58,-36.1 1892.08,-46.1 1899.08,-46.1"/>
</g>
<!-- DOMA&#45;NUM08 -->
<g id="node27" class="node">
<title>DOMA&#45;NUM08</title>
<g id="a_node27"><a xlink:href="./DOMA_NUM08.html" xlink:title="DOMA&#45;NUM08">
<polygon fill="none" stroke="yellow" points="2114.66,-36 2004.5,-36 2004.5,0 2114.66,0 2114.66,-36"/>
<text text-anchor="middle" x="2059.58" y="-13.8" font-family="Times,serif" font-size="14.00">DOMA&#45;NUM08</text>
</a>
</g>
</g>
<!-- DTEL&#45;MENU_NUM_8&#45;&gt;DOMA&#45;NUM08 -->
<g id="edge28" class="edge">
<title>DTEL&#45;MENU_NUM_8&#45;&gt;DOMA&#45;NUM08</title>
<path fill="none" stroke="black" d="M2059.58,-71.7C2059.58,-63.98 2059.58,-54.71 2059.58,-46.11"/>
<polygon fill="black" stroke="black" points="2063.08,-46.1 2059.58,-36.1 2056.08,-46.1 2063.08,-46.1"/>
</g>
<!-- DOMA&#45;AGR_NAME -->
<g id="node29" class="node">
<title>DOMA&#45;AGR_NAME</title>
<g id="a_node29"><a xlink:href="./DOMA_AGR_NAME.html" xlink:title="DOMA&#45;AGR_NAME">
<polygon fill="none" stroke="yellow" points="2291.26,-36 2149.89,-36 2149.89,0 2291.26,0 2291.26,-36"/>
<text text-anchor="middle" x="2220.58" y="-13.8" font-family="Times,serif" font-size="14.00">DOMA&#45;AGR_NAME</text>
</a>
</g>
</g>
<!-- DTEL&#45;AGR_NAME&#45;&gt;DOMA&#45;AGR_NAME -->
<g id="edge29" class="edge">
<title>DTEL&#45;AGR_NAME&#45;&gt;DOMA&#45;AGR_NAME</title>
<path fill="none" stroke="black" d="M2220.58,-71.7C2220.58,-63.98 2220.58,-54.71 2220.58,-46.11"/>
<polygon fill="black" stroke="black" points="2224.08,-46.1 2220.58,-36.1 2217.08,-46.1 2224.08,-46.1"/>
</g>
<!-- DOMA&#45;MANDT -->
<g id="node31" class="node">
<title>DOMA&#45;MANDT</title>
<g id="a_node31"><a xlink:href="./DOMA_MANDT.html" xlink:title="DOMA&#45;MANDT">
<polygon fill="none" stroke="yellow" points="2425.82,-36 2311.34,-36 2311.34,0 2425.82,0 2425.82,-36"/>
<text text-anchor="middle" x="2368.58" y="-13.8" font-family="Times,serif" font-size="14.00">DOMA&#45;MANDT</text>
</a>
</g>
</g>
<!-- DTEL&#45;SYMANDT&#45;&gt;DOMA&#45;MANDT -->
<g id="edge30" class="edge">
<title>DTEL&#45;SYMANDT&#45;&gt;DOMA&#45;MANDT</title>
<path fill="none" stroke="black" d="M2368.58,-71.7C2368.58,-63.98 2368.58,-54.71 2368.58,-46.11"/>
<polygon fill="black" stroke="black" points="2372.08,-46.1 2368.58,-36.1 2365.08,-46.1 2372.08,-46.1"/>
</g>
</g>
</svg>
