<?xml version="1.0" encoding="UTF-8" standalone="no"?>
<!DOCTYPE svg PUBLIC "-//W3C//DTD SVG 1.1//EN"
 "http://www.w3.org/Graphics/SVG/1.1/DTD/svg11.dtd">
<!-- Generated by graphviz version 2.47.3 (20210619.1520)
 -->
<!-- Title: G Pages: 1 -->
<svg width="300pt" height="188pt"
 viewBox="0.00 0.00 300.30 188.00" xmlns="http://www.w3.org/2000/svg" xmlns:xlink="http://www.w3.org/1999/xlink">
<g id="graph0" class="graph" transform="scale(1 1) rotate(0) translate(4 184)">
<title>G</title>
<polygon fill="white" stroke="transparent" points="-4,4 -4,-184 296.3,-184 296.3,4 -4,4"/>
<!-- TABL&#45;BAPIRANGES -->
<g id="node1" class="node">
<title>TABL&#45;BAPIRANGES</title>
<polygon fill="none" stroke="green" points="222.9,-180 77.73,-180 77.73,-144 222.9,-144 222.9,-180"/>
<text text-anchor="middle" x="150.31" y="-157.8" font-family="Times,serif" font-size="14.00">TABL&#45;BAPIRANGES</text>
</g>
<!-- DTEL&#45;BAPIOPTION -->
<g id="node2" class="node">
<title>DTEL&#45;BAPIOPTION</title>
<g id="a_node2"><a xlink:href="./DTEL_BAPIOPTION.html" xlink:title="DTEL&#45;BAPIOPTION">
<polygon fill="none" stroke="green" points="144.94,-108 5.69,-108 5.69,-72 144.94,-72 144.94,-108"/>
<text text-anchor="middle" x="75.31" y="-85.8" font-family="Times,serif" font-size="14.00">DTEL&#45;BAPIOPTION</text>
</a>
</g>
</g>
<!-- TABL&#45;BAPIRANGES&#45;&gt;DTEL&#45;BAPIOPTION -->
<g id="edge2" class="edge">
<title>TABL&#45;BAPIRANGES&#45;&gt;DTEL&#45;BAPIOPTION</title>
<path fill="none" stroke="black" d="M131.77,-143.7C122.51,-135.05 111.15,-124.45 101.06,-115.03"/>
<polygon fill="black" stroke="black" points="103.34,-112.37 93.64,-108.1 98.56,-117.49 103.34,-112.37"/>
</g>
<!-- DTEL&#45;BAPISIGN -->
<g id="node4" class="node">
<title>DTEL&#45;BAPISIGN</title>
<g id="a_node4"><a xlink:href="./DTEL_BAPISIGN.html" xlink:title="DTEL&#45;BAPISIGN">
<polygon fill="none" stroke="green" points="286.78,-108 165.85,-108 165.85,-72 286.78,-72 286.78,-108"/>
<text text-anchor="middle" x="226.31" y="-85.8" font-family="Times,serif" font-size="14.00">DTEL&#45;BAPISIGN</text>
</a>
</g>
</g>
<!-- TABL&#45;BAPIRANGES&#45;&gt;DTEL&#45;BAPISIGN -->
<g id="edge1" class="edge">
<title>TABL&#45;BAPIRANGES&#45;&gt;DTEL&#45;BAPISIGN</title>
<path fill="none" stroke="black" d="M169.1,-143.7C178.49,-135.05 190,-124.45 200.23,-115.03"/>
<polygon fill="black" stroke="black" points="202.76,-117.45 207.74,-108.1 198.02,-112.3 202.76,-117.45"/>
</g>
<!-- DOMA&#45;BAPIOPTION -->
<g id="node3" class="node">
<title>DOMA&#45;BAPIOPTION</title>
<g id="a_node3"><a xlink:href="./DOMA_BAPIOPTION.html" xlink:title="DOMA&#45;BAPIOPTION">
<polygon fill="none" stroke="yellow" points="146.44,-36 0.19,-36 0.19,0 146.44,0 146.44,-36"/>
<text text-anchor="middle" x="73.31" y="-13.8" font-family="Times,serif" font-size="14.00">DOMA&#45;BAPIOPTION</text>
</a>
</g>
</g>
<!-- DTEL&#45;BAPIOPTION&#45;&gt;DOMA&#45;BAPIOPTION -->
<g id="edge3" class="edge">
<title>DTEL&#45;BAPIOPTION&#45;&gt;DOMA&#45;BAPIOPTION</title>
<path fill="none" stroke="black" d="M74.82,-71.7C74.6,-63.98 74.33,-54.71 74.09,-46.11"/>
<polygon fill="black" stroke="black" points="77.59,-46 73.8,-36.1 70.59,-46.2 77.59,-46"/>
</g>
<!-- DOMA&#45;BAPISIGN -->
<g id="node5" class="node">
<title>DOMA&#45;BAPISIGN</title>
<g id="a_node5"><a xlink:href="./DOMA_BAPISIGN.html" xlink:title="DOMA&#45;BAPISIGN">
<polygon fill="none" stroke="yellow" points="292.28,-36 164.35,-36 164.35,0 292.28,0 292.28,-36"/>
<text text-anchor="middle" x="228.31" y="-13.8" font-family="Times,serif" font-size="14.00">DOMA&#45;BAPISIGN</text>
</a>
</g>
</g>
<!-- DTEL&#45;BAPISIGN&#45;&gt;DOMA&#45;BAPISIGN -->
<g id="edge4" class="edge">
<title>DTEL&#45;BAPISIGN&#45;&gt;DOMA&#45;BAPISIGN</title>
<path fill="none" stroke="black" d="M226.81,-71.7C227.03,-63.98 227.29,-54.71 227.54,-46.11"/>
<polygon fill="black" stroke="black" points="231.04,-46.2 227.82,-36.1 224.04,-46 231.04,-46.2"/>
</g>
</g>
</svg>
