<?xml version="1.0" encoding="UTF-8" standalone="no"?>
<!DOCTYPE svg PUBLIC "-//W3C//DTD SVG 1.1//EN"
 "http://www.w3.org/Graphics/SVG/1.1/DTD/svg11.dtd">
<!-- Generated by graphviz version 2.47.3 (20210619.1520)
 -->
<!-- Title: G Pages: 1 -->
<svg width="560pt" height="188pt"
 viewBox="0.00 0.00 560.07 188.00" xmlns="http://www.w3.org/2000/svg" xmlns:xlink="http://www.w3.org/1999/xlink">
<g id="graph0" class="graph" transform="scale(1 1) rotate(0) translate(4 184)">
<title>G</title>
<polygon fill="white" stroke="transparent" points="-4,4 -4,-184 556.07,-184 556.07,4 -4,4"/>
<!-- TABL&#45;SXCO_S_CDS_ANN_RT_DATA -->
<g id="node1" class="node">
<title>TABL&#45;SXCO_S_CDS_ANN_RT_DATA</title>
<polygon fill="none" stroke="yellow" points="348.74,-180 97.48,-180 97.48,-144 348.74,-144 348.74,-180"/>
<text text-anchor="middle" x="223.11" y="-157.8" font-family="Times,serif" font-size="14.00">TABL&#45;SXCO_S_CDS_ANN_RT_DATA</text>
</g>
<!-- DTEL&#45;SPRAS -->
<g id="node2" class="node">
<title>DTEL&#45;SPRAS</title>
<g id="a_node2"><a xlink:href="./DTEL_SPRAS.html" xlink:title="DTEL&#45;SPRAS">
<polygon fill="none" stroke="green" points="102.82,-108 3.39,-108 3.39,-72 102.82,-72 102.82,-108"/>
<text text-anchor="middle" x="53.11" y="-85.8" font-family="Times,serif" font-size="14.00">DTEL&#45;SPRAS</text>
</a>
</g>
</g>
<!-- TABL&#45;SXCO_S_CDS_ANN_RT_DATA&#45;&gt;DTEL&#45;SPRAS -->
<g id="edge3" class="edge">
<title>TABL&#45;SXCO_S_CDS_ANN_RT_DATA&#45;&gt;DTEL&#45;SPRAS</title>
<path fill="none" stroke="black" d="M181.52,-143.88C158.07,-134.22 128.6,-122.09 103.81,-111.88"/>
<polygon fill="black" stroke="black" points="105.14,-108.64 94.56,-108.07 102.47,-115.11 105.14,-108.64"/>
</g>
<!-- DTEL&#45;DDANNOTATION_VAL -->
<g id="node4" class="node">
<title>DTEL&#45;DDANNOTATION_VAL</title>
<g id="a_node4"><a xlink:href="./DTEL_DDANNOTATION_VAL.html" xlink:title="DTEL&#45;DDANNOTATION_VAL">
<polygon fill="none" stroke="yellow" points="325.52,-108 120.69,-108 120.69,-72 325.52,-72 325.52,-108"/>
<text text-anchor="middle" x="223.11" y="-85.8" font-family="Times,serif" font-size="14.00">DTEL&#45;DDANNOTATION_VAL</text>
</a>
</g>
</g>
<!-- TABL&#45;SXCO_S_CDS_ANN_RT_DATA&#45;&gt;DTEL&#45;DDANNOTATION_VAL -->
<g id="edge2" class="edge">
<title>TABL&#45;SXCO_S_CDS_ANN_RT_DATA&#45;&gt;DTEL&#45;DDANNOTATION_VAL</title>
<path fill="none" stroke="black" d="M223.11,-143.7C223.11,-135.98 223.11,-126.71 223.11,-118.11"/>
<polygon fill="black" stroke="black" points="226.61,-118.1 223.11,-108.1 219.61,-118.1 226.61,-118.1"/>
</g>
<!-- DTEL&#45;DDANNOTATION_KEY -->
<g id="node5" class="node">
<title>DTEL&#45;DDANNOTATION_KEY</title>
<g id="a_node5"><a xlink:href="./DTEL_DDANNOTATION_KEY.html" xlink:title="DTEL&#45;DDANNOTATION_KEY">
<polygon fill="none" stroke="yellow" points="548.52,-108 343.69,-108 343.69,-72 548.52,-72 548.52,-108"/>
<text text-anchor="middle" x="446.11" y="-85.8" font-family="Times,serif" font-size="14.00">DTEL&#45;DDANNOTATION_KEY</text>
</a>
</g>
</g>
<!-- TABL&#45;SXCO_S_CDS_ANN_RT_DATA&#45;&gt;DTEL&#45;DDANNOTATION_KEY -->
<g id="edge1" class="edge">
<title>TABL&#45;SXCO_S_CDS_ANN_RT_DATA&#45;&gt;DTEL&#45;DDANNOTATION_KEY</title>
<path fill="none" stroke="black" d="M277.37,-143.97C308.94,-134.06 348.9,-121.51 382.01,-111.12"/>
<polygon fill="black" stroke="black" points="383.11,-114.45 391.6,-108.11 381.01,-107.77 383.11,-114.45"/>
</g>
<!-- DOMA&#45;SPRAS -->
<g id="node3" class="node">
<title>DOMA&#45;SPRAS</title>
<g id="a_node3"><a xlink:href="./DOMA_SPRAS.html" xlink:title="DOMA&#45;SPRAS">
<polygon fill="none" stroke="green" points="106.32,-36 -0.11,-36 -0.11,0 106.32,0 106.32,-36"/>
<text text-anchor="middle" x="53.11" y="-13.8" font-family="Times,serif" font-size="14.00">DOMA&#45;SPRAS</text>
</a>
</g>
</g>
<!-- DTEL&#45;SPRAS&#45;&gt;DOMA&#45;SPRAS -->
<g id="edge4" class="edge">
<title>DTEL&#45;SPRAS&#45;&gt;DOMA&#45;SPRAS</title>
<path fill="none" stroke="black" d="M53.11,-71.7C53.11,-63.98 53.11,-54.71 53.11,-46.11"/>
<polygon fill="black" stroke="black" points="56.61,-46.1 53.11,-36.1 49.61,-46.1 56.61,-46.1"/>
</g>
<!-- DOMA&#45;DDANNOTATION_KEY -->
<g id="node6" class="node">
<title>DOMA&#45;DDANNOTATION_KEY</title>
<g id="a_node6"><a xlink:href="./DOMA_DDANNOTATION_KEY.html" xlink:title="DOMA&#45;DDANNOTATION_KEY">
<polygon fill="none" stroke="yellow" points="552.02,-36 340.19,-36 340.19,0 552.02,0 552.02,-36"/>
<text text-anchor="middle" x="446.11" y="-13.8" font-family="Times,serif" font-size="14.00">DOMA&#45;DDANNOTATION_KEY</text>
</a>
</g>
</g>
<!-- DTEL&#45;DDANNOTATION_KEY&#45;&gt;DOMA&#45;DDANNOTATION_KEY -->
<g id="edge5" class="edge">
<title>DTEL&#45;DDANNOTATION_KEY&#45;&gt;DOMA&#45;DDANNOTATION_KEY</title>
<path fill="none" stroke="black" d="M446.11,-71.7C446.11,-63.98 446.11,-54.71 446.11,-46.11"/>
<polygon fill="black" stroke="black" points="449.61,-46.1 446.11,-36.1 442.61,-46.1 449.61,-46.1"/>
</g>
</g>
</svg>
