<?xml version="1.0" encoding="UTF-8" standalone="no"?>
<!DOCTYPE svg PUBLIC "-//W3C//DTD SVG 1.1//EN"
 "http://www.w3.org/Graphics/SVG/1.1/DTD/svg11.dtd">
<!-- Generated by graphviz version 2.47.3 (20210619.1520)
 -->
<!-- Title: G Pages: 1 -->
<svg width="176pt" height="188pt"
 viewBox="0.00 0.00 176.39 188.00" xmlns="http://www.w3.org/2000/svg" xmlns:xlink="http://www.w3.org/1999/xlink">
<g id="graph0" class="graph" transform="scale(1 1) rotate(0) translate(4 184)">
<title>G</title>
<polygon fill="white" stroke="transparent" points="-4,4 -4,-184 172.39,-184 172.39,4 -4,4"/>
<!-- TABL&#45;SFPINITIALVIEW -->
<g id="node1" class="node">
<title>TABL&#45;SFPINITIALVIEW</title>
<polygon fill="none" stroke="yellow" points="168.59,-180 -0.2,-180 -0.2,-144 168.59,-144 168.59,-180"/>
<text text-anchor="middle" x="84.2" y="-157.8" font-family="Times,serif" font-size="14.00">TABL&#45;SFPINITIALVIEW</text>
</g>
<!-- DTEL&#45;FPBOOLEAN -->
<g id="node2" class="node">
<title>DTEL&#45;FPBOOLEAN</title>
<g id="a_node2"><a xlink:href="./DTEL_FPBOOLEAN.html" xlink:title="DTEL&#45;FPBOOLEAN">
<polygon fill="none" stroke="yellow" points="153.55,-108 14.84,-108 14.84,-72 153.55,-72 153.55,-108"/>
<text text-anchor="middle" x="84.2" y="-85.8" font-family="Times,serif" font-size="14.00">DTEL&#45;FPBOOLEAN</text>
</a>
</g>
</g>
<!-- TABL&#45;SFPINITIALVIEW&#45;&gt;DTEL&#45;FPBOOLEAN -->
<g id="edge1" class="edge">
<title>TABL&#45;SFPINITIALVIEW&#45;&gt;DTEL&#45;FPBOOLEAN</title>
<path fill="none" stroke="black" d="M84.2,-143.7C84.2,-135.98 84.2,-126.71 84.2,-118.11"/>
<polygon fill="black" stroke="black" points="87.7,-118.1 84.2,-108.1 80.7,-118.1 87.7,-118.1"/>
</g>
<!-- DOMA&#45;FPBOOLEAN -->
<g id="node3" class="node">
<title>DOMA&#45;FPBOOLEAN</title>
<g id="a_node3"><a xlink:href="./DOMA_FPBOOLEAN.html" xlink:title="DOMA&#45;FPBOOLEAN">
<polygon fill="none" stroke="yellow" points="157.05,-36 11.34,-36 11.34,0 157.05,0 157.05,-36"/>
<text text-anchor="middle" x="84.2" y="-13.8" font-family="Times,serif" font-size="14.00">DOMA&#45;FPBOOLEAN</text>
</a>
</g>
</g>
<!-- DTEL&#45;FPBOOLEAN&#45;&gt;DOMA&#45;FPBOOLEAN -->
<g id="edge2" class="edge">
<title>DTEL&#45;FPBOOLEAN&#45;&gt;DOMA&#45;FPBOOLEAN</title>
<path fill="none" stroke="black" d="M84.2,-71.7C84.2,-63.98 84.2,-54.71 84.2,-46.11"/>
<polygon fill="black" stroke="black" points="87.7,-46.1 84.2,-36.1 80.7,-46.1 87.7,-46.1"/>
</g>
</g>
</svg>
