<?xml version="1.0" encoding="UTF-8" standalone="no"?>
<!DOCTYPE svg PUBLIC "-//W3C//DTD SVG 1.1//EN"
 "http://www.w3.org/Graphics/SVG/1.1/DTD/svg11.dtd">
<!-- Generated by graphviz version 2.47.3 (20210619.1520)
 -->
<!-- Title: G Pages: 1 -->
<svg width="1137pt" height="188pt"
 viewBox="0.00 0.00 1137.13 188.00" xmlns="http://www.w3.org/2000/svg" xmlns:xlink="http://www.w3.org/1999/xlink">
<g id="graph0" class="graph" transform="scale(1 1) rotate(0) translate(4 184)">
<title>G</title>
<polygon fill="white" stroke="transparent" points="-4,4 -4,-184 1133.13,-184 1133.13,4 -4,4"/>
<!-- TABL&#45;SUID_ST_NODE_SNC -->
<g id="node1" class="node">
<title>TABL&#45;SUID_ST_NODE_SNC</title>
<polygon fill="none" stroke="yellow" points="648.94,-180 455.35,-180 455.35,-144 648.94,-144 648.94,-180"/>
<text text-anchor="middle" x="552.14" y="-157.8" font-family="Times,serif" font-size="14.00">TABL&#45;SUID_ST_NODE_SNC</text>
</g>
<!-- DTEL&#45;XUMODIFIER -->
<g id="node2" class="node">
<title>DTEL&#45;XUMODIFIER</title>
<g id="a_node2"><a xlink:href="./DTEL_XUMODIFIER.html" xlink:title="DTEL&#45;XUMODIFIER">
<polygon fill="none" stroke="yellow" points="144.43,-108 -0.14,-108 -0.14,-72 144.43,-72 144.43,-108"/>
<text text-anchor="middle" x="72.14" y="-85.8" font-family="Times,serif" font-size="14.00">DTEL&#45;XUMODIFIER</text>
</a>
</g>
</g>
<!-- TABL&#45;SUID_ST_NODE_SNC&#45;&gt;DTEL&#45;XUMODIFIER -->
<g id="edge7" class="edge">
<title>TABL&#45;SUID_ST_NODE_SNC&#45;&gt;DTEL&#45;XUMODIFIER</title>
<path fill="none" stroke="black" d="M455.49,-150.21C376.95,-140.97 263.09,-126.5 154.66,-108.19"/>
<polygon fill="black" stroke="black" points="154.96,-104.7 144.52,-106.47 153.79,-111.6 154.96,-104.7"/>
</g>
<!-- DTEL&#45;XUMODTIME -->
<g id="node4" class="node">
<title>DTEL&#45;XUMODTIME</title>
<g id="a_node4"><a xlink:href="./DTEL_XUMODTIME.html" xlink:title="DTEL&#45;XUMODTIME">
<polygon fill="none" stroke="yellow" points="305.65,-108 162.64,-108 162.64,-72 305.65,-72 305.65,-108"/>
<text text-anchor="middle" x="234.14" y="-85.8" font-family="Times,serif" font-size="14.00">DTEL&#45;XUMODTIME</text>
</a>
</g>
</g>
<!-- TABL&#45;SUID_ST_NODE_SNC&#45;&gt;DTEL&#45;XUMODTIME -->
<g id="edge6" class="edge">
<title>TABL&#45;SUID_ST_NODE_SNC&#45;&gt;DTEL&#45;XUMODTIME</title>
<path fill="none" stroke="black" d="M474.76,-143.97C426.6,-133.36 364.74,-119.75 315.8,-108.97"/>
<polygon fill="black" stroke="black" points="316.39,-105.52 305.88,-106.79 314.89,-112.36 316.39,-105.52"/>
</g>
<!-- DTEL&#45;XUMODDATE -->
<g id="node6" class="node">
<title>DTEL&#45;XUMODDATE</title>
<g id="a_node6"><a xlink:href="./DTEL_XUMODDATE.html" xlink:title="DTEL&#45;XUMODDATE">
<polygon fill="none" stroke="yellow" points="470.26,-108 324.03,-108 324.03,-72 470.26,-72 470.26,-108"/>
<text text-anchor="middle" x="397.14" y="-85.8" font-family="Times,serif" font-size="14.00">DTEL&#45;XUMODDATE</text>
</a>
</g>
</g>
<!-- TABL&#45;SUID_ST_NODE_SNC&#45;&gt;DTEL&#45;XUMODDATE -->
<g id="edge5" class="edge">
<title>TABL&#45;SUID_ST_NODE_SNC&#45;&gt;DTEL&#45;XUMODDATE</title>
<path fill="none" stroke="black" d="M514.23,-143.88C493.13,-134.35 466.69,-122.41 444.27,-112.28"/>
<polygon fill="black" stroke="black" points="445.49,-108.99 434.94,-108.07 442.61,-115.37 445.49,-108.99"/>
</g>
<!-- DTEL&#45;XUBNAME -->
<g id="node8" class="node">
<title>DTEL&#45;XUBNAME</title>
<g id="a_node8"><a xlink:href="./DTEL_XUBNAME.html" xlink:title="DTEL&#45;XUBNAME">
<polygon fill="none" stroke="yellow" points="615.83,-108 488.46,-108 488.46,-72 615.83,-72 615.83,-108"/>
<text text-anchor="middle" x="552.14" y="-85.8" font-family="Times,serif" font-size="14.00">DTEL&#45;XUBNAME</text>
</a>
</g>
</g>
<!-- TABL&#45;SUID_ST_NODE_SNC&#45;&gt;DTEL&#45;XUBNAME -->
<g id="edge4" class="edge">
<title>TABL&#45;SUID_ST_NODE_SNC&#45;&gt;DTEL&#45;XUBNAME</title>
<path fill="none" stroke="black" d="M552.14,-143.7C552.14,-135.98 552.14,-126.71 552.14,-118.11"/>
<polygon fill="black" stroke="black" points="555.64,-118.1 552.14,-108.1 548.64,-118.1 555.64,-118.1"/>
</g>
<!-- DTEL&#45;SUID_SNC_KSTAT -->
<g id="node10" class="node">
<title>DTEL&#45;SUID_SNC_KSTAT</title>
<g id="a_node10"><a xlink:href="./DTEL_SUID_SNC_KSTAT.html" xlink:title="DTEL&#45;SUID_SNC_KSTAT">
<polygon fill="none" stroke="yellow" points="809.05,-108 633.24,-108 633.24,-72 809.05,-72 809.05,-108"/>
<text text-anchor="middle" x="721.14" y="-85.8" font-family="Times,serif" font-size="14.00">DTEL&#45;SUID_SNC_KSTAT</text>
</a>
</g>
</g>
<!-- TABL&#45;SUID_ST_NODE_SNC&#45;&gt;DTEL&#45;SUID_SNC_KSTAT -->
<g id="edge3" class="edge">
<title>TABL&#45;SUID_ST_NODE_SNC&#45;&gt;DTEL&#45;SUID_SNC_KSTAT</title>
<path fill="none" stroke="black" d="M593.49,-143.88C616.69,-134.26 645.83,-122.19 670.41,-112.01"/>
<polygon fill="black" stroke="black" points="672.04,-115.13 679.94,-108.07 669.36,-108.66 672.04,-115.13"/>
</g>
<!-- DTEL&#45;SNC_PNAME -->
<g id="node12" class="node">
<title>DTEL&#45;SNC_PNAME</title>
<g id="a_node12"><a xlink:href="./DTEL_SNC_PNAME.html" xlink:title="DTEL&#45;SNC_PNAME">
<polygon fill="none" stroke="yellow" points="967.79,-108 828.5,-108 828.5,-72 967.79,-72 967.79,-108"/>
<text text-anchor="middle" x="898.14" y="-85.8" font-family="Times,serif" font-size="14.00">DTEL&#45;SNC_PNAME</text>
</a>
</g>
</g>
<!-- TABL&#45;SUID_ST_NODE_SNC&#45;&gt;DTEL&#45;SNC_PNAME -->
<g id="edge2" class="edge">
<title>TABL&#45;SUID_ST_NODE_SNC&#45;&gt;DTEL&#45;SNC_PNAME</title>
<path fill="none" stroke="black" d="M639.06,-143.97C691.05,-133.71 758.42,-120.3 818.14,-108 818.25,-107.98 818.35,-107.96 818.46,-107.94"/>
<polygon fill="black" stroke="black" points="819.26,-111.34 828.35,-105.89 817.84,-104.49 819.26,-111.34"/>
</g>
<!-- DTEL&#45;SNC_GUIFLG -->
<g id="node14" class="node">
<title>DTEL&#45;SNC_GUIFLG</title>
<g id="a_node14"><a xlink:href="./DTEL_SNC_GUIFLG.html" xlink:title="DTEL&#45;SNC_GUIFLG">
<polygon fill="none" stroke="yellow" points="1129.11,-108 987.18,-108 987.18,-72 1129.11,-72 1129.11,-108"/>
<text text-anchor="middle" x="1058.14" y="-85.8" font-family="Times,serif" font-size="14.00">DTEL&#45;SNC_GUIFLG</text>
</a>
</g>
</g>
<!-- TABL&#45;SUID_ST_NODE_SNC&#45;&gt;DTEL&#45;SNC_GUIFLG -->
<g id="edge1" class="edge">
<title>TABL&#45;SUID_ST_NODE_SNC&#45;&gt;DTEL&#45;SNC_GUIFLG</title>
<path fill="none" stroke="black" d="M649.11,-151.22C735.47,-141.96 865.12,-126.71 977.14,-108 977.25,-107.98 977.35,-107.97 977.45,-107.95"/>
<polygon fill="black" stroke="black" points="977.84,-111.43 987.09,-106.26 976.64,-104.54 977.84,-111.43"/>
</g>
<!-- DOMA&#45;BNAME -->
<g id="node3" class="node">
<title>DOMA&#45;BNAME</title>
<g id="a_node3"><a xlink:href="./DOMA_BNAME.html" xlink:title="DOMA&#45;BNAME">
<polygon fill="none" stroke="yellow" points="129.12,-36 15.17,-36 15.17,0 129.12,0 129.12,-36"/>
<text text-anchor="middle" x="72.14" y="-13.8" font-family="Times,serif" font-size="14.00">DOMA&#45;BNAME</text>
</a>
</g>
</g>
<!-- DTEL&#45;XUMODIFIER&#45;&gt;DOMA&#45;BNAME -->
<g id="edge8" class="edge">
<title>DTEL&#45;XUMODIFIER&#45;&gt;DOMA&#45;BNAME</title>
<path fill="none" stroke="black" d="M72.14,-71.7C72.14,-63.98 72.14,-54.71 72.14,-46.11"/>
<polygon fill="black" stroke="black" points="75.64,-46.1 72.14,-36.1 68.64,-46.1 75.64,-46.1"/>
</g>
<!-- DOMA&#45;UZEIT -->
<g id="node5" class="node">
<title>DOMA&#45;UZEIT</title>
<g id="a_node5"><a xlink:href="./DOMA_UZEIT.html" xlink:title="DOMA&#45;UZEIT">
<polygon fill="none" stroke="yellow" points="285.99,-36 182.29,-36 182.29,0 285.99,0 285.99,-36"/>
<text text-anchor="middle" x="234.14" y="-13.8" font-family="Times,serif" font-size="14.00">DOMA&#45;UZEIT</text>
</a>
</g>
</g>
<!-- DTEL&#45;XUMODTIME&#45;&gt;DOMA&#45;UZEIT -->
<g id="edge9" class="edge">
<title>DTEL&#45;XUMODTIME&#45;&gt;DOMA&#45;UZEIT</title>
<path fill="none" stroke="black" d="M234.14,-71.7C234.14,-63.98 234.14,-54.71 234.14,-46.11"/>
<polygon fill="black" stroke="black" points="237.64,-46.1 234.14,-36.1 230.64,-46.1 237.64,-46.1"/>
</g>
<!-- DOMA&#45;DATUM -->
<g id="node7" class="node">
<title>DOMA&#45;DATUM</title>
<g id="a_node7"><a xlink:href="./DOMA_DATUM.html" xlink:title="DOMA&#45;DATUM">
<polygon fill="none" stroke="yellow" points="454.39,-36 339.9,-36 339.9,0 454.39,0 454.39,-36"/>
<text text-anchor="middle" x="397.14" y="-13.8" font-family="Times,serif" font-size="14.00">DOMA&#45;DATUM</text>
</a>
</g>
</g>
<!-- DTEL&#45;XUMODDATE&#45;&gt;DOMA&#45;DATUM -->
<g id="edge10" class="edge">
<title>DTEL&#45;XUMODDATE&#45;&gt;DOMA&#45;DATUM</title>
<path fill="none" stroke="black" d="M397.14,-71.7C397.14,-63.98 397.14,-54.71 397.14,-46.11"/>
<polygon fill="black" stroke="black" points="400.64,-46.1 397.14,-36.1 393.64,-46.1 400.64,-46.1"/>
</g>
<!-- DOMA&#45;XUBNAME -->
<g id="node9" class="node">
<title>DOMA&#45;XUBNAME</title>
<g id="a_node9"><a xlink:href="./DOMA_XUBNAME.html" xlink:title="DOMA&#45;XUBNAME">
<polygon fill="none" stroke="yellow" points="611.33,-36 476.96,-36 476.96,0 611.33,0 611.33,-36"/>
<text text-anchor="middle" x="544.14" y="-13.8" font-family="Times,serif" font-size="14.00">DOMA&#45;XUBNAME</text>
</a>
</g>
</g>
<!-- DTEL&#45;XUBNAME&#45;&gt;DOMA&#45;XUBNAME -->
<g id="edge11" class="edge">
<title>DTEL&#45;XUBNAME&#45;&gt;DOMA&#45;XUBNAME</title>
<path fill="none" stroke="black" d="M550.17,-71.7C549.29,-63.98 548.23,-54.71 547.24,-46.11"/>
<polygon fill="black" stroke="black" points="550.71,-45.64 546.1,-36.1 543.76,-46.44 550.71,-45.64"/>
</g>
<!-- DOMA&#45;SUID_SNC_KSTAT -->
<g id="node11" class="node">
<title>DOMA&#45;SUID_SNC_KSTAT</title>
<g id="a_node11"><a xlink:href="./DOMA_SUID_SNC_KSTAT.html" xlink:title="DOMA&#45;SUID_SNC_KSTAT">
<polygon fill="none" stroke="yellow" points="811.55,-36 628.74,-36 628.74,0 811.55,0 811.55,-36"/>
<text text-anchor="middle" x="720.14" y="-13.8" font-family="Times,serif" font-size="14.00">DOMA&#45;SUID_SNC_KSTAT</text>
</a>
</g>
</g>
<!-- DTEL&#45;SUID_SNC_KSTAT&#45;&gt;DOMA&#45;SUID_SNC_KSTAT -->
<g id="edge12" class="edge">
<title>DTEL&#45;SUID_SNC_KSTAT&#45;&gt;DOMA&#45;SUID_SNC_KSTAT</title>
<path fill="none" stroke="black" d="M720.9,-71.7C720.79,-63.98 720.65,-54.71 720.53,-46.11"/>
<polygon fill="black" stroke="black" points="724.03,-46.05 720.39,-36.1 717.03,-46.15 724.03,-46.05"/>
</g>
<!-- DOMA&#45;SNC_PNAME -->
<g id="node13" class="node">
<title>DOMA&#45;SNC_PNAME</title>
<g id="a_node13"><a xlink:href="./DOMA_SNC_PNAME.html" xlink:title="DOMA&#45;SNC_PNAME">
<polygon fill="none" stroke="yellow" points="976.29,-36 830,-36 830,0 976.29,0 976.29,-36"/>
<text text-anchor="middle" x="903.14" y="-13.8" font-family="Times,serif" font-size="14.00">DOMA&#45;SNC_PNAME</text>
</a>
</g>
</g>
<!-- DTEL&#45;SNC_PNAME&#45;&gt;DOMA&#45;SNC_PNAME -->
<g id="edge13" class="edge">
<title>DTEL&#45;SNC_PNAME&#45;&gt;DOMA&#45;SNC_PNAME</title>
<path fill="none" stroke="black" d="M899.38,-71.7C899.93,-63.98 900.59,-54.71 901.21,-46.11"/>
<polygon fill="black" stroke="black" points="904.7,-46.33 901.92,-36.1 897.72,-45.83 904.7,-46.33"/>
</g>
<!-- DOMA&#45;CHAR1_X -->
<g id="node15" class="node">
<title>DOMA&#45;CHAR1_X</title>
<g id="a_node15"><a xlink:href="./DOMA_CHAR1_X.html" xlink:title="DOMA&#45;CHAR1_X">
<polygon fill="none" stroke="yellow" points="1121.56,-36 994.73,-36 994.73,0 1121.56,0 1121.56,-36"/>
<text text-anchor="middle" x="1058.14" y="-13.8" font-family="Times,serif" font-size="14.00">DOMA&#45;CHAR1_X</text>
</a>
</g>
</g>
<!-- DTEL&#45;SNC_GUIFLG&#45;&gt;DOMA&#45;CHAR1_X -->
<g id="edge14" class="edge">
<title>DTEL&#45;SNC_GUIFLG&#45;&gt;DOMA&#45;CHAR1_X</title>
<path fill="none" stroke="black" d="M1058.14,-71.7C1058.14,-63.98 1058.14,-54.71 1058.14,-46.11"/>
<polygon fill="black" stroke="black" points="1061.64,-46.1 1058.14,-36.1 1054.64,-46.1 1061.64,-46.1"/>
</g>
</g>
</svg>
