<?xml version="1.0" encoding="UTF-8" standalone="no"?>
<!DOCTYPE svg PUBLIC "-//W3C//DTD SVG 1.1//EN"
 "http://www.w3.org/Graphics/SVG/1.1/DTD/svg11.dtd">
<!-- Generated by graphviz version 2.47.3 (20210619.1520)
 -->
<!-- Title: G Pages: 1 -->
<svg width="499pt" height="188pt"
 viewBox="0.00 0.00 498.86 188.00" xmlns="http://www.w3.org/2000/svg" xmlns:xlink="http://www.w3.org/1999/xlink">
<g id="graph0" class="graph" transform="scale(1 1) rotate(0) translate(4 184)">
<title>G</title>
<polygon fill="white" stroke="transparent" points="-4,4 -4,-184 494.86,-184 494.86,4 -4,4"/>
<!-- TABL&#45;T006B -->
<g id="node1" class="node">
<title>TABL&#45;T006B</title>
<polygon fill="none" stroke="yellow" points="288.58,-180 192.39,-180 192.39,-144 288.58,-144 288.58,-180"/>
<text text-anchor="middle" x="240.49" y="-157.8" font-family="Times,serif" font-size="14.00">TABL&#45;T006B</text>
</g>
<!-- DTEL&#45;MSEHI -->
<g id="node2" class="node">
<title>DTEL&#45;MSEHI</title>
<g id="a_node2"><a xlink:href="./DTEL_MSEHI.html" xlink:title="DTEL&#45;MSEHI">
<polygon fill="none" stroke="green" points="109.46,-108 9.51,-108 9.51,-72 109.46,-72 109.46,-108"/>
<text text-anchor="middle" x="59.49" y="-85.8" font-family="Times,serif" font-size="14.00">DTEL&#45;MSEHI</text>
</a>
</g>
</g>
<!-- TABL&#45;T006B&#45;&gt;DTEL&#45;MSEHI -->
<g id="edge4" class="edge">
<title>TABL&#45;T006B&#45;&gt;DTEL&#45;MSEHI</title>
<path fill="none" stroke="black" d="M196.21,-143.88C171.13,-134.18 139.59,-121.98 113.12,-111.74"/>
<polygon fill="black" stroke="black" points="114.21,-108.41 103.62,-108.07 111.68,-114.94 114.21,-108.41"/>
</g>
<!-- DTEL&#45;MSEH3 -->
<g id="node4" class="node">
<title>DTEL&#45;MSEH3</title>
<g id="a_node4"><a xlink:href="./DTEL_MSEH3.html" xlink:title="DTEL&#45;MSEH3">
<polygon fill="none" stroke="yellow" points="232.8,-108 130.17,-108 130.17,-72 232.8,-72 232.8,-108"/>
<text text-anchor="middle" x="181.49" y="-85.8" font-family="Times,serif" font-size="14.00">DTEL&#45;MSEH3</text>
</a>
</g>
</g>
<!-- TABL&#45;T006B&#45;&gt;DTEL&#45;MSEH3 -->
<g id="edge3" class="edge">
<title>TABL&#45;T006B&#45;&gt;DTEL&#45;MSEH3</title>
<path fill="none" stroke="black" d="M225.9,-143.7C218.83,-135.3 210.2,-125.07 202.44,-115.86"/>
<polygon fill="black" stroke="black" points="205.02,-113.49 195.9,-108.1 199.67,-118.01 205.02,-113.49"/>
</g>
<!-- DTEL&#45;SPRAS -->
<g id="node6" class="node">
<title>DTEL&#45;SPRAS</title>
<g id="a_node6"><a xlink:href="./DTEL_SPRAS.html" xlink:title="DTEL&#45;SPRAS">
<polygon fill="none" stroke="green" points="353.2,-108 253.77,-108 253.77,-72 353.2,-72 353.2,-108"/>
<text text-anchor="middle" x="303.49" y="-85.8" font-family="Times,serif" font-size="14.00">DTEL&#45;SPRAS</text>
</a>
</g>
</g>
<!-- TABL&#45;T006B&#45;&gt;DTEL&#45;SPRAS -->
<g id="edge2" class="edge">
<title>TABL&#45;T006B&#45;&gt;DTEL&#45;SPRAS</title>
<path fill="none" stroke="black" d="M256.06,-143.7C263.69,-135.22 273.01,-124.86 281.36,-115.58"/>
<polygon fill="black" stroke="black" points="284,-117.88 288.09,-108.1 278.8,-113.2 284,-117.88"/>
</g>
<!-- DTEL&#45;MANDT -->
<g id="node8" class="node">
<title>DTEL&#45;MANDT</title>
<g id="a_node8"><a xlink:href="./DTEL_MANDT.html" xlink:title="DTEL&#45;MANDT">
<polygon fill="none" stroke="green" points="483.23,-108 375.74,-108 375.74,-72 483.23,-72 483.23,-108"/>
<text text-anchor="middle" x="429.49" y="-85.8" font-family="Times,serif" font-size="14.00">DTEL&#45;MANDT</text>
</a>
</g>
</g>
<!-- TABL&#45;T006B&#45;&gt;DTEL&#45;MANDT -->
<g id="edge1" class="edge">
<title>TABL&#45;T006B&#45;&gt;DTEL&#45;MANDT</title>
<path fill="none" stroke="black" d="M286.72,-143.88C313.02,-134.14 346.13,-121.87 373.84,-111.61"/>
<polygon fill="black" stroke="black" points="375.24,-114.82 383.4,-108.07 372.81,-108.26 375.24,-114.82"/>
</g>
<!-- DOMA&#45;MEINS -->
<g id="node3" class="node">
<title>DOMA&#45;MEINS</title>
<g id="a_node3"><a xlink:href="./DOMA_MEINS.html" xlink:title="DOMA&#45;MEINS">
<polygon fill="none" stroke="green" points="106.96,-36 0.01,-36 0.01,0 106.96,0 106.96,-36"/>
<text text-anchor="middle" x="53.49" y="-13.8" font-family="Times,serif" font-size="14.00">DOMA&#45;MEINS</text>
</a>
</g>
</g>
<!-- DTEL&#45;MSEHI&#45;&gt;DOMA&#45;MEINS -->
<g id="edge5" class="edge">
<title>DTEL&#45;MSEHI&#45;&gt;DOMA&#45;MEINS</title>
<path fill="none" stroke="black" d="M58,-71.7C57.34,-63.98 56.55,-54.71 55.81,-46.11"/>
<polygon fill="black" stroke="black" points="59.29,-45.77 54.95,-36.1 52.32,-46.37 59.29,-45.77"/>
</g>
<!-- DOMA&#45;MSEH3 -->
<g id="node5" class="node">
<title>DOMA&#45;MSEH3</title>
<g id="a_node5"><a xlink:href="./DOMA_MSEH3.html" xlink:title="DOMA&#45;MSEH3">
<polygon fill="none" stroke="yellow" points="234.3,-36 124.67,-36 124.67,0 234.3,0 234.3,-36"/>
<text text-anchor="middle" x="179.49" y="-13.8" font-family="Times,serif" font-size="14.00">DOMA&#45;MSEH3</text>
</a>
</g>
</g>
<!-- DTEL&#45;MSEH3&#45;&gt;DOMA&#45;MSEH3 -->
<g id="edge6" class="edge">
<title>DTEL&#45;MSEH3&#45;&gt;DOMA&#45;MSEH3</title>
<path fill="none" stroke="black" d="M180.99,-71.7C180.77,-63.98 180.51,-54.71 180.26,-46.11"/>
<polygon fill="black" stroke="black" points="183.76,-46 179.97,-36.1 176.76,-46.2 183.76,-46"/>
</g>
<!-- DOMA&#45;SPRAS -->
<g id="node7" class="node">
<title>DOMA&#45;SPRAS</title>
<g id="a_node7"><a xlink:href="./DOMA_SPRAS.html" xlink:title="DOMA&#45;SPRAS">
<polygon fill="none" stroke="green" points="358.7,-36 252.27,-36 252.27,0 358.7,0 358.7,-36"/>
<text text-anchor="middle" x="305.49" y="-13.8" font-family="Times,serif" font-size="14.00">DOMA&#45;SPRAS</text>
</a>
</g>
</g>
<!-- DTEL&#45;SPRAS&#45;&gt;DOMA&#45;SPRAS -->
<g id="edge7" class="edge">
<title>DTEL&#45;SPRAS&#45;&gt;DOMA&#45;SPRAS</title>
<path fill="none" stroke="black" d="M303.98,-71.7C304.2,-63.98 304.47,-54.71 304.71,-46.11"/>
<polygon fill="black" stroke="black" points="308.21,-46.2 305,-36.1 301.21,-46 308.21,-46.2"/>
</g>
<!-- DOMA&#45;MANDT -->
<g id="node9" class="node">
<title>DOMA&#45;MANDT</title>
<g id="a_node9"><a xlink:href="./DOMA_MANDT.html" xlink:title="DOMA&#45;MANDT">
<polygon fill="none" stroke="yellow" points="490.73,-36 376.24,-36 376.24,0 490.73,0 490.73,-36"/>
<text text-anchor="middle" x="433.49" y="-13.8" font-family="Times,serif" font-size="14.00">DOMA&#45;MANDT</text>
</a>
</g>
</g>
<!-- DTEL&#45;MANDT&#45;&gt;DOMA&#45;MANDT -->
<g id="edge8" class="edge">
<title>DTEL&#45;MANDT&#45;&gt;DOMA&#45;MANDT</title>
<path fill="none" stroke="black" d="M430.47,-71.7C430.92,-63.98 431.45,-54.71 431.94,-46.11"/>
<polygon fill="black" stroke="black" points="435.43,-46.29 432.51,-36.1 428.44,-45.89 435.43,-46.29"/>
</g>
</g>
</svg>
