<?xml version="1.0" encoding="UTF-8" standalone="no"?>
<!DOCTYPE svg PUBLIC "-//W3C//DTD SVG 1.1//EN"
 "http://www.w3.org/Graphics/SVG/1.1/DTD/svg11.dtd">
<!-- Generated by graphviz version 2.47.3 (20210619.1520)
 -->
<!-- Title: G Pages: 1 -->
<svg width="735pt" height="188pt"
 viewBox="0.00 0.00 735.30 188.00" xmlns="http://www.w3.org/2000/svg" xmlns:xlink="http://www.w3.org/1999/xlink">
<g id="graph0" class="graph" transform="scale(1 1) rotate(0) translate(4 184)">
<title>G</title>
<polygon fill="white" stroke="transparent" points="-4,4 -4,-184 731.3,-184 731.3,4 -4,4"/>
<!-- TABL&#45;BAPIF4B -->
<g id="node1" class="node">
<title>TABL&#45;BAPIF4B</title>
<polygon fill="none" stroke="green" points="419.86,-180 306.43,-180 306.43,-144 419.86,-144 419.86,-180"/>
<text text-anchor="middle" x="363.15" y="-157.8" font-family="Times,serif" font-size="14.00">TABL&#45;BAPIF4B</text>
</g>
<!-- DTEL&#45;BAPI_HIGH -->
<g id="node2" class="node">
<title>DTEL&#45;BAPI_HIGH</title>
<g id="a_node2"><a xlink:href="./DTEL_BAPI_HIGH.html" xlink:title="DTEL&#45;BAPI_HIGH">
<polygon fill="none" stroke="green" points="130.44,-108 -0.15,-108 -0.15,-72 130.44,-72 130.44,-108"/>
<text text-anchor="middle" x="65.15" y="-85.8" font-family="Times,serif" font-size="14.00">DTEL&#45;BAPI_HIGH</text>
</a>
</g>
</g>
<!-- TABL&#45;BAPIF4B&#45;&gt;DTEL&#45;BAPI_HIGH -->
<g id="edge5" class="edge">
<title>TABL&#45;BAPIF4B&#45;&gt;DTEL&#45;BAPI_HIGH</title>
<path fill="none" stroke="black" d="M306.39,-147.67C259.27,-136.6 191.87,-120.77 140.28,-108.65"/>
<polygon fill="black" stroke="black" points="141.04,-105.23 130.51,-106.35 139.44,-112.05 141.04,-105.23"/>
</g>
<!-- DTEL&#45;BAPI_LOW -->
<g id="node4" class="node">
<title>DTEL&#45;BAPI_LOW</title>
<g id="a_node4"><a xlink:href="./DTEL_BAPI_LOW.html" xlink:title="DTEL&#45;BAPI_LOW">
<polygon fill="none" stroke="green" points="275.83,-108 148.46,-108 148.46,-72 275.83,-72 275.83,-108"/>
<text text-anchor="middle" x="212.15" y="-85.8" font-family="Times,serif" font-size="14.00">DTEL&#45;BAPI_LOW</text>
</a>
</g>
</g>
<!-- TABL&#45;BAPIF4B&#45;&gt;DTEL&#45;BAPI_LOW -->
<g id="edge4" class="edge">
<title>TABL&#45;BAPIF4B&#45;&gt;DTEL&#45;BAPI_LOW</title>
<path fill="none" stroke="black" d="M326.21,-143.88C305.66,-134.35 279.89,-122.41 258.06,-112.28"/>
<polygon fill="black" stroke="black" points="259.51,-109.1 248.96,-108.07 256.57,-115.45 259.51,-109.1"/>
</g>
<!-- DTEL&#45;BAPIOPTION -->
<g id="node5" class="node">
<title>DTEL&#45;BAPIOPTION</title>
<g id="a_node5"><a xlink:href="./DTEL_BAPIOPTION.html" xlink:title="DTEL&#45;BAPIOPTION">
<polygon fill="none" stroke="green" points="432.77,-108 293.52,-108 293.52,-72 432.77,-72 432.77,-108"/>
<text text-anchor="middle" x="363.15" y="-85.8" font-family="Times,serif" font-size="14.00">DTEL&#45;BAPIOPTION</text>
</a>
</g>
</g>
<!-- TABL&#45;BAPIF4B&#45;&gt;DTEL&#45;BAPIOPTION -->
<g id="edge3" class="edge">
<title>TABL&#45;BAPIF4B&#45;&gt;DTEL&#45;BAPIOPTION</title>
<path fill="none" stroke="black" d="M363.15,-143.7C363.15,-135.98 363.15,-126.71 363.15,-118.11"/>
<polygon fill="black" stroke="black" points="366.65,-118.1 363.15,-108.1 359.65,-118.1 366.65,-118.1"/>
</g>
<!-- DTEL&#45;BAPI_SIGN -->
<g id="node7" class="node">
<title>DTEL&#45;BAPI_SIGN</title>
<g id="a_node7"><a xlink:href="./DTEL_BAPI_SIGN.html" xlink:title="DTEL&#45;BAPI_SIGN">
<polygon fill="none" stroke="green" points="579.11,-108 451.18,-108 451.18,-72 579.11,-72 579.11,-108"/>
<text text-anchor="middle" x="515.15" y="-85.8" font-family="Times,serif" font-size="14.00">DTEL&#45;BAPI_SIGN</text>
</a>
</g>
</g>
<!-- TABL&#45;BAPIF4B&#45;&gt;DTEL&#45;BAPI_SIGN -->
<g id="edge2" class="edge">
<title>TABL&#45;BAPIF4B&#45;&gt;DTEL&#45;BAPI_SIGN</title>
<path fill="none" stroke="black" d="M400.33,-143.88C421.02,-134.35 446.95,-122.41 468.93,-112.28"/>
<polygon fill="black" stroke="black" points="470.46,-115.43 478.08,-108.07 467.54,-109.07 470.46,-115.43"/>
</g>
<!-- DTEL&#45;SHLPFIELD -->
<g id="node9" class="node">
<title>DTEL&#45;SHLPFIELD</title>
<g id="a_node9"><a xlink:href="./DTEL_SHLPFIELD.html" xlink:title="DTEL&#45;SHLPFIELD">
<polygon fill="none" stroke="yellow" points="727.45,-108 596.84,-108 596.84,-72 727.45,-72 727.45,-108"/>
<text text-anchor="middle" x="662.15" y="-85.8" font-family="Times,serif" font-size="14.00">DTEL&#45;SHLPFIELD</text>
</a>
</g>
</g>
<!-- TABL&#45;BAPIF4B&#45;&gt;DTEL&#45;SHLPFIELD -->
<g id="edge1" class="edge">
<title>TABL&#45;BAPIF4B&#45;&gt;DTEL&#45;SHLPFIELD</title>
<path fill="none" stroke="black" d="M420.09,-147.67C467.44,-136.58 535.23,-120.71 587.03,-108.59"/>
<polygon fill="black" stroke="black" points="587.89,-111.98 596.83,-106.29 586.3,-105.16 587.89,-111.98"/>
</g>
<!-- DOMA&#45;TEXT30 -->
<g id="node3" class="node">
<title>DOMA&#45;TEXT30</title>
<g id="a_node3"><a xlink:href="./DOMA_TEXT30.html" xlink:title="DOMA&#45;TEXT30">
<polygon fill="none" stroke="yellow" points="195.84,-36 82.46,-36 82.46,0 195.84,0 195.84,-36"/>
<text text-anchor="middle" x="139.15" y="-13.8" font-family="Times,serif" font-size="14.00">DOMA&#45;TEXT30</text>
</a>
</g>
</g>
<!-- DTEL&#45;BAPI_HIGH&#45;&gt;DOMA&#45;TEXT30 -->
<g id="edge6" class="edge">
<title>DTEL&#45;BAPI_HIGH&#45;&gt;DOMA&#45;TEXT30</title>
<path fill="none" stroke="black" d="M83.44,-71.7C92.58,-63.05 103.79,-52.45 113.75,-43.03"/>
<polygon fill="black" stroke="black" points="116.2,-45.52 121.06,-36.1 111.39,-40.43 116.2,-45.52"/>
</g>
<!-- DTEL&#45;BAPI_LOW&#45;&gt;DOMA&#45;TEXT30 -->
<g id="edge7" class="edge">
<title>DTEL&#45;BAPI_LOW&#45;&gt;DOMA&#45;TEXT30</title>
<path fill="none" stroke="black" d="M194.1,-71.7C185.08,-63.05 174.03,-52.45 164.2,-43.03"/>
<polygon fill="black" stroke="black" points="166.62,-40.5 156.98,-36.1 161.78,-45.55 166.62,-40.5"/>
</g>
<!-- DOMA&#45;BAPIOPTION -->
<g id="node6" class="node">
<title>DOMA&#45;BAPIOPTION</title>
<g id="a_node6"><a xlink:href="./DOMA_BAPIOPTION.html" xlink:title="DOMA&#45;BAPIOPTION">
<polygon fill="none" stroke="yellow" points="436.27,-36 290.02,-36 290.02,0 436.27,0 436.27,-36"/>
<text text-anchor="middle" x="363.15" y="-13.8" font-family="Times,serif" font-size="14.00">DOMA&#45;BAPIOPTION</text>
</a>
</g>
</g>
<!-- DTEL&#45;BAPIOPTION&#45;&gt;DOMA&#45;BAPIOPTION -->
<g id="edge8" class="edge">
<title>DTEL&#45;BAPIOPTION&#45;&gt;DOMA&#45;BAPIOPTION</title>
<path fill="none" stroke="black" d="M363.15,-71.7C363.15,-63.98 363.15,-54.71 363.15,-46.11"/>
<polygon fill="black" stroke="black" points="366.65,-46.1 363.15,-36.1 359.65,-46.1 366.65,-46.1"/>
</g>
<!-- DOMA&#45;CHAR1 -->
<g id="node8" class="node">
<title>DOMA&#45;CHAR1</title>
<g id="a_node8"><a xlink:href="./DOMA_CHAR1.html" xlink:title="DOMA&#45;CHAR1">
<polygon fill="none" stroke="green" points="569.96,-36 460.33,-36 460.33,0 569.96,0 569.96,-36"/>
<text text-anchor="middle" x="515.15" y="-13.8" font-family="Times,serif" font-size="14.00">DOMA&#45;CHAR1</text>
</a>
</g>
</g>
<!-- DTEL&#45;BAPI_SIGN&#45;&gt;DOMA&#45;CHAR1 -->
<g id="edge9" class="edge">
<title>DTEL&#45;BAPI_SIGN&#45;&gt;DOMA&#45;CHAR1</title>
<path fill="none" stroke="black" d="M515.15,-71.7C515.15,-63.98 515.15,-54.71 515.15,-46.11"/>
<polygon fill="black" stroke="black" points="518.65,-46.1 515.15,-36.1 511.65,-46.1 518.65,-46.1"/>
</g>
<!-- DOMA&#45;FDNAME -->
<g id="node10" class="node">
<title>DOMA&#45;FDNAME</title>
<g id="a_node10"><a xlink:href="./DOMA_FDNAME.html" xlink:title="DOMA&#45;FDNAME">
<polygon fill="none" stroke="yellow" points="723.17,-36 601.12,-36 601.12,0 723.17,0 723.17,-36"/>
<text text-anchor="middle" x="662.15" y="-13.8" font-family="Times,serif" font-size="14.00">DOMA&#45;FDNAME</text>
</a>
</g>
</g>
<!-- DTEL&#45;SHLPFIELD&#45;&gt;DOMA&#45;FDNAME -->
<g id="edge10" class="edge">
<title>DTEL&#45;SHLPFIELD&#45;&gt;DOMA&#45;FDNAME</title>
<path fill="none" stroke="black" d="M662.15,-71.7C662.15,-63.98 662.15,-54.71 662.15,-46.11"/>
<polygon fill="black" stroke="black" points="665.65,-46.1 662.15,-36.1 658.65,-46.1 665.65,-46.1"/>
</g>
</g>
</svg>
