<?xml version="1.0" encoding="UTF-8" standalone="no"?>
<!DOCTYPE svg PUBLIC "-//W3C//DTD SVG 1.1//EN"
 "http://www.w3.org/Graphics/SVG/1.1/DTD/svg11.dtd">
<!-- Generated by graphviz version 2.47.3 (20210619.1520)
 -->
<!-- Title: G Pages: 1 -->
<svg width="1596pt" height="188pt"
 viewBox="0.00 0.00 1595.50 188.00" xmlns="http://www.w3.org/2000/svg" xmlns:xlink="http://www.w3.org/1999/xlink">
<g id="graph0" class="graph" transform="scale(1 1) rotate(0) translate(4 184)">
<title>G</title>
<polygon fill="white" stroke="transparent" points="-4,4 -4,-184 1591.5,-184 1591.5,4 -4,4"/>
<!-- TABL&#45;SUID_ST_NODE_ROLE -->
<g id="node1" class="node">
<title>TABL&#45;SUID_ST_NODE_ROLE</title>
<polygon fill="none" stroke="yellow" points="990.03,-180 787.79,-180 787.79,-144 990.03,-144 990.03,-180"/>
<text text-anchor="middle" x="888.91" y="-157.8" font-family="Times,serif" font-size="14.00">TABL&#45;SUID_ST_NODE_ROLE</text>
</g>
<!-- DTEL&#45;SUID_CHANGE_TO_DAT -->
<g id="node2" class="node">
<title>DTEL&#45;SUID_CHANGE_TO_DAT</title>
<g id="a_node2"><a xlink:href="./DTEL_SUID_CHANGE_TO_DAT.html" xlink:title="DTEL&#45;SUID_CHANGE_TO_DAT">
<polygon fill="none" stroke="yellow" points="215.73,-108 0.09,-108 0.09,-72 215.73,-72 215.73,-108"/>
<text text-anchor="middle" x="107.91" y="-85.8" font-family="Times,serif" font-size="14.00">DTEL&#45;SUID_CHANGE_TO_DAT</text>
</a>
</g>
</g>
<!-- TABL&#45;SUID_ST_NODE_ROLE&#45;&gt;DTEL&#45;SUID_CHANGE_TO_DAT -->
<g id="edge8" class="edge">
<title>TABL&#45;SUID_ST_NODE_ROLE&#45;&gt;DTEL&#45;SUID_CHANGE_TO_DAT</title>
<path fill="none" stroke="black" d="M787.75,-154.97C659.5,-146.86 431.37,-130.9 226,-108.08"/>
<polygon fill="black" stroke="black" points="226.26,-104.59 215.93,-106.95 225.48,-111.54 226.26,-104.59"/>
</g>
<!-- DTEL&#45;SUID_CHANGE_FROM_DAT -->
<g id="node4" class="node">
<title>DTEL&#45;SUID_CHANGE_FROM_DAT</title>
<g id="a_node4"><a xlink:href="./DTEL_SUID_CHANGE_FROM_DAT.html" xlink:title="DTEL&#45;SUID_CHANGE_FROM_DAT">
<polygon fill="none" stroke="yellow" points="470.24,-108 233.58,-108 233.58,-72 470.24,-72 470.24,-108"/>
<text text-anchor="middle" x="351.91" y="-85.8" font-family="Times,serif" font-size="14.00">DTEL&#45;SUID_CHANGE_FROM_DAT</text>
</a>
</g>
</g>
<!-- TABL&#45;SUID_ST_NODE_ROLE&#45;&gt;DTEL&#45;SUID_CHANGE_FROM_DAT -->
<g id="edge7" class="edge">
<title>TABL&#45;SUID_ST_NODE_ROLE&#45;&gt;DTEL&#45;SUID_CHANGE_FROM_DAT</title>
<path fill="none" stroke="black" d="M787.38,-148C706.83,-137.66 591.07,-122.74 480.54,-108.21"/>
<polygon fill="black" stroke="black" points="480.92,-104.73 470.55,-106.9 480.01,-111.67 480.92,-104.73"/>
</g>
<!-- DTEL&#45;SUID_NODE_KEY_HANDLE -->
<g id="node5" class="node">
<title>DTEL&#45;SUID_NODE_KEY_HANDLE</title>
<g id="a_node5"><a xlink:href="./DTEL_SUID_NODE_KEY_HANDLE.html" xlink:title="DTEL&#45;SUID_NODE_KEY_HANDLE">
<polygon fill="none" stroke="yellow" points="723.66,-108 488.16,-108 488.16,-72 723.66,-72 723.66,-108"/>
<text text-anchor="middle" x="605.91" y="-85.8" font-family="Times,serif" font-size="14.00">DTEL&#45;SUID_NODE_KEY_HANDLE</text>
</a>
</g>
</g>
<!-- TABL&#45;SUID_ST_NODE_ROLE&#45;&gt;DTEL&#45;SUID_NODE_KEY_HANDLE -->
<g id="edge6" class="edge">
<title>TABL&#45;SUID_ST_NODE_ROLE&#45;&gt;DTEL&#45;SUID_NODE_KEY_HANDLE</title>
<path fill="none" stroke="black" d="M820.04,-143.97C779.21,-133.87 727.31,-121.03 684.83,-110.52"/>
<polygon fill="black" stroke="black" points="685.64,-107.11 675.09,-108.11 683.95,-113.91 685.64,-107.11"/>
</g>
<!-- DTEL&#45;SUID_CHANGE_MODE -->
<g id="node6" class="node">
<title>DTEL&#45;SUID_CHANGE_MODE</title>
<g id="a_node6"><a xlink:href="./DTEL_SUID_CHANGE_MODE.html" xlink:title="DTEL&#45;SUID_CHANGE_MODE">
<polygon fill="none" stroke="yellow" points="1256.02,-108 1053.8,-108 1053.8,-72 1256.02,-72 1256.02,-108"/>
<text text-anchor="middle" x="1154.91" y="-85.8" font-family="Times,serif" font-size="14.00">DTEL&#45;SUID_CHANGE_MODE</text>
</a>
</g>
</g>
<!-- TABL&#45;SUID_ST_NODE_ROLE&#45;&gt;DTEL&#45;SUID_CHANGE_MODE -->
<g id="edge5" class="edge">
<title>TABL&#45;SUID_ST_NODE_ROLE&#45;&gt;DTEL&#45;SUID_CHANGE_MODE</title>
<path fill="none" stroke="black" d="M953.64,-143.97C991.78,-133.93 1040.19,-121.19 1079.97,-110.72"/>
<polygon fill="black" stroke="black" points="1081.11,-114.04 1089.89,-108.11 1079.33,-107.27 1081.11,-114.04"/>
</g>
<!-- DTEL&#45;AGR_ORGCOL -->
<g id="node8" class="node">
<title>DTEL&#45;AGR_ORGCOL</title>
<g id="a_node8"><a xlink:href="./DTEL_AGR_ORGCOL.html" xlink:title="DTEL&#45;AGR_ORGCOL">
<polygon fill="none" stroke="yellow" points="1424.93,-108 1274.89,-108 1274.89,-72 1424.93,-72 1424.93,-108"/>
<text text-anchor="middle" x="1349.91" y="-85.8" font-family="Times,serif" font-size="14.00">DTEL&#45;AGR_ORGCOL</text>
</a>
</g>
</g>
<!-- TABL&#45;SUID_ST_NODE_ROLE&#45;&gt;DTEL&#45;AGR_ORGCOL -->
<g id="edge4" class="edge">
<title>TABL&#45;SUID_ST_NODE_ROLE&#45;&gt;DTEL&#45;AGR_ORGCOL</title>
<path fill="none" stroke="black" d="M990.09,-148.34C1065.92,-138.46 1172.14,-123.8 1264.91,-108 1265.01,-107.98 1265.12,-107.97 1265.22,-107.95"/>
<polygon fill="black" stroke="black" points="1265.62,-111.43 1274.87,-106.25 1264.41,-104.54 1265.62,-111.43"/>
</g>
<!-- DTEL&#45;AGR_TDATE -->
<g id="node10" class="node">
<title>DTEL&#45;AGR_TDATE</title>
<g id="a_node10"><a xlink:href="./DTEL_AGR_TDATE.html" xlink:title="DTEL&#45;AGR_TDATE">
<polygon fill="none" stroke="yellow" points="880.26,-108 741.57,-108 741.57,-72 880.26,-72 880.26,-108"/>
<text text-anchor="middle" x="810.91" y="-85.8" font-family="Times,serif" font-size="14.00">DTEL&#45;AGR_TDATE</text>
</a>
</g>
</g>
<!-- TABL&#45;SUID_ST_NODE_ROLE&#45;&gt;DTEL&#45;AGR_TDATE -->
<g id="edge3" class="edge">
<title>TABL&#45;SUID_ST_NODE_ROLE&#45;&gt;DTEL&#45;AGR_TDATE</title>
<path fill="none" stroke="black" d="M869.63,-143.7C860,-135.05 848.18,-124.45 837.68,-115.03"/>
<polygon fill="black" stroke="black" points="839.75,-112.18 829.97,-108.1 835.07,-117.39 839.75,-112.18"/>
</g>
<!-- DTEL&#45;AGR_FDATE -->
<g id="node11" class="node">
<title>DTEL&#45;AGR_FDATE</title>
<g id="a_node11"><a xlink:href="./DTEL_AGR_FDATE.html" xlink:title="DTEL&#45;AGR_FDATE">
<polygon fill="none" stroke="yellow" points="1035.99,-108 897.84,-108 897.84,-72 1035.99,-72 1035.99,-108"/>
<text text-anchor="middle" x="966.91" y="-85.8" font-family="Times,serif" font-size="14.00">DTEL&#45;AGR_FDATE</text>
</a>
</g>
</g>
<!-- TABL&#45;SUID_ST_NODE_ROLE&#45;&gt;DTEL&#45;AGR_FDATE -->
<g id="edge2" class="edge">
<title>TABL&#45;SUID_ST_NODE_ROLE&#45;&gt;DTEL&#45;AGR_FDATE</title>
<path fill="none" stroke="black" d="M908.19,-143.7C917.83,-135.05 929.64,-124.45 940.14,-115.03"/>
<polygon fill="black" stroke="black" points="942.75,-117.39 947.85,-108.1 938.07,-112.18 942.75,-117.39"/>
</g>
<!-- DTEL&#45;AGR_NAME -->
<g id="node12" class="node">
<title>DTEL&#45;AGR_NAME</title>
<g id="a_node12"><a xlink:href="./DTEL_AGR_NAME.html" xlink:title="DTEL&#45;AGR_NAME">
<polygon fill="none" stroke="yellow" points="1581.1,-108 1446.73,-108 1446.73,-72 1581.1,-72 1581.1,-108"/>
<text text-anchor="middle" x="1513.91" y="-85.8" font-family="Times,serif" font-size="14.00">DTEL&#45;AGR_NAME</text>
</a>
</g>
</g>
<!-- TABL&#45;SUID_ST_NODE_ROLE&#45;&gt;DTEL&#45;AGR_NAME -->
<g id="edge1" class="edge">
<title>TABL&#45;SUID_ST_NODE_ROLE&#45;&gt;DTEL&#45;AGR_NAME</title>
<path fill="none" stroke="black" d="M990.03,-154.58C1099.77,-146.82 1279.95,-131.77 1433.91,-108 1434.83,-107.86 1435.76,-107.71 1436.69,-107.56"/>
<polygon fill="black" stroke="black" points="1437.53,-110.97 1446.79,-105.83 1436.35,-104.07 1437.53,-110.97"/>
</g>
<!-- DOMA&#45;DATS -->
<g id="node3" class="node">
<title>DOMA&#45;DATS</title>
<g id="a_node3"><a xlink:href="./DOMA_DATS.html" xlink:title="DOMA&#45;DATS">
<polygon fill="none" stroke="yellow" points="631.88,-36 531.94,-36 531.94,0 631.88,0 631.88,-36"/>
<text text-anchor="middle" x="581.91" y="-13.8" font-family="Times,serif" font-size="14.00">DOMA&#45;DATS</text>
</a>
</g>
</g>
<!-- DTEL&#45;SUID_CHANGE_TO_DAT&#45;&gt;DOMA&#45;DATS -->
<g id="edge9" class="edge">
<title>DTEL&#45;SUID_CHANGE_TO_DAT&#45;&gt;DOMA&#45;DATS</title>
<path fill="none" stroke="black" d="M215.77,-73.07C310.54,-59.08 444.99,-39.22 521.83,-27.87"/>
<polygon fill="black" stroke="black" points="522.44,-31.32 531.82,-26.4 521.42,-24.4 522.44,-31.32"/>
</g>
<!-- DTEL&#45;SUID_CHANGE_FROM_DAT&#45;&gt;DOMA&#45;DATS -->
<g id="edge10" class="edge">
<title>DTEL&#45;SUID_CHANGE_FROM_DAT&#45;&gt;DOMA&#45;DATS</title>
<path fill="none" stroke="black" d="M407.88,-71.97C442.4,-61.46 486.65,-47.99 521.9,-37.27"/>
<polygon fill="black" stroke="black" points="523.03,-40.58 531.58,-34.32 521,-33.88 523.03,-40.58"/>
</g>
<!-- DOMA&#45;SUID_CHANGE_MODE -->
<g id="node7" class="node">
<title>DOMA&#45;SUID_CHANGE_MODE</title>
<g id="a_node7"><a xlink:href="./DOMA_SUID_CHANGE_MODE.html" xlink:title="DOMA&#45;SUID_CHANGE_MODE">
<polygon fill="none" stroke="yellow" points="1252.52,-36 1043.3,-36 1043.3,0 1252.52,0 1252.52,-36"/>
<text text-anchor="middle" x="1147.91" y="-13.8" font-family="Times,serif" font-size="14.00">DOMA&#45;SUID_CHANGE_MODE</text>
</a>
</g>
</g>
<!-- DTEL&#45;SUID_CHANGE_MODE&#45;&gt;DOMA&#45;SUID_CHANGE_MODE -->
<g id="edge11" class="edge">
<title>DTEL&#45;SUID_CHANGE_MODE&#45;&gt;DOMA&#45;SUID_CHANGE_MODE</title>
<path fill="none" stroke="black" d="M1153.18,-71.7C1152.41,-63.98 1151.48,-54.71 1150.62,-46.11"/>
<polygon fill="black" stroke="black" points="1154.1,-45.71 1149.62,-36.1 1147.13,-46.4 1154.1,-45.71"/>
</g>
<!-- DOMA&#45;AGR_ORGCOL -->
<g id="node9" class="node">
<title>DOMA&#45;AGR_ORGCOL</title>
<g id="a_node9"><a xlink:href="./DOMA_AGR_ORGCOL.html" xlink:title="DOMA&#45;AGR_ORGCOL">
<polygon fill="none" stroke="yellow" points="1428.43,-36 1271.39,-36 1271.39,0 1428.43,0 1428.43,-36"/>
<text text-anchor="middle" x="1349.91" y="-13.8" font-family="Times,serif" font-size="14.00">DOMA&#45;AGR_ORGCOL</text>
</a>
</g>
</g>
<!-- DTEL&#45;AGR_ORGCOL&#45;&gt;DOMA&#45;AGR_ORGCOL -->
<g id="edge12" class="edge">
<title>DTEL&#45;AGR_ORGCOL&#45;&gt;DOMA&#45;AGR_ORGCOL</title>
<path fill="none" stroke="black" d="M1349.91,-71.7C1349.91,-63.98 1349.91,-54.71 1349.91,-46.11"/>
<polygon fill="black" stroke="black" points="1353.41,-46.1 1349.91,-36.1 1346.41,-46.1 1353.41,-46.1"/>
</g>
<!-- DTEL&#45;AGR_TDATE&#45;&gt;DOMA&#45;DATS -->
<g id="edge13" class="edge">
<title>DTEL&#45;AGR_TDATE&#45;&gt;DOMA&#45;DATS</title>
<path fill="none" stroke="black" d="M755.18,-71.97C720.82,-61.46 676.76,-47.99 641.67,-37.27"/>
<polygon fill="black" stroke="black" points="642.61,-33.89 632.02,-34.32 640.56,-40.59 642.61,-33.89"/>
</g>
<!-- DTEL&#45;AGR_FDATE&#45;&gt;DOMA&#45;DATS -->
<g id="edge14" class="edge">
<title>DTEL&#45;AGR_FDATE&#45;&gt;DOMA&#45;DATS</title>
<path fill="none" stroke="black" d="M897.62,-73.73C894.68,-73.14 891.77,-72.56 888.91,-72 803.43,-55.31 704.01,-38.65 642.02,-28.58"/>
<polygon fill="black" stroke="black" points="642.45,-25.1 632.02,-26.96 641.33,-32.01 642.45,-25.1"/>
</g>
<!-- DOMA&#45;AGR_NAME -->
<g id="node13" class="node">
<title>DOMA&#45;AGR_NAME</title>
<g id="a_node13"><a xlink:href="./DOMA_AGR_NAME.html" xlink:title="DOMA&#45;AGR_NAME">
<polygon fill="none" stroke="yellow" points="1587.6,-36 1446.23,-36 1446.23,0 1587.6,0 1587.6,-36"/>
<text text-anchor="middle" x="1516.91" y="-13.8" font-family="Times,serif" font-size="14.00">DOMA&#45;AGR_NAME</text>
</a>
</g>
</g>
<!-- DTEL&#45;AGR_NAME&#45;&gt;DOMA&#45;AGR_NAME -->
<g id="edge15" class="edge">
<title>DTEL&#45;AGR_NAME&#45;&gt;DOMA&#45;AGR_NAME</title>
<path fill="none" stroke="black" d="M1514.65,-71.7C1514.98,-63.98 1515.38,-54.71 1515.75,-46.11"/>
<polygon fill="black" stroke="black" points="1519.25,-46.25 1516.18,-36.1 1512.25,-45.95 1519.25,-46.25"/>
</g>
</g>
</svg>
