<?xml version="1.0" encoding="UTF-8" standalone="no"?>
<!DOCTYPE svg PUBLIC "-//W3C//DTD SVG 1.1//EN"
 "http://www.w3.org/Graphics/SVG/1.1/DTD/svg11.dtd">
<!-- Generated by graphviz version 2.47.3 (20210619.1520)
 -->
<!-- Title: G Pages: 1 -->
<svg width="225pt" height="188pt"
 viewBox="0.00 0.00 225.40 188.00" xmlns="http://www.w3.org/2000/svg" xmlns:xlink="http://www.w3.org/1999/xlink">
<g id="graph0" class="graph" transform="scale(1 1) rotate(0) translate(4 184)">
<title>G</title>
<polygon fill="white" stroke="transparent" points="-4,4 -4,-184 221.4,-184 221.4,4 -4,4"/>
<!-- TABL&#45;FDT_INC_ADMN_CATTR -->
<g id="node1" class="node">
<title>TABL&#45;FDT_INC_ADMN_CATTR</title>
<polygon fill="none" stroke="yellow" points="217.61,-180 -0.2,-180 -0.2,-144 217.61,-144 217.61,-180"/>
<text text-anchor="middle" x="108.7" y="-157.8" font-family="Times,serif" font-size="14.00">TABL&#45;FDT_INC_ADMN_CATTR</text>
</g>
<!-- DTEL&#45;FDT_UUID -->
<g id="node2" class="node">
<title>DTEL&#45;FDT_UUID</title>
<g id="a_node2"><a xlink:href="./DTEL_FDT_UUID.html" xlink:title="DTEL&#45;FDT_UUID">
<polygon fill="none" stroke="yellow" points="171.05,-108 46.35,-108 46.35,-72 171.05,-72 171.05,-108"/>
<text text-anchor="middle" x="108.7" y="-85.8" font-family="Times,serif" font-size="14.00">DTEL&#45;FDT_UUID</text>
</a>
</g>
</g>
<!-- TABL&#45;FDT_INC_ADMN_CATTR&#45;&gt;DTEL&#45;FDT_UUID -->
<g id="edge1" class="edge">
<title>TABL&#45;FDT_INC_ADMN_CATTR&#45;&gt;DTEL&#45;FDT_UUID</title>
<path fill="none" stroke="black" d="M108.7,-143.7C108.7,-135.98 108.7,-126.71 108.7,-118.11"/>
<polygon fill="black" stroke="black" points="112.2,-118.1 108.7,-108.1 105.2,-118.1 112.2,-118.1"/>
</g>
<!-- DOMA&#45;SYSUUID_C -->
<g id="node3" class="node">
<title>DOMA&#45;SYSUUID_C</title>
<g id="a_node3"><a xlink:href="./DOMA_SYSUUID_C.html" xlink:title="DOMA&#45;SYSUUID_C">
<polygon fill="none" stroke="yellow" points="179.12,-36 38.29,-36 38.29,0 179.12,0 179.12,-36"/>
<text text-anchor="middle" x="108.7" y="-13.8" font-family="Times,serif" font-size="14.00">DOMA&#45;SYSUUID_C</text>
</a>
</g>
</g>
<!-- DTEL&#45;FDT_UUID&#45;&gt;DOMA&#45;SYSUUID_C -->
<g id="edge2" class="edge">
<title>DTEL&#45;FDT_UUID&#45;&gt;DOMA&#45;SYSUUID_C</title>
<path fill="none" stroke="black" d="M108.7,-71.7C108.7,-63.98 108.7,-54.71 108.7,-46.11"/>
<polygon fill="black" stroke="black" points="112.2,-46.1 108.7,-36.1 105.2,-46.1 112.2,-46.1"/>
</g>
</g>
</svg>
