<?xml version="1.0" encoding="UTF-8" standalone="no"?>
<!DOCTYPE svg PUBLIC "-//W3C//DTD SVG 1.1//EN"
 "http://www.w3.org/Graphics/SVG/1.1/DTD/svg11.dtd">
<!-- Generated by graphviz version 2.47.3 (20210619.1520)
 -->
<!-- Title: G Pages: 1 -->
<svg width="1655pt" height="980pt"
 viewBox="0.00 0.00 1654.87 980.00" xmlns="http://www.w3.org/2000/svg" xmlns:xlink="http://www.w3.org/1999/xlink">
<g id="graph0" class="graph" transform="scale(1 1) rotate(0) translate(4 976)">
<title>G</title>
<polygon fill="white" stroke="transparent" points="-4,4 -4,-976 1650.87,-976 1650.87,4 -4,4"/>
<!-- TABL&#45;CMIS_S_QUERY_RESULT_LIST -->
<g id="node1" class="node">
<title>TABL&#45;CMIS_S_QUERY_RESULT_LIST</title>
<polygon fill="none" stroke="green" points="784.73,-972 527.02,-972 527.02,-936 784.73,-936 784.73,-972"/>
<text text-anchor="middle" x="655.87" y="-949.8" font-family="Times,serif" font-size="14.00">TABL&#45;CMIS_S_QUERY_RESULT_LIST</text>
</g>
<!-- TTYP&#45;CMIS_T_EXTENSION -->
<g id="node2" class="node">
<title>TTYP&#45;CMIS_T_EXTENSION</title>
<g id="a_node2"><a xlink:href="./TTYP_CMIS_T_EXTENSION.html" xlink:title="TTYP&#45;CMIS_T_EXTENSION">
<polygon fill="none" stroke="green" points="1144.33,-324 953.41,-324 953.41,-288 1144.33,-288 1144.33,-324"/>
<text text-anchor="middle" x="1048.87" y="-301.8" font-family="Times,serif" font-size="14.00">TTYP&#45;CMIS_T_EXTENSION</text>
</a>
</g>
</g>
<!-- TABL&#45;CMIS_S_QUERY_RESULT_LIST&#45;&gt;TTYP&#45;CMIS_T_EXTENSION -->
<g id="edge4" class="edge">
<title>TABL&#45;CMIS_S_QUERY_RESULT_LIST&#45;&gt;TTYP&#45;CMIS_T_EXTENSION</title>
<path fill="none" stroke="black" d="M588.61,-935.91C529.85,-916.46 453.87,-878.3 453.87,-811 453.87,-811 453.87,-811 453.87,-593 453.87,-546.03 472.33,-530.86 510.87,-504 572.1,-461.33 616.34,-514.29 674.87,-468 716.66,-434.96 684.22,-391.93 726.87,-360 760.42,-334.89 862.71,-321.1 943.09,-313.94"/>
<polygon fill="black" stroke="black" points="943.62,-317.4 953.28,-313.05 943.02,-310.43 943.62,-317.4"/>
</g>
<!-- DTEL&#45;INT4 -->
<g id="node8" class="node">
<title>DTEL&#45;INT4</title>
<g id="a_node8"><a xlink:href="./DTEL_INT4.html" xlink:title="DTEL&#45;INT4">
<polygon fill="none" stroke="green" points="90.12,-324 3.63,-324 3.63,-288 90.12,-288 90.12,-324"/>
<text text-anchor="middle" x="46.87" y="-301.8" font-family="Times,serif" font-size="14.00">DTEL&#45;INT4</text>
</a>
</g>
</g>
<!-- TABL&#45;CMIS_S_QUERY_RESULT_LIST&#45;&gt;DTEL&#45;INT4 -->
<g id="edge3" class="edge">
<title>TABL&#45;CMIS_S_QUERY_RESULT_LIST&#45;&gt;DTEL&#45;INT4</title>
<path fill="none" stroke="black" d="M526.78,-948.98C346.69,-939.79 41.87,-909.67 41.87,-811 41.87,-811 41.87,-811 41.87,-449 41.87,-408.97 43.88,-362.63 45.35,-334.07"/>
<polygon fill="black" stroke="black" points="48.85,-334.21 45.88,-324.04 41.86,-333.84 48.85,-334.21"/>
</g>
<!-- DTEL&#45;BOOLEAN -->
<g id="node10" class="node">
<title>DTEL&#45;BOOLEAN</title>
<g id="a_node10"><a xlink:href="./DTEL_BOOLEAN.html" xlink:title="DTEL&#45;BOOLEAN">
<polygon fill="none" stroke="yellow" points="1572.67,-252 1449.08,-252 1449.08,-216 1572.67,-216 1572.67,-252"/>
<text text-anchor="middle" x="1510.87" y="-229.8" font-family="Times,serif" font-size="14.00">DTEL&#45;BOOLEAN</text>
</a>
</g>
</g>
<!-- TABL&#45;CMIS_S_QUERY_RESULT_LIST&#45;&gt;DTEL&#45;BOOLEAN -->
<g id="edge2" class="edge">
<title>TABL&#45;CMIS_S_QUERY_RESULT_LIST&#45;&gt;DTEL&#45;BOOLEAN</title>
<path fill="none" stroke="black" d="M784.92,-947.71C1053.3,-934.98 1646.87,-897.09 1646.87,-811 1646.87,-811 1646.87,-811 1646.87,-377 1646.87,-322.57 1594.12,-280.86 1554.32,-257.14"/>
<polygon fill="black" stroke="black" points="1555.95,-254.04 1545.54,-252.07 1552.45,-260.1 1555.95,-254.04"/>
</g>
<!-- TTYP&#45;CMIS_T_QUERY_RESULT -->
<g id="node12" class="node">
<title>TTYP&#45;CMIS_T_QUERY_RESULT</title>
<g id="a_node12"><a xlink:href="./TTYP_CMIS_T_QUERY_RESULT.html" xlink:title="TTYP&#45;CMIS_T_QUERY_RESULT">
<polygon fill="none" stroke="green" points="794.9,-900 574.85,-900 574.85,-864 794.9,-864 794.9,-900"/>
<text text-anchor="middle" x="684.87" y="-877.8" font-family="Times,serif" font-size="14.00">TTYP&#45;CMIS_T_QUERY_RESULT</text>
</a>
</g>
</g>
<!-- TABL&#45;CMIS_S_QUERY_RESULT_LIST&#45;&gt;TTYP&#45;CMIS_T_QUERY_RESULT -->
<g id="edge1" class="edge">
<title>TABL&#45;CMIS_S_QUERY_RESULT_LIST&#45;&gt;TTYP&#45;CMIS_T_QUERY_RESULT</title>
<path fill="none" stroke="black" d="M663.04,-935.7C666.31,-927.81 670.25,-918.3 673.87,-909.55"/>
<polygon fill="black" stroke="black" points="677.19,-910.68 677.79,-900.1 670.73,-908 677.19,-910.68"/>
</g>
<!-- TABL&#45;CMIS_S_EXTENSION -->
<g id="node3" class="node">
<title>TABL&#45;CMIS_S_EXTENSION</title>
<g id="a_node3"><a xlink:href="./TABL_CMIS_S_EXTENSION.html" xlink:title="TABL&#45;CMIS_S_EXTENSION">
<polygon fill="none" stroke="green" points="1235.62,-252 1044.13,-252 1044.13,-216 1235.62,-216 1235.62,-252"/>
<text text-anchor="middle" x="1139.87" y="-229.8" font-family="Times,serif" font-size="14.00">TABL&#45;CMIS_S_EXTENSION</text>
</a>
</g>
</g>
<!-- TTYP&#45;CMIS_T_EXTENSION&#45;&gt;TABL&#45;CMIS_S_EXTENSION -->
<g id="edge5" class="edge">
<title>TTYP&#45;CMIS_T_EXTENSION&#45;&gt;TABL&#45;CMIS_S_EXTENSION</title>
<path fill="none" stroke="black" d="M1071.37,-287.7C1082.83,-278.88 1096.93,-268.03 1109.36,-258.47"/>
<polygon fill="black" stroke="black" points="1111.84,-260.98 1117.64,-252.1 1107.58,-255.43 1111.84,-260.98"/>
</g>
<!-- TTYP&#45;CMIS_T_MAP -->
<g id="node4" class="node">
<title>TTYP&#45;CMIS_T_MAP</title>
<g id="a_node4"><a xlink:href="./TTYP_CMIS_T_MAP.html" xlink:title="TTYP&#45;CMIS_T_MAP">
<polygon fill="none" stroke="green" points="1272.14,-180 1129.61,-180 1129.61,-144 1272.14,-144 1272.14,-180"/>
<text text-anchor="middle" x="1200.87" y="-157.8" font-family="Times,serif" font-size="14.00">TTYP&#45;CMIS_T_MAP</text>
</a>
</g>
</g>
<!-- TABL&#45;CMIS_S_EXTENSION&#45;&gt;TTYP&#45;CMIS_T_MAP -->
<g id="edge8" class="edge">
<title>TABL&#45;CMIS_S_EXTENSION&#45;&gt;TTYP&#45;CMIS_T_MAP</title>
<path fill="none" stroke="black" d="M1154.95,-215.7C1162.26,-207.3 1171.18,-197.07 1179.21,-187.86"/>
<polygon fill="black" stroke="black" points="1182.04,-189.94 1185.97,-180.1 1176.76,-185.34 1182.04,-189.94"/>
</g>
<!-- DTEL&#45;CMIS_STRING -->
<g id="node6" class="node">
<title>DTEL&#45;CMIS_STRING</title>
<g id="a_node6"><a xlink:href="./DTEL_CMIS_STRING.html" xlink:title="DTEL&#45;CMIS_STRING">
<polygon fill="none" stroke="green" points="1279.07,-36 1130.68,-36 1130.68,0 1279.07,0 1279.07,-36"/>
<text text-anchor="middle" x="1204.87" y="-13.8" font-family="Times,serif" font-size="14.00">DTEL&#45;CMIS_STRING</text>
</a>
</g>
</g>
<!-- TABL&#45;CMIS_S_EXTENSION&#45;&gt;DTEL&#45;CMIS_STRING -->
<g id="edge7" class="edge">
<title>TABL&#45;CMIS_S_EXTENSION&#45;&gt;DTEL&#45;CMIS_STRING</title>
<path fill="none" stroke="black" d="M1218.26,-215.93C1240.61,-208 1263.56,-196.52 1280.87,-180 1306.08,-155.95 1304.84,-142.12 1311.87,-108 1315.1,-92.33 1320.31,-85.59 1311.87,-72 1303.49,-58.49 1290.52,-48.32 1276.47,-40.7"/>
<polygon fill="black" stroke="black" points="1277.64,-37.37 1267.12,-36.05 1274.52,-43.63 1277.64,-37.37"/>
</g>
<!-- DTEL&#45;CMIS_ID -->
<g id="node7" class="node">
<title>DTEL&#45;CMIS_ID</title>
<g id="a_node7"><a xlink:href="./DTEL_CMIS_ID.html" xlink:title="DTEL&#45;CMIS_ID">
<polygon fill="none" stroke="green" points="267.29,-180 154.46,-180 154.46,-144 267.29,-144 267.29,-180"/>
<text text-anchor="middle" x="210.87" y="-157.8" font-family="Times,serif" font-size="14.00">DTEL&#45;CMIS_ID</text>
</a>
</g>
</g>
<!-- TABL&#45;CMIS_S_EXTENSION&#45;&gt;DTEL&#45;CMIS_ID -->
<g id="edge6" class="edge">
<title>TABL&#45;CMIS_S_EXTENSION&#45;&gt;DTEL&#45;CMIS_ID</title>
<path fill="none" stroke="black" d="M1043.82,-222.42C1021.84,-220.16 998.56,-217.88 976.87,-216 718.33,-193.58 410.03,-174.61 277.17,-166.81"/>
<polygon fill="black" stroke="black" points="277.33,-163.31 267.14,-166.22 276.92,-170.3 277.33,-163.31"/>
</g>
<!-- TABL&#45;CMIS_S_KEY_VALUE -->
<g id="node5" class="node">
<title>TABL&#45;CMIS_S_KEY_VALUE</title>
<g id="a_node5"><a xlink:href="./TABL_CMIS_S_KEY_VALUE.html" xlink:title="TABL&#45;CMIS_S_KEY_VALUE">
<polygon fill="none" stroke="green" points="1303.28,-108 1106.47,-108 1106.47,-72 1303.28,-72 1303.28,-108"/>
<text text-anchor="middle" x="1204.87" y="-85.8" font-family="Times,serif" font-size="14.00">TABL&#45;CMIS_S_KEY_VALUE</text>
</a>
</g>
</g>
<!-- TTYP&#45;CMIS_T_MAP&#45;&gt;TABL&#45;CMIS_S_KEY_VALUE -->
<g id="edge9" class="edge">
<title>TTYP&#45;CMIS_T_MAP&#45;&gt;TABL&#45;CMIS_S_KEY_VALUE</title>
<path fill="none" stroke="black" d="M1201.86,-143.7C1202.3,-135.98 1202.83,-126.71 1203.32,-118.11"/>
<polygon fill="black" stroke="black" points="1206.82,-118.29 1203.9,-108.1 1199.83,-117.89 1206.82,-118.29"/>
</g>
<!-- TABL&#45;CMIS_S_KEY_VALUE&#45;&gt;DTEL&#45;CMIS_STRING -->
<g id="edge10" class="edge">
<title>TABL&#45;CMIS_S_KEY_VALUE&#45;&gt;DTEL&#45;CMIS_STRING</title>
<path fill="none" stroke="black" d="M1204.87,-71.7C1204.87,-63.98 1204.87,-54.71 1204.87,-46.11"/>
<polygon fill="black" stroke="black" points="1208.37,-46.1 1204.87,-36.1 1201.37,-46.1 1208.37,-46.1"/>
</g>
<!-- DOMA&#45;INT4 -->
<g id="node9" class="node">
<title>DOMA&#45;INT4</title>
<g id="a_node9"><a xlink:href="./DOMA_INT4.html" xlink:title="DOMA&#45;INT4">
<polygon fill="none" stroke="yellow" points="93.62,-252 0.13,-252 0.13,-216 93.62,-216 93.62,-252"/>
<text text-anchor="middle" x="46.87" y="-229.8" font-family="Times,serif" font-size="14.00">DOMA&#45;INT4</text>
</a>
</g>
</g>
<!-- DTEL&#45;INT4&#45;&gt;DOMA&#45;INT4 -->
<g id="edge11" class="edge">
<title>DTEL&#45;INT4&#45;&gt;DOMA&#45;INT4</title>
<path fill="none" stroke="black" d="M46.87,-287.7C46.87,-279.98 46.87,-270.71 46.87,-262.11"/>
<polygon fill="black" stroke="black" points="50.37,-262.1 46.87,-252.1 43.37,-262.1 50.37,-262.1"/>
</g>
<!-- DOMA&#45;BOOLEAN -->
<g id="node11" class="node">
<title>DOMA&#45;BOOLEAN</title>
<g id="a_node11"><a xlink:href="./DOMA_BOOLEAN.html" xlink:title="DOMA&#45;BOOLEAN">
<polygon fill="none" stroke="yellow" points="1576.17,-180 1445.58,-180 1445.58,-144 1576.17,-144 1576.17,-180"/>
<text text-anchor="middle" x="1510.87" y="-157.8" font-family="Times,serif" font-size="14.00">DOMA&#45;BOOLEAN</text>
</a>
</g>
</g>
<!-- DTEL&#45;BOOLEAN&#45;&gt;DOMA&#45;BOOLEAN -->
<g id="edge12" class="edge">
<title>DTEL&#45;BOOLEAN&#45;&gt;DOMA&#45;BOOLEAN</title>
<path fill="none" stroke="black" d="M1510.87,-215.7C1510.87,-207.98 1510.87,-198.71 1510.87,-190.11"/>
<polygon fill="black" stroke="black" points="1514.37,-190.1 1510.87,-180.1 1507.37,-190.1 1514.37,-190.1"/>
</g>
<!-- TABL&#45;CMIS_S_QUERY_RESULT -->
<g id="node13" class="node">
<title>TABL&#45;CMIS_S_QUERY_RESULT</title>
<g id="a_node13"><a xlink:href="./TABL_CMIS_S_QUERY_RESULT.html" xlink:title="TABL&#45;CMIS_S_QUERY_RESULT">
<polygon fill="none" stroke="green" points="896.68,-828 675.06,-828 675.06,-792 896.68,-792 896.68,-828"/>
<text text-anchor="middle" x="785.87" y="-805.8" font-family="Times,serif" font-size="14.00">TABL&#45;CMIS_S_QUERY_RESULT</text>
</a>
</g>
</g>
<!-- TTYP&#45;CMIS_T_QUERY_RESULT&#45;&gt;TABL&#45;CMIS_S_QUERY_RESULT -->
<g id="edge13" class="edge">
<title>TTYP&#45;CMIS_T_QUERY_RESULT&#45;&gt;TABL&#45;CMIS_S_QUERY_RESULT</title>
<path fill="none" stroke="black" d="M709.58,-863.88C722.54,-854.89 738.6,-843.76 752.64,-834.03"/>
<polygon fill="black" stroke="black" points="754.84,-836.76 761.07,-828.19 750.86,-831.01 754.84,-836.76"/>
</g>
<!-- TABL&#45;CMIS_S_QUERY_RESULT&#45;&gt;TTYP&#45;CMIS_T_EXTENSION -->
<g id="edge18" class="edge">
<title>TABL&#45;CMIS_S_QUERY_RESULT&#45;&gt;TTYP&#45;CMIS_T_EXTENSION</title>
<path fill="none" stroke="black" d="M774.68,-791.87C758.87,-765.96 731.87,-714.74 731.87,-667 731.87,-667 731.87,-667 731.87,-449 731.87,-408.55 721.79,-388.11 750.87,-360 778.03,-333.76 868.64,-320.28 942.88,-313.5"/>
<polygon fill="black" stroke="black" points="943.59,-316.95 953.24,-312.59 942.97,-309.98 943.59,-316.95"/>
</g>
<!-- TTYP&#45;CMIS_T_RENDITION -->
<g id="node14" class="node">
<title>TTYP&#45;CMIS_T_RENDITION</title>
<g id="a_node14"><a xlink:href="./TTYP_CMIS_T_RENDITION.html" xlink:title="TTYP&#45;CMIS_T_RENDITION">
<polygon fill="none" stroke="green" points="703.99,-612 515.75,-612 515.75,-576 703.99,-576 703.99,-612"/>
<text text-anchor="middle" x="609.87" y="-589.8" font-family="Times,serif" font-size="14.00">TTYP&#45;CMIS_T_RENDITION</text>
</a>
</g>
</g>
<!-- TABL&#45;CMIS_S_QUERY_RESULT&#45;&gt;TTYP&#45;CMIS_T_RENDITION -->
<g id="edge17" class="edge">
<title>TABL&#45;CMIS_S_QUERY_RESULT&#45;&gt;TTYP&#45;CMIS_T_RENDITION</title>
<path fill="none" stroke="black" d="M760.04,-791.86C746.61,-782.23 730.42,-769.47 717.87,-756 678.21,-713.4 642.85,-654.89 624.08,-621.4"/>
<polygon fill="black" stroke="black" points="626.92,-619.31 619.02,-612.25 620.8,-622.7 626.92,-619.31"/>
</g>
<!-- TTYP&#45;CMIS_T_RELATIONSHIP -->
<g id="node17" class="node">
<title>TTYP&#45;CMIS_T_RELATIONSHIP</title>
<g id="a_node17"><a xlink:href="./TTYP_CMIS_T_RELATIONSHIP.html" xlink:title="TTYP&#45;CMIS_T_RELATIONSHIP">
<polygon fill="none" stroke="green" points="1128.11,-756 915.63,-756 915.63,-720 1128.11,-720 1128.11,-756"/>
<text text-anchor="middle" x="1021.87" y="-733.8" font-family="Times,serif" font-size="14.00">TTYP&#45;CMIS_T_RELATIONSHIP</text>
</a>
</g>
</g>
<!-- TABL&#45;CMIS_S_QUERY_RESULT&#45;&gt;TTYP&#45;CMIS_T_RELATIONSHIP -->
<g id="edge16" class="edge">
<title>TABL&#45;CMIS_S_QUERY_RESULT&#45;&gt;TTYP&#45;CMIS_T_RELATIONSHIP</title>
<path fill="none" stroke="black" d="M843.3,-791.97C876.85,-782.01 919.36,-769.41 954.49,-758.99"/>
<polygon fill="black" stroke="black" points="955.59,-762.31 964.18,-756.11 953.6,-755.6 955.59,-762.31"/>
</g>
<!-- TABL&#45;CMIS_S_ALLOWABLE_ACTIONS -->
<g id="node33" class="node">
<title>TABL&#45;CMIS_S_ALLOWABLE_ACTIONS</title>
<g id="a_node33"><a xlink:href="./TABL_CMIS_S_ALLOWABLE_ACTIONS.html" xlink:title="TABL&#45;CMIS_S_ALLOWABLE_ACTIONS">
<polygon fill="none" stroke="green" points="1580.82,-540 1312.92,-540 1312.92,-504 1580.82,-504 1580.82,-540"/>
<text text-anchor="middle" x="1446.87" y="-517.8" font-family="Times,serif" font-size="14.00">TABL&#45;CMIS_S_ALLOWABLE_ACTIONS</text>
</a>
</g>
</g>
<!-- TABL&#45;CMIS_S_QUERY_RESULT&#45;&gt;TABL&#45;CMIS_S_ALLOWABLE_ACTIONS -->
<g id="edge15" class="edge">
<title>TABL&#45;CMIS_S_QUERY_RESULT&#45;&gt;TABL&#45;CMIS_S_ALLOWABLE_ACTIONS</title>
<path fill="none" stroke="black" d="M896.8,-801.9C967,-795.07 1058.9,-781.77 1136.87,-756 1266.38,-713.21 1315.13,-712.01 1407.87,-612 1424.11,-594.49 1434.31,-569.13 1440.19,-549.96"/>
<polygon fill="black" stroke="black" points="1443.57,-550.88 1442.95,-540.3 1436.84,-548.95 1443.57,-550.88"/>
</g>
<!-- TABL&#45;CMIS_S_PROPERTIES -->
<g id="node34" class="node">
<title>TABL&#45;CMIS_S_PROPERTIES</title>
<g id="a_node34"><a xlink:href="./TABL_CMIS_S_PROPERTIES.html" xlink:title="TABL&#45;CMIS_S_PROPERTIES">
<polygon fill="none" stroke="green" points="955.53,-612 760.21,-612 760.21,-576 955.53,-576 955.53,-612"/>
<text text-anchor="middle" x="857.87" y="-589.8" font-family="Times,serif" font-size="14.00">TABL&#45;CMIS_S_PROPERTIES</text>
</a>
</g>
</g>
<!-- TABL&#45;CMIS_S_QUERY_RESULT&#45;&gt;TABL&#45;CMIS_S_PROPERTIES -->
<g id="edge14" class="edge">
<title>TABL&#45;CMIS_S_QUERY_RESULT&#45;&gt;TABL&#45;CMIS_S_PROPERTIES</title>
<path fill="none" stroke="black" d="M791.64,-791.85C804.15,-754.68 833.84,-666.44 848.85,-621.82"/>
<polygon fill="black" stroke="black" points="852.2,-622.83 852.07,-612.23 845.57,-620.59 852.2,-622.83"/>
</g>
<!-- TABL&#45;CMIS_S_RENDITION -->
<g id="node15" class="node">
<title>TABL&#45;CMIS_S_RENDITION</title>
<g id="a_node15"><a xlink:href="./TABL_CMIS_S_RENDITION.html" xlink:title="TABL&#45;CMIS_S_RENDITION">
<polygon fill="none" stroke="green" points="259.78,-396 69.97,-396 69.97,-360 259.78,-360 259.78,-396"/>
<text text-anchor="middle" x="164.87" y="-373.8" font-family="Times,serif" font-size="14.00">TABL&#45;CMIS_S_RENDITION</text>
</a>
</g>
</g>
<!-- TTYP&#45;CMIS_T_RENDITION&#45;&gt;TABL&#45;CMIS_S_RENDITION -->
<g id="edge19" class="edge">
<title>TTYP&#45;CMIS_T_RENDITION&#45;&gt;TABL&#45;CMIS_S_RENDITION</title>
<path fill="none" stroke="black" d="M574.21,-575.85C493.72,-537.14 298.09,-443.07 209.63,-400.52"/>
<polygon fill="black" stroke="black" points="210.93,-397.26 200.4,-396.08 207.89,-403.57 210.93,-397.26"/>
</g>
<!-- TABL&#45;CMIS_S_RENDITION&#45;&gt;TTYP&#45;CMIS_T_EXTENSION -->
<g id="edge24" class="edge">
<title>TABL&#45;CMIS_S_RENDITION&#45;&gt;TTYP&#45;CMIS_T_EXTENSION</title>
<path fill="none" stroke="black" d="M260.01,-367.24C285.31,-364.76 312.62,-362.18 337.87,-360 552.63,-341.45 804.21,-323.61 943.15,-314.1"/>
<polygon fill="black" stroke="black" points="943.63,-317.58 953.36,-313.4 943.15,-310.59 943.63,-317.58"/>
</g>
<!-- TABL&#45;CMIS_S_RENDITION&#45;&gt;DTEL&#45;CMIS_STRING -->
<g id="edge20" class="edge">
<title>TABL&#45;CMIS_S_RENDITION&#45;&gt;DTEL&#45;CMIS_STRING</title>
<path fill="none" stroke="black" d="M157.18,-359.91C146.08,-333.62 126.87,-281.45 126.87,-235 126.87,-235 126.87,-235 126.87,-161 126.87,-60.98 865.72,-29.25 1120.06,-21.28"/>
<polygon fill="black" stroke="black" points="1120.46,-24.77 1130.35,-20.97 1120.25,-17.78 1120.46,-24.77"/>
</g>
<!-- TABL&#45;CMIS_S_RENDITION&#45;&gt;DTEL&#45;CMIS_ID -->
<g id="edge23" class="edge">
<title>TABL&#45;CMIS_S_RENDITION&#45;&gt;DTEL&#45;CMIS_ID</title>
<path fill="none" stroke="black" d="M166.05,-359.79C168.38,-330.03 174.66,-267.19 188.87,-216 191.32,-207.17 194.85,-197.84 198.37,-189.51"/>
<polygon fill="black" stroke="black" points="201.61,-190.85 202.43,-180.28 195.2,-188.03 201.61,-190.85"/>
</g>
<!-- TABL&#45;CMIS_S_RENDITION&#45;&gt;DTEL&#45;INT4 -->
<g id="edge22" class="edge">
<title>TABL&#45;CMIS_S_RENDITION&#45;&gt;DTEL&#45;INT4</title>
<path fill="none" stroke="black" d="M136.01,-359.88C120.58,-350.72 101.39,-339.34 84.78,-329.48"/>
<polygon fill="black" stroke="black" points="86.24,-326.28 75.85,-324.19 82.66,-332.3 86.24,-326.28"/>
</g>
<!-- DTEL&#45;CMIS_LONG -->
<g id="node16" class="node">
<title>DTEL&#45;CMIS_LONG</title>
<g id="a_node16"><a xlink:href="./DTEL_CMIS_LONG.html" xlink:title="DTEL&#45;CMIS_LONG">
<polygon fill="none" stroke="green" points="366.9,-252 230.85,-252 230.85,-216 366.9,-216 366.9,-252"/>
<text text-anchor="middle" x="298.87" y="-229.8" font-family="Times,serif" font-size="14.00">DTEL&#45;CMIS_LONG</text>
</a>
</g>
</g>
<!-- TABL&#45;CMIS_S_RENDITION&#45;&gt;DTEL&#45;CMIS_LONG -->
<g id="edge21" class="edge">
<title>TABL&#45;CMIS_S_RENDITION&#45;&gt;DTEL&#45;CMIS_LONG</title>
<path fill="none" stroke="black" d="M181.04,-359.87C204.58,-334.92 248.43,-288.45 275.5,-259.77"/>
<polygon fill="black" stroke="black" points="278.33,-261.86 282.65,-252.19 273.24,-257.06 278.33,-261.86"/>
</g>
<!-- TABL&#45;CMIS_S_RELATIONSHIP -->
<g id="node18" class="node">
<title>TABL&#45;CMIS_S_RELATIONSHIP</title>
<g id="a_node18"><a xlink:href="./TABL_CMIS_S_RELATIONSHIP.html" xlink:title="TABL&#45;CMIS_S_RELATIONSHIP">
<polygon fill="none" stroke="green" points="1157.4,-684 944.35,-684 944.35,-648 1157.4,-648 1157.4,-684"/>
<text text-anchor="middle" x="1050.87" y="-661.8" font-family="Times,serif" font-size="14.00">TABL&#45;CMIS_S_RELATIONSHIP</text>
</a>
</g>
</g>
<!-- TTYP&#45;CMIS_T_RELATIONSHIP&#45;&gt;TABL&#45;CMIS_S_RELATIONSHIP -->
<g id="edge25" class="edge">
<title>TTYP&#45;CMIS_T_RELATIONSHIP&#45;&gt;TABL&#45;CMIS_S_RELATIONSHIP</title>
<path fill="none" stroke="black" d="M1029.04,-719.7C1032.31,-711.81 1036.25,-702.3 1039.87,-693.55"/>
<polygon fill="black" stroke="black" points="1043.19,-694.68 1043.79,-684.1 1036.73,-692 1043.19,-694.68"/>
</g>
<!-- TABL&#45;CMIS_S_RELATIONSHIP&#45;&gt;TTYP&#45;CMIS_T_EXTENSION -->
<g id="edge33" class="edge">
<title>TABL&#45;CMIS_S_RELATIONSHIP&#45;&gt;TTYP&#45;CMIS_T_EXTENSION</title>
<path fill="none" stroke="black" d="M1050.87,-647.95C1050.87,-621.29 1050.87,-568.11 1050.87,-523 1050.87,-523 1050.87,-523 1050.87,-449 1050.87,-408.99 1050.07,-362.65 1049.48,-334.08"/>
<polygon fill="black" stroke="black" points="1052.98,-333.97 1049.27,-324.05 1045.98,-334.12 1052.98,-333.97"/>
</g>
<!-- TABL&#45;CMIS_S_RELATIONSHIP&#45;&gt;DTEL&#45;BOOLEAN -->
<g id="edge30" class="edge">
<title>TABL&#45;CMIS_S_RELATIONSHIP&#45;&gt;DTEL&#45;BOOLEAN</title>
<path fill="none" stroke="black" d="M1157.47,-659.51C1319.43,-648.22 1608.87,-615.15 1608.87,-523 1608.87,-523 1608.87,-523 1608.87,-377 1608.87,-328.54 1569.73,-284.61 1540.92,-258.85"/>
<polygon fill="black" stroke="black" points="1542.96,-255.98 1533.11,-252.08 1538.37,-261.27 1542.96,-255.98"/>
</g>
<!-- TABL&#45;CMIS_S_RELATIONSHIP&#45;&gt;TTYP&#45;CMIS_T_RENDITION -->
<g id="edge32" class="edge">
<title>TABL&#45;CMIS_S_RELATIONSHIP&#45;&gt;TTYP&#45;CMIS_T_RENDITION</title>
<path fill="none" stroke="black" d="M944.12,-648.05C874.27,-636.97 783.44,-622.55 714.1,-611.54"/>
<polygon fill="black" stroke="black" points="714.46,-608.06 704.03,-609.95 713.36,-614.97 714.46,-608.06"/>
</g>
<!-- TTYP&#45;CMIS_T_ID -->
<g id="node19" class="node">
<title>TTYP&#45;CMIS_T_ID</title>
<g id="a_node19"><a xlink:href="./TTYP_CMIS_T_ID.html" xlink:title="TTYP&#45;CMIS_T_ID">
<polygon fill="none" stroke="green" points="1365.57,-612 1238.17,-612 1238.17,-576 1365.57,-576 1365.57,-612"/>
<text text-anchor="middle" x="1301.87" y="-589.8" font-family="Times,serif" font-size="14.00">TTYP&#45;CMIS_T_ID</text>
</a>
</g>
</g>
<!-- TABL&#45;CMIS_S_RELATIONSHIP&#45;&gt;TTYP&#45;CMIS_T_ID -->
<g id="edge31" class="edge">
<title>TABL&#45;CMIS_S_RELATIONSHIP&#45;&gt;TTYP&#45;CMIS_T_ID</title>
<path fill="none" stroke="black" d="M1111.95,-647.97C1147.79,-637.97 1193.23,-625.3 1230.68,-614.85"/>
<polygon fill="black" stroke="black" points="1231.83,-618.17 1240.52,-612.11 1229.95,-611.43 1231.83,-618.17"/>
</g>
<!-- TABL&#45;CMIS_S_ACL -->
<g id="node20" class="node">
<title>TABL&#45;CMIS_S_ACL</title>
<g id="a_node20"><a xlink:href="./TABL_CMIS_S_ACL.html" xlink:title="TABL&#45;CMIS_S_ACL">
<polygon fill="none" stroke="green" points="1220.58,-612 1079.16,-612 1079.16,-576 1220.58,-576 1220.58,-612"/>
<text text-anchor="middle" x="1149.87" y="-589.8" font-family="Times,serif" font-size="14.00">TABL&#45;CMIS_S_ACL</text>
</a>
</g>
</g>
<!-- TABL&#45;CMIS_S_RELATIONSHIP&#45;&gt;TABL&#45;CMIS_S_ACL -->
<g id="edge29" class="edge">
<title>TABL&#45;CMIS_S_RELATIONSHIP&#45;&gt;TABL&#45;CMIS_S_ACL</title>
<path fill="none" stroke="black" d="M1075.09,-647.88C1087.8,-638.89 1103.54,-627.76 1117.3,-618.03"/>
<polygon fill="black" stroke="black" points="1119.42,-620.82 1125.56,-612.19 1115.38,-615.11 1119.42,-620.82"/>
</g>
<!-- TABL&#45;CMIS_S_CHANGE_EVENT -->
<g id="node24" class="node">
<title>TABL&#45;CMIS_S_CHANGE_EVENT</title>
<g id="a_node24"><a xlink:href="./TABL_CMIS_S_CHANGE_EVENT.html" xlink:title="TABL&#45;CMIS_S_CHANGE_EVENT">
<polygon fill="none" stroke="green" points="1023.28,-468 798.47,-468 798.47,-432 1023.28,-432 1023.28,-468"/>
<text text-anchor="middle" x="910.87" y="-445.8" font-family="Times,serif" font-size="14.00">TABL&#45;CMIS_S_CHANGE_EVENT</text>
</a>
</g>
</g>
<!-- TABL&#45;CMIS_S_RELATIONSHIP&#45;&gt;TABL&#45;CMIS_S_CHANGE_EVENT -->
<g id="edge28" class="edge">
<title>TABL&#45;CMIS_S_RELATIONSHIP&#45;&gt;TABL&#45;CMIS_S_CHANGE_EVENT</title>
<path fill="none" stroke="black" d="M1039.65,-647.85C1015.13,-610.36 956.63,-520.95 927.69,-476.7"/>
<polygon fill="black" stroke="black" points="930.55,-474.68 922.15,-468.23 924.69,-478.52 930.55,-474.68"/>
</g>
<!-- TABL&#45;CMIS_S_RELATIONSHIP&#45;&gt;TABL&#45;CMIS_S_ALLOWABLE_ACTIONS -->
<g id="edge27" class="edge">
<title>TABL&#45;CMIS_S_RELATIONSHIP&#45;&gt;TABL&#45;CMIS_S_ALLOWABLE_ACTIONS</title>
<path fill="none" stroke="black" d="M1157.77,-655.76C1237.54,-647.35 1338.71,-633.01 1374.87,-612 1400.35,-597.19 1420.47,-569.68 1432.89,-549.14"/>
<polygon fill="black" stroke="black" points="1436.05,-550.68 1438.05,-540.27 1430,-547.16 1436.05,-550.68"/>
</g>
<!-- TABL&#45;CMIS_S_RELATIONSHIP&#45;&gt;TABL&#45;CMIS_S_PROPERTIES -->
<g id="edge26" class="edge">
<title>TABL&#45;CMIS_S_RELATIONSHIP&#45;&gt;TABL&#45;CMIS_S_PROPERTIES</title>
<path fill="none" stroke="black" d="M1003.66,-647.88C976.81,-638.14 942.99,-625.87 914.69,-615.61"/>
<polygon fill="black" stroke="black" points="915.53,-612.19 904.93,-612.07 913.14,-618.77 915.53,-612.19"/>
</g>
<!-- TABL&#45;CMIS_S_ACL&#45;&gt;TTYP&#45;CMIS_T_EXTENSION -->
<g id="edge36" class="edge">
<title>TABL&#45;CMIS_S_ACL&#45;&gt;TTYP&#45;CMIS_T_EXTENSION</title>
<path fill="none" stroke="black" d="M1132.96,-575.7C1124.29,-565.94 1114.23,-553.09 1107.87,-540 1071.93,-466.02 1086.32,-439.4 1064.87,-360 1062.56,-351.42 1059.83,-342.13 1057.28,-333.76"/>
<polygon fill="black" stroke="black" points="1060.6,-332.64 1054.32,-324.11 1053.91,-334.7 1060.6,-332.64"/>
</g>
<!-- TABL&#45;CMIS_S_ACL&#45;&gt;DTEL&#45;BOOLEAN -->
<g id="edge35" class="edge">
<title>TABL&#45;CMIS_S_ACL&#45;&gt;DTEL&#45;BOOLEAN</title>
<path fill="none" stroke="black" d="M1196.34,-575.91C1218.32,-566.8 1244.4,-554.49 1265.87,-540 1285.16,-526.99 1285.24,-517.93 1303.87,-504 1329.39,-484.91 1340.11,-486.76 1365.87,-468 1404.54,-439.84 1418.44,-435.18 1445.87,-396 1475.51,-353.67 1494.61,-295.82 1503.98,-262.23"/>
<polygon fill="black" stroke="black" points="1507.46,-262.8 1506.69,-252.23 1500.7,-260.97 1507.46,-262.8"/>
</g>
<!-- TTYP&#45;CMIS_T_ACE -->
<g id="node21" class="node">
<title>TTYP&#45;CMIS_T_ACE</title>
<g id="a_node21"><a xlink:href="./TTYP_CMIS_T_ACE.html" xlink:title="TTYP&#45;CMIS_T_ACE">
<polygon fill="none" stroke="green" points="1257.3,-540 1116.44,-540 1116.44,-504 1257.3,-504 1257.3,-540"/>
<text text-anchor="middle" x="1186.87" y="-517.8" font-family="Times,serif" font-size="14.00">TTYP&#45;CMIS_T_ACE</text>
</a>
</g>
</g>
<!-- TABL&#45;CMIS_S_ACL&#45;&gt;TTYP&#45;CMIS_T_ACE -->
<g id="edge34" class="edge">
<title>TABL&#45;CMIS_S_ACL&#45;&gt;TTYP&#45;CMIS_T_ACE</title>
<path fill="none" stroke="black" d="M1159.02,-575.7C1163.28,-567.64 1168.43,-557.89 1173.14,-548.98"/>
<polygon fill="black" stroke="black" points="1176.25,-550.58 1177.83,-540.1 1170.06,-547.31 1176.25,-550.58"/>
</g>
<!-- TABL&#45;CMIS_S_ACE -->
<g id="node22" class="node">
<title>TABL&#45;CMIS_S_ACE</title>
<g id="a_node22"><a xlink:href="./TABL_CMIS_S_ACE.html" xlink:title="TABL&#45;CMIS_S_ACE">
<polygon fill="none" stroke="green" points="1356.58,-468 1215.16,-468 1215.16,-432 1356.58,-432 1356.58,-468"/>
<text text-anchor="middle" x="1285.87" y="-445.8" font-family="Times,serif" font-size="14.00">TABL&#45;CMIS_S_ACE</text>
</a>
</g>
</g>
<!-- TTYP&#45;CMIS_T_ACE&#45;&gt;TABL&#45;CMIS_S_ACE -->
<g id="edge37" class="edge">
<title>TTYP&#45;CMIS_T_ACE&#45;&gt;TABL&#45;CMIS_S_ACE</title>
<path fill="none" stroke="black" d="M1211.09,-503.88C1223.8,-494.89 1239.54,-483.76 1253.3,-474.03"/>
<polygon fill="black" stroke="black" points="1255.42,-476.82 1261.56,-468.19 1251.38,-471.11 1255.42,-476.82"/>
</g>
<!-- TABL&#45;CMIS_S_ACE&#45;&gt;TTYP&#45;CMIS_T_EXTENSION -->
<g id="edge41" class="edge">
<title>TABL&#45;CMIS_S_ACE&#45;&gt;TTYP&#45;CMIS_T_EXTENSION</title>
<path fill="none" stroke="black" d="M1248.42,-431.98C1228.64,-422.39 1204.29,-409.62 1183.87,-396 1163.14,-382.17 1161.3,-374.28 1140.87,-360 1125.08,-348.97 1106.86,-338.11 1090.81,-329.13"/>
<polygon fill="black" stroke="black" points="1092.1,-325.84 1081.65,-324.06 1088.71,-331.96 1092.1,-325.84"/>
</g>
<!-- TABL&#45;CMIS_S_ACE&#45;&gt;DTEL&#45;CMIS_STRING -->
<g id="edge39" class="edge">
<title>TABL&#45;CMIS_S_ACE&#45;&gt;DTEL&#45;CMIS_STRING</title>
<path fill="none" stroke="black" d="M1339.07,-432C1357.02,-423.78 1375.6,-412.11 1387.87,-396 1412.38,-363.82 1406.87,-347.45 1406.87,-307 1406.87,-307 1406.87,-307 1406.87,-161 1406.87,-115.41 1390.92,-101.16 1355.87,-72 1336.63,-55.99 1312.23,-44.69 1288.69,-36.76"/>
<polygon fill="black" stroke="black" points="1289.62,-33.38 1279.02,-33.67 1287.48,-40.05 1289.62,-33.38"/>
</g>
<!-- TABL&#45;CMIS_S_ACE&#45;&gt;DTEL&#45;BOOLEAN -->
<g id="edge40" class="edge">
<title>TABL&#45;CMIS_S_ACE&#45;&gt;DTEL&#45;BOOLEAN</title>
<path fill="none" stroke="black" d="M1356.64,-432.73C1379.33,-424.7 1403.13,-412.97 1420.87,-396 1458.83,-359.69 1441.68,-332.94 1468.87,-288 1474.68,-278.41 1481.99,-268.6 1488.89,-260.07"/>
<polygon fill="black" stroke="black" points="1491.62,-262.26 1495.3,-252.33 1486.23,-257.79 1491.62,-262.26"/>
</g>
<!-- TABL&#45;CMIS_S_PRINCIPAL -->
<g id="node23" class="node">
<title>TABL&#45;CMIS_S_PRINCIPAL</title>
<g id="a_node23"><a xlink:href="./TABL_CMIS_S_PRINCIPAL.html" xlink:title="TABL&#45;CMIS_S_PRINCIPAL">
<polygon fill="none" stroke="green" points="1378.41,-396 1193.33,-396 1193.33,-360 1378.41,-360 1378.41,-396"/>
<text text-anchor="middle" x="1285.87" y="-373.8" font-family="Times,serif" font-size="14.00">TABL&#45;CMIS_S_PRINCIPAL</text>
</a>
</g>
</g>
<!-- TABL&#45;CMIS_S_ACE&#45;&gt;TABL&#45;CMIS_S_PRINCIPAL -->
<g id="edge38" class="edge">
<title>TABL&#45;CMIS_S_ACE&#45;&gt;TABL&#45;CMIS_S_PRINCIPAL</title>
<path fill="none" stroke="black" d="M1285.87,-431.7C1285.87,-423.98 1285.87,-414.71 1285.87,-406.11"/>
<polygon fill="black" stroke="black" points="1289.37,-406.1 1285.87,-396.1 1282.37,-406.1 1289.37,-406.1"/>
</g>
<!-- TABL&#45;CMIS_S_PRINCIPAL&#45;&gt;TTYP&#45;CMIS_T_EXTENSION -->
<g id="edge43" class="edge">
<title>TABL&#45;CMIS_S_PRINCIPAL&#45;&gt;TTYP&#45;CMIS_T_EXTENSION</title>
<path fill="none" stroke="black" d="M1228.2,-359.97C1194.51,-350.01 1151.82,-337.41 1116.54,-326.99"/>
<polygon fill="black" stroke="black" points="1117.39,-323.59 1106.8,-324.11 1115.4,-330.3 1117.39,-323.59"/>
</g>
<!-- TABL&#45;CMIS_S_PRINCIPAL&#45;&gt;DTEL&#45;CMIS_STRING -->
<g id="edge42" class="edge">
<title>TABL&#45;CMIS_S_PRINCIPAL&#45;&gt;DTEL&#45;CMIS_STRING</title>
<path fill="none" stroke="black" d="M1304.29,-359.64C1328.75,-334.62 1368.87,-285.83 1368.87,-235 1368.87,-235 1368.87,-235 1368.87,-161 1368.87,-117.45 1359.05,-102.41 1327.87,-72 1313.77,-58.24 1295.53,-47.79 1277.43,-39.95"/>
<polygon fill="black" stroke="black" points="1278.59,-36.64 1268,-36.09 1275.93,-43.12 1278.59,-36.64"/>
</g>
<!-- TABL&#45;CMIS_S_CHANGE_EVENT&#45;&gt;TTYP&#45;CMIS_T_EXTENSION -->
<g id="edge46" class="edge">
<title>TABL&#45;CMIS_S_CHANGE_EVENT&#45;&gt;TTYP&#45;CMIS_T_EXTENSION</title>
<path fill="none" stroke="black" d="M935.23,-431.85C948.45,-422.02 964.74,-409.08 977.87,-396 997.82,-376.13 1017.55,-350.82 1031.13,-332.27"/>
<polygon fill="black" stroke="black" points="1034.08,-334.17 1037.1,-324.02 1028.4,-330.07 1034.08,-334.17"/>
</g>
<!-- TABL&#45;CMIS_S_DATE_TIME -->
<g id="node25" class="node">
<title>TABL&#45;CMIS_S_DATE_TIME</title>
<g id="a_node25"><a xlink:href="./TABL_CMIS_S_DATE_TIME.html" xlink:title="TABL&#45;CMIS_S_DATE_TIME">
<polygon fill="none" stroke="green" points="967.62,-252 776.13,-252 776.13,-216 967.62,-216 967.62,-252"/>
<text text-anchor="middle" x="871.87" y="-229.8" font-family="Times,serif" font-size="14.00">TABL&#45;CMIS_S_DATE_TIME</text>
</a>
</g>
</g>
<!-- TABL&#45;CMIS_S_CHANGE_EVENT&#45;&gt;TABL&#45;CMIS_S_DATE_TIME -->
<g id="edge45" class="edge">
<title>TABL&#45;CMIS_S_CHANGE_EVENT&#45;&gt;TABL&#45;CMIS_S_DATE_TIME</title>
<path fill="none" stroke="black" d="M911.25,-431.82C911.39,-413.81 910.84,-384.74 906.87,-360 901.32,-325.38 889.59,-286.68 881.24,-261.64"/>
<polygon fill="black" stroke="black" points="884.54,-260.46 878.01,-252.11 877.91,-262.71 884.54,-260.46"/>
</g>
<!-- DTEL&#45;CMIS_ENUM -->
<g id="node32" class="node">
<title>DTEL&#45;CMIS_ENUM</title>
<g id="a_node32"><a xlink:href="./DTEL_CMIS_ENUM.html" xlink:title="DTEL&#45;CMIS_ENUM">
<polygon fill="none" stroke="green" points="898.23,-396 759.51,-396 759.51,-360 898.23,-360 898.23,-396"/>
<text text-anchor="middle" x="828.87" y="-373.8" font-family="Times,serif" font-size="14.00">DTEL&#45;CMIS_ENUM</text>
</a>
</g>
</g>
<!-- TABL&#45;CMIS_S_CHANGE_EVENT&#45;&gt;DTEL&#45;CMIS_ENUM -->
<g id="edge44" class="edge">
<title>TABL&#45;CMIS_S_CHANGE_EVENT&#45;&gt;DTEL&#45;CMIS_ENUM</title>
<path fill="none" stroke="black" d="M890.6,-431.7C880.37,-422.97 867.81,-412.24 856.69,-402.75"/>
<polygon fill="black" stroke="black" points="858.79,-399.94 848.91,-396.1 854.24,-405.26 858.79,-399.94"/>
</g>
<!-- DTEL&#45;TZNUTCSIGN -->
<g id="node26" class="node">
<title>DTEL&#45;TZNUTCSIGN</title>
<g id="a_node26"><a xlink:href="./DTEL_TZNUTCSIGN.html" xlink:title="DTEL&#45;TZNUTCSIGN">
<polygon fill="none" stroke="yellow" points="783.16,-180 638.58,-180 638.58,-144 783.16,-144 783.16,-180"/>
<text text-anchor="middle" x="710.87" y="-157.8" font-family="Times,serif" font-size="14.00">DTEL&#45;TZNUTCSIGN</text>
</a>
</g>
</g>
<!-- TABL&#45;CMIS_S_DATE_TIME&#45;&gt;DTEL&#45;TZNUTCSIGN -->
<g id="edge49" class="edge">
<title>TABL&#45;CMIS_S_DATE_TIME&#45;&gt;DTEL&#45;TZNUTCSIGN</title>
<path fill="none" stroke="black" d="M832.49,-215.88C810.48,-206.31 782.86,-194.3 759.51,-184.15"/>
<polygon fill="black" stroke="black" points="760.7,-180.85 750.13,-180.07 757.9,-187.27 760.7,-180.85"/>
</g>
<!-- DTEL&#45;TZNUTCDIFF -->
<g id="node28" class="node">
<title>DTEL&#45;TZNUTCDIFF</title>
<g id="a_node28"><a xlink:href="./DTEL_TZNUTCDIFF.html" xlink:title="DTEL&#45;TZNUTCDIFF">
<polygon fill="none" stroke="yellow" points="942.84,-180 800.91,-180 800.91,-144 942.84,-144 942.84,-180"/>
<text text-anchor="middle" x="871.87" y="-157.8" font-family="Times,serif" font-size="14.00">DTEL&#45;TZNUTCDIFF</text>
</a>
</g>
</g>
<!-- TABL&#45;CMIS_S_DATE_TIME&#45;&gt;DTEL&#45;TZNUTCDIFF -->
<g id="edge48" class="edge">
<title>TABL&#45;CMIS_S_DATE_TIME&#45;&gt;DTEL&#45;TZNUTCDIFF</title>
<path fill="none" stroke="black" d="M871.87,-215.7C871.87,-207.98 871.87,-198.71 871.87,-190.11"/>
<polygon fill="black" stroke="black" points="875.37,-190.1 871.87,-180.1 868.37,-190.1 875.37,-190.1"/>
</g>
<!-- DTEL&#45;TIMESTAMPL -->
<g id="node30" class="node">
<title>DTEL&#45;TIMESTAMPL</title>
<g id="a_node30"><a xlink:href="./DTEL_TIMESTAMPL.html" xlink:title="DTEL&#45;TIMESTAMPL">
<polygon fill="none" stroke="green" points="1106.73,-180 961.02,-180 961.02,-144 1106.73,-144 1106.73,-180"/>
<text text-anchor="middle" x="1033.87" y="-157.8" font-family="Times,serif" font-size="14.00">DTEL&#45;TIMESTAMPL</text>
</a>
</g>
</g>
<!-- TABL&#45;CMIS_S_DATE_TIME&#45;&gt;DTEL&#45;TIMESTAMPL -->
<g id="edge47" class="edge">
<title>TABL&#45;CMIS_S_DATE_TIME&#45;&gt;DTEL&#45;TIMESTAMPL</title>
<path fill="none" stroke="black" d="M911.5,-215.88C933.65,-206.31 961.43,-194.3 984.93,-184.15"/>
<polygon fill="black" stroke="black" points="986.58,-187.25 994.37,-180.07 983.8,-180.82 986.58,-187.25"/>
</g>
<!-- DOMA&#45;TZNSIGN -->
<g id="node27" class="node">
<title>DOMA&#45;TZNSIGN</title>
<g id="a_node27"><a xlink:href="./DOMA_TZNSIGN.html" xlink:title="DOMA&#45;TZNSIGN">
<polygon fill="none" stroke="yellow" points="762.67,-108 639.08,-108 639.08,-72 762.67,-72 762.67,-108"/>
<text text-anchor="middle" x="700.87" y="-85.8" font-family="Times,serif" font-size="14.00">DOMA&#45;TZNSIGN</text>
</a>
</g>
</g>
<!-- DTEL&#45;TZNUTCSIGN&#45;&gt;DOMA&#45;TZNSIGN -->
<g id="edge50" class="edge">
<title>DTEL&#45;TZNUTCSIGN&#45;&gt;DOMA&#45;TZNSIGN</title>
<path fill="none" stroke="black" d="M708.4,-143.7C707.3,-135.98 705.97,-126.71 704.75,-118.11"/>
<polygon fill="black" stroke="black" points="708.19,-117.51 703.32,-108.1 701.27,-118.5 708.19,-117.51"/>
</g>
<!-- DOMA&#45;TZNTIMDIFF -->
<g id="node29" class="node">
<title>DOMA&#45;TZNTIMDIFF</title>
<g id="a_node29"><a xlink:href="./DOMA_TZNTIMDIFF.html" xlink:title="DOMA&#45;TZNTIMDIFF">
<polygon fill="none" stroke="yellow" points="927,-108 780.74,-108 780.74,-72 927,-72 927,-108"/>
<text text-anchor="middle" x="853.87" y="-85.8" font-family="Times,serif" font-size="14.00">DOMA&#45;TZNTIMDIFF</text>
</a>
</g>
</g>
<!-- DTEL&#45;TZNUTCDIFF&#45;&gt;DOMA&#45;TZNTIMDIFF -->
<g id="edge51" class="edge">
<title>DTEL&#45;TZNUTCDIFF&#45;&gt;DOMA&#45;TZNTIMDIFF</title>
<path fill="none" stroke="black" d="M867.42,-143.7C865.42,-135.9 863,-126.51 860.77,-117.83"/>
<polygon fill="black" stroke="black" points="864.15,-116.92 858.27,-108.1 857.37,-118.66 864.15,-116.92"/>
</g>
<!-- DOMA&#45;TZNTSTMPL -->
<g id="node31" class="node">
<title>DOMA&#45;TZNTSTMPL</title>
<g id="a_node31"><a xlink:href="./DOMA_TZNTSTMPL.html" xlink:title="DOMA&#45;TZNTSTMPL">
<polygon fill="none" stroke="yellow" points="1089.18,-108 944.57,-108 944.57,-72 1089.18,-72 1089.18,-108"/>
<text text-anchor="middle" x="1016.87" y="-85.8" font-family="Times,serif" font-size="14.00">DOMA&#45;TZNTSTMPL</text>
</a>
</g>
</g>
<!-- DTEL&#45;TIMESTAMPL&#45;&gt;DOMA&#45;TZNTSTMPL -->
<g id="edge52" class="edge">
<title>DTEL&#45;TIMESTAMPL&#45;&gt;DOMA&#45;TZNTSTMPL</title>
<path fill="none" stroke="black" d="M1029.67,-143.7C1027.78,-135.9 1025.5,-126.51 1023.39,-117.83"/>
<polygon fill="black" stroke="black" points="1026.79,-117 1021.03,-108.1 1019.99,-118.65 1026.79,-117"/>
</g>
<!-- TABL&#45;CMIS_S_ALLOWABLE_ACTIONS&#45;&gt;TTYP&#45;CMIS_T_EXTENSION -->
<g id="edge54" class="edge">
<title>TABL&#45;CMIS_S_ALLOWABLE_ACTIONS&#45;&gt;TTYP&#45;CMIS_T_EXTENSION</title>
<path fill="none" stroke="black" d="M1312.92,-506.11C1276.59,-498.26 1238.35,-486.29 1205.87,-468 1148.07,-435.46 1149.44,-407.24 1102.87,-360 1093.51,-350.5 1083.07,-340.19 1073.89,-331.22"/>
<polygon fill="black" stroke="black" points="1076.13,-328.51 1066.53,-324.04 1071.25,-333.53 1076.13,-328.51"/>
</g>
<!-- TABL&#45;CMIS_S_ALLOWABLE_ACTIONS&#45;&gt;DTEL&#45;BOOLEAN -->
<g id="edge53" class="edge">
<title>TABL&#45;CMIS_S_ALLOWABLE_ACTIONS&#45;&gt;DTEL&#45;BOOLEAN</title>
<path fill="none" stroke="black" d="M1455.68,-503.73C1467.29,-480.09 1487.35,-436.02 1496.87,-396 1507.84,-349.9 1510.43,-294.54 1510.92,-262.22"/>
<polygon fill="black" stroke="black" points="1514.42,-262.22 1511.02,-252.18 1507.42,-262.15 1514.42,-262.22"/>
</g>
<!-- TABL&#45;CMIS_S_PROPERTIES&#45;&gt;TTYP&#45;CMIS_T_EXTENSION -->
<g id="edge56" class="edge">
<title>TABL&#45;CMIS_S_PROPERTIES&#45;&gt;TTYP&#45;CMIS_T_EXTENSION</title>
<path fill="none" stroke="black" d="M839.81,-575.66C809.67,-544.6 755.62,-478.37 789.87,-432 822.2,-388.24 857.4,-418.64 906.87,-396 947.15,-377.57 989.75,-349.58 1017.65,-329.92"/>
<polygon fill="black" stroke="black" points="1019.71,-332.76 1025.83,-324.11 1015.65,-327.05 1019.71,-332.76"/>
</g>
<!-- TTYP&#45;CMIS_T_PROPERTY -->
<g id="node35" class="node">
<title>TTYP&#45;CMIS_T_PROPERTY</title>
<g id="a_node35"><a xlink:href="./TTYP_CMIS_T_PROPERTY.html" xlink:title="TTYP&#45;CMIS_T_PROPERTY">
<polygon fill="none" stroke="green" points="703.86,-540 519.88,-540 519.88,-504 703.86,-504 703.86,-540"/>
<text text-anchor="middle" x="611.87" y="-517.8" font-family="Times,serif" font-size="14.00">TTYP&#45;CMIS_T_PROPERTY</text>
</a>
</g>
</g>
<!-- TABL&#45;CMIS_S_PROPERTIES&#45;&gt;TTYP&#45;CMIS_T_PROPERTY -->
<g id="edge55" class="edge">
<title>TABL&#45;CMIS_S_PROPERTIES&#45;&gt;TTYP&#45;CMIS_T_PROPERTY</title>
<path fill="none" stroke="black" d="M798.01,-575.97C762.89,-565.97 718.35,-553.3 681.64,-542.85"/>
<polygon fill="black" stroke="black" points="682.58,-539.48 672,-540.11 680.66,-546.21 682.58,-539.48"/>
</g>
<!-- TABL&#45;CMIS_S_PROPERTY -->
<g id="node36" class="node">
<title>TABL&#45;CMIS_S_PROPERTY</title>
<g id="a_node36"><a xlink:href="./TABL_CMIS_S_PROPERTY.html" xlink:title="TABL&#45;CMIS_S_PROPERTY">
<polygon fill="none" stroke="green" points="666.15,-468 481.6,-468 481.6,-432 666.15,-432 666.15,-468"/>
<text text-anchor="middle" x="573.87" y="-445.8" font-family="Times,serif" font-size="14.00">TABL&#45;CMIS_S_PROPERTY</text>
</a>
</g>
</g>
<!-- TTYP&#45;CMIS_T_PROPERTY&#45;&gt;TABL&#45;CMIS_S_PROPERTY -->
<g id="edge57" class="edge">
<title>TTYP&#45;CMIS_T_PROPERTY&#45;&gt;TABL&#45;CMIS_S_PROPERTY</title>
<path fill="none" stroke="black" d="M602.48,-503.7C598.11,-495.64 592.82,-485.89 587.98,-476.98"/>
<polygon fill="black" stroke="black" points="591,-475.22 583.16,-468.1 584.85,-478.56 591,-475.22"/>
</g>
<!-- TABL&#45;CMIS_S_PROPERTY&#45;&gt;TTYP&#45;CMIS_T_EXTENSION -->
<g id="edge62" class="edge">
<title>TABL&#45;CMIS_S_PROPERTY&#45;&gt;TTYP&#45;CMIS_T_EXTENSION</title>
<path fill="none" stroke="black" d="M591.96,-431.68C616.73,-408.35 660.35,-368.73 679.87,-360 725.64,-339.53 851.18,-324.42 943.16,-315.69"/>
<polygon fill="black" stroke="black" points="943.73,-319.15 953.36,-314.73 943.07,-312.18 943.73,-319.15"/>
</g>
<!-- TABL&#45;CMIS_S_PROPERTY&#45;&gt;DTEL&#45;CMIS_STRING -->
<g id="edge60" class="edge">
<title>TABL&#45;CMIS_S_PROPERTY&#45;&gt;DTEL&#45;CMIS_STRING</title>
<path fill="none" stroke="black" d="M581.67,-431.68C585.93,-421.49 590.93,-408.24 593.87,-396 610.79,-325.56 578.17,-122.74 629.87,-72 664.14,-38.37 969.2,-25.39 1120.52,-20.99"/>
<polygon fill="black" stroke="black" points="1120.8,-24.48 1130.7,-20.7 1120.6,-17.49 1120.8,-24.48"/>
</g>
<!-- TABL&#45;CMIS_S_PROPERTY&#45;&gt;DTEL&#45;CMIS_ID -->
<g id="edge58" class="edge">
<title>TABL&#45;CMIS_S_PROPERTY&#45;&gt;DTEL&#45;CMIS_ID</title>
<path fill="none" stroke="black" d="M481.33,-442.61C435.41,-436 380.74,-422.69 337.87,-396 268.1,-352.57 253.92,-327.68 221.87,-252 213.59,-232.44 211.01,-208.44 210.41,-190.3"/>
<polygon fill="black" stroke="black" points="213.91,-190.06 210.26,-180.11 206.91,-190.16 213.91,-190.06"/>
</g>
<!-- TABL&#45;CMIS_S_PROPERTY&#45;&gt;DTEL&#45;CMIS_ENUM -->
<g id="edge59" class="edge">
<title>TABL&#45;CMIS_S_PROPERTY&#45;&gt;DTEL&#45;CMIS_ENUM</title>
<path fill="none" stroke="black" d="M635.93,-431.97C672.33,-421.97 718.5,-409.3 756.55,-398.85"/>
<polygon fill="black" stroke="black" points="757.82,-402.13 766.54,-396.11 755.97,-395.38 757.82,-402.13"/>
</g>
<!-- TTYP&#45;CMIS_T_PROPERTY_VALUE -->
<g id="node37" class="node">
<title>TTYP&#45;CMIS_T_PROPERTY_VALUE</title>
<g id="a_node37"><a xlink:href="./TTYP_CMIS_T_PROPERTY_VALUE.html" xlink:title="TTYP&#45;CMIS_T_PROPERTY_VALUE">
<polygon fill="none" stroke="green" points="585.29,-396 346.46,-396 346.46,-360 585.29,-360 585.29,-396"/>
<text text-anchor="middle" x="465.87" y="-373.8" font-family="Times,serif" font-size="14.00">TTYP&#45;CMIS_T_PROPERTY_VALUE</text>
</a>
</g>
</g>
<!-- TABL&#45;CMIS_S_PROPERTY&#45;&gt;TTYP&#45;CMIS_T_PROPERTY_VALUE -->
<g id="edge61" class="edge">
<title>TABL&#45;CMIS_S_PROPERTY&#45;&gt;TTYP&#45;CMIS_T_PROPERTY_VALUE</title>
<path fill="none" stroke="black" d="M547.45,-431.88C533.46,-422.81 516.1,-411.55 500.99,-401.76"/>
<polygon fill="black" stroke="black" points="502.69,-398.69 492.39,-396.19 498.88,-404.57 502.69,-398.69"/>
</g>
<!-- TABL&#45;CMIS_S_PROPERTY_VALUE -->
<g id="node38" class="node">
<title>TABL&#45;CMIS_S_PROPERTY_VALUE</title>
<g id="a_node38"><a xlink:href="./TABL_CMIS_S_PROPERTY_VALUE.html" xlink:title="TABL&#45;CMIS_S_PROPERTY_VALUE">
<polygon fill="none" stroke="green" points="584.57,-324 345.17,-324 345.17,-288 584.57,-288 584.57,-324"/>
<text text-anchor="middle" x="464.87" y="-301.8" font-family="Times,serif" font-size="14.00">TABL&#45;CMIS_S_PROPERTY_VALUE</text>
</a>
</g>
</g>
<!-- TTYP&#45;CMIS_T_PROPERTY_VALUE&#45;&gt;TABL&#45;CMIS_S_PROPERTY_VALUE -->
<g id="edge63" class="edge">
<title>TTYP&#45;CMIS_T_PROPERTY_VALUE&#45;&gt;TABL&#45;CMIS_S_PROPERTY_VALUE</title>
<path fill="none" stroke="black" d="M465.63,-359.7C465.52,-351.98 465.38,-342.71 465.26,-334.11"/>
<polygon fill="black" stroke="black" points="468.76,-334.05 465.12,-324.1 461.76,-334.15 468.76,-334.05"/>
</g>
<!-- TABL&#45;CMIS_S_PROPERTY_VALUE&#45;&gt;DTEL&#45;CMIS_STRING -->
<g id="edge64" class="edge">
<title>TABL&#45;CMIS_S_PROPERTY_VALUE&#45;&gt;DTEL&#45;CMIS_STRING</title>
<path fill="none" stroke="black" d="M510.17,-287.82C526.82,-279.39 544.4,-267.62 555.87,-252 604.45,-185.88 535.02,-125.91 596.87,-72 635.49,-38.34 962.69,-25.29 1120.46,-20.92"/>
<polygon fill="black" stroke="black" points="1120.7,-24.42 1130.6,-20.65 1120.51,-17.42 1120.7,-24.42"/>
</g>
<!-- TABL&#45;CMIS_S_PROPERTY_VALUE&#45;&gt;DTEL&#45;BOOLEAN -->
<g id="edge65" class="edge">
<title>TABL&#45;CMIS_S_PROPERTY_VALUE&#45;&gt;DTEL&#45;BOOLEAN</title>
<path fill="none" stroke="black" d="M584.61,-296.99C803.47,-282.34 1261.87,-251.66 1438.93,-239.81"/>
<polygon fill="black" stroke="black" points="1439.18,-243.31 1448.92,-239.15 1438.71,-236.32 1439.18,-243.31"/>
</g>
<!-- TABL&#45;CMIS_S_PROPERTY_VALUE&#45;&gt;DTEL&#45;CMIS_LONG -->
<g id="edge66" class="edge">
<title>TABL&#45;CMIS_S_PROPERTY_VALUE&#45;&gt;DTEL&#45;CMIS_LONG</title>
<path fill="none" stroke="black" d="M424.26,-287.88C401.47,-278.26 372.85,-266.19 348.7,-256.01"/>
<polygon fill="black" stroke="black" points="349.92,-252.73 339.35,-252.07 347.2,-259.18 349.92,-252.73"/>
</g>
<!-- TABL&#45;CMIS_S_PROPERTY_VALUE&#45;&gt;TABL&#45;CMIS_S_DATE_TIME -->
<g id="edge68" class="edge">
<title>TABL&#45;CMIS_S_PROPERTY_VALUE&#45;&gt;TABL&#45;CMIS_S_DATE_TIME</title>
<path fill="none" stroke="black" d="M563.92,-287.97C625.11,-277.44 703.6,-263.94 766.02,-253.2"/>
<polygon fill="black" stroke="black" points="766.64,-256.65 775.9,-251.51 765.45,-249.75 766.64,-256.65"/>
</g>
<!-- DTEL&#45;CMIS_DECIMAL -->
<g id="node39" class="node">
<title>DTEL&#45;CMIS_DECIMAL</title>
<g id="a_node39"><a xlink:href="./DTEL_CMIS_DECIMAL.html" xlink:title="DTEL&#45;CMIS_DECIMAL">
<polygon fill="none" stroke="green" points="546.78,-252 384.96,-252 384.96,-216 546.78,-216 546.78,-252"/>
<text text-anchor="middle" x="465.87" y="-229.8" font-family="Times,serif" font-size="14.00">DTEL&#45;CMIS_DECIMAL</text>
</a>
</g>
</g>
<!-- TABL&#45;CMIS_S_PROPERTY_VALUE&#45;&gt;DTEL&#45;CMIS_DECIMAL -->
<g id="edge67" class="edge">
<title>TABL&#45;CMIS_S_PROPERTY_VALUE&#45;&gt;DTEL&#45;CMIS_DECIMAL</title>
<path fill="none" stroke="black" d="M465.12,-287.7C465.23,-279.98 465.36,-270.71 465.49,-262.11"/>
<polygon fill="black" stroke="black" points="468.98,-262.15 465.63,-252.1 461.99,-262.05 468.98,-262.15"/>
</g>
</g>
</svg>
