<?xml version="1.0" encoding="UTF-8" standalone="no"?>
<!DOCTYPE svg PUBLIC "-//W3C//DTD SVG 1.1//EN"
 "http://www.w3.org/Graphics/SVG/1.1/DTD/svg11.dtd">
<!-- Generated by graphviz version 2.47.3 (20210619.1520)
 -->
<!-- Title: G Pages: 1 -->
<svg width="910pt" height="188pt"
 viewBox="0.00 0.00 910.20 188.00" xmlns="http://www.w3.org/2000/svg" xmlns:xlink="http://www.w3.org/1999/xlink">
<g id="graph0" class="graph" transform="scale(1 1) rotate(0) translate(4 184)">
<title>G</title>
<polygon fill="white" stroke="transparent" points="-4,4 -4,-184 906.2,-184 906.2,4 -4,4"/>
<!-- TABL&#45;APS_COM_S_OBS_HTTP_OUT -->
<g id="node1" class="node">
<title>TABL&#45;APS_COM_S_OBS_HTTP_OUT</title>
<polygon fill="none" stroke="yellow" points="590.31,-180 342.23,-180 342.23,-144 590.31,-144 590.31,-180"/>
<text text-anchor="middle" x="466.27" y="-157.8" font-family="Times,serif" font-size="14.00">TABL&#45;APS_COM_S_OBS_HTTP_OUT</text>
</g>
<!-- DTEL&#45;APS_COM_OBS_HTTP_COMPR_REPLY -->
<g id="node2" class="node">
<title>DTEL&#45;APS_COM_OBS_HTTP_COMPR_REPLY</title>
<g id="a_node2"><a xlink:href="./DTEL_APS_COM_OBS_HTTP_COMPR_REPLY.html" xlink:title="DTEL&#45;APS_COM_OBS_HTTP_COMPR_REPLY">
<polygon fill="none" stroke="yellow" points="304.31,-108 0.23,-108 0.23,-72 304.31,-72 304.31,-108"/>
<text text-anchor="middle" x="152.27" y="-85.8" font-family="Times,serif" font-size="14.00">DTEL&#45;APS_COM_OBS_HTTP_COMPR_REPLY</text>
</a>
</g>
</g>
<!-- TABL&#45;APS_COM_S_OBS_HTTP_OUT&#45;&gt;DTEL&#45;APS_COM_OBS_HTTP_COMPR_REPLY -->
<g id="edge3" class="edge">
<title>TABL&#45;APS_COM_S_OBS_HTTP_OUT&#45;&gt;DTEL&#45;APS_COM_OBS_HTTP_COMPR_REPLY</title>
<path fill="none" stroke="black" d="M389.86,-143.97C344.19,-133.78 286.03,-120.82 238.68,-110.26"/>
<polygon fill="black" stroke="black" points="239.28,-106.81 228.75,-108.05 237.75,-113.64 239.28,-106.81"/>
</g>
<!-- DTEL&#45;APS_COM_OBS_HTTP_COMPR_REQ -->
<g id="node4" class="node">
<title>DTEL&#45;APS_COM_OBS_HTTP_COMPR_REQ</title>
<g id="a_node4"><a xlink:href="./DTEL_APS_COM_OBS_HTTP_COMPR_REQ.html" xlink:title="DTEL&#45;APS_COM_OBS_HTTP_COMPR_REQ">
<polygon fill="none" stroke="yellow" points="610.48,-108 322.06,-108 322.06,-72 610.48,-72 610.48,-108"/>
<text text-anchor="middle" x="466.27" y="-85.8" font-family="Times,serif" font-size="14.00">DTEL&#45;APS_COM_OBS_HTTP_COMPR_REQ</text>
</a>
</g>
</g>
<!-- TABL&#45;APS_COM_S_OBS_HTTP_OUT&#45;&gt;DTEL&#45;APS_COM_OBS_HTTP_COMPR_REQ -->
<g id="edge2" class="edge">
<title>TABL&#45;APS_COM_S_OBS_HTTP_OUT&#45;&gt;DTEL&#45;APS_COM_OBS_HTTP_COMPR_REQ</title>
<path fill="none" stroke="black" d="M466.27,-143.7C466.27,-135.98 466.27,-126.71 466.27,-118.11"/>
<polygon fill="black" stroke="black" points="469.77,-118.1 466.27,-108.1 462.77,-118.1 469.77,-118.1"/>
</g>
<!-- DTEL&#45;APS_COM_OBS_HTTP_VERSION -->
<g id="node6" class="node">
<title>DTEL&#45;APS_COM_OBS_HTTP_VERSION</title>
<g id="a_node6"><a xlink:href="./DTEL_APS_COM_OBS_HTTP_VERSION.html" xlink:title="DTEL&#45;APS_COM_OBS_HTTP_VERSION">
<polygon fill="none" stroke="yellow" points="896.63,-108 631.91,-108 631.91,-72 896.63,-72 896.63,-108"/>
<text text-anchor="middle" x="764.27" y="-85.8" font-family="Times,serif" font-size="14.00">DTEL&#45;APS_COM_OBS_HTTP_VERSION</text>
</a>
</g>
</g>
<!-- TABL&#45;APS_COM_S_OBS_HTTP_OUT&#45;&gt;DTEL&#45;APS_COM_OBS_HTTP_VERSION -->
<g id="edge1" class="edge">
<title>TABL&#45;APS_COM_S_OBS_HTTP_OUT&#45;&gt;DTEL&#45;APS_COM_OBS_HTTP_VERSION</title>
<path fill="none" stroke="black" d="M538.79,-143.97C581.95,-133.83 636.87,-120.93 681.7,-110.4"/>
<polygon fill="black" stroke="black" points="682.75,-113.74 691.69,-108.05 681.15,-106.93 682.75,-113.74"/>
</g>
<!-- DOMA&#45;XFELD -->
<g id="node3" class="node">
<title>DOMA&#45;XFELD</title>
<g id="a_node3"><a xlink:href="./DOMA_XFELD.html" xlink:title="DOMA&#45;XFELD">
<polygon fill="none" stroke="yellow" points="206.3,-36 98.24,-36 98.24,0 206.3,0 206.3,-36"/>
<text text-anchor="middle" x="152.27" y="-13.8" font-family="Times,serif" font-size="14.00">DOMA&#45;XFELD</text>
</a>
</g>
</g>
<!-- DTEL&#45;APS_COM_OBS_HTTP_COMPR_REPLY&#45;&gt;DOMA&#45;XFELD -->
<g id="edge4" class="edge">
<title>DTEL&#45;APS_COM_OBS_HTTP_COMPR_REPLY&#45;&gt;DOMA&#45;XFELD</title>
<path fill="none" stroke="black" d="M152.27,-71.7C152.27,-63.98 152.27,-54.71 152.27,-46.11"/>
<polygon fill="black" stroke="black" points="155.77,-46.1 152.27,-36.1 148.77,-46.1 155.77,-46.1"/>
</g>
<!-- DOMA&#45;APS_COM_OBS_HTTP_COMPR_REQ -->
<g id="node5" class="node">
<title>DOMA&#45;APS_COM_OBS_HTTP_COMPR_REQ</title>
<g id="a_node5"><a xlink:href="./DOMA_APS_COM_OBS_HTTP_COMPR_REQ.html" xlink:title="DOMA&#45;APS_COM_OBS_HTTP_COMPR_REQ">
<polygon fill="none" stroke="yellow" points="611.98,-36 316.56,-36 316.56,0 611.98,0 611.98,-36"/>
<text text-anchor="middle" x="464.27" y="-13.8" font-family="Times,serif" font-size="14.00">DOMA&#45;APS_COM_OBS_HTTP_COMPR_REQ</text>
</a>
</g>
</g>
<!-- DTEL&#45;APS_COM_OBS_HTTP_COMPR_REQ&#45;&gt;DOMA&#45;APS_COM_OBS_HTTP_COMPR_REQ -->
<g id="edge5" class="edge">
<title>DTEL&#45;APS_COM_OBS_HTTP_COMPR_REQ&#45;&gt;DOMA&#45;APS_COM_OBS_HTTP_COMPR_REQ</title>
<path fill="none" stroke="black" d="M465.78,-71.7C465.56,-63.98 465.29,-54.71 465.05,-46.11"/>
<polygon fill="black" stroke="black" points="468.54,-46 464.76,-36.1 461.55,-46.2 468.54,-46"/>
</g>
<!-- DOMA&#45;APS_COM_OBS_HTTP_VERSION -->
<g id="node7" class="node">
<title>DOMA&#45;APS_COM_OBS_HTTP_VERSION</title>
<g id="a_node7"><a xlink:href="./DOMA_APS_COM_OBS_HTTP_VERSION.html" xlink:title="DOMA&#45;APS_COM_OBS_HTTP_VERSION">
<polygon fill="none" stroke="yellow" points="902.13,-36 630.41,-36 630.41,0 902.13,0 902.13,-36"/>
<text text-anchor="middle" x="766.27" y="-13.8" font-family="Times,serif" font-size="14.00">DOMA&#45;APS_COM_OBS_HTTP_VERSION</text>
</a>
</g>
</g>
<!-- DTEL&#45;APS_COM_OBS_HTTP_VERSION&#45;&gt;DOMA&#45;APS_COM_OBS_HTTP_VERSION -->
<g id="edge6" class="edge">
<title>DTEL&#45;APS_COM_OBS_HTTP_VERSION&#45;&gt;DOMA&#45;APS_COM_OBS_HTTP_VERSION</title>
<path fill="none" stroke="black" d="M764.77,-71.7C764.99,-63.98 765.25,-54.71 765.5,-46.11"/>
<polygon fill="black" stroke="black" points="769,-46.2 765.78,-36.1 762,-46 769,-46.2"/>
</g>
</g>
</svg>
