<?xml version="1.0" encoding="UTF-8" standalone="no"?>
<!DOCTYPE svg PUBLIC "-//W3C//DTD SVG 1.1//EN"
 "http://www.w3.org/Graphics/SVG/1.1/DTD/svg11.dtd">
<!-- Generated by graphviz version 2.47.3 (20210619.1520)
 -->
<!-- Title: G Pages: 1 -->
<svg width="1298pt" height="188pt"
 viewBox="0.00 0.00 1297.75 188.00" xmlns="http://www.w3.org/2000/svg" xmlns:xlink="http://www.w3.org/1999/xlink">
<g id="graph0" class="graph" transform="scale(1 1) rotate(0) translate(4 184)">
<title>G</title>
<polygon fill="white" stroke="transparent" points="-4,4 -4,-184 1293.75,-184 1293.75,4 -4,4"/>
<!-- TABL&#45;BAPIRETC -->
<g id="node1" class="node">
<title>TABL&#45;BAPIRETC</title>
<polygon fill="none" stroke="green" points="705.75,-180 581,-180 581,-144 705.75,-144 705.75,-180"/>
<text text-anchor="middle" x="643.37" y="-157.8" font-family="Times,serif" font-size="14.00">TABL&#45;BAPIRETC</text>
</g>
<!-- DTEL&#45;BAPILOGSYS -->
<g id="node2" class="node">
<title>DTEL&#45;BAPILOGSYS</title>
<g id="a_node2"><a xlink:href="./DTEL_BAPILOGSYS.html" xlink:title="DTEL&#45;BAPILOGSYS">
<polygon fill="none" stroke="green" points="142.62,-108 0.13,-108 0.13,-72 142.62,-72 142.62,-108"/>
<text text-anchor="middle" x="71.37" y="-85.8" font-family="Times,serif" font-size="14.00">DTEL&#45;BAPILOGSYS</text>
</a>
</g>
</g>
<!-- TABL&#45;BAPIRETC&#45;&gt;DTEL&#45;BAPILOGSYS -->
<g id="edge9" class="edge">
<title>TABL&#45;BAPIRETC&#45;&gt;DTEL&#45;BAPILOGSYS</title>
<path fill="none" stroke="black" d="M580.72,-156.24C489.05,-148.84 312.85,-132.93 152.88,-107.98"/>
<polygon fill="black" stroke="black" points="153.28,-104.5 142.86,-106.4 152.19,-111.42 153.28,-104.5"/>
</g>
<!-- DTEL&#45;BAPI_COMP -->
<g id="node4" class="node">
<title>DTEL&#45;BAPI_COMP</title>
<g id="a_node4"><a xlink:href="./DTEL_BAPI_COMP.html" xlink:title="DTEL&#45;BAPI_COMP">
<polygon fill="none" stroke="green" points="295.86,-108 160.89,-108 160.89,-72 295.86,-72 295.86,-108"/>
<text text-anchor="middle" x="228.37" y="-85.8" font-family="Times,serif" font-size="14.00">DTEL&#45;BAPI_COMP</text>
</a>
</g>
</g>
<!-- TABL&#45;BAPIRETC&#45;&gt;DTEL&#45;BAPI_COMP -->
<g id="edge8" class="edge">
<title>TABL&#45;BAPIRETC&#45;&gt;DTEL&#45;BAPI_COMP</title>
<path fill="none" stroke="black" d="M580.88,-152.38C515.02,-143.03 408.04,-127.09 305.81,-108.02"/>
<polygon fill="black" stroke="black" points="306.41,-104.57 295.93,-106.16 305.11,-111.45 306.41,-104.57"/>
</g>
<!-- DTEL&#45;SYMSGV -->
<g id="node6" class="node">
<title>DTEL&#45;SYMSGV</title>
<g id="a_node6"><a xlink:href="./DTEL_SYMSGV.html" xlink:title="DTEL&#45;SYMSGV">
<polygon fill="none" stroke="green" points="428.63,-108 314.12,-108 314.12,-72 428.63,-72 428.63,-108"/>
<text text-anchor="middle" x="371.37" y="-85.8" font-family="Times,serif" font-size="14.00">DTEL&#45;SYMSGV</text>
</a>
</g>
</g>
<!-- TABL&#45;BAPIRETC&#45;&gt;DTEL&#45;SYMSGV -->
<g id="edge7" class="edge">
<title>TABL&#45;BAPIRETC&#45;&gt;DTEL&#45;SYMSGV</title>
<path fill="none" stroke="black" d="M580.97,-144.94C538.48,-134.01 482.28,-119.54 438.77,-108.34"/>
<polygon fill="black" stroke="black" points="439.4,-104.89 428.85,-105.79 437.66,-111.67 439.4,-104.89"/>
</g>
<!-- DTEL&#45;BALMNR -->
<g id="node8" class="node">
<title>DTEL&#45;BALMNR</title>
<g id="a_node8"><a xlink:href="./DTEL_BALMNR.html" xlink:title="DTEL&#45;BALMNR">
<polygon fill="none" stroke="green" points="563.68,-108 447.07,-108 447.07,-72 563.68,-72 563.68,-108"/>
<text text-anchor="middle" x="505.37" y="-85.8" font-family="Times,serif" font-size="14.00">DTEL&#45;BALMNR</text>
</a>
</g>
</g>
<!-- TABL&#45;BAPIRETC&#45;&gt;DTEL&#45;BALMNR -->
<g id="edge6" class="edge">
<title>TABL&#45;BAPIRETC&#45;&gt;DTEL&#45;BALMNR</title>
<path fill="none" stroke="black" d="M609.62,-143.88C591.15,-134.51 568.09,-122.81 548.36,-112.8"/>
<polygon fill="black" stroke="black" points="549.76,-109.59 539.26,-108.19 546.6,-115.83 549.76,-109.59"/>
</g>
<!-- DTEL&#45;BALOGNR -->
<g id="node10" class="node">
<title>DTEL&#45;BALOGNR</title>
<g id="a_node10"><a xlink:href="./DTEL_BALOGNR.html" xlink:title="DTEL&#45;BALOGNR">
<polygon fill="none" stroke="green" points="705.45,-108 581.3,-108 581.3,-72 705.45,-72 705.45,-108"/>
<text text-anchor="middle" x="643.37" y="-85.8" font-family="Times,serif" font-size="14.00">DTEL&#45;BALOGNR</text>
</a>
</g>
</g>
<!-- TABL&#45;BAPIRETC&#45;&gt;DTEL&#45;BALOGNR -->
<g id="edge5" class="edge">
<title>TABL&#45;BAPIRETC&#45;&gt;DTEL&#45;BALOGNR</title>
<path fill="none" stroke="black" d="M643.37,-143.7C643.37,-135.98 643.37,-126.71 643.37,-118.11"/>
<polygon fill="black" stroke="black" points="646.87,-118.1 643.37,-108.1 639.87,-118.1 646.87,-118.1"/>
</g>
<!-- DTEL&#45;BAPI_MSG -->
<g id="node12" class="node">
<title>DTEL&#45;BAPI_MSG</title>
<g id="a_node12"><a xlink:href="./DTEL_BAPI_MSG.html" xlink:title="DTEL&#45;BAPI_MSG">
<polygon fill="none" stroke="green" points="849.02,-108 723.73,-108 723.73,-72 849.02,-72 849.02,-108"/>
<text text-anchor="middle" x="786.37" y="-85.8" font-family="Times,serif" font-size="14.00">DTEL&#45;BAPI_MSG</text>
</a>
</g>
</g>
<!-- TABL&#45;BAPIRETC&#45;&gt;DTEL&#45;BAPI_MSG -->
<g id="edge4" class="edge">
<title>TABL&#45;BAPIRETC&#45;&gt;DTEL&#45;BAPI_MSG</title>
<path fill="none" stroke="black" d="M678.36,-143.88C697.57,-134.47 721.6,-122.71 742.11,-112.67"/>
<polygon fill="black" stroke="black" points="743.82,-115.73 751.26,-108.19 740.74,-109.44 743.82,-115.73"/>
</g>
<!-- DTEL&#45;SYMSGNO -->
<g id="node14" class="node">
<title>DTEL&#45;SYMSGNO</title>
<g id="a_node14"><a xlink:href="./DTEL_SYMSGNO.html" xlink:title="DTEL&#45;SYMSGNO">
<polygon fill="none" stroke="green" points="991.74,-108 867.01,-108 867.01,-72 991.74,-72 991.74,-108"/>
<text text-anchor="middle" x="929.37" y="-85.8" font-family="Times,serif" font-size="14.00">DTEL&#45;SYMSGNO</text>
</a>
</g>
</g>
<!-- TABL&#45;BAPIRETC&#45;&gt;DTEL&#45;SYMSGNO -->
<g id="edge3" class="edge">
<title>TABL&#45;BAPIRETC&#45;&gt;DTEL&#45;SYMSGNO</title>
<path fill="none" stroke="black" d="M705.79,-145.72C750.28,-134.83 810.24,-120.16 856.87,-108.75"/>
<polygon fill="black" stroke="black" points="857.72,-112.14 866.6,-106.36 856.06,-105.34 857.72,-112.14"/>
</g>
<!-- DTEL&#45;SYMSGID -->
<g id="node16" class="node">
<title>DTEL&#45;SYMSGID</title>
<g id="a_node16"><a xlink:href="./DTEL_SYMSGID.html" xlink:title="DTEL&#45;SYMSGID">
<polygon fill="none" stroke="green" points="1129.29,-108 1009.46,-108 1009.46,-72 1129.29,-72 1129.29,-108"/>
<text text-anchor="middle" x="1069.37" y="-85.8" font-family="Times,serif" font-size="14.00">DTEL&#45;SYMSGID</text>
</a>
</g>
</g>
<!-- TABL&#45;BAPIRETC&#45;&gt;DTEL&#45;SYMSGID -->
<g id="edge2" class="edge">
<title>TABL&#45;BAPIRETC&#45;&gt;DTEL&#45;SYMSGID</title>
<path fill="none" stroke="black" d="M705.91,-153.53C775.33,-144.83 890.85,-129.14 999.77,-108.02"/>
<polygon fill="black" stroke="black" points="1000.47,-111.45 1009.61,-106.09 999.13,-104.58 1000.47,-111.45"/>
</g>
<!-- DTEL&#45;BAPI_MTYPE -->
<g id="node18" class="node">
<title>DTEL&#45;BAPI_MTYPE</title>
<g id="a_node18"><a xlink:href="./DTEL_BAPI_MTYPE.html" xlink:title="DTEL&#45;BAPI_MTYPE">
<polygon fill="none" stroke="green" points="1289.63,-108 1147.12,-108 1147.12,-72 1289.63,-72 1289.63,-108"/>
<text text-anchor="middle" x="1218.37" y="-85.8" font-family="Times,serif" font-size="14.00">DTEL&#45;BAPI_MTYPE</text>
</a>
</g>
</g>
<!-- TABL&#45;BAPIRETC&#45;&gt;DTEL&#45;BAPI_MTYPE -->
<g id="edge1" class="edge">
<title>TABL&#45;BAPIRETC&#45;&gt;DTEL&#45;BAPI_MTYPE</title>
<path fill="none" stroke="black" d="M705.77,-156.39C797.97,-149.12 976.17,-133.32 1136.85,-108.16"/>
<polygon fill="black" stroke="black" points="1137.58,-111.59 1146.91,-106.57 1136.49,-104.67 1137.58,-111.59"/>
</g>
<!-- DOMA&#45;LOGSYS -->
<g id="node3" class="node">
<title>DOMA&#45;LOGSYS</title>
<g id="a_node3"><a xlink:href="./DOMA_LOGSYS.html" xlink:title="DOMA&#45;LOGSYS">
<polygon fill="none" stroke="yellow" points="127.24,-36 9.51,-36 9.51,0 127.24,0 127.24,-36"/>
<text text-anchor="middle" x="68.37" y="-13.8" font-family="Times,serif" font-size="14.00">DOMA&#45;LOGSYS</text>
</a>
</g>
</g>
<!-- DTEL&#45;BAPILOGSYS&#45;&gt;DOMA&#45;LOGSYS -->
<g id="edge10" class="edge">
<title>DTEL&#45;BAPILOGSYS&#45;&gt;DOMA&#45;LOGSYS</title>
<path fill="none" stroke="black" d="M70.63,-71.7C70.3,-63.98 69.91,-54.71 69.54,-46.11"/>
<polygon fill="black" stroke="black" points="73.03,-45.95 69.11,-36.1 66.04,-46.25 73.03,-45.95"/>
</g>
<!-- DOMA&#45;CHAR255 -->
<g id="node5" class="node">
<title>DOMA&#45;CHAR255</title>
<g id="a_node5"><a xlink:href="./DOMA_CHAR255.html" xlink:title="DOMA&#45;CHAR255">
<polygon fill="none" stroke="yellow" points="269.19,-36 145.56,-36 145.56,0 269.19,0 269.19,-36"/>
<text text-anchor="middle" x="207.37" y="-13.8" font-family="Times,serif" font-size="14.00">DOMA&#45;CHAR255</text>
</a>
</g>
</g>
<!-- DTEL&#45;BAPI_COMP&#45;&gt;DOMA&#45;CHAR255 -->
<g id="edge11" class="edge">
<title>DTEL&#45;BAPI_COMP&#45;&gt;DOMA&#45;CHAR255</title>
<path fill="none" stroke="black" d="M223.18,-71.7C220.84,-63.9 218.03,-54.51 215.42,-45.83"/>
<polygon fill="black" stroke="black" points="218.73,-44.68 212.51,-36.1 212.03,-46.69 218.73,-44.68"/>
</g>
<!-- DOMA&#45;SYCHAR50 -->
<g id="node7" class="node">
<title>DOMA&#45;SYCHAR50</title>
<g id="a_node7"><a xlink:href="./DOMA_SYCHAR50.html" xlink:title="DOMA&#45;SYCHAR50">
<polygon fill="none" stroke="yellow" points="421.58,-36 287.17,-36 287.17,0 421.58,0 421.58,-36"/>
<text text-anchor="middle" x="354.37" y="-13.8" font-family="Times,serif" font-size="14.00">DOMA&#45;SYCHAR50</text>
</a>
</g>
</g>
<!-- DTEL&#45;SYMSGV&#45;&gt;DOMA&#45;SYCHAR50 -->
<g id="edge12" class="edge">
<title>DTEL&#45;SYMSGV&#45;&gt;DOMA&#45;SYCHAR50</title>
<path fill="none" stroke="black" d="M367.17,-71.7C365.28,-63.9 363,-54.51 360.89,-45.83"/>
<polygon fill="black" stroke="black" points="364.29,-45 358.53,-36.1 357.49,-46.65 364.29,-45"/>
</g>
<!-- DOMA&#45;BALMNR -->
<g id="node9" class="node">
<title>DOMA&#45;BALMNR</title>
<g id="a_node9"><a xlink:href="./DOMA_BALMNR.html" xlink:title="DOMA&#45;BALMNR">
<polygon fill="none" stroke="yellow" points="563.18,-36 439.57,-36 439.57,0 563.18,0 563.18,-36"/>
<text text-anchor="middle" x="501.37" y="-13.8" font-family="Times,serif" font-size="14.00">DOMA&#45;BALMNR</text>
</a>
</g>
</g>
<!-- DTEL&#45;BALMNR&#45;&gt;DOMA&#45;BALMNR -->
<g id="edge13" class="edge">
<title>DTEL&#45;BALMNR&#45;&gt;DOMA&#45;BALMNR</title>
<path fill="none" stroke="black" d="M504.39,-71.7C503.94,-63.98 503.42,-54.71 502.92,-46.11"/>
<polygon fill="black" stroke="black" points="506.42,-45.89 502.35,-36.1 499.43,-46.29 506.42,-45.89"/>
</g>
<!-- DOMA&#45;BALOGNR -->
<g id="node11" class="node">
<title>DOMA&#45;BALOGNR</title>
<g id="a_node11"><a xlink:href="./DOMA_BALOGNR.html" xlink:title="DOMA&#45;BALOGNR">
<polygon fill="none" stroke="yellow" points="711.95,-36 580.8,-36 580.8,0 711.95,0 711.95,-36"/>
<text text-anchor="middle" x="646.37" y="-13.8" font-family="Times,serif" font-size="14.00">DOMA&#45;BALOGNR</text>
</a>
</g>
</g>
<!-- DTEL&#45;BALOGNR&#45;&gt;DOMA&#45;BALOGNR -->
<g id="edge14" class="edge">
<title>DTEL&#45;BALOGNR&#45;&gt;DOMA&#45;BALOGNR</title>
<path fill="none" stroke="black" d="M644.12,-71.7C644.45,-63.98 644.84,-54.71 645.21,-46.11"/>
<polygon fill="black" stroke="black" points="648.71,-46.25 645.64,-36.1 641.72,-45.95 648.71,-46.25"/>
</g>
<!-- DOMA&#45;TEXT220 -->
<g id="node13" class="node">
<title>DOMA&#45;TEXT220</title>
<g id="a_node13"><a xlink:href="./DOMA_TEXT220.html" xlink:title="DOMA&#45;TEXT220">
<polygon fill="none" stroke="yellow" points="850.56,-36 730.18,-36 730.18,0 850.56,0 850.56,-36"/>
<text text-anchor="middle" x="790.37" y="-13.8" font-family="Times,serif" font-size="14.00">DOMA&#45;TEXT220</text>
</a>
</g>
</g>
<!-- DTEL&#45;BAPI_MSG&#45;&gt;DOMA&#45;TEXT220 -->
<g id="edge15" class="edge">
<title>DTEL&#45;BAPI_MSG&#45;&gt;DOMA&#45;TEXT220</title>
<path fill="none" stroke="black" d="M787.36,-71.7C787.8,-63.98 788.33,-54.71 788.83,-46.11"/>
<polygon fill="black" stroke="black" points="792.32,-46.29 789.4,-36.1 785.33,-45.89 792.32,-46.29"/>
</g>
<!-- DOMA&#45;SYMSGNO -->
<g id="node15" class="node">
<title>DOMA&#45;SYMSGNO</title>
<g id="a_node15"><a xlink:href="./DOMA_SYMSGNO.html" xlink:title="DOMA&#45;SYMSGNO">
<polygon fill="none" stroke="yellow" points="1000.24,-36 868.51,-36 868.51,0 1000.24,0 1000.24,-36"/>
<text text-anchor="middle" x="934.37" y="-13.8" font-family="Times,serif" font-size="14.00">DOMA&#45;SYMSGNO</text>
</a>
</g>
</g>
<!-- DTEL&#45;SYMSGNO&#45;&gt;DOMA&#45;SYMSGNO -->
<g id="edge16" class="edge">
<title>DTEL&#45;SYMSGNO&#45;&gt;DOMA&#45;SYMSGNO</title>
<path fill="none" stroke="black" d="M930.61,-71.7C931.16,-63.98 931.82,-54.71 932.44,-46.11"/>
<polygon fill="black" stroke="black" points="935.93,-46.33 933.15,-36.1 928.95,-45.83 935.93,-46.33"/>
</g>
<!-- DOMA&#45;ARBGB -->
<g id="node17" class="node">
<title>DOMA&#45;ARBGB</title>
<g id="a_node17"><a xlink:href="./DOMA_ARBGB.html" xlink:title="DOMA&#45;ARBGB">
<polygon fill="none" stroke="yellow" points="1130.02,-36 1018.73,-36 1018.73,0 1130.02,0 1130.02,-36"/>
<text text-anchor="middle" x="1074.37" y="-13.8" font-family="Times,serif" font-size="14.00">DOMA&#45;ARBGB</text>
</a>
</g>
</g>
<!-- DTEL&#45;SYMSGID&#45;&gt;DOMA&#45;ARBGB -->
<g id="edge17" class="edge">
<title>DTEL&#45;SYMSGID&#45;&gt;DOMA&#45;ARBGB</title>
<path fill="none" stroke="black" d="M1070.61,-71.7C1071.16,-63.98 1071.82,-54.71 1072.44,-46.11"/>
<polygon fill="black" stroke="black" points="1075.93,-46.33 1073.15,-36.1 1068.95,-45.83 1075.93,-46.33"/>
</g>
<!-- DOMA&#45;SYCHAR01 -->
<g id="node19" class="node">
<title>DOMA&#45;SYCHAR01</title>
<g id="a_node19"><a xlink:href="./DOMA_SYCHAR01.html" xlink:title="DOMA&#45;SYCHAR01">
<polygon fill="none" stroke="yellow" points="1285.58,-36 1151.17,-36 1151.17,0 1285.58,0 1285.58,-36"/>
<text text-anchor="middle" x="1218.37" y="-13.8" font-family="Times,serif" font-size="14.00">DOMA&#45;SYCHAR01</text>
</a>
</g>
</g>
<!-- DTEL&#45;BAPI_MTYPE&#45;&gt;DOMA&#45;SYCHAR01 -->
<g id="edge18" class="edge">
<title>DTEL&#45;BAPI_MTYPE&#45;&gt;DOMA&#45;SYCHAR01</title>
<path fill="none" stroke="black" d="M1218.37,-71.7C1218.37,-63.98 1218.37,-54.71 1218.37,-46.11"/>
<polygon fill="black" stroke="black" points="1221.87,-46.1 1218.37,-36.1 1214.87,-46.1 1221.87,-46.1"/>
</g>
</g>
</svg>
