<?xml version="1.0" encoding="UTF-8" standalone="no"?>
<!DOCTYPE svg PUBLIC "-//W3C//DTD SVG 1.1//EN"
 "http://www.w3.org/Graphics/SVG/1.1/DTD/svg11.dtd">
<!-- Generated by graphviz version 2.47.3 (20210619.1520)
 -->
<!-- Title: G Pages: 1 -->
<svg width="854pt" height="188pt"
 viewBox="0.00 0.00 853.97 188.00" xmlns="http://www.w3.org/2000/svg" xmlns:xlink="http://www.w3.org/1999/xlink">
<g id="graph0" class="graph" transform="scale(1 1) rotate(0) translate(4 184)">
<title>G</title>
<polygon fill="white" stroke="transparent" points="-4,4 -4,-184 849.97,-184 849.97,4 -4,4"/>
<!-- TABL&#45;RSLINLMSG -->
<g id="node1" class="node">
<title>TABL&#45;RSLINLMSG</title>
<polygon fill="none" stroke="yellow" points="525.13,-180 389.06,-180 389.06,-144 525.13,-144 525.13,-180"/>
<text text-anchor="middle" x="457.09" y="-157.8" font-family="Times,serif" font-size="14.00">TABL&#45;RSLINLMSG</text>
</g>
<!-- DTEL&#45;TEXT240 -->
<g id="node2" class="node">
<title>DTEL&#45;TEXT240</title>
<g id="a_node2"><a xlink:href="./DTEL_TEXT240.html" xlink:title="DTEL&#45;TEXT240">
<polygon fill="none" stroke="yellow" points="116.78,-108 3.41,-108 3.41,-72 116.78,-72 116.78,-108"/>
<text text-anchor="middle" x="60.09" y="-85.8" font-family="Times,serif" font-size="14.00">DTEL&#45;TEXT240</text>
</a>
</g>
</g>
<!-- TABL&#45;RSLINLMSG&#45;&gt;DTEL&#45;TEXT240 -->
<g id="edge6" class="edge">
<title>TABL&#45;RSLINLMSG&#45;&gt;DTEL&#45;TEXT240</title>
<path fill="none" stroke="black" d="M389.02,-152.11C323.9,-143.16 222.76,-128.09 126.62,-108.23"/>
<polygon fill="black" stroke="black" points="127.24,-104.78 116.74,-106.16 125.81,-111.63 127.24,-104.78"/>
</g>
<!-- DTEL&#45;TRMSG_NUMB -->
<g id="node4" class="node">
<title>DTEL&#45;TRMSG_NUMB</title>
<g id="a_node4"><a xlink:href="./DTEL_TRMSG_NUMB.html" xlink:title="DTEL&#45;TRMSG_NUMB">
<polygon fill="none" stroke="yellow" points="287.74,-108 134.45,-108 134.45,-72 287.74,-72 287.74,-108"/>
<text text-anchor="middle" x="211.09" y="-85.8" font-family="Times,serif" font-size="14.00">DTEL&#45;TRMSG_NUMB</text>
</a>
</g>
</g>
<!-- TABL&#45;RSLINLMSG&#45;&gt;DTEL&#45;TRMSG_NUMB -->
<g id="edge5" class="edge">
<title>TABL&#45;RSLINLMSG&#45;&gt;DTEL&#45;TRMSG_NUMB</title>
<path fill="none" stroke="black" d="M397.23,-143.97C362.11,-133.97 317.57,-121.3 280.87,-110.85"/>
<polygon fill="black" stroke="black" points="281.8,-107.48 271.23,-108.11 279.89,-114.21 281.8,-107.48"/>
</g>
<!-- DTEL&#45;TRMSG_KEYW -->
<g id="node5" class="node">
<title>DTEL&#45;TRMSG_KEYW</title>
<g id="a_node5"><a xlink:href="./DTEL_TRMSG_KEYW.html" xlink:title="DTEL&#45;TRMSG_KEYW">
<polygon fill="none" stroke="yellow" points="459.72,-108 306.47,-108 306.47,-72 459.72,-72 459.72,-108"/>
<text text-anchor="middle" x="383.09" y="-85.8" font-family="Times,serif" font-size="14.00">DTEL&#45;TRMSG_KEYW</text>
</a>
</g>
</g>
<!-- TABL&#45;RSLINLMSG&#45;&gt;DTEL&#45;TRMSG_KEYW -->
<g id="edge4" class="edge">
<title>TABL&#45;RSLINLMSG&#45;&gt;DTEL&#45;TRMSG_KEYW</title>
<path fill="none" stroke="black" d="M438.8,-143.7C429.66,-135.05 418.45,-124.45 408.49,-115.03"/>
<polygon fill="black" stroke="black" points="410.85,-112.43 401.18,-108.1 406.04,-117.52 410.85,-112.43"/>
</g>
<!-- DTEL&#45;DSPRAS -->
<g id="node7" class="node">
<title>DTEL&#45;DSPRAS</title>
<g id="a_node7"><a xlink:href="./DTEL_DSPRAS.html" xlink:title="DTEL&#45;DSPRAS">
<polygon fill="none" stroke="yellow" points="586.92,-108 477.27,-108 477.27,-72 586.92,-72 586.92,-108"/>
<text text-anchor="middle" x="532.09" y="-85.8" font-family="Times,serif" font-size="14.00">DTEL&#45;DSPRAS</text>
</a>
</g>
</g>
<!-- TABL&#45;RSLINLMSG&#45;&gt;DTEL&#45;DSPRAS -->
<g id="edge3" class="edge">
<title>TABL&#45;RSLINLMSG&#45;&gt;DTEL&#45;DSPRAS</title>
<path fill="none" stroke="black" d="M475.63,-143.7C484.9,-135.05 496.26,-124.45 506.35,-115.03"/>
<polygon fill="black" stroke="black" points="508.85,-117.49 513.77,-108.1 504.07,-112.37 508.85,-117.49"/>
</g>
<!-- DTEL&#45;SYREPID -->
<g id="node9" class="node">
<title>DTEL&#45;SYREPID</title>
<g id="a_node9"><a xlink:href="./DTEL_SYREPID.html" xlink:title="DTEL&#45;SYREPID">
<polygon fill="none" stroke="green" points="719.35,-108 604.84,-108 604.84,-72 719.35,-72 719.35,-108"/>
<text text-anchor="middle" x="662.09" y="-85.8" font-family="Times,serif" font-size="14.00">DTEL&#45;SYREPID</text>
</a>
</g>
</g>
<!-- TABL&#45;RSLINLMSG&#45;&gt;DTEL&#45;SYREPID -->
<g id="edge2" class="edge">
<title>TABL&#45;RSLINLMSG&#45;&gt;DTEL&#45;SYREPID</title>
<path fill="none" stroke="black" d="M506.98,-143.97C535.75,-134.14 572.1,-121.73 602.38,-111.39"/>
<polygon fill="black" stroke="black" points="603.65,-114.65 611.98,-108.11 601.39,-108.03 603.65,-114.65"/>
</g>
<!-- DTEL&#45;INT4 -->
<g id="node11" class="node">
<title>DTEL&#45;INT4</title>
<g id="a_node11"><a xlink:href="./DTEL_INT4.html" xlink:title="DTEL&#45;INT4">
<polygon fill="none" stroke="green" points="833.34,-108 746.85,-108 746.85,-72 833.34,-72 833.34,-108"/>
<text text-anchor="middle" x="790.09" y="-85.8" font-family="Times,serif" font-size="14.00">DTEL&#45;INT4</text>
</a>
</g>
</g>
<!-- TABL&#45;RSLINLMSG&#45;&gt;DTEL&#45;INT4 -->
<g id="edge1" class="edge">
<title>TABL&#45;RSLINLMSG&#45;&gt;DTEL&#45;INT4</title>
<path fill="none" stroke="black" d="M525.33,-149.11C580.31,-139.18 659.48,-124.09 728.09,-108 731.04,-107.31 734.06,-106.57 737.1,-105.81"/>
<polygon fill="black" stroke="black" points="738.03,-109.19 746.84,-103.3 736.28,-102.41 738.03,-109.19"/>
</g>
<!-- DOMA&#45;TEXT240 -->
<g id="node3" class="node">
<title>DOMA&#45;TEXT240</title>
<g id="a_node3"><a xlink:href="./DOMA_TEXT240.html" xlink:title="DOMA&#45;TEXT240">
<polygon fill="none" stroke="yellow" points="120.28,-36 -0.09,-36 -0.09,0 120.28,0 120.28,-36"/>
<text text-anchor="middle" x="60.09" y="-13.8" font-family="Times,serif" font-size="14.00">DOMA&#45;TEXT240</text>
</a>
</g>
</g>
<!-- DTEL&#45;TEXT240&#45;&gt;DOMA&#45;TEXT240 -->
<g id="edge7" class="edge">
<title>DTEL&#45;TEXT240&#45;&gt;DOMA&#45;TEXT240</title>
<path fill="none" stroke="black" d="M60.09,-71.7C60.09,-63.98 60.09,-54.71 60.09,-46.11"/>
<polygon fill="black" stroke="black" points="63.59,-46.1 60.09,-36.1 56.59,-46.1 63.59,-46.1"/>
</g>
<!-- DOMA&#45;SYCHAR20 -->
<g id="node6" class="node">
<title>DOMA&#45;SYCHAR20</title>
<g id="a_node6"><a xlink:href="./DOMA_SYCHAR20.html" xlink:title="DOMA&#45;SYCHAR20">
<polygon fill="none" stroke="yellow" points="450.3,-36 315.89,-36 315.89,0 450.3,0 450.3,-36"/>
<text text-anchor="middle" x="383.09" y="-13.8" font-family="Times,serif" font-size="14.00">DOMA&#45;SYCHAR20</text>
</a>
</g>
</g>
<!-- DTEL&#45;TRMSG_KEYW&#45;&gt;DOMA&#45;SYCHAR20 -->
<g id="edge8" class="edge">
<title>DTEL&#45;TRMSG_KEYW&#45;&gt;DOMA&#45;SYCHAR20</title>
<path fill="none" stroke="black" d="M383.09,-71.7C383.09,-63.98 383.09,-54.71 383.09,-46.11"/>
<polygon fill="black" stroke="black" points="386.59,-46.1 383.09,-36.1 379.59,-46.1 386.59,-46.1"/>
</g>
<!-- DOMA&#45;LANG -->
<g id="node8" class="node">
<title>DOMA&#45;LANG</title>
<g id="a_node8"><a xlink:href="./DOMA_LANG.html" xlink:title="DOMA&#45;LANG">
<polygon fill="none" stroke="yellow" points="571.39,-36 468.8,-36 468.8,0 571.39,0 571.39,-36"/>
<text text-anchor="middle" x="520.09" y="-13.8" font-family="Times,serif" font-size="14.00">DOMA&#45;LANG</text>
</a>
</g>
</g>
<!-- DTEL&#45;DSPRAS&#45;&gt;DOMA&#45;LANG -->
<g id="edge9" class="edge">
<title>DTEL&#45;DSPRAS&#45;&gt;DOMA&#45;LANG</title>
<path fill="none" stroke="black" d="M529.13,-71.7C527.81,-63.98 526.22,-54.71 524.74,-46.11"/>
<polygon fill="black" stroke="black" points="528.17,-45.37 523.03,-36.1 521.27,-46.55 528.17,-45.37"/>
</g>
<!-- DOMA&#45;PROGRAMM -->
<g id="node10" class="node">
<title>DOMA&#45;PROGRAMM</title>
<g id="a_node10"><a xlink:href="./DOMA_PROGRAMM.html" xlink:title="DOMA&#45;PROGRAMM">
<polygon fill="none" stroke="yellow" points="734.68,-36 589.5,-36 589.5,0 734.68,0 734.68,-36"/>
<text text-anchor="middle" x="662.09" y="-13.8" font-family="Times,serif" font-size="14.00">DOMA&#45;PROGRAMM</text>
</a>
</g>
</g>
<!-- DTEL&#45;SYREPID&#45;&gt;DOMA&#45;PROGRAMM -->
<g id="edge10" class="edge">
<title>DTEL&#45;SYREPID&#45;&gt;DOMA&#45;PROGRAMM</title>
<path fill="none" stroke="black" d="M662.09,-71.7C662.09,-63.98 662.09,-54.71 662.09,-46.11"/>
<polygon fill="black" stroke="black" points="665.59,-46.1 662.09,-36.1 658.59,-46.1 665.59,-46.1"/>
</g>
<!-- DOMA&#45;INT4 -->
<g id="node12" class="node">
<title>DOMA&#45;INT4</title>
<g id="a_node12"><a xlink:href="./DOMA_INT4.html" xlink:title="DOMA&#45;INT4">
<polygon fill="none" stroke="yellow" points="845.84,-36 752.35,-36 752.35,0 845.84,0 845.84,-36"/>
<text text-anchor="middle" x="799.09" y="-13.8" font-family="Times,serif" font-size="14.00">DOMA&#45;INT4</text>
</a>
</g>
</g>
<!-- DTEL&#45;INT4&#45;&gt;DOMA&#45;INT4 -->
<g id="edge11" class="edge">
<title>DTEL&#45;INT4&#45;&gt;DOMA&#45;INT4</title>
<path fill="none" stroke="black" d="M792.32,-71.7C793.31,-63.98 794.5,-54.71 795.61,-46.11"/>
<polygon fill="black" stroke="black" points="799.09,-46.47 796.9,-36.1 792.15,-45.58 799.09,-46.47"/>
</g>
</g>
</svg>
