<?xml version="1.0" encoding="UTF-8" standalone="no"?>
<!DOCTYPE svg PUBLIC "-//W3C//DTD SVG 1.1//EN"
 "http://www.w3.org/Graphics/SVG/1.1/DTD/svg11.dtd">
<!-- Generated by graphviz version 2.47.3 (20210619.1520)
 -->
<!-- Title: G Pages: 1 -->
<svg width="2392pt" height="260pt"
 viewBox="0.00 0.00 2392.14 260.00" xmlns="http://www.w3.org/2000/svg" xmlns:xlink="http://www.w3.org/1999/xlink">
<g id="graph0" class="graph" transform="scale(1 1) rotate(0) translate(4 256)">
<title>G</title>
<polygon fill="white" stroke="transparent" points="-4,4 -4,-256 2388.14,-256 2388.14,4 -4,4"/>
<!-- TABL&#45;ISAPS_COM_CA_INB_SRV_APIKEY0_D -->
<g id="node1" class="node">
<title>TABL&#45;ISAPS_COM_CA_INB_SRV_APIKEY0_D</title>
<polygon fill="none" stroke="yellow" points="1299.11,-252 990.29,-252 990.29,-216 1299.11,-216 1299.11,-252"/>
<text text-anchor="middle" x="1144.7" y="-229.8" font-family="Times,serif" font-size="14.00">TABL&#45;ISAPS_COM_CA_INB_SRV_APIKEY0_D</text>
</g>
<!-- DTEL&#45;SDRAFT_IS_ACTIVE -->
<g id="node2" class="node">
<title>DTEL&#45;SDRAFT_IS_ACTIVE</title>
<g id="a_node2"><a xlink:href="./DTEL_SDRAFT_IS_ACTIVE.html" xlink:title="DTEL&#45;SDRAFT_IS_ACTIVE">
<polygon fill="none" stroke="yellow" points="475.55,-180 287.85,-180 287.85,-144 475.55,-144 475.55,-180"/>
<text text-anchor="middle" x="381.7" y="-157.8" font-family="Times,serif" font-size="14.00">DTEL&#45;SDRAFT_IS_ACTIVE</text>
</a>
</g>
</g>
<!-- TABL&#45;ISAPS_COM_CA_INB_SRV_APIKEY0_D&#45;&gt;DTEL&#45;SDRAFT_IS_ACTIVE -->
<g id="edge9" class="edge">
<title>TABL&#45;ISAPS_COM_CA_INB_SRV_APIKEY0_D&#45;&gt;DTEL&#45;SDRAFT_IS_ACTIVE</title>
<path fill="none" stroke="black" d="M990.26,-221.68C863.25,-211.95 678.64,-196.85 517.7,-180 507.28,-178.91 496.43,-177.69 485.59,-176.42"/>
<polygon fill="black" stroke="black" points="486,-172.94 475.66,-175.24 485.17,-179.9 486,-172.94"/>
</g>
<!-- TABL&#45;SDRAFT_WRITE_DRAFT_ADMIN -->
<g id="node4" class="node">
<title>TABL&#45;SDRAFT_WRITE_DRAFT_ADMIN</title>
<g id="a_node4"><a xlink:href="./TABL_SDRAFT_WRITE_DRAFT_ADMIN.html" xlink:title="TABL&#45;SDRAFT_WRITE_DRAFT_ADMIN">
<polygon fill="none" stroke="yellow" points="966.21,-180 697.2,-180 697.2,-144 966.21,-144 966.21,-180"/>
<text text-anchor="middle" x="831.7" y="-157.8" font-family="Times,serif" font-size="14.00">TABL&#45;SDRAFT_WRITE_DRAFT_ADMIN</text>
</a>
</g>
</g>
<!-- TABL&#45;ISAPS_COM_CA_INB_SRV_APIKEY0_D&#45;&gt;TABL&#45;SDRAFT_WRITE_DRAFT_ADMIN -->
<g id="edge8" class="edge">
<title>TABL&#45;ISAPS_COM_CA_INB_SRV_APIKEY0_D&#45;&gt;TABL&#45;SDRAFT_WRITE_DRAFT_ADMIN</title>
<path fill="none" stroke="black" d="M1068.53,-215.97C1023,-205.78 965.03,-192.82 917.84,-182.26"/>
<polygon fill="black" stroke="black" points="918.46,-178.82 907.94,-180.05 916.94,-185.65 918.46,-178.82"/>
</g>
<!-- DTEL&#45;SDRAFT_HAS_ACTIVE -->
<g id="node14" class="node">
<title>DTEL&#45;SDRAFT_HAS_ACTIVE</title>
<g id="a_node14"><a xlink:href="./DTEL_SDRAFT_HAS_ACTIVE.html" xlink:title="DTEL&#45;SDRAFT_HAS_ACTIVE">
<polygon fill="none" stroke="yellow" points="203.61,-180 -0.2,-180 -0.2,-144 203.61,-144 203.61,-180"/>
<text text-anchor="middle" x="101.7" y="-157.8" font-family="Times,serif" font-size="14.00">DTEL&#45;SDRAFT_HAS_ACTIVE</text>
</a>
</g>
</g>
<!-- TABL&#45;ISAPS_COM_CA_INB_SRV_APIKEY0_D&#45;&gt;DTEL&#45;SDRAFT_HAS_ACTIVE -->
<g id="edge7" class="edge">
<title>TABL&#45;ISAPS_COM_CA_INB_SRV_APIKEY0_D&#45;&gt;DTEL&#45;SDRAFT_HAS_ACTIVE</title>
<path fill="none" stroke="black" d="M990.11,-225.16C816.79,-215.99 527.41,-199.55 278.7,-180 257.71,-178.35 235.35,-176.37 213.82,-174.36"/>
<polygon fill="black" stroke="black" points="213.95,-170.86 203.67,-173.4 213.3,-177.83 213.95,-170.86"/>
</g>
<!-- DTEL&#45;/BOBF/UUID -->
<g id="node15" class="node">
<title>DTEL&#45;/BOBF/UUID</title>
<g id="a_node15"><a xlink:href="./DTEL_%23BOBF%23UUID.html" xlink:title="DTEL&#45;/BOBF/UUID">
<polygon fill="none" stroke="yellow" points="662.45,-180 526.95,-180 526.95,-144 662.45,-144 662.45,-180"/>
<text text-anchor="middle" x="594.7" y="-157.8" font-family="Times,serif" font-size="14.00">DTEL&#45;/BOBF/UUID</text>
</a>
</g>
</g>
<!-- TABL&#45;ISAPS_COM_CA_INB_SRV_APIKEY0_D&#45;&gt;DTEL&#45;/BOBF/UUID -->
<g id="edge6" class="edge">
<title>TABL&#45;ISAPS_COM_CA_INB_SRV_APIKEY0_D&#45;&gt;DTEL&#45;/BOBF/UUID</title>
<path fill="none" stroke="black" d="M990.47,-217.65C901.73,-208.18 788.23,-195 687.7,-180 682.76,-179.26 677.67,-178.46 672.55,-177.62"/>
<polygon fill="black" stroke="black" points="673.12,-174.16 662.68,-175.95 671.96,-181.07 673.12,-174.16"/>
</g>
<!-- DTEL&#45;APS_COM_CSCN_NUMBER -->
<g id="node16" class="node">
<title>DTEL&#45;APS_COM_CSCN_NUMBER</title>
<g id="a_node16"><a xlink:href="./DTEL_APS_COM_CSCN_NUMBER.html" xlink:title="DTEL&#45;APS_COM_CSCN_NUMBER">
<polygon fill="none" stroke="yellow" points="1260.63,-180 1028.77,-180 1028.77,-144 1260.63,-144 1260.63,-180"/>
<text text-anchor="middle" x="1144.7" y="-157.8" font-family="Times,serif" font-size="14.00">DTEL&#45;APS_COM_CSCN_NUMBER</text>
</a>
</g>
</g>
<!-- TABL&#45;ISAPS_COM_CA_INB_SRV_APIKEY0_D&#45;&gt;DTEL&#45;APS_COM_CSCN_NUMBER -->
<g id="edge5" class="edge">
<title>TABL&#45;ISAPS_COM_CA_INB_SRV_APIKEY0_D&#45;&gt;DTEL&#45;APS_COM_CSCN_NUMBER</title>
<path fill="none" stroke="black" d="M1144.7,-215.7C1144.7,-207.98 1144.7,-198.71 1144.7,-190.11"/>
<polygon fill="black" stroke="black" points="1148.2,-190.1 1144.7,-180.1 1141.2,-190.1 1148.2,-190.1"/>
</g>
<!-- DTEL&#45;APS_COM_CSCN_ID -->
<g id="node17" class="node">
<title>DTEL&#45;APS_COM_CSCN_ID</title>
<g id="a_node17"><a xlink:href="./DTEL_APS_COM_CSCN_ID.html" xlink:title="DTEL&#45;APS_COM_CSCN_ID">
<polygon fill="none" stroke="yellow" points="1487.02,-180 1300.39,-180 1300.39,-144 1487.02,-144 1487.02,-180"/>
<text text-anchor="middle" x="1393.7" y="-157.8" font-family="Times,serif" font-size="14.00">DTEL&#45;APS_COM_CSCN_ID</text>
</a>
</g>
</g>
<!-- TABL&#45;ISAPS_COM_CA_INB_SRV_APIKEY0_D&#45;&gt;DTEL&#45;APS_COM_CSCN_ID -->
<g id="edge4" class="edge">
<title>TABL&#45;ISAPS_COM_CA_INB_SRV_APIKEY0_D&#45;&gt;DTEL&#45;APS_COM_CSCN_ID</title>
<path fill="none" stroke="black" d="M1205.3,-215.97C1240.84,-205.97 1285.93,-193.3 1323.08,-182.85"/>
<polygon fill="black" stroke="black" points="1324.16,-186.19 1332.84,-180.11 1322.26,-179.45 1324.16,-186.19"/>
</g>
<!-- DTEL&#45;APS_CA_API_KEY_REFERENCE -->
<g id="node19" class="node">
<title>DTEL&#45;APS_CA_API_KEY_REFERENCE</title>
<g id="a_node19"><a xlink:href="./DTEL_APS_CA_API_KEY_REFERENCE.html" xlink:title="DTEL&#45;APS_CA_API_KEY_REFERENCE">
<polygon fill="none" stroke="yellow" points="1777.17,-180 1516.24,-180 1516.24,-144 1777.17,-144 1777.17,-180"/>
<text text-anchor="middle" x="1646.7" y="-157.8" font-family="Times,serif" font-size="14.00">DTEL&#45;APS_CA_API_KEY_REFERENCE</text>
</a>
</g>
</g>
<!-- TABL&#45;ISAPS_COM_CA_INB_SRV_APIKEY0_D&#45;&gt;DTEL&#45;APS_CA_API_KEY_REFERENCE -->
<g id="edge3" class="edge">
<title>TABL&#45;ISAPS_COM_CA_INB_SRV_APIKEY0_D&#45;&gt;DTEL&#45;APS_CA_API_KEY_REFERENCE</title>
<path fill="none" stroke="black" d="M1266.86,-215.97C1341.72,-205.53 1437.54,-192.17 1514.22,-181.47"/>
<polygon fill="black" stroke="black" points="1515.01,-184.9 1524.43,-180.05 1514.04,-177.96 1515.01,-184.9"/>
</g>
<!-- DTEL&#45;APS_COM_CSCN_PROPERTY_VALUE -->
<g id="node21" class="node">
<title>DTEL&#45;APS_COM_CSCN_PROPERTY_VALUE</title>
<g id="a_node21"><a xlink:href="./DTEL_APS_COM_CSCN_PROPERTY_VALUE.html" xlink:title="DTEL&#45;APS_COM_CSCN_PROPERTY_VALUE">
<polygon fill="none" stroke="yellow" points="2098.23,-180 1801.17,-180 1801.17,-144 2098.23,-144 2098.23,-180"/>
<text text-anchor="middle" x="1949.7" y="-157.8" font-family="Times,serif" font-size="14.00">DTEL&#45;APS_COM_CSCN_PROPERTY_VALUE</text>
</a>
</g>
</g>
<!-- TABL&#45;ISAPS_COM_CA_INB_SRV_APIKEY0_D&#45;&gt;DTEL&#45;APS_COM_CSCN_PROPERTY_VALUE -->
<g id="edge2" class="edge">
<title>TABL&#45;ISAPS_COM_CA_INB_SRV_APIKEY0_D&#45;&gt;DTEL&#45;APS_COM_CSCN_PROPERTY_VALUE</title>
<path fill="none" stroke="black" d="M1298.91,-221.15C1428.8,-210.96 1619.48,-195.49 1785.7,-180 1787.42,-179.84 1789.14,-179.68 1790.87,-179.52"/>
<polygon fill="black" stroke="black" points="1791.26,-182.99 1800.88,-178.56 1790.6,-176.03 1791.26,-182.99"/>
</g>
<!-- DTEL&#45;APS_COM_CSCN_PROPERTY_ID -->
<g id="node23" class="node">
<title>DTEL&#45;APS_COM_CSCN_PROPERTY_ID</title>
<g id="a_node23"><a xlink:href="./DTEL_APS_COM_CSCN_PROPERTY_ID.html" xlink:title="DTEL&#45;APS_COM_CSCN_PROPERTY_ID">
<polygon fill="none" stroke="yellow" points="2384.07,-180 2119.33,-180 2119.33,-144 2384.07,-144 2384.07,-180"/>
<text text-anchor="middle" x="2251.7" y="-157.8" font-family="Times,serif" font-size="14.00">DTEL&#45;APS_COM_CSCN_PROPERTY_ID</text>
</a>
</g>
</g>
<!-- TABL&#45;ISAPS_COM_CA_INB_SRV_APIKEY0_D&#45;&gt;DTEL&#45;APS_COM_CSCN_PROPERTY_ID -->
<g id="edge1" class="edge">
<title>TABL&#45;ISAPS_COM_CA_INB_SRV_APIKEY0_D&#45;&gt;DTEL&#45;APS_COM_CSCN_PROPERTY_ID</title>
<path fill="none" stroke="black" d="M1299.19,-227.48C1489.57,-219.98 1822.86,-204.63 2107.7,-180 2108.17,-179.96 2108.64,-179.92 2109.12,-179.88"/>
<polygon fill="black" stroke="black" points="2109.49,-183.36 2119.13,-178.97 2108.85,-176.39 2109.49,-183.36"/>
</g>
<!-- DOMA&#45;BOOLE -->
<g id="node3" class="node">
<title>DOMA&#45;BOOLE</title>
<g id="a_node3"><a xlink:href="./DOMA_BOOLE.html" xlink:title="DOMA&#45;BOOLE">
<polygon fill="none" stroke="yellow" points="138.78,-108 28.62,-108 28.62,-72 138.78,-72 138.78,-108"/>
<text text-anchor="middle" x="83.7" y="-85.8" font-family="Times,serif" font-size="14.00">DOMA&#45;BOOLE</text>
</a>
</g>
</g>
<!-- DTEL&#45;SDRAFT_IS_ACTIVE&#45;&gt;DOMA&#45;BOOLE -->
<g id="edge10" class="edge">
<title>DTEL&#45;SDRAFT_IS_ACTIVE&#45;&gt;DOMA&#45;BOOLE</title>
<path fill="none" stroke="black" d="M306.87,-143.96C262.1,-133.7 204.1,-120.28 152.7,-108 151.45,-107.7 150.19,-107.4 148.92,-107.09"/>
<polygon fill="black" stroke="black" points="149.59,-103.66 139.05,-104.71 147.95,-110.46 149.59,-103.66"/>
</g>
<!-- DTEL&#45;SDRAFT_OPERATION_CODE -->
<g id="node5" class="node">
<title>DTEL&#45;SDRAFT_OPERATION_CODE</title>
<g id="a_node5"><a xlink:href="./DTEL_SDRAFT_OPERATION_CODE.html" xlink:title="DTEL&#45;SDRAFT_OPERATION_CODE">
<polygon fill="none" stroke="yellow" points="951.21,-108 710.2,-108 710.2,-72 951.21,-72 951.21,-108"/>
<text text-anchor="middle" x="830.7" y="-85.8" font-family="Times,serif" font-size="14.00">DTEL&#45;SDRAFT_OPERATION_CODE</text>
</a>
</g>
</g>
<!-- TABL&#45;SDRAFT_WRITE_DRAFT_ADMIN&#45;&gt;DTEL&#45;SDRAFT_OPERATION_CODE -->
<g id="edge15" class="edge">
<title>TABL&#45;SDRAFT_WRITE_DRAFT_ADMIN&#45;&gt;DTEL&#45;SDRAFT_OPERATION_CODE</title>
<path fill="none" stroke="black" d="M831.45,-143.7C831.34,-135.98 831.21,-126.71 831.09,-118.11"/>
<polygon fill="black" stroke="black" points="834.59,-118.05 830.95,-108.1 827.59,-118.15 834.59,-118.05"/>
</g>
<!-- DTEL&#45;SDRAFT_CONSISTENCY_STATUS -->
<g id="node7" class="node">
<title>DTEL&#45;SDRAFT_CONSISTENCY_STATUS</title>
<g id="a_node7"><a xlink:href="./DTEL_SDRAFT_CONSISTENCY_STATUS.html" xlink:title="DTEL&#45;SDRAFT_CONSISTENCY_STATUS">
<polygon fill="none" stroke="yellow" points="692.61,-108 418.79,-108 418.79,-72 692.61,-72 692.61,-108"/>
<text text-anchor="middle" x="555.7" y="-85.8" font-family="Times,serif" font-size="14.00">DTEL&#45;SDRAFT_CONSISTENCY_STATUS</text>
</a>
</g>
</g>
<!-- TABL&#45;SDRAFT_WRITE_DRAFT_ADMIN&#45;&gt;DTEL&#45;SDRAFT_CONSISTENCY_STATUS -->
<g id="edge14" class="edge">
<title>TABL&#45;SDRAFT_WRITE_DRAFT_ADMIN&#45;&gt;DTEL&#45;SDRAFT_CONSISTENCY_STATUS</title>
<path fill="none" stroke="black" d="M764.54,-143.97C724.8,-133.89 674.31,-121.08 632.93,-110.59"/>
<polygon fill="black" stroke="black" points="633.72,-107.18 623.17,-108.11 632,-113.96 633.72,-107.18"/>
</g>
<!-- DTEL&#45;SDRAFT_ADMIN_UUID -->
<g id="node9" class="node">
<title>DTEL&#45;SDRAFT_ADMIN_UUID</title>
<g id="a_node9"><a xlink:href="./DTEL_SDRAFT_ADMIN_UUID.html" xlink:title="DTEL&#45;SDRAFT_ADMIN_UUID">
<polygon fill="none" stroke="yellow" points="401.2,-108 194.2,-108 194.2,-72 401.2,-72 401.2,-108"/>
<text text-anchor="middle" x="297.7" y="-85.8" font-family="Times,serif" font-size="14.00">DTEL&#45;SDRAFT_ADMIN_UUID</text>
</a>
</g>
</g>
<!-- TABL&#45;SDRAFT_WRITE_DRAFT_ADMIN&#45;&gt;DTEL&#45;SDRAFT_ADMIN_UUID -->
<g id="edge13" class="edge">
<title>TABL&#45;SDRAFT_WRITE_DRAFT_ADMIN&#45;&gt;DTEL&#45;SDRAFT_ADMIN_UUID</title>
<path fill="none" stroke="black" d="M697.12,-144.99C616.86,-135.23 512.66,-122.18 411.24,-108.2"/>
<polygon fill="black" stroke="black" points="411.51,-104.7 401.12,-106.8 410.55,-111.63 411.51,-104.7"/>
</g>
<!-- DTEL&#45;SDRAFT_LAST_CHANGED_AT -->
<g id="node11" class="node">
<title>DTEL&#45;SDRAFT_LAST_CHANGED_AT</title>
<g id="a_node11"><a xlink:href="./DTEL_SDRAFT_LAST_CHANGED_AT.html" xlink:title="DTEL&#45;SDRAFT_LAST_CHANGED_AT">
<polygon fill="none" stroke="yellow" points="1447.37,-108 1194.03,-108 1194.03,-72 1447.37,-72 1447.37,-108"/>
<text text-anchor="middle" x="1320.7" y="-85.8" font-family="Times,serif" font-size="14.00">DTEL&#45;SDRAFT_LAST_CHANGED_AT</text>
</a>
</g>
</g>
<!-- TABL&#45;SDRAFT_WRITE_DRAFT_ADMIN&#45;&gt;DTEL&#45;SDRAFT_LAST_CHANGED_AT -->
<g id="edge12" class="edge">
<title>TABL&#45;SDRAFT_WRITE_DRAFT_ADMIN&#45;&gt;DTEL&#45;SDRAFT_LAST_CHANGED_AT</title>
<path fill="none" stroke="black" d="M950.7,-143.97C1023.61,-133.53 1116.96,-120.17 1191.65,-109.47"/>
<polygon fill="black" stroke="black" points="1192.19,-112.93 1201.6,-108.05 1191.2,-106 1192.19,-112.93"/>
</g>
<!-- DTEL&#45;SDRAFT_CREATED_AT -->
<g id="node13" class="node">
<title>DTEL&#45;SDRAFT_CREATED_AT</title>
<g id="a_node13"><a xlink:href="./DTEL_SDRAFT_CREATED_AT.html" xlink:title="DTEL&#45;SDRAFT_CREATED_AT">
<polygon fill="none" stroke="yellow" points="1176.5,-108 968.91,-108 968.91,-72 1176.5,-72 1176.5,-108"/>
<text text-anchor="middle" x="1072.7" y="-85.8" font-family="Times,serif" font-size="14.00">DTEL&#45;SDRAFT_CREATED_AT</text>
</a>
</g>
</g>
<!-- TABL&#45;SDRAFT_WRITE_DRAFT_ADMIN&#45;&gt;DTEL&#45;SDRAFT_CREATED_AT -->
<g id="edge11" class="edge">
<title>TABL&#45;SDRAFT_WRITE_DRAFT_ADMIN&#45;&gt;DTEL&#45;SDRAFT_CREATED_AT</title>
<path fill="none" stroke="black" d="M890.35,-143.97C924.61,-134.01 968.02,-121.41 1003.89,-110.99"/>
<polygon fill="black" stroke="black" points="1005.17,-114.26 1013.79,-108.11 1003.21,-107.54 1005.17,-114.26"/>
</g>
<!-- DOMA&#45;SDRAFT_OPERATION_CODE -->
<g id="node6" class="node">
<title>DOMA&#45;SDRAFT_OPERATION_CODE</title>
<g id="a_node6"><a xlink:href="./DOMA_SDRAFT_OPERATION_CODE.html" xlink:title="DOMA&#45;SDRAFT_OPERATION_CODE">
<polygon fill="none" stroke="yellow" points="957.71,-36 709.7,-36 709.7,0 957.71,0 957.71,-36"/>
<text text-anchor="middle" x="833.7" y="-13.8" font-family="Times,serif" font-size="14.00">DOMA&#45;SDRAFT_OPERATION_CODE</text>
</a>
</g>
</g>
<!-- DTEL&#45;SDRAFT_OPERATION_CODE&#45;&gt;DOMA&#45;SDRAFT_OPERATION_CODE -->
<g id="edge16" class="edge">
<title>DTEL&#45;SDRAFT_OPERATION_CODE&#45;&gt;DOMA&#45;SDRAFT_OPERATION_CODE</title>
<path fill="none" stroke="black" d="M831.44,-71.7C831.77,-63.98 832.17,-54.71 832.54,-46.11"/>
<polygon fill="black" stroke="black" points="836.04,-46.25 832.97,-36.1 829.04,-45.95 836.04,-46.25"/>
</g>
<!-- DOMA&#45;SDRAFT_CONSISTENCY_STATUS -->
<g id="node8" class="node">
<title>DOMA&#45;SDRAFT_CONSISTENCY_STATUS</title>
<g id="a_node8"><a xlink:href="./DOMA_SDRAFT_CONSISTENCY_STATUS.html" xlink:title="DOMA&#45;SDRAFT_CONSISTENCY_STATUS">
<polygon fill="none" stroke="yellow" points="692.11,-36 411.29,-36 411.29,0 692.11,0 692.11,-36"/>
<text text-anchor="middle" x="551.7" y="-13.8" font-family="Times,serif" font-size="14.00">DOMA&#45;SDRAFT_CONSISTENCY_STATUS</text>
</a>
</g>
</g>
<!-- DTEL&#45;SDRAFT_CONSISTENCY_STATUS&#45;&gt;DOMA&#45;SDRAFT_CONSISTENCY_STATUS -->
<g id="edge17" class="edge">
<title>DTEL&#45;SDRAFT_CONSISTENCY_STATUS&#45;&gt;DOMA&#45;SDRAFT_CONSISTENCY_STATUS</title>
<path fill="none" stroke="black" d="M554.71,-71.7C554.27,-63.98 553.74,-54.71 553.25,-46.11"/>
<polygon fill="black" stroke="black" points="556.74,-45.89 552.68,-36.1 549.76,-46.29 556.74,-45.89"/>
</g>
<!-- DOMA&#45;SYSUUID -->
<g id="node10" class="node">
<title>DOMA&#45;SYSUUID</title>
<g id="a_node10"><a xlink:href="./DOMA_SYSUUID.html" xlink:title="DOMA&#45;SYSUUID">
<polygon fill="none" stroke="yellow" points="294.78,-36 170.62,-36 170.62,0 294.78,0 294.78,-36"/>
<text text-anchor="middle" x="232.7" y="-13.8" font-family="Times,serif" font-size="14.00">DOMA&#45;SYSUUID</text>
</a>
</g>
</g>
<!-- DTEL&#45;SDRAFT_ADMIN_UUID&#45;&gt;DOMA&#45;SYSUUID -->
<g id="edge18" class="edge">
<title>DTEL&#45;SDRAFT_ADMIN_UUID&#45;&gt;DOMA&#45;SYSUUID</title>
<path fill="none" stroke="black" d="M281.63,-71.7C273.76,-63.22 264.15,-52.86 255.53,-43.58"/>
<polygon fill="black" stroke="black" points="257.95,-41.05 248.58,-36.1 252.82,-45.81 257.95,-41.05"/>
</g>
<!-- DOMA&#45;TZNTSTMPL -->
<g id="node12" class="node">
<title>DOMA&#45;TZNTSTMPL</title>
<g id="a_node12"><a xlink:href="./DOMA_TZNTSTMPL.html" xlink:title="DOMA&#45;TZNTSTMPL">
<polygon fill="none" stroke="yellow" points="1269.01,-36 1124.4,-36 1124.4,0 1269.01,0 1269.01,-36"/>
<text text-anchor="middle" x="1196.7" y="-13.8" font-family="Times,serif" font-size="14.00">DOMA&#45;TZNTSTMPL</text>
</a>
</g>
</g>
<!-- DTEL&#45;SDRAFT_LAST_CHANGED_AT&#45;&gt;DOMA&#45;TZNTSTMPL -->
<g id="edge19" class="edge">
<title>DTEL&#45;SDRAFT_LAST_CHANGED_AT&#45;&gt;DOMA&#45;TZNTSTMPL</title>
<path fill="none" stroke="black" d="M1290.37,-71.88C1274.01,-62.64 1253.62,-51.13 1236.05,-41.21"/>
<polygon fill="black" stroke="black" points="1237.58,-38.06 1227.15,-36.19 1234.14,-44.15 1237.58,-38.06"/>
</g>
<!-- DTEL&#45;SDRAFT_CREATED_AT&#45;&gt;DOMA&#45;TZNTSTMPL -->
<g id="edge20" class="edge">
<title>DTEL&#45;SDRAFT_CREATED_AT&#45;&gt;DOMA&#45;TZNTSTMPL</title>
<path fill="none" stroke="black" d="M1103.04,-71.88C1119.4,-62.64 1139.78,-51.13 1157.36,-41.21"/>
<polygon fill="black" stroke="black" points="1159.26,-44.15 1166.25,-36.19 1155.82,-38.06 1159.26,-44.15"/>
</g>
<!-- DTEL&#45;SDRAFT_HAS_ACTIVE&#45;&gt;DOMA&#45;BOOLE -->
<g id="edge21" class="edge">
<title>DTEL&#45;SDRAFT_HAS_ACTIVE&#45;&gt;DOMA&#45;BOOLE</title>
<path fill="none" stroke="black" d="M97.25,-143.7C95.25,-135.9 92.83,-126.51 90.6,-117.83"/>
<polygon fill="black" stroke="black" points="93.98,-116.92 88.1,-108.1 87.2,-118.66 93.98,-116.92"/>
</g>
<!-- DTEL&#45;/BOBF/UUID&#45;&gt;DOMA&#45;SYSUUID -->
<g id="edge22" class="edge">
<title>DTEL&#45;/BOBF/UUID&#45;&gt;DOMA&#45;SYSUUID</title>
<path fill="none" stroke="black" d="M526.69,-150.12C512.81,-148.01 498.29,-145.87 484.7,-144 418.4,-134.89 230.11,-158.07 185.7,-108 168.71,-88.84 186.58,-62.45 204.96,-43.39"/>
<polygon fill="black" stroke="black" points="207.56,-45.73 212.22,-36.22 202.65,-40.75 207.56,-45.73"/>
</g>
<!-- DOMA&#45;APS_COM_CSCN_ID -->
<g id="node18" class="node">
<title>DOMA&#45;APS_COM_CSCN_ID</title>
<g id="a_node18"><a xlink:href="./DOMA_APS_COM_CSCN_ID.html" xlink:title="DOMA&#45;APS_COM_CSCN_ID">
<polygon fill="none" stroke="yellow" points="1658.52,-108 1464.89,-108 1464.89,-72 1658.52,-72 1658.52,-108"/>
<text text-anchor="middle" x="1561.7" y="-85.8" font-family="Times,serif" font-size="14.00">DOMA&#45;APS_COM_CSCN_ID</text>
</a>
</g>
</g>
<!-- DTEL&#45;APS_COM_CSCN_ID&#45;&gt;DOMA&#45;APS_COM_CSCN_ID -->
<g id="edge23" class="edge">
<title>DTEL&#45;APS_COM_CSCN_ID&#45;&gt;DOMA&#45;APS_COM_CSCN_ID</title>
<path fill="none" stroke="black" d="M1434.8,-143.88C1457.87,-134.26 1486.84,-122.19 1511.27,-112.01"/>
<polygon fill="black" stroke="black" points="1512.85,-115.15 1520.74,-108.07 1510.16,-108.68 1512.85,-115.15"/>
</g>
<!-- DOMA&#45;/BOBF/CONF_KEY -->
<g id="node20" class="node">
<title>DOMA&#45;/BOBF/CONF_KEY</title>
<g id="a_node20"><a xlink:href="./DOMA_%23BOBF%23CONF_KEY.html" xlink:title="DOMA&#45;/BOBF/CONF_KEY">
<polygon fill="none" stroke="yellow" points="1857.07,-108 1676.34,-108 1676.34,-72 1857.07,-72 1857.07,-108"/>
<text text-anchor="middle" x="1766.7" y="-85.8" font-family="Times,serif" font-size="14.00">DOMA&#45;/BOBF/CONF_KEY</text>
</a>
</g>
</g>
<!-- DTEL&#45;APS_CA_API_KEY_REFERENCE&#45;&gt;DOMA&#45;/BOBF/CONF_KEY -->
<g id="edge24" class="edge">
<title>DTEL&#45;APS_CA_API_KEY_REFERENCE&#45;&gt;DOMA&#45;/BOBF/CONF_KEY</title>
<path fill="none" stroke="black" d="M1676.06,-143.88C1691.75,-134.72 1711.26,-123.34 1728.16,-113.48"/>
<polygon fill="black" stroke="black" points="1730.36,-116.25 1737.23,-108.19 1726.83,-110.21 1730.36,-116.25"/>
</g>
<!-- DOMA&#45;APS_COM_CSCN_PROPERTY_VALUE -->
<g id="node22" class="node">
<title>DOMA&#45;APS_COM_CSCN_PROPERTY_VALUE</title>
<g id="a_node22"><a xlink:href="./DOMA_APS_COM_CSCN_PROPERTY_VALUE.html" xlink:title="DOMA&#45;APS_COM_CSCN_PROPERTY_VALUE">
<polygon fill="none" stroke="yellow" points="2179.73,-108 1875.67,-108 1875.67,-72 2179.73,-72 2179.73,-108"/>
<text text-anchor="middle" x="2027.7" y="-85.8" font-family="Times,serif" font-size="14.00">DOMA&#45;APS_COM_CSCN_PROPERTY_VALUE</text>
</a>
</g>
</g>
<!-- DTEL&#45;APS_COM_CSCN_PROPERTY_VALUE&#45;&gt;DOMA&#45;APS_COM_CSCN_PROPERTY_VALUE -->
<g id="edge25" class="edge">
<title>DTEL&#45;APS_COM_CSCN_PROPERTY_VALUE&#45;&gt;DOMA&#45;APS_COM_CSCN_PROPERTY_VALUE</title>
<path fill="none" stroke="black" d="M1968.98,-143.7C1978.62,-135.05 1990.43,-124.45 2000.93,-115.03"/>
<polygon fill="black" stroke="black" points="2003.54,-117.39 2008.64,-108.1 1998.86,-112.18 2003.54,-117.39"/>
</g>
<!-- DOMA&#45;NUMC4 -->
<g id="node24" class="node">
<title>DOMA&#45;NUMC4</title>
<g id="a_node24"><a xlink:href="./DOMA_NUMC4.html" xlink:title="DOMA&#45;NUMC4">
<polygon fill="none" stroke="yellow" points="2310.12,-108 2197.28,-108 2197.28,-72 2310.12,-72 2310.12,-108"/>
<text text-anchor="middle" x="2253.7" y="-85.8" font-family="Times,serif" font-size="14.00">DOMA&#45;NUMC4</text>
</a>
</g>
</g>
<!-- DTEL&#45;APS_COM_CSCN_PROPERTY_ID&#45;&gt;DOMA&#45;NUMC4 -->
<g id="edge26" class="edge">
<title>DTEL&#45;APS_COM_CSCN_PROPERTY_ID&#45;&gt;DOMA&#45;NUMC4</title>
<path fill="none" stroke="black" d="M2252.2,-143.7C2252.42,-135.98 2252.68,-126.71 2252.93,-118.11"/>
<polygon fill="black" stroke="black" points="2256.43,-118.2 2253.21,-108.1 2249.43,-118 2256.43,-118.2"/>
</g>
</g>
</svg>
