<?xml version="1.0" encoding="UTF-8" standalone="no"?>
<!DOCTYPE svg PUBLIC "-//W3C//DTD SVG 1.1//EN"
 "http://www.w3.org/Graphics/SVG/1.1/DTD/svg11.dtd">
<!-- Generated by graphviz version 2.47.3 (20210619.1520)
 -->
<!-- Title: G Pages: 1 -->
<svg width="538pt" height="260pt"
 viewBox="0.00 0.00 537.84 260.00" xmlns="http://www.w3.org/2000/svg" xmlns:xlink="http://www.w3.org/1999/xlink">
<g id="graph0" class="graph" transform="scale(1 1) rotate(0) translate(4 256)">
<title>G</title>
<polygon fill="white" stroke="transparent" points="-4,4 -4,-256 533.84,-256 533.84,4 -4,4"/>
<!-- TABL&#45;DDSHTEXTSEARCH -->
<g id="node1" class="node">
<title>TABL&#45;DDSHTEXTSEARCH</title>
<polygon fill="none" stroke="yellow" points="352.39,-252 165.79,-252 165.79,-216 352.39,-216 352.39,-252"/>
<text text-anchor="middle" x="259.09" y="-229.8" font-family="Times,serif" font-size="14.00">TABL&#45;DDSHTEXTSEARCH</text>
</g>
<!-- TTYP&#45;DDSH_TEXTSEARCH_FIELDS -->
<g id="node2" class="node">
<title>TTYP&#45;DDSH_TEXTSEARCH_FIELDS</title>
<g id="a_node2"><a xlink:href="./TTYP_DDSH_TEXTSEARCH_FIELDS.html" xlink:title="TTYP&#45;DDSH_TEXTSEARCH_FIELDS">
<polygon fill="none" stroke="yellow" points="246.27,-180 -0.09,-180 -0.09,-144 246.27,-144 246.27,-180"/>
<text text-anchor="middle" x="123.09" y="-157.8" font-family="Times,serif" font-size="14.00">TTYP&#45;DDSH_TEXTSEARCH_FIELDS</text>
</a>
</g>
</g>
<!-- TABL&#45;DDSHTEXTSEARCH&#45;&gt;TTYP&#45;DDSH_TEXTSEARCH_FIELDS -->
<g id="edge2" class="edge">
<title>TABL&#45;DDSHTEXTSEARCH&#45;&gt;TTYP&#45;DDSH_TEXTSEARCH_FIELDS</title>
<path fill="none" stroke="black" d="M225.82,-215.88C207.63,-206.51 184.9,-194.81 165.45,-184.8"/>
<polygon fill="black" stroke="black" points="166.98,-181.65 156.49,-180.19 163.78,-187.88 166.98,-181.65"/>
</g>
<!-- DTEL&#45;DDSH_TEXTSEARCH_REQUEST -->
<g id="node5" class="node">
<title>DTEL&#45;DDSH_TEXTSEARCH_REQUEST</title>
<g id="a_node5"><a xlink:href="./DTEL_DDSH_TEXTSEARCH_REQUEST.html" xlink:title="DTEL&#45;DDSH_TEXTSEARCH_REQUEST">
<polygon fill="none" stroke="yellow" points="526.09,-180 264.09,-180 264.09,-144 526.09,-144 526.09,-180"/>
<text text-anchor="middle" x="395.09" y="-157.8" font-family="Times,serif" font-size="14.00">DTEL&#45;DDSH_TEXTSEARCH_REQUEST</text>
</a>
</g>
</g>
<!-- TABL&#45;DDSHTEXTSEARCH&#45;&gt;DTEL&#45;DDSH_TEXTSEARCH_REQUEST -->
<g id="edge1" class="edge">
<title>TABL&#45;DDSHTEXTSEARCH&#45;&gt;DTEL&#45;DDSH_TEXTSEARCH_REQUEST</title>
<path fill="none" stroke="black" d="M292.36,-215.88C310.55,-206.51 333.28,-194.81 352.73,-184.8"/>
<polygon fill="black" stroke="black" points="354.4,-187.88 361.69,-180.19 351.2,-181.65 354.4,-187.88"/>
</g>
<!-- DTEL&#45;SHLPFIELD -->
<g id="node3" class="node">
<title>DTEL&#45;SHLPFIELD</title>
<g id="a_node3"><a xlink:href="./DTEL_SHLPFIELD.html" xlink:title="DTEL&#45;SHLPFIELD">
<polygon fill="none" stroke="yellow" points="188.4,-108 57.79,-108 57.79,-72 188.4,-72 188.4,-108"/>
<text text-anchor="middle" x="123.09" y="-85.8" font-family="Times,serif" font-size="14.00">DTEL&#45;SHLPFIELD</text>
</a>
</g>
</g>
<!-- TTYP&#45;DDSH_TEXTSEARCH_FIELDS&#45;&gt;DTEL&#45;SHLPFIELD -->
<g id="edge3" class="edge">
<title>TTYP&#45;DDSH_TEXTSEARCH_FIELDS&#45;&gt;DTEL&#45;SHLPFIELD</title>
<path fill="none" stroke="black" d="M123.09,-143.7C123.09,-135.98 123.09,-126.71 123.09,-118.11"/>
<polygon fill="black" stroke="black" points="126.59,-118.1 123.09,-108.1 119.59,-118.1 126.59,-118.1"/>
</g>
<!-- DOMA&#45;FDNAME -->
<g id="node4" class="node">
<title>DOMA&#45;FDNAME</title>
<g id="a_node4"><a xlink:href="./DOMA_FDNAME.html" xlink:title="DOMA&#45;FDNAME">
<polygon fill="none" stroke="yellow" points="184.12,-36 62.06,-36 62.06,0 184.12,0 184.12,-36"/>
<text text-anchor="middle" x="123.09" y="-13.8" font-family="Times,serif" font-size="14.00">DOMA&#45;FDNAME</text>
</a>
</g>
</g>
<!-- DTEL&#45;SHLPFIELD&#45;&gt;DOMA&#45;FDNAME -->
<g id="edge4" class="edge">
<title>DTEL&#45;SHLPFIELD&#45;&gt;DOMA&#45;FDNAME</title>
<path fill="none" stroke="black" d="M123.09,-71.7C123.09,-63.98 123.09,-54.71 123.09,-46.11"/>
<polygon fill="black" stroke="black" points="126.59,-46.1 123.09,-36.1 119.59,-46.1 126.59,-46.1"/>
</g>
<!-- DOMA&#45;DDSH_TEXTSEARCH_REQUEST -->
<g id="node6" class="node">
<title>DOMA&#45;DDSH_TEXTSEARCH_REQUEST</title>
<g id="a_node6"><a xlink:href="./DOMA_DDSH_TEXTSEARCH_REQUEST.html" xlink:title="DOMA&#45;DDSH_TEXTSEARCH_REQUEST">
<polygon fill="none" stroke="yellow" points="529.59,-108 260.59,-108 260.59,-72 529.59,-72 529.59,-108"/>
<text text-anchor="middle" x="395.09" y="-85.8" font-family="Times,serif" font-size="14.00">DOMA&#45;DDSH_TEXTSEARCH_REQUEST</text>
</a>
</g>
</g>
<!-- DTEL&#45;DDSH_TEXTSEARCH_REQUEST&#45;&gt;DOMA&#45;DDSH_TEXTSEARCH_REQUEST -->
<g id="edge5" class="edge">
<title>DTEL&#45;DDSH_TEXTSEARCH_REQUEST&#45;&gt;DOMA&#45;DDSH_TEXTSEARCH_REQUEST</title>
<path fill="none" stroke="black" d="M395.09,-143.7C395.09,-135.98 395.09,-126.71 395.09,-118.11"/>
<polygon fill="black" stroke="black" points="398.59,-118.1 395.09,-108.1 391.59,-118.1 398.59,-118.1"/>
</g>
</g>
</svg>
