<?xml version="1.0" encoding="UTF-8" standalone="no"?>
<!DOCTYPE svg PUBLIC "-//W3C//DTD SVG 1.1//EN"
 "http://www.w3.org/Graphics/SVG/1.1/DTD/svg11.dtd">
<!-- Generated by graphviz version 2.47.3 (20210619.1520)
 -->
<!-- Title: G Pages: 1 -->
<svg width="1022pt" height="188pt"
 viewBox="0.00 0.00 1021.96 188.00" xmlns="http://www.w3.org/2000/svg" xmlns:xlink="http://www.w3.org/1999/xlink">
<g id="graph0" class="graph" transform="scale(1 1) rotate(0) translate(4 184)">
<title>G</title>
<polygon fill="white" stroke="transparent" points="-4,4 -4,-184 1017.96,-184 1017.96,4 -4,4"/>
<!-- TABL&#45;SUID_ST_NODE_ORGANIZATION_NAME -->
<g id="node1" class="node">
<title>TABL&#45;SUID_ST_NODE_ORGANIZATION_NAME</title>
<polygon fill="none" stroke="yellow" points="664.5,-180 343.92,-180 343.92,-144 664.5,-144 664.5,-180"/>
<text text-anchor="middle" x="504.21" y="-157.8" font-family="Times,serif" font-size="14.00">TABL&#45;SUID_ST_NODE_ORGANIZATION_NAME</text>
</g>
<!-- DTEL&#45;AD_SORT2 -->
<g id="node2" class="node">
<title>DTEL&#45;AD_SORT2</title>
<g id="a_node2"><a xlink:href="./DTEL_AD_SORT2.html" xlink:title="DTEL&#45;AD_SORT2">
<polygon fill="none" stroke="yellow" points="126.63,-108 -0.21,-108 -0.21,-72 126.63,-72 126.63,-108"/>
<text text-anchor="middle" x="63.21" y="-85.8" font-family="Times,serif" font-size="14.00">DTEL&#45;AD_SORT2</text>
</a>
</g>
</g>
<!-- TABL&#45;SUID_ST_NODE_ORGANIZATION_NAME&#45;&gt;DTEL&#45;AD_SORT2 -->
<g id="edge7" class="edge">
<title>TABL&#45;SUID_ST_NODE_ORGANIZATION_NAME&#45;&gt;DTEL&#45;AD_SORT2</title>
<path fill="none" stroke="black" d="M364.86,-143.97C298.28,-135.11 217.33,-123.27 136.59,-108.18"/>
<polygon fill="black" stroke="black" points="137.22,-104.74 126.75,-106.33 135.92,-111.62 137.22,-104.74"/>
</g>
<!-- DTEL&#45;AD_SORT1 -->
<g id="node4" class="node">
<title>DTEL&#45;AD_SORT1</title>
<g id="a_node4"><a xlink:href="./DTEL_AD_SORT1.html" xlink:title="DTEL&#45;AD_SORT1">
<polygon fill="none" stroke="yellow" points="270.63,-108 143.79,-108 143.79,-72 270.63,-72 270.63,-108"/>
<text text-anchor="middle" x="207.21" y="-85.8" font-family="Times,serif" font-size="14.00">DTEL&#45;AD_SORT1</text>
</a>
</g>
</g>
<!-- TABL&#45;SUID_ST_NODE_ORGANIZATION_NAME&#45;&gt;DTEL&#45;AD_SORT1 -->
<g id="edge6" class="edge">
<title>TABL&#45;SUID_ST_NODE_ORGANIZATION_NAME&#45;&gt;DTEL&#45;AD_SORT1</title>
<path fill="none" stroke="black" d="M431.76,-143.94C390.07,-134.13 336.43,-121.49 280.21,-108.23"/>
<polygon fill="black" stroke="black" points="280.96,-104.82 270.42,-105.93 279.35,-111.63 280.96,-104.82"/>
</g>
<!-- DTEL&#45;AD_NAME4 -->
<g id="node5" class="node">
<title>DTEL&#45;AD_NAME4</title>
<g id="a_node5"><a xlink:href="./DTEL_AD_NAME4.html" xlink:title="DTEL&#45;AD_NAME4">
<polygon fill="none" stroke="yellow" points="420.06,-108 288.36,-108 288.36,-72 420.06,-72 420.06,-108"/>
<text text-anchor="middle" x="354.21" y="-85.8" font-family="Times,serif" font-size="14.00">DTEL&#45;AD_NAME4</text>
</a>
</g>
</g>
<!-- TABL&#45;SUID_ST_NODE_ORGANIZATION_NAME&#45;&gt;DTEL&#45;AD_NAME4 -->
<g id="edge5" class="edge">
<title>TABL&#45;SUID_ST_NODE_ORGANIZATION_NAME&#45;&gt;DTEL&#45;AD_NAME4</title>
<path fill="none" stroke="black" d="M467.51,-143.88C447.19,-134.39 421.74,-122.51 400.11,-112.42"/>
<polygon fill="black" stroke="black" points="401.33,-109.13 390.78,-108.07 398.36,-115.47 401.33,-109.13"/>
</g>
<!-- DTEL&#45;AD_NAME3 -->
<g id="node7" class="node">
<title>DTEL&#45;AD_NAME3</title>
<g id="a_node7"><a xlink:href="./DTEL_AD_NAME3.html" xlink:title="DTEL&#45;AD_NAME3">
<polygon fill="none" stroke="yellow" points="570.06,-108 438.36,-108 438.36,-72 570.06,-72 570.06,-108"/>
<text text-anchor="middle" x="504.21" y="-85.8" font-family="Times,serif" font-size="14.00">DTEL&#45;AD_NAME3</text>
</a>
</g>
</g>
<!-- TABL&#45;SUID_ST_NODE_ORGANIZATION_NAME&#45;&gt;DTEL&#45;AD_NAME3 -->
<g id="edge4" class="edge">
<title>TABL&#45;SUID_ST_NODE_ORGANIZATION_NAME&#45;&gt;DTEL&#45;AD_NAME3</title>
<path fill="none" stroke="black" d="M504.21,-143.7C504.21,-135.98 504.21,-126.71 504.21,-118.11"/>
<polygon fill="black" stroke="black" points="507.71,-118.1 504.21,-108.1 500.71,-118.1 507.71,-118.1"/>
</g>
<!-- DTEL&#45;AD_NAME2 -->
<g id="node8" class="node">
<title>DTEL&#45;AD_NAME2</title>
<g id="a_node8"><a xlink:href="./DTEL_AD_NAME2.html" xlink:title="DTEL&#45;AD_NAME2">
<polygon fill="none" stroke="yellow" points="720.06,-108 588.36,-108 588.36,-72 720.06,-72 720.06,-108"/>
<text text-anchor="middle" x="654.21" y="-85.8" font-family="Times,serif" font-size="14.00">DTEL&#45;AD_NAME2</text>
</a>
</g>
</g>
<!-- TABL&#45;SUID_ST_NODE_ORGANIZATION_NAME&#45;&gt;DTEL&#45;AD_NAME2 -->
<g id="edge3" class="edge">
<title>TABL&#45;SUID_ST_NODE_ORGANIZATION_NAME&#45;&gt;DTEL&#45;AD_NAME2</title>
<path fill="none" stroke="black" d="M540.9,-143.88C561.23,-134.39 586.68,-122.51 608.31,-112.42"/>
<polygon fill="black" stroke="black" points="610.05,-115.47 617.63,-108.07 607.09,-109.13 610.05,-115.47"/>
</g>
<!-- DTEL&#45;AD_NAME1 -->
<g id="node9" class="node">
<title>DTEL&#45;AD_NAME1</title>
<g id="a_node9"><a xlink:href="./DTEL_AD_NAME1.html" xlink:title="DTEL&#45;AD_NAME1">
<polygon fill="none" stroke="yellow" points="870.06,-108 738.36,-108 738.36,-72 870.06,-72 870.06,-108"/>
<text text-anchor="middle" x="804.21" y="-85.8" font-family="Times,serif" font-size="14.00">DTEL&#45;AD_NAME1</text>
</a>
</g>
</g>
<!-- TABL&#45;SUID_ST_NODE_ORGANIZATION_NAME&#45;&gt;DTEL&#45;AD_NAME1 -->
<g id="edge2" class="edge">
<title>TABL&#45;SUID_ST_NODE_ORGANIZATION_NAME&#45;&gt;DTEL&#45;AD_NAME1</title>
<path fill="none" stroke="black" d="M577.21,-143.97C623.02,-133.28 681.97,-119.52 728.32,-108.71"/>
<polygon fill="black" stroke="black" points="729.37,-112.06 738.31,-106.38 727.77,-105.24 729.37,-112.06"/>
</g>
<!-- DTEL&#45;AD_TITLE -->
<g id="node10" class="node">
<title>DTEL&#45;AD_TITLE</title>
<g id="a_node10"><a xlink:href="./DTEL_AD_TITLE.html" xlink:title="DTEL&#45;AD_TITLE">
<polygon fill="none" stroke="green" points="1010.22,-108 888.2,-108 888.2,-72 1010.22,-72 1010.22,-108"/>
<text text-anchor="middle" x="949.21" y="-85.8" font-family="Times,serif" font-size="14.00">DTEL&#45;AD_TITLE</text>
</a>
</g>
</g>
<!-- TABL&#45;SUID_ST_NODE_ORGANIZATION_NAME&#45;&gt;DTEL&#45;AD_TITLE -->
<g id="edge1" class="edge">
<title>TABL&#45;SUID_ST_NODE_ORGANIZATION_NAME&#45;&gt;DTEL&#45;AD_TITLE</title>
<path fill="none" stroke="black" d="M648.55,-143.96C715.74,-135.2 796.87,-123.47 877.94,-108.15"/>
<polygon fill="black" stroke="black" points="878.66,-111.58 887.82,-106.27 877.34,-104.7 878.66,-111.58"/>
</g>
<!-- DOMA&#45;CHAR20 -->
<g id="node3" class="node">
<title>DOMA&#45;CHAR20</title>
<g id="a_node3"><a xlink:href="./DOMA_CHAR20.html" xlink:title="DOMA&#45;CHAR20">
<polygon fill="none" stroke="yellow" points="193.52,-36 76.9,-36 76.9,0 193.52,0 193.52,-36"/>
<text text-anchor="middle" x="135.21" y="-13.8" font-family="Times,serif" font-size="14.00">DOMA&#45;CHAR20</text>
</a>
</g>
</g>
<!-- DTEL&#45;AD_SORT2&#45;&gt;DOMA&#45;CHAR20 -->
<g id="edge8" class="edge">
<title>DTEL&#45;AD_SORT2&#45;&gt;DOMA&#45;CHAR20</title>
<path fill="none" stroke="black" d="M81.01,-71.7C89.81,-63.14 100.59,-52.66 110.21,-43.3"/>
<polygon fill="black" stroke="black" points="112.89,-45.58 117.62,-36.1 108.01,-40.57 112.89,-45.58"/>
</g>
<!-- DTEL&#45;AD_SORT1&#45;&gt;DOMA&#45;CHAR20 -->
<g id="edge9" class="edge">
<title>DTEL&#45;AD_SORT1&#45;&gt;DOMA&#45;CHAR20</title>
<path fill="none" stroke="black" d="M189.41,-71.7C180.6,-63.14 169.83,-52.66 160.21,-43.3"/>
<polygon fill="black" stroke="black" points="162.41,-40.57 152.8,-36.1 157.53,-45.58 162.41,-40.57"/>
</g>
<!-- DOMA&#45;TEXT40 -->
<g id="node6" class="node">
<title>DOMA&#45;TEXT40</title>
<g id="a_node6"><a xlink:href="./DOMA_TEXT40.html" xlink:title="DOMA&#45;TEXT40">
<polygon fill="none" stroke="green" points="635.9,-36 522.52,-36 522.52,0 635.9,0 635.9,-36"/>
<text text-anchor="middle" x="579.21" y="-13.8" font-family="Times,serif" font-size="14.00">DOMA&#45;TEXT40</text>
</a>
</g>
</g>
<!-- DTEL&#45;AD_NAME4&#45;&gt;DOMA&#45;TEXT40 -->
<g id="edge10" class="edge">
<title>DTEL&#45;AD_NAME4&#45;&gt;DOMA&#45;TEXT40</title>
<path fill="none" stroke="black" d="M408.96,-71.97C440.81,-62.06 481.13,-49.51 514.53,-39.12"/>
<polygon fill="black" stroke="black" points="515.7,-42.42 524.21,-36.11 513.62,-35.74 515.7,-42.42"/>
</g>
<!-- DTEL&#45;AD_NAME3&#45;&gt;DOMA&#45;TEXT40 -->
<g id="edge11" class="edge">
<title>DTEL&#45;AD_NAME3&#45;&gt;DOMA&#45;TEXT40</title>
<path fill="none" stroke="black" d="M522.75,-71.7C532.01,-63.05 543.37,-52.45 553.47,-43.03"/>
<polygon fill="black" stroke="black" points="555.96,-45.49 560.88,-36.1 551.18,-40.37 555.96,-45.49"/>
</g>
<!-- DTEL&#45;AD_NAME2&#45;&gt;DOMA&#45;TEXT40 -->
<g id="edge12" class="edge">
<title>DTEL&#45;AD_NAME2&#45;&gt;DOMA&#45;TEXT40</title>
<path fill="none" stroke="black" d="M635.67,-71.7C626.41,-63.05 615.05,-52.45 604.95,-43.03"/>
<polygon fill="black" stroke="black" points="607.23,-40.37 597.53,-36.1 602.46,-45.49 607.23,-40.37"/>
</g>
<!-- DTEL&#45;AD_NAME1&#45;&gt;DOMA&#45;TEXT40 -->
<g id="edge13" class="edge">
<title>DTEL&#45;AD_NAME1&#45;&gt;DOMA&#45;TEXT40</title>
<path fill="none" stroke="black" d="M749.45,-71.97C717.61,-62.06 677.29,-49.51 643.88,-39.12"/>
<polygon fill="black" stroke="black" points="644.8,-35.74 634.21,-36.11 642.72,-42.42 644.8,-35.74"/>
</g>
<!-- DOMA&#45;AD_TITLE -->
<g id="node11" class="node">
<title>DOMA&#45;AD_TITLE</title>
<g id="a_node11"><a xlink:href="./DOMA_AD_TITLE.html" xlink:title="DOMA&#45;AD_TITLE">
<polygon fill="none" stroke="yellow" points="1013.72,-36 884.7,-36 884.7,0 1013.72,0 1013.72,-36"/>
<text text-anchor="middle" x="949.21" y="-13.8" font-family="Times,serif" font-size="14.00">DOMA&#45;AD_TITLE</text>
</a>
</g>
</g>
<!-- DTEL&#45;AD_TITLE&#45;&gt;DOMA&#45;AD_TITLE -->
<g id="edge14" class="edge">
<title>DTEL&#45;AD_TITLE&#45;&gt;DOMA&#45;AD_TITLE</title>
<path fill="none" stroke="black" d="M949.21,-71.7C949.21,-63.98 949.21,-54.71 949.21,-46.11"/>
<polygon fill="black" stroke="black" points="952.71,-46.1 949.21,-36.1 945.71,-46.1 952.71,-46.1"/>
</g>
</g>
</svg>
