<?xml version="1.0" encoding="UTF-8" standalone="no"?>
<!DOCTYPE svg PUBLIC "-//W3C//DTD SVG 1.1//EN"
 "http://www.w3.org/Graphics/SVG/1.1/DTD/svg11.dtd">
<!-- Generated by graphviz version 2.47.3 (20210619.1520)
 -->
<!-- Title: G Pages: 1 -->
<svg width="388pt" height="188pt"
 viewBox="0.00 0.00 388.31 188.00" xmlns="http://www.w3.org/2000/svg" xmlns:xlink="http://www.w3.org/1999/xlink">
<g id="graph0" class="graph" transform="scale(1 1) rotate(0) translate(4 184)">
<title>G</title>
<polygon fill="white" stroke="transparent" points="-4,4 -4,-184 384.31,-184 384.31,4 -4,4"/>
<!-- TABL&#45;BAPIALD -->
<g id="node1" class="node">
<title>TABL&#45;BAPIALD</title>
<polygon fill="none" stroke="green" points="253.35,-180 135.62,-180 135.62,-144 253.35,-144 253.35,-180"/>
<text text-anchor="middle" x="194.48" y="-157.8" font-family="Times,serif" font-size="14.00">TABL&#45;BAPIALD</text>
</g>
<!-- DTEL&#45;BALPVAL -->
<g id="node2" class="node">
<title>DTEL&#45;BALPVAL</title>
<g id="a_node2"><a xlink:href="./DTEL_BALPVAL.html" xlink:title="DTEL&#45;BALPVAL">
<polygon fill="none" stroke="yellow" points="120.95,-108 0.02,-108 0.02,-72 120.95,-72 120.95,-108"/>
<text text-anchor="middle" x="60.48" y="-85.8" font-family="Times,serif" font-size="14.00">DTEL&#45;BALPVAL</text>
</a>
</g>
</g>
<!-- TABL&#45;BAPIALD&#45;&gt;DTEL&#45;BALPVAL -->
<g id="edge3" class="edge">
<title>TABL&#45;BAPIALD&#45;&gt;DTEL&#45;BALPVAL</title>
<path fill="none" stroke="black" d="M161.7,-143.88C143.86,-134.55 121.59,-122.92 102.48,-112.94"/>
<polygon fill="black" stroke="black" points="103.87,-109.72 93.39,-108.19 100.63,-115.92 103.87,-109.72"/>
</g>
<!-- DTEL&#45;BALPAR -->
<g id="node4" class="node">
<title>DTEL&#45;BALPAR</title>
<g id="a_node4"><a xlink:href="./DTEL_BALPAR.html" xlink:title="DTEL&#45;BALPAR">
<polygon fill="none" stroke="yellow" points="250.13,-108 138.84,-108 138.84,-72 250.13,-72 250.13,-108"/>
<text text-anchor="middle" x="194.48" y="-85.8" font-family="Times,serif" font-size="14.00">DTEL&#45;BALPAR</text>
</a>
</g>
</g>
<!-- TABL&#45;BAPIALD&#45;&gt;DTEL&#45;BALPAR -->
<g id="edge2" class="edge">
<title>TABL&#45;BAPIALD&#45;&gt;DTEL&#45;BALPAR</title>
<path fill="none" stroke="black" d="M194.48,-143.7C194.48,-135.98 194.48,-126.71 194.48,-118.11"/>
<polygon fill="black" stroke="black" points="197.98,-118.1 194.48,-108.1 190.98,-118.1 197.98,-118.1"/>
</g>
<!-- DTEL&#45;BALPNR -->
<g id="node6" class="node">
<title>DTEL&#45;BALPNR</title>
<g id="a_node6"><a xlink:href="./DTEL_BALPNR.html" xlink:title="DTEL&#45;BALPNR">
<polygon fill="none" stroke="yellow" points="380.13,-108 268.84,-108 268.84,-72 380.13,-72 380.13,-108"/>
<text text-anchor="middle" x="324.48" y="-85.8" font-family="Times,serif" font-size="14.00">DTEL&#45;BALPNR</text>
</a>
</g>
</g>
<!-- TABL&#45;BAPIALD&#45;&gt;DTEL&#45;BALPNR -->
<g id="edge1" class="edge">
<title>TABL&#45;BAPIALD&#45;&gt;DTEL&#45;BALPNR</title>
<path fill="none" stroke="black" d="M226.29,-143.88C243.6,-134.55 265.21,-122.92 283.74,-112.94"/>
<polygon fill="black" stroke="black" points="285.42,-116.01 292.56,-108.19 282.1,-109.85 285.42,-116.01"/>
</g>
<!-- DOMA&#45;TEXT75 -->
<g id="node3" class="node">
<title>DOMA&#45;TEXT75</title>
<g id="a_node3"><a xlink:href="./DOMA_TEXT75.html" xlink:title="DOMA&#45;TEXT75">
<polygon fill="none" stroke="yellow" points="117.17,-36 3.8,-36 3.8,0 117.17,0 117.17,-36"/>
<text text-anchor="middle" x="60.48" y="-13.8" font-family="Times,serif" font-size="14.00">DOMA&#45;TEXT75</text>
</a>
</g>
</g>
<!-- DTEL&#45;BALPVAL&#45;&gt;DOMA&#45;TEXT75 -->
<g id="edge4" class="edge">
<title>DTEL&#45;BALPVAL&#45;&gt;DOMA&#45;TEXT75</title>
<path fill="none" stroke="black" d="M60.48,-71.7C60.48,-63.98 60.48,-54.71 60.48,-46.11"/>
<polygon fill="black" stroke="black" points="63.98,-46.1 60.48,-36.1 56.98,-46.1 63.98,-46.1"/>
</g>
<!-- DOMA&#45;CHAR10 -->
<g id="node5" class="node">
<title>DOMA&#45;CHAR10</title>
<g id="a_node5"><a xlink:href="./DOMA_CHAR10.html" xlink:title="DOMA&#45;CHAR10">
<polygon fill="none" stroke="yellow" points="252.8,-36 136.17,-36 136.17,0 252.8,0 252.8,-36"/>
<text text-anchor="middle" x="194.48" y="-13.8" font-family="Times,serif" font-size="14.00">DOMA&#45;CHAR10</text>
</a>
</g>
</g>
<!-- DTEL&#45;BALPAR&#45;&gt;DOMA&#45;CHAR10 -->
<g id="edge5" class="edge">
<title>DTEL&#45;BALPAR&#45;&gt;DOMA&#45;CHAR10</title>
<path fill="none" stroke="black" d="M194.48,-71.7C194.48,-63.98 194.48,-54.71 194.48,-46.11"/>
<polygon fill="black" stroke="black" points="197.98,-46.1 194.48,-36.1 190.98,-46.1 197.98,-46.1"/>
</g>
<!-- DOMA&#45;NUM6 -->
<g id="node7" class="node">
<title>DOMA&#45;NUM6</title>
<g id="a_node7"><a xlink:href="./DOMA_NUM6.html" xlink:title="DOMA&#45;NUM6">
<polygon fill="none" stroke="yellow" points="376.07,-36 272.9,-36 272.9,0 376.07,0 376.07,-36"/>
<text text-anchor="middle" x="324.48" y="-13.8" font-family="Times,serif" font-size="14.00">DOMA&#45;NUM6</text>
</a>
</g>
</g>
<!-- DTEL&#45;BALPNR&#45;&gt;DOMA&#45;NUM6 -->
<g id="edge6" class="edge">
<title>DTEL&#45;BALPNR&#45;&gt;DOMA&#45;NUM6</title>
<path fill="none" stroke="black" d="M324.48,-71.7C324.48,-63.98 324.48,-54.71 324.48,-46.11"/>
<polygon fill="black" stroke="black" points="327.98,-46.1 324.48,-36.1 320.98,-46.1 327.98,-46.1"/>
</g>
</g>
</svg>
