<?xml version="1.0" encoding="UTF-8" standalone="no"?>
<!DOCTYPE svg PUBLIC "-//W3C//DTD SVG 1.1//EN"
 "http://www.w3.org/Graphics/SVG/1.1/DTD/svg11.dtd">
<!-- Generated by graphviz version 2.47.3 (20210619.1520)
 -->
<!-- Title: G Pages: 1 -->
<svg width="299pt" height="188pt"
 viewBox="0.00 0.00 299.30 188.00" xmlns="http://www.w3.org/2000/svg" xmlns:xlink="http://www.w3.org/1999/xlink">
<g id="graph0" class="graph" transform="scale(1 1) rotate(0) translate(4 184)">
<title>G</title>
<polygon fill="white" stroke="transparent" points="-4,4 -4,-184 295.3,-184 295.3,4 -4,4"/>
<!-- TABL&#45;ABP_BEHV_GLOBAL_PERMISSIONS -->
<g id="node1" class="node">
<title>TABL&#45;ABP_BEHV_GLOBAL_PERMISSIONS</title>
<polygon fill="none" stroke="green" points="291.45,-180 -0.15,-180 -0.15,-144 291.45,-144 291.45,-180"/>
<text text-anchor="middle" x="145.65" y="-157.8" font-family="Times,serif" font-size="14.00">TABL&#45;ABP_BEHV_GLOBAL_PERMISSIONS</text>
</g>
<!-- DTEL&#45;ABP_ENTITY_NAME -->
<g id="node2" class="node">
<title>DTEL&#45;ABP_ENTITY_NAME</title>
<g id="a_node2"><a xlink:href="./DTEL_ABP_ENTITY_NAME.html" xlink:title="DTEL&#45;ABP_ENTITY_NAME">
<polygon fill="none" stroke="green" points="240.54,-108 50.76,-108 50.76,-72 240.54,-72 240.54,-108"/>
<text text-anchor="middle" x="145.65" y="-85.8" font-family="Times,serif" font-size="14.00">DTEL&#45;ABP_ENTITY_NAME</text>
</a>
</g>
</g>
<!-- TABL&#45;ABP_BEHV_GLOBAL_PERMISSIONS&#45;&gt;DTEL&#45;ABP_ENTITY_NAME -->
<g id="edge1" class="edge">
<title>TABL&#45;ABP_BEHV_GLOBAL_PERMISSIONS&#45;&gt;DTEL&#45;ABP_ENTITY_NAME</title>
<path fill="none" stroke="black" d="M145.65,-143.7C145.65,-135.98 145.65,-126.71 145.65,-118.11"/>
<polygon fill="black" stroke="black" points="149.15,-118.1 145.65,-108.1 142.15,-118.1 149.15,-118.1"/>
</g>
<!-- DOMA&#45;ABP_ENTITY_NAME -->
<g id="node3" class="node">
<title>DOMA&#45;ABP_ENTITY_NAME</title>
<g id="a_node3"><a xlink:href="./DOMA_ABP_ENTITY_NAME.html" xlink:title="DOMA&#45;ABP_ENTITY_NAME">
<polygon fill="none" stroke="yellow" points="244.04,-36 47.26,-36 47.26,0 244.04,0 244.04,-36"/>
<text text-anchor="middle" x="145.65" y="-13.8" font-family="Times,serif" font-size="14.00">DOMA&#45;ABP_ENTITY_NAME</text>
</a>
</g>
</g>
<!-- DTEL&#45;ABP_ENTITY_NAME&#45;&gt;DOMA&#45;ABP_ENTITY_NAME -->
<g id="edge2" class="edge">
<title>DTEL&#45;ABP_ENTITY_NAME&#45;&gt;DOMA&#45;ABP_ENTITY_NAME</title>
<path fill="none" stroke="black" d="M145.65,-71.7C145.65,-63.98 145.65,-54.71 145.65,-46.11"/>
<polygon fill="black" stroke="black" points="149.15,-46.1 145.65,-36.1 142.15,-46.1 149.15,-46.1"/>
</g>
</g>
</svg>
