<?xml version="1.0" encoding="UTF-8" standalone="no"?>
<!DOCTYPE svg PUBLIC "-//W3C//DTD SVG 1.1//EN"
 "http://www.w3.org/Graphics/SVG/1.1/DTD/svg11.dtd">
<!-- Generated by graphviz version 2.47.3 (20210619.1520)
 -->
<!-- Title: G Pages: 1 -->
<svg width="765pt" height="188pt"
 viewBox="0.00 0.00 764.86 188.00" xmlns="http://www.w3.org/2000/svg" xmlns:xlink="http://www.w3.org/1999/xlink">
<g id="graph0" class="graph" transform="scale(1 1) rotate(0) translate(4 184)">
<title>G</title>
<polygon fill="white" stroke="transparent" points="-4,4 -4,-184 760.86,-184 760.86,4 -4,4"/>
<!-- TABL&#45;TPR_STA_IN -->
<g id="node1" class="node">
<title>TABL&#45;TPR_STA_IN</title>
<polygon fill="none" stroke="yellow" points="431.91,-180 293.73,-180 293.73,-144 431.91,-144 431.91,-180"/>
<text text-anchor="middle" x="362.82" y="-157.8" font-family="Times,serif" font-size="14.00">TABL&#45;TPR_STA_IN</text>
</g>
<!-- DTEL&#45;SEU_ID -->
<g id="node2" class="node">
<title>DTEL&#45;SEU_ID</title>
<g id="a_node2"><a xlink:href="./DTEL_SEU_ID.html" xlink:title="DTEL&#45;SEU_ID">
<polygon fill="none" stroke="yellow" points="110.95,-108 6.68,-108 6.68,-72 110.95,-72 110.95,-108"/>
<text text-anchor="middle" x="58.82" y="-85.8" font-family="Times,serif" font-size="14.00">DTEL&#45;SEU_ID</text>
</a>
</g>
</g>
<!-- TABL&#45;TPR_STA_IN&#45;&gt;DTEL&#45;SEU_ID -->
<g id="edge5" class="edge">
<title>TABL&#45;TPR_STA_IN&#45;&gt;DTEL&#45;SEU_ID</title>
<path fill="none" stroke="black" d="M293.53,-146.67C245.26,-136.46 179.45,-122.1 121.82,-108 121.49,-107.92 121.16,-107.84 120.82,-107.76"/>
<polygon fill="black" stroke="black" points="121.57,-104.34 111.02,-105.29 119.87,-111.12 121.57,-104.34"/>
</g>
<!-- DTEL&#45;TPR_ST_NEW -->
<g id="node4" class="node">
<title>DTEL&#45;TPR_ST_NEW</title>
<g id="a_node4"><a xlink:href="./DTEL_TPR_ST_NEW.html" xlink:title="DTEL&#45;TPR_ST_NEW">
<polygon fill="none" stroke="yellow" points="275.12,-108 130.51,-108 130.51,-72 275.12,-72 275.12,-108"/>
<text text-anchor="middle" x="202.82" y="-85.8" font-family="Times,serif" font-size="14.00">DTEL&#45;TPR_ST_NEW</text>
</a>
</g>
</g>
<!-- TABL&#45;TPR_STA_IN&#45;&gt;DTEL&#45;TPR_ST_NEW -->
<g id="edge4" class="edge">
<title>TABL&#45;TPR_STA_IN&#45;&gt;DTEL&#45;TPR_ST_NEW</title>
<path fill="none" stroke="black" d="M323.68,-143.88C301.8,-134.31 274.36,-122.3 251.15,-112.15"/>
<polygon fill="black" stroke="black" points="252.39,-108.87 241.83,-108.07 249.59,-115.28 252.39,-108.87"/>
</g>
<!-- DTEL&#45;TPR_ST_COP -->
<g id="node6" class="node">
<title>DTEL&#45;TPR_ST_COP</title>
<g id="a_node6"><a xlink:href="./DTEL_TPR_ST_COP.html" xlink:title="DTEL&#45;TPR_ST_COP">
<polygon fill="none" stroke="yellow" points="432.48,-108 293.16,-108 293.16,-72 432.48,-72 432.48,-108"/>
<text text-anchor="middle" x="362.82" y="-85.8" font-family="Times,serif" font-size="14.00">DTEL&#45;TPR_ST_COP</text>
</a>
</g>
</g>
<!-- TABL&#45;TPR_STA_IN&#45;&gt;DTEL&#45;TPR_ST_COP -->
<g id="edge3" class="edge">
<title>TABL&#45;TPR_STA_IN&#45;&gt;DTEL&#45;TPR_ST_COP</title>
<path fill="none" stroke="black" d="M362.82,-143.7C362.82,-135.98 362.82,-126.71 362.82,-118.11"/>
<polygon fill="black" stroke="black" points="366.32,-118.1 362.82,-108.1 359.32,-118.1 366.32,-118.1"/>
</g>
<!-- DTEL&#45;TPR_ST_DEL -->
<g id="node8" class="node">
<title>DTEL&#45;TPR_ST_DEL</title>
<g id="a_node8"><a xlink:href="./DTEL_TPR_ST_DEL.html" xlink:title="DTEL&#45;TPR_ST_DEL">
<polygon fill="none" stroke="yellow" points="590.46,-108 451.17,-108 451.17,-72 590.46,-72 590.46,-108"/>
<text text-anchor="middle" x="520.82" y="-85.8" font-family="Times,serif" font-size="14.00">DTEL&#45;TPR_ST_DEL</text>
</a>
</g>
</g>
<!-- TABL&#45;TPR_STA_IN&#45;&gt;DTEL&#45;TPR_ST_DEL -->
<g id="edge2" class="edge">
<title>TABL&#45;TPR_STA_IN&#45;&gt;DTEL&#45;TPR_ST_DEL</title>
<path fill="none" stroke="black" d="M401.47,-143.88C423.07,-134.31 450.17,-122.3 473.08,-112.15"/>
<polygon fill="black" stroke="black" points="474.57,-115.32 482.29,-108.07 471.73,-108.92 474.57,-115.32"/>
</g>
<!-- DTEL&#45;TPR_ST_MOD -->
<g id="node9" class="node">
<title>DTEL&#45;TPR_ST_MOD</title>
<g id="a_node9"><a xlink:href="./DTEL_TPR_ST_MOD.html" xlink:title="DTEL&#45;TPR_ST_MOD">
<polygon fill="none" stroke="yellow" points="753.41,-108 608.23,-108 608.23,-72 753.41,-72 753.41,-108"/>
<text text-anchor="middle" x="680.82" y="-85.8" font-family="Times,serif" font-size="14.00">DTEL&#45;TPR_ST_MOD</text>
</a>
</g>
</g>
<!-- TABL&#45;TPR_STA_IN&#45;&gt;DTEL&#45;TPR_ST_MOD -->
<g id="edge1" class="edge">
<title>TABL&#45;TPR_STA_IN&#45;&gt;DTEL&#45;TPR_ST_MOD</title>
<path fill="none" stroke="black" d="M432.21,-145.72C481.14,-134.95 546.88,-120.48 598.47,-109.13"/>
<polygon fill="black" stroke="black" points="599.25,-112.54 608.26,-106.97 597.74,-105.7 599.25,-112.54"/>
</g>
<!-- DOMA&#45;SEU_ID -->
<g id="node3" class="node">
<title>DOMA&#45;SEU_ID</title>
<g id="a_node3"><a xlink:href="./DOMA_SEU_ID.html" xlink:title="DOMA&#45;SEU_ID">
<polygon fill="none" stroke="yellow" points="111.45,-36 0.18,-36 0.18,0 111.45,0 111.45,-36"/>
<text text-anchor="middle" x="55.82" y="-13.8" font-family="Times,serif" font-size="14.00">DOMA&#45;SEU_ID</text>
</a>
</g>
</g>
<!-- DTEL&#45;SEU_ID&#45;&gt;DOMA&#45;SEU_ID -->
<g id="edge6" class="edge">
<title>DTEL&#45;SEU_ID&#45;&gt;DOMA&#45;SEU_ID</title>
<path fill="none" stroke="black" d="M58.08,-71.7C57.74,-63.98 57.35,-54.71 56.98,-46.11"/>
<polygon fill="black" stroke="black" points="60.48,-45.95 56.55,-36.1 53.48,-46.25 60.48,-45.95"/>
</g>
<!-- DOMA&#45;TPR_ST_NEW -->
<g id="node5" class="node">
<title>DOMA&#45;TPR_ST_NEW</title>
<g id="a_node5"><a xlink:href="./DOMA_TPR_ST_NEW.html" xlink:title="DOMA&#45;TPR_ST_NEW">
<polygon fill="none" stroke="yellow" points="280.62,-36 129.01,-36 129.01,0 280.62,0 280.62,-36"/>
<text text-anchor="middle" x="204.82" y="-13.8" font-family="Times,serif" font-size="14.00">DOMA&#45;TPR_ST_NEW</text>
</a>
</g>
</g>
<!-- DTEL&#45;TPR_ST_NEW&#45;&gt;DOMA&#45;TPR_ST_NEW -->
<g id="edge7" class="edge">
<title>DTEL&#45;TPR_ST_NEW&#45;&gt;DOMA&#45;TPR_ST_NEW</title>
<path fill="none" stroke="black" d="M203.31,-71.7C203.53,-63.98 203.8,-54.71 204.04,-46.11"/>
<polygon fill="black" stroke="black" points="207.54,-46.2 204.33,-36.1 200.54,-46 207.54,-46.2"/>
</g>
<!-- DOMA&#45;XFELD -->
<g id="node7" class="node">
<title>DOMA&#45;XFELD</title>
<g id="a_node7"><a xlink:href="./DOMA_XFELD.html" xlink:title="DOMA&#45;XFELD">
<polygon fill="none" stroke="yellow" points="495.84,-36 387.79,-36 387.79,0 495.84,0 495.84,-36"/>
<text text-anchor="middle" x="441.82" y="-13.8" font-family="Times,serif" font-size="14.00">DOMA&#45;XFELD</text>
</a>
</g>
</g>
<!-- DTEL&#45;TPR_ST_COP&#45;&gt;DOMA&#45;XFELD -->
<g id="edge8" class="edge">
<title>DTEL&#45;TPR_ST_COP&#45;&gt;DOMA&#45;XFELD</title>
<path fill="none" stroke="black" d="M382.35,-71.7C392.2,-62.97 404.3,-52.24 415.01,-42.75"/>
<polygon fill="black" stroke="black" points="417.35,-45.36 422.51,-36.1 412.71,-40.12 417.35,-45.36"/>
</g>
<!-- DTEL&#45;TPR_ST_DEL&#45;&gt;DOMA&#45;XFELD -->
<g id="edge9" class="edge">
<title>DTEL&#45;TPR_ST_DEL&#45;&gt;DOMA&#45;XFELD</title>
<path fill="none" stroke="black" d="M501.29,-71.7C491.44,-62.97 479.33,-52.24 468.62,-42.75"/>
<polygon fill="black" stroke="black" points="470.93,-40.12 461.12,-36.1 466.28,-45.36 470.93,-40.12"/>
</g>
<!-- DOMA&#45;TPR_ST_MOD -->
<g id="node10" class="node">
<title>DOMA&#45;TPR_ST_MOD</title>
<g id="a_node10"><a xlink:href="./DOMA_TPR_ST_MOD.html" xlink:title="DOMA&#45;TPR_ST_MOD">
<polygon fill="none" stroke="yellow" points="756.91,-36 604.73,-36 604.73,0 756.91,0 756.91,-36"/>
<text text-anchor="middle" x="680.82" y="-13.8" font-family="Times,serif" font-size="14.00">DOMA&#45;TPR_ST_MOD</text>
</a>
</g>
</g>
<!-- DTEL&#45;TPR_ST_MOD&#45;&gt;DOMA&#45;TPR_ST_MOD -->
<g id="edge10" class="edge">
<title>DTEL&#45;TPR_ST_MOD&#45;&gt;DOMA&#45;TPR_ST_MOD</title>
<path fill="none" stroke="black" d="M680.82,-71.7C680.82,-63.98 680.82,-54.71 680.82,-46.11"/>
<polygon fill="black" stroke="black" points="684.32,-46.1 680.82,-36.1 677.32,-46.1 684.32,-46.1"/>
</g>
</g>
</svg>
