<?xml version="1.0" encoding="UTF-8" standalone="no"?>
<!DOCTYPE svg PUBLIC "-//W3C//DTD SVG 1.1//EN"
 "http://www.w3.org/Graphics/SVG/1.1/DTD/svg11.dtd">
<!-- Generated by graphviz version 2.47.3 (20210619.1520)
 -->
<!-- Title: G Pages: 1 -->
<svg width="1202pt" height="188pt"
 viewBox="0.00 0.00 1202.26 188.00" xmlns="http://www.w3.org/2000/svg" xmlns:xlink="http://www.w3.org/1999/xlink">
<g id="graph0" class="graph" transform="scale(1 1) rotate(0) translate(4 184)">
<title>G</title>
<polygon fill="white" stroke="transparent" points="-4,4 -4,-184 1198.26,-184 1198.26,4 -4,4"/>
<!-- TABL&#45;BAPITGA -->
<g id="node1" class="node">
<title>TABL&#45;BAPITGA</title>
<polygon fill="none" stroke="green" points="667.01,-180 549.29,-180 549.29,-144 667.01,-144 667.01,-180"/>
<text text-anchor="middle" x="608.15" y="-157.8" font-family="Times,serif" font-size="14.00">TABL&#45;BAPITGA</text>
</g>
<!-- DTEL&#45;BAPI_LMASK -->
<g id="node2" class="node">
<title>DTEL&#45;BAPI_LMASK</title>
<g id="a_node2"><a xlink:href="./DTEL_BAPI_LMASK.html" xlink:title="DTEL&#45;BAPI_LMASK">
<polygon fill="none" stroke="green" points="144.46,-108 -0.15,-108 -0.15,-72 144.46,-72 144.46,-108"/>
<text text-anchor="middle" x="72.15" y="-85.8" font-family="Times,serif" font-size="14.00">DTEL&#45;BAPI_LMASK</text>
</a>
</g>
</g>
<!-- TABL&#45;BAPITGA&#45;&gt;DTEL&#45;BAPI_LMASK -->
<g id="edge8" class="edge">
<title>TABL&#45;BAPITGA&#45;&gt;DTEL&#45;BAPI_LMASK</title>
<path fill="none" stroke="black" d="M549.02,-155.84C463.94,-148.04 301.93,-131.76 154.64,-108.17"/>
<polygon fill="black" stroke="black" points="154.95,-104.67 144.51,-106.53 153.83,-111.58 154.95,-104.67"/>
</g>
<!-- DTEL&#45;BAPI_BACK -->
<g id="node4" class="node">
<title>DTEL&#45;BAPI_BACK</title>
<g id="a_node4"><a xlink:href="./DTEL_BAPI_BACK.html" xlink:title="DTEL&#45;BAPI_BACK">
<polygon fill="none" stroke="green" points="296.35,-108 161.95,-108 161.95,-72 296.35,-72 296.35,-108"/>
<text text-anchor="middle" x="229.15" y="-85.8" font-family="Times,serif" font-size="14.00">DTEL&#45;BAPI_BACK</text>
</a>
</g>
</g>
<!-- TABL&#45;BAPITGA&#45;&gt;DTEL&#45;BAPI_BACK -->
<g id="edge7" class="edge">
<title>TABL&#45;BAPITGA&#45;&gt;DTEL&#45;BAPI_BACK</title>
<path fill="none" stroke="black" d="M549.27,-151.45C488.3,-141.37 390.35,-124.68 306.15,-108 306.05,-107.98 305.95,-107.96 305.85,-107.94"/>
<polygon fill="black" stroke="black" points="306.8,-104.56 296.31,-106.01 305.41,-111.42 306.8,-104.56"/>
</g>
<!-- DTEL&#45;BAPI_CONV -->
<g id="node6" class="node">
<title>DTEL&#45;BAPI_CONV</title>
<g id="a_node6"><a xlink:href="./DTEL_BAPI_CONV.html" xlink:title="DTEL&#45;BAPI_CONV">
<polygon fill="none" stroke="green" points="449.62,-108 314.68,-108 314.68,-72 449.62,-72 449.62,-108"/>
<text text-anchor="middle" x="382.15" y="-85.8" font-family="Times,serif" font-size="14.00">DTEL&#45;BAPI_CONV</text>
</a>
</g>
</g>
<!-- TABL&#45;BAPITGA&#45;&gt;DTEL&#45;BAPI_CONV -->
<g id="edge6" class="edge">
<title>TABL&#45;BAPITGA&#45;&gt;DTEL&#45;BAPI_CONV</title>
<path fill="none" stroke="black" d="M553.16,-143.97C521.17,-134.06 480.67,-121.51 447.11,-111.12"/>
<polygon fill="black" stroke="black" points="447.98,-107.73 437.4,-108.11 445.91,-114.41 447.98,-107.73"/>
</g>
<!-- DTEL&#45;BAPI_STXT -->
<g id="node7" class="node">
<title>DTEL&#45;BAPI_STXT</title>
<g id="a_node7"><a xlink:href="./DTEL_BAPI_STXT.html" xlink:title="DTEL&#45;BAPI_STXT">
<polygon fill="none" stroke="green" points="598.46,-108 467.85,-108 467.85,-72 598.46,-72 598.46,-108"/>
<text text-anchor="middle" x="533.15" y="-85.8" font-family="Times,serif" font-size="14.00">DTEL&#45;BAPI_STXT</text>
</a>
</g>
</g>
<!-- TABL&#45;BAPITGA&#45;&gt;DTEL&#45;BAPI_STXT -->
<g id="edge5" class="edge">
<title>TABL&#45;BAPITGA&#45;&gt;DTEL&#45;BAPI_STXT</title>
<path fill="none" stroke="black" d="M589.61,-143.7C580.35,-135.05 568.99,-124.45 558.9,-115.03"/>
<polygon fill="black" stroke="black" points="561.18,-112.37 551.48,-108.1 556.4,-117.49 561.18,-112.37"/>
</g>
<!-- DTEL&#45;BAPI_LISTR -->
<g id="node9" class="node">
<title>DTEL&#45;BAPI_LISTR</title>
<g id="a_node9"><a xlink:href="./DTEL_BAPI_LISTR.html" xlink:title="DTEL&#45;BAPI_LISTR">
<polygon fill="none" stroke="green" points="750.35,-108 615.96,-108 615.96,-72 750.35,-72 750.35,-108"/>
<text text-anchor="middle" x="683.15" y="-85.8" font-family="Times,serif" font-size="14.00">DTEL&#45;BAPI_LISTR</text>
</a>
</g>
</g>
<!-- TABL&#45;BAPITGA&#45;&gt;DTEL&#45;BAPI_LISTR -->
<g id="edge4" class="edge">
<title>TABL&#45;BAPITGA&#45;&gt;DTEL&#45;BAPI_LISTR</title>
<path fill="none" stroke="black" d="M626.69,-143.7C635.96,-135.05 647.31,-124.45 657.41,-115.03"/>
<polygon fill="black" stroke="black" points="659.9,-117.49 664.83,-108.1 655.13,-112.37 659.9,-117.49"/>
</g>
<!-- DTEL&#45;BAPI_LFRMT -->
<g id="node11" class="node">
<title>DTEL&#45;BAPI_LFRMT</title>
<g id="a_node11"><a xlink:href="./DTEL_BAPI_LFRMT.html" xlink:title="DTEL&#45;BAPI_LFRMT">
<polygon fill="none" stroke="green" points="910.13,-108 768.17,-108 768.17,-72 910.13,-72 910.13,-108"/>
<text text-anchor="middle" x="839.15" y="-85.8" font-family="Times,serif" font-size="14.00">DTEL&#45;BAPI_LFRMT</text>
</a>
</g>
</g>
<!-- TABL&#45;BAPITGA&#45;&gt;DTEL&#45;BAPI_LFRMT -->
<g id="edge3" class="edge">
<title>TABL&#45;BAPITGA&#45;&gt;DTEL&#45;BAPI_LFRMT</title>
<path fill="none" stroke="black" d="M664.37,-143.97C697.06,-134.06 738.46,-121.51 772.75,-111.12"/>
<polygon fill="black" stroke="black" points="774.13,-114.36 782.69,-108.11 772.1,-107.66 774.13,-114.36"/>
</g>
<!-- DTEL&#45;BAPI_TFRMT -->
<g id="node13" class="node">
<title>DTEL&#45;BAPI_TFRMT</title>
<g id="a_node13"><a xlink:href="./DTEL_BAPI_TFRMT.html" xlink:title="DTEL&#45;BAPI_TFRMT">
<polygon fill="none" stroke="green" points="1070.13,-108 928.17,-108 928.17,-72 1070.13,-72 1070.13,-108"/>
<text text-anchor="middle" x="999.15" y="-85.8" font-family="Times,serif" font-size="14.00">DTEL&#45;BAPI_TFRMT</text>
</a>
</g>
</g>
<!-- TABL&#45;BAPITGA&#45;&gt;DTEL&#45;BAPI_TFRMT -->
<g id="edge2" class="edge">
<title>TABL&#45;BAPITGA&#45;&gt;DTEL&#45;BAPI_TFRMT</title>
<path fill="none" stroke="black" d="M667.03,-151.7C727.53,-141.97 824.68,-125.9 918.17,-108.15"/>
<polygon fill="black" stroke="black" points="918.92,-111.57 928.08,-106.26 917.6,-104.69 918.92,-111.57"/>
</g>
<!-- DTEL&#45;LANGU -->
<g id="node14" class="node">
<title>DTEL&#45;LANGU</title>
<g id="a_node14"><a xlink:href="./DTEL_LANGU.html" xlink:title="DTEL&#45;LANGU">
<polygon fill="none" stroke="yellow" points="1194.06,-108 1088.25,-108 1088.25,-72 1194.06,-72 1194.06,-108"/>
<text text-anchor="middle" x="1141.15" y="-85.8" font-family="Times,serif" font-size="14.00">DTEL&#45;LANGU</text>
</a>
</g>
</g>
<!-- TABL&#45;BAPITGA&#45;&gt;DTEL&#45;LANGU -->
<g id="edge1" class="edge">
<title>TABL&#45;BAPITGA&#45;&gt;DTEL&#45;LANGU</title>
<path fill="none" stroke="black" d="M667.34,-157.31C755.11,-151.18 924.99,-136.82 1078.12,-108.02"/>
<polygon fill="black" stroke="black" points="1079.01,-111.42 1088.18,-106.11 1077.7,-104.54 1079.01,-111.42"/>
</g>
<!-- DOMA&#45;W3_HTML -->
<g id="node3" class="node">
<title>DOMA&#45;W3_HTML</title>
<g id="a_node3"><a xlink:href="./DOMA_W3_HTML.html" xlink:title="DOMA&#45;W3_HTML">
<polygon fill="none" stroke="yellow" points="137.45,-36 6.86,-36 6.86,0 137.45,0 137.45,-36"/>
<text text-anchor="middle" x="72.15" y="-13.8" font-family="Times,serif" font-size="14.00">DOMA&#45;W3_HTML</text>
</a>
</g>
</g>
<!-- DTEL&#45;BAPI_LMASK&#45;&gt;DOMA&#45;W3_HTML -->
<g id="edge9" class="edge">
<title>DTEL&#45;BAPI_LMASK&#45;&gt;DOMA&#45;W3_HTML</title>
<path fill="none" stroke="black" d="M72.15,-71.7C72.15,-63.98 72.15,-54.71 72.15,-46.11"/>
<polygon fill="black" stroke="black" points="75.65,-46.1 72.15,-36.1 68.65,-46.1 75.65,-46.1"/>
</g>
<!-- DOMA&#45;SWC_BOOL -->
<g id="node5" class="node">
<title>DOMA&#45;SWC_BOOL</title>
<g id="a_node5"><a xlink:href="./DOMA_SWC_BOOL.html" xlink:title="DOMA&#45;SWC_BOOL">
<polygon fill="none" stroke="yellow" points="374.51,-36 235.79,-36 235.79,0 374.51,0 374.51,-36"/>
<text text-anchor="middle" x="305.15" y="-13.8" font-family="Times,serif" font-size="14.00">DOMA&#45;SWC_BOOL</text>
</a>
</g>
</g>
<!-- DTEL&#45;BAPI_BACK&#45;&gt;DOMA&#45;SWC_BOOL -->
<g id="edge10" class="edge">
<title>DTEL&#45;BAPI_BACK&#45;&gt;DOMA&#45;SWC_BOOL</title>
<path fill="none" stroke="black" d="M247.94,-71.7C257.33,-63.05 268.84,-52.45 279.07,-43.03"/>
<polygon fill="black" stroke="black" points="281.6,-45.45 286.58,-36.1 276.86,-40.3 281.6,-45.45"/>
</g>
<!-- DTEL&#45;BAPI_CONV&#45;&gt;DOMA&#45;SWC_BOOL -->
<g id="edge11" class="edge">
<title>DTEL&#45;BAPI_CONV&#45;&gt;DOMA&#45;SWC_BOOL</title>
<path fill="none" stroke="black" d="M363.12,-71.7C353.61,-63.05 341.95,-52.45 331.58,-43.03"/>
<polygon fill="black" stroke="black" points="333.72,-40.24 323.97,-36.1 329.01,-45.42 333.72,-40.24"/>
</g>
<!-- DOMA&#45;TEXT80 -->
<g id="node8" class="node">
<title>DOMA&#45;TEXT80</title>
<g id="a_node8"><a xlink:href="./DOMA_TEXT80.html" xlink:title="DOMA&#45;TEXT80">
<polygon fill="none" stroke="yellow" points="589.84,-36 476.46,-36 476.46,0 589.84,0 589.84,-36"/>
<text text-anchor="middle" x="533.15" y="-13.8" font-family="Times,serif" font-size="14.00">DOMA&#45;TEXT80</text>
</a>
</g>
</g>
<!-- DTEL&#45;BAPI_STXT&#45;&gt;DOMA&#45;TEXT80 -->
<g id="edge12" class="edge">
<title>DTEL&#45;BAPI_STXT&#45;&gt;DOMA&#45;TEXT80</title>
<path fill="none" stroke="black" d="M533.15,-71.7C533.15,-63.98 533.15,-54.71 533.15,-46.11"/>
<polygon fill="black" stroke="black" points="536.65,-46.1 533.15,-36.1 529.65,-46.1 536.65,-46.1"/>
</g>
<!-- DOMA&#45;BAPI_STRNG -->
<g id="node10" class="node">
<title>DOMA&#45;BAPI_STRNG</title>
<g id="a_node10"><a xlink:href="./DOMA_BAPI_STRNG.html" xlink:title="DOMA&#45;BAPI_STRNG">
<polygon fill="none" stroke="yellow" points="757.35,-36 608.96,-36 608.96,0 757.35,0 757.35,-36"/>
<text text-anchor="middle" x="683.15" y="-13.8" font-family="Times,serif" font-size="14.00">DOMA&#45;BAPI_STRNG</text>
</a>
</g>
</g>
<!-- DTEL&#45;BAPI_LISTR&#45;&gt;DOMA&#45;BAPI_STRNG -->
<g id="edge13" class="edge">
<title>DTEL&#45;BAPI_LISTR&#45;&gt;DOMA&#45;BAPI_STRNG</title>
<path fill="none" stroke="black" d="M683.15,-71.7C683.15,-63.98 683.15,-54.71 683.15,-46.11"/>
<polygon fill="black" stroke="black" points="686.65,-46.1 683.15,-36.1 679.65,-46.1 686.65,-46.1"/>
</g>
<!-- DOMA&#45;BAPI_TFRMT -->
<g id="node12" class="node">
<title>DOMA&#45;BAPI_TFRMT</title>
<g id="a_node12"><a xlink:href="./DOMA_BAPI_TFRMT.html" xlink:title="DOMA&#45;BAPI_TFRMT">
<polygon fill="none" stroke="yellow" points="997.63,-36 848.67,-36 848.67,0 997.63,0 997.63,-36"/>
<text text-anchor="middle" x="923.15" y="-13.8" font-family="Times,serif" font-size="14.00">DOMA&#45;BAPI_TFRMT</text>
</a>
</g>
</g>
<!-- DTEL&#45;BAPI_LFRMT&#45;&gt;DOMA&#45;BAPI_TFRMT -->
<g id="edge14" class="edge">
<title>DTEL&#45;BAPI_LFRMT&#45;&gt;DOMA&#45;BAPI_TFRMT</title>
<path fill="none" stroke="black" d="M859.92,-71.7C870.39,-62.97 883.26,-52.24 894.65,-42.75"/>
<polygon fill="black" stroke="black" points="897.19,-45.19 902.63,-36.1 892.7,-39.82 897.19,-45.19"/>
</g>
<!-- DTEL&#45;BAPI_TFRMT&#45;&gt;DOMA&#45;BAPI_TFRMT -->
<g id="edge15" class="edge">
<title>DTEL&#45;BAPI_TFRMT&#45;&gt;DOMA&#45;BAPI_TFRMT</title>
<path fill="none" stroke="black" d="M980.37,-71.7C970.98,-63.05 959.47,-52.45 949.24,-43.03"/>
<polygon fill="black" stroke="black" points="951.45,-40.3 941.72,-36.1 946.71,-45.45 951.45,-40.3"/>
</g>
<!-- DOMA&#45;SPRAS -->
<g id="node15" class="node">
<title>DOMA&#45;SPRAS</title>
<g id="a_node15"><a xlink:href="./DOMA_SPRAS.html" xlink:title="DOMA&#45;SPRAS">
<polygon fill="none" stroke="green" points="1194.37,-36 1087.94,-36 1087.94,0 1194.37,0 1194.37,-36"/>
<text text-anchor="middle" x="1141.15" y="-13.8" font-family="Times,serif" font-size="14.00">DOMA&#45;SPRAS</text>
</a>
</g>
</g>
<!-- DTEL&#45;LANGU&#45;&gt;DOMA&#45;SPRAS -->
<g id="edge16" class="edge">
<title>DTEL&#45;LANGU&#45;&gt;DOMA&#45;SPRAS</title>
<path fill="none" stroke="black" d="M1141.15,-71.7C1141.15,-63.98 1141.15,-54.71 1141.15,-46.11"/>
<polygon fill="black" stroke="black" points="1144.65,-46.1 1141.15,-36.1 1137.65,-46.1 1144.65,-46.1"/>
</g>
</g>
</svg>
