<?xml version="1.0" encoding="UTF-8" standalone="no"?>
<!DOCTYPE svg PUBLIC "-//W3C//DTD SVG 1.1//EN"
 "http://www.w3.org/Graphics/SVG/1.1/DTD/svg11.dtd">
<!-- Generated by graphviz version 2.47.3 (20210619.1520)
 -->
<!-- Title: G Pages: 1 -->
<svg width="1134pt" height="188pt"
 viewBox="0.00 0.00 1134.02 188.00" xmlns="http://www.w3.org/2000/svg" xmlns:xlink="http://www.w3.org/1999/xlink">
<g id="graph0" class="graph" transform="scale(1 1) rotate(0) translate(4 184)">
<title>G</title>
<polygon fill="white" stroke="transparent" points="-4,4 -4,-184 1130.02,-184 1130.02,4 -4,4"/>
<!-- TABL&#45;/IWBEP/I_CP_MOD -->
<g id="node1" class="node">
<title>TABL&#45;/IWBEP/I_CP_MOD</title>
<polygon fill="none" stroke="yellow" points="640.07,-180 463.12,-180 463.12,-144 640.07,-144 640.07,-180"/>
<text text-anchor="middle" x="551.59" y="-157.8" font-family="Times,serif" font-size="14.00">TABL&#45;/IWBEP/I_CP_MOD</text>
</g>
<!-- DTEL&#45;/IWBEP/CP_PROXY_MODEL_DESCR -->
<g id="node2" class="node">
<title>DTEL&#45;/IWBEP/CP_PROXY_MODEL_DESCR</title>
<g id="a_node2"><a xlink:href="./DTEL_%23IWBEP%23CP_PROXY_MODEL_DESCR.html" xlink:title="DTEL&#45;/IWBEP/CP_PROXY_MODEL_DESCR">
<polygon fill="none" stroke="yellow" points="291.78,-108 3.41,-108 3.41,-72 291.78,-72 291.78,-108"/>
<text text-anchor="middle" x="147.59" y="-85.8" font-family="Times,serif" font-size="14.00">DTEL&#45;/IWBEP/CP_PROXY_MODEL_DESCR</text>
</a>
</g>
</g>
<!-- TABL&#45;/IWBEP/I_CP_MOD&#45;&gt;DTEL&#45;/IWBEP/CP_PROXY_MODEL_DESCR -->
<g id="edge4" class="edge">
<title>TABL&#45;/IWBEP/I_CP_MOD&#45;&gt;DTEL&#45;/IWBEP/CP_PROXY_MODEL_DESCR</title>
<path fill="none" stroke="black" d="M462.94,-145.64C402.08,-135.09 320.94,-121.04 256.21,-109.82"/>
<polygon fill="black" stroke="black" points="256.41,-106.3 245.96,-108.04 255.22,-113.2 256.41,-106.3"/>
</g>
<!-- DTEL&#45;/IWBEP/CP_MPC_NAME -->
<g id="node4" class="node">
<title>DTEL&#45;/IWBEP/CP_MPC_NAME</title>
<g id="a_node4"><a xlink:href="./DTEL_%23IWBEP%23CP_MPC_NAME.html" xlink:title="DTEL&#45;/IWBEP/CP_MPC_NAME">
<polygon fill="none" stroke="yellow" points="519.24,-108 309.95,-108 309.95,-72 519.24,-72 519.24,-108"/>
<text text-anchor="middle" x="414.59" y="-85.8" font-family="Times,serif" font-size="14.00">DTEL&#45;/IWBEP/CP_MPC_NAME</text>
</a>
</g>
</g>
<!-- TABL&#45;/IWBEP/I_CP_MOD&#45;&gt;DTEL&#45;/IWBEP/CP_MPC_NAME -->
<g id="edge3" class="edge">
<title>TABL&#45;/IWBEP/I_CP_MOD&#45;&gt;DTEL&#45;/IWBEP/CP_MPC_NAME</title>
<path fill="none" stroke="black" d="M518.08,-143.88C499.75,-134.51 476.86,-122.81 457.27,-112.8"/>
<polygon fill="black" stroke="black" points="458.73,-109.62 448.24,-108.19 455.55,-115.86 458.73,-109.62"/>
</g>
<!-- DTEL&#45;/IWBEP/CP_PROXY_MODEL_VERSION -->
<g id="node6" class="node">
<title>DTEL&#45;/IWBEP/CP_PROXY_MODEL_VERSION</title>
<g id="a_node6"><a xlink:href="./DTEL_%23IWBEP%23CP_PROXY_MODEL_VERSION.html" xlink:title="DTEL&#45;/IWBEP/CP_PROXY_MODEL_VERSION">
<polygon fill="none" stroke="yellow" points="841.32,-108 537.87,-108 537.87,-72 841.32,-72 841.32,-108"/>
<text text-anchor="middle" x="689.59" y="-85.8" font-family="Times,serif" font-size="14.00">DTEL&#45;/IWBEP/CP_PROXY_MODEL_VERSION</text>
</a>
</g>
</g>
<!-- TABL&#45;/IWBEP/I_CP_MOD&#45;&gt;DTEL&#45;/IWBEP/CP_PROXY_MODEL_VERSION -->
<g id="edge2" class="edge">
<title>TABL&#45;/IWBEP/I_CP_MOD&#45;&gt;DTEL&#45;/IWBEP/CP_PROXY_MODEL_VERSION</title>
<path fill="none" stroke="black" d="M585.35,-143.88C603.81,-134.51 626.88,-122.81 646.61,-112.8"/>
<polygon fill="black" stroke="black" points="648.37,-115.83 655.71,-108.19 645.2,-109.59 648.37,-115.83"/>
</g>
<!-- DTEL&#45;/IWBEP/CP_PROXY_MODEL_ID -->
<g id="node8" class="node">
<title>DTEL&#45;/IWBEP/CP_PROXY_MODEL_ID</title>
<g id="a_node8"><a xlink:href="./DTEL_%23IWBEP%23CP_PROXY_MODEL_ID.html" xlink:title="DTEL&#45;/IWBEP/CP_PROXY_MODEL_ID">
<polygon fill="none" stroke="yellow" points="1120.44,-108 862.75,-108 862.75,-72 1120.44,-72 1120.44,-108"/>
<text text-anchor="middle" x="991.59" y="-85.8" font-family="Times,serif" font-size="14.00">DTEL&#45;/IWBEP/CP_PROXY_MODEL_ID</text>
</a>
</g>
</g>
<!-- TABL&#45;/IWBEP/I_CP_MOD&#45;&gt;DTEL&#45;/IWBEP/CP_PROXY_MODEL_ID -->
<g id="edge1" class="edge">
<title>TABL&#45;/IWBEP/I_CP_MOD&#45;&gt;DTEL&#45;/IWBEP/CP_PROXY_MODEL_ID</title>
<path fill="none" stroke="black" d="M640.11,-146.92C707.46,-136.2 800.77,-121.36 874.33,-109.66"/>
<polygon fill="black" stroke="black" points="875.25,-113.05 884.58,-108.03 874.15,-106.14 875.25,-113.05"/>
</g>
<!-- DOMA&#45;/IWBEP/CP_PROXY_MODEL_DESCR -->
<g id="node3" class="node">
<title>DOMA&#45;/IWBEP/CP_PROXY_MODEL_DESCR</title>
<g id="a_node3"><a xlink:href="./DOMA_%23IWBEP%23CP_PROXY_MODEL_DESCR.html" xlink:title="DOMA&#45;/IWBEP/CP_PROXY_MODEL_DESCR">
<polygon fill="none" stroke="yellow" points="295.28,-36 -0.09,-36 -0.09,0 295.28,0 295.28,-36"/>
<text text-anchor="middle" x="147.59" y="-13.8" font-family="Times,serif" font-size="14.00">DOMA&#45;/IWBEP/CP_PROXY_MODEL_DESCR</text>
</a>
</g>
</g>
<!-- DTEL&#45;/IWBEP/CP_PROXY_MODEL_DESCR&#45;&gt;DOMA&#45;/IWBEP/CP_PROXY_MODEL_DESCR -->
<g id="edge5" class="edge">
<title>DTEL&#45;/IWBEP/CP_PROXY_MODEL_DESCR&#45;&gt;DOMA&#45;/IWBEP/CP_PROXY_MODEL_DESCR</title>
<path fill="none" stroke="black" d="M147.59,-71.7C147.59,-63.98 147.59,-54.71 147.59,-46.11"/>
<polygon fill="black" stroke="black" points="151.09,-46.1 147.59,-36.1 144.09,-46.1 151.09,-46.1"/>
</g>
<!-- DOMA&#45;SEOCLSNAME -->
<g id="node5" class="node">
<title>DOMA&#45;SEOCLSNAME</title>
<g id="a_node5"><a xlink:href="./DOMA_SEOCLSNAME.html" xlink:title="DOMA&#45;SEOCLSNAME">
<polygon fill="none" stroke="yellow" points="492.84,-36 336.35,-36 336.35,0 492.84,0 492.84,-36"/>
<text text-anchor="middle" x="414.59" y="-13.8" font-family="Times,serif" font-size="14.00">DOMA&#45;SEOCLSNAME</text>
</a>
</g>
</g>
<!-- DTEL&#45;/IWBEP/CP_MPC_NAME&#45;&gt;DOMA&#45;SEOCLSNAME -->
<g id="edge6" class="edge">
<title>DTEL&#45;/IWBEP/CP_MPC_NAME&#45;&gt;DOMA&#45;SEOCLSNAME</title>
<path fill="none" stroke="black" d="M414.59,-71.7C414.59,-63.98 414.59,-54.71 414.59,-46.11"/>
<polygon fill="black" stroke="black" points="418.09,-46.1 414.59,-36.1 411.09,-46.1 418.09,-46.1"/>
</g>
<!-- DOMA&#45;/IWBEP/CP_PROXY_MODEL_VERSION -->
<g id="node7" class="node">
<title>DOMA&#45;/IWBEP/CP_PROXY_MODEL_VERSION</title>
<g id="a_node7"><a xlink:href="./DOMA_%23IWBEP%23CP_PROXY_MODEL_VERSION.html" xlink:title="DOMA&#45;/IWBEP/CP_PROXY_MODEL_VERSION">
<polygon fill="none" stroke="yellow" points="842.82,-36 532.37,-36 532.37,0 842.82,0 842.82,-36"/>
<text text-anchor="middle" x="687.59" y="-13.8" font-family="Times,serif" font-size="14.00">DOMA&#45;/IWBEP/CP_PROXY_MODEL_VERSION</text>
</a>
</g>
</g>
<!-- DTEL&#45;/IWBEP/CP_PROXY_MODEL_VERSION&#45;&gt;DOMA&#45;/IWBEP/CP_PROXY_MODEL_VERSION -->
<g id="edge7" class="edge">
<title>DTEL&#45;/IWBEP/CP_PROXY_MODEL_VERSION&#45;&gt;DOMA&#45;/IWBEP/CP_PROXY_MODEL_VERSION</title>
<path fill="none" stroke="black" d="M689.1,-71.7C688.88,-63.98 688.62,-54.71 688.37,-46.11"/>
<polygon fill="black" stroke="black" points="691.87,-46 688.08,-36.1 684.87,-46.2 691.87,-46"/>
</g>
<!-- DOMA&#45;/IWBEP/CP_PROXY_MODEL_ID -->
<g id="node9" class="node">
<title>DOMA&#45;/IWBEP/CP_PROXY_MODEL_ID</title>
<g id="a_node9"><a xlink:href="./DOMA_%23IWBEP%23CP_PROXY_MODEL_ID.html" xlink:title="DOMA&#45;/IWBEP/CP_PROXY_MODEL_ID">
<polygon fill="none" stroke="yellow" points="1125.94,-36 861.25,-36 861.25,0 1125.94,0 1125.94,-36"/>
<text text-anchor="middle" x="993.59" y="-13.8" font-family="Times,serif" font-size="14.00">DOMA&#45;/IWBEP/CP_PROXY_MODEL_ID</text>
</a>
</g>
</g>
<!-- DTEL&#45;/IWBEP/CP_PROXY_MODEL_ID&#45;&gt;DOMA&#45;/IWBEP/CP_PROXY_MODEL_ID -->
<g id="edge8" class="edge">
<title>DTEL&#45;/IWBEP/CP_PROXY_MODEL_ID&#45;&gt;DOMA&#45;/IWBEP/CP_PROXY_MODEL_ID</title>
<path fill="none" stroke="black" d="M992.09,-71.7C992.31,-63.98 992.57,-54.71 992.82,-46.11"/>
<polygon fill="black" stroke="black" points="996.32,-46.2 993.11,-36.1 989.32,-46 996.32,-46.2"/>
</g>
</g>
</svg>
