<?xml version="1.0" encoding="UTF-8" standalone="no"?>
<!DOCTYPE svg PUBLIC "-//W3C//DTD SVG 1.1//EN"
 "http://www.w3.org/Graphics/SVG/1.1/DTD/svg11.dtd">
<!-- Generated by graphviz version 2.47.3 (20210619.1520)
 -->
<!-- Title: G Pages: 1 -->
<svg width="410pt" height="188pt"
 viewBox="0.00 0.00 410.08 188.00" xmlns="http://www.w3.org/2000/svg" xmlns:xlink="http://www.w3.org/1999/xlink">
<g id="graph0" class="graph" transform="scale(1 1) rotate(0) translate(4 184)">
<title>G</title>
<polygon fill="white" stroke="transparent" points="-4,4 -4,-184 406.08,-184 406.08,4 -4,4"/>
<!-- TABL&#45;CDUSERNAME_RANGE -->
<g id="node1" class="node">
<title>TABL&#45;CDUSERNAME_RANGE</title>
<polygon fill="none" stroke="yellow" points="326.78,-180 118.08,-180 118.08,-144 326.78,-144 326.78,-180"/>
<text text-anchor="middle" x="222.43" y="-157.8" font-family="Times,serif" font-size="14.00">TABL&#45;CDUSERNAME_RANGE</text>
</g>
<!-- DTEL&#45;CDUSERNAME -->
<g id="node2" class="node">
<title>DTEL&#45;CDUSERNAME</title>
<g id="a_node2"><a xlink:href="./DTEL_CDUSERNAME.html" xlink:title="DTEL&#45;CDUSERNAME">
<polygon fill="none" stroke="yellow" points="152.79,-108 0.07,-108 0.07,-72 152.79,-72 152.79,-108"/>
<text text-anchor="middle" x="76.43" y="-85.8" font-family="Times,serif" font-size="14.00">DTEL&#45;CDUSERNAME</text>
</a>
</g>
</g>
<!-- TABL&#45;CDUSERNAME_RANGE&#45;&gt;DTEL&#45;CDUSERNAME -->
<g id="edge3" class="edge">
<title>TABL&#45;CDUSERNAME_RANGE&#45;&gt;DTEL&#45;CDUSERNAME</title>
<path fill="none" stroke="black" d="M186.71,-143.88C166.93,-134.39 142.16,-122.51 121.1,-112.42"/>
<polygon fill="black" stroke="black" points="122.56,-109.24 112.03,-108.07 119.53,-115.55 122.56,-109.24"/>
</g>
<!-- DTEL&#45;CHAR2 -->
<g id="node4" class="node">
<title>DTEL&#45;CHAR2</title>
<g id="a_node4"><a xlink:href="./DTEL_CHAR2.html" xlink:title="DTEL&#45;CHAR2">
<polygon fill="none" stroke="yellow" points="273.74,-108 171.12,-108 171.12,-72 273.74,-72 273.74,-108"/>
<text text-anchor="middle" x="222.43" y="-85.8" font-family="Times,serif" font-size="14.00">DTEL&#45;CHAR2</text>
</a>
</g>
</g>
<!-- TABL&#45;CDUSERNAME_RANGE&#45;&gt;DTEL&#45;CHAR2 -->
<g id="edge2" class="edge">
<title>TABL&#45;CDUSERNAME_RANGE&#45;&gt;DTEL&#45;CHAR2</title>
<path fill="none" stroke="black" d="M222.43,-143.7C222.43,-135.98 222.43,-126.71 222.43,-118.11"/>
<polygon fill="black" stroke="black" points="225.93,-118.1 222.43,-108.1 218.93,-118.1 225.93,-118.1"/>
</g>
<!-- DTEL&#45;CHAR1 -->
<g id="node6" class="node">
<title>DTEL&#45;CHAR1</title>
<g id="a_node6"><a xlink:href="./DTEL_CHAR1.html" xlink:title="DTEL&#45;CHAR1">
<polygon fill="none" stroke="yellow" points="396.74,-108 294.12,-108 294.12,-72 396.74,-72 396.74,-108"/>
<text text-anchor="middle" x="345.43" y="-85.8" font-family="Times,serif" font-size="14.00">DTEL&#45;CHAR1</text>
</a>
</g>
</g>
<!-- TABL&#45;CDUSERNAME_RANGE&#45;&gt;DTEL&#45;CHAR1 -->
<g id="edge1" class="edge">
<title>TABL&#45;CDUSERNAME_RANGE&#45;&gt;DTEL&#45;CHAR1</title>
<path fill="none" stroke="black" d="M252.52,-143.88C268.75,-134.64 288.97,-123.13 306.4,-113.21"/>
<polygon fill="black" stroke="black" points="308.26,-116.18 315.22,-108.19 304.8,-110.09 308.26,-116.18"/>
</g>
<!-- DOMA&#45;CHAR12 -->
<g id="node3" class="node">
<title>DOMA&#45;CHAR12</title>
<g id="a_node3"><a xlink:href="./DOMA_CHAR12.html" xlink:title="DOMA&#45;CHAR12">
<polygon fill="none" stroke="yellow" points="134.74,-36 18.12,-36 18.12,0 134.74,0 134.74,-36"/>
<text text-anchor="middle" x="76.43" y="-13.8" font-family="Times,serif" font-size="14.00">DOMA&#45;CHAR12</text>
</a>
</g>
</g>
<!-- DTEL&#45;CDUSERNAME&#45;&gt;DOMA&#45;CHAR12 -->
<g id="edge4" class="edge">
<title>DTEL&#45;CDUSERNAME&#45;&gt;DOMA&#45;CHAR12</title>
<path fill="none" stroke="black" d="M76.43,-71.7C76.43,-63.98 76.43,-54.71 76.43,-46.11"/>
<polygon fill="black" stroke="black" points="79.93,-46.1 76.43,-36.1 72.93,-46.1 79.93,-46.1"/>
</g>
<!-- DOMA&#45;CHAR2 -->
<g id="node5" class="node">
<title>DOMA&#45;CHAR2</title>
<g id="a_node5"><a xlink:href="./DOMA_CHAR2.html" xlink:title="DOMA&#45;CHAR2">
<polygon fill="none" stroke="yellow" points="275.24,-36 165.62,-36 165.62,0 275.24,0 275.24,-36"/>
<text text-anchor="middle" x="220.43" y="-13.8" font-family="Times,serif" font-size="14.00">DOMA&#45;CHAR2</text>
</a>
</g>
</g>
<!-- DTEL&#45;CHAR2&#45;&gt;DOMA&#45;CHAR2 -->
<g id="edge5" class="edge">
<title>DTEL&#45;CHAR2&#45;&gt;DOMA&#45;CHAR2</title>
<path fill="none" stroke="black" d="M221.93,-71.7C221.71,-63.98 221.45,-54.71 221.2,-46.11"/>
<polygon fill="black" stroke="black" points="224.7,-46 220.92,-36.1 217.7,-46.2 224.7,-46"/>
</g>
<!-- DOMA&#45;CHAR1 -->
<g id="node7" class="node">
<title>DOMA&#45;CHAR1</title>
<g id="a_node7"><a xlink:href="./DOMA_CHAR1.html" xlink:title="DOMA&#45;CHAR1">
<polygon fill="none" stroke="green" points="402.24,-36 292.62,-36 292.62,0 402.24,0 402.24,-36"/>
<text text-anchor="middle" x="347.43" y="-13.8" font-family="Times,serif" font-size="14.00">DOMA&#45;CHAR1</text>
</a>
</g>
</g>
<!-- DTEL&#45;CHAR1&#45;&gt;DOMA&#45;CHAR1 -->
<g id="edge6" class="edge">
<title>DTEL&#45;CHAR1&#45;&gt;DOMA&#45;CHAR1</title>
<path fill="none" stroke="black" d="M345.92,-71.7C346.14,-63.98 346.41,-54.71 346.65,-46.11"/>
<polygon fill="black" stroke="black" points="350.15,-46.2 346.94,-36.1 343.16,-46 350.15,-46.2"/>
</g>
</g>
</svg>
