<?xml version="1.0" encoding="UTF-8" standalone="no"?>
<!DOCTYPE svg PUBLIC "-//W3C//DTD SVG 1.1//EN"
 "http://www.w3.org/Graphics/SVG/1.1/DTD/svg11.dtd">
<!-- Generated by graphviz version 2.47.3 (20210619.1520)
 -->
<!-- Title: G Pages: 1 -->
<svg width="2192pt" height="188pt"
 viewBox="0.00 0.00 2192.12 188.00" xmlns="http://www.w3.org/2000/svg" xmlns:xlink="http://www.w3.org/1999/xlink">
<g id="graph0" class="graph" transform="scale(1 1) rotate(0) translate(4 184)">
<title>G</title>
<polygon fill="white" stroke="transparent" points="-4,4 -4,-184 2188.12,-184 2188.12,4 -4,4"/>
<!-- TABL&#45;TCDRP -->
<g id="node1" class="node">
<title>TABL&#45;TCDRP</title>
<polygon fill="none" stroke="yellow" points="1195.9,-180 1093.25,-180 1093.25,-144 1195.9,-144 1195.9,-180"/>
<text text-anchor="middle" x="1144.58" y="-157.8" font-family="Times,serif" font-size="14.00">TABL&#45;TCDRP</text>
</g>
<!-- DTEL&#45;ABAP_LANGUAGE_VERSION -->
<g id="node2" class="node">
<title>DTEL&#45;ABAP_LANGUAGE_VERSION</title>
<g id="a_node2"><a xlink:href="./DTEL_ABAP_LANGUAGE_VERSION.html" xlink:title="DTEL&#45;ABAP_LANGUAGE_VERSION">
<polygon fill="none" stroke="yellow" points="252.73,-108 6.42,-108 6.42,-72 252.73,-72 252.73,-108"/>
<text text-anchor="middle" x="129.58" y="-85.8" font-family="Times,serif" font-size="14.00">DTEL&#45;ABAP_LANGUAGE_VERSION</text>
</a>
</g>
</g>
<!-- TABL&#45;TCDRP&#45;&gt;DTEL&#45;ABAP_LANGUAGE_VERSION -->
<g id="edge14" class="edge">
<title>TABL&#45;TCDRP&#45;&gt;DTEL&#45;ABAP_LANGUAGE_VERSION</title>
<path fill="none" stroke="black" d="M1093.22,-159.14C958.69,-154.01 584.7,-138.07 262.85,-108.08"/>
<polygon fill="black" stroke="black" points="263.14,-104.6 252.86,-107.15 262.49,-111.56 263.14,-104.6"/>
</g>
<!-- DTEL&#45;CDDATAGEN -->
<g id="node4" class="node">
<title>DTEL&#45;CDDATAGEN</title>
<g id="a_node4"><a xlink:href="./DTEL_CDDATAGEN.html" xlink:title="DTEL&#45;CDDATAGEN">
<polygon fill="none" stroke="yellow" points="414.08,-108 271.07,-108 271.07,-72 414.08,-72 414.08,-108"/>
<text text-anchor="middle" x="342.58" y="-85.8" font-family="Times,serif" font-size="14.00">DTEL&#45;CDDATAGEN</text>
</a>
</g>
</g>
<!-- TABL&#45;TCDRP&#45;&gt;DTEL&#45;CDDATAGEN -->
<g id="edge13" class="edge">
<title>TABL&#45;TCDRP&#45;&gt;DTEL&#45;CDDATAGEN</title>
<path fill="none" stroke="black" d="M1093.11,-159.63C975.95,-155.98 680.3,-143.87 424.68,-108.2"/>
<polygon fill="black" stroke="black" points="424.84,-104.69 414.45,-106.76 423.87,-111.62 424.84,-104.69"/>
</g>
<!-- DTEL&#45;CDUPDATE -->
<g id="node6" class="node">
<title>DTEL&#45;CDUPDATE</title>
<g id="a_node6"><a xlink:href="./DTEL_CDUPDATE.html" xlink:title="DTEL&#45;CDUPDATE">
<polygon fill="none" stroke="yellow" points="563.15,-108 432,-108 432,-72 563.15,-72 563.15,-108"/>
<text text-anchor="middle" x="497.58" y="-85.8" font-family="Times,serif" font-size="14.00">DTEL&#45;CDUPDATE</text>
</a>
</g>
</g>
<!-- TABL&#45;TCDRP&#45;&gt;DTEL&#45;CDUPDATE -->
<g id="edge12" class="edge">
<title>TABL&#45;TCDRP&#45;&gt;DTEL&#45;CDUPDATE</title>
<path fill="none" stroke="black" d="M1093.41,-158.5C994.69,-153.2 771,-138.82 573.32,-107.99"/>
<polygon fill="black" stroke="black" points="573.76,-104.52 563.33,-106.41 572.67,-111.43 573.76,-104.52"/>
</g>
<!-- DTEL&#45;CDDEVCLASS -->
<g id="node8" class="node">
<title>DTEL&#45;CDDEVCLASS</title>
<g id="a_node8"><a xlink:href="./DTEL_CDDEVCLASS.html" xlink:title="DTEL&#45;CDDEVCLASS">
<polygon fill="none" stroke="yellow" points="729.77,-108 581.38,-108 581.38,-72 729.77,-72 729.77,-108"/>
<text text-anchor="middle" x="655.58" y="-85.8" font-family="Times,serif" font-size="14.00">DTEL&#45;CDDEVCLASS</text>
</a>
</g>
</g>
<!-- TABL&#45;TCDRP&#45;&gt;DTEL&#45;CDDEVCLASS -->
<g id="edge11" class="edge">
<title>TABL&#45;TCDRP&#45;&gt;DTEL&#45;CDDEVCLASS</title>
<path fill="none" stroke="black" d="M1093.13,-155.49C1017.77,-147.15 872.77,-130.11 739.71,-108.13"/>
<polygon fill="black" stroke="black" points="740.18,-104.66 729.74,-106.47 739.03,-111.56 740.18,-104.66"/>
</g>
<!-- DTEL&#45;CDPREFIX -->
<g id="node10" class="node">
<title>DTEL&#45;CDPREFIX</title>
<g id="a_node10"><a xlink:href="./DTEL_CDPREFIX.html" xlink:title="DTEL&#45;CDPREFIX">
<polygon fill="none" stroke="yellow" points="871.67,-108 747.49,-108 747.49,-72 871.67,-72 871.67,-108"/>
<text text-anchor="middle" x="809.58" y="-85.8" font-family="Times,serif" font-size="14.00">DTEL&#45;CDPREFIX</text>
</a>
</g>
</g>
<!-- TABL&#45;TCDRP&#45;&gt;DTEL&#45;CDPREFIX -->
<g id="edge10" class="edge">
<title>TABL&#45;TCDRP&#45;&gt;DTEL&#45;CDPREFIX</title>
<path fill="none" stroke="black" d="M1093.36,-151.3C1042.27,-141.49 961.29,-125.59 882.04,-108.28"/>
<polygon fill="black" stroke="black" points="882.4,-104.78 871.89,-106.06 880.9,-111.62 882.4,-104.78"/>
</g>
<!-- DTEL&#45;CDFGRP -->
<g id="node12" class="node">
<title>DTEL&#45;CDFGRP</title>
<g id="a_node12"><a xlink:href="./DTEL_CDFGRP.html" xlink:title="DTEL&#45;CDFGRP">
<polygon fill="none" stroke="yellow" points="999.95,-108 889.2,-108 889.2,-72 999.95,-72 999.95,-108"/>
<text text-anchor="middle" x="944.58" y="-85.8" font-family="Times,serif" font-size="14.00">DTEL&#45;CDFGRP</text>
</a>
</g>
</g>
<!-- TABL&#45;TCDRP&#45;&gt;DTEL&#45;CDFGRP -->
<g id="edge9" class="edge">
<title>TABL&#45;TCDRP&#45;&gt;DTEL&#45;CDFGRP</title>
<path fill="none" stroke="black" d="M1095.91,-143.97C1067.96,-134.19 1032.68,-121.84 1003.22,-111.52"/>
<polygon fill="black" stroke="black" points="1004.06,-108.11 993.47,-108.11 1001.75,-114.72 1004.06,-108.11"/>
</g>
<!-- DTEL&#45;CDFMNR -->
<g id="node14" class="node">
<title>DTEL&#45;CDFMNR</title>
<g id="a_node14"><a xlink:href="./DTEL_CDFMNR.html" xlink:title="DTEL&#45;CDFMNR">
<polygon fill="none" stroke="yellow" points="1133.12,-108 1018.04,-108 1018.04,-72 1133.12,-72 1133.12,-108"/>
<text text-anchor="middle" x="1075.58" y="-85.8" font-family="Times,serif" font-size="14.00">DTEL&#45;CDFMNR</text>
</a>
</g>
</g>
<!-- TABL&#45;TCDRP&#45;&gt;DTEL&#45;CDFMNR -->
<g id="edge8" class="edge">
<title>TABL&#45;TCDRP&#45;&gt;DTEL&#45;CDFMNR</title>
<path fill="none" stroke="black" d="M1127.52,-143.7C1119.08,-135.14 1108.75,-124.66 1099.53,-115.3"/>
<polygon fill="black" stroke="black" points="1101.95,-112.77 1092.44,-108.1 1096.96,-117.68 1101.95,-112.77"/>
</g>
<!-- DTEL&#45;CDARBGB -->
<g id="node16" class="node">
<title>DTEL&#45;CDARBGB</title>
<g id="a_node16"><a xlink:href="./DTEL_CDARBGB.html" xlink:title="DTEL&#45;CDARBGB">
<polygon fill="none" stroke="yellow" points="1275.67,-108 1151.49,-108 1151.49,-72 1275.67,-72 1275.67,-108"/>
<text text-anchor="middle" x="1213.58" y="-85.8" font-family="Times,serif" font-size="14.00">DTEL&#45;CDARBGB</text>
</a>
</g>
</g>
<!-- TABL&#45;TCDRP&#45;&gt;DTEL&#45;CDARBGB -->
<g id="edge7" class="edge">
<title>TABL&#45;TCDRP&#45;&gt;DTEL&#45;CDARBGB</title>
<path fill="none" stroke="black" d="M1161.63,-143.7C1170.07,-135.14 1180.4,-124.66 1189.62,-115.3"/>
<polygon fill="black" stroke="black" points="1192.19,-117.68 1196.72,-108.1 1187.2,-112.77 1192.19,-117.68"/>
</g>
<!-- DTEL&#45;CDTEXTCASE -->
<g id="node18" class="node">
<title>DTEL&#45;CDTEXTCASE</title>
<g id="a_node18"><a xlink:href="./DTEL_CDTEXTCASE.html" xlink:title="DTEL&#45;CDTEXTCASE">
<polygon fill="none" stroke="yellow" points="1441.49,-108 1293.67,-108 1293.67,-72 1441.49,-72 1441.49,-108"/>
<text text-anchor="middle" x="1367.58" y="-85.8" font-family="Times,serif" font-size="14.00">DTEL&#45;CDTEXTCASE</text>
</a>
</g>
</g>
<!-- TABL&#45;TCDRP&#45;&gt;DTEL&#45;CDTEXTCASE -->
<g id="edge6" class="edge">
<title>TABL&#45;TCDRP&#45;&gt;DTEL&#45;CDTEXTCASE</title>
<path fill="none" stroke="black" d="M1196.02,-144.85C1227.98,-134.82 1269.32,-121.84 1303.42,-111.14"/>
<polygon fill="black" stroke="black" points="1304.79,-114.38 1313.28,-108.04 1302.7,-107.7 1304.79,-114.38"/>
</g>
<!-- DTEL&#45;CDUZEIT -->
<g id="node20" class="node">
<title>DTEL&#45;CDUZEIT</title>
<g id="a_node20"><a xlink:href="./DTEL_CDUZEIT.html" xlink:title="DTEL&#45;CDUZEIT">
<polygon fill="none" stroke="yellow" points="1575.87,-108 1459.28,-108 1459.28,-72 1575.87,-72 1575.87,-108"/>
<text text-anchor="middle" x="1517.58" y="-85.8" font-family="Times,serif" font-size="14.00">DTEL&#45;CDUZEIT</text>
</a>
</g>
</g>
<!-- TABL&#45;TCDRP&#45;&gt;DTEL&#45;CDUZEIT -->
<g id="edge5" class="edge">
<title>TABL&#45;TCDRP&#45;&gt;DTEL&#45;CDUZEIT</title>
<path fill="none" stroke="black" d="M1195.97,-153.34C1254.87,-144.28 1354.49,-128.12 1449.15,-108.23"/>
<polygon fill="black" stroke="black" points="1450.12,-111.6 1459.17,-106.1 1448.67,-104.75 1450.12,-111.6"/>
</g>
<!-- DTEL&#45;CDDATUM -->
<g id="node22" class="node">
<title>DTEL&#45;CDDATUM</title>
<g id="a_node22"><a xlink:href="./DTEL_CDDATUM.html" xlink:title="DTEL&#45;CDDATUM">
<polygon fill="none" stroke="yellow" points="1721.26,-108 1593.89,-108 1593.89,-72 1721.26,-72 1721.26,-108"/>
<text text-anchor="middle" x="1657.58" y="-85.8" font-family="Times,serif" font-size="14.00">DTEL&#45;CDDATUM</text>
</a>
</g>
</g>
<!-- TABL&#45;TCDRP&#45;&gt;DTEL&#45;CDDATUM -->
<g id="edge4" class="edge">
<title>TABL&#45;TCDRP&#45;&gt;DTEL&#45;CDDATUM</title>
<path fill="none" stroke="black" d="M1195.99,-156.64C1276.54,-149.4 1437.52,-133.33 1583.89,-108.01"/>
<polygon fill="black" stroke="black" points="1584.71,-111.42 1593.96,-106.25 1583.51,-104.52 1584.71,-111.42"/>
</g>
<!-- DTEL&#45;USERNAME -->
<g id="node24" class="node">
<title>DTEL&#45;USERNAME</title>
<g id="a_node24"><a xlink:href="./DTEL_USERNAME.html" xlink:title="DTEL&#45;USERNAME">
<polygon fill="none" stroke="yellow" points="1872.49,-108 1738.66,-108 1738.66,-72 1872.49,-72 1872.49,-108"/>
<text text-anchor="middle" x="1805.58" y="-85.8" font-family="Times,serif" font-size="14.00">DTEL&#45;USERNAME</text>
</a>
</g>
</g>
<!-- TABL&#45;TCDRP&#45;&gt;DTEL&#45;USERNAME -->
<g id="edge3" class="edge">
<title>TABL&#45;TCDRP&#45;&gt;DTEL&#45;USERNAME</title>
<path fill="none" stroke="black" d="M1195.81,-158.66C1296.37,-153.56 1526.74,-139.44 1728.7,-108.19"/>
<polygon fill="black" stroke="black" points="1729.27,-111.65 1738.6,-106.64 1728.18,-104.73 1729.27,-111.65"/>
</g>
<!-- DTEL&#45;CDREPORT -->
<g id="node26" class="node">
<title>DTEL&#45;CDREPORT</title>
<g id="a_node26"><a xlink:href="./DTEL_CDREPORT.html" xlink:title="DTEL&#45;CDREPORT">
<polygon fill="none" stroke="yellow" points="2020.11,-108 1891.04,-108 1891.04,-72 2020.11,-72 2020.11,-108"/>
<text text-anchor="middle" x="1955.58" y="-85.8" font-family="Times,serif" font-size="14.00">DTEL&#45;CDREPORT</text>
</a>
</g>
</g>
<!-- TABL&#45;TCDRP&#45;&gt;DTEL&#45;CDREPORT -->
<g id="edge2" class="edge">
<title>TABL&#45;TCDRP&#45;&gt;DTEL&#45;CDREPORT</title>
<path fill="none" stroke="black" d="M1195.81,-160.03C1314.6,-157.19 1618.11,-146.6 1880.61,-108"/>
<polygon fill="black" stroke="black" points="1881.34,-111.43 1890.71,-106.5 1880.31,-104.51 1881.34,-111.43"/>
</g>
<!-- DTEL&#45;CDOBJECTCL -->
<g id="node28" class="node">
<title>DTEL&#45;CDOBJECTCL</title>
<g id="a_node28"><a xlink:href="./DTEL_CDOBJECTCL.html" xlink:title="DTEL&#45;CDOBJECTCL">
<polygon fill="none" stroke="yellow" points="2184.16,-108 2038.99,-108 2038.99,-72 2184.16,-72 2184.16,-108"/>
<text text-anchor="middle" x="2111.58" y="-85.8" font-family="Times,serif" font-size="14.00">DTEL&#45;CDOBJECTCL</text>
</a>
</g>
</g>
<!-- TABL&#45;TCDRP&#45;&gt;DTEL&#45;CDOBJECTCL -->
<g id="edge1" class="edge">
<title>TABL&#45;TCDRP&#45;&gt;DTEL&#45;CDOBJECTCL</title>
<path fill="none" stroke="black" d="M1196.2,-160.51C1331.41,-158.68 1707.07,-150 2028.81,-107.98"/>
<polygon fill="black" stroke="black" points="2029.34,-111.44 2038.79,-106.66 2028.42,-104.5 2029.34,-111.44"/>
</g>
<!-- DOMA&#45;ABAP_LANGUAGE_VERSION -->
<g id="node3" class="node">
<title>DOMA&#45;ABAP_LANGUAGE_VERSION</title>
<g id="a_node3"><a xlink:href="./DOMA_ABAP_LANGUAGE_VERSION.html" xlink:title="DOMA&#45;ABAP_LANGUAGE_VERSION">
<polygon fill="none" stroke="yellow" points="253.23,-36 -0.08,-36 -0.08,0 253.23,0 253.23,-36"/>
<text text-anchor="middle" x="126.58" y="-13.8" font-family="Times,serif" font-size="14.00">DOMA&#45;ABAP_LANGUAGE_VERSION</text>
</a>
</g>
</g>
<!-- DTEL&#45;ABAP_LANGUAGE_VERSION&#45;&gt;DOMA&#45;ABAP_LANGUAGE_VERSION -->
<g id="edge15" class="edge">
<title>DTEL&#45;ABAP_LANGUAGE_VERSION&#45;&gt;DOMA&#45;ABAP_LANGUAGE_VERSION</title>
<path fill="none" stroke="black" d="M128.84,-71.7C128.51,-63.98 128.11,-54.71 127.74,-46.11"/>
<polygon fill="black" stroke="black" points="131.24,-45.95 127.31,-36.1 124.24,-46.25 131.24,-45.95"/>
</g>
<!-- DOMA&#45;CDDATAGEN -->
<g id="node5" class="node">
<title>DOMA&#45;CDDATAGEN</title>
<g id="a_node5"><a xlink:href="./DOMA_CDDATAGEN.html" xlink:title="DOMA&#45;CDDATAGEN">
<polygon fill="none" stroke="yellow" points="421.58,-36 271.57,-36 271.57,0 421.58,0 421.58,-36"/>
<text text-anchor="middle" x="346.58" y="-13.8" font-family="Times,serif" font-size="14.00">DOMA&#45;CDDATAGEN</text>
</a>
</g>
</g>
<!-- DTEL&#45;CDDATAGEN&#45;&gt;DOMA&#45;CDDATAGEN -->
<g id="edge16" class="edge">
<title>DTEL&#45;CDDATAGEN&#45;&gt;DOMA&#45;CDDATAGEN</title>
<path fill="none" stroke="black" d="M343.57,-71.7C344.01,-63.98 344.54,-54.71 345.03,-46.11"/>
<polygon fill="black" stroke="black" points="348.52,-46.29 345.6,-36.1 341.53,-45.89 348.52,-46.29"/>
</g>
<!-- DOMA&#45;CHAR1 -->
<g id="node7" class="node">
<title>DOMA&#45;CHAR1</title>
<g id="a_node7"><a xlink:href="./DOMA_CHAR1.html" xlink:title="DOMA&#45;CHAR1">
<polygon fill="none" stroke="green" points="552.39,-36 442.77,-36 442.77,0 552.39,0 552.39,-36"/>
<text text-anchor="middle" x="497.58" y="-13.8" font-family="Times,serif" font-size="14.00">DOMA&#45;CHAR1</text>
</a>
</g>
</g>
<!-- DTEL&#45;CDUPDATE&#45;&gt;DOMA&#45;CHAR1 -->
<g id="edge17" class="edge">
<title>DTEL&#45;CDUPDATE&#45;&gt;DOMA&#45;CHAR1</title>
<path fill="none" stroke="black" d="M497.58,-71.7C497.58,-63.98 497.58,-54.71 497.58,-46.11"/>
<polygon fill="black" stroke="black" points="501.08,-46.1 497.58,-36.1 494.08,-46.1 501.08,-46.1"/>
</g>
<!-- DOMA&#45;DEVCLASS -->
<g id="node9" class="node">
<title>DOMA&#45;DEVCLASS</title>
<g id="a_node9"><a xlink:href="./DOMA_DEVCLASS.html" xlink:title="DOMA&#45;DEVCLASS">
<polygon fill="none" stroke="yellow" points="723.33,-36 587.83,-36 587.83,0 723.33,0 723.33,-36"/>
<text text-anchor="middle" x="655.58" y="-13.8" font-family="Times,serif" font-size="14.00">DOMA&#45;DEVCLASS</text>
</a>
</g>
</g>
<!-- DTEL&#45;CDDEVCLASS&#45;&gt;DOMA&#45;DEVCLASS -->
<g id="edge18" class="edge">
<title>DTEL&#45;CDDEVCLASS&#45;&gt;DOMA&#45;DEVCLASS</title>
<path fill="none" stroke="black" d="M655.58,-71.7C655.58,-63.98 655.58,-54.71 655.58,-46.11"/>
<polygon fill="black" stroke="black" points="659.08,-46.1 655.58,-36.1 652.08,-46.1 659.08,-46.1"/>
</g>
<!-- DOMA&#45;CDPREFIX -->
<g id="node11" class="node">
<title>DOMA&#45;CDPREFIX</title>
<g id="a_node11"><a xlink:href="./DOMA_CDPREFIX.html" xlink:title="DOMA&#45;CDPREFIX">
<polygon fill="none" stroke="yellow" points="875.17,-36 743.99,-36 743.99,0 875.17,0 875.17,-36"/>
<text text-anchor="middle" x="809.58" y="-13.8" font-family="Times,serif" font-size="14.00">DOMA&#45;CDPREFIX</text>
</a>
</g>
</g>
<!-- DTEL&#45;CDPREFIX&#45;&gt;DOMA&#45;CDPREFIX -->
<g id="edge19" class="edge">
<title>DTEL&#45;CDPREFIX&#45;&gt;DOMA&#45;CDPREFIX</title>
<path fill="none" stroke="black" d="M809.58,-71.7C809.58,-63.98 809.58,-54.71 809.58,-46.11"/>
<polygon fill="black" stroke="black" points="813.08,-46.1 809.58,-36.1 806.08,-46.1 813.08,-46.1"/>
</g>
<!-- DOMA&#45;AREA -->
<g id="node13" class="node">
<title>DOMA&#45;AREA</title>
<g id="a_node13"><a xlink:href="./DOMA_AREA.html" xlink:title="DOMA&#45;AREA">
<polygon fill="none" stroke="yellow" points="995.11,-36 894.05,-36 894.05,0 995.11,0 995.11,-36"/>
<text text-anchor="middle" x="944.58" y="-13.8" font-family="Times,serif" font-size="14.00">DOMA&#45;AREA</text>
</a>
</g>
</g>
<!-- DTEL&#45;CDFGRP&#45;&gt;DOMA&#45;AREA -->
<g id="edge20" class="edge">
<title>DTEL&#45;CDFGRP&#45;&gt;DOMA&#45;AREA</title>
<path fill="none" stroke="black" d="M944.58,-71.7C944.58,-63.98 944.58,-54.71 944.58,-46.11"/>
<polygon fill="black" stroke="black" points="948.08,-46.1 944.58,-36.1 941.08,-46.1 948.08,-46.1"/>
</g>
<!-- DOMA&#45;CDFMNR -->
<g id="node15" class="node">
<title>DOMA&#45;CDFMNR</title>
<g id="a_node15"><a xlink:href="./DOMA_CDFMNR.html" xlink:title="DOMA&#45;CDFMNR">
<polygon fill="none" stroke="yellow" points="1136.62,-36 1014.54,-36 1014.54,0 1136.62,0 1136.62,-36"/>
<text text-anchor="middle" x="1075.58" y="-13.8" font-family="Times,serif" font-size="14.00">DOMA&#45;CDFMNR</text>
</a>
</g>
</g>
<!-- DTEL&#45;CDFMNR&#45;&gt;DOMA&#45;CDFMNR -->
<g id="edge21" class="edge">
<title>DTEL&#45;CDFMNR&#45;&gt;DOMA&#45;CDFMNR</title>
<path fill="none" stroke="black" d="M1075.58,-71.7C1075.58,-63.98 1075.58,-54.71 1075.58,-46.11"/>
<polygon fill="black" stroke="black" points="1079.08,-46.1 1075.58,-36.1 1072.08,-46.1 1079.08,-46.1"/>
</g>
<!-- DOMA&#45;ARBGB -->
<g id="node17" class="node">
<title>DOMA&#45;ARBGB</title>
<g id="a_node17"><a xlink:href="./DOMA_ARBGB.html" xlink:title="DOMA&#45;ARBGB">
<polygon fill="none" stroke="yellow" points="1269.23,-36 1157.93,-36 1157.93,0 1269.23,0 1269.23,-36"/>
<text text-anchor="middle" x="1213.58" y="-13.8" font-family="Times,serif" font-size="14.00">DOMA&#45;ARBGB</text>
</a>
</g>
</g>
<!-- DTEL&#45;CDARBGB&#45;&gt;DOMA&#45;ARBGB -->
<g id="edge22" class="edge">
<title>DTEL&#45;CDARBGB&#45;&gt;DOMA&#45;ARBGB</title>
<path fill="none" stroke="black" d="M1213.58,-71.7C1213.58,-63.98 1213.58,-54.71 1213.58,-46.11"/>
<polygon fill="black" stroke="black" points="1217.08,-46.1 1213.58,-36.1 1210.08,-46.1 1217.08,-46.1"/>
</g>
<!-- DOMA&#45;XFELD -->
<g id="node19" class="node">
<title>DOMA&#45;XFELD</title>
<g id="a_node19"><a xlink:href="./DOMA_XFELD.html" xlink:title="DOMA&#45;XFELD">
<polygon fill="none" stroke="yellow" points="1421.6,-36 1313.55,-36 1313.55,0 1421.6,0 1421.6,-36"/>
<text text-anchor="middle" x="1367.58" y="-13.8" font-family="Times,serif" font-size="14.00">DOMA&#45;XFELD</text>
</a>
</g>
</g>
<!-- DTEL&#45;CDTEXTCASE&#45;&gt;DOMA&#45;XFELD -->
<g id="edge23" class="edge">
<title>DTEL&#45;CDTEXTCASE&#45;&gt;DOMA&#45;XFELD</title>
<path fill="none" stroke="black" d="M1367.58,-71.7C1367.58,-63.98 1367.58,-54.71 1367.58,-46.11"/>
<polygon fill="black" stroke="black" points="1371.08,-46.1 1367.58,-36.1 1364.08,-46.1 1371.08,-46.1"/>
</g>
<!-- DOMA&#45;UZEIT -->
<g id="node21" class="node">
<title>DOMA&#45;UZEIT</title>
<g id="a_node21"><a xlink:href="./DOMA_UZEIT.html" xlink:title="DOMA&#45;UZEIT">
<polygon fill="none" stroke="yellow" points="1569.43,-36 1465.73,-36 1465.73,0 1569.43,0 1569.43,-36"/>
<text text-anchor="middle" x="1517.58" y="-13.8" font-family="Times,serif" font-size="14.00">DOMA&#45;UZEIT</text>
</a>
</g>
</g>
<!-- DTEL&#45;CDUZEIT&#45;&gt;DOMA&#45;UZEIT -->
<g id="edge24" class="edge">
<title>DTEL&#45;CDUZEIT&#45;&gt;DOMA&#45;UZEIT</title>
<path fill="none" stroke="black" d="M1517.58,-71.7C1517.58,-63.98 1517.58,-54.71 1517.58,-46.11"/>
<polygon fill="black" stroke="black" points="1521.08,-46.1 1517.58,-36.1 1514.08,-46.1 1521.08,-46.1"/>
</g>
<!-- DOMA&#45;DATUM -->
<g id="node23" class="node">
<title>DOMA&#45;DATUM</title>
<g id="a_node23"><a xlink:href="./DOMA_DATUM.html" xlink:title="DOMA&#45;DATUM">
<polygon fill="none" stroke="yellow" points="1713.82,-36 1599.33,-36 1599.33,0 1713.82,0 1713.82,-36"/>
<text text-anchor="middle" x="1656.58" y="-13.8" font-family="Times,serif" font-size="14.00">DOMA&#45;DATUM</text>
</a>
</g>
</g>
<!-- DTEL&#45;CDDATUM&#45;&gt;DOMA&#45;DATUM -->
<g id="edge25" class="edge">
<title>DTEL&#45;CDDATUM&#45;&gt;DOMA&#45;DATUM</title>
<path fill="none" stroke="black" d="M1657.33,-71.7C1657.22,-63.98 1657.09,-54.71 1656.96,-46.11"/>
<polygon fill="black" stroke="black" points="1660.46,-46.05 1656.82,-36.1 1653.46,-46.15 1660.46,-46.05"/>
</g>
<!-- DOMA&#45;USERNAME -->
<g id="node25" class="node">
<title>DOMA&#45;USERNAME</title>
<g id="a_node25"><a xlink:href="./DOMA_USERNAME.html" xlink:title="DOMA&#45;USERNAME">
<polygon fill="none" stroke="yellow" points="1872.99,-36 1732.16,-36 1732.16,0 1872.99,0 1872.99,-36"/>
<text text-anchor="middle" x="1802.58" y="-13.8" font-family="Times,serif" font-size="14.00">DOMA&#45;USERNAME</text>
</a>
</g>
</g>
<!-- DTEL&#45;USERNAME&#45;&gt;DOMA&#45;USERNAME -->
<g id="edge26" class="edge">
<title>DTEL&#45;USERNAME&#45;&gt;DOMA&#45;USERNAME</title>
<path fill="none" stroke="black" d="M1804.84,-71.7C1804.51,-63.98 1804.11,-54.71 1803.74,-46.11"/>
<polygon fill="black" stroke="black" points="1807.24,-45.95 1803.31,-36.1 1800.24,-46.25 1807.24,-45.95"/>
</g>
<!-- DOMA&#45;CDREPORT -->
<g id="node27" class="node">
<title>DOMA&#45;CDREPORT</title>
<g id="a_node27"><a xlink:href="./DOMA_CDREPORT.html" xlink:title="DOMA&#45;CDREPORT">
<polygon fill="none" stroke="yellow" points="2026.61,-36 1890.54,-36 1890.54,0 2026.61,0 2026.61,-36"/>
<text text-anchor="middle" x="1958.58" y="-13.8" font-family="Times,serif" font-size="14.00">DOMA&#45;CDREPORT</text>
</a>
</g>
</g>
<!-- DTEL&#45;CDREPORT&#45;&gt;DOMA&#45;CDREPORT -->
<g id="edge27" class="edge">
<title>DTEL&#45;CDREPORT&#45;&gt;DOMA&#45;CDREPORT</title>
<path fill="none" stroke="black" d="M1956.32,-71.7C1956.65,-63.98 1957.05,-54.71 1957.42,-46.11"/>
<polygon fill="black" stroke="black" points="1960.91,-46.25 1957.84,-36.1 1953.92,-45.95 1960.91,-46.25"/>
</g>
<!-- DOMA&#45;OBJECTCL -->
<g id="node29" class="node">
<title>DOMA&#45;OBJECTCL</title>
<g id="a_node29"><a xlink:href="./DOMA_OBJECTCL.html" xlink:title="DOMA&#45;OBJECTCL">
<polygon fill="none" stroke="yellow" points="2177.72,-36 2045.43,-36 2045.43,0 2177.72,0 2177.72,-36"/>
<text text-anchor="middle" x="2111.58" y="-13.8" font-family="Times,serif" font-size="14.00">DOMA&#45;OBJECTCL</text>
</a>
</g>
</g>
<!-- DTEL&#45;CDOBJECTCL&#45;&gt;DOMA&#45;OBJECTCL -->
<g id="edge28" class="edge">
<title>DTEL&#45;CDOBJECTCL&#45;&gt;DOMA&#45;OBJECTCL</title>
<path fill="none" stroke="black" d="M2111.58,-71.7C2111.58,-63.98 2111.58,-54.71 2111.58,-46.11"/>
<polygon fill="black" stroke="black" points="2115.08,-46.1 2111.58,-36.1 2108.08,-46.1 2115.08,-46.1"/>
</g>
</g>
</svg>
