<?xml version="1.0" encoding="UTF-8" standalone="no"?>
<!DOCTYPE svg PUBLIC "-//W3C//DTD SVG 1.1//EN"
 "http://www.w3.org/Graphics/SVG/1.1/DTD/svg11.dtd">
<!-- Generated by graphviz version 2.47.3 (20210619.1520)
 -->
<!-- Title: G Pages: 1 -->
<svg width="279pt" height="188pt"
 viewBox="0.00 0.00 279.07 188.00" xmlns="http://www.w3.org/2000/svg" xmlns:xlink="http://www.w3.org/1999/xlink">
<g id="graph0" class="graph" transform="scale(1 1) rotate(0) translate(4 184)">
<title>G</title>
<polygon fill="white" stroke="transparent" points="-4,4 -4,-184 275.07,-184 275.07,4 -4,4"/>
<!-- TABL&#45;SXCO_S_TR_SELECTION_ENTRY -->
<g id="node1" class="node">
<title>TABL&#45;SXCO_S_TR_SELECTION_ENTRY</title>
<polygon fill="none" stroke="yellow" points="271.11,-180 -0.04,-180 -0.04,-144 271.11,-144 271.11,-180"/>
<text text-anchor="middle" x="135.54" y="-157.8" font-family="Times,serif" font-size="14.00">TABL&#45;SXCO_S_TR_SELECTION_ENTRY</text>
</g>
<!-- DTEL&#45;SXCO_TRANSPORT -->
<g id="node2" class="node">
<title>DTEL&#45;SXCO_TRANSPORT</title>
<g id="a_node2"><a xlink:href="./DTEL_SXCO_TRANSPORT.html" xlink:title="DTEL&#45;SXCO_TRANSPORT">
<polygon fill="none" stroke="green" points="226.96,-108 44.11,-108 44.11,-72 226.96,-72 226.96,-108"/>
<text text-anchor="middle" x="135.54" y="-85.8" font-family="Times,serif" font-size="14.00">DTEL&#45;SXCO_TRANSPORT</text>
</a>
</g>
</g>
<!-- TABL&#45;SXCO_S_TR_SELECTION_ENTRY&#45;&gt;DTEL&#45;SXCO_TRANSPORT -->
<g id="edge1" class="edge">
<title>TABL&#45;SXCO_S_TR_SELECTION_ENTRY&#45;&gt;DTEL&#45;SXCO_TRANSPORT</title>
<path fill="none" stroke="black" d="M135.54,-143.7C135.54,-135.98 135.54,-126.71 135.54,-118.11"/>
<polygon fill="black" stroke="black" points="139.04,-118.1 135.54,-108.1 132.04,-118.1 139.04,-118.1"/>
</g>
<!-- DOMA&#45;TRKORR -->
<g id="node3" class="node">
<title>DOMA&#45;TRKORR</title>
<g id="a_node3"><a xlink:href="./DOMA_TRKORR.html" xlink:title="DOMA&#45;TRKORR">
<polygon fill="none" stroke="yellow" points="195.74,-36 75.34,-36 75.34,0 195.74,0 195.74,-36"/>
<text text-anchor="middle" x="135.54" y="-13.8" font-family="Times,serif" font-size="14.00">DOMA&#45;TRKORR</text>
</a>
</g>
</g>
<!-- DTEL&#45;SXCO_TRANSPORT&#45;&gt;DOMA&#45;TRKORR -->
<g id="edge2" class="edge">
<title>DTEL&#45;SXCO_TRANSPORT&#45;&gt;DOMA&#45;TRKORR</title>
<path fill="none" stroke="black" d="M135.54,-71.7C135.54,-63.98 135.54,-54.71 135.54,-46.11"/>
<polygon fill="black" stroke="black" points="139.04,-46.1 135.54,-36.1 132.04,-46.1 139.04,-46.1"/>
</g>
</g>
</svg>
