<?xml version="1.0" encoding="UTF-8" standalone="no"?>
<!DOCTYPE svg PUBLIC "-//W3C//DTD SVG 1.1//EN"
 "http://www.w3.org/Graphics/SVG/1.1/DTD/svg11.dtd">
<!-- Generated by graphviz version 2.47.3 (20210619.1520)
 -->
<!-- Title: G Pages: 1 -->
<svg width="292pt" height="188pt"
 viewBox="0.00 0.00 291.64 188.00" xmlns="http://www.w3.org/2000/svg" xmlns:xlink="http://www.w3.org/1999/xlink">
<g id="graph0" class="graph" transform="scale(1 1) rotate(0) translate(4 184)">
<title>G</title>
<polygon fill="white" stroke="transparent" points="-4,4 -4,-184 287.64,-184 287.64,4 -4,4"/>
<!-- TABL&#45;BAPIPAREX -->
<g id="node1" class="node">
<title>TABL&#45;BAPIPAREX</title>
<polygon fill="none" stroke="green" points="212.29,-180 77.33,-180 77.33,-144 212.29,-144 212.29,-180"/>
<text text-anchor="middle" x="144.81" y="-157.8" font-family="Times,serif" font-size="14.00">TABL&#45;BAPIPAREX</text>
</g>
<!-- DTEL&#45;VALUEPART -->
<g id="node2" class="node">
<title>DTEL&#45;VALUEPART</title>
<g id="a_node2"><a xlink:href="./DTEL_VALUEPART.html" xlink:title="DTEL&#45;VALUEPART">
<polygon fill="none" stroke="green" points="139.44,-108 0.19,-108 0.19,-72 139.44,-72 139.44,-108"/>
<text text-anchor="middle" x="69.81" y="-85.8" font-family="Times,serif" font-size="14.00">DTEL&#45;VALUEPART</text>
</a>
</g>
</g>
<!-- TABL&#45;BAPIPAREX&#45;&gt;DTEL&#45;VALUEPART -->
<g id="edge2" class="edge">
<title>TABL&#45;BAPIPAREX&#45;&gt;DTEL&#45;VALUEPART</title>
<path fill="none" stroke="black" d="M126.27,-143.7C117.01,-135.05 105.65,-124.45 95.56,-115.03"/>
<polygon fill="black" stroke="black" points="97.84,-112.37 88.14,-108.1 93.06,-117.49 97.84,-112.37"/>
</g>
<!-- DTEL&#45;TE_STRUC -->
<g id="node4" class="node">
<title>DTEL&#45;TE_STRUC</title>
<g id="a_node4"><a xlink:href="./DTEL_TE_STRUC.html" xlink:title="DTEL&#45;TE_STRUC">
<polygon fill="none" stroke="green" points="283.46,-108 158.17,-108 158.17,-72 283.46,-72 283.46,-108"/>
<text text-anchor="middle" x="220.81" y="-85.8" font-family="Times,serif" font-size="14.00">DTEL&#45;TE_STRUC</text>
</a>
</g>
</g>
<!-- TABL&#45;BAPIPAREX&#45;&gt;DTEL&#45;TE_STRUC -->
<g id="edge1" class="edge">
<title>TABL&#45;BAPIPAREX&#45;&gt;DTEL&#45;TE_STRUC</title>
<path fill="none" stroke="black" d="M163.6,-143.7C172.99,-135.05 184.5,-124.45 194.73,-115.03"/>
<polygon fill="black" stroke="black" points="197.26,-117.45 202.24,-108.1 192.52,-112.3 197.26,-117.45"/>
</g>
<!-- DOMA&#45;CHAR240 -->
<g id="node3" class="node">
<title>DOMA&#45;CHAR240</title>
<g id="a_node3"><a xlink:href="./DOMA_CHAR240.html" xlink:title="DOMA&#45;CHAR240">
<polygon fill="none" stroke="yellow" points="131.63,-36 8,-36 8,0 131.63,0 131.63,-36"/>
<text text-anchor="middle" x="69.81" y="-13.8" font-family="Times,serif" font-size="14.00">DOMA&#45;CHAR240</text>
</a>
</g>
</g>
<!-- DTEL&#45;VALUEPART&#45;&gt;DOMA&#45;CHAR240 -->
<g id="edge3" class="edge">
<title>DTEL&#45;VALUEPART&#45;&gt;DOMA&#45;CHAR240</title>
<path fill="none" stroke="black" d="M69.81,-71.7C69.81,-63.98 69.81,-54.71 69.81,-46.11"/>
<polygon fill="black" stroke="black" points="73.31,-46.1 69.81,-36.1 66.31,-46.1 73.31,-46.1"/>
</g>
<!-- DOMA&#45;AS4TAB -->
<g id="node5" class="node">
<title>DOMA&#45;AS4TAB</title>
<g id="a_node5"><a xlink:href="./DOMA_AS4TAB.html" xlink:title="DOMA&#45;AS4TAB">
<polygon fill="none" stroke="yellow" points="279.12,-36 162.5,-36 162.5,0 279.12,0 279.12,-36"/>
<text text-anchor="middle" x="220.81" y="-13.8" font-family="Times,serif" font-size="14.00">DOMA&#45;AS4TAB</text>
</a>
</g>
</g>
<!-- DTEL&#45;TE_STRUC&#45;&gt;DOMA&#45;AS4TAB -->
<g id="edge4" class="edge">
<title>DTEL&#45;TE_STRUC&#45;&gt;DOMA&#45;AS4TAB</title>
<path fill="none" stroke="black" d="M220.81,-71.7C220.81,-63.98 220.81,-54.71 220.81,-46.11"/>
<polygon fill="black" stroke="black" points="224.31,-46.1 220.81,-36.1 217.31,-46.1 224.31,-46.1"/>
</g>
</g>
</svg>
