<?xml version="1.0" encoding="UTF-8" standalone="no"?>
<!DOCTYPE svg PUBLIC "-//W3C//DTD SVG 1.1//EN"
 "http://www.w3.org/Graphics/SVG/1.1/DTD/svg11.dtd">
<!-- Generated by graphviz version 2.47.3 (20210619.1520)
 -->
<!-- Title: G Pages: 1 -->
<svg width="585pt" height="188pt"
 viewBox="0.00 0.00 585.08 188.00" xmlns="http://www.w3.org/2000/svg" xmlns:xlink="http://www.w3.org/1999/xlink">
<g id="graph0" class="graph" transform="scale(1 1) rotate(0) translate(4 184)">
<title>G</title>
<polygon fill="white" stroke="transparent" points="-4,4 -4,-184 581.08,-184 581.08,4 -4,4"/>
<!-- TABL&#45;BAPIF4M -->
<g id="node1" class="node">
<title>TABL&#45;BAPIF4M</title>
<polygon fill="none" stroke="green" points="367.14,-180 250.49,-180 250.49,-144 367.14,-144 367.14,-180"/>
<text text-anchor="middle" x="308.81" y="-157.8" font-family="Times,serif" font-size="14.00">TABL&#45;BAPIF4M</text>
</g>
<!-- DTEL&#45;BAPIMAXROW -->
<g id="node2" class="node">
<title>DTEL&#45;BAPIMAXROW</title>
<g id="a_node2"><a xlink:href="./DTEL_BAPIMAXROW.html" xlink:title="DTEL&#45;BAPIMAXROW">
<polygon fill="none" stroke="green" points="153.44,-108 0.19,-108 0.19,-72 153.44,-72 153.44,-108"/>
<text text-anchor="middle" x="76.81" y="-85.8" font-family="Times,serif" font-size="14.00">DTEL&#45;BAPIMAXROW</text>
</a>
</g>
</g>
<!-- TABL&#45;BAPIF4M&#45;&gt;DTEL&#45;BAPIMAXROW -->
<g id="edge4" class="edge">
<title>TABL&#45;BAPIF4M&#45;&gt;DTEL&#45;BAPIMAXROW</title>
<path fill="none" stroke="black" d="M252.36,-143.97C219.52,-134.06 177.95,-121.51 143.5,-111.12"/>
<polygon fill="black" stroke="black" points="144.11,-107.65 133.52,-108.11 142.09,-114.35 144.11,-107.65"/>
</g>
<!-- DTEL&#45;NAME_FELD -->
<g id="node4" class="node">
<title>DTEL&#45;NAME_FELD</title>
<g id="a_node4"><a xlink:href="./DTEL_NAME_FELD.html" xlink:title="DTEL&#45;NAME_FELD">
<polygon fill="none" stroke="yellow" points="311.44,-108 172.18,-108 172.18,-72 311.44,-72 311.44,-108"/>
<text text-anchor="middle" x="241.81" y="-85.8" font-family="Times,serif" font-size="14.00">DTEL&#45;NAME_FELD</text>
</a>
</g>
</g>
<!-- TABL&#45;BAPIF4M&#45;&gt;DTEL&#45;NAME_FELD -->
<g id="edge3" class="edge">
<title>TABL&#45;BAPIF4M&#45;&gt;DTEL&#45;NAME_FELD</title>
<path fill="none" stroke="black" d="M292.25,-143.7C284.14,-135.22 274.23,-124.86 265.34,-115.58"/>
<polygon fill="black" stroke="black" points="267.63,-112.91 258.18,-108.1 262.57,-117.75 267.63,-112.91"/>
</g>
<!-- DTEL&#45;MCID -->
<g id="node6" class="node">
<title>DTEL&#45;MCID</title>
<g id="a_node6"><a xlink:href="./DTEL_MCID.html" xlink:title="DTEL&#45;MCID">
<polygon fill="none" stroke="yellow" points="422.29,-108 329.34,-108 329.34,-72 422.29,-72 422.29,-108"/>
<text text-anchor="middle" x="375.81" y="-85.8" font-family="Times,serif" font-size="14.00">DTEL&#45;MCID</text>
</a>
</g>
</g>
<!-- TABL&#45;BAPIF4M&#45;&gt;DTEL&#45;MCID -->
<g id="edge2" class="edge">
<title>TABL&#45;BAPIF4M&#45;&gt;DTEL&#45;MCID</title>
<path fill="none" stroke="black" d="M325.38,-143.7C333.49,-135.22 343.4,-124.86 352.28,-115.58"/>
<polygon fill="black" stroke="black" points="355.06,-117.75 359.44,-108.1 350,-112.91 355.06,-117.75"/>
</g>
<!-- DTEL&#45;MCONAME -->
<g id="node8" class="node">
<title>DTEL&#45;MCONAME</title>
<g id="a_node8"><a xlink:href="./DTEL_MCONAME.html" xlink:title="DTEL&#45;MCONAME">
<polygon fill="none" stroke="yellow" points="571.34,-108 442.29,-108 442.29,-72 571.34,-72 571.34,-108"/>
<text text-anchor="middle" x="506.81" y="-85.8" font-family="Times,serif" font-size="14.00">DTEL&#45;MCONAME</text>
</a>
</g>
</g>
<!-- TABL&#45;BAPIF4M&#45;&gt;DTEL&#45;MCONAME -->
<g id="edge1" class="edge">
<title>TABL&#45;BAPIF4M&#45;&gt;DTEL&#45;MCONAME</title>
<path fill="none" stroke="black" d="M357,-143.97C384.66,-134.19 419.59,-121.84 448.76,-111.52"/>
<polygon fill="black" stroke="black" points="450.15,-114.74 458.41,-108.11 447.82,-108.14 450.15,-114.74"/>
</g>
<!-- DOMA&#45;SYST_LONG -->
<g id="node3" class="node">
<title>DOMA&#45;SYST_LONG</title>
<g id="a_node3"><a xlink:href="./DOMA_SYST_LONG.html" xlink:title="DOMA&#45;SYST_LONG">
<polygon fill="none" stroke="yellow" points="148.34,-36 5.29,-36 5.29,0 148.34,0 148.34,-36"/>
<text text-anchor="middle" x="76.81" y="-13.8" font-family="Times,serif" font-size="14.00">DOMA&#45;SYST_LONG</text>
</a>
</g>
</g>
<!-- DTEL&#45;BAPIMAXROW&#45;&gt;DOMA&#45;SYST_LONG -->
<g id="edge5" class="edge">
<title>DTEL&#45;BAPIMAXROW&#45;&gt;DOMA&#45;SYST_LONG</title>
<path fill="none" stroke="black" d="M76.81,-71.7C76.81,-63.98 76.81,-54.71 76.81,-46.11"/>
<polygon fill="black" stroke="black" points="80.31,-46.1 76.81,-36.1 73.31,-46.1 80.31,-46.1"/>
</g>
<!-- DOMA&#45;FDNAME -->
<g id="node5" class="node">
<title>DOMA&#45;FDNAME</title>
<g id="a_node5"><a xlink:href="./DOMA_FDNAME.html" xlink:title="DOMA&#45;FDNAME">
<polygon fill="none" stroke="yellow" points="302.84,-36 180.79,-36 180.79,0 302.84,0 302.84,-36"/>
<text text-anchor="middle" x="241.81" y="-13.8" font-family="Times,serif" font-size="14.00">DOMA&#45;FDNAME</text>
</a>
</g>
</g>
<!-- DTEL&#45;NAME_FELD&#45;&gt;DOMA&#45;FDNAME -->
<g id="edge6" class="edge">
<title>DTEL&#45;NAME_FELD&#45;&gt;DOMA&#45;FDNAME</title>
<path fill="none" stroke="black" d="M241.81,-71.7C241.81,-63.98 241.81,-54.71 241.81,-46.11"/>
<polygon fill="black" stroke="black" points="245.31,-46.1 241.81,-36.1 238.31,-46.1 245.31,-46.1"/>
</g>
<!-- DOMA&#45;MCID -->
<g id="node7" class="node">
<title>DOMA&#45;MCID</title>
<g id="a_node7"><a xlink:href="./DOMA_MCID.html" xlink:title="DOMA&#45;MCID">
<polygon fill="none" stroke="yellow" points="422.79,-36 322.84,-36 322.84,0 422.79,0 422.79,-36"/>
<text text-anchor="middle" x="372.81" y="-13.8" font-family="Times,serif" font-size="14.00">DOMA&#45;MCID</text>
</a>
</g>
</g>
<!-- DTEL&#45;MCID&#45;&gt;DOMA&#45;MCID -->
<g id="edge7" class="edge">
<title>DTEL&#45;MCID&#45;&gt;DOMA&#45;MCID</title>
<path fill="none" stroke="black" d="M375.07,-71.7C374.74,-63.98 374.34,-54.71 373.98,-46.11"/>
<polygon fill="black" stroke="black" points="377.47,-45.95 373.55,-36.1 370.48,-46.25 377.47,-45.95"/>
</g>
<!-- DOMA&#45;MCONAME -->
<g id="node9" class="node">
<title>DOMA&#45;MCONAME</title>
<g id="a_node9"><a xlink:href="./DOMA_MCONAME.html" xlink:title="DOMA&#45;MCONAME">
<polygon fill="none" stroke="yellow" points="576.84,-36 440.79,-36 440.79,0 576.84,0 576.84,-36"/>
<text text-anchor="middle" x="508.81" y="-13.8" font-family="Times,serif" font-size="14.00">DOMA&#45;MCONAME</text>
</a>
</g>
</g>
<!-- DTEL&#45;MCONAME&#45;&gt;DOMA&#45;MCONAME -->
<g id="edge8" class="edge">
<title>DTEL&#45;MCONAME&#45;&gt;DOMA&#45;MCONAME</title>
<path fill="none" stroke="black" d="M507.31,-71.7C507.53,-63.98 507.79,-54.71 508.04,-46.11"/>
<polygon fill="black" stroke="black" points="511.54,-46.2 508.32,-36.1 504.54,-46 511.54,-46.2"/>
</g>
</g>
</svg>
