<?xml version="1.0" encoding="UTF-8" standalone="no"?>
<!DOCTYPE svg PUBLIC "-//W3C//DTD SVG 1.1//EN"
 "http://www.w3.org/Graphics/SVG/1.1/DTD/svg11.dtd">
<!-- Generated by graphviz version 2.47.3 (20210619.1520)
 -->
<!-- Title: G Pages: 1 -->
<svg width="997pt" height="188pt"
 viewBox="0.00 0.00 996.71 188.00" xmlns="http://www.w3.org/2000/svg" xmlns:xlink="http://www.w3.org/1999/xlink">
<g id="graph0" class="graph" transform="scale(1 1) rotate(0) translate(4 184)">
<title>G</title>
<polygon fill="white" stroke="transparent" points="-4,4 -4,-184 992.71,-184 992.71,4 -4,4"/>
<!-- TABL&#45;/UI2/ADMIN_DATA_S -->
<g id="node1" class="node">
<title>TABL&#45;/UI2/ADMIN_DATA_S</title>
<polygon fill="none" stroke="yellow" points="593.35,-180 398.68,-180 398.68,-144 593.35,-144 593.35,-180"/>
<text text-anchor="middle" x="496.02" y="-157.8" font-family="Times,serif" font-size="14.00">TABL&#45;/UI2/ADMIN_DATA_S</text>
</g>
<!-- DTEL&#45;/UI2/ADMIN_MODIFIED_ON -->
<g id="node2" class="node">
<title>DTEL&#45;/UI2/ADMIN_MODIFIED_ON</title>
<g id="a_node2"><a xlink:href="./DTEL_%23UI2%23ADMIN_MODIFIED_ON.html" xlink:title="DTEL&#45;/UI2/ADMIN_MODIFIED_ON">
<polygon fill="none" stroke="yellow" points="236.05,-108 -0.02,-108 -0.02,-72 236.05,-72 236.05,-108"/>
<text text-anchor="middle" x="118.02" y="-85.8" font-family="Times,serif" font-size="14.00">DTEL&#45;/UI2/ADMIN_MODIFIED_ON</text>
</a>
</g>
</g>
<!-- TABL&#45;/UI2/ADMIN_DATA_S&#45;&gt;DTEL&#45;/UI2/ADMIN_MODIFIED_ON -->
<g id="edge4" class="edge">
<title>TABL&#45;/UI2/ADMIN_DATA_S&#45;&gt;DTEL&#45;/UI2/ADMIN_MODIFIED_ON</title>
<path fill="none" stroke="black" d="M404.03,-143.97C348.47,-133.68 277.57,-120.55 220.26,-109.93"/>
<polygon fill="black" stroke="black" points="220.56,-106.43 210.09,-108.05 219.28,-113.31 220.56,-106.43"/>
</g>
<!-- DTEL&#45;/UI2/ADMIN_MODIFIED_BY -->
<g id="node4" class="node">
<title>DTEL&#45;/UI2/ADMIN_MODIFIED_BY</title>
<g id="a_node4"><a xlink:href="./DTEL_%23UI2%23ADMIN_MODIFIED_BY.html" xlink:title="DTEL&#45;/UI2/ADMIN_MODIFIED_BY">
<polygon fill="none" stroke="yellow" points="739.78,-108 504.25,-108 504.25,-72 739.78,-72 739.78,-108"/>
<text text-anchor="middle" x="622.02" y="-85.8" font-family="Times,serif" font-size="14.00">DTEL&#45;/UI2/ADMIN_MODIFIED_BY</text>
</a>
</g>
</g>
<!-- TABL&#45;/UI2/ADMIN_DATA_S&#45;&gt;DTEL&#45;/UI2/ADMIN_MODIFIED_BY -->
<g id="edge3" class="edge">
<title>TABL&#45;/UI2/ADMIN_DATA_S&#45;&gt;DTEL&#45;/UI2/ADMIN_MODIFIED_BY</title>
<path fill="none" stroke="black" d="M526.84,-143.88C543.47,-134.64 564.18,-123.13 582.04,-113.21"/>
<polygon fill="black" stroke="black" points="584.03,-116.11 591.07,-108.19 580.63,-109.99 584.03,-116.11"/>
</g>
<!-- DTEL&#45;/UI2/ADMIN_CREATED_ON -->
<g id="node6" class="node">
<title>DTEL&#45;/UI2/ADMIN_CREATED_ON</title>
<g id="a_node6"><a xlink:href="./DTEL_%23UI2%23ADMIN_CREATED_ON.html" xlink:title="DTEL&#45;/UI2/ADMIN_CREATED_ON">
<polygon fill="none" stroke="yellow" points="486.17,-108 253.86,-108 253.86,-72 486.17,-72 486.17,-108"/>
<text text-anchor="middle" x="370.02" y="-85.8" font-family="Times,serif" font-size="14.00">DTEL&#45;/UI2/ADMIN_CREATED_ON</text>
</a>
</g>
</g>
<!-- TABL&#45;/UI2/ADMIN_DATA_S&#45;&gt;DTEL&#45;/UI2/ADMIN_CREATED_ON -->
<g id="edge2" class="edge">
<title>TABL&#45;/UI2/ADMIN_DATA_S&#45;&gt;DTEL&#45;/UI2/ADMIN_CREATED_ON</title>
<path fill="none" stroke="black" d="M465.19,-143.88C448.57,-134.64 427.85,-123.13 410,-113.21"/>
<polygon fill="black" stroke="black" points="411.4,-109.99 400.96,-108.19 408,-116.11 411.4,-109.99"/>
</g>
<!-- DTEL&#45;/UI2/ADMIN_CREATED_BY -->
<g id="node7" class="node">
<title>DTEL&#45;/UI2/ADMIN_CREATED_BY</title>
<g id="a_node7"><a xlink:href="./DTEL_%23UI2%23ADMIN_CREATED_BY.html" xlink:title="DTEL&#45;/UI2/ADMIN_CREATED_BY">
<polygon fill="none" stroke="yellow" points="988.9,-108 757.13,-108 757.13,-72 988.9,-72 988.9,-108"/>
<text text-anchor="middle" x="873.02" y="-85.8" font-family="Times,serif" font-size="14.00">DTEL&#45;/UI2/ADMIN_CREATED_BY</text>
</a>
</g>
</g>
<!-- TABL&#45;/UI2/ADMIN_DATA_S&#45;&gt;DTEL&#45;/UI2/ADMIN_CREATED_BY -->
<g id="edge1" class="edge">
<title>TABL&#45;/UI2/ADMIN_DATA_S&#45;&gt;DTEL&#45;/UI2/ADMIN_CREATED_BY</title>
<path fill="none" stroke="black" d="M587.76,-143.97C643.17,-133.68 713.89,-120.55 771.05,-109.93"/>
<polygon fill="black" stroke="black" points="772,-113.32 781.19,-108.05 770.72,-106.43 772,-113.32"/>
</g>
<!-- DOMA&#45;TZNTSTMPS -->
<g id="node3" class="node">
<title>DOMA&#45;TZNTSTMPS</title>
<g id="a_node3"><a xlink:href="./DOMA_TZNTSTMPS.html" xlink:title="DOMA&#45;TZNTSTMPS">
<polygon fill="none" stroke="yellow" points="315.55,-36 172.48,-36 172.48,0 315.55,0 315.55,-36"/>
<text text-anchor="middle" x="244.02" y="-13.8" font-family="Times,serif" font-size="14.00">DOMA&#45;TZNTSTMPS</text>
</a>
</g>
</g>
<!-- DTEL&#45;/UI2/ADMIN_MODIFIED_ON&#45;&gt;DOMA&#45;TZNTSTMPS -->
<g id="edge5" class="edge">
<title>DTEL&#45;/UI2/ADMIN_MODIFIED_ON&#45;&gt;DOMA&#45;TZNTSTMPS</title>
<path fill="none" stroke="black" d="M148.84,-71.88C165.47,-62.64 186.18,-51.13 204.04,-41.21"/>
<polygon fill="black" stroke="black" points="206.03,-44.11 213.07,-36.19 202.63,-37.99 206.03,-44.11"/>
</g>
<!-- DOMA&#45;UNAME -->
<g id="node5" class="node">
<title>DOMA&#45;UNAME</title>
<g id="a_node5"><a xlink:href="./DOMA_UNAME.html" xlink:title="DOMA&#45;UNAME">
<polygon fill="none" stroke="yellow" points="804.26,-36 689.77,-36 689.77,0 804.26,0 804.26,-36"/>
<text text-anchor="middle" x="747.02" y="-13.8" font-family="Times,serif" font-size="14.00">DOMA&#45;UNAME</text>
</a>
</g>
</g>
<!-- DTEL&#45;/UI2/ADMIN_MODIFIED_BY&#45;&gt;DOMA&#45;UNAME -->
<g id="edge6" class="edge">
<title>DTEL&#45;/UI2/ADMIN_MODIFIED_BY&#45;&gt;DOMA&#45;UNAME</title>
<path fill="none" stroke="black" d="M652.59,-71.88C669.09,-62.64 689.64,-51.13 707.35,-41.21"/>
<polygon fill="black" stroke="black" points="709.31,-44.13 716.32,-36.19 705.89,-38.02 709.31,-44.13"/>
</g>
<!-- DTEL&#45;/UI2/ADMIN_CREATED_ON&#45;&gt;DOMA&#45;TZNTSTMPS -->
<g id="edge7" class="edge">
<title>DTEL&#45;/UI2/ADMIN_CREATED_ON&#45;&gt;DOMA&#45;TZNTSTMPS</title>
<path fill="none" stroke="black" d="M339.19,-71.88C322.57,-62.64 301.85,-51.13 284,-41.21"/>
<polygon fill="black" stroke="black" points="285.4,-37.99 274.96,-36.19 282,-44.11 285.4,-37.99"/>
</g>
<!-- DTEL&#45;/UI2/ADMIN_CREATED_BY&#45;&gt;DOMA&#45;UNAME -->
<g id="edge8" class="edge">
<title>DTEL&#45;/UI2/ADMIN_CREATED_BY&#45;&gt;DOMA&#45;UNAME</title>
<path fill="none" stroke="black" d="M842.19,-71.88C825.57,-62.64 804.85,-51.13 787,-41.21"/>
<polygon fill="black" stroke="black" points="788.4,-37.99 777.96,-36.19 785,-44.11 788.4,-37.99"/>
</g>
</g>
</svg>
