<?xml version="1.0" encoding="UTF-8" standalone="no"?>
<!DOCTYPE svg PUBLIC "-//W3C//DTD SVG 1.1//EN"
 "http://www.w3.org/Graphics/SVG/1.1/DTD/svg11.dtd">
<!-- Generated by graphviz version 2.47.3 (20210619.1520)
 -->
<!-- Title: G Pages: 1 -->
<svg width="761pt" height="548pt"
 viewBox="0.00 0.00 761.42 548.00" xmlns="http://www.w3.org/2000/svg" xmlns:xlink="http://www.w3.org/1999/xlink">
<g id="graph0" class="graph" transform="scale(1 1) rotate(0) translate(4 544)">
<title>G</title>
<polygon fill="white" stroke="transparent" points="-4,4 -4,-544 757.42,-544 757.42,4 -4,4"/>
<!-- TABL&#45;CMIS_S_ACL_CAPABILITIES -->
<g id="node1" class="node">
<title>TABL&#45;CMIS_S_ACL_CAPABILITIES</title>
<polygon fill="none" stroke="green" points="439.29,-540 196.68,-540 196.68,-504 439.29,-504 439.29,-540"/>
<text text-anchor="middle" x="317.99" y="-517.8" font-family="Times,serif" font-size="14.00">TABL&#45;CMIS_S_ACL_CAPABILITIES</text>
</g>
<!-- TTYP&#45;CMIS_T_EXTENSION -->
<g id="node2" class="node">
<title>TTYP&#45;CMIS_T_EXTENSION</title>
<g id="a_node2"><a xlink:href="./TTYP_CMIS_T_EXTENSION.html" xlink:title="TTYP&#45;CMIS_T_EXTENSION">
<polygon fill="none" stroke="green" points="256.45,-324 65.53,-324 65.53,-288 256.45,-288 256.45,-324"/>
<text text-anchor="middle" x="160.99" y="-301.8" font-family="Times,serif" font-size="14.00">TTYP&#45;CMIS_T_EXTENSION</text>
</a>
</g>
</g>
<!-- TABL&#45;CMIS_S_ACL_CAPABILITIES&#45;&gt;TTYP&#45;CMIS_T_EXTENSION -->
<g id="edge4" class="edge">
<title>TABL&#45;CMIS_S_ACL_CAPABILITIES&#45;&gt;TTYP&#45;CMIS_T_EXTENSION</title>
<path fill="none" stroke="black" d="M196.48,-514.71C125.08,-508.19 44.52,-494.92 21.99,-468 -8.82,-431.19 -5.24,-399.53 21.99,-360 31.6,-346.04 45.42,-335.76 60.66,-328.18"/>
<polygon fill="black" stroke="black" points="62.12,-331.36 69.77,-324.03 59.22,-324.99 62.12,-331.36"/>
</g>
<!-- TTYP&#45;CMIS_T_PERMISSION_DEFINITION -->
<g id="node8" class="node">
<title>TTYP&#45;CMIS_T_PERMISSION_DEFINITION</title>
<g id="a_node8"><a xlink:href="./TTYP_CMIS_T_PERMISSION_DEFINITION.html" xlink:title="TTYP&#45;CMIS_T_PERMISSION_DEFINITION">
<polygon fill="none" stroke="green" points="312.93,-468 31.04,-468 31.04,-432 312.93,-432 312.93,-468"/>
<text text-anchor="middle" x="171.99" y="-445.8" font-family="Times,serif" font-size="14.00">TTYP&#45;CMIS_T_PERMISSION_DEFINITION</text>
</a>
</g>
</g>
<!-- TABL&#45;CMIS_S_ACL_CAPABILITIES&#45;&gt;TTYP&#45;CMIS_T_PERMISSION_DEFINITION -->
<g id="edge3" class="edge">
<title>TABL&#45;CMIS_S_ACL_CAPABILITIES&#45;&gt;TTYP&#45;CMIS_T_PERMISSION_DEFINITION</title>
<path fill="none" stroke="black" d="M282.27,-503.88C262.49,-494.39 237.72,-482.51 216.66,-472.42"/>
<polygon fill="black" stroke="black" points="218.12,-469.24 207.59,-468.07 215.09,-475.55 218.12,-469.24"/>
</g>
<!-- TTYP&#45;CMIS_T_PERMISSION_MAPPING -->
<g id="node10" class="node">
<title>TTYP&#45;CMIS_T_PERMISSION_MAPPING</title>
<g id="a_node10"><a xlink:href="./TTYP_CMIS_T_PERMISSION_MAPPING.html" xlink:title="TTYP&#45;CMIS_T_PERMISSION_MAPPING">
<polygon fill="none" stroke="green" points="596.63,-468 331.35,-468 331.35,-432 596.63,-432 596.63,-468"/>
<text text-anchor="middle" x="463.99" y="-445.8" font-family="Times,serif" font-size="14.00">TTYP&#45;CMIS_T_PERMISSION_MAPPING</text>
</a>
</g>
</g>
<!-- TABL&#45;CMIS_S_ACL_CAPABILITIES&#45;&gt;TTYP&#45;CMIS_T_PERMISSION_MAPPING -->
<g id="edge2" class="edge">
<title>TABL&#45;CMIS_S_ACL_CAPABILITIES&#45;&gt;TTYP&#45;CMIS_T_PERMISSION_MAPPING</title>
<path fill="none" stroke="black" d="M353.7,-503.88C373.48,-494.39 398.26,-482.51 419.31,-472.42"/>
<polygon fill="black" stroke="black" points="420.88,-475.55 428.39,-468.07 417.86,-469.24 420.88,-475.55"/>
</g>
<!-- DTEL&#45;CMIS_ENUM -->
<g id="node13" class="node">
<title>DTEL&#45;CMIS_ENUM</title>
<g id="a_node13"><a xlink:href="./DTEL_CMIS_ENUM.html" xlink:title="DTEL&#45;CMIS_ENUM">
<polygon fill="none" stroke="green" points="753.35,-468 614.63,-468 614.63,-432 753.35,-432 753.35,-468"/>
<text text-anchor="middle" x="683.99" y="-445.8" font-family="Times,serif" font-size="14.00">DTEL&#45;CMIS_ENUM</text>
</a>
</g>
</g>
<!-- TABL&#45;CMIS_S_ACL_CAPABILITIES&#45;&gt;DTEL&#45;CMIS_ENUM -->
<g id="edge1" class="edge">
<title>TABL&#45;CMIS_S_ACL_CAPABILITIES&#45;&gt;DTEL&#45;CMIS_ENUM</title>
<path fill="none" stroke="black" d="M414.8,-504C468.13,-494.44 535.75,-482 604.17,-468.34"/>
<polygon fill="black" stroke="black" points="605.15,-471.71 614.27,-466.31 603.78,-464.85 605.15,-471.71"/>
</g>
<!-- TABL&#45;CMIS_S_EXTENSION -->
<g id="node3" class="node">
<title>TABL&#45;CMIS_S_EXTENSION</title>
<g id="a_node3"><a xlink:href="./TABL_CMIS_S_EXTENSION.html" xlink:title="TABL&#45;CMIS_S_EXTENSION">
<polygon fill="none" stroke="green" points="214.73,-252 23.24,-252 23.24,-216 214.73,-216 214.73,-252"/>
<text text-anchor="middle" x="118.99" y="-229.8" font-family="Times,serif" font-size="14.00">TABL&#45;CMIS_S_EXTENSION</text>
</a>
</g>
</g>
<!-- TTYP&#45;CMIS_T_EXTENSION&#45;&gt;TABL&#45;CMIS_S_EXTENSION -->
<g id="edge5" class="edge">
<title>TTYP&#45;CMIS_T_EXTENSION&#45;&gt;TABL&#45;CMIS_S_EXTENSION</title>
<path fill="none" stroke="black" d="M150.61,-287.7C145.72,-279.56 139.8,-269.69 134.41,-260.7"/>
<polygon fill="black" stroke="black" points="137.4,-258.88 129.25,-252.1 131.39,-262.48 137.4,-258.88"/>
</g>
<!-- TTYP&#45;CMIS_T_MAP -->
<g id="node4" class="node">
<title>TTYP&#45;CMIS_T_MAP</title>
<g id="a_node4"><a xlink:href="./TTYP_CMIS_T_MAP.html" xlink:title="TTYP&#45;CMIS_T_MAP">
<polygon fill="none" stroke="green" points="169.25,-180 26.72,-180 26.72,-144 169.25,-144 169.25,-180"/>
<text text-anchor="middle" x="97.99" y="-157.8" font-family="Times,serif" font-size="14.00">TTYP&#45;CMIS_T_MAP</text>
</a>
</g>
</g>
<!-- TABL&#45;CMIS_S_EXTENSION&#45;&gt;TTYP&#45;CMIS_T_MAP -->
<g id="edge8" class="edge">
<title>TABL&#45;CMIS_S_EXTENSION&#45;&gt;TTYP&#45;CMIS_T_MAP</title>
<path fill="none" stroke="black" d="M113.8,-215.7C111.46,-207.9 108.64,-198.51 106.04,-189.83"/>
<polygon fill="black" stroke="black" points="109.34,-188.68 103.12,-180.1 102.64,-190.69 109.34,-188.68"/>
</g>
<!-- DTEL&#45;CMIS_STRING -->
<g id="node6" class="node">
<title>DTEL&#45;CMIS_STRING</title>
<g id="a_node6"><a xlink:href="./DTEL_CMIS_STRING.html" xlink:title="DTEL&#45;CMIS_STRING">
<polygon fill="none" stroke="green" points="338.18,-36 189.79,-36 189.79,0 338.18,0 338.18,-36"/>
<text text-anchor="middle" x="263.99" y="-13.8" font-family="Times,serif" font-size="14.00">DTEL&#45;CMIS_STRING</text>
</a>
</g>
</g>
<!-- TABL&#45;CMIS_S_EXTENSION&#45;&gt;DTEL&#45;CMIS_STRING -->
<g id="edge7" class="edge">
<title>TABL&#45;CMIS_S_EXTENSION&#45;&gt;DTEL&#45;CMIS_STRING</title>
<path fill="none" stroke="black" d="M61.74,-215.96C44.66,-207.91 27.87,-196.35 17.99,-180 -8.34,-136.45 16.02,-103.49 55.99,-72 91.01,-44.41 138.72,-31.03 179.62,-24.61"/>
<polygon fill="black" stroke="black" points="180.19,-28.06 189.58,-23.16 179.18,-21.13 180.19,-28.06"/>
</g>
<!-- DTEL&#45;CMIS_ID -->
<g id="node7" class="node">
<title>DTEL&#45;CMIS_ID</title>
<g id="a_node7"><a xlink:href="./DTEL_CMIS_ID.html" xlink:title="DTEL&#45;CMIS_ID">
<polygon fill="none" stroke="green" points="300.4,-180 187.57,-180 187.57,-144 300.4,-144 300.4,-180"/>
<text text-anchor="middle" x="243.99" y="-157.8" font-family="Times,serif" font-size="14.00">DTEL&#45;CMIS_ID</text>
</a>
</g>
</g>
<!-- TABL&#45;CMIS_S_EXTENSION&#45;&gt;DTEL&#45;CMIS_ID -->
<g id="edge6" class="edge">
<title>TABL&#45;CMIS_S_EXTENSION&#45;&gt;DTEL&#45;CMIS_ID</title>
<path fill="none" stroke="black" d="M149.57,-215.88C166.06,-206.64 186.61,-195.13 204.32,-185.21"/>
<polygon fill="black" stroke="black" points="206.28,-188.13 213.29,-180.19 202.86,-182.02 206.28,-188.13"/>
</g>
<!-- TABL&#45;CMIS_S_KEY_VALUE -->
<g id="node5" class="node">
<title>TABL&#45;CMIS_S_KEY_VALUE</title>
<g id="a_node5"><a xlink:href="./TABL_CMIS_S_KEY_VALUE.html" xlink:title="TABL&#45;CMIS_S_KEY_VALUE">
<polygon fill="none" stroke="green" points="261.39,-108 64.58,-108 64.58,-72 261.39,-72 261.39,-108"/>
<text text-anchor="middle" x="162.99" y="-85.8" font-family="Times,serif" font-size="14.00">TABL&#45;CMIS_S_KEY_VALUE</text>
</a>
</g>
</g>
<!-- TTYP&#45;CMIS_T_MAP&#45;&gt;TABL&#45;CMIS_S_KEY_VALUE -->
<g id="edge9" class="edge">
<title>TTYP&#45;CMIS_T_MAP&#45;&gt;TABL&#45;CMIS_S_KEY_VALUE</title>
<path fill="none" stroke="black" d="M114.05,-143.7C121.93,-135.22 131.54,-124.86 140.16,-115.58"/>
<polygon fill="black" stroke="black" points="142.86,-117.81 147.1,-108.1 137.74,-113.05 142.86,-117.81"/>
</g>
<!-- TABL&#45;CMIS_S_KEY_VALUE&#45;&gt;DTEL&#45;CMIS_STRING -->
<g id="edge10" class="edge">
<title>TABL&#45;CMIS_S_KEY_VALUE&#45;&gt;DTEL&#45;CMIS_STRING</title>
<path fill="none" stroke="black" d="M187.69,-71.88C200.66,-62.89 216.72,-51.76 230.75,-42.03"/>
<polygon fill="black" stroke="black" points="232.96,-44.76 239.18,-36.19 228.97,-39.01 232.96,-44.76"/>
</g>
<!-- TABL&#45;CMIS_S_PERMISSION_DEFINITION -->
<g id="node9" class="node">
<title>TABL&#45;CMIS_S_PERMISSION_DEFINITION</title>
<g id="a_node9"><a xlink:href="./TABL_CMIS_S_PERMISSION_DEFINITION.html" xlink:title="TABL&#45;CMIS_S_PERMISSION_DEFINITION">
<polygon fill="none" stroke="green" points="313.22,-396 30.76,-396 30.76,-360 313.22,-360 313.22,-396"/>
<text text-anchor="middle" x="171.99" y="-373.8" font-family="Times,serif" font-size="14.00">TABL&#45;CMIS_S_PERMISSION_DEFINITION</text>
</a>
</g>
</g>
<!-- TTYP&#45;CMIS_T_PERMISSION_DEFINITION&#45;&gt;TABL&#45;CMIS_S_PERMISSION_DEFINITION -->
<g id="edge11" class="edge">
<title>TTYP&#45;CMIS_T_PERMISSION_DEFINITION&#45;&gt;TABL&#45;CMIS_S_PERMISSION_DEFINITION</title>
<path fill="none" stroke="black" d="M171.99,-431.7C171.99,-423.98 171.99,-414.71 171.99,-406.11"/>
<polygon fill="black" stroke="black" points="175.49,-406.1 171.99,-396.1 168.49,-406.1 175.49,-406.1"/>
</g>
<!-- TABL&#45;CMIS_S_PERMISSION_DEFINITION&#45;&gt;TTYP&#45;CMIS_T_EXTENSION -->
<g id="edge13" class="edge">
<title>TABL&#45;CMIS_S_PERMISSION_DEFINITION&#45;&gt;TTYP&#45;CMIS_T_EXTENSION</title>
<path fill="none" stroke="black" d="M169.27,-359.7C168.06,-351.98 166.6,-342.71 165.25,-334.11"/>
<polygon fill="black" stroke="black" points="168.69,-333.44 163.68,-324.1 161.77,-334.53 168.69,-333.44"/>
</g>
<!-- TABL&#45;CMIS_S_PERMISSION_DEFINITION&#45;&gt;DTEL&#45;CMIS_STRING -->
<g id="edge12" class="edge">
<title>TABL&#45;CMIS_S_PERMISSION_DEFINITION&#45;&gt;DTEL&#45;CMIS_STRING</title>
<path fill="none" stroke="black" d="M215.03,-359.82C261.2,-338.2 327.99,-296.34 327.99,-235 327.99,-235 327.99,-235 327.99,-161 327.99,-117.08 302.22,-71.73 283.39,-44.44"/>
<polygon fill="black" stroke="black" points="286.21,-42.37 277.56,-36.24 280.5,-46.42 286.21,-42.37"/>
</g>
<!-- TABL&#45;CMIS_S_PERMISSION_MAPPING -->
<g id="node11" class="node">
<title>TABL&#45;CMIS_S_PERMISSION_MAPPING</title>
<g id="a_node11"><a xlink:href="./TABL_CMIS_S_PERMISSION_MAPPING.html" xlink:title="TABL&#45;CMIS_S_PERMISSION_MAPPING">
<polygon fill="none" stroke="green" points="598.41,-396 331.56,-396 331.56,-360 598.41,-360 598.41,-396"/>
<text text-anchor="middle" x="464.99" y="-373.8" font-family="Times,serif" font-size="14.00">TABL&#45;CMIS_S_PERMISSION_MAPPING</text>
</a>
</g>
</g>
<!-- TTYP&#45;CMIS_T_PERMISSION_MAPPING&#45;&gt;TABL&#45;CMIS_S_PERMISSION_MAPPING -->
<g id="edge14" class="edge">
<title>TTYP&#45;CMIS_T_PERMISSION_MAPPING&#45;&gt;TABL&#45;CMIS_S_PERMISSION_MAPPING</title>
<path fill="none" stroke="black" d="M464.23,-431.7C464.34,-423.98 464.48,-414.71 464.6,-406.11"/>
<polygon fill="black" stroke="black" points="468.1,-406.15 464.74,-396.1 461.1,-406.05 468.1,-406.15"/>
</g>
<!-- TABL&#45;CMIS_S_PERMISSION_MAPPING&#45;&gt;TTYP&#45;CMIS_T_EXTENSION -->
<g id="edge17" class="edge">
<title>TABL&#45;CMIS_S_PERMISSION_MAPPING&#45;&gt;TTYP&#45;CMIS_T_EXTENSION</title>
<path fill="none" stroke="black" d="M391.01,-359.97C346.88,-349.8 290.72,-336.87 244.93,-326.33"/>
<polygon fill="black" stroke="black" points="245.56,-322.88 235.03,-324.05 243.99,-329.7 245.56,-322.88"/>
</g>
<!-- TABL&#45;CMIS_S_PERMISSION_MAPPING&#45;&gt;DTEL&#45;CMIS_STRING -->
<g id="edge15" class="edge">
<title>TABL&#45;CMIS_S_PERMISSION_MAPPING&#45;&gt;DTEL&#45;CMIS_STRING</title>
<path fill="none" stroke="black" d="M427.09,-359.96C411.82,-351.28 395.4,-339.28 384.99,-324 362.22,-290.57 365.99,-275.45 365.99,-235 365.99,-235 365.99,-235 365.99,-161 365.99,-111.82 325.13,-68.01 295.13,-42.48"/>
<polygon fill="black" stroke="black" points="297.33,-39.75 287.39,-36.08 292.87,-45.15 297.33,-39.75"/>
</g>
<!-- TTYP&#45;CMIS_T_STRING -->
<g id="node12" class="node">
<title>TTYP&#45;CMIS_T_STRING</title>
<g id="a_node12"><a xlink:href="./TTYP_CMIS_T_STRING.html" xlink:title="TTYP&#45;CMIS_T_STRING">
<polygon fill="none" stroke="green" points="556.46,-324 393.51,-324 393.51,-288 556.46,-288 556.46,-324"/>
<text text-anchor="middle" x="474.99" y="-301.8" font-family="Times,serif" font-size="14.00">TTYP&#45;CMIS_T_STRING</text>
</a>
</g>
</g>
<!-- TABL&#45;CMIS_S_PERMISSION_MAPPING&#45;&gt;TTYP&#45;CMIS_T_STRING -->
<g id="edge16" class="edge">
<title>TABL&#45;CMIS_S_PERMISSION_MAPPING&#45;&gt;TTYP&#45;CMIS_T_STRING</title>
<path fill="none" stroke="black" d="M467.46,-359.7C468.56,-351.98 469.89,-342.71 471.11,-334.11"/>
<polygon fill="black" stroke="black" points="474.59,-334.5 472.54,-324.1 467.66,-333.51 474.59,-334.5"/>
</g>
</g>
</svg>
