<?xml version="1.0" encoding="UTF-8" standalone="no"?>
<!DOCTYPE svg PUBLIC "-//W3C//DTD SVG 1.1//EN"
 "http://www.w3.org/Graphics/SVG/1.1/DTD/svg11.dtd">
<!-- Generated by graphviz version 2.47.3 (20210619.1520)
 -->
<!-- Title: G Pages: 1 -->
<svg width="478pt" height="620pt"
 viewBox="0.00 0.00 478.16 620.00" xmlns="http://www.w3.org/2000/svg" xmlns:xlink="http://www.w3.org/1999/xlink">
<g id="graph0" class="graph" transform="scale(1 1) rotate(0) translate(4 616)">
<title>G</title>
<polygon fill="white" stroke="transparent" points="-4,4 -4,-616 474.16,-616 474.16,4 -4,4"/>
<!-- TABL&#45;CMIS_S_ACL -->
<g id="node1" class="node">
<title>TABL&#45;CMIS_S_ACL</title>
<polygon fill="none" stroke="green" points="352.72,-612 211.3,-612 211.3,-576 352.72,-576 352.72,-612"/>
<text text-anchor="middle" x="282.01" y="-589.8" font-family="Times,serif" font-size="14.00">TABL&#45;CMIS_S_ACL</text>
</g>
<!-- TTYP&#45;CMIS_T_EXTENSION -->
<g id="node2" class="node">
<title>TTYP&#45;CMIS_T_EXTENSION</title>
<g id="a_node2"><a xlink:href="./TTYP_CMIS_T_EXTENSION.html" xlink:title="TTYP&#45;CMIS_T_EXTENSION">
<polygon fill="none" stroke="green" points="321.47,-324 130.55,-324 130.55,-288 321.47,-288 321.47,-324"/>
<text text-anchor="middle" x="226.01" y="-301.8" font-family="Times,serif" font-size="14.00">TTYP&#45;CMIS_T_EXTENSION</text>
</a>
</g>
</g>
<!-- TABL&#45;CMIS_S_ACL&#45;&gt;TTYP&#45;CMIS_T_EXTENSION -->
<g id="edge3" class="edge">
<title>TABL&#45;CMIS_S_ACL&#45;&gt;TTYP&#45;CMIS_T_EXTENSION</title>
<path fill="none" stroke="black" d="M280.93,-575.93C278.86,-546.37 273.56,-483.85 263.01,-432 256.37,-399.34 251.5,-391.96 242.01,-360 239.48,-351.48 236.7,-342.21 234.17,-333.83"/>
<polygon fill="black" stroke="black" points="237.49,-332.73 231.24,-324.17 230.79,-334.76 237.49,-332.73"/>
</g>
<!-- DTEL&#45;BOOLEAN -->
<g id="node8" class="node">
<title>DTEL&#45;BOOLEAN</title>
<g id="a_node8"><a xlink:href="./DTEL_BOOLEAN.html" xlink:title="DTEL&#45;BOOLEAN">
<polygon fill="none" stroke="yellow" points="433.81,-396 310.22,-396 310.22,-360 433.81,-360 433.81,-396"/>
<text text-anchor="middle" x="372.01" y="-373.8" font-family="Times,serif" font-size="14.00">DTEL&#45;BOOLEAN</text>
</a>
</g>
</g>
<!-- TABL&#45;CMIS_S_ACL&#45;&gt;DTEL&#45;BOOLEAN -->
<g id="edge2" class="edge">
<title>TABL&#45;CMIS_S_ACL&#45;&gt;DTEL&#45;BOOLEAN</title>
<path fill="none" stroke="black" d="M289.22,-575.85C304.89,-538.6 342.12,-450.07 360.85,-405.54"/>
<polygon fill="black" stroke="black" points="364.11,-406.81 364.76,-396.23 357.66,-404.09 364.11,-406.81"/>
</g>
<!-- TTYP&#45;CMIS_T_ACE -->
<g id="node10" class="node">
<title>TTYP&#45;CMIS_T_ACE</title>
<g id="a_node10"><a xlink:href="./TTYP_CMIS_T_ACE.html" xlink:title="TTYP&#45;CMIS_T_ACE">
<polygon fill="none" stroke="green" points="254.44,-540 113.58,-540 113.58,-504 254.44,-504 254.44,-540"/>
<text text-anchor="middle" x="184.01" y="-517.8" font-family="Times,serif" font-size="14.00">TTYP&#45;CMIS_T_ACE</text>
</a>
</g>
</g>
<!-- TABL&#45;CMIS_S_ACL&#45;&gt;TTYP&#45;CMIS_T_ACE -->
<g id="edge1" class="edge">
<title>TABL&#45;CMIS_S_ACL&#45;&gt;TTYP&#45;CMIS_T_ACE</title>
<path fill="none" stroke="black" d="M258.04,-575.88C245.46,-566.89 229.88,-555.76 216.26,-546.03"/>
<polygon fill="black" stroke="black" points="218.25,-543.15 208.08,-540.19 214.18,-548.85 218.25,-543.15"/>
</g>
<!-- TABL&#45;CMIS_S_EXTENSION -->
<g id="node3" class="node">
<title>TABL&#45;CMIS_S_EXTENSION</title>
<g id="a_node3"><a xlink:href="./TABL_CMIS_S_EXTENSION.html" xlink:title="TABL&#45;CMIS_S_EXTENSION">
<polygon fill="none" stroke="green" points="321.76,-252 130.27,-252 130.27,-216 321.76,-216 321.76,-252"/>
<text text-anchor="middle" x="226.01" y="-229.8" font-family="Times,serif" font-size="14.00">TABL&#45;CMIS_S_EXTENSION</text>
</a>
</g>
</g>
<!-- TTYP&#45;CMIS_T_EXTENSION&#45;&gt;TABL&#45;CMIS_S_EXTENSION -->
<g id="edge4" class="edge">
<title>TTYP&#45;CMIS_T_EXTENSION&#45;&gt;TABL&#45;CMIS_S_EXTENSION</title>
<path fill="none" stroke="black" d="M226.01,-287.7C226.01,-279.98 226.01,-270.71 226.01,-262.11"/>
<polygon fill="black" stroke="black" points="229.51,-262.1 226.01,-252.1 222.51,-262.1 229.51,-262.1"/>
</g>
<!-- TTYP&#45;CMIS_T_MAP -->
<g id="node4" class="node">
<title>TTYP&#45;CMIS_T_MAP</title>
<g id="a_node4"><a xlink:href="./TTYP_CMIS_T_MAP.html" xlink:title="TTYP&#45;CMIS_T_MAP">
<polygon fill="none" stroke="green" points="410.28,-180 267.75,-180 267.75,-144 410.28,-144 410.28,-180"/>
<text text-anchor="middle" x="339.01" y="-157.8" font-family="Times,serif" font-size="14.00">TTYP&#45;CMIS_T_MAP</text>
</a>
</g>
</g>
<!-- TABL&#45;CMIS_S_EXTENSION&#45;&gt;TTYP&#45;CMIS_T_MAP -->
<g id="edge7" class="edge">
<title>TABL&#45;CMIS_S_EXTENSION&#45;&gt;TTYP&#45;CMIS_T_MAP</title>
<path fill="none" stroke="black" d="M253.65,-215.88C268.43,-206.72 286.8,-195.34 302.71,-185.48"/>
<polygon fill="black" stroke="black" points="304.6,-188.43 311.26,-180.19 300.92,-182.48 304.6,-188.43"/>
</g>
<!-- DTEL&#45;CMIS_STRING -->
<g id="node6" class="node">
<title>DTEL&#45;CMIS_STRING</title>
<g id="a_node6"><a xlink:href="./DTEL_CMIS_STRING.html" xlink:title="DTEL&#45;CMIS_STRING">
<polygon fill="none" stroke="green" points="216.21,-36 67.82,-36 67.82,0 216.21,0 216.21,-36"/>
<text text-anchor="middle" x="142.01" y="-13.8" font-family="Times,serif" font-size="14.00">DTEL&#45;CMIS_STRING</text>
</a>
</g>
</g>
<!-- TABL&#45;CMIS_S_EXTENSION&#45;&gt;DTEL&#45;CMIS_STRING -->
<g id="edge6" class="edge">
<title>TABL&#45;CMIS_S_EXTENSION&#45;&gt;DTEL&#45;CMIS_STRING</title>
<path fill="none" stroke="black" d="M223.76,-215.89C221.04,-197.69 215.72,-168.24 207.01,-144 194.1,-108.08 172.78,-69.5 158.09,-44.85"/>
<polygon fill="black" stroke="black" points="160.99,-42.87 152.82,-36.12 155,-46.49 160.99,-42.87"/>
</g>
<!-- DTEL&#45;CMIS_ID -->
<g id="node7" class="node">
<title>DTEL&#45;CMIS_ID</title>
<g id="a_node7"><a xlink:href="./DTEL_CMIS_ID.html" xlink:title="DTEL&#45;CMIS_ID">
<polygon fill="none" stroke="green" points="198.43,-180 85.59,-180 85.59,-144 198.43,-144 198.43,-180"/>
<text text-anchor="middle" x="142.01" y="-157.8" font-family="Times,serif" font-size="14.00">DTEL&#45;CMIS_ID</text>
</a>
</g>
</g>
<!-- TABL&#45;CMIS_S_EXTENSION&#45;&gt;DTEL&#45;CMIS_ID -->
<g id="edge5" class="edge">
<title>TABL&#45;CMIS_S_EXTENSION&#45;&gt;DTEL&#45;CMIS_ID</title>
<path fill="none" stroke="black" d="M205.25,-215.7C194.77,-206.97 181.9,-196.24 170.51,-186.75"/>
<polygon fill="black" stroke="black" points="172.46,-183.82 162.54,-180.1 167.98,-189.19 172.46,-183.82"/>
</g>
<!-- TABL&#45;CMIS_S_KEY_VALUE -->
<g id="node5" class="node">
<title>TABL&#45;CMIS_S_KEY_VALUE</title>
<g id="a_node5"><a xlink:href="./TABL_CMIS_S_KEY_VALUE.html" xlink:title="TABL&#45;CMIS_S_KEY_VALUE">
<polygon fill="none" stroke="green" points="450.42,-108 253.6,-108 253.6,-72 450.42,-72 450.42,-108"/>
<text text-anchor="middle" x="352.01" y="-85.8" font-family="Times,serif" font-size="14.00">TABL&#45;CMIS_S_KEY_VALUE</text>
</a>
</g>
</g>
<!-- TTYP&#45;CMIS_T_MAP&#45;&gt;TABL&#45;CMIS_S_KEY_VALUE -->
<g id="edge8" class="edge">
<title>TTYP&#45;CMIS_T_MAP&#45;&gt;TABL&#45;CMIS_S_KEY_VALUE</title>
<path fill="none" stroke="black" d="M342.23,-143.7C343.66,-135.98 345.38,-126.71 346.98,-118.11"/>
<polygon fill="black" stroke="black" points="350.45,-118.58 348.84,-108.1 343.57,-117.3 350.45,-118.58"/>
</g>
<!-- TABL&#45;CMIS_S_KEY_VALUE&#45;&gt;DTEL&#45;CMIS_STRING -->
<g id="edge9" class="edge">
<title>TABL&#45;CMIS_S_KEY_VALUE&#45;&gt;DTEL&#45;CMIS_STRING</title>
<path fill="none" stroke="black" d="M300.91,-71.97C271.44,-62.14 234.2,-49.73 203.18,-39.39"/>
<polygon fill="black" stroke="black" points="203.94,-35.95 193.34,-36.11 201.72,-42.59 203.94,-35.95"/>
</g>
<!-- DOMA&#45;BOOLEAN -->
<g id="node9" class="node">
<title>DOMA&#45;BOOLEAN</title>
<g id="a_node9"><a xlink:href="./DOMA_BOOLEAN.html" xlink:title="DOMA&#45;BOOLEAN">
<polygon fill="none" stroke="yellow" points="470.31,-324 339.72,-324 339.72,-288 470.31,-288 470.31,-324"/>
<text text-anchor="middle" x="405.01" y="-301.8" font-family="Times,serif" font-size="14.00">DOMA&#45;BOOLEAN</text>
</a>
</g>
</g>
<!-- DTEL&#45;BOOLEAN&#45;&gt;DOMA&#45;BOOLEAN -->
<g id="edge10" class="edge">
<title>DTEL&#45;BOOLEAN&#45;&gt;DOMA&#45;BOOLEAN</title>
<path fill="none" stroke="black" d="M380.17,-359.7C383.93,-351.73 388.46,-342.1 392.63,-333.26"/>
<polygon fill="black" stroke="black" points="395.85,-334.64 396.95,-324.1 389.52,-331.66 395.85,-334.64"/>
</g>
<!-- TABL&#45;CMIS_S_ACE -->
<g id="node11" class="node">
<title>TABL&#45;CMIS_S_ACE</title>
<g id="a_node11"><a xlink:href="./TABL_CMIS_S_ACE.html" xlink:title="TABL&#45;CMIS_S_ACE">
<polygon fill="none" stroke="green" points="253.72,-468 112.3,-468 112.3,-432 253.72,-432 253.72,-468"/>
<text text-anchor="middle" x="183.01" y="-445.8" font-family="Times,serif" font-size="14.00">TABL&#45;CMIS_S_ACE</text>
</a>
</g>
</g>
<!-- TTYP&#45;CMIS_T_ACE&#45;&gt;TABL&#45;CMIS_S_ACE -->
<g id="edge11" class="edge">
<title>TTYP&#45;CMIS_T_ACE&#45;&gt;TABL&#45;CMIS_S_ACE</title>
<path fill="none" stroke="black" d="M183.76,-503.7C183.65,-495.98 183.52,-486.71 183.4,-478.11"/>
<polygon fill="black" stroke="black" points="186.9,-478.05 183.26,-468.1 179.9,-478.15 186.9,-478.05"/>
</g>
<!-- TABL&#45;CMIS_S_ACE&#45;&gt;TTYP&#45;CMIS_T_EXTENSION -->
<g id="edge15" class="edge">
<title>TABL&#45;CMIS_S_ACE&#45;&gt;TTYP&#45;CMIS_T_EXTENSION</title>
<path fill="none" stroke="black" d="M201.55,-431.73C210.46,-422.17 220.23,-409.5 225.01,-396 232.01,-376.25 231.88,-352.45 230.2,-334.43"/>
<polygon fill="black" stroke="black" points="233.66,-333.84 229.04,-324.3 226.7,-334.64 233.66,-333.84"/>
</g>
<!-- TABL&#45;CMIS_S_ACE&#45;&gt;DTEL&#45;CMIS_STRING -->
<g id="edge13" class="edge">
<title>TABL&#45;CMIS_S_ACE&#45;&gt;DTEL&#45;CMIS_STRING</title>
<path fill="none" stroke="black" d="M112.07,-441.86C79.99,-435.03 44.16,-421.74 21.01,-396 -6.04,-365.93 2.01,-347.45 2.01,-307 2.01,-307 2.01,-307 2.01,-161 2.01,-106.01 55.91,-64.59 96.82,-41.07"/>
<polygon fill="black" stroke="black" points="98.56,-44.11 105.59,-36.19 95.15,-38 98.56,-44.11"/>
</g>
<!-- TABL&#45;CMIS_S_ACE&#45;&gt;DTEL&#45;BOOLEAN -->
<g id="edge14" class="edge">
<title>TABL&#45;CMIS_S_ACE&#45;&gt;DTEL&#45;BOOLEAN</title>
<path fill="none" stroke="black" d="M229.25,-431.88C255.54,-422.14 288.66,-409.87 316.37,-399.61"/>
<polygon fill="black" stroke="black" points="317.77,-402.82 325.93,-396.07 315.33,-396.26 317.77,-402.82"/>
</g>
<!-- TABL&#45;CMIS_S_PRINCIPAL -->
<g id="node12" class="node">
<title>TABL&#45;CMIS_S_PRINCIPAL</title>
<g id="a_node12"><a xlink:href="./TABL_CMIS_S_PRINCIPAL.html" xlink:title="TABL&#45;CMIS_S_PRINCIPAL">
<polygon fill="none" stroke="green" points="215.55,-396 30.47,-396 30.47,-360 215.55,-360 215.55,-396"/>
<text text-anchor="middle" x="123.01" y="-373.8" font-family="Times,serif" font-size="14.00">TABL&#45;CMIS_S_PRINCIPAL</text>
</a>
</g>
</g>
<!-- TABL&#45;CMIS_S_ACE&#45;&gt;TABL&#45;CMIS_S_PRINCIPAL -->
<g id="edge12" class="edge">
<title>TABL&#45;CMIS_S_ACE&#45;&gt;TABL&#45;CMIS_S_PRINCIPAL</title>
<path fill="none" stroke="black" d="M168.18,-431.7C160.99,-423.3 152.22,-413.07 144.32,-403.86"/>
<polygon fill="black" stroke="black" points="146.84,-401.42 137.67,-396.1 141.52,-405.97 146.84,-401.42"/>
</g>
<!-- TABL&#45;CMIS_S_PRINCIPAL&#45;&gt;TTYP&#45;CMIS_T_EXTENSION -->
<g id="edge17" class="edge">
<title>TABL&#45;CMIS_S_PRINCIPAL&#45;&gt;TTYP&#45;CMIS_T_EXTENSION</title>
<path fill="none" stroke="black" d="M148.21,-359.88C161.43,-350.89 177.8,-339.76 192.12,-330.03"/>
<polygon fill="black" stroke="black" points="194.41,-332.71 200.72,-324.19 190.48,-326.92 194.41,-332.71"/>
</g>
<!-- TABL&#45;CMIS_S_PRINCIPAL&#45;&gt;DTEL&#45;CMIS_STRING -->
<g id="edge16" class="edge">
<title>TABL&#45;CMIS_S_PRINCIPAL&#45;&gt;DTEL&#45;CMIS_STRING</title>
<path fill="none" stroke="black" d="M109.23,-359.79C90.15,-334.18 58.01,-283.8 58.01,-235 58.01,-235 58.01,-235 58.01,-161 58.01,-114.6 91.65,-70.06 116.36,-43.6"/>
<polygon fill="black" stroke="black" points="118.96,-45.95 123.37,-36.31 113.91,-41.09 118.96,-45.95"/>
</g>
</g>
</svg>
