<?xml version="1.0" encoding="UTF-8" standalone="no"?>
<!DOCTYPE svg PUBLIC "-//W3C//DTD SVG 1.1//EN"
 "http://www.w3.org/Graphics/SVG/1.1/DTD/svg11.dtd">
<!-- Generated by graphviz version 2.47.3 (20210619.1520)
 -->
<!-- Title: G Pages: 1 -->
<svg width="392pt" height="188pt"
 viewBox="0.00 0.00 392.31 188.00" xmlns="http://www.w3.org/2000/svg" xmlns:xlink="http://www.w3.org/1999/xlink">
<g id="graph0" class="graph" transform="scale(1 1) rotate(0) translate(4 184)">
<title>G</title>
<polygon fill="white" stroke="transparent" points="-4,4 -4,-184 388.31,-184 388.31,4 -4,4"/>
<!-- TABL&#45;CDOBJECTV_RANGE -->
<g id="node1" class="node">
<title>TABL&#45;CDOBJECTV_RANGE</title>
<polygon fill="none" stroke="yellow" points="303.45,-180 109.85,-180 109.85,-144 303.45,-144 303.45,-180"/>
<text text-anchor="middle" x="206.65" y="-157.8" font-family="Times,serif" font-size="14.00">TABL&#45;CDOBJECTV_RANGE</text>
</g>
<!-- DTEL&#45;CDOBJECTV -->
<g id="node2" class="node">
<title>DTEL&#45;CDOBJECTV</title>
<g id="a_node2"><a xlink:href="./DTEL_CDOBJECTV.html" xlink:title="DTEL&#45;CDOBJECTV">
<polygon fill="none" stroke="yellow" points="137.46,-108 -0.15,-108 -0.15,-72 137.46,-72 137.46,-108"/>
<text text-anchor="middle" x="68.65" y="-85.8" font-family="Times,serif" font-size="14.00">DTEL&#45;CDOBJECTV</text>
</a>
</g>
</g>
<!-- TABL&#45;CDOBJECTV_RANGE&#45;&gt;DTEL&#45;CDOBJECTV -->
<g id="edge3" class="edge">
<title>TABL&#45;CDOBJECTV_RANGE&#45;&gt;DTEL&#45;CDOBJECTV</title>
<path fill="none" stroke="black" d="M172.89,-143.88C154.43,-134.51 131.37,-122.81 111.64,-112.8"/>
<polygon fill="black" stroke="black" points="113.04,-109.59 102.54,-108.19 109.88,-115.83 113.04,-109.59"/>
</g>
<!-- DTEL&#45;CHAR2 -->
<g id="node4" class="node">
<title>DTEL&#45;CHAR2</title>
<g id="a_node4"><a xlink:href="./DTEL_CHAR2.html" xlink:title="DTEL&#45;CHAR2">
<polygon fill="none" stroke="yellow" points="257.96,-108 155.34,-108 155.34,-72 257.96,-72 257.96,-108"/>
<text text-anchor="middle" x="206.65" y="-85.8" font-family="Times,serif" font-size="14.00">DTEL&#45;CHAR2</text>
</a>
</g>
</g>
<!-- TABL&#45;CDOBJECTV_RANGE&#45;&gt;DTEL&#45;CHAR2 -->
<g id="edge2" class="edge">
<title>TABL&#45;CDOBJECTV_RANGE&#45;&gt;DTEL&#45;CHAR2</title>
<path fill="none" stroke="black" d="M206.65,-143.7C206.65,-135.98 206.65,-126.71 206.65,-118.11"/>
<polygon fill="black" stroke="black" points="210.15,-118.1 206.65,-108.1 203.15,-118.1 210.15,-118.1"/>
</g>
<!-- DTEL&#45;CHAR1 -->
<g id="node6" class="node">
<title>DTEL&#45;CHAR1</title>
<g id="a_node6"><a xlink:href="./DTEL_CHAR1.html" xlink:title="DTEL&#45;CHAR1">
<polygon fill="none" stroke="yellow" points="377.96,-108 275.34,-108 275.34,-72 377.96,-72 377.96,-108"/>
<text text-anchor="middle" x="326.65" y="-85.8" font-family="Times,serif" font-size="14.00">DTEL&#45;CHAR1</text>
</a>
</g>
</g>
<!-- TABL&#45;CDOBJECTV_RANGE&#45;&gt;DTEL&#45;CHAR1 -->
<g id="edge1" class="edge">
<title>TABL&#45;CDOBJECTV_RANGE&#45;&gt;DTEL&#45;CHAR1</title>
<path fill="none" stroke="black" d="M236.01,-143.88C251.7,-134.72 271.21,-123.34 288.11,-113.48"/>
<polygon fill="black" stroke="black" points="290.31,-116.25 297.18,-108.19 286.78,-110.21 290.31,-116.25"/>
</g>
<!-- DOMA&#45;CHAR90 -->
<g id="node3" class="node">
<title>DOMA&#45;CHAR90</title>
<g id="a_node3"><a xlink:href="./DOMA_CHAR90.html" xlink:title="DOMA&#45;CHAR90">
<polygon fill="none" stroke="yellow" points="126.96,-36 10.34,-36 10.34,0 126.96,0 126.96,-36"/>
<text text-anchor="middle" x="68.65" y="-13.8" font-family="Times,serif" font-size="14.00">DOMA&#45;CHAR90</text>
</a>
</g>
</g>
<!-- DTEL&#45;CDOBJECTV&#45;&gt;DOMA&#45;CHAR90 -->
<g id="edge4" class="edge">
<title>DTEL&#45;CDOBJECTV&#45;&gt;DOMA&#45;CHAR90</title>
<path fill="none" stroke="black" d="M68.65,-71.7C68.65,-63.98 68.65,-54.71 68.65,-46.11"/>
<polygon fill="black" stroke="black" points="72.15,-46.1 68.65,-36.1 65.15,-46.1 72.15,-46.1"/>
</g>
<!-- DOMA&#45;CHAR2 -->
<g id="node5" class="node">
<title>DOMA&#45;CHAR2</title>
<g id="a_node5"><a xlink:href="./DOMA_CHAR2.html" xlink:title="DOMA&#45;CHAR2">
<polygon fill="none" stroke="yellow" points="257.46,-36 147.84,-36 147.84,0 257.46,0 257.46,-36"/>
<text text-anchor="middle" x="202.65" y="-13.8" font-family="Times,serif" font-size="14.00">DOMA&#45;CHAR2</text>
</a>
</g>
</g>
<!-- DTEL&#45;CHAR2&#45;&gt;DOMA&#45;CHAR2 -->
<g id="edge5" class="edge">
<title>DTEL&#45;CHAR2&#45;&gt;DOMA&#45;CHAR2</title>
<path fill="none" stroke="black" d="M205.66,-71.7C205.22,-63.98 204.69,-54.71 204.2,-46.11"/>
<polygon fill="black" stroke="black" points="207.69,-45.89 203.63,-36.1 200.71,-46.29 207.69,-45.89"/>
</g>
<!-- DOMA&#45;CHAR1 -->
<g id="node7" class="node">
<title>DOMA&#45;CHAR1</title>
<g id="a_node7"><a xlink:href="./DOMA_CHAR1.html" xlink:title="DOMA&#45;CHAR1">
<polygon fill="none" stroke="green" points="384.46,-36 274.84,-36 274.84,0 384.46,0 384.46,-36"/>
<text text-anchor="middle" x="329.65" y="-13.8" font-family="Times,serif" font-size="14.00">DOMA&#45;CHAR1</text>
</a>
</g>
</g>
<!-- DTEL&#45;CHAR1&#45;&gt;DOMA&#45;CHAR1 -->
<g id="edge6" class="edge">
<title>DTEL&#45;CHAR1&#45;&gt;DOMA&#45;CHAR1</title>
<path fill="none" stroke="black" d="M327.39,-71.7C327.72,-63.98 328.12,-54.71 328.49,-46.11"/>
<polygon fill="black" stroke="black" points="331.99,-46.25 328.92,-36.1 324.99,-45.95 331.99,-46.25"/>
</g>
</g>
</svg>
