<?xml version="1.0" encoding="UTF-8" standalone="no"?>
<!DOCTYPE svg PUBLIC "-//W3C//DTD SVG 1.1//EN"
 "http://www.w3.org/Graphics/SVG/1.1/DTD/svg11.dtd">
<!-- Generated by graphviz version 2.47.3 (20210619.1520)
 -->
<!-- Title: G Pages: 1 -->
<svg width="320pt" height="188pt"
 viewBox="0.00 0.00 320.30 188.00" xmlns="http://www.w3.org/2000/svg" xmlns:xlink="http://www.w3.org/1999/xlink">
<g id="graph0" class="graph" transform="scale(1 1) rotate(0) translate(4 184)">
<title>G</title>
<polygon fill="white" stroke="transparent" points="-4,4 -4,-184 316.3,-184 316.3,4 -4,4"/>
<!-- TABL&#45;BUP_S_CURRENT_STATE_COMMDATA -->
<g id="node1" class="node">
<title>TABL&#45;BUP_S_CURRENT_STATE_COMMDATA</title>
<polygon fill="none" stroke="yellow" points="312.45,-180 -0.15,-180 -0.15,-144 312.45,-144 312.45,-180"/>
<text text-anchor="middle" x="156.15" y="-157.8" font-family="Times,serif" font-size="14.00">TABL&#45;BUP_S_CURRENT_STATE_COMMDATA</text>
</g>
<!-- DTEL&#45;ADDR_CURRENT_STATE -->
<g id="node2" class="node">
<title>DTEL&#45;ADDR_CURRENT_STATE</title>
<g id="a_node2"><a xlink:href="./DTEL_ADDR_CURRENT_STATE.html" xlink:title="DTEL&#45;ADDR_CURRENT_STATE">
<polygon fill="none" stroke="yellow" points="265.61,-108 46.69,-108 46.69,-72 265.61,-72 265.61,-108"/>
<text text-anchor="middle" x="156.15" y="-85.8" font-family="Times,serif" font-size="14.00">DTEL&#45;ADDR_CURRENT_STATE</text>
</a>
</g>
</g>
<!-- TABL&#45;BUP_S_CURRENT_STATE_COMMDATA&#45;&gt;DTEL&#45;ADDR_CURRENT_STATE -->
<g id="edge1" class="edge">
<title>TABL&#45;BUP_S_CURRENT_STATE_COMMDATA&#45;&gt;DTEL&#45;ADDR_CURRENT_STATE</title>
<path fill="none" stroke="black" d="M156.15,-143.7C156.15,-135.98 156.15,-126.71 156.15,-118.11"/>
<polygon fill="black" stroke="black" points="159.65,-118.1 156.15,-108.1 152.65,-118.1 159.65,-118.1"/>
</g>
<!-- DOMA&#45;ADDR_CURRENT_STATE -->
<g id="node3" class="node">
<title>DOMA&#45;ADDR_CURRENT_STATE</title>
<g id="a_node3"><a xlink:href="./DOMA_ADDR_CURRENT_STATE.html" xlink:title="DOMA&#45;ADDR_CURRENT_STATE">
<polygon fill="none" stroke="yellow" points="269.11,-36 43.19,-36 43.19,0 269.11,0 269.11,-36"/>
<text text-anchor="middle" x="156.15" y="-13.8" font-family="Times,serif" font-size="14.00">DOMA&#45;ADDR_CURRENT_STATE</text>
</a>
</g>
</g>
<!-- DTEL&#45;ADDR_CURRENT_STATE&#45;&gt;DOMA&#45;ADDR_CURRENT_STATE -->
<g id="edge2" class="edge">
<title>DTEL&#45;ADDR_CURRENT_STATE&#45;&gt;DOMA&#45;ADDR_CURRENT_STATE</title>
<path fill="none" stroke="black" d="M156.15,-71.7C156.15,-63.98 156.15,-54.71 156.15,-46.11"/>
<polygon fill="black" stroke="black" points="159.65,-46.1 156.15,-36.1 152.65,-46.1 159.65,-46.1"/>
</g>
</g>
</svg>
