<?xml version="1.0" encoding="UTF-8" standalone="no"?>
<!DOCTYPE svg PUBLIC "-//W3C//DTD SVG 1.1//EN"
 "http://www.w3.org/Graphics/SVG/1.1/DTD/svg11.dtd">
<!-- Generated by graphviz version 2.47.3 (20210619.1520)
 -->
<!-- Title: G Pages: 1 -->
<svg width="544pt" height="188pt"
 viewBox="0.00 0.00 544.24 188.00" xmlns="http://www.w3.org/2000/svg" xmlns:xlink="http://www.w3.org/1999/xlink">
<g id="graph0" class="graph" transform="scale(1 1) rotate(0) translate(4 184)">
<title>G</title>
<polygon fill="white" stroke="transparent" points="-4,4 -4,-184 540.24,-184 540.24,4 -4,4"/>
<!-- TABL&#45;/BOBF/S_FRW_MESSAGE_D -->
<g id="node1" class="node">
<title>TABL&#45;/BOBF/S_FRW_MESSAGE_D</title>
<polygon fill="none" stroke="yellow" points="339.2,-180 102.99,-180 102.99,-144 339.2,-144 339.2,-180"/>
<text text-anchor="middle" x="221.09" y="-157.8" font-family="Times,serif" font-size="14.00">TABL&#45;/BOBF/S_FRW_MESSAGE_D</text>
</g>
<!-- DTEL&#45;BOOLE_D -->
<g id="node2" class="node">
<title>DTEL&#45;BOOLE_D</title>
<g id="a_node2"><a xlink:href="./DTEL_BOOLE_D.html" xlink:title="DTEL&#45;BOOLE_D">
<polygon fill="none" stroke="yellow" points="120.28,-108 -0.09,-108 -0.09,-72 120.28,-72 120.28,-108"/>
<text text-anchor="middle" x="60.09" y="-85.8" font-family="Times,serif" font-size="14.00">DTEL&#45;BOOLE_D</text>
</a>
</g>
</g>
<!-- TABL&#45;/BOBF/S_FRW_MESSAGE_D&#45;&gt;DTEL&#45;BOOLE_D -->
<g id="edge3" class="edge">
<title>TABL&#45;/BOBF/S_FRW_MESSAGE_D&#45;&gt;DTEL&#45;BOOLE_D</title>
<path fill="none" stroke="black" d="M181.71,-143.88C159.7,-134.31 132.08,-122.3 108.73,-112.15"/>
<polygon fill="black" stroke="black" points="109.92,-108.85 99.35,-108.07 107.13,-115.27 109.92,-108.85"/>
</g>
<!-- DTEL&#45;/BOBF/VAL_KEY -->
<g id="node4" class="node">
<title>DTEL&#45;/BOBF/VAL_KEY</title>
<g id="a_node4"><a xlink:href="./DTEL_%23BOBF%23VAL_KEY.html" xlink:title="DTEL&#45;/BOBF/VAL_KEY">
<polygon fill="none" stroke="yellow" points="303.89,-108 138.29,-108 138.29,-72 303.89,-72 303.89,-108"/>
<text text-anchor="middle" x="221.09" y="-85.8" font-family="Times,serif" font-size="14.00">DTEL&#45;/BOBF/VAL_KEY</text>
</a>
</g>
</g>
<!-- TABL&#45;/BOBF/S_FRW_MESSAGE_D&#45;&gt;DTEL&#45;/BOBF/VAL_KEY -->
<g id="edge2" class="edge">
<title>TABL&#45;/BOBF/S_FRW_MESSAGE_D&#45;&gt;DTEL&#45;/BOBF/VAL_KEY</title>
<path fill="none" stroke="black" d="M221.09,-143.7C221.09,-135.98 221.09,-126.71 221.09,-118.11"/>
<polygon fill="black" stroke="black" points="224.59,-118.1 221.09,-108.1 217.59,-118.1 224.59,-118.1"/>
</g>
<!-- DTEL&#45;/BOBF/OBM_NODE_KEY -->
<g id="node6" class="node">
<title>DTEL&#45;/BOBF/OBM_NODE_KEY</title>
<g id="a_node6"><a xlink:href="./DTEL_%23BOBF%23OBM_NODE_KEY.html" xlink:title="DTEL&#45;/BOBF/OBM_NODE_KEY">
<polygon fill="none" stroke="yellow" points="536.39,-108 321.8,-108 321.8,-72 536.39,-72 536.39,-108"/>
<text text-anchor="middle" x="429.09" y="-85.8" font-family="Times,serif" font-size="14.00">DTEL&#45;/BOBF/OBM_NODE_KEY</text>
</a>
</g>
</g>
<!-- TABL&#45;/BOBF/S_FRW_MESSAGE_D&#45;&gt;DTEL&#45;/BOBF/OBM_NODE_KEY -->
<g id="edge1" class="edge">
<title>TABL&#45;/BOBF/S_FRW_MESSAGE_D&#45;&gt;DTEL&#45;/BOBF/OBM_NODE_KEY</title>
<path fill="none" stroke="black" d="M271.71,-143.97C300.9,-134.14 337.78,-121.73 368.51,-111.39"/>
<polygon fill="black" stroke="black" points="369.89,-114.62 378.25,-108.11 367.66,-107.98 369.89,-114.62"/>
</g>
<!-- DOMA&#45;BOOLE -->
<g id="node3" class="node">
<title>DOMA&#45;BOOLE</title>
<g id="a_node3"><a xlink:href="./DOMA_BOOLE.html" xlink:title="DOMA&#45;BOOLE">
<polygon fill="none" stroke="yellow" points="115.17,-36 5.01,-36 5.01,0 115.17,0 115.17,-36"/>
<text text-anchor="middle" x="60.09" y="-13.8" font-family="Times,serif" font-size="14.00">DOMA&#45;BOOLE</text>
</a>
</g>
</g>
<!-- DTEL&#45;BOOLE_D&#45;&gt;DOMA&#45;BOOLE -->
<g id="edge4" class="edge">
<title>DTEL&#45;BOOLE_D&#45;&gt;DOMA&#45;BOOLE</title>
<path fill="none" stroke="black" d="M60.09,-71.7C60.09,-63.98 60.09,-54.71 60.09,-46.11"/>
<polygon fill="black" stroke="black" points="63.59,-46.1 60.09,-36.1 56.59,-46.1 63.59,-46.1"/>
</g>
<!-- DOMA&#45;/BOBF/CONF_KEY -->
<g id="node5" class="node">
<title>DOMA&#45;/BOBF/CONF_KEY</title>
<g id="a_node5"><a xlink:href="./DOMA_%23BOBF%23CONF_KEY.html" xlink:title="DOMA&#45;/BOBF/CONF_KEY">
<polygon fill="none" stroke="yellow" points="416.46,-36 235.73,-36 235.73,0 416.46,0 416.46,-36"/>
<text text-anchor="middle" x="326.09" y="-13.8" font-family="Times,serif" font-size="14.00">DOMA&#45;/BOBF/CONF_KEY</text>
</a>
</g>
</g>
<!-- DTEL&#45;/BOBF/VAL_KEY&#45;&gt;DOMA&#45;/BOBF/CONF_KEY -->
<g id="edge5" class="edge">
<title>DTEL&#45;/BOBF/VAL_KEY&#45;&gt;DOMA&#45;/BOBF/CONF_KEY</title>
<path fill="none" stroke="black" d="M246.78,-71.88C260.38,-62.81 277.26,-51.55 291.95,-41.76"/>
<polygon fill="black" stroke="black" points="293.93,-44.65 300.31,-36.19 290.05,-38.82 293.93,-44.65"/>
</g>
<!-- DTEL&#45;/BOBF/OBM_NODE_KEY&#45;&gt;DOMA&#45;/BOBF/CONF_KEY -->
<g id="edge6" class="edge">
<title>DTEL&#45;/BOBF/OBM_NODE_KEY&#45;&gt;DOMA&#45;/BOBF/CONF_KEY</title>
<path fill="none" stroke="black" d="M403.9,-71.88C390.68,-62.89 374.3,-51.76 359.99,-42.03"/>
<polygon fill="black" stroke="black" points="361.62,-38.92 351.39,-36.19 357.69,-44.71 361.62,-38.92"/>
</g>
</g>
</svg>
