<?xml version="1.0" encoding="UTF-8" standalone="no"?>
<!DOCTYPE svg PUBLIC "-//W3C//DTD SVG 1.1//EN"
 "http://www.w3.org/Graphics/SVG/1.1/DTD/svg11.dtd">
<!-- Generated by graphviz version 2.47.3 (20210619.1520)
 -->
<!-- Title: G Pages: 1 -->
<svg width="1309pt" height="188pt"
 viewBox="0.00 0.00 1308.53 188.00" xmlns="http://www.w3.org/2000/svg" xmlns:xlink="http://www.w3.org/1999/xlink">
<g id="graph0" class="graph" transform="scale(1 1) rotate(0) translate(4 184)">
<title>G</title>
<polygon fill="white" stroke="transparent" points="-4,4 -4,-184 1304.53,-184 1304.53,4 -4,4"/>
<!-- TABL&#45;E070 -->
<g id="node1" class="node">
<title>TABL&#45;E070</title>
<polygon fill="none" stroke="yellow" points="653.75,-180 567.23,-180 567.23,-144 653.75,-144 653.75,-180"/>
<text text-anchor="middle" x="610.49" y="-157.8" font-family="Times,serif" font-size="14.00">TABL&#45;E070</text>
</g>
<!-- DTEL&#45;STRKORR -->
<g id="node2" class="node">
<title>DTEL&#45;STRKORR</title>
<g id="a_node2"><a xlink:href="./DTEL_STRKORR.html" xlink:title="DTEL&#45;STRKORR">
<polygon fill="none" stroke="yellow" points="120.97,-108 0.01,-108 0.01,-72 120.97,-72 120.97,-108"/>
<text text-anchor="middle" x="60.49" y="-85.8" font-family="Times,serif" font-size="14.00">DTEL&#45;STRKORR</text>
</a>
</g>
</g>
<!-- TABL&#45;E070&#45;&gt;DTEL&#45;STRKORR -->
<g id="edge9" class="edge">
<title>TABL&#45;E070&#45;&gt;DTEL&#45;STRKORR</title>
<path fill="none" stroke="black" d="M567.1,-158.15C484.11,-152.27 297.05,-137.02 130.88,-108.12"/>
<polygon fill="black" stroke="black" points="131.43,-104.67 120.98,-106.38 130.22,-111.56 131.43,-104.67"/>
</g>
<!-- DTEL&#45;AS4TIME -->
<g id="node4" class="node">
<title>DTEL&#45;AS4TIME</title>
<g id="a_node4"><a xlink:href="./DTEL_AS4TIME.html" xlink:title="DTEL&#45;AS4TIME">
<polygon fill="none" stroke="yellow" points="385.02,-108 269.97,-108 269.97,-72 385.02,-72 385.02,-108"/>
<text text-anchor="middle" x="327.49" y="-85.8" font-family="Times,serif" font-size="14.00">DTEL&#45;AS4TIME</text>
</a>
</g>
</g>
<!-- TABL&#45;E070&#45;&gt;DTEL&#45;AS4TIME -->
<g id="edge8" class="edge">
<title>TABL&#45;E070&#45;&gt;DTEL&#45;AS4TIME</title>
<path fill="none" stroke="black" d="M567.03,-150.44C525.43,-140.31 460.67,-124.48 394.93,-108.1"/>
<polygon fill="black" stroke="black" points="395.78,-104.7 385.23,-105.68 394.08,-111.5 395.78,-104.7"/>
</g>
<!-- DTEL&#45;AS4DATE -->
<g id="node6" class="node">
<title>DTEL&#45;AS4DATE</title>
<g id="a_node6"><a xlink:href="./DTEL_AS4DATE.html" xlink:title="DTEL&#45;AS4DATE">
<polygon fill="none" stroke="yellow" points="521.62,-108 403.36,-108 403.36,-72 521.62,-72 521.62,-108"/>
<text text-anchor="middle" x="462.49" y="-85.8" font-family="Times,serif" font-size="14.00">DTEL&#45;AS4DATE</text>
</a>
</g>
</g>
<!-- TABL&#45;E070&#45;&gt;DTEL&#45;AS4DATE -->
<g id="edge7" class="edge">
<title>TABL&#45;E070&#45;&gt;DTEL&#45;AS4DATE</title>
<path fill="none" stroke="black" d="M574.29,-143.88C554.23,-134.39 529.12,-122.51 507.78,-112.42"/>
<polygon fill="black" stroke="black" points="509.12,-109.18 498.58,-108.07 506.12,-115.51 509.12,-109.18"/>
</g>
<!-- DTEL&#45;TR_AS4USER -->
<g id="node8" class="node">
<title>DTEL&#45;TR_AS4USER</title>
<g id="a_node8"><a xlink:href="./DTEL_TR_AS4USER.html" xlink:title="DTEL&#45;TR_AS4USER">
<polygon fill="none" stroke="yellow" points="681.47,-108 539.51,-108 539.51,-72 681.47,-72 681.47,-108"/>
<text text-anchor="middle" x="610.49" y="-85.8" font-family="Times,serif" font-size="14.00">DTEL&#45;TR_AS4USER</text>
</a>
</g>
</g>
<!-- TABL&#45;E070&#45;&gt;DTEL&#45;TR_AS4USER -->
<g id="edge6" class="edge">
<title>TABL&#45;E070&#45;&gt;DTEL&#45;TR_AS4USER</title>
<path fill="none" stroke="black" d="M610.49,-143.7C610.49,-135.98 610.49,-126.71 610.49,-118.11"/>
<polygon fill="black" stroke="black" points="613.99,-118.1 610.49,-108.1 606.99,-118.1 613.99,-118.1"/>
</g>
<!-- DTEL&#45;TRCATEG -->
<g id="node10" class="node">
<title>DTEL&#45;TRCATEG</title>
<g id="a_node10"><a xlink:href="./DTEL_TRCATEG.html" xlink:title="DTEL&#45;TRCATEG">
<polygon fill="none" stroke="yellow" points="819.96,-108 699.02,-108 699.02,-72 819.96,-72 819.96,-108"/>
<text text-anchor="middle" x="759.49" y="-85.8" font-family="Times,serif" font-size="14.00">DTEL&#45;TRCATEG</text>
</a>
</g>
</g>
<!-- TABL&#45;E070&#45;&gt;DTEL&#45;TRCATEG -->
<g id="edge5" class="edge">
<title>TABL&#45;E070&#45;&gt;DTEL&#45;TRCATEG</title>
<path fill="none" stroke="black" d="M646.94,-143.88C667.13,-134.39 692.41,-122.51 713.9,-112.42"/>
<polygon fill="black" stroke="black" points="715.6,-115.49 723.16,-108.07 712.62,-109.15 715.6,-115.49"/>
</g>
<!-- DTEL&#45;TR_TARGET -->
<g id="node12" class="node">
<title>DTEL&#45;TR_TARGET</title>
<g id="a_node12"><a xlink:href="./DTEL_TR_TARGET.html" xlink:title="DTEL&#45;TR_TARGET">
<polygon fill="none" stroke="yellow" points="974.51,-108 838.47,-108 838.47,-72 974.51,-72 974.51,-108"/>
<text text-anchor="middle" x="906.49" y="-85.8" font-family="Times,serif" font-size="14.00">DTEL&#45;TR_TARGET</text>
</a>
</g>
</g>
<!-- TABL&#45;E070&#45;&gt;DTEL&#45;TR_TARGET -->
<g id="edge4" class="edge">
<title>TABL&#45;E070&#45;&gt;DTEL&#45;TR_TARGET</title>
<path fill="none" stroke="black" d="M653.85,-150.75C699.6,-139.93 772.66,-122.65 828.47,-109.45"/>
<polygon fill="black" stroke="black" points="829.4,-112.83 838.33,-107.12 827.79,-106.02 829.4,-112.83"/>
</g>
<!-- DTEL&#45;TRSTATUS -->
<g id="node14" class="node">
<title>DTEL&#45;TRSTATUS</title>
<g id="a_node14"><a xlink:href="./DTEL_TRSTATUS.html" xlink:title="DTEL&#45;TRSTATUS">
<polygon fill="none" stroke="yellow" points="1124.19,-108 996.79,-108 996.79,-72 1124.19,-72 1124.19,-108"/>
<text text-anchor="middle" x="1060.49" y="-85.8" font-family="Times,serif" font-size="14.00">DTEL&#45;TRSTATUS</text>
</a>
</g>
</g>
<!-- TABL&#45;E070&#45;&gt;DTEL&#45;TRSTATUS -->
<g id="edge3" class="edge">
<title>TABL&#45;E070&#45;&gt;DTEL&#45;TRSTATUS</title>
<path fill="none" stroke="black" d="M654.02,-155.91C723.8,-147.5 864.91,-129.48 983.49,-108 984.57,-107.8 985.65,-107.61 986.75,-107.4"/>
<polygon fill="black" stroke="black" points="987.55,-110.81 996.7,-105.48 986.22,-103.94 987.55,-110.81"/>
</g>
<!-- DTEL&#45;TRFUNCTION -->
<g id="node16" class="node">
<title>DTEL&#45;TRFUNCTION</title>
<g id="a_node16"><a xlink:href="./DTEL_TRFUNCTION.html" xlink:title="DTEL&#45;TRFUNCTION">
<polygon fill="none" stroke="yellow" points="1294.06,-108 1148.92,-108 1148.92,-72 1294.06,-72 1294.06,-108"/>
<text text-anchor="middle" x="1221.49" y="-85.8" font-family="Times,serif" font-size="14.00">DTEL&#45;TRFUNCTION</text>
</a>
</g>
</g>
<!-- TABL&#45;E070&#45;&gt;DTEL&#45;TRFUNCTION -->
<g id="edge2" class="edge">
<title>TABL&#45;E070&#45;&gt;DTEL&#45;TRFUNCTION</title>
<path fill="none" stroke="black" d="M654.05,-157.92C743.96,-151.26 956.52,-134.01 1133.49,-108 1135.19,-107.75 1136.9,-107.49 1138.62,-107.22"/>
<polygon fill="black" stroke="black" points="1139.28,-110.66 1148.59,-105.61 1138.16,-103.75 1139.28,-110.66"/>
</g>
<!-- DTEL&#45;TRKORR -->
<g id="node18" class="node">
<title>DTEL&#45;TRKORR</title>
<g id="a_node18"><a xlink:href="./DTEL_TRKORR.html" xlink:title="DTEL&#45;TRKORR">
<polygon fill="none" stroke="yellow" points="252.19,-108 138.79,-108 138.79,-72 252.19,-72 252.19,-108"/>
<text text-anchor="middle" x="195.49" y="-85.8" font-family="Times,serif" font-size="14.00">DTEL&#45;TRKORR</text>
</a>
</g>
</g>
<!-- TABL&#45;E070&#45;&gt;DTEL&#45;TRKORR -->
<g id="edge1" class="edge">
<title>TABL&#45;E070&#45;&gt;DTEL&#45;TRKORR</title>
<path fill="none" stroke="black" d="M567.13,-155.93C502.61,-148.06 377.4,-131.53 262.18,-108.24"/>
<polygon fill="black" stroke="black" points="262.63,-104.76 252.13,-106.19 261.23,-111.62 262.63,-104.76"/>
</g>
<!-- DOMA&#45;TRKORR -->
<g id="node3" class="node">
<title>DOMA&#45;TRKORR</title>
<g id="a_node3"><a xlink:href="./DOMA_TRKORR.html" xlink:title="DOMA&#45;TRKORR">
<polygon fill="none" stroke="yellow" points="182.69,-36 62.29,-36 62.29,0 182.69,0 182.69,-36"/>
<text text-anchor="middle" x="122.49" y="-13.8" font-family="Times,serif" font-size="14.00">DOMA&#45;TRKORR</text>
</a>
</g>
</g>
<!-- DTEL&#45;STRKORR&#45;&gt;DOMA&#45;TRKORR -->
<g id="edge10" class="edge">
<title>DTEL&#45;STRKORR&#45;&gt;DOMA&#45;TRKORR</title>
<path fill="none" stroke="black" d="M75.82,-71.7C83.25,-63.3 92.31,-53.07 100.47,-43.86"/>
<polygon fill="black" stroke="black" points="103.33,-45.91 107.34,-36.1 98.09,-41.27 103.33,-45.91"/>
</g>
<!-- DOMA&#45;AS4TIME -->
<g id="node5" class="node">
<title>DOMA&#45;AS4TIME</title>
<g id="a_node5"><a xlink:href="./DOMA_AS4TIME.html" xlink:title="DOMA&#45;AS4TIME">
<polygon fill="none" stroke="yellow" points="382.52,-36 260.47,-36 260.47,0 382.52,0 382.52,-36"/>
<text text-anchor="middle" x="321.49" y="-13.8" font-family="Times,serif" font-size="14.00">DOMA&#45;AS4TIME</text>
</a>
</g>
</g>
<!-- DTEL&#45;AS4TIME&#45;&gt;DOMA&#45;AS4TIME -->
<g id="edge11" class="edge">
<title>DTEL&#45;AS4TIME&#45;&gt;DOMA&#45;AS4TIME</title>
<path fill="none" stroke="black" d="M326.01,-71.7C325.35,-63.98 324.55,-54.71 323.82,-46.11"/>
<polygon fill="black" stroke="black" points="327.3,-45.77 322.96,-36.1 320.32,-46.37 327.3,-45.77"/>
</g>
<!-- DOMA&#45;AS4DATE -->
<g id="node7" class="node">
<title>DOMA&#45;AS4DATE</title>
<g id="a_node7"><a xlink:href="./DOMA_AS4DATE.html" xlink:title="DOMA&#45;AS4DATE">
<polygon fill="none" stroke="yellow" points="526.12,-36 400.86,-36 400.86,0 526.12,0 526.12,-36"/>
<text text-anchor="middle" x="463.49" y="-13.8" font-family="Times,serif" font-size="14.00">DOMA&#45;AS4DATE</text>
</a>
</g>
</g>
<!-- DTEL&#45;AS4DATE&#45;&gt;DOMA&#45;AS4DATE -->
<g id="edge12" class="edge">
<title>DTEL&#45;AS4DATE&#45;&gt;DOMA&#45;AS4DATE</title>
<path fill="none" stroke="black" d="M462.74,-71.7C462.85,-63.98 462.98,-54.71 463.1,-46.11"/>
<polygon fill="black" stroke="black" points="466.6,-46.15 463.25,-36.1 459.6,-46.05 466.6,-46.15"/>
</g>
<!-- DOMA&#45;AS4USER -->
<g id="node9" class="node">
<title>DOMA&#45;AS4USER</title>
<g id="a_node9"><a xlink:href="./DOMA_AS4USER.html" xlink:title="DOMA&#45;AS4USER">
<polygon fill="none" stroke="yellow" points="670.58,-36 546.4,-36 546.4,0 670.58,0 670.58,-36"/>
<text text-anchor="middle" x="608.49" y="-13.8" font-family="Times,serif" font-size="14.00">DOMA&#45;AS4USER</text>
</a>
</g>
</g>
<!-- DTEL&#45;TR_AS4USER&#45;&gt;DOMA&#45;AS4USER -->
<g id="edge13" class="edge">
<title>DTEL&#45;TR_AS4USER&#45;&gt;DOMA&#45;AS4USER</title>
<path fill="none" stroke="black" d="M610,-71.7C609.78,-63.98 609.51,-54.71 609.27,-46.11"/>
<polygon fill="black" stroke="black" points="612.76,-46 608.98,-36.1 605.77,-46.2 612.76,-46"/>
</g>
<!-- DOMA&#45;TRCATEG -->
<g id="node11" class="node">
<title>DOMA&#45;TRCATEG</title>
<g id="a_node11"><a xlink:href="./DOMA_TRCATEG.html" xlink:title="DOMA&#45;TRCATEG">
<polygon fill="none" stroke="yellow" points="816.46,-36 688.52,-36 688.52,0 816.46,0 816.46,-36"/>
<text text-anchor="middle" x="752.49" y="-13.8" font-family="Times,serif" font-size="14.00">DOMA&#45;TRCATEG</text>
</a>
</g>
</g>
<!-- DTEL&#45;TRCATEG&#45;&gt;DOMA&#45;TRCATEG -->
<g id="edge14" class="edge">
<title>DTEL&#45;TRCATEG&#45;&gt;DOMA&#45;TRCATEG</title>
<path fill="none" stroke="black" d="M757.76,-71.7C756.99,-63.98 756.06,-54.71 755.2,-46.11"/>
<polygon fill="black" stroke="black" points="758.68,-45.71 754.2,-36.1 751.71,-46.4 758.68,-45.71"/>
</g>
<!-- DOMA&#45;TR_TARGET -->
<g id="node13" class="node">
<title>DOMA&#45;TR_TARGET</title>
<g id="a_node13"><a xlink:href="./DOMA_TR_TARGET.html" xlink:title="DOMA&#45;TR_TARGET">
<polygon fill="none" stroke="yellow" points="978.01,-36 834.97,-36 834.97,0 978.01,0 978.01,-36"/>
<text text-anchor="middle" x="906.49" y="-13.8" font-family="Times,serif" font-size="14.00">DOMA&#45;TR_TARGET</text>
</a>
</g>
</g>
<!-- DTEL&#45;TR_TARGET&#45;&gt;DOMA&#45;TR_TARGET -->
<g id="edge15" class="edge">
<title>DTEL&#45;TR_TARGET&#45;&gt;DOMA&#45;TR_TARGET</title>
<path fill="none" stroke="black" d="M906.49,-71.7C906.49,-63.98 906.49,-54.71 906.49,-46.11"/>
<polygon fill="black" stroke="black" points="909.99,-46.1 906.49,-36.1 902.99,-46.1 909.99,-46.1"/>
</g>
<!-- DOMA&#45;TRSTATUS -->
<g id="node15" class="node">
<title>DOMA&#45;TRSTATUS</title>
<g id="a_node15"><a xlink:href="./DOMA_TRSTATUS.html" xlink:title="DOMA&#45;TRSTATUS">
<polygon fill="none" stroke="yellow" points="1130.69,-36 996.29,-36 996.29,0 1130.69,0 1130.69,-36"/>
<text text-anchor="middle" x="1063.49" y="-13.8" font-family="Times,serif" font-size="14.00">DOMA&#45;TRSTATUS</text>
</a>
</g>
</g>
<!-- DTEL&#45;TRSTATUS&#45;&gt;DOMA&#45;TRSTATUS -->
<g id="edge16" class="edge">
<title>DTEL&#45;TRSTATUS&#45;&gt;DOMA&#45;TRSTATUS</title>
<path fill="none" stroke="black" d="M1061.23,-71.7C1061.56,-63.98 1061.96,-54.71 1062.33,-46.11"/>
<polygon fill="black" stroke="black" points="1065.83,-46.25 1062.76,-36.1 1058.83,-45.95 1065.83,-46.25"/>
</g>
<!-- DOMA&#45;TRFUNCTION -->
<g id="node17" class="node">
<title>DOMA&#45;TRFUNCTION</title>
<g id="a_node17"><a xlink:href="./DOMA_TRFUNCTION.html" xlink:title="DOMA&#45;TRFUNCTION">
<polygon fill="none" stroke="yellow" points="1300.56,-36 1148.42,-36 1148.42,0 1300.56,0 1300.56,-36"/>
<text text-anchor="middle" x="1224.49" y="-13.8" font-family="Times,serif" font-size="14.00">DOMA&#45;TRFUNCTION</text>
</a>
</g>
</g>
<!-- DTEL&#45;TRFUNCTION&#45;&gt;DOMA&#45;TRFUNCTION -->
<g id="edge17" class="edge">
<title>DTEL&#45;TRFUNCTION&#45;&gt;DOMA&#45;TRFUNCTION</title>
<path fill="none" stroke="black" d="M1222.23,-71.7C1222.56,-63.98 1222.96,-54.71 1223.33,-46.11"/>
<polygon fill="black" stroke="black" points="1226.83,-46.25 1223.76,-36.1 1219.83,-45.95 1226.83,-46.25"/>
</g>
<!-- DTEL&#45;TRKORR&#45;&gt;DOMA&#45;TRKORR -->
<g id="edge18" class="edge">
<title>DTEL&#45;TRKORR&#45;&gt;DOMA&#45;TRKORR</title>
<path fill="none" stroke="black" d="M177.45,-71.7C168.43,-63.05 157.37,-52.45 147.55,-43.03"/>
<polygon fill="black" stroke="black" points="149.97,-40.5 140.33,-36.1 145.12,-45.55 149.97,-40.5"/>
</g>
</g>
</svg>
