<?xml version="1.0" encoding="UTF-8" standalone="no"?>
<!DOCTYPE svg PUBLIC "-//W3C//DTD SVG 1.1//EN"
 "http://www.w3.org/Graphics/SVG/1.1/DTD/svg11.dtd">
<!-- Generated by graphviz version 2.47.3 (20210619.1520)
 -->
<!-- Title: G Pages: 1 -->
<svg width="1950pt" height="332pt"
 viewBox="0.00 0.00 1950.42 332.00" xmlns="http://www.w3.org/2000/svg" xmlns:xlink="http://www.w3.org/1999/xlink">
<g id="graph0" class="graph" transform="scale(1 1) rotate(0) translate(4 328)">
<title>G</title>
<polygon fill="white" stroke="transparent" points="-4,4 -4,-328 1946.42,-328 1946.42,4 -4,4"/>
<!-- TABL&#45;APS_S_COM_CS_D2_PARTNER_TP -->
<g id="node1" class="node">
<title>TABL&#45;APS_S_COM_CS_D2_PARTNER_TP</title>
<polygon fill="none" stroke="yellow" points="1530.37,-324 1251.6,-324 1251.6,-288 1530.37,-288 1530.37,-324"/>
<text text-anchor="middle" x="1390.99" y="-301.8" font-family="Times,serif" font-size="14.00">TABL&#45;APS_S_COM_CS_D2_PARTNER_TP</text>
</g>
<!-- TABL&#45;APS_S_COM_CS_D2_PARTNER_TP_D -->
<g id="node2" class="node">
<title>TABL&#45;APS_S_COM_CS_D2_PARTNER_TP_D</title>
<g id="a_node2"><a xlink:href="./TABL_APS_S_COM_CS_D2_PARTNER_TP_D.html" xlink:title="TABL&#45;APS_S_COM_CS_D2_PARTNER_TP_D">
<polygon fill="none" stroke="yellow" points="1400.98,-252 1104.99,-252 1104.99,-216 1400.98,-216 1400.98,-252"/>
<text text-anchor="middle" x="1252.99" y="-229.8" font-family="Times,serif" font-size="14.00">TABL&#45;APS_S_COM_CS_D2_PARTNER_TP_D</text>
</a>
</g>
</g>
<!-- TABL&#45;APS_S_COM_CS_D2_PARTNER_TP&#45;&gt;TABL&#45;APS_S_COM_CS_D2_PARTNER_TP_D -->
<g id="edge2" class="edge">
<title>TABL&#45;APS_S_COM_CS_D2_PARTNER_TP&#45;&gt;TABL&#45;APS_S_COM_CS_D2_PARTNER_TP_D</title>
<path fill="none" stroke="black" d="M1357.23,-287.88C1338.77,-278.51 1315.7,-266.81 1295.97,-256.8"/>
<polygon fill="black" stroke="black" points="1297.38,-253.59 1286.87,-252.19 1294.21,-259.83 1297.38,-253.59"/>
</g>
<!-- TABL&#45;/BOBF/S_FRW_KEY_INCL -->
<g id="node21" class="node">
<title>TABL&#45;/BOBF/S_FRW_KEY_INCL</title>
<g id="a_node21"><a xlink:href="./TABL_%23BOBF%23S_FRW_KEY_INCL.html" xlink:title="TABL&#45;/BOBF/S_FRW_KEY_INCL">
<polygon fill="none" stroke="yellow" points="1799.08,-252 1576.9,-252 1576.9,-216 1799.08,-216 1799.08,-252"/>
<text text-anchor="middle" x="1687.99" y="-229.8" font-family="Times,serif" font-size="14.00">TABL&#45;/BOBF/S_FRW_KEY_INCL</text>
</a>
</g>
</g>
<!-- TABL&#45;APS_S_COM_CS_D2_PARTNER_TP&#45;&gt;TABL&#45;/BOBF/S_FRW_KEY_INCL -->
<g id="edge1" class="edge">
<title>TABL&#45;APS_S_COM_CS_D2_PARTNER_TP&#45;&gt;TABL&#45;/BOBF/S_FRW_KEY_INCL</title>
<path fill="none" stroke="black" d="M1463.26,-287.97C1506.28,-277.83 1561.01,-264.93 1605.69,-254.4"/>
<polygon fill="black" stroke="black" points="1606.72,-257.75 1615.65,-252.05 1605.11,-250.94 1606.72,-257.75"/>
</g>
<!-- DTEL&#45;SDRAFT_IS_ACTIVE -->
<g id="node3" class="node">
<title>DTEL&#45;SDRAFT_IS_ACTIVE</title>
<g id="a_node3"><a xlink:href="./DTEL_SDRAFT_IS_ACTIVE.html" xlink:title="DTEL&#45;SDRAFT_IS_ACTIVE">
<polygon fill="none" stroke="yellow" points="1239.84,-180 1052.14,-180 1052.14,-144 1239.84,-144 1239.84,-180"/>
<text text-anchor="middle" x="1145.99" y="-157.8" font-family="Times,serif" font-size="14.00">DTEL&#45;SDRAFT_IS_ACTIVE</text>
</a>
</g>
</g>
<!-- TABL&#45;APS_S_COM_CS_D2_PARTNER_TP_D&#45;&gt;DTEL&#45;SDRAFT_IS_ACTIVE -->
<g id="edge9" class="edge">
<title>TABL&#45;APS_S_COM_CS_D2_PARTNER_TP_D&#45;&gt;DTEL&#45;SDRAFT_IS_ACTIVE</title>
<path fill="none" stroke="black" d="M1226.81,-215.88C1212.95,-206.81 1195.75,-195.55 1180.78,-185.76"/>
<polygon fill="black" stroke="black" points="1182.55,-182.74 1172.26,-180.19 1178.71,-188.59 1182.55,-182.74"/>
</g>
<!-- TABL&#45;SDRAFT_WRITE_DRAFT_ADMIN -->
<g id="node5" class="node">
<title>TABL&#45;SDRAFT_WRITE_DRAFT_ADMIN</title>
<g id="a_node5"><a xlink:href="./TABL_SDRAFT_WRITE_DRAFT_ADMIN.html" xlink:title="TABL&#45;SDRAFT_WRITE_DRAFT_ADMIN">
<polygon fill="none" stroke="yellow" points="787.49,-180 518.48,-180 518.48,-144 787.49,-144 787.49,-180"/>
<text text-anchor="middle" x="652.99" y="-157.8" font-family="Times,serif" font-size="14.00">TABL&#45;SDRAFT_WRITE_DRAFT_ADMIN</text>
</a>
</g>
</g>
<!-- TABL&#45;APS_S_COM_CS_D2_PARTNER_TP_D&#45;&gt;TABL&#45;SDRAFT_WRITE_DRAFT_ADMIN -->
<g id="edge8" class="edge">
<title>TABL&#45;APS_S_COM_CS_D2_PARTNER_TP_D&#45;&gt;TABL&#45;SDRAFT_WRITE_DRAFT_ADMIN</title>
<path fill="none" stroke="black" d="M1106.98,-215.97C1013.02,-205 891.4,-190.82 797.7,-179.88"/>
<polygon fill="black" stroke="black" points="797.9,-176.38 787.57,-178.7 797.09,-183.34 797.9,-176.38"/>
</g>
<!-- DTEL&#45;SDRAFT_HAS_ACTIVE -->
<g id="node15" class="node">
<title>DTEL&#45;SDRAFT_HAS_ACTIVE</title>
<g id="a_node15"><a xlink:href="./DTEL_SDRAFT_HAS_ACTIVE.html" xlink:title="DTEL&#45;SDRAFT_HAS_ACTIVE">
<polygon fill="none" stroke="yellow" points="1461.89,-180 1258.08,-180 1258.08,-144 1461.89,-144 1461.89,-180"/>
<text text-anchor="middle" x="1359.99" y="-157.8" font-family="Times,serif" font-size="14.00">DTEL&#45;SDRAFT_HAS_ACTIVE</text>
</a>
</g>
</g>
<!-- TABL&#45;APS_S_COM_CS_D2_PARTNER_TP_D&#45;&gt;DTEL&#45;SDRAFT_HAS_ACTIVE -->
<g id="edge7" class="edge">
<title>TABL&#45;APS_S_COM_CS_D2_PARTNER_TP_D&#45;&gt;DTEL&#45;SDRAFT_HAS_ACTIVE</title>
<path fill="none" stroke="black" d="M1279.16,-215.88C1293.02,-206.81 1310.23,-195.55 1325.2,-185.76"/>
<polygon fill="black" stroke="black" points="1327.26,-188.59 1333.71,-180.19 1323.43,-182.74 1327.26,-188.59"/>
</g>
<!-- DTEL&#45;/BOBF/UUID -->
<g id="node16" class="node">
<title>DTEL&#45;/BOBF/UUID</title>
<g id="a_node16"><a xlink:href="./DTEL_%23BOBF%23UUID.html" xlink:title="DTEL&#45;/BOBF/UUID">
<polygon fill="none" stroke="yellow" points="1615.74,-180 1480.24,-180 1480.24,-144 1615.74,-144 1615.74,-180"/>
<text text-anchor="middle" x="1547.99" y="-157.8" font-family="Times,serif" font-size="14.00">DTEL&#45;/BOBF/UUID</text>
</a>
</g>
</g>
<!-- TABL&#45;APS_S_COM_CS_D2_PARTNER_TP_D&#45;&gt;DTEL&#45;/BOBF/UUID -->
<g id="edge6" class="edge">
<title>TABL&#45;APS_S_COM_CS_D2_PARTNER_TP_D&#45;&gt;DTEL&#45;/BOBF/UUID</title>
<path fill="none" stroke="black" d="M1324.77,-215.97C1368.87,-205.5 1425.34,-192.1 1470.45,-181.4"/>
<polygon fill="black" stroke="black" points="1471.27,-184.8 1480.19,-179.09 1469.65,-177.99 1471.27,-184.8"/>
</g>
<!-- DTEL&#45;TIMESTAMPL -->
<g id="node17" class="node">
<title>DTEL&#45;TIMESTAMPL</title>
<g id="a_node17"><a xlink:href="./DTEL_TIMESTAMPL.html" xlink:title="DTEL&#45;TIMESTAMPL">
<polygon fill="none" stroke="green" points="290.84,-180 145.13,-180 145.13,-144 290.84,-144 290.84,-180"/>
<text text-anchor="middle" x="217.99" y="-157.8" font-family="Times,serif" font-size="14.00">DTEL&#45;TIMESTAMPL</text>
</a>
</g>
</g>
<!-- TABL&#45;APS_S_COM_CS_D2_PARTNER_TP_D&#45;&gt;DTEL&#45;TIMESTAMPL -->
<g id="edge5" class="edge">
<title>TABL&#45;APS_S_COM_CS_D2_PARTNER_TP_D&#45;&gt;DTEL&#45;TIMESTAMPL</title>
<path fill="none" stroke="black" d="M1104.97,-222.99C884.2,-208.06 475.91,-180.44 301.03,-168.62"/>
<polygon fill="black" stroke="black" points="301.07,-165.11 290.85,-167.93 300.6,-172.1 301.07,-165.11"/>
</g>
<!-- DTEL&#45;UNAME -->
<g id="node18" class="node">
<title>DTEL&#45;UNAME</title>
<g id="a_node18"><a xlink:href="./DTEL_UNAME.html" xlink:title="DTEL&#45;UNAME">
<polygon fill="none" stroke="yellow" points="1741.73,-180 1634.24,-180 1634.24,-144 1741.73,-144 1741.73,-180"/>
<text text-anchor="middle" x="1687.99" y="-157.8" font-family="Times,serif" font-size="14.00">DTEL&#45;UNAME</text>
</a>
</g>
</g>
<!-- TABL&#45;APS_S_COM_CS_D2_PARTNER_TP_D&#45;&gt;DTEL&#45;UNAME -->
<g id="edge4" class="edge">
<title>TABL&#45;APS_S_COM_CS_D2_PARTNER_TP_D&#45;&gt;DTEL&#45;UNAME</title>
<path fill="none" stroke="black" d="M1401.24,-216.09C1466.88,-207.58 1545.1,-196.02 1624.01,-180.07"/>
<polygon fill="black" stroke="black" points="1625.04,-183.43 1634.13,-178 1623.64,-176.57 1625.04,-183.43"/>
</g>
<!-- DTEL&#45;BU_PARTNER_GUID -->
<g id="node20" class="node">
<title>DTEL&#45;BU_PARTNER_GUID</title>
<g id="a_node20"><a xlink:href="./DTEL_BU_PARTNER_GUID.html" xlink:title="DTEL&#45;BU_PARTNER_GUID">
<polygon fill="none" stroke="yellow" points="1034.11,-180 845.86,-180 845.86,-144 1034.11,-144 1034.11,-180"/>
<text text-anchor="middle" x="939.99" y="-157.8" font-family="Times,serif" font-size="14.00">DTEL&#45;BU_PARTNER_GUID</text>
</a>
</g>
</g>
<!-- TABL&#45;APS_S_COM_CS_D2_PARTNER_TP_D&#45;&gt;DTEL&#45;BU_PARTNER_GUID -->
<g id="edge3" class="edge">
<title>TABL&#45;APS_S_COM_CS_D2_PARTNER_TP_D&#45;&gt;DTEL&#45;BU_PARTNER_GUID</title>
<path fill="none" stroke="black" d="M1176.82,-215.97C1131.29,-205.78 1073.32,-192.82 1026.12,-182.26"/>
<polygon fill="black" stroke="black" points="1026.75,-178.82 1016.22,-180.05 1025.22,-185.65 1026.75,-178.82"/>
</g>
<!-- DOMA&#45;BOOLE -->
<g id="node4" class="node">
<title>DOMA&#45;BOOLE</title>
<g id="a_node4"><a xlink:href="./DOMA_BOOLE.html" xlink:title="DOMA&#45;BOOLE">
<polygon fill="none" stroke="yellow" points="1435.07,-108 1324.91,-108 1324.91,-72 1435.07,-72 1435.07,-108"/>
<text text-anchor="middle" x="1379.99" y="-85.8" font-family="Times,serif" font-size="14.00">DOMA&#45;BOOLE</text>
</a>
</g>
</g>
<!-- DTEL&#45;SDRAFT_IS_ACTIVE&#45;&gt;DOMA&#45;BOOLE -->
<g id="edge10" class="edge">
<title>DTEL&#45;SDRAFT_IS_ACTIVE&#45;&gt;DOMA&#45;BOOLE</title>
<path fill="none" stroke="black" d="M1202.93,-143.97C1236.81,-133.83 1279.91,-120.94 1315.11,-110.41"/>
<polygon fill="black" stroke="black" points="1316.23,-113.73 1324.81,-107.51 1314.22,-107.02 1316.23,-113.73"/>
</g>
<!-- DTEL&#45;SDRAFT_OPERATION_CODE -->
<g id="node6" class="node">
<title>DTEL&#45;SDRAFT_OPERATION_CODE</title>
<g id="a_node6"><a xlink:href="./DTEL_SDRAFT_OPERATION_CODE.html" xlink:title="DTEL&#45;SDRAFT_OPERATION_CODE">
<polygon fill="none" stroke="yellow" points="753.49,-108 512.48,-108 512.48,-72 753.49,-72 753.49,-108"/>
<text text-anchor="middle" x="632.99" y="-85.8" font-family="Times,serif" font-size="14.00">DTEL&#45;SDRAFT_OPERATION_CODE</text>
</a>
</g>
</g>
<!-- TABL&#45;SDRAFT_WRITE_DRAFT_ADMIN&#45;&gt;DTEL&#45;SDRAFT_OPERATION_CODE -->
<g id="edge15" class="edge">
<title>TABL&#45;SDRAFT_WRITE_DRAFT_ADMIN&#45;&gt;DTEL&#45;SDRAFT_OPERATION_CODE</title>
<path fill="none" stroke="black" d="M648.04,-143.7C645.81,-135.9 643.13,-126.51 640.65,-117.83"/>
<polygon fill="black" stroke="black" points="643.99,-116.76 637.87,-108.1 637.26,-118.68 643.99,-116.76"/>
</g>
<!-- DTEL&#45;SDRAFT_CONSISTENCY_STATUS -->
<g id="node8" class="node">
<title>DTEL&#45;SDRAFT_CONSISTENCY_STATUS</title>
<g id="a_node8"><a xlink:href="./DTEL_SDRAFT_CONSISTENCY_STATUS.html" xlink:title="DTEL&#45;SDRAFT_CONSISTENCY_STATUS">
<polygon fill="none" stroke="yellow" points="1044.89,-108 771.08,-108 771.08,-72 1044.89,-72 1044.89,-108"/>
<text text-anchor="middle" x="907.99" y="-85.8" font-family="Times,serif" font-size="14.00">DTEL&#45;SDRAFT_CONSISTENCY_STATUS</text>
</a>
</g>
</g>
<!-- TABL&#45;SDRAFT_WRITE_DRAFT_ADMIN&#45;&gt;DTEL&#45;SDRAFT_CONSISTENCY_STATUS -->
<g id="edge14" class="edge">
<title>TABL&#45;SDRAFT_WRITE_DRAFT_ADMIN&#45;&gt;DTEL&#45;SDRAFT_CONSISTENCY_STATUS</title>
<path fill="none" stroke="black" d="M715.04,-143.97C751.44,-133.97 797.61,-121.3 835.66,-110.85"/>
<polygon fill="black" stroke="black" points="836.94,-114.13 845.65,-108.11 835.08,-107.38 836.94,-114.13"/>
</g>
<!-- DTEL&#45;SDRAFT_ADMIN_UUID -->
<g id="node10" class="node">
<title>DTEL&#45;SDRAFT_ADMIN_UUID</title>
<g id="a_node10"><a xlink:href="./DTEL_SDRAFT_ADMIN_UUID.html" xlink:title="DTEL&#45;SDRAFT_ADMIN_UUID">
<polygon fill="none" stroke="yellow" points="1269.49,-108 1062.49,-108 1062.49,-72 1269.49,-72 1269.49,-108"/>
<text text-anchor="middle" x="1165.99" y="-85.8" font-family="Times,serif" font-size="14.00">DTEL&#45;SDRAFT_ADMIN_UUID</text>
</a>
</g>
</g>
<!-- TABL&#45;SDRAFT_WRITE_DRAFT_ADMIN&#45;&gt;DTEL&#45;SDRAFT_ADMIN_UUID -->
<g id="edge13" class="edge">
<title>TABL&#45;SDRAFT_WRITE_DRAFT_ADMIN&#45;&gt;DTEL&#45;SDRAFT_ADMIN_UUID</title>
<path fill="none" stroke="black" d="M786.74,-143.98C862.08,-134.23 958.17,-121.54 1052.55,-108.19"/>
<polygon fill="black" stroke="black" points="1053.15,-111.64 1062.56,-106.77 1052.17,-104.71 1053.15,-111.64"/>
</g>
<!-- DTEL&#45;SDRAFT_LAST_CHANGED_AT -->
<g id="node12" class="node">
<title>DTEL&#45;SDRAFT_LAST_CHANGED_AT</title>
<g id="a_node12"><a xlink:href="./DTEL_SDRAFT_LAST_CHANGED_AT.html" xlink:title="DTEL&#45;SDRAFT_LAST_CHANGED_AT">
<polygon fill="none" stroke="yellow" points="494.66,-108 241.32,-108 241.32,-72 494.66,-72 494.66,-108"/>
<text text-anchor="middle" x="367.99" y="-85.8" font-family="Times,serif" font-size="14.00">DTEL&#45;SDRAFT_LAST_CHANGED_AT</text>
</a>
</g>
</g>
<!-- TABL&#45;SDRAFT_WRITE_DRAFT_ADMIN&#45;&gt;DTEL&#45;SDRAFT_LAST_CHANGED_AT -->
<g id="edge12" class="edge">
<title>TABL&#45;SDRAFT_WRITE_DRAFT_ADMIN&#45;&gt;DTEL&#45;SDRAFT_LAST_CHANGED_AT</title>
<path fill="none" stroke="black" d="M583.63,-143.97C542.51,-133.87 490.25,-121.03 447.47,-110.52"/>
<polygon fill="black" stroke="black" points="448.2,-107.1 437.65,-108.11 446.53,-113.9 448.2,-107.1"/>
</g>
<!-- DTEL&#45;SDRAFT_CREATED_AT -->
<g id="node14" class="node">
<title>DTEL&#45;SDRAFT_CREATED_AT</title>
<g id="a_node14"><a xlink:href="./DTEL_SDRAFT_CREATED_AT.html" xlink:title="DTEL&#45;SDRAFT_CREATED_AT">
<polygon fill="none" stroke="yellow" points="223.78,-108 16.19,-108 16.19,-72 223.78,-72 223.78,-108"/>
<text text-anchor="middle" x="119.99" y="-85.8" font-family="Times,serif" font-size="14.00">DTEL&#45;SDRAFT_CREATED_AT</text>
</a>
</g>
</g>
<!-- TABL&#45;SDRAFT_WRITE_DRAFT_ADMIN&#45;&gt;DTEL&#45;SDRAFT_CREATED_AT -->
<g id="edge11" class="edge">
<title>TABL&#45;SDRAFT_WRITE_DRAFT_ADMIN&#45;&gt;DTEL&#45;SDRAFT_CREATED_AT</title>
<path fill="none" stroke="black" d="M518.26,-144.92C438.24,-135.16 334.51,-122.14 233.76,-108.23"/>
<polygon fill="black" stroke="black" points="234.09,-104.74 223.71,-106.84 233.13,-111.68 234.09,-104.74"/>
</g>
<!-- DOMA&#45;SDRAFT_OPERATION_CODE -->
<g id="node7" class="node">
<title>DOMA&#45;SDRAFT_OPERATION_CODE</title>
<g id="a_node7"><a xlink:href="./DOMA_SDRAFT_OPERATION_CODE.html" xlink:title="DOMA&#45;SDRAFT_OPERATION_CODE">
<polygon fill="none" stroke="yellow" points="752.99,-36 504.98,-36 504.98,0 752.99,0 752.99,-36"/>
<text text-anchor="middle" x="628.99" y="-13.8" font-family="Times,serif" font-size="14.00">DOMA&#45;SDRAFT_OPERATION_CODE</text>
</a>
</g>
</g>
<!-- DTEL&#45;SDRAFT_OPERATION_CODE&#45;&gt;DOMA&#45;SDRAFT_OPERATION_CODE -->
<g id="edge16" class="edge">
<title>DTEL&#45;SDRAFT_OPERATION_CODE&#45;&gt;DOMA&#45;SDRAFT_OPERATION_CODE</title>
<path fill="none" stroke="black" d="M632,-71.7C631.56,-63.98 631.03,-54.71 630.54,-46.11"/>
<polygon fill="black" stroke="black" points="634.03,-45.89 629.96,-36.1 627.04,-46.29 634.03,-45.89"/>
</g>
<!-- DOMA&#45;SDRAFT_CONSISTENCY_STATUS -->
<g id="node9" class="node">
<title>DOMA&#45;SDRAFT_CONSISTENCY_STATUS</title>
<g id="a_node9"><a xlink:href="./DOMA_SDRAFT_CONSISTENCY_STATUS.html" xlink:title="DOMA&#45;SDRAFT_CONSISTENCY_STATUS">
<polygon fill="none" stroke="yellow" points="1051.39,-36 770.58,-36 770.58,0 1051.39,0 1051.39,-36"/>
<text text-anchor="middle" x="910.99" y="-13.8" font-family="Times,serif" font-size="14.00">DOMA&#45;SDRAFT_CONSISTENCY_STATUS</text>
</a>
</g>
</g>
<!-- DTEL&#45;SDRAFT_CONSISTENCY_STATUS&#45;&gt;DOMA&#45;SDRAFT_CONSISTENCY_STATUS -->
<g id="edge17" class="edge">
<title>DTEL&#45;SDRAFT_CONSISTENCY_STATUS&#45;&gt;DOMA&#45;SDRAFT_CONSISTENCY_STATUS</title>
<path fill="none" stroke="black" d="M908.73,-71.7C909.06,-63.98 909.46,-54.71 909.82,-46.11"/>
<polygon fill="black" stroke="black" points="913.32,-46.25 910.25,-36.1 906.33,-45.95 913.32,-46.25"/>
</g>
<!-- DOMA&#45;SYSUUID -->
<g id="node11" class="node">
<title>DOMA&#45;SYSUUID</title>
<g id="a_node11"><a xlink:href="./DOMA_SYSUUID.html" xlink:title="DOMA&#45;SYSUUID">
<polygon fill="none" stroke="yellow" points="1359.06,-36 1234.91,-36 1234.91,0 1359.06,0 1359.06,-36"/>
<text text-anchor="middle" x="1296.99" y="-13.8" font-family="Times,serif" font-size="14.00">DOMA&#45;SYSUUID</text>
</a>
</g>
</g>
<!-- DTEL&#45;SDRAFT_ADMIN_UUID&#45;&gt;DOMA&#45;SYSUUID -->
<g id="edge18" class="edge">
<title>DTEL&#45;SDRAFT_ADMIN_UUID&#45;&gt;DOMA&#45;SYSUUID</title>
<path fill="none" stroke="black" d="M1198.03,-71.88C1215.48,-62.55 1237.25,-50.92 1255.93,-40.94"/>
<polygon fill="black" stroke="black" points="1257.65,-43.99 1264.82,-36.19 1254.35,-37.82 1257.65,-43.99"/>
</g>
<!-- DOMA&#45;TZNTSTMPL -->
<g id="node13" class="node">
<title>DOMA&#45;TZNTSTMPL</title>
<g id="a_node13"><a xlink:href="./DOMA_TZNTSTMPL.html" xlink:title="DOMA&#45;TZNTSTMPL">
<polygon fill="none" stroke="yellow" points="192.29,-36 47.68,-36 47.68,0 192.29,0 192.29,-36"/>
<text text-anchor="middle" x="119.99" y="-13.8" font-family="Times,serif" font-size="14.00">DOMA&#45;TZNTSTMPL</text>
</a>
</g>
</g>
<!-- DTEL&#45;SDRAFT_LAST_CHANGED_AT&#45;&gt;DOMA&#45;TZNTSTMPL -->
<g id="edge19" class="edge">
<title>DTEL&#45;SDRAFT_LAST_CHANGED_AT&#45;&gt;DOMA&#45;TZNTSTMPL</title>
<path fill="none" stroke="black" d="M307.64,-71.97C272.23,-61.97 227.33,-49.3 190.33,-38.85"/>
<polygon fill="black" stroke="black" points="191.18,-35.46 180.61,-36.11 189.28,-42.2 191.18,-35.46"/>
</g>
<!-- DTEL&#45;SDRAFT_CREATED_AT&#45;&gt;DOMA&#45;TZNTSTMPL -->
<g id="edge20" class="edge">
<title>DTEL&#45;SDRAFT_CREATED_AT&#45;&gt;DOMA&#45;TZNTSTMPL</title>
<path fill="none" stroke="black" d="M119.99,-71.7C119.99,-63.98 119.99,-54.71 119.99,-46.11"/>
<polygon fill="black" stroke="black" points="123.49,-46.1 119.99,-36.1 116.49,-46.1 123.49,-46.1"/>
</g>
<!-- DTEL&#45;SDRAFT_HAS_ACTIVE&#45;&gt;DOMA&#45;BOOLE -->
<g id="edge21" class="edge">
<title>DTEL&#45;SDRAFT_HAS_ACTIVE&#45;&gt;DOMA&#45;BOOLE</title>
<path fill="none" stroke="black" d="M1364.93,-143.7C1367.16,-135.9 1369.84,-126.51 1372.32,-117.83"/>
<polygon fill="black" stroke="black" points="1375.72,-118.68 1375.1,-108.1 1368.99,-116.76 1375.72,-118.68"/>
</g>
<!-- DTEL&#45;/BOBF/UUID&#45;&gt;DOMA&#45;SYSUUID -->
<g id="edge22" class="edge">
<title>DTEL&#45;/BOBF/UUID&#45;&gt;DOMA&#45;SYSUUID</title>
<path fill="none" stroke="black" d="M1531.8,-143.8C1512.5,-124.13 1478.5,-92.08 1443.99,-72 1420.8,-58.51 1393.6,-47.54 1368.94,-39.14"/>
<polygon fill="black" stroke="black" points="1369.86,-35.76 1359.27,-35.94 1367.66,-42.41 1369.86,-35.76"/>
</g>
<!-- DTEL&#45;TIMESTAMPL&#45;&gt;DOMA&#45;TZNTSTMPL -->
<g id="edge23" class="edge">
<title>DTEL&#45;TIMESTAMPL&#45;&gt;DOMA&#45;TZNTSTMPL</title>
<path fill="none" stroke="black" d="M145.09,-152.26C91.1,-144.12 24.06,-129.89 6.99,-108 -2.85,-95.38 -1.6,-85.5 6.99,-72 15.7,-58.29 28.99,-48.07 43.44,-40.47"/>
<polygon fill="black" stroke="black" points="45.07,-43.56 52.56,-36.06 42.03,-37.26 45.07,-43.56"/>
</g>
<!-- DOMA&#45;UNAME -->
<g id="node19" class="node">
<title>DOMA&#45;UNAME</title>
<g id="a_node19"><a xlink:href="./DOMA_UNAME.html" xlink:title="DOMA&#45;UNAME">
<polygon fill="none" stroke="yellow" points="1743.23,-108 1628.74,-108 1628.74,-72 1743.23,-72 1743.23,-108"/>
<text text-anchor="middle" x="1685.99" y="-85.8" font-family="Times,serif" font-size="14.00">DOMA&#45;UNAME</text>
</a>
</g>
</g>
<!-- DTEL&#45;UNAME&#45;&gt;DOMA&#45;UNAME -->
<g id="edge24" class="edge">
<title>DTEL&#45;UNAME&#45;&gt;DOMA&#45;UNAME</title>
<path fill="none" stroke="black" d="M1687.49,-143.7C1687.27,-135.98 1687.01,-126.71 1686.76,-118.11"/>
<polygon fill="black" stroke="black" points="1690.26,-118 1686.48,-108.1 1683.26,-118.2 1690.26,-118"/>
</g>
<!-- DTEL&#45;BU_PARTNER_GUID&#45;&gt;DOMA&#45;SYSUUID -->
<g id="edge25" class="edge">
<title>DTEL&#45;BU_PARTNER_GUID&#45;&gt;DOMA&#45;SYSUUID</title>
<path fill="none" stroke="black" d="M1034.28,-145.39C1037.21,-144.92 1040.12,-144.46 1042.99,-144 1095.16,-135.7 1239.56,-144.25 1277.99,-108 1294.55,-92.38 1298.48,-66.14 1298.76,-46.19"/>
<polygon fill="black" stroke="black" points="1302.26,-46.09 1298.61,-36.14 1295.26,-46.2 1302.26,-46.09"/>
</g>
<!-- DTEL&#45;/BOBF/CONF_KEY -->
<g id="node22" class="node">
<title>DTEL&#45;/BOBF/CONF_KEY</title>
<g id="a_node22"><a xlink:href="./DTEL_%23BOBF%23CONF_KEY.html" xlink:title="DTEL&#45;/BOBF/CONF_KEY">
<polygon fill="none" stroke="yellow" points="1936.85,-180 1763.12,-180 1763.12,-144 1936.85,-144 1936.85,-180"/>
<text text-anchor="middle" x="1849.99" y="-157.8" font-family="Times,serif" font-size="14.00">DTEL&#45;/BOBF/CONF_KEY</text>
</a>
</g>
</g>
<!-- TABL&#45;/BOBF/S_FRW_KEY_INCL&#45;&gt;DTEL&#45;/BOBF/CONF_KEY -->
<g id="edge26" class="edge">
<title>TABL&#45;/BOBF/S_FRW_KEY_INCL&#45;&gt;DTEL&#45;/BOBF/CONF_KEY</title>
<path fill="none" stroke="black" d="M1727.62,-215.88C1749.76,-206.31 1777.55,-194.3 1801.04,-184.15"/>
<polygon fill="black" stroke="black" points="1802.69,-187.25 1810.49,-180.07 1799.92,-180.82 1802.69,-187.25"/>
</g>
<!-- DOMA&#45;/BOBF/CONF_KEY -->
<g id="node23" class="node">
<title>DOMA&#45;/BOBF/CONF_KEY</title>
<g id="a_node23"><a xlink:href="./DOMA_%23BOBF%23CONF_KEY.html" xlink:title="DOMA&#45;/BOBF/CONF_KEY">
<polygon fill="none" stroke="yellow" points="1942.35,-108 1761.62,-108 1761.62,-72 1942.35,-72 1942.35,-108"/>
<text text-anchor="middle" x="1851.99" y="-85.8" font-family="Times,serif" font-size="14.00">DOMA&#45;/BOBF/CONF_KEY</text>
</a>
</g>
</g>
<!-- DTEL&#45;/BOBF/CONF_KEY&#45;&gt;DOMA&#45;/BOBF/CONF_KEY -->
<g id="edge27" class="edge">
<title>DTEL&#45;/BOBF/CONF_KEY&#45;&gt;DOMA&#45;/BOBF/CONF_KEY</title>
<path fill="none" stroke="black" d="M1850.48,-143.7C1850.7,-135.98 1850.97,-126.71 1851.21,-118.11"/>
<polygon fill="black" stroke="black" points="1854.71,-118.2 1851.5,-108.1 1847.71,-118 1854.71,-118.2"/>
</g>
</g>
</svg>
