<?xml version="1.0" encoding="UTF-8" standalone="no"?>
<!DOCTYPE svg PUBLIC "-//W3C//DTD SVG 1.1//EN"
 "http://www.w3.org/Graphics/SVG/1.1/DTD/svg11.dtd">
<!-- Generated by graphviz version 2.47.3 (20210619.1520)
 -->
<!-- Title: G Pages: 1 -->
<svg width="2573pt" height="260pt"
 viewBox="0.00 0.00 2572.86 260.00" xmlns="http://www.w3.org/2000/svg" xmlns:xlink="http://www.w3.org/1999/xlink">
<g id="graph0" class="graph" transform="scale(1 1) rotate(0) translate(4 256)">
<title>G</title>
<polygon fill="white" stroke="transparent" points="-4,4 -4,-256 2568.86,-256 2568.86,4 -4,4"/>
<!-- TABL&#45;APS_IAM_BR_DATA -->
<g id="node1" class="node">
<title>TABL&#45;APS_IAM_BR_DATA</title>
<polygon fill="none" stroke="yellow" points="1533.02,-252 1344.74,-252 1344.74,-216 1533.02,-216 1533.02,-252"/>
<text text-anchor="middle" x="1438.88" y="-229.8" font-family="Times,serif" font-size="14.00">TABL&#45;APS_IAM_BR_DATA</text>
</g>
<!-- DTEL&#45;APS_IAM_BR_CFLP_EXPOSURE -->
<g id="node2" class="node">
<title>DTEL&#45;APS_IAM_BR_CFLP_EXPOSURE</title>
<g id="a_node2"><a xlink:href="./DTEL_APS_IAM_BR_CFLP_EXPOSURE.html" xlink:title="DTEL&#45;APS_IAM_BR_CFLP_EXPOSURE">
<polygon fill="none" stroke="yellow" points="261.64,-180 0.12,-180 0.12,-144 261.64,-144 261.64,-180"/>
<text text-anchor="middle" x="130.88" y="-157.8" font-family="Times,serif" font-size="14.00">DTEL&#45;APS_IAM_BR_CFLP_EXPOSURE</text>
</a>
</g>
</g>
<!-- TABL&#45;APS_IAM_BR_DATA&#45;&gt;DTEL&#45;APS_IAM_BR_CFLP_EXPOSURE -->
<g id="edge10" class="edge">
<title>TABL&#45;APS_IAM_BR_DATA&#45;&gt;DTEL&#45;APS_IAM_BR_CFLP_EXPOSURE</title>
<path fill="none" stroke="black" d="M1344.48,-231.13C1147.28,-226.7 677.02,-213.39 272.16,-180.07"/>
<polygon fill="black" stroke="black" points="272.26,-176.56 262.01,-179.23 271.68,-183.54 272.26,-176.56"/>
</g>
<!-- DTEL&#45;APS_IAM_BR_DERIVE_FIORI_SPACE -->
<g id="node4" class="node">
<title>DTEL&#45;APS_IAM_BR_DERIVE_FIORI_SPACE</title>
<g id="a_node4"><a xlink:href="./DTEL_APS_IAM_BR_DERIVE_FIORI_SPACE.html" xlink:title="DTEL&#45;APS_IAM_BR_DERIVE_FIORI_SPACE">
<polygon fill="none" stroke="yellow" points="574.29,-180 279.48,-180 279.48,-144 574.29,-144 574.29,-180"/>
<text text-anchor="middle" x="426.88" y="-157.8" font-family="Times,serif" font-size="14.00">DTEL&#45;APS_IAM_BR_DERIVE_FIORI_SPACE</text>
</a>
</g>
</g>
<!-- TABL&#45;APS_IAM_BR_DATA&#45;&gt;DTEL&#45;APS_IAM_BR_DERIVE_FIORI_SPACE -->
<g id="edge9" class="edge">
<title>TABL&#45;APS_IAM_BR_DATA&#45;&gt;DTEL&#45;APS_IAM_BR_DERIVE_FIORI_SPACE</title>
<path fill="none" stroke="black" d="M1344.52,-228.57C1188.69,-220.94 867.52,-203.89 584.42,-180.02"/>
<polygon fill="black" stroke="black" points="584.62,-176.53 574.36,-179.17 584.03,-183.5 584.62,-176.53"/>
</g>
<!-- DTEL&#45;APS_IAM_BROLE_FIORI_SPACE_PFCG -->
<g id="node5" class="node">
<title>DTEL&#45;APS_IAM_BROLE_FIORI_SPACE_PFCG</title>
<g id="a_node5"><a xlink:href="./DTEL_APS_IAM_BROLE_FIORI_SPACE_PFCG.html" xlink:title="DTEL&#45;APS_IAM_BROLE_FIORI_SPACE_PFCG">
<polygon fill="none" stroke="yellow" points="1232.69,-180 927.07,-180 927.07,-144 1232.69,-144 1232.69,-180"/>
<text text-anchor="middle" x="1079.88" y="-157.8" font-family="Times,serif" font-size="14.00">DTEL&#45;APS_IAM_BROLE_FIORI_SPACE_PFCG</text>
</a>
</g>
</g>
<!-- TABL&#45;APS_IAM_BR_DATA&#45;&gt;DTEL&#45;APS_IAM_BROLE_FIORI_SPACE_PFCG -->
<g id="edge8" class="edge">
<title>TABL&#45;APS_IAM_BR_DATA&#45;&gt;DTEL&#45;APS_IAM_BROLE_FIORI_SPACE_PFCG</title>
<path fill="none" stroke="black" d="M1351.52,-215.97C1298.86,-205.7 1231.69,-192.6 1177.32,-182"/>
<polygon fill="black" stroke="black" points="1177.81,-178.53 1167.32,-180.05 1176.47,-185.4 1177.81,-178.53"/>
</g>
<!-- DTEL&#45;/UI2/SPACE_ENTITY_ID -->
<g id="node7" class="node">
<title>DTEL&#45;/UI2/SPACE_ENTITY_ID</title>
<g id="a_node7"><a xlink:href="./DTEL_%23UI2%23SPACE_ENTITY_ID.html" xlink:title="DTEL&#45;/UI2/SPACE_ENTITY_ID">
<polygon fill="none" stroke="yellow" points="1459.21,-180 1250.55,-180 1250.55,-144 1459.21,-144 1459.21,-180"/>
<text text-anchor="middle" x="1354.88" y="-157.8" font-family="Times,serif" font-size="14.00">DTEL&#45;/UI2/SPACE_ENTITY_ID</text>
</a>
</g>
</g>
<!-- TABL&#45;APS_IAM_BR_DATA&#45;&gt;DTEL&#45;/UI2/SPACE_ENTITY_ID -->
<g id="edge7" class="edge">
<title>TABL&#45;APS_IAM_BR_DATA&#45;&gt;DTEL&#45;/UI2/SPACE_ENTITY_ID</title>
<path fill="none" stroke="black" d="M1418.12,-215.7C1407.64,-206.97 1394.77,-196.24 1383.38,-186.75"/>
<polygon fill="black" stroke="black" points="1385.33,-183.82 1375.41,-180.1 1380.85,-189.19 1385.33,-183.82"/>
</g>
<!-- DTEL&#45;UUID -->
<g id="node9" class="node">
<title>DTEL&#45;UUID</title>
<g id="a_node9"><a xlink:href="./DTEL_UUID.html" xlink:title="DTEL&#45;UUID">
<polygon fill="none" stroke="yellow" points="1568.79,-180 1476.98,-180 1476.98,-144 1568.79,-144 1568.79,-180"/>
<text text-anchor="middle" x="1522.88" y="-157.8" font-family="Times,serif" font-size="14.00">DTEL&#45;UUID</text>
</a>
</g>
</g>
<!-- TABL&#45;APS_IAM_BR_DATA&#45;&gt;DTEL&#45;UUID -->
<g id="edge6" class="edge">
<title>TABL&#45;APS_IAM_BR_DATA&#45;&gt;DTEL&#45;UUID</title>
<path fill="none" stroke="black" d="M1459.65,-215.7C1470.12,-206.97 1482.99,-196.24 1494.38,-186.75"/>
<polygon fill="black" stroke="black" points="1496.91,-189.19 1502.36,-180.1 1492.43,-183.82 1496.91,-189.19"/>
</g>
<!-- DTEL&#45;APS_IAM_BROLE_MASTER_INDICATOR -->
<g id="node11" class="node">
<title>DTEL&#45;APS_IAM_BROLE_MASTER_INDICATOR</title>
<g id="a_node11"><a xlink:href="./DTEL_APS_IAM_BROLE_MASTER_INDICATOR.html" xlink:title="DTEL&#45;APS_IAM_BROLE_MASTER_INDICATOR">
<polygon fill="none" stroke="yellow" points="909.32,-180 592.44,-180 592.44,-144 909.32,-144 909.32,-180"/>
<text text-anchor="middle" x="750.88" y="-157.8" font-family="Times,serif" font-size="14.00">DTEL&#45;APS_IAM_BROLE_MASTER_INDICATOR</text>
</a>
</g>
</g>
<!-- TABL&#45;APS_IAM_BR_DATA&#45;&gt;DTEL&#45;APS_IAM_BROLE_MASTER_INDICATOR -->
<g id="edge5" class="edge">
<title>TABL&#45;APS_IAM_BR_DATA&#45;&gt;DTEL&#45;APS_IAM_BROLE_MASTER_INDICATOR</title>
<path fill="none" stroke="black" d="M1344.29,-223.38C1242.14,-212.99 1074.3,-195.92 919.71,-180.19"/>
<polygon fill="black" stroke="black" points="919.85,-176.68 909.55,-179.15 919.14,-183.65 919.85,-176.68"/>
</g>
<!-- DTEL&#45;APS_IAM_BRT_ID -->
<g id="node12" class="node">
<title>DTEL&#45;APS_IAM_BRT_ID</title>
<g id="a_node12"><a xlink:href="./DTEL_APS_IAM_BRT_ID.html" xlink:title="DTEL&#45;APS_IAM_BRT_ID">
<polygon fill="none" stroke="yellow" points="1759.18,-180 1586.58,-180 1586.58,-144 1759.18,-144 1759.18,-180"/>
<text text-anchor="middle" x="1672.88" y="-157.8" font-family="Times,serif" font-size="14.00">DTEL&#45;APS_IAM_BRT_ID</text>
</a>
</g>
</g>
<!-- TABL&#45;APS_IAM_BR_DATA&#45;&gt;DTEL&#45;APS_IAM_BRT_ID -->
<g id="edge4" class="edge">
<title>TABL&#45;APS_IAM_BR_DATA&#45;&gt;DTEL&#45;APS_IAM_BRT_ID</title>
<path fill="none" stroke="black" d="M1495.83,-215.97C1529.09,-206.01 1571.24,-193.41 1606.07,-182.99"/>
<polygon fill="black" stroke="black" points="1607.11,-186.33 1615.68,-180.11 1605.1,-179.62 1607.11,-186.33"/>
</g>
<!-- DTEL&#45;APS_IAM_BROLE_STATUS_LC -->
<g id="node14" class="node">
<title>DTEL&#45;APS_IAM_BROLE_STATUS_LC</title>
<g id="a_node14"><a xlink:href="./DTEL_APS_IAM_BROLE_STATUS_LC.html" xlink:title="DTEL&#45;APS_IAM_BROLE_STATUS_LC">
<polygon fill="none" stroke="yellow" points="2030.85,-180 1776.92,-180 1776.92,-144 2030.85,-144 2030.85,-180"/>
<text text-anchor="middle" x="1903.88" y="-157.8" font-family="Times,serif" font-size="14.00">DTEL&#45;APS_IAM_BROLE_STATUS_LC</text>
</a>
</g>
</g>
<!-- TABL&#45;APS_IAM_BR_DATA&#45;&gt;DTEL&#45;APS_IAM_BROLE_STATUS_LC -->
<g id="edge3" class="edge">
<title>TABL&#45;APS_IAM_BR_DATA&#45;&gt;DTEL&#45;APS_IAM_BROLE_STATUS_LC</title>
<path fill="none" stroke="black" d="M1533.26,-218.79C1604.52,-208.06 1702.94,-193.25 1780.45,-181.58"/>
<polygon fill="black" stroke="black" points="1781.39,-184.98 1790.76,-180.03 1780.35,-178.06 1781.39,-184.98"/>
</g>
<!-- TABL&#45;APS_IAM_SYSTEM_ADMIN_DATA -->
<g id="node16" class="node">
<title>TABL&#45;APS_IAM_SYSTEM_ADMIN_DATA</title>
<g id="a_node16"><a xlink:href="./TABL_APS_IAM_SYSTEM_ADMIN_DATA.html" xlink:title="TABL&#45;APS_IAM_SYSTEM_ADMIN_DATA">
<polygon fill="none" stroke="yellow" points="2328.49,-180 2049.27,-180 2049.27,-144 2328.49,-144 2328.49,-180"/>
<text text-anchor="middle" x="2188.88" y="-157.8" font-family="Times,serif" font-size="14.00">TABL&#45;APS_IAM_SYSTEM_ADMIN_DATA</text>
</a>
</g>
</g>
<!-- TABL&#45;APS_IAM_BR_DATA&#45;&gt;TABL&#45;APS_IAM_SYSTEM_ADMIN_DATA -->
<g id="edge2" class="edge">
<title>TABL&#45;APS_IAM_BR_DATA&#45;&gt;TABL&#45;APS_IAM_SYSTEM_ADMIN_DATA</title>
<path fill="none" stroke="black" d="M1533.16,-225.44C1649.42,-215.94 1853.36,-198.74 2038.7,-180.11"/>
<polygon fill="black" stroke="black" points="2039.31,-183.56 2048.91,-179.08 2038.61,-176.6 2039.31,-183.56"/>
</g>
<!-- DTEL&#45;APS_IAM_BROLE_ID -->
<g id="node21" class="node">
<title>DTEL&#45;APS_IAM_BROLE_ID</title>
<g id="a_node21"><a xlink:href="./DTEL_APS_IAM_BROLE_ID.html" xlink:title="DTEL&#45;APS_IAM_BROLE_ID">
<polygon fill="none" stroke="yellow" points="2549.34,-180 2358.42,-180 2358.42,-144 2549.34,-144 2549.34,-180"/>
<text text-anchor="middle" x="2453.88" y="-157.8" font-family="Times,serif" font-size="14.00">DTEL&#45;APS_IAM_BROLE_ID</text>
</a>
</g>
</g>
<!-- TABL&#45;APS_IAM_BR_DATA&#45;&gt;DTEL&#45;APS_IAM_BROLE_ID -->
<g id="edge1" class="edge">
<title>TABL&#45;APS_IAM_BR_DATA&#45;&gt;DTEL&#45;APS_IAM_BROLE_ID</title>
<path fill="none" stroke="black" d="M1533.26,-230.13C1697.25,-224.53 2045.29,-210.01 2337.88,-180 2341.33,-179.65 2344.83,-179.27 2348.36,-178.86"/>
<polygon fill="black" stroke="black" points="2348.86,-182.33 2358.38,-177.67 2348.03,-175.37 2348.86,-182.33"/>
</g>
<!-- DOMA&#45;XFELD -->
<g id="node3" class="node">
<title>DOMA&#45;XFELD</title>
<g id="a_node3"><a xlink:href="./DOMA_XFELD.html" xlink:title="DOMA&#45;XFELD">
<polygon fill="none" stroke="yellow" points="480.91,-108 372.85,-108 372.85,-72 480.91,-72 480.91,-108"/>
<text text-anchor="middle" x="426.88" y="-85.8" font-family="Times,serif" font-size="14.00">DOMA&#45;XFELD</text>
</a>
</g>
</g>
<!-- DTEL&#45;APS_IAM_BR_CFLP_EXPOSURE&#45;&gt;DOMA&#45;XFELD -->
<g id="edge11" class="edge">
<title>DTEL&#45;APS_IAM_BR_CFLP_EXPOSURE&#45;&gt;DOMA&#45;XFELD</title>
<path fill="none" stroke="black" d="M202.91,-143.97C251.8,-132.4 315.86,-117.26 362.94,-106.12"/>
<polygon fill="black" stroke="black" points="363.79,-109.52 372.72,-103.81 362.18,-102.7 363.79,-109.52"/>
</g>
<!-- DTEL&#45;APS_IAM_BR_DERIVE_FIORI_SPACE&#45;&gt;DOMA&#45;XFELD -->
<g id="edge12" class="edge">
<title>DTEL&#45;APS_IAM_BR_DERIVE_FIORI_SPACE&#45;&gt;DOMA&#45;XFELD</title>
<path fill="none" stroke="black" d="M426.88,-143.7C426.88,-135.98 426.88,-126.71 426.88,-118.11"/>
<polygon fill="black" stroke="black" points="430.38,-118.1 426.88,-108.1 423.38,-118.1 430.38,-118.1"/>
</g>
<!-- DOMA&#45;AGR_NAME -->
<g id="node6" class="node">
<title>DOMA&#45;AGR_NAME</title>
<g id="a_node6"><a xlink:href="./DOMA_AGR_NAME.html" xlink:title="DOMA&#45;AGR_NAME">
<polygon fill="none" stroke="yellow" points="1150.57,-108 1009.2,-108 1009.2,-72 1150.57,-72 1150.57,-108"/>
<text text-anchor="middle" x="1079.88" y="-85.8" font-family="Times,serif" font-size="14.00">DOMA&#45;AGR_NAME</text>
</a>
</g>
</g>
<!-- DTEL&#45;APS_IAM_BROLE_FIORI_SPACE_PFCG&#45;&gt;DOMA&#45;AGR_NAME -->
<g id="edge13" class="edge">
<title>DTEL&#45;APS_IAM_BROLE_FIORI_SPACE_PFCG&#45;&gt;DOMA&#45;AGR_NAME</title>
<path fill="none" stroke="black" d="M1079.88,-143.7C1079.88,-135.98 1079.88,-126.71 1079.88,-118.11"/>
<polygon fill="black" stroke="black" points="1083.38,-118.1 1079.88,-108.1 1076.38,-118.1 1083.38,-118.1"/>
</g>
<!-- DOMA&#45;/UI2/SPACE_ENTITY_ID -->
<g id="node8" class="node">
<title>DOMA&#45;/UI2/SPACE_ENTITY_ID</title>
<g id="a_node8"><a xlink:href="./DOMA_%23UI2%23SPACE_ENTITY_ID.html" xlink:title="DOMA&#45;/UI2/SPACE_ENTITY_ID">
<polygon fill="none" stroke="yellow" points="1448.71,-108 1233.05,-108 1233.05,-72 1448.71,-72 1448.71,-108"/>
<text text-anchor="middle" x="1340.88" y="-85.8" font-family="Times,serif" font-size="14.00">DOMA&#45;/UI2/SPACE_ENTITY_ID</text>
</a>
</g>
</g>
<!-- DTEL&#45;/UI2/SPACE_ENTITY_ID&#45;&gt;DOMA&#45;/UI2/SPACE_ENTITY_ID -->
<g id="edge14" class="edge">
<title>DTEL&#45;/UI2/SPACE_ENTITY_ID&#45;&gt;DOMA&#45;/UI2/SPACE_ENTITY_ID</title>
<path fill="none" stroke="black" d="M1351.42,-143.7C1349.88,-135.98 1348.02,-126.71 1346.3,-118.11"/>
<polygon fill="black" stroke="black" points="1349.7,-117.22 1344.3,-108.1 1342.83,-118.6 1349.7,-117.22"/>
</g>
<!-- DOMA&#45;UUID -->
<g id="node10" class="node">
<title>DOMA&#45;UUID</title>
<g id="a_node10"><a xlink:href="./DOMA_UUID.html" xlink:title="DOMA&#45;UUID">
<polygon fill="none" stroke="yellow" points="1565.29,-108 1466.48,-108 1466.48,-72 1565.29,-72 1565.29,-108"/>
<text text-anchor="middle" x="1515.88" y="-85.8" font-family="Times,serif" font-size="14.00">DOMA&#45;UUID</text>
</a>
</g>
</g>
<!-- DTEL&#45;UUID&#45;&gt;DOMA&#45;UUID -->
<g id="edge15" class="edge">
<title>DTEL&#45;UUID&#45;&gt;DOMA&#45;UUID</title>
<path fill="none" stroke="black" d="M1521.15,-143.7C1520.38,-135.98 1519.45,-126.71 1518.59,-118.11"/>
<polygon fill="black" stroke="black" points="1522.07,-117.71 1517.59,-108.1 1515.1,-118.4 1522.07,-117.71"/>
</g>
<!-- DTEL&#45;APS_IAM_BROLE_MASTER_INDICATOR&#45;&gt;DOMA&#45;XFELD -->
<g id="edge16" class="edge">
<title>DTEL&#45;APS_IAM_BROLE_MASTER_INDICATOR&#45;&gt;DOMA&#45;XFELD</title>
<path fill="none" stroke="black" d="M672.04,-143.97C616.54,-131.98 543.19,-116.13 491.23,-104.9"/>
<polygon fill="black" stroke="black" points="491.65,-101.41 481.13,-102.72 490.17,-108.25 491.65,-101.41"/>
</g>
<!-- DOMA&#45;APS_IAM_BRT_ID -->
<g id="node13" class="node">
<title>DOMA&#45;APS_IAM_BRT_ID</title>
<g id="a_node13"><a xlink:href="./DOMA_APS_IAM_BRT_ID.html" xlink:title="DOMA&#45;APS_IAM_BRT_ID">
<polygon fill="none" stroke="yellow" points="1762.68,-108 1583.08,-108 1583.08,-72 1762.68,-72 1762.68,-108"/>
<text text-anchor="middle" x="1672.88" y="-85.8" font-family="Times,serif" font-size="14.00">DOMA&#45;APS_IAM_BRT_ID</text>
</a>
</g>
</g>
<!-- DTEL&#45;APS_IAM_BRT_ID&#45;&gt;DOMA&#45;APS_IAM_BRT_ID -->
<g id="edge17" class="edge">
<title>DTEL&#45;APS_IAM_BRT_ID&#45;&gt;DOMA&#45;APS_IAM_BRT_ID</title>
<path fill="none" stroke="black" d="M1672.88,-143.7C1672.88,-135.98 1672.88,-126.71 1672.88,-118.11"/>
<polygon fill="black" stroke="black" points="1676.38,-118.1 1672.88,-108.1 1669.38,-118.1 1676.38,-118.1"/>
</g>
<!-- DOMA&#45;APS_IAM_BROLE_STATUS_LC -->
<g id="node15" class="node">
<title>DOMA&#45;APS_IAM_BROLE_STATUS_LC</title>
<g id="a_node15"><a xlink:href="./DOMA_APS_IAM_BROLE_STATUS_LC.html" xlink:title="DOMA&#45;APS_IAM_BROLE_STATUS_LC">
<polygon fill="none" stroke="yellow" points="2041.35,-108 1780.42,-108 1780.42,-72 2041.35,-72 2041.35,-108"/>
<text text-anchor="middle" x="1910.88" y="-85.8" font-family="Times,serif" font-size="14.00">DOMA&#45;APS_IAM_BROLE_STATUS_LC</text>
</a>
</g>
</g>
<!-- DTEL&#45;APS_IAM_BROLE_STATUS_LC&#45;&gt;DOMA&#45;APS_IAM_BROLE_STATUS_LC -->
<g id="edge18" class="edge">
<title>DTEL&#45;APS_IAM_BROLE_STATUS_LC&#45;&gt;DOMA&#45;APS_IAM_BROLE_STATUS_LC</title>
<path fill="none" stroke="black" d="M1905.61,-143.7C1906.38,-135.98 1907.31,-126.71 1908.17,-118.11"/>
<polygon fill="black" stroke="black" points="1911.66,-118.4 1909.17,-108.1 1904.69,-117.71 1911.66,-118.4"/>
</g>
<!-- DTEL&#45;SYUNAME -->
<g id="node17" class="node">
<title>DTEL&#45;SYUNAME</title>
<g id="a_node17"><a xlink:href="./DTEL_SYUNAME.html" xlink:title="DTEL&#45;SYUNAME">
<polygon fill="none" stroke="green" points="2184.51,-108 2059.25,-108 2059.25,-72 2184.51,-72 2184.51,-108"/>
<text text-anchor="middle" x="2121.88" y="-85.8" font-family="Times,serif" font-size="14.00">DTEL&#45;SYUNAME</text>
</a>
</g>
</g>
<!-- TABL&#45;APS_IAM_SYSTEM_ADMIN_DATA&#45;&gt;DTEL&#45;SYUNAME -->
<g id="edge20" class="edge">
<title>TABL&#45;APS_IAM_SYSTEM_ADMIN_DATA&#45;&gt;DTEL&#45;SYUNAME</title>
<path fill="none" stroke="black" d="M2172.32,-143.7C2164.21,-135.22 2154.29,-124.86 2145.41,-115.58"/>
<polygon fill="black" stroke="black" points="2147.7,-112.91 2138.25,-108.1 2142.64,-117.75 2147.7,-112.91"/>
</g>
<!-- DTEL&#45;TIMESTAMPL -->
<g id="node19" class="node">
<title>DTEL&#45;TIMESTAMPL</title>
<g id="a_node19"><a xlink:href="./DTEL_TIMESTAMPL.html" xlink:title="DTEL&#45;TIMESTAMPL">
<polygon fill="none" stroke="green" points="2348.74,-108 2203.02,-108 2203.02,-72 2348.74,-72 2348.74,-108"/>
<text text-anchor="middle" x="2275.88" y="-85.8" font-family="Times,serif" font-size="14.00">DTEL&#45;TIMESTAMPL</text>
</a>
</g>
</g>
<!-- TABL&#45;APS_IAM_SYSTEM_ADMIN_DATA&#45;&gt;DTEL&#45;TIMESTAMPL -->
<g id="edge19" class="edge">
<title>TABL&#45;APS_IAM_SYSTEM_ADMIN_DATA&#45;&gt;DTEL&#45;TIMESTAMPL</title>
<path fill="none" stroke="black" d="M2210.39,-143.7C2221.34,-134.88 2234.83,-124.03 2246.71,-114.47"/>
<polygon fill="black" stroke="black" points="2249.03,-117.1 2254.62,-108.1 2244.64,-111.65 2249.03,-117.1"/>
</g>
<!-- DOMA&#45;SYCHAR12 -->
<g id="node18" class="node">
<title>DOMA&#45;SYCHAR12</title>
<g id="a_node18"><a xlink:href="./DOMA_SYCHAR12.html" xlink:title="DOMA&#45;SYCHAR12">
<polygon fill="none" stroke="yellow" points="2188.08,-36 2053.68,-36 2053.68,0 2188.08,0 2188.08,-36"/>
<text text-anchor="middle" x="2120.88" y="-13.8" font-family="Times,serif" font-size="14.00">DOMA&#45;SYCHAR12</text>
</a>
</g>
</g>
<!-- DTEL&#45;SYUNAME&#45;&gt;DOMA&#45;SYCHAR12 -->
<g id="edge21" class="edge">
<title>DTEL&#45;SYUNAME&#45;&gt;DOMA&#45;SYCHAR12</title>
<path fill="none" stroke="black" d="M2121.63,-71.7C2121.52,-63.98 2121.39,-54.71 2121.27,-46.11"/>
<polygon fill="black" stroke="black" points="2124.77,-46.05 2121.13,-36.1 2117.77,-46.15 2124.77,-46.05"/>
</g>
<!-- DOMA&#45;TZNTSTMPL -->
<g id="node20" class="node">
<title>DOMA&#45;TZNTSTMPL</title>
<g id="a_node20"><a xlink:href="./DOMA_TZNTSTMPL.html" xlink:title="DOMA&#45;TZNTSTMPL">
<polygon fill="none" stroke="yellow" points="2350.19,-36 2205.58,-36 2205.58,0 2350.19,0 2350.19,-36"/>
<text text-anchor="middle" x="2277.88" y="-13.8" font-family="Times,serif" font-size="14.00">DOMA&#45;TZNTSTMPL</text>
</a>
</g>
</g>
<!-- DTEL&#45;TIMESTAMPL&#45;&gt;DOMA&#45;TZNTSTMPL -->
<g id="edge22" class="edge">
<title>DTEL&#45;TIMESTAMPL&#45;&gt;DOMA&#45;TZNTSTMPL</title>
<path fill="none" stroke="black" d="M2276.38,-71.7C2276.6,-63.98 2276.86,-54.71 2277.11,-46.11"/>
<polygon fill="black" stroke="black" points="2280.61,-46.2 2277.39,-36.1 2273.61,-46 2280.61,-46.2"/>
</g>
<!-- DOMA&#45;APS_IAM_BROLE_ID -->
<g id="node22" class="node">
<title>DOMA&#45;APS_IAM_BROLE_ID</title>
<g id="a_node22"><a xlink:href="./DOMA_APS_IAM_BROLE_ID.html" xlink:title="DOMA&#45;APS_IAM_BROLE_ID">
<polygon fill="none" stroke="yellow" points="2564.84,-108 2366.92,-108 2366.92,-72 2564.84,-72 2564.84,-108"/>
<text text-anchor="middle" x="2465.88" y="-85.8" font-family="Times,serif" font-size="14.00">DOMA&#45;APS_IAM_BROLE_ID</text>
</a>
</g>
</g>
<!-- DTEL&#45;APS_IAM_BROLE_ID&#45;&gt;DOMA&#45;APS_IAM_BROLE_ID -->
<g id="edge23" class="edge">
<title>DTEL&#45;APS_IAM_BROLE_ID&#45;&gt;DOMA&#45;APS_IAM_BROLE_ID</title>
<path fill="none" stroke="black" d="M2456.85,-143.7C2458.17,-135.98 2459.76,-126.71 2461.23,-118.11"/>
<polygon fill="black" stroke="black" points="2464.71,-118.55 2462.95,-108.1 2457.81,-117.37 2464.71,-118.55"/>
</g>
</g>
</svg>
