<?xml version="1.0" encoding="UTF-8" standalone="no"?>
<!DOCTYPE svg PUBLIC "-//W3C//DTD SVG 1.1//EN"
 "http://www.w3.org/Graphics/SVG/1.1/DTD/svg11.dtd">
<!-- Generated by graphviz version 2.47.3 (20210619.1520)
 -->
<!-- Title: G Pages: 1 -->
<svg width="151pt" height="188pt"
 viewBox="0.00 0.00 150.75 188.00" xmlns="http://www.w3.org/2000/svg" xmlns:xlink="http://www.w3.org/1999/xlink">
<g id="graph0" class="graph" transform="scale(1 1) rotate(0) translate(4 184)">
<title>G</title>
<polygon fill="white" stroke="transparent" points="-4,4 -4,-184 146.75,-184 146.75,4 -4,4"/>
<!-- TABL&#45;BAPIHTML -->
<g id="node1" class="node">
<title>TABL&#45;BAPIHTML</title>
<polygon fill="none" stroke="green" points="135.63,-180 7.12,-180 7.12,-144 135.63,-144 135.63,-180"/>
<text text-anchor="middle" x="71.38" y="-157.8" font-family="Times,serif" font-size="14.00">TABL&#45;BAPIHTML</text>
</g>
<!-- DTEL&#45;FORM_HTML -->
<g id="node2" class="node">
<title>DTEL&#45;FORM_HTML</title>
<g id="a_node2"><a xlink:href="./DTEL_FORM_HTML.html" xlink:title="DTEL&#45;FORM_HTML">
<polygon fill="none" stroke="yellow" points="142.63,-108 0.12,-108 0.12,-72 142.63,-72 142.63,-108"/>
<text text-anchor="middle" x="71.38" y="-85.8" font-family="Times,serif" font-size="14.00">DTEL&#45;FORM_HTML</text>
</a>
</g>
</g>
<!-- TABL&#45;BAPIHTML&#45;&gt;DTEL&#45;FORM_HTML -->
<g id="edge1" class="edge">
<title>TABL&#45;BAPIHTML&#45;&gt;DTEL&#45;FORM_HTML</title>
<path fill="none" stroke="black" d="M71.38,-143.7C71.38,-135.98 71.38,-126.71 71.38,-118.11"/>
<polygon fill="black" stroke="black" points="74.88,-118.1 71.38,-108.1 67.88,-118.1 74.88,-118.1"/>
</g>
<!-- DOMA&#45;W3_HTML -->
<g id="node3" class="node">
<title>DOMA&#45;W3_HTML</title>
<g id="a_node3"><a xlink:href="./DOMA_W3_HTML.html" xlink:title="DOMA&#45;W3_HTML">
<polygon fill="none" stroke="yellow" points="136.67,-36 6.08,-36 6.08,0 136.67,0 136.67,-36"/>
<text text-anchor="middle" x="71.38" y="-13.8" font-family="Times,serif" font-size="14.00">DOMA&#45;W3_HTML</text>
</a>
</g>
</g>
<!-- DTEL&#45;FORM_HTML&#45;&gt;DOMA&#45;W3_HTML -->
<g id="edge2" class="edge">
<title>DTEL&#45;FORM_HTML&#45;&gt;DOMA&#45;W3_HTML</title>
<path fill="none" stroke="black" d="M71.38,-71.7C71.38,-63.98 71.38,-54.71 71.38,-46.11"/>
<polygon fill="black" stroke="black" points="74.88,-46.1 71.38,-36.1 67.88,-46.1 74.88,-46.1"/>
</g>
</g>
</svg>
