<?xml version="1.0" encoding="UTF-8" standalone="no"?>
<!DOCTYPE svg PUBLIC "-//W3C//DTD SVG 1.1//EN"
 "http://www.w3.org/Graphics/SVG/1.1/DTD/svg11.dtd">
<!-- Generated by graphviz version 2.47.3 (20210619.1520)
 -->
<!-- Title: G Pages: 1 -->
<svg width="1069pt" height="404pt"
 viewBox="0.00 0.00 1069.17 404.00" xmlns="http://www.w3.org/2000/svg" xmlns:xlink="http://www.w3.org/1999/xlink">
<g id="graph0" class="graph" transform="scale(1 1) rotate(0) translate(4 400)">
<title>G</title>
<polygon fill="white" stroke="transparent" points="-4,4 -4,-400 1065.17,-400 1065.17,4 -4,4"/>
<!-- TABL&#45;CMIS_S_PROPERTY -->
<g id="node1" class="node">
<title>TABL&#45;CMIS_S_PROPERTY</title>
<polygon fill="none" stroke="green" points="413.18,-396 228.63,-396 228.63,-360 413.18,-360 413.18,-396"/>
<text text-anchor="middle" x="320.91" y="-373.8" font-family="Times,serif" font-size="14.00">TABL&#45;CMIS_S_PROPERTY</text>
</g>
<!-- TTYP&#45;CMIS_T_EXTENSION -->
<g id="node2" class="node">
<title>TTYP&#45;CMIS_T_EXTENSION</title>
<g id="a_node2"><a xlink:href="./TTYP_CMIS_T_EXTENSION.html" xlink:title="TTYP&#45;CMIS_T_EXTENSION">
<polygon fill="none" stroke="green" points="238.36,-324 47.45,-324 47.45,-288 238.36,-288 238.36,-324"/>
<text text-anchor="middle" x="142.91" y="-301.8" font-family="Times,serif" font-size="14.00">TTYP&#45;CMIS_T_EXTENSION</text>
</a>
</g>
</g>
<!-- TABL&#45;CMIS_S_PROPERTY&#45;&gt;TTYP&#45;CMIS_T_EXTENSION -->
<g id="edge5" class="edge">
<title>TABL&#45;CMIS_S_PROPERTY&#45;&gt;TTYP&#45;CMIS_T_EXTENSION</title>
<path fill="none" stroke="black" d="M277.36,-359.88C252.7,-350.18 221.68,-337.98 195.65,-327.74"/>
<polygon fill="black" stroke="black" points="196.89,-324.47 186.31,-324.07 194.33,-330.99 196.89,-324.47"/>
</g>
<!-- DTEL&#45;CMIS_STRING -->
<g id="node6" class="node">
<title>DTEL&#45;CMIS_STRING</title>
<g id="a_node6"><a xlink:href="./DTEL_CMIS_STRING.html" xlink:title="DTEL&#45;CMIS_STRING">
<polygon fill="none" stroke="green" points="332.1,-36 183.71,-36 183.71,0 332.1,0 332.1,-36"/>
<text text-anchor="middle" x="257.91" y="-13.8" font-family="Times,serif" font-size="14.00">DTEL&#45;CMIS_STRING</text>
</a>
</g>
</g>
<!-- TABL&#45;CMIS_S_PROPERTY&#45;&gt;DTEL&#45;CMIS_STRING -->
<g id="edge3" class="edge">
<title>TABL&#45;CMIS_S_PROPERTY&#45;&gt;DTEL&#45;CMIS_STRING</title>
<path fill="none" stroke="black" d="M320.91,-359.95C320.91,-333.29 320.91,-280.11 320.91,-235 320.91,-235 320.91,-235 320.91,-161 320.91,-117.19 295.55,-71.81 277.01,-44.49"/>
<polygon fill="black" stroke="black" points="279.86,-42.47 271.27,-36.28 274.13,-46.48 279.86,-42.47"/>
</g>
<!-- DTEL&#45;CMIS_ID -->
<g id="node7" class="node">
<title>DTEL&#45;CMIS_ID</title>
<g id="a_node7"><a xlink:href="./DTEL_CMIS_ID.html" xlink:title="DTEL&#45;CMIS_ID">
<polygon fill="none" stroke="green" points="293.32,-180 180.49,-180 180.49,-144 293.32,-144 293.32,-180"/>
<text text-anchor="middle" x="236.91" y="-157.8" font-family="Times,serif" font-size="14.00">DTEL&#45;CMIS_ID</text>
</a>
</g>
</g>
<!-- TABL&#45;CMIS_S_PROPERTY&#45;&gt;DTEL&#45;CMIS_ID -->
<g id="edge1" class="edge">
<title>TABL&#45;CMIS_S_PROPERTY&#45;&gt;DTEL&#45;CMIS_ID</title>
<path fill="none" stroke="black" d="M314.17,-359.85C299.58,-322.68 264.95,-234.44 247.43,-189.82"/>
<polygon fill="black" stroke="black" points="250.58,-188.26 243.67,-180.23 244.07,-190.82 250.58,-188.26"/>
</g>
<!-- TTYP&#45;CMIS_T_PROPERTY_VALUE -->
<g id="node8" class="node">
<title>TTYP&#45;CMIS_T_PROPERTY_VALUE</title>
<g id="a_node8"><a xlink:href="./TTYP_CMIS_T_PROPERTY_VALUE.html" xlink:title="TTYP&#45;CMIS_T_PROPERTY_VALUE">
<polygon fill="none" stroke="green" points="587.32,-324 348.49,-324 348.49,-288 587.32,-288 587.32,-324"/>
<text text-anchor="middle" x="467.91" y="-301.8" font-family="Times,serif" font-size="14.00">TTYP&#45;CMIS_T_PROPERTY_VALUE</text>
</a>
</g>
</g>
<!-- TABL&#45;CMIS_S_PROPERTY&#45;&gt;TTYP&#45;CMIS_T_PROPERTY_VALUE -->
<g id="edge4" class="edge">
<title>TABL&#45;CMIS_S_PROPERTY&#45;&gt;TTYP&#45;CMIS_T_PROPERTY_VALUE</title>
<path fill="none" stroke="black" d="M356.87,-359.88C376.78,-350.39 401.73,-338.51 422.93,-328.42"/>
<polygon fill="black" stroke="black" points="424.54,-331.53 432.06,-324.07 421.53,-325.21 424.54,-331.53"/>
</g>
<!-- DTEL&#45;CMIS_ENUM -->
<g id="node21" class="node">
<title>DTEL&#45;CMIS_ENUM</title>
<g id="a_node21"><a xlink:href="./DTEL_CMIS_ENUM.html" xlink:title="DTEL&#45;CMIS_ENUM">
<polygon fill="none" stroke="green" points="744.27,-324 605.55,-324 605.55,-288 744.27,-288 744.27,-324"/>
<text text-anchor="middle" x="674.91" y="-301.8" font-family="Times,serif" font-size="14.00">DTEL&#45;CMIS_ENUM</text>
</a>
</g>
</g>
<!-- TABL&#45;CMIS_S_PROPERTY&#45;&gt;DTEL&#45;CMIS_ENUM -->
<g id="edge2" class="edge">
<title>TABL&#45;CMIS_S_PROPERTY&#45;&gt;DTEL&#45;CMIS_ENUM</title>
<path fill="none" stroke="black" d="M412.04,-359.95C463.13,-350.27 528.25,-337.73 595.24,-324.11"/>
<polygon fill="black" stroke="black" points="596.04,-327.52 605.14,-322.1 594.64,-320.67 596.04,-327.52"/>
</g>
<!-- TABL&#45;CMIS_S_EXTENSION -->
<g id="node3" class="node">
<title>TABL&#45;CMIS_S_EXTENSION</title>
<g id="a_node3"><a xlink:href="./TABL_CMIS_S_EXTENSION.html" xlink:title="TABL&#45;CMIS_S_EXTENSION">
<polygon fill="none" stroke="green" points="203.65,-252 12.16,-252 12.16,-216 203.65,-216 203.65,-252"/>
<text text-anchor="middle" x="107.91" y="-229.8" font-family="Times,serif" font-size="14.00">TABL&#45;CMIS_S_EXTENSION</text>
</a>
</g>
</g>
<!-- TTYP&#45;CMIS_T_EXTENSION&#45;&gt;TABL&#45;CMIS_S_EXTENSION -->
<g id="edge6" class="edge">
<title>TTYP&#45;CMIS_T_EXTENSION&#45;&gt;TABL&#45;CMIS_S_EXTENSION</title>
<path fill="none" stroke="black" d="M134.25,-287.7C130.27,-279.73 125.46,-270.1 121.04,-261.26"/>
<polygon fill="black" stroke="black" points="124.06,-259.48 116.46,-252.1 117.8,-262.61 124.06,-259.48"/>
</g>
<!-- TTYP&#45;CMIS_T_MAP -->
<g id="node4" class="node">
<title>TTYP&#45;CMIS_T_MAP</title>
<g id="a_node4"><a xlink:href="./TTYP_CMIS_T_MAP.html" xlink:title="TTYP&#45;CMIS_T_MAP">
<polygon fill="none" stroke="green" points="162.17,-180 19.64,-180 19.64,-144 162.17,-144 162.17,-180"/>
<text text-anchor="middle" x="90.91" y="-157.8" font-family="Times,serif" font-size="14.00">TTYP&#45;CMIS_T_MAP</text>
</a>
</g>
</g>
<!-- TABL&#45;CMIS_S_EXTENSION&#45;&gt;TTYP&#45;CMIS_T_MAP -->
<g id="edge9" class="edge">
<title>TABL&#45;CMIS_S_EXTENSION&#45;&gt;TTYP&#45;CMIS_T_MAP</title>
<path fill="none" stroke="black" d="M103.7,-215.7C101.81,-207.9 99.53,-198.51 97.42,-189.83"/>
<polygon fill="black" stroke="black" points="100.82,-189 95.06,-180.1 94.02,-190.65 100.82,-189"/>
</g>
<!-- TABL&#45;CMIS_S_EXTENSION&#45;&gt;DTEL&#45;CMIS_STRING -->
<g id="edge8" class="edge">
<title>TABL&#45;CMIS_S_EXTENSION&#45;&gt;DTEL&#45;CMIS_STRING</title>
<path fill="none" stroke="black" d="M53.89,-215.96C37.13,-207.85 20.55,-196.26 10.91,-180 -15.13,-136.11 9.65,-103.37 49.91,-72 85.07,-44.6 132.8,-31.23 173.66,-24.77"/>
<polygon fill="black" stroke="black" points="174.23,-28.22 183.62,-23.31 173.22,-21.3 174.23,-28.22"/>
</g>
<!-- TABL&#45;CMIS_S_EXTENSION&#45;&gt;DTEL&#45;CMIS_ID -->
<g id="edge7" class="edge">
<title>TABL&#45;CMIS_S_EXTENSION&#45;&gt;DTEL&#45;CMIS_ID</title>
<path fill="none" stroke="black" d="M139.46,-215.88C156.56,-206.6 177.89,-195.03 196.22,-185.08"/>
<polygon fill="black" stroke="black" points="198.11,-188.04 205.23,-180.19 194.77,-181.88 198.11,-188.04"/>
</g>
<!-- TABL&#45;CMIS_S_KEY_VALUE -->
<g id="node5" class="node">
<title>TABL&#45;CMIS_S_KEY_VALUE</title>
<g id="a_node5"><a xlink:href="./TABL_CMIS_S_KEY_VALUE.html" xlink:title="TABL&#45;CMIS_S_KEY_VALUE">
<polygon fill="none" stroke="green" points="255.31,-108 58.5,-108 58.5,-72 255.31,-72 255.31,-108"/>
<text text-anchor="middle" x="156.91" y="-85.8" font-family="Times,serif" font-size="14.00">TABL&#45;CMIS_S_KEY_VALUE</text>
</a>
</g>
</g>
<!-- TTYP&#45;CMIS_T_MAP&#45;&gt;TABL&#45;CMIS_S_KEY_VALUE -->
<g id="edge10" class="edge">
<title>TTYP&#45;CMIS_T_MAP&#45;&gt;TABL&#45;CMIS_S_KEY_VALUE</title>
<path fill="none" stroke="black" d="M107.22,-143.7C115.21,-135.22 124.98,-124.86 133.73,-115.58"/>
<polygon fill="black" stroke="black" points="136.46,-117.78 140.78,-108.1 131.37,-112.98 136.46,-117.78"/>
</g>
<!-- TABL&#45;CMIS_S_KEY_VALUE&#45;&gt;DTEL&#45;CMIS_STRING -->
<g id="edge11" class="edge">
<title>TABL&#45;CMIS_S_KEY_VALUE&#45;&gt;DTEL&#45;CMIS_STRING</title>
<path fill="none" stroke="black" d="M181.61,-71.88C194.57,-62.89 210.63,-51.76 224.67,-42.03"/>
<polygon fill="black" stroke="black" points="226.88,-44.76 233.1,-36.19 222.89,-39.01 226.88,-44.76"/>
</g>
<!-- TABL&#45;CMIS_S_PROPERTY_VALUE -->
<g id="node9" class="node">
<title>TABL&#45;CMIS_S_PROPERTY_VALUE</title>
<g id="a_node9"><a xlink:href="./TABL_CMIS_S_PROPERTY_VALUE.html" xlink:title="TABL&#45;CMIS_S_PROPERTY_VALUE">
<polygon fill="none" stroke="green" points="688.6,-252 449.21,-252 449.21,-216 688.6,-216 688.6,-252"/>
<text text-anchor="middle" x="568.91" y="-229.8" font-family="Times,serif" font-size="14.00">TABL&#45;CMIS_S_PROPERTY_VALUE</text>
</a>
</g>
</g>
<!-- TTYP&#45;CMIS_T_PROPERTY_VALUE&#45;&gt;TABL&#45;CMIS_S_PROPERTY_VALUE -->
<g id="edge12" class="edge">
<title>TTYP&#45;CMIS_T_PROPERTY_VALUE&#45;&gt;TABL&#45;CMIS_S_PROPERTY_VALUE</title>
<path fill="none" stroke="black" d="M492.61,-287.88C505.57,-278.89 521.63,-267.76 535.67,-258.03"/>
<polygon fill="black" stroke="black" points="537.88,-260.76 544.1,-252.19 533.89,-255.01 537.88,-260.76"/>
</g>
<!-- TABL&#45;CMIS_S_PROPERTY_VALUE&#45;&gt;DTEL&#45;CMIS_STRING -->
<g id="edge13" class="edge">
<title>TABL&#45;CMIS_S_PROPERTY_VALUE&#45;&gt;DTEL&#45;CMIS_STRING</title>
<path fill="none" stroke="black" d="M552.54,-215.96C543.72,-206.07 533.19,-193.03 525.91,-180 501.07,-135.59 525.84,-105.91 487.91,-72 466.33,-52.71 398.53,-38.57 342.09,-29.77"/>
<polygon fill="black" stroke="black" points="342.47,-26.29 332.06,-28.24 341.41,-33.21 342.47,-26.29"/>
</g>
<!-- TABL&#45;CMIS_S_DATE_TIME -->
<g id="node10" class="node">
<title>TABL&#45;CMIS_S_DATE_TIME</title>
<g id="a_node10"><a xlink:href="./TABL_CMIS_S_DATE_TIME.html" xlink:title="TABL&#45;CMIS_S_DATE_TIME">
<polygon fill="none" stroke="green" points="726.65,-180 535.16,-180 535.16,-144 726.65,-144 726.65,-180"/>
<text text-anchor="middle" x="630.91" y="-157.8" font-family="Times,serif" font-size="14.00">TABL&#45;CMIS_S_DATE_TIME</text>
</a>
</g>
</g>
<!-- TABL&#45;CMIS_S_PROPERTY_VALUE&#45;&gt;TABL&#45;CMIS_S_DATE_TIME -->
<g id="edge17" class="edge">
<title>TABL&#45;CMIS_S_PROPERTY_VALUE&#45;&gt;TABL&#45;CMIS_S_DATE_TIME</title>
<path fill="none" stroke="black" d="M584.23,-215.7C591.66,-207.3 600.73,-197.07 608.89,-187.86"/>
<polygon fill="black" stroke="black" points="611.75,-189.91 615.76,-180.1 606.51,-185.27 611.75,-189.91"/>
</g>
<!-- DTEL&#45;CMIS_DECIMAL -->
<g id="node17" class="node">
<title>DTEL&#45;CMIS_DECIMAL</title>
<g id="a_node17"><a xlink:href="./DTEL_CMIS_DECIMAL.html" xlink:title="DTEL&#45;CMIS_DECIMAL">
<polygon fill="none" stroke="green" points="906.82,-180 745,-180 745,-144 906.82,-144 906.82,-180"/>
<text text-anchor="middle" x="825.91" y="-157.8" font-family="Times,serif" font-size="14.00">DTEL&#45;CMIS_DECIMAL</text>
</a>
</g>
</g>
<!-- TABL&#45;CMIS_S_PROPERTY_VALUE&#45;&gt;DTEL&#45;CMIS_DECIMAL -->
<g id="edge16" class="edge">
<title>TABL&#45;CMIS_S_PROPERTY_VALUE&#45;&gt;DTEL&#45;CMIS_DECIMAL</title>
<path fill="none" stroke="black" d="M631.45,-215.97C668.14,-205.97 714.67,-193.3 753.01,-182.85"/>
<polygon fill="black" stroke="black" points="754.36,-186.12 763.08,-180.11 752.52,-179.36 754.36,-186.12"/>
</g>
<!-- DTEL&#45;CMIS_LONG -->
<g id="node18" class="node">
<title>DTEL&#45;CMIS_LONG</title>
<g id="a_node18"><a xlink:href="./DTEL_CMIS_LONG.html" xlink:title="DTEL&#45;CMIS_LONG">
<polygon fill="none" stroke="green" points="1060.93,-180 924.88,-180 924.88,-144 1060.93,-144 1060.93,-180"/>
<text text-anchor="middle" x="992.91" y="-157.8" font-family="Times,serif" font-size="14.00">DTEL&#45;CMIS_LONG</text>
</a>
</g>
</g>
<!-- TABL&#45;CMIS_S_PROPERTY_VALUE&#45;&gt;DTEL&#45;CMIS_LONG -->
<g id="edge15" class="edge">
<title>TABL&#45;CMIS_S_PROPERTY_VALUE&#45;&gt;DTEL&#45;CMIS_LONG</title>
<path fill="none" stroke="black" d="M688.87,-216.66C753.11,-207.43 833.79,-195.09 914.2,-180.26"/>
<polygon fill="black" stroke="black" points="915.33,-183.61 924.52,-178.34 914.05,-176.73 915.33,-183.61"/>
</g>
<!-- DTEL&#45;BOOLEAN -->
<g id="node19" class="node">
<title>DTEL&#45;BOOLEAN</title>
<g id="a_node19"><a xlink:href="./DTEL_BOOLEAN.html" xlink:title="DTEL&#45;BOOLEAN">
<polygon fill="none" stroke="yellow" points="477.7,-180 354.11,-180 354.11,-144 477.7,-144 477.7,-180"/>
<text text-anchor="middle" x="415.91" y="-157.8" font-family="Times,serif" font-size="14.00">DTEL&#45;BOOLEAN</text>
</a>
</g>
</g>
<!-- TABL&#45;CMIS_S_PROPERTY_VALUE&#45;&gt;DTEL&#45;BOOLEAN -->
<g id="edge14" class="edge">
<title>TABL&#45;CMIS_S_PROPERTY_VALUE&#45;&gt;DTEL&#45;BOOLEAN</title>
<path fill="none" stroke="black" d="M531.48,-215.88C510.65,-206.35 484.55,-194.41 462.42,-184.28"/>
<polygon fill="black" stroke="black" points="463.76,-181.05 453.21,-180.07 460.85,-187.41 463.76,-181.05"/>
</g>
<!-- DTEL&#45;TZNUTCSIGN -->
<g id="node11" class="node">
<title>DTEL&#45;TZNUTCSIGN</title>
<g id="a_node11"><a xlink:href="./DTEL_TZNUTCSIGN.html" xlink:title="DTEL&#45;TZNUTCSIGN">
<polygon fill="none" stroke="yellow" points="843.19,-108 698.62,-108 698.62,-72 843.19,-72 843.19,-108"/>
<text text-anchor="middle" x="770.91" y="-85.8" font-family="Times,serif" font-size="14.00">DTEL&#45;TZNUTCSIGN</text>
</a>
</g>
</g>
<!-- TABL&#45;CMIS_S_DATE_TIME&#45;&gt;DTEL&#45;TZNUTCSIGN -->
<g id="edge20" class="edge">
<title>TABL&#45;CMIS_S_DATE_TIME&#45;&gt;DTEL&#45;TZNUTCSIGN</title>
<path fill="none" stroke="black" d="M665.15,-143.88C683.97,-134.47 707.49,-122.71 727.57,-112.67"/>
<polygon fill="black" stroke="black" points="729.15,-115.79 736.53,-108.19 726.02,-109.53 729.15,-115.79"/>
</g>
<!-- DTEL&#45;TZNUTCDIFF -->
<g id="node13" class="node">
<title>DTEL&#45;TZNUTCDIFF</title>
<g id="a_node13"><a xlink:href="./DTEL_TZNUTCDIFF.html" xlink:title="DTEL&#45;TZNUTCDIFF">
<polygon fill="none" stroke="yellow" points="1002.87,-108 860.94,-108 860.94,-72 1002.87,-72 1002.87,-108"/>
<text text-anchor="middle" x="931.91" y="-85.8" font-family="Times,serif" font-size="14.00">DTEL&#45;TZNUTCDIFF</text>
</a>
</g>
</g>
<!-- TABL&#45;CMIS_S_DATE_TIME&#45;&gt;DTEL&#45;TZNUTCDIFF -->
<g id="edge19" class="edge">
<title>TABL&#45;CMIS_S_DATE_TIME&#45;&gt;DTEL&#45;TZNUTCDIFF</title>
<path fill="none" stroke="black" d="M704.15,-143.97C748.57,-133.64 805.31,-120.44 851.05,-109.8"/>
<polygon fill="black" stroke="black" points="851.98,-113.18 860.93,-107.51 850.4,-106.36 851.98,-113.18"/>
</g>
<!-- DTEL&#45;TIMESTAMPL -->
<g id="node15" class="node">
<title>DTEL&#45;TIMESTAMPL</title>
<g id="a_node15"><a xlink:href="./DTEL_TIMESTAMPL.html" xlink:title="DTEL&#45;TIMESTAMPL">
<polygon fill="none" stroke="green" points="680.76,-108 535.05,-108 535.05,-72 680.76,-72 680.76,-108"/>
<text text-anchor="middle" x="607.91" y="-85.8" font-family="Times,serif" font-size="14.00">DTEL&#45;TIMESTAMPL</text>
</a>
</g>
</g>
<!-- TABL&#45;CMIS_S_DATE_TIME&#45;&gt;DTEL&#45;TIMESTAMPL -->
<g id="edge18" class="edge">
<title>TABL&#45;CMIS_S_DATE_TIME&#45;&gt;DTEL&#45;TIMESTAMPL</title>
<path fill="none" stroke="black" d="M625.22,-143.7C622.66,-135.9 619.57,-126.51 616.72,-117.83"/>
<polygon fill="black" stroke="black" points="619.97,-116.51 613.53,-108.1 613.32,-118.7 619.97,-116.51"/>
</g>
<!-- DOMA&#45;TZNSIGN -->
<g id="node12" class="node">
<title>DOMA&#45;TZNSIGN</title>
<g id="a_node12"><a xlink:href="./DOMA_TZNSIGN.html" xlink:title="DOMA&#45;TZNSIGN">
<polygon fill="none" stroke="yellow" points="832.7,-36 709.11,-36 709.11,0 832.7,0 832.7,-36"/>
<text text-anchor="middle" x="770.91" y="-13.8" font-family="Times,serif" font-size="14.00">DOMA&#45;TZNSIGN</text>
</a>
</g>
</g>
<!-- DTEL&#45;TZNUTCSIGN&#45;&gt;DOMA&#45;TZNSIGN -->
<g id="edge21" class="edge">
<title>DTEL&#45;TZNUTCSIGN&#45;&gt;DOMA&#45;TZNSIGN</title>
<path fill="none" stroke="black" d="M770.91,-71.7C770.91,-63.98 770.91,-54.71 770.91,-46.11"/>
<polygon fill="black" stroke="black" points="774.41,-46.1 770.91,-36.1 767.41,-46.1 774.41,-46.1"/>
</g>
<!-- DOMA&#45;TZNTIMDIFF -->
<g id="node14" class="node">
<title>DOMA&#45;TZNTIMDIFF</title>
<g id="a_node14"><a xlink:href="./DOMA_TZNTIMDIFF.html" xlink:title="DOMA&#45;TZNTIMDIFF">
<polygon fill="none" stroke="yellow" points="1005.03,-36 858.78,-36 858.78,0 1005.03,0 1005.03,-36"/>
<text text-anchor="middle" x="931.91" y="-13.8" font-family="Times,serif" font-size="14.00">DOMA&#45;TZNTIMDIFF</text>
</a>
</g>
</g>
<!-- DTEL&#45;TZNUTCDIFF&#45;&gt;DOMA&#45;TZNTIMDIFF -->
<g id="edge22" class="edge">
<title>DTEL&#45;TZNUTCDIFF&#45;&gt;DOMA&#45;TZNTIMDIFF</title>
<path fill="none" stroke="black" d="M931.91,-71.7C931.91,-63.98 931.91,-54.71 931.91,-46.11"/>
<polygon fill="black" stroke="black" points="935.41,-46.1 931.91,-36.1 928.41,-46.1 935.41,-46.1"/>
</g>
<!-- DOMA&#45;TZNTSTMPL -->
<g id="node16" class="node">
<title>DOMA&#45;TZNTSTMPL</title>
<g id="a_node16"><a xlink:href="./DOMA_TZNTSTMPL.html" xlink:title="DOMA&#45;TZNTSTMPL">
<polygon fill="none" stroke="yellow" points="680.21,-36 535.6,-36 535.6,0 680.21,0 680.21,-36"/>
<text text-anchor="middle" x="607.91" y="-13.8" font-family="Times,serif" font-size="14.00">DOMA&#45;TZNTSTMPL</text>
</a>
</g>
</g>
<!-- DTEL&#45;TIMESTAMPL&#45;&gt;DOMA&#45;TZNTSTMPL -->
<g id="edge23" class="edge">
<title>DTEL&#45;TIMESTAMPL&#45;&gt;DOMA&#45;TZNTSTMPL</title>
<path fill="none" stroke="black" d="M607.91,-71.7C607.91,-63.98 607.91,-54.71 607.91,-46.11"/>
<polygon fill="black" stroke="black" points="611.41,-46.1 607.91,-36.1 604.41,-46.1 611.41,-46.1"/>
</g>
<!-- DOMA&#45;BOOLEAN -->
<g id="node20" class="node">
<title>DOMA&#45;BOOLEAN</title>
<g id="a_node20"><a xlink:href="./DOMA_BOOLEAN.html" xlink:title="DOMA&#45;BOOLEAN">
<polygon fill="none" stroke="yellow" points="479.2,-108 348.61,-108 348.61,-72 479.2,-72 479.2,-108"/>
<text text-anchor="middle" x="413.91" y="-85.8" font-family="Times,serif" font-size="14.00">DOMA&#45;BOOLEAN</text>
</a>
</g>
</g>
<!-- DTEL&#45;BOOLEAN&#45;&gt;DOMA&#45;BOOLEAN -->
<g id="edge24" class="edge">
<title>DTEL&#45;BOOLEAN&#45;&gt;DOMA&#45;BOOLEAN</title>
<path fill="none" stroke="black" d="M415.41,-143.7C415.19,-135.98 414.93,-126.71 414.68,-118.11"/>
<polygon fill="black" stroke="black" points="418.18,-118 414.39,-108.1 411.18,-118.2 418.18,-118"/>
</g>
</g>
</svg>
