<?xml version="1.0" encoding="UTF-8" standalone="no"?>
<!DOCTYPE svg PUBLIC "-//W3C//DTD SVG 1.1//EN"
 "http://www.w3.org/Graphics/SVG/1.1/DTD/svg11.dtd">
<!-- Generated by graphviz version 2.47.3 (20210619.1520)
 -->
<!-- Title: G Pages: 1 -->
<svg width="448pt" height="260pt"
 viewBox="0.00 0.00 447.63 260.00" xmlns="http://www.w3.org/2000/svg" xmlns:xlink="http://www.w3.org/1999/xlink">
<g id="graph0" class="graph" transform="scale(1 1) rotate(0) translate(4 256)">
<title>G</title>
<polygon fill="white" stroke="transparent" points="-4,4 -4,-256 443.63,-256 443.63,4 -4,4"/>
<!-- TABL&#45;FDT_INC_C_KEY_0002 -->
<g id="node1" class="node">
<title>TABL&#45;FDT_INC_C_KEY_0002</title>
<polygon fill="none" stroke="yellow" points="400.12,-252 198.4,-252 198.4,-216 400.12,-216 400.12,-252"/>
<text text-anchor="middle" x="299.26" y="-229.8" font-family="Times,serif" font-size="14.00">TABL&#45;FDT_INC_C_KEY_0002</text>
</g>
<!-- TABL&#45;FDT_INC_KEY_0002 -->
<g id="node2" class="node">
<title>TABL&#45;FDT_INC_KEY_0002</title>
<g id="a_node2"><a xlink:href="./TABL_FDT_INC_KEY_0002.html" xlink:title="TABL&#45;FDT_INC_KEY_0002">
<polygon fill="none" stroke="yellow" points="309.78,-180 124.74,-180 124.74,-144 309.78,-144 309.78,-180"/>
<text text-anchor="middle" x="217.26" y="-157.8" font-family="Times,serif" font-size="14.00">TABL&#45;FDT_INC_KEY_0002</text>
</a>
</g>
</g>
<!-- TABL&#45;FDT_INC_C_KEY_0002&#45;&gt;TABL&#45;FDT_INC_KEY_0002 -->
<g id="edge2" class="edge">
<title>TABL&#45;FDT_INC_C_KEY_0002&#45;&gt;TABL&#45;FDT_INC_KEY_0002</title>
<path fill="none" stroke="black" d="M278.99,-215.7C268.76,-206.97 256.2,-196.24 245.08,-186.75"/>
<polygon fill="black" stroke="black" points="247.17,-183.94 237.3,-180.1 242.63,-189.26 247.17,-183.94"/>
</g>
<!-- DTEL&#45;MANDT -->
<g id="node6" class="node">
<title>DTEL&#45;MANDT</title>
<g id="a_node6"><a xlink:href="./DTEL_MANDT.html" xlink:title="DTEL&#45;MANDT">
<polygon fill="none" stroke="green" points="436,-180 328.52,-180 328.52,-144 436,-144 436,-180"/>
<text text-anchor="middle" x="382.26" y="-157.8" font-family="Times,serif" font-size="14.00">DTEL&#45;MANDT</text>
</a>
</g>
</g>
<!-- TABL&#45;FDT_INC_C_KEY_0002&#45;&gt;DTEL&#45;MANDT -->
<g id="edge1" class="edge">
<title>TABL&#45;FDT_INC_C_KEY_0002&#45;&gt;DTEL&#45;MANDT</title>
<path fill="none" stroke="black" d="M319.78,-215.7C330.13,-206.97 342.85,-196.24 354.1,-186.75"/>
<polygon fill="black" stroke="black" points="356.59,-189.23 361.98,-180.1 352.08,-183.88 356.59,-189.23"/>
</g>
<!-- DTEL&#45;FDT_VERSION -->
<g id="node3" class="node">
<title>DTEL&#45;FDT_VERSION</title>
<g id="a_node3"><a xlink:href="./DTEL_FDT_VERSION.html" xlink:title="DTEL&#45;FDT_VERSION">
<polygon fill="none" stroke="yellow" points="150.28,-108 0.24,-108 0.24,-72 150.28,-72 150.28,-108"/>
<text text-anchor="middle" x="75.26" y="-85.8" font-family="Times,serif" font-size="14.00">DTEL&#45;FDT_VERSION</text>
</a>
</g>
</g>
<!-- TABL&#45;FDT_INC_KEY_0002&#45;&gt;DTEL&#45;FDT_VERSION -->
<g id="edge4" class="edge">
<title>TABL&#45;FDT_INC_KEY_0002&#45;&gt;DTEL&#45;FDT_VERSION</title>
<path fill="none" stroke="black" d="M182.52,-143.88C163.44,-134.47 139.58,-122.71 119.21,-112.67"/>
<polygon fill="black" stroke="black" points="120.65,-109.47 110.13,-108.19 117.55,-115.75 120.65,-109.47"/>
</g>
<!-- DTEL&#45;FDT_UUID -->
<g id="node4" class="node">
<title>DTEL&#45;FDT_UUID</title>
<g id="a_node4"><a xlink:href="./DTEL_FDT_UUID.html" xlink:title="DTEL&#45;FDT_UUID">
<polygon fill="none" stroke="yellow" points="293.61,-108 168.91,-108 168.91,-72 293.61,-72 293.61,-108"/>
<text text-anchor="middle" x="231.26" y="-85.8" font-family="Times,serif" font-size="14.00">DTEL&#45;FDT_UUID</text>
</a>
</g>
</g>
<!-- TABL&#45;FDT_INC_KEY_0002&#45;&gt;DTEL&#45;FDT_UUID -->
<g id="edge3" class="edge">
<title>TABL&#45;FDT_INC_KEY_0002&#45;&gt;DTEL&#45;FDT_UUID</title>
<path fill="none" stroke="black" d="M220.72,-143.7C222.26,-135.98 224.12,-126.71 225.84,-118.11"/>
<polygon fill="black" stroke="black" points="229.31,-118.6 227.84,-108.1 222.45,-117.22 229.31,-118.6"/>
</g>
<!-- DOMA&#45;SYSUUID_C -->
<g id="node5" class="node">
<title>DOMA&#45;SYSUUID_C</title>
<g id="a_node5"><a xlink:href="./DOMA_SYSUUID_C.html" xlink:title="DOMA&#45;SYSUUID_C">
<polygon fill="none" stroke="yellow" points="301.67,-36 160.85,-36 160.85,0 301.67,0 301.67,-36"/>
<text text-anchor="middle" x="231.26" y="-13.8" font-family="Times,serif" font-size="14.00">DOMA&#45;SYSUUID_C</text>
</a>
</g>
</g>
<!-- DTEL&#45;FDT_UUID&#45;&gt;DOMA&#45;SYSUUID_C -->
<g id="edge5" class="edge">
<title>DTEL&#45;FDT_UUID&#45;&gt;DOMA&#45;SYSUUID_C</title>
<path fill="none" stroke="black" d="M231.26,-71.7C231.26,-63.98 231.26,-54.71 231.26,-46.11"/>
<polygon fill="black" stroke="black" points="234.76,-46.1 231.26,-36.1 227.76,-46.1 234.76,-46.1"/>
</g>
<!-- DOMA&#45;MANDT -->
<g id="node7" class="node">
<title>DOMA&#45;MANDT</title>
<g id="a_node7"><a xlink:href="./DOMA_MANDT.html" xlink:title="DOMA&#45;MANDT">
<polygon fill="none" stroke="yellow" points="439.5,-108 325.02,-108 325.02,-72 439.5,-72 439.5,-108"/>
<text text-anchor="middle" x="382.26" y="-85.8" font-family="Times,serif" font-size="14.00">DOMA&#45;MANDT</text>
</a>
</g>
</g>
<!-- DTEL&#45;MANDT&#45;&gt;DOMA&#45;MANDT -->
<g id="edge6" class="edge">
<title>DTEL&#45;MANDT&#45;&gt;DOMA&#45;MANDT</title>
<path fill="none" stroke="black" d="M382.26,-143.7C382.26,-135.98 382.26,-126.71 382.26,-118.11"/>
<polygon fill="black" stroke="black" points="385.76,-118.1 382.26,-108.1 378.76,-118.1 385.76,-118.1"/>
</g>
</g>
</svg>
