<?xml version="1.0" encoding="UTF-8" standalone="no"?>
<!DOCTYPE svg PUBLIC "-//W3C//DTD SVG 1.1//EN"
 "http://www.w3.org/Graphics/SVG/1.1/DTD/svg11.dtd">
<!-- Generated by graphviz version 2.47.3 (20210619.1520)
 -->
<!-- Title: G Pages: 1 -->
<svg width="1150pt" height="188pt"
 viewBox="0.00 0.00 1149.74 188.00" xmlns="http://www.w3.org/2000/svg" xmlns:xlink="http://www.w3.org/1999/xlink">
<g id="graph0" class="graph" transform="scale(1 1) rotate(0) translate(4 184)">
<title>G</title>
<polygon fill="white" stroke="transparent" points="-4,4 -4,-184 1145.74,-184 1145.74,4 -4,4"/>
<!-- TABL&#45;SUID_ST_NODE_UCLASS -->
<g id="node1" class="node">
<title>TABL&#45;SUID_ST_NODE_UCLASS</title>
<polygon fill="none" stroke="yellow" points="650.83,-180 431.35,-180 431.35,-144 650.83,-144 650.83,-180"/>
<text text-anchor="middle" x="541.09" y="-157.8" font-family="Times,serif" font-size="14.00">TABL&#45;SUID_ST_NODE_UCLASS</text>
</g>
<!-- DTEL&#45;XANAME -->
<g id="node2" class="node">
<title>DTEL&#45;XANAME</title>
<g id="a_node2"><a xlink:href="./DTEL_XANAME.html" xlink:title="DTEL&#45;XANAME">
<polygon fill="none" stroke="yellow" points="131.94,-108 14.24,-108 14.24,-72 131.94,-72 131.94,-108"/>
<text text-anchor="middle" x="73.09" y="-85.8" font-family="Times,serif" font-size="14.00">DTEL&#45;XANAME</text>
</a>
</g>
</g>
<!-- TABL&#45;SUID_ST_NODE_UCLASS&#45;&gt;DTEL&#45;XANAME -->
<g id="edge8" class="edge">
<title>TABL&#45;SUID_ST_NODE_UCLASS&#45;&gt;DTEL&#45;XANAME</title>
<path fill="none" stroke="black" d="M431.25,-149.11C351.75,-139.81 241.89,-125.54 146.09,-108 144.8,-107.76 143.49,-107.52 142.17,-107.27"/>
<polygon fill="black" stroke="black" points="142.45,-103.75 131.96,-105.22 141.07,-110.62 142.45,-103.75"/>
</g>
<!-- DTEL&#45;MANDT -->
<g id="node4" class="node">
<title>DTEL&#45;MANDT</title>
<g id="a_node4"><a xlink:href="./DTEL_MANDT.html" xlink:title="DTEL&#45;MANDT">
<polygon fill="none" stroke="green" points="262.83,-108 155.35,-108 155.35,-72 262.83,-72 262.83,-108"/>
<text text-anchor="middle" x="209.09" y="-85.8" font-family="Times,serif" font-size="14.00">DTEL&#45;MANDT</text>
</a>
</g>
</g>
<!-- TABL&#45;SUID_ST_NODE_UCLASS&#45;&gt;DTEL&#45;MANDT -->
<g id="edge7" class="edge">
<title>TABL&#45;SUID_ST_NODE_UCLASS&#45;&gt;DTEL&#45;MANDT</title>
<path fill="none" stroke="black" d="M446.14,-143.95C397.01,-134.73 335.88,-122.65 272.73,-108.07"/>
<polygon fill="black" stroke="black" points="273.52,-104.66 262.99,-105.81 271.93,-111.48 273.52,-104.66"/>
</g>
<!-- DTEL&#45;SYSYSID -->
<g id="node6" class="node">
<title>DTEL&#45;SYSYSID</title>
<g id="a_node6"><a xlink:href="./DTEL_SYSYSID.html" xlink:title="DTEL&#45;SYSYSID">
<polygon fill="none" stroke="yellow" points="395.35,-108 280.84,-108 280.84,-72 395.35,-72 395.35,-108"/>
<text text-anchor="middle" x="338.09" y="-85.8" font-family="Times,serif" font-size="14.00">DTEL&#45;SYSYSID</text>
</a>
</g>
</g>
<!-- TABL&#45;SUID_ST_NODE_UCLASS&#45;&gt;DTEL&#45;SYSYSID -->
<g id="edge6" class="edge">
<title>TABL&#45;SUID_ST_NODE_UCLASS&#45;&gt;DTEL&#45;SYSYSID</title>
<path fill="none" stroke="black" d="M491.69,-143.97C463.21,-134.14 427.21,-121.73 397.22,-111.39"/>
<polygon fill="black" stroke="black" points="398.31,-108.06 387.71,-108.11 396.03,-114.68 398.31,-108.06"/>
</g>
<!-- DTEL&#45;XBISDAT -->
<g id="node8" class="node">
<title>DTEL&#45;XBISDAT</title>
<g id="a_node8"><a xlink:href="./DTEL_XBISDAT.html" xlink:title="DTEL&#45;XBISDAT">
<polygon fill="none" stroke="yellow" points="530.67,-108 413.52,-108 413.52,-72 530.67,-72 530.67,-108"/>
<text text-anchor="middle" x="472.09" y="-85.8" font-family="Times,serif" font-size="14.00">DTEL&#45;XBISDAT</text>
</a>
</g>
</g>
<!-- TABL&#45;SUID_ST_NODE_UCLASS&#45;&gt;DTEL&#45;XBISDAT -->
<g id="edge5" class="edge">
<title>TABL&#45;SUID_ST_NODE_UCLASS&#45;&gt;DTEL&#45;XBISDAT</title>
<path fill="none" stroke="black" d="M524.04,-143.7C515.6,-135.14 505.27,-124.66 496.05,-115.3"/>
<polygon fill="black" stroke="black" points="498.47,-112.77 488.95,-108.1 493.48,-117.68 498.47,-112.77"/>
</g>
<!-- DTEL&#45;XVONDAT -->
<g id="node10" class="node">
<title>DTEL&#45;XVONDAT</title>
<g id="a_node10"><a xlink:href="./DTEL_XVONDAT.html" xlink:title="DTEL&#45;XVONDAT">
<polygon fill="none" stroke="yellow" points="673.71,-108 548.47,-108 548.47,-72 673.71,-72 673.71,-108"/>
<text text-anchor="middle" x="611.09" y="-85.8" font-family="Times,serif" font-size="14.00">DTEL&#45;XVONDAT</text>
</a>
</g>
</g>
<!-- TABL&#45;SUID_ST_NODE_UCLASS&#45;&gt;DTEL&#45;XVONDAT -->
<g id="edge4" class="edge">
<title>TABL&#45;SUID_ST_NODE_UCLASS&#45;&gt;DTEL&#45;XVONDAT</title>
<path fill="none" stroke="black" d="M558.4,-143.7C566.96,-135.14 577.44,-124.66 586.79,-115.3"/>
<polygon fill="black" stroke="black" points="589.39,-117.65 593.99,-108.1 584.44,-112.7 589.39,-117.65"/>
</g>
<!-- DTEL&#45;USMM_DEC3 -->
<g id="node11" class="node">
<title>DTEL&#45;USMM_DEC3</title>
<g id="a_node11"><a xlink:href="./DTEL_USMM_DEC3.html" xlink:title="DTEL&#45;USMM_DEC3">
<polygon fill="none" stroke="yellow" points="832.79,-108 691.39,-108 691.39,-72 832.79,-72 832.79,-108"/>
<text text-anchor="middle" x="762.09" y="-85.8" font-family="Times,serif" font-size="14.00">DTEL&#45;USMM_DEC3</text>
</a>
</g>
</g>
<!-- TABL&#45;SUID_ST_NODE_UCLASS&#45;&gt;DTEL&#45;USMM_DEC3 -->
<g id="edge3" class="edge">
<title>TABL&#45;SUID_ST_NODE_UCLASS&#45;&gt;DTEL&#45;USMM_DEC3</title>
<path fill="none" stroke="black" d="M594.87,-143.97C626.02,-134.1 665.42,-121.62 698.14,-111.25"/>
<polygon fill="black" stroke="black" points="699.59,-114.47 708.07,-108.11 697.48,-107.79 699.59,-114.47"/>
</g>
<!-- DTEL&#45;VERSIONZU -->
<g id="node13" class="node">
<title>DTEL&#45;VERSIONZU</title>
<g id="a_node13"><a xlink:href="./DTEL_VERSIONZU.html" xlink:title="DTEL&#45;VERSIONZU">
<polygon fill="none" stroke="yellow" points="985.83,-108 850.36,-108 850.36,-72 985.83,-72 985.83,-108"/>
<text text-anchor="middle" x="918.09" y="-85.8" font-family="Times,serif" font-size="14.00">DTEL&#45;VERSIONZU</text>
</a>
</g>
</g>
<!-- TABL&#45;SUID_ST_NODE_UCLASS&#45;&gt;DTEL&#45;VERSIONZU -->
<g id="edge2" class="edge">
<title>TABL&#45;SUID_ST_NODE_UCLASS&#45;&gt;DTEL&#45;VERSIONZU</title>
<path fill="none" stroke="black" d="M644.75,-143.95C700.27,-134.53 770.06,-122.23 840.27,-108.33"/>
<polygon fill="black" stroke="black" points="841.05,-111.74 850.17,-106.35 839.68,-104.87 841.05,-111.74"/>
</g>
<!-- DTEL&#45;USERTYPEN -->
<g id="node15" class="node">
<title>DTEL&#45;USERTYPEN</title>
<g id="a_node15"><a xlink:href="./DTEL_USERTYPEN.html" xlink:title="DTEL&#45;USERTYPEN">
<polygon fill="none" stroke="yellow" points="1141.9,-108 1004.29,-108 1004.29,-72 1141.9,-72 1141.9,-108"/>
<text text-anchor="middle" x="1073.09" y="-85.8" font-family="Times,serif" font-size="14.00">DTEL&#45;USERTYPEN</text>
</a>
</g>
</g>
<!-- TABL&#45;SUID_ST_NODE_UCLASS&#45;&gt;DTEL&#45;USERTYPEN -->
<g id="edge1" class="edge">
<title>TABL&#45;SUID_ST_NODE_UCLASS&#45;&gt;DTEL&#45;USERTYPEN</title>
<path fill="none" stroke="black" d="M651.14,-151.21C740.92,-142.51 871.19,-128.28 994.28,-108.04"/>
<polygon fill="black" stroke="black" points="994.97,-111.48 1004.26,-106.39 993.82,-104.57 994.97,-111.48"/>
</g>
<!-- DOMA&#45;XUBNAME -->
<g id="node3" class="node">
<title>DOMA&#45;XUBNAME</title>
<g id="a_node3"><a xlink:href="./DOMA_XUBNAME.html" xlink:title="DOMA&#45;XUBNAME">
<polygon fill="none" stroke="yellow" points="134.28,-36 -0.09,-36 -0.09,0 134.28,0 134.28,-36"/>
<text text-anchor="middle" x="67.09" y="-13.8" font-family="Times,serif" font-size="14.00">DOMA&#45;XUBNAME</text>
</a>
</g>
</g>
<!-- DTEL&#45;XANAME&#45;&gt;DOMA&#45;XUBNAME -->
<g id="edge9" class="edge">
<title>DTEL&#45;XANAME&#45;&gt;DOMA&#45;XUBNAME</title>
<path fill="none" stroke="black" d="M71.61,-71.7C70.95,-63.98 70.15,-54.71 69.42,-46.11"/>
<polygon fill="black" stroke="black" points="72.9,-45.77 68.56,-36.1 65.93,-46.37 72.9,-45.77"/>
</g>
<!-- DOMA&#45;MANDT -->
<g id="node5" class="node">
<title>DOMA&#45;MANDT</title>
<g id="a_node5"><a xlink:href="./DOMA_MANDT.html" xlink:title="DOMA&#45;MANDT">
<polygon fill="none" stroke="yellow" points="266.33,-36 151.85,-36 151.85,0 266.33,0 266.33,-36"/>
<text text-anchor="middle" x="209.09" y="-13.8" font-family="Times,serif" font-size="14.00">DOMA&#45;MANDT</text>
</a>
</g>
</g>
<!-- DTEL&#45;MANDT&#45;&gt;DOMA&#45;MANDT -->
<g id="edge10" class="edge">
<title>DTEL&#45;MANDT&#45;&gt;DOMA&#45;MANDT</title>
<path fill="none" stroke="black" d="M209.09,-71.7C209.09,-63.98 209.09,-54.71 209.09,-46.11"/>
<polygon fill="black" stroke="black" points="212.59,-46.1 209.09,-36.1 205.59,-46.1 212.59,-46.1"/>
</g>
<!-- DOMA&#45;SYCHAR08 -->
<g id="node7" class="node">
<title>DOMA&#45;SYCHAR08</title>
<g id="a_node7"><a xlink:href="./DOMA_SYCHAR08.html" xlink:title="DOMA&#45;SYCHAR08">
<polygon fill="none" stroke="yellow" points="418.29,-36 283.89,-36 283.89,0 418.29,0 418.29,-36"/>
<text text-anchor="middle" x="351.09" y="-13.8" font-family="Times,serif" font-size="14.00">DOMA&#45;SYCHAR08</text>
</a>
</g>
</g>
<!-- DTEL&#45;SYSYSID&#45;&gt;DOMA&#45;SYCHAR08 -->
<g id="edge11" class="edge">
<title>DTEL&#45;SYSYSID&#45;&gt;DOMA&#45;SYCHAR08</title>
<path fill="none" stroke="black" d="M341.31,-71.7C342.74,-63.98 344.46,-54.71 346.06,-46.11"/>
<polygon fill="black" stroke="black" points="349.53,-46.58 347.92,-36.1 342.65,-45.3 349.53,-46.58"/>
</g>
<!-- DOMA&#45;DATUM -->
<g id="node9" class="node">
<title>DOMA&#45;DATUM</title>
<g id="a_node9"><a xlink:href="./DOMA_DATUM.html" xlink:title="DOMA&#45;DATUM">
<polygon fill="none" stroke="yellow" points="608.33,-36 493.85,-36 493.85,0 608.33,0 608.33,-36"/>
<text text-anchor="middle" x="551.09" y="-13.8" font-family="Times,serif" font-size="14.00">DOMA&#45;DATUM</text>
</a>
</g>
</g>
<!-- DTEL&#45;XBISDAT&#45;&gt;DOMA&#45;DATUM -->
<g id="edge12" class="edge">
<title>DTEL&#45;XBISDAT&#45;&gt;DOMA&#45;DATUM</title>
<path fill="none" stroke="black" d="M491.62,-71.7C501.47,-62.97 513.58,-52.24 524.29,-42.75"/>
<polygon fill="black" stroke="black" points="526.63,-45.36 531.79,-36.1 521.98,-40.12 526.63,-45.36"/>
</g>
<!-- DTEL&#45;XVONDAT&#45;&gt;DOMA&#45;DATUM -->
<g id="edge13" class="edge">
<title>DTEL&#45;XVONDAT&#45;&gt;DOMA&#45;DATUM</title>
<path fill="none" stroke="black" d="M596.26,-71.7C589.07,-63.3 580.3,-53.07 572.4,-43.86"/>
<polygon fill="black" stroke="black" points="574.92,-41.42 565.75,-36.1 569.6,-45.97 574.92,-41.42"/>
</g>
<!-- DOMA&#45;USMM_DEC3 -->
<g id="node12" class="node">
<title>DOMA&#45;USMM_DEC3</title>
<g id="a_node12"><a xlink:href="./DOMA_USMM_DEC3.html" xlink:title="DOMA&#45;USMM_DEC3">
<polygon fill="none" stroke="yellow" points="830.29,-36 681.89,-36 681.89,0 830.29,0 830.29,-36"/>
<text text-anchor="middle" x="756.09" y="-13.8" font-family="Times,serif" font-size="14.00">DOMA&#45;USMM_DEC3</text>
</a>
</g>
</g>
<!-- DTEL&#45;USMM_DEC3&#45;&gt;DOMA&#45;USMM_DEC3 -->
<g id="edge14" class="edge">
<title>DTEL&#45;USMM_DEC3&#45;&gt;DOMA&#45;USMM_DEC3</title>
<path fill="none" stroke="black" d="M760.61,-71.7C759.95,-63.98 759.15,-54.71 758.42,-46.11"/>
<polygon fill="black" stroke="black" points="761.9,-45.77 757.56,-36.1 754.93,-46.37 761.9,-45.77"/>
</g>
<!-- DOMA&#45;VERSIONZU -->
<g id="node14" class="node">
<title>DOMA&#45;VERSIONZU</title>
<g id="a_node14"><a xlink:href="./DOMA_VERSIONZU.html" xlink:title="DOMA&#45;VERSIONZU">
<polygon fill="none" stroke="yellow" points="990.33,-36 847.86,-36 847.86,0 990.33,0 990.33,-36"/>
<text text-anchor="middle" x="919.09" y="-13.8" font-family="Times,serif" font-size="14.00">DOMA&#45;VERSIONZU</text>
</a>
</g>
</g>
<!-- DTEL&#45;VERSIONZU&#45;&gt;DOMA&#45;VERSIONZU -->
<g id="edge15" class="edge">
<title>DTEL&#45;VERSIONZU&#45;&gt;DOMA&#45;VERSIONZU</title>
<path fill="none" stroke="black" d="M918.34,-71.7C918.45,-63.98 918.58,-54.71 918.71,-46.11"/>
<polygon fill="black" stroke="black" points="922.2,-46.15 918.85,-36.1 915.21,-46.05 922.2,-46.15"/>
</g>
<!-- DOMA&#45;USERTYP -->
<g id="node16" class="node">
<title>DOMA&#45;USERTYP</title>
<g id="a_node16"><a xlink:href="./DOMA_USERTYP.html" xlink:title="DOMA&#45;USERTYP">
<polygon fill="none" stroke="yellow" points="1135.74,-36 1010.45,-36 1010.45,0 1135.74,0 1135.74,-36"/>
<text text-anchor="middle" x="1073.09" y="-13.8" font-family="Times,serif" font-size="14.00">DOMA&#45;USERTYP</text>
</a>
</g>
</g>
<!-- DTEL&#45;USERTYPEN&#45;&gt;DOMA&#45;USERTYP -->
<g id="edge16" class="edge">
<title>DTEL&#45;USERTYPEN&#45;&gt;DOMA&#45;USERTYP</title>
<path fill="none" stroke="black" d="M1073.09,-71.7C1073.09,-63.98 1073.09,-54.71 1073.09,-46.11"/>
<polygon fill="black" stroke="black" points="1076.59,-46.1 1073.09,-36.1 1069.59,-46.1 1076.59,-46.1"/>
</g>
</g>
</svg>
