<?xml version="1.0" encoding="UTF-8" standalone="no"?>
<!DOCTYPE svg PUBLIC "-//W3C//DTD SVG 1.1//EN"
 "http://www.w3.org/Graphics/SVG/1.1/DTD/svg11.dtd">
<!-- Generated by graphviz version 2.47.3 (20210619.1520)
 -->
<!-- Title: G Pages: 1 -->
<svg width="1493pt" height="260pt"
 viewBox="0.00 0.00 1493.30 260.00" xmlns="http://www.w3.org/2000/svg" xmlns:xlink="http://www.w3.org/1999/xlink">
<g id="graph0" class="graph" transform="scale(1 1) rotate(0) translate(4 256)">
<title>G</title>
<polygon fill="white" stroke="transparent" points="-4,4 -4,-256 1489.3,-256 1489.3,4 -4,4"/>
<!-- TABL&#45;AG1251 -->
<g id="node1" class="node">
<title>TABL&#45;AG1251</title>
<polygon fill="none" stroke="yellow" points="1106.74,-252 1000.89,-252 1000.89,-216 1106.74,-216 1106.74,-252"/>
<text text-anchor="middle" x="1053.82" y="-229.8" font-family="Times,serif" font-size="14.00">TABL&#45;AG1251</text>
</g>
<!-- TABL&#45;TPR_STA_IN -->
<g id="node2" class="node">
<title>TABL&#45;TPR_STA_IN</title>
<g id="a_node2"><a xlink:href="./TABL_TPR_STA_IN.html" xlink:title="TABL&#45;TPR_STA_IN">
<polygon fill="none" stroke="yellow" points="510.91,-180 372.73,-180 372.73,-144 510.91,-144 510.91,-180"/>
<text text-anchor="middle" x="441.82" y="-157.8" font-family="Times,serif" font-size="14.00">TABL&#45;TPR_STA_IN</text>
</a>
</g>
</g>
<!-- TABL&#45;AG1251&#45;&gt;TABL&#45;TPR_STA_IN -->
<g id="edge6" class="edge">
<title>TABL&#45;AG1251&#45;&gt;TABL&#45;TPR_STA_IN</title>
<path fill="none" stroke="black" d="M1000.84,-226.94C893.13,-214.62 648.05,-186.59 521.19,-172.08"/>
<polygon fill="black" stroke="black" points="521.48,-168.59 511.15,-170.93 520.69,-175.54 521.48,-168.59"/>
</g>
<!-- DTEL&#45;AGVAL -->
<g id="node12" class="node">
<title>DTEL&#45;AGVAL</title>
<g id="a_node12"><a xlink:href="./DTEL_AGVAL.html" xlink:title="DTEL&#45;AGVAL">
<polygon fill="none" stroke="yellow" points="894.72,-180 788.91,-180 788.91,-144 894.72,-144 894.72,-180"/>
<text text-anchor="middle" x="841.82" y="-157.8" font-family="Times,serif" font-size="14.00">DTEL&#45;AGVAL</text>
</a>
</g>
</g>
<!-- TABL&#45;AG1251&#45;&gt;DTEL&#45;AGVAL -->
<g id="edge5" class="edge">
<title>TABL&#45;AG1251&#45;&gt;DTEL&#45;AGVAL</title>
<path fill="none" stroke="black" d="M1002.23,-215.97C972.35,-206.1 934.56,-193.62 903.16,-183.25"/>
<polygon fill="black" stroke="black" points="904.23,-179.92 893.64,-180.11 902.04,-186.57 904.23,-179.92"/>
</g>
<!-- DTEL&#45;AGRFIELD -->
<g id="node14" class="node">
<title>DTEL&#45;AGRFIELD</title>
<g id="a_node14"><a xlink:href="./DTEL_AGRFIELD.html" xlink:title="DTEL&#45;AGRFIELD">
<polygon fill="none" stroke="yellow" points="1045.45,-180 920.19,-180 920.19,-144 1045.45,-144 1045.45,-180"/>
<text text-anchor="middle" x="982.82" y="-157.8" font-family="Times,serif" font-size="14.00">DTEL&#45;AGRFIELD</text>
</a>
</g>
</g>
<!-- TABL&#45;AG1251&#45;&gt;DTEL&#45;AGRFIELD -->
<g id="edge4" class="edge">
<title>TABL&#45;AG1251&#45;&gt;DTEL&#45;AGRFIELD</title>
<path fill="none" stroke="black" d="M1036.27,-215.7C1027.58,-207.14 1016.95,-196.66 1007.47,-187.3"/>
<polygon fill="black" stroke="black" points="1009.74,-184.63 1000.17,-180.1 1004.83,-189.62 1009.74,-184.63"/>
</g>
<!-- DTEL&#45;TPR_VARI -->
<g id="node16" class="node">
<title>DTEL&#45;TPR_VARI</title>
<g id="a_node16"><a xlink:href="./DTEL_TPR_VARI.html" xlink:title="DTEL&#45;TPR_VARI">
<polygon fill="none" stroke="yellow" points="1187.62,-180 1064.01,-180 1064.01,-144 1187.62,-144 1187.62,-180"/>
<text text-anchor="middle" x="1125.82" y="-157.8" font-family="Times,serif" font-size="14.00">DTEL&#45;TPR_VARI</text>
</a>
</g>
</g>
<!-- TABL&#45;AG1251&#45;&gt;DTEL&#45;TPR_VARI -->
<g id="edge3" class="edge">
<title>TABL&#45;AG1251&#45;&gt;DTEL&#45;TPR_VARI</title>
<path fill="none" stroke="black" d="M1071.61,-215.7C1080.42,-207.14 1091.2,-196.66 1100.82,-187.3"/>
<polygon fill="black" stroke="black" points="1103.49,-189.58 1108.22,-180.1 1098.61,-184.57 1103.49,-189.58"/>
</g>
<!-- DTEL&#45;AGAUTH -->
<g id="node18" class="node">
<title>DTEL&#45;AGAUTH</title>
<g id="a_node18"><a xlink:href="./DTEL_AGAUTH.html" xlink:title="DTEL&#45;AGAUTH">
<polygon fill="none" stroke="yellow" points="1324.33,-180 1209.31,-180 1209.31,-144 1324.33,-144 1324.33,-180"/>
<text text-anchor="middle" x="1266.82" y="-157.8" font-family="Times,serif" font-size="14.00">DTEL&#45;AGAUTH</text>
</a>
</g>
</g>
<!-- TABL&#45;AG1251&#45;&gt;DTEL&#45;AGAUTH -->
<g id="edge2" class="edge">
<title>TABL&#45;AG1251&#45;&gt;DTEL&#45;AGAUTH</title>
<path fill="none" stroke="black" d="M1105.65,-215.97C1135.67,-206.1 1173.64,-193.62 1205.18,-183.25"/>
<polygon fill="black" stroke="black" points="1206.34,-186.56 1214.75,-180.11 1204.16,-179.91 1206.34,-186.56"/>
</g>
<!-- DTEL&#45;AGOBJECT -->
<g id="node20" class="node">
<title>DTEL&#45;AGOBJECT</title>
<g id="a_node20"><a xlink:href="./DTEL_AGOBJECT.html" xlink:title="DTEL&#45;AGOBJECT">
<polygon fill="none" stroke="yellow" points="1476.78,-180 1348.85,-180 1348.85,-144 1476.78,-144 1476.78,-180"/>
<text text-anchor="middle" x="1412.82" y="-157.8" font-family="Times,serif" font-size="14.00">DTEL&#45;AGOBJECT</text>
</a>
</g>
</g>
<!-- TABL&#45;AG1251&#45;&gt;DTEL&#45;AGOBJECT -->
<g id="edge1" class="edge">
<title>TABL&#45;AG1251&#45;&gt;DTEL&#45;AGOBJECT</title>
<path fill="none" stroke="black" d="M1106.53,-223.43C1162.87,-213.1 1254.77,-195.98 1333.82,-180 1335.32,-179.7 1336.84,-179.39 1338.37,-179.07"/>
<polygon fill="black" stroke="black" points="1339.52,-182.41 1348.6,-176.96 1338.1,-175.56 1339.52,-182.41"/>
</g>
<!-- DTEL&#45;SEU_ID -->
<g id="node3" class="node">
<title>DTEL&#45;SEU_ID</title>
<g id="a_node3"><a xlink:href="./DTEL_SEU_ID.html" xlink:title="DTEL&#45;SEU_ID">
<polygon fill="none" stroke="yellow" points="110.95,-108 6.68,-108 6.68,-72 110.95,-72 110.95,-108"/>
<text text-anchor="middle" x="58.82" y="-85.8" font-family="Times,serif" font-size="14.00">DTEL&#45;SEU_ID</text>
</a>
</g>
</g>
<!-- TABL&#45;TPR_STA_IN&#45;&gt;DTEL&#45;SEU_ID -->
<g id="edge11" class="edge">
<title>TABL&#45;TPR_STA_IN&#45;&gt;DTEL&#45;SEU_ID</title>
<path fill="none" stroke="black" d="M372.46,-151.55C307.39,-142.2 207.53,-126.61 121.82,-108 121.48,-107.93 121.15,-107.86 120.82,-107.78"/>
<polygon fill="black" stroke="black" points="121.5,-104.35 110.97,-105.5 119.93,-111.17 121.5,-104.35"/>
</g>
<!-- DTEL&#45;TPR_ST_NEW -->
<g id="node5" class="node">
<title>DTEL&#45;TPR_ST_NEW</title>
<g id="a_node5"><a xlink:href="./DTEL_TPR_ST_NEW.html" xlink:title="DTEL&#45;TPR_ST_NEW">
<polygon fill="none" stroke="yellow" points="275.12,-108 130.51,-108 130.51,-72 275.12,-72 275.12,-108"/>
<text text-anchor="middle" x="202.82" y="-85.8" font-family="Times,serif" font-size="14.00">DTEL&#45;TPR_ST_NEW</text>
</a>
</g>
</g>
<!-- TABL&#45;TPR_STA_IN&#45;&gt;DTEL&#45;TPR_ST_NEW -->
<g id="edge10" class="edge">
<title>TABL&#45;TPR_STA_IN&#45;&gt;DTEL&#45;TPR_ST_NEW</title>
<path fill="none" stroke="black" d="M383.66,-143.97C349.68,-134.01 306.63,-121.41 271.06,-110.99"/>
<polygon fill="black" stroke="black" points="271.82,-107.56 261.24,-108.11 269.85,-114.28 271.82,-107.56"/>
</g>
<!-- DTEL&#45;TPR_ST_COP -->
<g id="node7" class="node">
<title>DTEL&#45;TPR_ST_COP</title>
<g id="a_node7"><a xlink:href="./DTEL_TPR_ST_COP.html" xlink:title="DTEL&#45;TPR_ST_COP">
<polygon fill="none" stroke="yellow" points="432.48,-108 293.16,-108 293.16,-72 432.48,-72 432.48,-108"/>
<text text-anchor="middle" x="362.82" y="-85.8" font-family="Times,serif" font-size="14.00">DTEL&#45;TPR_ST_COP</text>
</a>
</g>
</g>
<!-- TABL&#45;TPR_STA_IN&#45;&gt;DTEL&#45;TPR_ST_COP -->
<g id="edge9" class="edge">
<title>TABL&#45;TPR_STA_IN&#45;&gt;DTEL&#45;TPR_ST_COP</title>
<path fill="none" stroke="black" d="M422.29,-143.7C412.44,-134.97 400.33,-124.24 389.62,-114.75"/>
<polygon fill="black" stroke="black" points="391.93,-112.12 382.12,-108.1 387.28,-117.36 391.93,-112.12"/>
</g>
<!-- DTEL&#45;TPR_ST_DEL -->
<g id="node9" class="node">
<title>DTEL&#45;TPR_ST_DEL</title>
<g id="a_node9"><a xlink:href="./DTEL_TPR_ST_DEL.html" xlink:title="DTEL&#45;TPR_ST_DEL">
<polygon fill="none" stroke="yellow" points="590.46,-108 451.17,-108 451.17,-72 590.46,-72 590.46,-108"/>
<text text-anchor="middle" x="520.82" y="-85.8" font-family="Times,serif" font-size="14.00">DTEL&#45;TPR_ST_DEL</text>
</a>
</g>
</g>
<!-- TABL&#45;TPR_STA_IN&#45;&gt;DTEL&#45;TPR_ST_DEL -->
<g id="edge8" class="edge">
<title>TABL&#45;TPR_STA_IN&#45;&gt;DTEL&#45;TPR_ST_DEL</title>
<path fill="none" stroke="black" d="M461.35,-143.7C471.2,-134.97 483.3,-124.24 494.01,-114.75"/>
<polygon fill="black" stroke="black" points="496.35,-117.36 501.51,-108.1 491.71,-112.12 496.35,-117.36"/>
</g>
<!-- DTEL&#45;TPR_ST_MOD -->
<g id="node10" class="node">
<title>DTEL&#45;TPR_ST_MOD</title>
<g id="a_node10"><a xlink:href="./DTEL_TPR_ST_MOD.html" xlink:title="DTEL&#45;TPR_ST_MOD">
<polygon fill="none" stroke="yellow" points="753.41,-108 608.23,-108 608.23,-72 753.41,-72 753.41,-108"/>
<text text-anchor="middle" x="680.82" y="-85.8" font-family="Times,serif" font-size="14.00">DTEL&#45;TPR_ST_MOD</text>
</a>
</g>
</g>
<!-- TABL&#45;TPR_STA_IN&#45;&gt;DTEL&#45;TPR_ST_MOD -->
<g id="edge7" class="edge">
<title>TABL&#45;TPR_STA_IN&#45;&gt;DTEL&#45;TPR_ST_MOD</title>
<path fill="none" stroke="black" d="M499.98,-143.97C533.95,-134.01 577,-121.41 612.57,-110.99"/>
<polygon fill="black" stroke="black" points="613.78,-114.28 622.4,-108.11 611.82,-107.56 613.78,-114.28"/>
</g>
<!-- DOMA&#45;SEU_ID -->
<g id="node4" class="node">
<title>DOMA&#45;SEU_ID</title>
<g id="a_node4"><a xlink:href="./DOMA_SEU_ID.html" xlink:title="DOMA&#45;SEU_ID">
<polygon fill="none" stroke="yellow" points="111.45,-36 0.18,-36 0.18,0 111.45,0 111.45,-36"/>
<text text-anchor="middle" x="55.82" y="-13.8" font-family="Times,serif" font-size="14.00">DOMA&#45;SEU_ID</text>
</a>
</g>
</g>
<!-- DTEL&#45;SEU_ID&#45;&gt;DOMA&#45;SEU_ID -->
<g id="edge12" class="edge">
<title>DTEL&#45;SEU_ID&#45;&gt;DOMA&#45;SEU_ID</title>
<path fill="none" stroke="black" d="M58.08,-71.7C57.74,-63.98 57.35,-54.71 56.98,-46.11"/>
<polygon fill="black" stroke="black" points="60.48,-45.95 56.55,-36.1 53.48,-46.25 60.48,-45.95"/>
</g>
<!-- DOMA&#45;TPR_ST_NEW -->
<g id="node6" class="node">
<title>DOMA&#45;TPR_ST_NEW</title>
<g id="a_node6"><a xlink:href="./DOMA_TPR_ST_NEW.html" xlink:title="DOMA&#45;TPR_ST_NEW">
<polygon fill="none" stroke="yellow" points="280.62,-36 129.01,-36 129.01,0 280.62,0 280.62,-36"/>
<text text-anchor="middle" x="204.82" y="-13.8" font-family="Times,serif" font-size="14.00">DOMA&#45;TPR_ST_NEW</text>
</a>
</g>
</g>
<!-- DTEL&#45;TPR_ST_NEW&#45;&gt;DOMA&#45;TPR_ST_NEW -->
<g id="edge13" class="edge">
<title>DTEL&#45;TPR_ST_NEW&#45;&gt;DOMA&#45;TPR_ST_NEW</title>
<path fill="none" stroke="black" d="M203.31,-71.7C203.53,-63.98 203.8,-54.71 204.04,-46.11"/>
<polygon fill="black" stroke="black" points="207.54,-46.2 204.33,-36.1 200.54,-46 207.54,-46.2"/>
</g>
<!-- DOMA&#45;XFELD -->
<g id="node8" class="node">
<title>DOMA&#45;XFELD</title>
<g id="a_node8"><a xlink:href="./DOMA_XFELD.html" xlink:title="DOMA&#45;XFELD">
<polygon fill="none" stroke="yellow" points="495.84,-36 387.79,-36 387.79,0 495.84,0 495.84,-36"/>
<text text-anchor="middle" x="441.82" y="-13.8" font-family="Times,serif" font-size="14.00">DOMA&#45;XFELD</text>
</a>
</g>
</g>
<!-- DTEL&#45;TPR_ST_COP&#45;&gt;DOMA&#45;XFELD -->
<g id="edge14" class="edge">
<title>DTEL&#45;TPR_ST_COP&#45;&gt;DOMA&#45;XFELD</title>
<path fill="none" stroke="black" d="M382.35,-71.7C392.2,-62.97 404.3,-52.24 415.01,-42.75"/>
<polygon fill="black" stroke="black" points="417.35,-45.36 422.51,-36.1 412.71,-40.12 417.35,-45.36"/>
</g>
<!-- DTEL&#45;TPR_ST_DEL&#45;&gt;DOMA&#45;XFELD -->
<g id="edge15" class="edge">
<title>DTEL&#45;TPR_ST_DEL&#45;&gt;DOMA&#45;XFELD</title>
<path fill="none" stroke="black" d="M501.29,-71.7C491.44,-62.97 479.33,-52.24 468.62,-42.75"/>
<polygon fill="black" stroke="black" points="470.93,-40.12 461.12,-36.1 466.28,-45.36 470.93,-40.12"/>
</g>
<!-- DOMA&#45;TPR_ST_MOD -->
<g id="node11" class="node">
<title>DOMA&#45;TPR_ST_MOD</title>
<g id="a_node11"><a xlink:href="./DOMA_TPR_ST_MOD.html" xlink:title="DOMA&#45;TPR_ST_MOD">
<polygon fill="none" stroke="yellow" points="756.91,-36 604.73,-36 604.73,0 756.91,0 756.91,-36"/>
<text text-anchor="middle" x="680.82" y="-13.8" font-family="Times,serif" font-size="14.00">DOMA&#45;TPR_ST_MOD</text>
</a>
</g>
</g>
<!-- DTEL&#45;TPR_ST_MOD&#45;&gt;DOMA&#45;TPR_ST_MOD -->
<g id="edge16" class="edge">
<title>DTEL&#45;TPR_ST_MOD&#45;&gt;DOMA&#45;TPR_ST_MOD</title>
<path fill="none" stroke="black" d="M680.82,-71.7C680.82,-63.98 680.82,-54.71 680.82,-46.11"/>
<polygon fill="black" stroke="black" points="684.32,-46.1 680.82,-36.1 677.32,-46.1 684.32,-46.1"/>
</g>
<!-- DOMA&#45;XUVALUE -->
<g id="node13" class="node">
<title>DOMA&#45;XUVALUE</title>
<g id="a_node13"><a xlink:href="./DOMA_XUVALUE.html" xlink:title="DOMA&#45;XUVALUE">
<polygon fill="none" stroke="yellow" points="902.38,-108 771.25,-108 771.25,-72 902.38,-72 902.38,-108"/>
<text text-anchor="middle" x="836.82" y="-85.8" font-family="Times,serif" font-size="14.00">DOMA&#45;XUVALUE</text>
</a>
</g>
</g>
<!-- DTEL&#45;AGVAL&#45;&gt;DOMA&#45;XUVALUE -->
<g id="edge17" class="edge">
<title>DTEL&#45;AGVAL&#45;&gt;DOMA&#45;XUVALUE</title>
<path fill="none" stroke="black" d="M840.58,-143.7C840.03,-135.98 839.37,-126.71 838.75,-118.11"/>
<polygon fill="black" stroke="black" points="842.24,-117.83 838.04,-108.1 835.26,-118.33 842.24,-117.83"/>
</g>
<!-- DOMA&#45;XUFIELD -->
<g id="node15" class="node">
<title>DOMA&#45;XUFIELD</title>
<g id="a_node15"><a xlink:href="./DOMA_XUFIELD.html" xlink:title="DOMA&#45;XUFIELD">
<polygon fill="none" stroke="yellow" points="1043.61,-108 920.02,-108 920.02,-72 1043.61,-72 1043.61,-108"/>
<text text-anchor="middle" x="981.82" y="-85.8" font-family="Times,serif" font-size="14.00">DOMA&#45;XUFIELD</text>
</a>
</g>
</g>
<!-- DTEL&#45;AGRFIELD&#45;&gt;DOMA&#45;XUFIELD -->
<g id="edge18" class="edge">
<title>DTEL&#45;AGRFIELD&#45;&gt;DOMA&#45;XUFIELD</title>
<path fill="none" stroke="black" d="M982.57,-143.7C982.46,-135.98 982.33,-126.71 982.2,-118.11"/>
<polygon fill="black" stroke="black" points="985.7,-118.05 982.06,-108.1 978.7,-118.15 985.7,-118.05"/>
</g>
<!-- DOMA&#45;TPR_VARI -->
<g id="node17" class="node">
<title>DOMA&#45;TPR_VARI</title>
<g id="a_node17"><a xlink:href="./DOMA_TPR_VARI.html" xlink:title="DOMA&#45;TPR_VARI">
<polygon fill="none" stroke="yellow" points="1192.12,-108 1061.51,-108 1061.51,-72 1192.12,-72 1192.12,-108"/>
<text text-anchor="middle" x="1126.82" y="-85.8" font-family="Times,serif" font-size="14.00">DOMA&#45;TPR_VARI</text>
</a>
</g>
</g>
<!-- DTEL&#45;TPR_VARI&#45;&gt;DOMA&#45;TPR_VARI -->
<g id="edge19" class="edge">
<title>DTEL&#45;TPR_VARI&#45;&gt;DOMA&#45;TPR_VARI</title>
<path fill="none" stroke="black" d="M1126.06,-143.7C1126.17,-135.98 1126.31,-126.71 1126.43,-118.11"/>
<polygon fill="black" stroke="black" points="1129.93,-118.15 1126.57,-108.1 1122.93,-118.05 1129.93,-118.15"/>
</g>
<!-- DOMA&#45;XUAUTH -->
<g id="node19" class="node">
<title>DOMA&#45;XUAUTH</title>
<g id="a_node19"><a xlink:href="./DOMA_XUAUTH.html" xlink:title="DOMA&#45;XUAUTH">
<polygon fill="none" stroke="yellow" points="1331.83,-108 1209.81,-108 1209.81,-72 1331.83,-72 1331.83,-108"/>
<text text-anchor="middle" x="1270.82" y="-85.8" font-family="Times,serif" font-size="14.00">DOMA&#45;XUAUTH</text>
</a>
</g>
</g>
<!-- DTEL&#45;AGAUTH&#45;&gt;DOMA&#45;XUAUTH -->
<g id="edge20" class="edge">
<title>DTEL&#45;AGAUTH&#45;&gt;DOMA&#45;XUAUTH</title>
<path fill="none" stroke="black" d="M1267.81,-143.7C1268.25,-135.98 1268.78,-126.71 1269.27,-118.11"/>
<polygon fill="black" stroke="black" points="1272.76,-118.29 1269.84,-108.1 1265.77,-117.89 1272.76,-118.29"/>
</g>
<!-- DOMA&#45;XUOBJECT -->
<g id="node21" class="node">
<title>DOMA&#45;XUOBJECT</title>
<g id="a_node21"><a xlink:href="./DOMA_XUOBJECT.html" xlink:title="DOMA&#45;XUOBJECT">
<polygon fill="none" stroke="yellow" points="1485.28,-108 1350.35,-108 1350.35,-72 1485.28,-72 1485.28,-108"/>
<text text-anchor="middle" x="1417.82" y="-85.8" font-family="Times,serif" font-size="14.00">DOMA&#45;XUOBJECT</text>
</a>
</g>
</g>
<!-- DTEL&#45;AGOBJECT&#45;&gt;DOMA&#45;XUOBJECT -->
<g id="edge21" class="edge">
<title>DTEL&#45;AGOBJECT&#45;&gt;DOMA&#45;XUOBJECT</title>
<path fill="none" stroke="black" d="M1414.05,-143.7C1414.6,-135.98 1415.27,-126.71 1415.88,-118.11"/>
<polygon fill="black" stroke="black" points="1419.37,-118.33 1416.6,-108.1 1412.39,-117.83 1419.37,-118.33"/>
</g>
</g>
</svg>
