<?xml version="1.0" encoding="UTF-8" standalone="no"?>
<!DOCTYPE svg PUBLIC "-//W3C//DTD SVG 1.1//EN"
 "http://www.w3.org/Graphics/SVG/1.1/DTD/svg11.dtd">
<!-- Generated by graphviz version 2.47.3 (20210619.1520)
 -->
<!-- Title: G Pages: 1 -->
<svg width="633pt" height="188pt"
 viewBox="0.00 0.00 633.13 188.00" xmlns="http://www.w3.org/2000/svg" xmlns:xlink="http://www.w3.org/1999/xlink">
<g id="graph0" class="graph" transform="scale(1 1) rotate(0) translate(4 184)">
<title>G</title>
<polygon fill="white" stroke="transparent" points="-4,4 -4,-184 629.13,-184 629.13,4 -4,4"/>
<!-- TABL&#45;APS_COM_W_SCNAUO -->
<g id="node1" class="node">
<title>TABL&#45;APS_COM_W_SCNAUO</title>
<polygon fill="none" stroke="yellow" points="449.51,-180 243.45,-180 243.45,-144 449.51,-144 449.51,-180"/>
<text text-anchor="middle" x="346.48" y="-157.8" font-family="Times,serif" font-size="14.00">TABL&#45;APS_COM_W_SCNAUO</text>
</g>
<!-- DTEL&#45;APS_IAM_AUTH_OBJ_STATUS -->
<g id="node2" class="node">
<title>DTEL&#45;APS_IAM_AUTH_OBJ_STATUS</title>
<g id="a_node2"><a xlink:href="./DTEL_APS_IAM_AUTH_OBJ_STATUS.html" xlink:title="DTEL&#45;APS_IAM_AUTH_OBJ_STATUS">
<polygon fill="none" stroke="yellow" points="261.43,-108 7.52,-108 7.52,-72 261.43,-72 261.43,-108"/>
<text text-anchor="middle" x="134.48" y="-85.8" font-family="Times,serif" font-size="14.00">DTEL&#45;APS_IAM_AUTH_OBJ_STATUS</text>
</a>
</g>
</g>
<!-- TABL&#45;APS_COM_W_SCNAUO&#45;&gt;DTEL&#45;APS_IAM_AUTH_OBJ_STATUS -->
<g id="edge3" class="edge">
<title>TABL&#45;APS_COM_W_SCNAUO&#45;&gt;DTEL&#45;APS_IAM_AUTH_OBJ_STATUS</title>
<path fill="none" stroke="black" d="M294.89,-143.97C265.01,-134.1 227.22,-121.62 195.82,-111.25"/>
<polygon fill="black" stroke="black" points="196.89,-107.92 186.3,-108.11 194.7,-114.57 196.89,-107.92"/>
</g>
<!-- DTEL&#45;AGOBJECT -->
<g id="node4" class="node">
<title>DTEL&#45;AGOBJECT</title>
<g id="a_node4"><a xlink:href="./DTEL_AGOBJECT.html" xlink:title="DTEL&#45;AGOBJECT">
<polygon fill="none" stroke="yellow" points="410.44,-108 282.51,-108 282.51,-72 410.44,-72 410.44,-108"/>
<text text-anchor="middle" x="346.48" y="-85.8" font-family="Times,serif" font-size="14.00">DTEL&#45;AGOBJECT</text>
</a>
</g>
</g>
<!-- TABL&#45;APS_COM_W_SCNAUO&#45;&gt;DTEL&#45;AGOBJECT -->
<g id="edge2" class="edge">
<title>TABL&#45;APS_COM_W_SCNAUO&#45;&gt;DTEL&#45;AGOBJECT</title>
<path fill="none" stroke="black" d="M346.48,-143.7C346.48,-135.98 346.48,-126.71 346.48,-118.11"/>
<polygon fill="black" stroke="black" points="349.98,-118.1 346.48,-108.1 342.98,-118.1 349.98,-118.1"/>
</g>
<!-- DTEL&#45;APS_COM_CSCN_ID -->
<g id="node6" class="node">
<title>DTEL&#45;APS_COM_CSCN_ID</title>
<g id="a_node6"><a xlink:href="./DTEL_APS_COM_CSCN_ID.html" xlink:title="DTEL&#45;APS_COM_CSCN_ID">
<polygon fill="none" stroke="yellow" points="617.79,-108 431.16,-108 431.16,-72 617.79,-72 617.79,-108"/>
<text text-anchor="middle" x="524.48" y="-85.8" font-family="Times,serif" font-size="14.00">DTEL&#45;APS_COM_CSCN_ID</text>
</a>
</g>
</g>
<!-- TABL&#45;APS_COM_W_SCNAUO&#45;&gt;DTEL&#45;APS_COM_CSCN_ID -->
<g id="edge1" class="edge">
<title>TABL&#45;APS_COM_W_SCNAUO&#45;&gt;DTEL&#45;APS_COM_CSCN_ID</title>
<path fill="none" stroke="black" d="M390.02,-143.88C414.68,-134.18 445.7,-121.98 471.73,-111.74"/>
<polygon fill="black" stroke="black" points="473.05,-114.99 481.07,-108.07 470.49,-108.47 473.05,-114.99"/>
</g>
<!-- DOMA&#45;APS_IAM_AUTH_OBJ_STATUS -->
<g id="node3" class="node">
<title>DOMA&#45;APS_IAM_AUTH_OBJ_STATUS</title>
<g id="a_node3"><a xlink:href="./DOMA_APS_IAM_AUTH_OBJ_STATUS.html" xlink:title="DOMA&#45;APS_IAM_AUTH_OBJ_STATUS">
<polygon fill="none" stroke="yellow" points="260.93,-36 0.02,-36 0.02,0 260.93,0 260.93,-36"/>
<text text-anchor="middle" x="130.48" y="-13.8" font-family="Times,serif" font-size="14.00">DOMA&#45;APS_IAM_AUTH_OBJ_STATUS</text>
</a>
</g>
</g>
<!-- DTEL&#45;APS_IAM_AUTH_OBJ_STATUS&#45;&gt;DOMA&#45;APS_IAM_AUTH_OBJ_STATUS -->
<g id="edge4" class="edge">
<title>DTEL&#45;APS_IAM_AUTH_OBJ_STATUS&#45;&gt;DOMA&#45;APS_IAM_AUTH_OBJ_STATUS</title>
<path fill="none" stroke="black" d="M133.49,-71.7C133.05,-63.98 132.52,-54.71 132.03,-46.11"/>
<polygon fill="black" stroke="black" points="135.52,-45.89 131.45,-36.1 128.53,-46.29 135.52,-45.89"/>
</g>
<!-- DOMA&#45;XUOBJECT -->
<g id="node5" class="node">
<title>DOMA&#45;XUOBJECT</title>
<g id="a_node5"><a xlink:href="./DOMA_XUOBJECT.html" xlink:title="DOMA&#45;XUOBJECT">
<polygon fill="none" stroke="yellow" points="413.94,-36 279.01,-36 279.01,0 413.94,0 413.94,-36"/>
<text text-anchor="middle" x="346.48" y="-13.8" font-family="Times,serif" font-size="14.00">DOMA&#45;XUOBJECT</text>
</a>
</g>
</g>
<!-- DTEL&#45;AGOBJECT&#45;&gt;DOMA&#45;XUOBJECT -->
<g id="edge5" class="edge">
<title>DTEL&#45;AGOBJECT&#45;&gt;DOMA&#45;XUOBJECT</title>
<path fill="none" stroke="black" d="M346.48,-71.7C346.48,-63.98 346.48,-54.71 346.48,-46.11"/>
<polygon fill="black" stroke="black" points="349.98,-46.1 346.48,-36.1 342.98,-46.1 349.98,-46.1"/>
</g>
<!-- DOMA&#45;APS_COM_CSCN_ID -->
<g id="node7" class="node">
<title>DOMA&#45;APS_COM_CSCN_ID</title>
<g id="a_node7"><a xlink:href="./DOMA_APS_COM_CSCN_ID.html" xlink:title="DOMA&#45;APS_COM_CSCN_ID">
<polygon fill="none" stroke="yellow" points="625.29,-36 431.66,-36 431.66,0 625.29,0 625.29,-36"/>
<text text-anchor="middle" x="528.48" y="-13.8" font-family="Times,serif" font-size="14.00">DOMA&#45;APS_COM_CSCN_ID</text>
</a>
</g>
</g>
<!-- DTEL&#45;APS_COM_CSCN_ID&#45;&gt;DOMA&#45;APS_COM_CSCN_ID -->
<g id="edge6" class="edge">
<title>DTEL&#45;APS_COM_CSCN_ID&#45;&gt;DOMA&#45;APS_COM_CSCN_ID</title>
<path fill="none" stroke="black" d="M525.46,-71.7C525.91,-63.98 526.44,-54.71 526.93,-46.11"/>
<polygon fill="black" stroke="black" points="530.42,-46.29 527.5,-36.1 523.43,-45.89 530.42,-46.29"/>
</g>
</g>
</svg>
