<?xml version="1.0" encoding="UTF-8" standalone="no"?>
<!DOCTYPE svg PUBLIC "-//W3C//DTD SVG 1.1//EN"
 "http://www.w3.org/Graphics/SVG/1.1/DTD/svg11.dtd">
<!-- Generated by graphviz version 2.47.3 (20210619.1520)
 -->
<!-- Title: G Pages: 1 -->
<svg width="911pt" height="188pt"
 viewBox="0.00 0.00 910.53 188.00" xmlns="http://www.w3.org/2000/svg" xmlns:xlink="http://www.w3.org/1999/xlink">
<g id="graph0" class="graph" transform="scale(1 1) rotate(0) translate(4 184)">
<title>G</title>
<polygon fill="white" stroke="transparent" points="-4,4 -4,-184 906.53,-184 906.53,4 -4,4"/>
<!-- TABL&#45;BAPIF4F -->
<g id="node1" class="node">
<title>TABL&#45;BAPIF4F</title>
<polygon fill="none" stroke="green" points="498.26,-180 386.94,-180 386.94,-144 498.26,-144 498.26,-180"/>
<text text-anchor="middle" x="442.6" y="-157.8" font-family="Times,serif" font-size="14.00">TABL&#45;BAPIF4F</text>
</g>
<!-- DTEL&#45;RETURN -->
<g id="node2" class="node">
<title>DTEL&#45;RETURN</title>
<g id="a_node2"><a xlink:href="./DTEL_RETURN.html" xlink:title="DTEL&#45;RETURN">
<polygon fill="none" stroke="yellow" points="132.02,-108 19.18,-108 19.18,-72 132.02,-72 132.02,-108"/>
<text text-anchor="middle" x="75.6" y="-85.8" font-family="Times,serif" font-size="14.00">DTEL&#45;RETURN</text>
</a>
</g>
</g>
<!-- TABL&#45;BAPIF4F&#45;&gt;DTEL&#45;RETURN -->
<g id="edge6" class="edge">
<title>TABL&#45;BAPIF4F&#45;&gt;DTEL&#45;RETURN</title>
<path fill="none" stroke="black" d="M386.84,-152.1C327.01,-142.31 229.27,-125.61 145.6,-108 144.36,-107.74 143.11,-107.47 141.85,-107.2"/>
<polygon fill="black" stroke="black" points="142.6,-103.78 132.07,-105.03 141.08,-110.61 142.6,-103.78"/>
</g>
<!-- DTEL&#45;TABNAME -->
<g id="node4" class="node">
<title>DTEL&#45;TABNAME</title>
<g id="a_node4"><a xlink:href="./DTEL_TABNAME.html" xlink:title="DTEL&#45;TABNAME">
<polygon fill="none" stroke="green" points="280.23,-108 154.97,-108 154.97,-72 280.23,-72 280.23,-108"/>
<text text-anchor="middle" x="217.6" y="-85.8" font-family="Times,serif" font-size="14.00">DTEL&#45;TABNAME</text>
</a>
</g>
</g>
<!-- TABL&#45;BAPIF4F&#45;&gt;DTEL&#45;TABNAME -->
<g id="edge5" class="edge">
<title>TABL&#45;BAPIF4F&#45;&gt;DTEL&#45;TABNAME</title>
<path fill="none" stroke="black" d="M387.85,-143.97C356,-134.06 315.68,-121.51 282.27,-111.12"/>
<polygon fill="black" stroke="black" points="283.19,-107.74 272.6,-108.11 281.11,-114.42 283.19,-107.74"/>
</g>
<!-- DTEL&#45;SHLPNAME -->
<g id="node6" class="node">
<title>DTEL&#45;SHLPNAME</title>
<g id="a_node6"><a xlink:href="./DTEL_SHLPNAME.html" xlink:title="DTEL&#45;SHLPNAME">
<polygon fill="none" stroke="yellow" points="433.46,-108 301.74,-108 301.74,-72 433.46,-72 433.46,-108"/>
<text text-anchor="middle" x="367.6" y="-85.8" font-family="Times,serif" font-size="14.00">DTEL&#45;SHLPNAME</text>
</a>
</g>
</g>
<!-- TABL&#45;BAPIF4F&#45;&gt;DTEL&#45;SHLPNAME -->
<g id="edge4" class="edge">
<title>TABL&#45;BAPIF4F&#45;&gt;DTEL&#45;SHLPNAME</title>
<path fill="none" stroke="black" d="M424.06,-143.7C414.8,-135.05 403.44,-124.45 393.34,-115.03"/>
<polygon fill="black" stroke="black" points="395.62,-112.37 385.92,-108.1 390.85,-117.49 395.62,-112.37"/>
</g>
<!-- DTEL&#45;ROLLNAME -->
<g id="node8" class="node">
<title>DTEL&#45;ROLLNAME</title>
<g id="a_node8"><a xlink:href="./DTEL_ROLLNAME.html" xlink:title="DTEL&#45;ROLLNAME">
<polygon fill="none" stroke="yellow" points="586.78,-108 452.41,-108 452.41,-72 586.78,-72 586.78,-108"/>
<text text-anchor="middle" x="519.6" y="-85.8" font-family="Times,serif" font-size="14.00">DTEL&#45;ROLLNAME</text>
</a>
</g>
</g>
<!-- TABL&#45;BAPIF4F&#45;&gt;DTEL&#45;ROLLNAME -->
<g id="edge3" class="edge">
<title>TABL&#45;BAPIF4F&#45;&gt;DTEL&#45;ROLLNAME</title>
<path fill="none" stroke="black" d="M461.63,-143.7C471.14,-135.05 482.81,-124.45 493.17,-115.03"/>
<polygon fill="black" stroke="black" points="495.74,-117.42 500.78,-108.1 491.03,-112.24 495.74,-117.42"/>
</g>
<!-- DTEL&#45;SWO_VERB -->
<g id="node10" class="node">
<title>DTEL&#45;SWO_VERB</title>
<g id="a_node10"><a xlink:href="./DTEL_SWO_VERB.html" xlink:title="DTEL&#45;SWO_VERB">
<polygon fill="none" stroke="yellow" points="737.46,-108 605.74,-108 605.74,-72 737.46,-72 737.46,-108"/>
<text text-anchor="middle" x="671.6" y="-85.8" font-family="Times,serif" font-size="14.00">DTEL&#45;SWO_VERB</text>
</a>
</g>
</g>
<!-- TABL&#45;BAPIF4F&#45;&gt;DTEL&#45;SWO_VERB -->
<g id="edge2" class="edge">
<title>TABL&#45;BAPIF4F&#45;&gt;DTEL&#45;SWO_VERB</title>
<path fill="none" stroke="black" d="M498.33,-143.97C530.74,-134.06 571.77,-121.51 605.77,-111.12"/>
<polygon fill="black" stroke="black" points="607.08,-114.38 615.62,-108.11 605.04,-107.69 607.08,-114.38"/>
</g>
<!-- DTEL&#45;SWO_OBJTYP -->
<g id="node12" class="node">
<title>DTEL&#45;SWO_OBJTYP</title>
<g id="a_node12"><a xlink:href="./DTEL_SWO_OBJTYP.html" xlink:title="DTEL&#45;SWO_OBJTYP">
<polygon fill="none" stroke="yellow" points="902.46,-108 756.74,-108 756.74,-72 902.46,-72 902.46,-108"/>
<text text-anchor="middle" x="829.6" y="-85.8" font-family="Times,serif" font-size="14.00">DTEL&#45;SWO_OBJTYP</text>
</a>
</g>
</g>
<!-- TABL&#45;BAPIF4F&#45;&gt;DTEL&#45;SWO_OBJTYP -->
<g id="edge1" class="edge">
<title>TABL&#45;BAPIF4F&#45;&gt;DTEL&#45;SWO_OBJTYP</title>
<path fill="none" stroke="black" d="M498.44,-151.77C557.4,-141.91 653.31,-125.55 746.43,-108"/>
<polygon fill="black" stroke="black" points="747.13,-111.43 756.3,-106.13 745.83,-104.55 747.13,-111.43"/>
</g>
<!-- DOMA&#45;SYST_FLAG -->
<g id="node3" class="node">
<title>DOMA&#45;SYST_FLAG</title>
<g id="a_node3"><a xlink:href="./DOMA_SYST_FLAG.html" xlink:title="DOMA&#45;SYST_FLAG">
<polygon fill="none" stroke="yellow" points="141.3,-36 -0.1,-36 -0.1,0 141.3,0 141.3,-36"/>
<text text-anchor="middle" x="70.6" y="-13.8" font-family="Times,serif" font-size="14.00">DOMA&#45;SYST_FLAG</text>
</a>
</g>
</g>
<!-- DTEL&#45;RETURN&#45;&gt;DOMA&#45;SYST_FLAG -->
<g id="edge7" class="edge">
<title>DTEL&#45;RETURN&#45;&gt;DOMA&#45;SYST_FLAG</title>
<path fill="none" stroke="black" d="M74.36,-71.7C73.81,-63.98 73.15,-54.71 72.54,-46.11"/>
<polygon fill="black" stroke="black" points="76.02,-45.83 71.82,-36.1 69.04,-46.33 76.02,-45.83"/>
</g>
<!-- DOMA&#45;AS4TAB -->
<g id="node5" class="node">
<title>DOMA&#45;AS4TAB</title>
<g id="a_node5"><a xlink:href="./DOMA_AS4TAB.html" xlink:title="DOMA&#45;AS4TAB">
<polygon fill="none" stroke="yellow" points="275.91,-36 159.29,-36 159.29,0 275.91,0 275.91,-36"/>
<text text-anchor="middle" x="217.6" y="-13.8" font-family="Times,serif" font-size="14.00">DOMA&#45;AS4TAB</text>
</a>
</g>
</g>
<!-- DTEL&#45;TABNAME&#45;&gt;DOMA&#45;AS4TAB -->
<g id="edge8" class="edge">
<title>DTEL&#45;TABNAME&#45;&gt;DOMA&#45;AS4TAB</title>
<path fill="none" stroke="black" d="M217.6,-71.7C217.6,-63.98 217.6,-54.71 217.6,-46.11"/>
<polygon fill="black" stroke="black" points="221.1,-46.1 217.6,-36.1 214.1,-46.1 221.1,-46.1"/>
</g>
<!-- DOMA&#45;SHLPNAME -->
<g id="node7" class="node">
<title>DOMA&#45;SHLPNAME</title>
<g id="a_node7"><a xlink:href="./DOMA_SHLPNAME.html" xlink:title="DOMA&#45;SHLPNAME">
<polygon fill="none" stroke="yellow" points="432.96,-36 294.24,-36 294.24,0 432.96,0 432.96,-36"/>
<text text-anchor="middle" x="363.6" y="-13.8" font-family="Times,serif" font-size="14.00">DOMA&#45;SHLPNAME</text>
</a>
</g>
</g>
<!-- DTEL&#45;SHLPNAME&#45;&gt;DOMA&#45;SHLPNAME -->
<g id="edge9" class="edge">
<title>DTEL&#45;SHLPNAME&#45;&gt;DOMA&#45;SHLPNAME</title>
<path fill="none" stroke="black" d="M366.61,-71.7C366.17,-63.98 365.64,-54.71 365.15,-46.11"/>
<polygon fill="black" stroke="black" points="368.64,-45.89 364.58,-36.1 361.65,-46.29 368.64,-45.89"/>
</g>
<!-- DOMA&#45;ROLLNAME -->
<g id="node9" class="node">
<title>DOMA&#45;ROLLNAME</title>
<g id="a_node9"><a xlink:href="./DOMA_ROLLNAME.html" xlink:title="DOMA&#45;ROLLNAME">
<polygon fill="none" stroke="yellow" points="592.28,-36 450.91,-36 450.91,0 592.28,0 592.28,-36"/>
<text text-anchor="middle" x="521.6" y="-13.8" font-family="Times,serif" font-size="14.00">DOMA&#45;ROLLNAME</text>
</a>
</g>
</g>
<!-- DTEL&#45;ROLLNAME&#45;&gt;DOMA&#45;ROLLNAME -->
<g id="edge10" class="edge">
<title>DTEL&#45;ROLLNAME&#45;&gt;DOMA&#45;ROLLNAME</title>
<path fill="none" stroke="black" d="M520.09,-71.7C520.31,-63.98 520.58,-54.71 520.82,-46.11"/>
<polygon fill="black" stroke="black" points="524.32,-46.2 521.11,-36.1 517.33,-46 524.32,-46.2"/>
</g>
<!-- DOMA&#45;SWC_ELEM -->
<g id="node11" class="node">
<title>DOMA&#45;SWC_ELEM</title>
<g id="a_node11"><a xlink:href="./DOMA_SWC_ELEM.html" xlink:title="DOMA&#45;SWC_ELEM">
<polygon fill="none" stroke="yellow" points="748.96,-36 610.24,-36 610.24,0 748.96,0 748.96,-36"/>
<text text-anchor="middle" x="679.6" y="-13.8" font-family="Times,serif" font-size="14.00">DOMA&#45;SWC_ELEM</text>
</a>
</g>
</g>
<!-- DTEL&#45;SWO_VERB&#45;&gt;DOMA&#45;SWC_ELEM -->
<g id="edge11" class="edge">
<title>DTEL&#45;SWO_VERB&#45;&gt;DOMA&#45;SWC_ELEM</title>
<path fill="none" stroke="black" d="M673.58,-71.7C674.46,-63.98 675.52,-54.71 676.5,-46.11"/>
<polygon fill="black" stroke="black" points="679.99,-46.44 677.64,-36.1 673.03,-45.64 679.99,-46.44"/>
</g>
<!-- DOMA&#45;OJ_NAME -->
<g id="node13" class="node">
<title>DOMA&#45;OJ_NAME</title>
<g id="a_node13"><a xlink:href="./DOMA_OJ_NAME.html" xlink:title="DOMA&#45;OJ_NAME">
<polygon fill="none" stroke="yellow" points="894.29,-36 766.91,-36 766.91,0 894.29,0 894.29,-36"/>
<text text-anchor="middle" x="830.6" y="-13.8" font-family="Times,serif" font-size="14.00">DOMA&#45;OJ_NAME</text>
</a>
</g>
</g>
<!-- DTEL&#45;SWO_OBJTYP&#45;&gt;DOMA&#45;OJ_NAME -->
<g id="edge12" class="edge">
<title>DTEL&#45;SWO_OBJTYP&#45;&gt;DOMA&#45;OJ_NAME</title>
<path fill="none" stroke="black" d="M829.85,-71.7C829.96,-63.98 830.09,-54.71 830.21,-46.11"/>
<polygon fill="black" stroke="black" points="833.71,-46.15 830.35,-36.1 826.71,-46.05 833.71,-46.15"/>
</g>
</g>
</svg>
