<?xml version="1.0" encoding="UTF-8" standalone="no"?>
<!DOCTYPE svg PUBLIC "-//W3C//DTD SVG 1.1//EN"
 "http://www.w3.org/Graphics/SVG/1.1/DTD/svg11.dtd">
<!-- Generated by graphviz version 2.47.3 (20210619.1520)
 -->
<!-- Title: G Pages: 1 -->
<svg width="135pt" height="188pt"
 viewBox="0.00 0.00 135.18 188.00" xmlns="http://www.w3.org/2000/svg" xmlns:xlink="http://www.w3.org/1999/xlink">
<g id="graph0" class="graph" transform="scale(1 1) rotate(0) translate(4 184)">
<title>G</title>
<polygon fill="white" stroke="transparent" points="-4,4 -4,-184 131.18,-184 131.18,4 -4,4"/>
<!-- TABL&#45;BAPIEXTA -->
<g id="node1" class="node">
<title>TABL&#45;BAPIEXTA</title>
<polygon fill="none" stroke="green" points="127.01,-180 0.18,-180 0.18,-144 127.01,-144 127.01,-180"/>
<text text-anchor="middle" x="63.59" y="-157.8" font-family="Times,serif" font-size="14.00">TABL&#45;BAPIEXTA</text>
</g>
<!-- DTEL&#45;BAPI_LINE -->
<g id="node2" class="node">
<title>DTEL&#45;BAPI_LINE</title>
<g id="a_node2"><a xlink:href="./DTEL_BAPI_LINE.html" xlink:title="DTEL&#45;BAPI_LINE">
<polygon fill="none" stroke="green" points="127.28,-108 -0.09,-108 -0.09,-72 127.28,-72 127.28,-108"/>
<text text-anchor="middle" x="63.59" y="-85.8" font-family="Times,serif" font-size="14.00">DTEL&#45;BAPI_LINE</text>
</a>
</g>
</g>
<!-- TABL&#45;BAPIEXTA&#45;&gt;DTEL&#45;BAPI_LINE -->
<g id="edge1" class="edge">
<title>TABL&#45;BAPIEXTA&#45;&gt;DTEL&#45;BAPI_LINE</title>
<path fill="none" stroke="black" d="M63.59,-143.7C63.59,-135.98 63.59,-126.71 63.59,-118.11"/>
<polygon fill="black" stroke="black" points="67.09,-118.1 63.59,-108.1 60.09,-118.1 67.09,-118.1"/>
</g>
<!-- DOMA&#45;INT4 -->
<g id="node3" class="node">
<title>DOMA&#45;INT4</title>
<g id="a_node3"><a xlink:href="./DOMA_INT4.html" xlink:title="DOMA&#45;INT4">
<polygon fill="none" stroke="yellow" points="110.34,-36 16.85,-36 16.85,0 110.34,0 110.34,-36"/>
<text text-anchor="middle" x="63.59" y="-13.8" font-family="Times,serif" font-size="14.00">DOMA&#45;INT4</text>
</a>
</g>
</g>
<!-- DTEL&#45;BAPI_LINE&#45;&gt;DOMA&#45;INT4 -->
<g id="edge2" class="edge">
<title>DTEL&#45;BAPI_LINE&#45;&gt;DOMA&#45;INT4</title>
<path fill="none" stroke="black" d="M63.59,-71.7C63.59,-63.98 63.59,-54.71 63.59,-46.11"/>
<polygon fill="black" stroke="black" points="67.09,-46.1 63.59,-36.1 60.09,-46.1 67.09,-46.1"/>
</g>
</g>
</svg>
