<?xml version="1.0" encoding="UTF-8" standalone="no"?>
<!DOCTYPE svg PUBLIC "-//W3C//DTD SVG 1.1//EN"
 "http://www.w3.org/Graphics/SVG/1.1/DTD/svg11.dtd">
<!-- Generated by graphviz version 2.47.3 (20210619.1520)
 -->
<!-- Title: G Pages: 1 -->
<svg width="434pt" height="188pt"
 viewBox="0.00 0.00 434.47 188.00" xmlns="http://www.w3.org/2000/svg" xmlns:xlink="http://www.w3.org/1999/xlink">
<g id="graph0" class="graph" transform="scale(1 1) rotate(0) translate(4 184)">
<title>G</title>
<polygon fill="white" stroke="transparent" points="-4,4 -4,-184 430.47,-184 430.47,4 -4,4"/>
<!-- TABL&#45;CTS_OBJECT_KEY -->
<g id="node1" class="node">
<title>TABL&#45;CTS_OBJECT_KEY</title>
<polygon fill="none" stroke="yellow" points="324.68,-180 147.73,-180 147.73,-144 324.68,-144 324.68,-180"/>
<text text-anchor="middle" x="236.21" y="-157.8" font-family="Times,serif" font-size="14.00">TABL&#45;CTS_OBJECT_KEY</text>
</g>
<!-- DTEL&#45;TROBJ_NAME -->
<g id="node2" class="node">
<title>DTEL&#45;TROBJ_NAME</title>
<g id="a_node2"><a xlink:href="./DTEL_TROBJ_NAME.html" xlink:title="DTEL&#45;TROBJ_NAME">
<polygon fill="none" stroke="yellow" points="151.12,-108 3.29,-108 3.29,-72 151.12,-72 151.12,-108"/>
<text text-anchor="middle" x="77.21" y="-85.8" font-family="Times,serif" font-size="14.00">DTEL&#45;TROBJ_NAME</text>
</a>
</g>
</g>
<!-- TABL&#45;CTS_OBJECT_KEY&#45;&gt;DTEL&#45;TROBJ_NAME -->
<g id="edge3" class="edge">
<title>TABL&#45;CTS_OBJECT_KEY&#45;&gt;DTEL&#45;TROBJ_NAME</title>
<path fill="none" stroke="black" d="M197.31,-143.88C175.57,-134.31 148.3,-122.3 125.24,-112.15"/>
<polygon fill="black" stroke="black" points="126.54,-108.89 115.98,-108.07 123.72,-115.3 126.54,-108.89"/>
</g>
<!-- DTEL&#45;TROBJTYPE -->
<g id="node4" class="node">
<title>DTEL&#45;TROBJTYPE</title>
<g id="a_node4"><a xlink:href="./DTEL_TROBJTYPE.html" xlink:title="DTEL&#45;TROBJTYPE">
<polygon fill="none" stroke="yellow" points="303.4,-108 169.01,-108 169.01,-72 303.4,-72 303.4,-108"/>
<text text-anchor="middle" x="236.21" y="-85.8" font-family="Times,serif" font-size="14.00">DTEL&#45;TROBJTYPE</text>
</a>
</g>
</g>
<!-- TABL&#45;CTS_OBJECT_KEY&#45;&gt;DTEL&#45;TROBJTYPE -->
<g id="edge2" class="edge">
<title>TABL&#45;CTS_OBJECT_KEY&#45;&gt;DTEL&#45;TROBJTYPE</title>
<path fill="none" stroke="black" d="M236.21,-143.7C236.21,-135.98 236.21,-126.71 236.21,-118.11"/>
<polygon fill="black" stroke="black" points="239.71,-118.1 236.21,-108.1 232.71,-118.1 239.71,-118.1"/>
</g>
<!-- DTEL&#45;PGMID -->
<g id="node6" class="node">
<title>DTEL&#45;PGMID</title>
<g id="a_node6"><a xlink:href="./DTEL_PGMID.html" xlink:title="DTEL&#45;PGMID">
<polygon fill="none" stroke="yellow" points="422.73,-108 321.68,-108 321.68,-72 422.73,-72 422.73,-108"/>
<text text-anchor="middle" x="372.21" y="-85.8" font-family="Times,serif" font-size="14.00">DTEL&#45;PGMID</text>
</a>
</g>
</g>
<!-- TABL&#45;CTS_OBJECT_KEY&#45;&gt;DTEL&#45;PGMID -->
<g id="edge1" class="edge">
<title>TABL&#45;CTS_OBJECT_KEY&#45;&gt;DTEL&#45;PGMID</title>
<path fill="none" stroke="black" d="M269.48,-143.88C287.67,-134.51 310.4,-122.81 329.85,-112.8"/>
<polygon fill="black" stroke="black" points="331.52,-115.88 338.81,-108.19 328.32,-109.65 331.52,-115.88"/>
</g>
<!-- DOMA&#45;TROBJ_NAME -->
<g id="node3" class="node">
<title>DOMA&#45;TROBJ_NAME</title>
<g id="a_node3"><a xlink:href="./DOMA_TROBJ_NAME.html" xlink:title="DOMA&#45;TROBJ_NAME">
<polygon fill="none" stroke="yellow" points="154.62,-36 -0.21,-36 -0.21,0 154.62,0 154.62,-36"/>
<text text-anchor="middle" x="77.21" y="-13.8" font-family="Times,serif" font-size="14.00">DOMA&#45;TROBJ_NAME</text>
</a>
</g>
</g>
<!-- DTEL&#45;TROBJ_NAME&#45;&gt;DOMA&#45;TROBJ_NAME -->
<g id="edge4" class="edge">
<title>DTEL&#45;TROBJ_NAME&#45;&gt;DOMA&#45;TROBJ_NAME</title>
<path fill="none" stroke="black" d="M77.21,-71.7C77.21,-63.98 77.21,-54.71 77.21,-46.11"/>
<polygon fill="black" stroke="black" points="80.71,-46.1 77.21,-36.1 73.71,-46.1 80.71,-46.1"/>
</g>
<!-- DOMA&#45;OBJECT -->
<g id="node5" class="node">
<title>DOMA&#45;OBJECT</title>
<g id="a_node5"><a xlink:href="./DOMA_OBJECT.html" xlink:title="DOMA&#45;OBJECT">
<polygon fill="none" stroke="yellow" points="293.46,-36 178.95,-36 178.95,0 293.46,0 293.46,-36"/>
<text text-anchor="middle" x="236.21" y="-13.8" font-family="Times,serif" font-size="14.00">DOMA&#45;OBJECT</text>
</a>
</g>
</g>
<!-- DTEL&#45;TROBJTYPE&#45;&gt;DOMA&#45;OBJECT -->
<g id="edge5" class="edge">
<title>DTEL&#45;TROBJTYPE&#45;&gt;DOMA&#45;OBJECT</title>
<path fill="none" stroke="black" d="M236.21,-71.7C236.21,-63.98 236.21,-54.71 236.21,-46.11"/>
<polygon fill="black" stroke="black" points="239.71,-46.1 236.21,-36.1 232.71,-46.1 239.71,-46.1"/>
</g>
<!-- DOMA&#45;PGMID -->
<g id="node7" class="node">
<title>DOMA&#45;PGMID</title>
<g id="a_node7"><a xlink:href="./DOMA_PGMID.html" xlink:title="DOMA&#45;PGMID">
<polygon fill="none" stroke="yellow" points="426.23,-36 318.18,-36 318.18,0 426.23,0 426.23,-36"/>
<text text-anchor="middle" x="372.21" y="-13.8" font-family="Times,serif" font-size="14.00">DOMA&#45;PGMID</text>
</a>
</g>
</g>
<!-- DTEL&#45;PGMID&#45;&gt;DOMA&#45;PGMID -->
<g id="edge6" class="edge">
<title>DTEL&#45;PGMID&#45;&gt;DOMA&#45;PGMID</title>
<path fill="none" stroke="black" d="M372.21,-71.7C372.21,-63.98 372.21,-54.71 372.21,-46.11"/>
<polygon fill="black" stroke="black" points="375.71,-46.1 372.21,-36.1 368.71,-46.1 375.71,-46.1"/>
</g>
</g>
</svg>
