<?xml version="1.0" encoding="UTF-8" standalone="no"?>
<!DOCTYPE svg PUBLIC "-//W3C//DTD SVG 1.1//EN"
 "http://www.w3.org/Graphics/SVG/1.1/DTD/svg11.dtd">
<!-- Generated by graphviz version 2.47.3 (20210619.1520)
 -->
<!-- Title: G Pages: 1 -->
<svg width="406pt" height="188pt"
 viewBox="0.00 0.00 405.76 188.00" xmlns="http://www.w3.org/2000/svg" xmlns:xlink="http://www.w3.org/1999/xlink">
<g id="graph0" class="graph" transform="scale(1 1) rotate(0) translate(4 184)">
<title>G</title>
<polygon fill="white" stroke="transparent" points="-4,4 -4,-184 401.76,-184 401.76,4 -4,4"/>
<!-- TABL&#45;SRT_WSP_PROPERTY_GROUP -->
<g id="node1" class="node">
<title>TABL&#45;SRT_WSP_PROPERTY_GROUP</title>
<polygon fill="none" stroke="yellow" points="319.87,-180 68.56,-180 68.56,-144 319.87,-144 319.87,-180"/>
<text text-anchor="middle" x="194.22" y="-157.8" font-family="Times,serif" font-size="14.00">TABL&#45;SRT_WSP_PROPERTY_GROUP</text>
</g>
<!-- TTYP&#45;SRT_WSP_STRINGS -->
<g id="node2" class="node">
<title>TTYP&#45;SRT_WSP_STRINGS</title>
<g id="a_node2"><a xlink:href="./TTYP_SRT_WSP_STRINGS.html" xlink:title="TTYP&#45;SRT_WSP_STRINGS">
<polygon fill="none" stroke="yellow" points="182.65,-108 -0.22,-108 -0.22,-72 182.65,-72 182.65,-108"/>
<text text-anchor="middle" x="91.22" y="-85.8" font-family="Times,serif" font-size="14.00">TTYP&#45;SRT_WSP_STRINGS</text>
</a>
</g>
</g>
<!-- TABL&#45;SRT_WSP_PROPERTY_GROUP&#45;&gt;TTYP&#45;SRT_WSP_STRINGS -->
<g id="edge2" class="edge">
<title>TABL&#45;SRT_WSP_PROPERTY_GROUP&#45;&gt;TTYP&#45;SRT_WSP_STRINGS</title>
<path fill="none" stroke="black" d="M169.02,-143.88C155.8,-134.89 139.43,-123.76 125.11,-114.03"/>
<polygon fill="black" stroke="black" points="126.75,-110.92 116.51,-108.19 122.81,-116.71 126.75,-110.92"/>
</g>
<!-- DTEL&#45;SRT_WSP_GROUP_ID -->
<g id="node3" class="node">
<title>DTEL&#45;SRT_WSP_GROUP_ID</title>
<g id="a_node3"><a xlink:href="./DTEL_SRT_WSP_GROUP_ID.html" xlink:title="DTEL&#45;SRT_WSP_GROUP_ID">
<polygon fill="none" stroke="yellow" points="394.3,-108 200.13,-108 200.13,-72 394.3,-72 394.3,-108"/>
<text text-anchor="middle" x="297.22" y="-85.8" font-family="Times,serif" font-size="14.00">DTEL&#45;SRT_WSP_GROUP_ID</text>
</a>
</g>
</g>
<!-- TABL&#45;SRT_WSP_PROPERTY_GROUP&#45;&gt;DTEL&#45;SRT_WSP_GROUP_ID -->
<g id="edge1" class="edge">
<title>TABL&#45;SRT_WSP_PROPERTY_GROUP&#45;&gt;DTEL&#45;SRT_WSP_GROUP_ID</title>
<path fill="none" stroke="black" d="M219.41,-143.88C232.63,-134.89 249.01,-123.76 263.32,-114.03"/>
<polygon fill="black" stroke="black" points="265.62,-116.71 271.92,-108.19 261.69,-110.92 265.62,-116.71"/>
</g>
<!-- DOMA&#45;SRT_WSP_GROUP_ID -->
<g id="node4" class="node">
<title>DOMA&#45;SRT_WSP_GROUP_ID</title>
<g id="a_node4"><a xlink:href="./DOMA_SRT_WSP_GROUP_ID.html" xlink:title="DOMA&#45;SRT_WSP_GROUP_ID">
<polygon fill="none" stroke="yellow" points="397.8,-36 196.63,-36 196.63,0 397.8,0 397.8,-36"/>
<text text-anchor="middle" x="297.22" y="-13.8" font-family="Times,serif" font-size="14.00">DOMA&#45;SRT_WSP_GROUP_ID</text>
</a>
</g>
</g>
<!-- DTEL&#45;SRT_WSP_GROUP_ID&#45;&gt;DOMA&#45;SRT_WSP_GROUP_ID -->
<g id="edge3" class="edge">
<title>DTEL&#45;SRT_WSP_GROUP_ID&#45;&gt;DOMA&#45;SRT_WSP_GROUP_ID</title>
<path fill="none" stroke="black" d="M297.22,-71.7C297.22,-63.98 297.22,-54.71 297.22,-46.11"/>
<polygon fill="black" stroke="black" points="300.72,-46.1 297.22,-36.1 293.72,-46.1 300.72,-46.1"/>
</g>
</g>
</svg>
