<?xml version="1.0" encoding="UTF-8" standalone="no"?>
<!DOCTYPE svg PUBLIC "-//W3C//DTD SVG 1.1//EN"
 "http://www.w3.org/Graphics/SVG/1.1/DTD/svg11.dtd">
<!-- Generated by graphviz version 2.47.3 (20210619.1520)
 -->
<!-- Title: G Pages: 1 -->
<svg width="2141pt" height="332pt"
 viewBox="0.00 0.00 2141.02 332.00" xmlns="http://www.w3.org/2000/svg" xmlns:xlink="http://www.w3.org/1999/xlink">
<g id="graph0" class="graph" transform="scale(1 1) rotate(0) translate(4 328)">
<title>G</title>
<polygon fill="white" stroke="transparent" points="-4,4 -4,-328 2137.02,-328 2137.02,4 -4,4"/>
<!-- TABL&#45;ISAPS_COM_CA_INB_SRV_APIKV_TP -->
<g id="node1" class="node">
<title>TABL&#45;ISAPS_COM_CA_INB_SRV_APIKV_TP</title>
<polygon fill="none" stroke="yellow" points="1706.17,-324 1407,-324 1407,-288 1706.17,-288 1706.17,-324"/>
<text text-anchor="middle" x="1556.58" y="-301.8" font-family="Times,serif" font-size="14.00">TABL&#45;ISAPS_COM_CA_INB_SRV_APIKV_TP</text>
</g>
<!-- TABL&#45;ISAPS_COM_CA_INB_SRV_APIKV_T_D -->
<g id="node2" class="node">
<title>TABL&#45;ISAPS_COM_CA_INB_SRV_APIKV_T_D</title>
<g id="a_node2"><a xlink:href="./TABL_ISAPS_COM_CA_INB_SRV_APIKV_T_D.html" xlink:title="TABL&#45;ISAPS_COM_CA_INB_SRV_APIKV_T_D">
<polygon fill="none" stroke="yellow" points="1569.99,-252 1261.18,-252 1261.18,-216 1569.99,-216 1569.99,-252"/>
<text text-anchor="middle" x="1415.58" y="-229.8" font-family="Times,serif" font-size="14.00">TABL&#45;ISAPS_COM_CA_INB_SRV_APIKV_T_D</text>
</a>
</g>
</g>
<!-- TABL&#45;ISAPS_COM_CA_INB_SRV_APIKV_TP&#45;&gt;TABL&#45;ISAPS_COM_CA_INB_SRV_APIKV_T_D -->
<g id="edge2" class="edge">
<title>TABL&#45;ISAPS_COM_CA_INB_SRV_APIKV_TP&#45;&gt;TABL&#45;ISAPS_COM_CA_INB_SRV_APIKV_T_D</title>
<path fill="none" stroke="black" d="M1522.09,-287.88C1503.14,-278.47 1479.45,-266.71 1459.23,-256.67"/>
<polygon fill="black" stroke="black" points="1460.72,-253.5 1450.21,-252.19 1457.61,-259.77 1460.72,-253.5"/>
</g>
<!-- TABL&#45;/BOBF/S_FRW_KEY_INCL -->
<g id="node19" class="node">
<title>TABL&#45;/BOBF/S_FRW_KEY_INCL</title>
<g id="a_node19"><a xlink:href="./TABL_%23BOBF%23S_FRW_KEY_INCL.html" xlink:title="TABL&#45;/BOBF/S_FRW_KEY_INCL">
<polygon fill="none" stroke="yellow" points="1978.68,-252 1756.49,-252 1756.49,-216 1978.68,-216 1978.68,-252"/>
<text text-anchor="middle" x="1867.58" y="-229.8" font-family="Times,serif" font-size="14.00">TABL&#45;/BOBF/S_FRW_KEY_INCL</text>
</a>
</g>
</g>
<!-- TABL&#45;ISAPS_COM_CA_INB_SRV_APIKV_TP&#45;&gt;TABL&#45;/BOBF/S_FRW_KEY_INCL -->
<g id="edge1" class="edge">
<title>TABL&#45;ISAPS_COM_CA_INB_SRV_APIKV_TP&#45;&gt;TABL&#45;/BOBF/S_FRW_KEY_INCL</title>
<path fill="none" stroke="black" d="M1632.27,-287.97C1677.5,-277.78 1735.11,-264.82 1782,-254.26"/>
<polygon fill="black" stroke="black" points="1782.85,-257.66 1791.83,-252.05 1781.31,-250.83 1782.85,-257.66"/>
</g>
<!-- DTEL&#45;SDRAFT_IS_ACTIVE -->
<g id="node3" class="node">
<title>DTEL&#45;SDRAFT_IS_ACTIVE</title>
<g id="a_node3"><a xlink:href="./DTEL_SDRAFT_IS_ACTIVE.html" xlink:title="DTEL&#45;SDRAFT_IS_ACTIVE">
<polygon fill="none" stroke="yellow" points="1616.44,-180 1428.73,-180 1428.73,-144 1616.44,-144 1616.44,-180"/>
<text text-anchor="middle" x="1522.58" y="-157.8" font-family="Times,serif" font-size="14.00">DTEL&#45;SDRAFT_IS_ACTIVE</text>
</a>
</g>
</g>
<!-- TABL&#45;ISAPS_COM_CA_INB_SRV_APIKV_T_D&#45;&gt;DTEL&#45;SDRAFT_IS_ACTIVE -->
<g id="edge7" class="edge">
<title>TABL&#45;ISAPS_COM_CA_INB_SRV_APIKV_T_D&#45;&gt;DTEL&#45;SDRAFT_IS_ACTIVE</title>
<path fill="none" stroke="black" d="M1441.76,-215.88C1455.62,-206.81 1472.83,-195.55 1487.8,-185.76"/>
<polygon fill="black" stroke="black" points="1489.86,-188.59 1496.31,-180.19 1486.02,-182.74 1489.86,-188.59"/>
</g>
<!-- TABL&#45;SDRAFT_WRITE_DRAFT_ADMIN -->
<g id="node5" class="node">
<title>TABL&#45;SDRAFT_WRITE_DRAFT_ADMIN</title>
<g id="a_node5"><a xlink:href="./TABL_SDRAFT_WRITE_DRAFT_ADMIN.html" xlink:title="TABL&#45;SDRAFT_WRITE_DRAFT_ADMIN">
<polygon fill="none" stroke="yellow" points="972.09,-180 703.08,-180 703.08,-144 972.09,-144 972.09,-180"/>
<text text-anchor="middle" x="837.58" y="-157.8" font-family="Times,serif" font-size="14.00">TABL&#45;SDRAFT_WRITE_DRAFT_ADMIN</text>
</a>
</g>
</g>
<!-- TABL&#45;ISAPS_COM_CA_INB_SRV_APIKV_T_D&#45;&gt;TABL&#45;SDRAFT_WRITE_DRAFT_ADMIN -->
<g id="edge6" class="edge">
<title>TABL&#45;ISAPS_COM_CA_INB_SRV_APIKV_T_D&#45;&gt;TABL&#45;SDRAFT_WRITE_DRAFT_ADMIN</title>
<path fill="none" stroke="black" d="M1274.93,-215.97C1186.19,-205.22 1071.86,-191.37 982.35,-180.53"/>
<polygon fill="black" stroke="black" points="982.74,-177.05 972.39,-179.33 981.9,-184 982.74,-177.05"/>
</g>
<!-- DTEL&#45;SDRAFT_HAS_ACTIVE -->
<g id="node15" class="node">
<title>DTEL&#45;SDRAFT_HAS_ACTIVE</title>
<g id="a_node15"><a xlink:href="./DTEL_SDRAFT_HAS_ACTIVE.html" xlink:title="DTEL&#45;SDRAFT_HAS_ACTIVE">
<polygon fill="none" stroke="yellow" points="1410.49,-180 1206.68,-180 1206.68,-144 1410.49,-144 1410.49,-180"/>
<text text-anchor="middle" x="1308.58" y="-157.8" font-family="Times,serif" font-size="14.00">DTEL&#45;SDRAFT_HAS_ACTIVE</text>
</a>
</g>
</g>
<!-- TABL&#45;ISAPS_COM_CA_INB_SRV_APIKV_T_D&#45;&gt;DTEL&#45;SDRAFT_HAS_ACTIVE -->
<g id="edge5" class="edge">
<title>TABL&#45;ISAPS_COM_CA_INB_SRV_APIKV_T_D&#45;&gt;DTEL&#45;SDRAFT_HAS_ACTIVE</title>
<path fill="none" stroke="black" d="M1389.41,-215.88C1375.55,-206.81 1358.34,-195.55 1343.37,-185.76"/>
<polygon fill="black" stroke="black" points="1345.14,-182.74 1334.86,-180.19 1341.31,-188.59 1345.14,-182.74"/>
</g>
<!-- DTEL&#45;/BOBF/UUID -->
<g id="node16" class="node">
<title>DTEL&#45;/BOBF/UUID</title>
<g id="a_node16"><a xlink:href="./DTEL_%23BOBF%23UUID.html" xlink:title="DTEL&#45;/BOBF/UUID">
<polygon fill="none" stroke="yellow" points="1188.33,-180 1052.83,-180 1052.83,-144 1188.33,-144 1188.33,-180"/>
<text text-anchor="middle" x="1120.58" y="-157.8" font-family="Times,serif" font-size="14.00">DTEL&#45;/BOBF/UUID</text>
</a>
</g>
</g>
<!-- TABL&#45;ISAPS_COM_CA_INB_SRV_APIKV_T_D&#45;&gt;DTEL&#45;/BOBF/UUID -->
<g id="edge4" class="edge">
<title>TABL&#45;ISAPS_COM_CA_INB_SRV_APIKV_T_D&#45;&gt;DTEL&#45;/BOBF/UUID</title>
<path fill="none" stroke="black" d="M1343.8,-215.97C1299.7,-205.5 1243.23,-192.1 1198.12,-181.4"/>
<polygon fill="black" stroke="black" points="1198.92,-177.99 1188.38,-179.09 1197.3,-184.8 1198.92,-177.99"/>
</g>
<!-- DTEL&#45;APS_COM_CSCN_PROPERTY_VALUE -->
<g id="node17" class="node">
<title>DTEL&#45;APS_COM_CSCN_PROPERTY_VALUE</title>
<g id="a_node17"><a xlink:href="./DTEL_APS_COM_CSCN_PROPERTY_VALUE.html" xlink:title="DTEL&#45;APS_COM_CSCN_PROPERTY_VALUE">
<polygon fill="none" stroke="yellow" points="1932.11,-180 1635.06,-180 1635.06,-144 1932.11,-144 1932.11,-180"/>
<text text-anchor="middle" x="1783.58" y="-157.8" font-family="Times,serif" font-size="14.00">DTEL&#45;APS_COM_CSCN_PROPERTY_VALUE</text>
</a>
</g>
</g>
<!-- TABL&#45;ISAPS_COM_CA_INB_SRV_APIKV_T_D&#45;&gt;DTEL&#45;APS_COM_CSCN_PROPERTY_VALUE -->
<g id="edge3" class="edge">
<title>TABL&#45;ISAPS_COM_CA_INB_SRV_APIKV_T_D&#45;&gt;DTEL&#45;APS_COM_CSCN_PROPERTY_VALUE</title>
<path fill="none" stroke="black" d="M1505.14,-215.97C1559.23,-205.68 1628.25,-192.55 1684.05,-181.93"/>
<polygon fill="black" stroke="black" points="1684.78,-185.36 1693.95,-180.05 1683.47,-178.48 1684.78,-185.36"/>
</g>
<!-- DOMA&#45;BOOLE -->
<g id="node4" class="node">
<title>DOMA&#45;BOOLE</title>
<g id="a_node4"><a xlink:href="./DOMA_BOOLE.html" xlink:title="DOMA&#45;BOOLE">
<polygon fill="none" stroke="yellow" points="1524.66,-108 1414.5,-108 1414.5,-72 1524.66,-72 1524.66,-108"/>
<text text-anchor="middle" x="1469.58" y="-85.8" font-family="Times,serif" font-size="14.00">DOMA&#45;BOOLE</text>
</a>
</g>
</g>
<!-- DTEL&#45;SDRAFT_IS_ACTIVE&#45;&gt;DOMA&#45;BOOLE -->
<g id="edge8" class="edge">
<title>DTEL&#45;SDRAFT_IS_ACTIVE&#45;&gt;DOMA&#45;BOOLE</title>
<path fill="none" stroke="black" d="M1509.48,-143.7C1503.19,-135.39 1495.54,-125.28 1488.62,-116.14"/>
<polygon fill="black" stroke="black" points="1491.36,-113.96 1482.53,-108.1 1485.78,-118.19 1491.36,-113.96"/>
</g>
<!-- DTEL&#45;SDRAFT_OPERATION_CODE -->
<g id="node6" class="node">
<title>DTEL&#45;SDRAFT_OPERATION_CODE</title>
<g id="a_node6"><a xlink:href="./DTEL_SDRAFT_OPERATION_CODE.html" xlink:title="DTEL&#45;SDRAFT_OPERATION_CODE">
<polygon fill="none" stroke="yellow" points="737.09,-108 496.08,-108 496.08,-72 737.09,-72 737.09,-108"/>
<text text-anchor="middle" x="616.58" y="-85.8" font-family="Times,serif" font-size="14.00">DTEL&#45;SDRAFT_OPERATION_CODE</text>
</a>
</g>
</g>
<!-- TABL&#45;SDRAFT_WRITE_DRAFT_ADMIN&#45;&gt;DTEL&#45;SDRAFT_OPERATION_CODE -->
<g id="edge13" class="edge">
<title>TABL&#45;SDRAFT_WRITE_DRAFT_ADMIN&#45;&gt;DTEL&#45;SDRAFT_OPERATION_CODE</title>
<path fill="none" stroke="black" d="M783.8,-143.97C752.66,-134.1 713.26,-121.62 680.53,-111.25"/>
<polygon fill="black" stroke="black" points="681.2,-107.79 670.61,-108.11 679.08,-114.47 681.2,-107.79"/>
</g>
<!-- DTEL&#45;SDRAFT_CONSISTENCY_STATUS -->
<g id="node8" class="node">
<title>DTEL&#45;SDRAFT_CONSISTENCY_STATUS</title>
<g id="a_node8"><a xlink:href="./DTEL_SDRAFT_CONSISTENCY_STATUS.html" xlink:title="DTEL&#45;SDRAFT_CONSISTENCY_STATUS">
<polygon fill="none" stroke="yellow" points="1028.49,-108 754.68,-108 754.68,-72 1028.49,-72 1028.49,-108"/>
<text text-anchor="middle" x="891.58" y="-85.8" font-family="Times,serif" font-size="14.00">DTEL&#45;SDRAFT_CONSISTENCY_STATUS</text>
</a>
</g>
</g>
<!-- TABL&#45;SDRAFT_WRITE_DRAFT_ADMIN&#45;&gt;DTEL&#45;SDRAFT_CONSISTENCY_STATUS -->
<g id="edge12" class="edge">
<title>TABL&#45;SDRAFT_WRITE_DRAFT_ADMIN&#45;&gt;DTEL&#45;SDRAFT_CONSISTENCY_STATUS</title>
<path fill="none" stroke="black" d="M850.93,-143.7C857.34,-135.39 865.14,-125.28 872.19,-116.14"/>
<polygon fill="black" stroke="black" points="875.05,-118.16 878.39,-108.1 869.51,-113.88 875.05,-118.16"/>
</g>
<!-- DTEL&#45;SDRAFT_ADMIN_UUID -->
<g id="node10" class="node">
<title>DTEL&#45;SDRAFT_ADMIN_UUID</title>
<g id="a_node10"><a xlink:href="./DTEL_SDRAFT_ADMIN_UUID.html" xlink:title="DTEL&#45;SDRAFT_ADMIN_UUID">
<polygon fill="none" stroke="yellow" points="1253.08,-108 1046.09,-108 1046.09,-72 1253.08,-72 1253.08,-108"/>
<text text-anchor="middle" x="1149.58" y="-85.8" font-family="Times,serif" font-size="14.00">DTEL&#45;SDRAFT_ADMIN_UUID</text>
</a>
</g>
</g>
<!-- TABL&#45;SDRAFT_WRITE_DRAFT_ADMIN&#45;&gt;DTEL&#45;SDRAFT_ADMIN_UUID -->
<g id="edge11" class="edge">
<title>TABL&#45;SDRAFT_WRITE_DRAFT_ADMIN&#45;&gt;DTEL&#45;SDRAFT_ADMIN_UUID</title>
<path fill="none" stroke="black" d="M913.51,-143.97C958.89,-133.78 1016.68,-120.82 1063.72,-110.26"/>
<polygon fill="black" stroke="black" points="1064.6,-113.65 1073.59,-108.05 1063.07,-106.82 1064.6,-113.65"/>
</g>
<!-- DTEL&#45;SDRAFT_LAST_CHANGED_AT -->
<g id="node12" class="node">
<title>DTEL&#45;SDRAFT_LAST_CHANGED_AT</title>
<g id="a_node12"><a xlink:href="./DTEL_SDRAFT_LAST_CHANGED_AT.html" xlink:title="DTEL&#45;SDRAFT_LAST_CHANGED_AT">
<polygon fill="none" stroke="yellow" points="253.25,-108 -0.08,-108 -0.08,-72 253.25,-72 253.25,-108"/>
<text text-anchor="middle" x="126.58" y="-85.8" font-family="Times,serif" font-size="14.00">DTEL&#45;SDRAFT_LAST_CHANGED_AT</text>
</a>
</g>
</g>
<!-- TABL&#45;SDRAFT_WRITE_DRAFT_ADMIN&#45;&gt;DTEL&#45;SDRAFT_LAST_CHANGED_AT -->
<g id="edge10" class="edge">
<title>TABL&#45;SDRAFT_WRITE_DRAFT_ADMIN&#45;&gt;DTEL&#45;SDRAFT_LAST_CHANGED_AT</title>
<path fill="none" stroke="black" d="M703.03,-149.9C588.73,-140.18 420.01,-125.11 263.68,-108.21"/>
<polygon fill="black" stroke="black" points="263.72,-104.69 253.4,-107.1 262.96,-111.65 263.72,-104.69"/>
</g>
<!-- DTEL&#45;SDRAFT_CREATED_AT -->
<g id="node14" class="node">
<title>DTEL&#45;SDRAFT_CREATED_AT</title>
<g id="a_node14"><a xlink:href="./DTEL_SDRAFT_CREATED_AT.html" xlink:title="DTEL&#45;SDRAFT_CREATED_AT">
<polygon fill="none" stroke="yellow" points="478.38,-108 270.79,-108 270.79,-72 478.38,-72 478.38,-108"/>
<text text-anchor="middle" x="374.58" y="-85.8" font-family="Times,serif" font-size="14.00">DTEL&#45;SDRAFT_CREATED_AT</text>
</a>
</g>
</g>
<!-- TABL&#45;SDRAFT_WRITE_DRAFT_ADMIN&#45;&gt;DTEL&#45;SDRAFT_CREATED_AT -->
<g id="edge9" class="edge">
<title>TABL&#45;SDRAFT_WRITE_DRAFT_ADMIN&#45;&gt;DTEL&#45;SDRAFT_CREATED_AT</title>
<path fill="none" stroke="black" d="M724.56,-143.96C658.38,-133.97 572.9,-121.07 488.35,-108.27"/>
<polygon fill="black" stroke="black" points="488.73,-104.78 478.32,-106.75 487.68,-111.71 488.73,-104.78"/>
</g>
<!-- DOMA&#45;SDRAFT_OPERATION_CODE -->
<g id="node7" class="node">
<title>DOMA&#45;SDRAFT_OPERATION_CODE</title>
<g id="a_node7"><a xlink:href="./DOMA_SDRAFT_OPERATION_CODE.html" xlink:title="DOMA&#45;SDRAFT_OPERATION_CODE">
<polygon fill="none" stroke="yellow" points="736.59,-36 488.58,-36 488.58,0 736.59,0 736.59,-36"/>
<text text-anchor="middle" x="612.58" y="-13.8" font-family="Times,serif" font-size="14.00">DOMA&#45;SDRAFT_OPERATION_CODE</text>
</a>
</g>
</g>
<!-- DTEL&#45;SDRAFT_OPERATION_CODE&#45;&gt;DOMA&#45;SDRAFT_OPERATION_CODE -->
<g id="edge14" class="edge">
<title>DTEL&#45;SDRAFT_OPERATION_CODE&#45;&gt;DOMA&#45;SDRAFT_OPERATION_CODE</title>
<path fill="none" stroke="black" d="M615.6,-71.7C615.15,-63.98 614.62,-54.71 614.13,-46.11"/>
<polygon fill="black" stroke="black" points="617.63,-45.89 613.56,-36.1 610.64,-46.29 617.63,-45.89"/>
</g>
<!-- DOMA&#45;SDRAFT_CONSISTENCY_STATUS -->
<g id="node9" class="node">
<title>DOMA&#45;SDRAFT_CONSISTENCY_STATUS</title>
<g id="a_node9"><a xlink:href="./DOMA_SDRAFT_CONSISTENCY_STATUS.html" xlink:title="DOMA&#45;SDRAFT_CONSISTENCY_STATUS">
<polygon fill="none" stroke="yellow" points="1034.99,-36 754.18,-36 754.18,0 1034.99,0 1034.99,-36"/>
<text text-anchor="middle" x="894.58" y="-13.8" font-family="Times,serif" font-size="14.00">DOMA&#45;SDRAFT_CONSISTENCY_STATUS</text>
</a>
</g>
</g>
<!-- DTEL&#45;SDRAFT_CONSISTENCY_STATUS&#45;&gt;DOMA&#45;SDRAFT_CONSISTENCY_STATUS -->
<g id="edge15" class="edge">
<title>DTEL&#45;SDRAFT_CONSISTENCY_STATUS&#45;&gt;DOMA&#45;SDRAFT_CONSISTENCY_STATUS</title>
<path fill="none" stroke="black" d="M892.33,-71.7C892.66,-63.98 893.05,-54.71 893.42,-46.11"/>
<polygon fill="black" stroke="black" points="896.92,-46.25 893.85,-36.1 889.93,-45.95 896.92,-46.25"/>
</g>
<!-- DOMA&#45;SYSUUID -->
<g id="node11" class="node">
<title>DOMA&#45;SYSUUID</title>
<g id="a_node11"><a xlink:href="./DOMA_SYSUUID.html" xlink:title="DOMA&#45;SYSUUID">
<polygon fill="none" stroke="yellow" points="1276.66,-36 1152.51,-36 1152.51,0 1276.66,0 1276.66,-36"/>
<text text-anchor="middle" x="1214.58" y="-13.8" font-family="Times,serif" font-size="14.00">DOMA&#45;SYSUUID</text>
</a>
</g>
</g>
<!-- DTEL&#45;SDRAFT_ADMIN_UUID&#45;&gt;DOMA&#45;SYSUUID -->
<g id="edge16" class="edge">
<title>DTEL&#45;SDRAFT_ADMIN_UUID&#45;&gt;DOMA&#45;SYSUUID</title>
<path fill="none" stroke="black" d="M1165.65,-71.7C1173.52,-63.22 1183.14,-52.86 1191.76,-43.58"/>
<polygon fill="black" stroke="black" points="1194.46,-45.81 1198.7,-36.1 1189.33,-41.05 1194.46,-45.81"/>
</g>
<!-- DOMA&#45;TZNTSTMPL -->
<g id="node13" class="node">
<title>DOMA&#45;TZNTSTMPL</title>
<g id="a_node13"><a xlink:href="./DOMA_TZNTSTMPL.html" xlink:title="DOMA&#45;TZNTSTMPL">
<polygon fill="none" stroke="yellow" points="322.89,-36 178.28,-36 178.28,0 322.89,0 322.89,-36"/>
<text text-anchor="middle" x="250.58" y="-13.8" font-family="Times,serif" font-size="14.00">DOMA&#45;TZNTSTMPL</text>
</a>
</g>
</g>
<!-- DTEL&#45;SDRAFT_LAST_CHANGED_AT&#45;&gt;DOMA&#45;TZNTSTMPL -->
<g id="edge17" class="edge">
<title>DTEL&#45;SDRAFT_LAST_CHANGED_AT&#45;&gt;DOMA&#45;TZNTSTMPL</title>
<path fill="none" stroke="black" d="M156.92,-71.88C173.28,-62.64 193.67,-51.13 211.24,-41.21"/>
<polygon fill="black" stroke="black" points="213.15,-44.15 220.13,-36.19 209.7,-38.06 213.15,-44.15"/>
</g>
<!-- DTEL&#45;SDRAFT_CREATED_AT&#45;&gt;DOMA&#45;TZNTSTMPL -->
<g id="edge18" class="edge">
<title>DTEL&#45;SDRAFT_CREATED_AT&#45;&gt;DOMA&#45;TZNTSTMPL</title>
<path fill="none" stroke="black" d="M344.25,-71.88C327.89,-62.64 307.5,-51.13 289.93,-41.21"/>
<polygon fill="black" stroke="black" points="291.46,-38.06 281.03,-36.19 288.02,-44.15 291.46,-38.06"/>
</g>
<!-- DTEL&#45;SDRAFT_HAS_ACTIVE&#45;&gt;DOMA&#45;BOOLE -->
<g id="edge19" class="edge">
<title>DTEL&#45;SDRAFT_HAS_ACTIVE&#45;&gt;DOMA&#45;BOOLE</title>
<path fill="none" stroke="black" d="M1347.97,-143.88C1369.98,-134.31 1397.59,-122.3 1420.94,-112.15"/>
<polygon fill="black" stroke="black" points="1422.55,-115.27 1430.33,-108.07 1419.76,-108.85 1422.55,-115.27"/>
</g>
<!-- DTEL&#45;/BOBF/UUID&#45;&gt;DOMA&#45;SYSUUID -->
<g id="edge20" class="edge">
<title>DTEL&#45;/BOBF/UUID&#45;&gt;DOMA&#45;SYSUUID</title>
<path fill="none" stroke="black" d="M1187.03,-143.89C1218.98,-134.18 1252.35,-121.33 1261.58,-108 1275.86,-87.38 1259.36,-61.92 1242.11,-43.51"/>
<polygon fill="black" stroke="black" points="1244.28,-40.73 1234.75,-36.09 1239.31,-45.66 1244.28,-40.73"/>
</g>
<!-- DOMA&#45;APS_COM_CSCN_PROPERTY_VALUE -->
<g id="node18" class="node">
<title>DOMA&#45;APS_COM_CSCN_PROPERTY_VALUE</title>
<g id="a_node18"><a xlink:href="./DOMA_APS_COM_CSCN_PROPERTY_VALUE.html" xlink:title="DOMA&#45;APS_COM_CSCN_PROPERTY_VALUE">
<polygon fill="none" stroke="yellow" points="1933.61,-108 1629.56,-108 1629.56,-72 1933.61,-72 1933.61,-108"/>
<text text-anchor="middle" x="1781.58" y="-85.8" font-family="Times,serif" font-size="14.00">DOMA&#45;APS_COM_CSCN_PROPERTY_VALUE</text>
</a>
</g>
</g>
<!-- DTEL&#45;APS_COM_CSCN_PROPERTY_VALUE&#45;&gt;DOMA&#45;APS_COM_CSCN_PROPERTY_VALUE -->
<g id="edge21" class="edge">
<title>DTEL&#45;APS_COM_CSCN_PROPERTY_VALUE&#45;&gt;DOMA&#45;APS_COM_CSCN_PROPERTY_VALUE</title>
<path fill="none" stroke="black" d="M1783.09,-143.7C1782.87,-135.98 1782.6,-126.71 1782.36,-118.11"/>
<polygon fill="black" stroke="black" points="1785.86,-118 1782.07,-108.1 1778.86,-118.2 1785.86,-118"/>
</g>
<!-- DTEL&#45;/BOBF/CONF_KEY -->
<g id="node20" class="node">
<title>DTEL&#45;/BOBF/CONF_KEY</title>
<g id="a_node20"><a xlink:href="./DTEL_%23BOBF%23CONF_KEY.html" xlink:title="DTEL&#45;/BOBF/CONF_KEY">
<polygon fill="none" stroke="yellow" points="2127.45,-180 1953.72,-180 1953.72,-144 2127.45,-144 2127.45,-180"/>
<text text-anchor="middle" x="2040.58" y="-157.8" font-family="Times,serif" font-size="14.00">DTEL&#45;/BOBF/CONF_KEY</text>
</a>
</g>
</g>
<!-- TABL&#45;/BOBF/S_FRW_KEY_INCL&#45;&gt;DTEL&#45;/BOBF/CONF_KEY -->
<g id="edge22" class="edge">
<title>TABL&#45;/BOBF/S_FRW_KEY_INCL&#45;&gt;DTEL&#45;/BOBF/CONF_KEY</title>
<path fill="none" stroke="black" d="M1909.9,-215.88C1933.77,-206.22 1963.76,-194.09 1988.99,-183.88"/>
<polygon fill="black" stroke="black" points="1990.44,-187.06 1998.4,-180.07 1987.82,-180.57 1990.44,-187.06"/>
</g>
<!-- DOMA&#45;/BOBF/CONF_KEY -->
<g id="node21" class="node">
<title>DOMA&#45;/BOBF/CONF_KEY</title>
<g id="a_node21"><a xlink:href="./DOMA_%23BOBF%23CONF_KEY.html" xlink:title="DOMA&#45;/BOBF/CONF_KEY">
<polygon fill="none" stroke="yellow" points="2132.95,-108 1952.22,-108 1952.22,-72 2132.95,-72 2132.95,-108"/>
<text text-anchor="middle" x="2042.58" y="-85.8" font-family="Times,serif" font-size="14.00">DOMA&#45;/BOBF/CONF_KEY</text>
</a>
</g>
</g>
<!-- DTEL&#45;/BOBF/CONF_KEY&#45;&gt;DOMA&#45;/BOBF/CONF_KEY -->
<g id="edge23" class="edge">
<title>DTEL&#45;/BOBF/CONF_KEY&#45;&gt;DOMA&#45;/BOBF/CONF_KEY</title>
<path fill="none" stroke="black" d="M2041.08,-143.7C2041.3,-135.98 2041.56,-126.71 2041.81,-118.11"/>
<polygon fill="black" stroke="black" points="2045.31,-118.2 2042.1,-108.1 2038.31,-118 2045.31,-118.2"/>
</g>
</g>
</svg>
