<?xml version="1.0" encoding="UTF-8" standalone="no"?>
<!DOCTYPE svg PUBLIC "-//W3C//DTD SVG 1.1//EN"
 "http://www.w3.org/Graphics/SVG/1.1/DTD/svg11.dtd">
<!-- Generated by graphviz version 2.47.3 (20210619.1520)
 -->
<!-- Title: G Pages: 1 -->
<svg width="598pt" height="188pt"
 viewBox="0.00 0.00 597.87 188.00" xmlns="http://www.w3.org/2000/svg" xmlns:xlink="http://www.w3.org/1999/xlink">
<g id="graph0" class="graph" transform="scale(1 1) rotate(0) translate(4 184)">
<title>G</title>
<polygon fill="white" stroke="transparent" points="-4,4 -4,-184 593.87,-184 593.87,4 -4,4"/>
<!-- TABL&#45;APS_COM_W_IBST -->
<g id="node1" class="node">
<title>TABL&#45;APS_COM_W_IBST</title>
<polygon fill="none" stroke="yellow" points="466.58,-180 286.95,-180 286.95,-144 466.58,-144 466.58,-180"/>
<text text-anchor="middle" x="376.77" y="-157.8" font-family="Times,serif" font-size="14.00">TABL&#45;APS_COM_W_IBST</text>
</g>
<!-- DTEL&#45;APS_COM_IBS_DESCRIPTION -->
<g id="node2" class="node">
<title>DTEL&#45;APS_COM_IBS_DESCRIPTION</title>
<g id="a_node2"><a xlink:href="./DTEL_APS_COM_IBS_DESCRIPTION.html" xlink:title="DTEL&#45;APS_COM_IBS_DESCRIPTION">
<polygon fill="none" stroke="yellow" points="265.51,-108 18.02,-108 18.02,-72 265.51,-72 265.51,-108"/>
<text text-anchor="middle" x="141.77" y="-85.8" font-family="Times,serif" font-size="14.00">DTEL&#45;APS_COM_IBS_DESCRIPTION</text>
</a>
</g>
</g>
<!-- TABL&#45;APS_COM_W_IBST&#45;&gt;DTEL&#45;APS_COM_IBS_DESCRIPTION -->
<g id="edge3" class="edge">
<title>TABL&#45;APS_COM_W_IBST&#45;&gt;DTEL&#45;APS_COM_IBS_DESCRIPTION</title>
<path fill="none" stroke="black" d="M319.58,-143.97C286.17,-134.01 243.84,-121.41 208.87,-110.99"/>
<polygon fill="black" stroke="black" points="209.79,-107.61 199.21,-108.11 207.79,-114.32 209.79,-107.61"/>
</g>
<!-- DTEL&#45;APS_COM_IBS_ID -->
<g id="node4" class="node">
<title>DTEL&#45;APS_COM_IBS_ID</title>
<g id="a_node4"><a xlink:href="./DTEL_APS_COM_IBS_ID.html" xlink:title="DTEL&#45;APS_COM_IBS_ID">
<polygon fill="none" stroke="yellow" points="462.3,-108 291.23,-108 291.23,-72 462.3,-72 462.3,-108"/>
<text text-anchor="middle" x="376.77" y="-85.8" font-family="Times,serif" font-size="14.00">DTEL&#45;APS_COM_IBS_ID</text>
</a>
</g>
</g>
<!-- TABL&#45;APS_COM_W_IBST&#45;&gt;DTEL&#45;APS_COM_IBS_ID -->
<g id="edge2" class="edge">
<title>TABL&#45;APS_COM_W_IBST&#45;&gt;DTEL&#45;APS_COM_IBS_ID</title>
<path fill="none" stroke="black" d="M376.77,-143.7C376.77,-135.98 376.77,-126.71 376.77,-118.11"/>
<polygon fill="black" stroke="black" points="380.27,-118.1 376.77,-108.1 373.27,-118.1 380.27,-118.1"/>
</g>
<!-- DTEL&#45;LANGU -->
<g id="node6" class="node">
<title>DTEL&#45;LANGU</title>
<g id="a_node6"><a xlink:href="./DTEL_LANGU.html" xlink:title="DTEL&#45;LANGU">
<polygon fill="none" stroke="yellow" points="587.67,-108 481.86,-108 481.86,-72 587.67,-72 587.67,-108"/>
<text text-anchor="middle" x="534.77" y="-85.8" font-family="Times,serif" font-size="14.00">DTEL&#45;LANGU</text>
</a>
</g>
</g>
<!-- TABL&#45;APS_COM_W_IBST&#45;&gt;DTEL&#45;LANGU -->
<g id="edge1" class="edge">
<title>TABL&#45;APS_COM_W_IBST&#45;&gt;DTEL&#45;LANGU</title>
<path fill="none" stroke="black" d="M415.42,-143.88C437.02,-134.31 464.12,-122.3 487.03,-112.15"/>
<polygon fill="black" stroke="black" points="488.52,-115.32 496.24,-108.07 485.68,-108.92 488.52,-115.32"/>
</g>
<!-- DOMA&#45;APS_COM_CSCN_DESCRIPTION -->
<g id="node3" class="node">
<title>DOMA&#45;APS_COM_CSCN_DESCRIPTION</title>
<g id="a_node3"><a xlink:href="./DOMA_APS_COM_CSCN_DESCRIPTION.html" xlink:title="DOMA&#45;APS_COM_CSCN_DESCRIPTION">
<polygon fill="none" stroke="yellow" points="269.3,-36 0.23,-36 0.23,0 269.3,0 269.3,-36"/>
<text text-anchor="middle" x="134.77" y="-13.8" font-family="Times,serif" font-size="14.00">DOMA&#45;APS_COM_CSCN_DESCRIPTION</text>
</a>
</g>
</g>
<!-- DTEL&#45;APS_COM_IBS_DESCRIPTION&#45;&gt;DOMA&#45;APS_COM_CSCN_DESCRIPTION -->
<g id="edge4" class="edge">
<title>DTEL&#45;APS_COM_IBS_DESCRIPTION&#45;&gt;DOMA&#45;APS_COM_CSCN_DESCRIPTION</title>
<path fill="none" stroke="black" d="M140.04,-71.7C139.26,-63.98 138.34,-54.71 137.48,-46.11"/>
<polygon fill="black" stroke="black" points="140.95,-45.71 136.48,-36.1 133.99,-46.4 140.95,-45.71"/>
</g>
<!-- DOMA&#45;APS_COM_IBS_ID -->
<g id="node5" class="node">
<title>DOMA&#45;APS_COM_IBS_ID</title>
<g id="a_node5"><a xlink:href="./DOMA_APS_COM_IBS_ID.html" xlink:title="DOMA&#45;APS_COM_IBS_ID">
<polygon fill="none" stroke="yellow" points="465.8,-36 287.73,-36 287.73,0 465.8,0 465.8,-36"/>
<text text-anchor="middle" x="376.77" y="-13.8" font-family="Times,serif" font-size="14.00">DOMA&#45;APS_COM_IBS_ID</text>
</a>
</g>
</g>
<!-- DTEL&#45;APS_COM_IBS_ID&#45;&gt;DOMA&#45;APS_COM_IBS_ID -->
<g id="edge5" class="edge">
<title>DTEL&#45;APS_COM_IBS_ID&#45;&gt;DOMA&#45;APS_COM_IBS_ID</title>
<path fill="none" stroke="black" d="M376.77,-71.7C376.77,-63.98 376.77,-54.71 376.77,-46.11"/>
<polygon fill="black" stroke="black" points="380.27,-46.1 376.77,-36.1 373.27,-46.1 380.27,-46.1"/>
</g>
<!-- DOMA&#45;SPRAS -->
<g id="node7" class="node">
<title>DOMA&#45;SPRAS</title>
<g id="a_node7"><a xlink:href="./DOMA_SPRAS.html" xlink:title="DOMA&#45;SPRAS">
<polygon fill="none" stroke="green" points="589.98,-36 483.55,-36 483.55,0 589.98,0 589.98,-36"/>
<text text-anchor="middle" x="536.77" y="-13.8" font-family="Times,serif" font-size="14.00">DOMA&#45;SPRAS</text>
</a>
</g>
</g>
<!-- DTEL&#45;LANGU&#45;&gt;DOMA&#45;SPRAS -->
<g id="edge6" class="edge">
<title>DTEL&#45;LANGU&#45;&gt;DOMA&#45;SPRAS</title>
<path fill="none" stroke="black" d="M535.26,-71.7C535.48,-63.98 535.75,-54.71 535.99,-46.11"/>
<polygon fill="black" stroke="black" points="539.49,-46.2 536.28,-36.1 532.49,-46 539.49,-46.2"/>
</g>
</g>
</svg>
