<?xml version="1.0" encoding="UTF-8" standalone="no"?>
<!DOCTYPE svg PUBLIC "-//W3C//DTD SVG 1.1//EN"
 "http://www.w3.org/Graphics/SVG/1.1/DTD/svg11.dtd">
<!-- Generated by graphviz version 2.47.3 (20210619.1520)
 -->
<!-- Title: G Pages: 1 -->
<svg width="1996pt" height="332pt"
 viewBox="0.00 0.00 1995.64 332.00" xmlns="http://www.w3.org/2000/svg" xmlns:xlink="http://www.w3.org/1999/xlink">
<g id="graph0" class="graph" transform="scale(1 1) rotate(0) translate(4 328)">
<title>G</title>
<polygon fill="white" stroke="transparent" points="-4,4 -4,-328 1991.64,-328 1991.64,4 -4,4"/>
<!-- TABL&#45;ADDRS_EMAIL_ADDRESS -->
<g id="node1" class="node">
<title>TABL&#45;ADDRS_EMAIL_ADDRESS</title>
<polygon fill="none" stroke="yellow" points="1191.5,-324 965.02,-324 965.02,-288 1191.5,-288 1191.5,-324"/>
<text text-anchor="middle" x="1078.26" y="-301.8" font-family="Times,serif" font-size="14.00">TABL&#45;ADDRS_EMAIL_ADDRESS</text>
</g>
<!-- DTEL&#45;AD_OP_CODE -->
<g id="node2" class="node">
<title>DTEL&#45;AD_OP_CODE</title>
<g id="a_node2"><a xlink:href="./DTEL_AD_OP_CODE.html" xlink:title="DTEL&#45;AD_OP_CODE">
<polygon fill="none" stroke="yellow" points="432.39,-108 286.13,-108 286.13,-72 432.39,-72 432.39,-108"/>
<text text-anchor="middle" x="359.26" y="-85.8" font-family="Times,serif" font-size="14.00">DTEL&#45;AD_OP_CODE</text>
</a>
</g>
</g>
<!-- TABL&#45;ADDRS_EMAIL_ADDRESS&#45;&gt;DTEL&#45;AD_OP_CODE -->
<g id="edge12" class="edge">
<title>TABL&#45;ADDRS_EMAIL_ADDRESS&#45;&gt;DTEL&#45;AD_OP_CODE</title>
<path fill="none" stroke="black" d="M964.84,-299.7C840.53,-292.68 649.77,-278.06 582.26,-252 506.3,-222.67 500.4,-191.5 434.26,-144 420.45,-134.08 405.13,-123.23 391.96,-113.94"/>
<polygon fill="black" stroke="black" points="393.84,-110.99 383.65,-108.09 389.81,-116.71 393.84,-110.99"/>
</g>
<!-- TTYP&#45;ADDRT_COMMUNICATION_DATA_USAGE -->
<g id="node4" class="node">
<title>TTYP&#45;ADDRT_COMMUNICATION_DATA_USAGE</title>
<g id="a_node4"><a xlink:href="./TTYP_ADDRT_COMMUNICATION_DATA_USAGE.html" xlink:title="TTYP&#45;ADDRT_COMMUNICATION_DATA_USAGE">
<polygon fill="none" stroke="yellow" points="962.73,-252 629.79,-252 629.79,-216 962.73,-216 962.73,-252"/>
<text text-anchor="middle" x="796.26" y="-229.8" font-family="Times,serif" font-size="14.00">TTYP&#45;ADDRT_COMMUNICATION_DATA_USAGE</text>
</a>
</g>
</g>
<!-- TABL&#45;ADDRS_EMAIL_ADDRESS&#45;&gt;TTYP&#45;ADDRT_COMMUNICATION_DATA_USAGE -->
<g id="edge11" class="edge">
<title>TABL&#45;ADDRS_EMAIL_ADDRESS&#45;&gt;TTYP&#45;ADDRT_COMMUNICATION_DATA_USAGE</title>
<path fill="none" stroke="black" d="M1009.64,-287.97C968.95,-277.87 917.23,-265.03 874.9,-254.52"/>
<polygon fill="black" stroke="black" points="875.74,-251.12 865.19,-252.11 874.06,-257.92 875.74,-251.12"/>
</g>
<!-- DTEL&#45;ADDR_NODE_ID -->
<g id="node6" class="node">
<title>DTEL&#45;ADDR_NODE_ID</title>
<g id="a_node6"><a xlink:href="./DTEL_ADDR_NODE_ID.html" xlink:title="DTEL&#45;ADDR_NODE_ID">
<polygon fill="none" stroke="yellow" points="613.98,-108 450.54,-108 450.54,-72 613.98,-72 613.98,-108"/>
<text text-anchor="middle" x="532.26" y="-85.8" font-family="Times,serif" font-size="14.00">DTEL&#45;ADDR_NODE_ID</text>
</a>
</g>
</g>
<!-- TABL&#45;ADDRS_EMAIL_ADDRESS&#45;&gt;DTEL&#45;ADDR_NODE_ID -->
<g id="edge1" class="edge">
<title>TABL&#45;ADDRS_EMAIL_ADDRESS&#45;&gt;DTEL&#45;ADDR_NODE_ID</title>
<path fill="none" stroke="black" d="M964.96,-303.52C848.18,-299.98 675.7,-288.5 621.26,-252 574.18,-220.43 549.6,-155.25 538.96,-118.24"/>
<polygon fill="black" stroke="black" points="542.21,-116.88 536.2,-108.16 535.46,-118.73 542.21,-116.88"/>
</g>
<!-- DTEL&#45;AD_VALFROM -->
<g id="node10" class="node">
<title>DTEL&#45;AD_VALFROM</title>
<g id="a_node10"><a xlink:href="./DTEL_AD_VALFROM.html" xlink:title="DTEL&#45;AD_VALFROM">
<polygon fill="none" stroke="yellow" points="1106.34,-108 954.19,-108 954.19,-72 1106.34,-72 1106.34,-108"/>
<text text-anchor="middle" x="1030.26" y="-85.8" font-family="Times,serif" font-size="14.00">DTEL&#45;AD_VALFROM</text>
</a>
</g>
</g>
<!-- TABL&#45;ADDRS_EMAIL_ADDRESS&#45;&gt;DTEL&#45;AD_VALFROM -->
<g id="edge7" class="edge">
<title>TABL&#45;ADDRS_EMAIL_ADDRESS&#45;&gt;DTEL&#45;AD_VALFROM</title>
<path fill="none" stroke="black" d="M1064.24,-287.74C1046.72,-264.81 1017.97,-222.24 1009.26,-180 1006.03,-164.33 1006.26,-159.72 1009.26,-144 1010.97,-135.06 1014.16,-125.7 1017.55,-117.37"/>
<polygon fill="black" stroke="black" points="1020.77,-118.73 1021.54,-108.17 1014.35,-115.95 1020.77,-118.73"/>
</g>
<!-- DTEL&#45;AD_VALTO -->
<g id="node12" class="node">
<title>DTEL&#45;AD_VALTO</title>
<g id="a_node12"><a xlink:href="./DTEL_AD_VALTO.html" xlink:title="DTEL&#45;AD_VALTO">
<polygon fill="none" stroke="yellow" points="1331.82,-108 1200.7,-108 1200.7,-72 1331.82,-72 1331.82,-108"/>
<text text-anchor="middle" x="1266.26" y="-85.8" font-family="Times,serif" font-size="14.00">DTEL&#45;AD_VALTO</text>
</a>
</g>
</g>
<!-- TABL&#45;ADDRS_EMAIL_ADDRESS&#45;&gt;DTEL&#45;AD_VALTO -->
<g id="edge8" class="edge">
<title>TABL&#45;ADDRS_EMAIL_ADDRESS&#45;&gt;DTEL&#45;AD_VALTO</title>
<path fill="none" stroke="black" d="M1153.02,-287.89C1174.13,-279.95 1195.59,-268.48 1211.26,-252 1246.68,-214.76 1259.36,-153.77 1263.85,-118.51"/>
<polygon fill="black" stroke="black" points="1267.34,-118.78 1265,-108.45 1260.39,-117.99 1267.34,-118.78"/>
</g>
<!-- TTYP&#45;ADDRT_COMMUNICATION_DATA_NOTE -->
<g id="node16" class="node">
<title>TTYP&#45;ADDRT_COMMUNICATION_DATA_NOTE</title>
<g id="a_node16"><a xlink:href="./TTYP_ADDRT_COMMUNICATION_DATA_NOTE.html" xlink:title="TTYP&#45;ADDRT_COMMUNICATION_DATA_NOTE">
<polygon fill="none" stroke="yellow" points="445.89,-252 122.63,-252 122.63,-216 445.89,-216 445.89,-252"/>
<text text-anchor="middle" x="284.26" y="-229.8" font-family="Times,serif" font-size="14.00">TTYP&#45;ADDRT_COMMUNICATION_DATA_NOTE</text>
</a>
</g>
</g>
<!-- TABL&#45;ADDRS_EMAIL_ADDRESS&#45;&gt;TTYP&#45;ADDRT_COMMUNICATION_DATA_NOTE -->
<g id="edge10" class="edge">
<title>TABL&#45;ADDRS_EMAIL_ADDRESS&#45;&gt;TTYP&#45;ADDRT_COMMUNICATION_DATA_NOTE</title>
<path fill="none" stroke="black" d="M964.92,-295.01C832.01,-283.29 610.32,-263.75 456.2,-250.16"/>
<polygon fill="black" stroke="black" points="456.41,-246.66 446.15,-249.27 455.8,-253.64 456.41,-246.66"/>
</g>
<!-- TTYP&#45;ADDRT_CHANGED_FIELDS -->
<g id="node22" class="node">
<title>TTYP&#45;ADDRT_CHANGED_FIELDS</title>
<g id="a_node22"><a xlink:href="./TTYP_ADDRT_CHANGED_FIELDS.html" xlink:title="TTYP&#45;ADDRT_CHANGED_FIELDS">
<polygon fill="none" stroke="yellow" points="1491.98,-252 1258.54,-252 1258.54,-216 1491.98,-216 1491.98,-252"/>
<text text-anchor="middle" x="1375.26" y="-229.8" font-family="Times,serif" font-size="14.00">TTYP&#45;ADDRT_CHANGED_FIELDS</text>
</a>
</g>
</g>
<!-- TABL&#45;ADDRS_EMAIL_ADDRESS&#45;&gt;TTYP&#45;ADDRT_CHANGED_FIELDS -->
<g id="edge9" class="edge">
<title>TABL&#45;ADDRS_EMAIL_ADDRESS&#45;&gt;TTYP&#45;ADDRT_CHANGED_FIELDS</title>
<path fill="none" stroke="black" d="M1150.54,-287.97C1193.56,-277.83 1248.29,-264.93 1292.96,-254.4"/>
<polygon fill="black" stroke="black" points="1293.99,-257.75 1302.92,-252.05 1292.38,-250.94 1293.99,-257.75"/>
</g>
<!-- DTEL&#45;AD_TNEF6 -->
<g id="node25" class="node">
<title>DTEL&#45;AD_TNEF6</title>
<g id="a_node25"><a xlink:href="./DTEL_AD_TNEF6.html" xlink:title="DTEL&#45;AD_TNEF6">
<polygon fill="none" stroke="yellow" points="1143.89,-180 1018.63,-180 1018.63,-144 1143.89,-144 1143.89,-180"/>
<text text-anchor="middle" x="1081.26" y="-157.8" font-family="Times,serif" font-size="14.00">DTEL&#45;AD_TNEF6</text>
</a>
</g>
</g>
<!-- TABL&#45;ADDRS_EMAIL_ADDRESS&#45;&gt;DTEL&#45;AD_TNEF6 -->
<g id="edge6" class="edge">
<title>TABL&#45;ADDRS_EMAIL_ADDRESS&#45;&gt;DTEL&#45;AD_TNEF6</title>
<path fill="none" stroke="black" d="M1065.12,-287.91C1058.34,-278.01 1050.77,-264.96 1047.26,-252 1043.08,-236.56 1042.76,-231.35 1047.26,-216 1050.06,-206.45 1055.17,-196.98 1060.59,-188.76"/>
<polygon fill="black" stroke="black" points="1063.61,-190.56 1066.51,-180.37 1057.88,-186.52 1063.61,-190.56"/>
</g>
<!-- DTEL&#45;AD_ENCODE -->
<g id="node26" class="node">
<title>DTEL&#45;AD_ENCODE</title>
<g id="a_node26"><a xlink:href="./DTEL_AD_ENCODE.html" xlink:title="DTEL&#45;AD_ENCODE">
<polygon fill="none" stroke="yellow" points="1650.66,-252 1509.86,-252 1509.86,-216 1650.66,-216 1650.66,-252"/>
<text text-anchor="middle" x="1580.26" y="-229.8" font-family="Times,serif" font-size="14.00">DTEL&#45;AD_ENCODE</text>
</a>
</g>
</g>
<!-- TABL&#45;ADDRS_EMAIL_ADDRESS&#45;&gt;DTEL&#45;AD_ENCODE -->
<g id="edge5" class="edge">
<title>TABL&#45;ADDRS_EMAIL_ADDRESS&#45;&gt;DTEL&#45;AD_ENCODE</title>
<path fill="none" stroke="black" d="M1191.76,-293.5C1274.66,-284.46 1389.93,-270.57 1499.76,-252.18"/>
<polygon fill="black" stroke="black" points="1500.41,-255.62 1509.68,-250.51 1499.24,-248.72 1500.41,-255.62"/>
</g>
<!-- DTEL&#45;AD_SMTPAD2 -->
<g id="node28" class="node">
<title>DTEL&#45;AD_SMTPAD2</title>
<g id="a_node28"><a xlink:href="./DTEL_AD_SMTPAD2.html" xlink:title="DTEL&#45;AD_SMTPAD2">
<polygon fill="none" stroke="yellow" points="1816.18,-252 1668.35,-252 1668.35,-216 1816.18,-216 1816.18,-252"/>
<text text-anchor="middle" x="1742.26" y="-229.8" font-family="Times,serif" font-size="14.00">DTEL&#45;AD_SMTPAD2</text>
</a>
</g>
</g>
<!-- TABL&#45;ADDRS_EMAIL_ADDRESS&#45;&gt;DTEL&#45;AD_SMTPAD2 -->
<g id="edge4" class="edge">
<title>TABL&#45;ADDRS_EMAIL_ADDRESS&#45;&gt;DTEL&#45;AD_SMTPAD2</title>
<path fill="none" stroke="black" d="M1191.71,-298.39C1306.85,-290.83 1490.35,-276.42 1658.11,-252.08"/>
<polygon fill="black" stroke="black" points="1658.73,-255.52 1668.12,-250.61 1657.72,-248.6 1658.73,-255.52"/>
</g>
<!-- DTEL&#45;AD_SMTPADR -->
<g id="node30" class="node">
<title>DTEL&#45;AD_SMTPADR</title>
<g id="a_node30"><a xlink:href="./DTEL_AD_SMTPADR.html" xlink:title="DTEL&#45;AD_SMTPADR">
<polygon fill="none" stroke="yellow" points="1984.01,-252 1834.51,-252 1834.51,-216 1984.01,-216 1984.01,-252"/>
<text text-anchor="middle" x="1909.26" y="-229.8" font-family="Times,serif" font-size="14.00">DTEL&#45;AD_SMTPADR</text>
</a>
</g>
</g>
<!-- TABL&#45;ADDRS_EMAIL_ADDRESS&#45;&gt;DTEL&#45;AD_SMTPADR -->
<g id="edge3" class="edge">
<title>TABL&#45;ADDRS_EMAIL_ADDRESS&#45;&gt;DTEL&#45;AD_SMTPADR</title>
<path fill="none" stroke="black" d="M1191.68,-301.5C1336.31,-296.01 1594.22,-282.79 1824.01,-252.06"/>
<polygon fill="black" stroke="black" points="1824.8,-255.49 1834.24,-250.68 1823.86,-248.55 1824.8,-255.49"/>
</g>
<!-- DTEL&#45;AD_FLNOUSE -->
<g id="node32" class="node">
<title>DTEL&#45;AD_FLNOUSE</title>
<g id="a_node32"><a xlink:href="./DTEL_AD_FLNOUSE.html" xlink:title="DTEL&#45;AD_FLNOUSE">
<polygon fill="none" stroke="yellow" points="1202.39,-252 1056.13,-252 1056.13,-216 1202.39,-216 1202.39,-252"/>
<text text-anchor="middle" x="1129.26" y="-229.8" font-family="Times,serif" font-size="14.00">DTEL&#45;AD_FLNOUSE</text>
</a>
</g>
</g>
<!-- TABL&#45;ADDRS_EMAIL_ADDRESS&#45;&gt;DTEL&#45;AD_FLNOUSE -->
<g id="edge2" class="edge">
<title>TABL&#45;ADDRS_EMAIL_ADDRESS&#45;&gt;DTEL&#45;AD_FLNOUSE</title>
<path fill="none" stroke="black" d="M1090.87,-287.7C1096.86,-279.47 1104.14,-269.48 1110.74,-260.42"/>
<polygon fill="black" stroke="black" points="1113.74,-262.25 1116.8,-252.1 1108.08,-258.13 1113.74,-262.25"/>
</g>
<!-- DOMA&#45;AD_OP_CODE -->
<g id="node3" class="node">
<title>DOMA&#45;AD_OP_CODE</title>
<g id="a_node3"><a xlink:href="./DOMA_AD_OP_CODE.html" xlink:title="DOMA&#45;AD_OP_CODE">
<polygon fill="none" stroke="yellow" points="431.89,-36 278.63,-36 278.63,0 431.89,0 431.89,-36"/>
<text text-anchor="middle" x="355.26" y="-13.8" font-family="Times,serif" font-size="14.00">DOMA&#45;AD_OP_CODE</text>
</a>
</g>
</g>
<!-- DTEL&#45;AD_OP_CODE&#45;&gt;DOMA&#45;AD_OP_CODE -->
<g id="edge13" class="edge">
<title>DTEL&#45;AD_OP_CODE&#45;&gt;DOMA&#45;AD_OP_CODE</title>
<path fill="none" stroke="black" d="M358.27,-71.7C357.83,-63.98 357.3,-54.71 356.81,-46.11"/>
<polygon fill="black" stroke="black" points="360.3,-45.89 356.24,-36.1 353.31,-46.29 360.3,-45.89"/>
</g>
<!-- TABL&#45;ADDRS_COMMUNICATION_DATA_USAGE -->
<g id="node5" class="node">
<title>TABL&#45;ADDRS_COMMUNICATION_DATA_USAGE</title>
<g id="a_node5"><a xlink:href="./TABL_ADDRS_COMMUNICATION_DATA_USAGE.html" xlink:title="TABL&#45;ADDRS_COMMUNICATION_DATA_USAGE">
<polygon fill="none" stroke="yellow" points="962.01,-180 628.51,-180 628.51,-144 962.01,-144 962.01,-180"/>
<text text-anchor="middle" x="795.26" y="-157.8" font-family="Times,serif" font-size="14.00">TABL&#45;ADDRS_COMMUNICATION_DATA_USAGE</text>
</a>
</g>
</g>
<!-- TTYP&#45;ADDRT_COMMUNICATION_DATA_USAGE&#45;&gt;TABL&#45;ADDRS_COMMUNICATION_DATA_USAGE -->
<g id="edge14" class="edge">
<title>TTYP&#45;ADDRT_COMMUNICATION_DATA_USAGE&#45;&gt;TABL&#45;ADDRS_COMMUNICATION_DATA_USAGE</title>
<path fill="none" stroke="black" d="M796.01,-215.7C795.9,-207.98 795.77,-198.71 795.65,-190.11"/>
<polygon fill="black" stroke="black" points="799.15,-190.05 795.51,-180.1 792.15,-190.15 799.15,-190.05"/>
</g>
<!-- TABL&#45;ADDRS_COMMUNICATION_DATA_USAGE&#45;&gt;DTEL&#45;AD_OP_CODE -->
<g id="edge20" class="edge">
<title>TABL&#45;ADDRS_COMMUNICATION_DATA_USAGE&#45;&gt;DTEL&#45;AD_OP_CODE</title>
<path fill="none" stroke="black" d="M670.06,-143.99C604.85,-134.71 523.6,-122.5 442.44,-108.16"/>
<polygon fill="black" stroke="black" points="443,-104.71 432.54,-106.4 441.77,-111.6 443,-104.71"/>
</g>
<!-- TABL&#45;ADDRS_COMMUNICATION_DATA_USAGE&#45;&gt;DTEL&#45;ADDR_NODE_ID -->
<g id="edge19" class="edge">
<title>TABL&#45;ADDRS_COMMUNICATION_DATA_USAGE&#45;&gt;DTEL&#45;ADDR_NODE_ID</title>
<path fill="none" stroke="black" d="M731.26,-143.97C693.55,-133.93 645.69,-121.19 606.35,-110.72"/>
<polygon fill="black" stroke="black" points="607.11,-107.3 596.55,-108.11 605.31,-114.07 607.11,-107.3"/>
</g>
<!-- DTEL&#45;AD_CDEFUSE -->
<g id="node8" class="node">
<title>DTEL&#45;AD_CDEFUSE</title>
<g id="a_node8"><a xlink:href="./DTEL_AD_CDEFUSE.html" xlink:title="DTEL&#45;AD_CDEFUSE">
<polygon fill="none" stroke="yellow" points="936.12,-108 790.4,-108 790.4,-72 936.12,-72 936.12,-108"/>
<text text-anchor="middle" x="863.26" y="-85.8" font-family="Times,serif" font-size="14.00">DTEL&#45;AD_CDEFUSE</text>
</a>
</g>
</g>
<!-- TABL&#45;ADDRS_COMMUNICATION_DATA_USAGE&#45;&gt;DTEL&#45;AD_CDEFUSE -->
<g id="edge18" class="edge">
<title>TABL&#45;ADDRS_COMMUNICATION_DATA_USAGE&#45;&gt;DTEL&#45;AD_CDEFUSE</title>
<path fill="none" stroke="black" d="M812.07,-143.7C820.39,-135.14 830.57,-124.66 839.65,-115.3"/>
<polygon fill="black" stroke="black" points="842.19,-117.72 846.65,-108.1 837.17,-112.84 842.19,-117.72"/>
</g>
<!-- TABL&#45;ADDRS_COMMUNICATION_DATA_USAGE&#45;&gt;DTEL&#45;AD_VALFROM -->
<g id="edge17" class="edge">
<title>TABL&#45;ADDRS_COMMUNICATION_DATA_USAGE&#45;&gt;DTEL&#45;AD_VALFROM</title>
<path fill="none" stroke="black" d="M852.45,-143.97C885.85,-134.01 928.18,-121.41 963.16,-110.99"/>
<polygon fill="black" stroke="black" points="964.23,-114.32 972.82,-108.11 962.23,-107.61 964.23,-114.32"/>
</g>
<!-- TABL&#45;ADDRS_COMMUNICATION_DATA_USAGE&#45;&gt;DTEL&#45;AD_VALTO -->
<g id="edge16" class="edge">
<title>TABL&#45;ADDRS_COMMUNICATION_DATA_USAGE&#45;&gt;DTEL&#45;AD_VALTO</title>
<path fill="none" stroke="black" d="M909.88,-143.97C997.18,-130.99 1114.89,-113.5 1190.69,-102.23"/>
<polygon fill="black" stroke="black" points="1191.26,-105.68 1200.64,-100.75 1190.23,-98.76 1191.26,-105.68"/>
</g>
<!-- DTEL&#45;AD_CUSAGE -->
<g id="node14" class="node">
<title>DTEL&#45;AD_CUSAGE</title>
<g id="a_node14"><a xlink:href="./DTEL_AD_CUSAGE.html" xlink:title="DTEL&#45;AD_CUSAGE">
<polygon fill="none" stroke="yellow" points="771.89,-108 632.63,-108 632.63,-72 771.89,-72 771.89,-108"/>
<text text-anchor="middle" x="702.26" y="-85.8" font-family="Times,serif" font-size="14.00">DTEL&#45;AD_CUSAGE</text>
</a>
</g>
</g>
<!-- TABL&#45;ADDRS_COMMUNICATION_DATA_USAGE&#45;&gt;DTEL&#45;AD_CUSAGE -->
<g id="edge15" class="edge">
<title>TABL&#45;ADDRS_COMMUNICATION_DATA_USAGE&#45;&gt;DTEL&#45;AD_CUSAGE</title>
<path fill="none" stroke="black" d="M772.27,-143.7C760.45,-134.8 745.87,-123.82 733.08,-114.2"/>
<polygon fill="black" stroke="black" points="735.08,-111.32 724.99,-108.1 730.87,-116.91 735.08,-111.32"/>
</g>
<!-- DOMA&#45;ADDR_NODE_ID -->
<g id="node7" class="node">
<title>DOMA&#45;ADDR_NODE_ID</title>
<g id="a_node7"><a xlink:href="./DOMA_ADDR_NODE_ID.html" xlink:title="DOMA&#45;ADDR_NODE_ID">
<polygon fill="none" stroke="yellow" points="620.48,-36 450.04,-36 450.04,0 620.48,0 620.48,-36"/>
<text text-anchor="middle" x="535.26" y="-13.8" font-family="Times,serif" font-size="14.00">DOMA&#45;ADDR_NODE_ID</text>
</a>
</g>
</g>
<!-- DTEL&#45;ADDR_NODE_ID&#45;&gt;DOMA&#45;ADDR_NODE_ID -->
<g id="edge21" class="edge">
<title>DTEL&#45;ADDR_NODE_ID&#45;&gt;DOMA&#45;ADDR_NODE_ID</title>
<path fill="none" stroke="black" d="M533,-71.7C533.33,-63.98 533.73,-54.71 534.1,-46.11"/>
<polygon fill="black" stroke="black" points="537.6,-46.25 534.53,-36.1 530.6,-45.95 537.6,-46.25"/>
</g>
<!-- DOMA&#45;XFELD -->
<g id="node9" class="node">
<title>DOMA&#45;XFELD</title>
<g id="a_node9"><a xlink:href="./DOMA_XFELD.html" xlink:title="DOMA&#45;XFELD">
<polygon fill="none" stroke="yellow" points="1188.29,-36 1080.23,-36 1080.23,0 1188.29,0 1188.29,-36"/>
<text text-anchor="middle" x="1134.26" y="-13.8" font-family="Times,serif" font-size="14.00">DOMA&#45;XFELD</text>
</a>
</g>
</g>
<!-- DTEL&#45;AD_CDEFUSE&#45;&gt;DOMA&#45;XFELD -->
<g id="edge22" class="edge">
<title>DTEL&#45;AD_CDEFUSE&#45;&gt;DOMA&#45;XFELD</title>
<path fill="none" stroke="black" d="M931.24,-71.94C969.52,-62.27 1018.45,-49.81 1070.27,-36.24"/>
<polygon fill="black" stroke="black" points="1071.19,-39.62 1079.98,-33.7 1069.42,-32.85 1071.19,-39.62"/>
</g>
<!-- DOMA&#45;TIMESTMP -->
<g id="node11" class="node">
<title>DOMA&#45;TIMESTMP</title>
<g id="a_node11"><a xlink:href="./DOMA_TIMESTMP.html" xlink:title="DOMA&#45;TIMESTMP">
<polygon fill="none" stroke="yellow" points="1062.46,-36 928.06,-36 928.06,0 1062.46,0 1062.46,-36"/>
<text text-anchor="middle" x="995.26" y="-13.8" font-family="Times,serif" font-size="14.00">DOMA&#45;TIMESTMP</text>
</a>
</g>
</g>
<!-- DTEL&#45;AD_VALFROM&#45;&gt;DOMA&#45;TIMESTMP -->
<g id="edge23" class="edge">
<title>DTEL&#45;AD_VALFROM&#45;&gt;DOMA&#45;TIMESTMP</title>
<path fill="none" stroke="black" d="M1021.61,-71.7C1017.63,-63.73 1012.81,-54.1 1008.39,-45.26"/>
<polygon fill="black" stroke="black" points="1011.42,-43.48 1003.81,-36.1 1005.15,-46.61 1011.42,-43.48"/>
</g>
<!-- DOMA&#45;TIMESTAMP -->
<g id="node13" class="node">
<title>DOMA&#45;TIMESTAMP</title>
<g id="a_node13"><a xlink:href="./DOMA_TIMESTAMP.html" xlink:title="DOMA&#45;TIMESTAMP">
<polygon fill="none" stroke="yellow" points="1350.57,-36 1205.96,-36 1205.96,0 1350.57,0 1350.57,-36"/>
<text text-anchor="middle" x="1278.26" y="-13.8" font-family="Times,serif" font-size="14.00">DOMA&#45;TIMESTAMP</text>
</a>
</g>
</g>
<!-- DTEL&#45;AD_VALTO&#45;&gt;DOMA&#45;TIMESTAMP -->
<g id="edge24" class="edge">
<title>DTEL&#45;AD_VALTO&#45;&gt;DOMA&#45;TIMESTAMP</title>
<path fill="none" stroke="black" d="M1269.23,-71.7C1270.55,-63.98 1272.14,-54.71 1273.61,-46.11"/>
<polygon fill="black" stroke="black" points="1277.09,-46.55 1275.33,-36.1 1270.19,-45.37 1277.09,-46.55"/>
</g>
<!-- DOMA&#45;AD_CUSAGE -->
<g id="node15" class="node">
<title>DOMA&#45;AD_CUSAGE</title>
<g id="a_node15"><a xlink:href="./DOMA_AD_CUSAGE.html" xlink:title="DOMA&#45;AD_CUSAGE">
<polygon fill="none" stroke="yellow" points="785.39,-36 639.13,-36 639.13,0 785.39,0 785.39,-36"/>
<text text-anchor="middle" x="712.26" y="-13.8" font-family="Times,serif" font-size="14.00">DOMA&#45;AD_CUSAGE</text>
</a>
</g>
</g>
<!-- DTEL&#45;AD_CUSAGE&#45;&gt;DOMA&#45;AD_CUSAGE -->
<g id="edge25" class="edge">
<title>DTEL&#45;AD_CUSAGE&#45;&gt;DOMA&#45;AD_CUSAGE</title>
<path fill="none" stroke="black" d="M704.73,-71.7C705.83,-63.98 707.16,-54.71 708.39,-46.11"/>
<polygon fill="black" stroke="black" points="711.87,-46.5 709.82,-36.1 704.94,-45.51 711.87,-46.5"/>
</g>
<!-- TABL&#45;ADDRS_COMMUNICATION_DATA_NOTE -->
<g id="node17" class="node">
<title>TABL&#45;ADDRS_COMMUNICATION_DATA_NOTE</title>
<g id="a_node17"><a xlink:href="./TABL_ADDRS_COMMUNICATION_DATA_NOTE.html" xlink:title="TABL&#45;ADDRS_COMMUNICATION_DATA_NOTE">
<polygon fill="none" stroke="yellow" points="425.18,-180 101.35,-180 101.35,-144 425.18,-144 425.18,-180"/>
<text text-anchor="middle" x="263.26" y="-157.8" font-family="Times,serif" font-size="14.00">TABL&#45;ADDRS_COMMUNICATION_DATA_NOTE</text>
</a>
</g>
</g>
<!-- TTYP&#45;ADDRT_COMMUNICATION_DATA_NOTE&#45;&gt;TABL&#45;ADDRS_COMMUNICATION_DATA_NOTE -->
<g id="edge26" class="edge">
<title>TTYP&#45;ADDRT_COMMUNICATION_DATA_NOTE&#45;&gt;TABL&#45;ADDRS_COMMUNICATION_DATA_NOTE</title>
<path fill="none" stroke="black" d="M279.07,-215.7C276.73,-207.9 273.91,-198.51 271.31,-189.83"/>
<polygon fill="black" stroke="black" points="274.62,-188.68 268.39,-180.1 267.91,-190.69 274.62,-188.68"/>
</g>
<!-- TABL&#45;ADDRS_COMMUNICATION_DATA_NOTE&#45;&gt;DTEL&#45;AD_OP_CODE -->
<g id="edge29" class="edge">
<title>TABL&#45;ADDRS_COMMUNICATION_DATA_NOTE&#45;&gt;DTEL&#45;AD_OP_CODE</title>
<path fill="none" stroke="black" d="M286.99,-143.7C299.2,-134.8 314.25,-123.82 327.45,-114.2"/>
<polygon fill="black" stroke="black" points="329.79,-116.82 335.8,-108.1 325.66,-111.17 329.79,-116.82"/>
</g>
<!-- DTEL&#45;AD_REMARK2 -->
<g id="node18" class="node">
<title>DTEL&#45;AD_REMARK2</title>
<g id="a_node18"><a xlink:href="./DTEL_AD_REMARK2.html" xlink:title="DTEL&#45;AD_REMARK2">
<polygon fill="none" stroke="yellow" points="150.28,-108 0.24,-108 0.24,-72 150.28,-72 150.28,-108"/>
<text text-anchor="middle" x="75.26" y="-85.8" font-family="Times,serif" font-size="14.00">DTEL&#45;AD_REMARK2</text>
</a>
</g>
</g>
<!-- TABL&#45;ADDRS_COMMUNICATION_DATA_NOTE&#45;&gt;DTEL&#45;AD_REMARK2 -->
<g id="edge28" class="edge">
<title>TABL&#45;ADDRS_COMMUNICATION_DATA_NOTE&#45;&gt;DTEL&#45;AD_REMARK2</title>
<path fill="none" stroke="black" d="M217.27,-143.88C191.11,-134.14 158.18,-121.87 130.61,-111.61"/>
<polygon fill="black" stroke="black" points="131.69,-108.28 121.1,-108.07 129.25,-114.84 131.69,-108.28"/>
</g>
<!-- DTEL&#45;SPRAS -->
<g id="node20" class="node">
<title>DTEL&#45;SPRAS</title>
<g id="a_node20"><a xlink:href="./DTEL_SPRAS.html" xlink:title="DTEL&#45;SPRAS">
<polygon fill="none" stroke="green" points="267.98,-108 168.54,-108 168.54,-72 267.98,-72 267.98,-108"/>
<text text-anchor="middle" x="218.26" y="-85.8" font-family="Times,serif" font-size="14.00">DTEL&#45;SPRAS</text>
</a>
</g>
</g>
<!-- TABL&#45;ADDRS_COMMUNICATION_DATA_NOTE&#45;&gt;DTEL&#45;SPRAS -->
<g id="edge27" class="edge">
<title>TABL&#45;ADDRS_COMMUNICATION_DATA_NOTE&#45;&gt;DTEL&#45;SPRAS</title>
<path fill="none" stroke="black" d="M252.14,-143.7C246.91,-135.56 240.56,-125.69 234.78,-116.7"/>
<polygon fill="black" stroke="black" points="237.61,-114.62 229.26,-108.1 231.72,-118.41 237.61,-114.62"/>
</g>
<!-- DOMA&#45;TEXT50 -->
<g id="node19" class="node">
<title>DOMA&#45;TEXT50</title>
<g id="a_node19"><a xlink:href="./DOMA_TEXT50.html" xlink:title="DOMA&#45;TEXT50">
<polygon fill="none" stroke="yellow" points="131.95,-36 18.57,-36 18.57,0 131.95,0 131.95,-36"/>
<text text-anchor="middle" x="75.26" y="-13.8" font-family="Times,serif" font-size="14.00">DOMA&#45;TEXT50</text>
</a>
</g>
</g>
<!-- DTEL&#45;AD_REMARK2&#45;&gt;DOMA&#45;TEXT50 -->
<g id="edge30" class="edge">
<title>DTEL&#45;AD_REMARK2&#45;&gt;DOMA&#45;TEXT50</title>
<path fill="none" stroke="black" d="M75.26,-71.7C75.26,-63.98 75.26,-54.71 75.26,-46.11"/>
<polygon fill="black" stroke="black" points="78.76,-46.1 75.26,-36.1 71.76,-46.1 78.76,-46.1"/>
</g>
<!-- DOMA&#45;SPRAS -->
<g id="node21" class="node">
<title>DOMA&#45;SPRAS</title>
<g id="a_node21"><a xlink:href="./DOMA_SPRAS.html" xlink:title="DOMA&#45;SPRAS">
<polygon fill="none" stroke="green" points="260.48,-36 154.04,-36 154.04,0 260.48,0 260.48,-36"/>
<text text-anchor="middle" x="207.26" y="-13.8" font-family="Times,serif" font-size="14.00">DOMA&#45;SPRAS</text>
</a>
</g>
</g>
<!-- DTEL&#45;SPRAS&#45;&gt;DOMA&#45;SPRAS -->
<g id="edge31" class="edge">
<title>DTEL&#45;SPRAS&#45;&gt;DOMA&#45;SPRAS</title>
<path fill="none" stroke="black" d="M215.54,-71.7C214.33,-63.98 212.87,-54.71 211.52,-46.11"/>
<polygon fill="black" stroke="black" points="214.96,-45.44 209.95,-36.1 208.04,-46.53 214.96,-45.44"/>
</g>
<!-- DTEL&#45;ADDR_FIELDNAME -->
<g id="node23" class="node">
<title>DTEL&#45;ADDR_FIELDNAME</title>
<g id="a_node23"><a xlink:href="./DTEL_ADDR_FIELDNAME.html" xlink:title="DTEL&#45;ADDR_FIELDNAME">
<polygon fill="none" stroke="yellow" points="1477.21,-180 1293.31,-180 1293.31,-144 1477.21,-144 1477.21,-180"/>
<text text-anchor="middle" x="1385.26" y="-157.8" font-family="Times,serif" font-size="14.00">DTEL&#45;ADDR_FIELDNAME</text>
</a>
</g>
</g>
<!-- TTYP&#45;ADDRT_CHANGED_FIELDS&#45;&gt;DTEL&#45;ADDR_FIELDNAME -->
<g id="edge32" class="edge">
<title>TTYP&#45;ADDRT_CHANGED_FIELDS&#45;&gt;DTEL&#45;ADDR_FIELDNAME</title>
<path fill="none" stroke="black" d="M1377.73,-215.7C1378.83,-207.98 1380.16,-198.71 1381.39,-190.11"/>
<polygon fill="black" stroke="black" points="1384.87,-190.5 1382.82,-180.1 1377.94,-189.51 1384.87,-190.5"/>
</g>
<!-- DOMA&#45;ADDR_FIELDNAME -->
<g id="node24" class="node">
<title>DOMA&#45;ADDR_FIELDNAME</title>
<g id="a_node24"><a xlink:href="./DOMA_ADDR_FIELDNAME.html" xlink:title="DOMA&#45;ADDR_FIELDNAME">
<polygon fill="none" stroke="yellow" points="1540.71,-108 1349.81,-108 1349.81,-72 1540.71,-72 1540.71,-108"/>
<text text-anchor="middle" x="1445.26" y="-85.8" font-family="Times,serif" font-size="14.00">DOMA&#45;ADDR_FIELDNAME</text>
</a>
</g>
</g>
<!-- DTEL&#45;ADDR_FIELDNAME&#45;&gt;DOMA&#45;ADDR_FIELDNAME -->
<g id="edge33" class="edge">
<title>DTEL&#45;ADDR_FIELDNAME&#45;&gt;DOMA&#45;ADDR_FIELDNAME</title>
<path fill="none" stroke="black" d="M1400.09,-143.7C1407.29,-135.3 1416.06,-125.07 1423.95,-115.86"/>
<polygon fill="black" stroke="black" points="1426.75,-117.97 1430.6,-108.1 1421.43,-113.42 1426.75,-117.97"/>
</g>
<!-- DTEL&#45;AD_TNEF6&#45;&gt;DOMA&#45;XFELD -->
<g id="edge34" class="edge">
<title>DTEL&#45;AD_TNEF6&#45;&gt;DOMA&#45;XFELD</title>
<path fill="none" stroke="black" d="M1094.6,-143.73C1101.7,-133.78 1110.02,-120.74 1115.26,-108 1123.41,-88.18 1128.26,-64.39 1131.02,-46.39"/>
<polygon fill="black" stroke="black" points="1134.51,-46.66 1132.44,-36.27 1127.58,-45.69 1134.51,-46.66"/>
</g>
<!-- DOMA&#45;AD_ENCODE -->
<g id="node27" class="node">
<title>DOMA&#45;AD_ENCODE</title>
<g id="a_node27"><a xlink:href="./DOMA_AD_ENCODE.html" xlink:title="DOMA&#45;AD_ENCODE">
<polygon fill="none" stroke="yellow" points="1654.16,-180 1506.36,-180 1506.36,-144 1654.16,-144 1654.16,-180"/>
<text text-anchor="middle" x="1580.26" y="-157.8" font-family="Times,serif" font-size="14.00">DOMA&#45;AD_ENCODE</text>
</a>
</g>
</g>
<!-- DTEL&#45;AD_ENCODE&#45;&gt;DOMA&#45;AD_ENCODE -->
<g id="edge35" class="edge">
<title>DTEL&#45;AD_ENCODE&#45;&gt;DOMA&#45;AD_ENCODE</title>
<path fill="none" stroke="black" d="M1580.26,-215.7C1580.26,-207.98 1580.26,-198.71 1580.26,-190.11"/>
<polygon fill="black" stroke="black" points="1583.76,-190.1 1580.26,-180.1 1576.76,-190.1 1583.76,-190.1"/>
</g>
<!-- DOMA&#45;CHAR20 -->
<g id="node29" class="node">
<title>DOMA&#45;CHAR20</title>
<g id="a_node29"><a xlink:href="./DOMA_CHAR20.html" xlink:title="DOMA&#45;CHAR20">
<polygon fill="none" stroke="yellow" points="1800.57,-180 1683.95,-180 1683.95,-144 1800.57,-144 1800.57,-180"/>
<text text-anchor="middle" x="1742.26" y="-157.8" font-family="Times,serif" font-size="14.00">DOMA&#45;CHAR20</text>
</a>
</g>
</g>
<!-- DTEL&#45;AD_SMTPAD2&#45;&gt;DOMA&#45;CHAR20 -->
<g id="edge36" class="edge">
<title>DTEL&#45;AD_SMTPAD2&#45;&gt;DOMA&#45;CHAR20</title>
<path fill="none" stroke="black" d="M1742.26,-215.7C1742.26,-207.98 1742.26,-198.71 1742.26,-190.11"/>
<polygon fill="black" stroke="black" points="1745.76,-190.1 1742.26,-180.1 1738.76,-190.1 1745.76,-190.1"/>
</g>
<!-- DOMA&#45;AD_SMTPADR -->
<g id="node31" class="node">
<title>DOMA&#45;AD_SMTPADR</title>
<g id="a_node31"><a xlink:href="./DOMA_AD_SMTPADR.html" xlink:title="DOMA&#45;AD_SMTPADR">
<polygon fill="none" stroke="yellow" points="1987.51,-180 1831.01,-180 1831.01,-144 1987.51,-144 1987.51,-180"/>
<text text-anchor="middle" x="1909.26" y="-157.8" font-family="Times,serif" font-size="14.00">DOMA&#45;AD_SMTPADR</text>
</a>
</g>
</g>
<!-- DTEL&#45;AD_SMTPADR&#45;&gt;DOMA&#45;AD_SMTPADR -->
<g id="edge37" class="edge">
<title>DTEL&#45;AD_SMTPADR&#45;&gt;DOMA&#45;AD_SMTPADR</title>
<path fill="none" stroke="black" d="M1909.26,-215.7C1909.26,-207.98 1909.26,-198.71 1909.26,-190.11"/>
<polygon fill="black" stroke="black" points="1912.76,-190.1 1909.26,-180.1 1905.76,-190.1 1912.76,-190.1"/>
</g>
<!-- DTEL&#45;AD_FLNOUSE&#45;&gt;DOMA&#45;XFELD -->
<g id="edge38" class="edge">
<title>DTEL&#45;AD_FLNOUSE&#45;&gt;DOMA&#45;XFELD</title>
<path fill="none" stroke="black" d="M1139.21,-215.98C1144.53,-205.89 1150.53,-192.64 1153.26,-180 1163.29,-133.53 1151.82,-78.29 1142.84,-46.09"/>
<polygon fill="black" stroke="black" points="1146.09,-44.72 1139.93,-36.1 1139.37,-46.68 1146.09,-44.72"/>
</g>
</g>
</svg>
