<?xml version="1.0" encoding="UTF-8" standalone="no"?>
<!DOCTYPE svg PUBLIC "-//W3C//DTD SVG 1.1//EN"
 "http://www.w3.org/Graphics/SVG/1.1/DTD/svg11.dtd">
<!-- Generated by graphviz version 2.47.3 (20210619.1520)
 -->
<!-- Title: G Pages: 1 -->
<svg width="422pt" height="116pt"
 viewBox="0.00 0.00 421.97 116.00" xmlns="http://www.w3.org/2000/svg" xmlns:xlink="http://www.w3.org/1999/xlink">
<g id="graph0" class="graph" transform="scale(1 1) rotate(0) translate(4 112)">
<title>G</title>
<polygon fill="white" stroke="transparent" points="-4,4 -4,-112 417.97,-112 417.97,4 -4,4"/>
<!-- TABL&#45;FDT_S_AMOUNT -->
<g id="node1" class="node">
<title>TABL&#45;FDT_S_AMOUNT</title>
<polygon fill="none" stroke="yellow" points="274.4,-108 107.69,-108 107.69,-72 274.4,-72 274.4,-108"/>
<text text-anchor="middle" x="191.04" y="-85.8" font-family="Times,serif" font-size="14.00">TABL&#45;FDT_S_AMOUNT</text>
</g>
<!-- DTEL&#45;FDT_CURRENCY -->
<g id="node2" class="node">
<title>DTEL&#45;FDT_CURRENCY</title>
<g id="a_node2"><a xlink:href="./DTEL_FDT_CURRENCY.html" xlink:title="DTEL&#45;FDT_CURRENCY">
<polygon fill="none" stroke="yellow" points="166.13,-36 -0.04,-36 -0.04,0 166.13,0 166.13,-36"/>
<text text-anchor="middle" x="83.04" y="-13.8" font-family="Times,serif" font-size="14.00">DTEL&#45;FDT_CURRENCY</text>
</a>
</g>
</g>
<!-- TABL&#45;FDT_S_AMOUNT&#45;&gt;DTEL&#45;FDT_CURRENCY -->
<g id="edge2" class="edge">
<title>TABL&#45;FDT_S_AMOUNT&#45;&gt;DTEL&#45;FDT_CURRENCY</title>
<path fill="none" stroke="black" d="M164.62,-71.88C150.63,-62.81 133.27,-51.55 118.16,-41.76"/>
<polygon fill="black" stroke="black" points="119.86,-38.69 109.56,-36.19 116.05,-44.57 119.86,-38.69"/>
</g>
<!-- DTEL&#45;FDT_NUMBER_DECFLOAT -->
<g id="node3" class="node">
<title>DTEL&#45;FDT_NUMBER_DECFLOAT</title>
<g id="a_node3"><a xlink:href="./DTEL_FDT_NUMBER_DECFLOAT.html" xlink:title="DTEL&#45;FDT_NUMBER_DECFLOAT">
<polygon fill="none" stroke="yellow" points="413.89,-36 184.2,-36 184.2,0 413.89,0 413.89,-36"/>
<text text-anchor="middle" x="299.04" y="-13.8" font-family="Times,serif" font-size="14.00">DTEL&#45;FDT_NUMBER_DECFLOAT</text>
</a>
</g>
</g>
<!-- TABL&#45;FDT_S_AMOUNT&#45;&gt;DTEL&#45;FDT_NUMBER_DECFLOAT -->
<g id="edge1" class="edge">
<title>TABL&#45;FDT_S_AMOUNT&#45;&gt;DTEL&#45;FDT_NUMBER_DECFLOAT</title>
<path fill="none" stroke="black" d="M217.46,-71.88C231.45,-62.81 248.82,-51.55 263.93,-41.76"/>
<polygon fill="black" stroke="black" points="266.03,-44.57 272.52,-36.19 262.23,-38.69 266.03,-44.57"/>
</g>
</g>
</svg>
