<?xml version="1.0" encoding="UTF-8" standalone="no"?>
<!DOCTYPE svg PUBLIC "-//W3C//DTD SVG 1.1//EN"
 "http://www.w3.org/Graphics/SVG/1.1/DTD/svg11.dtd">
<!-- Generated by graphviz version 2.47.3 (20210619.1520)
 -->
<!-- Title: G Pages: 1 -->
<svg width="213pt" height="188pt"
 viewBox="0.00 0.00 212.97 188.00" xmlns="http://www.w3.org/2000/svg" xmlns:xlink="http://www.w3.org/1999/xlink">
<g id="graph0" class="graph" transform="scale(1 1) rotate(0) translate(4 184)">
<title>G</title>
<polygon fill="white" stroke="transparent" points="-4,4 -4,-184 208.97,-184 208.97,4 -4,4"/>
<!-- TABL&#45;/IWCOR/REST_ETAG_S -->
<g id="node1" class="node">
<title>TABL&#45;/IWCOR/REST_ETAG_S</title>
<polygon fill="none" stroke="yellow" points="204.96,-180 0.01,-180 0.01,-144 204.96,-144 204.96,-180"/>
<text text-anchor="middle" x="102.49" y="-157.8" font-family="Times,serif" font-size="14.00">TABL&#45;/IWCOR/REST_ETAG_S</text>
</g>
<!-- DTEL&#45;BOOLE_D -->
<g id="node2" class="node">
<title>DTEL&#45;BOOLE_D</title>
<g id="a_node2"><a xlink:href="./DTEL_BOOLE_D.html" xlink:title="DTEL&#45;BOOLE_D">
<polygon fill="none" stroke="yellow" points="162.67,-108 42.3,-108 42.3,-72 162.67,-72 162.67,-108"/>
<text text-anchor="middle" x="102.49" y="-85.8" font-family="Times,serif" font-size="14.00">DTEL&#45;BOOLE_D</text>
</a>
</g>
</g>
<!-- TABL&#45;/IWCOR/REST_ETAG_S&#45;&gt;DTEL&#45;BOOLE_D -->
<g id="edge1" class="edge">
<title>TABL&#45;/IWCOR/REST_ETAG_S&#45;&gt;DTEL&#45;BOOLE_D</title>
<path fill="none" stroke="black" d="M102.49,-143.7C102.49,-135.98 102.49,-126.71 102.49,-118.11"/>
<polygon fill="black" stroke="black" points="105.99,-118.1 102.49,-108.1 98.99,-118.1 105.99,-118.1"/>
</g>
<!-- DOMA&#45;BOOLE -->
<g id="node3" class="node">
<title>DOMA&#45;BOOLE</title>
<g id="a_node3"><a xlink:href="./DOMA_BOOLE.html" xlink:title="DOMA&#45;BOOLE">
<polygon fill="none" stroke="yellow" points="157.57,-36 47.41,-36 47.41,0 157.57,0 157.57,-36"/>
<text text-anchor="middle" x="102.49" y="-13.8" font-family="Times,serif" font-size="14.00">DOMA&#45;BOOLE</text>
</a>
</g>
</g>
<!-- DTEL&#45;BOOLE_D&#45;&gt;DOMA&#45;BOOLE -->
<g id="edge2" class="edge">
<title>DTEL&#45;BOOLE_D&#45;&gt;DOMA&#45;BOOLE</title>
<path fill="none" stroke="black" d="M102.49,-71.7C102.49,-63.98 102.49,-54.71 102.49,-46.11"/>
<polygon fill="black" stroke="black" points="105.99,-46.1 102.49,-36.1 98.99,-46.1 105.99,-46.1"/>
</g>
</g>
</svg>
