<?xml version="1.0" encoding="UTF-8" standalone="no"?>
<!DOCTYPE svg PUBLIC "-//W3C//DTD SVG 1.1//EN"
 "http://www.w3.org/Graphics/SVG/1.1/DTD/svg11.dtd">
<!-- Generated by graphviz version 2.47.3 (20210619.1520)
 -->
<!-- Title: G Pages: 1 -->
<svg width="3319pt" height="260pt"
 viewBox="0.00 0.00 3318.83 260.00" xmlns="http://www.w3.org/2000/svg" xmlns:xlink="http://www.w3.org/1999/xlink">
<g id="graph0" class="graph" transform="scale(1 1) rotate(0) translate(4 256)">
<title>G</title>
<polygon fill="white" stroke="transparent" points="-4,4 -4,-256 3314.83,-256 3314.83,4 -4,4"/>
<!-- TABL&#45;APS_IAM_W_BUCAPP -->
<g id="node1" class="node">
<title>TABL&#45;APS_IAM_W_BUCAPP</title>
<polygon fill="none" stroke="yellow" points="2161.06,-252 1962.55,-252 1962.55,-216 2161.06,-216 2161.06,-252"/>
<text text-anchor="middle" x="2061.81" y="-229.8" font-family="Times,serif" font-size="14.00">TABL&#45;APS_IAM_W_BUCAPP</text>
</g>
<!-- TABL&#45;APS_IAM_ADMIN_DATA -->
<g id="node2" class="node">
<title>TABL&#45;APS_IAM_ADMIN_DATA</title>
<g id="a_node2"><a xlink:href="./TABL_APS_IAM_ADMIN_DATA.html" xlink:title="TABL&#45;APS_IAM_ADMIN_DATA">
<polygon fill="none" stroke="yellow" points="817.7,-180 599.91,-180 599.91,-144 817.7,-144 817.7,-180"/>
<text text-anchor="middle" x="708.81" y="-157.8" font-family="Times,serif" font-size="14.00">TABL&#45;APS_IAM_ADMIN_DATA</text>
</a>
</g>
</g>
<!-- TABL&#45;APS_IAM_W_BUCAPP&#45;&gt;TABL&#45;APS_IAM_ADMIN_DATA -->
<g id="edge9" class="edge">
<title>TABL&#45;APS_IAM_W_BUCAPP&#45;&gt;TABL&#45;APS_IAM_ADMIN_DATA</title>
<path fill="none" stroke="black" d="M1962.34,-228.91C1768.7,-220.81 1327.57,-201.6 956.81,-180 914.71,-177.55 868.63,-174.49 827.73,-171.65"/>
<polygon fill="black" stroke="black" points="827.95,-168.16 817.73,-170.95 827.46,-175.14 827.95,-168.16"/>
</g>
<!-- DTEL&#45;ABAP_LANGUAGE_VERSION -->
<g id="node9" class="node">
<title>DTEL&#45;ABAP_LANGUAGE_VERSION</title>
<g id="a_node9"><a xlink:href="./DTEL_ABAP_LANGUAGE_VERSION.html" xlink:title="DTEL&#45;ABAP_LANGUAGE_VERSION">
<polygon fill="none" stroke="yellow" points="1211.96,-180 965.65,-180 965.65,-144 1211.96,-144 1211.96,-180"/>
<text text-anchor="middle" x="1088.81" y="-157.8" font-family="Times,serif" font-size="14.00">DTEL&#45;ABAP_LANGUAGE_VERSION</text>
</a>
</g>
</g>
<!-- TABL&#45;APS_IAM_W_BUCAPP&#45;&gt;DTEL&#45;ABAP_LANGUAGE_VERSION -->
<g id="edge8" class="edge">
<title>TABL&#45;APS_IAM_W_BUCAPP&#45;&gt;DTEL&#45;ABAP_LANGUAGE_VERSION</title>
<path fill="none" stroke="black" d="M1962.28,-228.83C1806.62,-221.84 1495.92,-206.01 1222.22,-180.1"/>
<polygon fill="black" stroke="black" points="1222.38,-176.6 1212.09,-179.13 1221.71,-183.57 1222.38,-176.6"/>
</g>
<!-- DTEL&#45;APS_IAM_BU_CATALOG_APP_CHIP_ID -->
<g id="node11" class="node">
<title>DTEL&#45;APS_IAM_BU_CATALOG_APP_CHIP_ID</title>
<g id="a_node11"><a xlink:href="./DTEL_APS_IAM_BU_CATALOG_APP_CHIP_ID.html" xlink:title="DTEL&#45;APS_IAM_BU_CATALOG_APP_CHIP_ID">
<polygon fill="none" stroke="yellow" points="1539.75,-180 1229.86,-180 1229.86,-144 1539.75,-144 1539.75,-180"/>
<text text-anchor="middle" x="1384.81" y="-157.8" font-family="Times,serif" font-size="14.00">DTEL&#45;APS_IAM_BU_CATALOG_APP_CHIP_ID</text>
</a>
</g>
</g>
<!-- TABL&#45;APS_IAM_W_BUCAPP&#45;&gt;DTEL&#45;APS_IAM_BU_CATALOG_APP_CHIP_ID -->
<g id="edge7" class="edge">
<title>TABL&#45;APS_IAM_W_BUCAPP&#45;&gt;DTEL&#45;APS_IAM_BU_CATALOG_APP_CHIP_ID</title>
<path fill="none" stroke="black" d="M1962.5,-222.75C1861.48,-212.32 1700.09,-195.65 1550.07,-180.13"/>
<polygon fill="black" stroke="black" points="1550.06,-176.61 1539.75,-179.06 1549.34,-183.57 1550.06,-176.61"/>
</g>
<!-- DTEL&#45;APS_IAM_BU_CATALOG_APP_CHANGEG -->
<g id="node12" class="node">
<title>DTEL&#45;APS_IAM_BU_CATALOG_APP_CHANGEG</title>
<g id="a_node12"><a xlink:href="./DTEL_APS_IAM_BU_CATALOG_APP_CHANGEG.html" xlink:title="DTEL&#45;APS_IAM_BU_CATALOG_APP_CHANGEG">
<polygon fill="none" stroke="yellow" points="1882.02,-180 1557.59,-180 1557.59,-144 1882.02,-144 1882.02,-180"/>
<text text-anchor="middle" x="1719.81" y="-157.8" font-family="Times,serif" font-size="14.00">DTEL&#45;APS_IAM_BU_CATALOG_APP_CHANGEG</text>
</a>
</g>
</g>
<!-- TABL&#45;APS_IAM_W_BUCAPP&#45;&gt;DTEL&#45;APS_IAM_BU_CATALOG_APP_CHANGEG -->
<g id="edge6" class="edge">
<title>TABL&#45;APS_IAM_W_BUCAPP&#45;&gt;DTEL&#45;APS_IAM_BU_CATALOG_APP_CHANGEG</title>
<path fill="none" stroke="black" d="M1978.58,-215.97C1928.52,-205.72 1864.69,-192.66 1812.95,-182.07"/>
<polygon fill="black" stroke="black" points="1813.61,-178.63 1803.11,-180.05 1812.2,-185.48 1813.61,-178.63"/>
</g>
<!-- DTEL&#45;APS_IAM_BU_CATALOG_APP_CHANGEC -->
<g id="node14" class="node">
<title>DTEL&#45;APS_IAM_BU_CATALOG_APP_CHANGEC</title>
<g id="a_node14"><a xlink:href="./DTEL_APS_IAM_BU_CATALOG_APP_CHANGEC.html" xlink:title="DTEL&#45;APS_IAM_BU_CATALOG_APP_CHANGEC">
<polygon fill="none" stroke="yellow" points="2223.75,-180 1899.86,-180 1899.86,-144 2223.75,-144 2223.75,-180"/>
<text text-anchor="middle" x="2061.81" y="-157.8" font-family="Times,serif" font-size="14.00">DTEL&#45;APS_IAM_BU_CATALOG_APP_CHANGEC</text>
</a>
</g>
</g>
<!-- TABL&#45;APS_IAM_W_BUCAPP&#45;&gt;DTEL&#45;APS_IAM_BU_CATALOG_APP_CHANGEC -->
<g id="edge5" class="edge">
<title>TABL&#45;APS_IAM_W_BUCAPP&#45;&gt;DTEL&#45;APS_IAM_BU_CATALOG_APP_CHANGEC</title>
<path fill="none" stroke="black" d="M2061.81,-215.7C2061.81,-207.98 2061.81,-198.71 2061.81,-190.11"/>
<polygon fill="black" stroke="black" points="2065.31,-190.1 2061.81,-180.1 2058.31,-190.1 2065.31,-190.1"/>
</g>
<!-- DTEL&#45;APS_IAM_BU_CATALOG_APP_CHANGER -->
<g id="node15" class="node">
<title>DTEL&#45;APS_IAM_BU_CATALOG_APP_CHANGER</title>
<g id="a_node15"><a xlink:href="./DTEL_APS_IAM_BU_CATALOG_APP_CHANGER.html" xlink:title="DTEL&#45;APS_IAM_BU_CATALOG_APP_CHANGER">
<polygon fill="none" stroke="yellow" points="2565.75,-180 2241.86,-180 2241.86,-144 2565.75,-144 2565.75,-180"/>
<text text-anchor="middle" x="2403.81" y="-157.8" font-family="Times,serif" font-size="14.00">DTEL&#45;APS_IAM_BU_CATALOG_APP_CHANGER</text>
</a>
</g>
</g>
<!-- TABL&#45;APS_IAM_W_BUCAPP&#45;&gt;DTEL&#45;APS_IAM_BU_CATALOG_APP_CHANGER -->
<g id="edge4" class="edge">
<title>TABL&#45;APS_IAM_W_BUCAPP&#45;&gt;DTEL&#45;APS_IAM_BU_CATALOG_APP_CHANGER</title>
<path fill="none" stroke="black" d="M2145.03,-215.97C2195.09,-205.72 2258.92,-192.66 2310.66,-182.07"/>
<polygon fill="black" stroke="black" points="2311.41,-185.48 2320.5,-180.05 2310,-178.63 2311.41,-185.48"/>
</g>
<!-- DTEL&#45;APS_IAM_APP_ID -->
<g id="node16" class="node">
<title>DTEL&#45;APS_IAM_APP_ID</title>
<g id="a_node16"><a xlink:href="./DTEL_APS_IAM_APP_ID.html" xlink:title="DTEL&#45;APS_IAM_APP_ID">
<polygon fill="none" stroke="yellow" points="2754.05,-180 2583.56,-180 2583.56,-144 2754.05,-144 2754.05,-180"/>
<text text-anchor="middle" x="2668.81" y="-157.8" font-family="Times,serif" font-size="14.00">DTEL&#45;APS_IAM_APP_ID</text>
</a>
</g>
</g>
<!-- TABL&#45;APS_IAM_W_BUCAPP&#45;&gt;DTEL&#45;APS_IAM_APP_ID -->
<g id="edge3" class="edge">
<title>TABL&#45;APS_IAM_W_BUCAPP&#45;&gt;DTEL&#45;APS_IAM_APP_ID</title>
<path fill="none" stroke="black" d="M2161.38,-224.97C2262.62,-216.29 2424.18,-201.02 2573.29,-180.16"/>
<polygon fill="black" stroke="black" points="2574.13,-183.57 2583.54,-178.71 2573.15,-176.64 2574.13,-183.57"/>
</g>
<!-- DTEL&#45;APS_IAM_BU_CATALOG_ID -->
<g id="node18" class="node">
<title>DTEL&#45;APS_IAM_BU_CATALOG_ID</title>
<g id="a_node18"><a xlink:href="./DTEL_APS_IAM_BU_CATALOG_ID.html" xlink:title="DTEL&#45;APS_IAM_BU_CATALOG_ID">
<polygon fill="none" stroke="yellow" points="3011.19,-180 2772.42,-180 2772.42,-144 3011.19,-144 3011.19,-180"/>
<text text-anchor="middle" x="2891.81" y="-157.8" font-family="Times,serif" font-size="14.00">DTEL&#45;APS_IAM_BU_CATALOG_ID</text>
</a>
</g>
</g>
<!-- TABL&#45;APS_IAM_W_BUCAPP&#45;&gt;DTEL&#45;APS_IAM_BU_CATALOG_ID -->
<g id="edge2" class="edge">
<title>TABL&#45;APS_IAM_W_BUCAPP&#45;&gt;DTEL&#45;APS_IAM_BU_CATALOG_ID</title>
<path fill="none" stroke="black" d="M2161.21,-227.23C2295.16,-219.06 2541.25,-202.68 2762.18,-180.03"/>
<polygon fill="black" stroke="black" points="2762.77,-183.49 2772.35,-178.98 2762.05,-176.52 2762.77,-183.49"/>
</g>
<!-- DTEL&#45;APS_IAM_BU_CATALOG_APP_ID -->
<g id="node20" class="node">
<title>DTEL&#45;APS_IAM_BU_CATALOG_APP_ID</title>
<g id="a_node20"><a xlink:href="./DTEL_APS_IAM_BU_CATALOG_APP_ID.html" xlink:title="DTEL&#45;APS_IAM_BU_CATALOG_APP_ID">
<polygon fill="none" stroke="yellow" points="3304.36,-180 3033.25,-180 3033.25,-144 3304.36,-144 3304.36,-180"/>
<text text-anchor="middle" x="3168.81" y="-157.8" font-family="Times,serif" font-size="14.00">DTEL&#45;APS_IAM_BU_CATALOG_APP_ID</text>
</a>
</g>
</g>
<!-- TABL&#45;APS_IAM_W_BUCAPP&#45;&gt;DTEL&#45;APS_IAM_BU_CATALOG_APP_ID -->
<g id="edge1" class="edge">
<title>TABL&#45;APS_IAM_W_BUCAPP&#45;&gt;DTEL&#45;APS_IAM_BU_CATALOG_APP_ID</title>
<path fill="none" stroke="black" d="M2161.24,-229.41C2335.41,-222.7 2706.93,-206.48 3019.81,-180 3020.91,-179.91 3022.01,-179.81 3023.13,-179.72"/>
<polygon fill="black" stroke="black" points="3023.57,-183.19 3033.22,-178.81 3022.95,-176.22 3023.57,-183.19"/>
</g>
<!-- DTEL&#45;APS_IAM_TIMESTAMP_CHANGED -->
<g id="node3" class="node">
<title>DTEL&#45;APS_IAM_TIMESTAMP_CHANGED</title>
<g id="a_node3"><a xlink:href="./DTEL_APS_IAM_TIMESTAMP_CHANGED.html" xlink:title="DTEL&#45;APS_IAM_TIMESTAMP_CHANGED">
<polygon fill="none" stroke="yellow" points="279.42,-108 0.19,-108 0.19,-72 279.42,-72 279.42,-108"/>
<text text-anchor="middle" x="139.81" y="-85.8" font-family="Times,serif" font-size="14.00">DTEL&#45;APS_IAM_TIMESTAMP_CHANGED</text>
</a>
</g>
</g>
<!-- TABL&#45;APS_IAM_ADMIN_DATA&#45;&gt;DTEL&#45;APS_IAM_TIMESTAMP_CHANGED -->
<g id="edge13" class="edge">
<title>TABL&#45;APS_IAM_ADMIN_DATA&#45;&gt;DTEL&#45;APS_IAM_TIMESTAMP_CHANGED</title>
<path fill="none" stroke="black" d="M600.11,-147.63C511.62,-136.74 385.81,-121.26 288.08,-109.24"/>
<polygon fill="black" stroke="black" points="288.46,-105.76 278.11,-108.01 287.61,-112.71 288.46,-105.76"/>
</g>
<!-- DTEL&#45;APS_IAM_USER_CHANGED -->
<g id="node5" class="node">
<title>DTEL&#45;APS_IAM_USER_CHANGED</title>
<g id="a_node5"><a xlink:href="./DTEL_APS_IAM_USER_CHANGED.html" xlink:title="DTEL&#45;APS_IAM_USER_CHANGED">
<polygon fill="none" stroke="yellow" points="825.81,-108 591.8,-108 591.8,-72 825.81,-72 825.81,-108"/>
<text text-anchor="middle" x="708.81" y="-85.8" font-family="Times,serif" font-size="14.00">DTEL&#45;APS_IAM_USER_CHANGED</text>
</a>
</g>
</g>
<!-- TABL&#45;APS_IAM_ADMIN_DATA&#45;&gt;DTEL&#45;APS_IAM_USER_CHANGED -->
<g id="edge12" class="edge">
<title>TABL&#45;APS_IAM_ADMIN_DATA&#45;&gt;DTEL&#45;APS_IAM_USER_CHANGED</title>
<path fill="none" stroke="black" d="M708.81,-143.7C708.81,-135.98 708.81,-126.71 708.81,-118.11"/>
<polygon fill="black" stroke="black" points="712.31,-118.1 708.81,-108.1 705.31,-118.1 712.31,-118.1"/>
</g>
<!-- DTEL&#45;APS_IAM_TIMESTAMP_CREATED -->
<g id="node7" class="node">
<title>DTEL&#45;APS_IAM_TIMESTAMP_CREATED</title>
<g id="a_node7"><a xlink:href="./DTEL_APS_IAM_TIMESTAMP_CREATED.html" xlink:title="DTEL&#45;APS_IAM_TIMESTAMP_CREATED">
<polygon fill="none" stroke="yellow" points="573.54,-108 298.07,-108 298.07,-72 573.54,-72 573.54,-108"/>
<text text-anchor="middle" x="435.81" y="-85.8" font-family="Times,serif" font-size="14.00">DTEL&#45;APS_IAM_TIMESTAMP_CREATED</text>
</a>
</g>
</g>
<!-- TABL&#45;APS_IAM_ADMIN_DATA&#45;&gt;DTEL&#45;APS_IAM_TIMESTAMP_CREATED -->
<g id="edge11" class="edge">
<title>TABL&#45;APS_IAM_ADMIN_DATA&#45;&gt;DTEL&#45;APS_IAM_TIMESTAMP_CREATED</title>
<path fill="none" stroke="black" d="M642.37,-143.97C603.15,-133.91 553.34,-121.14 512.46,-110.65"/>
<polygon fill="black" stroke="black" points="513.09,-107.2 502.54,-108.11 511.35,-113.98 513.09,-107.2"/>
</g>
<!-- DTEL&#45;APS_IAM_USER_CREATED -->
<g id="node8" class="node">
<title>DTEL&#45;APS_IAM_USER_CREATED</title>
<g id="a_node8"><a xlink:href="./DTEL_APS_IAM_USER_CREATED.html" xlink:title="DTEL&#45;APS_IAM_USER_CREATED">
<polygon fill="none" stroke="yellow" points="1074.94,-108 844.67,-108 844.67,-72 1074.94,-72 1074.94,-108"/>
<text text-anchor="middle" x="959.81" y="-85.8" font-family="Times,serif" font-size="14.00">DTEL&#45;APS_IAM_USER_CREATED</text>
</a>
</g>
</g>
<!-- TABL&#45;APS_IAM_ADMIN_DATA&#45;&gt;DTEL&#45;APS_IAM_USER_CREATED -->
<g id="edge10" class="edge">
<title>TABL&#45;APS_IAM_ADMIN_DATA&#45;&gt;DTEL&#45;APS_IAM_USER_CREATED</title>
<path fill="none" stroke="black" d="M769.89,-143.97C805.72,-133.97 851.16,-121.3 888.61,-110.85"/>
<polygon fill="black" stroke="black" points="889.76,-114.17 898.45,-108.11 887.88,-107.43 889.76,-114.17"/>
</g>
<!-- DOMA&#45;TZNTSTMPS -->
<g id="node4" class="node">
<title>DOMA&#45;TZNTSTMPS</title>
<g id="a_node4"><a xlink:href="./DOMA_TZNTSTMPS.html" xlink:title="DOMA&#45;TZNTSTMPS">
<polygon fill="none" stroke="yellow" points="359.34,-36 216.27,-36 216.27,0 359.34,0 359.34,-36"/>
<text text-anchor="middle" x="287.81" y="-13.8" font-family="Times,serif" font-size="14.00">DOMA&#45;TZNTSTMPS</text>
</a>
</g>
</g>
<!-- DTEL&#45;APS_IAM_TIMESTAMP_CHANGED&#45;&gt;DOMA&#45;TZNTSTMPS -->
<g id="edge14" class="edge">
<title>DTEL&#45;APS_IAM_TIMESTAMP_CHANGED&#45;&gt;DOMA&#45;TZNTSTMPS</title>
<path fill="none" stroke="black" d="M176.01,-71.88C196.06,-62.39 221.18,-50.51 242.52,-40.42"/>
<polygon fill="black" stroke="black" points="244.17,-43.51 251.72,-36.07 241.18,-37.18 244.17,-43.51"/>
</g>
<!-- DOMA&#45;BNAME -->
<g id="node6" class="node">
<title>DOMA&#45;BNAME</title>
<g id="a_node6"><a xlink:href="./DOMA_BNAME.html" xlink:title="DOMA&#45;BNAME">
<polygon fill="none" stroke="yellow" points="890.78,-36 776.83,-36 776.83,0 890.78,0 890.78,-36"/>
<text text-anchor="middle" x="833.81" y="-13.8" font-family="Times,serif" font-size="14.00">DOMA&#45;BNAME</text>
</a>
</g>
</g>
<!-- DTEL&#45;APS_IAM_USER_CHANGED&#45;&gt;DOMA&#45;BNAME -->
<g id="edge15" class="edge">
<title>DTEL&#45;APS_IAM_USER_CHANGED&#45;&gt;DOMA&#45;BNAME</title>
<path fill="none" stroke="black" d="M739.38,-71.88C755.88,-62.64 776.43,-51.13 794.14,-41.21"/>
<polygon fill="black" stroke="black" points="796.09,-44.13 803.11,-36.19 792.67,-38.02 796.09,-44.13"/>
</g>
<!-- DTEL&#45;APS_IAM_TIMESTAMP_CREATED&#45;&gt;DOMA&#45;TZNTSTMPS -->
<g id="edge16" class="edge">
<title>DTEL&#45;APS_IAM_TIMESTAMP_CREATED&#45;&gt;DOMA&#45;TZNTSTMPS</title>
<path fill="none" stroke="black" d="M399.6,-71.88C379.55,-62.39 354.43,-50.51 333.09,-40.42"/>
<polygon fill="black" stroke="black" points="334.43,-37.18 323.89,-36.07 331.44,-43.51 334.43,-37.18"/>
</g>
<!-- DTEL&#45;APS_IAM_USER_CREATED&#45;&gt;DOMA&#45;BNAME -->
<g id="edge17" class="edge">
<title>DTEL&#45;APS_IAM_USER_CREATED&#45;&gt;DOMA&#45;BNAME</title>
<path fill="none" stroke="black" d="M928.98,-71.88C912.35,-62.64 891.64,-51.13 873.79,-41.21"/>
<polygon fill="black" stroke="black" points="875.19,-37.99 864.75,-36.19 871.79,-44.11 875.19,-37.99"/>
</g>
<!-- DOMA&#45;ABAP_LANGUAGE_VERSION -->
<g id="node10" class="node">
<title>DOMA&#45;ABAP_LANGUAGE_VERSION</title>
<g id="a_node10"><a xlink:href="./DOMA_ABAP_LANGUAGE_VERSION.html" xlink:title="DOMA&#45;ABAP_LANGUAGE_VERSION">
<polygon fill="none" stroke="yellow" points="1346.46,-108 1093.15,-108 1093.15,-72 1346.46,-72 1346.46,-108"/>
<text text-anchor="middle" x="1219.81" y="-85.8" font-family="Times,serif" font-size="14.00">DOMA&#45;ABAP_LANGUAGE_VERSION</text>
</a>
</g>
</g>
<!-- DTEL&#45;ABAP_LANGUAGE_VERSION&#45;&gt;DOMA&#45;ABAP_LANGUAGE_VERSION -->
<g id="edge18" class="edge">
<title>DTEL&#45;ABAP_LANGUAGE_VERSION&#45;&gt;DOMA&#45;ABAP_LANGUAGE_VERSION</title>
<path fill="none" stroke="black" d="M1120.85,-143.88C1138.3,-134.55 1160.07,-122.92 1178.75,-112.94"/>
<polygon fill="black" stroke="black" points="1180.47,-115.99 1187.64,-108.19 1177.17,-109.82 1180.47,-115.99"/>
</g>
<!-- DOMA&#45;APS_IAM_BU_CATALOG_CHANGE -->
<g id="node13" class="node">
<title>DOMA&#45;APS_IAM_BU_CATALOG_CHANGE</title>
<g id="a_node13"><a xlink:href="./DOMA_APS_IAM_BU_CATALOG_CHANGE.html" xlink:title="DOMA&#45;APS_IAM_BU_CATALOG_CHANGE">
<polygon fill="none" stroke="yellow" points="2206.24,-108 1917.37,-108 1917.37,-72 2206.24,-72 2206.24,-108"/>
<text text-anchor="middle" x="2061.81" y="-85.8" font-family="Times,serif" font-size="14.00">DOMA&#45;APS_IAM_BU_CATALOG_CHANGE</text>
</a>
</g>
</g>
<!-- DTEL&#45;APS_IAM_BU_CATALOG_APP_CHANGEG&#45;&gt;DOMA&#45;APS_IAM_BU_CATALOG_CHANGE -->
<g id="edge19" class="edge">
<title>DTEL&#45;APS_IAM_BU_CATALOG_APP_CHANGEG&#45;&gt;DOMA&#45;APS_IAM_BU_CATALOG_CHANGE</title>
<path fill="none" stroke="black" d="M1803.03,-143.97C1853.09,-133.72 1916.92,-120.66 1968.66,-110.07"/>
<polygon fill="black" stroke="black" points="1969.41,-113.48 1978.5,-108.05 1968,-106.63 1969.41,-113.48"/>
</g>
<!-- DTEL&#45;APS_IAM_BU_CATALOG_APP_CHANGEC&#45;&gt;DOMA&#45;APS_IAM_BU_CATALOG_CHANGE -->
<g id="edge20" class="edge">
<title>DTEL&#45;APS_IAM_BU_CATALOG_APP_CHANGEC&#45;&gt;DOMA&#45;APS_IAM_BU_CATALOG_CHANGE</title>
<path fill="none" stroke="black" d="M2061.81,-143.7C2061.81,-135.98 2061.81,-126.71 2061.81,-118.11"/>
<polygon fill="black" stroke="black" points="2065.31,-118.1 2061.81,-108.1 2058.31,-118.1 2065.31,-118.1"/>
</g>
<!-- DTEL&#45;APS_IAM_BU_CATALOG_APP_CHANGER&#45;&gt;DOMA&#45;APS_IAM_BU_CATALOG_CHANGE -->
<g id="edge21" class="edge">
<title>DTEL&#45;APS_IAM_BU_CATALOG_APP_CHANGER&#45;&gt;DOMA&#45;APS_IAM_BU_CATALOG_CHANGE</title>
<path fill="none" stroke="black" d="M2320.58,-143.97C2270.52,-133.72 2206.69,-120.66 2154.95,-110.07"/>
<polygon fill="black" stroke="black" points="2155.61,-106.63 2145.11,-108.05 2154.2,-113.48 2155.61,-106.63"/>
</g>
<!-- DOMA&#45;APS_IAM_APP_ID -->
<g id="node17" class="node">
<title>DOMA&#45;APS_IAM_APP_ID</title>
<g id="a_node17"><a xlink:href="./DOMA_APS_IAM_APP_ID.html" xlink:title="DOMA&#45;APS_IAM_APP_ID">
<polygon fill="none" stroke="yellow" points="2750.55,-108 2573.06,-108 2573.06,-72 2750.55,-72 2750.55,-108"/>
<text text-anchor="middle" x="2661.81" y="-85.8" font-family="Times,serif" font-size="14.00">DOMA&#45;APS_IAM_APP_ID</text>
</a>
</g>
</g>
<!-- DTEL&#45;APS_IAM_APP_ID&#45;&gt;DOMA&#45;APS_IAM_APP_ID -->
<g id="edge22" class="edge">
<title>DTEL&#45;APS_IAM_APP_ID&#45;&gt;DOMA&#45;APS_IAM_APP_ID</title>
<path fill="none" stroke="black" d="M2667.07,-143.7C2666.3,-135.98 2665.38,-126.71 2664.52,-118.11"/>
<polygon fill="black" stroke="black" points="2667.99,-117.71 2663.52,-108.1 2661.03,-118.4 2667.99,-117.71"/>
</g>
<!-- DOMA&#45;APS_IAM_BU_CATALOG_ID -->
<g id="node19" class="node">
<title>DOMA&#45;APS_IAM_BU_CATALOG_ID</title>
<g id="a_node19"><a xlink:href="./DOMA_APS_IAM_BU_CATALOG_ID.html" xlink:title="DOMA&#45;APS_IAM_BU_CATALOG_ID">
<polygon fill="none" stroke="yellow" points="3014.69,-108 2768.92,-108 2768.92,-72 3014.69,-72 3014.69,-108"/>
<text text-anchor="middle" x="2891.81" y="-85.8" font-family="Times,serif" font-size="14.00">DOMA&#45;APS_IAM_BU_CATALOG_ID</text>
</a>
</g>
</g>
<!-- DTEL&#45;APS_IAM_BU_CATALOG_ID&#45;&gt;DOMA&#45;APS_IAM_BU_CATALOG_ID -->
<g id="edge23" class="edge">
<title>DTEL&#45;APS_IAM_BU_CATALOG_ID&#45;&gt;DOMA&#45;APS_IAM_BU_CATALOG_ID</title>
<path fill="none" stroke="black" d="M2891.81,-143.7C2891.81,-135.98 2891.81,-126.71 2891.81,-118.11"/>
<polygon fill="black" stroke="black" points="2895.31,-118.1 2891.81,-108.1 2888.31,-118.1 2895.31,-118.1"/>
</g>
<!-- DOMA&#45;APS_IAM_BU_CATALOG_APP_ID -->
<g id="node21" class="node">
<title>DOMA&#45;APS_IAM_BU_CATALOG_APP_ID</title>
<g id="a_node21"><a xlink:href="./DOMA_APS_IAM_BU_CATALOG_APP_ID.html" xlink:title="DOMA&#45;APS_IAM_BU_CATALOG_APP_ID">
<polygon fill="none" stroke="yellow" points="3310.86,-108 3032.75,-108 3032.75,-72 3310.86,-72 3310.86,-108"/>
<text text-anchor="middle" x="3171.81" y="-85.8" font-family="Times,serif" font-size="14.00">DOMA&#45;APS_IAM_BU_CATALOG_APP_ID</text>
</a>
</g>
</g>
<!-- DTEL&#45;APS_IAM_BU_CATALOG_APP_ID&#45;&gt;DOMA&#45;APS_IAM_BU_CATALOG_APP_ID -->
<g id="edge24" class="edge">
<title>DTEL&#45;APS_IAM_BU_CATALOG_APP_ID&#45;&gt;DOMA&#45;APS_IAM_BU_CATALOG_APP_ID</title>
<path fill="none" stroke="black" d="M3169.55,-143.7C3169.88,-135.98 3170.27,-126.71 3170.64,-118.11"/>
<polygon fill="black" stroke="black" points="3174.14,-118.25 3171.07,-108.1 3167.15,-117.95 3174.14,-118.25"/>
</g>
</g>
</svg>
