<?xml version="1.0" encoding="UTF-8" standalone="no"?>
<!DOCTYPE svg PUBLIC "-//W3C//DTD SVG 1.1//EN"
 "http://www.w3.org/Graphics/SVG/1.1/DTD/svg11.dtd">
<!-- Generated by graphviz version 2.47.3 (20210619.1520)
 -->
<!-- Title: G Pages: 1 -->
<svg width="373pt" height="188pt"
 viewBox="0.00 0.00 373.02 188.00" xmlns="http://www.w3.org/2000/svg" xmlns:xlink="http://www.w3.org/1999/xlink">
<g id="graph0" class="graph" transform="scale(1 1) rotate(0) translate(4 184)">
<title>G</title>
<polygon fill="white" stroke="transparent" points="-4,4 -4,-184 369.02,-184 369.02,4 -4,4"/>
<!-- TABL&#45;SUID_ST_NODE_TECH_USER_DATA -->
<g id="node1" class="node">
<title>TABL&#45;SUID_ST_NODE_TECH_USER_DATA</title>
<polygon fill="none" stroke="yellow" points="324.98,-180 33.43,-180 33.43,-144 324.98,-144 324.98,-180"/>
<text text-anchor="middle" x="179.2" y="-157.8" font-family="Times,serif" font-size="14.00">TABL&#45;SUID_ST_NODE_TECH_USER_DATA</text>
</g>
<!-- DTEL&#45;SUIDTECHDESC -->
<g id="node2" class="node">
<title>DTEL&#45;SUIDTECHDESC</title>
<g id="a_node2"><a xlink:href="./DTEL_SUIDTECHDESC.html" xlink:title="DTEL&#45;SUIDTECHDESC">
<polygon fill="none" stroke="yellow" points="165.11,-108 3.3,-108 3.3,-72 165.11,-72 165.11,-108"/>
<text text-anchor="middle" x="84.2" y="-85.8" font-family="Times,serif" font-size="14.00">DTEL&#45;SUIDTECHDESC</text>
</a>
</g>
</g>
<!-- TABL&#45;SUID_ST_NODE_TECH_USER_DATA&#45;&gt;DTEL&#45;SUIDTECHDESC -->
<g id="edge2" class="edge">
<title>TABL&#45;SUID_ST_NODE_TECH_USER_DATA&#45;&gt;DTEL&#45;SUIDTECHDESC</title>
<path fill="none" stroke="black" d="M155.72,-143.7C143.64,-134.8 128.75,-123.82 115.69,-114.2"/>
<polygon fill="black" stroke="black" points="117.54,-111.22 107.42,-108.1 113.39,-116.85 117.54,-111.22"/>
</g>
<!-- DTEL&#45;SUIDRESPONSIBLE -->
<g id="node4" class="node">
<title>DTEL&#45;SUIDRESPONSIBLE</title>
<g id="a_node4"><a xlink:href="./DTEL_SUIDRESPONSIBLE.html" xlink:title="DTEL&#45;SUIDRESPONSIBLE">
<polygon fill="none" stroke="yellow" points="364.84,-108 183.57,-108 183.57,-72 364.84,-72 364.84,-108"/>
<text text-anchor="middle" x="274.2" y="-85.8" font-family="Times,serif" font-size="14.00">DTEL&#45;SUIDRESPONSIBLE</text>
</a>
</g>
</g>
<!-- TABL&#45;SUID_ST_NODE_TECH_USER_DATA&#45;&gt;DTEL&#45;SUIDRESPONSIBLE -->
<g id="edge1" class="edge">
<title>TABL&#45;SUID_ST_NODE_TECH_USER_DATA&#45;&gt;DTEL&#45;SUIDRESPONSIBLE</title>
<path fill="none" stroke="black" d="M202.69,-143.7C214.77,-134.8 229.66,-123.82 242.72,-114.2"/>
<polygon fill="black" stroke="black" points="245.02,-116.85 250.99,-108.1 240.86,-111.22 245.02,-116.85"/>
</g>
<!-- DOMA&#45;SUIDTECHDESC -->
<g id="node3" class="node">
<title>DOMA&#45;SUIDTECHDESC</title>
<g id="a_node3"><a xlink:href="./DOMA_SUIDTECHDESC.html" xlink:title="DOMA&#45;SUIDTECHDESC">
<polygon fill="none" stroke="yellow" points="168.61,-36 -0.2,-36 -0.2,0 168.61,0 168.61,-36"/>
<text text-anchor="middle" x="84.2" y="-13.8" font-family="Times,serif" font-size="14.00">DOMA&#45;SUIDTECHDESC</text>
</a>
</g>
</g>
<!-- DTEL&#45;SUIDTECHDESC&#45;&gt;DOMA&#45;SUIDTECHDESC -->
<g id="edge3" class="edge">
<title>DTEL&#45;SUIDTECHDESC&#45;&gt;DOMA&#45;SUIDTECHDESC</title>
<path fill="none" stroke="black" d="M84.2,-71.7C84.2,-63.98 84.2,-54.71 84.2,-46.11"/>
<polygon fill="black" stroke="black" points="87.7,-46.1 84.2,-36.1 80.7,-46.1 87.7,-46.1"/>
</g>
<!-- DOMA&#45;XUBNAME -->
<g id="node5" class="node">
<title>DOMA&#45;XUBNAME</title>
<g id="a_node5"><a xlink:href="./DOMA_XUBNAME.html" xlink:title="DOMA&#45;XUBNAME">
<polygon fill="none" stroke="yellow" points="341.39,-36 207.02,-36 207.02,0 341.39,0 341.39,-36"/>
<text text-anchor="middle" x="274.2" y="-13.8" font-family="Times,serif" font-size="14.00">DOMA&#45;XUBNAME</text>
</a>
</g>
</g>
<!-- DTEL&#45;SUIDRESPONSIBLE&#45;&gt;DOMA&#45;XUBNAME -->
<g id="edge4" class="edge">
<title>DTEL&#45;SUIDRESPONSIBLE&#45;&gt;DOMA&#45;XUBNAME</title>
<path fill="none" stroke="black" d="M274.2,-71.7C274.2,-63.98 274.2,-54.71 274.2,-46.11"/>
<polygon fill="black" stroke="black" points="277.7,-46.1 274.2,-36.1 270.7,-46.1 277.7,-46.1"/>
</g>
</g>
</svg>
