<?xml version="1.0" encoding="UTF-8" standalone="no"?>
<!DOCTYPE svg PUBLIC "-//W3C//DTD SVG 1.1//EN"
 "http://www.w3.org/Graphics/SVG/1.1/DTD/svg11.dtd">
<!-- Generated by graphviz version 2.47.3 (20210619.1520)
 -->
<!-- Title: G Pages: 1 -->
<svg width="438pt" height="188pt"
 viewBox="0.00 0.00 438.48 188.00" xmlns="http://www.w3.org/2000/svg" xmlns:xlink="http://www.w3.org/1999/xlink">
<g id="graph0" class="graph" transform="scale(1 1) rotate(0) translate(4 184)">
<title>G</title>
<polygon fill="white" stroke="transparent" points="-4,4 -4,-184 434.48,-184 434.48,4 -4,4"/>
<!-- TABL&#45;SUID_ST_NODE_GLOBALUID -->
<g id="node1" class="node">
<title>TABL&#45;SUID_ST_NODE_GLOBALUID</title>
<polygon fill="none" stroke="yellow" points="353.33,-180 105.92,-180 105.92,-144 353.33,-144 353.33,-180"/>
<text text-anchor="middle" x="229.63" y="-157.8" font-family="Times,serif" font-size="14.00">TABL&#45;SUID_ST_NODE_GLOBALUID</text>
</g>
<!-- DTEL&#45;SUID_NODE_KEY_HANDLE -->
<g id="node2" class="node">
<title>DTEL&#45;SUID_NODE_KEY_HANDLE</title>
<g id="a_node2"><a xlink:href="./DTEL_SUID_NODE_KEY_HANDLE.html" xlink:title="DTEL&#45;SUID_NODE_KEY_HANDLE">
<polygon fill="none" stroke="yellow" points="235.38,-108 -0.13,-108 -0.13,-72 235.38,-72 235.38,-108"/>
<text text-anchor="middle" x="117.63" y="-85.8" font-family="Times,serif" font-size="14.00">DTEL&#45;SUID_NODE_KEY_HANDLE</text>
</a>
</g>
</g>
<!-- TABL&#45;SUID_ST_NODE_GLOBALUID&#45;&gt;DTEL&#45;SUID_NODE_KEY_HANDLE -->
<g id="edge2" class="edge">
<title>TABL&#45;SUID_ST_NODE_GLOBALUID&#45;&gt;DTEL&#45;SUID_NODE_KEY_HANDLE</title>
<path fill="none" stroke="black" d="M202.23,-143.88C187.72,-134.81 169.71,-123.55 154.04,-113.76"/>
<polygon fill="black" stroke="black" points="155.46,-110.52 145.13,-108.19 151.75,-116.46 155.46,-110.52"/>
</g>
<!-- DTEL&#45;SUID_GLOBALUID -->
<g id="node3" class="node">
<title>DTEL&#45;SUID_GLOBALUID</title>
<g id="a_node3"><a xlink:href="./DTEL_SUID_GLOBALUID.html" xlink:title="DTEL&#45;SUID_GLOBALUID">
<polygon fill="none" stroke="yellow" points="430.34,-108 252.91,-108 252.91,-72 430.34,-72 430.34,-108"/>
<text text-anchor="middle" x="341.63" y="-85.8" font-family="Times,serif" font-size="14.00">DTEL&#45;SUID_GLOBALUID</text>
</a>
</g>
</g>
<!-- TABL&#45;SUID_ST_NODE_GLOBALUID&#45;&gt;DTEL&#45;SUID_GLOBALUID -->
<g id="edge1" class="edge">
<title>TABL&#45;SUID_ST_NODE_GLOBALUID&#45;&gt;DTEL&#45;SUID_GLOBALUID</title>
<path fill="none" stroke="black" d="M257.02,-143.88C271.53,-134.81 289.54,-123.55 305.21,-113.76"/>
<polygon fill="black" stroke="black" points="307.5,-116.46 314.12,-108.19 303.79,-110.52 307.5,-116.46"/>
</g>
<!-- DOMA&#45;SUID_UUID -->
<g id="node4" class="node">
<title>DOMA&#45;SUID_UUID</title>
<g id="a_node4"><a xlink:href="./DOMA_SUID_UUID.html" xlink:title="DOMA&#45;SUID_UUID">
<polygon fill="none" stroke="yellow" points="410.69,-36 272.56,-36 272.56,0 410.69,0 410.69,-36"/>
<text text-anchor="middle" x="341.63" y="-13.8" font-family="Times,serif" font-size="14.00">DOMA&#45;SUID_UUID</text>
</a>
</g>
</g>
<!-- DTEL&#45;SUID_GLOBALUID&#45;&gt;DOMA&#45;SUID_UUID -->
<g id="edge3" class="edge">
<title>DTEL&#45;SUID_GLOBALUID&#45;&gt;DOMA&#45;SUID_UUID</title>
<path fill="none" stroke="black" d="M341.63,-71.7C341.63,-63.98 341.63,-54.71 341.63,-46.11"/>
<polygon fill="black" stroke="black" points="345.13,-46.1 341.63,-36.1 338.13,-46.1 345.13,-46.1"/>
</g>
</g>
</svg>
