<?xml version="1.0" encoding="UTF-8" standalone="no"?>
<!DOCTYPE svg PUBLIC "-//W3C//DTD SVG 1.1//EN"
 "http://www.w3.org/Graphics/SVG/1.1/DTD/svg11.dtd">
<!-- Generated by graphviz version 2.47.3 (20210619.1520)
 -->
<!-- Title: G Pages: 1 -->
<svg width="635pt" height="188pt"
 viewBox="0.00 0.00 634.97 188.00" xmlns="http://www.w3.org/2000/svg" xmlns:xlink="http://www.w3.org/1999/xlink">
<g id="graph0" class="graph" transform="scale(1 1) rotate(0) translate(4 184)">
<title>G</title>
<polygon fill="white" stroke="transparent" points="-4,4 -4,-184 630.97,-184 630.97,4 -4,4"/>
<!-- TABL&#45;ISCAL_DAY -->
<g id="node1" class="node">
<title>TABL&#45;ISCAL_DAY</title>
<polygon fill="none" stroke="yellow" points="382.06,-180 247.13,-180 247.13,-144 382.06,-144 382.06,-180"/>
<text text-anchor="middle" x="314.59" y="-157.8" font-family="Times,serif" font-size="14.00">TABL&#45;ISCAL_DAY</text>
</g>
<!-- DTEL&#45;TEXTL_D -->
<g id="node2" class="node">
<title>DTEL&#45;TEXTL_D</title>
<g id="a_node2"><a xlink:href="./DTEL_TEXTL_D.html" xlink:title="DTEL&#45;TEXTL_D">
<polygon fill="none" stroke="yellow" points="121.44,-108 3.75,-108 3.75,-72 121.44,-72 121.44,-108"/>
<text text-anchor="middle" x="62.59" y="-85.8" font-family="Times,serif" font-size="14.00">DTEL&#45;TEXTL_D</text>
</a>
</g>
</g>
<!-- TABL&#45;ISCAL_DAY&#45;&gt;DTEL&#45;TEXTL_D -->
<g id="edge5" class="edge">
<title>TABL&#45;ISCAL_DAY&#45;&gt;DTEL&#45;TEXTL_D</title>
<path fill="none" stroke="black" d="M253.27,-143.97C216.49,-133.75 169.63,-120.73 131.56,-110.16"/>
<polygon fill="black" stroke="black" points="132.16,-106.69 121.58,-107.39 130.28,-113.43 132.16,-106.69"/>
</g>
<!-- DTEL&#45;TEXTK -->
<g id="node4" class="node">
<title>DTEL&#45;TEXTK</title>
<g id="a_node4"><a xlink:href="./DTEL_TEXTK.html" xlink:title="DTEL&#45;TEXTK">
<polygon fill="none" stroke="yellow" points="242.89,-108 140.3,-108 140.3,-72 242.89,-72 242.89,-108"/>
<text text-anchor="middle" x="191.59" y="-85.8" font-family="Times,serif" font-size="14.00">DTEL&#45;TEXTK</text>
</a>
</g>
</g>
<!-- TABL&#45;ISCAL_DAY&#45;&gt;DTEL&#45;TEXTK -->
<g id="edge4" class="edge">
<title>TABL&#45;ISCAL_DAY&#45;&gt;DTEL&#45;TEXTK</title>
<path fill="none" stroke="black" d="M284.51,-143.88C268.27,-134.64 248.05,-123.13 230.62,-113.21"/>
<polygon fill="black" stroke="black" points="232.22,-110.09 221.8,-108.19 228.76,-116.18 232.22,-110.09"/>
</g>
<!-- DTEL&#45;FTGID -->
<g id="node6" class="node">
<title>DTEL&#45;FTGID</title>
<g id="a_node6"><a xlink:href="./DTEL_FTGID.html" xlink:title="DTEL&#45;FTGID">
<polygon fill="none" stroke="yellow" points="363.23,-108 265.96,-108 265.96,-72 363.23,-72 363.23,-108"/>
<text text-anchor="middle" x="314.59" y="-85.8" font-family="Times,serif" font-size="14.00">DTEL&#45;FTGID</text>
</a>
</g>
</g>
<!-- TABL&#45;ISCAL_DAY&#45;&gt;DTEL&#45;FTGID -->
<g id="edge3" class="edge">
<title>TABL&#45;ISCAL_DAY&#45;&gt;DTEL&#45;FTGID</title>
<path fill="none" stroke="black" d="M314.59,-143.7C314.59,-135.98 314.59,-126.71 314.59,-118.11"/>
<polygon fill="black" stroke="black" points="318.09,-118.1 314.59,-108.1 311.09,-118.1 318.09,-118.1"/>
</g>
<!-- DTEL&#45;CIND -->
<g id="node8" class="node">
<title>DTEL&#45;CIND</title>
<g id="a_node8"><a xlink:href="./DTEL_CIND.html" xlink:title="DTEL&#45;CIND">
<polygon fill="none" stroke="yellow" points="477.73,-108 387.46,-108 387.46,-72 477.73,-72 477.73,-108"/>
<text text-anchor="middle" x="432.59" y="-85.8" font-family="Times,serif" font-size="14.00">DTEL&#45;CIND</text>
</a>
</g>
</g>
<!-- TABL&#45;ISCAL_DAY&#45;&gt;DTEL&#45;CIND -->
<g id="edge2" class="edge">
<title>TABL&#45;ISCAL_DAY&#45;&gt;DTEL&#45;CIND</title>
<path fill="none" stroke="black" d="M343.46,-143.88C358.89,-134.72 378.08,-123.34 394.69,-113.48"/>
<polygon fill="black" stroke="black" points="396.8,-116.3 403.62,-108.19 393.23,-110.28 396.8,-116.3"/>
</g>
<!-- DTEL&#45;SCDATUM -->
<g id="node10" class="node">
<title>DTEL&#45;SCDATUM</title>
<g id="a_node10"><a xlink:href="./DTEL_SCDATUM.html" xlink:title="DTEL&#45;SCDATUM">
<polygon fill="none" stroke="yellow" points="625.96,-108 501.23,-108 501.23,-72 625.96,-72 625.96,-108"/>
<text text-anchor="middle" x="563.59" y="-85.8" font-family="Times,serif" font-size="14.00">DTEL&#45;SCDATUM</text>
</a>
</g>
</g>
<!-- TABL&#45;ISCAL_DAY&#45;&gt;DTEL&#45;SCDATUM -->
<g id="edge1" class="edge">
<title>TABL&#45;ISCAL_DAY&#45;&gt;DTEL&#45;SCDATUM</title>
<path fill="none" stroke="black" d="M375.19,-143.97C410.74,-133.97 455.82,-121.3 492.97,-110.85"/>
<polygon fill="black" stroke="black" points="494.05,-114.19 502.73,-108.11 492.16,-107.45 494.05,-114.19"/>
</g>
<!-- DOMA&#45;TEXT30 -->
<g id="node3" class="node">
<title>DOMA&#45;TEXT30</title>
<g id="a_node3"><a xlink:href="./DOMA_TEXT30.html" xlink:title="DOMA&#45;TEXT30">
<polygon fill="none" stroke="yellow" points="113.28,-36 -0.09,-36 -0.09,0 113.28,0 113.28,-36"/>
<text text-anchor="middle" x="56.59" y="-13.8" font-family="Times,serif" font-size="14.00">DOMA&#45;TEXT30</text>
</a>
</g>
</g>
<!-- DTEL&#45;TEXTL_D&#45;&gt;DOMA&#45;TEXT30 -->
<g id="edge6" class="edge">
<title>DTEL&#45;TEXTL_D&#45;&gt;DOMA&#45;TEXT30</title>
<path fill="none" stroke="black" d="M61.11,-71.7C60.45,-63.98 59.66,-54.71 58.92,-46.11"/>
<polygon fill="black" stroke="black" points="62.4,-45.77 58.06,-36.1 55.43,-46.37 62.4,-45.77"/>
</g>
<!-- DOMA&#45;TEXT10 -->
<g id="node5" class="node">
<title>DOMA&#45;TEXT10</title>
<g id="a_node5"><a xlink:href="./DOMA_TEXT10.html" xlink:title="DOMA&#45;TEXT10">
<polygon fill="none" stroke="yellow" points="244.28,-36 130.91,-36 130.91,0 244.28,0 244.28,-36"/>
<text text-anchor="middle" x="187.59" y="-13.8" font-family="Times,serif" font-size="14.00">DOMA&#45;TEXT10</text>
</a>
</g>
</g>
<!-- DTEL&#45;TEXTK&#45;&gt;DOMA&#45;TEXT10 -->
<g id="edge7" class="edge">
<title>DTEL&#45;TEXTK&#45;&gt;DOMA&#45;TEXT10</title>
<path fill="none" stroke="black" d="M190.61,-71.7C190.17,-63.98 189.64,-54.71 189.14,-46.11"/>
<polygon fill="black" stroke="black" points="192.64,-45.89 188.57,-36.1 185.65,-46.29 192.64,-45.89"/>
</g>
<!-- DOMA&#45;FTGID -->
<g id="node7" class="node">
<title>DOMA&#45;FTGID</title>
<g id="a_node7"><a xlink:href="./DOMA_FTGID.html" xlink:title="DOMA&#45;FTGID">
<polygon fill="none" stroke="yellow" points="366.73,-36 262.46,-36 262.46,0 366.73,0 366.73,-36"/>
<text text-anchor="middle" x="314.59" y="-13.8" font-family="Times,serif" font-size="14.00">DOMA&#45;FTGID</text>
</a>
</g>
</g>
<!-- DTEL&#45;FTGID&#45;&gt;DOMA&#45;FTGID -->
<g id="edge8" class="edge">
<title>DTEL&#45;FTGID&#45;&gt;DOMA&#45;FTGID</title>
<path fill="none" stroke="black" d="M314.59,-71.7C314.59,-63.98 314.59,-54.71 314.59,-46.11"/>
<polygon fill="black" stroke="black" points="318.09,-46.1 314.59,-36.1 311.09,-46.1 318.09,-46.1"/>
</g>
<!-- DOMA&#45;CHAR1 -->
<g id="node9" class="node">
<title>DOMA&#45;CHAR1</title>
<g id="a_node9"><a xlink:href="./DOMA_CHAR1.html" xlink:title="DOMA&#45;CHAR1">
<polygon fill="none" stroke="green" points="494.41,-36 384.78,-36 384.78,0 494.41,0 494.41,-36"/>
<text text-anchor="middle" x="439.59" y="-13.8" font-family="Times,serif" font-size="14.00">DOMA&#45;CHAR1</text>
</a>
</g>
</g>
<!-- DTEL&#45;CIND&#45;&gt;DOMA&#45;CHAR1 -->
<g id="edge9" class="edge">
<title>DTEL&#45;CIND&#45;&gt;DOMA&#45;CHAR1</title>
<path fill="none" stroke="black" d="M434.33,-71.7C435.1,-63.98 436.02,-54.71 436.88,-46.11"/>
<polygon fill="black" stroke="black" points="440.37,-46.4 437.88,-36.1 433.41,-45.71 440.37,-46.4"/>
</g>
<!-- DOMA&#45;DATUM -->
<g id="node11" class="node">
<title>DOMA&#45;DATUM</title>
<g id="a_node11"><a xlink:href="./DOMA_DATUM.html" xlink:title="DOMA&#45;DATUM">
<polygon fill="none" stroke="yellow" points="626.84,-36 512.35,-36 512.35,0 626.84,0 626.84,-36"/>
<text text-anchor="middle" x="569.59" y="-13.8" font-family="Times,serif" font-size="14.00">DOMA&#45;DATUM</text>
</a>
</g>
</g>
<!-- DTEL&#45;SCDATUM&#45;&gt;DOMA&#45;DATUM -->
<g id="edge10" class="edge">
<title>DTEL&#45;SCDATUM&#45;&gt;DOMA&#45;DATUM</title>
<path fill="none" stroke="black" d="M565.08,-71.7C565.74,-63.98 566.53,-54.71 567.27,-46.11"/>
<polygon fill="black" stroke="black" points="570.76,-46.37 568.13,-36.1 563.79,-45.77 570.76,-46.37"/>
</g>
</g>
</svg>
