<?xml version="1.0" encoding="UTF-8" standalone="no"?>
<!DOCTYPE svg PUBLIC "-//W3C//DTD SVG 1.1//EN"
 "http://www.w3.org/Graphics/SVG/1.1/DTD/svg11.dtd">
<!-- Generated by graphviz version 2.47.3 (20210619.1520)
 -->
<!-- Title: G Pages: 1 -->
<svg width="1468pt" height="188pt"
 viewBox="0.00 0.00 1467.92 188.00" xmlns="http://www.w3.org/2000/svg" xmlns:xlink="http://www.w3.org/1999/xlink">
<g id="graph0" class="graph" transform="scale(1 1) rotate(0) translate(4 184)">
<title>G</title>
<polygon fill="white" stroke="transparent" points="-4,4 -4,-184 1463.92,-184 1463.92,4 -4,4"/>
<!-- TABL&#45;T006D -->
<g id="node1" class="node">
<title>TABL&#45;T006D</title>
<polygon fill="none" stroke="yellow" points="804.92,-180 708.18,-180 708.18,-144 804.92,-144 804.92,-180"/>
<text text-anchor="middle" x="756.55" y="-157.8" font-family="Times,serif" font-size="14.00">TABL&#45;T006D</text>
</g>
<!-- DTEL&#45;PRESS_DEP -->
<g id="node2" class="node">
<title>DTEL&#45;PRESS_DEP</title>
<g id="a_node2"><a xlink:href="./DTEL_PRESS_DEP.html" xlink:title="DTEL&#45;PRESS_DEP">
<polygon fill="none" stroke="yellow" points="131.16,-108 -0.05,-108 -0.05,-72 131.16,-72 131.16,-108"/>
<text text-anchor="middle" x="65.55" y="-85.8" font-family="Times,serif" font-size="14.00">DTEL&#45;PRESS_DEP</text>
</a>
</g>
</g>
<!-- TABL&#45;T006D&#45;&gt;DTEL&#45;PRESS_DEP -->
<g id="edge12" class="edge">
<title>TABL&#45;T006D&#45;&gt;DTEL&#45;PRESS_DEP</title>
<path fill="none" stroke="black" d="M707.88,-159.14C604.88,-154.7 357.23,-141.39 141.17,-108.14"/>
<polygon fill="black" stroke="black" points="141.65,-104.67 131.23,-106.59 140.57,-111.59 141.65,-104.67"/>
</g>
<!-- DTEL&#45;TEMP_DEP -->
<g id="node4" class="node">
<title>DTEL&#45;TEMP_DEP</title>
<g id="a_node4"><a xlink:href="./DTEL_TEMP_DEP.html" xlink:title="DTEL&#45;TEMP_DEP">
<polygon fill="none" stroke="yellow" points="276.25,-108 148.85,-108 148.85,-72 276.25,-72 276.25,-108"/>
<text text-anchor="middle" x="212.55" y="-85.8" font-family="Times,serif" font-size="14.00">DTEL&#45;TEMP_DEP</text>
</a>
</g>
</g>
<!-- TABL&#45;T006D&#45;&gt;DTEL&#45;TEMP_DEP -->
<g id="edge11" class="edge">
<title>TABL&#45;T006D&#45;&gt;DTEL&#45;TEMP_DEP</title>
<path fill="none" stroke="black" d="M708.04,-157.49C623.96,-150.97 445.61,-135.31 286.43,-108.23"/>
<polygon fill="black" stroke="black" points="286.91,-104.76 276.46,-106.51 285.72,-111.66 286.91,-104.76"/>
</g>
<!-- DTEL&#45;MSSIE -->
<g id="node5" class="node">
<title>DTEL&#45;MSSIE</title>
<g id="a_node5"><a xlink:href="./DTEL_MSSIE.html" xlink:title="DTEL&#45;MSSIE">
<polygon fill="none" stroke="yellow" points="391.2,-108 293.9,-108 293.9,-72 391.2,-72 391.2,-108"/>
<text text-anchor="middle" x="342.55" y="-85.8" font-family="Times,serif" font-size="14.00">DTEL&#45;MSSIE</text>
</a>
</g>
</g>
<!-- TABL&#45;T006D&#45;&gt;DTEL&#45;MSSIE -->
<g id="edge10" class="edge">
<title>TABL&#45;T006D&#45;&gt;DTEL&#45;MSSIE</title>
<path fill="none" stroke="black" d="M708.09,-155.92C641.17,-148.44 516.64,-132.84 401.52,-108.04"/>
<polygon fill="black" stroke="black" points="401.99,-104.57 391.48,-105.85 400.5,-111.41 401.99,-104.57"/>
</g>
<!-- DTEL&#45;LIGHT -->
<g id="node7" class="node">
<title>DTEL&#45;LIGHT</title>
<g id="a_node7"><a xlink:href="./DTEL_LIGHT.html" xlink:title="DTEL&#45;LIGHT">
<polygon fill="none" stroke="yellow" points="507.96,-108 409.15,-108 409.15,-72 507.96,-72 507.96,-108"/>
<text text-anchor="middle" x="458.55" y="-85.8" font-family="Times,serif" font-size="14.00">DTEL&#45;LIGHT</text>
</a>
</g>
</g>
<!-- TABL&#45;T006D&#45;&gt;DTEL&#45;LIGHT -->
<g id="edge9" class="edge">
<title>TABL&#45;T006D&#45;&gt;DTEL&#45;LIGHT</title>
<path fill="none" stroke="black" d="M708.06,-151.3C661.6,-141.78 589.33,-126.38 517.92,-108.27"/>
<polygon fill="black" stroke="black" points="518.41,-104.78 507.85,-105.7 516.67,-111.56 518.41,-104.78"/>
</g>
<!-- DTEL&#45;MOLQU -->
<g id="node9" class="node">
<title>DTEL&#45;MOLQU</title>
<g id="a_node9"><a xlink:href="./DTEL_MOLQU.html" xlink:title="DTEL&#45;MOLQU">
<polygon fill="none" stroke="yellow" points="633.29,-108 525.81,-108 525.81,-72 633.29,-72 633.29,-108"/>
<text text-anchor="middle" x="579.55" y="-85.8" font-family="Times,serif" font-size="14.00">DTEL&#45;MOLQU</text>
</a>
</g>
</g>
<!-- TABL&#45;T006D&#45;&gt;DTEL&#45;MOLQU -->
<g id="edge8" class="edge">
<title>TABL&#45;T006D&#45;&gt;DTEL&#45;MOLQU</title>
<path fill="none" stroke="black" d="M713.25,-143.88C688.84,-134.22 658.16,-122.09 632.34,-111.88"/>
<polygon fill="black" stroke="black" points="633.3,-108.49 622.71,-108.07 630.72,-115 633.3,-108.49"/>
</g>
<!-- DTEL&#45;TEMP -->
<g id="node10" class="node">
<title>DTEL&#45;TEMP</title>
<g id="a_node10"><a xlink:href="./DTEL_TEMP.html" xlink:title="DTEL&#45;TEMP">
<polygon fill="none" stroke="yellow" points="745.31,-108 651.79,-108 651.79,-72 745.31,-72 745.31,-108"/>
<text text-anchor="middle" x="698.55" y="-85.8" font-family="Times,serif" font-size="14.00">DTEL&#45;TEMP</text>
</a>
</g>
</g>
<!-- TABL&#45;T006D&#45;&gt;DTEL&#45;TEMP -->
<g id="edge7" class="edge">
<title>TABL&#45;T006D&#45;&gt;DTEL&#45;TEMP</title>
<path fill="none" stroke="black" d="M742.21,-143.7C735.26,-135.3 726.78,-125.07 719.15,-115.86"/>
<polygon fill="black" stroke="black" points="721.8,-113.57 712.72,-108.1 716.41,-118.04 721.8,-113.57"/>
</g>
<!-- DTEL&#45;ECURR -->
<g id="node11" class="node">
<title>DTEL&#45;ECURR</title>
<g id="a_node11"><a xlink:href="./DTEL_ECURR.html" xlink:title="DTEL&#45;ECURR">
<polygon fill="none" stroke="yellow" points="866.15,-108 762.96,-108 762.96,-72 866.15,-72 866.15,-108"/>
<text text-anchor="middle" x="814.55" y="-85.8" font-family="Times,serif" font-size="14.00">DTEL&#45;ECURR</text>
</a>
</g>
</g>
<!-- TABL&#45;T006D&#45;&gt;DTEL&#45;ECURR -->
<g id="edge6" class="edge">
<title>TABL&#45;T006D&#45;&gt;DTEL&#45;ECURR</title>
<path fill="none" stroke="black" d="M770.89,-143.7C777.84,-135.3 786.32,-125.07 793.95,-115.86"/>
<polygon fill="black" stroke="black" points="796.69,-118.04 800.38,-108.1 791.3,-113.57 796.69,-118.04"/>
</g>
<!-- DTEL&#45;TIMEX -->
<g id="node12" class="node">
<title>DTEL&#45;TIMEX</title>
<g id="a_node12"><a xlink:href="./DTEL_TIMEX.html" xlink:title="DTEL&#45;TIMEX">
<polygon fill="none" stroke="yellow" points="984.79,-108 884.31,-108 884.31,-72 984.79,-72 984.79,-108"/>
<text text-anchor="middle" x="934.55" y="-85.8" font-family="Times,serif" font-size="14.00">DTEL&#45;TIMEX</text>
</a>
</g>
</g>
<!-- TABL&#45;T006D&#45;&gt;DTEL&#45;TIMEX -->
<g id="edge5" class="edge">
<title>TABL&#45;T006D&#45;&gt;DTEL&#45;TIMEX</title>
<path fill="none" stroke="black" d="M800.1,-143.88C824.75,-134.18 855.78,-121.98 881.81,-111.74"/>
<polygon fill="black" stroke="black" points="883.12,-114.99 891.15,-108.07 880.56,-108.47 883.12,-114.99"/>
</g>
<!-- DTEL&#45;MASS -->
<g id="node13" class="node">
<title>DTEL&#45;MASS</title>
<g id="a_node13"><a xlink:href="./DTEL_MASS.html" xlink:title="DTEL&#45;MASS">
<polygon fill="none" stroke="yellow" points="1097.59,-108 1003.51,-108 1003.51,-72 1097.59,-72 1097.59,-108"/>
<text text-anchor="middle" x="1050.55" y="-85.8" font-family="Times,serif" font-size="14.00">DTEL&#45;MASS</text>
</a>
</g>
</g>
<!-- TABL&#45;T006D&#45;&gt;DTEL&#45;MASS -->
<g id="edge4" class="edge">
<title>TABL&#45;T006D&#45;&gt;DTEL&#45;MASS</title>
<path fill="none" stroke="black" d="M805.36,-151.13C853.44,-141.15 928.88,-124.85 993.55,-108 993.65,-107.97 993.75,-107.95 993.85,-107.92"/>
<polygon fill="black" stroke="black" points="994.61,-111.34 1003.35,-105.36 992.78,-104.59 994.61,-111.34"/>
</g>
<!-- DTEL&#45;LENG -->
<g id="node14" class="node">
<title>DTEL&#45;LENG</title>
<g id="a_node14"><a xlink:href="./DTEL_LENG.html" xlink:title="DTEL&#45;LENG">
<polygon fill="none" stroke="yellow" points="1209.3,-108 1115.81,-108 1115.81,-72 1209.3,-72 1209.3,-108"/>
<text text-anchor="middle" x="1162.55" y="-85.8" font-family="Times,serif" font-size="14.00">DTEL&#45;LENG</text>
</a>
</g>
</g>
<!-- TABL&#45;T006D&#45;&gt;DTEL&#45;LENG -->
<g id="edge3" class="edge">
<title>TABL&#45;T006D&#45;&gt;DTEL&#45;LENG</title>
<path fill="none" stroke="black" d="M805.09,-155.9C871.12,-148.46 993,-132.98 1105.79,-107.99"/>
<polygon fill="black" stroke="black" points="1106.64,-111.39 1115.63,-105.78 1105.11,-104.56 1106.64,-111.39"/>
</g>
<!-- DTEL&#45;DIMID -->
<g id="node15" class="node">
<title>DTEL&#45;DIMID</title>
<g id="a_node15"><a xlink:href="./DTEL_DIMID.html" xlink:title="DTEL&#45;DIMID">
<polygon fill="none" stroke="yellow" points="1325.96,-108 1227.15,-108 1227.15,-72 1325.96,-72 1325.96,-108"/>
<text text-anchor="middle" x="1276.55" y="-85.8" font-family="Times,serif" font-size="14.00">DTEL&#45;DIMID</text>
</a>
</g>
</g>
<!-- TABL&#45;T006D&#45;&gt;DTEL&#45;DIMID -->
<g id="edge2" class="edge">
<title>TABL&#45;T006D&#45;&gt;DTEL&#45;DIMID</title>
<path fill="none" stroke="black" d="M805.2,-158.16C888.06,-152.73 1061.91,-138.76 1217.14,-108.09"/>
<polygon fill="black" stroke="black" points="1218.22,-111.45 1227.33,-106.05 1216.84,-104.58 1218.22,-111.45"/>
</g>
<!-- DTEL&#45;MANDT -->
<g id="node17" class="node">
<title>DTEL&#45;MANDT</title>
<g id="a_node17"><a xlink:href="./DTEL_MANDT.html" xlink:title="DTEL&#45;MANDT">
<polygon fill="none" stroke="green" points="1454.29,-108 1346.81,-108 1346.81,-72 1454.29,-72 1454.29,-108"/>
<text text-anchor="middle" x="1400.55" y="-85.8" font-family="Times,serif" font-size="14.00">DTEL&#45;MANDT</text>
</a>
</g>
</g>
<!-- TABL&#45;T006D&#45;&gt;DTEL&#45;MANDT -->
<g id="edge1" class="edge">
<title>TABL&#45;T006D&#45;&gt;DTEL&#45;MANDT</title>
<path fill="none" stroke="black" d="M805.23,-159.18C905.12,-154.86 1140.2,-141.72 1334.55,-108 1335.3,-107.87 1336.04,-107.74 1336.79,-107.6"/>
<polygon fill="black" stroke="black" points="1337.56,-111.02 1346.68,-105.63 1336.19,-104.15 1337.56,-111.02"/>
</g>
<!-- DOMA&#45;X -->
<g id="node3" class="node">
<title>DOMA&#45;X</title>
<g id="a_node3"><a xlink:href="./DOMA_X.html" xlink:title="DOMA&#45;X">
<polygon fill="none" stroke="yellow" points="176.08,-36 103.02,-36 103.02,0 176.08,0 176.08,-36"/>
<text text-anchor="middle" x="139.55" y="-13.8" font-family="Times,serif" font-size="14.00">DOMA&#45;X</text>
</a>
</g>
</g>
<!-- DTEL&#45;PRESS_DEP&#45;&gt;DOMA&#45;X -->
<g id="edge13" class="edge">
<title>DTEL&#45;PRESS_DEP&#45;&gt;DOMA&#45;X</title>
<path fill="none" stroke="black" d="M83.84,-71.7C92.98,-63.05 104.19,-52.45 114.15,-43.03"/>
<polygon fill="black" stroke="black" points="116.61,-45.52 121.47,-36.1 111.8,-40.43 116.61,-45.52"/>
</g>
<!-- DTEL&#45;TEMP_DEP&#45;&gt;DOMA&#45;X -->
<g id="edge14" class="edge">
<title>DTEL&#45;TEMP_DEP&#45;&gt;DOMA&#45;X</title>
<path fill="none" stroke="black" d="M194.51,-71.7C185.49,-63.05 174.43,-52.45 164.61,-43.03"/>
<polygon fill="black" stroke="black" points="167.03,-40.5 157.39,-36.1 162.18,-45.55 167.03,-40.5"/>
</g>
<!-- DOMA&#45;MEINS -->
<g id="node6" class="node">
<title>DOMA&#45;MEINS</title>
<g id="a_node6"><a xlink:href="./DOMA_MEINS.html" xlink:title="DOMA&#45;MEINS">
<polygon fill="none" stroke="green" points="396.02,-36 289.08,-36 289.08,0 396.02,0 396.02,-36"/>
<text text-anchor="middle" x="342.55" y="-13.8" font-family="Times,serif" font-size="14.00">DOMA&#45;MEINS</text>
</a>
</g>
</g>
<!-- DTEL&#45;MSSIE&#45;&gt;DOMA&#45;MEINS -->
<g id="edge15" class="edge">
<title>DTEL&#45;MSSIE&#45;&gt;DOMA&#45;MEINS</title>
<path fill="none" stroke="black" d="M342.55,-71.7C342.55,-63.98 342.55,-54.71 342.55,-46.11"/>
<polygon fill="black" stroke="black" points="346.05,-46.1 342.55,-36.1 339.05,-46.1 346.05,-46.1"/>
</g>
<!-- DOMA&#45;DIMEX -->
<g id="node8" class="node">
<title>DOMA&#45;DIMEX</title>
<g id="a_node8"><a xlink:href="./DOMA_DIMEX.html" xlink:title="DOMA&#45;DIMEX">
<polygon fill="none" stroke="yellow" points="869.35,-36 759.76,-36 759.76,0 869.35,0 869.35,-36"/>
<text text-anchor="middle" x="814.55" y="-13.8" font-family="Times,serif" font-size="14.00">DOMA&#45;DIMEX</text>
</a>
</g>
</g>
<!-- DTEL&#45;LIGHT&#45;&gt;DOMA&#45;DIMEX -->
<g id="edge16" class="edge">
<title>DTEL&#45;LIGHT&#45;&gt;DOMA&#45;DIMEX</title>
<path fill="none" stroke="black" d="M507.82,-74.16C510.76,-73.4 513.69,-72.67 516.55,-72 596.1,-53.33 688.97,-37.78 749.62,-28.46"/>
<polygon fill="black" stroke="black" points="750.45,-31.87 759.81,-26.9 749.4,-24.95 750.45,-31.87"/>
</g>
<!-- DTEL&#45;MOLQU&#45;&gt;DOMA&#45;DIMEX -->
<g id="edge17" class="edge">
<title>DTEL&#45;MOLQU&#45;&gt;DOMA&#45;DIMEX</title>
<path fill="none" stroke="black" d="M633.47,-72.94C668.17,-62.6 713.47,-49.11 750.07,-38.21"/>
<polygon fill="black" stroke="black" points="751.08,-41.56 759.67,-35.35 749.08,-34.85 751.08,-41.56"/>
</g>
<!-- DTEL&#45;TEMP&#45;&gt;DOMA&#45;DIMEX -->
<g id="edge18" class="edge">
<title>DTEL&#45;TEMP&#45;&gt;DOMA&#45;DIMEX</title>
<path fill="none" stroke="black" d="M726.93,-71.88C742.1,-62.72 760.96,-51.34 777.29,-41.48"/>
<polygon fill="black" stroke="black" points="779.31,-44.35 786.07,-36.19 775.7,-38.36 779.31,-44.35"/>
</g>
<!-- DTEL&#45;ECURR&#45;&gt;DOMA&#45;DIMEX -->
<g id="edge19" class="edge">
<title>DTEL&#45;ECURR&#45;&gt;DOMA&#45;DIMEX</title>
<path fill="none" stroke="black" d="M814.55,-71.7C814.55,-63.98 814.55,-54.71 814.55,-46.11"/>
<polygon fill="black" stroke="black" points="818.05,-46.1 814.55,-36.1 811.05,-46.1 818.05,-46.1"/>
</g>
<!-- DTEL&#45;TIMEX&#45;&gt;DOMA&#45;DIMEX -->
<g id="edge20" class="edge">
<title>DTEL&#45;TIMEX&#45;&gt;DOMA&#45;DIMEX</title>
<path fill="none" stroke="black" d="M905.2,-71.88C889.51,-62.72 869.99,-51.34 853.1,-41.48"/>
<polygon fill="black" stroke="black" points="854.42,-38.21 844.02,-36.19 850.89,-44.25 854.42,-38.21"/>
</g>
<!-- DTEL&#45;MASS&#45;&gt;DOMA&#45;DIMEX -->
<g id="edge21" class="edge">
<title>DTEL&#45;MASS&#45;&gt;DOMA&#45;DIMEX</title>
<path fill="none" stroke="black" d="M1003.28,-74.89C999.99,-73.91 996.72,-72.94 993.55,-72 955.66,-60.74 913.25,-48.18 879.22,-38.11"/>
<polygon fill="black" stroke="black" points="879.98,-34.69 869.4,-35.21 878,-41.4 879.98,-34.69"/>
</g>
<!-- DTEL&#45;LENG&#45;&gt;DOMA&#45;DIMEX -->
<g id="edge22" class="edge">
<title>DTEL&#45;LENG&#45;&gt;DOMA&#45;DIMEX</title>
<path fill="none" stroke="black" d="M1115.61,-74.32C1112.55,-73.5 1109.51,-72.72 1106.55,-72 1029.15,-53.29 938.77,-37.86 879.3,-28.56"/>
<polygon fill="black" stroke="black" points="879.72,-25.08 869.3,-27.01 878.65,-32 879.72,-25.08"/>
</g>
<!-- DOMA&#45;DIMID -->
<g id="node16" class="node">
<title>DOMA&#45;DIMID</title>
<g id="a_node16"><a xlink:href="./DOMA_DIMID.html" xlink:title="DOMA&#45;DIMID">
<polygon fill="none" stroke="yellow" points="1327.46,-36 1221.65,-36 1221.65,0 1327.46,0 1327.46,-36"/>
<text text-anchor="middle" x="1274.55" y="-13.8" font-family="Times,serif" font-size="14.00">DOMA&#45;DIMID</text>
</a>
</g>
</g>
<!-- DTEL&#45;DIMID&#45;&gt;DOMA&#45;DIMID -->
<g id="edge23" class="edge">
<title>DTEL&#45;DIMID&#45;&gt;DOMA&#45;DIMID</title>
<path fill="none" stroke="black" d="M1276.06,-71.7C1275.84,-63.98 1275.57,-54.71 1275.33,-46.11"/>
<polygon fill="black" stroke="black" points="1278.82,-46 1275.04,-36.1 1271.83,-46.2 1278.82,-46"/>
</g>
<!-- DOMA&#45;MANDT -->
<g id="node18" class="node">
<title>DOMA&#45;MANDT</title>
<g id="a_node18"><a xlink:href="./DOMA_MANDT.html" xlink:title="DOMA&#45;MANDT">
<polygon fill="none" stroke="yellow" points="1459.79,-36 1345.31,-36 1345.31,0 1459.79,0 1459.79,-36"/>
<text text-anchor="middle" x="1402.55" y="-13.8" font-family="Times,serif" font-size="14.00">DOMA&#45;MANDT</text>
</a>
</g>
</g>
<!-- DTEL&#45;MANDT&#45;&gt;DOMA&#45;MANDT -->
<g id="edge24" class="edge">
<title>DTEL&#45;MANDT&#45;&gt;DOMA&#45;MANDT</title>
<path fill="none" stroke="black" d="M1401.05,-71.7C1401.27,-63.98 1401.53,-54.71 1401.78,-46.11"/>
<polygon fill="black" stroke="black" points="1405.28,-46.2 1402.06,-36.1 1398.28,-46 1405.28,-46.2"/>
</g>
</g>
</svg>
