<?xml version="1.0" encoding="UTF-8" standalone="no"?>
<!DOCTYPE svg PUBLIC "-//W3C//DTD SVG 1.1//EN"
 "http://www.w3.org/Graphics/SVG/1.1/DTD/svg11.dtd">
<!-- Generated by graphviz version 2.47.3 (20210619.1520)
 -->
<!-- Title: G Pages: 1 -->
<svg width="1908pt" height="1052pt"
 viewBox="0.00 0.00 1907.51 1052.00" xmlns="http://www.w3.org/2000/svg" xmlns:xlink="http://www.w3.org/1999/xlink">
<g id="graph0" class="graph" transform="scale(1 1) rotate(0) translate(4 1048)">
<title>G</title>
<polygon fill="white" stroke="transparent" points="-4,4 -4,-1048 1903.51,-1048 1903.51,4 -4,4"/>
<!-- TTYP&#45;SXCO_T_GEN_O_FINDINGS -->
<g id="node1" class="node">
<title>TTYP&#45;SXCO_T_GEN_O_FINDINGS</title>
<polygon fill="none" stroke="green" points="1160.53,-1044 927.08,-1044 927.08,-1008 1160.53,-1008 1160.53,-1044"/>
<text text-anchor="middle" x="1043.8" y="-1021.8" font-family="Times,serif" font-size="14.00">TTYP&#45;SXCO_T_GEN_O_FINDINGS</text>
</g>
<!-- INTF&#45;IF_XCO_GEN_O_FINDING -->
<g id="node2" class="node">
<title>INTF&#45;IF_XCO_GEN_O_FINDING</title>
<g id="a_node2"><a xlink:href="./INTF_IF_XCO_GEN_O_FINDING.html" xlink:title="INTF&#45;IF_XCO_GEN_O_FINDING">
<polygon fill="none" stroke="green" points="1152.96,-972 934.65,-972 934.65,-936 1152.96,-936 1152.96,-972"/>
<text text-anchor="middle" x="1043.8" y="-949.8" font-family="Times,serif" font-size="14.00">INTF&#45;IF_XCO_GEN_O_FINDING</text>
</a>
</g>
</g>
<!-- TTYP&#45;SXCO_T_GEN_O_FINDINGS&#45;&gt;INTF&#45;IF_XCO_GEN_O_FINDING -->
<g id="edge1" class="edge">
<title>TTYP&#45;SXCO_T_GEN_O_FINDINGS&#45;&gt;INTF&#45;IF_XCO_GEN_O_FINDING</title>
<path fill="none" stroke="black" d="M1043.8,-1007.7C1043.8,-999.98 1043.8,-990.71 1043.8,-982.11"/>
<polygon fill="black" stroke="black" points="1047.3,-982.1 1043.8,-972.1 1040.3,-982.1 1047.3,-982.1"/>
</g>
<!-- INTF&#45;IF_XCO_NEWS -->
<g id="node3" class="node">
<title>INTF&#45;IF_XCO_NEWS</title>
<g id="a_node3"><a xlink:href="./INTF_IF_XCO_NEWS.html" xlink:title="INTF&#45;IF_XCO_NEWS">
<polygon fill="none" stroke="green" points="794.72,-900 646.89,-900 646.89,-864 794.72,-864 794.72,-900"/>
<text text-anchor="middle" x="720.8" y="-877.8" font-family="Times,serif" font-size="14.00">INTF&#45;IF_XCO_NEWS</text>
</a>
</g>
</g>
<!-- INTF&#45;IF_XCO_GEN_O_FINDING&#45;&gt;INTF&#45;IF_XCO_NEWS -->
<g id="edge5" class="edge">
<title>INTF&#45;IF_XCO_GEN_O_FINDING&#45;&gt;INTF&#45;IF_XCO_NEWS</title>
<path fill="none" stroke="black" d="M965.2,-935.97C916.64,-925.44 854.35,-911.94 804.81,-901.21"/>
<polygon fill="black" stroke="black" points="805.27,-897.73 794.76,-899.03 803.79,-904.57 805.27,-897.73"/>
</g>
<!-- INTF&#45;IF_XCO_MESSAGE -->
<g id="node5" class="node">
<title>INTF&#45;IF_XCO_MESSAGE</title>
<g id="a_node5"><a xlink:href="./INTF_IF_XCO_MESSAGE.html" xlink:title="INTF&#45;IF_XCO_MESSAGE">
<polygon fill="none" stroke="green" points="1091.39,-756 918.22,-756 918.22,-720 1091.39,-720 1091.39,-756"/>
<text text-anchor="middle" x="1004.8" y="-733.8" font-family="Times,serif" font-size="14.00">INTF&#45;IF_XCO_MESSAGE</text>
</a>
</g>
</g>
<!-- INTF&#45;IF_XCO_GEN_O_FINDING&#45;&gt;INTF&#45;IF_XCO_MESSAGE -->
<g id="edge4" class="edge">
<title>INTF&#45;IF_XCO_GEN_O_FINDING&#45;&gt;INTF&#45;IF_XCO_MESSAGE</title>
<path fill="none" stroke="black" d="M1031.8,-935.7C1025.56,-925.73 1018.47,-912.7 1014.8,-900 1001.67,-854.56 1001.51,-798.99 1002.93,-766.45"/>
<polygon fill="black" stroke="black" points="1006.43,-766.51 1003.45,-756.34 999.44,-766.14 1006.43,-766.51"/>
</g>
<!-- DTEL&#45;SOBJ_NAME -->
<g id="node41" class="node">
<title>DTEL&#45;SOBJ_NAME</title>
<g id="a_node41"><a xlink:href="./DTEL_SOBJ_NAME.html" xlink:title="DTEL&#45;SOBJ_NAME">
<polygon fill="none" stroke="yellow" points="1161.61,-900 1024,-900 1024,-864 1161.61,-864 1161.61,-900"/>
<text text-anchor="middle" x="1092.8" y="-877.8" font-family="Times,serif" font-size="14.00">DTEL&#45;SOBJ_NAME</text>
</a>
</g>
</g>
<!-- INTF&#45;IF_XCO_GEN_O_FINDING&#45;&gt;DTEL&#45;SOBJ_NAME -->
<g id="edge3" class="edge">
<title>INTF&#45;IF_XCO_GEN_O_FINDING&#45;&gt;DTEL&#45;SOBJ_NAME</title>
<path fill="none" stroke="black" d="M1055.92,-935.7C1061.67,-927.47 1068.67,-917.48 1075.01,-908.42"/>
<polygon fill="black" stroke="black" points="1077.96,-910.3 1080.83,-900.1 1072.23,-906.29 1077.96,-910.3"/>
</g>
<!-- DTEL&#45;TROBJTYPE -->
<g id="node43" class="node">
<title>DTEL&#45;TROBJTYPE</title>
<g id="a_node43"><a xlink:href="./DTEL_TROBJTYPE.html" xlink:title="DTEL&#45;TROBJTYPE">
<polygon fill="none" stroke="yellow" points="1314,-900 1179.61,-900 1179.61,-864 1314,-864 1314,-900"/>
<text text-anchor="middle" x="1246.8" y="-877.8" font-family="Times,serif" font-size="14.00">DTEL&#45;TROBJTYPE</text>
</a>
</g>
</g>
<!-- INTF&#45;IF_XCO_GEN_O_FINDING&#45;&gt;DTEL&#45;TROBJTYPE -->
<g id="edge2" class="edge">
<title>INTF&#45;IF_XCO_GEN_O_FINDING&#45;&gt;DTEL&#45;TROBJTYPE</title>
<path fill="none" stroke="black" d="M1093.2,-935.97C1121.69,-926.14 1157.69,-913.73 1187.68,-903.39"/>
<polygon fill="black" stroke="black" points="1188.87,-906.68 1197.18,-900.11 1186.59,-900.06 1188.87,-906.68"/>
</g>
<!-- TTYP&#45;SXCO_T_MESSAGES -->
<g id="node4" class="node">
<title>TTYP&#45;SXCO_T_MESSAGES</title>
<g id="a_node4"><a xlink:href="./TTYP_SXCO_T_MESSAGES.html" xlink:title="TTYP&#45;SXCO_T_MESSAGES">
<polygon fill="none" stroke="green" points="875.95,-828 687.65,-828 687.65,-792 875.95,-792 875.95,-828"/>
<text text-anchor="middle" x="781.8" y="-805.8" font-family="Times,serif" font-size="14.00">TTYP&#45;SXCO_T_MESSAGES</text>
</a>
</g>
</g>
<!-- INTF&#45;IF_XCO_NEWS&#45;&gt;TTYP&#45;SXCO_T_MESSAGES -->
<g id="edge6" class="edge">
<title>INTF&#45;IF_XCO_NEWS&#45;&gt;TTYP&#45;SXCO_T_MESSAGES</title>
<path fill="none" stroke="black" d="M735.88,-863.7C743.2,-855.3 752.11,-845.07 760.14,-835.86"/>
<polygon fill="black" stroke="black" points="762.97,-837.94 766.9,-828.1 757.69,-833.34 762.97,-837.94"/>
</g>
<!-- TTYP&#45;SXCO_T_MESSAGES&#45;&gt;INTF&#45;IF_XCO_MESSAGE -->
<g id="edge7" class="edge">
<title>TTYP&#45;SXCO_T_MESSAGES&#45;&gt;INTF&#45;IF_XCO_MESSAGE</title>
<path fill="none" stroke="black" d="M836.07,-791.97C867.63,-782.06 907.6,-769.51 940.7,-759.12"/>
<polygon fill="black" stroke="black" points="941.8,-762.45 950.29,-756.11 939.7,-755.77 941.8,-762.45"/>
</g>
<!-- INTF&#45;IF_XCO_MESSAGE&#45;&gt;INTF&#45;IF_XCO_NEWS -->
<g id="edge16" class="edge">
<title>INTF&#45;IF_XCO_MESSAGE&#45;&gt;INTF&#45;IF_XCO_NEWS</title>
<path fill="none" stroke="black" d="M985.75,-756.25C963.12,-775.96 923.55,-808.06 884.8,-828 858.27,-841.66 827.52,-852.72 799.86,-861.13"/>
<polygon fill="black" stroke="black" points="798.81,-857.79 790.22,-864 800.8,-864.5 798.81,-857.79"/>
</g>
<!-- INTF&#45;IF_T100_DYN_MSG -->
<g id="node6" class="node">
<title>INTF&#45;IF_T100_DYN_MSG</title>
<g id="a_node6"><a xlink:href="./INTF_IF_T100_DYN_MSG.html" xlink:title="INTF&#45;IF_T100_DYN_MSG">
<polygon fill="none" stroke="green" points="1495.72,-684 1319.89,-684 1319.89,-648 1495.72,-648 1495.72,-684"/>
<text text-anchor="middle" x="1407.8" y="-661.8" font-family="Times,serif" font-size="14.00">INTF&#45;IF_T100_DYN_MSG</text>
</a>
</g>
</g>
<!-- INTF&#45;IF_XCO_MESSAGE&#45;&gt;INTF&#45;IF_T100_DYN_MSG -->
<g id="edge15" class="edge">
<title>INTF&#45;IF_XCO_MESSAGE&#45;&gt;INTF&#45;IF_T100_DYN_MSG</title>
<path fill="none" stroke="black" d="M1091.75,-721.9C1155.91,-710.75 1243.26,-695.58 1309.88,-684.01"/>
<polygon fill="black" stroke="black" points="1310.71,-687.42 1319.97,-682.26 1309.52,-680.52 1310.71,-687.42"/>
</g>
<!-- DTEL&#45;SYMSGNO -->
<g id="node11" class="node">
<title>DTEL&#45;SYMSGNO</title>
<g id="a_node11"><a xlink:href="./DTEL_SYMSGNO.html" xlink:title="DTEL&#45;SYMSGNO">
<polygon fill="none" stroke="green" points="1423.16,-468 1298.44,-468 1298.44,-432 1423.16,-432 1423.16,-468"/>
<text text-anchor="middle" x="1360.8" y="-445.8" font-family="Times,serif" font-size="14.00">DTEL&#45;SYMSGNO</text>
</a>
</g>
</g>
<!-- INTF&#45;IF_XCO_MESSAGE&#45;&gt;DTEL&#45;SYMSGNO -->
<g id="edge11" class="edge">
<title>INTF&#45;IF_XCO_MESSAGE&#45;&gt;DTEL&#45;SYMSGNO</title>
<path fill="none" stroke="black" d="M1009.45,-719.84C1012.22,-709.48 1015.79,-696 1018.8,-684 1038.86,-604.23 1001.95,-560.42 1061.8,-504 1093.7,-473.93 1210.31,-460.57 1288.13,-454.89"/>
<polygon fill="black" stroke="black" points="1288.63,-458.36 1298.36,-454.17 1288.14,-451.38 1288.63,-458.36"/>
</g>
<!-- DTEL&#45;SYMSGID -->
<g id="node13" class="node">
<title>DTEL&#45;SYMSGID</title>
<g id="a_node13"><a xlink:href="./DTEL_SYMSGID.html" xlink:title="DTEL&#45;SYMSGID">
<polygon fill="none" stroke="green" points="1899.72,-468 1779.89,-468 1779.89,-432 1899.72,-432 1899.72,-468"/>
<text text-anchor="middle" x="1839.8" y="-445.8" font-family="Times,serif" font-size="14.00">DTEL&#45;SYMSGID</text>
</a>
</g>
</g>
<!-- INTF&#45;IF_XCO_MESSAGE&#45;&gt;DTEL&#45;SYMSGID -->
<g id="edge10" class="edge">
<title>INTF&#45;IF_XCO_MESSAGE&#45;&gt;DTEL&#45;SYMSGID</title>
<path fill="none" stroke="black" d="M1091.78,-732.54C1192.1,-726.31 1361.6,-712.39 1504.8,-684 1616.13,-661.93 1648.22,-662.61 1749.8,-612 1797.86,-588.06 1822.67,-587.96 1846.8,-540 1856.46,-520.81 1853.61,-496.32 1848.96,-477.89"/>
<polygon fill="black" stroke="black" points="1852.28,-476.75 1846.19,-468.08 1845.54,-478.66 1852.28,-476.75"/>
</g>
<!-- DTEL&#45;SYMSGTY -->
<g id="node15" class="node">
<title>DTEL&#45;SYMSGTY</title>
<g id="a_node15"><a xlink:href="./DTEL_SYMSGTY.html" xlink:title="DTEL&#45;SYMSGTY">
<polygon fill="none" stroke="green" points="1199.61,-612 1076,-612 1076,-576 1199.61,-576 1199.61,-612"/>
<text text-anchor="middle" x="1137.8" y="-589.8" font-family="Times,serif" font-size="14.00">DTEL&#45;SYMSGTY</text>
</a>
</g>
</g>
<!-- INTF&#45;IF_XCO_MESSAGE&#45;&gt;DTEL&#45;SYMSGTY -->
<g id="edge9" class="edge">
<title>INTF&#45;IF_XCO_MESSAGE&#45;&gt;DTEL&#45;SYMSGTY</title>
<path fill="none" stroke="black" d="M1021.83,-719.97C1032.06,-709.66 1045.29,-696.18 1056.8,-684 1076.96,-662.67 1099.39,-637.95 1115.52,-619.98"/>
<polygon fill="black" stroke="black" points="1118.4,-622.02 1122.46,-612.24 1113.18,-617.35 1118.4,-622.02"/>
</g>
<!-- DTEL&#45;SYMSGV -->
<g id="node17" class="node">
<title>DTEL&#45;SYMSGV</title>
<g id="a_node17"><a xlink:href="./DTEL_SYMSGV.html" xlink:title="DTEL&#45;SYMSGV">
<polygon fill="none" stroke="green" points="1380.06,-612 1265.55,-612 1265.55,-576 1380.06,-576 1380.06,-612"/>
<text text-anchor="middle" x="1322.8" y="-589.8" font-family="Times,serif" font-size="14.00">DTEL&#45;SYMSGV</text>
</a>
</g>
</g>
<!-- INTF&#45;IF_XCO_MESSAGE&#45;&gt;DTEL&#45;SYMSGV -->
<g id="edge12" class="edge">
<title>INTF&#45;IF_XCO_MESSAGE&#45;&gt;DTEL&#45;SYMSGV</title>
<path fill="none" stroke="black" d="M1091.47,-727.79C1158.39,-719.24 1244.24,-704.7 1272.8,-684 1293.8,-668.79 1307.12,-641.9 1314.69,-621.65"/>
<polygon fill="black" stroke="black" points="1318.05,-622.63 1318.04,-612.04 1311.45,-620.33 1318.05,-622.63"/>
</g>
<!-- INTF&#45;IF_XCO_MESSAGE_SHORT_TEXT -->
<g id="node19" class="node">
<title>INTF&#45;IF_XCO_MESSAGE_SHORT_TEXT</title>
<g id="a_node19"><a xlink:href="./INTF_IF_XCO_MESSAGE_SHORT_TEXT.html" xlink:title="INTF&#45;IF_XCO_MESSAGE_SHORT_TEXT">
<polygon fill="none" stroke="green" points="977.04,-684 708.57,-684 708.57,-648 977.04,-648 977.04,-684"/>
<text text-anchor="middle" x="842.8" y="-661.8" font-family="Times,serif" font-size="14.00">INTF&#45;IF_XCO_MESSAGE_SHORT_TEXT</text>
</a>
</g>
</g>
<!-- INTF&#45;IF_XCO_MESSAGE&#45;&gt;INTF&#45;IF_XCO_MESSAGE_SHORT_TEXT -->
<g id="edge14" class="edge">
<title>INTF&#45;IF_XCO_MESSAGE&#45;&gt;INTF&#45;IF_XCO_MESSAGE_SHORT_TEXT</title>
<path fill="none" stroke="black" d="M959.28,-719.88C936.23,-710.35 908.47,-698.41 885.79,-688.28"/>
<polygon fill="black" stroke="black" points="886.97,-684.97 876.41,-684.07 884.1,-691.36 886.97,-684.97"/>
</g>
<!-- CLAS&#45;CL_XCO_MESSAGE_TYPE -->
<g id="node37" class="node">
<title>CLAS&#45;CL_XCO_MESSAGE_TYPE</title>
<g id="a_node37"><a xlink:href="./CLAS_CL_XCO_MESSAGE_TYPE.html" xlink:title="CLAS&#45;CL_XCO_MESSAGE_TYPE">
<polygon fill="none" stroke="green" points="690.5,-684 465.1,-684 465.1,-648 690.5,-648 690.5,-684"/>
<text text-anchor="middle" x="577.8" y="-661.8" font-family="Times,serif" font-size="14.00">CLAS&#45;CL_XCO_MESSAGE_TYPE</text>
</a>
</g>
</g>
<!-- INTF&#45;IF_XCO_MESSAGE&#45;&gt;CLAS&#45;CL_XCO_MESSAGE_TYPE -->
<g id="edge13" class="edge">
<title>INTF&#45;IF_XCO_MESSAGE&#45;&gt;CLAS&#45;CL_XCO_MESSAGE_TYPE</title>
<path fill="none" stroke="black" d="M918.14,-722.79C852.83,-712.09 762.69,-697.31 691.58,-685.65"/>
<polygon fill="black" stroke="black" points="692.11,-682.19 681.68,-684.03 690.98,-689.1 692.11,-682.19"/>
</g>
<!-- TABL&#45;SYMSG -->
<g id="node40" class="node">
<title>TABL&#45;SYMSG</title>
<g id="a_node40"><a xlink:href="./TABL_SYMSG.html" xlink:title="TABL&#45;SYMSG">
<polygon fill="none" stroke="green" points="1263.74,-684 1157.87,-684 1157.87,-648 1263.74,-648 1263.74,-684"/>
<text text-anchor="middle" x="1210.8" y="-661.8" font-family="Times,serif" font-size="14.00">TABL&#45;SYMSG</text>
</a>
</g>
</g>
<!-- INTF&#45;IF_XCO_MESSAGE&#45;&gt;TABL&#45;SYMSG -->
<g id="edge8" class="edge">
<title>INTF&#45;IF_XCO_MESSAGE&#45;&gt;TABL&#45;SYMSG</title>
<path fill="none" stroke="black" d="M1054.93,-719.97C1083.84,-710.14 1120.37,-697.73 1150.8,-687.39"/>
<polygon fill="black" stroke="black" points="1152.11,-690.64 1160.45,-684.11 1149.85,-684.01 1152.11,-690.64"/>
</g>
<!-- INTF&#45;IF_T100_MESSAGE -->
<g id="node7" class="node">
<title>INTF&#45;IF_T100_MESSAGE</title>
<g id="a_node7"><a xlink:href="./INTF_IF_T100_MESSAGE.html" xlink:title="INTF&#45;IF_T100_MESSAGE">
<polygon fill="none" stroke="green" points="1672.39,-612 1499.22,-612 1499.22,-576 1672.39,-576 1672.39,-612"/>
<text text-anchor="middle" x="1585.8" y="-589.8" font-family="Times,serif" font-size="14.00">INTF&#45;IF_T100_MESSAGE</text>
</a>
</g>
</g>
<!-- INTF&#45;IF_T100_DYN_MSG&#45;&gt;INTF&#45;IF_T100_MESSAGE -->
<g id="edge20" class="edge">
<title>INTF&#45;IF_T100_DYN_MSG&#45;&gt;INTF&#45;IF_T100_MESSAGE</title>
<path fill="none" stroke="black" d="M1451.35,-647.88C1476.01,-638.18 1507.03,-625.98 1533.06,-615.74"/>
<polygon fill="black" stroke="black" points="1534.38,-618.99 1542.4,-612.07 1531.81,-612.47 1534.38,-618.99"/>
</g>
<!-- INTF&#45;IF_MESSAGE -->
<g id="node8" class="node">
<title>INTF&#45;IF_MESSAGE</title>
<g id="a_node8"><a xlink:href="./INTF_IF_MESSAGE.html" xlink:title="INTF&#45;IF_MESSAGE">
<polygon fill="none" stroke="green" points="1548.84,-540 1412.77,-540 1412.77,-504 1548.84,-504 1548.84,-540"/>
<text text-anchor="middle" x="1480.8" y="-517.8" font-family="Times,serif" font-size="14.00">INTF&#45;IF_MESSAGE</text>
</a>
</g>
</g>
<!-- INTF&#45;IF_T100_DYN_MSG&#45;&gt;INTF&#45;IF_MESSAGE -->
<g id="edge19" class="edge">
<title>INTF&#45;IF_T100_DYN_MSG&#45;&gt;INTF&#45;IF_MESSAGE</title>
<path fill="none" stroke="black" d="M1416.61,-647.87C1429.22,-623.35 1452.51,-578.03 1467.3,-549.26"/>
<polygon fill="black" stroke="black" points="1470.51,-550.68 1471.97,-540.19 1464.28,-547.48 1470.51,-550.68"/>
</g>
<!-- INTF&#45;IF_T100_DYN_MSG&#45;&gt;DTEL&#45;SYMSGTY -->
<g id="edge18" class="edge">
<title>INTF&#45;IF_T100_DYN_MSG&#45;&gt;DTEL&#45;SYMSGTY</title>
<path fill="none" stroke="black" d="M1342.1,-647.97C1301.93,-637.55 1250.52,-624.22 1209.32,-613.54"/>
<polygon fill="black" stroke="black" points="1210.18,-610.15 1199.62,-611.03 1208.43,-616.93 1210.18,-610.15"/>
</g>
<!-- INTF&#45;IF_T100_DYN_MSG&#45;&gt;DTEL&#45;SYMSGV -->
<g id="edge17" class="edge">
<title>INTF&#45;IF_T100_DYN_MSG&#45;&gt;DTEL&#45;SYMSGV</title>
<path fill="none" stroke="black" d="M1386.79,-647.7C1376.09,-638.88 1362.91,-628.03 1351.31,-618.47"/>
<polygon fill="black" stroke="black" points="1353.52,-615.76 1343.57,-612.1 1349.07,-621.16 1353.52,-615.76"/>
</g>
<!-- INTF&#45;IF_T100_MESSAGE&#45;&gt;INTF&#45;IF_MESSAGE -->
<g id="edge25" class="edge">
<title>INTF&#45;IF_T100_MESSAGE&#45;&gt;INTF&#45;IF_MESSAGE</title>
<path fill="none" stroke="black" d="M1560.12,-575.88C1546.52,-566.81 1529.63,-555.55 1514.94,-545.76"/>
<polygon fill="black" stroke="black" points="1516.85,-542.82 1506.59,-540.19 1512.97,-548.65 1516.85,-542.82"/>
</g>
<!-- TABL&#45;SCX_T100KEY -->
<g id="node9" class="node">
<title>TABL&#45;SCX_T100KEY</title>
<g id="a_node9"><a xlink:href="./TABL_SCX_T100KEY.html" xlink:title="TABL&#45;SCX_T100KEY">
<polygon fill="none" stroke="yellow" points="1792.56,-540 1643.05,-540 1643.05,-504 1792.56,-504 1792.56,-540"/>
<text text-anchor="middle" x="1717.8" y="-517.8" font-family="Times,serif" font-size="14.00">TABL&#45;SCX_T100KEY</text>
</a>
</g>
</g>
<!-- INTF&#45;IF_T100_MESSAGE&#45;&gt;TABL&#45;SCX_T100KEY -->
<g id="edge24" class="edge">
<title>INTF&#45;IF_T100_MESSAGE&#45;&gt;TABL&#45;SCX_T100KEY</title>
<path fill="none" stroke="black" d="M1618.09,-575.88C1635.67,-566.55 1657.61,-554.92 1676.43,-544.94"/>
<polygon fill="black" stroke="black" points="1678.19,-547.97 1685.39,-540.19 1674.91,-541.78 1678.19,-547.97"/>
</g>
<!-- DTEL&#45;SCX_ATTRNAME -->
<g id="node10" class="node">
<title>DTEL&#45;SCX_ATTRNAME</title>
<g id="a_node10"><a xlink:href="./DTEL_SCX_ATTRNAME.html" xlink:title="DTEL&#45;SCX_ATTRNAME">
<polygon fill="none" stroke="green" points="1740.21,-468 1571.39,-468 1571.39,-432 1740.21,-432 1740.21,-468"/>
<text text-anchor="middle" x="1655.8" y="-445.8" font-family="Times,serif" font-size="14.00">DTEL&#45;SCX_ATTRNAME</text>
</a>
</g>
</g>
<!-- INTF&#45;IF_T100_MESSAGE&#45;&gt;DTEL&#45;SCX_ATTRNAME -->
<g id="edge23" class="edge">
<title>INTF&#45;IF_T100_MESSAGE&#45;&gt;DTEL&#45;SCX_ATTRNAME</title>
<path fill="none" stroke="black" d="M1594.25,-575.87C1606.34,-551.35 1628.68,-506.03 1642.86,-477.26"/>
<polygon fill="black" stroke="black" points="1646.05,-478.71 1647.33,-468.19 1639.77,-475.61 1646.05,-478.71"/>
</g>
<!-- INTF&#45;IF_T100_MESSAGE&#45;&gt;DTEL&#45;SYMSGNO -->
<g id="edge22" class="edge">
<title>INTF&#45;IF_T100_MESSAGE&#45;&gt;DTEL&#45;SYMSGNO</title>
<path fill="none" stroke="black" d="M1585.15,-575.71C1583.44,-555.66 1577.56,-522.95 1557.8,-504 1524.74,-472.3 1474.8,-459.1 1433.48,-453.8"/>
<polygon fill="black" stroke="black" points="1433.78,-450.31 1423.45,-452.65 1432.98,-457.27 1433.78,-450.31"/>
</g>
<!-- INTF&#45;IF_T100_MESSAGE&#45;&gt;DTEL&#45;SYMSGID -->
<g id="edge21" class="edge">
<title>INTF&#45;IF_T100_MESSAGE&#45;&gt;DTEL&#45;SYMSGID</title>
<path fill="none" stroke="black" d="M1672.41,-589.63C1715.57,-583.84 1766.04,-570.36 1801.8,-540 1820.34,-524.26 1830.07,-497.86 1835.02,-477.89"/>
<polygon fill="black" stroke="black" points="1838.43,-478.65 1837.19,-468.13 1831.6,-477.13 1838.43,-478.65"/>
</g>
<!-- TABL&#45;SCX_T100KEY&#45;&gt;DTEL&#45;SCX_ATTRNAME -->
<g id="edge28" class="edge">
<title>TABL&#45;SCX_T100KEY&#45;&gt;DTEL&#45;SCX_ATTRNAME</title>
<path fill="none" stroke="black" d="M1702.48,-503.7C1695.04,-495.3 1685.98,-485.07 1677.82,-475.86"/>
<polygon fill="black" stroke="black" points="1680.2,-473.27 1670.95,-468.1 1674.96,-477.91 1680.2,-473.27"/>
</g>
<!-- TABL&#45;SCX_T100KEY&#45;&gt;DTEL&#45;SYMSGNO -->
<g id="edge27" class="edge">
<title>TABL&#45;SCX_T100KEY&#45;&gt;DTEL&#45;SYMSGNO</title>
<path fill="none" stroke="black" d="M1642.96,-506.33C1581.28,-494.23 1494.32,-477.18 1433.28,-465.21"/>
<polygon fill="black" stroke="black" points="1433.83,-461.75 1423.34,-463.26 1432.48,-468.62 1433.83,-461.75"/>
</g>
<!-- TABL&#45;SCX_T100KEY&#45;&gt;DTEL&#45;SYMSGID -->
<g id="edge26" class="edge">
<title>TABL&#45;SCX_T100KEY&#45;&gt;DTEL&#45;SYMSGID</title>
<path fill="none" stroke="black" d="M1747.65,-503.88C1763.75,-494.64 1783.8,-483.13 1801.09,-473.21"/>
<polygon fill="black" stroke="black" points="1802.91,-476.2 1809.84,-468.19 1799.43,-470.13 1802.91,-476.2"/>
</g>
<!-- DOMA&#45;SYMSGNO -->
<g id="node12" class="node">
<title>DOMA&#45;SYMSGNO</title>
<g id="a_node12"><a xlink:href="./DOMA_SYMSGNO.html" xlink:title="DOMA&#45;SYMSGNO">
<polygon fill="none" stroke="yellow" points="1426.66,-396 1294.94,-396 1294.94,-360 1426.66,-360 1426.66,-396"/>
<text text-anchor="middle" x="1360.8" y="-373.8" font-family="Times,serif" font-size="14.00">DOMA&#45;SYMSGNO</text>
</a>
</g>
</g>
<!-- DTEL&#45;SYMSGNO&#45;&gt;DOMA&#45;SYMSGNO -->
<g id="edge29" class="edge">
<title>DTEL&#45;SYMSGNO&#45;&gt;DOMA&#45;SYMSGNO</title>
<path fill="none" stroke="black" d="M1360.8,-431.7C1360.8,-423.98 1360.8,-414.71 1360.8,-406.11"/>
<polygon fill="black" stroke="black" points="1364.3,-406.1 1360.8,-396.1 1357.3,-406.1 1364.3,-406.1"/>
</g>
<!-- DOMA&#45;ARBGB -->
<g id="node14" class="node">
<title>DOMA&#45;ARBGB</title>
<g id="a_node14"><a xlink:href="./DOMA_ARBGB.html" xlink:title="DOMA&#45;ARBGB">
<polygon fill="none" stroke="yellow" points="1895.45,-396 1784.16,-396 1784.16,-360 1895.45,-360 1895.45,-396"/>
<text text-anchor="middle" x="1839.8" y="-373.8" font-family="Times,serif" font-size="14.00">DOMA&#45;ARBGB</text>
</a>
</g>
</g>
<!-- DTEL&#45;SYMSGID&#45;&gt;DOMA&#45;ARBGB -->
<g id="edge30" class="edge">
<title>DTEL&#45;SYMSGID&#45;&gt;DOMA&#45;ARBGB</title>
<path fill="none" stroke="black" d="M1839.8,-431.7C1839.8,-423.98 1839.8,-414.71 1839.8,-406.11"/>
<polygon fill="black" stroke="black" points="1843.3,-406.1 1839.8,-396.1 1836.3,-406.1 1843.3,-406.1"/>
</g>
<!-- DOMA&#45;SYCHAR01 -->
<g id="node16" class="node">
<title>DOMA&#45;SYCHAR01</title>
<g id="a_node16"><a xlink:href="./DOMA_SYCHAR01.html" xlink:title="DOMA&#45;SYCHAR01">
<polygon fill="none" stroke="yellow" points="1205,-540 1070.6,-540 1070.6,-504 1205,-504 1205,-540"/>
<text text-anchor="middle" x="1137.8" y="-517.8" font-family="Times,serif" font-size="14.00">DOMA&#45;SYCHAR01</text>
</a>
</g>
</g>
<!-- DTEL&#45;SYMSGTY&#45;&gt;DOMA&#45;SYCHAR01 -->
<g id="edge31" class="edge">
<title>DTEL&#45;SYMSGTY&#45;&gt;DOMA&#45;SYCHAR01</title>
<path fill="none" stroke="black" d="M1137.8,-575.7C1137.8,-567.98 1137.8,-558.71 1137.8,-550.11"/>
<polygon fill="black" stroke="black" points="1141.3,-550.1 1137.8,-540.1 1134.3,-550.1 1141.3,-550.1"/>
</g>
<!-- DOMA&#45;SYCHAR50 -->
<g id="node18" class="node">
<title>DOMA&#45;SYCHAR50</title>
<g id="a_node18"><a xlink:href="./DOMA_SYCHAR50.html" xlink:title="DOMA&#45;SYCHAR50">
<polygon fill="none" stroke="yellow" points="1395,-540 1260.6,-540 1260.6,-504 1395,-504 1395,-540"/>
<text text-anchor="middle" x="1327.8" y="-517.8" font-family="Times,serif" font-size="14.00">DOMA&#45;SYCHAR50</text>
</a>
</g>
</g>
<!-- DTEL&#45;SYMSGV&#45;&gt;DOMA&#45;SYCHAR50 -->
<g id="edge32" class="edge">
<title>DTEL&#45;SYMSGV&#45;&gt;DOMA&#45;SYCHAR50</title>
<path fill="none" stroke="black" d="M1324.04,-575.7C1324.59,-567.98 1325.25,-558.71 1325.87,-550.11"/>
<polygon fill="black" stroke="black" points="1329.36,-550.33 1326.58,-540.1 1322.38,-549.83 1329.36,-550.33"/>
</g>
<!-- INTF&#45;IF_XCO_MESSAGE_SHORT_TEXT&#45;&gt;INTF&#45;IF_XCO_MESSAGE -->
<g id="edge33" class="edge">
<title>INTF&#45;IF_XCO_MESSAGE_SHORT_TEXT&#45;&gt;INTF&#45;IF_XCO_MESSAGE</title>
<path fill="none" stroke="black" d="M888.2,-684.07C911.22,-693.59 938.98,-705.53 961.68,-715.66"/>
<polygon fill="black" stroke="black" points="960.52,-718.97 971.07,-719.88 963.38,-712.59 960.52,-718.97"/>
</g>
<!-- INTF&#45;IF_XCO_L10N_TEXT -->
<g id="node20" class="node">
<title>INTF&#45;IF_XCO_L10N_TEXT</title>
<g id="a_node20"><a xlink:href="./INTF_IF_XCO_L10N_TEXT.html" xlink:title="INTF&#45;IF_XCO_L10N_TEXT">
<polygon fill="none" stroke="yellow" points="899.48,-612 716.12,-612 716.12,-576 899.48,-576 899.48,-612"/>
<text text-anchor="middle" x="807.8" y="-589.8" font-family="Times,serif" font-size="14.00">INTF&#45;IF_XCO_L10N_TEXT</text>
</a>
</g>
</g>
<!-- INTF&#45;IF_XCO_MESSAGE_SHORT_TEXT&#45;&gt;INTF&#45;IF_XCO_L10N_TEXT -->
<g id="edge35" class="edge">
<title>INTF&#45;IF_XCO_MESSAGE_SHORT_TEXT&#45;&gt;INTF&#45;IF_XCO_L10N_TEXT</title>
<path fill="none" stroke="black" d="M834.15,-647.7C830.17,-639.73 825.35,-630.1 820.94,-621.26"/>
<polygon fill="black" stroke="black" points="823.96,-619.48 816.36,-612.1 817.7,-622.61 823.96,-619.48"/>
</g>
<!-- INTF&#45;IF_XCO_TEXT -->
<g id="node21" class="node">
<title>INTF&#45;IF_XCO_TEXT</title>
<g id="a_node21"><a xlink:href="./INTF_IF_XCO_TEXT.html" xlink:title="INTF&#45;IF_XCO_TEXT">
<polygon fill="none" stroke="green" points="887.32,-468 744.28,-468 744.28,-432 887.32,-432 887.32,-468"/>
<text text-anchor="middle" x="815.8" y="-445.8" font-family="Times,serif" font-size="14.00">INTF&#45;IF_XCO_TEXT</text>
</a>
</g>
</g>
<!-- INTF&#45;IF_XCO_MESSAGE_SHORT_TEXT&#45;&gt;INTF&#45;IF_XCO_TEXT -->
<g id="edge34" class="edge">
<title>INTF&#45;IF_XCO_MESSAGE_SHORT_TEXT&#45;&gt;INTF&#45;IF_XCO_TEXT</title>
<path fill="none" stroke="black" d="M874.86,-647.88C887.92,-639.05 901.62,-626.97 908.8,-612 915.72,-597.57 913.83,-591.19 908.8,-576 895.66,-536.32 864.5,-499 841.86,-475.65"/>
<polygon fill="black" stroke="black" points="844.08,-472.91 834.55,-468.28 839.11,-477.84 844.08,-472.91"/>
</g>
<!-- INTF&#45;IF_XCO_L10N_TEXT&#45;&gt;INTF&#45;IF_XCO_TEXT -->
<g id="edge37" class="edge">
<title>INTF&#45;IF_XCO_L10N_TEXT&#45;&gt;INTF&#45;IF_XCO_TEXT</title>
<path fill="none" stroke="black" d="M808.77,-575.87C810.13,-551.67 812.64,-507.21 814.26,-478.39"/>
<polygon fill="black" stroke="black" points="817.77,-478.37 814.84,-468.19 810.78,-477.98 817.77,-478.37"/>
</g>
<!-- DTEL&#45;SPRAS -->
<g id="node35" class="node">
<title>DTEL&#45;SPRAS</title>
<g id="a_node35"><a xlink:href="./DTEL_SPRAS.html" xlink:title="DTEL&#45;SPRAS">
<polygon fill="none" stroke="green" points="787.52,-540 688.09,-540 688.09,-504 787.52,-504 787.52,-540"/>
<text text-anchor="middle" x="737.8" y="-517.8" font-family="Times,serif" font-size="14.00">DTEL&#45;SPRAS</text>
</a>
</g>
</g>
<!-- INTF&#45;IF_XCO_L10N_TEXT&#45;&gt;DTEL&#45;SPRAS -->
<g id="edge36" class="edge">
<title>INTF&#45;IF_XCO_L10N_TEXT&#45;&gt;DTEL&#45;SPRAS</title>
<path fill="none" stroke="black" d="M790.5,-575.7C781.94,-567.14 771.46,-556.66 762.11,-547.3"/>
<polygon fill="black" stroke="black" points="764.45,-544.7 754.91,-540.1 759.5,-549.65 764.45,-544.7"/>
</g>
<!-- INTF&#45;IF_XCO_STRINGS -->
<g id="node22" class="node">
<title>INTF&#45;IF_XCO_STRINGS</title>
<g id="a_node22"><a xlink:href="./INTF_IF_XCO_STRINGS.html" xlink:title="INTF&#45;IF_XCO_STRINGS">
<polygon fill="none" stroke="green" points="512.89,-396 346.72,-396 346.72,-360 512.89,-360 512.89,-396"/>
<text text-anchor="middle" x="429.8" y="-373.8" font-family="Times,serif" font-size="14.00">INTF&#45;IF_XCO_STRINGS</text>
</a>
</g>
</g>
<!-- INTF&#45;IF_XCO_TEXT&#45;&gt;INTF&#45;IF_XCO_STRINGS -->
<g id="edge38" class="edge">
<title>INTF&#45;IF_XCO_TEXT&#45;&gt;INTF&#45;IF_XCO_STRINGS</title>
<path fill="none" stroke="black" d="M744.09,-435.61C737.89,-434.36 731.73,-433.14 725.8,-432 657.94,-418.99 581.32,-405.68 522.99,-395.65"/>
<polygon fill="black" stroke="black" points="523.5,-392.19 513.06,-393.94 522.32,-399.09 523.5,-392.19"/>
</g>
<!-- INTF&#45;IF_XCO_STRINGS&#45;&gt;INTF&#45;IF_XCO_NEWS -->
<g id="edge43" class="edge">
<title>INTF&#45;IF_XCO_STRINGS&#45;&gt;INTF&#45;IF_XCO_NEWS</title>
<path fill="none" stroke="black" d="M429.8,-396.05C429.8,-422.71 429.8,-475.89 429.8,-521 429.8,-739 429.8,-739 429.8,-739 429.8,-831.87 551,-864.01 636.96,-875.13"/>
<polygon fill="black" stroke="black" points="636.65,-878.62 647,-876.35 637.49,-871.67 636.65,-878.62"/>
</g>
<!-- INTF&#45;IF_XCO_STRINGS&#45;&gt;INTF&#45;IF_XCO_TEXT -->
<g id="edge44" class="edge">
<title>INTF&#45;IF_XCO_STRINGS&#45;&gt;INTF&#45;IF_XCO_TEXT</title>
<path fill="none" stroke="black" d="M513.05,-391.45C573.83,-401.31 658.31,-415.76 734.08,-430.15"/>
<polygon fill="black" stroke="black" points="733.75,-433.65 744.23,-432.08 735.06,-426.77 733.75,-433.65"/>
</g>
<!-- INTF&#45;IF_XCO_STRING_ITERABLE -->
<g id="node23" class="node">
<title>INTF&#45;IF_XCO_STRING_ITERABLE</title>
<g id="a_node23"><a xlink:href="./INTF_IF_XCO_STRING_ITERABLE.html" xlink:title="INTF&#45;IF_XCO_STRING_ITERABLE">
<polygon fill="none" stroke="green" points="939.26,-324 706.35,-324 706.35,-288 939.26,-288 939.26,-324"/>
<text text-anchor="middle" x="822.8" y="-301.8" font-family="Times,serif" font-size="14.00">INTF&#45;IF_XCO_STRING_ITERABLE</text>
</a>
</g>
</g>
<!-- INTF&#45;IF_XCO_STRINGS&#45;&gt;INTF&#45;IF_XCO_STRING_ITERABLE -->
<g id="edge45" class="edge">
<title>INTF&#45;IF_XCO_STRINGS&#45;&gt;INTF&#45;IF_XCO_STRING_ITERABLE</title>
<path fill="none" stroke="black" d="M513.15,-362.15C572.61,-351.56 653.03,-337.24 717.01,-325.84"/>
<polygon fill="black" stroke="black" points="717.9,-329.24 727.14,-324.04 716.68,-322.35 717.9,-329.24"/>
</g>
<!-- INTF&#45;IF_XCO_STRING -->
<g id="node26" class="node">
<title>INTF&#45;IF_XCO_STRING</title>
<g id="a_node26"><a xlink:href="./INTF_IF_XCO_STRING.html" xlink:title="INTF&#45;IF_XCO_STRING">
<polygon fill="none" stroke="green" points="637.11,-180 478.5,-180 478.5,-144 637.11,-144 637.11,-180"/>
<text text-anchor="middle" x="557.8" y="-157.8" font-family="Times,serif" font-size="14.00">INTF&#45;IF_XCO_STRING</text>
</a>
</g>
</g>
<!-- INTF&#45;IF_XCO_STRINGS&#45;&gt;INTF&#45;IF_XCO_STRING -->
<g id="edge41" class="edge">
<title>INTF&#45;IF_XCO_STRINGS&#45;&gt;INTF&#45;IF_XCO_STRING</title>
<path fill="none" stroke="black" d="M415.9,-359.81C406.85,-341.29 399.41,-311.32 409.8,-288 430.08,-242.5 476.01,-206.62 511.48,-185.19"/>
<polygon fill="black" stroke="black" points="513.39,-188.13 520.26,-180.05 509.86,-182.09 513.39,-188.13"/>
</g>
<!-- INTF&#45;IF_XCO_STRING_COMPOSITION -->
<g id="node31" class="node">
<title>INTF&#45;IF_XCO_STRING_COMPOSITION</title>
<g id="a_node31"><a xlink:href="./INTF_IF_XCO_STRING_COMPOSITION.html" xlink:title="INTF&#45;IF_XCO_STRING_COMPOSITION">
<polygon fill="none" stroke="green" points="688.25,-324 427.36,-324 427.36,-288 688.25,-288 688.25,-324"/>
<text text-anchor="middle" x="557.8" y="-301.8" font-family="Times,serif" font-size="14.00">INTF&#45;IF_XCO_STRING_COMPOSITION</text>
</a>
</g>
</g>
<!-- INTF&#45;IF_XCO_STRINGS&#45;&gt;INTF&#45;IF_XCO_STRING_COMPOSITION -->
<g id="edge42" class="edge">
<title>INTF&#45;IF_XCO_STRINGS&#45;&gt;INTF&#45;IF_XCO_STRING_COMPOSITION</title>
<path fill="none" stroke="black" d="M455.22,-359.88C471.29,-350.55 492.43,-338.92 511.37,-328.94"/>
<polygon fill="black" stroke="black" points="513.22,-331.92 520.47,-324.19 509.98,-325.72 513.22,-331.92"/>
</g>
<!-- TTYP&#45;STRING_TABLE -->
<g id="node32" class="node">
<title>TTYP&#45;STRING_TABLE</title>
<g id="a_node32"><a xlink:href="./TTYP_STRING_TABLE.html" xlink:title="TTYP&#45;STRING_TABLE">
<polygon fill="none" stroke="green" points="354.11,-324 195.5,-324 195.5,-288 354.11,-288 354.11,-324"/>
<text text-anchor="middle" x="274.8" y="-301.8" font-family="Times,serif" font-size="14.00">TTYP&#45;STRING_TABLE</text>
</a>
</g>
</g>
<!-- INTF&#45;IF_XCO_STRINGS&#45;&gt;TTYP&#45;STRING_TABLE -->
<g id="edge40" class="edge">
<title>INTF&#45;IF_XCO_STRINGS&#45;&gt;TTYP&#45;STRING_TABLE</title>
<path fill="none" stroke="black" d="M391.89,-359.88C370.79,-350.35 344.35,-338.41 321.93,-328.28"/>
<polygon fill="black" stroke="black" points="323.15,-324.99 312.6,-324.07 320.27,-331.37 323.15,-324.99"/>
</g>
<!-- DTEL&#45;INT4 -->
<g id="node33" class="node">
<title>DTEL&#45;INT4</title>
<g id="a_node33"><a xlink:href="./DTEL_INT4.html" xlink:title="DTEL&#45;INT4">
<polygon fill="none" stroke="green" points="177.05,-324 90.56,-324 90.56,-288 177.05,-288 177.05,-324"/>
<text text-anchor="middle" x="133.8" y="-301.8" font-family="Times,serif" font-size="14.00">DTEL&#45;INT4</text>
</a>
</g>
</g>
<!-- INTF&#45;IF_XCO_STRINGS&#45;&gt;DTEL&#45;INT4 -->
<g id="edge39" class="edge">
<title>INTF&#45;IF_XCO_STRINGS&#45;&gt;DTEL&#45;INT4</title>
<path fill="none" stroke="black" d="M346.66,-360.92C299.51,-351.29 239.55,-338.18 186.8,-324 186.7,-323.97 186.61,-323.95 186.51,-323.92"/>
<polygon fill="black" stroke="black" points="187.66,-320.61 177.09,-321.26 185.76,-327.35 187.66,-320.61"/>
</g>
<!-- INTF&#45;IF_XCO_STRING_ITERATOR -->
<g id="node24" class="node">
<title>INTF&#45;IF_XCO_STRING_ITERATOR</title>
<g id="a_node24"><a xlink:href="./INTF_IF_XCO_STRING_ITERATOR.html" xlink:title="INTF&#45;IF_XCO_STRING_ITERATOR">
<polygon fill="none" stroke="green" points="1266.81,-252 1032.8,-252 1032.8,-216 1266.81,-216 1266.81,-252"/>
<text text-anchor="middle" x="1149.8" y="-229.8" font-family="Times,serif" font-size="14.00">INTF&#45;IF_XCO_STRING_ITERATOR</text>
</a>
</g>
</g>
<!-- INTF&#45;IF_XCO_STRING_ITERABLE&#45;&gt;INTF&#45;IF_XCO_STRING_ITERATOR -->
<g id="edge46" class="edge">
<title>INTF&#45;IF_XCO_STRING_ITERABLE&#45;&gt;INTF&#45;IF_XCO_STRING_ITERATOR</title>
<path fill="none" stroke="black" d="M902.38,-287.97C950.04,-277.76 1010.76,-264.76 1060.12,-254.2"/>
<polygon fill="black" stroke="black" points="1061.11,-257.57 1070.16,-252.05 1059.64,-250.72 1061.11,-257.57"/>
</g>
<!-- INTF&#45;IF_XCO_ITERATOR -->
<g id="node25" class="node">
<title>INTF&#45;IF_XCO_ITERATOR</title>
<g id="a_node25"><a xlink:href="./INTF_IF_XCO_ITERATOR.html" xlink:title="INTF&#45;IF_XCO_ITERATOR">
<polygon fill="none" stroke="green" points="1238.26,-180 1061.34,-180 1061.34,-144 1238.26,-144 1238.26,-180"/>
<text text-anchor="middle" x="1149.8" y="-157.8" font-family="Times,serif" font-size="14.00">INTF&#45;IF_XCO_ITERATOR</text>
</a>
</g>
</g>
<!-- INTF&#45;IF_XCO_STRING_ITERATOR&#45;&gt;INTF&#45;IF_XCO_ITERATOR -->
<g id="edge48" class="edge">
<title>INTF&#45;IF_XCO_STRING_ITERATOR&#45;&gt;INTF&#45;IF_XCO_ITERATOR</title>
<path fill="none" stroke="black" d="M1149.8,-215.7C1149.8,-207.98 1149.8,-198.71 1149.8,-190.11"/>
<polygon fill="black" stroke="black" points="1153.3,-190.1 1149.8,-180.1 1146.3,-190.1 1153.3,-190.1"/>
</g>
<!-- INTF&#45;IF_XCO_STRING_ITERATOR&#45;&gt;INTF&#45;IF_XCO_STRING -->
<g id="edge47" class="edge">
<title>INTF&#45;IF_XCO_STRING_ITERATOR&#45;&gt;INTF&#45;IF_XCO_STRING</title>
<path fill="none" stroke="black" d="M1032.69,-217.72C1028,-217.13 1023.36,-216.56 1018.8,-216 889.7,-200.2 740.09,-183.25 647.18,-172.88"/>
<polygon fill="black" stroke="black" points="647.3,-169.38 636.97,-171.75 646.52,-176.33 647.3,-169.38"/>
</g>
<!-- INTF&#45;IF_XCO_STRING&#45;&gt;INTF&#45;IF_XCO_NEWS -->
<g id="edge54" class="edge">
<title>INTF&#45;IF_XCO_STRING&#45;&gt;INTF&#45;IF_XCO_NEWS</title>
<path fill="none" stroke="black" d="M478.47,-166.82C350.68,-173.7 110.58,-189.95 81.8,-216 51.82,-243.14 62.8,-264.55 62.8,-305 62.8,-739 62.8,-739 62.8,-739 62.8,-855.15 459.48,-876.54 636.84,-880.3"/>
<polygon fill="black" stroke="black" points="636.85,-883.8 646.92,-880.5 636.99,-876.8 636.85,-883.8"/>
</g>
<!-- INTF&#45;IF_XCO_STRING&#45;&gt;INTF&#45;IF_XCO_MESSAGE -->
<g id="edge51" class="edge">
<title>INTF&#45;IF_XCO_STRING&#45;&gt;INTF&#45;IF_XCO_MESSAGE</title>
<path fill="none" stroke="black" d="M637.2,-171.73C765.65,-188.08 1004.8,-228.77 1004.8,-305 1004.8,-595 1004.8,-595 1004.8,-595 1004.8,-635 1004.8,-681.35 1004.8,-709.92"/>
<polygon fill="black" stroke="black" points="1001.3,-709.95 1004.8,-719.95 1008.3,-709.95 1001.3,-709.95"/>
</g>
<!-- INTF&#45;IF_XCO_STRING&#45;&gt;INTF&#45;IF_XCO_TEXT -->
<g id="edge55" class="edge">
<title>INTF&#45;IF_XCO_STRING&#45;&gt;INTF&#45;IF_XCO_TEXT</title>
<path fill="none" stroke="black" d="M637.02,-177.1C739.93,-197.21 910.87,-237.38 947.8,-288 985.28,-339.37 908.9,-396.18 857.46,-426.68"/>
<polygon fill="black" stroke="black" points="855.39,-423.84 848.49,-431.89 858.9,-429.89 855.39,-423.84"/>
</g>
<!-- INTF&#45;IF_XCO_STRING&#45;&gt;INTF&#45;IF_XCO_STRINGS -->
<g id="edge49" class="edge">
<title>INTF&#45;IF_XCO_STRING&#45;&gt;INTF&#45;IF_XCO_STRINGS</title>
<path fill="none" stroke="black" d="M533.3,-180.05C501.98,-200.61 449.8,-238.64 427.8,-288 419.12,-307.5 422.89,-331.63 426.88,-349.85"/>
<polygon fill="black" stroke="black" points="423.52,-350.85 429.17,-359.81 430.34,-349.29 423.52,-350.85"/>
</g>
<!-- INTF&#45;IF_XCO_STRING&#45;&gt;INTF&#45;IF_XCO_STRING_ITERABLE -->
<g id="edge56" class="edge">
<title>INTF&#45;IF_XCO_STRING&#45;&gt;INTF&#45;IF_XCO_STRING_ITERABLE</title>
<path fill="none" stroke="black" d="M589.88,-180.19C638,-205.97 728.84,-254.65 781.74,-283"/>
<polygon fill="black" stroke="black" points="780.37,-286.23 790.84,-287.87 783.68,-280.06 780.37,-286.23"/>
</g>
<!-- INTF&#45;IF_XCO_XSTRING -->
<g id="node27" class="node">
<title>INTF&#45;IF_XCO_XSTRING</title>
<g id="a_node27"><a xlink:href="./INTF_IF_XCO_XSTRING.html" xlink:title="INTF&#45;IF_XCO_XSTRING">
<polygon fill="none" stroke="green" points="774.21,-108 605.4,-108 605.4,-72 774.21,-72 774.21,-108"/>
<text text-anchor="middle" x="689.8" y="-85.8" font-family="Times,serif" font-size="14.00">INTF&#45;IF_XCO_XSTRING</text>
</a>
</g>
</g>
<!-- INTF&#45;IF_XCO_STRING&#45;&gt;INTF&#45;IF_XCO_XSTRING -->
<g id="edge53" class="edge">
<title>INTF&#45;IF_XCO_STRING&#45;&gt;INTF&#45;IF_XCO_XSTRING</title>
<path fill="none" stroke="black" d="M584.2,-143.88C600.88,-134.51 622.8,-122.81 642.39,-112.8"/>
<polygon fill="black" stroke="black" points="644.15,-115.83 651.48,-108.19 640.98,-109.59 644.15,-115.83"/>
</g>
<!-- INTF&#45;IF_XCO_STRING_XSTRING_CNVRSN -->
<g id="node29" class="node">
<title>INTF&#45;IF_XCO_STRING_XSTRING_CNVRSN</title>
<g id="a_node29"><a xlink:href="./INTF_IF_XCO_STRING_XSTRING_CNVRSN.html" xlink:title="INTF&#45;IF_XCO_STRING_XSTRING_CNVRSN">
<polygon fill="none" stroke="green" points="587.53,-108 298.07,-108 298.07,-72 587.53,-72 587.53,-108"/>
<text text-anchor="middle" x="442.8" y="-85.8" font-family="Times,serif" font-size="14.00">INTF&#45;IF_XCO_STRING_XSTRING_CNVRSN</text>
</a>
</g>
</g>
<!-- INTF&#45;IF_XCO_STRING&#45;&gt;INTF&#45;IF_XCO_STRING_XSTRING_CNVRSN -->
<g id="edge52" class="edge">
<title>INTF&#45;IF_XCO_STRING&#45;&gt;INTF&#45;IF_XCO_STRING_XSTRING_CNVRSN</title>
<path fill="none" stroke="black" d="M529.67,-143.88C514.64,-134.72 495.94,-123.34 479.74,-113.48"/>
<polygon fill="black" stroke="black" points="481.41,-110.4 471.04,-108.19 477.77,-116.38 481.41,-110.4"/>
</g>
<!-- INTF&#45;IF_XCO_STRING_DECOMPOSITION -->
<g id="node30" class="node">
<title>INTF&#45;IF_XCO_STRING_DECOMPOSITION</title>
<g id="a_node30"><a xlink:href="./INTF_IF_XCO_STRING_DECOMPOSITION.html" xlink:title="INTF&#45;IF_XCO_STRING_DECOMPOSITION">
<polygon fill="none" stroke="green" points="279.41,-108 0.2,-108 0.2,-72 279.41,-72 279.41,-108"/>
<text text-anchor="middle" x="139.8" y="-85.8" font-family="Times,serif" font-size="14.00">INTF&#45;IF_XCO_STRING_DECOMPOSITION</text>
</a>
</g>
</g>
<!-- INTF&#45;IF_XCO_STRING&#45;&gt;INTF&#45;IF_XCO_STRING_DECOMPOSITION -->
<g id="edge50" class="edge">
<title>INTF&#45;IF_XCO_STRING&#45;&gt;INTF&#45;IF_XCO_STRING_DECOMPOSITION</title>
<path fill="none" stroke="black" d="M478.25,-148.57C412.31,-137.8 318.09,-122.06 245.77,-109.76"/>
<polygon fill="black" stroke="black" points="246.16,-106.28 235.71,-108.05 244.99,-113.18 246.16,-106.28"/>
</g>
<!-- INTF&#45;IF_XCO_XSTRING&#45;&gt;INTF&#45;IF_XCO_STRING -->
<g id="edge58" class="edge">
<title>INTF&#45;IF_XCO_XSTRING&#45;&gt;INTF&#45;IF_XCO_STRING</title>
<path fill="none" stroke="black" d="M663.29,-108.19C646.59,-117.57 624.66,-129.26 605.08,-139.27"/>
<polygon fill="black" stroke="black" points="603.33,-136.23 595.99,-143.88 606.49,-142.48 603.33,-136.23"/>
</g>
<!-- INTF&#45;IF_XCO_XSTRING_STRING_CNVRSN -->
<g id="node28" class="node">
<title>INTF&#45;IF_XCO_XSTRING_STRING_CNVRSN</title>
<g id="a_node28"><a xlink:href="./INTF_IF_XCO_XSTRING_STRING_CNVRSN.html" xlink:title="INTF&#45;IF_XCO_XSTRING_STRING_CNVRSN">
<polygon fill="none" stroke="green" points="834.53,-36 545.07,-36 545.07,0 834.53,0 834.53,-36"/>
<text text-anchor="middle" x="689.8" y="-13.8" font-family="Times,serif" font-size="14.00">INTF&#45;IF_XCO_XSTRING_STRING_CNVRSN</text>
</a>
</g>
</g>
<!-- INTF&#45;IF_XCO_XSTRING&#45;&gt;INTF&#45;IF_XCO_XSTRING_STRING_CNVRSN -->
<g id="edge57" class="edge">
<title>INTF&#45;IF_XCO_XSTRING&#45;&gt;INTF&#45;IF_XCO_XSTRING_STRING_CNVRSN</title>
<path fill="none" stroke="black" d="M689.8,-71.7C689.8,-63.98 689.8,-54.71 689.8,-46.11"/>
<polygon fill="black" stroke="black" points="693.3,-46.1 689.8,-36.1 686.3,-46.1 693.3,-46.1"/>
</g>
<!-- INTF&#45;IF_XCO_STRING_DECOMPOSITION&#45;&gt;INTF&#45;IF_XCO_STRINGS -->
<g id="edge60" class="edge">
<title>INTF&#45;IF_XCO_STRING_DECOMPOSITION&#45;&gt;INTF&#45;IF_XCO_STRINGS</title>
<path fill="none" stroke="black" d="M126.51,-108.26C95.78,-150.38 26.52,-259.66 81.8,-324 114.05,-361.53 244.74,-372.79 336.43,-375.99"/>
<polygon fill="black" stroke="black" points="336.46,-379.5 346.57,-376.32 336.69,-372.5 336.46,-379.5"/>
</g>
<!-- INTF&#45;IF_XCO_STRING_DECOMPOSITION&#45;&gt;INTF&#45;IF_XCO_STRING -->
<g id="edge59" class="edge">
<title>INTF&#45;IF_XCO_STRING_DECOMPOSITION&#45;&gt;INTF&#45;IF_XCO_STRING</title>
<path fill="none" stroke="black" d="M247.25,-108.01C315.72,-119.27 403.35,-133.96 468.09,-145.01"/>
<polygon fill="black" stroke="black" points="467.82,-148.51 478.27,-146.75 469,-141.61 467.82,-148.51"/>
</g>
<!-- INTF&#45;IF_XCO_STRING_COMPOSITION&#45;&gt;INTF&#45;IF_XCO_STRINGS -->
<g id="edge61" class="edge">
<title>INTF&#45;IF_XCO_STRING_COMPOSITION&#45;&gt;INTF&#45;IF_XCO_STRINGS</title>
<path fill="none" stroke="black" d="M532.27,-324.19C516.18,-333.52 495.04,-345.16 476.1,-355.13"/>
<polygon fill="black" stroke="black" points="474.26,-352.15 467.01,-359.88 477.5,-358.35 474.26,-352.15"/>
</g>
<!-- INTF&#45;IF_XCO_STRING_COMPOSITION&#45;&gt;INTF&#45;IF_XCO_STRING -->
<g id="edge62" class="edge">
<title>INTF&#45;IF_XCO_STRING_COMPOSITION&#45;&gt;INTF&#45;IF_XCO_STRING</title>
<path fill="none" stroke="black" d="M557.8,-287.87C557.8,-263.67 557.8,-219.21 557.8,-190.39"/>
<polygon fill="black" stroke="black" points="561.3,-190.19 557.8,-180.19 554.3,-190.19 561.3,-190.19"/>
</g>
<!-- DOMA&#45;INT4 -->
<g id="node34" class="node">
<title>DOMA&#45;INT4</title>
<g id="a_node34"><a xlink:href="./DOMA_INT4.html" xlink:title="DOMA&#45;INT4">
<polygon fill="none" stroke="yellow" points="184.55,-252 91.06,-252 91.06,-216 184.55,-216 184.55,-252"/>
<text text-anchor="middle" x="137.8" y="-229.8" font-family="Times,serif" font-size="14.00">DOMA&#45;INT4</text>
</a>
</g>
</g>
<!-- DTEL&#45;INT4&#45;&gt;DOMA&#45;INT4 -->
<g id="edge63" class="edge">
<title>DTEL&#45;INT4&#45;&gt;DOMA&#45;INT4</title>
<path fill="none" stroke="black" d="M134.79,-287.7C135.23,-279.98 135.76,-270.71 136.25,-262.11"/>
<polygon fill="black" stroke="black" points="139.75,-262.29 136.83,-252.1 132.76,-261.89 139.75,-262.29"/>
</g>
<!-- DOMA&#45;SPRAS -->
<g id="node36" class="node">
<title>DOMA&#45;SPRAS</title>
<g id="a_node36"><a xlink:href="./DOMA_SPRAS.html" xlink:title="DOMA&#45;SPRAS">
<polygon fill="none" stroke="green" points="726.02,-468 619.59,-468 619.59,-432 726.02,-432 726.02,-468"/>
<text text-anchor="middle" x="672.8" y="-445.8" font-family="Times,serif" font-size="14.00">DOMA&#45;SPRAS</text>
</a>
</g>
</g>
<!-- DTEL&#45;SPRAS&#45;&gt;DOMA&#45;SPRAS -->
<g id="edge64" class="edge">
<title>DTEL&#45;SPRAS&#45;&gt;DOMA&#45;SPRAS</title>
<path fill="none" stroke="black" d="M721.74,-503.7C713.86,-495.22 704.25,-484.86 695.63,-475.58"/>
<polygon fill="black" stroke="black" points="698.06,-473.05 688.69,-468.1 692.93,-477.81 698.06,-473.05"/>
</g>
<!-- CLAS&#45;CL_XCO_MESSAGE_TYPE&#45;&gt;INTF&#45;IF_XCO_NEWS -->
<g id="edge67" class="edge">
<title>CLAS&#45;CL_XCO_MESSAGE_TYPE&#45;&gt;INTF&#45;IF_XCO_NEWS</title>
<path fill="none" stroke="black" d="M587.82,-684.32C605.31,-714.26 643,-777.34 678.8,-828 685.38,-837.3 693,-847.16 699.93,-855.82"/>
<polygon fill="black" stroke="black" points="697.3,-858.13 706.31,-863.7 702.74,-853.73 697.3,-858.13"/>
</g>
<!-- CLAS&#45;CL_XCO_MESSAGE_TYPE&#45;&gt;DTEL&#45;SYMSGTY -->
<g id="edge65" class="edge">
<title>CLAS&#45;CL_XCO_MESSAGE_TYPE&#45;&gt;DTEL&#45;SYMSGTY</title>
<path fill="none" stroke="black" d="M690.46,-649.23C693.61,-648.81 696.73,-648.4 699.8,-648 828.76,-631.21 979.31,-613.38 1066.1,-603.27"/>
<polygon fill="black" stroke="black" points="1066.58,-606.74 1076.1,-602.11 1065.77,-599.79 1066.58,-606.74"/>
</g>
<!-- CLAS&#45;CL_XCO_ENUM_CONSTANT -->
<g id="node38" class="node">
<title>CLAS&#45;CL_XCO_ENUM_CONSTANT</title>
<g id="a_node38"><a xlink:href="./CLAS_CL_XCO_ENUM_CONSTANT.html" xlink:title="CLAS&#45;CL_XCO_ENUM_CONSTANT">
<polygon fill="none" stroke="yellow" points="698.04,-612 457.56,-612 457.56,-576 698.04,-576 698.04,-612"/>
<text text-anchor="middle" x="577.8" y="-589.8" font-family="Times,serif" font-size="14.00">CLAS&#45;CL_XCO_ENUM_CONSTANT</text>
</a>
</g>
</g>
<!-- CLAS&#45;CL_XCO_MESSAGE_TYPE&#45;&gt;CLAS&#45;CL_XCO_ENUM_CONSTANT -->
<g id="edge66" class="edge">
<title>CLAS&#45;CL_XCO_MESSAGE_TYPE&#45;&gt;CLAS&#45;CL_XCO_ENUM_CONSTANT</title>
<path fill="none" stroke="black" d="M577.8,-647.7C577.8,-639.98 577.8,-630.71 577.8,-622.11"/>
<polygon fill="black" stroke="black" points="581.3,-622.1 577.8,-612.1 574.3,-622.1 581.3,-622.1"/>
</g>
<!-- INTF&#45;IF_XCO_PRINTABLE -->
<g id="node39" class="node">
<title>INTF&#45;IF_XCO_PRINTABLE</title>
<g id="a_node39"><a xlink:href="./INTF_IF_XCO_PRINTABLE.html" xlink:title="INTF&#45;IF_XCO_PRINTABLE">
<polygon fill="none" stroke="green" points="670.05,-540 485.56,-540 485.56,-504 670.05,-504 670.05,-540"/>
<text text-anchor="middle" x="577.8" y="-517.8" font-family="Times,serif" font-size="14.00">INTF&#45;IF_XCO_PRINTABLE</text>
</a>
</g>
</g>
<!-- CLAS&#45;CL_XCO_ENUM_CONSTANT&#45;&gt;INTF&#45;IF_XCO_PRINTABLE -->
<g id="edge68" class="edge">
<title>CLAS&#45;CL_XCO_ENUM_CONSTANT&#45;&gt;INTF&#45;IF_XCO_PRINTABLE</title>
<path fill="none" stroke="black" d="M577.8,-575.7C577.8,-567.98 577.8,-558.71 577.8,-550.11"/>
<polygon fill="black" stroke="black" points="581.3,-550.1 577.8,-540.1 574.3,-550.1 581.3,-550.1"/>
</g>
<!-- INTF&#45;IF_XCO_PRINTABLE&#45;&gt;INTF&#45;IF_XCO_TEXT -->
<g id="edge69" class="edge">
<title>INTF&#45;IF_XCO_PRINTABLE&#45;&gt;INTF&#45;IF_XCO_TEXT</title>
<path fill="none" stroke="black" d="M635.72,-503.97C669.55,-494.01 712.42,-481.41 747.85,-470.99"/>
<polygon fill="black" stroke="black" points="749.02,-474.29 757.63,-468.11 747.05,-467.57 749.02,-474.29"/>
</g>
<!-- TABL&#45;SYMSG&#45;&gt;DTEL&#45;SYMSGNO -->
<g id="edge72" class="edge">
<title>TABL&#45;SYMSG&#45;&gt;DTEL&#45;SYMSGNO</title>
<path fill="none" stroke="black" d="M1210.65,-647.89C1211.25,-616.03 1216.82,-546.93 1251.8,-504 1262.86,-490.43 1278.24,-480.09 1293.96,-472.3"/>
<polygon fill="black" stroke="black" points="1295.63,-475.39 1303.23,-468.01 1292.69,-469.04 1295.63,-475.39"/>
</g>
<!-- TABL&#45;SYMSG&#45;&gt;DTEL&#45;SYMSGID -->
<g id="edge71" class="edge">
<title>TABL&#45;SYMSG&#45;&gt;DTEL&#45;SYMSGID</title>
<path fill="none" stroke="black" d="M1263.63,-655.29C1278.83,-652.7 1295.44,-650.05 1310.8,-648 1475.01,-626.1 1522.54,-657.59 1681.8,-612 1750.98,-592.2 1784.56,-598.25 1826.8,-540 1839.66,-522.27 1842.33,-497.25 1842.12,-478.26"/>
<polygon fill="black" stroke="black" points="1845.61,-478 1841.73,-468.14 1838.62,-478.26 1845.61,-478"/>
</g>
<!-- TABL&#45;SYMSG&#45;&gt;DTEL&#45;SYMSGTY -->
<g id="edge70" class="edge">
<title>TABL&#45;SYMSG&#45;&gt;DTEL&#45;SYMSGTY</title>
<path fill="none" stroke="black" d="M1192.76,-647.7C1183.74,-639.05 1172.69,-628.45 1162.86,-619.03"/>
<polygon fill="black" stroke="black" points="1165.28,-616.5 1155.64,-612.1 1160.44,-621.55 1165.28,-616.5"/>
</g>
<!-- TABL&#45;SYMSG&#45;&gt;DTEL&#45;SYMSGV -->
<g id="edge73" class="edge">
<title>TABL&#45;SYMSG&#45;&gt;DTEL&#45;SYMSGV</title>
<path fill="none" stroke="black" d="M1238.2,-647.88C1252.71,-638.81 1270.72,-627.55 1286.39,-617.76"/>
<polygon fill="black" stroke="black" points="1288.68,-620.46 1295.3,-612.19 1284.97,-614.52 1288.68,-620.46"/>
</g>
<!-- DOMA&#45;SOBJ_NAME -->
<g id="node42" class="node">
<title>DOMA&#45;SOBJ_NAME</title>
<g id="a_node42"><a xlink:href="./DOMA_SOBJ_NAME.html" xlink:title="DOMA&#45;SOBJ_NAME">
<polygon fill="none" stroke="yellow" points="1168.11,-828 1023.5,-828 1023.5,-792 1168.11,-792 1168.11,-828"/>
<text text-anchor="middle" x="1095.8" y="-805.8" font-family="Times,serif" font-size="14.00">DOMA&#45;SOBJ_NAME</text>
</a>
</g>
</g>
<!-- DTEL&#45;SOBJ_NAME&#45;&gt;DOMA&#45;SOBJ_NAME -->
<g id="edge74" class="edge">
<title>DTEL&#45;SOBJ_NAME&#45;&gt;DOMA&#45;SOBJ_NAME</title>
<path fill="none" stroke="black" d="M1093.55,-863.7C1093.88,-855.98 1094.27,-846.71 1094.64,-838.11"/>
<polygon fill="black" stroke="black" points="1098.14,-838.25 1095.07,-828.1 1091.15,-837.95 1098.14,-838.25"/>
</g>
<!-- DOMA&#45;OBJECT -->
<g id="node44" class="node">
<title>DOMA&#45;OBJECT</title>
<g id="a_node44"><a xlink:href="./DOMA_OBJECT.html" xlink:title="DOMA&#45;OBJECT">
<polygon fill="none" stroke="yellow" points="1304.06,-828 1189.55,-828 1189.55,-792 1304.06,-792 1304.06,-828"/>
<text text-anchor="middle" x="1246.8" y="-805.8" font-family="Times,serif" font-size="14.00">DOMA&#45;OBJECT</text>
</a>
</g>
</g>
<!-- DTEL&#45;TROBJTYPE&#45;&gt;DOMA&#45;OBJECT -->
<g id="edge75" class="edge">
<title>DTEL&#45;TROBJTYPE&#45;&gt;DOMA&#45;OBJECT</title>
<path fill="none" stroke="black" d="M1246.8,-863.7C1246.8,-855.98 1246.8,-846.71 1246.8,-838.11"/>
<polygon fill="black" stroke="black" points="1250.3,-838.1 1246.8,-828.1 1243.3,-838.1 1250.3,-838.1"/>
</g>
</g>
</svg>
