<?xml version="1.0" encoding="UTF-8" standalone="no"?>
<!DOCTYPE svg PUBLIC "-//W3C//DTD SVG 1.1//EN"
 "http://www.w3.org/Graphics/SVG/1.1/DTD/svg11.dtd">
<!-- Generated by graphviz version 2.47.3 (20210619.1520)
 -->
<!-- Title: G Pages: 1 -->
<svg width="2469pt" height="404pt"
 viewBox="0.00 0.00 2469.36 404.00" xmlns="http://www.w3.org/2000/svg" xmlns:xlink="http://www.w3.org/1999/xlink">
<g id="graph0" class="graph" transform="scale(1 1) rotate(0) translate(4 400)">
<title>G</title>
<polygon fill="white" stroke="transparent" points="-4,4 -4,-400 2465.36,-400 2465.36,4 -4,4"/>
<!-- TTYP&#45;APS_T_COM_CS_D2_INBOUND_TP -->
<g id="node1" class="node">
<title>TTYP&#45;APS_T_COM_CS_D2_INBOUND_TP</title>
<polygon fill="none" stroke="yellow" points="1126.28,-396 847.57,-396 847.57,-360 1126.28,-360 1126.28,-396"/>
<text text-anchor="middle" x="986.93" y="-373.8" font-family="Times,serif" font-size="14.00">TTYP&#45;APS_T_COM_CS_D2_INBOUND_TP</text>
</g>
<!-- TABL&#45;APS_S_COM_CS_D2_INBOUND_TP -->
<g id="node2" class="node">
<title>TABL&#45;APS_S_COM_CS_D2_INBOUND_TP</title>
<g id="a_node2"><a xlink:href="./TABL_APS_S_COM_CS_D2_INBOUND_TP.html" xlink:title="TABL&#45;APS_S_COM_CS_D2_INBOUND_TP">
<polygon fill="none" stroke="yellow" points="1126.57,-324 847.28,-324 847.28,-288 1126.57,-288 1126.57,-324"/>
<text text-anchor="middle" x="986.93" y="-301.8" font-family="Times,serif" font-size="14.00">TABL&#45;APS_S_COM_CS_D2_INBOUND_TP</text>
</a>
</g>
</g>
<!-- TTYP&#45;APS_T_COM_CS_D2_INBOUND_TP&#45;&gt;TABL&#45;APS_S_COM_CS_D2_INBOUND_TP -->
<g id="edge1" class="edge">
<title>TTYP&#45;APS_T_COM_CS_D2_INBOUND_TP&#45;&gt;TABL&#45;APS_S_COM_CS_D2_INBOUND_TP</title>
<path fill="none" stroke="black" d="M986.93,-359.7C986.93,-351.98 986.93,-342.71 986.93,-334.11"/>
<polygon fill="black" stroke="black" points="990.43,-334.1 986.93,-324.1 983.43,-334.1 990.43,-334.1"/>
</g>
<!-- TABL&#45;APS_S_COM_CS_D2_INBOUND_TP_D -->
<g id="node3" class="node">
<title>TABL&#45;APS_S_COM_CS_D2_INBOUND_TP_D</title>
<g id="a_node3"><a xlink:href="./TABL_APS_S_COM_CS_D2_INBOUND_TP_D.html" xlink:title="TABL&#45;APS_S_COM_CS_D2_INBOUND_TP_D">
<polygon fill="none" stroke="yellow" points="997.17,-252 700.68,-252 700.68,-216 997.17,-216 997.17,-252"/>
<text text-anchor="middle" x="848.93" y="-229.8" font-family="Times,serif" font-size="14.00">TABL&#45;APS_S_COM_CS_D2_INBOUND_TP_D</text>
</a>
</g>
</g>
<!-- TABL&#45;APS_S_COM_CS_D2_INBOUND_TP&#45;&gt;TABL&#45;APS_S_COM_CS_D2_INBOUND_TP_D -->
<g id="edge3" class="edge">
<title>TABL&#45;APS_S_COM_CS_D2_INBOUND_TP&#45;&gt;TABL&#45;APS_S_COM_CS_D2_INBOUND_TP_D</title>
<path fill="none" stroke="black" d="M953.17,-287.88C934.71,-278.51 911.64,-266.81 891.91,-256.8"/>
<polygon fill="black" stroke="black" points="893.32,-253.59 882.81,-252.19 890.15,-259.83 893.32,-253.59"/>
</g>
<!-- TABL&#45;/BOBF/S_FRW_KEY_INCL -->
<g id="node25" class="node">
<title>TABL&#45;/BOBF/S_FRW_KEY_INCL</title>
<g id="a_node25"><a xlink:href="./TABL_%23BOBF%23S_FRW_KEY_INCL.html" xlink:title="TABL&#45;/BOBF/S_FRW_KEY_INCL">
<polygon fill="none" stroke="yellow" points="1609.02,-252 1386.83,-252 1386.83,-216 1609.02,-216 1609.02,-252"/>
<text text-anchor="middle" x="1497.93" y="-229.8" font-family="Times,serif" font-size="14.00">TABL&#45;/BOBF/S_FRW_KEY_INCL</text>
</a>
</g>
</g>
<!-- TABL&#45;APS_S_COM_CS_D2_INBOUND_TP&#45;&gt;TABL&#45;/BOBF/S_FRW_KEY_INCL -->
<g id="edge2" class="edge">
<title>TABL&#45;APS_S_COM_CS_D2_INBOUND_TP&#45;&gt;TABL&#45;/BOBF/S_FRW_KEY_INCL</title>
<path fill="none" stroke="black" d="M1111.28,-287.97C1191.88,-276.92 1296.37,-262.61 1376.4,-251.65"/>
<polygon fill="black" stroke="black" points="1377.1,-255.08 1386.53,-250.26 1376.15,-248.15 1377.1,-255.08"/>
</g>
<!-- DTEL&#45;SDRAFT_IS_ACTIVE -->
<g id="node4" class="node">
<title>DTEL&#45;SDRAFT_IS_ACTIVE</title>
<g id="a_node4"><a xlink:href="./DTEL_SDRAFT_IS_ACTIVE.html" xlink:title="DTEL&#45;SDRAFT_IS_ACTIVE">
<polygon fill="none" stroke="yellow" points="187.78,-180 0.07,-180 0.07,-144 187.78,-144 187.78,-180"/>
<text text-anchor="middle" x="93.93" y="-157.8" font-family="Times,serif" font-size="14.00">DTEL&#45;SDRAFT_IS_ACTIVE</text>
</a>
</g>
</g>
<!-- TABL&#45;APS_S_COM_CS_D2_INBOUND_TP_D&#45;&gt;DTEL&#45;SDRAFT_IS_ACTIVE -->
<g id="edge11" class="edge">
<title>TABL&#45;APS_S_COM_CS_D2_INBOUND_TP_D&#45;&gt;DTEL&#45;SDRAFT_IS_ACTIVE</title>
<path fill="none" stroke="black" d="M700.65,-224.44C570.72,-216.13 376.61,-201.73 198.02,-180.08"/>
<polygon fill="black" stroke="black" points="198.25,-176.58 187.9,-178.84 197.41,-183.53 198.25,-176.58"/>
</g>
<!-- TABL&#45;SDRAFT_WRITE_DRAFT_ADMIN -->
<g id="node6" class="node">
<title>TABL&#45;SDRAFT_WRITE_DRAFT_ADMIN</title>
<g id="a_node6"><a xlink:href="./TABL_SDRAFT_WRITE_DRAFT_ADMIN.html" xlink:title="TABL&#45;SDRAFT_WRITE_DRAFT_ADMIN">
<polygon fill="none" stroke="yellow" points="1610.43,-180 1341.42,-180 1341.42,-144 1610.43,-144 1610.43,-180"/>
<text text-anchor="middle" x="1475.93" y="-157.8" font-family="Times,serif" font-size="14.00">TABL&#45;SDRAFT_WRITE_DRAFT_ADMIN</text>
</a>
</g>
</g>
<!-- TABL&#45;APS_S_COM_CS_D2_INBOUND_TP_D&#45;&gt;TABL&#45;SDRAFT_WRITE_DRAFT_ADMIN -->
<g id="edge10" class="edge">
<title>TABL&#45;APS_S_COM_CS_D2_INBOUND_TP_D&#45;&gt;TABL&#45;SDRAFT_WRITE_DRAFT_ADMIN</title>
<path fill="none" stroke="black" d="M997.52,-216.41C1098.35,-205.15 1231,-190.34 1331.04,-179.18"/>
<polygon fill="black" stroke="black" points="1331.68,-182.63 1341.23,-178.04 1330.9,-175.67 1331.68,-182.63"/>
</g>
<!-- DTEL&#45;SDRAFT_HAS_ACTIVE -->
<g id="node16" class="node">
<title>DTEL&#45;SDRAFT_HAS_ACTIVE</title>
<g id="a_node16"><a xlink:href="./DTEL_SDRAFT_HAS_ACTIVE.html" xlink:title="DTEL&#45;SDRAFT_HAS_ACTIVE">
<polygon fill="none" stroke="yellow" points="409.83,-180 206.02,-180 206.02,-144 409.83,-144 409.83,-180"/>
<text text-anchor="middle" x="307.93" y="-157.8" font-family="Times,serif" font-size="14.00">DTEL&#45;SDRAFT_HAS_ACTIVE</text>
</a>
</g>
</g>
<!-- TABL&#45;APS_S_COM_CS_D2_INBOUND_TP_D&#45;&gt;DTEL&#45;SDRAFT_HAS_ACTIVE -->
<g id="edge9" class="edge">
<title>TABL&#45;APS_S_COM_CS_D2_INBOUND_TP_D&#45;&gt;DTEL&#45;SDRAFT_HAS_ACTIVE</title>
<path fill="none" stroke="black" d="M702.01,-215.97C621.54,-206.39 519.79,-193.84 419.81,-180.1"/>
<polygon fill="black" stroke="black" points="420.21,-176.62 409.83,-178.73 419.26,-183.56 420.21,-176.62"/>
</g>
<!-- DTEL&#45;/BOBF/UUID -->
<g id="node17" class="node">
<title>DTEL&#45;/BOBF/UUID</title>
<g id="a_node17"><a xlink:href="./DTEL_%23BOBF%23UUID.html" xlink:title="DTEL&#45;/BOBF/UUID">
<polygon fill="none" stroke="yellow" points="2014.67,-180 1879.18,-180 1879.18,-144 2014.67,-144 2014.67,-180"/>
<text text-anchor="middle" x="1946.93" y="-157.8" font-family="Times,serif" font-size="14.00">DTEL&#45;/BOBF/UUID</text>
</a>
</g>
</g>
<!-- TABL&#45;APS_S_COM_CS_D2_INBOUND_TP_D&#45;&gt;DTEL&#45;/BOBF/UUID -->
<g id="edge8" class="edge">
<title>TABL&#45;APS_S_COM_CS_D2_INBOUND_TP_D&#45;&gt;DTEL&#45;/BOBF/UUID</title>
<path fill="none" stroke="black" d="M997.29,-223.54C1233.66,-208.47 1687.51,-179.54 1869.06,-167.96"/>
<polygon fill="black" stroke="black" points="1869.3,-171.46 1879.06,-167.33 1868.86,-164.47 1869.3,-171.46"/>
</g>
<!-- DTEL&#45;UNAME -->
<g id="node18" class="node">
<title>DTEL&#45;UNAME</title>
<g id="a_node18"><a xlink:href="./DTEL_UNAME.html" xlink:title="DTEL&#45;UNAME">
<polygon fill="none" stroke="yellow" points="535.67,-180 428.18,-180 428.18,-144 535.67,-144 535.67,-180"/>
<text text-anchor="middle" x="481.93" y="-157.8" font-family="Times,serif" font-size="14.00">DTEL&#45;UNAME</text>
</a>
</g>
</g>
<!-- TABL&#45;APS_S_COM_CS_D2_INBOUND_TP_D&#45;&gt;DTEL&#45;UNAME -->
<g id="edge7" class="edge">
<title>TABL&#45;APS_S_COM_CS_D2_INBOUND_TP_D&#45;&gt;DTEL&#45;UNAME</title>
<path fill="none" stroke="black" d="M736.91,-215.97C682,-207.02 614.73,-195.17 545.96,-180.13"/>
<polygon fill="black" stroke="black" points="546.32,-176.62 535.8,-177.88 544.81,-183.46 546.32,-176.62"/>
</g>
<!-- DTEL&#45;TIMESTAMPL -->
<g id="node20" class="node">
<title>DTEL&#45;TIMESTAMPL</title>
<g id="a_node20"><a xlink:href="./DTEL_TIMESTAMPL.html" xlink:title="DTEL&#45;TIMESTAMPL">
<polygon fill="none" stroke="green" points="1076.78,-180 931.07,-180 931.07,-144 1076.78,-144 1076.78,-180"/>
<text text-anchor="middle" x="1003.93" y="-157.8" font-family="Times,serif" font-size="14.00">DTEL&#45;TIMESTAMPL</text>
</a>
</g>
</g>
<!-- TABL&#45;APS_S_COM_CS_D2_INBOUND_TP_D&#45;&gt;DTEL&#45;TIMESTAMPL -->
<g id="edge6" class="edge">
<title>TABL&#45;APS_S_COM_CS_D2_INBOUND_TP_D&#45;&gt;DTEL&#45;TIMESTAMPL</title>
<path fill="none" stroke="black" d="M886.84,-215.88C907.94,-206.35 934.38,-194.41 956.8,-184.28"/>
<polygon fill="black" stroke="black" points="958.46,-187.37 966.13,-180.07 955.58,-180.99 958.46,-187.37"/>
</g>
<!-- DTEL&#45;APS_CS_SYS_AUTH_MC -->
<g id="node21" class="node">
<title>DTEL&#45;APS_CS_SYS_AUTH_MC</title>
<g id="a_node21"><a xlink:href="./DTEL_APS_CS_SYS_AUTH_MC.html" xlink:title="DTEL&#45;APS_CS_SYS_AUTH_MC">
<polygon fill="none" stroke="yellow" points="767.47,-180 554.38,-180 554.38,-144 767.47,-144 767.47,-180"/>
<text text-anchor="middle" x="660.93" y="-157.8" font-family="Times,serif" font-size="14.00">DTEL&#45;APS_CS_SYS_AUTH_MC</text>
</a>
</g>
</g>
<!-- TABL&#45;APS_S_COM_CS_D2_INBOUND_TP_D&#45;&gt;DTEL&#45;APS_CS_SYS_AUTH_MC -->
<g id="edge5" class="edge">
<title>TABL&#45;APS_S_COM_CS_D2_INBOUND_TP_D&#45;&gt;DTEL&#45;APS_CS_SYS_AUTH_MC</title>
<path fill="none" stroke="black" d="M802.94,-215.88C776.78,-206.14 743.84,-193.87 716.27,-183.61"/>
<polygon fill="black" stroke="black" points="717.36,-180.28 706.77,-180.07 714.92,-186.84 717.36,-180.28"/>
</g>
<!-- DTEL&#45;XUBNAME -->
<g id="node23" class="node">
<title>DTEL&#45;XUBNAME</title>
<g id="a_node23"><a xlink:href="./DTEL_XUBNAME.html" xlink:title="DTEL&#45;XUBNAME">
<polygon fill="none" stroke="yellow" points="912.61,-180 785.24,-180 785.24,-144 912.61,-144 912.61,-180"/>
<text text-anchor="middle" x="848.93" y="-157.8" font-family="Times,serif" font-size="14.00">DTEL&#45;XUBNAME</text>
</a>
</g>
</g>
<!-- TABL&#45;APS_S_COM_CS_D2_INBOUND_TP_D&#45;&gt;DTEL&#45;XUBNAME -->
<g id="edge4" class="edge">
<title>TABL&#45;APS_S_COM_CS_D2_INBOUND_TP_D&#45;&gt;DTEL&#45;XUBNAME</title>
<path fill="none" stroke="black" d="M848.93,-215.7C848.93,-207.98 848.93,-198.71 848.93,-190.11"/>
<polygon fill="black" stroke="black" points="852.43,-190.1 848.93,-180.1 845.43,-190.1 852.43,-190.1"/>
</g>
<!-- DOMA&#45;BOOLE -->
<g id="node5" class="node">
<title>DOMA&#45;BOOLE</title>
<g id="a_node5"><a xlink:href="./DOMA_BOOLE.html" xlink:title="DOMA&#45;BOOLE">
<polygon fill="none" stroke="yellow" points="256.01,-108 145.85,-108 145.85,-72 256.01,-72 256.01,-108"/>
<text text-anchor="middle" x="200.93" y="-85.8" font-family="Times,serif" font-size="14.00">DOMA&#45;BOOLE</text>
</a>
</g>
</g>
<!-- DTEL&#45;SDRAFT_IS_ACTIVE&#45;&gt;DOMA&#45;BOOLE -->
<g id="edge12" class="edge">
<title>DTEL&#45;SDRAFT_IS_ACTIVE&#45;&gt;DOMA&#45;BOOLE</title>
<path fill="none" stroke="black" d="M120.1,-143.88C133.96,-134.81 151.17,-123.55 166.14,-113.76"/>
<polygon fill="black" stroke="black" points="168.2,-116.59 174.65,-108.19 164.37,-110.74 168.2,-116.59"/>
</g>
<!-- DTEL&#45;SDRAFT_OPERATION_CODE -->
<g id="node7" class="node">
<title>DTEL&#45;SDRAFT_OPERATION_CODE</title>
<g id="a_node7"><a xlink:href="./DTEL_SDRAFT_OPERATION_CODE.html" xlink:title="DTEL&#45;SDRAFT_OPERATION_CODE">
<polygon fill="none" stroke="yellow" points="2000.43,-108 1759.42,-108 1759.42,-72 2000.43,-72 2000.43,-108"/>
<text text-anchor="middle" x="1879.93" y="-85.8" font-family="Times,serif" font-size="14.00">DTEL&#45;SDRAFT_OPERATION_CODE</text>
</a>
</g>
</g>
<!-- TABL&#45;SDRAFT_WRITE_DRAFT_ADMIN&#45;&gt;DTEL&#45;SDRAFT_OPERATION_CODE -->
<g id="edge17" class="edge">
<title>TABL&#45;SDRAFT_WRITE_DRAFT_ADMIN&#45;&gt;DTEL&#45;SDRAFT_OPERATION_CODE</title>
<path fill="none" stroke="black" d="M1574.24,-143.97C1633.86,-133.63 1710.03,-120.44 1771.41,-109.8"/>
<polygon fill="black" stroke="black" points="1772.27,-113.21 1781.52,-108.05 1771.07,-106.31 1772.27,-113.21"/>
</g>
<!-- DTEL&#45;SDRAFT_CONSISTENCY_STATUS -->
<g id="node9" class="node">
<title>DTEL&#45;SDRAFT_CONSISTENCY_STATUS</title>
<g id="a_node9"><a xlink:href="./DTEL_SDRAFT_CONSISTENCY_STATUS.html" xlink:title="DTEL&#45;SDRAFT_CONSISTENCY_STATUS">
<polygon fill="none" stroke="yellow" points="1741.83,-108 1468.02,-108 1468.02,-72 1741.83,-72 1741.83,-108"/>
<text text-anchor="middle" x="1604.93" y="-85.8" font-family="Times,serif" font-size="14.00">DTEL&#45;SDRAFT_CONSISTENCY_STATUS</text>
</a>
</g>
</g>
<!-- TABL&#45;SDRAFT_WRITE_DRAFT_ADMIN&#45;&gt;DTEL&#45;SDRAFT_CONSISTENCY_STATUS -->
<g id="edge16" class="edge">
<title>TABL&#45;SDRAFT_WRITE_DRAFT_ADMIN&#45;&gt;DTEL&#45;SDRAFT_CONSISTENCY_STATUS</title>
<path fill="none" stroke="black" d="M1507.48,-143.88C1524.58,-134.6 1545.91,-123.03 1564.24,-113.08"/>
<polygon fill="black" stroke="black" points="1566.13,-116.04 1573.25,-108.19 1562.79,-109.88 1566.13,-116.04"/>
</g>
<!-- DTEL&#45;SDRAFT_ADMIN_UUID -->
<g id="node11" class="node">
<title>DTEL&#45;SDRAFT_ADMIN_UUID</title>
<g id="a_node11"><a xlink:href="./DTEL_SDRAFT_ADMIN_UUID.html" xlink:title="DTEL&#45;SDRAFT_ADMIN_UUID">
<polygon fill="none" stroke="yellow" points="2225.42,-108 2018.43,-108 2018.43,-72 2225.42,-72 2225.42,-108"/>
<text text-anchor="middle" x="2121.93" y="-85.8" font-family="Times,serif" font-size="14.00">DTEL&#45;SDRAFT_ADMIN_UUID</text>
</a>
</g>
</g>
<!-- TABL&#45;SDRAFT_WRITE_DRAFT_ADMIN&#45;&gt;DTEL&#45;SDRAFT_ADMIN_UUID -->
<g id="edge15" class="edge">
<title>TABL&#45;SDRAFT_WRITE_DRAFT_ADMIN&#45;&gt;DTEL&#45;SDRAFT_ADMIN_UUID</title>
<path fill="none" stroke="black" d="M1610.56,-149.58C1716.13,-140.17 1867,-125.71 2008.36,-108.16"/>
<polygon fill="black" stroke="black" points="2009.03,-111.61 2018.52,-106.9 2008.16,-104.66 2009.03,-111.61"/>
</g>
<!-- DTEL&#45;SDRAFT_LAST_CHANGED_AT -->
<g id="node13" class="node">
<title>DTEL&#45;SDRAFT_LAST_CHANGED_AT</title>
<g id="a_node13"><a xlink:href="./DTEL_SDRAFT_LAST_CHANGED_AT.html" xlink:title="DTEL&#45;SDRAFT_LAST_CHANGED_AT">
<polygon fill="none" stroke="yellow" points="1225.59,-108 972.26,-108 972.26,-72 1225.59,-72 1225.59,-108"/>
<text text-anchor="middle" x="1098.93" y="-85.8" font-family="Times,serif" font-size="14.00">DTEL&#45;SDRAFT_LAST_CHANGED_AT</text>
</a>
</g>
</g>
<!-- TABL&#45;SDRAFT_WRITE_DRAFT_ADMIN&#45;&gt;DTEL&#45;SDRAFT_LAST_CHANGED_AT -->
<g id="edge14" class="edge">
<title>TABL&#45;SDRAFT_WRITE_DRAFT_ADMIN&#45;&gt;DTEL&#45;SDRAFT_LAST_CHANGED_AT</title>
<path fill="none" stroke="black" d="M1384.18,-143.97C1328.77,-133.68 1258.05,-120.55 1200.9,-109.93"/>
<polygon fill="black" stroke="black" points="1201.22,-106.43 1190.75,-108.05 1199.95,-113.32 1201.22,-106.43"/>
</g>
<!-- DTEL&#45;SDRAFT_CREATED_AT -->
<g id="node15" class="node">
<title>DTEL&#45;SDRAFT_CREATED_AT</title>
<g id="a_node15"><a xlink:href="./DTEL_SDRAFT_CREATED_AT.html" xlink:title="DTEL&#45;SDRAFT_CREATED_AT">
<polygon fill="none" stroke="yellow" points="1450.72,-108 1243.13,-108 1243.13,-72 1450.72,-72 1450.72,-108"/>
<text text-anchor="middle" x="1346.93" y="-85.8" font-family="Times,serif" font-size="14.00">DTEL&#45;SDRAFT_CREATED_AT</text>
</a>
</g>
</g>
<!-- TABL&#45;SDRAFT_WRITE_DRAFT_ADMIN&#45;&gt;DTEL&#45;SDRAFT_CREATED_AT -->
<g id="edge13" class="edge">
<title>TABL&#45;SDRAFT_WRITE_DRAFT_ADMIN&#45;&gt;DTEL&#45;SDRAFT_CREATED_AT</title>
<path fill="none" stroke="black" d="M1444.37,-143.88C1427.27,-134.6 1405.94,-123.03 1387.61,-113.08"/>
<polygon fill="black" stroke="black" points="1389.06,-109.88 1378.6,-108.19 1385.72,-116.04 1389.06,-109.88"/>
</g>
<!-- DOMA&#45;SDRAFT_OPERATION_CODE -->
<g id="node8" class="node">
<title>DOMA&#45;SDRAFT_OPERATION_CODE</title>
<g id="a_node8"><a xlink:href="./DOMA_SDRAFT_OPERATION_CODE.html" xlink:title="DOMA&#45;SDRAFT_OPERATION_CODE">
<polygon fill="none" stroke="yellow" points="2006.93,-36 1758.92,-36 1758.92,0 2006.93,0 2006.93,-36"/>
<text text-anchor="middle" x="1882.93" y="-13.8" font-family="Times,serif" font-size="14.00">DOMA&#45;SDRAFT_OPERATION_CODE</text>
</a>
</g>
</g>
<!-- DTEL&#45;SDRAFT_OPERATION_CODE&#45;&gt;DOMA&#45;SDRAFT_OPERATION_CODE -->
<g id="edge18" class="edge">
<title>DTEL&#45;SDRAFT_OPERATION_CODE&#45;&gt;DOMA&#45;SDRAFT_OPERATION_CODE</title>
<path fill="none" stroke="black" d="M1880.67,-71.7C1881,-63.98 1881.4,-54.71 1881.76,-46.11"/>
<polygon fill="black" stroke="black" points="1885.26,-46.25 1882.19,-36.1 1878.27,-45.95 1885.26,-46.25"/>
</g>
<!-- DOMA&#45;SDRAFT_CONSISTENCY_STATUS -->
<g id="node10" class="node">
<title>DOMA&#45;SDRAFT_CONSISTENCY_STATUS</title>
<g id="a_node10"><a xlink:href="./DOMA_SDRAFT_CONSISTENCY_STATUS.html" xlink:title="DOMA&#45;SDRAFT_CONSISTENCY_STATUS">
<polygon fill="none" stroke="yellow" points="1741.33,-36 1460.52,-36 1460.52,0 1741.33,0 1741.33,-36"/>
<text text-anchor="middle" x="1600.93" y="-13.8" font-family="Times,serif" font-size="14.00">DOMA&#45;SDRAFT_CONSISTENCY_STATUS</text>
</a>
</g>
</g>
<!-- DTEL&#45;SDRAFT_CONSISTENCY_STATUS&#45;&gt;DOMA&#45;SDRAFT_CONSISTENCY_STATUS -->
<g id="edge19" class="edge">
<title>DTEL&#45;SDRAFT_CONSISTENCY_STATUS&#45;&gt;DOMA&#45;SDRAFT_CONSISTENCY_STATUS</title>
<path fill="none" stroke="black" d="M1603.94,-71.7C1603.5,-63.98 1602.97,-54.71 1602.47,-46.11"/>
<polygon fill="black" stroke="black" points="1605.97,-45.89 1601.9,-36.1 1598.98,-46.29 1605.97,-45.89"/>
</g>
<!-- DOMA&#45;SYSUUID -->
<g id="node12" class="node">
<title>DOMA&#45;SYSUUID</title>
<g id="a_node12"><a xlink:href="./DOMA_SYSUUID.html" xlink:title="DOMA&#45;SYSUUID">
<polygon fill="none" stroke="yellow" points="2249,-36 2124.85,-36 2124.85,0 2249,0 2249,-36"/>
<text text-anchor="middle" x="2186.93" y="-13.8" font-family="Times,serif" font-size="14.00">DOMA&#45;SYSUUID</text>
</a>
</g>
</g>
<!-- DTEL&#45;SDRAFT_ADMIN_UUID&#45;&gt;DOMA&#45;SYSUUID -->
<g id="edge20" class="edge">
<title>DTEL&#45;SDRAFT_ADMIN_UUID&#45;&gt;DOMA&#45;SYSUUID</title>
<path fill="none" stroke="black" d="M2137.99,-71.7C2145.86,-63.22 2155.48,-52.86 2164.1,-43.58"/>
<polygon fill="black" stroke="black" points="2166.8,-45.81 2171.04,-36.1 2161.67,-41.05 2166.8,-45.81"/>
</g>
<!-- DOMA&#45;TZNTSTMPL -->
<g id="node14" class="node">
<title>DOMA&#45;TZNTSTMPL</title>
<g id="a_node14"><a xlink:href="./DOMA_TZNTSTMPL.html" xlink:title="DOMA&#45;TZNTSTMPL">
<polygon fill="none" stroke="yellow" points="1171.23,-36 1026.62,-36 1026.62,0 1171.23,0 1171.23,-36"/>
<text text-anchor="middle" x="1098.93" y="-13.8" font-family="Times,serif" font-size="14.00">DOMA&#45;TZNTSTMPL</text>
</a>
</g>
</g>
<!-- DTEL&#45;SDRAFT_LAST_CHANGED_AT&#45;&gt;DOMA&#45;TZNTSTMPL -->
<g id="edge21" class="edge">
<title>DTEL&#45;SDRAFT_LAST_CHANGED_AT&#45;&gt;DOMA&#45;TZNTSTMPL</title>
<path fill="none" stroke="black" d="M1098.93,-71.7C1098.93,-63.98 1098.93,-54.71 1098.93,-46.11"/>
<polygon fill="black" stroke="black" points="1102.43,-46.1 1098.93,-36.1 1095.43,-46.1 1102.43,-46.1"/>
</g>
<!-- DTEL&#45;SDRAFT_CREATED_AT&#45;&gt;DOMA&#45;TZNTSTMPL -->
<g id="edge22" class="edge">
<title>DTEL&#45;SDRAFT_CREATED_AT&#45;&gt;DOMA&#45;TZNTSTMPL</title>
<path fill="none" stroke="black" d="M1286.58,-71.97C1251.17,-61.97 1206.27,-49.3 1169.27,-38.85"/>
<polygon fill="black" stroke="black" points="1170.12,-35.46 1159.55,-36.11 1168.22,-42.2 1170.12,-35.46"/>
</g>
<!-- DTEL&#45;SDRAFT_HAS_ACTIVE&#45;&gt;DOMA&#45;BOOLE -->
<g id="edge23" class="edge">
<title>DTEL&#45;SDRAFT_HAS_ACTIVE&#45;&gt;DOMA&#45;BOOLE</title>
<path fill="none" stroke="black" d="M281.75,-143.88C267.89,-134.81 250.68,-123.55 235.71,-113.76"/>
<polygon fill="black" stroke="black" points="237.49,-110.74 227.2,-108.19 233.65,-116.59 237.49,-110.74"/>
</g>
<!-- DTEL&#45;/BOBF/UUID&#45;&gt;DOMA&#45;SYSUUID -->
<g id="edge24" class="edge">
<title>DTEL&#45;/BOBF/UUID&#45;&gt;DOMA&#45;SYSUUID</title>
<path fill="none" stroke="black" d="M2014.68,-158.18C2090.58,-153.43 2206.58,-140.86 2233.93,-108 2250.21,-88.44 2232.74,-62.32 2214.67,-43.44"/>
<polygon fill="black" stroke="black" points="2217.07,-40.9 2207.51,-36.34 2212.14,-45.87 2217.07,-40.9"/>
</g>
<!-- DOMA&#45;UNAME -->
<g id="node19" class="node">
<title>DOMA&#45;UNAME</title>
<g id="a_node19"><a xlink:href="./DOMA_UNAME.html" xlink:title="DOMA&#45;UNAME">
<polygon fill="none" stroke="yellow" points="525.17,-108 410.68,-108 410.68,-72 525.17,-72 525.17,-108"/>
<text text-anchor="middle" x="467.93" y="-85.8" font-family="Times,serif" font-size="14.00">DOMA&#45;UNAME</text>
</a>
</g>
</g>
<!-- DTEL&#45;UNAME&#45;&gt;DOMA&#45;UNAME -->
<g id="edge25" class="edge">
<title>DTEL&#45;UNAME&#45;&gt;DOMA&#45;UNAME</title>
<path fill="none" stroke="black" d="M478.47,-143.7C476.92,-135.98 475.07,-126.71 473.35,-118.11"/>
<polygon fill="black" stroke="black" points="476.74,-117.22 471.35,-108.1 469.88,-118.6 476.74,-117.22"/>
</g>
<!-- DTEL&#45;TIMESTAMPL&#45;&gt;DOMA&#45;TZNTSTMPL -->
<g id="edge26" class="edge">
<title>DTEL&#45;TIMESTAMPL&#45;&gt;DOMA&#45;TZNTSTMPL</title>
<path fill="none" stroke="black" d="M985.75,-143.7C968.44,-125.08 947.18,-95.03 962.93,-72 975.64,-53.4 995.92,-41.33 1016.98,-33.5"/>
<polygon fill="black" stroke="black" points="1018.35,-36.73 1026.68,-30.19 1016.09,-30.1 1018.35,-36.73"/>
</g>
<!-- DOMA&#45;APS_CS_SYS_AUTH_MC -->
<g id="node22" class="node">
<title>DOMA&#45;APS_CS_SYS_AUTH_MC</title>
<g id="a_node22"><a xlink:href="./DOMA_APS_CS_SYS_AUTH_MC.html" xlink:title="DOMA&#45;APS_CS_SYS_AUTH_MC">
<polygon fill="none" stroke="yellow" points="763.97,-108 543.88,-108 543.88,-72 763.97,-72 763.97,-108"/>
<text text-anchor="middle" x="653.93" y="-85.8" font-family="Times,serif" font-size="14.00">DOMA&#45;APS_CS_SYS_AUTH_MC</text>
</a>
</g>
</g>
<!-- DTEL&#45;APS_CS_SYS_AUTH_MC&#45;&gt;DOMA&#45;APS_CS_SYS_AUTH_MC -->
<g id="edge27" class="edge">
<title>DTEL&#45;APS_CS_SYS_AUTH_MC&#45;&gt;DOMA&#45;APS_CS_SYS_AUTH_MC</title>
<path fill="none" stroke="black" d="M659.2,-143.7C658.42,-135.98 657.5,-126.71 656.64,-118.11"/>
<polygon fill="black" stroke="black" points="660.11,-117.71 655.64,-108.1 653.15,-118.4 660.11,-117.71"/>
</g>
<!-- DOMA&#45;XUBNAME -->
<g id="node24" class="node">
<title>DOMA&#45;XUBNAME</title>
<g id="a_node24"><a xlink:href="./DOMA_XUBNAME.html" xlink:title="DOMA&#45;XUBNAME">
<polygon fill="none" stroke="yellow" points="916.11,-108 781.74,-108 781.74,-72 916.11,-72 916.11,-108"/>
<text text-anchor="middle" x="848.93" y="-85.8" font-family="Times,serif" font-size="14.00">DOMA&#45;XUBNAME</text>
</a>
</g>
</g>
<!-- DTEL&#45;XUBNAME&#45;&gt;DOMA&#45;XUBNAME -->
<g id="edge28" class="edge">
<title>DTEL&#45;XUBNAME&#45;&gt;DOMA&#45;XUBNAME</title>
<path fill="none" stroke="black" d="M848.93,-143.7C848.93,-135.98 848.93,-126.71 848.93,-118.11"/>
<polygon fill="black" stroke="black" points="852.43,-118.1 848.93,-108.1 845.43,-118.1 852.43,-118.1"/>
</g>
<!-- DTEL&#45;/BOBF/CONF_KEY -->
<g id="node26" class="node">
<title>DTEL&#45;/BOBF/CONF_KEY</title>
<g id="a_node26"><a xlink:href="./DTEL_%23BOBF%23CONF_KEY.html" xlink:title="DTEL&#45;/BOBF/CONF_KEY">
<polygon fill="none" stroke="yellow" points="2331.79,-180 2158.06,-180 2158.06,-144 2331.79,-144 2331.79,-180"/>
<text text-anchor="middle" x="2244.93" y="-157.8" font-family="Times,serif" font-size="14.00">DTEL&#45;/BOBF/CONF_KEY</text>
</a>
</g>
</g>
<!-- TABL&#45;/BOBF/S_FRW_KEY_INCL&#45;&gt;DTEL&#45;/BOBF/CONF_KEY -->
<g id="edge29" class="edge">
<title>TABL&#45;/BOBF/S_FRW_KEY_INCL&#45;&gt;DTEL&#45;/BOBF/CONF_KEY</title>
<path fill="none" stroke="black" d="M1609.36,-222.56C1755.37,-208.87 2009.12,-185.1 2147.71,-172.11"/>
<polygon fill="black" stroke="black" points="2148.27,-175.57 2157.9,-171.16 2147.62,-168.6 2148.27,-175.57"/>
</g>
<!-- DOMA&#45;/BOBF/CONF_KEY -->
<g id="node27" class="node">
<title>DOMA&#45;/BOBF/CONF_KEY</title>
<g id="a_node27"><a xlink:href="./DOMA_%23BOBF%23CONF_KEY.html" xlink:title="DOMA&#45;/BOBF/CONF_KEY">
<polygon fill="none" stroke="yellow" points="2461.29,-108 2280.56,-108 2280.56,-72 2461.29,-72 2461.29,-108"/>
<text text-anchor="middle" x="2370.93" y="-85.8" font-family="Times,serif" font-size="14.00">DOMA&#45;/BOBF/CONF_KEY</text>
</a>
</g>
</g>
<!-- DTEL&#45;/BOBF/CONF_KEY&#45;&gt;DOMA&#45;/BOBF/CONF_KEY -->
<g id="edge30" class="edge">
<title>DTEL&#45;/BOBF/CONF_KEY&#45;&gt;DOMA&#45;/BOBF/CONF_KEY</title>
<path fill="none" stroke="black" d="M2275.75,-143.88C2292.38,-134.64 2313.09,-123.13 2330.94,-113.21"/>
<polygon fill="black" stroke="black" points="2332.94,-116.11 2339.98,-108.19 2329.54,-109.99 2332.94,-116.11"/>
</g>
</g>
</svg>
