<?xml version="1.0" encoding="UTF-8" standalone="no"?>
<!DOCTYPE svg PUBLIC "-//W3C//DTD SVG 1.1//EN"
 "http://www.w3.org/Graphics/SVG/1.1/DTD/svg11.dtd">
<!-- Generated by graphviz version 2.47.3 (20210619.1520)
 -->
<!-- Title: G Pages: 1 -->
<svg width="269pt" height="260pt"
 viewBox="0.00 0.00 268.98 260.00" xmlns="http://www.w3.org/2000/svg" xmlns:xlink="http://www.w3.org/1999/xlink">
<g id="graph0" class="graph" transform="scale(1 1) rotate(0) translate(4 256)">
<title>G</title>
<polygon fill="white" stroke="transparent" points="-4,4 -4,-256 264.98,-256 264.98,4 -4,4"/>
<!-- TTYP&#45;ABP_BEHV_PERMISSIONS_TAB -->
<g id="node1" class="node">
<title>TTYP&#45;ABP_BEHV_PERMISSIONS_TAB</title>
<polygon fill="none" stroke="green" points="260.97,-252 0.01,-252 0.01,-216 260.97,-216 260.97,-252"/>
<text text-anchor="middle" x="130.49" y="-229.8" font-family="Times,serif" font-size="14.00">TTYP&#45;ABP_BEHV_PERMISSIONS_TAB</text>
</g>
<!-- TABL&#45;ABP_BEHV_PERMISSIONS -->
<g id="node2" class="node">
<title>TABL&#45;ABP_BEHV_PERMISSIONS</title>
<g id="a_node2"><a xlink:href="./TABL_ABP_BEHV_PERMISSIONS.html" xlink:title="TABL&#45;ABP_BEHV_PERMISSIONS">
<polygon fill="none" stroke="green" points="244.03,-180 16.95,-180 16.95,-144 244.03,-144 244.03,-180"/>
<text text-anchor="middle" x="130.49" y="-157.8" font-family="Times,serif" font-size="14.00">TABL&#45;ABP_BEHV_PERMISSIONS</text>
</a>
</g>
</g>
<!-- TTYP&#45;ABP_BEHV_PERMISSIONS_TAB&#45;&gt;TABL&#45;ABP_BEHV_PERMISSIONS -->
<g id="edge1" class="edge">
<title>TTYP&#45;ABP_BEHV_PERMISSIONS_TAB&#45;&gt;TABL&#45;ABP_BEHV_PERMISSIONS</title>
<path fill="none" stroke="black" d="M130.49,-215.7C130.49,-207.98 130.49,-198.71 130.49,-190.11"/>
<polygon fill="black" stroke="black" points="133.99,-190.1 130.49,-180.1 126.99,-190.1 133.99,-190.1"/>
</g>
<!-- DTEL&#45;ABP_ENTITY_NAME -->
<g id="node3" class="node">
<title>DTEL&#45;ABP_ENTITY_NAME</title>
<g id="a_node3"><a xlink:href="./DTEL_ABP_ENTITY_NAME.html" xlink:title="DTEL&#45;ABP_ENTITY_NAME">
<polygon fill="none" stroke="green" points="225.38,-108 35.6,-108 35.6,-72 225.38,-72 225.38,-108"/>
<text text-anchor="middle" x="130.49" y="-85.8" font-family="Times,serif" font-size="14.00">DTEL&#45;ABP_ENTITY_NAME</text>
</a>
</g>
</g>
<!-- TABL&#45;ABP_BEHV_PERMISSIONS&#45;&gt;DTEL&#45;ABP_ENTITY_NAME -->
<g id="edge2" class="edge">
<title>TABL&#45;ABP_BEHV_PERMISSIONS&#45;&gt;DTEL&#45;ABP_ENTITY_NAME</title>
<path fill="none" stroke="black" d="M130.49,-143.7C130.49,-135.98 130.49,-126.71 130.49,-118.11"/>
<polygon fill="black" stroke="black" points="133.99,-118.1 130.49,-108.1 126.99,-118.1 133.99,-118.1"/>
</g>
<!-- DOMA&#45;ABP_ENTITY_NAME -->
<g id="node4" class="node">
<title>DOMA&#45;ABP_ENTITY_NAME</title>
<g id="a_node4"><a xlink:href="./DOMA_ABP_ENTITY_NAME.html" xlink:title="DOMA&#45;ABP_ENTITY_NAME">
<polygon fill="none" stroke="yellow" points="228.88,-36 32.1,-36 32.1,0 228.88,0 228.88,-36"/>
<text text-anchor="middle" x="130.49" y="-13.8" font-family="Times,serif" font-size="14.00">DOMA&#45;ABP_ENTITY_NAME</text>
</a>
</g>
</g>
<!-- DTEL&#45;ABP_ENTITY_NAME&#45;&gt;DOMA&#45;ABP_ENTITY_NAME -->
<g id="edge3" class="edge">
<title>DTEL&#45;ABP_ENTITY_NAME&#45;&gt;DOMA&#45;ABP_ENTITY_NAME</title>
<path fill="none" stroke="black" d="M130.49,-71.7C130.49,-63.98 130.49,-54.71 130.49,-46.11"/>
<polygon fill="black" stroke="black" points="133.99,-46.1 130.49,-36.1 126.99,-46.1 133.99,-46.1"/>
</g>
</g>
</svg>
