<?xml version="1.0" encoding="UTF-8" standalone="no"?>
<!DOCTYPE svg PUBLIC "-//W3C//DTD SVG 1.1//EN"
 "http://www.w3.org/Graphics/SVG/1.1/DTD/svg11.dtd">
<!-- Generated by graphviz version 2.47.3 (20210619.1520)
 -->
<!-- Title: G Pages: 1 -->
<svg width="204pt" height="188pt"
 viewBox="0.00 0.00 204.41 188.00" xmlns="http://www.w3.org/2000/svg" xmlns:xlink="http://www.w3.org/1999/xlink">
<g id="graph0" class="graph" transform="scale(1 1) rotate(0) translate(4 184)">
<title>G</title>
<polygon fill="white" stroke="transparent" points="-4,4 -4,-184 200.41,-184 200.41,4 -4,4"/>
<!-- TTYP&#45;CMIS_T_MAP -->
<g id="node1" class="node">
<title>TTYP&#45;CMIS_T_MAP</title>
<polygon fill="none" stroke="green" points="169.47,-180 26.94,-180 26.94,-144 169.47,-144 169.47,-180"/>
<text text-anchor="middle" x="98.2" y="-157.8" font-family="Times,serif" font-size="14.00">TTYP&#45;CMIS_T_MAP</text>
</g>
<!-- TABL&#45;CMIS_S_KEY_VALUE -->
<g id="node2" class="node">
<title>TABL&#45;CMIS_S_KEY_VALUE</title>
<g id="a_node2"><a xlink:href="./TABL_CMIS_S_KEY_VALUE.html" xlink:title="TABL&#45;CMIS_S_KEY_VALUE">
<polygon fill="none" stroke="green" points="196.61,-108 -0.2,-108 -0.2,-72 196.61,-72 196.61,-108"/>
<text text-anchor="middle" x="98.2" y="-85.8" font-family="Times,serif" font-size="14.00">TABL&#45;CMIS_S_KEY_VALUE</text>
</a>
</g>
</g>
<!-- TTYP&#45;CMIS_T_MAP&#45;&gt;TABL&#45;CMIS_S_KEY_VALUE -->
<g id="edge1" class="edge">
<title>TTYP&#45;CMIS_T_MAP&#45;&gt;TABL&#45;CMIS_S_KEY_VALUE</title>
<path fill="none" stroke="black" d="M98.2,-143.7C98.2,-135.98 98.2,-126.71 98.2,-118.11"/>
<polygon fill="black" stroke="black" points="101.7,-118.1 98.2,-108.1 94.7,-118.1 101.7,-118.1"/>
</g>
<!-- DTEL&#45;CMIS_STRING -->
<g id="node3" class="node">
<title>DTEL&#45;CMIS_STRING</title>
<g id="a_node3"><a xlink:href="./DTEL_CMIS_STRING.html" xlink:title="DTEL&#45;CMIS_STRING">
<polygon fill="none" stroke="green" points="172.4,-36 24.01,-36 24.01,0 172.4,0 172.4,-36"/>
<text text-anchor="middle" x="98.2" y="-13.8" font-family="Times,serif" font-size="14.00">DTEL&#45;CMIS_STRING</text>
</a>
</g>
</g>
<!-- TABL&#45;CMIS_S_KEY_VALUE&#45;&gt;DTEL&#45;CMIS_STRING -->
<g id="edge2" class="edge">
<title>TABL&#45;CMIS_S_KEY_VALUE&#45;&gt;DTEL&#45;CMIS_STRING</title>
<path fill="none" stroke="black" d="M98.2,-71.7C98.2,-63.98 98.2,-54.71 98.2,-46.11"/>
<polygon fill="black" stroke="black" points="101.7,-46.1 98.2,-36.1 94.7,-46.1 101.7,-46.1"/>
</g>
</g>
</svg>
