<?xml version="1.0" encoding="UTF-8" standalone="no"?>
<!DOCTYPE svg PUBLIC "-//W3C//DTD SVG 1.1//EN"
 "http://www.w3.org/Graphics/SVG/1.1/DTD/svg11.dtd">
<!-- Generated by graphviz version 2.47.3 (20210619.1520)
 -->
<!-- Title: G Pages: 1 -->
<svg width="2927pt" height="404pt"
 viewBox="0.00 0.00 2927.19 404.00" xmlns="http://www.w3.org/2000/svg" xmlns:xlink="http://www.w3.org/1999/xlink">
<g id="graph0" class="graph" transform="scale(1 1) rotate(0) translate(4 400)">
<title>G</title>
<polygon fill="white" stroke="transparent" points="-4,4 -4,-400 2923.19,-400 2923.19,4 -4,4"/>
<!-- TTYP&#45;ITAPS_COM_CA_INB_SRV_TP -->
<g id="node1" class="node">
<title>TTYP&#45;ITAPS_COM_CA_INB_SRV_TP</title>
<polygon fill="none" stroke="yellow" points="2118.29,-396 1870.22,-396 1870.22,-360 2118.29,-360 2118.29,-396"/>
<text text-anchor="middle" x="1994.25" y="-373.8" font-family="Times,serif" font-size="14.00">TTYP&#45;ITAPS_COM_CA_INB_SRV_TP</text>
</g>
<!-- TABL&#45;ISAPS_COM_CA_INB_SRV_TP -->
<g id="node2" class="node">
<title>TABL&#45;ISAPS_COM_CA_INB_SRV_TP</title>
<g id="a_node2"><a xlink:href="./TABL_ISAPS_COM_CA_INB_SRV_TP.html" xlink:title="TABL&#45;ISAPS_COM_CA_INB_SRV_TP">
<polygon fill="none" stroke="yellow" points="2119.07,-324 1869.43,-324 1869.43,-288 2119.07,-288 2119.07,-324"/>
<text text-anchor="middle" x="1994.25" y="-301.8" font-family="Times,serif" font-size="14.00">TABL&#45;ISAPS_COM_CA_INB_SRV_TP</text>
</a>
</g>
</g>
<!-- TTYP&#45;ITAPS_COM_CA_INB_SRV_TP&#45;&gt;TABL&#45;ISAPS_COM_CA_INB_SRV_TP -->
<g id="edge1" class="edge">
<title>TTYP&#45;ITAPS_COM_CA_INB_SRV_TP&#45;&gt;TABL&#45;ISAPS_COM_CA_INB_SRV_TP</title>
<path fill="none" stroke="black" d="M1994.25,-359.7C1994.25,-351.98 1994.25,-342.71 1994.25,-334.11"/>
<polygon fill="black" stroke="black" points="1997.75,-334.1 1994.25,-324.1 1990.75,-334.1 1997.75,-334.1"/>
</g>
<!-- TABL&#45;ISAPS_COM_CA_INB_SRV_TP_D -->
<g id="node3" class="node">
<title>TABL&#45;ISAPS_COM_CA_INB_SRV_TP_D</title>
<g id="a_node3"><a xlink:href="./TABL_ISAPS_COM_CA_INB_SRV_TP_D.html" xlink:title="TABL&#45;ISAPS_COM_CA_INB_SRV_TP_D">
<polygon fill="none" stroke="yellow" points="1996.68,-252 1729.83,-252 1729.83,-216 1996.68,-216 1996.68,-252"/>
<text text-anchor="middle" x="1863.25" y="-229.8" font-family="Times,serif" font-size="14.00">TABL&#45;ISAPS_COM_CA_INB_SRV_TP_D</text>
</a>
</g>
</g>
<!-- TABL&#45;ISAPS_COM_CA_INB_SRV_TP&#45;&gt;TABL&#45;ISAPS_COM_CA_INB_SRV_TP_D -->
<g id="edge3" class="edge">
<title>TABL&#45;ISAPS_COM_CA_INB_SRV_TP&#45;&gt;TABL&#45;ISAPS_COM_CA_INB_SRV_TP_D</title>
<path fill="none" stroke="black" d="M1962.21,-287.88C1944.76,-278.55 1922.99,-266.92 1904.31,-256.94"/>
<polygon fill="black" stroke="black" points="1905.89,-253.82 1895.42,-252.19 1902.59,-259.99 1905.89,-253.82"/>
</g>
<!-- TABL&#45;/BOBF/S_FRW_KEY_INCL -->
<g id="node25" class="node">
<title>TABL&#45;/BOBF/S_FRW_KEY_INCL</title>
<g id="a_node25"><a xlink:href="./TABL_%23BOBF%23S_FRW_KEY_INCL.html" xlink:title="TABL&#45;/BOBF/S_FRW_KEY_INCL">
<polygon fill="none" stroke="yellow" points="2589.34,-252 2367.16,-252 2367.16,-216 2589.34,-216 2589.34,-252"/>
<text text-anchor="middle" x="2478.25" y="-229.8" font-family="Times,serif" font-size="14.00">TABL&#45;/BOBF/S_FRW_KEY_INCL</text>
</a>
</g>
</g>
<!-- TABL&#45;ISAPS_COM_CA_INB_SRV_TP&#45;&gt;TABL&#45;/BOBF/S_FRW_KEY_INCL -->
<g id="edge2" class="edge">
<title>TABL&#45;ISAPS_COM_CA_INB_SRV_TP&#45;&gt;TABL&#45;/BOBF/S_FRW_KEY_INCL</title>
<path fill="none" stroke="black" d="M2112.03,-287.97C2186.35,-277.22 2282.1,-263.37 2357.06,-252.53"/>
<polygon fill="black" stroke="black" points="2357.63,-255.98 2367.02,-251.09 2356.62,-249.05 2357.63,-255.98"/>
</g>
<!-- DTEL&#45;SDRAFT_IS_ACTIVE -->
<g id="node4" class="node">
<title>DTEL&#45;SDRAFT_IS_ACTIVE</title>
<g id="a_node4"><a xlink:href="./DTEL_SDRAFT_IS_ACTIVE.html" xlink:title="DTEL&#45;SDRAFT_IS_ACTIVE">
<polygon fill="none" stroke="yellow" points="1957.1,-180 1769.4,-180 1769.4,-144 1957.1,-144 1957.1,-180"/>
<text text-anchor="middle" x="1863.25" y="-157.8" font-family="Times,serif" font-size="14.00">DTEL&#45;SDRAFT_IS_ACTIVE</text>
</a>
</g>
</g>
<!-- TABL&#45;ISAPS_COM_CA_INB_SRV_TP_D&#45;&gt;DTEL&#45;SDRAFT_IS_ACTIVE -->
<g id="edge11" class="edge">
<title>TABL&#45;ISAPS_COM_CA_INB_SRV_TP_D&#45;&gt;DTEL&#45;SDRAFT_IS_ACTIVE</title>
<path fill="none" stroke="black" d="M1863.25,-215.7C1863.25,-207.98 1863.25,-198.71 1863.25,-190.11"/>
<polygon fill="black" stroke="black" points="1866.75,-190.1 1863.25,-180.1 1859.75,-190.1 1866.75,-190.1"/>
</g>
<!-- TABL&#45;SDRAFT_WRITE_DRAFT_ADMIN -->
<g id="node6" class="node">
<title>TABL&#45;SDRAFT_WRITE_DRAFT_ADMIN</title>
<g id="a_node6"><a xlink:href="./TABL_SDRAFT_WRITE_DRAFT_ADMIN.html" xlink:title="TABL&#45;SDRAFT_WRITE_DRAFT_ADMIN">
<polygon fill="none" stroke="yellow" points="889.76,-180 620.75,-180 620.75,-144 889.76,-144 889.76,-180"/>
<text text-anchor="middle" x="755.25" y="-157.8" font-family="Times,serif" font-size="14.00">TABL&#45;SDRAFT_WRITE_DRAFT_ADMIN</text>
</a>
</g>
</g>
<!-- TABL&#45;ISAPS_COM_CA_INB_SRV_TP_D&#45;&gt;TABL&#45;SDRAFT_WRITE_DRAFT_ADMIN -->
<g id="edge10" class="edge">
<title>TABL&#45;ISAPS_COM_CA_INB_SRV_TP_D&#45;&gt;TABL&#45;SDRAFT_WRITE_DRAFT_ADMIN</title>
<path fill="none" stroke="black" d="M1729.88,-224.57C1520.49,-211.35 1116.27,-185.81 900.04,-172.15"/>
<polygon fill="black" stroke="black" points="900.09,-168.64 889.89,-171.51 899.65,-175.63 900.09,-168.64"/>
</g>
<!-- DTEL&#45;SDRAFT_HAS_ACTIVE -->
<g id="node16" class="node">
<title>DTEL&#45;SDRAFT_HAS_ACTIVE</title>
<g id="a_node16"><a xlink:href="./DTEL_SDRAFT_HAS_ACTIVE.html" xlink:title="DTEL&#45;SDRAFT_HAS_ACTIVE">
<polygon fill="none" stroke="yellow" points="1751.16,-180 1547.35,-180 1547.35,-144 1751.16,-144 1751.16,-180"/>
<text text-anchor="middle" x="1649.25" y="-157.8" font-family="Times,serif" font-size="14.00">DTEL&#45;SDRAFT_HAS_ACTIVE</text>
</a>
</g>
</g>
<!-- TABL&#45;ISAPS_COM_CA_INB_SRV_TP_D&#45;&gt;DTEL&#45;SDRAFT_HAS_ACTIVE -->
<g id="edge9" class="edge">
<title>TABL&#45;ISAPS_COM_CA_INB_SRV_TP_D&#45;&gt;DTEL&#45;SDRAFT_HAS_ACTIVE</title>
<path fill="none" stroke="black" d="M1811.18,-215.97C1781.02,-206.1 1742.87,-193.62 1711.18,-183.25"/>
<polygon fill="black" stroke="black" points="1712.16,-179.89 1701.56,-180.11 1709.98,-186.55 1712.16,-179.89"/>
</g>
<!-- DTEL&#45;/BOBF/UUID -->
<g id="node17" class="node">
<title>DTEL&#45;/BOBF/UUID</title>
<g id="a_node17"><a xlink:href="./DTEL_%23BOBF%23UUID.html" xlink:title="DTEL&#45;/BOBF/UUID">
<polygon fill="none" stroke="yellow" points="1325,-180 1189.5,-180 1189.5,-144 1325,-144 1325,-180"/>
<text text-anchor="middle" x="1257.25" y="-157.8" font-family="Times,serif" font-size="14.00">DTEL&#45;/BOBF/UUID</text>
</a>
</g>
</g>
<!-- TABL&#45;ISAPS_COM_CA_INB_SRV_TP_D&#45;&gt;DTEL&#45;/BOBF/UUID -->
<g id="edge8" class="edge">
<title>TABL&#45;ISAPS_COM_CA_INB_SRV_TP_D&#45;&gt;DTEL&#45;/BOBF/UUID</title>
<path fill="none" stroke="black" d="M1729.81,-223.99C1625.02,-215.89 1475.33,-202.07 1335.26,-180.05"/>
<polygon fill="black" stroke="black" points="1335.62,-176.57 1325.19,-178.45 1334.52,-183.48 1335.62,-176.57"/>
</g>
<!-- DTEL&#45;APS_COM_CSCN_ID -->
<g id="node18" class="node">
<title>DTEL&#45;APS_COM_CSCN_ID</title>
<g id="a_node18"><a xlink:href="./DTEL_APS_COM_CSCN_ID.html" xlink:title="DTEL&#45;APS_COM_CSCN_ID">
<polygon fill="none" stroke="yellow" points="1529.57,-180 1342.94,-180 1342.94,-144 1529.57,-144 1529.57,-180"/>
<text text-anchor="middle" x="1436.25" y="-157.8" font-family="Times,serif" font-size="14.00">DTEL&#45;APS_COM_CSCN_ID</text>
</a>
</g>
</g>
<!-- TABL&#45;ISAPS_COM_CA_INB_SRV_TP_D&#45;&gt;DTEL&#45;APS_COM_CSCN_ID -->
<g id="edge7" class="edge">
<title>TABL&#45;ISAPS_COM_CA_INB_SRV_TP_D&#45;&gt;DTEL&#45;APS_COM_CSCN_ID</title>
<path fill="none" stroke="black" d="M1758.22,-215.97C1697.17,-206.04 1618.49,-193.22 1539.74,-180.24"/>
<polygon fill="black" stroke="black" points="1540.07,-176.75 1529.63,-178.58 1538.93,-183.66 1540.07,-176.75"/>
</g>
<!-- DTEL&#45;APS_CA_INBOUND_STATUS -->
<g id="node20" class="node">
<title>DTEL&#45;APS_CA_INBOUND_STATUS</title>
<g id="a_node20"><a xlink:href="./DTEL_APS_CA_INBOUND_STATUS.html" xlink:title="DTEL&#45;APS_CA_INBOUND_STATUS">
<polygon fill="none" stroke="yellow" points="2465.21,-180 2225.3,-180 2225.3,-144 2465.21,-144 2465.21,-180"/>
<text text-anchor="middle" x="2345.25" y="-157.8" font-family="Times,serif" font-size="14.00">DTEL&#45;APS_CA_INBOUND_STATUS</text>
</a>
</g>
</g>
<!-- TABL&#45;ISAPS_COM_CA_INB_SRV_TP_D&#45;&gt;DTEL&#45;APS_CA_INBOUND_STATUS -->
<g id="edge6" class="edge">
<title>TABL&#45;ISAPS_COM_CA_INB_SRV_TP_D&#45;&gt;DTEL&#45;APS_CA_INBOUND_STATUS</title>
<path fill="none" stroke="black" d="M1980.55,-215.97C2052.27,-205.55 2144.05,-192.22 2217.6,-181.54"/>
<polygon fill="black" stroke="black" points="2218.46,-184.95 2227.85,-180.05 2217.45,-178.02 2218.46,-184.95"/>
</g>
<!-- DTEL&#45;APS_COM_CSCN_NUMBER -->
<g id="node22" class="node">
<title>DTEL&#45;APS_COM_CSCN_NUMBER</title>
<g id="a_node22"><a xlink:href="./DTEL_APS_COM_CSCN_NUMBER.html" xlink:title="DTEL&#45;APS_COM_CSCN_NUMBER">
<polygon fill="none" stroke="yellow" points="2207.18,-180 1975.32,-180 1975.32,-144 2207.18,-144 2207.18,-180"/>
<text text-anchor="middle" x="2091.25" y="-157.8" font-family="Times,serif" font-size="14.00">DTEL&#45;APS_COM_CSCN_NUMBER</text>
</a>
</g>
</g>
<!-- TABL&#45;ISAPS_COM_CA_INB_SRV_TP_D&#45;&gt;DTEL&#45;APS_COM_CSCN_NUMBER -->
<g id="edge5" class="edge">
<title>TABL&#45;ISAPS_COM_CA_INB_SRV_TP_D&#45;&gt;DTEL&#45;APS_COM_CSCN_NUMBER</title>
<path fill="none" stroke="black" d="M1918.74,-215.97C1951.01,-206.06 1991.87,-193.51 2025.72,-183.12"/>
<polygon fill="black" stroke="black" points="2026.99,-186.39 2035.52,-180.11 2024.93,-179.7 2026.99,-186.39"/>
</g>
<!-- DTEL&#45;APS_CA_COMMSYS_INBUSR -->
<g id="node23" class="node">
<title>DTEL&#45;APS_CA_COMMSYS_INBUSR</title>
<g id="a_node23"><a xlink:href="./DTEL_APS_CA_COMMSYS_INBUSR.html" xlink:title="DTEL&#45;APS_CA_COMMSYS_INBUSR">
<polygon fill="none" stroke="yellow" points="2727.13,-180 2483.38,-180 2483.38,-144 2727.13,-144 2727.13,-180"/>
<text text-anchor="middle" x="2605.25" y="-157.8" font-family="Times,serif" font-size="14.00">DTEL&#45;APS_CA_COMMSYS_INBUSR</text>
</a>
</g>
</g>
<!-- TABL&#45;ISAPS_COM_CA_INB_SRV_TP_D&#45;&gt;DTEL&#45;APS_CA_COMMSYS_INBUSR -->
<g id="edge4" class="edge">
<title>TABL&#45;ISAPS_COM_CA_INB_SRV_TP_D&#45;&gt;DTEL&#45;APS_CA_COMMSYS_INBUSR</title>
<path fill="none" stroke="black" d="M1996.61,-223.07C2118.07,-213.65 2302.66,-198.38 2473.08,-180.1"/>
<polygon fill="black" stroke="black" points="2473.68,-183.56 2483.24,-179.01 2472.93,-176.6 2473.68,-183.56"/>
</g>
<!-- DOMA&#45;BOOLE -->
<g id="node5" class="node">
<title>DOMA&#45;BOOLE</title>
<g id="a_node5"><a xlink:href="./DOMA_BOOLE.html" xlink:title="DOMA&#45;BOOLE">
<polygon fill="none" stroke="yellow" points="1811.33,-108 1701.17,-108 1701.17,-72 1811.33,-72 1811.33,-108"/>
<text text-anchor="middle" x="1756.25" y="-85.8" font-family="Times,serif" font-size="14.00">DOMA&#45;BOOLE</text>
</a>
</g>
</g>
<!-- DTEL&#45;SDRAFT_IS_ACTIVE&#45;&gt;DOMA&#45;BOOLE -->
<g id="edge12" class="edge">
<title>DTEL&#45;SDRAFT_IS_ACTIVE&#45;&gt;DOMA&#45;BOOLE</title>
<path fill="none" stroke="black" d="M1837.08,-143.88C1823.22,-134.81 1806.01,-123.55 1791.04,-113.76"/>
<polygon fill="black" stroke="black" points="1792.81,-110.74 1782.53,-108.19 1788.98,-116.59 1792.81,-110.74"/>
</g>
<!-- DTEL&#45;SDRAFT_OPERATION_CODE -->
<g id="node7" class="node">
<title>DTEL&#45;SDRAFT_OPERATION_CODE</title>
<g id="a_node7"><a xlink:href="./DTEL_SDRAFT_OPERATION_CODE.html" xlink:title="DTEL&#45;SDRAFT_OPERATION_CODE">
<polygon fill="none" stroke="yellow" points="244.76,-108 3.75,-108 3.75,-72 244.76,-72 244.76,-108"/>
<text text-anchor="middle" x="124.25" y="-85.8" font-family="Times,serif" font-size="14.00">DTEL&#45;SDRAFT_OPERATION_CODE</text>
</a>
</g>
</g>
<!-- TABL&#45;SDRAFT_WRITE_DRAFT_ADMIN&#45;&gt;DTEL&#45;SDRAFT_OPERATION_CODE -->
<g id="edge17" class="edge">
<title>TABL&#45;SDRAFT_WRITE_DRAFT_ADMIN&#45;&gt;DTEL&#45;SDRAFT_OPERATION_CODE</title>
<path fill="none" stroke="black" d="M620.65,-147.74C522.07,-137.81 384.77,-123.5 255.2,-108.22"/>
<polygon fill="black" stroke="black" points="255.44,-104.72 245.09,-107.02 254.61,-111.67 255.44,-104.72"/>
</g>
<!-- DTEL&#45;SDRAFT_CONSISTENCY_STATUS -->
<g id="node9" class="node">
<title>DTEL&#45;SDRAFT_CONSISTENCY_STATUS</title>
<g id="a_node9"><a xlink:href="./DTEL_SDRAFT_CONSISTENCY_STATUS.html" xlink:title="DTEL&#45;SDRAFT_CONSISTENCY_STATUS">
<polygon fill="none" stroke="yellow" points="1032.16,-108 758.35,-108 758.35,-72 1032.16,-72 1032.16,-108"/>
<text text-anchor="middle" x="895.25" y="-85.8" font-family="Times,serif" font-size="14.00">DTEL&#45;SDRAFT_CONSISTENCY_STATUS</text>
</a>
</g>
</g>
<!-- TABL&#45;SDRAFT_WRITE_DRAFT_ADMIN&#45;&gt;DTEL&#45;SDRAFT_CONSISTENCY_STATUS -->
<g id="edge16" class="edge">
<title>TABL&#45;SDRAFT_WRITE_DRAFT_ADMIN&#45;&gt;DTEL&#45;SDRAFT_CONSISTENCY_STATUS</title>
<path fill="none" stroke="black" d="M789.5,-143.88C808.31,-134.47 831.84,-122.71 851.92,-112.67"/>
<polygon fill="black" stroke="black" points="853.49,-115.79 860.87,-108.19 850.36,-109.53 853.49,-115.79"/>
</g>
<!-- DTEL&#45;SDRAFT_ADMIN_UUID -->
<g id="node11" class="node">
<title>DTEL&#45;SDRAFT_ADMIN_UUID</title>
<g id="a_node11"><a xlink:href="./DTEL_SDRAFT_ADMIN_UUID.html" xlink:title="DTEL&#45;SDRAFT_ADMIN_UUID">
<polygon fill="none" stroke="yellow" points="1256.75,-108 1049.75,-108 1049.75,-72 1256.75,-72 1256.75,-108"/>
<text text-anchor="middle" x="1153.25" y="-85.8" font-family="Times,serif" font-size="14.00">DTEL&#45;SDRAFT_ADMIN_UUID</text>
</a>
</g>
</g>
<!-- TABL&#45;SDRAFT_WRITE_DRAFT_ADMIN&#45;&gt;DTEL&#45;SDRAFT_ADMIN_UUID -->
<g id="edge15" class="edge">
<title>TABL&#45;SDRAFT_WRITE_DRAFT_ADMIN&#45;&gt;DTEL&#45;SDRAFT_ADMIN_UUID</title>
<path fill="none" stroke="black" d="M852.11,-143.97C910.85,-133.63 985.88,-120.44 1046.35,-109.8"/>
<polygon fill="black" stroke="black" points="1047.07,-113.23 1056.31,-108.05 1045.86,-106.34 1047.07,-113.23"/>
</g>
<!-- DTEL&#45;SDRAFT_LAST_CHANGED_AT -->
<g id="node13" class="node">
<title>DTEL&#45;SDRAFT_LAST_CHANGED_AT</title>
<g id="a_node13"><a xlink:href="./DTEL_SDRAFT_LAST_CHANGED_AT.html" xlink:title="DTEL&#45;SDRAFT_LAST_CHANGED_AT">
<polygon fill="none" stroke="yellow" points="740.92,-108 487.58,-108 487.58,-72 740.92,-72 740.92,-108"/>
<text text-anchor="middle" x="614.25" y="-85.8" font-family="Times,serif" font-size="14.00">DTEL&#45;SDRAFT_LAST_CHANGED_AT</text>
</a>
</g>
</g>
<!-- TABL&#45;SDRAFT_WRITE_DRAFT_ADMIN&#45;&gt;DTEL&#45;SDRAFT_LAST_CHANGED_AT -->
<g id="edge14" class="edge">
<title>TABL&#45;SDRAFT_WRITE_DRAFT_ADMIN&#45;&gt;DTEL&#45;SDRAFT_LAST_CHANGED_AT</title>
<path fill="none" stroke="black" d="M720.76,-143.88C701.81,-134.47 678.12,-122.71 657.9,-112.67"/>
<polygon fill="black" stroke="black" points="659.39,-109.5 648.88,-108.19 656.28,-115.77 659.39,-109.5"/>
</g>
<!-- DTEL&#45;SDRAFT_CREATED_AT -->
<g id="node15" class="node">
<title>DTEL&#45;SDRAFT_CREATED_AT</title>
<g id="a_node15"><a xlink:href="./DTEL_SDRAFT_CREATED_AT.html" xlink:title="DTEL&#45;SDRAFT_CREATED_AT">
<polygon fill="none" stroke="yellow" points="470.05,-108 262.46,-108 262.46,-72 470.05,-72 470.05,-108"/>
<text text-anchor="middle" x="366.25" y="-85.8" font-family="Times,serif" font-size="14.00">DTEL&#45;SDRAFT_CREATED_AT</text>
</a>
</g>
</g>
<!-- TABL&#45;SDRAFT_WRITE_DRAFT_ADMIN&#45;&gt;DTEL&#45;SDRAFT_CREATED_AT -->
<g id="edge13" class="edge">
<title>TABL&#45;SDRAFT_WRITE_DRAFT_ADMIN&#45;&gt;DTEL&#45;SDRAFT_CREATED_AT</title>
<path fill="none" stroke="black" d="M660.59,-143.97C603.3,-133.66 530.15,-120.49 471.1,-109.87"/>
<polygon fill="black" stroke="black" points="471.46,-106.38 461,-108.05 470.22,-113.27 471.46,-106.38"/>
</g>
<!-- DOMA&#45;SDRAFT_OPERATION_CODE -->
<g id="node8" class="node">
<title>DOMA&#45;SDRAFT_OPERATION_CODE</title>
<g id="a_node8"><a xlink:href="./DOMA_SDRAFT_OPERATION_CODE.html" xlink:title="DOMA&#45;SDRAFT_OPERATION_CODE">
<polygon fill="none" stroke="yellow" points="248.26,-36 0.25,-36 0.25,0 248.26,0 248.26,-36"/>
<text text-anchor="middle" x="124.25" y="-13.8" font-family="Times,serif" font-size="14.00">DOMA&#45;SDRAFT_OPERATION_CODE</text>
</a>
</g>
</g>
<!-- DTEL&#45;SDRAFT_OPERATION_CODE&#45;&gt;DOMA&#45;SDRAFT_OPERATION_CODE -->
<g id="edge18" class="edge">
<title>DTEL&#45;SDRAFT_OPERATION_CODE&#45;&gt;DOMA&#45;SDRAFT_OPERATION_CODE</title>
<path fill="none" stroke="black" d="M124.25,-71.7C124.25,-63.98 124.25,-54.71 124.25,-46.11"/>
<polygon fill="black" stroke="black" points="127.75,-46.1 124.25,-36.1 120.75,-46.1 127.75,-46.1"/>
</g>
<!-- DOMA&#45;SDRAFT_CONSISTENCY_STATUS -->
<g id="node10" class="node">
<title>DOMA&#45;SDRAFT_CONSISTENCY_STATUS</title>
<g id="a_node10"><a xlink:href="./DOMA_SDRAFT_CONSISTENCY_STATUS.html" xlink:title="DOMA&#45;SDRAFT_CONSISTENCY_STATUS">
<polygon fill="none" stroke="yellow" points="1035.66,-36 754.85,-36 754.85,0 1035.66,0 1035.66,-36"/>
<text text-anchor="middle" x="895.25" y="-13.8" font-family="Times,serif" font-size="14.00">DOMA&#45;SDRAFT_CONSISTENCY_STATUS</text>
</a>
</g>
</g>
<!-- DTEL&#45;SDRAFT_CONSISTENCY_STATUS&#45;&gt;DOMA&#45;SDRAFT_CONSISTENCY_STATUS -->
<g id="edge19" class="edge">
<title>DTEL&#45;SDRAFT_CONSISTENCY_STATUS&#45;&gt;DOMA&#45;SDRAFT_CONSISTENCY_STATUS</title>
<path fill="none" stroke="black" d="M895.25,-71.7C895.25,-63.98 895.25,-54.71 895.25,-46.11"/>
<polygon fill="black" stroke="black" points="898.75,-46.1 895.25,-36.1 891.75,-46.1 898.75,-46.1"/>
</g>
<!-- DOMA&#45;SYSUUID -->
<g id="node12" class="node">
<title>DOMA&#45;SYSUUID</title>
<g id="a_node12"><a xlink:href="./DOMA_SYSUUID.html" xlink:title="DOMA&#45;SYSUUID">
<polygon fill="none" stroke="yellow" points="1280.33,-36 1156.18,-36 1156.18,0 1280.33,0 1280.33,-36"/>
<text text-anchor="middle" x="1218.25" y="-13.8" font-family="Times,serif" font-size="14.00">DOMA&#45;SYSUUID</text>
</a>
</g>
</g>
<!-- DTEL&#45;SDRAFT_ADMIN_UUID&#45;&gt;DOMA&#45;SYSUUID -->
<g id="edge20" class="edge">
<title>DTEL&#45;SDRAFT_ADMIN_UUID&#45;&gt;DOMA&#45;SYSUUID</title>
<path fill="none" stroke="black" d="M1169.32,-71.7C1177.19,-63.22 1186.81,-52.86 1195.43,-43.58"/>
<polygon fill="black" stroke="black" points="1198.13,-45.81 1202.37,-36.1 1193,-41.05 1198.13,-45.81"/>
</g>
<!-- DOMA&#45;TZNTSTMPL -->
<g id="node14" class="node">
<title>DOMA&#45;TZNTSTMPL</title>
<g id="a_node14"><a xlink:href="./DOMA_TZNTSTMPL.html" xlink:title="DOMA&#45;TZNTSTMPL">
<polygon fill="none" stroke="yellow" points="562.56,-36 417.95,-36 417.95,0 562.56,0 562.56,-36"/>
<text text-anchor="middle" x="490.25" y="-13.8" font-family="Times,serif" font-size="14.00">DOMA&#45;TZNTSTMPL</text>
</a>
</g>
</g>
<!-- DTEL&#45;SDRAFT_LAST_CHANGED_AT&#45;&gt;DOMA&#45;TZNTSTMPL -->
<g id="edge21" class="edge">
<title>DTEL&#45;SDRAFT_LAST_CHANGED_AT&#45;&gt;DOMA&#45;TZNTSTMPL</title>
<path fill="none" stroke="black" d="M583.92,-71.88C567.56,-62.64 547.17,-51.13 529.6,-41.21"/>
<polygon fill="black" stroke="black" points="531.13,-38.06 520.7,-36.19 527.69,-44.15 531.13,-38.06"/>
</g>
<!-- DTEL&#45;SDRAFT_CREATED_AT&#45;&gt;DOMA&#45;TZNTSTMPL -->
<g id="edge22" class="edge">
<title>DTEL&#45;SDRAFT_CREATED_AT&#45;&gt;DOMA&#45;TZNTSTMPL</title>
<path fill="none" stroke="black" d="M396.59,-71.88C412.95,-62.64 433.34,-51.13 450.91,-41.21"/>
<polygon fill="black" stroke="black" points="452.82,-44.15 459.8,-36.19 449.37,-38.06 452.82,-44.15"/>
</g>
<!-- DTEL&#45;SDRAFT_HAS_ACTIVE&#45;&gt;DOMA&#45;BOOLE -->
<g id="edge23" class="edge">
<title>DTEL&#45;SDRAFT_HAS_ACTIVE&#45;&gt;DOMA&#45;BOOLE</title>
<path fill="none" stroke="black" d="M1675.43,-143.88C1689.29,-134.81 1706.49,-123.55 1721.46,-113.76"/>
<polygon fill="black" stroke="black" points="1723.53,-116.59 1729.98,-108.19 1719.69,-110.74 1723.53,-116.59"/>
</g>
<!-- DTEL&#45;/BOBF/UUID&#45;&gt;DOMA&#45;SYSUUID -->
<g id="edge24" class="edge">
<title>DTEL&#45;/BOBF/UUID&#45;&gt;DOMA&#45;SYSUUID</title>
<path fill="none" stroke="black" d="M1263.11,-143.99C1268.46,-125.62 1274.28,-95.79 1265.25,-72 1261.28,-61.54 1254.21,-51.83 1246.73,-43.65"/>
<polygon fill="black" stroke="black" points="1249.02,-40.99 1239.52,-36.3 1244.02,-45.89 1249.02,-40.99"/>
</g>
<!-- DOMA&#45;APS_COM_CSCN_ID -->
<g id="node19" class="node">
<title>DOMA&#45;APS_COM_CSCN_ID</title>
<g id="a_node19"><a xlink:href="./DOMA_APS_COM_CSCN_ID.html" xlink:title="DOMA&#45;APS_COM_CSCN_ID">
<polygon fill="none" stroke="yellow" points="1533.07,-108 1339.44,-108 1339.44,-72 1533.07,-72 1533.07,-108"/>
<text text-anchor="middle" x="1436.25" y="-85.8" font-family="Times,serif" font-size="14.00">DOMA&#45;APS_COM_CSCN_ID</text>
</a>
</g>
</g>
<!-- DTEL&#45;APS_COM_CSCN_ID&#45;&gt;DOMA&#45;APS_COM_CSCN_ID -->
<g id="edge25" class="edge">
<title>DTEL&#45;APS_COM_CSCN_ID&#45;&gt;DOMA&#45;APS_COM_CSCN_ID</title>
<path fill="none" stroke="black" d="M1436.25,-143.7C1436.25,-135.98 1436.25,-126.71 1436.25,-118.11"/>
<polygon fill="black" stroke="black" points="1439.75,-118.1 1436.25,-108.1 1432.75,-118.1 1439.75,-118.1"/>
</g>
<!-- DOMA&#45;APS_CA_INBOUND_STATUS -->
<g id="node21" class="node">
<title>DOMA&#45;APS_CA_INBOUND_STATUS</title>
<g id="a_node21"><a xlink:href="./DOMA_APS_CA_INBOUND_STATUS.html" xlink:title="DOMA&#45;APS_CA_INBOUND_STATUS">
<polygon fill="none" stroke="yellow" points="2468.71,-108 2221.8,-108 2221.8,-72 2468.71,-72 2468.71,-108"/>
<text text-anchor="middle" x="2345.25" y="-85.8" font-family="Times,serif" font-size="14.00">DOMA&#45;APS_CA_INBOUND_STATUS</text>
</a>
</g>
</g>
<!-- DTEL&#45;APS_CA_INBOUND_STATUS&#45;&gt;DOMA&#45;APS_CA_INBOUND_STATUS -->
<g id="edge26" class="edge">
<title>DTEL&#45;APS_CA_INBOUND_STATUS&#45;&gt;DOMA&#45;APS_CA_INBOUND_STATUS</title>
<path fill="none" stroke="black" d="M2345.25,-143.7C2345.25,-135.98 2345.25,-126.71 2345.25,-118.11"/>
<polygon fill="black" stroke="black" points="2348.75,-118.1 2345.25,-108.1 2341.75,-118.1 2348.75,-118.1"/>
</g>
<!-- DOMA&#45;/BOBF/CONF_KEY -->
<g id="node24" class="node">
<title>DOMA&#45;/BOBF/CONF_KEY</title>
<g id="a_node24"><a xlink:href="./DOMA_%23BOBF%23CONF_KEY.html" xlink:title="DOMA&#45;/BOBF/CONF_KEY">
<polygon fill="none" stroke="yellow" points="2809.62,-108 2628.89,-108 2628.89,-72 2809.62,-72 2809.62,-108"/>
<text text-anchor="middle" x="2719.25" y="-85.8" font-family="Times,serif" font-size="14.00">DOMA&#45;/BOBF/CONF_KEY</text>
</a>
</g>
</g>
<!-- DTEL&#45;APS_CA_COMMSYS_INBUSR&#45;&gt;DOMA&#45;/BOBF/CONF_KEY -->
<g id="edge27" class="edge">
<title>DTEL&#45;APS_CA_COMMSYS_INBUSR&#45;&gt;DOMA&#45;/BOBF/CONF_KEY</title>
<path fill="none" stroke="black" d="M2633.14,-143.88C2648.05,-134.72 2666.58,-123.34 2682.63,-113.48"/>
<polygon fill="black" stroke="black" points="2684.57,-116.41 2691.26,-108.19 2680.91,-110.44 2684.57,-116.41"/>
</g>
<!-- DTEL&#45;/BOBF/CONF_KEY -->
<g id="node26" class="node">
<title>DTEL&#45;/BOBF/CONF_KEY</title>
<g id="a_node26"><a xlink:href="./DTEL_%23BOBF%23CONF_KEY.html" xlink:title="DTEL&#45;/BOBF/CONF_KEY">
<polygon fill="none" stroke="yellow" points="2919.12,-180 2745.39,-180 2745.39,-144 2919.12,-144 2919.12,-180"/>
<text text-anchor="middle" x="2832.25" y="-157.8" font-family="Times,serif" font-size="14.00">DTEL&#45;/BOBF/CONF_KEY</text>
</a>
</g>
</g>
<!-- TABL&#45;/BOBF/S_FRW_KEY_INCL&#45;&gt;DTEL&#45;/BOBF/CONF_KEY -->
<g id="edge28" class="edge">
<title>TABL&#45;/BOBF/S_FRW_KEY_INCL&#45;&gt;DTEL&#45;/BOBF/CONF_KEY</title>
<path fill="none" stroke="black" d="M2564.4,-215.97C2616.32,-205.7 2682.56,-192.6 2736.17,-182"/>
<polygon fill="black" stroke="black" points="2736.9,-185.42 2746.03,-180.05 2735.54,-178.56 2736.9,-185.42"/>
</g>
<!-- DTEL&#45;/BOBF/CONF_KEY&#45;&gt;DOMA&#45;/BOBF/CONF_KEY -->
<g id="edge29" class="edge">
<title>DTEL&#45;/BOBF/CONF_KEY&#45;&gt;DOMA&#45;/BOBF/CONF_KEY</title>
<path fill="none" stroke="black" d="M2804.61,-143.88C2789.84,-134.72 2771.46,-123.34 2755.55,-113.48"/>
<polygon fill="black" stroke="black" points="2757.35,-110.48 2747,-108.19 2753.66,-116.43 2757.35,-110.48"/>
</g>
</g>
</svg>
