<?xml version="1.0" encoding="UTF-8" standalone="no"?>
<!DOCTYPE svg PUBLIC "-//W3C//DTD SVG 1.1//EN"
 "http://www.w3.org/Graphics/SVG/1.1/DTD/svg11.dtd">
<!-- Generated by graphviz version 2.47.3 (20210619.1520)
 -->
<!-- Title: G Pages: 1 -->
<svg width="1768pt" height="332pt"
 viewBox="0.00 0.00 1768.40 332.00" xmlns="http://www.w3.org/2000/svg" xmlns:xlink="http://www.w3.org/1999/xlink">
<g id="graph0" class="graph" transform="scale(1 1) rotate(0) translate(4 328)">
<title>G</title>
<polygon fill="white" stroke="transparent" points="-4,4 -4,-328 1764.4,-328 1764.4,4 -4,4"/>
<!-- TTYP&#45;APS_IAM_D_BRFLDS_T -->
<g id="node1" class="node">
<title>TTYP&#45;APS_IAM_D_BRFLDS_T</title>
<polygon fill="none" stroke="yellow" points="1686.12,-324 1477.93,-324 1477.93,-288 1686.12,-288 1686.12,-324"/>
<text text-anchor="middle" x="1582.03" y="-301.8" font-family="Times,serif" font-size="14.00">TTYP&#45;APS_IAM_D_BRFLDS_T</text>
</g>
<!-- TABL&#45;APS_IAM_D_BRFLDS -->
<g id="node2" class="node">
<title>TABL&#45;APS_IAM_D_BRFLDS</title>
<g id="a_node2"><a xlink:href="./TABL_APS_IAM_D_BRFLDS.html" xlink:title="TABL&#45;APS_IAM_D_BRFLDS">
<polygon fill="none" stroke="yellow" points="1679.12,-252 1484.93,-252 1484.93,-216 1679.12,-216 1679.12,-252"/>
<text text-anchor="middle" x="1582.03" y="-229.8" font-family="Times,serif" font-size="14.00">TABL&#45;APS_IAM_D_BRFLDS</text>
</a>
</g>
</g>
<!-- TTYP&#45;APS_IAM_D_BRFLDS_T&#45;&gt;TABL&#45;APS_IAM_D_BRFLDS -->
<g id="edge1" class="edge">
<title>TTYP&#45;APS_IAM_D_BRFLDS_T&#45;&gt;TABL&#45;APS_IAM_D_BRFLDS</title>
<path fill="none" stroke="black" d="M1582.03,-287.7C1582.03,-279.98 1582.03,-270.71 1582.03,-262.11"/>
<polygon fill="black" stroke="black" points="1585.53,-262.1 1582.03,-252.1 1578.53,-262.1 1585.53,-262.1"/>
</g>
<!-- TABL&#45;APS_IAM_BR_FLDS_DATA -->
<g id="node3" class="node">
<title>TABL&#45;APS_IAM_BR_FLDS_DATA</title>
<g id="a_node3"><a xlink:href="./TABL_APS_IAM_BR_FLDS_DATA.html" xlink:title="TABL&#45;APS_IAM_BR_FLDS_DATA">
<polygon fill="none" stroke="yellow" points="1184.89,-180 955.16,-180 955.16,-144 1184.89,-144 1184.89,-180"/>
<text text-anchor="middle" x="1070.03" y="-157.8" font-family="Times,serif" font-size="14.00">TABL&#45;APS_IAM_BR_FLDS_DATA</text>
</a>
</g>
</g>
<!-- TABL&#45;APS_IAM_D_BRFLDS&#45;&gt;TABL&#45;APS_IAM_BR_FLDS_DATA -->
<g id="edge4" class="edge">
<title>TABL&#45;APS_IAM_D_BRFLDS&#45;&gt;TABL&#45;APS_IAM_BR_FLDS_DATA</title>
<path fill="none" stroke="black" d="M1484.82,-219.71C1402.63,-208.47 1284.36,-192.3 1195.12,-180.1"/>
<polygon fill="black" stroke="black" points="1195.59,-176.63 1185.21,-178.75 1194.64,-183.57 1195.59,-176.63"/>
</g>
<!-- DTEL&#45;UUID -->
<g id="node14" class="node">
<title>DTEL&#45;UUID</title>
<g id="a_node14"><a xlink:href="./DTEL_UUID.html" xlink:title="DTEL&#45;UUID">
<polygon fill="none" stroke="yellow" points="1627.93,-108 1536.12,-108 1536.12,-72 1627.93,-72 1627.93,-108"/>
<text text-anchor="middle" x="1582.03" y="-85.8" font-family="Times,serif" font-size="14.00">DTEL&#45;UUID</text>
</a>
</g>
</g>
<!-- TABL&#45;APS_IAM_D_BRFLDS&#45;&gt;DTEL&#45;UUID -->
<g id="edge3" class="edge">
<title>TABL&#45;APS_IAM_D_BRFLDS&#45;&gt;DTEL&#45;UUID</title>
<path fill="none" stroke="black" d="M1582.03,-215.87C1582.03,-191.67 1582.03,-147.21 1582.03,-118.39"/>
<polygon fill="black" stroke="black" points="1585.53,-118.19 1582.03,-108.19 1578.53,-118.19 1585.53,-118.19"/>
</g>
<!-- DTEL&#45;MANDT -->
<g id="node16" class="node">
<title>DTEL&#45;MANDT</title>
<g id="a_node16"><a xlink:href="./DTEL_MANDT.html" xlink:title="DTEL&#45;MANDT">
<polygon fill="none" stroke="green" points="1736.77,-180 1629.29,-180 1629.29,-144 1736.77,-144 1736.77,-180"/>
<text text-anchor="middle" x="1683.03" y="-157.8" font-family="Times,serif" font-size="14.00">DTEL&#45;MANDT</text>
</a>
</g>
</g>
<!-- TABL&#45;APS_IAM_D_BRFLDS&#45;&gt;DTEL&#45;MANDT -->
<g id="edge2" class="edge">
<title>TABL&#45;APS_IAM_D_BRFLDS&#45;&gt;DTEL&#45;MANDT</title>
<path fill="none" stroke="black" d="M1606.73,-215.88C1619.7,-206.89 1635.76,-195.76 1649.79,-186.03"/>
<polygon fill="black" stroke="black" points="1652,-188.76 1658.23,-180.19 1648.01,-183.01 1652,-188.76"/>
</g>
<!-- DTEL&#45;APS_IAM_BROLE_CMN_INDICATOR -->
<g id="node4" class="node">
<title>DTEL&#45;APS_IAM_BROLE_CMN_INDICATOR</title>
<g id="a_node4"><a xlink:href="./DTEL_APS_IAM_BROLE_CMN_INDICATOR.html" xlink:title="DTEL&#45;APS_IAM_BROLE_CMN_INDICATOR">
<polygon fill="none" stroke="yellow" points="292.08,-108 -0.03,-108 -0.03,-72 292.08,-72 292.08,-108"/>
<text text-anchor="middle" x="146.03" y="-85.8" font-family="Times,serif" font-size="14.00">DTEL&#45;APS_IAM_BROLE_CMN_INDICATOR</text>
</a>
</g>
</g>
<!-- TABL&#45;APS_IAM_BR_FLDS_DATA&#45;&gt;DTEL&#45;APS_IAM_BROLE_CMN_INDICATOR -->
<g id="edge10" class="edge">
<title>TABL&#45;APS_IAM_BR_FLDS_DATA&#45;&gt;DTEL&#45;APS_IAM_BROLE_CMN_INDICATOR</title>
<path fill="none" stroke="black" d="M954.94,-154.52C806.61,-145.85 540.46,-129.17 302.68,-108.13"/>
<polygon fill="black" stroke="black" points="302.73,-104.62 292.46,-107.22 302.11,-111.59 302.73,-104.62"/>
</g>
<!-- DTEL&#45;APS_IAM_BROLE_STATUS_MAINT_RES -->
<g id="node6" class="node">
<title>DTEL&#45;APS_IAM_BROLE_STATUS_MAINT_RES</title>
<g id="a_node6"><a xlink:href="./DTEL_APS_IAM_BROLE_STATUS_MAINT_RES.html" xlink:title="DTEL&#45;APS_IAM_BROLE_STATUS_MAINT_RES">
<polygon fill="none" stroke="yellow" points="624.15,-108 309.91,-108 309.91,-72 624.15,-72 624.15,-108"/>
<text text-anchor="middle" x="467.03" y="-85.8" font-family="Times,serif" font-size="14.00">DTEL&#45;APS_IAM_BROLE_STATUS_MAINT_RES</text>
</a>
</g>
</g>
<!-- TABL&#45;APS_IAM_BR_FLDS_DATA&#45;&gt;DTEL&#45;APS_IAM_BROLE_STATUS_MAINT_RES -->
<g id="edge9" class="edge">
<title>TABL&#45;APS_IAM_BR_FLDS_DATA&#45;&gt;DTEL&#45;APS_IAM_BROLE_STATUS_MAINT_RES</title>
<path fill="none" stroke="black" d="M954.83,-147.63C860.87,-136.72 727.19,-121.2 623.53,-109.17"/>
<polygon fill="black" stroke="black" points="623.93,-105.69 613.6,-108.01 623.13,-112.64 623.93,-105.69"/>
</g>
<!-- DTEL&#45;APS_IAM_CAT_RTYPE_FIELD_NAME -->
<g id="node8" class="node">
<title>DTEL&#45;APS_IAM_CAT_RTYPE_FIELD_NAME</title>
<g id="a_node8"><a xlink:href="./DTEL_APS_IAM_CAT_RTYPE_FIELD_NAME.html" xlink:title="DTEL&#45;APS_IAM_CAT_RTYPE_FIELD_NAME">
<polygon fill="none" stroke="yellow" points="939.53,-108 642.53,-108 642.53,-72 939.53,-72 939.53,-108"/>
<text text-anchor="middle" x="791.03" y="-85.8" font-family="Times,serif" font-size="14.00">DTEL&#45;APS_IAM_CAT_RTYPE_FIELD_NAME</text>
</a>
</g>
</g>
<!-- TABL&#45;APS_IAM_BR_FLDS_DATA&#45;&gt;DTEL&#45;APS_IAM_CAT_RTYPE_FIELD_NAME -->
<g id="edge8" class="edge">
<title>TABL&#45;APS_IAM_BR_FLDS_DATA&#45;&gt;DTEL&#45;APS_IAM_CAT_RTYPE_FIELD_NAME</title>
<path fill="none" stroke="black" d="M1002.13,-143.97C961.96,-133.89 910.93,-121.08 869.1,-110.59"/>
<polygon fill="black" stroke="black" points="869.78,-107.15 859.23,-108.11 868.07,-113.94 869.78,-107.15"/>
</g>
<!-- DTEL&#45;APS_IAM_CAT_RTYPE_ID -->
<g id="node10" class="node">
<title>DTEL&#45;APS_IAM_CAT_RTYPE_ID</title>
<g id="a_node10"><a xlink:href="./DTEL_APS_IAM_CAT_RTYPE_ID.html" xlink:title="DTEL&#45;APS_IAM_CAT_RTYPE_ID">
<polygon fill="none" stroke="yellow" points="1182.43,-108 957.62,-108 957.62,-72 1182.43,-72 1182.43,-108"/>
<text text-anchor="middle" x="1070.03" y="-85.8" font-family="Times,serif" font-size="14.00">DTEL&#45;APS_IAM_CAT_RTYPE_ID</text>
</a>
</g>
</g>
<!-- TABL&#45;APS_IAM_BR_FLDS_DATA&#45;&gt;DTEL&#45;APS_IAM_CAT_RTYPE_ID -->
<g id="edge7" class="edge">
<title>TABL&#45;APS_IAM_BR_FLDS_DATA&#45;&gt;DTEL&#45;APS_IAM_CAT_RTYPE_ID</title>
<path fill="none" stroke="black" d="M1070.03,-143.7C1070.03,-135.98 1070.03,-126.71 1070.03,-118.11"/>
<polygon fill="black" stroke="black" points="1073.53,-118.1 1070.03,-108.1 1066.53,-118.1 1073.53,-118.1"/>
</g>
<!-- DTEL&#45;APS_IAM_CAT_RTYPE_ACC_CAT_CODE -->
<g id="node12" class="node">
<title>DTEL&#45;APS_IAM_CAT_RTYPE_ACC_CAT_CODE</title>
<g id="a_node12"><a xlink:href="./DTEL_APS_IAM_CAT_RTYPE_ACC_CAT_CODE.html" xlink:title="DTEL&#45;APS_IAM_CAT_RTYPE_ACC_CAT_CODE">
<polygon fill="none" stroke="yellow" points="1518.04,-108 1200.01,-108 1200.01,-72 1518.04,-72 1518.04,-108"/>
<text text-anchor="middle" x="1359.03" y="-85.8" font-family="Times,serif" font-size="14.00">DTEL&#45;APS_IAM_CAT_RTYPE_ACC_CAT_CODE</text>
</a>
</g>
</g>
<!-- TABL&#45;APS_IAM_BR_FLDS_DATA&#45;&gt;DTEL&#45;APS_IAM_CAT_RTYPE_ACC_CAT_CODE -->
<g id="edge6" class="edge">
<title>TABL&#45;APS_IAM_BR_FLDS_DATA&#45;&gt;DTEL&#45;APS_IAM_CAT_RTYPE_ACC_CAT_CODE</title>
<path fill="none" stroke="black" d="M1140.36,-143.97C1182.13,-133.85 1235.25,-120.98 1278.67,-110.46"/>
<polygon fill="black" stroke="black" points="1279.74,-113.81 1288.64,-108.05 1278.09,-107 1279.74,-113.81"/>
</g>
<!-- TABL&#45;APS_IAM_BR_FLDS_DATA&#45;&gt;DTEL&#45;UUID -->
<g id="edge5" class="edge">
<title>TABL&#45;APS_IAM_BR_FLDS_DATA&#45;&gt;DTEL&#45;UUID</title>
<path fill="none" stroke="black" d="M1185.06,-153.56C1275.6,-146.33 1404.91,-132.97 1526.42,-107.9"/>
<polygon fill="black" stroke="black" points="1527.21,-111.31 1536.28,-105.83 1525.77,-104.46 1527.21,-111.31"/>
</g>
<!-- DOMA&#45;XFELD -->
<g id="node5" class="node">
<title>DOMA&#45;XFELD</title>
<g id="a_node5"><a xlink:href="./DOMA_XFELD.html" xlink:title="DOMA&#45;XFELD">
<polygon fill="none" stroke="yellow" points="200.05,-36 92,-36 92,0 200.05,0 200.05,-36"/>
<text text-anchor="middle" x="146.03" y="-13.8" font-family="Times,serif" font-size="14.00">DOMA&#45;XFELD</text>
</a>
</g>
</g>
<!-- DTEL&#45;APS_IAM_BROLE_CMN_INDICATOR&#45;&gt;DOMA&#45;XFELD -->
<g id="edge11" class="edge">
<title>DTEL&#45;APS_IAM_BROLE_CMN_INDICATOR&#45;&gt;DOMA&#45;XFELD</title>
<path fill="none" stroke="black" d="M146.03,-71.7C146.03,-63.98 146.03,-54.71 146.03,-46.11"/>
<polygon fill="black" stroke="black" points="149.53,-46.1 146.03,-36.1 142.53,-46.1 149.53,-46.1"/>
</g>
<!-- DOMA&#45;APS_IAM_BROLE_STATUS_MAINT_RES -->
<g id="node7" class="node">
<title>DOMA&#45;APS_IAM_BROLE_STATUS_MAINT_RES</title>
<g id="a_node7"><a xlink:href="./DOMA_APS_IAM_BROLE_STATUS_MAINT_RES.html" xlink:title="DOMA&#45;APS_IAM_BROLE_STATUS_MAINT_RES">
<polygon fill="none" stroke="yellow" points="627.65,-36 306.41,-36 306.41,0 627.65,0 627.65,-36"/>
<text text-anchor="middle" x="467.03" y="-13.8" font-family="Times,serif" font-size="14.00">DOMA&#45;APS_IAM_BROLE_STATUS_MAINT_RES</text>
</a>
</g>
</g>
<!-- DTEL&#45;APS_IAM_BROLE_STATUS_MAINT_RES&#45;&gt;DOMA&#45;APS_IAM_BROLE_STATUS_MAINT_RES -->
<g id="edge12" class="edge">
<title>DTEL&#45;APS_IAM_BROLE_STATUS_MAINT_RES&#45;&gt;DOMA&#45;APS_IAM_BROLE_STATUS_MAINT_RES</title>
<path fill="none" stroke="black" d="M467.03,-71.7C467.03,-63.98 467.03,-54.71 467.03,-46.11"/>
<polygon fill="black" stroke="black" points="470.53,-46.1 467.03,-36.1 463.53,-46.1 470.53,-46.1"/>
</g>
<!-- DOMA&#45;FDNAME -->
<g id="node9" class="node">
<title>DOMA&#45;FDNAME</title>
<g id="a_node9"><a xlink:href="./DOMA_FDNAME.html" xlink:title="DOMA&#45;FDNAME">
<polygon fill="none" stroke="yellow" points="852.05,-36 730,-36 730,0 852.05,0 852.05,-36"/>
<text text-anchor="middle" x="791.03" y="-13.8" font-family="Times,serif" font-size="14.00">DOMA&#45;FDNAME</text>
</a>
</g>
</g>
<!-- DTEL&#45;APS_IAM_CAT_RTYPE_FIELD_NAME&#45;&gt;DOMA&#45;FDNAME -->
<g id="edge13" class="edge">
<title>DTEL&#45;APS_IAM_CAT_RTYPE_FIELD_NAME&#45;&gt;DOMA&#45;FDNAME</title>
<path fill="none" stroke="black" d="M791.03,-71.7C791.03,-63.98 791.03,-54.71 791.03,-46.11"/>
<polygon fill="black" stroke="black" points="794.53,-46.1 791.03,-36.1 787.53,-46.1 794.53,-46.1"/>
</g>
<!-- DOMA&#45;APS_IAM_CAT_RTYPE_ID -->
<g id="node11" class="node">
<title>DOMA&#45;APS_IAM_CAT_RTYPE_ID</title>
<g id="a_node11"><a xlink:href="./DOMA_APS_IAM_CAT_RTYPE_ID.html" xlink:title="DOMA&#45;APS_IAM_CAT_RTYPE_ID">
<polygon fill="none" stroke="yellow" points="1178.93,-36 947.12,-36 947.12,0 1178.93,0 1178.93,-36"/>
<text text-anchor="middle" x="1063.03" y="-13.8" font-family="Times,serif" font-size="14.00">DOMA&#45;APS_IAM_CAT_RTYPE_ID</text>
</a>
</g>
</g>
<!-- DTEL&#45;APS_IAM_CAT_RTYPE_ID&#45;&gt;DOMA&#45;APS_IAM_CAT_RTYPE_ID -->
<g id="edge14" class="edge">
<title>DTEL&#45;APS_IAM_CAT_RTYPE_ID&#45;&gt;DOMA&#45;APS_IAM_CAT_RTYPE_ID</title>
<path fill="none" stroke="black" d="M1068.3,-71.7C1067.53,-63.98 1066.6,-54.71 1065.74,-46.11"/>
<polygon fill="black" stroke="black" points="1069.22,-45.71 1064.74,-36.1 1062.25,-46.4 1069.22,-45.71"/>
</g>
<!-- DOMA&#45;APS_IAM_CAT_RTYPE_ACC_CAT_CODE -->
<g id="node13" class="node">
<title>DOMA&#45;APS_IAM_CAT_RTYPE_ACC_CAT_CODE</title>
<g id="a_node13"><a xlink:href="./DOMA_APS_IAM_CAT_RTYPE_ACC_CAT_CODE.html" xlink:title="DOMA&#45;APS_IAM_CAT_RTYPE_ACC_CAT_CODE">
<polygon fill="none" stroke="yellow" points="1521.54,-36 1196.51,-36 1196.51,0 1521.54,0 1521.54,-36"/>
<text text-anchor="middle" x="1359.03" y="-13.8" font-family="Times,serif" font-size="14.00">DOMA&#45;APS_IAM_CAT_RTYPE_ACC_CAT_CODE</text>
</a>
</g>
</g>
<!-- DTEL&#45;APS_IAM_CAT_RTYPE_ACC_CAT_CODE&#45;&gt;DOMA&#45;APS_IAM_CAT_RTYPE_ACC_CAT_CODE -->
<g id="edge15" class="edge">
<title>DTEL&#45;APS_IAM_CAT_RTYPE_ACC_CAT_CODE&#45;&gt;DOMA&#45;APS_IAM_CAT_RTYPE_ACC_CAT_CODE</title>
<path fill="none" stroke="black" d="M1359.03,-71.7C1359.03,-63.98 1359.03,-54.71 1359.03,-46.11"/>
<polygon fill="black" stroke="black" points="1362.53,-46.1 1359.03,-36.1 1355.53,-46.1 1362.53,-46.1"/>
</g>
<!-- DOMA&#45;UUID -->
<g id="node15" class="node">
<title>DOMA&#45;UUID</title>
<g id="a_node15"><a xlink:href="./DOMA_UUID.html" xlink:title="DOMA&#45;UUID">
<polygon fill="none" stroke="yellow" points="1638.43,-36 1539.62,-36 1539.62,0 1638.43,0 1638.43,-36"/>
<text text-anchor="middle" x="1589.03" y="-13.8" font-family="Times,serif" font-size="14.00">DOMA&#45;UUID</text>
</a>
</g>
</g>
<!-- DTEL&#45;UUID&#45;&gt;DOMA&#45;UUID -->
<g id="edge16" class="edge">
<title>DTEL&#45;UUID&#45;&gt;DOMA&#45;UUID</title>
<path fill="none" stroke="black" d="M1583.76,-71.7C1584.53,-63.98 1585.46,-54.71 1586.32,-46.11"/>
<polygon fill="black" stroke="black" points="1589.8,-46.4 1587.32,-36.1 1582.84,-45.71 1589.8,-46.4"/>
</g>
<!-- DOMA&#45;MANDT -->
<g id="node17" class="node">
<title>DOMA&#45;MANDT</title>
<g id="a_node17"><a xlink:href="./DOMA_MANDT.html" xlink:title="DOMA&#45;MANDT">
<polygon fill="none" stroke="yellow" points="1760.27,-108 1645.79,-108 1645.79,-72 1760.27,-72 1760.27,-108"/>
<text text-anchor="middle" x="1703.03" y="-85.8" font-family="Times,serif" font-size="14.00">DOMA&#45;MANDT</text>
</a>
</g>
</g>
<!-- DTEL&#45;MANDT&#45;&gt;DOMA&#45;MANDT -->
<g id="edge17" class="edge">
<title>DTEL&#45;MANDT&#45;&gt;DOMA&#45;MANDT</title>
<path fill="none" stroke="black" d="M1687.97,-143.7C1690.2,-135.9 1692.88,-126.51 1695.36,-117.83"/>
<polygon fill="black" stroke="black" points="1698.76,-118.68 1698.14,-108.1 1692.03,-116.76 1698.76,-118.68"/>
</g>
</g>
</svg>
