<?xml version="1.0" encoding="UTF-8" standalone="no"?>
<!DOCTYPE svg PUBLIC "-//W3C//DTD SVG 1.1//EN"
 "http://www.w3.org/Graphics/SVG/1.1/DTD/svg11.dtd">
<!-- Generated by graphviz version 2.47.3 (20210619.1520)
 -->
<!-- Title: G Pages: 1 -->
<svg width="2078pt" height="404pt"
 viewBox="0.00 0.00 2077.81 404.00" xmlns="http://www.w3.org/2000/svg" xmlns:xlink="http://www.w3.org/1999/xlink">
<g id="graph0" class="graph" transform="scale(1 1) rotate(0) translate(4 400)">
<title>G</title>
<polygon fill="white" stroke="transparent" points="-4,4 -4,-400 2073.81,-400 2073.81,4 -4,4"/>
<!-- TTYP&#45;ADDRT_SSF_ADDRESS -->
<g id="node1" class="node">
<title>TTYP&#45;ADDRT_SSF_ADDRESS</title>
<polygon fill="none" stroke="yellow" points="1211.86,-396 1006.89,-396 1006.89,-360 1211.86,-360 1211.86,-396"/>
<text text-anchor="middle" x="1109.38" y="-373.8" font-family="Times,serif" font-size="14.00">TTYP&#45;ADDRT_SSF_ADDRESS</text>
</g>
<!-- TABL&#45;ADDRS_SSF_ADDRESS -->
<g id="node2" class="node">
<title>TABL&#45;ADDRS_SSF_ADDRESS</title>
<g id="a_node2"><a xlink:href="./TABL_ADDRS_SSF_ADDRESS.html" xlink:title="TABL&#45;ADDRS_SSF_ADDRESS">
<polygon fill="none" stroke="yellow" points="1212.15,-324 1006.61,-324 1006.61,-288 1212.15,-288 1212.15,-324"/>
<text text-anchor="middle" x="1109.38" y="-301.8" font-family="Times,serif" font-size="14.00">TABL&#45;ADDRS_SSF_ADDRESS</text>
</a>
</g>
</g>
<!-- TTYP&#45;ADDRT_SSF_ADDRESS&#45;&gt;TABL&#45;ADDRS_SSF_ADDRESS -->
<g id="edge1" class="edge">
<title>TTYP&#45;ADDRT_SSF_ADDRESS&#45;&gt;TABL&#45;ADDRS_SSF_ADDRESS</title>
<path fill="none" stroke="black" d="M1109.38,-359.7C1109.38,-351.98 1109.38,-342.71 1109.38,-334.11"/>
<polygon fill="black" stroke="black" points="1112.88,-334.1 1109.38,-324.1 1105.88,-334.1 1112.88,-334.1"/>
</g>
<!-- DTEL&#45;AD_SSFID -->
<g id="node3" class="node">
<title>DTEL&#45;AD_SSFID</title>
<g id="a_node3"><a xlink:href="./DTEL_AD_SSFID.html" xlink:title="DTEL&#45;AD_SSFID">
<polygon fill="none" stroke="yellow" points="127.13,-252 5.62,-252 5.62,-216 127.13,-216 127.13,-252"/>
<text text-anchor="middle" x="66.38" y="-229.8" font-family="Times,serif" font-size="14.00">DTEL&#45;AD_SSFID</text>
</a>
</g>
</g>
<!-- TABL&#45;ADDRS_SSF_ADDRESS&#45;&gt;DTEL&#45;AD_SSFID -->
<g id="edge15" class="edge">
<title>TABL&#45;ADDRS_SSF_ADDRESS&#45;&gt;DTEL&#45;AD_SSFID</title>
<path fill="none" stroke="black" d="M1006.26,-305.47C828.11,-304.92 451.57,-297.8 137.38,-252 137.27,-251.99 137.17,-251.97 137.07,-251.96"/>
<polygon fill="black" stroke="black" points="137.87,-248.54 127.43,-250.36 136.73,-255.45 137.87,-248.54"/>
</g>
<!-- DTEL&#45;AD_OP_CODE -->
<g id="node5" class="node">
<title>DTEL&#45;AD_OP_CODE</title>
<g id="a_node5"><a xlink:href="./DTEL_AD_OP_CODE.html" xlink:title="DTEL&#45;AD_OP_CODE">
<polygon fill="none" stroke="yellow" points="524.51,-108 378.25,-108 378.25,-72 524.51,-72 524.51,-108"/>
<text text-anchor="middle" x="451.38" y="-85.8" font-family="Times,serif" font-size="14.00">DTEL&#45;AD_OP_CODE</text>
</a>
</g>
</g>
<!-- TABL&#45;ADDRS_SSF_ADDRESS&#45;&gt;DTEL&#45;AD_OP_CODE -->
<g id="edge14" class="edge">
<title>TABL&#45;ADDRS_SSF_ADDRESS&#45;&gt;DTEL&#45;AD_OP_CODE</title>
<path fill="none" stroke="black" d="M1006.6,-298.73C888.32,-290.61 701.82,-274.73 635.38,-252 577.25,-232.11 562.73,-221.44 517.38,-180 497.12,-161.49 478.94,-135.97 466.82,-117.01"/>
<polygon fill="black" stroke="black" points="469.64,-114.91 461.37,-108.28 463.7,-118.62 469.64,-114.91"/>
</g>
<!-- TTYP&#45;ADDRT_COMMUNICATION_DATA_USAGE -->
<g id="node7" class="node">
<title>TTYP&#45;ADDRT_COMMUNICATION_DATA_USAGE</title>
<g id="a_node7"><a xlink:href="./TTYP_ADDRT_COMMUNICATION_DATA_USAGE.html" xlink:title="TTYP&#45;ADDRT_COMMUNICATION_DATA_USAGE">
<polygon fill="none" stroke="yellow" points="1024.84,-252 691.91,-252 691.91,-216 1024.84,-216 1024.84,-252"/>
<text text-anchor="middle" x="858.38" y="-229.8" font-family="Times,serif" font-size="14.00">TTYP&#45;ADDRT_COMMUNICATION_DATA_USAGE</text>
</a>
</g>
</g>
<!-- TABL&#45;ADDRS_SSF_ADDRESS&#45;&gt;TTYP&#45;ADDRT_COMMUNICATION_DATA_USAGE -->
<g id="edge13" class="edge">
<title>TABL&#45;ADDRS_SSF_ADDRESS&#45;&gt;TTYP&#45;ADDRT_COMMUNICATION_DATA_USAGE</title>
<path fill="none" stroke="black" d="M1048.3,-287.97C1012.46,-277.97 967.02,-265.3 929.57,-254.85"/>
<polygon fill="black" stroke="black" points="930.3,-251.43 919.73,-252.11 928.42,-258.17 930.3,-251.43"/>
</g>
<!-- DTEL&#45;ADDR_NODE_ID -->
<g id="node9" class="node">
<title>DTEL&#45;ADDR_NODE_ID</title>
<g id="a_node9"><a xlink:href="./DTEL_ADDR_NODE_ID.html" xlink:title="DTEL&#45;ADDR_NODE_ID">
<polygon fill="none" stroke="yellow" points="1066.1,-108 902.66,-108 902.66,-72 1066.1,-72 1066.1,-108"/>
<text text-anchor="middle" x="984.38" y="-85.8" font-family="Times,serif" font-size="14.00">DTEL&#45;ADDR_NODE_ID</text>
</a>
</g>
</g>
<!-- TABL&#45;ADDRS_SSF_ADDRESS&#45;&gt;DTEL&#45;ADDR_NODE_ID -->
<g id="edge2" class="edge">
<title>TABL&#45;ADDRS_SSF_ADDRESS&#45;&gt;DTEL&#45;ADDR_NODE_ID</title>
<path fill="none" stroke="black" d="M1103.2,-287.64C1091.91,-257.1 1066.05,-192.42 1033.38,-144 1026.72,-134.14 1018.26,-124.3 1010.26,-115.83"/>
<polygon fill="black" stroke="black" points="1012.57,-113.19 1003.09,-108.47 1007.56,-118.08 1012.57,-113.19"/>
</g>
<!-- DTEL&#45;AD_VALFROM -->
<g id="node13" class="node">
<title>DTEL&#45;AD_VALFROM</title>
<g id="a_node13"><a xlink:href="./DTEL_AD_VALFROM.html" xlink:title="DTEL&#45;AD_VALFROM">
<polygon fill="none" stroke="yellow" points="1236.45,-108 1084.3,-108 1084.3,-72 1236.45,-72 1236.45,-108"/>
<text text-anchor="middle" x="1160.38" y="-85.8" font-family="Times,serif" font-size="14.00">DTEL&#45;AD_VALFROM</text>
</a>
</g>
</g>
<!-- TABL&#45;ADDRS_SSF_ADDRESS&#45;&gt;DTEL&#45;AD_VALFROM -->
<g id="edge9" class="edge">
<title>TABL&#45;ADDRS_SSF_ADDRESS&#45;&gt;DTEL&#45;AD_VALFROM</title>
<path fill="none" stroke="black" d="M1106.27,-287.8C1101.57,-257.52 1095.12,-193.22 1114.38,-144 1118.41,-133.68 1125.39,-124.01 1132.7,-115.82"/>
<polygon fill="black" stroke="black" points="1135.36,-118.1 1139.73,-108.45 1130.3,-113.27 1135.36,-118.1"/>
</g>
<!-- DTEL&#45;AD_VALTO -->
<g id="node15" class="node">
<title>DTEL&#45;AD_VALTO</title>
<g id="a_node15"><a xlink:href="./DTEL_AD_VALTO.html" xlink:title="DTEL&#45;AD_VALTO">
<polygon fill="none" stroke="yellow" points="1385.94,-108 1254.81,-108 1254.81,-72 1385.94,-72 1385.94,-108"/>
<text text-anchor="middle" x="1320.38" y="-85.8" font-family="Times,serif" font-size="14.00">DTEL&#45;AD_VALTO</text>
</a>
</g>
</g>
<!-- TABL&#45;ADDRS_SSF_ADDRESS&#45;&gt;DTEL&#45;AD_VALTO -->
<g id="edge10" class="edge">
<title>TABL&#45;ADDRS_SSF_ADDRESS&#45;&gt;DTEL&#45;AD_VALTO</title>
<path fill="none" stroke="black" d="M1111.64,-287.89C1116.83,-255.39 1132.52,-184.4 1174.38,-144 1185.81,-132.97 1217.64,-120.87 1248.67,-111.01"/>
<polygon fill="black" stroke="black" points="1249.74,-114.35 1258.25,-108.03 1247.66,-107.66 1249.74,-114.35"/>
</g>
<!-- TTYP&#45;ADDRT_COMMUNICATION_DATA_NOTE -->
<g id="node19" class="node">
<title>TTYP&#45;ADDRT_COMMUNICATION_DATA_NOTE</title>
<g id="a_node19"><a xlink:href="./TTYP_ADDRT_COMMUNICATION_DATA_NOTE.html" xlink:title="TTYP&#45;ADDRT_COMMUNICATION_DATA_NOTE">
<polygon fill="none" stroke="yellow" points="470.01,-252 146.75,-252 146.75,-216 470.01,-216 470.01,-252"/>
<text text-anchor="middle" x="308.38" y="-229.8" font-family="Times,serif" font-size="14.00">TTYP&#45;ADDRT_COMMUNICATION_DATA_NOTE</text>
</a>
</g>
</g>
<!-- TABL&#45;ADDRS_SSF_ADDRESS&#45;&gt;TTYP&#45;ADDRT_COMMUNICATION_DATA_NOTE -->
<g id="edge12" class="edge">
<title>TABL&#45;ADDRS_SSF_ADDRESS&#45;&gt;TTYP&#45;ADDRT_COMMUNICATION_DATA_NOTE</title>
<path fill="none" stroke="black" d="M1006.49,-296.65C882.6,-286.5 668.2,-268.67 484.38,-252 483.04,-251.88 481.71,-251.76 480.36,-251.64"/>
<polygon fill="black" stroke="black" points="480.25,-248.11 469.97,-250.68 479.61,-255.08 480.25,-248.11"/>
</g>
<!-- TTYP&#45;ADDRT_CHANGED_FIELDS -->
<g id="node25" class="node">
<title>TTYP&#45;ADDRT_CHANGED_FIELDS</title>
<g id="a_node25"><a xlink:href="./TTYP_ADDRT_CHANGED_FIELDS.html" xlink:title="TTYP&#45;ADDRT_CHANGED_FIELDS">
<polygon fill="none" stroke="yellow" points="1390.1,-252 1156.65,-252 1156.65,-216 1390.1,-216 1390.1,-252"/>
<text text-anchor="middle" x="1273.38" y="-229.8" font-family="Times,serif" font-size="14.00">TTYP&#45;ADDRT_CHANGED_FIELDS</text>
</a>
</g>
</g>
<!-- TABL&#45;ADDRS_SSF_ADDRESS&#45;&gt;TTYP&#45;ADDRT_CHANGED_FIELDS -->
<g id="edge11" class="edge">
<title>TABL&#45;ADDRS_SSF_ADDRESS&#45;&gt;TTYP&#45;ADDRT_CHANGED_FIELDS</title>
<path fill="none" stroke="black" d="M1149.5,-287.88C1172.01,-278.26 1200.29,-266.19 1224.15,-256.01"/>
<polygon fill="black" stroke="black" points="1225.56,-259.21 1233.39,-252.07 1222.82,-252.77 1225.56,-259.21"/>
</g>
<!-- DTEL&#45;CHAR1 -->
<g id="node28" class="node">
<title>DTEL&#45;CHAR1</title>
<g id="a_node28"><a xlink:href="./DTEL_CHAR1.html" xlink:title="DTEL&#45;CHAR1">
<polygon fill="none" stroke="yellow" points="1510.69,-252 1408.06,-252 1408.06,-216 1510.69,-216 1510.69,-252"/>
<text text-anchor="middle" x="1459.38" y="-229.8" font-family="Times,serif" font-size="14.00">DTEL&#45;CHAR1</text>
</a>
</g>
</g>
<!-- TABL&#45;ADDRS_SSF_ADDRESS&#45;&gt;DTEL&#45;CHAR1 -->
<g id="edge8" class="edge">
<title>TABL&#45;ADDRS_SSF_ADDRESS&#45;&gt;DTEL&#45;CHAR1</title>
<path fill="none" stroke="black" d="M1212.2,-288.66C1265.26,-279.65 1331.17,-267.54 1398.18,-252.17"/>
<polygon fill="black" stroke="black" points="1399.12,-255.55 1408.07,-249.88 1397.54,-248.73 1399.12,-255.55"/>
</g>
<!-- DTEL&#45;SSFPROF -->
<g id="node30" class="node">
<title>DTEL&#45;SSFPROF</title>
<g id="a_node30"><a xlink:href="./DTEL_SSFPROF.html" xlink:title="DTEL&#45;SSFPROF">
<polygon fill="none" stroke="yellow" points="1643.66,-252 1529.1,-252 1529.1,-216 1643.66,-216 1643.66,-252"/>
<text text-anchor="middle" x="1586.38" y="-229.8" font-family="Times,serif" font-size="14.00">DTEL&#45;SSFPROF</text>
</a>
</g>
</g>
<!-- TABL&#45;ADDRS_SSF_ADDRESS&#45;&gt;DTEL&#45;SSFPROF -->
<g id="edge7" class="edge">
<title>TABL&#45;ADDRS_SSF_ADDRESS&#45;&gt;DTEL&#45;SSFPROF</title>
<path fill="none" stroke="black" d="M1212.28,-295.16C1293.09,-286.62 1408.56,-272.65 1518.77,-251.98"/>
<polygon fill="black" stroke="black" points="1519.56,-255.4 1528.73,-250.09 1518.25,-248.52 1519.56,-255.4"/>
</g>
<!-- DTEL&#45;SSFNS -->
<g id="node32" class="node">
<title>DTEL&#45;SSFNS</title>
<g id="a_node32"><a xlink:href="./DTEL_SSFNS.html" xlink:title="DTEL&#45;SSFNS">
<polygon fill="none" stroke="yellow" points="1759.04,-252 1661.71,-252 1661.71,-216 1759.04,-216 1759.04,-252"/>
<text text-anchor="middle" x="1710.38" y="-229.8" font-family="Times,serif" font-size="14.00">DTEL&#45;SSFNS</text>
</a>
</g>
</g>
<!-- TABL&#45;ADDRS_SSF_ADDRESS&#45;&gt;DTEL&#45;SSFNS -->
<g id="edge6" class="edge">
<title>TABL&#45;ADDRS_SSF_ADDRESS&#45;&gt;DTEL&#45;SSFNS</title>
<path fill="none" stroke="black" d="M1212.28,-300.72C1319.86,-294.93 1493.5,-281.89 1651.58,-251.93"/>
<polygon fill="black" stroke="black" points="1652.33,-255.36 1661.49,-250.03 1651.01,-248.48 1652.33,-255.36"/>
</g>
<!-- DTEL&#45;AD_SSFSCR -->
<g id="node34" class="node">
<title>DTEL&#45;AD_SSFSCR</title>
<g id="a_node34"><a xlink:href="./DTEL_AD_SSFSCR.html" xlink:title="DTEL&#45;AD_SSFSCR">
<polygon fill="none" stroke="yellow" points="1917.32,-252 1783.43,-252 1783.43,-216 1917.32,-216 1917.32,-252"/>
<text text-anchor="middle" x="1850.38" y="-229.8" font-family="Times,serif" font-size="14.00">DTEL&#45;AD_SSFSCR</text>
</a>
</g>
</g>
<!-- TABL&#45;ADDRS_SSF_ADDRESS&#45;&gt;DTEL&#45;AD_SSFSCR -->
<g id="edge5" class="edge">
<title>TABL&#45;ADDRS_SSF_ADDRESS&#45;&gt;DTEL&#45;AD_SSFSCR</title>
<path fill="none" stroke="black" d="M1212.27,-300.69C1342.31,-294.32 1572.81,-280.03 1768.38,-252 1770.06,-251.76 1771.76,-251.5 1773.47,-251.24"/>
<polygon fill="black" stroke="black" points="1774.08,-254.69 1783.37,-249.6 1772.93,-247.78 1774.08,-254.69"/>
</g>
<!-- DTEL&#45;RFCDEST -->
<g id="node36" class="node">
<title>DTEL&#45;RFCDEST</title>
<g id="a_node36"><a xlink:href="./DTEL_RFCDEST.html" xlink:title="DTEL&#45;RFCDEST">
<polygon fill="none" stroke="green" points="2059.25,-252 1941.5,-252 1941.5,-216 2059.25,-216 2059.25,-252"/>
<text text-anchor="middle" x="2000.38" y="-229.8" font-family="Times,serif" font-size="14.00">DTEL&#45;RFCDEST</text>
</a>
</g>
</g>
<!-- TABL&#45;ADDRS_SSF_ADDRESS&#45;&gt;DTEL&#45;RFCDEST -->
<g id="edge4" class="edge">
<title>TABL&#45;ADDRS_SSF_ADDRESS&#45;&gt;DTEL&#45;RFCDEST</title>
<path fill="none" stroke="black" d="M1212.47,-303.62C1367.97,-300.35 1671.47,-289.3 1926.38,-252 1927.88,-251.78 1929.41,-251.54 1930.94,-251.3"/>
<polygon fill="black" stroke="black" points="1931.93,-254.68 1941.16,-249.49 1930.71,-247.78 1931.93,-254.68"/>
</g>
<!-- DTEL&#45;AD_FLNOUSE -->
<g id="node38" class="node">
<title>DTEL&#45;AD_FLNOUSE</title>
<g id="a_node38"><a xlink:href="./DTEL_AD_FLNOUSE.html" xlink:title="DTEL&#45;AD_FLNOUSE">
<polygon fill="none" stroke="yellow" points="672.51,-180 526.25,-180 526.25,-144 672.51,-144 672.51,-180"/>
<text text-anchor="middle" x="599.38" y="-157.8" font-family="Times,serif" font-size="14.00">DTEL&#45;AD_FLNOUSE</text>
</a>
</g>
</g>
<!-- TABL&#45;ADDRS_SSF_ADDRESS&#45;&gt;DTEL&#45;AD_FLNOUSE -->
<g id="edge3" class="edge">
<title>TABL&#45;ADDRS_SSF_ADDRESS&#45;&gt;DTEL&#45;AD_FLNOUSE</title>
<path fill="none" stroke="black" d="M1006.46,-300.18C898.85,-293.73 738.14,-279.75 683.38,-252 654.85,-237.55 630.84,-209.33 615.88,-188.52"/>
<polygon fill="black" stroke="black" points="618.63,-186.34 610.04,-180.12 612.88,-190.33 618.63,-186.34"/>
</g>
<!-- DOMA&#45;AD_SSFID -->
<g id="node4" class="node">
<title>DOMA&#45;AD_SSFID</title>
<g id="a_node4"><a xlink:href="./DOMA_AD_SSFID.html" xlink:title="DOMA&#45;AD_SSFID">
<polygon fill="none" stroke="yellow" points="128.63,-180 0.12,-180 0.12,-144 128.63,-144 128.63,-180"/>
<text text-anchor="middle" x="64.38" y="-157.8" font-family="Times,serif" font-size="14.00">DOMA&#45;AD_SSFID</text>
</a>
</g>
</g>
<!-- DTEL&#45;AD_SSFID&#45;&gt;DOMA&#45;AD_SSFID -->
<g id="edge16" class="edge">
<title>DTEL&#45;AD_SSFID&#45;&gt;DOMA&#45;AD_SSFID</title>
<path fill="none" stroke="black" d="M65.88,-215.7C65.66,-207.98 65.4,-198.71 65.15,-190.11"/>
<polygon fill="black" stroke="black" points="68.65,-190 64.87,-180.1 61.65,-190.2 68.65,-190"/>
</g>
<!-- DOMA&#45;AD_OP_CODE -->
<g id="node6" class="node">
<title>DOMA&#45;AD_OP_CODE</title>
<g id="a_node6"><a xlink:href="./DOMA_AD_OP_CODE.html" xlink:title="DOMA&#45;AD_OP_CODE">
<polygon fill="none" stroke="yellow" points="530.01,-36 376.75,-36 376.75,0 530.01,0 530.01,-36"/>
<text text-anchor="middle" x="453.38" y="-13.8" font-family="Times,serif" font-size="14.00">DOMA&#45;AD_OP_CODE</text>
</a>
</g>
</g>
<!-- DTEL&#45;AD_OP_CODE&#45;&gt;DOMA&#45;AD_OP_CODE -->
<g id="edge17" class="edge">
<title>DTEL&#45;AD_OP_CODE&#45;&gt;DOMA&#45;AD_OP_CODE</title>
<path fill="none" stroke="black" d="M451.87,-71.7C452.09,-63.98 452.36,-54.71 452.6,-46.11"/>
<polygon fill="black" stroke="black" points="456.1,-46.2 452.89,-36.1 449.1,-46 456.1,-46.2"/>
</g>
<!-- TABL&#45;ADDRS_COMMUNICATION_DATA_USAGE -->
<g id="node8" class="node">
<title>TABL&#45;ADDRS_COMMUNICATION_DATA_USAGE</title>
<g id="a_node8"><a xlink:href="./TABL_ADDRS_COMMUNICATION_DATA_USAGE.html" xlink:title="TABL&#45;ADDRS_COMMUNICATION_DATA_USAGE">
<polygon fill="none" stroke="yellow" points="1024.13,-180 690.63,-180 690.63,-144 1024.13,-144 1024.13,-180"/>
<text text-anchor="middle" x="857.38" y="-157.8" font-family="Times,serif" font-size="14.00">TABL&#45;ADDRS_COMMUNICATION_DATA_USAGE</text>
</a>
</g>
</g>
<!-- TTYP&#45;ADDRT_COMMUNICATION_DATA_USAGE&#45;&gt;TABL&#45;ADDRS_COMMUNICATION_DATA_USAGE -->
<g id="edge18" class="edge">
<title>TTYP&#45;ADDRT_COMMUNICATION_DATA_USAGE&#45;&gt;TABL&#45;ADDRS_COMMUNICATION_DATA_USAGE</title>
<path fill="none" stroke="black" d="M858.13,-215.7C858.02,-207.98 857.89,-198.71 857.76,-190.11"/>
<polygon fill="black" stroke="black" points="861.26,-190.05 857.62,-180.1 854.26,-190.15 861.26,-190.05"/>
</g>
<!-- TABL&#45;ADDRS_COMMUNICATION_DATA_USAGE&#45;&gt;DTEL&#45;AD_OP_CODE -->
<g id="edge24" class="edge">
<title>TABL&#45;ADDRS_COMMUNICATION_DATA_USAGE&#45;&gt;DTEL&#45;AD_OP_CODE</title>
<path fill="none" stroke="black" d="M758.58,-143.97C690.07,-132.15 599.83,-116.6 534.9,-105.4"/>
<polygon fill="black" stroke="black" points="535.16,-101.89 524.71,-103.64 533.97,-108.79 535.16,-101.89"/>
</g>
<!-- TABL&#45;ADDRS_COMMUNICATION_DATA_USAGE&#45;&gt;DTEL&#45;ADDR_NODE_ID -->
<g id="edge23" class="edge">
<title>TABL&#45;ADDRS_COMMUNICATION_DATA_USAGE&#45;&gt;DTEL&#45;ADDR_NODE_ID</title>
<path fill="none" stroke="black" d="M888.44,-143.88C905.2,-134.64 926.08,-123.13 944.08,-113.21"/>
<polygon fill="black" stroke="black" points="946.12,-116.08 953.19,-108.19 942.74,-109.95 946.12,-116.08"/>
</g>
<!-- DTEL&#45;AD_CDEFUSE -->
<g id="node11" class="node">
<title>DTEL&#45;AD_CDEFUSE</title>
<g id="a_node11"><a xlink:href="./DTEL_AD_CDEFUSE.html" xlink:title="DTEL&#45;AD_CDEFUSE">
<polygon fill="none" stroke="yellow" points="726.24,-108 580.52,-108 580.52,-72 726.24,-72 726.24,-108"/>
<text text-anchor="middle" x="653.38" y="-85.8" font-family="Times,serif" font-size="14.00">DTEL&#45;AD_CDEFUSE</text>
</a>
</g>
</g>
<!-- TABL&#45;ADDRS_COMMUNICATION_DATA_USAGE&#45;&gt;DTEL&#45;AD_CDEFUSE -->
<g id="edge22" class="edge">
<title>TABL&#45;ADDRS_COMMUNICATION_DATA_USAGE&#45;&gt;DTEL&#45;AD_CDEFUSE</title>
<path fill="none" stroke="black" d="M807.73,-143.97C779.11,-134.14 742.93,-121.73 712.8,-111.39"/>
<polygon fill="black" stroke="black" points="713.84,-108.05 703.24,-108.11 711.57,-114.67 713.84,-108.05"/>
</g>
<!-- TABL&#45;ADDRS_COMMUNICATION_DATA_USAGE&#45;&gt;DTEL&#45;AD_VALFROM -->
<g id="edge21" class="edge">
<title>TABL&#45;ADDRS_COMMUNICATION_DATA_USAGE&#45;&gt;DTEL&#45;AD_VALFROM</title>
<path fill="none" stroke="black" d="M931.11,-143.97C975.09,-133.8 1031.07,-120.87 1076.71,-110.33"/>
<polygon fill="black" stroke="black" points="1077.62,-113.71 1086.57,-108.05 1076.04,-106.89 1077.62,-113.71"/>
</g>
<!-- TABL&#45;ADDRS_COMMUNICATION_DATA_USAGE&#45;&gt;DTEL&#45;AD_VALTO -->
<g id="edge20" class="edge">
<title>TABL&#45;ADDRS_COMMUNICATION_DATA_USAGE&#45;&gt;DTEL&#45;AD_VALTO</title>
<path fill="none" stroke="black" d="M1004.33,-143.99C1074.39,-135.13 1159.52,-123.29 1244.74,-108.03"/>
<polygon fill="black" stroke="black" points="1245.37,-111.47 1254.59,-106.25 1244.13,-104.58 1245.37,-111.47"/>
</g>
<!-- DTEL&#45;AD_CUSAGE -->
<g id="node17" class="node">
<title>DTEL&#45;AD_CUSAGE</title>
<g id="a_node17"><a xlink:href="./DTEL_AD_CUSAGE.html" xlink:title="DTEL&#45;AD_CUSAGE">
<polygon fill="none" stroke="yellow" points="884.01,-108 744.75,-108 744.75,-72 884.01,-72 884.01,-108"/>
<text text-anchor="middle" x="814.38" y="-85.8" font-family="Times,serif" font-size="14.00">DTEL&#45;AD_CUSAGE</text>
</a>
</g>
</g>
<!-- TABL&#45;ADDRS_COMMUNICATION_DATA_USAGE&#45;&gt;DTEL&#45;AD_CUSAGE -->
<g id="edge19" class="edge">
<title>TABL&#45;ADDRS_COMMUNICATION_DATA_USAGE&#45;&gt;DTEL&#45;AD_CUSAGE</title>
<path fill="none" stroke="black" d="M846.75,-143.7C841.75,-135.56 835.69,-125.69 830.16,-116.7"/>
<polygon fill="black" stroke="black" points="833.1,-114.79 824.88,-108.1 827.14,-118.46 833.1,-114.79"/>
</g>
<!-- DOMA&#45;ADDR_NODE_ID -->
<g id="node10" class="node">
<title>DOMA&#45;ADDR_NODE_ID</title>
<g id="a_node10"><a xlink:href="./DOMA_ADDR_NODE_ID.html" xlink:title="DOMA&#45;ADDR_NODE_ID">
<polygon fill="none" stroke="yellow" points="1072.6,-36 902.16,-36 902.16,0 1072.6,0 1072.6,-36"/>
<text text-anchor="middle" x="987.38" y="-13.8" font-family="Times,serif" font-size="14.00">DOMA&#45;ADDR_NODE_ID</text>
</a>
</g>
</g>
<!-- DTEL&#45;ADDR_NODE_ID&#45;&gt;DOMA&#45;ADDR_NODE_ID -->
<g id="edge25" class="edge">
<title>DTEL&#45;ADDR_NODE_ID&#45;&gt;DOMA&#45;ADDR_NODE_ID</title>
<path fill="none" stroke="black" d="M985.12,-71.7C985.45,-63.98 985.85,-54.71 986.21,-46.11"/>
<polygon fill="black" stroke="black" points="989.71,-46.25 986.64,-36.1 982.72,-45.95 989.71,-46.25"/>
</g>
<!-- DOMA&#45;XFELD -->
<g id="node12" class="node">
<title>DOMA&#45;XFELD</title>
<g id="a_node12"><a xlink:href="./DOMA_XFELD.html" xlink:title="DOMA&#45;XFELD">
<polygon fill="none" stroke="yellow" points="681.4,-36 573.35,-36 573.35,0 681.4,0 681.4,-36"/>
<text text-anchor="middle" x="627.38" y="-13.8" font-family="Times,serif" font-size="14.00">DOMA&#45;XFELD</text>
</a>
</g>
</g>
<!-- DTEL&#45;AD_CDEFUSE&#45;&gt;DOMA&#45;XFELD -->
<g id="edge26" class="edge">
<title>DTEL&#45;AD_CDEFUSE&#45;&gt;DOMA&#45;XFELD</title>
<path fill="none" stroke="black" d="M646.95,-71.7C644.02,-63.81 640.49,-54.3 637.24,-45.55"/>
<polygon fill="black" stroke="black" points="640.49,-44.26 633.73,-36.1 633.93,-46.7 640.49,-44.26"/>
</g>
<!-- DOMA&#45;TIMESTMP -->
<g id="node14" class="node">
<title>DOMA&#45;TIMESTMP</title>
<g id="a_node14"><a xlink:href="./DOMA_TIMESTMP.html" xlink:title="DOMA&#45;TIMESTMP">
<polygon fill="none" stroke="yellow" points="1227.57,-36 1093.18,-36 1093.18,0 1227.57,0 1227.57,-36"/>
<text text-anchor="middle" x="1160.38" y="-13.8" font-family="Times,serif" font-size="14.00">DOMA&#45;TIMESTMP</text>
</a>
</g>
</g>
<!-- DTEL&#45;AD_VALFROM&#45;&gt;DOMA&#45;TIMESTMP -->
<g id="edge27" class="edge">
<title>DTEL&#45;AD_VALFROM&#45;&gt;DOMA&#45;TIMESTMP</title>
<path fill="none" stroke="black" d="M1160.38,-71.7C1160.38,-63.98 1160.38,-54.71 1160.38,-46.11"/>
<polygon fill="black" stroke="black" points="1163.88,-46.1 1160.38,-36.1 1156.88,-46.1 1163.88,-46.1"/>
</g>
<!-- DOMA&#45;TIMESTAMP -->
<g id="node16" class="node">
<title>DOMA&#45;TIMESTAMP</title>
<g id="a_node16"><a xlink:href="./DOMA_TIMESTAMP.html" xlink:title="DOMA&#45;TIMESTAMP">
<polygon fill="none" stroke="yellow" points="1392.68,-36 1248.07,-36 1248.07,0 1392.68,0 1392.68,-36"/>
<text text-anchor="middle" x="1320.38" y="-13.8" font-family="Times,serif" font-size="14.00">DOMA&#45;TIMESTAMP</text>
</a>
</g>
</g>
<!-- DTEL&#45;AD_VALTO&#45;&gt;DOMA&#45;TIMESTAMP -->
<g id="edge28" class="edge">
<title>DTEL&#45;AD_VALTO&#45;&gt;DOMA&#45;TIMESTAMP</title>
<path fill="none" stroke="black" d="M1320.38,-71.7C1320.38,-63.98 1320.38,-54.71 1320.38,-46.11"/>
<polygon fill="black" stroke="black" points="1323.88,-46.1 1320.38,-36.1 1316.88,-46.1 1323.88,-46.1"/>
</g>
<!-- DOMA&#45;AD_CUSAGE -->
<g id="node18" class="node">
<title>DOMA&#45;AD_CUSAGE</title>
<g id="a_node18"><a xlink:href="./DOMA_AD_CUSAGE.html" xlink:title="DOMA&#45;AD_CUSAGE">
<polygon fill="none" stroke="yellow" points="883.51,-36 737.25,-36 737.25,0 883.51,0 883.51,-36"/>
<text text-anchor="middle" x="810.38" y="-13.8" font-family="Times,serif" font-size="14.00">DOMA&#45;AD_CUSAGE</text>
</a>
</g>
</g>
<!-- DTEL&#45;AD_CUSAGE&#45;&gt;DOMA&#45;AD_CUSAGE -->
<g id="edge29" class="edge">
<title>DTEL&#45;AD_CUSAGE&#45;&gt;DOMA&#45;AD_CUSAGE</title>
<path fill="none" stroke="black" d="M813.39,-71.7C812.95,-63.98 812.42,-54.71 811.93,-46.11"/>
<polygon fill="black" stroke="black" points="815.42,-45.89 811.35,-36.1 808.43,-46.29 815.42,-45.89"/>
</g>
<!-- TABL&#45;ADDRS_COMMUNICATION_DATA_NOTE -->
<g id="node20" class="node">
<title>TABL&#45;ADDRS_COMMUNICATION_DATA_NOTE</title>
<g id="a_node20"><a xlink:href="./TABL_ADDRS_COMMUNICATION_DATA_NOTE.html" xlink:title="TABL&#45;ADDRS_COMMUNICATION_DATA_NOTE">
<polygon fill="none" stroke="yellow" points="470.29,-180 146.46,-180 146.46,-144 470.29,-144 470.29,-180"/>
<text text-anchor="middle" x="308.38" y="-157.8" font-family="Times,serif" font-size="14.00">TABL&#45;ADDRS_COMMUNICATION_DATA_NOTE</text>
</a>
</g>
</g>
<!-- TTYP&#45;ADDRT_COMMUNICATION_DATA_NOTE&#45;&gt;TABL&#45;ADDRS_COMMUNICATION_DATA_NOTE -->
<g id="edge30" class="edge">
<title>TTYP&#45;ADDRT_COMMUNICATION_DATA_NOTE&#45;&gt;TABL&#45;ADDRS_COMMUNICATION_DATA_NOTE</title>
<path fill="none" stroke="black" d="M308.38,-215.7C308.38,-207.98 308.38,-198.71 308.38,-190.11"/>
<polygon fill="black" stroke="black" points="311.88,-190.1 308.38,-180.1 304.88,-190.1 311.88,-190.1"/>
</g>
<!-- TABL&#45;ADDRS_COMMUNICATION_DATA_NOTE&#45;&gt;DTEL&#45;AD_OP_CODE -->
<g id="edge33" class="edge">
<title>TABL&#45;ADDRS_COMMUNICATION_DATA_NOTE&#45;&gt;DTEL&#45;AD_OP_CODE</title>
<path fill="none" stroke="black" d="M343.36,-143.88C362.57,-134.47 386.6,-122.71 407.11,-112.67"/>
<polygon fill="black" stroke="black" points="408.82,-115.73 416.26,-108.19 405.74,-109.44 408.82,-115.73"/>
</g>
<!-- DTEL&#45;AD_REMARK2 -->
<g id="node21" class="node">
<title>DTEL&#45;AD_REMARK2</title>
<g id="a_node21"><a xlink:href="./DTEL_AD_REMARK2.html" xlink:title="DTEL&#45;AD_REMARK2">
<polygon fill="none" stroke="yellow" points="240.4,-108 90.35,-108 90.35,-72 240.4,-72 240.4,-108"/>
<text text-anchor="middle" x="165.38" y="-85.8" font-family="Times,serif" font-size="14.00">DTEL&#45;AD_REMARK2</text>
</a>
</g>
</g>
<!-- TABL&#45;ADDRS_COMMUNICATION_DATA_NOTE&#45;&gt;DTEL&#45;AD_REMARK2 -->
<g id="edge32" class="edge">
<title>TABL&#45;ADDRS_COMMUNICATION_DATA_NOTE&#45;&gt;DTEL&#45;AD_REMARK2</title>
<path fill="none" stroke="black" d="M273.39,-143.88C254.18,-134.47 230.15,-122.71 209.64,-112.67"/>
<polygon fill="black" stroke="black" points="211.01,-109.44 200.49,-108.19 207.94,-115.73 211.01,-109.44"/>
</g>
<!-- DTEL&#45;SPRAS -->
<g id="node23" class="node">
<title>DTEL&#45;SPRAS</title>
<g id="a_node23"><a xlink:href="./DTEL_SPRAS.html" xlink:title="DTEL&#45;SPRAS">
<polygon fill="none" stroke="green" points="358.09,-108 258.66,-108 258.66,-72 358.09,-72 358.09,-108"/>
<text text-anchor="middle" x="308.38" y="-85.8" font-family="Times,serif" font-size="14.00">DTEL&#45;SPRAS</text>
</a>
</g>
</g>
<!-- TABL&#45;ADDRS_COMMUNICATION_DATA_NOTE&#45;&gt;DTEL&#45;SPRAS -->
<g id="edge31" class="edge">
<title>TABL&#45;ADDRS_COMMUNICATION_DATA_NOTE&#45;&gt;DTEL&#45;SPRAS</title>
<path fill="none" stroke="black" d="M308.38,-143.7C308.38,-135.98 308.38,-126.71 308.38,-118.11"/>
<polygon fill="black" stroke="black" points="311.88,-118.1 308.38,-108.1 304.88,-118.1 311.88,-118.1"/>
</g>
<!-- DOMA&#45;TEXT50 -->
<g id="node22" class="node">
<title>DOMA&#45;TEXT50</title>
<g id="a_node22"><a xlink:href="./DOMA_TEXT50.html" xlink:title="DOMA&#45;TEXT50">
<polygon fill="none" stroke="yellow" points="222.07,-36 108.69,-36 108.69,0 222.07,0 222.07,-36"/>
<text text-anchor="middle" x="165.38" y="-13.8" font-family="Times,serif" font-size="14.00">DOMA&#45;TEXT50</text>
</a>
</g>
</g>
<!-- DTEL&#45;AD_REMARK2&#45;&gt;DOMA&#45;TEXT50 -->
<g id="edge34" class="edge">
<title>DTEL&#45;AD_REMARK2&#45;&gt;DOMA&#45;TEXT50</title>
<path fill="none" stroke="black" d="M165.38,-71.7C165.38,-63.98 165.38,-54.71 165.38,-46.11"/>
<polygon fill="black" stroke="black" points="168.88,-46.1 165.38,-36.1 161.88,-46.1 168.88,-46.1"/>
</g>
<!-- DOMA&#45;SPRAS -->
<g id="node24" class="node">
<title>DOMA&#45;SPRAS</title>
<g id="a_node24"><a xlink:href="./DOMA_SPRAS.html" xlink:title="DOMA&#45;SPRAS">
<polygon fill="none" stroke="green" points="358.59,-36 252.16,-36 252.16,0 358.59,0 358.59,-36"/>
<text text-anchor="middle" x="305.38" y="-13.8" font-family="Times,serif" font-size="14.00">DOMA&#45;SPRAS</text>
</a>
</g>
</g>
<!-- DTEL&#45;SPRAS&#45;&gt;DOMA&#45;SPRAS -->
<g id="edge35" class="edge">
<title>DTEL&#45;SPRAS&#45;&gt;DOMA&#45;SPRAS</title>
<path fill="none" stroke="black" d="M307.64,-71.7C307.3,-63.98 306.91,-54.71 306.54,-46.11"/>
<polygon fill="black" stroke="black" points="310.03,-45.95 306.11,-36.1 303.04,-46.25 310.03,-45.95"/>
</g>
<!-- DTEL&#45;ADDR_FIELDNAME -->
<g id="node26" class="node">
<title>DTEL&#45;ADDR_FIELDNAME</title>
<g id="a_node26"><a xlink:href="./DTEL_ADDR_FIELDNAME.html" xlink:title="DTEL&#45;ADDR_FIELDNAME">
<polygon fill="none" stroke="yellow" points="1367.32,-180 1183.43,-180 1183.43,-144 1367.32,-144 1367.32,-180"/>
<text text-anchor="middle" x="1275.38" y="-157.8" font-family="Times,serif" font-size="14.00">DTEL&#45;ADDR_FIELDNAME</text>
</a>
</g>
</g>
<!-- TTYP&#45;ADDRT_CHANGED_FIELDS&#45;&gt;DTEL&#45;ADDR_FIELDNAME -->
<g id="edge36" class="edge">
<title>TTYP&#45;ADDRT_CHANGED_FIELDS&#45;&gt;DTEL&#45;ADDR_FIELDNAME</title>
<path fill="none" stroke="black" d="M1273.87,-215.7C1274.09,-207.98 1274.36,-198.71 1274.6,-190.11"/>
<polygon fill="black" stroke="black" points="1278.1,-190.2 1274.89,-180.1 1271.1,-190 1278.1,-190.2"/>
</g>
<!-- DOMA&#45;ADDR_FIELDNAME -->
<g id="node27" class="node">
<title>DOMA&#45;ADDR_FIELDNAME</title>
<g id="a_node27"><a xlink:href="./DOMA_ADDR_FIELDNAME.html" xlink:title="DOMA&#45;ADDR_FIELDNAME">
<polygon fill="none" stroke="yellow" points="1594.82,-108 1403.93,-108 1403.93,-72 1594.82,-72 1594.82,-108"/>
<text text-anchor="middle" x="1499.38" y="-85.8" font-family="Times,serif" font-size="14.00">DOMA&#45;ADDR_FIELDNAME</text>
</a>
</g>
</g>
<!-- DTEL&#45;ADDR_FIELDNAME&#45;&gt;DOMA&#45;ADDR_FIELDNAME -->
<g id="edge37" class="edge">
<title>DTEL&#45;ADDR_FIELDNAME&#45;&gt;DOMA&#45;ADDR_FIELDNAME</title>
<path fill="none" stroke="black" d="M1329.89,-143.97C1361.59,-134.06 1401.73,-121.51 1434.99,-111.12"/>
<polygon fill="black" stroke="black" points="1436.12,-114.43 1444.62,-108.11 1434.03,-107.75 1436.12,-114.43"/>
</g>
<!-- DOMA&#45;CHAR1 -->
<g id="node29" class="node">
<title>DOMA&#45;CHAR1</title>
<g id="a_node29"><a xlink:href="./DOMA_CHAR1.html" xlink:title="DOMA&#45;CHAR1">
<polygon fill="none" stroke="green" points="1497.19,-180 1387.56,-180 1387.56,-144 1497.19,-144 1497.19,-180"/>
<text text-anchor="middle" x="1442.38" y="-157.8" font-family="Times,serif" font-size="14.00">DOMA&#45;CHAR1</text>
</a>
</g>
</g>
<!-- DTEL&#45;CHAR1&#45;&gt;DOMA&#45;CHAR1 -->
<g id="edge38" class="edge">
<title>DTEL&#45;CHAR1&#45;&gt;DOMA&#45;CHAR1</title>
<path fill="none" stroke="black" d="M1455.17,-215.7C1453.28,-207.9 1451,-198.51 1448.89,-189.83"/>
<polygon fill="black" stroke="black" points="1452.29,-189 1446.53,-180.1 1445.49,-190.65 1452.29,-189"/>
</g>
<!-- DOMA&#45;TEXT132 -->
<g id="node31" class="node">
<title>DOMA&#45;TEXT132</title>
<g id="a_node31"><a xlink:href="./DOMA_TEXT132.html" xlink:title="DOMA&#45;TEXT132">
<polygon fill="none" stroke="yellow" points="1635.57,-180 1515.19,-180 1515.19,-144 1635.57,-144 1635.57,-180"/>
<text text-anchor="middle" x="1575.38" y="-157.8" font-family="Times,serif" font-size="14.00">DOMA&#45;TEXT132</text>
</a>
</g>
</g>
<!-- DTEL&#45;SSFPROF&#45;&gt;DOMA&#45;TEXT132 -->
<g id="edge39" class="edge">
<title>DTEL&#45;SSFPROF&#45;&gt;DOMA&#45;TEXT132</title>
<path fill="none" stroke="black" d="M1583.66,-215.7C1582.45,-207.98 1580.99,-198.71 1579.64,-190.11"/>
<polygon fill="black" stroke="black" points="1583.07,-189.44 1578.06,-180.1 1576.16,-190.53 1583.07,-189.44"/>
</g>
<!-- DOMA&#45;SSFNSD -->
<g id="node33" class="node">
<title>DOMA&#45;SSFNSD</title>
<g id="a_node33"><a xlink:href="./DOMA_SSFNSD.html" xlink:title="DOMA&#45;SSFNSD">
<polygon fill="none" stroke="yellow" points="1767.65,-180 1653.11,-180 1653.11,-144 1767.65,-144 1767.65,-180"/>
<text text-anchor="middle" x="1710.38" y="-157.8" font-family="Times,serif" font-size="14.00">DOMA&#45;SSFNSD</text>
</a>
</g>
</g>
<!-- DTEL&#45;SSFNS&#45;&gt;DOMA&#45;SSFNSD -->
<g id="edge40" class="edge">
<title>DTEL&#45;SSFNS&#45;&gt;DOMA&#45;SSFNSD</title>
<path fill="none" stroke="black" d="M1710.38,-215.7C1710.38,-207.98 1710.38,-198.71 1710.38,-190.11"/>
<polygon fill="black" stroke="black" points="1713.88,-190.1 1710.38,-180.1 1706.88,-190.1 1713.88,-190.1"/>
</g>
<!-- DOMA&#45;AD_SSFSCR -->
<g id="node35" class="node">
<title>DOMA&#45;AD_SSFSCR</title>
<g id="a_node35"><a xlink:href="./DOMA_AD_SSFSCR.html" xlink:title="DOMA&#45;AD_SSFSCR">
<polygon fill="none" stroke="yellow" points="1926.82,-180 1785.93,-180 1785.93,-144 1926.82,-144 1926.82,-180"/>
<text text-anchor="middle" x="1856.38" y="-157.8" font-family="Times,serif" font-size="14.00">DOMA&#45;AD_SSFSCR</text>
</a>
</g>
</g>
<!-- DTEL&#45;AD_SSFSCR&#45;&gt;DOMA&#45;AD_SSFSCR -->
<g id="edge41" class="edge">
<title>DTEL&#45;AD_SSFSCR&#45;&gt;DOMA&#45;AD_SSFSCR</title>
<path fill="none" stroke="black" d="M1851.86,-215.7C1852.52,-207.98 1853.32,-198.71 1854.05,-190.11"/>
<polygon fill="black" stroke="black" points="1857.54,-190.37 1854.91,-180.1 1850.57,-189.77 1857.54,-190.37"/>
</g>
<!-- DOMA&#45;RFCDEST -->
<g id="node37" class="node">
<title>DOMA&#45;RFCDEST</title>
<g id="a_node37"><a xlink:href="./DOMA_RFCDEST.html" xlink:title="DOMA&#45;RFCDEST">
<polygon fill="none" stroke="yellow" points="2069.75,-180 1945,-180 1945,-144 2069.75,-144 2069.75,-180"/>
<text text-anchor="middle" x="2007.38" y="-157.8" font-family="Times,serif" font-size="14.00">DOMA&#45;RFCDEST</text>
</a>
</g>
</g>
<!-- DTEL&#45;RFCDEST&#45;&gt;DOMA&#45;RFCDEST -->
<g id="edge42" class="edge">
<title>DTEL&#45;RFCDEST&#45;&gt;DOMA&#45;RFCDEST</title>
<path fill="none" stroke="black" d="M2002.11,-215.7C2002.88,-207.98 2003.81,-198.71 2004.67,-190.11"/>
<polygon fill="black" stroke="black" points="2008.15,-190.4 2005.67,-180.1 2001.19,-189.71 2008.15,-190.4"/>
</g>
<!-- DTEL&#45;AD_FLNOUSE&#45;&gt;DOMA&#45;XFELD -->
<g id="edge43" class="edge">
<title>DTEL&#45;AD_FLNOUSE&#45;&gt;DOMA&#45;XFELD</title>
<path fill="none" stroke="black" d="M586.84,-143.9C575.14,-125.7 560.94,-96.25 571.38,-72 576.17,-60.87 584.57,-50.99 593.43,-42.86"/>
<polygon fill="black" stroke="black" points="595.92,-45.34 601.25,-36.18 591.37,-40.01 595.92,-45.34"/>
</g>
</g>
</svg>
