<?xml version="1.0" encoding="UTF-8" standalone="no"?>
<!DOCTYPE svg PUBLIC "-//W3C//DTD SVG 1.1//EN"
 "http://www.w3.org/Graphics/SVG/1.1/DTD/svg11.dtd">
<!-- Generated by graphviz version 2.47.3 (20210619.1520)
 -->
<!-- Title: G Pages: 1 -->
<svg width="338pt" height="188pt"
 viewBox="0.00 0.00 337.59 188.00" xmlns="http://www.w3.org/2000/svg" xmlns:xlink="http://www.w3.org/1999/xlink">
<g id="graph0" class="graph" transform="scale(1 1) rotate(0) translate(4 184)">
<title>G</title>
<polygon fill="white" stroke="transparent" points="-4,4 -4,-184 333.59,-184 333.59,4 -4,4"/>
<!-- TTYP&#45;CMIS_T_KEY_VALUES -->
<g id="node1" class="node">
<title>TTYP&#45;CMIS_T_KEY_VALUES</title>
<polygon fill="none" stroke="green" points="270.39,-180 66.58,-180 66.58,-144 270.39,-144 270.39,-180"/>
<text text-anchor="middle" x="168.49" y="-157.8" font-family="Times,serif" font-size="14.00">TTYP&#45;CMIS_T_KEY_VALUES</text>
</g>
<!-- TABL&#45;CMIS_S_KEY_VALUES -->
<g id="node2" class="node">
<title>TABL&#45;CMIS_S_KEY_VALUES</title>
<g id="a_node2"><a xlink:href="./TABL_CMIS_S_KEY_VALUES.html" xlink:title="TABL&#45;CMIS_S_KEY_VALUES">
<polygon fill="none" stroke="green" points="270.68,-108 66.3,-108 66.3,-72 270.68,-72 270.68,-108"/>
<text text-anchor="middle" x="168.49" y="-85.8" font-family="Times,serif" font-size="14.00">TABL&#45;CMIS_S_KEY_VALUES</text>
</a>
</g>
</g>
<!-- TTYP&#45;CMIS_T_KEY_VALUES&#45;&gt;TABL&#45;CMIS_S_KEY_VALUES -->
<g id="edge1" class="edge">
<title>TTYP&#45;CMIS_T_KEY_VALUES&#45;&gt;TABL&#45;CMIS_S_KEY_VALUES</title>
<path fill="none" stroke="black" d="M168.49,-143.7C168.49,-135.98 168.49,-126.71 168.49,-118.11"/>
<polygon fill="black" stroke="black" points="171.99,-118.1 168.49,-108.1 164.99,-118.1 171.99,-118.1"/>
</g>
<!-- TTYP&#45;CMIS_T_STRING -->
<g id="node3" class="node">
<title>TTYP&#45;CMIS_T_STRING</title>
<g id="a_node3"><a xlink:href="./TTYP_CMIS_T_STRING.html" xlink:title="TTYP&#45;CMIS_T_STRING">
<polygon fill="none" stroke="green" points="162.97,-36 0.01,-36 0.01,0 162.97,0 162.97,-36"/>
<text text-anchor="middle" x="81.49" y="-13.8" font-family="Times,serif" font-size="14.00">TTYP&#45;CMIS_T_STRING</text>
</a>
</g>
</g>
<!-- TABL&#45;CMIS_S_KEY_VALUES&#45;&gt;TTYP&#45;CMIS_T_STRING -->
<g id="edge3" class="edge">
<title>TABL&#45;CMIS_S_KEY_VALUES&#45;&gt;TTYP&#45;CMIS_T_STRING</title>
<path fill="none" stroke="black" d="M146.98,-71.7C136.03,-62.88 122.54,-52.03 110.66,-42.47"/>
<polygon fill="black" stroke="black" points="112.73,-39.65 102.75,-36.1 108.34,-45.1 112.73,-39.65"/>
</g>
<!-- DTEL&#45;CMIS_STRING -->
<g id="node4" class="node">
<title>DTEL&#45;CMIS_STRING</title>
<g id="a_node4"><a xlink:href="./DTEL_CMIS_STRING.html" xlink:title="DTEL&#45;CMIS_STRING">
<polygon fill="none" stroke="green" points="329.68,-36 181.29,-36 181.29,0 329.68,0 329.68,-36"/>
<text text-anchor="middle" x="255.49" y="-13.8" font-family="Times,serif" font-size="14.00">DTEL&#45;CMIS_STRING</text>
</a>
</g>
</g>
<!-- TABL&#45;CMIS_S_KEY_VALUES&#45;&gt;DTEL&#45;CMIS_STRING -->
<g id="edge2" class="edge">
<title>TABL&#45;CMIS_S_KEY_VALUES&#45;&gt;DTEL&#45;CMIS_STRING</title>
<path fill="none" stroke="black" d="M189.99,-71.7C200.95,-62.88 214.43,-52.03 226.31,-42.47"/>
<polygon fill="black" stroke="black" points="228.63,-45.1 234.23,-36.1 224.25,-39.65 228.63,-45.1"/>
</g>
</g>
</svg>
