<?xml version="1.0" encoding="UTF-8" standalone="no"?>
<!DOCTYPE svg PUBLIC "-//W3C//DTD SVG 1.1//EN"
 "http://www.w3.org/Graphics/SVG/1.1/DTD/svg11.dtd">
<!-- Generated by graphviz version 2.47.3 (20210619.1520)
 -->
<!-- Title: G Pages: 1 -->
<svg width="317pt" height="188pt"
 viewBox="0.00 0.00 317.18 188.00" xmlns="http://www.w3.org/2000/svg" xmlns:xlink="http://www.w3.org/1999/xlink">
<g id="graph0" class="graph" transform="scale(1 1) rotate(0) translate(4 184)">
<title>G</title>
<polygon fill="white" stroke="transparent" points="-4,4 -4,-184 313.18,-184 313.18,4 -4,4"/>
<!-- TTYP&#45;SXCO_T_BAL_LOG_FILTERS -->
<g id="node1" class="node">
<title>TTYP&#45;SXCO_T_BAL_LOG_FILTERS</title>
<polygon fill="none" stroke="green" points="275.11,-180 34.07,-180 34.07,-144 275.11,-144 275.11,-180"/>
<text text-anchor="middle" x="154.59" y="-157.8" font-family="Times,serif" font-size="14.00">TTYP&#45;SXCO_T_BAL_LOG_FILTERS</text>
</g>
<!-- INTF&#45;IF_XCO_BAL_LOG_FILTER -->
<g id="node2" class="node">
<title>INTF&#45;IF_XCO_BAL_LOG_FILTER</title>
<g id="a_node2"><a xlink:href="./INTF_IF_XCO_BAL_LOG_FILTER.html" xlink:title="INTF&#45;IF_XCO_BAL_LOG_FILTER">
<polygon fill="none" stroke="green" points="267.54,-108 41.63,-108 41.63,-72 267.54,-72 267.54,-108"/>
<text text-anchor="middle" x="154.59" y="-85.8" font-family="Times,serif" font-size="14.00">INTF&#45;IF_XCO_BAL_LOG_FILTER</text>
</a>
</g>
</g>
<!-- TTYP&#45;SXCO_T_BAL_LOG_FILTERS&#45;&gt;INTF&#45;IF_XCO_BAL_LOG_FILTER -->
<g id="edge1" class="edge">
<title>TTYP&#45;SXCO_T_BAL_LOG_FILTERS&#45;&gt;INTF&#45;IF_XCO_BAL_LOG_FILTER</title>
<path fill="none" stroke="black" d="M154.59,-143.7C154.59,-135.98 154.59,-126.71 154.59,-118.11"/>
<polygon fill="black" stroke="black" points="158.09,-118.1 154.59,-108.1 151.09,-118.1 158.09,-118.1"/>
</g>
<!-- CLAS&#45;CL_XCO_BAL_LOG_SELECTION_BLDR -->
<g id="node3" class="node">
<title>CLAS&#45;CL_XCO_BAL_LOG_SELECTION_BLDR</title>
<g id="a_node3"><a xlink:href="./CLAS_CL_XCO_BAL_LOG_SELECTION_BLDR.html" xlink:title="CLAS&#45;CL_XCO_BAL_LOG_SELECTION_BLDR">
<polygon fill="none" stroke="green" points="309.26,-36 -0.09,-36 -0.09,0 309.26,0 309.26,-36"/>
<text text-anchor="middle" x="154.59" y="-13.8" font-family="Times,serif" font-size="14.00">CLAS&#45;CL_XCO_BAL_LOG_SELECTION_BLDR</text>
</a>
</g>
</g>
<!-- INTF&#45;IF_XCO_BAL_LOG_FILTER&#45;&gt;CLAS&#45;CL_XCO_BAL_LOG_SELECTION_BLDR -->
<g id="edge2" class="edge">
<title>INTF&#45;IF_XCO_BAL_LOG_FILTER&#45;&gt;CLAS&#45;CL_XCO_BAL_LOG_SELECTION_BLDR</title>
<path fill="none" stroke="black" d="M154.59,-71.7C154.59,-63.98 154.59,-54.71 154.59,-46.11"/>
<polygon fill="black" stroke="black" points="158.09,-46.1 154.59,-36.1 151.09,-46.1 158.09,-46.1"/>
</g>
</g>
</svg>
