<?xml version="1.0" encoding="UTF-8" standalone="no"?>
<!DOCTYPE svg PUBLIC "-//W3C//DTD SVG 1.1//EN"
 "http://www.w3.org/Graphics/SVG/1.1/DTD/svg11.dtd">
<!-- Generated by graphviz version 2.47.3 (20210619.1520)
 -->
<!-- Title: G Pages: 1 -->
<svg width="611pt" height="260pt"
 viewBox="0.00 0.00 611.15 260.00" xmlns="http://www.w3.org/2000/svg" xmlns:xlink="http://www.w3.org/1999/xlink">
<g id="graph0" class="graph" transform="scale(1 1) rotate(0) translate(4 256)">
<title>G</title>
<polygon fill="white" stroke="transparent" points="-4,4 -4,-256 607.15,-256 607.15,4 -4,4"/>
<!-- TTYP&#45;SUID_TT_NODE_CUA_ROLE_DETAILS -->
<g id="node1" class="node">
<title>TTYP&#45;SUID_TT_NODE_CUA_ROLE_DETAILS</title>
<polygon fill="none" stroke="yellow" points="446.19,-252 142.78,-252 142.78,-216 446.19,-216 446.19,-252"/>
<text text-anchor="middle" x="294.48" y="-229.8" font-family="Times,serif" font-size="14.00">TTYP&#45;SUID_TT_NODE_CUA_ROLE_DETAILS</text>
</g>
<!-- TABL&#45;SUID_ST_NODE_CUA_ROLE_DETAIL -->
<g id="node2" class="node">
<title>TABL&#45;SUID_ST_NODE_CUA_ROLE_DETAIL</title>
<g id="a_node2"><a xlink:href="./TABL_SUID_ST_NODE_CUA_ROLE_DETAIL.html" xlink:title="TABL&#45;SUID_ST_NODE_CUA_ROLE_DETAIL">
<polygon fill="none" stroke="yellow" points="442.69,-180 146.28,-180 146.28,-144 442.69,-144 442.69,-180"/>
<text text-anchor="middle" x="294.48" y="-157.8" font-family="Times,serif" font-size="14.00">TABL&#45;SUID_ST_NODE_CUA_ROLE_DETAIL</text>
</a>
</g>
</g>
<!-- TTYP&#45;SUID_TT_NODE_CUA_ROLE_DETAILS&#45;&gt;TABL&#45;SUID_ST_NODE_CUA_ROLE_DETAIL -->
<g id="edge1" class="edge">
<title>TTYP&#45;SUID_TT_NODE_CUA_ROLE_DETAILS&#45;&gt;TABL&#45;SUID_ST_NODE_CUA_ROLE_DETAIL</title>
<path fill="none" stroke="black" d="M294.48,-215.7C294.48,-207.98 294.48,-198.71 294.48,-190.11"/>
<polygon fill="black" stroke="black" points="297.98,-190.1 294.48,-180.1 290.98,-190.1 297.98,-190.1"/>
</g>
<!-- DTEL&#45;AGR_TYPE -->
<g id="node3" class="node">
<title>DTEL&#45;AGR_TYPE</title>
<g id="a_node3"><a xlink:href="./DTEL_AGR_TYPE.html" xlink:title="DTEL&#45;AGR_TYPE">
<polygon fill="none" stroke="yellow" points="131.45,-108 3.52,-108 3.52,-72 131.45,-72 131.45,-108"/>
<text text-anchor="middle" x="67.48" y="-85.8" font-family="Times,serif" font-size="14.00">DTEL&#45;AGR_TYPE</text>
</a>
</g>
</g>
<!-- TABL&#45;SUID_ST_NODE_CUA_ROLE_DETAIL&#45;&gt;DTEL&#45;AGR_TYPE -->
<g id="edge5" class="edge">
<title>TABL&#45;SUID_ST_NODE_CUA_ROLE_DETAIL&#45;&gt;DTEL&#45;AGR_TYPE</title>
<path fill="none" stroke="black" d="M239.24,-143.97C207.11,-134.06 166.44,-121.51 132.73,-111.12"/>
<polygon fill="black" stroke="black" points="133.56,-107.71 122.97,-108.11 131.5,-114.4 133.56,-107.71"/>
</g>
<!-- DTEL&#45;AGR_TITLE -->
<g id="node5" class="node">
<title>DTEL&#45;AGR_TITLE</title>
<g id="a_node5"><a xlink:href="./DTEL_AGR_TITLE.html" xlink:title="DTEL&#45;AGR_TITLE">
<polygon fill="none" stroke="yellow" points="281.33,-108 149.64,-108 149.64,-72 281.33,-72 281.33,-108"/>
<text text-anchor="middle" x="215.48" y="-85.8" font-family="Times,serif" font-size="14.00">DTEL&#45;AGR_TITLE</text>
</a>
</g>
</g>
<!-- TABL&#45;SUID_ST_NODE_CUA_ROLE_DETAIL&#45;&gt;DTEL&#45;AGR_TITLE -->
<g id="edge4" class="edge">
<title>TABL&#45;SUID_ST_NODE_CUA_ROLE_DETAIL&#45;&gt;DTEL&#45;AGR_TITLE</title>
<path fill="none" stroke="black" d="M274.96,-143.7C265.1,-134.97 253,-124.24 242.29,-114.75"/>
<polygon fill="black" stroke="black" points="244.59,-112.12 234.79,-108.1 239.95,-117.36 244.59,-112.12"/>
</g>
<!-- DTEL&#45;F_AGR_NAME -->
<g id="node7" class="node">
<title>DTEL&#45;F_AGR_NAME</title>
<g id="a_node7"><a xlink:href="./DTEL_F_AGR_NAME.html" xlink:title="DTEL&#45;F_AGR_NAME">
<polygon fill="none" stroke="yellow" points="447.95,-108 299.02,-108 299.02,-72 447.95,-72 447.95,-108"/>
<text text-anchor="middle" x="373.48" y="-85.8" font-family="Times,serif" font-size="14.00">DTEL&#45;F_AGR_NAME</text>
</a>
</g>
</g>
<!-- TABL&#45;SUID_ST_NODE_CUA_ROLE_DETAIL&#45;&gt;DTEL&#45;F_AGR_NAME -->
<g id="edge3" class="edge">
<title>TABL&#45;SUID_ST_NODE_CUA_ROLE_DETAIL&#45;&gt;DTEL&#45;F_AGR_NAME</title>
<path fill="none" stroke="black" d="M314.01,-143.7C323.87,-134.97 335.97,-124.24 346.68,-114.75"/>
<polygon fill="black" stroke="black" points="349.02,-117.36 354.18,-108.1 344.38,-112.12 349.02,-117.36"/>
</g>
<!-- DTEL&#45;RFCRCVSYS -->
<g id="node9" class="node">
<title>DTEL&#45;RFCRCVSYS</title>
<g id="a_node9"><a xlink:href="./DTEL_RFCRCVSYS.html" xlink:title="DTEL&#45;RFCRCVSYS">
<polygon fill="none" stroke="yellow" points="603.32,-108 465.65,-108 465.65,-72 603.32,-72 603.32,-108"/>
<text text-anchor="middle" x="534.48" y="-85.8" font-family="Times,serif" font-size="14.00">DTEL&#45;RFCRCVSYS</text>
</a>
</g>
</g>
<!-- TABL&#45;SUID_ST_NODE_CUA_ROLE_DETAIL&#45;&gt;DTEL&#45;RFCRCVSYS -->
<g id="edge2" class="edge">
<title>TABL&#45;SUID_ST_NODE_CUA_ROLE_DETAIL&#45;&gt;DTEL&#45;RFCRCVSYS</title>
<path fill="none" stroke="black" d="M352.89,-143.97C387,-134.01 430.23,-121.41 465.96,-110.99"/>
<polygon fill="black" stroke="black" points="467.2,-114.27 475.82,-108.11 465.24,-107.55 467.2,-114.27"/>
</g>
<!-- DOMA&#45;AGR_TYPE -->
<g id="node4" class="node">
<title>DOMA&#45;AGR_TYPE</title>
<g id="a_node4"><a xlink:href="./DOMA_AGR_TYPE.html" xlink:title="DOMA&#45;AGR_TYPE">
<polygon fill="none" stroke="yellow" points="134.95,-36 0.02,-36 0.02,0 134.95,0 134.95,-36"/>
<text text-anchor="middle" x="67.48" y="-13.8" font-family="Times,serif" font-size="14.00">DOMA&#45;AGR_TYPE</text>
</a>
</g>
</g>
<!-- DTEL&#45;AGR_TYPE&#45;&gt;DOMA&#45;AGR_TYPE -->
<g id="edge6" class="edge">
<title>DTEL&#45;AGR_TYPE&#45;&gt;DOMA&#45;AGR_TYPE</title>
<path fill="none" stroke="black" d="M67.48,-71.7C67.48,-63.98 67.48,-54.71 67.48,-46.11"/>
<polygon fill="black" stroke="black" points="70.98,-46.1 67.48,-36.1 63.98,-46.1 70.98,-46.1"/>
</g>
<!-- DOMA&#45;TEXT80 -->
<g id="node6" class="node">
<title>DOMA&#45;TEXT80</title>
<g id="a_node6"><a xlink:href="./DOMA_TEXT80.html" xlink:title="DOMA&#45;TEXT80">
<polygon fill="none" stroke="yellow" points="272.17,-36 158.8,-36 158.8,0 272.17,0 272.17,-36"/>
<text text-anchor="middle" x="215.48" y="-13.8" font-family="Times,serif" font-size="14.00">DOMA&#45;TEXT80</text>
</a>
</g>
</g>
<!-- DTEL&#45;AGR_TITLE&#45;&gt;DOMA&#45;TEXT80 -->
<g id="edge7" class="edge">
<title>DTEL&#45;AGR_TITLE&#45;&gt;DOMA&#45;TEXT80</title>
<path fill="none" stroke="black" d="M215.48,-71.7C215.48,-63.98 215.48,-54.71 215.48,-46.11"/>
<polygon fill="black" stroke="black" points="218.98,-46.1 215.48,-36.1 211.98,-46.1 218.98,-46.1"/>
</g>
<!-- DOMA&#45;F_AGR_NAME -->
<g id="node8" class="node">
<title>DOMA&#45;F_AGR_NAME</title>
<g id="a_node8"><a xlink:href="./DOMA_F_AGR_NAME.html" xlink:title="DOMA&#45;F_AGR_NAME">
<polygon fill="none" stroke="yellow" points="451.45,-36 295.52,-36 295.52,0 451.45,0 451.45,-36"/>
<text text-anchor="middle" x="373.48" y="-13.8" font-family="Times,serif" font-size="14.00">DOMA&#45;F_AGR_NAME</text>
</a>
</g>
</g>
<!-- DTEL&#45;F_AGR_NAME&#45;&gt;DOMA&#45;F_AGR_NAME -->
<g id="edge8" class="edge">
<title>DTEL&#45;F_AGR_NAME&#45;&gt;DOMA&#45;F_AGR_NAME</title>
<path fill="none" stroke="black" d="M373.48,-71.7C373.48,-63.98 373.48,-54.71 373.48,-46.11"/>
<polygon fill="black" stroke="black" points="376.98,-46.1 373.48,-36.1 369.98,-46.1 376.98,-46.1"/>
</g>
<!-- DOMA&#45;LOGSYS -->
<g id="node10" class="node">
<title>DOMA&#45;LOGSYS</title>
<g id="a_node10"><a xlink:href="./DOMA_LOGSYS.html" xlink:title="DOMA&#45;LOGSYS">
<polygon fill="none" stroke="yellow" points="593.35,-36 475.62,-36 475.62,0 593.35,0 593.35,-36"/>
<text text-anchor="middle" x="534.48" y="-13.8" font-family="Times,serif" font-size="14.00">DOMA&#45;LOGSYS</text>
</a>
</g>
</g>
<!-- DTEL&#45;RFCRCVSYS&#45;&gt;DOMA&#45;LOGSYS -->
<g id="edge9" class="edge">
<title>DTEL&#45;RFCRCVSYS&#45;&gt;DOMA&#45;LOGSYS</title>
<path fill="none" stroke="black" d="M534.48,-71.7C534.48,-63.98 534.48,-54.71 534.48,-46.11"/>
<polygon fill="black" stroke="black" points="537.98,-46.1 534.48,-36.1 530.98,-46.1 537.98,-46.1"/>
</g>
</g>
</svg>
