<?xml version="1.0" encoding="UTF-8" standalone="no"?>
<!DOCTYPE svg PUBLIC "-//W3C//DTD SVG 1.1//EN"
 "http://www.w3.org/Graphics/SVG/1.1/DTD/svg11.dtd">
<!-- Generated by graphviz version 2.47.3 (20210619.1520)
 -->
<!-- Title: G Pages: 1 -->
<svg width="310pt" height="188pt"
 viewBox="0.00 0.00 310.18 188.00" xmlns="http://www.w3.org/2000/svg" xmlns:xlink="http://www.w3.org/1999/xlink">
<g id="graph0" class="graph" transform="scale(1 1) rotate(0) translate(4 184)">
<title>G</title>
<polygon fill="white" stroke="transparent" points="-4,4 -4,-184 306.18,-184 306.18,4 -4,4"/>
<!-- TTYP&#45;SXCO_T_CP_GEN_D_O_PUT_OPTIONS -->
<g id="node1" class="node">
<title>TTYP&#45;SXCO_T_CP_GEN_D_O_PUT_OPTIONS</title>
<polygon fill="none" stroke="green" points="302.27,-180 -0.09,-180 -0.09,-144 302.27,-144 302.27,-180"/>
<text text-anchor="middle" x="151.09" y="-157.8" font-family="Times,serif" font-size="14.00">TTYP&#45;SXCO_T_CP_GEN_D_O_PUT_OPTIONS</text>
</g>
<!-- INTF&#45;IF_XCO_CP_GEN_D_O_PUT_OPTION -->
<g id="node2" class="node">
<title>INTF&#45;IF_XCO_CP_GEN_D_O_PUT_OPTION</title>
<g id="a_node2"><a xlink:href="./INTF_IF_XCO_CP_GEN_D_O_PUT_OPTION.html" xlink:title="INTF&#45;IF_XCO_CP_GEN_D_O_PUT_OPTION">
<polygon fill="none" stroke="green" points="294.2,-108 7.98,-108 7.98,-72 294.2,-72 294.2,-108"/>
<text text-anchor="middle" x="151.09" y="-85.8" font-family="Times,serif" font-size="14.00">INTF&#45;IF_XCO_CP_GEN_D_O_PUT_OPTION</text>
</a>
</g>
</g>
<!-- TTYP&#45;SXCO_T_CP_GEN_D_O_PUT_OPTIONS&#45;&gt;INTF&#45;IF_XCO_CP_GEN_D_O_PUT_OPTION -->
<g id="edge1" class="edge">
<title>TTYP&#45;SXCO_T_CP_GEN_D_O_PUT_OPTIONS&#45;&gt;INTF&#45;IF_XCO_CP_GEN_D_O_PUT_OPTION</title>
<path fill="none" stroke="black" d="M151.09,-143.7C151.09,-135.98 151.09,-126.71 151.09,-118.11"/>
<polygon fill="black" stroke="black" points="154.59,-118.1 151.09,-108.1 147.59,-118.1 154.59,-118.1"/>
</g>
<!-- CLAS&#45;CL_XCO_CP_GEN_D_O_PUT_OPTION -->
<g id="node3" class="node">
<title>CLAS&#45;CL_XCO_CP_GEN_D_O_PUT_OPTION</title>
<g id="a_node3"><a xlink:href="./CLAS_CL_XCO_CP_GEN_D_O_PUT_OPTION.html" xlink:title="CLAS&#45;CL_XCO_CP_GEN_D_O_PUT_OPTION">
<polygon fill="none" stroke="green" points="299.32,-36 2.86,-36 2.86,0 299.32,0 299.32,-36"/>
<text text-anchor="middle" x="151.09" y="-13.8" font-family="Times,serif" font-size="14.00">CLAS&#45;CL_XCO_CP_GEN_D_O_PUT_OPTION</text>
</a>
</g>
</g>
<!-- INTF&#45;IF_XCO_CP_GEN_D_O_PUT_OPTION&#45;&gt;CLAS&#45;CL_XCO_CP_GEN_D_O_PUT_OPTION -->
<g id="edge2" class="edge">
<title>INTF&#45;IF_XCO_CP_GEN_D_O_PUT_OPTION&#45;&gt;CLAS&#45;CL_XCO_CP_GEN_D_O_PUT_OPTION</title>
<path fill="none" stroke="black" d="M151.09,-71.7C151.09,-63.98 151.09,-54.71 151.09,-46.11"/>
<polygon fill="black" stroke="black" points="154.59,-46.1 151.09,-36.1 147.59,-46.1 154.59,-46.1"/>
</g>
</g>
</svg>
