<?xml version="1.0" encoding="UTF-8" standalone="no"?>
<!DOCTYPE svg PUBLIC "-//W3C//DTD SVG 1.1//EN"
 "http://www.w3.org/Graphics/SVG/1.1/DTD/svg11.dtd">
<!-- Generated by graphviz version 2.47.3 (20210619.1520)
 -->
<!-- Title: G Pages: 1 -->
<svg width="175pt" height="260pt"
 viewBox="0.00 0.00 174.87 260.00" xmlns="http://www.w3.org/2000/svg" xmlns:xlink="http://www.w3.org/1999/xlink">
<g id="graph0" class="graph" transform="scale(1 1) rotate(0) translate(4 256)">
<title>G</title>
<polygon fill="white" stroke="transparent" points="-4,4 -4,-256 170.87,-256 170.87,4 -4,4"/>
<!-- TTYP&#45;CTS_VARIABLES -->
<g id="node1" class="node">
<title>TTYP&#45;CTS_VARIABLES</title>
<polygon fill="none" stroke="yellow" points="166.8,-252 0.07,-252 0.07,-216 166.8,-216 166.8,-252"/>
<text text-anchor="middle" x="83.43" y="-229.8" font-family="Times,serif" font-size="14.00">TTYP&#45;CTS_VARIABLES</text>
</g>
<!-- TABL&#45;CTS_VARIABLE -->
<g id="node2" class="node">
<title>TABL&#45;CTS_VARIABLE</title>
<g id="a_node2"><a xlink:href="./TABL_CTS_VARIABLE.html" xlink:title="TABL&#45;CTS_VARIABLE">
<polygon fill="none" stroke="yellow" points="163.57,-180 3.29,-180 3.29,-144 163.57,-144 163.57,-180"/>
<text text-anchor="middle" x="83.43" y="-157.8" font-family="Times,serif" font-size="14.00">TABL&#45;CTS_VARIABLE</text>
</a>
</g>
</g>
<!-- TTYP&#45;CTS_VARIABLES&#45;&gt;TABL&#45;CTS_VARIABLE -->
<g id="edge1" class="edge">
<title>TTYP&#45;CTS_VARIABLES&#45;&gt;TABL&#45;CTS_VARIABLE</title>
<path fill="none" stroke="black" d="M83.43,-215.7C83.43,-207.98 83.43,-198.71 83.43,-190.11"/>
<polygon fill="black" stroke="black" points="86.93,-190.1 83.43,-180.1 79.93,-190.1 86.93,-190.1"/>
</g>
<!-- DTEL&#45;SYMSGV -->
<g id="node3" class="node">
<title>DTEL&#45;SYMSGV</title>
<g id="a_node3"><a xlink:href="./DTEL_SYMSGV.html" xlink:title="DTEL&#45;SYMSGV">
<polygon fill="none" stroke="green" points="140.69,-108 26.18,-108 26.18,-72 140.69,-72 140.69,-108"/>
<text text-anchor="middle" x="83.43" y="-85.8" font-family="Times,serif" font-size="14.00">DTEL&#45;SYMSGV</text>
</a>
</g>
</g>
<!-- TABL&#45;CTS_VARIABLE&#45;&gt;DTEL&#45;SYMSGV -->
<g id="edge2" class="edge">
<title>TABL&#45;CTS_VARIABLE&#45;&gt;DTEL&#45;SYMSGV</title>
<path fill="none" stroke="black" d="M83.43,-143.7C83.43,-135.98 83.43,-126.71 83.43,-118.11"/>
<polygon fill="black" stroke="black" points="86.93,-118.1 83.43,-108.1 79.93,-118.1 86.93,-118.1"/>
</g>
<!-- DOMA&#45;SYCHAR50 -->
<g id="node4" class="node">
<title>DOMA&#45;SYCHAR50</title>
<g id="a_node4"><a xlink:href="./DOMA_SYCHAR50.html" xlink:title="DOMA&#45;SYCHAR50">
<polygon fill="none" stroke="yellow" points="150.63,-36 16.23,-36 16.23,0 150.63,0 150.63,-36"/>
<text text-anchor="middle" x="83.43" y="-13.8" font-family="Times,serif" font-size="14.00">DOMA&#45;SYCHAR50</text>
</a>
</g>
</g>
<!-- DTEL&#45;SYMSGV&#45;&gt;DOMA&#45;SYCHAR50 -->
<g id="edge3" class="edge">
<title>DTEL&#45;SYMSGV&#45;&gt;DOMA&#45;SYCHAR50</title>
<path fill="none" stroke="black" d="M83.43,-71.7C83.43,-63.98 83.43,-54.71 83.43,-46.11"/>
<polygon fill="black" stroke="black" points="86.93,-46.1 83.43,-36.1 79.93,-46.1 86.93,-46.1"/>
</g>
</g>
</svg>
