<?xml version="1.0" encoding="UTF-8" standalone="no"?>
<!DOCTYPE svg PUBLIC "-//W3C//DTD SVG 1.1//EN"
 "http://www.w3.org/Graphics/SVG/1.1/DTD/svg11.dtd">
<!-- Generated by graphviz version 2.47.3 (20210619.1520)
 -->
<!-- Title: G Pages: 1 -->
<svg width="1023pt" height="260pt"
 viewBox="0.00 0.00 1023.29 260.00" xmlns="http://www.w3.org/2000/svg" xmlns:xlink="http://www.w3.org/1999/xlink">
<g id="graph0" class="graph" transform="scale(1 1) rotate(0) translate(4 256)">
<title>G</title>
<polygon fill="white" stroke="transparent" points="-4,4 -4,-256 1019.29,-256 1019.29,4 -4,4"/>
<!-- TTYP&#45;SUID_TT_NODE_CUA_PROFILES -->
<g id="node1" class="node">
<title>TTYP&#45;SUID_TT_NODE_CUA_PROFILES</title>
<polygon fill="none" stroke="yellow" points="722.02,-252 455.23,-252 455.23,-216 722.02,-216 722.02,-252"/>
<text text-anchor="middle" x="588.63" y="-229.8" font-family="Times,serif" font-size="14.00">TTYP&#45;SUID_TT_NODE_CUA_PROFILES</text>
</g>
<!-- TABL&#45;SUID_ST_NODE_CUA_PROFILE -->
<g id="node2" class="node">
<title>TABL&#45;SUID_ST_NODE_CUA_PROFILE</title>
<g id="a_node2"><a xlink:href="./TABL_SUID_ST_NODE_CUA_PROFILE.html" xlink:title="TABL&#45;SUID_ST_NODE_CUA_PROFILE">
<polygon fill="none" stroke="yellow" points="718.52,-180 458.73,-180 458.73,-144 718.52,-144 718.52,-180"/>
<text text-anchor="middle" x="588.63" y="-157.8" font-family="Times,serif" font-size="14.00">TABL&#45;SUID_ST_NODE_CUA_PROFILE</text>
</a>
</g>
</g>
<!-- TTYP&#45;SUID_TT_NODE_CUA_PROFILES&#45;&gt;TABL&#45;SUID_ST_NODE_CUA_PROFILE -->
<g id="edge1" class="edge">
<title>TTYP&#45;SUID_TT_NODE_CUA_PROFILES&#45;&gt;TABL&#45;SUID_ST_NODE_CUA_PROFILE</title>
<path fill="none" stroke="black" d="M588.63,-215.7C588.63,-207.98 588.63,-198.71 588.63,-190.11"/>
<polygon fill="black" stroke="black" points="592.13,-190.1 588.63,-180.1 585.13,-190.1 592.13,-190.1"/>
</g>
<!-- DTEL&#45;SUID_NODE_KEY_HANDLE -->
<g id="node3" class="node">
<title>DTEL&#45;SUID_NODE_KEY_HANDLE</title>
<g id="a_node3"><a xlink:href="./DTEL_SUID_NODE_KEY_HANDLE.html" xlink:title="DTEL&#45;SUID_NODE_KEY_HANDLE">
<polygon fill="none" stroke="yellow" points="235.38,-108 -0.13,-108 -0.13,-72 235.38,-72 235.38,-108"/>
<text text-anchor="middle" x="117.63" y="-85.8" font-family="Times,serif" font-size="14.00">DTEL&#45;SUID_NODE_KEY_HANDLE</text>
</a>
</g>
</g>
<!-- TABL&#45;SUID_ST_NODE_CUA_PROFILE&#45;&gt;DTEL&#45;SUID_NODE_KEY_HANDLE -->
<g id="edge7" class="edge">
<title>TABL&#45;SUID_ST_NODE_CUA_PROFILE&#45;&gt;DTEL&#45;SUID_NODE_KEY_HANDLE</title>
<path fill="none" stroke="black" d="M474.01,-143.97C403.92,-133.55 314.23,-120.22 242.37,-109.54"/>
<polygon fill="black" stroke="black" points="242.75,-106.06 232.35,-108.05 241.72,-112.98 242.75,-106.06"/>
</g>
<!-- DTEL&#45;SUID_CHANGE_MODE -->
<g id="node4" class="node">
<title>DTEL&#45;SUID_CHANGE_MODE</title>
<g id="a_node4"><a xlink:href="./DTEL_SUID_CHANGE_MODE.html" xlink:title="DTEL&#45;SUID_CHANGE_MODE">
<polygon fill="none" stroke="yellow" points="455.73,-108 253.52,-108 253.52,-72 455.73,-72 455.73,-108"/>
<text text-anchor="middle" x="354.63" y="-85.8" font-family="Times,serif" font-size="14.00">DTEL&#45;SUID_CHANGE_MODE</text>
</a>
</g>
</g>
<!-- TABL&#45;SUID_ST_NODE_CUA_PROFILE&#45;&gt;DTEL&#45;SUID_CHANGE_MODE -->
<g id="edge6" class="edge">
<title>TABL&#45;SUID_ST_NODE_CUA_PROFILE&#45;&gt;DTEL&#45;SUID_CHANGE_MODE</title>
<path fill="none" stroke="black" d="M531.68,-143.97C498.42,-134.01 456.27,-121.41 421.44,-110.99"/>
<polygon fill="black" stroke="black" points="422.41,-107.62 411.82,-108.11 420.4,-114.33 422.41,-107.62"/>
</g>
<!-- DTEL&#45;XUTYP -->
<g id="node6" class="node">
<title>DTEL&#45;XUTYP</title>
<g id="a_node6"><a xlink:href="./DTEL_XUTYP.html" xlink:title="DTEL&#45;XUTYP">
<polygon fill="none" stroke="yellow" points="577.21,-108 474.05,-108 474.05,-72 577.21,-72 577.21,-108"/>
<text text-anchor="middle" x="525.63" y="-85.8" font-family="Times,serif" font-size="14.00">DTEL&#45;XUTYP</text>
</a>
</g>
</g>
<!-- TABL&#45;SUID_ST_NODE_CUA_PROFILE&#45;&gt;DTEL&#45;XUTYP -->
<g id="edge5" class="edge">
<title>TABL&#45;SUID_ST_NODE_CUA_PROFILE&#45;&gt;DTEL&#45;XUTYP</title>
<path fill="none" stroke="black" d="M573.05,-143.7C565.42,-135.22 556.1,-124.86 547.75,-115.58"/>
<polygon fill="black" stroke="black" points="550.31,-113.2 541.02,-108.1 545.11,-117.88 550.31,-113.2"/>
</g>
<!-- DTEL&#45;XUTEXT -->
<g id="node8" class="node">
<title>DTEL&#45;XUTEXT</title>
<g id="a_node8"><a xlink:href="./DTEL_XUTEXT.html" xlink:title="DTEL&#45;XUTEXT">
<polygon fill="none" stroke="yellow" points="708.03,-108 595.22,-108 595.22,-72 708.03,-72 708.03,-108"/>
<text text-anchor="middle" x="651.63" y="-85.8" font-family="Times,serif" font-size="14.00">DTEL&#45;XUTEXT</text>
</a>
</g>
</g>
<!-- TABL&#45;SUID_ST_NODE_CUA_PROFILE&#45;&gt;DTEL&#45;XUTEXT -->
<g id="edge4" class="edge">
<title>TABL&#45;SUID_ST_NODE_CUA_PROFILE&#45;&gt;DTEL&#45;XUTEXT</title>
<path fill="none" stroke="black" d="M604.2,-143.7C611.83,-135.22 621.15,-124.86 629.5,-115.58"/>
<polygon fill="black" stroke="black" points="632.14,-117.88 636.23,-108.1 626.94,-113.2 632.14,-117.88"/>
</g>
<!-- DTEL&#45;XUPROFILE -->
<g id="node10" class="node">
<title>DTEL&#45;XUPROFILE</title>
<g id="a_node10"><a xlink:href="./DTEL_XUPROFILE.html" xlink:title="DTEL&#45;XUPROFILE">
<polygon fill="none" stroke="yellow" points="860.54,-108 726.71,-108 726.71,-72 860.54,-72 860.54,-108"/>
<text text-anchor="middle" x="793.63" y="-85.8" font-family="Times,serif" font-size="14.00">DTEL&#45;XUPROFILE</text>
</a>
</g>
</g>
<!-- TABL&#45;SUID_ST_NODE_CUA_PROFILE&#45;&gt;DTEL&#45;XUPROFILE -->
<g id="edge3" class="edge">
<title>TABL&#45;SUID_ST_NODE_CUA_PROFILE&#45;&gt;DTEL&#45;XUPROFILE</title>
<path fill="none" stroke="black" d="M638.51,-143.97C667.28,-134.14 703.63,-121.73 733.91,-111.39"/>
<polygon fill="black" stroke="black" points="735.18,-114.65 743.52,-108.11 732.92,-108.03 735.18,-114.65"/>
</g>
<!-- DTEL&#45;RFCRCVSYS -->
<g id="node12" class="node">
<title>DTEL&#45;RFCRCVSYS</title>
<g id="a_node12"><a xlink:href="./DTEL_RFCRCVSYS.html" xlink:title="DTEL&#45;RFCRCVSYS">
<polygon fill="none" stroke="yellow" points="1015.46,-108 877.79,-108 877.79,-72 1015.46,-72 1015.46,-108"/>
<text text-anchor="middle" x="946.63" y="-85.8" font-family="Times,serif" font-size="14.00">DTEL&#45;RFCRCVSYS</text>
</a>
</g>
</g>
<!-- TABL&#45;SUID_ST_NODE_CUA_PROFILE&#45;&gt;DTEL&#45;RFCRCVSYS -->
<g id="edge2" class="edge">
<title>TABL&#45;SUID_ST_NODE_CUA_PROFILE&#45;&gt;DTEL&#45;RFCRCVSYS</title>
<path fill="none" stroke="black" d="M682.75,-144C734.83,-134.41 800.95,-121.95 867.92,-108.32"/>
<polygon fill="black" stroke="black" points="868.7,-111.74 877.8,-106.31 867.3,-104.88 868.7,-111.74"/>
</g>
<!-- DOMA&#45;SUID_CHANGE_MODE -->
<g id="node5" class="node">
<title>DOMA&#45;SUID_CHANGE_MODE</title>
<g id="a_node5"><a xlink:href="./DOMA_SUID_CHANGE_MODE.html" xlink:title="DOMA&#45;SUID_CHANGE_MODE">
<polygon fill="none" stroke="yellow" points="445.23,-36 236.02,-36 236.02,0 445.23,0 445.23,-36"/>
<text text-anchor="middle" x="340.63" y="-13.8" font-family="Times,serif" font-size="14.00">DOMA&#45;SUID_CHANGE_MODE</text>
</a>
</g>
</g>
<!-- DTEL&#45;SUID_CHANGE_MODE&#45;&gt;DOMA&#45;SUID_CHANGE_MODE -->
<g id="edge8" class="edge">
<title>DTEL&#45;SUID_CHANGE_MODE&#45;&gt;DOMA&#45;SUID_CHANGE_MODE</title>
<path fill="none" stroke="black" d="M351.16,-71.7C349.62,-63.98 347.77,-54.71 346.05,-46.11"/>
<polygon fill="black" stroke="black" points="349.44,-45.22 344.05,-36.1 342.58,-46.6 349.44,-45.22"/>
</g>
<!-- DOMA&#45;XUTYP -->
<g id="node7" class="node">
<title>DOMA&#45;XUTYP</title>
<g id="a_node7"><a xlink:href="./DOMA_XUTYP.html" xlink:title="DOMA&#45;XUTYP">
<polygon fill="none" stroke="yellow" points="573.71,-36 463.55,-36 463.55,0 573.71,0 573.71,-36"/>
<text text-anchor="middle" x="518.63" y="-13.8" font-family="Times,serif" font-size="14.00">DOMA&#45;XUTYP</text>
</a>
</g>
</g>
<!-- DTEL&#45;XUTYP&#45;&gt;DOMA&#45;XUTYP -->
<g id="edge9" class="edge">
<title>DTEL&#45;XUTYP&#45;&gt;DOMA&#45;XUTYP</title>
<path fill="none" stroke="black" d="M523.9,-71.7C523.12,-63.98 522.2,-54.71 521.34,-46.11"/>
<polygon fill="black" stroke="black" points="524.81,-45.71 520.34,-36.1 517.85,-46.4 524.81,-45.71"/>
</g>
<!-- DOMA&#45;XUTEXT -->
<g id="node9" class="node">
<title>DOMA&#45;XUTEXT</title>
<g id="a_node9"><a xlink:href="./DOMA_XUTEXT.html" xlink:title="DOMA&#45;XUTEXT">
<polygon fill="none" stroke="yellow" points="711.53,-36 591.72,-36 591.72,0 711.53,0 711.53,-36"/>
<text text-anchor="middle" x="651.63" y="-13.8" font-family="Times,serif" font-size="14.00">DOMA&#45;XUTEXT</text>
</a>
</g>
</g>
<!-- DTEL&#45;XUTEXT&#45;&gt;DOMA&#45;XUTEXT -->
<g id="edge10" class="edge">
<title>DTEL&#45;XUTEXT&#45;&gt;DOMA&#45;XUTEXT</title>
<path fill="none" stroke="black" d="M651.63,-71.7C651.63,-63.98 651.63,-54.71 651.63,-46.11"/>
<polygon fill="black" stroke="black" points="655.13,-46.1 651.63,-36.1 648.13,-46.1 655.13,-46.1"/>
</g>
<!-- DOMA&#45;XUPROFILE -->
<g id="node11" class="node">
<title>DOMA&#45;XUPROFILE</title>
<g id="a_node11"><a xlink:href="./DOMA_XUPROFILE.html" xlink:title="DOMA&#45;XUPROFILE">
<polygon fill="none" stroke="yellow" points="870.04,-36 729.21,-36 729.21,0 870.04,0 870.04,-36"/>
<text text-anchor="middle" x="799.63" y="-13.8" font-family="Times,serif" font-size="14.00">DOMA&#45;XUPROFILE</text>
</a>
</g>
</g>
<!-- DTEL&#45;XUPROFILE&#45;&gt;DOMA&#45;XUPROFILE -->
<g id="edge11" class="edge">
<title>DTEL&#45;XUPROFILE&#45;&gt;DOMA&#45;XUPROFILE</title>
<path fill="none" stroke="black" d="M795.11,-71.7C795.77,-63.98 796.56,-54.71 797.3,-46.11"/>
<polygon fill="black" stroke="black" points="800.79,-46.37 798.16,-36.1 793.82,-45.77 800.79,-46.37"/>
</g>
<!-- DOMA&#45;LOGSYS -->
<g id="node13" class="node">
<title>DOMA&#45;LOGSYS</title>
<g id="a_node13"><a xlink:href="./DOMA_LOGSYS.html" xlink:title="DOMA&#45;LOGSYS">
<polygon fill="none" stroke="yellow" points="1005.49,-36 887.76,-36 887.76,0 1005.49,0 1005.49,-36"/>
<text text-anchor="middle" x="946.63" y="-13.8" font-family="Times,serif" font-size="14.00">DOMA&#45;LOGSYS</text>
</a>
</g>
</g>
<!-- DTEL&#45;RFCRCVSYS&#45;&gt;DOMA&#45;LOGSYS -->
<g id="edge12" class="edge">
<title>DTEL&#45;RFCRCVSYS&#45;&gt;DOMA&#45;LOGSYS</title>
<path fill="none" stroke="black" d="M946.63,-71.7C946.63,-63.98 946.63,-54.71 946.63,-46.11"/>
<polygon fill="black" stroke="black" points="950.13,-46.1 946.63,-36.1 943.13,-46.1 950.13,-46.1"/>
</g>
</g>
</svg>
