<?xml version="1.0" encoding="UTF-8" standalone="no"?>
<!DOCTYPE svg PUBLIC "-//W3C//DTD SVG 1.1//EN"
 "http://www.w3.org/Graphics/SVG/1.1/DTD/svg11.dtd">
<!-- Generated by graphviz version 2.47.3 (20210619.1520)
 -->
<!-- Title: G Pages: 1 -->
<svg width="253pt" height="188pt"
 viewBox="0.00 0.00 253.41 188.00" xmlns="http://www.w3.org/2000/svg" xmlns:xlink="http://www.w3.org/1999/xlink">
<g id="graph0" class="graph" transform="scale(1 1) rotate(0) translate(4 184)">
<title>G</title>
<polygon fill="white" stroke="transparent" points="-4,4 -4,-184 249.41,-184 249.41,4 -4,4"/>
<!-- TTYP&#45;SXCO_T_CDS_FIELD_NAMES -->
<g id="node1" class="node">
<title>TTYP&#45;SXCO_T_CDS_FIELD_NAMES</title>
<polygon fill="none" stroke="green" points="245.62,-180 -0.21,-180 -0.21,-144 245.62,-144 245.62,-180"/>
<text text-anchor="middle" x="122.71" y="-157.8" font-family="Times,serif" font-size="14.00">TTYP&#45;SXCO_T_CDS_FIELD_NAMES</text>
</g>
<!-- DTEL&#45;SXCO_CDS_FIELD_NAME -->
<g id="node2" class="node">
<title>DTEL&#45;SXCO_CDS_FIELD_NAME</title>
<g id="a_node2"><a xlink:href="./DTEL_SXCO_CDS_FIELD_NAME.html" xlink:title="DTEL&#45;SXCO_CDS_FIELD_NAME">
<polygon fill="none" stroke="green" points="234.06,-108 11.36,-108 11.36,-72 234.06,-72 234.06,-108"/>
<text text-anchor="middle" x="122.71" y="-85.8" font-family="Times,serif" font-size="14.00">DTEL&#45;SXCO_CDS_FIELD_NAME</text>
</a>
</g>
</g>
<!-- TTYP&#45;SXCO_T_CDS_FIELD_NAMES&#45;&gt;DTEL&#45;SXCO_CDS_FIELD_NAME -->
<g id="edge1" class="edge">
<title>TTYP&#45;SXCO_T_CDS_FIELD_NAMES&#45;&gt;DTEL&#45;SXCO_CDS_FIELD_NAME</title>
<path fill="none" stroke="black" d="M122.71,-143.7C122.71,-135.98 122.71,-126.71 122.71,-118.11"/>
<polygon fill="black" stroke="black" points="126.21,-118.1 122.71,-108.1 119.21,-118.1 126.21,-118.1"/>
</g>
<!-- DOMA&#45;CHAR30 -->
<g id="node3" class="node">
<title>DOMA&#45;CHAR30</title>
<g id="a_node3"><a xlink:href="./DOMA_CHAR30.html" xlink:title="DOMA&#45;CHAR30">
<polygon fill="none" stroke="green" points="181.02,-36 64.4,-36 64.4,0 181.02,0 181.02,-36"/>
<text text-anchor="middle" x="122.71" y="-13.8" font-family="Times,serif" font-size="14.00">DOMA&#45;CHAR30</text>
</a>
</g>
</g>
<!-- DTEL&#45;SXCO_CDS_FIELD_NAME&#45;&gt;DOMA&#45;CHAR30 -->
<g id="edge2" class="edge">
<title>DTEL&#45;SXCO_CDS_FIELD_NAME&#45;&gt;DOMA&#45;CHAR30</title>
<path fill="none" stroke="black" d="M122.71,-71.7C122.71,-63.98 122.71,-54.71 122.71,-46.11"/>
<polygon fill="black" stroke="black" points="126.21,-46.1 122.71,-36.1 119.21,-46.1 126.21,-46.1"/>
</g>
</g>
</svg>
