<?xml version="1.0" encoding="UTF-8" standalone="no"?>
<!DOCTYPE svg PUBLIC "-//W3C//DTD SVG 1.1//EN"
 "http://www.w3.org/Graphics/SVG/1.1/DTD/svg11.dtd">
<!-- Generated by graphviz version 2.47.3 (20210619.1520)
 -->
<!-- Title: G Pages: 1 -->
<svg width="280pt" height="188pt"
 viewBox="0.00 0.00 279.79 188.00" xmlns="http://www.w3.org/2000/svg" xmlns:xlink="http://www.w3.org/1999/xlink">
<g id="graph0" class="graph" transform="scale(1 1) rotate(0) translate(4 184)">
<title>G</title>
<polygon fill="white" stroke="transparent" points="-4,4 -4,-184 275.79,-184 275.79,4 -4,4"/>
<!-- TTYP&#45;TIHTTPNVP -->
<g id="node1" class="node">
<title>TTYP&#45;TIHTTPNVP</title>
<polygon fill="none" stroke="green" points="200.28,-180 68.56,-180 68.56,-144 200.28,-144 200.28,-180"/>
<text text-anchor="middle" x="134.42" y="-157.8" font-family="Times,serif" font-size="14.00">TTYP&#45;TIHTTPNVP</text>
</g>
<!-- TABL&#45;IHTTPNVP -->
<g id="node2" class="node">
<title>TABL&#45;IHTTPNVP</title>
<g id="a_node2"><a xlink:href="./TABL_IHTTPNVP.html" xlink:title="TABL&#45;IHTTPNVP">
<polygon fill="none" stroke="yellow" points="196.78,-108 72.06,-108 72.06,-72 196.78,-72 196.78,-108"/>
<text text-anchor="middle" x="134.42" y="-85.8" font-family="Times,serif" font-size="14.00">TABL&#45;IHTTPNVP</text>
</a>
</g>
</g>
<!-- TTYP&#45;TIHTTPNVP&#45;&gt;TABL&#45;IHTTPNVP -->
<g id="edge1" class="edge">
<title>TTYP&#45;TIHTTPNVP&#45;&gt;TABL&#45;IHTTPNVP</title>
<path fill="none" stroke="black" d="M134.42,-143.7C134.42,-135.98 134.42,-126.71 134.42,-118.11"/>
<polygon fill="black" stroke="black" points="137.92,-118.1 134.42,-108.1 130.92,-118.1 137.92,-118.1"/>
</g>
<!-- DTEL&#45;IHTTPVAL -->
<g id="node3" class="node">
<title>DTEL&#45;IHTTPVAL</title>
<g id="a_node3"><a xlink:href="./DTEL_IHTTPVAL.html" xlink:title="DTEL&#45;IHTTPVAL">
<polygon fill="none" stroke="yellow" points="124.77,-36 0.08,-36 0.08,0 124.77,0 124.77,-36"/>
<text text-anchor="middle" x="62.42" y="-13.8" font-family="Times,serif" font-size="14.00">DTEL&#45;IHTTPVAL</text>
</a>
</g>
</g>
<!-- TABL&#45;IHTTPNVP&#45;&gt;DTEL&#45;IHTTPVAL -->
<g id="edge3" class="edge">
<title>TABL&#45;IHTTPNVP&#45;&gt;DTEL&#45;IHTTPVAL</title>
<path fill="none" stroke="black" d="M116.63,-71.7C107.82,-63.14 97.04,-52.66 87.42,-43.3"/>
<polygon fill="black" stroke="black" points="89.63,-40.57 80.02,-36.1 84.75,-45.58 89.63,-40.57"/>
</g>
<!-- DTEL&#45;IHTTPNAM -->
<g id="node4" class="node">
<title>DTEL&#45;IHTTPNAM</title>
<g id="a_node4"><a xlink:href="./DTEL_IHTTPNAM.html" xlink:title="DTEL&#45;IHTTPNAM">
<polygon fill="none" stroke="yellow" points="271.66,-36 143.18,-36 143.18,0 271.66,0 271.66,-36"/>
<text text-anchor="middle" x="207.42" y="-13.8" font-family="Times,serif" font-size="14.00">DTEL&#45;IHTTPNAM</text>
</a>
</g>
</g>
<!-- TABL&#45;IHTTPNVP&#45;&gt;DTEL&#45;IHTTPNAM -->
<g id="edge2" class="edge">
<title>TABL&#45;IHTTPNVP&#45;&gt;DTEL&#45;IHTTPNAM</title>
<path fill="none" stroke="black" d="M152.47,-71.7C161.48,-63.05 172.54,-52.45 182.37,-43.03"/>
<polygon fill="black" stroke="black" points="184.79,-45.55 189.59,-36.1 179.95,-40.5 184.79,-45.55"/>
</g>
</g>
</svg>
