<?xml version="1.0" encoding="UTF-8" standalone="no"?>
<!DOCTYPE svg PUBLIC "-//W3C//DTD SVG 1.1//EN"
 "http://www.w3.org/Graphics/SVG/1.1/DTD/svg11.dtd">
<!-- Generated by graphviz version 2.47.3 (20210619.1520)
 -->
<!-- Title: G Pages: 1 -->
<svg width="450pt" height="260pt"
 viewBox="0.00 0.00 450.46 260.00" xmlns="http://www.w3.org/2000/svg" xmlns:xlink="http://www.w3.org/1999/xlink">
<g id="graph0" class="graph" transform="scale(1 1) rotate(0) translate(4 256)">
<title>G</title>
<polygon fill="white" stroke="transparent" points="-4,4 -4,-256 446.46,-256 446.46,4 -4,4"/>
<!-- TTYP&#45;BAL_R_TIME -->
<g id="node1" class="node">
<title>TTYP&#45;BAL_R_TIME</title>
<polygon fill="none" stroke="yellow" points="279.01,-252 137.62,-252 137.62,-216 279.01,-216 279.01,-252"/>
<text text-anchor="middle" x="208.32" y="-229.8" font-family="Times,serif" font-size="14.00">TTYP&#45;BAL_R_TIME</text>
</g>
<!-- TABL&#45;BAL_S_TIME -->
<g id="node2" class="node">
<title>TABL&#45;BAL_S_TIME</title>
<g id="a_node2"><a xlink:href="./TABL_BAL_S_TIME.html" xlink:title="TABL&#45;BAL_S_TIME">
<polygon fill="none" stroke="yellow" points="279.01,-180 137.62,-180 137.62,-144 279.01,-144 279.01,-180"/>
<text text-anchor="middle" x="208.32" y="-157.8" font-family="Times,serif" font-size="14.00">TABL&#45;BAL_S_TIME</text>
</a>
</g>
</g>
<!-- TTYP&#45;BAL_R_TIME&#45;&gt;TABL&#45;BAL_S_TIME -->
<g id="edge1" class="edge">
<title>TTYP&#45;BAL_R_TIME&#45;&gt;TABL&#45;BAL_S_TIME</title>
<path fill="none" stroke="black" d="M208.32,-215.7C208.32,-207.98 208.32,-198.71 208.32,-190.11"/>
<polygon fill="black" stroke="black" points="211.82,-190.1 208.32,-180.1 204.82,-190.1 211.82,-190.1"/>
</g>
<!-- DTEL&#45;BALTIME -->
<g id="node3" class="node">
<title>DTEL&#45;BALTIME</title>
<g id="a_node3"><a xlink:href="./DTEL_BALTIME.html" xlink:title="DTEL&#45;BALTIME">
<polygon fill="none" stroke="yellow" points="118.45,-108 0.18,-108 0.18,-72 118.45,-72 118.45,-108"/>
<text text-anchor="middle" x="59.32" y="-85.8" font-family="Times,serif" font-size="14.00">DTEL&#45;BALTIME</text>
</a>
</g>
</g>
<!-- TABL&#45;BAL_S_TIME&#45;&gt;DTEL&#45;BALTIME -->
<g id="edge4" class="edge">
<title>TABL&#45;BAL_S_TIME&#45;&gt;DTEL&#45;BALTIME</title>
<path fill="none" stroke="black" d="M171.87,-143.88C151.68,-134.39 126.39,-122.51 104.91,-112.42"/>
<polygon fill="black" stroke="black" points="106.19,-109.15 95.65,-108.07 103.21,-115.49 106.19,-109.15"/>
</g>
<!-- DTEL&#45;TVARV_OPTI -->
<g id="node5" class="node">
<title>DTEL&#45;TVARV_OPTI</title>
<g id="a_node5"><a xlink:href="./DTEL_TVARV_OPTI.html" xlink:title="DTEL&#45;TVARV_OPTI">
<polygon fill="none" stroke="yellow" points="279.55,-108 137.08,-108 137.08,-72 279.55,-72 279.55,-108"/>
<text text-anchor="middle" x="208.32" y="-85.8" font-family="Times,serif" font-size="14.00">DTEL&#45;TVARV_OPTI</text>
</a>
</g>
</g>
<!-- TABL&#45;BAL_S_TIME&#45;&gt;DTEL&#45;TVARV_OPTI -->
<g id="edge3" class="edge">
<title>TABL&#45;BAL_S_TIME&#45;&gt;DTEL&#45;TVARV_OPTI</title>
<path fill="none" stroke="black" d="M208.32,-143.7C208.32,-135.98 208.32,-126.71 208.32,-118.11"/>
<polygon fill="black" stroke="black" points="211.82,-118.1 208.32,-108.1 204.82,-118.1 211.82,-118.1"/>
</g>
<!-- DTEL&#45;TVARV_SIGN -->
<g id="node7" class="node">
<title>DTEL&#45;TVARV_SIGN</title>
<g id="a_node7"><a xlink:href="./DTEL_TVARV_SIGN.html" xlink:title="DTEL&#45;TVARV_SIGN">
<polygon fill="none" stroke="yellow" points="442.61,-108 298.02,-108 298.02,-72 442.61,-72 442.61,-108"/>
<text text-anchor="middle" x="370.32" y="-85.8" font-family="Times,serif" font-size="14.00">DTEL&#45;TVARV_SIGN</text>
</a>
</g>
</g>
<!-- TABL&#45;BAL_S_TIME&#45;&gt;DTEL&#45;TVARV_SIGN -->
<g id="edge2" class="edge">
<title>TABL&#45;BAL_S_TIME&#45;&gt;DTEL&#45;TVARV_SIGN</title>
<path fill="none" stroke="black" d="M247.95,-143.88C270.09,-134.31 297.88,-122.3 321.37,-112.15"/>
<polygon fill="black" stroke="black" points="323.02,-115.25 330.81,-108.07 320.25,-108.82 323.02,-115.25"/>
</g>
<!-- DOMA&#45;UZEIT -->
<g id="node4" class="node">
<title>DOMA&#45;UZEIT</title>
<g id="a_node4"><a xlink:href="./DOMA_UZEIT.html" xlink:title="DOMA&#45;UZEIT">
<polygon fill="none" stroke="yellow" points="111.17,-36 7.47,-36 7.47,0 111.17,0 111.17,-36"/>
<text text-anchor="middle" x="59.32" y="-13.8" font-family="Times,serif" font-size="14.00">DOMA&#45;UZEIT</text>
</a>
</g>
</g>
<!-- DTEL&#45;BALTIME&#45;&gt;DOMA&#45;UZEIT -->
<g id="edge5" class="edge">
<title>DTEL&#45;BALTIME&#45;&gt;DOMA&#45;UZEIT</title>
<path fill="none" stroke="black" d="M59.32,-71.7C59.32,-63.98 59.32,-54.71 59.32,-46.11"/>
<polygon fill="black" stroke="black" points="62.82,-46.1 59.32,-36.1 55.82,-46.1 62.82,-46.1"/>
</g>
<!-- DOMA&#45;SYCHAR02 -->
<g id="node6" class="node">
<title>DOMA&#45;SYCHAR02</title>
<g id="a_node6"><a xlink:href="./DOMA_SYCHAR02.html" xlink:title="DOMA&#45;SYCHAR02">
<polygon fill="none" stroke="yellow" points="275.52,-36 141.11,-36 141.11,0 275.52,0 275.52,-36"/>
<text text-anchor="middle" x="208.32" y="-13.8" font-family="Times,serif" font-size="14.00">DOMA&#45;SYCHAR02</text>
</a>
</g>
</g>
<!-- DTEL&#45;TVARV_OPTI&#45;&gt;DOMA&#45;SYCHAR02 -->
<g id="edge6" class="edge">
<title>DTEL&#45;TVARV_OPTI&#45;&gt;DOMA&#45;SYCHAR02</title>
<path fill="none" stroke="black" d="M208.32,-71.7C208.32,-63.98 208.32,-54.71 208.32,-46.11"/>
<polygon fill="black" stroke="black" points="211.82,-46.1 208.32,-36.1 204.82,-46.1 211.82,-46.1"/>
</g>
<!-- DOMA&#45;SYCHAR01 -->
<g id="node8" class="node">
<title>DOMA&#45;SYCHAR01</title>
<g id="a_node8"><a xlink:href="./DOMA_SYCHAR01.html" xlink:title="DOMA&#45;SYCHAR01">
<polygon fill="none" stroke="yellow" points="437.52,-36 303.11,-36 303.11,0 437.52,0 437.52,-36"/>
<text text-anchor="middle" x="370.32" y="-13.8" font-family="Times,serif" font-size="14.00">DOMA&#45;SYCHAR01</text>
</a>
</g>
</g>
<!-- DTEL&#45;TVARV_SIGN&#45;&gt;DOMA&#45;SYCHAR01 -->
<g id="edge7" class="edge">
<title>DTEL&#45;TVARV_SIGN&#45;&gt;DOMA&#45;SYCHAR01</title>
<path fill="none" stroke="black" d="M370.32,-71.7C370.32,-63.98 370.32,-54.71 370.32,-46.11"/>
<polygon fill="black" stroke="black" points="373.82,-46.1 370.32,-36.1 366.82,-46.1 373.82,-46.1"/>
</g>
</g>
</svg>
