<?xml version="1.0" encoding="UTF-8" standalone="no"?>
<!DOCTYPE svg PUBLIC "-//W3C//DTD SVG 1.1//EN"
 "http://www.w3.org/Graphics/SVG/1.1/DTD/svg11.dtd">
<!-- Generated by graphviz version 2.47.3 (20210619.1520)
 -->
<!-- Title: G Pages: 1 -->
<svg width="460pt" height="260pt"
 viewBox="0.00 0.00 460.24 260.00" xmlns="http://www.w3.org/2000/svg" xmlns:xlink="http://www.w3.org/1999/xlink">
<g id="graph0" class="graph" transform="scale(1 1) rotate(0) translate(4 256)">
<title>G</title>
<polygon fill="white" stroke="transparent" points="-4,4 -4,-256 456.24,-256 456.24,4 -4,4"/>
<!-- TTYP&#45;BAL_R_USER -->
<g id="node1" class="node">
<title>TTYP&#45;BAL_R_USER</title>
<polygon fill="none" stroke="yellow" points="289.36,-252 146.83,-252 146.83,-216 289.36,-216 289.36,-252"/>
<text text-anchor="middle" x="218.09" y="-229.8" font-family="Times,serif" font-size="14.00">TTYP&#45;BAL_R_USER</text>
</g>
<!-- TABL&#45;BAL_S_USER -->
<g id="node2" class="node">
<title>TABL&#45;BAL_S_USER</title>
<g id="a_node2"><a xlink:href="./TABL_BAL_S_USER.html" xlink:title="TABL&#45;BAL_S_USER">
<polygon fill="none" stroke="yellow" points="289.36,-180 146.83,-180 146.83,-144 289.36,-144 289.36,-180"/>
<text text-anchor="middle" x="218.09" y="-157.8" font-family="Times,serif" font-size="14.00">TABL&#45;BAL_S_USER</text>
</a>
</g>
</g>
<!-- TTYP&#45;BAL_R_USER&#45;&gt;TABL&#45;BAL_S_USER -->
<g id="edge1" class="edge">
<title>TTYP&#45;BAL_R_USER&#45;&gt;TABL&#45;BAL_S_USER</title>
<path fill="none" stroke="black" d="M218.09,-215.7C218.09,-207.98 218.09,-198.71 218.09,-190.11"/>
<polygon fill="black" stroke="black" points="221.59,-190.1 218.09,-180.1 214.59,-190.1 221.59,-190.1"/>
</g>
<!-- DTEL&#45;BALUSER -->
<g id="node3" class="node">
<title>DTEL&#45;BALUSER</title>
<g id="a_node3"><a xlink:href="./DTEL_BALUSER.html" xlink:title="DTEL&#45;BALUSER">
<polygon fill="none" stroke="yellow" points="128.29,-108 7.89,-108 7.89,-72 128.29,-72 128.29,-108"/>
<text text-anchor="middle" x="68.09" y="-85.8" font-family="Times,serif" font-size="14.00">DTEL&#45;BALUSER</text>
</a>
</g>
</g>
<!-- TABL&#45;BAL_S_USER&#45;&gt;DTEL&#45;BALUSER -->
<g id="edge4" class="edge">
<title>TABL&#45;BAL_S_USER&#45;&gt;DTEL&#45;BALUSER</title>
<path fill="none" stroke="black" d="M181.4,-143.88C161.07,-134.39 135.62,-122.51 113.99,-112.42"/>
<polygon fill="black" stroke="black" points="115.21,-109.13 104.67,-108.07 112.25,-115.47 115.21,-109.13"/>
</g>
<!-- DTEL&#45;TVARV_OPTI -->
<g id="node5" class="node">
<title>DTEL&#45;TVARV_OPTI</title>
<g id="a_node5"><a xlink:href="./DTEL_TVARV_OPTI.html" xlink:title="DTEL&#45;TVARV_OPTI">
<polygon fill="none" stroke="yellow" points="289.33,-108 146.86,-108 146.86,-72 289.33,-72 289.33,-108"/>
<text text-anchor="middle" x="218.09" y="-85.8" font-family="Times,serif" font-size="14.00">DTEL&#45;TVARV_OPTI</text>
</a>
</g>
</g>
<!-- TABL&#45;BAL_S_USER&#45;&gt;DTEL&#45;TVARV_OPTI -->
<g id="edge3" class="edge">
<title>TABL&#45;BAL_S_USER&#45;&gt;DTEL&#45;TVARV_OPTI</title>
<path fill="none" stroke="black" d="M218.09,-143.7C218.09,-135.98 218.09,-126.71 218.09,-118.11"/>
<polygon fill="black" stroke="black" points="221.59,-118.1 218.09,-108.1 214.59,-118.1 221.59,-118.1"/>
</g>
<!-- DTEL&#45;TVARV_SIGN -->
<g id="node7" class="node">
<title>DTEL&#45;TVARV_SIGN</title>
<g id="a_node7"><a xlink:href="./DTEL_TVARV_SIGN.html" xlink:title="DTEL&#45;TVARV_SIGN">
<polygon fill="none" stroke="yellow" points="452.38,-108 307.8,-108 307.8,-72 452.38,-72 452.38,-108"/>
<text text-anchor="middle" x="380.09" y="-85.8" font-family="Times,serif" font-size="14.00">DTEL&#45;TVARV_SIGN</text>
</a>
</g>
</g>
<!-- TABL&#45;BAL_S_USER&#45;&gt;DTEL&#45;TVARV_SIGN -->
<g id="edge2" class="edge">
<title>TABL&#45;BAL_S_USER&#45;&gt;DTEL&#45;TVARV_SIGN</title>
<path fill="none" stroke="black" d="M257.72,-143.88C279.87,-134.31 307.66,-122.3 331.15,-112.15"/>
<polygon fill="black" stroke="black" points="332.8,-115.25 340.59,-108.07 330.02,-108.82 332.8,-115.25"/>
</g>
<!-- DOMA&#45;XUBNAME -->
<g id="node4" class="node">
<title>DOMA&#45;XUBNAME</title>
<g id="a_node4"><a xlink:href="./DOMA_XUBNAME.html" xlink:title="DOMA&#45;XUBNAME">
<polygon fill="none" stroke="yellow" points="134.28,-36 -0.09,-36 -0.09,0 134.28,0 134.28,-36"/>
<text text-anchor="middle" x="67.09" y="-13.8" font-family="Times,serif" font-size="14.00">DOMA&#45;XUBNAME</text>
</a>
</g>
</g>
<!-- DTEL&#45;BALUSER&#45;&gt;DOMA&#45;XUBNAME -->
<g id="edge5" class="edge">
<title>DTEL&#45;BALUSER&#45;&gt;DOMA&#45;XUBNAME</title>
<path fill="none" stroke="black" d="M67.85,-71.7C67.74,-63.98 67.6,-54.71 67.48,-46.11"/>
<polygon fill="black" stroke="black" points="70.98,-46.05 67.34,-36.1 63.98,-46.15 70.98,-46.05"/>
</g>
<!-- DOMA&#45;SYCHAR02 -->
<g id="node6" class="node">
<title>DOMA&#45;SYCHAR02</title>
<g id="a_node6"><a xlink:href="./DOMA_SYCHAR02.html" xlink:title="DOMA&#45;SYCHAR02">
<polygon fill="none" stroke="yellow" points="286.29,-36 151.89,-36 151.89,0 286.29,0 286.29,-36"/>
<text text-anchor="middle" x="219.09" y="-13.8" font-family="Times,serif" font-size="14.00">DOMA&#45;SYCHAR02</text>
</a>
</g>
</g>
<!-- DTEL&#45;TVARV_OPTI&#45;&gt;DOMA&#45;SYCHAR02 -->
<g id="edge6" class="edge">
<title>DTEL&#45;TVARV_OPTI&#45;&gt;DOMA&#45;SYCHAR02</title>
<path fill="none" stroke="black" d="M218.34,-71.7C218.45,-63.98 218.58,-54.71 218.71,-46.11"/>
<polygon fill="black" stroke="black" points="222.2,-46.15 218.85,-36.1 215.21,-46.05 222.2,-46.15"/>
</g>
<!-- DOMA&#45;SYCHAR01 -->
<g id="node8" class="node">
<title>DOMA&#45;SYCHAR01</title>
<g id="a_node8"><a xlink:href="./DOMA_SYCHAR01.html" xlink:title="DOMA&#45;SYCHAR01">
<polygon fill="none" stroke="yellow" points="447.29,-36 312.89,-36 312.89,0 447.29,0 447.29,-36"/>
<text text-anchor="middle" x="380.09" y="-13.8" font-family="Times,serif" font-size="14.00">DOMA&#45;SYCHAR01</text>
</a>
</g>
</g>
<!-- DTEL&#45;TVARV_SIGN&#45;&gt;DOMA&#45;SYCHAR01 -->
<g id="edge7" class="edge">
<title>DTEL&#45;TVARV_SIGN&#45;&gt;DOMA&#45;SYCHAR01</title>
<path fill="none" stroke="black" d="M380.09,-71.7C380.09,-63.98 380.09,-54.71 380.09,-46.11"/>
<polygon fill="black" stroke="black" points="383.59,-46.1 380.09,-36.1 376.59,-46.1 383.59,-46.1"/>
</g>
</g>
</svg>
