<?xml version="1.0" encoding="UTF-8" standalone="no"?>
<!DOCTYPE svg PUBLIC "-//W3C//DTD SVG 1.1//EN"
 "http://www.w3.org/Graphics/SVG/1.1/DTD/svg11.dtd">
<!-- Generated by graphviz version 2.47.3 (20210619.1520)
 -->
<!-- Title: G Pages: 1 -->
<svg width="446pt" height="260pt"
 viewBox="0.00 0.00 445.62 260.00" xmlns="http://www.w3.org/2000/svg" xmlns:xlink="http://www.w3.org/1999/xlink">
<g id="graph0" class="graph" transform="scale(1 1) rotate(0) translate(4 256)">
<title>G</title>
<polygon fill="white" stroke="transparent" points="-4,4 -4,-256 441.62,-256 441.62,4 -4,4"/>
<!-- TTYP&#45;ABP_BEHV_CHANGES_TAB -->
<g id="node1" class="node">
<title>TTYP&#45;ABP_BEHV_CHANGES_TAB</title>
<polygon fill="none" stroke="green" points="329.27,-252 93.12,-252 93.12,-216 329.27,-216 329.27,-252"/>
<text text-anchor="middle" x="211.2" y="-229.8" font-family="Times,serif" font-size="14.00">TTYP&#45;ABP_BEHV_CHANGES_TAB</text>
</g>
<!-- TABL&#45;ABP_BEHV_CHANGES -->
<g id="node2" class="node">
<title>TABL&#45;ABP_BEHV_CHANGES</title>
<g id="a_node2"><a xlink:href="./TABL_ABP_BEHV_CHANGES.html" xlink:title="TABL&#45;ABP_BEHV_CHANGES">
<polygon fill="none" stroke="green" points="312.33,-180 110.06,-180 110.06,-144 312.33,-144 312.33,-180"/>
<text text-anchor="middle" x="211.2" y="-157.8" font-family="Times,serif" font-size="14.00">TABL&#45;ABP_BEHV_CHANGES</text>
</a>
</g>
</g>
<!-- TTYP&#45;ABP_BEHV_CHANGES_TAB&#45;&gt;TABL&#45;ABP_BEHV_CHANGES -->
<g id="edge1" class="edge">
<title>TTYP&#45;ABP_BEHV_CHANGES_TAB&#45;&gt;TABL&#45;ABP_BEHV_CHANGES</title>
<path fill="none" stroke="black" d="M211.2,-215.7C211.2,-207.98 211.2,-198.71 211.2,-190.11"/>
<polygon fill="black" stroke="black" points="214.7,-190.1 211.2,-180.1 207.7,-190.1 214.7,-190.1"/>
</g>
<!-- DTEL&#45;ABP_ENTITY_NAME -->
<g id="node3" class="node">
<title>DTEL&#45;ABP_ENTITY_NAME</title>
<g id="a_node3"><a xlink:href="./DTEL_ABP_ENTITY_NAME.html" xlink:title="DTEL&#45;ABP_ENTITY_NAME">
<polygon fill="none" stroke="green" points="196.09,-108 6.3,-108 6.3,-72 196.09,-72 196.09,-108"/>
<text text-anchor="middle" x="101.2" y="-85.8" font-family="Times,serif" font-size="14.00">DTEL&#45;ABP_ENTITY_NAME</text>
</a>
</g>
</g>
<!-- TABL&#45;ABP_BEHV_CHANGES&#45;&gt;DTEL&#45;ABP_ENTITY_NAME -->
<g id="edge3" class="edge">
<title>TABL&#45;ABP_BEHV_CHANGES&#45;&gt;DTEL&#45;ABP_ENTITY_NAME</title>
<path fill="none" stroke="black" d="M184.29,-143.88C170.04,-134.81 152.35,-123.55 136.96,-113.76"/>
<polygon fill="black" stroke="black" points="138.52,-110.61 128.21,-108.19 134.77,-116.51 138.52,-110.61"/>
</g>
<!-- DTEL&#45;ABP_BEHV_OP_MODIFY -->
<g id="node5" class="node">
<title>DTEL&#45;ABP_BEHV_OP_MODIFY</title>
<g id="a_node5"><a xlink:href="./DTEL_ABP_BEHV_OP_MODIFY.html" xlink:title="DTEL&#45;ABP_BEHV_OP_MODIFY">
<polygon fill="none" stroke="green" points="432.05,-108 216.35,-108 216.35,-72 432.05,-72 432.05,-108"/>
<text text-anchor="middle" x="324.2" y="-85.8" font-family="Times,serif" font-size="14.00">DTEL&#45;ABP_BEHV_OP_MODIFY</text>
</a>
</g>
</g>
<!-- TABL&#45;ABP_BEHV_CHANGES&#45;&gt;DTEL&#45;ABP_BEHV_OP_MODIFY -->
<g id="edge2" class="edge">
<title>TABL&#45;ABP_BEHV_CHANGES&#45;&gt;DTEL&#45;ABP_BEHV_OP_MODIFY</title>
<path fill="none" stroke="black" d="M238.84,-143.88C253.61,-134.72 271.99,-123.34 287.9,-113.48"/>
<polygon fill="black" stroke="black" points="289.79,-116.43 296.45,-108.19 286.1,-110.48 289.79,-116.43"/>
</g>
<!-- DOMA&#45;ABP_ENTITY_NAME -->
<g id="node4" class="node">
<title>DOMA&#45;ABP_ENTITY_NAME</title>
<g id="a_node4"><a xlink:href="./DOMA_ABP_ENTITY_NAME.html" xlink:title="DOMA&#45;ABP_ENTITY_NAME">
<polygon fill="none" stroke="yellow" points="196.59,-36 -0.2,-36 -0.2,0 196.59,0 196.59,-36"/>
<text text-anchor="middle" x="98.2" y="-13.8" font-family="Times,serif" font-size="14.00">DOMA&#45;ABP_ENTITY_NAME</text>
</a>
</g>
</g>
<!-- DTEL&#45;ABP_ENTITY_NAME&#45;&gt;DOMA&#45;ABP_ENTITY_NAME -->
<g id="edge4" class="edge">
<title>DTEL&#45;ABP_ENTITY_NAME&#45;&gt;DOMA&#45;ABP_ENTITY_NAME</title>
<path fill="none" stroke="black" d="M100.45,-71.7C100.12,-63.98 99.73,-54.71 99.36,-46.11"/>
<polygon fill="black" stroke="black" points="102.85,-45.95 98.93,-36.1 95.86,-46.25 102.85,-45.95"/>
</g>
<!-- DOMA&#45;ABP_BEHV_OP_MODIFY -->
<g id="node6" class="node">
<title>DOMA&#45;ABP_BEHV_OP_MODIFY</title>
<g id="a_node6"><a xlink:href="./DOMA_ABP_BEHV_OP_MODIFY.html" xlink:title="DOMA&#45;ABP_BEHV_OP_MODIFY">
<polygon fill="none" stroke="yellow" points="437.55,-36 214.85,-36 214.85,0 437.55,0 437.55,-36"/>
<text text-anchor="middle" x="326.2" y="-13.8" font-family="Times,serif" font-size="14.00">DOMA&#45;ABP_BEHV_OP_MODIFY</text>
</a>
</g>
</g>
<!-- DTEL&#45;ABP_BEHV_OP_MODIFY&#45;&gt;DOMA&#45;ABP_BEHV_OP_MODIFY -->
<g id="edge5" class="edge">
<title>DTEL&#45;ABP_BEHV_OP_MODIFY&#45;&gt;DOMA&#45;ABP_BEHV_OP_MODIFY</title>
<path fill="none" stroke="black" d="M324.69,-71.7C324.91,-63.98 325.18,-54.71 325.42,-46.11"/>
<polygon fill="black" stroke="black" points="328.92,-46.2 325.71,-36.1 321.92,-46 328.92,-46.2"/>
</g>
</g>
</svg>
