<?xml version="1.0" encoding="UTF-8" standalone="no"?>
<!DOCTYPE svg PUBLIC "-//W3C//DTD SVG 1.1//EN"
 "http://www.w3.org/Graphics/SVG/1.1/DTD/svg11.dtd">
<!-- Generated by graphviz version 2.47.3 (20210619.1520)
 -->
<!-- Title: G Pages: 1 -->
<svg width="325pt" height="260pt"
 viewBox="0.00 0.00 324.96 260.00" xmlns="http://www.w3.org/2000/svg" xmlns:xlink="http://www.w3.org/1999/xlink">
<g id="graph0" class="graph" transform="scale(1 1) rotate(0) translate(4 256)">
<title>G</title>
<polygon fill="white" stroke="transparent" points="-4,4 -4,-256 320.96,-256 320.96,4 -4,4"/>
<!-- TTYP&#45;ABP_BEHV_GLOBAL_PERMISSION_TAB -->
<g id="node1" class="node">
<title>TTYP&#45;ABP_BEHV_GLOBAL_PERMISSION_TAB</title>
<polygon fill="none" stroke="green" points="316.93,-252 0.02,-252 0.02,-216 316.93,-216 316.93,-252"/>
<text text-anchor="middle" x="158.48" y="-229.8" font-family="Times,serif" font-size="14.00">TTYP&#45;ABP_BEHV_GLOBAL_PERMISSION_TAB</text>
</g>
<!-- TABL&#45;ABP_BEHV_GLOBAL_PERMISSIONS -->
<g id="node2" class="node">
<title>TABL&#45;ABP_BEHV_GLOBAL_PERMISSIONS</title>
<g id="a_node2"><a xlink:href="./TABL_ABP_BEHV_GLOBAL_PERMISSIONS.html" xlink:title="TABL&#45;ABP_BEHV_GLOBAL_PERMISSIONS">
<polygon fill="none" stroke="green" points="304.28,-180 12.68,-180 12.68,-144 304.28,-144 304.28,-180"/>
<text text-anchor="middle" x="158.48" y="-157.8" font-family="Times,serif" font-size="14.00">TABL&#45;ABP_BEHV_GLOBAL_PERMISSIONS</text>
</a>
</g>
</g>
<!-- TTYP&#45;ABP_BEHV_GLOBAL_PERMISSION_TAB&#45;&gt;TABL&#45;ABP_BEHV_GLOBAL_PERMISSIONS -->
<g id="edge1" class="edge">
<title>TTYP&#45;ABP_BEHV_GLOBAL_PERMISSION_TAB&#45;&gt;TABL&#45;ABP_BEHV_GLOBAL_PERMISSIONS</title>
<path fill="none" stroke="black" d="M158.48,-215.7C158.48,-207.98 158.48,-198.71 158.48,-190.11"/>
<polygon fill="black" stroke="black" points="161.98,-190.1 158.48,-180.1 154.98,-190.1 161.98,-190.1"/>
</g>
<!-- DTEL&#45;ABP_ENTITY_NAME -->
<g id="node3" class="node">
<title>DTEL&#45;ABP_ENTITY_NAME</title>
<g id="a_node3"><a xlink:href="./DTEL_ABP_ENTITY_NAME.html" xlink:title="DTEL&#45;ABP_ENTITY_NAME">
<polygon fill="none" stroke="green" points="253.37,-108 63.59,-108 63.59,-72 253.37,-72 253.37,-108"/>
<text text-anchor="middle" x="158.48" y="-85.8" font-family="Times,serif" font-size="14.00">DTEL&#45;ABP_ENTITY_NAME</text>
</a>
</g>
</g>
<!-- TABL&#45;ABP_BEHV_GLOBAL_PERMISSIONS&#45;&gt;DTEL&#45;ABP_ENTITY_NAME -->
<g id="edge2" class="edge">
<title>TABL&#45;ABP_BEHV_GLOBAL_PERMISSIONS&#45;&gt;DTEL&#45;ABP_ENTITY_NAME</title>
<path fill="none" stroke="black" d="M158.48,-143.7C158.48,-135.98 158.48,-126.71 158.48,-118.11"/>
<polygon fill="black" stroke="black" points="161.98,-118.1 158.48,-108.1 154.98,-118.1 161.98,-118.1"/>
</g>
<!-- DOMA&#45;ABP_ENTITY_NAME -->
<g id="node4" class="node">
<title>DOMA&#45;ABP_ENTITY_NAME</title>
<g id="a_node4"><a xlink:href="./DOMA_ABP_ENTITY_NAME.html" xlink:title="DOMA&#45;ABP_ENTITY_NAME">
<polygon fill="none" stroke="yellow" points="256.87,-36 60.09,-36 60.09,0 256.87,0 256.87,-36"/>
<text text-anchor="middle" x="158.48" y="-13.8" font-family="Times,serif" font-size="14.00">DOMA&#45;ABP_ENTITY_NAME</text>
</a>
</g>
</g>
<!-- DTEL&#45;ABP_ENTITY_NAME&#45;&gt;DOMA&#45;ABP_ENTITY_NAME -->
<g id="edge3" class="edge">
<title>DTEL&#45;ABP_ENTITY_NAME&#45;&gt;DOMA&#45;ABP_ENTITY_NAME</title>
<path fill="none" stroke="black" d="M158.48,-71.7C158.48,-63.98 158.48,-54.71 158.48,-46.11"/>
<polygon fill="black" stroke="black" points="161.98,-46.1 158.48,-36.1 154.98,-46.1 161.98,-46.1"/>
</g>
</g>
</svg>
