<?xml version="1.0" encoding="UTF-8" standalone="no"?>
<!DOCTYPE svg PUBLIC "-//W3C//DTD SVG 1.1//EN"
 "http://www.w3.org/Graphics/SVG/1.1/DTD/svg11.dtd">
<!-- Generated by graphviz version 2.47.3 (20210619.1520)
 -->
<!-- Title: G Pages: 1 -->
<svg width="1619pt" height="260pt"
 viewBox="0.00 0.00 1619.24 260.00" xmlns="http://www.w3.org/2000/svg" xmlns:xlink="http://www.w3.org/1999/xlink">
<g id="graph0" class="graph" transform="scale(1 1) rotate(0) translate(4 256)">
<title>G</title>
<polygon fill="white" stroke="transparent" points="-4,4 -4,-256 1615.24,-256 1615.24,4 -4,4"/>
<!-- TTYP&#45;SUID_TT_NODE_CERTMAP -->
<g id="node1" class="node">
<title>TTYP&#45;SUID_TT_NODE_CERTMAP</title>
<polygon fill="none" stroke="yellow" points="938.1,-252 706.3,-252 706.3,-216 938.1,-216 938.1,-252"/>
<text text-anchor="middle" x="822.2" y="-229.8" font-family="Times,serif" font-size="14.00">TTYP&#45;SUID_TT_NODE_CERTMAP</text>
</g>
<!-- TABL&#45;SUID_ST_NODE_CERTMAP -->
<g id="node2" class="node">
<title>TABL&#45;SUID_ST_NODE_CERTMAP</title>
<g id="a_node2"><a xlink:href="./TABL_SUID_ST_NODE_CERTMAP.html" xlink:title="TABL&#45;SUID_ST_NODE_CERTMAP">
<polygon fill="none" stroke="yellow" points="938.38,-180 706.01,-180 706.01,-144 938.38,-144 938.38,-180"/>
<text text-anchor="middle" x="822.2" y="-157.8" font-family="Times,serif" font-size="14.00">TABL&#45;SUID_ST_NODE_CERTMAP</text>
</a>
</g>
</g>
<!-- TTYP&#45;SUID_TT_NODE_CERTMAP&#45;&gt;TABL&#45;SUID_ST_NODE_CERTMAP -->
<g id="edge1" class="edge">
<title>TTYP&#45;SUID_TT_NODE_CERTMAP&#45;&gt;TABL&#45;SUID_ST_NODE_CERTMAP</title>
<path fill="none" stroke="black" d="M822.2,-215.7C822.2,-207.98 822.2,-198.71 822.2,-190.11"/>
<polygon fill="black" stroke="black" points="825.7,-190.1 822.2,-180.1 818.7,-190.1 825.7,-190.1"/>
</g>
<!-- DTEL&#45;XUCREATED_ON -->
<g id="node3" class="node">
<title>DTEL&#45;XUCREATED_ON</title>
<g id="a_node3"><a xlink:href="./DTEL_XUCREATED_ON.html" xlink:title="DTEL&#45;XUCREATED_ON">
<polygon fill="none" stroke="yellow" points="168.59,-108 -0.2,-108 -0.2,-72 168.59,-72 168.59,-108"/>
<text text-anchor="middle" x="84.2" y="-85.8" font-family="Times,serif" font-size="14.00">DTEL&#45;XUCREATED_ON</text>
</a>
</g>
</g>
<!-- TABL&#45;SUID_ST_NODE_CERTMAP&#45;&gt;DTEL&#45;XUCREATED_ON -->
<g id="edge9" class="edge">
<title>TABL&#45;SUID_ST_NODE_CERTMAP&#45;&gt;DTEL&#45;XUCREATED_ON</title>
<path fill="none" stroke="black" d="M705.9,-154.91C578.73,-147.46 368.81,-132.85 178.72,-108.13"/>
<polygon fill="black" stroke="black" points="178.91,-104.62 168.54,-106.79 178,-111.56 178.91,-104.62"/>
</g>
<!-- DTEL&#45;XUCREATED_BY -->
<g id="node5" class="node">
<title>DTEL&#45;XUCREATED_BY</title>
<g id="a_node5"><a xlink:href="./DTEL_XUCREATED_BY.html" xlink:title="DTEL&#45;XUCREATED_BY">
<polygon fill="none" stroke="yellow" points="353.82,-108 186.57,-108 186.57,-72 353.82,-72 353.82,-108"/>
<text text-anchor="middle" x="270.2" y="-85.8" font-family="Times,serif" font-size="14.00">DTEL&#45;XUCREATED_BY</text>
</a>
</g>
</g>
<!-- TABL&#45;SUID_ST_NODE_CERTMAP&#45;&gt;DTEL&#45;XUCREATED_BY -->
<g id="edge8" class="edge">
<title>TABL&#45;SUID_ST_NODE_CERTMAP&#45;&gt;DTEL&#45;XUCREATED_BY</title>
<path fill="none" stroke="black" d="M705.64,-149.78C615.03,-140.54 485.96,-126.26 364.15,-108.24"/>
<polygon fill="black" stroke="black" points="364.3,-104.73 353.89,-106.72 363.27,-111.65 364.3,-104.73"/>
</g>
<!-- DTEL&#45;SUID_NODE_KEY_HANDLE -->
<g id="node7" class="node">
<title>DTEL&#45;SUID_NODE_KEY_HANDLE</title>
<g id="a_node7"><a xlink:href="./DTEL_SUID_NODE_KEY_HANDLE.html" xlink:title="DTEL&#45;SUID_NODE_KEY_HANDLE">
<polygon fill="none" stroke="yellow" points="606.95,-108 371.45,-108 371.45,-72 606.95,-72 606.95,-108"/>
<text text-anchor="middle" x="489.2" y="-85.8" font-family="Times,serif" font-size="14.00">DTEL&#45;SUID_NODE_KEY_HANDLE</text>
</a>
</g>
</g>
<!-- TABL&#45;SUID_ST_NODE_CERTMAP&#45;&gt;DTEL&#45;SUID_NODE_KEY_HANDLE -->
<g id="edge7" class="edge">
<title>TABL&#45;SUID_ST_NODE_CERTMAP&#45;&gt;DTEL&#45;SUID_NODE_KEY_HANDLE</title>
<path fill="none" stroke="black" d="M741.16,-143.97C692.52,-133.74 630.53,-120.71 580.21,-110.13"/>
<polygon fill="black" stroke="black" points="580.81,-106.68 570.31,-108.05 579.37,-113.53 580.81,-106.68"/>
</g>
<!-- DTEL&#45;SUID_CHANGE_MODE -->
<g id="node8" class="node">
<title>DTEL&#45;SUID_CHANGE_MODE</title>
<g id="a_node8"><a xlink:href="./DTEL_SUID_CHANGE_MODE.html" xlink:title="DTEL&#45;SUID_CHANGE_MODE">
<polygon fill="none" stroke="yellow" points="827.31,-108 625.09,-108 625.09,-72 827.31,-72 827.31,-108"/>
<text text-anchor="middle" x="726.2" y="-85.8" font-family="Times,serif" font-size="14.00">DTEL&#45;SUID_CHANGE_MODE</text>
</a>
</g>
</g>
<!-- TABL&#45;SUID_ST_NODE_CERTMAP&#45;&gt;DTEL&#45;SUID_CHANGE_MODE -->
<g id="edge6" class="edge">
<title>TABL&#45;SUID_ST_NODE_CERTMAP&#45;&gt;DTEL&#45;SUID_CHANGE_MODE</title>
<path fill="none" stroke="black" d="M798.47,-143.7C786.26,-134.8 771.21,-123.82 758.01,-114.2"/>
<polygon fill="black" stroke="black" points="759.8,-111.17 749.66,-108.1 755.67,-116.82 759.8,-111.17"/>
</g>
<!-- DTEL&#45;CERT_ISSUER -->
<g id="node10" class="node">
<title>DTEL&#45;CERT_ISSUER</title>
<g id="a_node10"><a xlink:href="./DTEL_CERT_ISSUER.html" xlink:title="DTEL&#45;CERT_ISSUER">
<polygon fill="none" stroke="yellow" points="993.12,-108 845.27,-108 845.27,-72 993.12,-72 993.12,-108"/>
<text text-anchor="middle" x="919.2" y="-85.8" font-family="Times,serif" font-size="14.00">DTEL&#45;CERT_ISSUER</text>
</a>
</g>
</g>
<!-- TABL&#45;SUID_ST_NODE_CERTMAP&#45;&gt;DTEL&#45;CERT_ISSUER -->
<g id="edge5" class="edge">
<title>TABL&#45;SUID_ST_NODE_CERTMAP&#45;&gt;DTEL&#45;CERT_ISSUER</title>
<path fill="none" stroke="black" d="M846.18,-143.7C858.51,-134.8 873.71,-123.82 887.05,-114.2"/>
<polygon fill="black" stroke="black" points="889.44,-116.79 895.5,-108.1 885.34,-111.12 889.44,-116.79"/>
</g>
<!-- DTEL&#45;CERT_SUBJECT -->
<g id="node12" class="node">
<title>DTEL&#45;CERT_SUBJECT</title>
<g id="a_node12"><a xlink:href="./DTEL_CERT_SUBJECT.html" xlink:title="DTEL&#45;CERT_SUBJECT">
<polygon fill="none" stroke="yellow" points="1169.51,-108 1010.88,-108 1010.88,-72 1169.51,-72 1169.51,-108"/>
<text text-anchor="middle" x="1090.2" y="-85.8" font-family="Times,serif" font-size="14.00">DTEL&#45;CERT_SUBJECT</text>
</a>
</g>
</g>
<!-- TABL&#45;SUID_ST_NODE_CERTMAP&#45;&gt;DTEL&#45;CERT_SUBJECT -->
<g id="edge4" class="edge">
<title>TABL&#45;SUID_ST_NODE_CERTMAP&#45;&gt;DTEL&#45;CERT_SUBJECT</title>
<path fill="none" stroke="black" d="M887.42,-143.97C925.92,-133.91 974.82,-121.14 1014.95,-110.65"/>
<polygon fill="black" stroke="black" points="1015.9,-114.02 1024.69,-108.11 1014.13,-107.25 1015.9,-114.02"/>
</g>
<!-- DTEL&#45;SUID_CERT_ISSUERH -->
<g id="node13" class="node">
<title>DTEL&#45;SUID_CERT_ISSUERH</title>
<g id="a_node13"><a xlink:href="./DTEL_SUID_CERT_ISSUERH.html" xlink:title="DTEL&#45;SUID_CERT_ISSUERH">
<polygon fill="none" stroke="yellow" points="1384.89,-108 1187.51,-108 1187.51,-72 1384.89,-72 1384.89,-108"/>
<text text-anchor="middle" x="1286.2" y="-85.8" font-family="Times,serif" font-size="14.00">DTEL&#45;SUID_CERT_ISSUERH</text>
</a>
</g>
</g>
<!-- TABL&#45;SUID_ST_NODE_CERTMAP&#45;&gt;DTEL&#45;SUID_CERT_ISSUERH -->
<g id="edge3" class="edge">
<title>TABL&#45;SUID_ST_NODE_CERTMAP&#45;&gt;DTEL&#45;SUID_CERT_ISSUERH</title>
<path fill="none" stroke="black" d="M938.07,-144C1005.12,-134.1 1091.38,-121.27 1177.38,-108.12"/>
<polygon fill="black" stroke="black" points="1177.97,-111.57 1187.33,-106.6 1176.91,-104.65 1177.97,-111.57"/>
</g>
<!-- DTEL&#45;SUID_CERT_SUBJECTH -->
<g id="node15" class="node">
<title>DTEL&#45;SUID_CERT_SUBJECTH</title>
<g id="a_node15"><a xlink:href="./DTEL_SUID_CERT_SUBJECTH.html" xlink:title="DTEL&#45;SUID_CERT_SUBJECTH">
<polygon fill="none" stroke="yellow" points="1611.28,-108 1403.12,-108 1403.12,-72 1611.28,-72 1611.28,-108"/>
<text text-anchor="middle" x="1507.2" y="-85.8" font-family="Times,serif" font-size="14.00">DTEL&#45;SUID_CERT_SUBJECTH</text>
</a>
</g>
</g>
<!-- TABL&#45;SUID_ST_NODE_CERTMAP&#45;&gt;DTEL&#45;SUID_CERT_SUBJECTH -->
<g id="edge2" class="edge">
<title>TABL&#45;SUID_ST_NODE_CERTMAP&#45;&gt;DTEL&#45;SUID_CERT_SUBJECTH</title>
<path fill="none" stroke="black" d="M938.53,-152.17C1051.88,-143.12 1229.32,-127.76 1392.63,-108.15"/>
<polygon fill="black" stroke="black" points="1393.36,-111.59 1402.87,-106.92 1392.52,-104.64 1393.36,-111.59"/>
</g>
<!-- DOMA&#45;TZNTSTMPS -->
<g id="node4" class="node">
<title>DOMA&#45;TZNTSTMPS</title>
<g id="a_node4"><a xlink:href="./DOMA_TZNTSTMPS.html" xlink:title="DOMA&#45;TZNTSTMPS">
<polygon fill="none" stroke="yellow" points="155.73,-36 12.66,-36 12.66,0 155.73,0 155.73,-36"/>
<text text-anchor="middle" x="84.2" y="-13.8" font-family="Times,serif" font-size="14.00">DOMA&#45;TZNTSTMPS</text>
</a>
</g>
</g>
<!-- DTEL&#45;XUCREATED_ON&#45;&gt;DOMA&#45;TZNTSTMPS -->
<g id="edge10" class="edge">
<title>DTEL&#45;XUCREATED_ON&#45;&gt;DOMA&#45;TZNTSTMPS</title>
<path fill="none" stroke="black" d="M84.2,-71.7C84.2,-63.98 84.2,-54.71 84.2,-46.11"/>
<polygon fill="black" stroke="black" points="87.7,-46.1 84.2,-36.1 80.7,-46.1 87.7,-46.1"/>
</g>
<!-- DOMA&#45;XUBNAME -->
<g id="node6" class="node">
<title>DOMA&#45;XUBNAME</title>
<g id="a_node6"><a xlink:href="./DOMA_XUBNAME.html" xlink:title="DOMA&#45;XUBNAME">
<polygon fill="none" stroke="yellow" points="337.38,-36 203.01,-36 203.01,0 337.38,0 337.38,-36"/>
<text text-anchor="middle" x="270.2" y="-13.8" font-family="Times,serif" font-size="14.00">DOMA&#45;XUBNAME</text>
</a>
</g>
</g>
<!-- DTEL&#45;XUCREATED_BY&#45;&gt;DOMA&#45;XUBNAME -->
<g id="edge11" class="edge">
<title>DTEL&#45;XUCREATED_BY&#45;&gt;DOMA&#45;XUBNAME</title>
<path fill="none" stroke="black" d="M270.2,-71.7C270.2,-63.98 270.2,-54.71 270.2,-46.11"/>
<polygon fill="black" stroke="black" points="273.7,-46.1 270.2,-36.1 266.7,-46.1 273.7,-46.1"/>
</g>
<!-- DOMA&#45;SUID_CHANGE_MODE -->
<g id="node9" class="node">
<title>DOMA&#45;SUID_CHANGE_MODE</title>
<g id="a_node9"><a xlink:href="./DOMA_SUID_CHANGE_MODE.html" xlink:title="DOMA&#45;SUID_CHANGE_MODE">
<polygon fill="none" stroke="yellow" points="830.81,-36 621.59,-36 621.59,0 830.81,0 830.81,-36"/>
<text text-anchor="middle" x="726.2" y="-13.8" font-family="Times,serif" font-size="14.00">DOMA&#45;SUID_CHANGE_MODE</text>
</a>
</g>
</g>
<!-- DTEL&#45;SUID_CHANGE_MODE&#45;&gt;DOMA&#45;SUID_CHANGE_MODE -->
<g id="edge12" class="edge">
<title>DTEL&#45;SUID_CHANGE_MODE&#45;&gt;DOMA&#45;SUID_CHANGE_MODE</title>
<path fill="none" stroke="black" d="M726.2,-71.7C726.2,-63.98 726.2,-54.71 726.2,-46.11"/>
<polygon fill="black" stroke="black" points="729.7,-46.1 726.2,-36.1 722.7,-46.1 729.7,-46.1"/>
</g>
<!-- DOMA&#45;CERT_STRING -->
<g id="node11" class="node">
<title>DOMA&#45;CERT_STRING</title>
<g id="a_node11"><a xlink:href="./DOMA_CERT_STRING.html" xlink:title="DOMA&#45;CERT_STRING">
<polygon fill="none" stroke="yellow" points="1123.45,-36 966.95,-36 966.95,0 1123.45,0 1123.45,-36"/>
<text text-anchor="middle" x="1045.2" y="-13.8" font-family="Times,serif" font-size="14.00">DOMA&#45;CERT_STRING</text>
</a>
</g>
</g>
<!-- DTEL&#45;CERT_ISSUER&#45;&gt;DOMA&#45;CERT_STRING -->
<g id="edge13" class="edge">
<title>DTEL&#45;CERT_ISSUER&#45;&gt;DOMA&#45;CERT_STRING</title>
<path fill="none" stroke="black" d="M950.02,-71.88C966.65,-62.64 987.36,-51.13 1005.22,-41.21"/>
<polygon fill="black" stroke="black" points="1007.21,-44.11 1014.26,-36.19 1003.81,-37.99 1007.21,-44.11"/>
</g>
<!-- DTEL&#45;CERT_SUBJECT&#45;&gt;DOMA&#45;CERT_STRING -->
<g id="edge14" class="edge">
<title>DTEL&#45;CERT_SUBJECT&#45;&gt;DOMA&#45;CERT_STRING</title>
<path fill="none" stroke="black" d="M1079.07,-71.7C1073.84,-63.56 1067.5,-53.69 1061.72,-44.7"/>
<polygon fill="black" stroke="black" points="1064.55,-42.62 1056.19,-36.1 1058.66,-46.41 1064.55,-42.62"/>
</g>
<!-- DOMA&#45;SUID_SHA1_HASH_CHAR -->
<g id="node14" class="node">
<title>DOMA&#45;SUID_SHA1_HASH_CHAR</title>
<g id="a_node14"><a xlink:href="./DOMA_SUID_SHA1_HASH_CHAR.html" xlink:title="DOMA&#45;SUID_SHA1_HASH_CHAR">
<polygon fill="none" stroke="yellow" points="1444.76,-36 1215.63,-36 1215.63,0 1444.76,0 1444.76,-36"/>
<text text-anchor="middle" x="1330.2" y="-13.8" font-family="Times,serif" font-size="14.00">DOMA&#45;SUID_SHA1_HASH_CHAR</text>
</a>
</g>
</g>
<!-- DTEL&#45;SUID_CERT_ISSUERH&#45;&gt;DOMA&#45;SUID_SHA1_HASH_CHAR -->
<g id="edge15" class="edge">
<title>DTEL&#45;SUID_CERT_ISSUERH&#45;&gt;DOMA&#45;SUID_SHA1_HASH_CHAR</title>
<path fill="none" stroke="black" d="M1297.07,-71.7C1302.19,-63.56 1308.39,-53.69 1314.04,-44.7"/>
<polygon fill="black" stroke="black" points="1317.09,-46.43 1319.45,-36.1 1311.16,-42.71 1317.09,-46.43"/>
</g>
<!-- DTEL&#45;SUID_CERT_SUBJECTH&#45;&gt;DOMA&#45;SUID_SHA1_HASH_CHAR -->
<g id="edge16" class="edge">
<title>DTEL&#45;SUID_CERT_SUBJECTH&#45;&gt;DOMA&#45;SUID_SHA1_HASH_CHAR</title>
<path fill="none" stroke="black" d="M1463.9,-71.88C1439.49,-62.22 1408.8,-50.09 1382.99,-39.88"/>
<polygon fill="black" stroke="black" points="1383.94,-36.49 1373.36,-36.07 1381.37,-43 1383.94,-36.49"/>
</g>
</g>
</svg>
