<?xml version="1.0" encoding="UTF-8" standalone="no"?>
<!DOCTYPE svg PUBLIC "-//W3C//DTD SVG 1.1//EN"
 "http://www.w3.org/Graphics/SVG/1.1/DTD/svg11.dtd">
<!-- Generated by graphviz version 2.47.3 (20210619.1520)
 -->
<!-- Title: G Pages: 1 -->
<svg width="289pt" height="260pt"
 viewBox="0.00 0.00 289.40 260.00" xmlns="http://www.w3.org/2000/svg" xmlns:xlink="http://www.w3.org/1999/xlink">
<g id="graph0" class="graph" transform="scale(1 1) rotate(0) translate(4 256)">
<title>G</title>
<polygon fill="white" stroke="transparent" points="-4,4 -4,-256 285.4,-256 285.4,4 -4,4"/>
<!-- TTYP&#45;CTS_OBJECT_TABLES -->
<g id="node1" class="node">
<title>TTYP&#45;CTS_OBJECT_TABLES</title>
<polygon fill="none" stroke="yellow" points="244.13,-252 45.04,-252 45.04,-216 244.13,-216 244.13,-252"/>
<text text-anchor="middle" x="144.58" y="-229.8" font-family="Times,serif" font-size="14.00">TTYP&#45;CTS_OBJECT_TABLES</text>
</g>
<!-- TABL&#45;CTS_OBJECT_TABLE -->
<g id="node2" class="node">
<title>TABL&#45;CTS_OBJECT_TABLE</title>
<g id="a_node2"><a xlink:href="./TABL_CTS_OBJECT_TABLE.html" xlink:title="TABL&#45;CTS_OBJECT_TABLE">
<polygon fill="none" stroke="yellow" points="241.4,-180 47.77,-180 47.77,-144 241.4,-144 241.4,-180"/>
<text text-anchor="middle" x="144.58" y="-157.8" font-family="Times,serif" font-size="14.00">TABL&#45;CTS_OBJECT_TABLE</text>
</a>
</g>
</g>
<!-- TTYP&#45;CTS_OBJECT_TABLES&#45;&gt;TABL&#45;CTS_OBJECT_TABLE -->
<g id="edge1" class="edge">
<title>TTYP&#45;CTS_OBJECT_TABLES&#45;&gt;TABL&#45;CTS_OBJECT_TABLE</title>
<path fill="none" stroke="black" d="M144.58,-215.7C144.58,-207.98 144.58,-198.71 144.58,-190.11"/>
<polygon fill="black" stroke="black" points="148.08,-190.1 144.58,-180.1 141.08,-190.1 148.08,-190.1"/>
</g>
<!-- DTEL&#45;VIEWNAME -->
<g id="node3" class="node">
<title>DTEL&#45;VIEWNAME</title>
<g id="a_node3"><a xlink:href="./DTEL_VIEWNAME.html" xlink:title="DTEL&#45;VIEWNAME">
<polygon fill="none" stroke="yellow" points="137.75,-108 3.41,-108 3.41,-72 137.75,-72 137.75,-108"/>
<text text-anchor="middle" x="70.58" y="-85.8" font-family="Times,serif" font-size="14.00">DTEL&#45;VIEWNAME</text>
</a>
</g>
</g>
<!-- TABL&#45;CTS_OBJECT_TABLE&#45;&gt;DTEL&#45;VIEWNAME -->
<g id="edge3" class="edge">
<title>TABL&#45;CTS_OBJECT_TABLE&#45;&gt;DTEL&#45;VIEWNAME</title>
<path fill="none" stroke="black" d="M126.29,-143.7C117.15,-135.05 105.94,-124.45 95.98,-115.03"/>
<polygon fill="black" stroke="black" points="98.34,-112.43 88.67,-108.1 93.53,-117.52 98.34,-112.43"/>
</g>
<!-- DTEL&#45;TABNAME -->
<g id="node5" class="node">
<title>DTEL&#45;TABNAME</title>
<g id="a_node5"><a xlink:href="./DTEL_TABNAME.html" xlink:title="DTEL&#45;TABNAME">
<polygon fill="none" stroke="green" points="281.22,-108 155.95,-108 155.95,-72 281.22,-72 281.22,-108"/>
<text text-anchor="middle" x="218.58" y="-85.8" font-family="Times,serif" font-size="14.00">DTEL&#45;TABNAME</text>
</a>
</g>
</g>
<!-- TABL&#45;CTS_OBJECT_TABLE&#45;&gt;DTEL&#45;TABNAME -->
<g id="edge2" class="edge">
<title>TABL&#45;CTS_OBJECT_TABLE&#45;&gt;DTEL&#45;TABNAME</title>
<path fill="none" stroke="black" d="M162.88,-143.7C172.02,-135.05 183.22,-124.45 193.18,-115.03"/>
<polygon fill="black" stroke="black" points="195.64,-117.52 200.5,-108.1 190.83,-112.43 195.64,-117.52"/>
</g>
<!-- DOMA&#45;VIEWNAME -->
<g id="node4" class="node">
<title>DOMA&#45;VIEWNAME</title>
<g id="a_node4"><a xlink:href="./DOMA_VIEWNAME.html" xlink:title="DOMA&#45;VIEWNAME">
<polygon fill="none" stroke="yellow" points="141.25,-36 -0.09,-36 -0.09,0 141.25,0 141.25,-36"/>
<text text-anchor="middle" x="70.58" y="-13.8" font-family="Times,serif" font-size="14.00">DOMA&#45;VIEWNAME</text>
</a>
</g>
</g>
<!-- DTEL&#45;VIEWNAME&#45;&gt;DOMA&#45;VIEWNAME -->
<g id="edge4" class="edge">
<title>DTEL&#45;VIEWNAME&#45;&gt;DOMA&#45;VIEWNAME</title>
<path fill="none" stroke="black" d="M70.58,-71.7C70.58,-63.98 70.58,-54.71 70.58,-46.11"/>
<polygon fill="black" stroke="black" points="74.08,-46.1 70.58,-36.1 67.08,-46.1 74.08,-46.1"/>
</g>
<!-- DOMA&#45;AS4TAB -->
<g id="node6" class="node">
<title>DOMA&#45;AS4TAB</title>
<g id="a_node6"><a xlink:href="./DOMA_AS4TAB.html" xlink:title="DOMA&#45;AS4TAB">
<polygon fill="none" stroke="yellow" points="276.9,-36 160.27,-36 160.27,0 276.9,0 276.9,-36"/>
<text text-anchor="middle" x="218.58" y="-13.8" font-family="Times,serif" font-size="14.00">DOMA&#45;AS4TAB</text>
</a>
</g>
</g>
<!-- DTEL&#45;TABNAME&#45;&gt;DOMA&#45;AS4TAB -->
<g id="edge5" class="edge">
<title>DTEL&#45;TABNAME&#45;&gt;DOMA&#45;AS4TAB</title>
<path fill="none" stroke="black" d="M218.58,-71.7C218.58,-63.98 218.58,-54.71 218.58,-46.11"/>
<polygon fill="black" stroke="black" points="222.08,-46.1 218.58,-36.1 215.08,-46.1 222.08,-46.1"/>
</g>
</g>
</svg>
