<?xml version="1.0" encoding="UTF-8" standalone="no"?>
<!DOCTYPE svg PUBLIC "-//W3C//DTD SVG 1.1//EN"
 "http://www.w3.org/Graphics/SVG/1.1/DTD/svg11.dtd">
<!-- Generated by graphviz version 2.47.3 (20210619.1520)
 -->
<!-- Title: G Pages: 1 -->
<svg width="254pt" height="188pt"
 viewBox="0.00 0.00 254.18 188.00" xmlns="http://www.w3.org/2000/svg" xmlns:xlink="http://www.w3.org/1999/xlink">
<g id="graph0" class="graph" transform="scale(1 1) rotate(0) translate(4 184)">
<title>G</title>
<polygon fill="white" stroke="transparent" points="-4,4 -4,-184 250.18,-184 250.18,4 -4,4"/>
<!-- TTYP&#45;DDSH_TEXTSEARCH_FIELDS -->
<g id="node1" class="node">
<title>TTYP&#45;DDSH_TEXTSEARCH_FIELDS</title>
<polygon fill="none" stroke="yellow" points="246.27,-180 -0.09,-180 -0.09,-144 246.27,-144 246.27,-180"/>
<text text-anchor="middle" x="123.09" y="-157.8" font-family="Times,serif" font-size="14.00">TTYP&#45;DDSH_TEXTSEARCH_FIELDS</text>
</g>
<!-- DTEL&#45;SHLPFIELD -->
<g id="node2" class="node">
<title>DTEL&#45;SHLPFIELD</title>
<g id="a_node2"><a xlink:href="./DTEL_SHLPFIELD.html" xlink:title="DTEL&#45;SHLPFIELD">
<polygon fill="none" stroke="yellow" points="188.4,-108 57.79,-108 57.79,-72 188.4,-72 188.4,-108"/>
<text text-anchor="middle" x="123.09" y="-85.8" font-family="Times,serif" font-size="14.00">DTEL&#45;SHLPFIELD</text>
</a>
</g>
</g>
<!-- TTYP&#45;DDSH_TEXTSEARCH_FIELDS&#45;&gt;DTEL&#45;SHLPFIELD -->
<g id="edge1" class="edge">
<title>TTYP&#45;DDSH_TEXTSEARCH_FIELDS&#45;&gt;DTEL&#45;SHLPFIELD</title>
<path fill="none" stroke="black" d="M123.09,-143.7C123.09,-135.98 123.09,-126.71 123.09,-118.11"/>
<polygon fill="black" stroke="black" points="126.59,-118.1 123.09,-108.1 119.59,-118.1 126.59,-118.1"/>
</g>
<!-- DOMA&#45;FDNAME -->
<g id="node3" class="node">
<title>DOMA&#45;FDNAME</title>
<g id="a_node3"><a xlink:href="./DOMA_FDNAME.html" xlink:title="DOMA&#45;FDNAME">
<polygon fill="none" stroke="yellow" points="184.12,-36 62.06,-36 62.06,0 184.12,0 184.12,-36"/>
<text text-anchor="middle" x="123.09" y="-13.8" font-family="Times,serif" font-size="14.00">DOMA&#45;FDNAME</text>
</a>
</g>
</g>
<!-- DTEL&#45;SHLPFIELD&#45;&gt;DOMA&#45;FDNAME -->
<g id="edge2" class="edge">
<title>DTEL&#45;SHLPFIELD&#45;&gt;DOMA&#45;FDNAME</title>
<path fill="none" stroke="black" d="M123.09,-71.7C123.09,-63.98 123.09,-54.71 123.09,-46.11"/>
<polygon fill="black" stroke="black" points="126.59,-46.1 123.09,-36.1 119.59,-46.1 126.59,-46.1"/>
</g>
</g>
</svg>
