<?xml version="1.0" encoding="UTF-8" standalone="no"?>
<!DOCTYPE svg PUBLIC "-//W3C//DTD SVG 1.1//EN"
 "http://www.w3.org/Graphics/SVG/1.1/DTD/svg11.dtd">
<!-- Generated by graphviz version 2.47.3 (20210619.1520)
 -->
<!-- Title: G Pages: 1 -->
<svg width="1949pt" height="404pt"
 viewBox="0.00 0.00 1949.14 404.00" xmlns="http://www.w3.org/2000/svg" xmlns:xlink="http://www.w3.org/1999/xlink">
<g id="graph0" class="graph" transform="scale(1 1) rotate(0) translate(4 400)">
<title>G</title>
<polygon fill="white" stroke="transparent" points="-4,4 -4,-400 1945.14,-400 1945.14,4 -4,4"/>
<!-- TTYP&#45;ADDRT_REMOTE_MAIL_ADDRESS -->
<g id="node1" class="node">
<title>TTYP&#45;ADDRT_REMOTE_MAIL_ADDRESS</title>
<polygon fill="none" stroke="yellow" points="1160.21,-396 878.31,-396 878.31,-360 1160.21,-360 1160.21,-396"/>
<text text-anchor="middle" x="1019.26" y="-373.8" font-family="Times,serif" font-size="14.00">TTYP&#45;ADDRT_REMOTE_MAIL_ADDRESS</text>
</g>
<!-- TABL&#45;ADDRS_REMOTE_MAIL_ADDRESS -->
<g id="node2" class="node">
<title>TABL&#45;ADDRS_REMOTE_MAIL_ADDRESS</title>
<g id="a_node2"><a xlink:href="./TABL_ADDRS_REMOTE_MAIL_ADDRESS.html" xlink:title="TABL&#45;ADDRS_REMOTE_MAIL_ADDRESS">
<polygon fill="none" stroke="yellow" points="1160.49,-324 878.03,-324 878.03,-288 1160.49,-288 1160.49,-324"/>
<text text-anchor="middle" x="1019.26" y="-301.8" font-family="Times,serif" font-size="14.00">TABL&#45;ADDRS_REMOTE_MAIL_ADDRESS</text>
</a>
</g>
</g>
<!-- TTYP&#45;ADDRT_REMOTE_MAIL_ADDRESS&#45;&gt;TABL&#45;ADDRS_REMOTE_MAIL_ADDRESS -->
<g id="edge1" class="edge">
<title>TTYP&#45;ADDRT_REMOTE_MAIL_ADDRESS&#45;&gt;TABL&#45;ADDRS_REMOTE_MAIL_ADDRESS</title>
<path fill="none" stroke="black" d="M1019.26,-359.7C1019.26,-351.98 1019.26,-342.71 1019.26,-334.11"/>
<polygon fill="black" stroke="black" points="1022.76,-334.1 1019.26,-324.1 1015.76,-334.1 1022.76,-334.1"/>
</g>
<!-- DTEL&#45;AD_OP_CODE -->
<g id="node3" class="node">
<title>DTEL&#45;AD_OP_CODE</title>
<g id="a_node3"><a xlink:href="./DTEL_AD_OP_CODE.html" xlink:title="DTEL&#45;AD_OP_CODE">
<polygon fill="none" stroke="yellow" points="434.39,-108 288.13,-108 288.13,-72 434.39,-72 434.39,-108"/>
<text text-anchor="middle" x="361.26" y="-85.8" font-family="Times,serif" font-size="14.00">DTEL&#45;AD_OP_CODE</text>
</a>
</g>
</g>
<!-- TABL&#45;ADDRS_REMOTE_MAIL_ADDRESS&#45;&gt;DTEL&#45;AD_OP_CODE -->
<g id="edge13" class="edge">
<title>TABL&#45;ADDRS_REMOTE_MAIL_ADDRESS&#45;&gt;DTEL&#45;AD_OP_CODE</title>
<path fill="none" stroke="black" d="M877.91,-295.97C761,-287.26 604.85,-272.39 545.26,-252 487.13,-232.11 472.62,-221.44 427.26,-180 407,-161.49 388.83,-135.97 376.7,-117.01"/>
<polygon fill="black" stroke="black" points="379.52,-114.91 371.26,-108.28 373.58,-118.62 379.52,-114.91"/>
</g>
<!-- TTYP&#45;ADDRT_COMMUNICATION_DATA_USAGE -->
<g id="node5" class="node">
<title>TTYP&#45;ADDRT_COMMUNICATION_DATA_USAGE</title>
<g id="a_node5"><a xlink:href="./TTYP_ADDRT_COMMUNICATION_DATA_USAGE.html" xlink:title="TTYP&#45;ADDRT_COMMUNICATION_DATA_USAGE">
<polygon fill="none" stroke="yellow" points="934.73,-252 601.79,-252 601.79,-216 934.73,-216 934.73,-252"/>
<text text-anchor="middle" x="768.26" y="-229.8" font-family="Times,serif" font-size="14.00">TTYP&#45;ADDRT_COMMUNICATION_DATA_USAGE</text>
</a>
</g>
</g>
<!-- TABL&#45;ADDRS_REMOTE_MAIL_ADDRESS&#45;&gt;TTYP&#45;ADDRT_COMMUNICATION_DATA_USAGE -->
<g id="edge12" class="edge">
<title>TABL&#45;ADDRS_REMOTE_MAIL_ADDRESS&#45;&gt;TTYP&#45;ADDRT_COMMUNICATION_DATA_USAGE</title>
<path fill="none" stroke="black" d="M958.18,-287.97C922.35,-277.97 876.9,-265.3 839.45,-254.85"/>
<polygon fill="black" stroke="black" points="840.19,-251.43 829.62,-252.11 838.31,-258.17 840.19,-251.43"/>
</g>
<!-- DTEL&#45;ADDR_NODE_ID -->
<g id="node7" class="node">
<title>DTEL&#45;ADDR_NODE_ID</title>
<g id="a_node7"><a xlink:href="./DTEL_ADDR_NODE_ID.html" xlink:title="DTEL&#45;ADDR_NODE_ID">
<polygon fill="none" stroke="yellow" points="975.98,-108 812.54,-108 812.54,-72 975.98,-72 975.98,-108"/>
<text text-anchor="middle" x="894.26" y="-85.8" font-family="Times,serif" font-size="14.00">DTEL&#45;ADDR_NODE_ID</text>
</a>
</g>
</g>
<!-- TABL&#45;ADDRS_REMOTE_MAIL_ADDRESS&#45;&gt;DTEL&#45;ADDR_NODE_ID -->
<g id="edge2" class="edge">
<title>TABL&#45;ADDRS_REMOTE_MAIL_ADDRESS&#45;&gt;DTEL&#45;ADDR_NODE_ID</title>
<path fill="none" stroke="black" d="M1013.08,-287.64C1001.79,-257.1 975.94,-192.42 943.26,-144 936.61,-134.14 928.15,-124.3 920.14,-115.83"/>
<polygon fill="black" stroke="black" points="922.46,-113.19 912.98,-108.47 917.44,-118.08 922.46,-113.19"/>
</g>
<!-- DTEL&#45;AD_VALFROM -->
<g id="node11" class="node">
<title>DTEL&#45;AD_VALFROM</title>
<g id="a_node11"><a xlink:href="./DTEL_AD_VALFROM.html" xlink:title="DTEL&#45;AD_VALFROM">
<polygon fill="none" stroke="yellow" points="1146.34,-108 994.19,-108 994.19,-72 1146.34,-72 1146.34,-108"/>
<text text-anchor="middle" x="1070.26" y="-85.8" font-family="Times,serif" font-size="14.00">DTEL&#45;AD_VALFROM</text>
</a>
</g>
</g>
<!-- TABL&#45;ADDRS_REMOTE_MAIL_ADDRESS&#45;&gt;DTEL&#45;AD_VALFROM -->
<g id="edge8" class="edge">
<title>TABL&#45;ADDRS_REMOTE_MAIL_ADDRESS&#45;&gt;DTEL&#45;AD_VALFROM</title>
<path fill="none" stroke="black" d="M1016.15,-287.8C1011.46,-257.52 1005,-193.22 1024.26,-144 1028.3,-133.68 1035.27,-124.01 1042.59,-115.82"/>
<polygon fill="black" stroke="black" points="1045.24,-118.1 1049.62,-108.45 1040.18,-113.27 1045.24,-118.1"/>
</g>
<!-- DTEL&#45;AD_VALTO -->
<g id="node13" class="node">
<title>DTEL&#45;AD_VALTO</title>
<g id="a_node13"><a xlink:href="./DTEL_AD_VALTO.html" xlink:title="DTEL&#45;AD_VALTO">
<polygon fill="none" stroke="yellow" points="1295.82,-108 1164.7,-108 1164.7,-72 1295.82,-72 1295.82,-108"/>
<text text-anchor="middle" x="1230.26" y="-85.8" font-family="Times,serif" font-size="14.00">DTEL&#45;AD_VALTO</text>
</a>
</g>
</g>
<!-- TABL&#45;ADDRS_REMOTE_MAIL_ADDRESS&#45;&gt;DTEL&#45;AD_VALTO -->
<g id="edge9" class="edge">
<title>TABL&#45;ADDRS_REMOTE_MAIL_ADDRESS&#45;&gt;DTEL&#45;AD_VALTO</title>
<path fill="none" stroke="black" d="M1023.07,-287.97C1031.26,-255.29 1053.6,-183.53 1099.26,-144 1115.28,-130.13 1135.4,-119.59 1155.03,-111.7"/>
<polygon fill="black" stroke="black" points="1156.52,-114.88 1164.61,-108.04 1154.02,-108.34 1156.52,-114.88"/>
</g>
<!-- TTYP&#45;ADDRT_COMMUNICATION_DATA_NOTE -->
<g id="node17" class="node">
<title>TTYP&#45;ADDRT_COMMUNICATION_DATA_NOTE</title>
<g id="a_node17"><a xlink:href="./TTYP_ADDRT_COMMUNICATION_DATA_NOTE.html" xlink:title="TTYP&#45;ADDRT_COMMUNICATION_DATA_NOTE">
<polygon fill="none" stroke="yellow" points="379.89,-252 56.63,-252 56.63,-216 379.89,-216 379.89,-252"/>
<text text-anchor="middle" x="218.26" y="-229.8" font-family="Times,serif" font-size="14.00">TTYP&#45;ADDRT_COMMUNICATION_DATA_NOTE</text>
</a>
</g>
</g>
<!-- TABL&#45;ADDRS_REMOTE_MAIL_ADDRESS&#45;&gt;TTYP&#45;ADDRT_COMMUNICATION_DATA_NOTE -->
<g id="edge11" class="edge">
<title>TABL&#45;ADDRS_REMOTE_MAIL_ADDRESS&#45;&gt;TTYP&#45;ADDRT_COMMUNICATION_DATA_NOTE</title>
<path fill="none" stroke="black" d="M877.73,-293.47C751.03,-283.04 560.19,-267.05 394.26,-252 392.93,-251.88 391.59,-251.76 390.25,-251.64"/>
<polygon fill="black" stroke="black" points="390.13,-248.11 379.86,-250.68 389.5,-255.08 390.13,-248.11"/>
</g>
<!-- TTYP&#45;ADDRT_CHANGED_FIELDS -->
<g id="node23" class="node">
<title>TTYP&#45;ADDRT_CHANGED_FIELDS</title>
<g id="a_node23"><a xlink:href="./TTYP_ADDRT_CHANGED_FIELDS.html" xlink:title="TTYP&#45;ADDRT_CHANGED_FIELDS">
<polygon fill="none" stroke="yellow" points="1299.98,-252 1066.54,-252 1066.54,-216 1299.98,-216 1299.98,-252"/>
<text text-anchor="middle" x="1183.26" y="-229.8" font-family="Times,serif" font-size="14.00">TTYP&#45;ADDRT_CHANGED_FIELDS</text>
</a>
</g>
</g>
<!-- TABL&#45;ADDRS_REMOTE_MAIL_ADDRESS&#45;&gt;TTYP&#45;ADDRT_CHANGED_FIELDS -->
<g id="edge10" class="edge">
<title>TABL&#45;ADDRS_REMOTE_MAIL_ADDRESS&#45;&gt;TTYP&#45;ADDRT_CHANGED_FIELDS</title>
<path fill="none" stroke="black" d="M1059.38,-287.88C1081.9,-278.26 1110.18,-266.19 1134.03,-256.01"/>
<polygon fill="black" stroke="black" points="1135.45,-259.21 1143.27,-252.07 1132.7,-252.77 1135.45,-259.21"/>
</g>
<!-- DTEL&#45;AD_UNAME -->
<g id="node26" class="node">
<title>DTEL&#45;AD_UNAME</title>
<g id="a_node26"><a xlink:href="./DTEL_AD_UNAME.html" xlink:title="DTEL&#45;AD_UNAME">
<polygon fill="none" stroke="yellow" points="1452.72,-252 1317.81,-252 1317.81,-216 1452.72,-216 1452.72,-252"/>
<text text-anchor="middle" x="1385.26" y="-229.8" font-family="Times,serif" font-size="14.00">DTEL&#45;AD_UNAME</text>
</a>
</g>
</g>
<!-- TABL&#45;ADDRS_REMOTE_MAIL_ADDRESS&#45;&gt;DTEL&#45;AD_UNAME -->
<g id="edge7" class="edge">
<title>TABL&#45;ADDRS_REMOTE_MAIL_ADDRESS&#45;&gt;DTEL&#45;AD_UNAME</title>
<path fill="none" stroke="black" d="M1117.77,-287.99C1171.34,-278.5 1239,-266.14 1307.62,-252.3"/>
<polygon fill="black" stroke="black" points="1308.64,-255.66 1317.75,-250.25 1307.25,-248.8 1308.64,-255.66"/>
</g>
<!-- DTEL&#45;AD_UMAND -->
<g id="node28" class="node">
<title>DTEL&#45;AD_UMAND</title>
<g id="a_node28"><a xlink:href="./DTEL_AD_UMAND.html" xlink:title="DTEL&#45;AD_UMAND">
<polygon fill="none" stroke="yellow" points="1607.27,-252 1471.25,-252 1471.25,-216 1607.27,-216 1607.27,-252"/>
<text text-anchor="middle" x="1539.26" y="-229.8" font-family="Times,serif" font-size="14.00">DTEL&#45;AD_UMAND</text>
</a>
</g>
</g>
<!-- TABL&#45;ADDRS_REMOTE_MAIL_ADDRESS&#45;&gt;DTEL&#45;AD_UMAND -->
<g id="edge6" class="edge">
<title>TABL&#45;ADDRS_REMOTE_MAIL_ADDRESS&#45;&gt;DTEL&#45;AD_UMAND</title>
<path fill="none" stroke="black" d="M1160.59,-291.52C1244.96,-282.64 1354.38,-269.67 1460.88,-251.97"/>
<polygon fill="black" stroke="black" points="1461.57,-255.4 1470.85,-250.3 1460.41,-248.5 1461.57,-255.4"/>
</g>
<!-- DTEL&#45;AD_RCVRTYP -->
<g id="node30" class="node">
<title>DTEL&#45;AD_RCVRTYP</title>
<g id="a_node30"><a xlink:href="./DTEL_AD_RCVRTYP.html" xlink:title="DTEL&#45;AD_RCVRTYP">
<polygon fill="none" stroke="yellow" points="1773.46,-252 1625.06,-252 1625.06,-216 1773.46,-216 1773.46,-252"/>
<text text-anchor="middle" x="1699.26" y="-229.8" font-family="Times,serif" font-size="14.00">DTEL&#45;AD_RCVRTYP</text>
</a>
</g>
</g>
<!-- TABL&#45;ADDRS_REMOTE_MAIL_ADDRESS&#45;&gt;DTEL&#45;AD_RCVRTYP -->
<g id="edge5" class="edge">
<title>TABL&#45;ADDRS_REMOTE_MAIL_ADDRESS&#45;&gt;DTEL&#45;AD_RCVRTYP</title>
<path fill="none" stroke="black" d="M1160.62,-296.99C1279.43,-289.19 1453.85,-275.28 1615.02,-252.09"/>
<polygon fill="black" stroke="black" points="1615.73,-255.52 1625.12,-250.62 1614.72,-248.59 1615.73,-255.52"/>
</g>
<!-- DTEL&#45;AD_SYMBDST -->
<g id="node32" class="node">
<title>DTEL&#45;AD_SYMBDST</title>
<g id="a_node32"><a xlink:href="./DTEL_AD_SYMBDST.html" xlink:title="DTEL&#45;AD_SYMBDST">
<polygon fill="none" stroke="yellow" points="1941.01,-252 1791.51,-252 1791.51,-216 1941.01,-216 1941.01,-252"/>
<text text-anchor="middle" x="1866.26" y="-229.8" font-family="Times,serif" font-size="14.00">DTEL&#45;AD_SYMBDST</text>
</a>
</g>
</g>
<!-- TABL&#45;ADDRS_REMOTE_MAIL_ADDRESS&#45;&gt;DTEL&#45;AD_SYMBDST -->
<g id="edge4" class="edge">
<title>TABL&#45;ADDRS_REMOTE_MAIL_ADDRESS&#45;&gt;DTEL&#45;AD_SYMBDST</title>
<path fill="none" stroke="black" d="M1160.8,-300.69C1312.08,-294.81 1559.01,-281.59 1781.02,-252.06"/>
<polygon fill="black" stroke="black" points="1781.79,-255.49 1791.24,-250.69 1780.86,-248.55 1781.79,-255.49"/>
</g>
<!-- DTEL&#45;AD_FLNOUSE -->
<g id="node34" class="node">
<title>DTEL&#45;AD_FLNOUSE</title>
<g id="a_node34"><a xlink:href="./DTEL_AD_FLNOUSE.html" xlink:title="DTEL&#45;AD_FLNOUSE">
<polygon fill="none" stroke="yellow" points="582.39,-180 436.13,-180 436.13,-144 582.39,-144 582.39,-180"/>
<text text-anchor="middle" x="509.26" y="-157.8" font-family="Times,serif" font-size="14.00">DTEL&#45;AD_FLNOUSE</text>
</a>
</g>
</g>
<!-- TABL&#45;ADDRS_REMOTE_MAIL_ADDRESS&#45;&gt;DTEL&#45;AD_FLNOUSE -->
<g id="edge3" class="edge">
<title>TABL&#45;ADDRS_REMOTE_MAIL_ADDRESS&#45;&gt;DTEL&#45;AD_FLNOUSE</title>
<path fill="none" stroke="black" d="M877.78,-297.67C773.53,-290.37 641.79,-276.59 593.26,-252 564.74,-237.55 540.72,-209.33 525.77,-188.52"/>
<polygon fill="black" stroke="black" points="528.51,-186.34 519.93,-180.12 522.76,-190.33 528.51,-186.34"/>
</g>
<!-- DOMA&#45;AD_OP_CODE -->
<g id="node4" class="node">
<title>DOMA&#45;AD_OP_CODE</title>
<g id="a_node4"><a xlink:href="./DOMA_AD_OP_CODE.html" xlink:title="DOMA&#45;AD_OP_CODE">
<polygon fill="none" stroke="yellow" points="439.89,-36 286.63,-36 286.63,0 439.89,0 439.89,-36"/>
<text text-anchor="middle" x="363.26" y="-13.8" font-family="Times,serif" font-size="14.00">DOMA&#45;AD_OP_CODE</text>
</a>
</g>
</g>
<!-- DTEL&#45;AD_OP_CODE&#45;&gt;DOMA&#45;AD_OP_CODE -->
<g id="edge14" class="edge">
<title>DTEL&#45;AD_OP_CODE&#45;&gt;DOMA&#45;AD_OP_CODE</title>
<path fill="none" stroke="black" d="M361.76,-71.7C361.98,-63.98 362.24,-54.71 362.49,-46.11"/>
<polygon fill="black" stroke="black" points="365.99,-46.2 362.77,-36.1 358.99,-46 365.99,-46.2"/>
</g>
<!-- TABL&#45;ADDRS_COMMUNICATION_DATA_USAGE -->
<g id="node6" class="node">
<title>TABL&#45;ADDRS_COMMUNICATION_DATA_USAGE</title>
<g id="a_node6"><a xlink:href="./TABL_ADDRS_COMMUNICATION_DATA_USAGE.html" xlink:title="TABL&#45;ADDRS_COMMUNICATION_DATA_USAGE">
<polygon fill="none" stroke="yellow" points="934.01,-180 600.51,-180 600.51,-144 934.01,-144 934.01,-180"/>
<text text-anchor="middle" x="767.26" y="-157.8" font-family="Times,serif" font-size="14.00">TABL&#45;ADDRS_COMMUNICATION_DATA_USAGE</text>
</a>
</g>
</g>
<!-- TTYP&#45;ADDRT_COMMUNICATION_DATA_USAGE&#45;&gt;TABL&#45;ADDRS_COMMUNICATION_DATA_USAGE -->
<g id="edge15" class="edge">
<title>TTYP&#45;ADDRT_COMMUNICATION_DATA_USAGE&#45;&gt;TABL&#45;ADDRS_COMMUNICATION_DATA_USAGE</title>
<path fill="none" stroke="black" d="M768.01,-215.7C767.9,-207.98 767.77,-198.71 767.65,-190.11"/>
<polygon fill="black" stroke="black" points="771.15,-190.05 767.51,-180.1 764.15,-190.15 771.15,-190.05"/>
</g>
<!-- TABL&#45;ADDRS_COMMUNICATION_DATA_USAGE&#45;&gt;DTEL&#45;AD_OP_CODE -->
<g id="edge21" class="edge">
<title>TABL&#45;ADDRS_COMMUNICATION_DATA_USAGE&#45;&gt;DTEL&#45;AD_OP_CODE</title>
<path fill="none" stroke="black" d="M668.46,-143.97C599.95,-132.15 509.71,-116.6 444.79,-105.4"/>
<polygon fill="black" stroke="black" points="445.04,-101.89 434.59,-103.64 443.85,-108.79 445.04,-101.89"/>
</g>
<!-- TABL&#45;ADDRS_COMMUNICATION_DATA_USAGE&#45;&gt;DTEL&#45;ADDR_NODE_ID -->
<g id="edge20" class="edge">
<title>TABL&#45;ADDRS_COMMUNICATION_DATA_USAGE&#45;&gt;DTEL&#45;ADDR_NODE_ID</title>
<path fill="none" stroke="black" d="M798.33,-143.88C815.09,-134.64 835.97,-123.13 853.96,-113.21"/>
<polygon fill="black" stroke="black" points="856.01,-116.08 863.07,-108.19 852.63,-109.95 856.01,-116.08"/>
</g>
<!-- DTEL&#45;AD_CDEFUSE -->
<g id="node9" class="node">
<title>DTEL&#45;AD_CDEFUSE</title>
<g id="a_node9"><a xlink:href="./DTEL_AD_CDEFUSE.html" xlink:title="DTEL&#45;AD_CDEFUSE">
<polygon fill="none" stroke="yellow" points="636.12,-108 490.4,-108 490.4,-72 636.12,-72 636.12,-108"/>
<text text-anchor="middle" x="563.26" y="-85.8" font-family="Times,serif" font-size="14.00">DTEL&#45;AD_CDEFUSE</text>
</a>
</g>
</g>
<!-- TABL&#45;ADDRS_COMMUNICATION_DATA_USAGE&#45;&gt;DTEL&#45;AD_CDEFUSE -->
<g id="edge19" class="edge">
<title>TABL&#45;ADDRS_COMMUNICATION_DATA_USAGE&#45;&gt;DTEL&#45;AD_CDEFUSE</title>
<path fill="none" stroke="black" d="M717.62,-143.97C688.99,-134.14 652.81,-121.73 622.68,-111.39"/>
<polygon fill="black" stroke="black" points="623.72,-108.05 613.13,-108.11 621.45,-114.67 623.72,-108.05"/>
</g>
<!-- TABL&#45;ADDRS_COMMUNICATION_DATA_USAGE&#45;&gt;DTEL&#45;AD_VALFROM -->
<g id="edge18" class="edge">
<title>TABL&#45;ADDRS_COMMUNICATION_DATA_USAGE&#45;&gt;DTEL&#45;AD_VALFROM</title>
<path fill="none" stroke="black" d="M841,-143.97C884.98,-133.8 940.96,-120.87 986.59,-110.33"/>
<polygon fill="black" stroke="black" points="987.5,-113.71 996.46,-108.05 985.93,-106.89 987.5,-113.71"/>
</g>
<!-- TABL&#45;ADDRS_COMMUNICATION_DATA_USAGE&#45;&gt;DTEL&#45;AD_VALTO -->
<g id="edge17" class="edge">
<title>TABL&#45;ADDRS_COMMUNICATION_DATA_USAGE&#45;&gt;DTEL&#45;AD_VALTO</title>
<path fill="none" stroke="black" d="M914.21,-143.99C984.27,-135.13 1069.4,-123.29 1154.62,-108.03"/>
<polygon fill="black" stroke="black" points="1155.26,-111.47 1164.48,-106.25 1154.01,-104.58 1155.26,-111.47"/>
</g>
<!-- DTEL&#45;AD_CUSAGE -->
<g id="node15" class="node">
<title>DTEL&#45;AD_CUSAGE</title>
<g id="a_node15"><a xlink:href="./DTEL_AD_CUSAGE.html" xlink:title="DTEL&#45;AD_CUSAGE">
<polygon fill="none" stroke="yellow" points="793.89,-108 654.63,-108 654.63,-72 793.89,-72 793.89,-108"/>
<text text-anchor="middle" x="724.26" y="-85.8" font-family="Times,serif" font-size="14.00">DTEL&#45;AD_CUSAGE</text>
</a>
</g>
</g>
<!-- TABL&#45;ADDRS_COMMUNICATION_DATA_USAGE&#45;&gt;DTEL&#45;AD_CUSAGE -->
<g id="edge16" class="edge">
<title>TABL&#45;ADDRS_COMMUNICATION_DATA_USAGE&#45;&gt;DTEL&#45;AD_CUSAGE</title>
<path fill="none" stroke="black" d="M756.63,-143.7C751.63,-135.56 745.57,-125.69 740.05,-116.7"/>
<polygon fill="black" stroke="black" points="742.98,-114.79 734.77,-108.1 737.02,-118.46 742.98,-114.79"/>
</g>
<!-- DOMA&#45;ADDR_NODE_ID -->
<g id="node8" class="node">
<title>DOMA&#45;ADDR_NODE_ID</title>
<g id="a_node8"><a xlink:href="./DOMA_ADDR_NODE_ID.html" xlink:title="DOMA&#45;ADDR_NODE_ID">
<polygon fill="none" stroke="yellow" points="982.48,-36 812.04,-36 812.04,0 982.48,0 982.48,-36"/>
<text text-anchor="middle" x="897.26" y="-13.8" font-family="Times,serif" font-size="14.00">DOMA&#45;ADDR_NODE_ID</text>
</a>
</g>
</g>
<!-- DTEL&#45;ADDR_NODE_ID&#45;&gt;DOMA&#45;ADDR_NODE_ID -->
<g id="edge22" class="edge">
<title>DTEL&#45;ADDR_NODE_ID&#45;&gt;DOMA&#45;ADDR_NODE_ID</title>
<path fill="none" stroke="black" d="M895,-71.7C895.33,-63.98 895.73,-54.71 896.1,-46.11"/>
<polygon fill="black" stroke="black" points="899.6,-46.25 896.53,-36.1 892.6,-45.95 899.6,-46.25"/>
</g>
<!-- DOMA&#45;XFELD -->
<g id="node10" class="node">
<title>DOMA&#45;XFELD</title>
<g id="a_node10"><a xlink:href="./DOMA_XFELD.html" xlink:title="DOMA&#45;XFELD">
<polygon fill="none" stroke="yellow" points="591.29,-36 483.23,-36 483.23,0 591.29,0 591.29,-36"/>
<text text-anchor="middle" x="537.26" y="-13.8" font-family="Times,serif" font-size="14.00">DOMA&#45;XFELD</text>
</a>
</g>
</g>
<!-- DTEL&#45;AD_CDEFUSE&#45;&gt;DOMA&#45;XFELD -->
<g id="edge23" class="edge">
<title>DTEL&#45;AD_CDEFUSE&#45;&gt;DOMA&#45;XFELD</title>
<path fill="none" stroke="black" d="M556.83,-71.7C553.91,-63.81 550.37,-54.3 547.12,-45.55"/>
<polygon fill="black" stroke="black" points="550.38,-44.26 543.61,-36.1 543.81,-46.7 550.38,-44.26"/>
</g>
<!-- DOMA&#45;TIMESTMP -->
<g id="node12" class="node">
<title>DOMA&#45;TIMESTMP</title>
<g id="a_node12"><a xlink:href="./DOMA_TIMESTMP.html" xlink:title="DOMA&#45;TIMESTMP">
<polygon fill="none" stroke="yellow" points="1137.46,-36 1003.06,-36 1003.06,0 1137.46,0 1137.46,-36"/>
<text text-anchor="middle" x="1070.26" y="-13.8" font-family="Times,serif" font-size="14.00">DOMA&#45;TIMESTMP</text>
</a>
</g>
</g>
<!-- DTEL&#45;AD_VALFROM&#45;&gt;DOMA&#45;TIMESTMP -->
<g id="edge24" class="edge">
<title>DTEL&#45;AD_VALFROM&#45;&gt;DOMA&#45;TIMESTMP</title>
<path fill="none" stroke="black" d="M1070.26,-71.7C1070.26,-63.98 1070.26,-54.71 1070.26,-46.11"/>
<polygon fill="black" stroke="black" points="1073.76,-46.1 1070.26,-36.1 1066.76,-46.1 1073.76,-46.1"/>
</g>
<!-- DOMA&#45;TIMESTAMP -->
<g id="node14" class="node">
<title>DOMA&#45;TIMESTAMP</title>
<g id="a_node14"><a xlink:href="./DOMA_TIMESTAMP.html" xlink:title="DOMA&#45;TIMESTAMP">
<polygon fill="none" stroke="yellow" points="1302.57,-36 1157.96,-36 1157.96,0 1302.57,0 1302.57,-36"/>
<text text-anchor="middle" x="1230.26" y="-13.8" font-family="Times,serif" font-size="14.00">DOMA&#45;TIMESTAMP</text>
</a>
</g>
</g>
<!-- DTEL&#45;AD_VALTO&#45;&gt;DOMA&#45;TIMESTAMP -->
<g id="edge25" class="edge">
<title>DTEL&#45;AD_VALTO&#45;&gt;DOMA&#45;TIMESTAMP</title>
<path fill="none" stroke="black" d="M1230.26,-71.7C1230.26,-63.98 1230.26,-54.71 1230.26,-46.11"/>
<polygon fill="black" stroke="black" points="1233.76,-46.1 1230.26,-36.1 1226.76,-46.1 1233.76,-46.1"/>
</g>
<!-- DOMA&#45;AD_CUSAGE -->
<g id="node16" class="node">
<title>DOMA&#45;AD_CUSAGE</title>
<g id="a_node16"><a xlink:href="./DOMA_AD_CUSAGE.html" xlink:title="DOMA&#45;AD_CUSAGE">
<polygon fill="none" stroke="yellow" points="793.39,-36 647.13,-36 647.13,0 793.39,0 793.39,-36"/>
<text text-anchor="middle" x="720.26" y="-13.8" font-family="Times,serif" font-size="14.00">DOMA&#45;AD_CUSAGE</text>
</a>
</g>
</g>
<!-- DTEL&#45;AD_CUSAGE&#45;&gt;DOMA&#45;AD_CUSAGE -->
<g id="edge26" class="edge">
<title>DTEL&#45;AD_CUSAGE&#45;&gt;DOMA&#45;AD_CUSAGE</title>
<path fill="none" stroke="black" d="M723.27,-71.7C722.83,-63.98 722.3,-54.71 721.81,-46.11"/>
<polygon fill="black" stroke="black" points="725.3,-45.89 721.24,-36.1 718.31,-46.29 725.3,-45.89"/>
</g>
<!-- TABL&#45;ADDRS_COMMUNICATION_DATA_NOTE -->
<g id="node18" class="node">
<title>TABL&#45;ADDRS_COMMUNICATION_DATA_NOTE</title>
<g id="a_node18"><a xlink:href="./TABL_ADDRS_COMMUNICATION_DATA_NOTE.html" xlink:title="TABL&#45;ADDRS_COMMUNICATION_DATA_NOTE">
<polygon fill="none" stroke="yellow" points="380.18,-180 56.35,-180 56.35,-144 380.18,-144 380.18,-180"/>
<text text-anchor="middle" x="218.26" y="-157.8" font-family="Times,serif" font-size="14.00">TABL&#45;ADDRS_COMMUNICATION_DATA_NOTE</text>
</a>
</g>
</g>
<!-- TTYP&#45;ADDRT_COMMUNICATION_DATA_NOTE&#45;&gt;TABL&#45;ADDRS_COMMUNICATION_DATA_NOTE -->
<g id="edge27" class="edge">
<title>TTYP&#45;ADDRT_COMMUNICATION_DATA_NOTE&#45;&gt;TABL&#45;ADDRS_COMMUNICATION_DATA_NOTE</title>
<path fill="none" stroke="black" d="M218.26,-215.7C218.26,-207.98 218.26,-198.71 218.26,-190.11"/>
<polygon fill="black" stroke="black" points="221.76,-190.1 218.26,-180.1 214.76,-190.1 221.76,-190.1"/>
</g>
<!-- TABL&#45;ADDRS_COMMUNICATION_DATA_NOTE&#45;&gt;DTEL&#45;AD_OP_CODE -->
<g id="edge30" class="edge">
<title>TABL&#45;ADDRS_COMMUNICATION_DATA_NOTE&#45;&gt;DTEL&#45;AD_OP_CODE</title>
<path fill="none" stroke="black" d="M253.24,-143.88C272.46,-134.47 296.49,-122.71 317,-112.67"/>
<polygon fill="black" stroke="black" points="318.7,-115.73 326.14,-108.19 315.62,-109.44 318.7,-115.73"/>
</g>
<!-- DTEL&#45;AD_REMARK2 -->
<g id="node19" class="node">
<title>DTEL&#45;AD_REMARK2</title>
<g id="a_node19"><a xlink:href="./DTEL_AD_REMARK2.html" xlink:title="DTEL&#45;AD_REMARK2">
<polygon fill="none" stroke="yellow" points="150.28,-108 0.24,-108 0.24,-72 150.28,-72 150.28,-108"/>
<text text-anchor="middle" x="75.26" y="-85.8" font-family="Times,serif" font-size="14.00">DTEL&#45;AD_REMARK2</text>
</a>
</g>
</g>
<!-- TABL&#45;ADDRS_COMMUNICATION_DATA_NOTE&#45;&gt;DTEL&#45;AD_REMARK2 -->
<g id="edge29" class="edge">
<title>TABL&#45;ADDRS_COMMUNICATION_DATA_NOTE&#45;&gt;DTEL&#45;AD_REMARK2</title>
<path fill="none" stroke="black" d="M183.28,-143.88C164.06,-134.47 140.04,-122.71 119.52,-112.67"/>
<polygon fill="black" stroke="black" points="120.9,-109.44 110.38,-108.19 117.82,-115.73 120.9,-109.44"/>
</g>
<!-- DTEL&#45;SPRAS -->
<g id="node21" class="node">
<title>DTEL&#45;SPRAS</title>
<g id="a_node21"><a xlink:href="./DTEL_SPRAS.html" xlink:title="DTEL&#45;SPRAS">
<polygon fill="none" stroke="green" points="267.98,-108 168.54,-108 168.54,-72 267.98,-72 267.98,-108"/>
<text text-anchor="middle" x="218.26" y="-85.8" font-family="Times,serif" font-size="14.00">DTEL&#45;SPRAS</text>
</a>
</g>
</g>
<!-- TABL&#45;ADDRS_COMMUNICATION_DATA_NOTE&#45;&gt;DTEL&#45;SPRAS -->
<g id="edge28" class="edge">
<title>TABL&#45;ADDRS_COMMUNICATION_DATA_NOTE&#45;&gt;DTEL&#45;SPRAS</title>
<path fill="none" stroke="black" d="M218.26,-143.7C218.26,-135.98 218.26,-126.71 218.26,-118.11"/>
<polygon fill="black" stroke="black" points="221.76,-118.1 218.26,-108.1 214.76,-118.1 221.76,-118.1"/>
</g>
<!-- DOMA&#45;TEXT50 -->
<g id="node20" class="node">
<title>DOMA&#45;TEXT50</title>
<g id="a_node20"><a xlink:href="./DOMA_TEXT50.html" xlink:title="DOMA&#45;TEXT50">
<polygon fill="none" stroke="yellow" points="131.95,-36 18.57,-36 18.57,0 131.95,0 131.95,-36"/>
<text text-anchor="middle" x="75.26" y="-13.8" font-family="Times,serif" font-size="14.00">DOMA&#45;TEXT50</text>
</a>
</g>
</g>
<!-- DTEL&#45;AD_REMARK2&#45;&gt;DOMA&#45;TEXT50 -->
<g id="edge31" class="edge">
<title>DTEL&#45;AD_REMARK2&#45;&gt;DOMA&#45;TEXT50</title>
<path fill="none" stroke="black" d="M75.26,-71.7C75.26,-63.98 75.26,-54.71 75.26,-46.11"/>
<polygon fill="black" stroke="black" points="78.76,-46.1 75.26,-36.1 71.76,-46.1 78.76,-46.1"/>
</g>
<!-- DOMA&#45;SPRAS -->
<g id="node22" class="node">
<title>DOMA&#45;SPRAS</title>
<g id="a_node22"><a xlink:href="./DOMA_SPRAS.html" xlink:title="DOMA&#45;SPRAS">
<polygon fill="none" stroke="green" points="268.48,-36 162.04,-36 162.04,0 268.48,0 268.48,-36"/>
<text text-anchor="middle" x="215.26" y="-13.8" font-family="Times,serif" font-size="14.00">DOMA&#45;SPRAS</text>
</a>
</g>
</g>
<!-- DTEL&#45;SPRAS&#45;&gt;DOMA&#45;SPRAS -->
<g id="edge32" class="edge">
<title>DTEL&#45;SPRAS&#45;&gt;DOMA&#45;SPRAS</title>
<path fill="none" stroke="black" d="M217.52,-71.7C217.19,-63.98 216.79,-54.71 216.42,-46.11"/>
<polygon fill="black" stroke="black" points="219.92,-45.95 215.99,-36.1 212.93,-46.25 219.92,-45.95"/>
</g>
<!-- DTEL&#45;ADDR_FIELDNAME -->
<g id="node24" class="node">
<title>DTEL&#45;ADDR_FIELDNAME</title>
<g id="a_node24"><a xlink:href="./DTEL_ADDR_FIELDNAME.html" xlink:title="DTEL&#45;ADDR_FIELDNAME">
<polygon fill="none" stroke="yellow" points="1292.21,-180 1108.31,-180 1108.31,-144 1292.21,-144 1292.21,-180"/>
<text text-anchor="middle" x="1200.26" y="-157.8" font-family="Times,serif" font-size="14.00">DTEL&#45;ADDR_FIELDNAME</text>
</a>
</g>
</g>
<!-- TTYP&#45;ADDRT_CHANGED_FIELDS&#45;&gt;DTEL&#45;ADDR_FIELDNAME -->
<g id="edge33" class="edge">
<title>TTYP&#45;ADDRT_CHANGED_FIELDS&#45;&gt;DTEL&#45;ADDR_FIELDNAME</title>
<path fill="none" stroke="black" d="M1187.46,-215.7C1189.36,-207.9 1191.64,-198.51 1193.75,-189.83"/>
<polygon fill="black" stroke="black" points="1197.15,-190.65 1196.11,-180.1 1190.35,-189 1197.15,-190.65"/>
</g>
<!-- DOMA&#45;ADDR_FIELDNAME -->
<g id="node25" class="node">
<title>DOMA&#45;ADDR_FIELDNAME</title>
<g id="a_node25"><a xlink:href="./DOMA_ADDR_FIELDNAME.html" xlink:title="DOMA&#45;ADDR_FIELDNAME">
<polygon fill="none" stroke="yellow" points="1504.71,-108 1313.81,-108 1313.81,-72 1504.71,-72 1504.71,-108"/>
<text text-anchor="middle" x="1409.26" y="-85.8" font-family="Times,serif" font-size="14.00">DOMA&#45;ADDR_FIELDNAME</text>
</a>
</g>
</g>
<!-- DTEL&#45;ADDR_FIELDNAME&#45;&gt;DOMA&#45;ADDR_FIELDNAME -->
<g id="edge34" class="edge">
<title>DTEL&#45;ADDR_FIELDNAME&#45;&gt;DOMA&#45;ADDR_FIELDNAME</title>
<path fill="none" stroke="black" d="M1251.12,-143.97C1280.45,-134.14 1317.51,-121.73 1348.38,-111.39"/>
<polygon fill="black" stroke="black" points="1349.8,-114.61 1358.17,-108.11 1347.58,-107.97 1349.8,-114.61"/>
</g>
<!-- DOMA&#45;CHAR12 -->
<g id="node27" class="node">
<title>DOMA&#45;CHAR12</title>
<g id="a_node27"><a xlink:href="./DOMA_CHAR12.html" xlink:title="DOMA&#45;CHAR12">
<polygon fill="none" stroke="yellow" points="1443.57,-180 1326.95,-180 1326.95,-144 1443.57,-144 1443.57,-180"/>
<text text-anchor="middle" x="1385.26" y="-157.8" font-family="Times,serif" font-size="14.00">DOMA&#45;CHAR12</text>
</a>
</g>
</g>
<!-- DTEL&#45;AD_UNAME&#45;&gt;DOMA&#45;CHAR12 -->
<g id="edge35" class="edge">
<title>DTEL&#45;AD_UNAME&#45;&gt;DOMA&#45;CHAR12</title>
<path fill="none" stroke="black" d="M1385.26,-215.7C1385.26,-207.98 1385.26,-198.71 1385.26,-190.11"/>
<polygon fill="black" stroke="black" points="1388.76,-190.1 1385.26,-180.1 1381.76,-190.1 1388.76,-190.1"/>
</g>
<!-- DOMA&#45;CHAR3 -->
<g id="node29" class="node">
<title>DOMA&#45;CHAR3</title>
<g id="a_node29"><a xlink:href="./DOMA_CHAR3.html" xlink:title="DOMA&#45;CHAR3">
<polygon fill="none" stroke="yellow" points="1594.07,-180 1484.45,-180 1484.45,-144 1594.07,-144 1594.07,-180"/>
<text text-anchor="middle" x="1539.26" y="-157.8" font-family="Times,serif" font-size="14.00">DOMA&#45;CHAR3</text>
</a>
</g>
</g>
<!-- DTEL&#45;AD_UMAND&#45;&gt;DOMA&#45;CHAR3 -->
<g id="edge36" class="edge">
<title>DTEL&#45;AD_UMAND&#45;&gt;DOMA&#45;CHAR3</title>
<path fill="none" stroke="black" d="M1539.26,-215.7C1539.26,-207.98 1539.26,-198.71 1539.26,-190.11"/>
<polygon fill="black" stroke="black" points="1542.76,-190.1 1539.26,-180.1 1535.76,-190.1 1542.76,-190.1"/>
</g>
<!-- DOMA&#45;CHAR1 -->
<g id="node31" class="node">
<title>DOMA&#45;CHAR1</title>
<g id="a_node31"><a xlink:href="./DOMA_CHAR1.html" xlink:title="DOMA&#45;CHAR1">
<polygon fill="none" stroke="green" points="1754.07,-180 1644.45,-180 1644.45,-144 1754.07,-144 1754.07,-180"/>
<text text-anchor="middle" x="1699.26" y="-157.8" font-family="Times,serif" font-size="14.00">DOMA&#45;CHAR1</text>
</a>
</g>
</g>
<!-- DTEL&#45;AD_RCVRTYP&#45;&gt;DOMA&#45;CHAR1 -->
<g id="edge37" class="edge">
<title>DTEL&#45;AD_RCVRTYP&#45;&gt;DOMA&#45;CHAR1</title>
<path fill="none" stroke="black" d="M1699.26,-215.7C1699.26,-207.98 1699.26,-198.71 1699.26,-190.11"/>
<polygon fill="black" stroke="black" points="1702.76,-190.1 1699.26,-180.1 1695.76,-190.1 1702.76,-190.1"/>
</g>
<!-- DOMA&#45;CHAR10 -->
<g id="node33" class="node">
<title>DOMA&#45;CHAR10</title>
<g id="a_node33"><a xlink:href="./DOMA_CHAR10.html" xlink:title="DOMA&#45;CHAR10">
<polygon fill="none" stroke="yellow" points="1924.57,-180 1807.95,-180 1807.95,-144 1924.57,-144 1924.57,-180"/>
<text text-anchor="middle" x="1866.26" y="-157.8" font-family="Times,serif" font-size="14.00">DOMA&#45;CHAR10</text>
</a>
</g>
</g>
<!-- DTEL&#45;AD_SYMBDST&#45;&gt;DOMA&#45;CHAR10 -->
<g id="edge38" class="edge">
<title>DTEL&#45;AD_SYMBDST&#45;&gt;DOMA&#45;CHAR10</title>
<path fill="none" stroke="black" d="M1866.26,-215.7C1866.26,-207.98 1866.26,-198.71 1866.26,-190.11"/>
<polygon fill="black" stroke="black" points="1869.76,-190.1 1866.26,-180.1 1862.76,-190.1 1869.76,-190.1"/>
</g>
<!-- DTEL&#45;AD_FLNOUSE&#45;&gt;DOMA&#45;XFELD -->
<g id="edge39" class="edge">
<title>DTEL&#45;AD_FLNOUSE&#45;&gt;DOMA&#45;XFELD</title>
<path fill="none" stroke="black" d="M496.73,-143.9C485.03,-125.7 470.82,-96.25 481.26,-72 486.05,-60.87 494.45,-50.99 503.31,-42.86"/>
<polygon fill="black" stroke="black" points="505.8,-45.34 511.14,-36.18 501.26,-40.01 505.8,-45.34"/>
</g>
</g>
</svg>
