<?xml version="1.0" encoding="UTF-8" standalone="no"?>
<!DOCTYPE svg PUBLIC "-//W3C//DTD SVG 1.1//EN"
 "http://www.w3.org/Graphics/SVG/1.1/DTD/svg11.dtd">
<!-- Generated by graphviz version 2.47.3 (20210619.1520)
 -->
<!-- Title: G Pages: 1 -->
<svg width="414pt" height="260pt"
 viewBox="0.00 0.00 414.08 260.00" xmlns="http://www.w3.org/2000/svg" xmlns:xlink="http://www.w3.org/1999/xlink">
<g id="graph0" class="graph" transform="scale(1 1) rotate(0) translate(4 256)">
<title>G</title>
<polygon fill="white" stroke="transparent" points="-4,4 -4,-256 410.08,-256 410.08,4 -4,4"/>
<!-- TTYP&#45;/BOBF/T_FRW_NODE -->
<g id="node1" class="node">
<title>TTYP&#45;/BOBF/T_FRW_NODE</title>
<polygon fill="none" stroke="yellow" points="288.69,-252 97.18,-252 97.18,-216 288.69,-216 288.69,-252"/>
<text text-anchor="middle" x="192.93" y="-229.8" font-family="Times,serif" font-size="14.00">TTYP&#45;/BOBF/T_FRW_NODE</text>
</g>
<!-- TABL&#45;/BOBF/S_FRW_NODE -->
<g id="node2" class="node">
<title>TABL&#45;/BOBF/S_FRW_NODE</title>
<g id="a_node2"><a xlink:href="./TABL_%23BOBF%23S_FRW_NODE.html" xlink:title="TABL&#45;/BOBF/S_FRW_NODE">
<polygon fill="none" stroke="yellow" points="288.98,-180 96.89,-180 96.89,-144 288.98,-144 288.98,-180"/>
<text text-anchor="middle" x="192.93" y="-157.8" font-family="Times,serif" font-size="14.00">TABL&#45;/BOBF/S_FRW_NODE</text>
</a>
</g>
</g>
<!-- TTYP&#45;/BOBF/T_FRW_NODE&#45;&gt;TABL&#45;/BOBF/S_FRW_NODE -->
<g id="edge1" class="edge">
<title>TTYP&#45;/BOBF/T_FRW_NODE&#45;&gt;TABL&#45;/BOBF/S_FRW_NODE</title>
<path fill="none" stroke="black" d="M192.93,-215.7C192.93,-207.98 192.93,-198.71 192.93,-190.11"/>
<polygon fill="black" stroke="black" points="196.43,-190.1 192.93,-180.1 189.43,-190.1 196.43,-190.1"/>
</g>
<!-- DTEL&#45;/BOBF/CONF_KEY -->
<g id="node3" class="node">
<title>DTEL&#45;/BOBF/CONF_KEY</title>
<g id="a_node3"><a xlink:href="./DTEL_%23BOBF%23CONF_KEY.html" xlink:title="DTEL&#45;/BOBF/CONF_KEY">
<polygon fill="none" stroke="yellow" points="173.8,-108 0.07,-108 0.07,-72 173.8,-72 173.8,-108"/>
<text text-anchor="middle" x="86.93" y="-85.8" font-family="Times,serif" font-size="14.00">DTEL&#45;/BOBF/CONF_KEY</text>
</a>
</g>
</g>
<!-- TABL&#45;/BOBF/S_FRW_NODE&#45;&gt;DTEL&#45;/BOBF/CONF_KEY -->
<g id="edge3" class="edge">
<title>TABL&#45;/BOBF/S_FRW_NODE&#45;&gt;DTEL&#45;/BOBF/CONF_KEY</title>
<path fill="none" stroke="black" d="M167,-143.88C153.27,-134.81 136.23,-123.55 121.4,-113.76"/>
<polygon fill="black" stroke="black" points="123.24,-110.78 112.96,-108.19 119.38,-116.62 123.24,-110.78"/>
</g>
<!-- DTEL&#45;/BOBF/OBM_NODE_KEY -->
<g id="node5" class="node">
<title>DTEL&#45;/BOBF/OBM_NODE_KEY</title>
<g id="a_node5"><a xlink:href="./DTEL_%23BOBF%23OBM_NODE_KEY.html" xlink:title="DTEL&#45;/BOBF/OBM_NODE_KEY">
<polygon fill="none" stroke="yellow" points="406.23,-108 191.64,-108 191.64,-72 406.23,-72 406.23,-108"/>
<text text-anchor="middle" x="298.93" y="-85.8" font-family="Times,serif" font-size="14.00">DTEL&#45;/BOBF/OBM_NODE_KEY</text>
</a>
</g>
</g>
<!-- TABL&#45;/BOBF/S_FRW_NODE&#45;&gt;DTEL&#45;/BOBF/OBM_NODE_KEY -->
<g id="edge2" class="edge">
<title>TABL&#45;/BOBF/S_FRW_NODE&#45;&gt;DTEL&#45;/BOBF/OBM_NODE_KEY</title>
<path fill="none" stroke="black" d="M218.86,-143.88C232.6,-134.81 249.64,-123.55 264.47,-113.76"/>
<polygon fill="black" stroke="black" points="266.49,-116.62 272.9,-108.19 262.63,-110.78 266.49,-116.62"/>
</g>
<!-- DOMA&#45;/BOBF/CONF_KEY -->
<g id="node4" class="node">
<title>DOMA&#45;/BOBF/CONF_KEY</title>
<g id="a_node4"><a xlink:href="./DOMA_%23BOBF%23CONF_KEY.html" xlink:title="DOMA&#45;/BOBF/CONF_KEY">
<polygon fill="none" stroke="yellow" points="283.3,-36 102.57,-36 102.57,0 283.3,0 283.3,-36"/>
<text text-anchor="middle" x="192.93" y="-13.8" font-family="Times,serif" font-size="14.00">DOMA&#45;/BOBF/CONF_KEY</text>
</a>
</g>
</g>
<!-- DTEL&#45;/BOBF/CONF_KEY&#45;&gt;DOMA&#45;/BOBF/CONF_KEY -->
<g id="edge4" class="edge">
<title>DTEL&#45;/BOBF/CONF_KEY&#45;&gt;DOMA&#45;/BOBF/CONF_KEY</title>
<path fill="none" stroke="black" d="M112.86,-71.88C126.6,-62.81 143.64,-51.55 158.47,-41.76"/>
<polygon fill="black" stroke="black" points="160.49,-44.62 166.9,-36.19 156.63,-38.78 160.49,-44.62"/>
</g>
<!-- DTEL&#45;/BOBF/OBM_NODE_KEY&#45;&gt;DOMA&#45;/BOBF/CONF_KEY -->
<g id="edge5" class="edge">
<title>DTEL&#45;/BOBF/OBM_NODE_KEY&#45;&gt;DOMA&#45;/BOBF/CONF_KEY</title>
<path fill="none" stroke="black" d="M273,-71.88C259.27,-62.81 242.23,-51.55 227.4,-41.76"/>
<polygon fill="black" stroke="black" points="229.24,-38.78 218.96,-36.19 225.38,-44.62 229.24,-38.78"/>
</g>
</g>
</svg>
