<?xml version="1.0" encoding="UTF-8" standalone="no"?>
<!DOCTYPE svg PUBLIC "-//W3C//DTD SVG 1.1//EN"
 "http://www.w3.org/Graphics/SVG/1.1/DTD/svg11.dtd">
<!-- Generated by graphviz version 2.47.3 (20210619.1520)
 -->
<!-- Title: G Pages: 1 -->
<svg width="938pt" height="260pt"
 viewBox="0.00 0.00 937.80 260.00" xmlns="http://www.w3.org/2000/svg" xmlns:xlink="http://www.w3.org/1999/xlink">
<g id="graph0" class="graph" transform="scale(1 1) rotate(0) translate(4 256)">
<title>G</title>
<polygon fill="white" stroke="transparent" points="-4,4 -4,-256 933.8,-256 933.8,4 -4,4"/>
<!-- TTYP&#45;SUID_TT_NODE_CUA_ROLE_ADJUST -->
<g id="node1" class="node">
<title>TTYP&#45;SUID_TT_NODE_CUA_ROLE_ADJUST</title>
<polygon fill="none" stroke="yellow" points="687.12,-252 389.15,-252 389.15,-216 687.12,-216 687.12,-252"/>
<text text-anchor="middle" x="538.13" y="-229.8" font-family="Times,serif" font-size="14.00">TTYP&#45;SUID_TT_NODE_CUA_ROLE_ADJUST</text>
</g>
<!-- TABL&#45;SUID_ST_NODE_CUA_ROLE_ADJUST -->
<g id="node2" class="node">
<title>TABL&#45;SUID_ST_NODE_CUA_ROLE_ADJUST</title>
<g id="a_node2"><a xlink:href="./TABL_SUID_ST_NODE_CUA_ROLE_ADJUST.html" xlink:title="TABL&#45;SUID_ST_NODE_CUA_ROLE_ADJUST">
<polygon fill="none" stroke="yellow" points="687.41,-180 388.86,-180 388.86,-144 687.41,-144 687.41,-180"/>
<text text-anchor="middle" x="538.13" y="-157.8" font-family="Times,serif" font-size="14.00">TABL&#45;SUID_ST_NODE_CUA_ROLE_ADJUST</text>
</a>
</g>
</g>
<!-- TTYP&#45;SUID_TT_NODE_CUA_ROLE_ADJUST&#45;&gt;TABL&#45;SUID_ST_NODE_CUA_ROLE_ADJUST -->
<g id="edge1" class="edge">
<title>TTYP&#45;SUID_TT_NODE_CUA_ROLE_ADJUST&#45;&gt;TABL&#45;SUID_ST_NODE_CUA_ROLE_ADJUST</title>
<path fill="none" stroke="black" d="M538.13,-215.7C538.13,-207.98 538.13,-198.71 538.13,-190.11"/>
<polygon fill="black" stroke="black" points="541.63,-190.1 538.13,-180.1 534.63,-190.1 541.63,-190.1"/>
</g>
<!-- DTEL&#45;SUID_ROLE_ADJUSTMENT_STATUS -->
<g id="node3" class="node">
<title>DTEL&#45;SUID_ROLE_ADJUSTMENT_STATUS</title>
<g id="a_node3"><a xlink:href="./DTEL_SUID_ROLE_ADJUSTMENT_STATUS.html" xlink:title="DTEL&#45;SUID_ROLE_ADJUSTMENT_STATUS">
<polygon fill="none" stroke="yellow" points="294.9,-108 3.37,-108 3.37,-72 294.9,-72 294.9,-108"/>
<text text-anchor="middle" x="149.13" y="-85.8" font-family="Times,serif" font-size="14.00">DTEL&#45;SUID_ROLE_ADJUSTMENT_STATUS</text>
</a>
</g>
</g>
<!-- TABL&#45;SUID_ST_NODE_CUA_ROLE_ADJUST&#45;&gt;DTEL&#45;SUID_ROLE_ADJUSTMENT_STATUS -->
<g id="edge6" class="edge">
<title>TABL&#45;SUID_ST_NODE_CUA_ROLE_ADJUST&#45;&gt;DTEL&#45;SUID_ROLE_ADJUSTMENT_STATUS</title>
<path fill="none" stroke="black" d="M443.47,-143.97C386.18,-133.66 313.03,-120.49 253.98,-109.87"/>
<polygon fill="black" stroke="black" points="254.35,-106.38 243.88,-108.05 253.11,-113.27 254.35,-106.38"/>
</g>
<!-- DTEL&#45;AGR_TDATE -->
<g id="node5" class="node">
<title>DTEL&#45;AGR_TDATE</title>
<g id="a_node5"><a xlink:href="./DTEL_AGR_TDATE.html" xlink:title="DTEL&#45;AGR_TDATE">
<polygon fill="none" stroke="yellow" points="451.48,-108 312.79,-108 312.79,-72 451.48,-72 451.48,-108"/>
<text text-anchor="middle" x="382.13" y="-85.8" font-family="Times,serif" font-size="14.00">DTEL&#45;AGR_TDATE</text>
</a>
</g>
</g>
<!-- TABL&#45;SUID_ST_NODE_CUA_ROLE_ADJUST&#45;&gt;DTEL&#45;AGR_TDATE -->
<g id="edge5" class="edge">
<title>TABL&#45;SUID_ST_NODE_CUA_ROLE_ADJUST&#45;&gt;DTEL&#45;AGR_TDATE</title>
<path fill="none" stroke="black" d="M499.97,-143.88C478.74,-134.35 452.13,-122.41 429.57,-112.28"/>
<polygon fill="black" stroke="black" points="430.73,-108.97 420.17,-108.07 427.86,-115.36 430.73,-108.97"/>
</g>
<!-- DTEL&#45;AGR_FDATE -->
<g id="node7" class="node">
<title>DTEL&#45;AGR_FDATE</title>
<g id="a_node7"><a xlink:href="./DTEL_AGR_FDATE.html" xlink:title="DTEL&#45;AGR_FDATE">
<polygon fill="none" stroke="yellow" points="607.21,-108 469.06,-108 469.06,-72 607.21,-72 607.21,-108"/>
<text text-anchor="middle" x="538.13" y="-85.8" font-family="Times,serif" font-size="14.00">DTEL&#45;AGR_FDATE</text>
</a>
</g>
</g>
<!-- TABL&#45;SUID_ST_NODE_CUA_ROLE_ADJUST&#45;&gt;DTEL&#45;AGR_FDATE -->
<g id="edge4" class="edge">
<title>TABL&#45;SUID_ST_NODE_CUA_ROLE_ADJUST&#45;&gt;DTEL&#45;AGR_FDATE</title>
<path fill="none" stroke="black" d="M538.13,-143.7C538.13,-135.98 538.13,-126.71 538.13,-118.11"/>
<polygon fill="black" stroke="black" points="541.63,-118.1 538.13,-108.1 534.63,-118.1 541.63,-118.1"/>
</g>
<!-- DTEL&#45;F_AGR_NAME -->
<g id="node8" class="node">
<title>DTEL&#45;F_AGR_NAME</title>
<g id="a_node8"><a xlink:href="./DTEL_F_AGR_NAME.html" xlink:title="DTEL&#45;F_AGR_NAME">
<polygon fill="none" stroke="yellow" points="774.6,-108 625.67,-108 625.67,-72 774.6,-72 774.6,-108"/>
<text text-anchor="middle" x="700.13" y="-85.8" font-family="Times,serif" font-size="14.00">DTEL&#45;F_AGR_NAME</text>
</a>
</g>
</g>
<!-- TABL&#45;SUID_ST_NODE_CUA_ROLE_ADJUST&#45;&gt;DTEL&#45;F_AGR_NAME -->
<g id="edge3" class="edge">
<title>TABL&#45;SUID_ST_NODE_CUA_ROLE_ADJUST&#45;&gt;DTEL&#45;F_AGR_NAME</title>
<path fill="none" stroke="black" d="M577.76,-143.88C599.91,-134.31 627.7,-122.3 651.19,-112.15"/>
<polygon fill="black" stroke="black" points="652.84,-115.25 660.63,-108.07 650.07,-108.82 652.84,-115.25"/>
</g>
<!-- DTEL&#45;RFCRCVSYS -->
<g id="node10" class="node">
<title>DTEL&#45;RFCRCVSYS</title>
<g id="a_node10"><a xlink:href="./DTEL_RFCRCVSYS.html" xlink:title="DTEL&#45;RFCRCVSYS">
<polygon fill="none" stroke="yellow" points="929.97,-108 792.3,-108 792.3,-72 929.97,-72 929.97,-108"/>
<text text-anchor="middle" x="861.13" y="-85.8" font-family="Times,serif" font-size="14.00">DTEL&#45;RFCRCVSYS</text>
</a>
</g>
</g>
<!-- TABL&#45;SUID_ST_NODE_CUA_ROLE_ADJUST&#45;&gt;DTEL&#45;RFCRCVSYS -->
<g id="edge2" class="edge">
<title>TABL&#45;SUID_ST_NODE_CUA_ROLE_ADJUST&#45;&gt;DTEL&#45;RFCRCVSYS</title>
<path fill="none" stroke="black" d="M617.03,-143.96C662.62,-134.12 721.32,-121.42 782.41,-108.16"/>
<polygon fill="black" stroke="black" points="783.2,-111.57 792.23,-106.02 781.72,-104.72 783.2,-111.57"/>
</g>
<!-- DOMA&#45;SUID_ROLE_ADJUSTMENT_STATUS -->
<g id="node4" class="node">
<title>DOMA&#45;SUID_ROLE_ADJUSTMENT_STATUS</title>
<g id="a_node4"><a xlink:href="./DOMA_SUID_ROLE_ADJUSTMENT_STATUS.html" xlink:title="DOMA&#45;SUID_ROLE_ADJUSTMENT_STATUS">
<polygon fill="none" stroke="yellow" points="298.4,-36 -0.13,-36 -0.13,0 298.4,0 298.4,-36"/>
<text text-anchor="middle" x="149.13" y="-13.8" font-family="Times,serif" font-size="14.00">DOMA&#45;SUID_ROLE_ADJUSTMENT_STATUS</text>
</a>
</g>
</g>
<!-- DTEL&#45;SUID_ROLE_ADJUSTMENT_STATUS&#45;&gt;DOMA&#45;SUID_ROLE_ADJUSTMENT_STATUS -->
<g id="edge7" class="edge">
<title>DTEL&#45;SUID_ROLE_ADJUSTMENT_STATUS&#45;&gt;DOMA&#45;SUID_ROLE_ADJUSTMENT_STATUS</title>
<path fill="none" stroke="black" d="M149.13,-71.7C149.13,-63.98 149.13,-54.71 149.13,-46.11"/>
<polygon fill="black" stroke="black" points="152.63,-46.1 149.13,-36.1 145.63,-46.1 152.63,-46.1"/>
</g>
<!-- DOMA&#45;DATS -->
<g id="node6" class="node">
<title>DOMA&#45;DATS</title>
<g id="a_node6"><a xlink:href="./DOMA_DATS.html" xlink:title="DOMA&#45;DATS">
<polygon fill="none" stroke="yellow" points="510.11,-36 410.16,-36 410.16,0 510.11,0 510.11,-36"/>
<text text-anchor="middle" x="460.13" y="-13.8" font-family="Times,serif" font-size="14.00">DOMA&#45;DATS</text>
</a>
</g>
</g>
<!-- DTEL&#45;AGR_TDATE&#45;&gt;DOMA&#45;DATS -->
<g id="edge8" class="edge">
<title>DTEL&#45;AGR_TDATE&#45;&gt;DOMA&#45;DATS</title>
<path fill="none" stroke="black" d="M401.42,-71.7C411.05,-63.05 422.86,-52.45 433.36,-43.03"/>
<polygon fill="black" stroke="black" points="435.97,-45.39 441.08,-36.1 431.3,-40.18 435.97,-45.39"/>
</g>
<!-- DTEL&#45;AGR_FDATE&#45;&gt;DOMA&#45;DATS -->
<g id="edge9" class="edge">
<title>DTEL&#45;AGR_FDATE&#45;&gt;DOMA&#45;DATS</title>
<path fill="none" stroke="black" d="M518.85,-71.7C509.22,-63.05 497.41,-52.45 486.91,-43.03"/>
<polygon fill="black" stroke="black" points="488.97,-40.18 479.19,-36.1 484.3,-45.39 488.97,-40.18"/>
</g>
<!-- DOMA&#45;F_AGR_NAME -->
<g id="node9" class="node">
<title>DOMA&#45;F_AGR_NAME</title>
<g id="a_node9"><a xlink:href="./DOMA_F_AGR_NAME.html" xlink:title="DOMA&#45;F_AGR_NAME">
<polygon fill="none" stroke="yellow" points="778.1,-36 622.17,-36 622.17,0 778.1,0 778.1,-36"/>
<text text-anchor="middle" x="700.13" y="-13.8" font-family="Times,serif" font-size="14.00">DOMA&#45;F_AGR_NAME</text>
</a>
</g>
</g>
<!-- DTEL&#45;F_AGR_NAME&#45;&gt;DOMA&#45;F_AGR_NAME -->
<g id="edge10" class="edge">
<title>DTEL&#45;F_AGR_NAME&#45;&gt;DOMA&#45;F_AGR_NAME</title>
<path fill="none" stroke="black" d="M700.13,-71.7C700.13,-63.98 700.13,-54.71 700.13,-46.11"/>
<polygon fill="black" stroke="black" points="703.63,-46.1 700.13,-36.1 696.63,-46.1 703.63,-46.1"/>
</g>
<!-- DOMA&#45;LOGSYS -->
<g id="node11" class="node">
<title>DOMA&#45;LOGSYS</title>
<g id="a_node11"><a xlink:href="./DOMA_LOGSYS.html" xlink:title="DOMA&#45;LOGSYS">
<polygon fill="none" stroke="yellow" points="920,-36 802.27,-36 802.27,0 920,0 920,-36"/>
<text text-anchor="middle" x="861.13" y="-13.8" font-family="Times,serif" font-size="14.00">DOMA&#45;LOGSYS</text>
</a>
</g>
</g>
<!-- DTEL&#45;RFCRCVSYS&#45;&gt;DOMA&#45;LOGSYS -->
<g id="edge11" class="edge">
<title>DTEL&#45;RFCRCVSYS&#45;&gt;DOMA&#45;LOGSYS</title>
<path fill="none" stroke="black" d="M861.13,-71.7C861.13,-63.98 861.13,-54.71 861.13,-46.11"/>
<polygon fill="black" stroke="black" points="864.63,-46.1 861.13,-36.1 857.63,-46.1 864.63,-46.1"/>
</g>
</g>
</svg>
