<?xml version="1.0" encoding="UTF-8" standalone="no"?>
<!DOCTYPE svg PUBLIC "-//W3C//DTD SVG 1.1//EN"
 "http://www.w3.org/Graphics/SVG/1.1/DTD/svg11.dtd">
<!-- Generated by graphviz version 2.47.3 (20210619.1520)
 -->
<!-- Title: G Pages: 1 -->
<svg width="208pt" height="260pt"
 viewBox="0.00 0.00 207.54 260.00" xmlns="http://www.w3.org/2000/svg" xmlns:xlink="http://www.w3.org/1999/xlink">
<g id="graph0" class="graph" transform="scale(1 1) rotate(0) translate(4 256)">
<title>G</title>
<polygon fill="white" stroke="transparent" points="-4,4 -4,-256 203.54,-256 203.54,4 -4,4"/>
<!-- TTYP&#45;PRX_METHOD_PROPS -->
<g id="node1" class="node">
<title>TTYP&#45;PRX_METHOD_PROPS</title>
<polygon fill="none" stroke="yellow" points="199.31,-252 0.23,-252 0.23,-216 199.31,-216 199.31,-252"/>
<text text-anchor="middle" x="99.77" y="-229.8" font-family="Times,serif" font-size="14.00">TTYP&#45;PRX_METHOD_PROPS</text>
</g>
<!-- TABL&#45;PRX_METHOD_PROP -->
<g id="node2" class="node">
<title>TABL&#45;PRX_METHOD_PROP</title>
<g id="a_node2"><a xlink:href="./TABL_PRX_METHOD_PROP.html" xlink:title="TABL&#45;PRX_METHOD_PROP">
<polygon fill="none" stroke="yellow" points="196.58,-180 2.96,-180 2.96,-144 196.58,-144 196.58,-180"/>
<text text-anchor="middle" x="99.77" y="-157.8" font-family="Times,serif" font-size="14.00">TABL&#45;PRX_METHOD_PROP</text>
</a>
</g>
</g>
<!-- TTYP&#45;PRX_METHOD_PROPS&#45;&gt;TABL&#45;PRX_METHOD_PROP -->
<g id="edge1" class="edge">
<title>TTYP&#45;PRX_METHOD_PROPS&#45;&gt;TABL&#45;PRX_METHOD_PROP</title>
<path fill="none" stroke="black" d="M99.77,-215.7C99.77,-207.98 99.77,-198.71 99.77,-190.11"/>
<polygon fill="black" stroke="black" points="103.27,-190.1 99.77,-180.1 96.27,-190.1 103.27,-190.1"/>
</g>
<!-- DTEL&#45;PRX_R3NAME -->
<g id="node3" class="node">
<title>DTEL&#45;PRX_R3NAME</title>
<g id="a_node3"><a xlink:href="./DTEL_PRX_R3NAME.html" xlink:title="DTEL&#45;PRX_R3NAME">
<polygon fill="none" stroke="yellow" points="173.97,-108 25.57,-108 25.57,-72 173.97,-72 173.97,-108"/>
<text text-anchor="middle" x="99.77" y="-85.8" font-family="Times,serif" font-size="14.00">DTEL&#45;PRX_R3NAME</text>
</a>
</g>
</g>
<!-- TABL&#45;PRX_METHOD_PROP&#45;&gt;DTEL&#45;PRX_R3NAME -->
<g id="edge2" class="edge">
<title>TABL&#45;PRX_METHOD_PROP&#45;&gt;DTEL&#45;PRX_R3NAME</title>
<path fill="none" stroke="black" d="M99.77,-143.7C99.77,-135.98 99.77,-126.71 99.77,-118.11"/>
<polygon fill="black" stroke="black" points="103.27,-118.1 99.77,-108.1 96.27,-118.1 103.27,-118.1"/>
</g>
<!-- DOMA&#45;PRX_R3NAME -->
<g id="node4" class="node">
<title>DOMA&#45;PRX_R3NAME</title>
<g id="a_node4"><a xlink:href="./DOMA_PRX_R3NAME.html" xlink:title="DOMA&#45;PRX_R3NAME">
<polygon fill="none" stroke="yellow" points="177.47,-36 22.07,-36 22.07,0 177.47,0 177.47,-36"/>
<text text-anchor="middle" x="99.77" y="-13.8" font-family="Times,serif" font-size="14.00">DOMA&#45;PRX_R3NAME</text>
</a>
</g>
</g>
<!-- DTEL&#45;PRX_R3NAME&#45;&gt;DOMA&#45;PRX_R3NAME -->
<g id="edge3" class="edge">
<title>DTEL&#45;PRX_R3NAME&#45;&gt;DOMA&#45;PRX_R3NAME</title>
<path fill="none" stroke="black" d="M99.77,-71.7C99.77,-63.98 99.77,-54.71 99.77,-46.11"/>
<polygon fill="black" stroke="black" points="103.27,-46.1 99.77,-36.1 96.27,-46.1 103.27,-46.1"/>
</g>
</g>
</svg>
