<?xml version="1.0" encoding="UTF-8" standalone="no"?>
<!DOCTYPE svg PUBLIC "-//W3C//DTD SVG 1.1//EN"
 "http://www.w3.org/Graphics/SVG/1.1/DTD/svg11.dtd">
<!-- Generated by graphviz version 2.47.3 (20210619.1520)
 -->
<!-- Title: G Pages: 1 -->
<svg width="221pt" height="188pt"
 viewBox="0.00 0.00 220.74 188.00" xmlns="http://www.w3.org/2000/svg" xmlns:xlink="http://www.w3.org/1999/xlink">
<g id="graph0" class="graph" transform="scale(1 1) rotate(0) translate(4 184)">
<title>G</title>
<polygon fill="white" stroke="transparent" points="-4,4 -4,-184 216.74,-184 216.74,4 -4,4"/>
<!-- TTYP&#45;ABP_FIELD_NAME_TAB -->
<g id="node1" class="node">
<title>TTYP&#45;ABP_FIELD_NAME_TAB</title>
<polygon fill="none" stroke="green" points="212.61,-180 0.13,-180 0.13,-144 212.61,-144 212.61,-180"/>
<text text-anchor="middle" x="106.37" y="-157.8" font-family="Times,serif" font-size="14.00">TTYP&#45;ABP_FIELD_NAME_TAB</text>
</g>
<!-- DTEL&#45;ABP_FIELD_NAME -->
<g id="node2" class="node">
<title>DTEL&#45;ABP_FIELD_NAME</title>
<g id="a_node2"><a xlink:href="./DTEL_ABP_FIELD_NAME.html" xlink:title="DTEL&#45;ABP_FIELD_NAME">
<polygon fill="none" stroke="green" points="195.39,-108 17.35,-108 17.35,-72 195.39,-72 195.39,-108"/>
<text text-anchor="middle" x="106.37" y="-85.8" font-family="Times,serif" font-size="14.00">DTEL&#45;ABP_FIELD_NAME</text>
</a>
</g>
</g>
<!-- TTYP&#45;ABP_FIELD_NAME_TAB&#45;&gt;DTEL&#45;ABP_FIELD_NAME -->
<g id="edge1" class="edge">
<title>TTYP&#45;ABP_FIELD_NAME_TAB&#45;&gt;DTEL&#45;ABP_FIELD_NAME</title>
<path fill="none" stroke="black" d="M106.37,-143.7C106.37,-135.98 106.37,-126.71 106.37,-118.11"/>
<polygon fill="black" stroke="black" points="109.87,-118.1 106.37,-108.1 102.87,-118.1 109.87,-118.1"/>
</g>
<!-- DOMA&#45;ABP_FIELD_NAME -->
<g id="node3" class="node">
<title>DOMA&#45;ABP_FIELD_NAME</title>
<g id="a_node3"><a xlink:href="./DOMA_ABP_FIELD_NAME.html" xlink:title="DOMA&#45;ABP_FIELD_NAME">
<polygon fill="none" stroke="yellow" points="198.89,-36 13.85,-36 13.85,0 198.89,0 198.89,-36"/>
<text text-anchor="middle" x="106.37" y="-13.8" font-family="Times,serif" font-size="14.00">DOMA&#45;ABP_FIELD_NAME</text>
</a>
</g>
</g>
<!-- DTEL&#45;ABP_FIELD_NAME&#45;&gt;DOMA&#45;ABP_FIELD_NAME -->
<g id="edge2" class="edge">
<title>DTEL&#45;ABP_FIELD_NAME&#45;&gt;DOMA&#45;ABP_FIELD_NAME</title>
<path fill="none" stroke="black" d="M106.37,-71.7C106.37,-63.98 106.37,-54.71 106.37,-46.11"/>
<polygon fill="black" stroke="black" points="109.87,-46.1 106.37,-36.1 102.87,-46.1 109.87,-46.1"/>
</g>
</g>
</svg>
