<?xml version="1.0" encoding="UTF-8" standalone="no"?>
<!DOCTYPE svg PUBLIC "-//W3C//DTD SVG 1.1//EN"
 "http://www.w3.org/Graphics/SVG/1.1/DTD/svg11.dtd">
<!-- Generated by graphviz version 2.47.3 (20210619.1520)
 -->
<!-- Title: G Pages: 1 -->
<svg width="472pt" height="260pt"
 viewBox="0.00 0.00 471.91 260.00" xmlns="http://www.w3.org/2000/svg" xmlns:xlink="http://www.w3.org/1999/xlink">
<g id="graph0" class="graph" transform="scale(1 1) rotate(0) translate(4 256)">
<title>G</title>
<polygon fill="white" stroke="transparent" points="-4,4 -4,-256 467.91,-256 467.91,4 -4,4"/>
<!-- TTYP&#45;BAL_R_SUB -->
<g id="node1" class="node">
<title>TTYP&#45;BAL_R_SUB</title>
<polygon fill="none" stroke="yellow" points="296.98,-252 162.55,-252 162.55,-216 296.98,-216 296.98,-252"/>
<text text-anchor="middle" x="229.77" y="-229.8" font-family="Times,serif" font-size="14.00">TTYP&#45;BAL_R_SUB</text>
</g>
<!-- TABL&#45;BAL_S_SUB -->
<g id="node2" class="node">
<title>TABL&#45;BAL_S_SUB</title>
<g id="a_node2"><a xlink:href="./TABL_BAL_S_SUB.html" xlink:title="TABL&#45;BAL_S_SUB">
<polygon fill="none" stroke="yellow" points="296.98,-180 162.55,-180 162.55,-144 296.98,-144 296.98,-180"/>
<text text-anchor="middle" x="229.77" y="-157.8" font-family="Times,serif" font-size="14.00">TABL&#45;BAL_S_SUB</text>
</a>
</g>
</g>
<!-- TTYP&#45;BAL_R_SUB&#45;&gt;TABL&#45;BAL_S_SUB -->
<g id="edge1" class="edge">
<title>TTYP&#45;BAL_R_SUB&#45;&gt;TABL&#45;BAL_S_SUB</title>
<path fill="none" stroke="black" d="M229.77,-215.7C229.77,-207.98 229.77,-198.71 229.77,-190.11"/>
<polygon fill="black" stroke="black" points="233.27,-190.1 229.77,-180.1 226.27,-190.1 233.27,-190.1"/>
</g>
<!-- DTEL&#45;BALSUBOBJ -->
<g id="node3" class="node">
<title>DTEL&#45;BALSUBOBJ</title>
<g id="a_node3"><a xlink:href="./DTEL_BALSUBOBJ.html" xlink:title="DTEL&#45;BALSUBOBJ">
<polygon fill="none" stroke="green" points="139.8,-108 3.73,-108 3.73,-72 139.8,-72 139.8,-108"/>
<text text-anchor="middle" x="71.77" y="-85.8" font-family="Times,serif" font-size="14.00">DTEL&#45;BALSUBOBJ</text>
</a>
</g>
</g>
<!-- TABL&#45;BAL_S_SUB&#45;&gt;DTEL&#45;BALSUBOBJ -->
<g id="edge4" class="edge">
<title>TABL&#45;BAL_S_SUB&#45;&gt;DTEL&#45;BALSUBOBJ</title>
<path fill="none" stroke="black" d="M191.12,-143.88C169.52,-134.31 142.42,-122.3 119.5,-112.15"/>
<polygon fill="black" stroke="black" points="120.85,-108.92 110.29,-108.07 118.02,-115.32 120.85,-108.92"/>
</g>
<!-- DTEL&#45;TVARV_OPTI -->
<g id="node5" class="node">
<title>DTEL&#45;TVARV_OPTI</title>
<g id="a_node5"><a xlink:href="./DTEL_TVARV_OPTI.html" xlink:title="DTEL&#45;TVARV_OPTI">
<polygon fill="none" stroke="yellow" points="301,-108 158.53,-108 158.53,-72 301,-72 301,-108"/>
<text text-anchor="middle" x="229.77" y="-85.8" font-family="Times,serif" font-size="14.00">DTEL&#45;TVARV_OPTI</text>
</a>
</g>
</g>
<!-- TABL&#45;BAL_S_SUB&#45;&gt;DTEL&#45;TVARV_OPTI -->
<g id="edge3" class="edge">
<title>TABL&#45;BAL_S_SUB&#45;&gt;DTEL&#45;TVARV_OPTI</title>
<path fill="none" stroke="black" d="M229.77,-143.7C229.77,-135.98 229.77,-126.71 229.77,-118.11"/>
<polygon fill="black" stroke="black" points="233.27,-118.1 229.77,-108.1 226.27,-118.1 233.27,-118.1"/>
</g>
<!-- DTEL&#45;TVARV_SIGN -->
<g id="node7" class="node">
<title>DTEL&#45;TVARV_SIGN</title>
<g id="a_node7"><a xlink:href="./DTEL_TVARV_SIGN.html" xlink:title="DTEL&#45;TVARV_SIGN">
<polygon fill="none" stroke="yellow" points="464.06,-108 319.48,-108 319.48,-72 464.06,-72 464.06,-108"/>
<text text-anchor="middle" x="391.77" y="-85.8" font-family="Times,serif" font-size="14.00">DTEL&#45;TVARV_SIGN</text>
</a>
</g>
</g>
<!-- TABL&#45;BAL_S_SUB&#45;&gt;DTEL&#45;TVARV_SIGN -->
<g id="edge2" class="edge">
<title>TABL&#45;BAL_S_SUB&#45;&gt;DTEL&#45;TVARV_SIGN</title>
<path fill="none" stroke="black" d="M269.4,-143.88C291.54,-134.31 319.33,-122.3 342.83,-112.15"/>
<polygon fill="black" stroke="black" points="344.47,-115.25 352.27,-108.07 341.7,-108.82 344.47,-115.25"/>
</g>
<!-- DOMA&#45;BALSUBOBJ -->
<g id="node4" class="node">
<title>DOMA&#45;BALSUBOBJ</title>
<g id="a_node4"><a xlink:href="./DOMA_BALSUBOBJ.html" xlink:title="DOMA&#45;BALSUBOBJ">
<polygon fill="none" stroke="yellow" points="143.3,-36 0.23,-36 0.23,0 143.3,0 143.3,-36"/>
<text text-anchor="middle" x="71.77" y="-13.8" font-family="Times,serif" font-size="14.00">DOMA&#45;BALSUBOBJ</text>
</a>
</g>
</g>
<!-- DTEL&#45;BALSUBOBJ&#45;&gt;DOMA&#45;BALSUBOBJ -->
<g id="edge5" class="edge">
<title>DTEL&#45;BALSUBOBJ&#45;&gt;DOMA&#45;BALSUBOBJ</title>
<path fill="none" stroke="black" d="M71.77,-71.7C71.77,-63.98 71.77,-54.71 71.77,-46.11"/>
<polygon fill="black" stroke="black" points="75.27,-46.1 71.77,-36.1 68.27,-46.1 75.27,-46.1"/>
</g>
<!-- DOMA&#45;SYCHAR02 -->
<g id="node6" class="node">
<title>DOMA&#45;SYCHAR02</title>
<g id="a_node6"><a xlink:href="./DOMA_SYCHAR02.html" xlink:title="DOMA&#45;SYCHAR02">
<polygon fill="none" stroke="yellow" points="296.97,-36 162.57,-36 162.57,0 296.97,0 296.97,-36"/>
<text text-anchor="middle" x="229.77" y="-13.8" font-family="Times,serif" font-size="14.00">DOMA&#45;SYCHAR02</text>
</a>
</g>
</g>
<!-- DTEL&#45;TVARV_OPTI&#45;&gt;DOMA&#45;SYCHAR02 -->
<g id="edge6" class="edge">
<title>DTEL&#45;TVARV_OPTI&#45;&gt;DOMA&#45;SYCHAR02</title>
<path fill="none" stroke="black" d="M229.77,-71.7C229.77,-63.98 229.77,-54.71 229.77,-46.11"/>
<polygon fill="black" stroke="black" points="233.27,-46.1 229.77,-36.1 226.27,-46.1 233.27,-46.1"/>
</g>
<!-- DOMA&#45;SYCHAR01 -->
<g id="node8" class="node">
<title>DOMA&#45;SYCHAR01</title>
<g id="a_node8"><a xlink:href="./DOMA_SYCHAR01.html" xlink:title="DOMA&#45;SYCHAR01">
<polygon fill="none" stroke="yellow" points="458.97,-36 324.57,-36 324.57,0 458.97,0 458.97,-36"/>
<text text-anchor="middle" x="391.77" y="-13.8" font-family="Times,serif" font-size="14.00">DOMA&#45;SYCHAR01</text>
</a>
</g>
</g>
<!-- DTEL&#45;TVARV_SIGN&#45;&gt;DOMA&#45;SYCHAR01 -->
<g id="edge7" class="edge">
<title>DTEL&#45;TVARV_SIGN&#45;&gt;DOMA&#45;SYCHAR01</title>
<path fill="none" stroke="black" d="M391.77,-71.7C391.77,-63.98 391.77,-54.71 391.77,-46.11"/>
<polygon fill="black" stroke="black" points="395.27,-46.1 391.77,-36.1 388.27,-46.1 395.27,-46.1"/>
</g>
</g>
</svg>
