<?xml version="1.0" encoding="UTF-8" standalone="no"?>
<!DOCTYPE svg PUBLIC "-//W3C//DTD SVG 1.1//EN"
 "http://www.w3.org/Graphics/SVG/1.1/DTD/svg11.dtd">
<!-- Generated by graphviz version 2.47.3 (20210619.1520)
 -->
<!-- Title: G Pages: 1 -->
<svg width="669pt" height="476pt"
 viewBox="0.00 0.00 669.46 476.00" xmlns="http://www.w3.org/2000/svg" xmlns:xlink="http://www.w3.org/1999/xlink">
<g id="graph0" class="graph" transform="scale(1 1) rotate(0) translate(4 472)">
<title>G</title>
<polygon fill="white" stroke="transparent" points="-4,4 -4,-472 665.46,-472 665.46,4 -4,4"/>
<!-- TTYP&#45;CMIS_T_RENDITION -->
<g id="node1" class="node">
<title>TTYP&#45;CMIS_T_RENDITION</title>
<polygon fill="none" stroke="green" points="486.33,-468 298.08,-468 298.08,-432 486.33,-432 486.33,-468"/>
<text text-anchor="middle" x="392.2" y="-445.8" font-family="Times,serif" font-size="14.00">TTYP&#45;CMIS_T_RENDITION</text>
</g>
<!-- TABL&#45;CMIS_S_RENDITION -->
<g id="node2" class="node">
<title>TABL&#45;CMIS_S_RENDITION</title>
<g id="a_node2"><a xlink:href="./TABL_CMIS_S_RENDITION.html" xlink:title="TABL&#45;CMIS_S_RENDITION">
<polygon fill="none" stroke="green" points="487.11,-396 297.3,-396 297.3,-360 487.11,-360 487.11,-396"/>
<text text-anchor="middle" x="392.2" y="-373.8" font-family="Times,serif" font-size="14.00">TABL&#45;CMIS_S_RENDITION</text>
</a>
</g>
</g>
<!-- TTYP&#45;CMIS_T_RENDITION&#45;&gt;TABL&#45;CMIS_S_RENDITION -->
<g id="edge1" class="edge">
<title>TTYP&#45;CMIS_T_RENDITION&#45;&gt;TABL&#45;CMIS_S_RENDITION</title>
<path fill="none" stroke="black" d="M392.2,-431.7C392.2,-423.98 392.2,-414.71 392.2,-406.11"/>
<polygon fill="black" stroke="black" points="395.7,-406.1 392.2,-396.1 388.7,-406.1 395.7,-406.1"/>
</g>
<!-- TTYP&#45;CMIS_T_EXTENSION -->
<g id="node3" class="node">
<title>TTYP&#45;CMIS_T_EXTENSION</title>
<g id="a_node3"><a xlink:href="./TTYP_CMIS_T_EXTENSION.html" xlink:title="TTYP&#45;CMIS_T_EXTENSION">
<polygon fill="none" stroke="green" points="325.66,-324 134.74,-324 134.74,-288 325.66,-288 325.66,-324"/>
<text text-anchor="middle" x="230.2" y="-301.8" font-family="Times,serif" font-size="14.00">TTYP&#45;CMIS_T_EXTENSION</text>
</a>
</g>
</g>
<!-- TABL&#45;CMIS_S_RENDITION&#45;&gt;TTYP&#45;CMIS_T_EXTENSION -->
<g id="edge6" class="edge">
<title>TABL&#45;CMIS_S_RENDITION&#45;&gt;TTYP&#45;CMIS_T_EXTENSION</title>
<path fill="none" stroke="black" d="M352.57,-359.88C330.43,-350.31 302.64,-338.3 279.15,-328.15"/>
<polygon fill="black" stroke="black" points="280.27,-324.82 269.7,-324.07 277.5,-331.25 280.27,-324.82"/>
</g>
<!-- DTEL&#45;CMIS_STRING -->
<g id="node7" class="node">
<title>DTEL&#45;CMIS_STRING</title>
<g id="a_node7"><a xlink:href="./DTEL_CMIS_STRING.html" xlink:title="DTEL&#45;CMIS_STRING">
<polygon fill="none" stroke="green" points="298.4,-36 150.01,-36 150.01,0 298.4,0 298.4,-36"/>
<text text-anchor="middle" x="224.2" y="-13.8" font-family="Times,serif" font-size="14.00">DTEL&#45;CMIS_STRING</text>
</a>
</g>
</g>
<!-- TABL&#45;CMIS_S_RENDITION&#45;&gt;DTEL&#45;CMIS_STRING -->
<g id="edge2" class="edge">
<title>TABL&#45;CMIS_S_RENDITION&#45;&gt;DTEL&#45;CMIS_STRING</title>
<path fill="none" stroke="black" d="M392.2,-359.95C392.2,-333.29 392.2,-280.11 392.2,-235 392.2,-235 392.2,-235 392.2,-161 392.2,-101.8 330.61,-62.23 282.01,-40.22"/>
<polygon fill="black" stroke="black" points="283.36,-36.99 272.8,-36.19 280.55,-43.4 283.36,-36.99"/>
</g>
<!-- DTEL&#45;CMIS_ID -->
<g id="node8" class="node">
<title>DTEL&#45;CMIS_ID</title>
<g id="a_node8"><a xlink:href="./DTEL_CMIS_ID.html" xlink:title="DTEL&#45;CMIS_ID">
<polygon fill="none" stroke="green" points="364.62,-180 251.79,-180 251.79,-144 364.62,-144 364.62,-180"/>
<text text-anchor="middle" x="308.2" y="-157.8" font-family="Times,serif" font-size="14.00">DTEL&#45;CMIS_ID</text>
</a>
</g>
</g>
<!-- TABL&#45;CMIS_S_RENDITION&#45;&gt;DTEL&#45;CMIS_ID -->
<g id="edge5" class="edge">
<title>TABL&#45;CMIS_S_RENDITION&#45;&gt;DTEL&#45;CMIS_ID</title>
<path fill="none" stroke="black" d="M386.05,-359.98C375.33,-330.49 352.35,-268.06 331.2,-216 327.68,-207.32 323.66,-197.91 319.98,-189.47"/>
<polygon fill="black" stroke="black" points="323.09,-187.85 315.87,-180.1 316.68,-190.66 323.09,-187.85"/>
</g>
<!-- DTEL&#45;INT4 -->
<g id="node9" class="node">
<title>DTEL&#45;INT4</title>
<g id="a_node9"><a xlink:href="./DTEL_INT4.html" xlink:title="DTEL&#45;INT4">
<polygon fill="none" stroke="green" points="506.45,-324 419.96,-324 419.96,-288 506.45,-288 506.45,-324"/>
<text text-anchor="middle" x="463.2" y="-301.8" font-family="Times,serif" font-size="14.00">DTEL&#45;INT4</text>
</a>
</g>
</g>
<!-- TABL&#45;CMIS_S_RENDITION&#45;&gt;DTEL&#45;INT4 -->
<g id="edge4" class="edge">
<title>TABL&#45;CMIS_S_RENDITION&#45;&gt;DTEL&#45;INT4</title>
<path fill="none" stroke="black" d="M409.75,-359.7C418.44,-351.14 429.07,-340.66 438.55,-331.3"/>
<polygon fill="black" stroke="black" points="441.19,-333.62 445.85,-324.1 436.28,-328.63 441.19,-333.62"/>
</g>
<!-- DTEL&#45;CMIS_LONG -->
<g id="node11" class="node">
<title>DTEL&#45;CMIS_LONG</title>
<g id="a_node11"><a xlink:href="./DTEL_CMIS_LONG.html" xlink:title="DTEL&#45;CMIS_LONG">
<polygon fill="none" stroke="green" points="661.23,-324 525.18,-324 525.18,-288 661.23,-288 661.23,-324"/>
<text text-anchor="middle" x="593.2" y="-301.8" font-family="Times,serif" font-size="14.00">DTEL&#45;CMIS_LONG</text>
</a>
</g>
</g>
<!-- TABL&#45;CMIS_S_RENDITION&#45;&gt;DTEL&#45;CMIS_LONG -->
<g id="edge3" class="edge">
<title>TABL&#45;CMIS_S_RENDITION&#45;&gt;DTEL&#45;CMIS_LONG</title>
<path fill="none" stroke="black" d="M441.12,-359.97C469.2,-350.19 504.66,-337.84 534.27,-327.52"/>
<polygon fill="black" stroke="black" points="535.78,-330.71 544.07,-324.11 533.48,-324.09 535.78,-330.71"/>
</g>
<!-- TABL&#45;CMIS_S_EXTENSION -->
<g id="node4" class="node">
<title>TABL&#45;CMIS_S_EXTENSION</title>
<g id="a_node4"><a xlink:href="./TABL_CMIS_S_EXTENSION.html" xlink:title="TABL&#45;CMIS_S_EXTENSION">
<polygon fill="none" stroke="green" points="321.95,-252 130.46,-252 130.46,-216 321.95,-216 321.95,-252"/>
<text text-anchor="middle" x="226.2" y="-229.8" font-family="Times,serif" font-size="14.00">TABL&#45;CMIS_S_EXTENSION</text>
</a>
</g>
</g>
<!-- TTYP&#45;CMIS_T_EXTENSION&#45;&gt;TABL&#45;CMIS_S_EXTENSION -->
<g id="edge7" class="edge">
<title>TTYP&#45;CMIS_T_EXTENSION&#45;&gt;TABL&#45;CMIS_S_EXTENSION</title>
<path fill="none" stroke="black" d="M229.21,-287.7C228.77,-279.98 228.24,-270.71 227.75,-262.11"/>
<polygon fill="black" stroke="black" points="231.25,-261.89 227.18,-252.1 224.26,-262.29 231.25,-261.89"/>
</g>
<!-- TTYP&#45;CMIS_T_MAP -->
<g id="node5" class="node">
<title>TTYP&#45;CMIS_T_MAP</title>
<g id="a_node5"><a xlink:href="./TTYP_CMIS_T_MAP.html" xlink:title="TTYP&#45;CMIS_T_MAP">
<polygon fill="none" stroke="green" points="183.47,-180 40.94,-180 40.94,-144 183.47,-144 183.47,-180"/>
<text text-anchor="middle" x="112.2" y="-157.8" font-family="Times,serif" font-size="14.00">TTYP&#45;CMIS_T_MAP</text>
</a>
</g>
</g>
<!-- TABL&#45;CMIS_S_EXTENSION&#45;&gt;TTYP&#45;CMIS_T_MAP -->
<g id="edge10" class="edge">
<title>TABL&#45;CMIS_S_EXTENSION&#45;&gt;TTYP&#45;CMIS_T_MAP</title>
<path fill="none" stroke="black" d="M198.32,-215.88C183.41,-206.72 164.87,-195.34 148.82,-185.48"/>
<polygon fill="black" stroke="black" points="150.55,-182.44 140.2,-180.19 146.89,-188.41 150.55,-182.44"/>
</g>
<!-- TABL&#45;CMIS_S_EXTENSION&#45;&gt;DTEL&#45;CMIS_STRING -->
<g id="edge9" class="edge">
<title>TABL&#45;CMIS_S_EXTENSION&#45;&gt;DTEL&#45;CMIS_STRING</title>
<path fill="none" stroke="black" d="M226.04,-215.85C225.7,-178.83 224.88,-91.18 224.46,-46.39"/>
<polygon fill="black" stroke="black" points="227.96,-46.2 224.36,-36.23 220.96,-46.26 227.96,-46.2"/>
</g>
<!-- TABL&#45;CMIS_S_EXTENSION&#45;&gt;DTEL&#45;CMIS_ID -->
<g id="edge8" class="edge">
<title>TABL&#45;CMIS_S_EXTENSION&#45;&gt;DTEL&#45;CMIS_ID</title>
<path fill="none" stroke="black" d="M246.47,-215.7C256.7,-206.97 269.26,-196.24 280.38,-186.75"/>
<polygon fill="black" stroke="black" points="282.83,-189.26 288.17,-180.1 278.29,-183.94 282.83,-189.26"/>
</g>
<!-- TABL&#45;CMIS_S_KEY_VALUE -->
<g id="node6" class="node">
<title>TABL&#45;CMIS_S_KEY_VALUE</title>
<g id="a_node6"><a xlink:href="./TABL_CMIS_S_KEY_VALUE.html" xlink:title="TABL&#45;CMIS_S_KEY_VALUE">
<polygon fill="none" stroke="green" points="196.61,-108 -0.2,-108 -0.2,-72 196.61,-72 196.61,-108"/>
<text text-anchor="middle" x="98.2" y="-85.8" font-family="Times,serif" font-size="14.00">TABL&#45;CMIS_S_KEY_VALUE</text>
</a>
</g>
</g>
<!-- TTYP&#45;CMIS_T_MAP&#45;&gt;TABL&#45;CMIS_S_KEY_VALUE -->
<g id="edge11" class="edge">
<title>TTYP&#45;CMIS_T_MAP&#45;&gt;TABL&#45;CMIS_S_KEY_VALUE</title>
<path fill="none" stroke="black" d="M108.74,-143.7C107.2,-135.98 105.35,-126.71 103.63,-118.11"/>
<polygon fill="black" stroke="black" points="107.02,-117.22 101.62,-108.1 100.15,-118.6 107.02,-117.22"/>
</g>
<!-- TABL&#45;CMIS_S_KEY_VALUE&#45;&gt;DTEL&#45;CMIS_STRING -->
<g id="edge12" class="edge">
<title>TABL&#45;CMIS_S_KEY_VALUE&#45;&gt;DTEL&#45;CMIS_STRING</title>
<path fill="none" stroke="black" d="M129.03,-71.88C145.65,-62.64 166.37,-51.13 184.22,-41.21"/>
<polygon fill="black" stroke="black" points="186.22,-44.11 193.26,-36.19 182.82,-37.99 186.22,-44.11"/>
</g>
<!-- DOMA&#45;INT4 -->
<g id="node10" class="node">
<title>DOMA&#45;INT4</title>
<g id="a_node10"><a xlink:href="./DOMA_INT4.html" xlink:title="DOMA&#45;INT4">
<polygon fill="none" stroke="yellow" points="513.95,-252 420.46,-252 420.46,-216 513.95,-216 513.95,-252"/>
<text text-anchor="middle" x="467.2" y="-229.8" font-family="Times,serif" font-size="14.00">DOMA&#45;INT4</text>
</a>
</g>
</g>
<!-- DTEL&#45;INT4&#45;&gt;DOMA&#45;INT4 -->
<g id="edge13" class="edge">
<title>DTEL&#45;INT4&#45;&gt;DOMA&#45;INT4</title>
<path fill="none" stroke="black" d="M464.19,-287.7C464.63,-279.98 465.16,-270.71 465.65,-262.11"/>
<polygon fill="black" stroke="black" points="469.15,-262.29 466.23,-252.1 462.16,-261.89 469.15,-262.29"/>
</g>
</g>
</svg>
