<?xml version="1.0" encoding="UTF-8" standalone="no"?>
<!DOCTYPE svg PUBLIC "-//W3C//DTD SVG 1.1//EN"
 "http://www.w3.org/Graphics/SVG/1.1/DTD/svg11.dtd">
<!-- Generated by graphviz version 2.47.3 (20210619.1520)
 -->
<!-- Title: G Pages: 1 -->
<svg width="453pt" height="260pt"
 viewBox="0.00 0.00 453.01 260.00" xmlns="http://www.w3.org/2000/svg" xmlns:xlink="http://www.w3.org/1999/xlink">
<g id="graph0" class="graph" transform="scale(1 1) rotate(0) translate(4 256)">
<title>G</title>
<polygon fill="white" stroke="transparent" points="-4,4 -4,-256 449.01,-256 449.01,4 -4,4"/>
<!-- TTYP&#45;BAL_R_DATE -->
<g id="node1" class="node">
<title>TTYP&#45;BAL_R_DATE</title>
<polygon fill="none" stroke="yellow" points="283.18,-252 138.56,-252 138.56,-216 283.18,-216 283.18,-252"/>
<text text-anchor="middle" x="210.87" y="-229.8" font-family="Times,serif" font-size="14.00">TTYP&#45;BAL_R_DATE</text>
</g>
<!-- TABL&#45;BAL_S_DATE -->
<g id="node2" class="node">
<title>TABL&#45;BAL_S_DATE</title>
<g id="a_node2"><a xlink:href="./TABL_BAL_S_DATE.html" xlink:title="TABL&#45;BAL_S_DATE">
<polygon fill="none" stroke="yellow" points="283.18,-180 138.56,-180 138.56,-144 283.18,-144 283.18,-180"/>
<text text-anchor="middle" x="210.87" y="-157.8" font-family="Times,serif" font-size="14.00">TABL&#45;BAL_S_DATE</text>
</a>
</g>
</g>
<!-- TTYP&#45;BAL_R_DATE&#45;&gt;TABL&#45;BAL_S_DATE -->
<g id="edge1" class="edge">
<title>TTYP&#45;BAL_R_DATE&#45;&gt;TABL&#45;BAL_S_DATE</title>
<path fill="none" stroke="black" d="M210.87,-215.7C210.87,-207.98 210.87,-198.71 210.87,-190.11"/>
<polygon fill="black" stroke="black" points="214.37,-190.1 210.87,-180.1 207.37,-190.1 214.37,-190.1"/>
</g>
<!-- DTEL&#45;BALDATE -->
<g id="node3" class="node">
<title>DTEL&#45;BALDATE</title>
<g id="a_node3"><a xlink:href="./DTEL_BALDATE.html" xlink:title="DTEL&#45;BALDATE">
<polygon fill="none" stroke="yellow" points="121.61,-108 0.13,-108 0.13,-72 121.61,-72 121.61,-108"/>
<text text-anchor="middle" x="60.87" y="-85.8" font-family="Times,serif" font-size="14.00">DTEL&#45;BALDATE</text>
</a>
</g>
</g>
<!-- TABL&#45;BAL_S_DATE&#45;&gt;DTEL&#45;BALDATE -->
<g id="edge4" class="edge">
<title>TABL&#45;BAL_S_DATE&#45;&gt;DTEL&#45;BALDATE</title>
<path fill="none" stroke="black" d="M174.18,-143.88C153.85,-134.39 128.4,-122.51 106.77,-112.42"/>
<polygon fill="black" stroke="black" points="107.99,-109.13 97.44,-108.07 105.03,-115.47 107.99,-109.13"/>
</g>
<!-- DTEL&#45;TVARV_OPTI -->
<g id="node5" class="node">
<title>DTEL&#45;TVARV_OPTI</title>
<g id="a_node5"><a xlink:href="./DTEL_TVARV_OPTI.html" xlink:title="DTEL&#45;TVARV_OPTI">
<polygon fill="none" stroke="yellow" points="282.11,-108 139.63,-108 139.63,-72 282.11,-72 282.11,-108"/>
<text text-anchor="middle" x="210.87" y="-85.8" font-family="Times,serif" font-size="14.00">DTEL&#45;TVARV_OPTI</text>
</a>
</g>
</g>
<!-- TABL&#45;BAL_S_DATE&#45;&gt;DTEL&#45;TVARV_OPTI -->
<g id="edge3" class="edge">
<title>TABL&#45;BAL_S_DATE&#45;&gt;DTEL&#45;TVARV_OPTI</title>
<path fill="none" stroke="black" d="M210.87,-143.7C210.87,-135.98 210.87,-126.71 210.87,-118.11"/>
<polygon fill="black" stroke="black" points="214.37,-118.1 210.87,-108.1 207.37,-118.1 214.37,-118.1"/>
</g>
<!-- DTEL&#45;TVARV_SIGN -->
<g id="node7" class="node">
<title>DTEL&#45;TVARV_SIGN</title>
<g id="a_node7"><a xlink:href="./DTEL_TVARV_SIGN.html" xlink:title="DTEL&#45;TVARV_SIGN">
<polygon fill="none" stroke="yellow" points="445.16,-108 300.58,-108 300.58,-72 445.16,-72 445.16,-108"/>
<text text-anchor="middle" x="372.87" y="-85.8" font-family="Times,serif" font-size="14.00">DTEL&#45;TVARV_SIGN</text>
</a>
</g>
</g>
<!-- TABL&#45;BAL_S_DATE&#45;&gt;DTEL&#45;TVARV_SIGN -->
<g id="edge2" class="edge">
<title>TABL&#45;BAL_S_DATE&#45;&gt;DTEL&#45;TVARV_SIGN</title>
<path fill="none" stroke="black" d="M250.5,-143.88C272.65,-134.31 300.43,-122.3 323.93,-112.15"/>
<polygon fill="black" stroke="black" points="325.58,-115.25 333.37,-108.07 322.8,-108.82 325.58,-115.25"/>
</g>
<!-- DOMA&#45;DATUM -->
<g id="node4" class="node">
<title>DOMA&#45;DATUM</title>
<g id="a_node4"><a xlink:href="./DOMA_DATUM.html" xlink:title="DOMA&#45;DATUM">
<polygon fill="none" stroke="yellow" points="118.11,-36 3.63,-36 3.63,0 118.11,0 118.11,-36"/>
<text text-anchor="middle" x="60.87" y="-13.8" font-family="Times,serif" font-size="14.00">DOMA&#45;DATUM</text>
</a>
</g>
</g>
<!-- DTEL&#45;BALDATE&#45;&gt;DOMA&#45;DATUM -->
<g id="edge5" class="edge">
<title>DTEL&#45;BALDATE&#45;&gt;DOMA&#45;DATUM</title>
<path fill="none" stroke="black" d="M60.87,-71.7C60.87,-63.98 60.87,-54.71 60.87,-46.11"/>
<polygon fill="black" stroke="black" points="64.37,-46.1 60.87,-36.1 57.37,-46.1 64.37,-46.1"/>
</g>
<!-- DOMA&#45;SYCHAR02 -->
<g id="node6" class="node">
<title>DOMA&#45;SYCHAR02</title>
<g id="a_node6"><a xlink:href="./DOMA_SYCHAR02.html" xlink:title="DOMA&#45;SYCHAR02">
<polygon fill="none" stroke="yellow" points="278.07,-36 143.67,-36 143.67,0 278.07,0 278.07,-36"/>
<text text-anchor="middle" x="210.87" y="-13.8" font-family="Times,serif" font-size="14.00">DOMA&#45;SYCHAR02</text>
</a>
</g>
</g>
<!-- DTEL&#45;TVARV_OPTI&#45;&gt;DOMA&#45;SYCHAR02 -->
<g id="edge6" class="edge">
<title>DTEL&#45;TVARV_OPTI&#45;&gt;DOMA&#45;SYCHAR02</title>
<path fill="none" stroke="black" d="M210.87,-71.7C210.87,-63.98 210.87,-54.71 210.87,-46.11"/>
<polygon fill="black" stroke="black" points="214.37,-46.1 210.87,-36.1 207.37,-46.1 214.37,-46.1"/>
</g>
<!-- DOMA&#45;SYCHAR01 -->
<g id="node8" class="node">
<title>DOMA&#45;SYCHAR01</title>
<g id="a_node8"><a xlink:href="./DOMA_SYCHAR01.html" xlink:title="DOMA&#45;SYCHAR01">
<polygon fill="none" stroke="yellow" points="440.07,-36 305.67,-36 305.67,0 440.07,0 440.07,-36"/>
<text text-anchor="middle" x="372.87" y="-13.8" font-family="Times,serif" font-size="14.00">DOMA&#45;SYCHAR01</text>
</a>
</g>
</g>
<!-- DTEL&#45;TVARV_SIGN&#45;&gt;DOMA&#45;SYCHAR01 -->
<g id="edge7" class="edge">
<title>DTEL&#45;TVARV_SIGN&#45;&gt;DOMA&#45;SYCHAR01</title>
<path fill="none" stroke="black" d="M372.87,-71.7C372.87,-63.98 372.87,-54.71 372.87,-46.11"/>
<polygon fill="black" stroke="black" points="376.37,-46.1 372.87,-36.1 369.37,-46.1 376.37,-46.1"/>
</g>
</g>
</svg>
