<?xml version="1.0" encoding="UTF-8" standalone="no"?>
<!DOCTYPE svg PUBLIC "-//W3C//DTD SVG 1.1//EN"
 "http://www.w3.org/Graphics/SVG/1.1/DTD/svg11.dtd">
<!-- Generated by graphviz version 2.47.3 (20210619.1520)
 -->
<!-- Title: G Pages: 1 -->
<svg width="273pt" height="332pt"
 viewBox="0.00 0.00 272.84 332.00" xmlns="http://www.w3.org/2000/svg" xmlns:xlink="http://www.w3.org/1999/xlink">
<g id="graph0" class="graph" transform="scale(1 1) rotate(0) translate(4 328)">
<title>G</title>
<polygon fill="white" stroke="transparent" points="-4,4 -4,-328 268.84,-328 268.84,4 -4,4"/>
<!-- TTYP&#45;SRT_HEADER_SUBNODE_TAB -->
<g id="node1" class="node">
<title>TTYP&#45;SRT_HEADER_SUBNODE_TAB</title>
<polygon fill="none" stroke="yellow" points="259.1,-324 5.74,-324 5.74,-288 259.1,-288 259.1,-324"/>
<text text-anchor="middle" x="132.42" y="-301.8" font-family="Times,serif" font-size="14.00">TTYP&#45;SRT_HEADER_SUBNODE_TAB</text>
</g>
<!-- TABL&#45;SRT_HEADER_SUBNODE -->
<g id="node2" class="node">
<title>TABL&#45;SRT_HEADER_SUBNODE</title>
<g id="a_node2"><a xlink:href="./TABL_SRT_HEADER_SUBNODE.html" xlink:title="TABL&#45;SRT_HEADER_SUBNODE">
<polygon fill="none" stroke="yellow" points="242.16,-252 22.68,-252 22.68,-216 242.16,-216 242.16,-252"/>
<text text-anchor="middle" x="132.42" y="-229.8" font-family="Times,serif" font-size="14.00">TABL&#45;SRT_HEADER_SUBNODE</text>
</a>
</g>
</g>
<!-- TTYP&#45;SRT_HEADER_SUBNODE_TAB&#45;&gt;TABL&#45;SRT_HEADER_SUBNODE -->
<g id="edge1" class="edge">
<title>TTYP&#45;SRT_HEADER_SUBNODE_TAB&#45;&gt;TABL&#45;SRT_HEADER_SUBNODE</title>
<path fill="none" stroke="black" d="M132.42,-287.7C132.42,-279.98 132.42,-270.71 132.42,-262.11"/>
<polygon fill="black" stroke="black" points="135.92,-262.1 132.42,-252.1 128.92,-262.1 135.92,-262.1"/>
</g>
<!-- TABL&#45;SRT_HEADER_ELEMENT -->
<g id="node3" class="node">
<title>TABL&#45;SRT_HEADER_ELEMENT</title>
<g id="a_node3"><a xlink:href="./TABL_SRT_HEADER_ELEMENT.html" xlink:title="TABL&#45;SRT_HEADER_ELEMENT">
<polygon fill="none" stroke="yellow" points="241.88,-180 22.96,-180 22.96,-144 241.88,-144 241.88,-180"/>
<text text-anchor="middle" x="132.42" y="-157.8" font-family="Times,serif" font-size="14.00">TABL&#45;SRT_HEADER_ELEMENT</text>
</a>
</g>
</g>
<!-- TABL&#45;SRT_HEADER_SUBNODE&#45;&gt;TABL&#45;SRT_HEADER_ELEMENT -->
<g id="edge2" class="edge">
<title>TABL&#45;SRT_HEADER_SUBNODE&#45;&gt;TABL&#45;SRT_HEADER_ELEMENT</title>
<path fill="none" stroke="black" d="M132.42,-215.7C132.42,-207.98 132.42,-198.71 132.42,-190.11"/>
<polygon fill="black" stroke="black" points="135.92,-190.1 132.42,-180.1 128.92,-190.1 135.92,-190.1"/>
</g>
<!-- TTYP&#45;SRT_HEADER_ATTRIBUTE_TAB -->
<g id="node4" class="node">
<title>TTYP&#45;SRT_HEADER_ATTRIBUTE_TAB</title>
<g id="a_node4"><a xlink:href="./TTYP_SRT_HEADER_ATTRIBUTE_TAB.html" xlink:title="TTYP&#45;SRT_HEADER_ATTRIBUTE_TAB">
<polygon fill="none" stroke="yellow" points="264.76,-108 0.08,-108 0.08,-72 264.76,-72 264.76,-108"/>
<text text-anchor="middle" x="132.42" y="-85.8" font-family="Times,serif" font-size="14.00">TTYP&#45;SRT_HEADER_ATTRIBUTE_TAB</text>
</a>
</g>
</g>
<!-- TABL&#45;SRT_HEADER_ELEMENT&#45;&gt;TTYP&#45;SRT_HEADER_ATTRIBUTE_TAB -->
<g id="edge3" class="edge">
<title>TABL&#45;SRT_HEADER_ELEMENT&#45;&gt;TTYP&#45;SRT_HEADER_ATTRIBUTE_TAB</title>
<path fill="none" stroke="black" d="M132.42,-143.7C132.42,-135.98 132.42,-126.71 132.42,-118.11"/>
<polygon fill="black" stroke="black" points="135.92,-118.1 132.42,-108.1 128.92,-118.1 135.92,-118.1"/>
</g>
<!-- TABL&#45;SRT_HEADER_ATTRIBUTE -->
<g id="node5" class="node">
<title>TABL&#45;SRT_HEADER_ATTRIBUTE</title>
<g id="a_node5"><a xlink:href="./TABL_SRT_HEADER_ATTRIBUTE.html" xlink:title="TABL&#45;SRT_HEADER_ATTRIBUTE">
<polygon fill="none" stroke="yellow" points="248.32,-36 16.52,-36 16.52,0 248.32,0 248.32,-36"/>
<text text-anchor="middle" x="132.42" y="-13.8" font-family="Times,serif" font-size="14.00">TABL&#45;SRT_HEADER_ATTRIBUTE</text>
</a>
</g>
</g>
<!-- TTYP&#45;SRT_HEADER_ATTRIBUTE_TAB&#45;&gt;TABL&#45;SRT_HEADER_ATTRIBUTE -->
<g id="edge4" class="edge">
<title>TTYP&#45;SRT_HEADER_ATTRIBUTE_TAB&#45;&gt;TABL&#45;SRT_HEADER_ATTRIBUTE</title>
<path fill="none" stroke="black" d="M132.42,-71.7C132.42,-63.98 132.42,-54.71 132.42,-46.11"/>
<polygon fill="black" stroke="black" points="135.92,-46.1 132.42,-36.1 128.92,-46.1 135.92,-46.1"/>
</g>
</g>
</svg>
