<?xml version="1.0" encoding="UTF-8" standalone="no"?>
<!DOCTYPE svg PUBLIC "-//W3C//DTD SVG 1.1//EN"
 "http://www.w3.org/Graphics/SVG/1.1/DTD/svg11.dtd">
<!-- Generated by graphviz version 2.47.3 (20210619.1520)
 -->
<!-- Title: G Pages: 1 -->
<svg width="439pt" height="260pt"
 viewBox="0.00 0.00 438.69 260.00" xmlns="http://www.w3.org/2000/svg" xmlns:xlink="http://www.w3.org/1999/xlink">
<g id="graph0" class="graph" transform="scale(1 1) rotate(0) translate(4 256)">
<title>G</title>
<polygon fill="white" stroke="transparent" points="-4,4 -4,-256 434.69,-256 434.69,4 -4,4"/>
<!-- TTYP&#45;SUID_TT_NODE_SNC_EQUI_NAMES -->
<g id="node1" class="node">
<title>TTYP&#45;SUID_TT_NODE_SNC_EQUI_NAMES</title>
<polygon fill="none" stroke="yellow" points="375.76,-252 86.89,-252 86.89,-216 375.76,-216 375.76,-252"/>
<text text-anchor="middle" x="231.32" y="-229.8" font-family="Times,serif" font-size="14.00">TTYP&#45;SUID_TT_NODE_SNC_EQUI_NAMES</text>
</g>
<!-- TABL&#45;SUID_ST_NODE_SNC_EQUI_NAME -->
<g id="node2" class="node">
<title>TABL&#45;SUID_ST_NODE_SNC_EQUI_NAME</title>
<g id="a_node2"><a xlink:href="./TABL_SUID_ST_NODE_SNC_EQUI_NAME.html" xlink:title="TABL&#45;SUID_ST_NODE_SNC_EQUI_NAME">
<polygon fill="none" stroke="yellow" points="372.26,-180 90.39,-180 90.39,-144 372.26,-144 372.26,-180"/>
<text text-anchor="middle" x="231.32" y="-157.8" font-family="Times,serif" font-size="14.00">TABL&#45;SUID_ST_NODE_SNC_EQUI_NAME</text>
</a>
</g>
</g>
<!-- TTYP&#45;SUID_TT_NODE_SNC_EQUI_NAMES&#45;&gt;TABL&#45;SUID_ST_NODE_SNC_EQUI_NAME -->
<g id="edge1" class="edge">
<title>TTYP&#45;SUID_TT_NODE_SNC_EQUI_NAMES&#45;&gt;TABL&#45;SUID_ST_NODE_SNC_EQUI_NAME</title>
<path fill="none" stroke="black" d="M231.32,-215.7C231.32,-207.98 231.32,-198.71 231.32,-190.11"/>
<polygon fill="black" stroke="black" points="234.82,-190.1 231.32,-180.1 227.82,-190.1 234.82,-190.1"/>
</g>
<!-- DTEL&#45;SNC_PNAME -->
<g id="node3" class="node">
<title>DTEL&#45;SNC_PNAME</title>
<g id="a_node3"><a xlink:href="./DTEL_SNC_PNAME.html" xlink:title="DTEL&#45;SNC_PNAME">
<polygon fill="none" stroke="yellow" points="145.97,-108 6.68,-108 6.68,-72 145.97,-72 145.97,-108"/>
<text text-anchor="middle" x="76.32" y="-85.8" font-family="Times,serif" font-size="14.00">DTEL&#45;SNC_PNAME</text>
</a>
</g>
</g>
<!-- TABL&#45;SUID_ST_NODE_SNC_EQUI_NAME&#45;&gt;DTEL&#45;SNC_PNAME -->
<g id="edge4" class="edge">
<title>TABL&#45;SUID_ST_NODE_SNC_EQUI_NAME&#45;&gt;DTEL&#45;SNC_PNAME</title>
<path fill="none" stroke="black" d="M193.4,-143.88C172.31,-134.35 145.87,-122.41 123.45,-112.28"/>
<polygon fill="black" stroke="black" points="124.67,-108.99 114.12,-108.07 121.79,-115.37 124.67,-108.99"/>
</g>
<!-- DTEL&#45;XUBNAME -->
<g id="node5" class="node">
<title>DTEL&#45;XUBNAME</title>
<g id="a_node5"><a xlink:href="./DTEL_XUBNAME.html" xlink:title="DTEL&#45;XUBNAME">
<polygon fill="none" stroke="yellow" points="295.01,-108 167.64,-108 167.64,-72 295.01,-72 295.01,-108"/>
<text text-anchor="middle" x="231.32" y="-85.8" font-family="Times,serif" font-size="14.00">DTEL&#45;XUBNAME</text>
</a>
</g>
</g>
<!-- TABL&#45;SUID_ST_NODE_SNC_EQUI_NAME&#45;&gt;DTEL&#45;XUBNAME -->
<g id="edge3" class="edge">
<title>TABL&#45;SUID_ST_NODE_SNC_EQUI_NAME&#45;&gt;DTEL&#45;XUBNAME</title>
<path fill="none" stroke="black" d="M231.32,-143.7C231.32,-135.98 231.32,-126.71 231.32,-118.11"/>
<polygon fill="black" stroke="black" points="234.82,-118.1 231.32,-108.1 227.82,-118.1 234.82,-118.1"/>
</g>
<!-- DTEL&#45;MANDT -->
<g id="node7" class="node">
<title>DTEL&#45;MANDT</title>
<g id="a_node7"><a xlink:href="./DTEL_MANDT.html" xlink:title="DTEL&#45;MANDT">
<polygon fill="none" stroke="green" points="423.06,-108 315.58,-108 315.58,-72 423.06,-72 423.06,-108"/>
<text text-anchor="middle" x="369.32" y="-85.8" font-family="Times,serif" font-size="14.00">DTEL&#45;MANDT</text>
</a>
</g>
</g>
<!-- TABL&#45;SUID_ST_NODE_SNC_EQUI_NAME&#45;&gt;DTEL&#45;MANDT -->
<g id="edge2" class="edge">
<title>TABL&#45;SUID_ST_NODE_SNC_EQUI_NAME&#45;&gt;DTEL&#45;MANDT</title>
<path fill="none" stroke="black" d="M265.08,-143.88C283.54,-134.51 306.6,-122.81 326.34,-112.8"/>
<polygon fill="black" stroke="black" points="328.1,-115.83 335.43,-108.19 324.93,-109.59 328.1,-115.83"/>
</g>
<!-- DOMA&#45;SNC_PNAME -->
<g id="node4" class="node">
<title>DOMA&#45;SNC_PNAME</title>
<g id="a_node4"><a xlink:href="./DOMA_SNC_PNAME.html" xlink:title="DOMA&#45;SNC_PNAME">
<polygon fill="none" stroke="yellow" points="146.47,-36 0.18,-36 0.18,0 146.47,0 146.47,-36"/>
<text text-anchor="middle" x="73.32" y="-13.8" font-family="Times,serif" font-size="14.00">DOMA&#45;SNC_PNAME</text>
</a>
</g>
</g>
<!-- DTEL&#45;SNC_PNAME&#45;&gt;DOMA&#45;SNC_PNAME -->
<g id="edge5" class="edge">
<title>DTEL&#45;SNC_PNAME&#45;&gt;DOMA&#45;SNC_PNAME</title>
<path fill="none" stroke="black" d="M75.58,-71.7C75.25,-63.98 74.85,-54.71 74.48,-46.11"/>
<polygon fill="black" stroke="black" points="77.98,-45.95 74.05,-36.1 70.99,-46.25 77.98,-45.95"/>
</g>
<!-- DOMA&#45;XUBNAME -->
<g id="node6" class="node">
<title>DOMA&#45;XUBNAME</title>
<g id="a_node6"><a xlink:href="./DOMA_XUBNAME.html" xlink:title="DOMA&#45;XUBNAME">
<polygon fill="none" stroke="yellow" points="298.51,-36 164.14,-36 164.14,0 298.51,0 298.51,-36"/>
<text text-anchor="middle" x="231.32" y="-13.8" font-family="Times,serif" font-size="14.00">DOMA&#45;XUBNAME</text>
</a>
</g>
</g>
<!-- DTEL&#45;XUBNAME&#45;&gt;DOMA&#45;XUBNAME -->
<g id="edge6" class="edge">
<title>DTEL&#45;XUBNAME&#45;&gt;DOMA&#45;XUBNAME</title>
<path fill="none" stroke="black" d="M231.32,-71.7C231.32,-63.98 231.32,-54.71 231.32,-46.11"/>
<polygon fill="black" stroke="black" points="234.82,-46.1 231.32,-36.1 227.82,-46.1 234.82,-46.1"/>
</g>
<!-- DOMA&#45;MANDT -->
<g id="node8" class="node">
<title>DOMA&#45;MANDT</title>
<g id="a_node8"><a xlink:href="./DOMA_MANDT.html" xlink:title="DOMA&#45;MANDT">
<polygon fill="none" stroke="yellow" points="430.56,-36 316.08,-36 316.08,0 430.56,0 430.56,-36"/>
<text text-anchor="middle" x="373.32" y="-13.8" font-family="Times,serif" font-size="14.00">DOMA&#45;MANDT</text>
</a>
</g>
</g>
<!-- DTEL&#45;MANDT&#45;&gt;DOMA&#45;MANDT -->
<g id="edge7" class="edge">
<title>DTEL&#45;MANDT&#45;&gt;DOMA&#45;MANDT</title>
<path fill="none" stroke="black" d="M370.31,-71.7C370.75,-63.98 371.28,-54.71 371.77,-46.11"/>
<polygon fill="black" stroke="black" points="375.27,-46.29 372.34,-36.1 368.28,-45.89 375.27,-46.29"/>
</g>
</g>
</svg>
