<?xml version="1.0" encoding="UTF-8" standalone="no"?>
<!DOCTYPE svg PUBLIC "-//W3C//DTD SVG 1.1//EN"
 "http://www.w3.org/Graphics/SVG/1.1/DTD/svg11.dtd">
<!-- Generated by graphviz version 2.47.3 (20210619.1520)
 -->
<!-- Title: G Pages: 1 -->
<svg width="450pt" height="260pt"
 viewBox="0.00 0.00 449.94 260.00" xmlns="http://www.w3.org/2000/svg" xmlns:xlink="http://www.w3.org/1999/xlink">
<g id="graph0" class="graph" transform="scale(1 1) rotate(0) translate(4 256)">
<title>G</title>
<polygon fill="white" stroke="transparent" points="-4,4 -4,-256 445.94,-256 445.94,4 -4,4"/>
<!-- TTYP&#45;ABP_BEHV_RESPONSE_TAB -->
<g id="node1" class="node">
<title>TTYP&#45;ABP_BEHV_RESPONSE_TAB</title>
<polygon fill="none" stroke="green" points="329.68,-252 89.71,-252 89.71,-216 329.68,-216 329.68,-252"/>
<text text-anchor="middle" x="209.7" y="-229.8" font-family="Times,serif" font-size="14.00">TTYP&#45;ABP_BEHV_RESPONSE_TAB</text>
</g>
<!-- TABL&#45;ABP_BEHV_RESPONSE -->
<g id="node2" class="node">
<title>TABL&#45;ABP_BEHV_RESPONSE</title>
<g id="a_node2"><a xlink:href="./TABL_ABP_BEHV_RESPONSE.html" xlink:title="TABL&#45;ABP_BEHV_RESPONSE">
<polygon fill="none" stroke="green" points="312.74,-180 106.66,-180 106.66,-144 312.74,-144 312.74,-180"/>
<text text-anchor="middle" x="209.7" y="-157.8" font-family="Times,serif" font-size="14.00">TABL&#45;ABP_BEHV_RESPONSE</text>
</a>
</g>
</g>
<!-- TTYP&#45;ABP_BEHV_RESPONSE_TAB&#45;&gt;TABL&#45;ABP_BEHV_RESPONSE -->
<g id="edge1" class="edge">
<title>TTYP&#45;ABP_BEHV_RESPONSE_TAB&#45;&gt;TABL&#45;ABP_BEHV_RESPONSE</title>
<path fill="none" stroke="black" d="M209.7,-215.7C209.7,-207.98 209.7,-198.71 209.7,-190.11"/>
<polygon fill="black" stroke="black" points="213.2,-190.1 209.7,-180.1 206.2,-190.1 213.2,-190.1"/>
</g>
<!-- DTEL&#45;ABP_ENTITY_NAME -->
<g id="node3" class="node">
<title>DTEL&#45;ABP_ENTITY_NAME</title>
<g id="a_node3"><a xlink:href="./DTEL_ABP_ENTITY_NAME.html" xlink:title="DTEL&#45;ABP_ENTITY_NAME">
<polygon fill="none" stroke="green" points="189.59,-108 -0.2,-108 -0.2,-72 189.59,-72 189.59,-108"/>
<text text-anchor="middle" x="94.7" y="-85.8" font-family="Times,serif" font-size="14.00">DTEL&#45;ABP_ENTITY_NAME</text>
</a>
</g>
</g>
<!-- TABL&#45;ABP_BEHV_RESPONSE&#45;&gt;DTEL&#45;ABP_ENTITY_NAME -->
<g id="edge3" class="edge">
<title>TABL&#45;ABP_BEHV_RESPONSE&#45;&gt;DTEL&#45;ABP_ENTITY_NAME</title>
<path fill="none" stroke="black" d="M181.56,-143.88C166.53,-134.72 147.83,-123.34 131.64,-113.48"/>
<polygon fill="black" stroke="black" points="133.3,-110.4 122.94,-108.19 129.66,-116.38 133.3,-110.4"/>
</g>
<!-- DTEL&#45;ABP_ROOT_ENTITY_NAME -->
<g id="node5" class="node">
<title>DTEL&#45;ABP_ROOT_ENTITY_NAME</title>
<g id="a_node5"><a xlink:href="./DTEL_ABP_ROOT_ENTITY_NAME.html" xlink:title="DTEL&#45;ABP_ROOT_ENTITY_NAME">
<polygon fill="none" stroke="green" points="442.19,-108 207.2,-108 207.2,-72 442.19,-72 442.19,-108"/>
<text text-anchor="middle" x="324.7" y="-85.8" font-family="Times,serif" font-size="14.00">DTEL&#45;ABP_ROOT_ENTITY_NAME</text>
</a>
</g>
</g>
<!-- TABL&#45;ABP_BEHV_RESPONSE&#45;&gt;DTEL&#45;ABP_ROOT_ENTITY_NAME -->
<g id="edge2" class="edge">
<title>TABL&#45;ABP_BEHV_RESPONSE&#45;&gt;DTEL&#45;ABP_ROOT_ENTITY_NAME</title>
<path fill="none" stroke="black" d="M237.83,-143.88C252.86,-134.72 271.56,-123.34 287.76,-113.48"/>
<polygon fill="black" stroke="black" points="289.73,-116.38 296.46,-108.19 286.09,-110.4 289.73,-116.38"/>
</g>
<!-- DOMA&#45;ABP_ENTITY_NAME -->
<g id="node4" class="node">
<title>DOMA&#45;ABP_ENTITY_NAME</title>
<g id="a_node4"><a xlink:href="./DOMA_ABP_ENTITY_NAME.html" xlink:title="DOMA&#45;ABP_ENTITY_NAME">
<polygon fill="none" stroke="yellow" points="308.09,-36 111.3,-36 111.3,0 308.09,0 308.09,-36"/>
<text text-anchor="middle" x="209.7" y="-13.8" font-family="Times,serif" font-size="14.00">DOMA&#45;ABP_ENTITY_NAME</text>
</a>
</g>
</g>
<!-- DTEL&#45;ABP_ENTITY_NAME&#45;&gt;DOMA&#45;ABP_ENTITY_NAME -->
<g id="edge4" class="edge">
<title>DTEL&#45;ABP_ENTITY_NAME&#45;&gt;DOMA&#45;ABP_ENTITY_NAME</title>
<path fill="none" stroke="black" d="M122.83,-71.88C137.86,-62.72 156.56,-51.34 172.76,-41.48"/>
<polygon fill="black" stroke="black" points="174.73,-44.38 181.46,-36.19 171.09,-38.4 174.73,-44.38"/>
</g>
<!-- DTEL&#45;ABP_ROOT_ENTITY_NAME&#45;&gt;DOMA&#45;ABP_ENTITY_NAME -->
<g id="edge5" class="edge">
<title>DTEL&#45;ABP_ROOT_ENTITY_NAME&#45;&gt;DOMA&#45;ABP_ENTITY_NAME</title>
<path fill="none" stroke="black" d="M296.56,-71.88C281.53,-62.72 262.83,-51.34 246.64,-41.48"/>
<polygon fill="black" stroke="black" points="248.3,-38.4 237.94,-36.19 244.66,-44.38 248.3,-38.4"/>
</g>
</g>
</svg>
