<?xml version="1.0" encoding="UTF-8" standalone="no"?>
<!DOCTYPE svg PUBLIC "-//W3C//DTD SVG 1.1//EN"
 "http://www.w3.org/Graphics/SVG/1.1/DTD/svg11.dtd">
<!-- Generated by graphviz version 2.47.3 (20210619.1520)
 -->
<!-- Title: G Pages: 1 -->
<svg width="280pt" height="260pt"
 viewBox="0.00 0.00 279.75 260.00" xmlns="http://www.w3.org/2000/svg" xmlns:xlink="http://www.w3.org/1999/xlink">
<g id="graph0" class="graph" transform="scale(1 1) rotate(0) translate(4 256)">
<title>G</title>
<polygon fill="white" stroke="transparent" points="-4,4 -4,-256 275.75,-256 275.75,4 -4,4"/>
<!-- TTYP&#45;FDT_BRS_T_TRACE_RECORD -->
<g id="node1" class="node">
<title>TTYP&#45;FDT_BRS_T_TRACE_RECORD</title>
<polygon fill="none" stroke="green" points="256.42,-252 8.89,-252 8.89,-216 256.42,-216 256.42,-252"/>
<text text-anchor="middle" x="132.66" y="-229.8" font-family="Times,serif" font-size="14.00">TTYP&#45;FDT_BRS_T_TRACE_RECORD</text>
</g>
<!-- TABL&#45;FDT_BRS_S_TRACE_RECORD -->
<g id="node2" class="node">
<title>TABL&#45;FDT_BRS_S_TRACE_RECORD</title>
<g id="a_node2"><a xlink:href="./TABL_FDT_BRS_S_TRACE_RECORD.html" xlink:title="TABL&#45;FDT_BRS_S_TRACE_RECORD">
<polygon fill="none" stroke="green" points="256.71,-180 8.61,-180 8.61,-144 256.71,-144 256.71,-180"/>
<text text-anchor="middle" x="132.66" y="-157.8" font-family="Times,serif" font-size="14.00">TABL&#45;FDT_BRS_S_TRACE_RECORD</text>
</a>
</g>
</g>
<!-- TTYP&#45;FDT_BRS_T_TRACE_RECORD&#45;&gt;TABL&#45;FDT_BRS_S_TRACE_RECORD -->
<g id="edge1" class="edge">
<title>TTYP&#45;FDT_BRS_T_TRACE_RECORD&#45;&gt;TABL&#45;FDT_BRS_S_TRACE_RECORD</title>
<path fill="none" stroke="black" d="M132.66,-215.7C132.66,-207.98 132.66,-198.71 132.66,-190.11"/>
<polygon fill="black" stroke="black" points="136.16,-190.1 132.66,-180.1 129.16,-190.1 136.16,-190.1"/>
</g>
<!-- DTEL&#45;CHAR100 -->
<g id="node3" class="node">
<title>DTEL&#45;CHAR100</title>
<g id="a_node3"><a xlink:href="./DTEL_CHAR100.html" xlink:title="DTEL&#45;CHAR100">
<polygon fill="none" stroke="yellow" points="119.97,-108 3.34,-108 3.34,-72 119.97,-72 119.97,-108"/>
<text text-anchor="middle" x="61.66" y="-85.8" font-family="Times,serif" font-size="14.00">DTEL&#45;CHAR100</text>
</a>
</g>
</g>
<!-- TABL&#45;FDT_BRS_S_TRACE_RECORD&#45;&gt;DTEL&#45;CHAR100 -->
<g id="edge3" class="edge">
<title>TABL&#45;FDT_BRS_S_TRACE_RECORD&#45;&gt;DTEL&#45;CHAR100</title>
<path fill="none" stroke="black" d="M115.11,-143.7C106.42,-135.14 95.79,-124.66 86.31,-115.3"/>
<polygon fill="black" stroke="black" points="88.58,-112.63 79,-108.1 83.67,-117.62 88.58,-112.63"/>
</g>
<!-- DTEL&#45;SYSUUID_X -->
<g id="node5" class="node">
<title>DTEL&#45;SYSUUID_X</title>
<g id="a_node5"><a xlink:href="./DTEL_SYSUUID_X.html" xlink:title="DTEL&#45;SYSUUID_X">
<polygon fill="none" stroke="yellow" points="271.84,-108 137.47,-108 137.47,-72 271.84,-72 271.84,-108"/>
<text text-anchor="middle" x="204.66" y="-85.8" font-family="Times,serif" font-size="14.00">DTEL&#45;SYSUUID_X</text>
</a>
</g>
</g>
<!-- TABL&#45;FDT_BRS_S_TRACE_RECORD&#45;&gt;DTEL&#45;SYSUUID_X -->
<g id="edge2" class="edge">
<title>TABL&#45;FDT_BRS_S_TRACE_RECORD&#45;&gt;DTEL&#45;SYSUUID_X</title>
<path fill="none" stroke="black" d="M150.45,-143.7C159.26,-135.14 170.04,-124.66 179.66,-115.3"/>
<polygon fill="black" stroke="black" points="182.33,-117.58 187.06,-108.1 177.45,-112.57 182.33,-117.58"/>
</g>
<!-- DOMA&#45;CHAR100 -->
<g id="node4" class="node">
<title>DOMA&#45;CHAR100</title>
<g id="a_node4"><a xlink:href="./DOMA_CHAR100.html" xlink:title="DOMA&#45;CHAR100">
<polygon fill="none" stroke="yellow" points="123.47,-36 -0.16,-36 -0.16,0 123.47,0 123.47,-36"/>
<text text-anchor="middle" x="61.66" y="-13.8" font-family="Times,serif" font-size="14.00">DOMA&#45;CHAR100</text>
</a>
</g>
</g>
<!-- DTEL&#45;CHAR100&#45;&gt;DOMA&#45;CHAR100 -->
<g id="edge4" class="edge">
<title>DTEL&#45;CHAR100&#45;&gt;DOMA&#45;CHAR100</title>
<path fill="none" stroke="black" d="M61.66,-71.7C61.66,-63.98 61.66,-54.71 61.66,-46.11"/>
<polygon fill="black" stroke="black" points="65.16,-46.1 61.66,-36.1 58.16,-46.1 65.16,-46.1"/>
</g>
<!-- DOMA&#45;SYSUUID -->
<g id="node6" class="node">
<title>DOMA&#45;SYSUUID</title>
<g id="a_node6"><a xlink:href="./DOMA_SYSUUID.html" xlink:title="DOMA&#45;SYSUUID">
<polygon fill="none" stroke="yellow" points="266.73,-36 142.58,-36 142.58,0 266.73,0 266.73,-36"/>
<text text-anchor="middle" x="204.66" y="-13.8" font-family="Times,serif" font-size="14.00">DOMA&#45;SYSUUID</text>
</a>
</g>
</g>
<!-- DTEL&#45;SYSUUID_X&#45;&gt;DOMA&#45;SYSUUID -->
<g id="edge5" class="edge">
<title>DTEL&#45;SYSUUID_X&#45;&gt;DOMA&#45;SYSUUID</title>
<path fill="none" stroke="black" d="M204.66,-71.7C204.66,-63.98 204.66,-54.71 204.66,-46.11"/>
<polygon fill="black" stroke="black" points="208.16,-46.1 204.66,-36.1 201.16,-46.1 208.16,-46.1"/>
</g>
</g>
</svg>
