<?xml version="1.0" encoding="UTF-8" standalone="no"?>
<!DOCTYPE svg PUBLIC "-//W3C//DTD SVG 1.1//EN"
 "http://www.w3.org/Graphics/SVG/1.1/DTD/svg11.dtd">
<!-- Generated by graphviz version 2.47.3 (20210619.1520)
 -->
<!-- Title: G Pages: 1 -->
<svg width="4694pt" height="404pt"
 viewBox="0.00 0.00 4693.97 404.00" xmlns="http://www.w3.org/2000/svg" xmlns:xlink="http://www.w3.org/1999/xlink">
<g id="graph0" class="graph" transform="scale(1 1) rotate(0) translate(4 400)">
<title>G</title>
<polygon fill="white" stroke="transparent" points="-4,4 -4,-400 4689.97,-400 4689.97,4 -4,4"/>
<!-- TTYP&#45;ITAPS_COM_CA_OUT_SRV_TP -->
<g id="node1" class="node">
<title>TTYP&#45;ITAPS_COM_CA_OUT_SRV_TP</title>
<polygon fill="none" stroke="yellow" points="2707.74,-396 2454.34,-396 2454.34,-360 2707.74,-360 2707.74,-396"/>
<text text-anchor="middle" x="2581.04" y="-373.8" font-family="Times,serif" font-size="14.00">TTYP&#45;ITAPS_COM_CA_OUT_SRV_TP</text>
</g>
<!-- TABL&#45;ISAPS_COM_CA_OUT_SRV_TP -->
<g id="node2" class="node">
<title>TABL&#45;ISAPS_COM_CA_OUT_SRV_TP</title>
<g id="a_node2"><a xlink:href="./TABL_ISAPS_COM_CA_OUT_SRV_TP.html" xlink:title="TABL&#45;ISAPS_COM_CA_OUT_SRV_TP">
<polygon fill="none" stroke="yellow" points="2708.02,-324 2454.06,-324 2454.06,-288 2708.02,-288 2708.02,-324"/>
<text text-anchor="middle" x="2581.04" y="-301.8" font-family="Times,serif" font-size="14.00">TABL&#45;ISAPS_COM_CA_OUT_SRV_TP</text>
</a>
</g>
</g>
<!-- TTYP&#45;ITAPS_COM_CA_OUT_SRV_TP&#45;&gt;TABL&#45;ISAPS_COM_CA_OUT_SRV_TP -->
<g id="edge1" class="edge">
<title>TTYP&#45;ITAPS_COM_CA_OUT_SRV_TP&#45;&gt;TABL&#45;ISAPS_COM_CA_OUT_SRV_TP</title>
<path fill="none" stroke="black" d="M2581.04,-359.7C2581.04,-351.98 2581.04,-342.71 2581.04,-334.11"/>
<polygon fill="black" stroke="black" points="2584.54,-334.1 2581.04,-324.1 2577.54,-334.1 2584.54,-334.1"/>
</g>
<!-- TABL&#45;ISAPS_COM_CA_OUT_SRV_TP_D -->
<g id="node3" class="node">
<title>TABL&#45;ISAPS_COM_CA_OUT_SRV_TP_D</title>
<g id="a_node3"><a xlink:href="./TABL_ISAPS_COM_CA_OUT_SRV_TP_D.html" xlink:title="TABL&#45;ISAPS_COM_CA_OUT_SRV_TP_D">
<polygon fill="none" stroke="yellow" points="2584.63,-252 2313.45,-252 2313.45,-216 2584.63,-216 2584.63,-252"/>
<text text-anchor="middle" x="2449.04" y="-229.8" font-family="Times,serif" font-size="14.00">TABL&#45;ISAPS_COM_CA_OUT_SRV_TP_D</text>
</a>
</g>
</g>
<!-- TABL&#45;ISAPS_COM_CA_OUT_SRV_TP&#45;&gt;TABL&#45;ISAPS_COM_CA_OUT_SRV_TP_D -->
<g id="edge3" class="edge">
<title>TABL&#45;ISAPS_COM_CA_OUT_SRV_TP&#45;&gt;TABL&#45;ISAPS_COM_CA_OUT_SRV_TP_D</title>
<path fill="none" stroke="black" d="M2548.75,-287.88C2531.17,-278.55 2509.23,-266.92 2490.41,-256.94"/>
<polygon fill="black" stroke="black" points="2491.93,-253.78 2481.45,-252.19 2488.65,-259.97 2491.93,-253.78"/>
</g>
<!-- TABL&#45;/BOBF/S_FRW_KEY_INCL -->
<g id="node42" class="node">
<title>TABL&#45;/BOBF/S_FRW_KEY_INCL</title>
<g id="a_node42"><a xlink:href="./TABL_%23BOBF%23S_FRW_KEY_INCL.html" xlink:title="TABL&#45;/BOBF/S_FRW_KEY_INCL">
<polygon fill="none" stroke="yellow" points="3767.13,-252 3544.95,-252 3544.95,-216 3767.13,-216 3767.13,-252"/>
<text text-anchor="middle" x="3656.04" y="-229.8" font-family="Times,serif" font-size="14.00">TABL&#45;/BOBF/S_FRW_KEY_INCL</text>
</a>
</g>
</g>
<!-- TABL&#45;ISAPS_COM_CA_OUT_SRV_TP&#45;&gt;TABL&#45;/BOBF/S_FRW_KEY_INCL -->
<g id="edge2" class="edge">
<title>TABL&#45;ISAPS_COM_CA_OUT_SRV_TP&#45;&gt;TABL&#45;/BOBF/S_FRW_KEY_INCL</title>
<path fill="none" stroke="black" d="M2708.05,-296.73C2916.76,-283.14 3329.53,-256.26 3534.57,-242.91"/>
<polygon fill="black" stroke="black" points="3535.02,-246.39 3544.78,-242.25 3534.57,-239.4 3535.02,-246.39"/>
</g>
<!-- DTEL&#45;SDRAFT_IS_ACTIVE -->
<g id="node4" class="node">
<title>DTEL&#45;SDRAFT_IS_ACTIVE</title>
<g id="a_node4"><a xlink:href="./DTEL_SDRAFT_IS_ACTIVE.html" xlink:title="DTEL&#45;SDRAFT_IS_ACTIVE">
<polygon fill="none" stroke="yellow" points="740.89,-180 553.19,-180 553.19,-144 740.89,-144 740.89,-180"/>
<text text-anchor="middle" x="647.04" y="-157.8" font-family="Times,serif" font-size="14.00">DTEL&#45;SDRAFT_IS_ACTIVE</text>
</a>
</g>
</g>
<!-- TABL&#45;ISAPS_COM_CA_OUT_SRV_TP_D&#45;&gt;DTEL&#45;SDRAFT_IS_ACTIVE -->
<g id="edge21" class="edge">
<title>TABL&#45;ISAPS_COM_CA_OUT_SRV_TP_D&#45;&gt;DTEL&#45;SDRAFT_IS_ACTIVE</title>
<path fill="none" stroke="black" d="M2313.39,-230.84C1967.66,-224.99 1059.59,-207.42 759.04,-180 756.47,-179.77 753.87,-179.51 751.25,-179.24"/>
<polygon fill="black" stroke="black" points="751.37,-175.73 741.05,-178.1 750.6,-182.69 751.37,-175.73"/>
</g>
<!-- TABL&#45;SDRAFT_WRITE_DRAFT_ADMIN -->
<g id="node6" class="node">
<title>TABL&#45;SDRAFT_WRITE_DRAFT_ADMIN</title>
<g id="a_node6"><a xlink:href="./TABL_SDRAFT_WRITE_DRAFT_ADMIN.html" xlink:title="TABL&#45;SDRAFT_WRITE_DRAFT_ADMIN">
<polygon fill="none" stroke="yellow" points="1037.54,-180 768.54,-180 768.54,-144 1037.54,-144 1037.54,-180"/>
<text text-anchor="middle" x="903.04" y="-157.8" font-family="Times,serif" font-size="14.00">TABL&#45;SDRAFT_WRITE_DRAFT_ADMIN</text>
</a>
</g>
</g>
<!-- TABL&#45;ISAPS_COM_CA_OUT_SRV_TP_D&#45;&gt;TABL&#45;SDRAFT_WRITE_DRAFT_ADMIN -->
<g id="edge20" class="edge">
<title>TABL&#45;ISAPS_COM_CA_OUT_SRV_TP_D&#45;&gt;TABL&#45;SDRAFT_WRITE_DRAFT_ADMIN</title>
<path fill="none" stroke="black" d="M2313.2,-226.85C2023.15,-213.72 1345.51,-183.03 1047.74,-169.55"/>
<polygon fill="black" stroke="black" points="1047.9,-166.06 1037.75,-169.1 1047.58,-173.05 1047.9,-166.06"/>
</g>
<!-- DTEL&#45;SDRAFT_HAS_ACTIVE -->
<g id="node16" class="node">
<title>DTEL&#45;SDRAFT_HAS_ACTIVE</title>
<g id="a_node16"><a xlink:href="./DTEL_SDRAFT_HAS_ACTIVE.html" xlink:title="DTEL&#45;SDRAFT_HAS_ACTIVE">
<polygon fill="none" stroke="yellow" points="515.94,-180 312.14,-180 312.14,-144 515.94,-144 515.94,-180"/>
<text text-anchor="middle" x="414.04" y="-157.8" font-family="Times,serif" font-size="14.00">DTEL&#45;SDRAFT_HAS_ACTIVE</text>
</a>
</g>
</g>
<!-- TABL&#45;ISAPS_COM_CA_OUT_SRV_TP_D&#45;&gt;DTEL&#45;SDRAFT_HAS_ACTIVE -->
<g id="edge19" class="edge">
<title>TABL&#45;ISAPS_COM_CA_OUT_SRV_TP_D&#45;&gt;DTEL&#45;SDRAFT_HAS_ACTIVE</title>
<path fill="none" stroke="black" d="M2313.49,-231.03C1937.8,-225.29 888.3,-207.23 544.04,-180 538.15,-179.53 532.12,-178.99 526.04,-178.38"/>
<polygon fill="black" stroke="black" points="526.08,-174.87 515.77,-177.31 525.36,-181.83 526.08,-174.87"/>
</g>
<!-- DTEL&#45;/BOBF/UUID -->
<g id="node17" class="node">
<title>DTEL&#45;/BOBF/UUID</title>
<g id="a_node17"><a xlink:href="./DTEL_%23BOBF%23UUID.html" xlink:title="DTEL&#45;/BOBF/UUID">
<polygon fill="none" stroke="yellow" points="1534.79,-108 1399.29,-108 1399.29,-72 1534.79,-72 1534.79,-108"/>
<text text-anchor="middle" x="1467.04" y="-85.8" font-family="Times,serif" font-size="14.00">DTEL&#45;/BOBF/UUID</text>
</a>
</g>
</g>
<!-- TABL&#45;ISAPS_COM_CA_OUT_SRV_TP_D&#45;&gt;DTEL&#45;/BOBF/UUID -->
<g id="edge18" class="edge">
<title>TABL&#45;ISAPS_COM_CA_OUT_SRV_TP_D&#45;&gt;DTEL&#45;/BOBF/UUID</title>
<path fill="none" stroke="black" d="M2313.46,-230C2054.53,-223.67 1512.51,-207.23 1482.04,-180 1465.1,-164.87 1462.54,-138.34 1463.5,-118.17"/>
<polygon fill="black" stroke="black" points="1467,-118.26 1464.3,-108.01 1460.02,-117.71 1467,-118.26"/>
</g>
<!-- DTEL&#45;APS_COM_CSCN_ID -->
<g id="node18" class="node">
<title>DTEL&#45;APS_COM_CSCN_ID</title>
<g id="a_node18"><a xlink:href="./DTEL_APS_COM_CSCN_ID.html" xlink:title="DTEL&#45;APS_COM_CSCN_ID">
<polygon fill="none" stroke="yellow" points="1677.35,-180 1490.73,-180 1490.73,-144 1677.35,-144 1677.35,-180"/>
<text text-anchor="middle" x="1584.04" y="-157.8" font-family="Times,serif" font-size="14.00">DTEL&#45;APS_COM_CSCN_ID</text>
</a>
</g>
</g>
<!-- TABL&#45;ISAPS_COM_CA_OUT_SRV_TP_D&#45;&gt;DTEL&#45;APS_COM_CSCN_ID -->
<g id="edge17" class="edge">
<title>TABL&#45;ISAPS_COM_CA_OUT_SRV_TP_D&#45;&gt;DTEL&#45;APS_COM_CSCN_ID</title>
<path fill="none" stroke="black" d="M2313.44,-227.43C2163.02,-220.36 1912.97,-206 1687.5,-179.98"/>
<polygon fill="black" stroke="black" points="1687.8,-176.49 1677.46,-178.81 1686.99,-183.44 1687.8,-176.49"/>
</g>
<!-- DTEL&#45;APS_CA_SOAP_WSRM_VERSION -->
<g id="node20" class="node">
<title>DTEL&#45;APS_CA_SOAP_WSRM_VERSION</title>
<g id="a_node20"><a xlink:href="./DTEL_APS_CA_SOAP_WSRM_VERSION.html" xlink:title="DTEL&#45;APS_CA_SOAP_WSRM_VERSION">
<polygon fill="none" stroke="yellow" points="1964.29,-180 1695.79,-180 1695.79,-144 1964.29,-144 1964.29,-180"/>
<text text-anchor="middle" x="1830.04" y="-157.8" font-family="Times,serif" font-size="14.00">DTEL&#45;APS_CA_SOAP_WSRM_VERSION</text>
</a>
</g>
</g>
<!-- TABL&#45;ISAPS_COM_CA_OUT_SRV_TP_D&#45;&gt;DTEL&#45;APS_CA_SOAP_WSRM_VERSION -->
<g id="edge16" class="edge">
<title>TABL&#45;ISAPS_COM_CA_OUT_SRV_TP_D&#45;&gt;DTEL&#45;APS_CA_SOAP_WSRM_VERSION</title>
<path fill="none" stroke="black" d="M2313.37,-218.1C2220.95,-207.89 2095.5,-193.92 1974.73,-180.08"/>
<polygon fill="black" stroke="black" points="1974.89,-176.57 1964.56,-178.91 1974.09,-183.53 1974.89,-176.57"/>
</g>
<!-- DTEL&#45;APS_CA_IDOC_BASICTYPE -->
<g id="node22" class="node">
<title>DTEL&#45;APS_CA_IDOC_BASICTYPE</title>
<g id="a_node22"><a xlink:href="./DTEL_APS_CA_IDOC_BASICTYPE.html" xlink:title="DTEL&#45;APS_CA_IDOC_BASICTYPE">
<polygon fill="none" stroke="yellow" points="2215.51,-180 1982.57,-180 1982.57,-144 2215.51,-144 2215.51,-180"/>
<text text-anchor="middle" x="2099.04" y="-157.8" font-family="Times,serif" font-size="14.00">DTEL&#45;APS_CA_IDOC_BASICTYPE</text>
</a>
</g>
</g>
<!-- TABL&#45;ISAPS_COM_CA_OUT_SRV_TP_D&#45;&gt;DTEL&#45;APS_CA_IDOC_BASICTYPE -->
<g id="edge15" class="edge">
<title>TABL&#45;ISAPS_COM_CA_OUT_SRV_TP_D&#45;&gt;DTEL&#45;APS_CA_IDOC_BASICTYPE</title>
<path fill="none" stroke="black" d="M2363.87,-215.97C2312.64,-205.72 2247.32,-192.66 2194.37,-182.07"/>
<polygon fill="black" stroke="black" points="2194.78,-178.58 2184.29,-180.05 2193.41,-185.44 2194.78,-178.58"/>
</g>
<!-- DTEL&#45;BOOLE_D -->
<g id="node24" class="node">
<title>DTEL&#45;BOOLE_D</title>
<g id="a_node24"><a xlink:href="./DTEL_BOOLE_D.html" xlink:title="DTEL&#45;BOOLE_D">
<polygon fill="none" stroke="yellow" points="257.23,-180 136.85,-180 136.85,-144 257.23,-144 257.23,-180"/>
<text text-anchor="middle" x="197.04" y="-157.8" font-family="Times,serif" font-size="14.00">DTEL&#45;BOOLE_D</text>
</a>
</g>
</g>
<!-- TABL&#45;ISAPS_COM_CA_OUT_SRV_TP_D&#45;&gt;DTEL&#45;BOOLE_D -->
<g id="edge14" class="edge">
<title>TABL&#45;ISAPS_COM_CA_OUT_SRV_TP_D&#45;&gt;DTEL&#45;BOOLE_D</title>
<path fill="none" stroke="black" d="M2313.35,-232.04C1905.68,-228.76 695.72,-216.17 303.04,-180 291.44,-178.93 279.19,-177.37 267.29,-175.62"/>
<polygon fill="black" stroke="black" points="267.81,-172.16 257.4,-174.12 266.76,-179.08 267.81,-172.16"/>
</g>
<!-- DTEL&#45;TIMESTAMP -->
<g id="node25" class="node">
<title>DTEL&#45;TIMESTAMP</title>
<g id="a_node25"><a xlink:href="./DTEL_TIMESTAMP.html" xlink:title="DTEL&#45;TIMESTAMP">
<polygon fill="none" stroke="green" points="2370.84,-180 2233.24,-180 2233.24,-144 2370.84,-144 2370.84,-180"/>
<text text-anchor="middle" x="2302.04" y="-157.8" font-family="Times,serif" font-size="14.00">DTEL&#45;TIMESTAMP</text>
</a>
</g>
</g>
<!-- TABL&#45;ISAPS_COM_CA_OUT_SRV_TP_D&#45;&gt;DTEL&#45;TIMESTAMP -->
<g id="edge13" class="edge">
<title>TABL&#45;ISAPS_COM_CA_OUT_SRV_TP_D&#45;&gt;DTEL&#45;TIMESTAMP</title>
<path fill="none" stroke="black" d="M2413.08,-215.88C2393.16,-206.39 2368.22,-194.51 2347.02,-184.42"/>
<polygon fill="black" stroke="black" points="2348.42,-181.21 2337.88,-180.07 2345.41,-187.53 2348.42,-181.21"/>
</g>
<!-- DTEL&#45;TZNZONE -->
<g id="node27" class="node">
<title>DTEL&#45;TZNZONE</title>
<g id="a_node27"><a xlink:href="./DTEL_TZNZONE.html" xlink:title="DTEL&#45;TZNZONE">
<polygon fill="none" stroke="green" points="2509.5,-180 2388.58,-180 2388.58,-144 2509.5,-144 2509.5,-180"/>
<text text-anchor="middle" x="2449.04" y="-157.8" font-family="Times,serif" font-size="14.00">DTEL&#45;TZNZONE</text>
</a>
</g>
</g>
<!-- TABL&#45;ISAPS_COM_CA_OUT_SRV_TP_D&#45;&gt;DTEL&#45;TZNZONE -->
<g id="edge12" class="edge">
<title>TABL&#45;ISAPS_COM_CA_OUT_SRV_TP_D&#45;&gt;DTEL&#45;TZNZONE</title>
<path fill="none" stroke="black" d="M2449.04,-215.7C2449.04,-207.98 2449.04,-198.71 2449.04,-190.11"/>
<polygon fill="black" stroke="black" points="2452.54,-190.1 2449.04,-180.1 2445.54,-190.1 2452.54,-190.1"/>
</g>
<!-- DTEL&#45;BTCSDLTIME -->
<g id="node29" class="node">
<title>DTEL&#45;BTCSDLTIME</title>
<g id="a_node29"><a xlink:href="./DTEL_BTCSDLTIME.html" xlink:title="DTEL&#45;BTCSDLTIME">
<polygon fill="none" stroke="yellow" points="2672.34,-180 2527.74,-180 2527.74,-144 2672.34,-144 2672.34,-180"/>
<text text-anchor="middle" x="2600.04" y="-157.8" font-family="Times,serif" font-size="14.00">DTEL&#45;BTCSDLTIME</text>
</a>
</g>
</g>
<!-- TABL&#45;ISAPS_COM_CA_OUT_SRV_TP_D&#45;&gt;DTEL&#45;BTCSDLTIME -->
<g id="edge11" class="edge">
<title>TABL&#45;ISAPS_COM_CA_OUT_SRV_TP_D&#45;&gt;DTEL&#45;BTCSDLTIME</title>
<path fill="none" stroke="black" d="M2485.98,-215.88C2506.53,-206.35 2532.29,-194.41 2554.13,-184.28"/>
<polygon fill="black" stroke="black" points="2555.62,-187.45 2563.22,-180.07 2552.68,-181.1 2555.62,-187.45"/>
</g>
<!-- DTEL&#45;JR_FREQUENCY -->
<g id="node31" class="node">
<title>DTEL&#45;JR_FREQUENCY</title>
<g id="a_node31"><a xlink:href="./DTEL_JR_FREQUENCY.html" xlink:title="DTEL&#45;JR_FREQUENCY">
<polygon fill="none" stroke="yellow" points="3438.23,-180 3275.85,-180 3275.85,-144 3438.23,-144 3438.23,-180"/>
<text text-anchor="middle" x="3357.04" y="-157.8" font-family="Times,serif" font-size="14.00">DTEL&#45;JR_FREQUENCY</text>
</a>
</g>
</g>
<!-- TABL&#45;ISAPS_COM_CA_OUT_SRV_TP_D&#45;&gt;DTEL&#45;JR_FREQUENCY -->
<g id="edge10" class="edge">
<title>TABL&#45;ISAPS_COM_CA_OUT_SRV_TP_D&#45;&gt;DTEL&#45;JR_FREQUENCY</title>
<path fill="none" stroke="black" d="M2584.85,-229.27C2745.32,-223.71 3020.43,-210.56 3265.5,-180.11"/>
<polygon fill="black" stroke="black" points="3266.19,-183.55 3275.68,-178.83 3265.32,-176.6 3266.19,-183.55"/>
</g>
<!-- DTEL&#45;APS_CA_OUTBOUND_STATUS -->
<g id="node33" class="node">
<title>DTEL&#45;APS_CA_OUTBOUND_STATUS</title>
<g id="a_node33"><a xlink:href="./DTEL_APS_CA_OUTBOUND_STATUS.html" xlink:title="DTEL&#45;APS_CA_OUTBOUND_STATUS">
<polygon fill="none" stroke="yellow" points="3959.99,-180 3706.09,-180 3706.09,-144 3959.99,-144 3959.99,-180"/>
<text text-anchor="middle" x="3833.04" y="-157.8" font-family="Times,serif" font-size="14.00">DTEL&#45;APS_CA_OUTBOUND_STATUS</text>
</a>
</g>
</g>
<!-- TABL&#45;ISAPS_COM_CA_OUT_SRV_TP_D&#45;&gt;DTEL&#45;APS_CA_OUTBOUND_STATUS -->
<g id="edge9" class="edge">
<title>TABL&#45;ISAPS_COM_CA_OUT_SRV_TP_D&#45;&gt;DTEL&#45;APS_CA_OUTBOUND_STATUS</title>
<path fill="none" stroke="black" d="M2585,-230.87C2812.71,-226.49 3285.76,-213.94 3696.04,-180.04"/>
<polygon fill="black" stroke="black" points="3696.35,-183.53 3706.03,-179.21 3695.77,-176.55 3696.35,-183.53"/>
</g>
<!-- DTEL&#45;APS_CA_OUTBSERVICEURLPATH -->
<g id="node35" class="node">
<title>DTEL&#45;APS_CA_OUTBSERVICEURLPATH</title>
<g id="a_node35"><a xlink:href="./DTEL_APS_CA_OUTBSERVICEURLPATH.html" xlink:title="DTEL&#45;APS_CA_OUTBSERVICEURLPATH">
<polygon fill="none" stroke="yellow" points="2966.06,-180 2690.02,-180 2690.02,-144 2966.06,-144 2966.06,-180"/>
<text text-anchor="middle" x="2828.04" y="-157.8" font-family="Times,serif" font-size="14.00">DTEL&#45;APS_CA_OUTBSERVICEURLPATH</text>
</a>
</g>
</g>
<!-- TABL&#45;ISAPS_COM_CA_OUT_SRV_TP_D&#45;&gt;DTEL&#45;APS_CA_OUTBSERVICEURLPATH -->
<g id="edge8" class="edge">
<title>TABL&#45;ISAPS_COM_CA_OUT_SRV_TP_D&#45;&gt;DTEL&#45;APS_CA_OUTBSERVICEURLPATH</title>
<path fill="none" stroke="black" d="M2541.27,-215.97C2597.09,-205.66 2668.36,-192.49 2725.89,-181.87"/>
<polygon fill="black" stroke="black" points="2726.53,-185.31 2735.73,-180.05 2725.26,-178.42 2726.53,-185.31"/>
</g>
<!-- DTEL&#45;APS_CA_OUTBSERVICETCPPORT -->
<g id="node36" class="node">
<title>DTEL&#45;APS_CA_OUTBSERVICETCPPORT</title>
<g id="a_node36"><a xlink:href="./DTEL_APS_CA_OUTBSERVICETCPPORT.html" xlink:title="DTEL&#45;APS_CA_OUTBSERVICETCPPORT">
<polygon fill="none" stroke="yellow" points="3257.96,-180 2984.12,-180 2984.12,-144 3257.96,-144 3257.96,-180"/>
<text text-anchor="middle" x="3121.04" y="-157.8" font-family="Times,serif" font-size="14.00">DTEL&#45;APS_CA_OUTBSERVICETCPPORT</text>
</a>
</g>
</g>
<!-- TABL&#45;ISAPS_COM_CA_OUT_SRV_TP_D&#45;&gt;DTEL&#45;APS_CA_OUTBSERVICETCPPORT -->
<g id="edge7" class="edge">
<title>TABL&#45;ISAPS_COM_CA_OUT_SRV_TP_D&#45;&gt;DTEL&#45;APS_CA_OUTBSERVICETCPPORT</title>
<path fill="none" stroke="black" d="M2584.78,-219.91C2688.55,-209.76 2835.43,-195.1 2974.29,-180.07"/>
<polygon fill="black" stroke="black" points="2974.7,-183.55 2984.27,-178.99 2973.95,-176.59 2974.7,-183.55"/>
</g>
<!-- DTEL&#45;APS_CA_COMM_PROTOCOL -->
<g id="node37" class="node">
<title>DTEL&#45;APS_CA_COMM_PROTOCOL</title>
<g id="a_node37"><a xlink:href="./DTEL_APS_CA_COMM_PROTOCOL.html" xlink:title="DTEL&#45;APS_CA_COMM_PROTOCOL">
<polygon fill="none" stroke="yellow" points="4218.29,-180 3977.79,-180 3977.79,-144 4218.29,-144 4218.29,-180"/>
<text text-anchor="middle" x="4098.04" y="-157.8" font-family="Times,serif" font-size="14.00">DTEL&#45;APS_CA_COMM_PROTOCOL</text>
</a>
</g>
</g>
<!-- TABL&#45;ISAPS_COM_CA_OUT_SRV_TP_D&#45;&gt;DTEL&#45;APS_CA_COMM_PROTOCOL -->
<g id="edge6" class="edge">
<title>TABL&#45;ISAPS_COM_CA_OUT_SRV_TP_D&#45;&gt;DTEL&#45;APS_CA_COMM_PROTOCOL</title>
<path fill="none" stroke="black" d="M2584.78,-232.64C2849.07,-230.98 3451.36,-222.48 3967.31,-180.1"/>
<polygon fill="black" stroke="black" points="3967.89,-183.56 3977.57,-179.25 3967.32,-176.58 3967.89,-183.56"/>
</g>
<!-- DTEL&#45;APS_COM_CSCN_NUMBER -->
<g id="node39" class="node">
<title>DTEL&#45;APS_COM_CSCN_NUMBER</title>
<g id="a_node39"><a xlink:href="./DTEL_APS_COM_CSCN_NUMBER.html" xlink:title="DTEL&#45;APS_COM_CSCN_NUMBER">
<polygon fill="none" stroke="yellow" points="3687.97,-180 3456.11,-180 3456.11,-144 3687.97,-144 3687.97,-180"/>
<text text-anchor="middle" x="3572.04" y="-157.8" font-family="Times,serif" font-size="14.00">DTEL&#45;APS_COM_CSCN_NUMBER</text>
</a>
</g>
</g>
<!-- TABL&#45;ISAPS_COM_CA_OUT_SRV_TP_D&#45;&gt;DTEL&#45;APS_COM_CSCN_NUMBER -->
<g id="edge5" class="edge">
<title>TABL&#45;ISAPS_COM_CA_OUT_SRV_TP_D&#45;&gt;DTEL&#45;APS_COM_CSCN_NUMBER</title>
<path fill="none" stroke="black" d="M2584.89,-229.32C2775.11,-223.37 3131.8,-209.33 3446.08,-180.04"/>
<polygon fill="black" stroke="black" points="3446.68,-183.5 3456.3,-179.08 3446.02,-176.53 3446.68,-183.5"/>
</g>
<!-- DTEL&#45;APS_CA_COMMSYS_OUTBUSR -->
<g id="node40" class="node">
<title>DTEL&#45;APS_CA_COMMSYS_OUTBUSR</title>
<g id="a_node40"><a xlink:href="./DTEL_APS_CA_COMMSYS_OUTBUSR.html" xlink:title="DTEL&#45;APS_CA_COMMSYS_OUTBUSR">
<polygon fill="none" stroke="yellow" points="4493.91,-180 4236.17,-180 4236.17,-144 4493.91,-144 4493.91,-180"/>
<text text-anchor="middle" x="4365.04" y="-157.8" font-family="Times,serif" font-size="14.00">DTEL&#45;APS_CA_COMMSYS_OUTBUSR</text>
</a>
</g>
</g>
<!-- TABL&#45;ISAPS_COM_CA_OUT_SRV_TP_D&#45;&gt;DTEL&#45;APS_CA_COMMSYS_OUTBUSR -->
<g id="edge4" class="edge">
<title>TABL&#45;ISAPS_COM_CA_OUT_SRV_TP_D&#45;&gt;DTEL&#45;APS_CA_COMMSYS_OUTBUSR</title>
<path fill="none" stroke="black" d="M2584.82,-230.59C2939.45,-224.02 3888.7,-204.72 4225.88,-180.03"/>
<polygon fill="black" stroke="black" points="4226.45,-183.5 4236.16,-179.26 4225.93,-176.51 4226.45,-183.5"/>
</g>
<!-- DOMA&#45;BOOLE -->
<g id="node5" class="node">
<title>DOMA&#45;BOOLE</title>
<g id="a_node5"><a xlink:href="./DOMA_BOOLE.html" xlink:title="DOMA&#45;BOOLE">
<polygon fill="none" stroke="yellow" points="110.12,-108 -0.04,-108 -0.04,-72 110.12,-72 110.12,-108"/>
<text text-anchor="middle" x="55.04" y="-85.8" font-family="Times,serif" font-size="14.00">DOMA&#45;BOOLE</text>
</a>
</g>
</g>
<!-- DTEL&#45;SDRAFT_IS_ACTIVE&#45;&gt;DOMA&#45;BOOLE -->
<g id="edge22" class="edge">
<title>DTEL&#45;SDRAFT_IS_ACTIVE&#45;&gt;DOMA&#45;BOOLE</title>
<path fill="none" stroke="black" d="M553.18,-147.44C543.69,-146.21 534.18,-145.04 525.04,-144 348.3,-123.86 299.22,-138.81 120.42,-108.07"/>
<polygon fill="black" stroke="black" points="120.87,-104.6 110.41,-106.33 119.66,-111.49 120.87,-104.6"/>
</g>
<!-- DTEL&#45;SDRAFT_OPERATION_CODE -->
<g id="node7" class="node">
<title>DTEL&#45;SDRAFT_OPERATION_CODE</title>
<g id="a_node7"><a xlink:href="./DTEL_SDRAFT_OPERATION_CODE.html" xlink:title="DTEL&#45;SDRAFT_OPERATION_CODE">
<polygon fill="none" stroke="yellow" points="1156.55,-108 915.53,-108 915.53,-72 1156.55,-72 1156.55,-108"/>
<text text-anchor="middle" x="1036.04" y="-85.8" font-family="Times,serif" font-size="14.00">DTEL&#45;SDRAFT_OPERATION_CODE</text>
</a>
</g>
</g>
<!-- TABL&#45;SDRAFT_WRITE_DRAFT_ADMIN&#45;&gt;DTEL&#45;SDRAFT_OPERATION_CODE -->
<g id="edge27" class="edge">
<title>TABL&#45;SDRAFT_WRITE_DRAFT_ADMIN&#45;&gt;DTEL&#45;SDRAFT_OPERATION_CODE</title>
<path fill="none" stroke="black" d="M935.58,-143.88C953.29,-134.55 975.39,-122.92 994.36,-112.94"/>
<polygon fill="black" stroke="black" points="996.16,-115.94 1003.38,-108.19 992.9,-109.75 996.16,-115.94"/>
</g>
<!-- DTEL&#45;SDRAFT_CONSISTENCY_STATUS -->
<g id="node9" class="node">
<title>DTEL&#45;SDRAFT_CONSISTENCY_STATUS</title>
<g id="a_node9"><a xlink:href="./DTEL_SDRAFT_CONSISTENCY_STATUS.html" xlink:title="DTEL&#45;SDRAFT_CONSISTENCY_STATUS">
<polygon fill="none" stroke="yellow" points="401.95,-108 128.13,-108 128.13,-72 401.95,-72 401.95,-108"/>
<text text-anchor="middle" x="265.04" y="-85.8" font-family="Times,serif" font-size="14.00">DTEL&#45;SDRAFT_CONSISTENCY_STATUS</text>
</a>
</g>
</g>
<!-- TABL&#45;SDRAFT_WRITE_DRAFT_ADMIN&#45;&gt;DTEL&#45;SDRAFT_CONSISTENCY_STATUS -->
<g id="edge26" class="edge">
<title>TABL&#45;SDRAFT_WRITE_DRAFT_ADMIN&#45;&gt;DTEL&#45;SDRAFT_CONSISTENCY_STATUS</title>
<path fill="none" stroke="black" d="M768.3,-145.99C762.13,-145.31 756.02,-144.65 750.04,-144 602.22,-127.96 562.74,-124.97 412.12,-108.23"/>
<polygon fill="black" stroke="black" points="412.36,-104.73 402.03,-107.1 411.58,-111.69 412.36,-104.73"/>
</g>
<!-- DTEL&#45;SDRAFT_ADMIN_UUID -->
<g id="node11" class="node">
<title>DTEL&#45;SDRAFT_ADMIN_UUID</title>
<g id="a_node11"><a xlink:href="./DTEL_SDRAFT_ADMIN_UUID.html" xlink:title="DTEL&#45;SDRAFT_ADMIN_UUID">
<polygon fill="none" stroke="yellow" points="1381.54,-108 1174.54,-108 1174.54,-72 1381.54,-72 1381.54,-108"/>
<text text-anchor="middle" x="1278.04" y="-85.8" font-family="Times,serif" font-size="14.00">DTEL&#45;SDRAFT_ADMIN_UUID</text>
</a>
</g>
</g>
<!-- TABL&#45;SDRAFT_WRITE_DRAFT_ADMIN&#45;&gt;DTEL&#45;SDRAFT_ADMIN_UUID -->
<g id="edge25" class="edge">
<title>TABL&#45;SDRAFT_WRITE_DRAFT_ADMIN&#45;&gt;DTEL&#45;SDRAFT_ADMIN_UUID</title>
<path fill="none" stroke="black" d="M994.3,-143.97C1049.41,-133.68 1119.76,-120.55 1176.61,-109.93"/>
<polygon fill="black" stroke="black" points="1177.51,-113.33 1186.7,-108.05 1176.23,-106.44 1177.51,-113.33"/>
</g>
<!-- DTEL&#45;SDRAFT_LAST_CHANGED_AT -->
<g id="node13" class="node">
<title>DTEL&#45;SDRAFT_LAST_CHANGED_AT</title>
<g id="a_node13"><a xlink:href="./DTEL_SDRAFT_LAST_CHANGED_AT.html" xlink:title="DTEL&#45;SDRAFT_LAST_CHANGED_AT">
<polygon fill="none" stroke="yellow" points="897.71,-108 644.37,-108 644.37,-72 897.71,-72 897.71,-108"/>
<text text-anchor="middle" x="771.04" y="-85.8" font-family="Times,serif" font-size="14.00">DTEL&#45;SDRAFT_LAST_CHANGED_AT</text>
</a>
</g>
</g>
<!-- TABL&#45;SDRAFT_WRITE_DRAFT_ADMIN&#45;&gt;DTEL&#45;SDRAFT_LAST_CHANGED_AT -->
<g id="edge24" class="edge">
<title>TABL&#45;SDRAFT_WRITE_DRAFT_ADMIN&#45;&gt;DTEL&#45;SDRAFT_LAST_CHANGED_AT</title>
<path fill="none" stroke="black" d="M870.75,-143.88C853.17,-134.55 831.23,-122.92 812.41,-112.94"/>
<polygon fill="black" stroke="black" points="813.93,-109.78 803.45,-108.19 810.65,-115.97 813.93,-109.78"/>
</g>
<!-- DTEL&#45;SDRAFT_CREATED_AT -->
<g id="node15" class="node">
<title>DTEL&#45;SDRAFT_CREATED_AT</title>
<g id="a_node15"><a xlink:href="./DTEL_SDRAFT_CREATED_AT.html" xlink:title="DTEL&#45;SDRAFT_CREATED_AT">
<polygon fill="none" stroke="yellow" points="626.84,-108 419.24,-108 419.24,-72 626.84,-72 626.84,-108"/>
<text text-anchor="middle" x="523.04" y="-85.8" font-family="Times,serif" font-size="14.00">DTEL&#45;SDRAFT_CREATED_AT</text>
</a>
</g>
</g>
<!-- TABL&#45;SDRAFT_WRITE_DRAFT_ADMIN&#45;&gt;DTEL&#45;SDRAFT_CREATED_AT -->
<g id="edge23" class="edge">
<title>TABL&#45;SDRAFT_WRITE_DRAFT_ADMIN&#45;&gt;DTEL&#45;SDRAFT_CREATED_AT</title>
<path fill="none" stroke="black" d="M810.57,-143.97C754.6,-133.66 683.14,-120.49 625.46,-109.87"/>
<polygon fill="black" stroke="black" points="626.07,-106.42 615.6,-108.05 624.8,-113.3 626.07,-106.42"/>
</g>
<!-- DOMA&#45;SDRAFT_OPERATION_CODE -->
<g id="node8" class="node">
<title>DOMA&#45;SDRAFT_OPERATION_CODE</title>
<g id="a_node8"><a xlink:href="./DOMA_SDRAFT_OPERATION_CODE.html" xlink:title="DOMA&#45;SDRAFT_OPERATION_CODE">
<polygon fill="none" stroke="yellow" points="1160.05,-36 912.03,-36 912.03,0 1160.05,0 1160.05,-36"/>
<text text-anchor="middle" x="1036.04" y="-13.8" font-family="Times,serif" font-size="14.00">DOMA&#45;SDRAFT_OPERATION_CODE</text>
</a>
</g>
</g>
<!-- DTEL&#45;SDRAFT_OPERATION_CODE&#45;&gt;DOMA&#45;SDRAFT_OPERATION_CODE -->
<g id="edge28" class="edge">
<title>DTEL&#45;SDRAFT_OPERATION_CODE&#45;&gt;DOMA&#45;SDRAFT_OPERATION_CODE</title>
<path fill="none" stroke="black" d="M1036.04,-71.7C1036.04,-63.98 1036.04,-54.71 1036.04,-46.11"/>
<polygon fill="black" stroke="black" points="1039.54,-46.1 1036.04,-36.1 1032.54,-46.1 1039.54,-46.1"/>
</g>
<!-- DOMA&#45;SDRAFT_CONSISTENCY_STATUS -->
<g id="node10" class="node">
<title>DOMA&#45;SDRAFT_CONSISTENCY_STATUS</title>
<g id="a_node10"><a xlink:href="./DOMA_SDRAFT_CONSISTENCY_STATUS.html" xlink:title="DOMA&#45;SDRAFT_CONSISTENCY_STATUS">
<polygon fill="none" stroke="yellow" points="405.45,-36 124.63,-36 124.63,0 405.45,0 405.45,-36"/>
<text text-anchor="middle" x="265.04" y="-13.8" font-family="Times,serif" font-size="14.00">DOMA&#45;SDRAFT_CONSISTENCY_STATUS</text>
</a>
</g>
</g>
<!-- DTEL&#45;SDRAFT_CONSISTENCY_STATUS&#45;&gt;DOMA&#45;SDRAFT_CONSISTENCY_STATUS -->
<g id="edge29" class="edge">
<title>DTEL&#45;SDRAFT_CONSISTENCY_STATUS&#45;&gt;DOMA&#45;SDRAFT_CONSISTENCY_STATUS</title>
<path fill="none" stroke="black" d="M265.04,-71.7C265.04,-63.98 265.04,-54.71 265.04,-46.11"/>
<polygon fill="black" stroke="black" points="268.54,-46.1 265.04,-36.1 261.54,-46.1 268.54,-46.1"/>
</g>
<!-- DOMA&#45;SYSUUID -->
<g id="node12" class="node">
<title>DOMA&#45;SYSUUID</title>
<g id="a_node12"><a xlink:href="./DOMA_SYSUUID.html" xlink:title="DOMA&#45;SYSUUID">
<polygon fill="none" stroke="yellow" points="1434.12,-36 1309.96,-36 1309.96,0 1434.12,0 1434.12,-36"/>
<text text-anchor="middle" x="1372.04" y="-13.8" font-family="Times,serif" font-size="14.00">DOMA&#45;SYSUUID</text>
</a>
</g>
</g>
<!-- DTEL&#45;SDRAFT_ADMIN_UUID&#45;&gt;DOMA&#45;SYSUUID -->
<g id="edge30" class="edge">
<title>DTEL&#45;SDRAFT_ADMIN_UUID&#45;&gt;DOMA&#45;SYSUUID</title>
<path fill="none" stroke="black" d="M1301.28,-71.7C1313.23,-62.8 1327.96,-51.82 1340.89,-42.2"/>
<polygon fill="black" stroke="black" points="1343.14,-44.88 1349.07,-36.1 1338.96,-39.27 1343.14,-44.88"/>
</g>
<!-- DOMA&#45;TZNTSTMPL -->
<g id="node14" class="node">
<title>DOMA&#45;TZNTSTMPL</title>
<g id="a_node14"><a xlink:href="./DOMA_TZNTSTMPL.html" xlink:title="DOMA&#45;TZNTSTMPL">
<polygon fill="none" stroke="yellow" points="719.34,-36 574.74,-36 574.74,0 719.34,0 719.34,-36"/>
<text text-anchor="middle" x="647.04" y="-13.8" font-family="Times,serif" font-size="14.00">DOMA&#45;TZNTSTMPL</text>
</a>
</g>
</g>
<!-- DTEL&#45;SDRAFT_LAST_CHANGED_AT&#45;&gt;DOMA&#45;TZNTSTMPL -->
<g id="edge31" class="edge">
<title>DTEL&#45;SDRAFT_LAST_CHANGED_AT&#45;&gt;DOMA&#45;TZNTSTMPL</title>
<path fill="none" stroke="black" d="M740.71,-71.88C724.34,-62.64 703.96,-51.13 686.39,-41.21"/>
<polygon fill="black" stroke="black" points="687.92,-38.06 677.49,-36.19 684.48,-44.15 687.92,-38.06"/>
</g>
<!-- DTEL&#45;SDRAFT_CREATED_AT&#45;&gt;DOMA&#45;TZNTSTMPL -->
<g id="edge32" class="edge">
<title>DTEL&#45;SDRAFT_CREATED_AT&#45;&gt;DOMA&#45;TZNTSTMPL</title>
<path fill="none" stroke="black" d="M553.37,-71.88C569.74,-62.64 590.12,-51.13 607.69,-41.21"/>
<polygon fill="black" stroke="black" points="609.6,-44.15 616.59,-36.19 606.16,-38.06 609.6,-44.15"/>
</g>
<!-- DTEL&#45;SDRAFT_HAS_ACTIVE&#45;&gt;DOMA&#45;BOOLE -->
<g id="edge33" class="edge">
<title>DTEL&#45;SDRAFT_HAS_ACTIVE&#45;&gt;DOMA&#45;BOOLE</title>
<path fill="none" stroke="black" d="M312.26,-144.83C257.78,-135.67 189.38,-123.36 119.93,-108.11"/>
<polygon fill="black" stroke="black" points="120.65,-104.68 110.13,-105.94 119.13,-111.52 120.65,-104.68"/>
</g>
<!-- DTEL&#45;/BOBF/UUID&#45;&gt;DOMA&#45;SYSUUID -->
<g id="edge34" class="edge">
<title>DTEL&#45;/BOBF/UUID&#45;&gt;DOMA&#45;SYSUUID</title>
<path fill="none" stroke="black" d="M1443.56,-71.7C1431.48,-62.8 1416.59,-51.82 1403.52,-42.2"/>
<polygon fill="black" stroke="black" points="1405.38,-39.22 1395.25,-36.1 1401.23,-44.85 1405.38,-39.22"/>
</g>
<!-- DOMA&#45;APS_COM_CSCN_ID -->
<g id="node19" class="node">
<title>DOMA&#45;APS_COM_CSCN_ID</title>
<g id="a_node19"><a xlink:href="./DOMA_APS_COM_CSCN_ID.html" xlink:title="DOMA&#45;APS_COM_CSCN_ID">
<polygon fill="none" stroke="yellow" points="1746.85,-108 1553.23,-108 1553.23,-72 1746.85,-72 1746.85,-108"/>
<text text-anchor="middle" x="1650.04" y="-85.8" font-family="Times,serif" font-size="14.00">DOMA&#45;APS_COM_CSCN_ID</text>
</a>
</g>
</g>
<!-- DTEL&#45;APS_COM_CSCN_ID&#45;&gt;DOMA&#45;APS_COM_CSCN_ID -->
<g id="edge35" class="edge">
<title>DTEL&#45;APS_COM_CSCN_ID&#45;&gt;DOMA&#45;APS_COM_CSCN_ID</title>
<path fill="none" stroke="black" d="M1600.35,-143.7C1608.35,-135.22 1618.11,-124.86 1626.86,-115.58"/>
<polygon fill="black" stroke="black" points="1629.6,-117.78 1633.91,-108.1 1624.51,-112.98 1629.6,-117.78"/>
</g>
<!-- DOMA&#45;APS_CA_SOAP_WSRM_VERSION -->
<g id="node21" class="node">
<title>DOMA&#45;APS_CA_SOAP_WSRM_VERSION</title>
<g id="a_node21"><a xlink:href="./DOMA_APS_CA_SOAP_WSRM_VERSION.html" xlink:title="DOMA&#45;APS_CA_SOAP_WSRM_VERSION">
<polygon fill="none" stroke="yellow" points="2040.79,-108 1765.29,-108 1765.29,-72 2040.79,-72 2040.79,-108"/>
<text text-anchor="middle" x="1903.04" y="-85.8" font-family="Times,serif" font-size="14.00">DOMA&#45;APS_CA_SOAP_WSRM_VERSION</text>
</a>
</g>
</g>
<!-- DTEL&#45;APS_CA_SOAP_WSRM_VERSION&#45;&gt;DOMA&#45;APS_CA_SOAP_WSRM_VERSION -->
<g id="edge36" class="edge">
<title>DTEL&#45;APS_CA_SOAP_WSRM_VERSION&#45;&gt;DOMA&#45;APS_CA_SOAP_WSRM_VERSION</title>
<path fill="none" stroke="black" d="M1848.08,-143.7C1857.1,-135.05 1868.16,-124.45 1877.98,-115.03"/>
<polygon fill="black" stroke="black" points="1880.41,-117.55 1885.2,-108.1 1875.56,-112.5 1880.41,-117.55"/>
</g>
<!-- DOMA&#45;EDI_IDOCTP -->
<g id="node23" class="node">
<title>DOMA&#45;EDI_IDOCTP</title>
<g id="a_node23"><a xlink:href="./DOMA_EDI_IDOCTP.html" xlink:title="DOMA&#45;EDI_IDOCTP">
<polygon fill="none" stroke="yellow" points="2203.33,-108 2058.75,-108 2058.75,-72 2203.33,-72 2203.33,-108"/>
<text text-anchor="middle" x="2131.04" y="-85.8" font-family="Times,serif" font-size="14.00">DOMA&#45;EDI_IDOCTP</text>
</a>
</g>
</g>
<!-- DTEL&#45;APS_CA_IDOC_BASICTYPE&#45;&gt;DOMA&#45;EDI_IDOCTP -->
<g id="edge37" class="edge">
<title>DTEL&#45;APS_CA_IDOC_BASICTYPE&#45;&gt;DOMA&#45;EDI_IDOCTP</title>
<path fill="none" stroke="black" d="M2106.95,-143.7C2110.59,-135.73 2114.99,-126.1 2119.03,-117.26"/>
<polygon fill="black" stroke="black" points="2122.25,-118.65 2123.22,-108.1 2115.88,-115.74 2122.25,-118.65"/>
</g>
<!-- DTEL&#45;BOOLE_D&#45;&gt;DOMA&#45;BOOLE -->
<g id="edge38" class="edge">
<title>DTEL&#45;BOOLE_D&#45;&gt;DOMA&#45;BOOLE</title>
<path fill="none" stroke="black" d="M162.3,-143.88C143.22,-134.47 119.36,-122.71 98.99,-112.67"/>
<polygon fill="black" stroke="black" points="100.43,-109.47 89.91,-108.19 97.33,-115.75 100.43,-109.47"/>
</g>
<!-- DOMA&#45;TZNTSTMPS -->
<g id="node26" class="node">
<title>DOMA&#45;TZNTSTMPS</title>
<g id="a_node26"><a xlink:href="./DOMA_TZNTSTMPS.html" xlink:title="DOMA&#45;TZNTSTMPS">
<polygon fill="none" stroke="yellow" points="2370.58,-108 2227.5,-108 2227.5,-72 2370.58,-72 2370.58,-108"/>
<text text-anchor="middle" x="2299.04" y="-85.8" font-family="Times,serif" font-size="14.00">DOMA&#45;TZNTSTMPS</text>
</a>
</g>
</g>
<!-- DTEL&#45;TIMESTAMP&#45;&gt;DOMA&#45;TZNTSTMPS -->
<g id="edge39" class="edge">
<title>DTEL&#45;TIMESTAMP&#45;&gt;DOMA&#45;TZNTSTMPS</title>
<path fill="none" stroke="black" d="M2301.3,-143.7C2300.97,-135.98 2300.57,-126.71 2300.2,-118.11"/>
<polygon fill="black" stroke="black" points="2303.7,-117.95 2299.77,-108.1 2296.7,-118.25 2303.7,-117.95"/>
</g>
<!-- DOMA&#45;TZNZONE -->
<g id="node28" class="node">
<title>DOMA&#45;TZNZONE</title>
<g id="a_node28"><a xlink:href="./DOMA_TZNZONE.html" xlink:title="DOMA&#45;TZNZONE">
<polygon fill="none" stroke="yellow" points="2517,-108 2389.08,-108 2389.08,-72 2517,-72 2517,-108"/>
<text text-anchor="middle" x="2453.04" y="-85.8" font-family="Times,serif" font-size="14.00">DOMA&#45;TZNZONE</text>
</a>
</g>
</g>
<!-- DTEL&#45;TZNZONE&#45;&gt;DOMA&#45;TZNZONE -->
<g id="edge40" class="edge">
<title>DTEL&#45;TZNZONE&#45;&gt;DOMA&#45;TZNZONE</title>
<path fill="none" stroke="black" d="M2450.03,-143.7C2450.47,-135.98 2451,-126.71 2451.49,-118.11"/>
<polygon fill="black" stroke="black" points="2454.99,-118.29 2452.06,-108.1 2448,-117.89 2454.99,-118.29"/>
</g>
<!-- DOMA&#45;SYTIME -->
<g id="node30" class="node">
<title>DOMA&#45;SYTIME</title>
<g id="a_node30"><a xlink:href="./DOMA_SYTIME.html" xlink:title="DOMA&#45;SYTIME">
<polygon fill="none" stroke="yellow" points="2657.57,-108 2542.51,-108 2542.51,-72 2657.57,-72 2657.57,-108"/>
<text text-anchor="middle" x="2600.04" y="-85.8" font-family="Times,serif" font-size="14.00">DOMA&#45;SYTIME</text>
</a>
</g>
</g>
<!-- DTEL&#45;BTCSDLTIME&#45;&gt;DOMA&#45;SYTIME -->
<g id="edge41" class="edge">
<title>DTEL&#45;BTCSDLTIME&#45;&gt;DOMA&#45;SYTIME</title>
<path fill="none" stroke="black" d="M2600.04,-143.7C2600.04,-135.98 2600.04,-126.71 2600.04,-118.11"/>
<polygon fill="black" stroke="black" points="2603.54,-118.1 2600.04,-108.1 2596.54,-118.1 2603.54,-118.1"/>
</g>
<!-- DOMA&#45;JR_O_FREQUENCY -->
<g id="node32" class="node">
<title>DOMA&#45;JR_O_FREQUENCY</title>
<g id="a_node32"><a xlink:href="./DOMA_JR_O_FREQUENCY.html" xlink:title="DOMA&#45;JR_O_FREQUENCY">
<polygon fill="none" stroke="yellow" points="3450.34,-108 3263.74,-108 3263.74,-72 3450.34,-72 3450.34,-108"/>
<text text-anchor="middle" x="3357.04" y="-85.8" font-family="Times,serif" font-size="14.00">DOMA&#45;JR_O_FREQUENCY</text>
</a>
</g>
</g>
<!-- DTEL&#45;JR_FREQUENCY&#45;&gt;DOMA&#45;JR_O_FREQUENCY -->
<g id="edge42" class="edge">
<title>DTEL&#45;JR_FREQUENCY&#45;&gt;DOMA&#45;JR_O_FREQUENCY</title>
<path fill="none" stroke="black" d="M3357.04,-143.7C3357.04,-135.98 3357.04,-126.71 3357.04,-118.11"/>
<polygon fill="black" stroke="black" points="3360.54,-118.1 3357.04,-108.1 3353.54,-118.1 3360.54,-118.1"/>
</g>
<!-- DOMA&#45;APS_CA_OUTBOUND_STATUS -->
<g id="node34" class="node">
<title>DOMA&#45;APS_CA_OUTBOUND_STATUS</title>
<g id="a_node34"><a xlink:href="./DOMA_APS_CA_OUTBOUND_STATUS.html" xlink:title="DOMA&#45;APS_CA_OUTBOUND_STATUS">
<polygon fill="none" stroke="yellow" points="3959.49,-108 3698.59,-108 3698.59,-72 3959.49,-72 3959.49,-108"/>
<text text-anchor="middle" x="3829.04" y="-85.8" font-family="Times,serif" font-size="14.00">DOMA&#45;APS_CA_OUTBOUND_STATUS</text>
</a>
</g>
</g>
<!-- DTEL&#45;APS_CA_OUTBOUND_STATUS&#45;&gt;DOMA&#45;APS_CA_OUTBOUND_STATUS -->
<g id="edge43" class="edge">
<title>DTEL&#45;APS_CA_OUTBOUND_STATUS&#45;&gt;DOMA&#45;APS_CA_OUTBOUND_STATUS</title>
<path fill="none" stroke="black" d="M3832.05,-143.7C3831.61,-135.98 3831.08,-126.71 3830.59,-118.11"/>
<polygon fill="black" stroke="black" points="3834.08,-117.89 3830.02,-108.1 3827.09,-118.29 3834.08,-117.89"/>
</g>
<!-- DOMA&#45;APS_CA_COMM_PROTOCOL -->
<g id="node38" class="node">
<title>DOMA&#45;APS_CA_COMM_PROTOCOL</title>
<g id="a_node38"><a xlink:href="./DOMA_APS_CA_COMM_PROTOCOL.html" xlink:title="DOMA&#45;APS_CA_COMM_PROTOCOL">
<polygon fill="none" stroke="yellow" points="4224.79,-108 3977.29,-108 3977.29,-72 4224.79,-72 4224.79,-108"/>
<text text-anchor="middle" x="4101.04" y="-85.8" font-family="Times,serif" font-size="14.00">DOMA&#45;APS_CA_COMM_PROTOCOL</text>
</a>
</g>
</g>
<!-- DTEL&#45;APS_CA_COMM_PROTOCOL&#45;&gt;DOMA&#45;APS_CA_COMM_PROTOCOL -->
<g id="edge44" class="edge">
<title>DTEL&#45;APS_CA_COMM_PROTOCOL&#45;&gt;DOMA&#45;APS_CA_COMM_PROTOCOL</title>
<path fill="none" stroke="black" d="M4098.78,-143.7C4099.11,-135.98 4099.51,-126.71 4099.88,-118.11"/>
<polygon fill="black" stroke="black" points="4103.38,-118.25 4100.31,-108.1 4096.38,-117.95 4103.38,-118.25"/>
</g>
<!-- DOMA&#45;/BOBF/CONF_KEY -->
<g id="node41" class="node">
<title>DOMA&#45;/BOBF/CONF_KEY</title>
<g id="a_node41"><a xlink:href="./DOMA_%23BOBF%23CONF_KEY.html" xlink:title="DOMA&#45;/BOBF/CONF_KEY">
<polygon fill="none" stroke="yellow" points="4572.41,-108 4391.67,-108 4391.67,-72 4572.41,-72 4572.41,-108"/>
<text text-anchor="middle" x="4482.04" y="-85.8" font-family="Times,serif" font-size="14.00">DOMA&#45;/BOBF/CONF_KEY</text>
</a>
</g>
</g>
<!-- DTEL&#45;APS_CA_COMMSYS_OUTBUSR&#45;&gt;DOMA&#45;/BOBF/CONF_KEY -->
<g id="edge45" class="edge">
<title>DTEL&#45;APS_CA_COMMSYS_OUTBUSR&#45;&gt;DOMA&#45;/BOBF/CONF_KEY</title>
<path fill="none" stroke="black" d="M4393.66,-143.88C4408.96,-134.72 4427.98,-123.34 4444.46,-113.48"/>
<polygon fill="black" stroke="black" points="4446.52,-116.33 4453.31,-108.19 4442.93,-110.32 4446.52,-116.33"/>
</g>
<!-- DTEL&#45;/BOBF/CONF_KEY -->
<g id="node43" class="node">
<title>DTEL&#45;/BOBF/CONF_KEY</title>
<g id="a_node43"><a xlink:href="./DTEL_%23BOBF%23CONF_KEY.html" xlink:title="DTEL&#45;/BOBF/CONF_KEY">
<polygon fill="none" stroke="yellow" points="4685.91,-180 4512.17,-180 4512.17,-144 4685.91,-144 4685.91,-180"/>
<text text-anchor="middle" x="4599.04" y="-157.8" font-family="Times,serif" font-size="14.00">DTEL&#45;/BOBF/CONF_KEY</text>
</a>
</g>
</g>
<!-- TABL&#45;/BOBF/S_FRW_KEY_INCL&#45;&gt;DTEL&#45;/BOBF/CONF_KEY -->
<g id="edge46" class="edge">
<title>TABL&#45;/BOBF/S_FRW_KEY_INCL&#45;&gt;DTEL&#45;/BOBF/CONF_KEY</title>
<path fill="none" stroke="black" d="M3767.39,-230.03C3927.69,-224.87 4232.87,-211.69 4502.02,-180.04"/>
<polygon fill="black" stroke="black" points="4502.46,-183.51 4511.98,-178.86 4501.64,-176.56 4502.46,-183.51"/>
</g>
<!-- DTEL&#45;/BOBF/CONF_KEY&#45;&gt;DOMA&#45;/BOBF/CONF_KEY -->
<g id="edge47" class="edge">
<title>DTEL&#45;/BOBF/CONF_KEY&#45;&gt;DOMA&#45;/BOBF/CONF_KEY</title>
<path fill="none" stroke="black" d="M4570.42,-143.88C4555.12,-134.72 4536.1,-123.34 4519.62,-113.48"/>
<polygon fill="black" stroke="black" points="4521.15,-110.32 4510.77,-108.19 4517.56,-116.33 4521.15,-110.32"/>
</g>
</g>
</svg>
