<?xml version="1.0" encoding="UTF-8" standalone="no"?>
<!DOCTYPE svg PUBLIC "-//W3C//DTD SVG 1.1//EN"
 "http://www.w3.org/Graphics/SVG/1.1/DTD/svg11.dtd">
<!-- Generated by graphviz version 2.47.3 (20210619.1520)
 -->
<!-- Title: G Pages: 1 -->
<svg width="285pt" height="260pt"
 viewBox="0.00 0.00 285.29 260.00" xmlns="http://www.w3.org/2000/svg" xmlns:xlink="http://www.w3.org/1999/xlink">
<g id="graph0" class="graph" transform="scale(1 1) rotate(0) translate(4 256)">
<title>G</title>
<polygon fill="white" stroke="transparent" points="-4,4 -4,-256 281.29,-256 281.29,4 -4,4"/>
<!-- TTYP&#45;SUID_TT_NODE_ROLE_MEMBERS -->
<g id="node1" class="node">
<title>TTYP&#45;SUID_TT_NODE_ROLE_MEMBERS</title>
<polygon fill="none" stroke="yellow" points="277.43,-252 -0.14,-252 -0.14,-216 277.43,-216 277.43,-252"/>
<text text-anchor="middle" x="138.64" y="-229.8" font-family="Times,serif" font-size="14.00">TTYP&#45;SUID_TT_NODE_ROLE_MEMBERS</text>
</g>
<!-- TABL&#45;SUID_ST_NODE_ROLE_MEMBER -->
<g id="node2" class="node">
<title>TABL&#45;SUID_ST_NODE_ROLE_MEMBER</title>
<g id="a_node2"><a xlink:href="./TABL_SUID_ST_NODE_ROLE_MEMBER.html" xlink:title="TABL&#45;SUID_ST_NODE_ROLE_MEMBER">
<polygon fill="none" stroke="yellow" points="273.93,-180 3.35,-180 3.35,-144 273.93,-144 273.93,-180"/>
<text text-anchor="middle" x="138.64" y="-157.8" font-family="Times,serif" font-size="14.00">TABL&#45;SUID_ST_NODE_ROLE_MEMBER</text>
</a>
</g>
</g>
<!-- TTYP&#45;SUID_TT_NODE_ROLE_MEMBERS&#45;&gt;TABL&#45;SUID_ST_NODE_ROLE_MEMBER -->
<g id="edge1" class="edge">
<title>TTYP&#45;SUID_TT_NODE_ROLE_MEMBERS&#45;&gt;TABL&#45;SUID_ST_NODE_ROLE_MEMBER</title>
<path fill="none" stroke="black" d="M138.64,-215.7C138.64,-207.98 138.64,-198.71 138.64,-190.11"/>
<polygon fill="black" stroke="black" points="142.14,-190.1 138.64,-180.1 135.14,-190.1 142.14,-190.1"/>
</g>
<!-- DTEL&#45;AGR_NAME -->
<g id="node3" class="node">
<title>DTEL&#45;AGR_NAME</title>
<g id="a_node3"><a xlink:href="./DTEL_AGR_NAME.html" xlink:title="DTEL&#45;AGR_NAME">
<polygon fill="none" stroke="yellow" points="205.83,-108 71.46,-108 71.46,-72 205.83,-72 205.83,-108"/>
<text text-anchor="middle" x="138.64" y="-85.8" font-family="Times,serif" font-size="14.00">DTEL&#45;AGR_NAME</text>
</a>
</g>
</g>
<!-- TABL&#45;SUID_ST_NODE_ROLE_MEMBER&#45;&gt;DTEL&#45;AGR_NAME -->
<g id="edge2" class="edge">
<title>TABL&#45;SUID_ST_NODE_ROLE_MEMBER&#45;&gt;DTEL&#45;AGR_NAME</title>
<path fill="none" stroke="black" d="M138.64,-143.7C138.64,-135.98 138.64,-126.71 138.64,-118.11"/>
<polygon fill="black" stroke="black" points="142.14,-118.1 138.64,-108.1 135.14,-118.1 142.14,-118.1"/>
</g>
<!-- DOMA&#45;AGR_NAME -->
<g id="node4" class="node">
<title>DOMA&#45;AGR_NAME</title>
<g id="a_node4"><a xlink:href="./DOMA_AGR_NAME.html" xlink:title="DOMA&#45;AGR_NAME">
<polygon fill="none" stroke="yellow" points="209.33,-36 67.96,-36 67.96,0 209.33,0 209.33,-36"/>
<text text-anchor="middle" x="138.64" y="-13.8" font-family="Times,serif" font-size="14.00">DOMA&#45;AGR_NAME</text>
</a>
</g>
</g>
<!-- DTEL&#45;AGR_NAME&#45;&gt;DOMA&#45;AGR_NAME -->
<g id="edge3" class="edge">
<title>DTEL&#45;AGR_NAME&#45;&gt;DOMA&#45;AGR_NAME</title>
<path fill="none" stroke="black" d="M138.64,-71.7C138.64,-63.98 138.64,-54.71 138.64,-46.11"/>
<polygon fill="black" stroke="black" points="142.14,-46.1 138.64,-36.1 135.14,-46.1 142.14,-46.1"/>
</g>
</g>
</svg>
