<?xml version="1.0" encoding="UTF-8" standalone="no"?>
<!DOCTYPE svg PUBLIC "-//W3C//DTD SVG 1.1//EN"
 "http://www.w3.org/Graphics/SVG/1.1/DTD/svg11.dtd">
<!-- Generated by graphviz version 2.47.3 (20210619.1520)
 -->
<!-- Title: G Pages: 1 -->
<svg width="1470pt" height="836pt"
 viewBox="0.00 0.00 1470.00 836.00" xmlns="http://www.w3.org/2000/svg" xmlns:xlink="http://www.w3.org/1999/xlink">
<g id="graph0" class="graph" transform="scale(1 1) rotate(0) translate(4 832)">
<title>G</title>
<polygon fill="white" stroke="transparent" points="-4,4 -4,-832 1466,-832 1466,4 -4,4"/>
<!-- TTYP&#45;SXCO_T_MESSAGES -->
<g id="node1" class="node">
<title>TTYP&#45;SXCO_T_MESSAGES</title>
<g id="a_node1"><a xlink:href="./TTYP_SXCO_T_MESSAGES.html" xlink:title="TTYP&#45;SXCO_T_MESSAGES">
<polygon fill="none" stroke="green" points="848.15,-828 659.85,-828 659.85,-792 848.15,-792 848.15,-828"/>
<text text-anchor="middle" x="754" y="-805.8" font-family="Times,serif" font-size="14.00">TTYP&#45;SXCO_T_MESSAGES</text>
</a>
</g>
</g>
<!-- INTF&#45;IF_XCO_MESSAGE -->
<g id="node2" class="node">
<title>INTF&#45;IF_XCO_MESSAGE</title>
<g id="a_node2"><a xlink:href="./INTF_IF_XCO_MESSAGE.html" xlink:title="INTF&#45;IF_XCO_MESSAGE">
<polygon fill="none" stroke="green" points="840.58,-756 667.42,-756 667.42,-720 840.58,-720 840.58,-756"/>
<text text-anchor="middle" x="754" y="-733.8" font-family="Times,serif" font-size="14.00">INTF&#45;IF_XCO_MESSAGE</text>
</a>
</g>
</g>
<!-- TTYP&#45;SXCO_T_MESSAGES&#45;&gt;INTF&#45;IF_XCO_MESSAGE -->
<g id="edge1" class="edge">
<title>TTYP&#45;SXCO_T_MESSAGES&#45;&gt;INTF&#45;IF_XCO_MESSAGE</title>
<path fill="none" stroke="black" d="M748.08,-791.7C747.29,-783.98 747.06,-774.71 747.4,-766.11"/>
<polygon fill="black" stroke="black" points="750.9,-766.32 748.1,-756.1 743.92,-765.84 750.9,-766.32"/>
</g>
<!-- TTYP&#45;SXCO_T_MESSAGES&#45;&gt;INTF&#45;IF_XCO_MESSAGE -->
<g id="edge12" class="edge">
<title>TTYP&#45;SXCO_T_MESSAGES&#45;&gt;INTF&#45;IF_XCO_MESSAGE</title>
<path fill="none" stroke="black" d="M759.92,-791.7C760.71,-783.98 760.94,-774.71 760.6,-766.11"/>
<polygon fill="black" stroke="black" points="764.08,-765.84 759.9,-756.1 757.1,-766.32 764.08,-765.84"/>
</g>
<!-- INTF&#45;IF_XCO_NEWS -->
<g id="node3" class="node">
<title>INTF&#45;IF_XCO_NEWS</title>
<g id="a_node3"><a xlink:href="./INTF_IF_XCO_NEWS.html" xlink:title="INTF&#45;IF_XCO_NEWS">
<polygon fill="none" stroke="green" points="1459.91,-108 1312.09,-108 1312.09,-72 1459.91,-72 1459.91,-108"/>
<text text-anchor="middle" x="1386" y="-85.8" font-family="Times,serif" font-size="14.00">INTF&#45;IF_XCO_NEWS</text>
</a>
</g>
</g>
<!-- INTF&#45;IF_XCO_MESSAGE&#45;&gt;INTF&#45;IF_XCO_NEWS -->
<g id="edge10" class="edge">
<title>INTF&#45;IF_XCO_MESSAGE&#45;&gt;INTF&#45;IF_XCO_NEWS</title>
<path fill="none" stroke="black" d="M840.59,-733.46C997.54,-726.45 1316.96,-709.27 1361,-684 1403.03,-659.88 1424,-643.46 1424,-595 1424,-595 1424,-595 1424,-233 1424,-191.63 1408.77,-145.72 1397.59,-117.61"/>
<polygon fill="black" stroke="black" points="1400.72,-116.02 1393.69,-108.09 1394.24,-118.67 1400.72,-116.02"/>
</g>
<!-- INTF&#45;IF_T100_DYN_MSG -->
<g id="node4" class="node">
<title>INTF&#45;IF_T100_DYN_MSG</title>
<g id="a_node4"><a xlink:href="./INTF_IF_T100_DYN_MSG.html" xlink:title="INTF&#45;IF_T100_DYN_MSG">
<polygon fill="none" stroke="green" points="783.91,-684 608.09,-684 608.09,-648 783.91,-648 783.91,-684"/>
<text text-anchor="middle" x="696" y="-661.8" font-family="Times,serif" font-size="14.00">INTF&#45;IF_T100_DYN_MSG</text>
</a>
</g>
</g>
<!-- INTF&#45;IF_XCO_MESSAGE&#45;&gt;INTF&#45;IF_T100_DYN_MSG -->
<g id="edge9" class="edge">
<title>INTF&#45;IF_XCO_MESSAGE&#45;&gt;INTF&#45;IF_T100_DYN_MSG</title>
<path fill="none" stroke="black" d="M739.66,-719.7C732.71,-711.3 724.23,-701.07 716.6,-691.86"/>
<polygon fill="black" stroke="black" points="719.25,-689.57 710.17,-684.1 713.86,-694.04 719.25,-689.57"/>
</g>
<!-- DTEL&#45;SYMSGNO -->
<g id="node9" class="node">
<title>DTEL&#45;SYMSGNO</title>
<g id="a_node9"><a xlink:href="./DTEL_SYMSGNO.html" xlink:title="DTEL&#45;SYMSGNO">
<polygon fill="none" stroke="green" points="266.36,-468 141.64,-468 141.64,-432 266.36,-432 266.36,-468"/>
<text text-anchor="middle" x="204" y="-445.8" font-family="Times,serif" font-size="14.00">DTEL&#45;SYMSGNO</text>
</a>
</g>
</g>
<!-- INTF&#45;IF_XCO_MESSAGE&#45;&gt;DTEL&#45;SYMSGNO -->
<g id="edge5" class="edge">
<title>INTF&#45;IF_XCO_MESSAGE&#45;&gt;DTEL&#45;SYMSGNO</title>
<path fill="none" stroke="black" d="M667.2,-729.85C514.45,-715.67 206.02,-679.37 124,-612 84.56,-579.61 57.21,-546.8 85,-504 95.96,-487.12 113.67,-475.58 132.12,-467.69"/>
<polygon fill="black" stroke="black" points="133.48,-470.92 141.51,-464 130.92,-464.4 133.48,-470.92"/>
</g>
<!-- DTEL&#45;SYMSGID -->
<g id="node11" class="node">
<title>DTEL&#45;SYMSGID</title>
<g id="a_node11"><a xlink:href="./DTEL_SYMSGID.html" xlink:title="DTEL&#45;SYMSGID">
<polygon fill="none" stroke="green" points="721.92,-468 602.08,-468 602.08,-432 721.92,-432 721.92,-468"/>
<text text-anchor="middle" x="662" y="-445.8" font-family="Times,serif" font-size="14.00">DTEL&#45;SYMSGID</text>
</a>
</g>
</g>
<!-- INTF&#45;IF_XCO_MESSAGE&#45;&gt;DTEL&#45;SYMSGID -->
<g id="edge4" class="edge">
<title>INTF&#45;IF_XCO_MESSAGE&#45;&gt;DTEL&#45;SYMSGID</title>
<path fill="none" stroke="black" d="M767.78,-719.77C804.87,-672.41 902.12,-541.34 873,-504 855.62,-481.71 786.43,-467.37 731.95,-459.3"/>
<polygon fill="black" stroke="black" points="732.37,-455.82 721.97,-457.86 731.37,-462.75 732.37,-455.82"/>
</g>
<!-- DTEL&#45;SYMSGTY -->
<g id="node13" class="node">
<title>DTEL&#45;SYMSGTY</title>
<g id="a_node13"><a xlink:href="./DTEL_SYMSGTY.html" xlink:title="DTEL&#45;SYMSGTY">
<polygon fill="none" stroke="green" points="592.81,-612 469.19,-612 469.19,-576 592.81,-576 592.81,-612"/>
<text text-anchor="middle" x="531" y="-589.8" font-family="Times,serif" font-size="14.00">DTEL&#45;SYMSGTY</text>
</a>
</g>
</g>
<!-- INTF&#45;IF_XCO_MESSAGE&#45;&gt;DTEL&#45;SYMSGTY -->
<g id="edge3" class="edge">
<title>INTF&#45;IF_XCO_MESSAGE&#45;&gt;DTEL&#45;SYMSGTY</title>
<path fill="none" stroke="black" d="M675.6,-719.96C649.64,-711.87 621.62,-700.28 599,-684 575.98,-667.43 557.11,-640.84 545.14,-621.03"/>
<polygon fill="black" stroke="black" points="548.05,-619.07 539.98,-612.2 542,-622.6 548.05,-619.07"/>
</g>
<!-- DTEL&#45;SYMSGV -->
<g id="node15" class="node">
<title>DTEL&#45;SYMSGV</title>
<g id="a_node15"><a xlink:href="./DTEL_SYMSGV.html" xlink:title="DTEL&#45;SYMSGV">
<polygon fill="none" stroke="green" points="413.25,-612 298.75,-612 298.75,-576 413.25,-576 413.25,-612"/>
<text text-anchor="middle" x="356" y="-589.8" font-family="Times,serif" font-size="14.00">DTEL&#45;SYMSGV</text>
</a>
</g>
</g>
<!-- INTF&#45;IF_XCO_MESSAGE&#45;&gt;DTEL&#45;SYMSGV -->
<g id="edge6" class="edge">
<title>INTF&#45;IF_XCO_MESSAGE&#45;&gt;DTEL&#45;SYMSGV</title>
<path fill="none" stroke="black" d="M667.43,-735.61C570.14,-732.22 420.37,-720.96 379,-684 361.85,-668.68 356.72,-642.41 355.51,-622.37"/>
<polygon fill="black" stroke="black" points="359.01,-622.15 355.19,-612.26 352.01,-622.37 359.01,-622.15"/>
</g>
<!-- INTF&#45;IF_XCO_MESSAGE_SHORT_TEXT -->
<g id="node17" class="node">
<title>INTF&#45;IF_XCO_MESSAGE_SHORT_TEXT</title>
<g id="a_node17"><a xlink:href="./INTF_IF_XCO_MESSAGE_SHORT_TEXT.html" xlink:title="INTF&#45;IF_XCO_MESSAGE_SHORT_TEXT">
<polygon fill="none" stroke="green" points="1108.23,-684 839.77,-684 839.77,-648 1108.23,-648 1108.23,-684"/>
<text text-anchor="middle" x="974" y="-661.8" font-family="Times,serif" font-size="14.00">INTF&#45;IF_XCO_MESSAGE_SHORT_TEXT</text>
</a>
</g>
</g>
<!-- INTF&#45;IF_XCO_MESSAGE&#45;&gt;INTF&#45;IF_XCO_MESSAGE_SHORT_TEXT -->
<g id="edge8" class="edge">
<title>INTF&#45;IF_XCO_MESSAGE&#45;&gt;INTF&#45;IF_XCO_MESSAGE_SHORT_TEXT</title>
<path fill="none" stroke="black" d="M801.65,-719.97C831.74,-710.06 871.07,-697.51 904.59,-687.12"/>
<polygon fill="black" stroke="black" points="905.81,-690.41 914.33,-684.11 903.74,-683.72 905.81,-690.41"/>
</g>
<!-- CLAS&#45;CL_XCO_MESSAGE_TYPE -->
<g id="node35" class="node">
<title>CLAS&#45;CL_XCO_MESSAGE_TYPE</title>
<g id="a_node35"><a xlink:href="./CLAS_CL_XCO_MESSAGE_TYPE.html" xlink:title="CLAS&#45;CL_XCO_MESSAGE_TYPE">
<polygon fill="none" stroke="green" points="1351.7,-684 1126.3,-684 1126.3,-648 1351.7,-648 1351.7,-684"/>
<text text-anchor="middle" x="1239" y="-661.8" font-family="Times,serif" font-size="14.00">CLAS&#45;CL_XCO_MESSAGE_TYPE</text>
</a>
</g>
</g>
<!-- INTF&#45;IF_XCO_MESSAGE&#45;&gt;CLAS&#45;CL_XCO_MESSAGE_TYPE -->
<g id="edge7" class="edge">
<title>INTF&#45;IF_XCO_MESSAGE&#45;&gt;CLAS&#45;CL_XCO_MESSAGE_TYPE</title>
<path fill="none" stroke="black" d="M840.71,-724.49C917.37,-713.42 1030.05,-697.16 1116.02,-684.75"/>
<polygon fill="black" stroke="black" points="1116.7,-688.19 1126.1,-683.29 1115.7,-681.26 1116.7,-688.19"/>
</g>
<!-- TABL&#45;SYMSG -->
<g id="node38" class="node">
<title>TABL&#45;SYMSG</title>
<g id="a_node38"><a xlink:href="./TABL_SYMSG.html" xlink:title="TABL&#45;SYMSG">
<polygon fill="none" stroke="green" points="493.93,-684 388.07,-684 388.07,-648 493.93,-648 493.93,-684"/>
<text text-anchor="middle" x="441" y="-661.8" font-family="Times,serif" font-size="14.00">TABL&#45;SYMSG</text>
</a>
</g>
</g>
<!-- INTF&#45;IF_XCO_MESSAGE&#45;&gt;TABL&#45;SYMSG -->
<g id="edge2" class="edge">
<title>INTF&#45;IF_XCO_MESSAGE&#45;&gt;TABL&#45;SYMSG</title>
<path fill="none" stroke="black" d="M677.83,-719.97C624.5,-708.04 554.11,-692.3 503.95,-681.08"/>
<polygon fill="black" stroke="black" points="504.41,-677.59 493.89,-678.83 502.88,-684.43 504.41,-677.59"/>
</g>
<!-- INTF&#45;IF_XCO_NEWS&#45;&gt;TTYP&#45;SXCO_T_MESSAGES -->
<g id="edge11" class="edge">
<title>INTF&#45;IF_XCO_NEWS&#45;&gt;TTYP&#45;SXCO_T_MESSAGES</title>
<path fill="none" stroke="black" d="M1402.49,-108.23C1424.84,-133.47 1462,-182.95 1462,-233 1462,-667 1462,-667 1462,-667 1462,-788.6 1055.4,-807.45 858.46,-809.45"/>
<polygon fill="black" stroke="black" points="858.35,-805.95 848.38,-809.53 858.41,-812.95 858.35,-805.95"/>
</g>
<!-- INTF&#45;IF_T100_MESSAGE -->
<g id="node5" class="node">
<title>INTF&#45;IF_T100_MESSAGE</title>
<g id="a_node5"><a xlink:href="./INTF_IF_T100_MESSAGE.html" xlink:title="INTF&#45;IF_T100_MESSAGE">
<polygon fill="none" stroke="green" points="783.59,-612 610.41,-612 610.41,-576 783.59,-576 783.59,-612"/>
<text text-anchor="middle" x="697" y="-589.8" font-family="Times,serif" font-size="14.00">INTF&#45;IF_T100_MESSAGE</text>
</a>
</g>
</g>
<!-- INTF&#45;IF_T100_DYN_MSG&#45;&gt;INTF&#45;IF_T100_MESSAGE -->
<g id="edge16" class="edge">
<title>INTF&#45;IF_T100_DYN_MSG&#45;&gt;INTF&#45;IF_T100_MESSAGE</title>
<path fill="none" stroke="black" d="M696.25,-647.7C696.36,-639.98 696.49,-630.71 696.61,-622.11"/>
<polygon fill="black" stroke="black" points="700.11,-622.15 696.76,-612.1 693.11,-622.05 700.11,-622.15"/>
</g>
<!-- INTF&#45;IF_MESSAGE -->
<g id="node6" class="node">
<title>INTF&#45;IF_MESSAGE</title>
<g id="a_node6"><a xlink:href="./INTF_IF_MESSAGE.html" xlink:title="INTF&#45;IF_MESSAGE">
<polygon fill="none" stroke="green" points="864.04,-540 727.96,-540 727.96,-504 864.04,-504 864.04,-540"/>
<text text-anchor="middle" x="796" y="-517.8" font-family="Times,serif" font-size="14.00">INTF&#45;IF_MESSAGE</text>
</a>
</g>
</g>
<!-- INTF&#45;IF_T100_DYN_MSG&#45;&gt;INTF&#45;IF_MESSAGE -->
<g id="edge15" class="edge">
<title>INTF&#45;IF_T100_DYN_MSG&#45;&gt;INTF&#45;IF_MESSAGE</title>
<path fill="none" stroke="black" d="M749.46,-647.9C766.27,-639.77 783.03,-628.17 793,-612 804.31,-593.65 804.19,-568.89 801.74,-550.15"/>
<polygon fill="black" stroke="black" points="805.17,-549.49 800.14,-540.16 798.26,-550.59 805.17,-549.49"/>
</g>
<!-- INTF&#45;IF_T100_DYN_MSG&#45;&gt;DTEL&#45;SYMSGTY -->
<g id="edge14" class="edge">
<title>INTF&#45;IF_T100_DYN_MSG&#45;&gt;DTEL&#45;SYMSGTY</title>
<path fill="none" stroke="black" d="M655.64,-647.88C632.98,-638.26 604.53,-626.19 580.53,-616.01"/>
<polygon fill="black" stroke="black" points="581.81,-612.75 571.23,-612.07 579.07,-619.2 581.81,-612.75"/>
</g>
<!-- INTF&#45;IF_T100_DYN_MSG&#45;&gt;DTEL&#45;SYMSGV -->
<g id="edge13" class="edge">
<title>INTF&#45;IF_T100_DYN_MSG&#45;&gt;DTEL&#45;SYMSGV</title>
<path fill="none" stroke="black" d="M613.26,-647.97C554.97,-635.96 477.9,-620.1 423.36,-608.87"/>
<polygon fill="black" stroke="black" points="423.95,-605.42 413.45,-606.83 422.54,-612.27 423.95,-605.42"/>
</g>
<!-- INTF&#45;IF_T100_MESSAGE&#45;&gt;INTF&#45;IF_MESSAGE -->
<g id="edge21" class="edge">
<title>INTF&#45;IF_T100_MESSAGE&#45;&gt;INTF&#45;IF_MESSAGE</title>
<path fill="none" stroke="black" d="M721.22,-575.88C733.92,-566.89 749.66,-555.76 763.42,-546.03"/>
<polygon fill="black" stroke="black" points="765.54,-548.82 771.69,-540.19 761.5,-543.11 765.54,-548.82"/>
</g>
<!-- TABL&#45;SCX_T100KEY -->
<g id="node7" class="node">
<title>TABL&#45;SCX_T100KEY</title>
<g id="a_node7"><a xlink:href="./TABL_SCX_T100KEY.html" xlink:title="TABL&#45;SCX_T100KEY">
<polygon fill="none" stroke="yellow" points="633.75,-540 484.25,-540 484.25,-504 633.75,-504 633.75,-540"/>
<text text-anchor="middle" x="559" y="-517.8" font-family="Times,serif" font-size="14.00">TABL&#45;SCX_T100KEY</text>
</a>
</g>
</g>
<!-- INTF&#45;IF_T100_MESSAGE&#45;&gt;TABL&#45;SCX_T100KEY -->
<g id="edge20" class="edge">
<title>INTF&#45;IF_T100_MESSAGE&#45;&gt;TABL&#45;SCX_T100KEY</title>
<path fill="none" stroke="black" d="M663.24,-575.88C644.78,-566.51 621.72,-554.81 601.98,-544.8"/>
<polygon fill="black" stroke="black" points="603.39,-541.59 592.89,-540.19 600.22,-547.83 603.39,-541.59"/>
</g>
<!-- DTEL&#45;SCX_ATTRNAME -->
<g id="node8" class="node">
<title>DTEL&#45;SCX_ATTRNAME</title>
<g id="a_node8"><a xlink:href="./DTEL_SCX_ATTRNAME.html" xlink:title="DTEL&#45;SCX_ATTRNAME">
<polygon fill="none" stroke="green" points="562.41,-468 393.59,-468 393.59,-432 562.41,-432 562.41,-468"/>
<text text-anchor="middle" x="478" y="-445.8" font-family="Times,serif" font-size="14.00">DTEL&#45;SCX_ATTRNAME</text>
</a>
</g>
</g>
<!-- INTF&#45;IF_T100_MESSAGE&#45;&gt;DTEL&#45;SCX_ATTRNAME -->
<g id="edge19" class="edge">
<title>INTF&#45;IF_T100_MESSAGE&#45;&gt;DTEL&#45;SCX_ATTRNAME</title>
<path fill="none" stroke="black" d="M610.25,-577.58C551.78,-566.3 483.76,-551.1 475,-540 461.36,-522.72 463.82,-497.12 468.69,-477.81"/>
<polygon fill="black" stroke="black" points="472.09,-478.67 471.48,-468.09 465.36,-476.74 472.09,-478.67"/>
</g>
<!-- INTF&#45;IF_T100_MESSAGE&#45;&gt;DTEL&#45;SYMSGNO -->
<g id="edge18" class="edge">
<title>INTF&#45;IF_T100_MESSAGE&#45;&gt;DTEL&#45;SYMSGNO</title>
<path fill="none" stroke="black" d="M610.3,-576.4C554.69,-565.2 488.03,-550.59 461,-540 431.33,-528.37 428.4,-516.28 399,-504 359.63,-487.55 313.65,-474.77 276.23,-465.88"/>
<polygon fill="black" stroke="black" points="276.95,-462.46 266.41,-463.59 275.36,-469.27 276.95,-462.46"/>
</g>
<!-- INTF&#45;IF_T100_MESSAGE&#45;&gt;DTEL&#45;SYMSGID -->
<g id="edge17" class="edge">
<title>INTF&#45;IF_T100_MESSAGE&#45;&gt;DTEL&#45;SYMSGID</title>
<path fill="none" stroke="black" d="M693.11,-575.91C688.99,-557.96 682.24,-528.95 676,-504 673.89,-495.56 671.5,-486.39 669.3,-478.09"/>
<polygon fill="black" stroke="black" points="672.61,-476.92 666.66,-468.16 665.85,-478.72 672.61,-476.92"/>
</g>
<!-- TABL&#45;SCX_T100KEY&#45;&gt;DTEL&#45;SCX_ATTRNAME -->
<g id="edge24" class="edge">
<title>TABL&#45;SCX_T100KEY&#45;&gt;DTEL&#45;SCX_ATTRNAME</title>
<path fill="none" stroke="black" d="M538.98,-503.7C528.87,-494.97 516.46,-484.24 505.48,-474.75"/>
<polygon fill="black" stroke="black" points="507.65,-471.99 497.79,-468.1 503.07,-477.29 507.65,-471.99"/>
</g>
<!-- TABL&#45;SCX_T100KEY&#45;&gt;DTEL&#45;SYMSGNO -->
<g id="edge23" class="edge">
<title>TABL&#45;SCX_T100KEY&#45;&gt;DTEL&#45;SYMSGNO</title>
<path fill="none" stroke="black" d="M484.15,-506.24C422.97,-494.18 337,-477.22 276.47,-465.29"/>
<polygon fill="black" stroke="black" points="277.1,-461.85 266.61,-463.35 275.74,-468.71 277.1,-461.85"/>
</g>
<!-- TABL&#45;SCX_T100KEY&#45;&gt;DTEL&#45;SYMSGID -->
<g id="edge22" class="edge">
<title>TABL&#45;SCX_T100KEY&#45;&gt;DTEL&#45;SYMSGID</title>
<path fill="none" stroke="black" d="M584.2,-503.88C597.41,-494.89 613.79,-483.76 628.11,-474.03"/>
<polygon fill="black" stroke="black" points="630.4,-476.71 636.71,-468.19 626.47,-470.92 630.4,-476.71"/>
</g>
<!-- DOMA&#45;SYMSGNO -->
<g id="node10" class="node">
<title>DOMA&#45;SYMSGNO</title>
<g id="a_node10"><a xlink:href="./DOMA_SYMSGNO.html" xlink:title="DOMA&#45;SYMSGNO">
<polygon fill="none" stroke="yellow" points="269.86,-396 138.14,-396 138.14,-360 269.86,-360 269.86,-396"/>
<text text-anchor="middle" x="204" y="-373.8" font-family="Times,serif" font-size="14.00">DOMA&#45;SYMSGNO</text>
</a>
</g>
</g>
<!-- DTEL&#45;SYMSGNO&#45;&gt;DOMA&#45;SYMSGNO -->
<g id="edge25" class="edge">
<title>DTEL&#45;SYMSGNO&#45;&gt;DOMA&#45;SYMSGNO</title>
<path fill="none" stroke="black" d="M204,-431.7C204,-423.98 204,-414.71 204,-406.11"/>
<polygon fill="black" stroke="black" points="207.5,-406.1 204,-396.1 200.5,-406.1 207.5,-406.1"/>
</g>
<!-- DOMA&#45;ARBGB -->
<g id="node12" class="node">
<title>DOMA&#45;ARBGB</title>
<g id="a_node12"><a xlink:href="./DOMA_ARBGB.html" xlink:title="DOMA&#45;ARBGB">
<polygon fill="none" stroke="yellow" points="646.65,-396 535.35,-396 535.35,-360 646.65,-360 646.65,-396"/>
<text text-anchor="middle" x="591" y="-373.8" font-family="Times,serif" font-size="14.00">DOMA&#45;ARBGB</text>
</a>
</g>
</g>
<!-- DTEL&#45;SYMSGID&#45;&gt;DOMA&#45;ARBGB -->
<g id="edge26" class="edge">
<title>DTEL&#45;SYMSGID&#45;&gt;DOMA&#45;ARBGB</title>
<path fill="none" stroke="black" d="M644.45,-431.7C635.77,-423.14 625.14,-412.66 615.65,-403.3"/>
<polygon fill="black" stroke="black" points="617.93,-400.63 608.35,-396.1 613.01,-405.62 617.93,-400.63"/>
</g>
<!-- DOMA&#45;SYCHAR01 -->
<g id="node14" class="node">
<title>DOMA&#45;SYCHAR01</title>
<g id="a_node14"><a xlink:href="./DOMA_SYCHAR01.html" xlink:title="DOMA&#45;SYCHAR01">
<polygon fill="none" stroke="yellow" points="390.2,-540 255.8,-540 255.8,-504 390.2,-504 390.2,-540"/>
<text text-anchor="middle" x="323" y="-517.8" font-family="Times,serif" font-size="14.00">DOMA&#45;SYCHAR01</text>
</a>
</g>
</g>
<!-- DTEL&#45;SYMSGTY&#45;&gt;DOMA&#45;SYCHAR01 -->
<g id="edge27" class="edge">
<title>DTEL&#45;SYMSGTY&#45;&gt;DOMA&#45;SYCHAR01</title>
<path fill="none" stroke="black" d="M480.38,-575.97C451.19,-566.14 414.31,-553.73 383.58,-543.39"/>
<polygon fill="black" stroke="black" points="384.44,-539.98 373.84,-540.11 382.2,-546.62 384.44,-539.98"/>
</g>
<!-- DOMA&#45;SYCHAR50 -->
<g id="node16" class="node">
<title>DOMA&#45;SYCHAR50</title>
<g id="a_node16"><a xlink:href="./DOMA_SYCHAR50.html" xlink:title="DOMA&#45;SYCHAR50">
<polygon fill="none" stroke="yellow" points="238.2,-540 103.8,-540 103.8,-504 238.2,-504 238.2,-540"/>
<text text-anchor="middle" x="171" y="-517.8" font-family="Times,serif" font-size="14.00">DOMA&#45;SYCHAR50</text>
</a>
</g>
</g>
<!-- DTEL&#45;SYMSGV&#45;&gt;DOMA&#45;SYCHAR50 -->
<g id="edge28" class="edge">
<title>DTEL&#45;SYMSGV&#45;&gt;DOMA&#45;SYCHAR50</title>
<path fill="none" stroke="black" d="M310.74,-575.88C285,-566.14 252.59,-553.87 225.46,-543.61"/>
<polygon fill="black" stroke="black" points="226.7,-540.33 216.11,-540.07 224.22,-546.88 226.7,-540.33"/>
</g>
<!-- INTF&#45;IF_XCO_MESSAGE_SHORT_TEXT&#45;&gt;INTF&#45;IF_XCO_MESSAGE -->
<g id="edge29" class="edge">
<title>INTF&#45;IF_XCO_MESSAGE_SHORT_TEXT&#45;&gt;INTF&#45;IF_XCO_MESSAGE</title>
<path fill="none" stroke="black" d="M926.12,-684.11C895.98,-694.03 856.64,-706.58 823.16,-716.96"/>
<polygon fill="black" stroke="black" points="821.95,-713.67 813.42,-719.97 824.01,-720.36 821.95,-713.67"/>
</g>
<!-- INTF&#45;IF_XCO_L10N_TEXT -->
<g id="node18" class="node">
<title>INTF&#45;IF_XCO_L10N_TEXT</title>
<g id="a_node18"><a xlink:href="./INTF_IF_XCO_L10N_TEXT.html" xlink:title="INTF&#45;IF_XCO_L10N_TEXT">
<polygon fill="none" stroke="yellow" points="1061.68,-612 878.32,-612 878.32,-576 1061.68,-576 1061.68,-612"/>
<text text-anchor="middle" x="970" y="-589.8" font-family="Times,serif" font-size="14.00">INTF&#45;IF_XCO_L10N_TEXT</text>
</a>
</g>
</g>
<!-- INTF&#45;IF_XCO_MESSAGE_SHORT_TEXT&#45;&gt;INTF&#45;IF_XCO_L10N_TEXT -->
<g id="edge31" class="edge">
<title>INTF&#45;IF_XCO_MESSAGE_SHORT_TEXT&#45;&gt;INTF&#45;IF_XCO_L10N_TEXT</title>
<path fill="none" stroke="black" d="M973.01,-647.7C972.57,-639.98 972.04,-630.71 971.55,-622.11"/>
<polygon fill="black" stroke="black" points="975.04,-621.89 970.98,-612.1 968.05,-622.29 975.04,-621.89"/>
</g>
<!-- INTF&#45;IF_XCO_TEXT -->
<g id="node19" class="node">
<title>INTF&#45;IF_XCO_TEXT</title>
<g id="a_node19"><a xlink:href="./INTF_IF_XCO_TEXT.html" xlink:title="INTF&#45;IF_XCO_TEXT">
<polygon fill="none" stroke="green" points="1161.52,-468 1018.48,-468 1018.48,-432 1161.52,-432 1161.52,-468"/>
<text text-anchor="middle" x="1090" y="-445.8" font-family="Times,serif" font-size="14.00">INTF&#45;IF_XCO_TEXT</text>
</a>
</g>
</g>
<!-- INTF&#45;IF_XCO_MESSAGE_SHORT_TEXT&#45;&gt;INTF&#45;IF_XCO_TEXT -->
<g id="edge30" class="edge">
<title>INTF&#45;IF_XCO_MESSAGE_SHORT_TEXT&#45;&gt;INTF&#45;IF_XCO_TEXT</title>
<path fill="none" stroke="black" d="M1025.69,-647.9C1042.76,-639.7 1060.15,-628.06 1071,-612 1098.15,-571.8 1097.36,-512.76 1093.94,-478.46"/>
<polygon fill="black" stroke="black" points="1097.38,-477.79 1092.77,-468.25 1090.43,-478.59 1097.38,-477.79"/>
</g>
<!-- INTF&#45;IF_XCO_L10N_TEXT&#45;&gt;INTF&#45;IF_XCO_TEXT -->
<g id="edge33" class="edge">
<title>INTF&#45;IF_XCO_L10N_TEXT&#45;&gt;INTF&#45;IF_XCO_TEXT</title>
<path fill="none" stroke="black" d="M991.34,-575.97C1003.09,-566.09 1017.56,-553.04 1029,-540 1046.33,-520.24 1062.98,-495.41 1074.5,-477"/>
<polygon fill="black" stroke="black" points="1077.61,-478.62 1079.88,-468.27 1071.65,-474.95 1077.61,-478.62"/>
</g>
<!-- DTEL&#45;SPRAS -->
<g id="node33" class="node">
<title>DTEL&#45;SPRAS</title>
<g id="a_node33"><a xlink:href="./DTEL_SPRAS.html" xlink:title="DTEL&#45;SPRAS">
<polygon fill="none" stroke="green" points="1019.72,-540 920.28,-540 920.28,-504 1019.72,-504 1019.72,-540"/>
<text text-anchor="middle" x="970" y="-517.8" font-family="Times,serif" font-size="14.00">DTEL&#45;SPRAS</text>
</a>
</g>
</g>
<!-- INTF&#45;IF_XCO_L10N_TEXT&#45;&gt;DTEL&#45;SPRAS -->
<g id="edge32" class="edge">
<title>INTF&#45;IF_XCO_L10N_TEXT&#45;&gt;DTEL&#45;SPRAS</title>
<path fill="none" stroke="black" d="M970,-575.7C970,-567.98 970,-558.71 970,-550.11"/>
<polygon fill="black" stroke="black" points="973.5,-550.1 970,-540.1 966.5,-550.1 973.5,-550.1"/>
</g>
<!-- INTF&#45;IF_XCO_STRINGS -->
<g id="node20" class="node">
<title>INTF&#45;IF_XCO_STRINGS</title>
<g id="a_node20"><a xlink:href="./INTF_IF_XCO_STRINGS.html" xlink:title="INTF&#45;IF_XCO_STRINGS">
<polygon fill="none" stroke="green" points="831.08,-396 664.92,-396 664.92,-360 831.08,-360 831.08,-396"/>
<text text-anchor="middle" x="748" y="-373.8" font-family="Times,serif" font-size="14.00">INTF&#45;IF_XCO_STRINGS</text>
</a>
</g>
</g>
<!-- INTF&#45;IF_XCO_TEXT&#45;&gt;INTF&#45;IF_XCO_STRINGS -->
<g id="edge34" class="edge">
<title>INTF&#45;IF_XCO_TEXT&#45;&gt;INTF&#45;IF_XCO_STRINGS</title>
<path fill="none" stroke="black" d="M1018.26,-435.78C1012.06,-434.5 1005.91,-433.22 1000,-432 944.93,-420.63 883.27,-408.1 834.69,-398.08"/>
<polygon fill="black" stroke="black" points="835.34,-394.64 824.84,-396.05 833.92,-401.5 835.34,-394.64"/>
</g>
<!-- INTF&#45;IF_XCO_STRINGS&#45;&gt;INTF&#45;IF_XCO_NEWS -->
<g id="edge39" class="edge">
<title>INTF&#45;IF_XCO_STRINGS&#45;&gt;INTF&#45;IF_XCO_NEWS</title>
<path fill="none" stroke="black" d="M831.15,-374.09C952.79,-368.82 1172.65,-355.23 1245,-324 1290.15,-304.52 1301.19,-292.55 1329,-252 1344.28,-229.72 1366.69,-157.59 1378.33,-117.86"/>
<polygon fill="black" stroke="black" points="1381.76,-118.62 1381.18,-108.05 1375.03,-116.67 1381.76,-118.62"/>
</g>
<!-- INTF&#45;IF_XCO_STRINGS&#45;&gt;INTF&#45;IF_XCO_TEXT -->
<g id="edge40" class="edge">
<title>INTF&#45;IF_XCO_STRINGS&#45;&gt;INTF&#45;IF_XCO_TEXT</title>
<path fill="none" stroke="black" d="M831.29,-394.23C881.98,-404.2 948.2,-417.62 1008.42,-430.03"/>
<polygon fill="black" stroke="black" points="1007.92,-433.5 1018.42,-432.09 1009.34,-426.64 1007.92,-433.5"/>
</g>
<!-- INTF&#45;IF_XCO_STRING_ITERABLE -->
<g id="node21" class="node">
<title>INTF&#45;IF_XCO_STRING_ITERABLE</title>
<g id="a_node21"><a xlink:href="./INTF_IF_XCO_STRING_ITERABLE.html" xlink:title="INTF&#45;IF_XCO_STRING_ITERABLE">
<polygon fill="none" stroke="green" points="1059.45,-324 826.55,-324 826.55,-288 1059.45,-288 1059.45,-324"/>
<text text-anchor="middle" x="943" y="-301.8" font-family="Times,serif" font-size="14.00">INTF&#45;IF_XCO_STRING_ITERABLE</text>
</a>
</g>
</g>
<!-- INTF&#45;IF_XCO_STRINGS&#45;&gt;INTF&#45;IF_XCO_STRING_ITERABLE -->
<g id="edge41" class="edge">
<title>INTF&#45;IF_XCO_STRINGS&#45;&gt;INTF&#45;IF_XCO_STRING_ITERABLE</title>
<path fill="none" stroke="black" d="M795.7,-359.88C822.95,-350.09 857.3,-337.77 885.97,-327.47"/>
<polygon fill="black" stroke="black" points="887.22,-330.74 895.45,-324.07 884.86,-324.15 887.22,-330.74"/>
</g>
<!-- INTF&#45;IF_XCO_STRING -->
<g id="node24" class="node">
<title>INTF&#45;IF_XCO_STRING</title>
<g id="a_node24"><a xlink:href="./INTF_IF_XCO_STRING.html" xlink:title="INTF&#45;IF_XCO_STRING">
<polygon fill="none" stroke="green" points="757.3,-180 598.7,-180 598.7,-144 757.3,-144 757.3,-180"/>
<text text-anchor="middle" x="678" y="-157.8" font-family="Times,serif" font-size="14.00">INTF&#45;IF_XCO_STRING</text>
</a>
</g>
</g>
<!-- INTF&#45;IF_XCO_STRINGS&#45;&gt;INTF&#45;IF_XCO_STRING -->
<g id="edge37" class="edge">
<title>INTF&#45;IF_XCO_STRINGS&#45;&gt;INTF&#45;IF_XCO_STRING</title>
<path fill="none" stroke="black" d="M664.78,-362.44C606.8,-350.88 538.49,-334.91 530,-324 489.86,-272.41 571.7,-215.18 629,-184.78"/>
<polygon fill="black" stroke="black" points="630.69,-187.85 637.96,-180.14 627.47,-181.63 630.69,-187.85"/>
</g>
<!-- INTF&#45;IF_XCO_STRING_COMPOSITION -->
<g id="node29" class="node">
<title>INTF&#45;IF_XCO_STRING_COMPOSITION</title>
<g id="a_node29"><a xlink:href="./INTF_IF_XCO_STRING_COMPOSITION.html" xlink:title="INTF&#45;IF_XCO_STRING_COMPOSITION">
<polygon fill="none" stroke="green" points="808.45,-324 547.55,-324 547.55,-288 808.45,-288 808.45,-324"/>
<text text-anchor="middle" x="678" y="-301.8" font-family="Times,serif" font-size="14.00">INTF&#45;IF_XCO_STRING_COMPOSITION</text>
</a>
</g>
</g>
<!-- INTF&#45;IF_XCO_STRINGS&#45;&gt;INTF&#45;IF_XCO_STRING_COMPOSITION -->
<g id="edge38" class="edge">
<title>INTF&#45;IF_XCO_STRINGS&#45;&gt;INTF&#45;IF_XCO_STRING_COMPOSITION</title>
<path fill="none" stroke="black" d="M724.78,-359.7C715.43,-351.22 704.89,-340.86 696.11,-331.58"/>
<polygon fill="black" stroke="black" points="698.56,-329.08 689.21,-324.1 693.42,-333.83 698.56,-329.08"/>
</g>
<!-- TTYP&#45;STRING_TABLE -->
<g id="node30" class="node">
<title>TTYP&#45;STRING_TABLE</title>
<g id="a_node30"><a xlink:href="./TTYP_STRING_TABLE.html" xlink:title="TTYP&#45;STRING_TABLE">
<polygon fill="none" stroke="green" points="1236.3,-324 1077.7,-324 1077.7,-288 1236.3,-288 1236.3,-324"/>
<text text-anchor="middle" x="1157" y="-301.8" font-family="Times,serif" font-size="14.00">TTYP&#45;STRING_TABLE</text>
</a>
</g>
</g>
<!-- INTF&#45;IF_XCO_STRINGS&#45;&gt;TTYP&#45;STRING_TABLE -->
<g id="edge36" class="edge">
<title>INTF&#45;IF_XCO_STRINGS&#45;&gt;TTYP&#45;STRING_TABLE</title>
<path fill="none" stroke="black" d="M831.31,-363.78C893.55,-353.77 980.98,-339.42 1067.45,-324.08"/>
<polygon fill="black" stroke="black" points="1068.21,-327.5 1077.44,-322.3 1066.98,-320.6 1068.21,-327.5"/>
</g>
<!-- DTEL&#45;INT4 -->
<g id="node31" class="node">
<title>DTEL&#45;INT4</title>
<g id="a_node31"><a xlink:href="./DTEL_INT4.html" xlink:title="DTEL&#45;INT4">
<polygon fill="none" stroke="green" points="472.25,-324 385.75,-324 385.75,-288 472.25,-288 472.25,-324"/>
<text text-anchor="middle" x="429" y="-301.8" font-family="Times,serif" font-size="14.00">DTEL&#45;INT4</text>
</a>
</g>
</g>
<!-- INTF&#45;IF_XCO_STRINGS&#45;&gt;DTEL&#45;INT4 -->
<g id="edge35" class="edge">
<title>INTF&#45;IF_XCO_STRINGS&#45;&gt;DTEL&#45;INT4</title>
<path fill="none" stroke="black" d="M664.94,-360.81C602.01,-348.41 520.94,-332.09 488,-324 486.1,-323.53 484.16,-323.05 482.21,-322.54"/>
<polygon fill="black" stroke="black" points="482.96,-319.12 472.39,-319.93 481.16,-325.88 482.96,-319.12"/>
</g>
<!-- INTF&#45;IF_XCO_STRING_ITERATOR -->
<g id="node22" class="node">
<title>INTF&#45;IF_XCO_STRING_ITERATOR</title>
<g id="a_node22"><a xlink:href="./INTF_IF_XCO_STRING_ITERATOR.html" xlink:title="INTF&#45;IF_XCO_STRING_ITERATOR">
<polygon fill="none" stroke="green" points="1320.01,-252 1085.99,-252 1085.99,-216 1320.01,-216 1320.01,-252"/>
<text text-anchor="middle" x="1203" y="-229.8" font-family="Times,serif" font-size="14.00">INTF&#45;IF_XCO_STRING_ITERATOR</text>
</a>
</g>
</g>
<!-- INTF&#45;IF_XCO_STRING_ITERABLE&#45;&gt;INTF&#45;IF_XCO_STRING_ITERATOR -->
<g id="edge42" class="edge">
<title>INTF&#45;IF_XCO_STRING_ITERABLE&#45;&gt;INTF&#45;IF_XCO_STRING_ITERATOR</title>
<path fill="none" stroke="black" d="M1006.27,-287.97C1043.55,-277.93 1090.86,-265.19 1129.75,-254.72"/>
<polygon fill="black" stroke="black" points="1130.7,-258.09 1139.45,-252.11 1128.88,-251.33 1130.7,-258.09"/>
</g>
<!-- INTF&#45;IF_XCO_ITERATOR -->
<g id="node23" class="node">
<title>INTF&#45;IF_XCO_ITERATOR</title>
<g id="a_node23"><a xlink:href="./INTF_IF_XCO_ITERATOR.html" xlink:title="INTF&#45;IF_XCO_ITERATOR">
<polygon fill="none" stroke="green" points="1291.46,-180 1114.54,-180 1114.54,-144 1291.46,-144 1291.46,-180"/>
<text text-anchor="middle" x="1203" y="-157.8" font-family="Times,serif" font-size="14.00">INTF&#45;IF_XCO_ITERATOR</text>
</a>
</g>
</g>
<!-- INTF&#45;IF_XCO_STRING_ITERATOR&#45;&gt;INTF&#45;IF_XCO_ITERATOR -->
<g id="edge44" class="edge">
<title>INTF&#45;IF_XCO_STRING_ITERATOR&#45;&gt;INTF&#45;IF_XCO_ITERATOR</title>
<path fill="none" stroke="black" d="M1203,-215.7C1203,-207.98 1203,-198.71 1203,-190.11"/>
<polygon fill="black" stroke="black" points="1206.5,-190.1 1203,-180.1 1199.5,-190.1 1206.5,-190.1"/>
</g>
<!-- INTF&#45;IF_XCO_STRING_ITERATOR&#45;&gt;INTF&#45;IF_XCO_STRING -->
<g id="edge43" class="edge">
<title>INTF&#45;IF_XCO_STRING_ITERATOR&#45;&gt;INTF&#45;IF_XCO_STRING</title>
<path fill="none" stroke="black" d="M1085.83,-217.38C989.52,-204.54 855.08,-186.61 767.3,-174.91"/>
<polygon fill="black" stroke="black" points="767.74,-171.43 757.37,-173.58 766.82,-178.37 767.74,-171.43"/>
</g>
<!-- INTF&#45;IF_XCO_STRING&#45;&gt;INTF&#45;IF_XCO_MESSAGE -->
<g id="edge47" class="edge">
<title>INTF&#45;IF_XCO_STRING&#45;&gt;INTF&#45;IF_XCO_MESSAGE</title>
<path fill="none" stroke="black" d="M598.56,-163.1C419.53,-165.46 0,-183.91 0,-305 0,-595 0,-595 0,-595 0,-691.48 104.73,-659.31 198,-684 355.03,-725.56 544.63,-735.42 656.93,-737.28"/>
<polygon fill="black" stroke="black" points="657.17,-740.78 667.22,-737.43 657.27,-733.78 657.17,-740.78"/>
</g>
<!-- INTF&#45;IF_XCO_STRING&#45;&gt;INTF&#45;IF_XCO_NEWS -->
<g id="edge50" class="edge">
<title>INTF&#45;IF_XCO_STRING&#45;&gt;INTF&#45;IF_XCO_NEWS</title>
<path fill="none" stroke="black" d="M757.16,-153.17C891.81,-139.86 1164.22,-112.93 1302.06,-99.3"/>
<polygon fill="black" stroke="black" points="1302.54,-102.77 1312.15,-98.3 1301.86,-95.8 1302.54,-102.77"/>
</g>
<!-- INTF&#45;IF_XCO_STRING&#45;&gt;INTF&#45;IF_XCO_TEXT -->
<g id="edge51" class="edge">
<title>INTF&#45;IF_XCO_STRING&#45;&gt;INTF&#45;IF_XCO_TEXT</title>
<path fill="none" stroke="black" d="M753.34,-180C833.53,-198.05 964.16,-227.32 1077,-252 1151.6,-268.31 1196.99,-228.62 1245,-288 1288.04,-341.24 1198.12,-397.57 1138.07,-427.44"/>
<polygon fill="black" stroke="black" points="1136.54,-424.3 1129.09,-431.83 1139.61,-430.59 1136.54,-424.3"/>
</g>
<!-- INTF&#45;IF_XCO_STRING&#45;&gt;INTF&#45;IF_XCO_STRINGS -->
<g id="edge45" class="edge">
<title>INTF&#45;IF_XCO_STRING&#45;&gt;INTF&#45;IF_XCO_STRINGS</title>
<path fill="none" stroke="black" d="M649,-180.14C598.81,-209.04 505.71,-269.65 548,-324 555.41,-333.52 608.35,-346.89 657.94,-357.82"/>
<polygon fill="black" stroke="black" points="657.28,-361.26 667.8,-359.97 658.77,-354.42 657.28,-361.26"/>
</g>
<!-- INTF&#45;IF_XCO_STRING&#45;&gt;INTF&#45;IF_XCO_STRING_ITERABLE -->
<g id="edge52" class="edge">
<title>INTF&#45;IF_XCO_STRING&#45;&gt;INTF&#45;IF_XCO_STRING_ITERABLE</title>
<path fill="none" stroke="black" d="M710.08,-180.19C758.2,-205.97 849.04,-254.65 901.93,-283"/>
<polygon fill="black" stroke="black" points="900.57,-286.23 911.03,-287.87 903.87,-280.06 900.57,-286.23"/>
</g>
<!-- INTF&#45;IF_XCO_XSTRING -->
<g id="node25" class="node">
<title>INTF&#45;IF_XCO_XSTRING</title>
<g id="a_node25"><a xlink:href="./INTF_IF_XCO_XSTRING.html" xlink:title="INTF&#45;IF_XCO_XSTRING">
<polygon fill="none" stroke="green" points="886.41,-108 717.59,-108 717.59,-72 886.41,-72 886.41,-108"/>
<text text-anchor="middle" x="802" y="-85.8" font-family="Times,serif" font-size="14.00">INTF&#45;IF_XCO_XSTRING</text>
</a>
</g>
</g>
<!-- INTF&#45;IF_XCO_STRING&#45;&gt;INTF&#45;IF_XCO_XSTRING -->
<g id="edge49" class="edge">
<title>INTF&#45;IF_XCO_STRING&#45;&gt;INTF&#45;IF_XCO_XSTRING</title>
<path fill="none" stroke="black" d="M702.44,-143.88C717.97,-134.55 738.45,-122.92 756.82,-112.94"/>
<polygon fill="black" stroke="black" points="758.5,-116.01 765.65,-108.19 755.18,-109.85 758.5,-116.01"/>
</g>
<!-- INTF&#45;IF_XCO_STRING_XSTRING_CNVRSN -->
<g id="node27" class="node">
<title>INTF&#45;IF_XCO_STRING_XSTRING_CNVRSN</title>
<g id="a_node27"><a xlink:href="./INTF_IF_XCO_STRING_XSTRING_CNVRSN.html" xlink:title="INTF&#45;IF_XCO_STRING_XSTRING_CNVRSN">
<polygon fill="none" stroke="green" points="699.73,-108 410.27,-108 410.27,-72 699.73,-72 699.73,-108"/>
<text text-anchor="middle" x="555" y="-85.8" font-family="Times,serif" font-size="14.00">INTF&#45;IF_XCO_STRING_XSTRING_CNVRSN</text>
</a>
</g>
</g>
<!-- INTF&#45;IF_XCO_STRING&#45;&gt;INTF&#45;IF_XCO_STRING_XSTRING_CNVRSN -->
<g id="edge48" class="edge">
<title>INTF&#45;IF_XCO_STRING&#45;&gt;INTF&#45;IF_XCO_STRING_XSTRING_CNVRSN</title>
<path fill="none" stroke="black" d="M647.91,-143.88C631.68,-134.64 611.46,-123.13 594.03,-113.21"/>
<polygon fill="black" stroke="black" points="595.63,-110.09 585.2,-108.19 592.16,-116.18 595.63,-110.09"/>
</g>
<!-- INTF&#45;IF_XCO_STRING_DECOMPOSITION -->
<g id="node28" class="node">
<title>INTF&#45;IF_XCO_STRING_DECOMPOSITION</title>
<g id="a_node28"><a xlink:href="./INTF_IF_XCO_STRING_DECOMPOSITION.html" xlink:title="INTF&#45;IF_XCO_STRING_DECOMPOSITION">
<polygon fill="none" stroke="green" points="391.61,-108 112.39,-108 112.39,-72 391.61,-72 391.61,-108"/>
<text text-anchor="middle" x="252" y="-85.8" font-family="Times,serif" font-size="14.00">INTF&#45;IF_XCO_STRING_DECOMPOSITION</text>
</a>
</g>
</g>
<!-- INTF&#45;IF_XCO_STRING&#45;&gt;INTF&#45;IF_XCO_STRING_DECOMPOSITION -->
<g id="edge46" class="edge">
<title>INTF&#45;IF_XCO_STRING&#45;&gt;INTF&#45;IF_XCO_STRING_DECOMPOSITION</title>
<path fill="none" stroke="black" d="M598.53,-148.81C531.16,-138.01 433.98,-122.09 359.65,-109.68"/>
<polygon fill="black" stroke="black" points="360.22,-106.23 349.78,-108.03 359.07,-113.13 360.22,-106.23"/>
</g>
<!-- INTF&#45;IF_XCO_XSTRING&#45;&gt;INTF&#45;IF_XCO_STRING -->
<g id="edge54" class="edge">
<title>INTF&#45;IF_XCO_XSTRING&#45;&gt;INTF&#45;IF_XCO_STRING</title>
<path fill="none" stroke="black" d="M777.45,-108.19C761.89,-117.52 741.41,-129.16 723.05,-139.13"/>
<polygon fill="black" stroke="black" points="721.38,-136.06 714.23,-143.88 724.7,-142.22 721.38,-136.06"/>
</g>
<!-- INTF&#45;IF_XCO_XSTRING_STRING_CNVRSN -->
<g id="node26" class="node">
<title>INTF&#45;IF_XCO_XSTRING_STRING_CNVRSN</title>
<g id="a_node26"><a xlink:href="./INTF_IF_XCO_XSTRING_STRING_CNVRSN.html" xlink:title="INTF&#45;IF_XCO_XSTRING_STRING_CNVRSN">
<polygon fill="none" stroke="green" points="946.73,-36 657.27,-36 657.27,0 946.73,0 946.73,-36"/>
<text text-anchor="middle" x="802" y="-13.8" font-family="Times,serif" font-size="14.00">INTF&#45;IF_XCO_XSTRING_STRING_CNVRSN</text>
</a>
</g>
</g>
<!-- INTF&#45;IF_XCO_XSTRING&#45;&gt;INTF&#45;IF_XCO_XSTRING_STRING_CNVRSN -->
<g id="edge53" class="edge">
<title>INTF&#45;IF_XCO_XSTRING&#45;&gt;INTF&#45;IF_XCO_XSTRING_STRING_CNVRSN</title>
<path fill="none" stroke="black" d="M802,-71.7C802,-63.98 802,-54.71 802,-46.11"/>
<polygon fill="black" stroke="black" points="805.5,-46.1 802,-36.1 798.5,-46.1 805.5,-46.1"/>
</g>
<!-- INTF&#45;IF_XCO_STRING_DECOMPOSITION&#45;&gt;INTF&#45;IF_XCO_STRINGS -->
<g id="edge56" class="edge">
<title>INTF&#45;IF_XCO_STRING_DECOMPOSITION&#45;&gt;INTF&#45;IF_XCO_STRINGS</title>
<path fill="none" stroke="black" d="M255.53,-108.05C265.64,-152.17 299.13,-270.34 377,-324 426.16,-357.88 579.58,-351.05 654.72,-360.04"/>
<polygon fill="black" stroke="black" points="654.41,-363.52 664.79,-361.41 655.36,-356.59 654.41,-363.52"/>
</g>
<!-- INTF&#45;IF_XCO_STRING_DECOMPOSITION&#45;&gt;INTF&#45;IF_XCO_STRING -->
<g id="edge55" class="edge">
<title>INTF&#45;IF_XCO_STRING_DECOMPOSITION&#45;&gt;INTF&#45;IF_XCO_STRING</title>
<path fill="none" stroke="black" d="M361.61,-108.04C432.18,-119.44 522.7,-134.33 588.85,-145.41"/>
<polygon fill="black" stroke="black" points="588.4,-148.88 598.84,-147.09 589.56,-141.98 588.4,-148.88"/>
</g>
<!-- INTF&#45;IF_XCO_STRING_COMPOSITION&#45;&gt;INTF&#45;IF_XCO_STRINGS -->
<g id="edge57" class="edge">
<title>INTF&#45;IF_XCO_STRING_COMPOSITION&#45;&gt;INTF&#45;IF_XCO_STRINGS</title>
<path fill="none" stroke="black" d="M701,-324.1C710.33,-332.55 720.88,-342.9 729.69,-352.2"/>
<polygon fill="black" stroke="black" points="727.26,-354.73 736.61,-359.7 732.4,-349.98 727.26,-354.73"/>
</g>
<!-- INTF&#45;IF_XCO_STRING_COMPOSITION&#45;&gt;INTF&#45;IF_XCO_STRING -->
<g id="edge58" class="edge">
<title>INTF&#45;IF_XCO_STRING_COMPOSITION&#45;&gt;INTF&#45;IF_XCO_STRING</title>
<path fill="none" stroke="black" d="M678,-287.87C678,-263.67 678,-219.21 678,-190.39"/>
<polygon fill="black" stroke="black" points="681.5,-190.19 678,-180.19 674.5,-190.19 681.5,-190.19"/>
</g>
<!-- DOMA&#45;INT4 -->
<g id="node32" class="node">
<title>DOMA&#45;INT4</title>
<g id="a_node32"><a xlink:href="./DOMA_INT4.html" xlink:title="DOMA&#45;INT4">
<polygon fill="none" stroke="yellow" points="473.75,-252 380.25,-252 380.25,-216 473.75,-216 473.75,-252"/>
<text text-anchor="middle" x="427" y="-229.8" font-family="Times,serif" font-size="14.00">DOMA&#45;INT4</text>
</a>
</g>
</g>
<!-- DTEL&#45;INT4&#45;&gt;DOMA&#45;INT4 -->
<g id="edge59" class="edge">
<title>DTEL&#45;INT4&#45;&gt;DOMA&#45;INT4</title>
<path fill="none" stroke="black" d="M428.51,-287.7C428.29,-279.98 428.02,-270.71 427.77,-262.11"/>
<polygon fill="black" stroke="black" points="431.27,-262 427.49,-252.1 424.28,-262.2 431.27,-262"/>
</g>
<!-- DOMA&#45;SPRAS -->
<g id="node34" class="node">
<title>DOMA&#45;SPRAS</title>
<g id="a_node34"><a xlink:href="./DOMA_SPRAS.html" xlink:title="DOMA&#45;SPRAS">
<polygon fill="none" stroke="green" points="1000.22,-468 893.78,-468 893.78,-432 1000.22,-432 1000.22,-468"/>
<text text-anchor="middle" x="947" y="-445.8" font-family="Times,serif" font-size="14.00">DOMA&#45;SPRAS</text>
</a>
</g>
</g>
<!-- DTEL&#45;SPRAS&#45;&gt;DOMA&#45;SPRAS -->
<g id="edge60" class="edge">
<title>DTEL&#45;SPRAS&#45;&gt;DOMA&#45;SPRAS</title>
<path fill="none" stroke="black" d="M964.31,-503.7C961.75,-495.9 958.67,-486.51 955.82,-477.83"/>
<polygon fill="black" stroke="black" points="959.07,-476.51 952.62,-468.1 952.42,-478.7 959.07,-476.51"/>
</g>
<!-- CLAS&#45;CL_XCO_MESSAGE_TYPE&#45;&gt;INTF&#45;IF_XCO_NEWS -->
<g id="edge63" class="edge">
<title>CLAS&#45;CL_XCO_MESSAGE_TYPE&#45;&gt;INTF&#45;IF_XCO_NEWS</title>
<path fill="none" stroke="black" d="M1313.53,-647.9C1333.44,-640 1353.23,-628.54 1367,-612 1392.88,-580.92 1386,-563.45 1386,-523 1386,-523 1386,-523 1386,-233 1386,-193 1386,-146.65 1386,-118.08"/>
<polygon fill="black" stroke="black" points="1389.5,-118.05 1386,-108.05 1382.5,-118.05 1389.5,-118.05"/>
</g>
<!-- CLAS&#45;CL_XCO_MESSAGE_TYPE&#45;&gt;DTEL&#45;SYMSGTY -->
<g id="edge61" class="edge">
<title>CLAS&#45;CL_XCO_MESSAGE_TYPE&#45;&gt;DTEL&#45;SYMSGTY</title>
<path fill="none" stroke="black" d="M1126.36,-649.02C1123.21,-648.66 1120.08,-648.32 1117,-648 891.59,-624.46 829.91,-646.61 602.62,-612.11"/>
<polygon fill="black" stroke="black" points="603.14,-608.65 592.72,-610.59 602.08,-615.57 603.14,-608.65"/>
</g>
<!-- CLAS&#45;CL_XCO_ENUM_CONSTANT -->
<g id="node36" class="node">
<title>CLAS&#45;CL_XCO_ENUM_CONSTANT</title>
<g id="a_node36"><a xlink:href="./CLAS_CL_XCO_ENUM_CONSTANT.html" xlink:title="CLAS&#45;CL_XCO_ENUM_CONSTANT">
<polygon fill="none" stroke="yellow" points="1358.24,-612 1117.76,-612 1117.76,-576 1358.24,-576 1358.24,-612"/>
<text text-anchor="middle" x="1238" y="-589.8" font-family="Times,serif" font-size="14.00">CLAS&#45;CL_XCO_ENUM_CONSTANT</text>
</a>
</g>
</g>
<!-- CLAS&#45;CL_XCO_MESSAGE_TYPE&#45;&gt;CLAS&#45;CL_XCO_ENUM_CONSTANT -->
<g id="edge62" class="edge">
<title>CLAS&#45;CL_XCO_MESSAGE_TYPE&#45;&gt;CLAS&#45;CL_XCO_ENUM_CONSTANT</title>
<path fill="none" stroke="black" d="M1238.75,-647.7C1238.64,-639.98 1238.51,-630.71 1238.39,-622.11"/>
<polygon fill="black" stroke="black" points="1241.89,-622.05 1238.24,-612.1 1234.89,-622.15 1241.89,-622.05"/>
</g>
<!-- INTF&#45;IF_XCO_PRINTABLE -->
<g id="node37" class="node">
<title>INTF&#45;IF_XCO_PRINTABLE</title>
<g id="a_node37"><a xlink:href="./INTF_IF_XCO_PRINTABLE.html" xlink:title="INTF&#45;IF_XCO_PRINTABLE">
<polygon fill="none" stroke="green" points="1316.24,-540 1131.76,-540 1131.76,-504 1316.24,-504 1316.24,-540"/>
<text text-anchor="middle" x="1224" y="-517.8" font-family="Times,serif" font-size="14.00">INTF&#45;IF_XCO_PRINTABLE</text>
</a>
</g>
</g>
<!-- CLAS&#45;CL_XCO_ENUM_CONSTANT&#45;&gt;INTF&#45;IF_XCO_PRINTABLE -->
<g id="edge64" class="edge">
<title>CLAS&#45;CL_XCO_ENUM_CONSTANT&#45;&gt;INTF&#45;IF_XCO_PRINTABLE</title>
<path fill="none" stroke="black" d="M1234.54,-575.7C1233,-567.98 1231.14,-558.71 1229.42,-550.11"/>
<polygon fill="black" stroke="black" points="1232.81,-549.22 1227.42,-540.1 1225.95,-550.6 1232.81,-549.22"/>
</g>
<!-- INTF&#45;IF_XCO_PRINTABLE&#45;&gt;INTF&#45;IF_XCO_TEXT -->
<g id="edge65" class="edge">
<title>INTF&#45;IF_XCO_PRINTABLE&#45;&gt;INTF&#45;IF_XCO_TEXT</title>
<path fill="none" stroke="black" d="M1191.22,-503.88C1173.37,-494.55 1151.1,-482.92 1132,-472.94"/>
<polygon fill="black" stroke="black" points="1133.39,-469.72 1122.91,-468.19 1130.15,-475.92 1133.39,-469.72"/>
</g>
<!-- TABL&#45;SYMSG&#45;&gt;DTEL&#45;SYMSGNO -->
<g id="edge68" class="edge">
<title>TABL&#45;SYMSG&#45;&gt;DTEL&#45;SYMSGNO</title>
<path fill="none" stroke="black" d="M387.97,-663.63C308.7,-658.38 161.54,-635.51 95,-540 85.85,-526.87 86.51,-517.56 95,-504 103.78,-489.97 117.46,-479.55 132.19,-471.86"/>
<polygon fill="black" stroke="black" points="133.97,-474.89 141.47,-467.41 130.94,-468.58 133.97,-474.89"/>
</g>
<!-- TABL&#45;SYMSG&#45;&gt;DTEL&#45;SYMSGID -->
<g id="edge67" class="edge">
<title>TABL&#45;SYMSG&#45;&gt;DTEL&#45;SYMSGID</title>
<path fill="none" stroke="black" d="M439.51,-647.99C438.76,-627.9 440.86,-594.84 460,-576 519.08,-517.86 583.92,-598.14 643,-540 659.15,-524.1 663.17,-498.08 663.58,-478.27"/>
<polygon fill="black" stroke="black" points="667.08,-477.97 663.49,-468.01 660.08,-478.04 667.08,-477.97"/>
</g>
<!-- TABL&#45;SYMSG&#45;&gt;DTEL&#45;SYMSGTY -->
<g id="edge66" class="edge">
<title>TABL&#45;SYMSG&#45;&gt;DTEL&#45;SYMSGTY</title>
<path fill="none" stroke="black" d="M463.25,-647.7C474.58,-638.88 488.53,-628.03 500.82,-618.47"/>
<polygon fill="black" stroke="black" points="503.26,-621.01 509.01,-612.1 498.97,-615.48 503.26,-621.01"/>
</g>
<!-- TABL&#45;SYMSG&#45;&gt;DTEL&#45;SYMSGV -->
<g id="edge69" class="edge">
<title>TABL&#45;SYMSG&#45;&gt;DTEL&#45;SYMSGV</title>
<path fill="none" stroke="black" d="M419.99,-647.7C409.28,-638.88 396.11,-628.03 384.5,-618.47"/>
<polygon fill="black" stroke="black" points="386.71,-615.76 376.77,-612.1 382.26,-621.16 386.71,-615.76"/>
</g>
</g>
</svg>
