<?xml version="1.0" encoding="UTF-8" standalone="no"?>
<!DOCTYPE svg PUBLIC "-//W3C//DTD SVG 1.1//EN"
 "http://www.w3.org/Graphics/SVG/1.1/DTD/svg11.dtd">
<!-- Generated by graphviz version 2.47.3 (20210619.1520)
 -->
<!-- Title: G Pages: 1 -->
<svg width="459pt" height="260pt"
 viewBox="0.00 0.00 458.68 260.00" xmlns="http://www.w3.org/2000/svg" xmlns:xlink="http://www.w3.org/1999/xlink">
<g id="graph0" class="graph" transform="scale(1 1) rotate(0) translate(4 256)">
<title>G</title>
<polygon fill="white" stroke="transparent" points="-4,4 -4,-256 454.68,-256 454.68,4 -4,4"/>
<!-- TTYP&#45;BAL_R_LOGN -->
<g id="node1" class="node">
<title>TTYP&#45;BAL_R_LOGN</title>
<polygon fill="none" stroke="yellow" points="289.4,-252 143.68,-252 143.68,-216 289.4,-216 289.4,-252"/>
<text text-anchor="middle" x="216.54" y="-229.8" font-family="Times,serif" font-size="14.00">TTYP&#45;BAL_R_LOGN</text>
</g>
<!-- TABL&#45;BAL_S_LOGN -->
<g id="node2" class="node">
<title>TABL&#45;BAL_S_LOGN</title>
<g id="a_node2"><a xlink:href="./TABL_BAL_S_LOGN.html" xlink:title="TABL&#45;BAL_S_LOGN">
<polygon fill="none" stroke="yellow" points="289.4,-180 143.68,-180 143.68,-144 289.4,-144 289.4,-180"/>
<text text-anchor="middle" x="216.54" y="-157.8" font-family="Times,serif" font-size="14.00">TABL&#45;BAL_S_LOGN</text>
</a>
</g>
</g>
<!-- TTYP&#45;BAL_R_LOGN&#45;&gt;TABL&#45;BAL_S_LOGN -->
<g id="edge1" class="edge">
<title>TTYP&#45;BAL_R_LOGN&#45;&gt;TABL&#45;BAL_S_LOGN</title>
<path fill="none" stroke="black" d="M216.54,-215.7C216.54,-207.98 216.54,-198.71 216.54,-190.11"/>
<polygon fill="black" stroke="black" points="220.04,-190.1 216.54,-180.1 213.04,-190.1 220.04,-190.1"/>
</g>
<!-- DTEL&#45;BALOGNR -->
<g id="node3" class="node">
<title>DTEL&#45;BALOGNR</title>
<g id="a_node3"><a xlink:href="./DTEL_BALOGNR.html" xlink:title="DTEL&#45;BALOGNR">
<polygon fill="none" stroke="green" points="127.62,-108 3.46,-108 3.46,-72 127.62,-72 127.62,-108"/>
<text text-anchor="middle" x="65.54" y="-85.8" font-family="Times,serif" font-size="14.00">DTEL&#45;BALOGNR</text>
</a>
</g>
</g>
<!-- TABL&#45;BAL_S_LOGN&#45;&gt;DTEL&#45;BALOGNR -->
<g id="edge4" class="edge">
<title>TABL&#45;BAL_S_LOGN&#45;&gt;DTEL&#45;BALOGNR</title>
<path fill="none" stroke="black" d="M179.6,-143.88C159.05,-134.35 133.29,-122.41 111.45,-112.28"/>
<polygon fill="black" stroke="black" points="112.9,-109.1 102.36,-108.07 109.96,-115.45 112.9,-109.1"/>
</g>
<!-- DTEL&#45;TVARV_OPTI -->
<g id="node5" class="node">
<title>DTEL&#45;TVARV_OPTI</title>
<g id="a_node5"><a xlink:href="./DTEL_TVARV_OPTI.html" xlink:title="DTEL&#45;TVARV_OPTI">
<polygon fill="none" stroke="yellow" points="287.78,-108 145.3,-108 145.3,-72 287.78,-72 287.78,-108"/>
<text text-anchor="middle" x="216.54" y="-85.8" font-family="Times,serif" font-size="14.00">DTEL&#45;TVARV_OPTI</text>
</a>
</g>
</g>
<!-- TABL&#45;BAL_S_LOGN&#45;&gt;DTEL&#45;TVARV_OPTI -->
<g id="edge3" class="edge">
<title>TABL&#45;BAL_S_LOGN&#45;&gt;DTEL&#45;TVARV_OPTI</title>
<path fill="none" stroke="black" d="M216.54,-143.7C216.54,-135.98 216.54,-126.71 216.54,-118.11"/>
<polygon fill="black" stroke="black" points="220.04,-118.1 216.54,-108.1 213.04,-118.1 220.04,-118.1"/>
</g>
<!-- DTEL&#45;TVARV_SIGN -->
<g id="node7" class="node">
<title>DTEL&#45;TVARV_SIGN</title>
<g id="a_node7"><a xlink:href="./DTEL_TVARV_SIGN.html" xlink:title="DTEL&#45;TVARV_SIGN">
<polygon fill="none" stroke="yellow" points="450.83,-108 306.25,-108 306.25,-72 450.83,-72 450.83,-108"/>
<text text-anchor="middle" x="378.54" y="-85.8" font-family="Times,serif" font-size="14.00">DTEL&#45;TVARV_SIGN</text>
</a>
</g>
</g>
<!-- TABL&#45;BAL_S_LOGN&#45;&gt;DTEL&#45;TVARV_SIGN -->
<g id="edge2" class="edge">
<title>TABL&#45;BAL_S_LOGN&#45;&gt;DTEL&#45;TVARV_SIGN</title>
<path fill="none" stroke="black" d="M256.17,-143.88C278.31,-134.31 306.1,-122.3 329.6,-112.15"/>
<polygon fill="black" stroke="black" points="331.25,-115.25 339.04,-108.07 328.47,-108.82 331.25,-115.25"/>
</g>
<!-- DOMA&#45;BALOGNR -->
<g id="node4" class="node">
<title>DOMA&#45;BALOGNR</title>
<g id="a_node4"><a xlink:href="./DOMA_BALOGNR.html" xlink:title="DOMA&#45;BALOGNR">
<polygon fill="none" stroke="yellow" points="131.12,-36 -0.04,-36 -0.04,0 131.12,0 131.12,-36"/>
<text text-anchor="middle" x="65.54" y="-13.8" font-family="Times,serif" font-size="14.00">DOMA&#45;BALOGNR</text>
</a>
</g>
</g>
<!-- DTEL&#45;BALOGNR&#45;&gt;DOMA&#45;BALOGNR -->
<g id="edge5" class="edge">
<title>DTEL&#45;BALOGNR&#45;&gt;DOMA&#45;BALOGNR</title>
<path fill="none" stroke="black" d="M65.54,-71.7C65.54,-63.98 65.54,-54.71 65.54,-46.11"/>
<polygon fill="black" stroke="black" points="69.04,-46.1 65.54,-36.1 62.04,-46.1 69.04,-46.1"/>
</g>
<!-- DOMA&#45;SYCHAR02 -->
<g id="node6" class="node">
<title>DOMA&#45;SYCHAR02</title>
<g id="a_node6"><a xlink:href="./DOMA_SYCHAR02.html" xlink:title="DOMA&#45;SYCHAR02">
<polygon fill="none" stroke="yellow" points="283.74,-36 149.34,-36 149.34,0 283.74,0 283.74,-36"/>
<text text-anchor="middle" x="216.54" y="-13.8" font-family="Times,serif" font-size="14.00">DOMA&#45;SYCHAR02</text>
</a>
</g>
</g>
<!-- DTEL&#45;TVARV_OPTI&#45;&gt;DOMA&#45;SYCHAR02 -->
<g id="edge6" class="edge">
<title>DTEL&#45;TVARV_OPTI&#45;&gt;DOMA&#45;SYCHAR02</title>
<path fill="none" stroke="black" d="M216.54,-71.7C216.54,-63.98 216.54,-54.71 216.54,-46.11"/>
<polygon fill="black" stroke="black" points="220.04,-46.1 216.54,-36.1 213.04,-46.1 220.04,-46.1"/>
</g>
<!-- DOMA&#45;SYCHAR01 -->
<g id="node8" class="node">
<title>DOMA&#45;SYCHAR01</title>
<g id="a_node8"><a xlink:href="./DOMA_SYCHAR01.html" xlink:title="DOMA&#45;SYCHAR01">
<polygon fill="none" stroke="yellow" points="445.74,-36 311.34,-36 311.34,0 445.74,0 445.74,-36"/>
<text text-anchor="middle" x="378.54" y="-13.8" font-family="Times,serif" font-size="14.00">DOMA&#45;SYCHAR01</text>
</a>
</g>
</g>
<!-- DTEL&#45;TVARV_SIGN&#45;&gt;DOMA&#45;SYCHAR01 -->
<g id="edge7" class="edge">
<title>DTEL&#45;TVARV_SIGN&#45;&gt;DOMA&#45;SYCHAR01</title>
<path fill="none" stroke="black" d="M378.54,-71.7C378.54,-63.98 378.54,-54.71 378.54,-46.11"/>
<polygon fill="black" stroke="black" points="382.04,-46.1 378.54,-36.1 375.04,-46.1 382.04,-46.1"/>
</g>
</g>
</svg>
