<?xml version="1.0" encoding="UTF-8" standalone="no"?>
<!DOCTYPE svg PUBLIC "-//W3C//DTD SVG 1.1//EN"
 "http://www.w3.org/Graphics/SVG/1.1/DTD/svg11.dtd">
<!-- Generated by graphviz version 2.47.3 (20210619.1520)
 -->
<!-- Title: G Pages: 1 -->
<svg width="433pt" height="260pt"
 viewBox="0.00 0.00 433.02 260.00" xmlns="http://www.w3.org/2000/svg" xmlns:xlink="http://www.w3.org/1999/xlink">
<g id="graph0" class="graph" transform="scale(1 1) rotate(0) translate(4 256)">
<title>G</title>
<polygon fill="white" stroke="transparent" points="-4,4 -4,-256 429.02,-256 429.02,4 -4,4"/>
<!-- TTYP&#45;USVALUE_T -->
<g id="node1" class="node">
<title>TTYP&#45;USVALUE_T</title>
<polygon fill="none" stroke="yellow" points="278.55,-252 142.51,-252 142.51,-216 278.55,-216 278.55,-252"/>
<text text-anchor="middle" x="210.53" y="-229.8" font-family="Times,serif" font-size="14.00">TTYP&#45;USVALUE_T</text>
</g>
<!-- TABL&#45;USVALUE -->
<g id="node2" class="node">
<title>TABL&#45;USVALUE</title>
<g id="a_node2"><a xlink:href="./TABL_USVALUE.html" xlink:title="TABL&#45;USVALUE">
<polygon fill="none" stroke="yellow" points="271.56,-180 149.51,-180 149.51,-144 271.56,-144 271.56,-180"/>
<text text-anchor="middle" x="210.53" y="-157.8" font-family="Times,serif" font-size="14.00">TABL&#45;USVALUE</text>
</a>
</g>
</g>
<!-- TTYP&#45;USVALUE_T&#45;&gt;TABL&#45;USVALUE -->
<g id="edge1" class="edge">
<title>TTYP&#45;USVALUE_T&#45;&gt;TABL&#45;USVALUE</title>
<path fill="none" stroke="black" d="M210.53,-215.7C210.53,-207.98 210.53,-198.71 210.53,-190.11"/>
<polygon fill="black" stroke="black" points="214.03,-190.1 210.53,-180.1 207.03,-190.1 214.03,-190.1"/>
</g>
<!-- DTEL&#45;XUVAL -->
<g id="node3" class="node">
<title>DTEL&#45;XUVAL</title>
<g id="a_node3"><a xlink:href="./DTEL_XUVAL.html" xlink:title="DTEL&#45;XUVAL">
<polygon fill="none" stroke="yellow" points="126.44,-108 20.63,-108 20.63,-72 126.44,-72 126.44,-108"/>
<text text-anchor="middle" x="73.53" y="-85.8" font-family="Times,serif" font-size="14.00">DTEL&#45;XUVAL</text>
</a>
</g>
</g>
<!-- TABL&#45;USVALUE&#45;&gt;DTEL&#45;XUVAL -->
<g id="edge4" class="edge">
<title>TABL&#45;USVALUE&#45;&gt;DTEL&#45;XUVAL</title>
<path fill="none" stroke="black" d="M177.02,-143.88C158.69,-134.51 135.8,-122.81 116.2,-112.8"/>
<polygon fill="black" stroke="black" points="117.67,-109.62 107.17,-108.19 114.49,-115.86 117.67,-109.62"/>
</g>
<!-- DTEL&#45;XUFIELD -->
<g id="node5" class="node">
<title>DTEL&#45;XUFIELD</title>
<g id="a_node5"><a xlink:href="./DTEL_XUFIELD.html" xlink:title="DTEL&#45;XUFIELD">
<polygon fill="none" stroke="yellow" points="268.83,-108 152.24,-108 152.24,-72 268.83,-72 268.83,-108"/>
<text text-anchor="middle" x="210.53" y="-85.8" font-family="Times,serif" font-size="14.00">DTEL&#45;XUFIELD</text>
</a>
</g>
</g>
<!-- TABL&#45;USVALUE&#45;&gt;DTEL&#45;XUFIELD -->
<g id="edge3" class="edge">
<title>TABL&#45;USVALUE&#45;&gt;DTEL&#45;XUFIELD</title>
<path fill="none" stroke="black" d="M210.53,-143.7C210.53,-135.98 210.53,-126.71 210.53,-118.11"/>
<polygon fill="black" stroke="black" points="214.03,-118.1 210.53,-108.1 207.03,-118.1 214.03,-118.1"/>
</g>
<!-- DTEL&#45;XUOBJECT -->
<g id="node7" class="node">
<title>DTEL&#45;XUOBJECT</title>
<g id="a_node7"><a xlink:href="./DTEL_XUOBJECT.html" xlink:title="DTEL&#45;XUOBJECT">
<polygon fill="none" stroke="yellow" points="417.5,-108 289.56,-108 289.56,-72 417.5,-72 417.5,-108"/>
<text text-anchor="middle" x="353.53" y="-85.8" font-family="Times,serif" font-size="14.00">DTEL&#45;XUOBJECT</text>
</a>
</g>
</g>
<!-- TABL&#45;USVALUE&#45;&gt;DTEL&#45;XUOBJECT -->
<g id="edge2" class="edge">
<title>TABL&#45;USVALUE&#45;&gt;DTEL&#45;XUOBJECT</title>
<path fill="none" stroke="black" d="M245.51,-143.88C264.73,-134.47 288.76,-122.71 309.27,-112.67"/>
<polygon fill="black" stroke="black" points="310.97,-115.73 318.42,-108.19 307.89,-109.44 310.97,-115.73"/>
</g>
<!-- DOMA&#45;XUVALUE -->
<g id="node4" class="node">
<title>DOMA&#45;XUVALUE</title>
<g id="a_node4"><a xlink:href="./DOMA_XUVALUE.html" xlink:title="DOMA&#45;XUVALUE">
<polygon fill="none" stroke="yellow" points="131.09,-36 -0.03,-36 -0.03,0 131.09,0 131.09,-36"/>
<text text-anchor="middle" x="65.53" y="-13.8" font-family="Times,serif" font-size="14.00">DOMA&#45;XUVALUE</text>
</a>
</g>
</g>
<!-- DTEL&#45;XUVAL&#45;&gt;DOMA&#45;XUVALUE -->
<g id="edge5" class="edge">
<title>DTEL&#45;XUVAL&#45;&gt;DOMA&#45;XUVALUE</title>
<path fill="none" stroke="black" d="M71.55,-71.7C70.67,-63.98 69.61,-54.71 68.63,-46.11"/>
<polygon fill="black" stroke="black" points="72.1,-45.64 67.49,-36.1 65.14,-46.44 72.1,-45.64"/>
</g>
<!-- DOMA&#45;XUFIELD -->
<g id="node6" class="node">
<title>DOMA&#45;XUFIELD</title>
<g id="a_node6"><a xlink:href="./DOMA_XUFIELD.html" xlink:title="DOMA&#45;XUFIELD">
<polygon fill="none" stroke="yellow" points="272.33,-36 148.74,-36 148.74,0 272.33,0 272.33,-36"/>
<text text-anchor="middle" x="210.53" y="-13.8" font-family="Times,serif" font-size="14.00">DOMA&#45;XUFIELD</text>
</a>
</g>
</g>
<!-- DTEL&#45;XUFIELD&#45;&gt;DOMA&#45;XUFIELD -->
<g id="edge6" class="edge">
<title>DTEL&#45;XUFIELD&#45;&gt;DOMA&#45;XUFIELD</title>
<path fill="none" stroke="black" d="M210.53,-71.7C210.53,-63.98 210.53,-54.71 210.53,-46.11"/>
<polygon fill="black" stroke="black" points="214.03,-46.1 210.53,-36.1 207.03,-46.1 214.03,-46.1"/>
</g>
<!-- DOMA&#45;XUOBJECT -->
<g id="node8" class="node">
<title>DOMA&#45;XUOBJECT</title>
<g id="a_node8"><a xlink:href="./DOMA_XUOBJECT.html" xlink:title="DOMA&#45;XUOBJECT">
<polygon fill="none" stroke="yellow" points="425,-36 290.06,-36 290.06,0 425,0 425,-36"/>
<text text-anchor="middle" x="357.53" y="-13.8" font-family="Times,serif" font-size="14.00">DOMA&#45;XUOBJECT</text>
</a>
</g>
</g>
<!-- DTEL&#45;XUOBJECT&#45;&gt;DOMA&#45;XUOBJECT -->
<g id="edge7" class="edge">
<title>DTEL&#45;XUOBJECT&#45;&gt;DOMA&#45;XUOBJECT</title>
<path fill="none" stroke="black" d="M354.52,-71.7C354.96,-63.98 355.49,-54.71 355.98,-46.11"/>
<polygon fill="black" stroke="black" points="359.48,-46.29 356.55,-36.1 352.49,-45.89 359.48,-46.29"/>
</g>
</g>
</svg>
