<?xml version="1.0" encoding="UTF-8" standalone="no"?>
<!DOCTYPE svg PUBLIC "-//W3C//DTD SVG 1.1//EN"
 "http://www.w3.org/Graphics/SVG/1.1/DTD/svg11.dtd">
<!-- Generated by graphviz version 2.47.3 (20210619.1520)
 -->
<!-- Title: G Pages: 1 -->
<svg width="1272pt" height="260pt"
 viewBox="0.00 0.00 1271.91 260.00" xmlns="http://www.w3.org/2000/svg" xmlns:xlink="http://www.w3.org/1999/xlink">
<g id="graph0" class="graph" transform="scale(1 1) rotate(0) translate(4 256)">
<title>G</title>
<polygon fill="white" stroke="transparent" points="-4,4 -4,-256 1267.91,-256 1267.91,4 -4,4"/>
<!-- TTYP&#45;FDT_BRS_T_TRACE_HEADER -->
<g id="node1" class="node">
<title>TTYP&#45;FDT_BRS_T_TRACE_HEADER</title>
<polygon fill="none" stroke="green" points="816.45,-252 568.95,-252 568.95,-216 816.45,-216 816.45,-252"/>
<text text-anchor="middle" x="692.7" y="-229.8" font-family="Times,serif" font-size="14.00">TTYP&#45;FDT_BRS_T_TRACE_HEADER</text>
</g>
<!-- TABL&#45;FDT_BRS_S_TRACE_HEADER -->
<g id="node2" class="node">
<title>TABL&#45;FDT_BRS_S_TRACE_HEADER</title>
<g id="a_node2"><a xlink:href="./TABL_FDT_BRS_S_TRACE_HEADER.html" xlink:title="TABL&#45;FDT_BRS_S_TRACE_HEADER">
<polygon fill="none" stroke="green" points="816.74,-180 568.67,-180 568.67,-144 816.74,-144 816.74,-180"/>
<text text-anchor="middle" x="692.7" y="-157.8" font-family="Times,serif" font-size="14.00">TABL&#45;FDT_BRS_S_TRACE_HEADER</text>
</a>
</g>
</g>
<!-- TTYP&#45;FDT_BRS_T_TRACE_HEADER&#45;&gt;TABL&#45;FDT_BRS_S_TRACE_HEADER -->
<g id="edge1" class="edge">
<title>TTYP&#45;FDT_BRS_T_TRACE_HEADER&#45;&gt;TABL&#45;FDT_BRS_S_TRACE_HEADER</title>
<path fill="none" stroke="black" d="M692.7,-215.7C692.7,-207.98 692.7,-198.71 692.7,-190.11"/>
<polygon fill="black" stroke="black" points="696.2,-190.1 692.7,-180.1 689.2,-190.1 696.2,-190.1"/>
</g>
<!-- DTEL&#45;FDT_TRACE_VERSION -->
<g id="node3" class="node">
<title>DTEL&#45;FDT_TRACE_VERSION</title>
<g id="a_node3"><a xlink:href="./DTEL_FDT_TRACE_VERSION.html" xlink:title="DTEL&#45;FDT_TRACE_VERSION">
<polygon fill="none" stroke="yellow" points="203.61,-108 -0.2,-108 -0.2,-72 203.61,-72 203.61,-108"/>
<text text-anchor="middle" x="101.7" y="-85.8" font-family="Times,serif" font-size="14.00">DTEL&#45;FDT_TRACE_VERSION</text>
</a>
</g>
</g>
<!-- TABL&#45;FDT_BRS_S_TRACE_HEADER&#45;&gt;DTEL&#45;FDT_TRACE_VERSION -->
<g id="edge8" class="edge">
<title>TABL&#45;FDT_BRS_S_TRACE_HEADER&#45;&gt;DTEL&#45;FDT_TRACE_VERSION</title>
<path fill="none" stroke="black" d="M568.46,-148.73C474.01,-139.06 340.59,-124.67 213.88,-108.12"/>
<polygon fill="black" stroke="black" points="213.97,-104.61 203.6,-106.78 213.06,-111.55 213.97,-104.61"/>
</g>
<!-- DTEL&#45;FDT_TRACE_EXTERNAL_ID -->
<g id="node4" class="node">
<title>DTEL&#45;FDT_TRACE_EXTERNAL_ID</title>
<g id="a_node4"><a xlink:href="./DTEL_FDT_TRACE_EXTERNAL_ID.html" xlink:title="DTEL&#45;FDT_TRACE_EXTERNAL_ID">
<polygon fill="none" stroke="yellow" points="460.09,-108 221.32,-108 221.32,-72 460.09,-72 460.09,-108"/>
<text text-anchor="middle" x="340.7" y="-85.8" font-family="Times,serif" font-size="14.00">DTEL&#45;FDT_TRACE_EXTERNAL_ID</text>
</a>
</g>
</g>
<!-- TABL&#45;FDT_BRS_S_TRACE_HEADER&#45;&gt;DTEL&#45;FDT_TRACE_EXTERNAL_ID -->
<g id="edge7" class="edge">
<title>TABL&#45;FDT_BRS_S_TRACE_HEADER&#45;&gt;DTEL&#45;FDT_TRACE_EXTERNAL_ID</title>
<path fill="none" stroke="black" d="M607.04,-143.97C555.52,-133.72 489.83,-120.66 436.57,-110.07"/>
<polygon fill="black" stroke="black" points="436.93,-106.57 426.44,-108.05 435.56,-113.43 436.93,-106.57"/>
</g>
<!-- DTEL&#45;SYSUUID_X -->
<g id="node5" class="node">
<title>DTEL&#45;SYSUUID_X</title>
<g id="a_node5"><a xlink:href="./DTEL_SYSUUID_X.html" xlink:title="DTEL&#45;SYSUUID_X">
<polygon fill="none" stroke="yellow" points="611.89,-108 477.52,-108 477.52,-72 611.89,-72 611.89,-108"/>
<text text-anchor="middle" x="544.7" y="-85.8" font-family="Times,serif" font-size="14.00">DTEL&#45;SYSUUID_X</text>
</a>
</g>
</g>
<!-- TABL&#45;FDT_BRS_S_TRACE_HEADER&#45;&gt;DTEL&#45;SYSUUID_X -->
<g id="edge6" class="edge">
<title>TABL&#45;FDT_BRS_S_TRACE_HEADER&#45;&gt;DTEL&#45;SYSUUID_X</title>
<path fill="none" stroke="black" d="M656.5,-143.88C636.44,-134.39 611.33,-122.51 589.99,-112.42"/>
<polygon fill="black" stroke="black" points="591.33,-109.18 580.79,-108.07 588.33,-115.51 591.33,-109.18"/>
</g>
<!-- DTEL&#45;SYUNAME -->
<g id="node7" class="node">
<title>DTEL&#45;SYUNAME</title>
<g id="a_node7"><a xlink:href="./DTEL_SYUNAME.html" xlink:title="DTEL&#45;SYUNAME">
<polygon fill="none" stroke="green" points="755.33,-108 630.07,-108 630.07,-72 755.33,-72 755.33,-108"/>
<text text-anchor="middle" x="692.7" y="-85.8" font-family="Times,serif" font-size="14.00">DTEL&#45;SYUNAME</text>
</a>
</g>
</g>
<!-- TABL&#45;FDT_BRS_S_TRACE_HEADER&#45;&gt;DTEL&#45;SYUNAME -->
<g id="edge5" class="edge">
<title>TABL&#45;FDT_BRS_S_TRACE_HEADER&#45;&gt;DTEL&#45;SYUNAME</title>
<path fill="none" stroke="black" d="M692.7,-143.7C692.7,-135.98 692.7,-126.71 692.7,-118.11"/>
<polygon fill="black" stroke="black" points="696.2,-118.1 692.7,-108.1 689.2,-118.1 696.2,-118.1"/>
</g>
<!-- DTEL&#45;FDT_TIMESTAMP -->
<g id="node9" class="node">
<title>DTEL&#45;FDT_TIMESTAMP</title>
<g id="a_node9"><a xlink:href="./DTEL_FDT_TIMESTAMP.html" xlink:title="DTEL&#45;FDT_TIMESTAMP">
<polygon fill="none" stroke="yellow" points="943.95,-108 773.46,-108 773.46,-72 943.95,-72 943.95,-108"/>
<text text-anchor="middle" x="858.7" y="-85.8" font-family="Times,serif" font-size="14.00">DTEL&#45;FDT_TIMESTAMP</text>
</a>
</g>
</g>
<!-- TABL&#45;FDT_BRS_S_TRACE_HEADER&#45;&gt;DTEL&#45;FDT_TIMESTAMP -->
<g id="edge4" class="edge">
<title>TABL&#45;FDT_BRS_S_TRACE_HEADER&#45;&gt;DTEL&#45;FDT_TIMESTAMP</title>
<path fill="none" stroke="black" d="M733.31,-143.88C756.1,-134.26 784.73,-122.19 808.87,-112.01"/>
<polygon fill="black" stroke="black" points="810.37,-115.18 818.23,-108.07 807.65,-108.73 810.37,-115.18"/>
</g>
<!-- DTEL&#45;TIMESTAMPL -->
<g id="node11" class="node">
<title>DTEL&#45;TIMESTAMPL</title>
<g id="a_node11"><a xlink:href="./DTEL_TIMESTAMPL.html" xlink:title="DTEL&#45;TIMESTAMPL">
<polygon fill="none" stroke="green" points="1107.56,-108 961.84,-108 961.84,-72 1107.56,-72 1107.56,-108"/>
<text text-anchor="middle" x="1034.7" y="-85.8" font-family="Times,serif" font-size="14.00">DTEL&#45;TIMESTAMPL</text>
</a>
</g>
</g>
<!-- TABL&#45;FDT_BRS_S_TRACE_HEADER&#45;&gt;DTEL&#45;TIMESTAMPL -->
<g id="edge3" class="edge">
<title>TABL&#45;FDT_BRS_S_TRACE_HEADER&#45;&gt;DTEL&#45;TIMESTAMPL</title>
<path fill="none" stroke="black" d="M776.73,-143.94C825.17,-134.1 887.49,-121.39 951.89,-108.16"/>
<polygon fill="black" stroke="black" points="952.74,-111.56 961.83,-106.12 951.33,-104.71 952.74,-111.56"/>
</g>
<!-- DTEL&#45;SYSUUID_C -->
<g id="node13" class="node">
<title>DTEL&#45;SYSUUID_C</title>
<g id="a_node13"><a xlink:href="./DTEL_SYSUUID_C.html" xlink:title="DTEL&#45;SYSUUID_C">
<polygon fill="none" stroke="yellow" points="1260.62,-108 1126.79,-108 1126.79,-72 1260.62,-72 1260.62,-108"/>
<text text-anchor="middle" x="1193.7" y="-85.8" font-family="Times,serif" font-size="14.00">DTEL&#45;SYSUUID_C</text>
</a>
</g>
</g>
<!-- TABL&#45;FDT_BRS_S_TRACE_HEADER&#45;&gt;DTEL&#45;SYSUUID_C -->
<g id="edge2" class="edge">
<title>TABL&#45;FDT_BRS_S_TRACE_HEADER&#45;&gt;DTEL&#45;SYSUUID_C</title>
<path fill="none" stroke="black" d="M816.99,-148.54C901.74,-139.29 1016.37,-125.31 1116.7,-108 1116.8,-107.98 1116.9,-107.97 1117.01,-107.95"/>
<polygon fill="black" stroke="black" points="1117.37,-111.44 1126.58,-106.2 1116.12,-104.55 1117.37,-111.44"/>
</g>
<!-- DOMA&#45;SYSUUID -->
<g id="node6" class="node">
<title>DOMA&#45;SYSUUID</title>
<g id="a_node6"><a xlink:href="./DOMA_SYSUUID.html" xlink:title="DOMA&#45;SYSUUID">
<polygon fill="none" stroke="yellow" points="606.78,-36 482.62,-36 482.62,0 606.78,0 606.78,-36"/>
<text text-anchor="middle" x="544.7" y="-13.8" font-family="Times,serif" font-size="14.00">DOMA&#45;SYSUUID</text>
</a>
</g>
</g>
<!-- DTEL&#45;SYSUUID_X&#45;&gt;DOMA&#45;SYSUUID -->
<g id="edge9" class="edge">
<title>DTEL&#45;SYSUUID_X&#45;&gt;DOMA&#45;SYSUUID</title>
<path fill="none" stroke="black" d="M544.7,-71.7C544.7,-63.98 544.7,-54.71 544.7,-46.11"/>
<polygon fill="black" stroke="black" points="548.2,-46.1 544.7,-36.1 541.2,-46.1 548.2,-46.1"/>
</g>
<!-- DOMA&#45;SYCHAR12 -->
<g id="node8" class="node">
<title>DOMA&#45;SYCHAR12</title>
<g id="a_node8"><a xlink:href="./DOMA_SYCHAR12.html" xlink:title="DOMA&#45;SYCHAR12">
<polygon fill="none" stroke="yellow" points="759.9,-36 625.5,-36 625.5,0 759.9,0 759.9,-36"/>
<text text-anchor="middle" x="692.7" y="-13.8" font-family="Times,serif" font-size="14.00">DOMA&#45;SYCHAR12</text>
</a>
</g>
</g>
<!-- DTEL&#45;SYUNAME&#45;&gt;DOMA&#45;SYCHAR12 -->
<g id="edge10" class="edge">
<title>DTEL&#45;SYUNAME&#45;&gt;DOMA&#45;SYCHAR12</title>
<path fill="none" stroke="black" d="M692.7,-71.7C692.7,-63.98 692.7,-54.71 692.7,-46.11"/>
<polygon fill="black" stroke="black" points="696.2,-46.1 692.7,-36.1 689.2,-46.1 696.2,-46.1"/>
</g>
<!-- DOMA&#45;TZNTSTMPS -->
<g id="node10" class="node">
<title>DOMA&#45;TZNTSTMPS</title>
<g id="a_node10"><a xlink:href="./DOMA_TZNTSTMPS.html" xlink:title="DOMA&#45;TZNTSTMPS">
<polygon fill="none" stroke="yellow" points="930.24,-36 787.17,-36 787.17,0 930.24,0 930.24,-36"/>
<text text-anchor="middle" x="858.7" y="-13.8" font-family="Times,serif" font-size="14.00">DOMA&#45;TZNTSTMPS</text>
</a>
</g>
</g>
<!-- DTEL&#45;FDT_TIMESTAMP&#45;&gt;DOMA&#45;TZNTSTMPS -->
<g id="edge11" class="edge">
<title>DTEL&#45;FDT_TIMESTAMP&#45;&gt;DOMA&#45;TZNTSTMPS</title>
<path fill="none" stroke="black" d="M858.7,-71.7C858.7,-63.98 858.7,-54.71 858.7,-46.11"/>
<polygon fill="black" stroke="black" points="862.2,-46.1 858.7,-36.1 855.2,-46.1 862.2,-46.1"/>
</g>
<!-- DOMA&#45;TZNTSTMPL -->
<g id="node12" class="node">
<title>DOMA&#45;TZNTSTMPL</title>
<g id="a_node12"><a xlink:href="./DOMA_TZNTSTMPL.html" xlink:title="DOMA&#45;TZNTSTMPL">
<polygon fill="none" stroke="yellow" points="1106.01,-36 961.4,-36 961.4,0 1106.01,0 1106.01,-36"/>
<text text-anchor="middle" x="1033.7" y="-13.8" font-family="Times,serif" font-size="14.00">DOMA&#45;TZNTSTMPL</text>
</a>
</g>
</g>
<!-- DTEL&#45;TIMESTAMPL&#45;&gt;DOMA&#45;TZNTSTMPL -->
<g id="edge12" class="edge">
<title>DTEL&#45;TIMESTAMPL&#45;&gt;DOMA&#45;TZNTSTMPL</title>
<path fill="none" stroke="black" d="M1034.45,-71.7C1034.34,-63.98 1034.21,-54.71 1034.09,-46.11"/>
<polygon fill="black" stroke="black" points="1037.59,-46.05 1033.95,-36.1 1030.59,-46.15 1037.59,-46.05"/>
</g>
<!-- DOMA&#45;SYSUUID_C -->
<g id="node14" class="node">
<title>DOMA&#45;SYSUUID_C</title>
<g id="a_node14"><a xlink:href="./DOMA_SYSUUID_C.html" xlink:title="DOMA&#45;SYSUUID_C">
<polygon fill="none" stroke="yellow" points="1264.12,-36 1123.29,-36 1123.29,0 1264.12,0 1264.12,-36"/>
<text text-anchor="middle" x="1193.7" y="-13.8" font-family="Times,serif" font-size="14.00">DOMA&#45;SYSUUID_C</text>
</a>
</g>
</g>
<!-- DTEL&#45;SYSUUID_C&#45;&gt;DOMA&#45;SYSUUID_C -->
<g id="edge13" class="edge">
<title>DTEL&#45;SYSUUID_C&#45;&gt;DOMA&#45;SYSUUID_C</title>
<path fill="none" stroke="black" d="M1193.7,-71.7C1193.7,-63.98 1193.7,-54.71 1193.7,-46.11"/>
<polygon fill="black" stroke="black" points="1197.2,-46.1 1193.7,-36.1 1190.2,-46.1 1197.2,-46.1"/>
</g>
</g>
</svg>
