<?xml version="1.0" encoding="UTF-8" standalone="no"?>
<!DOCTYPE svg PUBLIC "-//W3C//DTD SVG 1.1//EN"
 "http://www.w3.org/Graphics/SVG/1.1/DTD/svg11.dtd">
<!-- Generated by graphviz version 2.47.3 (20210619.1520)
 -->
<!-- Title: G Pages: 1 -->
<svg width="167pt" height="188pt"
 viewBox="0.00 0.00 167.09 188.00" xmlns="http://www.w3.org/2000/svg" xmlns:xlink="http://www.w3.org/1999/xlink">
<g id="graph0" class="graph" transform="scale(1 1) rotate(0) translate(4 184)">
<title>G</title>
<polygon fill="white" stroke="transparent" points="-4,4 -4,-184 163.09,-184 163.09,4 -4,4"/>
<!-- TTYP&#45;SOAP_URI_LIST -->
<g id="node1" class="node">
<title>TTYP&#45;SOAP_URI_LIST</title>
<polygon fill="none" stroke="yellow" points="159.13,-180 -0.04,-180 -0.04,-144 159.13,-144 159.13,-180"/>
<text text-anchor="middle" x="79.54" y="-157.8" font-family="Times,serif" font-size="14.00">TTYP&#45;SOAP_URI_LIST</text>
</g>
<!-- DTEL&#45;ANYURI -->
<g id="node2" class="node">
<title>DTEL&#45;ANYURI</title>
<g id="a_node2"><a xlink:href="./DTEL_ANYURI.html" xlink:title="DTEL&#45;ANYURI">
<polygon fill="none" stroke="yellow" points="134.89,-108 24.19,-108 24.19,-72 134.89,-72 134.89,-108"/>
<text text-anchor="middle" x="79.54" y="-85.8" font-family="Times,serif" font-size="14.00">DTEL&#45;ANYURI</text>
</a>
</g>
</g>
<!-- TTYP&#45;SOAP_URI_LIST&#45;&gt;DTEL&#45;ANYURI -->
<g id="edge1" class="edge">
<title>TTYP&#45;SOAP_URI_LIST&#45;&gt;DTEL&#45;ANYURI</title>
<path fill="none" stroke="black" d="M79.54,-143.7C79.54,-135.98 79.54,-126.71 79.54,-118.11"/>
<polygon fill="black" stroke="black" points="83.04,-118.1 79.54,-108.1 76.04,-118.1 83.04,-118.1"/>
</g>
<!-- DOMA&#45;ANYURI -->
<g id="node3" class="node">
<title>DOMA&#45;ANYURI</title>
<g id="a_node3"><a xlink:href="./DOMA_ANYURI.html" xlink:title="DOMA&#45;ANYURI">
<polygon fill="none" stroke="yellow" points="138.39,-36 20.69,-36 20.69,0 138.39,0 138.39,-36"/>
<text text-anchor="middle" x="79.54" y="-13.8" font-family="Times,serif" font-size="14.00">DOMA&#45;ANYURI</text>
</a>
</g>
</g>
<!-- DTEL&#45;ANYURI&#45;&gt;DOMA&#45;ANYURI -->
<g id="edge2" class="edge">
<title>DTEL&#45;ANYURI&#45;&gt;DOMA&#45;ANYURI</title>
<path fill="none" stroke="black" d="M79.54,-71.7C79.54,-63.98 79.54,-54.71 79.54,-46.11"/>
<polygon fill="black" stroke="black" points="83.04,-46.1 79.54,-36.1 76.04,-46.1 83.04,-46.1"/>
</g>
</g>
</svg>
