<?xml version="1.0" encoding="UTF-8" standalone="no"?>
<!DOCTYPE svg PUBLIC "-//W3C//DTD SVG 1.1//EN"
 "http://www.w3.org/Graphics/SVG/1.1/DTD/svg11.dtd">
<!-- Generated by graphviz version 2.47.3 (20210619.1520)
 -->
<!-- Title: G Pages: 1 -->
<svg width="242pt" height="188pt"
 viewBox="0.00 0.00 241.72 188.00" xmlns="http://www.w3.org/2000/svg" xmlns:xlink="http://www.w3.org/1999/xlink">
<g id="graph0" class="graph" transform="scale(1 1) rotate(0) translate(4 184)">
<title>G</title>
<polygon fill="white" stroke="transparent" points="-4,4 -4,-184 237.72,-184 237.72,4 -4,4"/>
<!-- TTYP&#45;ADDRT_CHANGED_FIELDS -->
<g id="node1" class="node">
<title>TTYP&#45;ADDRT_CHANGED_FIELDS</title>
<polygon fill="none" stroke="yellow" points="233.59,-180 0.14,-180 0.14,-144 233.59,-144 233.59,-180"/>
<text text-anchor="middle" x="116.86" y="-157.8" font-family="Times,serif" font-size="14.00">TTYP&#45;ADDRT_CHANGED_FIELDS</text>
</g>
<!-- DTEL&#45;ADDR_FIELDNAME -->
<g id="node2" class="node">
<title>DTEL&#45;ADDR_FIELDNAME</title>
<g id="a_node2"><a xlink:href="./DTEL_ADDR_FIELDNAME.html" xlink:title="DTEL&#45;ADDR_FIELDNAME">
<polygon fill="none" stroke="yellow" points="208.81,-108 24.92,-108 24.92,-72 208.81,-72 208.81,-108"/>
<text text-anchor="middle" x="116.86" y="-85.8" font-family="Times,serif" font-size="14.00">DTEL&#45;ADDR_FIELDNAME</text>
</a>
</g>
</g>
<!-- TTYP&#45;ADDRT_CHANGED_FIELDS&#45;&gt;DTEL&#45;ADDR_FIELDNAME -->
<g id="edge1" class="edge">
<title>TTYP&#45;ADDRT_CHANGED_FIELDS&#45;&gt;DTEL&#45;ADDR_FIELDNAME</title>
<path fill="none" stroke="black" d="M116.86,-143.7C116.86,-135.98 116.86,-126.71 116.86,-118.11"/>
<polygon fill="black" stroke="black" points="120.36,-118.1 116.86,-108.1 113.36,-118.1 120.36,-118.1"/>
</g>
<!-- DOMA&#45;ADDR_FIELDNAME -->
<g id="node3" class="node">
<title>DOMA&#45;ADDR_FIELDNAME</title>
<g id="a_node3"><a xlink:href="./DOMA_ADDR_FIELDNAME.html" xlink:title="DOMA&#45;ADDR_FIELDNAME">
<polygon fill="none" stroke="yellow" points="212.31,-36 21.42,-36 21.42,0 212.31,0 212.31,-36"/>
<text text-anchor="middle" x="116.86" y="-13.8" font-family="Times,serif" font-size="14.00">DOMA&#45;ADDR_FIELDNAME</text>
</a>
</g>
</g>
<!-- DTEL&#45;ADDR_FIELDNAME&#45;&gt;DOMA&#45;ADDR_FIELDNAME -->
<g id="edge2" class="edge">
<title>DTEL&#45;ADDR_FIELDNAME&#45;&gt;DOMA&#45;ADDR_FIELDNAME</title>
<path fill="none" stroke="black" d="M116.86,-71.7C116.86,-63.98 116.86,-54.71 116.86,-46.11"/>
<polygon fill="black" stroke="black" points="120.36,-46.1 116.86,-36.1 113.36,-46.1 120.36,-46.1"/>
</g>
</g>
</svg>
